<?xml version="1.0" encoding="utf-8" standalone="no"?>
<!DOCTYPE svg PUBLIC "-//W3C//DTD SVG 1.1//EN"
  "http://www.w3.org/Graphics/SVG/1.1/DTD/svg11.dtd">
<svg xmlns:xlink="http://www.w3.org/1999/xlink" width="460.8pt" height="345.6pt" viewBox="0 0 460.8 345.6" xmlns="http://www.w3.org/2000/svg" version="1.1">
 <metadata>
  <rdf:RDF xmlns:dc="http://purl.org/dc/elements/1.1/" xmlns:cc="http://creativecommons.org/ns#" xmlns:rdf="http://www.w3.org/1999/02/22-rdf-syntax-ns#">
   <cc:Work>
    <dc:type rdf:resource="http://purl.org/dc/dcmitype/StillImage"/>
    <dc:date>2024-02-03T13:08:12.255932</dc:date>
    <dc:format>image/svg+xml</dc:format>
    <dc:creator>
     <cc:Agent>
      <dc:title>Matplotlib v3.5.3, https://matplotlib.org/</dc:title>
     </cc:Agent>
    </dc:creator>
   </cc:Work>
  </rdf:RDF>
 </metadata>
 <defs>
  <style type="text/css">*{stroke-linejoin: round; stroke-linecap: butt}</style>
 </defs>
 <g id="figure_1">
  <g id="patch_1">
   <path d="M 0 345.6 
L 460.8 345.6 
L 460.8 0 
L 0 0 
z
" style="fill: #ffffff"/>
  </g>
  <g id="axes_1">
   <g id="patch_2">
    <path d="M 47.82125 303.64 
L 450 303.64 
L 450 46.675687 
L 47.82125 46.675687 
z
" style="fill: #ffffff"/>
   </g>
   <g id="PathCollection_1">
    <defs>
     <path id="m62e9961b4f" d="M 0 3 
C 0.795609 3 1.55874 2.683901 2.12132 2.12132 
C 2.683901 1.55874 3 0.795609 3 0 
C 3 -0.795609 2.683901 -1.55874 2.12132 -2.12132 
C 1.55874 -2.683901 0.795609 -3 0 -3 
C -0.795609 -3 -1.55874 -2.683901 -2.12132 -2.12132 
C -2.683901 -1.55874 -3 -0.795609 -3 0 
C -3 0.795609 -2.683901 1.55874 -2.12132 2.12132 
C -1.55874 2.683901 -0.795609 3 0 3 
z
" style="stroke: #1f77b4"/>
    </defs>
    <g clip-path="url(#pc53dc7c7e6)">
     <use xlink:href="#m62e9961b4f" x="146.952258" y="194.61284" style="fill: #1f77b4; stroke: #1f77b4"/>
     <use xlink:href="#m62e9961b4f" x="206.637543" y="233.433832" style="fill: #1f77b4; stroke: #1f77b4"/>
     <use xlink:href="#m62e9961b4f" x="83.23972" y="179.205458" style="fill: #1f77b4; stroke: #1f77b4"/>
     <use xlink:href="#m62e9961b4f" x="201.860629" y="196.96882" style="fill: #1f77b4; stroke: #1f77b4"/>
     <use xlink:href="#m62e9961b4f" x="150.57853" y="176.150346" style="fill: #1f77b4; stroke: #1f77b4"/>
     <use xlink:href="#m62e9961b4f" x="124.784933" y="184.85063" style="fill: #1f77b4; stroke: #1f77b4"/>
     <use xlink:href="#m62e9961b4f" x="265.398827" y="220.388153" style="fill: #1f77b4; stroke: #1f77b4"/>
     <use xlink:href="#m62e9961b4f" x="214.613597" y="279.681562" style="fill: #1f77b4; stroke: #1f77b4"/>
     <use xlink:href="#m62e9961b4f" x="268.301587" y="217.299215" style="fill: #1f77b4; stroke: #1f77b4"/>
     <use xlink:href="#m62e9961b4f" x="157.499826" y="204.407047" style="fill: #1f77b4; stroke: #1f77b4"/>
     <use xlink:href="#m62e9961b4f" x="238.576624" y="181.277426" style="fill: #1f77b4; stroke: #1f77b4"/>
     <use xlink:href="#m62e9961b4f" x="109.530186" y="273.004915" style="fill: #1f77b4; stroke: #1f77b4"/>
     <use xlink:href="#m62e9961b4f" x="273.034917" y="192.502111" style="fill: #1f77b4; stroke: #1f77b4"/>
     <use xlink:href="#m62e9961b4f" x="211.606232" y="227.614927" style="fill: #1f77b4; stroke: #1f77b4"/>
     <use xlink:href="#m62e9961b4f" x="328.396571" y="196.587313" style="fill: #1f77b4; stroke: #1f77b4"/>
     <use xlink:href="#m62e9961b4f" x="269.739892" y="267.251884" style="fill: #1f77b4; stroke: #1f77b4"/>
     <use xlink:href="#m62e9961b4f" x="324.412903" y="247.151867" style="fill: #1f77b4; stroke: #1f77b4"/>
     <use xlink:href="#m62e9961b4f" x="196.639147" y="179.42194" style="fill: #1f77b4; stroke: #1f77b4"/>
     <use xlink:href="#m62e9961b4f" x="122.187267" y="158.594016" style="fill: #1f77b4; stroke: #1f77b4"/>
     <use xlink:href="#m62e9961b4f" x="68.612598" y="199.151805" style="fill: #1f77b4; stroke: #1f77b4"/>
     <use xlink:href="#m62e9961b4f" x="283.530182" y="279.7855" style="fill: #1f77b4; stroke: #1f77b4"/>
     <use xlink:href="#m62e9961b4f" x="156.64556" y="195.359358" style="fill: #1f77b4; stroke: #1f77b4"/>
     <use xlink:href="#m62e9961b4f" x="236.127147" y="161.531732" style="fill: #1f77b4; stroke: #1f77b4"/>
     <use xlink:href="#m62e9961b4f" x="183.860028" y="189.467576" style="fill: #1f77b4; stroke: #1f77b4"/>
     <use xlink:href="#m62e9961b4f" x="135.524274" y="248.706974" style="fill: #1f77b4; stroke: #1f77b4"/>
     <use xlink:href="#m62e9961b4f" x="316.567605" y="148.109699" style="fill: #1f77b4; stroke: #1f77b4"/>
     <use xlink:href="#m62e9961b4f" x="276.600169" y="236.619115" style="fill: #1f77b4; stroke: #1f77b4"/>
     <use xlink:href="#m62e9961b4f" x="321.649614" y="270.203162" style="fill: #1f77b4; stroke: #1f77b4"/>
     <use xlink:href="#m62e9961b4f" x="183.607235" y="237.778997" style="fill: #1f77b4; stroke: #1f77b4"/>
     <use xlink:href="#m62e9961b4f" x="258.059114" y="250.944469" style="fill: #1f77b4; stroke: #1f77b4"/>
     <use xlink:href="#m62e9961b4f" x="142.820401" y="207.204384" style="fill: #1f77b4; stroke: #1f77b4"/>
     <use xlink:href="#m62e9961b4f" x="262.618104" y="184.967128" style="fill: #1f77b4; stroke: #1f77b4"/>
     <use xlink:href="#m62e9961b4f" x="377.961421" y="220.101183" style="fill: #1f77b4; stroke: #1f77b4"/>
     <use xlink:href="#m62e9961b4f" x="331.09884" y="158.756011" style="fill: #1f77b4; stroke: #1f77b4"/>
     <use xlink:href="#m62e9961b4f" x="66.102102" y="189.930526" style="fill: #1f77b4; stroke: #1f77b4"/>
     <use xlink:href="#m62e9961b4f" x="337.967835" y="202.527803" style="fill: #1f77b4; stroke: #1f77b4"/>
     <use xlink:href="#m62e9961b4f" x="233.782275" y="223.773257" style="fill: #1f77b4; stroke: #1f77b4"/>
     <use xlink:href="#m62e9961b4f" x="238.454586" y="276.799018" style="fill: #1f77b4; stroke: #1f77b4"/>
     <use xlink:href="#m62e9961b4f" x="234.645258" y="279.615247" style="fill: #1f77b4; stroke: #1f77b4"/>
     <use xlink:href="#m62e9961b4f" x="167.68128" y="176.816399" style="fill: #1f77b4; stroke: #1f77b4"/>
     <use xlink:href="#m62e9961b4f" x="153.385403" y="187.437037" style="fill: #1f77b4; stroke: #1f77b4"/>
     <use xlink:href="#m62e9961b4f" x="270.629025" y="197.428199" style="fill: #1f77b4; stroke: #1f77b4"/>
     <use xlink:href="#m62e9961b4f" x="219.041831" y="229.534333" style="fill: #1f77b4; stroke: #1f77b4"/>
     <use xlink:href="#m62e9961b4f" x="324.308299" y="215.186992" style="fill: #1f77b4; stroke: #1f77b4"/>
     <use xlink:href="#m62e9961b4f" x="264.291768" y="180.701674" style="fill: #1f77b4; stroke: #1f77b4"/>
     <use xlink:href="#m62e9961b4f" x="250.344571" y="239.815528" style="fill: #1f77b4; stroke: #1f77b4"/>
     <use xlink:href="#m62e9961b4f" x="144.415612" y="186.530108" style="fill: #1f77b4; stroke: #1f77b4"/>
     <use xlink:href="#m62e9961b4f" x="265.581884" y="244.112532" style="fill: #1f77b4; stroke: #1f77b4"/>
     <use xlink:href="#m62e9961b4f" x="186.928411" y="227.974436" style="fill: #1f77b4; stroke: #1f77b4"/>
     <use xlink:href="#m62e9961b4f" x="301.400028" y="221.221538" style="fill: #1f77b4; stroke: #1f77b4"/>
     <use xlink:href="#m62e9961b4f" x="240.006212" y="202.749205" style="fill: #1f77b4; stroke: #1f77b4"/>
     <use xlink:href="#m62e9961b4f" x="198.940434" y="177.177757" style="fill: #1f77b4; stroke: #1f77b4"/>
     <use xlink:href="#m62e9961b4f" x="231.324082" y="218.198445" style="fill: #1f77b4; stroke: #1f77b4"/>
     <use xlink:href="#m62e9961b4f" x="145.801615" y="192.178814" style="fill: #1f77b4; stroke: #1f77b4"/>
     <use xlink:href="#m62e9961b4f" x="179.344623" y="218.222981" style="fill: #1f77b4; stroke: #1f77b4"/>
     <use xlink:href="#m62e9961b4f" x="162.68644" y="227.739351" style="fill: #1f77b4; stroke: #1f77b4"/>
     <use xlink:href="#m62e9961b4f" x="266.837131" y="198.338439" style="fill: #1f77b4; stroke: #1f77b4"/>
     <use xlink:href="#m62e9961b4f" x="206.99494" y="202.10819" style="fill: #1f77b4; stroke: #1f77b4"/>
     <use xlink:href="#m62e9961b4f" x="222.537348" y="261.30407" style="fill: #1f77b4; stroke: #1f77b4"/>
     <use xlink:href="#m62e9961b4f" x="230.391363" y="180.956042" style="fill: #1f77b4; stroke: #1f77b4"/>
     <use xlink:href="#m62e9961b4f" x="431.719148" y="223.933883" style="fill: #1f77b4; stroke: #1f77b4"/>
     <use xlink:href="#m62e9961b4f" x="394.349377" y="242.704483" style="fill: #1f77b4; stroke: #1f77b4"/>
     <use xlink:href="#m62e9961b4f" x="311.145632" y="219.163222" style="fill: #1f77b4; stroke: #1f77b4"/>
     <use xlink:href="#m62e9961b4f" x="293.807523" y="180.860291" style="fill: #1f77b4; stroke: #1f77b4"/>
     <use xlink:href="#m62e9961b4f" x="244.42573" y="260.330183" style="fill: #1f77b4; stroke: #1f77b4"/>
     <use xlink:href="#m62e9961b4f" x="295.027903" y="284.523214" style="fill: #1f77b4; stroke: #1f77b4"/>
    </g>
   </g>
   <g id="matplotlib.axis_1">
    <g id="xtick_1">
     <g id="line2d_1">
      <defs>
       <path id="m14066f1972" d="M 0 0 
L 0 3.5 
" style="stroke: #000000; stroke-width: 0.8"/>
      </defs>
      <g>
       <use xlink:href="#m14066f1972" x="108.50158" y="303.64" style="stroke: #000000; stroke-width: 0.8"/>
      </g>
     </g>
     <g id="text_1">
      <!-- −900 -->
      <g transform="translate(94.767987 318.238437)scale(0.1 -0.1)">
       <defs>
        <path id="DejaVuSans-2212" d="M 678 2272 
L 4684 2272 
L 4684 1741 
L 678 1741 
L 678 2272 
z
" transform="scale(0.015625)"/>
        <path id="DejaVuSans-39" d="M 703 97 
L 703 672 
Q 941 559 1184 500 
Q 1428 441 1663 441 
Q 2288 441 2617 861 
Q 2947 1281 2994 2138 
Q 2813 1869 2534 1725 
Q 2256 1581 1919 1581 
Q 1219 1581 811 2004 
Q 403 2428 403 3163 
Q 403 3881 828 4315 
Q 1253 4750 1959 4750 
Q 2769 4750 3195 4129 
Q 3622 3509 3622 2328 
Q 3622 1225 3098 567 
Q 2575 -91 1691 -91 
Q 1453 -91 1209 -44 
Q 966 3 703 97 
z
M 1959 2075 
Q 2384 2075 2632 2365 
Q 2881 2656 2881 3163 
Q 2881 3666 2632 3958 
Q 2384 4250 1959 4250 
Q 1534 4250 1286 3958 
Q 1038 3666 1038 3163 
Q 1038 2656 1286 2365 
Q 1534 2075 1959 2075 
z
" transform="scale(0.015625)"/>
        <path id="DejaVuSans-30" d="M 2034 4250 
Q 1547 4250 1301 3770 
Q 1056 3291 1056 2328 
Q 1056 1369 1301 889 
Q 1547 409 2034 409 
Q 2525 409 2770 889 
Q 3016 1369 3016 2328 
Q 3016 3291 2770 3770 
Q 2525 4250 2034 4250 
z
M 2034 4750 
Q 2819 4750 3233 4129 
Q 3647 3509 3647 2328 
Q 3647 1150 3233 529 
Q 2819 -91 2034 -91 
Q 1250 -91 836 529 
Q 422 1150 422 2328 
Q 422 3509 836 4129 
Q 1250 4750 2034 4750 
z
" transform="scale(0.015625)"/>
       </defs>
       <use xlink:href="#DejaVuSans-2212"/>
       <use xlink:href="#DejaVuSans-39" x="83.789062"/>
       <use xlink:href="#DejaVuSans-30" x="147.412109"/>
       <use xlink:href="#DejaVuSans-30" x="211.035156"/>
      </g>
     </g>
    </g>
    <g id="xtick_2">
     <g id="line2d_2">
      <g>
       <use xlink:href="#m14066f1972" x="195.67156" y="303.64" style="stroke: #000000; stroke-width: 0.8"/>
      </g>
     </g>
     <g id="text_2">
      <!-- −800 -->
      <g transform="translate(181.937966 318.238437)scale(0.1 -0.1)">
       <defs>
        <path id="DejaVuSans-38" d="M 2034 2216 
Q 1584 2216 1326 1975 
Q 1069 1734 1069 1313 
Q 1069 891 1326 650 
Q 1584 409 2034 409 
Q 2484 409 2743 651 
Q 3003 894 3003 1313 
Q 3003 1734 2745 1975 
Q 2488 2216 2034 2216 
z
M 1403 2484 
Q 997 2584 770 2862 
Q 544 3141 544 3541 
Q 544 4100 942 4425 
Q 1341 4750 2034 4750 
Q 2731 4750 3128 4425 
Q 3525 4100 3525 3541 
Q 3525 3141 3298 2862 
Q 3072 2584 2669 2484 
Q 3125 2378 3379 2068 
Q 3634 1759 3634 1313 
Q 3634 634 3220 271 
Q 2806 -91 2034 -91 
Q 1263 -91 848 271 
Q 434 634 434 1313 
Q 434 1759 690 2068 
Q 947 2378 1403 2484 
z
M 1172 3481 
Q 1172 3119 1398 2916 
Q 1625 2713 2034 2713 
Q 2441 2713 2670 2916 
Q 2900 3119 2900 3481 
Q 2900 3844 2670 4047 
Q 2441 4250 2034 4250 
Q 1625 4250 1398 4047 
Q 1172 3844 1172 3481 
z
" transform="scale(0.015625)"/>
       </defs>
       <use xlink:href="#DejaVuSans-2212"/>
       <use xlink:href="#DejaVuSans-38" x="83.789062"/>
       <use xlink:href="#DejaVuSans-30" x="147.412109"/>
       <use xlink:href="#DejaVuSans-30" x="211.035156"/>
      </g>
     </g>
    </g>
    <g id="xtick_3">
     <g id="line2d_3">
      <g>
       <use xlink:href="#m14066f1972" x="282.84154" y="303.64" style="stroke: #000000; stroke-width: 0.8"/>
      </g>
     </g>
     <g id="text_3">
      <!-- −700 -->
      <g transform="translate(269.107946 318.238437)scale(0.1 -0.1)">
       <defs>
        <path id="DejaVuSans-37" d="M 525 4666 
L 3525 4666 
L 3525 4397 
L 1831 0 
L 1172 0 
L 2766 4134 
L 525 4134 
L 525 4666 
z
" transform="scale(0.015625)"/>
       </defs>
       <use xlink:href="#DejaVuSans-2212"/>
       <use xlink:href="#DejaVuSans-37" x="83.789062"/>
       <use xlink:href="#DejaVuSans-30" x="147.412109"/>
       <use xlink:href="#DejaVuSans-30" x="211.035156"/>
      </g>
     </g>
    </g>
    <g id="xtick_4">
     <g id="line2d_4">
      <g>
       <use xlink:href="#m14066f1972" x="370.011519" y="303.64" style="stroke: #000000; stroke-width: 0.8"/>
      </g>
     </g>
     <g id="text_4">
      <!-- −600 -->
      <g transform="translate(356.277925 318.238437)scale(0.1 -0.1)">
       <defs>
        <path id="DejaVuSans-36" d="M 2113 2584 
Q 1688 2584 1439 2293 
Q 1191 2003 1191 1497 
Q 1191 994 1439 701 
Q 1688 409 2113 409 
Q 2538 409 2786 701 
Q 3034 994 3034 1497 
Q 3034 2003 2786 2293 
Q 2538 2584 2113 2584 
z
M 3366 4563 
L 3366 3988 
Q 3128 4100 2886 4159 
Q 2644 4219 2406 4219 
Q 1781 4219 1451 3797 
Q 1122 3375 1075 2522 
Q 1259 2794 1537 2939 
Q 1816 3084 2150 3084 
Q 2853 3084 3261 2657 
Q 3669 2231 3669 1497 
Q 3669 778 3244 343 
Q 2819 -91 2113 -91 
Q 1303 -91 875 529 
Q 447 1150 447 2328 
Q 447 3434 972 4092 
Q 1497 4750 2381 4750 
Q 2619 4750 2861 4703 
Q 3103 4656 3366 4563 
z
" transform="scale(0.015625)"/>
       </defs>
       <use xlink:href="#DejaVuSans-2212"/>
       <use xlink:href="#DejaVuSans-36" x="83.789062"/>
       <use xlink:href="#DejaVuSans-30" x="147.412109"/>
       <use xlink:href="#DejaVuSans-30" x="211.035156"/>
      </g>
     </g>
    </g>
    <g id="text_5">
     <!-- SasaDiff -->
     <g transform="translate(228.244219 331.916562)scale(0.1 -0.1)">
      <defs>
       <path id="DejaVuSans-53" d="M 3425 4513 
L 3425 3897 
Q 3066 4069 2747 4153 
Q 2428 4238 2131 4238 
Q 1616 4238 1336 4038 
Q 1056 3838 1056 3469 
Q 1056 3159 1242 3001 
Q 1428 2844 1947 2747 
L 2328 2669 
Q 3034 2534 3370 2195 
Q 3706 1856 3706 1288 
Q 3706 609 3251 259 
Q 2797 -91 1919 -91 
Q 1588 -91 1214 -16 
Q 841 59 441 206 
L 441 856 
Q 825 641 1194 531 
Q 1563 422 1919 422 
Q 2459 422 2753 634 
Q 3047 847 3047 1241 
Q 3047 1584 2836 1778 
Q 2625 1972 2144 2069 
L 1759 2144 
Q 1053 2284 737 2584 
Q 422 2884 422 3419 
Q 422 4038 858 4394 
Q 1294 4750 2059 4750 
Q 2388 4750 2728 4690 
Q 3069 4631 3425 4513 
z
" transform="scale(0.015625)"/>
       <path id="DejaVuSans-61" d="M 2194 1759 
Q 1497 1759 1228 1600 
Q 959 1441 959 1056 
Q 959 750 1161 570 
Q 1363 391 1709 391 
Q 2188 391 2477 730 
Q 2766 1069 2766 1631 
L 2766 1759 
L 2194 1759 
z
M 3341 1997 
L 3341 0 
L 2766 0 
L 2766 531 
Q 2569 213 2275 61 
Q 1981 -91 1556 -91 
Q 1019 -91 701 211 
Q 384 513 384 1019 
Q 384 1609 779 1909 
Q 1175 2209 1959 2209 
L 2766 2209 
L 2766 2266 
Q 2766 2663 2505 2880 
Q 2244 3097 1772 3097 
Q 1472 3097 1187 3025 
Q 903 2953 641 2809 
L 641 3341 
Q 956 3463 1253 3523 
Q 1550 3584 1831 3584 
Q 2591 3584 2966 3190 
Q 3341 2797 3341 1997 
z
" transform="scale(0.015625)"/>
       <path id="DejaVuSans-73" d="M 2834 3397 
L 2834 2853 
Q 2591 2978 2328 3040 
Q 2066 3103 1784 3103 
Q 1356 3103 1142 2972 
Q 928 2841 928 2578 
Q 928 2378 1081 2264 
Q 1234 2150 1697 2047 
L 1894 2003 
Q 2506 1872 2764 1633 
Q 3022 1394 3022 966 
Q 3022 478 2636 193 
Q 2250 -91 1575 -91 
Q 1294 -91 989 -36 
Q 684 19 347 128 
L 347 722 
Q 666 556 975 473 
Q 1284 391 1588 391 
Q 1994 391 2212 530 
Q 2431 669 2431 922 
Q 2431 1156 2273 1281 
Q 2116 1406 1581 1522 
L 1381 1569 
Q 847 1681 609 1914 
Q 372 2147 372 2553 
Q 372 3047 722 3315 
Q 1072 3584 1716 3584 
Q 2034 3584 2315 3537 
Q 2597 3491 2834 3397 
z
" transform="scale(0.015625)"/>
       <path id="DejaVuSans-44" d="M 1259 4147 
L 1259 519 
L 2022 519 
Q 2988 519 3436 956 
Q 3884 1394 3884 2338 
Q 3884 3275 3436 3711 
Q 2988 4147 2022 4147 
L 1259 4147 
z
M 628 4666 
L 1925 4666 
Q 3281 4666 3915 4102 
Q 4550 3538 4550 2338 
Q 4550 1131 3912 565 
Q 3275 0 1925 0 
L 628 0 
L 628 4666 
z
" transform="scale(0.015625)"/>
       <path id="DejaVuSans-69" d="M 603 3500 
L 1178 3500 
L 1178 0 
L 603 0 
L 603 3500 
z
M 603 4863 
L 1178 4863 
L 1178 4134 
L 603 4134 
L 603 4863 
z
" transform="scale(0.015625)"/>
       <path id="DejaVuSans-66" d="M 2375 4863 
L 2375 4384 
L 1825 4384 
Q 1516 4384 1395 4259 
Q 1275 4134 1275 3809 
L 1275 3500 
L 2222 3500 
L 2222 3053 
L 1275 3053 
L 1275 0 
L 697 0 
L 697 3053 
L 147 3053 
L 147 3500 
L 697 3500 
L 697 3744 
Q 697 4328 969 4595 
Q 1241 4863 1831 4863 
L 2375 4863 
z
" transform="scale(0.015625)"/>
      </defs>
      <use xlink:href="#DejaVuSans-53"/>
      <use xlink:href="#DejaVuSans-61" x="63.476562"/>
      <use xlink:href="#DejaVuSans-73" x="124.755859"/>
      <use xlink:href="#DejaVuSans-61" x="176.855469"/>
      <use xlink:href="#DejaVuSans-44" x="238.134766"/>
      <use xlink:href="#DejaVuSans-69" x="315.136719"/>
      <use xlink:href="#DejaVuSans-66" x="342.919922"/>
      <use xlink:href="#DejaVuSans-66" x="378.125"/>
     </g>
    </g>
   </g>
   <g id="matplotlib.axis_2">
    <g id="ytick_1">
     <g id="line2d_5">
      <defs>
       <path id="mbaa14da249" d="M 0 0 
L -3.5 0 
" style="stroke: #000000; stroke-width: 0.8"/>
      </defs>
      <g>
       <use xlink:href="#mbaa14da249" x="47.82125" y="303.64" style="stroke: #000000; stroke-width: 0.8"/>
      </g>
     </g>
     <g id="text_6">
      <!-- 0.0 -->
      <g transform="translate(24.918125 307.439219)scale(0.1 -0.1)">
       <defs>
        <path id="DejaVuSans-2e" d="M 684 794 
L 1344 794 
L 1344 0 
L 684 0 
L 684 794 
z
" transform="scale(0.015625)"/>
       </defs>
       <use xlink:href="#DejaVuSans-30"/>
       <use xlink:href="#DejaVuSans-2e" x="63.623047"/>
       <use xlink:href="#DejaVuSans-30" x="95.410156"/>
      </g>
     </g>
    </g>
    <g id="ytick_2">
     <g id="line2d_6">
      <g>
       <use xlink:href="#mbaa14da249" x="47.82125" y="260.342465" style="stroke: #000000; stroke-width: 0.8"/>
      </g>
     </g>
     <g id="text_7">
      <!-- 0.5 -->
      <g transform="translate(24.918125 264.141684)scale(0.1 -0.1)">
       <defs>
        <path id="DejaVuSans-35" d="M 691 4666 
L 3169 4666 
L 3169 4134 
L 1269 4134 
L 1269 2991 
Q 1406 3038 1543 3061 
Q 1681 3084 1819 3084 
Q 2600 3084 3056 2656 
Q 3513 2228 3513 1497 
Q 3513 744 3044 326 
Q 2575 -91 1722 -91 
Q 1428 -91 1123 -41 
Q 819 9 494 109 
L 494 744 
Q 775 591 1075 516 
Q 1375 441 1709 441 
Q 2250 441 2565 725 
Q 2881 1009 2881 1497 
Q 2881 1984 2565 2268 
Q 2250 2553 1709 2553 
Q 1456 2553 1204 2497 
Q 953 2441 691 2322 
L 691 4666 
z
" transform="scale(0.015625)"/>
       </defs>
       <use xlink:href="#DejaVuSans-30"/>
       <use xlink:href="#DejaVuSans-2e" x="63.623047"/>
       <use xlink:href="#DejaVuSans-35" x="95.410156"/>
      </g>
     </g>
    </g>
    <g id="ytick_3">
     <g id="line2d_7">
      <g>
       <use xlink:href="#mbaa14da249" x="47.82125" y="217.044931" style="stroke: #000000; stroke-width: 0.8"/>
      </g>
     </g>
     <g id="text_8">
      <!-- 1.0 -->
      <g transform="translate(24.918125 220.84415)scale(0.1 -0.1)">
       <defs>
        <path id="DejaVuSans-31" d="M 794 531 
L 1825 531 
L 1825 4091 
L 703 3866 
L 703 4441 
L 1819 4666 
L 2450 4666 
L 2450 531 
L 3481 531 
L 3481 0 
L 794 0 
L 794 531 
z
" transform="scale(0.015625)"/>
       </defs>
       <use xlink:href="#DejaVuSans-31"/>
       <use xlink:href="#DejaVuSans-2e" x="63.623047"/>
       <use xlink:href="#DejaVuSans-30" x="95.410156"/>
      </g>
     </g>
    </g>
    <g id="ytick_4">
     <g id="line2d_8">
      <g>
       <use xlink:href="#mbaa14da249" x="47.82125" y="173.747396" style="stroke: #000000; stroke-width: 0.8"/>
      </g>
     </g>
     <g id="text_9">
      <!-- 1.5 -->
      <g transform="translate(24.918125 177.546615)scale(0.1 -0.1)">
       <use xlink:href="#DejaVuSans-31"/>
       <use xlink:href="#DejaVuSans-2e" x="63.623047"/>
       <use xlink:href="#DejaVuSans-35" x="95.410156"/>
      </g>
     </g>
    </g>
    <g id="ytick_5">
     <g id="line2d_9">
      <g>
       <use xlink:href="#mbaa14da249" x="47.82125" y="130.449862" style="stroke: #000000; stroke-width: 0.8"/>
      </g>
     </g>
     <g id="text_10">
      <!-- 2.0 -->
      <g transform="translate(24.918125 134.249081)scale(0.1 -0.1)">
       <defs>
        <path id="DejaVuSans-32" d="M 1228 531 
L 3431 531 
L 3431 0 
L 469 0 
L 469 531 
Q 828 903 1448 1529 
Q 2069 2156 2228 2338 
Q 2531 2678 2651 2914 
Q 2772 3150 2772 3378 
Q 2772 3750 2511 3984 
Q 2250 4219 1831 4219 
Q 1534 4219 1204 4116 
Q 875 4013 500 3803 
L 500 4441 
Q 881 4594 1212 4672 
Q 1544 4750 1819 4750 
Q 2544 4750 2975 4387 
Q 3406 4025 3406 3419 
Q 3406 3131 3298 2873 
Q 3191 2616 2906 2266 
Q 2828 2175 2409 1742 
Q 1991 1309 1228 531 
z
" transform="scale(0.015625)"/>
       </defs>
       <use xlink:href="#DejaVuSans-32"/>
       <use xlink:href="#DejaVuSans-2e" x="63.623047"/>
       <use xlink:href="#DejaVuSans-30" x="95.410156"/>
      </g>
     </g>
    </g>
    <g id="ytick_6">
     <g id="line2d_10">
      <g>
       <use xlink:href="#mbaa14da249" x="47.82125" y="87.152327" style="stroke: #000000; stroke-width: 0.8"/>
      </g>
     </g>
     <g id="text_11">
      <!-- 2.5 -->
      <g transform="translate(24.918125 90.951546)scale(0.1 -0.1)">
       <use xlink:href="#DejaVuSans-32"/>
       <use xlink:href="#DejaVuSans-2e" x="63.623047"/>
       <use xlink:href="#DejaVuSans-35" x="95.410156"/>
      </g>
     </g>
    </g>
    <g id="text_12">
     <!-- PercentGpA_transformed -->
     <g transform="translate(18.560313 237.696125)rotate(-90)scale(0.1 -0.1)">
      <defs>
       <path id="DejaVuSans-50" d="M 1259 4147 
L 1259 2394 
L 2053 2394 
Q 2494 2394 2734 2622 
Q 2975 2850 2975 3272 
Q 2975 3691 2734 3919 
Q 2494 4147 2053 4147 
L 1259 4147 
z
M 628 4666 
L 2053 4666 
Q 2838 4666 3239 4311 
Q 3641 3956 3641 3272 
Q 3641 2581 3239 2228 
Q 2838 1875 2053 1875 
L 1259 1875 
L 1259 0 
L 628 0 
L 628 4666 
z
" transform="scale(0.015625)"/>
       <path id="DejaVuSans-65" d="M 3597 1894 
L 3597 1613 
L 953 1613 
Q 991 1019 1311 708 
Q 1631 397 2203 397 
Q 2534 397 2845 478 
Q 3156 559 3463 722 
L 3463 178 
Q 3153 47 2828 -22 
Q 2503 -91 2169 -91 
Q 1331 -91 842 396 
Q 353 884 353 1716 
Q 353 2575 817 3079 
Q 1281 3584 2069 3584 
Q 2775 3584 3186 3129 
Q 3597 2675 3597 1894 
z
M 3022 2063 
Q 3016 2534 2758 2815 
Q 2500 3097 2075 3097 
Q 1594 3097 1305 2825 
Q 1016 2553 972 2059 
L 3022 2063 
z
" transform="scale(0.015625)"/>
       <path id="DejaVuSans-72" d="M 2631 2963 
Q 2534 3019 2420 3045 
Q 2306 3072 2169 3072 
Q 1681 3072 1420 2755 
Q 1159 2438 1159 1844 
L 1159 0 
L 581 0 
L 581 3500 
L 1159 3500 
L 1159 2956 
Q 1341 3275 1631 3429 
Q 1922 3584 2338 3584 
Q 2397 3584 2469 3576 
Q 2541 3569 2628 3553 
L 2631 2963 
z
" transform="scale(0.015625)"/>
       <path id="DejaVuSans-63" d="M 3122 3366 
L 3122 2828 
Q 2878 2963 2633 3030 
Q 2388 3097 2138 3097 
Q 1578 3097 1268 2742 
Q 959 2388 959 1747 
Q 959 1106 1268 751 
Q 1578 397 2138 397 
Q 2388 397 2633 464 
Q 2878 531 3122 666 
L 3122 134 
Q 2881 22 2623 -34 
Q 2366 -91 2075 -91 
Q 1284 -91 818 406 
Q 353 903 353 1747 
Q 353 2603 823 3093 
Q 1294 3584 2113 3584 
Q 2378 3584 2631 3529 
Q 2884 3475 3122 3366 
z
" transform="scale(0.015625)"/>
       <path id="DejaVuSans-6e" d="M 3513 2113 
L 3513 0 
L 2938 0 
L 2938 2094 
Q 2938 2591 2744 2837 
Q 2550 3084 2163 3084 
Q 1697 3084 1428 2787 
Q 1159 2491 1159 1978 
L 1159 0 
L 581 0 
L 581 3500 
L 1159 3500 
L 1159 2956 
Q 1366 3272 1645 3428 
Q 1925 3584 2291 3584 
Q 2894 3584 3203 3211 
Q 3513 2838 3513 2113 
z
" transform="scale(0.015625)"/>
       <path id="DejaVuSans-74" d="M 1172 4494 
L 1172 3500 
L 2356 3500 
L 2356 3053 
L 1172 3053 
L 1172 1153 
Q 1172 725 1289 603 
Q 1406 481 1766 481 
L 2356 481 
L 2356 0 
L 1766 0 
Q 1100 0 847 248 
Q 594 497 594 1153 
L 594 3053 
L 172 3053 
L 172 3500 
L 594 3500 
L 594 4494 
L 1172 4494 
z
" transform="scale(0.015625)"/>
       <path id="DejaVuSans-47" d="M 3809 666 
L 3809 1919 
L 2778 1919 
L 2778 2438 
L 4434 2438 
L 4434 434 
Q 4069 175 3628 42 
Q 3188 -91 2688 -91 
Q 1594 -91 976 548 
Q 359 1188 359 2328 
Q 359 3472 976 4111 
Q 1594 4750 2688 4750 
Q 3144 4750 3555 4637 
Q 3966 4525 4313 4306 
L 4313 3634 
Q 3963 3931 3569 4081 
Q 3175 4231 2741 4231 
Q 1884 4231 1454 3753 
Q 1025 3275 1025 2328 
Q 1025 1384 1454 906 
Q 1884 428 2741 428 
Q 3075 428 3337 486 
Q 3600 544 3809 666 
z
" transform="scale(0.015625)"/>
       <path id="DejaVuSans-70" d="M 1159 525 
L 1159 -1331 
L 581 -1331 
L 581 3500 
L 1159 3500 
L 1159 2969 
Q 1341 3281 1617 3432 
Q 1894 3584 2278 3584 
Q 2916 3584 3314 3078 
Q 3713 2572 3713 1747 
Q 3713 922 3314 415 
Q 2916 -91 2278 -91 
Q 1894 -91 1617 61 
Q 1341 213 1159 525 
z
M 3116 1747 
Q 3116 2381 2855 2742 
Q 2594 3103 2138 3103 
Q 1681 3103 1420 2742 
Q 1159 2381 1159 1747 
Q 1159 1113 1420 752 
Q 1681 391 2138 391 
Q 2594 391 2855 752 
Q 3116 1113 3116 1747 
z
" transform="scale(0.015625)"/>
       <path id="DejaVuSans-41" d="M 2188 4044 
L 1331 1722 
L 3047 1722 
L 2188 4044 
z
M 1831 4666 
L 2547 4666 
L 4325 0 
L 3669 0 
L 3244 1197 
L 1141 1197 
L 716 0 
L 50 0 
L 1831 4666 
z
" transform="scale(0.015625)"/>
       <path id="DejaVuSans-5f" d="M 3263 -1063 
L 3263 -1509 
L -63 -1509 
L -63 -1063 
L 3263 -1063 
z
" transform="scale(0.015625)"/>
       <path id="DejaVuSans-6f" d="M 1959 3097 
Q 1497 3097 1228 2736 
Q 959 2375 959 1747 
Q 959 1119 1226 758 
Q 1494 397 1959 397 
Q 2419 397 2687 759 
Q 2956 1122 2956 1747 
Q 2956 2369 2687 2733 
Q 2419 3097 1959 3097 
z
M 1959 3584 
Q 2709 3584 3137 3096 
Q 3566 2609 3566 1747 
Q 3566 888 3137 398 
Q 2709 -91 1959 -91 
Q 1206 -91 779 398 
Q 353 888 353 1747 
Q 353 2609 779 3096 
Q 1206 3584 1959 3584 
z
" transform="scale(0.015625)"/>
       <path id="DejaVuSans-6d" d="M 3328 2828 
Q 3544 3216 3844 3400 
Q 4144 3584 4550 3584 
Q 5097 3584 5394 3201 
Q 5691 2819 5691 2113 
L 5691 0 
L 5113 0 
L 5113 2094 
Q 5113 2597 4934 2840 
Q 4756 3084 4391 3084 
Q 3944 3084 3684 2787 
Q 3425 2491 3425 1978 
L 3425 0 
L 2847 0 
L 2847 2094 
Q 2847 2600 2669 2842 
Q 2491 3084 2119 3084 
Q 1678 3084 1418 2786 
Q 1159 2488 1159 1978 
L 1159 0 
L 581 0 
L 581 3500 
L 1159 3500 
L 1159 2956 
Q 1356 3278 1631 3431 
Q 1906 3584 2284 3584 
Q 2666 3584 2933 3390 
Q 3200 3197 3328 2828 
z
" transform="scale(0.015625)"/>
       <path id="DejaVuSans-64" d="M 2906 2969 
L 2906 4863 
L 3481 4863 
L 3481 0 
L 2906 0 
L 2906 525 
Q 2725 213 2448 61 
Q 2172 -91 1784 -91 
Q 1150 -91 751 415 
Q 353 922 353 1747 
Q 353 2572 751 3078 
Q 1150 3584 1784 3584 
Q 2172 3584 2448 3432 
Q 2725 3281 2906 2969 
z
M 947 1747 
Q 947 1113 1208 752 
Q 1469 391 1925 391 
Q 2381 391 2643 752 
Q 2906 1113 2906 1747 
Q 2906 2381 2643 2742 
Q 2381 3103 1925 3103 
Q 1469 3103 1208 2742 
Q 947 2381 947 1747 
z
" transform="scale(0.015625)"/>
      </defs>
      <use xlink:href="#DejaVuSans-50"/>
      <use xlink:href="#DejaVuSans-65" x="56.677734"/>
      <use xlink:href="#DejaVuSans-72" x="118.201172"/>
      <use xlink:href="#DejaVuSans-63" x="157.064453"/>
      <use xlink:href="#DejaVuSans-65" x="212.044922"/>
      <use xlink:href="#DejaVuSans-6e" x="273.568359"/>
      <use xlink:href="#DejaVuSans-74" x="336.947266"/>
      <use xlink:href="#DejaVuSans-47" x="376.15625"/>
      <use xlink:href="#DejaVuSans-70" x="453.646484"/>
      <use xlink:href="#DejaVuSans-41" x="517.123047"/>
      <use xlink:href="#DejaVuSans-5f" x="585.53125"/>
      <use xlink:href="#DejaVuSans-74" x="635.53125"/>
      <use xlink:href="#DejaVuSans-72" x="674.740234"/>
      <use xlink:href="#DejaVuSans-61" x="715.853516"/>
      <use xlink:href="#DejaVuSans-6e" x="777.132812"/>
      <use xlink:href="#DejaVuSans-73" x="840.511719"/>
      <use xlink:href="#DejaVuSans-66" x="892.611328"/>
      <use xlink:href="#DejaVuSans-6f" x="927.816406"/>
      <use xlink:href="#DejaVuSans-72" x="988.998047"/>
      <use xlink:href="#DejaVuSans-6d" x="1028.361328"/>
      <use xlink:href="#DejaVuSans-65" x="1125.773438"/>
      <use xlink:href="#DejaVuSans-64" x="1187.296875"/>
     </g>
    </g>
   </g>
   <g id="LineCollection_1">
    <path d="M 146.952258 201.363535 
L 146.952258 187.862144 
" clip-path="url(#pc53dc7c7e6)" style="fill: none; stroke: #d3d3d3; stroke-width: 3"/>
    <path d="M 206.637543 237.524903 
L 206.637543 229.34276 
" clip-path="url(#pc53dc7c7e6)" style="fill: none; stroke: #d3d3d3; stroke-width: 3"/>
    <path d="M 83.23972 192.661322 
L 83.23972 165.749594 
" clip-path="url(#pc53dc7c7e6)" style="fill: none; stroke: #d3d3d3; stroke-width: 3"/>
    <path d="M 201.860629 203.080082 
L 201.860629 190.857557 
" clip-path="url(#pc53dc7c7e6)" style="fill: none; stroke: #d3d3d3; stroke-width: 3"/>
    <path d="M 150.57853 187.647489 
L 150.57853 164.653203 
" clip-path="url(#pc53dc7c7e6)" style="fill: none; stroke: #d3d3d3; stroke-width: 3"/>
    <path d="M 124.784933 192.17231 
L 124.784933 177.52895 
" clip-path="url(#pc53dc7c7e6)" style="fill: none; stroke: #d3d3d3; stroke-width: 3"/>
    <path d="M 265.398827 226.277432 
L 265.398827 214.498874 
" clip-path="url(#pc53dc7c7e6)" style="fill: none; stroke: #d3d3d3; stroke-width: 3"/>
    <path d="M 214.613597 282.394191 
L 214.613597 276.968932 
" clip-path="url(#pc53dc7c7e6)" style="fill: none; stroke: #d3d3d3; stroke-width: 3"/>
    <path d="M 268.301587 223.252749 
L 268.301587 211.345682 
" clip-path="url(#pc53dc7c7e6)" style="fill: none; stroke: #d3d3d3; stroke-width: 3"/>
    <path d="M 157.499826 234.848982 
L 157.499826 173.965112 
" clip-path="url(#pc53dc7c7e6)" style="fill: none; stroke: #d3d3d3; stroke-width: 3"/>
    <path d="M 238.576624 197.164088 
L 238.576624 165.390764 
" clip-path="url(#pc53dc7c7e6)" style="fill: none; stroke: #d3d3d3; stroke-width: 3"/>
    <path d="M 109.530186 278.214299 
L 109.530186 267.795531 
" clip-path="url(#pc53dc7c7e6)" style="fill: none; stroke: #d3d3d3; stroke-width: 3"/>
    <path d="M 273.034917 210.402318 
L 273.034917 174.601903 
" clip-path="url(#pc53dc7c7e6)" style="fill: none; stroke: #d3d3d3; stroke-width: 3"/>
    <path d="M 211.606232 259.934332 
L 211.606232 195.295521 
" clip-path="url(#pc53dc7c7e6)" style="fill: none; stroke: #d3d3d3; stroke-width: 3"/>
    <path d="M 328.396571 204.255241 
L 328.396571 188.919385 
" clip-path="url(#pc53dc7c7e6)" style="fill: none; stroke: #d3d3d3; stroke-width: 3"/>
    <path d="M 269.739892 272.428349 
L 269.739892 262.075419 
" clip-path="url(#pc53dc7c7e6)" style="fill: none; stroke: #d3d3d3; stroke-width: 3"/>
    <path d="M 324.412903 250.431449 
L 324.412903 243.872284 
" clip-path="url(#pc53dc7c7e6)" style="fill: none; stroke: #d3d3d3; stroke-width: 3"/>
    <path d="M 196.639147 209.920925 
L 196.639147 148.922955 
" clip-path="url(#pc53dc7c7e6)" style="fill: none; stroke: #d3d3d3; stroke-width: 3"/>
    <path d="M 122.187267 249.848103 
L 122.187267 67.339929 
" clip-path="url(#pc53dc7c7e6)" style="fill: none; stroke: #d3d3d3; stroke-width: 3"/>
    <path d="M 68.612598 208.277912 
L 68.612598 190.025698 
" clip-path="url(#pc53dc7c7e6)" style="fill: none; stroke: #d3d3d3; stroke-width: 3"/>
    <path d="M 283.530182 282.403837 
L 283.530182 277.167162 
" clip-path="url(#pc53dc7c7e6)" style="fill: none; stroke: #d3d3d3; stroke-width: 3"/>
    <path d="M 156.64556 206.020385 
L 156.64556 184.698332 
" clip-path="url(#pc53dc7c7e6)" style="fill: none; stroke: #d3d3d3; stroke-width: 3"/>
    <path d="M 236.127147 183.075654 
L 236.127147 139.987811 
" clip-path="url(#pc53dc7c7e6)" style="fill: none; stroke: #d3d3d3; stroke-width: 3"/>
    <path d="M 183.860028 192.21474 
L 183.860028 186.720413 
" clip-path="url(#pc53dc7c7e6)" style="fill: none; stroke: #d3d3d3; stroke-width: 3"/>
    <path d="M 135.524274 254.281699 
L 135.524274 243.132249 
" clip-path="url(#pc53dc7c7e6)" style="fill: none; stroke: #d3d3d3; stroke-width: 3"/>
    <path d="M 316.567605 237.882251 
L 316.567605 58.337147 
" clip-path="url(#pc53dc7c7e6)" style="fill: none; stroke: #d3d3d3; stroke-width: 3"/>
    <path d="M 276.600169 242.528768 
L 276.600169 230.709462 
" clip-path="url(#pc53dc7c7e6)" style="fill: none; stroke: #d3d3d3; stroke-width: 3"/>
    <path d="M 321.649614 274.495726 
L 321.649614 265.910599 
" clip-path="url(#pc53dc7c7e6)" style="fill: none; stroke: #d3d3d3; stroke-width: 3"/>
    <path d="M 183.607235 252.958297 
L 183.607235 222.599697 
" clip-path="url(#pc53dc7c7e6)" style="fill: none; stroke: #d3d3d3; stroke-width: 3"/>
    <path d="M 258.059114 258.712513 
L 258.059114 243.176425 
" clip-path="url(#pc53dc7c7e6)" style="fill: none; stroke: #d3d3d3; stroke-width: 3"/>
    <path d="M 142.820401 216.388037 
L 142.820401 198.020732 
" clip-path="url(#pc53dc7c7e6)" style="fill: none; stroke: #d3d3d3; stroke-width: 3"/>
    <path d="M 262.618104 195.558285 
L 262.618104 174.375972 
" clip-path="url(#pc53dc7c7e6)" style="fill: none; stroke: #d3d3d3; stroke-width: 3"/>
    <path d="M 377.961421 230.497585 
L 377.961421 209.704781 
" clip-path="url(#pc53dc7c7e6)" style="fill: none; stroke: #d3d3d3; stroke-width: 3"/>
    <path d="M 331.09884 241.900595 
L 331.09884 75.611427 
" clip-path="url(#pc53dc7c7e6)" style="fill: none; stroke: #d3d3d3; stroke-width: 3"/>
    <path d="M 66.102102 206.490356 
L 66.102102 173.370695 
" clip-path="url(#pc53dc7c7e6)" style="fill: none; stroke: #d3d3d3; stroke-width: 3"/>
    <path d="M 337.967835 213.875868 
L 337.967835 191.179739 
" clip-path="url(#pc53dc7c7e6)" style="fill: none; stroke: #d3d3d3; stroke-width: 3"/>
    <path d="M 233.782275 231.757336 
L 233.782275 215.789177 
" clip-path="url(#pc53dc7c7e6)" style="fill: none; stroke: #d3d3d3; stroke-width: 3"/>
    <path d="M 238.454586 280.732633 
L 238.454586 272.865403 
" clip-path="url(#pc53dc7c7e6)" style="fill: none; stroke: #d3d3d3; stroke-width: 3"/>
    <path d="M 234.645258 284.860078 
L 234.645258 274.370415 
" clip-path="url(#pc53dc7c7e6)" style="fill: none; stroke: #d3d3d3; stroke-width: 3"/>
    <path d="M 167.68128 192.79776 
L 167.68128 160.835038 
" clip-path="url(#pc53dc7c7e6)" style="fill: none; stroke: #d3d3d3; stroke-width: 3"/>
    <path d="M 153.385403 197.54286 
L 153.385403 177.331214 
" clip-path="url(#pc53dc7c7e6)" style="fill: none; stroke: #d3d3d3; stroke-width: 3"/>
    <path d="M 270.629025 203.607092 
L 270.629025 191.249306 
" clip-path="url(#pc53dc7c7e6)" style="fill: none; stroke: #d3d3d3; stroke-width: 3"/>
    <path d="M 219.041831 234.596064 
L 219.041831 224.472602 
" clip-path="url(#pc53dc7c7e6)" style="fill: none; stroke: #d3d3d3; stroke-width: 3"/>
    <path d="M 324.308299 220.458385 
L 324.308299 209.915598 
" clip-path="url(#pc53dc7c7e6)" style="fill: none; stroke: #d3d3d3; stroke-width: 3"/>
    <path d="M 264.291768 195.015957 
L 264.291768 166.387391 
" clip-path="url(#pc53dc7c7e6)" style="fill: none; stroke: #d3d3d3; stroke-width: 3"/>
    <path d="M 250.344571 251.991799 
L 250.344571 227.639258 
" clip-path="url(#pc53dc7c7e6)" style="fill: none; stroke: #d3d3d3; stroke-width: 3"/>
    <path d="M 144.415612 200.779964 
L 144.415612 172.280253 
" clip-path="url(#pc53dc7c7e6)" style="fill: none; stroke: #d3d3d3; stroke-width: 3"/>
    <path d="M 265.581884 245.09905 
L 265.581884 243.126014 
" clip-path="url(#pc53dc7c7e6)" style="fill: none; stroke: #d3d3d3; stroke-width: 3"/>
    <path d="M 186.928411 250.322782 
L 186.928411 205.626091 
" clip-path="url(#pc53dc7c7e6)" style="fill: none; stroke: #d3d3d3; stroke-width: 3"/>
    <path d="M 301.400028 227.109392 
L 301.400028 215.333685 
" clip-path="url(#pc53dc7c7e6)" style="fill: none; stroke: #d3d3d3; stroke-width: 3"/>
    <path d="M 240.006212 210.023858 
L 240.006212 195.474552 
" clip-path="url(#pc53dc7c7e6)" style="fill: none; stroke: #d3d3d3; stroke-width: 3"/>
    <path d="M 198.940434 195.934044 
L 198.940434 158.42147 
" clip-path="url(#pc53dc7c7e6)" style="fill: none; stroke: #d3d3d3; stroke-width: 3"/>
    <path d="M 231.324082 224.417329 
L 231.324082 211.979562 
" clip-path="url(#pc53dc7c7e6)" style="fill: none; stroke: #d3d3d3; stroke-width: 3"/>
    <path d="M 145.801615 208.89944 
L 145.801615 175.458188 
" clip-path="url(#pc53dc7c7e6)" style="fill: none; stroke: #d3d3d3; stroke-width: 3"/>
    <path d="M 179.344623 229.916701 
L 179.344623 206.52926 
" clip-path="url(#pc53dc7c7e6)" style="fill: none; stroke: #d3d3d3; stroke-width: 3"/>
    <path d="M 162.68644 233.593224 
L 162.68644 221.885478 
" clip-path="url(#pc53dc7c7e6)" style="fill: none; stroke: #d3d3d3; stroke-width: 3"/>
    <path d="M 266.837131 213.551088 
L 266.837131 183.125789 
" clip-path="url(#pc53dc7c7e6)" style="fill: none; stroke: #d3d3d3; stroke-width: 3"/>
    <path d="M 206.99494 222.586994 
L 206.99494 181.629385 
" clip-path="url(#pc53dc7c7e6)" style="fill: none; stroke: #d3d3d3; stroke-width: 3"/>
    <path d="M 222.537348 266.401881 
L 222.537348 256.206258 
" clip-path="url(#pc53dc7c7e6)" style="fill: none; stroke: #d3d3d3; stroke-width: 3"/>
    <path d="M 230.391363 191.332362 
L 230.391363 170.579723 
" clip-path="url(#pc53dc7c7e6)" style="fill: none; stroke: #d3d3d3; stroke-width: 3"/>
    <path d="M 431.719148 230.117086 
L 431.719148 217.75068 
" clip-path="url(#pc53dc7c7e6)" style="fill: none; stroke: #d3d3d3; stroke-width: 3"/>
    <path d="M 394.349377 248.075916 
L 394.349377 237.33305 
" clip-path="url(#pc53dc7c7e6)" style="fill: none; stroke: #d3d3d3; stroke-width: 3"/>
    <path d="M 311.145632 223.979474 
L 311.145632 214.34697 
" clip-path="url(#pc53dc7c7e6)" style="fill: none; stroke: #d3d3d3; stroke-width: 3"/>
    <path d="M 293.807523 189.479967 
L 293.807523 172.240615 
" clip-path="url(#pc53dc7c7e6)" style="fill: none; stroke: #d3d3d3; stroke-width: 3"/>
    <path d="M 244.42573 262.426344 
L 244.42573 258.234023 
" clip-path="url(#pc53dc7c7e6)" style="fill: none; stroke: #d3d3d3; stroke-width: 3"/>
    <path d="M 295.027903 291.566351 
L 295.027903 277.480078 
" clip-path="url(#pc53dc7c7e6)" style="fill: none; stroke: #d3d3d3; stroke-width: 3"/>
   </g>
   <g id="line2d_11">
    <path d="M 146.952258 206.938574 
L 206.637543 212.540601 
L 83.23972 200.958551 
L 201.860629 212.092242 
L 150.57853 207.278933 
L 124.784933 204.857961 
L 265.398827 218.055902 
L 214.613597 213.289229 
L 268.301587 218.328353 
L 157.499826 207.928562 
L 238.576624 215.538385 
L 109.530186 203.426159 
L 273.034917 218.772621 
L 211.606232 213.006959 
L 328.396571 223.968834 
L 269.739892 218.463352 
L 324.412903 223.59493 
L 196.639147 211.602157 
L 122.187267 204.614146 
L 68.612598 199.585657 
L 283.530182 219.757701 
L 156.64556 207.848381 
L 236.127147 215.308478 
L 183.860028 210.402716 
L 135.524274 205.865949 
L 316.567605 222.858574 
L 276.600169 219.107253 
L 321.649614 223.335569 
L 183.607235 210.378989 
L 258.059114 217.367 
L 142.820401 206.55076 
L 262.618104 217.794905 
L 377.961421 228.620963 
L 331.09884 224.222468 
L 66.102102 199.350024 
L 337.967835 224.867188 
L 233.782275 215.08839 
L 238.454586 215.52693 
L 234.645258 215.169389 
L 167.68128 208.884188 
L 153.385403 207.542385 
L 270.629025 218.546805 
L 219.041831 213.70486 
L 324.308299 223.585112 
L 264.291768 217.951994 
L 250.344571 216.642918 
L 144.415612 206.700485 
L 265.581884 218.073083 
L 186.928411 210.690713 
L 301.400028 221.434954 
L 240.006212 215.672565 
L 198.940434 211.818154 
L 231.324082 214.857665 
L 145.801615 206.830575 
L 179.344623 209.978903 
L 162.68644 208.415375 
L 266.837131 218.1909 
L 206.99494 212.574146 
L 222.537348 214.032947 
L 230.391363 214.770121 
L 431.719148 233.666633 
L 394.349377 230.159128 
L 311.145632 222.349671 
L 293.807523 220.722326 
L 244.42573 216.087379 
L 295.027903 220.83687 
" clip-path="url(#pc53dc7c7e6)" style="fill: none; stroke: #1f77b4; stroke-width: 1.5; stroke-linecap: square"/>
   </g>
   <g id="line2d_12">
    <defs>
     <path id="m099dd4eda3" d="M 0 3 
C 0.795609 3 1.55874 2.683901 2.12132 2.12132 
C 2.683901 1.55874 3 0.795609 3 0 
C 3 -0.795609 2.683901 -1.55874 2.12132 -2.12132 
C 1.55874 -2.683901 0.795609 -3 0 -3 
C -0.795609 -3 -1.55874 -2.683901 -2.12132 -2.12132 
C -2.683901 -1.55874 -3 -0.795609 -3 0 
C -3 0.795609 -2.683901 1.55874 -2.12132 2.12132 
C -1.55874 2.683901 -0.795609 3 0 3 
z
" style="stroke: #000000"/>
    </defs>
    <g clip-path="url(#pc53dc7c7e6)">
     <use xlink:href="#m099dd4eda3" x="146.952258" y="194.61284" style="stroke: #000000"/>
     <use xlink:href="#m099dd4eda3" x="206.637543" y="233.433832" style="stroke: #000000"/>
     <use xlink:href="#m099dd4eda3" x="83.23972" y="179.205458" style="stroke: #000000"/>
     <use xlink:href="#m099dd4eda3" x="201.860629" y="196.96882" style="stroke: #000000"/>
     <use xlink:href="#m099dd4eda3" x="150.57853" y="176.150346" style="stroke: #000000"/>
     <use xlink:href="#m099dd4eda3" x="124.784933" y="184.85063" style="stroke: #000000"/>
     <use xlink:href="#m099dd4eda3" x="265.398827" y="220.388153" style="stroke: #000000"/>
     <use xlink:href="#m099dd4eda3" x="214.613597" y="279.681562" style="stroke: #000000"/>
     <use xlink:href="#m099dd4eda3" x="268.301587" y="217.299215" style="stroke: #000000"/>
     <use xlink:href="#m099dd4eda3" x="157.499826" y="204.407047" style="stroke: #000000"/>
     <use xlink:href="#m099dd4eda3" x="238.576624" y="181.277426" style="stroke: #000000"/>
     <use xlink:href="#m099dd4eda3" x="109.530186" y="273.004915" style="stroke: #000000"/>
     <use xlink:href="#m099dd4eda3" x="273.034917" y="192.502111" style="stroke: #000000"/>
     <use xlink:href="#m099dd4eda3" x="211.606232" y="227.614927" style="stroke: #000000"/>
     <use xlink:href="#m099dd4eda3" x="328.396571" y="196.587313" style="stroke: #000000"/>
     <use xlink:href="#m099dd4eda3" x="269.739892" y="267.251884" style="stroke: #000000"/>
     <use xlink:href="#m099dd4eda3" x="324.412903" y="247.151867" style="stroke: #000000"/>
     <use xlink:href="#m099dd4eda3" x="196.639147" y="179.42194" style="stroke: #000000"/>
     <use xlink:href="#m099dd4eda3" x="122.187267" y="158.594016" style="stroke: #000000"/>
     <use xlink:href="#m099dd4eda3" x="68.612598" y="199.151805" style="stroke: #000000"/>
     <use xlink:href="#m099dd4eda3" x="283.530182" y="279.7855" style="stroke: #000000"/>
     <use xlink:href="#m099dd4eda3" x="156.64556" y="195.359358" style="stroke: #000000"/>
     <use xlink:href="#m099dd4eda3" x="236.127147" y="161.531732" style="stroke: #000000"/>
     <use xlink:href="#m099dd4eda3" x="183.860028" y="189.467576" style="stroke: #000000"/>
     <use xlink:href="#m099dd4eda3" x="135.524274" y="248.706974" style="stroke: #000000"/>
     <use xlink:href="#m099dd4eda3" x="316.567605" y="148.109699" style="stroke: #000000"/>
     <use xlink:href="#m099dd4eda3" x="276.600169" y="236.619115" style="stroke: #000000"/>
     <use xlink:href="#m099dd4eda3" x="321.649614" y="270.203162" style="stroke: #000000"/>
     <use xlink:href="#m099dd4eda3" x="183.607235" y="237.778997" style="stroke: #000000"/>
     <use xlink:href="#m099dd4eda3" x="258.059114" y="250.944469" style="stroke: #000000"/>
     <use xlink:href="#m099dd4eda3" x="142.820401" y="207.204384" style="stroke: #000000"/>
     <use xlink:href="#m099dd4eda3" x="262.618104" y="184.967128" style="stroke: #000000"/>
     <use xlink:href="#m099dd4eda3" x="377.961421" y="220.101183" style="stroke: #000000"/>
     <use xlink:href="#m099dd4eda3" x="331.09884" y="158.756011" style="stroke: #000000"/>
     <use xlink:href="#m099dd4eda3" x="66.102102" y="189.930526" style="stroke: #000000"/>
     <use xlink:href="#m099dd4eda3" x="337.967835" y="202.527803" style="stroke: #000000"/>
     <use xlink:href="#m099dd4eda3" x="233.782275" y="223.773257" style="stroke: #000000"/>
     <use xlink:href="#m099dd4eda3" x="238.454586" y="276.799018" style="stroke: #000000"/>
     <use xlink:href="#m099dd4eda3" x="234.645258" y="279.615247" style="stroke: #000000"/>
     <use xlink:href="#m099dd4eda3" x="167.68128" y="176.816399" style="stroke: #000000"/>
     <use xlink:href="#m099dd4eda3" x="153.385403" y="187.437037" style="stroke: #000000"/>
     <use xlink:href="#m099dd4eda3" x="270.629025" y="197.428199" style="stroke: #000000"/>
     <use xlink:href="#m099dd4eda3" x="219.041831" y="229.534333" style="stroke: #000000"/>
     <use xlink:href="#m099dd4eda3" x="324.308299" y="215.186992" style="stroke: #000000"/>
     <use xlink:href="#m099dd4eda3" x="264.291768" y="180.701674" style="stroke: #000000"/>
     <use xlink:href="#m099dd4eda3" x="250.344571" y="239.815528" style="stroke: #000000"/>
     <use xlink:href="#m099dd4eda3" x="144.415612" y="186.530108" style="stroke: #000000"/>
     <use xlink:href="#m099dd4eda3" x="265.581884" y="244.112532" style="stroke: #000000"/>
     <use xlink:href="#m099dd4eda3" x="186.928411" y="227.974436" style="stroke: #000000"/>
     <use xlink:href="#m099dd4eda3" x="301.400028" y="221.221538" style="stroke: #000000"/>
     <use xlink:href="#m099dd4eda3" x="240.006212" y="202.749205" style="stroke: #000000"/>
     <use xlink:href="#m099dd4eda3" x="198.940434" y="177.177757" style="stroke: #000000"/>
     <use xlink:href="#m099dd4eda3" x="231.324082" y="218.198445" style="stroke: #000000"/>
     <use xlink:href="#m099dd4eda3" x="145.801615" y="192.178814" style="stroke: #000000"/>
     <use xlink:href="#m099dd4eda3" x="179.344623" y="218.222981" style="stroke: #000000"/>
     <use xlink:href="#m099dd4eda3" x="162.68644" y="227.739351" style="stroke: #000000"/>
     <use xlink:href="#m099dd4eda3" x="266.837131" y="198.338439" style="stroke: #000000"/>
     <use xlink:href="#m099dd4eda3" x="206.99494" y="202.10819" style="stroke: #000000"/>
     <use xlink:href="#m099dd4eda3" x="222.537348" y="261.30407" style="stroke: #000000"/>
     <use xlink:href="#m099dd4eda3" x="230.391363" y="180.956042" style="stroke: #000000"/>
     <use xlink:href="#m099dd4eda3" x="431.719148" y="223.933883" style="stroke: #000000"/>
     <use xlink:href="#m099dd4eda3" x="394.349377" y="242.704483" style="stroke: #000000"/>
     <use xlink:href="#m099dd4eda3" x="311.145632" y="219.163222" style="stroke: #000000"/>
     <use xlink:href="#m099dd4eda3" x="293.807523" y="180.860291" style="stroke: #000000"/>
     <use xlink:href="#m099dd4eda3" x="244.42573" y="260.330183" style="stroke: #000000"/>
     <use xlink:href="#m099dd4eda3" x="295.027903" y="284.523214" style="stroke: #000000"/>
    </g>
   </g>
   <g id="patch_3">
    <path d="M 47.82125 303.64 
L 47.82125 46.675687 
" style="fill: none; stroke: #000000; stroke-width: 0.8; stroke-linejoin: miter; stroke-linecap: square"/>
   </g>
   <g id="patch_4">
    <path d="M 450 303.64 
L 450 46.675687 
" style="fill: none; stroke: #000000; stroke-width: 0.8; stroke-linejoin: miter; stroke-linecap: square"/>
   </g>
   <g id="patch_5">
    <path d="M 47.82125 303.64 
L 450 303.64 
" style="fill: none; stroke: #000000; stroke-width: 0.8; stroke-linejoin: miter; stroke-linecap: square"/>
   </g>
   <g id="patch_6">
    <path d="M 47.82125 46.675687 
L 450 46.675687 
" style="fill: none; stroke: #000000; stroke-width: 0.8; stroke-linejoin: miter; stroke-linecap: square"/>
   </g>
   <g id="text_13">
    <!-- y = -0.00x + 0.31 -->
    <g transform="translate(43.314906 18.599344)scale(0.1 -0.1)">
     <defs>
      <path id="DejaVuSans-79" d="M 2059 -325 
Q 1816 -950 1584 -1140 
Q 1353 -1331 966 -1331 
L 506 -1331 
L 506 -850 
L 844 -850 
Q 1081 -850 1212 -737 
Q 1344 -625 1503 -206 
L 1606 56 
L 191 3500 
L 800 3500 
L 1894 763 
L 2988 3500 
L 3597 3500 
L 2059 -325 
z
" transform="scale(0.015625)"/>
      <path id="DejaVuSans-20" transform="scale(0.015625)"/>
      <path id="DejaVuSans-3d" d="M 678 2906 
L 4684 2906 
L 4684 2381 
L 678 2381 
L 678 2906 
z
M 678 1631 
L 4684 1631 
L 4684 1100 
L 678 1100 
L 678 1631 
z
" transform="scale(0.015625)"/>
      <path id="DejaVuSans-2d" d="M 313 2009 
L 1997 2009 
L 1997 1497 
L 313 1497 
L 313 2009 
z
" transform="scale(0.015625)"/>
      <path id="DejaVuSans-78" d="M 3513 3500 
L 2247 1797 
L 3578 0 
L 2900 0 
L 1881 1375 
L 863 0 
L 184 0 
L 1544 1831 
L 300 3500 
L 978 3500 
L 1906 2253 
L 2834 3500 
L 3513 3500 
z
" transform="scale(0.015625)"/>
      <path id="DejaVuSans-2b" d="M 2944 4013 
L 2944 2272 
L 4684 2272 
L 4684 1741 
L 2944 1741 
L 2944 0 
L 2419 0 
L 2419 1741 
L 678 1741 
L 678 2272 
L 2419 2272 
L 2419 4013 
L 2944 4013 
z
" transform="scale(0.015625)"/>
      <path id="DejaVuSans-33" d="M 2597 2516 
Q 3050 2419 3304 2112 
Q 3559 1806 3559 1356 
Q 3559 666 3084 287 
Q 2609 -91 1734 -91 
Q 1441 -91 1130 -33 
Q 819 25 488 141 
L 488 750 
Q 750 597 1062 519 
Q 1375 441 1716 441 
Q 2309 441 2620 675 
Q 2931 909 2931 1356 
Q 2931 1769 2642 2001 
Q 2353 2234 1838 2234 
L 1294 2234 
L 1294 2753 
L 1863 2753 
Q 2328 2753 2575 2939 
Q 2822 3125 2822 3475 
Q 2822 3834 2567 4026 
Q 2313 4219 1838 4219 
Q 1578 4219 1281 4162 
Q 984 4106 628 3988 
L 628 4550 
Q 988 4650 1302 4700 
Q 1616 4750 1894 4750 
Q 2613 4750 3031 4423 
Q 3450 4097 3450 3541 
Q 3450 3153 3228 2886 
Q 3006 2619 2597 2516 
z
" transform="scale(0.015625)"/>
     </defs>
     <use xlink:href="#DejaVuSans-79"/>
     <use xlink:href="#DejaVuSans-20" x="59.179688"/>
     <use xlink:href="#DejaVuSans-3d" x="90.966797"/>
     <use xlink:href="#DejaVuSans-20" x="174.755859"/>
     <use xlink:href="#DejaVuSans-2d" x="206.542969"/>
     <use xlink:href="#DejaVuSans-30" x="242.626953"/>
     <use xlink:href="#DejaVuSans-2e" x="306.25"/>
     <use xlink:href="#DejaVuSans-30" x="338.037109"/>
     <use xlink:href="#DejaVuSans-30" x="401.660156"/>
     <use xlink:href="#DejaVuSans-78" x="465.283203"/>
     <use xlink:href="#DejaVuSans-20" x="524.462891"/>
     <use xlink:href="#DejaVuSans-2b" x="556.25"/>
     <use xlink:href="#DejaVuSans-20" x="640.039062"/>
     <use xlink:href="#DejaVuSans-30" x="671.826172"/>
     <use xlink:href="#DejaVuSans-2e" x="735.449219"/>
     <use xlink:href="#DejaVuSans-33" x="767.236328"/>
     <use xlink:href="#DejaVuSans-31" x="830.859375"/>
    </g>
   </g>
   <g id="text_14">
    <!-- r^2 = 0.04 -->
    <g transform="translate(60.111781 26.308274)scale(0.1 -0.1)">
     <defs>
      <path id="DejaVuSans-5e" d="M 2988 4666 
L 4684 2925 
L 4056 2925 
L 2681 4159 
L 1306 2925 
L 678 2925 
L 2375 4666 
L 2988 4666 
z
" transform="scale(0.015625)"/>
      <path id="DejaVuSans-34" d="M 2419 4116 
L 825 1625 
L 2419 1625 
L 2419 4116 
z
M 2253 4666 
L 3047 4666 
L 3047 1625 
L 3713 1625 
L 3713 1100 
L 3047 1100 
L 3047 0 
L 2419 0 
L 2419 1100 
L 313 1100 
L 313 1709 
L 2253 4666 
z
" transform="scale(0.015625)"/>
     </defs>
     <use xlink:href="#DejaVuSans-72"/>
     <use xlink:href="#DejaVuSans-5e" x="41.113281"/>
     <use xlink:href="#DejaVuSans-32" x="124.902344"/>
     <use xlink:href="#DejaVuSans-20" x="188.525391"/>
     <use xlink:href="#DejaVuSans-3d" x="220.3125"/>
     <use xlink:href="#DejaVuSans-20" x="304.101562"/>
     <use xlink:href="#DejaVuSans-30" x="335.888672"/>
     <use xlink:href="#DejaVuSans-2e" x="399.511719"/>
     <use xlink:href="#DejaVuSans-30" x="431.298828"/>
     <use xlink:href="#DejaVuSans-34" x="494.921875"/>
    </g>
   </g>
   <g id="text_15">
    <!-- n = 66 -->
    <g transform="translate(71.139906 34.017203)scale(0.1 -0.1)">
     <use xlink:href="#DejaVuSans-6e"/>
     <use xlink:href="#DejaVuSans-20" x="63.378906"/>
     <use xlink:href="#DejaVuSans-3d" x="95.166016"/>
     <use xlink:href="#DejaVuSans-20" x="178.955078"/>
     <use xlink:href="#DejaVuSans-36" x="210.742188"/>
     <use xlink:href="#DejaVuSans-36" x="274.365234"/>
    </g>
   </g>
   <g id="text_16">
    <!-- SasaDiff vs PercentGpA_transformed -->
    <g transform="translate(138.574375 40.675687)scale(0.12 -0.12)">
     <defs>
      <path id="DejaVuSans-76" d="M 191 3500 
L 800 3500 
L 1894 563 
L 2988 3500 
L 3597 3500 
L 2284 0 
L 1503 0 
L 191 3500 
z
" transform="scale(0.015625)"/>
     </defs>
     <use xlink:href="#DejaVuSans-53"/>
     <use xlink:href="#DejaVuSans-61" x="63.476562"/>
     <use xlink:href="#DejaVuSans-73" x="124.755859"/>
     <use xlink:href="#DejaVuSans-61" x="176.855469"/>
     <use xlink:href="#DejaVuSans-44" x="238.134766"/>
     <use xlink:href="#DejaVuSans-69" x="315.136719"/>
     <use xlink:href="#DejaVuSans-66" x="342.919922"/>
     <use xlink:href="#DejaVuSans-66" x="378.125"/>
     <use xlink:href="#DejaVuSans-20" x="413.330078"/>
     <use xlink:href="#DejaVuSans-76" x="445.117188"/>
     <use xlink:href="#DejaVuSans-73" x="504.296875"/>
     <use xlink:href="#DejaVuSans-20" x="556.396484"/>
     <use xlink:href="#DejaVuSans-50" x="588.183594"/>
     <use xlink:href="#DejaVuSans-65" x="644.861328"/>
     <use xlink:href="#DejaVuSans-72" x="706.384766"/>
     <use xlink:href="#DejaVuSans-63" x="745.248047"/>
     <use xlink:href="#DejaVuSans-65" x="800.228516"/>
     <use xlink:href="#DejaVuSans-6e" x="861.751953"/>
     <use xlink:href="#DejaVuSans-74" x="925.130859"/>
     <use xlink:href="#DejaVuSans-47" x="964.339844"/>
     <use xlink:href="#DejaVuSans-70" x="1041.830078"/>
     <use xlink:href="#DejaVuSans-41" x="1105.306641"/>
     <use xlink:href="#DejaVuSans-5f" x="1173.714844"/>
     <use xlink:href="#DejaVuSans-74" x="1223.714844"/>
     <use xlink:href="#DejaVuSans-72" x="1262.923828"/>
     <use xlink:href="#DejaVuSans-61" x="1304.037109"/>
     <use xlink:href="#DejaVuSans-6e" x="1365.316406"/>
     <use xlink:href="#DejaVuSans-73" x="1428.695312"/>
     <use xlink:href="#DejaVuSans-66" x="1480.794922"/>
     <use xlink:href="#DejaVuSans-6f" x="1516"/>
     <use xlink:href="#DejaVuSans-72" x="1577.181641"/>
     <use xlink:href="#DejaVuSans-6d" x="1616.544922"/>
     <use xlink:href="#DejaVuSans-65" x="1713.957031"/>
     <use xlink:href="#DejaVuSans-64" x="1775.480469"/>
    </g>
   </g>
  </g>
 </g>
 <defs>
  <clipPath id="pc53dc7c7e6">
   <rect x="47.82125" y="46.675687" width="402.17875" height="256.964313"/>
  </clipPath>
 </defs>
</svg>
