<?xml version="1.0" encoding="utf-8" standalone="no"?>
<!DOCTYPE svg PUBLIC "-//W3C//DTD SVG 1.1//EN"
  "http://www.w3.org/Graphics/SVG/1.1/DTD/svg11.dtd">
<svg xmlns:xlink="http://www.w3.org/1999/xlink" width="460.8pt" height="345.6pt" viewBox="0 0 460.8 345.6" xmlns="http://www.w3.org/2000/svg" version="1.1">
 <metadata>
  <rdf:RDF xmlns:dc="http://purl.org/dc/elements/1.1/" xmlns:cc="http://creativecommons.org/ns#" xmlns:rdf="http://www.w3.org/1999/02/22-rdf-syntax-ns#">
   <cc:Work>
    <dc:type rdf:resource="http://purl.org/dc/dcmitype/StillImage"/>
    <dc:date>2024-02-24T17:20:50.915225</dc:date>
    <dc:format>image/svg+xml</dc:format>
    <dc:creator>
     <cc:Agent>
      <dc:title>Matplotlib v3.5.3, https://matplotlib.org/</dc:title>
     </cc:Agent>
    </dc:creator>
   </cc:Work>
  </rdf:RDF>
 </metadata>
 <defs>
  <style type="text/css">*{stroke-linejoin: round; stroke-linecap: butt}</style>
 </defs>
 <g id="figure_1">
  <g id="patch_1">
   <path d="M 0 345.6 
L 460.8 345.6 
L 460.8 0 
L 0 0 
z
" style="fill: #ffffff"/>
  </g>
  <g id="axes_1">
   <g id="patch_2">
    <path d="M 47.82125 303.64 
L 450 303.64 
L 450 46.675942 
L 47.82125 46.675942 
z
" style="fill: #ffffff"/>
   </g>
   <g id="PathCollection_1">
    <defs>
     <path id="m953f5f38bf" d="M 0 3 
C 0.795609 3 1.55874 2.683901 2.12132 2.12132 
C 2.683901 1.55874 3 0.795609 3 0 
C 3 -0.795609 2.683901 -1.55874 2.12132 -2.12132 
C 1.55874 -2.683901 0.795609 -3 0 -3 
C -0.795609 -3 -1.55874 -2.683901 -2.12132 -2.12132 
C -2.683901 -1.55874 -3 -0.795609 -3 0 
C -3 0.795609 -2.683901 1.55874 -2.12132 2.12132 
C -1.55874 2.683901 -0.795609 3 0 3 
z
" style="stroke: #1f77b4"/>
    </defs>
    <g clip-path="url(#p70c6aa3d6a)">
     <use xlink:href="#m953f5f38bf" x="203.830053" y="215.555687" style="fill: #1f77b4; stroke: #1f77b4"/>
     <use xlink:href="#m953f5f38bf" x="228.48911" y="246.919618" style="fill: #1f77b4; stroke: #1f77b4"/>
     <use xlink:href="#m953f5f38bf" x="137.295944" y="203.107883" style="fill: #1f77b4; stroke: #1f77b4"/>
     <use xlink:href="#m953f5f38bf" x="237.355112" y="217.459111" style="fill: #1f77b4; stroke: #1f77b4"/>
     <use xlink:href="#m953f5f38bf" x="136.98321" y="221.133898" style="fill: #1f77b4; stroke: #1f77b4"/>
     <use xlink:href="#m953f5f38bf" x="195.057871" y="207.668684" style="fill: #1f77b4; stroke: #1f77b4"/>
     <use xlink:href="#m953f5f38bf" x="167.506026" y="193.031849" style="fill: #1f77b4; stroke: #1f77b4"/>
     <use xlink:href="#m953f5f38bf" x="239.168968" y="236.379863" style="fill: #1f77b4; stroke: #1f77b4"/>
     <use xlink:href="#m953f5f38bf" x="69.260713" y="249.887668" style="fill: #1f77b4; stroke: #1f77b4"/>
     <use xlink:href="#m953f5f38bf" x="155.199952" y="223.468541" style="fill: #1f77b4; stroke: #1f77b4"/>
     <use xlink:href="#m953f5f38bf" x="146.443407" y="207.891937" style="fill: #1f77b4; stroke: #1f77b4"/>
     <use xlink:href="#m953f5f38bf" x="316.945856" y="253.620982" style="fill: #1f77b4; stroke: #1f77b4"/>
     <use xlink:href="#m953f5f38bf" x="79.00237" y="222.368489" style="fill: #1f77b4; stroke: #1f77b4"/>
     <use xlink:href="#m953f5f38bf" x="215.917213" y="204.78185" style="fill: #1f77b4; stroke: #1f77b4"/>
     <use xlink:href="#m953f5f38bf" x="349.579624" y="278.889558" style="fill: #1f77b4; stroke: #1f77b4"/>
     <use xlink:href="#m953f5f38bf" x="108.618258" y="213.850404" style="fill: #1f77b4; stroke: #1f77b4"/>
     <use xlink:href="#m953f5f38bf" x="179.139722" y="242.218457" style="fill: #1f77b4; stroke: #1f77b4"/>
     <use xlink:href="#m953f5f38bf" x="242.8905" y="217.150887" style="fill: #1f77b4; stroke: #1f77b4"/>
     <use xlink:href="#m953f5f38bf" x="220.545672" y="274.241617" style="fill: #1f77b4; stroke: #1f77b4"/>
     <use xlink:href="#m953f5f38bf" x="127.16337" y="203.282782" style="fill: #1f77b4; stroke: #1f77b4"/>
     <use xlink:href="#m953f5f38bf" x="188.318458" y="186.455659" style="fill: #1f77b4; stroke: #1f77b4"/>
     <use xlink:href="#m953f5f38bf" x="194.025849" y="219.222769" style="fill: #1f77b4; stroke: #1f77b4"/>
     <use xlink:href="#m953f5f38bf" x="191.351975" y="216.158808" style="fill: #1f77b4; stroke: #1f77b4"/>
     <use xlink:href="#m953f5f38bf" x="183.955822" y="211.398769" style="fill: #1f77b4; stroke: #1f77b4"/>
     <use xlink:href="#m953f5f38bf" x="163.690674" y="259.258968" style="fill: #1f77b4; stroke: #1f77b4"/>
     <use xlink:href="#m953f5f38bf" x="195.386241" y="243.658576" style="fill: #1f77b4; stroke: #1f77b4"/>
     <use xlink:href="#m953f5f38bf" x="188.521735" y="225.728542" style="fill: #1f77b4; stroke: #1f77b4"/>
     <use xlink:href="#m953f5f38bf" x="222.124978" y="207.762804" style="fill: #1f77b4; stroke: #1f77b4"/>
     <use xlink:href="#m953f5f38bf" x="379.070418" y="237.756023" style="fill: #1f77b4; stroke: #1f77b4"/>
     <use xlink:href="#m953f5f38bf" x="224.501755" y="229.417122" style="fill: #1f77b4; stroke: #1f77b4"/>
     <use xlink:href="#m953f5f38bf" x="235.71326" y="186.586537" style="fill: #1f77b4; stroke: #1f77b4"/>
     <use xlink:href="#m953f5f38bf" x="215.495022" y="211.772791" style="fill: #1f77b4; stroke: #1f77b4"/>
     <use xlink:href="#m953f5f38bf" x="249.145175" y="210.016955" style="fill: #1f77b4; stroke: #1f77b4"/>
     <use xlink:href="#m953f5f38bf" x="114.826023" y="239.114727" style="fill: #1f77b4; stroke: #1f77b4"/>
     <use xlink:href="#m953f5f38bf" x="104.099255" y="234.296874" style="fill: #1f77b4; stroke: #1f77b4"/>
     <use xlink:href="#m953f5f38bf" x="245.783287" y="224.49802" style="fill: #1f77b4; stroke: #1f77b4"/>
     <use xlink:href="#m953f5f38bf" x="299.464038" y="216.912936" style="fill: #1f77b4; stroke: #1f77b4"/>
     <use xlink:href="#m953f5f38bf" x="199.185956" y="201.177735" style="fill: #1f77b4; stroke: #1f77b4"/>
     <use xlink:href="#m953f5f38bf" x="182.50161" y="209.758272" style="fill: #1f77b4; stroke: #1f77b4"/>
     <use xlink:href="#m953f5f38bf" x="182.204513" y="243.769168" style="fill: #1f77b4; stroke: #1f77b4"/>
     <use xlink:href="#m953f5f38bf" x="184.487469" y="204.316694" style="fill: #1f77b4; stroke: #1f77b4"/>
     <use xlink:href="#m953f5f38bf" x="87.524365" y="279.364502" style="fill: #1f77b4; stroke: #1f77b4"/>
     <use xlink:href="#m953f5f38bf" x="220.827133" y="209.025554" style="fill: #1f77b4; stroke: #1f77b4"/>
     <use xlink:href="#m953f5f38bf" x="431.719148" y="255.547065" style="fill: #1f77b4; stroke: #1f77b4"/>
     <use xlink:href="#m953f5f38bf" x="237.69912" y="242.508909" style="fill: #1f77b4; stroke: #1f77b4"/>
     <use xlink:href="#m953f5f38bf" x="66.102102" y="284.397057" style="fill: #1f77b4; stroke: #1f77b4"/>
     <use xlink:href="#m953f5f38bf" x="123.019648" y="237.053165" style="fill: #1f77b4; stroke: #1f77b4"/>
     <use xlink:href="#m953f5f38bf" x="301.496808" y="222.129151" style="fill: #1f77b4; stroke: #1f77b4"/>
     <use xlink:href="#m953f5f38bf" x="133.934056" y="243.612392" style="fill: #1f77b4; stroke: #1f77b4"/>
     <use xlink:href="#m953f5f38bf" x="211.148023" y="201.46968" style="fill: #1f77b4; stroke: #1f77b4"/>
     <use xlink:href="#m953f5f38bf" x="210.741469" y="234.610772" style="fill: #1f77b4; stroke: #1f77b4"/>
     <use xlink:href="#m953f5f38bf" x="168.522411" y="154.020287" style="fill: #1f77b4; stroke: #1f77b4"/>
     <use xlink:href="#m953f5f38bf" x="101.941392" y="285.777524" style="fill: #1f77b4; stroke: #1f77b4"/>
     <use xlink:href="#m953f5f38bf" x="236.964195" y="213.589209" style="fill: #1f77b4; stroke: #1f77b4"/>
     <use xlink:href="#m953f5f38bf" x="188.615555" y="276.688783" style="fill: #1f77b4; stroke: #1f77b4"/>
     <use xlink:href="#m953f5f38bf" x="278.198142" y="218.565642" style="fill: #1f77b4; stroke: #1f77b4"/>
     <use xlink:href="#m953f5f38bf" x="410.218701" y="225.978554" style="fill: #1f77b4; stroke: #1f77b4"/>
     <use xlink:href="#m953f5f38bf" x="189.366116" y="217.359099" style="fill: #1f77b4; stroke: #1f77b4"/>
     <use xlink:href="#m953f5f38bf" x="361.291504" y="235.390226" style="fill: #1f77b4; stroke: #1f77b4"/>
     <use xlink:href="#m953f5f38bf" x="129.66524" y="225.482342" style="fill: #1f77b4; stroke: #1f77b4"/>
     <use xlink:href="#m953f5f38bf" x="302.99793" y="225.716465" style="fill: #1f77b4; stroke: #1f77b4"/>
     <use xlink:href="#m953f5f38bf" x="183.643088" y="203.558899" style="fill: #1f77b4; stroke: #1f77b4"/>
     <use xlink:href="#m953f5f38bf" x="92.496832" y="288.195326" style="fill: #1f77b4; stroke: #1f77b4"/>
     <use xlink:href="#m953f5f38bf" x="320.479747" y="213.743313" style="fill: #1f77b4; stroke: #1f77b4"/>
    </g>
   </g>
   <g id="matplotlib.axis_1">
    <g id="xtick_1">
     <g id="line2d_1">
      <defs>
       <path id="ma134443987" d="M 0 0 
L 0 3.5 
" style="stroke: #000000; stroke-width: 0.8"/>
      </defs>
      <g>
       <use xlink:href="#ma134443987" x="89.557135" y="303.64" style="stroke: #000000; stroke-width: 0.8"/>
      </g>
     </g>
     <g id="text_1">
      <!-- 20 -->
      <g transform="translate(83.194635 318.238437)scale(0.1 -0.1)">
       <defs>
        <path id="DejaVuSans-32" d="M 1228 531 
L 3431 531 
L 3431 0 
L 469 0 
L 469 531 
Q 828 903 1448 1529 
Q 2069 2156 2228 2338 
Q 2531 2678 2651 2914 
Q 2772 3150 2772 3378 
Q 2772 3750 2511 3984 
Q 2250 4219 1831 4219 
Q 1534 4219 1204 4116 
Q 875 4013 500 3803 
L 500 4441 
Q 881 4594 1212 4672 
Q 1544 4750 1819 4750 
Q 2544 4750 2975 4387 
Q 3406 4025 3406 3419 
Q 3406 3131 3298 2873 
Q 3191 2616 2906 2266 
Q 2828 2175 2409 1742 
Q 1991 1309 1228 531 
z
" transform="scale(0.015625)"/>
        <path id="DejaVuSans-30" d="M 2034 4250 
Q 1547 4250 1301 3770 
Q 1056 3291 1056 2328 
Q 1056 1369 1301 889 
Q 1547 409 2034 409 
Q 2525 409 2770 889 
Q 3016 1369 3016 2328 
Q 3016 3291 2770 3770 
Q 2525 4250 2034 4250 
z
M 2034 4750 
Q 2819 4750 3233 4129 
Q 3647 3509 3647 2328 
Q 3647 1150 3233 529 
Q 2819 -91 2034 -91 
Q 1250 -91 836 529 
Q 422 1150 422 2328 
Q 422 3509 836 4129 
Q 1250 4750 2034 4750 
z
" transform="scale(0.015625)"/>
       </defs>
       <use xlink:href="#DejaVuSans-32"/>
       <use xlink:href="#DejaVuSans-30" x="63.623047"/>
      </g>
     </g>
    </g>
    <g id="xtick_2">
     <g id="line2d_2">
      <g>
       <use xlink:href="#ma134443987" x="167.740576" y="303.64" style="stroke: #000000; stroke-width: 0.8"/>
      </g>
     </g>
     <g id="text_2">
      <!-- 25 -->
      <g transform="translate(161.378076 318.238437)scale(0.1 -0.1)">
       <defs>
        <path id="DejaVuSans-35" d="M 691 4666 
L 3169 4666 
L 3169 4134 
L 1269 4134 
L 1269 2991 
Q 1406 3038 1543 3061 
Q 1681 3084 1819 3084 
Q 2600 3084 3056 2656 
Q 3513 2228 3513 1497 
Q 3513 744 3044 326 
Q 2575 -91 1722 -91 
Q 1428 -91 1123 -41 
Q 819 9 494 109 
L 494 744 
Q 775 591 1075 516 
Q 1375 441 1709 441 
Q 2250 441 2565 725 
Q 2881 1009 2881 1497 
Q 2881 1984 2565 2268 
Q 2250 2553 1709 2553 
Q 1456 2553 1204 2497 
Q 953 2441 691 2322 
L 691 4666 
z
" transform="scale(0.015625)"/>
       </defs>
       <use xlink:href="#DejaVuSans-32"/>
       <use xlink:href="#DejaVuSans-35" x="63.623047"/>
      </g>
     </g>
    </g>
    <g id="xtick_3">
     <g id="line2d_3">
      <g>
       <use xlink:href="#ma134443987" x="245.924018" y="303.64" style="stroke: #000000; stroke-width: 0.8"/>
      </g>
     </g>
     <g id="text_3">
      <!-- 30 -->
      <g transform="translate(239.561518 318.238437)scale(0.1 -0.1)">
       <defs>
        <path id="DejaVuSans-33" d="M 2597 2516 
Q 3050 2419 3304 2112 
Q 3559 1806 3559 1356 
Q 3559 666 3084 287 
Q 2609 -91 1734 -91 
Q 1441 -91 1130 -33 
Q 819 25 488 141 
L 488 750 
Q 750 597 1062 519 
Q 1375 441 1716 441 
Q 2309 441 2620 675 
Q 2931 909 2931 1356 
Q 2931 1769 2642 2001 
Q 2353 2234 1838 2234 
L 1294 2234 
L 1294 2753 
L 1863 2753 
Q 2328 2753 2575 2939 
Q 2822 3125 2822 3475 
Q 2822 3834 2567 4026 
Q 2313 4219 1838 4219 
Q 1578 4219 1281 4162 
Q 984 4106 628 3988 
L 628 4550 
Q 988 4650 1302 4700 
Q 1616 4750 1894 4750 
Q 2613 4750 3031 4423 
Q 3450 4097 3450 3541 
Q 3450 3153 3228 2886 
Q 3006 2619 2597 2516 
z
" transform="scale(0.015625)"/>
       </defs>
       <use xlink:href="#DejaVuSans-33"/>
       <use xlink:href="#DejaVuSans-30" x="63.623047"/>
      </g>
     </g>
    </g>
    <g id="xtick_4">
     <g id="line2d_4">
      <g>
       <use xlink:href="#ma134443987" x="324.107459" y="303.64" style="stroke: #000000; stroke-width: 0.8"/>
      </g>
     </g>
     <g id="text_4">
      <!-- 35 -->
      <g transform="translate(317.744959 318.238437)scale(0.1 -0.1)">
       <use xlink:href="#DejaVuSans-33"/>
       <use xlink:href="#DejaVuSans-35" x="63.623047"/>
      </g>
     </g>
    </g>
    <g id="xtick_5">
     <g id="line2d_5">
      <g>
       <use xlink:href="#ma134443987" x="402.2909" y="303.64" style="stroke: #000000; stroke-width: 0.8"/>
      </g>
     </g>
     <g id="text_5">
      <!-- 40 -->
      <g transform="translate(395.9284 318.238437)scale(0.1 -0.1)">
       <defs>
        <path id="DejaVuSans-34" d="M 2419 4116 
L 825 1625 
L 2419 1625 
L 2419 4116 
z
M 2253 4666 
L 3047 4666 
L 3047 1625 
L 3713 1625 
L 3713 1100 
L 3047 1100 
L 3047 0 
L 2419 0 
L 2419 1100 
L 313 1100 
L 313 1709 
L 2253 4666 
z
" transform="scale(0.015625)"/>
       </defs>
       <use xlink:href="#DejaVuSans-34"/>
       <use xlink:href="#DejaVuSans-30" x="63.623047"/>
      </g>
     </g>
    </g>
    <g id="text_6">
     <!-- IMM1Diff -->
     <g transform="translate(226.866875 331.916562)scale(0.1 -0.1)">
      <defs>
       <path id="DejaVuSans-49" d="M 628 4666 
L 1259 4666 
L 1259 0 
L 628 0 
L 628 4666 
z
" transform="scale(0.015625)"/>
       <path id="DejaVuSans-4d" d="M 628 4666 
L 1569 4666 
L 2759 1491 
L 3956 4666 
L 4897 4666 
L 4897 0 
L 4281 0 
L 4281 4097 
L 3078 897 
L 2444 897 
L 1241 4097 
L 1241 0 
L 628 0 
L 628 4666 
z
" transform="scale(0.015625)"/>
       <path id="DejaVuSans-31" d="M 794 531 
L 1825 531 
L 1825 4091 
L 703 3866 
L 703 4441 
L 1819 4666 
L 2450 4666 
L 2450 531 
L 3481 531 
L 3481 0 
L 794 0 
L 794 531 
z
" transform="scale(0.015625)"/>
       <path id="DejaVuSans-44" d="M 1259 4147 
L 1259 519 
L 2022 519 
Q 2988 519 3436 956 
Q 3884 1394 3884 2338 
Q 3884 3275 3436 3711 
Q 2988 4147 2022 4147 
L 1259 4147 
z
M 628 4666 
L 1925 4666 
Q 3281 4666 3915 4102 
Q 4550 3538 4550 2338 
Q 4550 1131 3912 565 
Q 3275 0 1925 0 
L 628 0 
L 628 4666 
z
" transform="scale(0.015625)"/>
       <path id="DejaVuSans-69" d="M 603 3500 
L 1178 3500 
L 1178 0 
L 603 0 
L 603 3500 
z
M 603 4863 
L 1178 4863 
L 1178 4134 
L 603 4134 
L 603 4863 
z
" transform="scale(0.015625)"/>
       <path id="DejaVuSans-66" d="M 2375 4863 
L 2375 4384 
L 1825 4384 
Q 1516 4384 1395 4259 
Q 1275 4134 1275 3809 
L 1275 3500 
L 2222 3500 
L 2222 3053 
L 1275 3053 
L 1275 0 
L 697 0 
L 697 3053 
L 147 3053 
L 147 3500 
L 697 3500 
L 697 3744 
Q 697 4328 969 4595 
Q 1241 4863 1831 4863 
L 2375 4863 
z
" transform="scale(0.015625)"/>
      </defs>
      <use xlink:href="#DejaVuSans-49"/>
      <use xlink:href="#DejaVuSans-4d" x="29.492188"/>
      <use xlink:href="#DejaVuSans-4d" x="115.771484"/>
      <use xlink:href="#DejaVuSans-31" x="202.050781"/>
      <use xlink:href="#DejaVuSans-44" x="265.673828"/>
      <use xlink:href="#DejaVuSans-69" x="342.675781"/>
      <use xlink:href="#DejaVuSans-66" x="370.458984"/>
      <use xlink:href="#DejaVuSans-66" x="405.664062"/>
     </g>
    </g>
   </g>
   <g id="matplotlib.axis_2">
    <g id="ytick_1">
     <g id="line2d_6">
      <defs>
       <path id="m1377b3fa93" d="M 0 0 
L -3.5 0 
" style="stroke: #000000; stroke-width: 0.8"/>
      </defs>
      <g>
       <use xlink:href="#m1377b3fa93" x="47.82125" y="303.64" style="stroke: #000000; stroke-width: 0.8"/>
      </g>
     </g>
     <g id="text_7">
      <!-- 0.0 -->
      <g transform="translate(24.918125 307.439219)scale(0.1 -0.1)">
       <defs>
        <path id="DejaVuSans-2e" d="M 684 794 
L 1344 794 
L 1344 0 
L 684 0 
L 684 794 
z
" transform="scale(0.015625)"/>
       </defs>
       <use xlink:href="#DejaVuSans-30"/>
       <use xlink:href="#DejaVuSans-2e" x="63.623047"/>
       <use xlink:href="#DejaVuSans-30" x="95.410156"/>
      </g>
     </g>
    </g>
    <g id="ytick_2">
     <g id="line2d_7">
      <g>
       <use xlink:href="#m1377b3fa93" x="47.82125" y="260.642089" style="stroke: #000000; stroke-width: 0.8"/>
      </g>
     </g>
     <g id="text_8">
      <!-- 0.5 -->
      <g transform="translate(24.918125 264.441308)scale(0.1 -0.1)">
       <use xlink:href="#DejaVuSans-30"/>
       <use xlink:href="#DejaVuSans-2e" x="63.623047"/>
       <use xlink:href="#DejaVuSans-35" x="95.410156"/>
      </g>
     </g>
    </g>
    <g id="ytick_3">
     <g id="line2d_8">
      <g>
       <use xlink:href="#m1377b3fa93" x="47.82125" y="217.644178" style="stroke: #000000; stroke-width: 0.8"/>
      </g>
     </g>
     <g id="text_9">
      <!-- 1.0 -->
      <g transform="translate(24.918125 221.443397)scale(0.1 -0.1)">
       <use xlink:href="#DejaVuSans-31"/>
       <use xlink:href="#DejaVuSans-2e" x="63.623047"/>
       <use xlink:href="#DejaVuSans-30" x="95.410156"/>
      </g>
     </g>
    </g>
    <g id="ytick_4">
     <g id="line2d_9">
      <g>
       <use xlink:href="#m1377b3fa93" x="47.82125" y="174.646268" style="stroke: #000000; stroke-width: 0.8"/>
      </g>
     </g>
     <g id="text_10">
      <!-- 1.5 -->
      <g transform="translate(24.918125 178.445486)scale(0.1 -0.1)">
       <use xlink:href="#DejaVuSans-31"/>
       <use xlink:href="#DejaVuSans-2e" x="63.623047"/>
       <use xlink:href="#DejaVuSans-35" x="95.410156"/>
      </g>
     </g>
    </g>
    <g id="ytick_5">
     <g id="line2d_10">
      <g>
       <use xlink:href="#m1377b3fa93" x="47.82125" y="131.648357" style="stroke: #000000; stroke-width: 0.8"/>
      </g>
     </g>
     <g id="text_11">
      <!-- 2.0 -->
      <g transform="translate(24.918125 135.447576)scale(0.1 -0.1)">
       <use xlink:href="#DejaVuSans-32"/>
       <use xlink:href="#DejaVuSans-2e" x="63.623047"/>
       <use xlink:href="#DejaVuSans-30" x="95.410156"/>
      </g>
     </g>
    </g>
    <g id="ytick_6">
     <g id="line2d_11">
      <g>
       <use xlink:href="#m1377b3fa93" x="47.82125" y="88.650446" style="stroke: #000000; stroke-width: 0.8"/>
      </g>
     </g>
     <g id="text_12">
      <!-- 2.5 -->
      <g transform="translate(24.918125 92.449665)scale(0.1 -0.1)">
       <use xlink:href="#DejaVuSans-32"/>
       <use xlink:href="#DejaVuSans-2e" x="63.623047"/>
       <use xlink:href="#DejaVuSans-35" x="95.410156"/>
      </g>
     </g>
    </g>
    <g id="text_13">
     <!-- PercentGpA_transformed -->
     <g transform="translate(18.560313 237.696252)rotate(-90)scale(0.1 -0.1)">
      <defs>
       <path id="DejaVuSans-50" d="M 1259 4147 
L 1259 2394 
L 2053 2394 
Q 2494 2394 2734 2622 
Q 2975 2850 2975 3272 
Q 2975 3691 2734 3919 
Q 2494 4147 2053 4147 
L 1259 4147 
z
M 628 4666 
L 2053 4666 
Q 2838 4666 3239 4311 
Q 3641 3956 3641 3272 
Q 3641 2581 3239 2228 
Q 2838 1875 2053 1875 
L 1259 1875 
L 1259 0 
L 628 0 
L 628 4666 
z
" transform="scale(0.015625)"/>
       <path id="DejaVuSans-65" d="M 3597 1894 
L 3597 1613 
L 953 1613 
Q 991 1019 1311 708 
Q 1631 397 2203 397 
Q 2534 397 2845 478 
Q 3156 559 3463 722 
L 3463 178 
Q 3153 47 2828 -22 
Q 2503 -91 2169 -91 
Q 1331 -91 842 396 
Q 353 884 353 1716 
Q 353 2575 817 3079 
Q 1281 3584 2069 3584 
Q 2775 3584 3186 3129 
Q 3597 2675 3597 1894 
z
M 3022 2063 
Q 3016 2534 2758 2815 
Q 2500 3097 2075 3097 
Q 1594 3097 1305 2825 
Q 1016 2553 972 2059 
L 3022 2063 
z
" transform="scale(0.015625)"/>
       <path id="DejaVuSans-72" d="M 2631 2963 
Q 2534 3019 2420 3045 
Q 2306 3072 2169 3072 
Q 1681 3072 1420 2755 
Q 1159 2438 1159 1844 
L 1159 0 
L 581 0 
L 581 3500 
L 1159 3500 
L 1159 2956 
Q 1341 3275 1631 3429 
Q 1922 3584 2338 3584 
Q 2397 3584 2469 3576 
Q 2541 3569 2628 3553 
L 2631 2963 
z
" transform="scale(0.015625)"/>
       <path id="DejaVuSans-63" d="M 3122 3366 
L 3122 2828 
Q 2878 2963 2633 3030 
Q 2388 3097 2138 3097 
Q 1578 3097 1268 2742 
Q 959 2388 959 1747 
Q 959 1106 1268 751 
Q 1578 397 2138 397 
Q 2388 397 2633 464 
Q 2878 531 3122 666 
L 3122 134 
Q 2881 22 2623 -34 
Q 2366 -91 2075 -91 
Q 1284 -91 818 406 
Q 353 903 353 1747 
Q 353 2603 823 3093 
Q 1294 3584 2113 3584 
Q 2378 3584 2631 3529 
Q 2884 3475 3122 3366 
z
" transform="scale(0.015625)"/>
       <path id="DejaVuSans-6e" d="M 3513 2113 
L 3513 0 
L 2938 0 
L 2938 2094 
Q 2938 2591 2744 2837 
Q 2550 3084 2163 3084 
Q 1697 3084 1428 2787 
Q 1159 2491 1159 1978 
L 1159 0 
L 581 0 
L 581 3500 
L 1159 3500 
L 1159 2956 
Q 1366 3272 1645 3428 
Q 1925 3584 2291 3584 
Q 2894 3584 3203 3211 
Q 3513 2838 3513 2113 
z
" transform="scale(0.015625)"/>
       <path id="DejaVuSans-74" d="M 1172 4494 
L 1172 3500 
L 2356 3500 
L 2356 3053 
L 1172 3053 
L 1172 1153 
Q 1172 725 1289 603 
Q 1406 481 1766 481 
L 2356 481 
L 2356 0 
L 1766 0 
Q 1100 0 847 248 
Q 594 497 594 1153 
L 594 3053 
L 172 3053 
L 172 3500 
L 594 3500 
L 594 4494 
L 1172 4494 
z
" transform="scale(0.015625)"/>
       <path id="DejaVuSans-47" d="M 3809 666 
L 3809 1919 
L 2778 1919 
L 2778 2438 
L 4434 2438 
L 4434 434 
Q 4069 175 3628 42 
Q 3188 -91 2688 -91 
Q 1594 -91 976 548 
Q 359 1188 359 2328 
Q 359 3472 976 4111 
Q 1594 4750 2688 4750 
Q 3144 4750 3555 4637 
Q 3966 4525 4313 4306 
L 4313 3634 
Q 3963 3931 3569 4081 
Q 3175 4231 2741 4231 
Q 1884 4231 1454 3753 
Q 1025 3275 1025 2328 
Q 1025 1384 1454 906 
Q 1884 428 2741 428 
Q 3075 428 3337 486 
Q 3600 544 3809 666 
z
" transform="scale(0.015625)"/>
       <path id="DejaVuSans-70" d="M 1159 525 
L 1159 -1331 
L 581 -1331 
L 581 3500 
L 1159 3500 
L 1159 2969 
Q 1341 3281 1617 3432 
Q 1894 3584 2278 3584 
Q 2916 3584 3314 3078 
Q 3713 2572 3713 1747 
Q 3713 922 3314 415 
Q 2916 -91 2278 -91 
Q 1894 -91 1617 61 
Q 1341 213 1159 525 
z
M 3116 1747 
Q 3116 2381 2855 2742 
Q 2594 3103 2138 3103 
Q 1681 3103 1420 2742 
Q 1159 2381 1159 1747 
Q 1159 1113 1420 752 
Q 1681 391 2138 391 
Q 2594 391 2855 752 
Q 3116 1113 3116 1747 
z
" transform="scale(0.015625)"/>
       <path id="DejaVuSans-41" d="M 2188 4044 
L 1331 1722 
L 3047 1722 
L 2188 4044 
z
M 1831 4666 
L 2547 4666 
L 4325 0 
L 3669 0 
L 3244 1197 
L 1141 1197 
L 716 0 
L 50 0 
L 1831 4666 
z
" transform="scale(0.015625)"/>
       <path id="DejaVuSans-5f" d="M 3263 -1063 
L 3263 -1509 
L -63 -1509 
L -63 -1063 
L 3263 -1063 
z
" transform="scale(0.015625)"/>
       <path id="DejaVuSans-61" d="M 2194 1759 
Q 1497 1759 1228 1600 
Q 959 1441 959 1056 
Q 959 750 1161 570 
Q 1363 391 1709 391 
Q 2188 391 2477 730 
Q 2766 1069 2766 1631 
L 2766 1759 
L 2194 1759 
z
M 3341 1997 
L 3341 0 
L 2766 0 
L 2766 531 
Q 2569 213 2275 61 
Q 1981 -91 1556 -91 
Q 1019 -91 701 211 
Q 384 513 384 1019 
Q 384 1609 779 1909 
Q 1175 2209 1959 2209 
L 2766 2209 
L 2766 2266 
Q 2766 2663 2505 2880 
Q 2244 3097 1772 3097 
Q 1472 3097 1187 3025 
Q 903 2953 641 2809 
L 641 3341 
Q 956 3463 1253 3523 
Q 1550 3584 1831 3584 
Q 2591 3584 2966 3190 
Q 3341 2797 3341 1997 
z
" transform="scale(0.015625)"/>
       <path id="DejaVuSans-73" d="M 2834 3397 
L 2834 2853 
Q 2591 2978 2328 3040 
Q 2066 3103 1784 3103 
Q 1356 3103 1142 2972 
Q 928 2841 928 2578 
Q 928 2378 1081 2264 
Q 1234 2150 1697 2047 
L 1894 2003 
Q 2506 1872 2764 1633 
Q 3022 1394 3022 966 
Q 3022 478 2636 193 
Q 2250 -91 1575 -91 
Q 1294 -91 989 -36 
Q 684 19 347 128 
L 347 722 
Q 666 556 975 473 
Q 1284 391 1588 391 
Q 1994 391 2212 530 
Q 2431 669 2431 922 
Q 2431 1156 2273 1281 
Q 2116 1406 1581 1522 
L 1381 1569 
Q 847 1681 609 1914 
Q 372 2147 372 2553 
Q 372 3047 722 3315 
Q 1072 3584 1716 3584 
Q 2034 3584 2315 3537 
Q 2597 3491 2834 3397 
z
" transform="scale(0.015625)"/>
       <path id="DejaVuSans-6f" d="M 1959 3097 
Q 1497 3097 1228 2736 
Q 959 2375 959 1747 
Q 959 1119 1226 758 
Q 1494 397 1959 397 
Q 2419 397 2687 759 
Q 2956 1122 2956 1747 
Q 2956 2369 2687 2733 
Q 2419 3097 1959 3097 
z
M 1959 3584 
Q 2709 3584 3137 3096 
Q 3566 2609 3566 1747 
Q 3566 888 3137 398 
Q 2709 -91 1959 -91 
Q 1206 -91 779 398 
Q 353 888 353 1747 
Q 353 2609 779 3096 
Q 1206 3584 1959 3584 
z
" transform="scale(0.015625)"/>
       <path id="DejaVuSans-6d" d="M 3328 2828 
Q 3544 3216 3844 3400 
Q 4144 3584 4550 3584 
Q 5097 3584 5394 3201 
Q 5691 2819 5691 2113 
L 5691 0 
L 5113 0 
L 5113 2094 
Q 5113 2597 4934 2840 
Q 4756 3084 4391 3084 
Q 3944 3084 3684 2787 
Q 3425 2491 3425 1978 
L 3425 0 
L 2847 0 
L 2847 2094 
Q 2847 2600 2669 2842 
Q 2491 3084 2119 3084 
Q 1678 3084 1418 2786 
Q 1159 2488 1159 1978 
L 1159 0 
L 581 0 
L 581 3500 
L 1159 3500 
L 1159 2956 
Q 1356 3278 1631 3431 
Q 1906 3584 2284 3584 
Q 2666 3584 2933 3390 
Q 3200 3197 3328 2828 
z
" transform="scale(0.015625)"/>
       <path id="DejaVuSans-64" d="M 2906 2969 
L 2906 4863 
L 3481 4863 
L 3481 0 
L 2906 0 
L 2906 525 
Q 2725 213 2448 61 
Q 2172 -91 1784 -91 
Q 1150 -91 751 415 
Q 353 922 353 1747 
Q 353 2572 751 3078 
Q 1150 3584 1784 3584 
Q 2172 3584 2448 3432 
Q 2725 3281 2906 2969 
z
M 947 1747 
Q 947 1113 1208 752 
Q 1469 391 1925 391 
Q 2381 391 2643 752 
Q 2906 1113 2906 1747 
Q 2906 2381 2643 2742 
Q 2381 3103 1925 3103 
Q 1469 3103 1208 2742 
Q 947 2381 947 1747 
z
" transform="scale(0.015625)"/>
      </defs>
      <use xlink:href="#DejaVuSans-50"/>
      <use xlink:href="#DejaVuSans-65" x="56.677734"/>
      <use xlink:href="#DejaVuSans-72" x="118.201172"/>
      <use xlink:href="#DejaVuSans-63" x="157.064453"/>
      <use xlink:href="#DejaVuSans-65" x="212.044922"/>
      <use xlink:href="#DejaVuSans-6e" x="273.568359"/>
      <use xlink:href="#DejaVuSans-74" x="336.947266"/>
      <use xlink:href="#DejaVuSans-47" x="376.15625"/>
      <use xlink:href="#DejaVuSans-70" x="453.646484"/>
      <use xlink:href="#DejaVuSans-41" x="517.123047"/>
      <use xlink:href="#DejaVuSans-5f" x="585.53125"/>
      <use xlink:href="#DejaVuSans-74" x="635.53125"/>
      <use xlink:href="#DejaVuSans-72" x="674.740234"/>
      <use xlink:href="#DejaVuSans-61" x="715.853516"/>
      <use xlink:href="#DejaVuSans-6e" x="777.132812"/>
      <use xlink:href="#DejaVuSans-73" x="840.511719"/>
      <use xlink:href="#DejaVuSans-66" x="892.611328"/>
      <use xlink:href="#DejaVuSans-6f" x="927.816406"/>
      <use xlink:href="#DejaVuSans-72" x="988.998047"/>
      <use xlink:href="#DejaVuSans-6d" x="1028.361328"/>
      <use xlink:href="#DejaVuSans-65" x="1125.773438"/>
      <use xlink:href="#DejaVuSans-64" x="1187.296875"/>
     </g>
    </g>
   </g>
   <g id="LineCollection_1">
    <path d="M 203.830053 222.259667 
L 203.830053 208.851706 
" clip-path="url(#p70c6aa3d6a)" style="fill: none; stroke: #d3d3d3; stroke-width: 3"/>
    <path d="M 228.48911 250.98238 
L 228.48911 242.856857 
" clip-path="url(#p70c6aa3d6a)" style="fill: none; stroke: #d3d3d3; stroke-width: 3"/>
    <path d="M 137.295944 216.470632 
L 137.295944 189.745135 
" clip-path="url(#p70c6aa3d6a)" style="fill: none; stroke: #d3d3d3; stroke-width: 3"/>
    <path d="M 237.355112 223.528082 
L 237.355112 211.390139 
" clip-path="url(#p70c6aa3d6a)" style="fill: none; stroke: #d3d3d3; stroke-width: 3"/>
    <path d="M 136.98321 238.260454 
L 136.98321 204.007342 
" clip-path="url(#p70c6aa3d6a)" style="fill: none; stroke: #d3d3d3; stroke-width: 3"/>
    <path d="M 195.057871 214.939697 
L 195.057871 200.397671 
" clip-path="url(#p70c6aa3d6a)" style="fill: none; stroke: #d3d3d3; stroke-width: 3"/>
    <path d="M 167.506026 210.136725 
L 167.506026 175.926973 
" clip-path="url(#p70c6aa3d6a)" style="fill: none; stroke: #d3d3d3; stroke-width: 3"/>
    <path d="M 239.168968 242.228387 
L 239.168968 230.531338 
" clip-path="url(#p70c6aa3d6a)" style="fill: none; stroke: #d3d3d3; stroke-width: 3"/>
    <path d="M 69.260713 258.947721 
L 69.260713 240.827616 
" clip-path="url(#p70c6aa3d6a)" style="fill: none; stroke: #d3d3d3; stroke-width: 3"/>
    <path d="M 155.199952 253.699814 
L 155.199952 193.237267 
" clip-path="url(#p70c6aa3d6a)" style="fill: none; stroke: #d3d3d3; stroke-width: 3"/>
    <path d="M 146.443407 222.538422 
L 146.443407 193.245452 
" clip-path="url(#p70c6aa3d6a)" style="fill: none; stroke: #d3d3d3; stroke-width: 3"/>
    <path d="M 316.945856 259.802583 
L 316.945856 247.439381 
" clip-path="url(#p70c6aa3d6a)" style="fill: none; stroke: #d3d3d3; stroke-width: 3"/>
    <path d="M 79.00237 304.927812 
L 79.00237 139.809166 
" clip-path="url(#p70c6aa3d6a)" style="fill: none; stroke: #d3d3d3; stroke-width: 3"/>
    <path d="M 215.917213 220.558575 
L 215.917213 189.005126 
" clip-path="url(#p70c6aa3d6a)" style="fill: none; stroke: #d3d3d3; stroke-width: 3"/>
    <path d="M 349.579624 284.062892 
L 349.579624 273.716224 
" clip-path="url(#p70c6aa3d6a)" style="fill: none; stroke: #d3d3d3; stroke-width: 3"/>
    <path d="M 108.618258 231.62674 
L 108.618258 196.074068 
" clip-path="url(#p70c6aa3d6a)" style="fill: none; stroke: #d3d3d3; stroke-width: 3"/>
    <path d="M 179.139722 274.314209 
L 179.139722 210.122706 
" clip-path="url(#p70c6aa3d6a)" style="fill: none; stroke: #d3d3d3; stroke-width: 3"/>
    <path d="M 242.8905 224.765752 
L 242.8905 209.536022 
" clip-path="url(#p70c6aa3d6a)" style="fill: none; stroke: #d3d3d3; stroke-width: 3"/>
    <path d="M 220.545672 279.38226 
L 220.545672 269.100974 
" clip-path="url(#p70c6aa3d6a)" style="fill: none; stroke: #d3d3d3; stroke-width: 3"/>
    <path d="M 127.16337 233.570711 
L 127.16337 172.994853 
" clip-path="url(#p70c6aa3d6a)" style="fill: none; stroke: #d3d3d3; stroke-width: 3"/>
    <path d="M 188.318458 277.078258 
L 188.318458 95.833061 
" clip-path="url(#p70c6aa3d6a)" style="fill: none; stroke: #d3d3d3; stroke-width: 3"/>
    <path d="M 194.025849 228.285723 
L 194.025849 210.159816 
" clip-path="url(#p70c6aa3d6a)" style="fill: none; stroke: #d3d3d3; stroke-width: 3"/>
    <path d="M 191.351975 226.746059 
L 191.351975 205.571557 
" clip-path="url(#p70c6aa3d6a)" style="fill: none; stroke: #d3d3d3; stroke-width: 3"/>
    <path d="M 183.955822 214.126921 
L 183.955822 208.670616 
" clip-path="url(#p70c6aa3d6a)" style="fill: none; stroke: #d3d3d3; stroke-width: 3"/>
    <path d="M 163.690674 264.795116 
L 163.690674 253.722821 
" clip-path="url(#p70c6aa3d6a)" style="fill: none; stroke: #d3d3d3; stroke-width: 3"/>
    <path d="M 195.386241 260.359581 
L 195.386241 226.95757 
" clip-path="url(#p70c6aa3d6a)" style="fill: none; stroke: #d3d3d3; stroke-width: 3"/>
    <path d="M 188.521735 234.848643 
L 188.521735 216.608442 
" clip-path="url(#p70c6aa3d6a)" style="fill: none; stroke: #d3d3d3; stroke-width: 3"/>
    <path d="M 222.124978 218.280668 
L 222.124978 197.24494 
" clip-path="url(#p70c6aa3d6a)" style="fill: none; stroke: #d3d3d3; stroke-width: 3"/>
    <path d="M 379.070418 278.375528 
L 379.070418 197.136519 
" clip-path="url(#p70c6aa3d6a)" style="fill: none; stroke: #d3d3d3; stroke-width: 3"/>
    <path d="M 224.501755 235.033558 
L 224.501755 223.800687 
" clip-path="url(#p70c6aa3d6a)" style="fill: none; stroke: #d3d3d3; stroke-width: 3"/>
    <path d="M 235.71326 269.155752 
L 235.71326 104.017323 
" clip-path="url(#p70c6aa3d6a)" style="fill: none; stroke: #d3d3d3; stroke-width: 3"/>
    <path d="M 215.495022 228.218025 
L 215.495022 195.327556 
" clip-path="url(#p70c6aa3d6a)" style="fill: none; stroke: #d3d3d3; stroke-width: 3"/>
    <path d="M 249.145175 225.673786 
L 249.145175 194.360123 
" clip-path="url(#p70c6aa3d6a)" style="fill: none; stroke: #d3d3d3; stroke-width: 3"/>
    <path d="M 114.826023 247.043556 
L 114.826023 231.185899 
" clip-path="url(#p70c6aa3d6a)" style="fill: none; stroke: #d3d3d3; stroke-width: 3"/>
    <path d="M 104.099255 240.647953 
L 104.099255 227.945796 
" clip-path="url(#p70c6aa3d6a)" style="fill: none; stroke: #d3d3d3; stroke-width: 3"/>
    <path d="M 245.783287 231.486579 
L 245.783287 217.509461 
" clip-path="url(#p70c6aa3d6a)" style="fill: none; stroke: #d3d3d3; stroke-width: 3"/>
    <path d="M 299.464038 234.616588 
L 299.464038 199.209284 
" clip-path="url(#p70c6aa3d6a)" style="fill: none; stroke: #d3d3d3; stroke-width: 3"/>
    <path d="M 199.185956 217.048503 
L 199.185956 185.306967 
" clip-path="url(#p70c6aa3d6a)" style="fill: none; stroke: #d3d3d3; stroke-width: 3"/>
    <path d="M 182.50161 219.794162 
L 182.50161 199.722382 
" clip-path="url(#p70c6aa3d6a)" style="fill: none; stroke: #d3d3d3; stroke-width: 3"/>
    <path d="M 182.204513 248.795871 
L 182.204513 238.742465 
" clip-path="url(#p70c6aa3d6a)" style="fill: none; stroke: #d3d3d3; stroke-width: 3"/>
    <path d="M 184.487469 218.53192 
L 184.487469 190.101468 
" clip-path="url(#p70c6aa3d6a)" style="fill: none; stroke: #d3d3d3; stroke-width: 3"/>
    <path d="M 87.524365 291.54335 
L 87.524365 267.185654 
" clip-path="url(#p70c6aa3d6a)" style="fill: none; stroke: #d3d3d3; stroke-width: 3"/>
    <path d="M 220.827133 223.176799 
L 220.827133 194.874309 
" clip-path="url(#p70c6aa3d6a)" style="fill: none; stroke: #d3d3d3; stroke-width: 3"/>
    <path d="M 431.719148 256.526756 
L 431.719148 254.567374 
" clip-path="url(#p70c6aa3d6a)" style="fill: none; stroke: #d3d3d3; stroke-width: 3"/>
    <path d="M 237.69912 264.702602 
L 237.69912 220.315217 
" clip-path="url(#p70c6aa3d6a)" style="fill: none; stroke: #d3d3d3; stroke-width: 3"/>
    <path d="M 66.102102 290.99218 
L 66.102102 277.801935 
" clip-path="url(#p70c6aa3d6a)" style="fill: none; stroke: #d3d3d3; stroke-width: 3"/>
    <path d="M 123.019648 242.900274 
L 123.019648 231.206055 
" clip-path="url(#p70c6aa3d6a)" style="fill: none; stroke: #d3d3d3; stroke-width: 3"/>
    <path d="M 301.496808 229.353462 
L 301.496808 214.904839 
" clip-path="url(#p70c6aa3d6a)" style="fill: none; stroke: #d3d3d3; stroke-width: 3"/>
    <path d="M 133.934056 244.637332 
L 133.934056 242.587452 
" clip-path="url(#p70c6aa3d6a)" style="fill: none; stroke: #d3d3d3; stroke-width: 3"/>
    <path d="M 211.148023 220.096171 
L 211.148023 182.843189 
" clip-path="url(#p70c6aa3d6a)" style="fill: none; stroke: #d3d3d3; stroke-width: 3"/>
    <path d="M 210.741469 240.786621 
L 210.741469 228.434924 
" clip-path="url(#p70c6aa3d6a)" style="fill: none; stroke: #d3d3d3; stroke-width: 3"/>
    <path d="M 168.522411 249.066924 
L 168.522411 58.97365 
" clip-path="url(#p70c6aa3d6a)" style="fill: none; stroke: #d3d3d3; stroke-width: 3"/>
    <path d="M 101.941392 288.994019 
L 101.941392 282.561029 
" clip-path="url(#p70c6aa3d6a)" style="fill: none; stroke: #d3d3d3; stroke-width: 3"/>
    <path d="M 236.964195 230.194126 
L 236.964195 196.984292 
" clip-path="url(#p70c6aa3d6a)" style="fill: none; stroke: #d3d3d3; stroke-width: 3"/>
    <path d="M 188.615555 281.40764 
L 188.615555 271.969925 
" clip-path="url(#p70c6aa3d6a)" style="fill: none; stroke: #d3d3d3; stroke-width: 3"/>
    <path d="M 278.198142 233.673018 
L 278.198142 203.458265 
" clip-path="url(#p70c6aa3d6a)" style="fill: none; stroke: #d3d3d3; stroke-width: 3"/>
    <path d="M 410.218701 236.906958 
L 410.218701 215.05015 
" clip-path="url(#p70c6aa3d6a)" style="fill: none; stroke: #d3d3d3; stroke-width: 3"/>
    <path d="M 189.366116 224.766342 
L 189.366116 209.951855 
" clip-path="url(#p70c6aa3d6a)" style="fill: none; stroke: #d3d3d3; stroke-width: 3"/>
    <path d="M 361.291504 240.173149 
L 361.291504 230.607303 
" clip-path="url(#p70c6aa3d6a)" style="fill: none; stroke: #d3d3d3; stroke-width: 3"/>
    <path d="M 129.66524 243.523854 
L 129.66524 207.44083 
" clip-path="url(#p70c6aa3d6a)" style="fill: none; stroke: #d3d3d3; stroke-width: 3"/>
    <path d="M 302.99793 229.933589 
L 302.99793 221.499341 
" clip-path="url(#p70c6aa3d6a)" style="fill: none; stroke: #d3d3d3; stroke-width: 3"/>
    <path d="M 183.643088 218.085418 
L 183.643088 189.03238 
" clip-path="url(#p70c6aa3d6a)" style="fill: none; stroke: #d3d3d3; stroke-width: 3"/>
    <path d="M 92.496832 295.189723 
L 92.496832 281.200929 
" clip-path="url(#p70c6aa3d6a)" style="fill: none; stroke: #d3d3d3; stroke-width: 3"/>
    <path d="M 320.479747 227.365261 
L 320.479747 200.121365 
" clip-path="url(#p70c6aa3d6a)" style="fill: none; stroke: #d3d3d3; stroke-width: 3"/>
   </g>
   <g id="line2d_12">
    <path d="M 203.830053 227.292078 
L 228.48911 226.750484 
L 137.295944 228.753387 
L 237.355112 226.555757 
L 136.98321 228.760256 
L 195.057871 227.484744 
L 167.506026 228.089874 
L 239.168968 226.515919 
L 69.260713 230.247665 
L 155.199952 228.360156 
L 146.443407 228.552478 
L 316.945856 224.807682 
L 79.00237 230.033706 
L 215.917213 227.026604 
L 349.579624 224.090937 
L 108.618258 229.383243 
L 179.139722 227.834359 
L 242.8905 226.434182 
L 220.545672 226.924948 
L 127.16337 228.975932 
L 188.318458 227.632764 
L 194.025849 227.507411 
L 191.351975 227.566138 
L 183.955822 227.728582 
L 163.690674 228.173672 
L 195.386241 227.477532 
L 188.521735 227.6283 
L 222.124978 226.890261 
L 379.070418 223.443222 
L 224.501755 226.83806 
L 235.71326 226.591818 
L 215.495022 227.035877 
L 249.145175 226.296809 
L 114.826023 229.2469 
L 104.099255 229.482496 
L 245.783287 226.370647 
L 299.464038 225.191641 
L 199.185956 227.394078 
L 182.50161 227.760521 
L 182.204513 227.767047 
L 184.487469 227.716905 
L 87.524365 229.846535 
L 220.827133 226.918766 
L 431.719148 222.286882 
L 237.69912 226.548202 
L 66.102102 230.317039 
L 123.019648 229.066941 
L 301.496808 225.146994 
L 133.934056 228.827225 
L 211.148023 227.131352 
L 210.741469 227.140281 
L 168.522411 228.067551 
L 101.941392 229.529889 
L 236.964195 226.564343 
L 188.615555 227.626239 
L 278.198142 225.65871 
L 410.218701 222.759103 
L 189.366116 227.609754 
L 361.291504 223.833705 
L 129.66524 228.920982 
L 302.99793 225.114025 
L 183.643088 227.735451 
L 92.496832 229.737323 
L 320.479747 224.730066 
" clip-path="url(#p70c6aa3d6a)" style="fill: none; stroke: #1f77b4; stroke-width: 1.5; stroke-linecap: square"/>
   </g>
   <g id="line2d_13">
    <defs>
     <path id="m85e2543f72" d="M 0 3 
C 0.795609 3 1.55874 2.683901 2.12132 2.12132 
C 2.683901 1.55874 3 0.795609 3 0 
C 3 -0.795609 2.683901 -1.55874 2.12132 -2.12132 
C 1.55874 -2.683901 0.795609 -3 0 -3 
C -0.795609 -3 -1.55874 -2.683901 -2.12132 -2.12132 
C -2.683901 -1.55874 -3 -0.795609 -3 0 
C -3 0.795609 -2.683901 1.55874 -2.12132 2.12132 
C -1.55874 2.683901 -0.795609 3 0 3 
z
" style="stroke: #000000"/>
    </defs>
    <g clip-path="url(#p70c6aa3d6a)">
     <use xlink:href="#m85e2543f72" x="203.830053" y="215.555687" style="stroke: #000000"/>
     <use xlink:href="#m85e2543f72" x="228.48911" y="246.919618" style="stroke: #000000"/>
     <use xlink:href="#m85e2543f72" x="137.295944" y="203.107883" style="stroke: #000000"/>
     <use xlink:href="#m85e2543f72" x="237.355112" y="217.459111" style="stroke: #000000"/>
     <use xlink:href="#m85e2543f72" x="136.98321" y="221.133898" style="stroke: #000000"/>
     <use xlink:href="#m85e2543f72" x="195.057871" y="207.668684" style="stroke: #000000"/>
     <use xlink:href="#m85e2543f72" x="167.506026" y="193.031849" style="stroke: #000000"/>
     <use xlink:href="#m85e2543f72" x="239.168968" y="236.379863" style="stroke: #000000"/>
     <use xlink:href="#m85e2543f72" x="69.260713" y="249.887668" style="stroke: #000000"/>
     <use xlink:href="#m85e2543f72" x="155.199952" y="223.468541" style="stroke: #000000"/>
     <use xlink:href="#m85e2543f72" x="146.443407" y="207.891937" style="stroke: #000000"/>
     <use xlink:href="#m85e2543f72" x="316.945856" y="253.620982" style="stroke: #000000"/>
     <use xlink:href="#m85e2543f72" x="79.00237" y="222.368489" style="stroke: #000000"/>
     <use xlink:href="#m85e2543f72" x="215.917213" y="204.78185" style="stroke: #000000"/>
     <use xlink:href="#m85e2543f72" x="349.579624" y="278.889558" style="stroke: #000000"/>
     <use xlink:href="#m85e2543f72" x="108.618258" y="213.850404" style="stroke: #000000"/>
     <use xlink:href="#m85e2543f72" x="179.139722" y="242.218457" style="stroke: #000000"/>
     <use xlink:href="#m85e2543f72" x="242.8905" y="217.150887" style="stroke: #000000"/>
     <use xlink:href="#m85e2543f72" x="220.545672" y="274.241617" style="stroke: #000000"/>
     <use xlink:href="#m85e2543f72" x="127.16337" y="203.282782" style="stroke: #000000"/>
     <use xlink:href="#m85e2543f72" x="188.318458" y="186.455659" style="stroke: #000000"/>
     <use xlink:href="#m85e2543f72" x="194.025849" y="219.222769" style="stroke: #000000"/>
     <use xlink:href="#m85e2543f72" x="191.351975" y="216.158808" style="stroke: #000000"/>
     <use xlink:href="#m85e2543f72" x="183.955822" y="211.398769" style="stroke: #000000"/>
     <use xlink:href="#m85e2543f72" x="163.690674" y="259.258968" style="stroke: #000000"/>
     <use xlink:href="#m85e2543f72" x="195.386241" y="243.658576" style="stroke: #000000"/>
     <use xlink:href="#m85e2543f72" x="188.521735" y="225.728542" style="stroke: #000000"/>
     <use xlink:href="#m85e2543f72" x="222.124978" y="207.762804" style="stroke: #000000"/>
     <use xlink:href="#m85e2543f72" x="379.070418" y="237.756023" style="stroke: #000000"/>
     <use xlink:href="#m85e2543f72" x="224.501755" y="229.417122" style="stroke: #000000"/>
     <use xlink:href="#m85e2543f72" x="235.71326" y="186.586537" style="stroke: #000000"/>
     <use xlink:href="#m85e2543f72" x="215.495022" y="211.772791" style="stroke: #000000"/>
     <use xlink:href="#m85e2543f72" x="249.145175" y="210.016955" style="stroke: #000000"/>
     <use xlink:href="#m85e2543f72" x="114.826023" y="239.114727" style="stroke: #000000"/>
     <use xlink:href="#m85e2543f72" x="104.099255" y="234.296874" style="stroke: #000000"/>
     <use xlink:href="#m85e2543f72" x="245.783287" y="224.49802" style="stroke: #000000"/>
     <use xlink:href="#m85e2543f72" x="299.464038" y="216.912936" style="stroke: #000000"/>
     <use xlink:href="#m85e2543f72" x="199.185956" y="201.177735" style="stroke: #000000"/>
     <use xlink:href="#m85e2543f72" x="182.50161" y="209.758272" style="stroke: #000000"/>
     <use xlink:href="#m85e2543f72" x="182.204513" y="243.769168" style="stroke: #000000"/>
     <use xlink:href="#m85e2543f72" x="184.487469" y="204.316694" style="stroke: #000000"/>
     <use xlink:href="#m85e2543f72" x="87.524365" y="279.364502" style="stroke: #000000"/>
     <use xlink:href="#m85e2543f72" x="220.827133" y="209.025554" style="stroke: #000000"/>
     <use xlink:href="#m85e2543f72" x="431.719148" y="255.547065" style="stroke: #000000"/>
     <use xlink:href="#m85e2543f72" x="237.69912" y="242.508909" style="stroke: #000000"/>
     <use xlink:href="#m85e2543f72" x="66.102102" y="284.397057" style="stroke: #000000"/>
     <use xlink:href="#m85e2543f72" x="123.019648" y="237.053165" style="stroke: #000000"/>
     <use xlink:href="#m85e2543f72" x="301.496808" y="222.129151" style="stroke: #000000"/>
     <use xlink:href="#m85e2543f72" x="133.934056" y="243.612392" style="stroke: #000000"/>
     <use xlink:href="#m85e2543f72" x="211.148023" y="201.46968" style="stroke: #000000"/>
     <use xlink:href="#m85e2543f72" x="210.741469" y="234.610772" style="stroke: #000000"/>
     <use xlink:href="#m85e2543f72" x="168.522411" y="154.020287" style="stroke: #000000"/>
     <use xlink:href="#m85e2543f72" x="101.941392" y="285.777524" style="stroke: #000000"/>
     <use xlink:href="#m85e2543f72" x="236.964195" y="213.589209" style="stroke: #000000"/>
     <use xlink:href="#m85e2543f72" x="188.615555" y="276.688783" style="stroke: #000000"/>
     <use xlink:href="#m85e2543f72" x="278.198142" y="218.565642" style="stroke: #000000"/>
     <use xlink:href="#m85e2543f72" x="410.218701" y="225.978554" style="stroke: #000000"/>
     <use xlink:href="#m85e2543f72" x="189.366116" y="217.359099" style="stroke: #000000"/>
     <use xlink:href="#m85e2543f72" x="361.291504" y="235.390226" style="stroke: #000000"/>
     <use xlink:href="#m85e2543f72" x="129.66524" y="225.482342" style="stroke: #000000"/>
     <use xlink:href="#m85e2543f72" x="302.99793" y="225.716465" style="stroke: #000000"/>
     <use xlink:href="#m85e2543f72" x="183.643088" y="203.558899" style="stroke: #000000"/>
     <use xlink:href="#m85e2543f72" x="92.496832" y="288.195326" style="stroke: #000000"/>
     <use xlink:href="#m85e2543f72" x="320.479747" y="213.743313" style="stroke: #000000"/>
    </g>
   </g>
   <g id="patch_3">
    <path d="M 47.82125 303.64 
L 47.82125 46.675942 
" style="fill: none; stroke: #000000; stroke-width: 0.8; stroke-linejoin: miter; stroke-linecap: square"/>
   </g>
   <g id="patch_4">
    <path d="M 450 303.64 
L 450 46.675942 
" style="fill: none; stroke: #000000; stroke-width: 0.8; stroke-linejoin: miter; stroke-linecap: square"/>
   </g>
   <g id="patch_5">
    <path d="M 47.82125 303.64 
L 450 303.64 
" style="fill: none; stroke: #000000; stroke-width: 0.8; stroke-linejoin: miter; stroke-linecap: square"/>
   </g>
   <g id="patch_6">
    <path d="M 47.82125 46.675942 
L 450 46.675942 
" style="fill: none; stroke: #000000; stroke-width: 0.8; stroke-linejoin: miter; stroke-linecap: square"/>
   </g>
   <g id="text_14">
    <!-- y = 0.00x + 0.78 -->
    <g transform="translate(45.118813 18.59963)scale(0.1 -0.1)">
     <defs>
      <path id="DejaVuSans-79" d="M 2059 -325 
Q 1816 -950 1584 -1140 
Q 1353 -1331 966 -1331 
L 506 -1331 
L 506 -850 
L 844 -850 
Q 1081 -850 1212 -737 
Q 1344 -625 1503 -206 
L 1606 56 
L 191 3500 
L 800 3500 
L 1894 763 
L 2988 3500 
L 3597 3500 
L 2059 -325 
z
" transform="scale(0.015625)"/>
      <path id="DejaVuSans-20" transform="scale(0.015625)"/>
      <path id="DejaVuSans-3d" d="M 678 2906 
L 4684 2906 
L 4684 2381 
L 678 2381 
L 678 2906 
z
M 678 1631 
L 4684 1631 
L 4684 1100 
L 678 1100 
L 678 1631 
z
" transform="scale(0.015625)"/>
      <path id="DejaVuSans-78" d="M 3513 3500 
L 2247 1797 
L 3578 0 
L 2900 0 
L 1881 1375 
L 863 0 
L 184 0 
L 1544 1831 
L 300 3500 
L 978 3500 
L 1906 2253 
L 2834 3500 
L 3513 3500 
z
" transform="scale(0.015625)"/>
      <path id="DejaVuSans-2b" d="M 2944 4013 
L 2944 2272 
L 4684 2272 
L 4684 1741 
L 2944 1741 
L 2944 0 
L 2419 0 
L 2419 1741 
L 678 1741 
L 678 2272 
L 2419 2272 
L 2419 4013 
L 2944 4013 
z
" transform="scale(0.015625)"/>
      <path id="DejaVuSans-37" d="M 525 4666 
L 3525 4666 
L 3525 4397 
L 1831 0 
L 1172 0 
L 2766 4134 
L 525 4134 
L 525 4666 
z
" transform="scale(0.015625)"/>
      <path id="DejaVuSans-38" d="M 2034 2216 
Q 1584 2216 1326 1975 
Q 1069 1734 1069 1313 
Q 1069 891 1326 650 
Q 1584 409 2034 409 
Q 2484 409 2743 651 
Q 3003 894 3003 1313 
Q 3003 1734 2745 1975 
Q 2488 2216 2034 2216 
z
M 1403 2484 
Q 997 2584 770 2862 
Q 544 3141 544 3541 
Q 544 4100 942 4425 
Q 1341 4750 2034 4750 
Q 2731 4750 3128 4425 
Q 3525 4100 3525 3541 
Q 3525 3141 3298 2862 
Q 3072 2584 2669 2484 
Q 3125 2378 3379 2068 
Q 3634 1759 3634 1313 
Q 3634 634 3220 271 
Q 2806 -91 2034 -91 
Q 1263 -91 848 271 
Q 434 634 434 1313 
Q 434 1759 690 2068 
Q 947 2378 1403 2484 
z
M 1172 3481 
Q 1172 3119 1398 2916 
Q 1625 2713 2034 2713 
Q 2441 2713 2670 2916 
Q 2900 3119 2900 3481 
Q 2900 3844 2670 4047 
Q 2441 4250 2034 4250 
Q 1625 4250 1398 4047 
Q 1172 3844 1172 3481 
z
" transform="scale(0.015625)"/>
     </defs>
     <use xlink:href="#DejaVuSans-79"/>
     <use xlink:href="#DejaVuSans-20" x="59.179688"/>
     <use xlink:href="#DejaVuSans-3d" x="90.966797"/>
     <use xlink:href="#DejaVuSans-20" x="174.755859"/>
     <use xlink:href="#DejaVuSans-30" x="206.542969"/>
     <use xlink:href="#DejaVuSans-2e" x="270.166016"/>
     <use xlink:href="#DejaVuSans-30" x="301.953125"/>
     <use xlink:href="#DejaVuSans-30" x="365.576172"/>
     <use xlink:href="#DejaVuSans-78" x="429.199219"/>
     <use xlink:href="#DejaVuSans-20" x="488.378906"/>
     <use xlink:href="#DejaVuSans-2b" x="520.166016"/>
     <use xlink:href="#DejaVuSans-20" x="603.955078"/>
     <use xlink:href="#DejaVuSans-30" x="635.742188"/>
     <use xlink:href="#DejaVuSans-2e" x="699.365234"/>
     <use xlink:href="#DejaVuSans-37" x="731.152344"/>
     <use xlink:href="#DejaVuSans-38" x="794.775391"/>
    </g>
   </g>
   <g id="text_15">
    <!-- r^2 = 0.00 -->
    <g transform="translate(60.111781 26.308552)scale(0.1 -0.1)">
     <defs>
      <path id="DejaVuSans-5e" d="M 2988 4666 
L 4684 2925 
L 4056 2925 
L 2681 4159 
L 1306 2925 
L 678 2925 
L 2375 4666 
L 2988 4666 
z
" transform="scale(0.015625)"/>
     </defs>
     <use xlink:href="#DejaVuSans-72"/>
     <use xlink:href="#DejaVuSans-5e" x="41.113281"/>
     <use xlink:href="#DejaVuSans-32" x="124.902344"/>
     <use xlink:href="#DejaVuSans-20" x="188.525391"/>
     <use xlink:href="#DejaVuSans-3d" x="220.3125"/>
     <use xlink:href="#DejaVuSans-20" x="304.101562"/>
     <use xlink:href="#DejaVuSans-30" x="335.888672"/>
     <use xlink:href="#DejaVuSans-2e" x="399.511719"/>
     <use xlink:href="#DejaVuSans-30" x="431.298828"/>
     <use xlink:href="#DejaVuSans-30" x="494.921875"/>
    </g>
   </g>
   <g id="text_16">
    <!-- n = 64 -->
    <g transform="translate(71.139906 34.017473)scale(0.1 -0.1)">
     <defs>
      <path id="DejaVuSans-36" d="M 2113 2584 
Q 1688 2584 1439 2293 
Q 1191 2003 1191 1497 
Q 1191 994 1439 701 
Q 1688 409 2113 409 
Q 2538 409 2786 701 
Q 3034 994 3034 1497 
Q 3034 2003 2786 2293 
Q 2538 2584 2113 2584 
z
M 3366 4563 
L 3366 3988 
Q 3128 4100 2886 4159 
Q 2644 4219 2406 4219 
Q 1781 4219 1451 3797 
Q 1122 3375 1075 2522 
Q 1259 2794 1537 2939 
Q 1816 3084 2150 3084 
Q 2853 3084 3261 2657 
Q 3669 2231 3669 1497 
Q 3669 778 3244 343 
Q 2819 -91 2113 -91 
Q 1303 -91 875 529 
Q 447 1150 447 2328 
Q 447 3434 972 4092 
Q 1497 4750 2381 4750 
Q 2619 4750 2861 4703 
Q 3103 4656 3366 4563 
z
" transform="scale(0.015625)"/>
     </defs>
     <use xlink:href="#DejaVuSans-6e"/>
     <use xlink:href="#DejaVuSans-20" x="63.378906"/>
     <use xlink:href="#DejaVuSans-3d" x="95.166016"/>
     <use xlink:href="#DejaVuSans-20" x="178.955078"/>
     <use xlink:href="#DejaVuSans-36" x="210.742188"/>
     <use xlink:href="#DejaVuSans-34" x="274.365234"/>
    </g>
   </g>
   <g id="text_17">
    <!-- IMM1Diff vs PercentGpA_transformed -->
    <g transform="translate(136.921562 40.675942)scale(0.12 -0.12)">
     <defs>
      <path id="DejaVuSans-76" d="M 191 3500 
L 800 3500 
L 1894 563 
L 2988 3500 
L 3597 3500 
L 2284 0 
L 1503 0 
L 191 3500 
z
" transform="scale(0.015625)"/>
     </defs>
     <use xlink:href="#DejaVuSans-49"/>
     <use xlink:href="#DejaVuSans-4d" x="29.492188"/>
     <use xlink:href="#DejaVuSans-4d" x="115.771484"/>
     <use xlink:href="#DejaVuSans-31" x="202.050781"/>
     <use xlink:href="#DejaVuSans-44" x="265.673828"/>
     <use xlink:href="#DejaVuSans-69" x="342.675781"/>
     <use xlink:href="#DejaVuSans-66" x="370.458984"/>
     <use xlink:href="#DejaVuSans-66" x="405.664062"/>
     <use xlink:href="#DejaVuSans-20" x="440.869141"/>
     <use xlink:href="#DejaVuSans-76" x="472.65625"/>
     <use xlink:href="#DejaVuSans-73" x="531.835938"/>
     <use xlink:href="#DejaVuSans-20" x="583.935547"/>
     <use xlink:href="#DejaVuSans-50" x="615.722656"/>
     <use xlink:href="#DejaVuSans-65" x="672.400391"/>
     <use xlink:href="#DejaVuSans-72" x="733.923828"/>
     <use xlink:href="#DejaVuSans-63" x="772.787109"/>
     <use xlink:href="#DejaVuSans-65" x="827.767578"/>
     <use xlink:href="#DejaVuSans-6e" x="889.291016"/>
     <use xlink:href="#DejaVuSans-74" x="952.669922"/>
     <use xlink:href="#DejaVuSans-47" x="991.878906"/>
     <use xlink:href="#DejaVuSans-70" x="1069.369141"/>
     <use xlink:href="#DejaVuSans-41" x="1132.845703"/>
     <use xlink:href="#DejaVuSans-5f" x="1201.253906"/>
     <use xlink:href="#DejaVuSans-74" x="1251.253906"/>
     <use xlink:href="#DejaVuSans-72" x="1290.462891"/>
     <use xlink:href="#DejaVuSans-61" x="1331.576172"/>
     <use xlink:href="#DejaVuSans-6e" x="1392.855469"/>
     <use xlink:href="#DejaVuSans-73" x="1456.234375"/>
     <use xlink:href="#DejaVuSans-66" x="1508.333984"/>
     <use xlink:href="#DejaVuSans-6f" x="1543.539062"/>
     <use xlink:href="#DejaVuSans-72" x="1604.720703"/>
     <use xlink:href="#DejaVuSans-6d" x="1644.083984"/>
     <use xlink:href="#DejaVuSans-65" x="1741.496094"/>
     <use xlink:href="#DejaVuSans-64" x="1803.019531"/>
    </g>
   </g>
  </g>
 </g>
 <defs>
  <clipPath id="p70c6aa3d6a">
   <rect x="47.82125" y="46.675942" width="402.17875" height="256.964058"/>
  </clipPath>
 </defs>
</svg>
