<svg width="2761" height="1472" xmlns="http://www.w3.org/2000/svg" xmlns:xlink="http://www.w3.org/1999/xlink" xml:space="preserve" overflow="hidden"><defs><clipPath id="clip0"><rect x="3509" y="2793" width="2761" height="1472"/></clipPath></defs><g clip-path="url(#clip0)" transform="translate(-3509 -2793)"><rect x="3510" y="2794" width="2758" height="1469" fill="#FFFFFF"/><g><path d="M3640.5 4212.5 6217.5 4212.5M3640.5 3934.63 6217.5 3934.63M3640.5 3796.62 6217.5 3796.62M3640.5 3657.62 6217.5 3657.62M3640.5 3518.62 6217.5 3518.62M3640.5 3379.61 6217.5 3379.61M3640.5 3241.61 6217.5 3241.61M3640.5 3102.6 6217.5 3102.6M3640.5 2963.5 6217.5 2963.5" stroke="#D9D9D9" stroke-width="3.4375" stroke-linejoin="round" stroke-miterlimit="10" fill="none"/></g><g><path d="M3667.12 3380.11 3692.12 3380.11 3692.12 4074.13 3667.12 4074.13ZM3745.12 3952.13 3770.12 3952.13 3770.12 4074.13 3745.12 4074.13ZM3901.13 4085.13 3926.13 4085.13 3926.13 4074.13 3901.13 4074.13ZM3979.13 3984.13 4004.13 3984.13 4004.13 4074.13 3979.13 4074.13ZM4058.13 3948.13 4082.13 3948.13 4082.13 4074.13 4058.13 4074.13ZM4136.14 3803.12 4160.14 3803.12 4160.14 4074.13 4136.14 4074.13ZM4214.14 3111.1 4238.14 3111.1 4238.14 4074.13 4214.14 4074.13ZM4292.14 3716.12 4316.14 3716.12 4316.14 4074.13 4292.14 4074.13ZM4370.14 3761.12 4394.14 3761.12 4394.14 4074.13 4370.14 4074.13ZM4448.15 3671.12 4473.15 3671.12 4473.15 4074.13 4448.15 4074.13ZM4526.15 3487.11 4551.15 3487.11 4551.15 4074.13 4526.15 4074.13ZM4604.15 3750.12 4629.15 3750.12 4629.15 4074.13 4604.15 4074.13ZM4682.15 3473.11 4707.15 3473.11 4707.15 4074.13 4682.15 4074.13ZM4760.16 3730.12 4785.16 3730.12 4785.16 4074.13 4760.16 4074.13ZM4838.16 3716.12 4863.16 3716.12 4863.16 4074.13 4838.16 4074.13ZM4917.16 3805.12 4941.16 3805.12 4941.16 4074.13 4917.16 4074.13ZM4995.16 3581.12 5019.16 3581.12 5019.16 4074.13 4995.16 4074.13ZM5073.17 3632.12 5097.17 3632.12 5097.17 4074.13 5073.17 4074.13ZM5151.17 3879.13 5175.17 3879.13 5175.17 4074.13 5151.17 4074.13ZM5229.17 3737.12 5253.17 3737.12 5253.17 4074.13 5229.17 4074.13ZM5307.17 3807.12 5332.17 3807.12 5332.17 4074.13 5307.17 4074.13ZM5385.18 3826.13 5410.18 3826.13 5410.18 4074.13 5385.18 4074.13ZM5463.18 3616.12 5488.18 3616.12 5488.18 4074.13 5463.18 4074.13ZM5541.18 3635.12 5566.18 3635.12 5566.18 4074.13 5541.18 4074.13ZM5619.18 3729.12 5644.19 3729.12 5644.19 4074.13 5619.18 4074.13ZM5697.19 3518.12 5722.19 3518.12 5722.19 4074.13 5697.19 4074.13ZM5776.19 3802.12 5800.19 3802.12 5800.19 4074.13 5776.19 4074.13ZM5854.19 3756.12 5878.19 3756.12 5878.19 4074.13 5854.19 4074.13ZM5932.19 3692.12 5956.2 3692.12 5956.2 4074.13 5932.19 4074.13ZM6010.2 3796.12 6034.2 3796.12 6034.2 4074.13 6010.2 4074.13ZM6088.2 3745.12 6112.2 3745.12 6112.2 4074.13 6088.2 4074.13ZM6166.2 3660.12 6191.2 3660.12 6191.2 4074.13 6166.2 4074.13Z" fill="#156082"/></g><g><path d="M3679.62 3379.61 3679.62 3430.5M3679.62 3379.61 3679.62 3329.5M3669.5 3430.5 3689.5 3430.5M3669.5 3329.5 3689.5 3329.5" stroke="#595959" stroke-width="3.4375" stroke-linejoin="round" stroke-miterlimit="10" fill="none"/></g><g><path d="M3757.62 3951.63 3757.62 3957.5M3757.62 3951.63 3757.62 3945.5M3747.5 3957.5 3767.5 3957.5M3747.5 3945.5 3767.5 3945.5" stroke="#595959" stroke-width="3.4375" stroke-linejoin="round" stroke-miterlimit="10" fill="none"/></g><g><path d="M3825.5 4073.5 3845.5 4073.5M3825.5 4073.5 3845.5 4073.5" stroke="#595959" stroke-width="3.4375" stroke-linejoin="round" stroke-miterlimit="10" fill="none"/></g><g><path d="M3913.63 4085.63 3913.63 4084.5M3913.63 4085.63 3913.63 4085.5M3903.5 4084.5 3924.5 4084.5M3903.5 4085.5 3924.5 4085.5" stroke="#595959" stroke-width="3.4375" stroke-linejoin="round" stroke-miterlimit="10" fill="none"/></g><g><path d="M3991.63 3984.63 3991.63 3986.5M3991.63 3984.63 3991.63 3982.5M3981.5 3986.5 4002.5 3986.5M3981.5 3982.5 4002.5 3982.5" stroke="#595959" stroke-width="3.4375" stroke-linejoin="round" stroke-miterlimit="10" fill="none"/></g><g><path d="M4069.63 3947.63 4069.63 3951.5M4069.63 3947.63 4069.63 3944.5M4059.5 3951.5 4080.5 3951.5M4059.5 3944.5 4080.5 3944.5" stroke="#595959" stroke-width="3.4375" stroke-linejoin="round" stroke-miterlimit="10" fill="none"/></g><g><path d="M4147.64 3803.62 4147.64 3815.5M4147.64 3803.62 4147.64 3791.5M4137.5 3815.5 4158.5 3815.5M4137.5 3791.5 4158.5 3791.5" stroke="#595959" stroke-width="3.4375" stroke-linejoin="round" stroke-miterlimit="10" fill="none"/></g><g><path d="M4225.64 3111.6 4225.64 3141.5M4225.64 3111.6 4225.64 3081.5M4215.5 3141.5 4236.5 3141.5M4215.5 3081.5 4236.5 3081.5" stroke="#595959" stroke-width="3.4375" stroke-linejoin="round" stroke-miterlimit="10" fill="none"/></g><g><path d="M4304.64 3715.62 4304.64 3717.5M4304.64 3715.62 4304.64 3714.5M4293.5 3717.5 4314.5 3717.5M4293.5 3714.5 4314.5 3714.5" stroke="#595959" stroke-width="3.4375" stroke-linejoin="round" stroke-miterlimit="10" fill="none"/></g><g><path d="M4382.64 3760.62 4382.64 3783.5M4382.64 3760.62 4382.64 3737.5M4372.5 3783.5 4392.5 3783.5M4372.5 3737.5 4392.5 3737.5" stroke="#595959" stroke-width="3.4375" stroke-linejoin="round" stroke-miterlimit="10" fill="none"/></g><g><path d="M4460.65 3671.62 4460.65 3686.5M4460.65 3671.62 4460.65 3656.5M4450.5 3686.5 4470.5 3686.5M4450.5 3656.5 4470.5 3656.5" stroke="#595959" stroke-width="3.4375" stroke-linejoin="round" stroke-miterlimit="10" fill="none"/></g><g><path d="M4538.65 3486.61 4538.65 3520.5M4538.65 3486.61 4538.65 3453.5M4528.5 3520.5 4548.5 3520.5M4528.5 3453.5 4548.5 3453.5" stroke="#595959" stroke-width="3.4375" stroke-linejoin="round" stroke-miterlimit="10" fill="none"/></g><g><path d="M4616.65 3750.62 4616.65 3764.5M4616.65 3750.62 4616.65 3736.5M4606.5 3764.5 4626.5 3764.5M4606.5 3736.5 4626.5 3736.5" stroke="#595959" stroke-width="3.4375" stroke-linejoin="round" stroke-miterlimit="10" fill="none"/></g><g><path d="M4694.65 3472.61 4694.65 3499.5M4694.65 3472.61 4694.65 3446.5M4684.5 3499.5 4705.5 3499.5M4684.5 3446.5 4705.5 3446.5" stroke="#595959" stroke-width="3.4375" stroke-linejoin="round" stroke-miterlimit="10" fill="none"/></g><g><path d="M4772.66 3730.62 4772.66 3748.5M4772.66 3730.62 4772.66 3712.5M4762.5 3748.5 4783.5 3748.5M4762.5 3712.5 4783.5 3712.5" stroke="#595959" stroke-width="3.4375" stroke-linejoin="round" stroke-miterlimit="10" fill="none"/></g><g><path d="M4850.66 3716.62 4850.66 3727.5M4850.66 3716.62 4850.66 3704.5M4840.5 3727.5 4861.5 3727.5M4840.5 3704.5 4861.5 3704.5" stroke="#595959" stroke-width="3.4375" stroke-linejoin="round" stroke-miterlimit="10" fill="none"/></g><g><path d="M4928.66 3805.63 4928.66 3824.5M4928.66 3805.63 4928.66 3786.5M4918.5 3824.5 4939.5 3824.5M4918.5 3786.5 4939.5 3786.5" stroke="#595959" stroke-width="3.4375" stroke-linejoin="round" stroke-miterlimit="10" fill="none"/></g><g><path d="M5006.66 3581.62 5006.66 3605.5M5006.66 3581.62 5006.66 3557.5M4996.5 3605.5 5017.5 3605.5M4996.5 3557.5 5017.5 3557.5" stroke="#595959" stroke-width="3.4375" stroke-linejoin="round" stroke-miterlimit="10" fill="none"/></g><g><path d="M5084.67 3632.62 5084.67 3654.5M5084.67 3632.62 5084.67 3610.5M5074.5 3654.5 5095.5 3654.5M5074.5 3610.5 5095.5 3610.5" stroke="#595959" stroke-width="3.4375" stroke-linejoin="round" stroke-miterlimit="10" fill="none"/></g><g><path d="M5163.67 3878.63 5163.67 3916.5M5163.67 3878.63 5163.67 3841.5M5152.5 3916.5 5173.5 3916.5M5152.5 3841.5 5173.5 3841.5" stroke="#595959" stroke-width="3.4375" stroke-linejoin="round" stroke-miterlimit="10" fill="none"/></g><g><path d="M5241.67 3736.62 5241.67 3746.5M5241.67 3736.62 5241.67 3727.5M5231.5 3746.5 5251.5 3746.5M5231.5 3727.5 5251.5 3727.5" stroke="#595959" stroke-width="3.4375" stroke-linejoin="round" stroke-miterlimit="10" fill="none"/></g><g><path d="M5319.67 3806.62 5319.67 3821.5M5319.67 3806.62 5319.67 3791.5M5309.5 3821.5 5329.5 3821.5M5309.5 3791.5 5329.5 3791.5" stroke="#595959" stroke-width="3.4375" stroke-linejoin="round" stroke-miterlimit="10" fill="none"/></g><g><path d="M5397.68 3825.63 5397.68 3881.5M5397.68 3825.63 5397.68 3769.5M5387.5 3881.5 5407.5 3881.5M5387.5 3769.5 5407.5 3769.5" stroke="#595959" stroke-width="3.4375" stroke-linejoin="round" stroke-miterlimit="10" fill="none"/></g><g><path d="M5475.68 3615.62 5475.68 3639.5M5475.68 3615.62 5475.68 3592.5M5465.5 3639.5 5485.5 3639.5M5465.5 3592.5 5485.5 3592.5" stroke="#595959" stroke-width="3.4375" stroke-linejoin="round" stroke-miterlimit="10" fill="none"/></g><g><path d="M5553.68 3635.62 5553.68 3667.5M5553.68 3635.62 5553.68 3603.5M5543.5 3667.5 5564.5 3667.5M5543.5 3603.5 5564.5 3603.5" stroke="#595959" stroke-width="3.4375" stroke-linejoin="round" stroke-miterlimit="10" fill="none"/></g><g><path d="M5631.69 3729.62 5631.69 3749.5M5631.69 3729.62 5631.69 3708.5M5621.5 3749.5 5642.5 3749.5M5621.5 3708.5 5642.5 3708.5" stroke="#595959" stroke-width="3.4375" stroke-linejoin="round" stroke-miterlimit="10" fill="none"/></g><g><path d="M5709.69 3518.62 5709.69 3540.5M5709.69 3518.62 5709.69 3496.5M5699.5 3540.5 5720.5 3540.5M5699.5 3496.5 5720.5 3496.5" stroke="#595959" stroke-width="3.4375" stroke-linejoin="round" stroke-miterlimit="10" fill="none"/></g><g><path d="M5787.69 3801.62 5787.69 3806.5M5787.69 3801.62 5787.69 3797.5M5777.5 3806.5 5798.5 3806.5M5777.5 3797.5 5798.5 3797.5" stroke="#595959" stroke-width="3.4375" stroke-linejoin="round" stroke-miterlimit="10" fill="none"/></g><g><path d="M5865.69 3756.62 5865.69 3757.5M5865.69 3756.62 5865.69 3754.5M5855.5 3757.5 5876.5 3757.5M5855.5 3754.5 5876.5 3754.5" stroke="#595959" stroke-width="3.4375" stroke-linejoin="round" stroke-miterlimit="10" fill="none"/></g><g><path d="M5944.7 3691.62 5944.7 3695.5M5944.7 3691.62 5944.7 3688.5M5933.5 3695.5 5954.5 3695.5M5933.5 3688.5 5954.5 3688.5" stroke="#595959" stroke-width="3.4375" stroke-linejoin="round" stroke-miterlimit="10" fill="none"/></g><g><path d="M6022.7 3795.62 6022.7 3801.5M6022.7 3795.62 6022.7 3790.5M6011.5 3801.5 6032.5 3801.5M6011.5 3790.5 6032.5 3790.5" stroke="#595959" stroke-width="3.4375" stroke-linejoin="round" stroke-miterlimit="10" fill="none"/></g><g><path d="M6100.7 3744.62 6100.7 3763.5M6100.7 3744.62 6100.7 3726.5M6090.5 3763.5 6110.5 3763.5M6090.5 3726.5 6110.5 3726.5" stroke="#595959" stroke-width="3.4375" stroke-linejoin="round" stroke-miterlimit="10" fill="none"/></g><g><path d="M6178.7 3660.62 6178.7 3680.5M6178.7 3660.62 6178.7 3641.5M6168.5 3680.5 6188.5 3680.5M6168.5 3641.5 6188.5 3641.5" stroke="#595959" stroke-width="3.4375" stroke-linejoin="round" stroke-miterlimit="10" fill="none"/></g><g><path d="M3640.5 4073.5 6217.5 4073.5" stroke="#D9D9D9" stroke-width="3.4375" stroke-linejoin="round" stroke-miterlimit="10" fill="none" fill-rule="evenodd"/></g><g><text fill="#595959" font-family="Aptos Narrow,Aptos Narrow_MSFontService,sans-serif" font-weight="400" font-stretch="semi-condensed" font-size="41" transform="matrix(1 0 0 1 3547.92 4224)">-20</text></g><g><text fill="#595959" font-family="Aptos Narrow,Aptos Narrow_MSFontService,sans-serif" font-weight="400" font-stretch="semi-condensed" font-size="41" transform="matrix(1 0 0 1 3581.45 4085)">0</text></g><g><text fill="#595959" font-family="Aptos Narrow,Aptos Narrow_MSFontService,sans-serif" font-weight="400" font-stretch="semi-condensed" font-size="41" transform="matrix(1 0 0 1 3560.55 3947)">20</text></g><g><text fill="#595959" font-family="Aptos Narrow,Aptos Narrow_MSFontService,sans-serif" font-weight="400" font-stretch="semi-condensed" font-size="41" transform="matrix(1 0 0 1 3560.55 3808)">40</text></g><g><text fill="#595959" font-family="Aptos Narrow,Aptos Narrow_MSFontService,sans-serif" font-weight="400" font-stretch="semi-condensed" font-size="41" transform="matrix(1 0 0 1 3560.55 3669)">60</text></g><g><text fill="#595959" font-family="Aptos Narrow,Aptos Narrow_MSFontService,sans-serif" font-weight="400" font-stretch="semi-condensed" font-size="41" transform="matrix(1 0 0 1 3560.55 3530)">80</text></g><g><text fill="#595959" font-family="Aptos Narrow,Aptos Narrow_MSFontService,sans-serif" font-weight="400" font-stretch="semi-condensed" font-size="41" transform="matrix(1 0 0 1 3539.65 3392)">100</text></g><g><text fill="#595959" font-family="Aptos Narrow,Aptos Narrow_MSFontService,sans-serif" font-weight="400" font-stretch="semi-condensed" font-size="41" transform="matrix(1 0 0 1 3539.65 3253)">120</text></g><g><text fill="#595959" font-family="Aptos Narrow,Aptos Narrow_MSFontService,sans-serif" font-weight="400" font-stretch="semi-condensed" font-size="41" transform="matrix(1 0 0 1 3539.65 3114)">140</text></g><g><text fill="#595959" font-family="Aptos Narrow,Aptos Narrow_MSFontService,sans-serif" font-weight="400" font-stretch="semi-condensed" font-size="41" transform="matrix(1 0 0 1 3539.65 2975)">160</text></g><g><text fill="#595959" font-family="Aptos Narrow,Aptos Narrow_MSFontService,sans-serif" font-weight="400" font-stretch="semi-condensed" font-size="41" transform="matrix(0.707107 -0.707107 0.707107 0.707107 3641.21 4175)">Gpa</text></g><g><text fill="#595959" font-family="Aptos Narrow,Aptos Narrow_MSFontService,sans-serif" font-weight="400" font-stretch="semi-condensed" font-size="41" transform="matrix(0.707107 -0.707107 0.707107 0.707107 3711.85 4183)">G83I</text></g><g><text fill="#595959" font-family="Aptos Narrow,Aptos Narrow_MSFontService,sans-serif" font-weight="400" font-stretch="semi-condensed" font-size="41" transform="matrix(0.707107 -0.707107 0.707107 0.707107 3778.13 4194)">NoTM</text></g><g><text fill="#595959" font-family="Aptos Narrow,Aptos Narrow_MSFontService,sans-serif" font-weight="400" font-stretch="semi-condensed" font-size="41" transform="matrix(0.707107 -0.707107 0.707107 0.707107 3889.91 4161)">G2</text></g><g><text fill="#595959" font-family="Aptos Narrow,Aptos Narrow_MSFontService,sans-serif" font-weight="400" font-stretch="semi-condensed" font-size="41" transform="matrix(0.707107 -0.707107 0.707107 0.707107 3968 4161)">G3</text></g><g><text fill="#595959" font-family="Aptos Narrow,Aptos Narrow_MSFontService,sans-serif" font-weight="400" font-stretch="semi-condensed" font-size="41" transform="matrix(0.707107 -0.707107 0.707107 0.707107 4031.32 4176)">1G2</text></g><g><text fill="#595959" font-family="Aptos Narrow,Aptos Narrow_MSFontService,sans-serif" font-weight="400" font-stretch="semi-condensed" font-size="41" transform="matrix(0.707107 -0.707107 0.707107 0.707107 4099.48 4185)">2F12</text></g><g><text fill="#595959" font-family="Aptos Narrow,Aptos Narrow_MSFontService,sans-serif" font-weight="400" font-stretch="semi-condensed" font-size="41" transform="matrix(0.707107 -0.707107 0.707107 0.707107 4172.73 4190)">2H11</text></g><g><text fill="#595959" font-family="Aptos Narrow,Aptos Narrow_MSFontService,sans-serif" font-weight="400" font-stretch="semi-condensed" font-size="41" transform="matrix(0.707107 -0.707107 0.707107 0.707107 4285.91 4155)">L4</text></g><g><text fill="#595959" font-family="Aptos Narrow,Aptos Narrow_MSFontService,sans-serif" font-weight="400" font-stretch="semi-condensed" font-size="41" transform="matrix(0.707107 -0.707107 0.707107 0.707107 4345.54 4174)">LC7</text></g><g><text fill="#595959" font-family="Aptos Narrow,Aptos Narrow_MSFontService,sans-serif" font-weight="400" font-stretch="semi-condensed" font-size="41" transform="matrix(0.707107 -0.707107 0.707107 0.707107 4409.02 4188)">LD23</text></g><g><text fill="#595959" font-family="Aptos Narrow,Aptos Narrow_MSFontService,sans-serif" font-weight="400" font-stretch="semi-condensed" font-size="41" transform="matrix(0.707107 -0.707107 0.707107 0.707107 4483.76 4192)">LWT3</text></g><g><text fill="#595959" font-family="Aptos Narrow,Aptos Narrow_MSFontService,sans-serif" font-weight="400" font-stretch="semi-condensed" font-size="41" transform="matrix(0.707107 -0.707107 0.707107 0.707107 4579.82 4174)">LC2</text></g><g><text fill="#595959" font-family="Aptos Narrow,Aptos Narrow_MSFontService,sans-serif" font-weight="400" font-stretch="semi-condensed" font-size="41" transform="matrix(0.707107 -0.707107 0.707107 0.707107 4643.3 4188)">LD21</text></g><g><text fill="#595959" font-family="Aptos Narrow,Aptos Narrow_MSFontService,sans-serif" font-weight="400" font-stretch="semi-condensed" font-size="41" transform="matrix(0.707107 -0.707107 0.707107 0.707107 4703.26 4206)">LWT11</text></g><g><text fill="#595959" font-family="Aptos Narrow,Aptos Narrow_MSFontService,sans-serif" font-weight="400" font-stretch="semi-condensed" font-size="41" transform="matrix(0.707107 -0.707107 0.707107 0.707107 4814.1 4174)">LC3</text></g><g><text fill="#595959" font-family="Aptos Narrow,Aptos Narrow_MSFontService,sans-serif" font-weight="400" font-stretch="semi-condensed" font-size="41" transform="matrix(0.707107 -0.707107 0.707107 0.707107 4877.58 4188)">LD50</text></g><g><text fill="#595959" font-family="Aptos Narrow,Aptos Narrow_MSFontService,sans-serif" font-weight="400" font-stretch="semi-condensed" font-size="41" transform="matrix(0.707107 -0.707107 0.707107 0.707107 4934.67 4209)">RWT34</text></g><g><text fill="#595959" font-family="Aptos Narrow,Aptos Narrow_MSFontService,sans-serif" font-weight="400" font-stretch="semi-condensed" font-size="41" transform="matrix(0.707107 -0.707107 0.707107 0.707107 5045.52 4177)">RC8</text></g><g><text fill="#595959" font-family="Aptos Narrow,Aptos Narrow_MSFontService,sans-serif" font-weight="400" font-stretch="semi-condensed" font-size="41" transform="matrix(0.707107 -0.707107 0.707107 0.707107 5109 4191)">RD13</text></g><g><text fill="#595959" font-family="Aptos Narrow,Aptos Narrow_MSFontService,sans-serif" font-weight="400" font-stretch="semi-condensed" font-size="41" transform="matrix(0.707107 -0.707107 0.707107 0.707107 5168.96 4209)">RWT40</text></g><g><text fill="#595959" font-family="Aptos Narrow,Aptos Narrow_MSFontService,sans-serif" font-weight="400" font-stretch="semi-condensed" font-size="41" transform="matrix(0.707107 -0.707107 0.707107 0.707107 5279.8 4177)">RC1</text></g><g><text fill="#595959" font-family="Aptos Narrow,Aptos Narrow_MSFontService,sans-serif" font-weight="400" font-stretch="semi-condensed" font-size="41" transform="matrix(0.707107 -0.707107 0.707107 0.707107 5343.28 4191)">RD52</text></g><g><text fill="#595959" font-family="Aptos Narrow,Aptos Narrow_MSFontService,sans-serif" font-weight="400" font-stretch="semi-condensed" font-size="41" transform="matrix(0.707107 -0.707107 0.707107 0.707107 5457.31 4155)">L8</text></g><g><text fill="#595959" font-family="Aptos Narrow,Aptos Narrow_MSFontService,sans-serif" font-weight="400" font-stretch="semi-condensed" font-size="41" transform="matrix(0.707107 -0.707107 0.707107 0.707107 5516.95 4174)">LC4</text></g><g><text fill="#595959" font-family="Aptos Narrow,Aptos Narrow_MSFontService,sans-serif" font-weight="400" font-stretch="semi-condensed" font-size="41" transform="matrix(0.707107 -0.707107 0.707107 0.707107 5595.21 4174)">LD9</text></g><g><text fill="#595959" font-family="Aptos Narrow,Aptos Narrow_MSFontService,sans-serif" font-weight="400" font-stretch="semi-condensed" font-size="41" transform="matrix(0.707107 -0.707107 0.707107 0.707107 5652.3 4195)">RWT3</text></g><g><text fill="#595959" font-family="Aptos Narrow,Aptos Narrow_MSFontService,sans-serif" font-weight="400" font-stretch="semi-condensed" font-size="41" transform="matrix(0.707107 -0.707107 0.707107 0.707107 5733.58 4191)">RC11</text></g><g><text fill="#595959" font-family="Aptos Narrow,Aptos Narrow_MSFontService,sans-serif" font-weight="400" font-stretch="semi-condensed" font-size="41" transform="matrix(0.707107 -0.707107 0.707107 0.707107 5826.62 4176)">RD2</text></g><g><text fill="#595959" font-family="Aptos Narrow,Aptos Narrow_MSFontService,sans-serif" font-weight="400" font-stretch="semi-condensed" font-size="41" transform="matrix(0.707107 -0.707107 0.707107 0.707107 5871.8 4209)">RWT39</text></g><g><text fill="#595959" font-family="Aptos Narrow,Aptos Narrow_MSFontService,sans-serif" font-weight="400" font-stretch="semi-condensed" font-size="41" transform="matrix(0.707107 -0.707107 0.707107 0.707107 5982.64 4177)">RC2</text></g><g><text fill="#595959" font-family="Aptos Narrow,Aptos Narrow_MSFontService,sans-serif" font-weight="400" font-stretch="semi-condensed" font-size="41" transform="matrix(0.707107 -0.707107 0.707107 0.707107 6046.12 4191)">RD39</text></g><g><text fill="#595959" font-family="Aptos Narrow,Aptos Narrow_MSFontService,sans-serif" font-weight="400" font-stretch="semi-condensed" font-size="41" transform="matrix(0.707107 -0.707107 0.707107 0.707107 6145.1 4170)">YF9</text></g><g><text fill="#595959" font-family="Aptos Narrow,Aptos Narrow_MSFontService,sans-serif" font-weight="400" font-stretch="semi-condensed" font-size="64" transform="matrix(1 0 0 1 4730.83 2888)">Percent GpA</text></g><rect x="3510.5" y="2794.5" width="2758" height="1469" stroke="#D9D9D9" stroke-width="3.4375" stroke-linejoin="round" stroke-miterlimit="10" fill="none"/></g></svg>