<svg width="2207" height="1320" xmlns="http://www.w3.org/2000/svg" xmlns:xlink="http://www.w3.org/1999/xlink" xml:space="preserve" overflow="hidden"><defs><clipPath id="clip0"><rect x="3265" y="1374" width="2207" height="1320"/></clipPath></defs><g clip-path="url(#clip0)" transform="translate(-3265 -1374)"><rect x="3266" y="1375" width="2204" height="1317" fill="#FFFFFF"/><g><path d="M3438.5 2357.58 5419.5 2357.58M3438.5 2195.57 5419.5 2195.57M3438.5 2032.57 5419.5 2032.57M3438.5 1870.56 5419.5 1870.56M3438.5 1707.56 5419.5 1707.56M3438.5 1544.5 5419.5 1544.5" stroke="#D9D9D9" stroke-width="3.4375" stroke-linejoin="round" stroke-miterlimit="10" fill="none"/></g><g><path d="M3457.11 2054.07 3474.11 2054.07 3474.11 2520 3457.11 2520ZM3511.11 2002.07 3527.12 2002.07 3527.12 2520 3511.11 2520ZM3564.12 1716.06 3581.12 1716.06 3581.12 2520 3564.12 2520ZM3618.12 2070.07 3634.12 2070.07 3634.12 2520 3618.12 2520ZM3671.12 1781.06 3688.12 1781.06 3688.12 2520 3671.12 2520ZM3725.12 2125.07 3741.12 2125.07 3741.12 2520 3725.12 2520ZM3778.12 1926.06 3795.12 1926.06 3795.12 2520 3778.12 2520ZM3832.13 1971.06 3848.13 1971.06 3848.13 2520 3832.13 2520ZM3885.13 1944.06 3902.13 1944.06 3902.13 2520 3885.13 2520ZM3939.13 1899.06 3956.13 1899.06 3956.13 2520 3939.13 2520ZM3992.13 1873.06 4009.13 1873.06 4009.13 2520 3992.13 2520ZM4046.13 1975.06 4063.13 1975.06 4063.13 2520 4046.13 2520ZM4099.13 1917.06 4116.13 1917.06 4116.13 2520 4099.13 2520ZM4153.14 1940.06 4170.14 1940.06 4170.14 2520 4153.14 2520ZM4206.14 1947.06 4223.14 1947.06 4223.14 2520 4206.14 2520ZM4260.14 1934.06 4277.14 1934.06 4277.14 2520 4260.14 2520ZM4313.14 2013.07 4330.14 2013.07 4330.14 2520 4313.14 2520ZM4367.14 1927.06 4384.14 1927.06 4384.14 2520 4367.14 2520ZM4420.15 1931.06 4437.15 1931.06 4437.15 2520 4420.15 2520ZM4474.15 1917.06 4491.15 1917.06 4491.15 2520 4474.15 2520ZM4528.15 2004.07 4544.15 2004.07 4544.15 2520 4528.15 2520ZM4581.15 1880.06 4598.15 1880.06 4598.15 2520 4581.15 2520ZM4635.15 1999.07 4651.15 1999.07 4651.15 2520 4635.15 2520ZM4688.15 2000.07 4705.15 2000.07 4705.15 2520 4688.15 2520ZM4742.16 1966.06 4758.16 1966.06 4758.16 2520 4742.16 2520ZM4795.16 1884.06 4812.16 1884.06 4812.16 2520 4795.16 2520ZM4849.16 1951.06 4865.16 1951.06 4865.16 2520 4849.16 2520ZM4902.16 1985.07 4919.16 1985.07 4919.16 2520 4902.16 2520ZM4956.16 1910.06 4973.16 1910.06 4973.16 2520 4956.16 2520ZM5009.16 1931.06 5026.17 1931.06 5026.17 2520 5009.16 2520ZM5063.17 1853.06 5080.17 1853.06 5080.17 2520 5063.17 2520ZM5116.17 2007.07 5133.17 2007.07 5133.17 2520 5116.17 2520ZM5170.17 1953.06 5187.17 1953.06 5187.17 2520 5170.17 2520ZM5223.17 1870.06 5240.17 1870.06 5240.17 2520 5223.17 2520ZM5277.17 1914.06 5294.17 1914.06 5294.17 2520 5277.17 2520ZM5330.17 1908.06 5347.18 1908.06 5347.18 2520 5330.17 2520ZM5384.18 1940.06 5401.18 1940.06 5401.18 2520 5384.18 2520Z" fill="#156082"/></g><g><path d="M3455.5 2054.5 3475.5 2054.5M3455.5 2054.5 3475.5 2054.5" stroke="#595959" stroke-width="3.4375" stroke-linejoin="round" stroke-miterlimit="10" fill="none"/></g><g><path d="M3508.5 2002.5 3529.5 2002.5M3508.5 2002.5 3529.5 2002.5" stroke="#595959" stroke-width="3.4375" stroke-linejoin="round" stroke-miterlimit="10" fill="none"/></g><g><path d="M3572.62 1715.56 3572.62 1732.5M3572.62 1715.56 3572.62 1699.5M3562.5 1732.5 3582.5 1732.5M3562.5 1699.5 3582.5 1699.5" stroke="#595959" stroke-width="3.4375" stroke-linejoin="round" stroke-miterlimit="10" fill="none"/></g><g><path d="M3625.62 2070.57 3625.62 2082.5M3625.62 2070.57 3625.62 2057.5M3615.5 2082.5 3636.5 2082.5M3615.5 2057.5 3636.5 2057.5" stroke="#595959" stroke-width="3.4375" stroke-linejoin="round" stroke-miterlimit="10" fill="none"/></g><g><path d="M3679.62 1781.56 3679.62 1807.5M3679.62 1781.56 3679.62 1755.5M3669.5 1807.5 3689.5 1807.5M3669.5 1755.5 3689.5 1755.5" stroke="#595959" stroke-width="3.4375" stroke-linejoin="round" stroke-miterlimit="10" fill="none"/></g><g><path d="M3733.62 2125.57 3733.62 2140.5M3733.62 2125.57 3733.62 2109.5M3722.5 2140.5 3743.5 2140.5M3722.5 2109.5 3743.5 2109.5" stroke="#595959" stroke-width="3.4375" stroke-linejoin="round" stroke-miterlimit="10" fill="none"/></g><g><path d="M3786.62 1926.56 3786.62 1985.5M3786.62 1926.56 3786.62 1867.5M3776.5 1985.5 3796.5 1985.5M3776.5 1867.5 3796.5 1867.5" stroke="#595959" stroke-width="3.4375" stroke-linejoin="round" stroke-miterlimit="10" fill="none"/></g><g><path d="M3840.63 1970.56 3840.63 1987.5M3840.63 1970.56 3840.63 1953.5M3829.5 1987.5 3850.5 1987.5M3829.5 1953.5 3850.5 1953.5" stroke="#595959" stroke-width="3.4375" stroke-linejoin="round" stroke-miterlimit="10" fill="none"/></g><g><path d="M3893.63 1943.56 3893.63 1963.5M3893.63 1943.56 3893.63 1923.5M3883.5 1963.5 3904.5 1963.5M3883.5 1923.5 3904.5 1923.5" stroke="#595959" stroke-width="3.4375" stroke-linejoin="round" stroke-miterlimit="10" fill="none"/></g><g><path d="M3947.63 1899.56 3947.63 1919.5M3947.63 1899.56 3947.63 1878.5M3936.5 1919.5 3957.5 1919.5M3936.5 1878.5 3957.5 1878.5" stroke="#595959" stroke-width="3.4375" stroke-linejoin="round" stroke-miterlimit="10" fill="none"/></g><g><path d="M4000.63 1872.56 4000.63 1891.5M4000.63 1872.56 4000.63 1854.5M3990.5 1891.5 4011.5 1891.5M3990.5 1854.5 4011.5 1854.5" stroke="#595959" stroke-width="3.4375" stroke-linejoin="round" stroke-miterlimit="10" fill="none"/></g><g><path d="M4054.63 1975.56 4054.63 1993.5M4054.63 1975.56 4054.63 1957.5M4044.5 1993.5 4064.5 1993.5M4044.5 1957.5 4064.5 1957.5" stroke="#595959" stroke-width="3.4375" stroke-linejoin="round" stroke-miterlimit="10" fill="none"/></g><g><path d="M4107.63 1916.56 4107.63 1933.5M4107.63 1916.56 4107.63 1900.5M4097.5 1933.5 4118.5 1933.5M4097.5 1900.5 4118.5 1900.5" stroke="#595959" stroke-width="3.4375" stroke-linejoin="round" stroke-miterlimit="10" fill="none"/></g><g><path d="M4161.64 1939.56 4161.64 1959.5M4161.64 1939.56 4161.64 1920.5M4151.5 1959.5 4171.5 1959.5M4151.5 1920.5 4171.5 1920.5" stroke="#595959" stroke-width="3.4375" stroke-linejoin="round" stroke-miterlimit="10" fill="none"/></g><g><path d="M4214.64 1947.56 4214.64 1977.5M4214.64 1947.56 4214.64 1917.5M4204.5 1977.5 4225.5 1977.5M4204.5 1917.5 4225.5 1917.5" stroke="#595959" stroke-width="3.4375" stroke-linejoin="round" stroke-miterlimit="10" fill="none"/></g><g><path d="M4268.64 1933.56 4268.64 1975.5M4268.64 1933.56 4268.64 1892.5M4258.5 1975.5 4278.5 1975.5M4258.5 1892.5 4278.5 1892.5" stroke="#595959" stroke-width="3.4375" stroke-linejoin="round" stroke-miterlimit="10" fill="none"/></g><g><path d="M4321.64 2013.57 4321.64 2035.5M4321.64 2013.57 4321.64 1991.5M4311.5 2035.5 4332.5 2035.5M4311.5 1991.5 4332.5 1991.5" stroke="#595959" stroke-width="3.4375" stroke-linejoin="round" stroke-miterlimit="10" fill="none"/></g><g><path d="M4375.64 1927.56 4375.64 1936.5M4375.64 1927.56 4375.64 1918.5M4365.5 1936.5 4385.5 1936.5M4365.5 1918.5 4385.5 1918.5" stroke="#595959" stroke-width="3.4375" stroke-linejoin="round" stroke-miterlimit="10" fill="none"/></g><g><path d="M4428.65 1931.56 4428.65 1982.5M4428.65 1931.56 4428.65 1879.5M4418.5 1982.5 4439.5 1982.5M4418.5 1879.5 4439.5 1879.5" stroke="#595959" stroke-width="3.4375" stroke-linejoin="round" stroke-miterlimit="10" fill="none"/></g><g><path d="M4482.65 1917.56 4482.65 1923.5M4482.65 1917.56 4482.65 1911.5M4472.5 1923.5 4492.5 1923.5M4472.5 1911.5 4492.5 1911.5" stroke="#595959" stroke-width="3.4375" stroke-linejoin="round" stroke-miterlimit="10" fill="none"/></g><g><path d="M4535.65 2004.57 4535.65 2029.5M4535.65 2004.57 4535.65 1979.5M4525.5 2029.5 4546.5 2029.5M4525.5 1979.5 4546.5 1979.5" stroke="#595959" stroke-width="3.4375" stroke-linejoin="round" stroke-miterlimit="10" fill="none"/></g><g><path d="M4589.65 1880.56 4589.65 1899.5M4589.65 1880.56 4589.65 1860.5M4579.5 1899.5 4599.5 1899.5M4579.5 1860.5 4599.5 1860.5" stroke="#595959" stroke-width="3.4375" stroke-linejoin="round" stroke-miterlimit="10" fill="none"/></g><g><path d="M4642.65 1999.57 4642.65 2009.5M4642.65 1999.57 4642.65 1989.5M4632.5 2009.5 4653.5 2009.5M4632.5 1989.5 4653.5 1989.5" stroke="#595959" stroke-width="3.4375" stroke-linejoin="round" stroke-miterlimit="10" fill="none"/></g><g><path d="M4696.65 2000.57 4696.65 2014.5M4696.65 2000.57 4696.65 1985.5M4686.5 2014.5 4706.5 2014.5M4686.5 1985.5 4706.5 1985.5" stroke="#595959" stroke-width="3.4375" stroke-linejoin="round" stroke-miterlimit="10" fill="none"/></g><g><path d="M4750.66 1965.56 4750.66 1977.5M4750.66 1965.56 4750.66 1953.5M4739.5 1977.5 4760.5 1977.5M4739.5 1953.5 4760.5 1953.5" stroke="#595959" stroke-width="3.4375" stroke-linejoin="round" stroke-miterlimit="10" fill="none"/></g><g><path d="M4803.66 1884.56 4803.66 1896.5M4803.66 1884.56 4803.66 1872.5M4793.5 1896.5 4814.5 1896.5M4793.5 1872.5 4814.5 1872.5" stroke="#595959" stroke-width="3.4375" stroke-linejoin="round" stroke-miterlimit="10" fill="none"/></g><g><path d="M4857.66 1950.56 4857.66 1957.5M4857.66 1950.56 4857.66 1944.5M4846.5 1957.5 4867.5 1957.5M4846.5 1944.5 4867.5 1944.5" stroke="#595959" stroke-width="3.4375" stroke-linejoin="round" stroke-miterlimit="10" fill="none"/></g><g><path d="M4910.66 1984.57 4910.66 1997.5M4910.66 1984.57 4910.66 1971.5M4900.5 1997.5 4921.5 1997.5M4900.5 1971.5 4921.5 1971.5" stroke="#595959" stroke-width="3.4375" stroke-linejoin="round" stroke-miterlimit="10" fill="none"/></g><g><path d="M4964.66 1909.56 4964.66 1930.5M4964.66 1909.56 4964.66 1889.5M4954.5 1930.5 4974.5 1930.5M4954.5 1889.5 4974.5 1889.5" stroke="#595959" stroke-width="3.4375" stroke-linejoin="round" stroke-miterlimit="10" fill="none"/></g><g><path d="M5017.67 1931.56 5017.67 1949.5M5017.67 1931.56 5017.67 1913.5M5007.5 1949.5 5028.5 1949.5M5007.5 1913.5 5028.5 1913.5" stroke="#595959" stroke-width="3.4375" stroke-linejoin="round" stroke-miterlimit="10" fill="none"/></g><g><path d="M5071.67 1853.56 5071.67 1876.5M5071.67 1853.56 5071.67 1829.5M5061.5 1876.5 5081.5 1876.5M5061.5 1829.5 5081.5 1829.5" stroke="#595959" stroke-width="3.4375" stroke-linejoin="round" stroke-miterlimit="10" fill="none"/></g><g><path d="M5124.67 2006.57 5124.67 2023.5M5124.67 2006.57 5124.67 1989.5M5114.5 2023.5 5135.5 2023.5M5114.5 1989.5 5135.5 1989.5" stroke="#595959" stroke-width="3.4375" stroke-linejoin="round" stroke-miterlimit="10" fill="none"/></g><g><path d="M5178.67 1953.56 5178.67 1992.5M5178.67 1953.56 5178.67 1914.5M5168.5 1992.5 5188.5 1992.5M5168.5 1914.5 5188.5 1914.5" stroke="#595959" stroke-width="3.4375" stroke-linejoin="round" stroke-miterlimit="10" fill="none"/></g><g><path d="M5231.67 1870.56 5231.67 1919.5M5231.67 1870.56 5231.67 1820.5M5221.5 1919.5 5242.5 1919.5M5221.5 1820.5 5242.5 1820.5" stroke="#595959" stroke-width="3.4375" stroke-linejoin="round" stroke-miterlimit="10" fill="none"/></g><g><path d="M5285.67 1914.56 5285.67 1935.5M5285.67 1914.56 5285.67 1893.5M5275.5 1935.5 5295.5 1935.5M5275.5 1893.5 5295.5 1893.5" stroke="#595959" stroke-width="3.4375" stroke-linejoin="round" stroke-miterlimit="10" fill="none"/></g><g><path d="M5338.68 1907.56 5338.68 1934.5M5338.68 1907.56 5338.68 1881.5M5328.5 1934.5 5349.5 1934.5M5328.5 1881.5 5349.5 1881.5" stroke="#595959" stroke-width="3.4375" stroke-linejoin="round" stroke-miterlimit="10" fill="none"/></g><g><path d="M5392.68 1940.56 5392.68 1960.5M5392.68 1940.56 5392.68 1919.5M5382.5 1960.5 5402.5 1960.5M5382.5 1919.5 5402.5 1919.5" stroke="#595959" stroke-width="3.4375" stroke-linejoin="round" stroke-miterlimit="10" fill="none"/></g><g><path d="M3438.5 2520.5 5419.5 2520.5" stroke="#D9D9D9" stroke-width="3.4375" stroke-linejoin="round" stroke-miterlimit="10" fill="none" fill-rule="evenodd"/></g><g><text fill="#595959" font-family="Aptos Narrow,Aptos Narrow_MSFontService,sans-serif" font-weight="400" font-stretch="semi-condensed" font-size="41" transform="matrix(1 0 0 1 3379.74 2532)">0</text></g><g><text fill="#595959" font-family="Aptos Narrow,Aptos Narrow_MSFontService,sans-serif" font-weight="400" font-stretch="semi-condensed" font-size="41" transform="matrix(1 0 0 1 3296.14 2369)">10000</text></g><g><text fill="#595959" font-family="Aptos Narrow,Aptos Narrow_MSFontService,sans-serif" font-weight="400" font-stretch="semi-condensed" font-size="41" transform="matrix(1 0 0 1 3296.14 2207)">20000</text></g><g><text fill="#595959" font-family="Aptos Narrow,Aptos Narrow_MSFontService,sans-serif" font-weight="400" font-stretch="semi-condensed" font-size="41" transform="matrix(1 0 0 1 3296.14 2044)">30000</text></g><g><text fill="#595959" font-family="Aptos Narrow,Aptos Narrow_MSFontService,sans-serif" font-weight="400" font-stretch="semi-condensed" font-size="41" transform="matrix(1 0 0 1 3296.14 1882)">40000</text></g><g><text fill="#595959" font-family="Aptos Narrow,Aptos Narrow_MSFontService,sans-serif" font-weight="400" font-stretch="semi-condensed" font-size="41" transform="matrix(1 0 0 1 3296.14 1719)">50000</text></g><g><text fill="#595959" font-family="Aptos Narrow,Aptos Narrow_MSFontService,sans-serif" font-weight="400" font-stretch="semi-condensed" font-size="41" transform="matrix(1 0 0 1 3296.14 1557)">60000</text></g><g><text fill="#595959" font-family="Aptos Narrow,Aptos Narrow_MSFontService,sans-serif" font-weight="400" font-stretch="semi-condensed" font-size="41" transform="matrix(6.12323e-17 -1 1 6.12323e-17 3479.31 2615)">1G2</text></g><g><text fill="#595959" font-family="Aptos Narrow,Aptos Narrow_MSFontService,sans-serif" font-weight="400" font-stretch="semi-condensed" font-size="41" transform="matrix(6.12323e-17 -1 1 6.12323e-17 3532.84 2629)">2F12</text></g><g><text fill="#595959" font-family="Aptos Narrow,Aptos Narrow_MSFontService,sans-serif" font-weight="400" font-stretch="semi-condensed" font-size="41" transform="matrix(6.12323e-17 -1 1 6.12323e-17 3586.37 2636)">2H11</text></g><g><text fill="#595959" font-family="Aptos Narrow,Aptos Narrow_MSFontService,sans-serif" font-weight="400" font-stretch="semi-condensed" font-size="41" transform="matrix(6.12323e-17 -1 1 6.12323e-17 3639.9 2625)">G83I</text></g><g><text fill="#595959" font-family="Aptos Narrow,Aptos Narrow_MSFontService,sans-serif" font-weight="400" font-stretch="semi-condensed" font-size="41" transform="matrix(6.12323e-17 -1 1 6.12323e-17 3693.43 2614)">Gpa</text></g><g><text fill="#595959" font-family="Aptos Narrow,Aptos Narrow_MSFontService,sans-serif" font-weight="400" font-stretch="semi-condensed" font-size="41" transform="matrix(6.12323e-17 -1 1 6.12323e-17 3746.96 2641)">NoTM</text></g><g><text fill="#595959" font-family="Aptos Narrow,Aptos Narrow_MSFontService,sans-serif" font-weight="400" font-stretch="semi-condensed" font-size="41" transform="matrix(6.12323e-17 -1 1 6.12323e-17 3800.49 2586)">L4</text></g><g><text fill="#595959" font-family="Aptos Narrow,Aptos Narrow_MSFontService,sans-serif" font-weight="400" font-stretch="semi-condensed" font-size="41" transform="matrix(6.12323e-17 -1 1 6.12323e-17 3854.02 2633)">LD23</text></g><g><text fill="#595959" font-family="Aptos Narrow,Aptos Narrow_MSFontService,sans-serif" font-weight="400" font-stretch="semi-condensed" font-size="41" transform="matrix(6.12323e-17 -1 1 6.12323e-17 3907.55 2612)">LC9</text></g><g><text fill="#595959" font-family="Aptos Narrow,Aptos Narrow_MSFontService,sans-serif" font-weight="400" font-stretch="semi-condensed" font-size="41" transform="matrix(6.12323e-17 -1 1 6.12323e-17 3961.08 2638)">LWT3</text></g><g><text fill="#595959" font-family="Aptos Narrow,Aptos Narrow_MSFontService,sans-serif" font-weight="400" font-stretch="semi-condensed" font-size="41" transform="matrix(6.12323e-17 -1 1 6.12323e-17 4014.61 2633)">LD21</text></g><g><text fill="#595959" font-family="Aptos Narrow,Aptos Narrow_MSFontService,sans-serif" font-weight="400" font-stretch="semi-condensed" font-size="41" transform="matrix(6.12323e-17 -1 1 6.12323e-17 4068.14 2612)">LC2</text></g><g><text fill="#595959" font-family="Aptos Narrow,Aptos Narrow_MSFontService,sans-serif" font-weight="400" font-stretch="semi-condensed" font-size="41" transform="matrix(6.12323e-17 -1 1 6.12323e-17 4121.67 2586)">L8</text></g><g><text fill="#595959" font-family="Aptos Narrow,Aptos Narrow_MSFontService,sans-serif" font-weight="400" font-stretch="semi-condensed" font-size="41" transform="matrix(6.12323e-17 -1 1 6.12323e-17 4175.2 2612)">LD9</text></g><g><text fill="#595959" font-family="Aptos Narrow,Aptos Narrow_MSFontService,sans-serif" font-weight="400" font-stretch="semi-condensed" font-size="41" transform="matrix(6.12323e-17 -1 1 6.12323e-17 4228.73 2612)">LC4</text></g><g><text fill="#595959" font-family="Aptos Narrow,Aptos Narrow_MSFontService,sans-serif" font-weight="400" font-stretch="semi-condensed" font-size="41" transform="matrix(6.12323e-17 -1 1 6.12323e-17 4282.26 2662)">RWT34</text></g><g><text fill="#595959" font-family="Aptos Narrow,Aptos Narrow_MSFontService,sans-serif" font-weight="400" font-stretch="semi-condensed" font-size="41" transform="matrix(6.12323e-17 -1 1 6.12323e-17 4335.79 2637)">RD17</text></g><g><text fill="#595959" font-family="Aptos Narrow,Aptos Narrow_MSFontService,sans-serif" font-weight="400" font-stretch="semi-condensed" font-size="41" transform="matrix(6.12323e-17 -1 1 6.12323e-17 4389.32 2616)">RC8</text></g><g><text fill="#595959" font-family="Aptos Narrow,Aptos Narrow_MSFontService,sans-serif" font-weight="400" font-stretch="semi-condensed" font-size="41" transform="matrix(6.12323e-17 -1 1 6.12323e-17 4442.85 2662)">RWT40</text></g><g><text fill="#595959" font-family="Aptos Narrow,Aptos Narrow_MSFontService,sans-serif" font-weight="400" font-stretch="semi-condensed" font-size="41" transform="matrix(6.12323e-17 -1 1 6.12323e-17 4496.38 2637)">RD52</text></g><g><text fill="#595959" font-family="Aptos Narrow,Aptos Narrow_MSFontService,sans-serif" font-weight="400" font-stretch="semi-condensed" font-size="41" transform="matrix(6.12323e-17 -1 1 6.12323e-17 4549.91 2616)">RC1</text></g><g><text fill="#595959" font-family="Aptos Narrow,Aptos Narrow_MSFontService,sans-serif" font-weight="400" font-stretch="semi-condensed" font-size="41" transform="matrix(6.12323e-17 -1 1 6.12323e-17 4603.44 2642)">RWT3</text></g><g><text fill="#595959" font-family="Aptos Narrow,Aptos Narrow_MSFontService,sans-serif" font-weight="400" font-stretch="semi-condensed" font-size="41" transform="matrix(6.12323e-17 -1 1 6.12323e-17 4656.97 2616)">RD2</text></g><g><text fill="#595959" font-family="Aptos Narrow,Aptos Narrow_MSFontService,sans-serif" font-weight="400" font-stretch="semi-condensed" font-size="41" transform="matrix(6.12323e-17 -1 1 6.12323e-17 4710.5 2637)">RC11</text></g><g><text fill="#595959" font-family="Aptos Narrow,Aptos Narrow_MSFontService,sans-serif" font-weight="400" font-stretch="semi-condensed" font-size="41" transform="matrix(6.12323e-17 -1 1 6.12323e-17 4764.03 2618)">M18</text></g><g><text fill="#595959" font-family="Aptos Narrow,Aptos Narrow_MSFontService,sans-serif" font-weight="400" font-stretch="semi-condensed" font-size="41" transform="matrix(6.12323e-17 -1 1 6.12323e-17 4817.56 2662)">RWT39</text></g><g><text fill="#595959" font-family="Aptos Narrow,Aptos Narrow_MSFontService,sans-serif" font-weight="400" font-stretch="semi-condensed" font-size="41" transform="matrix(6.12323e-17 -1 1 6.12323e-17 4871.09 2637)">RD39</text></g><g><text fill="#595959" font-family="Aptos Narrow,Aptos Narrow_MSFontService,sans-serif" font-weight="400" font-stretch="semi-condensed" font-size="41" transform="matrix(6.12323e-17 -1 1 6.12323e-17 4924.62 2616)">RC2</text></g><g><text fill="#595959" font-family="Aptos Narrow,Aptos Narrow_MSFontService,sans-serif" font-weight="400" font-stretch="semi-condensed" font-size="41" transform="matrix(6.12323e-17 -1 1 6.12323e-17 4978.15 2607)">YF9</text></g><g><text fill="#595959" font-family="Aptos Narrow,Aptos Narrow_MSFontService,sans-serif" font-weight="400" font-stretch="semi-condensed" font-size="41" transform="matrix(6.12323e-17 -1 1 6.12323e-17 5031.68 2662)">RWT38</text></g><g><text fill="#595959" font-family="Aptos Narrow,Aptos Narrow_MSFontService,sans-serif" font-weight="400" font-stretch="semi-condensed" font-size="41" transform="matrix(6.12323e-17 -1 1 6.12323e-17 5085.21 2616)">RD3</text></g><g><text fill="#595959" font-family="Aptos Narrow,Aptos Narrow_MSFontService,sans-serif" font-weight="400" font-stretch="semi-condensed" font-size="41" transform="matrix(6.12323e-17 -1 1 6.12323e-17 5138.74 2618)">M17</text></g><g><text fill="#595959" font-family="Aptos Narrow,Aptos Narrow_MSFontService,sans-serif" font-weight="400" font-stretch="semi-condensed" font-size="41" transform="matrix(6.12323e-17 -1 1 6.12323e-17 5192.27 2607)">YF3</text></g><g><text fill="#595959" font-family="Aptos Narrow,Aptos Narrow_MSFontService,sans-serif" font-weight="400" font-stretch="semi-condensed" font-size="41" transform="matrix(6.12323e-17 -1 1 6.12323e-17 5245.8 2618)">M27</text></g><g><text fill="#595959" font-family="Aptos Narrow,Aptos Narrow_MSFontService,sans-serif" font-weight="400" font-stretch="semi-condensed" font-size="41" transform="matrix(6.12323e-17 -1 1 6.12323e-17 5299.33 2637)">RD53</text></g><g><text fill="#595959" font-family="Aptos Narrow,Aptos Narrow_MSFontService,sans-serif" font-weight="400" font-stretch="semi-condensed" font-size="41" transform="matrix(6.12323e-17 -1 1 6.12323e-17 5352.86 2616)">RC6</text></g><g><text fill="#595959" font-family="Aptos Narrow,Aptos Narrow_MSFontService,sans-serif" font-weight="400" font-stretch="semi-condensed" font-size="41" transform="matrix(6.12323e-17 -1 1 6.12323e-17 5406.39 2607)">YF7</text></g><g><text fill="#595959" font-family="Aptos Narrow,Aptos Narrow_MSFontService,sans-serif" font-weight="400" font-stretch="semi-condensed" font-size="64" transform="matrix(1 0 0 1 4194.83 1469)">Fluorescence</text></g><rect x="3266.5" y="1375.5" width="2204" height="1317" stroke="#D9D9D9" stroke-width="3.4375" stroke-linejoin="round" stroke-miterlimit="10" fill="none"/></g></svg>