<svg width="2206" height="1323" xmlns="http://www.w3.org/2000/svg" xmlns:xlink="http://www.w3.org/1999/xlink" xml:space="preserve" overflow="hidden"><defs><clipPath id="clip0"><rect x="1019" y="1382" width="2206" height="1323"/></clipPath></defs><g clip-path="url(#clip0)" transform="translate(-1019 -1382)"><rect x="1020" y="1383" width="2203" height="1320" fill="#FFFFFF"/><g><path d="M1150.5 2652.5 3172.5 2652.5M1150.5 2377.58 3172.5 2377.58M1150.5 2240.57 3172.5 2240.57M1150.5 2102.57 3172.5 2102.57M1150.5 1965.56 3172.5 1965.56M1150.5 1828.56 3172.5 1828.56M1150.5 1690.56 3172.5 1690.56M1150.5 1553.5 3172.5 1553.5" stroke="#D9D9D9" stroke-width="3.4375" stroke-linejoin="round" stroke-miterlimit="10" fill="none"/></g><g><path d="M1169.04 2374.08 1186.04 2374.08 1186.04 2515.08 1169.04 2515.08ZM1224.04 2268.07 1241.04 2268.07 1241.04 2515.08 1224.04 2515.08ZM1278.04 1703.06 1295.04 1703.06 1295.04 2515.08 1278.04 2515.08ZM1333.04 2405.08 1350.04 2405.08 1350.04 2515.08 1333.04 2515.08ZM1388.05 1828.06 1405.05 1828.06 1405.05 2515.08 1388.05 2515.08ZM1497.05 2091.07 1514.05 2091.07 1514.05 2515.08 1497.05 2515.08ZM1551.05 2157.07 1569.05 2157.07 1569.05 2515.08 1551.05 2515.08ZM1606.05 2130.07 1623.05 2130.07 1623.05 2515.08 1606.05 2515.08ZM1661.05 2002.07 1678.06 2002.07 1678.06 2515.08 1661.05 2515.08ZM1715.06 1946.06 1733.06 1946.06 1733.06 2515.08 1715.06 2515.08ZM1770.06 2168.07 1787.06 2168.07 1787.06 2515.08 1770.06 2515.08ZM1825.06 2041.07 1842.06 2041.07 1842.06 2515.08 1825.06 2515.08ZM1879.06 2121.07 1897.06 2121.07 1897.06 2515.08 1879.06 2515.08ZM1934.06 2158.07 1951.06 2158.07 1951.06 2515.08 1934.06 2515.08ZM1989.07 2078.07 2006.07 2078.07 2006.07 2515.08 1989.07 2515.08ZM2043.07 2326.08 2061.07 2326.08 2061.07 2515.08 2043.07 2515.08ZM2098.07 2147.07 2115.07 2147.07 2115.07 2515.08 2098.07 2515.08ZM2153.07 2101.07 2170.07 2101.07 2170.07 2515.08 2153.07 2515.08ZM2207.07 2071.07 2225.07 2071.07 2225.07 2515.08 2207.07 2515.08ZM2262.07 2262.07 2279.07 2262.07 2279.07 2515.08 2262.07 2515.08ZM2317.08 1961.06 2334.08 1961.06 2334.08 2515.08 2317.08 2515.08ZM2371.08 2256.07 2389.08 2256.07 2389.08 2515.08 2371.08 2515.08ZM2426.08 2258.07 2443.08 2258.07 2443.08 2515.08 2426.08 2515.08ZM2481.08 2203.07 2498.08 2203.07 2498.08 2515.08 2481.08 2515.08ZM2535.08 2084.07 2552.08 2084.07 2552.08 2515.08 2535.08 2515.08ZM2590.08 2191.07 2607.09 2191.07 2607.09 2515.08 2590.08 2515.08ZM2645.09 2233.07 2662.09 2233.07 2662.09 2515.08 2645.09 2515.08ZM2699.09 2138.07 2716.09 2138.07 2716.09 2515.08 2699.09 2515.08ZM2754.09 2139.07 2771.09 2139.07 2771.09 2515.08 2754.09 2515.08ZM2809.09 1981.07 2826.09 1981.07 2826.09 2515.08 2809.09 2515.08ZM2863.09 2281.07 2880.09 2281.07 2880.09 2515.08 2863.09 2515.08ZM2918.1 2179.07 2935.1 2179.07 2935.1 2515.08 2918.1 2515.08ZM2973.1 2021.07 2990.1 2021.07 2990.1 2515.08 2973.1 2515.08ZM3027.1 2110.07 3044.1 2110.07 3044.1 2515.08 3027.1 2515.08ZM3082.1 2094.07 3099.1 2094.07 3099.1 2515.08 3082.1 2515.08ZM3137.1 2164.07 3154.1 2164.07 3154.1 2515.08 3137.1 2515.08Z" fill="#156082"/></g><g><path d="M1221.5 2268.5 1242.5 2268.5M1221.5 2268.5 1242.5 2268.5" stroke="#595959" stroke-width="3.4375" stroke-linejoin="round" stroke-miterlimit="10" fill="none"/></g><g><path d="M1286.54 1703.56 1286.54 1707.5M1286.54 1703.56 1286.54 1698.5M1276.5 1707.5 1297.5 1707.5M1276.5 1698.5 1297.5 1698.5" stroke="#595959" stroke-width="3.4375" stroke-linejoin="round" stroke-miterlimit="10" fill="none"/></g><g><path d="M1341.54 2405.58 1341.54 2411.5M1341.54 2405.58 1341.54 2399.5M1331.5 2411.5 1351.5 2411.5M1331.5 2399.5 1351.5 2399.5" stroke="#595959" stroke-width="3.4375" stroke-linejoin="round" stroke-miterlimit="10" fill="none"/></g><g><path d="M1396.55 1828.56 1396.55 1854.5M1396.55 1828.56 1396.55 1801.5M1385.5 1854.5 1406.5 1854.5M1385.5 1801.5 1406.5 1801.5" stroke="#595959" stroke-width="3.4375" stroke-linejoin="round" stroke-miterlimit="10" fill="none"/></g><g><path d="M1450.55 2515.58 1450.55 2518.5M1450.55 2515.58 1450.55 2511.5M1440.5 2518.5 1461.5 2518.5M1440.5 2511.5 1461.5 2511.5" stroke="#595959" stroke-width="3.4375" stroke-linejoin="round" stroke-miterlimit="10" fill="none"/></g><g><path d="M1505.55 2091.57 1505.55 2146.5M1505.55 2091.57 1505.55 2036.5M1495.5 2146.5 1515.5 2146.5M1495.5 2036.5 1515.5 2036.5" stroke="#595959" stroke-width="3.4375" stroke-linejoin="round" stroke-miterlimit="10" fill="none"/></g><g><path d="M1549.5 2157.5 1570.5 2157.5M1549.5 2157.5 1570.5 2157.5" stroke="#595959" stroke-width="3.4375" stroke-linejoin="round" stroke-miterlimit="10" fill="none"/></g><g><path d="M1614.55 2129.57 1614.55 2143.5M1614.55 2129.57 1614.55 2115.5M1604.5 2143.5 1625.5 2143.5M1604.5 2115.5 1625.5 2115.5" stroke="#595959" stroke-width="3.4375" stroke-linejoin="round" stroke-miterlimit="10" fill="none"/></g><g><path d="M1669.55 2001.57 1669.55 2015.5M1669.55 2001.57 1669.55 1988.5M1659.5 2015.5 1679.5 2015.5M1659.5 1988.5 1679.5 1988.5" stroke="#595959" stroke-width="3.4375" stroke-linejoin="round" stroke-miterlimit="10" fill="none"/></g><g><path d="M1724.56 1945.56 1724.56 1958.5M1724.56 1945.56 1724.56 1933.5M1713.5 1958.5 1734.5 1958.5M1713.5 1933.5 1734.5 1933.5" stroke="#595959" stroke-width="3.4375" stroke-linejoin="round" stroke-miterlimit="10" fill="none"/></g><g><path d="M1778.56 2168.57 1778.56 2183.5M1778.56 2168.57 1778.56 2153.5M1768.5 2183.5 1789.5 2183.5M1768.5 2153.5 1789.5 2153.5" stroke="#595959" stroke-width="3.4375" stroke-linejoin="round" stroke-miterlimit="10" fill="none"/></g><g><path d="M1833.56 2040.57 1833.56 2054.5M1833.56 2040.57 1833.56 2026.5M1823.5 2054.5 1843.5 2054.5M1823.5 2026.5 1843.5 2026.5" stroke="#595959" stroke-width="3.4375" stroke-linejoin="round" stroke-miterlimit="10" fill="none"/></g><g><path d="M1888.56 2120.57 1888.56 2133.5M1888.56 2120.57 1888.56 2108.5M1877.5 2133.5 1898.5 2133.5M1877.5 2108.5 1898.5 2108.5" stroke="#595959" stroke-width="3.4375" stroke-linejoin="round" stroke-miterlimit="10" fill="none"/></g><g><path d="M1942.56 2157.57 1942.56 2181.5M1942.56 2157.57 1942.56 2134.5M1932.5 2181.5 1953.5 2181.5M1932.5 2134.5 1953.5 2134.5" stroke="#595959" stroke-width="3.4375" stroke-linejoin="round" stroke-miterlimit="10" fill="none"/></g><g><path d="M1997.57 2077.57 1997.57 2104.5M1997.57 2077.57 1997.57 2050.5M1987.5 2104.5 2007.5 2104.5M1987.5 2050.5 2007.5 2050.5" stroke="#595959" stroke-width="3.4375" stroke-linejoin="round" stroke-miterlimit="10" fill="none"/></g><g><path d="M2051.57 2325.58 2051.57 2339.5M2051.57 2325.58 2051.57 2312.5M2041.5 2339.5 2062.5 2339.5M2041.5 2312.5 2062.5 2312.5" stroke="#595959" stroke-width="3.4375" stroke-linejoin="round" stroke-miterlimit="10" fill="none"/></g><g><path d="M2106.57 2147.57 2106.57 2154.5M2106.57 2147.57 2106.57 2140.5M2096.5 2154.5 2117.5 2154.5M2096.5 2140.5 2117.5 2140.5" stroke="#595959" stroke-width="3.4375" stroke-linejoin="round" stroke-miterlimit="10" fill="none"/></g><g><path d="M2161.57 2100.57 2161.57 2118.5M2161.57 2100.57 2161.57 2083.5M2151.5 2118.5 2171.5 2118.5M2151.5 2083.5 2171.5 2083.5" stroke="#595959" stroke-width="3.4375" stroke-linejoin="round" stroke-miterlimit="10" fill="none"/></g><g><path d="M2215.57 2070.57 2215.57 2074.5M2215.57 2070.57 2215.57 2067.5M2205.5 2074.5 2226.5 2074.5M2205.5 2067.5 2226.5 2067.5" stroke="#595959" stroke-width="3.4375" stroke-linejoin="round" stroke-miterlimit="10" fill="none"/></g><g><path d="M2270.57 2262.57 2270.57 2279.5M2270.57 2262.57 2270.57 2244.5M2260.5 2279.5 2281.5 2279.5M2260.5 2244.5 2281.5 2244.5" stroke="#595959" stroke-width="3.4375" stroke-linejoin="round" stroke-miterlimit="10" fill="none"/></g><g><path d="M2325.58 1960.56 2325.58 1975.5M2325.58 1960.56 2325.58 1946.5M2315.5 1975.5 2335.5 1975.5M2315.5 1946.5 2335.5 1946.5" stroke="#595959" stroke-width="3.4375" stroke-linejoin="round" stroke-miterlimit="10" fill="none"/></g><g><path d="M2379.58 2255.57 2379.58 2260.5M2379.58 2255.57 2379.58 2251.5M2369.5 2260.5 2390.5 2260.5M2369.5 2251.5 2390.5 2251.5" stroke="#595959" stroke-width="3.4375" stroke-linejoin="round" stroke-miterlimit="10" fill="none"/></g><g><path d="M2434.58 2257.57 2434.58 2270.5M2434.58 2257.57 2434.58 2245.5M2424.5 2270.5 2444.5 2270.5M2424.5 2245.5 2444.5 2245.5" stroke="#595959" stroke-width="3.4375" stroke-linejoin="round" stroke-miterlimit="10" fill="none"/></g><g><path d="M2489.58 2203.57 2489.58 2209.5M2489.58 2203.57 2489.58 2197.5M2479.5 2209.5 2499.5 2209.5M2479.5 2197.5 2499.5 2197.5" stroke="#595959" stroke-width="3.4375" stroke-linejoin="round" stroke-miterlimit="10" fill="none"/></g><g><path d="M2543.58 2084.57 2543.58 2090.5M2543.58 2084.57 2543.58 2078.5M2533.5 2090.5 2554.5 2090.5M2533.5 2078.5 2554.5 2078.5" stroke="#595959" stroke-width="3.4375" stroke-linejoin="round" stroke-miterlimit="10" fill="none"/></g><g><path d="M2598.59 2190.57 2598.59 2194.5M2598.59 2190.57 2598.59 2187.5M2588.5 2194.5 2608.5 2194.5M2588.5 2187.5 2608.5 2187.5" stroke="#595959" stroke-width="3.4375" stroke-linejoin="round" stroke-miterlimit="10" fill="none"/></g><g><path d="M2653.59 2233.57 2653.59 2242.5M2653.59 2233.57 2653.59 2224.5M2643.5 2242.5 2663.5 2242.5M2643.5 2224.5 2663.5 2224.5" stroke="#595959" stroke-width="3.4375" stroke-linejoin="round" stroke-miterlimit="10" fill="none"/></g><g><path d="M2707.59 2137.57 2707.59 2149.5M2707.59 2137.57 2707.59 2126.5M2697.5 2149.5 2718.5 2149.5M2697.5 2126.5 2718.5 2126.5" stroke="#595959" stroke-width="3.4375" stroke-linejoin="round" stroke-miterlimit="10" fill="none"/></g><g><path d="M2762.59 2139.57 2762.59 2148.5M2762.59 2139.57 2762.59 2129.5M2752.5 2148.5 2772.5 2148.5M2752.5 2129.5 2772.5 2129.5" stroke="#595959" stroke-width="3.4375" stroke-linejoin="round" stroke-miterlimit="10" fill="none"/></g><g><path d="M2817.59 1981.57 2817.59 1996.5M2817.59 1981.57 2817.59 1966.5M2806.5 1996.5 2827.5 1996.5M2806.5 1966.5 2827.5 1966.5" stroke="#595959" stroke-width="3.4375" stroke-linejoin="round" stroke-miterlimit="10" fill="none"/></g><g><path d="M2871.59 2281.57 2871.59 2291.5M2871.59 2281.57 2871.59 2270.5M2861.5 2291.5 2882.5 2291.5M2861.5 2270.5 2882.5 2270.5" stroke="#595959" stroke-width="3.4375" stroke-linejoin="round" stroke-miterlimit="10" fill="none"/></g><g><path d="M2926.6 2178.57 2926.6 2210.5M2926.6 2178.57 2926.6 2147.5M2916.5 2210.5 2936.5 2210.5M2916.5 2147.5 2936.5 2147.5" stroke="#595959" stroke-width="3.4375" stroke-linejoin="round" stroke-miterlimit="10" fill="none"/></g><g><path d="M2981.6 2021.57 2981.6 2043.5M2981.6 2021.57 2981.6 1998.5M2970.5 2043.5 2991.5 2043.5M2970.5 1998.5 2991.5 1998.5" stroke="#595959" stroke-width="3.4375" stroke-linejoin="round" stroke-miterlimit="10" fill="none"/></g><g><path d="M3035.6 2110.57 3035.6 2123.5M3035.6 2110.57 3035.6 2097.5M3025.5 2123.5 3046.5 2123.5M3025.5 2097.5 3046.5 2097.5" stroke="#595959" stroke-width="3.4375" stroke-linejoin="round" stroke-miterlimit="10" fill="none"/></g><g><path d="M3090.6 2094.57 3090.6 2114.5M3090.6 2094.57 3090.6 2073.5M3080.5 2114.5 3100.5 2114.5M3080.5 2073.5 3100.5 2073.5" stroke="#595959" stroke-width="3.4375" stroke-linejoin="round" stroke-miterlimit="10" fill="none"/></g><g><path d="M3145.6 2163.57 3145.6 2177.5M3145.6 2163.57 3145.6 2150.5M3134.5 2177.5 3155.5 2177.5M3134.5 2150.5 3155.5 2150.5" stroke="#595959" stroke-width="3.4375" stroke-linejoin="round" stroke-miterlimit="10" fill="none"/></g><g><path d="M1150.5 2515.5 3172.5 2515.5" stroke="#D9D9D9" stroke-width="3.4375" stroke-linejoin="round" stroke-miterlimit="10" fill="none" fill-rule="evenodd"/></g><g><text fill="#595959" font-family="Aptos Narrow,Aptos Narrow_MSFontService,sans-serif" font-weight="400" font-stretch="semi-condensed" font-size="41" transform="matrix(1 0 0 1 1057.66 2664)">-20</text></g><g><text fill="#595959" font-family="Aptos Narrow,Aptos Narrow_MSFontService,sans-serif" font-weight="400" font-stretch="semi-condensed" font-size="41" transform="matrix(1 0 0 1 1091.19 2527)">0</text></g><g><text fill="#595959" font-family="Aptos Narrow,Aptos Narrow_MSFontService,sans-serif" font-weight="400" font-stretch="semi-condensed" font-size="41" transform="matrix(1 0 0 1 1070.29 2389)">20</text></g><g><text fill="#595959" font-family="Aptos Narrow,Aptos Narrow_MSFontService,sans-serif" font-weight="400" font-stretch="semi-condensed" font-size="41" transform="matrix(1 0 0 1 1070.29 2252)">40</text></g><g><text fill="#595959" font-family="Aptos Narrow,Aptos Narrow_MSFontService,sans-serif" font-weight="400" font-stretch="semi-condensed" font-size="41" transform="matrix(1 0 0 1 1070.29 2115)">60</text></g><g><text fill="#595959" font-family="Aptos Narrow,Aptos Narrow_MSFontService,sans-serif" font-weight="400" font-stretch="semi-condensed" font-size="41" transform="matrix(1 0 0 1 1070.29 1977)">80</text></g><g><text fill="#595959" font-family="Aptos Narrow,Aptos Narrow_MSFontService,sans-serif" font-weight="400" font-stretch="semi-condensed" font-size="41" transform="matrix(1 0 0 1 1049.39 1840)">100</text></g><g><text fill="#595959" font-family="Aptos Narrow,Aptos Narrow_MSFontService,sans-serif" font-weight="400" font-stretch="semi-condensed" font-size="41" transform="matrix(1 0 0 1 1049.39 1702)">120</text></g><g><text fill="#595959" font-family="Aptos Narrow,Aptos Narrow_MSFontService,sans-serif" font-weight="400" font-stretch="semi-condensed" font-size="41" transform="matrix(1 0 0 1 1049.39 1565)">140</text></g><g><text fill="#595959" font-family="Aptos Narrow,Aptos Narrow_MSFontService,sans-serif" font-weight="400" font-stretch="semi-condensed" font-size="41" transform="matrix(6.12323e-17 -1 1 6.12323e-17 1191.33 2610)">1G2</text></g><g><text fill="#595959" font-family="Aptos Narrow,Aptos Narrow_MSFontService,sans-serif" font-weight="400" font-stretch="semi-condensed" font-size="41" transform="matrix(6.12323e-17 -1 1 6.12323e-17 1245.98 2624)">2F12</text></g><g><text fill="#595959" font-family="Aptos Narrow,Aptos Narrow_MSFontService,sans-serif" font-weight="400" font-stretch="semi-condensed" font-size="41" transform="matrix(6.12323e-17 -1 1 6.12323e-17 1300.65 2631)">2H11</text></g><g><text fill="#595959" font-family="Aptos Narrow,Aptos Narrow_MSFontService,sans-serif" font-weight="400" font-stretch="semi-condensed" font-size="41" transform="matrix(6.12323e-17 -1 1 6.12323e-17 1355.3 2620)">G83I</text></g><g><text fill="#595959" font-family="Aptos Narrow,Aptos Narrow_MSFontService,sans-serif" font-weight="400" font-stretch="semi-condensed" font-size="41" transform="matrix(6.12323e-17 -1 1 6.12323e-17 1409.96 2609)">Gpa</text></g><g><text fill="#595959" font-family="Aptos Narrow,Aptos Narrow_MSFontService,sans-serif" font-weight="400" font-stretch="semi-condensed" font-size="41" transform="matrix(6.12323e-17 -1 1 6.12323e-17 1464.62 2636)">NoTM</text></g><g><text fill="#595959" font-family="Aptos Narrow,Aptos Narrow_MSFontService,sans-serif" font-weight="400" font-stretch="semi-condensed" font-size="41" transform="matrix(6.12323e-17 -1 1 6.12323e-17 1519.28 2581)">L4</text></g><g><text fill="#595959" font-family="Aptos Narrow,Aptos Narrow_MSFontService,sans-serif" font-weight="400" font-stretch="semi-condensed" font-size="41" transform="matrix(6.12323e-17 -1 1 6.12323e-17 1573.94 2628)">LD23</text></g><g><text fill="#595959" font-family="Aptos Narrow,Aptos Narrow_MSFontService,sans-serif" font-weight="400" font-stretch="semi-condensed" font-size="41" transform="matrix(6.12323e-17 -1 1 6.12323e-17 1628.6 2607)">LC9</text></g><g><text fill="#595959" font-family="Aptos Narrow,Aptos Narrow_MSFontService,sans-serif" font-weight="400" font-stretch="semi-condensed" font-size="41" transform="matrix(6.12323e-17 -1 1 6.12323e-17 1683.26 2632)">LWT3</text></g><g><text fill="#595959" font-family="Aptos Narrow,Aptos Narrow_MSFontService,sans-serif" font-weight="400" font-stretch="semi-condensed" font-size="41" transform="matrix(6.12323e-17 -1 1 6.12323e-17 1737.92 2628)">LD21</text></g><g><text fill="#595959" font-family="Aptos Narrow,Aptos Narrow_MSFontService,sans-serif" font-weight="400" font-stretch="semi-condensed" font-size="41" transform="matrix(6.12323e-17 -1 1 6.12323e-17 1792.58 2607)">LC2</text></g><g><text fill="#595959" font-family="Aptos Narrow,Aptos Narrow_MSFontService,sans-serif" font-weight="400" font-stretch="semi-condensed" font-size="41" transform="matrix(6.12323e-17 -1 1 6.12323e-17 1847.24 2581)">L8</text></g><g><text fill="#595959" font-family="Aptos Narrow,Aptos Narrow_MSFontService,sans-serif" font-weight="400" font-stretch="semi-condensed" font-size="41" transform="matrix(6.12323e-17 -1 1 6.12323e-17 1901.9 2607)">LD9</text></g><g><text fill="#595959" font-family="Aptos Narrow,Aptos Narrow_MSFontService,sans-serif" font-weight="400" font-stretch="semi-condensed" font-size="41" transform="matrix(6.12323e-17 -1 1 6.12323e-17 1956.56 2607)">LC4</text></g><g><text fill="#595959" font-family="Aptos Narrow,Aptos Narrow_MSFontService,sans-serif" font-weight="400" font-stretch="semi-condensed" font-size="41" transform="matrix(6.12323e-17 -1 1 6.12323e-17 2011.22 2657)">RWT34</text></g><g><text fill="#595959" font-family="Aptos Narrow,Aptos Narrow_MSFontService,sans-serif" font-weight="400" font-stretch="semi-condensed" font-size="41" transform="matrix(6.12323e-17 -1 1 6.12323e-17 2065.88 2632)">RD17</text></g><g><text fill="#595959" font-family="Aptos Narrow,Aptos Narrow_MSFontService,sans-serif" font-weight="400" font-stretch="semi-condensed" font-size="41" transform="matrix(6.12323e-17 -1 1 6.12323e-17 2120.54 2611)">RC8</text></g><g><text fill="#595959" font-family="Aptos Narrow,Aptos Narrow_MSFontService,sans-serif" font-weight="400" font-stretch="semi-condensed" font-size="41" transform="matrix(6.12323e-17 -1 1 6.12323e-17 2175.2 2657)">RWT40</text></g><g><text fill="#595959" font-family="Aptos Narrow,Aptos Narrow_MSFontService,sans-serif" font-weight="400" font-stretch="semi-condensed" font-size="41" transform="matrix(6.12323e-17 -1 1 6.12323e-17 2229.86 2632)">RD52</text></g><g><text fill="#595959" font-family="Aptos Narrow,Aptos Narrow_MSFontService,sans-serif" font-weight="400" font-stretch="semi-condensed" font-size="41" transform="matrix(6.12323e-17 -1 1 6.12323e-17 2284.52 2611)">RC1</text></g><g><text fill="#595959" font-family="Aptos Narrow,Aptos Narrow_MSFontService,sans-serif" font-weight="400" font-stretch="semi-condensed" font-size="41" transform="matrix(6.12323e-17 -1 1 6.12323e-17 2339.18 2637)">RWT3</text></g><g><text fill="#595959" font-family="Aptos Narrow,Aptos Narrow_MSFontService,sans-serif" font-weight="400" font-stretch="semi-condensed" font-size="41" transform="matrix(6.12323e-17 -1 1 6.12323e-17 2393.84 2611)">RD2</text></g><g><text fill="#595959" font-family="Aptos Narrow,Aptos Narrow_MSFontService,sans-serif" font-weight="400" font-stretch="semi-condensed" font-size="41" transform="matrix(6.12323e-17 -1 1 6.12323e-17 2448.5 2632)">RC11</text></g><g><text fill="#595959" font-family="Aptos Narrow,Aptos Narrow_MSFontService,sans-serif" font-weight="400" font-stretch="semi-condensed" font-size="41" transform="matrix(6.12323e-17 -1 1 6.12323e-17 2503.16 2613)">M18</text></g><g><text fill="#595959" font-family="Aptos Narrow,Aptos Narrow_MSFontService,sans-serif" font-weight="400" font-stretch="semi-condensed" font-size="41" transform="matrix(6.12323e-17 -1 1 6.12323e-17 2557.82 2657)">RWT39</text></g><g><text fill="#595959" font-family="Aptos Narrow,Aptos Narrow_MSFontService,sans-serif" font-weight="400" font-stretch="semi-condensed" font-size="41" transform="matrix(6.12323e-17 -1 1 6.12323e-17 2612.48 2632)">RD39</text></g><g><text fill="#595959" font-family="Aptos Narrow,Aptos Narrow_MSFontService,sans-serif" font-weight="400" font-stretch="semi-condensed" font-size="41" transform="matrix(6.12323e-17 -1 1 6.12323e-17 2667.14 2611)">RC2</text></g><g><text fill="#595959" font-family="Aptos Narrow,Aptos Narrow_MSFontService,sans-serif" font-weight="400" font-stretch="semi-condensed" font-size="41" transform="matrix(6.12323e-17 -1 1 6.12323e-17 2721.8 2602)">YF9</text></g><g><text fill="#595959" font-family="Aptos Narrow,Aptos Narrow_MSFontService,sans-serif" font-weight="400" font-stretch="semi-condensed" font-size="41" transform="matrix(6.12323e-17 -1 1 6.12323e-17 2776.46 2657)">RWT38</text></g><g><text fill="#595959" font-family="Aptos Narrow,Aptos Narrow_MSFontService,sans-serif" font-weight="400" font-stretch="semi-condensed" font-size="41" transform="matrix(6.12323e-17 -1 1 6.12323e-17 2831.12 2611)">RD3</text></g><g><text fill="#595959" font-family="Aptos Narrow,Aptos Narrow_MSFontService,sans-serif" font-weight="400" font-stretch="semi-condensed" font-size="41" transform="matrix(6.12323e-17 -1 1 6.12323e-17 2885.78 2613)">M17</text></g><g><text fill="#595959" font-family="Aptos Narrow,Aptos Narrow_MSFontService,sans-serif" font-weight="400" font-stretch="semi-condensed" font-size="41" transform="matrix(6.12323e-17 -1 1 6.12323e-17 2940.44 2602)">YF3</text></g><g><text fill="#595959" font-family="Aptos Narrow,Aptos Narrow_MSFontService,sans-serif" font-weight="400" font-stretch="semi-condensed" font-size="41" transform="matrix(6.12323e-17 -1 1 6.12323e-17 2995.1 2613)">M27</text></g><g><text fill="#595959" font-family="Aptos Narrow,Aptos Narrow_MSFontService,sans-serif" font-weight="400" font-stretch="semi-condensed" font-size="41" transform="matrix(6.12323e-17 -1 1 6.12323e-17 3049.76 2632)">RD53</text></g><g><text fill="#595959" font-family="Aptos Narrow,Aptos Narrow_MSFontService,sans-serif" font-weight="400" font-stretch="semi-condensed" font-size="41" transform="matrix(6.12323e-17 -1 1 6.12323e-17 3104.42 2611)">RC6</text></g><g><text fill="#595959" font-family="Aptos Narrow,Aptos Narrow_MSFontService,sans-serif" font-weight="400" font-stretch="semi-condensed" font-size="41" transform="matrix(6.12323e-17 -1 1 6.12323e-17 3159.08 2602)">YF7</text></g><g><text fill="#595959" font-family="Aptos Narrow,Aptos Narrow_MSFontService,sans-serif" font-weight="400" font-stretch="semi-condensed" font-size="64" transform="matrix(1 0 0 1 1963.23 1478)">Percent GpA</text></g><rect x="1020.5" y="1383.5" width="2203" height="1320" stroke="#D9D9D9" stroke-width="3.4375" stroke-linejoin="round" stroke-miterlimit="10" fill="none"/></g></svg>