<?xml version="1.0" encoding="utf-8" standalone="no"?>
<!DOCTYPE svg PUBLIC "-//W3C//DTD SVG 1.1//EN"
  "http://www.w3.org/Graphics/SVG/1.1/DTD/svg11.dtd">
<svg xmlns:xlink="http://www.w3.org/1999/xlink" width="460.8pt" height="345.6pt" viewBox="0 0 460.8 345.6" xmlns="http://www.w3.org/2000/svg" version="1.1">
 <metadata>
  <rdf:RDF xmlns:dc="http://purl.org/dc/elements/1.1/" xmlns:cc="http://creativecommons.org/ns#" xmlns:rdf="http://www.w3.org/1999/02/22-rdf-syntax-ns#">
   <cc:Work>
    <dc:type rdf:resource="http://purl.org/dc/dcmitype/StillImage"/>
    <dc:date>2024-06-14T16:06:50.767181</dc:date>
    <dc:format>image/svg+xml</dc:format>
    <dc:creator>
     <cc:Agent>
      <dc:title>Matplotlib v3.5.3, https://matplotlib.org/</dc:title>
     </cc:Agent>
    </dc:creator>
   </cc:Work>
  </rdf:RDF>
 </metadata>
 <defs>
  <style type="text/css">*{stroke-linejoin: round; stroke-linecap: butt}</style>
 </defs>
 <g id="figure_1">
  <g id="patch_1">
   <path d="M 0 345.6 
L 460.8 345.6 
L 460.8 0 
L 0 0 
z
" style="fill: #ffffff"/>
  </g>
  <g id="axes_1">
   <g id="patch_2">
    <path d="M 63.57125 303.64 
L 450 303.64 
L 450 13.456418 
L 63.57125 13.456418 
z
" style="fill: #ffffff"/>
   </g>
   <g id="matplotlib.axis_1">
    <g id="xtick_1">
     <g id="text_1">
      <!-- A -->
      <g style="fill: #262626" transform="translate(156.758125 318.238437)scale(0.1 -0.1)">
       <defs>
        <path id="DejaVuSans-41" d="M 2188 4044 
L 1331 1722 
L 3047 1722 
L 2188 4044 
z
M 1831 4666 
L 2547 4666 
L 4325 0 
L 3669 0 
L 3244 1197 
L 1141 1197 
L 716 0 
L 50 0 
L 1831 4666 
z
" transform="scale(0.015625)"/>
       </defs>
       <use xlink:href="#DejaVuSans-41"/>
      </g>
     </g>
    </g>
    <g id="xtick_2">
     <g id="text_2">
      <!-- G -->
      <g style="fill: #262626" transform="translate(349.518594 318.238437)scale(0.1 -0.1)">
       <defs>
        <path id="DejaVuSans-47" d="M 3809 666 
L 3809 1919 
L 2778 1919 
L 2778 2438 
L 4434 2438 
L 4434 434 
Q 4069 175 3628 42 
Q 3188 -91 2688 -91 
Q 1594 -91 976 548 
Q 359 1188 359 2328 
Q 359 3472 976 4111 
Q 1594 4750 2688 4750 
Q 3144 4750 3555 4637 
Q 3966 4525 4313 4306 
L 4313 3634 
Q 3963 3931 3569 4081 
Q 3175 4231 2741 4231 
Q 1884 4231 1454 3753 
Q 1025 3275 1025 2328 
Q 1025 1384 1454 906 
Q 1884 428 2741 428 
Q 3075 428 3337 486 
Q 3600 544 3809 666 
z
" transform="scale(0.015625)"/>
       </defs>
       <use xlink:href="#DejaVuSans-47"/>
      </g>
     </g>
    </g>
    <g id="text_3">
     <!-- WT_AA -->
     <g style="fill: #262626" transform="translate(239.309844 331.638437)scale(0.1 -0.1)">
      <defs>
       <path id="DejaVuSans-57" d="M 213 4666 
L 850 4666 
L 1831 722 
L 2809 4666 
L 3519 4666 
L 4500 722 
L 5478 4666 
L 6119 4666 
L 4947 0 
L 4153 0 
L 3169 4050 
L 2175 0 
L 1381 0 
L 213 4666 
z
" transform="scale(0.015625)"/>
       <path id="DejaVuSans-54" d="M -19 4666 
L 3928 4666 
L 3928 4134 
L 2272 4134 
L 2272 0 
L 1638 0 
L 1638 4134 
L -19 4134 
L -19 4666 
z
" transform="scale(0.015625)"/>
       <path id="DejaVuSans-5f" d="M 3263 -1063 
L 3263 -1509 
L -63 -1509 
L -63 -1063 
L 3263 -1063 
z
" transform="scale(0.015625)"/>
      </defs>
      <use xlink:href="#DejaVuSans-57"/>
      <use xlink:href="#DejaVuSans-54" x="98.876953"/>
      <use xlink:href="#DejaVuSans-5f" x="159.960938"/>
      <use xlink:href="#DejaVuSans-41" x="209.960938"/>
      <use xlink:href="#DejaVuSans-41" x="281.119141"/>
     </g>
    </g>
   </g>
   <g id="matplotlib.axis_2">
    <g id="ytick_1">
     <g id="line2d_1">
      <path d="M 63.57125 303.64 
L 450 303.64 
" clip-path="url(#p3b36a87cba)" style="fill: none; stroke: #cccccc; stroke-width: 0.8; stroke-linecap: round"/>
     </g>
     <g id="text_4">
      <!-- 0 -->
      <g style="fill: #262626" transform="translate(50.20875 307.439219)scale(0.1 -0.1)">
       <defs>
        <path id="DejaVuSans-30" d="M 2034 4250 
Q 1547 4250 1301 3770 
Q 1056 3291 1056 2328 
Q 1056 1369 1301 889 
Q 1547 409 2034 409 
Q 2525 409 2770 889 
Q 3016 1369 3016 2328 
Q 3016 3291 2770 3770 
Q 2525 4250 2034 4250 
z
M 2034 4750 
Q 2819 4750 3233 4129 
Q 3647 3509 3647 2328 
Q 3647 1150 3233 529 
Q 2819 -91 2034 -91 
Q 1250 -91 836 529 
Q 422 1150 422 2328 
Q 422 3509 836 4129 
Q 1250 4750 2034 4750 
z
" transform="scale(0.015625)"/>
       </defs>
       <use xlink:href="#DejaVuSans-30"/>
      </g>
     </g>
    </g>
    <g id="ytick_2">
     <g id="line2d_2">
      <path d="M 63.57125 262.47594 
L 450 262.47594 
" clip-path="url(#p3b36a87cba)" style="fill: none; stroke: #cccccc; stroke-width: 0.8; stroke-linecap: round"/>
     </g>
     <g id="text_5">
      <!-- 5000 -->
      <g style="fill: #262626" transform="translate(31.12125 266.275159)scale(0.1 -0.1)">
       <defs>
        <path id="DejaVuSans-35" d="M 691 4666 
L 3169 4666 
L 3169 4134 
L 1269 4134 
L 1269 2991 
Q 1406 3038 1543 3061 
Q 1681 3084 1819 3084 
Q 2600 3084 3056 2656 
Q 3513 2228 3513 1497 
Q 3513 744 3044 326 
Q 2575 -91 1722 -91 
Q 1428 -91 1123 -41 
Q 819 9 494 109 
L 494 744 
Q 775 591 1075 516 
Q 1375 441 1709 441 
Q 2250 441 2565 725 
Q 2881 1009 2881 1497 
Q 2881 1984 2565 2268 
Q 2250 2553 1709 2553 
Q 1456 2553 1204 2497 
Q 953 2441 691 2322 
L 691 4666 
z
" transform="scale(0.015625)"/>
       </defs>
       <use xlink:href="#DejaVuSans-35"/>
       <use xlink:href="#DejaVuSans-30" x="63.623047"/>
       <use xlink:href="#DejaVuSans-30" x="127.246094"/>
       <use xlink:href="#DejaVuSans-30" x="190.869141"/>
      </g>
     </g>
    </g>
    <g id="ytick_3">
     <g id="line2d_3">
      <path d="M 63.57125 221.31188 
L 450 221.31188 
" clip-path="url(#p3b36a87cba)" style="fill: none; stroke: #cccccc; stroke-width: 0.8; stroke-linecap: round"/>
     </g>
     <g id="text_6">
      <!-- 10000 -->
      <g style="fill: #262626" transform="translate(24.75875 225.111099)scale(0.1 -0.1)">
       <defs>
        <path id="DejaVuSans-31" d="M 794 531 
L 1825 531 
L 1825 4091 
L 703 3866 
L 703 4441 
L 1819 4666 
L 2450 4666 
L 2450 531 
L 3481 531 
L 3481 0 
L 794 0 
L 794 531 
z
" transform="scale(0.015625)"/>
       </defs>
       <use xlink:href="#DejaVuSans-31"/>
       <use xlink:href="#DejaVuSans-30" x="63.623047"/>
       <use xlink:href="#DejaVuSans-30" x="127.246094"/>
       <use xlink:href="#DejaVuSans-30" x="190.869141"/>
       <use xlink:href="#DejaVuSans-30" x="254.492188"/>
      </g>
     </g>
    </g>
    <g id="ytick_4">
     <g id="line2d_4">
      <path d="M 63.57125 180.14782 
L 450 180.14782 
" clip-path="url(#p3b36a87cba)" style="fill: none; stroke: #cccccc; stroke-width: 0.8; stroke-linecap: round"/>
     </g>
     <g id="text_7">
      <!-- 15000 -->
      <g style="fill: #262626" transform="translate(24.75875 183.947039)scale(0.1 -0.1)">
       <use xlink:href="#DejaVuSans-31"/>
       <use xlink:href="#DejaVuSans-35" x="63.623047"/>
       <use xlink:href="#DejaVuSans-30" x="127.246094"/>
       <use xlink:href="#DejaVuSans-30" x="190.869141"/>
       <use xlink:href="#DejaVuSans-30" x="254.492188"/>
      </g>
     </g>
    </g>
    <g id="ytick_5">
     <g id="line2d_5">
      <path d="M 63.57125 138.98376 
L 450 138.98376 
" clip-path="url(#p3b36a87cba)" style="fill: none; stroke: #cccccc; stroke-width: 0.8; stroke-linecap: round"/>
     </g>
     <g id="text_8">
      <!-- 20000 -->
      <g style="fill: #262626" transform="translate(24.75875 142.782979)scale(0.1 -0.1)">
       <defs>
        <path id="DejaVuSans-32" d="M 1228 531 
L 3431 531 
L 3431 0 
L 469 0 
L 469 531 
Q 828 903 1448 1529 
Q 2069 2156 2228 2338 
Q 2531 2678 2651 2914 
Q 2772 3150 2772 3378 
Q 2772 3750 2511 3984 
Q 2250 4219 1831 4219 
Q 1534 4219 1204 4116 
Q 875 4013 500 3803 
L 500 4441 
Q 881 4594 1212 4672 
Q 1544 4750 1819 4750 
Q 2544 4750 2975 4387 
Q 3406 4025 3406 3419 
Q 3406 3131 3298 2873 
Q 3191 2616 2906 2266 
Q 2828 2175 2409 1742 
Q 1991 1309 1228 531 
z
" transform="scale(0.015625)"/>
       </defs>
       <use xlink:href="#DejaVuSans-32"/>
       <use xlink:href="#DejaVuSans-30" x="63.623047"/>
       <use xlink:href="#DejaVuSans-30" x="127.246094"/>
       <use xlink:href="#DejaVuSans-30" x="190.869141"/>
       <use xlink:href="#DejaVuSans-30" x="254.492188"/>
      </g>
     </g>
    </g>
    <g id="ytick_6">
     <g id="line2d_6">
      <path d="M 63.57125 97.8197 
L 450 97.8197 
" clip-path="url(#p3b36a87cba)" style="fill: none; stroke: #cccccc; stroke-width: 0.8; stroke-linecap: round"/>
     </g>
     <g id="text_9">
      <!-- 25000 -->
      <g style="fill: #262626" transform="translate(24.75875 101.618919)scale(0.1 -0.1)">
       <use xlink:href="#DejaVuSans-32"/>
       <use xlink:href="#DejaVuSans-35" x="63.623047"/>
       <use xlink:href="#DejaVuSans-30" x="127.246094"/>
       <use xlink:href="#DejaVuSans-30" x="190.869141"/>
       <use xlink:href="#DejaVuSans-30" x="254.492188"/>
      </g>
     </g>
    </g>
    <g id="ytick_7">
     <g id="line2d_7">
      <path d="M 63.57125 56.65564 
L 450 56.65564 
" clip-path="url(#p3b36a87cba)" style="fill: none; stroke: #cccccc; stroke-width: 0.8; stroke-linecap: round"/>
     </g>
     <g id="text_10">
      <!-- 30000 -->
      <g style="fill: #262626" transform="translate(24.75875 60.454859)scale(0.1 -0.1)">
       <defs>
        <path id="DejaVuSans-33" d="M 2597 2516 
Q 3050 2419 3304 2112 
Q 3559 1806 3559 1356 
Q 3559 666 3084 287 
Q 2609 -91 1734 -91 
Q 1441 -91 1130 -33 
Q 819 25 488 141 
L 488 750 
Q 750 597 1062 519 
Q 1375 441 1716 441 
Q 2309 441 2620 675 
Q 2931 909 2931 1356 
Q 2931 1769 2642 2001 
Q 2353 2234 1838 2234 
L 1294 2234 
L 1294 2753 
L 1863 2753 
Q 2328 2753 2575 2939 
Q 2822 3125 2822 3475 
Q 2822 3834 2567 4026 
Q 2313 4219 1838 4219 
Q 1578 4219 1281 4162 
Q 984 4106 628 3988 
L 628 4550 
Q 988 4650 1302 4700 
Q 1616 4750 1894 4750 
Q 2613 4750 3031 4423 
Q 3450 4097 3450 3541 
Q 3450 3153 3228 2886 
Q 3006 2619 2597 2516 
z
" transform="scale(0.015625)"/>
       </defs>
       <use xlink:href="#DejaVuSans-33"/>
       <use xlink:href="#DejaVuSans-30" x="63.623047"/>
       <use xlink:href="#DejaVuSans-30" x="127.246094"/>
       <use xlink:href="#DejaVuSans-30" x="190.869141"/>
       <use xlink:href="#DejaVuSans-30" x="254.492188"/>
      </g>
     </g>
    </g>
    <g id="ytick_8">
     <g id="line2d_8">
      <path d="M 63.57125 15.49158 
L 450 15.49158 
" clip-path="url(#p3b36a87cba)" style="fill: none; stroke: #cccccc; stroke-width: 0.8; stroke-linecap: round"/>
     </g>
     <g id="text_11">
      <!-- 35000 -->
      <g style="fill: #262626" transform="translate(24.75875 19.290799)scale(0.1 -0.1)">
       <use xlink:href="#DejaVuSans-33"/>
       <use xlink:href="#DejaVuSans-35" x="63.623047"/>
       <use xlink:href="#DejaVuSans-30" x="127.246094"/>
       <use xlink:href="#DejaVuSans-30" x="190.869141"/>
       <use xlink:href="#DejaVuSans-30" x="254.492188"/>
      </g>
     </g>
    </g>
    <g id="text_12">
     <!-- toxgreen_fluor -->
     <g style="fill: #262626" transform="translate(18.400937 194.74274)rotate(-90)scale(0.1 -0.1)">
      <defs>
       <path id="DejaVuSans-74" d="M 1172 4494 
L 1172 3500 
L 2356 3500 
L 2356 3053 
L 1172 3053 
L 1172 1153 
Q 1172 725 1289 603 
Q 1406 481 1766 481 
L 2356 481 
L 2356 0 
L 1766 0 
Q 1100 0 847 248 
Q 594 497 594 1153 
L 594 3053 
L 172 3053 
L 172 3500 
L 594 3500 
L 594 4494 
L 1172 4494 
z
" transform="scale(0.015625)"/>
       <path id="DejaVuSans-6f" d="M 1959 3097 
Q 1497 3097 1228 2736 
Q 959 2375 959 1747 
Q 959 1119 1226 758 
Q 1494 397 1959 397 
Q 2419 397 2687 759 
Q 2956 1122 2956 1747 
Q 2956 2369 2687 2733 
Q 2419 3097 1959 3097 
z
M 1959 3584 
Q 2709 3584 3137 3096 
Q 3566 2609 3566 1747 
Q 3566 888 3137 398 
Q 2709 -91 1959 -91 
Q 1206 -91 779 398 
Q 353 888 353 1747 
Q 353 2609 779 3096 
Q 1206 3584 1959 3584 
z
" transform="scale(0.015625)"/>
       <path id="DejaVuSans-78" d="M 3513 3500 
L 2247 1797 
L 3578 0 
L 2900 0 
L 1881 1375 
L 863 0 
L 184 0 
L 1544 1831 
L 300 3500 
L 978 3500 
L 1906 2253 
L 2834 3500 
L 3513 3500 
z
" transform="scale(0.015625)"/>
       <path id="DejaVuSans-67" d="M 2906 1791 
Q 2906 2416 2648 2759 
Q 2391 3103 1925 3103 
Q 1463 3103 1205 2759 
Q 947 2416 947 1791 
Q 947 1169 1205 825 
Q 1463 481 1925 481 
Q 2391 481 2648 825 
Q 2906 1169 2906 1791 
z
M 3481 434 
Q 3481 -459 3084 -895 
Q 2688 -1331 1869 -1331 
Q 1566 -1331 1297 -1286 
Q 1028 -1241 775 -1147 
L 775 -588 
Q 1028 -725 1275 -790 
Q 1522 -856 1778 -856 
Q 2344 -856 2625 -561 
Q 2906 -266 2906 331 
L 2906 616 
Q 2728 306 2450 153 
Q 2172 0 1784 0 
Q 1141 0 747 490 
Q 353 981 353 1791 
Q 353 2603 747 3093 
Q 1141 3584 1784 3584 
Q 2172 3584 2450 3431 
Q 2728 3278 2906 2969 
L 2906 3500 
L 3481 3500 
L 3481 434 
z
" transform="scale(0.015625)"/>
       <path id="DejaVuSans-72" d="M 2631 2963 
Q 2534 3019 2420 3045 
Q 2306 3072 2169 3072 
Q 1681 3072 1420 2755 
Q 1159 2438 1159 1844 
L 1159 0 
L 581 0 
L 581 3500 
L 1159 3500 
L 1159 2956 
Q 1341 3275 1631 3429 
Q 1922 3584 2338 3584 
Q 2397 3584 2469 3576 
Q 2541 3569 2628 3553 
L 2631 2963 
z
" transform="scale(0.015625)"/>
       <path id="DejaVuSans-65" d="M 3597 1894 
L 3597 1613 
L 953 1613 
Q 991 1019 1311 708 
Q 1631 397 2203 397 
Q 2534 397 2845 478 
Q 3156 559 3463 722 
L 3463 178 
Q 3153 47 2828 -22 
Q 2503 -91 2169 -91 
Q 1331 -91 842 396 
Q 353 884 353 1716 
Q 353 2575 817 3079 
Q 1281 3584 2069 3584 
Q 2775 3584 3186 3129 
Q 3597 2675 3597 1894 
z
M 3022 2063 
Q 3016 2534 2758 2815 
Q 2500 3097 2075 3097 
Q 1594 3097 1305 2825 
Q 1016 2553 972 2059 
L 3022 2063 
z
" transform="scale(0.015625)"/>
       <path id="DejaVuSans-6e" d="M 3513 2113 
L 3513 0 
L 2938 0 
L 2938 2094 
Q 2938 2591 2744 2837 
Q 2550 3084 2163 3084 
Q 1697 3084 1428 2787 
Q 1159 2491 1159 1978 
L 1159 0 
L 581 0 
L 581 3500 
L 1159 3500 
L 1159 2956 
Q 1366 3272 1645 3428 
Q 1925 3584 2291 3584 
Q 2894 3584 3203 3211 
Q 3513 2838 3513 2113 
z
" transform="scale(0.015625)"/>
       <path id="DejaVuSans-66" d="M 2375 4863 
L 2375 4384 
L 1825 4384 
Q 1516 4384 1395 4259 
Q 1275 4134 1275 3809 
L 1275 3500 
L 2222 3500 
L 2222 3053 
L 1275 3053 
L 1275 0 
L 697 0 
L 697 3053 
L 147 3053 
L 147 3500 
L 697 3500 
L 697 3744 
Q 697 4328 969 4595 
Q 1241 4863 1831 4863 
L 2375 4863 
z
" transform="scale(0.015625)"/>
       <path id="DejaVuSans-6c" d="M 603 4863 
L 1178 4863 
L 1178 0 
L 603 0 
L 603 4863 
z
" transform="scale(0.015625)"/>
       <path id="DejaVuSans-75" d="M 544 1381 
L 544 3500 
L 1119 3500 
L 1119 1403 
Q 1119 906 1312 657 
Q 1506 409 1894 409 
Q 2359 409 2629 706 
Q 2900 1003 2900 1516 
L 2900 3500 
L 3475 3500 
L 3475 0 
L 2900 0 
L 2900 538 
Q 2691 219 2414 64 
Q 2138 -91 1772 -91 
Q 1169 -91 856 284 
Q 544 659 544 1381 
z
M 1991 3584 
L 1991 3584 
z
" transform="scale(0.015625)"/>
      </defs>
      <use xlink:href="#DejaVuSans-74"/>
      <use xlink:href="#DejaVuSans-6f" x="39.208984"/>
      <use xlink:href="#DejaVuSans-78" x="97.265625"/>
      <use xlink:href="#DejaVuSans-67" x="156.445312"/>
      <use xlink:href="#DejaVuSans-72" x="219.921875"/>
      <use xlink:href="#DejaVuSans-65" x="258.785156"/>
      <use xlink:href="#DejaVuSans-65" x="320.308594"/>
      <use xlink:href="#DejaVuSans-6e" x="381.832031"/>
      <use xlink:href="#DejaVuSans-5f" x="445.210938"/>
      <use xlink:href="#DejaVuSans-66" x="495.210938"/>
      <use xlink:href="#DejaVuSans-6c" x="530.416016"/>
      <use xlink:href="#DejaVuSans-75" x="558.199219"/>
      <use xlink:href="#DejaVuSans-6f" x="621.578125"/>
      <use xlink:href="#DejaVuSans-72" x="682.759766"/>
     </g>
    </g>
   </g>
   <g id="patch_3">
    <path d="M 83.665545 268.869855 
L 159.40558 268.869855 
L 159.40558 253.392696 
L 83.665545 253.392696 
L 83.665545 268.869855 
z
" clip-path="url(#p3b36a87cba)" style="fill: #ecf2ec; stroke: #262626; stroke-width: 1.5; stroke-linejoin: miter"/>
   </g>
   <g id="patch_4">
    <path d="M 160.951295 254.405846 
L 236.69133 254.405846 
L 236.69133 223.652052 
L 160.951295 223.652052 
L 160.951295 254.405846 
z
" clip-path="url(#p3b36a87cba)" style="fill: #107010; stroke: #262626; stroke-width: 1.5; stroke-linejoin: miter"/>
   </g>
   <g id="patch_5">
    <path d="M 276.87992 264.839546 
L 352.619955 264.839546 
L 352.619955 251.47461 
L 276.87992 251.47461 
L 276.87992 264.839546 
z
" clip-path="url(#p3b36a87cba)" style="fill: #ecf2ec; stroke: #262626; stroke-width: 1.5; stroke-linejoin: miter"/>
   </g>
   <g id="patch_6">
    <path d="M 354.16567 250.828331 
L 429.905705 250.828331 
L 429.905705 114.470577 
L 354.16567 114.470577 
L 354.16567 250.828331 
z
" clip-path="url(#p3b36a87cba)" style="fill: #107010; stroke: #262626; stroke-width: 1.5; stroke-linejoin: miter"/>
   </g>
   <g id="patch_7">
    <path d="M 160.178438 303.64 
L 160.178438 303.64 
L 160.178438 303.64 
L 160.178438 303.64 
z
" clip-path="url(#p3b36a87cba)" style="fill: #ecf2ec; stroke: #262626; stroke-width: 0.75; stroke-linejoin: miter"/>
   </g>
   <g id="patch_8">
    <path d="M 160.178438 303.64 
L 160.178438 303.64 
L 160.178438 303.64 
L 160.178438 303.64 
z
" clip-path="url(#p3b36a87cba)" style="fill: #107010; stroke: #262626; stroke-width: 0.75; stroke-linejoin: miter"/>
   </g>
   <g id="PathCollection_1"/>
   <g id="PathCollection_2"/>
   <g id="line2d_9">
    <path d="M 121.535562 268.869855 
L 121.535562 279.442697 
" clip-path="url(#p3b36a87cba)" style="fill: none; stroke: #262626; stroke-width: 1.5; stroke-linecap: round"/>
   </g>
   <g id="line2d_10">
    <path d="M 121.535562 253.392696 
L 121.535562 240.794562 
" clip-path="url(#p3b36a87cba)" style="fill: none; stroke: #262626; stroke-width: 1.5; stroke-linecap: round"/>
   </g>
   <g id="line2d_11">
    <path d="M 102.600554 279.442697 
L 140.470571 279.442697 
" clip-path="url(#p3b36a87cba)" style="fill: none; stroke: #262626; stroke-width: 1.5; stroke-linecap: round"/>
   </g>
   <g id="line2d_12">
    <path d="M 102.600554 240.794562 
L 140.470571 240.794562 
" clip-path="url(#p3b36a87cba)" style="fill: none; stroke: #262626; stroke-width: 1.5; stroke-linecap: round"/>
   </g>
   <g id="line2d_13">
    <defs>
     <path id="m2ea4330d5d" d="M -0 1.414214 
L 0.848528 0 
L 0 -1.414214 
L -0.848528 -0 
z
" style="stroke: #262626; stroke-linejoin: miter"/>
    </defs>
    <g clip-path="url(#p3b36a87cba)">
     <use xlink:href="#m2ea4330d5d" x="121.535562" y="209.842427" style="fill: #262626; stroke: #262626; stroke-linejoin: miter"/>
    </g>
   </g>
   <g id="line2d_14">
    <path d="M 198.821313 254.405846 
L 198.821313 260.251095 
" clip-path="url(#p3b36a87cba)" style="fill: none; stroke: #262626; stroke-width: 1.5; stroke-linecap: round"/>
   </g>
   <g id="line2d_15">
    <path d="M 198.821313 223.652052 
L 198.821313 217.446049 
" clip-path="url(#p3b36a87cba)" style="fill: none; stroke: #262626; stroke-width: 1.5; stroke-linecap: round"/>
   </g>
   <g id="line2d_16">
    <path d="M 179.886304 260.251095 
L 217.756321 260.251095 
" clip-path="url(#p3b36a87cba)" style="fill: none; stroke: #262626; stroke-width: 1.5; stroke-linecap: round"/>
   </g>
   <g id="line2d_17">
    <path d="M 179.886304 217.446049 
L 217.756321 217.446049 
" clip-path="url(#p3b36a87cba)" style="fill: none; stroke: #262626; stroke-width: 1.5; stroke-linecap: round"/>
   </g>
   <g id="line2d_18"/>
   <g id="line2d_19">
    <path d="M 314.749937 264.839546 
L 314.749937 277.402591 
" clip-path="url(#p3b36a87cba)" style="fill: none; stroke: #262626; stroke-width: 1.5; stroke-linecap: round"/>
   </g>
   <g id="line2d_20">
    <path d="M 314.749937 251.47461 
L 314.749937 233.779368 
" clip-path="url(#p3b36a87cba)" style="fill: none; stroke: #262626; stroke-width: 1.5; stroke-linecap: round"/>
   </g>
   <g id="line2d_21">
    <path d="M 295.814929 277.402591 
L 333.684946 277.402591 
" clip-path="url(#p3b36a87cba)" style="fill: none; stroke: #262626; stroke-width: 1.5; stroke-linecap: round"/>
   </g>
   <g id="line2d_22">
    <path d="M 295.814929 233.779368 
L 333.684946 233.779368 
" clip-path="url(#p3b36a87cba)" style="fill: none; stroke: #262626; stroke-width: 1.5; stroke-linecap: round"/>
   </g>
   <g id="line2d_23">
    <g clip-path="url(#p3b36a87cba)">
     <use xlink:href="#m2ea4330d5d" x="314.749937" y="138.529863" style="fill: #262626; stroke: #262626; stroke-linejoin: miter"/>
    </g>
   </g>
   <g id="line2d_24">
    <path d="M 392.035687 250.828331 
L 392.035687 273.477515 
" clip-path="url(#p3b36a87cba)" style="fill: none; stroke: #262626; stroke-width: 1.5; stroke-linecap: round"/>
   </g>
   <g id="line2d_25">
    <path d="M 392.035687 114.470577 
L 392.035687 39.836744 
" clip-path="url(#p3b36a87cba)" style="fill: none; stroke: #262626; stroke-width: 1.5; stroke-linecap: round"/>
   </g>
   <g id="line2d_26">
    <path d="M 373.100679 273.477515 
L 410.970696 273.477515 
" clip-path="url(#p3b36a87cba)" style="fill: none; stroke: #262626; stroke-width: 1.5; stroke-linecap: round"/>
   </g>
   <g id="line2d_27">
    <path d="M 373.100679 39.836744 
L 410.970696 39.836744 
" clip-path="url(#p3b36a87cba)" style="fill: none; stroke: #262626; stroke-width: 1.5; stroke-linecap: round"/>
   </g>
   <g id="line2d_28"/>
   <g id="line2d_29">
    <path d="M 83.665545 263.695098 
L 159.40558 263.695098 
" clip-path="url(#p3b36a87cba)" style="fill: none; stroke: #262626; stroke-width: 1.5; stroke-linecap: round"/>
   </g>
   <g id="line2d_30">
    <path d="M 160.951295 241.341754 
L 236.69133 241.341754 
" clip-path="url(#p3b36a87cba)" style="fill: none; stroke: #262626; stroke-width: 1.5; stroke-linecap: round"/>
   </g>
   <g id="line2d_31">
    <path d="M 276.87992 258.338613 
L 352.619955 258.338613 
" clip-path="url(#p3b36a87cba)" style="fill: none; stroke: #262626; stroke-width: 1.5; stroke-linecap: round"/>
   </g>
   <g id="line2d_32">
    <path d="M 354.16567 154.165728 
L 429.905705 154.165728 
" clip-path="url(#p3b36a87cba)" style="fill: none; stroke: #262626; stroke-width: 1.5; stroke-linecap: round"/>
   </g>
   <g id="patch_9">
    <path d="M 63.57125 303.64 
L 63.57125 13.456418 
" style="fill: none; stroke: #cccccc; stroke-width: 0.8; stroke-linejoin: miter; stroke-linecap: square"/>
   </g>
   <g id="patch_10">
    <path d="M 450 303.64 
L 450 13.456418 
" style="fill: none; stroke: #cccccc; stroke-width: 0.8; stroke-linejoin: miter; stroke-linecap: square"/>
   </g>
   <g id="patch_11">
    <path d="M 63.57125 303.64 
L 450 303.64 
" style="fill: none; stroke: #cccccc; stroke-width: 0.8; stroke-linejoin: miter; stroke-linecap: square"/>
   </g>
   <g id="patch_12">
    <path d="M 63.57125 13.456418 
L 450 13.456418 
" style="fill: none; stroke: #cccccc; stroke-width: 0.8; stroke-linejoin: miter; stroke-linecap: square"/>
   </g>
   <g id="PathCollection_3">
    <defs>
     <path id="C0_0_ab80434aa5" d="M 0 1 
C 0.265203 1 0.51958 0.894634 0.707107 0.707107 
C 0.894634 0.51958 1 0.265203 1 -0 
C 1 -0.265203 0.894634 -0.51958 0.707107 -0.707107 
C 0.51958 -0.894634 0.265203 -1 0 -1 
C -0.265203 -1 -0.51958 -0.894634 -0.707107 -0.707107 
C -0.894634 -0.51958 -1 -0.265203 -1 0 
C -1 0.265203 -0.894634 0.51958 -0.707107 0.707107 
C -0.51958 0.894634 -0.265203 1 0 1 
z
"/>
    </defs>
    <g clip-path="url(#p3b36a87cba)">
     <use xlink:href="#C0_0_ab80434aa5" x="129.009003" y="275.765982" style="fill: #262626"/>
    </g>
    <g clip-path="url(#p3b36a87cba)">
     <use xlink:href="#C0_0_ab80434aa5" x="129.227779" y="265.860235" style="fill: #262626"/>
    </g>
    <g clip-path="url(#p3b36a87cba)">
     <use xlink:href="#C0_0_ab80434aa5" x="112.300948" y="261.987264" style="fill: #262626"/>
    </g>
    <g clip-path="url(#p3b36a87cba)">
     <use xlink:href="#C0_0_ab80434aa5" x="129.893995" y="240.794562" style="fill: #262626"/>
    </g>
    <g clip-path="url(#p3b36a87cba)">
     <use xlink:href="#C0_0_ab80434aa5" x="119.226952" y="255.428628" style="fill: #262626"/>
    </g>
    <g clip-path="url(#p3b36a87cba)">
     <use xlink:href="#C0_0_ab80434aa5" x="111.939147" y="279.442697" style="fill: #262626"/>
    </g>
    <g clip-path="url(#p3b36a87cba)">
     <use xlink:href="#C0_0_ab80434aa5" x="113.108382" y="209.842427" style="fill: #262626"/>
    </g>
    <g clip-path="url(#p3b36a87cba)">
     <use xlink:href="#C0_0_ab80434aa5" x="113.880719" y="252.714052" style="fill: #262626"/>
    </g>
    <g clip-path="url(#p3b36a87cba)">
     <use xlink:href="#C0_0_ab80434aa5" x="115.054879" y="247.677096" style="fill: #262626"/>
    </g>
    <g clip-path="url(#p3b36a87cba)">
     <use xlink:href="#C0_0_ab80434aa5" x="121.039169" y="268.894836" style="fill: #262626"/>
    </g>
    <g clip-path="url(#p3b36a87cba)">
     <use xlink:href="#C0_0_ab80434aa5" x="122.173563" y="262.636139" style="fill: #262626"/>
    </g>
    <g clip-path="url(#p3b36a87cba)">
     <use xlink:href="#C0_0_ab80434aa5" x="120.95174" y="264.754057" style="fill: #262626"/>
    </g>
    <g clip-path="url(#p3b36a87cba)">
     <use xlink:href="#C0_0_ab80434aa5" x="121.2306" y="268.794912" style="fill: #262626"/>
    </g>
    <g clip-path="url(#p3b36a87cba)">
     <use xlink:href="#C0_0_ab80434aa5" x="119.69056" y="267.642172" style="fill: #262626"/>
    </g>
    <g clip-path="url(#p3b36a87cba)">
     <use xlink:href="#C0_0_ab80434aa5" x="115.623579" y="272.665301" style="fill: #262626"/>
    </g>
    <g clip-path="url(#p3b36a87cba)">
     <use xlink:href="#C0_0_ab80434aa5" x="123.476697" y="258.917681" style="fill: #262626"/>
    </g>
    <g clip-path="url(#p3b36a87cba)">
     <use xlink:href="#C0_0_ab80434aa5" x="113.322379" y="270.590881" style="fill: #262626"/>
    </g>
    <g clip-path="url(#p3b36a87cba)">
     <use xlink:href="#C0_0_ab80434aa5" x="124.145879" y="249.497882" style="fill: #262626"/>
    </g>
   </g>
   <g id="PathCollection_4">
    <defs>
     <path id="C1_0_dd33bf1dbc" d="M 0 1 
C 0.265203 1 0.51958 0.894634 0.707107 0.707107 
C 0.894634 0.51958 1 0.265203 1 -0 
C 1 -0.265203 0.894634 -0.51958 0.707107 -0.707107 
C 0.51958 -0.894634 0.265203 -1 0 -1 
C -0.265203 -1 -0.51958 -0.894634 -0.707107 -0.707107 
C -0.894634 -0.51958 -1 -0.265203 -1 0 
C -1 0.265203 -0.894634 0.51958 -0.707107 0.707107 
C -0.51958 0.894634 -0.265203 1 0 1 
z
"/>
    </defs>
    <g clip-path="url(#p3b36a87cba)">
     <use xlink:href="#C1_0_dd33bf1dbc" x="191.084798" y="217.446049"/>
    </g>
    <g clip-path="url(#p3b36a87cba)">
     <use xlink:href="#C1_0_dd33bf1dbc" x="189.863218" y="221.449481"/>
    </g>
    <g clip-path="url(#p3b36a87cba)">
     <use xlink:href="#C1_0_dd33bf1dbc" x="202.416711" y="254.405846"/>
    </g>
    <g clip-path="url(#p3b36a87cba)">
     <use xlink:href="#C1_0_dd33bf1dbc" x="208.200521" y="254.678131"/>
    </g>
    <g clip-path="url(#p3b36a87cba)">
     <use xlink:href="#C1_0_dd33bf1dbc" x="193.922697" y="241.06945"/>
    </g>
    <g clip-path="url(#p3b36a87cba)">
     <use xlink:href="#C1_0_dd33bf1dbc" x="199.75302" y="260.251095"/>
    </g>
    <g clip-path="url(#p3b36a87cba)">
     <use xlink:href="#C1_0_dd33bf1dbc" x="192.89818" y="241.341754"/>
    </g>
    <g clip-path="url(#p3b36a87cba)">
     <use xlink:href="#C1_0_dd33bf1dbc" x="199.643806" y="254.371724"/>
    </g>
    <g clip-path="url(#p3b36a87cba)">
     <use xlink:href="#C1_0_dd33bf1dbc" x="200.845935" y="223.652052"/>
    </g>
   </g>
   <g id="PathCollection_5">
    <defs>
     <path id="C2_0_bcf2721731" d="M 0 1 
C 0.265203 1 0.51958 0.894634 0.707107 0.707107 
C 0.894634 0.51958 1 0.265203 1 -0 
C 1 -0.265203 0.894634 -0.51958 0.707107 -0.707107 
C 0.51958 -0.894634 0.265203 -1 0 -1 
C -0.265203 -1 -0.51958 -0.894634 -0.707107 -0.707107 
C -0.894634 -0.51958 -1 -0.265203 -1 0 
C -1 0.265203 -0.894634 0.51958 -0.707107 0.707107 
C -0.51958 0.894634 -0.265203 1 0 1 
z
"/>
    </defs>
    <g clip-path="url(#p3b36a87cba)">
     <use xlink:href="#C2_0_bcf2721731" x="313.85079" y="233.779368" style="fill: #262626"/>
    </g>
    <g clip-path="url(#p3b36a87cba)">
     <use xlink:href="#C2_0_bcf2721731" x="305.229401" y="258.941963" style="fill: #262626"/>
    </g>
    <g clip-path="url(#p3b36a87cba)">
     <use xlink:href="#C2_0_bcf2721731" x="316.565044" y="267.121578" style="fill: #262626"/>
    </g>
    <g clip-path="url(#p3b36a87cba)">
     <use xlink:href="#C2_0_bcf2721731" x="319.333094" y="257.079825" style="fill: #262626"/>
    </g>
    <g clip-path="url(#p3b36a87cba)">
     <use xlink:href="#C2_0_bcf2721731" x="321.658522" y="262.867974" style="fill: #262626"/>
    </g>
    <g clip-path="url(#p3b36a87cba)">
     <use xlink:href="#C2_0_bcf2721731" x="323.959971" y="275.110491" style="fill: #262626"/>
    </g>
    <g clip-path="url(#p3b36a87cba)">
     <use xlink:href="#C2_0_bcf2721731" x="317.939176" y="256.994618" style="fill: #262626"/>
    </g>
    <g clip-path="url(#p3b36a87cba)">
     <use xlink:href="#C2_0_bcf2721731" x="310.929069" y="256.805646" style="fill: #262626"/>
    </g>
    <g clip-path="url(#p3b36a87cba)">
     <use xlink:href="#C2_0_bcf2721731" x="319.97332" y="254.374891" style="fill: #262626"/>
    </g>
    <g clip-path="url(#p3b36a87cba)">
     <use xlink:href="#C2_0_bcf2721731" x="320.279391" y="248.07637" style="fill: #262626"/>
    </g>
    <g clip-path="url(#p3b36a87cba)">
     <use xlink:href="#C2_0_bcf2721731" x="310.951747" y="270.321491" style="fill: #262626"/>
    </g>
    <g clip-path="url(#p3b36a87cba)">
     <use xlink:href="#C2_0_bcf2721731" x="316.668043" y="256.05056" style="fill: #262626"/>
    </g>
    <g clip-path="url(#p3b36a87cba)">
     <use xlink:href="#C2_0_bcf2721731" x="309.334677" y="256.862911" style="fill: #262626"/>
    </g>
    <g clip-path="url(#p3b36a87cba)">
     <use xlink:href="#C2_0_bcf2721731" x="322.484826" y="263.738278" style="fill: #262626"/>
    </g>
    <g clip-path="url(#p3b36a87cba)">
     <use xlink:href="#C2_0_bcf2721731" x="316.879005" y="258.837814" style="fill: #262626"/>
    </g>
    <g clip-path="url(#p3b36a87cba)">
     <use xlink:href="#C2_0_bcf2721731" x="323.730454" y="252.892149" style="fill: #262626"/>
    </g>
    <g clip-path="url(#p3b36a87cba)">
     <use xlink:href="#C2_0_bcf2721731" x="315.927753" y="138.529863" style="fill: #262626"/>
    </g>
    <g clip-path="url(#p3b36a87cba)">
     <use xlink:href="#C2_0_bcf2721731" x="323.366219" y="262.563756" style="fill: #262626"/>
    </g>
    <g clip-path="url(#p3b36a87cba)">
     <use xlink:href="#C2_0_bcf2721731" x="323.975741" y="247.892039" style="fill: #262626"/>
    </g>
    <g clip-path="url(#p3b36a87cba)">
     <use xlink:href="#C2_0_bcf2721731" x="318.255373" y="249.639552" style="fill: #262626"/>
    </g>
    <g clip-path="url(#p3b36a87cba)">
     <use xlink:href="#C2_0_bcf2721731" x="310.990582" y="263.364177" style="fill: #262626"/>
    </g>
    <g clip-path="url(#p3b36a87cba)">
     <use xlink:href="#C2_0_bcf2721731" x="312.66986" y="273.14402" style="fill: #262626"/>
    </g>
    <g clip-path="url(#p3b36a87cba)">
     <use xlink:href="#C2_0_bcf2721731" x="307.328219" y="233.934152" style="fill: #262626"/>
    </g>
    <g clip-path="url(#p3b36a87cba)">
     <use xlink:href="#C2_0_bcf2721731" x="316.12882" y="264.839546" style="fill: #262626"/>
    </g>
    <g clip-path="url(#p3b36a87cba)">
     <use xlink:href="#C2_0_bcf2721731" x="323.334937" y="277.402591" style="fill: #262626"/>
    </g>
    <g clip-path="url(#p3b36a87cba)">
     <use xlink:href="#C2_0_bcf2721731" x="321.444795" y="259.682818" style="fill: #262626"/>
    </g>
    <g clip-path="url(#p3b36a87cba)">
     <use xlink:href="#C2_0_bcf2721731" x="308.755784" y="246.351751" style="fill: #262626"/>
    </g>
    <g clip-path="url(#p3b36a87cba)">
     <use xlink:href="#C2_0_bcf2721731" x="323.284171" y="256.485617" style="fill: #262626"/>
    </g>
    <g clip-path="url(#p3b36a87cba)">
     <use xlink:href="#C2_0_bcf2721731" x="308.139269" y="251.117646" style="fill: #262626"/>
    </g>
    <g clip-path="url(#p3b36a87cba)">
     <use xlink:href="#C2_0_bcf2721731" x="310.703656" y="261.486339" style="fill: #262626"/>
    </g>
    <g clip-path="url(#p3b36a87cba)">
     <use xlink:href="#C2_0_bcf2721731" x="320.175884" y="248.659253" style="fill: #262626"/>
    </g>
    <g clip-path="url(#p3b36a87cba)">
     <use xlink:href="#C2_0_bcf2721731" x="319.28496" y="252.535317" style="fill: #262626"/>
    </g>
    <g clip-path="url(#p3b36a87cba)">
     <use xlink:href="#C2_0_bcf2721731" x="320.384439" y="252.118692" style="fill: #262626"/>
    </g>
    <g clip-path="url(#p3b36a87cba)">
     <use xlink:href="#C2_0_bcf2721731" x="308.30115" y="244.550258" style="fill: #262626"/>
    </g>
    <g clip-path="url(#p3b36a87cba)">
     <use xlink:href="#C2_0_bcf2721731" x="320.263322" y="252.740647" style="fill: #262626"/>
    </g>
    <g clip-path="url(#p3b36a87cba)">
     <use xlink:href="#C2_0_bcf2721731" x="321.007822" y="268.426865" style="fill: #262626"/>
    </g>
    <g clip-path="url(#p3b36a87cba)">
     <use xlink:href="#C2_0_bcf2721731" x="318.655031" y="246.608069" style="fill: #262626"/>
    </g>
    <g clip-path="url(#p3b36a87cba)">
     <use xlink:href="#C2_0_bcf2721731" x="320.12044" y="274.578764" style="fill: #262626"/>
    </g>
    <g clip-path="url(#p3b36a87cba)">
     <use xlink:href="#C2_0_bcf2721731" x="319.91453" y="258.338613" style="fill: #262626"/>
    </g>
    <g clip-path="url(#p3b36a87cba)">
     <use xlink:href="#C2_0_bcf2721731" x="317.466563" y="266.898438" style="fill: #262626"/>
    </g>
    <g clip-path="url(#p3b36a87cba)">
     <use xlink:href="#C2_0_bcf2721731" x="309.695602" y="264.604325" style="fill: #262626"/>
    </g>
    <g clip-path="url(#p3b36a87cba)">
     <use xlink:href="#C2_0_bcf2721731" x="319.411202" y="268.407048" style="fill: #262626"/>
    </g>
    <g clip-path="url(#p3b36a87cba)">
     <use xlink:href="#C2_0_bcf2721731" x="305.645272" y="267.242704" style="fill: #262626"/>
    </g>
    <g clip-path="url(#p3b36a87cba)">
     <use xlink:href="#C2_0_bcf2721731" x="309.647189" y="250.84703" style="fill: #262626"/>
    </g>
    <g clip-path="url(#p3b36a87cba)">
     <use xlink:href="#C2_0_bcf2721731" x="321.427418" y="264.740486" style="fill: #262626"/>
    </g>
    <g clip-path="url(#p3b36a87cba)">
     <use xlink:href="#C2_0_bcf2721731" x="313.312424" y="271.769714" style="fill: #262626"/>
    </g>
    <g clip-path="url(#p3b36a87cba)">
     <use xlink:href="#C2_0_bcf2721731" x="307.343314" y="272.89682" style="fill: #262626"/>
    </g>
    <g clip-path="url(#p3b36a87cba)">
     <use xlink:href="#C2_0_bcf2721731" x="306.182312" y="251.47461" style="fill: #262626"/>
    </g>
    <g clip-path="url(#p3b36a87cba)">
     <use xlink:href="#C2_0_bcf2721731" x="312.887467" y="263.855535" style="fill: #262626"/>
    </g>
   </g>
   <g id="PathCollection_6">
    <defs>
     <path id="C3_0_d081f2d85d" d="M 0 1 
C 0.265203 1 0.51958 0.894634 0.707107 0.707107 
C 0.894634 0.51958 1 0.265203 1 -0 
C 1 -0.265203 0.894634 -0.51958 0.707107 -0.707107 
C 0.51958 -0.894634 0.265203 -1 0 -1 
C -0.265203 -1 -0.51958 -0.894634 -0.707107 -0.707107 
C -0.894634 -0.51958 -1 -0.265203 -1 0 
C -1 0.265203 -0.894634 0.51958 -0.707107 0.707107 
C -0.51958 0.894634 -0.265203 1 0 1 
z
"/>
    </defs>
    <g clip-path="url(#p3b36a87cba)">
     <use xlink:href="#C3_0_d081f2d85d" x="382.994776" y="253.431496"/>
    </g>
    <g clip-path="url(#p3b36a87cba)">
     <use xlink:href="#C3_0_d081f2d85d" x="386.053204" y="253.271266"/>
    </g>
    <g clip-path="url(#p3b36a87cba)">
     <use xlink:href="#C3_0_d081f2d85d" x="392.308295" y="114.105674"/>
    </g>
    <g clip-path="url(#p3b36a87cba)">
     <use xlink:href="#C3_0_d081f2d85d" x="389.84883" y="203.914415"/>
    </g>
    <g clip-path="url(#p3b36a87cba)">
     <use xlink:href="#C3_0_d081f2d85d" x="400.734601" y="248.385395"/>
    </g>
    <g clip-path="url(#p3b36a87cba)">
     <use xlink:href="#C3_0_d081f2d85d" x="385.368874" y="136.443803"/>
    </g>
    <g clip-path="url(#p3b36a87cba)">
     <use xlink:href="#C3_0_d081f2d85d" x="393.889542" y="215.558603"/>
    </g>
    <g clip-path="url(#p3b36a87cba)">
     <use xlink:href="#C3_0_d081f2d85d" x="385.545706" y="39.836744"/>
    </g>
    <g clip-path="url(#p3b36a87cba)">
     <use xlink:href="#C3_0_d081f2d85d" x="395.950899" y="269.569171"/>
    </g>
    <g clip-path="url(#p3b36a87cba)">
     <use xlink:href="#C3_0_d081f2d85d" x="398.735606" y="138.394184"/>
    </g>
    <g clip-path="url(#p3b36a87cba)">
     <use xlink:href="#C3_0_d081f2d85d" x="389.670205" y="114.500785"/>
    </g>
    <g clip-path="url(#p3b36a87cba)">
     <use xlink:href="#C3_0_d081f2d85d" x="398.618565" y="154.165728"/>
    </g>
    <g clip-path="url(#p3b36a87cba)">
     <use xlink:href="#C3_0_d081f2d85d" x="390.354136" y="257.022017"/>
    </g>
    <g clip-path="url(#p3b36a87cba)">
     <use xlink:href="#C3_0_d081f2d85d" x="388.112323" y="273.477515"/>
    </g>
    <g clip-path="url(#p3b36a87cba)">
     <use xlink:href="#C3_0_d081f2d85d" x="401.55419" y="245.575716"/>
    </g>
    <g clip-path="url(#p3b36a87cba)">
     <use xlink:href="#C3_0_d081f2d85d" x="394.645358" y="267.590924"/>
    </g>
    <g clip-path="url(#p3b36a87cba)">
     <use xlink:href="#C3_0_d081f2d85d" x="384.632755" y="141.034022"/>
    </g>
    <g clip-path="url(#p3b36a87cba)">
     <use xlink:href="#C3_0_d081f2d85d" x="398.701187" y="81.299818"/>
    </g>
    <g clip-path="url(#p3b36a87cba)">
     <use xlink:href="#C3_0_d081f2d85d" x="389.875475" y="123.31684"/>
    </g>
    <g clip-path="url(#p3b36a87cba)">
     <use xlink:href="#C3_0_d081f2d85d" x="386.491718" y="114.440369"/>
    </g>
    <g clip-path="url(#p3b36a87cba)">
     <use xlink:href="#C3_0_d081f2d85d" x="398.003835" y="82.94723"/>
    </g>
    <g clip-path="url(#p3b36a87cba)">
     <use xlink:href="#C3_0_d081f2d85d" x="382.743596" y="87.381939"/>
    </g>
    <g clip-path="url(#p3b36a87cba)">
     <use xlink:href="#C3_0_d081f2d85d" x="400.462547" y="242.251396"/>
    </g>
   </g>
   <g id="text_13">
    <!-- 18 -->
    <g style="fill: #262626" transform="translate(131.196281 303.626416)scale(0.1 -0.1)">
     <defs>
      <path id="DejaVuSans-38" d="M 2034 2216 
Q 1584 2216 1326 1975 
Q 1069 1734 1069 1313 
Q 1069 891 1326 650 
Q 1584 409 2034 409 
Q 2484 409 2743 651 
Q 3003 894 3003 1313 
Q 3003 1734 2745 1975 
Q 2488 2216 2034 2216 
z
M 1403 2484 
Q 997 2584 770 2862 
Q 544 3141 544 3541 
Q 544 4100 942 4425 
Q 1341 4750 2034 4750 
Q 2731 4750 3128 4425 
Q 3525 4100 3525 3541 
Q 3525 3141 3298 2862 
Q 3072 2584 2669 2484 
Q 3125 2378 3379 2068 
Q 3634 1759 3634 1313 
Q 3634 634 3220 271 
Q 2806 -91 2034 -91 
Q 1263 -91 848 271 
Q 434 634 434 1313 
Q 434 1759 690 2068 
Q 947 2378 1403 2484 
z
M 1172 3481 
Q 1172 3119 1398 2916 
Q 1625 2713 2034 2713 
Q 2441 2713 2670 2916 
Q 2900 3119 2900 3481 
Q 2900 3844 2670 4047 
Q 2441 4250 2034 4250 
Q 1625 4250 1398 4047 
Q 1172 3844 1172 3481 
z
" transform="scale(0.015625)"/>
     </defs>
     <use xlink:href="#DejaVuSans-31"/>
     <use xlink:href="#DejaVuSans-38" x="63.623047"/>
    </g>
   </g>
   <g id="text_14">
    <!-- p=0.00908352245144021 -->
    <g style="fill: #262626" transform="translate(78.223781 209.842015)scale(0.08 -0.08)">
     <defs>
      <path id="DejaVuSans-70" d="M 1159 525 
L 1159 -1331 
L 581 -1331 
L 581 3500 
L 1159 3500 
L 1159 2969 
Q 1341 3281 1617 3432 
Q 1894 3584 2278 3584 
Q 2916 3584 3314 3078 
Q 3713 2572 3713 1747 
Q 3713 922 3314 415 
Q 2916 -91 2278 -91 
Q 1894 -91 1617 61 
Q 1341 213 1159 525 
z
M 3116 1747 
Q 3116 2381 2855 2742 
Q 2594 3103 2138 3103 
Q 1681 3103 1420 2742 
Q 1159 2381 1159 1747 
Q 1159 1113 1420 752 
Q 1681 391 2138 391 
Q 2594 391 2855 752 
Q 3116 1113 3116 1747 
z
" transform="scale(0.015625)"/>
      <path id="DejaVuSans-3d" d="M 678 2906 
L 4684 2906 
L 4684 2381 
L 678 2381 
L 678 2906 
z
M 678 1631 
L 4684 1631 
L 4684 1100 
L 678 1100 
L 678 1631 
z
" transform="scale(0.015625)"/>
      <path id="DejaVuSans-2e" d="M 684 794 
L 1344 794 
L 1344 0 
L 684 0 
L 684 794 
z
" transform="scale(0.015625)"/>
      <path id="DejaVuSans-39" d="M 703 97 
L 703 672 
Q 941 559 1184 500 
Q 1428 441 1663 441 
Q 2288 441 2617 861 
Q 2947 1281 2994 2138 
Q 2813 1869 2534 1725 
Q 2256 1581 1919 1581 
Q 1219 1581 811 2004 
Q 403 2428 403 3163 
Q 403 3881 828 4315 
Q 1253 4750 1959 4750 
Q 2769 4750 3195 4129 
Q 3622 3509 3622 2328 
Q 3622 1225 3098 567 
Q 2575 -91 1691 -91 
Q 1453 -91 1209 -44 
Q 966 3 703 97 
z
M 1959 2075 
Q 2384 2075 2632 2365 
Q 2881 2656 2881 3163 
Q 2881 3666 2632 3958 
Q 2384 4250 1959 4250 
Q 1534 4250 1286 3958 
Q 1038 3666 1038 3163 
Q 1038 2656 1286 2365 
Q 1534 2075 1959 2075 
z
" transform="scale(0.015625)"/>
      <path id="DejaVuSans-34" d="M 2419 4116 
L 825 1625 
L 2419 1625 
L 2419 4116 
z
M 2253 4666 
L 3047 4666 
L 3047 1625 
L 3713 1625 
L 3713 1100 
L 3047 1100 
L 3047 0 
L 2419 0 
L 2419 1100 
L 313 1100 
L 313 1709 
L 2253 4666 
z
" transform="scale(0.015625)"/>
     </defs>
     <use xlink:href="#DejaVuSans-70"/>
     <use xlink:href="#DejaVuSans-3d" x="63.476562"/>
     <use xlink:href="#DejaVuSans-30" x="147.265625"/>
     <use xlink:href="#DejaVuSans-2e" x="210.888672"/>
     <use xlink:href="#DejaVuSans-30" x="242.675781"/>
     <use xlink:href="#DejaVuSans-30" x="306.298828"/>
     <use xlink:href="#DejaVuSans-39" x="369.921875"/>
     <use xlink:href="#DejaVuSans-30" x="433.544922"/>
     <use xlink:href="#DejaVuSans-38" x="497.167969"/>
     <use xlink:href="#DejaVuSans-33" x="560.791016"/>
     <use xlink:href="#DejaVuSans-35" x="624.414062"/>
     <use xlink:href="#DejaVuSans-32" x="688.037109"/>
     <use xlink:href="#DejaVuSans-32" x="751.660156"/>
     <use xlink:href="#DejaVuSans-34" x="815.283203"/>
     <use xlink:href="#DejaVuSans-35" x="878.90625"/>
     <use xlink:href="#DejaVuSans-31" x="942.529297"/>
     <use xlink:href="#DejaVuSans-34" x="1006.152344"/>
     <use xlink:href="#DejaVuSans-34" x="1069.775391"/>
     <use xlink:href="#DejaVuSans-30" x="1133.398438"/>
     <use xlink:href="#DejaVuSans-32" x="1197.021484"/>
     <use xlink:href="#DejaVuSans-31" x="1260.644531"/>
    </g>
   </g>
   <g id="text_15">
    <!-- 9 -->
    <g style="fill: #262626" transform="translate(189.160594 303.626416)scale(0.1 -0.1)">
     <use xlink:href="#DejaVuSans-39"/>
    </g>
   </g>
   <g id="text_16">
    <!-- 49 -->
    <g style="fill: #262626" transform="translate(324.410656 303.626416)scale(0.1 -0.1)">
     <use xlink:href="#DejaVuSans-34"/>
     <use xlink:href="#DejaVuSans-39" x="63.623047"/>
    </g>
   </g>
   <g id="text_17">
    <!-- p=1.4090462979658788e-09 -->
    <g style="fill: #262626" transform="translate(264.988781 138.529451)scale(0.08 -0.08)">
     <defs>
      <path id="DejaVuSans-36" d="M 2113 2584 
Q 1688 2584 1439 2293 
Q 1191 2003 1191 1497 
Q 1191 994 1439 701 
Q 1688 409 2113 409 
Q 2538 409 2786 701 
Q 3034 994 3034 1497 
Q 3034 2003 2786 2293 
Q 2538 2584 2113 2584 
z
M 3366 4563 
L 3366 3988 
Q 3128 4100 2886 4159 
Q 2644 4219 2406 4219 
Q 1781 4219 1451 3797 
Q 1122 3375 1075 2522 
Q 1259 2794 1537 2939 
Q 1816 3084 2150 3084 
Q 2853 3084 3261 2657 
Q 3669 2231 3669 1497 
Q 3669 778 3244 343 
Q 2819 -91 2113 -91 
Q 1303 -91 875 529 
Q 447 1150 447 2328 
Q 447 3434 972 4092 
Q 1497 4750 2381 4750 
Q 2619 4750 2861 4703 
Q 3103 4656 3366 4563 
z
" transform="scale(0.015625)"/>
      <path id="DejaVuSans-37" d="M 525 4666 
L 3525 4666 
L 3525 4397 
L 1831 0 
L 1172 0 
L 2766 4134 
L 525 4134 
L 525 4666 
z
" transform="scale(0.015625)"/>
      <path id="DejaVuSans-2d" d="M 313 2009 
L 1997 2009 
L 1997 1497 
L 313 1497 
L 313 2009 
z
" transform="scale(0.015625)"/>
     </defs>
     <use xlink:href="#DejaVuSans-70"/>
     <use xlink:href="#DejaVuSans-3d" x="63.476562"/>
     <use xlink:href="#DejaVuSans-31" x="147.265625"/>
     <use xlink:href="#DejaVuSans-2e" x="210.888672"/>
     <use xlink:href="#DejaVuSans-34" x="242.675781"/>
     <use xlink:href="#DejaVuSans-30" x="306.298828"/>
     <use xlink:href="#DejaVuSans-39" x="369.921875"/>
     <use xlink:href="#DejaVuSans-30" x="433.544922"/>
     <use xlink:href="#DejaVuSans-34" x="497.167969"/>
     <use xlink:href="#DejaVuSans-36" x="560.791016"/>
     <use xlink:href="#DejaVuSans-32" x="624.414062"/>
     <use xlink:href="#DejaVuSans-39" x="688.037109"/>
     <use xlink:href="#DejaVuSans-37" x="751.660156"/>
     <use xlink:href="#DejaVuSans-39" x="815.283203"/>
     <use xlink:href="#DejaVuSans-36" x="878.90625"/>
     <use xlink:href="#DejaVuSans-35" x="942.529297"/>
     <use xlink:href="#DejaVuSans-38" x="1006.152344"/>
     <use xlink:href="#DejaVuSans-37" x="1069.775391"/>
     <use xlink:href="#DejaVuSans-38" x="1133.398438"/>
     <use xlink:href="#DejaVuSans-38" x="1197.021484"/>
     <use xlink:href="#DejaVuSans-65" x="1260.644531"/>
     <use xlink:href="#DejaVuSans-2d" x="1322.167969"/>
     <use xlink:href="#DejaVuSans-30" x="1358.251953"/>
     <use xlink:href="#DejaVuSans-39" x="1421.875"/>
    </g>
   </g>
   <g id="text_18">
    <!-- 23 -->
    <g style="fill: #262626" transform="translate(382.374969 303.626416)scale(0.1 -0.1)">
     <use xlink:href="#DejaVuSans-32"/>
     <use xlink:href="#DejaVuSans-33" x="63.623047"/>
    </g>
   </g>
   <g id="legend_1">
    <g id="patch_13">
     <path d="M 72.57125 30.054855 
L 92.57125 30.054855 
L 92.57125 23.054855 
L 72.57125 23.054855 
z
" style="fill: #ecf2ec; stroke: #262626; stroke-width: 0.75; stroke-linejoin: miter"/>
    </g>
    <g id="text_19">
     <!-- Mutant -->
     <g style="fill: #262626" transform="translate(100.57125 30.054855)scale(0.1 -0.1)">
      <defs>
       <path id="DejaVuSans-4d" d="M 628 4666 
L 1569 4666 
L 2759 1491 
L 3956 4666 
L 4897 4666 
L 4897 0 
L 4281 0 
L 4281 4097 
L 3078 897 
L 2444 897 
L 1241 4097 
L 1241 0 
L 628 0 
L 628 4666 
z
" transform="scale(0.015625)"/>
       <path id="DejaVuSans-61" d="M 2194 1759 
Q 1497 1759 1228 1600 
Q 959 1441 959 1056 
Q 959 750 1161 570 
Q 1363 391 1709 391 
Q 2188 391 2477 730 
Q 2766 1069 2766 1631 
L 2766 1759 
L 2194 1759 
z
M 3341 1997 
L 3341 0 
L 2766 0 
L 2766 531 
Q 2569 213 2275 61 
Q 1981 -91 1556 -91 
Q 1019 -91 701 211 
Q 384 513 384 1019 
Q 384 1609 779 1909 
Q 1175 2209 1959 2209 
L 2766 2209 
L 2766 2266 
Q 2766 2663 2505 2880 
Q 2244 3097 1772 3097 
Q 1472 3097 1187 3025 
Q 903 2953 641 2809 
L 641 3341 
Q 956 3463 1253 3523 
Q 1550 3584 1831 3584 
Q 2591 3584 2966 3190 
Q 3341 2797 3341 1997 
z
" transform="scale(0.015625)"/>
      </defs>
      <use xlink:href="#DejaVuSans-4d"/>
      <use xlink:href="#DejaVuSans-75" x="86.279297"/>
      <use xlink:href="#DejaVuSans-74" x="149.658203"/>
      <use xlink:href="#DejaVuSans-61" x="188.867188"/>
      <use xlink:href="#DejaVuSans-6e" x="250.146484"/>
      <use xlink:href="#DejaVuSans-74" x="313.525391"/>
     </g>
    </g>
    <g id="patch_14">
     <path d="M 72.57125 44.73298 
L 92.57125 44.73298 
L 92.57125 37.73298 
L 72.57125 37.73298 
z
" style="fill: #107010; stroke: #262626; stroke-width: 0.75; stroke-linejoin: miter"/>
    </g>
    <g id="text_20">
     <!-- WT -->
     <g style="fill: #262626" transform="translate(100.57125 44.73298)scale(0.1 -0.1)">
      <use xlink:href="#DejaVuSans-57"/>
      <use xlink:href="#DejaVuSans-54" x="98.876953"/>
     </g>
    </g>
   </g>
  </g>
 </g>
 <defs>
  <clipPath id="p3b36a87cba">
   <rect x="63.57125" y="13.456418" width="386.42875" height="290.183582"/>
  </clipPath>
 </defs>
</svg>
