<?xml version="1.0" encoding="utf-8" standalone="no"?>
<!DOCTYPE svg PUBLIC "-//W3C//DTD SVG 1.1//EN"
  "http://www.w3.org/Graphics/SVG/1.1/DTD/svg11.dtd">
<svg xmlns:xlink="http://www.w3.org/1999/xlink" width="460.8pt" height="345.6pt" viewBox="0 0 460.8 345.6" xmlns="http://www.w3.org/2000/svg" version="1.1">
 <metadata>
  <rdf:RDF xmlns:dc="http://purl.org/dc/elements/1.1/" xmlns:cc="http://creativecommons.org/ns#" xmlns:rdf="http://www.w3.org/1999/02/22-rdf-syntax-ns#">
   <cc:Work>
    <dc:type rdf:resource="http://purl.org/dc/dcmitype/StillImage"/>
    <dc:date>2024-08-04T21:36:55.038532</dc:date>
    <dc:format>image/svg+xml</dc:format>
    <dc:creator>
     <cc:Agent>
      <dc:title>Matplotlib v3.5.3, https://matplotlib.org/</dc:title>
     </cc:Agent>
    </dc:creator>
   </cc:Work>
  </rdf:RDF>
 </metadata>
 <defs>
  <style type="text/css">*{stroke-linejoin: round; stroke-linecap: butt}</style>
 </defs>
 <g id="figure_1">
  <g id="patch_1">
   <path d="M 0 345.6 
L 460.8 345.6 
L 460.8 0 
L 0 0 
z
" style="fill: #ffffff"/>
  </g>
  <g id="axes_1">
   <g id="patch_2">
    <path d="M 45.83 303.53875 
L 450 303.53875 
L 450 82.644478 
L 45.83 82.644478 
z
" style="fill: #ffffff"/>
   </g>
   <g id="matplotlib.axis_1">
    <g id="xtick_1">
     <g id="text_1">
      <!-- 11I -->
      <g style="fill: #262626" transform="translate(106.610417 317.696562)scale(0.1 -0.1)">
       <defs>
        <path id="ArialMT-31" d="M 2384 0 
L 1822 0 
L 1822 3584 
Q 1619 3391 1289 3197 
Q 959 3003 697 2906 
L 697 3450 
Q 1169 3672 1522 3987 
Q 1875 4303 2022 4600 
L 2384 4600 
L 2384 0 
z
" transform="scale(0.015625)"/>
        <path id="ArialMT-49" d="M 597 0 
L 597 4581 
L 1203 4581 
L 1203 0 
L 597 0 
z
" transform="scale(0.015625)"/>
       </defs>
       <use xlink:href="#ArialMT-31"/>
       <use xlink:href="#ArialMT-31" x="48.240234"/>
       <use xlink:href="#ArialMT-49" x="103.855469"/>
      </g>
     </g>
    </g>
    <g id="xtick_2">
     <g id="text_2">
      <!-- 15I -->
      <g style="fill: #262626" transform="translate(240.965 317.696562)scale(0.1 -0.1)">
       <defs>
        <path id="ArialMT-35" d="M 266 1200 
L 856 1250 
Q 922 819 1161 601 
Q 1400 384 1738 384 
Q 2144 384 2425 690 
Q 2706 997 2706 1503 
Q 2706 1984 2436 2262 
Q 2166 2541 1728 2541 
Q 1456 2541 1237 2417 
Q 1019 2294 894 2097 
L 366 2166 
L 809 4519 
L 3088 4519 
L 3088 3981 
L 1259 3981 
L 1013 2750 
Q 1425 3038 1878 3038 
Q 2478 3038 2890 2622 
Q 3303 2206 3303 1553 
Q 3303 931 2941 478 
Q 2500 -78 1738 -78 
Q 1113 -78 717 272 
Q 322 622 266 1200 
z
" transform="scale(0.015625)"/>
       </defs>
       <use xlink:href="#ArialMT-31"/>
       <use xlink:href="#ArialMT-35" x="55.615234"/>
       <use xlink:href="#ArialMT-49" x="111.230469"/>
      </g>
     </g>
    </g>
    <g id="xtick_3">
     <g id="text_3">
      <!-- 7I -->
      <g style="fill: #262626" transform="translate(378.468802 317.696562)scale(0.1 -0.1)">
       <defs>
        <path id="ArialMT-37" d="M 303 3981 
L 303 4522 
L 3269 4522 
L 3269 4084 
Q 2831 3619 2401 2847 
Q 1972 2075 1738 1259 
Q 1569 684 1522 0 
L 944 0 
Q 953 541 1156 1306 
Q 1359 2072 1739 2783 
Q 2119 3494 2547 3981 
L 303 3981 
z
" transform="scale(0.015625)"/>
       </defs>
       <use xlink:href="#ArialMT-37"/>
       <use xlink:href="#ArialMT-49" x="55.615234"/>
      </g>
     </g>
    </g>
    <g id="text_4">
     <!-- pos_mutAA -->
     <g style="fill: #262626" transform="translate(222.068906 330.841875)scale(0.1 -0.1)">
      <defs>
       <path id="ArialMT-70" d="M 422 -1272 
L 422 3319 
L 934 3319 
L 934 2888 
Q 1116 3141 1344 3267 
Q 1572 3394 1897 3394 
Q 2322 3394 2647 3175 
Q 2972 2956 3137 2557 
Q 3303 2159 3303 1684 
Q 3303 1175 3120 767 
Q 2938 359 2589 142 
Q 2241 -75 1856 -75 
Q 1575 -75 1351 44 
Q 1128 163 984 344 
L 984 -1272 
L 422 -1272 
z
M 931 1641 
Q 931 1000 1190 694 
Q 1450 388 1819 388 
Q 2194 388 2461 705 
Q 2728 1022 2728 1688 
Q 2728 2322 2467 2637 
Q 2206 2953 1844 2953 
Q 1484 2953 1207 2617 
Q 931 2281 931 1641 
z
" transform="scale(0.015625)"/>
       <path id="ArialMT-6f" d="M 213 1659 
Q 213 2581 725 3025 
Q 1153 3394 1769 3394 
Q 2453 3394 2887 2945 
Q 3322 2497 3322 1706 
Q 3322 1066 3130 698 
Q 2938 331 2570 128 
Q 2203 -75 1769 -75 
Q 1072 -75 642 372 
Q 213 819 213 1659 
z
M 791 1659 
Q 791 1022 1069 705 
Q 1347 388 1769 388 
Q 2188 388 2466 706 
Q 2744 1025 2744 1678 
Q 2744 2294 2464 2611 
Q 2184 2928 1769 2928 
Q 1347 2928 1069 2612 
Q 791 2297 791 1659 
z
" transform="scale(0.015625)"/>
       <path id="ArialMT-73" d="M 197 991 
L 753 1078 
Q 800 744 1014 566 
Q 1228 388 1613 388 
Q 2000 388 2187 545 
Q 2375 703 2375 916 
Q 2375 1106 2209 1216 
Q 2094 1291 1634 1406 
Q 1016 1563 777 1677 
Q 538 1791 414 1992 
Q 291 2194 291 2438 
Q 291 2659 392 2848 
Q 494 3038 669 3163 
Q 800 3259 1026 3326 
Q 1253 3394 1513 3394 
Q 1903 3394 2198 3281 
Q 2494 3169 2634 2976 
Q 2775 2784 2828 2463 
L 2278 2388 
Q 2241 2644 2061 2787 
Q 1881 2931 1553 2931 
Q 1166 2931 1000 2803 
Q 834 2675 834 2503 
Q 834 2394 903 2306 
Q 972 2216 1119 2156 
Q 1203 2125 1616 2013 
Q 2213 1853 2448 1751 
Q 2684 1650 2818 1456 
Q 2953 1263 2953 975 
Q 2953 694 2789 445 
Q 2625 197 2315 61 
Q 2006 -75 1616 -75 
Q 969 -75 630 194 
Q 291 463 197 991 
z
" transform="scale(0.015625)"/>
       <path id="ArialMT-5f" d="M -97 -1272 
L -97 -866 
L 3631 -866 
L 3631 -1272 
L -97 -1272 
z
" transform="scale(0.015625)"/>
       <path id="ArialMT-6d" d="M 422 0 
L 422 3319 
L 925 3319 
L 925 2853 
Q 1081 3097 1340 3245 
Q 1600 3394 1931 3394 
Q 2300 3394 2536 3241 
Q 2772 3088 2869 2813 
Q 3263 3394 3894 3394 
Q 4388 3394 4653 3120 
Q 4919 2847 4919 2278 
L 4919 0 
L 4359 0 
L 4359 2091 
Q 4359 2428 4304 2576 
Q 4250 2725 4106 2815 
Q 3963 2906 3769 2906 
Q 3419 2906 3187 2673 
Q 2956 2441 2956 1928 
L 2956 0 
L 2394 0 
L 2394 2156 
Q 2394 2531 2256 2718 
Q 2119 2906 1806 2906 
Q 1569 2906 1367 2781 
Q 1166 2656 1075 2415 
Q 984 2175 984 1722 
L 984 0 
L 422 0 
z
" transform="scale(0.015625)"/>
       <path id="ArialMT-75" d="M 2597 0 
L 2597 488 
Q 2209 -75 1544 -75 
Q 1250 -75 995 37 
Q 741 150 617 320 
Q 494 491 444 738 
Q 409 903 409 1263 
L 409 3319 
L 972 3319 
L 972 1478 
Q 972 1038 1006 884 
Q 1059 663 1231 536 
Q 1403 409 1656 409 
Q 1909 409 2131 539 
Q 2353 669 2445 892 
Q 2538 1116 2538 1541 
L 2538 3319 
L 3100 3319 
L 3100 0 
L 2597 0 
z
" transform="scale(0.015625)"/>
       <path id="ArialMT-74" d="M 1650 503 
L 1731 6 
Q 1494 -44 1306 -44 
Q 1000 -44 831 53 
Q 663 150 594 308 
Q 525 466 525 972 
L 525 2881 
L 113 2881 
L 113 3319 
L 525 3319 
L 525 4141 
L 1084 4478 
L 1084 3319 
L 1650 3319 
L 1650 2881 
L 1084 2881 
L 1084 941 
Q 1084 700 1114 631 
Q 1144 563 1211 522 
Q 1278 481 1403 481 
Q 1497 481 1650 503 
z
" transform="scale(0.015625)"/>
       <path id="ArialMT-41" d="M -9 0 
L 1750 4581 
L 2403 4581 
L 4278 0 
L 3588 0 
L 3053 1388 
L 1138 1388 
L 634 0 
L -9 0 
z
M 1313 1881 
L 2866 1881 
L 2388 3150 
Q 2169 3728 2063 4100 
Q 1975 3659 1816 3225 
L 1313 1881 
z
" transform="scale(0.015625)"/>
      </defs>
      <use xlink:href="#ArialMT-70"/>
      <use xlink:href="#ArialMT-6f" x="55.615234"/>
      <use xlink:href="#ArialMT-73" x="111.230469"/>
      <use xlink:href="#ArialMT-5f" x="161.230469"/>
      <use xlink:href="#ArialMT-6d" x="216.845703"/>
      <use xlink:href="#ArialMT-75" x="300.146484"/>
      <use xlink:href="#ArialMT-74" x="355.761719"/>
      <use xlink:href="#ArialMT-41" x="383.544922"/>
      <use xlink:href="#ArialMT-41" x="450.244141"/>
     </g>
    </g>
   </g>
   <g id="matplotlib.axis_2">
    <g id="ytick_1">
     <g id="line2d_1">
      <path d="M 45.83 303.53875 
L 450 303.53875 
" clip-path="url(#p8a0a833048)" style="fill: none; stroke: #cccccc; stroke-width: 0.8; stroke-linecap: round"/>
     </g>
     <g id="text_5">
      <!-- 0.0 -->
      <g style="fill: #262626" transform="translate(24.93 307.117656)scale(0.1 -0.1)">
       <defs>
        <path id="ArialMT-30" d="M 266 2259 
Q 266 3072 433 3567 
Q 600 4063 929 4331 
Q 1259 4600 1759 4600 
Q 2128 4600 2406 4451 
Q 2684 4303 2865 4023 
Q 3047 3744 3150 3342 
Q 3253 2941 3253 2259 
Q 3253 1453 3087 958 
Q 2922 463 2592 192 
Q 2263 -78 1759 -78 
Q 1097 -78 719 397 
Q 266 969 266 2259 
z
M 844 2259 
Q 844 1131 1108 757 
Q 1372 384 1759 384 
Q 2147 384 2411 759 
Q 2675 1134 2675 2259 
Q 2675 3391 2411 3762 
Q 2147 4134 1753 4134 
Q 1366 4134 1134 3806 
Q 844 3388 844 2259 
z
" transform="scale(0.015625)"/>
        <path id="ArialMT-2e" d="M 581 0 
L 581 641 
L 1222 641 
L 1222 0 
L 581 0 
z
" transform="scale(0.015625)"/>
       </defs>
       <use xlink:href="#ArialMT-30"/>
       <use xlink:href="#ArialMT-2e" x="55.615234"/>
       <use xlink:href="#ArialMT-30" x="83.398438"/>
      </g>
     </g>
    </g>
    <g id="ytick_2">
     <g id="line2d_2">
      <path d="M 45.83 270.916897 
L 450 270.916897 
" clip-path="url(#p8a0a833048)" style="fill: none; stroke: #cccccc; stroke-width: 0.8; stroke-linecap: round"/>
     </g>
     <g id="text_6">
      <!-- 0.2 -->
      <g style="fill: #262626" transform="translate(24.93 274.495803)scale(0.1 -0.1)">
       <defs>
        <path id="ArialMT-32" d="M 3222 541 
L 3222 0 
L 194 0 
Q 188 203 259 391 
Q 375 700 629 1000 
Q 884 1300 1366 1694 
Q 2113 2306 2375 2664 
Q 2638 3022 2638 3341 
Q 2638 3675 2398 3904 
Q 2159 4134 1775 4134 
Q 1369 4134 1125 3890 
Q 881 3647 878 3216 
L 300 3275 
Q 359 3922 746 4261 
Q 1134 4600 1788 4600 
Q 2447 4600 2831 4234 
Q 3216 3869 3216 3328 
Q 3216 3053 3103 2787 
Q 2991 2522 2730 2228 
Q 2469 1934 1863 1422 
Q 1356 997 1212 845 
Q 1069 694 975 541 
L 3222 541 
z
" transform="scale(0.015625)"/>
       </defs>
       <use xlink:href="#ArialMT-30"/>
       <use xlink:href="#ArialMT-2e" x="55.615234"/>
       <use xlink:href="#ArialMT-32" x="83.398438"/>
      </g>
     </g>
    </g>
    <g id="ytick_3">
     <g id="line2d_3">
      <path d="M 45.83 238.295044 
L 450 238.295044 
" clip-path="url(#p8a0a833048)" style="fill: none; stroke: #cccccc; stroke-width: 0.8; stroke-linecap: round"/>
     </g>
     <g id="text_7">
      <!-- 0.4 -->
      <g style="fill: #262626" transform="translate(24.93 241.87395)scale(0.1 -0.1)">
       <defs>
        <path id="ArialMT-34" d="M 2069 0 
L 2069 1097 
L 81 1097 
L 81 1613 
L 2172 4581 
L 2631 4581 
L 2631 1613 
L 3250 1613 
L 3250 1097 
L 2631 1097 
L 2631 0 
L 2069 0 
z
M 2069 1613 
L 2069 3678 
L 634 1613 
L 2069 1613 
z
" transform="scale(0.015625)"/>
       </defs>
       <use xlink:href="#ArialMT-30"/>
       <use xlink:href="#ArialMT-2e" x="55.615234"/>
       <use xlink:href="#ArialMT-34" x="83.398438"/>
      </g>
     </g>
    </g>
    <g id="ytick_4">
     <g id="line2d_4">
      <path d="M 45.83 205.673191 
L 450 205.673191 
" clip-path="url(#p8a0a833048)" style="fill: none; stroke: #cccccc; stroke-width: 0.8; stroke-linecap: round"/>
     </g>
     <g id="text_8">
      <!-- 0.6 -->
      <g style="fill: #262626" transform="translate(24.93 209.252097)scale(0.1 -0.1)">
       <defs>
        <path id="ArialMT-36" d="M 3184 3459 
L 2625 3416 
Q 2550 3747 2413 3897 
Q 2184 4138 1850 4138 
Q 1581 4138 1378 3988 
Q 1113 3794 959 3422 
Q 806 3050 800 2363 
Q 1003 2672 1297 2822 
Q 1591 2972 1913 2972 
Q 2475 2972 2870 2558 
Q 3266 2144 3266 1488 
Q 3266 1056 3080 686 
Q 2894 316 2569 119 
Q 2244 -78 1831 -78 
Q 1128 -78 684 439 
Q 241 956 241 2144 
Q 241 3472 731 4075 
Q 1159 4600 1884 4600 
Q 2425 4600 2770 4297 
Q 3116 3994 3184 3459 
z
M 888 1484 
Q 888 1194 1011 928 
Q 1134 663 1356 523 
Q 1578 384 1822 384 
Q 2178 384 2434 671 
Q 2691 959 2691 1453 
Q 2691 1928 2437 2201 
Q 2184 2475 1800 2475 
Q 1419 2475 1153 2201 
Q 888 1928 888 1484 
z
" transform="scale(0.015625)"/>
       </defs>
       <use xlink:href="#ArialMT-30"/>
       <use xlink:href="#ArialMT-2e" x="55.615234"/>
       <use xlink:href="#ArialMT-36" x="83.398438"/>
      </g>
     </g>
    </g>
    <g id="ytick_5">
     <g id="line2d_5">
      <path d="M 45.83 173.051338 
L 450 173.051338 
" clip-path="url(#p8a0a833048)" style="fill: none; stroke: #cccccc; stroke-width: 0.8; stroke-linecap: round"/>
     </g>
     <g id="text_9">
      <!-- 0.8 -->
      <g style="fill: #262626" transform="translate(24.93 176.630244)scale(0.1 -0.1)">
       <defs>
        <path id="ArialMT-38" d="M 1131 2484 
Q 781 2613 612 2850 
Q 444 3088 444 3419 
Q 444 3919 803 4259 
Q 1163 4600 1759 4600 
Q 2359 4600 2725 4251 
Q 3091 3903 3091 3403 
Q 3091 3084 2923 2848 
Q 2756 2613 2416 2484 
Q 2838 2347 3058 2040 
Q 3278 1734 3278 1309 
Q 3278 722 2862 322 
Q 2447 -78 1769 -78 
Q 1091 -78 675 323 
Q 259 725 259 1325 
Q 259 1772 486 2073 
Q 713 2375 1131 2484 
z
M 1019 3438 
Q 1019 3113 1228 2906 
Q 1438 2700 1772 2700 
Q 2097 2700 2305 2904 
Q 2513 3109 2513 3406 
Q 2513 3716 2298 3927 
Q 2084 4138 1766 4138 
Q 1444 4138 1231 3931 
Q 1019 3725 1019 3438 
z
M 838 1322 
Q 838 1081 952 856 
Q 1066 631 1291 507 
Q 1516 384 1775 384 
Q 2178 384 2440 643 
Q 2703 903 2703 1303 
Q 2703 1709 2433 1975 
Q 2163 2241 1756 2241 
Q 1359 2241 1098 1978 
Q 838 1716 838 1322 
z
" transform="scale(0.015625)"/>
       </defs>
       <use xlink:href="#ArialMT-30"/>
       <use xlink:href="#ArialMT-2e" x="55.615234"/>
       <use xlink:href="#ArialMT-38" x="83.398438"/>
      </g>
     </g>
    </g>
    <g id="ytick_6">
     <g id="line2d_6">
      <path d="M 45.83 140.429484 
L 450 140.429484 
" clip-path="url(#p8a0a833048)" style="fill: none; stroke: #cccccc; stroke-width: 0.8; stroke-linecap: round"/>
     </g>
     <g id="text_10">
      <!-- 1.0 -->
      <g style="fill: #262626" transform="translate(24.93 144.008391)scale(0.1 -0.1)">
       <use xlink:href="#ArialMT-31"/>
       <use xlink:href="#ArialMT-2e" x="55.615234"/>
       <use xlink:href="#ArialMT-30" x="83.398438"/>
      </g>
     </g>
    </g>
    <g id="ytick_7">
     <g id="line2d_7">
      <path d="M 45.83 107.807631 
L 450 107.807631 
" clip-path="url(#p8a0a833048)" style="fill: none; stroke: #cccccc; stroke-width: 0.8; stroke-linecap: round"/>
     </g>
     <g id="text_11">
      <!-- 1.2 -->
      <g style="fill: #262626" transform="translate(24.93 111.386538)scale(0.1 -0.1)">
       <use xlink:href="#ArialMT-31"/>
       <use xlink:href="#ArialMT-2e" x="55.615234"/>
       <use xlink:href="#ArialMT-32" x="83.398438"/>
      </g>
     </g>
    </g>
    <g id="text_12">
     <!-- PercentGpA -->
     <g style="fill: #262626" transform="translate(18.9425 220.32677)rotate(-90)scale(0.1 -0.1)">
      <defs>
       <path id="ArialMT-50" d="M 494 0 
L 494 4581 
L 2222 4581 
Q 2678 4581 2919 4538 
Q 3256 4481 3484 4323 
Q 3713 4166 3852 3881 
Q 3991 3597 3991 3256 
Q 3991 2672 3619 2267 
Q 3247 1863 2275 1863 
L 1100 1863 
L 1100 0 
L 494 0 
z
M 1100 2403 
L 2284 2403 
Q 2872 2403 3119 2622 
Q 3366 2841 3366 3238 
Q 3366 3525 3220 3729 
Q 3075 3934 2838 4000 
Q 2684 4041 2272 4041 
L 1100 4041 
L 1100 2403 
z
" transform="scale(0.015625)"/>
       <path id="ArialMT-65" d="M 2694 1069 
L 3275 997 
Q 3138 488 2766 206 
Q 2394 -75 1816 -75 
Q 1088 -75 661 373 
Q 234 822 234 1631 
Q 234 2469 665 2931 
Q 1097 3394 1784 3394 
Q 2450 3394 2872 2941 
Q 3294 2488 3294 1666 
Q 3294 1616 3291 1516 
L 816 1516 
Q 847 969 1125 678 
Q 1403 388 1819 388 
Q 2128 388 2347 550 
Q 2566 713 2694 1069 
z
M 847 1978 
L 2700 1978 
Q 2663 2397 2488 2606 
Q 2219 2931 1791 2931 
Q 1403 2931 1139 2672 
Q 875 2413 847 1978 
z
" transform="scale(0.015625)"/>
       <path id="ArialMT-72" d="M 416 0 
L 416 3319 
L 922 3319 
L 922 2816 
Q 1116 3169 1280 3281 
Q 1444 3394 1641 3394 
Q 1925 3394 2219 3213 
L 2025 2691 
Q 1819 2813 1613 2813 
Q 1428 2813 1281 2702 
Q 1134 2591 1072 2394 
Q 978 2094 978 1738 
L 978 0 
L 416 0 
z
" transform="scale(0.015625)"/>
       <path id="ArialMT-63" d="M 2588 1216 
L 3141 1144 
Q 3050 572 2676 248 
Q 2303 -75 1759 -75 
Q 1078 -75 664 370 
Q 250 816 250 1647 
Q 250 2184 428 2587 
Q 606 2991 970 3192 
Q 1334 3394 1763 3394 
Q 2303 3394 2647 3120 
Q 2991 2847 3088 2344 
L 2541 2259 
Q 2463 2594 2264 2762 
Q 2066 2931 1784 2931 
Q 1359 2931 1093 2626 
Q 828 2322 828 1663 
Q 828 994 1084 691 
Q 1341 388 1753 388 
Q 2084 388 2306 591 
Q 2528 794 2588 1216 
z
" transform="scale(0.015625)"/>
       <path id="ArialMT-6e" d="M 422 0 
L 422 3319 
L 928 3319 
L 928 2847 
Q 1294 3394 1984 3394 
Q 2284 3394 2536 3286 
Q 2788 3178 2913 3003 
Q 3038 2828 3088 2588 
Q 3119 2431 3119 2041 
L 3119 0 
L 2556 0 
L 2556 2019 
Q 2556 2363 2490 2533 
Q 2425 2703 2258 2804 
Q 2091 2906 1866 2906 
Q 1506 2906 1245 2678 
Q 984 2450 984 1813 
L 984 0 
L 422 0 
z
" transform="scale(0.015625)"/>
       <path id="ArialMT-47" d="M 2638 1797 
L 2638 2334 
L 4578 2338 
L 4578 638 
Q 4131 281 3656 101 
Q 3181 -78 2681 -78 
Q 2006 -78 1454 211 
Q 903 500 622 1047 
Q 341 1594 341 2269 
Q 341 2938 620 3517 
Q 900 4097 1425 4378 
Q 1950 4659 2634 4659 
Q 3131 4659 3532 4498 
Q 3934 4338 4162 4050 
Q 4391 3763 4509 3300 
L 3963 3150 
Q 3859 3500 3706 3700 
Q 3553 3900 3268 4020 
Q 2984 4141 2638 4141 
Q 2222 4141 1919 4014 
Q 1616 3888 1430 3681 
Q 1244 3475 1141 3228 
Q 966 2803 966 2306 
Q 966 1694 1177 1281 
Q 1388 869 1791 669 
Q 2194 469 2647 469 
Q 3041 469 3416 620 
Q 3791 772 3984 944 
L 3984 1797 
L 2638 1797 
z
" transform="scale(0.015625)"/>
      </defs>
      <use xlink:href="#ArialMT-50"/>
      <use xlink:href="#ArialMT-65" x="66.699219"/>
      <use xlink:href="#ArialMT-72" x="122.314453"/>
      <use xlink:href="#ArialMT-63" x="155.615234"/>
      <use xlink:href="#ArialMT-65" x="205.615234"/>
      <use xlink:href="#ArialMT-6e" x="261.230469"/>
      <use xlink:href="#ArialMT-74" x="316.845703"/>
      <use xlink:href="#ArialMT-47" x="344.628906"/>
      <use xlink:href="#ArialMT-70" x="422.412109"/>
      <use xlink:href="#ArialMT-41" x="478.027344"/>
     </g>
    </g>
   </g>
   <g id="patch_3">
    <path d="M 59.841227 274.383134 
L 112.652773 274.383134 
L 112.652773 260.642118 
L 59.841227 260.642118 
L 59.841227 274.383134 
z
" clip-path="url(#p8a0a833048)" style="fill: #ecf2ec; stroke: #262626; stroke-width: 1.5; stroke-linejoin: miter"/>
   </g>
   <g id="patch_4">
    <path d="M 113.73056 265.215418 
L 166.542107 265.215418 
L 166.542107 163.358211 
L 113.73056 163.358211 
L 113.73056 265.215418 
z
" clip-path="url(#p8a0a833048)" style="fill: #107010; stroke: #262626; stroke-width: 1.5; stroke-linejoin: miter"/>
   </g>
   <g id="patch_5">
    <path d="M 194.56456 271.708916 
L 247.376107 271.708916 
L 247.376107 257.736229 
L 194.56456 257.736229 
L 194.56456 271.708916 
z
" clip-path="url(#p8a0a833048)" style="fill: #ecf2ec; stroke: #262626; stroke-width: 1.5; stroke-linejoin: miter"/>
   </g>
   <g id="patch_6">
    <path d="M 248.453893 258.262627 
L 301.26544 258.262627 
L 301.26544 218.699637 
L 248.453893 218.699637 
L 248.453893 258.262627 
z
" clip-path="url(#p8a0a833048)" style="fill: #107010; stroke: #262626; stroke-width: 1.5; stroke-linejoin: miter"/>
   </g>
   <g id="patch_7">
    <path d="M 329.287893 274.90284 
L 382.09944 274.90284 
L 382.09944 256.639829 
L 329.287893 256.639829 
L 329.287893 274.90284 
z
" clip-path="url(#p8a0a833048)" style="fill: #ecf2ec; stroke: #262626; stroke-width: 1.5; stroke-linejoin: miter"/>
   </g>
   <g id="patch_8">
    <path d="M 383.177227 252.433143 
L 435.988773 252.433143 
L 435.988773 148.001003 
L 383.177227 148.001003 
L 383.177227 252.433143 
z
" clip-path="url(#p8a0a833048)" style="fill: #107010; stroke: #262626; stroke-width: 1.5; stroke-linejoin: miter"/>
   </g>
   <g id="patch_9">
    <path d="M 113.191667 303.53875 
L 113.191667 303.53875 
L 113.191667 303.53875 
L 113.191667 303.53875 
z
" clip-path="url(#p8a0a833048)" style="fill: #ecf2ec; stroke: #262626; stroke-width: 0.75; stroke-linejoin: miter"/>
   </g>
   <g id="patch_10">
    <path d="M 113.191667 303.53875 
L 113.191667 303.53875 
L 113.191667 303.53875 
L 113.191667 303.53875 
z
" clip-path="url(#p8a0a833048)" style="fill: #107010; stroke: #262626; stroke-width: 0.75; stroke-linejoin: miter"/>
   </g>
   <g id="PathCollection_1"/>
   <g id="PathCollection_2"/>
   <g id="line2d_8">
    <path d="M 86.247 274.383134 
L 86.247 283.088984 
" clip-path="url(#p8a0a833048)" style="fill: none; stroke: #262626; stroke-width: 1.5; stroke-linecap: round"/>
   </g>
   <g id="line2d_9">
    <path d="M 86.247 260.642118 
L 86.247 246.093774 
" clip-path="url(#p8a0a833048)" style="fill: none; stroke: #262626; stroke-width: 1.5; stroke-linecap: round"/>
   </g>
   <g id="line2d_10">
    <path d="M 73.044113 283.088984 
L 99.449887 283.088984 
" clip-path="url(#p8a0a833048)" style="fill: none; stroke: #262626; stroke-width: 1.5; stroke-linecap: round"/>
   </g>
   <g id="line2d_11">
    <path d="M 73.044113 246.093774 
L 99.449887 246.093774 
" clip-path="url(#p8a0a833048)" style="fill: none; stroke: #262626; stroke-width: 1.5; stroke-linecap: round"/>
   </g>
   <g id="line2d_12"/>
   <g id="line2d_13">
    <path d="M 140.136333 265.215418 
L 140.136333 278.736752 
" clip-path="url(#p8a0a833048)" style="fill: none; stroke: #262626; stroke-width: 1.5; stroke-linecap: round"/>
   </g>
   <g id="line2d_14">
    <path d="M 140.136333 163.358211 
L 140.136333 102.725775 
" clip-path="url(#p8a0a833048)" style="fill: none; stroke: #262626; stroke-width: 1.5; stroke-linecap: round"/>
   </g>
   <g id="line2d_15">
    <path d="M 126.933447 278.736752 
L 153.33922 278.736752 
" clip-path="url(#p8a0a833048)" style="fill: none; stroke: #262626; stroke-width: 1.5; stroke-linecap: round"/>
   </g>
   <g id="line2d_16">
    <path d="M 126.933447 102.725775 
L 153.33922 102.725775 
" clip-path="url(#p8a0a833048)" style="fill: none; stroke: #262626; stroke-width: 1.5; stroke-linecap: round"/>
   </g>
   <g id="line2d_17"/>
   <g id="line2d_18">
    <path d="M 220.970333 271.708916 
L 220.970333 282.389976 
" clip-path="url(#p8a0a833048)" style="fill: none; stroke: #262626; stroke-width: 1.5; stroke-linecap: round"/>
   </g>
   <g id="line2d_19">
    <path d="M 220.970333 257.736229 
L 220.970333 242.886597 
" clip-path="url(#p8a0a833048)" style="fill: none; stroke: #262626; stroke-width: 1.5; stroke-linecap: round"/>
   </g>
   <g id="line2d_20">
    <path d="M 207.767447 282.389976 
L 234.17322 282.389976 
" clip-path="url(#p8a0a833048)" style="fill: none; stroke: #262626; stroke-width: 1.5; stroke-linecap: round"/>
   </g>
   <g id="line2d_21">
    <path d="M 207.767447 242.886597 
L 234.17322 242.886597 
" clip-path="url(#p8a0a833048)" style="fill: none; stroke: #262626; stroke-width: 1.5; stroke-linecap: round"/>
   </g>
   <g id="line2d_22">
    <defs>
     <path id="mc0ed27fb9f" d="M -0 1.414214 
L 0.848528 0 
L 0 -1.414214 
L -0.848528 -0 
z
" style="stroke: #262626; stroke-linejoin: miter"/>
    </defs>
    <g clip-path="url(#p8a0a833048)">
     <use xlink:href="#mc0ed27fb9f" x="220.970333" y="167.772045" style="fill: #262626; stroke: #262626; stroke-linejoin: miter"/>
    </g>
   </g>
   <g id="line2d_23">
    <path d="M 274.859667 258.262627 
L 274.859667 279.99789 
" clip-path="url(#p8a0a833048)" style="fill: none; stroke: #262626; stroke-width: 1.5; stroke-linecap: round"/>
   </g>
   <g id="line2d_24">
    <path d="M 274.859667 218.699637 
L 274.859667 171.542375 
" clip-path="url(#p8a0a833048)" style="fill: none; stroke: #262626; stroke-width: 1.5; stroke-linecap: round"/>
   </g>
   <g id="line2d_25">
    <path d="M 261.65678 279.99789 
L 288.062553 279.99789 
" clip-path="url(#p8a0a833048)" style="fill: none; stroke: #262626; stroke-width: 1.5; stroke-linecap: round"/>
   </g>
   <g id="line2d_26">
    <path d="M 261.65678 171.542375 
L 288.062553 171.542375 
" clip-path="url(#p8a0a833048)" style="fill: none; stroke: #262626; stroke-width: 1.5; stroke-linecap: round"/>
   </g>
   <g id="line2d_27">
    <g clip-path="url(#p8a0a833048)">
     <use xlink:href="#mc0ed27fb9f" x="274.859667" y="125.714148" style="fill: #262626; stroke: #262626; stroke-linejoin: miter"/>
    </g>
   </g>
   <g id="line2d_28">
    <path d="M 355.693667 274.90284 
L 355.693667 283.641801 
" clip-path="url(#p8a0a833048)" style="fill: none; stroke: #262626; stroke-width: 1.5; stroke-linecap: round"/>
   </g>
   <g id="line2d_29">
    <path d="M 355.693667 256.639829 
L 355.693667 251.423549 
" clip-path="url(#p8a0a833048)" style="fill: none; stroke: #262626; stroke-width: 1.5; stroke-linecap: round"/>
   </g>
   <g id="line2d_30">
    <path d="M 342.49078 283.641801 
L 368.896553 283.641801 
" clip-path="url(#p8a0a833048)" style="fill: none; stroke: #262626; stroke-width: 1.5; stroke-linecap: round"/>
   </g>
   <g id="line2d_31">
    <path d="M 342.49078 251.423549 
L 368.896553 251.423549 
" clip-path="url(#p8a0a833048)" style="fill: none; stroke: #262626; stroke-width: 1.5; stroke-linecap: round"/>
   </g>
   <g id="line2d_32"/>
   <g id="line2d_33">
    <path d="M 409.583 252.433143 
L 409.583 252.796058 
" clip-path="url(#p8a0a833048)" style="fill: none; stroke: #262626; stroke-width: 1.5; stroke-linecap: round"/>
   </g>
   <g id="line2d_34">
    <path d="M 409.583 148.001003 
L 409.583 147.963744 
" clip-path="url(#p8a0a833048)" style="fill: none; stroke: #262626; stroke-width: 1.5; stroke-linecap: round"/>
   </g>
   <g id="line2d_35">
    <path d="M 396.380113 252.796058 
L 422.785887 252.796058 
" clip-path="url(#p8a0a833048)" style="fill: none; stroke: #262626; stroke-width: 1.5; stroke-linecap: round"/>
   </g>
   <g id="line2d_36">
    <path d="M 396.380113 147.963744 
L 422.785887 147.963744 
" clip-path="url(#p8a0a833048)" style="fill: none; stroke: #262626; stroke-width: 1.5; stroke-linecap: round"/>
   </g>
   <g id="line2d_37"/>
   <g id="line2d_38">
    <path d="M 59.841227 269.319622 
L 112.652773 269.319622 
" clip-path="url(#p8a0a833048)" style="fill: none; stroke: #262626; stroke-width: 1.5; stroke-linecap: round"/>
   </g>
   <g id="line2d_39">
    <path d="M 113.73056 258.310307 
L 166.542107 258.310307 
" clip-path="url(#p8a0a833048)" style="fill: none; stroke: #262626; stroke-width: 1.5; stroke-linecap: round"/>
   </g>
   <g id="line2d_40">
    <path d="M 194.56456 265.149992 
L 247.376107 265.149992 
" clip-path="url(#p8a0a833048)" style="fill: none; stroke: #262626; stroke-width: 1.5; stroke-linecap: round"/>
   </g>
   <g id="line2d_41">
    <path d="M 248.453893 246.210771 
L 301.26544 246.210771 
" clip-path="url(#p8a0a833048)" style="fill: none; stroke: #262626; stroke-width: 1.5; stroke-linecap: round"/>
   </g>
   <g id="line2d_42">
    <path d="M 329.287893 269.288553 
L 382.09944 269.288553 
" clip-path="url(#p8a0a833048)" style="fill: none; stroke: #262626; stroke-width: 1.5; stroke-linecap: round"/>
   </g>
   <g id="line2d_43">
    <path d="M 383.177227 200.162797 
L 435.988773 200.162797 
" clip-path="url(#p8a0a833048)" style="fill: none; stroke: #262626; stroke-width: 1.5; stroke-linecap: round"/>
   </g>
   <g id="patch_11">
    <path d="M 45.83 303.53875 
L 45.83 82.644478 
" style="fill: none; stroke: #cccccc; stroke-width: 0.8; stroke-linejoin: miter; stroke-linecap: square"/>
   </g>
   <g id="patch_12">
    <path d="M 450 303.53875 
L 450 82.644478 
" style="fill: none; stroke: #cccccc; stroke-width: 0.8; stroke-linejoin: miter; stroke-linecap: square"/>
   </g>
   <g id="patch_13">
    <path d="M 45.83 303.53875 
L 450 303.53875 
" style="fill: none; stroke: #cccccc; stroke-width: 0.8; stroke-linejoin: miter; stroke-linecap: square"/>
   </g>
   <g id="patch_14">
    <path d="M 45.83 82.644478 
L 450 82.644478 
" style="fill: none; stroke: #cccccc; stroke-width: 0.8; stroke-linejoin: miter; stroke-linecap: square"/>
   </g>
   <g id="PathCollection_3">
    <defs>
     <path id="C0_0_4d178165ac" d="M 0 1 
C 0.265203 1 0.51958 0.894634 0.707107 0.707107 
C 0.894634 0.51958 1 0.265203 1 -0 
C 1 -0.265203 0.894634 -0.51958 0.707107 -0.707107 
C 0.51958 -0.894634 0.265203 -1 0 -1 
C -0.265203 -1 -0.51958 -0.894634 -0.707107 -0.707107 
C -0.894634 -0.51958 -1 -0.265203 -1 0 
C -1 0.265203 -0.894634 0.51958 -0.707107 0.707107 
C -0.51958 0.894634 -0.265203 1 0 1 
z
"/>
    </defs>
    <g clip-path="url(#p8a0a833048)">
     <use xlink:href="#C0_0_4d178165ac" x="90.421473" y="260.350687" style="fill: #262626"/>
    </g>
    <g clip-path="url(#p8a0a833048)">
     <use xlink:href="#C0_0_4d178165ac" x="83.570413" y="273.510395" style="fill: #262626"/>
    </g>
    <g clip-path="url(#p8a0a833048)">
     <use xlink:href="#C0_0_4d178165ac" x="80.207807" y="251.323466" style="fill: #262626"/>
    </g>
    <g clip-path="url(#p8a0a833048)">
     <use xlink:href="#C0_0_4d178165ac" x="90.215511" y="269.762591" style="fill: #262626"/>
    </g>
    <g clip-path="url(#p8a0a833048)">
     <use xlink:href="#C0_0_4d178165ac" x="91.918651" y="274.567411" style="fill: #262626"/>
    </g>
    <g clip-path="url(#p8a0a833048)">
     <use xlink:href="#C0_0_4d178165ac" x="85.183681" y="265.027814" style="fill: #262626"/>
    </g>
    <g clip-path="url(#p8a0a833048)">
     <use xlink:href="#C0_0_4d178165ac" x="84.204986" y="246.093774" style="fill: #262626"/>
    </g>
    <g clip-path="url(#p8a0a833048)">
     <use xlink:href="#C0_0_4d178165ac" x="86.294771" y="261.516409" style="fill: #262626"/>
    </g>
    <g clip-path="url(#p8a0a833048)">
     <use xlink:href="#C0_0_4d178165ac" x="90.602138" y="273.287342" style="fill: #262626"/>
    </g>
    <g clip-path="url(#p8a0a833048)">
     <use xlink:href="#C0_0_4d178165ac" x="85.256037" y="280.079516" style="fill: #262626"/>
    </g>
    <g clip-path="url(#p8a0a833048)">
     <use xlink:href="#C0_0_4d178165ac" x="88.257124" y="250.461469" style="fill: #262626"/>
    </g>
    <g clip-path="url(#p8a0a833048)">
     <use xlink:href="#C0_0_4d178165ac" x="81.20274" y="266.288341" style="fill: #262626"/>
    </g>
    <g clip-path="url(#p8a0a833048)">
     <use xlink:href="#C0_0_4d178165ac" x="81.902754" y="279.642287" style="fill: #262626"/>
    </g>
    <g clip-path="url(#p8a0a833048)">
     <use xlink:href="#C0_0_4d178165ac" x="84.540475" y="253.838882" style="fill: #262626"/>
    </g>
    <g clip-path="url(#p8a0a833048)">
     <use xlink:href="#C0_0_4d178165ac" x="86.942055" y="276.363132" style="fill: #262626"/>
    </g>
    <g clip-path="url(#p8a0a833048)">
     <use xlink:href="#C0_0_4d178165ac" x="87.179232" y="276.141618" style="fill: #262626"/>
    </g>
    <g clip-path="url(#p8a0a833048)">
     <use xlink:href="#C0_0_4d178165ac" x="87.234197" y="260.128165" style="fill: #262626"/>
    </g>
    <g clip-path="url(#p8a0a833048)">
     <use xlink:href="#C0_0_4d178165ac" x="85.88582" y="278.462527" style="fill: #262626"/>
    </g>
    <g clip-path="url(#p8a0a833048)">
     <use xlink:href="#C0_0_4d178165ac" x="80.184972" y="256.642554" style="fill: #262626"/>
    </g>
    <g clip-path="url(#p8a0a833048)">
     <use xlink:href="#C0_0_4d178165ac" x="91.48982" y="246.22105" style="fill: #262626"/>
    </g>
    <g clip-path="url(#p8a0a833048)">
     <use xlink:href="#C0_0_4d178165ac" x="80.905746" y="273.830305" style="fill: #262626"/>
    </g>
    <g clip-path="url(#p8a0a833048)">
     <use xlink:href="#C0_0_4d178165ac" x="91.849295" y="266.287165" style="fill: #262626"/>
    </g>
    <g clip-path="url(#p8a0a833048)">
     <use xlink:href="#C0_0_4d178165ac" x="87.125721" y="264.76466" style="fill: #262626"/>
    </g>
    <g clip-path="url(#p8a0a833048)">
     <use xlink:href="#C0_0_4d178165ac" x="89.890682" y="278.259259" style="fill: #262626"/>
    </g>
    <g clip-path="url(#p8a0a833048)">
     <use xlink:href="#C0_0_4d178165ac" x="92.615509" y="256.431789" style="fill: #262626"/>
    </g>
    <g clip-path="url(#p8a0a833048)">
     <use xlink:href="#C0_0_4d178165ac" x="82.536822" y="282.819317" style="fill: #262626"/>
    </g>
    <g clip-path="url(#p8a0a833048)">
     <use xlink:href="#C0_0_4d178165ac" x="91.882417" y="283.088984" style="fill: #262626"/>
    </g>
    <g clip-path="url(#p8a0a833048)">
     <use xlink:href="#C0_0_4d178165ac" x="88.28896" y="268.876652" style="fill: #262626"/>
    </g>
    <g clip-path="url(#p8a0a833048)">
     <use xlink:href="#C0_0_4d178165ac" x="83.364868" y="281.964262" style="fill: #262626"/>
    </g>
    <g clip-path="url(#p8a0a833048)">
     <use xlink:href="#C0_0_4d178165ac" x="89.504496" y="259.018788" style="fill: #262626"/>
    </g>
    <g clip-path="url(#p8a0a833048)">
     <use xlink:href="#C0_0_4d178165ac" x="85.779394" y="271.440509" style="fill: #262626"/>
    </g>
    <g clip-path="url(#p8a0a833048)">
     <use xlink:href="#C0_0_4d178165ac" x="85.234317" y="266.698824" style="fill: #262626"/>
    </g>
    <g clip-path="url(#p8a0a833048)">
     <use xlink:href="#C0_0_4d178165ac" x="82.802609" y="270.824795" style="fill: #262626"/>
    </g>
    <g clip-path="url(#p8a0a833048)">
     <use xlink:href="#C0_0_4d178165ac" x="87.908793" y="264.406922" style="fill: #262626"/>
    </g>
    <g clip-path="url(#p8a0a833048)">
     <use xlink:href="#C0_0_4d178165ac" x="89.461854" y="261.809825" style="fill: #262626"/>
    </g>
    <g clip-path="url(#p8a0a833048)">
     <use xlink:href="#C0_0_4d178165ac" x="86.147275" y="271.09881" style="fill: #262626"/>
    </g>
    <g clip-path="url(#p8a0a833048)">
     <use xlink:href="#C0_0_4d178165ac" x="85.859871" y="271.552471" style="fill: #262626"/>
    </g>
    <g clip-path="url(#p8a0a833048)">
     <use xlink:href="#C0_0_4d178165ac" x="81.74277" y="273.326911" style="fill: #262626"/>
    </g>
   </g>
   <g id="PathCollection_4">
    <defs>
     <path id="C1_0_7f74a22517" d="M 0 1 
C 0.265203 1 0.51958 0.894634 0.707107 0.707107 
C 0.894634 0.51958 1 0.265203 1 -0 
C 1 -0.265203 0.894634 -0.51958 0.707107 -0.707107 
C 0.51958 -0.894634 0.265203 -1 0 -1 
C -0.265203 -1 -0.51958 -0.894634 -0.707107 -0.707107 
C -0.894634 -0.51958 -1 -0.265203 -1 0 
C -1 0.265203 -0.894634 0.51958 -0.707107 0.707107 
C -0.51958 0.894634 -0.265203 1 0 1 
z
"/>
    </defs>
    <g clip-path="url(#p8a0a833048)">
     <use xlink:href="#C1_0_7f74a22517" x="135.597925" y="273.896329"/>
    </g>
    <g clip-path="url(#p8a0a833048)">
     <use xlink:href="#C1_0_7f74a22517" x="139.313111" y="265.205731"/>
    </g>
    <g clip-path="url(#p8a0a833048)">
     <use xlink:href="#C1_0_7f74a22517" x="140.307829" y="231.11121"/>
    </g>
    <g clip-path="url(#p8a0a833048)">
     <use xlink:href="#C1_0_7f74a22517" x="141.400816" y="262.121566"/>
    </g>
    <g clip-path="url(#p8a0a833048)">
     <use xlink:href="#C1_0_7f74a22517" x="134.289082" y="275.523"/>
    </g>
    <g clip-path="url(#p8a0a833048)">
     <use xlink:href="#C1_0_7f74a22517" x="145.393102" y="257.317541"/>
    </g>
    <g clip-path="url(#p8a0a833048)">
     <use xlink:href="#C1_0_7f74a22517" x="145.723706" y="120.712943"/>
    </g>
    <g clip-path="url(#p8a0a833048)">
     <use xlink:href="#C1_0_7f74a22517" x="146.266985" y="122.067577"/>
    </g>
    <g clip-path="url(#p8a0a833048)">
     <use xlink:href="#C1_0_7f74a22517" x="134.144977" y="235.955159"/>
    </g>
    <g clip-path="url(#p8a0a833048)">
     <use xlink:href="#C1_0_7f74a22517" x="139.467931" y="265.244477"/>
    </g>
    <g clip-path="url(#p8a0a833048)">
     <use xlink:href="#C1_0_7f74a22517" x="134.254105" y="155.262685"/>
    </g>
    <g clip-path="url(#p8a0a833048)">
     <use xlink:href="#C1_0_7f74a22517" x="141.70992" y="147.688531"/>
    </g>
    <g clip-path="url(#p8a0a833048)">
     <use xlink:href="#C1_0_7f74a22517" x="134.786108" y="259.303073"/>
    </g>
    <g clip-path="url(#p8a0a833048)">
     <use xlink:href="#C1_0_7f74a22517" x="143.501309" y="102.725775"/>
    </g>
    <g clip-path="url(#p8a0a833048)">
     <use xlink:href="#C1_0_7f74a22517" x="138.418561" y="216.39464"/>
    </g>
    <g clip-path="url(#p8a0a833048)">
     <use xlink:href="#C1_0_7f74a22517" x="140.270496" y="263.054507"/>
    </g>
    <g clip-path="url(#p8a0a833048)">
     <use xlink:href="#C1_0_7f74a22517" x="140.197127" y="268.04822"/>
    </g>
    <g clip-path="url(#p8a0a833048)">
     <use xlink:href="#C1_0_7f74a22517" x="135.035484" y="278.736752"/>
    </g>
    <g clip-path="url(#p8a0a833048)">
     <use xlink:href="#C1_0_7f74a22517" x="135.921254" y="166.05672"/>
    </g>
    <g clip-path="url(#p8a0a833048)">
     <use xlink:href="#C1_0_7f74a22517" x="139.313702" y="260.980588"/>
    </g>
   </g>
   <g id="PathCollection_5">
    <defs>
     <path id="C2_0_06b8d6f38b" d="M 0 1 
C 0.265203 1 0.51958 0.894634 0.707107 0.707107 
C 0.894634 0.51958 1 0.265203 1 -0 
C 1 -0.265203 0.894634 -0.51958 0.707107 -0.707107 
C 0.51958 -0.894634 0.265203 -1 0 -1 
C -0.265203 -1 -0.51958 -0.894634 -0.707107 -0.707107 
C -0.894634 -0.51958 -1 -0.265203 -1 0 
C -1 0.265203 -0.894634 0.51958 -0.707107 0.707107 
C -0.51958 0.894634 -0.265203 1 0 1 
z
"/>
    </defs>
    <g clip-path="url(#p8a0a833048)">
     <use xlink:href="#C2_0_06b8d6f38b" x="225.441523" y="251.862225" style="fill: #262626"/>
    </g>
    <g clip-path="url(#p8a0a833048)">
     <use xlink:href="#C2_0_06b8d6f38b" x="218.19853" y="242.886597" style="fill: #262626"/>
    </g>
    <g clip-path="url(#p8a0a833048)">
     <use xlink:href="#C2_0_06b8d6f38b" x="227.063346" y="167.772045" style="fill: #262626"/>
    </g>
    <g clip-path="url(#p8a0a833048)">
     <use xlink:href="#C2_0_06b8d6f38b" x="214.891986" y="270.420761" style="fill: #262626"/>
    </g>
    <g clip-path="url(#p8a0a833048)">
     <use xlink:href="#C2_0_06b8d6f38b" x="215.189249" y="273.307634" style="fill: #262626"/>
    </g>
    <g clip-path="url(#p8a0a833048)">
     <use xlink:href="#C2_0_06b8d6f38b" x="218.626736" y="269.82211" style="fill: #262626"/>
    </g>
    <g clip-path="url(#p8a0a833048)">
     <use xlink:href="#C2_0_06b8d6f38b" x="227.548718" y="265.074902" style="fill: #262626"/>
    </g>
    <g clip-path="url(#p8a0a833048)">
     <use xlink:href="#C2_0_06b8d6f38b" x="214.673966" y="266.764497" style="fill: #262626"/>
    </g>
    <g clip-path="url(#p8a0a833048)">
     <use xlink:href="#C2_0_06b8d6f38b" x="225.106851" y="264.494417" style="fill: #262626"/>
    </g>
    <g clip-path="url(#p8a0a833048)">
     <use xlink:href="#C2_0_06b8d6f38b" x="219.028752" y="271.633926" style="fill: #262626"/>
    </g>
    <g clip-path="url(#p8a0a833048)">
     <use xlink:href="#C2_0_06b8d6f38b" x="227.15264" y="282.389976" style="fill: #262626"/>
    </g>
    <g clip-path="url(#p8a0a833048)">
     <use xlink:href="#C2_0_06b8d6f38b" x="221.626552" y="280.618512" style="fill: #262626"/>
    </g>
    <g clip-path="url(#p8a0a833048)">
     <use xlink:href="#C2_0_06b8d6f38b" x="227.561508" y="257.698336" style="fill: #262626"/>
    </g>
    <g clip-path="url(#p8a0a833048)">
     <use xlink:href="#C2_0_06b8d6f38b" x="218.99818" y="254.532988" style="fill: #262626"/>
    </g>
    <g clip-path="url(#p8a0a833048)">
     <use xlink:href="#C2_0_06b8d6f38b" x="226.08788" y="260.441681" style="fill: #262626"/>
    </g>
    <g clip-path="url(#p8a0a833048)">
     <use xlink:href="#C2_0_06b8d6f38b" x="225.619819" y="265.183202" style="fill: #262626"/>
    </g>
    <g clip-path="url(#p8a0a833048)">
     <use xlink:href="#C2_0_06b8d6f38b" x="223.487972" y="265.116782" style="fill: #262626"/>
    </g>
    <g clip-path="url(#p8a0a833048)">
     <use xlink:href="#C2_0_06b8d6f38b" x="227.505182" y="273.609994" style="fill: #262626"/>
    </g>
    <g clip-path="url(#p8a0a833048)">
     <use xlink:href="#C2_0_06b8d6f38b" x="219.456183" y="257.849908" style="fill: #262626"/>
    </g>
    <g clip-path="url(#p8a0a833048)">
     <use xlink:href="#C2_0_06b8d6f38b" x="226.056959" y="274.886343" style="fill: #262626"/>
    </g>
    <g clip-path="url(#p8a0a833048)">
     <use xlink:href="#C2_0_06b8d6f38b" x="226.750091" y="251.107396" style="fill: #262626"/>
    </g>
    <g clip-path="url(#p8a0a833048)">
     <use xlink:href="#C2_0_06b8d6f38b" x="219.43876" y="275.621066" style="fill: #262626"/>
    </g>
    <g clip-path="url(#p8a0a833048)">
     <use xlink:href="#C2_0_06b8d6f38b" x="219.483785" y="261.655102" style="fill: #262626"/>
    </g>
    <g clip-path="url(#p8a0a833048)">
     <use xlink:href="#C2_0_06b8d6f38b" x="221.949284" y="266.784464" style="fill: #262626"/>
    </g>
    <g clip-path="url(#p8a0a833048)">
     <use xlink:href="#C2_0_06b8d6f38b" x="226.307663" y="254.679884" style="fill: #262626"/>
    </g>
    <g clip-path="url(#p8a0a833048)">
     <use xlink:href="#C2_0_06b8d6f38b" x="221.098825" y="271.733913" style="fill: #262626"/>
    </g>
   </g>
   <g id="PathCollection_6">
    <defs>
     <path id="C3_0_cd403e8c68" d="M 0 1 
C 0.265203 1 0.51958 0.894634 0.707107 0.707107 
C 0.894634 0.51958 1 0.265203 1 -0 
C 1 -0.265203 0.894634 -0.51958 0.707107 -0.707107 
C 0.51958 -0.894634 0.265203 -1 0 -1 
C -0.265203 -1 -0.51958 -0.894634 -0.707107 -0.707107 
C -0.894634 -0.51958 -1 -0.265203 -1 0 
C -1 0.265203 -0.894634 0.51958 -0.707107 0.707107 
C -0.51958 0.894634 -0.265203 1 0 1 
z
"/>
    </defs>
    <g clip-path="url(#p8a0a833048)">
     <use xlink:href="#C3_0_cd403e8c68" x="275.416754" y="232.663218"/>
    </g>
    <g clip-path="url(#p8a0a833048)">
     <use xlink:href="#C3_0_cd403e8c68" x="269.398723" y="176.808895"/>
    </g>
    <g clip-path="url(#p8a0a833048)">
     <use xlink:href="#C3_0_cd403e8c68" x="269.509907" y="253.06015"/>
    </g>
    <g clip-path="url(#p8a0a833048)">
     <use xlink:href="#C3_0_cd403e8c68" x="273.053419" y="261.673221"/>
    </g>
    <g clip-path="url(#p8a0a833048)">
     <use xlink:href="#C3_0_cd403e8c68" x="279.561718" y="255.35266"/>
    </g>
    <g clip-path="url(#p8a0a833048)">
     <use xlink:href="#C3_0_cd403e8c68" x="281.133965" y="237.766288"/>
    </g>
    <g clip-path="url(#p8a0a833048)">
     <use xlink:href="#C3_0_cd403e8c68" x="272.423282" y="258.104013"/>
    </g>
    <g clip-path="url(#p8a0a833048)">
     <use xlink:href="#C3_0_cd403e8c68" x="274.164506" y="279.99789"/>
    </g>
    <g clip-path="url(#p8a0a833048)">
     <use xlink:href="#C3_0_cd403e8c68" x="271.616652" y="239.361393"/>
    </g>
    <g clip-path="url(#p8a0a833048)">
     <use xlink:href="#C3_0_cd403e8c68" x="273.641721" y="258.738471"/>
    </g>
    <g clip-path="url(#p8a0a833048)">
     <use xlink:href="#C3_0_cd403e8c68" x="270.824963" y="171.542375"/>
    </g>
    <g clip-path="url(#p8a0a833048)">
     <use xlink:href="#C3_0_cd403e8c68" x="280.288314" y="125.714148"/>
    </g>
   </g>
   <g id="PathCollection_7">
    <defs>
     <path id="C4_0_39247fd46f" d="M 0 1 
C 0.265203 1 0.51958 0.894634 0.707107 0.707107 
C 0.894634 0.51958 1 0.265203 1 -0 
C 1 -0.265203 0.894634 -0.51958 0.707107 -0.707107 
C 0.51958 -0.894634 0.265203 -1 0 -1 
C -0.265203 -1 -0.51958 -0.894634 -0.707107 -0.707107 
C -0.894634 -0.51958 -1 -0.265203 -1 0 
C -1 0.265203 -0.894634 0.51958 -0.707107 0.707107 
C -0.51958 0.894634 -0.265203 1 0 1 
z
"/>
    </defs>
    <g clip-path="url(#p8a0a833048)">
     <use xlink:href="#C4_0_39247fd46f" x="354.629821" y="283.641801" style="fill: #262626"/>
    </g>
    <g clip-path="url(#p8a0a833048)">
     <use xlink:href="#C4_0_39247fd46f" x="357.468432" y="270.728376" style="fill: #262626"/>
    </g>
    <g clip-path="url(#p8a0a833048)">
     <use xlink:href="#C4_0_39247fd46f" x="358.957549" y="259.135281" style="fill: #262626"/>
    </g>
    <g clip-path="url(#p8a0a833048)">
     <use xlink:href="#C4_0_39247fd46f" x="352.753814" y="269.288553" style="fill: #262626"/>
    </g>
    <g clip-path="url(#p8a0a833048)">
     <use xlink:href="#C4_0_39247fd46f" x="348.97739" y="252.660692" style="fill: #262626"/>
    </g>
    <g clip-path="url(#p8a0a833048)">
     <use xlink:href="#C4_0_39247fd46f" x="358.125485" y="251.423549" style="fill: #262626"/>
    </g>
    <g clip-path="url(#p8a0a833048)">
     <use xlink:href="#C4_0_39247fd46f" x="350.053226" y="272.473218" style="fill: #262626"/>
    </g>
    <g clip-path="url(#p8a0a833048)">
     <use xlink:href="#C4_0_39247fd46f" x="350.973976" y="278.068885" style="fill: #262626"/>
    </g>
    <g clip-path="url(#p8a0a833048)">
     <use xlink:href="#C4_0_39247fd46f" x="350.165112" y="258.329201" style="fill: #262626"/>
    </g>
    <g clip-path="url(#p8a0a833048)">
     <use xlink:href="#C4_0_39247fd46f" x="353.093434" y="254.950458" style="fill: #262626"/>
    </g>
    <g clip-path="url(#p8a0a833048)">
     <use xlink:href="#C4_0_39247fd46f" x="351.9333" y="277.332462" style="fill: #262626"/>
    </g>
   </g>
   <g id="PathCollection_8">
    <defs>
     <path id="C5_0_6444cea851" d="M 0 1 
C 0.265203 1 0.51958 0.894634 0.707107 0.707107 
C 0.894634 0.51958 1 0.265203 1 -0 
C 1 -0.265203 0.894634 -0.51958 0.707107 -0.707107 
C 0.51958 -0.894634 0.265203 -1 0 -1 
C -0.265203 -1 -0.51958 -0.894634 -0.707107 -0.707107 
C -0.894634 -0.51958 -1 -0.265203 -1 0 
C -1 0.265203 -0.894634 0.51958 -0.707107 0.707107 
C -0.51958 0.894634 -0.265203 1 0 1 
z
"/>
    </defs>
    <g clip-path="url(#p8a0a833048)">
     <use xlink:href="#C5_0_6444cea851" x="412.486692" y="252.312171"/>
    </g>
    <g clip-path="url(#p8a0a833048)">
     <use xlink:href="#C5_0_6444cea851" x="409.293485" y="147.963744"/>
    </g>
    <g clip-path="url(#p8a0a833048)">
     <use xlink:href="#C5_0_6444cea851" x="410.503192" y="148.013423"/>
    </g>
    <g clip-path="url(#p8a0a833048)">
     <use xlink:href="#C5_0_6444cea851" x="409.19854" y="252.796058"/>
    </g>
   </g>
   <g id="text_13">
    <!-- 38 -->
    <g style="fill: #262626" transform="translate(92.983167 34.408462)scale(0.1 -0.1)">
     <defs>
      <path id="ArialMT-33" d="M 269 1209 
L 831 1284 
Q 928 806 1161 595 
Q 1394 384 1728 384 
Q 2125 384 2398 659 
Q 2672 934 2672 1341 
Q 2672 1728 2419 1979 
Q 2166 2231 1775 2231 
Q 1616 2231 1378 2169 
L 1441 2663 
Q 1497 2656 1531 2656 
Q 1891 2656 2178 2843 
Q 2466 3031 2466 3422 
Q 2466 3731 2256 3934 
Q 2047 4138 1716 4138 
Q 1388 4138 1169 3931 
Q 950 3725 888 3313 
L 325 3413 
Q 428 3978 793 4289 
Q 1159 4600 1703 4600 
Q 2078 4600 2393 4439 
Q 2709 4278 2876 4000 
Q 3044 3722 3044 3409 
Q 3044 3113 2884 2869 
Q 2725 2625 2413 2481 
Q 2819 2388 3044 2092 
Q 3269 1797 3269 1353 
Q 3269 753 2831 336 
Q 2394 -81 1725 -81 
Q 1122 -81 723 278 
Q 325 638 269 1209 
z
" transform="scale(0.015625)"/>
     </defs>
     <use xlink:href="#ArialMT-33"/>
     <use xlink:href="#ArialMT-38" x="55.615234"/>
    </g>
   </g>
   <g id="text_14">
    <!-- p=2.427122528341207e-05 -->
    <g style="fill: #262626" transform="translate(43.716292 237.938311)scale(0.08 -0.08)">
     <defs>
      <path id="ArialMT-3d" d="M 3381 2694 
L 356 2694 
L 356 3219 
L 3381 3219 
L 3381 2694 
z
M 3381 1303 
L 356 1303 
L 356 1828 
L 3381 1828 
L 3381 1303 
z
" transform="scale(0.015625)"/>
      <path id="ArialMT-2d" d="M 203 1375 
L 203 1941 
L 1931 1941 
L 1931 1375 
L 203 1375 
z
" transform="scale(0.015625)"/>
     </defs>
     <use xlink:href="#ArialMT-70"/>
     <use xlink:href="#ArialMT-3d" x="55.615234"/>
     <use xlink:href="#ArialMT-32" x="114.013672"/>
     <use xlink:href="#ArialMT-2e" x="169.628906"/>
     <use xlink:href="#ArialMT-34" x="197.412109"/>
     <use xlink:href="#ArialMT-32" x="253.027344"/>
     <use xlink:href="#ArialMT-37" x="308.642578"/>
     <use xlink:href="#ArialMT-31" x="364.257812"/>
     <use xlink:href="#ArialMT-32" x="419.873047"/>
     <use xlink:href="#ArialMT-32" x="475.488281"/>
     <use xlink:href="#ArialMT-35" x="531.103516"/>
     <use xlink:href="#ArialMT-32" x="586.71875"/>
     <use xlink:href="#ArialMT-38" x="642.333984"/>
     <use xlink:href="#ArialMT-33" x="697.949219"/>
     <use xlink:href="#ArialMT-34" x="753.564453"/>
     <use xlink:href="#ArialMT-31" x="809.179688"/>
     <use xlink:href="#ArialMT-32" x="864.794922"/>
     <use xlink:href="#ArialMT-30" x="920.410156"/>
     <use xlink:href="#ArialMT-37" x="976.025391"/>
     <use xlink:href="#ArialMT-65" x="1031.640625"/>
     <use xlink:href="#ArialMT-2d" x="1087.255859"/>
     <use xlink:href="#ArialMT-30" x="1120.556641"/>
     <use xlink:href="#ArialMT-35" x="1176.171875"/>
    </g>
   </g>
   <g id="text_15">
    <!-- 20 -->
    <g style="fill: #262626" transform="translate(133.400167 34.408462)scale(0.1 -0.1)">
     <use xlink:href="#ArialMT-32"/>
     <use xlink:href="#ArialMT-30" x="55.615234"/>
    </g>
   </g>
   <g id="text_16">
    <!-- 26 -->
    <g style="fill: #262626" transform="translate(227.7065 34.408462)scale(0.1 -0.1)">
     <use xlink:href="#ArialMT-32"/>
     <use xlink:href="#ArialMT-36" x="55.615234"/>
    </g>
   </g>
   <g id="text_17">
    <!-- p=0.005359017148941212 -->
    <g style="fill: #262626" transform="translate(179.7715 159.616581)scale(0.08 -0.08)">
     <defs>
      <path id="ArialMT-39" d="M 350 1059 
L 891 1109 
Q 959 728 1153 556 
Q 1347 384 1650 384 
Q 1909 384 2104 503 
Q 2300 622 2425 820 
Q 2550 1019 2634 1356 
Q 2719 1694 2719 2044 
Q 2719 2081 2716 2156 
Q 2547 1888 2255 1720 
Q 1963 1553 1622 1553 
Q 1053 1553 659 1965 
Q 266 2378 266 3053 
Q 266 3750 677 4175 
Q 1088 4600 1706 4600 
Q 2153 4600 2523 4359 
Q 2894 4119 3086 3673 
Q 3278 3228 3278 2384 
Q 3278 1506 3087 986 
Q 2897 466 2520 194 
Q 2144 -78 1638 -78 
Q 1100 -78 759 220 
Q 419 519 350 1059 
z
M 2653 3081 
Q 2653 3566 2395 3850 
Q 2138 4134 1775 4134 
Q 1400 4134 1122 3828 
Q 844 3522 844 3034 
Q 844 2597 1108 2323 
Q 1372 2050 1759 2050 
Q 2150 2050 2401 2323 
Q 2653 2597 2653 3081 
z
" transform="scale(0.015625)"/>
     </defs>
     <use xlink:href="#ArialMT-70"/>
     <use xlink:href="#ArialMT-3d" x="55.615234"/>
     <use xlink:href="#ArialMT-30" x="114.013672"/>
     <use xlink:href="#ArialMT-2e" x="169.628906"/>
     <use xlink:href="#ArialMT-30" x="197.412109"/>
     <use xlink:href="#ArialMT-30" x="253.027344"/>
     <use xlink:href="#ArialMT-35" x="308.642578"/>
     <use xlink:href="#ArialMT-33" x="364.257812"/>
     <use xlink:href="#ArialMT-35" x="419.873047"/>
     <use xlink:href="#ArialMT-39" x="475.488281"/>
     <use xlink:href="#ArialMT-30" x="531.103516"/>
     <use xlink:href="#ArialMT-31" x="586.71875"/>
     <use xlink:href="#ArialMT-37" x="642.333984"/>
     <use xlink:href="#ArialMT-31" x="697.949219"/>
     <use xlink:href="#ArialMT-34" x="753.564453"/>
     <use xlink:href="#ArialMT-38" x="809.179688"/>
     <use xlink:href="#ArialMT-39" x="864.794922"/>
     <use xlink:href="#ArialMT-34" x="920.410156"/>
     <use xlink:href="#ArialMT-31" x="976.025391"/>
     <use xlink:href="#ArialMT-32" x="1031.640625"/>
     <use xlink:href="#ArialMT-31" x="1087.255859"/>
     <use xlink:href="#ArialMT-32" x="1142.871094"/>
    </g>
   </g>
   <g id="text_18">
    <!-- 12 -->
    <g style="fill: #262626" transform="translate(268.1235 34.408462)scale(0.1 -0.1)">
     <use xlink:href="#ArialMT-31"/>
     <use xlink:href="#ArialMT-32" x="55.615234"/>
    </g>
   </g>
   <g id="text_19">
    <!-- 11 -->
    <g style="fill: #262626" transform="translate(362.429833 34.408462)scale(0.1 -0.1)">
     <use xlink:href="#ArialMT-31"/>
     <use xlink:href="#ArialMT-31" x="48.240234"/>
    </g>
   </g>
   <g id="text_20">
    <!-- p=0.002757075600055363 -->
    <g style="fill: #262626" transform="translate(314.494833 243.268086)scale(0.08 -0.08)">
     <use xlink:href="#ArialMT-70"/>
     <use xlink:href="#ArialMT-3d" x="55.615234"/>
     <use xlink:href="#ArialMT-30" x="114.013672"/>
     <use xlink:href="#ArialMT-2e" x="169.628906"/>
     <use xlink:href="#ArialMT-30" x="197.412109"/>
     <use xlink:href="#ArialMT-30" x="253.027344"/>
     <use xlink:href="#ArialMT-32" x="308.642578"/>
     <use xlink:href="#ArialMT-37" x="364.257812"/>
     <use xlink:href="#ArialMT-35" x="419.873047"/>
     <use xlink:href="#ArialMT-37" x="475.488281"/>
     <use xlink:href="#ArialMT-30" x="531.103516"/>
     <use xlink:href="#ArialMT-37" x="586.71875"/>
     <use xlink:href="#ArialMT-35" x="642.333984"/>
     <use xlink:href="#ArialMT-36" x="697.949219"/>
     <use xlink:href="#ArialMT-30" x="753.564453"/>
     <use xlink:href="#ArialMT-30" x="809.179688"/>
     <use xlink:href="#ArialMT-30" x="864.794922"/>
     <use xlink:href="#ArialMT-35" x="920.410156"/>
     <use xlink:href="#ArialMT-35" x="976.025391"/>
     <use xlink:href="#ArialMT-33" x="1031.640625"/>
     <use xlink:href="#ArialMT-36" x="1087.255859"/>
     <use xlink:href="#ArialMT-33" x="1142.871094"/>
    </g>
   </g>
   <g id="text_21">
    <!-- 4 -->
    <g style="fill: #262626" transform="translate(402.846833 34.408462)scale(0.1 -0.1)">
     <use xlink:href="#ArialMT-34"/>
    </g>
   </g>
   <g id="legend_1">
    <g id="patch_15">
     <path d="M 382.43125 98.80229 
L 402.43125 98.80229 
L 402.43125 91.80229 
L 382.43125 91.80229 
z
" style="fill: #ecf2ec; stroke: #262626; stroke-width: 0.75; stroke-linejoin: miter"/>
    </g>
    <g id="text_22">
     <!-- Mutant -->
     <g style="fill: #262626" transform="translate(410.43125 98.80229)scale(0.1 -0.1)">
      <defs>
       <path id="ArialMT-4d" d="M 475 0 
L 475 4581 
L 1388 4581 
L 2472 1338 
Q 2622 884 2691 659 
Q 2769 909 2934 1394 
L 4031 4581 
L 4847 4581 
L 4847 0 
L 4263 0 
L 4263 3834 
L 2931 0 
L 2384 0 
L 1059 3900 
L 1059 0 
L 475 0 
z
" transform="scale(0.015625)"/>
       <path id="ArialMT-61" d="M 2588 409 
Q 2275 144 1986 34 
Q 1697 -75 1366 -75 
Q 819 -75 525 192 
Q 231 459 231 875 
Q 231 1119 342 1320 
Q 453 1522 633 1644 
Q 813 1766 1038 1828 
Q 1203 1872 1538 1913 
Q 2219 1994 2541 2106 
Q 2544 2222 2544 2253 
Q 2544 2597 2384 2738 
Q 2169 2928 1744 2928 
Q 1347 2928 1158 2789 
Q 969 2650 878 2297 
L 328 2372 
Q 403 2725 575 2942 
Q 747 3159 1072 3276 
Q 1397 3394 1825 3394 
Q 2250 3394 2515 3294 
Q 2781 3194 2906 3042 
Q 3031 2891 3081 2659 
Q 3109 2516 3109 2141 
L 3109 1391 
Q 3109 606 3145 398 
Q 3181 191 3288 0 
L 2700 0 
Q 2613 175 2588 409 
z
M 2541 1666 
Q 2234 1541 1622 1453 
Q 1275 1403 1131 1340 
Q 988 1278 909 1158 
Q 831 1038 831 891 
Q 831 666 1001 516 
Q 1172 366 1500 366 
Q 1825 366 2078 508 
Q 2331 650 2450 897 
Q 2541 1088 2541 1459 
L 2541 1666 
z
" transform="scale(0.015625)"/>
      </defs>
      <use xlink:href="#ArialMT-4d"/>
      <use xlink:href="#ArialMT-75" x="83.300781"/>
      <use xlink:href="#ArialMT-74" x="138.916016"/>
      <use xlink:href="#ArialMT-61" x="166.699219"/>
      <use xlink:href="#ArialMT-6e" x="222.314453"/>
      <use xlink:href="#ArialMT-74" x="277.929688"/>
     </g>
    </g>
    <g id="patch_16">
     <path d="M 382.43125 112.947603 
L 402.43125 112.947603 
L 402.43125 105.947603 
L 382.43125 105.947603 
z
" style="fill: #107010; stroke: #262626; stroke-width: 0.75; stroke-linejoin: miter"/>
    </g>
    <g id="text_23">
     <!-- WT -->
     <g style="fill: #262626" transform="translate(410.43125 112.947603)scale(0.1 -0.1)">
      <defs>
       <path id="ArialMT-57" d="M 1294 0 
L 78 4581 
L 700 4581 
L 1397 1578 
Q 1509 1106 1591 641 
Q 1766 1375 1797 1488 
L 2669 4581 
L 3400 4581 
L 4056 2263 
Q 4303 1400 4413 641 
Q 4500 1075 4641 1638 
L 5359 4581 
L 5969 4581 
L 4713 0 
L 4128 0 
L 3163 3491 
Q 3041 3928 3019 4028 
Q 2947 3713 2884 3491 
L 1913 0 
L 1294 0 
z
" transform="scale(0.015625)"/>
       <path id="ArialMT-54" d="M 1659 0 
L 1659 4041 
L 150 4041 
L 150 4581 
L 3781 4581 
L 3781 4041 
L 2266 4041 
L 2266 0 
L 1659 0 
z
" transform="scale(0.015625)"/>
      </defs>
      <use xlink:href="#ArialMT-57"/>
      <use xlink:href="#ArialMT-54" x="94.384766"/>
     </g>
    </g>
   </g>
  </g>
 </g>
 <defs>
  <clipPath id="p8a0a833048">
   <rect x="45.83" y="82.644478" width="404.17" height="220.894272"/>
  </clipPath>
 </defs>
</svg>
