<?xml version="1.0" encoding="utf-8" standalone="no"?>
<!DOCTYPE svg PUBLIC "-//W3C//DTD SVG 1.1//EN"
  "http://www.w3.org/Graphics/SVG/1.1/DTD/svg11.dtd">
<svg xmlns:xlink="http://www.w3.org/1999/xlink" width="460.8pt" height="345.6pt" viewBox="0 0 460.8 345.6" xmlns="http://www.w3.org/2000/svg" version="1.1">
 <metadata>
  <rdf:RDF xmlns:dc="http://purl.org/dc/elements/1.1/" xmlns:cc="http://creativecommons.org/ns#" xmlns:rdf="http://www.w3.org/1999/02/22-rdf-syntax-ns#">
   <cc:Work>
    <dc:type rdf:resource="http://purl.org/dc/dcmitype/StillImage"/>
    <dc:date>2024-06-12T18:00:19.568646</dc:date>
    <dc:format>image/svg+xml</dc:format>
    <dc:creator>
     <cc:Agent>
      <dc:title>Matplotlib v3.5.3, https://matplotlib.org/</dc:title>
     </cc:Agent>
    </dc:creator>
   </cc:Work>
  </rdf:RDF>
 </metadata>
 <defs>
  <style type="text/css">*{stroke-linejoin: round; stroke-linecap: butt}</style>
 </defs>
 <g id="figure_1">
  <g id="patch_1">
   <path d="M 0 345.6 
L 460.8 345.6 
L 460.8 0 
L 0 0 
z
" style="fill: #ffffff"/>
  </g>
  <g id="axes_1">
   <g id="patch_2">
    <path d="M 63.57125 303.64 
L 450 303.64 
L 450 12.309056 
L 63.57125 12.309056 
z
" style="fill: #ffffff"/>
   </g>
   <g id="matplotlib.axis_1">
    <g id="xtick_1">
     <g id="text_1">
      <!-- A -->
      <g style="fill: #262626" transform="translate(156.758125 318.238437)scale(0.1 -0.1)">
       <defs>
        <path id="DejaVuSans-41" d="M 2188 4044 
L 1331 1722 
L 3047 1722 
L 2188 4044 
z
M 1831 4666 
L 2547 4666 
L 4325 0 
L 3669 0 
L 3244 1197 
L 1141 1197 
L 716 0 
L 50 0 
L 1831 4666 
z
" transform="scale(0.015625)"/>
       </defs>
       <use xlink:href="#DejaVuSans-41"/>
      </g>
     </g>
    </g>
    <g id="xtick_2">
     <g id="text_2">
      <!-- T -->
      <g style="fill: #262626" transform="translate(350.338906 318.238437)scale(0.1 -0.1)">
       <defs>
        <path id="DejaVuSans-54" d="M -19 4666 
L 3928 4666 
L 3928 4134 
L 2272 4134 
L 2272 0 
L 1638 0 
L 1638 4134 
L -19 4134 
L -19 4666 
z
" transform="scale(0.015625)"/>
       </defs>
       <use xlink:href="#DejaVuSans-54"/>
      </g>
     </g>
    </g>
    <g id="text_3">
     <!-- WT_AA -->
     <g style="fill: #262626" transform="translate(239.309844 331.638437)scale(0.1 -0.1)">
      <defs>
       <path id="DejaVuSans-57" d="M 213 4666 
L 850 4666 
L 1831 722 
L 2809 4666 
L 3519 4666 
L 4500 722 
L 5478 4666 
L 6119 4666 
L 4947 0 
L 4153 0 
L 3169 4050 
L 2175 0 
L 1381 0 
L 213 4666 
z
" transform="scale(0.015625)"/>
       <path id="DejaVuSans-5f" d="M 3263 -1063 
L 3263 -1509 
L -63 -1509 
L -63 -1063 
L 3263 -1063 
z
" transform="scale(0.015625)"/>
      </defs>
      <use xlink:href="#DejaVuSans-57"/>
      <use xlink:href="#DejaVuSans-54" x="98.876953"/>
      <use xlink:href="#DejaVuSans-5f" x="159.960938"/>
      <use xlink:href="#DejaVuSans-41" x="209.960938"/>
      <use xlink:href="#DejaVuSans-41" x="281.119141"/>
     </g>
    </g>
   </g>
   <g id="matplotlib.axis_2">
    <g id="ytick_1">
     <g id="line2d_1">
      <path d="M 63.57125 303.64 
L 450 303.64 
" clip-path="url(#pf6328a5af5)" style="fill: none; stroke: #cccccc; stroke-width: 0.8; stroke-linecap: round"/>
     </g>
     <g id="text_4">
      <!-- 0.0 -->
      <g style="fill: #262626" transform="translate(40.668125 307.439219)scale(0.1 -0.1)">
       <defs>
        <path id="DejaVuSans-30" d="M 2034 4250 
Q 1547 4250 1301 3770 
Q 1056 3291 1056 2328 
Q 1056 1369 1301 889 
Q 1547 409 2034 409 
Q 2525 409 2770 889 
Q 3016 1369 3016 2328 
Q 3016 3291 2770 3770 
Q 2525 4250 2034 4250 
z
M 2034 4750 
Q 2819 4750 3233 4129 
Q 3647 3509 3647 2328 
Q 3647 1150 3233 529 
Q 2819 -91 2034 -91 
Q 1250 -91 836 529 
Q 422 1150 422 2328 
Q 422 3509 836 4129 
Q 1250 4750 2034 4750 
z
" transform="scale(0.015625)"/>
        <path id="DejaVuSans-2e" d="M 684 794 
L 1344 794 
L 1344 0 
L 684 0 
L 684 794 
z
" transform="scale(0.015625)"/>
       </defs>
       <use xlink:href="#DejaVuSans-30"/>
       <use xlink:href="#DejaVuSans-2e" x="63.623047"/>
       <use xlink:href="#DejaVuSans-30" x="95.410156"/>
      </g>
     </g>
    </g>
    <g id="ytick_2">
     <g id="line2d_2">
      <path d="M 63.57125 255.198139 
L 450 255.198139 
" clip-path="url(#pf6328a5af5)" style="fill: none; stroke: #cccccc; stroke-width: 0.8; stroke-linecap: round"/>
     </g>
     <g id="text_5">
      <!-- 0.1 -->
      <g style="fill: #262626" transform="translate(40.668125 258.997357)scale(0.1 -0.1)">
       <defs>
        <path id="DejaVuSans-31" d="M 794 531 
L 1825 531 
L 1825 4091 
L 703 3866 
L 703 4441 
L 1819 4666 
L 2450 4666 
L 2450 531 
L 3481 531 
L 3481 0 
L 794 0 
L 794 531 
z
" transform="scale(0.015625)"/>
       </defs>
       <use xlink:href="#DejaVuSans-30"/>
       <use xlink:href="#DejaVuSans-2e" x="63.623047"/>
       <use xlink:href="#DejaVuSans-31" x="95.410156"/>
      </g>
     </g>
    </g>
    <g id="ytick_3">
     <g id="line2d_3">
      <path d="M 63.57125 206.756277 
L 450 206.756277 
" clip-path="url(#pf6328a5af5)" style="fill: none; stroke: #cccccc; stroke-width: 0.8; stroke-linecap: round"/>
     </g>
     <g id="text_6">
      <!-- 0.2 -->
      <g style="fill: #262626" transform="translate(40.668125 210.555496)scale(0.1 -0.1)">
       <defs>
        <path id="DejaVuSans-32" d="M 1228 531 
L 3431 531 
L 3431 0 
L 469 0 
L 469 531 
Q 828 903 1448 1529 
Q 2069 2156 2228 2338 
Q 2531 2678 2651 2914 
Q 2772 3150 2772 3378 
Q 2772 3750 2511 3984 
Q 2250 4219 1831 4219 
Q 1534 4219 1204 4116 
Q 875 4013 500 3803 
L 500 4441 
Q 881 4594 1212 4672 
Q 1544 4750 1819 4750 
Q 2544 4750 2975 4387 
Q 3406 4025 3406 3419 
Q 3406 3131 3298 2873 
Q 3191 2616 2906 2266 
Q 2828 2175 2409 1742 
Q 1991 1309 1228 531 
z
" transform="scale(0.015625)"/>
       </defs>
       <use xlink:href="#DejaVuSans-30"/>
       <use xlink:href="#DejaVuSans-2e" x="63.623047"/>
       <use xlink:href="#DejaVuSans-32" x="95.410156"/>
      </g>
     </g>
    </g>
    <g id="ytick_4">
     <g id="line2d_4">
      <path d="M 63.57125 158.314416 
L 450 158.314416 
" clip-path="url(#pf6328a5af5)" style="fill: none; stroke: #cccccc; stroke-width: 0.8; stroke-linecap: round"/>
     </g>
     <g id="text_7">
      <!-- 0.3 -->
      <g style="fill: #262626" transform="translate(40.668125 162.113635)scale(0.1 -0.1)">
       <defs>
        <path id="DejaVuSans-33" d="M 2597 2516 
Q 3050 2419 3304 2112 
Q 3559 1806 3559 1356 
Q 3559 666 3084 287 
Q 2609 -91 1734 -91 
Q 1441 -91 1130 -33 
Q 819 25 488 141 
L 488 750 
Q 750 597 1062 519 
Q 1375 441 1716 441 
Q 2309 441 2620 675 
Q 2931 909 2931 1356 
Q 2931 1769 2642 2001 
Q 2353 2234 1838 2234 
L 1294 2234 
L 1294 2753 
L 1863 2753 
Q 2328 2753 2575 2939 
Q 2822 3125 2822 3475 
Q 2822 3834 2567 4026 
Q 2313 4219 1838 4219 
Q 1578 4219 1281 4162 
Q 984 4106 628 3988 
L 628 4550 
Q 988 4650 1302 4700 
Q 1616 4750 1894 4750 
Q 2613 4750 3031 4423 
Q 3450 4097 3450 3541 
Q 3450 3153 3228 2886 
Q 3006 2619 2597 2516 
z
" transform="scale(0.015625)"/>
       </defs>
       <use xlink:href="#DejaVuSans-30"/>
       <use xlink:href="#DejaVuSans-2e" x="63.623047"/>
       <use xlink:href="#DejaVuSans-33" x="95.410156"/>
      </g>
     </g>
    </g>
    <g id="ytick_5">
     <g id="line2d_5">
      <path d="M 63.57125 109.872555 
L 450 109.872555 
" clip-path="url(#pf6328a5af5)" style="fill: none; stroke: #cccccc; stroke-width: 0.8; stroke-linecap: round"/>
     </g>
     <g id="text_8">
      <!-- 0.4 -->
      <g style="fill: #262626" transform="translate(40.668125 113.671774)scale(0.1 -0.1)">
       <defs>
        <path id="DejaVuSans-34" d="M 2419 4116 
L 825 1625 
L 2419 1625 
L 2419 4116 
z
M 2253 4666 
L 3047 4666 
L 3047 1625 
L 3713 1625 
L 3713 1100 
L 3047 1100 
L 3047 0 
L 2419 0 
L 2419 1100 
L 313 1100 
L 313 1709 
L 2253 4666 
z
" transform="scale(0.015625)"/>
       </defs>
       <use xlink:href="#DejaVuSans-30"/>
       <use xlink:href="#DejaVuSans-2e" x="63.623047"/>
       <use xlink:href="#DejaVuSans-34" x="95.410156"/>
      </g>
     </g>
    </g>
    <g id="ytick_6">
     <g id="line2d_6">
      <path d="M 63.57125 61.430694 
L 450 61.430694 
" clip-path="url(#pf6328a5af5)" style="fill: none; stroke: #cccccc; stroke-width: 0.8; stroke-linecap: round"/>
     </g>
     <g id="text_9">
      <!-- 0.5 -->
      <g style="fill: #262626" transform="translate(40.668125 65.229912)scale(0.1 -0.1)">
       <defs>
        <path id="DejaVuSans-35" d="M 691 4666 
L 3169 4666 
L 3169 4134 
L 1269 4134 
L 1269 2991 
Q 1406 3038 1543 3061 
Q 1681 3084 1819 3084 
Q 2600 3084 3056 2656 
Q 3513 2228 3513 1497 
Q 3513 744 3044 326 
Q 2575 -91 1722 -91 
Q 1428 -91 1123 -41 
Q 819 9 494 109 
L 494 744 
Q 775 591 1075 516 
Q 1375 441 1709 441 
Q 2250 441 2565 725 
Q 2881 1009 2881 1497 
Q 2881 1984 2565 2268 
Q 2250 2553 1709 2553 
Q 1456 2553 1204 2497 
Q 953 2441 691 2322 
L 691 4666 
z
" transform="scale(0.015625)"/>
       </defs>
       <use xlink:href="#DejaVuSans-30"/>
       <use xlink:href="#DejaVuSans-2e" x="63.623047"/>
       <use xlink:href="#DejaVuSans-35" x="95.410156"/>
      </g>
     </g>
    </g>
    <g id="ytick_7">
     <g id="line2d_7">
      <path d="M 63.57125 12.988832 
L 450 12.988832 
" clip-path="url(#pf6328a5af5)" style="fill: none; stroke: #cccccc; stroke-width: 0.8; stroke-linecap: round"/>
     </g>
     <g id="text_10">
      <!-- 0.6 -->
      <g style="fill: #262626" transform="translate(40.668125 16.788051)scale(0.1 -0.1)">
       <defs>
        <path id="DejaVuSans-36" d="M 2113 2584 
Q 1688 2584 1439 2293 
Q 1191 2003 1191 1497 
Q 1191 994 1439 701 
Q 1688 409 2113 409 
Q 2538 409 2786 701 
Q 3034 994 3034 1497 
Q 3034 2003 2786 2293 
Q 2538 2584 2113 2584 
z
M 3366 4563 
L 3366 3988 
Q 3128 4100 2886 4159 
Q 2644 4219 2406 4219 
Q 1781 4219 1451 3797 
Q 1122 3375 1075 2522 
Q 1259 2794 1537 2939 
Q 1816 3084 2150 3084 
Q 2853 3084 3261 2657 
Q 3669 2231 3669 1497 
Q 3669 778 3244 343 
Q 2819 -91 2113 -91 
Q 1303 -91 875 529 
Q 447 1150 447 2328 
Q 447 3434 972 4092 
Q 1497 4750 2381 4750 
Q 2619 4750 2861 4703 
Q 3103 4656 3366 4563 
z
" transform="scale(0.015625)"/>
       </defs>
       <use xlink:href="#DejaVuSans-30"/>
       <use xlink:href="#DejaVuSans-2e" x="63.623047"/>
       <use xlink:href="#DejaVuSans-36" x="95.410156"/>
      </g>
     </g>
    </g>
    <g id="text_11">
     <!-- PercentGpA -->
     <g style="fill: #262626" transform="translate(34.588438 187.251091)rotate(-90)scale(0.1 -0.1)">
      <defs>
       <path id="DejaVuSans-50" d="M 1259 4147 
L 1259 2394 
L 2053 2394 
Q 2494 2394 2734 2622 
Q 2975 2850 2975 3272 
Q 2975 3691 2734 3919 
Q 2494 4147 2053 4147 
L 1259 4147 
z
M 628 4666 
L 2053 4666 
Q 2838 4666 3239 4311 
Q 3641 3956 3641 3272 
Q 3641 2581 3239 2228 
Q 2838 1875 2053 1875 
L 1259 1875 
L 1259 0 
L 628 0 
L 628 4666 
z
" transform="scale(0.015625)"/>
       <path id="DejaVuSans-65" d="M 3597 1894 
L 3597 1613 
L 953 1613 
Q 991 1019 1311 708 
Q 1631 397 2203 397 
Q 2534 397 2845 478 
Q 3156 559 3463 722 
L 3463 178 
Q 3153 47 2828 -22 
Q 2503 -91 2169 -91 
Q 1331 -91 842 396 
Q 353 884 353 1716 
Q 353 2575 817 3079 
Q 1281 3584 2069 3584 
Q 2775 3584 3186 3129 
Q 3597 2675 3597 1894 
z
M 3022 2063 
Q 3016 2534 2758 2815 
Q 2500 3097 2075 3097 
Q 1594 3097 1305 2825 
Q 1016 2553 972 2059 
L 3022 2063 
z
" transform="scale(0.015625)"/>
       <path id="DejaVuSans-72" d="M 2631 2963 
Q 2534 3019 2420 3045 
Q 2306 3072 2169 3072 
Q 1681 3072 1420 2755 
Q 1159 2438 1159 1844 
L 1159 0 
L 581 0 
L 581 3500 
L 1159 3500 
L 1159 2956 
Q 1341 3275 1631 3429 
Q 1922 3584 2338 3584 
Q 2397 3584 2469 3576 
Q 2541 3569 2628 3553 
L 2631 2963 
z
" transform="scale(0.015625)"/>
       <path id="DejaVuSans-63" d="M 3122 3366 
L 3122 2828 
Q 2878 2963 2633 3030 
Q 2388 3097 2138 3097 
Q 1578 3097 1268 2742 
Q 959 2388 959 1747 
Q 959 1106 1268 751 
Q 1578 397 2138 397 
Q 2388 397 2633 464 
Q 2878 531 3122 666 
L 3122 134 
Q 2881 22 2623 -34 
Q 2366 -91 2075 -91 
Q 1284 -91 818 406 
Q 353 903 353 1747 
Q 353 2603 823 3093 
Q 1294 3584 2113 3584 
Q 2378 3584 2631 3529 
Q 2884 3475 3122 3366 
z
" transform="scale(0.015625)"/>
       <path id="DejaVuSans-6e" d="M 3513 2113 
L 3513 0 
L 2938 0 
L 2938 2094 
Q 2938 2591 2744 2837 
Q 2550 3084 2163 3084 
Q 1697 3084 1428 2787 
Q 1159 2491 1159 1978 
L 1159 0 
L 581 0 
L 581 3500 
L 1159 3500 
L 1159 2956 
Q 1366 3272 1645 3428 
Q 1925 3584 2291 3584 
Q 2894 3584 3203 3211 
Q 3513 2838 3513 2113 
z
" transform="scale(0.015625)"/>
       <path id="DejaVuSans-74" d="M 1172 4494 
L 1172 3500 
L 2356 3500 
L 2356 3053 
L 1172 3053 
L 1172 1153 
Q 1172 725 1289 603 
Q 1406 481 1766 481 
L 2356 481 
L 2356 0 
L 1766 0 
Q 1100 0 847 248 
Q 594 497 594 1153 
L 594 3053 
L 172 3053 
L 172 3500 
L 594 3500 
L 594 4494 
L 1172 4494 
z
" transform="scale(0.015625)"/>
       <path id="DejaVuSans-47" d="M 3809 666 
L 3809 1919 
L 2778 1919 
L 2778 2438 
L 4434 2438 
L 4434 434 
Q 4069 175 3628 42 
Q 3188 -91 2688 -91 
Q 1594 -91 976 548 
Q 359 1188 359 2328 
Q 359 3472 976 4111 
Q 1594 4750 2688 4750 
Q 3144 4750 3555 4637 
Q 3966 4525 4313 4306 
L 4313 3634 
Q 3963 3931 3569 4081 
Q 3175 4231 2741 4231 
Q 1884 4231 1454 3753 
Q 1025 3275 1025 2328 
Q 1025 1384 1454 906 
Q 1884 428 2741 428 
Q 3075 428 3337 486 
Q 3600 544 3809 666 
z
" transform="scale(0.015625)"/>
       <path id="DejaVuSans-70" d="M 1159 525 
L 1159 -1331 
L 581 -1331 
L 581 3500 
L 1159 3500 
L 1159 2969 
Q 1341 3281 1617 3432 
Q 1894 3584 2278 3584 
Q 2916 3584 3314 3078 
Q 3713 2572 3713 1747 
Q 3713 922 3314 415 
Q 2916 -91 2278 -91 
Q 1894 -91 1617 61 
Q 1341 213 1159 525 
z
M 3116 1747 
Q 3116 2381 2855 2742 
Q 2594 3103 2138 3103 
Q 1681 3103 1420 2742 
Q 1159 2381 1159 1747 
Q 1159 1113 1420 752 
Q 1681 391 2138 391 
Q 2594 391 2855 752 
Q 3116 1113 3116 1747 
z
" transform="scale(0.015625)"/>
      </defs>
      <use xlink:href="#DejaVuSans-50"/>
      <use xlink:href="#DejaVuSans-65" x="56.677734"/>
      <use xlink:href="#DejaVuSans-72" x="118.201172"/>
      <use xlink:href="#DejaVuSans-63" x="157.064453"/>
      <use xlink:href="#DejaVuSans-65" x="212.044922"/>
      <use xlink:href="#DejaVuSans-6e" x="273.568359"/>
      <use xlink:href="#DejaVuSans-74" x="336.947266"/>
      <use xlink:href="#DejaVuSans-47" x="376.15625"/>
      <use xlink:href="#DejaVuSans-70" x="453.646484"/>
      <use xlink:href="#DejaVuSans-41" x="517.123047"/>
     </g>
    </g>
   </g>
   <g id="patch_3">
    <path d="M 83.665545 233.700677 
L 159.40558 233.700677 
L 159.40558 179.013232 
L 83.665545 179.013232 
L 83.665545 233.700677 
z
" clip-path="url(#pf6328a5af5)" style="fill: #ecf2ec; stroke: #262626; stroke-width: 1.5; stroke-linejoin: miter"/>
   </g>
   <g id="patch_4">
    <path d="M 160.951295 204.171477 
L 236.69133 204.171477 
L 236.69133 126.426715 
L 160.951295 126.426715 
L 160.951295 204.171477 
z
" clip-path="url(#pf6328a5af5)" style="fill: #107010; stroke: #262626; stroke-width: 1.5; stroke-linejoin: miter"/>
   </g>
   <g id="patch_5">
    <path d="M 276.87992 233.401081 
L 352.619955 233.401081 
L 352.619955 182.76125 
L 276.87992 182.76125 
L 276.87992 233.401081 
z
" clip-path="url(#pf6328a5af5)" style="fill: #ecf2ec; stroke: #262626; stroke-width: 1.5; stroke-linejoin: miter"/>
   </g>
   <g id="patch_6">
    <path d="M 354.16567 196.412002 
L 429.905705 196.412002 
L 429.905705 128.322698 
L 354.16567 128.322698 
L 354.16567 196.412002 
z
" clip-path="url(#pf6328a5af5)" style="fill: #107010; stroke: #262626; stroke-width: 1.5; stroke-linejoin: miter"/>
   </g>
   <g id="patch_7">
    <path d="M 160.178438 303.64 
L 160.178438 303.64 
L 160.178438 303.64 
L 160.178438 303.64 
z
" clip-path="url(#pf6328a5af5)" style="fill: #ecf2ec; stroke: #262626; stroke-width: 0.75; stroke-linejoin: miter"/>
   </g>
   <g id="patch_8">
    <path d="M 160.178438 303.64 
L 160.178438 303.64 
L 160.178438 303.64 
L 160.178438 303.64 
z
" clip-path="url(#pf6328a5af5)" style="fill: #107010; stroke: #262626; stroke-width: 0.75; stroke-linejoin: miter"/>
   </g>
   <g id="PathCollection_1"/>
   <g id="PathCollection_2"/>
   <g id="line2d_8">
    <path d="M 121.535562 233.700677 
L 121.535562 305.315966 
" clip-path="url(#pf6328a5af5)" style="fill: none; stroke: #262626; stroke-width: 1.5; stroke-linecap: round"/>
   </g>
   <g id="line2d_9">
    <path d="M 121.535562 179.013232 
L 121.535562 141.474994 
" clip-path="url(#pf6328a5af5)" style="fill: none; stroke: #262626; stroke-width: 1.5; stroke-linecap: round"/>
   </g>
   <g id="line2d_10">
    <path d="M 102.600554 305.315966 
L 140.470571 305.315966 
" clip-path="url(#pf6328a5af5)" style="fill: none; stroke: #262626; stroke-width: 1.5; stroke-linecap: round"/>
   </g>
   <g id="line2d_11">
    <path d="M 102.600554 141.474994 
L 140.470571 141.474994 
" clip-path="url(#pf6328a5af5)" style="fill: none; stroke: #262626; stroke-width: 1.5; stroke-linecap: round"/>
   </g>
   <g id="line2d_12"/>
   <g id="line2d_13">
    <path d="M 198.821313 204.171477 
L 198.821313 263.988055 
" clip-path="url(#pf6328a5af5)" style="fill: none; stroke: #262626; stroke-width: 1.5; stroke-linecap: round"/>
   </g>
   <g id="line2d_14">
    <path d="M 198.821313 126.426715 
L 198.821313 38.793688 
" clip-path="url(#pf6328a5af5)" style="fill: none; stroke: #262626; stroke-width: 1.5; stroke-linecap: round"/>
   </g>
   <g id="line2d_15">
    <path d="M 179.886304 263.988055 
L 217.756321 263.988055 
" clip-path="url(#pf6328a5af5)" style="fill: none; stroke: #262626; stroke-width: 1.5; stroke-linecap: round"/>
   </g>
   <g id="line2d_16">
    <path d="M 179.886304 38.793688 
L 217.756321 38.793688 
" clip-path="url(#pf6328a5af5)" style="fill: none; stroke: #262626; stroke-width: 1.5; stroke-linecap: round"/>
   </g>
   <g id="line2d_17"/>
   <g id="line2d_18">
    <path d="M 314.749937 233.401081 
L 314.749937 262.279735 
" clip-path="url(#pf6328a5af5)" style="fill: none; stroke: #262626; stroke-width: 1.5; stroke-linecap: round"/>
   </g>
   <g id="line2d_19">
    <path d="M 314.749937 182.76125 
L 314.749937 143.092299 
" clip-path="url(#pf6328a5af5)" style="fill: none; stroke: #262626; stroke-width: 1.5; stroke-linecap: round"/>
   </g>
   <g id="line2d_20">
    <path d="M 295.814929 262.279735 
L 333.684946 262.279735 
" clip-path="url(#pf6328a5af5)" style="fill: none; stroke: #262626; stroke-width: 1.5; stroke-linecap: round"/>
   </g>
   <g id="line2d_21">
    <path d="M 295.814929 143.092299 
L 333.684946 143.092299 
" clip-path="url(#pf6328a5af5)" style="fill: none; stroke: #262626; stroke-width: 1.5; stroke-linecap: round"/>
   </g>
   <g id="line2d_22"/>
   <g id="line2d_23">
    <path d="M 392.035687 196.412002 
L 392.035687 226.174099 
" clip-path="url(#pf6328a5af5)" style="fill: none; stroke: #262626; stroke-width: 1.5; stroke-linecap: round"/>
   </g>
   <g id="line2d_24">
    <path d="M 392.035687 128.322698 
L 392.035687 106.900904 
" clip-path="url(#pf6328a5af5)" style="fill: none; stroke: #262626; stroke-width: 1.5; stroke-linecap: round"/>
   </g>
   <g id="line2d_25">
    <path d="M 373.100679 226.174099 
L 410.970696 226.174099 
" clip-path="url(#pf6328a5af5)" style="fill: none; stroke: #262626; stroke-width: 1.5; stroke-linecap: round"/>
   </g>
   <g id="line2d_26">
    <path d="M 373.100679 106.900904 
L 410.970696 106.900904 
" clip-path="url(#pf6328a5af5)" style="fill: none; stroke: #262626; stroke-width: 1.5; stroke-linecap: round"/>
   </g>
   <g id="line2d_27"/>
   <g id="line2d_28">
    <path d="M 83.665545 200.774505 
L 159.40558 200.774505 
" clip-path="url(#pf6328a5af5)" style="fill: none; stroke: #262626; stroke-width: 1.5; stroke-linecap: round"/>
   </g>
   <g id="line2d_29">
    <path d="M 160.951295 185.632803 
L 236.69133 185.632803 
" clip-path="url(#pf6328a5af5)" style="fill: none; stroke: #262626; stroke-width: 1.5; stroke-linecap: round"/>
   </g>
   <g id="line2d_30">
    <path d="M 276.87992 211.966872 
L 352.619955 211.966872 
" clip-path="url(#pf6328a5af5)" style="fill: none; stroke: #262626; stroke-width: 1.5; stroke-linecap: round"/>
   </g>
   <g id="line2d_31">
    <path d="M 354.16567 183.955998 
L 429.905705 183.955998 
" clip-path="url(#pf6328a5af5)" style="fill: none; stroke: #262626; stroke-width: 1.5; stroke-linecap: round"/>
   </g>
   <g id="patch_9">
    <path d="M 63.57125 303.64 
L 63.57125 12.309056 
" style="fill: none; stroke: #cccccc; stroke-width: 0.8; stroke-linejoin: miter; stroke-linecap: square"/>
   </g>
   <g id="patch_10">
    <path d="M 450 303.64 
L 450 12.309056 
" style="fill: none; stroke: #cccccc; stroke-width: 0.8; stroke-linejoin: miter; stroke-linecap: square"/>
   </g>
   <g id="patch_11">
    <path d="M 63.57125 303.64 
L 450 303.64 
" style="fill: none; stroke: #cccccc; stroke-width: 0.8; stroke-linejoin: miter; stroke-linecap: square"/>
   </g>
   <g id="patch_12">
    <path d="M 63.57125 12.309056 
L 450 12.309056 
" style="fill: none; stroke: #cccccc; stroke-width: 0.8; stroke-linejoin: miter; stroke-linecap: square"/>
   </g>
   <g id="PathCollection_3">
    <defs>
     <path id="C0_0_e5e2909f8b" d="M 0 1 
C 0.265203 1 0.51958 0.894634 0.707107 0.707107 
C 0.894634 0.51958 1 0.265203 1 -0 
C 1 -0.265203 0.894634 -0.51958 0.707107 -0.707107 
C 0.51958 -0.894634 0.265203 -1 0 -1 
C -0.265203 -1 -0.51958 -0.894634 -0.707107 -0.707107 
C -0.894634 -0.51958 -1 -0.265203 -1 0 
C -1 0.265203 -0.894634 0.51958 -0.707107 0.707107 
C -0.51958 0.894634 -0.265203 1 0 1 
z
"/>
    </defs>
    <g clip-path="url(#pf6328a5af5)">
     <use xlink:href="#C0_0_e5e2909f8b" x="125.110941" y="234.697154" style="fill: #262626"/>
    </g>
    <g clip-path="url(#pf6328a5af5)">
     <use xlink:href="#C0_0_e5e2909f8b" x="129.526297" y="222.752947" style="fill: #262626"/>
    </g>
    <g clip-path="url(#pf6328a5af5)">
     <use xlink:href="#C0_0_e5e2909f8b" x="122.194045" y="221.029323" style="fill: #262626"/>
    </g>
    <g clip-path="url(#pf6328a5af5)">
     <use xlink:href="#C0_0_e5e2909f8b" x="122.212998" y="260.748559" style="fill: #262626"/>
    </g>
    <g clip-path="url(#pf6328a5af5)">
     <use xlink:href="#C0_0_e5e2909f8b" x="119.674451" y="177.380247" style="fill: #262626"/>
    </g>
    <g clip-path="url(#pf6328a5af5)">
     <use xlink:href="#C0_0_e5e2909f8b" x="113.583552" y="188.370636" style="fill: #262626"/>
    </g>
    <g clip-path="url(#pf6328a5af5)">
     <use xlink:href="#C0_0_e5e2909f8b" x="130.615" y="148.028706" style="fill: #262626"/>
    </g>
    <g clip-path="url(#pf6328a5af5)">
     <use xlink:href="#C0_0_e5e2909f8b" x="114.74271" y="282.164574" style="fill: #262626"/>
    </g>
    <g clip-path="url(#pf6328a5af5)">
     <use xlink:href="#C0_0_e5e2909f8b" x="124.325831" y="154.85809" style="fill: #262626"/>
    </g>
    <g clip-path="url(#pf6328a5af5)">
     <use xlink:href="#C0_0_e5e2909f8b" x="119.216762" y="181.462682" style="fill: #262626"/>
    </g>
    <g clip-path="url(#pf6328a5af5)">
     <use xlink:href="#C0_0_e5e2909f8b" x="115.482298" y="162.992191" style="fill: #262626"/>
    </g>
    <g clip-path="url(#pf6328a5af5)">
     <use xlink:href="#C0_0_e5e2909f8b" x="126.953781" y="226.631037" style="fill: #262626"/>
    </g>
    <g clip-path="url(#pf6328a5af5)">
     <use xlink:href="#C0_0_e5e2909f8b" x="122.617724" y="192.146492" style="fill: #262626"/>
    </g>
    <g clip-path="url(#pf6328a5af5)">
     <use xlink:href="#C0_0_e5e2909f8b" x="114.149022" y="249.048113" style="fill: #262626"/>
    </g>
    <g clip-path="url(#pf6328a5af5)">
     <use xlink:href="#C0_0_e5e2909f8b" x="118.185176" y="210.470677" style="fill: #262626"/>
    </g>
    <g clip-path="url(#pf6328a5af5)">
     <use xlink:href="#C0_0_e5e2909f8b" x="128.965269" y="142.298285" style="fill: #262626"/>
    </g>
    <g clip-path="url(#pf6328a5af5)">
     <use xlink:href="#C0_0_e5e2909f8b" x="113.760318" y="184.487894" style="fill: #262626"/>
    </g>
    <g clip-path="url(#pf6328a5af5)">
     <use xlink:href="#C0_0_e5e2909f8b" x="115.444123" y="245.387106" style="fill: #262626"/>
    </g>
    <g clip-path="url(#pf6328a5af5)">
     <use xlink:href="#C0_0_e5e2909f8b" x="116.541823" y="157.269317" style="fill: #262626"/>
    </g>
    <g clip-path="url(#pf6328a5af5)">
     <use xlink:href="#C0_0_e5e2909f8b" x="116.501537" y="183.949136" style="fill: #262626"/>
    </g>
    <g clip-path="url(#pf6328a5af5)">
     <use xlink:href="#C0_0_e5e2909f8b" x="123.527342" y="251.391355" style="fill: #262626"/>
    </g>
    <g clip-path="url(#pf6328a5af5)">
     <use xlink:href="#C0_0_e5e2909f8b" x="113.473327" y="237.708895" style="fill: #262626"/>
    </g>
    <g clip-path="url(#pf6328a5af5)">
     <use xlink:href="#C0_0_e5e2909f8b" x="116.528924" y="141.474994" style="fill: #262626"/>
    </g>
    <g clip-path="url(#pf6328a5af5)">
     <use xlink:href="#C0_0_e5e2909f8b" x="118.074856" y="222.446174" style="fill: #262626"/>
    </g>
    <g clip-path="url(#pf6328a5af5)">
     <use xlink:href="#C0_0_e5e2909f8b" x="120.704475" y="178.649802" style="fill: #262626"/>
    </g>
    <g clip-path="url(#pf6328a5af5)">
     <use xlink:href="#C0_0_e5e2909f8b" x="121.284447" y="151.490614" style="fill: #262626"/>
    </g>
    <g clip-path="url(#pf6328a5af5)">
     <use xlink:href="#C0_0_e5e2909f8b" x="127.584804" y="172.169517" style="fill: #262626"/>
    </g>
    <g clip-path="url(#pf6328a5af5)">
     <use xlink:href="#C0_0_e5e2909f8b" x="129.267872" y="191.925042" style="fill: #262626"/>
    </g>
    <g clip-path="url(#pf6328a5af5)">
     <use xlink:href="#C0_0_e5e2909f8b" x="124.452274" y="161.467349" style="fill: #262626"/>
    </g>
    <g clip-path="url(#pf6328a5af5)">
     <use xlink:href="#C0_0_e5e2909f8b" x="130.494411" y="282.675448" style="fill: #262626"/>
    </g>
    <g clip-path="url(#pf6328a5af5)">
     <use xlink:href="#C0_0_e5e2909f8b" x="122.173545" y="213.759386" style="fill: #262626"/>
    </g>
    <g clip-path="url(#pf6328a5af5)">
     <use xlink:href="#C0_0_e5e2909f8b" x="115.88632" y="200.221575" style="fill: #262626"/>
    </g>
    <g clip-path="url(#pf6328a5af5)">
     <use xlink:href="#C0_0_e5e2909f8b" x="114.034811" y="257.483775" style="fill: #262626"/>
    </g>
    <g clip-path="url(#pf6328a5af5)">
     <use xlink:href="#C0_0_e5e2909f8b" x="125.693453" y="202.669189" style="fill: #262626"/>
    </g>
    <g clip-path="url(#pf6328a5af5)">
     <use xlink:href="#C0_0_e5e2909f8b" x="117.592209" y="181.417122" style="fill: #262626"/>
    </g>
    <g clip-path="url(#pf6328a5af5)">
     <use xlink:href="#C0_0_e5e2909f8b" x="116.924787" y="285.397808" style="fill: #262626"/>
    </g>
    <g clip-path="url(#pf6328a5af5)">
     <use xlink:href="#C0_0_e5e2909f8b" x="112.815411" y="208.917592" style="fill: #262626"/>
    </g>
    <g clip-path="url(#pf6328a5af5)">
     <use xlink:href="#C0_0_e5e2909f8b" x="117.512367" y="230.711244" style="fill: #262626"/>
    </g>
    <g clip-path="url(#pf6328a5af5)">
     <use xlink:href="#C0_0_e5e2909f8b" x="119.172032" y="305.315966" style="fill: #262626"/>
    </g>
    <g clip-path="url(#pf6328a5af5)">
     <use xlink:href="#C0_0_e5e2909f8b" x="120.792612" y="235.886297" style="fill: #262626"/>
    </g>
    <g clip-path="url(#pf6328a5af5)">
     <use xlink:href="#C0_0_e5e2909f8b" x="122.880782" y="192.161793" style="fill: #262626"/>
    </g>
    <g clip-path="url(#pf6328a5af5)">
     <use xlink:href="#C0_0_e5e2909f8b" x="127.146797" y="276.713828" style="fill: #262626"/>
    </g>
    <g clip-path="url(#pf6328a5af5)">
     <use xlink:href="#C0_0_e5e2909f8b" x="119.834747" y="246.389439" style="fill: #262626"/>
    </g>
    <g clip-path="url(#pf6328a5af5)">
     <use xlink:href="#C0_0_e5e2909f8b" x="113.138919" y="172.422348" style="fill: #262626"/>
    </g>
    <g clip-path="url(#pf6328a5af5)">
     <use xlink:href="#C0_0_e5e2909f8b" x="122.547422" y="201.327434" style="fill: #262626"/>
    </g>
    <g clip-path="url(#pf6328a5af5)">
     <use xlink:href="#C0_0_e5e2909f8b" x="120.664815" y="196.49469" style="fill: #262626"/>
    </g>
    <g clip-path="url(#pf6328a5af5)">
     <use xlink:href="#C0_0_e5e2909f8b" x="112.517726" y="215.038293" style="fill: #262626"/>
    </g>
    <g clip-path="url(#pf6328a5af5)">
     <use xlink:href="#C0_0_e5e2909f8b" x="117.82536" y="192.539653" style="fill: #262626"/>
    </g>
    <g clip-path="url(#pf6328a5af5)">
     <use xlink:href="#C0_0_e5e2909f8b" x="130.049341" y="247.53674" style="fill: #262626"/>
    </g>
    <g clip-path="url(#pf6328a5af5)">
     <use xlink:href="#C0_0_e5e2909f8b" x="131.086466" y="192.243013" style="fill: #262626"/>
    </g>
    <g clip-path="url(#pf6328a5af5)">
     <use xlink:href="#C0_0_e5e2909f8b" x="124.889307" y="177.681303" style="fill: #262626"/>
    </g>
    <g clip-path="url(#pf6328a5af5)">
     <use xlink:href="#C0_0_e5e2909f8b" x="130.420803" y="211.162866" style="fill: #262626"/>
    </g>
    <g clip-path="url(#pf6328a5af5)">
     <use xlink:href="#C0_0_e5e2909f8b" x="112.22771" y="213.394891" style="fill: #262626"/>
    </g>
    <g clip-path="url(#pf6328a5af5)">
     <use xlink:href="#C0_0_e5e2909f8b" x="111.938518" y="291.917365" style="fill: #262626"/>
    </g>
    <g clip-path="url(#pf6328a5af5)">
     <use xlink:href="#C0_0_e5e2909f8b" x="113.658902" y="158.055182" style="fill: #262626"/>
    </g>
    <g clip-path="url(#pf6328a5af5)">
     <use xlink:href="#C0_0_e5e2909f8b" x="119.792514" y="143.501962" style="fill: #262626"/>
    </g>
    <g clip-path="url(#pf6328a5af5)">
     <use xlink:href="#C0_0_e5e2909f8b" x="119.593829" y="156.802122" style="fill: #262626"/>
    </g>
    <g clip-path="url(#pf6328a5af5)">
     <use xlink:href="#C0_0_e5e2909f8b" x="121.931562" y="202.359205" style="fill: #262626"/>
    </g>
    <g clip-path="url(#pf6328a5af5)">
     <use xlink:href="#C0_0_e5e2909f8b" x="115.476207" y="180.103524" style="fill: #262626"/>
    </g>
    <g clip-path="url(#pf6328a5af5)">
     <use xlink:href="#C0_0_e5e2909f8b" x="121.502295" y="152.972975" style="fill: #262626"/>
    </g>
    <g clip-path="url(#pf6328a5af5)">
     <use xlink:href="#C0_0_e5e2909f8b" x="129.716133" y="182.014984" style="fill: #262626"/>
    </g>
    <g clip-path="url(#pf6328a5af5)">
     <use xlink:href="#C0_0_e5e2909f8b" x="117.552878" y="224.600212" style="fill: #262626"/>
    </g>
    <g clip-path="url(#pf6328a5af5)">
     <use xlink:href="#C0_0_e5e2909f8b" x="114.977019" y="211.560378" style="fill: #262626"/>
    </g>
    <g clip-path="url(#pf6328a5af5)">
     <use xlink:href="#C0_0_e5e2909f8b" x="126.789056" y="190.28501" style="fill: #262626"/>
    </g>
    <g clip-path="url(#pf6328a5af5)">
     <use xlink:href="#C0_0_e5e2909f8b" x="126.677967" y="196.328512" style="fill: #262626"/>
    </g>
    <g clip-path="url(#pf6328a5af5)">
     <use xlink:href="#C0_0_e5e2909f8b" x="124.927515" y="261.596469" style="fill: #262626"/>
    </g>
   </g>
   <g id="PathCollection_4">
    <defs>
     <path id="C1_0_87a98119d9" d="M 0 1 
C 0.265203 1 0.51958 0.894634 0.707107 0.707107 
C 0.894634 0.51958 1 0.265203 1 -0 
C 1 -0.265203 0.894634 -0.51958 0.707107 -0.707107 
C 0.51958 -0.894634 0.265203 -1 0 -1 
C -0.265203 -1 -0.51958 -0.894634 -0.707107 -0.707107 
C -0.894634 -0.51958 -1 -0.265203 -1 0 
C -1 0.265203 -0.894634 0.51958 -0.707107 0.707107 
C -0.51958 0.894634 -0.265203 1 0 1 
z
"/>
    </defs>
    <g clip-path="url(#pf6328a5af5)">
     <use xlink:href="#C1_0_87a98119d9" x="192.597329" y="204.862513"/>
    </g>
    <g clip-path="url(#pf6328a5af5)">
     <use xlink:href="#C1_0_87a98119d9" x="191.958321" y="119.611307"/>
    </g>
    <g clip-path="url(#pf6328a5af5)">
     <use xlink:href="#C1_0_87a98119d9" x="206.001128" y="201.790268"/>
    </g>
    <g clip-path="url(#pf6328a5af5)">
     <use xlink:href="#C1_0_87a98119d9" x="199.504764" y="165.602012"/>
    </g>
    <g clip-path="url(#pf6328a5af5)">
     <use xlink:href="#C1_0_87a98119d9" x="192.703938" y="171.912358"/>
    </g>
    <g clip-path="url(#pf6328a5af5)">
     <use xlink:href="#C1_0_87a98119d9" x="194.076232" y="64.722227"/>
    </g>
    <g clip-path="url(#pf6328a5af5)">
     <use xlink:href="#C1_0_87a98119d9" x="193.189731" y="95.739989"/>
    </g>
    <g clip-path="url(#pf6328a5af5)">
     <use xlink:href="#C1_0_87a98119d9" x="200.299834" y="211.107243"/>
    </g>
    <g clip-path="url(#pf6328a5af5)">
     <use xlink:href="#C1_0_87a98119d9" x="191.952476" y="127.238472"/>
    </g>
    <g clip-path="url(#pf6328a5af5)">
     <use xlink:href="#C1_0_87a98119d9" x="200.099914" y="185.862986"/>
    </g>
    <g clip-path="url(#pf6328a5af5)">
     <use xlink:href="#C1_0_87a98119d9" x="201.076011" y="204.993015"/>
    </g>
    <g clip-path="url(#pf6328a5af5)">
     <use xlink:href="#C1_0_87a98119d9" x="200.673628" y="227.250341"/>
    </g>
    <g clip-path="url(#pf6328a5af5)">
     <use xlink:href="#C1_0_87a98119d9" x="190.695389" y="232.500963"/>
    </g>
    <g clip-path="url(#pf6328a5af5)">
     <use xlink:href="#C1_0_87a98119d9" x="206.634736" y="203.480441"/>
    </g>
    <g clip-path="url(#pf6328a5af5)">
     <use xlink:href="#C1_0_87a98119d9" x="190.916206" y="238.694158"/>
    </g>
    <g clip-path="url(#pf6328a5af5)">
     <use xlink:href="#C1_0_87a98119d9" x="191.722223" y="201.139863"/>
    </g>
    <g clip-path="url(#pf6328a5af5)">
     <use xlink:href="#C1_0_87a98119d9" x="192.493053" y="184.544855"/>
    </g>
    <g clip-path="url(#pf6328a5af5)">
     <use xlink:href="#C1_0_87a98119d9" x="198.337117" y="103.184314"/>
    </g>
    <g clip-path="url(#pf6328a5af5)">
     <use xlink:href="#C1_0_87a98119d9" x="191.79325" y="132.218756"/>
    </g>
    <g clip-path="url(#pf6328a5af5)">
     <use xlink:href="#C1_0_87a98119d9" x="190.857582" y="185.632803"/>
    </g>
    <g clip-path="url(#pf6328a5af5)">
     <use xlink:href="#C1_0_87a98119d9" x="207.463044" y="195.358635"/>
    </g>
    <g clip-path="url(#pf6328a5af5)">
     <use xlink:href="#C1_0_87a98119d9" x="191.247412" y="125.614958"/>
    </g>
    <g clip-path="url(#pf6328a5af5)">
     <use xlink:href="#C1_0_87a98119d9" x="191.513728" y="189.991485"/>
    </g>
    <g clip-path="url(#pf6328a5af5)">
     <use xlink:href="#C1_0_87a98119d9" x="206.20926" y="38.793688"/>
    </g>
    <g clip-path="url(#pf6328a5af5)">
     <use xlink:href="#C1_0_87a98119d9" x="198.150329" y="190.83968"/>
    </g>
    <g clip-path="url(#pf6328a5af5)">
     <use xlink:href="#C1_0_87a98119d9" x="189.73238" y="210.189921"/>
    </g>
    <g clip-path="url(#pf6328a5af5)">
     <use xlink:href="#C1_0_87a98119d9" x="201.956261" y="149.57883"/>
    </g>
    <g clip-path="url(#pf6328a5af5)">
     <use xlink:href="#C1_0_87a98119d9" x="195.041874" y="178.365008"/>
    </g>
    <g clip-path="url(#pf6328a5af5)">
     <use xlink:href="#C1_0_87a98119d9" x="208.432512" y="105.463735"/>
    </g>
    <g clip-path="url(#pf6328a5af5)">
     <use xlink:href="#C1_0_87a98119d9" x="199.526129" y="118.11647"/>
    </g>
    <g clip-path="url(#pf6328a5af5)">
     <use xlink:href="#C1_0_87a98119d9" x="189.530558" y="263.988055"/>
    </g>
   </g>
   <g id="PathCollection_5">
    <defs>
     <path id="C2_0_0251d53cbd" d="M 0 1 
C 0.265203 1 0.51958 0.894634 0.707107 0.707107 
C 0.894634 0.51958 1 0.265203 1 -0 
C 1 -0.265203 0.894634 -0.51958 0.707107 -0.707107 
C 0.51958 -0.894634 0.265203 -1 0 -1 
C -0.265203 -1 -0.51958 -0.894634 -0.707107 -0.707107 
C -0.894634 -0.51958 -1 -0.265203 -1 0 
C -1 0.265203 -0.894634 0.51958 -0.707107 0.707107 
C -0.51958 0.894634 -0.265203 1 0 1 
z
"/>
    </defs>
    <g clip-path="url(#pf6328a5af5)">
     <use xlink:href="#C2_0_0251d53cbd" x="313.243693" y="224.009073" style="fill: #262626"/>
    </g>
    <g clip-path="url(#pf6328a5af5)">
     <use xlink:href="#C2_0_0251d53cbd" x="320.245205" y="253.978078" style="fill: #262626"/>
    </g>
    <g clip-path="url(#pf6328a5af5)">
     <use xlink:href="#C2_0_0251d53cbd" x="312.929374" y="262.279735" style="fill: #262626"/>
    </g>
    <g clip-path="url(#pf6328a5af5)">
     <use xlink:href="#C2_0_0251d53cbd" x="312.129142" y="253.205692" style="fill: #262626"/>
    </g>
    <g clip-path="url(#pf6328a5af5)">
     <use xlink:href="#C2_0_0251d53cbd" x="309.728796" y="214.972585" style="fill: #262626"/>
    </g>
    <g clip-path="url(#pf6328a5af5)">
     <use xlink:href="#C2_0_0251d53cbd" x="316.054768" y="154.065493" style="fill: #262626"/>
    </g>
    <g clip-path="url(#pf6328a5af5)">
     <use xlink:href="#C2_0_0251d53cbd" x="312.552259" y="193.831347" style="fill: #262626"/>
    </g>
    <g clip-path="url(#pf6328a5af5)">
     <use xlink:href="#C2_0_0251d53cbd" x="310.922715" y="187.484178" style="fill: #262626"/>
    </g>
    <g clip-path="url(#pf6328a5af5)">
     <use xlink:href="#C2_0_0251d53cbd" x="321.376908" y="242.793089" style="fill: #262626"/>
    </g>
    <g clip-path="url(#pf6328a5af5)">
     <use xlink:href="#C2_0_0251d53cbd" x="313.230958" y="178.038323" style="fill: #262626"/>
    </g>
    <g clip-path="url(#pf6328a5af5)">
     <use xlink:href="#C2_0_0251d53cbd" x="316.13361" y="148.486077" style="fill: #262626"/>
    </g>
    <g clip-path="url(#pf6328a5af5)">
     <use xlink:href="#C2_0_0251d53cbd" x="318.103533" y="211.966872" style="fill: #262626"/>
    </g>
    <g clip-path="url(#pf6328a5af5)">
     <use xlink:href="#C2_0_0251d53cbd" x="320.655169" y="143.092299" style="fill: #262626"/>
    </g>
    <g clip-path="url(#pf6328a5af5)">
     <use xlink:href="#C2_0_0251d53cbd" x="317.925742" y="221.50581" style="fill: #262626"/>
    </g>
    <g clip-path="url(#pf6328a5af5)">
     <use xlink:href="#C2_0_0251d53cbd" x="318.933395" y="196.618498" style="fill: #262626"/>
    </g>
   </g>
   <g id="PathCollection_6">
    <defs>
     <path id="C3_0_ec91bd4629" d="M 0 1 
C 0.265203 1 0.51958 0.894634 0.707107 0.707107 
C 0.894634 0.51958 1 0.265203 1 -0 
C 1 -0.265203 0.894634 -0.51958 0.707107 -0.707107 
C 0.51958 -0.894634 0.265203 -1 0 -1 
C -0.265203 -1 -0.51958 -0.894634 -0.707107 -0.707107 
C -0.894634 -0.51958 -1 -0.265203 -1 0 
C -1 0.265203 -0.894634 0.51958 -0.707107 0.707107 
C -0.51958 0.894634 -0.265203 1 0 1 
z
"/>
    </defs>
    <g clip-path="url(#pf6328a5af5)">
     <use xlink:href="#C3_0_ec91bd4629" x="394.099618" y="121.762706"/>
    </g>
    <g clip-path="url(#pf6328a5af5)">
     <use xlink:href="#C3_0_ec91bd4629" x="394.296811" y="106.900904"/>
    </g>
    <g clip-path="url(#pf6328a5af5)">
     <use xlink:href="#C3_0_ec91bd4629" x="396.611763" y="148.002675"/>
    </g>
    <g clip-path="url(#pf6328a5af5)">
     <use xlink:href="#C3_0_ec91bd4629" x="395.470427" y="194.632837"/>
    </g>
    <g clip-path="url(#pf6328a5af5)">
     <use xlink:href="#C3_0_ec91bd4629" x="387.067119" y="111.589046"/>
    </g>
    <g clip-path="url(#pf6328a5af5)">
     <use xlink:href="#C3_0_ec91bd4629" x="401.448981" y="197.005057"/>
    </g>
    <g clip-path="url(#pf6328a5af5)">
     <use xlink:href="#C3_0_ec91bd4629" x="384.864529" y="220.819763"/>
    </g>
    <g clip-path="url(#pf6328a5af5)">
     <use xlink:href="#C3_0_ec91bd4629" x="382.896439" y="226.174099"/>
    </g>
    <g clip-path="url(#pf6328a5af5)">
     <use xlink:href="#C3_0_ec91bd4629" x="389.167954" y="174.946846"/>
    </g>
    <g clip-path="url(#pf6328a5af5)">
     <use xlink:href="#C3_0_ec91bd4629" x="398.211989" y="192.96515"/>
    </g>
   </g>
   <g id="text_12">
    <!-- 66 -->
    <g style="fill: #262626" transform="translate(131.196281 -495.650711)scale(0.1 -0.1)">
     <use xlink:href="#DejaVuSans-36"/>
     <use xlink:href="#DejaVuSans-36" x="63.623047"/>
    </g>
   </g>
   <g id="text_13">
    <!-- p=0.0002102470307368096 -->
    <g style="fill: #262626" transform="translate(73.133781 117.254063)scale(0.08 -0.08)">
     <defs>
      <path id="DejaVuSans-3d" d="M 678 2906 
L 4684 2906 
L 4684 2381 
L 678 2381 
L 678 2906 
z
M 678 1631 
L 4684 1631 
L 4684 1100 
L 678 1100 
L 678 1631 
z
" transform="scale(0.015625)"/>
      <path id="DejaVuSans-37" d="M 525 4666 
L 3525 4666 
L 3525 4397 
L 1831 0 
L 1172 0 
L 2766 4134 
L 525 4134 
L 525 4666 
z
" transform="scale(0.015625)"/>
      <path id="DejaVuSans-38" d="M 2034 2216 
Q 1584 2216 1326 1975 
Q 1069 1734 1069 1313 
Q 1069 891 1326 650 
Q 1584 409 2034 409 
Q 2484 409 2743 651 
Q 3003 894 3003 1313 
Q 3003 1734 2745 1975 
Q 2488 2216 2034 2216 
z
M 1403 2484 
Q 997 2584 770 2862 
Q 544 3141 544 3541 
Q 544 4100 942 4425 
Q 1341 4750 2034 4750 
Q 2731 4750 3128 4425 
Q 3525 4100 3525 3541 
Q 3525 3141 3298 2862 
Q 3072 2584 2669 2484 
Q 3125 2378 3379 2068 
Q 3634 1759 3634 1313 
Q 3634 634 3220 271 
Q 2806 -91 2034 -91 
Q 1263 -91 848 271 
Q 434 634 434 1313 
Q 434 1759 690 2068 
Q 947 2378 1403 2484 
z
M 1172 3481 
Q 1172 3119 1398 2916 
Q 1625 2713 2034 2713 
Q 2441 2713 2670 2916 
Q 2900 3119 2900 3481 
Q 2900 3844 2670 4047 
Q 2441 4250 2034 4250 
Q 1625 4250 1398 4047 
Q 1172 3844 1172 3481 
z
" transform="scale(0.015625)"/>
      <path id="DejaVuSans-39" d="M 703 97 
L 703 672 
Q 941 559 1184 500 
Q 1428 441 1663 441 
Q 2288 441 2617 861 
Q 2947 1281 2994 2138 
Q 2813 1869 2534 1725 
Q 2256 1581 1919 1581 
Q 1219 1581 811 2004 
Q 403 2428 403 3163 
Q 403 3881 828 4315 
Q 1253 4750 1959 4750 
Q 2769 4750 3195 4129 
Q 3622 3509 3622 2328 
Q 3622 1225 3098 567 
Q 2575 -91 1691 -91 
Q 1453 -91 1209 -44 
Q 966 3 703 97 
z
M 1959 2075 
Q 2384 2075 2632 2365 
Q 2881 2656 2881 3163 
Q 2881 3666 2632 3958 
Q 2384 4250 1959 4250 
Q 1534 4250 1286 3958 
Q 1038 3666 1038 3163 
Q 1038 2656 1286 2365 
Q 1534 2075 1959 2075 
z
" transform="scale(0.015625)"/>
     </defs>
     <use xlink:href="#DejaVuSans-70"/>
     <use xlink:href="#DejaVuSans-3d" x="63.476562"/>
     <use xlink:href="#DejaVuSans-30" x="147.265625"/>
     <use xlink:href="#DejaVuSans-2e" x="210.888672"/>
     <use xlink:href="#DejaVuSans-30" x="242.675781"/>
     <use xlink:href="#DejaVuSans-30" x="306.298828"/>
     <use xlink:href="#DejaVuSans-30" x="369.921875"/>
     <use xlink:href="#DejaVuSans-32" x="433.544922"/>
     <use xlink:href="#DejaVuSans-31" x="497.167969"/>
     <use xlink:href="#DejaVuSans-30" x="560.791016"/>
     <use xlink:href="#DejaVuSans-32" x="624.414062"/>
     <use xlink:href="#DejaVuSans-34" x="688.037109"/>
     <use xlink:href="#DejaVuSans-37" x="751.660156"/>
     <use xlink:href="#DejaVuSans-30" x="815.283203"/>
     <use xlink:href="#DejaVuSans-33" x="878.90625"/>
     <use xlink:href="#DejaVuSans-30" x="942.529297"/>
     <use xlink:href="#DejaVuSans-37" x="1006.152344"/>
     <use xlink:href="#DejaVuSans-33" x="1069.775391"/>
     <use xlink:href="#DejaVuSans-36" x="1133.398438"/>
     <use xlink:href="#DejaVuSans-38" x="1197.021484"/>
     <use xlink:href="#DejaVuSans-30" x="1260.644531"/>
     <use xlink:href="#DejaVuSans-39" x="1324.267578"/>
     <use xlink:href="#DejaVuSans-36" x="1387.890625"/>
    </g>
   </g>
   <g id="text_14">
    <!-- 31 -->
    <g style="fill: #262626" transform="translate(189.160594 -495.650711)scale(0.1 -0.1)">
     <use xlink:href="#DejaVuSans-33"/>
     <use xlink:href="#DejaVuSans-31" x="63.623047"/>
    </g>
   </g>
   <g id="text_15">
    <!-- 15 -->
    <g style="fill: #262626" transform="translate(324.410656 -495.650711)scale(0.1 -0.1)">
     <use xlink:href="#DejaVuSans-31"/>
     <use xlink:href="#DejaVuSans-35" x="63.623047"/>
    </g>
   </g>
   <g id="text_16">
    <!-- p=0.041341280548396975 -->
    <g style="fill: #262626" transform="translate(268.893156 118.871369)scale(0.08 -0.08)">
     <use xlink:href="#DejaVuSans-70"/>
     <use xlink:href="#DejaVuSans-3d" x="63.476562"/>
     <use xlink:href="#DejaVuSans-30" x="147.265625"/>
     <use xlink:href="#DejaVuSans-2e" x="210.888672"/>
     <use xlink:href="#DejaVuSans-30" x="242.675781"/>
     <use xlink:href="#DejaVuSans-34" x="306.298828"/>
     <use xlink:href="#DejaVuSans-31" x="369.921875"/>
     <use xlink:href="#DejaVuSans-33" x="433.544922"/>
     <use xlink:href="#DejaVuSans-34" x="497.167969"/>
     <use xlink:href="#DejaVuSans-31" x="560.791016"/>
     <use xlink:href="#DejaVuSans-32" x="624.414062"/>
     <use xlink:href="#DejaVuSans-38" x="688.037109"/>
     <use xlink:href="#DejaVuSans-30" x="751.660156"/>
     <use xlink:href="#DejaVuSans-35" x="815.283203"/>
     <use xlink:href="#DejaVuSans-34" x="878.90625"/>
     <use xlink:href="#DejaVuSans-38" x="942.529297"/>
     <use xlink:href="#DejaVuSans-33" x="1006.152344"/>
     <use xlink:href="#DejaVuSans-39" x="1069.775391"/>
     <use xlink:href="#DejaVuSans-36" x="1133.398438"/>
     <use xlink:href="#DejaVuSans-39" x="1197.021484"/>
     <use xlink:href="#DejaVuSans-37" x="1260.644531"/>
     <use xlink:href="#DejaVuSans-35" x="1324.267578"/>
    </g>
   </g>
   <g id="text_17">
    <!-- 10 -->
    <g style="fill: #262626" transform="translate(382.374969 -495.650711)scale(0.1 -0.1)">
     <use xlink:href="#DejaVuSans-31"/>
     <use xlink:href="#DejaVuSans-30" x="63.623047"/>
    </g>
   </g>
   <g id="legend_1">
    <g id="patch_13">
     <path d="M 377.728125 28.907494 
L 397.728125 28.907494 
L 397.728125 21.907494 
L 377.728125 21.907494 
z
" style="fill: #ecf2ec; stroke: #262626; stroke-width: 0.75; stroke-linejoin: miter"/>
    </g>
    <g id="text_18">
     <!-- Mutant -->
     <g style="fill: #262626" transform="translate(405.728125 28.907494)scale(0.1 -0.1)">
      <defs>
       <path id="DejaVuSans-4d" d="M 628 4666 
L 1569 4666 
L 2759 1491 
L 3956 4666 
L 4897 4666 
L 4897 0 
L 4281 0 
L 4281 4097 
L 3078 897 
L 2444 897 
L 1241 4097 
L 1241 0 
L 628 0 
L 628 4666 
z
" transform="scale(0.015625)"/>
       <path id="DejaVuSans-75" d="M 544 1381 
L 544 3500 
L 1119 3500 
L 1119 1403 
Q 1119 906 1312 657 
Q 1506 409 1894 409 
Q 2359 409 2629 706 
Q 2900 1003 2900 1516 
L 2900 3500 
L 3475 3500 
L 3475 0 
L 2900 0 
L 2900 538 
Q 2691 219 2414 64 
Q 2138 -91 1772 -91 
Q 1169 -91 856 284 
Q 544 659 544 1381 
z
M 1991 3584 
L 1991 3584 
z
" transform="scale(0.015625)"/>
       <path id="DejaVuSans-61" d="M 2194 1759 
Q 1497 1759 1228 1600 
Q 959 1441 959 1056 
Q 959 750 1161 570 
Q 1363 391 1709 391 
Q 2188 391 2477 730 
Q 2766 1069 2766 1631 
L 2766 1759 
L 2194 1759 
z
M 3341 1997 
L 3341 0 
L 2766 0 
L 2766 531 
Q 2569 213 2275 61 
Q 1981 -91 1556 -91 
Q 1019 -91 701 211 
Q 384 513 384 1019 
Q 384 1609 779 1909 
Q 1175 2209 1959 2209 
L 2766 2209 
L 2766 2266 
Q 2766 2663 2505 2880 
Q 2244 3097 1772 3097 
Q 1472 3097 1187 3025 
Q 903 2953 641 2809 
L 641 3341 
Q 956 3463 1253 3523 
Q 1550 3584 1831 3584 
Q 2591 3584 2966 3190 
Q 3341 2797 3341 1997 
z
" transform="scale(0.015625)"/>
      </defs>
      <use xlink:href="#DejaVuSans-4d"/>
      <use xlink:href="#DejaVuSans-75" x="86.279297"/>
      <use xlink:href="#DejaVuSans-74" x="149.658203"/>
      <use xlink:href="#DejaVuSans-61" x="188.867188"/>
      <use xlink:href="#DejaVuSans-6e" x="250.146484"/>
      <use xlink:href="#DejaVuSans-74" x="313.525391"/>
     </g>
    </g>
    <g id="patch_14">
     <path d="M 377.728125 43.585619 
L 397.728125 43.585619 
L 397.728125 36.585619 
L 377.728125 36.585619 
z
" style="fill: #107010; stroke: #262626; stroke-width: 0.75; stroke-linejoin: miter"/>
    </g>
    <g id="text_19">
     <!-- WT -->
     <g style="fill: #262626" transform="translate(405.728125 43.585619)scale(0.1 -0.1)">
      <use xlink:href="#DejaVuSans-57"/>
      <use xlink:href="#DejaVuSans-54" x="98.876953"/>
     </g>
    </g>
   </g>
  </g>
 </g>
 <defs>
  <clipPath id="pf6328a5af5">
   <rect x="63.57125" y="12.309056" width="386.42875" height="291.330944"/>
  </clipPath>
 </defs>
</svg>
