<?xml version="1.0" encoding="utf-8" standalone="no"?>
<!DOCTYPE svg PUBLIC "-//W3C//DTD SVG 1.1//EN"
  "http://www.w3.org/Graphics/SVG/1.1/DTD/svg11.dtd">
<svg xmlns:xlink="http://www.w3.org/1999/xlink" width="460.8pt" height="345.6pt" viewBox="0 0 460.8 345.6" xmlns="http://www.w3.org/2000/svg" version="1.1">
 <metadata>
  <rdf:RDF xmlns:dc="http://purl.org/dc/elements/1.1/" xmlns:cc="http://creativecommons.org/ns#" xmlns:rdf="http://www.w3.org/1999/02/22-rdf-syntax-ns#">
   <cc:Work>
    <dc:type rdf:resource="http://purl.org/dc/dcmitype/StillImage"/>
    <dc:date>2024-08-09T13:39:08.532860</dc:date>
    <dc:format>image/svg+xml</dc:format>
    <dc:creator>
     <cc:Agent>
      <dc:title>Matplotlib v3.7.1, https://matplotlib.org/</dc:title>
     </cc:Agent>
    </dc:creator>
   </cc:Work>
  </rdf:RDF>
 </metadata>
 <defs>
  <style type="text/css">*{stroke-linejoin: round; stroke-linecap: butt}</style>
 </defs>
 <g id="figure_1">
  <g id="patch_1">
   <path d="M 0 345.6 
L 460.8 345.6 
L 460.8 0 
L 0 0 
z
" style="fill: #ffffff"/>
  </g>
  <g id="axes_1">
   <g id="patch_2">
    <path d="M 47.72 303.64 
L 450 303.64 
L 450 64.0224 
L 47.72 64.0224 
z
" style="fill: #ffffff"/>
   </g>
   <g id="PathCollection_1">
    <defs>
     <path id="m838724a0c2" d="M 0 3 
C 0.795609 3 1.55874 2.683901 2.12132 2.12132 
C 2.683901 1.55874 3 0.795609 3 0 
C 3 -0.795609 2.683901 -1.55874 2.12132 -2.12132 
C 1.55874 -2.683901 0.795609 -3 0 -3 
C -0.795609 -3 -1.55874 -2.683901 -2.12132 -2.12132 
C -2.683901 -1.55874 -3 -0.795609 -3 0 
C -3 0.795609 -2.683901 1.55874 -2.12132 2.12132 
C -1.55874 2.683901 -0.795609 3 0 3 
z
" style="stroke: #1f77b4"/>
    </defs>
    <g clip-path="url(#p5a01219b25)">
     <use xlink:href="#m838724a0c2" x="261.508062" y="236.956782" style="fill: #1f77b4; stroke: #1f77b4"/>
     <use xlink:href="#m838724a0c2" x="311.405823" y="253.921703" style="fill: #1f77b4; stroke: #1f77b4"/>
     <use xlink:href="#m838724a0c2" x="96.850759" y="74.914109" style="fill: #1f77b4; stroke: #1f77b4"/>
     <use xlink:href="#m838724a0c2" x="290.805158" y="280.067497" style="fill: #1f77b4; stroke: #1f77b4"/>
     <use xlink:href="#m838724a0c2" x="276.886234" y="247.523026" style="fill: #1f77b4; stroke: #1f77b4"/>
     <use xlink:href="#m838724a0c2" x="266.186328" y="255.320999" style="fill: #1f77b4; stroke: #1f77b4"/>
     <use xlink:href="#m838724a0c2" x="93.915069" y="112.521346" style="fill: #1f77b4; stroke: #1f77b4"/>
     <use xlink:href="#m838724a0c2" x="94.599839" y="165.008496" style="fill: #1f77b4; stroke: #1f77b4"/>
     <use xlink:href="#m838724a0c2" x="148.624909" y="125.76235" style="fill: #1f77b4; stroke: #1f77b4"/>
     <use xlink:href="#m838724a0c2" x="99.875409" y="124.613901" style="fill: #1f77b4; stroke: #1f77b4"/>
     <use xlink:href="#m838724a0c2" x="151.19504" y="86.814389" style="fill: #1f77b4; stroke: #1f77b4"/>
     <use xlink:href="#m838724a0c2" x="133.350649" y="140.046946" style="fill: #1f77b4; stroke: #1f77b4"/>
     <use xlink:href="#m838724a0c2" x="341.947616" y="259.529761" style="fill: #1f77b4; stroke: #1f77b4"/>
     <use xlink:href="#m838724a0c2" x="431.393092" y="234.90172" style="fill: #1f77b4; stroke: #1f77b4"/>
     <use xlink:href="#m838724a0c2" x="330.711705" y="220.751002" style="fill: #1f77b4; stroke: #1f77b4"/>
     <use xlink:href="#m838724a0c2" x="345.427534" y="257.513664" style="fill: #1f77b4; stroke: #1f77b4"/>
     <use xlink:href="#m838724a0c2" x="156.279981" y="219.692032" style="fill: #1f77b4; stroke: #1f77b4"/>
     <use xlink:href="#m838724a0c2" x="328.142322" y="257.008195" style="fill: #1f77b4; stroke: #1f77b4"/>
     <use xlink:href="#m838724a0c2" x="357.353448" y="261.24252" style="fill: #1f77b4; stroke: #1f77b4"/>
     <use xlink:href="#m838724a0c2" x="105.945642" y="112.249806" style="fill: #1f77b4; stroke: #1f77b4"/>
     <use xlink:href="#m838724a0c2" x="66.005455" y="108.003972" style="fill: #1f77b4; stroke: #1f77b4"/>
     <use xlink:href="#m838724a0c2" x="176.222789" y="111.084233" style="fill: #1f77b4; stroke: #1f77b4"/>
     <use xlink:href="#m838724a0c2" x="102.96136" y="112.242515" style="fill: #1f77b4; stroke: #1f77b4"/>
     <use xlink:href="#m838724a0c2" x="236.09457" y="148.870967" style="fill: #1f77b4; stroke: #1f77b4"/>
     <use xlink:href="#m838724a0c2" x="289.767537" y="271.314928" style="fill: #1f77b4; stroke: #1f77b4"/>
     <use xlink:href="#m838724a0c2" x="304.539433" y="263.044863" style="fill: #1f77b4; stroke: #1f77b4"/>
     <use xlink:href="#m838724a0c2" x="375.280818" y="257.862569" style="fill: #1f77b4; stroke: #1f77b4"/>
     <use xlink:href="#m838724a0c2" x="430.990154" y="261.170487" style="fill: #1f77b4; stroke: #1f77b4"/>
     <use xlink:href="#m838724a0c2" x="179.014946" y="146.539098" style="fill: #1f77b4; stroke: #1f77b4"/>
     <use xlink:href="#m838724a0c2" x="357.37737" y="261.102744" style="fill: #1f77b4; stroke: #1f77b4"/>
     <use xlink:href="#m838724a0c2" x="301.148476" y="232.186684" style="fill: #1f77b4; stroke: #1f77b4"/>
     <use xlink:href="#m838724a0c2" x="252.257686" y="105.608428" style="fill: #1f77b4; stroke: #1f77b4"/>
     <use xlink:href="#m838724a0c2" x="308.870081" y="252.191981" style="fill: #1f77b4; stroke: #1f77b4"/>
     <use xlink:href="#m838724a0c2" x="317.343737" y="239.134577" style="fill: #1f77b4; stroke: #1f77b4"/>
     <use xlink:href="#m838724a0c2" x="300.340357" y="261.019833" style="fill: #1f77b4; stroke: #1f77b4"/>
     <use xlink:href="#m838724a0c2" x="248.334461" y="228.204274" style="fill: #1f77b4; stroke: #1f77b4"/>
     <use xlink:href="#m838724a0c2" x="139.702714" y="147.538485" style="fill: #1f77b4; stroke: #1f77b4"/>
     <use xlink:href="#m838724a0c2" x="135.791451" y="251.544016" style="fill: #1f77b4; stroke: #1f77b4"/>
     <use xlink:href="#m838724a0c2" x="363.710746" y="277.614934" style="fill: #1f77b4; stroke: #1f77b4"/>
     <use xlink:href="#m838724a0c2" x="301.425075" y="255.296591" style="fill: #1f77b4; stroke: #1f77b4"/>
     <use xlink:href="#m838724a0c2" x="320.260738" y="271.872268" style="fill: #1f77b4; stroke: #1f77b4"/>
     <use xlink:href="#m838724a0c2" x="365.465282" y="253.694968" style="fill: #1f77b4; stroke: #1f77b4"/>
     <use xlink:href="#m838724a0c2" x="218.05955" y="146.832685" style="fill: #1f77b4; stroke: #1f77b4"/>
     <use xlink:href="#m838724a0c2" x="199.579728" y="148.63871" style="fill: #1f77b4; stroke: #1f77b4"/>
     <use xlink:href="#m838724a0c2" x="144.973051" y="116.916118" style="fill: #1f77b4; stroke: #1f77b4"/>
     <use xlink:href="#m838724a0c2" x="81.537625" y="160.804531" style="fill: #1f77b4; stroke: #1f77b4"/>
     <use xlink:href="#m838724a0c2" x="192.289468" y="126.690394" style="fill: #1f77b4; stroke: #1f77b4"/>
     <use xlink:href="#m838724a0c2" x="91.22458" y="140.920187" style="fill: #1f77b4; stroke: #1f77b4"/>
     <use xlink:href="#m838724a0c2" x="90.266201" y="168.676748" style="fill: #1f77b4; stroke: #1f77b4"/>
     <use xlink:href="#m838724a0c2" x="341.247895" y="163.193094" style="fill: #1f77b4; stroke: #1f77b4"/>
     <use xlink:href="#m838724a0c2" x="356.52664" y="180.713475" style="fill: #1f77b4; stroke: #1f77b4"/>
     <use xlink:href="#m838724a0c2" x="371.56168" y="116.389944" style="fill: #1f77b4; stroke: #1f77b4"/>
     <use xlink:href="#m838724a0c2" x="268.078416" y="237.541753" style="fill: #1f77b4; stroke: #1f77b4"/>
     <use xlink:href="#m838724a0c2" x="317.597162" y="239.566662" style="fill: #1f77b4; stroke: #1f77b4"/>
     <use xlink:href="#m838724a0c2" x="289.875187" y="254.389566" style="fill: #1f77b4; stroke: #1f77b4"/>
     <use xlink:href="#m838724a0c2" x="327.303553" y="193.85117" style="fill: #1f77b4; stroke: #1f77b4"/>
     <use xlink:href="#m838724a0c2" x="243.502945" y="140.700164" style="fill: #1f77b4; stroke: #1f77b4"/>
     <use xlink:href="#m838724a0c2" x="296.453016" y="191.96007" style="fill: #1f77b4; stroke: #1f77b4"/>
     <use xlink:href="#m838724a0c2" x="283.322774" y="200.409105" style="fill: #1f77b4; stroke: #1f77b4"/>
     <use xlink:href="#m838724a0c2" x="176.638435" y="92.594846" style="fill: #1f77b4; stroke: #1f77b4"/>
     <use xlink:href="#m838724a0c2" x="204.9622" y="92.001888" style="fill: #1f77b4; stroke: #1f77b4"/>
     <use xlink:href="#m838724a0c2" x="186.279789" y="147.737592" style="fill: #1f77b4; stroke: #1f77b4"/>
     <use xlink:href="#m838724a0c2" x="324.291612" y="242.294952" style="fill: #1f77b4; stroke: #1f77b4"/>
     <use xlink:href="#m838724a0c2" x="283.281658" y="238.459566" style="fill: #1f77b4; stroke: #1f77b4"/>
     <use xlink:href="#m838724a0c2" x="264.215745" y="267.191567" style="fill: #1f77b4; stroke: #1f77b4"/>
     <use xlink:href="#m838724a0c2" x="431.714545" y="233.343155" style="fill: #1f77b4; stroke: #1f77b4"/>
     <use xlink:href="#m838724a0c2" x="321.102497" y="242.770242" style="fill: #1f77b4; stroke: #1f77b4"/>
     <use xlink:href="#m838724a0c2" x="318.534609" y="170.595677" style="fill: #1f77b4; stroke: #1f77b4"/>
     <use xlink:href="#m838724a0c2" x="311.263786" y="262.428475" style="fill: #1f77b4; stroke: #1f77b4"/>
     <use xlink:href="#m838724a0c2" x="216.549467" y="182.36041" style="fill: #1f77b4; stroke: #1f77b4"/>
     <use xlink:href="#m838724a0c2" x="154.493299" y="210.739574" style="fill: #1f77b4; stroke: #1f77b4"/>
     <use xlink:href="#m838724a0c2" x="131.830101" y="218.04652" style="fill: #1f77b4; stroke: #1f77b4"/>
     <use xlink:href="#m838724a0c2" x="107.756993" y="153.811638" style="fill: #1f77b4; stroke: #1f77b4"/>
     <use xlink:href="#m838724a0c2" x="307.500541" y="256.006219" style="fill: #1f77b4; stroke: #1f77b4"/>
     <use xlink:href="#m838724a0c2" x="340.371" y="237.197564" style="fill: #1f77b4; stroke: #1f77b4"/>
     <use xlink:href="#m838724a0c2" x="315.316339" y="249.289207" style="fill: #1f77b4; stroke: #1f77b4"/>
     <use xlink:href="#m838724a0c2" x="297.569132" y="253.635435" style="fill: #1f77b4; stroke: #1f77b4"/>
     <use xlink:href="#m838724a0c2" x="271.265289" y="242.203353" style="fill: #1f77b4; stroke: #1f77b4"/>
     <use xlink:href="#m838724a0c2" x="365.600591" y="262.330016" style="fill: #1f77b4; stroke: #1f77b4"/>
     <use xlink:href="#m838724a0c2" x="334.866675" y="221.74708" style="fill: #1f77b4; stroke: #1f77b4"/>
     <use xlink:href="#m838724a0c2" x="297.924973" y="261.986324" style="fill: #1f77b4; stroke: #1f77b4"/>
     <use xlink:href="#m838724a0c2" x="125.382347" y="160.890244" style="fill: #1f77b4; stroke: #1f77b4"/>
     <use xlink:href="#m838724a0c2" x="325.403989" y="245.577994" style="fill: #1f77b4; stroke: #1f77b4"/>
     <use xlink:href="#m838724a0c2" x="361.956957" y="257.032334" style="fill: #1f77b4; stroke: #1f77b4"/>
     <use xlink:href="#m838724a0c2" x="287.154048" y="271.54293" style="fill: #1f77b4; stroke: #1f77b4"/>
     <use xlink:href="#m838724a0c2" x="376.021656" y="274.81159" style="fill: #1f77b4; stroke: #1f77b4"/>
     <use xlink:href="#m838724a0c2" x="343.588522" y="266.269017" style="fill: #1f77b4; stroke: #1f77b4"/>
     <use xlink:href="#m838724a0c2" x="353.839889" y="265.31718" style="fill: #1f77b4; stroke: #1f77b4"/>
     <use xlink:href="#m838724a0c2" x="273.155134" y="264.4158" style="fill: #1f77b4; stroke: #1f77b4"/>
     <use xlink:href="#m838724a0c2" x="286.494695" y="243.125618" style="fill: #1f77b4; stroke: #1f77b4"/>
     <use xlink:href="#m838724a0c2" x="302.198058" y="245.922623" style="fill: #1f77b4; stroke: #1f77b4"/>
     <use xlink:href="#m838724a0c2" x="293.58386" y="262.09249" style="fill: #1f77b4; stroke: #1f77b4"/>
     <use xlink:href="#m838724a0c2" x="296.686257" y="256.724536" style="fill: #1f77b4; stroke: #1f77b4"/>
     <use xlink:href="#m838724a0c2" x="198.511457" y="164.312977" style="fill: #1f77b4; stroke: #1f77b4"/>
     <use xlink:href="#m838724a0c2" x="174.506378" y="119.54513" style="fill: #1f77b4; stroke: #1f77b4"/>
     <use xlink:href="#m838724a0c2" x="288.557228" y="256.840577" style="fill: #1f77b4; stroke: #1f77b4"/>
     <use xlink:href="#m838724a0c2" x="316.360688" y="272.446259" style="fill: #1f77b4; stroke: #1f77b4"/>
     <use xlink:href="#m838724a0c2" x="296.507589" y="249.358241" style="fill: #1f77b4; stroke: #1f77b4"/>
     <use xlink:href="#m838724a0c2" x="240.271966" y="262.639141" style="fill: #1f77b4; stroke: #1f77b4"/>
     <use xlink:href="#m838724a0c2" x="231.869329" y="251.209439" style="fill: #1f77b4; stroke: #1f77b4"/>
     <use xlink:href="#m838724a0c2" x="382.873095" y="254.724399" style="fill: #1f77b4; stroke: #1f77b4"/>
     <use xlink:href="#m838724a0c2" x="269.021097" y="279.0628" style="fill: #1f77b4; stroke: #1f77b4"/>
     <use xlink:href="#m838724a0c2" x="302.137505" y="273.765146" style="fill: #1f77b4; stroke: #1f77b4"/>
     <use xlink:href="#m838724a0c2" x="160.513445" y="112.718124" style="fill: #1f77b4; stroke: #1f77b4"/>
     <use xlink:href="#m838724a0c2" x="204.599631" y="174.974195" style="fill: #1f77b4; stroke: #1f77b4"/>
     <use xlink:href="#m838724a0c2" x="195.740979" y="212.591663" style="fill: #1f77b4; stroke: #1f77b4"/>
     <use xlink:href="#m838724a0c2" x="186.00917" y="212.765133" style="fill: #1f77b4; stroke: #1f77b4"/>
     <use xlink:href="#m838724a0c2" x="210.335702" y="229.850779" style="fill: #1f77b4; stroke: #1f77b4"/>
     <use xlink:href="#m838724a0c2" x="421.049027" y="274.857925" style="fill: #1f77b4; stroke: #1f77b4"/>
     <use xlink:href="#m838724a0c2" x="300.779178" y="278.729573" style="fill: #1f77b4; stroke: #1f77b4"/>
     <use xlink:href="#m838724a0c2" x="349.456165" y="243.517135" style="fill: #1f77b4; stroke: #1f77b4"/>
     <use xlink:href="#m838724a0c2" x="252.088736" y="264.374694" style="fill: #1f77b4; stroke: #1f77b4"/>
     <use xlink:href="#m838724a0c2" x="365.071315" y="261.127308" style="fill: #1f77b4; stroke: #1f77b4"/>
     <use xlink:href="#m838724a0c2" x="341.539445" y="273.594433" style="fill: #1f77b4; stroke: #1f77b4"/>
     <use xlink:href="#m838724a0c2" x="337.116847" y="268.993328" style="fill: #1f77b4; stroke: #1f77b4"/>
     <use xlink:href="#m838724a0c2" x="328.992304" y="252.90181" style="fill: #1f77b4; stroke: #1f77b4"/>
     <use xlink:href="#m838724a0c2" x="315.074128" y="275.320147" style="fill: #1f77b4; stroke: #1f77b4"/>
     <use xlink:href="#m838724a0c2" x="326.342184" y="267.390253" style="fill: #1f77b4; stroke: #1f77b4"/>
     <use xlink:href="#m838724a0c2" x="213.091229" y="139.994243" style="fill: #1f77b4; stroke: #1f77b4"/>
     <use xlink:href="#m838724a0c2" x="180.421865" y="163.509486" style="fill: #1f77b4; stroke: #1f77b4"/>
     <use xlink:href="#m838724a0c2" x="237.195734" y="249.593591" style="fill: #1f77b4; stroke: #1f77b4"/>
     <use xlink:href="#m838724a0c2" x="334.33366" y="259.354971" style="fill: #1f77b4; stroke: #1f77b4"/>
    </g>
   </g>
   <g id="matplotlib.axis_1">
    <g id="xtick_1">
     <g id="line2d_1">
      <defs>
       <path id="m7f14457d70" d="M 0 0 
L 0 3.5 
" style="stroke: #000000; stroke-width: 0.8"/>
      </defs>
      <g>
       <use xlink:href="#m7f14457d70" x="80.488043" y="303.64" style="stroke: #000000; stroke-width: 0.8"/>
      </g>
     </g>
     <g id="text_1">
      <!-- −60 -->
      <g transform="translate(69.935699 318.238437) scale(0.1 -0.1)">
       <defs>
        <path id="DejaVuSans-2212" d="M 678 2272 
L 4684 2272 
L 4684 1741 
L 678 1741 
L 678 2272 
z
" transform="scale(0.015625)"/>
        <path id="DejaVuSans-36" d="M 2113 2584 
Q 1688 2584 1439 2293 
Q 1191 2003 1191 1497 
Q 1191 994 1439 701 
Q 1688 409 2113 409 
Q 2538 409 2786 701 
Q 3034 994 3034 1497 
Q 3034 2003 2786 2293 
Q 2538 2584 2113 2584 
z
M 3366 4563 
L 3366 3988 
Q 3128 4100 2886 4159 
Q 2644 4219 2406 4219 
Q 1781 4219 1451 3797 
Q 1122 3375 1075 2522 
Q 1259 2794 1537 2939 
Q 1816 3084 2150 3084 
Q 2853 3084 3261 2657 
Q 3669 2231 3669 1497 
Q 3669 778 3244 343 
Q 2819 -91 2113 -91 
Q 1303 -91 875 529 
Q 447 1150 447 2328 
Q 447 3434 972 4092 
Q 1497 4750 2381 4750 
Q 2619 4750 2861 4703 
Q 3103 4656 3366 4563 
z
" transform="scale(0.015625)"/>
        <path id="DejaVuSans-30" d="M 2034 4250 
Q 1547 4250 1301 3770 
Q 1056 3291 1056 2328 
Q 1056 1369 1301 889 
Q 1547 409 2034 409 
Q 2525 409 2770 889 
Q 3016 1369 3016 2328 
Q 3016 3291 2770 3770 
Q 2525 4250 2034 4250 
z
M 2034 4750 
Q 2819 4750 3233 4129 
Q 3647 3509 3647 2328 
Q 3647 1150 3233 529 
Q 2819 -91 2034 -91 
Q 1250 -91 836 529 
Q 422 1150 422 2328 
Q 422 3509 836 4129 
Q 1250 4750 2034 4750 
z
" transform="scale(0.015625)"/>
       </defs>
       <use xlink:href="#DejaVuSans-2212"/>
       <use xlink:href="#DejaVuSans-36" x="83.789062"/>
       <use xlink:href="#DejaVuSans-30" x="147.412109"/>
      </g>
     </g>
    </g>
    <g id="xtick_2">
     <g id="line2d_2">
      <g>
       <use xlink:href="#m7f14457d70" x="155.244603" y="303.64" style="stroke: #000000; stroke-width: 0.8"/>
      </g>
     </g>
     <g id="text_2">
      <!-- −50 -->
      <g transform="translate(144.692259 318.238437) scale(0.1 -0.1)">
       <defs>
        <path id="DejaVuSans-35" d="M 691 4666 
L 3169 4666 
L 3169 4134 
L 1269 4134 
L 1269 2991 
Q 1406 3038 1543 3061 
Q 1681 3084 1819 3084 
Q 2600 3084 3056 2656 
Q 3513 2228 3513 1497 
Q 3513 744 3044 326 
Q 2575 -91 1722 -91 
Q 1428 -91 1123 -41 
Q 819 9 494 109 
L 494 744 
Q 775 591 1075 516 
Q 1375 441 1709 441 
Q 2250 441 2565 725 
Q 2881 1009 2881 1497 
Q 2881 1984 2565 2268 
Q 2250 2553 1709 2553 
Q 1456 2553 1204 2497 
Q 953 2441 691 2322 
L 691 4666 
z
" transform="scale(0.015625)"/>
       </defs>
       <use xlink:href="#DejaVuSans-2212"/>
       <use xlink:href="#DejaVuSans-35" x="83.789062"/>
       <use xlink:href="#DejaVuSans-30" x="147.412109"/>
      </g>
     </g>
    </g>
    <g id="xtick_3">
     <g id="line2d_3">
      <g>
       <use xlink:href="#m7f14457d70" x="230.001163" y="303.64" style="stroke: #000000; stroke-width: 0.8"/>
      </g>
     </g>
     <g id="text_3">
      <!-- −40 -->
      <g transform="translate(219.448819 318.238437) scale(0.1 -0.1)">
       <defs>
        <path id="DejaVuSans-34" d="M 2419 4116 
L 825 1625 
L 2419 1625 
L 2419 4116 
z
M 2253 4666 
L 3047 4666 
L 3047 1625 
L 3713 1625 
L 3713 1100 
L 3047 1100 
L 3047 0 
L 2419 0 
L 2419 1100 
L 313 1100 
L 313 1709 
L 2253 4666 
z
" transform="scale(0.015625)"/>
       </defs>
       <use xlink:href="#DejaVuSans-2212"/>
       <use xlink:href="#DejaVuSans-34" x="83.789062"/>
       <use xlink:href="#DejaVuSans-30" x="147.412109"/>
      </g>
     </g>
    </g>
    <g id="xtick_4">
     <g id="line2d_4">
      <g>
       <use xlink:href="#m7f14457d70" x="304.757723" y="303.64" style="stroke: #000000; stroke-width: 0.8"/>
      </g>
     </g>
     <g id="text_4">
      <!-- −30 -->
      <g transform="translate(294.205379 318.238437) scale(0.1 -0.1)">
       <defs>
        <path id="DejaVuSans-33" d="M 2597 2516 
Q 3050 2419 3304 2112 
Q 3559 1806 3559 1356 
Q 3559 666 3084 287 
Q 2609 -91 1734 -91 
Q 1441 -91 1130 -33 
Q 819 25 488 141 
L 488 750 
Q 750 597 1062 519 
Q 1375 441 1716 441 
Q 2309 441 2620 675 
Q 2931 909 2931 1356 
Q 2931 1769 2642 2001 
Q 2353 2234 1838 2234 
L 1294 2234 
L 1294 2753 
L 1863 2753 
Q 2328 2753 2575 2939 
Q 2822 3125 2822 3475 
Q 2822 3834 2567 4026 
Q 2313 4219 1838 4219 
Q 1578 4219 1281 4162 
Q 984 4106 628 3988 
L 628 4550 
Q 988 4650 1302 4700 
Q 1616 4750 1894 4750 
Q 2613 4750 3031 4423 
Q 3450 4097 3450 3541 
Q 3450 3153 3228 2886 
Q 3006 2619 2597 2516 
z
" transform="scale(0.015625)"/>
       </defs>
       <use xlink:href="#DejaVuSans-2212"/>
       <use xlink:href="#DejaVuSans-33" x="83.789062"/>
       <use xlink:href="#DejaVuSans-30" x="147.412109"/>
      </g>
     </g>
    </g>
    <g id="xtick_5">
     <g id="line2d_5">
      <g>
       <use xlink:href="#m7f14457d70" x="379.514282" y="303.64" style="stroke: #000000; stroke-width: 0.8"/>
      </g>
     </g>
     <g id="text_5">
      <!-- −20 -->
      <g transform="translate(368.961939 318.238437) scale(0.1 -0.1)">
       <defs>
        <path id="DejaVuSans-32" d="M 1228 531 
L 3431 531 
L 3431 0 
L 469 0 
L 469 531 
Q 828 903 1448 1529 
Q 2069 2156 2228 2338 
Q 2531 2678 2651 2914 
Q 2772 3150 2772 3378 
Q 2772 3750 2511 3984 
Q 2250 4219 1831 4219 
Q 1534 4219 1204 4116 
Q 875 4013 500 3803 
L 500 4441 
Q 881 4594 1212 4672 
Q 1544 4750 1819 4750 
Q 2544 4750 2975 4387 
Q 3406 4025 3406 3419 
Q 3406 3131 3298 2873 
Q 3191 2616 2906 2266 
Q 2828 2175 2409 1742 
Q 1991 1309 1228 531 
z
" transform="scale(0.015625)"/>
       </defs>
       <use xlink:href="#DejaVuSans-2212"/>
       <use xlink:href="#DejaVuSans-32" x="83.789062"/>
       <use xlink:href="#DejaVuSans-30" x="147.412109"/>
      </g>
     </g>
    </g>
    <g id="text_6">
     <!-- Energy Score (kcal/mol) -->
     <g transform="translate(189.170937 331.916562) scale(0.1 -0.1)">
      <defs>
       <path id="DejaVuSans-45" d="M 628 4666 
L 3578 4666 
L 3578 4134 
L 1259 4134 
L 1259 2753 
L 3481 2753 
L 3481 2222 
L 1259 2222 
L 1259 531 
L 3634 531 
L 3634 0 
L 628 0 
L 628 4666 
z
" transform="scale(0.015625)"/>
       <path id="DejaVuSans-6e" d="M 3513 2113 
L 3513 0 
L 2938 0 
L 2938 2094 
Q 2938 2591 2744 2837 
Q 2550 3084 2163 3084 
Q 1697 3084 1428 2787 
Q 1159 2491 1159 1978 
L 1159 0 
L 581 0 
L 581 3500 
L 1159 3500 
L 1159 2956 
Q 1366 3272 1645 3428 
Q 1925 3584 2291 3584 
Q 2894 3584 3203 3211 
Q 3513 2838 3513 2113 
z
" transform="scale(0.015625)"/>
       <path id="DejaVuSans-65" d="M 3597 1894 
L 3597 1613 
L 953 1613 
Q 991 1019 1311 708 
Q 1631 397 2203 397 
Q 2534 397 2845 478 
Q 3156 559 3463 722 
L 3463 178 
Q 3153 47 2828 -22 
Q 2503 -91 2169 -91 
Q 1331 -91 842 396 
Q 353 884 353 1716 
Q 353 2575 817 3079 
Q 1281 3584 2069 3584 
Q 2775 3584 3186 3129 
Q 3597 2675 3597 1894 
z
M 3022 2063 
Q 3016 2534 2758 2815 
Q 2500 3097 2075 3097 
Q 1594 3097 1305 2825 
Q 1016 2553 972 2059 
L 3022 2063 
z
" transform="scale(0.015625)"/>
       <path id="DejaVuSans-72" d="M 2631 2963 
Q 2534 3019 2420 3045 
Q 2306 3072 2169 3072 
Q 1681 3072 1420 2755 
Q 1159 2438 1159 1844 
L 1159 0 
L 581 0 
L 581 3500 
L 1159 3500 
L 1159 2956 
Q 1341 3275 1631 3429 
Q 1922 3584 2338 3584 
Q 2397 3584 2469 3576 
Q 2541 3569 2628 3553 
L 2631 2963 
z
" transform="scale(0.015625)"/>
       <path id="DejaVuSans-67" d="M 2906 1791 
Q 2906 2416 2648 2759 
Q 2391 3103 1925 3103 
Q 1463 3103 1205 2759 
Q 947 2416 947 1791 
Q 947 1169 1205 825 
Q 1463 481 1925 481 
Q 2391 481 2648 825 
Q 2906 1169 2906 1791 
z
M 3481 434 
Q 3481 -459 3084 -895 
Q 2688 -1331 1869 -1331 
Q 1566 -1331 1297 -1286 
Q 1028 -1241 775 -1147 
L 775 -588 
Q 1028 -725 1275 -790 
Q 1522 -856 1778 -856 
Q 2344 -856 2625 -561 
Q 2906 -266 2906 331 
L 2906 616 
Q 2728 306 2450 153 
Q 2172 0 1784 0 
Q 1141 0 747 490 
Q 353 981 353 1791 
Q 353 2603 747 3093 
Q 1141 3584 1784 3584 
Q 2172 3584 2450 3431 
Q 2728 3278 2906 2969 
L 2906 3500 
L 3481 3500 
L 3481 434 
z
" transform="scale(0.015625)"/>
       <path id="DejaVuSans-79" d="M 2059 -325 
Q 1816 -950 1584 -1140 
Q 1353 -1331 966 -1331 
L 506 -1331 
L 506 -850 
L 844 -850 
Q 1081 -850 1212 -737 
Q 1344 -625 1503 -206 
L 1606 56 
L 191 3500 
L 800 3500 
L 1894 763 
L 2988 3500 
L 3597 3500 
L 2059 -325 
z
" transform="scale(0.015625)"/>
       <path id="DejaVuSans-20" transform="scale(0.015625)"/>
       <path id="DejaVuSans-53" d="M 3425 4513 
L 3425 3897 
Q 3066 4069 2747 4153 
Q 2428 4238 2131 4238 
Q 1616 4238 1336 4038 
Q 1056 3838 1056 3469 
Q 1056 3159 1242 3001 
Q 1428 2844 1947 2747 
L 2328 2669 
Q 3034 2534 3370 2195 
Q 3706 1856 3706 1288 
Q 3706 609 3251 259 
Q 2797 -91 1919 -91 
Q 1588 -91 1214 -16 
Q 841 59 441 206 
L 441 856 
Q 825 641 1194 531 
Q 1563 422 1919 422 
Q 2459 422 2753 634 
Q 3047 847 3047 1241 
Q 3047 1584 2836 1778 
Q 2625 1972 2144 2069 
L 1759 2144 
Q 1053 2284 737 2584 
Q 422 2884 422 3419 
Q 422 4038 858 4394 
Q 1294 4750 2059 4750 
Q 2388 4750 2728 4690 
Q 3069 4631 3425 4513 
z
" transform="scale(0.015625)"/>
       <path id="DejaVuSans-63" d="M 3122 3366 
L 3122 2828 
Q 2878 2963 2633 3030 
Q 2388 3097 2138 3097 
Q 1578 3097 1268 2742 
Q 959 2388 959 1747 
Q 959 1106 1268 751 
Q 1578 397 2138 397 
Q 2388 397 2633 464 
Q 2878 531 3122 666 
L 3122 134 
Q 2881 22 2623 -34 
Q 2366 -91 2075 -91 
Q 1284 -91 818 406 
Q 353 903 353 1747 
Q 353 2603 823 3093 
Q 1294 3584 2113 3584 
Q 2378 3584 2631 3529 
Q 2884 3475 3122 3366 
z
" transform="scale(0.015625)"/>
       <path id="DejaVuSans-6f" d="M 1959 3097 
Q 1497 3097 1228 2736 
Q 959 2375 959 1747 
Q 959 1119 1226 758 
Q 1494 397 1959 397 
Q 2419 397 2687 759 
Q 2956 1122 2956 1747 
Q 2956 2369 2687 2733 
Q 2419 3097 1959 3097 
z
M 1959 3584 
Q 2709 3584 3137 3096 
Q 3566 2609 3566 1747 
Q 3566 888 3137 398 
Q 2709 -91 1959 -91 
Q 1206 -91 779 398 
Q 353 888 353 1747 
Q 353 2609 779 3096 
Q 1206 3584 1959 3584 
z
" transform="scale(0.015625)"/>
       <path id="DejaVuSans-28" d="M 1984 4856 
Q 1566 4138 1362 3434 
Q 1159 2731 1159 2009 
Q 1159 1288 1364 580 
Q 1569 -128 1984 -844 
L 1484 -844 
Q 1016 -109 783 600 
Q 550 1309 550 2009 
Q 550 2706 781 3412 
Q 1013 4119 1484 4856 
L 1984 4856 
z
" transform="scale(0.015625)"/>
       <path id="DejaVuSans-6b" d="M 581 4863 
L 1159 4863 
L 1159 1991 
L 2875 3500 
L 3609 3500 
L 1753 1863 
L 3688 0 
L 2938 0 
L 1159 1709 
L 1159 0 
L 581 0 
L 581 4863 
z
" transform="scale(0.015625)"/>
       <path id="DejaVuSans-61" d="M 2194 1759 
Q 1497 1759 1228 1600 
Q 959 1441 959 1056 
Q 959 750 1161 570 
Q 1363 391 1709 391 
Q 2188 391 2477 730 
Q 2766 1069 2766 1631 
L 2766 1759 
L 2194 1759 
z
M 3341 1997 
L 3341 0 
L 2766 0 
L 2766 531 
Q 2569 213 2275 61 
Q 1981 -91 1556 -91 
Q 1019 -91 701 211 
Q 384 513 384 1019 
Q 384 1609 779 1909 
Q 1175 2209 1959 2209 
L 2766 2209 
L 2766 2266 
Q 2766 2663 2505 2880 
Q 2244 3097 1772 3097 
Q 1472 3097 1187 3025 
Q 903 2953 641 2809 
L 641 3341 
Q 956 3463 1253 3523 
Q 1550 3584 1831 3584 
Q 2591 3584 2966 3190 
Q 3341 2797 3341 1997 
z
" transform="scale(0.015625)"/>
       <path id="DejaVuSans-6c" d="M 603 4863 
L 1178 4863 
L 1178 0 
L 603 0 
L 603 4863 
z
" transform="scale(0.015625)"/>
       <path id="DejaVuSans-2f" d="M 1625 4666 
L 2156 4666 
L 531 -594 
L 0 -594 
L 1625 4666 
z
" transform="scale(0.015625)"/>
       <path id="DejaVuSans-6d" d="M 3328 2828 
Q 3544 3216 3844 3400 
Q 4144 3584 4550 3584 
Q 5097 3584 5394 3201 
Q 5691 2819 5691 2113 
L 5691 0 
L 5113 0 
L 5113 2094 
Q 5113 2597 4934 2840 
Q 4756 3084 4391 3084 
Q 3944 3084 3684 2787 
Q 3425 2491 3425 1978 
L 3425 0 
L 2847 0 
L 2847 2094 
Q 2847 2600 2669 2842 
Q 2491 3084 2119 3084 
Q 1678 3084 1418 2786 
Q 1159 2488 1159 1978 
L 1159 0 
L 581 0 
L 581 3500 
L 1159 3500 
L 1159 2956 
Q 1356 3278 1631 3431 
Q 1906 3584 2284 3584 
Q 2666 3584 2933 3390 
Q 3200 3197 3328 2828 
z
" transform="scale(0.015625)"/>
       <path id="DejaVuSans-29" d="M 513 4856 
L 1013 4856 
Q 1481 4119 1714 3412 
Q 1947 2706 1947 2009 
Q 1947 1309 1714 600 
Q 1481 -109 1013 -844 
L 513 -844 
Q 928 -128 1133 580 
Q 1338 1288 1338 2009 
Q 1338 2731 1133 3434 
Q 928 4138 513 4856 
z
" transform="scale(0.015625)"/>
      </defs>
      <use xlink:href="#DejaVuSans-45"/>
      <use xlink:href="#DejaVuSans-6e" x="63.183594"/>
      <use xlink:href="#DejaVuSans-65" x="126.5625"/>
      <use xlink:href="#DejaVuSans-72" x="188.085938"/>
      <use xlink:href="#DejaVuSans-67" x="227.449219"/>
      <use xlink:href="#DejaVuSans-79" x="290.925781"/>
      <use xlink:href="#DejaVuSans-20" x="350.105469"/>
      <use xlink:href="#DejaVuSans-53" x="381.892578"/>
      <use xlink:href="#DejaVuSans-63" x="445.369141"/>
      <use xlink:href="#DejaVuSans-6f" x="500.349609"/>
      <use xlink:href="#DejaVuSans-72" x="561.53125"/>
      <use xlink:href="#DejaVuSans-65" x="600.394531"/>
      <use xlink:href="#DejaVuSans-20" x="661.917969"/>
      <use xlink:href="#DejaVuSans-28" x="693.705078"/>
      <use xlink:href="#DejaVuSans-6b" x="732.71875"/>
      <use xlink:href="#DejaVuSans-63" x="790.628906"/>
      <use xlink:href="#DejaVuSans-61" x="845.609375"/>
      <use xlink:href="#DejaVuSans-6c" x="906.888672"/>
      <use xlink:href="#DejaVuSans-2f" x="934.671875"/>
      <use xlink:href="#DejaVuSans-6d" x="968.363281"/>
      <use xlink:href="#DejaVuSans-6f" x="1065.775391"/>
      <use xlink:href="#DejaVuSans-6c" x="1126.957031"/>
      <use xlink:href="#DejaVuSans-29" x="1154.740234"/>
     </g>
    </g>
   </g>
   <g id="matplotlib.axis_2">
    <g id="ytick_1">
     <g id="line2d_6">
      <defs>
       <path id="m6f37b4ff9e" d="M 0 0 
L -3.5 0 
" style="stroke: #000000; stroke-width: 0.8"/>
      </defs>
      <g>
       <use xlink:href="#m6f37b4ff9e" x="47.72" y="270.433594" style="stroke: #000000; stroke-width: 0.8"/>
      </g>
     </g>
     <g id="text_7">
      <!-- 0.2 -->
      <g transform="translate(24.816875 274.232812) scale(0.1 -0.1)">
       <defs>
        <path id="DejaVuSans-2e" d="M 684 794 
L 1344 794 
L 1344 0 
L 684 0 
L 684 794 
z
" transform="scale(0.015625)"/>
       </defs>
       <use xlink:href="#DejaVuSans-30"/>
       <use xlink:href="#DejaVuSans-2e" x="63.623047"/>
       <use xlink:href="#DejaVuSans-32" x="95.410156"/>
      </g>
     </g>
    </g>
    <g id="ytick_2">
     <g id="line2d_7">
      <g>
       <use xlink:href="#m6f37b4ff9e" x="47.72" y="235.825507" style="stroke: #000000; stroke-width: 0.8"/>
      </g>
     </g>
     <g id="text_8">
      <!-- 0.4 -->
      <g transform="translate(24.816875 239.624726) scale(0.1 -0.1)">
       <use xlink:href="#DejaVuSans-30"/>
       <use xlink:href="#DejaVuSans-2e" x="63.623047"/>
       <use xlink:href="#DejaVuSans-34" x="95.410156"/>
      </g>
     </g>
    </g>
    <g id="ytick_3">
     <g id="line2d_8">
      <g>
       <use xlink:href="#m6f37b4ff9e" x="47.72" y="201.217421" style="stroke: #000000; stroke-width: 0.8"/>
      </g>
     </g>
     <g id="text_9">
      <!-- 0.6 -->
      <g transform="translate(24.816875 205.016639) scale(0.1 -0.1)">
       <use xlink:href="#DejaVuSans-30"/>
       <use xlink:href="#DejaVuSans-2e" x="63.623047"/>
       <use xlink:href="#DejaVuSans-36" x="95.410156"/>
      </g>
     </g>
    </g>
    <g id="ytick_4">
     <g id="line2d_9">
      <g>
       <use xlink:href="#m6f37b4ff9e" x="47.72" y="166.609334" style="stroke: #000000; stroke-width: 0.8"/>
      </g>
     </g>
     <g id="text_10">
      <!-- 0.8 -->
      <g transform="translate(24.816875 170.408553) scale(0.1 -0.1)">
       <defs>
        <path id="DejaVuSans-38" d="M 2034 2216 
Q 1584 2216 1326 1975 
Q 1069 1734 1069 1313 
Q 1069 891 1326 650 
Q 1584 409 2034 409 
Q 2484 409 2743 651 
Q 3003 894 3003 1313 
Q 3003 1734 2745 1975 
Q 2488 2216 2034 2216 
z
M 1403 2484 
Q 997 2584 770 2862 
Q 544 3141 544 3541 
Q 544 4100 942 4425 
Q 1341 4750 2034 4750 
Q 2731 4750 3128 4425 
Q 3525 4100 3525 3541 
Q 3525 3141 3298 2862 
Q 3072 2584 2669 2484 
Q 3125 2378 3379 2068 
Q 3634 1759 3634 1313 
Q 3634 634 3220 271 
Q 2806 -91 2034 -91 
Q 1263 -91 848 271 
Q 434 634 434 1313 
Q 434 1759 690 2068 
Q 947 2378 1403 2484 
z
M 1172 3481 
Q 1172 3119 1398 2916 
Q 1625 2713 2034 2713 
Q 2441 2713 2670 2916 
Q 2900 3119 2900 3481 
Q 2900 3844 2670 4047 
Q 2441 4250 2034 4250 
Q 1625 4250 1398 4047 
Q 1172 3844 1172 3481 
z
" transform="scale(0.015625)"/>
       </defs>
       <use xlink:href="#DejaVuSans-30"/>
       <use xlink:href="#DejaVuSans-2e" x="63.623047"/>
       <use xlink:href="#DejaVuSans-38" x="95.410156"/>
      </g>
     </g>
    </g>
    <g id="ytick_5">
     <g id="line2d_10">
      <g>
       <use xlink:href="#m6f37b4ff9e" x="47.72" y="132.001247" style="stroke: #000000; stroke-width: 0.8"/>
      </g>
     </g>
     <g id="text_11">
      <!-- 1.0 -->
      <g transform="translate(24.816875 135.800466) scale(0.1 -0.1)">
       <defs>
        <path id="DejaVuSans-31" d="M 794 531 
L 1825 531 
L 1825 4091 
L 703 3866 
L 703 4441 
L 1819 4666 
L 2450 4666 
L 2450 531 
L 3481 531 
L 3481 0 
L 794 0 
L 794 531 
z
" transform="scale(0.015625)"/>
       </defs>
       <use xlink:href="#DejaVuSans-31"/>
       <use xlink:href="#DejaVuSans-2e" x="63.623047"/>
       <use xlink:href="#DejaVuSans-30" x="95.410156"/>
      </g>
     </g>
    </g>
    <g id="ytick_6">
     <g id="line2d_11">
      <g>
       <use xlink:href="#m6f37b4ff9e" x="47.72" y="97.393161" style="stroke: #000000; stroke-width: 0.8"/>
      </g>
     </g>
     <g id="text_12">
      <!-- 1.2 -->
      <g transform="translate(24.816875 101.19238) scale(0.1 -0.1)">
       <use xlink:href="#DejaVuSans-31"/>
       <use xlink:href="#DejaVuSans-2e" x="63.623047"/>
       <use xlink:href="#DejaVuSans-32" x="95.410156"/>
      </g>
     </g>
    </g>
    <g id="text_13">
     <!-- Percent GpA -->
     <g transform="translate(18.737188 214.696825) rotate(-90) scale(0.1 -0.1)">
      <defs>
       <path id="DejaVuSans-50" d="M 1259 4147 
L 1259 2394 
L 2053 2394 
Q 2494 2394 2734 2622 
Q 2975 2850 2975 3272 
Q 2975 3691 2734 3919 
Q 2494 4147 2053 4147 
L 1259 4147 
z
M 628 4666 
L 2053 4666 
Q 2838 4666 3239 4311 
Q 3641 3956 3641 3272 
Q 3641 2581 3239 2228 
Q 2838 1875 2053 1875 
L 1259 1875 
L 1259 0 
L 628 0 
L 628 4666 
z
" transform="scale(0.015625)"/>
       <path id="DejaVuSans-74" d="M 1172 4494 
L 1172 3500 
L 2356 3500 
L 2356 3053 
L 1172 3053 
L 1172 1153 
Q 1172 725 1289 603 
Q 1406 481 1766 481 
L 2356 481 
L 2356 0 
L 1766 0 
Q 1100 0 847 248 
Q 594 497 594 1153 
L 594 3053 
L 172 3053 
L 172 3500 
L 594 3500 
L 594 4494 
L 1172 4494 
z
" transform="scale(0.015625)"/>
       <path id="DejaVuSans-47" d="M 3809 666 
L 3809 1919 
L 2778 1919 
L 2778 2438 
L 4434 2438 
L 4434 434 
Q 4069 175 3628 42 
Q 3188 -91 2688 -91 
Q 1594 -91 976 548 
Q 359 1188 359 2328 
Q 359 3472 976 4111 
Q 1594 4750 2688 4750 
Q 3144 4750 3555 4637 
Q 3966 4525 4313 4306 
L 4313 3634 
Q 3963 3931 3569 4081 
Q 3175 4231 2741 4231 
Q 1884 4231 1454 3753 
Q 1025 3275 1025 2328 
Q 1025 1384 1454 906 
Q 1884 428 2741 428 
Q 3075 428 3337 486 
Q 3600 544 3809 666 
z
" transform="scale(0.015625)"/>
       <path id="DejaVuSans-70" d="M 1159 525 
L 1159 -1331 
L 581 -1331 
L 581 3500 
L 1159 3500 
L 1159 2969 
Q 1341 3281 1617 3432 
Q 1894 3584 2278 3584 
Q 2916 3584 3314 3078 
Q 3713 2572 3713 1747 
Q 3713 922 3314 415 
Q 2916 -91 2278 -91 
Q 1894 -91 1617 61 
Q 1341 213 1159 525 
z
M 3116 1747 
Q 3116 2381 2855 2742 
Q 2594 3103 2138 3103 
Q 1681 3103 1420 2742 
Q 1159 2381 1159 1747 
Q 1159 1113 1420 752 
Q 1681 391 2138 391 
Q 2594 391 2855 752 
Q 3116 1113 3116 1747 
z
" transform="scale(0.015625)"/>
       <path id="DejaVuSans-41" d="M 2188 4044 
L 1331 1722 
L 3047 1722 
L 2188 4044 
z
M 1831 4666 
L 2547 4666 
L 4325 0 
L 3669 0 
L 3244 1197 
L 1141 1197 
L 716 0 
L 50 0 
L 1831 4666 
z
" transform="scale(0.015625)"/>
      </defs>
      <use xlink:href="#DejaVuSans-50"/>
      <use xlink:href="#DejaVuSans-65" x="56.677734"/>
      <use xlink:href="#DejaVuSans-72" x="118.201172"/>
      <use xlink:href="#DejaVuSans-63" x="157.064453"/>
      <use xlink:href="#DejaVuSans-65" x="212.044922"/>
      <use xlink:href="#DejaVuSans-6e" x="273.568359"/>
      <use xlink:href="#DejaVuSans-74" x="336.947266"/>
      <use xlink:href="#DejaVuSans-20" x="376.15625"/>
      <use xlink:href="#DejaVuSans-47" x="407.943359"/>
      <use xlink:href="#DejaVuSans-70" x="485.433594"/>
      <use xlink:href="#DejaVuSans-41" x="548.910156"/>
     </g>
    </g>
   </g>
   <g id="line2d_12">
    <path d="M 261.508062 213.160143 
L 311.405823 236.492218 
L 96.850759 136.166778 
L 290.805158 226.859395 
L 276.886234 220.350939 
L 266.186328 215.347689 
L 93.915069 134.794056 
L 94.599839 135.114253 
L 148.624909 160.376248 
L 99.875409 137.581097 
L 151.19504 161.578035 
L 133.350649 153.23404 
L 341.947616 250.773487 
L 431.393092 292.59798 
L 330.711705 245.519602 
L 345.427534 252.400689 
L 156.279981 163.955741 
L 328.142322 244.318165 
L 357.353448 257.977218 
L 105.945642 140.419523 
L 66.005455 121.743586 
L 176.222789 173.280951 
L 102.96136 139.02408 
L 236.09457 201.276854 
L 289.767537 226.374206 
L 304.539433 233.28151 
L 375.280818 266.360014 
L 430.990154 292.409567 
L 179.014946 174.586557 
L 357.37737 257.988404 
L 301.148476 231.695906 
L 252.257686 208.834688 
L 308.870081 235.30651 
L 317.343737 239.268772 
L 300.340357 231.318032 
L 248.334461 207.000198 
L 139.702714 156.20425 
L 135.791451 154.375353 
L 363.710746 260.949875 
L 301.425075 231.825243 
L 320.260738 240.632755 
L 365.465282 261.770292 
L 218.05955 192.843721 
L 199.579728 184.2026 
L 144.973051 158.668648 
L 81.537625 129.006393 
L 192.289468 180.793692 
L 91.22458 133.53599 
L 90.266201 133.087854 
L 341.247895 250.446299 
L 356.52664 257.590605 
L 371.56168 264.620953 
L 268.078416 216.232425 
L 317.597162 239.387273 
L 289.875187 226.424543 
L 327.303553 243.925958 
L 243.502945 204.740992 
L 296.453016 229.50032 
L 283.322774 223.36065 
L 176.638435 173.475306 
L 204.9622 186.719432 
L 186.279789 177.98358 
L 324.291612 242.517582 
L 283.281658 223.341424 
L 264.215745 214.426249 
L 431.714545 292.748291 
L 321.102497 241.026359 
L 318.534609 239.825621 
L 311.263786 236.425801 
L 216.549467 192.13761 
L 154.493299 163.120293 
L 131.830101 152.523035 
L 107.756993 141.266507 
L 307.500541 234.666117 
L 340.371 250.036266 
L 315.316339 238.320765 
L 297.569132 230.022213 
L 271.265289 217.722599 
L 365.600591 261.833563 
L 334.866675 247.462456 
L 297.924973 230.188604 
L 125.382347 149.508081 
L 325.403989 243.037727 
L 361.956957 260.129808 
L 287.154048 225.152145 
L 376.021656 266.706428 
L 343.588522 251.540771 
L 353.839889 256.334286 
L 273.155134 218.606286 
L 286.494695 224.843833 
L 302.198058 232.186688 
L 293.58386 228.158709 
L 296.686257 229.609383 
L 198.511457 183.703079 
L 174.506378 172.478361 
L 288.557228 225.808269 
L 316.360688 238.809101 
L 296.507589 229.525838 
L 240.271966 203.230195 
L 231.869329 199.301141 
L 382.873095 269.910144 
L 269.021097 216.67322 
L 302.137505 232.158374 
L 160.513445 165.935299 
L 204.599631 186.549895 
L 195.740979 182.40761 
L 186.00917 177.857039 
L 210.335702 189.232068 
L 421.049027 287.76112 
L 300.779178 231.523223 
L 349.456165 254.284467 
L 252.088736 208.755688 
L 365.071315 261.586074 
L 341.539445 250.582628 
L 337.116847 248.514631 
L 328.992304 244.715614 
L 315.074128 238.207508 
L 326.342184 243.476424 
L 213.091229 190.520546 
L 180.421865 175.244429 
L 237.195734 201.791756 
L 334.33366 247.21322 
" clip-path="url(#p5a01219b25)" style="fill: none; stroke: #ff0000; stroke-width: 1.5; stroke-linecap: square"/>
   </g>
   <g id="patch_3">
    <path d="M 47.72 303.64 
L 47.72 64.0224 
" style="fill: none; stroke: #000000; stroke-width: 0.8; stroke-linejoin: miter; stroke-linecap: square"/>
   </g>
   <g id="patch_4">
    <path d="M 450 303.64 
L 450 64.0224 
" style="fill: none; stroke: #000000; stroke-width: 0.8; stroke-linejoin: miter; stroke-linecap: square"/>
   </g>
   <g id="patch_5">
    <path d="M 47.72 303.64 
L 450 303.64 
" style="fill: none; stroke: #000000; stroke-width: 0.8; stroke-linejoin: miter; stroke-linecap: square"/>
   </g>
   <g id="patch_6">
    <path d="M 47.72 64.0224 
L 450 64.0224 
" style="fill: none; stroke: #000000; stroke-width: 0.8; stroke-linejoin: miter; stroke-linecap: square"/>
   </g>
   <g id="text_14">
    <!-- Spearman r = -0.63 -->
    <g transform="translate(51.7428 71.620837) scale(0.1 -0.1)">
     <defs>
      <path id="DejaVuSans-3d" d="M 678 2906 
L 4684 2906 
L 4684 2381 
L 678 2381 
L 678 2906 
z
M 678 1631 
L 4684 1631 
L 4684 1100 
L 678 1100 
L 678 1631 
z
" transform="scale(0.015625)"/>
      <path id="DejaVuSans-2d" d="M 313 2009 
L 1997 2009 
L 1997 1497 
L 313 1497 
L 313 2009 
z
" transform="scale(0.015625)"/>
     </defs>
     <use xlink:href="#DejaVuSans-53"/>
     <use xlink:href="#DejaVuSans-70" x="63.476562"/>
     <use xlink:href="#DejaVuSans-65" x="126.953125"/>
     <use xlink:href="#DejaVuSans-61" x="188.476562"/>
     <use xlink:href="#DejaVuSans-72" x="249.755859"/>
     <use xlink:href="#DejaVuSans-6d" x="289.119141"/>
     <use xlink:href="#DejaVuSans-61" x="386.53125"/>
     <use xlink:href="#DejaVuSans-6e" x="447.810547"/>
     <use xlink:href="#DejaVuSans-20" x="511.189453"/>
     <use xlink:href="#DejaVuSans-72" x="542.976562"/>
     <use xlink:href="#DejaVuSans-20" x="584.089844"/>
     <use xlink:href="#DejaVuSans-3d" x="615.876953"/>
     <use xlink:href="#DejaVuSans-20" x="699.666016"/>
     <use xlink:href="#DejaVuSans-2d" x="731.453125"/>
     <use xlink:href="#DejaVuSans-30" x="767.537109"/>
     <use xlink:href="#DejaVuSans-2e" x="831.160156"/>
     <use xlink:href="#DejaVuSans-36" x="862.947266"/>
     <use xlink:href="#DejaVuSans-33" x="926.570312"/>
    </g>
   </g>
   <g id="text_15">
    <!-- Spearman p = 4.8038441873765015e-15 -->
    <g transform="translate(51.7428 95.582597) scale(0.1 -0.1)">
     <defs>
      <path id="DejaVuSans-37" d="M 525 4666 
L 3525 4666 
L 3525 4397 
L 1831 0 
L 1172 0 
L 2766 4134 
L 525 4134 
L 525 4666 
z
" transform="scale(0.015625)"/>
     </defs>
     <use xlink:href="#DejaVuSans-53"/>
     <use xlink:href="#DejaVuSans-70" x="63.476562"/>
     <use xlink:href="#DejaVuSans-65" x="126.953125"/>
     <use xlink:href="#DejaVuSans-61" x="188.476562"/>
     <use xlink:href="#DejaVuSans-72" x="249.755859"/>
     <use xlink:href="#DejaVuSans-6d" x="289.119141"/>
     <use xlink:href="#DejaVuSans-61" x="386.53125"/>
     <use xlink:href="#DejaVuSans-6e" x="447.810547"/>
     <use xlink:href="#DejaVuSans-20" x="511.189453"/>
     <use xlink:href="#DejaVuSans-70" x="542.976562"/>
     <use xlink:href="#DejaVuSans-20" x="606.453125"/>
     <use xlink:href="#DejaVuSans-3d" x="638.240234"/>
     <use xlink:href="#DejaVuSans-20" x="722.029297"/>
     <use xlink:href="#DejaVuSans-34" x="753.816406"/>
     <use xlink:href="#DejaVuSans-2e" x="817.439453"/>
     <use xlink:href="#DejaVuSans-38" x="849.226562"/>
     <use xlink:href="#DejaVuSans-30" x="912.849609"/>
     <use xlink:href="#DejaVuSans-33" x="976.472656"/>
     <use xlink:href="#DejaVuSans-38" x="1040.095703"/>
     <use xlink:href="#DejaVuSans-34" x="1103.71875"/>
     <use xlink:href="#DejaVuSans-34" x="1167.341797"/>
     <use xlink:href="#DejaVuSans-31" x="1230.964844"/>
     <use xlink:href="#DejaVuSans-38" x="1294.587891"/>
     <use xlink:href="#DejaVuSans-37" x="1358.210938"/>
     <use xlink:href="#DejaVuSans-33" x="1421.833984"/>
     <use xlink:href="#DejaVuSans-37" x="1485.457031"/>
     <use xlink:href="#DejaVuSans-36" x="1549.080078"/>
     <use xlink:href="#DejaVuSans-35" x="1612.703125"/>
     <use xlink:href="#DejaVuSans-30" x="1676.326172"/>
     <use xlink:href="#DejaVuSans-31" x="1739.949219"/>
     <use xlink:href="#DejaVuSans-35" x="1803.572266"/>
     <use xlink:href="#DejaVuSans-65" x="1867.195312"/>
     <use xlink:href="#DejaVuSans-2d" x="1928.71875"/>
     <use xlink:href="#DejaVuSans-31" x="1964.802734"/>
     <use xlink:href="#DejaVuSans-35" x="2028.425781"/>
    </g>
   </g>
   <g id="text_16">
    <!-- r^2 = 0.508 -->
    <g transform="translate(51.7428 23.697317) scale(0.1 -0.1)">
     <defs>
      <path id="DejaVuSans-5e" d="M 2988 4666 
L 4684 2925 
L 4056 2925 
L 2681 4159 
L 1306 2925 
L 678 2925 
L 2375 4666 
L 2988 4666 
z
" transform="scale(0.015625)"/>
     </defs>
     <use xlink:href="#DejaVuSans-72"/>
     <use xlink:href="#DejaVuSans-5e" x="41.113281"/>
     <use xlink:href="#DejaVuSans-32" x="124.902344"/>
     <use xlink:href="#DejaVuSans-20" x="188.525391"/>
     <use xlink:href="#DejaVuSans-3d" x="220.3125"/>
     <use xlink:href="#DejaVuSans-20" x="304.101562"/>
     <use xlink:href="#DejaVuSans-30" x="335.888672"/>
     <use xlink:href="#DejaVuSans-2e" x="399.511719"/>
     <use xlink:href="#DejaVuSans-35" x="431.298828"/>
     <use xlink:href="#DejaVuSans-30" x="494.921875"/>
     <use xlink:href="#DejaVuSans-38" x="558.544922"/>
    </g>
   </g>
   <g id="text_17">
    <!-- y = -0.020x + -0.192 -->
    <g transform="translate(51.7428 35.678198) scale(0.1 -0.1)">
     <defs>
      <path id="DejaVuSans-78" d="M 3513 3500 
L 2247 1797 
L 3578 0 
L 2900 0 
L 1881 1375 
L 863 0 
L 184 0 
L 1544 1831 
L 300 3500 
L 978 3500 
L 1906 2253 
L 2834 3500 
L 3513 3500 
z
" transform="scale(0.015625)"/>
      <path id="DejaVuSans-2b" d="M 2944 4013 
L 2944 2272 
L 4684 2272 
L 4684 1741 
L 2944 1741 
L 2944 0 
L 2419 0 
L 2419 1741 
L 678 1741 
L 678 2272 
L 2419 2272 
L 2419 4013 
L 2944 4013 
z
" transform="scale(0.015625)"/>
      <path id="DejaVuSans-39" d="M 703 97 
L 703 672 
Q 941 559 1184 500 
Q 1428 441 1663 441 
Q 2288 441 2617 861 
Q 2947 1281 2994 2138 
Q 2813 1869 2534 1725 
Q 2256 1581 1919 1581 
Q 1219 1581 811 2004 
Q 403 2428 403 3163 
Q 403 3881 828 4315 
Q 1253 4750 1959 4750 
Q 2769 4750 3195 4129 
Q 3622 3509 3622 2328 
Q 3622 1225 3098 567 
Q 2575 -91 1691 -91 
Q 1453 -91 1209 -44 
Q 966 3 703 97 
z
M 1959 2075 
Q 2384 2075 2632 2365 
Q 2881 2656 2881 3163 
Q 2881 3666 2632 3958 
Q 2384 4250 1959 4250 
Q 1534 4250 1286 3958 
Q 1038 3666 1038 3163 
Q 1038 2656 1286 2365 
Q 1534 2075 1959 2075 
z
" transform="scale(0.015625)"/>
     </defs>
     <use xlink:href="#DejaVuSans-79"/>
     <use xlink:href="#DejaVuSans-20" x="59.179688"/>
     <use xlink:href="#DejaVuSans-3d" x="90.966797"/>
     <use xlink:href="#DejaVuSans-20" x="174.755859"/>
     <use xlink:href="#DejaVuSans-2d" x="206.542969"/>
     <use xlink:href="#DejaVuSans-30" x="242.626953"/>
     <use xlink:href="#DejaVuSans-2e" x="306.25"/>
     <use xlink:href="#DejaVuSans-30" x="338.037109"/>
     <use xlink:href="#DejaVuSans-32" x="401.660156"/>
     <use xlink:href="#DejaVuSans-30" x="465.283203"/>
     <use xlink:href="#DejaVuSans-78" x="528.90625"/>
     <use xlink:href="#DejaVuSans-20" x="588.085938"/>
     <use xlink:href="#DejaVuSans-2b" x="619.873047"/>
     <use xlink:href="#DejaVuSans-20" x="703.662109"/>
     <use xlink:href="#DejaVuSans-2d" x="735.449219"/>
     <use xlink:href="#DejaVuSans-30" x="771.533203"/>
     <use xlink:href="#DejaVuSans-2e" x="835.15625"/>
     <use xlink:href="#DejaVuSans-31" x="866.943359"/>
     <use xlink:href="#DejaVuSans-39" x="930.566406"/>
     <use xlink:href="#DejaVuSans-32" x="994.189453"/>
    </g>
   </g>
  </g>
 </g>
 <defs>
  <clipPath id="p5a01219b25">
   <rect x="47.72" y="64.0224" width="402.28" height="239.6176"/>
  </clipPath>
 </defs>
</svg>
