<?xml version="1.0" encoding="utf-8" standalone="no"?>
<!DOCTYPE svg PUBLIC "-//W3C//DTD SVG 1.1//EN"
  "http://www.w3.org/Graphics/SVG/1.1/DTD/svg11.dtd">
<svg xmlns:xlink="http://www.w3.org/1999/xlink" width="460.8pt" height="345.6pt" viewBox="0 0 460.8 345.6" xmlns="http://www.w3.org/2000/svg" version="1.1">
 <metadata>
  <rdf:RDF xmlns:dc="http://purl.org/dc/elements/1.1/" xmlns:cc="http://creativecommons.org/ns#" xmlns:rdf="http://www.w3.org/1999/02/22-rdf-syntax-ns#">
   <cc:Work>
    <dc:type rdf:resource="http://purl.org/dc/dcmitype/StillImage"/>
    <dc:date>2024-02-20T13:11:15.054356</dc:date>
    <dc:format>image/svg+xml</dc:format>
    <dc:creator>
     <cc:Agent>
      <dc:title>Matplotlib v3.7.1, https://matplotlib.org/</dc:title>
     </cc:Agent>
    </dc:creator>
   </cc:Work>
  </rdf:RDF>
 </metadata>
 <defs>
  <style type="text/css">*{stroke-linejoin: round; stroke-linecap: butt}</style>
 </defs>
 <g id="figure_1">
  <g id="patch_1">
   <path d="M 0 345.6 
L 460.8 345.6 
L 460.8 0 
L 0 0 
z
" style="fill: #ffffff"/>
  </g>
  <g id="axes_1">
   <g id="patch_2">
    <path d="M 65.45 303.64 
L 450 303.64 
L 450 16.560685 
L 65.45 16.560685 
z
" style="fill: #ffffff"/>
   </g>
   <g id="matplotlib.axis_1">
    <g id="xtick_1">
     <g id="text_1">
      <!-- L -->
      <g style="fill: #262626" transform="translate(254.939063 318.238437) scale(0.1 -0.1)">
       <defs>
        <path id="DejaVuSans-4c" d="M 628 4666 
L 1259 4666 
L 1259 531 
L 3531 531 
L 3531 0 
L 628 0 
L 628 4666 
z
" transform="scale(0.015625)"/>
       </defs>
       <use xlink:href="#DejaVuSans-4c"/>
      </g>
     </g>
    </g>
    <g id="text_2">
     <!-- Sample -->
     <g style="fill: #262626" transform="translate(238.976563 331.916562) scale(0.1 -0.1)">
      <defs>
       <path id="DejaVuSans-53" d="M 3425 4513 
L 3425 3897 
Q 3066 4069 2747 4153 
Q 2428 4238 2131 4238 
Q 1616 4238 1336 4038 
Q 1056 3838 1056 3469 
Q 1056 3159 1242 3001 
Q 1428 2844 1947 2747 
L 2328 2669 
Q 3034 2534 3370 2195 
Q 3706 1856 3706 1288 
Q 3706 609 3251 259 
Q 2797 -91 1919 -91 
Q 1588 -91 1214 -16 
Q 841 59 441 206 
L 441 856 
Q 825 641 1194 531 
Q 1563 422 1919 422 
Q 2459 422 2753 634 
Q 3047 847 3047 1241 
Q 3047 1584 2836 1778 
Q 2625 1972 2144 2069 
L 1759 2144 
Q 1053 2284 737 2584 
Q 422 2884 422 3419 
Q 422 4038 858 4394 
Q 1294 4750 2059 4750 
Q 2388 4750 2728 4690 
Q 3069 4631 3425 4513 
z
" transform="scale(0.015625)"/>
       <path id="DejaVuSans-61" d="M 2194 1759 
Q 1497 1759 1228 1600 
Q 959 1441 959 1056 
Q 959 750 1161 570 
Q 1363 391 1709 391 
Q 2188 391 2477 730 
Q 2766 1069 2766 1631 
L 2766 1759 
L 2194 1759 
z
M 3341 1997 
L 3341 0 
L 2766 0 
L 2766 531 
Q 2569 213 2275 61 
Q 1981 -91 1556 -91 
Q 1019 -91 701 211 
Q 384 513 384 1019 
Q 384 1609 779 1909 
Q 1175 2209 1959 2209 
L 2766 2209 
L 2766 2266 
Q 2766 2663 2505 2880 
Q 2244 3097 1772 3097 
Q 1472 3097 1187 3025 
Q 903 2953 641 2809 
L 641 3341 
Q 956 3463 1253 3523 
Q 1550 3584 1831 3584 
Q 2591 3584 2966 3190 
Q 3341 2797 3341 1997 
z
" transform="scale(0.015625)"/>
       <path id="DejaVuSans-6d" d="M 3328 2828 
Q 3544 3216 3844 3400 
Q 4144 3584 4550 3584 
Q 5097 3584 5394 3201 
Q 5691 2819 5691 2113 
L 5691 0 
L 5113 0 
L 5113 2094 
Q 5113 2597 4934 2840 
Q 4756 3084 4391 3084 
Q 3944 3084 3684 2787 
Q 3425 2491 3425 1978 
L 3425 0 
L 2847 0 
L 2847 2094 
Q 2847 2600 2669 2842 
Q 2491 3084 2119 3084 
Q 1678 3084 1418 2786 
Q 1159 2488 1159 1978 
L 1159 0 
L 581 0 
L 581 3500 
L 1159 3500 
L 1159 2956 
Q 1356 3278 1631 3431 
Q 1906 3584 2284 3584 
Q 2666 3584 2933 3390 
Q 3200 3197 3328 2828 
z
" transform="scale(0.015625)"/>
       <path id="DejaVuSans-70" d="M 1159 525 
L 1159 -1331 
L 581 -1331 
L 581 3500 
L 1159 3500 
L 1159 2969 
Q 1341 3281 1617 3432 
Q 1894 3584 2278 3584 
Q 2916 3584 3314 3078 
Q 3713 2572 3713 1747 
Q 3713 922 3314 415 
Q 2916 -91 2278 -91 
Q 1894 -91 1617 61 
Q 1341 213 1159 525 
z
M 3116 1747 
Q 3116 2381 2855 2742 
Q 2594 3103 2138 3103 
Q 1681 3103 1420 2742 
Q 1159 2381 1159 1747 
Q 1159 1113 1420 752 
Q 1681 391 2138 391 
Q 2594 391 2855 752 
Q 3116 1113 3116 1747 
z
" transform="scale(0.015625)"/>
       <path id="DejaVuSans-6c" d="M 603 4863 
L 1178 4863 
L 1178 0 
L 603 0 
L 603 4863 
z
" transform="scale(0.015625)"/>
       <path id="DejaVuSans-65" d="M 3597 1894 
L 3597 1613 
L 953 1613 
Q 991 1019 1311 708 
Q 1631 397 2203 397 
Q 2534 397 2845 478 
Q 3156 559 3463 722 
L 3463 178 
Q 3153 47 2828 -22 
Q 2503 -91 2169 -91 
Q 1331 -91 842 396 
Q 353 884 353 1716 
Q 353 2575 817 3079 
Q 1281 3584 2069 3584 
Q 2775 3584 3186 3129 
Q 3597 2675 3597 1894 
z
M 3022 2063 
Q 3016 2534 2758 2815 
Q 2500 3097 2075 3097 
Q 1594 3097 1305 2825 
Q 1016 2553 972 2059 
L 3022 2063 
z
" transform="scale(0.015625)"/>
      </defs>
      <use xlink:href="#DejaVuSans-53"/>
      <use xlink:href="#DejaVuSans-61" x="63.476562"/>
      <use xlink:href="#DejaVuSans-6d" x="124.755859"/>
      <use xlink:href="#DejaVuSans-70" x="222.167969"/>
      <use xlink:href="#DejaVuSans-6c" x="285.644531"/>
      <use xlink:href="#DejaVuSans-65" x="313.427734"/>
     </g>
    </g>
   </g>
   <g id="matplotlib.axis_2">
    <g id="ytick_1">
     <g id="line2d_1">
      <path d="M 65.45 275.053618 
L 450 275.053618 
" clip-path="url(#p1dab7dc058)" style="fill: none; stroke: #cccccc; stroke-width: 0.8; stroke-linecap: round"/>
     </g>
     <g id="text_3">
      <!-- −7500 -->
      <g style="fill: #262626" transform="translate(24.620313 278.852837) scale(0.1 -0.1)">
       <defs>
        <path id="DejaVuSans-2212" d="M 678 2272 
L 4684 2272 
L 4684 1741 
L 678 1741 
L 678 2272 
z
" transform="scale(0.015625)"/>
        <path id="DejaVuSans-37" d="M 525 4666 
L 3525 4666 
L 3525 4397 
L 1831 0 
L 1172 0 
L 2766 4134 
L 525 4134 
L 525 4666 
z
" transform="scale(0.015625)"/>
        <path id="DejaVuSans-35" d="M 691 4666 
L 3169 4666 
L 3169 4134 
L 1269 4134 
L 1269 2991 
Q 1406 3038 1543 3061 
Q 1681 3084 1819 3084 
Q 2600 3084 3056 2656 
Q 3513 2228 3513 1497 
Q 3513 744 3044 326 
Q 2575 -91 1722 -91 
Q 1428 -91 1123 -41 
Q 819 9 494 109 
L 494 744 
Q 775 591 1075 516 
Q 1375 441 1709 441 
Q 2250 441 2565 725 
Q 2881 1009 2881 1497 
Q 2881 1984 2565 2268 
Q 2250 2553 1709 2553 
Q 1456 2553 1204 2497 
Q 953 2441 691 2322 
L 691 4666 
z
" transform="scale(0.015625)"/>
        <path id="DejaVuSans-30" d="M 2034 4250 
Q 1547 4250 1301 3770 
Q 1056 3291 1056 2328 
Q 1056 1369 1301 889 
Q 1547 409 2034 409 
Q 2525 409 2770 889 
Q 3016 1369 3016 2328 
Q 3016 3291 2770 3770 
Q 2525 4250 2034 4250 
z
M 2034 4750 
Q 2819 4750 3233 4129 
Q 3647 3509 3647 2328 
Q 3647 1150 3233 529 
Q 2819 -91 2034 -91 
Q 1250 -91 836 529 
Q 422 1150 422 2328 
Q 422 3509 836 4129 
Q 1250 4750 2034 4750 
z
" transform="scale(0.015625)"/>
       </defs>
       <use xlink:href="#DejaVuSans-2212"/>
       <use xlink:href="#DejaVuSans-37" x="83.789062"/>
       <use xlink:href="#DejaVuSans-35" x="147.412109"/>
       <use xlink:href="#DejaVuSans-30" x="211.035156"/>
       <use xlink:href="#DejaVuSans-30" x="274.658203"/>
      </g>
     </g>
    </g>
    <g id="ytick_2">
     <g id="line2d_2">
      <path d="M 65.45 240.80739 
L 450 240.80739 
" clip-path="url(#p1dab7dc058)" style="fill: none; stroke: #cccccc; stroke-width: 0.8; stroke-linecap: round"/>
     </g>
     <g id="text_4">
      <!-- −5000 -->
      <g style="fill: #262626" transform="translate(24.620313 244.606608) scale(0.1 -0.1)">
       <use xlink:href="#DejaVuSans-2212"/>
       <use xlink:href="#DejaVuSans-35" x="83.789062"/>
       <use xlink:href="#DejaVuSans-30" x="147.412109"/>
       <use xlink:href="#DejaVuSans-30" x="211.035156"/>
       <use xlink:href="#DejaVuSans-30" x="274.658203"/>
      </g>
     </g>
    </g>
    <g id="ytick_3">
     <g id="line2d_3">
      <path d="M 65.45 206.561161 
L 450 206.561161 
" clip-path="url(#p1dab7dc058)" style="fill: none; stroke: #cccccc; stroke-width: 0.8; stroke-linecap: round"/>
     </g>
     <g id="text_5">
      <!-- −2500 -->
      <g style="fill: #262626" transform="translate(24.620313 210.360379) scale(0.1 -0.1)">
       <defs>
        <path id="DejaVuSans-32" d="M 1228 531 
L 3431 531 
L 3431 0 
L 469 0 
L 469 531 
Q 828 903 1448 1529 
Q 2069 2156 2228 2338 
Q 2531 2678 2651 2914 
Q 2772 3150 2772 3378 
Q 2772 3750 2511 3984 
Q 2250 4219 1831 4219 
Q 1534 4219 1204 4116 
Q 875 4013 500 3803 
L 500 4441 
Q 881 4594 1212 4672 
Q 1544 4750 1819 4750 
Q 2544 4750 2975 4387 
Q 3406 4025 3406 3419 
Q 3406 3131 3298 2873 
Q 3191 2616 2906 2266 
Q 2828 2175 2409 1742 
Q 1991 1309 1228 531 
z
" transform="scale(0.015625)"/>
       </defs>
       <use xlink:href="#DejaVuSans-2212"/>
       <use xlink:href="#DejaVuSans-32" x="83.789062"/>
       <use xlink:href="#DejaVuSans-35" x="147.412109"/>
       <use xlink:href="#DejaVuSans-30" x="211.035156"/>
       <use xlink:href="#DejaVuSans-30" x="274.658203"/>
      </g>
     </g>
    </g>
    <g id="ytick_4">
     <g id="line2d_4">
      <path d="M 65.45 172.314932 
L 450 172.314932 
" clip-path="url(#p1dab7dc058)" style="fill: none; stroke: #cccccc; stroke-width: 0.8; stroke-linecap: round"/>
     </g>
     <g id="text_6">
      <!-- 0 -->
      <g style="fill: #262626" transform="translate(52.0875 176.11415) scale(0.1 -0.1)">
       <use xlink:href="#DejaVuSans-30"/>
      </g>
     </g>
    </g>
    <g id="ytick_5">
     <g id="line2d_5">
      <path d="M 65.45 138.068703 
L 450 138.068703 
" clip-path="url(#p1dab7dc058)" style="fill: none; stroke: #cccccc; stroke-width: 0.8; stroke-linecap: round"/>
     </g>
     <g id="text_7">
      <!-- 2500 -->
      <g style="fill: #262626" transform="translate(33 141.867922) scale(0.1 -0.1)">
       <use xlink:href="#DejaVuSans-32"/>
       <use xlink:href="#DejaVuSans-35" x="63.623047"/>
       <use xlink:href="#DejaVuSans-30" x="127.246094"/>
       <use xlink:href="#DejaVuSans-30" x="190.869141"/>
      </g>
     </g>
    </g>
    <g id="ytick_6">
     <g id="line2d_6">
      <path d="M 65.45 103.822474 
L 450 103.822474 
" clip-path="url(#p1dab7dc058)" style="fill: none; stroke: #cccccc; stroke-width: 0.8; stroke-linecap: round"/>
     </g>
     <g id="text_8">
      <!-- 5000 -->
      <g style="fill: #262626" transform="translate(33 107.621693) scale(0.1 -0.1)">
       <use xlink:href="#DejaVuSans-35"/>
       <use xlink:href="#DejaVuSans-30" x="63.623047"/>
       <use xlink:href="#DejaVuSans-30" x="127.246094"/>
       <use xlink:href="#DejaVuSans-30" x="190.869141"/>
      </g>
     </g>
    </g>
    <g id="ytick_7">
     <g id="line2d_7">
      <path d="M 65.45 69.576245 
L 450 69.576245 
" clip-path="url(#p1dab7dc058)" style="fill: none; stroke: #cccccc; stroke-width: 0.8; stroke-linecap: round"/>
     </g>
     <g id="text_9">
      <!-- 7500 -->
      <g style="fill: #262626" transform="translate(33 73.375464) scale(0.1 -0.1)">
       <use xlink:href="#DejaVuSans-37"/>
       <use xlink:href="#DejaVuSans-35" x="63.623047"/>
       <use xlink:href="#DejaVuSans-30" x="127.246094"/>
       <use xlink:href="#DejaVuSans-30" x="190.869141"/>
      </g>
     </g>
    </g>
    <g id="ytick_8">
     <g id="line2d_8">
      <path d="M 65.45 35.330016 
L 450 35.330016 
" clip-path="url(#p1dab7dc058)" style="fill: none; stroke: #cccccc; stroke-width: 0.8; stroke-linecap: round"/>
     </g>
     <g id="text_10">
      <!-- 10000 -->
      <g style="fill: #262626" transform="translate(26.6375 39.129235) scale(0.1 -0.1)">
       <defs>
        <path id="DejaVuSans-31" d="M 794 531 
L 1825 531 
L 1825 4091 
L 703 3866 
L 703 4441 
L 1819 4666 
L 2450 4666 
L 2450 531 
L 3481 531 
L 3481 0 
L 794 0 
L 794 531 
z
" transform="scale(0.015625)"/>
       </defs>
       <use xlink:href="#DejaVuSans-31"/>
       <use xlink:href="#DejaVuSans-30" x="63.623047"/>
       <use xlink:href="#DejaVuSans-30" x="127.246094"/>
       <use xlink:href="#DejaVuSans-30" x="190.869141"/>
       <use xlink:href="#DejaVuSans-30" x="254.492188"/>
      </g>
     </g>
    </g>
    <g id="text_11">
     <!-- Delta Fluorescence -->
     <g style="fill: #262626" transform="translate(18.540625 207.966749) rotate(-90) scale(0.1 -0.1)">
      <defs>
       <path id="DejaVuSans-44" d="M 1259 4147 
L 1259 519 
L 2022 519 
Q 2988 519 3436 956 
Q 3884 1394 3884 2338 
Q 3884 3275 3436 3711 
Q 2988 4147 2022 4147 
L 1259 4147 
z
M 628 4666 
L 1925 4666 
Q 3281 4666 3915 4102 
Q 4550 3538 4550 2338 
Q 4550 1131 3912 565 
Q 3275 0 1925 0 
L 628 0 
L 628 4666 
z
" transform="scale(0.015625)"/>
       <path id="DejaVuSans-74" d="M 1172 4494 
L 1172 3500 
L 2356 3500 
L 2356 3053 
L 1172 3053 
L 1172 1153 
Q 1172 725 1289 603 
Q 1406 481 1766 481 
L 2356 481 
L 2356 0 
L 1766 0 
Q 1100 0 847 248 
Q 594 497 594 1153 
L 594 3053 
L 172 3053 
L 172 3500 
L 594 3500 
L 594 4494 
L 1172 4494 
z
" transform="scale(0.015625)"/>
       <path id="DejaVuSans-20" transform="scale(0.015625)"/>
       <path id="DejaVuSans-46" d="M 628 4666 
L 3309 4666 
L 3309 4134 
L 1259 4134 
L 1259 2759 
L 3109 2759 
L 3109 2228 
L 1259 2228 
L 1259 0 
L 628 0 
L 628 4666 
z
" transform="scale(0.015625)"/>
       <path id="DejaVuSans-75" d="M 544 1381 
L 544 3500 
L 1119 3500 
L 1119 1403 
Q 1119 906 1312 657 
Q 1506 409 1894 409 
Q 2359 409 2629 706 
Q 2900 1003 2900 1516 
L 2900 3500 
L 3475 3500 
L 3475 0 
L 2900 0 
L 2900 538 
Q 2691 219 2414 64 
Q 2138 -91 1772 -91 
Q 1169 -91 856 284 
Q 544 659 544 1381 
z
M 1991 3584 
L 1991 3584 
z
" transform="scale(0.015625)"/>
       <path id="DejaVuSans-6f" d="M 1959 3097 
Q 1497 3097 1228 2736 
Q 959 2375 959 1747 
Q 959 1119 1226 758 
Q 1494 397 1959 397 
Q 2419 397 2687 759 
Q 2956 1122 2956 1747 
Q 2956 2369 2687 2733 
Q 2419 3097 1959 3097 
z
M 1959 3584 
Q 2709 3584 3137 3096 
Q 3566 2609 3566 1747 
Q 3566 888 3137 398 
Q 2709 -91 1959 -91 
Q 1206 -91 779 398 
Q 353 888 353 1747 
Q 353 2609 779 3096 
Q 1206 3584 1959 3584 
z
" transform="scale(0.015625)"/>
       <path id="DejaVuSans-72" d="M 2631 2963 
Q 2534 3019 2420 3045 
Q 2306 3072 2169 3072 
Q 1681 3072 1420 2755 
Q 1159 2438 1159 1844 
L 1159 0 
L 581 0 
L 581 3500 
L 1159 3500 
L 1159 2956 
Q 1341 3275 1631 3429 
Q 1922 3584 2338 3584 
Q 2397 3584 2469 3576 
Q 2541 3569 2628 3553 
L 2631 2963 
z
" transform="scale(0.015625)"/>
       <path id="DejaVuSans-73" d="M 2834 3397 
L 2834 2853 
Q 2591 2978 2328 3040 
Q 2066 3103 1784 3103 
Q 1356 3103 1142 2972 
Q 928 2841 928 2578 
Q 928 2378 1081 2264 
Q 1234 2150 1697 2047 
L 1894 2003 
Q 2506 1872 2764 1633 
Q 3022 1394 3022 966 
Q 3022 478 2636 193 
Q 2250 -91 1575 -91 
Q 1294 -91 989 -36 
Q 684 19 347 128 
L 347 722 
Q 666 556 975 473 
Q 1284 391 1588 391 
Q 1994 391 2212 530 
Q 2431 669 2431 922 
Q 2431 1156 2273 1281 
Q 2116 1406 1581 1522 
L 1381 1569 
Q 847 1681 609 1914 
Q 372 2147 372 2553 
Q 372 3047 722 3315 
Q 1072 3584 1716 3584 
Q 2034 3584 2315 3537 
Q 2597 3491 2834 3397 
z
" transform="scale(0.015625)"/>
       <path id="DejaVuSans-63" d="M 3122 3366 
L 3122 2828 
Q 2878 2963 2633 3030 
Q 2388 3097 2138 3097 
Q 1578 3097 1268 2742 
Q 959 2388 959 1747 
Q 959 1106 1268 751 
Q 1578 397 2138 397 
Q 2388 397 2633 464 
Q 2878 531 3122 666 
L 3122 134 
Q 2881 22 2623 -34 
Q 2366 -91 2075 -91 
Q 1284 -91 818 406 
Q 353 903 353 1747 
Q 353 2603 823 3093 
Q 1294 3584 2113 3584 
Q 2378 3584 2631 3529 
Q 2884 3475 3122 3366 
z
" transform="scale(0.015625)"/>
       <path id="DejaVuSans-6e" d="M 3513 2113 
L 3513 0 
L 2938 0 
L 2938 2094 
Q 2938 2591 2744 2837 
Q 2550 3084 2163 3084 
Q 1697 3084 1428 2787 
Q 1159 2491 1159 1978 
L 1159 0 
L 581 0 
L 581 3500 
L 1159 3500 
L 1159 2956 
Q 1366 3272 1645 3428 
Q 1925 3584 2291 3584 
Q 2894 3584 3203 3211 
Q 3513 2838 3513 2113 
z
" transform="scale(0.015625)"/>
      </defs>
      <use xlink:href="#DejaVuSans-44"/>
      <use xlink:href="#DejaVuSans-65" x="77.001953"/>
      <use xlink:href="#DejaVuSans-6c" x="138.525391"/>
      <use xlink:href="#DejaVuSans-74" x="166.308594"/>
      <use xlink:href="#DejaVuSans-61" x="205.517578"/>
      <use xlink:href="#DejaVuSans-20" x="266.796875"/>
      <use xlink:href="#DejaVuSans-46" x="298.583984"/>
      <use xlink:href="#DejaVuSans-6c" x="356.103516"/>
      <use xlink:href="#DejaVuSans-75" x="383.886719"/>
      <use xlink:href="#DejaVuSans-6f" x="447.265625"/>
      <use xlink:href="#DejaVuSans-72" x="508.447266"/>
      <use xlink:href="#DejaVuSans-65" x="547.310547"/>
      <use xlink:href="#DejaVuSans-73" x="608.833984"/>
      <use xlink:href="#DejaVuSans-63" x="660.933594"/>
      <use xlink:href="#DejaVuSans-65" x="715.914062"/>
      <use xlink:href="#DejaVuSans-6e" x="777.4375"/>
      <use xlink:href="#DejaVuSans-63" x="840.816406"/>
      <use xlink:href="#DejaVuSans-65" x="895.796875"/>
     </g>
    </g>
   </g>
   <g id="patch_3">
    <path d="M 105.4432 191.062219 
L 256.1868 191.062219 
L 256.1868 139.56837 
L 105.4432 139.56837 
L 105.4432 191.062219 
z
" clip-path="url(#p1dab7dc058)" style="fill: #ecf2ec; stroke: #262626; stroke-width: 1.5; stroke-linejoin: miter"/>
   </g>
   <g id="patch_4">
    <path d="M 259.2632 153.090159 
L 410.0068 153.090159 
L 410.0068 117.262136 
L 259.2632 117.262136 
L 259.2632 153.090159 
z
" clip-path="url(#p1dab7dc058)" style="fill: #107010; stroke: #262626; stroke-width: 1.5; stroke-linejoin: miter"/>
   </g>
   <g id="patch_5">
    <path d="M 257.725 172.314932 
L 257.725 172.314932 
L 257.725 172.314932 
L 257.725 172.314932 
z
" clip-path="url(#p1dab7dc058)" style="fill: #ecf2ec; stroke: #262626; stroke-width: 0.75; stroke-linejoin: miter"/>
   </g>
   <g id="patch_6">
    <path d="M 257.725 172.314932 
L 257.725 172.314932 
L 257.725 172.314932 
L 257.725 172.314932 
z
" clip-path="url(#p1dab7dc058)" style="fill: #107010; stroke: #262626; stroke-width: 0.75; stroke-linejoin: miter"/>
   </g>
   <g id="PathCollection_1"/>
   <g id="PathCollection_2"/>
   <g id="line2d_9">
    <path d="M 180.815 191.062219 
L 180.815 218.808672 
" clip-path="url(#p1dab7dc058)" style="fill: none; stroke: #262626; stroke-width: 1.5; stroke-linecap: round"/>
   </g>
   <g id="line2d_10">
    <path d="M 180.815 139.56837 
L 180.815 66.972983 
" clip-path="url(#p1dab7dc058)" style="fill: none; stroke: #262626; stroke-width: 1.5; stroke-linecap: round"/>
   </g>
   <g id="line2d_11">
    <path d="M 143.1291 218.808672 
L 218.5009 218.808672 
" clip-path="url(#p1dab7dc058)" style="fill: none; stroke: #262626; stroke-width: 1.5; stroke-linecap: round"/>
   </g>
   <g id="line2d_12">
    <path d="M 143.1291 66.972983 
L 218.5009 66.972983 
" clip-path="url(#p1dab7dc058)" style="fill: none; stroke: #262626; stroke-width: 1.5; stroke-linecap: round"/>
   </g>
   <g id="line2d_13">
    <defs>
     <path id="m1508aaddac" d="M -0 1.414214 
L 0.848528 0 
L 0 -1.414214 
L -0.848528 -0 
z
" style="stroke: #262626; stroke-linejoin: miter"/>
    </defs>
    <g clip-path="url(#p1dab7dc058)">
     <use xlink:href="#m1508aaddac" x="180.815" y="277.971155" style="fill: #262626; stroke: #262626; stroke-linejoin: miter"/>
     <use xlink:href="#m1508aaddac" x="180.815" y="303.64" style="fill: #262626; stroke: #262626; stroke-linejoin: miter"/>
     <use xlink:href="#m1508aaddac" x="180.815" y="273.625644" style="fill: #262626; stroke: #262626; stroke-linejoin: miter"/>
     <use xlink:href="#m1508aaddac" x="180.815" y="269.015487" style="fill: #262626; stroke: #262626; stroke-linejoin: miter"/>
     <use xlink:href="#m1508aaddac" x="180.815" y="294.545376" style="fill: #262626; stroke: #262626; stroke-linejoin: miter"/>
     <use xlink:href="#m1508aaddac" x="180.815" y="270.886104" style="fill: #262626; stroke: #262626; stroke-linejoin: miter"/>
     <use xlink:href="#m1508aaddac" x="180.815" y="37.718549" style="fill: #262626; stroke: #262626; stroke-linejoin: miter"/>
     <use xlink:href="#m1508aaddac" x="180.815" y="16.560685" style="fill: #262626; stroke: #262626; stroke-linejoin: miter"/>
    </g>
   </g>
   <g id="line2d_14">
    <path d="M 334.635 153.090159 
L 334.635 170.87049 
" clip-path="url(#p1dab7dc058)" style="fill: none; stroke: #262626; stroke-width: 1.5; stroke-linecap: round"/>
   </g>
   <g id="line2d_15">
    <path d="M 334.635 117.262136 
L 334.635 75.886411 
" clip-path="url(#p1dab7dc058)" style="fill: none; stroke: #262626; stroke-width: 1.5; stroke-linecap: round"/>
   </g>
   <g id="line2d_16">
    <path d="M 296.9491 170.87049 
L 372.3209 170.87049 
" clip-path="url(#p1dab7dc058)" style="fill: none; stroke: #262626; stroke-width: 1.5; stroke-linecap: round"/>
   </g>
   <g id="line2d_17">
    <path d="M 296.9491 75.886411 
L 372.3209 75.886411 
" clip-path="url(#p1dab7dc058)" style="fill: none; stroke: #262626; stroke-width: 1.5; stroke-linecap: round"/>
   </g>
   <g id="line2d_18">
    <g clip-path="url(#p1dab7dc058)">
     <use xlink:href="#m1508aaddac" x="334.635" y="41.365859" style="fill: #262626; stroke: #262626; stroke-linejoin: miter"/>
    </g>
   </g>
   <g id="line2d_19">
    <path d="M 105.4432 171.254454 
L 256.1868 171.254454 
" clip-path="url(#p1dab7dc058)" style="fill: none; stroke: #262626; stroke-width: 1.5; stroke-linecap: round"/>
   </g>
   <g id="line2d_20">
    <path d="M 259.2632 138.687142 
L 410.0068 138.687142 
" clip-path="url(#p1dab7dc058)" style="fill: none; stroke: #262626; stroke-width: 1.5; stroke-linecap: round"/>
   </g>
   <g id="patch_7">
    <path d="M 65.45 303.64 
L 65.45 16.560685 
" style="fill: none; stroke: #cccccc; stroke-width: 0.8; stroke-linejoin: miter; stroke-linecap: square"/>
   </g>
   <g id="patch_8">
    <path d="M 450 303.64 
L 450 16.560685 
" style="fill: none; stroke: #cccccc; stroke-width: 0.8; stroke-linejoin: miter; stroke-linecap: square"/>
   </g>
   <g id="patch_9">
    <path d="M 65.45 303.64 
L 450 303.64 
" style="fill: none; stroke: #cccccc; stroke-width: 0.8; stroke-linejoin: miter; stroke-linecap: square"/>
   </g>
   <g id="patch_10">
    <path d="M 65.45 16.560685 
L 450 16.560685 
" style="fill: none; stroke: #cccccc; stroke-width: 0.8; stroke-linejoin: miter; stroke-linecap: square"/>
   </g>
   <g id="PathCollection_3">
    <defs>
     <path id="C0_0_3f1b59991e" d="M 0 1 
C 0.265203 1 0.51958 0.894634 0.707107 0.707107 
C 0.894634 0.51958 1 0.265203 1 -0 
C 1 -0.265203 0.894634 -0.51958 0.707107 -0.707107 
C 0.51958 -0.894634 0.265203 -1 0 -1 
C -0.265203 -1 -0.51958 -0.894634 -0.707107 -0.707107 
C -0.894634 -0.51958 -1 -0.265203 -1 0 
C -1 0.265203 -0.894634 0.51958 -0.707107 0.707107 
C -0.51958 0.894634 -0.265203 1 0 1 
z
"/>
    </defs>
    <g clip-path="url(#p1dab7dc058)">
     <use xlink:href="#C0_0_3f1b59991e" x="168.358986" y="123.021319" style="fill: #262626"/>
    </g>
    <g clip-path="url(#p1dab7dc058)">
     <use xlink:href="#C0_0_3f1b59991e" x="168.829814" y="190.496946" style="fill: #262626"/>
    </g>
    <g clip-path="url(#p1dab7dc058)">
     <use xlink:href="#C0_0_3f1b59991e" x="181.335961" y="78.652142" style="fill: #262626"/>
    </g>
    <g clip-path="url(#p1dab7dc058)">
     <use xlink:href="#C0_0_3f1b59991e" x="192.499174" y="215.527518" style="fill: #262626"/>
    </g>
    <g clip-path="url(#p1dab7dc058)">
     <use xlink:href="#C0_0_3f1b59991e" x="179.278804" y="169.67991" style="fill: #262626"/>
    </g>
    <g clip-path="url(#p1dab7dc058)">
     <use xlink:href="#C0_0_3f1b59991e" x="196.605199" y="151.271014" style="fill: #262626"/>
    </g>
    <g clip-path="url(#p1dab7dc058)">
     <use xlink:href="#C0_0_3f1b59991e" x="185.837985" y="171.254454" style="fill: #262626"/>
    </g>
    <g clip-path="url(#p1dab7dc058)">
     <use xlink:href="#C0_0_3f1b59991e" x="194.817275" y="179.445779" style="fill: #262626"/>
    </g>
    <g clip-path="url(#p1dab7dc058)">
     <use xlink:href="#C0_0_3f1b59991e" x="180.446437" y="175.455499" style="fill: #262626"/>
    </g>
    <g clip-path="url(#p1dab7dc058)">
     <use xlink:href="#C0_0_3f1b59991e" x="194.139427" y="152.22076" style="fill: #262626"/>
    </g>
    <g clip-path="url(#p1dab7dc058)">
     <use xlink:href="#C0_0_3f1b59991e" x="193.874255" y="277.971155" style="fill: #262626"/>
    </g>
    <g clip-path="url(#p1dab7dc058)">
     <use xlink:href="#C0_0_3f1b59991e" x="182.035348" y="129.213526" style="fill: #262626"/>
    </g>
    <g clip-path="url(#p1dab7dc058)">
     <use xlink:href="#C0_0_3f1b59991e" x="168.638696" y="303.64" style="fill: #262626"/>
    </g>
    <g clip-path="url(#p1dab7dc058)">
     <use xlink:href="#C0_0_3f1b59991e" x="169.901595" y="167.242528" style="fill: #262626"/>
    </g>
    <g clip-path="url(#p1dab7dc058)">
     <use xlink:href="#C0_0_3f1b59991e" x="171.310033" y="273.625644" style="fill: #262626"/>
    </g>
    <g clip-path="url(#p1dab7dc058)">
     <use xlink:href="#C0_0_3f1b59991e" x="177.474337" y="184.128137" style="fill: #262626"/>
    </g>
    <g clip-path="url(#p1dab7dc058)">
     <use xlink:href="#C0_0_3f1b59991e" x="198.660921" y="128.625817" style="fill: #262626"/>
    </g>
    <g clip-path="url(#p1dab7dc058)">
     <use xlink:href="#C0_0_3f1b59991e" x="193.165411" y="107.033209" style="fill: #262626"/>
    </g>
    <g clip-path="url(#p1dab7dc058)">
     <use xlink:href="#C0_0_3f1b59991e" x="177.678152" y="189.512834" style="fill: #262626"/>
    </g>
    <g clip-path="url(#p1dab7dc058)">
     <use xlink:href="#C0_0_3f1b59991e" x="193.339083" y="195.534388" style="fill: #262626"/>
    </g>
    <g clip-path="url(#p1dab7dc058)">
     <use xlink:href="#C0_0_3f1b59991e" x="196.3889" y="185.819547" style="fill: #262626"/>
    </g>
    <g clip-path="url(#p1dab7dc058)">
     <use xlink:href="#C0_0_3f1b59991e" x="167.256702" y="140.590868" style="fill: #262626"/>
    </g>
    <g clip-path="url(#p1dab7dc058)">
     <use xlink:href="#C0_0_3f1b59991e" x="175.011926" y="192.901932" style="fill: #262626"/>
    </g>
    <g clip-path="url(#p1dab7dc058)">
     <use xlink:href="#C0_0_3f1b59991e" x="175.329284" y="138.070217" style="fill: #262626"/>
    </g>
    <g clip-path="url(#p1dab7dc058)">
     <use xlink:href="#C0_0_3f1b59991e" x="196.657477" y="201.56156" style="fill: #262626"/>
    </g>
    <g clip-path="url(#p1dab7dc058)">
     <use xlink:href="#C0_0_3f1b59991e" x="192.844433" y="197.919113" style="fill: #262626"/>
    </g>
    <g clip-path="url(#p1dab7dc058)">
     <use xlink:href="#C0_0_3f1b59991e" x="186.737036" y="130.32764" style="fill: #262626"/>
    </g>
    <g clip-path="url(#p1dab7dc058)">
     <use xlink:href="#C0_0_3f1b59991e" x="176.487313" y="187.624426" style="fill: #262626"/>
    </g>
    <g clip-path="url(#p1dab7dc058)">
     <use xlink:href="#C0_0_3f1b59991e" x="180.182607" y="149.423942" style="fill: #262626"/>
    </g>
    <g clip-path="url(#p1dab7dc058)">
     <use xlink:href="#C0_0_3f1b59991e" x="181.224465" y="138.955129" style="fill: #262626"/>
    </g>
    <g clip-path="url(#p1dab7dc058)">
     <use xlink:href="#C0_0_3f1b59991e" x="195.99226" y="180.627504" style="fill: #262626"/>
    </g>
    <g clip-path="url(#p1dab7dc058)">
     <use xlink:href="#C0_0_3f1b59991e" x="171.826972" y="154.293749" style="fill: #262626"/>
    </g>
    <g clip-path="url(#p1dab7dc058)">
     <use xlink:href="#C0_0_3f1b59991e" x="186.821644" y="37.718549" style="fill: #262626"/>
    </g>
    <g clip-path="url(#p1dab7dc058)">
     <use xlink:href="#C0_0_3f1b59991e" x="178.815438" y="105.147855" style="fill: #262626"/>
    </g>
    <g clip-path="url(#p1dab7dc058)">
     <use xlink:href="#C0_0_3f1b59991e" x="181.132395" y="146.14738" style="fill: #262626"/>
    </g>
    <g clip-path="url(#p1dab7dc058)">
     <use xlink:href="#C0_0_3f1b59991e" x="198.645023" y="196.671679" style="fill: #262626"/>
    </g>
    <g clip-path="url(#p1dab7dc058)">
     <use xlink:href="#C0_0_3f1b59991e" x="199.747271" y="67.326581" style="fill: #262626"/>
    </g>
    <g clip-path="url(#p1dab7dc058)">
     <use xlink:href="#C0_0_3f1b59991e" x="183.840522" y="165.003833" style="fill: #262626"/>
    </g>
    <g clip-path="url(#p1dab7dc058)">
     <use xlink:href="#C0_0_3f1b59991e" x="168.294105" y="190.902675" style="fill: #262626"/>
    </g>
    <g clip-path="url(#p1dab7dc058)">
     <use xlink:href="#C0_0_3f1b59991e" x="189.491776" y="134.002498" style="fill: #262626"/>
    </g>
    <g clip-path="url(#p1dab7dc058)">
     <use xlink:href="#C0_0_3f1b59991e" x="197.941936" y="153.065184" style="fill: #262626"/>
    </g>
    <g clip-path="url(#p1dab7dc058)">
     <use xlink:href="#C0_0_3f1b59991e" x="187.709103" y="132.91487" style="fill: #262626"/>
    </g>
    <g clip-path="url(#p1dab7dc058)">
     <use xlink:href="#C0_0_3f1b59991e" x="188.387719" y="191.119374" style="fill: #262626"/>
    </g>
    <g clip-path="url(#p1dab7dc058)">
     <use xlink:href="#C0_0_3f1b59991e" x="184.750536" y="269.015487" style="fill: #262626"/>
    </g>
    <g clip-path="url(#p1dab7dc058)">
     <use xlink:href="#C0_0_3f1b59991e" x="183.884694" y="191.976153" style="fill: #262626"/>
    </g>
    <g clip-path="url(#p1dab7dc058)">
     <use xlink:href="#C0_0_3f1b59991e" x="181.823138" y="140.181611" style="fill: #262626"/>
    </g>
    <g clip-path="url(#p1dab7dc058)">
     <use xlink:href="#C0_0_3f1b59991e" x="188.177358" y="294.545376" style="fill: #262626"/>
    </g>
    <g clip-path="url(#p1dab7dc058)">
     <use xlink:href="#C0_0_3f1b59991e" x="164.264046" y="186.44012" style="fill: #262626"/>
    </g>
    <g clip-path="url(#p1dab7dc058)">
     <use xlink:href="#C0_0_3f1b59991e" x="161.598193" y="160.080208" style="fill: #262626"/>
    </g>
    <g clip-path="url(#p1dab7dc058)">
     <use xlink:href="#C0_0_3f1b59991e" x="174.597617" y="187.761271" style="fill: #262626"/>
    </g>
    <g clip-path="url(#p1dab7dc058)">
     <use xlink:href="#C0_0_3f1b59991e" x="176.638793" y="195.152869" style="fill: #262626"/>
    </g>
    <g clip-path="url(#p1dab7dc058)">
     <use xlink:href="#C0_0_3f1b59991e" x="194.074286" y="128.82471" style="fill: #262626"/>
    </g>
    <g clip-path="url(#p1dab7dc058)">
     <use xlink:href="#C0_0_3f1b59991e" x="196.070073" y="144.504181" style="fill: #262626"/>
    </g>
    <g clip-path="url(#p1dab7dc058)">
     <use xlink:href="#C0_0_3f1b59991e" x="166.24494" y="178.968402" style="fill: #262626"/>
    </g>
    <g clip-path="url(#p1dab7dc058)">
     <use xlink:href="#C0_0_3f1b59991e" x="183.392787" y="187.260976" style="fill: #262626"/>
    </g>
    <g clip-path="url(#p1dab7dc058)">
     <use xlink:href="#C0_0_3f1b59991e" x="172.132355" y="169.800245" style="fill: #262626"/>
    </g>
    <g clip-path="url(#p1dab7dc058)">
     <use xlink:href="#C0_0_3f1b59991e" x="186.869836" y="125.218553" style="fill: #262626"/>
    </g>
    <g clip-path="url(#p1dab7dc058)">
     <use xlink:href="#C0_0_3f1b59991e" x="194.607499" y="159.293424" style="fill: #262626"/>
    </g>
    <g clip-path="url(#p1dab7dc058)">
     <use xlink:href="#C0_0_3f1b59991e" x="172.752979" y="140.81919" style="fill: #262626"/>
    </g>
    <g clip-path="url(#p1dab7dc058)">
     <use xlink:href="#C0_0_3f1b59991e" x="190.487448" y="127.54976" style="fill: #262626"/>
    </g>
    <g clip-path="url(#p1dab7dc058)">
     <use xlink:href="#C0_0_3f1b59991e" x="177.854098" y="66.972983" style="fill: #262626"/>
    </g>
    <g clip-path="url(#p1dab7dc058)">
     <use xlink:href="#C0_0_3f1b59991e" x="195.660558" y="171.576709" style="fill: #262626"/>
    </g>
    <g clip-path="url(#p1dab7dc058)">
     <use xlink:href="#C0_0_3f1b59991e" x="195.226151" y="198.579107" style="fill: #262626"/>
    </g>
    <g clip-path="url(#p1dab7dc058)">
     <use xlink:href="#C0_0_3f1b59991e" x="162.575877" y="178.938984" style="fill: #262626"/>
    </g>
    <g clip-path="url(#p1dab7dc058)">
     <use xlink:href="#C0_0_3f1b59991e" x="177.726212" y="190.944168" style="fill: #262626"/>
    </g>
    <g clip-path="url(#p1dab7dc058)">
     <use xlink:href="#C0_0_3f1b59991e" x="172.831152" y="208.136491" style="fill: #262626"/>
    </g>
    <g clip-path="url(#p1dab7dc058)">
     <use xlink:href="#C0_0_3f1b59991e" x="165.910184" y="199.240181" style="fill: #262626"/>
    </g>
    <g clip-path="url(#p1dab7dc058)">
     <use xlink:href="#C0_0_3f1b59991e" x="181.272673" y="192.413117" style="fill: #262626"/>
    </g>
    <g clip-path="url(#p1dab7dc058)">
     <use xlink:href="#C0_0_3f1b59991e" x="172.555151" y="162.757078" style="fill: #262626"/>
    </g>
    <g clip-path="url(#p1dab7dc058)">
     <use xlink:href="#C0_0_3f1b59991e" x="166.636197" y="111.63645" style="fill: #262626"/>
    </g>
    <g clip-path="url(#p1dab7dc058)">
     <use xlink:href="#C0_0_3f1b59991e" x="162.961269" y="218.808672" style="fill: #262626"/>
    </g>
    <g clip-path="url(#p1dab7dc058)">
     <use xlink:href="#C0_0_3f1b59991e" x="173.657577" y="162.949664" style="fill: #262626"/>
    </g>
    <g clip-path="url(#p1dab7dc058)">
     <use xlink:href="#C0_0_3f1b59991e" x="175.389604" y="194.648497" style="fill: #262626"/>
    </g>
    <g clip-path="url(#p1dab7dc058)">
     <use xlink:href="#C0_0_3f1b59991e" x="188.618561" y="270.886104" style="fill: #262626"/>
    </g>
    <g clip-path="url(#p1dab7dc058)">
     <use xlink:href="#C0_0_3f1b59991e" x="199.030917" y="188.317301" style="fill: #262626"/>
    </g>
    <g clip-path="url(#p1dab7dc058)">
     <use xlink:href="#C0_0_3f1b59991e" x="174.87578" y="167.819401" style="fill: #262626"/>
    </g>
    <g clip-path="url(#p1dab7dc058)">
     <use xlink:href="#C0_0_3f1b59991e" x="168.960105" y="175.843106" style="fill: #262626"/>
    </g>
    <g clip-path="url(#p1dab7dc058)">
     <use xlink:href="#C0_0_3f1b59991e" x="185.547088" y="205.180488" style="fill: #262626"/>
    </g>
    <g clip-path="url(#p1dab7dc058)">
     <use xlink:href="#C0_0_3f1b59991e" x="192.632057" y="156.08359" style="fill: #262626"/>
    </g>
    <g clip-path="url(#p1dab7dc058)">
     <use xlink:href="#C0_0_3f1b59991e" x="176.604558" y="92.174881" style="fill: #262626"/>
    </g>
    <g clip-path="url(#p1dab7dc058)">
     <use xlink:href="#C0_0_3f1b59991e" x="191.454677" y="133.319956" style="fill: #262626"/>
    </g>
    <g clip-path="url(#p1dab7dc058)">
     <use xlink:href="#C0_0_3f1b59991e" x="173.737756" y="182.341983" style="fill: #262626"/>
    </g>
    <g clip-path="url(#p1dab7dc058)">
     <use xlink:href="#C0_0_3f1b59991e" x="195.575013" y="169.364841" style="fill: #262626"/>
    </g>
    <g clip-path="url(#p1dab7dc058)">
     <use xlink:href="#C0_0_3f1b59991e" x="172.739556" y="182.917723" style="fill: #262626"/>
    </g>
    <g clip-path="url(#p1dab7dc058)">
     <use xlink:href="#C0_0_3f1b59991e" x="184.36141" y="127.329986" style="fill: #262626"/>
    </g>
    <g clip-path="url(#p1dab7dc058)">
     <use xlink:href="#C0_0_3f1b59991e" x="189.845301" y="191.005065" style="fill: #262626"/>
    </g>
    <g clip-path="url(#p1dab7dc058)">
     <use xlink:href="#C0_0_3f1b59991e" x="162.126272" y="16.560685" style="fill: #262626"/>
    </g>
   </g>
   <g id="PathCollection_4">
    <defs>
     <path id="C1_0_3a0cc4302f" d="M 0 1 
C 0.265203 1 0.51958 0.894634 0.707107 0.707107 
C 0.894634 0.51958 1 0.265203 1 -0 
C 1 -0.265203 0.894634 -0.51958 0.707107 -0.707107 
C 0.51958 -0.894634 0.265203 -1 0 -1 
C -0.265203 -1 -0.51958 -0.894634 -0.707107 -0.707107 
C -0.894634 -0.51958 -1 -0.265203 -1 0 
C -1 0.265203 -0.894634 0.51958 -0.707107 0.707107 
C -0.51958 0.894634 -0.265203 1 0 1 
z
"/>
    </defs>
    <g clip-path="url(#p1dab7dc058)">
     <use xlink:href="#C1_0_3a0cc4302f" x="331.03243" y="154.566471"/>
    </g>
    <g clip-path="url(#p1dab7dc058)">
     <use xlink:href="#C1_0_3a0cc4302f" x="341.991209" y="124.432194"/>
    </g>
    <g clip-path="url(#p1dab7dc058)">
     <use xlink:href="#C1_0_3a0cc4302f" x="350.358454" y="165.895547"/>
    </g>
    <g clip-path="url(#p1dab7dc058)">
     <use xlink:href="#C1_0_3a0cc4302f" x="346.278449" y="119.491502"/>
    </g>
    <g clip-path="url(#p1dab7dc058)">
     <use xlink:href="#C1_0_3a0cc4302f" x="333.64648" y="150.284394"/>
    </g>
    <g clip-path="url(#p1dab7dc058)">
     <use xlink:href="#C1_0_3a0cc4302f" x="320.138061" y="168.017787"/>
    </g>
    <g clip-path="url(#p1dab7dc058)">
     <use xlink:href="#C1_0_3a0cc4302f" x="319.965788" y="132.878002"/>
    </g>
    <g clip-path="url(#p1dab7dc058)">
     <use xlink:href="#C1_0_3a0cc4302f" x="321.167956" y="122.619878"/>
    </g>
    <g clip-path="url(#p1dab7dc058)">
     <use xlink:href="#C1_0_3a0cc4302f" x="334.686216" y="140.581656"/>
    </g>
    <g clip-path="url(#p1dab7dc058)">
     <use xlink:href="#C1_0_3a0cc4302f" x="318.990187" y="159.336126"/>
    </g>
    <g clip-path="url(#p1dab7dc058)">
     <use xlink:href="#C1_0_3a0cc4302f" x="317.111813" y="151.752934"/>
    </g>
    <g clip-path="url(#p1dab7dc058)">
     <use xlink:href="#C1_0_3a0cc4302f" x="334.777271" y="109.335743"/>
    </g>
    <g clip-path="url(#p1dab7dc058)">
     <use xlink:href="#C1_0_3a0cc4302f" x="342.192652" y="141.031762"/>
    </g>
    <g clip-path="url(#p1dab7dc058)">
     <use xlink:href="#C1_0_3a0cc4302f" x="346.376337" y="166.846307"/>
    </g>
    <g clip-path="url(#p1dab7dc058)">
     <use xlink:href="#C1_0_3a0cc4302f" x="327.897865" y="151.311533"/>
    </g>
    <g clip-path="url(#p1dab7dc058)">
     <use xlink:href="#C1_0_3a0cc4302f" x="329.419168" y="168.815925"/>
    </g>
    <g clip-path="url(#p1dab7dc058)">
     <use xlink:href="#C1_0_3a0cc4302f" x="341.556591" y="116.968277"/>
    </g>
    <g clip-path="url(#p1dab7dc058)">
     <use xlink:href="#C1_0_3a0cc4302f" x="353.110649" y="150.292844"/>
    </g>
    <g clip-path="url(#p1dab7dc058)">
     <use xlink:href="#C1_0_3a0cc4302f" x="337.551495" y="105.623441"/>
    </g>
    <g clip-path="url(#p1dab7dc058)">
     <use xlink:href="#C1_0_3a0cc4302f" x="341.896711" y="99.136988"/>
    </g>
    <g clip-path="url(#p1dab7dc058)">
     <use xlink:href="#C1_0_3a0cc4302f" x="328.137788" y="110.17172"/>
    </g>
    <g clip-path="url(#p1dab7dc058)">
     <use xlink:href="#C1_0_3a0cc4302f" x="345.784526" y="75.886411"/>
    </g>
    <g clip-path="url(#p1dab7dc058)">
     <use xlink:href="#C1_0_3a0cc4302f" x="329.11858" y="170.87049"/>
    </g>
    <g clip-path="url(#p1dab7dc058)">
     <use xlink:href="#C1_0_3a0cc4302f" x="322.50071" y="144.869474"/>
    </g>
    <g clip-path="url(#p1dab7dc058)">
     <use xlink:href="#C1_0_3a0cc4302f" x="322.749552" y="113.76091"/>
    </g>
    <g clip-path="url(#p1dab7dc058)">
     <use xlink:href="#C1_0_3a0cc4302f" x="331.034135" y="160.871495"/>
    </g>
    <g clip-path="url(#p1dab7dc058)">
     <use xlink:href="#C1_0_3a0cc4302f" x="347.208977" y="144.945265"/>
    </g>
    <g clip-path="url(#p1dab7dc058)">
     <use xlink:href="#C1_0_3a0cc4302f" x="339.749386" y="110.826219"/>
    </g>
    <g clip-path="url(#p1dab7dc058)">
     <use xlink:href="#C1_0_3a0cc4302f" x="348.602845" y="100.637345"/>
    </g>
    <g clip-path="url(#p1dab7dc058)">
     <use xlink:href="#C1_0_3a0cc4302f" x="320.328118" y="118.143711"/>
    </g>
    <g clip-path="url(#p1dab7dc058)">
     <use xlink:href="#C1_0_3a0cc4302f" x="344.628231" y="128.100908"/>
    </g>
    <g clip-path="url(#p1dab7dc058)">
     <use xlink:href="#C1_0_3a0cc4302f" x="346.62447" y="151.447828"/>
    </g>
    <g clip-path="url(#p1dab7dc058)">
     <use xlink:href="#C1_0_3a0cc4302f" x="327.878932" y="137.395014"/>
    </g>
    <g clip-path="url(#p1dab7dc058)">
     <use xlink:href="#C1_0_3a0cc4302f" x="341.45066" y="145.841768"/>
    </g>
    <g clip-path="url(#p1dab7dc058)">
     <use xlink:href="#C1_0_3a0cc4302f" x="336.379459" y="41.365859"/>
    </g>
    <g clip-path="url(#p1dab7dc058)">
     <use xlink:href="#C1_0_3a0cc4302f" x="337.80892" y="147.308312"/>
    </g>
    <g clip-path="url(#p1dab7dc058)">
     <use xlink:href="#C1_0_3a0cc4302f" x="350.847663" y="160.315791"/>
    </g>
    <g clip-path="url(#p1dab7dc058)">
     <use xlink:href="#C1_0_3a0cc4302f" x="323.939189" y="141.236902"/>
    </g>
    <g clip-path="url(#p1dab7dc058)">
     <use xlink:href="#C1_0_3a0cc4302f" x="341.742416" y="159.217997"/>
    </g>
    <g clip-path="url(#p1dab7dc058)">
     <use xlink:href="#C1_0_3a0cc4302f" x="335.658404" y="129.145528"/>
    </g>
    <g clip-path="url(#p1dab7dc058)">
     <use xlink:href="#C1_0_3a0cc4302f" x="339.210598" y="158.525733"/>
    </g>
    <g clip-path="url(#p1dab7dc058)">
     <use xlink:href="#C1_0_3a0cc4302f" x="323.554866" y="156.56047"/>
    </g>
    <g clip-path="url(#p1dab7dc058)">
     <use xlink:href="#C1_0_3a0cc4302f" x="321.423165" y="147.667421"/>
    </g>
    <g clip-path="url(#p1dab7dc058)">
     <use xlink:href="#C1_0_3a0cc4302f" x="332.310572" y="137.407485"/>
    </g>
    <g clip-path="url(#p1dab7dc058)">
     <use xlink:href="#C1_0_3a0cc4302f" x="330.921716" y="107.00948"/>
    </g>
    <g clip-path="url(#p1dab7dc058)">
     <use xlink:href="#C1_0_3a0cc4302f" x="331.286935" y="103.075857"/>
    </g>
    <g clip-path="url(#p1dab7dc058)">
     <use xlink:href="#C1_0_3a0cc4302f" x="347.704572" y="139.966799"/>
    </g>
    <g clip-path="url(#p1dab7dc058)">
     <use xlink:href="#C1_0_3a0cc4302f" x="325.812212" y="136.528319"/>
    </g>
    <g clip-path="url(#p1dab7dc058)">
     <use xlink:href="#C1_0_3a0cc4302f" x="315.449272" y="125.084682"/>
    </g>
    <g clip-path="url(#p1dab7dc058)">
     <use xlink:href="#C1_0_3a0cc4302f" x="343.252645" y="150.232632"/>
    </g>
    <g clip-path="url(#p1dab7dc058)">
     <use xlink:href="#C1_0_3a0cc4302f" x="322.89914" y="108.321779"/>
    </g>
    <g clip-path="url(#p1dab7dc058)">
     <use xlink:href="#C1_0_3a0cc4302f" x="328.613188" y="97.464424"/>
    </g>
    <g clip-path="url(#p1dab7dc058)">
     <use xlink:href="#C1_0_3a0cc4302f" x="327.319292" y="114.658379"/>
    </g>
    <g clip-path="url(#p1dab7dc058)">
     <use xlink:href="#C1_0_3a0cc4302f" x="322.801024" y="157.041493"/>
    </g>
    <g clip-path="url(#p1dab7dc058)">
     <use xlink:href="#C1_0_3a0cc4302f" x="321.480628" y="154.580059"/>
    </g>
    <g clip-path="url(#p1dab7dc058)">
     <use xlink:href="#C1_0_3a0cc4302f" x="345.58973" y="126.921659"/>
    </g>
    <g clip-path="url(#p1dab7dc058)">
     <use xlink:href="#C1_0_3a0cc4302f" x="326.962293" y="136.622682"/>
    </g>
    <g clip-path="url(#p1dab7dc058)">
     <use xlink:href="#C1_0_3a0cc4302f" x="326.387458" y="153.5359"/>
    </g>
    <g clip-path="url(#p1dab7dc058)">
     <use xlink:href="#C1_0_3a0cc4302f" x="321.178134" y="144.362266"/>
    </g>
    <g clip-path="url(#p1dab7dc058)">
     <use xlink:href="#C1_0_3a0cc4302f" x="350.483756" y="113.350415"/>
    </g>
    <g clip-path="url(#p1dab7dc058)">
     <use xlink:href="#C1_0_3a0cc4302f" x="322.613642" y="113.868451"/>
    </g>
    <g clip-path="url(#p1dab7dc058)">
     <use xlink:href="#C1_0_3a0cc4302f" x="329.236923" y="130.365057"/>
    </g>
    <g clip-path="url(#p1dab7dc058)">
     <use xlink:href="#C1_0_3a0cc4302f" x="334.125417" y="113.678253"/>
    </g>
    <g clip-path="url(#p1dab7dc058)">
     <use xlink:href="#C1_0_3a0cc4302f" x="316.831538" y="158.362094"/>
    </g>
    <g clip-path="url(#p1dab7dc058)">
     <use xlink:href="#C1_0_3a0cc4302f" x="341.608318" y="155.98163"/>
    </g>
    <g clip-path="url(#p1dab7dc058)">
     <use xlink:href="#C1_0_3a0cc4302f" x="346.156861" y="119.293115"/>
    </g>
    <g clip-path="url(#p1dab7dc058)">
     <use xlink:href="#C1_0_3a0cc4302f" x="321.206584" y="131.915963"/>
    </g>
    <g clip-path="url(#p1dab7dc058)">
     <use xlink:href="#C1_0_3a0cc4302f" x="344.614651" y="126.373995"/>
    </g>
    <g clip-path="url(#p1dab7dc058)">
     <use xlink:href="#C1_0_3a0cc4302f" x="352.374152" y="161.003025"/>
    </g>
    <g clip-path="url(#p1dab7dc058)">
     <use xlink:href="#C1_0_3a0cc4302f" x="344.403466" y="145.064387"/>
    </g>
   </g>
   <g id="text_12">
    <!-- 87 -->
    <g style="fill: #262626" transform="translate(200.0425 172.292329) scale(0.1 -0.1)">
     <defs>
      <path id="DejaVuSans-38" d="M 2034 2216 
Q 1584 2216 1326 1975 
Q 1069 1734 1069 1313 
Q 1069 891 1326 650 
Q 1584 409 2034 409 
Q 2484 409 2743 651 
Q 3003 894 3003 1313 
Q 3003 1734 2745 1975 
Q 2488 2216 2034 2216 
z
M 1403 2484 
Q 997 2584 770 2862 
Q 544 3141 544 3541 
Q 544 4100 942 4425 
Q 1341 4750 2034 4750 
Q 2731 4750 3128 4425 
Q 3525 4100 3525 3541 
Q 3525 3141 3298 2862 
Q 3072 2584 2669 2484 
Q 3125 2378 3379 2068 
Q 3634 1759 3634 1313 
Q 3634 634 3220 271 
Q 2806 -91 2034 -91 
Q 1263 -91 848 271 
Q 434 634 434 1313 
Q 434 1759 690 2068 
Q 947 2378 1403 2484 
z
M 1172 3481 
Q 1172 3119 1398 2916 
Q 1625 2713 2034 2713 
Q 2441 2713 2670 2916 
Q 2900 3119 2900 3481 
Q 2900 3844 2670 4047 
Q 2441 4250 2034 4250 
Q 1625 4250 1398 4047 
Q 1172 3844 1172 3481 
z
" transform="scale(0.015625)"/>
     </defs>
     <use xlink:href="#DejaVuSans-38"/>
     <use xlink:href="#DejaVuSans-37" x="63.623047"/>
    </g>
   </g>
   <g id="text_13">
    <!-- p=nan -->
    <g style="fill: #262626" transform="translate(186.63 16.56) scale(0.08 -0.08)">
     <defs>
      <path id="DejaVuSans-3d" d="M 678 2906 
L 4684 2906 
L 4684 2381 
L 678 2381 
L 678 2906 
z
M 678 1631 
L 4684 1631 
L 4684 1100 
L 678 1100 
L 678 1631 
z
" transform="scale(0.015625)"/>
     </defs>
     <use xlink:href="#DejaVuSans-70"/>
     <use xlink:href="#DejaVuSans-3d" x="63.476562"/>
     <use xlink:href="#DejaVuSans-6e" x="147.265625"/>
     <use xlink:href="#DejaVuSans-61" x="210.644531"/>
     <use xlink:href="#DejaVuSans-6e" x="271.923828"/>
    </g>
   </g>
   <g id="text_14">
    <!-- 70 -->
    <g style="fill: #262626" transform="translate(315.4075 172.292329) scale(0.1 -0.1)">
     <use xlink:href="#DejaVuSans-37"/>
     <use xlink:href="#DejaVuSans-30" x="63.623047"/>
    </g>
   </g>
   <g id="text_15">
    <!-- p=nan -->
    <g style="fill: #262626" transform="translate(301.995 41.365174) scale(0.08 -0.08)">
     <use xlink:href="#DejaVuSans-70"/>
     <use xlink:href="#DejaVuSans-3d" x="63.476562"/>
     <use xlink:href="#DejaVuSans-6e" x="147.265625"/>
     <use xlink:href="#DejaVuSans-61" x="210.644531"/>
     <use xlink:href="#DejaVuSans-6e" x="271.923828"/>
    </g>
   </g>
   <g id="legend_1">
    <g id="patch_11">
     <path d="M 387.048437 33.159122 
L 407.048437 33.159122 
L 407.048437 26.159122 
L 387.048437 26.159122 
z
" style="fill: #ecf2ec; stroke: #262626; stroke-width: 0.75; stroke-linejoin: miter"/>
    </g>
    <g id="text_16">
     <!-- void -->
     <g style="fill: #262626" transform="translate(415.048437 33.159122) scale(0.1 -0.1)">
      <defs>
       <path id="DejaVuSans-76" d="M 191 3500 
L 800 3500 
L 1894 563 
L 2988 3500 
L 3597 3500 
L 2284 0 
L 1503 0 
L 191 3500 
z
" transform="scale(0.015625)"/>
       <path id="DejaVuSans-69" d="M 603 3500 
L 1178 3500 
L 1178 0 
L 603 0 
L 603 3500 
z
M 603 4863 
L 1178 4863 
L 1178 4134 
L 603 4134 
L 603 4863 
z
" transform="scale(0.015625)"/>
       <path id="DejaVuSans-64" d="M 2906 2969 
L 2906 4863 
L 3481 4863 
L 3481 0 
L 2906 0 
L 2906 525 
Q 2725 213 2448 61 
Q 2172 -91 1784 -91 
Q 1150 -91 751 415 
Q 353 922 353 1747 
Q 353 2572 751 3078 
Q 1150 3584 1784 3584 
Q 2172 3584 2448 3432 
Q 2725 3281 2906 2969 
z
M 947 1747 
Q 947 1113 1208 752 
Q 1469 391 1925 391 
Q 2381 391 2643 752 
Q 2906 1113 2906 1747 
Q 2906 2381 2643 2742 
Q 2381 3103 1925 3103 
Q 1469 3103 1208 2742 
Q 947 2381 947 1747 
z
" transform="scale(0.015625)"/>
      </defs>
      <use xlink:href="#DejaVuSans-76"/>
      <use xlink:href="#DejaVuSans-6f" x="59.179688"/>
      <use xlink:href="#DejaVuSans-69" x="120.361328"/>
      <use xlink:href="#DejaVuSans-64" x="148.144531"/>
     </g>
    </g>
    <g id="patch_12">
     <path d="M 387.048437 47.837247 
L 407.048437 47.837247 
L 407.048437 40.837247 
L 387.048437 40.837247 
z
" style="fill: #107010; stroke: #262626; stroke-width: 0.75; stroke-linejoin: miter"/>
    </g>
    <g id="text_17">
     <!-- clash -->
     <g style="fill: #262626" transform="translate(415.048437 47.837247) scale(0.1 -0.1)">
      <defs>
       <path id="DejaVuSans-68" d="M 3513 2113 
L 3513 0 
L 2938 0 
L 2938 2094 
Q 2938 2591 2744 2837 
Q 2550 3084 2163 3084 
Q 1697 3084 1428 2787 
Q 1159 2491 1159 1978 
L 1159 0 
L 581 0 
L 581 4863 
L 1159 4863 
L 1159 2956 
Q 1366 3272 1645 3428 
Q 1925 3584 2291 3584 
Q 2894 3584 3203 3211 
Q 3513 2838 3513 2113 
z
" transform="scale(0.015625)"/>
      </defs>
      <use xlink:href="#DejaVuSans-63"/>
      <use xlink:href="#DejaVuSans-6c" x="54.980469"/>
      <use xlink:href="#DejaVuSans-61" x="82.763672"/>
      <use xlink:href="#DejaVuSans-73" x="144.042969"/>
      <use xlink:href="#DejaVuSans-68" x="196.142578"/>
     </g>
    </g>
   </g>
  </g>
 </g>
 <defs>
  <clipPath id="p1dab7dc058">
   <rect x="65.45" y="16.560685" width="384.55" height="287.079315"/>
  </clipPath>
 </defs>
</svg>
