<?xml version="1.0" encoding="utf-8" standalone="no"?>
<!DOCTYPE svg PUBLIC "-//W3C//DTD SVG 1.1//EN"
  "http://www.w3.org/Graphics/SVG/1.1/DTD/svg11.dtd">
<svg xmlns:xlink="http://www.w3.org/1999/xlink" width="460.8pt" height="345.6pt" viewBox="0 0 460.8 345.6" xmlns="http://www.w3.org/2000/svg" version="1.1">
 <metadata>
  <rdf:RDF xmlns:dc="http://purl.org/dc/elements/1.1/" xmlns:cc="http://creativecommons.org/ns#" xmlns:rdf="http://www.w3.org/1999/02/22-rdf-syntax-ns#">
   <cc:Work>
    <dc:type rdf:resource="http://purl.org/dc/dcmitype/StillImage"/>
    <dc:date>2024-02-20T13:12:25.869344</dc:date>
    <dc:format>image/svg+xml</dc:format>
    <dc:creator>
     <cc:Agent>
      <dc:title>Matplotlib v3.7.1, https://matplotlib.org/</dc:title>
     </cc:Agent>
    </dc:creator>
   </cc:Work>
  </rdf:RDF>
 </metadata>
 <defs>
  <style type="text/css">*{stroke-linejoin: round; stroke-linecap: butt}</style>
 </defs>
 <g id="figure_1">
  <g id="patch_1">
   <path d="M 0 345.6 
L 460.8 345.6 
L 460.8 0 
L 0 0 
z
" style="fill: #ffffff"/>
  </g>
  <g id="axes_1">
   <g id="patch_2">
    <path d="M 63.57125 303.64 
L 450 303.64 
L 450 10.8 
L 63.57125 10.8 
z
" style="fill: #ffffff"/>
   </g>
   <g id="matplotlib.axis_1">
    <g id="xtick_1">
     <g id="text_1">
      <!-- A -->
      <g style="fill: #262626" transform="translate(156.758125 318.238437) scale(0.1 -0.1)">
       <defs>
        <path id="DejaVuSans-41" d="M 2188 4044 
L 1331 1722 
L 3047 1722 
L 2188 4044 
z
M 1831 4666 
L 2547 4666 
L 4325 0 
L 3669 0 
L 3244 1197 
L 1141 1197 
L 716 0 
L 50 0 
L 1831 4666 
z
" transform="scale(0.015625)"/>
       </defs>
       <use xlink:href="#DejaVuSans-41"/>
      </g>
     </g>
    </g>
    <g id="xtick_2">
     <g id="text_2">
      <!-- I -->
      <g style="fill: #262626" transform="translate(351.917812 318.238437) scale(0.1 -0.1)">
       <defs>
        <path id="DejaVuSans-49" d="M 628 4666 
L 1259 4666 
L 1259 0 
L 628 0 
L 628 4666 
z
" transform="scale(0.015625)"/>
       </defs>
       <use xlink:href="#DejaVuSans-49"/>
      </g>
     </g>
    </g>
    <g id="text_3">
     <!-- mut_AA -->
     <g style="fill: #262626" transform="translate(237.308281 331.638437) scale(0.1 -0.1)">
      <defs>
       <path id="DejaVuSans-6d" d="M 3328 2828 
Q 3544 3216 3844 3400 
Q 4144 3584 4550 3584 
Q 5097 3584 5394 3201 
Q 5691 2819 5691 2113 
L 5691 0 
L 5113 0 
L 5113 2094 
Q 5113 2597 4934 2840 
Q 4756 3084 4391 3084 
Q 3944 3084 3684 2787 
Q 3425 2491 3425 1978 
L 3425 0 
L 2847 0 
L 2847 2094 
Q 2847 2600 2669 2842 
Q 2491 3084 2119 3084 
Q 1678 3084 1418 2786 
Q 1159 2488 1159 1978 
L 1159 0 
L 581 0 
L 581 3500 
L 1159 3500 
L 1159 2956 
Q 1356 3278 1631 3431 
Q 1906 3584 2284 3584 
Q 2666 3584 2933 3390 
Q 3200 3197 3328 2828 
z
" transform="scale(0.015625)"/>
       <path id="DejaVuSans-75" d="M 544 1381 
L 544 3500 
L 1119 3500 
L 1119 1403 
Q 1119 906 1312 657 
Q 1506 409 1894 409 
Q 2359 409 2629 706 
Q 2900 1003 2900 1516 
L 2900 3500 
L 3475 3500 
L 3475 0 
L 2900 0 
L 2900 538 
Q 2691 219 2414 64 
Q 2138 -91 1772 -91 
Q 1169 -91 856 284 
Q 544 659 544 1381 
z
M 1991 3584 
L 1991 3584 
z
" transform="scale(0.015625)"/>
       <path id="DejaVuSans-74" d="M 1172 4494 
L 1172 3500 
L 2356 3500 
L 2356 3053 
L 1172 3053 
L 1172 1153 
Q 1172 725 1289 603 
Q 1406 481 1766 481 
L 2356 481 
L 2356 0 
L 1766 0 
Q 1100 0 847 248 
Q 594 497 594 1153 
L 594 3053 
L 172 3053 
L 172 3500 
L 594 3500 
L 594 4494 
L 1172 4494 
z
" transform="scale(0.015625)"/>
       <path id="DejaVuSans-5f" d="M 3263 -1063 
L 3263 -1509 
L -63 -1509 
L -63 -1063 
L 3263 -1063 
z
" transform="scale(0.015625)"/>
      </defs>
      <use xlink:href="#DejaVuSans-6d"/>
      <use xlink:href="#DejaVuSans-75" x="97.412109"/>
      <use xlink:href="#DejaVuSans-74" x="160.791016"/>
      <use xlink:href="#DejaVuSans-5f" x="200"/>
      <use xlink:href="#DejaVuSans-41" x="250"/>
      <use xlink:href="#DejaVuSans-41" x="321.158203"/>
     </g>
    </g>
   </g>
   <g id="matplotlib.axis_2">
    <g id="ytick_1">
     <g id="line2d_1">
      <path d="M 63.57125 303.64 
L 450 303.64 
" clip-path="url(#pc13040eeb6)" style="fill: none; stroke: #cccccc; stroke-width: 0.8; stroke-linecap: round"/>
     </g>
     <g id="text_4">
      <!-- 0.0 -->
      <g style="fill: #262626" transform="translate(40.668125 307.439219) scale(0.1 -0.1)">
       <defs>
        <path id="DejaVuSans-30" d="M 2034 4250 
Q 1547 4250 1301 3770 
Q 1056 3291 1056 2328 
Q 1056 1369 1301 889 
Q 1547 409 2034 409 
Q 2525 409 2770 889 
Q 3016 1369 3016 2328 
Q 3016 3291 2770 3770 
Q 2525 4250 2034 4250 
z
M 2034 4750 
Q 2819 4750 3233 4129 
Q 3647 3509 3647 2328 
Q 3647 1150 3233 529 
Q 2819 -91 2034 -91 
Q 1250 -91 836 529 
Q 422 1150 422 2328 
Q 422 3509 836 4129 
Q 1250 4750 2034 4750 
z
" transform="scale(0.015625)"/>
        <path id="DejaVuSans-2e" d="M 684 794 
L 1344 794 
L 1344 0 
L 684 0 
L 684 794 
z
" transform="scale(0.015625)"/>
       </defs>
       <use xlink:href="#DejaVuSans-30"/>
       <use xlink:href="#DejaVuSans-2e" x="63.623047"/>
       <use xlink:href="#DejaVuSans-30" x="95.410156"/>
      </g>
     </g>
    </g>
    <g id="ytick_2">
     <g id="line2d_2">
      <path d="M 63.57125 252.095999 
L 450 252.095999 
" clip-path="url(#pc13040eeb6)" style="fill: none; stroke: #cccccc; stroke-width: 0.8; stroke-linecap: round"/>
     </g>
     <g id="text_5">
      <!-- 0.1 -->
      <g style="fill: #262626" transform="translate(40.668125 255.895217) scale(0.1 -0.1)">
       <defs>
        <path id="DejaVuSans-31" d="M 794 531 
L 1825 531 
L 1825 4091 
L 703 3866 
L 703 4441 
L 1819 4666 
L 2450 4666 
L 2450 531 
L 3481 531 
L 3481 0 
L 794 0 
L 794 531 
z
" transform="scale(0.015625)"/>
       </defs>
       <use xlink:href="#DejaVuSans-30"/>
       <use xlink:href="#DejaVuSans-2e" x="63.623047"/>
       <use xlink:href="#DejaVuSans-31" x="95.410156"/>
      </g>
     </g>
    </g>
    <g id="ytick_3">
     <g id="line2d_3">
      <path d="M 63.57125 200.551997 
L 450 200.551997 
" clip-path="url(#pc13040eeb6)" style="fill: none; stroke: #cccccc; stroke-width: 0.8; stroke-linecap: round"/>
     </g>
     <g id="text_6">
      <!-- 0.2 -->
      <g style="fill: #262626" transform="translate(40.668125 204.351216) scale(0.1 -0.1)">
       <defs>
        <path id="DejaVuSans-32" d="M 1228 531 
L 3431 531 
L 3431 0 
L 469 0 
L 469 531 
Q 828 903 1448 1529 
Q 2069 2156 2228 2338 
Q 2531 2678 2651 2914 
Q 2772 3150 2772 3378 
Q 2772 3750 2511 3984 
Q 2250 4219 1831 4219 
Q 1534 4219 1204 4116 
Q 875 4013 500 3803 
L 500 4441 
Q 881 4594 1212 4672 
Q 1544 4750 1819 4750 
Q 2544 4750 2975 4387 
Q 3406 4025 3406 3419 
Q 3406 3131 3298 2873 
Q 3191 2616 2906 2266 
Q 2828 2175 2409 1742 
Q 1991 1309 1228 531 
z
" transform="scale(0.015625)"/>
       </defs>
       <use xlink:href="#DejaVuSans-30"/>
       <use xlink:href="#DejaVuSans-2e" x="63.623047"/>
       <use xlink:href="#DejaVuSans-32" x="95.410156"/>
      </g>
     </g>
    </g>
    <g id="ytick_4">
     <g id="line2d_4">
      <path d="M 63.57125 149.007996 
L 450 149.007996 
" clip-path="url(#pc13040eeb6)" style="fill: none; stroke: #cccccc; stroke-width: 0.8; stroke-linecap: round"/>
     </g>
     <g id="text_7">
      <!-- 0.3 -->
      <g style="fill: #262626" transform="translate(40.668125 152.807215) scale(0.1 -0.1)">
       <defs>
        <path id="DejaVuSans-33" d="M 2597 2516 
Q 3050 2419 3304 2112 
Q 3559 1806 3559 1356 
Q 3559 666 3084 287 
Q 2609 -91 1734 -91 
Q 1441 -91 1130 -33 
Q 819 25 488 141 
L 488 750 
Q 750 597 1062 519 
Q 1375 441 1716 441 
Q 2309 441 2620 675 
Q 2931 909 2931 1356 
Q 2931 1769 2642 2001 
Q 2353 2234 1838 2234 
L 1294 2234 
L 1294 2753 
L 1863 2753 
Q 2328 2753 2575 2939 
Q 2822 3125 2822 3475 
Q 2822 3834 2567 4026 
Q 2313 4219 1838 4219 
Q 1578 4219 1281 4162 
Q 984 4106 628 3988 
L 628 4550 
Q 988 4650 1302 4700 
Q 1616 4750 1894 4750 
Q 2613 4750 3031 4423 
Q 3450 4097 3450 3541 
Q 3450 3153 3228 2886 
Q 3006 2619 2597 2516 
z
" transform="scale(0.015625)"/>
       </defs>
       <use xlink:href="#DejaVuSans-30"/>
       <use xlink:href="#DejaVuSans-2e" x="63.623047"/>
       <use xlink:href="#DejaVuSans-33" x="95.410156"/>
      </g>
     </g>
    </g>
    <g id="ytick_5">
     <g id="line2d_5">
      <path d="M 63.57125 97.463995 
L 450 97.463995 
" clip-path="url(#pc13040eeb6)" style="fill: none; stroke: #cccccc; stroke-width: 0.8; stroke-linecap: round"/>
     </g>
     <g id="text_8">
      <!-- 0.4 -->
      <g style="fill: #262626" transform="translate(40.668125 101.263214) scale(0.1 -0.1)">
       <defs>
        <path id="DejaVuSans-34" d="M 2419 4116 
L 825 1625 
L 2419 1625 
L 2419 4116 
z
M 2253 4666 
L 3047 4666 
L 3047 1625 
L 3713 1625 
L 3713 1100 
L 3047 1100 
L 3047 0 
L 2419 0 
L 2419 1100 
L 313 1100 
L 313 1709 
L 2253 4666 
z
" transform="scale(0.015625)"/>
       </defs>
       <use xlink:href="#DejaVuSans-30"/>
       <use xlink:href="#DejaVuSans-2e" x="63.623047"/>
       <use xlink:href="#DejaVuSans-34" x="95.410156"/>
      </g>
     </g>
    </g>
    <g id="ytick_6">
     <g id="line2d_6">
      <path d="M 63.57125 45.919993 
L 450 45.919993 
" clip-path="url(#pc13040eeb6)" style="fill: none; stroke: #cccccc; stroke-width: 0.8; stroke-linecap: round"/>
     </g>
     <g id="text_9">
      <!-- 0.5 -->
      <g style="fill: #262626" transform="translate(40.668125 49.719212) scale(0.1 -0.1)">
       <defs>
        <path id="DejaVuSans-35" d="M 691 4666 
L 3169 4666 
L 3169 4134 
L 1269 4134 
L 1269 2991 
Q 1406 3038 1543 3061 
Q 1681 3084 1819 3084 
Q 2600 3084 3056 2656 
Q 3513 2228 3513 1497 
Q 3513 744 3044 326 
Q 2575 -91 1722 -91 
Q 1428 -91 1123 -41 
Q 819 9 494 109 
L 494 744 
Q 775 591 1075 516 
Q 1375 441 1709 441 
Q 2250 441 2565 725 
Q 2881 1009 2881 1497 
Q 2881 1984 2565 2268 
Q 2250 2553 1709 2553 
Q 1456 2553 1204 2497 
Q 953 2441 691 2322 
L 691 4666 
z
" transform="scale(0.015625)"/>
       </defs>
       <use xlink:href="#DejaVuSans-30"/>
       <use xlink:href="#DejaVuSans-2e" x="63.623047"/>
       <use xlink:href="#DejaVuSans-35" x="95.410156"/>
      </g>
     </g>
    </g>
    <g id="text_10">
     <!-- PercentGpA -->
     <g style="fill: #262626" transform="translate(34.588438 186.496563) rotate(-90) scale(0.1 -0.1)">
      <defs>
       <path id="DejaVuSans-50" d="M 1259 4147 
L 1259 2394 
L 2053 2394 
Q 2494 2394 2734 2622 
Q 2975 2850 2975 3272 
Q 2975 3691 2734 3919 
Q 2494 4147 2053 4147 
L 1259 4147 
z
M 628 4666 
L 2053 4666 
Q 2838 4666 3239 4311 
Q 3641 3956 3641 3272 
Q 3641 2581 3239 2228 
Q 2838 1875 2053 1875 
L 1259 1875 
L 1259 0 
L 628 0 
L 628 4666 
z
" transform="scale(0.015625)"/>
       <path id="DejaVuSans-65" d="M 3597 1894 
L 3597 1613 
L 953 1613 
Q 991 1019 1311 708 
Q 1631 397 2203 397 
Q 2534 397 2845 478 
Q 3156 559 3463 722 
L 3463 178 
Q 3153 47 2828 -22 
Q 2503 -91 2169 -91 
Q 1331 -91 842 396 
Q 353 884 353 1716 
Q 353 2575 817 3079 
Q 1281 3584 2069 3584 
Q 2775 3584 3186 3129 
Q 3597 2675 3597 1894 
z
M 3022 2063 
Q 3016 2534 2758 2815 
Q 2500 3097 2075 3097 
Q 1594 3097 1305 2825 
Q 1016 2553 972 2059 
L 3022 2063 
z
" transform="scale(0.015625)"/>
       <path id="DejaVuSans-72" d="M 2631 2963 
Q 2534 3019 2420 3045 
Q 2306 3072 2169 3072 
Q 1681 3072 1420 2755 
Q 1159 2438 1159 1844 
L 1159 0 
L 581 0 
L 581 3500 
L 1159 3500 
L 1159 2956 
Q 1341 3275 1631 3429 
Q 1922 3584 2338 3584 
Q 2397 3584 2469 3576 
Q 2541 3569 2628 3553 
L 2631 2963 
z
" transform="scale(0.015625)"/>
       <path id="DejaVuSans-63" d="M 3122 3366 
L 3122 2828 
Q 2878 2963 2633 3030 
Q 2388 3097 2138 3097 
Q 1578 3097 1268 2742 
Q 959 2388 959 1747 
Q 959 1106 1268 751 
Q 1578 397 2138 397 
Q 2388 397 2633 464 
Q 2878 531 3122 666 
L 3122 134 
Q 2881 22 2623 -34 
Q 2366 -91 2075 -91 
Q 1284 -91 818 406 
Q 353 903 353 1747 
Q 353 2603 823 3093 
Q 1294 3584 2113 3584 
Q 2378 3584 2631 3529 
Q 2884 3475 3122 3366 
z
" transform="scale(0.015625)"/>
       <path id="DejaVuSans-6e" d="M 3513 2113 
L 3513 0 
L 2938 0 
L 2938 2094 
Q 2938 2591 2744 2837 
Q 2550 3084 2163 3084 
Q 1697 3084 1428 2787 
Q 1159 2491 1159 1978 
L 1159 0 
L 581 0 
L 581 3500 
L 1159 3500 
L 1159 2956 
Q 1366 3272 1645 3428 
Q 1925 3584 2291 3584 
Q 2894 3584 3203 3211 
Q 3513 2838 3513 2113 
z
" transform="scale(0.015625)"/>
       <path id="DejaVuSans-47" d="M 3809 666 
L 3809 1919 
L 2778 1919 
L 2778 2438 
L 4434 2438 
L 4434 434 
Q 4069 175 3628 42 
Q 3188 -91 2688 -91 
Q 1594 -91 976 548 
Q 359 1188 359 2328 
Q 359 3472 976 4111 
Q 1594 4750 2688 4750 
Q 3144 4750 3555 4637 
Q 3966 4525 4313 4306 
L 4313 3634 
Q 3963 3931 3569 4081 
Q 3175 4231 2741 4231 
Q 1884 4231 1454 3753 
Q 1025 3275 1025 2328 
Q 1025 1384 1454 906 
Q 1884 428 2741 428 
Q 3075 428 3337 486 
Q 3600 544 3809 666 
z
" transform="scale(0.015625)"/>
       <path id="DejaVuSans-70" d="M 1159 525 
L 1159 -1331 
L 581 -1331 
L 581 3500 
L 1159 3500 
L 1159 2969 
Q 1341 3281 1617 3432 
Q 1894 3584 2278 3584 
Q 2916 3584 3314 3078 
Q 3713 2572 3713 1747 
Q 3713 922 3314 415 
Q 2916 -91 2278 -91 
Q 1894 -91 1617 61 
Q 1341 213 1159 525 
z
M 3116 1747 
Q 3116 2381 2855 2742 
Q 2594 3103 2138 3103 
Q 1681 3103 1420 2742 
Q 1159 2381 1159 1747 
Q 1159 1113 1420 752 
Q 1681 391 2138 391 
Q 2594 391 2855 752 
Q 3116 1113 3116 1747 
z
" transform="scale(0.015625)"/>
      </defs>
      <use xlink:href="#DejaVuSans-50"/>
      <use xlink:href="#DejaVuSans-65" x="56.677734"/>
      <use xlink:href="#DejaVuSans-72" x="118.201172"/>
      <use xlink:href="#DejaVuSans-63" x="157.064453"/>
      <use xlink:href="#DejaVuSans-65" x="212.044922"/>
      <use xlink:href="#DejaVuSans-6e" x="273.568359"/>
      <use xlink:href="#DejaVuSans-74" x="336.947266"/>
      <use xlink:href="#DejaVuSans-47" x="376.15625"/>
      <use xlink:href="#DejaVuSans-70" x="453.646484"/>
      <use xlink:href="#DejaVuSans-41" x="517.123047"/>
     </g>
    </g>
   </g>
   <g id="patch_3">
    <path d="M 83.665545 170.43452 
L 159.40558 170.43452 
L 159.40558 118.191643 
L 83.665545 118.191643 
L 83.665545 170.43452 
z
" clip-path="url(#pc13040eeb6)" style="fill: #ecf2ec; stroke: #262626; stroke-width: 1.5; stroke-linejoin: miter"/>
   </g>
   <g id="patch_4">
    <path d="M 160.951295 192.127856 
L 236.69133 192.127856 
L 236.69133 168.032461 
L 160.951295 168.032461 
L 160.951295 192.127856 
z
" clip-path="url(#pc13040eeb6)" style="fill: #107010; stroke: #262626; stroke-width: 1.5; stroke-linejoin: miter"/>
   </g>
   <g id="patch_5">
    <path d="M 276.87992 212.111166 
L 352.619955 212.111166 
L 352.619955 181.947039 
L 276.87992 181.947039 
L 276.87992 212.111166 
z
" clip-path="url(#pc13040eeb6)" style="fill: #ecf2ec; stroke: #262626; stroke-width: 1.5; stroke-linejoin: miter"/>
   </g>
   <g id="patch_6">
    <path d="M 354.16567 178.046914 
L 429.905705 178.046914 
L 429.905705 140.767822 
L 354.16567 140.767822 
L 354.16567 178.046914 
z
" clip-path="url(#pc13040eeb6)" style="fill: #107010; stroke: #262626; stroke-width: 1.5; stroke-linejoin: miter"/>
   </g>
   <g id="patch_7">
    <path d="M 160.178438 303.64 
L 160.178438 303.64 
L 160.178438 303.64 
L 160.178438 303.64 
z
" clip-path="url(#pc13040eeb6)" style="fill: #ecf2ec; stroke: #262626; stroke-width: 0.75; stroke-linejoin: miter"/>
   </g>
   <g id="patch_8">
    <path d="M 160.178438 303.64 
L 160.178438 303.64 
L 160.178438 303.64 
L 160.178438 303.64 
z
" clip-path="url(#pc13040eeb6)" style="fill: #107010; stroke: #262626; stroke-width: 0.75; stroke-linejoin: miter"/>
   </g>
   <g id="PathCollection_1"/>
   <g id="PathCollection_2"/>
   <g id="line2d_7">
    <path d="M 121.535562 170.43452 
L 121.535562 230.375463 
" clip-path="url(#pc13040eeb6)" style="fill: none; stroke: #262626; stroke-width: 1.5; stroke-linecap: round"/>
   </g>
   <g id="line2d_8">
    <path d="M 121.535562 118.191643 
L 121.535562 50.894406 
" clip-path="url(#pc13040eeb6)" style="fill: none; stroke: #262626; stroke-width: 1.5; stroke-linecap: round"/>
   </g>
   <g id="line2d_9">
    <path d="M 102.600554 230.375463 
L 140.470571 230.375463 
" clip-path="url(#pc13040eeb6)" style="fill: none; stroke: #262626; stroke-width: 1.5; stroke-linecap: round"/>
   </g>
   <g id="line2d_10">
    <path d="M 102.600554 50.894406 
L 140.470571 50.894406 
" clip-path="url(#pc13040eeb6)" style="fill: none; stroke: #262626; stroke-width: 1.5; stroke-linecap: round"/>
   </g>
   <g id="line2d_11">
    <defs>
     <path id="mb1274d72b9" d="M -0 1.414214 
L 0.848528 0 
L 0 -1.414214 
L -0.848528 -0 
z
" style="stroke: #262626; stroke-linejoin: miter"/>
    </defs>
    <g clip-path="url(#pc13040eeb6)">
     <use xlink:href="#mb1274d72b9" x="121.535562" y="37.421818" style="fill: #262626; stroke: #262626; stroke-linejoin: miter"/>
    </g>
   </g>
   <g id="line2d_12">
    <path d="M 198.821313 192.127856 
L 198.821313 214.748476 
" clip-path="url(#pc13040eeb6)" style="fill: none; stroke: #262626; stroke-width: 1.5; stroke-linecap: round"/>
   </g>
   <g id="line2d_13">
    <path d="M 198.821313 168.032461 
L 198.821313 159.919846 
" clip-path="url(#pc13040eeb6)" style="fill: none; stroke: #262626; stroke-width: 1.5; stroke-linecap: round"/>
   </g>
   <g id="line2d_14">
    <path d="M 179.886304 214.748476 
L 217.756321 214.748476 
" clip-path="url(#pc13040eeb6)" style="fill: none; stroke: #262626; stroke-width: 1.5; stroke-linecap: round"/>
   </g>
   <g id="line2d_15">
    <path d="M 179.886304 159.919846 
L 217.756321 159.919846 
" clip-path="url(#pc13040eeb6)" style="fill: none; stroke: #262626; stroke-width: 1.5; stroke-linecap: round"/>
   </g>
   <g id="line2d_16"/>
   <g id="line2d_17">
    <path d="M 314.749937 212.111166 
L 314.749937 243.892567 
" clip-path="url(#pc13040eeb6)" style="fill: none; stroke: #262626; stroke-width: 1.5; stroke-linecap: round"/>
   </g>
   <g id="line2d_18">
    <path d="M 314.749937 181.947039 
L 314.749937 175.243732 
" clip-path="url(#pc13040eeb6)" style="fill: none; stroke: #262626; stroke-width: 1.5; stroke-linecap: round"/>
   </g>
   <g id="line2d_19">
    <path d="M 295.814929 243.892567 
L 333.684946 243.892567 
" clip-path="url(#pc13040eeb6)" style="fill: none; stroke: #262626; stroke-width: 1.5; stroke-linecap: round"/>
   </g>
   <g id="line2d_20">
    <path d="M 295.814929 175.243732 
L 333.684946 175.243732 
" clip-path="url(#pc13040eeb6)" style="fill: none; stroke: #262626; stroke-width: 1.5; stroke-linecap: round"/>
   </g>
   <g id="line2d_21">
    <g clip-path="url(#pc13040eeb6)">
     <use xlink:href="#mb1274d72b9" x="314.749937" y="272.915059" style="fill: #262626; stroke: #262626; stroke-linejoin: miter"/>
    </g>
   </g>
   <g id="line2d_22">
    <path d="M 392.035687 178.046914 
L 392.035687 205.662749 
" clip-path="url(#pc13040eeb6)" style="fill: none; stroke: #262626; stroke-width: 1.5; stroke-linecap: round"/>
   </g>
   <g id="line2d_23">
    <path d="M 392.035687 140.767822 
L 392.035687 119.734073 
" clip-path="url(#pc13040eeb6)" style="fill: none; stroke: #262626; stroke-width: 1.5; stroke-linecap: round"/>
   </g>
   <g id="line2d_24">
    <path d="M 373.100679 205.662749 
L 410.970696 205.662749 
" clip-path="url(#pc13040eeb6)" style="fill: none; stroke: #262626; stroke-width: 1.5; stroke-linecap: round"/>
   </g>
   <g id="line2d_25">
    <path d="M 373.100679 119.734073 
L 410.970696 119.734073 
" clip-path="url(#pc13040eeb6)" style="fill: none; stroke: #262626; stroke-width: 1.5; stroke-linecap: round"/>
   </g>
   <g id="line2d_26">
    <g clip-path="url(#pc13040eeb6)">
     <use xlink:href="#mb1274d72b9" x="392.035687" y="73.754736" style="fill: #262626; stroke: #262626; stroke-linejoin: miter"/>
     <use xlink:href="#mb1274d72b9" x="392.035687" y="68.620732" style="fill: #262626; stroke: #262626; stroke-linejoin: miter"/>
    </g>
   </g>
   <g id="line2d_27">
    <path d="M 83.665545 144.696451 
L 159.40558 144.696451 
" clip-path="url(#pc13040eeb6)" style="fill: none; stroke: #262626; stroke-width: 1.5; stroke-linecap: round"/>
   </g>
   <g id="line2d_28">
    <path d="M 160.951295 177.662157 
L 236.69133 177.662157 
" clip-path="url(#pc13040eeb6)" style="fill: none; stroke: #262626; stroke-width: 1.5; stroke-linecap: round"/>
   </g>
   <g id="line2d_29">
    <path d="M 276.87992 194.733516 
L 352.619955 194.733516 
" clip-path="url(#pc13040eeb6)" style="fill: none; stroke: #262626; stroke-width: 1.5; stroke-linecap: round"/>
   </g>
   <g id="line2d_30">
    <path d="M 354.16567 159.625067 
L 429.905705 159.625067 
" clip-path="url(#pc13040eeb6)" style="fill: none; stroke: #262626; stroke-width: 1.5; stroke-linecap: round"/>
   </g>
   <g id="patch_9">
    <path d="M 63.57125 303.64 
L 63.57125 10.8 
" style="fill: none; stroke: #cccccc; stroke-width: 0.8; stroke-linejoin: miter; stroke-linecap: square"/>
   </g>
   <g id="patch_10">
    <path d="M 450 303.64 
L 450 10.8 
" style="fill: none; stroke: #cccccc; stroke-width: 0.8; stroke-linejoin: miter; stroke-linecap: square"/>
   </g>
   <g id="patch_11">
    <path d="M 63.57125 303.64 
L 450 303.64 
" style="fill: none; stroke: #cccccc; stroke-width: 0.8; stroke-linejoin: miter; stroke-linecap: square"/>
   </g>
   <g id="patch_12">
    <path d="M 63.57125 10.8 
L 450 10.8 
" style="fill: none; stroke: #cccccc; stroke-width: 0.8; stroke-linejoin: miter; stroke-linecap: square"/>
   </g>
   <g id="PathCollection_3">
    <defs>
     <path id="C0_0_28f0d30905" d="M 0 1 
C 0.265203 1 0.51958 0.894634 0.707107 0.707107 
C 0.894634 0.51958 1 0.265203 1 -0 
C 1 -0.265203 0.894634 -0.51958 0.707107 -0.707107 
C 0.51958 -0.894634 0.265203 -1 0 -1 
C -0.265203 -1 -0.51958 -0.894634 -0.707107 -0.707107 
C -0.894634 -0.51958 -1 -0.265203 -1 0 
C -1 0.265203 -0.894634 0.51958 -0.707107 0.707107 
C -0.51958 0.894634 -0.265203 1 0 1 
z
"/>
    </defs>
    <g clip-path="url(#pc13040eeb6)">
     <use xlink:href="#C0_0_28f0d30905" x="125.353081" y="188.35483" style="fill: #262626"/>
    </g>
    <g clip-path="url(#pc13040eeb6)">
     <use xlink:href="#C0_0_28f0d30905" x="123.962921" y="153.691771" style="fill: #262626"/>
    </g>
    <g clip-path="url(#pc13040eeb6)">
     <use xlink:href="#C0_0_28f0d30905" x="126.742265" y="199.918473" style="fill: #262626"/>
    </g>
    <g clip-path="url(#pc13040eeb6)">
     <use xlink:href="#C0_0_28f0d30905" x="122.431856" y="117.814253" style="fill: #262626"/>
    </g>
    <g clip-path="url(#pc13040eeb6)">
     <use xlink:href="#C0_0_28f0d30905" x="124.323056" y="207.641781" style="fill: #262626"/>
    </g>
    <g clip-path="url(#pc13040eeb6)">
     <use xlink:href="#C0_0_28f0d30905" x="113.385965" y="144.314992" style="fill: #262626"/>
    </g>
    <g clip-path="url(#pc13040eeb6)">
     <use xlink:href="#C0_0_28f0d30905" x="120.18069" y="113.437047" style="fill: #262626"/>
    </g>
    <g clip-path="url(#pc13040eeb6)">
     <use xlink:href="#C0_0_28f0d30905" x="122.443581" y="187.419143" style="fill: #262626"/>
    </g>
    <g clip-path="url(#pc13040eeb6)">
     <use xlink:href="#C0_0_28f0d30905" x="113.745572" y="230.375463" style="fill: #262626"/>
    </g>
    <g clip-path="url(#pc13040eeb6)">
     <use xlink:href="#C0_0_28f0d30905" x="125.111161" y="177.007001" style="fill: #262626"/>
    </g>
    <g clip-path="url(#pc13040eeb6)">
     <use xlink:href="#C0_0_28f0d30905" x="116.540251" y="170.012393" style="fill: #262626"/>
    </g>
    <g clip-path="url(#pc13040eeb6)">
     <use xlink:href="#C0_0_28f0d30905" x="122.822289" y="147.66609" style="fill: #262626"/>
    </g>
    <g clip-path="url(#pc13040eeb6)">
     <use xlink:href="#C0_0_28f0d30905" x="130.898182" y="157.4605" style="fill: #262626"/>
    </g>
    <g clip-path="url(#pc13040eeb6)">
     <use xlink:href="#C0_0_28f0d30905" x="126.291013" y="134.129546" style="fill: #262626"/>
    </g>
    <g clip-path="url(#pc13040eeb6)">
     <use xlink:href="#C0_0_28f0d30905" x="122.84308" y="122.816363" style="fill: #262626"/>
    </g>
    <g clip-path="url(#pc13040eeb6)">
     <use xlink:href="#C0_0_28f0d30905" x="123.945265" y="116.665021" style="fill: #262626"/>
    </g>
    <g clip-path="url(#pc13040eeb6)">
     <use xlink:href="#C0_0_28f0d30905" x="116.20058" y="144.308775" style="fill: #262626"/>
    </g>
    <g clip-path="url(#pc13040eeb6)">
     <use xlink:href="#C0_0_28f0d30905" x="123.534478" y="99.338016" style="fill: #262626"/>
    </g>
    <g clip-path="url(#pc13040eeb6)">
     <use xlink:href="#C0_0_28f0d30905" x="125.864824" y="104.687545" style="fill: #262626"/>
    </g>
    <g clip-path="url(#pc13040eeb6)">
     <use xlink:href="#C0_0_28f0d30905" x="123.127881" y="152.630839" style="fill: #262626"/>
    </g>
    <g clip-path="url(#pc13040eeb6)">
     <use xlink:href="#C0_0_28f0d30905" x="120.273619" y="141.364207" style="fill: #262626"/>
    </g>
    <g clip-path="url(#pc13040eeb6)">
     <use xlink:href="#C0_0_28f0d30905" x="114.263072" y="170.575228" style="fill: #262626"/>
    </g>
    <g clip-path="url(#pc13040eeb6)">
     <use xlink:href="#C0_0_28f0d30905" x="122.535356" y="52.237957" style="fill: #262626"/>
    </g>
    <g clip-path="url(#pc13040eeb6)">
     <use xlink:href="#C0_0_28f0d30905" x="117.662232" y="124.273129" style="fill: #262626"/>
    </g>
    <g clip-path="url(#pc13040eeb6)">
     <use xlink:href="#C0_0_28f0d30905" x="128.498605" y="166.150281" style="fill: #262626"/>
    </g>
    <g clip-path="url(#pc13040eeb6)">
     <use xlink:href="#C0_0_28f0d30905" x="117.7828" y="106.338415" style="fill: #262626"/>
    </g>
    <g clip-path="url(#pc13040eeb6)">
     <use xlink:href="#C0_0_28f0d30905" x="112.549239" y="177.540442" style="fill: #262626"/>
    </g>
    <g clip-path="url(#pc13040eeb6)">
     <use xlink:href="#C0_0_28f0d30905" x="129.212671" y="187.3664" style="fill: #262626"/>
    </g>
    <g clip-path="url(#pc13040eeb6)">
     <use xlink:href="#C0_0_28f0d30905" x="128.078298" y="141.776546" style="fill: #262626"/>
    </g>
    <g clip-path="url(#pc13040eeb6)">
     <use xlink:href="#C0_0_28f0d30905" x="127.638501" y="102.900239" style="fill: #262626"/>
    </g>
    <g clip-path="url(#pc13040eeb6)">
     <use xlink:href="#C0_0_28f0d30905" x="128.710111" y="50.894406" style="fill: #262626"/>
    </g>
    <g clip-path="url(#pc13040eeb6)">
     <use xlink:href="#C0_0_28f0d30905" x="115.855974" y="151.098686" style="fill: #262626"/>
    </g>
    <g clip-path="url(#pc13040eeb6)">
     <use xlink:href="#C0_0_28f0d30905" x="124.439099" y="199.429693" style="fill: #262626"/>
    </g>
    <g clip-path="url(#pc13040eeb6)">
     <use xlink:href="#C0_0_28f0d30905" x="121.57261" y="140.330603" style="fill: #262626"/>
    </g>
    <g clip-path="url(#pc13040eeb6)">
     <use xlink:href="#C0_0_28f0d30905" x="112.396199" y="150.47073" style="fill: #262626"/>
    </g>
    <g clip-path="url(#pc13040eeb6)">
     <use xlink:href="#C0_0_28f0d30905" x="120.458851" y="175.583708" style="fill: #262626"/>
    </g>
    <g clip-path="url(#pc13040eeb6)">
     <use xlink:href="#C0_0_28f0d30905" x="129.326391" y="161.984627" style="fill: #262626"/>
    </g>
    <g clip-path="url(#pc13040eeb6)">
     <use xlink:href="#C0_0_28f0d30905" x="126.312016" y="119.323814" style="fill: #262626"/>
    </g>
    <g clip-path="url(#pc13040eeb6)">
     <use xlink:href="#C0_0_28f0d30905" x="115.951796" y="115.895886" style="fill: #262626"/>
    </g>
    <g clip-path="url(#pc13040eeb6)">
     <use xlink:href="#C0_0_28f0d30905" x="112.36312" y="125.699351" style="fill: #262626"/>
    </g>
    <g clip-path="url(#pc13040eeb6)">
     <use xlink:href="#C0_0_28f0d30905" x="123.41411" y="136.807823" style="fill: #262626"/>
    </g>
    <g clip-path="url(#pc13040eeb6)">
     <use xlink:href="#C0_0_28f0d30905" x="117.201215" y="155.457084" style="fill: #262626"/>
    </g>
    <g clip-path="url(#pc13040eeb6)">
     <use xlink:href="#C0_0_28f0d30905" x="116.514608" y="124.24591" style="fill: #262626"/>
    </g>
    <g clip-path="url(#pc13040eeb6)">
     <use xlink:href="#C0_0_28f0d30905" x="119.244588" y="176.108677" style="fill: #262626"/>
    </g>
    <g clip-path="url(#pc13040eeb6)">
     <use xlink:href="#C0_0_28f0d30905" x="123.696403" y="145.077911" style="fill: #262626"/>
    </g>
    <g clip-path="url(#pc13040eeb6)">
     <use xlink:href="#C0_0_28f0d30905" x="115.605126" y="116.035298" style="fill: #262626"/>
    </g>
    <g clip-path="url(#pc13040eeb6)">
     <use xlink:href="#C0_0_28f0d30905" x="129.156041" y="172.517176" style="fill: #262626"/>
    </g>
    <g clip-path="url(#pc13040eeb6)">
     <use xlink:href="#C0_0_28f0d30905" x="113.440714" y="136.795783" style="fill: #262626"/>
    </g>
    <g clip-path="url(#pc13040eeb6)">
     <use xlink:href="#C0_0_28f0d30905" x="116.477991" y="37.421818" style="fill: #262626"/>
    </g>
    <g clip-path="url(#pc13040eeb6)">
     <use xlink:href="#C0_0_28f0d30905" x="130.996851" y="170.950404" style="fill: #262626"/>
    </g>
    <g clip-path="url(#pc13040eeb6)">
     <use xlink:href="#C0_0_28f0d30905" x="114.392097" y="84.382637" style="fill: #262626"/>
    </g>
    <g clip-path="url(#pc13040eeb6)">
     <use xlink:href="#C0_0_28f0d30905" x="129.434644" y="169.489392" style="fill: #262626"/>
    </g>
    <g clip-path="url(#pc13040eeb6)">
     <use xlink:href="#C0_0_28f0d30905" x="129.472438" y="81.266106" style="fill: #262626"/>
    </g>
    <g clip-path="url(#pc13040eeb6)">
     <use xlink:href="#C0_0_28f0d30905" x="123.503836" y="154.388084" style="fill: #262626"/>
    </g>
   </g>
   <g id="PathCollection_4">
    <defs>
     <path id="C1_0_f53560d3af" d="M 0 1 
C 0.265203 1 0.51958 0.894634 0.707107 0.707107 
C 0.894634 0.51958 1 0.265203 1 -0 
C 1 -0.265203 0.894634 -0.51958 0.707107 -0.707107 
C 0.51958 -0.894634 0.265203 -1 0 -1 
C -0.265203 -1 -0.51958 -0.894634 -0.707107 -0.707107 
C -0.894634 -0.51958 -1 -0.265203 -1 0 
C -1 0.265203 -0.894634 0.51958 -0.707107 0.707107 
C -0.51958 0.894634 -0.265203 1 0 1 
z
"/>
    </defs>
    <g clip-path="url(#pc13040eeb6)">
     <use xlink:href="#C1_0_f53560d3af" x="205.967646" y="159.919846"/>
    </g>
    <g clip-path="url(#pc13040eeb6)">
     <use xlink:href="#C1_0_f53560d3af" x="200.61854" y="170.736666"/>
    </g>
    <g clip-path="url(#pc13040eeb6)">
     <use xlink:href="#C1_0_f53560d3af" x="198.842479" y="184.587649"/>
    </g>
    <g clip-path="url(#pc13040eeb6)">
     <use xlink:href="#C1_0_f53560d3af" x="208.457868" y="214.748476"/>
    </g>
   </g>
   <g id="PathCollection_5">
    <defs>
     <path id="C2_0_37ee211850" d="M 0 1 
C 0.265203 1 0.51958 0.894634 0.707107 0.707107 
C 0.894634 0.51958 1 0.265203 1 -0 
C 1 -0.265203 0.894634 -0.51958 0.707107 -0.707107 
C 0.51958 -0.894634 0.265203 -1 0 -1 
C -0.265203 -1 -0.51958 -0.894634 -0.707107 -0.707107 
C -0.894634 -0.51958 -1 -0.265203 -1 0 
C -1 0.265203 -0.894634 0.51958 -0.707107 0.707107 
C -0.51958 0.894634 -0.265203 1 0 1 
z
"/>
    </defs>
    <g clip-path="url(#pc13040eeb6)">
     <use xlink:href="#C2_0_37ee211850" x="316.61796" y="176.497082" style="fill: #262626"/>
    </g>
    <g clip-path="url(#pc13040eeb6)">
     <use xlink:href="#C2_0_37ee211850" x="317.353572" y="175.83897" style="fill: #262626"/>
    </g>
    <g clip-path="url(#pc13040eeb6)">
     <use xlink:href="#C2_0_37ee211850" x="308.359495" y="192.945374" style="fill: #262626"/>
    </g>
    <g clip-path="url(#pc13040eeb6)">
     <use xlink:href="#C2_0_37ee211850" x="307.14513" y="228.710407" style="fill: #262626"/>
    </g>
    <g clip-path="url(#pc13040eeb6)">
     <use xlink:href="#C2_0_37ee211850" x="305.280268" y="202.329139" style="fill: #262626"/>
    </g>
    <g clip-path="url(#pc13040eeb6)">
     <use xlink:href="#C2_0_37ee211850" x="323.954951" y="201.162072" style="fill: #262626"/>
    </g>
    <g clip-path="url(#pc13040eeb6)">
     <use xlink:href="#C2_0_37ee211850" x="312.265413" y="243.892567" style="fill: #262626"/>
    </g>
    <g clip-path="url(#pc13040eeb6)">
     <use xlink:href="#C2_0_37ee211850" x="306.751342" y="181.919381" style="fill: #262626"/>
    </g>
    <g clip-path="url(#pc13040eeb6)">
     <use xlink:href="#C2_0_37ee211850" x="312.663216" y="179.621327" style="fill: #262626"/>
    </g>
    <g clip-path="url(#pc13040eeb6)">
     <use xlink:href="#C2_0_37ee211850" x="317.998443" y="194.733516" style="fill: #262626"/>
    </g>
    <g clip-path="url(#pc13040eeb6)">
     <use xlink:href="#C2_0_37ee211850" x="314.952605" y="205.127994" style="fill: #262626"/>
    </g>
    <g clip-path="url(#pc13040eeb6)">
     <use xlink:href="#C2_0_37ee211850" x="318.562807" y="272.915059" style="fill: #262626"/>
    </g>
    <g clip-path="url(#pc13040eeb6)">
     <use xlink:href="#C2_0_37ee211850" x="323.137531" y="190.465205" style="fill: #262626"/>
    </g>
    <g clip-path="url(#pc13040eeb6)">
     <use xlink:href="#C2_0_37ee211850" x="324.375743" y="208.48984" style="fill: #262626"/>
    </g>
    <g clip-path="url(#pc13040eeb6)">
     <use xlink:href="#C2_0_37ee211850" x="313.439223" y="212.839292" style="fill: #262626"/>
    </g>
    <g clip-path="url(#pc13040eeb6)">
     <use xlink:href="#C2_0_37ee211850" x="324.14224" y="185.749151" style="fill: #262626"/>
    </g>
    <g clip-path="url(#pc13040eeb6)">
     <use xlink:href="#C2_0_37ee211850" x="317.27154" y="199.30391" style="fill: #262626"/>
    </g>
    <g clip-path="url(#pc13040eeb6)">
     <use xlink:href="#C2_0_37ee211850" x="307.749942" y="194.045571" style="fill: #262626"/>
    </g>
    <g clip-path="url(#pc13040eeb6)">
     <use xlink:href="#C2_0_37ee211850" x="308.411938" y="190.855827" style="fill: #262626"/>
    </g>
    <g clip-path="url(#pc13040eeb6)">
     <use xlink:href="#C2_0_37ee211850" x="318.722979" y="214.654889" style="fill: #262626"/>
    </g>
    <g clip-path="url(#pc13040eeb6)">
     <use xlink:href="#C2_0_37ee211850" x="306.790543" y="195.119215" style="fill: #262626"/>
    </g>
    <g clip-path="url(#pc13040eeb6)">
     <use xlink:href="#C2_0_37ee211850" x="316.840198" y="205.152147" style="fill: #262626"/>
    </g>
    <g clip-path="url(#pc13040eeb6)">
     <use xlink:href="#C2_0_37ee211850" x="309.07466" y="219.25861" style="fill: #262626"/>
    </g>
    <g clip-path="url(#pc13040eeb6)">
     <use xlink:href="#C2_0_37ee211850" x="311.946562" y="176.844634" style="fill: #262626"/>
    </g>
    <g clip-path="url(#pc13040eeb6)">
     <use xlink:href="#C2_0_37ee211850" x="306.28802" y="181.152827" style="fill: #262626"/>
    </g>
    <g clip-path="url(#pc13040eeb6)">
     <use xlink:href="#C2_0_37ee211850" x="308.706446" y="225.483747" style="fill: #262626"/>
    </g>
    <g clip-path="url(#pc13040eeb6)">
     <use xlink:href="#C2_0_37ee211850" x="309.657065" y="175.243732" style="fill: #262626"/>
    </g>
    <g clip-path="url(#pc13040eeb6)">
     <use xlink:href="#C2_0_37ee211850" x="319.967104" y="222.552645" style="fill: #262626"/>
    </g>
    <g clip-path="url(#pc13040eeb6)">
     <use xlink:href="#C2_0_37ee211850" x="309.669347" y="204.076603" style="fill: #262626"/>
    </g>
    <g clip-path="url(#pc13040eeb6)">
     <use xlink:href="#C2_0_37ee211850" x="307.383556" y="216.390308" style="fill: #262626"/>
    </g>
    <g clip-path="url(#pc13040eeb6)">
     <use xlink:href="#C2_0_37ee211850" x="317.04491" y="211.383041" style="fill: #262626"/>
    </g>
    <g clip-path="url(#pc13040eeb6)">
     <use xlink:href="#C2_0_37ee211850" x="320.093616" y="177.312858" style="fill: #262626"/>
    </g>
    <g clip-path="url(#pc13040eeb6)">
     <use xlink:href="#C2_0_37ee211850" x="312.888515" y="223.369887" style="fill: #262626"/>
    </g>
    <g clip-path="url(#pc13040eeb6)">
     <use xlink:href="#C2_0_37ee211850" x="305.430674" y="196.049624" style="fill: #262626"/>
    </g>
    <g clip-path="url(#pc13040eeb6)">
     <use xlink:href="#C2_0_37ee211850" x="312.830118" y="180.37496" style="fill: #262626"/>
    </g>
    <g clip-path="url(#pc13040eeb6)">
     <use xlink:href="#C2_0_37ee211850" x="316.434989" y="177.455128" style="fill: #262626"/>
    </g>
    <g clip-path="url(#pc13040eeb6)">
     <use xlink:href="#C2_0_37ee211850" x="312.482331" y="184.676147" style="fill: #262626"/>
    </g>
    <g clip-path="url(#pc13040eeb6)">
     <use xlink:href="#C2_0_37ee211850" x="305.536542" y="183.993091" style="fill: #262626"/>
    </g>
    <g clip-path="url(#pc13040eeb6)">
     <use xlink:href="#C2_0_37ee211850" x="321.894963" y="192.130355" style="fill: #262626"/>
    </g>
    <g clip-path="url(#pc13040eeb6)">
     <use xlink:href="#C2_0_37ee211850" x="318.436158" y="214.070393" style="fill: #262626"/>
    </g>
    <g clip-path="url(#pc13040eeb6)">
     <use xlink:href="#C2_0_37ee211850" x="311.579226" y="178.86128" style="fill: #262626"/>
    </g>
    <g clip-path="url(#pc13040eeb6)">
     <use xlink:href="#C2_0_37ee211850" x="317.073337" y="190.919162" style="fill: #262626"/>
    </g>
    <g clip-path="url(#pc13040eeb6)">
     <use xlink:href="#C2_0_37ee211850" x="312.04638" y="181.974698" style="fill: #262626"/>
    </g>
   </g>
   <g id="PathCollection_6">
    <defs>
     <path id="C3_0_a86c72fc64" d="M 0 1 
C 0.265203 1 0.51958 0.894634 0.707107 0.707107 
C 0.894634 0.51958 1 0.265203 1 -0 
C 1 -0.265203 0.894634 -0.51958 0.707107 -0.707107 
C 0.51958 -0.894634 0.265203 -1 0 -1 
C -0.265203 -1 -0.51958 -0.894634 -0.707107 -0.707107 
C -0.894634 -0.51958 -1 -0.265203 -1 0 
C -1 0.265203 -0.894634 0.51958 -0.707107 0.707107 
C -0.51958 0.894634 -0.265203 1 0 1 
z
"/>
    </defs>
    <g clip-path="url(#pc13040eeb6)">
     <use xlink:href="#C3_0_a86c72fc64" x="383.259901" y="195.609342"/>
    </g>
    <g clip-path="url(#pc13040eeb6)">
     <use xlink:href="#C3_0_a86c72fc64" x="395.120973" y="73.754736"/>
    </g>
    <g clip-path="url(#pc13040eeb6)">
     <use xlink:href="#C3_0_a86c72fc64" x="389.83707" y="177.971995"/>
    </g>
    <g clip-path="url(#pc13040eeb6)">
     <use xlink:href="#C3_0_a86c72fc64" x="389.287937" y="164.427675"/>
    </g>
    <g clip-path="url(#pc13040eeb6)">
     <use xlink:href="#C3_0_a86c72fc64" x="392.466722" y="147.876298"/>
    </g>
    <g clip-path="url(#pc13040eeb6)">
     <use xlink:href="#C3_0_a86c72fc64" x="386.892282" y="140.017606"/>
    </g>
    <g clip-path="url(#pc13040eeb6)">
     <use xlink:href="#C3_0_a86c72fc64" x="399.590053" y="185.964655"/>
    </g>
    <g clip-path="url(#pc13040eeb6)">
     <use xlink:href="#C3_0_a86c72fc64" x="401.157232" y="181.196177"/>
    </g>
    <g clip-path="url(#pc13040eeb6)">
     <use xlink:href="#C3_0_a86c72fc64" x="382.839994" y="132.330738"/>
    </g>
    <g clip-path="url(#pc13040eeb6)">
     <use xlink:href="#C3_0_a86c72fc64" x="391.501488" y="178.271672"/>
    </g>
    <g clip-path="url(#pc13040eeb6)">
     <use xlink:href="#C3_0_a86c72fc64" x="394.465629" y="135.020085"/>
    </g>
    <g clip-path="url(#pc13040eeb6)">
     <use xlink:href="#C3_0_a86c72fc64" x="394.992153" y="141.297731"/>
    </g>
    <g clip-path="url(#pc13040eeb6)">
     <use xlink:href="#C3_0_a86c72fc64" x="399.874655" y="147.272414"/>
    </g>
    <g clip-path="url(#pc13040eeb6)">
     <use xlink:href="#C3_0_a86c72fc64" x="392.875307" y="176.094086"/>
    </g>
    <g clip-path="url(#pc13040eeb6)">
     <use xlink:href="#C3_0_a86c72fc64" x="395.319821" y="160.558963"/>
    </g>
    <g clip-path="url(#pc13040eeb6)">
     <use xlink:href="#C3_0_a86c72fc64" x="393.949565" y="158.69117"/>
    </g>
    <g clip-path="url(#pc13040eeb6)">
     <use xlink:href="#C3_0_a86c72fc64" x="395.376553" y="141.017893"/>
    </g>
    <g clip-path="url(#pc13040eeb6)">
     <use xlink:href="#C3_0_a86c72fc64" x="398.217201" y="68.620732"/>
    </g>
    <g clip-path="url(#pc13040eeb6)">
     <use xlink:href="#C3_0_a86c72fc64" x="385.257051" y="149.500355"/>
    </g>
    <g clip-path="url(#pc13040eeb6)">
     <use xlink:href="#C3_0_a86c72fc64" x="387.109546" y="179.99891"/>
    </g>
    <g clip-path="url(#pc13040eeb6)">
     <use xlink:href="#C3_0_a86c72fc64" x="388.71176" y="205.662749"/>
    </g>
    <g clip-path="url(#pc13040eeb6)">
     <use xlink:href="#C3_0_a86c72fc64" x="387.348995" y="167.207723"/>
    </g>
    <g clip-path="url(#pc13040eeb6)">
     <use xlink:href="#C3_0_a86c72fc64" x="400.923953" y="119.734073"/>
    </g>
    <g clip-path="url(#pc13040eeb6)">
     <use xlink:href="#C3_0_a86c72fc64" x="398.585989" y="174.043467"/>
    </g>
    <g clip-path="url(#pc13040eeb6)">
     <use xlink:href="#C3_0_a86c72fc64" x="396.767016" y="204.410468"/>
    </g>
    <g clip-path="url(#pc13040eeb6)">
     <use xlink:href="#C3_0_a86c72fc64" x="400.368409" y="166.615162"/>
    </g>
    <g clip-path="url(#pc13040eeb6)">
     <use xlink:href="#C3_0_a86c72fc64" x="394.728585" y="136.779679"/>
    </g>
    <g clip-path="url(#pc13040eeb6)">
     <use xlink:href="#C3_0_a86c72fc64" x="400.60598" y="156.221426"/>
    </g>
   </g>
   <g id="text_11">
    <!-- 54 -->
    <g style="fill: #262626" transform="translate(131.196281 -546.836022) scale(0.1 -0.1)">
     <use xlink:href="#DejaVuSans-35"/>
     <use xlink:href="#DejaVuSans-34" x="63.623047"/>
    </g>
   </g>
   <g id="text_12">
    <!-- p=0.04982478606210612 -->
    <g style="fill: #262626" transform="translate(78.223781 11.649818) scale(0.08 -0.08)">
     <defs>
      <path id="DejaVuSans-3d" d="M 678 2906 
L 4684 2906 
L 4684 2381 
L 678 2381 
L 678 2906 
z
M 678 1631 
L 4684 1631 
L 4684 1100 
L 678 1100 
L 678 1631 
z
" transform="scale(0.015625)"/>
      <path id="DejaVuSans-39" d="M 703 97 
L 703 672 
Q 941 559 1184 500 
Q 1428 441 1663 441 
Q 2288 441 2617 861 
Q 2947 1281 2994 2138 
Q 2813 1869 2534 1725 
Q 2256 1581 1919 1581 
Q 1219 1581 811 2004 
Q 403 2428 403 3163 
Q 403 3881 828 4315 
Q 1253 4750 1959 4750 
Q 2769 4750 3195 4129 
Q 3622 3509 3622 2328 
Q 3622 1225 3098 567 
Q 2575 -91 1691 -91 
Q 1453 -91 1209 -44 
Q 966 3 703 97 
z
M 1959 2075 
Q 2384 2075 2632 2365 
Q 2881 2656 2881 3163 
Q 2881 3666 2632 3958 
Q 2384 4250 1959 4250 
Q 1534 4250 1286 3958 
Q 1038 3666 1038 3163 
Q 1038 2656 1286 2365 
Q 1534 2075 1959 2075 
z
" transform="scale(0.015625)"/>
      <path id="DejaVuSans-38" d="M 2034 2216 
Q 1584 2216 1326 1975 
Q 1069 1734 1069 1313 
Q 1069 891 1326 650 
Q 1584 409 2034 409 
Q 2484 409 2743 651 
Q 3003 894 3003 1313 
Q 3003 1734 2745 1975 
Q 2488 2216 2034 2216 
z
M 1403 2484 
Q 997 2584 770 2862 
Q 544 3141 544 3541 
Q 544 4100 942 4425 
Q 1341 4750 2034 4750 
Q 2731 4750 3128 4425 
Q 3525 4100 3525 3541 
Q 3525 3141 3298 2862 
Q 3072 2584 2669 2484 
Q 3125 2378 3379 2068 
Q 3634 1759 3634 1313 
Q 3634 634 3220 271 
Q 2806 -91 2034 -91 
Q 1263 -91 848 271 
Q 434 634 434 1313 
Q 434 1759 690 2068 
Q 947 2378 1403 2484 
z
M 1172 3481 
Q 1172 3119 1398 2916 
Q 1625 2713 2034 2713 
Q 2441 2713 2670 2916 
Q 2900 3119 2900 3481 
Q 2900 3844 2670 4047 
Q 2441 4250 2034 4250 
Q 1625 4250 1398 4047 
Q 1172 3844 1172 3481 
z
" transform="scale(0.015625)"/>
      <path id="DejaVuSans-37" d="M 525 4666 
L 3525 4666 
L 3525 4397 
L 1831 0 
L 1172 0 
L 2766 4134 
L 525 4134 
L 525 4666 
z
" transform="scale(0.015625)"/>
      <path id="DejaVuSans-36" d="M 2113 2584 
Q 1688 2584 1439 2293 
Q 1191 2003 1191 1497 
Q 1191 994 1439 701 
Q 1688 409 2113 409 
Q 2538 409 2786 701 
Q 3034 994 3034 1497 
Q 3034 2003 2786 2293 
Q 2538 2584 2113 2584 
z
M 3366 4563 
L 3366 3988 
Q 3128 4100 2886 4159 
Q 2644 4219 2406 4219 
Q 1781 4219 1451 3797 
Q 1122 3375 1075 2522 
Q 1259 2794 1537 2939 
Q 1816 3084 2150 3084 
Q 2853 3084 3261 2657 
Q 3669 2231 3669 1497 
Q 3669 778 3244 343 
Q 2819 -91 2113 -91 
Q 1303 -91 875 529 
Q 447 1150 447 2328 
Q 447 3434 972 4092 
Q 1497 4750 2381 4750 
Q 2619 4750 2861 4703 
Q 3103 4656 3366 4563 
z
" transform="scale(0.015625)"/>
     </defs>
     <use xlink:href="#DejaVuSans-70"/>
     <use xlink:href="#DejaVuSans-3d" x="63.476562"/>
     <use xlink:href="#DejaVuSans-30" x="147.265625"/>
     <use xlink:href="#DejaVuSans-2e" x="210.888672"/>
     <use xlink:href="#DejaVuSans-30" x="242.675781"/>
     <use xlink:href="#DejaVuSans-34" x="306.298828"/>
     <use xlink:href="#DejaVuSans-39" x="369.921875"/>
     <use xlink:href="#DejaVuSans-38" x="433.544922"/>
     <use xlink:href="#DejaVuSans-32" x="497.167969"/>
     <use xlink:href="#DejaVuSans-34" x="560.791016"/>
     <use xlink:href="#DejaVuSans-37" x="624.414062"/>
     <use xlink:href="#DejaVuSans-38" x="688.037109"/>
     <use xlink:href="#DejaVuSans-36" x="751.660156"/>
     <use xlink:href="#DejaVuSans-30" x="815.283203"/>
     <use xlink:href="#DejaVuSans-36" x="878.90625"/>
     <use xlink:href="#DejaVuSans-32" x="942.529297"/>
     <use xlink:href="#DejaVuSans-31" x="1006.152344"/>
     <use xlink:href="#DejaVuSans-30" x="1069.775391"/>
     <use xlink:href="#DejaVuSans-36" x="1133.398438"/>
     <use xlink:href="#DejaVuSans-31" x="1197.021484"/>
     <use xlink:href="#DejaVuSans-32" x="1260.644531"/>
    </g>
   </g>
   <g id="text_13">
    <!-- 4 -->
    <g style="fill: #262626" transform="translate(189.160594 -546.836022) scale(0.1 -0.1)">
     <use xlink:href="#DejaVuSans-34"/>
    </g>
   </g>
   <g id="text_14">
    <!-- 43 -->
    <g style="fill: #262626" transform="translate(324.410656 -546.836022) scale(0.1 -0.1)">
     <use xlink:href="#DejaVuSans-34"/>
     <use xlink:href="#DejaVuSans-33" x="63.623047"/>
    </g>
   </g>
   <g id="text_15">
    <!-- p=2.3157640430259273e-09 -->
    <g style="fill: #262626" transform="translate(264.988781 149.471732) scale(0.08 -0.08)">
     <defs>
      <path id="DejaVuSans-2d" d="M 313 2009 
L 1997 2009 
L 1997 1497 
L 313 1497 
L 313 2009 
z
" transform="scale(0.015625)"/>
     </defs>
     <use xlink:href="#DejaVuSans-70"/>
     <use xlink:href="#DejaVuSans-3d" x="63.476562"/>
     <use xlink:href="#DejaVuSans-32" x="147.265625"/>
     <use xlink:href="#DejaVuSans-2e" x="210.888672"/>
     <use xlink:href="#DejaVuSans-33" x="242.675781"/>
     <use xlink:href="#DejaVuSans-31" x="306.298828"/>
     <use xlink:href="#DejaVuSans-35" x="369.921875"/>
     <use xlink:href="#DejaVuSans-37" x="433.544922"/>
     <use xlink:href="#DejaVuSans-36" x="497.167969"/>
     <use xlink:href="#DejaVuSans-34" x="560.791016"/>
     <use xlink:href="#DejaVuSans-30" x="624.414062"/>
     <use xlink:href="#DejaVuSans-34" x="688.037109"/>
     <use xlink:href="#DejaVuSans-33" x="751.660156"/>
     <use xlink:href="#DejaVuSans-30" x="815.283203"/>
     <use xlink:href="#DejaVuSans-32" x="878.90625"/>
     <use xlink:href="#DejaVuSans-35" x="942.529297"/>
     <use xlink:href="#DejaVuSans-39" x="1006.152344"/>
     <use xlink:href="#DejaVuSans-32" x="1069.775391"/>
     <use xlink:href="#DejaVuSans-37" x="1133.398438"/>
     <use xlink:href="#DejaVuSans-33" x="1197.021484"/>
     <use xlink:href="#DejaVuSans-65" x="1260.644531"/>
     <use xlink:href="#DejaVuSans-2d" x="1322.167969"/>
     <use xlink:href="#DejaVuSans-30" x="1358.251953"/>
     <use xlink:href="#DejaVuSans-39" x="1421.875"/>
    </g>
   </g>
   <g id="text_16">
    <!-- 28 -->
    <g style="fill: #262626" transform="translate(382.374969 -546.836022) scale(0.1 -0.1)">
     <use xlink:href="#DejaVuSans-32"/>
     <use xlink:href="#DejaVuSans-38" x="63.623047"/>
    </g>
   </g>
   <g id="legend_1">
    <g id="patch_13">
     <path d="M 377.728125 27.398438 
L 397.728125 27.398438 
L 397.728125 20.398438 
L 377.728125 20.398438 
z
" style="fill: #ecf2ec; stroke: #262626; stroke-width: 0.75; stroke-linejoin: miter"/>
    </g>
    <g id="text_17">
     <!-- Mutant -->
     <g style="fill: #262626" transform="translate(405.728125 27.398438) scale(0.1 -0.1)">
      <defs>
       <path id="DejaVuSans-4d" d="M 628 4666 
L 1569 4666 
L 2759 1491 
L 3956 4666 
L 4897 4666 
L 4897 0 
L 4281 0 
L 4281 4097 
L 3078 897 
L 2444 897 
L 1241 4097 
L 1241 0 
L 628 0 
L 628 4666 
z
" transform="scale(0.015625)"/>
       <path id="DejaVuSans-61" d="M 2194 1759 
Q 1497 1759 1228 1600 
Q 959 1441 959 1056 
Q 959 750 1161 570 
Q 1363 391 1709 391 
Q 2188 391 2477 730 
Q 2766 1069 2766 1631 
L 2766 1759 
L 2194 1759 
z
M 3341 1997 
L 3341 0 
L 2766 0 
L 2766 531 
Q 2569 213 2275 61 
Q 1981 -91 1556 -91 
Q 1019 -91 701 211 
Q 384 513 384 1019 
Q 384 1609 779 1909 
Q 1175 2209 1959 2209 
L 2766 2209 
L 2766 2266 
Q 2766 2663 2505 2880 
Q 2244 3097 1772 3097 
Q 1472 3097 1187 3025 
Q 903 2953 641 2809 
L 641 3341 
Q 956 3463 1253 3523 
Q 1550 3584 1831 3584 
Q 2591 3584 2966 3190 
Q 3341 2797 3341 1997 
z
" transform="scale(0.015625)"/>
      </defs>
      <use xlink:href="#DejaVuSans-4d"/>
      <use xlink:href="#DejaVuSans-75" x="86.279297"/>
      <use xlink:href="#DejaVuSans-74" x="149.658203"/>
      <use xlink:href="#DejaVuSans-61" x="188.867188"/>
      <use xlink:href="#DejaVuSans-6e" x="250.146484"/>
      <use xlink:href="#DejaVuSans-74" x="313.525391"/>
     </g>
    </g>
    <g id="patch_14">
     <path d="M 377.728125 42.076563 
L 397.728125 42.076563 
L 397.728125 35.076563 
L 377.728125 35.076563 
z
" style="fill: #107010; stroke: #262626; stroke-width: 0.75; stroke-linejoin: miter"/>
    </g>
    <g id="text_18">
     <!-- WT -->
     <g style="fill: #262626" transform="translate(405.728125 42.076563) scale(0.1 -0.1)">
      <defs>
       <path id="DejaVuSans-57" d="M 213 4666 
L 850 4666 
L 1831 722 
L 2809 4666 
L 3519 4666 
L 4500 722 
L 5478 4666 
L 6119 4666 
L 4947 0 
L 4153 0 
L 3169 4050 
L 2175 0 
L 1381 0 
L 213 4666 
z
" transform="scale(0.015625)"/>
       <path id="DejaVuSans-54" d="M -19 4666 
L 3928 4666 
L 3928 4134 
L 2272 4134 
L 2272 0 
L 1638 0 
L 1638 4134 
L -19 4134 
L -19 4666 
z
" transform="scale(0.015625)"/>
      </defs>
      <use xlink:href="#DejaVuSans-57"/>
      <use xlink:href="#DejaVuSans-54" x="98.876953"/>
     </g>
    </g>
   </g>
  </g>
 </g>
 <defs>
  <clipPath id="pc13040eeb6">
   <rect x="63.57125" y="10.8" width="386.42875" height="292.84"/>
  </clipPath>
 </defs>
</svg>
