<?xml version="1.0" encoding="utf-8" standalone="no"?>
<!DOCTYPE svg PUBLIC "-//W3C//DTD SVG 1.1//EN"
  "http://www.w3.org/Graphics/SVG/1.1/DTD/svg11.dtd">
<svg xmlns:xlink="http://www.w3.org/1999/xlink" width="460.8pt" height="345.6pt" viewBox="0 0 460.8 345.6" xmlns="http://www.w3.org/2000/svg" version="1.1">
 <metadata>
  <rdf:RDF xmlns:dc="http://purl.org/dc/elements/1.1/" xmlns:cc="http://creativecommons.org/ns#" xmlns:rdf="http://www.w3.org/1999/02/22-rdf-syntax-ns#">
   <cc:Work>
    <dc:type rdf:resource="http://purl.org/dc/dcmitype/StillImage"/>
    <dc:date>2024-02-20T13:05:20.792672</dc:date>
    <dc:format>image/svg+xml</dc:format>
    <dc:creator>
     <cc:Agent>
      <dc:title>Matplotlib v3.7.1, https://matplotlib.org/</dc:title>
     </cc:Agent>
    </dc:creator>
   </cc:Work>
  </rdf:RDF>
 </metadata>
 <defs>
  <style type="text/css">*{stroke-linejoin: round; stroke-linecap: butt}</style>
 </defs>
 <g id="figure_1">
  <g id="patch_1">
   <path d="M 0 345.6 
L 460.8 345.6 
L 460.8 0 
L 0 0 
z
" style="fill: #ffffff"/>
  </g>
  <g id="axes_1">
   <g id="patch_2">
    <path d="M 47.72 303.64 
L 450 303.64 
L 450 238.853301 
L 47.72 238.853301 
z
" style="fill: #ffffff"/>
   </g>
   <g id="matplotlib.axis_1">
    <g id="xtick_1">
     <g id="text_1">
      <!-- I -->
      <g style="fill: #262626" transform="translate(247.385 318.238437) scale(0.1 -0.1)">
       <defs>
        <path id="DejaVuSans-49" d="M 628 4666 
L 1259 4666 
L 1259 0 
L 628 0 
L 628 4666 
z
" transform="scale(0.015625)"/>
       </defs>
       <use xlink:href="#DejaVuSans-49"/>
      </g>
     </g>
    </g>
    <g id="text_2">
     <!-- mut_AA -->
     <g style="fill: #262626" transform="translate(229.382656 331.638437) scale(0.1 -0.1)">
      <defs>
       <path id="DejaVuSans-6d" d="M 3328 2828 
Q 3544 3216 3844 3400 
Q 4144 3584 4550 3584 
Q 5097 3584 5394 3201 
Q 5691 2819 5691 2113 
L 5691 0 
L 5113 0 
L 5113 2094 
Q 5113 2597 4934 2840 
Q 4756 3084 4391 3084 
Q 3944 3084 3684 2787 
Q 3425 2491 3425 1978 
L 3425 0 
L 2847 0 
L 2847 2094 
Q 2847 2600 2669 2842 
Q 2491 3084 2119 3084 
Q 1678 3084 1418 2786 
Q 1159 2488 1159 1978 
L 1159 0 
L 581 0 
L 581 3500 
L 1159 3500 
L 1159 2956 
Q 1356 3278 1631 3431 
Q 1906 3584 2284 3584 
Q 2666 3584 2933 3390 
Q 3200 3197 3328 2828 
z
" transform="scale(0.015625)"/>
       <path id="DejaVuSans-75" d="M 544 1381 
L 544 3500 
L 1119 3500 
L 1119 1403 
Q 1119 906 1312 657 
Q 1506 409 1894 409 
Q 2359 409 2629 706 
Q 2900 1003 2900 1516 
L 2900 3500 
L 3475 3500 
L 3475 0 
L 2900 0 
L 2900 538 
Q 2691 219 2414 64 
Q 2138 -91 1772 -91 
Q 1169 -91 856 284 
Q 544 659 544 1381 
z
M 1991 3584 
L 1991 3584 
z
" transform="scale(0.015625)"/>
       <path id="DejaVuSans-74" d="M 1172 4494 
L 1172 3500 
L 2356 3500 
L 2356 3053 
L 1172 3053 
L 1172 1153 
Q 1172 725 1289 603 
Q 1406 481 1766 481 
L 2356 481 
L 2356 0 
L 1766 0 
Q 1100 0 847 248 
Q 594 497 594 1153 
L 594 3053 
L 172 3053 
L 172 3500 
L 594 3500 
L 594 4494 
L 1172 4494 
z
" transform="scale(0.015625)"/>
       <path id="DejaVuSans-5f" d="M 3263 -1063 
L 3263 -1509 
L -63 -1509 
L -63 -1063 
L 3263 -1063 
z
" transform="scale(0.015625)"/>
       <path id="DejaVuSans-41" d="M 2188 4044 
L 1331 1722 
L 3047 1722 
L 2188 4044 
z
M 1831 4666 
L 2547 4666 
L 4325 0 
L 3669 0 
L 3244 1197 
L 1141 1197 
L 716 0 
L 50 0 
L 1831 4666 
z
" transform="scale(0.015625)"/>
      </defs>
      <use xlink:href="#DejaVuSans-6d"/>
      <use xlink:href="#DejaVuSans-75" x="97.412109"/>
      <use xlink:href="#DejaVuSans-74" x="160.791016"/>
      <use xlink:href="#DejaVuSans-5f" x="200"/>
      <use xlink:href="#DejaVuSans-41" x="250"/>
      <use xlink:href="#DejaVuSans-41" x="321.158203"/>
     </g>
    </g>
   </g>
   <g id="matplotlib.axis_2">
    <g id="ytick_1">
     <g id="line2d_1">
      <path d="M 47.72 303.64 
L 450 303.64 
" clip-path="url(#p89e834289d)" style="fill: none; stroke: #cccccc; stroke-width: 0.8; stroke-linecap: round"/>
     </g>
     <g id="text_3">
      <!-- 0.0 -->
      <g style="fill: #262626" transform="translate(24.816875 307.439219) scale(0.1 -0.1)">
       <defs>
        <path id="DejaVuSans-30" d="M 2034 4250 
Q 1547 4250 1301 3770 
Q 1056 3291 1056 2328 
Q 1056 1369 1301 889 
Q 1547 409 2034 409 
Q 2525 409 2770 889 
Q 3016 1369 3016 2328 
Q 3016 3291 2770 3770 
Q 2525 4250 2034 4250 
z
M 2034 4750 
Q 2819 4750 3233 4129 
Q 3647 3509 3647 2328 
Q 3647 1150 3233 529 
Q 2819 -91 2034 -91 
Q 1250 -91 836 529 
Q 422 1150 422 2328 
Q 422 3509 836 4129 
Q 1250 4750 2034 4750 
z
" transform="scale(0.015625)"/>
        <path id="DejaVuSans-2e" d="M 684 794 
L 1344 794 
L 1344 0 
L 684 0 
L 684 794 
z
" transform="scale(0.015625)"/>
       </defs>
       <use xlink:href="#DejaVuSans-30"/>
       <use xlink:href="#DejaVuSans-2e" x="63.623047"/>
       <use xlink:href="#DejaVuSans-30" x="95.410156"/>
      </g>
     </g>
    </g>
    <g id="ytick_2">
     <g id="line2d_2">
      <path d="M 47.72 269.249675 
L 450 269.249675 
" clip-path="url(#p89e834289d)" style="fill: none; stroke: #cccccc; stroke-width: 0.8; stroke-linecap: round"/>
     </g>
     <g id="text_4">
      <!-- 0.5 -->
      <g style="fill: #262626" transform="translate(24.816875 273.048894) scale(0.1 -0.1)">
       <defs>
        <path id="DejaVuSans-35" d="M 691 4666 
L 3169 4666 
L 3169 4134 
L 1269 4134 
L 1269 2991 
Q 1406 3038 1543 3061 
Q 1681 3084 1819 3084 
Q 2600 3084 3056 2656 
Q 3513 2228 3513 1497 
Q 3513 744 3044 326 
Q 2575 -91 1722 -91 
Q 1428 -91 1123 -41 
Q 819 9 494 109 
L 494 744 
Q 775 591 1075 516 
Q 1375 441 1709 441 
Q 2250 441 2565 725 
Q 2881 1009 2881 1497 
Q 2881 1984 2565 2268 
Q 2250 2553 1709 2553 
Q 1456 2553 1204 2497 
Q 953 2441 691 2322 
L 691 4666 
z
" transform="scale(0.015625)"/>
       </defs>
       <use xlink:href="#DejaVuSans-30"/>
       <use xlink:href="#DejaVuSans-2e" x="63.623047"/>
       <use xlink:href="#DejaVuSans-35" x="95.410156"/>
      </g>
     </g>
    </g>
    <g id="text_5">
     <!-- PercentGpA -->
     <g style="fill: #262626" transform="translate(18.737188 300.523213) rotate(-90) scale(0.1 -0.1)">
      <defs>
       <path id="DejaVuSans-50" d="M 1259 4147 
L 1259 2394 
L 2053 2394 
Q 2494 2394 2734 2622 
Q 2975 2850 2975 3272 
Q 2975 3691 2734 3919 
Q 2494 4147 2053 4147 
L 1259 4147 
z
M 628 4666 
L 2053 4666 
Q 2838 4666 3239 4311 
Q 3641 3956 3641 3272 
Q 3641 2581 3239 2228 
Q 2838 1875 2053 1875 
L 1259 1875 
L 1259 0 
L 628 0 
L 628 4666 
z
" transform="scale(0.015625)"/>
       <path id="DejaVuSans-65" d="M 3597 1894 
L 3597 1613 
L 953 1613 
Q 991 1019 1311 708 
Q 1631 397 2203 397 
Q 2534 397 2845 478 
Q 3156 559 3463 722 
L 3463 178 
Q 3153 47 2828 -22 
Q 2503 -91 2169 -91 
Q 1331 -91 842 396 
Q 353 884 353 1716 
Q 353 2575 817 3079 
Q 1281 3584 2069 3584 
Q 2775 3584 3186 3129 
Q 3597 2675 3597 1894 
z
M 3022 2063 
Q 3016 2534 2758 2815 
Q 2500 3097 2075 3097 
Q 1594 3097 1305 2825 
Q 1016 2553 972 2059 
L 3022 2063 
z
" transform="scale(0.015625)"/>
       <path id="DejaVuSans-72" d="M 2631 2963 
Q 2534 3019 2420 3045 
Q 2306 3072 2169 3072 
Q 1681 3072 1420 2755 
Q 1159 2438 1159 1844 
L 1159 0 
L 581 0 
L 581 3500 
L 1159 3500 
L 1159 2956 
Q 1341 3275 1631 3429 
Q 1922 3584 2338 3584 
Q 2397 3584 2469 3576 
Q 2541 3569 2628 3553 
L 2631 2963 
z
" transform="scale(0.015625)"/>
       <path id="DejaVuSans-63" d="M 3122 3366 
L 3122 2828 
Q 2878 2963 2633 3030 
Q 2388 3097 2138 3097 
Q 1578 3097 1268 2742 
Q 959 2388 959 1747 
Q 959 1106 1268 751 
Q 1578 397 2138 397 
Q 2388 397 2633 464 
Q 2878 531 3122 666 
L 3122 134 
Q 2881 22 2623 -34 
Q 2366 -91 2075 -91 
Q 1284 -91 818 406 
Q 353 903 353 1747 
Q 353 2603 823 3093 
Q 1294 3584 2113 3584 
Q 2378 3584 2631 3529 
Q 2884 3475 3122 3366 
z
" transform="scale(0.015625)"/>
       <path id="DejaVuSans-6e" d="M 3513 2113 
L 3513 0 
L 2938 0 
L 2938 2094 
Q 2938 2591 2744 2837 
Q 2550 3084 2163 3084 
Q 1697 3084 1428 2787 
Q 1159 2491 1159 1978 
L 1159 0 
L 581 0 
L 581 3500 
L 1159 3500 
L 1159 2956 
Q 1366 3272 1645 3428 
Q 1925 3584 2291 3584 
Q 2894 3584 3203 3211 
Q 3513 2838 3513 2113 
z
" transform="scale(0.015625)"/>
       <path id="DejaVuSans-47" d="M 3809 666 
L 3809 1919 
L 2778 1919 
L 2778 2438 
L 4434 2438 
L 4434 434 
Q 4069 175 3628 42 
Q 3188 -91 2688 -91 
Q 1594 -91 976 548 
Q 359 1188 359 2328 
Q 359 3472 976 4111 
Q 1594 4750 2688 4750 
Q 3144 4750 3555 4637 
Q 3966 4525 4313 4306 
L 4313 3634 
Q 3963 3931 3569 4081 
Q 3175 4231 2741 4231 
Q 1884 4231 1454 3753 
Q 1025 3275 1025 2328 
Q 1025 1384 1454 906 
Q 1884 428 2741 428 
Q 3075 428 3337 486 
Q 3600 544 3809 666 
z
" transform="scale(0.015625)"/>
       <path id="DejaVuSans-70" d="M 1159 525 
L 1159 -1331 
L 581 -1331 
L 581 3500 
L 1159 3500 
L 1159 2969 
Q 1341 3281 1617 3432 
Q 1894 3584 2278 3584 
Q 2916 3584 3314 3078 
Q 3713 2572 3713 1747 
Q 3713 922 3314 415 
Q 2916 -91 2278 -91 
Q 1894 -91 1617 61 
Q 1341 213 1159 525 
z
M 3116 1747 
Q 3116 2381 2855 2742 
Q 2594 3103 2138 3103 
Q 1681 3103 1420 2742 
Q 1159 2381 1159 1747 
Q 1159 1113 1420 752 
Q 1681 391 2138 391 
Q 2594 391 2855 752 
Q 3116 1113 3116 1747 
z
" transform="scale(0.015625)"/>
      </defs>
      <use xlink:href="#DejaVuSans-50"/>
      <use xlink:href="#DejaVuSans-65" x="56.677734"/>
      <use xlink:href="#DejaVuSans-72" x="118.201172"/>
      <use xlink:href="#DejaVuSans-63" x="157.064453"/>
      <use xlink:href="#DejaVuSans-65" x="212.044922"/>
      <use xlink:href="#DejaVuSans-6e" x="273.568359"/>
      <use xlink:href="#DejaVuSans-74" x="336.947266"/>
      <use xlink:href="#DejaVuSans-47" x="376.15625"/>
      <use xlink:href="#DejaVuSans-70" x="453.646484"/>
      <use xlink:href="#DejaVuSans-41" x="517.123047"/>
     </g>
    </g>
   </g>
   <g id="patch_3">
    <path d="M 89.55712 287.431046 
L 247.25088 287.431046 
L 247.25088 276.65854 
L 89.55712 276.65854 
L 89.55712 287.431046 
z
" clip-path="url(#p89e834289d)" style="fill: #ecf2ec; stroke: #262626; stroke-width: 1.5; stroke-linejoin: miter"/>
   </g>
   <g id="patch_4">
    <path d="M 250.46912 284.844074 
L 408.16288 284.844074 
L 408.16288 267.928055 
L 250.46912 267.928055 
L 250.46912 284.844074 
z
" clip-path="url(#p89e834289d)" style="fill: #107010; stroke: #262626; stroke-width: 1.5; stroke-linejoin: miter"/>
   </g>
   <g id="patch_5">
    <path d="M 248.86 303.64 
L 248.86 303.64 
L 248.86 303.64 
L 248.86 303.64 
z
" clip-path="url(#p89e834289d)" style="fill: #ecf2ec; stroke: #262626; stroke-width: 0.75; stroke-linejoin: miter"/>
   </g>
   <g id="patch_6">
    <path d="M 248.86 303.64 
L 248.86 303.64 
L 248.86 303.64 
L 248.86 303.64 
z
" clip-path="url(#p89e834289d)" style="fill: #107010; stroke: #262626; stroke-width: 0.75; stroke-linejoin: miter"/>
   </g>
   <g id="PathCollection_1"/>
   <g id="PathCollection_2"/>
   <g id="line2d_3">
    <path d="M 168.404 287.431046 
L 168.404 296.588704 
" clip-path="url(#p89e834289d)" style="fill: none; stroke: #262626; stroke-width: 1.5; stroke-linecap: round"/>
   </g>
   <g id="line2d_4">
    <path d="M 168.404 276.65854 
L 168.404 262.071871 
" clip-path="url(#p89e834289d)" style="fill: none; stroke: #262626; stroke-width: 1.5; stroke-linecap: round"/>
   </g>
   <g id="line2d_5">
    <path d="M 128.98056 296.588704 
L 207.82744 296.588704 
" clip-path="url(#p89e834289d)" style="fill: none; stroke: #262626; stroke-width: 1.5; stroke-linecap: round"/>
   </g>
   <g id="line2d_6">
    <path d="M 128.98056 262.071871 
L 207.82744 262.071871 
" clip-path="url(#p89e834289d)" style="fill: none; stroke: #262626; stroke-width: 1.5; stroke-linecap: round"/>
   </g>
   <g id="line2d_7">
    <defs>
     <path id="m5fdcb15a9f" d="M -0 1.414214 
L 0.848528 0 
L 0 -1.414214 
L -0.848528 -0 
z
" style="stroke: #262626; stroke-linejoin: miter"/>
    </defs>
    <g clip-path="url(#p89e834289d)">
     <use xlink:href="#m5fdcb15a9f" x="168.404" y="256.551632" style="fill: #262626; stroke: #262626; stroke-linejoin: miter"/>
     <use xlink:href="#m5fdcb15a9f" x="168.404" y="255.693776" style="fill: #262626; stroke: #262626; stroke-linejoin: miter"/>
     <use xlink:href="#m5fdcb15a9f" x="168.404" y="256.681687" style="fill: #262626; stroke: #262626; stroke-linejoin: miter"/>
     <use xlink:href="#m5fdcb15a9f" x="168.404" y="258.260841" style="fill: #262626; stroke: #262626; stroke-linejoin: miter"/>
     <use xlink:href="#m5fdcb15a9f" x="168.404" y="255.084578" style="fill: #262626; stroke: #262626; stroke-linejoin: miter"/>
     <use xlink:href="#m5fdcb15a9f" x="168.404" y="244.743001" style="fill: #262626; stroke: #262626; stroke-linejoin: miter"/>
     <use xlink:href="#m5fdcb15a9f" x="168.404" y="257.723162" style="fill: #262626; stroke: #262626; stroke-linejoin: miter"/>
     <use xlink:href="#m5fdcb15a9f" x="168.404" y="259.790463" style="fill: #262626; stroke: #262626; stroke-linejoin: miter"/>
    </g>
   </g>
   <g id="line2d_8">
    <path d="M 329.316 284.844074 
L 329.316 293.539254 
" clip-path="url(#p89e834289d)" style="fill: none; stroke: #262626; stroke-width: 1.5; stroke-linecap: round"/>
   </g>
   <g id="line2d_9">
    <path d="M 329.316 267.928055 
L 329.316 248.443076 
" clip-path="url(#p89e834289d)" style="fill: none; stroke: #262626; stroke-width: 1.5; stroke-linecap: round"/>
   </g>
   <g id="line2d_10">
    <path d="M 289.89256 293.539254 
L 368.73944 293.539254 
" clip-path="url(#p89e834289d)" style="fill: none; stroke: #262626; stroke-width: 1.5; stroke-linecap: round"/>
   </g>
   <g id="line2d_11">
    <path d="M 289.89256 248.443076 
L 368.73944 248.443076 
" clip-path="url(#p89e834289d)" style="fill: none; stroke: #262626; stroke-width: 1.5; stroke-linecap: round"/>
   </g>
   <g id="line2d_12"/>
   <g id="line2d_13">
    <path d="M 89.55712 282.838627 
L 247.25088 282.838627 
" clip-path="url(#p89e834289d)" style="fill: none; stroke: #262626; stroke-width: 1.5; stroke-linecap: round"/>
   </g>
   <g id="line2d_14">
    <path d="M 250.46912 276.371458 
L 408.16288 276.371458 
" clip-path="url(#p89e834289d)" style="fill: none; stroke: #262626; stroke-width: 1.5; stroke-linecap: round"/>
   </g>
   <g id="patch_7">
    <path d="M 47.72 303.64 
L 47.72 238.853301 
" style="fill: none; stroke: #cccccc; stroke-width: 0.8; stroke-linejoin: miter; stroke-linecap: square"/>
   </g>
   <g id="patch_8">
    <path d="M 450 303.64 
L 450 238.853301 
" style="fill: none; stroke: #cccccc; stroke-width: 0.8; stroke-linejoin: miter; stroke-linecap: square"/>
   </g>
   <g id="patch_9">
    <path d="M 47.72 303.64 
L 450 303.64 
" style="fill: none; stroke: #cccccc; stroke-width: 0.8; stroke-linejoin: miter; stroke-linecap: square"/>
   </g>
   <g id="patch_10">
    <path d="M 47.72 238.853301 
L 450 238.853301 
" style="fill: none; stroke: #cccccc; stroke-width: 0.8; stroke-linejoin: miter; stroke-linecap: square"/>
   </g>
   <g id="PathCollection_3">
    <defs>
     <path id="C0_0_ccef75833d" d="M 0 1 
C 0.265203 1 0.51958 0.894634 0.707107 0.707107 
C 0.894634 0.51958 1 0.265203 1 -0 
C 1 -0.265203 0.894634 -0.51958 0.707107 -0.707107 
C 0.51958 -0.894634 0.265203 -1 0 -1 
C -0.265203 -1 -0.51958 -0.894634 -0.707107 -0.707107 
C -0.894634 -0.51958 -1 -0.265203 -1 0 
C -1 0.265203 -0.894634 0.51958 -0.707107 0.707107 
C -0.51958 0.894634 -0.265203 1 0 1 
z
"/>
    </defs>
    <g clip-path="url(#p89e834289d)">
     <use xlink:href="#C0_0_ccef75833d" x="149.401973" y="286.019876" style="fill: #262626"/>
    </g>
    <g clip-path="url(#p89e834289d)">
     <use xlink:href="#C0_0_ccef75833d" x="148.776549" y="275.193193" style="fill: #262626"/>
    </g>
    <g clip-path="url(#p89e834289d)">
     <use xlink:href="#C0_0_ccef75833d" x="170.040914" y="286.248702" style="fill: #262626"/>
    </g>
    <g clip-path="url(#p89e834289d)">
     <use xlink:href="#C0_0_ccef75833d" x="167.495165" y="289.755558" style="fill: #262626"/>
    </g>
    <g clip-path="url(#p89e834289d)">
     <use xlink:href="#C0_0_ccef75833d" x="170.113669" y="291.897408" style="fill: #262626"/>
    </g>
    <g clip-path="url(#p89e834289d)">
     <use xlink:href="#C0_0_ccef75833d" x="157.808681" y="265.613327" style="fill: #262626"/>
    </g>
    <g clip-path="url(#p89e834289d)">
     <use xlink:href="#C0_0_ccef75833d" x="172.755502" y="282.247395" style="fill: #262626"/>
    </g>
    <g clip-path="url(#p89e834289d)">
     <use xlink:href="#C0_0_ccef75833d" x="152.392523" y="293.249556" style="fill: #262626"/>
    </g>
    <g clip-path="url(#p89e834289d)">
     <use xlink:href="#C0_0_ccef75833d" x="151.591446" y="278.829088" style="fill: #262626"/>
    </g>
    <g clip-path="url(#p89e834289d)">
     <use xlink:href="#C0_0_ccef75833d" x="154.853729" y="270.40019" style="fill: #262626"/>
    </g>
    <g clip-path="url(#p89e834289d)">
     <use xlink:href="#C0_0_ccef75833d" x="175.825128" y="289.303561" style="fill: #262626"/>
    </g>
    <g clip-path="url(#p89e834289d)">
     <use xlink:href="#C0_0_ccef75833d" x="186.184277" y="285.755631" style="fill: #262626"/>
    </g>
    <g clip-path="url(#p89e834289d)">
     <use xlink:href="#C0_0_ccef75833d" x="158.428089" y="285.050927" style="fill: #262626"/>
    </g>
    <g clip-path="url(#p89e834289d)">
     <use xlink:href="#C0_0_ccef75833d" x="154.827621" y="272.422505" style="fill: #262626"/>
    </g>
    <g clip-path="url(#p89e834289d)">
     <use xlink:href="#C0_0_ccef75833d" x="152.520386" y="286.099553" style="fill: #262626"/>
    </g>
    <g clip-path="url(#p89e834289d)">
     <use xlink:href="#C0_0_ccef75833d" x="177.767472" y="268.997156" style="fill: #262626"/>
    </g>
    <g clip-path="url(#p89e834289d)">
     <use xlink:href="#C0_0_ccef75833d" x="155.085019" y="294.019924" style="fill: #262626"/>
    </g>
    <g clip-path="url(#p89e834289d)">
     <use xlink:href="#C0_0_ccef75833d" x="153.332311" y="288.048711" style="fill: #262626"/>
    </g>
    <g clip-path="url(#p89e834289d)">
     <use xlink:href="#C0_0_ccef75833d" x="155.384318" y="282.961613" style="fill: #262626"/>
    </g>
    <g clip-path="url(#p89e834289d)">
     <use xlink:href="#C0_0_ccef75833d" x="152.455833" y="285.18653" style="fill: #262626"/>
    </g>
    <g clip-path="url(#p89e834289d)">
     <use xlink:href="#C0_0_ccef75833d" x="165.324787" y="285.712886" style="fill: #262626"/>
    </g>
    <g clip-path="url(#p89e834289d)">
     <use xlink:href="#C0_0_ccef75833d" x="158.927574" y="287.304175" style="fill: #262626"/>
    </g>
    <g clip-path="url(#p89e834289d)">
     <use xlink:href="#C0_0_ccef75833d" x="187.485977" y="292.689991" style="fill: #262626"/>
    </g>
    <g clip-path="url(#p89e834289d)">
     <use xlink:href="#C0_0_ccef75833d" x="148.83429" y="290.31537" style="fill: #262626"/>
    </g>
    <g clip-path="url(#p89e834289d)">
     <use xlink:href="#C0_0_ccef75833d" x="159.451409" y="286.53289" style="fill: #262626"/>
    </g>
    <g clip-path="url(#p89e834289d)">
     <use xlink:href="#C0_0_ccef75833d" x="158.11352" y="284.737075" style="fill: #262626"/>
    </g>
    <g clip-path="url(#p89e834289d)">
     <use xlink:href="#C0_0_ccef75833d" x="159.232856" y="270.743546" style="fill: #262626"/>
    </g>
    <g clip-path="url(#p89e834289d)">
     <use xlink:href="#C0_0_ccef75833d" x="149.448278" y="284.521294" style="fill: #262626"/>
    </g>
    <g clip-path="url(#p89e834289d)">
     <use xlink:href="#C0_0_ccef75833d" x="181.59111" y="284.349225" style="fill: #262626"/>
    </g>
    <g clip-path="url(#p89e834289d)">
     <use xlink:href="#C0_0_ccef75833d" x="170.781562" y="282.41985" style="fill: #262626"/>
    </g>
    <g clip-path="url(#p89e834289d)">
     <use xlink:href="#C0_0_ccef75833d" x="183.791353" y="285.276115" style="fill: #262626"/>
    </g>
    <g clip-path="url(#p89e834289d)">
     <use xlink:href="#C0_0_ccef75833d" x="156.071292" y="292.155173" style="fill: #262626"/>
    </g>
    <g clip-path="url(#p89e834289d)">
     <use xlink:href="#C0_0_ccef75833d" x="151.999378" y="287.82319" style="fill: #262626"/>
    </g>
    <g clip-path="url(#p89e834289d)">
     <use xlink:href="#C0_0_ccef75833d" x="178.523943" y="279.523558" style="fill: #262626"/>
    </g>
    <g clip-path="url(#p89e834289d)">
     <use xlink:href="#C0_0_ccef75833d" x="161.214267" y="268.375153" style="fill: #262626"/>
    </g>
    <g clip-path="url(#p89e834289d)">
     <use xlink:href="#C0_0_ccef75833d" x="164.580273" y="288.426869" style="fill: #262626"/>
    </g>
    <g clip-path="url(#p89e834289d)">
     <use xlink:href="#C0_0_ccef75833d" x="181.893474" y="279.872258" style="fill: #262626"/>
    </g>
    <g clip-path="url(#p89e834289d)">
     <use xlink:href="#C0_0_ccef75833d" x="167.907869" y="283.089797" style="fill: #262626"/>
    </g>
    <g clip-path="url(#p89e834289d)">
     <use xlink:href="#C0_0_ccef75833d" x="153.496162" y="256.551632" style="fill: #262626"/>
    </g>
    <g clip-path="url(#p89e834289d)">
     <use xlink:href="#C0_0_ccef75833d" x="151.858638" y="281.218968" style="fill: #262626"/>
    </g>
    <g clip-path="url(#p89e834289d)">
     <use xlink:href="#C0_0_ccef75833d" x="180.975239" y="284.539266" style="fill: #262626"/>
    </g>
    <g clip-path="url(#p89e834289d)">
     <use xlink:href="#C0_0_ccef75833d" x="163.654519" y="295.000592" style="fill: #262626"/>
    </g>
    <g clip-path="url(#p89e834289d)">
     <use xlink:href="#C0_0_ccef75833d" x="177.498903" y="275.03704" style="fill: #262626"/>
    </g>
    <g clip-path="url(#p89e834289d)">
     <use xlink:href="#C0_0_ccef75833d" x="170.047447" y="282.424105" style="fill: #262626"/>
    </g>
    <g clip-path="url(#p89e834289d)">
     <use xlink:href="#C0_0_ccef75833d" x="149.022351" y="276.308665" style="fill: #262626"/>
    </g>
    <g clip-path="url(#p89e834289d)">
     <use xlink:href="#C0_0_ccef75833d" x="167.321347" y="285.171475" style="fill: #262626"/>
    </g>
    <g clip-path="url(#p89e834289d)">
     <use xlink:href="#C0_0_ccef75833d" x="187.688926" y="281.685951" style="fill: #262626"/>
    </g>
    <g clip-path="url(#p89e834289d)">
     <use xlink:href="#C0_0_ccef75833d" x="152.638905" y="284.12265" style="fill: #262626"/>
    </g>
    <g clip-path="url(#p89e834289d)">
     <use xlink:href="#C0_0_ccef75833d" x="150.8074" y="290.190746" style="fill: #262626"/>
    </g>
    <g clip-path="url(#p89e834289d)">
     <use xlink:href="#C0_0_ccef75833d" x="187.207785" y="285.290988" style="fill: #262626"/>
    </g>
    <g clip-path="url(#p89e834289d)">
     <use xlink:href="#C0_0_ccef75833d" x="151.336566" y="278.716774" style="fill: #262626"/>
    </g>
    <g clip-path="url(#p89e834289d)">
     <use xlink:href="#C0_0_ccef75833d" x="155.754113" y="285.197078" style="fill: #262626"/>
    </g>
    <g clip-path="url(#p89e834289d)">
     <use xlink:href="#C0_0_ccef75833d" x="175.385331" y="278.543266" style="fill: #262626"/>
    </g>
    <g clip-path="url(#p89e834289d)">
     <use xlink:href="#C0_0_ccef75833d" x="169.542457" y="284.319542" style="fill: #262626"/>
    </g>
    <g clip-path="url(#p89e834289d)">
     <use xlink:href="#C0_0_ccef75833d" x="165.473412" y="292.091177" style="fill: #262626"/>
    </g>
    <g clip-path="url(#p89e834289d)">
     <use xlink:href="#C0_0_ccef75833d" x="161.538846" y="280.844478" style="fill: #262626"/>
    </g>
    <g clip-path="url(#p89e834289d)">
     <use xlink:href="#C0_0_ccef75833d" x="171.122636" y="275.926306" style="fill: #262626"/>
    </g>
    <g clip-path="url(#p89e834289d)">
     <use xlink:href="#C0_0_ccef75833d" x="148.395898" y="291.577491" style="fill: #262626"/>
    </g>
    <g clip-path="url(#p89e834289d)">
     <use xlink:href="#C0_0_ccef75833d" x="156.795984" y="271.996582" style="fill: #262626"/>
    </g>
    <g clip-path="url(#p89e834289d)">
     <use xlink:href="#C0_0_ccef75833d" x="177.789361" y="269.176736" style="fill: #262626"/>
    </g>
    <g clip-path="url(#p89e834289d)">
     <use xlink:href="#C0_0_ccef75833d" x="148.399488" y="270.752292" style="fill: #262626"/>
    </g>
    <g clip-path="url(#p89e834289d)">
     <use xlink:href="#C0_0_ccef75833d" x="153.202632" y="280.902644" style="fill: #262626"/>
    </g>
    <g clip-path="url(#p89e834289d)">
     <use xlink:href="#C0_0_ccef75833d" x="161.734146" y="290.699125" style="fill: #262626"/>
    </g>
    <g clip-path="url(#p89e834289d)">
     <use xlink:href="#C0_0_ccef75833d" x="175.454237" y="267.848666" style="fill: #262626"/>
    </g>
    <g clip-path="url(#p89e834289d)">
     <use xlink:href="#C0_0_ccef75833d" x="169.600678" y="255.693776" style="fill: #262626"/>
    </g>
    <g clip-path="url(#p89e834289d)">
     <use xlink:href="#C0_0_ccef75833d" x="181.118511" y="291.0598" style="fill: #262626"/>
    </g>
    <g clip-path="url(#p89e834289d)">
     <use xlink:href="#C0_0_ccef75833d" x="181.24774" y="256.681687" style="fill: #262626"/>
    </g>
    <g clip-path="url(#p89e834289d)">
     <use xlink:href="#C0_0_ccef75833d" x="179.821974" y="288.444448" style="fill: #262626"/>
    </g>
    <g clip-path="url(#p89e834289d)">
     <use xlink:href="#C0_0_ccef75833d" x="156.353953" y="282.791081" style="fill: #262626"/>
    </g>
    <g clip-path="url(#p89e834289d)">
     <use xlink:href="#C0_0_ccef75833d" x="153.476997" y="278.079969" style="fill: #262626"/>
    </g>
    <g clip-path="url(#p89e834289d)">
     <use xlink:href="#C0_0_ccef75833d" x="165.803866" y="258.260841" style="fill: #262626"/>
    </g>
    <g clip-path="url(#p89e834289d)">
     <use xlink:href="#C0_0_ccef75833d" x="170.160249" y="255.084578" style="fill: #262626"/>
    </g>
    <g clip-path="url(#p89e834289d)">
     <use xlink:href="#C0_0_ccef75833d" x="179.123528" y="291.539969" style="fill: #262626"/>
    </g>
    <g clip-path="url(#p89e834289d)">
     <use xlink:href="#C0_0_ccef75833d" x="185.037459" y="278.452926" style="fill: #262626"/>
    </g>
    <g clip-path="url(#p89e834289d)">
     <use xlink:href="#C0_0_ccef75833d" x="167.088178" y="262.817156" style="fill: #262626"/>
    </g>
    <g clip-path="url(#p89e834289d)">
     <use xlink:href="#C0_0_ccef75833d" x="157.789912" y="276.400823" style="fill: #262626"/>
    </g>
    <g clip-path="url(#p89e834289d)">
     <use xlink:href="#C0_0_ccef75833d" x="150.412266" y="277.218533" style="fill: #262626"/>
    </g>
    <g clip-path="url(#p89e834289d)">
     <use xlink:href="#C0_0_ccef75833d" x="168.888796" y="294.278708" style="fill: #262626"/>
    </g>
    <g clip-path="url(#p89e834289d)">
     <use xlink:href="#C0_0_ccef75833d" x="178.181385" y="282.819838" style="fill: #262626"/>
    </g>
    <g clip-path="url(#p89e834289d)">
     <use xlink:href="#C0_0_ccef75833d" x="152.768187" y="280.586648" style="fill: #262626"/>
    </g>
    <g clip-path="url(#p89e834289d)">
     <use xlink:href="#C0_0_ccef75833d" x="174.068049" y="294.654312" style="fill: #262626"/>
    </g>
    <g clip-path="url(#p89e834289d)">
     <use xlink:href="#C0_0_ccef75833d" x="151.366804" y="282.391148" style="fill: #262626"/>
    </g>
    <g clip-path="url(#p89e834289d)">
     <use xlink:href="#C0_0_ccef75833d" x="155.205706" y="296.588704" style="fill: #262626"/>
    </g>
    <g clip-path="url(#p89e834289d)">
     <use xlink:href="#C0_0_ccef75833d" x="169.716909" y="276.910268" style="fill: #262626"/>
    </g>
    <g clip-path="url(#p89e834289d)">
     <use xlink:href="#C0_0_ccef75833d" x="181.828622" y="289.467131" style="fill: #262626"/>
    </g>
    <g clip-path="url(#p89e834289d)">
     <use xlink:href="#C0_0_ccef75833d" x="153.905271" y="276.966158" style="fill: #262626"/>
    </g>
    <g clip-path="url(#p89e834289d)">
     <use xlink:href="#C0_0_ccef75833d" x="156.674794" y="284.733964" style="fill: #262626"/>
    </g>
    <g clip-path="url(#p89e834289d)">
     <use xlink:href="#C0_0_ccef75833d" x="184.898305" y="268.123566" style="fill: #262626"/>
    </g>
    <g clip-path="url(#p89e834289d)">
     <use xlink:href="#C0_0_ccef75833d" x="154.548204" y="286.722072" style="fill: #262626"/>
    </g>
    <g clip-path="url(#p89e834289d)">
     <use xlink:href="#C0_0_ccef75833d" x="183.830166" y="285.555124" style="fill: #262626"/>
    </g>
    <g clip-path="url(#p89e834289d)">
     <use xlink:href="#C0_0_ccef75833d" x="187.667796" y="276.909929" style="fill: #262626"/>
    </g>
    <g clip-path="url(#p89e834289d)">
     <use xlink:href="#C0_0_ccef75833d" x="155.744938" y="276.882582" style="fill: #262626"/>
    </g>
    <g clip-path="url(#p89e834289d)">
     <use xlink:href="#C0_0_ccef75833d" x="167.603039" y="292.025045" style="fill: #262626"/>
    </g>
    <g clip-path="url(#p89e834289d)">
     <use xlink:href="#C0_0_ccef75833d" x="172.701462" y="280.614843" style="fill: #262626"/>
    </g>
    <g clip-path="url(#p89e834289d)">
     <use xlink:href="#C0_0_ccef75833d" x="158.87134" y="244.743001" style="fill: #262626"/>
    </g>
    <g clip-path="url(#p89e834289d)">
     <use xlink:href="#C0_0_ccef75833d" x="178.856779" y="283.453477" style="fill: #262626"/>
    </g>
    <g clip-path="url(#p89e834289d)">
     <use xlink:href="#C0_0_ccef75833d" x="159.299672" y="282.857416" style="fill: #262626"/>
    </g>
    <g clip-path="url(#p89e834289d)">
     <use xlink:href="#C0_0_ccef75833d" x="178.673287" y="257.723162" style="fill: #262626"/>
    </g>
    <g clip-path="url(#p89e834289d)">
     <use xlink:href="#C0_0_ccef75833d" x="160.770763" y="278.1928" style="fill: #262626"/>
    </g>
    <g clip-path="url(#p89e834289d)">
     <use xlink:href="#C0_0_ccef75833d" x="169.258443" y="288.956034" style="fill: #262626"/>
    </g>
    <g clip-path="url(#p89e834289d)">
     <use xlink:href="#C0_0_ccef75833d" x="165.704269" y="271.97805" style="fill: #262626"/>
    </g>
    <g clip-path="url(#p89e834289d)">
     <use xlink:href="#C0_0_ccef75833d" x="166.993884" y="290.368225" style="fill: #262626"/>
    </g>
    <g clip-path="url(#p89e834289d)">
     <use xlink:href="#C0_0_ccef75833d" x="152.519819" y="279.268722" style="fill: #262626"/>
    </g>
    <g clip-path="url(#p89e834289d)">
     <use xlink:href="#C0_0_ccef75833d" x="172.083518" y="279.135897" style="fill: #262626"/>
    </g>
    <g clip-path="url(#p89e834289d)">
     <use xlink:href="#C0_0_ccef75833d" x="166.817214" y="292.111615" style="fill: #262626"/>
    </g>
    <g clip-path="url(#p89e834289d)">
     <use xlink:href="#C0_0_ccef75833d" x="166.697772" y="269.827889" style="fill: #262626"/>
    </g>
    <g clip-path="url(#p89e834289d)">
     <use xlink:href="#C0_0_ccef75833d" x="153.821497" y="288.720105" style="fill: #262626"/>
    </g>
    <g clip-path="url(#p89e834289d)">
     <use xlink:href="#C0_0_ccef75833d" x="149.553569" y="285.992772" style="fill: #262626"/>
    </g>
    <g clip-path="url(#p89e834289d)">
     <use xlink:href="#C0_0_ccef75833d" x="178.349863" y="259.790463" style="fill: #262626"/>
    </g>
    <g clip-path="url(#p89e834289d)">
     <use xlink:href="#C0_0_ccef75833d" x="174.719856" y="271.929235" style="fill: #262626"/>
    </g>
    <g clip-path="url(#p89e834289d)">
     <use xlink:href="#C0_0_ccef75833d" x="156.584026" y="268.069535" style="fill: #262626"/>
    </g>
    <g clip-path="url(#p89e834289d)">
     <use xlink:href="#C0_0_ccef75833d" x="164.03925" y="290.878213" style="fill: #262626"/>
    </g>
    <g clip-path="url(#p89e834289d)">
     <use xlink:href="#C0_0_ccef75833d" x="165.966493" y="285.077613" style="fill: #262626"/>
    </g>
    <g clip-path="url(#p89e834289d)">
     <use xlink:href="#C0_0_ccef75833d" x="186.089823" y="272.901686" style="fill: #262626"/>
    </g>
    <g clip-path="url(#p89e834289d)">
     <use xlink:href="#C0_0_ccef75833d" x="148.904758" y="279.198161" style="fill: #262626"/>
    </g>
    <g clip-path="url(#p89e834289d)">
     <use xlink:href="#C0_0_ccef75833d" x="160.574266" y="290.824967" style="fill: #262626"/>
    </g>
    <g clip-path="url(#p89e834289d)">
     <use xlink:href="#C0_0_ccef75833d" x="186.222399" y="280.822959" style="fill: #262626"/>
    </g>
    <g clip-path="url(#p89e834289d)">
     <use xlink:href="#C0_0_ccef75833d" x="162.877165" y="290.509544" style="fill: #262626"/>
    </g>
    <g clip-path="url(#p89e834289d)">
     <use xlink:href="#C0_0_ccef75833d" x="162.212576" y="284.973035" style="fill: #262626"/>
    </g>
    <g clip-path="url(#p89e834289d)">
     <use xlink:href="#C0_0_ccef75833d" x="186.55056" y="262.942854" style="fill: #262626"/>
    </g>
    <g clip-path="url(#p89e834289d)">
     <use xlink:href="#C0_0_ccef75833d" x="174.718454" y="278.519982" style="fill: #262626"/>
    </g>
    <g clip-path="url(#p89e834289d)">
     <use xlink:href="#C0_0_ccef75833d" x="186.008179" y="276.925645" style="fill: #262626"/>
    </g>
    <g clip-path="url(#p89e834289d)">
     <use xlink:href="#C0_0_ccef75833d" x="149.020634" y="282.402518" style="fill: #262626"/>
    </g>
    <g clip-path="url(#p89e834289d)">
     <use xlink:href="#C0_0_ccef75833d" x="168.896183" y="290.623701" style="fill: #262626"/>
    </g>
    <g clip-path="url(#p89e834289d)">
     <use xlink:href="#C0_0_ccef75833d" x="161.120595" y="266.523015" style="fill: #262626"/>
    </g>
    <g clip-path="url(#p89e834289d)">
     <use xlink:href="#C0_0_ccef75833d" x="176.856475" y="289.259547" style="fill: #262626"/>
    </g>
    <g clip-path="url(#p89e834289d)">
     <use xlink:href="#C0_0_ccef75833d" x="184.208675" y="283.000623" style="fill: #262626"/>
    </g>
    <g clip-path="url(#p89e834289d)">
     <use xlink:href="#C0_0_ccef75833d" x="179.573588" y="285.014694" style="fill: #262626"/>
    </g>
    <g clip-path="url(#p89e834289d)">
     <use xlink:href="#C0_0_ccef75833d" x="151.00776" y="282.289434" style="fill: #262626"/>
    </g>
    <g clip-path="url(#p89e834289d)">
     <use xlink:href="#C0_0_ccef75833d" x="183.351687" y="284.354623" style="fill: #262626"/>
    </g>
    <g clip-path="url(#p89e834289d)">
     <use xlink:href="#C0_0_ccef75833d" x="165.041849" y="276.744446" style="fill: #262626"/>
    </g>
    <g clip-path="url(#p89e834289d)">
     <use xlink:href="#C0_0_ccef75833d" x="185.561489" y="287.147413" style="fill: #262626"/>
    </g>
    <g clip-path="url(#p89e834289d)">
     <use xlink:href="#C0_0_ccef75833d" x="178.855252" y="262.071871" style="fill: #262626"/>
    </g>
    <g clip-path="url(#p89e834289d)">
     <use xlink:href="#C0_0_ccef75833d" x="187.356823" y="285.038489" style="fill: #262626"/>
    </g>
    <g clip-path="url(#p89e834289d)">
     <use xlink:href="#C0_0_ccef75833d" x="149.591148" y="287.811658" style="fill: #262626"/>
    </g>
    <g clip-path="url(#p89e834289d)">
     <use xlink:href="#C0_0_ccef75833d" x="166.423349" y="292.453652" style="fill: #262626"/>
    </g>
    <g clip-path="url(#p89e834289d)">
     <use xlink:href="#C0_0_ccef75833d" x="165.682557" y="286.286065" style="fill: #262626"/>
    </g>
    <g clip-path="url(#p89e834289d)">
     <use xlink:href="#C0_0_ccef75833d" x="180.783505" y="271.370372" style="fill: #262626"/>
    </g>
    <g clip-path="url(#p89e834289d)">
     <use xlink:href="#C0_0_ccef75833d" x="163.469332" y="276.137226" style="fill: #262626"/>
    </g>
    <g clip-path="url(#p89e834289d)">
     <use xlink:href="#C0_0_ccef75833d" x="150.332292" y="276.827758" style="fill: #262626"/>
    </g>
   </g>
   <g id="PathCollection_4">
    <defs>
     <path id="C1_0_0d1e85d3e2" d="M 0 1 
C 0.265203 1 0.51958 0.894634 0.707107 0.707107 
C 0.894634 0.51958 1 0.265203 1 -0 
C 1 -0.265203 0.894634 -0.51958 0.707107 -0.707107 
C 0.51958 -0.894634 0.265203 -1 0 -1 
C -0.265203 -1 -0.51958 -0.894634 -0.707107 -0.707107 
C -0.894634 -0.51958 -1 -0.265203 -1 0 
C -1 0.265203 -0.894634 0.51958 -0.707107 0.707107 
C -0.51958 0.894634 -0.265203 1 0 1 
z
"/>
    </defs>
    <g clip-path="url(#p89e834289d)">
     <use xlink:href="#C1_0_0d1e85d3e2" x="309.382895" y="268.897115"/>
    </g>
    <g clip-path="url(#p89e834289d)">
     <use xlink:href="#C1_0_0d1e85d3e2" x="346.203479" y="257.845757"/>
    </g>
    <g clip-path="url(#p89e834289d)">
     <use xlink:href="#C1_0_0d1e85d3e2" x="312.77601" y="267.15098"/>
    </g>
    <g clip-path="url(#p89e834289d)">
     <use xlink:href="#C1_0_0d1e85d3e2" x="346.424589" y="250.708088"/>
    </g>
    <g clip-path="url(#p89e834289d)">
     <use xlink:href="#C1_0_0d1e85d3e2" x="321.586892" y="279.300587"/>
    </g>
    <g clip-path="url(#p89e834289d)">
     <use xlink:href="#C1_0_0d1e85d3e2" x="327.393463" y="262.331019"/>
    </g>
    <g clip-path="url(#p89e834289d)">
     <use xlink:href="#C1_0_0d1e85d3e2" x="348.554922" y="281.709909"/>
    </g>
    <g clip-path="url(#p89e834289d)">
     <use xlink:href="#C1_0_0d1e85d3e2" x="348.653681" y="249.089738"/>
    </g>
    <g clip-path="url(#p89e834289d)">
     <use xlink:href="#C1_0_0d1e85d3e2" x="319.841365" y="287.440169"/>
    </g>
    <g clip-path="url(#p89e834289d)">
     <use xlink:href="#C1_0_0d1e85d3e2" x="335.991575" y="286.414279"/>
    </g>
    <g clip-path="url(#p89e834289d)">
     <use xlink:href="#C1_0_0d1e85d3e2" x="315.100537" y="274.551439"/>
    </g>
    <g clip-path="url(#p89e834289d)">
     <use xlink:href="#C1_0_0d1e85d3e2" x="316.217068" y="270.288941"/>
    </g>
    <g clip-path="url(#p89e834289d)">
     <use xlink:href="#C1_0_0d1e85d3e2" x="319.039347" y="272.515747"/>
    </g>
    <g clip-path="url(#p89e834289d)">
     <use xlink:href="#C1_0_0d1e85d3e2" x="336.437024" y="286.884633"/>
    </g>
    <g clip-path="url(#p89e834289d)">
     <use xlink:href="#C1_0_0d1e85d3e2" x="349.099853" y="274.773023"/>
    </g>
    <g clip-path="url(#p89e834289d)">
     <use xlink:href="#C1_0_0d1e85d3e2" x="335.060414" y="270.934328"/>
    </g>
    <g clip-path="url(#p89e834289d)">
     <use xlink:href="#C1_0_0d1e85d3e2" x="312.08229" y="283.755051"/>
    </g>
    <g clip-path="url(#p89e834289d)">
     <use xlink:href="#C1_0_0d1e85d3e2" x="330.166339" y="293.539254"/>
    </g>
    <g clip-path="url(#p89e834289d)">
     <use xlink:href="#C1_0_0d1e85d3e2" x="347.335496" y="255.633315"/>
    </g>
    <g clip-path="url(#p89e834289d)">
     <use xlink:href="#C1_0_0d1e85d3e2" x="345.483335" y="290.249063"/>
    </g>
    <g clip-path="url(#p89e834289d)">
     <use xlink:href="#C1_0_0d1e85d3e2" x="323.630362" y="288.499334"/>
    </g>
    <g clip-path="url(#p89e834289d)">
     <use xlink:href="#C1_0_0d1e85d3e2" x="336.061736" y="280.616347"/>
    </g>
    <g clip-path="url(#p89e834289d)">
     <use xlink:href="#C1_0_0d1e85d3e2" x="335.999639" y="281.541682"/>
    </g>
    <g clip-path="url(#p89e834289d)">
     <use xlink:href="#C1_0_0d1e85d3e2" x="345.577714" y="248.443076"/>
    </g>
    <g clip-path="url(#p89e834289d)">
     <use xlink:href="#C1_0_0d1e85d3e2" x="319.8827" y="269.298065"/>
    </g>
    <g clip-path="url(#p89e834289d)">
     <use xlink:href="#C1_0_0d1e85d3e2" x="320.659448" y="269.717027"/>
    </g>
    <g clip-path="url(#p89e834289d)">
     <use xlink:href="#C1_0_0d1e85d3e2" x="328.694488" y="281.877677"/>
    </g>
    <g clip-path="url(#p89e834289d)">
     <use xlink:href="#C1_0_0d1e85d3e2" x="310.568418" y="258.584607"/>
    </g>
    <g clip-path="url(#p89e834289d)">
     <use xlink:href="#C1_0_0d1e85d3e2" x="321.761442" y="267.162147"/>
    </g>
    <g clip-path="url(#p89e834289d)">
     <use xlink:href="#C1_0_0d1e85d3e2" x="334.591686" y="276.371458"/>
    </g>
    <g clip-path="url(#p89e834289d)">
     <use xlink:href="#C1_0_0d1e85d3e2" x="334.966631" y="284.83694"/>
    </g>
    <g clip-path="url(#p89e834289d)">
     <use xlink:href="#C1_0_0d1e85d3e2" x="345.646974" y="289.616853"/>
    </g>
    <g clip-path="url(#p89e834289d)">
     <use xlink:href="#C1_0_0d1e85d3e2" x="311.506776" y="267.668083"/>
    </g>
    <g clip-path="url(#p89e834289d)">
     <use xlink:href="#C1_0_0d1e85d3e2" x="333.931215" y="284.851208"/>
    </g>
    <g clip-path="url(#p89e834289d)">
     <use xlink:href="#C1_0_0d1e85d3e2" x="332.929217" y="284.55905"/>
    </g>
    <g clip-path="url(#p89e834289d)">
     <use xlink:href="#C1_0_0d1e85d3e2" x="343.09579" y="291.880688"/>
    </g>
    <g clip-path="url(#p89e834289d)">
     <use xlink:href="#C1_0_0d1e85d3e2" x="332.494702" y="268.188026"/>
    </g>
    <g clip-path="url(#p89e834289d)">
     <use xlink:href="#C1_0_0d1e85d3e2" x="311.617113" y="284.852121"/>
    </g>
    <g clip-path="url(#p89e834289d)">
     <use xlink:href="#C1_0_0d1e85d3e2" x="321.349049" y="279.738028"/>
    </g>
   </g>
   <g id="text_6">
    <!-- 140 -->
    <g style="fill: #262626" transform="translate(188.518 190.151928) scale(0.1 -0.1)">
     <defs>
      <path id="DejaVuSans-31" d="M 794 531 
L 1825 531 
L 1825 4091 
L 703 3866 
L 703 4441 
L 1819 4666 
L 2450 4666 
L 2450 531 
L 3481 531 
L 3481 0 
L 794 0 
L 794 531 
z
" transform="scale(0.015625)"/>
      <path id="DejaVuSans-34" d="M 2419 4116 
L 825 1625 
L 2419 1625 
L 2419 4116 
z
M 2253 4666 
L 3047 4666 
L 3047 1625 
L 3713 1625 
L 3713 1100 
L 3047 1100 
L 3047 0 
L 2419 0 
L 2419 1100 
L 313 1100 
L 313 1709 
L 2253 4666 
z
" transform="scale(0.015625)"/>
     </defs>
     <use xlink:href="#DejaVuSans-31"/>
     <use xlink:href="#DejaVuSans-34" x="63.623047"/>
     <use xlink:href="#DejaVuSans-30" x="127.246094"/>
    </g>
   </g>
   <g id="text_7">
    <!-- p=0.0025260298781278378 -->
    <g style="fill: #262626" transform="translate(130.4555 241.303968) scale(0.08 -0.08)">
     <defs>
      <path id="DejaVuSans-3d" d="M 678 2906 
L 4684 2906 
L 4684 2381 
L 678 2381 
L 678 2906 
z
M 678 1631 
L 4684 1631 
L 4684 1100 
L 678 1100 
L 678 1631 
z
" transform="scale(0.015625)"/>
      <path id="DejaVuSans-32" d="M 1228 531 
L 3431 531 
L 3431 0 
L 469 0 
L 469 531 
Q 828 903 1448 1529 
Q 2069 2156 2228 2338 
Q 2531 2678 2651 2914 
Q 2772 3150 2772 3378 
Q 2772 3750 2511 3984 
Q 2250 4219 1831 4219 
Q 1534 4219 1204 4116 
Q 875 4013 500 3803 
L 500 4441 
Q 881 4594 1212 4672 
Q 1544 4750 1819 4750 
Q 2544 4750 2975 4387 
Q 3406 4025 3406 3419 
Q 3406 3131 3298 2873 
Q 3191 2616 2906 2266 
Q 2828 2175 2409 1742 
Q 1991 1309 1228 531 
z
" transform="scale(0.015625)"/>
      <path id="DejaVuSans-36" d="M 2113 2584 
Q 1688 2584 1439 2293 
Q 1191 2003 1191 1497 
Q 1191 994 1439 701 
Q 1688 409 2113 409 
Q 2538 409 2786 701 
Q 3034 994 3034 1497 
Q 3034 2003 2786 2293 
Q 2538 2584 2113 2584 
z
M 3366 4563 
L 3366 3988 
Q 3128 4100 2886 4159 
Q 2644 4219 2406 4219 
Q 1781 4219 1451 3797 
Q 1122 3375 1075 2522 
Q 1259 2794 1537 2939 
Q 1816 3084 2150 3084 
Q 2853 3084 3261 2657 
Q 3669 2231 3669 1497 
Q 3669 778 3244 343 
Q 2819 -91 2113 -91 
Q 1303 -91 875 529 
Q 447 1150 447 2328 
Q 447 3434 972 4092 
Q 1497 4750 2381 4750 
Q 2619 4750 2861 4703 
Q 3103 4656 3366 4563 
z
" transform="scale(0.015625)"/>
      <path id="DejaVuSans-39" d="M 703 97 
L 703 672 
Q 941 559 1184 500 
Q 1428 441 1663 441 
Q 2288 441 2617 861 
Q 2947 1281 2994 2138 
Q 2813 1869 2534 1725 
Q 2256 1581 1919 1581 
Q 1219 1581 811 2004 
Q 403 2428 403 3163 
Q 403 3881 828 4315 
Q 1253 4750 1959 4750 
Q 2769 4750 3195 4129 
Q 3622 3509 3622 2328 
Q 3622 1225 3098 567 
Q 2575 -91 1691 -91 
Q 1453 -91 1209 -44 
Q 966 3 703 97 
z
M 1959 2075 
Q 2384 2075 2632 2365 
Q 2881 2656 2881 3163 
Q 2881 3666 2632 3958 
Q 2384 4250 1959 4250 
Q 1534 4250 1286 3958 
Q 1038 3666 1038 3163 
Q 1038 2656 1286 2365 
Q 1534 2075 1959 2075 
z
" transform="scale(0.015625)"/>
      <path id="DejaVuSans-38" d="M 2034 2216 
Q 1584 2216 1326 1975 
Q 1069 1734 1069 1313 
Q 1069 891 1326 650 
Q 1584 409 2034 409 
Q 2484 409 2743 651 
Q 3003 894 3003 1313 
Q 3003 1734 2745 1975 
Q 2488 2216 2034 2216 
z
M 1403 2484 
Q 997 2584 770 2862 
Q 544 3141 544 3541 
Q 544 4100 942 4425 
Q 1341 4750 2034 4750 
Q 2731 4750 3128 4425 
Q 3525 4100 3525 3541 
Q 3525 3141 3298 2862 
Q 3072 2584 2669 2484 
Q 3125 2378 3379 2068 
Q 3634 1759 3634 1313 
Q 3634 634 3220 271 
Q 2806 -91 2034 -91 
Q 1263 -91 848 271 
Q 434 634 434 1313 
Q 434 1759 690 2068 
Q 947 2378 1403 2484 
z
M 1172 3481 
Q 1172 3119 1398 2916 
Q 1625 2713 2034 2713 
Q 2441 2713 2670 2916 
Q 2900 3119 2900 3481 
Q 2900 3844 2670 4047 
Q 2441 4250 2034 4250 
Q 1625 4250 1398 4047 
Q 1172 3844 1172 3481 
z
" transform="scale(0.015625)"/>
      <path id="DejaVuSans-37" d="M 525 4666 
L 3525 4666 
L 3525 4397 
L 1831 0 
L 1172 0 
L 2766 4134 
L 525 4134 
L 525 4666 
z
" transform="scale(0.015625)"/>
      <path id="DejaVuSans-33" d="M 2597 2516 
Q 3050 2419 3304 2112 
Q 3559 1806 3559 1356 
Q 3559 666 3084 287 
Q 2609 -91 1734 -91 
Q 1441 -91 1130 -33 
Q 819 25 488 141 
L 488 750 
Q 750 597 1062 519 
Q 1375 441 1716 441 
Q 2309 441 2620 675 
Q 2931 909 2931 1356 
Q 2931 1769 2642 2001 
Q 2353 2234 1838 2234 
L 1294 2234 
L 1294 2753 
L 1863 2753 
Q 2328 2753 2575 2939 
Q 2822 3125 2822 3475 
Q 2822 3834 2567 4026 
Q 2313 4219 1838 4219 
Q 1578 4219 1281 4162 
Q 984 4106 628 3988 
L 628 4550 
Q 988 4650 1302 4700 
Q 1616 4750 1894 4750 
Q 2613 4750 3031 4423 
Q 3450 4097 3450 3541 
Q 3450 3153 3228 2886 
Q 3006 2619 2597 2516 
z
" transform="scale(0.015625)"/>
     </defs>
     <use xlink:href="#DejaVuSans-70"/>
     <use xlink:href="#DejaVuSans-3d" x="63.476562"/>
     <use xlink:href="#DejaVuSans-30" x="147.265625"/>
     <use xlink:href="#DejaVuSans-2e" x="210.888672"/>
     <use xlink:href="#DejaVuSans-30" x="242.675781"/>
     <use xlink:href="#DejaVuSans-30" x="306.298828"/>
     <use xlink:href="#DejaVuSans-32" x="369.921875"/>
     <use xlink:href="#DejaVuSans-35" x="433.544922"/>
     <use xlink:href="#DejaVuSans-32" x="497.167969"/>
     <use xlink:href="#DejaVuSans-36" x="560.791016"/>
     <use xlink:href="#DejaVuSans-30" x="624.414062"/>
     <use xlink:href="#DejaVuSans-32" x="688.037109"/>
     <use xlink:href="#DejaVuSans-39" x="751.660156"/>
     <use xlink:href="#DejaVuSans-38" x="815.283203"/>
     <use xlink:href="#DejaVuSans-37" x="878.90625"/>
     <use xlink:href="#DejaVuSans-38" x="942.529297"/>
     <use xlink:href="#DejaVuSans-31" x="1006.152344"/>
     <use xlink:href="#DejaVuSans-32" x="1069.775391"/>
     <use xlink:href="#DejaVuSans-37" x="1133.398438"/>
     <use xlink:href="#DejaVuSans-38" x="1197.021484"/>
     <use xlink:href="#DejaVuSans-33" x="1260.644531"/>
     <use xlink:href="#DejaVuSans-37" x="1324.267578"/>
     <use xlink:href="#DejaVuSans-38" x="1387.890625"/>
    </g>
   </g>
   <g id="text_8">
    <!-- 39 -->
    <g style="fill: #262626" transform="translate(309.202 190.151928) scale(0.1 -0.1)">
     <use xlink:href="#DejaVuSans-33"/>
     <use xlink:href="#DejaVuSans-39" x="63.623047"/>
    </g>
   </g>
   <g id="legend_1">
    <g id="patch_11">
     <path d="M 56.72 255.451738 
L 76.72 255.451738 
L 76.72 248.451738 
L 56.72 248.451738 
z
" style="fill: #ecf2ec; stroke: #262626; stroke-width: 0.75; stroke-linejoin: miter"/>
    </g>
    <g id="text_9">
     <!-- Mutant -->
     <g style="fill: #262626" transform="translate(84.72 255.451738) scale(0.1 -0.1)">
      <defs>
       <path id="DejaVuSans-4d" d="M 628 4666 
L 1569 4666 
L 2759 1491 
L 3956 4666 
L 4897 4666 
L 4897 0 
L 4281 0 
L 4281 4097 
L 3078 897 
L 2444 897 
L 1241 4097 
L 1241 0 
L 628 0 
L 628 4666 
z
" transform="scale(0.015625)"/>
       <path id="DejaVuSans-61" d="M 2194 1759 
Q 1497 1759 1228 1600 
Q 959 1441 959 1056 
Q 959 750 1161 570 
Q 1363 391 1709 391 
Q 2188 391 2477 730 
Q 2766 1069 2766 1631 
L 2766 1759 
L 2194 1759 
z
M 3341 1997 
L 3341 0 
L 2766 0 
L 2766 531 
Q 2569 213 2275 61 
Q 1981 -91 1556 -91 
Q 1019 -91 701 211 
Q 384 513 384 1019 
Q 384 1609 779 1909 
Q 1175 2209 1959 2209 
L 2766 2209 
L 2766 2266 
Q 2766 2663 2505 2880 
Q 2244 3097 1772 3097 
Q 1472 3097 1187 3025 
Q 903 2953 641 2809 
L 641 3341 
Q 956 3463 1253 3523 
Q 1550 3584 1831 3584 
Q 2591 3584 2966 3190 
Q 3341 2797 3341 1997 
z
" transform="scale(0.015625)"/>
      </defs>
      <use xlink:href="#DejaVuSans-4d"/>
      <use xlink:href="#DejaVuSans-75" x="86.279297"/>
      <use xlink:href="#DejaVuSans-74" x="149.658203"/>
      <use xlink:href="#DejaVuSans-61" x="188.867188"/>
      <use xlink:href="#DejaVuSans-6e" x="250.146484"/>
      <use xlink:href="#DejaVuSans-74" x="313.525391"/>
     </g>
    </g>
    <g id="patch_12">
     <path d="M 56.72 270.129863 
L 76.72 270.129863 
L 76.72 263.129863 
L 56.72 263.129863 
z
" style="fill: #107010; stroke: #262626; stroke-width: 0.75; stroke-linejoin: miter"/>
    </g>
    <g id="text_10">
     <!-- WT -->
     <g style="fill: #262626" transform="translate(84.72 270.129863) scale(0.1 -0.1)">
      <defs>
       <path id="DejaVuSans-57" d="M 213 4666 
L 850 4666 
L 1831 722 
L 2809 4666 
L 3519 4666 
L 4500 722 
L 5478 4666 
L 6119 4666 
L 4947 0 
L 4153 0 
L 3169 4050 
L 2175 0 
L 1381 0 
L 213 4666 
z
" transform="scale(0.015625)"/>
       <path id="DejaVuSans-54" d="M -19 4666 
L 3928 4666 
L 3928 4134 
L 2272 4134 
L 2272 0 
L 1638 0 
L 1638 4134 
L -19 4134 
L -19 4666 
z
" transform="scale(0.015625)"/>
      </defs>
      <use xlink:href="#DejaVuSans-57"/>
      <use xlink:href="#DejaVuSans-54" x="98.876953"/>
     </g>
    </g>
   </g>
  </g>
 </g>
 <defs>
  <clipPath id="p89e834289d">
   <rect x="47.72" y="238.853301" width="402.28" height="64.786699"/>
  </clipPath>
 </defs>
</svg>
