<?xml version="1.0" encoding="utf-8" standalone="no"?>
<!DOCTYPE svg PUBLIC "-//W3C//DTD SVG 1.1//EN"
  "http://www.w3.org/Graphics/SVG/1.1/DTD/svg11.dtd">
<svg xmlns:xlink="http://www.w3.org/1999/xlink" width="460.8pt" height="345.6pt" viewBox="0 0 460.8 345.6" xmlns="http://www.w3.org/2000/svg" version="1.1">
 <metadata>
  <rdf:RDF xmlns:dc="http://purl.org/dc/elements/1.1/" xmlns:cc="http://creativecommons.org/ns#" xmlns:rdf="http://www.w3.org/1999/02/22-rdf-syntax-ns#">
   <cc:Work>
    <dc:type rdf:resource="http://purl.org/dc/dcmitype/StillImage"/>
    <dc:date>2024-02-03T13:08:11.649417</dc:date>
    <dc:format>image/svg+xml</dc:format>
    <dc:creator>
     <cc:Agent>
      <dc:title>Matplotlib v3.5.3, https://matplotlib.org/</dc:title>
     </cc:Agent>
    </dc:creator>
   </cc:Work>
  </rdf:RDF>
 </metadata>
 <defs>
  <style type="text/css">*{stroke-linejoin: round; stroke-linecap: butt}</style>
 </defs>
 <g id="figure_1">
  <g id="patch_1">
   <path d="M 0 345.6 
L 460.8 345.6 
L 460.8 0 
L 0 0 
z
" style="fill: #ffffff"/>
  </g>
  <g id="axes_1">
   <g id="patch_2">
    <path d="M 47.82125 303.64 
L 450 303.64 
L 450 46.543987 
L 47.82125 46.543987 
z
" style="fill: #ffffff"/>
   </g>
   <g id="PathCollection_1">
    <defs>
     <path id="mdee5086f9b" d="M 0 3 
C 0.795609 3 1.55874 2.683901 2.12132 2.12132 
C 2.683901 1.55874 3 0.795609 3 0 
C 3 -0.795609 2.683901 -1.55874 2.12132 -2.12132 
C 1.55874 -2.683901 0.795609 -3 0 -3 
C -0.795609 -3 -1.55874 -2.683901 -2.12132 -2.12132 
C -2.683901 -1.55874 -3 -0.795609 -3 0 
C -3 0.795609 -2.683901 1.55874 -2.12132 2.12132 
C -1.55874 2.683901 -0.795609 3 0 3 
z
" style="stroke: #1f77b4"/>
    </defs>
    <g clip-path="url(#p41b2c5cae0)">
     <use xlink:href="#mdee5086f9b" x="66.102102" y="194.556961" style="fill: #1f77b4; stroke: #1f77b4"/>
     <use xlink:href="#mdee5086f9b" x="82.364856" y="233.397849" style="fill: #1f77b4; stroke: #1f77b4"/>
     <use xlink:href="#mdee5086f9b" x="134.292907" y="179.141683" style="fill: #1f77b4; stroke: #1f77b4"/>
     <use xlink:href="#mdee5086f9b" x="136.541809" y="196.914149" style="fill: #1f77b4; stroke: #1f77b4"/>
     <use xlink:href="#mdee5086f9b" x="141.922369" y="176.085005" style="fill: #1f77b4; stroke: #1f77b4"/>
     <use xlink:href="#mdee5086f9b" x="158.954032" y="184.789748" style="fill: #1f77b4; stroke: #1f77b4"/>
     <use xlink:href="#mdee5086f9b" x="181.620149" y="220.345485" style="fill: #1f77b4; stroke: #1f77b4"/>
     <use xlink:href="#mdee5086f9b" x="188.848442" y="279.669282" style="fill: #1f77b4; stroke: #1f77b4"/>
     <use xlink:href="#mdee5086f9b" x="195.2762" y="217.254964" style="fill: #1f77b4; stroke: #1f77b4"/>
     <use xlink:href="#mdee5086f9b" x="203.582412" y="204.356188" style="fill: #1f77b4; stroke: #1f77b4"/>
     <use xlink:href="#mdee5086f9b" x="211.632922" y="181.214712" style="fill: #1f77b4; stroke: #1f77b4"/>
     <use xlink:href="#mdee5086f9b" x="215.559692" y="272.989214" style="fill: #1f77b4; stroke: #1f77b4"/>
     <use xlink:href="#mdee5086f9b" x="217.904369" y="192.44515" style="fill: #1f77b4; stroke: #1f77b4"/>
     <use xlink:href="#mdee5086f9b" x="218.104954" y="227.575962" style="fill: #1f77b4; stroke: #1f77b4"/>
     <use xlink:href="#mdee5086f9b" x="221.710065" y="196.532446" style="fill: #1f77b4; stroke: #1f77b4"/>
     <use xlink:href="#mdee5086f9b" x="222.466325" y="267.233234" style="fill: #1f77b4; stroke: #1f77b4"/>
     <use xlink:href="#mdee5086f9b" x="225.63322" y="247.122915" style="fill: #1f77b4; stroke: #1f77b4"/>
     <use xlink:href="#mdee5086f9b" x="228.631154" y="179.358275" style="fill: #1f77b4; stroke: #1f77b4"/>
     <use xlink:href="#mdee5086f9b" x="229.151592" y="158.519677" style="fill: #1f77b4; stroke: #1f77b4"/>
     <use xlink:href="#mdee5086f9b" x="229.850929" y="199.098252" style="fill: #1f77b4; stroke: #1f77b4"/>
     <use xlink:href="#mdee5086f9b" x="232.705201" y="279.773274" style="fill: #1f77b4; stroke: #1f77b4"/>
     <use xlink:href="#mdee5086f9b" x="234.787852" y="195.303862" style="fill: #1f77b4; stroke: #1f77b4"/>
     <use xlink:href="#mdee5086f9b" x="235.4131" y="161.458899" style="fill: #1f77b4; stroke: #1f77b4"/>
     <use xlink:href="#mdee5086f9b" x="235.657958" y="189.409061" style="fill: #1f77b4; stroke: #1f77b4"/>
     <use xlink:href="#mdee5086f9b" x="236.962665" y="248.678819" style="fill: #1f77b4; stroke: #1f77b4"/>
     <use xlink:href="#mdee5086f9b" x="238.887197" y="148.029986" style="fill: #1f77b4; stroke: #1f77b4"/>
     <use xlink:href="#mdee5086f9b" x="243.3588" y="236.584766" style="fill: #1f77b4; stroke: #1f77b4"/>
     <use xlink:href="#mdee5086f9b" x="244.153008" y="270.186025" style="fill: #1f77b4; stroke: #1f77b4"/>
     <use xlink:href="#mdee5086f9b" x="244.884873" y="237.745242" style="fill: #1f77b4; stroke: #1f77b4"/>
     <use xlink:href="#mdee5086f9b" x="251.868307" y="250.917461" style="fill: #1f77b4; stroke: #1f77b4"/>
     <use xlink:href="#mdee5086f9b" x="252.37248" y="207.154959" style="fill: #1f77b4; stroke: #1f77b4"/>
     <use xlink:href="#mdee5086f9b" x="254.261775" y="184.906306" style="fill: #1f77b4; stroke: #1f77b4"/>
     <use xlink:href="#mdee5086f9b" x="256.288407" y="220.058367" style="fill: #1f77b4; stroke: #1f77b4"/>
     <use xlink:href="#mdee5086f9b" x="264.444631" y="158.681755" style="fill: #1f77b4; stroke: #1f77b4"/>
     <use xlink:href="#mdee5086f9b" x="265.474663" y="189.872247" style="fill: #1f77b4; stroke: #1f77b4"/>
     <use xlink:href="#mdee5086f9b" x="266.70528" y="202.475981" style="fill: #1f77b4; stroke: #1f77b4"/>
     <use xlink:href="#mdee5086f9b" x="268.349716" y="223.732323" style="fill: #1f77b4; stroke: #1f77b4"/>
     <use xlink:href="#mdee5086f9b" x="269.113205" y="276.785261" style="fill: #1f77b4; stroke: #1f77b4"/>
     <use xlink:href="#mdee5086f9b" x="284.913348" y="279.602934" style="fill: #1f77b4; stroke: #1f77b4"/>
     <use xlink:href="#mdee5086f9b" x="292.478659" y="176.751399" style="fill: #1f77b4; stroke: #1f77b4"/>
     <use xlink:href="#mdee5086f9b" x="292.551845" y="187.37748" style="fill: #1f77b4; stroke: #1f77b4"/>
     <use xlink:href="#mdee5086f9b" x="292.578951" y="197.373763" style="fill: #1f77b4; stroke: #1f77b4"/>
     <use xlink:href="#mdee5086f9b" x="292.822906" y="229.496352" style="fill: #1f77b4; stroke: #1f77b4"/>
     <use xlink:href="#mdee5086f9b" x="294.625462" y="215.141658" style="fill: #1f77b4; stroke: #1f77b4"/>
     <use xlink:href="#mdee5086f9b" x="294.665217" y="180.638666" style="fill: #1f77b4; stroke: #1f77b4"/>
     <use xlink:href="#mdee5086f9b" x="300.372857" y="239.782817" style="fill: #1f77b4; stroke: #1f77b4"/>
     <use xlink:href="#mdee5086f9b" x="301.252902" y="186.470087" style="fill: #1f77b4; stroke: #1f77b4"/>
     <use xlink:href="#mdee5086f9b" x="301.493243" y="244.082023" style="fill: #1f77b4; stroke: #1f77b4"/>
     <use xlink:href="#mdee5086f9b" x="302.752773" y="227.935656" style="fill: #1f77b4; stroke: #1f77b4"/>
     <use xlink:href="#mdee5086f9b" x="303.888518" y="221.179297" style="fill: #1f77b4; stroke: #1f77b4"/>
     <use xlink:href="#mdee5086f9b" x="308.398069" y="202.697496" style="fill: #1f77b4; stroke: #1f77b4"/>
     <use xlink:href="#mdee5086f9b" x="311.276736" y="177.112942" style="fill: #1f77b4; stroke: #1f77b4"/>
     <use xlink:href="#mdee5086f9b" x="314.180702" y="218.154655" style="fill: #1f77b4; stroke: #1f77b4"/>
     <use xlink:href="#mdee5086f9b" x="319.743777" y="192.121688" style="fill: #1f77b4; stroke: #1f77b4"/>
     <use xlink:href="#mdee5086f9b" x="322.911576" y="218.179203" style="fill: #1f77b4; stroke: #1f77b4"/>
     <use xlink:href="#mdee5086f9b" x="325.974565" y="227.70045" style="fill: #1f77b4; stroke: #1f77b4"/>
     <use xlink:href="#mdee5086f9b" x="341.803621" y="198.284469" style="fill: #1f77b4; stroke: #1f77b4"/>
     <use xlink:href="#mdee5086f9b" x="344.401288" y="202.056153" style="fill: #1f77b4; stroke: #1f77b4"/>
     <use xlink:href="#mdee5086f9b" x="345.332835" y="261.282372" style="fill: #1f77b4; stroke: #1f77b4"/>
     <use xlink:href="#mdee5086f9b" x="347.412776" y="180.893164" style="fill: #1f77b4; stroke: #1f77b4"/>
     <use xlink:href="#mdee5086f9b" x="367.260762" y="223.893032" style="fill: #1f77b4; stroke: #1f77b4"/>
     <use xlink:href="#mdee5086f9b" x="369.361485" y="242.673252" style="fill: #1f77b4; stroke: #1f77b4"/>
     <use xlink:href="#mdee5086f9b" x="385.154399" y="219.119926" style="fill: #1f77b4; stroke: #1f77b4"/>
     <use xlink:href="#mdee5086f9b" x="403.994039" y="180.797364" style="fill: #1f77b4; stroke: #1f77b4"/>
     <use xlink:href="#mdee5086f9b" x="410.223472" y="260.307986" style="fill: #1f77b4; stroke: #1f77b4"/>
     <use xlink:href="#mdee5086f9b" x="431.719148" y="284.513417" style="fill: #1f77b4; stroke: #1f77b4"/>
    </g>
   </g>
   <g id="matplotlib.axis_1">
    <g id="xtick_1">
     <g id="line2d_1">
      <defs>
       <path id="m3e6c895c3b" d="M 0 0 
L 0 3.5 
" style="stroke: #000000; stroke-width: 0.8"/>
      </defs>
      <g>
       <use xlink:href="#m3e6c895c3b" x="89.265164" y="303.64" style="stroke: #000000; stroke-width: 0.8"/>
      </g>
     </g>
     <g id="text_1">
      <!-- −45 -->
      <g transform="translate(78.712821 318.238437)scale(0.1 -0.1)">
       <defs>
        <path id="DejaVuSans-2212" d="M 678 2272 
L 4684 2272 
L 4684 1741 
L 678 1741 
L 678 2272 
z
" transform="scale(0.015625)"/>
        <path id="DejaVuSans-34" d="M 2419 4116 
L 825 1625 
L 2419 1625 
L 2419 4116 
z
M 2253 4666 
L 3047 4666 
L 3047 1625 
L 3713 1625 
L 3713 1100 
L 3047 1100 
L 3047 0 
L 2419 0 
L 2419 1100 
L 313 1100 
L 313 1709 
L 2253 4666 
z
" transform="scale(0.015625)"/>
        <path id="DejaVuSans-35" d="M 691 4666 
L 3169 4666 
L 3169 4134 
L 1269 4134 
L 1269 2991 
Q 1406 3038 1543 3061 
Q 1681 3084 1819 3084 
Q 2600 3084 3056 2656 
Q 3513 2228 3513 1497 
Q 3513 744 3044 326 
Q 2575 -91 1722 -91 
Q 1428 -91 1123 -41 
Q 819 9 494 109 
L 494 744 
Q 775 591 1075 516 
Q 1375 441 1709 441 
Q 2250 441 2565 725 
Q 2881 1009 2881 1497 
Q 2881 1984 2565 2268 
Q 2250 2553 1709 2553 
Q 1456 2553 1204 2497 
Q 953 2441 691 2322 
L 691 4666 
z
" transform="scale(0.015625)"/>
       </defs>
       <use xlink:href="#DejaVuSans-2212"/>
       <use xlink:href="#DejaVuSans-34" x="83.789062"/>
       <use xlink:href="#DejaVuSans-35" x="147.412109"/>
      </g>
     </g>
    </g>
    <g id="xtick_2">
     <g id="line2d_2">
      <g>
       <use xlink:href="#m3e6c895c3b" x="134.44199" y="303.64" style="stroke: #000000; stroke-width: 0.8"/>
      </g>
     </g>
     <g id="text_2">
      <!-- −40 -->
      <g transform="translate(123.889647 318.238437)scale(0.1 -0.1)">
       <defs>
        <path id="DejaVuSans-30" d="M 2034 4250 
Q 1547 4250 1301 3770 
Q 1056 3291 1056 2328 
Q 1056 1369 1301 889 
Q 1547 409 2034 409 
Q 2525 409 2770 889 
Q 3016 1369 3016 2328 
Q 3016 3291 2770 3770 
Q 2525 4250 2034 4250 
z
M 2034 4750 
Q 2819 4750 3233 4129 
Q 3647 3509 3647 2328 
Q 3647 1150 3233 529 
Q 2819 -91 2034 -91 
Q 1250 -91 836 529 
Q 422 1150 422 2328 
Q 422 3509 836 4129 
Q 1250 4750 2034 4750 
z
" transform="scale(0.015625)"/>
       </defs>
       <use xlink:href="#DejaVuSans-2212"/>
       <use xlink:href="#DejaVuSans-34" x="83.789062"/>
       <use xlink:href="#DejaVuSans-30" x="147.412109"/>
      </g>
     </g>
    </g>
    <g id="xtick_3">
     <g id="line2d_3">
      <g>
       <use xlink:href="#m3e6c895c3b" x="179.618816" y="303.64" style="stroke: #000000; stroke-width: 0.8"/>
      </g>
     </g>
     <g id="text_3">
      <!-- −35 -->
      <g transform="translate(169.066472 318.238437)scale(0.1 -0.1)">
       <defs>
        <path id="DejaVuSans-33" d="M 2597 2516 
Q 3050 2419 3304 2112 
Q 3559 1806 3559 1356 
Q 3559 666 3084 287 
Q 2609 -91 1734 -91 
Q 1441 -91 1130 -33 
Q 819 25 488 141 
L 488 750 
Q 750 597 1062 519 
Q 1375 441 1716 441 
Q 2309 441 2620 675 
Q 2931 909 2931 1356 
Q 2931 1769 2642 2001 
Q 2353 2234 1838 2234 
L 1294 2234 
L 1294 2753 
L 1863 2753 
Q 2328 2753 2575 2939 
Q 2822 3125 2822 3475 
Q 2822 3834 2567 4026 
Q 2313 4219 1838 4219 
Q 1578 4219 1281 4162 
Q 984 4106 628 3988 
L 628 4550 
Q 988 4650 1302 4700 
Q 1616 4750 1894 4750 
Q 2613 4750 3031 4423 
Q 3450 4097 3450 3541 
Q 3450 3153 3228 2886 
Q 3006 2619 2597 2516 
z
" transform="scale(0.015625)"/>
       </defs>
       <use xlink:href="#DejaVuSans-2212"/>
       <use xlink:href="#DejaVuSans-33" x="83.789062"/>
       <use xlink:href="#DejaVuSans-35" x="147.412109"/>
      </g>
     </g>
    </g>
    <g id="xtick_4">
     <g id="line2d_4">
      <g>
       <use xlink:href="#m3e6c895c3b" x="224.795642" y="303.64" style="stroke: #000000; stroke-width: 0.8"/>
      </g>
     </g>
     <g id="text_4">
      <!-- −30 -->
      <g transform="translate(214.243298 318.238437)scale(0.1 -0.1)">
       <use xlink:href="#DejaVuSans-2212"/>
       <use xlink:href="#DejaVuSans-33" x="83.789062"/>
       <use xlink:href="#DejaVuSans-30" x="147.412109"/>
      </g>
     </g>
    </g>
    <g id="xtick_5">
     <g id="line2d_5">
      <g>
       <use xlink:href="#m3e6c895c3b" x="269.972468" y="303.64" style="stroke: #000000; stroke-width: 0.8"/>
      </g>
     </g>
     <g id="text_5">
      <!-- −25 -->
      <g transform="translate(259.420124 318.238437)scale(0.1 -0.1)">
       <defs>
        <path id="DejaVuSans-32" d="M 1228 531 
L 3431 531 
L 3431 0 
L 469 0 
L 469 531 
Q 828 903 1448 1529 
Q 2069 2156 2228 2338 
Q 2531 2678 2651 2914 
Q 2772 3150 2772 3378 
Q 2772 3750 2511 3984 
Q 2250 4219 1831 4219 
Q 1534 4219 1204 4116 
Q 875 4013 500 3803 
L 500 4441 
Q 881 4594 1212 4672 
Q 1544 4750 1819 4750 
Q 2544 4750 2975 4387 
Q 3406 4025 3406 3419 
Q 3406 3131 3298 2873 
Q 3191 2616 2906 2266 
Q 2828 2175 2409 1742 
Q 1991 1309 1228 531 
z
" transform="scale(0.015625)"/>
       </defs>
       <use xlink:href="#DejaVuSans-2212"/>
       <use xlink:href="#DejaVuSans-32" x="83.789062"/>
       <use xlink:href="#DejaVuSans-35" x="147.412109"/>
      </g>
     </g>
    </g>
    <g id="xtick_6">
     <g id="line2d_6">
      <g>
       <use xlink:href="#m3e6c895c3b" x="315.149294" y="303.64" style="stroke: #000000; stroke-width: 0.8"/>
      </g>
     </g>
     <g id="text_6">
      <!-- −20 -->
      <g transform="translate(304.59695 318.238437)scale(0.1 -0.1)">
       <use xlink:href="#DejaVuSans-2212"/>
       <use xlink:href="#DejaVuSans-32" x="83.789062"/>
       <use xlink:href="#DejaVuSans-30" x="147.412109"/>
      </g>
     </g>
    </g>
    <g id="xtick_7">
     <g id="line2d_7">
      <g>
       <use xlink:href="#m3e6c895c3b" x="360.326119" y="303.64" style="stroke: #000000; stroke-width: 0.8"/>
      </g>
     </g>
     <g id="text_7">
      <!-- −15 -->
      <g transform="translate(349.773776 318.238437)scale(0.1 -0.1)">
       <defs>
        <path id="DejaVuSans-31" d="M 794 531 
L 1825 531 
L 1825 4091 
L 703 3866 
L 703 4441 
L 1819 4666 
L 2450 4666 
L 2450 531 
L 3481 531 
L 3481 0 
L 794 0 
L 794 531 
z
" transform="scale(0.015625)"/>
       </defs>
       <use xlink:href="#DejaVuSans-2212"/>
       <use xlink:href="#DejaVuSans-31" x="83.789062"/>
       <use xlink:href="#DejaVuSans-35" x="147.412109"/>
      </g>
     </g>
    </g>
    <g id="xtick_8">
     <g id="line2d_8">
      <g>
       <use xlink:href="#m3e6c895c3b" x="405.502945" y="303.64" style="stroke: #000000; stroke-width: 0.8"/>
      </g>
     </g>
     <g id="text_8">
      <!-- −10 -->
      <g transform="translate(394.950602 318.238437)scale(0.1 -0.1)">
       <use xlink:href="#DejaVuSans-2212"/>
       <use xlink:href="#DejaVuSans-31" x="83.789062"/>
       <use xlink:href="#DejaVuSans-30" x="147.412109"/>
      </g>
     </g>
    </g>
    <g id="text_9">
     <!-- Total -->
     <g transform="translate(237.234062 331.916562)scale(0.1 -0.1)">
      <defs>
       <path id="DejaVuSans-54" d="M -19 4666 
L 3928 4666 
L 3928 4134 
L 2272 4134 
L 2272 0 
L 1638 0 
L 1638 4134 
L -19 4134 
L -19 4666 
z
" transform="scale(0.015625)"/>
       <path id="DejaVuSans-6f" d="M 1959 3097 
Q 1497 3097 1228 2736 
Q 959 2375 959 1747 
Q 959 1119 1226 758 
Q 1494 397 1959 397 
Q 2419 397 2687 759 
Q 2956 1122 2956 1747 
Q 2956 2369 2687 2733 
Q 2419 3097 1959 3097 
z
M 1959 3584 
Q 2709 3584 3137 3096 
Q 3566 2609 3566 1747 
Q 3566 888 3137 398 
Q 2709 -91 1959 -91 
Q 1206 -91 779 398 
Q 353 888 353 1747 
Q 353 2609 779 3096 
Q 1206 3584 1959 3584 
z
" transform="scale(0.015625)"/>
       <path id="DejaVuSans-74" d="M 1172 4494 
L 1172 3500 
L 2356 3500 
L 2356 3053 
L 1172 3053 
L 1172 1153 
Q 1172 725 1289 603 
Q 1406 481 1766 481 
L 2356 481 
L 2356 0 
L 1766 0 
Q 1100 0 847 248 
Q 594 497 594 1153 
L 594 3053 
L 172 3053 
L 172 3500 
L 594 3500 
L 594 4494 
L 1172 4494 
z
" transform="scale(0.015625)"/>
       <path id="DejaVuSans-61" d="M 2194 1759 
Q 1497 1759 1228 1600 
Q 959 1441 959 1056 
Q 959 750 1161 570 
Q 1363 391 1709 391 
Q 2188 391 2477 730 
Q 2766 1069 2766 1631 
L 2766 1759 
L 2194 1759 
z
M 3341 1997 
L 3341 0 
L 2766 0 
L 2766 531 
Q 2569 213 2275 61 
Q 1981 -91 1556 -91 
Q 1019 -91 701 211 
Q 384 513 384 1019 
Q 384 1609 779 1909 
Q 1175 2209 1959 2209 
L 2766 2209 
L 2766 2266 
Q 2766 2663 2505 2880 
Q 2244 3097 1772 3097 
Q 1472 3097 1187 3025 
Q 903 2953 641 2809 
L 641 3341 
Q 956 3463 1253 3523 
Q 1550 3584 1831 3584 
Q 2591 3584 2966 3190 
Q 3341 2797 3341 1997 
z
" transform="scale(0.015625)"/>
       <path id="DejaVuSans-6c" d="M 603 4863 
L 1178 4863 
L 1178 0 
L 603 0 
L 603 4863 
z
" transform="scale(0.015625)"/>
      </defs>
      <use xlink:href="#DejaVuSans-54"/>
      <use xlink:href="#DejaVuSans-6f" x="44.083984"/>
      <use xlink:href="#DejaVuSans-74" x="105.265625"/>
      <use xlink:href="#DejaVuSans-61" x="144.474609"/>
      <use xlink:href="#DejaVuSans-6c" x="205.753906"/>
     </g>
    </g>
   </g>
   <g id="matplotlib.axis_2">
    <g id="ytick_1">
     <g id="line2d_9">
      <defs>
       <path id="m5ced40b565" d="M 0 0 
L -3.5 0 
" style="stroke: #000000; stroke-width: 0.8"/>
      </defs>
      <g>
       <use xlink:href="#m5ced40b565" x="47.82125" y="303.64" style="stroke: #000000; stroke-width: 0.8"/>
      </g>
     </g>
     <g id="text_10">
      <!-- 0.0 -->
      <g transform="translate(24.918125 307.439219)scale(0.1 -0.1)">
       <defs>
        <path id="DejaVuSans-2e" d="M 684 794 
L 1344 794 
L 1344 0 
L 684 0 
L 684 794 
z
" transform="scale(0.015625)"/>
       </defs>
       <use xlink:href="#DejaVuSans-30"/>
       <use xlink:href="#DejaVuSans-2e" x="63.623047"/>
       <use xlink:href="#DejaVuSans-30" x="95.410156"/>
      </g>
     </g>
    </g>
    <g id="ytick_2">
     <g id="line2d_10">
      <g>
       <use xlink:href="#m5ced40b565" x="47.82125" y="260.320275" style="stroke: #000000; stroke-width: 0.8"/>
      </g>
     </g>
     <g id="text_11">
      <!-- 0.5 -->
      <g transform="translate(24.918125 264.119493)scale(0.1 -0.1)">
       <use xlink:href="#DejaVuSans-30"/>
       <use xlink:href="#DejaVuSans-2e" x="63.623047"/>
       <use xlink:href="#DejaVuSans-35" x="95.410156"/>
      </g>
     </g>
    </g>
    <g id="ytick_3">
     <g id="line2d_11">
      <g>
       <use xlink:href="#m5ced40b565" x="47.82125" y="217.000549" style="stroke: #000000; stroke-width: 0.8"/>
      </g>
     </g>
     <g id="text_12">
      <!-- 1.0 -->
      <g transform="translate(24.918125 220.799768)scale(0.1 -0.1)">
       <use xlink:href="#DejaVuSans-31"/>
       <use xlink:href="#DejaVuSans-2e" x="63.623047"/>
       <use xlink:href="#DejaVuSans-30" x="95.410156"/>
      </g>
     </g>
    </g>
    <g id="ytick_4">
     <g id="line2d_12">
      <g>
       <use xlink:href="#m5ced40b565" x="47.82125" y="173.680824" style="stroke: #000000; stroke-width: 0.8"/>
      </g>
     </g>
     <g id="text_13">
      <!-- 1.5 -->
      <g transform="translate(24.918125 177.480042)scale(0.1 -0.1)">
       <use xlink:href="#DejaVuSans-31"/>
       <use xlink:href="#DejaVuSans-2e" x="63.623047"/>
       <use xlink:href="#DejaVuSans-35" x="95.410156"/>
      </g>
     </g>
    </g>
    <g id="ytick_5">
     <g id="line2d_13">
      <g>
       <use xlink:href="#m5ced40b565" x="47.82125" y="130.361098" style="stroke: #000000; stroke-width: 0.8"/>
      </g>
     </g>
     <g id="text_14">
      <!-- 2.0 -->
      <g transform="translate(24.918125 134.160317)scale(0.1 -0.1)">
       <use xlink:href="#DejaVuSans-32"/>
       <use xlink:href="#DejaVuSans-2e" x="63.623047"/>
       <use xlink:href="#DejaVuSans-30" x="95.410156"/>
      </g>
     </g>
    </g>
    <g id="ytick_6">
     <g id="line2d_14">
      <g>
       <use xlink:href="#m5ced40b565" x="47.82125" y="87.041373" style="stroke: #000000; stroke-width: 0.8"/>
      </g>
     </g>
     <g id="text_15">
      <!-- 2.5 -->
      <g transform="translate(24.918125 90.840592)scale(0.1 -0.1)">
       <use xlink:href="#DejaVuSans-32"/>
       <use xlink:href="#DejaVuSans-2e" x="63.623047"/>
       <use xlink:href="#DejaVuSans-35" x="95.410156"/>
      </g>
     </g>
    </g>
    <g id="text_16">
     <!-- PercentGpA_transformed -->
     <g transform="translate(18.560312 237.630275)rotate(-90)scale(0.1 -0.1)">
      <defs>
       <path id="DejaVuSans-50" d="M 1259 4147 
L 1259 2394 
L 2053 2394 
Q 2494 2394 2734 2622 
Q 2975 2850 2975 3272 
Q 2975 3691 2734 3919 
Q 2494 4147 2053 4147 
L 1259 4147 
z
M 628 4666 
L 2053 4666 
Q 2838 4666 3239 4311 
Q 3641 3956 3641 3272 
Q 3641 2581 3239 2228 
Q 2838 1875 2053 1875 
L 1259 1875 
L 1259 0 
L 628 0 
L 628 4666 
z
" transform="scale(0.015625)"/>
       <path id="DejaVuSans-65" d="M 3597 1894 
L 3597 1613 
L 953 1613 
Q 991 1019 1311 708 
Q 1631 397 2203 397 
Q 2534 397 2845 478 
Q 3156 559 3463 722 
L 3463 178 
Q 3153 47 2828 -22 
Q 2503 -91 2169 -91 
Q 1331 -91 842 396 
Q 353 884 353 1716 
Q 353 2575 817 3079 
Q 1281 3584 2069 3584 
Q 2775 3584 3186 3129 
Q 3597 2675 3597 1894 
z
M 3022 2063 
Q 3016 2534 2758 2815 
Q 2500 3097 2075 3097 
Q 1594 3097 1305 2825 
Q 1016 2553 972 2059 
L 3022 2063 
z
" transform="scale(0.015625)"/>
       <path id="DejaVuSans-72" d="M 2631 2963 
Q 2534 3019 2420 3045 
Q 2306 3072 2169 3072 
Q 1681 3072 1420 2755 
Q 1159 2438 1159 1844 
L 1159 0 
L 581 0 
L 581 3500 
L 1159 3500 
L 1159 2956 
Q 1341 3275 1631 3429 
Q 1922 3584 2338 3584 
Q 2397 3584 2469 3576 
Q 2541 3569 2628 3553 
L 2631 2963 
z
" transform="scale(0.015625)"/>
       <path id="DejaVuSans-63" d="M 3122 3366 
L 3122 2828 
Q 2878 2963 2633 3030 
Q 2388 3097 2138 3097 
Q 1578 3097 1268 2742 
Q 959 2388 959 1747 
Q 959 1106 1268 751 
Q 1578 397 2138 397 
Q 2388 397 2633 464 
Q 2878 531 3122 666 
L 3122 134 
Q 2881 22 2623 -34 
Q 2366 -91 2075 -91 
Q 1284 -91 818 406 
Q 353 903 353 1747 
Q 353 2603 823 3093 
Q 1294 3584 2113 3584 
Q 2378 3584 2631 3529 
Q 2884 3475 3122 3366 
z
" transform="scale(0.015625)"/>
       <path id="DejaVuSans-6e" d="M 3513 2113 
L 3513 0 
L 2938 0 
L 2938 2094 
Q 2938 2591 2744 2837 
Q 2550 3084 2163 3084 
Q 1697 3084 1428 2787 
Q 1159 2491 1159 1978 
L 1159 0 
L 581 0 
L 581 3500 
L 1159 3500 
L 1159 2956 
Q 1366 3272 1645 3428 
Q 1925 3584 2291 3584 
Q 2894 3584 3203 3211 
Q 3513 2838 3513 2113 
z
" transform="scale(0.015625)"/>
       <path id="DejaVuSans-47" d="M 3809 666 
L 3809 1919 
L 2778 1919 
L 2778 2438 
L 4434 2438 
L 4434 434 
Q 4069 175 3628 42 
Q 3188 -91 2688 -91 
Q 1594 -91 976 548 
Q 359 1188 359 2328 
Q 359 3472 976 4111 
Q 1594 4750 2688 4750 
Q 3144 4750 3555 4637 
Q 3966 4525 4313 4306 
L 4313 3634 
Q 3963 3931 3569 4081 
Q 3175 4231 2741 4231 
Q 1884 4231 1454 3753 
Q 1025 3275 1025 2328 
Q 1025 1384 1454 906 
Q 1884 428 2741 428 
Q 3075 428 3337 486 
Q 3600 544 3809 666 
z
" transform="scale(0.015625)"/>
       <path id="DejaVuSans-70" d="M 1159 525 
L 1159 -1331 
L 581 -1331 
L 581 3500 
L 1159 3500 
L 1159 2969 
Q 1341 3281 1617 3432 
Q 1894 3584 2278 3584 
Q 2916 3584 3314 3078 
Q 3713 2572 3713 1747 
Q 3713 922 3314 415 
Q 2916 -91 2278 -91 
Q 1894 -91 1617 61 
Q 1341 213 1159 525 
z
M 3116 1747 
Q 3116 2381 2855 2742 
Q 2594 3103 2138 3103 
Q 1681 3103 1420 2742 
Q 1159 2381 1159 1747 
Q 1159 1113 1420 752 
Q 1681 391 2138 391 
Q 2594 391 2855 752 
Q 3116 1113 3116 1747 
z
" transform="scale(0.015625)"/>
       <path id="DejaVuSans-41" d="M 2188 4044 
L 1331 1722 
L 3047 1722 
L 2188 4044 
z
M 1831 4666 
L 2547 4666 
L 4325 0 
L 3669 0 
L 3244 1197 
L 1141 1197 
L 716 0 
L 50 0 
L 1831 4666 
z
" transform="scale(0.015625)"/>
       <path id="DejaVuSans-5f" d="M 3263 -1063 
L 3263 -1509 
L -63 -1509 
L -63 -1063 
L 3263 -1063 
z
" transform="scale(0.015625)"/>
       <path id="DejaVuSans-73" d="M 2834 3397 
L 2834 2853 
Q 2591 2978 2328 3040 
Q 2066 3103 1784 3103 
Q 1356 3103 1142 2972 
Q 928 2841 928 2578 
Q 928 2378 1081 2264 
Q 1234 2150 1697 2047 
L 1894 2003 
Q 2506 1872 2764 1633 
Q 3022 1394 3022 966 
Q 3022 478 2636 193 
Q 2250 -91 1575 -91 
Q 1294 -91 989 -36 
Q 684 19 347 128 
L 347 722 
Q 666 556 975 473 
Q 1284 391 1588 391 
Q 1994 391 2212 530 
Q 2431 669 2431 922 
Q 2431 1156 2273 1281 
Q 2116 1406 1581 1522 
L 1381 1569 
Q 847 1681 609 1914 
Q 372 2147 372 2553 
Q 372 3047 722 3315 
Q 1072 3584 1716 3584 
Q 2034 3584 2315 3537 
Q 2597 3491 2834 3397 
z
" transform="scale(0.015625)"/>
       <path id="DejaVuSans-66" d="M 2375 4863 
L 2375 4384 
L 1825 4384 
Q 1516 4384 1395 4259 
Q 1275 4134 1275 3809 
L 1275 3500 
L 2222 3500 
L 2222 3053 
L 1275 3053 
L 1275 0 
L 697 0 
L 697 3053 
L 147 3053 
L 147 3500 
L 697 3500 
L 697 3744 
Q 697 4328 969 4595 
Q 1241 4863 1831 4863 
L 2375 4863 
z
" transform="scale(0.015625)"/>
       <path id="DejaVuSans-6d" d="M 3328 2828 
Q 3544 3216 3844 3400 
Q 4144 3584 4550 3584 
Q 5097 3584 5394 3201 
Q 5691 2819 5691 2113 
L 5691 0 
L 5113 0 
L 5113 2094 
Q 5113 2597 4934 2840 
Q 4756 3084 4391 3084 
Q 3944 3084 3684 2787 
Q 3425 2491 3425 1978 
L 3425 0 
L 2847 0 
L 2847 2094 
Q 2847 2600 2669 2842 
Q 2491 3084 2119 3084 
Q 1678 3084 1418 2786 
Q 1159 2488 1159 1978 
L 1159 0 
L 581 0 
L 581 3500 
L 1159 3500 
L 1159 2956 
Q 1356 3278 1631 3431 
Q 1906 3584 2284 3584 
Q 2666 3584 2933 3390 
Q 3200 3197 3328 2828 
z
" transform="scale(0.015625)"/>
       <path id="DejaVuSans-64" d="M 2906 2969 
L 2906 4863 
L 3481 4863 
L 3481 0 
L 2906 0 
L 2906 525 
Q 2725 213 2448 61 
Q 2172 -91 1784 -91 
Q 1150 -91 751 415 
Q 353 922 353 1747 
Q 353 2572 751 3078 
Q 1150 3584 1784 3584 
Q 2172 3584 2448 3432 
Q 2725 3281 2906 2969 
z
M 947 1747 
Q 947 1113 1208 752 
Q 1469 391 1925 391 
Q 2381 391 2643 752 
Q 2906 1113 2906 1747 
Q 2906 2381 2643 2742 
Q 2381 3103 1925 3103 
Q 1469 3103 1208 2742 
Q 947 2381 947 1747 
z
" transform="scale(0.015625)"/>
      </defs>
      <use xlink:href="#DejaVuSans-50"/>
      <use xlink:href="#DejaVuSans-65" x="56.677734"/>
      <use xlink:href="#DejaVuSans-72" x="118.201172"/>
      <use xlink:href="#DejaVuSans-63" x="157.064453"/>
      <use xlink:href="#DejaVuSans-65" x="212.044922"/>
      <use xlink:href="#DejaVuSans-6e" x="273.568359"/>
      <use xlink:href="#DejaVuSans-74" x="336.947266"/>
      <use xlink:href="#DejaVuSans-47" x="376.15625"/>
      <use xlink:href="#DejaVuSans-70" x="453.646484"/>
      <use xlink:href="#DejaVuSans-41" x="517.123047"/>
      <use xlink:href="#DejaVuSans-5f" x="585.53125"/>
      <use xlink:href="#DejaVuSans-74" x="635.53125"/>
      <use xlink:href="#DejaVuSans-72" x="674.740234"/>
      <use xlink:href="#DejaVuSans-61" x="715.853516"/>
      <use xlink:href="#DejaVuSans-6e" x="777.132812"/>
      <use xlink:href="#DejaVuSans-73" x="840.511719"/>
      <use xlink:href="#DejaVuSans-66" x="892.611328"/>
      <use xlink:href="#DejaVuSans-6f" x="927.816406"/>
      <use xlink:href="#DejaVuSans-72" x="988.998047"/>
      <use xlink:href="#DejaVuSans-6d" x="1028.361328"/>
      <use xlink:href="#DejaVuSans-65" x="1125.773438"/>
      <use xlink:href="#DejaVuSans-64" x="1187.296875"/>
     </g>
    </g>
   </g>
   <g id="LineCollection_1">
    <path d="M 66.102102 201.311116 
L 66.102102 187.802805 
" clip-path="url(#p41b2c5cae0)" style="fill: none; stroke: #d3d3d3; stroke-width: 3"/>
    <path d="M 82.364856 237.491018 
L 82.364856 229.304681 
" clip-path="url(#p41b2c5cae0)" style="fill: none; stroke: #d3d3d3; stroke-width: 3"/>
    <path d="M 134.292907 192.604443 
L 134.292907 165.678922 
" clip-path="url(#p41b2c5cae0)" style="fill: none; stroke: #d3d3d3; stroke-width: 3"/>
    <path d="M 136.541809 203.028543 
L 136.541809 190.799754 
" clip-path="url(#p41b2c5cae0)" style="fill: none; stroke: #d3d3d3; stroke-width: 3"/>
    <path d="M 141.922369 187.58804 
L 141.922369 164.581969 
" clip-path="url(#p41b2c5cae0)" style="fill: none; stroke: #d3d3d3; stroke-width: 3"/>
    <path d="M 158.954032 192.115181 
L 158.954032 177.464316 
" clip-path="url(#p41b2c5cae0)" style="fill: none; stroke: #d3d3d3; stroke-width: 3"/>
    <path d="M 181.620149 226.237782 
L 181.620149 214.453187 
" clip-path="url(#p41b2c5cae0)" style="fill: none; stroke: #d3d3d3; stroke-width: 3"/>
    <path d="M 188.848442 282.383302 
L 188.848442 276.955263 
" clip-path="url(#p41b2c5cae0)" style="fill: none; stroke: #d3d3d3; stroke-width: 3"/>
    <path d="M 195.2762 223.211549 
L 195.2762 211.298379 
" clip-path="url(#p41b2c5cae0)" style="fill: none; stroke: #d3d3d3; stroke-width: 3"/>
    <path d="M 203.582412 234.813725 
L 203.582412 173.898651 
" clip-path="url(#p41b2c5cae0)" style="fill: none; stroke: #d3d3d3; stroke-width: 3"/>
    <path d="M 211.632922 197.109517 
L 211.632922 165.319908 
" clip-path="url(#p41b2c5cae0)" style="fill: none; stroke: #d3d3d3; stroke-width: 3"/>
    <path d="M 215.559692 278.201268 
L 215.559692 267.77716 
" clip-path="url(#p41b2c5cae0)" style="fill: none; stroke: #d3d3d3; stroke-width: 3"/>
    <path d="M 217.904369 210.354532 
L 217.904369 174.535769 
" clip-path="url(#p41b2c5cae0)" style="fill: none; stroke: #d3d3d3; stroke-width: 3"/>
    <path d="M 218.104954 259.911932 
L 218.104954 195.239993 
" clip-path="url(#p41b2c5cae0)" style="fill: none; stroke: #d3d3d3; stroke-width: 3"/>
    <path d="M 221.710065 204.204304 
L 221.710065 188.860588 
" clip-path="url(#p41b2c5cae0)" style="fill: none; stroke: #d3d3d3; stroke-width: 3"/>
    <path d="M 222.466325 272.412352 
L 222.466325 262.054117 
" clip-path="url(#p41b2c5cae0)" style="fill: none; stroke: #d3d3d3; stroke-width: 3"/>
    <path d="M 225.63322 250.404179 
L 225.63322 243.841652 
" clip-path="url(#p41b2c5cae0)" style="fill: none; stroke: #d3d3d3; stroke-width: 3"/>
    <path d="M 228.631154 209.872892 
L 228.631154 148.843659 
" clip-path="url(#p41b2c5cae0)" style="fill: none; stroke: #d3d3d3; stroke-width: 3"/>
    <path d="M 229.151592 249.820534 
L 229.151592 67.21882 
" clip-path="url(#p41b2c5cae0)" style="fill: none; stroke: #d3d3d3; stroke-width: 3"/>
    <path d="M 229.850929 208.229036 
L 229.850929 189.967468 
" clip-path="url(#p41b2c5cae0)" style="fill: none; stroke: #d3d3d3; stroke-width: 3"/>
    <path d="M 232.705201 282.392953 
L 232.705201 277.153594 
" clip-path="url(#p41b2c5cae0)" style="fill: none; stroke: #d3d3d3; stroke-width: 3"/>
    <path d="M 234.787852 205.970353 
L 234.787852 184.637371 
" clip-path="url(#p41b2c5cae0)" style="fill: none; stroke: #d3d3d3; stroke-width: 3"/>
    <path d="M 235.4131 183.013862 
L 235.4131 139.903936 
" clip-path="url(#p41b2c5cae0)" style="fill: none; stroke: #d3d3d3; stroke-width: 3"/>
    <path d="M 235.657958 192.157632 
L 235.657958 186.660489 
" clip-path="url(#p41b2c5cae0)" style="fill: none; stroke: #d3d3d3; stroke-width: 3"/>
    <path d="M 236.962665 254.256402 
L 236.962665 243.101237 
" clip-path="url(#p41b2c5cae0)" style="fill: none; stroke: #d3d3d3; stroke-width: 3"/>
    <path d="M 238.887197 237.848548 
L 238.887197 58.211424 
" clip-path="url(#p41b2c5cae0)" style="fill: none; stroke: #d3d3d3; stroke-width: 3"/>
    <path d="M 243.3588 242.497447 
L 243.3588 230.672084 
" clip-path="url(#p41b2c5cae0)" style="fill: none; stroke: #d3d3d3; stroke-width: 3"/>
    <path d="M 244.153008 274.480789 
L 244.153008 265.891261 
" clip-path="url(#p41b2c5cae0)" style="fill: none; stroke: #d3d3d3; stroke-width: 3"/>
    <path d="M 244.884873 252.932321 
L 244.884873 222.558162 
" clip-path="url(#p41b2c5cae0)" style="fill: none; stroke: #d3d3d3; stroke-width: 3"/>
    <path d="M 251.868307 258.689487 
L 251.868307 243.145436 
" clip-path="url(#p41b2c5cae0)" style="fill: none; stroke: #d3d3d3; stroke-width: 3"/>
    <path d="M 252.37248 216.343318 
L 252.37248 197.9666 
" clip-path="url(#p41b2c5cae0)" style="fill: none; stroke: #d3d3d3; stroke-width: 3"/>
    <path d="M 254.261775 195.50289 
L 254.261775 174.309722 
" clip-path="url(#p41b2c5cae0)" style="fill: none; stroke: #d3d3d3; stroke-width: 3"/>
    <path d="M 256.288407 230.460098 
L 256.288407 209.656637 
" clip-path="url(#p41b2c5cae0)" style="fill: none; stroke: #d3d3d3; stroke-width: 3"/>
    <path d="M 264.444631 241.868953 
L 264.444631 75.494558 
" clip-path="url(#p41b2c5cae0)" style="fill: none; stroke: #d3d3d3; stroke-width: 3"/>
    <path d="M 265.474663 206.440565 
L 265.474663 173.303929 
" clip-path="url(#p41b2c5cae0)" style="fill: none; stroke: #d3d3d3; stroke-width: 3"/>
    <path d="M 266.70528 213.829862 
L 266.70528 191.122101 
" clip-path="url(#p41b2c5cae0)" style="fill: none; stroke: #d3d3d3; stroke-width: 3"/>
    <path d="M 268.349716 231.720494 
L 268.349716 215.744152 
" clip-path="url(#p41b2c5cae0)" style="fill: none; stroke: #d3d3d3; stroke-width: 3"/>
    <path d="M 269.113205 280.720892 
L 269.113205 272.849631 
" clip-path="url(#p41b2c5cae0)" style="fill: none; stroke: #d3d3d3; stroke-width: 3"/>
    <path d="M 284.913348 284.850453 
L 284.913348 274.355414 
" clip-path="url(#p41b2c5cae0)" style="fill: none; stroke: #d3d3d3; stroke-width: 3"/>
    <path d="M 292.478659 192.74095 
L 292.478659 160.761847 
" clip-path="url(#p41b2c5cae0)" style="fill: none; stroke: #d3d3d3; stroke-width: 3"/>
    <path d="M 292.551845 197.488483 
L 292.551845 177.266478 
" clip-path="url(#p41b2c5cae0)" style="fill: none; stroke: #d3d3d3; stroke-width: 3"/>
    <path d="M 292.578951 203.555823 
L 292.578951 191.191703 
" clip-path="url(#p41b2c5cae0)" style="fill: none; stroke: #d3d3d3; stroke-width: 3"/>
    <path d="M 292.822906 234.560677 
L 292.822906 224.432027 
" clip-path="url(#p41b2c5cae0)" style="fill: none; stroke: #d3d3d3; stroke-width: 3"/>
    <path d="M 294.625462 220.415753 
L 294.625462 209.867562 
" clip-path="url(#p41b2c5cae0)" style="fill: none; stroke: #d3d3d3; stroke-width: 3"/>
    <path d="M 294.665217 194.960285 
L 294.665217 166.317046 
" clip-path="url(#p41b2c5cae0)" style="fill: none; stroke: #d3d3d3; stroke-width: 3"/>
    <path d="M 300.372857 251.965328 
L 300.372857 227.600306 
" clip-path="url(#p41b2c5cae0)" style="fill: none; stroke: #d3d3d3; stroke-width: 3"/>
    <path d="M 301.252902 200.727246 
L 301.252902 172.212928 
" clip-path="url(#p41b2c5cae0)" style="fill: none; stroke: #d3d3d3; stroke-width: 3"/>
    <path d="M 301.493243 245.069047 
L 301.493243 243.095 
" clip-path="url(#p41b2c5cae0)" style="fill: none; stroke: #d3d3d3; stroke-width: 3"/>
    <path d="M 302.752773 250.295455 
L 302.752773 205.575856 
" clip-path="url(#p41b2c5cae0)" style="fill: none; stroke: #d3d3d3; stroke-width: 3"/>
    <path d="M 303.888518 227.070169 
L 303.888518 215.288426 
" clip-path="url(#p41b2c5cae0)" style="fill: none; stroke: #d3d3d3; stroke-width: 3"/>
    <path d="M 308.398069 209.975877 
L 308.398069 195.419115 
" clip-path="url(#p41b2c5cae0)" style="fill: none; stroke: #d3d3d3; stroke-width: 3"/>
    <path d="M 311.276736 195.878842 
L 311.276736 158.347042 
" clip-path="url(#p41b2c5cae0)" style="fill: none; stroke: #d3d3d3; stroke-width: 3"/>
    <path d="M 314.180702 224.376726 
L 314.180702 211.932584 
" clip-path="url(#p41b2c5cae0)" style="fill: none; stroke: #d3d3d3; stroke-width: 3"/>
    <path d="M 319.743777 208.850883 
L 319.743777 175.392492 
" clip-path="url(#p41b2c5cae0)" style="fill: none; stroke: #d3d3d3; stroke-width: 3"/>
    <path d="M 322.911576 229.878916 
L 322.911576 206.479489 
" clip-path="url(#p41b2c5cae0)" style="fill: none; stroke: #d3d3d3; stroke-width: 3"/>
    <path d="M 325.974565 233.557324 
L 325.974565 221.843577 
" clip-path="url(#p41b2c5cae0)" style="fill: none; stroke: #d3d3d3; stroke-width: 3"/>
    <path d="M 341.803621 213.504916 
L 341.803621 183.064023 
" clip-path="url(#p41b2c5cae0)" style="fill: none; stroke: #d3d3d3; stroke-width: 3"/>
    <path d="M 344.401288 222.545453 
L 344.401288 181.566852 
" clip-path="url(#p41b2c5cae0)" style="fill: none; stroke: #d3d3d3; stroke-width: 3"/>
    <path d="M 345.332835 266.382796 
L 345.332835 256.181947 
" clip-path="url(#p41b2c5cae0)" style="fill: none; stroke: #d3d3d3; stroke-width: 3"/>
    <path d="M 347.412776 191.274802 
L 347.412776 170.511527 
" clip-path="url(#p41b2c5cae0)" style="fill: none; stroke: #d3d3d3; stroke-width: 3"/>
    <path d="M 367.260762 230.079404 
L 367.260762 217.70666 
" clip-path="url(#p41b2c5cae0)" style="fill: none; stroke: #d3d3d3; stroke-width: 3"/>
    <path d="M 369.361485 248.047438 
L 369.361485 237.299067 
" clip-path="url(#p41b2c5cae0)" style="fill: none; stroke: #d3d3d3; stroke-width: 3"/>
    <path d="M 385.154399 223.938646 
L 385.154399 214.301205 
" clip-path="url(#p41b2c5cae0)" style="fill: none; stroke: #d3d3d3; stroke-width: 3"/>
    <path d="M 403.994039 189.421457 
L 403.994039 172.17327 
" clip-path="url(#p41b2c5cae0)" style="fill: none; stroke: #d3d3d3; stroke-width: 3"/>
    <path d="M 410.223472 262.405221 
L 410.223472 258.210751 
" clip-path="url(#p41b2c5cae0)" style="fill: none; stroke: #d3d3d3; stroke-width: 3"/>
    <path d="M 431.719148 291.560163 
L 431.719148 277.466671 
" clip-path="url(#p41b2c5cae0)" style="fill: none; stroke: #d3d3d3; stroke-width: 3"/>
   </g>
   <g id="line2d_15">
    <path d="M 66.102102 199.98525 
L 82.364856 201.19056 
L 134.292907 205.039194 
L 136.541809 205.205871 
L 141.922369 205.60465 
L 158.954032 206.866947 
L 181.620149 208.546841 
L 188.848442 209.082564 
L 195.2762 209.558956 
L 203.582412 210.174569 
L 211.632922 210.77123 
L 215.559692 211.062262 
L 217.904369 211.236037 
L 218.104954 211.250903 
L 221.710065 211.518095 
L 222.466325 211.574145 
L 225.63322 211.808859 
L 228.631154 212.03105 
L 229.151592 212.069622 
L 229.850929 212.121453 
L 232.705201 212.332997 
L 234.787852 212.487352 
L 235.4131 212.533692 
L 235.657958 212.55184 
L 236.962665 212.648538 
L 238.887197 212.791174 
L 243.3588 213.122586 
L 244.153008 213.181448 
L 244.884873 213.23569 
L 251.868307 213.753266 
L 252.37248 213.790632 
L 254.261775 213.930657 
L 256.288407 214.08086 
L 264.444631 214.685357 
L 265.474663 214.761697 
L 266.70528 214.852904 
L 268.349716 214.974781 
L 269.113205 215.031367 
L 284.913348 216.20239 
L 292.478659 216.763092 
L 292.551845 216.768516 
L 292.578951 216.770525 
L 292.822906 216.788605 
L 294.625462 216.922201 
L 294.665217 216.925148 
L 300.372857 217.348168 
L 301.252902 217.413392 
L 301.493243 217.431205 
L 302.752773 217.524555 
L 303.888518 217.60873 
L 308.398069 217.942955 
L 311.276736 218.156306 
L 314.180702 218.371533 
L 319.743777 218.783839 
L 322.911576 219.01862 
L 325.974565 219.245632 
L 341.803621 220.418799 
L 344.401288 220.611324 
L 345.332835 220.680366 
L 347.412776 220.83452 
L 367.260762 222.305548 
L 369.361485 222.461243 
L 385.154399 223.631731 
L 403.994039 225.028026 
L 410.223472 225.489719 
L 431.719148 227.082865 
" clip-path="url(#p41b2c5cae0)" style="fill: none; stroke: #1f77b4; stroke-width: 1.5; stroke-linecap: square"/>
   </g>
   <g id="line2d_16">
    <defs>
     <path id="m1e4d02fec6" d="M 0 3 
C 0.795609 3 1.55874 2.683901 2.12132 2.12132 
C 2.683901 1.55874 3 0.795609 3 0 
C 3 -0.795609 2.683901 -1.55874 2.12132 -2.12132 
C 1.55874 -2.683901 0.795609 -3 0 -3 
C -0.795609 -3 -1.55874 -2.683901 -2.12132 -2.12132 
C -2.683901 -1.55874 -3 -0.795609 -3 0 
C -3 0.795609 -2.683901 1.55874 -2.12132 2.12132 
C -1.55874 2.683901 -0.795609 3 0 3 
z
" style="stroke: #000000"/>
    </defs>
    <g clip-path="url(#p41b2c5cae0)">
     <use xlink:href="#m1e4d02fec6" x="66.102102" y="194.556961" style="stroke: #000000"/>
     <use xlink:href="#m1e4d02fec6" x="82.364856" y="233.397849" style="stroke: #000000"/>
     <use xlink:href="#m1e4d02fec6" x="134.292907" y="179.141683" style="stroke: #000000"/>
     <use xlink:href="#m1e4d02fec6" x="136.541809" y="196.914149" style="stroke: #000000"/>
     <use xlink:href="#m1e4d02fec6" x="141.922369" y="176.085005" style="stroke: #000000"/>
     <use xlink:href="#m1e4d02fec6" x="158.954032" y="184.789748" style="stroke: #000000"/>
     <use xlink:href="#m1e4d02fec6" x="181.620149" y="220.345485" style="stroke: #000000"/>
     <use xlink:href="#m1e4d02fec6" x="188.848442" y="279.669282" style="stroke: #000000"/>
     <use xlink:href="#m1e4d02fec6" x="195.2762" y="217.254964" style="stroke: #000000"/>
     <use xlink:href="#m1e4d02fec6" x="203.582412" y="204.356188" style="stroke: #000000"/>
     <use xlink:href="#m1e4d02fec6" x="211.632922" y="181.214712" style="stroke: #000000"/>
     <use xlink:href="#m1e4d02fec6" x="215.559692" y="272.989214" style="stroke: #000000"/>
     <use xlink:href="#m1e4d02fec6" x="217.904369" y="192.44515" style="stroke: #000000"/>
     <use xlink:href="#m1e4d02fec6" x="218.104954" y="227.575962" style="stroke: #000000"/>
     <use xlink:href="#m1e4d02fec6" x="221.710065" y="196.532446" style="stroke: #000000"/>
     <use xlink:href="#m1e4d02fec6" x="222.466325" y="267.233234" style="stroke: #000000"/>
     <use xlink:href="#m1e4d02fec6" x="225.63322" y="247.122915" style="stroke: #000000"/>
     <use xlink:href="#m1e4d02fec6" x="228.631154" y="179.358275" style="stroke: #000000"/>
     <use xlink:href="#m1e4d02fec6" x="229.151592" y="158.519677" style="stroke: #000000"/>
     <use xlink:href="#m1e4d02fec6" x="229.850929" y="199.098252" style="stroke: #000000"/>
     <use xlink:href="#m1e4d02fec6" x="232.705201" y="279.773274" style="stroke: #000000"/>
     <use xlink:href="#m1e4d02fec6" x="234.787852" y="195.303862" style="stroke: #000000"/>
     <use xlink:href="#m1e4d02fec6" x="235.4131" y="161.458899" style="stroke: #000000"/>
     <use xlink:href="#m1e4d02fec6" x="235.657958" y="189.409061" style="stroke: #000000"/>
     <use xlink:href="#m1e4d02fec6" x="236.962665" y="248.678819" style="stroke: #000000"/>
     <use xlink:href="#m1e4d02fec6" x="238.887197" y="148.029986" style="stroke: #000000"/>
     <use xlink:href="#m1e4d02fec6" x="243.3588" y="236.584766" style="stroke: #000000"/>
     <use xlink:href="#m1e4d02fec6" x="244.153008" y="270.186025" style="stroke: #000000"/>
     <use xlink:href="#m1e4d02fec6" x="244.884873" y="237.745242" style="stroke: #000000"/>
     <use xlink:href="#m1e4d02fec6" x="251.868307" y="250.917461" style="stroke: #000000"/>
     <use xlink:href="#m1e4d02fec6" x="252.37248" y="207.154959" style="stroke: #000000"/>
     <use xlink:href="#m1e4d02fec6" x="254.261775" y="184.906306" style="stroke: #000000"/>
     <use xlink:href="#m1e4d02fec6" x="256.288407" y="220.058367" style="stroke: #000000"/>
     <use xlink:href="#m1e4d02fec6" x="264.444631" y="158.681755" style="stroke: #000000"/>
     <use xlink:href="#m1e4d02fec6" x="265.474663" y="189.872247" style="stroke: #000000"/>
     <use xlink:href="#m1e4d02fec6" x="266.70528" y="202.475981" style="stroke: #000000"/>
     <use xlink:href="#m1e4d02fec6" x="268.349716" y="223.732323" style="stroke: #000000"/>
     <use xlink:href="#m1e4d02fec6" x="269.113205" y="276.785261" style="stroke: #000000"/>
     <use xlink:href="#m1e4d02fec6" x="284.913348" y="279.602934" style="stroke: #000000"/>
     <use xlink:href="#m1e4d02fec6" x="292.478659" y="176.751399" style="stroke: #000000"/>
     <use xlink:href="#m1e4d02fec6" x="292.551845" y="187.37748" style="stroke: #000000"/>
     <use xlink:href="#m1e4d02fec6" x="292.578951" y="197.373763" style="stroke: #000000"/>
     <use xlink:href="#m1e4d02fec6" x="292.822906" y="229.496352" style="stroke: #000000"/>
     <use xlink:href="#m1e4d02fec6" x="294.625462" y="215.141658" style="stroke: #000000"/>
     <use xlink:href="#m1e4d02fec6" x="294.665217" y="180.638666" style="stroke: #000000"/>
     <use xlink:href="#m1e4d02fec6" x="300.372857" y="239.782817" style="stroke: #000000"/>
     <use xlink:href="#m1e4d02fec6" x="301.252902" y="186.470087" style="stroke: #000000"/>
     <use xlink:href="#m1e4d02fec6" x="301.493243" y="244.082023" style="stroke: #000000"/>
     <use xlink:href="#m1e4d02fec6" x="302.752773" y="227.935656" style="stroke: #000000"/>
     <use xlink:href="#m1e4d02fec6" x="303.888518" y="221.179297" style="stroke: #000000"/>
     <use xlink:href="#m1e4d02fec6" x="308.398069" y="202.697496" style="stroke: #000000"/>
     <use xlink:href="#m1e4d02fec6" x="311.276736" y="177.112942" style="stroke: #000000"/>
     <use xlink:href="#m1e4d02fec6" x="314.180702" y="218.154655" style="stroke: #000000"/>
     <use xlink:href="#m1e4d02fec6" x="319.743777" y="192.121688" style="stroke: #000000"/>
     <use xlink:href="#m1e4d02fec6" x="322.911576" y="218.179203" style="stroke: #000000"/>
     <use xlink:href="#m1e4d02fec6" x="325.974565" y="227.70045" style="stroke: #000000"/>
     <use xlink:href="#m1e4d02fec6" x="341.803621" y="198.284469" style="stroke: #000000"/>
     <use xlink:href="#m1e4d02fec6" x="344.401288" y="202.056153" style="stroke: #000000"/>
     <use xlink:href="#m1e4d02fec6" x="345.332835" y="261.282372" style="stroke: #000000"/>
     <use xlink:href="#m1e4d02fec6" x="347.412776" y="180.893164" style="stroke: #000000"/>
     <use xlink:href="#m1e4d02fec6" x="367.260762" y="223.893032" style="stroke: #000000"/>
     <use xlink:href="#m1e4d02fec6" x="369.361485" y="242.673252" style="stroke: #000000"/>
     <use xlink:href="#m1e4d02fec6" x="385.154399" y="219.119926" style="stroke: #000000"/>
     <use xlink:href="#m1e4d02fec6" x="403.994039" y="180.797364" style="stroke: #000000"/>
     <use xlink:href="#m1e4d02fec6" x="410.223472" y="260.307986" style="stroke: #000000"/>
     <use xlink:href="#m1e4d02fec6" x="431.719148" y="284.513417" style="stroke: #000000"/>
    </g>
   </g>
   <g id="patch_3">
    <path d="M 47.82125 303.64 
L 47.82125 46.543987 
" style="fill: none; stroke: #000000; stroke-width: 0.8; stroke-linejoin: miter; stroke-linecap: square"/>
   </g>
   <g id="patch_4">
    <path d="M 450 303.64 
L 450 46.543987 
" style="fill: none; stroke: #000000; stroke-width: 0.8; stroke-linejoin: miter; stroke-linecap: square"/>
   </g>
   <g id="patch_5">
    <path d="M 47.82125 303.64 
L 450 303.64 
" style="fill: none; stroke: #000000; stroke-width: 0.8; stroke-linejoin: miter; stroke-linecap: square"/>
   </g>
   <g id="patch_6">
    <path d="M 47.82125 46.543987 
L 450 46.543987 
" style="fill: none; stroke: #000000; stroke-width: 0.8; stroke-linejoin: miter; stroke-linecap: square"/>
   </g>
   <g id="text_17">
    <!-- y = -0.01x + 0.83 -->
    <g transform="translate(43.314906 18.451841)scale(0.1 -0.1)">
     <defs>
      <path id="DejaVuSans-79" d="M 2059 -325 
Q 1816 -950 1584 -1140 
Q 1353 -1331 966 -1331 
L 506 -1331 
L 506 -850 
L 844 -850 
Q 1081 -850 1212 -737 
Q 1344 -625 1503 -206 
L 1606 56 
L 191 3500 
L 800 3500 
L 1894 763 
L 2988 3500 
L 3597 3500 
L 2059 -325 
z
" transform="scale(0.015625)"/>
      <path id="DejaVuSans-20" transform="scale(0.015625)"/>
      <path id="DejaVuSans-3d" d="M 678 2906 
L 4684 2906 
L 4684 2381 
L 678 2381 
L 678 2906 
z
M 678 1631 
L 4684 1631 
L 4684 1100 
L 678 1100 
L 678 1631 
z
" transform="scale(0.015625)"/>
      <path id="DejaVuSans-2d" d="M 313 2009 
L 1997 2009 
L 1997 1497 
L 313 1497 
L 313 2009 
z
" transform="scale(0.015625)"/>
      <path id="DejaVuSans-78" d="M 3513 3500 
L 2247 1797 
L 3578 0 
L 2900 0 
L 1881 1375 
L 863 0 
L 184 0 
L 1544 1831 
L 300 3500 
L 978 3500 
L 1906 2253 
L 2834 3500 
L 3513 3500 
z
" transform="scale(0.015625)"/>
      <path id="DejaVuSans-2b" d="M 2944 4013 
L 2944 2272 
L 4684 2272 
L 4684 1741 
L 2944 1741 
L 2944 0 
L 2419 0 
L 2419 1741 
L 678 1741 
L 678 2272 
L 2419 2272 
L 2419 4013 
L 2944 4013 
z
" transform="scale(0.015625)"/>
      <path id="DejaVuSans-38" d="M 2034 2216 
Q 1584 2216 1326 1975 
Q 1069 1734 1069 1313 
Q 1069 891 1326 650 
Q 1584 409 2034 409 
Q 2484 409 2743 651 
Q 3003 894 3003 1313 
Q 3003 1734 2745 1975 
Q 2488 2216 2034 2216 
z
M 1403 2484 
Q 997 2584 770 2862 
Q 544 3141 544 3541 
Q 544 4100 942 4425 
Q 1341 4750 2034 4750 
Q 2731 4750 3128 4425 
Q 3525 4100 3525 3541 
Q 3525 3141 3298 2862 
Q 3072 2584 2669 2484 
Q 3125 2378 3379 2068 
Q 3634 1759 3634 1313 
Q 3634 634 3220 271 
Q 2806 -91 2034 -91 
Q 1263 -91 848 271 
Q 434 634 434 1313 
Q 434 1759 690 2068 
Q 947 2378 1403 2484 
z
M 1172 3481 
Q 1172 3119 1398 2916 
Q 1625 2713 2034 2713 
Q 2441 2713 2670 2916 
Q 2900 3119 2900 3481 
Q 2900 3844 2670 4047 
Q 2441 4250 2034 4250 
Q 1625 4250 1398 4047 
Q 1172 3844 1172 3481 
z
" transform="scale(0.015625)"/>
     </defs>
     <use xlink:href="#DejaVuSans-79"/>
     <use xlink:href="#DejaVuSans-20" x="59.179688"/>
     <use xlink:href="#DejaVuSans-3d" x="90.966797"/>
     <use xlink:href="#DejaVuSans-20" x="174.755859"/>
     <use xlink:href="#DejaVuSans-2d" x="206.542969"/>
     <use xlink:href="#DejaVuSans-30" x="242.626953"/>
     <use xlink:href="#DejaVuSans-2e" x="306.25"/>
     <use xlink:href="#DejaVuSans-30" x="338.037109"/>
     <use xlink:href="#DejaVuSans-31" x="401.660156"/>
     <use xlink:href="#DejaVuSans-78" x="465.283203"/>
     <use xlink:href="#DejaVuSans-20" x="524.462891"/>
     <use xlink:href="#DejaVuSans-2b" x="556.25"/>
     <use xlink:href="#DejaVuSans-20" x="640.039062"/>
     <use xlink:href="#DejaVuSans-30" x="671.826172"/>
     <use xlink:href="#DejaVuSans-2e" x="735.449219"/>
     <use xlink:href="#DejaVuSans-38" x="767.236328"/>
     <use xlink:href="#DejaVuSans-33" x="830.859375"/>
    </g>
   </g>
   <g id="text_18">
    <!-- r^2 = 0.02 -->
    <g transform="translate(60.111781 26.164721)scale(0.1 -0.1)">
     <defs>
      <path id="DejaVuSans-5e" d="M 2988 4666 
L 4684 2925 
L 4056 2925 
L 2681 4159 
L 1306 2925 
L 678 2925 
L 2375 4666 
L 2988 4666 
z
" transform="scale(0.015625)"/>
     </defs>
     <use xlink:href="#DejaVuSans-72"/>
     <use xlink:href="#DejaVuSans-5e" x="41.113281"/>
     <use xlink:href="#DejaVuSans-32" x="124.902344"/>
     <use xlink:href="#DejaVuSans-20" x="188.525391"/>
     <use xlink:href="#DejaVuSans-3d" x="220.3125"/>
     <use xlink:href="#DejaVuSans-20" x="304.101562"/>
     <use xlink:href="#DejaVuSans-30" x="335.888672"/>
     <use xlink:href="#DejaVuSans-2e" x="399.511719"/>
     <use xlink:href="#DejaVuSans-30" x="431.298828"/>
     <use xlink:href="#DejaVuSans-32" x="494.921875"/>
    </g>
   </g>
   <g id="text_19">
    <!-- n = 66 -->
    <g transform="translate(71.139906 33.877601)scale(0.1 -0.1)">
     <defs>
      <path id="DejaVuSans-36" d="M 2113 2584 
Q 1688 2584 1439 2293 
Q 1191 2003 1191 1497 
Q 1191 994 1439 701 
Q 1688 409 2113 409 
Q 2538 409 2786 701 
Q 3034 994 3034 1497 
Q 3034 2003 2786 2293 
Q 2538 2584 2113 2584 
z
M 3366 4563 
L 3366 3988 
Q 3128 4100 2886 4159 
Q 2644 4219 2406 4219 
Q 1781 4219 1451 3797 
Q 1122 3375 1075 2522 
Q 1259 2794 1537 2939 
Q 1816 3084 2150 3084 
Q 2853 3084 3261 2657 
Q 3669 2231 3669 1497 
Q 3669 778 3244 343 
Q 2819 -91 2113 -91 
Q 1303 -91 875 529 
Q 447 1150 447 2328 
Q 447 3434 972 4092 
Q 1497 4750 2381 4750 
Q 2619 4750 2861 4703 
Q 3103 4656 3366 4563 
z
" transform="scale(0.015625)"/>
     </defs>
     <use xlink:href="#DejaVuSans-6e"/>
     <use xlink:href="#DejaVuSans-20" x="63.378906"/>
     <use xlink:href="#DejaVuSans-3d" x="95.166016"/>
     <use xlink:href="#DejaVuSans-20" x="178.955078"/>
     <use xlink:href="#DejaVuSans-36" x="210.742188"/>
     <use xlink:href="#DejaVuSans-36" x="274.365234"/>
    </g>
   </g>
   <g id="text_20">
    <!-- Total vs PercentGpA_transformed -->
    <g transform="translate(149.362188 40.543987)scale(0.12 -0.12)">
     <defs>
      <path id="DejaVuSans-76" d="M 191 3500 
L 800 3500 
L 1894 563 
L 2988 3500 
L 3597 3500 
L 2284 0 
L 1503 0 
L 191 3500 
z
" transform="scale(0.015625)"/>
     </defs>
     <use xlink:href="#DejaVuSans-54"/>
     <use xlink:href="#DejaVuSans-6f" x="44.083984"/>
     <use xlink:href="#DejaVuSans-74" x="105.265625"/>
     <use xlink:href="#DejaVuSans-61" x="144.474609"/>
     <use xlink:href="#DejaVuSans-6c" x="205.753906"/>
     <use xlink:href="#DejaVuSans-20" x="233.537109"/>
     <use xlink:href="#DejaVuSans-76" x="265.324219"/>
     <use xlink:href="#DejaVuSans-73" x="324.503906"/>
     <use xlink:href="#DejaVuSans-20" x="376.603516"/>
     <use xlink:href="#DejaVuSans-50" x="408.390625"/>
     <use xlink:href="#DejaVuSans-65" x="465.068359"/>
     <use xlink:href="#DejaVuSans-72" x="526.591797"/>
     <use xlink:href="#DejaVuSans-63" x="565.455078"/>
     <use xlink:href="#DejaVuSans-65" x="620.435547"/>
     <use xlink:href="#DejaVuSans-6e" x="681.958984"/>
     <use xlink:href="#DejaVuSans-74" x="745.337891"/>
     <use xlink:href="#DejaVuSans-47" x="784.546875"/>
     <use xlink:href="#DejaVuSans-70" x="862.037109"/>
     <use xlink:href="#DejaVuSans-41" x="925.513672"/>
     <use xlink:href="#DejaVuSans-5f" x="993.921875"/>
     <use xlink:href="#DejaVuSans-74" x="1043.921875"/>
     <use xlink:href="#DejaVuSans-72" x="1083.130859"/>
     <use xlink:href="#DejaVuSans-61" x="1124.244141"/>
     <use xlink:href="#DejaVuSans-6e" x="1185.523438"/>
     <use xlink:href="#DejaVuSans-73" x="1248.902344"/>
     <use xlink:href="#DejaVuSans-66" x="1301.001953"/>
     <use xlink:href="#DejaVuSans-6f" x="1336.207031"/>
     <use xlink:href="#DejaVuSans-72" x="1397.388672"/>
     <use xlink:href="#DejaVuSans-6d" x="1436.751953"/>
     <use xlink:href="#DejaVuSans-65" x="1534.164062"/>
     <use xlink:href="#DejaVuSans-64" x="1595.6875"/>
    </g>
   </g>
  </g>
 </g>
 <defs>
  <clipPath id="p41b2c5cae0">
   <rect x="47.82125" y="46.543987" width="402.17875" height="257.096013"/>
  </clipPath>
 </defs>
</svg>
