<?xml version="1.0" encoding="utf-8" standalone="no"?>
<!DOCTYPE svg PUBLIC "-//W3C//DTD SVG 1.1//EN"
  "http://www.w3.org/Graphics/SVG/1.1/DTD/svg11.dtd">
<svg xmlns:xlink="http://www.w3.org/1999/xlink" width="460.8pt" height="345.6pt" viewBox="0 0 460.8 345.6" xmlns="http://www.w3.org/2000/svg" version="1.1">
 <metadata>
  <rdf:RDF xmlns:dc="http://purl.org/dc/elements/1.1/" xmlns:cc="http://creativecommons.org/ns#" xmlns:rdf="http://www.w3.org/1999/02/22-rdf-syntax-ns#">
   <cc:Work>
    <dc:type rdf:resource="http://purl.org/dc/dcmitype/StillImage"/>
    <dc:date>2024-02-15T21:00:07.065431</dc:date>
    <dc:format>image/svg+xml</dc:format>
    <dc:creator>
     <cc:Agent>
      <dc:title>Matplotlib v3.5.3, https://matplotlib.org/</dc:title>
     </cc:Agent>
    </dc:creator>
   </cc:Work>
  </rdf:RDF>
 </metadata>
 <defs>
  <style type="text/css">*{stroke-linejoin: round; stroke-linecap: butt}</style>
 </defs>
 <g id="figure_1">
  <g id="patch_1">
   <path d="M 0 345.6 
L 460.8 345.6 
L 460.8 0 
L 0 0 
z
" style="fill: #ffffff"/>
  </g>
  <g id="axes_1">
   <g id="patch_2">
    <path d="M 54.12125 303.64 
L 401.26 303.64 
L 401.26 46.675714 
L 54.12125 46.675714 
z
" style="fill: #ffffff"/>
   </g>
   <g id="PathCollection_1">
    <defs>
     <path id="m79ed114c11" d="M 0 3 
C 0.795609 3 1.55874 2.683901 2.12132 2.12132 
C 2.683901 1.55874 3 0.795609 3 0 
C 3 -0.795609 2.683901 -1.55874 2.12132 -2.12132 
C 1.55874 -2.683901 0.795609 -3 0 -3 
C -0.795609 -3 -1.55874 -2.683901 -2.12132 -2.12132 
C -2.683901 -1.55874 -3 -0.795609 -3 0 
C -3 0.795609 -2.683901 1.55874 -2.12132 2.12132 
C -1.55874 2.683901 -0.795609 3 0 3 
z
" style="stroke: #3cb371"/>
    </defs>
    <g clip-path="url(#p063fda5f5f)">
     <use xlink:href="#m79ed114c11" x="170.224497" y="139.362715" style="fill: #3cb371; stroke: #3cb371"/>
     <use xlink:href="#m79ed114c11" x="161.162662" y="181.423816" style="fill: #3cb371; stroke: #3cb371"/>
     <use xlink:href="#m79ed114c11" x="266.623936" y="168.557632" style="fill: #3cb371; stroke: #3cb371"/>
     <use xlink:href="#m79ed114c11" x="234.771131" y="172.416076" style="fill: #3cb371; stroke: #3cb371"/>
     <use xlink:href="#m79ed114c11" x="157.510652" y="165.348231" style="fill: #3cb371; stroke: #3cb371"/>
     <use xlink:href="#m79ed114c11" x="215.670055" y="230.068233" style="fill: #3cb371; stroke: #3cb371"/>
     <use xlink:href="#m79ed114c11" x="222.011824" y="175.923459" style="fill: #3cb371; stroke: #3cb371"/>
     <use xlink:href="#m79ed114c11" x="301.075578" y="197.517233" style="fill: #3cb371; stroke: #3cb371"/>
     <use xlink:href="#m79ed114c11" x="324.995489" y="183.570915" style="fill: #3cb371; stroke: #3cb371"/>
     <use xlink:href="#m79ed114c11" x="301.82568" y="270.467033" style="fill: #3cb371; stroke: #3cb371"/>
     <use xlink:href="#m79ed114c11" x="243.620816" y="136.233679" style="fill: #3cb371; stroke: #3cb371"/>
     <use xlink:href="#m79ed114c11" x="231.194888" y="150.102515" style="fill: #3cb371; stroke: #3cb371"/>
     <use xlink:href="#m79ed114c11" x="158.935087" y="252.572488" style="fill: #3cb371; stroke: #3cb371"/>
     <use xlink:href="#m79ed114c11" x="315.47147" y="218.482966" style="fill: #3cb371; stroke: #3cb371"/>
     <use xlink:href="#m79ed114c11" x="260.350358" y="203.003594" style="fill: #3cb371; stroke: #3cb371"/>
     <use xlink:href="#m79ed114c11" x="359.848701" y="194.21879" style="fill: #3cb371; stroke: #3cb371"/>
     <use xlink:href="#m79ed114c11" x="276.91321" y="124.591715" style="fill: #3cb371; stroke: #3cb371"/>
     <use xlink:href="#m79ed114c11" x="385.480966" y="228.397951" style="fill: #3cb371; stroke: #3cb371"/>
     <use xlink:href="#m79ed114c11" x="329.806748" y="164.140963" style="fill: #3cb371; stroke: #3cb371"/>
     <use xlink:href="#m79ed114c11" x="231.346424" y="268.685057" style="fill: #3cb371; stroke: #3cb371"/>
     <use xlink:href="#m79ed114c11" x="283.618665" y="140.024986" style="fill: #3cb371; stroke: #3cb371"/>
     <use xlink:href="#m79ed114c11" x="117.012735" y="148.247996" style="fill: #3cb371; stroke: #3cb371"/>
     <use xlink:href="#m79ed114c11" x="69.900284" y="110.409617" style="fill: #3cb371; stroke: #3cb371"/>
     <use xlink:href="#m79ed114c11" x="274.738673" y="126.031937" style="fill: #3cb371; stroke: #3cb371"/>
     <use xlink:href="#m79ed114c11" x="174.952411" y="153.065113" style="fill: #3cb371; stroke: #3cb371"/>
     <use xlink:href="#m79ed114c11" x="128.499141" y="136.127053" style="fill: #3cb371; stroke: #3cb371"/>
     <use xlink:href="#m79ed114c11" x="285.346172" y="203.793722" style="fill: #3cb371; stroke: #3cb371"/>
     <use xlink:href="#m79ed114c11" x="198.917783" y="252.497938" style="fill: #3cb371; stroke: #3cb371"/>
     <use xlink:href="#m79ed114c11" x="268.427211" y="246.850679" style="fill: #3cb371; stroke: #3cb371"/>
     <use xlink:href="#m79ed114c11" x="188.06025" y="264.410697" style="fill: #3cb371; stroke: #3cb371"/>
     <use xlink:href="#m79ed114c11" x="363.311292" y="159.490827" style="fill: #3cb371; stroke: #3cb371"/>
     <use xlink:href="#m79ed114c11" x="337.800256" y="188.451571" style="fill: #3cb371; stroke: #3cb371"/>
     <use xlink:href="#m79ed114c11" x="287.748013" y="263.173962" style="fill: #3cb371; stroke: #3cb371"/>
     <use xlink:href="#m79ed114c11" x="212.533266" y="193.62036" style="fill: #3cb371; stroke: #3cb371"/>
     <use xlink:href="#m79ed114c11" x="263.161345" y="252.95931" style="fill: #3cb371; stroke: #3cb371"/>
     <use xlink:href="#m79ed114c11" x="377.267731" y="161.555327" style="fill: #3cb371; stroke: #3cb371"/>
     <use xlink:href="#m79ed114c11" x="91.925999" y="213.145676" style="fill: #3cb371; stroke: #3cb371"/>
     <use xlink:href="#m79ed114c11" x="311.743692" y="226.890597" style="fill: #3cb371; stroke: #3cb371"/>
     <use xlink:href="#m79ed114c11" x="267.76803" y="248.227926" style="fill: #3cb371; stroke: #3cb371"/>
     <use xlink:href="#m79ed114c11" x="265.805643" y="269.460162" style="fill: #3cb371; stroke: #3cb371"/>
     <use xlink:href="#m79ed114c11" x="96.502377" y="211.606571" style="fill: #3cb371; stroke: #3cb371"/>
     <use xlink:href="#m79ed114c11" x="189.302843" y="166.051954" style="fill: #3cb371; stroke: #3cb371"/>
     <use xlink:href="#m79ed114c11" x="384.473253" y="241.104546" style="fill: #3cb371; stroke: #3cb371"/>
     <use xlink:href="#m79ed114c11" x="174.709954" y="276.190898" style="fill: #3cb371; stroke: #3cb371"/>
     <use xlink:href="#m79ed114c11" x="331.102378" y="106.891276" style="fill: #3cb371; stroke: #3cb371"/>
    </g>
   </g>
   <g id="matplotlib.axis_1">
    <g id="xtick_1">
     <g id="line2d_1">
      <defs>
       <path id="mcecea70e53" d="M 0 0 
L 0 3.5 
" style="stroke: #000000; stroke-width: 0.8"/>
      </defs>
      <g>
       <use xlink:href="#mcecea70e53" x="116.414169" y="303.64" style="stroke: #000000; stroke-width: 0.8"/>
      </g>
     </g>
     <g id="text_1">
      <!-- −1000 -->
      <g transform="translate(99.499325 318.238437)scale(0.1 -0.1)">
       <defs>
        <path id="DejaVuSans-2212" d="M 678 2272 
L 4684 2272 
L 4684 1741 
L 678 1741 
L 678 2272 
z
" transform="scale(0.015625)"/>
        <path id="DejaVuSans-31" d="M 794 531 
L 1825 531 
L 1825 4091 
L 703 3866 
L 703 4441 
L 1819 4666 
L 2450 4666 
L 2450 531 
L 3481 531 
L 3481 0 
L 794 0 
L 794 531 
z
" transform="scale(0.015625)"/>
        <path id="DejaVuSans-30" d="M 2034 4250 
Q 1547 4250 1301 3770 
Q 1056 3291 1056 2328 
Q 1056 1369 1301 889 
Q 1547 409 2034 409 
Q 2525 409 2770 889 
Q 3016 1369 3016 2328 
Q 3016 3291 2770 3770 
Q 2525 4250 2034 4250 
z
M 2034 4750 
Q 2819 4750 3233 4129 
Q 3647 3509 3647 2328 
Q 3647 1150 3233 529 
Q 2819 -91 2034 -91 
Q 1250 -91 836 529 
Q 422 1150 422 2328 
Q 422 3509 836 4129 
Q 1250 4750 2034 4750 
z
" transform="scale(0.015625)"/>
       </defs>
       <use xlink:href="#DejaVuSans-2212"/>
       <use xlink:href="#DejaVuSans-31" x="83.789062"/>
       <use xlink:href="#DejaVuSans-30" x="147.412109"/>
       <use xlink:href="#DejaVuSans-30" x="211.035156"/>
       <use xlink:href="#DejaVuSans-30" x="274.658203"/>
      </g>
     </g>
    </g>
    <g id="xtick_2">
     <g id="line2d_2">
      <g>
       <use xlink:href="#mcecea70e53" x="192.182021" y="303.64" style="stroke: #000000; stroke-width: 0.8"/>
      </g>
     </g>
     <g id="text_2">
      <!-- −900 -->
      <g transform="translate(178.448427 318.238437)scale(0.1 -0.1)">
       <defs>
        <path id="DejaVuSans-39" d="M 703 97 
L 703 672 
Q 941 559 1184 500 
Q 1428 441 1663 441 
Q 2288 441 2617 861 
Q 2947 1281 2994 2138 
Q 2813 1869 2534 1725 
Q 2256 1581 1919 1581 
Q 1219 1581 811 2004 
Q 403 2428 403 3163 
Q 403 3881 828 4315 
Q 1253 4750 1959 4750 
Q 2769 4750 3195 4129 
Q 3622 3509 3622 2328 
Q 3622 1225 3098 567 
Q 2575 -91 1691 -91 
Q 1453 -91 1209 -44 
Q 966 3 703 97 
z
M 1959 2075 
Q 2384 2075 2632 2365 
Q 2881 2656 2881 3163 
Q 2881 3666 2632 3958 
Q 2384 4250 1959 4250 
Q 1534 4250 1286 3958 
Q 1038 3666 1038 3163 
Q 1038 2656 1286 2365 
Q 1534 2075 1959 2075 
z
" transform="scale(0.015625)"/>
       </defs>
       <use xlink:href="#DejaVuSans-2212"/>
       <use xlink:href="#DejaVuSans-39" x="83.789062"/>
       <use xlink:href="#DejaVuSans-30" x="147.412109"/>
       <use xlink:href="#DejaVuSans-30" x="211.035156"/>
      </g>
     </g>
    </g>
    <g id="xtick_3">
     <g id="line2d_3">
      <g>
       <use xlink:href="#mcecea70e53" x="267.949873" y="303.64" style="stroke: #000000; stroke-width: 0.8"/>
      </g>
     </g>
     <g id="text_3">
      <!-- −800 -->
      <g transform="translate(254.21628 318.238437)scale(0.1 -0.1)">
       <defs>
        <path id="DejaVuSans-38" d="M 2034 2216 
Q 1584 2216 1326 1975 
Q 1069 1734 1069 1313 
Q 1069 891 1326 650 
Q 1584 409 2034 409 
Q 2484 409 2743 651 
Q 3003 894 3003 1313 
Q 3003 1734 2745 1975 
Q 2488 2216 2034 2216 
z
M 1403 2484 
Q 997 2584 770 2862 
Q 544 3141 544 3541 
Q 544 4100 942 4425 
Q 1341 4750 2034 4750 
Q 2731 4750 3128 4425 
Q 3525 4100 3525 3541 
Q 3525 3141 3298 2862 
Q 3072 2584 2669 2484 
Q 3125 2378 3379 2068 
Q 3634 1759 3634 1313 
Q 3634 634 3220 271 
Q 2806 -91 2034 -91 
Q 1263 -91 848 271 
Q 434 634 434 1313 
Q 434 1759 690 2068 
Q 947 2378 1403 2484 
z
M 1172 3481 
Q 1172 3119 1398 2916 
Q 1625 2713 2034 2713 
Q 2441 2713 2670 2916 
Q 2900 3119 2900 3481 
Q 2900 3844 2670 4047 
Q 2441 4250 2034 4250 
Q 1625 4250 1398 4047 
Q 1172 3844 1172 3481 
z
" transform="scale(0.015625)"/>
       </defs>
       <use xlink:href="#DejaVuSans-2212"/>
       <use xlink:href="#DejaVuSans-38" x="83.789062"/>
       <use xlink:href="#DejaVuSans-30" x="147.412109"/>
       <use xlink:href="#DejaVuSans-30" x="211.035156"/>
      </g>
     </g>
    </g>
    <g id="xtick_4">
     <g id="line2d_4">
      <g>
       <use xlink:href="#mcecea70e53" x="343.717726" y="303.64" style="stroke: #000000; stroke-width: 0.8"/>
      </g>
     </g>
     <g id="text_4">
      <!-- −700 -->
      <g transform="translate(329.984132 318.238437)scale(0.1 -0.1)">
       <defs>
        <path id="DejaVuSans-37" d="M 525 4666 
L 3525 4666 
L 3525 4397 
L 1831 0 
L 1172 0 
L 2766 4134 
L 525 4134 
L 525 4666 
z
" transform="scale(0.015625)"/>
       </defs>
       <use xlink:href="#DejaVuSans-2212"/>
       <use xlink:href="#DejaVuSans-37" x="83.789062"/>
       <use xlink:href="#DejaVuSans-30" x="147.412109"/>
       <use xlink:href="#DejaVuSans-30" x="211.035156"/>
      </g>
     </g>
    </g>
    <g id="text_5">
     <!-- SasaDiff -->
     <g transform="translate(207.024219 331.916562)scale(0.1 -0.1)">
      <defs>
       <path id="DejaVuSans-53" d="M 3425 4513 
L 3425 3897 
Q 3066 4069 2747 4153 
Q 2428 4238 2131 4238 
Q 1616 4238 1336 4038 
Q 1056 3838 1056 3469 
Q 1056 3159 1242 3001 
Q 1428 2844 1947 2747 
L 2328 2669 
Q 3034 2534 3370 2195 
Q 3706 1856 3706 1288 
Q 3706 609 3251 259 
Q 2797 -91 1919 -91 
Q 1588 -91 1214 -16 
Q 841 59 441 206 
L 441 856 
Q 825 641 1194 531 
Q 1563 422 1919 422 
Q 2459 422 2753 634 
Q 3047 847 3047 1241 
Q 3047 1584 2836 1778 
Q 2625 1972 2144 2069 
L 1759 2144 
Q 1053 2284 737 2584 
Q 422 2884 422 3419 
Q 422 4038 858 4394 
Q 1294 4750 2059 4750 
Q 2388 4750 2728 4690 
Q 3069 4631 3425 4513 
z
" transform="scale(0.015625)"/>
       <path id="DejaVuSans-61" d="M 2194 1759 
Q 1497 1759 1228 1600 
Q 959 1441 959 1056 
Q 959 750 1161 570 
Q 1363 391 1709 391 
Q 2188 391 2477 730 
Q 2766 1069 2766 1631 
L 2766 1759 
L 2194 1759 
z
M 3341 1997 
L 3341 0 
L 2766 0 
L 2766 531 
Q 2569 213 2275 61 
Q 1981 -91 1556 -91 
Q 1019 -91 701 211 
Q 384 513 384 1019 
Q 384 1609 779 1909 
Q 1175 2209 1959 2209 
L 2766 2209 
L 2766 2266 
Q 2766 2663 2505 2880 
Q 2244 3097 1772 3097 
Q 1472 3097 1187 3025 
Q 903 2953 641 2809 
L 641 3341 
Q 956 3463 1253 3523 
Q 1550 3584 1831 3584 
Q 2591 3584 2966 3190 
Q 3341 2797 3341 1997 
z
" transform="scale(0.015625)"/>
       <path id="DejaVuSans-73" d="M 2834 3397 
L 2834 2853 
Q 2591 2978 2328 3040 
Q 2066 3103 1784 3103 
Q 1356 3103 1142 2972 
Q 928 2841 928 2578 
Q 928 2378 1081 2264 
Q 1234 2150 1697 2047 
L 1894 2003 
Q 2506 1872 2764 1633 
Q 3022 1394 3022 966 
Q 3022 478 2636 193 
Q 2250 -91 1575 -91 
Q 1294 -91 989 -36 
Q 684 19 347 128 
L 347 722 
Q 666 556 975 473 
Q 1284 391 1588 391 
Q 1994 391 2212 530 
Q 2431 669 2431 922 
Q 2431 1156 2273 1281 
Q 2116 1406 1581 1522 
L 1381 1569 
Q 847 1681 609 1914 
Q 372 2147 372 2553 
Q 372 3047 722 3315 
Q 1072 3584 1716 3584 
Q 2034 3584 2315 3537 
Q 2597 3491 2834 3397 
z
" transform="scale(0.015625)"/>
       <path id="DejaVuSans-44" d="M 1259 4147 
L 1259 519 
L 2022 519 
Q 2988 519 3436 956 
Q 3884 1394 3884 2338 
Q 3884 3275 3436 3711 
Q 2988 4147 2022 4147 
L 1259 4147 
z
M 628 4666 
L 1925 4666 
Q 3281 4666 3915 4102 
Q 4550 3538 4550 2338 
Q 4550 1131 3912 565 
Q 3275 0 1925 0 
L 628 0 
L 628 4666 
z
" transform="scale(0.015625)"/>
       <path id="DejaVuSans-69" d="M 603 3500 
L 1178 3500 
L 1178 0 
L 603 0 
L 603 3500 
z
M 603 4863 
L 1178 4863 
L 1178 4134 
L 603 4134 
L 603 4863 
z
" transform="scale(0.015625)"/>
       <path id="DejaVuSans-66" d="M 2375 4863 
L 2375 4384 
L 1825 4384 
Q 1516 4384 1395 4259 
Q 1275 4134 1275 3809 
L 1275 3500 
L 2222 3500 
L 2222 3053 
L 1275 3053 
L 1275 0 
L 697 0 
L 697 3053 
L 147 3053 
L 147 3500 
L 697 3500 
L 697 3744 
Q 697 4328 969 4595 
Q 1241 4863 1831 4863 
L 2375 4863 
z
" transform="scale(0.015625)"/>
      </defs>
      <use xlink:href="#DejaVuSans-53"/>
      <use xlink:href="#DejaVuSans-61" x="63.476562"/>
      <use xlink:href="#DejaVuSans-73" x="124.755859"/>
      <use xlink:href="#DejaVuSans-61" x="176.855469"/>
      <use xlink:href="#DejaVuSans-44" x="238.134766"/>
      <use xlink:href="#DejaVuSans-69" x="315.136719"/>
      <use xlink:href="#DejaVuSans-66" x="342.919922"/>
      <use xlink:href="#DejaVuSans-66" x="378.125"/>
     </g>
    </g>
   </g>
   <g id="matplotlib.axis_2">
    <g id="ytick_1">
     <g id="line2d_5">
      <defs>
       <path id="ma05c6f0966" d="M 0 0 
L -3.5 0 
" style="stroke: #000000; stroke-width: 0.8"/>
      </defs>
      <g>
       <use xlink:href="#ma05c6f0966" x="54.12125" y="303.64" style="stroke: #000000; stroke-width: 0.8"/>
      </g>
     </g>
     <g id="text_6">
      <!-- 0.00 -->
      <g transform="translate(24.855625 307.439219)scale(0.1 -0.1)">
       <defs>
        <path id="DejaVuSans-2e" d="M 684 794 
L 1344 794 
L 1344 0 
L 684 0 
L 684 794 
z
" transform="scale(0.015625)"/>
       </defs>
       <use xlink:href="#DejaVuSans-30"/>
       <use xlink:href="#DejaVuSans-2e" x="63.623047"/>
       <use xlink:href="#DejaVuSans-30" x="95.410156"/>
       <use xlink:href="#DejaVuSans-30" x="159.033203"/>
      </g>
     </g>
    </g>
    <g id="ytick_2">
     <g id="line2d_6">
      <g>
       <use xlink:href="#ma05c6f0966" x="54.12125" y="268.432011" style="stroke: #000000; stroke-width: 0.8"/>
      </g>
     </g>
     <g id="text_7">
      <!-- 0.25 -->
      <g transform="translate(24.855625 272.23123)scale(0.1 -0.1)">
       <defs>
        <path id="DejaVuSans-32" d="M 1228 531 
L 3431 531 
L 3431 0 
L 469 0 
L 469 531 
Q 828 903 1448 1529 
Q 2069 2156 2228 2338 
Q 2531 2678 2651 2914 
Q 2772 3150 2772 3378 
Q 2772 3750 2511 3984 
Q 2250 4219 1831 4219 
Q 1534 4219 1204 4116 
Q 875 4013 500 3803 
L 500 4441 
Q 881 4594 1212 4672 
Q 1544 4750 1819 4750 
Q 2544 4750 2975 4387 
Q 3406 4025 3406 3419 
Q 3406 3131 3298 2873 
Q 3191 2616 2906 2266 
Q 2828 2175 2409 1742 
Q 1991 1309 1228 531 
z
" transform="scale(0.015625)"/>
        <path id="DejaVuSans-35" d="M 691 4666 
L 3169 4666 
L 3169 4134 
L 1269 4134 
L 1269 2991 
Q 1406 3038 1543 3061 
Q 1681 3084 1819 3084 
Q 2600 3084 3056 2656 
Q 3513 2228 3513 1497 
Q 3513 744 3044 326 
Q 2575 -91 1722 -91 
Q 1428 -91 1123 -41 
Q 819 9 494 109 
L 494 744 
Q 775 591 1075 516 
Q 1375 441 1709 441 
Q 2250 441 2565 725 
Q 2881 1009 2881 1497 
Q 2881 1984 2565 2268 
Q 2250 2553 1709 2553 
Q 1456 2553 1204 2497 
Q 953 2441 691 2322 
L 691 4666 
z
" transform="scale(0.015625)"/>
       </defs>
       <use xlink:href="#DejaVuSans-30"/>
       <use xlink:href="#DejaVuSans-2e" x="63.623047"/>
       <use xlink:href="#DejaVuSans-32" x="95.410156"/>
       <use xlink:href="#DejaVuSans-35" x="159.033203"/>
      </g>
     </g>
    </g>
    <g id="ytick_3">
     <g id="line2d_7">
      <g>
       <use xlink:href="#ma05c6f0966" x="54.12125" y="233.224022" style="stroke: #000000; stroke-width: 0.8"/>
      </g>
     </g>
     <g id="text_8">
      <!-- 0.50 -->
      <g transform="translate(24.855625 237.023241)scale(0.1 -0.1)">
       <use xlink:href="#DejaVuSans-30"/>
       <use xlink:href="#DejaVuSans-2e" x="63.623047"/>
       <use xlink:href="#DejaVuSans-35" x="95.410156"/>
       <use xlink:href="#DejaVuSans-30" x="159.033203"/>
      </g>
     </g>
    </g>
    <g id="ytick_4">
     <g id="line2d_8">
      <g>
       <use xlink:href="#ma05c6f0966" x="54.12125" y="198.016034" style="stroke: #000000; stroke-width: 0.8"/>
      </g>
     </g>
     <g id="text_9">
      <!-- 0.75 -->
      <g transform="translate(24.855625 201.815252)scale(0.1 -0.1)">
       <use xlink:href="#DejaVuSans-30"/>
       <use xlink:href="#DejaVuSans-2e" x="63.623047"/>
       <use xlink:href="#DejaVuSans-37" x="95.410156"/>
       <use xlink:href="#DejaVuSans-35" x="159.033203"/>
      </g>
     </g>
    </g>
    <g id="ytick_5">
     <g id="line2d_9">
      <g>
       <use xlink:href="#ma05c6f0966" x="54.12125" y="162.808045" style="stroke: #000000; stroke-width: 0.8"/>
      </g>
     </g>
     <g id="text_10">
      <!-- 1.00 -->
      <g transform="translate(24.855625 166.607264)scale(0.1 -0.1)">
       <use xlink:href="#DejaVuSans-31"/>
       <use xlink:href="#DejaVuSans-2e" x="63.623047"/>
       <use xlink:href="#DejaVuSans-30" x="95.410156"/>
       <use xlink:href="#DejaVuSans-30" x="159.033203"/>
      </g>
     </g>
    </g>
    <g id="ytick_6">
     <g id="line2d_10">
      <g>
       <use xlink:href="#ma05c6f0966" x="54.12125" y="127.600056" style="stroke: #000000; stroke-width: 0.8"/>
      </g>
     </g>
     <g id="text_11">
      <!-- 1.25 -->
      <g transform="translate(24.855625 131.399275)scale(0.1 -0.1)">
       <use xlink:href="#DejaVuSans-31"/>
       <use xlink:href="#DejaVuSans-2e" x="63.623047"/>
       <use xlink:href="#DejaVuSans-32" x="95.410156"/>
       <use xlink:href="#DejaVuSans-35" x="159.033203"/>
      </g>
     </g>
    </g>
    <g id="ytick_7">
     <g id="line2d_11">
      <g>
       <use xlink:href="#ma05c6f0966" x="54.12125" y="92.392067" style="stroke: #000000; stroke-width: 0.8"/>
      </g>
     </g>
     <g id="text_12">
      <!-- 1.50 -->
      <g transform="translate(24.855625 96.191286)scale(0.1 -0.1)">
       <use xlink:href="#DejaVuSans-31"/>
       <use xlink:href="#DejaVuSans-2e" x="63.623047"/>
       <use xlink:href="#DejaVuSans-35" x="95.410156"/>
       <use xlink:href="#DejaVuSans-30" x="159.033203"/>
      </g>
     </g>
    </g>
    <g id="ytick_8">
     <g id="line2d_12">
      <g>
       <use xlink:href="#ma05c6f0966" x="54.12125" y="57.184078" style="stroke: #000000; stroke-width: 0.8"/>
      </g>
     </g>
     <g id="text_13">
      <!-- 1.75 -->
      <g transform="translate(24.855625 60.983297)scale(0.1 -0.1)">
       <use xlink:href="#DejaVuSans-31"/>
       <use xlink:href="#DejaVuSans-2e" x="63.623047"/>
       <use xlink:href="#DejaVuSans-37" x="95.410156"/>
       <use xlink:href="#DejaVuSans-35" x="159.033203"/>
      </g>
     </g>
    </g>
    <g id="text_14">
     <!-- PercentGpA_transformed -->
     <g transform="translate(18.497813 237.696138)rotate(-90)scale(0.1 -0.1)">
      <defs>
       <path id="DejaVuSans-50" d="M 1259 4147 
L 1259 2394 
L 2053 2394 
Q 2494 2394 2734 2622 
Q 2975 2850 2975 3272 
Q 2975 3691 2734 3919 
Q 2494 4147 2053 4147 
L 1259 4147 
z
M 628 4666 
L 2053 4666 
Q 2838 4666 3239 4311 
Q 3641 3956 3641 3272 
Q 3641 2581 3239 2228 
Q 2838 1875 2053 1875 
L 1259 1875 
L 1259 0 
L 628 0 
L 628 4666 
z
" transform="scale(0.015625)"/>
       <path id="DejaVuSans-65" d="M 3597 1894 
L 3597 1613 
L 953 1613 
Q 991 1019 1311 708 
Q 1631 397 2203 397 
Q 2534 397 2845 478 
Q 3156 559 3463 722 
L 3463 178 
Q 3153 47 2828 -22 
Q 2503 -91 2169 -91 
Q 1331 -91 842 396 
Q 353 884 353 1716 
Q 353 2575 817 3079 
Q 1281 3584 2069 3584 
Q 2775 3584 3186 3129 
Q 3597 2675 3597 1894 
z
M 3022 2063 
Q 3016 2534 2758 2815 
Q 2500 3097 2075 3097 
Q 1594 3097 1305 2825 
Q 1016 2553 972 2059 
L 3022 2063 
z
" transform="scale(0.015625)"/>
       <path id="DejaVuSans-72" d="M 2631 2963 
Q 2534 3019 2420 3045 
Q 2306 3072 2169 3072 
Q 1681 3072 1420 2755 
Q 1159 2438 1159 1844 
L 1159 0 
L 581 0 
L 581 3500 
L 1159 3500 
L 1159 2956 
Q 1341 3275 1631 3429 
Q 1922 3584 2338 3584 
Q 2397 3584 2469 3576 
Q 2541 3569 2628 3553 
L 2631 2963 
z
" transform="scale(0.015625)"/>
       <path id="DejaVuSans-63" d="M 3122 3366 
L 3122 2828 
Q 2878 2963 2633 3030 
Q 2388 3097 2138 3097 
Q 1578 3097 1268 2742 
Q 959 2388 959 1747 
Q 959 1106 1268 751 
Q 1578 397 2138 397 
Q 2388 397 2633 464 
Q 2878 531 3122 666 
L 3122 134 
Q 2881 22 2623 -34 
Q 2366 -91 2075 -91 
Q 1284 -91 818 406 
Q 353 903 353 1747 
Q 353 2603 823 3093 
Q 1294 3584 2113 3584 
Q 2378 3584 2631 3529 
Q 2884 3475 3122 3366 
z
" transform="scale(0.015625)"/>
       <path id="DejaVuSans-6e" d="M 3513 2113 
L 3513 0 
L 2938 0 
L 2938 2094 
Q 2938 2591 2744 2837 
Q 2550 3084 2163 3084 
Q 1697 3084 1428 2787 
Q 1159 2491 1159 1978 
L 1159 0 
L 581 0 
L 581 3500 
L 1159 3500 
L 1159 2956 
Q 1366 3272 1645 3428 
Q 1925 3584 2291 3584 
Q 2894 3584 3203 3211 
Q 3513 2838 3513 2113 
z
" transform="scale(0.015625)"/>
       <path id="DejaVuSans-74" d="M 1172 4494 
L 1172 3500 
L 2356 3500 
L 2356 3053 
L 1172 3053 
L 1172 1153 
Q 1172 725 1289 603 
Q 1406 481 1766 481 
L 2356 481 
L 2356 0 
L 1766 0 
Q 1100 0 847 248 
Q 594 497 594 1153 
L 594 3053 
L 172 3053 
L 172 3500 
L 594 3500 
L 594 4494 
L 1172 4494 
z
" transform="scale(0.015625)"/>
       <path id="DejaVuSans-47" d="M 3809 666 
L 3809 1919 
L 2778 1919 
L 2778 2438 
L 4434 2438 
L 4434 434 
Q 4069 175 3628 42 
Q 3188 -91 2688 -91 
Q 1594 -91 976 548 
Q 359 1188 359 2328 
Q 359 3472 976 4111 
Q 1594 4750 2688 4750 
Q 3144 4750 3555 4637 
Q 3966 4525 4313 4306 
L 4313 3634 
Q 3963 3931 3569 4081 
Q 3175 4231 2741 4231 
Q 1884 4231 1454 3753 
Q 1025 3275 1025 2328 
Q 1025 1384 1454 906 
Q 1884 428 2741 428 
Q 3075 428 3337 486 
Q 3600 544 3809 666 
z
" transform="scale(0.015625)"/>
       <path id="DejaVuSans-70" d="M 1159 525 
L 1159 -1331 
L 581 -1331 
L 581 3500 
L 1159 3500 
L 1159 2969 
Q 1341 3281 1617 3432 
Q 1894 3584 2278 3584 
Q 2916 3584 3314 3078 
Q 3713 2572 3713 1747 
Q 3713 922 3314 415 
Q 2916 -91 2278 -91 
Q 1894 -91 1617 61 
Q 1341 213 1159 525 
z
M 3116 1747 
Q 3116 2381 2855 2742 
Q 2594 3103 2138 3103 
Q 1681 3103 1420 2742 
Q 1159 2381 1159 1747 
Q 1159 1113 1420 752 
Q 1681 391 2138 391 
Q 2594 391 2855 752 
Q 3116 1113 3116 1747 
z
" transform="scale(0.015625)"/>
       <path id="DejaVuSans-41" d="M 2188 4044 
L 1331 1722 
L 3047 1722 
L 2188 4044 
z
M 1831 4666 
L 2547 4666 
L 4325 0 
L 3669 0 
L 3244 1197 
L 1141 1197 
L 716 0 
L 50 0 
L 1831 4666 
z
" transform="scale(0.015625)"/>
       <path id="DejaVuSans-5f" d="M 3263 -1063 
L 3263 -1509 
L -63 -1509 
L -63 -1063 
L 3263 -1063 
z
" transform="scale(0.015625)"/>
       <path id="DejaVuSans-6f" d="M 1959 3097 
Q 1497 3097 1228 2736 
Q 959 2375 959 1747 
Q 959 1119 1226 758 
Q 1494 397 1959 397 
Q 2419 397 2687 759 
Q 2956 1122 2956 1747 
Q 2956 2369 2687 2733 
Q 2419 3097 1959 3097 
z
M 1959 3584 
Q 2709 3584 3137 3096 
Q 3566 2609 3566 1747 
Q 3566 888 3137 398 
Q 2709 -91 1959 -91 
Q 1206 -91 779 398 
Q 353 888 353 1747 
Q 353 2609 779 3096 
Q 1206 3584 1959 3584 
z
" transform="scale(0.015625)"/>
       <path id="DejaVuSans-6d" d="M 3328 2828 
Q 3544 3216 3844 3400 
Q 4144 3584 4550 3584 
Q 5097 3584 5394 3201 
Q 5691 2819 5691 2113 
L 5691 0 
L 5113 0 
L 5113 2094 
Q 5113 2597 4934 2840 
Q 4756 3084 4391 3084 
Q 3944 3084 3684 2787 
Q 3425 2491 3425 1978 
L 3425 0 
L 2847 0 
L 2847 2094 
Q 2847 2600 2669 2842 
Q 2491 3084 2119 3084 
Q 1678 3084 1418 2786 
Q 1159 2488 1159 1978 
L 1159 0 
L 581 0 
L 581 3500 
L 1159 3500 
L 1159 2956 
Q 1356 3278 1631 3431 
Q 1906 3584 2284 3584 
Q 2666 3584 2933 3390 
Q 3200 3197 3328 2828 
z
" transform="scale(0.015625)"/>
       <path id="DejaVuSans-64" d="M 2906 2969 
L 2906 4863 
L 3481 4863 
L 3481 0 
L 2906 0 
L 2906 525 
Q 2725 213 2448 61 
Q 2172 -91 1784 -91 
Q 1150 -91 751 415 
Q 353 922 353 1747 
Q 353 2572 751 3078 
Q 1150 3584 1784 3584 
Q 2172 3584 2448 3432 
Q 2725 3281 2906 2969 
z
M 947 1747 
Q 947 1113 1208 752 
Q 1469 391 1925 391 
Q 2381 391 2643 752 
Q 2906 1113 2906 1747 
Q 2906 2381 2643 2742 
Q 2381 3103 1925 3103 
Q 1469 3103 1208 2742 
Q 947 2381 947 1747 
z
" transform="scale(0.015625)"/>
      </defs>
      <use xlink:href="#DejaVuSans-50"/>
      <use xlink:href="#DejaVuSans-65" x="56.677734"/>
      <use xlink:href="#DejaVuSans-72" x="118.201172"/>
      <use xlink:href="#DejaVuSans-63" x="157.064453"/>
      <use xlink:href="#DejaVuSans-65" x="212.044922"/>
      <use xlink:href="#DejaVuSans-6e" x="273.568359"/>
      <use xlink:href="#DejaVuSans-74" x="336.947266"/>
      <use xlink:href="#DejaVuSans-47" x="376.15625"/>
      <use xlink:href="#DejaVuSans-70" x="453.646484"/>
      <use xlink:href="#DejaVuSans-41" x="517.123047"/>
      <use xlink:href="#DejaVuSans-5f" x="585.53125"/>
      <use xlink:href="#DejaVuSans-74" x="635.53125"/>
      <use xlink:href="#DejaVuSans-72" x="674.740234"/>
      <use xlink:href="#DejaVuSans-61" x="715.853516"/>
      <use xlink:href="#DejaVuSans-6e" x="777.132812"/>
      <use xlink:href="#DejaVuSans-73" x="840.511719"/>
      <use xlink:href="#DejaVuSans-66" x="892.611328"/>
      <use xlink:href="#DejaVuSans-6f" x="927.816406"/>
      <use xlink:href="#DejaVuSans-72" x="988.998047"/>
      <use xlink:href="#DejaVuSans-6d" x="1028.361328"/>
      <use xlink:href="#DejaVuSans-65" x="1125.773438"/>
      <use xlink:href="#DejaVuSans-64" x="1187.296875"/>
     </g>
    </g>
   </g>
   <g id="LineCollection_1">
    <path d="M 170.224497 160.893762 
L 170.224497 117.831669 
" clip-path="url(#p063fda5f5f)" style="fill: none; stroke: #d3d3d3; stroke-width: 3"/>
    <path d="M 161.162662 213.30832 
L 161.162662 149.539311 
" clip-path="url(#p063fda5f5f)" style="fill: none; stroke: #d3d3d3; stroke-width: 3"/>
    <path d="M 266.623936 196.488603 
L 266.623936 140.626662 
" clip-path="url(#p063fda5f5f)" style="fill: none; stroke: #d3d3d3; stroke-width: 3"/>
    <path d="M 234.771131 221.465905 
L 234.771131 123.366246 
" clip-path="url(#p063fda5f5f)" style="fill: none; stroke: #d3d3d3; stroke-width: 3"/>
    <path d="M 157.510652 179.987322 
L 157.510652 150.709139 
" clip-path="url(#p063fda5f5f)" style="fill: none; stroke: #d3d3d3; stroke-width: 3"/>
    <path d="M 215.670055 238.159715 
L 215.670055 221.976752 
" clip-path="url(#p063fda5f5f)" style="fill: none; stroke: #d3d3d3; stroke-width: 3"/>
    <path d="M 222.011824 190.941224 
L 222.011824 160.905695 
" clip-path="url(#p063fda5f5f)" style="fill: none; stroke: #d3d3d3; stroke-width: 3"/>
    <path d="M 301.075578 210.27288 
L 301.075578 184.761586 
" clip-path="url(#p063fda5f5f)" style="fill: none; stroke: #d3d3d3; stroke-width: 3"/>
    <path d="M 324.995489 195.011248 
L 324.995489 172.130582 
" clip-path="url(#p063fda5f5f)" style="fill: none; stroke: #d3d3d3; stroke-width: 3"/>
    <path d="M 301.82568 277.375144 
L 301.82568 263.558923 
" clip-path="url(#p063fda5f5f)" style="fill: none; stroke: #d3d3d3; stroke-width: 3"/>
    <path d="M 243.620816 161.870489 
L 243.620816 110.596868 
" clip-path="url(#p063fda5f5f)" style="fill: none; stroke: #d3d3d3; stroke-width: 3"/>
    <path d="M 231.194888 166.467774 
L 231.194888 133.737257 
" clip-path="url(#p063fda5f5f)" style="fill: none; stroke: #d3d3d3; stroke-width: 3"/>
    <path d="M 158.935087 260.369243 
L 158.935087 244.775733 
" clip-path="url(#p063fda5f5f)" style="fill: none; stroke: #d3d3d3; stroke-width: 3"/>
    <path d="M 315.47147 237.89814 
L 315.47147 199.067791 
" clip-path="url(#p063fda5f5f)" style="fill: none; stroke: #d3d3d3; stroke-width: 3"/>
    <path d="M 260.350358 238.665213 
L 260.350358 167.341975 
" clip-path="url(#p063fda5f5f)" style="fill: none; stroke: #d3d3d3; stroke-width: 3"/>
    <path d="M 359.848701 204.07512 
L 359.848701 184.36246 
" clip-path="url(#p063fda5f5f)" style="fill: none; stroke: #d3d3d3; stroke-width: 3"/>
    <path d="M 276.91321 138.550474 
L 276.91321 110.632956 
" clip-path="url(#p063fda5f5f)" style="fill: none; stroke: #d3d3d3; stroke-width: 3"/>
    <path d="M 385.480966 234.064716 
L 385.480966 222.731186 
" clip-path="url(#p063fda5f5f)" style="fill: none; stroke: #d3d3d3; stroke-width: 3"/>
    <path d="M 329.806748 188.461968 
L 329.806748 139.819958 
" clip-path="url(#p063fda5f5f)" style="fill: none; stroke: #d3d3d3; stroke-width: 3"/>
    <path d="M 231.346424 289.612321 
L 231.346424 247.757792 
" clip-path="url(#p063fda5f5f)" style="fill: none; stroke: #d3d3d3; stroke-width: 3"/>
    <path d="M 283.618665 163.416004 
L 283.618665 116.633967 
" clip-path="url(#p063fda5f5f)" style="fill: none; stroke: #d3d3d3; stroke-width: 3"/>
    <path d="M 117.012735 152.987106 
L 117.012735 143.508885 
" clip-path="url(#p063fda5f5f)" style="fill: none; stroke: #d3d3d3; stroke-width: 3"/>
    <path d="M 69.900284 142.149156 
L 69.900284 78.670079 
" clip-path="url(#p063fda5f5f)" style="fill: none; stroke: #d3d3d3; stroke-width: 3"/>
    <path d="M 274.738673 139.866622 
L 274.738673 112.197251 
" clip-path="url(#p063fda5f5f)" style="fill: none; stroke: #d3d3d3; stroke-width: 3"/>
    <path d="M 174.952411 160.321381 
L 174.952411 145.808844 
" clip-path="url(#p063fda5f5f)" style="fill: none; stroke: #d3d3d3; stroke-width: 3"/>
    <path d="M 128.499141 214.009982 
L 128.499141 58.244124 
" clip-path="url(#p063fda5f5f)" style="fill: none; stroke: #d3d3d3; stroke-width: 3"/>
    <path d="M 285.346172 211.55952 
L 285.346172 196.027925 
" clip-path="url(#p063fda5f5f)" style="fill: none; stroke: #d3d3d3; stroke-width: 3"/>
    <path d="M 198.917783 259.640538 
L 198.917783 245.355339 
" clip-path="url(#p063fda5f5f)" style="fill: none; stroke: #d3d3d3; stroke-width: 3"/>
    <path d="M 268.427211 252.043396 
L 268.427211 241.657963 
" clip-path="url(#p063fda5f5f)" style="fill: none; stroke: #d3d3d3; stroke-width: 3"/>
    <path d="M 188.06025 265.30338 
L 188.06025 263.518014 
" clip-path="url(#p063fda5f5f)" style="fill: none; stroke: #d3d3d3; stroke-width: 3"/>
    <path d="M 363.311292 161.604708 
L 363.311292 157.376945 
" clip-path="url(#p063fda5f5f)" style="fill: none; stroke: #d3d3d3; stroke-width: 3"/>
    <path d="M 337.800256 202.587523 
L 337.800256 174.315618 
" clip-path="url(#p063fda5f5f)" style="fill: none; stroke: #d3d3d3; stroke-width: 3"/>
    <path d="M 287.748013 276.418907 
L 287.748013 249.929017 
" clip-path="url(#p063fda5f5f)" style="fill: none; stroke: #d3d3d3; stroke-width: 3"/>
    <path d="M 212.533266 211.777884 
L 212.533266 175.462835 
" clip-path="url(#p063fda5f5f)" style="fill: none; stroke: #d3d3d3; stroke-width: 3"/>
    <path d="M 263.161345 257.628014 
L 263.161345 248.290607 
" clip-path="url(#p063fda5f5f)" style="fill: none; stroke: #d3d3d3; stroke-width: 3"/>
    <path d="M 377.267731 187.914634 
L 377.267731 135.19602 
" clip-path="url(#p063fda5f5f)" style="fill: none; stroke: #d3d3d3; stroke-width: 3"/>
    <path d="M 91.925999 220.637933 
L 91.925999 205.65342 
" clip-path="url(#p063fda5f5f)" style="fill: none; stroke: #d3d3d3; stroke-width: 3"/>
    <path d="M 311.743692 234.760306 
L 311.743692 219.020887 
" clip-path="url(#p063fda5f5f)" style="fill: none; stroke: #d3d3d3; stroke-width: 3"/>
    <path d="M 267.76803 253.578121 
L 267.76803 242.877731 
" clip-path="url(#p063fda5f5f)" style="fill: none; stroke: #d3d3d3; stroke-width: 3"/>
    <path d="M 265.805643 280.303942 
L 265.805643 258.616383 
" clip-path="url(#p063fda5f5f)" style="fill: none; stroke: #d3d3d3; stroke-width: 3"/>
    <path d="M 96.502377 226.884241 
L 96.502377 196.328902 
" clip-path="url(#p063fda5f5f)" style="fill: none; stroke: #d3d3d3; stroke-width: 3"/>
    <path d="M 189.302843 187.923204 
L 189.302843 144.180703 
" clip-path="url(#p063fda5f5f)" style="fill: none; stroke: #d3d3d3; stroke-width: 3"/>
    <path d="M 384.473253 250.571504 
L 384.473253 231.637587 
" clip-path="url(#p063fda5f5f)" style="fill: none; stroke: #d3d3d3; stroke-width: 3"/>
    <path d="M 174.709954 281.135796 
L 174.709954 271.246001 
" clip-path="url(#p063fda5f5f)" style="fill: none; stroke: #d3d3d3; stroke-width: 3"/>
    <path d="M 331.102378 127.231875 
L 331.102378 86.550677 
" clip-path="url(#p063fda5f5f)" style="fill: none; stroke: #d3d3d3; stroke-width: 3"/>
   </g>
   <g id="line2d_13">
    <path d="M 170.224497 190.740361 
L 161.162662 190.207083 
L 266.623936 196.413351 
L 234.771131 194.538853 
L 157.510652 189.992167 
L 215.670055 193.414777 
L 222.011824 193.787983 
L 301.075578 198.440789 
L 324.995489 199.848447 
L 301.82568 198.484931 
L 243.620816 195.059646 
L 231.194888 194.328395 
L 158.935087 190.075993 
L 315.47147 199.28797 
L 260.350358 196.044159 
L 359.848701 201.899516 
L 276.91321 197.018863 
L 385.480966 203.407944 
L 329.806748 200.131583 
L 231.346424 194.337313 
L 283.618665 197.413471 
L 117.012735 187.608914 
L 69.900284 184.836403 
L 274.738673 196.890894 
L 174.952411 191.018593 
L 128.499141 188.284875 
L 285.346172 197.515132 
L 198.917783 192.428926 
L 268.427211 196.519472 
L 188.06025 191.789974 
L 363.311292 202.103285 
L 337.800256 200.601992 
L 287.748013 197.656478 
L 212.533266 193.230181 
L 263.161345 196.209582 
L 377.267731 202.924605 
L 91.925999 186.13259 
L 311.743692 199.068594 
L 267.76803 196.48068 
L 265.805643 196.365196 
L 96.502377 186.401904 
L 189.302843 191.863099 
L 384.473253 203.348641 
L 174.709954 191.004325 
L 331.102378 200.20783 
" clip-path="url(#p063fda5f5f)" style="fill: none; stroke: #1f77b4; stroke-width: 1.5; stroke-linecap: square"/>
   </g>
   <g id="line2d_14">
    <g clip-path="url(#p063fda5f5f)">
     <use xlink:href="#m79ed114c11" x="170.224497" y="139.362715" style="fill: #3cb371; stroke: #3cb371"/>
     <use xlink:href="#m79ed114c11" x="161.162662" y="181.423816" style="fill: #3cb371; stroke: #3cb371"/>
     <use xlink:href="#m79ed114c11" x="266.623936" y="168.557632" style="fill: #3cb371; stroke: #3cb371"/>
     <use xlink:href="#m79ed114c11" x="234.771131" y="172.416076" style="fill: #3cb371; stroke: #3cb371"/>
     <use xlink:href="#m79ed114c11" x="157.510652" y="165.348231" style="fill: #3cb371; stroke: #3cb371"/>
     <use xlink:href="#m79ed114c11" x="215.670055" y="230.068233" style="fill: #3cb371; stroke: #3cb371"/>
     <use xlink:href="#m79ed114c11" x="222.011824" y="175.923459" style="fill: #3cb371; stroke: #3cb371"/>
     <use xlink:href="#m79ed114c11" x="301.075578" y="197.517233" style="fill: #3cb371; stroke: #3cb371"/>
     <use xlink:href="#m79ed114c11" x="324.995489" y="183.570915" style="fill: #3cb371; stroke: #3cb371"/>
     <use xlink:href="#m79ed114c11" x="301.82568" y="270.467033" style="fill: #3cb371; stroke: #3cb371"/>
     <use xlink:href="#m79ed114c11" x="243.620816" y="136.233679" style="fill: #3cb371; stroke: #3cb371"/>
     <use xlink:href="#m79ed114c11" x="231.194888" y="150.102515" style="fill: #3cb371; stroke: #3cb371"/>
     <use xlink:href="#m79ed114c11" x="158.935087" y="252.572488" style="fill: #3cb371; stroke: #3cb371"/>
     <use xlink:href="#m79ed114c11" x="315.47147" y="218.482966" style="fill: #3cb371; stroke: #3cb371"/>
     <use xlink:href="#m79ed114c11" x="260.350358" y="203.003594" style="fill: #3cb371; stroke: #3cb371"/>
     <use xlink:href="#m79ed114c11" x="359.848701" y="194.21879" style="fill: #3cb371; stroke: #3cb371"/>
     <use xlink:href="#m79ed114c11" x="276.91321" y="124.591715" style="fill: #3cb371; stroke: #3cb371"/>
     <use xlink:href="#m79ed114c11" x="385.480966" y="228.397951" style="fill: #3cb371; stroke: #3cb371"/>
     <use xlink:href="#m79ed114c11" x="329.806748" y="164.140963" style="fill: #3cb371; stroke: #3cb371"/>
     <use xlink:href="#m79ed114c11" x="231.346424" y="268.685057" style="fill: #3cb371; stroke: #3cb371"/>
     <use xlink:href="#m79ed114c11" x="283.618665" y="140.024986" style="fill: #3cb371; stroke: #3cb371"/>
     <use xlink:href="#m79ed114c11" x="117.012735" y="148.247996" style="fill: #3cb371; stroke: #3cb371"/>
     <use xlink:href="#m79ed114c11" x="69.900284" y="110.409617" style="fill: #3cb371; stroke: #3cb371"/>
     <use xlink:href="#m79ed114c11" x="274.738673" y="126.031937" style="fill: #3cb371; stroke: #3cb371"/>
     <use xlink:href="#m79ed114c11" x="174.952411" y="153.065113" style="fill: #3cb371; stroke: #3cb371"/>
     <use xlink:href="#m79ed114c11" x="128.499141" y="136.127053" style="fill: #3cb371; stroke: #3cb371"/>
     <use xlink:href="#m79ed114c11" x="285.346172" y="203.793722" style="fill: #3cb371; stroke: #3cb371"/>
     <use xlink:href="#m79ed114c11" x="198.917783" y="252.497938" style="fill: #3cb371; stroke: #3cb371"/>
     <use xlink:href="#m79ed114c11" x="268.427211" y="246.850679" style="fill: #3cb371; stroke: #3cb371"/>
     <use xlink:href="#m79ed114c11" x="188.06025" y="264.410697" style="fill: #3cb371; stroke: #3cb371"/>
     <use xlink:href="#m79ed114c11" x="363.311292" y="159.490827" style="fill: #3cb371; stroke: #3cb371"/>
     <use xlink:href="#m79ed114c11" x="337.800256" y="188.451571" style="fill: #3cb371; stroke: #3cb371"/>
     <use xlink:href="#m79ed114c11" x="287.748013" y="263.173962" style="fill: #3cb371; stroke: #3cb371"/>
     <use xlink:href="#m79ed114c11" x="212.533266" y="193.62036" style="fill: #3cb371; stroke: #3cb371"/>
     <use xlink:href="#m79ed114c11" x="263.161345" y="252.95931" style="fill: #3cb371; stroke: #3cb371"/>
     <use xlink:href="#m79ed114c11" x="377.267731" y="161.555327" style="fill: #3cb371; stroke: #3cb371"/>
     <use xlink:href="#m79ed114c11" x="91.925999" y="213.145676" style="fill: #3cb371; stroke: #3cb371"/>
     <use xlink:href="#m79ed114c11" x="311.743692" y="226.890597" style="fill: #3cb371; stroke: #3cb371"/>
     <use xlink:href="#m79ed114c11" x="267.76803" y="248.227926" style="fill: #3cb371; stroke: #3cb371"/>
     <use xlink:href="#m79ed114c11" x="265.805643" y="269.460162" style="fill: #3cb371; stroke: #3cb371"/>
     <use xlink:href="#m79ed114c11" x="96.502377" y="211.606571" style="fill: #3cb371; stroke: #3cb371"/>
     <use xlink:href="#m79ed114c11" x="189.302843" y="166.051954" style="fill: #3cb371; stroke: #3cb371"/>
     <use xlink:href="#m79ed114c11" x="384.473253" y="241.104546" style="fill: #3cb371; stroke: #3cb371"/>
     <use xlink:href="#m79ed114c11" x="174.709954" y="276.190898" style="fill: #3cb371; stroke: #3cb371"/>
     <use xlink:href="#m79ed114c11" x="331.102378" y="106.891276" style="fill: #3cb371; stroke: #3cb371"/>
    </g>
   </g>
   <g id="patch_3">
    <path d="M 54.12125 303.64 
L 54.12125 46.675714 
" style="fill: none; stroke: #000000; stroke-width: 0.8; stroke-linejoin: miter; stroke-linecap: square"/>
   </g>
   <g id="patch_4">
    <path d="M 401.26 303.64 
L 401.26 46.675714 
" style="fill: none; stroke: #000000; stroke-width: 0.8; stroke-linejoin: miter; stroke-linecap: square"/>
   </g>
   <g id="patch_5">
    <path d="M 54.12125 303.64 
L 401.26 303.64 
" style="fill: none; stroke: #000000; stroke-width: 0.8; stroke-linejoin: miter; stroke-linecap: square"/>
   </g>
   <g id="patch_6">
    <path d="M 54.12125 46.675714 
L 401.26 46.675714 
" style="fill: none; stroke: #000000; stroke-width: 0.8; stroke-linejoin: miter; stroke-linecap: square"/>
   </g>
   <g id="text_15">
    <!-- y = -0.00x + 0.51 -->
    <g transform="translate(44.110906 18.599375)scale(0.1 -0.1)">
     <defs>
      <path id="DejaVuSans-79" d="M 2059 -325 
Q 1816 -950 1584 -1140 
Q 1353 -1331 966 -1331 
L 506 -1331 
L 506 -850 
L 844 -850 
Q 1081 -850 1212 -737 
Q 1344 -625 1503 -206 
L 1606 56 
L 191 3500 
L 800 3500 
L 1894 763 
L 2988 3500 
L 3597 3500 
L 2059 -325 
z
" transform="scale(0.015625)"/>
      <path id="DejaVuSans-20" transform="scale(0.015625)"/>
      <path id="DejaVuSans-3d" d="M 678 2906 
L 4684 2906 
L 4684 2381 
L 678 2381 
L 678 2906 
z
M 678 1631 
L 4684 1631 
L 4684 1100 
L 678 1100 
L 678 1631 
z
" transform="scale(0.015625)"/>
      <path id="DejaVuSans-2d" d="M 313 2009 
L 1997 2009 
L 1997 1497 
L 313 1497 
L 313 2009 
z
" transform="scale(0.015625)"/>
      <path id="DejaVuSans-78" d="M 3513 3500 
L 2247 1797 
L 3578 0 
L 2900 0 
L 1881 1375 
L 863 0 
L 184 0 
L 1544 1831 
L 300 3500 
L 978 3500 
L 1906 2253 
L 2834 3500 
L 3513 3500 
z
" transform="scale(0.015625)"/>
      <path id="DejaVuSans-2b" d="M 2944 4013 
L 2944 2272 
L 4684 2272 
L 4684 1741 
L 2944 1741 
L 2944 0 
L 2419 0 
L 2419 1741 
L 678 1741 
L 678 2272 
L 2419 2272 
L 2419 4013 
L 2944 4013 
z
" transform="scale(0.015625)"/>
     </defs>
     <use xlink:href="#DejaVuSans-79"/>
     <use xlink:href="#DejaVuSans-20" x="59.179688"/>
     <use xlink:href="#DejaVuSans-3d" x="90.966797"/>
     <use xlink:href="#DejaVuSans-20" x="174.755859"/>
     <use xlink:href="#DejaVuSans-2d" x="206.542969"/>
     <use xlink:href="#DejaVuSans-30" x="242.626953"/>
     <use xlink:href="#DejaVuSans-2e" x="306.25"/>
     <use xlink:href="#DejaVuSans-30" x="338.037109"/>
     <use xlink:href="#DejaVuSans-30" x="401.660156"/>
     <use xlink:href="#DejaVuSans-78" x="465.283203"/>
     <use xlink:href="#DejaVuSans-20" x="524.462891"/>
     <use xlink:href="#DejaVuSans-2b" x="556.25"/>
     <use xlink:href="#DejaVuSans-20" x="640.039062"/>
     <use xlink:href="#DejaVuSans-30" x="671.826172"/>
     <use xlink:href="#DejaVuSans-2e" x="735.449219"/>
     <use xlink:href="#DejaVuSans-35" x="767.236328"/>
     <use xlink:href="#DejaVuSans-31" x="830.859375"/>
    </g>
   </g>
   <g id="text_16">
    <!-- r^2 = 0.01 -->
    <g transform="translate(60.907781 26.308304)scale(0.1 -0.1)">
     <defs>
      <path id="DejaVuSans-5e" d="M 2988 4666 
L 4684 2925 
L 4056 2925 
L 2681 4159 
L 1306 2925 
L 678 2925 
L 2375 4666 
L 2988 4666 
z
" transform="scale(0.015625)"/>
     </defs>
     <use xlink:href="#DejaVuSans-72"/>
     <use xlink:href="#DejaVuSans-5e" x="41.113281"/>
     <use xlink:href="#DejaVuSans-32" x="124.902344"/>
     <use xlink:href="#DejaVuSans-20" x="188.525391"/>
     <use xlink:href="#DejaVuSans-3d" x="220.3125"/>
     <use xlink:href="#DejaVuSans-20" x="304.101562"/>
     <use xlink:href="#DejaVuSans-30" x="335.888672"/>
     <use xlink:href="#DejaVuSans-2e" x="399.511719"/>
     <use xlink:href="#DejaVuSans-30" x="431.298828"/>
     <use xlink:href="#DejaVuSans-31" x="494.921875"/>
    </g>
   </g>
   <g id="text_17">
    <!-- n = 45 -->
    <g transform="translate(71.935906 34.017232)scale(0.1 -0.1)">
     <defs>
      <path id="DejaVuSans-34" d="M 2419 4116 
L 825 1625 
L 2419 1625 
L 2419 4116 
z
M 2253 4666 
L 3047 4666 
L 3047 1625 
L 3713 1625 
L 3713 1100 
L 3047 1100 
L 3047 0 
L 2419 0 
L 2419 1100 
L 313 1100 
L 313 1709 
L 2253 4666 
z
" transform="scale(0.015625)"/>
     </defs>
     <use xlink:href="#DejaVuSans-6e"/>
     <use xlink:href="#DejaVuSans-20" x="63.378906"/>
     <use xlink:href="#DejaVuSans-3d" x="95.166016"/>
     <use xlink:href="#DejaVuSans-20" x="178.955078"/>
     <use xlink:href="#DejaVuSans-34" x="210.742188"/>
     <use xlink:href="#DejaVuSans-35" x="274.365234"/>
    </g>
   </g>
   <g id="text_18">
    <!-- SasaDiff vs PercentGpA_transformed -->
    <g transform="translate(117.354375 40.675714)scale(0.12 -0.12)">
     <defs>
      <path id="DejaVuSans-76" d="M 191 3500 
L 800 3500 
L 1894 563 
L 2988 3500 
L 3597 3500 
L 2284 0 
L 1503 0 
L 191 3500 
z
" transform="scale(0.015625)"/>
     </defs>
     <use xlink:href="#DejaVuSans-53"/>
     <use xlink:href="#DejaVuSans-61" x="63.476562"/>
     <use xlink:href="#DejaVuSans-73" x="124.755859"/>
     <use xlink:href="#DejaVuSans-61" x="176.855469"/>
     <use xlink:href="#DejaVuSans-44" x="238.134766"/>
     <use xlink:href="#DejaVuSans-69" x="315.136719"/>
     <use xlink:href="#DejaVuSans-66" x="342.919922"/>
     <use xlink:href="#DejaVuSans-66" x="378.125"/>
     <use xlink:href="#DejaVuSans-20" x="413.330078"/>
     <use xlink:href="#DejaVuSans-76" x="445.117188"/>
     <use xlink:href="#DejaVuSans-73" x="504.296875"/>
     <use xlink:href="#DejaVuSans-20" x="556.396484"/>
     <use xlink:href="#DejaVuSans-50" x="588.183594"/>
     <use xlink:href="#DejaVuSans-65" x="644.861328"/>
     <use xlink:href="#DejaVuSans-72" x="706.384766"/>
     <use xlink:href="#DejaVuSans-63" x="745.248047"/>
     <use xlink:href="#DejaVuSans-65" x="800.228516"/>
     <use xlink:href="#DejaVuSans-6e" x="861.751953"/>
     <use xlink:href="#DejaVuSans-74" x="925.130859"/>
     <use xlink:href="#DejaVuSans-47" x="964.339844"/>
     <use xlink:href="#DejaVuSans-70" x="1041.830078"/>
     <use xlink:href="#DejaVuSans-41" x="1105.306641"/>
     <use xlink:href="#DejaVuSans-5f" x="1173.714844"/>
     <use xlink:href="#DejaVuSans-74" x="1223.714844"/>
     <use xlink:href="#DejaVuSans-72" x="1262.923828"/>
     <use xlink:href="#DejaVuSans-61" x="1304.037109"/>
     <use xlink:href="#DejaVuSans-6e" x="1365.316406"/>
     <use xlink:href="#DejaVuSans-73" x="1428.695312"/>
     <use xlink:href="#DejaVuSans-66" x="1480.794922"/>
     <use xlink:href="#DejaVuSans-6f" x="1516"/>
     <use xlink:href="#DejaVuSans-72" x="1577.181641"/>
     <use xlink:href="#DejaVuSans-6d" x="1616.544922"/>
     <use xlink:href="#DejaVuSans-65" x="1713.957031"/>
     <use xlink:href="#DejaVuSans-64" x="1775.480469"/>
    </g>
   </g>
   <g id="legend_1">
    <g id="patch_7">
     <path d="M 408.26 69.353839 
L 448.008438 69.353839 
Q 450.008438 69.353839 450.008438 67.353839 
L 450.008438 53.675714 
Q 450.008438 51.675714 448.008438 51.675714 
L 408.26 51.675714 
Q 406.26 51.675714 406.26 53.675714 
L 406.26 67.353839 
Q 406.26 69.353839 408.26 69.353839 
z
" style="fill: #ffffff; opacity: 0.8; stroke: #cccccc; stroke-linejoin: miter"/>
    </g>
    <g id="PathCollection_2">
     <g>
      <use xlink:href="#m79ed114c11" x="420.26" y="60.649152" style="fill: #3cb371; stroke: #3cb371"/>
     </g>
    </g>
    <g id="text_19">
     <!-- G -->
     <g transform="translate(438.26 63.274152)scale(0.1 -0.1)">
      <use xlink:href="#DejaVuSans-47"/>
     </g>
    </g>
   </g>
  </g>
 </g>
 <defs>
  <clipPath id="p063fda5f5f">
   <rect x="54.12125" y="46.675714" width="347.13875" height="256.964286"/>
  </clipPath>
 </defs>
</svg>
