<?xml version="1.0" encoding="utf-8" standalone="no"?>
<!DOCTYPE svg PUBLIC "-//W3C//DTD SVG 1.1//EN"
  "http://www.w3.org/Graphics/SVG/1.1/DTD/svg11.dtd">
<svg xmlns:xlink="http://www.w3.org/1999/xlink" width="460.8pt" height="345.6pt" viewBox="0 0 460.8 345.6" xmlns="http://www.w3.org/2000/svg" version="1.1">
 <metadata>
  <rdf:RDF xmlns:dc="http://purl.org/dc/elements/1.1/" xmlns:cc="http://creativecommons.org/ns#" xmlns:rdf="http://www.w3.org/1999/02/22-rdf-syntax-ns#">
   <cc:Work>
    <dc:type rdf:resource="http://purl.org/dc/dcmitype/StillImage"/>
    <dc:date>2024-02-15T15:57:49.127459</dc:date>
    <dc:format>image/svg+xml</dc:format>
    <dc:creator>
     <cc:Agent>
      <dc:title>Matplotlib v3.7.1, https://matplotlib.org/</dc:title>
     </cc:Agent>
    </dc:creator>
   </cc:Work>
  </rdf:RDF>
 </metadata>
 <defs>
  <style type="text/css">*{stroke-linejoin: round; stroke-linecap: butt}</style>
 </defs>
 <g id="figure_1">
  <g id="patch_1">
   <path d="M 0 345.6 
L 460.8 345.6 
L 460.8 0 
L 0 0 
z
" style="fill: #ffffff"/>
  </g>
  <g id="axes_1">
   <g id="patch_2">
    <path d="M 47.82125 303.64 
L 450 303.64 
L 450 46.673817 
L 47.82125 46.673817 
z
" style="fill: #ffffff"/>
   </g>
   <g id="PathCollection_1">
    <defs>
     <path id="m9a94bb641b" d="M 0 3 
C 0.795609 3 1.55874 2.683901 2.12132 2.12132 
C 2.683901 1.55874 3 0.795609 3 0 
C 3 -0.795609 2.683901 -1.55874 2.12132 -2.12132 
C 1.55874 -2.683901 0.795609 -3 0 -3 
C -0.795609 -3 -1.55874 -2.683901 -2.12132 -2.12132 
C -2.683901 -1.55874 -3 -0.795609 -3 0 
C -3 0.795609 -2.683901 1.55874 -2.12132 2.12132 
C -1.55874 2.683901 -0.795609 3 0 3 
z
" style="stroke: #1f77b4"/>
    </defs>
    <g clip-path="url(#pff96e61d4a)">
     <use xlink:href="#m9a94bb641b" x="232.31884" y="174.9861" style="fill: #1f77b4; stroke: #1f77b4"/>
     <use xlink:href="#m9a94bb641b" x="146.378826" y="184.106195" style="fill: #1f77b4; stroke: #1f77b4"/>
     <use xlink:href="#m9a94bb641b" x="273.050419" y="61.18173" style="fill: #1f77b4; stroke: #1f77b4"/>
     <use xlink:href="#m9a94bb641b" x="241.610605" y="156.185017" style="fill: #1f77b4; stroke: #1f77b4"/>
     <use xlink:href="#m9a94bb641b" x="260.727964" y="215.864882" style="fill: #1f77b4; stroke: #1f77b4"/>
     <use xlink:href="#m9a94bb641b" x="106.066219" y="212.799191" style="fill: #1f77b4; stroke: #1f77b4"/>
     <use xlink:href="#m9a94bb641b" x="287.544736" y="267.492576" style="fill: #1f77b4; stroke: #1f77b4"/>
     <use xlink:href="#m9a94bb641b" x="294.347472" y="181.943799" style="fill: #1f77b4; stroke: #1f77b4"/>
     <use xlink:href="#m9a94bb641b" x="124.444831" y="210.745886" style="fill: #1f77b4; stroke: #1f77b4"/>
     <use xlink:href="#m9a94bb641b" x="112.725382" y="299.670556" style="fill: #1f77b4; stroke: #1f77b4"/>
     <use xlink:href="#m9a94bb641b" x="278.470941" y="160.274405" style="fill: #1f77b4; stroke: #1f77b4"/>
     <use xlink:href="#m9a94bb641b" x="162.308871" y="187.89054" style="fill: #1f77b4; stroke: #1f77b4"/>
     <use xlink:href="#m9a94bb641b" x="67.757104" y="189.016354" style="fill: #1f77b4; stroke: #1f77b4"/>
     <use xlink:href="#m9a94bb641b" x="339.546772" y="230.615321" style="fill: #1f77b4; stroke: #1f77b4"/>
     <use xlink:href="#m9a94bb641b" x="66.102102" y="237.113888" style="fill: #1f77b4; stroke: #1f77b4"/>
     <use xlink:href="#m9a94bb641b" x="302.708625" y="148.353505" style="fill: #1f77b4; stroke: #1f77b4"/>
     <use xlink:href="#m9a94bb641b" x="269.544634" y="160.917913" style="fill: #1f77b4; stroke: #1f77b4"/>
     <use xlink:href="#m9a94bb641b" x="270.203763" y="165.854678" style="fill: #1f77b4; stroke: #1f77b4"/>
     <use xlink:href="#m9a94bb641b" x="251.047248" y="158.26758" style="fill: #1f77b4; stroke: #1f77b4"/>
     <use xlink:href="#m9a94bb641b" x="282.757239" y="186.212912" style="fill: #1f77b4; stroke: #1f77b4"/>
     <use xlink:href="#m9a94bb641b" x="253.360074" y="154.598029" style="fill: #1f77b4; stroke: #1f77b4"/>
     <use xlink:href="#m9a94bb641b" x="258.737524" y="165.205902" style="fill: #1f77b4; stroke: #1f77b4"/>
     <use xlink:href="#m9a94bb641b" x="225.509578" y="184.064839" style="fill: #1f77b4; stroke: #1f77b4"/>
     <use xlink:href="#m9a94bb641b" x="264.544388" y="159.971202" style="fill: #1f77b4; stroke: #1f77b4"/>
     <use xlink:href="#m9a94bb641b" x="239.686731" y="196.852914" style="fill: #1f77b4; stroke: #1f77b4"/>
     <use xlink:href="#m9a94bb641b" x="218.611562" y="172.207149" style="fill: #1f77b4; stroke: #1f77b4"/>
     <use xlink:href="#m9a94bb641b" x="283.296289" y="180.754923" style="fill: #1f77b4; stroke: #1f77b4"/>
     <use xlink:href="#m9a94bb641b" x="331.273069" y="132.172974" style="fill: #1f77b4; stroke: #1f77b4"/>
     <use xlink:href="#m9a94bb641b" x="291.889769" y="154.661774" style="fill: #1f77b4; stroke: #1f77b4"/>
     <use xlink:href="#m9a94bb641b" x="240.398068" y="192.246131" style="fill: #1f77b4; stroke: #1f77b4"/>
     <use xlink:href="#m9a94bb641b" x="315.126359" y="238.261284" style="fill: #1f77b4; stroke: #1f77b4"/>
     <use xlink:href="#m9a94bb641b" x="308.792192" y="177.491134" style="fill: #1f77b4; stroke: #1f77b4"/>
     <use xlink:href="#m9a94bb641b" x="294.454499" y="168.792239" style="fill: #1f77b4; stroke: #1f77b4"/>
     <use xlink:href="#m9a94bb641b" x="215.05879" y="189.703856" style="fill: #1f77b4; stroke: #1f77b4"/>
     <use xlink:href="#m9a94bb641b" x="332.805381" y="155.103482" style="fill: #1f77b4; stroke: #1f77b4"/>
     <use xlink:href="#m9a94bb641b" x="382.059957" y="284.027288" style="fill: #1f77b4; stroke: #1f77b4"/>
     <use xlink:href="#m9a94bb641b" x="382.901816" y="265.094488" style="fill: #1f77b4; stroke: #1f77b4"/>
     <use xlink:href="#m9a94bb641b" x="269.92967" y="176.095048" style="fill: #1f77b4; stroke: #1f77b4"/>
     <use xlink:href="#m9a94bb641b" x="344.986873" y="178.988349" style="fill: #1f77b4; stroke: #1f77b4"/>
     <use xlink:href="#m9a94bb641b" x="297.003568" y="267.278334" style="fill: #1f77b4; stroke: #1f77b4"/>
     <use xlink:href="#m9a94bb641b" x="366.732918" y="286.277668" style="fill: #1f77b4; stroke: #1f77b4"/>
     <use xlink:href="#m9a94bb641b" x="301.424302" y="250.033731" style="fill: #1f77b4; stroke: #1f77b4"/>
     <use xlink:href="#m9a94bb641b" x="332.412514" y="257.415534" style="fill: #1f77b4; stroke: #1f77b4"/>
     <use xlink:href="#m9a94bb641b" x="403.0033" y="233.271335" style="fill: #1f77b4; stroke: #1f77b4"/>
     <use xlink:href="#m9a94bb641b" x="382.309252" y="238.419028" style="fill: #1f77b4; stroke: #1f77b4"/>
     <use xlink:href="#m9a94bb641b" x="353.329753" y="220.556624" style="fill: #1f77b4; stroke: #1f77b4"/>
     <use xlink:href="#m9a94bb641b" x="347.303614" y="172.099295" style="fill: #1f77b4; stroke: #1f77b4"/>
     <use xlink:href="#m9a94bb641b" x="371.025742" y="280.675092" style="fill: #1f77b4; stroke: #1f77b4"/>
     <use xlink:href="#m9a94bb641b" x="344.447823" y="274.089398" style="fill: #1f77b4; stroke: #1f77b4"/>
     <use xlink:href="#m9a94bb641b" x="431.719148" y="287.197331" style="fill: #1f77b4; stroke: #1f77b4"/>
    </g>
   </g>
   <g id="matplotlib.axis_1">
    <g id="xtick_1">
     <g id="line2d_1">
      <defs>
       <path id="md0a36aede4" d="M 0 0 
L 0 3.5 
" style="stroke: #000000; stroke-width: 0.8"/>
      </defs>
      <g>
       <use xlink:href="#md0a36aede4" x="74.100407" y="303.64" style="stroke: #000000; stroke-width: 0.8"/>
      </g>
     </g>
     <g id="text_1">
      <!-- −25 -->
      <g transform="translate(63.548064 318.238437) scale(0.1 -0.1)">
       <defs>
        <path id="DejaVuSans-2212" d="M 678 2272 
L 4684 2272 
L 4684 1741 
L 678 1741 
L 678 2272 
z
" transform="scale(0.015625)"/>
        <path id="DejaVuSans-32" d="M 1228 531 
L 3431 531 
L 3431 0 
L 469 0 
L 469 531 
Q 828 903 1448 1529 
Q 2069 2156 2228 2338 
Q 2531 2678 2651 2914 
Q 2772 3150 2772 3378 
Q 2772 3750 2511 3984 
Q 2250 4219 1831 4219 
Q 1534 4219 1204 4116 
Q 875 4013 500 3803 
L 500 4441 
Q 881 4594 1212 4672 
Q 1544 4750 1819 4750 
Q 2544 4750 2975 4387 
Q 3406 4025 3406 3419 
Q 3406 3131 3298 2873 
Q 3191 2616 2906 2266 
Q 2828 2175 2409 1742 
Q 1991 1309 1228 531 
z
" transform="scale(0.015625)"/>
        <path id="DejaVuSans-35" d="M 691 4666 
L 3169 4666 
L 3169 4134 
L 1269 4134 
L 1269 2991 
Q 1406 3038 1543 3061 
Q 1681 3084 1819 3084 
Q 2600 3084 3056 2656 
Q 3513 2228 3513 1497 
Q 3513 744 3044 326 
Q 2575 -91 1722 -91 
Q 1428 -91 1123 -41 
Q 819 9 494 109 
L 494 744 
Q 775 591 1075 516 
Q 1375 441 1709 441 
Q 2250 441 2565 725 
Q 2881 1009 2881 1497 
Q 2881 1984 2565 2268 
Q 2250 2553 1709 2553 
Q 1456 2553 1204 2497 
Q 953 2441 691 2322 
L 691 4666 
z
" transform="scale(0.015625)"/>
       </defs>
       <use xlink:href="#DejaVuSans-2212"/>
       <use xlink:href="#DejaVuSans-32" x="83.789062"/>
       <use xlink:href="#DejaVuSans-35" x="147.412109"/>
      </g>
     </g>
    </g>
    <g id="xtick_2">
     <g id="line2d_2">
      <g>
       <use xlink:href="#md0a36aede4" x="139.360731" y="303.64" style="stroke: #000000; stroke-width: 0.8"/>
      </g>
     </g>
     <g id="text_2">
      <!-- −20 -->
      <g transform="translate(128.808387 318.238437) scale(0.1 -0.1)">
       <defs>
        <path id="DejaVuSans-30" d="M 2034 4250 
Q 1547 4250 1301 3770 
Q 1056 3291 1056 2328 
Q 1056 1369 1301 889 
Q 1547 409 2034 409 
Q 2525 409 2770 889 
Q 3016 1369 3016 2328 
Q 3016 3291 2770 3770 
Q 2525 4250 2034 4250 
z
M 2034 4750 
Q 2819 4750 3233 4129 
Q 3647 3509 3647 2328 
Q 3647 1150 3233 529 
Q 2819 -91 2034 -91 
Q 1250 -91 836 529 
Q 422 1150 422 2328 
Q 422 3509 836 4129 
Q 1250 4750 2034 4750 
z
" transform="scale(0.015625)"/>
       </defs>
       <use xlink:href="#DejaVuSans-2212"/>
       <use xlink:href="#DejaVuSans-32" x="83.789062"/>
       <use xlink:href="#DejaVuSans-30" x="147.412109"/>
      </g>
     </g>
    </g>
    <g id="xtick_3">
     <g id="line2d_3">
      <g>
       <use xlink:href="#md0a36aede4" x="204.621054" y="303.64" style="stroke: #000000; stroke-width: 0.8"/>
      </g>
     </g>
     <g id="text_3">
      <!-- −15 -->
      <g transform="translate(194.06871 318.238437) scale(0.1 -0.1)">
       <defs>
        <path id="DejaVuSans-31" d="M 794 531 
L 1825 531 
L 1825 4091 
L 703 3866 
L 703 4441 
L 1819 4666 
L 2450 4666 
L 2450 531 
L 3481 531 
L 3481 0 
L 794 0 
L 794 531 
z
" transform="scale(0.015625)"/>
       </defs>
       <use xlink:href="#DejaVuSans-2212"/>
       <use xlink:href="#DejaVuSans-31" x="83.789062"/>
       <use xlink:href="#DejaVuSans-35" x="147.412109"/>
      </g>
     </g>
    </g>
    <g id="xtick_4">
     <g id="line2d_4">
      <g>
       <use xlink:href="#md0a36aede4" x="269.881377" y="303.64" style="stroke: #000000; stroke-width: 0.8"/>
      </g>
     </g>
     <g id="text_4">
      <!-- −10 -->
      <g transform="translate(259.329034 318.238437) scale(0.1 -0.1)">
       <use xlink:href="#DejaVuSans-2212"/>
       <use xlink:href="#DejaVuSans-31" x="83.789062"/>
       <use xlink:href="#DejaVuSans-30" x="147.412109"/>
      </g>
     </g>
    </g>
    <g id="xtick_5">
     <g id="line2d_5">
      <g>
       <use xlink:href="#md0a36aede4" x="335.141701" y="303.64" style="stroke: #000000; stroke-width: 0.8"/>
      </g>
     </g>
     <g id="text_5">
      <!-- −5 -->
      <g transform="translate(327.770607 318.238437) scale(0.1 -0.1)">
       <use xlink:href="#DejaVuSans-2212"/>
       <use xlink:href="#DejaVuSans-35" x="83.789062"/>
      </g>
     </g>
    </g>
    <g id="xtick_6">
     <g id="line2d_6">
      <g>
       <use xlink:href="#md0a36aede4" x="400.402024" y="303.64" style="stroke: #000000; stroke-width: 0.8"/>
      </g>
     </g>
     <g id="text_6">
      <!-- 0 -->
      <g transform="translate(397.220774 318.238437) scale(0.1 -0.1)">
       <use xlink:href="#DejaVuSans-30"/>
      </g>
     </g>
    </g>
    <g id="text_7">
     <!-- HBONDDiff -->
     <g transform="translate(221.521562 331.916562) scale(0.1 -0.1)">
      <defs>
       <path id="DejaVuSans-48" d="M 628 4666 
L 1259 4666 
L 1259 2753 
L 3553 2753 
L 3553 4666 
L 4184 4666 
L 4184 0 
L 3553 0 
L 3553 2222 
L 1259 2222 
L 1259 0 
L 628 0 
L 628 4666 
z
" transform="scale(0.015625)"/>
       <path id="DejaVuSans-42" d="M 1259 2228 
L 1259 519 
L 2272 519 
Q 2781 519 3026 730 
Q 3272 941 3272 1375 
Q 3272 1813 3026 2020 
Q 2781 2228 2272 2228 
L 1259 2228 
z
M 1259 4147 
L 1259 2741 
L 2194 2741 
Q 2656 2741 2882 2914 
Q 3109 3088 3109 3444 
Q 3109 3797 2882 3972 
Q 2656 4147 2194 4147 
L 1259 4147 
z
M 628 4666 
L 2241 4666 
Q 2963 4666 3353 4366 
Q 3744 4066 3744 3513 
Q 3744 3084 3544 2831 
Q 3344 2578 2956 2516 
Q 3422 2416 3680 2098 
Q 3938 1781 3938 1306 
Q 3938 681 3513 340 
Q 3088 0 2303 0 
L 628 0 
L 628 4666 
z
" transform="scale(0.015625)"/>
       <path id="DejaVuSans-4f" d="M 2522 4238 
Q 1834 4238 1429 3725 
Q 1025 3213 1025 2328 
Q 1025 1447 1429 934 
Q 1834 422 2522 422 
Q 3209 422 3611 934 
Q 4013 1447 4013 2328 
Q 4013 3213 3611 3725 
Q 3209 4238 2522 4238 
z
M 2522 4750 
Q 3503 4750 4090 4092 
Q 4678 3434 4678 2328 
Q 4678 1225 4090 567 
Q 3503 -91 2522 -91 
Q 1538 -91 948 565 
Q 359 1222 359 2328 
Q 359 3434 948 4092 
Q 1538 4750 2522 4750 
z
" transform="scale(0.015625)"/>
       <path id="DejaVuSans-4e" d="M 628 4666 
L 1478 4666 
L 3547 763 
L 3547 4666 
L 4159 4666 
L 4159 0 
L 3309 0 
L 1241 3903 
L 1241 0 
L 628 0 
L 628 4666 
z
" transform="scale(0.015625)"/>
       <path id="DejaVuSans-44" d="M 1259 4147 
L 1259 519 
L 2022 519 
Q 2988 519 3436 956 
Q 3884 1394 3884 2338 
Q 3884 3275 3436 3711 
Q 2988 4147 2022 4147 
L 1259 4147 
z
M 628 4666 
L 1925 4666 
Q 3281 4666 3915 4102 
Q 4550 3538 4550 2338 
Q 4550 1131 3912 565 
Q 3275 0 1925 0 
L 628 0 
L 628 4666 
z
" transform="scale(0.015625)"/>
       <path id="DejaVuSans-69" d="M 603 3500 
L 1178 3500 
L 1178 0 
L 603 0 
L 603 3500 
z
M 603 4863 
L 1178 4863 
L 1178 4134 
L 603 4134 
L 603 4863 
z
" transform="scale(0.015625)"/>
       <path id="DejaVuSans-66" d="M 2375 4863 
L 2375 4384 
L 1825 4384 
Q 1516 4384 1395 4259 
Q 1275 4134 1275 3809 
L 1275 3500 
L 2222 3500 
L 2222 3053 
L 1275 3053 
L 1275 0 
L 697 0 
L 697 3053 
L 147 3053 
L 147 3500 
L 697 3500 
L 697 3744 
Q 697 4328 969 4595 
Q 1241 4863 1831 4863 
L 2375 4863 
z
" transform="scale(0.015625)"/>
      </defs>
      <use xlink:href="#DejaVuSans-48"/>
      <use xlink:href="#DejaVuSans-42" x="75.195312"/>
      <use xlink:href="#DejaVuSans-4f" x="142.048828"/>
      <use xlink:href="#DejaVuSans-4e" x="220.759766"/>
      <use xlink:href="#DejaVuSans-44" x="295.564453"/>
      <use xlink:href="#DejaVuSans-44" x="372.566406"/>
      <use xlink:href="#DejaVuSans-69" x="449.568359"/>
      <use xlink:href="#DejaVuSans-66" x="477.351562"/>
      <use xlink:href="#DejaVuSans-66" x="512.556641"/>
     </g>
    </g>
   </g>
   <g id="matplotlib.axis_2">
    <g id="ytick_1">
     <g id="line2d_7">
      <defs>
       <path id="me68079feee" d="M 0 0 
L -3.5 0 
" style="stroke: #000000; stroke-width: 0.8"/>
      </defs>
      <g>
       <use xlink:href="#me68079feee" x="47.82125" y="303.64" style="stroke: #000000; stroke-width: 0.8"/>
      </g>
     </g>
     <g id="text_8">
      <!-- 0.0 -->
      <g transform="translate(24.918125 307.439219) scale(0.1 -0.1)">
       <defs>
        <path id="DejaVuSans-2e" d="M 684 794 
L 1344 794 
L 1344 0 
L 684 0 
L 684 794 
z
" transform="scale(0.015625)"/>
       </defs>
       <use xlink:href="#DejaVuSans-30"/>
       <use xlink:href="#DejaVuSans-2e" x="63.623047"/>
       <use xlink:href="#DejaVuSans-30" x="95.410156"/>
      </g>
     </g>
    </g>
    <g id="ytick_2">
     <g id="line2d_8">
      <g>
       <use xlink:href="#me68079feee" x="47.82125" y="251.047198" style="stroke: #000000; stroke-width: 0.8"/>
      </g>
     </g>
     <g id="text_9">
      <!-- 0.5 -->
      <g transform="translate(24.918125 254.846417) scale(0.1 -0.1)">
       <use xlink:href="#DejaVuSans-30"/>
       <use xlink:href="#DejaVuSans-2e" x="63.623047"/>
       <use xlink:href="#DejaVuSans-35" x="95.410156"/>
      </g>
     </g>
    </g>
    <g id="ytick_3">
     <g id="line2d_9">
      <g>
       <use xlink:href="#me68079feee" x="47.82125" y="198.454396" style="stroke: #000000; stroke-width: 0.8"/>
      </g>
     </g>
     <g id="text_10">
      <!-- 1.0 -->
      <g transform="translate(24.918125 202.253615) scale(0.1 -0.1)">
       <use xlink:href="#DejaVuSans-31"/>
       <use xlink:href="#DejaVuSans-2e" x="63.623047"/>
       <use xlink:href="#DejaVuSans-30" x="95.410156"/>
      </g>
     </g>
    </g>
    <g id="ytick_4">
     <g id="line2d_10">
      <g>
       <use xlink:href="#me68079feee" x="47.82125" y="145.861594" style="stroke: #000000; stroke-width: 0.8"/>
      </g>
     </g>
     <g id="text_11">
      <!-- 1.5 -->
      <g transform="translate(24.918125 149.660813) scale(0.1 -0.1)">
       <use xlink:href="#DejaVuSans-31"/>
       <use xlink:href="#DejaVuSans-2e" x="63.623047"/>
       <use xlink:href="#DejaVuSans-35" x="95.410156"/>
      </g>
     </g>
    </g>
    <g id="ytick_5">
     <g id="line2d_11">
      <g>
       <use xlink:href="#me68079feee" x="47.82125" y="93.268792" style="stroke: #000000; stroke-width: 0.8"/>
      </g>
     </g>
     <g id="text_12">
      <!-- 2.0 -->
      <g transform="translate(24.918125 97.068011) scale(0.1 -0.1)">
       <use xlink:href="#DejaVuSans-32"/>
       <use xlink:href="#DejaVuSans-2e" x="63.623047"/>
       <use xlink:href="#DejaVuSans-30" x="95.410156"/>
      </g>
     </g>
    </g>
    <g id="text_13">
     <!-- PercentGpA_transformed -->
     <g transform="translate(18.560313 237.69519) rotate(-90) scale(0.1 -0.1)">
      <defs>
       <path id="DejaVuSans-50" d="M 1259 4147 
L 1259 2394 
L 2053 2394 
Q 2494 2394 2734 2622 
Q 2975 2850 2975 3272 
Q 2975 3691 2734 3919 
Q 2494 4147 2053 4147 
L 1259 4147 
z
M 628 4666 
L 2053 4666 
Q 2838 4666 3239 4311 
Q 3641 3956 3641 3272 
Q 3641 2581 3239 2228 
Q 2838 1875 2053 1875 
L 1259 1875 
L 1259 0 
L 628 0 
L 628 4666 
z
" transform="scale(0.015625)"/>
       <path id="DejaVuSans-65" d="M 3597 1894 
L 3597 1613 
L 953 1613 
Q 991 1019 1311 708 
Q 1631 397 2203 397 
Q 2534 397 2845 478 
Q 3156 559 3463 722 
L 3463 178 
Q 3153 47 2828 -22 
Q 2503 -91 2169 -91 
Q 1331 -91 842 396 
Q 353 884 353 1716 
Q 353 2575 817 3079 
Q 1281 3584 2069 3584 
Q 2775 3584 3186 3129 
Q 3597 2675 3597 1894 
z
M 3022 2063 
Q 3016 2534 2758 2815 
Q 2500 3097 2075 3097 
Q 1594 3097 1305 2825 
Q 1016 2553 972 2059 
L 3022 2063 
z
" transform="scale(0.015625)"/>
       <path id="DejaVuSans-72" d="M 2631 2963 
Q 2534 3019 2420 3045 
Q 2306 3072 2169 3072 
Q 1681 3072 1420 2755 
Q 1159 2438 1159 1844 
L 1159 0 
L 581 0 
L 581 3500 
L 1159 3500 
L 1159 2956 
Q 1341 3275 1631 3429 
Q 1922 3584 2338 3584 
Q 2397 3584 2469 3576 
Q 2541 3569 2628 3553 
L 2631 2963 
z
" transform="scale(0.015625)"/>
       <path id="DejaVuSans-63" d="M 3122 3366 
L 3122 2828 
Q 2878 2963 2633 3030 
Q 2388 3097 2138 3097 
Q 1578 3097 1268 2742 
Q 959 2388 959 1747 
Q 959 1106 1268 751 
Q 1578 397 2138 397 
Q 2388 397 2633 464 
Q 2878 531 3122 666 
L 3122 134 
Q 2881 22 2623 -34 
Q 2366 -91 2075 -91 
Q 1284 -91 818 406 
Q 353 903 353 1747 
Q 353 2603 823 3093 
Q 1294 3584 2113 3584 
Q 2378 3584 2631 3529 
Q 2884 3475 3122 3366 
z
" transform="scale(0.015625)"/>
       <path id="DejaVuSans-6e" d="M 3513 2113 
L 3513 0 
L 2938 0 
L 2938 2094 
Q 2938 2591 2744 2837 
Q 2550 3084 2163 3084 
Q 1697 3084 1428 2787 
Q 1159 2491 1159 1978 
L 1159 0 
L 581 0 
L 581 3500 
L 1159 3500 
L 1159 2956 
Q 1366 3272 1645 3428 
Q 1925 3584 2291 3584 
Q 2894 3584 3203 3211 
Q 3513 2838 3513 2113 
z
" transform="scale(0.015625)"/>
       <path id="DejaVuSans-74" d="M 1172 4494 
L 1172 3500 
L 2356 3500 
L 2356 3053 
L 1172 3053 
L 1172 1153 
Q 1172 725 1289 603 
Q 1406 481 1766 481 
L 2356 481 
L 2356 0 
L 1766 0 
Q 1100 0 847 248 
Q 594 497 594 1153 
L 594 3053 
L 172 3053 
L 172 3500 
L 594 3500 
L 594 4494 
L 1172 4494 
z
" transform="scale(0.015625)"/>
       <path id="DejaVuSans-47" d="M 3809 666 
L 3809 1919 
L 2778 1919 
L 2778 2438 
L 4434 2438 
L 4434 434 
Q 4069 175 3628 42 
Q 3188 -91 2688 -91 
Q 1594 -91 976 548 
Q 359 1188 359 2328 
Q 359 3472 976 4111 
Q 1594 4750 2688 4750 
Q 3144 4750 3555 4637 
Q 3966 4525 4313 4306 
L 4313 3634 
Q 3963 3931 3569 4081 
Q 3175 4231 2741 4231 
Q 1884 4231 1454 3753 
Q 1025 3275 1025 2328 
Q 1025 1384 1454 906 
Q 1884 428 2741 428 
Q 3075 428 3337 486 
Q 3600 544 3809 666 
z
" transform="scale(0.015625)"/>
       <path id="DejaVuSans-70" d="M 1159 525 
L 1159 -1331 
L 581 -1331 
L 581 3500 
L 1159 3500 
L 1159 2969 
Q 1341 3281 1617 3432 
Q 1894 3584 2278 3584 
Q 2916 3584 3314 3078 
Q 3713 2572 3713 1747 
Q 3713 922 3314 415 
Q 2916 -91 2278 -91 
Q 1894 -91 1617 61 
Q 1341 213 1159 525 
z
M 3116 1747 
Q 3116 2381 2855 2742 
Q 2594 3103 2138 3103 
Q 1681 3103 1420 2742 
Q 1159 2381 1159 1747 
Q 1159 1113 1420 752 
Q 1681 391 2138 391 
Q 2594 391 2855 752 
Q 3116 1113 3116 1747 
z
" transform="scale(0.015625)"/>
       <path id="DejaVuSans-41" d="M 2188 4044 
L 1331 1722 
L 3047 1722 
L 2188 4044 
z
M 1831 4666 
L 2547 4666 
L 4325 0 
L 3669 0 
L 3244 1197 
L 1141 1197 
L 716 0 
L 50 0 
L 1831 4666 
z
" transform="scale(0.015625)"/>
       <path id="DejaVuSans-5f" d="M 3263 -1063 
L 3263 -1509 
L -63 -1509 
L -63 -1063 
L 3263 -1063 
z
" transform="scale(0.015625)"/>
       <path id="DejaVuSans-61" d="M 2194 1759 
Q 1497 1759 1228 1600 
Q 959 1441 959 1056 
Q 959 750 1161 570 
Q 1363 391 1709 391 
Q 2188 391 2477 730 
Q 2766 1069 2766 1631 
L 2766 1759 
L 2194 1759 
z
M 3341 1997 
L 3341 0 
L 2766 0 
L 2766 531 
Q 2569 213 2275 61 
Q 1981 -91 1556 -91 
Q 1019 -91 701 211 
Q 384 513 384 1019 
Q 384 1609 779 1909 
Q 1175 2209 1959 2209 
L 2766 2209 
L 2766 2266 
Q 2766 2663 2505 2880 
Q 2244 3097 1772 3097 
Q 1472 3097 1187 3025 
Q 903 2953 641 2809 
L 641 3341 
Q 956 3463 1253 3523 
Q 1550 3584 1831 3584 
Q 2591 3584 2966 3190 
Q 3341 2797 3341 1997 
z
" transform="scale(0.015625)"/>
       <path id="DejaVuSans-73" d="M 2834 3397 
L 2834 2853 
Q 2591 2978 2328 3040 
Q 2066 3103 1784 3103 
Q 1356 3103 1142 2972 
Q 928 2841 928 2578 
Q 928 2378 1081 2264 
Q 1234 2150 1697 2047 
L 1894 2003 
Q 2506 1872 2764 1633 
Q 3022 1394 3022 966 
Q 3022 478 2636 193 
Q 2250 -91 1575 -91 
Q 1294 -91 989 -36 
Q 684 19 347 128 
L 347 722 
Q 666 556 975 473 
Q 1284 391 1588 391 
Q 1994 391 2212 530 
Q 2431 669 2431 922 
Q 2431 1156 2273 1281 
Q 2116 1406 1581 1522 
L 1381 1569 
Q 847 1681 609 1914 
Q 372 2147 372 2553 
Q 372 3047 722 3315 
Q 1072 3584 1716 3584 
Q 2034 3584 2315 3537 
Q 2597 3491 2834 3397 
z
" transform="scale(0.015625)"/>
       <path id="DejaVuSans-6f" d="M 1959 3097 
Q 1497 3097 1228 2736 
Q 959 2375 959 1747 
Q 959 1119 1226 758 
Q 1494 397 1959 397 
Q 2419 397 2687 759 
Q 2956 1122 2956 1747 
Q 2956 2369 2687 2733 
Q 2419 3097 1959 3097 
z
M 1959 3584 
Q 2709 3584 3137 3096 
Q 3566 2609 3566 1747 
Q 3566 888 3137 398 
Q 2709 -91 1959 -91 
Q 1206 -91 779 398 
Q 353 888 353 1747 
Q 353 2609 779 3096 
Q 1206 3584 1959 3584 
z
" transform="scale(0.015625)"/>
       <path id="DejaVuSans-6d" d="M 3328 2828 
Q 3544 3216 3844 3400 
Q 4144 3584 4550 3584 
Q 5097 3584 5394 3201 
Q 5691 2819 5691 2113 
L 5691 0 
L 5113 0 
L 5113 2094 
Q 5113 2597 4934 2840 
Q 4756 3084 4391 3084 
Q 3944 3084 3684 2787 
Q 3425 2491 3425 1978 
L 3425 0 
L 2847 0 
L 2847 2094 
Q 2847 2600 2669 2842 
Q 2491 3084 2119 3084 
Q 1678 3084 1418 2786 
Q 1159 2488 1159 1978 
L 1159 0 
L 581 0 
L 581 3500 
L 1159 3500 
L 1159 2956 
Q 1356 3278 1631 3431 
Q 1906 3584 2284 3584 
Q 2666 3584 2933 3390 
Q 3200 3197 3328 2828 
z
" transform="scale(0.015625)"/>
       <path id="DejaVuSans-64" d="M 2906 2969 
L 2906 4863 
L 3481 4863 
L 3481 0 
L 2906 0 
L 2906 525 
Q 2725 213 2448 61 
Q 2172 -91 1784 -91 
Q 1150 -91 751 415 
Q 353 922 353 1747 
Q 353 2572 751 3078 
Q 1150 3584 1784 3584 
Q 2172 3584 2448 3432 
Q 2725 3281 2906 2969 
z
M 947 1747 
Q 947 1113 1208 752 
Q 1469 391 1925 391 
Q 2381 391 2643 752 
Q 2906 1113 2906 1747 
Q 2906 2381 2643 2742 
Q 2381 3103 1925 3103 
Q 1469 3103 1208 2742 
Q 947 2381 947 1747 
z
" transform="scale(0.015625)"/>
      </defs>
      <use xlink:href="#DejaVuSans-50"/>
      <use xlink:href="#DejaVuSans-65" x="56.677734"/>
      <use xlink:href="#DejaVuSans-72" x="118.201172"/>
      <use xlink:href="#DejaVuSans-63" x="157.064453"/>
      <use xlink:href="#DejaVuSans-65" x="212.044922"/>
      <use xlink:href="#DejaVuSans-6e" x="273.568359"/>
      <use xlink:href="#DejaVuSans-74" x="336.947266"/>
      <use xlink:href="#DejaVuSans-47" x="376.15625"/>
      <use xlink:href="#DejaVuSans-70" x="453.646484"/>
      <use xlink:href="#DejaVuSans-41" x="517.123047"/>
      <use xlink:href="#DejaVuSans-5f" x="585.53125"/>
      <use xlink:href="#DejaVuSans-74" x="635.53125"/>
      <use xlink:href="#DejaVuSans-72" x="674.740234"/>
      <use xlink:href="#DejaVuSans-61" x="715.853516"/>
      <use xlink:href="#DejaVuSans-6e" x="777.132812"/>
      <use xlink:href="#DejaVuSans-73" x="840.511719"/>
      <use xlink:href="#DejaVuSans-66" x="892.611328"/>
      <use xlink:href="#DejaVuSans-6f" x="927.816406"/>
      <use xlink:href="#DejaVuSans-72" x="988.998047"/>
      <use xlink:href="#DejaVuSans-6d" x="1028.361328"/>
      <use xlink:href="#DejaVuSans-65" x="1125.773438"/>
      <use xlink:href="#DejaVuSans-64" x="1187.296875"/>
     </g>
    </g>
   </g>
   <g id="LineCollection_1">
    <path d="M 232.31884 175.129632 
L 232.31884 174.842567 
" clip-path="url(#pff96e61d4a)" style="fill: none; stroke: #d3d3d3; stroke-width: 3"/>
    <path d="M 146.378826 184.294862 
L 146.378826 183.917529 
" clip-path="url(#pff96e61d4a)" style="fill: none; stroke: #d3d3d3; stroke-width: 3"/>
    <path d="M 273.050419 63.624956 
L 273.050419 58.738503 
" clip-path="url(#pff96e61d4a)" style="fill: none; stroke: #d3d3d3; stroke-width: 3"/>
    <path d="M 241.610605 156.360266 
L 241.610605 156.009768 
" clip-path="url(#pff96e61d4a)" style="fill: none; stroke: #d3d3d3; stroke-width: 3"/>
    <path d="M 260.727964 215.994305 
L 260.727964 215.735459 
" clip-path="url(#pff96e61d4a)" style="fill: none; stroke: #d3d3d3; stroke-width: 3"/>
    <path d="M 106.066219 212.91245 
L 106.066219 212.685932 
" clip-path="url(#pff96e61d4a)" style="fill: none; stroke: #d3d3d3; stroke-width: 3"/>
    <path d="M 287.544736 267.752708 
L 287.544736 267.232445 
" clip-path="url(#pff96e61d4a)" style="fill: none; stroke: #d3d3d3; stroke-width: 3"/>
    <path d="M 294.347472 182.147068 
L 294.347472 181.74053 
" clip-path="url(#pff96e61d4a)" style="fill: none; stroke: #d3d3d3; stroke-width: 3"/>
    <path d="M 124.444831 210.853012 
L 124.444831 210.63876 
" clip-path="url(#pff96e61d4a)" style="fill: none; stroke: #d3d3d3; stroke-width: 3"/>
    <path d="M 112.725382 300.032215 
L 112.725382 299.308896 
" clip-path="url(#pff96e61d4a)" style="fill: none; stroke: #d3d3d3; stroke-width: 3"/>
    <path d="M 278.470941 160.42315 
L 278.470941 160.125659 
" clip-path="url(#pff96e61d4a)" style="fill: none; stroke: #d3d3d3; stroke-width: 3"/>
    <path d="M 162.308871 188.20668 
L 162.308871 187.574401 
" clip-path="url(#pff96e61d4a)" style="fill: none; stroke: #d3d3d3; stroke-width: 3"/>
    <path d="M 67.757104 189.687001 
L 67.757104 188.345707 
" clip-path="url(#pff96e61d4a)" style="fill: none; stroke: #d3d3d3; stroke-width: 3"/>
    <path d="M 339.546772 230.759214 
L 339.546772 230.471427 
" clip-path="url(#pff96e61d4a)" style="fill: none; stroke: #d3d3d3; stroke-width: 3"/>
    <path d="M 66.102102 237.356119 
L 66.102102 236.871658 
" clip-path="url(#pff96e61d4a)" style="fill: none; stroke: #d3d3d3; stroke-width: 3"/>
    <path d="M 302.708625 148.774037 
L 302.708625 147.932973 
" clip-path="url(#pff96e61d4a)" style="fill: none; stroke: #d3d3d3; stroke-width: 3"/>
    <path d="M 269.544634 161.22194 
L 269.544634 160.613886 
" clip-path="url(#pff96e61d4a)" style="fill: none; stroke: #d3d3d3; stroke-width: 3"/>
    <path d="M 270.203763 165.927843 
L 270.203763 165.781512 
" clip-path="url(#pff96e61d4a)" style="fill: none; stroke: #d3d3d3; stroke-width: 3"/>
    <path d="M 251.047248 158.529201 
L 251.047248 158.00596 
" clip-path="url(#pff96e61d4a)" style="fill: none; stroke: #d3d3d3; stroke-width: 3"/>
    <path d="M 282.757239 186.307691 
L 282.757239 186.118134 
" clip-path="url(#pff96e61d4a)" style="fill: none; stroke: #d3d3d3; stroke-width: 3"/>
    <path d="M 253.360074 154.854562 
L 253.360074 154.341496 
" clip-path="url(#pff96e61d4a)" style="fill: none; stroke: #d3d3d3; stroke-width: 3"/>
    <path d="M 258.737524 165.55656 
L 258.737524 164.855243 
" clip-path="url(#pff96e61d4a)" style="fill: none; stroke: #d3d3d3; stroke-width: 3"/>
    <path d="M 225.509578 184.224427 
L 225.509578 183.905251 
" clip-path="url(#pff96e61d4a)" style="fill: none; stroke: #d3d3d3; stroke-width: 3"/>
    <path d="M 264.544388 160.198138 
L 264.544388 159.744266 
" clip-path="url(#pff96e61d4a)" style="fill: none; stroke: #d3d3d3; stroke-width: 3"/>
    <path d="M 239.686731 196.948018 
L 239.686731 196.75781 
" clip-path="url(#pff96e61d4a)" style="fill: none; stroke: #d3d3d3; stroke-width: 3"/>
    <path d="M 218.611562 172.399082 
L 218.611562 172.015217 
" clip-path="url(#pff96e61d4a)" style="fill: none; stroke: #d3d3d3; stroke-width: 3"/>
    <path d="M 283.296289 180.945889 
L 283.296289 180.563956 
" clip-path="url(#pff96e61d4a)" style="fill: none; stroke: #d3d3d3; stroke-width: 3"/>
    <path d="M 331.273069 132.612467 
L 331.273069 131.733482 
" clip-path="url(#pff96e61d4a)" style="fill: none; stroke: #d3d3d3; stroke-width: 3"/>
    <path d="M 291.889769 154.897101 
L 291.889769 154.426446 
" clip-path="url(#pff96e61d4a)" style="fill: none; stroke: #d3d3d3; stroke-width: 3"/>
    <path d="M 240.398068 192.608099 
L 240.398068 191.884164 
" clip-path="url(#pff96e61d4a)" style="fill: none; stroke: #d3d3d3; stroke-width: 3"/>
    <path d="M 315.126359 238.402522 
L 315.126359 238.120046 
" clip-path="url(#pff96e61d4a)" style="fill: none; stroke: #d3d3d3; stroke-width: 3"/>
    <path d="M 308.792192 177.533827 
L 308.792192 177.44844 
" clip-path="url(#pff96e61d4a)" style="fill: none; stroke: #d3d3d3; stroke-width: 3"/>
    <path d="M 294.454499 169.041094 
L 294.454499 168.543383 
" clip-path="url(#pff96e61d4a)" style="fill: none; stroke: #d3d3d3; stroke-width: 3"/>
    <path d="M 215.05879 190.10157 
L 215.05879 189.306143 
" clip-path="url(#pff96e61d4a)" style="fill: none; stroke: #d3d3d3; stroke-width: 3"/>
    <path d="M 332.805381 155.230637 
L 332.805381 154.976327 
" clip-path="url(#pff96e61d4a)" style="fill: none; stroke: #d3d3d3; stroke-width: 3"/>
    <path d="M 382.059957 284.252333 
L 382.059957 283.802242 
" clip-path="url(#pff96e61d4a)" style="fill: none; stroke: #d3d3d3; stroke-width: 3"/>
    <path d="M 382.901816 265.226351 
L 382.901816 264.962624 
" clip-path="url(#pff96e61d4a)" style="fill: none; stroke: #d3d3d3; stroke-width: 3"/>
    <path d="M 269.92967 176.209356 
L 269.92967 175.98074 
" clip-path="url(#pff96e61d4a)" style="fill: none; stroke: #d3d3d3; stroke-width: 3"/>
    <path d="M 344.986873 179.239653 
L 344.986873 178.737045 
" clip-path="url(#pff96e61d4a)" style="fill: none; stroke: #d3d3d3; stroke-width: 3"/>
    <path d="M 297.003568 267.359007 
L 297.003568 267.19766 
" clip-path="url(#pff96e61d4a)" style="fill: none; stroke: #d3d3d3; stroke-width: 3"/>
    <path d="M 366.732918 286.367957 
L 366.732918 286.187379 
" clip-path="url(#pff96e61d4a)" style="fill: none; stroke: #d3d3d3; stroke-width: 3"/>
    <path d="M 301.424302 250.220824 
L 301.424302 249.846638 
" clip-path="url(#pff96e61d4a)" style="fill: none; stroke: #d3d3d3; stroke-width: 3"/>
    <path d="M 332.412514 257.516362 
L 332.412514 257.314706 
" clip-path="url(#pff96e61d4a)" style="fill: none; stroke: #d3d3d3; stroke-width: 3"/>
    <path d="M 403.0033 233.472167 
L 403.0033 233.070503 
" clip-path="url(#pff96e61d4a)" style="fill: none; stroke: #d3d3d3; stroke-width: 3"/>
    <path d="M 382.309252 238.48601 
L 382.309252 238.352045 
" clip-path="url(#pff96e61d4a)" style="fill: none; stroke: #d3d3d3; stroke-width: 3"/>
    <path d="M 353.329753 220.636352 
L 353.329753 220.476895 
" clip-path="url(#pff96e61d4a)" style="fill: none; stroke: #d3d3d3; stroke-width: 3"/>
    <path d="M 347.303614 172.118021 
L 347.303614 172.080569 
" clip-path="url(#pff96e61d4a)" style="fill: none; stroke: #d3d3d3; stroke-width: 3"/>
    <path d="M 371.025742 280.794191 
L 371.025742 280.555993 
" clip-path="url(#pff96e61d4a)" style="fill: none; stroke: #d3d3d3; stroke-width: 3"/>
    <path d="M 344.447823 274.2169 
L 344.447823 273.961896 
" clip-path="url(#pff96e61d4a)" style="fill: none; stroke: #d3d3d3; stroke-width: 3"/>
    <path d="M 431.719148 287.404086 
L 431.719148 286.990576 
" clip-path="url(#pff96e61d4a)" style="fill: none; stroke: #d3d3d3; stroke-width: 3"/>
   </g>
   <g id="line2d_12">
    <path d="M 232.31884 196.181871 
L 146.378826 185.167062 
L 273.050419 201.40238 
L 241.610605 197.372783 
L 260.727964 199.823028 
L 106.066219 180.000253 
L 287.544736 203.260096 
L 294.347472 204.131993 
L 124.444831 182.355813 
L 112.725382 180.853748 
L 278.470941 202.09712 
L 162.308871 187.208793 
L 67.757104 175.090228 
L 339.546772 209.925122 
L 66.102102 174.878109 
L 302.708625 205.20363 
L 269.544634 200.953048 
L 270.203763 201.037528 
L 251.047248 198.582265 
L 282.757239 202.646489 
L 253.360074 198.878696 
L 258.737524 199.567916 
L 225.509578 195.309138 
L 264.544388 200.312174 
L 239.686731 197.126203 
L 218.611562 194.425029 
L 283.296289 202.715578 
L 331.273069 208.864694 
L 291.889769 203.816992 
L 240.398068 197.217374 
L 315.126359 206.795193 
L 308.792192 205.983352 
L 294.454499 204.14571 
L 215.05879 193.969675 
L 332.805381 209.061088 
L 382.059957 215.373977 
L 382.901816 215.481876 
L 269.92967 201.002398 
L 344.986873 210.622372 
L 297.003568 204.47242 
L 366.732918 213.409532 
L 301.424302 205.03902 
L 332.412514 209.010735 
L 403.0033 218.058255 
L 382.309252 215.405928 
L 353.329753 211.691667 
L 347.303614 210.919306 
L 371.025742 213.959737 
L 344.447823 210.553283 
L 431.719148 221.738724 
" clip-path="url(#pff96e61d4a)" style="fill: none; stroke: #1f77b4; stroke-width: 1.5; stroke-linecap: square"/>
   </g>
   <g id="line2d_13">
    <defs>
     <path id="m8bc4c2b9f0" d="M 0 3 
C 0.795609 3 1.55874 2.683901 2.12132 2.12132 
C 2.683901 1.55874 3 0.795609 3 0 
C 3 -0.795609 2.683901 -1.55874 2.12132 -2.12132 
C 1.55874 -2.683901 0.795609 -3 0 -3 
C -0.795609 -3 -1.55874 -2.683901 -2.12132 -2.12132 
C -2.683901 -1.55874 -3 -0.795609 -3 0 
C -3 0.795609 -2.683901 1.55874 -2.12132 2.12132 
C -1.55874 2.683901 -0.795609 3 0 3 
z
" style="stroke: #000000"/>
    </defs>
    <g clip-path="url(#pff96e61d4a)">
     <use xlink:href="#m8bc4c2b9f0" x="232.31884" y="174.9861" style="stroke: #000000"/>
     <use xlink:href="#m8bc4c2b9f0" x="146.378826" y="184.106195" style="stroke: #000000"/>
     <use xlink:href="#m8bc4c2b9f0" x="273.050419" y="61.18173" style="stroke: #000000"/>
     <use xlink:href="#m8bc4c2b9f0" x="241.610605" y="156.185017" style="stroke: #000000"/>
     <use xlink:href="#m8bc4c2b9f0" x="260.727964" y="215.864882" style="stroke: #000000"/>
     <use xlink:href="#m8bc4c2b9f0" x="106.066219" y="212.799191" style="stroke: #000000"/>
     <use xlink:href="#m8bc4c2b9f0" x="287.544736" y="267.492576" style="stroke: #000000"/>
     <use xlink:href="#m8bc4c2b9f0" x="294.347472" y="181.943799" style="stroke: #000000"/>
     <use xlink:href="#m8bc4c2b9f0" x="124.444831" y="210.745886" style="stroke: #000000"/>
     <use xlink:href="#m8bc4c2b9f0" x="112.725382" y="299.670556" style="stroke: #000000"/>
     <use xlink:href="#m8bc4c2b9f0" x="278.470941" y="160.274405" style="stroke: #000000"/>
     <use xlink:href="#m8bc4c2b9f0" x="162.308871" y="187.89054" style="stroke: #000000"/>
     <use xlink:href="#m8bc4c2b9f0" x="67.757104" y="189.016354" style="stroke: #000000"/>
     <use xlink:href="#m8bc4c2b9f0" x="339.546772" y="230.615321" style="stroke: #000000"/>
     <use xlink:href="#m8bc4c2b9f0" x="66.102102" y="237.113888" style="stroke: #000000"/>
     <use xlink:href="#m8bc4c2b9f0" x="302.708625" y="148.353505" style="stroke: #000000"/>
     <use xlink:href="#m8bc4c2b9f0" x="269.544634" y="160.917913" style="stroke: #000000"/>
     <use xlink:href="#m8bc4c2b9f0" x="270.203763" y="165.854678" style="stroke: #000000"/>
     <use xlink:href="#m8bc4c2b9f0" x="251.047248" y="158.26758" style="stroke: #000000"/>
     <use xlink:href="#m8bc4c2b9f0" x="282.757239" y="186.212912" style="stroke: #000000"/>
     <use xlink:href="#m8bc4c2b9f0" x="253.360074" y="154.598029" style="stroke: #000000"/>
     <use xlink:href="#m8bc4c2b9f0" x="258.737524" y="165.205902" style="stroke: #000000"/>
     <use xlink:href="#m8bc4c2b9f0" x="225.509578" y="184.064839" style="stroke: #000000"/>
     <use xlink:href="#m8bc4c2b9f0" x="264.544388" y="159.971202" style="stroke: #000000"/>
     <use xlink:href="#m8bc4c2b9f0" x="239.686731" y="196.852914" style="stroke: #000000"/>
     <use xlink:href="#m8bc4c2b9f0" x="218.611562" y="172.207149" style="stroke: #000000"/>
     <use xlink:href="#m8bc4c2b9f0" x="283.296289" y="180.754923" style="stroke: #000000"/>
     <use xlink:href="#m8bc4c2b9f0" x="331.273069" y="132.172974" style="stroke: #000000"/>
     <use xlink:href="#m8bc4c2b9f0" x="291.889769" y="154.661774" style="stroke: #000000"/>
     <use xlink:href="#m8bc4c2b9f0" x="240.398068" y="192.246131" style="stroke: #000000"/>
     <use xlink:href="#m8bc4c2b9f0" x="315.126359" y="238.261284" style="stroke: #000000"/>
     <use xlink:href="#m8bc4c2b9f0" x="308.792192" y="177.491134" style="stroke: #000000"/>
     <use xlink:href="#m8bc4c2b9f0" x="294.454499" y="168.792239" style="stroke: #000000"/>
     <use xlink:href="#m8bc4c2b9f0" x="215.05879" y="189.703856" style="stroke: #000000"/>
     <use xlink:href="#m8bc4c2b9f0" x="332.805381" y="155.103482" style="stroke: #000000"/>
     <use xlink:href="#m8bc4c2b9f0" x="382.059957" y="284.027288" style="stroke: #000000"/>
     <use xlink:href="#m8bc4c2b9f0" x="382.901816" y="265.094488" style="stroke: #000000"/>
     <use xlink:href="#m8bc4c2b9f0" x="269.92967" y="176.095048" style="stroke: #000000"/>
     <use xlink:href="#m8bc4c2b9f0" x="344.986873" y="178.988349" style="stroke: #000000"/>
     <use xlink:href="#m8bc4c2b9f0" x="297.003568" y="267.278334" style="stroke: #000000"/>
     <use xlink:href="#m8bc4c2b9f0" x="366.732918" y="286.277668" style="stroke: #000000"/>
     <use xlink:href="#m8bc4c2b9f0" x="301.424302" y="250.033731" style="stroke: #000000"/>
     <use xlink:href="#m8bc4c2b9f0" x="332.412514" y="257.415534" style="stroke: #000000"/>
     <use xlink:href="#m8bc4c2b9f0" x="403.0033" y="233.271335" style="stroke: #000000"/>
     <use xlink:href="#m8bc4c2b9f0" x="382.309252" y="238.419028" style="stroke: #000000"/>
     <use xlink:href="#m8bc4c2b9f0" x="353.329753" y="220.556624" style="stroke: #000000"/>
     <use xlink:href="#m8bc4c2b9f0" x="347.303614" y="172.099295" style="stroke: #000000"/>
     <use xlink:href="#m8bc4c2b9f0" x="371.025742" y="280.675092" style="stroke: #000000"/>
     <use xlink:href="#m8bc4c2b9f0" x="344.447823" y="274.089398" style="stroke: #000000"/>
     <use xlink:href="#m8bc4c2b9f0" x="431.719148" y="287.197331" style="stroke: #000000"/>
    </g>
   </g>
   <g id="patch_3">
    <path d="M 47.82125 303.64 
L 47.82125 46.673817 
" style="fill: none; stroke: #000000; stroke-width: 0.8; stroke-linejoin: miter; stroke-linecap: square"/>
   </g>
   <g id="patch_4">
    <path d="M 450 303.64 
L 450 46.673817 
" style="fill: none; stroke: #000000; stroke-width: 0.8; stroke-linejoin: miter; stroke-linecap: square"/>
   </g>
   <g id="patch_5">
    <path d="M 47.82125 303.64 
L 450 303.64 
" style="fill: none; stroke: #000000; stroke-width: 0.8; stroke-linejoin: miter; stroke-linecap: square"/>
   </g>
   <g id="patch_6">
    <path d="M 47.82125 46.673817 
L 450 46.673817 
" style="fill: none; stroke: #000000; stroke-width: 0.8; stroke-linejoin: miter; stroke-linecap: square"/>
   </g>
   <g id="text_14">
    <!-- y = -0.02x + 0.82 -->
    <g transform="translate(43.314906 18.597251) scale(0.1 -0.1)">
     <defs>
      <path id="DejaVuSans-79" d="M 2059 -325 
Q 1816 -950 1584 -1140 
Q 1353 -1331 966 -1331 
L 506 -1331 
L 506 -850 
L 844 -850 
Q 1081 -850 1212 -737 
Q 1344 -625 1503 -206 
L 1606 56 
L 191 3500 
L 800 3500 
L 1894 763 
L 2988 3500 
L 3597 3500 
L 2059 -325 
z
" transform="scale(0.015625)"/>
      <path id="DejaVuSans-20" transform="scale(0.015625)"/>
      <path id="DejaVuSans-3d" d="M 678 2906 
L 4684 2906 
L 4684 2381 
L 678 2381 
L 678 2906 
z
M 678 1631 
L 4684 1631 
L 4684 1100 
L 678 1100 
L 678 1631 
z
" transform="scale(0.015625)"/>
      <path id="DejaVuSans-2d" d="M 313 2009 
L 1997 2009 
L 1997 1497 
L 313 1497 
L 313 2009 
z
" transform="scale(0.015625)"/>
      <path id="DejaVuSans-78" d="M 3513 3500 
L 2247 1797 
L 3578 0 
L 2900 0 
L 1881 1375 
L 863 0 
L 184 0 
L 1544 1831 
L 300 3500 
L 978 3500 
L 1906 2253 
L 2834 3500 
L 3513 3500 
z
" transform="scale(0.015625)"/>
      <path id="DejaVuSans-2b" d="M 2944 4013 
L 2944 2272 
L 4684 2272 
L 4684 1741 
L 2944 1741 
L 2944 0 
L 2419 0 
L 2419 1741 
L 678 1741 
L 678 2272 
L 2419 2272 
L 2419 4013 
L 2944 4013 
z
" transform="scale(0.015625)"/>
      <path id="DejaVuSans-38" d="M 2034 2216 
Q 1584 2216 1326 1975 
Q 1069 1734 1069 1313 
Q 1069 891 1326 650 
Q 1584 409 2034 409 
Q 2484 409 2743 651 
Q 3003 894 3003 1313 
Q 3003 1734 2745 1975 
Q 2488 2216 2034 2216 
z
M 1403 2484 
Q 997 2584 770 2862 
Q 544 3141 544 3541 
Q 544 4100 942 4425 
Q 1341 4750 2034 4750 
Q 2731 4750 3128 4425 
Q 3525 4100 3525 3541 
Q 3525 3141 3298 2862 
Q 3072 2584 2669 2484 
Q 3125 2378 3379 2068 
Q 3634 1759 3634 1313 
Q 3634 634 3220 271 
Q 2806 -91 2034 -91 
Q 1263 -91 848 271 
Q 434 634 434 1313 
Q 434 1759 690 2068 
Q 947 2378 1403 2484 
z
M 1172 3481 
Q 1172 3119 1398 2916 
Q 1625 2713 2034 2713 
Q 2441 2713 2670 2916 
Q 2900 3119 2900 3481 
Q 2900 3844 2670 4047 
Q 2441 4250 2034 4250 
Q 1625 4250 1398 4047 
Q 1172 3844 1172 3481 
z
" transform="scale(0.015625)"/>
     </defs>
     <use xlink:href="#DejaVuSans-79"/>
     <use xlink:href="#DejaVuSans-20" x="59.179688"/>
     <use xlink:href="#DejaVuSans-3d" x="90.966797"/>
     <use xlink:href="#DejaVuSans-20" x="174.755859"/>
     <use xlink:href="#DejaVuSans-2d" x="206.542969"/>
     <use xlink:href="#DejaVuSans-30" x="242.626953"/>
     <use xlink:href="#DejaVuSans-2e" x="306.25"/>
     <use xlink:href="#DejaVuSans-30" x="338.037109"/>
     <use xlink:href="#DejaVuSans-32" x="401.660156"/>
     <use xlink:href="#DejaVuSans-78" x="465.283203"/>
     <use xlink:href="#DejaVuSans-20" x="524.462891"/>
     <use xlink:href="#DejaVuSans-2b" x="556.25"/>
     <use xlink:href="#DejaVuSans-20" x="640.039062"/>
     <use xlink:href="#DejaVuSans-30" x="671.826172"/>
     <use xlink:href="#DejaVuSans-2e" x="735.449219"/>
     <use xlink:href="#DejaVuSans-38" x="767.236328"/>
     <use xlink:href="#DejaVuSans-32" x="830.859375"/>
    </g>
   </g>
   <g id="text_15">
    <!-- r^2 = 0.05 -->
    <g transform="translate(60.111781 26.306236) scale(0.1 -0.1)">
     <defs>
      <path id="DejaVuSans-5e" d="M 2988 4666 
L 4684 2925 
L 4056 2925 
L 2681 4159 
L 1306 2925 
L 678 2925 
L 2375 4666 
L 2988 4666 
z
" transform="scale(0.015625)"/>
     </defs>
     <use xlink:href="#DejaVuSans-72"/>
     <use xlink:href="#DejaVuSans-5e" x="41.113281"/>
     <use xlink:href="#DejaVuSans-32" x="124.902344"/>
     <use xlink:href="#DejaVuSans-20" x="188.525391"/>
     <use xlink:href="#DejaVuSans-3d" x="220.3125"/>
     <use xlink:href="#DejaVuSans-20" x="304.101562"/>
     <use xlink:href="#DejaVuSans-30" x="335.888672"/>
     <use xlink:href="#DejaVuSans-2e" x="399.511719"/>
     <use xlink:href="#DejaVuSans-30" x="431.298828"/>
     <use xlink:href="#DejaVuSans-35" x="494.921875"/>
    </g>
   </g>
   <g id="text_16">
    <!-- n = 50 -->
    <g transform="translate(71.139906 34.015221) scale(0.1 -0.1)">
     <use xlink:href="#DejaVuSans-6e"/>
     <use xlink:href="#DejaVuSans-20" x="63.378906"/>
     <use xlink:href="#DejaVuSans-3d" x="95.166016"/>
     <use xlink:href="#DejaVuSans-20" x="178.955078"/>
     <use xlink:href="#DejaVuSans-35" x="210.742188"/>
     <use xlink:href="#DejaVuSans-30" x="274.365234"/>
    </g>
   </g>
   <g id="text_17">
    <!-- HBONDDiff vs PercentGpA_transformed -->
    <g transform="translate(130.507187 40.673817) scale(0.12 -0.12)">
     <defs>
      <path id="DejaVuSans-76" d="M 191 3500 
L 800 3500 
L 1894 563 
L 2988 3500 
L 3597 3500 
L 2284 0 
L 1503 0 
L 191 3500 
z
" transform="scale(0.015625)"/>
     </defs>
     <use xlink:href="#DejaVuSans-48"/>
     <use xlink:href="#DejaVuSans-42" x="75.195312"/>
     <use xlink:href="#DejaVuSans-4f" x="142.048828"/>
     <use xlink:href="#DejaVuSans-4e" x="220.759766"/>
     <use xlink:href="#DejaVuSans-44" x="295.564453"/>
     <use xlink:href="#DejaVuSans-44" x="372.566406"/>
     <use xlink:href="#DejaVuSans-69" x="449.568359"/>
     <use xlink:href="#DejaVuSans-66" x="477.351562"/>
     <use xlink:href="#DejaVuSans-66" x="512.556641"/>
     <use xlink:href="#DejaVuSans-20" x="547.761719"/>
     <use xlink:href="#DejaVuSans-76" x="579.548828"/>
     <use xlink:href="#DejaVuSans-73" x="638.728516"/>
     <use xlink:href="#DejaVuSans-20" x="690.828125"/>
     <use xlink:href="#DejaVuSans-50" x="722.615234"/>
     <use xlink:href="#DejaVuSans-65" x="779.292969"/>
     <use xlink:href="#DejaVuSans-72" x="840.816406"/>
     <use xlink:href="#DejaVuSans-63" x="879.679688"/>
     <use xlink:href="#DejaVuSans-65" x="934.660156"/>
     <use xlink:href="#DejaVuSans-6e" x="996.183594"/>
     <use xlink:href="#DejaVuSans-74" x="1059.5625"/>
     <use xlink:href="#DejaVuSans-47" x="1098.771484"/>
     <use xlink:href="#DejaVuSans-70" x="1176.261719"/>
     <use xlink:href="#DejaVuSans-41" x="1239.738281"/>
     <use xlink:href="#DejaVuSans-5f" x="1308.146484"/>
     <use xlink:href="#DejaVuSans-74" x="1358.146484"/>
     <use xlink:href="#DejaVuSans-72" x="1397.355469"/>
     <use xlink:href="#DejaVuSans-61" x="1438.46875"/>
     <use xlink:href="#DejaVuSans-6e" x="1499.748047"/>
     <use xlink:href="#DejaVuSans-73" x="1563.126953"/>
     <use xlink:href="#DejaVuSans-66" x="1615.226562"/>
     <use xlink:href="#DejaVuSans-6f" x="1650.431641"/>
     <use xlink:href="#DejaVuSans-72" x="1711.613281"/>
     <use xlink:href="#DejaVuSans-6d" x="1750.976562"/>
     <use xlink:href="#DejaVuSans-65" x="1848.388672"/>
     <use xlink:href="#DejaVuSans-64" x="1909.912109"/>
    </g>
   </g>
  </g>
 </g>
 <defs>
  <clipPath id="pff96e61d4a">
   <rect x="47.82125" y="46.673817" width="402.17875" height="256.966183"/>
  </clipPath>
 </defs>
</svg>
