<?xml version="1.0" encoding="utf-8" standalone="no"?>
<!DOCTYPE svg PUBLIC "-//W3C//DTD SVG 1.1//EN"
  "http://www.w3.org/Graphics/SVG/1.1/DTD/svg11.dtd">
<svg xmlns:xlink="http://www.w3.org/1999/xlink" width="460.8pt" height="345.6pt" viewBox="0 0 460.8 345.6" xmlns="http://www.w3.org/2000/svg" version="1.1">
 <metadata>
  <rdf:RDF xmlns:dc="http://purl.org/dc/elements/1.1/" xmlns:cc="http://creativecommons.org/ns#" xmlns:rdf="http://www.w3.org/1999/02/22-rdf-syntax-ns#">
   <cc:Work>
    <dc:type rdf:resource="http://purl.org/dc/dcmitype/StillImage"/>
    <dc:date>2024-02-15T22:05:03.177656</dc:date>
    <dc:format>image/svg+xml</dc:format>
    <dc:creator>
     <cc:Agent>
      <dc:title>Matplotlib v3.5.3, https://matplotlib.org/</dc:title>
     </cc:Agent>
    </dc:creator>
   </cc:Work>
  </rdf:RDF>
 </metadata>
 <defs>
  <style type="text/css">*{stroke-linejoin: round; stroke-linecap: butt}</style>
 </defs>
 <g id="figure_1">
  <g id="patch_1">
   <path d="M 0 345.6 
L 460.8 345.6 
L 460.8 0 
L 0 0 
z
" style="fill: #ffffff"/>
  </g>
  <g id="axes_1">
   <g id="patch_2">
    <path d="M 47.82125 303.64 
L 401.26 303.64 
L 401.26 46.675714 
L 47.82125 46.675714 
z
" style="fill: #ffffff"/>
   </g>
   <g id="PathCollection_1">
    <defs>
     <path id="m7562224711" d="M 0 3 
C 0.795609 3 1.55874 2.683901 2.12132 2.12132 
C 2.683901 1.55874 3 0.795609 3 0 
C 3 -0.795609 2.683901 -1.55874 2.12132 -2.12132 
C 1.55874 -2.683901 0.795609 -3 0 -3 
C -0.795609 -3 -1.55874 -2.683901 -2.12132 -2.12132 
C -2.683901 -1.55874 -3 -0.795609 -3 0 
C -3 0.795609 -2.683901 1.55874 -2.12132 2.12132 
C -1.55874 2.683901 -0.795609 3 0 3 
z
" style="stroke: #3cb371"/>
    </defs>
    <g clip-path="url(#pbaeb2c086b)">
     <use xlink:href="#m7562224711" x="292.577722" y="170.141275" style="fill: #3cb371; stroke: #3cb371"/>
     <use xlink:href="#m7562224711" x="376.275699" y="179.532908" style="fill: #3cb371; stroke: #3cb371"/>
     <use xlink:href="#m7562224711" x="385.194602" y="206.698422" style="fill: #3cb371; stroke: #3cb371"/>
     <use xlink:href="#m7562224711" x="372.466077" y="204.658665" style="fill: #3cb371; stroke: #3cb371"/>
     <use xlink:href="#m7562224711" x="90.781446" y="158.306504" style="fill: #3cb371; stroke: #3cb371"/>
     <use xlink:href="#m7562224711" x="191.683646" y="180.641893" style="fill: #3cb371; stroke: #3cb371"/>
     <use xlink:href="#m7562224711" x="180.539078" y="182.049901" style="fill: #3cb371; stroke: #3cb371"/>
     <use xlink:href="#m7562224711" x="271.247085" y="230.567248" style="fill: #3cb371; stroke: #3cb371"/>
     <use xlink:href="#m7562224711" x="179.881126" y="171.701709" style="fill: #3cb371; stroke: #3cb371"/>
     <use xlink:href="#m7562224711" x="72.976131" y="273.672573" style="fill: #3cb371; stroke: #3cb371"/>
     <use xlink:href="#m7562224711" x="200.716269" y="171.074097" style="fill: #3cb371; stroke: #3cb371"/>
     <use xlink:href="#m7562224711" x="247.463343" y="248.6257" style="fill: #3cb371; stroke: #3cb371"/>
     <use xlink:href="#m7562224711" x="63.886648" y="225.520577" style="fill: #3cb371; stroke: #3cb371"/>
     <use xlink:href="#m7562224711" x="212.031417" y="212.282499" style="fill: #3cb371; stroke: #3cb371"/>
     <use xlink:href="#m7562224711" x="189.969722" y="193.637196" style="fill: #3cb371; stroke: #3cb371"/>
     <use xlink:href="#m7562224711" x="186.436276" y="152.676876" style="fill: #3cb371; stroke: #3cb371"/>
     <use xlink:href="#m7562224711" x="149.192951" y="221.009902" style="fill: #3cb371; stroke: #3cb371"/>
     <use xlink:href="#m7562224711" x="155.82933" y="127.260828" style="fill: #3cb371; stroke: #3cb371"/>
     <use xlink:href="#m7562224711" x="215.288684" y="183.196221" style="fill: #3cb371; stroke: #3cb371"/>
     <use xlink:href="#m7562224711" x="135.359716" y="194.207386" style="fill: #3cb371; stroke: #3cb371"/>
     <use xlink:href="#m7562224711" x="142.913978" y="180.785385" style="fill: #3cb371; stroke: #3cb371"/>
     <use xlink:href="#m7562224711" x="211.820222" y="173.89414" style="fill: #3cb371; stroke: #3cb371"/>
     <use xlink:href="#m7562224711" x="159.866393" y="216.513969" style="fill: #3cb371; stroke: #3cb371"/>
     <use xlink:href="#m7562224711" x="246.358634" y="173.930338" style="fill: #3cb371; stroke: #3cb371"/>
     <use xlink:href="#m7562224711" x="266.828248" y="221.398137" style="fill: #3cb371; stroke: #3cb371"/>
     <use xlink:href="#m7562224711" x="225.726563" y="212.31045" style="fill: #3cb371; stroke: #3cb371"/>
     <use xlink:href="#m7562224711" x="188.531975" y="144.376011" style="fill: #3cb371; stroke: #3cb371"/>
     <use xlink:href="#m7562224711" x="222.639875" y="218.206352" style="fill: #3cb371; stroke: #3cb371"/>
     <use xlink:href="#m7562224711" x="98.953046" y="174.42555" style="fill: #3cb371; stroke: #3cb371"/>
     <use xlink:href="#m7562224711" x="282.091107" y="249.085568" style="fill: #3cb371; stroke: #3cb371"/>
     <use xlink:href="#m7562224711" x="212.340085" y="217.008472" style="fill: #3cb371; stroke: #3cb371"/>
     <use xlink:href="#m7562224711" x="190.798254" y="209.900138" style="fill: #3cb371; stroke: #3cb371"/>
     <use xlink:href="#m7562224711" x="280.750834" y="257.308401" style="fill: #3cb371; stroke: #3cb371"/>
     <use xlink:href="#m7562224711" x="149.144214" y="59.719478" style="fill: #3cb371; stroke: #3cb371"/>
     <use xlink:href="#m7562224711" x="170.759151" y="202.483792" style="fill: #3cb371; stroke: #3cb371"/>
     <use xlink:href="#m7562224711" x="221.055917" y="241.93037" style="fill: #3cb371; stroke: #3cb371"/>
     <use xlink:href="#m7562224711" x="189.693544" y="277.196747" style="fill: #3cb371; stroke: #3cb371"/>
     <use xlink:href="#m7562224711" x="167.713078" y="250.62352" style="fill: #3cb371; stroke: #3cb371"/>
     <use xlink:href="#m7562224711" x="231.323215" y="275.130665" style="fill: #3cb371; stroke: #3cb371"/>
     <use xlink:href="#m7562224711" x="384.885933" y="258.359376" style="fill: #3cb371; stroke: #3cb371"/>
     <use xlink:href="#m7562224711" x="352.72752" y="124.138895" style="fill: #3cb371; stroke: #3cb371"/>
     <use xlink:href="#m7562224711" x="369.720549" y="300.424574" style="fill: #3cb371; stroke: #3cb371"/>
     <use xlink:href="#m7562224711" x="363.977685" y="92.354214" style="fill: #3cb371; stroke: #3cb371"/>
     <use xlink:href="#m7562224711" x="379.159315" y="271.49376" style="fill: #3cb371; stroke: #3cb371"/>
     <use xlink:href="#m7562224711" x="384.049279" y="282.53075" style="fill: #3cb371; stroke: #3cb371"/>
     <use xlink:href="#m7562224711" x="229.365605" y="249.283191" style="fill: #3cb371; stroke: #3cb371"/>
     <use xlink:href="#m7562224711" x="282.814042" y="250.359864" style="fill: #3cb371; stroke: #3cb371"/>
     <use xlink:href="#m7562224711" x="262.969888" y="248.065718" style="fill: #3cb371; stroke: #3cb371"/>
    </g>
   </g>
   <g id="matplotlib.axis_1">
    <g id="xtick_1">
     <g id="line2d_1">
      <defs>
       <path id="md020e88254" d="M 0 0 
L 0 3.5 
" style="stroke: #000000; stroke-width: 0.8"/>
      </defs>
      <g>
       <use xlink:href="#md020e88254" x="49.525427" y="303.64" style="stroke: #000000; stroke-width: 0.8"/>
      </g>
     </g>
     <g id="text_1">
      <!-- −1050 -->
      <g transform="translate(32.610583 318.238437)scale(0.1 -0.1)">
       <defs>
        <path id="DejaVuSans-2212" d="M 678 2272 
L 4684 2272 
L 4684 1741 
L 678 1741 
L 678 2272 
z
" transform="scale(0.015625)"/>
        <path id="DejaVuSans-31" d="M 794 531 
L 1825 531 
L 1825 4091 
L 703 3866 
L 703 4441 
L 1819 4666 
L 2450 4666 
L 2450 531 
L 3481 531 
L 3481 0 
L 794 0 
L 794 531 
z
" transform="scale(0.015625)"/>
        <path id="DejaVuSans-30" d="M 2034 4250 
Q 1547 4250 1301 3770 
Q 1056 3291 1056 2328 
Q 1056 1369 1301 889 
Q 1547 409 2034 409 
Q 2525 409 2770 889 
Q 3016 1369 3016 2328 
Q 3016 3291 2770 3770 
Q 2525 4250 2034 4250 
z
M 2034 4750 
Q 2819 4750 3233 4129 
Q 3647 3509 3647 2328 
Q 3647 1150 3233 529 
Q 2819 -91 2034 -91 
Q 1250 -91 836 529 
Q 422 1150 422 2328 
Q 422 3509 836 4129 
Q 1250 4750 2034 4750 
z
" transform="scale(0.015625)"/>
        <path id="DejaVuSans-35" d="M 691 4666 
L 3169 4666 
L 3169 4134 
L 1269 4134 
L 1269 2991 
Q 1406 3038 1543 3061 
Q 1681 3084 1819 3084 
Q 2600 3084 3056 2656 
Q 3513 2228 3513 1497 
Q 3513 744 3044 326 
Q 2575 -91 1722 -91 
Q 1428 -91 1123 -41 
Q 819 9 494 109 
L 494 744 
Q 775 591 1075 516 
Q 1375 441 1709 441 
Q 2250 441 2565 725 
Q 2881 1009 2881 1497 
Q 2881 1984 2565 2268 
Q 2250 2553 1709 2553 
Q 1456 2553 1204 2497 
Q 953 2441 691 2322 
L 691 4666 
z
" transform="scale(0.015625)"/>
       </defs>
       <use xlink:href="#DejaVuSans-2212"/>
       <use xlink:href="#DejaVuSans-31" x="83.789062"/>
       <use xlink:href="#DejaVuSans-30" x="147.412109"/>
       <use xlink:href="#DejaVuSans-35" x="211.035156"/>
       <use xlink:href="#DejaVuSans-30" x="274.658203"/>
      </g>
     </g>
    </g>
    <g id="xtick_2">
     <g id="line2d_2">
      <g>
       <use xlink:href="#md020e88254" x="90.13974" y="303.64" style="stroke: #000000; stroke-width: 0.8"/>
      </g>
     </g>
     <g id="text_2">
      <!-- −1000 -->
      <g transform="translate(73.224896 318.238437)scale(0.1 -0.1)">
       <use xlink:href="#DejaVuSans-2212"/>
       <use xlink:href="#DejaVuSans-31" x="83.789062"/>
       <use xlink:href="#DejaVuSans-30" x="147.412109"/>
       <use xlink:href="#DejaVuSans-30" x="211.035156"/>
       <use xlink:href="#DejaVuSans-30" x="274.658203"/>
      </g>
     </g>
    </g>
    <g id="xtick_3">
     <g id="line2d_3">
      <g>
       <use xlink:href="#md020e88254" x="130.754053" y="303.64" style="stroke: #000000; stroke-width: 0.8"/>
      </g>
     </g>
     <g id="text_3">
      <!-- −950 -->
      <g transform="translate(117.020459 318.238437)scale(0.1 -0.1)">
       <defs>
        <path id="DejaVuSans-39" d="M 703 97 
L 703 672 
Q 941 559 1184 500 
Q 1428 441 1663 441 
Q 2288 441 2617 861 
Q 2947 1281 2994 2138 
Q 2813 1869 2534 1725 
Q 2256 1581 1919 1581 
Q 1219 1581 811 2004 
Q 403 2428 403 3163 
Q 403 3881 828 4315 
Q 1253 4750 1959 4750 
Q 2769 4750 3195 4129 
Q 3622 3509 3622 2328 
Q 3622 1225 3098 567 
Q 2575 -91 1691 -91 
Q 1453 -91 1209 -44 
Q 966 3 703 97 
z
M 1959 2075 
Q 2384 2075 2632 2365 
Q 2881 2656 2881 3163 
Q 2881 3666 2632 3958 
Q 2384 4250 1959 4250 
Q 1534 4250 1286 3958 
Q 1038 3666 1038 3163 
Q 1038 2656 1286 2365 
Q 1534 2075 1959 2075 
z
" transform="scale(0.015625)"/>
       </defs>
       <use xlink:href="#DejaVuSans-2212"/>
       <use xlink:href="#DejaVuSans-39" x="83.789062"/>
       <use xlink:href="#DejaVuSans-35" x="147.412109"/>
       <use xlink:href="#DejaVuSans-30" x="211.035156"/>
      </g>
     </g>
    </g>
    <g id="xtick_4">
     <g id="line2d_4">
      <g>
       <use xlink:href="#md020e88254" x="171.368366" y="303.64" style="stroke: #000000; stroke-width: 0.8"/>
      </g>
     </g>
     <g id="text_4">
      <!-- −900 -->
      <g transform="translate(157.634772 318.238437)scale(0.1 -0.1)">
       <use xlink:href="#DejaVuSans-2212"/>
       <use xlink:href="#DejaVuSans-39" x="83.789062"/>
       <use xlink:href="#DejaVuSans-30" x="147.412109"/>
       <use xlink:href="#DejaVuSans-30" x="211.035156"/>
      </g>
     </g>
    </g>
    <g id="xtick_5">
     <g id="line2d_5">
      <g>
       <use xlink:href="#md020e88254" x="211.982679" y="303.64" style="stroke: #000000; stroke-width: 0.8"/>
      </g>
     </g>
     <g id="text_5">
      <!-- −850 -->
      <g transform="translate(198.249086 318.238437)scale(0.1 -0.1)">
       <defs>
        <path id="DejaVuSans-38" d="M 2034 2216 
Q 1584 2216 1326 1975 
Q 1069 1734 1069 1313 
Q 1069 891 1326 650 
Q 1584 409 2034 409 
Q 2484 409 2743 651 
Q 3003 894 3003 1313 
Q 3003 1734 2745 1975 
Q 2488 2216 2034 2216 
z
M 1403 2484 
Q 997 2584 770 2862 
Q 544 3141 544 3541 
Q 544 4100 942 4425 
Q 1341 4750 2034 4750 
Q 2731 4750 3128 4425 
Q 3525 4100 3525 3541 
Q 3525 3141 3298 2862 
Q 3072 2584 2669 2484 
Q 3125 2378 3379 2068 
Q 3634 1759 3634 1313 
Q 3634 634 3220 271 
Q 2806 -91 2034 -91 
Q 1263 -91 848 271 
Q 434 634 434 1313 
Q 434 1759 690 2068 
Q 947 2378 1403 2484 
z
M 1172 3481 
Q 1172 3119 1398 2916 
Q 1625 2713 2034 2713 
Q 2441 2713 2670 2916 
Q 2900 3119 2900 3481 
Q 2900 3844 2670 4047 
Q 2441 4250 2034 4250 
Q 1625 4250 1398 4047 
Q 1172 3844 1172 3481 
z
" transform="scale(0.015625)"/>
       </defs>
       <use xlink:href="#DejaVuSans-2212"/>
       <use xlink:href="#DejaVuSans-38" x="83.789062"/>
       <use xlink:href="#DejaVuSans-35" x="147.412109"/>
       <use xlink:href="#DejaVuSans-30" x="211.035156"/>
      </g>
     </g>
    </g>
    <g id="xtick_6">
     <g id="line2d_6">
      <g>
       <use xlink:href="#md020e88254" x="252.596993" y="303.64" style="stroke: #000000; stroke-width: 0.8"/>
      </g>
     </g>
     <g id="text_6">
      <!-- −800 -->
      <g transform="translate(238.863399 318.238437)scale(0.1 -0.1)">
       <use xlink:href="#DejaVuSans-2212"/>
       <use xlink:href="#DejaVuSans-38" x="83.789062"/>
       <use xlink:href="#DejaVuSans-30" x="147.412109"/>
       <use xlink:href="#DejaVuSans-30" x="211.035156"/>
      </g>
     </g>
    </g>
    <g id="xtick_7">
     <g id="line2d_7">
      <g>
       <use xlink:href="#md020e88254" x="293.211306" y="303.64" style="stroke: #000000; stroke-width: 0.8"/>
      </g>
     </g>
     <g id="text_7">
      <!-- −750 -->
      <g transform="translate(279.477712 318.238437)scale(0.1 -0.1)">
       <defs>
        <path id="DejaVuSans-37" d="M 525 4666 
L 3525 4666 
L 3525 4397 
L 1831 0 
L 1172 0 
L 2766 4134 
L 525 4134 
L 525 4666 
z
" transform="scale(0.015625)"/>
       </defs>
       <use xlink:href="#DejaVuSans-2212"/>
       <use xlink:href="#DejaVuSans-37" x="83.789062"/>
       <use xlink:href="#DejaVuSans-35" x="147.412109"/>
       <use xlink:href="#DejaVuSans-30" x="211.035156"/>
      </g>
     </g>
    </g>
    <g id="xtick_8">
     <g id="line2d_8">
      <g>
       <use xlink:href="#md020e88254" x="333.825619" y="303.64" style="stroke: #000000; stroke-width: 0.8"/>
      </g>
     </g>
     <g id="text_8">
      <!-- −700 -->
      <g transform="translate(320.092025 318.238437)scale(0.1 -0.1)">
       <use xlink:href="#DejaVuSans-2212"/>
       <use xlink:href="#DejaVuSans-37" x="83.789062"/>
       <use xlink:href="#DejaVuSans-30" x="147.412109"/>
       <use xlink:href="#DejaVuSans-30" x="211.035156"/>
      </g>
     </g>
    </g>
    <g id="xtick_9">
     <g id="line2d_9">
      <g>
       <use xlink:href="#md020e88254" x="374.439932" y="303.64" style="stroke: #000000; stroke-width: 0.8"/>
      </g>
     </g>
     <g id="text_9">
      <!-- −650 -->
      <g transform="translate(360.706338 318.238437)scale(0.1 -0.1)">
       <defs>
        <path id="DejaVuSans-36" d="M 2113 2584 
Q 1688 2584 1439 2293 
Q 1191 2003 1191 1497 
Q 1191 994 1439 701 
Q 1688 409 2113 409 
Q 2538 409 2786 701 
Q 3034 994 3034 1497 
Q 3034 2003 2786 2293 
Q 2538 2584 2113 2584 
z
M 3366 4563 
L 3366 3988 
Q 3128 4100 2886 4159 
Q 2644 4219 2406 4219 
Q 1781 4219 1451 3797 
Q 1122 3375 1075 2522 
Q 1259 2794 1537 2939 
Q 1816 3084 2150 3084 
Q 2853 3084 3261 2657 
Q 3669 2231 3669 1497 
Q 3669 778 3244 343 
Q 2819 -91 2113 -91 
Q 1303 -91 875 529 
Q 447 1150 447 2328 
Q 447 3434 972 4092 
Q 1497 4750 2381 4750 
Q 2619 4750 2861 4703 
Q 3103 4656 3366 4563 
z
" transform="scale(0.015625)"/>
       </defs>
       <use xlink:href="#DejaVuSans-2212"/>
       <use xlink:href="#DejaVuSans-36" x="83.789062"/>
       <use xlink:href="#DejaVuSans-35" x="147.412109"/>
       <use xlink:href="#DejaVuSans-30" x="211.035156"/>
      </g>
     </g>
    </g>
    <g id="text_10">
     <!-- SasaDiff -->
     <g transform="translate(203.874219 331.916562)scale(0.1 -0.1)">
      <defs>
       <path id="DejaVuSans-53" d="M 3425 4513 
L 3425 3897 
Q 3066 4069 2747 4153 
Q 2428 4238 2131 4238 
Q 1616 4238 1336 4038 
Q 1056 3838 1056 3469 
Q 1056 3159 1242 3001 
Q 1428 2844 1947 2747 
L 2328 2669 
Q 3034 2534 3370 2195 
Q 3706 1856 3706 1288 
Q 3706 609 3251 259 
Q 2797 -91 1919 -91 
Q 1588 -91 1214 -16 
Q 841 59 441 206 
L 441 856 
Q 825 641 1194 531 
Q 1563 422 1919 422 
Q 2459 422 2753 634 
Q 3047 847 3047 1241 
Q 3047 1584 2836 1778 
Q 2625 1972 2144 2069 
L 1759 2144 
Q 1053 2284 737 2584 
Q 422 2884 422 3419 
Q 422 4038 858 4394 
Q 1294 4750 2059 4750 
Q 2388 4750 2728 4690 
Q 3069 4631 3425 4513 
z
" transform="scale(0.015625)"/>
       <path id="DejaVuSans-61" d="M 2194 1759 
Q 1497 1759 1228 1600 
Q 959 1441 959 1056 
Q 959 750 1161 570 
Q 1363 391 1709 391 
Q 2188 391 2477 730 
Q 2766 1069 2766 1631 
L 2766 1759 
L 2194 1759 
z
M 3341 1997 
L 3341 0 
L 2766 0 
L 2766 531 
Q 2569 213 2275 61 
Q 1981 -91 1556 -91 
Q 1019 -91 701 211 
Q 384 513 384 1019 
Q 384 1609 779 1909 
Q 1175 2209 1959 2209 
L 2766 2209 
L 2766 2266 
Q 2766 2663 2505 2880 
Q 2244 3097 1772 3097 
Q 1472 3097 1187 3025 
Q 903 2953 641 2809 
L 641 3341 
Q 956 3463 1253 3523 
Q 1550 3584 1831 3584 
Q 2591 3584 2966 3190 
Q 3341 2797 3341 1997 
z
" transform="scale(0.015625)"/>
       <path id="DejaVuSans-73" d="M 2834 3397 
L 2834 2853 
Q 2591 2978 2328 3040 
Q 2066 3103 1784 3103 
Q 1356 3103 1142 2972 
Q 928 2841 928 2578 
Q 928 2378 1081 2264 
Q 1234 2150 1697 2047 
L 1894 2003 
Q 2506 1872 2764 1633 
Q 3022 1394 3022 966 
Q 3022 478 2636 193 
Q 2250 -91 1575 -91 
Q 1294 -91 989 -36 
Q 684 19 347 128 
L 347 722 
Q 666 556 975 473 
Q 1284 391 1588 391 
Q 1994 391 2212 530 
Q 2431 669 2431 922 
Q 2431 1156 2273 1281 
Q 2116 1406 1581 1522 
L 1381 1569 
Q 847 1681 609 1914 
Q 372 2147 372 2553 
Q 372 3047 722 3315 
Q 1072 3584 1716 3584 
Q 2034 3584 2315 3537 
Q 2597 3491 2834 3397 
z
" transform="scale(0.015625)"/>
       <path id="DejaVuSans-44" d="M 1259 4147 
L 1259 519 
L 2022 519 
Q 2988 519 3436 956 
Q 3884 1394 3884 2338 
Q 3884 3275 3436 3711 
Q 2988 4147 2022 4147 
L 1259 4147 
z
M 628 4666 
L 1925 4666 
Q 3281 4666 3915 4102 
Q 4550 3538 4550 2338 
Q 4550 1131 3912 565 
Q 3275 0 1925 0 
L 628 0 
L 628 4666 
z
" transform="scale(0.015625)"/>
       <path id="DejaVuSans-69" d="M 603 3500 
L 1178 3500 
L 1178 0 
L 603 0 
L 603 3500 
z
M 603 4863 
L 1178 4863 
L 1178 4134 
L 603 4134 
L 603 4863 
z
" transform="scale(0.015625)"/>
       <path id="DejaVuSans-66" d="M 2375 4863 
L 2375 4384 
L 1825 4384 
Q 1516 4384 1395 4259 
Q 1275 4134 1275 3809 
L 1275 3500 
L 2222 3500 
L 2222 3053 
L 1275 3053 
L 1275 0 
L 697 0 
L 697 3053 
L 147 3053 
L 147 3500 
L 697 3500 
L 697 3744 
Q 697 4328 969 4595 
Q 1241 4863 1831 4863 
L 2375 4863 
z
" transform="scale(0.015625)"/>
      </defs>
      <use xlink:href="#DejaVuSans-53"/>
      <use xlink:href="#DejaVuSans-61" x="63.476562"/>
      <use xlink:href="#DejaVuSans-73" x="124.755859"/>
      <use xlink:href="#DejaVuSans-61" x="176.855469"/>
      <use xlink:href="#DejaVuSans-44" x="238.134766"/>
      <use xlink:href="#DejaVuSans-69" x="315.136719"/>
      <use xlink:href="#DejaVuSans-66" x="342.919922"/>
      <use xlink:href="#DejaVuSans-66" x="378.125"/>
     </g>
    </g>
   </g>
   <g id="matplotlib.axis_2">
    <g id="ytick_1">
     <g id="line2d_10">
      <defs>
       <path id="mba23673806" d="M 0 0 
L -3.5 0 
" style="stroke: #000000; stroke-width: 0.8"/>
      </defs>
      <g>
       <use xlink:href="#mba23673806" x="47.82125" y="303.64" style="stroke: #000000; stroke-width: 0.8"/>
      </g>
     </g>
     <g id="text_11">
      <!-- 0.0 -->
      <g transform="translate(24.918125 307.439219)scale(0.1 -0.1)">
       <defs>
        <path id="DejaVuSans-2e" d="M 684 794 
L 1344 794 
L 1344 0 
L 684 0 
L 684 794 
z
" transform="scale(0.015625)"/>
       </defs>
       <use xlink:href="#DejaVuSans-30"/>
       <use xlink:href="#DejaVuSans-2e" x="63.623047"/>
       <use xlink:href="#DejaVuSans-30" x="95.410156"/>
      </g>
     </g>
    </g>
    <g id="ytick_2">
     <g id="line2d_11">
      <g>
       <use xlink:href="#mba23673806" x="47.82125" y="247.991526" style="stroke: #000000; stroke-width: 0.8"/>
      </g>
     </g>
     <g id="text_12">
      <!-- 0.5 -->
      <g transform="translate(24.918125 251.790745)scale(0.1 -0.1)">
       <use xlink:href="#DejaVuSans-30"/>
       <use xlink:href="#DejaVuSans-2e" x="63.623047"/>
       <use xlink:href="#DejaVuSans-35" x="95.410156"/>
      </g>
     </g>
    </g>
    <g id="ytick_3">
     <g id="line2d_12">
      <g>
       <use xlink:href="#mba23673806" x="47.82125" y="192.343053" style="stroke: #000000; stroke-width: 0.8"/>
      </g>
     </g>
     <g id="text_13">
      <!-- 1.0 -->
      <g transform="translate(24.918125 196.142271)scale(0.1 -0.1)">
       <use xlink:href="#DejaVuSans-31"/>
       <use xlink:href="#DejaVuSans-2e" x="63.623047"/>
       <use xlink:href="#DejaVuSans-30" x="95.410156"/>
      </g>
     </g>
    </g>
    <g id="ytick_4">
     <g id="line2d_13">
      <g>
       <use xlink:href="#mba23673806" x="47.82125" y="136.694579" style="stroke: #000000; stroke-width: 0.8"/>
      </g>
     </g>
     <g id="text_14">
      <!-- 1.5 -->
      <g transform="translate(24.918125 140.493798)scale(0.1 -0.1)">
       <use xlink:href="#DejaVuSans-31"/>
       <use xlink:href="#DejaVuSans-2e" x="63.623047"/>
       <use xlink:href="#DejaVuSans-35" x="95.410156"/>
      </g>
     </g>
    </g>
    <g id="ytick_5">
     <g id="line2d_14">
      <g>
       <use xlink:href="#mba23673806" x="47.82125" y="81.046105" style="stroke: #000000; stroke-width: 0.8"/>
      </g>
     </g>
     <g id="text_15">
      <!-- 2.0 -->
      <g transform="translate(24.918125 84.845324)scale(0.1 -0.1)">
       <defs>
        <path id="DejaVuSans-32" d="M 1228 531 
L 3431 531 
L 3431 0 
L 469 0 
L 469 531 
Q 828 903 1448 1529 
Q 2069 2156 2228 2338 
Q 2531 2678 2651 2914 
Q 2772 3150 2772 3378 
Q 2772 3750 2511 3984 
Q 2250 4219 1831 4219 
Q 1534 4219 1204 4116 
Q 875 4013 500 3803 
L 500 4441 
Q 881 4594 1212 4672 
Q 1544 4750 1819 4750 
Q 2544 4750 2975 4387 
Q 3406 4025 3406 3419 
Q 3406 3131 3298 2873 
Q 3191 2616 2906 2266 
Q 2828 2175 2409 1742 
Q 1991 1309 1228 531 
z
" transform="scale(0.015625)"/>
       </defs>
       <use xlink:href="#DejaVuSans-32"/>
       <use xlink:href="#DejaVuSans-2e" x="63.623047"/>
       <use xlink:href="#DejaVuSans-30" x="95.410156"/>
      </g>
     </g>
    </g>
    <g id="text_16">
     <!-- PercentGpA_transformed -->
     <g transform="translate(18.560313 237.696138)rotate(-90)scale(0.1 -0.1)">
      <defs>
       <path id="DejaVuSans-50" d="M 1259 4147 
L 1259 2394 
L 2053 2394 
Q 2494 2394 2734 2622 
Q 2975 2850 2975 3272 
Q 2975 3691 2734 3919 
Q 2494 4147 2053 4147 
L 1259 4147 
z
M 628 4666 
L 2053 4666 
Q 2838 4666 3239 4311 
Q 3641 3956 3641 3272 
Q 3641 2581 3239 2228 
Q 2838 1875 2053 1875 
L 1259 1875 
L 1259 0 
L 628 0 
L 628 4666 
z
" transform="scale(0.015625)"/>
       <path id="DejaVuSans-65" d="M 3597 1894 
L 3597 1613 
L 953 1613 
Q 991 1019 1311 708 
Q 1631 397 2203 397 
Q 2534 397 2845 478 
Q 3156 559 3463 722 
L 3463 178 
Q 3153 47 2828 -22 
Q 2503 -91 2169 -91 
Q 1331 -91 842 396 
Q 353 884 353 1716 
Q 353 2575 817 3079 
Q 1281 3584 2069 3584 
Q 2775 3584 3186 3129 
Q 3597 2675 3597 1894 
z
M 3022 2063 
Q 3016 2534 2758 2815 
Q 2500 3097 2075 3097 
Q 1594 3097 1305 2825 
Q 1016 2553 972 2059 
L 3022 2063 
z
" transform="scale(0.015625)"/>
       <path id="DejaVuSans-72" d="M 2631 2963 
Q 2534 3019 2420 3045 
Q 2306 3072 2169 3072 
Q 1681 3072 1420 2755 
Q 1159 2438 1159 1844 
L 1159 0 
L 581 0 
L 581 3500 
L 1159 3500 
L 1159 2956 
Q 1341 3275 1631 3429 
Q 1922 3584 2338 3584 
Q 2397 3584 2469 3576 
Q 2541 3569 2628 3553 
L 2631 2963 
z
" transform="scale(0.015625)"/>
       <path id="DejaVuSans-63" d="M 3122 3366 
L 3122 2828 
Q 2878 2963 2633 3030 
Q 2388 3097 2138 3097 
Q 1578 3097 1268 2742 
Q 959 2388 959 1747 
Q 959 1106 1268 751 
Q 1578 397 2138 397 
Q 2388 397 2633 464 
Q 2878 531 3122 666 
L 3122 134 
Q 2881 22 2623 -34 
Q 2366 -91 2075 -91 
Q 1284 -91 818 406 
Q 353 903 353 1747 
Q 353 2603 823 3093 
Q 1294 3584 2113 3584 
Q 2378 3584 2631 3529 
Q 2884 3475 3122 3366 
z
" transform="scale(0.015625)"/>
       <path id="DejaVuSans-6e" d="M 3513 2113 
L 3513 0 
L 2938 0 
L 2938 2094 
Q 2938 2591 2744 2837 
Q 2550 3084 2163 3084 
Q 1697 3084 1428 2787 
Q 1159 2491 1159 1978 
L 1159 0 
L 581 0 
L 581 3500 
L 1159 3500 
L 1159 2956 
Q 1366 3272 1645 3428 
Q 1925 3584 2291 3584 
Q 2894 3584 3203 3211 
Q 3513 2838 3513 2113 
z
" transform="scale(0.015625)"/>
       <path id="DejaVuSans-74" d="M 1172 4494 
L 1172 3500 
L 2356 3500 
L 2356 3053 
L 1172 3053 
L 1172 1153 
Q 1172 725 1289 603 
Q 1406 481 1766 481 
L 2356 481 
L 2356 0 
L 1766 0 
Q 1100 0 847 248 
Q 594 497 594 1153 
L 594 3053 
L 172 3053 
L 172 3500 
L 594 3500 
L 594 4494 
L 1172 4494 
z
" transform="scale(0.015625)"/>
       <path id="DejaVuSans-47" d="M 3809 666 
L 3809 1919 
L 2778 1919 
L 2778 2438 
L 4434 2438 
L 4434 434 
Q 4069 175 3628 42 
Q 3188 -91 2688 -91 
Q 1594 -91 976 548 
Q 359 1188 359 2328 
Q 359 3472 976 4111 
Q 1594 4750 2688 4750 
Q 3144 4750 3555 4637 
Q 3966 4525 4313 4306 
L 4313 3634 
Q 3963 3931 3569 4081 
Q 3175 4231 2741 4231 
Q 1884 4231 1454 3753 
Q 1025 3275 1025 2328 
Q 1025 1384 1454 906 
Q 1884 428 2741 428 
Q 3075 428 3337 486 
Q 3600 544 3809 666 
z
" transform="scale(0.015625)"/>
       <path id="DejaVuSans-70" d="M 1159 525 
L 1159 -1331 
L 581 -1331 
L 581 3500 
L 1159 3500 
L 1159 2969 
Q 1341 3281 1617 3432 
Q 1894 3584 2278 3584 
Q 2916 3584 3314 3078 
Q 3713 2572 3713 1747 
Q 3713 922 3314 415 
Q 2916 -91 2278 -91 
Q 1894 -91 1617 61 
Q 1341 213 1159 525 
z
M 3116 1747 
Q 3116 2381 2855 2742 
Q 2594 3103 2138 3103 
Q 1681 3103 1420 2742 
Q 1159 2381 1159 1747 
Q 1159 1113 1420 752 
Q 1681 391 2138 391 
Q 2594 391 2855 752 
Q 3116 1113 3116 1747 
z
" transform="scale(0.015625)"/>
       <path id="DejaVuSans-41" d="M 2188 4044 
L 1331 1722 
L 3047 1722 
L 2188 4044 
z
M 1831 4666 
L 2547 4666 
L 4325 0 
L 3669 0 
L 3244 1197 
L 1141 1197 
L 716 0 
L 50 0 
L 1831 4666 
z
" transform="scale(0.015625)"/>
       <path id="DejaVuSans-5f" d="M 3263 -1063 
L 3263 -1509 
L -63 -1509 
L -63 -1063 
L 3263 -1063 
z
" transform="scale(0.015625)"/>
       <path id="DejaVuSans-6f" d="M 1959 3097 
Q 1497 3097 1228 2736 
Q 959 2375 959 1747 
Q 959 1119 1226 758 
Q 1494 397 1959 397 
Q 2419 397 2687 759 
Q 2956 1122 2956 1747 
Q 2956 2369 2687 2733 
Q 2419 3097 1959 3097 
z
M 1959 3584 
Q 2709 3584 3137 3096 
Q 3566 2609 3566 1747 
Q 3566 888 3137 398 
Q 2709 -91 1959 -91 
Q 1206 -91 779 398 
Q 353 888 353 1747 
Q 353 2609 779 3096 
Q 1206 3584 1959 3584 
z
" transform="scale(0.015625)"/>
       <path id="DejaVuSans-6d" d="M 3328 2828 
Q 3544 3216 3844 3400 
Q 4144 3584 4550 3584 
Q 5097 3584 5394 3201 
Q 5691 2819 5691 2113 
L 5691 0 
L 5113 0 
L 5113 2094 
Q 5113 2597 4934 2840 
Q 4756 3084 4391 3084 
Q 3944 3084 3684 2787 
Q 3425 2491 3425 1978 
L 3425 0 
L 2847 0 
L 2847 2094 
Q 2847 2600 2669 2842 
Q 2491 3084 2119 3084 
Q 1678 3084 1418 2786 
Q 1159 2488 1159 1978 
L 1159 0 
L 581 0 
L 581 3500 
L 1159 3500 
L 1159 2956 
Q 1356 3278 1631 3431 
Q 1906 3584 2284 3584 
Q 2666 3584 2933 3390 
Q 3200 3197 3328 2828 
z
" transform="scale(0.015625)"/>
       <path id="DejaVuSans-64" d="M 2906 2969 
L 2906 4863 
L 3481 4863 
L 3481 0 
L 2906 0 
L 2906 525 
Q 2725 213 2448 61 
Q 2172 -91 1784 -91 
Q 1150 -91 751 415 
Q 353 922 353 1747 
Q 353 2572 751 3078 
Q 1150 3584 1784 3584 
Q 2172 3584 2448 3432 
Q 2725 3281 2906 2969 
z
M 947 1747 
Q 947 1113 1208 752 
Q 1469 391 1925 391 
Q 2381 391 2643 752 
Q 2906 1113 2906 1747 
Q 2906 2381 2643 2742 
Q 2381 3103 1925 3103 
Q 1469 3103 1208 2742 
Q 947 2381 947 1747 
z
" transform="scale(0.015625)"/>
      </defs>
      <use xlink:href="#DejaVuSans-50"/>
      <use xlink:href="#DejaVuSans-65" x="56.677734"/>
      <use xlink:href="#DejaVuSans-72" x="118.201172"/>
      <use xlink:href="#DejaVuSans-63" x="157.064453"/>
      <use xlink:href="#DejaVuSans-65" x="212.044922"/>
      <use xlink:href="#DejaVuSans-6e" x="273.568359"/>
      <use xlink:href="#DejaVuSans-74" x="336.947266"/>
      <use xlink:href="#DejaVuSans-47" x="376.15625"/>
      <use xlink:href="#DejaVuSans-70" x="453.646484"/>
      <use xlink:href="#DejaVuSans-41" x="517.123047"/>
      <use xlink:href="#DejaVuSans-5f" x="585.53125"/>
      <use xlink:href="#DejaVuSans-74" x="635.53125"/>
      <use xlink:href="#DejaVuSans-72" x="674.740234"/>
      <use xlink:href="#DejaVuSans-61" x="715.853516"/>
      <use xlink:href="#DejaVuSans-6e" x="777.132812"/>
      <use xlink:href="#DejaVuSans-73" x="840.511719"/>
      <use xlink:href="#DejaVuSans-66" x="892.611328"/>
      <use xlink:href="#DejaVuSans-6f" x="927.816406"/>
      <use xlink:href="#DejaVuSans-72" x="988.998047"/>
      <use xlink:href="#DejaVuSans-6d" x="1028.361328"/>
      <use xlink:href="#DejaVuSans-65" x="1125.773438"/>
      <use xlink:href="#DejaVuSans-64" x="1187.296875"/>
     </g>
    </g>
   </g>
   <g id="LineCollection_1">
    <path d="M 292.577722 170.188898 
L 292.577722 170.093651 
" clip-path="url(#pbaeb2c086b)" style="fill: none; stroke: #d3d3d3; stroke-width: 3"/>
    <path d="M 376.275699 179.603625 
L 376.275699 179.462192 
" clip-path="url(#pbaeb2c086b)" style="fill: none; stroke: #d3d3d3; stroke-width: 3"/>
    <path d="M 385.194602 206.774538 
L 385.194602 206.622306 
" clip-path="url(#pbaeb2c086b)" style="fill: none; stroke: #d3d3d3; stroke-width: 3"/>
    <path d="M 372.466077 204.703835 
L 372.466077 204.613494 
" clip-path="url(#pbaeb2c086b)" style="fill: none; stroke: #d3d3d3; stroke-width: 3"/>
    <path d="M 90.781446 158.478214 
L 90.781446 158.134794 
" clip-path="url(#pbaeb2c086b)" style="fill: none; stroke: #d3d3d3; stroke-width: 3"/>
    <path d="M 191.683646 180.707872 
L 191.683646 180.575914 
" clip-path="url(#pbaeb2c086b)" style="fill: none; stroke: #d3d3d3; stroke-width: 3"/>
    <path d="M 180.539078 182.472334 
L 180.539078 181.627468 
" clip-path="url(#pbaeb2c086b)" style="fill: none; stroke: #d3d3d3; stroke-width: 3"/>
    <path d="M 271.247085 230.685164 
L 271.247085 230.449333 
" clip-path="url(#pbaeb2c086b)" style="fill: none; stroke: #d3d3d3; stroke-width: 3"/>
    <path d="M 179.881126 171.774929 
L 179.881126 171.62849 
" clip-path="url(#pbaeb2c086b)" style="fill: none; stroke: #d3d3d3; stroke-width: 3"/>
    <path d="M 72.976131 273.866917 
L 72.976131 273.478229 
" clip-path="url(#pbaeb2c086b)" style="fill: none; stroke: #d3d3d3; stroke-width: 3"/>
    <path d="M 200.716269 171.090067 
L 200.716269 171.058127 
" clip-path="url(#pbaeb2c086b)" style="fill: none; stroke: #d3d3d3; stroke-width: 3"/>
    <path d="M 247.463343 248.7084 
L 247.463343 248.542999 
" clip-path="url(#pbaeb2c086b)" style="fill: none; stroke: #d3d3d3; stroke-width: 3"/>
    <path d="M 63.886648 225.702056 
L 63.886648 225.339098 
" clip-path="url(#pbaeb2c086b)" style="fill: none; stroke: #d3d3d3; stroke-width: 3"/>
    <path d="M 212.031417 212.389389 
L 212.031417 212.175608 
" clip-path="url(#pbaeb2c086b)" style="fill: none; stroke: #d3d3d3; stroke-width: 3"/>
    <path d="M 189.969722 193.656616 
L 189.969722 193.617777 
" clip-path="url(#pbaeb2c086b)" style="fill: none; stroke: #d3d3d3; stroke-width: 3"/>
    <path d="M 186.436276 153.007054 
L 186.436276 152.346699 
" clip-path="url(#pbaeb2c086b)" style="fill: none; stroke: #d3d3d3; stroke-width: 3"/>
    <path d="M 149.192951 221.176181 
L 149.192951 220.843623 
" clip-path="url(#pbaeb2c086b)" style="fill: none; stroke: #d3d3d3; stroke-width: 3"/>
    <path d="M 155.82933 127.954409 
L 155.82933 126.567247 
" clip-path="url(#pbaeb2c086b)" style="fill: none; stroke: #d3d3d3; stroke-width: 3"/>
    <path d="M 215.288684 183.951265 
L 215.288684 182.441178 
" clip-path="url(#pbaeb2c086b)" style="fill: none; stroke: #d3d3d3; stroke-width: 3"/>
    <path d="M 135.359716 194.466392 
L 135.359716 193.94838 
" clip-path="url(#pbaeb2c086b)" style="fill: none; stroke: #d3d3d3; stroke-width: 3"/>
    <path d="M 142.913978 180.968958 
L 142.913978 180.601813 
" clip-path="url(#pbaeb2c086b)" style="fill: none; stroke: #d3d3d3; stroke-width: 3"/>
    <path d="M 211.820222 173.969987 
L 211.820222 173.818292 
" clip-path="url(#pbaeb2c086b)" style="fill: none; stroke: #d3d3d3; stroke-width: 3"/>
    <path d="M 159.866393 216.9345 
L 159.866393 216.093438 
" clip-path="url(#pbaeb2c086b)" style="fill: none; stroke: #d3d3d3; stroke-width: 3"/>
    <path d="M 246.358634 174.137204 
L 246.358634 173.723473 
" clip-path="url(#pbaeb2c086b)" style="fill: none; stroke: #d3d3d3; stroke-width: 3"/>
    <path d="M 266.828248 221.451618 
L 266.828248 221.344656 
" clip-path="url(#pbaeb2c086b)" style="fill: none; stroke: #d3d3d3; stroke-width: 3"/>
    <path d="M 225.726563 212.619747 
L 225.726563 212.001154 
" clip-path="url(#pbaeb2c086b)" style="fill: none; stroke: #d3d3d3; stroke-width: 3"/>
    <path d="M 188.531975 144.866014 
L 188.531975 143.886008 
" clip-path="url(#pbaeb2c086b)" style="fill: none; stroke: #d3d3d3; stroke-width: 3"/>
    <path d="M 222.639875 218.289717 
L 222.639875 218.122988 
" clip-path="url(#pbaeb2c086b)" style="fill: none; stroke: #d3d3d3; stroke-width: 3"/>
    <path d="M 98.953046 174.578778 
L 98.953046 174.272322 
" clip-path="url(#pbaeb2c086b)" style="fill: none; stroke: #d3d3d3; stroke-width: 3"/>
    <path d="M 282.091107 249.114723 
L 282.091107 249.056413 
" clip-path="url(#pbaeb2c086b)" style="fill: none; stroke: #d3d3d3; stroke-width: 3"/>
    <path d="M 212.340085 217.120147 
L 212.340085 216.896798 
" clip-path="url(#pbaeb2c086b)" style="fill: none; stroke: #d3d3d3; stroke-width: 3"/>
    <path d="M 190.798254 210.263014 
L 190.798254 209.537261 
" clip-path="url(#pbaeb2c086b)" style="fill: none; stroke: #d3d3d3; stroke-width: 3"/>
    <path d="M 280.750834 257.423597 
L 280.750834 257.193205 
" clip-path="url(#pbaeb2c086b)" style="fill: none; stroke: #d3d3d3; stroke-width: 3"/>
    <path d="M 149.144214 60.66171 
L 149.144214 58.777245 
" clip-path="url(#pbaeb2c086b)" style="fill: none; stroke: #d3d3d3; stroke-width: 3"/>
    <path d="M 170.759151 202.690384 
L 170.759151 202.2772 
" clip-path="url(#pbaeb2c086b)" style="fill: none; stroke: #d3d3d3; stroke-width: 3"/>
    <path d="M 221.055917 241.987197 
L 221.055917 241.873542 
" clip-path="url(#pbaeb2c086b)" style="fill: none; stroke: #d3d3d3; stroke-width: 3"/>
    <path d="M 189.693544 277.283027 
L 189.693544 277.110467 
" clip-path="url(#pbaeb2c086b)" style="fill: none; stroke: #d3d3d3; stroke-width: 3"/>
    <path d="M 167.713078 251.011905 
L 167.713078 250.235135 
" clip-path="url(#pbaeb2c086b)" style="fill: none; stroke: #d3d3d3; stroke-width: 3"/>
    <path d="M 231.323215 275.279172 
L 231.323215 274.982157 
" clip-path="url(#pbaeb2c086b)" style="fill: none; stroke: #d3d3d3; stroke-width: 3"/>
    <path d="M 384.885933 258.542574 
L 384.885933 258.176177 
" clip-path="url(#pbaeb2c086b)" style="fill: none; stroke: #d3d3d3; stroke-width: 3"/>
    <path d="M 352.72752 124.243079 
L 352.72752 124.034712 
" clip-path="url(#pbaeb2c086b)" style="fill: none; stroke: #d3d3d3; stroke-width: 3"/>
    <path d="M 369.720549 300.807861 
L 369.720549 300.041286 
" clip-path="url(#pbaeb2c086b)" style="fill: none; stroke: #d3d3d3; stroke-width: 3"/>
    <path d="M 363.977685 93.346305 
L 363.977685 91.362123 
" clip-path="url(#pbaeb2c086b)" style="fill: none; stroke: #d3d3d3; stroke-width: 3"/>
    <path d="M 379.159315 271.600531 
L 379.159315 271.386988 
" clip-path="url(#pbaeb2c086b)" style="fill: none; stroke: #d3d3d3; stroke-width: 3"/>
    <path d="M 384.049279 282.623442 
L 384.049279 282.438057 
" clip-path="url(#pbaeb2c086b)" style="fill: none; stroke: #d3d3d3; stroke-width: 3"/>
    <path d="M 229.365605 249.390899 
L 229.365605 249.175482 
" clip-path="url(#pbaeb2c086b)" style="fill: none; stroke: #d3d3d3; stroke-width: 3"/>
    <path d="M 282.814042 250.486359 
L 282.814042 250.233369 
" clip-path="url(#pbaeb2c086b)" style="fill: none; stroke: #d3d3d3; stroke-width: 3"/>
    <path d="M 262.969888 248.176316 
L 262.969888 247.95512 
" clip-path="url(#pbaeb2c086b)" style="fill: none; stroke: #d3d3d3; stroke-width: 3"/>
   </g>
   <g id="line2d_15">
    <path d="M 292.577722 214.130169 
L 376.275699 224.089064 
L 385.194602 225.15029 
L 372.466077 223.635772 
L 90.781446 190.119219 
L 191.683646 202.125177 
L 180.539078 200.799129 
L 271.247085 211.59212 
L 179.881126 200.720842 
L 72.976131 188.000634 
L 200.716269 203.199934 
L 247.463343 208.762186 
L 63.886648 186.919112 
L 212.031417 204.546279 
L 189.969722 201.921244 
L 186.436276 201.500813 
L 149.192951 197.069376 
L 155.82933 197.859013 
L 215.288684 204.933849 
L 135.359716 195.423413 
L 142.913978 196.322265 
L 211.820222 204.52115 
L 159.866393 198.339367 
L 246.358634 208.63074 
L 266.828248 211.06634 
L 225.726563 206.175811 
L 188.531975 201.750172 
L 222.639875 205.808538 
L 98.953046 191.091526 
L 282.091107 212.882408 
L 212.340085 204.583006 
L 190.798254 202.019828 
L 280.750834 212.722934 
L 149.144214 197.063577 
L 170.759151 199.635454 
L 221.055917 205.620069 
L 189.693544 201.888383 
L 167.713078 199.273013 
L 231.323215 206.841735 
L 384.885933 225.113562 
L 352.72752 221.287158 
L 369.720549 223.309092 
L 363.977685 222.625771 
L 379.159315 224.432174 
L 384.049279 225.014012 
L 229.365605 206.608806 
L 282.814042 212.968427 
L 262.969888 210.607249 
" clip-path="url(#pbaeb2c086b)" style="fill: none; stroke: #1f77b4; stroke-width: 1.5; stroke-linecap: square"/>
   </g>
   <g id="line2d_16">
    <g clip-path="url(#pbaeb2c086b)">
     <use xlink:href="#m7562224711" x="292.577722" y="170.141275" style="fill: #3cb371; stroke: #3cb371"/>
     <use xlink:href="#m7562224711" x="376.275699" y="179.532908" style="fill: #3cb371; stroke: #3cb371"/>
     <use xlink:href="#m7562224711" x="385.194602" y="206.698422" style="fill: #3cb371; stroke: #3cb371"/>
     <use xlink:href="#m7562224711" x="372.466077" y="204.658665" style="fill: #3cb371; stroke: #3cb371"/>
     <use xlink:href="#m7562224711" x="90.781446" y="158.306504" style="fill: #3cb371; stroke: #3cb371"/>
     <use xlink:href="#m7562224711" x="191.683646" y="180.641893" style="fill: #3cb371; stroke: #3cb371"/>
     <use xlink:href="#m7562224711" x="180.539078" y="182.049901" style="fill: #3cb371; stroke: #3cb371"/>
     <use xlink:href="#m7562224711" x="271.247085" y="230.567248" style="fill: #3cb371; stroke: #3cb371"/>
     <use xlink:href="#m7562224711" x="179.881126" y="171.701709" style="fill: #3cb371; stroke: #3cb371"/>
     <use xlink:href="#m7562224711" x="72.976131" y="273.672573" style="fill: #3cb371; stroke: #3cb371"/>
     <use xlink:href="#m7562224711" x="200.716269" y="171.074097" style="fill: #3cb371; stroke: #3cb371"/>
     <use xlink:href="#m7562224711" x="247.463343" y="248.6257" style="fill: #3cb371; stroke: #3cb371"/>
     <use xlink:href="#m7562224711" x="63.886648" y="225.520577" style="fill: #3cb371; stroke: #3cb371"/>
     <use xlink:href="#m7562224711" x="212.031417" y="212.282499" style="fill: #3cb371; stroke: #3cb371"/>
     <use xlink:href="#m7562224711" x="189.969722" y="193.637196" style="fill: #3cb371; stroke: #3cb371"/>
     <use xlink:href="#m7562224711" x="186.436276" y="152.676876" style="fill: #3cb371; stroke: #3cb371"/>
     <use xlink:href="#m7562224711" x="149.192951" y="221.009902" style="fill: #3cb371; stroke: #3cb371"/>
     <use xlink:href="#m7562224711" x="155.82933" y="127.260828" style="fill: #3cb371; stroke: #3cb371"/>
     <use xlink:href="#m7562224711" x="215.288684" y="183.196221" style="fill: #3cb371; stroke: #3cb371"/>
     <use xlink:href="#m7562224711" x="135.359716" y="194.207386" style="fill: #3cb371; stroke: #3cb371"/>
     <use xlink:href="#m7562224711" x="142.913978" y="180.785385" style="fill: #3cb371; stroke: #3cb371"/>
     <use xlink:href="#m7562224711" x="211.820222" y="173.89414" style="fill: #3cb371; stroke: #3cb371"/>
     <use xlink:href="#m7562224711" x="159.866393" y="216.513969" style="fill: #3cb371; stroke: #3cb371"/>
     <use xlink:href="#m7562224711" x="246.358634" y="173.930338" style="fill: #3cb371; stroke: #3cb371"/>
     <use xlink:href="#m7562224711" x="266.828248" y="221.398137" style="fill: #3cb371; stroke: #3cb371"/>
     <use xlink:href="#m7562224711" x="225.726563" y="212.31045" style="fill: #3cb371; stroke: #3cb371"/>
     <use xlink:href="#m7562224711" x="188.531975" y="144.376011" style="fill: #3cb371; stroke: #3cb371"/>
     <use xlink:href="#m7562224711" x="222.639875" y="218.206352" style="fill: #3cb371; stroke: #3cb371"/>
     <use xlink:href="#m7562224711" x="98.953046" y="174.42555" style="fill: #3cb371; stroke: #3cb371"/>
     <use xlink:href="#m7562224711" x="282.091107" y="249.085568" style="fill: #3cb371; stroke: #3cb371"/>
     <use xlink:href="#m7562224711" x="212.340085" y="217.008472" style="fill: #3cb371; stroke: #3cb371"/>
     <use xlink:href="#m7562224711" x="190.798254" y="209.900138" style="fill: #3cb371; stroke: #3cb371"/>
     <use xlink:href="#m7562224711" x="280.750834" y="257.308401" style="fill: #3cb371; stroke: #3cb371"/>
     <use xlink:href="#m7562224711" x="149.144214" y="59.719478" style="fill: #3cb371; stroke: #3cb371"/>
     <use xlink:href="#m7562224711" x="170.759151" y="202.483792" style="fill: #3cb371; stroke: #3cb371"/>
     <use xlink:href="#m7562224711" x="221.055917" y="241.93037" style="fill: #3cb371; stroke: #3cb371"/>
     <use xlink:href="#m7562224711" x="189.693544" y="277.196747" style="fill: #3cb371; stroke: #3cb371"/>
     <use xlink:href="#m7562224711" x="167.713078" y="250.62352" style="fill: #3cb371; stroke: #3cb371"/>
     <use xlink:href="#m7562224711" x="231.323215" y="275.130665" style="fill: #3cb371; stroke: #3cb371"/>
     <use xlink:href="#m7562224711" x="384.885933" y="258.359376" style="fill: #3cb371; stroke: #3cb371"/>
     <use xlink:href="#m7562224711" x="352.72752" y="124.138895" style="fill: #3cb371; stroke: #3cb371"/>
     <use xlink:href="#m7562224711" x="369.720549" y="300.424574" style="fill: #3cb371; stroke: #3cb371"/>
     <use xlink:href="#m7562224711" x="363.977685" y="92.354214" style="fill: #3cb371; stroke: #3cb371"/>
     <use xlink:href="#m7562224711" x="379.159315" y="271.49376" style="fill: #3cb371; stroke: #3cb371"/>
     <use xlink:href="#m7562224711" x="384.049279" y="282.53075" style="fill: #3cb371; stroke: #3cb371"/>
     <use xlink:href="#m7562224711" x="229.365605" y="249.283191" style="fill: #3cb371; stroke: #3cb371"/>
     <use xlink:href="#m7562224711" x="282.814042" y="250.359864" style="fill: #3cb371; stroke: #3cb371"/>
     <use xlink:href="#m7562224711" x="262.969888" y="248.065718" style="fill: #3cb371; stroke: #3cb371"/>
    </g>
   </g>
   <g id="patch_3">
    <path d="M 47.82125 303.64 
L 47.82125 46.675714 
" style="fill: none; stroke: #000000; stroke-width: 0.8; stroke-linejoin: miter; stroke-linecap: square"/>
   </g>
   <g id="patch_4">
    <path d="M 401.26 303.64 
L 401.26 46.675714 
" style="fill: none; stroke: #000000; stroke-width: 0.8; stroke-linejoin: miter; stroke-linecap: square"/>
   </g>
   <g id="patch_5">
    <path d="M 47.82125 303.64 
L 401.26 303.64 
" style="fill: none; stroke: #000000; stroke-width: 0.8; stroke-linejoin: miter; stroke-linecap: square"/>
   </g>
   <g id="patch_6">
    <path d="M 47.82125 46.675714 
L 401.26 46.675714 
" style="fill: none; stroke: #000000; stroke-width: 0.8; stroke-linejoin: miter; stroke-linecap: square"/>
   </g>
   <g id="text_17">
    <!-- y = -0.00x + 0.15 -->
    <g transform="translate(38.440906 18.599375)scale(0.1 -0.1)">
     <defs>
      <path id="DejaVuSans-79" d="M 2059 -325 
Q 1816 -950 1584 -1140 
Q 1353 -1331 966 -1331 
L 506 -1331 
L 506 -850 
L 844 -850 
Q 1081 -850 1212 -737 
Q 1344 -625 1503 -206 
L 1606 56 
L 191 3500 
L 800 3500 
L 1894 763 
L 2988 3500 
L 3597 3500 
L 2059 -325 
z
" transform="scale(0.015625)"/>
      <path id="DejaVuSans-20" transform="scale(0.015625)"/>
      <path id="DejaVuSans-3d" d="M 678 2906 
L 4684 2906 
L 4684 2381 
L 678 2381 
L 678 2906 
z
M 678 1631 
L 4684 1631 
L 4684 1100 
L 678 1100 
L 678 1631 
z
" transform="scale(0.015625)"/>
      <path id="DejaVuSans-2d" d="M 313 2009 
L 1997 2009 
L 1997 1497 
L 313 1497 
L 313 2009 
z
" transform="scale(0.015625)"/>
      <path id="DejaVuSans-78" d="M 3513 3500 
L 2247 1797 
L 3578 0 
L 2900 0 
L 1881 1375 
L 863 0 
L 184 0 
L 1544 1831 
L 300 3500 
L 978 3500 
L 1906 2253 
L 2834 3500 
L 3513 3500 
z
" transform="scale(0.015625)"/>
      <path id="DejaVuSans-2b" d="M 2944 4013 
L 2944 2272 
L 4684 2272 
L 4684 1741 
L 2944 1741 
L 2944 0 
L 2419 0 
L 2419 1741 
L 678 1741 
L 678 2272 
L 2419 2272 
L 2419 4013 
L 2944 4013 
z
" transform="scale(0.015625)"/>
     </defs>
     <use xlink:href="#DejaVuSans-79"/>
     <use xlink:href="#DejaVuSans-20" x="59.179688"/>
     <use xlink:href="#DejaVuSans-3d" x="90.966797"/>
     <use xlink:href="#DejaVuSans-20" x="174.755859"/>
     <use xlink:href="#DejaVuSans-2d" x="206.542969"/>
     <use xlink:href="#DejaVuSans-30" x="242.626953"/>
     <use xlink:href="#DejaVuSans-2e" x="306.25"/>
     <use xlink:href="#DejaVuSans-30" x="338.037109"/>
     <use xlink:href="#DejaVuSans-30" x="401.660156"/>
     <use xlink:href="#DejaVuSans-78" x="465.283203"/>
     <use xlink:href="#DejaVuSans-20" x="524.462891"/>
     <use xlink:href="#DejaVuSans-2b" x="556.25"/>
     <use xlink:href="#DejaVuSans-20" x="640.039062"/>
     <use xlink:href="#DejaVuSans-30" x="671.826172"/>
     <use xlink:href="#DejaVuSans-2e" x="735.449219"/>
     <use xlink:href="#DejaVuSans-31" x="767.236328"/>
     <use xlink:href="#DejaVuSans-35" x="830.859375"/>
    </g>
   </g>
   <g id="text_18">
    <!-- r^2 = 0.04 -->
    <g transform="translate(55.237781 26.308304)scale(0.1 -0.1)">
     <defs>
      <path id="DejaVuSans-5e" d="M 2988 4666 
L 4684 2925 
L 4056 2925 
L 2681 4159 
L 1306 2925 
L 678 2925 
L 2375 4666 
L 2988 4666 
z
" transform="scale(0.015625)"/>
      <path id="DejaVuSans-34" d="M 2419 4116 
L 825 1625 
L 2419 1625 
L 2419 4116 
z
M 2253 4666 
L 3047 4666 
L 3047 1625 
L 3713 1625 
L 3713 1100 
L 3047 1100 
L 3047 0 
L 2419 0 
L 2419 1100 
L 313 1100 
L 313 1709 
L 2253 4666 
z
" transform="scale(0.015625)"/>
     </defs>
     <use xlink:href="#DejaVuSans-72"/>
     <use xlink:href="#DejaVuSans-5e" x="41.113281"/>
     <use xlink:href="#DejaVuSans-32" x="124.902344"/>
     <use xlink:href="#DejaVuSans-20" x="188.525391"/>
     <use xlink:href="#DejaVuSans-3d" x="220.3125"/>
     <use xlink:href="#DejaVuSans-20" x="304.101562"/>
     <use xlink:href="#DejaVuSans-30" x="335.888672"/>
     <use xlink:href="#DejaVuSans-2e" x="399.511719"/>
     <use xlink:href="#DejaVuSans-30" x="431.298828"/>
     <use xlink:href="#DejaVuSans-34" x="494.921875"/>
    </g>
   </g>
   <g id="text_19">
    <!-- n = 48 -->
    <g transform="translate(66.265906 34.017232)scale(0.1 -0.1)">
     <use xlink:href="#DejaVuSans-6e"/>
     <use xlink:href="#DejaVuSans-20" x="63.378906"/>
     <use xlink:href="#DejaVuSans-3d" x="95.166016"/>
     <use xlink:href="#DejaVuSans-20" x="178.955078"/>
     <use xlink:href="#DejaVuSans-34" x="210.742188"/>
     <use xlink:href="#DejaVuSans-38" x="274.365234"/>
    </g>
   </g>
   <g id="text_20">
    <!-- SasaDiff vs PercentGpA_transformed -->
    <g transform="translate(114.204375 40.675714)scale(0.12 -0.12)">
     <defs>
      <path id="DejaVuSans-76" d="M 191 3500 
L 800 3500 
L 1894 563 
L 2988 3500 
L 3597 3500 
L 2284 0 
L 1503 0 
L 191 3500 
z
" transform="scale(0.015625)"/>
     </defs>
     <use xlink:href="#DejaVuSans-53"/>
     <use xlink:href="#DejaVuSans-61" x="63.476562"/>
     <use xlink:href="#DejaVuSans-73" x="124.755859"/>
     <use xlink:href="#DejaVuSans-61" x="176.855469"/>
     <use xlink:href="#DejaVuSans-44" x="238.134766"/>
     <use xlink:href="#DejaVuSans-69" x="315.136719"/>
     <use xlink:href="#DejaVuSans-66" x="342.919922"/>
     <use xlink:href="#DejaVuSans-66" x="378.125"/>
     <use xlink:href="#DejaVuSans-20" x="413.330078"/>
     <use xlink:href="#DejaVuSans-76" x="445.117188"/>
     <use xlink:href="#DejaVuSans-73" x="504.296875"/>
     <use xlink:href="#DejaVuSans-20" x="556.396484"/>
     <use xlink:href="#DejaVuSans-50" x="588.183594"/>
     <use xlink:href="#DejaVuSans-65" x="644.861328"/>
     <use xlink:href="#DejaVuSans-72" x="706.384766"/>
     <use xlink:href="#DejaVuSans-63" x="745.248047"/>
     <use xlink:href="#DejaVuSans-65" x="800.228516"/>
     <use xlink:href="#DejaVuSans-6e" x="861.751953"/>
     <use xlink:href="#DejaVuSans-74" x="925.130859"/>
     <use xlink:href="#DejaVuSans-47" x="964.339844"/>
     <use xlink:href="#DejaVuSans-70" x="1041.830078"/>
     <use xlink:href="#DejaVuSans-41" x="1105.306641"/>
     <use xlink:href="#DejaVuSans-5f" x="1173.714844"/>
     <use xlink:href="#DejaVuSans-74" x="1223.714844"/>
     <use xlink:href="#DejaVuSans-72" x="1262.923828"/>
     <use xlink:href="#DejaVuSans-61" x="1304.037109"/>
     <use xlink:href="#DejaVuSans-6e" x="1365.316406"/>
     <use xlink:href="#DejaVuSans-73" x="1428.695312"/>
     <use xlink:href="#DejaVuSans-66" x="1480.794922"/>
     <use xlink:href="#DejaVuSans-6f" x="1516"/>
     <use xlink:href="#DejaVuSans-72" x="1577.181641"/>
     <use xlink:href="#DejaVuSans-6d" x="1616.544922"/>
     <use xlink:href="#DejaVuSans-65" x="1713.957031"/>
     <use xlink:href="#DejaVuSans-64" x="1775.480469"/>
    </g>
   </g>
   <g id="legend_1">
    <g id="patch_7">
     <path d="M 408.26 69.353839 
L 447.96 69.353839 
Q 449.96 69.353839 449.96 67.353839 
L 449.96 53.675714 
Q 449.96 51.675714 447.96 51.675714 
L 408.26 51.675714 
Q 406.26 51.675714 406.26 53.675714 
L 406.26 67.353839 
Q 406.26 69.353839 408.26 69.353839 
z
" style="fill: #ffffff; opacity: 0.8; stroke: #cccccc; stroke-linejoin: miter"/>
    </g>
    <g id="PathCollection_2">
     <g>
      <use xlink:href="#m7562224711" x="420.26" y="60.649152" style="fill: #3cb371; stroke: #3cb371"/>
     </g>
    </g>
    <g id="text_21">
     <!-- D -->
     <g transform="translate(438.26 63.274152)scale(0.1 -0.1)">
      <use xlink:href="#DejaVuSans-44"/>
     </g>
    </g>
   </g>
  </g>
 </g>
 <defs>
  <clipPath id="pbaeb2c086b">
   <rect x="47.82125" y="46.675714" width="353.43875" height="256.964286"/>
  </clipPath>
 </defs>
</svg>
