<?xml version="1.0" encoding="utf-8" standalone="no"?>
<!DOCTYPE svg PUBLIC "-//W3C//DTD SVG 1.1//EN"
  "http://www.w3.org/Graphics/SVG/1.1/DTD/svg11.dtd">
<svg xmlns:xlink="http://www.w3.org/1999/xlink" width="460.8pt" height="345.6pt" viewBox="0 0 460.8 345.6" xmlns="http://www.w3.org/2000/svg" version="1.1">
 <metadata>
  <rdf:RDF xmlns:dc="http://purl.org/dc/elements/1.1/" xmlns:cc="http://creativecommons.org/ns#" xmlns:rdf="http://www.w3.org/1999/02/22-rdf-syntax-ns#">
   <cc:Work>
    <dc:type rdf:resource="http://purl.org/dc/dcmitype/StillImage"/>
    <dc:date>2024-02-11T15:14:52.149667</dc:date>
    <dc:format>image/svg+xml</dc:format>
    <dc:creator>
     <cc:Agent>
      <dc:title>Matplotlib v3.5.3, https://matplotlib.org/</dc:title>
     </cc:Agent>
    </dc:creator>
   </cc:Work>
  </rdf:RDF>
 </metadata>
 <defs>
  <style type="text/css">*{stroke-linejoin: round; stroke-linecap: butt}</style>
 </defs>
 <g id="figure_1">
  <g id="patch_1">
   <path d="M 0 345.6 
L 460.8 345.6 
L 460.8 0 
L 0 0 
z
" style="fill: #ffffff"/>
  </g>
  <g id="axes_1">
   <g id="patch_2">
    <path d="M 65.45 303.64 
L 450 303.64 
L 450 16.560739 
L 65.45 16.560739 
z
" style="fill: #ffffff"/>
   </g>
   <g id="matplotlib.axis_1">
    <g id="xtick_1">
     <g id="text_1">
      <!-- L -->
      <g style="fill: #262626" transform="translate(254.939063 318.238437)scale(0.1 -0.1)">
       <defs>
        <path id="DejaVuSans-4c" d="M 628 4666 
L 1259 4666 
L 1259 531 
L 3531 531 
L 3531 0 
L 628 0 
L 628 4666 
z
" transform="scale(0.015625)"/>
       </defs>
       <use xlink:href="#DejaVuSans-4c"/>
      </g>
     </g>
    </g>
    <g id="text_2">
     <!-- Sample -->
     <g style="fill: #262626" transform="translate(238.976563 331.916562)scale(0.1 -0.1)">
      <defs>
       <path id="DejaVuSans-53" d="M 3425 4513 
L 3425 3897 
Q 3066 4069 2747 4153 
Q 2428 4238 2131 4238 
Q 1616 4238 1336 4038 
Q 1056 3838 1056 3469 
Q 1056 3159 1242 3001 
Q 1428 2844 1947 2747 
L 2328 2669 
Q 3034 2534 3370 2195 
Q 3706 1856 3706 1288 
Q 3706 609 3251 259 
Q 2797 -91 1919 -91 
Q 1588 -91 1214 -16 
Q 841 59 441 206 
L 441 856 
Q 825 641 1194 531 
Q 1563 422 1919 422 
Q 2459 422 2753 634 
Q 3047 847 3047 1241 
Q 3047 1584 2836 1778 
Q 2625 1972 2144 2069 
L 1759 2144 
Q 1053 2284 737 2584 
Q 422 2884 422 3419 
Q 422 4038 858 4394 
Q 1294 4750 2059 4750 
Q 2388 4750 2728 4690 
Q 3069 4631 3425 4513 
z
" transform="scale(0.015625)"/>
       <path id="DejaVuSans-61" d="M 2194 1759 
Q 1497 1759 1228 1600 
Q 959 1441 959 1056 
Q 959 750 1161 570 
Q 1363 391 1709 391 
Q 2188 391 2477 730 
Q 2766 1069 2766 1631 
L 2766 1759 
L 2194 1759 
z
M 3341 1997 
L 3341 0 
L 2766 0 
L 2766 531 
Q 2569 213 2275 61 
Q 1981 -91 1556 -91 
Q 1019 -91 701 211 
Q 384 513 384 1019 
Q 384 1609 779 1909 
Q 1175 2209 1959 2209 
L 2766 2209 
L 2766 2266 
Q 2766 2663 2505 2880 
Q 2244 3097 1772 3097 
Q 1472 3097 1187 3025 
Q 903 2953 641 2809 
L 641 3341 
Q 956 3463 1253 3523 
Q 1550 3584 1831 3584 
Q 2591 3584 2966 3190 
Q 3341 2797 3341 1997 
z
" transform="scale(0.015625)"/>
       <path id="DejaVuSans-6d" d="M 3328 2828 
Q 3544 3216 3844 3400 
Q 4144 3584 4550 3584 
Q 5097 3584 5394 3201 
Q 5691 2819 5691 2113 
L 5691 0 
L 5113 0 
L 5113 2094 
Q 5113 2597 4934 2840 
Q 4756 3084 4391 3084 
Q 3944 3084 3684 2787 
Q 3425 2491 3425 1978 
L 3425 0 
L 2847 0 
L 2847 2094 
Q 2847 2600 2669 2842 
Q 2491 3084 2119 3084 
Q 1678 3084 1418 2786 
Q 1159 2488 1159 1978 
L 1159 0 
L 581 0 
L 581 3500 
L 1159 3500 
L 1159 2956 
Q 1356 3278 1631 3431 
Q 1906 3584 2284 3584 
Q 2666 3584 2933 3390 
Q 3200 3197 3328 2828 
z
" transform="scale(0.015625)"/>
       <path id="DejaVuSans-70" d="M 1159 525 
L 1159 -1331 
L 581 -1331 
L 581 3500 
L 1159 3500 
L 1159 2969 
Q 1341 3281 1617 3432 
Q 1894 3584 2278 3584 
Q 2916 3584 3314 3078 
Q 3713 2572 3713 1747 
Q 3713 922 3314 415 
Q 2916 -91 2278 -91 
Q 1894 -91 1617 61 
Q 1341 213 1159 525 
z
M 3116 1747 
Q 3116 2381 2855 2742 
Q 2594 3103 2138 3103 
Q 1681 3103 1420 2742 
Q 1159 2381 1159 1747 
Q 1159 1113 1420 752 
Q 1681 391 2138 391 
Q 2594 391 2855 752 
Q 3116 1113 3116 1747 
z
" transform="scale(0.015625)"/>
       <path id="DejaVuSans-6c" d="M 603 4863 
L 1178 4863 
L 1178 0 
L 603 0 
L 603 4863 
z
" transform="scale(0.015625)"/>
       <path id="DejaVuSans-65" d="M 3597 1894 
L 3597 1613 
L 953 1613 
Q 991 1019 1311 708 
Q 1631 397 2203 397 
Q 2534 397 2845 478 
Q 3156 559 3463 722 
L 3463 178 
Q 3153 47 2828 -22 
Q 2503 -91 2169 -91 
Q 1331 -91 842 396 
Q 353 884 353 1716 
Q 353 2575 817 3079 
Q 1281 3584 2069 3584 
Q 2775 3584 3186 3129 
Q 3597 2675 3597 1894 
z
M 3022 2063 
Q 3016 2534 2758 2815 
Q 2500 3097 2075 3097 
Q 1594 3097 1305 2825 
Q 1016 2553 972 2059 
L 3022 2063 
z
" transform="scale(0.015625)"/>
      </defs>
      <use xlink:href="#DejaVuSans-53"/>
      <use xlink:href="#DejaVuSans-61" x="63.476562"/>
      <use xlink:href="#DejaVuSans-6d" x="124.755859"/>
      <use xlink:href="#DejaVuSans-70" x="222.167969"/>
      <use xlink:href="#DejaVuSans-6c" x="285.644531"/>
      <use xlink:href="#DejaVuSans-65" x="313.427734"/>
     </g>
    </g>
   </g>
   <g id="matplotlib.axis_2">
    <g id="ytick_1">
     <g id="line2d_1">
      <path d="M 65.45 272.779168 
L 450 272.779168 
" clip-path="url(#pfc457703f1)" style="fill: none; stroke: #cccccc; stroke-width: 0.8; stroke-linecap: round"/>
     </g>
     <g id="text_3">
      <!-- −7500 -->
      <g style="fill: #262626" transform="translate(24.620313 276.578387)scale(0.1 -0.1)">
       <defs>
        <path id="DejaVuSans-2212" d="M 678 2272 
L 4684 2272 
L 4684 1741 
L 678 1741 
L 678 2272 
z
" transform="scale(0.015625)"/>
        <path id="DejaVuSans-37" d="M 525 4666 
L 3525 4666 
L 3525 4397 
L 1831 0 
L 1172 0 
L 2766 4134 
L 525 4134 
L 525 4666 
z
" transform="scale(0.015625)"/>
        <path id="DejaVuSans-35" d="M 691 4666 
L 3169 4666 
L 3169 4134 
L 1269 4134 
L 1269 2991 
Q 1406 3038 1543 3061 
Q 1681 3084 1819 3084 
Q 2600 3084 3056 2656 
Q 3513 2228 3513 1497 
Q 3513 744 3044 326 
Q 2575 -91 1722 -91 
Q 1428 -91 1123 -41 
Q 819 9 494 109 
L 494 744 
Q 775 591 1075 516 
Q 1375 441 1709 441 
Q 2250 441 2565 725 
Q 2881 1009 2881 1497 
Q 2881 1984 2565 2268 
Q 2250 2553 1709 2553 
Q 1456 2553 1204 2497 
Q 953 2441 691 2322 
L 691 4666 
z
" transform="scale(0.015625)"/>
        <path id="DejaVuSans-30" d="M 2034 4250 
Q 1547 4250 1301 3770 
Q 1056 3291 1056 2328 
Q 1056 1369 1301 889 
Q 1547 409 2034 409 
Q 2525 409 2770 889 
Q 3016 1369 3016 2328 
Q 3016 3291 2770 3770 
Q 2525 4250 2034 4250 
z
M 2034 4750 
Q 2819 4750 3233 4129 
Q 3647 3509 3647 2328 
Q 3647 1150 3233 529 
Q 2819 -91 2034 -91 
Q 1250 -91 836 529 
Q 422 1150 422 2328 
Q 422 3509 836 4129 
Q 1250 4750 2034 4750 
z
" transform="scale(0.015625)"/>
       </defs>
       <use xlink:href="#DejaVuSans-2212"/>
       <use xlink:href="#DejaVuSans-37" x="83.789062"/>
       <use xlink:href="#DejaVuSans-35" x="147.412109"/>
       <use xlink:href="#DejaVuSans-30" x="211.035156"/>
       <use xlink:href="#DejaVuSans-30" x="274.658203"/>
      </g>
     </g>
    </g>
    <g id="ytick_2">
     <g id="line2d_2">
      <path d="M 65.45 235.808167 
L 450 235.808167 
" clip-path="url(#pfc457703f1)" style="fill: none; stroke: #cccccc; stroke-width: 0.8; stroke-linecap: round"/>
     </g>
     <g id="text_4">
      <!-- −5000 -->
      <g style="fill: #262626" transform="translate(24.620313 239.607386)scale(0.1 -0.1)">
       <use xlink:href="#DejaVuSans-2212"/>
       <use xlink:href="#DejaVuSans-35" x="83.789062"/>
       <use xlink:href="#DejaVuSans-30" x="147.412109"/>
       <use xlink:href="#DejaVuSans-30" x="211.035156"/>
       <use xlink:href="#DejaVuSans-30" x="274.658203"/>
      </g>
     </g>
    </g>
    <g id="ytick_3">
     <g id="line2d_3">
      <path d="M 65.45 198.837167 
L 450 198.837167 
" clip-path="url(#pfc457703f1)" style="fill: none; stroke: #cccccc; stroke-width: 0.8; stroke-linecap: round"/>
     </g>
     <g id="text_5">
      <!-- −2500 -->
      <g style="fill: #262626" transform="translate(24.620313 202.636386)scale(0.1 -0.1)">
       <defs>
        <path id="DejaVuSans-32" d="M 1228 531 
L 3431 531 
L 3431 0 
L 469 0 
L 469 531 
Q 828 903 1448 1529 
Q 2069 2156 2228 2338 
Q 2531 2678 2651 2914 
Q 2772 3150 2772 3378 
Q 2772 3750 2511 3984 
Q 2250 4219 1831 4219 
Q 1534 4219 1204 4116 
Q 875 4013 500 3803 
L 500 4441 
Q 881 4594 1212 4672 
Q 1544 4750 1819 4750 
Q 2544 4750 2975 4387 
Q 3406 4025 3406 3419 
Q 3406 3131 3298 2873 
Q 3191 2616 2906 2266 
Q 2828 2175 2409 1742 
Q 1991 1309 1228 531 
z
" transform="scale(0.015625)"/>
       </defs>
       <use xlink:href="#DejaVuSans-2212"/>
       <use xlink:href="#DejaVuSans-32" x="83.789062"/>
       <use xlink:href="#DejaVuSans-35" x="147.412109"/>
       <use xlink:href="#DejaVuSans-30" x="211.035156"/>
       <use xlink:href="#DejaVuSans-30" x="274.658203"/>
      </g>
     </g>
    </g>
    <g id="ytick_4">
     <g id="line2d_4">
      <path d="M 65.45 161.866167 
L 450 161.866167 
" clip-path="url(#pfc457703f1)" style="fill: none; stroke: #cccccc; stroke-width: 0.8; stroke-linecap: round"/>
     </g>
     <g id="text_6">
      <!-- 0 -->
      <g style="fill: #262626" transform="translate(52.0875 165.665385)scale(0.1 -0.1)">
       <use xlink:href="#DejaVuSans-30"/>
      </g>
     </g>
    </g>
    <g id="ytick_5">
     <g id="line2d_5">
      <path d="M 65.45 124.895166 
L 450 124.895166 
" clip-path="url(#pfc457703f1)" style="fill: none; stroke: #cccccc; stroke-width: 0.8; stroke-linecap: round"/>
     </g>
     <g id="text_7">
      <!-- 2500 -->
      <g style="fill: #262626" transform="translate(33 128.694385)scale(0.1 -0.1)">
       <use xlink:href="#DejaVuSans-32"/>
       <use xlink:href="#DejaVuSans-35" x="63.623047"/>
       <use xlink:href="#DejaVuSans-30" x="127.246094"/>
       <use xlink:href="#DejaVuSans-30" x="190.869141"/>
      </g>
     </g>
    </g>
    <g id="ytick_6">
     <g id="line2d_6">
      <path d="M 65.45 87.924166 
L 450 87.924166 
" clip-path="url(#pfc457703f1)" style="fill: none; stroke: #cccccc; stroke-width: 0.8; stroke-linecap: round"/>
     </g>
     <g id="text_8">
      <!-- 5000 -->
      <g style="fill: #262626" transform="translate(33 91.723385)scale(0.1 -0.1)">
       <use xlink:href="#DejaVuSans-35"/>
       <use xlink:href="#DejaVuSans-30" x="63.623047"/>
       <use xlink:href="#DejaVuSans-30" x="127.246094"/>
       <use xlink:href="#DejaVuSans-30" x="190.869141"/>
      </g>
     </g>
    </g>
    <g id="ytick_7">
     <g id="line2d_7">
      <path d="M 65.45 50.953166 
L 450 50.953166 
" clip-path="url(#pfc457703f1)" style="fill: none; stroke: #cccccc; stroke-width: 0.8; stroke-linecap: round"/>
     </g>
     <g id="text_9">
      <!-- 7500 -->
      <g style="fill: #262626" transform="translate(33 54.752384)scale(0.1 -0.1)">
       <use xlink:href="#DejaVuSans-37"/>
       <use xlink:href="#DejaVuSans-35" x="63.623047"/>
       <use xlink:href="#DejaVuSans-30" x="127.246094"/>
       <use xlink:href="#DejaVuSans-30" x="190.869141"/>
      </g>
     </g>
    </g>
    <g id="text_10">
     <!-- Delta Fluorescence -->
     <g style="fill: #262626" transform="translate(18.540625 207.966776)rotate(-90)scale(0.1 -0.1)">
      <defs>
       <path id="DejaVuSans-44" d="M 1259 4147 
L 1259 519 
L 2022 519 
Q 2988 519 3436 956 
Q 3884 1394 3884 2338 
Q 3884 3275 3436 3711 
Q 2988 4147 2022 4147 
L 1259 4147 
z
M 628 4666 
L 1925 4666 
Q 3281 4666 3915 4102 
Q 4550 3538 4550 2338 
Q 4550 1131 3912 565 
Q 3275 0 1925 0 
L 628 0 
L 628 4666 
z
" transform="scale(0.015625)"/>
       <path id="DejaVuSans-74" d="M 1172 4494 
L 1172 3500 
L 2356 3500 
L 2356 3053 
L 1172 3053 
L 1172 1153 
Q 1172 725 1289 603 
Q 1406 481 1766 481 
L 2356 481 
L 2356 0 
L 1766 0 
Q 1100 0 847 248 
Q 594 497 594 1153 
L 594 3053 
L 172 3053 
L 172 3500 
L 594 3500 
L 594 4494 
L 1172 4494 
z
" transform="scale(0.015625)"/>
       <path id="DejaVuSans-20" transform="scale(0.015625)"/>
       <path id="DejaVuSans-46" d="M 628 4666 
L 3309 4666 
L 3309 4134 
L 1259 4134 
L 1259 2759 
L 3109 2759 
L 3109 2228 
L 1259 2228 
L 1259 0 
L 628 0 
L 628 4666 
z
" transform="scale(0.015625)"/>
       <path id="DejaVuSans-75" d="M 544 1381 
L 544 3500 
L 1119 3500 
L 1119 1403 
Q 1119 906 1312 657 
Q 1506 409 1894 409 
Q 2359 409 2629 706 
Q 2900 1003 2900 1516 
L 2900 3500 
L 3475 3500 
L 3475 0 
L 2900 0 
L 2900 538 
Q 2691 219 2414 64 
Q 2138 -91 1772 -91 
Q 1169 -91 856 284 
Q 544 659 544 1381 
z
M 1991 3584 
L 1991 3584 
z
" transform="scale(0.015625)"/>
       <path id="DejaVuSans-6f" d="M 1959 3097 
Q 1497 3097 1228 2736 
Q 959 2375 959 1747 
Q 959 1119 1226 758 
Q 1494 397 1959 397 
Q 2419 397 2687 759 
Q 2956 1122 2956 1747 
Q 2956 2369 2687 2733 
Q 2419 3097 1959 3097 
z
M 1959 3584 
Q 2709 3584 3137 3096 
Q 3566 2609 3566 1747 
Q 3566 888 3137 398 
Q 2709 -91 1959 -91 
Q 1206 -91 779 398 
Q 353 888 353 1747 
Q 353 2609 779 3096 
Q 1206 3584 1959 3584 
z
" transform="scale(0.015625)"/>
       <path id="DejaVuSans-72" d="M 2631 2963 
Q 2534 3019 2420 3045 
Q 2306 3072 2169 3072 
Q 1681 3072 1420 2755 
Q 1159 2438 1159 1844 
L 1159 0 
L 581 0 
L 581 3500 
L 1159 3500 
L 1159 2956 
Q 1341 3275 1631 3429 
Q 1922 3584 2338 3584 
Q 2397 3584 2469 3576 
Q 2541 3569 2628 3553 
L 2631 2963 
z
" transform="scale(0.015625)"/>
       <path id="DejaVuSans-73" d="M 2834 3397 
L 2834 2853 
Q 2591 2978 2328 3040 
Q 2066 3103 1784 3103 
Q 1356 3103 1142 2972 
Q 928 2841 928 2578 
Q 928 2378 1081 2264 
Q 1234 2150 1697 2047 
L 1894 2003 
Q 2506 1872 2764 1633 
Q 3022 1394 3022 966 
Q 3022 478 2636 193 
Q 2250 -91 1575 -91 
Q 1294 -91 989 -36 
Q 684 19 347 128 
L 347 722 
Q 666 556 975 473 
Q 1284 391 1588 391 
Q 1994 391 2212 530 
Q 2431 669 2431 922 
Q 2431 1156 2273 1281 
Q 2116 1406 1581 1522 
L 1381 1569 
Q 847 1681 609 1914 
Q 372 2147 372 2553 
Q 372 3047 722 3315 
Q 1072 3584 1716 3584 
Q 2034 3584 2315 3537 
Q 2597 3491 2834 3397 
z
" transform="scale(0.015625)"/>
       <path id="DejaVuSans-63" d="M 3122 3366 
L 3122 2828 
Q 2878 2963 2633 3030 
Q 2388 3097 2138 3097 
Q 1578 3097 1268 2742 
Q 959 2388 959 1747 
Q 959 1106 1268 751 
Q 1578 397 2138 397 
Q 2388 397 2633 464 
Q 2878 531 3122 666 
L 3122 134 
Q 2881 22 2623 -34 
Q 2366 -91 2075 -91 
Q 1284 -91 818 406 
Q 353 903 353 1747 
Q 353 2603 823 3093 
Q 1294 3584 2113 3584 
Q 2378 3584 2631 3529 
Q 2884 3475 3122 3366 
z
" transform="scale(0.015625)"/>
       <path id="DejaVuSans-6e" d="M 3513 2113 
L 3513 0 
L 2938 0 
L 2938 2094 
Q 2938 2591 2744 2837 
Q 2550 3084 2163 3084 
Q 1697 3084 1428 2787 
Q 1159 2491 1159 1978 
L 1159 0 
L 581 0 
L 581 3500 
L 1159 3500 
L 1159 2956 
Q 1366 3272 1645 3428 
Q 1925 3584 2291 3584 
Q 2894 3584 3203 3211 
Q 3513 2838 3513 2113 
z
" transform="scale(0.015625)"/>
      </defs>
      <use xlink:href="#DejaVuSans-44"/>
      <use xlink:href="#DejaVuSans-65" x="77.001953"/>
      <use xlink:href="#DejaVuSans-6c" x="138.525391"/>
      <use xlink:href="#DejaVuSans-74" x="166.308594"/>
      <use xlink:href="#DejaVuSans-61" x="205.517578"/>
      <use xlink:href="#DejaVuSans-20" x="266.796875"/>
      <use xlink:href="#DejaVuSans-46" x="298.583984"/>
      <use xlink:href="#DejaVuSans-6c" x="356.103516"/>
      <use xlink:href="#DejaVuSans-75" x="383.886719"/>
      <use xlink:href="#DejaVuSans-6f" x="447.265625"/>
      <use xlink:href="#DejaVuSans-72" x="508.447266"/>
      <use xlink:href="#DejaVuSans-65" x="547.310547"/>
      <use xlink:href="#DejaVuSans-73" x="608.833984"/>
      <use xlink:href="#DejaVuSans-63" x="660.933594"/>
      <use xlink:href="#DejaVuSans-65" x="715.914062"/>
      <use xlink:href="#DejaVuSans-6e" x="777.4375"/>
      <use xlink:href="#DejaVuSans-63" x="840.816406"/>
      <use xlink:href="#DejaVuSans-65" x="895.796875"/>
     </g>
    </g>
   </g>
   <g id="patch_3">
    <path d="M 105.4432 192.764106 
L 256.1868 192.764106 
L 256.1868 151.54785 
L 105.4432 151.54785 
L 105.4432 192.764106 
z
" clip-path="url(#pfc457703f1)" style="fill: #ecf2ec; stroke: #262626; stroke-width: 1.5; stroke-linejoin: miter"/>
   </g>
   <g id="patch_4">
    <path d="M 259.2632 159.100673 
L 410.0068 159.100673 
L 410.0068 113.179486 
L 259.2632 113.179486 
L 259.2632 159.100673 
z
" clip-path="url(#pfc457703f1)" style="fill: #107010; stroke: #262626; stroke-width: 1.5; stroke-linejoin: miter"/>
   </g>
   <g id="patch_5">
    <path d="M 257.725 161.866167 
L 257.725 161.866167 
L 257.725 161.866167 
L 257.725 161.866167 
z
" clip-path="url(#pfc457703f1)" style="fill: #ecf2ec; stroke: #262626; stroke-width: 0.75; stroke-linejoin: miter"/>
   </g>
   <g id="patch_6">
    <path d="M 257.725 161.866167 
L 257.725 161.866167 
L 257.725 161.866167 
L 257.725 161.866167 
z
" clip-path="url(#pfc457703f1)" style="fill: #107010; stroke: #262626; stroke-width: 0.75; stroke-linejoin: miter"/>
   </g>
   <g id="PathCollection_1"/>
   <g id="PathCollection_2"/>
   <g id="line2d_8">
    <path d="M 180.815 192.764106 
L 180.815 246.868083 
" clip-path="url(#pfc457703f1)" style="fill: none; stroke: #262626; stroke-width: 1.5; stroke-linecap: round"/>
   </g>
   <g id="line2d_9">
    <path d="M 180.815 151.54785 
L 180.815 91.39036 
" clip-path="url(#pfc457703f1)" style="fill: none; stroke: #262626; stroke-width: 1.5; stroke-linecap: round"/>
   </g>
   <g id="line2d_10">
    <path d="M 143.1291 246.868083 
L 218.5009 246.868083 
" clip-path="url(#pfc457703f1)" style="fill: none; stroke: #262626; stroke-width: 1.5; stroke-linecap: round"/>
   </g>
   <g id="line2d_11">
    <path d="M 143.1291 91.39036 
L 218.5009 91.39036 
" clip-path="url(#pfc457703f1)" style="fill: none; stroke: #262626; stroke-width: 1.5; stroke-linecap: round"/>
   </g>
   <g id="line2d_12">
    <defs>
     <path id="mabc898af69" d="M -0 1.414214 
L 0.848528 0 
L 0 -1.414214 
L -0.848528 -0 
z
" style="stroke: #262626; stroke-linejoin: miter"/>
    </defs>
    <g clip-path="url(#pfc457703f1)">
     <use xlink:href="#mabc898af69" x="180.815" y="303.64" style="fill: #262626; stroke: #262626; stroke-linejoin: miter"/>
     <use xlink:href="#mabc898af69" x="180.815" y="268.280069" style="fill: #262626; stroke: #262626; stroke-linejoin: miter"/>
     <use xlink:href="#mabc898af69" x="180.815" y="293.821771" style="fill: #262626; stroke: #262626; stroke-linejoin: miter"/>
     <use xlink:href="#mabc898af69" x="180.815" y="60.751178" style="fill: #262626; stroke: #262626; stroke-linejoin: miter"/>
     <use xlink:href="#mabc898af69" x="180.815" y="16.560739" style="fill: #262626; stroke: #262626; stroke-linejoin: miter"/>
    </g>
   </g>
   <g id="line2d_13">
    <path d="M 334.635 159.100673 
L 334.635 209.375099 
" clip-path="url(#pfc457703f1)" style="fill: none; stroke: #262626; stroke-width: 1.5; stroke-linecap: round"/>
   </g>
   <g id="line2d_14">
    <path d="M 334.635 113.179486 
L 334.635 57.765394 
" clip-path="url(#pfc457703f1)" style="fill: none; stroke: #262626; stroke-width: 1.5; stroke-linecap: round"/>
   </g>
   <g id="line2d_15">
    <path d="M 296.9491 209.375099 
L 372.3209 209.375099 
" clip-path="url(#pfc457703f1)" style="fill: none; stroke: #262626; stroke-width: 1.5; stroke-linecap: round"/>
   </g>
   <g id="line2d_16">
    <path d="M 296.9491 57.765394 
L 372.3209 57.765394 
" clip-path="url(#pfc457703f1)" style="fill: none; stroke: #262626; stroke-width: 1.5; stroke-linecap: round"/>
   </g>
   <g id="line2d_17">
    <g clip-path="url(#pfc457703f1)">
     <use xlink:href="#mabc898af69" x="334.635" y="20.498245" style="fill: #262626; stroke: #262626; stroke-linejoin: miter"/>
    </g>
   </g>
   <g id="line2d_18">
    <path d="M 105.4432 175.741021 
L 256.1868 175.741021 
" clip-path="url(#pfc457703f1)" style="fill: none; stroke: #262626; stroke-width: 1.5; stroke-linecap: round"/>
   </g>
   <g id="line2d_19">
    <path d="M 259.2632 142.149281 
L 410.0068 142.149281 
" clip-path="url(#pfc457703f1)" style="fill: none; stroke: #262626; stroke-width: 1.5; stroke-linecap: round"/>
   </g>
   <g id="patch_7">
    <path d="M 65.45 303.64 
L 65.45 16.560739 
" style="fill: none; stroke: #cccccc; stroke-width: 0.8; stroke-linejoin: miter; stroke-linecap: square"/>
   </g>
   <g id="patch_8">
    <path d="M 450 303.64 
L 450 16.560739 
" style="fill: none; stroke: #cccccc; stroke-width: 0.8; stroke-linejoin: miter; stroke-linecap: square"/>
   </g>
   <g id="patch_9">
    <path d="M 65.45 303.64 
L 450 303.64 
" style="fill: none; stroke: #cccccc; stroke-width: 0.8; stroke-linejoin: miter; stroke-linecap: square"/>
   </g>
   <g id="patch_10">
    <path d="M 65.45 16.560739 
L 450 16.560739 
" style="fill: none; stroke: #cccccc; stroke-width: 0.8; stroke-linejoin: miter; stroke-linecap: square"/>
   </g>
   <g id="PathCollection_3">
    <defs>
     <path id="C0_0_aee5a99983" d="M 0 1 
C 0.265203 1 0.51958 0.894634 0.707107 0.707107 
C 0.894634 0.51958 1 0.265203 1 -0 
C 1 -0.265203 0.894634 -0.51958 0.707107 -0.707107 
C 0.51958 -0.894634 0.265203 -1 0 -1 
C -0.265203 -1 -0.51958 -0.894634 -0.707107 -0.707107 
C -0.894634 -0.51958 -1 -0.265203 -1 0 
C -1 0.265203 -0.894634 0.51958 -0.707107 0.707107 
C -0.51958 0.894634 -0.265203 1 0 1 
z
"/>
    </defs>
    <g clip-path="url(#pfc457703f1)">
     <use xlink:href="#C0_0_aee5a99983" x="192.297554" y="108.650551" style="fill: #262626"/>
    </g>
    <g clip-path="url(#pfc457703f1)">
     <use xlink:href="#C0_0_aee5a99983" x="198.468331" y="169.017256" style="fill: #262626"/>
    </g>
    <g clip-path="url(#pfc457703f1)">
     <use xlink:href="#C0_0_aee5a99983" x="170.443508" y="203.415989" style="fill: #262626"/>
    </g>
    <g clip-path="url(#pfc457703f1)">
     <use xlink:href="#C0_0_aee5a99983" x="198.161105" y="159.151401" style="fill: #262626"/>
    </g>
    <g clip-path="url(#pfc457703f1)">
     <use xlink:href="#C0_0_aee5a99983" x="184.397393" y="160.0751" style="fill: #262626"/>
    </g>
    <g clip-path="url(#pfc457703f1)">
     <use xlink:href="#C0_0_aee5a99983" x="169.484519" y="208.516925" style="fill: #262626"/>
    </g>
    <g clip-path="url(#pfc457703f1)">
     <use xlink:href="#C0_0_aee5a99983" x="168.246126" y="189.877377" style="fill: #262626"/>
    </g>
    <g clip-path="url(#pfc457703f1)">
     <use xlink:href="#C0_0_aee5a99983" x="195.751246" y="160.721313" style="fill: #262626"/>
    </g>
    <g clip-path="url(#pfc457703f1)">
     <use xlink:href="#C0_0_aee5a99983" x="197.829396" y="169.564373" style="fill: #262626"/>
    </g>
    <g clip-path="url(#pfc457703f1)">
     <use xlink:href="#C0_0_aee5a99983" x="180.038906" y="60.751178" style="fill: #262626"/>
    </g>
    <g clip-path="url(#pfc457703f1)">
     <use xlink:href="#C0_0_aee5a99983" x="183.883132" y="181.494817" style="fill: #262626"/>
    </g>
    <g clip-path="url(#pfc457703f1)">
     <use xlink:href="#C0_0_aee5a99983" x="163.210965" y="202.732273" style="fill: #262626"/>
    </g>
    <g clip-path="url(#pfc457703f1)">
     <use xlink:href="#C0_0_aee5a99983" x="182.774438" y="303.64" style="fill: #262626"/>
    </g>
    <g clip-path="url(#pfc457703f1)">
     <use xlink:href="#C0_0_aee5a99983" x="176.11573" y="172.602597" style="fill: #262626"/>
    </g>
    <g clip-path="url(#pfc457703f1)">
     <use xlink:href="#C0_0_aee5a99983" x="182.449867" y="156.390181" style="fill: #262626"/>
    </g>
    <g clip-path="url(#pfc457703f1)">
     <use xlink:href="#C0_0_aee5a99983" x="186.996454" y="208.67615" style="fill: #262626"/>
    </g>
    <g clip-path="url(#pfc457703f1)">
     <use xlink:href="#C0_0_aee5a99983" x="184.65135" y="180.41449" style="fill: #262626"/>
    </g>
    <g clip-path="url(#pfc457703f1)">
     <use xlink:href="#C0_0_aee5a99983" x="194.181881" y="174.619279" style="fill: #262626"/>
    </g>
    <g clip-path="url(#pfc457703f1)">
     <use xlink:href="#C0_0_aee5a99983" x="164.159195" y="137.61057" style="fill: #262626"/>
    </g>
    <g clip-path="url(#pfc457703f1)">
     <use xlink:href="#C0_0_aee5a99983" x="194.256494" y="91.39036" style="fill: #262626"/>
    </g>
    <g clip-path="url(#pfc457703f1)">
     <use xlink:href="#C0_0_aee5a99983" x="186.52256" y="180.432405" style="fill: #262626"/>
    </g>
    <g clip-path="url(#pfc457703f1)">
     <use xlink:href="#C0_0_aee5a99983" x="172.483142" y="193.439778" style="fill: #262626"/>
    </g>
    <g clip-path="url(#pfc457703f1)">
     <use xlink:href="#C0_0_aee5a99983" x="175.243788" y="181.591249" style="fill: #262626"/>
    </g>
    <g clip-path="url(#pfc457703f1)">
     <use xlink:href="#C0_0_aee5a99983" x="179.831197" y="191.610653" style="fill: #262626"/>
    </g>
    <g clip-path="url(#pfc457703f1)">
     <use xlink:href="#C0_0_aee5a99983" x="198.446008" y="116.538192" style="fill: #262626"/>
    </g>
    <g clip-path="url(#pfc457703f1)">
     <use xlink:href="#C0_0_aee5a99983" x="186.688515" y="200.893478" style="fill: #262626"/>
    </g>
    <g clip-path="url(#pfc457703f1)">
     <use xlink:href="#C0_0_aee5a99983" x="192.173081" y="178.393748" style="fill: #262626"/>
    </g>
    <g clip-path="url(#pfc457703f1)">
     <use xlink:href="#C0_0_aee5a99983" x="169.069368" y="176.571268" style="fill: #262626"/>
    </g>
    <g clip-path="url(#pfc457703f1)">
     <use xlink:href="#C0_0_aee5a99983" x="196.825316" y="16.560739" style="fill: #262626"/>
    </g>
    <g clip-path="url(#pfc457703f1)">
     <use xlink:href="#C0_0_aee5a99983" x="198.978729" y="170.840121" style="fill: #262626"/>
    </g>
    <g clip-path="url(#pfc457703f1)">
     <use xlink:href="#C0_0_aee5a99983" x="176.043159" y="199.02437" style="fill: #262626"/>
    </g>
    <g clip-path="url(#pfc457703f1)">
     <use xlink:href="#C0_0_aee5a99983" x="178.079752" y="184.091154" style="fill: #262626"/>
    </g>
    <g clip-path="url(#pfc457703f1)">
     <use xlink:href="#C0_0_aee5a99983" x="169.991771" y="124.896801" style="fill: #262626"/>
    </g>
    <g clip-path="url(#pfc457703f1)">
     <use xlink:href="#C0_0_aee5a99983" x="182.349412" y="125.85212" style="fill: #262626"/>
    </g>
    <g clip-path="url(#pfc457703f1)">
     <use xlink:href="#C0_0_aee5a99983" x="174.687827" y="153.973367" style="fill: #262626"/>
    </g>
    <g clip-path="url(#pfc457703f1)">
     <use xlink:href="#C0_0_aee5a99983" x="194.923801" y="246.868083" style="fill: #262626"/>
    </g>
    <g clip-path="url(#pfc457703f1)">
     <use xlink:href="#C0_0_aee5a99983" x="178.477542" y="120.505437" style="fill: #262626"/>
    </g>
    <g clip-path="url(#pfc457703f1)">
     <use xlink:href="#C0_0_aee5a99983" x="162.409745" y="182.166768" style="fill: #262626"/>
    </g>
    <g clip-path="url(#pfc457703f1)">
     <use xlink:href="#C0_0_aee5a99983" x="184.219149" y="268.280069" style="fill: #262626"/>
    </g>
    <g clip-path="url(#pfc457703f1)">
     <use xlink:href="#C0_0_aee5a99983" x="197.52546" y="114.700966" style="fill: #262626"/>
    </g>
    <g clip-path="url(#pfc457703f1)">
     <use xlink:href="#C0_0_aee5a99983" x="185.232988" y="177.115213" style="fill: #262626"/>
    </g>
    <g clip-path="url(#pfc457703f1)">
     <use xlink:href="#C0_0_aee5a99983" x="179.422931" y="148.657998" style="fill: #262626"/>
    </g>
    <g clip-path="url(#pfc457703f1)">
     <use xlink:href="#C0_0_aee5a99983" x="180.053903" y="138.93008" style="fill: #262626"/>
    </g>
    <g clip-path="url(#pfc457703f1)">
     <use xlink:href="#C0_0_aee5a99983" x="179.625795" y="186.521185" style="fill: #262626"/>
    </g>
    <g clip-path="url(#pfc457703f1)">
     <use xlink:href="#C0_0_aee5a99983" x="166.995069" y="192.764106" style="fill: #262626"/>
    </g>
    <g clip-path="url(#pfc457703f1)">
     <use xlink:href="#C0_0_aee5a99983" x="179.727379" y="200.648071" style="fill: #262626"/>
    </g>
    <g clip-path="url(#pfc457703f1)">
     <use xlink:href="#C0_0_aee5a99983" x="188.253057" y="293.821771" style="fill: #262626"/>
    </g>
    <g clip-path="url(#pfc457703f1)">
     <use xlink:href="#C0_0_aee5a99983" x="178.439537" y="204.812634" style="fill: #262626"/>
    </g>
    <g clip-path="url(#pfc457703f1)">
     <use xlink:href="#C0_0_aee5a99983" x="173.476033" y="111.022605" style="fill: #262626"/>
    </g>
    <g clip-path="url(#pfc457703f1)">
     <use xlink:href="#C0_0_aee5a99983" x="176.365705" y="161.069208" style="fill: #262626"/>
    </g>
    <g clip-path="url(#pfc457703f1)">
     <use xlink:href="#C0_0_aee5a99983" x="178.031176" y="147.808614" style="fill: #262626"/>
    </g>
    <g clip-path="url(#pfc457703f1)">
     <use xlink:href="#C0_0_aee5a99983" x="194.266213" y="113.539293" style="fill: #262626"/>
    </g>
    <g clip-path="url(#pfc457703f1)">
     <use xlink:href="#C0_0_aee5a99983" x="176.272607" y="163.700233" style="fill: #262626"/>
    </g>
    <g clip-path="url(#pfc457703f1)">
     <use xlink:href="#C0_0_aee5a99983" x="176.548545" y="205.790315" style="fill: #262626"/>
    </g>
    <g clip-path="url(#pfc457703f1)">
     <use xlink:href="#C0_0_aee5a99983" x="181.857181" y="192.232282" style="fill: #262626"/>
    </g>
    <g clip-path="url(#pfc457703f1)">
     <use xlink:href="#C0_0_aee5a99983" x="164.228254" y="161.933998" style="fill: #262626"/>
    </g>
    <g clip-path="url(#pfc457703f1)">
     <use xlink:href="#C0_0_aee5a99983" x="173.674387" y="157.012953" style="fill: #262626"/>
    </g>
    <g clip-path="url(#pfc457703f1)">
     <use xlink:href="#C0_0_aee5a99983" x="169.567901" y="165.675057" style="fill: #262626"/>
    </g>
    <g clip-path="url(#pfc457703f1)">
     <use xlink:href="#C0_0_aee5a99983" x="193.007743" y="190.220029" style="fill: #262626"/>
    </g>
    <g clip-path="url(#pfc457703f1)">
     <use xlink:href="#C0_0_aee5a99983" x="171.255671" y="172.649128" style="fill: #262626"/>
    </g>
    <g clip-path="url(#pfc457703f1)">
     <use xlink:href="#C0_0_aee5a99983" x="195.292889" y="200.537837" style="fill: #262626"/>
    </g>
    <g clip-path="url(#pfc457703f1)">
     <use xlink:href="#C0_0_aee5a99983" x="173.870125" y="190.9337" style="fill: #262626"/>
    </g>
    <g clip-path="url(#pfc457703f1)">
     <use xlink:href="#C0_0_aee5a99983" x="182.007574" y="172.640636" style="fill: #262626"/>
    </g>
    <g clip-path="url(#pfc457703f1)">
     <use xlink:href="#C0_0_aee5a99983" x="182.026538" y="183.563447" style="fill: #262626"/>
    </g>
    <g clip-path="url(#pfc457703f1)">
     <use xlink:href="#C0_0_aee5a99983" x="192.228267" y="96.359854" style="fill: #262626"/>
    </g>
    <g clip-path="url(#pfc457703f1)">
     <use xlink:href="#C0_0_aee5a99983" x="165.524251" y="185.976683" style="fill: #262626"/>
    </g>
    <g clip-path="url(#pfc457703f1)">
     <use xlink:href="#C0_0_aee5a99983" x="186.453972" y="200.810525" style="fill: #262626"/>
    </g>
    <g clip-path="url(#pfc457703f1)">
     <use xlink:href="#C0_0_aee5a99983" x="184.101347" y="151.54785" style="fill: #262626"/>
    </g>
    <g clip-path="url(#pfc457703f1)">
     <use xlink:href="#C0_0_aee5a99983" x="187.815862" y="179.14175" style="fill: #262626"/>
    </g>
    <g clip-path="url(#pfc457703f1)">
     <use xlink:href="#C0_0_aee5a99983" x="197.310628" y="219.069382" style="fill: #262626"/>
    </g>
    <g clip-path="url(#pfc457703f1)">
     <use xlink:href="#C0_0_aee5a99983" x="162.752996" y="154.828798" style="fill: #262626"/>
    </g>
    <g clip-path="url(#pfc457703f1)">
     <use xlink:href="#C0_0_aee5a99983" x="174.501578" y="114.915683" style="fill: #262626"/>
    </g>
    <g clip-path="url(#pfc457703f1)">
     <use xlink:href="#C0_0_aee5a99983" x="169.716419" y="170.171286" style="fill: #262626"/>
    </g>
    <g clip-path="url(#pfc457703f1)">
     <use xlink:href="#C0_0_aee5a99983" x="166.721924" y="113.302032" style="fill: #262626"/>
    </g>
    <g clip-path="url(#pfc457703f1)">
     <use xlink:href="#C0_0_aee5a99983" x="186.865486" y="185.724996" style="fill: #262626"/>
    </g>
    <g clip-path="url(#pfc457703f1)">
     <use xlink:href="#C0_0_aee5a99983" x="182.24637" y="197.346643" style="fill: #262626"/>
    </g>
    <g clip-path="url(#pfc457703f1)">
     <use xlink:href="#C0_0_aee5a99983" x="176.289727" y="144.343392" style="fill: #262626"/>
    </g>
    <g clip-path="url(#pfc457703f1)">
     <use xlink:href="#C0_0_aee5a99983" x="185.47264" y="119.76859" style="fill: #262626"/>
    </g>
    <g clip-path="url(#pfc457703f1)">
     <use xlink:href="#C0_0_aee5a99983" x="182.370578" y="197.775506" style="fill: #262626"/>
    </g>
    <g clip-path="url(#pfc457703f1)">
     <use xlink:href="#C0_0_aee5a99983" x="164.292769" y="203.023564" style="fill: #262626"/>
    </g>
    <g clip-path="url(#pfc457703f1)">
     <use xlink:href="#C0_0_aee5a99983" x="182.388891" y="175.741021" style="fill: #262626"/>
    </g>
   </g>
   <g id="PathCollection_4">
    <defs>
     <path id="C1_0_aeb0c72adb" d="M 0 1 
C 0.265203 1 0.51958 0.894634 0.707107 0.707107 
C 0.894634 0.51958 1 0.265203 1 -0 
C 1 -0.265203 0.894634 -0.51958 0.707107 -0.707107 
C 0.51958 -0.894634 0.265203 -1 0 -1 
C -0.265203 -1 -0.51958 -0.894634 -0.707107 -0.707107 
C -0.894634 -0.51958 -1 -0.265203 -1 0 
C -1 0.265203 -0.894634 0.51958 -0.707107 0.707107 
C -0.51958 0.894634 -0.265203 1 0 1 
z
"/>
    </defs>
    <g clip-path="url(#pfc457703f1)">
     <use xlink:href="#C1_0_aeb0c72adb" x="331.07493" y="169.011833"/>
    </g>
    <g clip-path="url(#pfc457703f1)">
     <use xlink:href="#C1_0_aeb0c72adb" x="343.374342" y="185.286166"/>
    </g>
    <g clip-path="url(#pfc457703f1)">
     <use xlink:href="#C1_0_aeb0c72adb" x="324.335872" y="185.852558"/>
    </g>
    <g clip-path="url(#pfc457703f1)">
     <use xlink:href="#C1_0_aeb0c72adb" x="328.858435" y="174.295817"/>
    </g>
    <g clip-path="url(#pfc457703f1)">
     <use xlink:href="#C1_0_aeb0c72adb" x="341.628428" y="147.854713"/>
    </g>
    <g clip-path="url(#pfc457703f1)">
     <use xlink:href="#C1_0_aeb0c72adb" x="348.18422" y="149.512242"/>
    </g>
    <g clip-path="url(#pfc457703f1)">
     <use xlink:href="#C1_0_aeb0c72adb" x="352.123727" y="93.876094"/>
    </g>
    <g clip-path="url(#pfc457703f1)">
     <use xlink:href="#C1_0_aeb0c72adb" x="339.485588" y="142.705565"/>
    </g>
    <g clip-path="url(#pfc457703f1)">
     <use xlink:href="#C1_0_aeb0c72adb" x="349.701835" y="139.668171"/>
    </g>
    <g clip-path="url(#pfc457703f1)">
     <use xlink:href="#C1_0_aeb0c72adb" x="344.487226" y="152.894477"/>
    </g>
    <g clip-path="url(#pfc457703f1)">
     <use xlink:href="#C1_0_aeb0c72adb" x="326.131852" y="138.082788"/>
    </g>
    <g clip-path="url(#pfc457703f1)">
     <use xlink:href="#C1_0_aeb0c72adb" x="344.82133" y="119.291472"/>
    </g>
    <g clip-path="url(#pfc457703f1)">
     <use xlink:href="#C1_0_aeb0c72adb" x="335.35795" y="104.839886"/>
    </g>
    <g clip-path="url(#pfc457703f1)">
     <use xlink:href="#C1_0_aeb0c72adb" x="349.820168" y="57.765394"/>
    </g>
    <g clip-path="url(#pfc457703f1)">
     <use xlink:href="#C1_0_aeb0c72adb" x="349.618631" y="185.625873"/>
    </g>
    <g clip-path="url(#pfc457703f1)">
     <use xlink:href="#C1_0_aeb0c72adb" x="337.42989" y="158.088764"/>
    </g>
    <g clip-path="url(#pfc457703f1)">
     <use xlink:href="#C1_0_aeb0c72adb" x="317.600197" y="102.115904"/>
    </g>
    <g clip-path="url(#pfc457703f1)">
     <use xlink:href="#C1_0_aeb0c72adb" x="340.821153" y="149.646523"/>
    </g>
    <g clip-path="url(#pfc457703f1)">
     <use xlink:href="#C1_0_aeb0c72adb" x="336.528097" y="177.648968"/>
    </g>
    <g clip-path="url(#pfc457703f1)">
     <use xlink:href="#C1_0_aeb0c72adb" x="345.985418" y="82.865883"/>
    </g>
    <g clip-path="url(#pfc457703f1)">
     <use xlink:href="#C1_0_aeb0c72adb" x="330.393888" y="177.274552"/>
    </g>
    <g clip-path="url(#pfc457703f1)">
     <use xlink:href="#C1_0_aeb0c72adb" x="347.219037" y="94.778584"/>
    </g>
    <g clip-path="url(#pfc457703f1)">
     <use xlink:href="#C1_0_aeb0c72adb" x="315.956134" y="20.498245"/>
    </g>
    <g clip-path="url(#pfc457703f1)">
     <use xlink:href="#C1_0_aeb0c72adb" x="329.711582" y="132.237035"/>
    </g>
    <g clip-path="url(#pfc457703f1)">
     <use xlink:href="#C1_0_aeb0c72adb" x="319.062655" y="124.167876"/>
    </g>
    <g clip-path="url(#pfc457703f1)">
     <use xlink:href="#C1_0_aeb0c72adb" x="344.84329" y="194.838747"/>
    </g>
    <g clip-path="url(#pfc457703f1)">
     <use xlink:href="#C1_0_aeb0c72adb" x="339.722895" y="154.240392"/>
    </g>
    <g clip-path="url(#pfc457703f1)">
     <use xlink:href="#C1_0_aeb0c72adb" x="332.149185" y="93.138404"/>
    </g>
    <g clip-path="url(#pfc457703f1)">
     <use xlink:href="#C1_0_aeb0c72adb" x="346.232164" y="84.485615"/>
    </g>
    <g clip-path="url(#pfc457703f1)">
     <use xlink:href="#C1_0_aeb0c72adb" x="326.80514" y="128.72902"/>
    </g>
    <g clip-path="url(#pfc457703f1)">
     <use xlink:href="#C1_0_aeb0c72adb" x="335.240525" y="133.286689"/>
    </g>
    <g clip-path="url(#pfc457703f1)">
     <use xlink:href="#C1_0_aeb0c72adb" x="319.326093" y="114.134293"/>
    </g>
    <g clip-path="url(#pfc457703f1)">
     <use xlink:href="#C1_0_aeb0c72adb" x="321.788458" y="123.750727"/>
    </g>
    <g clip-path="url(#pfc457703f1)">
     <use xlink:href="#C1_0_aeb0c72adb" x="323.286252" y="204.373726"/>
    </g>
    <g clip-path="url(#pfc457703f1)">
     <use xlink:href="#C1_0_aeb0c72adb" x="351.967558" y="138.091911"/>
    </g>
    <g clip-path="url(#pfc457703f1)">
     <use xlink:href="#C1_0_aeb0c72adb" x="331.445644" y="162.540169"/>
    </g>
    <g clip-path="url(#pfc457703f1)">
     <use xlink:href="#C1_0_aeb0c72adb" x="332.284521" y="153.513083"/>
    </g>
    <g clip-path="url(#pfc457703f1)">
     <use xlink:href="#C1_0_aeb0c72adb" x="342.055781" y="148.912325"/>
    </g>
    <g clip-path="url(#pfc457703f1)">
     <use xlink:href="#C1_0_aeb0c72adb" x="323.172734" y="166.605371"/>
    </g>
    <g clip-path="url(#pfc457703f1)">
     <use xlink:href="#C1_0_aeb0c72adb" x="352.500795" y="132.447456"/>
    </g>
    <g clip-path="url(#pfc457703f1)">
     <use xlink:href="#C1_0_aeb0c72adb" x="323.872202" y="178.253076"/>
    </g>
    <g clip-path="url(#pfc457703f1)">
     <use xlink:href="#C1_0_aeb0c72adb" x="351.649507" y="142.720234"/>
    </g>
    <g clip-path="url(#pfc457703f1)">
     <use xlink:href="#C1_0_aeb0c72adb" x="324.565626" y="146.979843"/>
    </g>
    <g clip-path="url(#pfc457703f1)">
     <use xlink:href="#C1_0_aeb0c72adb" x="344.308622" y="159.437976"/>
    </g>
    <g clip-path="url(#pfc457703f1)">
     <use xlink:href="#C1_0_aeb0c72adb" x="316.512866" y="124.181339"/>
    </g>
    <g clip-path="url(#pfc457703f1)">
     <use xlink:href="#C1_0_aeb0c72adb" x="350.548196" y="174.54554"/>
    </g>
    <g clip-path="url(#pfc457703f1)">
     <use xlink:href="#C1_0_aeb0c72adb" x="323.060814" y="155.578334"/>
    </g>
    <g clip-path="url(#pfc457703f1)">
     <use xlink:href="#C1_0_aeb0c72adb" x="328.742925" y="91.364743"/>
    </g>
    <g clip-path="url(#pfc457703f1)">
     <use xlink:href="#C1_0_aeb0c72adb" x="338.883656" y="145.37751"/>
    </g>
    <g clip-path="url(#pfc457703f1)">
     <use xlink:href="#C1_0_aeb0c72adb" x="335.849217" y="110.878084"/>
    </g>
    <g clip-path="url(#pfc457703f1)">
     <use xlink:href="#C1_0_aeb0c72adb" x="323.539113" y="144.858214"/>
    </g>
    <g clip-path="url(#pfc457703f1)">
     <use xlink:href="#C1_0_aeb0c72adb" x="340.397062" y="92.781454"/>
    </g>
    <g clip-path="url(#pfc457703f1)">
     <use xlink:href="#C1_0_aeb0c72adb" x="338.937031" y="138.026908"/>
    </g>
    <g clip-path="url(#pfc457703f1)">
     <use xlink:href="#C1_0_aeb0c72adb" x="352.991424" y="112.861217"/>
    </g>
    <g clip-path="url(#pfc457703f1)">
     <use xlink:href="#C1_0_aeb0c72adb" x="337.41779" y="144.23332"/>
    </g>
    <g clip-path="url(#pfc457703f1)">
     <use xlink:href="#C1_0_aeb0c72adb" x="330.513776" y="141.592998"/>
    </g>
    <g clip-path="url(#pfc457703f1)">
     <use xlink:href="#C1_0_aeb0c72adb" x="338.614134" y="98.564112"/>
    </g>
    <g clip-path="url(#pfc457703f1)">
     <use xlink:href="#C1_0_aeb0c72adb" x="320.865712" y="98.769442"/>
    </g>
    <g clip-path="url(#pfc457703f1)">
     <use xlink:href="#C1_0_aeb0c72adb" x="351.032872" y="116.578587"/>
    </g>
    <g clip-path="url(#pfc457703f1)">
     <use xlink:href="#C1_0_aeb0c72adb" x="352.142781" y="166.526505"/>
    </g>
    <g clip-path="url(#pfc457703f1)">
     <use xlink:href="#C1_0_aeb0c72adb" x="350.485236" y="165.078684"/>
    </g>
    <g clip-path="url(#pfc457703f1)">
     <use xlink:href="#C1_0_aeb0c72adb" x="323.430175" y="115.262027"/>
    </g>
    <g clip-path="url(#pfc457703f1)">
     <use xlink:href="#C1_0_aeb0c72adb" x="322.652382" y="95.485157"/>
    </g>
    <g clip-path="url(#pfc457703f1)">
     <use xlink:href="#C1_0_aeb0c72adb" x="326.759697" y="104.625715"/>
    </g>
    <g clip-path="url(#pfc457703f1)">
     <use xlink:href="#C1_0_aeb0c72adb" x="337.078049" y="209.375099"/>
    </g>
    <g clip-path="url(#pfc457703f1)">
     <use xlink:href="#C1_0_aeb0c72adb" x="333.244607" y="146.803184"/>
    </g>
   </g>
   <g id="text_11">
    <!-- 81 -->
    <g style="fill: #262626" transform="translate(200.0425 161.841766)scale(0.1 -0.1)">
     <defs>
      <path id="DejaVuSans-38" d="M 2034 2216 
Q 1584 2216 1326 1975 
Q 1069 1734 1069 1313 
Q 1069 891 1326 650 
Q 1584 409 2034 409 
Q 2484 409 2743 651 
Q 3003 894 3003 1313 
Q 3003 1734 2745 1975 
Q 2488 2216 2034 2216 
z
M 1403 2484 
Q 997 2584 770 2862 
Q 544 3141 544 3541 
Q 544 4100 942 4425 
Q 1341 4750 2034 4750 
Q 2731 4750 3128 4425 
Q 3525 4100 3525 3541 
Q 3525 3141 3298 2862 
Q 3072 2584 2669 2484 
Q 3125 2378 3379 2068 
Q 3634 1759 3634 1313 
Q 3634 634 3220 271 
Q 2806 -91 2034 -91 
Q 1263 -91 848 271 
Q 434 634 434 1313 
Q 434 1759 690 2068 
Q 947 2378 1403 2484 
z
M 1172 3481 
Q 1172 3119 1398 2916 
Q 1625 2713 2034 2713 
Q 2441 2713 2670 2916 
Q 2900 3119 2900 3481 
Q 2900 3844 2670 4047 
Q 2441 4250 2034 4250 
Q 1625 4250 1398 4047 
Q 1172 3844 1172 3481 
z
" transform="scale(0.015625)"/>
      <path id="DejaVuSans-31" d="M 794 531 
L 1825 531 
L 1825 4091 
L 703 3866 
L 703 4441 
L 1819 4666 
L 2450 4666 
L 2450 531 
L 3481 531 
L 3481 0 
L 794 0 
L 794 531 
z
" transform="scale(0.015625)"/>
     </defs>
     <use xlink:href="#DejaVuSans-38"/>
     <use xlink:href="#DejaVuSans-31" x="63.623047"/>
    </g>
   </g>
   <g id="text_12">
    <!-- p=nan -->
    <g style="fill: #262626" transform="translate(186.63 16.56)scale(0.08 -0.08)">
     <defs>
      <path id="DejaVuSans-3d" d="M 678 2906 
L 4684 2906 
L 4684 2381 
L 678 2381 
L 678 2906 
z
M 678 1631 
L 4684 1631 
L 4684 1100 
L 678 1100 
L 678 1631 
z
" transform="scale(0.015625)"/>
     </defs>
     <use xlink:href="#DejaVuSans-70"/>
     <use xlink:href="#DejaVuSans-3d" x="63.476562"/>
     <use xlink:href="#DejaVuSans-6e" x="147.265625"/>
     <use xlink:href="#DejaVuSans-61" x="210.644531"/>
     <use xlink:href="#DejaVuSans-6e" x="271.923828"/>
    </g>
   </g>
   <g id="text_13">
    <!-- 66 -->
    <g style="fill: #262626" transform="translate(315.4075 161.841766)scale(0.1 -0.1)">
     <defs>
      <path id="DejaVuSans-36" d="M 2113 2584 
Q 1688 2584 1439 2293 
Q 1191 2003 1191 1497 
Q 1191 994 1439 701 
Q 1688 409 2113 409 
Q 2538 409 2786 701 
Q 3034 994 3034 1497 
Q 3034 2003 2786 2293 
Q 2538 2584 2113 2584 
z
M 3366 4563 
L 3366 3988 
Q 3128 4100 2886 4159 
Q 2644 4219 2406 4219 
Q 1781 4219 1451 3797 
Q 1122 3375 1075 2522 
Q 1259 2794 1537 2939 
Q 1816 3084 2150 3084 
Q 2853 3084 3261 2657 
Q 3669 2231 3669 1497 
Q 3669 778 3244 343 
Q 2819 -91 2113 -91 
Q 1303 -91 875 529 
Q 447 1150 447 2328 
Q 447 3434 972 4092 
Q 1497 4750 2381 4750 
Q 2619 4750 2861 4703 
Q 3103 4656 3366 4563 
z
" transform="scale(0.015625)"/>
     </defs>
     <use xlink:href="#DejaVuSans-36"/>
     <use xlink:href="#DejaVuSans-36" x="63.623047"/>
    </g>
   </g>
   <g id="text_14">
    <!-- p=nan -->
    <g style="fill: #262626" transform="translate(301.995 20.497505)scale(0.08 -0.08)">
     <use xlink:href="#DejaVuSans-70"/>
     <use xlink:href="#DejaVuSans-3d" x="63.476562"/>
     <use xlink:href="#DejaVuSans-6e" x="147.265625"/>
     <use xlink:href="#DejaVuSans-61" x="210.644531"/>
     <use xlink:href="#DejaVuSans-6e" x="271.923828"/>
    </g>
   </g>
   <g id="legend_1">
    <g id="patch_11">
     <path d="M 387.048437 33.159177 
L 407.048437 33.159177 
L 407.048437 26.159177 
L 387.048437 26.159177 
z
" style="fill: #ecf2ec; stroke: #262626; stroke-width: 0.75; stroke-linejoin: miter"/>
    </g>
    <g id="text_15">
     <!-- void -->
     <g style="fill: #262626" transform="translate(415.048437 33.159177)scale(0.1 -0.1)">
      <defs>
       <path id="DejaVuSans-76" d="M 191 3500 
L 800 3500 
L 1894 563 
L 2988 3500 
L 3597 3500 
L 2284 0 
L 1503 0 
L 191 3500 
z
" transform="scale(0.015625)"/>
       <path id="DejaVuSans-69" d="M 603 3500 
L 1178 3500 
L 1178 0 
L 603 0 
L 603 3500 
z
M 603 4863 
L 1178 4863 
L 1178 4134 
L 603 4134 
L 603 4863 
z
" transform="scale(0.015625)"/>
       <path id="DejaVuSans-64" d="M 2906 2969 
L 2906 4863 
L 3481 4863 
L 3481 0 
L 2906 0 
L 2906 525 
Q 2725 213 2448 61 
Q 2172 -91 1784 -91 
Q 1150 -91 751 415 
Q 353 922 353 1747 
Q 353 2572 751 3078 
Q 1150 3584 1784 3584 
Q 2172 3584 2448 3432 
Q 2725 3281 2906 2969 
z
M 947 1747 
Q 947 1113 1208 752 
Q 1469 391 1925 391 
Q 2381 391 2643 752 
Q 2906 1113 2906 1747 
Q 2906 2381 2643 2742 
Q 2381 3103 1925 3103 
Q 1469 3103 1208 2742 
Q 947 2381 947 1747 
z
" transform="scale(0.015625)"/>
      </defs>
      <use xlink:href="#DejaVuSans-76"/>
      <use xlink:href="#DejaVuSans-6f" x="59.179688"/>
      <use xlink:href="#DejaVuSans-69" x="120.361328"/>
      <use xlink:href="#DejaVuSans-64" x="148.144531"/>
     </g>
    </g>
    <g id="patch_12">
     <path d="M 387.048437 47.837302 
L 407.048437 47.837302 
L 407.048437 40.837302 
L 387.048437 40.837302 
z
" style="fill: #107010; stroke: #262626; stroke-width: 0.75; stroke-linejoin: miter"/>
    </g>
    <g id="text_16">
     <!-- clash -->
     <g style="fill: #262626" transform="translate(415.048437 47.837302)scale(0.1 -0.1)">
      <defs>
       <path id="DejaVuSans-68" d="M 3513 2113 
L 3513 0 
L 2938 0 
L 2938 2094 
Q 2938 2591 2744 2837 
Q 2550 3084 2163 3084 
Q 1697 3084 1428 2787 
Q 1159 2491 1159 1978 
L 1159 0 
L 581 0 
L 581 4863 
L 1159 4863 
L 1159 2956 
Q 1366 3272 1645 3428 
Q 1925 3584 2291 3584 
Q 2894 3584 3203 3211 
Q 3513 2838 3513 2113 
z
" transform="scale(0.015625)"/>
      </defs>
      <use xlink:href="#DejaVuSans-63"/>
      <use xlink:href="#DejaVuSans-6c" x="54.980469"/>
      <use xlink:href="#DejaVuSans-61" x="82.763672"/>
      <use xlink:href="#DejaVuSans-73" x="144.042969"/>
      <use xlink:href="#DejaVuSans-68" x="196.142578"/>
     </g>
    </g>
   </g>
  </g>
 </g>
 <defs>
  <clipPath id="pfc457703f1">
   <rect x="65.45" y="16.560739" width="384.55" height="287.079261"/>
  </clipPath>
 </defs>
</svg>
