<?xml version="1.0" encoding="utf-8" standalone="no"?>
<!DOCTYPE svg PUBLIC "-//W3C//DTD SVG 1.1//EN"
  "http://www.w3.org/Graphics/SVG/1.1/DTD/svg11.dtd">
<svg xmlns:xlink="http://www.w3.org/1999/xlink" width="460.8pt" height="345.6pt" viewBox="0 0 460.8 345.6" xmlns="http://www.w3.org/2000/svg" version="1.1">
 <metadata>
  <rdf:RDF xmlns:dc="http://purl.org/dc/elements/1.1/" xmlns:cc="http://creativecommons.org/ns#" xmlns:rdf="http://www.w3.org/1999/02/22-rdf-syntax-ns#">
   <cc:Work>
    <dc:type rdf:resource="http://purl.org/dc/dcmitype/StillImage"/>
    <dc:date>2024-02-20T13:06:53.039016</dc:date>
    <dc:format>image/svg+xml</dc:format>
    <dc:creator>
     <cc:Agent>
      <dc:title>Matplotlib v3.7.1, https://matplotlib.org/</dc:title>
     </cc:Agent>
    </dc:creator>
   </cc:Work>
  </rdf:RDF>
 </metadata>
 <defs>
  <style type="text/css">*{stroke-linejoin: round; stroke-linecap: butt}</style>
 </defs>
 <g id="figure_1">
  <g id="patch_1">
   <path d="M 0 345.6 
L 460.8 345.6 
L 460.8 0 
L 0 0 
z
" style="fill: #ffffff"/>
  </g>
  <g id="axes_1">
   <g id="patch_2">
    <path d="M 47.72 303.64 
L 450 303.64 
L 450 55.88967 
L 47.72 55.88967 
z
" style="fill: #ffffff"/>
   </g>
   <g id="matplotlib.axis_1">
    <g id="xtick_1">
     <g id="text_1">
      <!-- G -->
      <g style="fill: #262626" transform="translate(244.985781 318.238437) scale(0.1 -0.1)">
       <defs>
        <path id="DejaVuSans-47" d="M 3809 666 
L 3809 1919 
L 2778 1919 
L 2778 2438 
L 4434 2438 
L 4434 434 
Q 4069 175 3628 42 
Q 3188 -91 2688 -91 
Q 1594 -91 976 548 
Q 359 1188 359 2328 
Q 359 3472 976 4111 
Q 1594 4750 2688 4750 
Q 3144 4750 3555 4637 
Q 3966 4525 4313 4306 
L 4313 3634 
Q 3963 3931 3569 4081 
Q 3175 4231 2741 4231 
Q 1884 4231 1454 3753 
Q 1025 3275 1025 2328 
Q 1025 1384 1454 906 
Q 1884 428 2741 428 
Q 3075 428 3337 486 
Q 3600 544 3809 666 
z
" transform="scale(0.015625)"/>
       </defs>
       <use xlink:href="#DejaVuSans-47"/>
      </g>
     </g>
    </g>
    <g id="text_2">
     <!-- WT_AA -->
     <g style="fill: #262626" transform="translate(231.384219 331.638437) scale(0.1 -0.1)">
      <defs>
       <path id="DejaVuSans-57" d="M 213 4666 
L 850 4666 
L 1831 722 
L 2809 4666 
L 3519 4666 
L 4500 722 
L 5478 4666 
L 6119 4666 
L 4947 0 
L 4153 0 
L 3169 4050 
L 2175 0 
L 1381 0 
L 213 4666 
z
" transform="scale(0.015625)"/>
       <path id="DejaVuSans-54" d="M -19 4666 
L 3928 4666 
L 3928 4134 
L 2272 4134 
L 2272 0 
L 1638 0 
L 1638 4134 
L -19 4134 
L -19 4666 
z
" transform="scale(0.015625)"/>
       <path id="DejaVuSans-5f" d="M 3263 -1063 
L 3263 -1509 
L -63 -1509 
L -63 -1063 
L 3263 -1063 
z
" transform="scale(0.015625)"/>
       <path id="DejaVuSans-41" d="M 2188 4044 
L 1331 1722 
L 3047 1722 
L 2188 4044 
z
M 1831 4666 
L 2547 4666 
L 4325 0 
L 3669 0 
L 3244 1197 
L 1141 1197 
L 716 0 
L 50 0 
L 1831 4666 
z
" transform="scale(0.015625)"/>
      </defs>
      <use xlink:href="#DejaVuSans-57"/>
      <use xlink:href="#DejaVuSans-54" x="98.876953"/>
      <use xlink:href="#DejaVuSans-5f" x="159.960938"/>
      <use xlink:href="#DejaVuSans-41" x="209.960938"/>
      <use xlink:href="#DejaVuSans-41" x="281.119141"/>
     </g>
    </g>
   </g>
   <g id="matplotlib.axis_2">
    <g id="ytick_1">
     <g id="line2d_1">
      <path d="M 47.72 303.64 
L 450 303.64 
" clip-path="url(#peb9bb89d54)" style="fill: none; stroke: #cccccc; stroke-width: 0.8; stroke-linecap: round"/>
     </g>
     <g id="text_3">
      <!-- 0.0 -->
      <g style="fill: #262626" transform="translate(24.816875 307.439219) scale(0.1 -0.1)">
       <defs>
        <path id="DejaVuSans-30" d="M 2034 4250 
Q 1547 4250 1301 3770 
Q 1056 3291 1056 2328 
Q 1056 1369 1301 889 
Q 1547 409 2034 409 
Q 2525 409 2770 889 
Q 3016 1369 3016 2328 
Q 3016 3291 2770 3770 
Q 2525 4250 2034 4250 
z
M 2034 4750 
Q 2819 4750 3233 4129 
Q 3647 3509 3647 2328 
Q 3647 1150 3233 529 
Q 2819 -91 2034 -91 
Q 1250 -91 836 529 
Q 422 1150 422 2328 
Q 422 3509 836 4129 
Q 1250 4750 2034 4750 
z
" transform="scale(0.015625)"/>
        <path id="DejaVuSans-2e" d="M 684 794 
L 1344 794 
L 1344 0 
L 684 0 
L 684 794 
z
" transform="scale(0.015625)"/>
       </defs>
       <use xlink:href="#DejaVuSans-30"/>
       <use xlink:href="#DejaVuSans-2e" x="63.623047"/>
       <use xlink:href="#DejaVuSans-30" x="95.410156"/>
      </g>
     </g>
    </g>
    <g id="ytick_2">
     <g id="line2d_2">
      <path d="M 47.72 269.768807 
L 450 269.768807 
" clip-path="url(#peb9bb89d54)" style="fill: none; stroke: #cccccc; stroke-width: 0.8; stroke-linecap: round"/>
     </g>
     <g id="text_4">
      <!-- 0.2 -->
      <g style="fill: #262626" transform="translate(24.816875 273.568026) scale(0.1 -0.1)">
       <defs>
        <path id="DejaVuSans-32" d="M 1228 531 
L 3431 531 
L 3431 0 
L 469 0 
L 469 531 
Q 828 903 1448 1529 
Q 2069 2156 2228 2338 
Q 2531 2678 2651 2914 
Q 2772 3150 2772 3378 
Q 2772 3750 2511 3984 
Q 2250 4219 1831 4219 
Q 1534 4219 1204 4116 
Q 875 4013 500 3803 
L 500 4441 
Q 881 4594 1212 4672 
Q 1544 4750 1819 4750 
Q 2544 4750 2975 4387 
Q 3406 4025 3406 3419 
Q 3406 3131 3298 2873 
Q 3191 2616 2906 2266 
Q 2828 2175 2409 1742 
Q 1991 1309 1228 531 
z
" transform="scale(0.015625)"/>
       </defs>
       <use xlink:href="#DejaVuSans-30"/>
       <use xlink:href="#DejaVuSans-2e" x="63.623047"/>
       <use xlink:href="#DejaVuSans-32" x="95.410156"/>
      </g>
     </g>
    </g>
    <g id="ytick_3">
     <g id="line2d_3">
      <path d="M 47.72 235.897615 
L 450 235.897615 
" clip-path="url(#peb9bb89d54)" style="fill: none; stroke: #cccccc; stroke-width: 0.8; stroke-linecap: round"/>
     </g>
     <g id="text_5">
      <!-- 0.4 -->
      <g style="fill: #262626" transform="translate(24.816875 239.696833) scale(0.1 -0.1)">
       <defs>
        <path id="DejaVuSans-34" d="M 2419 4116 
L 825 1625 
L 2419 1625 
L 2419 4116 
z
M 2253 4666 
L 3047 4666 
L 3047 1625 
L 3713 1625 
L 3713 1100 
L 3047 1100 
L 3047 0 
L 2419 0 
L 2419 1100 
L 313 1100 
L 313 1709 
L 2253 4666 
z
" transform="scale(0.015625)"/>
       </defs>
       <use xlink:href="#DejaVuSans-30"/>
       <use xlink:href="#DejaVuSans-2e" x="63.623047"/>
       <use xlink:href="#DejaVuSans-34" x="95.410156"/>
      </g>
     </g>
    </g>
    <g id="ytick_4">
     <g id="line2d_4">
      <path d="M 47.72 202.026422 
L 450 202.026422 
" clip-path="url(#peb9bb89d54)" style="fill: none; stroke: #cccccc; stroke-width: 0.8; stroke-linecap: round"/>
     </g>
     <g id="text_6">
      <!-- 0.6 -->
      <g style="fill: #262626" transform="translate(24.816875 205.825641) scale(0.1 -0.1)">
       <defs>
        <path id="DejaVuSans-36" d="M 2113 2584 
Q 1688 2584 1439 2293 
Q 1191 2003 1191 1497 
Q 1191 994 1439 701 
Q 1688 409 2113 409 
Q 2538 409 2786 701 
Q 3034 994 3034 1497 
Q 3034 2003 2786 2293 
Q 2538 2584 2113 2584 
z
M 3366 4563 
L 3366 3988 
Q 3128 4100 2886 4159 
Q 2644 4219 2406 4219 
Q 1781 4219 1451 3797 
Q 1122 3375 1075 2522 
Q 1259 2794 1537 2939 
Q 1816 3084 2150 3084 
Q 2853 3084 3261 2657 
Q 3669 2231 3669 1497 
Q 3669 778 3244 343 
Q 2819 -91 2113 -91 
Q 1303 -91 875 529 
Q 447 1150 447 2328 
Q 447 3434 972 4092 
Q 1497 4750 2381 4750 
Q 2619 4750 2861 4703 
Q 3103 4656 3366 4563 
z
" transform="scale(0.015625)"/>
       </defs>
       <use xlink:href="#DejaVuSans-30"/>
       <use xlink:href="#DejaVuSans-2e" x="63.623047"/>
       <use xlink:href="#DejaVuSans-36" x="95.410156"/>
      </g>
     </g>
    </g>
    <g id="ytick_5">
     <g id="line2d_5">
      <path d="M 47.72 168.155229 
L 450 168.155229 
" clip-path="url(#peb9bb89d54)" style="fill: none; stroke: #cccccc; stroke-width: 0.8; stroke-linecap: round"/>
     </g>
     <g id="text_7">
      <!-- 0.8 -->
      <g style="fill: #262626" transform="translate(24.816875 171.954448) scale(0.1 -0.1)">
       <defs>
        <path id="DejaVuSans-38" d="M 2034 2216 
Q 1584 2216 1326 1975 
Q 1069 1734 1069 1313 
Q 1069 891 1326 650 
Q 1584 409 2034 409 
Q 2484 409 2743 651 
Q 3003 894 3003 1313 
Q 3003 1734 2745 1975 
Q 2488 2216 2034 2216 
z
M 1403 2484 
Q 997 2584 770 2862 
Q 544 3141 544 3541 
Q 544 4100 942 4425 
Q 1341 4750 2034 4750 
Q 2731 4750 3128 4425 
Q 3525 4100 3525 3541 
Q 3525 3141 3298 2862 
Q 3072 2584 2669 2484 
Q 3125 2378 3379 2068 
Q 3634 1759 3634 1313 
Q 3634 634 3220 271 
Q 2806 -91 2034 -91 
Q 1263 -91 848 271 
Q 434 634 434 1313 
Q 434 1759 690 2068 
Q 947 2378 1403 2484 
z
M 1172 3481 
Q 1172 3119 1398 2916 
Q 1625 2713 2034 2713 
Q 2441 2713 2670 2916 
Q 2900 3119 2900 3481 
Q 2900 3844 2670 4047 
Q 2441 4250 2034 4250 
Q 1625 4250 1398 4047 
Q 1172 3844 1172 3481 
z
" transform="scale(0.015625)"/>
       </defs>
       <use xlink:href="#DejaVuSans-30"/>
       <use xlink:href="#DejaVuSans-2e" x="63.623047"/>
       <use xlink:href="#DejaVuSans-38" x="95.410156"/>
      </g>
     </g>
    </g>
    <g id="ytick_6">
     <g id="line2d_6">
      <path d="M 47.72 134.284036 
L 450 134.284036 
" clip-path="url(#peb9bb89d54)" style="fill: none; stroke: #cccccc; stroke-width: 0.8; stroke-linecap: round"/>
     </g>
     <g id="text_8">
      <!-- 1.0 -->
      <g style="fill: #262626" transform="translate(24.816875 138.083255) scale(0.1 -0.1)">
       <defs>
        <path id="DejaVuSans-31" d="M 794 531 
L 1825 531 
L 1825 4091 
L 703 3866 
L 703 4441 
L 1819 4666 
L 2450 4666 
L 2450 531 
L 3481 531 
L 3481 0 
L 794 0 
L 794 531 
z
" transform="scale(0.015625)"/>
       </defs>
       <use xlink:href="#DejaVuSans-31"/>
       <use xlink:href="#DejaVuSans-2e" x="63.623047"/>
       <use xlink:href="#DejaVuSans-30" x="95.410156"/>
      </g>
     </g>
    </g>
    <g id="ytick_7">
     <g id="line2d_7">
      <path d="M 47.72 100.412844 
L 450 100.412844 
" clip-path="url(#peb9bb89d54)" style="fill: none; stroke: #cccccc; stroke-width: 0.8; stroke-linecap: round"/>
     </g>
     <g id="text_9">
      <!-- 1.2 -->
      <g style="fill: #262626" transform="translate(24.816875 104.212062) scale(0.1 -0.1)">
       <use xlink:href="#DejaVuSans-31"/>
       <use xlink:href="#DejaVuSans-2e" x="63.623047"/>
       <use xlink:href="#DejaVuSans-32" x="95.410156"/>
      </g>
     </g>
    </g>
    <g id="ytick_8">
     <g id="line2d_8">
      <path d="M 47.72 66.541651 
L 450 66.541651 
" clip-path="url(#peb9bb89d54)" style="fill: none; stroke: #cccccc; stroke-width: 0.8; stroke-linecap: round"/>
     </g>
     <g id="text_10">
      <!-- 1.4 -->
      <g style="fill: #262626" transform="translate(24.816875 70.34087) scale(0.1 -0.1)">
       <use xlink:href="#DejaVuSans-31"/>
       <use xlink:href="#DejaVuSans-2e" x="63.623047"/>
       <use xlink:href="#DejaVuSans-34" x="95.410156"/>
      </g>
     </g>
    </g>
    <g id="text_11">
     <!-- PercentGpA -->
     <g style="fill: #262626" transform="translate(18.737188 209.041398) rotate(-90) scale(0.1 -0.1)">
      <defs>
       <path id="DejaVuSans-50" d="M 1259 4147 
L 1259 2394 
L 2053 2394 
Q 2494 2394 2734 2622 
Q 2975 2850 2975 3272 
Q 2975 3691 2734 3919 
Q 2494 4147 2053 4147 
L 1259 4147 
z
M 628 4666 
L 2053 4666 
Q 2838 4666 3239 4311 
Q 3641 3956 3641 3272 
Q 3641 2581 3239 2228 
Q 2838 1875 2053 1875 
L 1259 1875 
L 1259 0 
L 628 0 
L 628 4666 
z
" transform="scale(0.015625)"/>
       <path id="DejaVuSans-65" d="M 3597 1894 
L 3597 1613 
L 953 1613 
Q 991 1019 1311 708 
Q 1631 397 2203 397 
Q 2534 397 2845 478 
Q 3156 559 3463 722 
L 3463 178 
Q 3153 47 2828 -22 
Q 2503 -91 2169 -91 
Q 1331 -91 842 396 
Q 353 884 353 1716 
Q 353 2575 817 3079 
Q 1281 3584 2069 3584 
Q 2775 3584 3186 3129 
Q 3597 2675 3597 1894 
z
M 3022 2063 
Q 3016 2534 2758 2815 
Q 2500 3097 2075 3097 
Q 1594 3097 1305 2825 
Q 1016 2553 972 2059 
L 3022 2063 
z
" transform="scale(0.015625)"/>
       <path id="DejaVuSans-72" d="M 2631 2963 
Q 2534 3019 2420 3045 
Q 2306 3072 2169 3072 
Q 1681 3072 1420 2755 
Q 1159 2438 1159 1844 
L 1159 0 
L 581 0 
L 581 3500 
L 1159 3500 
L 1159 2956 
Q 1341 3275 1631 3429 
Q 1922 3584 2338 3584 
Q 2397 3584 2469 3576 
Q 2541 3569 2628 3553 
L 2631 2963 
z
" transform="scale(0.015625)"/>
       <path id="DejaVuSans-63" d="M 3122 3366 
L 3122 2828 
Q 2878 2963 2633 3030 
Q 2388 3097 2138 3097 
Q 1578 3097 1268 2742 
Q 959 2388 959 1747 
Q 959 1106 1268 751 
Q 1578 397 2138 397 
Q 2388 397 2633 464 
Q 2878 531 3122 666 
L 3122 134 
Q 2881 22 2623 -34 
Q 2366 -91 2075 -91 
Q 1284 -91 818 406 
Q 353 903 353 1747 
Q 353 2603 823 3093 
Q 1294 3584 2113 3584 
Q 2378 3584 2631 3529 
Q 2884 3475 3122 3366 
z
" transform="scale(0.015625)"/>
       <path id="DejaVuSans-6e" d="M 3513 2113 
L 3513 0 
L 2938 0 
L 2938 2094 
Q 2938 2591 2744 2837 
Q 2550 3084 2163 3084 
Q 1697 3084 1428 2787 
Q 1159 2491 1159 1978 
L 1159 0 
L 581 0 
L 581 3500 
L 1159 3500 
L 1159 2956 
Q 1366 3272 1645 3428 
Q 1925 3584 2291 3584 
Q 2894 3584 3203 3211 
Q 3513 2838 3513 2113 
z
" transform="scale(0.015625)"/>
       <path id="DejaVuSans-74" d="M 1172 4494 
L 1172 3500 
L 2356 3500 
L 2356 3053 
L 1172 3053 
L 1172 1153 
Q 1172 725 1289 603 
Q 1406 481 1766 481 
L 2356 481 
L 2356 0 
L 1766 0 
Q 1100 0 847 248 
Q 594 497 594 1153 
L 594 3053 
L 172 3053 
L 172 3500 
L 594 3500 
L 594 4494 
L 1172 4494 
z
" transform="scale(0.015625)"/>
       <path id="DejaVuSans-70" d="M 1159 525 
L 1159 -1331 
L 581 -1331 
L 581 3500 
L 1159 3500 
L 1159 2969 
Q 1341 3281 1617 3432 
Q 1894 3584 2278 3584 
Q 2916 3584 3314 3078 
Q 3713 2572 3713 1747 
Q 3713 922 3314 415 
Q 2916 -91 2278 -91 
Q 1894 -91 1617 61 
Q 1341 213 1159 525 
z
M 3116 1747 
Q 3116 2381 2855 2742 
Q 2594 3103 2138 3103 
Q 1681 3103 1420 2742 
Q 1159 2381 1159 1747 
Q 1159 1113 1420 752 
Q 1681 391 2138 391 
Q 2594 391 2855 752 
Q 3116 1113 3116 1747 
z
" transform="scale(0.015625)"/>
      </defs>
      <use xlink:href="#DejaVuSans-50"/>
      <use xlink:href="#DejaVuSans-65" x="56.677734"/>
      <use xlink:href="#DejaVuSans-72" x="118.201172"/>
      <use xlink:href="#DejaVuSans-63" x="157.064453"/>
      <use xlink:href="#DejaVuSans-65" x="212.044922"/>
      <use xlink:href="#DejaVuSans-6e" x="273.568359"/>
      <use xlink:href="#DejaVuSans-74" x="336.947266"/>
      <use xlink:href="#DejaVuSans-47" x="376.15625"/>
      <use xlink:href="#DejaVuSans-70" x="453.646484"/>
      <use xlink:href="#DejaVuSans-41" x="517.123047"/>
     </g>
    </g>
   </g>
   <g id="patch_3">
    <path d="M 89.55712 269.573066 
L 247.25088 269.573066 
L 247.25088 256.044007 
L 89.55712 256.044007 
L 89.55712 269.573066 
z
" clip-path="url(#peb9bb89d54)" style="fill: #ecf2ec; stroke: #262626; stroke-width: 1.5; stroke-linejoin: miter"/>
   </g>
   <g id="patch_4">
    <path d="M 250.46912 250.953984 
L 408.16288 250.953984 
L 408.16288 129.742615 
L 250.46912 129.742615 
L 250.46912 250.953984 
z
" clip-path="url(#peb9bb89d54)" style="fill: #107010; stroke: #262626; stroke-width: 1.5; stroke-linejoin: miter"/>
   </g>
   <g id="patch_5">
    <path d="M 248.86 303.64 
L 248.86 303.64 
L 248.86 303.64 
L 248.86 303.64 
z
" clip-path="url(#peb9bb89d54)" style="fill: #ecf2ec; stroke: #262626; stroke-width: 0.75; stroke-linejoin: miter"/>
   </g>
   <g id="patch_6">
    <path d="M 248.86 303.64 
L 248.86 303.64 
L 248.86 303.64 
L 248.86 303.64 
z
" clip-path="url(#peb9bb89d54)" style="fill: #107010; stroke: #262626; stroke-width: 0.75; stroke-linejoin: miter"/>
   </g>
   <g id="PathCollection_1"/>
   <g id="PathCollection_2"/>
   <g id="line2d_9">
    <path d="M 168.404 269.573066 
L 168.404 282.127061 
" clip-path="url(#peb9bb89d54)" style="fill: none; stroke: #262626; stroke-width: 1.5; stroke-linecap: round"/>
   </g>
   <g id="line2d_10">
    <path d="M 168.404 256.044007 
L 168.404 238.481224 
" clip-path="url(#peb9bb89d54)" style="fill: none; stroke: #262626; stroke-width: 1.5; stroke-linecap: round"/>
   </g>
   <g id="line2d_11">
    <path d="M 128.98056 282.127061 
L 207.82744 282.127061 
" clip-path="url(#peb9bb89d54)" style="fill: none; stroke: #262626; stroke-width: 1.5; stroke-linecap: round"/>
   </g>
   <g id="line2d_12">
    <path d="M 128.98056 238.481224 
L 207.82744 238.481224 
" clip-path="url(#peb9bb89d54)" style="fill: none; stroke: #262626; stroke-width: 1.5; stroke-linecap: round"/>
   </g>
   <g id="line2d_13">
    <defs>
     <path id="m569a22db57" d="M -0 1.414214 
L 0.848528 0 
L 0 -1.414214 
L -0.848528 -0 
z
" style="stroke: #262626; stroke-linejoin: miter"/>
    </defs>
    <g clip-path="url(#peb9bb89d54)">
     <use xlink:href="#m569a22db57" x="168.404" y="224.531567" style="fill: #262626; stroke: #262626; stroke-linejoin: miter"/>
     <use xlink:href="#m569a22db57" x="168.404" y="227.29531" style="fill: #262626; stroke: #262626; stroke-linejoin: miter"/>
     <use xlink:href="#m569a22db57" x="168.404" y="231.262395" style="fill: #262626; stroke: #262626; stroke-linejoin: miter"/>
     <use xlink:href="#m569a22db57" x="168.404" y="193.034914" style="fill: #262626; stroke: #262626; stroke-linejoin: miter"/>
     <use xlink:href="#m569a22db57" x="168.404" y="162.673752" style="fill: #262626; stroke: #262626; stroke-linejoin: miter"/>
    </g>
   </g>
   <g id="line2d_14">
    <path d="M 329.316 250.953984 
L 329.316 277.888145 
" clip-path="url(#peb9bb89d54)" style="fill: none; stroke: #262626; stroke-width: 1.5; stroke-linecap: round"/>
   </g>
   <g id="line2d_15">
    <path d="M 329.316 129.742615 
L 329.316 78.412428 
" clip-path="url(#peb9bb89d54)" style="fill: none; stroke: #262626; stroke-width: 1.5; stroke-linecap: round"/>
   </g>
   <g id="line2d_16">
    <path d="M 289.89256 277.888145 
L 368.73944 277.888145 
" clip-path="url(#peb9bb89d54)" style="fill: none; stroke: #262626; stroke-width: 1.5; stroke-linecap: round"/>
   </g>
   <g id="line2d_17">
    <path d="M 289.89256 78.412428 
L 368.73944 78.412428 
" clip-path="url(#peb9bb89d54)" style="fill: none; stroke: #262626; stroke-width: 1.5; stroke-linecap: round"/>
   </g>
   <g id="line2d_18"/>
   <g id="line2d_19">
    <path d="M 89.55712 263.343115 
L 247.25088 263.343115 
" clip-path="url(#peb9bb89d54)" style="fill: none; stroke: #262626; stroke-width: 1.5; stroke-linecap: round"/>
   </g>
   <g id="line2d_20">
    <path d="M 250.46912 162.557913 
L 408.16288 162.557913 
" clip-path="url(#peb9bb89d54)" style="fill: none; stroke: #262626; stroke-width: 1.5; stroke-linecap: round"/>
   </g>
   <g id="patch_7">
    <path d="M 47.72 303.64 
L 47.72 55.88967 
" style="fill: none; stroke: #cccccc; stroke-width: 0.8; stroke-linejoin: miter; stroke-linecap: square"/>
   </g>
   <g id="patch_8">
    <path d="M 450 303.64 
L 450 55.88967 
" style="fill: none; stroke: #cccccc; stroke-width: 0.8; stroke-linejoin: miter; stroke-linecap: square"/>
   </g>
   <g id="patch_9">
    <path d="M 47.72 303.64 
L 450 303.64 
" style="fill: none; stroke: #cccccc; stroke-width: 0.8; stroke-linejoin: miter; stroke-linecap: square"/>
   </g>
   <g id="patch_10">
    <path d="M 47.72 55.88967 
L 450 55.88967 
" style="fill: none; stroke: #cccccc; stroke-width: 0.8; stroke-linejoin: miter; stroke-linecap: square"/>
   </g>
   <g id="PathCollection_3">
    <defs>
     <path id="C0_0_aa46ae4119" d="M 0 1 
C 0.265203 1 0.51958 0.894634 0.707107 0.707107 
C 0.894634 0.51958 1 0.265203 1 -0 
C 1 -0.265203 0.894634 -0.51958 0.707107 -0.707107 
C 0.51958 -0.894634 0.265203 -1 0 -1 
C -0.265203 -1 -0.51958 -0.894634 -0.707107 -0.707107 
C -0.894634 -0.51958 -1 -0.265203 -1 0 
C -1 0.265203 -0.894634 0.51958 -0.707107 0.707107 
C -0.51958 0.894634 -0.265203 1 0 1 
z
"/>
    </defs>
    <g clip-path="url(#peb9bb89d54)">
     <use xlink:href="#C0_0_aa46ae4119" x="177.065569" y="274.272332" style="fill: #262626"/>
    </g>
    <g clip-path="url(#peb9bb89d54)">
     <use xlink:href="#C0_0_aa46ae4119" x="182.384957" y="277.243516" style="fill: #262626"/>
    </g>
    <g clip-path="url(#peb9bb89d54)">
     <use xlink:href="#C0_0_aa46ae4119" x="187.624909" y="258.435861" style="fill: #262626"/>
    </g>
    <g clip-path="url(#peb9bb89d54)">
     <use xlink:href="#C0_0_aa46ae4119" x="149.177592" y="277.392364" style="fill: #262626"/>
    </g>
    <g clip-path="url(#peb9bb89d54)">
     <use xlink:href="#C0_0_aa46ae4119" x="185.711054" y="263.343115" style="fill: #262626"/>
    </g>
    <g clip-path="url(#peb9bb89d54)">
     <use xlink:href="#C0_0_aa46ae4119" x="165.238307" y="274.663284" style="fill: #262626"/>
    </g>
    <g clip-path="url(#peb9bb89d54)">
     <use xlink:href="#C0_0_aa46ae4119" x="185.239839" y="281.239261" style="fill: #262626"/>
    </g>
    <g clip-path="url(#peb9bb89d54)">
     <use xlink:href="#C0_0_aa46ae4119" x="164.053188" y="264.786472" style="fill: #262626"/>
    </g>
    <g clip-path="url(#peb9bb89d54)">
     <use xlink:href="#C0_0_aa46ae4119" x="161.654505" y="256.699032" style="fill: #262626"/>
    </g>
    <g clip-path="url(#peb9bb89d54)">
     <use xlink:href="#C0_0_aa46ae4119" x="172.972635" y="224.531567" style="fill: #262626"/>
    </g>
    <g clip-path="url(#peb9bb89d54)">
     <use xlink:href="#C0_0_aa46ae4119" x="177.492228" y="240.844304" style="fill: #262626"/>
    </g>
    <g clip-path="url(#peb9bb89d54)">
     <use xlink:href="#C0_0_aa46ae4119" x="160.263895" y="244.673704" style="fill: #262626"/>
    </g>
    <g clip-path="url(#peb9bb89d54)">
     <use xlink:href="#C0_0_aa46ae4119" x="152.029555" y="227.29531" style="fill: #262626"/>
    </g>
    <g clip-path="url(#peb9bb89d54)">
     <use xlink:href="#C0_0_aa46ae4119" x="185.060575" y="250.813433" style="fill: #262626"/>
    </g>
    <g clip-path="url(#peb9bb89d54)">
     <use xlink:href="#C0_0_aa46ae4119" x="160.167447" y="257.498286" style="fill: #262626"/>
    </g>
    <g clip-path="url(#peb9bb89d54)">
     <use xlink:href="#C0_0_aa46ae4119" x="157.943479" y="266.701705" style="fill: #262626"/>
    </g>
    <g clip-path="url(#peb9bb89d54)">
     <use xlink:href="#C0_0_aa46ae4119" x="187.530596" y="272.27112" style="fill: #262626"/>
    </g>
    <g clip-path="url(#peb9bb89d54)">
     <use xlink:href="#C0_0_aa46ae4119" x="172.235866" y="258.797937" style="fill: #262626"/>
    </g>
    <g clip-path="url(#peb9bb89d54)">
     <use xlink:href="#C0_0_aa46ae4119" x="187.920216" y="263.888272" style="fill: #262626"/>
    </g>
    <g clip-path="url(#peb9bb89d54)">
     <use xlink:href="#C0_0_aa46ae4119" x="182.433" y="260.183608" style="fill: #262626"/>
    </g>
    <g clip-path="url(#peb9bb89d54)">
     <use xlink:href="#C0_0_aa46ae4119" x="169.707442" y="269.257784" style="fill: #262626"/>
    </g>
    <g clip-path="url(#peb9bb89d54)">
     <use xlink:href="#C0_0_aa46ae4119" x="188.297371" y="231.262395" style="fill: #262626"/>
    </g>
    <g clip-path="url(#peb9bb89d54)">
     <use xlink:href="#C0_0_aa46ae4119" x="178.041843" y="261.593919" style="fill: #262626"/>
    </g>
    <g clip-path="url(#peb9bb89d54)">
     <use xlink:href="#C0_0_aa46ae4119" x="154.759536" y="263.703078" style="fill: #262626"/>
    </g>
    <g clip-path="url(#peb9bb89d54)">
     <use xlink:href="#C0_0_aa46ae4119" x="182.866879" y="258.099111" style="fill: #262626"/>
    </g>
    <g clip-path="url(#peb9bb89d54)">
     <use xlink:href="#C0_0_aa46ae4119" x="157.376961" y="282.127061" style="fill: #262626"/>
    </g>
    <g clip-path="url(#peb9bb89d54)">
     <use xlink:href="#C0_0_aa46ae4119" x="185.436758" y="249.424994" style="fill: #262626"/>
    </g>
    <g clip-path="url(#peb9bb89d54)">
     <use xlink:href="#C0_0_aa46ae4119" x="154.529944" y="256.044007" style="fill: #262626"/>
    </g>
    <g clip-path="url(#peb9bb89d54)">
     <use xlink:href="#C0_0_aa46ae4119" x="156.872919" y="259.652601" style="fill: #262626"/>
    </g>
    <g clip-path="url(#peb9bb89d54)">
     <use xlink:href="#C0_0_aa46ae4119" x="161.412521" y="265.389192" style="fill: #262626"/>
    </g>
    <g clip-path="url(#peb9bb89d54)">
     <use xlink:href="#C0_0_aa46ae4119" x="173.59194" y="258.672927" style="fill: #262626"/>
    </g>
    <g clip-path="url(#peb9bb89d54)">
     <use xlink:href="#C0_0_aa46ae4119" x="173.333431" y="268.570294" style="fill: #262626"/>
    </g>
    <g clip-path="url(#peb9bb89d54)">
     <use xlink:href="#C0_0_aa46ae4119" x="174.684157" y="268.830027" style="fill: #262626"/>
    </g>
    <g clip-path="url(#peb9bb89d54)">
     <use xlink:href="#C0_0_aa46ae4119" x="149.695283" y="256.201384" style="fill: #262626"/>
    </g>
    <g clip-path="url(#peb9bb89d54)">
     <use xlink:href="#C0_0_aa46ae4119" x="152.532913" y="193.034914" style="fill: #262626"/>
    </g>
    <g clip-path="url(#peb9bb89d54)">
     <use xlink:href="#C0_0_aa46ae4119" x="154.64424" y="270.308299" style="fill: #262626"/>
    </g>
    <g clip-path="url(#peb9bb89d54)">
     <use xlink:href="#C0_0_aa46ae4119" x="159.86211" y="261.578878" style="fill: #262626"/>
    </g>
    <g clip-path="url(#peb9bb89d54)">
     <use xlink:href="#C0_0_aa46ae4119" x="182.300609" y="269.540883" style="fill: #262626"/>
    </g>
    <g clip-path="url(#peb9bb89d54)">
     <use xlink:href="#C0_0_aa46ae4119" x="168.535605" y="279.282332" style="fill: #262626"/>
    </g>
    <g clip-path="url(#peb9bb89d54)">
     <use xlink:href="#C0_0_aa46ae4119" x="160.561547" y="254.728954" style="fill: #262626"/>
    </g>
    <g clip-path="url(#peb9bb89d54)">
     <use xlink:href="#C0_0_aa46ae4119" x="171.562653" y="273.559127" style="fill: #262626"/>
    </g>
    <g clip-path="url(#peb9bb89d54)">
     <use xlink:href="#C0_0_aa46ae4119" x="151.047436" y="242.261374" style="fill: #262626"/>
    </g>
    <g clip-path="url(#peb9bb89d54)">
     <use xlink:href="#C0_0_aa46ae4119" x="166.538814" y="267.856397" style="fill: #262626"/>
    </g>
    <g clip-path="url(#peb9bb89d54)">
     <use xlink:href="#C0_0_aa46ae4119" x="149.086748" y="270.513297" style="fill: #262626"/>
    </g>
    <g clip-path="url(#peb9bb89d54)">
     <use xlink:href="#C0_0_aa46ae4119" x="165.295931" y="260.326882" style="fill: #262626"/>
    </g>
    <g clip-path="url(#peb9bb89d54)">
     <use xlink:href="#C0_0_aa46ae4119" x="184.741811" y="249.161397" style="fill: #262626"/>
    </g>
    <g clip-path="url(#peb9bb89d54)">
     <use xlink:href="#C0_0_aa46ae4119" x="177.783593" y="253.488005" style="fill: #262626"/>
    </g>
    <g clip-path="url(#peb9bb89d54)">
     <use xlink:href="#C0_0_aa46ae4119" x="159.530752" y="255.28514" style="fill: #262626"/>
    </g>
    <g clip-path="url(#peb9bb89d54)">
     <use xlink:href="#C0_0_aa46ae4119" x="185.632446" y="254.996803" style="fill: #262626"/>
    </g>
    <g clip-path="url(#peb9bb89d54)">
     <use xlink:href="#C0_0_aa46ae4119" x="153.601744" y="272.565044" style="fill: #262626"/>
    </g>
    <g clip-path="url(#peb9bb89d54)">
     <use xlink:href="#C0_0_aa46ae4119" x="150.382961" y="264.962989" style="fill: #262626"/>
    </g>
    <g clip-path="url(#peb9bb89d54)">
     <use xlink:href="#C0_0_aa46ae4119" x="150.85041" y="273.835197" style="fill: #262626"/>
    </g>
    <g clip-path="url(#peb9bb89d54)">
     <use xlink:href="#C0_0_aa46ae4119" x="178.50525" y="260.165441" style="fill: #262626"/>
    </g>
    <g clip-path="url(#peb9bb89d54)">
     <use xlink:href="#C0_0_aa46ae4119" x="179.204131" y="263.380954" style="fill: #262626"/>
    </g>
    <g clip-path="url(#peb9bb89d54)">
     <use xlink:href="#C0_0_aa46ae4119" x="167.7167" y="266.1663" style="fill: #262626"/>
    </g>
    <g clip-path="url(#peb9bb89d54)">
     <use xlink:href="#C0_0_aa46ae4119" x="172.126853" y="273.124479" style="fill: #262626"/>
    </g>
    <g clip-path="url(#peb9bb89d54)">
     <use xlink:href="#C0_0_aa46ae4119" x="184.637046" y="262.139254" style="fill: #262626"/>
    </g>
    <g clip-path="url(#peb9bb89d54)">
     <use xlink:href="#C0_0_aa46ae4119" x="165.403237" y="260.152308" style="fill: #262626"/>
    </g>
    <g clip-path="url(#peb9bb89d54)">
     <use xlink:href="#C0_0_aa46ae4119" x="162.172444" y="258.572567" style="fill: #262626"/>
    </g>
    <g clip-path="url(#peb9bb89d54)">
     <use xlink:href="#C0_0_aa46ae4119" x="184.638715" y="251.35566" style="fill: #262626"/>
    </g>
    <g clip-path="url(#peb9bb89d54)">
     <use xlink:href="#C0_0_aa46ae4119" x="159.731961" y="277.603417" style="fill: #262626"/>
    </g>
    <g clip-path="url(#peb9bb89d54)">
     <use xlink:href="#C0_0_aa46ae4119" x="149.647139" y="270.312473" style="fill: #262626"/>
    </g>
    <g clip-path="url(#peb9bb89d54)">
     <use xlink:href="#C0_0_aa46ae4119" x="168.859986" y="249.802052" style="fill: #262626"/>
    </g>
    <g clip-path="url(#peb9bb89d54)">
     <use xlink:href="#C0_0_aa46ae4119" x="151.106007" y="278.545434" style="fill: #262626"/>
    </g>
    <g clip-path="url(#peb9bb89d54)">
     <use xlink:href="#C0_0_aa46ae4119" x="153.124774" y="162.673752" style="fill: #262626"/>
    </g>
    <g clip-path="url(#peb9bb89d54)">
     <use xlink:href="#C0_0_aa46ae4119" x="160.909521" y="264.181734" style="fill: #262626"/>
    </g>
    <g clip-path="url(#peb9bb89d54)">
     <use xlink:href="#C0_0_aa46ae4119" x="170.832903" y="264.961768" style="fill: #262626"/>
    </g>
    <g clip-path="url(#peb9bb89d54)">
     <use xlink:href="#C0_0_aa46ae4119" x="184.771006" y="265.478112" style="fill: #262626"/>
    </g>
    <g clip-path="url(#peb9bb89d54)">
     <use xlink:href="#C0_0_aa46ae4119" x="171.878247" y="260.312956" style="fill: #262626"/>
    </g>
    <g clip-path="url(#peb9bb89d54)">
     <use xlink:href="#C0_0_aa46ae4119" x="177.35826" y="238.481224" style="fill: #262626"/>
    </g>
    <g clip-path="url(#peb9bb89d54)">
     <use xlink:href="#C0_0_aa46ae4119" x="183.544989" y="244.127168" style="fill: #262626"/>
    </g>
    <g clip-path="url(#peb9bb89d54)">
     <use xlink:href="#C0_0_aa46ae4119" x="154.152236" y="269.573066" style="fill: #262626"/>
    </g>
    <g clip-path="url(#peb9bb89d54)">
     <use xlink:href="#C0_0_aa46ae4119" x="170.97259" y="269.032026" style="fill: #262626"/>
    </g>
    <g clip-path="url(#peb9bb89d54)">
     <use xlink:href="#C0_0_aa46ae4119" x="186.184508" y="263.009516" style="fill: #262626"/>
    </g>
    <g clip-path="url(#peb9bb89d54)">
     <use xlink:href="#C0_0_aa46ae4119" x="182.228331" y="264.576091" style="fill: #262626"/>
    </g>
    <g clip-path="url(#peb9bb89d54)">
     <use xlink:href="#C0_0_aa46ae4119" x="175.603742" y="272.46163" style="fill: #262626"/>
    </g>
    <g clip-path="url(#peb9bb89d54)">
     <use xlink:href="#C0_0_aa46ae4119" x="153.366632" y="270.810006" style="fill: #262626"/>
    </g>
    <g clip-path="url(#peb9bb89d54)">
     <use xlink:href="#C0_0_aa46ae4119" x="150.991752" y="264.811314" style="fill: #262626"/>
    </g>
    <g clip-path="url(#peb9bb89d54)">
     <use xlink:href="#C0_0_aa46ae4119" x="169.887136" y="243.995018" style="fill: #262626"/>
    </g>
    <g clip-path="url(#peb9bb89d54)">
     <use xlink:href="#C0_0_aa46ae4119" x="180.17515" y="276.745747" style="fill: #262626"/>
    </g>
    <g clip-path="url(#peb9bb89d54)">
     <use xlink:href="#C0_0_aa46ae4119" x="181.950068" y="262.471926" style="fill: #262626"/>
    </g>
   </g>
   <g id="PathCollection_4">
    <defs>
     <path id="C1_0_71e98ff77b" d="M 0 1 
C 0.265203 1 0.51958 0.894634 0.707107 0.707107 
C 0.894634 0.51958 1 0.265203 1 -0 
C 1 -0.265203 0.894634 -0.51958 0.707107 -0.707107 
C 0.51958 -0.894634 0.265203 -1 0 -1 
C -0.265203 -1 -0.51958 -0.894634 -0.707107 -0.707107 
C -0.894634 -0.51958 -1 -0.265203 -1 0 
C -1 0.265203 -0.894634 0.51958 -0.707107 0.707107 
C -0.51958 0.894634 -0.265203 1 0 1 
z
"/>
    </defs>
    <g clip-path="url(#peb9bb89d54)">
     <use xlink:href="#C1_0_71e98ff77b" x="345.832366" y="228.438657"/>
    </g>
    <g clip-path="url(#peb9bb89d54)">
     <use xlink:href="#C1_0_71e98ff77b" x="339.725132" y="274.551314"/>
    </g>
    <g clip-path="url(#peb9bb89d54)">
     <use xlink:href="#C1_0_71e98ff77b" x="343.604805" y="259.097145"/>
    </g>
    <g clip-path="url(#peb9bb89d54)">
     <use xlink:href="#C1_0_71e98ff77b" x="335.020519" y="266.268342"/>
    </g>
    <g clip-path="url(#peb9bb89d54)">
     <use xlink:href="#C1_0_71e98ff77b" x="337.472768" y="272.862344"/>
    </g>
    <g clip-path="url(#peb9bb89d54)">
     <use xlink:href="#C1_0_71e98ff77b" x="347.262109" y="251.281437"/>
    </g>
    <g clip-path="url(#peb9bb89d54)">
     <use xlink:href="#C1_0_71e98ff77b" x="331.482661" y="253.608497"/>
    </g>
    <g clip-path="url(#peb9bb89d54)">
     <use xlink:href="#C1_0_71e98ff77b" x="327.699101" y="207.994517"/>
    </g>
    <g clip-path="url(#peb9bb89d54)">
     <use xlink:href="#C1_0_71e98ff77b" x="335.171533" y="257.123976"/>
    </g>
    <g clip-path="url(#peb9bb89d54)">
     <use xlink:href="#C1_0_71e98ff77b" x="331.038263" y="262.140318"/>
    </g>
    <g clip-path="url(#peb9bb89d54)">
     <use xlink:href="#C1_0_71e98ff77b" x="330.021923" y="160.892734"/>
    </g>
    <g clip-path="url(#peb9bb89d54)">
     <use xlink:href="#C1_0_71e98ff77b" x="322.978957" y="254.066397"/>
    </g>
    <g clip-path="url(#peb9bb89d54)">
     <use xlink:href="#C1_0_71e98ff77b" x="322.423148" y="242.694478"/>
    </g>
    <g clip-path="url(#peb9bb89d54)">
     <use xlink:href="#C1_0_71e98ff77b" x="339.199246" y="218.497187"/>
    </g>
    <g clip-path="url(#peb9bb89d54)">
     <use xlink:href="#C1_0_71e98ff77b" x="316.352006" y="162.557913"/>
    </g>
    <g clip-path="url(#peb9bb89d54)">
     <use xlink:href="#C1_0_71e98ff77b" x="327.10649" y="277.888145"/>
    </g>
    <g clip-path="url(#peb9bb89d54)">
     <use xlink:href="#C1_0_71e98ff77b" x="309.882962" y="268.816938"/>
    </g>
    <g clip-path="url(#peb9bb89d54)">
     <use xlink:href="#C1_0_71e98ff77b" x="310.485108" y="245.409734"/>
    </g>
    <g clip-path="url(#peb9bb89d54)">
     <use xlink:href="#C1_0_71e98ff77b" x="338.425117" y="260.555489"/>
    </g>
    <g clip-path="url(#peb9bb89d54)">
     <use xlink:href="#C1_0_71e98ff77b" x="339.568233" y="201.235318"/>
    </g>
    <g clip-path="url(#peb9bb89d54)">
     <use xlink:href="#C1_0_71e98ff77b" x="314.701743" y="95.136364"/>
    </g>
    <g clip-path="url(#peb9bb89d54)">
     <use xlink:href="#C1_0_71e98ff77b" x="319.508991" y="128.176465"/>
    </g>
    <g clip-path="url(#peb9bb89d54)">
     <use xlink:href="#C1_0_71e98ff77b" x="316.534783" y="141.821087"/>
    </g>
    <g clip-path="url(#peb9bb89d54)">
     <use xlink:href="#C1_0_71e98ff77b" x="342.897837" y="119.005137"/>
    </g>
    <g clip-path="url(#peb9bb89d54)">
     <use xlink:href="#C1_0_71e98ff77b" x="323.347968" y="126.009933"/>
    </g>
    <g clip-path="url(#peb9bb89d54)">
     <use xlink:href="#C1_0_71e98ff77b" x="311.415595" y="170.178623"/>
    </g>
    <g clip-path="url(#peb9bb89d54)">
     <use xlink:href="#C1_0_71e98ff77b" x="320.705763" y="115.218911"/>
    </g>
    <g clip-path="url(#peb9bb89d54)">
     <use xlink:href="#C1_0_71e98ff77b" x="322.62231" y="95.716697"/>
    </g>
    <g clip-path="url(#peb9bb89d54)">
     <use xlink:href="#C1_0_71e98ff77b" x="313.54579" y="143.013069"/>
    </g>
    <g clip-path="url(#peb9bb89d54)">
     <use xlink:href="#C1_0_71e98ff77b" x="346.190821" y="78.412428"/>
    </g>
    <g clip-path="url(#peb9bb89d54)">
     <use xlink:href="#C1_0_71e98ff77b" x="337.503965" y="129.742615"/>
    </g>
    <g clip-path="url(#peb9bb89d54)">
     <use xlink:href="#C1_0_71e98ff77b" x="316.164781" y="133.361954"/>
    </g>
    <g clip-path="url(#peb9bb89d54)">
     <use xlink:href="#C1_0_71e98ff77b" x="316.509231" y="148.512339"/>
    </g>
    <g clip-path="url(#peb9bb89d54)">
     <use xlink:href="#C1_0_71e98ff77b" x="329.8099" y="95.144004"/>
    </g>
    <g clip-path="url(#peb9bb89d54)">
     <use xlink:href="#C1_0_71e98ff77b" x="320.289064" y="149.685314"/>
    </g>
    <g clip-path="url(#peb9bb89d54)">
     <use xlink:href="#C1_0_71e98ff77b" x="336.58586" y="142.158421"/>
    </g>
    <g clip-path="url(#peb9bb89d54)">
     <use xlink:href="#C1_0_71e98ff77b" x="348.905358" y="114.946017"/>
    </g>
    <g clip-path="url(#peb9bb89d54)">
     <use xlink:href="#C1_0_71e98ff77b" x="323.469513" y="263.879148"/>
    </g>
    <g clip-path="url(#peb9bb89d54)">
     <use xlink:href="#C1_0_71e98ff77b" x="316.086547" y="148.799675"/>
    </g>
    <g clip-path="url(#peb9bb89d54)">
     <use xlink:href="#C1_0_71e98ff77b" x="324.671711" y="250.953984"/>
    </g>
    <g clip-path="url(#peb9bb89d54)">
     <use xlink:href="#C1_0_71e98ff77b" x="343.017229" y="234.993497"/>
    </g>
    <g clip-path="url(#peb9bb89d54)">
     <use xlink:href="#C1_0_71e98ff77b" x="317.85362" y="181.959057"/>
    </g>
    <g clip-path="url(#peb9bb89d54)">
     <use xlink:href="#C1_0_71e98ff77b" x="320.827891" y="132.777594"/>
    </g>
    <g clip-path="url(#peb9bb89d54)">
     <use xlink:href="#C1_0_71e98ff77b" x="342.942075" y="249.372541"/>
    </g>
    <g clip-path="url(#peb9bb89d54)">
     <use xlink:href="#C1_0_71e98ff77b" x="335.565752" y="122.093141"/>
    </g>
    <g clip-path="url(#peb9bb89d54)">
     <use xlink:href="#C1_0_71e98ff77b" x="344.295649" y="113.166055"/>
    </g>
    <g clip-path="url(#peb9bb89d54)">
     <use xlink:href="#C1_0_71e98ff77b" x="313.830312" y="130.294951"/>
    </g>
    <g clip-path="url(#peb9bb89d54)">
     <use xlink:href="#C1_0_71e98ff77b" x="345.444415" y="150.794557"/>
    </g>
    <g clip-path="url(#peb9bb89d54)">
     <use xlink:href="#C1_0_71e98ff77b" x="309.441523" y="133.854576"/>
    </g>
    <g clip-path="url(#peb9bb89d54)">
     <use xlink:href="#C1_0_71e98ff77b" x="329.17168" y="110.061891"/>
    </g>
    <g clip-path="url(#peb9bb89d54)">
     <use xlink:href="#C1_0_71e98ff77b" x="346.349343" y="114.953153"/>
    </g>
    <g clip-path="url(#peb9bb89d54)">
     <use xlink:href="#C1_0_71e98ff77b" x="321.210383" y="172.056692"/>
    </g>
    <g clip-path="url(#peb9bb89d54)">
     <use xlink:href="#C1_0_71e98ff77b" x="319.751571" y="237.577318"/>
    </g>
   </g>
   <g id="text_12">
    <!-- 81 -->
    <g style="fill: #262626" transform="translate(188.518 24.20266) scale(0.1 -0.1)">
     <use xlink:href="#DejaVuSans-38"/>
     <use xlink:href="#DejaVuSans-31" x="63.623047"/>
    </g>
   </g>
   <g id="text_13">
    <!-- p=9.029526469512726e-19 -->
    <g style="fill: #262626" transform="translate(131.641125 154.205953) scale(0.08 -0.08)">
     <defs>
      <path id="DejaVuSans-3d" d="M 678 2906 
L 4684 2906 
L 4684 2381 
L 678 2381 
L 678 2906 
z
M 678 1631 
L 4684 1631 
L 4684 1100 
L 678 1100 
L 678 1631 
z
" transform="scale(0.015625)"/>
      <path id="DejaVuSans-39" d="M 703 97 
L 703 672 
Q 941 559 1184 500 
Q 1428 441 1663 441 
Q 2288 441 2617 861 
Q 2947 1281 2994 2138 
Q 2813 1869 2534 1725 
Q 2256 1581 1919 1581 
Q 1219 1581 811 2004 
Q 403 2428 403 3163 
Q 403 3881 828 4315 
Q 1253 4750 1959 4750 
Q 2769 4750 3195 4129 
Q 3622 3509 3622 2328 
Q 3622 1225 3098 567 
Q 2575 -91 1691 -91 
Q 1453 -91 1209 -44 
Q 966 3 703 97 
z
M 1959 2075 
Q 2384 2075 2632 2365 
Q 2881 2656 2881 3163 
Q 2881 3666 2632 3958 
Q 2384 4250 1959 4250 
Q 1534 4250 1286 3958 
Q 1038 3666 1038 3163 
Q 1038 2656 1286 2365 
Q 1534 2075 1959 2075 
z
" transform="scale(0.015625)"/>
      <path id="DejaVuSans-35" d="M 691 4666 
L 3169 4666 
L 3169 4134 
L 1269 4134 
L 1269 2991 
Q 1406 3038 1543 3061 
Q 1681 3084 1819 3084 
Q 2600 3084 3056 2656 
Q 3513 2228 3513 1497 
Q 3513 744 3044 326 
Q 2575 -91 1722 -91 
Q 1428 -91 1123 -41 
Q 819 9 494 109 
L 494 744 
Q 775 591 1075 516 
Q 1375 441 1709 441 
Q 2250 441 2565 725 
Q 2881 1009 2881 1497 
Q 2881 1984 2565 2268 
Q 2250 2553 1709 2553 
Q 1456 2553 1204 2497 
Q 953 2441 691 2322 
L 691 4666 
z
" transform="scale(0.015625)"/>
      <path id="DejaVuSans-37" d="M 525 4666 
L 3525 4666 
L 3525 4397 
L 1831 0 
L 1172 0 
L 2766 4134 
L 525 4134 
L 525 4666 
z
" transform="scale(0.015625)"/>
      <path id="DejaVuSans-2d" d="M 313 2009 
L 1997 2009 
L 1997 1497 
L 313 1497 
L 313 2009 
z
" transform="scale(0.015625)"/>
     </defs>
     <use xlink:href="#DejaVuSans-70"/>
     <use xlink:href="#DejaVuSans-3d" x="63.476562"/>
     <use xlink:href="#DejaVuSans-39" x="147.265625"/>
     <use xlink:href="#DejaVuSans-2e" x="210.888672"/>
     <use xlink:href="#DejaVuSans-30" x="242.675781"/>
     <use xlink:href="#DejaVuSans-32" x="306.298828"/>
     <use xlink:href="#DejaVuSans-39" x="369.921875"/>
     <use xlink:href="#DejaVuSans-35" x="433.544922"/>
     <use xlink:href="#DejaVuSans-32" x="497.167969"/>
     <use xlink:href="#DejaVuSans-36" x="560.791016"/>
     <use xlink:href="#DejaVuSans-34" x="624.414062"/>
     <use xlink:href="#DejaVuSans-36" x="688.037109"/>
     <use xlink:href="#DejaVuSans-39" x="751.660156"/>
     <use xlink:href="#DejaVuSans-35" x="815.283203"/>
     <use xlink:href="#DejaVuSans-31" x="878.90625"/>
     <use xlink:href="#DejaVuSans-32" x="942.529297"/>
     <use xlink:href="#DejaVuSans-37" x="1006.152344"/>
     <use xlink:href="#DejaVuSans-32" x="1069.775391"/>
     <use xlink:href="#DejaVuSans-36" x="1133.398438"/>
     <use xlink:href="#DejaVuSans-65" x="1197.021484"/>
     <use xlink:href="#DejaVuSans-2d" x="1258.544922"/>
     <use xlink:href="#DejaVuSans-31" x="1294.628906"/>
     <use xlink:href="#DejaVuSans-39" x="1358.251953"/>
    </g>
   </g>
   <g id="text_14">
    <!-- 53 -->
    <g style="fill: #262626" transform="translate(309.202 24.20266) scale(0.1 -0.1)">
     <defs>
      <path id="DejaVuSans-33" d="M 2597 2516 
Q 3050 2419 3304 2112 
Q 3559 1806 3559 1356 
Q 3559 666 3084 287 
Q 2609 -91 1734 -91 
Q 1441 -91 1130 -33 
Q 819 25 488 141 
L 488 750 
Q 750 597 1062 519 
Q 1375 441 1716 441 
Q 2309 441 2620 675 
Q 2931 909 2931 1356 
Q 2931 1769 2642 2001 
Q 2353 2234 1838 2234 
L 1294 2234 
L 1294 2753 
L 1863 2753 
Q 2328 2753 2575 2939 
Q 2822 3125 2822 3475 
Q 2822 3834 2567 4026 
Q 2313 4219 1838 4219 
Q 1578 4219 1281 4162 
Q 984 4106 628 3988 
L 628 4550 
Q 988 4650 1302 4700 
Q 1616 4750 1894 4750 
Q 2613 4750 3031 4423 
Q 3450 4097 3450 3541 
Q 3450 3153 3228 2886 
Q 3006 2619 2597 2516 
z
" transform="scale(0.015625)"/>
     </defs>
     <use xlink:href="#DejaVuSans-35"/>
     <use xlink:href="#DejaVuSans-33" x="63.623047"/>
    </g>
   </g>
   <g id="legend_1">
    <g id="patch_11">
     <path d="M 377.728125 72.488108 
L 397.728125 72.488108 
L 397.728125 65.488108 
L 377.728125 65.488108 
z
" style="fill: #ecf2ec; stroke: #262626; stroke-width: 0.75; stroke-linejoin: miter"/>
    </g>
    <g id="text_15">
     <!-- Mutant -->
     <g style="fill: #262626" transform="translate(405.728125 72.488108) scale(0.1 -0.1)">
      <defs>
       <path id="DejaVuSans-4d" d="M 628 4666 
L 1569 4666 
L 2759 1491 
L 3956 4666 
L 4897 4666 
L 4897 0 
L 4281 0 
L 4281 4097 
L 3078 897 
L 2444 897 
L 1241 4097 
L 1241 0 
L 628 0 
L 628 4666 
z
" transform="scale(0.015625)"/>
       <path id="DejaVuSans-75" d="M 544 1381 
L 544 3500 
L 1119 3500 
L 1119 1403 
Q 1119 906 1312 657 
Q 1506 409 1894 409 
Q 2359 409 2629 706 
Q 2900 1003 2900 1516 
L 2900 3500 
L 3475 3500 
L 3475 0 
L 2900 0 
L 2900 538 
Q 2691 219 2414 64 
Q 2138 -91 1772 -91 
Q 1169 -91 856 284 
Q 544 659 544 1381 
z
M 1991 3584 
L 1991 3584 
z
" transform="scale(0.015625)"/>
       <path id="DejaVuSans-61" d="M 2194 1759 
Q 1497 1759 1228 1600 
Q 959 1441 959 1056 
Q 959 750 1161 570 
Q 1363 391 1709 391 
Q 2188 391 2477 730 
Q 2766 1069 2766 1631 
L 2766 1759 
L 2194 1759 
z
M 3341 1997 
L 3341 0 
L 2766 0 
L 2766 531 
Q 2569 213 2275 61 
Q 1981 -91 1556 -91 
Q 1019 -91 701 211 
Q 384 513 384 1019 
Q 384 1609 779 1909 
Q 1175 2209 1959 2209 
L 2766 2209 
L 2766 2266 
Q 2766 2663 2505 2880 
Q 2244 3097 1772 3097 
Q 1472 3097 1187 3025 
Q 903 2953 641 2809 
L 641 3341 
Q 956 3463 1253 3523 
Q 1550 3584 1831 3584 
Q 2591 3584 2966 3190 
Q 3341 2797 3341 1997 
z
" transform="scale(0.015625)"/>
      </defs>
      <use xlink:href="#DejaVuSans-4d"/>
      <use xlink:href="#DejaVuSans-75" x="86.279297"/>
      <use xlink:href="#DejaVuSans-74" x="149.658203"/>
      <use xlink:href="#DejaVuSans-61" x="188.867188"/>
      <use xlink:href="#DejaVuSans-6e" x="250.146484"/>
      <use xlink:href="#DejaVuSans-74" x="313.525391"/>
     </g>
    </g>
    <g id="patch_12">
     <path d="M 377.728125 87.166233 
L 397.728125 87.166233 
L 397.728125 80.166233 
L 377.728125 80.166233 
z
" style="fill: #107010; stroke: #262626; stroke-width: 0.75; stroke-linejoin: miter"/>
    </g>
    <g id="text_16">
     <!-- WT -->
     <g style="fill: #262626" transform="translate(405.728125 87.166233) scale(0.1 -0.1)">
      <use xlink:href="#DejaVuSans-57"/>
      <use xlink:href="#DejaVuSans-54" x="98.876953"/>
     </g>
    </g>
   </g>
  </g>
 </g>
 <defs>
  <clipPath id="peb9bb89d54">
   <rect x="47.72" y="55.88967" width="402.28" height="247.75033"/>
  </clipPath>
 </defs>
</svg>
