<?xml version="1.0" encoding="utf-8" standalone="no"?>
<!DOCTYPE svg PUBLIC "-//W3C//DTD SVG 1.1//EN"
  "http://www.w3.org/Graphics/SVG/1.1/DTD/svg11.dtd">
<svg xmlns:xlink="http://www.w3.org/1999/xlink" width="460.8pt" height="345.6pt" viewBox="0 0 460.8 345.6" xmlns="http://www.w3.org/2000/svg" version="1.1">
 <metadata>
  <rdf:RDF xmlns:dc="http://purl.org/dc/elements/1.1/" xmlns:cc="http://creativecommons.org/ns#" xmlns:rdf="http://www.w3.org/1999/02/22-rdf-syntax-ns#">
   <cc:Work>
    <dc:type rdf:resource="http://purl.org/dc/dcmitype/StillImage"/>
    <dc:date>2024-02-03T13:11:07.155563</dc:date>
    <dc:format>image/svg+xml</dc:format>
    <dc:creator>
     <cc:Agent>
      <dc:title>Matplotlib v3.5.3, https://matplotlib.org/</dc:title>
     </cc:Agent>
    </dc:creator>
   </cc:Work>
  </rdf:RDF>
 </metadata>
 <defs>
  <style type="text/css">*{stroke-linejoin: round; stroke-linecap: butt}</style>
 </defs>
 <g id="figure_1">
  <g id="patch_1">
   <path d="M 0 345.6 
L 460.8 345.6 
L 460.8 0 
L 0 0 
z
" style="fill: #ffffff"/>
  </g>
  <g id="axes_1">
   <g id="patch_2">
    <path d="M 47.82125 303.64 
L 450 303.64 
L 450 46.675714 
L 47.82125 46.675714 
z
" style="fill: #ffffff"/>
   </g>
   <g id="PathCollection_1">
    <defs>
     <path id="m9a24aa850f" d="M 0 3 
C 0.795609 3 1.55874 2.683901 2.12132 2.12132 
C 2.683901 1.55874 3 0.795609 3 0 
C 3 -0.795609 2.683901 -1.55874 2.12132 -2.12132 
C 1.55874 -2.683901 0.795609 -3 0 -3 
C -0.795609 -3 -1.55874 -2.683901 -2.12132 -2.12132 
C -2.683901 -1.55874 -3 -0.795609 -3 0 
C -3 0.795609 -2.683901 1.55874 -2.12132 2.12132 
C -1.55874 2.683901 -0.795609 3 0 3 
z
" style="stroke: #1f77b4"/>
    </defs>
    <g clip-path="url(#p92ee95e2f2)">
     <use xlink:href="#m9a24aa850f" x="217.147222" y="263.002951" style="fill: #1f77b4; stroke: #1f77b4"/>
     <use xlink:href="#m9a24aa850f" x="66.695319" y="263.789331" style="fill: #1f77b4; stroke: #1f77b4"/>
     <use xlink:href="#m9a24aa850f" x="175.952416" y="240.752203" style="fill: #1f77b4; stroke: #1f77b4"/>
     <use xlink:href="#m9a24aa850f" x="122.067266" y="276.706168" style="fill: #1f77b4; stroke: #1f77b4"/>
     <use xlink:href="#m9a24aa850f" x="206.244039" y="255.728068" style="fill: #1f77b4; stroke: #1f77b4"/>
     <use xlink:href="#m9a24aa850f" x="103.189442" y="261.795605" style="fill: #1f77b4; stroke: #1f77b4"/>
     <use xlink:href="#m9a24aa850f" x="231.023999" y="266.089632" style="fill: #1f77b4; stroke: #1f77b4"/>
     <use xlink:href="#m9a24aa850f" x="140.772382" y="273.127053" style="fill: #1f77b4; stroke: #1f77b4"/>
     <use xlink:href="#m9a24aa850f" x="205.252841" y="268.320549" style="fill: #1f77b4; stroke: #1f77b4"/>
     <use xlink:href="#m9a24aa850f" x="238.157624" y="232.589768" style="fill: #1f77b4; stroke: #1f77b4"/>
     <use xlink:href="#m9a24aa850f" x="89.207538" y="281.000015" style="fill: #1f77b4; stroke: #1f77b4"/>
     <use xlink:href="#m9a24aa850f" x="207.392928" y="296.780026" style="fill: #1f77b4; stroke: #1f77b4"/>
     <use xlink:href="#m9a24aa850f" x="237.86477" y="263.323252" style="fill: #1f77b4; stroke: #1f77b4"/>
     <use xlink:href="#m9a24aa850f" x="98.849195" y="176.097551" style="fill: #1f77b4; stroke: #1f77b4"/>
     <use xlink:href="#m9a24aa850f" x="221.224652" y="275.557333" style="fill: #1f77b4; stroke: #1f77b4"/>
     <use xlink:href="#m9a24aa850f" x="165.304542" y="248.741647" style="fill: #1f77b4; stroke: #1f77b4"/>
     <use xlink:href="#m9a24aa850f" x="265.070163" y="272.174367" style="fill: #1f77b4; stroke: #1f77b4"/>
     <use xlink:href="#m9a24aa850f" x="66.102102" y="269.68033" style="fill: #1f77b4; stroke: #1f77b4"/>
     <use xlink:href="#m9a24aa850f" x="191.571299" y="290.424227" style="fill: #1f77b4; stroke: #1f77b4"/>
     <use xlink:href="#m9a24aa850f" x="200.274322" y="274.531124" style="fill: #1f77b4; stroke: #1f77b4"/>
     <use xlink:href="#m9a24aa850f" x="213.482791" y="258.037781" style="fill: #1f77b4; stroke: #1f77b4"/>
     <use xlink:href="#m9a24aa850f" x="88.201321" y="251.318522" style="fill: #1f77b4; stroke: #1f77b4"/>
     <use xlink:href="#m9a24aa850f" x="301.376558" y="254.214833" style="fill: #1f77b4; stroke: #1f77b4"/>
     <use xlink:href="#m9a24aa850f" x="269.132574" y="268.949447" style="fill: #1f77b4; stroke: #1f77b4"/>
     <use xlink:href="#m9a24aa850f" x="150.248839" y="296.128337" style="fill: #1f77b4; stroke: #1f77b4"/>
     <use xlink:href="#m9a24aa850f" x="229.709911" y="268.272592" style="fill: #1f77b4; stroke: #1f77b4"/>
     <use xlink:href="#m9a24aa850f" x="193.658823" y="283.901096" style="fill: #1f77b4; stroke: #1f77b4"/>
     <use xlink:href="#m9a24aa850f" x="177.62694" y="262.306094" style="fill: #1f77b4; stroke: #1f77b4"/>
     <use xlink:href="#m9a24aa850f" x="178.152576" y="275.945075" style="fill: #1f77b4; stroke: #1f77b4"/>
     <use xlink:href="#m9a24aa850f" x="232.428197" y="242.928865" style="fill: #1f77b4; stroke: #1f77b4"/>
     <use xlink:href="#m9a24aa850f" x="141.095272" y="277.061265" style="fill: #1f77b4; stroke: #1f77b4"/>
     <use xlink:href="#m9a24aa850f" x="241.792018" y="268.916953" style="fill: #1f77b4; stroke: #1f77b4"/>
     <use xlink:href="#m9a24aa850f" x="268.419212" y="284.492727" style="fill: #1f77b4; stroke: #1f77b4"/>
     <use xlink:href="#m9a24aa850f" x="203.458171" y="280.746542" style="fill: #1f77b4; stroke: #1f77b4"/>
     <use xlink:href="#m9a24aa850f" x="171.694768" y="264.003059" style="fill: #1f77b4; stroke: #1f77b4"/>
     <use xlink:href="#m9a24aa850f" x="339.860587" y="277.131759" style="fill: #1f77b4; stroke: #1f77b4"/>
     <use xlink:href="#m9a24aa850f" x="216.75675" y="242.453633" style="fill: #1f77b4; stroke: #1f77b4"/>
     <use xlink:href="#m9a24aa850f" x="157.134664" y="287.647579" style="fill: #1f77b4; stroke: #1f77b4"/>
     <use xlink:href="#m9a24aa850f" x="149.760749" y="268.196649" style="fill: #1f77b4; stroke: #1f77b4"/>
     <use xlink:href="#m9a24aa850f" x="382.985226" y="285.248747" style="fill: #1f77b4; stroke: #1f77b4"/>
     <use xlink:href="#m9a24aa850f" x="264.124019" y="276.945349" style="fill: #1f77b4; stroke: #1f77b4"/>
     <use xlink:href="#m9a24aa850f" x="318.332058" y="253.446972" style="fill: #1f77b4; stroke: #1f77b4"/>
     <use xlink:href="#m9a24aa850f" x="127.646512" y="269.603205" style="fill: #1f77b4; stroke: #1f77b4"/>
     <use xlink:href="#m9a24aa850f" x="170.726097" y="259.193066" style="fill: #1f77b4; stroke: #1f77b4"/>
     <use xlink:href="#m9a24aa850f" x="215.540279" y="264.163045" style="fill: #1f77b4; stroke: #1f77b4"/>
     <use xlink:href="#m9a24aa850f" x="227.464696" y="252.320709" style="fill: #1f77b4; stroke: #1f77b4"/>
     <use xlink:href="#m9a24aa850f" x="169.502117" y="253.306513" style="fill: #1f77b4; stroke: #1f77b4"/>
     <use xlink:href="#m9a24aa850f" x="252.770291" y="275.956073" style="fill: #1f77b4; stroke: #1f77b4"/>
     <use xlink:href="#m9a24aa850f" x="104.323313" y="259.17946" style="fill: #1f77b4; stroke: #1f77b4"/>
     <use xlink:href="#m9a24aa850f" x="244.773123" y="255.634339" style="fill: #1f77b4; stroke: #1f77b4"/>
     <use xlink:href="#m9a24aa850f" x="137.723696" y="244.195153" style="fill: #1f77b4; stroke: #1f77b4"/>
     <use xlink:href="#m9a24aa850f" x="338.216099" y="292.404062" style="fill: #1f77b4; stroke: #1f77b4"/>
     <use xlink:href="#m9a24aa850f" x="229.319438" y="259.177827" style="fill: #1f77b4; stroke: #1f77b4"/>
     <use xlink:href="#m9a24aa850f" x="240.162548" y="291.628698" style="fill: #1f77b4; stroke: #1f77b4"/>
     <use xlink:href="#m9a24aa850f" x="142.717233" y="272.840825" style="fill: #1f77b4; stroke: #1f77b4"/>
     <use xlink:href="#m9a24aa850f" x="166.836394" y="240.025771" style="fill: #1f77b4; stroke: #1f77b4"/>
     <use xlink:href="#m9a24aa850f" x="230.723636" y="285.906991" style="fill: #1f77b4; stroke: #1f77b4"/>
     <use xlink:href="#m9a24aa850f" x="152.614199" y="268.960217" style="fill: #1f77b4; stroke: #1f77b4"/>
     <use xlink:href="#m9a24aa850f" x="159.252224" y="270.278496" style="fill: #1f77b4; stroke: #1f77b4"/>
     <use xlink:href="#m9a24aa850f" x="288.873942" y="257.71199" style="fill: #1f77b4; stroke: #1f77b4"/>
     <use xlink:href="#m9a24aa850f" x="431.719148" y="234.418633" style="fill: #1f77b4; stroke: #1f77b4"/>
     <use xlink:href="#m9a24aa850f" x="189.130849" y="277.404157" style="fill: #1f77b4; stroke: #1f77b4"/>
     <use xlink:href="#m9a24aa850f" x="189.746593" y="264.40353" style="fill: #1f77b4; stroke: #1f77b4"/>
    </g>
   </g>
   <g id="matplotlib.axis_1">
    <g id="xtick_1">
     <g id="line2d_1">
      <defs>
       <path id="me180173bec" d="M 0 0 
L 0 3.5 
" style="stroke: #000000; stroke-width: 0.8"/>
      </defs>
      <g>
       <use xlink:href="#me180173bec" x="80.286752" y="303.64" style="stroke: #000000; stroke-width: 0.8"/>
      </g>
     </g>
     <g id="text_1">
      <!-- −1000 -->
      <g transform="translate(63.371908 318.238437)scale(0.1 -0.1)">
       <defs>
        <path id="DejaVuSans-2212" d="M 678 2272 
L 4684 2272 
L 4684 1741 
L 678 1741 
L 678 2272 
z
" transform="scale(0.015625)"/>
        <path id="DejaVuSans-31" d="M 794 531 
L 1825 531 
L 1825 4091 
L 703 3866 
L 703 4441 
L 1819 4666 
L 2450 4666 
L 2450 531 
L 3481 531 
L 3481 0 
L 794 0 
L 794 531 
z
" transform="scale(0.015625)"/>
        <path id="DejaVuSans-30" d="M 2034 4250 
Q 1547 4250 1301 3770 
Q 1056 3291 1056 2328 
Q 1056 1369 1301 889 
Q 1547 409 2034 409 
Q 2525 409 2770 889 
Q 3016 1369 3016 2328 
Q 3016 3291 2770 3770 
Q 2525 4250 2034 4250 
z
M 2034 4750 
Q 2819 4750 3233 4129 
Q 3647 3509 3647 2328 
Q 3647 1150 3233 529 
Q 2819 -91 2034 -91 
Q 1250 -91 836 529 
Q 422 1150 422 2328 
Q 422 3509 836 4129 
Q 1250 4750 2034 4750 
z
" transform="scale(0.015625)"/>
       </defs>
       <use xlink:href="#DejaVuSans-2212"/>
       <use xlink:href="#DejaVuSans-31" x="83.789062"/>
       <use xlink:href="#DejaVuSans-30" x="147.412109"/>
       <use xlink:href="#DejaVuSans-30" x="211.035156"/>
       <use xlink:href="#DejaVuSans-30" x="274.658203"/>
      </g>
     </g>
    </g>
    <g id="xtick_2">
     <g id="line2d_2">
      <g>
       <use xlink:href="#me180173bec" x="155.37754" y="303.64" style="stroke: #000000; stroke-width: 0.8"/>
      </g>
     </g>
     <g id="text_2">
      <!-- −900 -->
      <g transform="translate(141.643946 318.238437)scale(0.1 -0.1)">
       <defs>
        <path id="DejaVuSans-39" d="M 703 97 
L 703 672 
Q 941 559 1184 500 
Q 1428 441 1663 441 
Q 2288 441 2617 861 
Q 2947 1281 2994 2138 
Q 2813 1869 2534 1725 
Q 2256 1581 1919 1581 
Q 1219 1581 811 2004 
Q 403 2428 403 3163 
Q 403 3881 828 4315 
Q 1253 4750 1959 4750 
Q 2769 4750 3195 4129 
Q 3622 3509 3622 2328 
Q 3622 1225 3098 567 
Q 2575 -91 1691 -91 
Q 1453 -91 1209 -44 
Q 966 3 703 97 
z
M 1959 2075 
Q 2384 2075 2632 2365 
Q 2881 2656 2881 3163 
Q 2881 3666 2632 3958 
Q 2384 4250 1959 4250 
Q 1534 4250 1286 3958 
Q 1038 3666 1038 3163 
Q 1038 2656 1286 2365 
Q 1534 2075 1959 2075 
z
" transform="scale(0.015625)"/>
       </defs>
       <use xlink:href="#DejaVuSans-2212"/>
       <use xlink:href="#DejaVuSans-39" x="83.789062"/>
       <use xlink:href="#DejaVuSans-30" x="147.412109"/>
       <use xlink:href="#DejaVuSans-30" x="211.035156"/>
      </g>
     </g>
    </g>
    <g id="xtick_3">
     <g id="line2d_3">
      <g>
       <use xlink:href="#me180173bec" x="230.468328" y="303.64" style="stroke: #000000; stroke-width: 0.8"/>
      </g>
     </g>
     <g id="text_3">
      <!-- −800 -->
      <g transform="translate(216.734734 318.238437)scale(0.1 -0.1)">
       <defs>
        <path id="DejaVuSans-38" d="M 2034 2216 
Q 1584 2216 1326 1975 
Q 1069 1734 1069 1313 
Q 1069 891 1326 650 
Q 1584 409 2034 409 
Q 2484 409 2743 651 
Q 3003 894 3003 1313 
Q 3003 1734 2745 1975 
Q 2488 2216 2034 2216 
z
M 1403 2484 
Q 997 2584 770 2862 
Q 544 3141 544 3541 
Q 544 4100 942 4425 
Q 1341 4750 2034 4750 
Q 2731 4750 3128 4425 
Q 3525 4100 3525 3541 
Q 3525 3141 3298 2862 
Q 3072 2584 2669 2484 
Q 3125 2378 3379 2068 
Q 3634 1759 3634 1313 
Q 3634 634 3220 271 
Q 2806 -91 2034 -91 
Q 1263 -91 848 271 
Q 434 634 434 1313 
Q 434 1759 690 2068 
Q 947 2378 1403 2484 
z
M 1172 3481 
Q 1172 3119 1398 2916 
Q 1625 2713 2034 2713 
Q 2441 2713 2670 2916 
Q 2900 3119 2900 3481 
Q 2900 3844 2670 4047 
Q 2441 4250 2034 4250 
Q 1625 4250 1398 4047 
Q 1172 3844 1172 3481 
z
" transform="scale(0.015625)"/>
       </defs>
       <use xlink:href="#DejaVuSans-2212"/>
       <use xlink:href="#DejaVuSans-38" x="83.789062"/>
       <use xlink:href="#DejaVuSans-30" x="147.412109"/>
       <use xlink:href="#DejaVuSans-30" x="211.035156"/>
      </g>
     </g>
    </g>
    <g id="xtick_4">
     <g id="line2d_4">
      <g>
       <use xlink:href="#me180173bec" x="305.559115" y="303.64" style="stroke: #000000; stroke-width: 0.8"/>
      </g>
     </g>
     <g id="text_4">
      <!-- −700 -->
      <g transform="translate(291.825522 318.238437)scale(0.1 -0.1)">
       <defs>
        <path id="DejaVuSans-37" d="M 525 4666 
L 3525 4666 
L 3525 4397 
L 1831 0 
L 1172 0 
L 2766 4134 
L 525 4134 
L 525 4666 
z
" transform="scale(0.015625)"/>
       </defs>
       <use xlink:href="#DejaVuSans-2212"/>
       <use xlink:href="#DejaVuSans-37" x="83.789062"/>
       <use xlink:href="#DejaVuSans-30" x="147.412109"/>
       <use xlink:href="#DejaVuSans-30" x="211.035156"/>
      </g>
     </g>
    </g>
    <g id="xtick_5">
     <g id="line2d_5">
      <g>
       <use xlink:href="#me180173bec" x="380.649903" y="303.64" style="stroke: #000000; stroke-width: 0.8"/>
      </g>
     </g>
     <g id="text_5">
      <!-- −600 -->
      <g transform="translate(366.916309 318.238437)scale(0.1 -0.1)">
       <defs>
        <path id="DejaVuSans-36" d="M 2113 2584 
Q 1688 2584 1439 2293 
Q 1191 2003 1191 1497 
Q 1191 994 1439 701 
Q 1688 409 2113 409 
Q 2538 409 2786 701 
Q 3034 994 3034 1497 
Q 3034 2003 2786 2293 
Q 2538 2584 2113 2584 
z
M 3366 4563 
L 3366 3988 
Q 3128 4100 2886 4159 
Q 2644 4219 2406 4219 
Q 1781 4219 1451 3797 
Q 1122 3375 1075 2522 
Q 1259 2794 1537 2939 
Q 1816 3084 2150 3084 
Q 2853 3084 3261 2657 
Q 3669 2231 3669 1497 
Q 3669 778 3244 343 
Q 2819 -91 2113 -91 
Q 1303 -91 875 529 
Q 447 1150 447 2328 
Q 447 3434 972 4092 
Q 1497 4750 2381 4750 
Q 2619 4750 2861 4703 
Q 3103 4656 3366 4563 
z
" transform="scale(0.015625)"/>
       </defs>
       <use xlink:href="#DejaVuSans-2212"/>
       <use xlink:href="#DejaVuSans-36" x="83.789062"/>
       <use xlink:href="#DejaVuSans-30" x="147.412109"/>
       <use xlink:href="#DejaVuSans-30" x="211.035156"/>
      </g>
     </g>
    </g>
    <g id="text_6">
     <!-- SasaDiff -->
     <g transform="translate(228.244219 331.916562)scale(0.1 -0.1)">
      <defs>
       <path id="DejaVuSans-53" d="M 3425 4513 
L 3425 3897 
Q 3066 4069 2747 4153 
Q 2428 4238 2131 4238 
Q 1616 4238 1336 4038 
Q 1056 3838 1056 3469 
Q 1056 3159 1242 3001 
Q 1428 2844 1947 2747 
L 2328 2669 
Q 3034 2534 3370 2195 
Q 3706 1856 3706 1288 
Q 3706 609 3251 259 
Q 2797 -91 1919 -91 
Q 1588 -91 1214 -16 
Q 841 59 441 206 
L 441 856 
Q 825 641 1194 531 
Q 1563 422 1919 422 
Q 2459 422 2753 634 
Q 3047 847 3047 1241 
Q 3047 1584 2836 1778 
Q 2625 1972 2144 2069 
L 1759 2144 
Q 1053 2284 737 2584 
Q 422 2884 422 3419 
Q 422 4038 858 4394 
Q 1294 4750 2059 4750 
Q 2388 4750 2728 4690 
Q 3069 4631 3425 4513 
z
" transform="scale(0.015625)"/>
       <path id="DejaVuSans-61" d="M 2194 1759 
Q 1497 1759 1228 1600 
Q 959 1441 959 1056 
Q 959 750 1161 570 
Q 1363 391 1709 391 
Q 2188 391 2477 730 
Q 2766 1069 2766 1631 
L 2766 1759 
L 2194 1759 
z
M 3341 1997 
L 3341 0 
L 2766 0 
L 2766 531 
Q 2569 213 2275 61 
Q 1981 -91 1556 -91 
Q 1019 -91 701 211 
Q 384 513 384 1019 
Q 384 1609 779 1909 
Q 1175 2209 1959 2209 
L 2766 2209 
L 2766 2266 
Q 2766 2663 2505 2880 
Q 2244 3097 1772 3097 
Q 1472 3097 1187 3025 
Q 903 2953 641 2809 
L 641 3341 
Q 956 3463 1253 3523 
Q 1550 3584 1831 3584 
Q 2591 3584 2966 3190 
Q 3341 2797 3341 1997 
z
" transform="scale(0.015625)"/>
       <path id="DejaVuSans-73" d="M 2834 3397 
L 2834 2853 
Q 2591 2978 2328 3040 
Q 2066 3103 1784 3103 
Q 1356 3103 1142 2972 
Q 928 2841 928 2578 
Q 928 2378 1081 2264 
Q 1234 2150 1697 2047 
L 1894 2003 
Q 2506 1872 2764 1633 
Q 3022 1394 3022 966 
Q 3022 478 2636 193 
Q 2250 -91 1575 -91 
Q 1294 -91 989 -36 
Q 684 19 347 128 
L 347 722 
Q 666 556 975 473 
Q 1284 391 1588 391 
Q 1994 391 2212 530 
Q 2431 669 2431 922 
Q 2431 1156 2273 1281 
Q 2116 1406 1581 1522 
L 1381 1569 
Q 847 1681 609 1914 
Q 372 2147 372 2553 
Q 372 3047 722 3315 
Q 1072 3584 1716 3584 
Q 2034 3584 2315 3537 
Q 2597 3491 2834 3397 
z
" transform="scale(0.015625)"/>
       <path id="DejaVuSans-44" d="M 1259 4147 
L 1259 519 
L 2022 519 
Q 2988 519 3436 956 
Q 3884 1394 3884 2338 
Q 3884 3275 3436 3711 
Q 2988 4147 2022 4147 
L 1259 4147 
z
M 628 4666 
L 1925 4666 
Q 3281 4666 3915 4102 
Q 4550 3538 4550 2338 
Q 4550 1131 3912 565 
Q 3275 0 1925 0 
L 628 0 
L 628 4666 
z
" transform="scale(0.015625)"/>
       <path id="DejaVuSans-69" d="M 603 3500 
L 1178 3500 
L 1178 0 
L 603 0 
L 603 3500 
z
M 603 4863 
L 1178 4863 
L 1178 4134 
L 603 4134 
L 603 4863 
z
" transform="scale(0.015625)"/>
       <path id="DejaVuSans-66" d="M 2375 4863 
L 2375 4384 
L 1825 4384 
Q 1516 4384 1395 4259 
Q 1275 4134 1275 3809 
L 1275 3500 
L 2222 3500 
L 2222 3053 
L 1275 3053 
L 1275 0 
L 697 0 
L 697 3053 
L 147 3053 
L 147 3500 
L 697 3500 
L 697 3744 
Q 697 4328 969 4595 
Q 1241 4863 1831 4863 
L 2375 4863 
z
" transform="scale(0.015625)"/>
      </defs>
      <use xlink:href="#DejaVuSans-53"/>
      <use xlink:href="#DejaVuSans-61" x="63.476562"/>
      <use xlink:href="#DejaVuSans-73" x="124.755859"/>
      <use xlink:href="#DejaVuSans-61" x="176.855469"/>
      <use xlink:href="#DejaVuSans-44" x="238.134766"/>
      <use xlink:href="#DejaVuSans-69" x="315.136719"/>
      <use xlink:href="#DejaVuSans-66" x="342.919922"/>
      <use xlink:href="#DejaVuSans-66" x="378.125"/>
     </g>
    </g>
   </g>
   <g id="matplotlib.axis_2">
    <g id="ytick_1">
     <g id="line2d_6">
      <defs>
       <path id="m2d208e592a" d="M 0 0 
L -3.5 0 
" style="stroke: #000000; stroke-width: 0.8"/>
      </defs>
      <g>
       <use xlink:href="#m2d208e592a" x="47.82125" y="303.64" style="stroke: #000000; stroke-width: 0.8"/>
      </g>
     </g>
     <g id="text_7">
      <!-- 0.0 -->
      <g transform="translate(24.918125 307.439219)scale(0.1 -0.1)">
       <defs>
        <path id="DejaVuSans-2e" d="M 684 794 
L 1344 794 
L 1344 0 
L 684 0 
L 684 794 
z
" transform="scale(0.015625)"/>
       </defs>
       <use xlink:href="#DejaVuSans-30"/>
       <use xlink:href="#DejaVuSans-2e" x="63.623047"/>
       <use xlink:href="#DejaVuSans-30" x="95.410156"/>
      </g>
     </g>
    </g>
    <g id="ytick_2">
     <g id="line2d_7">
      <g>
       <use xlink:href="#m2d208e592a" x="47.82125" y="261.736644" style="stroke: #000000; stroke-width: 0.8"/>
      </g>
     </g>
     <g id="text_8">
      <!-- 0.5 -->
      <g transform="translate(24.918125 265.535862)scale(0.1 -0.1)">
       <defs>
        <path id="DejaVuSans-35" d="M 691 4666 
L 3169 4666 
L 3169 4134 
L 1269 4134 
L 1269 2991 
Q 1406 3038 1543 3061 
Q 1681 3084 1819 3084 
Q 2600 3084 3056 2656 
Q 3513 2228 3513 1497 
Q 3513 744 3044 326 
Q 2575 -91 1722 -91 
Q 1428 -91 1123 -41 
Q 819 9 494 109 
L 494 744 
Q 775 591 1075 516 
Q 1375 441 1709 441 
Q 2250 441 2565 725 
Q 2881 1009 2881 1497 
Q 2881 1984 2565 2268 
Q 2250 2553 1709 2553 
Q 1456 2553 1204 2497 
Q 953 2441 691 2322 
L 691 4666 
z
" transform="scale(0.015625)"/>
       </defs>
       <use xlink:href="#DejaVuSans-30"/>
       <use xlink:href="#DejaVuSans-2e" x="63.623047"/>
       <use xlink:href="#DejaVuSans-35" x="95.410156"/>
      </g>
     </g>
    </g>
    <g id="ytick_3">
     <g id="line2d_8">
      <g>
       <use xlink:href="#m2d208e592a" x="47.82125" y="219.833287" style="stroke: #000000; stroke-width: 0.8"/>
      </g>
     </g>
     <g id="text_9">
      <!-- 1.0 -->
      <g transform="translate(24.918125 223.632506)scale(0.1 -0.1)">
       <use xlink:href="#DejaVuSans-31"/>
       <use xlink:href="#DejaVuSans-2e" x="63.623047"/>
       <use xlink:href="#DejaVuSans-30" x="95.410156"/>
      </g>
     </g>
    </g>
    <g id="ytick_4">
     <g id="line2d_9">
      <g>
       <use xlink:href="#m2d208e592a" x="47.82125" y="177.929931" style="stroke: #000000; stroke-width: 0.8"/>
      </g>
     </g>
     <g id="text_10">
      <!-- 1.5 -->
      <g transform="translate(24.918125 181.729149)scale(0.1 -0.1)">
       <use xlink:href="#DejaVuSans-31"/>
       <use xlink:href="#DejaVuSans-2e" x="63.623047"/>
       <use xlink:href="#DejaVuSans-35" x="95.410156"/>
      </g>
     </g>
    </g>
    <g id="ytick_5">
     <g id="line2d_10">
      <g>
       <use xlink:href="#m2d208e592a" x="47.82125" y="136.026574" style="stroke: #000000; stroke-width: 0.8"/>
      </g>
     </g>
     <g id="text_11">
      <!-- 2.0 -->
      <g transform="translate(24.918125 139.825793)scale(0.1 -0.1)">
       <defs>
        <path id="DejaVuSans-32" d="M 1228 531 
L 3431 531 
L 3431 0 
L 469 0 
L 469 531 
Q 828 903 1448 1529 
Q 2069 2156 2228 2338 
Q 2531 2678 2651 2914 
Q 2772 3150 2772 3378 
Q 2772 3750 2511 3984 
Q 2250 4219 1831 4219 
Q 1534 4219 1204 4116 
Q 875 4013 500 3803 
L 500 4441 
Q 881 4594 1212 4672 
Q 1544 4750 1819 4750 
Q 2544 4750 2975 4387 
Q 3406 4025 3406 3419 
Q 3406 3131 3298 2873 
Q 3191 2616 2906 2266 
Q 2828 2175 2409 1742 
Q 1991 1309 1228 531 
z
" transform="scale(0.015625)"/>
       </defs>
       <use xlink:href="#DejaVuSans-32"/>
       <use xlink:href="#DejaVuSans-2e" x="63.623047"/>
       <use xlink:href="#DejaVuSans-30" x="95.410156"/>
      </g>
     </g>
    </g>
    <g id="ytick_6">
     <g id="line2d_11">
      <g>
       <use xlink:href="#m2d208e592a" x="47.82125" y="94.123218" style="stroke: #000000; stroke-width: 0.8"/>
      </g>
     </g>
     <g id="text_12">
      <!-- 2.5 -->
      <g transform="translate(24.918125 97.922436)scale(0.1 -0.1)">
       <use xlink:href="#DejaVuSans-32"/>
       <use xlink:href="#DejaVuSans-2e" x="63.623047"/>
       <use xlink:href="#DejaVuSans-35" x="95.410156"/>
      </g>
     </g>
    </g>
    <g id="ytick_7">
     <g id="line2d_12">
      <g>
       <use xlink:href="#m2d208e592a" x="47.82125" y="52.219861" style="stroke: #000000; stroke-width: 0.8"/>
      </g>
     </g>
     <g id="text_13">
      <!-- 3.0 -->
      <g transform="translate(24.918125 56.01908)scale(0.1 -0.1)">
       <defs>
        <path id="DejaVuSans-33" d="M 2597 2516 
Q 3050 2419 3304 2112 
Q 3559 1806 3559 1356 
Q 3559 666 3084 287 
Q 2609 -91 1734 -91 
Q 1441 -91 1130 -33 
Q 819 25 488 141 
L 488 750 
Q 750 597 1062 519 
Q 1375 441 1716 441 
Q 2309 441 2620 675 
Q 2931 909 2931 1356 
Q 2931 1769 2642 2001 
Q 2353 2234 1838 2234 
L 1294 2234 
L 1294 2753 
L 1863 2753 
Q 2328 2753 2575 2939 
Q 2822 3125 2822 3475 
Q 2822 3834 2567 4026 
Q 2313 4219 1838 4219 
Q 1578 4219 1281 4162 
Q 984 4106 628 3988 
L 628 4550 
Q 988 4650 1302 4700 
Q 1616 4750 1894 4750 
Q 2613 4750 3031 4423 
Q 3450 4097 3450 3541 
Q 3450 3153 3228 2886 
Q 3006 2619 2597 2516 
z
" transform="scale(0.015625)"/>
       </defs>
       <use xlink:href="#DejaVuSans-33"/>
       <use xlink:href="#DejaVuSans-2e" x="63.623047"/>
       <use xlink:href="#DejaVuSans-30" x="95.410156"/>
      </g>
     </g>
    </g>
    <g id="text_14">
     <!-- PercentGpA_transformed -->
     <g transform="translate(18.560313 237.696138)rotate(-90)scale(0.1 -0.1)">
      <defs>
       <path id="DejaVuSans-50" d="M 1259 4147 
L 1259 2394 
L 2053 2394 
Q 2494 2394 2734 2622 
Q 2975 2850 2975 3272 
Q 2975 3691 2734 3919 
Q 2494 4147 2053 4147 
L 1259 4147 
z
M 628 4666 
L 2053 4666 
Q 2838 4666 3239 4311 
Q 3641 3956 3641 3272 
Q 3641 2581 3239 2228 
Q 2838 1875 2053 1875 
L 1259 1875 
L 1259 0 
L 628 0 
L 628 4666 
z
" transform="scale(0.015625)"/>
       <path id="DejaVuSans-65" d="M 3597 1894 
L 3597 1613 
L 953 1613 
Q 991 1019 1311 708 
Q 1631 397 2203 397 
Q 2534 397 2845 478 
Q 3156 559 3463 722 
L 3463 178 
Q 3153 47 2828 -22 
Q 2503 -91 2169 -91 
Q 1331 -91 842 396 
Q 353 884 353 1716 
Q 353 2575 817 3079 
Q 1281 3584 2069 3584 
Q 2775 3584 3186 3129 
Q 3597 2675 3597 1894 
z
M 3022 2063 
Q 3016 2534 2758 2815 
Q 2500 3097 2075 3097 
Q 1594 3097 1305 2825 
Q 1016 2553 972 2059 
L 3022 2063 
z
" transform="scale(0.015625)"/>
       <path id="DejaVuSans-72" d="M 2631 2963 
Q 2534 3019 2420 3045 
Q 2306 3072 2169 3072 
Q 1681 3072 1420 2755 
Q 1159 2438 1159 1844 
L 1159 0 
L 581 0 
L 581 3500 
L 1159 3500 
L 1159 2956 
Q 1341 3275 1631 3429 
Q 1922 3584 2338 3584 
Q 2397 3584 2469 3576 
Q 2541 3569 2628 3553 
L 2631 2963 
z
" transform="scale(0.015625)"/>
       <path id="DejaVuSans-63" d="M 3122 3366 
L 3122 2828 
Q 2878 2963 2633 3030 
Q 2388 3097 2138 3097 
Q 1578 3097 1268 2742 
Q 959 2388 959 1747 
Q 959 1106 1268 751 
Q 1578 397 2138 397 
Q 2388 397 2633 464 
Q 2878 531 3122 666 
L 3122 134 
Q 2881 22 2623 -34 
Q 2366 -91 2075 -91 
Q 1284 -91 818 406 
Q 353 903 353 1747 
Q 353 2603 823 3093 
Q 1294 3584 2113 3584 
Q 2378 3584 2631 3529 
Q 2884 3475 3122 3366 
z
" transform="scale(0.015625)"/>
       <path id="DejaVuSans-6e" d="M 3513 2113 
L 3513 0 
L 2938 0 
L 2938 2094 
Q 2938 2591 2744 2837 
Q 2550 3084 2163 3084 
Q 1697 3084 1428 2787 
Q 1159 2491 1159 1978 
L 1159 0 
L 581 0 
L 581 3500 
L 1159 3500 
L 1159 2956 
Q 1366 3272 1645 3428 
Q 1925 3584 2291 3584 
Q 2894 3584 3203 3211 
Q 3513 2838 3513 2113 
z
" transform="scale(0.015625)"/>
       <path id="DejaVuSans-74" d="M 1172 4494 
L 1172 3500 
L 2356 3500 
L 2356 3053 
L 1172 3053 
L 1172 1153 
Q 1172 725 1289 603 
Q 1406 481 1766 481 
L 2356 481 
L 2356 0 
L 1766 0 
Q 1100 0 847 248 
Q 594 497 594 1153 
L 594 3053 
L 172 3053 
L 172 3500 
L 594 3500 
L 594 4494 
L 1172 4494 
z
" transform="scale(0.015625)"/>
       <path id="DejaVuSans-47" d="M 3809 666 
L 3809 1919 
L 2778 1919 
L 2778 2438 
L 4434 2438 
L 4434 434 
Q 4069 175 3628 42 
Q 3188 -91 2688 -91 
Q 1594 -91 976 548 
Q 359 1188 359 2328 
Q 359 3472 976 4111 
Q 1594 4750 2688 4750 
Q 3144 4750 3555 4637 
Q 3966 4525 4313 4306 
L 4313 3634 
Q 3963 3931 3569 4081 
Q 3175 4231 2741 4231 
Q 1884 4231 1454 3753 
Q 1025 3275 1025 2328 
Q 1025 1384 1454 906 
Q 1884 428 2741 428 
Q 3075 428 3337 486 
Q 3600 544 3809 666 
z
" transform="scale(0.015625)"/>
       <path id="DejaVuSans-70" d="M 1159 525 
L 1159 -1331 
L 581 -1331 
L 581 3500 
L 1159 3500 
L 1159 2969 
Q 1341 3281 1617 3432 
Q 1894 3584 2278 3584 
Q 2916 3584 3314 3078 
Q 3713 2572 3713 1747 
Q 3713 922 3314 415 
Q 2916 -91 2278 -91 
Q 1894 -91 1617 61 
Q 1341 213 1159 525 
z
M 3116 1747 
Q 3116 2381 2855 2742 
Q 2594 3103 2138 3103 
Q 1681 3103 1420 2742 
Q 1159 2381 1159 1747 
Q 1159 1113 1420 752 
Q 1681 391 2138 391 
Q 2594 391 2855 752 
Q 3116 1113 3116 1747 
z
" transform="scale(0.015625)"/>
       <path id="DejaVuSans-41" d="M 2188 4044 
L 1331 1722 
L 3047 1722 
L 2188 4044 
z
M 1831 4666 
L 2547 4666 
L 4325 0 
L 3669 0 
L 3244 1197 
L 1141 1197 
L 716 0 
L 50 0 
L 1831 4666 
z
" transform="scale(0.015625)"/>
       <path id="DejaVuSans-5f" d="M 3263 -1063 
L 3263 -1509 
L -63 -1509 
L -63 -1063 
L 3263 -1063 
z
" transform="scale(0.015625)"/>
       <path id="DejaVuSans-6f" d="M 1959 3097 
Q 1497 3097 1228 2736 
Q 959 2375 959 1747 
Q 959 1119 1226 758 
Q 1494 397 1959 397 
Q 2419 397 2687 759 
Q 2956 1122 2956 1747 
Q 2956 2369 2687 2733 
Q 2419 3097 1959 3097 
z
M 1959 3584 
Q 2709 3584 3137 3096 
Q 3566 2609 3566 1747 
Q 3566 888 3137 398 
Q 2709 -91 1959 -91 
Q 1206 -91 779 398 
Q 353 888 353 1747 
Q 353 2609 779 3096 
Q 1206 3584 1959 3584 
z
" transform="scale(0.015625)"/>
       <path id="DejaVuSans-6d" d="M 3328 2828 
Q 3544 3216 3844 3400 
Q 4144 3584 4550 3584 
Q 5097 3584 5394 3201 
Q 5691 2819 5691 2113 
L 5691 0 
L 5113 0 
L 5113 2094 
Q 5113 2597 4934 2840 
Q 4756 3084 4391 3084 
Q 3944 3084 3684 2787 
Q 3425 2491 3425 1978 
L 3425 0 
L 2847 0 
L 2847 2094 
Q 2847 2600 2669 2842 
Q 2491 3084 2119 3084 
Q 1678 3084 1418 2786 
Q 1159 2488 1159 1978 
L 1159 0 
L 581 0 
L 581 3500 
L 1159 3500 
L 1159 2956 
Q 1356 3278 1631 3431 
Q 1906 3584 2284 3584 
Q 2666 3584 2933 3390 
Q 3200 3197 3328 2828 
z
" transform="scale(0.015625)"/>
       <path id="DejaVuSans-64" d="M 2906 2969 
L 2906 4863 
L 3481 4863 
L 3481 0 
L 2906 0 
L 2906 525 
Q 2725 213 2448 61 
Q 2172 -91 1784 -91 
Q 1150 -91 751 415 
Q 353 922 353 1747 
Q 353 2572 751 3078 
Q 1150 3584 1784 3584 
Q 2172 3584 2448 3432 
Q 2725 3281 2906 2969 
z
M 947 1747 
Q 947 1113 1208 752 
Q 1469 391 1925 391 
Q 2381 391 2643 752 
Q 2906 1113 2906 1747 
Q 2906 2381 2643 2742 
Q 2381 3103 1925 3103 
Q 1469 3103 1208 2742 
Q 947 2381 947 1747 
z
" transform="scale(0.015625)"/>
      </defs>
      <use xlink:href="#DejaVuSans-50"/>
      <use xlink:href="#DejaVuSans-65" x="56.677734"/>
      <use xlink:href="#DejaVuSans-72" x="118.201172"/>
      <use xlink:href="#DejaVuSans-63" x="157.064453"/>
      <use xlink:href="#DejaVuSans-65" x="212.044922"/>
      <use xlink:href="#DejaVuSans-6e" x="273.568359"/>
      <use xlink:href="#DejaVuSans-74" x="336.947266"/>
      <use xlink:href="#DejaVuSans-47" x="376.15625"/>
      <use xlink:href="#DejaVuSans-70" x="453.646484"/>
      <use xlink:href="#DejaVuSans-41" x="517.123047"/>
      <use xlink:href="#DejaVuSans-5f" x="585.53125"/>
      <use xlink:href="#DejaVuSans-74" x="635.53125"/>
      <use xlink:href="#DejaVuSans-72" x="674.740234"/>
      <use xlink:href="#DejaVuSans-61" x="715.853516"/>
      <use xlink:href="#DejaVuSans-6e" x="777.132812"/>
      <use xlink:href="#DejaVuSans-73" x="840.511719"/>
      <use xlink:href="#DejaVuSans-66" x="892.611328"/>
      <use xlink:href="#DejaVuSans-6f" x="927.816406"/>
      <use xlink:href="#DejaVuSans-72" x="988.998047"/>
      <use xlink:href="#DejaVuSans-6d" x="1028.361328"/>
      <use xlink:href="#DejaVuSans-65" x="1125.773438"/>
      <use xlink:href="#DejaVuSans-64" x="1187.296875"/>
     </g>
    </g>
   </g>
   <g id="LineCollection_1">
    <path d="M 217.147222 270.712627 
L 217.147222 255.293275 
" clip-path="url(#p92ee95e2f2)" style="fill: none; stroke: #d3d3d3; stroke-width: 3"/>
    <path d="M 66.695319 267.586059 
L 66.695319 259.992603 
" clip-path="url(#p92ee95e2f2)" style="fill: none; stroke: #d3d3d3; stroke-width: 3"/>
    <path d="M 175.952416 249.235102 
L 175.952416 232.269303 
" clip-path="url(#p92ee95e2f2)" style="fill: none; stroke: #d3d3d3; stroke-width: 3"/>
    <path d="M 122.067266 279.946072 
L 122.067266 273.466264 
" clip-path="url(#p92ee95e2f2)" style="fill: none; stroke: #d3d3d3; stroke-width: 3"/>
    <path d="M 206.244039 264.259419 
L 206.244039 247.196716 
" clip-path="url(#p92ee95e2f2)" style="fill: none; stroke: #d3d3d3; stroke-width: 3"/>
    <path d="M 103.189442 264.786686 
L 103.189442 258.804524 
" clip-path="url(#p92ee95e2f2)" style="fill: none; stroke: #d3d3d3; stroke-width: 3"/>
    <path d="M 231.023999 285.675738 
L 231.023999 246.503527 
" clip-path="url(#p92ee95e2f2)" style="fill: none; stroke: #d3d3d3; stroke-width: 3"/>
    <path d="M 140.772382 301.980437 
L 140.772382 244.27367 
" clip-path="url(#p92ee95e2f2)" style="fill: none; stroke: #d3d3d3; stroke-width: 3"/>
    <path d="M 205.252841 274.381333 
L 205.252841 262.259765 
" clip-path="url(#p92ee95e2f2)" style="fill: none; stroke: #d3d3d3; stroke-width: 3"/>
    <path d="M 238.157624 238.851439 
L 238.157624 226.328098 
" clip-path="url(#p92ee95e2f2)" style="fill: none; stroke: #d3d3d3; stroke-width: 3"/>
    <path d="M 89.207538 289.857988 
L 89.207538 272.142042 
" clip-path="url(#p92ee95e2f2)" style="fill: none; stroke: #d3d3d3; stroke-width: 3"/>
    <path d="M 207.392928 311.967312 
L 207.392928 281.592739 
" clip-path="url(#p92ee95e2f2)" style="fill: none; stroke: #d3d3d3; stroke-width: 3"/>
    <path d="M 237.86477 277.277344 
L 237.86477 249.369159 
" clip-path="url(#p92ee95e2f2)" style="fill: none; stroke: #d3d3d3; stroke-width: 3"/>
    <path d="M 98.849195 292.559773 
L 98.849195 59.635329 
" clip-path="url(#p92ee95e2f2)" style="fill: none; stroke: #d3d3d3; stroke-width: 3"/>
    <path d="M 221.224652 286.640303 
L 221.224652 264.474362 
" clip-path="url(#p92ee95e2f2)" style="fill: none; stroke: #d3d3d3; stroke-width: 3"/>
    <path d="M 165.304542 256.684724 
L 165.304542 240.79857 
" clip-path="url(#p92ee95e2f2)" style="fill: none; stroke: #d3d3d3; stroke-width: 3"/>
    <path d="M 265.070163 288.528913 
L 265.070163 255.819821 
" clip-path="url(#p92ee95e2f2)" style="fill: none; stroke: #d3d3d3; stroke-width: 3"/>
    <path d="M 66.102102 278.949277 
L 66.102102 260.411383 
" clip-path="url(#p92ee95e2f2)" style="fill: none; stroke: #d3d3d3; stroke-width: 3"/>
    <path d="M 191.571299 308.192911 
L 191.571299 272.655544 
" clip-path="url(#p92ee95e2f2)" style="fill: none; stroke: #d3d3d3; stroke-width: 3"/>
    <path d="M 200.274322 286.300966 
L 200.274322 262.761283 
" clip-path="url(#p92ee95e2f2)" style="fill: none; stroke: #d3d3d3; stroke-width: 3"/>
    <path d="M 213.482791 271.209293 
L 213.482791 244.866269 
" clip-path="url(#p92ee95e2f2)" style="fill: none; stroke: #d3d3d3; stroke-width: 3"/>
    <path d="M 88.201321 257.122852 
L 88.201321 245.514191 
" clip-path="url(#p92ee95e2f2)" style="fill: none; stroke: #d3d3d3; stroke-width: 3"/>
    <path d="M 301.376558 269.999803 
L 301.376558 238.429862 
" clip-path="url(#p92ee95e2f2)" style="fill: none; stroke: #d3d3d3; stroke-width: 3"/>
    <path d="M 269.132574 281.360769 
L 269.132574 256.538125 
" clip-path="url(#p92ee95e2f2)" style="fill: none; stroke: #d3d3d3; stroke-width: 3"/>
    <path d="M 150.248839 312.994209 
L 150.248839 279.262465 
" clip-path="url(#p92ee95e2f2)" style="fill: none; stroke: #d3d3d3; stroke-width: 3"/>
    <path d="M 229.709911 275.293061 
L 229.709911 261.252122 
" clip-path="url(#p92ee95e2f2)" style="fill: none; stroke: #d3d3d3; stroke-width: 3"/>
    <path d="M 193.658823 297.006952 
L 193.658823 270.795241 
" clip-path="url(#p92ee95e2f2)" style="fill: none; stroke: #d3d3d3; stroke-width: 3"/>
    <path d="M 177.62694 269.052897 
L 177.62694 255.559291 
" clip-path="url(#p92ee95e2f2)" style="fill: none; stroke: #d3d3d3; stroke-width: 3"/>
    <path d="M 178.152576 293.661874 
L 178.152576 258.228277 
" clip-path="url(#p92ee95e2f2)" style="fill: none; stroke: #d3d3d3; stroke-width: 3"/>
    <path d="M 232.428197 258.698086 
L 232.428197 227.159644 
" clip-path="url(#p92ee95e2f2)" style="fill: none; stroke: #d3d3d3; stroke-width: 3"/>
    <path d="M 141.095272 284.071753 
L 141.095272 270.050778 
" clip-path="url(#p92ee95e2f2)" style="fill: none; stroke: #d3d3d3; stroke-width: 3"/>
    <path d="M 241.792018 272.007132 
L 241.792018 265.826774 
" clip-path="url(#p92ee95e2f2)" style="fill: none; stroke: #d3d3d3; stroke-width: 3"/>
    <path d="M 268.419212 300.568037 
L 268.419212 268.417417 
" clip-path="url(#p92ee95e2f2)" style="fill: none; stroke: #d3d3d3; stroke-width: 3"/>
    <path d="M 203.458171 287.204343 
L 203.458171 274.288742 
" clip-path="url(#p92ee95e2f2)" style="fill: none; stroke: #d3d3d3; stroke-width: 3"/>
    <path d="M 171.694768 280.490039 
L 171.694768 247.51608 
" clip-path="url(#p92ee95e2f2)" style="fill: none; stroke: #d3d3d3; stroke-width: 3"/>
    <path d="M 339.860587 290.331653 
L 339.860587 263.931864 
" clip-path="url(#p92ee95e2f2)" style="fill: none; stroke: #d3d3d3; stroke-width: 3"/>
    <path d="M 216.75675 269.494582 
L 216.75675 215.412684 
" clip-path="url(#p92ee95e2f2)" style="fill: none; stroke: #d3d3d3; stroke-width: 3"/>
    <path d="M 157.134664 296.528798 
L 157.134664 278.766359 
" clip-path="url(#p92ee95e2f2)" style="fill: none; stroke: #d3d3d3; stroke-width: 3"/>
    <path d="M 149.760749 295.461374 
L 149.760749 240.931925 
" clip-path="url(#p92ee95e2f2)" style="fill: none; stroke: #d3d3d3; stroke-width: 3"/>
    <path d="M 382.985226 286.543906 
L 382.985226 283.953589 
" clip-path="url(#p92ee95e2f2)" style="fill: none; stroke: #d3d3d3; stroke-width: 3"/>
    <path d="M 264.124019 288.620188 
L 264.124019 265.270511 
" clip-path="url(#p92ee95e2f2)" style="fill: none; stroke: #d3d3d3; stroke-width: 3"/>
    <path d="M 318.332058 265.809878 
L 318.332058 241.084066 
" clip-path="url(#p92ee95e2f2)" style="fill: none; stroke: #d3d3d3; stroke-width: 3"/>
    <path d="M 127.646512 291.38926 
L 127.646512 247.81715 
" clip-path="url(#p92ee95e2f2)" style="fill: none; stroke: #d3d3d3; stroke-width: 3"/>
    <path d="M 170.726097 265.767617 
L 170.726097 252.618516 
" clip-path="url(#p92ee95e2f2)" style="fill: none; stroke: #d3d3d3; stroke-width: 3"/>
    <path d="M 215.540279 274.288584 
L 215.540279 254.037505 
" clip-path="url(#p92ee95e2f2)" style="fill: none; stroke: #d3d3d3; stroke-width: 3"/>
    <path d="M 227.464696 257.28485 
L 227.464696 247.356569 
" clip-path="url(#p92ee95e2f2)" style="fill: none; stroke: #d3d3d3; stroke-width: 3"/>
    <path d="M 169.502117 263.146102 
L 169.502117 243.466924 
" clip-path="url(#p92ee95e2f2)" style="fill: none; stroke: #d3d3d3; stroke-width: 3"/>
    <path d="M 252.770291 288.969378 
L 252.770291 262.942768 
" clip-path="url(#p92ee95e2f2)" style="fill: none; stroke: #d3d3d3; stroke-width: 3"/>
    <path d="M 104.323313 271.862681 
L 104.323313 246.496239 
" clip-path="url(#p92ee95e2f2)" style="fill: none; stroke: #d3d3d3; stroke-width: 3"/>
    <path d="M 244.773123 269.044893 
L 244.773123 242.223784 
" clip-path="url(#p92ee95e2f2)" style="fill: none; stroke: #d3d3d3; stroke-width: 3"/>
    <path d="M 137.723696 251.160488 
L 137.723696 237.229819 
" clip-path="url(#p92ee95e2f2)" style="fill: none; stroke: #d3d3d3; stroke-width: 3"/>
    <path d="M 338.216099 304.467082 
L 338.216099 280.341042 
" clip-path="url(#p92ee95e2f2)" style="fill: none; stroke: #d3d3d3; stroke-width: 3"/>
    <path d="M 229.319438 268.231938 
L 229.319438 250.123715 
" clip-path="url(#p92ee95e2f2)" style="fill: none; stroke: #d3d3d3; stroke-width: 3"/>
    <path d="M 240.162548 300.119305 
L 240.162548 283.138092 
" clip-path="url(#p92ee95e2f2)" style="fill: none; stroke: #d3d3d3; stroke-width: 3"/>
    <path d="M 142.717233 282.935294 
L 142.717233 262.746356 
" clip-path="url(#p92ee95e2f2)" style="fill: none; stroke: #d3d3d3; stroke-width: 3"/>
    <path d="M 166.836394 247.724632 
L 166.836394 232.32691 
" clip-path="url(#p92ee95e2f2)" style="fill: none; stroke: #d3d3d3; stroke-width: 3"/>
    <path d="M 230.723636 318.827626 
L 230.723636 252.986356 
" clip-path="url(#p92ee95e2f2)" style="fill: none; stroke: #d3d3d3; stroke-width: 3"/>
    <path d="M 152.614199 276.025017 
L 152.614199 261.895418 
" clip-path="url(#p92ee95e2f2)" style="fill: none; stroke: #d3d3d3; stroke-width: 3"/>
    <path d="M 159.252224 277.901395 
L 159.252224 262.655597 
" clip-path="url(#p92ee95e2f2)" style="fill: none; stroke: #d3d3d3; stroke-width: 3"/>
    <path d="M 288.873942 259.163986 
L 288.873942 256.259993 
" clip-path="url(#p92ee95e2f2)" style="fill: none; stroke: #d3d3d3; stroke-width: 3"/>
    <path d="M 431.719148 246.671487 
L 431.719148 222.165779 
" clip-path="url(#p92ee95e2f2)" style="fill: none; stroke: #d3d3d3; stroke-width: 3"/>
    <path d="M 189.130849 286.109613 
L 189.130849 268.698701 
" clip-path="url(#p92ee95e2f2)" style="fill: none; stroke: #d3d3d3; stroke-width: 3"/>
    <path d="M 189.746593 266.557367 
L 189.746593 262.249693 
" clip-path="url(#p92ee95e2f2)" style="fill: none; stroke: #d3d3d3; stroke-width: 3"/>
   </g>
   <g id="line2d_13">
    <path d="M 217.147222 265.861526 
L 66.695319 262.299515 
L 175.952416 264.886222 
L 122.067266 263.610469 
L 206.244039 265.603389 
L 103.189442 263.163529 
L 231.023999 266.190064 
L 140.772382 264.05332 
L 205.252841 265.579922 
L 238.157624 266.358956 
L 89.207538 262.832501 
L 207.392928 265.630589 
L 237.86477 266.352022 
L 98.849195 263.060772 
L 221.224652 265.958061 
L 165.304542 264.634129 
L 265.070163 266.996121 
L 66.102102 262.285471 
L 191.571299 265.256005 
L 200.274322 265.462053 
L 213.482791 265.774769 
L 88.201321 262.808679 
L 301.376558 267.85569 
L 269.132574 267.092301 
L 150.248839 264.277679 
L 229.709911 266.158953 
L 193.658823 265.305428 
L 177.62694 264.925867 
L 178.152576 264.938312 
L 232.428197 266.223309 
L 141.095272 264.060965 
L 241.792018 266.445002 
L 268.419212 267.075411 
L 203.458171 265.537432 
L 171.694768 264.78542 
L 339.860587 268.766815 
L 216.75675 265.852281 
L 157.134664 264.440704 
L 149.760749 264.266123 
L 382.985226 269.787809 
L 264.124019 266.973721 
L 318.332058 268.257119 
L 127.646512 263.74256 
L 170.726097 264.762487 
L 215.540279 265.823481 
L 227.464696 266.105796 
L 169.502117 264.733509 
L 252.770291 266.704917 
L 104.323313 263.190374 
L 244.773123 266.515581 
L 137.723696 263.981141 
L 338.216099 268.727881 
L 229.319438 266.149708 
L 240.162548 266.406423 
L 142.717233 264.099365 
L 166.836394 264.670396 
L 230.723636 266.182953 
L 152.614199 264.33368 
L 159.252224 264.490838 
L 288.873942 267.559686 
L 431.719148 270.941605 
L 189.130849 265.198227 
L 189.746593 265.212805 
" clip-path="url(#p92ee95e2f2)" style="fill: none; stroke: #1f77b4; stroke-width: 1.5; stroke-linecap: square"/>
   </g>
   <g id="line2d_14">
    <defs>
     <path id="m7fd6301793" d="M 0 3 
C 0.795609 3 1.55874 2.683901 2.12132 2.12132 
C 2.683901 1.55874 3 0.795609 3 0 
C 3 -0.795609 2.683901 -1.55874 2.12132 -2.12132 
C 1.55874 -2.683901 0.795609 -3 0 -3 
C -0.795609 -3 -1.55874 -2.683901 -2.12132 -2.12132 
C -2.683901 -1.55874 -3 -0.795609 -3 0 
C -3 0.795609 -2.683901 1.55874 -2.12132 2.12132 
C -1.55874 2.683901 -0.795609 3 0 3 
z
" style="stroke: #000000"/>
    </defs>
    <g clip-path="url(#p92ee95e2f2)">
     <use xlink:href="#m7fd6301793" x="217.147222" y="263.002951" style="stroke: #000000"/>
     <use xlink:href="#m7fd6301793" x="66.695319" y="263.789331" style="stroke: #000000"/>
     <use xlink:href="#m7fd6301793" x="175.952416" y="240.752203" style="stroke: #000000"/>
     <use xlink:href="#m7fd6301793" x="122.067266" y="276.706168" style="stroke: #000000"/>
     <use xlink:href="#m7fd6301793" x="206.244039" y="255.728068" style="stroke: #000000"/>
     <use xlink:href="#m7fd6301793" x="103.189442" y="261.795605" style="stroke: #000000"/>
     <use xlink:href="#m7fd6301793" x="231.023999" y="266.089632" style="stroke: #000000"/>
     <use xlink:href="#m7fd6301793" x="140.772382" y="273.127053" style="stroke: #000000"/>
     <use xlink:href="#m7fd6301793" x="205.252841" y="268.320549" style="stroke: #000000"/>
     <use xlink:href="#m7fd6301793" x="238.157624" y="232.589768" style="stroke: #000000"/>
     <use xlink:href="#m7fd6301793" x="89.207538" y="281.000015" style="stroke: #000000"/>
     <use xlink:href="#m7fd6301793" x="207.392928" y="296.780026" style="stroke: #000000"/>
     <use xlink:href="#m7fd6301793" x="237.86477" y="263.323252" style="stroke: #000000"/>
     <use xlink:href="#m7fd6301793" x="98.849195" y="176.097551" style="stroke: #000000"/>
     <use xlink:href="#m7fd6301793" x="221.224652" y="275.557333" style="stroke: #000000"/>
     <use xlink:href="#m7fd6301793" x="165.304542" y="248.741647" style="stroke: #000000"/>
     <use xlink:href="#m7fd6301793" x="265.070163" y="272.174367" style="stroke: #000000"/>
     <use xlink:href="#m7fd6301793" x="66.102102" y="269.68033" style="stroke: #000000"/>
     <use xlink:href="#m7fd6301793" x="191.571299" y="290.424227" style="stroke: #000000"/>
     <use xlink:href="#m7fd6301793" x="200.274322" y="274.531124" style="stroke: #000000"/>
     <use xlink:href="#m7fd6301793" x="213.482791" y="258.037781" style="stroke: #000000"/>
     <use xlink:href="#m7fd6301793" x="88.201321" y="251.318522" style="stroke: #000000"/>
     <use xlink:href="#m7fd6301793" x="301.376558" y="254.214833" style="stroke: #000000"/>
     <use xlink:href="#m7fd6301793" x="269.132574" y="268.949447" style="stroke: #000000"/>
     <use xlink:href="#m7fd6301793" x="150.248839" y="296.128337" style="stroke: #000000"/>
     <use xlink:href="#m7fd6301793" x="229.709911" y="268.272592" style="stroke: #000000"/>
     <use xlink:href="#m7fd6301793" x="193.658823" y="283.901096" style="stroke: #000000"/>
     <use xlink:href="#m7fd6301793" x="177.62694" y="262.306094" style="stroke: #000000"/>
     <use xlink:href="#m7fd6301793" x="178.152576" y="275.945075" style="stroke: #000000"/>
     <use xlink:href="#m7fd6301793" x="232.428197" y="242.928865" style="stroke: #000000"/>
     <use xlink:href="#m7fd6301793" x="141.095272" y="277.061265" style="stroke: #000000"/>
     <use xlink:href="#m7fd6301793" x="241.792018" y="268.916953" style="stroke: #000000"/>
     <use xlink:href="#m7fd6301793" x="268.419212" y="284.492727" style="stroke: #000000"/>
     <use xlink:href="#m7fd6301793" x="203.458171" y="280.746542" style="stroke: #000000"/>
     <use xlink:href="#m7fd6301793" x="171.694768" y="264.003059" style="stroke: #000000"/>
     <use xlink:href="#m7fd6301793" x="339.860587" y="277.131759" style="stroke: #000000"/>
     <use xlink:href="#m7fd6301793" x="216.75675" y="242.453633" style="stroke: #000000"/>
     <use xlink:href="#m7fd6301793" x="157.134664" y="287.647579" style="stroke: #000000"/>
     <use xlink:href="#m7fd6301793" x="149.760749" y="268.196649" style="stroke: #000000"/>
     <use xlink:href="#m7fd6301793" x="382.985226" y="285.248747" style="stroke: #000000"/>
     <use xlink:href="#m7fd6301793" x="264.124019" y="276.945349" style="stroke: #000000"/>
     <use xlink:href="#m7fd6301793" x="318.332058" y="253.446972" style="stroke: #000000"/>
     <use xlink:href="#m7fd6301793" x="127.646512" y="269.603205" style="stroke: #000000"/>
     <use xlink:href="#m7fd6301793" x="170.726097" y="259.193066" style="stroke: #000000"/>
     <use xlink:href="#m7fd6301793" x="215.540279" y="264.163045" style="stroke: #000000"/>
     <use xlink:href="#m7fd6301793" x="227.464696" y="252.320709" style="stroke: #000000"/>
     <use xlink:href="#m7fd6301793" x="169.502117" y="253.306513" style="stroke: #000000"/>
     <use xlink:href="#m7fd6301793" x="252.770291" y="275.956073" style="stroke: #000000"/>
     <use xlink:href="#m7fd6301793" x="104.323313" y="259.17946" style="stroke: #000000"/>
     <use xlink:href="#m7fd6301793" x="244.773123" y="255.634339" style="stroke: #000000"/>
     <use xlink:href="#m7fd6301793" x="137.723696" y="244.195153" style="stroke: #000000"/>
     <use xlink:href="#m7fd6301793" x="338.216099" y="292.404062" style="stroke: #000000"/>
     <use xlink:href="#m7fd6301793" x="229.319438" y="259.177827" style="stroke: #000000"/>
     <use xlink:href="#m7fd6301793" x="240.162548" y="291.628698" style="stroke: #000000"/>
     <use xlink:href="#m7fd6301793" x="142.717233" y="272.840825" style="stroke: #000000"/>
     <use xlink:href="#m7fd6301793" x="166.836394" y="240.025771" style="stroke: #000000"/>
     <use xlink:href="#m7fd6301793" x="230.723636" y="285.906991" style="stroke: #000000"/>
     <use xlink:href="#m7fd6301793" x="152.614199" y="268.960217" style="stroke: #000000"/>
     <use xlink:href="#m7fd6301793" x="159.252224" y="270.278496" style="stroke: #000000"/>
     <use xlink:href="#m7fd6301793" x="288.873942" y="257.71199" style="stroke: #000000"/>
     <use xlink:href="#m7fd6301793" x="431.719148" y="234.418633" style="stroke: #000000"/>
     <use xlink:href="#m7fd6301793" x="189.130849" y="277.404157" style="stroke: #000000"/>
     <use xlink:href="#m7fd6301793" x="189.746593" y="264.40353" style="stroke: #000000"/>
    </g>
   </g>
   <g id="patch_3">
    <path d="M 47.82125 303.64 
L 47.82125 46.675714 
" style="fill: none; stroke: #000000; stroke-width: 0.8; stroke-linejoin: miter; stroke-linecap: square"/>
   </g>
   <g id="patch_4">
    <path d="M 450 303.64 
L 450 46.675714 
" style="fill: none; stroke: #000000; stroke-width: 0.8; stroke-linejoin: miter; stroke-linecap: square"/>
   </g>
   <g id="patch_5">
    <path d="M 47.82125 303.64 
L 450 303.64 
" style="fill: none; stroke: #000000; stroke-width: 0.8; stroke-linejoin: miter; stroke-linecap: square"/>
   </g>
   <g id="patch_6">
    <path d="M 47.82125 46.675714 
L 450 46.675714 
" style="fill: none; stroke: #000000; stroke-width: 0.8; stroke-linejoin: miter; stroke-linecap: square"/>
   </g>
   <g id="text_15">
    <!-- y = -0.00x + 0.28 -->
    <g transform="translate(43.314906 18.599375)scale(0.1 -0.1)">
     <defs>
      <path id="DejaVuSans-79" d="M 2059 -325 
Q 1816 -950 1584 -1140 
Q 1353 -1331 966 -1331 
L 506 -1331 
L 506 -850 
L 844 -850 
Q 1081 -850 1212 -737 
Q 1344 -625 1503 -206 
L 1606 56 
L 191 3500 
L 800 3500 
L 1894 763 
L 2988 3500 
L 3597 3500 
L 2059 -325 
z
" transform="scale(0.015625)"/>
      <path id="DejaVuSans-20" transform="scale(0.015625)"/>
      <path id="DejaVuSans-3d" d="M 678 2906 
L 4684 2906 
L 4684 2381 
L 678 2381 
L 678 2906 
z
M 678 1631 
L 4684 1631 
L 4684 1100 
L 678 1100 
L 678 1631 
z
" transform="scale(0.015625)"/>
      <path id="DejaVuSans-2d" d="M 313 2009 
L 1997 2009 
L 1997 1497 
L 313 1497 
L 313 2009 
z
" transform="scale(0.015625)"/>
      <path id="DejaVuSans-78" d="M 3513 3500 
L 2247 1797 
L 3578 0 
L 2900 0 
L 1881 1375 
L 863 0 
L 184 0 
L 1544 1831 
L 300 3500 
L 978 3500 
L 1906 2253 
L 2834 3500 
L 3513 3500 
z
" transform="scale(0.015625)"/>
      <path id="DejaVuSans-2b" d="M 2944 4013 
L 2944 2272 
L 4684 2272 
L 4684 1741 
L 2944 1741 
L 2944 0 
L 2419 0 
L 2419 1741 
L 678 1741 
L 678 2272 
L 2419 2272 
L 2419 4013 
L 2944 4013 
z
" transform="scale(0.015625)"/>
     </defs>
     <use xlink:href="#DejaVuSans-79"/>
     <use xlink:href="#DejaVuSans-20" x="59.179688"/>
     <use xlink:href="#DejaVuSans-3d" x="90.966797"/>
     <use xlink:href="#DejaVuSans-20" x="174.755859"/>
     <use xlink:href="#DejaVuSans-2d" x="206.542969"/>
     <use xlink:href="#DejaVuSans-30" x="242.626953"/>
     <use xlink:href="#DejaVuSans-2e" x="306.25"/>
     <use xlink:href="#DejaVuSans-30" x="338.037109"/>
     <use xlink:href="#DejaVuSans-30" x="401.660156"/>
     <use xlink:href="#DejaVuSans-78" x="465.283203"/>
     <use xlink:href="#DejaVuSans-20" x="524.462891"/>
     <use xlink:href="#DejaVuSans-2b" x="556.25"/>
     <use xlink:href="#DejaVuSans-20" x="640.039062"/>
     <use xlink:href="#DejaVuSans-30" x="671.826172"/>
     <use xlink:href="#DejaVuSans-2e" x="735.449219"/>
     <use xlink:href="#DejaVuSans-32" x="767.236328"/>
     <use xlink:href="#DejaVuSans-38" x="830.859375"/>
    </g>
   </g>
   <g id="text_16">
    <!-- r^2 = 0.01 -->
    <g transform="translate(60.111781 26.308304)scale(0.1 -0.1)">
     <defs>
      <path id="DejaVuSans-5e" d="M 2988 4666 
L 4684 2925 
L 4056 2925 
L 2681 4159 
L 1306 2925 
L 678 2925 
L 2375 4666 
L 2988 4666 
z
" transform="scale(0.015625)"/>
     </defs>
     <use xlink:href="#DejaVuSans-72"/>
     <use xlink:href="#DejaVuSans-5e" x="41.113281"/>
     <use xlink:href="#DejaVuSans-32" x="124.902344"/>
     <use xlink:href="#DejaVuSans-20" x="188.525391"/>
     <use xlink:href="#DejaVuSans-3d" x="220.3125"/>
     <use xlink:href="#DejaVuSans-20" x="304.101562"/>
     <use xlink:href="#DejaVuSans-30" x="335.888672"/>
     <use xlink:href="#DejaVuSans-2e" x="399.511719"/>
     <use xlink:href="#DejaVuSans-30" x="431.298828"/>
     <use xlink:href="#DejaVuSans-31" x="494.921875"/>
    </g>
   </g>
   <g id="text_17">
    <!-- n = 63 -->
    <g transform="translate(71.139906 34.017232)scale(0.1 -0.1)">
     <use xlink:href="#DejaVuSans-6e"/>
     <use xlink:href="#DejaVuSans-20" x="63.378906"/>
     <use xlink:href="#DejaVuSans-3d" x="95.166016"/>
     <use xlink:href="#DejaVuSans-20" x="178.955078"/>
     <use xlink:href="#DejaVuSans-36" x="210.742188"/>
     <use xlink:href="#DejaVuSans-33" x="274.365234"/>
    </g>
   </g>
   <g id="text_18">
    <!-- SasaDiff vs PercentGpA_transformed -->
    <g transform="translate(138.574375 40.675714)scale(0.12 -0.12)">
     <defs>
      <path id="DejaVuSans-76" d="M 191 3500 
L 800 3500 
L 1894 563 
L 2988 3500 
L 3597 3500 
L 2284 0 
L 1503 0 
L 191 3500 
z
" transform="scale(0.015625)"/>
     </defs>
     <use xlink:href="#DejaVuSans-53"/>
     <use xlink:href="#DejaVuSans-61" x="63.476562"/>
     <use xlink:href="#DejaVuSans-73" x="124.755859"/>
     <use xlink:href="#DejaVuSans-61" x="176.855469"/>
     <use xlink:href="#DejaVuSans-44" x="238.134766"/>
     <use xlink:href="#DejaVuSans-69" x="315.136719"/>
     <use xlink:href="#DejaVuSans-66" x="342.919922"/>
     <use xlink:href="#DejaVuSans-66" x="378.125"/>
     <use xlink:href="#DejaVuSans-20" x="413.330078"/>
     <use xlink:href="#DejaVuSans-76" x="445.117188"/>
     <use xlink:href="#DejaVuSans-73" x="504.296875"/>
     <use xlink:href="#DejaVuSans-20" x="556.396484"/>
     <use xlink:href="#DejaVuSans-50" x="588.183594"/>
     <use xlink:href="#DejaVuSans-65" x="644.861328"/>
     <use xlink:href="#DejaVuSans-72" x="706.384766"/>
     <use xlink:href="#DejaVuSans-63" x="745.248047"/>
     <use xlink:href="#DejaVuSans-65" x="800.228516"/>
     <use xlink:href="#DejaVuSans-6e" x="861.751953"/>
     <use xlink:href="#DejaVuSans-74" x="925.130859"/>
     <use xlink:href="#DejaVuSans-47" x="964.339844"/>
     <use xlink:href="#DejaVuSans-70" x="1041.830078"/>
     <use xlink:href="#DejaVuSans-41" x="1105.306641"/>
     <use xlink:href="#DejaVuSans-5f" x="1173.714844"/>
     <use xlink:href="#DejaVuSans-74" x="1223.714844"/>
     <use xlink:href="#DejaVuSans-72" x="1262.923828"/>
     <use xlink:href="#DejaVuSans-61" x="1304.037109"/>
     <use xlink:href="#DejaVuSans-6e" x="1365.316406"/>
     <use xlink:href="#DejaVuSans-73" x="1428.695312"/>
     <use xlink:href="#DejaVuSans-66" x="1480.794922"/>
     <use xlink:href="#DejaVuSans-6f" x="1516"/>
     <use xlink:href="#DejaVuSans-72" x="1577.181641"/>
     <use xlink:href="#DejaVuSans-6d" x="1616.544922"/>
     <use xlink:href="#DejaVuSans-65" x="1713.957031"/>
     <use xlink:href="#DejaVuSans-64" x="1775.480469"/>
    </g>
   </g>
  </g>
 </g>
 <defs>
  <clipPath id="p92ee95e2f2">
   <rect x="47.82125" y="46.675714" width="402.17875" height="256.964286"/>
  </clipPath>
 </defs>
</svg>
