<?xml version="1.0" encoding="utf-8" standalone="no"?>
<!DOCTYPE svg PUBLIC "-//W3C//DTD SVG 1.1//EN"
  "http://www.w3.org/Graphics/SVG/1.1/DTD/svg11.dtd">
<svg xmlns:xlink="http://www.w3.org/1999/xlink" width="460.8pt" height="345.6pt" viewBox="0 0 460.8 345.6" xmlns="http://www.w3.org/2000/svg" version="1.1">
 <metadata>
  <rdf:RDF xmlns:dc="http://purl.org/dc/elements/1.1/" xmlns:cc="http://creativecommons.org/ns#" xmlns:rdf="http://www.w3.org/1999/02/22-rdf-syntax-ns#">
   <cc:Work>
    <dc:type rdf:resource="http://purl.org/dc/dcmitype/StillImage"/>
    <dc:date>2024-02-03T13:11:07.438736</dc:date>
    <dc:format>image/svg+xml</dc:format>
    <dc:creator>
     <cc:Agent>
      <dc:title>Matplotlib v3.5.3, https://matplotlib.org/</dc:title>
     </cc:Agent>
    </dc:creator>
   </cc:Work>
  </rdf:RDF>
 </metadata>
 <defs>
  <style type="text/css">*{stroke-linejoin: round; stroke-linecap: butt}</style>
 </defs>
 <g id="figure_1">
  <g id="patch_1">
   <path d="M 0 345.6 
L 460.8 345.6 
L 460.8 0 
L 0 0 
z
" style="fill: #ffffff"/>
  </g>
  <g id="axes_1">
   <g id="patch_2">
    <path d="M 47.82125 303.64 
L 450 303.64 
L 450 46.675714 
L 47.82125 46.675714 
z
" style="fill: #ffffff"/>
   </g>
   <g id="PathCollection_1">
    <defs>
     <path id="m14d00bbe97" d="M 0 3 
C 0.795609 3 1.55874 2.683901 2.12132 2.12132 
C 2.683901 1.55874 3 0.795609 3 0 
C 3 -0.795609 2.683901 -1.55874 2.12132 -2.12132 
C 1.55874 -2.683901 0.795609 -3 0 -3 
C -0.795609 -3 -1.55874 -2.683901 -2.12132 -2.12132 
C -2.683901 -1.55874 -3 -0.795609 -3 0 
C -3 0.795609 -2.683901 1.55874 -2.12132 2.12132 
C -1.55874 2.683901 -0.795609 3 0 3 
z
" style="stroke: #1f77b4"/>
    </defs>
    <g clip-path="url(#p61f51cbcce)">
     <use xlink:href="#m14d00bbe97" x="110.058022" y="205.719849" style="fill: #1f77b4; stroke: #1f77b4"/>
     <use xlink:href="#m14d00bbe97" x="248.240944" y="177.440388" style="fill: #1f77b4; stroke: #1f77b4"/>
     <use xlink:href="#m14d00bbe97" x="145.950765" y="150.567507" style="fill: #1f77b4; stroke: #1f77b4"/>
     <use xlink:href="#m14d00bbe97" x="333.357044" y="175.440899" style="fill: #1f77b4; stroke: #1f77b4"/>
     <use xlink:href="#m14d00bbe97" x="212.616433" y="193.508354" style="fill: #1f77b4; stroke: #1f77b4"/>
     <use xlink:href="#m14d00bbe97" x="105.764502" y="234.710787" style="fill: #1f77b4; stroke: #1f77b4"/>
     <use xlink:href="#m14d00bbe97" x="177.585994" y="232.715015" style="fill: #1f77b4; stroke: #1f77b4"/>
     <use xlink:href="#m14d00bbe97" x="284.864576" y="178.749459" style="fill: #1f77b4; stroke: #1f77b4"/>
     <use xlink:href="#m14d00bbe97" x="92.682319" y="230.206821" style="fill: #1f77b4; stroke: #1f77b4"/>
     <use xlink:href="#m14d00bbe97" x="133.216024" y="182.557194" style="fill: #1f77b4; stroke: #1f77b4"/>
     <use xlink:href="#m14d00bbe97" x="155.747551" y="217.221347" style="fill: #1f77b4; stroke: #1f77b4"/>
     <use xlink:href="#m14d00bbe97" x="284.412721" y="199.759439" style="fill: #1f77b4; stroke: #1f77b4"/>
     <use xlink:href="#m14d00bbe97" x="120.551492" y="158.227539" style="fill: #1f77b4; stroke: #1f77b4"/>
     <use xlink:href="#m14d00bbe97" x="178.810142" y="200.78217" style="fill: #1f77b4; stroke: #1f77b4"/>
     <use xlink:href="#m14d00bbe97" x="287.147252" y="203.081034" style="fill: #1f77b4; stroke: #1f77b4"/>
     <use xlink:href="#m14d00bbe97" x="253.130336" y="175.576796" style="fill: #1f77b4; stroke: #1f77b4"/>
     <use xlink:href="#m14d00bbe97" x="213.291515" y="210.866835" style="fill: #1f77b4; stroke: #1f77b4"/>
     <use xlink:href="#m14d00bbe97" x="286.933026" y="199.099233" style="fill: #1f77b4; stroke: #1f77b4"/>
     <use xlink:href="#m14d00bbe97" x="360.455724" y="191.630438" style="fill: #1f77b4; stroke: #1f77b4"/>
     <use xlink:href="#m14d00bbe97" x="215.098933" y="208.526422" style="fill: #1f77b4; stroke: #1f77b4"/>
     <use xlink:href="#m14d00bbe97" x="142.948002" y="149.269882" style="fill: #1f77b4; stroke: #1f77b4"/>
     <use xlink:href="#m14d00bbe97" x="282.441483" y="214.820778" style="fill: #1f77b4; stroke: #1f77b4"/>
     <use xlink:href="#m14d00bbe97" x="270.147795" y="145.079102" style="fill: #1f77b4; stroke: #1f77b4"/>
     <use xlink:href="#m14d00bbe97" x="215.23935" y="189.194184" style="fill: #1f77b4; stroke: #1f77b4"/>
     <use xlink:href="#m14d00bbe97" x="178.532908" y="254.214406" style="fill: #1f77b4; stroke: #1f77b4"/>
     <use xlink:href="#m14d00bbe97" x="184.293605" y="133.686379" style="fill: #1f77b4; stroke: #1f77b4"/>
     <use xlink:href="#m14d00bbe97" x="205.591983" y="218.288704" style="fill: #1f77b4; stroke: #1f77b4"/>
     <use xlink:href="#m14d00bbe97" x="224.429462" y="150.486007" style="fill: #1f77b4; stroke: #1f77b4"/>
     <use xlink:href="#m14d00bbe97" x="193.861763" y="185.082204" style="fill: #1f77b4; stroke: #1f77b4"/>
     <use xlink:href="#m14d00bbe97" x="193.984178" y="157.91772" style="fill: #1f77b4; stroke: #1f77b4"/>
     <use xlink:href="#m14d00bbe97" x="208.479532" y="221.481099" style="fill: #1f77b4; stroke: #1f77b4"/>
     <use xlink:href="#m14d00bbe97" x="332.842182" y="230.920552" style="fill: #1f77b4; stroke: #1f77b4"/>
     <use xlink:href="#m14d00bbe97" x="258.440978" y="194.928022" style="fill: #1f77b4; stroke: #1f77b4"/>
     <use xlink:href="#m14d00bbe97" x="243.126525" y="238.263746" style="fill: #1f77b4; stroke: #1f77b4"/>
     <use xlink:href="#m14d00bbe97" x="239.005826" y="197.229554" style="fill: #1f77b4; stroke: #1f77b4"/>
     <use xlink:href="#m14d00bbe97" x="288.686439" y="258.797791" style="fill: #1f77b4; stroke: #1f77b4"/>
     <use xlink:href="#m14d00bbe97" x="280.68267" y="202.501141" style="fill: #1f77b4; stroke: #1f77b4"/>
     <use xlink:href="#m14d00bbe97" x="267.63109" y="223.992278" style="fill: #1f77b4; stroke: #1f77b4"/>
     <use xlink:href="#m14d00bbe97" x="326.109367" y="185.74614" style="fill: #1f77b4; stroke: #1f77b4"/>
     <use xlink:href="#m14d00bbe97" x="278.320784" y="204.375741" style="fill: #1f77b4; stroke: #1f77b4"/>
     <use xlink:href="#m14d00bbe97" x="246.348915" y="235.79638" style="fill: #1f77b4; stroke: #1f77b4"/>
     <use xlink:href="#m14d00bbe97" x="66.102102" y="231.461355" style="fill: #1f77b4; stroke: #1f77b4"/>
     <use xlink:href="#m14d00bbe97" x="249.250866" y="217.365152" style="fill: #1f77b4; stroke: #1f77b4"/>
     <use xlink:href="#m14d00bbe97" x="247.034798" y="230.519128" style="fill: #1f77b4; stroke: #1f77b4"/>
     <use xlink:href="#m14d00bbe97" x="216.63992" y="216.131528" style="fill: #1f77b4; stroke: #1f77b4"/>
     <use xlink:href="#m14d00bbe97" x="297.422896" y="118.216097" style="fill: #1f77b4; stroke: #1f77b4"/>
     <use xlink:href="#m14d00bbe97" x="308.074785" y="196.712494" style="fill: #1f77b4; stroke: #1f77b4"/>
     <use xlink:href="#m14d00bbe97" x="264.302488" y="174.264275" style="fill: #1f77b4; stroke: #1f77b4"/>
     <use xlink:href="#m14d00bbe97" x="431.719148" y="211.249236" style="fill: #1f77b4; stroke: #1f77b4"/>
     <use xlink:href="#m14d00bbe97" x="300.828908" y="221.611259" style="fill: #1f77b4; stroke: #1f77b4"/>
     <use xlink:href="#m14d00bbe97" x="264.628327" y="70.513844" style="fill: #1f77b4; stroke: #1f77b4"/>
    </g>
   </g>
   <g id="matplotlib.axis_1">
    <g id="xtick_1">
     <g id="line2d_1">
      <defs>
       <path id="m4125db4e55" d="M 0 0 
L 0 3.5 
" style="stroke: #000000; stroke-width: 0.8"/>
      </defs>
      <g>
       <use xlink:href="#m4125db4e55" x="53.169337" y="303.64" style="stroke: #000000; stroke-width: 0.8"/>
      </g>
     </g>
     <g id="text_1">
      <!-- −37.5 -->
      <g transform="translate(37.846681 318.238437)scale(0.1 -0.1)">
       <defs>
        <path id="DejaVuSans-2212" d="M 678 2272 
L 4684 2272 
L 4684 1741 
L 678 1741 
L 678 2272 
z
" transform="scale(0.015625)"/>
        <path id="DejaVuSans-33" d="M 2597 2516 
Q 3050 2419 3304 2112 
Q 3559 1806 3559 1356 
Q 3559 666 3084 287 
Q 2609 -91 1734 -91 
Q 1441 -91 1130 -33 
Q 819 25 488 141 
L 488 750 
Q 750 597 1062 519 
Q 1375 441 1716 441 
Q 2309 441 2620 675 
Q 2931 909 2931 1356 
Q 2931 1769 2642 2001 
Q 2353 2234 1838 2234 
L 1294 2234 
L 1294 2753 
L 1863 2753 
Q 2328 2753 2575 2939 
Q 2822 3125 2822 3475 
Q 2822 3834 2567 4026 
Q 2313 4219 1838 4219 
Q 1578 4219 1281 4162 
Q 984 4106 628 3988 
L 628 4550 
Q 988 4650 1302 4700 
Q 1616 4750 1894 4750 
Q 2613 4750 3031 4423 
Q 3450 4097 3450 3541 
Q 3450 3153 3228 2886 
Q 3006 2619 2597 2516 
z
" transform="scale(0.015625)"/>
        <path id="DejaVuSans-37" d="M 525 4666 
L 3525 4666 
L 3525 4397 
L 1831 0 
L 1172 0 
L 2766 4134 
L 525 4134 
L 525 4666 
z
" transform="scale(0.015625)"/>
        <path id="DejaVuSans-2e" d="M 684 794 
L 1344 794 
L 1344 0 
L 684 0 
L 684 794 
z
" transform="scale(0.015625)"/>
        <path id="DejaVuSans-35" d="M 691 4666 
L 3169 4666 
L 3169 4134 
L 1269 4134 
L 1269 2991 
Q 1406 3038 1543 3061 
Q 1681 3084 1819 3084 
Q 2600 3084 3056 2656 
Q 3513 2228 3513 1497 
Q 3513 744 3044 326 
Q 2575 -91 1722 -91 
Q 1428 -91 1123 -41 
Q 819 9 494 109 
L 494 744 
Q 775 591 1075 516 
Q 1375 441 1709 441 
Q 2250 441 2565 725 
Q 2881 1009 2881 1497 
Q 2881 1984 2565 2268 
Q 2250 2553 1709 2553 
Q 1456 2553 1204 2497 
Q 953 2441 691 2322 
L 691 4666 
z
" transform="scale(0.015625)"/>
       </defs>
       <use xlink:href="#DejaVuSans-2212"/>
       <use xlink:href="#DejaVuSans-33" x="83.789062"/>
       <use xlink:href="#DejaVuSans-37" x="147.412109"/>
       <use xlink:href="#DejaVuSans-2e" x="211.035156"/>
       <use xlink:href="#DejaVuSans-35" x="242.822266"/>
      </g>
     </g>
    </g>
    <g id="xtick_2">
     <g id="line2d_2">
      <g>
       <use xlink:href="#m4125db4e55" x="98.174784" y="303.64" style="stroke: #000000; stroke-width: 0.8"/>
      </g>
     </g>
     <g id="text_2">
      <!-- −35.0 -->
      <g transform="translate(82.852127 318.238437)scale(0.1 -0.1)">
       <defs>
        <path id="DejaVuSans-30" d="M 2034 4250 
Q 1547 4250 1301 3770 
Q 1056 3291 1056 2328 
Q 1056 1369 1301 889 
Q 1547 409 2034 409 
Q 2525 409 2770 889 
Q 3016 1369 3016 2328 
Q 3016 3291 2770 3770 
Q 2525 4250 2034 4250 
z
M 2034 4750 
Q 2819 4750 3233 4129 
Q 3647 3509 3647 2328 
Q 3647 1150 3233 529 
Q 2819 -91 2034 -91 
Q 1250 -91 836 529 
Q 422 1150 422 2328 
Q 422 3509 836 4129 
Q 1250 4750 2034 4750 
z
" transform="scale(0.015625)"/>
       </defs>
       <use xlink:href="#DejaVuSans-2212"/>
       <use xlink:href="#DejaVuSans-33" x="83.789062"/>
       <use xlink:href="#DejaVuSans-35" x="147.412109"/>
       <use xlink:href="#DejaVuSans-2e" x="211.035156"/>
       <use xlink:href="#DejaVuSans-30" x="242.822266"/>
      </g>
     </g>
    </g>
    <g id="xtick_3">
     <g id="line2d_3">
      <g>
       <use xlink:href="#m4125db4e55" x="143.18023" y="303.64" style="stroke: #000000; stroke-width: 0.8"/>
      </g>
     </g>
     <g id="text_3">
      <!-- −32.5 -->
      <g transform="translate(127.857574 318.238437)scale(0.1 -0.1)">
       <defs>
        <path id="DejaVuSans-32" d="M 1228 531 
L 3431 531 
L 3431 0 
L 469 0 
L 469 531 
Q 828 903 1448 1529 
Q 2069 2156 2228 2338 
Q 2531 2678 2651 2914 
Q 2772 3150 2772 3378 
Q 2772 3750 2511 3984 
Q 2250 4219 1831 4219 
Q 1534 4219 1204 4116 
Q 875 4013 500 3803 
L 500 4441 
Q 881 4594 1212 4672 
Q 1544 4750 1819 4750 
Q 2544 4750 2975 4387 
Q 3406 4025 3406 3419 
Q 3406 3131 3298 2873 
Q 3191 2616 2906 2266 
Q 2828 2175 2409 1742 
Q 1991 1309 1228 531 
z
" transform="scale(0.015625)"/>
       </defs>
       <use xlink:href="#DejaVuSans-2212"/>
       <use xlink:href="#DejaVuSans-33" x="83.789062"/>
       <use xlink:href="#DejaVuSans-32" x="147.412109"/>
       <use xlink:href="#DejaVuSans-2e" x="211.035156"/>
       <use xlink:href="#DejaVuSans-35" x="242.822266"/>
      </g>
     </g>
    </g>
    <g id="xtick_4">
     <g id="line2d_4">
      <g>
       <use xlink:href="#m4125db4e55" x="188.185676" y="303.64" style="stroke: #000000; stroke-width: 0.8"/>
      </g>
     </g>
     <g id="text_4">
      <!-- −30.0 -->
      <g transform="translate(172.86302 318.238437)scale(0.1 -0.1)">
       <use xlink:href="#DejaVuSans-2212"/>
       <use xlink:href="#DejaVuSans-33" x="83.789062"/>
       <use xlink:href="#DejaVuSans-30" x="147.412109"/>
       <use xlink:href="#DejaVuSans-2e" x="211.035156"/>
       <use xlink:href="#DejaVuSans-30" x="242.822266"/>
      </g>
     </g>
    </g>
    <g id="xtick_5">
     <g id="line2d_5">
      <g>
       <use xlink:href="#m4125db4e55" x="233.191123" y="303.64" style="stroke: #000000; stroke-width: 0.8"/>
      </g>
     </g>
     <g id="text_5">
      <!-- −27.5 -->
      <g transform="translate(217.868466 318.238437)scale(0.1 -0.1)">
       <use xlink:href="#DejaVuSans-2212"/>
       <use xlink:href="#DejaVuSans-32" x="83.789062"/>
       <use xlink:href="#DejaVuSans-37" x="147.412109"/>
       <use xlink:href="#DejaVuSans-2e" x="211.035156"/>
       <use xlink:href="#DejaVuSans-35" x="242.822266"/>
      </g>
     </g>
    </g>
    <g id="xtick_6">
     <g id="line2d_6">
      <g>
       <use xlink:href="#m4125db4e55" x="278.196569" y="303.64" style="stroke: #000000; stroke-width: 0.8"/>
      </g>
     </g>
     <g id="text_6">
      <!-- −25.0 -->
      <g transform="translate(262.873913 318.238437)scale(0.1 -0.1)">
       <use xlink:href="#DejaVuSans-2212"/>
       <use xlink:href="#DejaVuSans-32" x="83.789062"/>
       <use xlink:href="#DejaVuSans-35" x="147.412109"/>
       <use xlink:href="#DejaVuSans-2e" x="211.035156"/>
       <use xlink:href="#DejaVuSans-30" x="242.822266"/>
      </g>
     </g>
    </g>
    <g id="xtick_7">
     <g id="line2d_7">
      <g>
       <use xlink:href="#m4125db4e55" x="323.202015" y="303.64" style="stroke: #000000; stroke-width: 0.8"/>
      </g>
     </g>
     <g id="text_7">
      <!-- −22.5 -->
      <g transform="translate(307.879359 318.238437)scale(0.1 -0.1)">
       <use xlink:href="#DejaVuSans-2212"/>
       <use xlink:href="#DejaVuSans-32" x="83.789062"/>
       <use xlink:href="#DejaVuSans-32" x="147.412109"/>
       <use xlink:href="#DejaVuSans-2e" x="211.035156"/>
       <use xlink:href="#DejaVuSans-35" x="242.822266"/>
      </g>
     </g>
    </g>
    <g id="xtick_8">
     <g id="line2d_8">
      <g>
       <use xlink:href="#m4125db4e55" x="368.207462" y="303.64" style="stroke: #000000; stroke-width: 0.8"/>
      </g>
     </g>
     <g id="text_8">
      <!-- −20.0 -->
      <g transform="translate(352.884806 318.238437)scale(0.1 -0.1)">
       <use xlink:href="#DejaVuSans-2212"/>
       <use xlink:href="#DejaVuSans-32" x="83.789062"/>
       <use xlink:href="#DejaVuSans-30" x="147.412109"/>
       <use xlink:href="#DejaVuSans-2e" x="211.035156"/>
       <use xlink:href="#DejaVuSans-30" x="242.822266"/>
      </g>
     </g>
    </g>
    <g id="xtick_9">
     <g id="line2d_9">
      <g>
       <use xlink:href="#m4125db4e55" x="413.212908" y="303.64" style="stroke: #000000; stroke-width: 0.8"/>
      </g>
     </g>
     <g id="text_9">
      <!-- −17.5 -->
      <g transform="translate(397.890252 318.238437)scale(0.1 -0.1)">
       <defs>
        <path id="DejaVuSans-31" d="M 794 531 
L 1825 531 
L 1825 4091 
L 703 3866 
L 703 4441 
L 1819 4666 
L 2450 4666 
L 2450 531 
L 3481 531 
L 3481 0 
L 794 0 
L 794 531 
z
" transform="scale(0.015625)"/>
       </defs>
       <use xlink:href="#DejaVuSans-2212"/>
       <use xlink:href="#DejaVuSans-31" x="83.789062"/>
       <use xlink:href="#DejaVuSans-37" x="147.412109"/>
       <use xlink:href="#DejaVuSans-2e" x="211.035156"/>
       <use xlink:href="#DejaVuSans-35" x="242.822266"/>
      </g>
     </g>
    </g>
    <g id="text_10">
     <!-- VDWDiff -->
     <g transform="translate(227.937187 331.916562)scale(0.1 -0.1)">
      <defs>
       <path id="DejaVuSans-56" d="M 1831 0 
L 50 4666 
L 709 4666 
L 2188 738 
L 3669 4666 
L 4325 4666 
L 2547 0 
L 1831 0 
z
" transform="scale(0.015625)"/>
       <path id="DejaVuSans-44" d="M 1259 4147 
L 1259 519 
L 2022 519 
Q 2988 519 3436 956 
Q 3884 1394 3884 2338 
Q 3884 3275 3436 3711 
Q 2988 4147 2022 4147 
L 1259 4147 
z
M 628 4666 
L 1925 4666 
Q 3281 4666 3915 4102 
Q 4550 3538 4550 2338 
Q 4550 1131 3912 565 
Q 3275 0 1925 0 
L 628 0 
L 628 4666 
z
" transform="scale(0.015625)"/>
       <path id="DejaVuSans-57" d="M 213 4666 
L 850 4666 
L 1831 722 
L 2809 4666 
L 3519 4666 
L 4500 722 
L 5478 4666 
L 6119 4666 
L 4947 0 
L 4153 0 
L 3169 4050 
L 2175 0 
L 1381 0 
L 213 4666 
z
" transform="scale(0.015625)"/>
       <path id="DejaVuSans-69" d="M 603 3500 
L 1178 3500 
L 1178 0 
L 603 0 
L 603 3500 
z
M 603 4863 
L 1178 4863 
L 1178 4134 
L 603 4134 
L 603 4863 
z
" transform="scale(0.015625)"/>
       <path id="DejaVuSans-66" d="M 2375 4863 
L 2375 4384 
L 1825 4384 
Q 1516 4384 1395 4259 
Q 1275 4134 1275 3809 
L 1275 3500 
L 2222 3500 
L 2222 3053 
L 1275 3053 
L 1275 0 
L 697 0 
L 697 3053 
L 147 3053 
L 147 3500 
L 697 3500 
L 697 3744 
Q 697 4328 969 4595 
Q 1241 4863 1831 4863 
L 2375 4863 
z
" transform="scale(0.015625)"/>
      </defs>
      <use xlink:href="#DejaVuSans-56"/>
      <use xlink:href="#DejaVuSans-44" x="68.408203"/>
      <use xlink:href="#DejaVuSans-57" x="145.410156"/>
      <use xlink:href="#DejaVuSans-44" x="244.287109"/>
      <use xlink:href="#DejaVuSans-69" x="321.289062"/>
      <use xlink:href="#DejaVuSans-66" x="349.072266"/>
      <use xlink:href="#DejaVuSans-66" x="384.277344"/>
     </g>
    </g>
   </g>
   <g id="matplotlib.axis_2">
    <g id="ytick_1">
     <g id="line2d_10">
      <defs>
       <path id="mde286e0855" d="M 0 0 
L -3.5 0 
" style="stroke: #000000; stroke-width: 0.8"/>
      </defs>
      <g>
       <use xlink:href="#mde286e0855" x="47.82125" y="303.64" style="stroke: #000000; stroke-width: 0.8"/>
      </g>
     </g>
     <g id="text_11">
      <!-- 0.0 -->
      <g transform="translate(24.918125 307.439219)scale(0.1 -0.1)">
       <use xlink:href="#DejaVuSans-30"/>
       <use xlink:href="#DejaVuSans-2e" x="63.623047"/>
       <use xlink:href="#DejaVuSans-30" x="95.410156"/>
      </g>
     </g>
    </g>
    <g id="ytick_2">
     <g id="line2d_11">
      <g>
       <use xlink:href="#mde286e0855" x="47.82125" y="251.636237" style="stroke: #000000; stroke-width: 0.8"/>
      </g>
     </g>
     <g id="text_12">
      <!-- 0.2 -->
      <g transform="translate(24.918125 255.435455)scale(0.1 -0.1)">
       <use xlink:href="#DejaVuSans-30"/>
       <use xlink:href="#DejaVuSans-2e" x="63.623047"/>
       <use xlink:href="#DejaVuSans-32" x="95.410156"/>
      </g>
     </g>
    </g>
    <g id="ytick_3">
     <g id="line2d_12">
      <g>
       <use xlink:href="#mde286e0855" x="47.82125" y="199.632473" style="stroke: #000000; stroke-width: 0.8"/>
      </g>
     </g>
     <g id="text_13">
      <!-- 0.4 -->
      <g transform="translate(24.918125 203.431692)scale(0.1 -0.1)">
       <defs>
        <path id="DejaVuSans-34" d="M 2419 4116 
L 825 1625 
L 2419 1625 
L 2419 4116 
z
M 2253 4666 
L 3047 4666 
L 3047 1625 
L 3713 1625 
L 3713 1100 
L 3047 1100 
L 3047 0 
L 2419 0 
L 2419 1100 
L 313 1100 
L 313 1709 
L 2253 4666 
z
" transform="scale(0.015625)"/>
       </defs>
       <use xlink:href="#DejaVuSans-30"/>
       <use xlink:href="#DejaVuSans-2e" x="63.623047"/>
       <use xlink:href="#DejaVuSans-34" x="95.410156"/>
      </g>
     </g>
    </g>
    <g id="ytick_4">
     <g id="line2d_13">
      <g>
       <use xlink:href="#mde286e0855" x="47.82125" y="147.62871" style="stroke: #000000; stroke-width: 0.8"/>
      </g>
     </g>
     <g id="text_14">
      <!-- 0.6 -->
      <g transform="translate(24.918125 151.427929)scale(0.1 -0.1)">
       <defs>
        <path id="DejaVuSans-36" d="M 2113 2584 
Q 1688 2584 1439 2293 
Q 1191 2003 1191 1497 
Q 1191 994 1439 701 
Q 1688 409 2113 409 
Q 2538 409 2786 701 
Q 3034 994 3034 1497 
Q 3034 2003 2786 2293 
Q 2538 2584 2113 2584 
z
M 3366 4563 
L 3366 3988 
Q 3128 4100 2886 4159 
Q 2644 4219 2406 4219 
Q 1781 4219 1451 3797 
Q 1122 3375 1075 2522 
Q 1259 2794 1537 2939 
Q 1816 3084 2150 3084 
Q 2853 3084 3261 2657 
Q 3669 2231 3669 1497 
Q 3669 778 3244 343 
Q 2819 -91 2113 -91 
Q 1303 -91 875 529 
Q 447 1150 447 2328 
Q 447 3434 972 4092 
Q 1497 4750 2381 4750 
Q 2619 4750 2861 4703 
Q 3103 4656 3366 4563 
z
" transform="scale(0.015625)"/>
       </defs>
       <use xlink:href="#DejaVuSans-30"/>
       <use xlink:href="#DejaVuSans-2e" x="63.623047"/>
       <use xlink:href="#DejaVuSans-36" x="95.410156"/>
      </g>
     </g>
    </g>
    <g id="ytick_5">
     <g id="line2d_14">
      <g>
       <use xlink:href="#mde286e0855" x="47.82125" y="95.624947" style="stroke: #000000; stroke-width: 0.8"/>
      </g>
     </g>
     <g id="text_15">
      <!-- 0.8 -->
      <g transform="translate(24.918125 99.424166)scale(0.1 -0.1)">
       <defs>
        <path id="DejaVuSans-38" d="M 2034 2216 
Q 1584 2216 1326 1975 
Q 1069 1734 1069 1313 
Q 1069 891 1326 650 
Q 1584 409 2034 409 
Q 2484 409 2743 651 
Q 3003 894 3003 1313 
Q 3003 1734 2745 1975 
Q 2488 2216 2034 2216 
z
M 1403 2484 
Q 997 2584 770 2862 
Q 544 3141 544 3541 
Q 544 4100 942 4425 
Q 1341 4750 2034 4750 
Q 2731 4750 3128 4425 
Q 3525 4100 3525 3541 
Q 3525 3141 3298 2862 
Q 3072 2584 2669 2484 
Q 3125 2378 3379 2068 
Q 3634 1759 3634 1313 
Q 3634 634 3220 271 
Q 2806 -91 2034 -91 
Q 1263 -91 848 271 
Q 434 634 434 1313 
Q 434 1759 690 2068 
Q 947 2378 1403 2484 
z
M 1172 3481 
Q 1172 3119 1398 2916 
Q 1625 2713 2034 2713 
Q 2441 2713 2670 2916 
Q 2900 3119 2900 3481 
Q 2900 3844 2670 4047 
Q 2441 4250 2034 4250 
Q 1625 4250 1398 4047 
Q 1172 3844 1172 3481 
z
" transform="scale(0.015625)"/>
       </defs>
       <use xlink:href="#DejaVuSans-30"/>
       <use xlink:href="#DejaVuSans-2e" x="63.623047"/>
       <use xlink:href="#DejaVuSans-38" x="95.410156"/>
      </g>
     </g>
    </g>
    <g id="text_16">
     <!-- PercentGpA_transformed -->
     <g transform="translate(18.560313 237.696138)rotate(-90)scale(0.1 -0.1)">
      <defs>
       <path id="DejaVuSans-50" d="M 1259 4147 
L 1259 2394 
L 2053 2394 
Q 2494 2394 2734 2622 
Q 2975 2850 2975 3272 
Q 2975 3691 2734 3919 
Q 2494 4147 2053 4147 
L 1259 4147 
z
M 628 4666 
L 2053 4666 
Q 2838 4666 3239 4311 
Q 3641 3956 3641 3272 
Q 3641 2581 3239 2228 
Q 2838 1875 2053 1875 
L 1259 1875 
L 1259 0 
L 628 0 
L 628 4666 
z
" transform="scale(0.015625)"/>
       <path id="DejaVuSans-65" d="M 3597 1894 
L 3597 1613 
L 953 1613 
Q 991 1019 1311 708 
Q 1631 397 2203 397 
Q 2534 397 2845 478 
Q 3156 559 3463 722 
L 3463 178 
Q 3153 47 2828 -22 
Q 2503 -91 2169 -91 
Q 1331 -91 842 396 
Q 353 884 353 1716 
Q 353 2575 817 3079 
Q 1281 3584 2069 3584 
Q 2775 3584 3186 3129 
Q 3597 2675 3597 1894 
z
M 3022 2063 
Q 3016 2534 2758 2815 
Q 2500 3097 2075 3097 
Q 1594 3097 1305 2825 
Q 1016 2553 972 2059 
L 3022 2063 
z
" transform="scale(0.015625)"/>
       <path id="DejaVuSans-72" d="M 2631 2963 
Q 2534 3019 2420 3045 
Q 2306 3072 2169 3072 
Q 1681 3072 1420 2755 
Q 1159 2438 1159 1844 
L 1159 0 
L 581 0 
L 581 3500 
L 1159 3500 
L 1159 2956 
Q 1341 3275 1631 3429 
Q 1922 3584 2338 3584 
Q 2397 3584 2469 3576 
Q 2541 3569 2628 3553 
L 2631 2963 
z
" transform="scale(0.015625)"/>
       <path id="DejaVuSans-63" d="M 3122 3366 
L 3122 2828 
Q 2878 2963 2633 3030 
Q 2388 3097 2138 3097 
Q 1578 3097 1268 2742 
Q 959 2388 959 1747 
Q 959 1106 1268 751 
Q 1578 397 2138 397 
Q 2388 397 2633 464 
Q 2878 531 3122 666 
L 3122 134 
Q 2881 22 2623 -34 
Q 2366 -91 2075 -91 
Q 1284 -91 818 406 
Q 353 903 353 1747 
Q 353 2603 823 3093 
Q 1294 3584 2113 3584 
Q 2378 3584 2631 3529 
Q 2884 3475 3122 3366 
z
" transform="scale(0.015625)"/>
       <path id="DejaVuSans-6e" d="M 3513 2113 
L 3513 0 
L 2938 0 
L 2938 2094 
Q 2938 2591 2744 2837 
Q 2550 3084 2163 3084 
Q 1697 3084 1428 2787 
Q 1159 2491 1159 1978 
L 1159 0 
L 581 0 
L 581 3500 
L 1159 3500 
L 1159 2956 
Q 1366 3272 1645 3428 
Q 1925 3584 2291 3584 
Q 2894 3584 3203 3211 
Q 3513 2838 3513 2113 
z
" transform="scale(0.015625)"/>
       <path id="DejaVuSans-74" d="M 1172 4494 
L 1172 3500 
L 2356 3500 
L 2356 3053 
L 1172 3053 
L 1172 1153 
Q 1172 725 1289 603 
Q 1406 481 1766 481 
L 2356 481 
L 2356 0 
L 1766 0 
Q 1100 0 847 248 
Q 594 497 594 1153 
L 594 3053 
L 172 3053 
L 172 3500 
L 594 3500 
L 594 4494 
L 1172 4494 
z
" transform="scale(0.015625)"/>
       <path id="DejaVuSans-47" d="M 3809 666 
L 3809 1919 
L 2778 1919 
L 2778 2438 
L 4434 2438 
L 4434 434 
Q 4069 175 3628 42 
Q 3188 -91 2688 -91 
Q 1594 -91 976 548 
Q 359 1188 359 2328 
Q 359 3472 976 4111 
Q 1594 4750 2688 4750 
Q 3144 4750 3555 4637 
Q 3966 4525 4313 4306 
L 4313 3634 
Q 3963 3931 3569 4081 
Q 3175 4231 2741 4231 
Q 1884 4231 1454 3753 
Q 1025 3275 1025 2328 
Q 1025 1384 1454 906 
Q 1884 428 2741 428 
Q 3075 428 3337 486 
Q 3600 544 3809 666 
z
" transform="scale(0.015625)"/>
       <path id="DejaVuSans-70" d="M 1159 525 
L 1159 -1331 
L 581 -1331 
L 581 3500 
L 1159 3500 
L 1159 2969 
Q 1341 3281 1617 3432 
Q 1894 3584 2278 3584 
Q 2916 3584 3314 3078 
Q 3713 2572 3713 1747 
Q 3713 922 3314 415 
Q 2916 -91 2278 -91 
Q 1894 -91 1617 61 
Q 1341 213 1159 525 
z
M 3116 1747 
Q 3116 2381 2855 2742 
Q 2594 3103 2138 3103 
Q 1681 3103 1420 2742 
Q 1159 2381 1159 1747 
Q 1159 1113 1420 752 
Q 1681 391 2138 391 
Q 2594 391 2855 752 
Q 3116 1113 3116 1747 
z
" transform="scale(0.015625)"/>
       <path id="DejaVuSans-41" d="M 2188 4044 
L 1331 1722 
L 3047 1722 
L 2188 4044 
z
M 1831 4666 
L 2547 4666 
L 4325 0 
L 3669 0 
L 3244 1197 
L 1141 1197 
L 716 0 
L 50 0 
L 1831 4666 
z
" transform="scale(0.015625)"/>
       <path id="DejaVuSans-5f" d="M 3263 -1063 
L 3263 -1509 
L -63 -1509 
L -63 -1063 
L 3263 -1063 
z
" transform="scale(0.015625)"/>
       <path id="DejaVuSans-61" d="M 2194 1759 
Q 1497 1759 1228 1600 
Q 959 1441 959 1056 
Q 959 750 1161 570 
Q 1363 391 1709 391 
Q 2188 391 2477 730 
Q 2766 1069 2766 1631 
L 2766 1759 
L 2194 1759 
z
M 3341 1997 
L 3341 0 
L 2766 0 
L 2766 531 
Q 2569 213 2275 61 
Q 1981 -91 1556 -91 
Q 1019 -91 701 211 
Q 384 513 384 1019 
Q 384 1609 779 1909 
Q 1175 2209 1959 2209 
L 2766 2209 
L 2766 2266 
Q 2766 2663 2505 2880 
Q 2244 3097 1772 3097 
Q 1472 3097 1187 3025 
Q 903 2953 641 2809 
L 641 3341 
Q 956 3463 1253 3523 
Q 1550 3584 1831 3584 
Q 2591 3584 2966 3190 
Q 3341 2797 3341 1997 
z
" transform="scale(0.015625)"/>
       <path id="DejaVuSans-73" d="M 2834 3397 
L 2834 2853 
Q 2591 2978 2328 3040 
Q 2066 3103 1784 3103 
Q 1356 3103 1142 2972 
Q 928 2841 928 2578 
Q 928 2378 1081 2264 
Q 1234 2150 1697 2047 
L 1894 2003 
Q 2506 1872 2764 1633 
Q 3022 1394 3022 966 
Q 3022 478 2636 193 
Q 2250 -91 1575 -91 
Q 1294 -91 989 -36 
Q 684 19 347 128 
L 347 722 
Q 666 556 975 473 
Q 1284 391 1588 391 
Q 1994 391 2212 530 
Q 2431 669 2431 922 
Q 2431 1156 2273 1281 
Q 2116 1406 1581 1522 
L 1381 1569 
Q 847 1681 609 1914 
Q 372 2147 372 2553 
Q 372 3047 722 3315 
Q 1072 3584 1716 3584 
Q 2034 3584 2315 3537 
Q 2597 3491 2834 3397 
z
" transform="scale(0.015625)"/>
       <path id="DejaVuSans-6f" d="M 1959 3097 
Q 1497 3097 1228 2736 
Q 959 2375 959 1747 
Q 959 1119 1226 758 
Q 1494 397 1959 397 
Q 2419 397 2687 759 
Q 2956 1122 2956 1747 
Q 2956 2369 2687 2733 
Q 2419 3097 1959 3097 
z
M 1959 3584 
Q 2709 3584 3137 3096 
Q 3566 2609 3566 1747 
Q 3566 888 3137 398 
Q 2709 -91 1959 -91 
Q 1206 -91 779 398 
Q 353 888 353 1747 
Q 353 2609 779 3096 
Q 1206 3584 1959 3584 
z
" transform="scale(0.015625)"/>
       <path id="DejaVuSans-6d" d="M 3328 2828 
Q 3544 3216 3844 3400 
Q 4144 3584 4550 3584 
Q 5097 3584 5394 3201 
Q 5691 2819 5691 2113 
L 5691 0 
L 5113 0 
L 5113 2094 
Q 5113 2597 4934 2840 
Q 4756 3084 4391 3084 
Q 3944 3084 3684 2787 
Q 3425 2491 3425 1978 
L 3425 0 
L 2847 0 
L 2847 2094 
Q 2847 2600 2669 2842 
Q 2491 3084 2119 3084 
Q 1678 3084 1418 2786 
Q 1159 2488 1159 1978 
L 1159 0 
L 581 0 
L 581 3500 
L 1159 3500 
L 1159 2956 
Q 1356 3278 1631 3431 
Q 1906 3584 2284 3584 
Q 2666 3584 2933 3390 
Q 3200 3197 3328 2828 
z
" transform="scale(0.015625)"/>
       <path id="DejaVuSans-64" d="M 2906 2969 
L 2906 4863 
L 3481 4863 
L 3481 0 
L 2906 0 
L 2906 525 
Q 2725 213 2448 61 
Q 2172 -91 1784 -91 
Q 1150 -91 751 415 
Q 353 922 353 1747 
Q 353 2572 751 3078 
Q 1150 3584 1784 3584 
Q 2172 3584 2448 3432 
Q 2725 3281 2906 2969 
z
M 947 1747 
Q 947 1113 1208 752 
Q 1469 391 1925 391 
Q 2381 391 2643 752 
Q 2906 1113 2906 1747 
Q 2906 2381 2643 2742 
Q 2381 3103 1925 3103 
Q 1469 3103 1208 2742 
Q 947 2381 947 1747 
z
" transform="scale(0.015625)"/>
      </defs>
      <use xlink:href="#DejaVuSans-50"/>
      <use xlink:href="#DejaVuSans-65" x="56.677734"/>
      <use xlink:href="#DejaVuSans-72" x="118.201172"/>
      <use xlink:href="#DejaVuSans-63" x="157.064453"/>
      <use xlink:href="#DejaVuSans-65" x="212.044922"/>
      <use xlink:href="#DejaVuSans-6e" x="273.568359"/>
      <use xlink:href="#DejaVuSans-74" x="336.947266"/>
      <use xlink:href="#DejaVuSans-47" x="376.15625"/>
      <use xlink:href="#DejaVuSans-70" x="453.646484"/>
      <use xlink:href="#DejaVuSans-41" x="517.123047"/>
      <use xlink:href="#DejaVuSans-5f" x="585.53125"/>
      <use xlink:href="#DejaVuSans-74" x="635.53125"/>
      <use xlink:href="#DejaVuSans-72" x="674.740234"/>
      <use xlink:href="#DejaVuSans-61" x="715.853516"/>
      <use xlink:href="#DejaVuSans-6e" x="777.132812"/>
      <use xlink:href="#DejaVuSans-73" x="840.511719"/>
      <use xlink:href="#DejaVuSans-66" x="892.611328"/>
      <use xlink:href="#DejaVuSans-6f" x="927.816406"/>
      <use xlink:href="#DejaVuSans-72" x="988.998047"/>
      <use xlink:href="#DejaVuSans-6d" x="1028.361328"/>
      <use xlink:href="#DejaVuSans-65" x="1125.773438"/>
      <use xlink:href="#DejaVuSans-64" x="1187.296875"/>
     </g>
    </g>
   </g>
   <g id="LineCollection_1">
    <path d="M 110.058022 222.530367 
L 110.058022 188.90933 
" clip-path="url(#p61f51cbcce)" style="fill: none; stroke: #d3d3d3; stroke-width: 3"/>
    <path d="M 248.240944 207.929713 
L 248.240944 146.951063 
" clip-path="url(#p61f51cbcce)" style="fill: none; stroke: #d3d3d3; stroke-width: 3"/>
    <path d="M 145.950765 215.756859 
L 145.950765 85.378154 
" clip-path="url(#p61f51cbcce)" style="fill: none; stroke: #d3d3d3; stroke-width: 3"/>
    <path d="M 333.357044 185.136343 
L 333.357044 165.745456 
" clip-path="url(#p61f51cbcce)" style="fill: none; stroke: #d3d3d3; stroke-width: 3"/>
    <path d="M 212.616433 204.139531 
L 212.616433 182.877177 
" clip-path="url(#p61f51cbcce)" style="fill: none; stroke: #d3d3d3; stroke-width: 3"/>
    <path d="M 105.764502 261.532664 
L 105.764502 207.88891 
" clip-path="url(#p61f51cbcce)" style="fill: none; stroke: #d3d3d3; stroke-width: 3"/>
    <path d="M 177.585994 258.544929 
L 177.585994 206.885101 
" clip-path="url(#p61f51cbcce)" style="fill: none; stroke: #d3d3d3; stroke-width: 3"/>
    <path d="M 284.864576 195.004923 
L 284.864576 162.493995 
" clip-path="url(#p61f51cbcce)" style="fill: none; stroke: #d3d3d3; stroke-width: 3"/>
    <path d="M 92.682319 268.377069 
L 92.682319 192.036572 
" clip-path="url(#p61f51cbcce)" style="fill: none; stroke: #d3d3d3; stroke-width: 3"/>
    <path d="M 133.216024 206.875353 
L 133.216024 158.239034 
" clip-path="url(#p61f51cbcce)" style="fill: none; stroke: #d3d3d3; stroke-width: 3"/>
    <path d="M 155.747551 228.189432 
L 155.747551 206.253263 
" clip-path="url(#p61f51cbcce)" style="fill: none; stroke: #d3d3d3; stroke-width: 3"/>
    <path d="M 284.412721 220.63416 
L 284.412721 178.884718 
" clip-path="url(#p61f51cbcce)" style="fill: none; stroke: #d3d3d3; stroke-width: 3"/>
    <path d="M 120.551492 163.755733 
L 120.551492 152.699345 
" clip-path="url(#p61f51cbcce)" style="fill: none; stroke: #d3d3d3; stroke-width: 3"/>
    <path d="M 178.810142 215.868982 
L 178.810142 185.695358 
" clip-path="url(#p61f51cbcce)" style="fill: none; stroke: #d3d3d3; stroke-width: 3"/>
    <path d="M 287.147252 226.058338 
L 287.147252 180.10373 
" clip-path="url(#p61f51cbcce)" style="fill: none; stroke: #d3d3d3; stroke-width: 3"/>
    <path d="M 253.130336 180.373655 
L 253.130336 170.779938 
" clip-path="url(#p61f51cbcce)" style="fill: none; stroke: #d3d3d3; stroke-width: 3"/>
    <path d="M 213.291515 225.475794 
L 213.291515 196.257875 
" clip-path="url(#p61f51cbcce)" style="fill: none; stroke: #d3d3d3; stroke-width: 3"/>
    <path d="M 286.933026 208.594625 
L 286.933026 189.603841 
" clip-path="url(#p61f51cbcce)" style="fill: none; stroke: #d3d3d3; stroke-width: 3"/>
    <path d="M 360.455724 204.293156 
L 360.455724 178.96772 
" clip-path="url(#p61f51cbcce)" style="fill: none; stroke: #d3d3d3; stroke-width: 3"/>
    <path d="M 215.098933 216.623793 
L 215.098933 200.429052 
" clip-path="url(#p61f51cbcce)" style="fill: none; stroke: #d3d3d3; stroke-width: 3"/>
    <path d="M 142.948002 168.35915 
L 142.948002 130.180613 
" clip-path="url(#p61f51cbcce)" style="fill: none; stroke: #d3d3d3; stroke-width: 3"/>
    <path d="M 282.441483 233.032578 
L 282.441483 196.608978 
" clip-path="url(#p61f51cbcce)" style="fill: none; stroke: #d3d3d3; stroke-width: 3"/>
    <path d="M 270.147795 157.696835 
L 270.147795 132.461368 
" clip-path="url(#p61f51cbcce)" style="fill: none; stroke: #d3d3d3; stroke-width: 3"/>
    <path d="M 215.23935 208.479415 
L 215.23935 169.908952 
" clip-path="url(#p61f51cbcce)" style="fill: none; stroke: #d3d3d3; stroke-width: 3"/>
    <path d="M 178.532908 269.614524 
L 178.532908 238.814288 
" clip-path="url(#p61f51cbcce)" style="fill: none; stroke: #d3d3d3; stroke-width: 3"/>
    <path d="M 184.293605 153.296934 
L 184.293605 114.075825 
" clip-path="url(#p61f51cbcce)" style="fill: none; stroke: #d3d3d3; stroke-width: 3"/>
    <path d="M 205.591983 234.448911 
L 205.591983 202.128496 
" clip-path="url(#p61f51cbcce)" style="fill: none; stroke: #d3d3d3; stroke-width: 3"/>
    <path d="M 224.429462 161.206747 
L 224.429462 139.765268 
" clip-path="url(#p61f51cbcce)" style="fill: none; stroke: #d3d3d3; stroke-width: 3"/>
    <path d="M 193.861763 197.233162 
L 193.861763 172.931245 
" clip-path="url(#p61f51cbcce)" style="fill: none; stroke: #d3d3d3; stroke-width: 3"/>
    <path d="M 193.984178 172.684563 
L 193.984178 143.150877 
" clip-path="url(#p61f51cbcce)" style="fill: none; stroke: #d3d3d3; stroke-width: 3"/>
    <path d="M 208.479532 241.489207 
L 208.479532 201.472992 
" clip-path="url(#p61f51cbcce)" style="fill: none; stroke: #d3d3d3; stroke-width: 3"/>
    <path d="M 332.842182 244.165491 
L 332.842182 217.675613 
" clip-path="url(#p61f51cbcce)" style="fill: none; stroke: #d3d3d3; stroke-width: 3"/>
    <path d="M 258.440978 200.476153 
L 258.440978 189.37989 
" clip-path="url(#p61f51cbcce)" style="fill: none; stroke: #d3d3d3; stroke-width: 3"/>
    <path d="M 243.126525 258.855803 
L 243.126525 217.671688 
" clip-path="url(#p61f51cbcce)" style="fill: none; stroke: #d3d3d3; stroke-width: 3"/>
    <path d="M 239.005826 208.299874 
L 239.005826 186.159235 
" clip-path="url(#p61f51cbcce)" style="fill: none; stroke: #d3d3d3; stroke-width: 3"/>
    <path d="M 288.686439 277.172524 
L 288.686439 240.423058 
" clip-path="url(#p61f51cbcce)" style="fill: none; stroke: #d3d3d3; stroke-width: 3"/>
    <path d="M 280.68267 209.762469 
L 280.68267 195.239814 
" clip-path="url(#p61f51cbcce)" style="fill: none; stroke: #d3d3d3; stroke-width: 3"/>
    <path d="M 267.63109 237.594833 
L 267.63109 210.389723 
" clip-path="url(#p61f51cbcce)" style="fill: none; stroke: #d3d3d3; stroke-width: 3"/>
    <path d="M 326.109367 195.898243 
L 326.109367 175.594037 
" clip-path="url(#p61f51cbcce)" style="fill: none; stroke: #d3d3d3; stroke-width: 3"/>
    <path d="M 278.320784 222.490952 
L 278.320784 186.260531 
" clip-path="url(#p61f51cbcce)" style="fill: none; stroke: #d3d3d3; stroke-width: 3"/>
    <path d="M 246.348915 244.045729 
L 246.348915 227.547032 
" clip-path="url(#p61f51cbcce)" style="fill: none; stroke: #d3d3d3; stroke-width: 3"/>
    <path d="M 66.102102 255.761435 
L 66.102102 207.161274 
" clip-path="url(#p61f51cbcce)" style="fill: none; stroke: #d3d3d3; stroke-width: 3"/>
    <path d="M 249.250866 231.12086 
L 249.250866 203.609444 
" clip-path="url(#p61f51cbcce)" style="fill: none; stroke: #d3d3d3; stroke-width: 3"/>
    <path d="M 247.034798 246.132431 
L 247.034798 214.905825 
" clip-path="url(#p61f51cbcce)" style="fill: none; stroke: #d3d3d3; stroke-width: 3"/>
    <path d="M 216.63992 235.507452 
L 216.63992 196.755603 
" clip-path="url(#p61f51cbcce)" style="fill: none; stroke: #d3d3d3; stroke-width: 3"/>
    <path d="M 297.422896 154.837045 
L 297.422896 81.595149 
" clip-path="url(#p61f51cbcce)" style="fill: none; stroke: #d3d3d3; stroke-width: 3"/>
    <path d="M 308.074785 207.321923 
L 308.074785 186.103064 
" clip-path="url(#p61f51cbcce)" style="fill: none; stroke: #d3d3d3; stroke-width: 3"/>
    <path d="M 264.302488 190.614596 
L 264.302488 157.913954 
" clip-path="url(#p61f51cbcce)" style="fill: none; stroke: #d3d3d3; stroke-width: 3"/>
    <path d="M 431.719148 217.888579 
L 431.719148 204.609894 
" clip-path="url(#p61f51cbcce)" style="fill: none; stroke: #d3d3d3; stroke-width: 3"/>
    <path d="M 300.828908 239.144374 
L 300.828908 204.078144 
" clip-path="url(#p61f51cbcce)" style="fill: none; stroke: #d3d3d3; stroke-width: 3"/>
    <path d="M 264.628327 83.375935 
L 264.628327 57.651753 
" clip-path="url(#p61f51cbcce)" style="fill: none; stroke: #d3d3d3; stroke-width: 3"/>
   </g>
   <g id="line2d_15">
    <path d="M 110.058022 199.243453 
L 248.240944 195.842454 
L 145.950765 198.36005 
L 333.357044 193.747551 
L 212.616433 196.719255 
L 105.764502 199.349126 
L 177.585994 197.581434 
L 284.864576 194.941062 
L 92.682319 199.671109 
L 133.216024 198.673481 
L 155.747551 198.118929 
L 284.412721 194.952183 
L 120.551492 198.985184 
L 178.810142 197.551305 
L 287.147252 194.88488 
L 253.130336 195.722114 
L 213.291515 196.702639 
L 286.933026 194.890153 
L 360.455724 193.08059 
L 215.098933 196.658155 
L 142.948002 198.433955 
L 282.441483 195.0007 
L 270.147795 195.303276 
L 215.23935 196.654699 
L 178.532908 197.558129 
L 184.293605 197.416345 
L 205.591983 196.892143 
L 224.429462 196.428509 
L 193.861763 197.18085 
L 193.984178 197.177837 
L 208.479532 196.821073 
L 332.842182 193.760223 
L 258.440978 195.591407 
L 243.126525 195.968331 
L 239.005826 196.069751 
L 288.686439 194.846997 
L 280.68267 195.043988 
L 267.63109 195.365218 
L 326.109367 193.925933 
L 278.320784 195.10212 
L 246.348915 195.889021 
L 66.102102 200.325309 
L 249.250866 195.817597 
L 247.034798 195.87214 
L 216.63992 196.620227 
L 297.422896 194.631973 
L 308.074785 194.369805 
L 264.302488 195.447142 
L 431.719148 191.326634 
L 300.828908 194.548143 
L 264.628327 195.439122 
" clip-path="url(#p61f51cbcce)" style="fill: none; stroke: #1f77b4; stroke-width: 1.5; stroke-linecap: square"/>
   </g>
   <g id="line2d_16">
    <defs>
     <path id="mc9d7a14c83" d="M 0 3 
C 0.795609 3 1.55874 2.683901 2.12132 2.12132 
C 2.683901 1.55874 3 0.795609 3 0 
C 3 -0.795609 2.683901 -1.55874 2.12132 -2.12132 
C 1.55874 -2.683901 0.795609 -3 0 -3 
C -0.795609 -3 -1.55874 -2.683901 -2.12132 -2.12132 
C -2.683901 -1.55874 -3 -0.795609 -3 0 
C -3 0.795609 -2.683901 1.55874 -2.12132 2.12132 
C -1.55874 2.683901 -0.795609 3 0 3 
z
" style="stroke: #000000"/>
    </defs>
    <g clip-path="url(#p61f51cbcce)">
     <use xlink:href="#mc9d7a14c83" x="110.058022" y="205.719849" style="stroke: #000000"/>
     <use xlink:href="#mc9d7a14c83" x="248.240944" y="177.440388" style="stroke: #000000"/>
     <use xlink:href="#mc9d7a14c83" x="145.950765" y="150.567507" style="stroke: #000000"/>
     <use xlink:href="#mc9d7a14c83" x="333.357044" y="175.440899" style="stroke: #000000"/>
     <use xlink:href="#mc9d7a14c83" x="212.616433" y="193.508354" style="stroke: #000000"/>
     <use xlink:href="#mc9d7a14c83" x="105.764502" y="234.710787" style="stroke: #000000"/>
     <use xlink:href="#mc9d7a14c83" x="177.585994" y="232.715015" style="stroke: #000000"/>
     <use xlink:href="#mc9d7a14c83" x="284.864576" y="178.749459" style="stroke: #000000"/>
     <use xlink:href="#mc9d7a14c83" x="92.682319" y="230.206821" style="stroke: #000000"/>
     <use xlink:href="#mc9d7a14c83" x="133.216024" y="182.557194" style="stroke: #000000"/>
     <use xlink:href="#mc9d7a14c83" x="155.747551" y="217.221347" style="stroke: #000000"/>
     <use xlink:href="#mc9d7a14c83" x="284.412721" y="199.759439" style="stroke: #000000"/>
     <use xlink:href="#mc9d7a14c83" x="120.551492" y="158.227539" style="stroke: #000000"/>
     <use xlink:href="#mc9d7a14c83" x="178.810142" y="200.78217" style="stroke: #000000"/>
     <use xlink:href="#mc9d7a14c83" x="287.147252" y="203.081034" style="stroke: #000000"/>
     <use xlink:href="#mc9d7a14c83" x="253.130336" y="175.576796" style="stroke: #000000"/>
     <use xlink:href="#mc9d7a14c83" x="213.291515" y="210.866835" style="stroke: #000000"/>
     <use xlink:href="#mc9d7a14c83" x="286.933026" y="199.099233" style="stroke: #000000"/>
     <use xlink:href="#mc9d7a14c83" x="360.455724" y="191.630438" style="stroke: #000000"/>
     <use xlink:href="#mc9d7a14c83" x="215.098933" y="208.526422" style="stroke: #000000"/>
     <use xlink:href="#mc9d7a14c83" x="142.948002" y="149.269882" style="stroke: #000000"/>
     <use xlink:href="#mc9d7a14c83" x="282.441483" y="214.820778" style="stroke: #000000"/>
     <use xlink:href="#mc9d7a14c83" x="270.147795" y="145.079102" style="stroke: #000000"/>
     <use xlink:href="#mc9d7a14c83" x="215.23935" y="189.194184" style="stroke: #000000"/>
     <use xlink:href="#mc9d7a14c83" x="178.532908" y="254.214406" style="stroke: #000000"/>
     <use xlink:href="#mc9d7a14c83" x="184.293605" y="133.686379" style="stroke: #000000"/>
     <use xlink:href="#mc9d7a14c83" x="205.591983" y="218.288704" style="stroke: #000000"/>
     <use xlink:href="#mc9d7a14c83" x="224.429462" y="150.486007" style="stroke: #000000"/>
     <use xlink:href="#mc9d7a14c83" x="193.861763" y="185.082204" style="stroke: #000000"/>
     <use xlink:href="#mc9d7a14c83" x="193.984178" y="157.91772" style="stroke: #000000"/>
     <use xlink:href="#mc9d7a14c83" x="208.479532" y="221.481099" style="stroke: #000000"/>
     <use xlink:href="#mc9d7a14c83" x="332.842182" y="230.920552" style="stroke: #000000"/>
     <use xlink:href="#mc9d7a14c83" x="258.440978" y="194.928022" style="stroke: #000000"/>
     <use xlink:href="#mc9d7a14c83" x="243.126525" y="238.263746" style="stroke: #000000"/>
     <use xlink:href="#mc9d7a14c83" x="239.005826" y="197.229554" style="stroke: #000000"/>
     <use xlink:href="#mc9d7a14c83" x="288.686439" y="258.797791" style="stroke: #000000"/>
     <use xlink:href="#mc9d7a14c83" x="280.68267" y="202.501141" style="stroke: #000000"/>
     <use xlink:href="#mc9d7a14c83" x="267.63109" y="223.992278" style="stroke: #000000"/>
     <use xlink:href="#mc9d7a14c83" x="326.109367" y="185.74614" style="stroke: #000000"/>
     <use xlink:href="#mc9d7a14c83" x="278.320784" y="204.375741" style="stroke: #000000"/>
     <use xlink:href="#mc9d7a14c83" x="246.348915" y="235.79638" style="stroke: #000000"/>
     <use xlink:href="#mc9d7a14c83" x="66.102102" y="231.461355" style="stroke: #000000"/>
     <use xlink:href="#mc9d7a14c83" x="249.250866" y="217.365152" style="stroke: #000000"/>
     <use xlink:href="#mc9d7a14c83" x="247.034798" y="230.519128" style="stroke: #000000"/>
     <use xlink:href="#mc9d7a14c83" x="216.63992" y="216.131528" style="stroke: #000000"/>
     <use xlink:href="#mc9d7a14c83" x="297.422896" y="118.216097" style="stroke: #000000"/>
     <use xlink:href="#mc9d7a14c83" x="308.074785" y="196.712494" style="stroke: #000000"/>
     <use xlink:href="#mc9d7a14c83" x="264.302488" y="174.264275" style="stroke: #000000"/>
     <use xlink:href="#mc9d7a14c83" x="431.719148" y="211.249236" style="stroke: #000000"/>
     <use xlink:href="#mc9d7a14c83" x="300.828908" y="221.611259" style="stroke: #000000"/>
     <use xlink:href="#mc9d7a14c83" x="264.628327" y="70.513844" style="stroke: #000000"/>
    </g>
   </g>
   <g id="patch_3">
    <path d="M 47.82125 303.64 
L 47.82125 46.675714 
" style="fill: none; stroke: #000000; stroke-width: 0.8; stroke-linejoin: miter; stroke-linecap: square"/>
   </g>
   <g id="patch_4">
    <path d="M 450 303.64 
L 450 46.675714 
" style="fill: none; stroke: #000000; stroke-width: 0.8; stroke-linejoin: miter; stroke-linecap: square"/>
   </g>
   <g id="patch_5">
    <path d="M 47.82125 303.64 
L 450 303.64 
" style="fill: none; stroke: #000000; stroke-width: 0.8; stroke-linejoin: miter; stroke-linecap: square"/>
   </g>
   <g id="patch_6">
    <path d="M 47.82125 46.675714 
L 450 46.675714 
" style="fill: none; stroke: #000000; stroke-width: 0.8; stroke-linejoin: miter; stroke-linecap: square"/>
   </g>
   <g id="text_17">
    <!-- y = 0.00x + 0.46 -->
    <g transform="translate(45.118813 18.599375)scale(0.1 -0.1)">
     <defs>
      <path id="DejaVuSans-79" d="M 2059 -325 
Q 1816 -950 1584 -1140 
Q 1353 -1331 966 -1331 
L 506 -1331 
L 506 -850 
L 844 -850 
Q 1081 -850 1212 -737 
Q 1344 -625 1503 -206 
L 1606 56 
L 191 3500 
L 800 3500 
L 1894 763 
L 2988 3500 
L 3597 3500 
L 2059 -325 
z
" transform="scale(0.015625)"/>
      <path id="DejaVuSans-20" transform="scale(0.015625)"/>
      <path id="DejaVuSans-3d" d="M 678 2906 
L 4684 2906 
L 4684 2381 
L 678 2381 
L 678 2906 
z
M 678 1631 
L 4684 1631 
L 4684 1100 
L 678 1100 
L 678 1631 
z
" transform="scale(0.015625)"/>
      <path id="DejaVuSans-78" d="M 3513 3500 
L 2247 1797 
L 3578 0 
L 2900 0 
L 1881 1375 
L 863 0 
L 184 0 
L 1544 1831 
L 300 3500 
L 978 3500 
L 1906 2253 
L 2834 3500 
L 3513 3500 
z
" transform="scale(0.015625)"/>
      <path id="DejaVuSans-2b" d="M 2944 4013 
L 2944 2272 
L 4684 2272 
L 4684 1741 
L 2944 1741 
L 2944 0 
L 2419 0 
L 2419 1741 
L 678 1741 
L 678 2272 
L 2419 2272 
L 2419 4013 
L 2944 4013 
z
" transform="scale(0.015625)"/>
     </defs>
     <use xlink:href="#DejaVuSans-79"/>
     <use xlink:href="#DejaVuSans-20" x="59.179688"/>
     <use xlink:href="#DejaVuSans-3d" x="90.966797"/>
     <use xlink:href="#DejaVuSans-20" x="174.755859"/>
     <use xlink:href="#DejaVuSans-30" x="206.542969"/>
     <use xlink:href="#DejaVuSans-2e" x="270.166016"/>
     <use xlink:href="#DejaVuSans-30" x="301.953125"/>
     <use xlink:href="#DejaVuSans-30" x="365.576172"/>
     <use xlink:href="#DejaVuSans-78" x="429.199219"/>
     <use xlink:href="#DejaVuSans-20" x="488.378906"/>
     <use xlink:href="#DejaVuSans-2b" x="520.166016"/>
     <use xlink:href="#DejaVuSans-20" x="603.955078"/>
     <use xlink:href="#DejaVuSans-30" x="635.742188"/>
     <use xlink:href="#DejaVuSans-2e" x="699.365234"/>
     <use xlink:href="#DejaVuSans-34" x="731.152344"/>
     <use xlink:href="#DejaVuSans-36" x="794.775391"/>
    </g>
   </g>
   <g id="text_18">
    <!-- r^2 = 0.00 -->
    <g transform="translate(60.111781 26.308304)scale(0.1 -0.1)">
     <defs>
      <path id="DejaVuSans-5e" d="M 2988 4666 
L 4684 2925 
L 4056 2925 
L 2681 4159 
L 1306 2925 
L 678 2925 
L 2375 4666 
L 2988 4666 
z
" transform="scale(0.015625)"/>
     </defs>
     <use xlink:href="#DejaVuSans-72"/>
     <use xlink:href="#DejaVuSans-5e" x="41.113281"/>
     <use xlink:href="#DejaVuSans-32" x="124.902344"/>
     <use xlink:href="#DejaVuSans-20" x="188.525391"/>
     <use xlink:href="#DejaVuSans-3d" x="220.3125"/>
     <use xlink:href="#DejaVuSans-20" x="304.101562"/>
     <use xlink:href="#DejaVuSans-30" x="335.888672"/>
     <use xlink:href="#DejaVuSans-2e" x="399.511719"/>
     <use xlink:href="#DejaVuSans-30" x="431.298828"/>
     <use xlink:href="#DejaVuSans-30" x="494.921875"/>
    </g>
   </g>
   <g id="text_19">
    <!-- n = 51 -->
    <g transform="translate(71.139906 34.017232)scale(0.1 -0.1)">
     <use xlink:href="#DejaVuSans-6e"/>
     <use xlink:href="#DejaVuSans-20" x="63.378906"/>
     <use xlink:href="#DejaVuSans-3d" x="95.166016"/>
     <use xlink:href="#DejaVuSans-20" x="178.955078"/>
     <use xlink:href="#DejaVuSans-35" x="210.742188"/>
     <use xlink:href="#DejaVuSans-31" x="274.365234"/>
    </g>
   </g>
   <g id="text_20">
    <!-- VDWDiff vs PercentGpA_transformed -->
    <g transform="translate(138.205938 40.675714)scale(0.12 -0.12)">
     <defs>
      <path id="DejaVuSans-76" d="M 191 3500 
L 800 3500 
L 1894 563 
L 2988 3500 
L 3597 3500 
L 2284 0 
L 1503 0 
L 191 3500 
z
" transform="scale(0.015625)"/>
     </defs>
     <use xlink:href="#DejaVuSans-56"/>
     <use xlink:href="#DejaVuSans-44" x="68.408203"/>
     <use xlink:href="#DejaVuSans-57" x="145.410156"/>
     <use xlink:href="#DejaVuSans-44" x="244.287109"/>
     <use xlink:href="#DejaVuSans-69" x="321.289062"/>
     <use xlink:href="#DejaVuSans-66" x="349.072266"/>
     <use xlink:href="#DejaVuSans-66" x="384.277344"/>
     <use xlink:href="#DejaVuSans-20" x="419.482422"/>
     <use xlink:href="#DejaVuSans-76" x="451.269531"/>
     <use xlink:href="#DejaVuSans-73" x="510.449219"/>
     <use xlink:href="#DejaVuSans-20" x="562.548828"/>
     <use xlink:href="#DejaVuSans-50" x="594.335938"/>
     <use xlink:href="#DejaVuSans-65" x="651.013672"/>
     <use xlink:href="#DejaVuSans-72" x="712.537109"/>
     <use xlink:href="#DejaVuSans-63" x="751.400391"/>
     <use xlink:href="#DejaVuSans-65" x="806.380859"/>
     <use xlink:href="#DejaVuSans-6e" x="867.904297"/>
     <use xlink:href="#DejaVuSans-74" x="931.283203"/>
     <use xlink:href="#DejaVuSans-47" x="970.492188"/>
     <use xlink:href="#DejaVuSans-70" x="1047.982422"/>
     <use xlink:href="#DejaVuSans-41" x="1111.458984"/>
     <use xlink:href="#DejaVuSans-5f" x="1179.867188"/>
     <use xlink:href="#DejaVuSans-74" x="1229.867188"/>
     <use xlink:href="#DejaVuSans-72" x="1269.076172"/>
     <use xlink:href="#DejaVuSans-61" x="1310.189453"/>
     <use xlink:href="#DejaVuSans-6e" x="1371.46875"/>
     <use xlink:href="#DejaVuSans-73" x="1434.847656"/>
     <use xlink:href="#DejaVuSans-66" x="1486.947266"/>
     <use xlink:href="#DejaVuSans-6f" x="1522.152344"/>
     <use xlink:href="#DejaVuSans-72" x="1583.333984"/>
     <use xlink:href="#DejaVuSans-6d" x="1622.697266"/>
     <use xlink:href="#DejaVuSans-65" x="1720.109375"/>
     <use xlink:href="#DejaVuSans-64" x="1781.632812"/>
    </g>
   </g>
  </g>
 </g>
 <defs>
  <clipPath id="p61f51cbcce">
   <rect x="47.82125" y="46.675714" width="402.17875" height="256.964286"/>
  </clipPath>
 </defs>
</svg>
