<?xml version="1.0" encoding="utf-8" standalone="no"?>
<!DOCTYPE svg PUBLIC "-//W3C//DTD SVG 1.1//EN"
  "http://www.w3.org/Graphics/SVG/1.1/DTD/svg11.dtd">
<svg xmlns:xlink="http://www.w3.org/1999/xlink" width="460.8pt" height="345.6pt" viewBox="0 0 460.8 345.6" xmlns="http://www.w3.org/2000/svg" version="1.1">
 <metadata>
  <rdf:RDF xmlns:dc="http://purl.org/dc/elements/1.1/" xmlns:cc="http://creativecommons.org/ns#" xmlns:rdf="http://www.w3.org/1999/02/22-rdf-syntax-ns#">
   <cc:Work>
    <dc:type rdf:resource="http://purl.org/dc/dcmitype/StillImage"/>
    <dc:date>2024-02-24T17:25:33.815640</dc:date>
    <dc:format>image/svg+xml</dc:format>
    <dc:creator>
     <cc:Agent>
      <dc:title>Matplotlib v3.5.3, https://matplotlib.org/</dc:title>
     </cc:Agent>
    </dc:creator>
   </cc:Work>
  </rdf:RDF>
 </metadata>
 <defs>
  <style type="text/css">*{stroke-linejoin: round; stroke-linecap: butt}</style>
 </defs>
 <g id="figure_1">
  <g id="patch_1">
   <path d="M 0 345.6 
L 460.8 345.6 
L 460.8 0 
L 0 0 
z
" style="fill: #ffffff"/>
  </g>
  <g id="axes_1">
   <g id="patch_2">
    <path d="M 47.82125 303.64 
L 401.26 303.64 
L 401.26 46.675714 
L 47.82125 46.675714 
z
" style="fill: #ffffff"/>
   </g>
   <g id="PathCollection_1">
    <defs>
     <path id="me6a34aaf7e" d="M 0 3 
C 0.795609 3 1.55874 2.683901 2.12132 2.12132 
C 2.683901 1.55874 3 0.795609 3 0 
C 3 -0.795609 2.683901 -1.55874 2.12132 -2.12132 
C 1.55874 -2.683901 0.795609 -3 0 -3 
C -0.795609 -3 -1.55874 -2.683901 -2.12132 -2.12132 
C -2.683901 -1.55874 -3 -0.795609 -3 0 
C -3 0.795609 -2.683901 1.55874 -2.12132 2.12132 
C -1.55874 2.683901 -0.795609 3 0 3 
z
" style="stroke: #3cb371"/>
    </defs>
    <g clip-path="url(#pc53fb53142)">
     <use xlink:href="#me6a34aaf7e" x="200.310383" y="219.424622" style="fill: #3cb371; stroke: #3cb371"/>
     <use xlink:href="#me6a34aaf7e" x="63.886648" y="209.857484" style="fill: #3cb371; stroke: #3cb371"/>
     <use xlink:href="#me6a34aaf7e" x="143.701978" y="210.075646" style="fill: #3cb371; stroke: #3cb371"/>
     <use xlink:href="#me6a34aaf7e" x="152.2565" y="224.222034" style="fill: #3cb371; stroke: #3cb371"/>
     <use xlink:href="#me6a34aaf7e" x="148.008769" y="285.811512" style="fill: #3cb371; stroke: #3cb371"/>
     <use xlink:href="#me6a34aaf7e" x="170.182155" y="180.851042" style="fill: #3cb371; stroke: #3cb371"/>
     <use xlink:href="#me6a34aaf7e" x="218.181521" y="216.969507" style="fill: #3cb371; stroke: #3cb371"/>
     <use xlink:href="#me6a34aaf7e" x="137.465536" y="231.10991" style="fill: #3cb371; stroke: #3cb371"/>
     <use xlink:href="#me6a34aaf7e" x="237.805132" y="223.813361" style="fill: #3cb371; stroke: #3cb371"/>
     <use xlink:href="#me6a34aaf7e" x="182.834489" y="282.449427" style="fill: #3cb371; stroke: #3cb371"/>
     <use xlink:href="#me6a34aaf7e" x="194.285192" y="253.251489" style="fill: #3cb371; stroke: #3cb371"/>
     <use xlink:href="#me6a34aaf7e" x="171.742685" y="211.183408" style="fill: #3cb371; stroke: #3cb371"/>
     <use xlink:href="#me6a34aaf7e" x="240.839875" y="284.835928" style="fill: #3cb371; stroke: #3cb371"/>
     <use xlink:href="#me6a34aaf7e" x="199.73569" y="236.18511" style="fill: #3cb371; stroke: #3cb371"/>
     <use xlink:href="#me6a34aaf7e" x="268.745427" y="227.749765" style="fill: #3cb371; stroke: #3cb371"/>
     <use xlink:href="#me6a34aaf7e" x="247.322777" y="219.326891" style="fill: #3cb371; stroke: #3cb371"/>
     <use xlink:href="#me6a34aaf7e" x="227.749139" y="283.578828" style="fill: #3cb371; stroke: #3cb371"/>
     <use xlink:href="#me6a34aaf7e" x="244.151743" y="289.318544" style="fill: #3cb371; stroke: #3cb371"/>
     <use xlink:href="#me6a34aaf7e" x="361.550411" y="222.865223" style="fill: #3cb371; stroke: #3cb371"/>
     <use xlink:href="#me6a34aaf7e" x="77.273817" y="161.665129" style="fill: #3cb371; stroke: #3cb371"/>
     <use xlink:href="#me6a34aaf7e" x="82.924208" y="194.817167" style="fill: #3cb371; stroke: #3cb371"/>
     <use xlink:href="#me6a34aaf7e" x="139.957387" y="220.223581" style="fill: #3cb371; stroke: #3cb371"/>
     <use xlink:href="#me6a34aaf7e" x="202.343388" y="200.224841" style="fill: #3cb371; stroke: #3cb371"/>
     <use xlink:href="#me6a34aaf7e" x="183.715836" y="212.470797" style="fill: #3cb371; stroke: #3cb371"/>
     <use xlink:href="#me6a34aaf7e" x="164.566971" y="199.104465" style="fill: #3cb371; stroke: #3cb371"/>
     <use xlink:href="#me6a34aaf7e" x="190.29982" y="214.553886" style="fill: #3cb371; stroke: #3cb371"/>
     <use xlink:href="#me6a34aaf7e" x="202.295686" y="209.348198" style="fill: #3cb371; stroke: #3cb371"/>
     <use xlink:href="#me6a34aaf7e" x="215.753272" y="175.557084" style="fill: #3cb371; stroke: #3cb371"/>
     <use xlink:href="#me6a34aaf7e" x="199.712975" y="273.929572" style="fill: #3cb371; stroke: #3cb371"/>
     <use xlink:href="#me6a34aaf7e" x="222.647318" y="235.066792" style="fill: #3cb371; stroke: #3cb371"/>
     <use xlink:href="#me6a34aaf7e" x="186.915264" y="285.926733" style="fill: #3cb371; stroke: #3cb371"/>
     <use xlink:href="#me6a34aaf7e" x="269.591566" y="264.890788" style="fill: #3cb371; stroke: #3cb371"/>
     <use xlink:href="#me6a34aaf7e" x="317.822627" y="218.859973" style="fill: #3cb371; stroke: #3cb371"/>
     <use xlink:href="#me6a34aaf7e" x="199.016756" y="250.012489" style="fill: #3cb371; stroke: #3cb371"/>
     <use xlink:href="#me6a34aaf7e" x="289.210634" y="276.413501" style="fill: #3cb371; stroke: #3cb371"/>
     <use xlink:href="#me6a34aaf7e" x="270.550145" y="245.588608" style="fill: #3cb371; stroke: #3cb371"/>
    </g>
   </g>
   <g id="PathCollection_2">
    <defs>
     <path id="m70bbde4b27" d="M 0 3 
C 0.795609 3 1.55874 2.683901 2.12132 2.12132 
C 2.683901 1.55874 3 0.795609 3 0 
C 3 -0.795609 2.683901 -1.55874 2.12132 -2.12132 
C 1.55874 -2.683901 0.795609 -3 0 -3 
C -0.795609 -3 -1.55874 -2.683901 -2.12132 -2.12132 
C -2.683901 -1.55874 -3 -0.795609 -3 0 
C -3 0.795609 -2.683901 1.55874 -2.12132 2.12132 
C -1.55874 2.683901 -0.795609 3 0 3 
z
" style="stroke: #ffdead"/>
    </defs>
    <g clip-path="url(#pc53fb53142)">
     <use xlink:href="#m70bbde4b27" x="261.626502" y="274.33198" style="fill: #ffdead; stroke: #ffdead"/>
     <use xlink:href="#m70bbde4b27" x="314.661815" y="280.754364" style="fill: #ffdead; stroke: #ffdead"/>
     <use xlink:href="#m70bbde4b27" x="324.387303" y="257.749617" style="fill: #ffdead; stroke: #ffdead"/>
     <use xlink:href="#m70bbde4b27" x="216.000867" y="279.9523" style="fill: #ffdead; stroke: #ffdead"/>
     <use xlink:href="#m70bbde4b27" x="195.167675" y="267.574541" style="fill: #ffdead; stroke: #ffdead"/>
     <use xlink:href="#m70bbde4b27" x="274.030105" y="268.224538" style="fill: #ffdead; stroke: #ffdead"/>
     <use xlink:href="#m70bbde4b27" x="153.564892" y="175.750844" style="fill: #ffdead; stroke: #ffdead"/>
     <use xlink:href="#m70bbde4b27" x="281.966775" y="268.855145" style="fill: #ffdead; stroke: #ffdead"/>
    </g>
   </g>
   <g id="PathCollection_3">
    <defs>
     <path id="m14495a6313" d="M 0 3 
C 0.795609 3 1.55874 2.683901 2.12132 2.12132 
C 2.683901 1.55874 3 0.795609 3 0 
C 3 -0.795609 2.683901 -1.55874 2.12132 -2.12132 
C 1.55874 -2.683901 0.795609 -3 0 -3 
C -0.795609 -3 -1.55874 -2.683901 -2.12132 -2.12132 
C -2.683901 -1.55874 -3 -0.795609 -3 0 
C -3 0.795609 -2.683901 1.55874 -2.12132 2.12132 
C -1.55874 2.683901 -0.795609 3 0 3 
z
" style="stroke: #483d8b"/>
    </defs>
    <g clip-path="url(#pc53fb53142)">
     <use xlink:href="#m14495a6313" x="357.608198" y="268.469717" style="fill: #483d8b; stroke: #483d8b"/>
     <use xlink:href="#m14495a6313" x="360.60319" y="275.45228" style="fill: #483d8b; stroke: #483d8b"/>
     <use xlink:href="#m14495a6313" x="271.639336" y="282.093782" style="fill: #483d8b; stroke: #483d8b"/>
     <use xlink:href="#m14495a6313" x="216.739109" y="272.403556" style="fill: #483d8b; stroke: #483d8b"/>
     <use xlink:href="#m14495a6313" x="378.27557" y="285.792293" style="fill: #483d8b; stroke: #483d8b"/>
     <use xlink:href="#m14495a6313" x="280.629989" y="283.151773" style="fill: #483d8b; stroke: #483d8b"/>
     <use xlink:href="#m14495a6313" x="290.617837" y="277.126978" style="fill: #483d8b; stroke: #483d8b"/>
     <use xlink:href="#m14495a6313" x="219.302513" y="277.720351" style="fill: #483d8b; stroke: #483d8b"/>
     <use xlink:href="#m14495a6313" x="315.129747" y="284.478954" style="fill: #483d8b; stroke: #483d8b"/>
     <use xlink:href="#m14495a6313" x="315.573828" y="276.436003" style="fill: #483d8b; stroke: #483d8b"/>
     <use xlink:href="#m14495a6313" x="338.40936" y="272.801132" style="fill: #483d8b; stroke: #483d8b"/>
     <use xlink:href="#m14495a6313" x="385.194602" y="286.023998" style="fill: #483d8b; stroke: #483d8b"/>
     <use xlink:href="#m14495a6313" x="294.528249" y="283.728423" style="fill: #483d8b; stroke: #483d8b"/>
     <use xlink:href="#m14495a6313" x="328.77019" y="281.396825" style="fill: #483d8b; stroke: #483d8b"/>
     <use xlink:href="#m14495a6313" x="301.5813" y="278.367145" style="fill: #483d8b; stroke: #483d8b"/>
     <use xlink:href="#m14495a6313" x="335.934545" y="275.858749" style="fill: #483d8b; stroke: #483d8b"/>
     <use xlink:href="#m14495a6313" x="302.48877" y="282.125983" style="fill: #483d8b; stroke: #483d8b"/>
     <use xlink:href="#m14495a6313" x="242.181204" y="258.562845" style="fill: #483d8b; stroke: #483d8b"/>
     <use xlink:href="#m14495a6313" x="354.337218" y="269.853852" style="fill: #483d8b; stroke: #483d8b"/>
     <use xlink:href="#m14495a6313" x="309.017102" y="272.900591" style="fill: #483d8b; stroke: #483d8b"/>
     <use xlink:href="#m14495a6313" x="263.497093" y="253.749686" style="fill: #483d8b; stroke: #483d8b"/>
     <use xlink:href="#m14495a6313" x="303.019169" y="276.055627" style="fill: #483d8b; stroke: #483d8b"/>
     <use xlink:href="#m14495a6313" x="295.695807" y="256.544549" style="fill: #483d8b; stroke: #483d8b"/>
     <use xlink:href="#m14495a6313" x="334.761308" y="270.708682" style="fill: #483d8b; stroke: #483d8b"/>
     <use xlink:href="#m14495a6313" x="355.443445" y="289.14761" style="fill: #483d8b; stroke: #483d8b"/>
     <use xlink:href="#m14495a6313" x="328.73271" y="281.713869" style="fill: #483d8b; stroke: #483d8b"/>
     <use xlink:href="#m14495a6313" x="340.265187" y="228.29681" style="fill: #483d8b; stroke: #483d8b"/>
    </g>
   </g>
   <g id="matplotlib.axis_1">
    <g id="xtick_1">
     <g id="line2d_1">
      <defs>
       <path id="m8d77f524d0" d="M 0 0 
L 0 3.5 
" style="stroke: #000000; stroke-width: 0.8"/>
      </defs>
      <g>
       <use xlink:href="#m8d77f524d0" x="64.886114" y="303.64" style="stroke: #000000; stroke-width: 0.8"/>
      </g>
     </g>
     <g id="text_1">
      <!-- −50 -->
      <g transform="translate(54.33377 318.238437)scale(0.1 -0.1)">
       <defs>
        <path id="DejaVuSans-2212" d="M 678 2272 
L 4684 2272 
L 4684 1741 
L 678 1741 
L 678 2272 
z
" transform="scale(0.015625)"/>
        <path id="DejaVuSans-35" d="M 691 4666 
L 3169 4666 
L 3169 4134 
L 1269 4134 
L 1269 2991 
Q 1406 3038 1543 3061 
Q 1681 3084 1819 3084 
Q 2600 3084 3056 2656 
Q 3513 2228 3513 1497 
Q 3513 744 3044 326 
Q 2575 -91 1722 -91 
Q 1428 -91 1123 -41 
Q 819 9 494 109 
L 494 744 
Q 775 591 1075 516 
Q 1375 441 1709 441 
Q 2250 441 2565 725 
Q 2881 1009 2881 1497 
Q 2881 1984 2565 2268 
Q 2250 2553 1709 2553 
Q 1456 2553 1204 2497 
Q 953 2441 691 2322 
L 691 4666 
z
" transform="scale(0.015625)"/>
        <path id="DejaVuSans-30" d="M 2034 4250 
Q 1547 4250 1301 3770 
Q 1056 3291 1056 2328 
Q 1056 1369 1301 889 
Q 1547 409 2034 409 
Q 2525 409 2770 889 
Q 3016 1369 3016 2328 
Q 3016 3291 2770 3770 
Q 2525 4250 2034 4250 
z
M 2034 4750 
Q 2819 4750 3233 4129 
Q 3647 3509 3647 2328 
Q 3647 1150 3233 529 
Q 2819 -91 2034 -91 
Q 1250 -91 836 529 
Q 422 1150 422 2328 
Q 422 3509 836 4129 
Q 1250 4750 2034 4750 
z
" transform="scale(0.015625)"/>
       </defs>
       <use xlink:href="#DejaVuSans-2212"/>
       <use xlink:href="#DejaVuSans-35" x="83.789062"/>
       <use xlink:href="#DejaVuSans-30" x="147.412109"/>
      </g>
     </g>
    </g>
    <g id="xtick_2">
     <g id="line2d_2">
      <g>
       <use xlink:href="#m8d77f524d0" x="121.673969" y="303.64" style="stroke: #000000; stroke-width: 0.8"/>
      </g>
     </g>
     <g id="text_2">
      <!-- −45 -->
      <g transform="translate(111.121625 318.238437)scale(0.1 -0.1)">
       <defs>
        <path id="DejaVuSans-34" d="M 2419 4116 
L 825 1625 
L 2419 1625 
L 2419 4116 
z
M 2253 4666 
L 3047 4666 
L 3047 1625 
L 3713 1625 
L 3713 1100 
L 3047 1100 
L 3047 0 
L 2419 0 
L 2419 1100 
L 313 1100 
L 313 1709 
L 2253 4666 
z
" transform="scale(0.015625)"/>
       </defs>
       <use xlink:href="#DejaVuSans-2212"/>
       <use xlink:href="#DejaVuSans-34" x="83.789062"/>
       <use xlink:href="#DejaVuSans-35" x="147.412109"/>
      </g>
     </g>
    </g>
    <g id="xtick_3">
     <g id="line2d_3">
      <g>
       <use xlink:href="#m8d77f524d0" x="178.461824" y="303.64" style="stroke: #000000; stroke-width: 0.8"/>
      </g>
     </g>
     <g id="text_3">
      <!-- −40 -->
      <g transform="translate(167.90948 318.238437)scale(0.1 -0.1)">
       <use xlink:href="#DejaVuSans-2212"/>
       <use xlink:href="#DejaVuSans-34" x="83.789062"/>
       <use xlink:href="#DejaVuSans-30" x="147.412109"/>
      </g>
     </g>
    </g>
    <g id="xtick_4">
     <g id="line2d_4">
      <g>
       <use xlink:href="#m8d77f524d0" x="235.249679" y="303.64" style="stroke: #000000; stroke-width: 0.8"/>
      </g>
     </g>
     <g id="text_4">
      <!-- −35 -->
      <g transform="translate(224.697335 318.238437)scale(0.1 -0.1)">
       <defs>
        <path id="DejaVuSans-33" d="M 2597 2516 
Q 3050 2419 3304 2112 
Q 3559 1806 3559 1356 
Q 3559 666 3084 287 
Q 2609 -91 1734 -91 
Q 1441 -91 1130 -33 
Q 819 25 488 141 
L 488 750 
Q 750 597 1062 519 
Q 1375 441 1716 441 
Q 2309 441 2620 675 
Q 2931 909 2931 1356 
Q 2931 1769 2642 2001 
Q 2353 2234 1838 2234 
L 1294 2234 
L 1294 2753 
L 1863 2753 
Q 2328 2753 2575 2939 
Q 2822 3125 2822 3475 
Q 2822 3834 2567 4026 
Q 2313 4219 1838 4219 
Q 1578 4219 1281 4162 
Q 984 4106 628 3988 
L 628 4550 
Q 988 4650 1302 4700 
Q 1616 4750 1894 4750 
Q 2613 4750 3031 4423 
Q 3450 4097 3450 3541 
Q 3450 3153 3228 2886 
Q 3006 2619 2597 2516 
z
" transform="scale(0.015625)"/>
       </defs>
       <use xlink:href="#DejaVuSans-2212"/>
       <use xlink:href="#DejaVuSans-33" x="83.789062"/>
       <use xlink:href="#DejaVuSans-35" x="147.412109"/>
      </g>
     </g>
    </g>
    <g id="xtick_5">
     <g id="line2d_5">
      <g>
       <use xlink:href="#m8d77f524d0" x="292.037534" y="303.64" style="stroke: #000000; stroke-width: 0.8"/>
      </g>
     </g>
     <g id="text_5">
      <!-- −30 -->
      <g transform="translate(281.48519 318.238437)scale(0.1 -0.1)">
       <use xlink:href="#DejaVuSans-2212"/>
       <use xlink:href="#DejaVuSans-33" x="83.789062"/>
       <use xlink:href="#DejaVuSans-30" x="147.412109"/>
      </g>
     </g>
    </g>
    <g id="xtick_6">
     <g id="line2d_6">
      <g>
       <use xlink:href="#m8d77f524d0" x="348.825388" y="303.64" style="stroke: #000000; stroke-width: 0.8"/>
      </g>
     </g>
     <g id="text_6">
      <!-- −25 -->
      <g transform="translate(338.273045 318.238437)scale(0.1 -0.1)">
       <defs>
        <path id="DejaVuSans-32" d="M 1228 531 
L 3431 531 
L 3431 0 
L 469 0 
L 469 531 
Q 828 903 1448 1529 
Q 2069 2156 2228 2338 
Q 2531 2678 2651 2914 
Q 2772 3150 2772 3378 
Q 2772 3750 2511 3984 
Q 2250 4219 1831 4219 
Q 1534 4219 1204 4116 
Q 875 4013 500 3803 
L 500 4441 
Q 881 4594 1212 4672 
Q 1544 4750 1819 4750 
Q 2544 4750 2975 4387 
Q 3406 4025 3406 3419 
Q 3406 3131 3298 2873 
Q 3191 2616 2906 2266 
Q 2828 2175 2409 1742 
Q 1991 1309 1228 531 
z
" transform="scale(0.015625)"/>
       </defs>
       <use xlink:href="#DejaVuSans-2212"/>
       <use xlink:href="#DejaVuSans-32" x="83.789062"/>
       <use xlink:href="#DejaVuSans-35" x="147.412109"/>
      </g>
     </g>
    </g>
    <g id="text_7">
     <!-- VDWDiff -->
     <g transform="translate(203.567187 331.916562)scale(0.1 -0.1)">
      <defs>
       <path id="DejaVuSans-56" d="M 1831 0 
L 50 4666 
L 709 4666 
L 2188 738 
L 3669 4666 
L 4325 4666 
L 2547 0 
L 1831 0 
z
" transform="scale(0.015625)"/>
       <path id="DejaVuSans-44" d="M 1259 4147 
L 1259 519 
L 2022 519 
Q 2988 519 3436 956 
Q 3884 1394 3884 2338 
Q 3884 3275 3436 3711 
Q 2988 4147 2022 4147 
L 1259 4147 
z
M 628 4666 
L 1925 4666 
Q 3281 4666 3915 4102 
Q 4550 3538 4550 2338 
Q 4550 1131 3912 565 
Q 3275 0 1925 0 
L 628 0 
L 628 4666 
z
" transform="scale(0.015625)"/>
       <path id="DejaVuSans-57" d="M 213 4666 
L 850 4666 
L 1831 722 
L 2809 4666 
L 3519 4666 
L 4500 722 
L 5478 4666 
L 6119 4666 
L 4947 0 
L 4153 0 
L 3169 4050 
L 2175 0 
L 1381 0 
L 213 4666 
z
" transform="scale(0.015625)"/>
       <path id="DejaVuSans-69" d="M 603 3500 
L 1178 3500 
L 1178 0 
L 603 0 
L 603 3500 
z
M 603 4863 
L 1178 4863 
L 1178 4134 
L 603 4134 
L 603 4863 
z
" transform="scale(0.015625)"/>
       <path id="DejaVuSans-66" d="M 2375 4863 
L 2375 4384 
L 1825 4384 
Q 1516 4384 1395 4259 
Q 1275 4134 1275 3809 
L 1275 3500 
L 2222 3500 
L 2222 3053 
L 1275 3053 
L 1275 0 
L 697 0 
L 697 3053 
L 147 3053 
L 147 3500 
L 697 3500 
L 697 3744 
Q 697 4328 969 4595 
Q 1241 4863 1831 4863 
L 2375 4863 
z
" transform="scale(0.015625)"/>
      </defs>
      <use xlink:href="#DejaVuSans-56"/>
      <use xlink:href="#DejaVuSans-44" x="68.408203"/>
      <use xlink:href="#DejaVuSans-57" x="145.410156"/>
      <use xlink:href="#DejaVuSans-44" x="244.287109"/>
      <use xlink:href="#DejaVuSans-69" x="321.289062"/>
      <use xlink:href="#DejaVuSans-66" x="349.072266"/>
      <use xlink:href="#DejaVuSans-66" x="384.277344"/>
     </g>
    </g>
   </g>
   <g id="matplotlib.axis_2">
    <g id="ytick_1">
     <g id="line2d_7">
      <defs>
       <path id="m4dd043c61f" d="M 0 0 
L -3.5 0 
" style="stroke: #000000; stroke-width: 0.8"/>
      </defs>
      <g>
       <use xlink:href="#m4dd043c61f" x="47.82125" y="303.64" style="stroke: #000000; stroke-width: 0.8"/>
      </g>
     </g>
     <g id="text_8">
      <!-- 0.0 -->
      <g transform="translate(24.918125 307.439219)scale(0.1 -0.1)">
       <defs>
        <path id="DejaVuSans-2e" d="M 684 794 
L 1344 794 
L 1344 0 
L 684 0 
L 684 794 
z
" transform="scale(0.015625)"/>
       </defs>
       <use xlink:href="#DejaVuSans-30"/>
       <use xlink:href="#DejaVuSans-2e" x="63.623047"/>
       <use xlink:href="#DejaVuSans-30" x="95.410156"/>
      </g>
     </g>
    </g>
    <g id="ytick_2">
     <g id="line2d_8">
      <g>
       <use xlink:href="#m4dd043c61f" x="47.82125" y="261.622735" style="stroke: #000000; stroke-width: 0.8"/>
      </g>
     </g>
     <g id="text_9">
      <!-- 0.5 -->
      <g transform="translate(24.918125 265.421954)scale(0.1 -0.1)">
       <use xlink:href="#DejaVuSans-30"/>
       <use xlink:href="#DejaVuSans-2e" x="63.623047"/>
       <use xlink:href="#DejaVuSans-35" x="95.410156"/>
      </g>
     </g>
    </g>
    <g id="ytick_3">
     <g id="line2d_9">
      <g>
       <use xlink:href="#m4dd043c61f" x="47.82125" y="219.60547" style="stroke: #000000; stroke-width: 0.8"/>
      </g>
     </g>
     <g id="text_10">
      <!-- 1.0 -->
      <g transform="translate(24.918125 223.404688)scale(0.1 -0.1)">
       <defs>
        <path id="DejaVuSans-31" d="M 794 531 
L 1825 531 
L 1825 4091 
L 703 3866 
L 703 4441 
L 1819 4666 
L 2450 4666 
L 2450 531 
L 3481 531 
L 3481 0 
L 794 0 
L 794 531 
z
" transform="scale(0.015625)"/>
       </defs>
       <use xlink:href="#DejaVuSans-31"/>
       <use xlink:href="#DejaVuSans-2e" x="63.623047"/>
       <use xlink:href="#DejaVuSans-30" x="95.410156"/>
      </g>
     </g>
    </g>
    <g id="ytick_4">
     <g id="line2d_10">
      <g>
       <use xlink:href="#m4dd043c61f" x="47.82125" y="177.588204" style="stroke: #000000; stroke-width: 0.8"/>
      </g>
     </g>
     <g id="text_11">
      <!-- 1.5 -->
      <g transform="translate(24.918125 181.387423)scale(0.1 -0.1)">
       <use xlink:href="#DejaVuSans-31"/>
       <use xlink:href="#DejaVuSans-2e" x="63.623047"/>
       <use xlink:href="#DejaVuSans-35" x="95.410156"/>
      </g>
     </g>
    </g>
    <g id="ytick_5">
     <g id="line2d_11">
      <g>
       <use xlink:href="#m4dd043c61f" x="47.82125" y="135.570939" style="stroke: #000000; stroke-width: 0.8"/>
      </g>
     </g>
     <g id="text_12">
      <!-- 2.0 -->
      <g transform="translate(24.918125 139.370158)scale(0.1 -0.1)">
       <use xlink:href="#DejaVuSans-32"/>
       <use xlink:href="#DejaVuSans-2e" x="63.623047"/>
       <use xlink:href="#DejaVuSans-30" x="95.410156"/>
      </g>
     </g>
    </g>
    <g id="ytick_6">
     <g id="line2d_12">
      <g>
       <use xlink:href="#m4dd043c61f" x="47.82125" y="93.553674" style="stroke: #000000; stroke-width: 0.8"/>
      </g>
     </g>
     <g id="text_13">
      <!-- 2.5 -->
      <g transform="translate(24.918125 97.352893)scale(0.1 -0.1)">
       <use xlink:href="#DejaVuSans-32"/>
       <use xlink:href="#DejaVuSans-2e" x="63.623047"/>
       <use xlink:href="#DejaVuSans-35" x="95.410156"/>
      </g>
     </g>
    </g>
    <g id="ytick_7">
     <g id="line2d_13">
      <g>
       <use xlink:href="#m4dd043c61f" x="47.82125" y="51.536409" style="stroke: #000000; stroke-width: 0.8"/>
      </g>
     </g>
     <g id="text_14">
      <!-- 3.0 -->
      <g transform="translate(24.918125 55.335627)scale(0.1 -0.1)">
       <use xlink:href="#DejaVuSans-33"/>
       <use xlink:href="#DejaVuSans-2e" x="63.623047"/>
       <use xlink:href="#DejaVuSans-30" x="95.410156"/>
      </g>
     </g>
    </g>
    <g id="text_15">
     <!-- PercentGpA_transformed -->
     <g transform="translate(18.560313 237.696138)rotate(-90)scale(0.1 -0.1)">
      <defs>
       <path id="DejaVuSans-50" d="M 1259 4147 
L 1259 2394 
L 2053 2394 
Q 2494 2394 2734 2622 
Q 2975 2850 2975 3272 
Q 2975 3691 2734 3919 
Q 2494 4147 2053 4147 
L 1259 4147 
z
M 628 4666 
L 2053 4666 
Q 2838 4666 3239 4311 
Q 3641 3956 3641 3272 
Q 3641 2581 3239 2228 
Q 2838 1875 2053 1875 
L 1259 1875 
L 1259 0 
L 628 0 
L 628 4666 
z
" transform="scale(0.015625)"/>
       <path id="DejaVuSans-65" d="M 3597 1894 
L 3597 1613 
L 953 1613 
Q 991 1019 1311 708 
Q 1631 397 2203 397 
Q 2534 397 2845 478 
Q 3156 559 3463 722 
L 3463 178 
Q 3153 47 2828 -22 
Q 2503 -91 2169 -91 
Q 1331 -91 842 396 
Q 353 884 353 1716 
Q 353 2575 817 3079 
Q 1281 3584 2069 3584 
Q 2775 3584 3186 3129 
Q 3597 2675 3597 1894 
z
M 3022 2063 
Q 3016 2534 2758 2815 
Q 2500 3097 2075 3097 
Q 1594 3097 1305 2825 
Q 1016 2553 972 2059 
L 3022 2063 
z
" transform="scale(0.015625)"/>
       <path id="DejaVuSans-72" d="M 2631 2963 
Q 2534 3019 2420 3045 
Q 2306 3072 2169 3072 
Q 1681 3072 1420 2755 
Q 1159 2438 1159 1844 
L 1159 0 
L 581 0 
L 581 3500 
L 1159 3500 
L 1159 2956 
Q 1341 3275 1631 3429 
Q 1922 3584 2338 3584 
Q 2397 3584 2469 3576 
Q 2541 3569 2628 3553 
L 2631 2963 
z
" transform="scale(0.015625)"/>
       <path id="DejaVuSans-63" d="M 3122 3366 
L 3122 2828 
Q 2878 2963 2633 3030 
Q 2388 3097 2138 3097 
Q 1578 3097 1268 2742 
Q 959 2388 959 1747 
Q 959 1106 1268 751 
Q 1578 397 2138 397 
Q 2388 397 2633 464 
Q 2878 531 3122 666 
L 3122 134 
Q 2881 22 2623 -34 
Q 2366 -91 2075 -91 
Q 1284 -91 818 406 
Q 353 903 353 1747 
Q 353 2603 823 3093 
Q 1294 3584 2113 3584 
Q 2378 3584 2631 3529 
Q 2884 3475 3122 3366 
z
" transform="scale(0.015625)"/>
       <path id="DejaVuSans-6e" d="M 3513 2113 
L 3513 0 
L 2938 0 
L 2938 2094 
Q 2938 2591 2744 2837 
Q 2550 3084 2163 3084 
Q 1697 3084 1428 2787 
Q 1159 2491 1159 1978 
L 1159 0 
L 581 0 
L 581 3500 
L 1159 3500 
L 1159 2956 
Q 1366 3272 1645 3428 
Q 1925 3584 2291 3584 
Q 2894 3584 3203 3211 
Q 3513 2838 3513 2113 
z
" transform="scale(0.015625)"/>
       <path id="DejaVuSans-74" d="M 1172 4494 
L 1172 3500 
L 2356 3500 
L 2356 3053 
L 1172 3053 
L 1172 1153 
Q 1172 725 1289 603 
Q 1406 481 1766 481 
L 2356 481 
L 2356 0 
L 1766 0 
Q 1100 0 847 248 
Q 594 497 594 1153 
L 594 3053 
L 172 3053 
L 172 3500 
L 594 3500 
L 594 4494 
L 1172 4494 
z
" transform="scale(0.015625)"/>
       <path id="DejaVuSans-47" d="M 3809 666 
L 3809 1919 
L 2778 1919 
L 2778 2438 
L 4434 2438 
L 4434 434 
Q 4069 175 3628 42 
Q 3188 -91 2688 -91 
Q 1594 -91 976 548 
Q 359 1188 359 2328 
Q 359 3472 976 4111 
Q 1594 4750 2688 4750 
Q 3144 4750 3555 4637 
Q 3966 4525 4313 4306 
L 4313 3634 
Q 3963 3931 3569 4081 
Q 3175 4231 2741 4231 
Q 1884 4231 1454 3753 
Q 1025 3275 1025 2328 
Q 1025 1384 1454 906 
Q 1884 428 2741 428 
Q 3075 428 3337 486 
Q 3600 544 3809 666 
z
" transform="scale(0.015625)"/>
       <path id="DejaVuSans-70" d="M 1159 525 
L 1159 -1331 
L 581 -1331 
L 581 3500 
L 1159 3500 
L 1159 2969 
Q 1341 3281 1617 3432 
Q 1894 3584 2278 3584 
Q 2916 3584 3314 3078 
Q 3713 2572 3713 1747 
Q 3713 922 3314 415 
Q 2916 -91 2278 -91 
Q 1894 -91 1617 61 
Q 1341 213 1159 525 
z
M 3116 1747 
Q 3116 2381 2855 2742 
Q 2594 3103 2138 3103 
Q 1681 3103 1420 2742 
Q 1159 2381 1159 1747 
Q 1159 1113 1420 752 
Q 1681 391 2138 391 
Q 2594 391 2855 752 
Q 3116 1113 3116 1747 
z
" transform="scale(0.015625)"/>
       <path id="DejaVuSans-41" d="M 2188 4044 
L 1331 1722 
L 3047 1722 
L 2188 4044 
z
M 1831 4666 
L 2547 4666 
L 4325 0 
L 3669 0 
L 3244 1197 
L 1141 1197 
L 716 0 
L 50 0 
L 1831 4666 
z
" transform="scale(0.015625)"/>
       <path id="DejaVuSans-5f" d="M 3263 -1063 
L 3263 -1509 
L -63 -1509 
L -63 -1063 
L 3263 -1063 
z
" transform="scale(0.015625)"/>
       <path id="DejaVuSans-61" d="M 2194 1759 
Q 1497 1759 1228 1600 
Q 959 1441 959 1056 
Q 959 750 1161 570 
Q 1363 391 1709 391 
Q 2188 391 2477 730 
Q 2766 1069 2766 1631 
L 2766 1759 
L 2194 1759 
z
M 3341 1997 
L 3341 0 
L 2766 0 
L 2766 531 
Q 2569 213 2275 61 
Q 1981 -91 1556 -91 
Q 1019 -91 701 211 
Q 384 513 384 1019 
Q 384 1609 779 1909 
Q 1175 2209 1959 2209 
L 2766 2209 
L 2766 2266 
Q 2766 2663 2505 2880 
Q 2244 3097 1772 3097 
Q 1472 3097 1187 3025 
Q 903 2953 641 2809 
L 641 3341 
Q 956 3463 1253 3523 
Q 1550 3584 1831 3584 
Q 2591 3584 2966 3190 
Q 3341 2797 3341 1997 
z
" transform="scale(0.015625)"/>
       <path id="DejaVuSans-73" d="M 2834 3397 
L 2834 2853 
Q 2591 2978 2328 3040 
Q 2066 3103 1784 3103 
Q 1356 3103 1142 2972 
Q 928 2841 928 2578 
Q 928 2378 1081 2264 
Q 1234 2150 1697 2047 
L 1894 2003 
Q 2506 1872 2764 1633 
Q 3022 1394 3022 966 
Q 3022 478 2636 193 
Q 2250 -91 1575 -91 
Q 1294 -91 989 -36 
Q 684 19 347 128 
L 347 722 
Q 666 556 975 473 
Q 1284 391 1588 391 
Q 1994 391 2212 530 
Q 2431 669 2431 922 
Q 2431 1156 2273 1281 
Q 2116 1406 1581 1522 
L 1381 1569 
Q 847 1681 609 1914 
Q 372 2147 372 2553 
Q 372 3047 722 3315 
Q 1072 3584 1716 3584 
Q 2034 3584 2315 3537 
Q 2597 3491 2834 3397 
z
" transform="scale(0.015625)"/>
       <path id="DejaVuSans-6f" d="M 1959 3097 
Q 1497 3097 1228 2736 
Q 959 2375 959 1747 
Q 959 1119 1226 758 
Q 1494 397 1959 397 
Q 2419 397 2687 759 
Q 2956 1122 2956 1747 
Q 2956 2369 2687 2733 
Q 2419 3097 1959 3097 
z
M 1959 3584 
Q 2709 3584 3137 3096 
Q 3566 2609 3566 1747 
Q 3566 888 3137 398 
Q 2709 -91 1959 -91 
Q 1206 -91 779 398 
Q 353 888 353 1747 
Q 353 2609 779 3096 
Q 1206 3584 1959 3584 
z
" transform="scale(0.015625)"/>
       <path id="DejaVuSans-6d" d="M 3328 2828 
Q 3544 3216 3844 3400 
Q 4144 3584 4550 3584 
Q 5097 3584 5394 3201 
Q 5691 2819 5691 2113 
L 5691 0 
L 5113 0 
L 5113 2094 
Q 5113 2597 4934 2840 
Q 4756 3084 4391 3084 
Q 3944 3084 3684 2787 
Q 3425 2491 3425 1978 
L 3425 0 
L 2847 0 
L 2847 2094 
Q 2847 2600 2669 2842 
Q 2491 3084 2119 3084 
Q 1678 3084 1418 2786 
Q 1159 2488 1159 1978 
L 1159 0 
L 581 0 
L 581 3500 
L 1159 3500 
L 1159 2956 
Q 1356 3278 1631 3431 
Q 1906 3584 2284 3584 
Q 2666 3584 2933 3390 
Q 3200 3197 3328 2828 
z
" transform="scale(0.015625)"/>
       <path id="DejaVuSans-64" d="M 2906 2969 
L 2906 4863 
L 3481 4863 
L 3481 0 
L 2906 0 
L 2906 525 
Q 2725 213 2448 61 
Q 2172 -91 1784 -91 
Q 1150 -91 751 415 
Q 353 922 353 1747 
Q 353 2572 751 3078 
Q 1150 3584 1784 3584 
Q 2172 3584 2448 3432 
Q 2725 3281 2906 2969 
z
M 947 1747 
Q 947 1113 1208 752 
Q 1469 391 1925 391 
Q 2381 391 2643 752 
Q 2906 1113 2906 1747 
Q 2906 2381 2643 2742 
Q 2381 3103 1925 3103 
Q 1469 3103 1208 2742 
Q 947 2381 947 1747 
z
" transform="scale(0.015625)"/>
      </defs>
      <use xlink:href="#DejaVuSans-50"/>
      <use xlink:href="#DejaVuSans-65" x="56.677734"/>
      <use xlink:href="#DejaVuSans-72" x="118.201172"/>
      <use xlink:href="#DejaVuSans-63" x="157.064453"/>
      <use xlink:href="#DejaVuSans-65" x="212.044922"/>
      <use xlink:href="#DejaVuSans-6e" x="273.568359"/>
      <use xlink:href="#DejaVuSans-74" x="336.947266"/>
      <use xlink:href="#DejaVuSans-47" x="376.15625"/>
      <use xlink:href="#DejaVuSans-70" x="453.646484"/>
      <use xlink:href="#DejaVuSans-41" x="517.123047"/>
      <use xlink:href="#DejaVuSans-5f" x="585.53125"/>
      <use xlink:href="#DejaVuSans-74" x="635.53125"/>
      <use xlink:href="#DejaVuSans-72" x="674.740234"/>
      <use xlink:href="#DejaVuSans-61" x="715.853516"/>
      <use xlink:href="#DejaVuSans-6e" x="777.132812"/>
      <use xlink:href="#DejaVuSans-73" x="840.511719"/>
      <use xlink:href="#DejaVuSans-66" x="892.611328"/>
      <use xlink:href="#DejaVuSans-6f" x="927.816406"/>
      <use xlink:href="#DejaVuSans-72" x="988.998047"/>
      <use xlink:href="#DejaVuSans-6d" x="1028.361328"/>
      <use xlink:href="#DejaVuSans-65" x="1125.773438"/>
      <use xlink:href="#DejaVuSans-64" x="1187.296875"/>
     </g>
    </g>
   </g>
   <g id="LineCollection_1">
    <path d="M 200.310383 225.35518 
L 200.310383 213.494065 
" clip-path="url(#pc53fb53142)" style="fill: none; stroke: #d3d3d3; stroke-width: 3"/>
    <path d="M 63.886648 216.962669 
L 63.886648 202.7523 
" clip-path="url(#pc53fb53142)" style="fill: none; stroke: #d3d3d3; stroke-width: 3"/>
    <path d="M 143.701978 224.388091 
L 143.701978 195.763201 
" clip-path="url(#pc53fb53142)" style="fill: none; stroke: #d3d3d3; stroke-width: 3"/>
    <path d="M 152.2565 304.898442 
L 152.2565 143.545626 
" clip-path="url(#pc53fb53142)" style="fill: none; stroke: #d3d3d3; stroke-width: 3"/>
    <path d="M 148.008769 292.360418 
L 148.008769 279.262605 
" clip-path="url(#pc53fb53142)" style="fill: none; stroke: #d3d3d3; stroke-width: 3"/>
    <path d="M 170.182155 267.9691 
L 170.182155 93.732984 
" clip-path="url(#pc53fb53142)" style="fill: none; stroke: #d3d3d3; stroke-width: 3"/>
    <path d="M 218.181521 226.492956 
L 218.181521 207.446058 
" clip-path="url(#pc53fb53142)" style="fill: none; stroke: #d3d3d3; stroke-width: 3"/>
    <path d="M 137.465536 236.598253 
L 137.465536 225.621568 
" clip-path="url(#pc53fb53142)" style="fill: none; stroke: #d3d3d3; stroke-width: 3"/>
    <path d="M 237.805132 234.825873 
L 237.805132 212.800849 
" clip-path="url(#pc53fb53142)" style="fill: none; stroke: #d3d3d3; stroke-width: 3"/>
    <path d="M 182.834489 286.266728 
L 182.834489 278.632126 
" clip-path="url(#pc53fb53142)" style="fill: none; stroke: #d3d3d3; stroke-width: 3"/>
    <path d="M 194.285192 265.067718 
L 194.285192 241.435259 
" clip-path="url(#pc53fb53142)" style="fill: none; stroke: #d3d3d3; stroke-width: 3"/>
    <path d="M 171.742685 225.011908 
L 171.742685 197.354908 
" clip-path="url(#pc53fb53142)" style="fill: none; stroke: #d3d3d3; stroke-width: 3"/>
    <path d="M 240.839875 291.280636 
L 240.839875 278.391219 
" clip-path="url(#pc53fb53142)" style="fill: none; stroke: #d3d3d3; stroke-width: 3"/>
    <path d="M 199.73569 242.220106 
L 199.73569 230.150113 
" clip-path="url(#pc53fb53142)" style="fill: none; stroke: #d3d3d3; stroke-width: 3"/>
    <path d="M 268.745427 238.428927 
L 268.745427 217.070603 
" clip-path="url(#pc53fb53142)" style="fill: none; stroke: #d3d3d3; stroke-width: 3"/>
    <path d="M 247.322777 226.565199 
L 247.322777 212.088584 
" clip-path="url(#pc53fb53142)" style="fill: none; stroke: #d3d3d3; stroke-width: 3"/>
    <path d="M 227.749139 296.38925 
L 227.749139 270.768406 
" clip-path="url(#pc53fb53142)" style="fill: none; stroke: #d3d3d3; stroke-width: 3"/>
    <path d="M 244.151743 291.545816 
L 244.151743 287.091271 
" clip-path="url(#pc53fb53142)" style="fill: none; stroke: #d3d3d3; stroke-width: 3"/>
    <path d="M 361.550411 240.481357 
L 361.550411 205.249088 
" clip-path="url(#pc53fb53142)" style="fill: none; stroke: #d3d3d3; stroke-width: 3"/>
    <path d="M 77.273817 225.277061 
L 77.273817 98.053197 
" clip-path="url(#pc53fb53142)" style="fill: none; stroke: #d3d3d3; stroke-width: 3"/>
    <path d="M 82.924208 220.532996 
L 82.924208 169.101338 
" clip-path="url(#pc53fb53142)" style="fill: none; stroke: #d3d3d3; stroke-width: 3"/>
    <path d="M 139.957387 236.307435 
L 139.957387 204.139727 
" clip-path="url(#pc53fb53142)" style="fill: none; stroke: #d3d3d3; stroke-width: 3"/>
    <path d="M 202.343388 208.299976 
L 202.343388 192.149706 
" clip-path="url(#pc53fb53142)" style="fill: none; stroke: #d3d3d3; stroke-width: 3"/>
    <path d="M 183.715836 220.332462 
L 183.715836 204.609132 
" clip-path="url(#pc53fb53142)" style="fill: none; stroke: #d3d3d3; stroke-width: 3"/>
    <path d="M 164.566971 213.339822 
L 164.566971 184.869108 
" clip-path="url(#pc53fb53142)" style="fill: none; stroke: #d3d3d3; stroke-width: 3"/>
    <path d="M 190.29982 232.130588 
L 190.29982 196.977184 
" clip-path="url(#pc53fb53142)" style="fill: none; stroke: #d3d3d3; stroke-width: 3"/>
    <path d="M 202.295686 217.208965 
L 202.295686 201.487431 
" clip-path="url(#pc53fb53142)" style="fill: none; stroke: #d3d3d3; stroke-width: 3"/>
    <path d="M 215.753272 240.870312 
L 215.753272 110.243857 
" clip-path="url(#pc53fb53142)" style="fill: none; stroke: #d3d3d3; stroke-width: 3"/>
    <path d="M 199.712975 277.977546 
L 199.712975 269.881598 
" clip-path="url(#pc53fb53142)" style="fill: none; stroke: #d3d3d3; stroke-width: 3"/>
    <path d="M 222.647318 243.251419 
L 222.647318 226.882166 
" clip-path="url(#pc53fb53142)" style="fill: none; stroke: #d3d3d3; stroke-width: 3"/>
    <path d="M 186.915264 290.325649 
L 186.915264 281.527818 
" clip-path="url(#pc53fb53142)" style="fill: none; stroke: #d3d3d3; stroke-width: 3"/>
    <path d="M 269.591566 266.245263 
L 269.591566 263.536313 
" clip-path="url(#pc53fb53142)" style="fill: none; stroke: #d3d3d3; stroke-width: 3"/>
    <path d="M 317.822627 234.864657 
L 317.822627 202.855289 
" clip-path="url(#pc53fb53142)" style="fill: none; stroke: #d3d3d3; stroke-width: 3"/>
    <path d="M 199.016756 254.272036 
L 199.016756 245.752942 
" clip-path="url(#pc53fb53142)" style="fill: none; stroke: #d3d3d3; stroke-width: 3"/>
    <path d="M 289.210634 277.631359 
L 289.210634 275.195643 
" clip-path="url(#pc53fb53142)" style="fill: none; stroke: #d3d3d3; stroke-width: 3"/>
    <path d="M 270.550145 245.987642 
L 270.550145 245.189575 
" clip-path="url(#pc53fb53142)" style="fill: none; stroke: #d3d3d3; stroke-width: 3"/>
   </g>
   <g id="LineCollection_2">
    <path d="M 261.626502 279.665551 
L 261.626502 268.998408 
" clip-path="url(#pc53fb53142)" style="fill: none; stroke: #d3d3d3; stroke-width: 3"/>
    <path d="M 314.661815 288.180714 
L 314.661815 273.328014 
" clip-path="url(#pc53fb53142)" style="fill: none; stroke: #d3d3d3; stroke-width: 3"/>
    <path d="M 324.387303 266.812299 
L 324.387303 248.686935 
" clip-path="url(#pc53fb53142)" style="fill: none; stroke: #d3d3d3; stroke-width: 3"/>
    <path d="M 216.000867 284.712836 
L 216.000867 275.191764 
" clip-path="url(#pc53fb53142)" style="fill: none; stroke: #d3d3d3; stroke-width: 3"/>
    <path d="M 195.167675 280.858603 
L 195.167675 254.290478 
" clip-path="url(#pc53fb53142)" style="fill: none; stroke: #d3d3d3; stroke-width: 3"/>
    <path d="M 274.030105 274.301797 
L 274.030105 262.147278 
" clip-path="url(#pc53fb53142)" style="fill: none; stroke: #d3d3d3; stroke-width: 3"/>
    <path d="M 153.564892 292.529653 
L 153.564892 58.972035 
" clip-path="url(#pc53fb53142)" style="fill: none; stroke: #d3d3d3; stroke-width: 3"/>
    <path d="M 281.966775 281.300206 
L 281.966775 256.410085 
" clip-path="url(#pc53fb53142)" style="fill: none; stroke: #d3d3d3; stroke-width: 3"/>
   </g>
   <g id="LineCollection_3">
    <path d="M 357.608198 277.728705 
L 357.608198 259.210728 
" clip-path="url(#pc53fb53142)" style="fill: none; stroke: #d3d3d3; stroke-width: 3"/>
    <path d="M 360.60319 277.893941 
L 360.60319 273.010619 
" clip-path="url(#pc53fb53142)" style="fill: none; stroke: #d3d3d3; stroke-width: 3"/>
    <path d="M 271.639336 286.848026 
L 271.639336 277.339537 
" clip-path="url(#pc53fb53142)" style="fill: none; stroke: #d3d3d3; stroke-width: 3"/>
    <path d="M 216.739109 278.139319 
L 216.739109 266.667792 
" clip-path="url(#pc53fb53142)" style="fill: none; stroke: #d3d3d3; stroke-width: 3"/>
    <path d="M 378.27557 292.021044 
L 378.27557 279.563542 
" clip-path="url(#pc53fb53142)" style="fill: none; stroke: #d3d3d3; stroke-width: 3"/>
    <path d="M 280.629989 288.666715 
L 280.629989 277.636831 
" clip-path="url(#pc53fb53142)" style="fill: none; stroke: #d3d3d3; stroke-width: 3"/>
    <path d="M 290.617837 281.967486 
L 290.617837 272.28647 
" clip-path="url(#pc53fb53142)" style="fill: none; stroke: #d3d3d3; stroke-width: 3"/>
    <path d="M 219.302513 296.616828 
L 219.302513 258.823875 
" clip-path="url(#pc53fb53142)" style="fill: none; stroke: #d3d3d3; stroke-width: 3"/>
    <path d="M 315.129747 290.855611 
L 315.129747 278.102296 
" clip-path="url(#pc53fb53142)" style="fill: none; stroke: #d3d3d3; stroke-width: 3"/>
    <path d="M 315.573828 284.359137 
L 315.573828 268.512868 
" clip-path="url(#pc53fb53142)" style="fill: none; stroke: #d3d3d3; stroke-width: 3"/>
    <path d="M 338.40936 277.205955 
L 338.40936 268.39631 
" clip-path="url(#pc53fb53142)" style="fill: none; stroke: #d3d3d3; stroke-width: 3"/>
    <path d="M 385.194602 292.500734 
L 385.194602 279.547261 
" clip-path="url(#pc53fb53142)" style="fill: none; stroke: #d3d3d3; stroke-width: 3"/>
    <path d="M 294.528249 289.791793 
L 294.528249 277.665052 
" clip-path="url(#pc53fb53142)" style="fill: none; stroke: #d3d3d3; stroke-width: 3"/>
    <path d="M 328.77019 287.087943 
L 328.77019 275.705708 
" clip-path="url(#pc53fb53142)" style="fill: none; stroke: #d3d3d3; stroke-width: 3"/>
    <path d="M 301.5813 284.274232 
L 301.5813 272.460057 
" clip-path="url(#pc53fb53142)" style="fill: none; stroke: #d3d3d3; stroke-width: 3"/>
    <path d="M 335.934545 282.773565 
L 335.934545 268.943933 
" clip-path="url(#pc53fb53142)" style="fill: none; stroke: #d3d3d3; stroke-width: 3"/>
    <path d="M 302.48877 286.518093 
L 302.48877 277.733873 
" clip-path="url(#pc53fb53142)" style="fill: none; stroke: #d3d3d3; stroke-width: 3"/>
    <path d="M 242.181204 259.785561 
L 242.181204 257.340129 
" clip-path="url(#pc53fb53142)" style="fill: none; stroke: #d3d3d3; stroke-width: 3"/>
    <path d="M 354.337218 272.922633 
L 354.337218 266.785071 
" clip-path="url(#pc53fb53142)" style="fill: none; stroke: #d3d3d3; stroke-width: 3"/>
    <path d="M 309.017102 275.51755 
L 309.017102 270.283631 
" clip-path="url(#pc53fb53142)" style="fill: none; stroke: #d3d3d3; stroke-width: 3"/>
    <path d="M 263.497093 259.919077 
L 263.497093 247.580295 
" clip-path="url(#pc53fb53142)" style="fill: none; stroke: #d3d3d3; stroke-width: 3"/>
    <path d="M 303.019169 281.278385 
L 303.019169 270.832868 
" clip-path="url(#pc53fb53142)" style="fill: none; stroke: #d3d3d3; stroke-width: 3"/>
    <path d="M 295.695807 261.316991 
L 295.695807 251.772107 
" clip-path="url(#pc53fb53142)" style="fill: none; stroke: #d3d3d3; stroke-width: 3"/>
    <path d="M 334.761308 275.949297 
L 334.761308 265.468066 
" clip-path="url(#pc53fb53142)" style="fill: none; stroke: #d3d3d3; stroke-width: 3"/>
    <path d="M 355.443445 295.086073 
L 355.443445 283.209148 
" clip-path="url(#pc53fb53142)" style="fill: none; stroke: #d3d3d3; stroke-width: 3"/>
    <path d="M 328.73271 284.379945 
L 328.73271 279.047792 
" clip-path="url(#pc53fb53142)" style="fill: none; stroke: #d3d3d3; stroke-width: 3"/>
    <path d="M 340.265187 232.453662 
L 340.265187 224.139958 
" clip-path="url(#pc53fb53142)" style="fill: none; stroke: #d3d3d3; stroke-width: 3"/>
   </g>
   <g id="line2d_14">
    <path d="M 200.310383 237.97763 
L 63.886648 201.174579 
L 143.701978 222.706373 
L 152.2565 225.014127 
L 148.008769 223.868216 
L 170.182155 229.849934 
L 218.181521 242.79873 
L 137.465536 221.023967 
L 237.805132 248.092594 
L 182.834489 233.263156 
L 194.285192 236.352214 
L 171.742685 230.270918 
L 240.839875 248.911277 
L 199.73569 237.822595 
L 268.745427 256.439362 
L 247.322777 250.660171 
L 227.749139 245.379788 
L 244.151743 249.80472 
L 361.550411 281.475377 
L 261.626502 254.518889 
L 314.661815 268.826233 
L 324.387303 271.449879 
L 357.608198 280.411885 
L 360.60319 281.219844 
L 271.639336 257.220053 
L 216.739109 242.40961 
L 378.27557 285.987325 
L 280.629989 259.645462 
L 290.617837 262.339886 
L 219.302513 243.10114 
L 315.129747 268.952467 
L 315.573828 269.072267 
L 338.40936 275.232612 
L 385.194602 287.853873 
L 294.528249 263.394798 
L 328.77019 272.632251 
L 301.5813 265.297501 
L 335.934545 274.564981 
L 77.273817 204.786038 
L 82.924208 206.310345 
L 139.957387 221.696194 
L 202.343388 238.526075 
L 183.715836 233.500917 
L 164.566971 228.335125 
L 190.29982 235.277079 
L 202.295686 238.513206 
L 215.753272 242.143661 
L 199.712975 237.816467 
L 222.647318 244.003469 
L 186.915264 234.364027 
L 269.591566 256.667625 
L 317.822627 269.678926 
L 199.016756 237.628648 
L 289.210634 261.960264 
L 270.550145 256.926221 
L 216.000867 242.210455 
L 195.167675 236.590281 
L 274.030105 257.865011 
L 153.564892 225.367092 
L 281.966775 260.006087 
L 302.48877 265.542309 
L 242.181204 249.273128 
L 354.337218 279.529472 
L 309.017102 267.303458 
L 263.497093 255.023519 
L 303.019169 265.685395 
L 295.695807 263.70977 
L 334.761308 274.248476 
L 355.443445 279.827899 
L 328.73271 272.62214 
L 340.265187 275.733259 
" clip-path="url(#pc53fb53142)" style="fill: none; stroke: #1f77b4; stroke-width: 1.5; stroke-linecap: square"/>
   </g>
   <g id="line2d_15">
    <g clip-path="url(#pc53fb53142)">
     <use xlink:href="#me6a34aaf7e" x="200.310383" y="219.424622" style="fill: #3cb371; stroke: #3cb371"/>
     <use xlink:href="#me6a34aaf7e" x="63.886648" y="209.857484" style="fill: #3cb371; stroke: #3cb371"/>
     <use xlink:href="#me6a34aaf7e" x="143.701978" y="210.075646" style="fill: #3cb371; stroke: #3cb371"/>
     <use xlink:href="#me6a34aaf7e" x="152.2565" y="224.222034" style="fill: #3cb371; stroke: #3cb371"/>
     <use xlink:href="#me6a34aaf7e" x="148.008769" y="285.811512" style="fill: #3cb371; stroke: #3cb371"/>
     <use xlink:href="#me6a34aaf7e" x="170.182155" y="180.851042" style="fill: #3cb371; stroke: #3cb371"/>
     <use xlink:href="#me6a34aaf7e" x="218.181521" y="216.969507" style="fill: #3cb371; stroke: #3cb371"/>
     <use xlink:href="#me6a34aaf7e" x="137.465536" y="231.10991" style="fill: #3cb371; stroke: #3cb371"/>
     <use xlink:href="#me6a34aaf7e" x="237.805132" y="223.813361" style="fill: #3cb371; stroke: #3cb371"/>
     <use xlink:href="#me6a34aaf7e" x="182.834489" y="282.449427" style="fill: #3cb371; stroke: #3cb371"/>
     <use xlink:href="#me6a34aaf7e" x="194.285192" y="253.251489" style="fill: #3cb371; stroke: #3cb371"/>
     <use xlink:href="#me6a34aaf7e" x="171.742685" y="211.183408" style="fill: #3cb371; stroke: #3cb371"/>
     <use xlink:href="#me6a34aaf7e" x="240.839875" y="284.835928" style="fill: #3cb371; stroke: #3cb371"/>
     <use xlink:href="#me6a34aaf7e" x="199.73569" y="236.18511" style="fill: #3cb371; stroke: #3cb371"/>
     <use xlink:href="#me6a34aaf7e" x="268.745427" y="227.749765" style="fill: #3cb371; stroke: #3cb371"/>
     <use xlink:href="#me6a34aaf7e" x="247.322777" y="219.326891" style="fill: #3cb371; stroke: #3cb371"/>
     <use xlink:href="#me6a34aaf7e" x="227.749139" y="283.578828" style="fill: #3cb371; stroke: #3cb371"/>
     <use xlink:href="#me6a34aaf7e" x="244.151743" y="289.318544" style="fill: #3cb371; stroke: #3cb371"/>
     <use xlink:href="#me6a34aaf7e" x="361.550411" y="222.865223" style="fill: #3cb371; stroke: #3cb371"/>
     <use xlink:href="#me6a34aaf7e" x="77.273817" y="161.665129" style="fill: #3cb371; stroke: #3cb371"/>
     <use xlink:href="#me6a34aaf7e" x="82.924208" y="194.817167" style="fill: #3cb371; stroke: #3cb371"/>
     <use xlink:href="#me6a34aaf7e" x="139.957387" y="220.223581" style="fill: #3cb371; stroke: #3cb371"/>
     <use xlink:href="#me6a34aaf7e" x="202.343388" y="200.224841" style="fill: #3cb371; stroke: #3cb371"/>
     <use xlink:href="#me6a34aaf7e" x="183.715836" y="212.470797" style="fill: #3cb371; stroke: #3cb371"/>
     <use xlink:href="#me6a34aaf7e" x="164.566971" y="199.104465" style="fill: #3cb371; stroke: #3cb371"/>
     <use xlink:href="#me6a34aaf7e" x="190.29982" y="214.553886" style="fill: #3cb371; stroke: #3cb371"/>
     <use xlink:href="#me6a34aaf7e" x="202.295686" y="209.348198" style="fill: #3cb371; stroke: #3cb371"/>
     <use xlink:href="#me6a34aaf7e" x="215.753272" y="175.557084" style="fill: #3cb371; stroke: #3cb371"/>
     <use xlink:href="#me6a34aaf7e" x="199.712975" y="273.929572" style="fill: #3cb371; stroke: #3cb371"/>
     <use xlink:href="#me6a34aaf7e" x="222.647318" y="235.066792" style="fill: #3cb371; stroke: #3cb371"/>
     <use xlink:href="#me6a34aaf7e" x="186.915264" y="285.926733" style="fill: #3cb371; stroke: #3cb371"/>
     <use xlink:href="#me6a34aaf7e" x="269.591566" y="264.890788" style="fill: #3cb371; stroke: #3cb371"/>
     <use xlink:href="#me6a34aaf7e" x="317.822627" y="218.859973" style="fill: #3cb371; stroke: #3cb371"/>
     <use xlink:href="#me6a34aaf7e" x="199.016756" y="250.012489" style="fill: #3cb371; stroke: #3cb371"/>
     <use xlink:href="#me6a34aaf7e" x="289.210634" y="276.413501" style="fill: #3cb371; stroke: #3cb371"/>
     <use xlink:href="#me6a34aaf7e" x="270.550145" y="245.588608" style="fill: #3cb371; stroke: #3cb371"/>
    </g>
   </g>
   <g id="line2d_16">
    <g clip-path="url(#pc53fb53142)">
     <use xlink:href="#m70bbde4b27" x="261.626502" y="274.33198" style="fill: #ffdead; stroke: #ffdead"/>
     <use xlink:href="#m70bbde4b27" x="314.661815" y="280.754364" style="fill: #ffdead; stroke: #ffdead"/>
     <use xlink:href="#m70bbde4b27" x="324.387303" y="257.749617" style="fill: #ffdead; stroke: #ffdead"/>
     <use xlink:href="#m70bbde4b27" x="216.000867" y="279.9523" style="fill: #ffdead; stroke: #ffdead"/>
     <use xlink:href="#m70bbde4b27" x="195.167675" y="267.574541" style="fill: #ffdead; stroke: #ffdead"/>
     <use xlink:href="#m70bbde4b27" x="274.030105" y="268.224538" style="fill: #ffdead; stroke: #ffdead"/>
     <use xlink:href="#m70bbde4b27" x="153.564892" y="175.750844" style="fill: #ffdead; stroke: #ffdead"/>
     <use xlink:href="#m70bbde4b27" x="281.966775" y="268.855145" style="fill: #ffdead; stroke: #ffdead"/>
    </g>
   </g>
   <g id="line2d_17">
    <g clip-path="url(#pc53fb53142)">
     <use xlink:href="#m14495a6313" x="357.608198" y="268.469717" style="fill: #483d8b; stroke: #483d8b"/>
     <use xlink:href="#m14495a6313" x="360.60319" y="275.45228" style="fill: #483d8b; stroke: #483d8b"/>
     <use xlink:href="#m14495a6313" x="271.639336" y="282.093782" style="fill: #483d8b; stroke: #483d8b"/>
     <use xlink:href="#m14495a6313" x="216.739109" y="272.403556" style="fill: #483d8b; stroke: #483d8b"/>
     <use xlink:href="#m14495a6313" x="378.27557" y="285.792293" style="fill: #483d8b; stroke: #483d8b"/>
     <use xlink:href="#m14495a6313" x="280.629989" y="283.151773" style="fill: #483d8b; stroke: #483d8b"/>
     <use xlink:href="#m14495a6313" x="290.617837" y="277.126978" style="fill: #483d8b; stroke: #483d8b"/>
     <use xlink:href="#m14495a6313" x="219.302513" y="277.720351" style="fill: #483d8b; stroke: #483d8b"/>
     <use xlink:href="#m14495a6313" x="315.129747" y="284.478954" style="fill: #483d8b; stroke: #483d8b"/>
     <use xlink:href="#m14495a6313" x="315.573828" y="276.436003" style="fill: #483d8b; stroke: #483d8b"/>
     <use xlink:href="#m14495a6313" x="338.40936" y="272.801132" style="fill: #483d8b; stroke: #483d8b"/>
     <use xlink:href="#m14495a6313" x="385.194602" y="286.023998" style="fill: #483d8b; stroke: #483d8b"/>
     <use xlink:href="#m14495a6313" x="294.528249" y="283.728423" style="fill: #483d8b; stroke: #483d8b"/>
     <use xlink:href="#m14495a6313" x="328.77019" y="281.396825" style="fill: #483d8b; stroke: #483d8b"/>
     <use xlink:href="#m14495a6313" x="301.5813" y="278.367145" style="fill: #483d8b; stroke: #483d8b"/>
     <use xlink:href="#m14495a6313" x="335.934545" y="275.858749" style="fill: #483d8b; stroke: #483d8b"/>
     <use xlink:href="#m14495a6313" x="302.48877" y="282.125983" style="fill: #483d8b; stroke: #483d8b"/>
     <use xlink:href="#m14495a6313" x="242.181204" y="258.562845" style="fill: #483d8b; stroke: #483d8b"/>
     <use xlink:href="#m14495a6313" x="354.337218" y="269.853852" style="fill: #483d8b; stroke: #483d8b"/>
     <use xlink:href="#m14495a6313" x="309.017102" y="272.900591" style="fill: #483d8b; stroke: #483d8b"/>
     <use xlink:href="#m14495a6313" x="263.497093" y="253.749686" style="fill: #483d8b; stroke: #483d8b"/>
     <use xlink:href="#m14495a6313" x="303.019169" y="276.055627" style="fill: #483d8b; stroke: #483d8b"/>
     <use xlink:href="#m14495a6313" x="295.695807" y="256.544549" style="fill: #483d8b; stroke: #483d8b"/>
     <use xlink:href="#m14495a6313" x="334.761308" y="270.708682" style="fill: #483d8b; stroke: #483d8b"/>
     <use xlink:href="#m14495a6313" x="355.443445" y="289.14761" style="fill: #483d8b; stroke: #483d8b"/>
     <use xlink:href="#m14495a6313" x="328.73271" y="281.713869" style="fill: #483d8b; stroke: #483d8b"/>
     <use xlink:href="#m14495a6313" x="340.265187" y="228.29681" style="fill: #483d8b; stroke: #483d8b"/>
    </g>
   </g>
   <g id="patch_3">
    <path d="M 47.82125 303.64 
L 47.82125 46.675714 
" style="fill: none; stroke: #000000; stroke-width: 0.8; stroke-linejoin: miter; stroke-linecap: square"/>
   </g>
   <g id="patch_4">
    <path d="M 401.26 303.64 
L 401.26 46.675714 
" style="fill: none; stroke: #000000; stroke-width: 0.8; stroke-linejoin: miter; stroke-linecap: square"/>
   </g>
   <g id="patch_5">
    <path d="M 47.82125 303.64 
L 401.26 303.64 
" style="fill: none; stroke: #000000; stroke-width: 0.8; stroke-linejoin: miter; stroke-linecap: square"/>
   </g>
   <g id="patch_6">
    <path d="M 47.82125 46.675714 
L 401.26 46.675714 
" style="fill: none; stroke: #000000; stroke-width: 0.8; stroke-linejoin: miter; stroke-linecap: square"/>
   </g>
   <g id="text_16">
    <!-- y = -0.04x + -0.61 -->
    <g transform="translate(36.637 18.599375)scale(0.1 -0.1)">
     <defs>
      <path id="DejaVuSans-79" d="M 2059 -325 
Q 1816 -950 1584 -1140 
Q 1353 -1331 966 -1331 
L 506 -1331 
L 506 -850 
L 844 -850 
Q 1081 -850 1212 -737 
Q 1344 -625 1503 -206 
L 1606 56 
L 191 3500 
L 800 3500 
L 1894 763 
L 2988 3500 
L 3597 3500 
L 2059 -325 
z
" transform="scale(0.015625)"/>
      <path id="DejaVuSans-20" transform="scale(0.015625)"/>
      <path id="DejaVuSans-3d" d="M 678 2906 
L 4684 2906 
L 4684 2381 
L 678 2381 
L 678 2906 
z
M 678 1631 
L 4684 1631 
L 4684 1100 
L 678 1100 
L 678 1631 
z
" transform="scale(0.015625)"/>
      <path id="DejaVuSans-2d" d="M 313 2009 
L 1997 2009 
L 1997 1497 
L 313 1497 
L 313 2009 
z
" transform="scale(0.015625)"/>
      <path id="DejaVuSans-78" d="M 3513 3500 
L 2247 1797 
L 3578 0 
L 2900 0 
L 1881 1375 
L 863 0 
L 184 0 
L 1544 1831 
L 300 3500 
L 978 3500 
L 1906 2253 
L 2834 3500 
L 3513 3500 
z
" transform="scale(0.015625)"/>
      <path id="DejaVuSans-2b" d="M 2944 4013 
L 2944 2272 
L 4684 2272 
L 4684 1741 
L 2944 1741 
L 2944 0 
L 2419 0 
L 2419 1741 
L 678 1741 
L 678 2272 
L 2419 2272 
L 2419 4013 
L 2944 4013 
z
" transform="scale(0.015625)"/>
      <path id="DejaVuSans-36" d="M 2113 2584 
Q 1688 2584 1439 2293 
Q 1191 2003 1191 1497 
Q 1191 994 1439 701 
Q 1688 409 2113 409 
Q 2538 409 2786 701 
Q 3034 994 3034 1497 
Q 3034 2003 2786 2293 
Q 2538 2584 2113 2584 
z
M 3366 4563 
L 3366 3988 
Q 3128 4100 2886 4159 
Q 2644 4219 2406 4219 
Q 1781 4219 1451 3797 
Q 1122 3375 1075 2522 
Q 1259 2794 1537 2939 
Q 1816 3084 2150 3084 
Q 2853 3084 3261 2657 
Q 3669 2231 3669 1497 
Q 3669 778 3244 343 
Q 2819 -91 2113 -91 
Q 1303 -91 875 529 
Q 447 1150 447 2328 
Q 447 3434 972 4092 
Q 1497 4750 2381 4750 
Q 2619 4750 2861 4703 
Q 3103 4656 3366 4563 
z
" transform="scale(0.015625)"/>
     </defs>
     <use xlink:href="#DejaVuSans-79"/>
     <use xlink:href="#DejaVuSans-20" x="59.179688"/>
     <use xlink:href="#DejaVuSans-3d" x="90.966797"/>
     <use xlink:href="#DejaVuSans-20" x="174.755859"/>
     <use xlink:href="#DejaVuSans-2d" x="206.542969"/>
     <use xlink:href="#DejaVuSans-30" x="242.626953"/>
     <use xlink:href="#DejaVuSans-2e" x="306.25"/>
     <use xlink:href="#DejaVuSans-30" x="338.037109"/>
     <use xlink:href="#DejaVuSans-34" x="401.660156"/>
     <use xlink:href="#DejaVuSans-78" x="465.283203"/>
     <use xlink:href="#DejaVuSans-20" x="524.462891"/>
     <use xlink:href="#DejaVuSans-2b" x="556.25"/>
     <use xlink:href="#DejaVuSans-20" x="640.039062"/>
     <use xlink:href="#DejaVuSans-2d" x="671.826172"/>
     <use xlink:href="#DejaVuSans-30" x="707.910156"/>
     <use xlink:href="#DejaVuSans-2e" x="771.533203"/>
     <use xlink:href="#DejaVuSans-36" x="803.320312"/>
     <use xlink:href="#DejaVuSans-31" x="866.943359"/>
    </g>
   </g>
   <g id="text_17">
    <!-- r^2 = 0.36 -->
    <g transform="translate(55.237781 26.308304)scale(0.1 -0.1)">
     <defs>
      <path id="DejaVuSans-5e" d="M 2988 4666 
L 4684 2925 
L 4056 2925 
L 2681 4159 
L 1306 2925 
L 678 2925 
L 2375 4666 
L 2988 4666 
z
" transform="scale(0.015625)"/>
     </defs>
     <use xlink:href="#DejaVuSans-72"/>
     <use xlink:href="#DejaVuSans-5e" x="41.113281"/>
     <use xlink:href="#DejaVuSans-32" x="124.902344"/>
     <use xlink:href="#DejaVuSans-20" x="188.525391"/>
     <use xlink:href="#DejaVuSans-3d" x="220.3125"/>
     <use xlink:href="#DejaVuSans-20" x="304.101562"/>
     <use xlink:href="#DejaVuSans-30" x="335.888672"/>
     <use xlink:href="#DejaVuSans-2e" x="399.511719"/>
     <use xlink:href="#DejaVuSans-33" x="431.298828"/>
     <use xlink:href="#DejaVuSans-36" x="494.921875"/>
    </g>
   </g>
   <g id="text_18">
    <!-- n = 71 -->
    <g transform="translate(66.265906 34.017232)scale(0.1 -0.1)">
     <defs>
      <path id="DejaVuSans-37" d="M 525 4666 
L 3525 4666 
L 3525 4397 
L 1831 0 
L 1172 0 
L 2766 4134 
L 525 4134 
L 525 4666 
z
" transform="scale(0.015625)"/>
     </defs>
     <use xlink:href="#DejaVuSans-6e"/>
     <use xlink:href="#DejaVuSans-20" x="63.378906"/>
     <use xlink:href="#DejaVuSans-3d" x="95.166016"/>
     <use xlink:href="#DejaVuSans-20" x="178.955078"/>
     <use xlink:href="#DejaVuSans-37" x="210.742188"/>
     <use xlink:href="#DejaVuSans-31" x="274.365234"/>
    </g>
   </g>
   <g id="text_19">
    <!-- VDWDiff vs PercentGpA_transformed -->
    <g transform="translate(113.835937 40.675714)scale(0.12 -0.12)">
     <defs>
      <path id="DejaVuSans-76" d="M 191 3500 
L 800 3500 
L 1894 563 
L 2988 3500 
L 3597 3500 
L 2284 0 
L 1503 0 
L 191 3500 
z
" transform="scale(0.015625)"/>
     </defs>
     <use xlink:href="#DejaVuSans-56"/>
     <use xlink:href="#DejaVuSans-44" x="68.408203"/>
     <use xlink:href="#DejaVuSans-57" x="145.410156"/>
     <use xlink:href="#DejaVuSans-44" x="244.287109"/>
     <use xlink:href="#DejaVuSans-69" x="321.289062"/>
     <use xlink:href="#DejaVuSans-66" x="349.072266"/>
     <use xlink:href="#DejaVuSans-66" x="384.277344"/>
     <use xlink:href="#DejaVuSans-20" x="419.482422"/>
     <use xlink:href="#DejaVuSans-76" x="451.269531"/>
     <use xlink:href="#DejaVuSans-73" x="510.449219"/>
     <use xlink:href="#DejaVuSans-20" x="562.548828"/>
     <use xlink:href="#DejaVuSans-50" x="594.335938"/>
     <use xlink:href="#DejaVuSans-65" x="651.013672"/>
     <use xlink:href="#DejaVuSans-72" x="712.537109"/>
     <use xlink:href="#DejaVuSans-63" x="751.400391"/>
     <use xlink:href="#DejaVuSans-65" x="806.380859"/>
     <use xlink:href="#DejaVuSans-6e" x="867.904297"/>
     <use xlink:href="#DejaVuSans-74" x="931.283203"/>
     <use xlink:href="#DejaVuSans-47" x="970.492188"/>
     <use xlink:href="#DejaVuSans-70" x="1047.982422"/>
     <use xlink:href="#DejaVuSans-41" x="1111.458984"/>
     <use xlink:href="#DejaVuSans-5f" x="1179.867188"/>
     <use xlink:href="#DejaVuSans-74" x="1229.867188"/>
     <use xlink:href="#DejaVuSans-72" x="1269.076172"/>
     <use xlink:href="#DejaVuSans-61" x="1310.189453"/>
     <use xlink:href="#DejaVuSans-6e" x="1371.46875"/>
     <use xlink:href="#DejaVuSans-73" x="1434.847656"/>
     <use xlink:href="#DejaVuSans-66" x="1486.947266"/>
     <use xlink:href="#DejaVuSans-6f" x="1522.152344"/>
     <use xlink:href="#DejaVuSans-72" x="1583.333984"/>
     <use xlink:href="#DejaVuSans-6d" x="1622.697266"/>
     <use xlink:href="#DejaVuSans-65" x="1720.109375"/>
     <use xlink:href="#DejaVuSans-64" x="1781.632812"/>
    </g>
   </g>
   <g id="legend_1">
    <g id="patch_7">
     <path d="M 408.26 98.710089 
L 448.008438 98.710089 
Q 450.008438 98.710089 450.008438 96.710089 
L 450.008438 53.675714 
Q 450.008438 51.675714 448.008438 51.675714 
L 408.26 51.675714 
Q 406.26 51.675714 406.26 53.675714 
L 406.26 96.710089 
Q 406.26 98.710089 408.26 98.710089 
z
" style="fill: #ffffff; opacity: 0.8; stroke: #cccccc; stroke-linejoin: miter"/>
    </g>
    <g id="PathCollection_4">
     <g>
      <use xlink:href="#me6a34aaf7e" x="420.26" y="60.649152" style="fill: #3cb371; stroke: #3cb371"/>
     </g>
    </g>
    <g id="text_20">
     <!-- G -->
     <g transform="translate(438.26 63.274152)scale(0.1 -0.1)">
      <use xlink:href="#DejaVuSans-47"/>
     </g>
    </g>
    <g id="PathCollection_5">
     <g>
      <use xlink:href="#m70bbde4b27" x="420.26" y="75.327277" style="fill: #ffdead; stroke: #ffdead"/>
     </g>
    </g>
    <g id="text_21">
     <!-- L -->
     <g transform="translate(438.26 77.952277)scale(0.1 -0.1)">
      <defs>
       <path id="DejaVuSans-4c" d="M 628 4666 
L 1259 4666 
L 1259 531 
L 3531 531 
L 3531 0 
L 628 0 
L 628 4666 
z
" transform="scale(0.015625)"/>
      </defs>
      <use xlink:href="#DejaVuSans-4c"/>
     </g>
    </g>
    <g id="PathCollection_6">
     <g>
      <use xlink:href="#m14495a6313" x="420.26" y="90.005402" style="fill: #483d8b; stroke: #483d8b"/>
     </g>
    </g>
    <g id="text_22">
     <!-- R -->
     <g transform="translate(438.26 92.630402)scale(0.1 -0.1)">
      <defs>
       <path id="DejaVuSans-52" d="M 2841 2188 
Q 3044 2119 3236 1894 
Q 3428 1669 3622 1275 
L 4263 0 
L 3584 0 
L 2988 1197 
Q 2756 1666 2539 1819 
Q 2322 1972 1947 1972 
L 1259 1972 
L 1259 0 
L 628 0 
L 628 4666 
L 2053 4666 
Q 2853 4666 3247 4331 
Q 3641 3997 3641 3322 
Q 3641 2881 3436 2590 
Q 3231 2300 2841 2188 
z
M 1259 4147 
L 1259 2491 
L 2053 2491 
Q 2509 2491 2742 2702 
Q 2975 2913 2975 3322 
Q 2975 3731 2742 3939 
Q 2509 4147 2053 4147 
L 1259 4147 
z
" transform="scale(0.015625)"/>
      </defs>
      <use xlink:href="#DejaVuSans-52"/>
     </g>
    </g>
   </g>
  </g>
 </g>
 <defs>
  <clipPath id="pc53fb53142">
   <rect x="47.82125" y="46.675714" width="353.43875" height="256.964286"/>
  </clipPath>
 </defs>
</svg>
