<?xml version="1.0" encoding="utf-8" standalone="no"?>
<!DOCTYPE svg PUBLIC "-//W3C//DTD SVG 1.1//EN"
  "http://www.w3.org/Graphics/SVG/1.1/DTD/svg11.dtd">
<svg xmlns:xlink="http://www.w3.org/1999/xlink" width="460.8pt" height="345.6pt" viewBox="0 0 460.8 345.6" xmlns="http://www.w3.org/2000/svg" version="1.1">
 <metadata>
  <rdf:RDF xmlns:dc="http://purl.org/dc/elements/1.1/" xmlns:cc="http://creativecommons.org/ns#" xmlns:rdf="http://www.w3.org/1999/02/22-rdf-syntax-ns#">
   <cc:Work>
    <dc:type rdf:resource="http://purl.org/dc/dcmitype/StillImage"/>
    <dc:date>2024-02-24T17:25:34.069909</dc:date>
    <dc:format>image/svg+xml</dc:format>
    <dc:creator>
     <cc:Agent>
      <dc:title>Matplotlib v3.5.3, https://matplotlib.org/</dc:title>
     </cc:Agent>
    </dc:creator>
   </cc:Work>
  </rdf:RDF>
 </metadata>
 <defs>
  <style type="text/css">*{stroke-linejoin: round; stroke-linecap: butt}</style>
 </defs>
 <g id="figure_1">
  <g id="patch_1">
   <path d="M 0 345.6 
L 460.8 345.6 
L 460.8 0 
L 0 0 
z
" style="fill: #ffffff"/>
  </g>
  <g id="axes_1">
   <g id="patch_2">
    <path d="M 47.82125 303.64 
L 401.26 303.64 
L 401.26 46.675714 
L 47.82125 46.675714 
z
" style="fill: #ffffff"/>
   </g>
   <g id="PathCollection_1">
    <defs>
     <path id="me85b83e4ca" d="M 0 3 
C 0.795609 3 1.55874 2.683901 2.12132 2.12132 
C 2.683901 1.55874 3 0.795609 3 0 
C 3 -0.795609 2.683901 -1.55874 2.12132 -2.12132 
C 1.55874 -2.683901 0.795609 -3 0 -3 
C -0.795609 -3 -1.55874 -2.683901 -2.12132 -2.12132 
C -2.683901 -1.55874 -3 -0.795609 -3 0 
C -3 0.795609 -2.683901 1.55874 -2.12132 2.12132 
C -1.55874 2.683901 -0.795609 3 0 3 
z
" style="stroke: #3cb371"/>
    </defs>
    <g clip-path="url(#pb69f84b9bc)">
     <use xlink:href="#me85b83e4ca" x="63.886648" y="219.424622" style="fill: #3cb371; stroke: #3cb371"/>
     <use xlink:href="#me85b83e4ca" x="222.112196" y="209.857484" style="fill: #3cb371; stroke: #3cb371"/>
     <use xlink:href="#me85b83e4ca" x="236.751772" y="210.075646" style="fill: #3cb371; stroke: #3cb371"/>
     <use xlink:href="#me85b83e4ca" x="272.366275" y="224.222034" style="fill: #3cb371; stroke: #3cb371"/>
     <use xlink:href="#me85b83e4ca" x="277.533184" y="285.811512" style="fill: #3cb371; stroke: #3cb371"/>
     <use xlink:href="#me85b83e4ca" x="230.107289" y="180.851042" style="fill: #3cb371; stroke: #3cb371"/>
     <use xlink:href="#me85b83e4ca" x="141.207196" y="216.969507" style="fill: #3cb371; stroke: #3cb371"/>
     <use xlink:href="#me85b83e4ca" x="251.965448" y="231.10991" style="fill: #3cb371; stroke: #3cb371"/>
     <use xlink:href="#me85b83e4ca" x="142.94514" y="223.813361" style="fill: #3cb371; stroke: #3cb371"/>
     <use xlink:href="#me85b83e4ca" x="270.86846" y="282.449427" style="fill: #3cb371; stroke: #3cb371"/>
     <use xlink:href="#me85b83e4ca" x="281.501289" y="253.251489" style="fill: #3cb371; stroke: #3cb371"/>
     <use xlink:href="#me85b83e4ca" x="264.472386" y="211.183408" style="fill: #3cb371; stroke: #3cb371"/>
     <use xlink:href="#me85b83e4ca" x="302.098082" y="284.835928" style="fill: #3cb371; stroke: #3cb371"/>
     <use xlink:href="#me85b83e4ca" x="260.901735" y="236.18511" style="fill: #3cb371; stroke: #3cb371"/>
     <use xlink:href="#me85b83e4ca" x="115.941232" y="227.749765" style="fill: #3cb371; stroke: #3cb371"/>
     <use xlink:href="#me85b83e4ca" x="266.77523" y="219.326891" style="fill: #3cb371; stroke: #3cb371"/>
     <use xlink:href="#me85b83e4ca" x="334.770318" y="283.578828" style="fill: #3cb371; stroke: #3cb371"/>
     <use xlink:href="#me85b83e4ca" x="339.033754" y="289.318544" style="fill: #3cb371; stroke: #3cb371"/>
     <use xlink:href="#me85b83e4ca" x="208.451536" y="222.865223" style="fill: #3cb371; stroke: #3cb371"/>
     <use xlink:href="#me85b83e4ca" x="258.644893" y="161.665129" style="fill: #3cb371; stroke: #3cb371"/>
     <use xlink:href="#me85b83e4ca" x="264.775077" y="194.817167" style="fill: #3cb371; stroke: #3cb371"/>
     <use xlink:href="#me85b83e4ca" x="286.260623" y="220.223581" style="fill: #3cb371; stroke: #3cb371"/>
     <use xlink:href="#me85b83e4ca" x="273.931252" y="200.224841" style="fill: #3cb371; stroke: #3cb371"/>
     <use xlink:href="#me85b83e4ca" x="306.566686" y="212.470797" style="fill: #3cb371; stroke: #3cb371"/>
     <use xlink:href="#me85b83e4ca" x="281.53717" y="199.104465" style="fill: #3cb371; stroke: #3cb371"/>
     <use xlink:href="#me85b83e4ca" x="290.762348" y="214.553886" style="fill: #3cb371; stroke: #3cb371"/>
     <use xlink:href="#me85b83e4ca" x="258.451686" y="209.348198" style="fill: #3cb371; stroke: #3cb371"/>
     <use xlink:href="#me85b83e4ca" x="292.943747" y="175.557084" style="fill: #3cb371; stroke: #3cb371"/>
     <use xlink:href="#me85b83e4ca" x="285.801526" y="273.929572" style="fill: #3cb371; stroke: #3cb371"/>
     <use xlink:href="#me85b83e4ca" x="297.856727" y="235.066792" style="fill: #3cb371; stroke: #3cb371"/>
     <use xlink:href="#me85b83e4ca" x="351.77438" y="285.926733" style="fill: #3cb371; stroke: #3cb371"/>
     <use xlink:href="#me85b83e4ca" x="280.652098" y="264.890788" style="fill: #3cb371; stroke: #3cb371"/>
     <use xlink:href="#me85b83e4ca" x="269.194919" y="218.859973" style="fill: #3cb371; stroke: #3cb371"/>
     <use xlink:href="#me85b83e4ca" x="352.254637" y="250.012489" style="fill: #3cb371; stroke: #3cb371"/>
     <use xlink:href="#me85b83e4ca" x="306.710211" y="276.413501" style="fill: #3cb371; stroke: #3cb371"/>
     <use xlink:href="#me85b83e4ca" x="317.239996" y="245.588608" style="fill: #3cb371; stroke: #3cb371"/>
    </g>
   </g>
   <g id="PathCollection_2">
    <defs>
     <path id="mdb5f0a2a8b" d="M 0 3 
C 0.795609 3 1.55874 2.683901 2.12132 2.12132 
C 2.683901 1.55874 3 0.795609 3 0 
C 3 -0.795609 2.683901 -1.55874 2.12132 -2.12132 
C 1.55874 -2.683901 0.795609 -3 0 -3 
C -0.795609 -3 -1.55874 -2.683901 -2.12132 -2.12132 
C -2.683901 -1.55874 -3 -0.795609 -3 0 
C -3 0.795609 -2.683901 1.55874 -2.12132 2.12132 
C -1.55874 2.683901 -0.795609 3 0 3 
z
" style="stroke: #ffdead"/>
    </defs>
    <g clip-path="url(#pb69f84b9bc)">
     <use xlink:href="#mdb5f0a2a8b" x="350.948189" y="274.33198" style="fill: #ffdead; stroke: #ffdead"/>
     <use xlink:href="#mdb5f0a2a8b" x="351.51217" y="280.754364" style="fill: #ffdead; stroke: #ffdead"/>
     <use xlink:href="#mdb5f0a2a8b" x="385.194602" y="257.749617" style="fill: #ffdead; stroke: #ffdead"/>
     <use xlink:href="#mdb5f0a2a8b" x="351.535171" y="279.9523" style="fill: #ffdead; stroke: #ffdead"/>
     <use xlink:href="#mdb5f0a2a8b" x="350.96291" y="267.574541" style="fill: #ffdead; stroke: #ffdead"/>
     <use xlink:href="#mdb5f0a2a8b" x="351.001551" y="268.224538" style="fill: #ffdead; stroke: #ffdead"/>
     <use xlink:href="#mdb5f0a2a8b" x="351.084354" y="175.750844" style="fill: #ffdead; stroke: #ffdead"/>
     <use xlink:href="#mdb5f0a2a8b" x="350.925189" y="268.855145" style="fill: #ffdead; stroke: #ffdead"/>
    </g>
   </g>
   <g id="PathCollection_3">
    <defs>
     <path id="mbbaa49181d" d="M 0 3 
C 0.795609 3 1.55874 2.683901 2.12132 2.12132 
C 2.683901 1.55874 3 0.795609 3 0 
C 3 -0.795609 2.683901 -1.55874 2.12132 -2.12132 
C 1.55874 -2.683901 0.795609 -3 0 -3 
C -0.795609 -3 -1.55874 -2.683901 -2.12132 -2.12132 
C -2.683901 -1.55874 -3 -0.795609 -3 0 
C -3 0.795609 -2.683901 1.55874 -2.12132 2.12132 
C -1.55874 2.683901 -0.795609 3 0 3 
z
" style="stroke: #483d8b"/>
    </defs>
    <g clip-path="url(#pb69f84b9bc)">
     <use xlink:href="#mbbaa49181d" x="176.493247" y="268.469717" style="fill: #483d8b; stroke: #483d8b"/>
     <use xlink:href="#mbbaa49181d" x="183.572906" y="275.45228" style="fill: #483d8b; stroke: #483d8b"/>
     <use xlink:href="#mbbaa49181d" x="350.925189" y="282.093782" style="fill: #483d8b; stroke: #483d8b"/>
     <use xlink:href="#mbbaa49181d" x="293.403764" y="272.403556" style="fill: #483d8b; stroke: #483d8b"/>
     <use xlink:href="#mbbaa49181d" x="169.351026" y="285.792293" style="fill: #483d8b; stroke: #483d8b"/>
     <use xlink:href="#mbbaa49181d" x="260.153748" y="283.151773" style="fill: #483d8b; stroke: #483d8b"/>
     <use xlink:href="#mbbaa49181d" x="352.07063" y="277.126978" style="fill: #483d8b; stroke: #483d8b"/>
     <use xlink:href="#mbbaa49181d" x="304.692577" y="277.720351" style="fill: #483d8b; stroke: #483d8b"/>
     <use xlink:href="#mbbaa49181d" x="230.371338" y="284.478954" style="fill: #483d8b; stroke: #483d8b"/>
     <use xlink:href="#mbbaa49181d" x="351.483649" y="276.436003" style="fill: #483d8b; stroke: #483d8b"/>
     <use xlink:href="#mbbaa49181d" x="318.192231" y="272.801132" style="fill: #483d8b; stroke: #483d8b"/>
     <use xlink:href="#mbbaa49181d" x="170.062212" y="286.023998" style="fill: #483d8b; stroke: #483d8b"/>
     <use xlink:href="#mbbaa49181d" x="357.082054" y="283.728423" style="fill: #483d8b; stroke: #483d8b"/>
     <use xlink:href="#mbbaa49181d" x="252.453066" y="281.396825" style="fill: #483d8b; stroke: #483d8b"/>
     <use xlink:href="#mbbaa49181d" x="342.725849" y="278.367145" style="fill: #483d8b; stroke: #483d8b"/>
     <use xlink:href="#mbbaa49181d" x="351.000631" y="275.858749" style="fill: #483d8b; stroke: #483d8b"/>
     <use xlink:href="#mbbaa49181d" x="351.002471" y="282.125983" style="fill: #483d8b; stroke: #483d8b"/>
     <use xlink:href="#mbbaa49181d" x="371.073006" y="258.562845" style="fill: #483d8b; stroke: #483d8b"/>
     <use xlink:href="#mbbaa49181d" x="309.983691" y="269.853852" style="fill: #483d8b; stroke: #483d8b"/>
     <use xlink:href="#mbbaa49181d" x="339.667657" y="272.900591" style="fill: #483d8b; stroke: #483d8b"/>
     <use xlink:href="#mbbaa49181d" x="350.6823" y="253.749686" style="fill: #483d8b; stroke: #483d8b"/>
     <use xlink:href="#mbbaa49181d" x="351.361285" y="276.055627" style="fill: #483d8b; stroke: #483d8b"/>
     <use xlink:href="#mbbaa49181d" x="351.319883" y="256.544549" style="fill: #483d8b; stroke: #483d8b"/>
     <use xlink:href="#mbbaa49181d" x="326.829507" y="270.708682" style="fill: #483d8b; stroke: #483d8b"/>
     <use xlink:href="#mbbaa49181d" x="318.192231" y="289.14761" style="fill: #483d8b; stroke: #483d8b"/>
     <use xlink:href="#mbbaa49181d" x="351.341964" y="281.713869" style="fill: #483d8b; stroke: #483d8b"/>
     <use xlink:href="#mbbaa49181d" x="350.840545" y="228.29681" style="fill: #483d8b; stroke: #483d8b"/>
    </g>
   </g>
   <g id="matplotlib.axis_1">
    <g id="xtick_1">
     <g id="line2d_1">
      <defs>
       <path id="m6bdbf78e60" d="M 0 0 
L 0 3.5 
" style="stroke: #000000; stroke-width: 0.8"/>
      </defs>
      <g>
       <use xlink:href="#m6bdbf78e60" x="74.410913" y="303.64" style="stroke: #000000; stroke-width: 0.8"/>
      </g>
     </g>
     <g id="text_1">
      <!-- −30 -->
      <g transform="translate(63.858569 318.238437)scale(0.1 -0.1)">
       <defs>
        <path id="DejaVuSans-2212" d="M 678 2272 
L 4684 2272 
L 4684 1741 
L 678 1741 
L 678 2272 
z
" transform="scale(0.015625)"/>
        <path id="DejaVuSans-33" d="M 2597 2516 
Q 3050 2419 3304 2112 
Q 3559 1806 3559 1356 
Q 3559 666 3084 287 
Q 2609 -91 1734 -91 
Q 1441 -91 1130 -33 
Q 819 25 488 141 
L 488 750 
Q 750 597 1062 519 
Q 1375 441 1716 441 
Q 2309 441 2620 675 
Q 2931 909 2931 1356 
Q 2931 1769 2642 2001 
Q 2353 2234 1838 2234 
L 1294 2234 
L 1294 2753 
L 1863 2753 
Q 2328 2753 2575 2939 
Q 2822 3125 2822 3475 
Q 2822 3834 2567 4026 
Q 2313 4219 1838 4219 
Q 1578 4219 1281 4162 
Q 984 4106 628 3988 
L 628 4550 
Q 988 4650 1302 4700 
Q 1616 4750 1894 4750 
Q 2613 4750 3031 4423 
Q 3450 4097 3450 3541 
Q 3450 3153 3228 2886 
Q 3006 2619 2597 2516 
z
" transform="scale(0.015625)"/>
        <path id="DejaVuSans-30" d="M 2034 4250 
Q 1547 4250 1301 3770 
Q 1056 3291 1056 2328 
Q 1056 1369 1301 889 
Q 1547 409 2034 409 
Q 2525 409 2770 889 
Q 3016 1369 3016 2328 
Q 3016 3291 2770 3770 
Q 2525 4250 2034 4250 
z
M 2034 4750 
Q 2819 4750 3233 4129 
Q 3647 3509 3647 2328 
Q 3647 1150 3233 529 
Q 2819 -91 2034 -91 
Q 1250 -91 836 529 
Q 422 1150 422 2328 
Q 422 3509 836 4129 
Q 1250 4750 2034 4750 
z
" transform="scale(0.015625)"/>
       </defs>
       <use xlink:href="#DejaVuSans-2212"/>
       <use xlink:href="#DejaVuSans-33" x="83.789062"/>
       <use xlink:href="#DejaVuSans-30" x="147.412109"/>
      </g>
     </g>
    </g>
    <g id="xtick_2">
     <g id="line2d_2">
      <g>
       <use xlink:href="#m6bdbf78e60" x="120.412596" y="303.64" style="stroke: #000000; stroke-width: 0.8"/>
      </g>
     </g>
     <g id="text_2">
      <!-- −25 -->
      <g transform="translate(109.860252 318.238437)scale(0.1 -0.1)">
       <defs>
        <path id="DejaVuSans-32" d="M 1228 531 
L 3431 531 
L 3431 0 
L 469 0 
L 469 531 
Q 828 903 1448 1529 
Q 2069 2156 2228 2338 
Q 2531 2678 2651 2914 
Q 2772 3150 2772 3378 
Q 2772 3750 2511 3984 
Q 2250 4219 1831 4219 
Q 1534 4219 1204 4116 
Q 875 4013 500 3803 
L 500 4441 
Q 881 4594 1212 4672 
Q 1544 4750 1819 4750 
Q 2544 4750 2975 4387 
Q 3406 4025 3406 3419 
Q 3406 3131 3298 2873 
Q 3191 2616 2906 2266 
Q 2828 2175 2409 1742 
Q 1991 1309 1228 531 
z
" transform="scale(0.015625)"/>
        <path id="DejaVuSans-35" d="M 691 4666 
L 3169 4666 
L 3169 4134 
L 1269 4134 
L 1269 2991 
Q 1406 3038 1543 3061 
Q 1681 3084 1819 3084 
Q 2600 3084 3056 2656 
Q 3513 2228 3513 1497 
Q 3513 744 3044 326 
Q 2575 -91 1722 -91 
Q 1428 -91 1123 -41 
Q 819 9 494 109 
L 494 744 
Q 775 591 1075 516 
Q 1375 441 1709 441 
Q 2250 441 2565 725 
Q 2881 1009 2881 1497 
Q 2881 1984 2565 2268 
Q 2250 2553 1709 2553 
Q 1456 2553 1204 2497 
Q 953 2441 691 2322 
L 691 4666 
z
" transform="scale(0.015625)"/>
       </defs>
       <use xlink:href="#DejaVuSans-2212"/>
       <use xlink:href="#DejaVuSans-32" x="83.789062"/>
       <use xlink:href="#DejaVuSans-35" x="147.412109"/>
      </g>
     </g>
    </g>
    <g id="xtick_3">
     <g id="line2d_3">
      <g>
       <use xlink:href="#m6bdbf78e60" x="166.414279" y="303.64" style="stroke: #000000; stroke-width: 0.8"/>
      </g>
     </g>
     <g id="text_3">
      <!-- −20 -->
      <g transform="translate(155.861935 318.238437)scale(0.1 -0.1)">
       <use xlink:href="#DejaVuSans-2212"/>
       <use xlink:href="#DejaVuSans-32" x="83.789062"/>
       <use xlink:href="#DejaVuSans-30" x="147.412109"/>
      </g>
     </g>
    </g>
    <g id="xtick_4">
     <g id="line2d_4">
      <g>
       <use xlink:href="#m6bdbf78e60" x="212.415961" y="303.64" style="stroke: #000000; stroke-width: 0.8"/>
      </g>
     </g>
     <g id="text_4">
      <!-- −15 -->
      <g transform="translate(201.863618 318.238437)scale(0.1 -0.1)">
       <defs>
        <path id="DejaVuSans-31" d="M 794 531 
L 1825 531 
L 1825 4091 
L 703 3866 
L 703 4441 
L 1819 4666 
L 2450 4666 
L 2450 531 
L 3481 531 
L 3481 0 
L 794 0 
L 794 531 
z
" transform="scale(0.015625)"/>
       </defs>
       <use xlink:href="#DejaVuSans-2212"/>
       <use xlink:href="#DejaVuSans-31" x="83.789062"/>
       <use xlink:href="#DejaVuSans-35" x="147.412109"/>
      </g>
     </g>
    </g>
    <g id="xtick_5">
     <g id="line2d_5">
      <g>
       <use xlink:href="#m6bdbf78e60" x="258.417644" y="303.64" style="stroke: #000000; stroke-width: 0.8"/>
      </g>
     </g>
     <g id="text_5">
      <!-- −10 -->
      <g transform="translate(247.865301 318.238437)scale(0.1 -0.1)">
       <use xlink:href="#DejaVuSans-2212"/>
       <use xlink:href="#DejaVuSans-31" x="83.789062"/>
       <use xlink:href="#DejaVuSans-30" x="147.412109"/>
      </g>
     </g>
    </g>
    <g id="xtick_6">
     <g id="line2d_6">
      <g>
       <use xlink:href="#m6bdbf78e60" x="304.419327" y="303.64" style="stroke: #000000; stroke-width: 0.8"/>
      </g>
     </g>
     <g id="text_6">
      <!-- −5 -->
      <g transform="translate(297.048233 318.238437)scale(0.1 -0.1)">
       <use xlink:href="#DejaVuSans-2212"/>
       <use xlink:href="#DejaVuSans-35" x="83.789062"/>
      </g>
     </g>
    </g>
    <g id="xtick_7">
     <g id="line2d_7">
      <g>
       <use xlink:href="#m6bdbf78e60" x="350.42101" y="303.64" style="stroke: #000000; stroke-width: 0.8"/>
      </g>
     </g>
     <g id="text_7">
      <!-- 0 -->
      <g transform="translate(347.23976 318.238437)scale(0.1 -0.1)">
       <use xlink:href="#DejaVuSans-30"/>
      </g>
     </g>
    </g>
    <g id="xtick_8">
     <g id="line2d_8">
      <g>
       <use xlink:href="#m6bdbf78e60" x="396.422693" y="303.64" style="stroke: #000000; stroke-width: 0.8"/>
      </g>
     </g>
     <g id="text_8">
      <!-- 5 -->
      <g transform="translate(393.241443 318.238437)scale(0.1 -0.1)">
       <use xlink:href="#DejaVuSans-35"/>
      </g>
     </g>
    </g>
    <g id="text_9">
     <!-- HBONDDiff -->
     <g transform="translate(197.151562 331.916562)scale(0.1 -0.1)">
      <defs>
       <path id="DejaVuSans-48" d="M 628 4666 
L 1259 4666 
L 1259 2753 
L 3553 2753 
L 3553 4666 
L 4184 4666 
L 4184 0 
L 3553 0 
L 3553 2222 
L 1259 2222 
L 1259 0 
L 628 0 
L 628 4666 
z
" transform="scale(0.015625)"/>
       <path id="DejaVuSans-42" d="M 1259 2228 
L 1259 519 
L 2272 519 
Q 2781 519 3026 730 
Q 3272 941 3272 1375 
Q 3272 1813 3026 2020 
Q 2781 2228 2272 2228 
L 1259 2228 
z
M 1259 4147 
L 1259 2741 
L 2194 2741 
Q 2656 2741 2882 2914 
Q 3109 3088 3109 3444 
Q 3109 3797 2882 3972 
Q 2656 4147 2194 4147 
L 1259 4147 
z
M 628 4666 
L 2241 4666 
Q 2963 4666 3353 4366 
Q 3744 4066 3744 3513 
Q 3744 3084 3544 2831 
Q 3344 2578 2956 2516 
Q 3422 2416 3680 2098 
Q 3938 1781 3938 1306 
Q 3938 681 3513 340 
Q 3088 0 2303 0 
L 628 0 
L 628 4666 
z
" transform="scale(0.015625)"/>
       <path id="DejaVuSans-4f" d="M 2522 4238 
Q 1834 4238 1429 3725 
Q 1025 3213 1025 2328 
Q 1025 1447 1429 934 
Q 1834 422 2522 422 
Q 3209 422 3611 934 
Q 4013 1447 4013 2328 
Q 4013 3213 3611 3725 
Q 3209 4238 2522 4238 
z
M 2522 4750 
Q 3503 4750 4090 4092 
Q 4678 3434 4678 2328 
Q 4678 1225 4090 567 
Q 3503 -91 2522 -91 
Q 1538 -91 948 565 
Q 359 1222 359 2328 
Q 359 3434 948 4092 
Q 1538 4750 2522 4750 
z
" transform="scale(0.015625)"/>
       <path id="DejaVuSans-4e" d="M 628 4666 
L 1478 4666 
L 3547 763 
L 3547 4666 
L 4159 4666 
L 4159 0 
L 3309 0 
L 1241 3903 
L 1241 0 
L 628 0 
L 628 4666 
z
" transform="scale(0.015625)"/>
       <path id="DejaVuSans-44" d="M 1259 4147 
L 1259 519 
L 2022 519 
Q 2988 519 3436 956 
Q 3884 1394 3884 2338 
Q 3884 3275 3436 3711 
Q 2988 4147 2022 4147 
L 1259 4147 
z
M 628 4666 
L 1925 4666 
Q 3281 4666 3915 4102 
Q 4550 3538 4550 2338 
Q 4550 1131 3912 565 
Q 3275 0 1925 0 
L 628 0 
L 628 4666 
z
" transform="scale(0.015625)"/>
       <path id="DejaVuSans-69" d="M 603 3500 
L 1178 3500 
L 1178 0 
L 603 0 
L 603 3500 
z
M 603 4863 
L 1178 4863 
L 1178 4134 
L 603 4134 
L 603 4863 
z
" transform="scale(0.015625)"/>
       <path id="DejaVuSans-66" d="M 2375 4863 
L 2375 4384 
L 1825 4384 
Q 1516 4384 1395 4259 
Q 1275 4134 1275 3809 
L 1275 3500 
L 2222 3500 
L 2222 3053 
L 1275 3053 
L 1275 0 
L 697 0 
L 697 3053 
L 147 3053 
L 147 3500 
L 697 3500 
L 697 3744 
Q 697 4328 969 4595 
Q 1241 4863 1831 4863 
L 2375 4863 
z
" transform="scale(0.015625)"/>
      </defs>
      <use xlink:href="#DejaVuSans-48"/>
      <use xlink:href="#DejaVuSans-42" x="75.195312"/>
      <use xlink:href="#DejaVuSans-4f" x="142.048828"/>
      <use xlink:href="#DejaVuSans-4e" x="220.759766"/>
      <use xlink:href="#DejaVuSans-44" x="295.564453"/>
      <use xlink:href="#DejaVuSans-44" x="372.566406"/>
      <use xlink:href="#DejaVuSans-69" x="449.568359"/>
      <use xlink:href="#DejaVuSans-66" x="477.351562"/>
      <use xlink:href="#DejaVuSans-66" x="512.556641"/>
     </g>
    </g>
   </g>
   <g id="matplotlib.axis_2">
    <g id="ytick_1">
     <g id="line2d_9">
      <defs>
       <path id="m810164c70c" d="M 0 0 
L -3.5 0 
" style="stroke: #000000; stroke-width: 0.8"/>
      </defs>
      <g>
       <use xlink:href="#m810164c70c" x="47.82125" y="303.64" style="stroke: #000000; stroke-width: 0.8"/>
      </g>
     </g>
     <g id="text_10">
      <!-- 0.0 -->
      <g transform="translate(24.918125 307.439219)scale(0.1 -0.1)">
       <defs>
        <path id="DejaVuSans-2e" d="M 684 794 
L 1344 794 
L 1344 0 
L 684 0 
L 684 794 
z
" transform="scale(0.015625)"/>
       </defs>
       <use xlink:href="#DejaVuSans-30"/>
       <use xlink:href="#DejaVuSans-2e" x="63.623047"/>
       <use xlink:href="#DejaVuSans-30" x="95.410156"/>
      </g>
     </g>
    </g>
    <g id="ytick_2">
     <g id="line2d_10">
      <g>
       <use xlink:href="#m810164c70c" x="47.82125" y="261.622735" style="stroke: #000000; stroke-width: 0.8"/>
      </g>
     </g>
     <g id="text_11">
      <!-- 0.5 -->
      <g transform="translate(24.918125 265.421954)scale(0.1 -0.1)">
       <use xlink:href="#DejaVuSans-30"/>
       <use xlink:href="#DejaVuSans-2e" x="63.623047"/>
       <use xlink:href="#DejaVuSans-35" x="95.410156"/>
      </g>
     </g>
    </g>
    <g id="ytick_3">
     <g id="line2d_11">
      <g>
       <use xlink:href="#m810164c70c" x="47.82125" y="219.60547" style="stroke: #000000; stroke-width: 0.8"/>
      </g>
     </g>
     <g id="text_12">
      <!-- 1.0 -->
      <g transform="translate(24.918125 223.404688)scale(0.1 -0.1)">
       <use xlink:href="#DejaVuSans-31"/>
       <use xlink:href="#DejaVuSans-2e" x="63.623047"/>
       <use xlink:href="#DejaVuSans-30" x="95.410156"/>
      </g>
     </g>
    </g>
    <g id="ytick_4">
     <g id="line2d_12">
      <g>
       <use xlink:href="#m810164c70c" x="47.82125" y="177.588204" style="stroke: #000000; stroke-width: 0.8"/>
      </g>
     </g>
     <g id="text_13">
      <!-- 1.5 -->
      <g transform="translate(24.918125 181.387423)scale(0.1 -0.1)">
       <use xlink:href="#DejaVuSans-31"/>
       <use xlink:href="#DejaVuSans-2e" x="63.623047"/>
       <use xlink:href="#DejaVuSans-35" x="95.410156"/>
      </g>
     </g>
    </g>
    <g id="ytick_5">
     <g id="line2d_13">
      <g>
       <use xlink:href="#m810164c70c" x="47.82125" y="135.570939" style="stroke: #000000; stroke-width: 0.8"/>
      </g>
     </g>
     <g id="text_14">
      <!-- 2.0 -->
      <g transform="translate(24.918125 139.370158)scale(0.1 -0.1)">
       <use xlink:href="#DejaVuSans-32"/>
       <use xlink:href="#DejaVuSans-2e" x="63.623047"/>
       <use xlink:href="#DejaVuSans-30" x="95.410156"/>
      </g>
     </g>
    </g>
    <g id="ytick_6">
     <g id="line2d_14">
      <g>
       <use xlink:href="#m810164c70c" x="47.82125" y="93.553674" style="stroke: #000000; stroke-width: 0.8"/>
      </g>
     </g>
     <g id="text_15">
      <!-- 2.5 -->
      <g transform="translate(24.918125 97.352893)scale(0.1 -0.1)">
       <use xlink:href="#DejaVuSans-32"/>
       <use xlink:href="#DejaVuSans-2e" x="63.623047"/>
       <use xlink:href="#DejaVuSans-35" x="95.410156"/>
      </g>
     </g>
    </g>
    <g id="ytick_7">
     <g id="line2d_15">
      <g>
       <use xlink:href="#m810164c70c" x="47.82125" y="51.536409" style="stroke: #000000; stroke-width: 0.8"/>
      </g>
     </g>
     <g id="text_16">
      <!-- 3.0 -->
      <g transform="translate(24.918125 55.335627)scale(0.1 -0.1)">
       <use xlink:href="#DejaVuSans-33"/>
       <use xlink:href="#DejaVuSans-2e" x="63.623047"/>
       <use xlink:href="#DejaVuSans-30" x="95.410156"/>
      </g>
     </g>
    </g>
    <g id="text_17">
     <!-- PercentGpA_transformed -->
     <g transform="translate(18.560313 237.696138)rotate(-90)scale(0.1 -0.1)">
      <defs>
       <path id="DejaVuSans-50" d="M 1259 4147 
L 1259 2394 
L 2053 2394 
Q 2494 2394 2734 2622 
Q 2975 2850 2975 3272 
Q 2975 3691 2734 3919 
Q 2494 4147 2053 4147 
L 1259 4147 
z
M 628 4666 
L 2053 4666 
Q 2838 4666 3239 4311 
Q 3641 3956 3641 3272 
Q 3641 2581 3239 2228 
Q 2838 1875 2053 1875 
L 1259 1875 
L 1259 0 
L 628 0 
L 628 4666 
z
" transform="scale(0.015625)"/>
       <path id="DejaVuSans-65" d="M 3597 1894 
L 3597 1613 
L 953 1613 
Q 991 1019 1311 708 
Q 1631 397 2203 397 
Q 2534 397 2845 478 
Q 3156 559 3463 722 
L 3463 178 
Q 3153 47 2828 -22 
Q 2503 -91 2169 -91 
Q 1331 -91 842 396 
Q 353 884 353 1716 
Q 353 2575 817 3079 
Q 1281 3584 2069 3584 
Q 2775 3584 3186 3129 
Q 3597 2675 3597 1894 
z
M 3022 2063 
Q 3016 2534 2758 2815 
Q 2500 3097 2075 3097 
Q 1594 3097 1305 2825 
Q 1016 2553 972 2059 
L 3022 2063 
z
" transform="scale(0.015625)"/>
       <path id="DejaVuSans-72" d="M 2631 2963 
Q 2534 3019 2420 3045 
Q 2306 3072 2169 3072 
Q 1681 3072 1420 2755 
Q 1159 2438 1159 1844 
L 1159 0 
L 581 0 
L 581 3500 
L 1159 3500 
L 1159 2956 
Q 1341 3275 1631 3429 
Q 1922 3584 2338 3584 
Q 2397 3584 2469 3576 
Q 2541 3569 2628 3553 
L 2631 2963 
z
" transform="scale(0.015625)"/>
       <path id="DejaVuSans-63" d="M 3122 3366 
L 3122 2828 
Q 2878 2963 2633 3030 
Q 2388 3097 2138 3097 
Q 1578 3097 1268 2742 
Q 959 2388 959 1747 
Q 959 1106 1268 751 
Q 1578 397 2138 397 
Q 2388 397 2633 464 
Q 2878 531 3122 666 
L 3122 134 
Q 2881 22 2623 -34 
Q 2366 -91 2075 -91 
Q 1284 -91 818 406 
Q 353 903 353 1747 
Q 353 2603 823 3093 
Q 1294 3584 2113 3584 
Q 2378 3584 2631 3529 
Q 2884 3475 3122 3366 
z
" transform="scale(0.015625)"/>
       <path id="DejaVuSans-6e" d="M 3513 2113 
L 3513 0 
L 2938 0 
L 2938 2094 
Q 2938 2591 2744 2837 
Q 2550 3084 2163 3084 
Q 1697 3084 1428 2787 
Q 1159 2491 1159 1978 
L 1159 0 
L 581 0 
L 581 3500 
L 1159 3500 
L 1159 2956 
Q 1366 3272 1645 3428 
Q 1925 3584 2291 3584 
Q 2894 3584 3203 3211 
Q 3513 2838 3513 2113 
z
" transform="scale(0.015625)"/>
       <path id="DejaVuSans-74" d="M 1172 4494 
L 1172 3500 
L 2356 3500 
L 2356 3053 
L 1172 3053 
L 1172 1153 
Q 1172 725 1289 603 
Q 1406 481 1766 481 
L 2356 481 
L 2356 0 
L 1766 0 
Q 1100 0 847 248 
Q 594 497 594 1153 
L 594 3053 
L 172 3053 
L 172 3500 
L 594 3500 
L 594 4494 
L 1172 4494 
z
" transform="scale(0.015625)"/>
       <path id="DejaVuSans-47" d="M 3809 666 
L 3809 1919 
L 2778 1919 
L 2778 2438 
L 4434 2438 
L 4434 434 
Q 4069 175 3628 42 
Q 3188 -91 2688 -91 
Q 1594 -91 976 548 
Q 359 1188 359 2328 
Q 359 3472 976 4111 
Q 1594 4750 2688 4750 
Q 3144 4750 3555 4637 
Q 3966 4525 4313 4306 
L 4313 3634 
Q 3963 3931 3569 4081 
Q 3175 4231 2741 4231 
Q 1884 4231 1454 3753 
Q 1025 3275 1025 2328 
Q 1025 1384 1454 906 
Q 1884 428 2741 428 
Q 3075 428 3337 486 
Q 3600 544 3809 666 
z
" transform="scale(0.015625)"/>
       <path id="DejaVuSans-70" d="M 1159 525 
L 1159 -1331 
L 581 -1331 
L 581 3500 
L 1159 3500 
L 1159 2969 
Q 1341 3281 1617 3432 
Q 1894 3584 2278 3584 
Q 2916 3584 3314 3078 
Q 3713 2572 3713 1747 
Q 3713 922 3314 415 
Q 2916 -91 2278 -91 
Q 1894 -91 1617 61 
Q 1341 213 1159 525 
z
M 3116 1747 
Q 3116 2381 2855 2742 
Q 2594 3103 2138 3103 
Q 1681 3103 1420 2742 
Q 1159 2381 1159 1747 
Q 1159 1113 1420 752 
Q 1681 391 2138 391 
Q 2594 391 2855 752 
Q 3116 1113 3116 1747 
z
" transform="scale(0.015625)"/>
       <path id="DejaVuSans-41" d="M 2188 4044 
L 1331 1722 
L 3047 1722 
L 2188 4044 
z
M 1831 4666 
L 2547 4666 
L 4325 0 
L 3669 0 
L 3244 1197 
L 1141 1197 
L 716 0 
L 50 0 
L 1831 4666 
z
" transform="scale(0.015625)"/>
       <path id="DejaVuSans-5f" d="M 3263 -1063 
L 3263 -1509 
L -63 -1509 
L -63 -1063 
L 3263 -1063 
z
" transform="scale(0.015625)"/>
       <path id="DejaVuSans-61" d="M 2194 1759 
Q 1497 1759 1228 1600 
Q 959 1441 959 1056 
Q 959 750 1161 570 
Q 1363 391 1709 391 
Q 2188 391 2477 730 
Q 2766 1069 2766 1631 
L 2766 1759 
L 2194 1759 
z
M 3341 1997 
L 3341 0 
L 2766 0 
L 2766 531 
Q 2569 213 2275 61 
Q 1981 -91 1556 -91 
Q 1019 -91 701 211 
Q 384 513 384 1019 
Q 384 1609 779 1909 
Q 1175 2209 1959 2209 
L 2766 2209 
L 2766 2266 
Q 2766 2663 2505 2880 
Q 2244 3097 1772 3097 
Q 1472 3097 1187 3025 
Q 903 2953 641 2809 
L 641 3341 
Q 956 3463 1253 3523 
Q 1550 3584 1831 3584 
Q 2591 3584 2966 3190 
Q 3341 2797 3341 1997 
z
" transform="scale(0.015625)"/>
       <path id="DejaVuSans-73" d="M 2834 3397 
L 2834 2853 
Q 2591 2978 2328 3040 
Q 2066 3103 1784 3103 
Q 1356 3103 1142 2972 
Q 928 2841 928 2578 
Q 928 2378 1081 2264 
Q 1234 2150 1697 2047 
L 1894 2003 
Q 2506 1872 2764 1633 
Q 3022 1394 3022 966 
Q 3022 478 2636 193 
Q 2250 -91 1575 -91 
Q 1294 -91 989 -36 
Q 684 19 347 128 
L 347 722 
Q 666 556 975 473 
Q 1284 391 1588 391 
Q 1994 391 2212 530 
Q 2431 669 2431 922 
Q 2431 1156 2273 1281 
Q 2116 1406 1581 1522 
L 1381 1569 
Q 847 1681 609 1914 
Q 372 2147 372 2553 
Q 372 3047 722 3315 
Q 1072 3584 1716 3584 
Q 2034 3584 2315 3537 
Q 2597 3491 2834 3397 
z
" transform="scale(0.015625)"/>
       <path id="DejaVuSans-6f" d="M 1959 3097 
Q 1497 3097 1228 2736 
Q 959 2375 959 1747 
Q 959 1119 1226 758 
Q 1494 397 1959 397 
Q 2419 397 2687 759 
Q 2956 1122 2956 1747 
Q 2956 2369 2687 2733 
Q 2419 3097 1959 3097 
z
M 1959 3584 
Q 2709 3584 3137 3096 
Q 3566 2609 3566 1747 
Q 3566 888 3137 398 
Q 2709 -91 1959 -91 
Q 1206 -91 779 398 
Q 353 888 353 1747 
Q 353 2609 779 3096 
Q 1206 3584 1959 3584 
z
" transform="scale(0.015625)"/>
       <path id="DejaVuSans-6d" d="M 3328 2828 
Q 3544 3216 3844 3400 
Q 4144 3584 4550 3584 
Q 5097 3584 5394 3201 
Q 5691 2819 5691 2113 
L 5691 0 
L 5113 0 
L 5113 2094 
Q 5113 2597 4934 2840 
Q 4756 3084 4391 3084 
Q 3944 3084 3684 2787 
Q 3425 2491 3425 1978 
L 3425 0 
L 2847 0 
L 2847 2094 
Q 2847 2600 2669 2842 
Q 2491 3084 2119 3084 
Q 1678 3084 1418 2786 
Q 1159 2488 1159 1978 
L 1159 0 
L 581 0 
L 581 3500 
L 1159 3500 
L 1159 2956 
Q 1356 3278 1631 3431 
Q 1906 3584 2284 3584 
Q 2666 3584 2933 3390 
Q 3200 3197 3328 2828 
z
" transform="scale(0.015625)"/>
       <path id="DejaVuSans-64" d="M 2906 2969 
L 2906 4863 
L 3481 4863 
L 3481 0 
L 2906 0 
L 2906 525 
Q 2725 213 2448 61 
Q 2172 -91 1784 -91 
Q 1150 -91 751 415 
Q 353 922 353 1747 
Q 353 2572 751 3078 
Q 1150 3584 1784 3584 
Q 2172 3584 2448 3432 
Q 2725 3281 2906 2969 
z
M 947 1747 
Q 947 1113 1208 752 
Q 1469 391 1925 391 
Q 2381 391 2643 752 
Q 2906 1113 2906 1747 
Q 2906 2381 2643 2742 
Q 2381 3103 1925 3103 
Q 1469 3103 1208 2742 
Q 947 2381 947 1747 
z
" transform="scale(0.015625)"/>
      </defs>
      <use xlink:href="#DejaVuSans-50"/>
      <use xlink:href="#DejaVuSans-65" x="56.677734"/>
      <use xlink:href="#DejaVuSans-72" x="118.201172"/>
      <use xlink:href="#DejaVuSans-63" x="157.064453"/>
      <use xlink:href="#DejaVuSans-65" x="212.044922"/>
      <use xlink:href="#DejaVuSans-6e" x="273.568359"/>
      <use xlink:href="#DejaVuSans-74" x="336.947266"/>
      <use xlink:href="#DejaVuSans-47" x="376.15625"/>
      <use xlink:href="#DejaVuSans-70" x="453.646484"/>
      <use xlink:href="#DejaVuSans-41" x="517.123047"/>
      <use xlink:href="#DejaVuSans-5f" x="585.53125"/>
      <use xlink:href="#DejaVuSans-74" x="635.53125"/>
      <use xlink:href="#DejaVuSans-72" x="674.740234"/>
      <use xlink:href="#DejaVuSans-61" x="715.853516"/>
      <use xlink:href="#DejaVuSans-6e" x="777.132812"/>
      <use xlink:href="#DejaVuSans-73" x="840.511719"/>
      <use xlink:href="#DejaVuSans-66" x="892.611328"/>
      <use xlink:href="#DejaVuSans-6f" x="927.816406"/>
      <use xlink:href="#DejaVuSans-72" x="988.998047"/>
      <use xlink:href="#DejaVuSans-6d" x="1028.361328"/>
      <use xlink:href="#DejaVuSans-65" x="1125.773438"/>
      <use xlink:href="#DejaVuSans-64" x="1187.296875"/>
     </g>
    </g>
   </g>
   <g id="LineCollection_1">
    <path d="M 63.886648 225.35518 
L 63.886648 213.494065 
" clip-path="url(#pb69f84b9bc)" style="fill: none; stroke: #d3d3d3; stroke-width: 3"/>
    <path d="M 222.112196 216.962669 
L 222.112196 202.7523 
" clip-path="url(#pb69f84b9bc)" style="fill: none; stroke: #d3d3d3; stroke-width: 3"/>
    <path d="M 236.751772 224.388091 
L 236.751772 195.763201 
" clip-path="url(#pb69f84b9bc)" style="fill: none; stroke: #d3d3d3; stroke-width: 3"/>
    <path d="M 272.366275 304.898442 
L 272.366275 143.545626 
" clip-path="url(#pb69f84b9bc)" style="fill: none; stroke: #d3d3d3; stroke-width: 3"/>
    <path d="M 277.533184 292.360418 
L 277.533184 279.262605 
" clip-path="url(#pb69f84b9bc)" style="fill: none; stroke: #d3d3d3; stroke-width: 3"/>
    <path d="M 230.107289 267.9691 
L 230.107289 93.732984 
" clip-path="url(#pb69f84b9bc)" style="fill: none; stroke: #d3d3d3; stroke-width: 3"/>
    <path d="M 141.207196 226.492956 
L 141.207196 207.446058 
" clip-path="url(#pb69f84b9bc)" style="fill: none; stroke: #d3d3d3; stroke-width: 3"/>
    <path d="M 251.965448 236.598253 
L 251.965448 225.621568 
" clip-path="url(#pb69f84b9bc)" style="fill: none; stroke: #d3d3d3; stroke-width: 3"/>
    <path d="M 142.94514 234.825873 
L 142.94514 212.800849 
" clip-path="url(#pb69f84b9bc)" style="fill: none; stroke: #d3d3d3; stroke-width: 3"/>
    <path d="M 270.86846 286.266728 
L 270.86846 278.632126 
" clip-path="url(#pb69f84b9bc)" style="fill: none; stroke: #d3d3d3; stroke-width: 3"/>
    <path d="M 281.501289 265.067718 
L 281.501289 241.435259 
" clip-path="url(#pb69f84b9bc)" style="fill: none; stroke: #d3d3d3; stroke-width: 3"/>
    <path d="M 264.472386 225.011908 
L 264.472386 197.354908 
" clip-path="url(#pb69f84b9bc)" style="fill: none; stroke: #d3d3d3; stroke-width: 3"/>
    <path d="M 302.098082 291.280636 
L 302.098082 278.391219 
" clip-path="url(#pb69f84b9bc)" style="fill: none; stroke: #d3d3d3; stroke-width: 3"/>
    <path d="M 260.901735 242.220106 
L 260.901735 230.150113 
" clip-path="url(#pb69f84b9bc)" style="fill: none; stroke: #d3d3d3; stroke-width: 3"/>
    <path d="M 115.941232 238.428927 
L 115.941232 217.070603 
" clip-path="url(#pb69f84b9bc)" style="fill: none; stroke: #d3d3d3; stroke-width: 3"/>
    <path d="M 266.77523 226.565199 
L 266.77523 212.088584 
" clip-path="url(#pb69f84b9bc)" style="fill: none; stroke: #d3d3d3; stroke-width: 3"/>
    <path d="M 334.770318 296.38925 
L 334.770318 270.768406 
" clip-path="url(#pb69f84b9bc)" style="fill: none; stroke: #d3d3d3; stroke-width: 3"/>
    <path d="M 339.033754 291.545816 
L 339.033754 287.091271 
" clip-path="url(#pb69f84b9bc)" style="fill: none; stroke: #d3d3d3; stroke-width: 3"/>
    <path d="M 208.451536 240.481357 
L 208.451536 205.249088 
" clip-path="url(#pb69f84b9bc)" style="fill: none; stroke: #d3d3d3; stroke-width: 3"/>
    <path d="M 258.644893 225.277061 
L 258.644893 98.053197 
" clip-path="url(#pb69f84b9bc)" style="fill: none; stroke: #d3d3d3; stroke-width: 3"/>
    <path d="M 264.775077 220.532996 
L 264.775077 169.101338 
" clip-path="url(#pb69f84b9bc)" style="fill: none; stroke: #d3d3d3; stroke-width: 3"/>
    <path d="M 286.260623 236.307435 
L 286.260623 204.139727 
" clip-path="url(#pb69f84b9bc)" style="fill: none; stroke: #d3d3d3; stroke-width: 3"/>
    <path d="M 273.931252 208.299976 
L 273.931252 192.149706 
" clip-path="url(#pb69f84b9bc)" style="fill: none; stroke: #d3d3d3; stroke-width: 3"/>
    <path d="M 306.566686 220.332462 
L 306.566686 204.609132 
" clip-path="url(#pb69f84b9bc)" style="fill: none; stroke: #d3d3d3; stroke-width: 3"/>
    <path d="M 281.53717 213.339822 
L 281.53717 184.869108 
" clip-path="url(#pb69f84b9bc)" style="fill: none; stroke: #d3d3d3; stroke-width: 3"/>
    <path d="M 290.762348 232.130588 
L 290.762348 196.977184 
" clip-path="url(#pb69f84b9bc)" style="fill: none; stroke: #d3d3d3; stroke-width: 3"/>
    <path d="M 258.451686 217.208965 
L 258.451686 201.487431 
" clip-path="url(#pb69f84b9bc)" style="fill: none; stroke: #d3d3d3; stroke-width: 3"/>
    <path d="M 292.943747 240.870312 
L 292.943747 110.243857 
" clip-path="url(#pb69f84b9bc)" style="fill: none; stroke: #d3d3d3; stroke-width: 3"/>
    <path d="M 285.801526 277.977546 
L 285.801526 269.881598 
" clip-path="url(#pb69f84b9bc)" style="fill: none; stroke: #d3d3d3; stroke-width: 3"/>
    <path d="M 297.856727 243.251419 
L 297.856727 226.882166 
" clip-path="url(#pb69f84b9bc)" style="fill: none; stroke: #d3d3d3; stroke-width: 3"/>
    <path d="M 351.77438 290.325649 
L 351.77438 281.527818 
" clip-path="url(#pb69f84b9bc)" style="fill: none; stroke: #d3d3d3; stroke-width: 3"/>
    <path d="M 280.652098 266.245263 
L 280.652098 263.536313 
" clip-path="url(#pb69f84b9bc)" style="fill: none; stroke: #d3d3d3; stroke-width: 3"/>
    <path d="M 269.194919 234.864657 
L 269.194919 202.855289 
" clip-path="url(#pb69f84b9bc)" style="fill: none; stroke: #d3d3d3; stroke-width: 3"/>
    <path d="M 352.254637 254.272036 
L 352.254637 245.752942 
" clip-path="url(#pb69f84b9bc)" style="fill: none; stroke: #d3d3d3; stroke-width: 3"/>
    <path d="M 306.710211 277.631359 
L 306.710211 275.195643 
" clip-path="url(#pb69f84b9bc)" style="fill: none; stroke: #d3d3d3; stroke-width: 3"/>
    <path d="M 317.239996 245.987642 
L 317.239996 245.189575 
" clip-path="url(#pb69f84b9bc)" style="fill: none; stroke: #d3d3d3; stroke-width: 3"/>
   </g>
   <g id="LineCollection_2">
    <path d="M 350.948189 279.665551 
L 350.948189 268.998408 
" clip-path="url(#pb69f84b9bc)" style="fill: none; stroke: #d3d3d3; stroke-width: 3"/>
    <path d="M 351.51217 288.180714 
L 351.51217 273.328014 
" clip-path="url(#pb69f84b9bc)" style="fill: none; stroke: #d3d3d3; stroke-width: 3"/>
    <path d="M 385.194602 266.812299 
L 385.194602 248.686935 
" clip-path="url(#pb69f84b9bc)" style="fill: none; stroke: #d3d3d3; stroke-width: 3"/>
    <path d="M 351.535171 284.712836 
L 351.535171 275.191764 
" clip-path="url(#pb69f84b9bc)" style="fill: none; stroke: #d3d3d3; stroke-width: 3"/>
    <path d="M 350.96291 280.858603 
L 350.96291 254.290478 
" clip-path="url(#pb69f84b9bc)" style="fill: none; stroke: #d3d3d3; stroke-width: 3"/>
    <path d="M 351.001551 274.301797 
L 351.001551 262.147278 
" clip-path="url(#pb69f84b9bc)" style="fill: none; stroke: #d3d3d3; stroke-width: 3"/>
    <path d="M 351.084354 292.529653 
L 351.084354 58.972035 
" clip-path="url(#pb69f84b9bc)" style="fill: none; stroke: #d3d3d3; stroke-width: 3"/>
    <path d="M 350.925189 281.300206 
L 350.925189 256.410085 
" clip-path="url(#pb69f84b9bc)" style="fill: none; stroke: #d3d3d3; stroke-width: 3"/>
   </g>
   <g id="LineCollection_3">
    <path d="M 176.493247 277.728705 
L 176.493247 259.210728 
" clip-path="url(#pb69f84b9bc)" style="fill: none; stroke: #d3d3d3; stroke-width: 3"/>
    <path d="M 183.572906 277.893941 
L 183.572906 273.010619 
" clip-path="url(#pb69f84b9bc)" style="fill: none; stroke: #d3d3d3; stroke-width: 3"/>
    <path d="M 350.925189 286.848026 
L 350.925189 277.339537 
" clip-path="url(#pb69f84b9bc)" style="fill: none; stroke: #d3d3d3; stroke-width: 3"/>
    <path d="M 293.403764 278.139319 
L 293.403764 266.667792 
" clip-path="url(#pb69f84b9bc)" style="fill: none; stroke: #d3d3d3; stroke-width: 3"/>
    <path d="M 169.351026 292.021044 
L 169.351026 279.563542 
" clip-path="url(#pb69f84b9bc)" style="fill: none; stroke: #d3d3d3; stroke-width: 3"/>
    <path d="M 260.153748 288.666715 
L 260.153748 277.636831 
" clip-path="url(#pb69f84b9bc)" style="fill: none; stroke: #d3d3d3; stroke-width: 3"/>
    <path d="M 352.07063 281.967486 
L 352.07063 272.28647 
" clip-path="url(#pb69f84b9bc)" style="fill: none; stroke: #d3d3d3; stroke-width: 3"/>
    <path d="M 304.692577 296.616828 
L 304.692577 258.823875 
" clip-path="url(#pb69f84b9bc)" style="fill: none; stroke: #d3d3d3; stroke-width: 3"/>
    <path d="M 230.371338 290.855611 
L 230.371338 278.102296 
" clip-path="url(#pb69f84b9bc)" style="fill: none; stroke: #d3d3d3; stroke-width: 3"/>
    <path d="M 351.483649 284.359137 
L 351.483649 268.512868 
" clip-path="url(#pb69f84b9bc)" style="fill: none; stroke: #d3d3d3; stroke-width: 3"/>
    <path d="M 318.192231 277.205955 
L 318.192231 268.39631 
" clip-path="url(#pb69f84b9bc)" style="fill: none; stroke: #d3d3d3; stroke-width: 3"/>
    <path d="M 170.062212 292.500734 
L 170.062212 279.547261 
" clip-path="url(#pb69f84b9bc)" style="fill: none; stroke: #d3d3d3; stroke-width: 3"/>
    <path d="M 357.082054 289.791793 
L 357.082054 277.665052 
" clip-path="url(#pb69f84b9bc)" style="fill: none; stroke: #d3d3d3; stroke-width: 3"/>
    <path d="M 252.453066 287.087943 
L 252.453066 275.705708 
" clip-path="url(#pb69f84b9bc)" style="fill: none; stroke: #d3d3d3; stroke-width: 3"/>
    <path d="M 342.725849 284.274232 
L 342.725849 272.460057 
" clip-path="url(#pb69f84b9bc)" style="fill: none; stroke: #d3d3d3; stroke-width: 3"/>
    <path d="M 351.000631 282.773565 
L 351.000631 268.943933 
" clip-path="url(#pb69f84b9bc)" style="fill: none; stroke: #d3d3d3; stroke-width: 3"/>
    <path d="M 351.002471 286.518093 
L 351.002471 277.733873 
" clip-path="url(#pb69f84b9bc)" style="fill: none; stroke: #d3d3d3; stroke-width: 3"/>
    <path d="M 371.073006 259.785561 
L 371.073006 257.340129 
" clip-path="url(#pb69f84b9bc)" style="fill: none; stroke: #d3d3d3; stroke-width: 3"/>
    <path d="M 309.983691 272.922633 
L 309.983691 266.785071 
" clip-path="url(#pb69f84b9bc)" style="fill: none; stroke: #d3d3d3; stroke-width: 3"/>
    <path d="M 339.667657 275.51755 
L 339.667657 270.283631 
" clip-path="url(#pb69f84b9bc)" style="fill: none; stroke: #d3d3d3; stroke-width: 3"/>
    <path d="M 350.6823 259.919077 
L 350.6823 247.580295 
" clip-path="url(#pb69f84b9bc)" style="fill: none; stroke: #d3d3d3; stroke-width: 3"/>
    <path d="M 351.361285 281.278385 
L 351.361285 270.832868 
" clip-path="url(#pb69f84b9bc)" style="fill: none; stroke: #d3d3d3; stroke-width: 3"/>
    <path d="M 351.319883 261.316991 
L 351.319883 251.772107 
" clip-path="url(#pb69f84b9bc)" style="fill: none; stroke: #d3d3d3; stroke-width: 3"/>
    <path d="M 326.829507 275.949297 
L 326.829507 265.468066 
" clip-path="url(#pb69f84b9bc)" style="fill: none; stroke: #d3d3d3; stroke-width: 3"/>
    <path d="M 318.192231 295.086073 
L 318.192231 283.209148 
" clip-path="url(#pb69f84b9bc)" style="fill: none; stroke: #d3d3d3; stroke-width: 3"/>
    <path d="M 351.341964 284.379945 
L 351.341964 279.047792 
" clip-path="url(#pb69f84b9bc)" style="fill: none; stroke: #d3d3d3; stroke-width: 3"/>
    <path d="M 350.840545 232.453662 
L 350.840545 224.139958 
" clip-path="url(#pb69f84b9bc)" style="fill: none; stroke: #d3d3d3; stroke-width: 3"/>
   </g>
   <g id="line2d_16">
    <path d="M 63.886648 213.028407 
L 222.112196 239.731293 
L 236.751772 242.201936 
L 272.366275 248.212407 
L 277.533184 249.084399 
L 230.107289 241.080582 
L 141.207196 226.077386 
L 251.965448 244.769468 
L 142.94514 226.370689 
L 270.86846 247.959629 
L 281.501289 249.754075 
L 264.472386 246.880197 
L 302.098082 253.230086 
L 260.901735 246.277598 
L 115.941232 221.813383 
L 266.77523 247.268836 
L 334.770318 258.744006 
L 339.033754 259.463524 
L 208.451536 237.425856 
L 350.948189 261.47426 
L 351.51217 261.56944 
L 385.194602 267.253845 
L 176.493247 232.032425 
L 183.572906 233.227222 
L 350.925189 261.470378 
L 293.403764 251.762792 
L 169.351026 230.82707 
L 260.153748 246.151364 
L 352.07063 261.663688 
L 304.692577 253.667946 
L 230.371338 241.125145 
L 351.483649 261.564626 
L 318.192231 255.94621 
L 170.062212 230.947093 
L 357.082054 262.509439 
L 252.453066 244.851761 
L 342.725849 260.086619 
L 351.000631 261.48311 
L 258.644893 245.896722 
L 264.775077 246.931281 
L 286.260623 250.557282 
L 273.931252 248.47652 
L 306.566686 253.984229 
L 281.53717 249.76013 
L 290.762348 251.317015 
L 258.451686 245.864116 
L 292.943747 251.685158 
L 285.801526 250.479803 
L 297.856727 252.514295 
L 351.77438 261.613691 
L 280.652098 249.610761 
L 269.194919 247.677194 
L 352.254637 261.694742 
L 306.710211 254.008451 
L 317.239996 255.785507 
L 351.535171 261.573321 
L 350.96291 261.476744 
L 351.001551 261.483265 
L 351.084354 261.49724 
L 350.925189 261.470378 
L 351.002471 261.483421 
L 371.073006 264.870618 
L 309.983691 254.560899 
L 339.667657 259.570504 
L 350.6823 261.429387 
L 351.361285 261.543976 
L 351.319883 261.536988 
L 326.829507 257.403878 
L 318.192231 255.94621 
L 351.341964 261.540715 
L 350.840545 261.456093 
" clip-path="url(#pb69f84b9bc)" style="fill: none; stroke: #1f77b4; stroke-width: 1.5; stroke-linecap: square"/>
   </g>
   <g id="line2d_17">
    <g clip-path="url(#pb69f84b9bc)">
     <use xlink:href="#me85b83e4ca" x="63.886648" y="219.424622" style="fill: #3cb371; stroke: #3cb371"/>
     <use xlink:href="#me85b83e4ca" x="222.112196" y="209.857484" style="fill: #3cb371; stroke: #3cb371"/>
     <use xlink:href="#me85b83e4ca" x="236.751772" y="210.075646" style="fill: #3cb371; stroke: #3cb371"/>
     <use xlink:href="#me85b83e4ca" x="272.366275" y="224.222034" style="fill: #3cb371; stroke: #3cb371"/>
     <use xlink:href="#me85b83e4ca" x="277.533184" y="285.811512" style="fill: #3cb371; stroke: #3cb371"/>
     <use xlink:href="#me85b83e4ca" x="230.107289" y="180.851042" style="fill: #3cb371; stroke: #3cb371"/>
     <use xlink:href="#me85b83e4ca" x="141.207196" y="216.969507" style="fill: #3cb371; stroke: #3cb371"/>
     <use xlink:href="#me85b83e4ca" x="251.965448" y="231.10991" style="fill: #3cb371; stroke: #3cb371"/>
     <use xlink:href="#me85b83e4ca" x="142.94514" y="223.813361" style="fill: #3cb371; stroke: #3cb371"/>
     <use xlink:href="#me85b83e4ca" x="270.86846" y="282.449427" style="fill: #3cb371; stroke: #3cb371"/>
     <use xlink:href="#me85b83e4ca" x="281.501289" y="253.251489" style="fill: #3cb371; stroke: #3cb371"/>
     <use xlink:href="#me85b83e4ca" x="264.472386" y="211.183408" style="fill: #3cb371; stroke: #3cb371"/>
     <use xlink:href="#me85b83e4ca" x="302.098082" y="284.835928" style="fill: #3cb371; stroke: #3cb371"/>
     <use xlink:href="#me85b83e4ca" x="260.901735" y="236.18511" style="fill: #3cb371; stroke: #3cb371"/>
     <use xlink:href="#me85b83e4ca" x="115.941232" y="227.749765" style="fill: #3cb371; stroke: #3cb371"/>
     <use xlink:href="#me85b83e4ca" x="266.77523" y="219.326891" style="fill: #3cb371; stroke: #3cb371"/>
     <use xlink:href="#me85b83e4ca" x="334.770318" y="283.578828" style="fill: #3cb371; stroke: #3cb371"/>
     <use xlink:href="#me85b83e4ca" x="339.033754" y="289.318544" style="fill: #3cb371; stroke: #3cb371"/>
     <use xlink:href="#me85b83e4ca" x="208.451536" y="222.865223" style="fill: #3cb371; stroke: #3cb371"/>
     <use xlink:href="#me85b83e4ca" x="258.644893" y="161.665129" style="fill: #3cb371; stroke: #3cb371"/>
     <use xlink:href="#me85b83e4ca" x="264.775077" y="194.817167" style="fill: #3cb371; stroke: #3cb371"/>
     <use xlink:href="#me85b83e4ca" x="286.260623" y="220.223581" style="fill: #3cb371; stroke: #3cb371"/>
     <use xlink:href="#me85b83e4ca" x="273.931252" y="200.224841" style="fill: #3cb371; stroke: #3cb371"/>
     <use xlink:href="#me85b83e4ca" x="306.566686" y="212.470797" style="fill: #3cb371; stroke: #3cb371"/>
     <use xlink:href="#me85b83e4ca" x="281.53717" y="199.104465" style="fill: #3cb371; stroke: #3cb371"/>
     <use xlink:href="#me85b83e4ca" x="290.762348" y="214.553886" style="fill: #3cb371; stroke: #3cb371"/>
     <use xlink:href="#me85b83e4ca" x="258.451686" y="209.348198" style="fill: #3cb371; stroke: #3cb371"/>
     <use xlink:href="#me85b83e4ca" x="292.943747" y="175.557084" style="fill: #3cb371; stroke: #3cb371"/>
     <use xlink:href="#me85b83e4ca" x="285.801526" y="273.929572" style="fill: #3cb371; stroke: #3cb371"/>
     <use xlink:href="#me85b83e4ca" x="297.856727" y="235.066792" style="fill: #3cb371; stroke: #3cb371"/>
     <use xlink:href="#me85b83e4ca" x="351.77438" y="285.926733" style="fill: #3cb371; stroke: #3cb371"/>
     <use xlink:href="#me85b83e4ca" x="280.652098" y="264.890788" style="fill: #3cb371; stroke: #3cb371"/>
     <use xlink:href="#me85b83e4ca" x="269.194919" y="218.859973" style="fill: #3cb371; stroke: #3cb371"/>
     <use xlink:href="#me85b83e4ca" x="352.254637" y="250.012489" style="fill: #3cb371; stroke: #3cb371"/>
     <use xlink:href="#me85b83e4ca" x="306.710211" y="276.413501" style="fill: #3cb371; stroke: #3cb371"/>
     <use xlink:href="#me85b83e4ca" x="317.239996" y="245.588608" style="fill: #3cb371; stroke: #3cb371"/>
    </g>
   </g>
   <g id="line2d_18">
    <g clip-path="url(#pb69f84b9bc)">
     <use xlink:href="#mdb5f0a2a8b" x="350.948189" y="274.33198" style="fill: #ffdead; stroke: #ffdead"/>
     <use xlink:href="#mdb5f0a2a8b" x="351.51217" y="280.754364" style="fill: #ffdead; stroke: #ffdead"/>
     <use xlink:href="#mdb5f0a2a8b" x="385.194602" y="257.749617" style="fill: #ffdead; stroke: #ffdead"/>
     <use xlink:href="#mdb5f0a2a8b" x="351.535171" y="279.9523" style="fill: #ffdead; stroke: #ffdead"/>
     <use xlink:href="#mdb5f0a2a8b" x="350.96291" y="267.574541" style="fill: #ffdead; stroke: #ffdead"/>
     <use xlink:href="#mdb5f0a2a8b" x="351.001551" y="268.224538" style="fill: #ffdead; stroke: #ffdead"/>
     <use xlink:href="#mdb5f0a2a8b" x="351.084354" y="175.750844" style="fill: #ffdead; stroke: #ffdead"/>
     <use xlink:href="#mdb5f0a2a8b" x="350.925189" y="268.855145" style="fill: #ffdead; stroke: #ffdead"/>
    </g>
   </g>
   <g id="line2d_19">
    <g clip-path="url(#pb69f84b9bc)">
     <use xlink:href="#mbbaa49181d" x="176.493247" y="268.469717" style="fill: #483d8b; stroke: #483d8b"/>
     <use xlink:href="#mbbaa49181d" x="183.572906" y="275.45228" style="fill: #483d8b; stroke: #483d8b"/>
     <use xlink:href="#mbbaa49181d" x="350.925189" y="282.093782" style="fill: #483d8b; stroke: #483d8b"/>
     <use xlink:href="#mbbaa49181d" x="293.403764" y="272.403556" style="fill: #483d8b; stroke: #483d8b"/>
     <use xlink:href="#mbbaa49181d" x="169.351026" y="285.792293" style="fill: #483d8b; stroke: #483d8b"/>
     <use xlink:href="#mbbaa49181d" x="260.153748" y="283.151773" style="fill: #483d8b; stroke: #483d8b"/>
     <use xlink:href="#mbbaa49181d" x="352.07063" y="277.126978" style="fill: #483d8b; stroke: #483d8b"/>
     <use xlink:href="#mbbaa49181d" x="304.692577" y="277.720351" style="fill: #483d8b; stroke: #483d8b"/>
     <use xlink:href="#mbbaa49181d" x="230.371338" y="284.478954" style="fill: #483d8b; stroke: #483d8b"/>
     <use xlink:href="#mbbaa49181d" x="351.483649" y="276.436003" style="fill: #483d8b; stroke: #483d8b"/>
     <use xlink:href="#mbbaa49181d" x="318.192231" y="272.801132" style="fill: #483d8b; stroke: #483d8b"/>
     <use xlink:href="#mbbaa49181d" x="170.062212" y="286.023998" style="fill: #483d8b; stroke: #483d8b"/>
     <use xlink:href="#mbbaa49181d" x="357.082054" y="283.728423" style="fill: #483d8b; stroke: #483d8b"/>
     <use xlink:href="#mbbaa49181d" x="252.453066" y="281.396825" style="fill: #483d8b; stroke: #483d8b"/>
     <use xlink:href="#mbbaa49181d" x="342.725849" y="278.367145" style="fill: #483d8b; stroke: #483d8b"/>
     <use xlink:href="#mbbaa49181d" x="351.000631" y="275.858749" style="fill: #483d8b; stroke: #483d8b"/>
     <use xlink:href="#mbbaa49181d" x="351.002471" y="282.125983" style="fill: #483d8b; stroke: #483d8b"/>
     <use xlink:href="#mbbaa49181d" x="371.073006" y="258.562845" style="fill: #483d8b; stroke: #483d8b"/>
     <use xlink:href="#mbbaa49181d" x="309.983691" y="269.853852" style="fill: #483d8b; stroke: #483d8b"/>
     <use xlink:href="#mbbaa49181d" x="339.667657" y="272.900591" style="fill: #483d8b; stroke: #483d8b"/>
     <use xlink:href="#mbbaa49181d" x="350.6823" y="253.749686" style="fill: #483d8b; stroke: #483d8b"/>
     <use xlink:href="#mbbaa49181d" x="351.361285" y="276.055627" style="fill: #483d8b; stroke: #483d8b"/>
     <use xlink:href="#mbbaa49181d" x="351.319883" y="256.544549" style="fill: #483d8b; stroke: #483d8b"/>
     <use xlink:href="#mbbaa49181d" x="326.829507" y="270.708682" style="fill: #483d8b; stroke: #483d8b"/>
     <use xlink:href="#mbbaa49181d" x="318.192231" y="289.14761" style="fill: #483d8b; stroke: #483d8b"/>
     <use xlink:href="#mbbaa49181d" x="351.341964" y="281.713869" style="fill: #483d8b; stroke: #483d8b"/>
     <use xlink:href="#mbbaa49181d" x="350.840545" y="228.29681" style="fill: #483d8b; stroke: #483d8b"/>
    </g>
   </g>
   <g id="patch_3">
    <path d="M 47.82125 303.64 
L 47.82125 46.675714 
" style="fill: none; stroke: #000000; stroke-width: 0.8; stroke-linejoin: miter; stroke-linecap: square"/>
   </g>
   <g id="patch_4">
    <path d="M 401.26 303.64 
L 401.26 46.675714 
" style="fill: none; stroke: #000000; stroke-width: 0.8; stroke-linejoin: miter; stroke-linecap: square"/>
   </g>
   <g id="patch_5">
    <path d="M 47.82125 303.64 
L 401.26 303.64 
" style="fill: none; stroke: #000000; stroke-width: 0.8; stroke-linejoin: miter; stroke-linecap: square"/>
   </g>
   <g id="patch_6">
    <path d="M 47.82125 46.675714 
L 401.26 46.675714 
" style="fill: none; stroke: #000000; stroke-width: 0.8; stroke-linejoin: miter; stroke-linecap: square"/>
   </g>
   <g id="text_18">
    <!-- y = -0.02x + 0.50 -->
    <g transform="translate(38.440906 18.599375)scale(0.1 -0.1)">
     <defs>
      <path id="DejaVuSans-79" d="M 2059 -325 
Q 1816 -950 1584 -1140 
Q 1353 -1331 966 -1331 
L 506 -1331 
L 506 -850 
L 844 -850 
Q 1081 -850 1212 -737 
Q 1344 -625 1503 -206 
L 1606 56 
L 191 3500 
L 800 3500 
L 1894 763 
L 2988 3500 
L 3597 3500 
L 2059 -325 
z
" transform="scale(0.015625)"/>
      <path id="DejaVuSans-20" transform="scale(0.015625)"/>
      <path id="DejaVuSans-3d" d="M 678 2906 
L 4684 2906 
L 4684 2381 
L 678 2381 
L 678 2906 
z
M 678 1631 
L 4684 1631 
L 4684 1100 
L 678 1100 
L 678 1631 
z
" transform="scale(0.015625)"/>
      <path id="DejaVuSans-2d" d="M 313 2009 
L 1997 2009 
L 1997 1497 
L 313 1497 
L 313 2009 
z
" transform="scale(0.015625)"/>
      <path id="DejaVuSans-78" d="M 3513 3500 
L 2247 1797 
L 3578 0 
L 2900 0 
L 1881 1375 
L 863 0 
L 184 0 
L 1544 1831 
L 300 3500 
L 978 3500 
L 1906 2253 
L 2834 3500 
L 3513 3500 
z
" transform="scale(0.015625)"/>
      <path id="DejaVuSans-2b" d="M 2944 4013 
L 2944 2272 
L 4684 2272 
L 4684 1741 
L 2944 1741 
L 2944 0 
L 2419 0 
L 2419 1741 
L 678 1741 
L 678 2272 
L 2419 2272 
L 2419 4013 
L 2944 4013 
z
" transform="scale(0.015625)"/>
     </defs>
     <use xlink:href="#DejaVuSans-79"/>
     <use xlink:href="#DejaVuSans-20" x="59.179688"/>
     <use xlink:href="#DejaVuSans-3d" x="90.966797"/>
     <use xlink:href="#DejaVuSans-20" x="174.755859"/>
     <use xlink:href="#DejaVuSans-2d" x="206.542969"/>
     <use xlink:href="#DejaVuSans-30" x="242.626953"/>
     <use xlink:href="#DejaVuSans-2e" x="306.25"/>
     <use xlink:href="#DejaVuSans-30" x="338.037109"/>
     <use xlink:href="#DejaVuSans-32" x="401.660156"/>
     <use xlink:href="#DejaVuSans-78" x="465.283203"/>
     <use xlink:href="#DejaVuSans-20" x="524.462891"/>
     <use xlink:href="#DejaVuSans-2b" x="556.25"/>
     <use xlink:href="#DejaVuSans-20" x="640.039062"/>
     <use xlink:href="#DejaVuSans-30" x="671.826172"/>
     <use xlink:href="#DejaVuSans-2e" x="735.449219"/>
     <use xlink:href="#DejaVuSans-35" x="767.236328"/>
     <use xlink:href="#DejaVuSans-30" x="830.859375"/>
    </g>
   </g>
   <g id="text_19">
    <!-- r^2 = 0.11 -->
    <g transform="translate(55.237781 26.308304)scale(0.1 -0.1)">
     <defs>
      <path id="DejaVuSans-5e" d="M 2988 4666 
L 4684 2925 
L 4056 2925 
L 2681 4159 
L 1306 2925 
L 678 2925 
L 2375 4666 
L 2988 4666 
z
" transform="scale(0.015625)"/>
     </defs>
     <use xlink:href="#DejaVuSans-72"/>
     <use xlink:href="#DejaVuSans-5e" x="41.113281"/>
     <use xlink:href="#DejaVuSans-32" x="124.902344"/>
     <use xlink:href="#DejaVuSans-20" x="188.525391"/>
     <use xlink:href="#DejaVuSans-3d" x="220.3125"/>
     <use xlink:href="#DejaVuSans-20" x="304.101562"/>
     <use xlink:href="#DejaVuSans-30" x="335.888672"/>
     <use xlink:href="#DejaVuSans-2e" x="399.511719"/>
     <use xlink:href="#DejaVuSans-31" x="431.298828"/>
     <use xlink:href="#DejaVuSans-31" x="494.921875"/>
    </g>
   </g>
   <g id="text_20">
    <!-- n = 71 -->
    <g transform="translate(66.265906 34.017232)scale(0.1 -0.1)">
     <defs>
      <path id="DejaVuSans-37" d="M 525 4666 
L 3525 4666 
L 3525 4397 
L 1831 0 
L 1172 0 
L 2766 4134 
L 525 4134 
L 525 4666 
z
" transform="scale(0.015625)"/>
     </defs>
     <use xlink:href="#DejaVuSans-6e"/>
     <use xlink:href="#DejaVuSans-20" x="63.378906"/>
     <use xlink:href="#DejaVuSans-3d" x="95.166016"/>
     <use xlink:href="#DejaVuSans-20" x="178.955078"/>
     <use xlink:href="#DejaVuSans-37" x="210.742188"/>
     <use xlink:href="#DejaVuSans-31" x="274.365234"/>
    </g>
   </g>
   <g id="text_21">
    <!-- HBONDDiff vs PercentGpA_transformed -->
    <g transform="translate(106.137187 40.675714)scale(0.12 -0.12)">
     <defs>
      <path id="DejaVuSans-76" d="M 191 3500 
L 800 3500 
L 1894 563 
L 2988 3500 
L 3597 3500 
L 2284 0 
L 1503 0 
L 191 3500 
z
" transform="scale(0.015625)"/>
     </defs>
     <use xlink:href="#DejaVuSans-48"/>
     <use xlink:href="#DejaVuSans-42" x="75.195312"/>
     <use xlink:href="#DejaVuSans-4f" x="142.048828"/>
     <use xlink:href="#DejaVuSans-4e" x="220.759766"/>
     <use xlink:href="#DejaVuSans-44" x="295.564453"/>
     <use xlink:href="#DejaVuSans-44" x="372.566406"/>
     <use xlink:href="#DejaVuSans-69" x="449.568359"/>
     <use xlink:href="#DejaVuSans-66" x="477.351562"/>
     <use xlink:href="#DejaVuSans-66" x="512.556641"/>
     <use xlink:href="#DejaVuSans-20" x="547.761719"/>
     <use xlink:href="#DejaVuSans-76" x="579.548828"/>
     <use xlink:href="#DejaVuSans-73" x="638.728516"/>
     <use xlink:href="#DejaVuSans-20" x="690.828125"/>
     <use xlink:href="#DejaVuSans-50" x="722.615234"/>
     <use xlink:href="#DejaVuSans-65" x="779.292969"/>
     <use xlink:href="#DejaVuSans-72" x="840.816406"/>
     <use xlink:href="#DejaVuSans-63" x="879.679688"/>
     <use xlink:href="#DejaVuSans-65" x="934.660156"/>
     <use xlink:href="#DejaVuSans-6e" x="996.183594"/>
     <use xlink:href="#DejaVuSans-74" x="1059.5625"/>
     <use xlink:href="#DejaVuSans-47" x="1098.771484"/>
     <use xlink:href="#DejaVuSans-70" x="1176.261719"/>
     <use xlink:href="#DejaVuSans-41" x="1239.738281"/>
     <use xlink:href="#DejaVuSans-5f" x="1308.146484"/>
     <use xlink:href="#DejaVuSans-74" x="1358.146484"/>
     <use xlink:href="#DejaVuSans-72" x="1397.355469"/>
     <use xlink:href="#DejaVuSans-61" x="1438.46875"/>
     <use xlink:href="#DejaVuSans-6e" x="1499.748047"/>
     <use xlink:href="#DejaVuSans-73" x="1563.126953"/>
     <use xlink:href="#DejaVuSans-66" x="1615.226562"/>
     <use xlink:href="#DejaVuSans-6f" x="1650.431641"/>
     <use xlink:href="#DejaVuSans-72" x="1711.613281"/>
     <use xlink:href="#DejaVuSans-6d" x="1750.976562"/>
     <use xlink:href="#DejaVuSans-65" x="1848.388672"/>
     <use xlink:href="#DejaVuSans-64" x="1909.912109"/>
    </g>
   </g>
   <g id="legend_1">
    <g id="patch_7">
     <path d="M 408.26 98.710089 
L 448.008438 98.710089 
Q 450.008438 98.710089 450.008438 96.710089 
L 450.008438 53.675714 
Q 450.008438 51.675714 448.008438 51.675714 
L 408.26 51.675714 
Q 406.26 51.675714 406.26 53.675714 
L 406.26 96.710089 
Q 406.26 98.710089 408.26 98.710089 
z
" style="fill: #ffffff; opacity: 0.8; stroke: #cccccc; stroke-linejoin: miter"/>
    </g>
    <g id="PathCollection_4">
     <g>
      <use xlink:href="#me85b83e4ca" x="420.26" y="60.649152" style="fill: #3cb371; stroke: #3cb371"/>
     </g>
    </g>
    <g id="text_22">
     <!-- G -->
     <g transform="translate(438.26 63.274152)scale(0.1 -0.1)">
      <use xlink:href="#DejaVuSans-47"/>
     </g>
    </g>
    <g id="PathCollection_5">
     <g>
      <use xlink:href="#mdb5f0a2a8b" x="420.26" y="75.327277" style="fill: #ffdead; stroke: #ffdead"/>
     </g>
    </g>
    <g id="text_23">
     <!-- L -->
     <g transform="translate(438.26 77.952277)scale(0.1 -0.1)">
      <defs>
       <path id="DejaVuSans-4c" d="M 628 4666 
L 1259 4666 
L 1259 531 
L 3531 531 
L 3531 0 
L 628 0 
L 628 4666 
z
" transform="scale(0.015625)"/>
      </defs>
      <use xlink:href="#DejaVuSans-4c"/>
     </g>
    </g>
    <g id="PathCollection_6">
     <g>
      <use xlink:href="#mbbaa49181d" x="420.26" y="90.005402" style="fill: #483d8b; stroke: #483d8b"/>
     </g>
    </g>
    <g id="text_24">
     <!-- R -->
     <g transform="translate(438.26 92.630402)scale(0.1 -0.1)">
      <defs>
       <path id="DejaVuSans-52" d="M 2841 2188 
Q 3044 2119 3236 1894 
Q 3428 1669 3622 1275 
L 4263 0 
L 3584 0 
L 2988 1197 
Q 2756 1666 2539 1819 
Q 2322 1972 1947 1972 
L 1259 1972 
L 1259 0 
L 628 0 
L 628 4666 
L 2053 4666 
Q 2853 4666 3247 4331 
Q 3641 3997 3641 3322 
Q 3641 2881 3436 2590 
Q 3231 2300 2841 2188 
z
M 1259 4147 
L 1259 2491 
L 2053 2491 
Q 2509 2491 2742 2702 
Q 2975 2913 2975 3322 
Q 2975 3731 2742 3939 
Q 2509 4147 2053 4147 
L 1259 4147 
z
" transform="scale(0.015625)"/>
      </defs>
      <use xlink:href="#DejaVuSans-52"/>
     </g>
    </g>
   </g>
  </g>
 </g>
 <defs>
  <clipPath id="pb69f84b9bc">
   <rect x="47.82125" y="46.675714" width="353.43875" height="256.964286"/>
  </clipPath>
 </defs>
</svg>
