<?xml version="1.0" encoding="utf-8" standalone="no"?>
<!DOCTYPE svg PUBLIC "-//W3C//DTD SVG 1.1//EN"
  "http://www.w3.org/Graphics/SVG/1.1/DTD/svg11.dtd">
<svg xmlns:xlink="http://www.w3.org/1999/xlink" width="460.8pt" height="345.6pt" viewBox="0 0 460.8 345.6" xmlns="http://www.w3.org/2000/svg" version="1.1">
 <metadata>
  <rdf:RDF xmlns:dc="http://purl.org/dc/elements/1.1/" xmlns:cc="http://creativecommons.org/ns#" xmlns:rdf="http://www.w3.org/1999/02/22-rdf-syntax-ns#">
   <cc:Work>
    <dc:type rdf:resource="http://purl.org/dc/dcmitype/StillImage"/>
    <dc:date>2024-06-14T16:06:13.143725</dc:date>
    <dc:format>image/svg+xml</dc:format>
    <dc:creator>
     <cc:Agent>
      <dc:title>Matplotlib v3.5.3, https://matplotlib.org/</dc:title>
     </cc:Agent>
    </dc:creator>
   </cc:Work>
  </rdf:RDF>
 </metadata>
 <defs>
  <style type="text/css">*{stroke-linejoin: round; stroke-linecap: butt}</style>
 </defs>
 <g id="figure_1">
  <g id="patch_1">
   <path d="M 0 345.6 
L 460.8 345.6 
L 460.8 0 
L 0 0 
z
" style="fill: #ffffff"/>
  </g>
  <g id="axes_1">
   <g id="patch_2">
    <path d="M 47.72 303.64 
L 450 303.64 
L 450 185.710626 
L 47.72 185.710626 
z
" style="fill: #ffffff"/>
   </g>
   <g id="matplotlib.axis_1">
    <g id="xtick_1">
     <g id="text_1">
      <!-- 11I -->
      <g style="fill: #262626" transform="translate(106.929167 318.238437)scale(0.1 -0.1)">
       <defs>
        <path id="DejaVuSans-31" d="M 794 531 
L 1825 531 
L 1825 4091 
L 703 3866 
L 703 4441 
L 1819 4666 
L 2450 4666 
L 2450 531 
L 3481 531 
L 3481 0 
L 794 0 
L 794 531 
z
" transform="scale(0.015625)"/>
        <path id="DejaVuSans-49" d="M 628 4666 
L 1259 4666 
L 1259 0 
L 628 0 
L 628 4666 
z
" transform="scale(0.015625)"/>
       </defs>
       <use xlink:href="#DejaVuSans-31"/>
       <use xlink:href="#DejaVuSans-31" x="63.623047"/>
       <use xlink:href="#DejaVuSans-49" x="127.246094"/>
      </g>
     </g>
    </g>
    <g id="xtick_2">
     <g id="text_2">
      <!-- 15I -->
      <g style="fill: #262626" transform="translate(241.0225 318.238437)scale(0.1 -0.1)">
       <defs>
        <path id="DejaVuSans-35" d="M 691 4666 
L 3169 4666 
L 3169 4134 
L 1269 4134 
L 1269 2991 
Q 1406 3038 1543 3061 
Q 1681 3084 1819 3084 
Q 2600 3084 3056 2656 
Q 3513 2228 3513 1497 
Q 3513 744 3044 326 
Q 2575 -91 1722 -91 
Q 1428 -91 1123 -41 
Q 819 9 494 109 
L 494 744 
Q 775 591 1075 516 
Q 1375 441 1709 441 
Q 2250 441 2565 725 
Q 2881 1009 2881 1497 
Q 2881 1984 2565 2268 
Q 2250 2553 1709 2553 
Q 1456 2553 1204 2497 
Q 953 2441 691 2322 
L 691 4666 
z
" transform="scale(0.015625)"/>
       </defs>
       <use xlink:href="#DejaVuSans-31"/>
       <use xlink:href="#DejaVuSans-35" x="63.623047"/>
       <use xlink:href="#DejaVuSans-49" x="127.246094"/>
      </g>
     </g>
    </g>
    <g id="xtick_3">
     <g id="text_3">
      <!-- 7I -->
      <g style="fill: #262626" transform="translate(378.297083 318.238437)scale(0.1 -0.1)">
       <defs>
        <path id="DejaVuSans-37" d="M 525 4666 
L 3525 4666 
L 3525 4397 
L 1831 0 
L 1172 0 
L 2766 4134 
L 525 4134 
L 525 4666 
z
" transform="scale(0.015625)"/>
       </defs>
       <use xlink:href="#DejaVuSans-37"/>
       <use xlink:href="#DejaVuSans-49" x="63.623047"/>
      </g>
     </g>
    </g>
    <g id="text_4">
     <!-- pos_mutAA -->
     <g style="fill: #262626" transform="translate(220.544375 331.638437)scale(0.1 -0.1)">
      <defs>
       <path id="DejaVuSans-70" d="M 1159 525 
L 1159 -1331 
L 581 -1331 
L 581 3500 
L 1159 3500 
L 1159 2969 
Q 1341 3281 1617 3432 
Q 1894 3584 2278 3584 
Q 2916 3584 3314 3078 
Q 3713 2572 3713 1747 
Q 3713 922 3314 415 
Q 2916 -91 2278 -91 
Q 1894 -91 1617 61 
Q 1341 213 1159 525 
z
M 3116 1747 
Q 3116 2381 2855 2742 
Q 2594 3103 2138 3103 
Q 1681 3103 1420 2742 
Q 1159 2381 1159 1747 
Q 1159 1113 1420 752 
Q 1681 391 2138 391 
Q 2594 391 2855 752 
Q 3116 1113 3116 1747 
z
" transform="scale(0.015625)"/>
       <path id="DejaVuSans-6f" d="M 1959 3097 
Q 1497 3097 1228 2736 
Q 959 2375 959 1747 
Q 959 1119 1226 758 
Q 1494 397 1959 397 
Q 2419 397 2687 759 
Q 2956 1122 2956 1747 
Q 2956 2369 2687 2733 
Q 2419 3097 1959 3097 
z
M 1959 3584 
Q 2709 3584 3137 3096 
Q 3566 2609 3566 1747 
Q 3566 888 3137 398 
Q 2709 -91 1959 -91 
Q 1206 -91 779 398 
Q 353 888 353 1747 
Q 353 2609 779 3096 
Q 1206 3584 1959 3584 
z
" transform="scale(0.015625)"/>
       <path id="DejaVuSans-73" d="M 2834 3397 
L 2834 2853 
Q 2591 2978 2328 3040 
Q 2066 3103 1784 3103 
Q 1356 3103 1142 2972 
Q 928 2841 928 2578 
Q 928 2378 1081 2264 
Q 1234 2150 1697 2047 
L 1894 2003 
Q 2506 1872 2764 1633 
Q 3022 1394 3022 966 
Q 3022 478 2636 193 
Q 2250 -91 1575 -91 
Q 1294 -91 989 -36 
Q 684 19 347 128 
L 347 722 
Q 666 556 975 473 
Q 1284 391 1588 391 
Q 1994 391 2212 530 
Q 2431 669 2431 922 
Q 2431 1156 2273 1281 
Q 2116 1406 1581 1522 
L 1381 1569 
Q 847 1681 609 1914 
Q 372 2147 372 2553 
Q 372 3047 722 3315 
Q 1072 3584 1716 3584 
Q 2034 3584 2315 3537 
Q 2597 3491 2834 3397 
z
" transform="scale(0.015625)"/>
       <path id="DejaVuSans-5f" d="M 3263 -1063 
L 3263 -1509 
L -63 -1509 
L -63 -1063 
L 3263 -1063 
z
" transform="scale(0.015625)"/>
       <path id="DejaVuSans-6d" d="M 3328 2828 
Q 3544 3216 3844 3400 
Q 4144 3584 4550 3584 
Q 5097 3584 5394 3201 
Q 5691 2819 5691 2113 
L 5691 0 
L 5113 0 
L 5113 2094 
Q 5113 2597 4934 2840 
Q 4756 3084 4391 3084 
Q 3944 3084 3684 2787 
Q 3425 2491 3425 1978 
L 3425 0 
L 2847 0 
L 2847 2094 
Q 2847 2600 2669 2842 
Q 2491 3084 2119 3084 
Q 1678 3084 1418 2786 
Q 1159 2488 1159 1978 
L 1159 0 
L 581 0 
L 581 3500 
L 1159 3500 
L 1159 2956 
Q 1356 3278 1631 3431 
Q 1906 3584 2284 3584 
Q 2666 3584 2933 3390 
Q 3200 3197 3328 2828 
z
" transform="scale(0.015625)"/>
       <path id="DejaVuSans-75" d="M 544 1381 
L 544 3500 
L 1119 3500 
L 1119 1403 
Q 1119 906 1312 657 
Q 1506 409 1894 409 
Q 2359 409 2629 706 
Q 2900 1003 2900 1516 
L 2900 3500 
L 3475 3500 
L 3475 0 
L 2900 0 
L 2900 538 
Q 2691 219 2414 64 
Q 2138 -91 1772 -91 
Q 1169 -91 856 284 
Q 544 659 544 1381 
z
M 1991 3584 
L 1991 3584 
z
" transform="scale(0.015625)"/>
       <path id="DejaVuSans-74" d="M 1172 4494 
L 1172 3500 
L 2356 3500 
L 2356 3053 
L 1172 3053 
L 1172 1153 
Q 1172 725 1289 603 
Q 1406 481 1766 481 
L 2356 481 
L 2356 0 
L 1766 0 
Q 1100 0 847 248 
Q 594 497 594 1153 
L 594 3053 
L 172 3053 
L 172 3500 
L 594 3500 
L 594 4494 
L 1172 4494 
z
" transform="scale(0.015625)"/>
       <path id="DejaVuSans-41" d="M 2188 4044 
L 1331 1722 
L 3047 1722 
L 2188 4044 
z
M 1831 4666 
L 2547 4666 
L 4325 0 
L 3669 0 
L 3244 1197 
L 1141 1197 
L 716 0 
L 50 0 
L 1831 4666 
z
" transform="scale(0.015625)"/>
      </defs>
      <use xlink:href="#DejaVuSans-70"/>
      <use xlink:href="#DejaVuSans-6f" x="63.476562"/>
      <use xlink:href="#DejaVuSans-73" x="124.658203"/>
      <use xlink:href="#DejaVuSans-5f" x="176.757812"/>
      <use xlink:href="#DejaVuSans-6d" x="226.757812"/>
      <use xlink:href="#DejaVuSans-75" x="324.169922"/>
      <use xlink:href="#DejaVuSans-74" x="387.548828"/>
      <use xlink:href="#DejaVuSans-41" x="426.757812"/>
      <use xlink:href="#DejaVuSans-41" x="497.916016"/>
     </g>
    </g>
   </g>
   <g id="matplotlib.axis_2">
    <g id="ytick_1">
     <g id="line2d_1">
      <path d="M 47.72 303.64 
L 450 303.64 
" clip-path="url(#p3115806ecc)" style="fill: none; stroke: #cccccc; stroke-width: 0.8; stroke-linecap: round"/>
     </g>
     <g id="text_5">
      <!-- 0.00 -->
      <g style="fill: #262626" transform="translate(18.454375 307.439219)scale(0.1 -0.1)">
       <defs>
        <path id="DejaVuSans-30" d="M 2034 4250 
Q 1547 4250 1301 3770 
Q 1056 3291 1056 2328 
Q 1056 1369 1301 889 
Q 1547 409 2034 409 
Q 2525 409 2770 889 
Q 3016 1369 3016 2328 
Q 3016 3291 2770 3770 
Q 2525 4250 2034 4250 
z
M 2034 4750 
Q 2819 4750 3233 4129 
Q 3647 3509 3647 2328 
Q 3647 1150 3233 529 
Q 2819 -91 2034 -91 
Q 1250 -91 836 529 
Q 422 1150 422 2328 
Q 422 3509 836 4129 
Q 1250 4750 2034 4750 
z
" transform="scale(0.015625)"/>
        <path id="DejaVuSans-2e" d="M 684 794 
L 1344 794 
L 1344 0 
L 684 0 
L 684 794 
z
" transform="scale(0.015625)"/>
       </defs>
       <use xlink:href="#DejaVuSans-30"/>
       <use xlink:href="#DejaVuSans-2e" x="63.623047"/>
       <use xlink:href="#DejaVuSans-30" x="95.410156"/>
       <use xlink:href="#DejaVuSans-30" x="159.033203"/>
      </g>
     </g>
    </g>
    <g id="ytick_2">
     <g id="line2d_2">
      <path d="M 47.72 275.539883 
L 450 275.539883 
" clip-path="url(#p3115806ecc)" style="fill: none; stroke: #cccccc; stroke-width: 0.8; stroke-linecap: round"/>
     </g>
     <g id="text_6">
      <!-- 0.25 -->
      <g style="fill: #262626" transform="translate(18.454375 279.339102)scale(0.1 -0.1)">
       <defs>
        <path id="DejaVuSans-32" d="M 1228 531 
L 3431 531 
L 3431 0 
L 469 0 
L 469 531 
Q 828 903 1448 1529 
Q 2069 2156 2228 2338 
Q 2531 2678 2651 2914 
Q 2772 3150 2772 3378 
Q 2772 3750 2511 3984 
Q 2250 4219 1831 4219 
Q 1534 4219 1204 4116 
Q 875 4013 500 3803 
L 500 4441 
Q 881 4594 1212 4672 
Q 1544 4750 1819 4750 
Q 2544 4750 2975 4387 
Q 3406 4025 3406 3419 
Q 3406 3131 3298 2873 
Q 3191 2616 2906 2266 
Q 2828 2175 2409 1742 
Q 1991 1309 1228 531 
z
" transform="scale(0.015625)"/>
       </defs>
       <use xlink:href="#DejaVuSans-30"/>
       <use xlink:href="#DejaVuSans-2e" x="63.623047"/>
       <use xlink:href="#DejaVuSans-32" x="95.410156"/>
       <use xlink:href="#DejaVuSans-35" x="159.033203"/>
      </g>
     </g>
    </g>
    <g id="ytick_3">
     <g id="line2d_3">
      <path d="M 47.72 247.439767 
L 450 247.439767 
" clip-path="url(#p3115806ecc)" style="fill: none; stroke: #cccccc; stroke-width: 0.8; stroke-linecap: round"/>
     </g>
     <g id="text_7">
      <!-- 0.50 -->
      <g style="fill: #262626" transform="translate(18.454375 251.238985)scale(0.1 -0.1)">
       <use xlink:href="#DejaVuSans-30"/>
       <use xlink:href="#DejaVuSans-2e" x="63.623047"/>
       <use xlink:href="#DejaVuSans-35" x="95.410156"/>
       <use xlink:href="#DejaVuSans-30" x="159.033203"/>
      </g>
     </g>
    </g>
    <g id="ytick_4">
     <g id="line2d_4">
      <path d="M 47.72 219.33965 
L 450 219.33965 
" clip-path="url(#p3115806ecc)" style="fill: none; stroke: #cccccc; stroke-width: 0.8; stroke-linecap: round"/>
     </g>
     <g id="text_8">
      <!-- 0.75 -->
      <g style="fill: #262626" transform="translate(18.454375 223.138869)scale(0.1 -0.1)">
       <use xlink:href="#DejaVuSans-30"/>
       <use xlink:href="#DejaVuSans-2e" x="63.623047"/>
       <use xlink:href="#DejaVuSans-37" x="95.410156"/>
       <use xlink:href="#DejaVuSans-35" x="159.033203"/>
      </g>
     </g>
    </g>
    <g id="ytick_5">
     <g id="line2d_5">
      <path d="M 47.72 191.239533 
L 450 191.239533 
" clip-path="url(#p3115806ecc)" style="fill: none; stroke: #cccccc; stroke-width: 0.8; stroke-linecap: round"/>
     </g>
     <g id="text_9">
      <!-- 1.00 -->
      <g style="fill: #262626" transform="translate(18.454375 195.038752)scale(0.1 -0.1)">
       <use xlink:href="#DejaVuSans-31"/>
       <use xlink:href="#DejaVuSans-2e" x="63.623047"/>
       <use xlink:href="#DejaVuSans-30" x="95.410156"/>
       <use xlink:href="#DejaVuSans-30" x="159.033203"/>
      </g>
     </g>
    </g>
    <g id="text_10">
     <!-- PercentGpA -->
     <g style="fill: #262626" transform="translate(12.374688 273.951875)rotate(-90)scale(0.1 -0.1)">
      <defs>
       <path id="DejaVuSans-50" d="M 1259 4147 
L 1259 2394 
L 2053 2394 
Q 2494 2394 2734 2622 
Q 2975 2850 2975 3272 
Q 2975 3691 2734 3919 
Q 2494 4147 2053 4147 
L 1259 4147 
z
M 628 4666 
L 2053 4666 
Q 2838 4666 3239 4311 
Q 3641 3956 3641 3272 
Q 3641 2581 3239 2228 
Q 2838 1875 2053 1875 
L 1259 1875 
L 1259 0 
L 628 0 
L 628 4666 
z
" transform="scale(0.015625)"/>
       <path id="DejaVuSans-65" d="M 3597 1894 
L 3597 1613 
L 953 1613 
Q 991 1019 1311 708 
Q 1631 397 2203 397 
Q 2534 397 2845 478 
Q 3156 559 3463 722 
L 3463 178 
Q 3153 47 2828 -22 
Q 2503 -91 2169 -91 
Q 1331 -91 842 396 
Q 353 884 353 1716 
Q 353 2575 817 3079 
Q 1281 3584 2069 3584 
Q 2775 3584 3186 3129 
Q 3597 2675 3597 1894 
z
M 3022 2063 
Q 3016 2534 2758 2815 
Q 2500 3097 2075 3097 
Q 1594 3097 1305 2825 
Q 1016 2553 972 2059 
L 3022 2063 
z
" transform="scale(0.015625)"/>
       <path id="DejaVuSans-72" d="M 2631 2963 
Q 2534 3019 2420 3045 
Q 2306 3072 2169 3072 
Q 1681 3072 1420 2755 
Q 1159 2438 1159 1844 
L 1159 0 
L 581 0 
L 581 3500 
L 1159 3500 
L 1159 2956 
Q 1341 3275 1631 3429 
Q 1922 3584 2338 3584 
Q 2397 3584 2469 3576 
Q 2541 3569 2628 3553 
L 2631 2963 
z
" transform="scale(0.015625)"/>
       <path id="DejaVuSans-63" d="M 3122 3366 
L 3122 2828 
Q 2878 2963 2633 3030 
Q 2388 3097 2138 3097 
Q 1578 3097 1268 2742 
Q 959 2388 959 1747 
Q 959 1106 1268 751 
Q 1578 397 2138 397 
Q 2388 397 2633 464 
Q 2878 531 3122 666 
L 3122 134 
Q 2881 22 2623 -34 
Q 2366 -91 2075 -91 
Q 1284 -91 818 406 
Q 353 903 353 1747 
Q 353 2603 823 3093 
Q 1294 3584 2113 3584 
Q 2378 3584 2631 3529 
Q 2884 3475 3122 3366 
z
" transform="scale(0.015625)"/>
       <path id="DejaVuSans-6e" d="M 3513 2113 
L 3513 0 
L 2938 0 
L 2938 2094 
Q 2938 2591 2744 2837 
Q 2550 3084 2163 3084 
Q 1697 3084 1428 2787 
Q 1159 2491 1159 1978 
L 1159 0 
L 581 0 
L 581 3500 
L 1159 3500 
L 1159 2956 
Q 1366 3272 1645 3428 
Q 1925 3584 2291 3584 
Q 2894 3584 3203 3211 
Q 3513 2838 3513 2113 
z
" transform="scale(0.015625)"/>
       <path id="DejaVuSans-47" d="M 3809 666 
L 3809 1919 
L 2778 1919 
L 2778 2438 
L 4434 2438 
L 4434 434 
Q 4069 175 3628 42 
Q 3188 -91 2688 -91 
Q 1594 -91 976 548 
Q 359 1188 359 2328 
Q 359 3472 976 4111 
Q 1594 4750 2688 4750 
Q 3144 4750 3555 4637 
Q 3966 4525 4313 4306 
L 4313 3634 
Q 3963 3931 3569 4081 
Q 3175 4231 2741 4231 
Q 1884 4231 1454 3753 
Q 1025 3275 1025 2328 
Q 1025 1384 1454 906 
Q 1884 428 2741 428 
Q 3075 428 3337 486 
Q 3600 544 3809 666 
z
" transform="scale(0.015625)"/>
      </defs>
      <use xlink:href="#DejaVuSans-50"/>
      <use xlink:href="#DejaVuSans-65" x="56.677734"/>
      <use xlink:href="#DejaVuSans-72" x="118.201172"/>
      <use xlink:href="#DejaVuSans-63" x="157.064453"/>
      <use xlink:href="#DejaVuSans-65" x="212.044922"/>
      <use xlink:href="#DejaVuSans-6e" x="273.568359"/>
      <use xlink:href="#DejaVuSans-74" x="336.947266"/>
      <use xlink:href="#DejaVuSans-47" x="376.15625"/>
      <use xlink:href="#DejaVuSans-70" x="453.646484"/>
      <use xlink:href="#DejaVuSans-41" x="517.123047"/>
     </g>
    </g>
   </g>
   <g id="patch_3">
    <path d="M 61.665707 284.489121 
L 114.230293 284.489121 
L 114.230293 276.735439 
L 61.665707 276.735439 
L 61.665707 284.489121 
z
" clip-path="url(#p3115806ecc)" style="fill: #ecf2ec; stroke: #262626; stroke-width: 1.5; stroke-linejoin: miter"/>
   </g>
   <g id="patch_4">
    <path d="M 115.30304 278.721474 
L 167.867627 278.721474 
L 167.867627 245.0324 
L 115.30304 245.0324 
L 115.30304 278.721474 
z
" clip-path="url(#p3115806ecc)" style="fill: #107010; stroke: #262626; stroke-width: 1.5; stroke-linejoin: miter"/>
   </g>
   <g id="patch_5">
    <path d="M 195.75904 281.722922 
L 248.323627 281.722922 
L 248.323627 276.734102 
L 195.75904 276.734102 
L 195.75904 281.722922 
z
" clip-path="url(#p3115806ecc)" style="fill: #ecf2ec; stroke: #262626; stroke-width: 1.5; stroke-linejoin: miter"/>
   </g>
   <g id="patch_6">
    <path d="M 249.396373 274.113267 
L 301.96096 274.113267 
L 301.96096 256.55715 
L 249.396373 256.55715 
L 249.396373 274.113267 
z
" clip-path="url(#p3115806ecc)" style="fill: #107010; stroke: #262626; stroke-width: 1.5; stroke-linejoin: miter"/>
   </g>
   <g id="patch_7">
    <path d="M 329.852373 285.580946 
L 382.41696 285.580946 
L 382.41696 273.04106 
L 329.852373 273.04106 
L 329.852373 285.580946 
z
" clip-path="url(#p3115806ecc)" style="fill: #ecf2ec; stroke: #262626; stroke-width: 1.5; stroke-linejoin: miter"/>
   </g>
   <g id="patch_8">
    <path d="M 383.489707 270.189843 
L 436.054293 270.189843 
L 436.054293 196.457153 
L 383.489707 196.457153 
L 383.489707 270.189843 
z
" clip-path="url(#p3115806ecc)" style="fill: #107010; stroke: #262626; stroke-width: 1.5; stroke-linejoin: miter"/>
   </g>
   <g id="patch_9">
    <path d="M 114.766667 303.64 
L 114.766667 303.64 
L 114.766667 303.64 
L 114.766667 303.64 
z
" clip-path="url(#p3115806ecc)" style="fill: #ecf2ec; stroke: #262626; stroke-width: 0.75; stroke-linejoin: miter"/>
   </g>
   <g id="patch_10">
    <path d="M 114.766667 303.64 
L 114.766667 303.64 
L 114.766667 303.64 
L 114.766667 303.64 
z
" clip-path="url(#p3115806ecc)" style="fill: #107010; stroke: #262626; stroke-width: 0.75; stroke-linejoin: miter"/>
   </g>
   <g id="PathCollection_1"/>
   <g id="PathCollection_2"/>
   <g id="line2d_6">
    <path d="M 87.948 284.489121 
L 87.948 288.772773 
" clip-path="url(#p3115806ecc)" style="fill: none; stroke: #262626; stroke-width: 1.5; stroke-linecap: round"/>
   </g>
   <g id="line2d_7">
    <path d="M 87.948 276.735439 
L 87.948 271.178053 
" clip-path="url(#p3115806ecc)" style="fill: none; stroke: #262626; stroke-width: 1.5; stroke-linecap: round"/>
   </g>
   <g id="line2d_8">
    <path d="M 74.806853 288.772773 
L 101.089147 288.772773 
" clip-path="url(#p3115806ecc)" style="fill: none; stroke: #262626; stroke-width: 1.5; stroke-linecap: round"/>
   </g>
   <g id="line2d_9">
    <path d="M 74.806853 271.178053 
L 101.089147 271.178053 
" clip-path="url(#p3115806ecc)" style="fill: none; stroke: #262626; stroke-width: 1.5; stroke-linecap: round"/>
   </g>
   <g id="line2d_10"/>
   <g id="line2d_11">
    <path d="M 141.585333 278.721474 
L 141.585333 286.548659 
" clip-path="url(#p3115806ecc)" style="fill: none; stroke: #262626; stroke-width: 1.5; stroke-linecap: round"/>
   </g>
   <g id="line2d_12">
    <path d="M 141.585333 245.0324 
L 141.585333 201.461262 
" clip-path="url(#p3115806ecc)" style="fill: none; stroke: #262626; stroke-width: 1.5; stroke-linecap: round"/>
   </g>
   <g id="line2d_13">
    <path d="M 128.444187 286.548659 
L 154.72648 286.548659 
" clip-path="url(#p3115806ecc)" style="fill: none; stroke: #262626; stroke-width: 1.5; stroke-linecap: round"/>
   </g>
   <g id="line2d_14">
    <path d="M 128.444187 201.461262 
L 154.72648 201.461262 
" clip-path="url(#p3115806ecc)" style="fill: none; stroke: #262626; stroke-width: 1.5; stroke-linecap: round"/>
   </g>
   <g id="line2d_15"/>
   <g id="line2d_16">
    <path d="M 222.041333 281.722922 
L 222.041333 287.845401 
" clip-path="url(#p3115806ecc)" style="fill: none; stroke: #262626; stroke-width: 1.5; stroke-linecap: round"/>
   </g>
   <g id="line2d_17">
    <path d="M 222.041333 276.734102 
L 222.041333 272.050845 
" clip-path="url(#p3115806ecc)" style="fill: none; stroke: #262626; stroke-width: 1.5; stroke-linecap: round"/>
   </g>
   <g id="line2d_18">
    <path d="M 208.900187 287.845401 
L 235.18248 287.845401 
" clip-path="url(#p3115806ecc)" style="fill: none; stroke: #262626; stroke-width: 1.5; stroke-linecap: round"/>
   </g>
   <g id="line2d_19">
    <path d="M 208.900187 272.050845 
L 235.18248 272.050845 
" clip-path="url(#p3115806ecc)" style="fill: none; stroke: #262626; stroke-width: 1.5; stroke-linecap: round"/>
   </g>
   <g id="line2d_20"/>
   <g id="line2d_21">
    <path d="M 275.678667 274.113267 
L 275.678667 287.417723 
" clip-path="url(#p3115806ecc)" style="fill: none; stroke: #262626; stroke-width: 1.5; stroke-linecap: round"/>
   </g>
   <g id="line2d_22">
    <path d="M 275.678667 256.55715 
L 275.678667 254.798858 
" clip-path="url(#p3115806ecc)" style="fill: none; stroke: #262626; stroke-width: 1.5; stroke-linecap: round"/>
   </g>
   <g id="line2d_23">
    <path d="M 262.53752 287.417723 
L 288.819813 287.417723 
" clip-path="url(#p3115806ecc)" style="fill: none; stroke: #262626; stroke-width: 1.5; stroke-linecap: round"/>
   </g>
   <g id="line2d_24">
    <path d="M 262.53752 254.798858 
L 288.819813 254.798858 
" clip-path="url(#p3115806ecc)" style="fill: none; stroke: #262626; stroke-width: 1.5; stroke-linecap: round"/>
   </g>
   <g id="line2d_25">
    <defs>
     <path id="me215c32c50" d="M -0 1.414214 
L 0.848528 0 
L 0 -1.414214 
L -0.848528 -0 
z
" style="stroke: #262626; stroke-linejoin: miter"/>
    </defs>
    <g clip-path="url(#p3115806ecc)">
     <use xlink:href="#me215c32c50" x="275.678667" y="216.309003" style="fill: #262626; stroke: #262626; stroke-linejoin: miter"/>
    </g>
   </g>
   <g id="line2d_26">
    <path d="M 356.134667 285.580946 
L 356.134667 289.928784 
" clip-path="url(#p3115806ecc)" style="fill: none; stroke: #262626; stroke-width: 1.5; stroke-linecap: round"/>
   </g>
   <g id="line2d_27">
    <path d="M 356.134667 273.04106 
L 356.134667 270.15725 
" clip-path="url(#p3115806ecc)" style="fill: none; stroke: #262626; stroke-width: 1.5; stroke-linecap: round"/>
   </g>
   <g id="line2d_28">
    <path d="M 342.99352 289.928784 
L 369.275813 289.928784 
" clip-path="url(#p3115806ecc)" style="fill: none; stroke: #262626; stroke-width: 1.5; stroke-linecap: round"/>
   </g>
   <g id="line2d_29">
    <path d="M 342.99352 270.15725 
L 369.275813 270.15725 
" clip-path="url(#p3115806ecc)" style="fill: none; stroke: #262626; stroke-width: 1.5; stroke-linecap: round"/>
   </g>
   <g id="line2d_30"/>
   <g id="line2d_31">
    <path d="M 409.772 270.189843 
L 409.772 275.741844 
" clip-path="url(#p3115806ecc)" style="fill: none; stroke: #262626; stroke-width: 1.5; stroke-linecap: round"/>
   </g>
   <g id="line2d_32">
    <path d="M 409.772 196.457153 
L 409.772 196.431478 
" clip-path="url(#p3115806ecc)" style="fill: none; stroke: #262626; stroke-width: 1.5; stroke-linecap: round"/>
   </g>
   <g id="line2d_33">
    <path d="M 396.630853 275.741844 
L 422.913147 275.741844 
" clip-path="url(#p3115806ecc)" style="fill: none; stroke: #262626; stroke-width: 1.5; stroke-linecap: round"/>
   </g>
   <g id="line2d_34">
    <path d="M 396.630853 196.431478 
L 422.913147 196.431478 
" clip-path="url(#p3115806ecc)" style="fill: none; stroke: #262626; stroke-width: 1.5; stroke-linecap: round"/>
   </g>
   <g id="line2d_35"/>
   <g id="line2d_36">
    <path d="M 61.665707 280.059206 
L 114.230293 280.059206 
" clip-path="url(#p3115806ecc)" style="fill: none; stroke: #262626; stroke-width: 1.5; stroke-linecap: round"/>
   </g>
   <g id="line2d_37">
    <path d="M 115.30304 274.551333 
L 167.867627 274.551333 
" clip-path="url(#p3115806ecc)" style="fill: none; stroke: #262626; stroke-width: 1.5; stroke-linecap: round"/>
   </g>
   <g id="line2d_38">
    <path d="M 195.75904 278.298441 
L 248.323627 278.298441 
" clip-path="url(#p3115806ecc)" style="fill: none; stroke: #262626; stroke-width: 1.5; stroke-linecap: round"/>
   </g>
   <g id="line2d_39">
    <path d="M 249.396373 268.854617 
L 301.96096 268.854617 
" clip-path="url(#p3115806ecc)" style="fill: none; stroke: #262626; stroke-width: 1.5; stroke-linecap: round"/>
   </g>
   <g id="line2d_40">
    <path d="M 329.852373 281.029995 
L 382.41696 281.029995 
" clip-path="url(#p3115806ecc)" style="fill: none; stroke: #262626; stroke-width: 1.5; stroke-linecap: round"/>
   </g>
   <g id="line2d_41">
    <path d="M 383.489707 232.402444 
L 436.054293 232.402444 
" clip-path="url(#p3115806ecc)" style="fill: none; stroke: #262626; stroke-width: 1.5; stroke-linecap: round"/>
   </g>
   <g id="patch_11">
    <path d="M 47.72 303.64 
L 47.72 185.710626 
" style="fill: none; stroke: #cccccc; stroke-width: 0.8; stroke-linejoin: miter; stroke-linecap: square"/>
   </g>
   <g id="patch_12">
    <path d="M 450 303.64 
L 450 185.710626 
" style="fill: none; stroke: #cccccc; stroke-width: 0.8; stroke-linejoin: miter; stroke-linecap: square"/>
   </g>
   <g id="patch_13">
    <path d="M 47.72 303.64 
L 450 303.64 
" style="fill: none; stroke: #cccccc; stroke-width: 0.8; stroke-linejoin: miter; stroke-linecap: square"/>
   </g>
   <g id="patch_14">
    <path d="M 47.72 185.710626 
L 450 185.710626 
" style="fill: none; stroke: #cccccc; stroke-width: 0.8; stroke-linejoin: miter; stroke-linecap: square"/>
   </g>
   <g id="PathCollection_3">
    <defs>
     <path id="C0_0_b25060a5a3" d="M 0 1 
C 0.265203 1 0.51958 0.894634 0.707107 0.707107 
C 0.894634 0.51958 1 0.265203 1 -0 
C 1 -0.265203 0.894634 -0.51958 0.707107 -0.707107 
C 0.51958 -0.894634 0.265203 -1 0 -1 
C -0.265203 -1 -0.51958 -0.894634 -0.707107 -0.707107 
C -0.894634 -0.51958 -1 -0.265203 -1 0 
C -1 0.265203 -0.894634 0.51958 -0.707107 0.707107 
C -0.51958 0.894634 -0.265203 1 0 1 
z
"/>
    </defs>
    <g clip-path="url(#p3115806ecc)">
     <use xlink:href="#C0_0_b25060a5a3" x="85.498898" y="271.323293" style="fill: #262626"/>
    </g>
    <g clip-path="url(#p3115806ecc)">
     <use xlink:href="#C0_0_b25060a5a3" x="91.129604" y="281.597888" style="fill: #262626"/>
    </g>
    <g clip-path="url(#p3115806ecc)">
     <use xlink:href="#C0_0_b25060a5a3" x="85.514068" y="277.970316" style="fill: #262626"/>
    </g>
    <g clip-path="url(#p3115806ecc)">
     <use xlink:href="#C0_0_b25060a5a3" x="83.109057" y="287.172673" style="fill: #262626"/>
    </g>
    <g clip-path="url(#p3115806ecc)">
     <use xlink:href="#C0_0_b25060a5a3" x="93.422299" y="277.101672" style="fill: #262626"/>
    </g>
    <g clip-path="url(#p3115806ecc)">
     <use xlink:href="#C0_0_b25060a5a3" x="86.20303" y="278.253184" style="fill: #262626"/>
    </g>
    <g clip-path="url(#p3115806ecc)">
     <use xlink:href="#C0_0_b25060a5a3" x="90.778437" y="282.947116" style="fill: #262626"/>
    </g>
    <g clip-path="url(#p3115806ecc)">
     <use xlink:href="#C0_0_b25060a5a3" x="83.722082" y="274.681923" style="fill: #262626"/>
    </g>
    <g clip-path="url(#p3115806ecc)">
     <use xlink:href="#C0_0_b25060a5a3" x="86.889509" y="273.87861" style="fill: #262626"/>
    </g>
    <g clip-path="url(#p3115806ecc)">
     <use xlink:href="#C0_0_b25060a5a3" x="86.608341" y="273.725268" style="fill: #262626"/>
    </g>
    <g clip-path="url(#p3115806ecc)">
     <use xlink:href="#C0_0_b25060a5a3" x="94.467254" y="287.473972" style="fill: #262626"/>
    </g>
    <g clip-path="url(#p3115806ecc)">
     <use xlink:href="#C0_0_b25060a5a3" x="86.276934" y="282.820675" style="fill: #262626"/>
    </g>
    <g clip-path="url(#p3115806ecc)">
     <use xlink:href="#C0_0_b25060a5a3" x="83.886413" y="283.675518" style="fill: #262626"/>
    </g>
    <g clip-path="url(#p3115806ecc)">
     <use xlink:href="#C0_0_b25060a5a3" x="86.990844" y="279.753951" style="fill: #262626"/>
    </g>
    <g clip-path="url(#p3115806ecc)">
     <use xlink:href="#C0_0_b25060a5a3" x="82.493941" y="284.760322" style="fill: #262626"/>
    </g>
    <g clip-path="url(#p3115806ecc)">
     <use xlink:href="#C0_0_b25060a5a3" x="94.584146" y="286.219612" style="fill: #262626"/>
    </g>
    <g clip-path="url(#p3115806ecc)">
     <use xlink:href="#C0_0_b25060a5a3" x="91.978746" y="286.359687" style="fill: #262626"/>
    </g>
    <g clip-path="url(#p3115806ecc)">
     <use xlink:href="#C0_0_b25060a5a3" x="90.877342" y="280.364461" style="fill: #262626"/>
    </g>
    <g clip-path="url(#p3115806ecc)">
     <use xlink:href="#C0_0_b25060a5a3" x="81.422376" y="276.92033" style="fill: #262626"/>
    </g>
    <g clip-path="url(#p3115806ecc)">
     <use xlink:href="#C0_0_b25060a5a3" x="87.385542" y="281.096438" style="fill: #262626"/>
    </g>
    <g clip-path="url(#p3115806ecc)">
     <use xlink:href="#C0_0_b25060a5a3" x="92.947853" y="278.731999" style="fill: #262626"/>
    </g>
    <g clip-path="url(#p3115806ecc)">
     <use xlink:href="#C0_0_b25060a5a3" x="89.121758" y="272.960784" style="fill: #262626"/>
    </g>
    <g clip-path="url(#p3115806ecc)">
     <use xlink:href="#C0_0_b25060a5a3" x="90.858919" y="284.91297" style="fill: #262626"/>
    </g>
    <g clip-path="url(#p3115806ecc)">
     <use xlink:href="#C0_0_b25060a5a3" x="93.735659" y="276.673808" style="fill: #262626"/>
    </g>
    <g clip-path="url(#p3115806ecc)">
     <use xlink:href="#C0_0_b25060a5a3" x="86.909369" y="288.772773" style="fill: #262626"/>
    </g>
    <g clip-path="url(#p3115806ecc)">
     <use xlink:href="#C0_0_b25060a5a3" x="84.765805" y="271.178053" style="fill: #262626"/>
    </g>
   </g>
   <g id="PathCollection_4">
    <defs>
     <path id="C1_0_b08342d007" d="M 0 1 
C 0.265203 1 0.51958 0.894634 0.707107 0.707107 
C 0.894634 0.51958 1 0.265203 1 -0 
C 1 -0.265203 0.894634 -0.51958 0.707107 -0.707107 
C 0.51958 -0.894634 0.265203 -1 0 -1 
C -0.265203 -1 -0.51958 -0.894634 -0.707107 -0.707107 
C -0.894634 -0.51958 -1 -0.265203 -1 0 
C -1 0.265203 -0.894634 0.51958 -0.707107 0.707107 
C -0.51958 0.894634 -0.265203 1 0 1 
z
"/>
    </defs>
    <g clip-path="url(#p3115806ecc)">
     <use xlink:href="#C1_0_b08342d007" x="145.996148" y="218.941548"/>
    </g>
    <g clip-path="url(#p3115806ecc)">
     <use xlink:href="#C1_0_b08342d007" x="141.195654" y="277.224277"/>
    </g>
    <g clip-path="url(#p3115806ecc)">
     <use xlink:href="#C1_0_b08342d007" x="146.036135" y="286.548659"/>
    </g>
    <g clip-path="url(#p3115806ecc)">
     <use xlink:href="#C1_0_b08342d007" x="144.917828" y="208.899555"/>
    </g>
    <g clip-path="url(#p3115806ecc)">
     <use xlink:href="#C1_0_b08342d007" x="141.324369" y="201.461262"/>
    </g>
    <g clip-path="url(#p3115806ecc)">
     <use xlink:href="#C1_0_b08342d007" x="137.121897" y="284.334025"/>
    </g>
    <g clip-path="url(#p3115806ecc)">
     <use xlink:href="#C1_0_b08342d007" x="139.359726" y="253.729351"/>
    </g>
    <g clip-path="url(#p3115806ecc)">
     <use xlink:href="#C1_0_b08342d007" x="148.18776" y="275.098943"/>
    </g>
    <g clip-path="url(#p3115806ecc)">
     <use xlink:href="#C1_0_b08342d007" x="145.13705" y="283.213067"/>
    </g>
    <g clip-path="url(#p3115806ecc)">
     <use xlink:href="#C1_0_b08342d007" x="146.641279" y="274.789984"/>
    </g>
    <g clip-path="url(#p3115806ecc)">
     <use xlink:href="#C1_0_b08342d007" x="146.392687" y="273.156687"/>
    </g>
    <g clip-path="url(#p3115806ecc)">
     <use xlink:href="#C1_0_b08342d007" x="134.976668" y="274.312682"/>
    </g>
   </g>
   <g id="PathCollection_5">
    <defs>
     <path id="C2_0_9c2993380d" d="M 0 1 
C 0.265203 1 0.51958 0.894634 0.707107 0.707107 
C 0.894634 0.51958 1 0.265203 1 -0 
C 1 -0.265203 0.894634 -0.51958 0.707107 -0.707107 
C 0.51958 -0.894634 0.265203 -1 0 -1 
C -0.265203 -1 -0.51958 -0.894634 -0.707107 -0.707107 
C -0.894634 -0.51958 -1 -0.265203 -1 0 
C -1 0.265203 -0.894634 0.51958 -0.707107 0.707107 
C -0.51958 0.894634 -0.265203 1 0 1 
z
"/>
    </defs>
    <g clip-path="url(#p3115806ecc)">
     <use xlink:href="#C2_0_9c2993380d" x="222.728305" y="272.050845" style="fill: #262626"/>
    </g>
    <g clip-path="url(#p3115806ecc)">
     <use xlink:href="#C2_0_9c2993380d" x="226.440408" y="274.080881" style="fill: #262626"/>
    </g>
    <g clip-path="url(#p3115806ecc)">
     <use xlink:href="#C2_0_9c2993380d" x="217.472796" y="278.298441" style="fill: #262626"/>
    </g>
    <g clip-path="url(#p3115806ecc)">
     <use xlink:href="#C2_0_9c2993380d" x="218.463075" y="277.208752" style="fill: #262626"/>
    </g>
    <g clip-path="url(#p3115806ecc)">
     <use xlink:href="#C2_0_9c2993380d" x="223.527721" y="278.312199" style="fill: #262626"/>
    </g>
    <g clip-path="url(#p3115806ecc)">
     <use xlink:href="#C2_0_9c2993380d" x="221.620154" y="272.155295" style="fill: #262626"/>
    </g>
    <g clip-path="url(#p3115806ecc)">
     <use xlink:href="#C2_0_9c2993380d" x="219.96791" y="276.734102" style="fill: #262626"/>
    </g>
    <g clip-path="url(#p3115806ecc)">
     <use xlink:href="#C2_0_9c2993380d" x="216.806563" y="280.405476" style="fill: #262626"/>
    </g>
    <g clip-path="url(#p3115806ecc)">
     <use xlink:href="#C2_0_9c2993380d" x="215.951543" y="280.818013" style="fill: #262626"/>
    </g>
    <g clip-path="url(#p3115806ecc)">
     <use xlink:href="#C2_0_9c2993380d" x="218.160472" y="277.162981" style="fill: #262626"/>
    </g>
    <g clip-path="url(#p3115806ecc)">
     <use xlink:href="#C2_0_9c2993380d" x="226.178433" y="287.845401" style="fill: #262626"/>
    </g>
    <g clip-path="url(#p3115806ecc)">
     <use xlink:href="#C2_0_9c2993380d" x="228.485281" y="281.722922" style="fill: #262626"/>
    </g>
    <g clip-path="url(#p3115806ecc)">
     <use xlink:href="#C2_0_9c2993380d" x="227.718325" y="273.941315" style="fill: #262626"/>
    </g>
    <g clip-path="url(#p3115806ecc)">
     <use xlink:href="#C2_0_9c2993380d" x="224.594432" y="284.401603" style="fill: #262626"/>
    </g>
    <g clip-path="url(#p3115806ecc)">
     <use xlink:href="#C2_0_9c2993380d" x="217.896846" y="283.895298" style="fill: #262626"/>
    </g>
    <g clip-path="url(#p3115806ecc)">
     <use xlink:href="#C2_0_9c2993380d" x="225.643728" y="277.134121" style="fill: #262626"/>
    </g>
    <g clip-path="url(#p3115806ecc)">
     <use xlink:href="#C2_0_9c2993380d" x="226.905322" y="283.015751" style="fill: #262626"/>
    </g>
   </g>
   <g id="PathCollection_6">
    <defs>
     <path id="C3_0_1799ef1d60" d="M 0 1 
C 0.265203 1 0.51958 0.894634 0.707107 0.707107 
C 0.894634 0.51958 1 0.265203 1 -0 
C 1 -0.265203 0.894634 -0.51958 0.707107 -0.707107 
C 0.51958 -0.894634 0.265203 -1 0 -1 
C -0.265203 -1 -0.51958 -0.894634 -0.707107 -0.707107 
C -0.894634 -0.51958 -1 -0.265203 -1 0 
C -1 0.265203 -0.894634 0.51958 -0.707107 0.707107 
C -0.51958 0.894634 -0.265203 1 0 1 
z
"/>
    </defs>
    <g clip-path="url(#p3115806ecc)">
     <use xlink:href="#C3_0_1799ef1d60" x="269.858819" y="254.798858"/>
    </g>
    <g clip-path="url(#p3115806ecc)">
     <use xlink:href="#C3_0_1799ef1d60" x="276.186565" y="272.330401"/>
    </g>
    <g clip-path="url(#p3115806ecc)">
     <use xlink:href="#C3_0_1799ef1d60" x="281.736186" y="216.309003"/>
    </g>
    <g clip-path="url(#p3115806ecc)">
     <use xlink:href="#C3_0_1799ef1d60" x="271.510213" y="275.896132"/>
    </g>
    <g clip-path="url(#p3115806ecc)">
     <use xlink:href="#C3_0_1799ef1d60" x="272.151799" y="287.417723"/>
    </g>
    <g clip-path="url(#p3115806ecc)">
     <use xlink:href="#C3_0_1799ef1d60" x="271.832964" y="268.854617"/>
    </g>
    <g clip-path="url(#p3115806ecc)">
     <use xlink:href="#C3_0_1799ef1d60" x="270.31705" y="258.315442"/>
    </g>
   </g>
   <g id="PathCollection_7">
    <defs>
     <path id="C4_0_ca1cc5a60c" d="M 0 1 
C 0.265203 1 0.51958 0.894634 0.707107 0.707107 
C 0.894634 0.51958 1 0.265203 1 -0 
C 1 -0.265203 0.894634 -0.51958 0.707107 -0.707107 
C 0.51958 -0.894634 0.265203 -1 0 -1 
C -0.265203 -1 -0.51958 -0.894634 -0.707107 -0.707107 
C -0.894634 -0.51958 -1 -0.265203 -1 0 
C -1 0.265203 -0.894634 0.51958 -0.707107 0.707107 
C -0.51958 0.894634 -0.265203 1 0 1 
z
"/>
    </defs>
    <g clip-path="url(#p3115806ecc)">
     <use xlink:href="#C4_0_ca1cc5a60c" x="352.163592" y="281.029995" style="fill: #262626"/>
    </g>
    <g clip-path="url(#p3115806ecc)">
     <use xlink:href="#C4_0_ca1cc5a60c" x="358.479813" y="285.580946" style="fill: #262626"/>
    </g>
    <g clip-path="url(#p3115806ecc)">
     <use xlink:href="#C4_0_ca1cc5a60c" x="358.053778" y="280.037796" style="fill: #262626"/>
    </g>
    <g clip-path="url(#p3115806ecc)">
     <use xlink:href="#C4_0_ca1cc5a60c" x="353.306511" y="289.928784" style="fill: #262626"/>
    </g>
    <g clip-path="url(#p3115806ecc)">
     <use xlink:href="#C4_0_ca1cc5a60c" x="349.89167" y="282.232386" style="fill: #262626"/>
    </g>
    <g clip-path="url(#p3115806ecc)">
     <use xlink:href="#C4_0_ca1cc5a60c" x="357.589932" y="272.485581" style="fill: #262626"/>
    </g>
    <g clip-path="url(#p3115806ecc)">
     <use xlink:href="#C4_0_ca1cc5a60c" x="356.306266" y="270.15725" style="fill: #262626"/>
    </g>
    <g clip-path="url(#p3115806ecc)">
     <use xlink:href="#C4_0_ca1cc5a60c" x="356.48141" y="286.088424" style="fill: #262626"/>
    </g>
    <g clip-path="url(#p3115806ecc)">
     <use xlink:href="#C4_0_ca1cc5a60c" x="358.43521" y="273.04106" style="fill: #262626"/>
    </g>
   </g>
   <g id="PathCollection_8">
    <defs>
     <path id="C5_0_4dabe00bd1" d="M 0 1 
C 0.265203 1 0.51958 0.894634 0.707107 0.707107 
C 0.894634 0.51958 1 0.265203 1 -0 
C 1 -0.265203 0.894634 -0.51958 0.707107 -0.707107 
C 0.51958 -0.894634 0.265203 -1 0 -1 
C -0.265203 -1 -0.51958 -0.894634 -0.707107 -0.707107 
C -0.894634 -0.51958 -1 -0.265203 -1 0 
C -1 0.265203 -0.894634 0.51958 -0.707107 0.707107 
C -0.51958 0.894634 -0.265203 1 0 1 
z
"/>
    </defs>
    <g clip-path="url(#p3115806ecc)">
     <use xlink:href="#C5_0_4dabe00bd1" x="413.331577" y="196.431478"/>
    </g>
    <g clip-path="url(#p3115806ecc)">
     <use xlink:href="#C5_0_4dabe00bd1" x="412.100153" y="196.465712"/>
    </g>
    <g clip-path="url(#p3115806ecc)">
     <use xlink:href="#C5_0_4dabe00bd1" x="406.750236" y="275.741844"/>
    </g>
    <g clip-path="url(#p3115806ecc)">
     <use xlink:href="#C5_0_4dabe00bd1" x="406.05116" y="268.339176"/>
    </g>
   </g>
   <g id="text_11">
    <!-- 26 -->
    <g style="fill: #262626" transform="translate(94.652667 118.17923)scale(0.1 -0.1)">
     <defs>
      <path id="DejaVuSans-36" d="M 2113 2584 
Q 1688 2584 1439 2293 
Q 1191 2003 1191 1497 
Q 1191 994 1439 701 
Q 1688 409 2113 409 
Q 2538 409 2786 701 
Q 3034 994 3034 1497 
Q 3034 2003 2786 2293 
Q 2538 2584 2113 2584 
z
M 3366 4563 
L 3366 3988 
Q 3128 4100 2886 4159 
Q 2644 4219 2406 4219 
Q 1781 4219 1451 3797 
Q 1122 3375 1075 2522 
Q 1259 2794 1537 2939 
Q 1816 3084 2150 3084 
Q 2853 3084 3261 2657 
Q 3669 2231 3669 1497 
Q 3669 778 3244 343 
Q 2819 -91 2113 -91 
Q 1303 -91 875 529 
Q 447 1150 447 2328 
Q 447 3434 972 4092 
Q 1497 4750 2381 4750 
Q 2619 4750 2861 4703 
Q 3103 4656 3366 4563 
z
" transform="scale(0.015625)"/>
     </defs>
     <use xlink:href="#DejaVuSans-32"/>
     <use xlink:href="#DejaVuSans-36" x="63.623047"/>
    </g>
   </g>
   <g id="text_12">
    <!-- p=0.00196399221573432 -->
    <g style="fill: #262626" transform="translate(41.680167 265.558029)scale(0.08 -0.08)">
     <defs>
      <path id="DejaVuSans-3d" d="M 678 2906 
L 4684 2906 
L 4684 2381 
L 678 2381 
L 678 2906 
z
M 678 1631 
L 4684 1631 
L 4684 1100 
L 678 1100 
L 678 1631 
z
" transform="scale(0.015625)"/>
      <path id="DejaVuSans-39" d="M 703 97 
L 703 672 
Q 941 559 1184 500 
Q 1428 441 1663 441 
Q 2288 441 2617 861 
Q 2947 1281 2994 2138 
Q 2813 1869 2534 1725 
Q 2256 1581 1919 1581 
Q 1219 1581 811 2004 
Q 403 2428 403 3163 
Q 403 3881 828 4315 
Q 1253 4750 1959 4750 
Q 2769 4750 3195 4129 
Q 3622 3509 3622 2328 
Q 3622 1225 3098 567 
Q 2575 -91 1691 -91 
Q 1453 -91 1209 -44 
Q 966 3 703 97 
z
M 1959 2075 
Q 2384 2075 2632 2365 
Q 2881 2656 2881 3163 
Q 2881 3666 2632 3958 
Q 2384 4250 1959 4250 
Q 1534 4250 1286 3958 
Q 1038 3666 1038 3163 
Q 1038 2656 1286 2365 
Q 1534 2075 1959 2075 
z
" transform="scale(0.015625)"/>
      <path id="DejaVuSans-33" d="M 2597 2516 
Q 3050 2419 3304 2112 
Q 3559 1806 3559 1356 
Q 3559 666 3084 287 
Q 2609 -91 1734 -91 
Q 1441 -91 1130 -33 
Q 819 25 488 141 
L 488 750 
Q 750 597 1062 519 
Q 1375 441 1716 441 
Q 2309 441 2620 675 
Q 2931 909 2931 1356 
Q 2931 1769 2642 2001 
Q 2353 2234 1838 2234 
L 1294 2234 
L 1294 2753 
L 1863 2753 
Q 2328 2753 2575 2939 
Q 2822 3125 2822 3475 
Q 2822 3834 2567 4026 
Q 2313 4219 1838 4219 
Q 1578 4219 1281 4162 
Q 984 4106 628 3988 
L 628 4550 
Q 988 4650 1302 4700 
Q 1616 4750 1894 4750 
Q 2613 4750 3031 4423 
Q 3450 4097 3450 3541 
Q 3450 3153 3228 2886 
Q 3006 2619 2597 2516 
z
" transform="scale(0.015625)"/>
      <path id="DejaVuSans-34" d="M 2419 4116 
L 825 1625 
L 2419 1625 
L 2419 4116 
z
M 2253 4666 
L 3047 4666 
L 3047 1625 
L 3713 1625 
L 3713 1100 
L 3047 1100 
L 3047 0 
L 2419 0 
L 2419 1100 
L 313 1100 
L 313 1709 
L 2253 4666 
z
" transform="scale(0.015625)"/>
     </defs>
     <use xlink:href="#DejaVuSans-70"/>
     <use xlink:href="#DejaVuSans-3d" x="63.476562"/>
     <use xlink:href="#DejaVuSans-30" x="147.265625"/>
     <use xlink:href="#DejaVuSans-2e" x="210.888672"/>
     <use xlink:href="#DejaVuSans-30" x="242.675781"/>
     <use xlink:href="#DejaVuSans-30" x="306.298828"/>
     <use xlink:href="#DejaVuSans-31" x="369.921875"/>
     <use xlink:href="#DejaVuSans-39" x="433.544922"/>
     <use xlink:href="#DejaVuSans-36" x="497.167969"/>
     <use xlink:href="#DejaVuSans-33" x="560.791016"/>
     <use xlink:href="#DejaVuSans-39" x="624.414062"/>
     <use xlink:href="#DejaVuSans-39" x="688.037109"/>
     <use xlink:href="#DejaVuSans-32" x="751.660156"/>
     <use xlink:href="#DejaVuSans-32" x="815.283203"/>
     <use xlink:href="#DejaVuSans-31" x="878.90625"/>
     <use xlink:href="#DejaVuSans-35" x="942.529297"/>
     <use xlink:href="#DejaVuSans-37" x="1006.152344"/>
     <use xlink:href="#DejaVuSans-33" x="1069.775391"/>
     <use xlink:href="#DejaVuSans-34" x="1133.398438"/>
     <use xlink:href="#DejaVuSans-33" x="1197.021484"/>
     <use xlink:href="#DejaVuSans-32" x="1260.644531"/>
    </g>
   </g>
   <g id="text_13">
    <!-- 12 -->
    <g style="fill: #262626" transform="translate(134.880667 118.17923)scale(0.1 -0.1)">
     <use xlink:href="#DejaVuSans-31"/>
     <use xlink:href="#DejaVuSans-32" x="63.623047"/>
    </g>
   </g>
   <g id="text_14">
    <!-- 17 -->
    <g style="fill: #262626" transform="translate(228.746 118.17923)scale(0.1 -0.1)">
     <use xlink:href="#DejaVuSans-31"/>
     <use xlink:href="#DejaVuSans-37" x="63.623047"/>
    </g>
   </g>
   <g id="text_15">
    <!-- p=0.0069416340750175325 -->
    <g style="fill: #262626" transform="translate(170.6835 266.430821)scale(0.08 -0.08)">
     <use xlink:href="#DejaVuSans-70"/>
     <use xlink:href="#DejaVuSans-3d" x="63.476562"/>
     <use xlink:href="#DejaVuSans-30" x="147.265625"/>
     <use xlink:href="#DejaVuSans-2e" x="210.888672"/>
     <use xlink:href="#DejaVuSans-30" x="242.675781"/>
     <use xlink:href="#DejaVuSans-30" x="306.298828"/>
     <use xlink:href="#DejaVuSans-36" x="369.921875"/>
     <use xlink:href="#DejaVuSans-39" x="433.544922"/>
     <use xlink:href="#DejaVuSans-34" x="497.167969"/>
     <use xlink:href="#DejaVuSans-31" x="560.791016"/>
     <use xlink:href="#DejaVuSans-36" x="624.414062"/>
     <use xlink:href="#DejaVuSans-33" x="688.037109"/>
     <use xlink:href="#DejaVuSans-34" x="751.660156"/>
     <use xlink:href="#DejaVuSans-30" x="815.283203"/>
     <use xlink:href="#DejaVuSans-37" x="878.90625"/>
     <use xlink:href="#DejaVuSans-35" x="942.529297"/>
     <use xlink:href="#DejaVuSans-30" x="1006.152344"/>
     <use xlink:href="#DejaVuSans-31" x="1069.775391"/>
     <use xlink:href="#DejaVuSans-37" x="1133.398438"/>
     <use xlink:href="#DejaVuSans-35" x="1197.021484"/>
     <use xlink:href="#DejaVuSans-33" x="1260.644531"/>
     <use xlink:href="#DejaVuSans-32" x="1324.267578"/>
     <use xlink:href="#DejaVuSans-35" x="1387.890625"/>
    </g>
   </g>
   <g id="text_16">
    <!-- 7 -->
    <g style="fill: #262626" transform="translate(268.974 118.17923)scale(0.1 -0.1)">
     <use xlink:href="#DejaVuSans-37"/>
    </g>
   </g>
   <g id="text_17">
    <!-- 9 -->
    <g style="fill: #262626" transform="translate(362.839333 118.17923)scale(0.1 -0.1)">
     <use xlink:href="#DejaVuSans-39"/>
    </g>
   </g>
   <g id="text_18">
    <!-- p=0.007963214626718429 -->
    <g style="fill: #262626" transform="translate(307.321833 264.537227)scale(0.08 -0.08)">
     <defs>
      <path id="DejaVuSans-38" d="M 2034 2216 
Q 1584 2216 1326 1975 
Q 1069 1734 1069 1313 
Q 1069 891 1326 650 
Q 1584 409 2034 409 
Q 2484 409 2743 651 
Q 3003 894 3003 1313 
Q 3003 1734 2745 1975 
Q 2488 2216 2034 2216 
z
M 1403 2484 
Q 997 2584 770 2862 
Q 544 3141 544 3541 
Q 544 4100 942 4425 
Q 1341 4750 2034 4750 
Q 2731 4750 3128 4425 
Q 3525 4100 3525 3541 
Q 3525 3141 3298 2862 
Q 3072 2584 2669 2484 
Q 3125 2378 3379 2068 
Q 3634 1759 3634 1313 
Q 3634 634 3220 271 
Q 2806 -91 2034 -91 
Q 1263 -91 848 271 
Q 434 634 434 1313 
Q 434 1759 690 2068 
Q 947 2378 1403 2484 
z
M 1172 3481 
Q 1172 3119 1398 2916 
Q 1625 2713 2034 2713 
Q 2441 2713 2670 2916 
Q 2900 3119 2900 3481 
Q 2900 3844 2670 4047 
Q 2441 4250 2034 4250 
Q 1625 4250 1398 4047 
Q 1172 3844 1172 3481 
z
" transform="scale(0.015625)"/>
     </defs>
     <use xlink:href="#DejaVuSans-70"/>
     <use xlink:href="#DejaVuSans-3d" x="63.476562"/>
     <use xlink:href="#DejaVuSans-30" x="147.265625"/>
     <use xlink:href="#DejaVuSans-2e" x="210.888672"/>
     <use xlink:href="#DejaVuSans-30" x="242.675781"/>
     <use xlink:href="#DejaVuSans-30" x="306.298828"/>
     <use xlink:href="#DejaVuSans-37" x="369.921875"/>
     <use xlink:href="#DejaVuSans-39" x="433.544922"/>
     <use xlink:href="#DejaVuSans-36" x="497.167969"/>
     <use xlink:href="#DejaVuSans-33" x="560.791016"/>
     <use xlink:href="#DejaVuSans-32" x="624.414062"/>
     <use xlink:href="#DejaVuSans-31" x="688.037109"/>
     <use xlink:href="#DejaVuSans-34" x="751.660156"/>
     <use xlink:href="#DejaVuSans-36" x="815.283203"/>
     <use xlink:href="#DejaVuSans-32" x="878.90625"/>
     <use xlink:href="#DejaVuSans-36" x="942.529297"/>
     <use xlink:href="#DejaVuSans-37" x="1006.152344"/>
     <use xlink:href="#DejaVuSans-31" x="1069.775391"/>
     <use xlink:href="#DejaVuSans-38" x="1133.398438"/>
     <use xlink:href="#DejaVuSans-34" x="1197.021484"/>
     <use xlink:href="#DejaVuSans-32" x="1260.644531"/>
     <use xlink:href="#DejaVuSans-39" x="1324.267578"/>
    </g>
   </g>
   <g id="text_19">
    <!-- 4 -->
    <g style="fill: #262626" transform="translate(403.067333 118.17923)scale(0.1 -0.1)">
     <use xlink:href="#DejaVuSans-34"/>
    </g>
   </g>
   <g id="legend_1">
    <g id="patch_15">
     <path d="M 56.72 202.309063 
L 76.72 202.309063 
L 76.72 195.309063 
L 56.72 195.309063 
z
" style="fill: #ecf2ec; stroke: #262626; stroke-width: 0.75; stroke-linejoin: miter"/>
    </g>
    <g id="text_20">
     <!-- Mutant -->
     <g style="fill: #262626" transform="translate(84.72 202.309063)scale(0.1 -0.1)">
      <defs>
       <path id="DejaVuSans-4d" d="M 628 4666 
L 1569 4666 
L 2759 1491 
L 3956 4666 
L 4897 4666 
L 4897 0 
L 4281 0 
L 4281 4097 
L 3078 897 
L 2444 897 
L 1241 4097 
L 1241 0 
L 628 0 
L 628 4666 
z
" transform="scale(0.015625)"/>
       <path id="DejaVuSans-61" d="M 2194 1759 
Q 1497 1759 1228 1600 
Q 959 1441 959 1056 
Q 959 750 1161 570 
Q 1363 391 1709 391 
Q 2188 391 2477 730 
Q 2766 1069 2766 1631 
L 2766 1759 
L 2194 1759 
z
M 3341 1997 
L 3341 0 
L 2766 0 
L 2766 531 
Q 2569 213 2275 61 
Q 1981 -91 1556 -91 
Q 1019 -91 701 211 
Q 384 513 384 1019 
Q 384 1609 779 1909 
Q 1175 2209 1959 2209 
L 2766 2209 
L 2766 2266 
Q 2766 2663 2505 2880 
Q 2244 3097 1772 3097 
Q 1472 3097 1187 3025 
Q 903 2953 641 2809 
L 641 3341 
Q 956 3463 1253 3523 
Q 1550 3584 1831 3584 
Q 2591 3584 2966 3190 
Q 3341 2797 3341 1997 
z
" transform="scale(0.015625)"/>
      </defs>
      <use xlink:href="#DejaVuSans-4d"/>
      <use xlink:href="#DejaVuSans-75" x="86.279297"/>
      <use xlink:href="#DejaVuSans-74" x="149.658203"/>
      <use xlink:href="#DejaVuSans-61" x="188.867188"/>
      <use xlink:href="#DejaVuSans-6e" x="250.146484"/>
      <use xlink:href="#DejaVuSans-74" x="313.525391"/>
     </g>
    </g>
    <g id="patch_16">
     <path d="M 56.72 216.987188 
L 76.72 216.987188 
L 76.72 209.987188 
L 56.72 209.987188 
z
" style="fill: #107010; stroke: #262626; stroke-width: 0.75; stroke-linejoin: miter"/>
    </g>
    <g id="text_21">
     <!-- WT -->
     <g style="fill: #262626" transform="translate(84.72 216.987188)scale(0.1 -0.1)">
      <defs>
       <path id="DejaVuSans-57" d="M 213 4666 
L 850 4666 
L 1831 722 
L 2809 4666 
L 3519 4666 
L 4500 722 
L 5478 4666 
L 6119 4666 
L 4947 0 
L 4153 0 
L 3169 4050 
L 2175 0 
L 1381 0 
L 213 4666 
z
" transform="scale(0.015625)"/>
       <path id="DejaVuSans-54" d="M -19 4666 
L 3928 4666 
L 3928 4134 
L 2272 4134 
L 2272 0 
L 1638 0 
L 1638 4134 
L -19 4134 
L -19 4666 
z
" transform="scale(0.015625)"/>
      </defs>
      <use xlink:href="#DejaVuSans-57"/>
      <use xlink:href="#DejaVuSans-54" x="98.876953"/>
     </g>
    </g>
   </g>
  </g>
 </g>
 <defs>
  <clipPath id="p3115806ecc">
   <rect x="47.72" y="185.710626" width="402.28" height="117.929374"/>
  </clipPath>
 </defs>
</svg>
