<?xml version="1.0" encoding="utf-8" standalone="no"?>
<!DOCTYPE svg PUBLIC "-//W3C//DTD SVG 1.1//EN"
  "http://www.w3.org/Graphics/SVG/1.1/DTD/svg11.dtd">
<svg xmlns:xlink="http://www.w3.org/1999/xlink" width="460.8pt" height="345.6pt" viewBox="0 0 460.8 345.6" xmlns="http://www.w3.org/2000/svg" version="1.1">
 <metadata>
  <rdf:RDF xmlns:dc="http://purl.org/dc/elements/1.1/" xmlns:cc="http://creativecommons.org/ns#" xmlns:rdf="http://www.w3.org/1999/02/22-rdf-syntax-ns#">
   <cc:Work>
    <dc:type rdf:resource="http://purl.org/dc/dcmitype/StillImage"/>
    <dc:date>2024-02-20T13:11:58.768731</dc:date>
    <dc:format>image/svg+xml</dc:format>
    <dc:creator>
     <cc:Agent>
      <dc:title>Matplotlib v3.7.1, https://matplotlib.org/</dc:title>
     </cc:Agent>
    </dc:creator>
   </cc:Work>
  </rdf:RDF>
 </metadata>
 <defs>
  <style type="text/css">*{stroke-linejoin: round; stroke-linecap: butt}</style>
 </defs>
 <g id="figure_1">
  <g id="patch_1">
   <path d="M 0 345.6 
L 460.8 345.6 
L 460.8 0 
L 0 0 
z
" style="fill: #ffffff"/>
  </g>
  <g id="axes_1">
   <g id="patch_2">
    <path d="M 47.72 303.64 
L 450 303.64 
L 450 278.099614 
L 47.72 278.099614 
z
" style="fill: #ffffff"/>
   </g>
   <g id="matplotlib.axis_1">
    <g id="xtick_1">
     <g id="text_1">
      <!-- I -->
      <g style="fill: #262626" transform="translate(247.385 318.238437) scale(0.1 -0.1)">
       <defs>
        <path id="DejaVuSans-49" d="M 628 4666 
L 1259 4666 
L 1259 0 
L 628 0 
L 628 4666 
z
" transform="scale(0.015625)"/>
       </defs>
       <use xlink:href="#DejaVuSans-49"/>
      </g>
     </g>
    </g>
    <g id="text_2">
     <!-- mut_AA -->
     <g style="fill: #262626" transform="translate(229.382656 331.638437) scale(0.1 -0.1)">
      <defs>
       <path id="DejaVuSans-6d" d="M 3328 2828 
Q 3544 3216 3844 3400 
Q 4144 3584 4550 3584 
Q 5097 3584 5394 3201 
Q 5691 2819 5691 2113 
L 5691 0 
L 5113 0 
L 5113 2094 
Q 5113 2597 4934 2840 
Q 4756 3084 4391 3084 
Q 3944 3084 3684 2787 
Q 3425 2491 3425 1978 
L 3425 0 
L 2847 0 
L 2847 2094 
Q 2847 2600 2669 2842 
Q 2491 3084 2119 3084 
Q 1678 3084 1418 2786 
Q 1159 2488 1159 1978 
L 1159 0 
L 581 0 
L 581 3500 
L 1159 3500 
L 1159 2956 
Q 1356 3278 1631 3431 
Q 1906 3584 2284 3584 
Q 2666 3584 2933 3390 
Q 3200 3197 3328 2828 
z
" transform="scale(0.015625)"/>
       <path id="DejaVuSans-75" d="M 544 1381 
L 544 3500 
L 1119 3500 
L 1119 1403 
Q 1119 906 1312 657 
Q 1506 409 1894 409 
Q 2359 409 2629 706 
Q 2900 1003 2900 1516 
L 2900 3500 
L 3475 3500 
L 3475 0 
L 2900 0 
L 2900 538 
Q 2691 219 2414 64 
Q 2138 -91 1772 -91 
Q 1169 -91 856 284 
Q 544 659 544 1381 
z
M 1991 3584 
L 1991 3584 
z
" transform="scale(0.015625)"/>
       <path id="DejaVuSans-74" d="M 1172 4494 
L 1172 3500 
L 2356 3500 
L 2356 3053 
L 1172 3053 
L 1172 1153 
Q 1172 725 1289 603 
Q 1406 481 1766 481 
L 2356 481 
L 2356 0 
L 1766 0 
Q 1100 0 847 248 
Q 594 497 594 1153 
L 594 3053 
L 172 3053 
L 172 3500 
L 594 3500 
L 594 4494 
L 1172 4494 
z
" transform="scale(0.015625)"/>
       <path id="DejaVuSans-5f" d="M 3263 -1063 
L 3263 -1509 
L -63 -1509 
L -63 -1063 
L 3263 -1063 
z
" transform="scale(0.015625)"/>
       <path id="DejaVuSans-41" d="M 2188 4044 
L 1331 1722 
L 3047 1722 
L 2188 4044 
z
M 1831 4666 
L 2547 4666 
L 4325 0 
L 3669 0 
L 3244 1197 
L 1141 1197 
L 716 0 
L 50 0 
L 1831 4666 
z
" transform="scale(0.015625)"/>
      </defs>
      <use xlink:href="#DejaVuSans-6d"/>
      <use xlink:href="#DejaVuSans-75" x="97.412109"/>
      <use xlink:href="#DejaVuSans-74" x="160.791016"/>
      <use xlink:href="#DejaVuSans-5f" x="200"/>
      <use xlink:href="#DejaVuSans-41" x="250"/>
      <use xlink:href="#DejaVuSans-41" x="321.158203"/>
     </g>
    </g>
   </g>
   <g id="matplotlib.axis_2">
    <g id="ytick_1">
     <g id="line2d_1">
      <path d="M 47.72 303.64 
L 450 303.64 
" clip-path="url(#p7de7c35ed6)" style="fill: none; stroke: #cccccc; stroke-width: 0.8; stroke-linecap: round"/>
     </g>
     <g id="text_3">
      <!-- 0.0 -->
      <g style="fill: #262626" transform="translate(24.816875 307.439219) scale(0.1 -0.1)">
       <defs>
        <path id="DejaVuSans-30" d="M 2034 4250 
Q 1547 4250 1301 3770 
Q 1056 3291 1056 2328 
Q 1056 1369 1301 889 
Q 1547 409 2034 409 
Q 2525 409 2770 889 
Q 3016 1369 3016 2328 
Q 3016 3291 2770 3770 
Q 2525 4250 2034 4250 
z
M 2034 4750 
Q 2819 4750 3233 4129 
Q 3647 3509 3647 2328 
Q 3647 1150 3233 529 
Q 2819 -91 2034 -91 
Q 1250 -91 836 529 
Q 422 1150 422 2328 
Q 422 3509 836 4129 
Q 1250 4750 2034 4750 
z
" transform="scale(0.015625)"/>
        <path id="DejaVuSans-2e" d="M 684 794 
L 1344 794 
L 1344 0 
L 684 0 
L 684 794 
z
" transform="scale(0.015625)"/>
       </defs>
       <use xlink:href="#DejaVuSans-30"/>
       <use xlink:href="#DejaVuSans-2e" x="63.623047"/>
       <use xlink:href="#DejaVuSans-30" x="95.410156"/>
      </g>
     </g>
    </g>
    <g id="ytick_2">
     <g id="line2d_2">
      <path d="M 47.72 289.002254 
L 450 289.002254 
" clip-path="url(#p7de7c35ed6)" style="fill: none; stroke: #cccccc; stroke-width: 0.8; stroke-linecap: round"/>
     </g>
     <g id="text_4">
      <!-- 0.5 -->
      <g style="fill: #262626" transform="translate(24.816875 292.801473) scale(0.1 -0.1)">
       <defs>
        <path id="DejaVuSans-35" d="M 691 4666 
L 3169 4666 
L 3169 4134 
L 1269 4134 
L 1269 2991 
Q 1406 3038 1543 3061 
Q 1681 3084 1819 3084 
Q 2600 3084 3056 2656 
Q 3513 2228 3513 1497 
Q 3513 744 3044 326 
Q 2575 -91 1722 -91 
Q 1428 -91 1123 -41 
Q 819 9 494 109 
L 494 744 
Q 775 591 1075 516 
Q 1375 441 1709 441 
Q 2250 441 2565 725 
Q 2881 1009 2881 1497 
Q 2881 1984 2565 2268 
Q 2250 2553 1709 2553 
Q 1456 2553 1204 2497 
Q 953 2441 691 2322 
L 691 4666 
z
" transform="scale(0.015625)"/>
       </defs>
       <use xlink:href="#DejaVuSans-30"/>
       <use xlink:href="#DejaVuSans-2e" x="63.623047"/>
       <use xlink:href="#DejaVuSans-35" x="95.410156"/>
      </g>
     </g>
    </g>
    <g id="text_5">
     <!-- PercentGpA -->
     <g style="fill: #262626" transform="translate(18.737188 320.14637) rotate(-90) scale(0.1 -0.1)">
      <defs>
       <path id="DejaVuSans-50" d="M 1259 4147 
L 1259 2394 
L 2053 2394 
Q 2494 2394 2734 2622 
Q 2975 2850 2975 3272 
Q 2975 3691 2734 3919 
Q 2494 4147 2053 4147 
L 1259 4147 
z
M 628 4666 
L 2053 4666 
Q 2838 4666 3239 4311 
Q 3641 3956 3641 3272 
Q 3641 2581 3239 2228 
Q 2838 1875 2053 1875 
L 1259 1875 
L 1259 0 
L 628 0 
L 628 4666 
z
" transform="scale(0.015625)"/>
       <path id="DejaVuSans-65" d="M 3597 1894 
L 3597 1613 
L 953 1613 
Q 991 1019 1311 708 
Q 1631 397 2203 397 
Q 2534 397 2845 478 
Q 3156 559 3463 722 
L 3463 178 
Q 3153 47 2828 -22 
Q 2503 -91 2169 -91 
Q 1331 -91 842 396 
Q 353 884 353 1716 
Q 353 2575 817 3079 
Q 1281 3584 2069 3584 
Q 2775 3584 3186 3129 
Q 3597 2675 3597 1894 
z
M 3022 2063 
Q 3016 2534 2758 2815 
Q 2500 3097 2075 3097 
Q 1594 3097 1305 2825 
Q 1016 2553 972 2059 
L 3022 2063 
z
" transform="scale(0.015625)"/>
       <path id="DejaVuSans-72" d="M 2631 2963 
Q 2534 3019 2420 3045 
Q 2306 3072 2169 3072 
Q 1681 3072 1420 2755 
Q 1159 2438 1159 1844 
L 1159 0 
L 581 0 
L 581 3500 
L 1159 3500 
L 1159 2956 
Q 1341 3275 1631 3429 
Q 1922 3584 2338 3584 
Q 2397 3584 2469 3576 
Q 2541 3569 2628 3553 
L 2631 2963 
z
" transform="scale(0.015625)"/>
       <path id="DejaVuSans-63" d="M 3122 3366 
L 3122 2828 
Q 2878 2963 2633 3030 
Q 2388 3097 2138 3097 
Q 1578 3097 1268 2742 
Q 959 2388 959 1747 
Q 959 1106 1268 751 
Q 1578 397 2138 397 
Q 2388 397 2633 464 
Q 2878 531 3122 666 
L 3122 134 
Q 2881 22 2623 -34 
Q 2366 -91 2075 -91 
Q 1284 -91 818 406 
Q 353 903 353 1747 
Q 353 2603 823 3093 
Q 1294 3584 2113 3584 
Q 2378 3584 2631 3529 
Q 2884 3475 3122 3366 
z
" transform="scale(0.015625)"/>
       <path id="DejaVuSans-6e" d="M 3513 2113 
L 3513 0 
L 2938 0 
L 2938 2094 
Q 2938 2591 2744 2837 
Q 2550 3084 2163 3084 
Q 1697 3084 1428 2787 
Q 1159 2491 1159 1978 
L 1159 0 
L 581 0 
L 581 3500 
L 1159 3500 
L 1159 2956 
Q 1366 3272 1645 3428 
Q 1925 3584 2291 3584 
Q 2894 3584 3203 3211 
Q 3513 2838 3513 2113 
z
" transform="scale(0.015625)"/>
       <path id="DejaVuSans-47" d="M 3809 666 
L 3809 1919 
L 2778 1919 
L 2778 2438 
L 4434 2438 
L 4434 434 
Q 4069 175 3628 42 
Q 3188 -91 2688 -91 
Q 1594 -91 976 548 
Q 359 1188 359 2328 
Q 359 3472 976 4111 
Q 1594 4750 2688 4750 
Q 3144 4750 3555 4637 
Q 3966 4525 4313 4306 
L 4313 3634 
Q 3963 3931 3569 4081 
Q 3175 4231 2741 4231 
Q 1884 4231 1454 3753 
Q 1025 3275 1025 2328 
Q 1025 1384 1454 906 
Q 1884 428 2741 428 
Q 3075 428 3337 486 
Q 3600 544 3809 666 
z
" transform="scale(0.015625)"/>
       <path id="DejaVuSans-70" d="M 1159 525 
L 1159 -1331 
L 581 -1331 
L 581 3500 
L 1159 3500 
L 1159 2969 
Q 1341 3281 1617 3432 
Q 1894 3584 2278 3584 
Q 2916 3584 3314 3078 
Q 3713 2572 3713 1747 
Q 3713 922 3314 415 
Q 2916 -91 2278 -91 
Q 1894 -91 1617 61 
Q 1341 213 1159 525 
z
M 3116 1747 
Q 3116 2381 2855 2742 
Q 2594 3103 2138 3103 
Q 1681 3103 1420 2742 
Q 1159 2381 1159 1747 
Q 1159 1113 1420 752 
Q 1681 391 2138 391 
Q 2594 391 2855 752 
Q 3116 1113 3116 1747 
z
" transform="scale(0.015625)"/>
      </defs>
      <use xlink:href="#DejaVuSans-50"/>
      <use xlink:href="#DejaVuSans-65" x="56.677734"/>
      <use xlink:href="#DejaVuSans-72" x="118.201172"/>
      <use xlink:href="#DejaVuSans-63" x="157.064453"/>
      <use xlink:href="#DejaVuSans-65" x="212.044922"/>
      <use xlink:href="#DejaVuSans-6e" x="273.568359"/>
      <use xlink:href="#DejaVuSans-74" x="336.947266"/>
      <use xlink:href="#DejaVuSans-47" x="376.15625"/>
      <use xlink:href="#DejaVuSans-70" x="453.646484"/>
      <use xlink:href="#DejaVuSans-41" x="517.123047"/>
     </g>
    </g>
   </g>
   <g id="patch_3">
    <path d="M 89.55712 296.955798 
L 247.25088 296.955798 
L 247.25088 291.044353 
L 89.55712 291.044353 
L 89.55712 296.955798 
z
" clip-path="url(#p7de7c35ed6)" style="fill: #ecf2ec; stroke: #262626; stroke-width: 1.5; stroke-linejoin: miter"/>
   </g>
   <g id="patch_4">
    <path d="M 250.46912 294.294822 
L 408.16288 294.294822 
L 408.16288 286.464008 
L 250.46912 286.464008 
L 250.46912 294.294822 
z
" clip-path="url(#p7de7c35ed6)" style="fill: #107010; stroke: #262626; stroke-width: 1.5; stroke-linejoin: miter"/>
   </g>
   <g id="patch_5">
    <path d="M 248.86 303.64 
L 248.86 303.64 
L 248.86 303.64 
L 248.86 303.64 
z
" clip-path="url(#p7de7c35ed6)" style="fill: #ecf2ec; stroke: #262626; stroke-width: 0.75; stroke-linejoin: miter"/>
   </g>
   <g id="patch_6">
    <path d="M 248.86 303.64 
L 248.86 303.64 
L 248.86 303.64 
L 248.86 303.64 
z
" clip-path="url(#p7de7c35ed6)" style="fill: #107010; stroke: #262626; stroke-width: 0.75; stroke-linejoin: miter"/>
   </g>
   <g id="PathCollection_1"/>
   <g id="PathCollection_2"/>
   <g id="line2d_3">
    <path d="M 168.404 296.955798 
L 168.404 300.638717 
" clip-path="url(#p7de7c35ed6)" style="fill: none; stroke: #262626; stroke-width: 1.5; stroke-linecap: round"/>
   </g>
   <g id="line2d_4">
    <path d="M 168.404 291.044353 
L 168.404 282.973085 
" clip-path="url(#p7de7c35ed6)" style="fill: none; stroke: #262626; stroke-width: 1.5; stroke-linecap: round"/>
   </g>
   <g id="line2d_5">
    <path d="M 128.98056 300.638717 
L 207.82744 300.638717 
" clip-path="url(#p7de7c35ed6)" style="fill: none; stroke: #262626; stroke-width: 1.5; stroke-linecap: round"/>
   </g>
   <g id="line2d_6">
    <path d="M 128.98056 282.973085 
L 207.82744 282.973085 
" clip-path="url(#p7de7c35ed6)" style="fill: none; stroke: #262626; stroke-width: 1.5; stroke-linecap: round"/>
   </g>
   <g id="line2d_7"/>
   <g id="line2d_8">
    <path d="M 329.316 294.294822 
L 329.316 298.848968 
" clip-path="url(#p7de7c35ed6)" style="fill: none; stroke: #262626; stroke-width: 1.5; stroke-linecap: round"/>
   </g>
   <g id="line2d_9">
    <path d="M 329.316 286.464008 
L 329.316 280.421468 
" clip-path="url(#p7de7c35ed6)" style="fill: none; stroke: #262626; stroke-width: 1.5; stroke-linecap: round"/>
   </g>
   <g id="line2d_10">
    <path d="M 289.89256 298.848968 
L 368.73944 298.848968 
" clip-path="url(#p7de7c35ed6)" style="fill: none; stroke: #262626; stroke-width: 1.5; stroke-linecap: round"/>
   </g>
   <g id="line2d_11">
    <path d="M 289.89256 280.421468 
L 368.73944 280.421468 
" clip-path="url(#p7de7c35ed6)" style="fill: none; stroke: #262626; stroke-width: 1.5; stroke-linecap: round"/>
   </g>
   <g id="line2d_12"/>
   <g id="line2d_13">
    <path d="M 89.55712 294.595733 
L 247.25088 294.595733 
" clip-path="url(#p7de7c35ed6)" style="fill: none; stroke: #262626; stroke-width: 1.5; stroke-linecap: round"/>
   </g>
   <g id="line2d_14">
    <path d="M 250.46912 291.258873 
L 408.16288 291.258873 
" clip-path="url(#p7de7c35ed6)" style="fill: none; stroke: #262626; stroke-width: 1.5; stroke-linecap: round"/>
   </g>
   <g id="patch_7">
    <path d="M 47.72 303.64 
L 47.72 278.099614 
" style="fill: none; stroke: #cccccc; stroke-width: 0.8; stroke-linejoin: miter; stroke-linecap: square"/>
   </g>
   <g id="patch_8">
    <path d="M 450 303.64 
L 450 278.099614 
" style="fill: none; stroke: #cccccc; stroke-width: 0.8; stroke-linejoin: miter; stroke-linecap: square"/>
   </g>
   <g id="patch_9">
    <path d="M 47.72 303.64 
L 450 303.64 
" style="fill: none; stroke: #cccccc; stroke-width: 0.8; stroke-linejoin: miter; stroke-linecap: square"/>
   </g>
   <g id="patch_10">
    <path d="M 47.72 278.099614 
L 450 278.099614 
" style="fill: none; stroke: #cccccc; stroke-width: 0.8; stroke-linejoin: miter; stroke-linecap: square"/>
   </g>
   <g id="PathCollection_3">
    <defs>
     <path id="C0_0_27685d7944" d="M 0 1 
C 0.265203 1 0.51958 0.894634 0.707107 0.707107 
C 0.894634 0.51958 1 0.265203 1 -0 
C 1 -0.265203 0.894634 -0.51958 0.707107 -0.707107 
C 0.51958 -0.894634 0.265203 -1 0 -1 
C -0.265203 -1 -0.51958 -0.894634 -0.707107 -0.707107 
C -0.894634 -0.51958 -1 -0.265203 -1 0 
C -1 0.265203 -0.894634 0.51958 -0.707107 0.707107 
C -0.51958 0.894634 -0.265203 1 0 1 
z
"/>
    </defs>
    <g clip-path="url(#p7de7c35ed6)">
     <use xlink:href="#C0_0_27685d7944" x="162.092575" y="299.815371" style="fill: #262626"/>
    </g>
    <g clip-path="url(#p7de7c35ed6)">
     <use xlink:href="#C0_0_27685d7944" x="174.949409" y="287.454495" style="fill: #262626"/>
    </g>
    <g clip-path="url(#p7de7c35ed6)">
     <use xlink:href="#C0_0_27685d7944" x="181.089773" y="293.839674" style="fill: #262626"/>
    </g>
    <g clip-path="url(#p7de7c35ed6)">
     <use xlink:href="#C0_0_27685d7944" x="151.591977" y="299.962761" style="fill: #262626"/>
    </g>
    <g clip-path="url(#p7de7c35ed6)">
     <use xlink:href="#C0_0_27685d7944" x="184.947021" y="291.532027" style="fill: #262626"/>
    </g>
    <g clip-path="url(#p7de7c35ed6)">
     <use xlink:href="#C0_0_27685d7944" x="175.129439" y="283.597515" style="fill: #262626"/>
    </g>
    <g clip-path="url(#p7de7c35ed6)">
     <use xlink:href="#C0_0_27685d7944" x="186.032241" y="294.534546" style="fill: #262626"/>
    </g>
    <g clip-path="url(#p7de7c35ed6)">
     <use xlink:href="#C0_0_27685d7944" x="179.751788" y="285.947125" style="fill: #262626"/>
    </g>
    <g clip-path="url(#p7de7c35ed6)">
     <use xlink:href="#C0_0_27685d7944" x="156.099716" y="289.491954" style="fill: #262626"/>
    </g>
    <g clip-path="url(#p7de7c35ed6)">
     <use xlink:href="#C0_0_27685d7944" x="178.325285" y="298.131903" style="fill: #262626"/>
    </g>
    <g clip-path="url(#p7de7c35ed6)">
     <use xlink:href="#C0_0_27685d7944" x="163.688979" y="292.006811" style="fill: #262626"/>
    </g>
    <g clip-path="url(#p7de7c35ed6)">
     <use xlink:href="#C0_0_27685d7944" x="164.955968" y="289.641821" style="fill: #262626"/>
    </g>
    <g clip-path="url(#p7de7c35ed6)">
     <use xlink:href="#C0_0_27685d7944" x="170.127975" y="299.545354" style="fill: #262626"/>
    </g>
    <g clip-path="url(#p7de7c35ed6)">
     <use xlink:href="#C0_0_27685d7944" x="171.419005" y="297.99106" style="fill: #262626"/>
    </g>
    <g clip-path="url(#p7de7c35ed6)">
     <use xlink:href="#C0_0_27685d7944" x="155.923515" y="295.823677" style="fill: #262626"/>
    </g>
    <g clip-path="url(#p7de7c35ed6)">
     <use xlink:href="#C0_0_27685d7944" x="152.986157" y="293.928255" style="fill: #262626"/>
    </g>
    <g clip-path="url(#p7de7c35ed6)">
     <use xlink:href="#C0_0_27685d7944" x="183.381297" y="298.051211" style="fill: #262626"/>
    </g>
    <g clip-path="url(#p7de7c35ed6)">
     <use xlink:href="#C0_0_27685d7944" x="155.484888" y="296.902894" style="fill: #262626"/>
    </g>
    <g clip-path="url(#p7de7c35ed6)">
     <use xlink:href="#C0_0_27685d7944" x="173.219015" y="289.248362" style="fill: #262626"/>
    </g>
    <g clip-path="url(#p7de7c35ed6)">
     <use xlink:href="#C0_0_27685d7944" x="157.117291" y="290.55668" style="fill: #262626"/>
    </g>
    <g clip-path="url(#p7de7c35ed6)">
     <use xlink:href="#C0_0_27685d7944" x="155.519221" y="295.790036" style="fill: #262626"/>
    </g>
    <g clip-path="url(#p7de7c35ed6)">
     <use xlink:href="#C0_0_27685d7944" x="168.910844" y="286.264345" style="fill: #262626"/>
    </g>
    <g clip-path="url(#p7de7c35ed6)">
     <use xlink:href="#C0_0_27685d7944" x="173.656379" y="293.031788" style="fill: #262626"/>
    </g>
    <g clip-path="url(#p7de7c35ed6)">
     <use xlink:href="#C0_0_27685d7944" x="150.741359" y="297.003793" style="fill: #262626"/>
    </g>
    <g clip-path="url(#p7de7c35ed6)">
     <use xlink:href="#C0_0_27685d7944" x="155.567182" y="295.779139" style="fill: #262626"/>
    </g>
    <g clip-path="url(#p7de7c35ed6)">
     <use xlink:href="#C0_0_27685d7944" x="187.475659" y="295.502399" style="fill: #262626"/>
    </g>
    <g clip-path="url(#p7de7c35ed6)">
     <use xlink:href="#C0_0_27685d7944" x="148.462757" y="295.42916" style="fill: #262626"/>
    </g>
    <g clip-path="url(#p7de7c35ed6)">
     <use xlink:href="#C0_0_27685d7944" x="168.607966" y="294.838543" style="fill: #262626"/>
    </g>
    <g clip-path="url(#p7de7c35ed6)">
     <use xlink:href="#C0_0_27685d7944" x="158.530986" y="288.630026" style="fill: #262626"/>
    </g>
    <g clip-path="url(#p7de7c35ed6)">
     <use xlink:href="#C0_0_27685d7944" x="159.442935" y="288.971209" style="fill: #262626"/>
    </g>
    <g clip-path="url(#p7de7c35ed6)">
     <use xlink:href="#C0_0_27685d7944" x="178.93084" y="294.765958" style="fill: #262626"/>
    </g>
    <g clip-path="url(#p7de7c35ed6)">
     <use xlink:href="#C0_0_27685d7944" x="186.936676" y="284.09616" style="fill: #262626"/>
    </g>
    <g clip-path="url(#p7de7c35ed6)">
     <use xlink:href="#C0_0_27685d7944" x="187.992174" y="294.794193" style="fill: #262626"/>
    </g>
    <g clip-path="url(#p7de7c35ed6)">
     <use xlink:href="#C0_0_27685d7944" x="159.510491" y="284.325015" style="fill: #262626"/>
    </g>
    <g clip-path="url(#p7de7c35ed6)">
     <use xlink:href="#C0_0_27685d7944" x="151.624069" y="292.26942" style="fill: #262626"/>
    </g>
    <g clip-path="url(#p7de7c35ed6)">
     <use xlink:href="#C0_0_27685d7944" x="152.685675" y="294.55244" style="fill: #262626"/>
    </g>
    <g clip-path="url(#p7de7c35ed6)">
     <use xlink:href="#C0_0_27685d7944" x="163.600173" y="282.973085" style="fill: #262626"/>
    </g>
    <g clip-path="url(#p7de7c35ed6)">
     <use xlink:href="#C0_0_27685d7944" x="175.111752" y="292.262731" style="fill: #262626"/>
    </g>
    <g clip-path="url(#p7de7c35ed6)">
     <use xlink:href="#C0_0_27685d7944" x="175.196055" y="292.394083" style="fill: #262626"/>
    </g>
    <g clip-path="url(#p7de7c35ed6)">
     <use xlink:href="#C0_0_27685d7944" x="151.012044" y="293.962172" style="fill: #262626"/>
    </g>
    <g clip-path="url(#p7de7c35ed6)">
     <use xlink:href="#C0_0_27685d7944" x="148.655448" y="292.919485" style="fill: #262626"/>
    </g>
    <g clip-path="url(#p7de7c35ed6)">
     <use xlink:href="#C0_0_27685d7944" x="156.659221" y="299.655501" style="fill: #262626"/>
    </g>
    <g clip-path="url(#p7de7c35ed6)">
     <use xlink:href="#C0_0_27685d7944" x="170.287476" y="296.140248" style="fill: #262626"/>
    </g>
    <g clip-path="url(#p7de7c35ed6)">
     <use xlink:href="#C0_0_27685d7944" x="177.133783" y="293.827673" style="fill: #262626"/>
    </g>
    <g clip-path="url(#p7de7c35ed6)">
     <use xlink:href="#C0_0_27685d7944" x="188.026665" y="294.595733" style="fill: #262626"/>
    </g>
    <g clip-path="url(#p7de7c35ed6)">
     <use xlink:href="#C0_0_27685d7944" x="174.939763" y="296.439128" style="fill: #262626"/>
    </g>
    <g clip-path="url(#p7de7c35ed6)">
     <use xlink:href="#C0_0_27685d7944" x="176.435341" y="288.522942" style="fill: #262626"/>
    </g>
    <g clip-path="url(#p7de7c35ed6)">
     <use xlink:href="#C0_0_27685d7944" x="184.492306" y="295.592918" style="fill: #262626"/>
    </g>
    <g clip-path="url(#p7de7c35ed6)">
     <use xlink:href="#C0_0_27685d7944" x="158.718943" y="300.638717" style="fill: #262626"/>
    </g>
    <g clip-path="url(#p7de7c35ed6)">
     <use xlink:href="#C0_0_27685d7944" x="159.600129" y="294.778198" style="fill: #262626"/>
    </g>
    <g clip-path="url(#p7de7c35ed6)">
     <use xlink:href="#C0_0_27685d7944" x="164.543059" y="288.405935" style="fill: #262626"/>
    </g>
    <g clip-path="url(#p7de7c35ed6)">
     <use xlink:href="#C0_0_27685d7944" x="162.829627" y="287.841691" style="fill: #262626"/>
    </g>
    <g clip-path="url(#p7de7c35ed6)">
     <use xlink:href="#C0_0_27685d7944" x="188.473828" y="298.0998" style="fill: #262626"/>
    </g>
    <g clip-path="url(#p7de7c35ed6)">
     <use xlink:href="#C0_0_27685d7944" x="174.836549" y="298.751649" style="fill: #262626"/>
    </g>
    <g clip-path="url(#p7de7c35ed6)">
     <use xlink:href="#C0_0_27685d7944" x="186.355221" y="296.907803" style="fill: #262626"/>
    </g>
    <g clip-path="url(#p7de7c35ed6)">
     <use xlink:href="#C0_0_27685d7944" x="154.997268" y="296.009582" style="fill: #262626"/>
    </g>
    <g clip-path="url(#p7de7c35ed6)">
     <use xlink:href="#C0_0_27685d7944" x="185.594296" y="290.163547" style="fill: #262626"/>
    </g>
    <g clip-path="url(#p7de7c35ed6)">
     <use xlink:href="#C0_0_27685d7944" x="150.732102" y="297.389982" style="fill: #262626"/>
    </g>
    <g clip-path="url(#p7de7c35ed6)">
     <use xlink:href="#C0_0_27685d7944" x="174.563079" y="293.210182" style="fill: #262626"/>
    </g>
    <g clip-path="url(#p7de7c35ed6)">
     <use xlink:href="#C0_0_27685d7944" x="181.019355" y="294.295576" style="fill: #262626"/>
    </g>
    <g clip-path="url(#p7de7c35ed6)">
     <use xlink:href="#C0_0_27685d7944" x="177.740519" y="298.733109" style="fill: #262626"/>
    </g>
    <g clip-path="url(#p7de7c35ed6)">
     <use xlink:href="#C0_0_27685d7944" x="158.349153" y="291.933841" style="fill: #262626"/>
    </g>
    <g clip-path="url(#p7de7c35ed6)">
     <use xlink:href="#C0_0_27685d7944" x="185.286058" y="289.904898" style="fill: #262626"/>
    </g>
    <g clip-path="url(#p7de7c35ed6)">
     <use xlink:href="#C0_0_27685d7944" x="160.782884" y="295.694676" style="fill: #262626"/>
    </g>
    <g clip-path="url(#p7de7c35ed6)">
     <use xlink:href="#C0_0_27685d7944" x="178.204326" y="296.253548" style="fill: #262626"/>
    </g>
    <g clip-path="url(#p7de7c35ed6)">
     <use xlink:href="#C0_0_27685d7944" x="165.812828" y="292.046037" style="fill: #262626"/>
    </g>
    <g clip-path="url(#p7de7c35ed6)">
     <use xlink:href="#C0_0_27685d7944" x="165.83771" y="297.968563" style="fill: #262626"/>
    </g>
    <g clip-path="url(#p7de7c35ed6)">
     <use xlink:href="#C0_0_27685d7944" x="157.711575" y="298.285419" style="fill: #262626"/>
    </g>
    <g clip-path="url(#p7de7c35ed6)">
     <use xlink:href="#C0_0_27685d7944" x="171.048792" y="297.172232" style="fill: #262626"/>
    </g>
    <g clip-path="url(#p7de7c35ed6)">
     <use xlink:href="#C0_0_27685d7944" x="180.221586" y="283.652871" style="fill: #262626"/>
    </g>
    <g clip-path="url(#p7de7c35ed6)">
     <use xlink:href="#C0_0_27685d7944" x="173.175925" y="296.358605" style="fill: #262626"/>
    </g>
    <g clip-path="url(#p7de7c35ed6)">
     <use xlink:href="#C0_0_27685d7944" x="171.556745" y="298.72441" style="fill: #262626"/>
    </g>
    <g clip-path="url(#p7de7c35ed6)">
     <use xlink:href="#C0_0_27685d7944" x="176.284652" y="297.915519" style="fill: #262626"/>
    </g>
    <g clip-path="url(#p7de7c35ed6)">
     <use xlink:href="#C0_0_27685d7944" x="165.060764" y="297.519168" style="fill: #262626"/>
    </g>
    <g clip-path="url(#p7de7c35ed6)">
     <use xlink:href="#C0_0_27685d7944" x="175.224003" y="292.192295" style="fill: #262626"/>
    </g>
   </g>
   <g id="PathCollection_4">
    <defs>
     <path id="C1_0_0cc739186e" d="M 0 1 
C 0.265203 1 0.51958 0.894634 0.707107 0.707107 
C 0.894634 0.51958 1 0.265203 1 -0 
C 1 -0.265203 0.894634 -0.51958 0.707107 -0.707107 
C 0.51958 -0.894634 0.265203 -1 0 -1 
C -0.265203 -1 -0.51958 -0.894634 -0.707107 -0.707107 
C -0.894634 -0.51958 -1 -0.265203 -1 0 
C -1 0.265203 -0.894634 0.51958 -0.707107 0.707107 
C -0.51958 0.894634 -0.265203 1 0 1 
z
"/>
    </defs>
    <g clip-path="url(#p7de7c35ed6)">
     <use xlink:href="#C1_0_0cc739186e" x="314.770324" y="295.857299"/>
    </g>
    <g clip-path="url(#p7de7c35ed6)">
     <use xlink:href="#C1_0_0cc739186e" x="314.900364" y="290.39241"/>
    </g>
    <g clip-path="url(#p7de7c35ed6)">
     <use xlink:href="#C1_0_0cc739186e" x="324.780799" y="286.870588"/>
    </g>
    <g clip-path="url(#p7de7c35ed6)">
     <use xlink:href="#C1_0_0cc739186e" x="324.233197" y="298.848968"/>
    </g>
    <g clip-path="url(#p7de7c35ed6)">
     <use xlink:href="#C1_0_0cc739186e" x="317.617001" y="294.355475"/>
    </g>
    <g clip-path="url(#p7de7c35ed6)">
     <use xlink:href="#C1_0_0cc739186e" x="327.791592" y="286.057428"/>
    </g>
    <g clip-path="url(#p7de7c35ed6)">
     <use xlink:href="#C1_0_0cc739186e" x="335.265574" y="284.148341"/>
    </g>
    <g clip-path="url(#p7de7c35ed6)">
     <use xlink:href="#C1_0_0cc739186e" x="348.151927" y="281.110295"/>
    </g>
    <g clip-path="url(#p7de7c35ed6)">
     <use xlink:href="#C1_0_0cc739186e" x="328.371438" y="292.033538"/>
    </g>
    <g clip-path="url(#p7de7c35ed6)">
     <use xlink:href="#C1_0_0cc739186e" x="327.338933" y="285.36298"/>
    </g>
    <g clip-path="url(#p7de7c35ed6)">
     <use xlink:href="#C1_0_0cc739186e" x="330.651508" y="289.022851"/>
    </g>
    <g clip-path="url(#p7de7c35ed6)">
     <use xlink:href="#C1_0_0cc739186e" x="334.733395" y="289.201176"/>
    </g>
    <g clip-path="url(#p7de7c35ed6)">
     <use xlink:href="#C1_0_0cc739186e" x="348.247047" y="291.258873"/>
    </g>
    <g clip-path="url(#p7de7c35ed6)">
     <use xlink:href="#C1_0_0cc739186e" x="329.756351" y="283.206647"/>
    </g>
    <g clip-path="url(#p7de7c35ed6)">
     <use xlink:href="#C1_0_0cc739186e" x="330.848749" y="289.556491"/>
    </g>
    <g clip-path="url(#p7de7c35ed6)">
     <use xlink:href="#C1_0_0cc739186e" x="340.385161" y="291.353188"/>
    </g>
    <g clip-path="url(#p7de7c35ed6)">
     <use xlink:href="#C1_0_0cc739186e" x="316.835224" y="294.23417"/>
    </g>
    <g clip-path="url(#p7de7c35ed6)">
     <use xlink:href="#C1_0_0cc739186e" x="331.963048" y="292.881184"/>
    </g>
    <g clip-path="url(#p7de7c35ed6)">
     <use xlink:href="#C1_0_0cc739186e" x="311.401598" y="298.634818"/>
    </g>
    <g clip-path="url(#p7de7c35ed6)">
     <use xlink:href="#C1_0_0cc739186e" x="322.979301" y="291.750214"/>
    </g>
    <g clip-path="url(#p7de7c35ed6)">
     <use xlink:href="#C1_0_0cc739186e" x="335.604666" y="295.642822"/>
    </g>
    <g clip-path="url(#p7de7c35ed6)">
     <use xlink:href="#C1_0_0cc739186e" x="323.796626" y="280.421468"/>
    </g>
    <g clip-path="url(#p7de7c35ed6)">
     <use xlink:href="#C1_0_0cc739186e" x="328.454426" y="295.297773"/>
    </g>
   </g>
   <g id="text_6">
    <!-- 75 -->
    <g style="fill: #262626" transform="translate(188.518 255.335439) scale(0.1 -0.1)">
     <defs>
      <path id="DejaVuSans-37" d="M 525 4666 
L 3525 4666 
L 3525 4397 
L 1831 0 
L 1172 0 
L 2766 4134 
L 525 4134 
L 525 4666 
z
" transform="scale(0.015625)"/>
     </defs>
     <use xlink:href="#DejaVuSans-37"/>
     <use xlink:href="#DejaVuSans-35" x="63.623047"/>
    </g>
   </g>
   <g id="text_7">
    <!-- p=0.003181715467361706 -->
    <g style="fill: #262626" transform="translate(133.0005 281.50931) scale(0.08 -0.08)">
     <defs>
      <path id="DejaVuSans-3d" d="M 678 2906 
L 4684 2906 
L 4684 2381 
L 678 2381 
L 678 2906 
z
M 678 1631 
L 4684 1631 
L 4684 1100 
L 678 1100 
L 678 1631 
z
" transform="scale(0.015625)"/>
      <path id="DejaVuSans-33" d="M 2597 2516 
Q 3050 2419 3304 2112 
Q 3559 1806 3559 1356 
Q 3559 666 3084 287 
Q 2609 -91 1734 -91 
Q 1441 -91 1130 -33 
Q 819 25 488 141 
L 488 750 
Q 750 597 1062 519 
Q 1375 441 1716 441 
Q 2309 441 2620 675 
Q 2931 909 2931 1356 
Q 2931 1769 2642 2001 
Q 2353 2234 1838 2234 
L 1294 2234 
L 1294 2753 
L 1863 2753 
Q 2328 2753 2575 2939 
Q 2822 3125 2822 3475 
Q 2822 3834 2567 4026 
Q 2313 4219 1838 4219 
Q 1578 4219 1281 4162 
Q 984 4106 628 3988 
L 628 4550 
Q 988 4650 1302 4700 
Q 1616 4750 1894 4750 
Q 2613 4750 3031 4423 
Q 3450 4097 3450 3541 
Q 3450 3153 3228 2886 
Q 3006 2619 2597 2516 
z
" transform="scale(0.015625)"/>
      <path id="DejaVuSans-31" d="M 794 531 
L 1825 531 
L 1825 4091 
L 703 3866 
L 703 4441 
L 1819 4666 
L 2450 4666 
L 2450 531 
L 3481 531 
L 3481 0 
L 794 0 
L 794 531 
z
" transform="scale(0.015625)"/>
      <path id="DejaVuSans-38" d="M 2034 2216 
Q 1584 2216 1326 1975 
Q 1069 1734 1069 1313 
Q 1069 891 1326 650 
Q 1584 409 2034 409 
Q 2484 409 2743 651 
Q 3003 894 3003 1313 
Q 3003 1734 2745 1975 
Q 2488 2216 2034 2216 
z
M 1403 2484 
Q 997 2584 770 2862 
Q 544 3141 544 3541 
Q 544 4100 942 4425 
Q 1341 4750 2034 4750 
Q 2731 4750 3128 4425 
Q 3525 4100 3525 3541 
Q 3525 3141 3298 2862 
Q 3072 2584 2669 2484 
Q 3125 2378 3379 2068 
Q 3634 1759 3634 1313 
Q 3634 634 3220 271 
Q 2806 -91 2034 -91 
Q 1263 -91 848 271 
Q 434 634 434 1313 
Q 434 1759 690 2068 
Q 947 2378 1403 2484 
z
M 1172 3481 
Q 1172 3119 1398 2916 
Q 1625 2713 2034 2713 
Q 2441 2713 2670 2916 
Q 2900 3119 2900 3481 
Q 2900 3844 2670 4047 
Q 2441 4250 2034 4250 
Q 1625 4250 1398 4047 
Q 1172 3844 1172 3481 
z
" transform="scale(0.015625)"/>
      <path id="DejaVuSans-34" d="M 2419 4116 
L 825 1625 
L 2419 1625 
L 2419 4116 
z
M 2253 4666 
L 3047 4666 
L 3047 1625 
L 3713 1625 
L 3713 1100 
L 3047 1100 
L 3047 0 
L 2419 0 
L 2419 1100 
L 313 1100 
L 313 1709 
L 2253 4666 
z
" transform="scale(0.015625)"/>
      <path id="DejaVuSans-36" d="M 2113 2584 
Q 1688 2584 1439 2293 
Q 1191 2003 1191 1497 
Q 1191 994 1439 701 
Q 1688 409 2113 409 
Q 2538 409 2786 701 
Q 3034 994 3034 1497 
Q 3034 2003 2786 2293 
Q 2538 2584 2113 2584 
z
M 3366 4563 
L 3366 3988 
Q 3128 4100 2886 4159 
Q 2644 4219 2406 4219 
Q 1781 4219 1451 3797 
Q 1122 3375 1075 2522 
Q 1259 2794 1537 2939 
Q 1816 3084 2150 3084 
Q 2853 3084 3261 2657 
Q 3669 2231 3669 1497 
Q 3669 778 3244 343 
Q 2819 -91 2113 -91 
Q 1303 -91 875 529 
Q 447 1150 447 2328 
Q 447 3434 972 4092 
Q 1497 4750 2381 4750 
Q 2619 4750 2861 4703 
Q 3103 4656 3366 4563 
z
" transform="scale(0.015625)"/>
     </defs>
     <use xlink:href="#DejaVuSans-70"/>
     <use xlink:href="#DejaVuSans-3d" x="63.476562"/>
     <use xlink:href="#DejaVuSans-30" x="147.265625"/>
     <use xlink:href="#DejaVuSans-2e" x="210.888672"/>
     <use xlink:href="#DejaVuSans-30" x="242.675781"/>
     <use xlink:href="#DejaVuSans-30" x="306.298828"/>
     <use xlink:href="#DejaVuSans-33" x="369.921875"/>
     <use xlink:href="#DejaVuSans-31" x="433.544922"/>
     <use xlink:href="#DejaVuSans-38" x="497.167969"/>
     <use xlink:href="#DejaVuSans-31" x="560.791016"/>
     <use xlink:href="#DejaVuSans-37" x="624.414062"/>
     <use xlink:href="#DejaVuSans-31" x="688.037109"/>
     <use xlink:href="#DejaVuSans-35" x="751.660156"/>
     <use xlink:href="#DejaVuSans-34" x="815.283203"/>
     <use xlink:href="#DejaVuSans-36" x="878.90625"/>
     <use xlink:href="#DejaVuSans-37" x="942.529297"/>
     <use xlink:href="#DejaVuSans-33" x="1006.152344"/>
     <use xlink:href="#DejaVuSans-36" x="1069.775391"/>
     <use xlink:href="#DejaVuSans-31" x="1133.398438"/>
     <use xlink:href="#DejaVuSans-37" x="1197.021484"/>
     <use xlink:href="#DejaVuSans-30" x="1260.644531"/>
     <use xlink:href="#DejaVuSans-36" x="1324.267578"/>
    </g>
   </g>
   <g id="text_8">
    <!-- 23 -->
    <g style="fill: #262626" transform="translate(309.202 255.335439) scale(0.1 -0.1)">
     <defs>
      <path id="DejaVuSans-32" d="M 1228 531 
L 3431 531 
L 3431 0 
L 469 0 
L 469 531 
Q 828 903 1448 1529 
Q 2069 2156 2228 2338 
Q 2531 2678 2651 2914 
Q 2772 3150 2772 3378 
Q 2772 3750 2511 3984 
Q 2250 4219 1831 4219 
Q 1534 4219 1204 4116 
Q 875 4013 500 3803 
L 500 4441 
Q 881 4594 1212 4672 
Q 1544 4750 1819 4750 
Q 2544 4750 2975 4387 
Q 3406 4025 3406 3419 
Q 3406 3131 3298 2873 
Q 3191 2616 2906 2266 
Q 2828 2175 2409 1742 
Q 1991 1309 1228 531 
z
" transform="scale(0.015625)"/>
     </defs>
     <use xlink:href="#DejaVuSans-32"/>
     <use xlink:href="#DejaVuSans-33" x="63.623047"/>
    </g>
   </g>
   <g id="legend_1">
    <g id="patch_11">
     <path d="M 377.728125 294.698052 
L 397.728125 294.698052 
L 397.728125 287.698052 
L 377.728125 287.698052 
z
" style="fill: #ecf2ec; stroke: #262626; stroke-width: 0.75; stroke-linejoin: miter"/>
    </g>
    <g id="text_9">
     <!-- Mutant -->
     <g style="fill: #262626" transform="translate(405.728125 294.698052) scale(0.1 -0.1)">
      <defs>
       <path id="DejaVuSans-4d" d="M 628 4666 
L 1569 4666 
L 2759 1491 
L 3956 4666 
L 4897 4666 
L 4897 0 
L 4281 0 
L 4281 4097 
L 3078 897 
L 2444 897 
L 1241 4097 
L 1241 0 
L 628 0 
L 628 4666 
z
" transform="scale(0.015625)"/>
       <path id="DejaVuSans-61" d="M 2194 1759 
Q 1497 1759 1228 1600 
Q 959 1441 959 1056 
Q 959 750 1161 570 
Q 1363 391 1709 391 
Q 2188 391 2477 730 
Q 2766 1069 2766 1631 
L 2766 1759 
L 2194 1759 
z
M 3341 1997 
L 3341 0 
L 2766 0 
L 2766 531 
Q 2569 213 2275 61 
Q 1981 -91 1556 -91 
Q 1019 -91 701 211 
Q 384 513 384 1019 
Q 384 1609 779 1909 
Q 1175 2209 1959 2209 
L 2766 2209 
L 2766 2266 
Q 2766 2663 2505 2880 
Q 2244 3097 1772 3097 
Q 1472 3097 1187 3025 
Q 903 2953 641 2809 
L 641 3341 
Q 956 3463 1253 3523 
Q 1550 3584 1831 3584 
Q 2591 3584 2966 3190 
Q 3341 2797 3341 1997 
z
" transform="scale(0.015625)"/>
      </defs>
      <use xlink:href="#DejaVuSans-4d"/>
      <use xlink:href="#DejaVuSans-75" x="86.279297"/>
      <use xlink:href="#DejaVuSans-74" x="149.658203"/>
      <use xlink:href="#DejaVuSans-61" x="188.867188"/>
      <use xlink:href="#DejaVuSans-6e" x="250.146484"/>
      <use xlink:href="#DejaVuSans-74" x="313.525391"/>
     </g>
    </g>
    <g id="patch_12">
     <path d="M 377.728125 309.376177 
L 397.728125 309.376177 
L 397.728125 302.376177 
L 377.728125 302.376177 
z
" style="fill: #107010; stroke: #262626; stroke-width: 0.75; stroke-linejoin: miter"/>
    </g>
    <g id="text_10">
     <!-- WT -->
     <g style="fill: #262626" transform="translate(405.728125 309.376177) scale(0.1 -0.1)">
      <defs>
       <path id="DejaVuSans-57" d="M 213 4666 
L 850 4666 
L 1831 722 
L 2809 4666 
L 3519 4666 
L 4500 722 
L 5478 4666 
L 6119 4666 
L 4947 0 
L 4153 0 
L 3169 4050 
L 2175 0 
L 1381 0 
L 213 4666 
z
" transform="scale(0.015625)"/>
       <path id="DejaVuSans-54" d="M -19 4666 
L 3928 4666 
L 3928 4134 
L 2272 4134 
L 2272 0 
L 1638 0 
L 1638 4134 
L -19 4134 
L -19 4666 
z
" transform="scale(0.015625)"/>
      </defs>
      <use xlink:href="#DejaVuSans-57"/>
      <use xlink:href="#DejaVuSans-54" x="98.876953"/>
     </g>
    </g>
   </g>
  </g>
 </g>
 <defs>
  <clipPath id="p7de7c35ed6">
   <rect x="47.72" y="278.099614" width="402.28" height="25.540386"/>
  </clipPath>
 </defs>
</svg>
