<?xml version="1.0" encoding="utf-8" standalone="no"?>
<!DOCTYPE svg PUBLIC "-//W3C//DTD SVG 1.1//EN"
  "http://www.w3.org/Graphics/SVG/1.1/DTD/svg11.dtd">
<svg xmlns:xlink="http://www.w3.org/1999/xlink" width="460.8pt" height="345.6pt" viewBox="0 0 460.8 345.6" xmlns="http://www.w3.org/2000/svg" version="1.1">
 <metadata>
  <rdf:RDF xmlns:dc="http://purl.org/dc/elements/1.1/" xmlns:cc="http://creativecommons.org/ns#" xmlns:rdf="http://www.w3.org/1999/02/22-rdf-syntax-ns#">
   <cc:Work>
    <dc:type rdf:resource="http://purl.org/dc/dcmitype/StillImage"/>
    <dc:date>2023-12-16T14:37:41.912872</dc:date>
    <dc:format>image/svg+xml</dc:format>
    <dc:creator>
     <cc:Agent>
      <dc:title>Matplotlib v3.5.3, https://matplotlib.org/</dc:title>
     </cc:Agent>
    </dc:creator>
   </cc:Work>
  </rdf:RDF>
 </metadata>
 <defs>
  <style type="text/css">*{stroke-linejoin: round; stroke-linecap: butt}</style>
 </defs>
 <g id="figure_1">
  <g id="patch_1">
   <path d="M 0 345.6 
L 460.8 345.6 
L 460.8 0 
L 0 0 
z
" style="fill: #ffffff"/>
  </g>
  <g id="axes_1">
   <g id="patch_2">
    <path d="M 47.81 303.64 
L 450 303.64 
L 450 27.353939 
L 47.81 27.353939 
z
" style="fill: #ffffff"/>
   </g>
   <g id="matplotlib.axis_1">
    <g id="xtick_1">
     <g id="text_1">
      <!-- 11I -->
      <g style="fill: #262626" transform="translate(107.004167 318.238437)scale(0.1 -0.1)">
       <defs>
        <path id="DejaVuSans-31" d="M 794 531 
L 1825 531 
L 1825 4091 
L 703 3866 
L 703 4441 
L 1819 4666 
L 2450 4666 
L 2450 531 
L 3481 531 
L 3481 0 
L 794 0 
L 794 531 
z
" transform="scale(0.015625)"/>
        <path id="DejaVuSans-49" d="M 628 4666 
L 1259 4666 
L 1259 0 
L 628 0 
L 628 4666 
z
" transform="scale(0.015625)"/>
       </defs>
       <use xlink:href="#DejaVuSans-31"/>
       <use xlink:href="#DejaVuSans-31" x="63.623047"/>
       <use xlink:href="#DejaVuSans-49" x="127.246094"/>
      </g>
     </g>
    </g>
    <g id="xtick_2">
     <g id="text_2">
      <!-- 15I -->
      <g style="fill: #262626" transform="translate(241.0675 318.238437)scale(0.1 -0.1)">
       <defs>
        <path id="DejaVuSans-35" d="M 691 4666 
L 3169 4666 
L 3169 4134 
L 1269 4134 
L 1269 2991 
Q 1406 3038 1543 3061 
Q 1681 3084 1819 3084 
Q 2600 3084 3056 2656 
Q 3513 2228 3513 1497 
Q 3513 744 3044 326 
Q 2575 -91 1722 -91 
Q 1428 -91 1123 -41 
Q 819 9 494 109 
L 494 744 
Q 775 591 1075 516 
Q 1375 441 1709 441 
Q 2250 441 2565 725 
Q 2881 1009 2881 1497 
Q 2881 1984 2565 2268 
Q 2250 2553 1709 2553 
Q 1456 2553 1204 2497 
Q 953 2441 691 2322 
L 691 4666 
z
" transform="scale(0.015625)"/>
       </defs>
       <use xlink:href="#DejaVuSans-31"/>
       <use xlink:href="#DejaVuSans-35" x="63.623047"/>
       <use xlink:href="#DejaVuSans-49" x="127.246094"/>
      </g>
     </g>
    </g>
    <g id="xtick_3">
     <g id="text_3">
      <!-- 7I -->
      <g style="fill: #262626" transform="translate(378.312083 318.238437)scale(0.1 -0.1)">
       <defs>
        <path id="DejaVuSans-37" d="M 525 4666 
L 3525 4666 
L 3525 4397 
L 1831 0 
L 1172 0 
L 2766 4134 
L 525 4134 
L 525 4666 
z
" transform="scale(0.015625)"/>
       </defs>
       <use xlink:href="#DejaVuSans-37"/>
       <use xlink:href="#DejaVuSans-49" x="63.623047"/>
      </g>
     </g>
    </g>
    <g id="text_4">
     <!-- pos_mutAA -->
     <g style="fill: #262626" transform="translate(220.589375 331.638437)scale(0.1 -0.1)">
      <defs>
       <path id="DejaVuSans-70" d="M 1159 525 
L 1159 -1331 
L 581 -1331 
L 581 3500 
L 1159 3500 
L 1159 2969 
Q 1341 3281 1617 3432 
Q 1894 3584 2278 3584 
Q 2916 3584 3314 3078 
Q 3713 2572 3713 1747 
Q 3713 922 3314 415 
Q 2916 -91 2278 -91 
Q 1894 -91 1617 61 
Q 1341 213 1159 525 
z
M 3116 1747 
Q 3116 2381 2855 2742 
Q 2594 3103 2138 3103 
Q 1681 3103 1420 2742 
Q 1159 2381 1159 1747 
Q 1159 1113 1420 752 
Q 1681 391 2138 391 
Q 2594 391 2855 752 
Q 3116 1113 3116 1747 
z
" transform="scale(0.015625)"/>
       <path id="DejaVuSans-6f" d="M 1959 3097 
Q 1497 3097 1228 2736 
Q 959 2375 959 1747 
Q 959 1119 1226 758 
Q 1494 397 1959 397 
Q 2419 397 2687 759 
Q 2956 1122 2956 1747 
Q 2956 2369 2687 2733 
Q 2419 3097 1959 3097 
z
M 1959 3584 
Q 2709 3584 3137 3096 
Q 3566 2609 3566 1747 
Q 3566 888 3137 398 
Q 2709 -91 1959 -91 
Q 1206 -91 779 398 
Q 353 888 353 1747 
Q 353 2609 779 3096 
Q 1206 3584 1959 3584 
z
" transform="scale(0.015625)"/>
       <path id="DejaVuSans-73" d="M 2834 3397 
L 2834 2853 
Q 2591 2978 2328 3040 
Q 2066 3103 1784 3103 
Q 1356 3103 1142 2972 
Q 928 2841 928 2578 
Q 928 2378 1081 2264 
Q 1234 2150 1697 2047 
L 1894 2003 
Q 2506 1872 2764 1633 
Q 3022 1394 3022 966 
Q 3022 478 2636 193 
Q 2250 -91 1575 -91 
Q 1294 -91 989 -36 
Q 684 19 347 128 
L 347 722 
Q 666 556 975 473 
Q 1284 391 1588 391 
Q 1994 391 2212 530 
Q 2431 669 2431 922 
Q 2431 1156 2273 1281 
Q 2116 1406 1581 1522 
L 1381 1569 
Q 847 1681 609 1914 
Q 372 2147 372 2553 
Q 372 3047 722 3315 
Q 1072 3584 1716 3584 
Q 2034 3584 2315 3537 
Q 2597 3491 2834 3397 
z
" transform="scale(0.015625)"/>
       <path id="DejaVuSans-5f" d="M 3263 -1063 
L 3263 -1509 
L -63 -1509 
L -63 -1063 
L 3263 -1063 
z
" transform="scale(0.015625)"/>
       <path id="DejaVuSans-6d" d="M 3328 2828 
Q 3544 3216 3844 3400 
Q 4144 3584 4550 3584 
Q 5097 3584 5394 3201 
Q 5691 2819 5691 2113 
L 5691 0 
L 5113 0 
L 5113 2094 
Q 5113 2597 4934 2840 
Q 4756 3084 4391 3084 
Q 3944 3084 3684 2787 
Q 3425 2491 3425 1978 
L 3425 0 
L 2847 0 
L 2847 2094 
Q 2847 2600 2669 2842 
Q 2491 3084 2119 3084 
Q 1678 3084 1418 2786 
Q 1159 2488 1159 1978 
L 1159 0 
L 581 0 
L 581 3500 
L 1159 3500 
L 1159 2956 
Q 1356 3278 1631 3431 
Q 1906 3584 2284 3584 
Q 2666 3584 2933 3390 
Q 3200 3197 3328 2828 
z
" transform="scale(0.015625)"/>
       <path id="DejaVuSans-75" d="M 544 1381 
L 544 3500 
L 1119 3500 
L 1119 1403 
Q 1119 906 1312 657 
Q 1506 409 1894 409 
Q 2359 409 2629 706 
Q 2900 1003 2900 1516 
L 2900 3500 
L 3475 3500 
L 3475 0 
L 2900 0 
L 2900 538 
Q 2691 219 2414 64 
Q 2138 -91 1772 -91 
Q 1169 -91 856 284 
Q 544 659 544 1381 
z
M 1991 3584 
L 1991 3584 
z
" transform="scale(0.015625)"/>
       <path id="DejaVuSans-74" d="M 1172 4494 
L 1172 3500 
L 2356 3500 
L 2356 3053 
L 1172 3053 
L 1172 1153 
Q 1172 725 1289 603 
Q 1406 481 1766 481 
L 2356 481 
L 2356 0 
L 1766 0 
Q 1100 0 847 248 
Q 594 497 594 1153 
L 594 3053 
L 172 3053 
L 172 3500 
L 594 3500 
L 594 4494 
L 1172 4494 
z
" transform="scale(0.015625)"/>
       <path id="DejaVuSans-41" d="M 2188 4044 
L 1331 1722 
L 3047 1722 
L 2188 4044 
z
M 1831 4666 
L 2547 4666 
L 4325 0 
L 3669 0 
L 3244 1197 
L 1141 1197 
L 716 0 
L 50 0 
L 1831 4666 
z
" transform="scale(0.015625)"/>
      </defs>
      <use xlink:href="#DejaVuSans-70"/>
      <use xlink:href="#DejaVuSans-6f" x="63.476562"/>
      <use xlink:href="#DejaVuSans-73" x="124.658203"/>
      <use xlink:href="#DejaVuSans-5f" x="176.757812"/>
      <use xlink:href="#DejaVuSans-6d" x="226.757812"/>
      <use xlink:href="#DejaVuSans-75" x="324.169922"/>
      <use xlink:href="#DejaVuSans-74" x="387.548828"/>
      <use xlink:href="#DejaVuSans-41" x="426.757812"/>
      <use xlink:href="#DejaVuSans-41" x="497.916016"/>
     </g>
    </g>
   </g>
   <g id="matplotlib.axis_2">
    <g id="ytick_1">
     <g id="line2d_1">
      <path d="M 47.81 303.64 
L 450 303.64 
" clip-path="url(#pc18f7d5486)" style="fill: none; stroke: #cccccc; stroke-width: 0.8; stroke-linecap: round"/>
     </g>
     <g id="text_5">
      <!-- 0.0 -->
      <g style="fill: #262626" transform="translate(24.906875 307.439219)scale(0.1 -0.1)">
       <defs>
        <path id="DejaVuSans-30" d="M 2034 4250 
Q 1547 4250 1301 3770 
Q 1056 3291 1056 2328 
Q 1056 1369 1301 889 
Q 1547 409 2034 409 
Q 2525 409 2770 889 
Q 3016 1369 3016 2328 
Q 3016 3291 2770 3770 
Q 2525 4250 2034 4250 
z
M 2034 4750 
Q 2819 4750 3233 4129 
Q 3647 3509 3647 2328 
Q 3647 1150 3233 529 
Q 2819 -91 2034 -91 
Q 1250 -91 836 529 
Q 422 1150 422 2328 
Q 422 3509 836 4129 
Q 1250 4750 2034 4750 
z
" transform="scale(0.015625)"/>
        <path id="DejaVuSans-2e" d="M 684 794 
L 1344 794 
L 1344 0 
L 684 0 
L 684 794 
z
" transform="scale(0.015625)"/>
       </defs>
       <use xlink:href="#DejaVuSans-30"/>
       <use xlink:href="#DejaVuSans-2e" x="63.623047"/>
       <use xlink:href="#DejaVuSans-30" x="95.410156"/>
      </g>
     </g>
    </g>
    <g id="ytick_2">
     <g id="line2d_2">
      <path d="M 47.81 269.104242 
L 450 269.104242 
" clip-path="url(#pc18f7d5486)" style="fill: none; stroke: #cccccc; stroke-width: 0.8; stroke-linecap: round"/>
     </g>
     <g id="text_6">
      <!-- 0.2 -->
      <g style="fill: #262626" transform="translate(24.906875 272.903461)scale(0.1 -0.1)">
       <defs>
        <path id="DejaVuSans-32" d="M 1228 531 
L 3431 531 
L 3431 0 
L 469 0 
L 469 531 
Q 828 903 1448 1529 
Q 2069 2156 2228 2338 
Q 2531 2678 2651 2914 
Q 2772 3150 2772 3378 
Q 2772 3750 2511 3984 
Q 2250 4219 1831 4219 
Q 1534 4219 1204 4116 
Q 875 4013 500 3803 
L 500 4441 
Q 881 4594 1212 4672 
Q 1544 4750 1819 4750 
Q 2544 4750 2975 4387 
Q 3406 4025 3406 3419 
Q 3406 3131 3298 2873 
Q 3191 2616 2906 2266 
Q 2828 2175 2409 1742 
Q 1991 1309 1228 531 
z
" transform="scale(0.015625)"/>
       </defs>
       <use xlink:href="#DejaVuSans-30"/>
       <use xlink:href="#DejaVuSans-2e" x="63.623047"/>
       <use xlink:href="#DejaVuSans-32" x="95.410156"/>
      </g>
     </g>
    </g>
    <g id="ytick_3">
     <g id="line2d_3">
      <path d="M 47.81 234.568485 
L 450 234.568485 
" clip-path="url(#pc18f7d5486)" style="fill: none; stroke: #cccccc; stroke-width: 0.8; stroke-linecap: round"/>
     </g>
     <g id="text_7">
      <!-- 0.4 -->
      <g style="fill: #262626" transform="translate(24.906875 238.367704)scale(0.1 -0.1)">
       <defs>
        <path id="DejaVuSans-34" d="M 2419 4116 
L 825 1625 
L 2419 1625 
L 2419 4116 
z
M 2253 4666 
L 3047 4666 
L 3047 1625 
L 3713 1625 
L 3713 1100 
L 3047 1100 
L 3047 0 
L 2419 0 
L 2419 1100 
L 313 1100 
L 313 1709 
L 2253 4666 
z
" transform="scale(0.015625)"/>
       </defs>
       <use xlink:href="#DejaVuSans-30"/>
       <use xlink:href="#DejaVuSans-2e" x="63.623047"/>
       <use xlink:href="#DejaVuSans-34" x="95.410156"/>
      </g>
     </g>
    </g>
    <g id="ytick_4">
     <g id="line2d_4">
      <path d="M 47.81 200.032727 
L 450 200.032727 
" clip-path="url(#pc18f7d5486)" style="fill: none; stroke: #cccccc; stroke-width: 0.8; stroke-linecap: round"/>
     </g>
     <g id="text_8">
      <!-- 0.6 -->
      <g style="fill: #262626" transform="translate(24.906875 203.831946)scale(0.1 -0.1)">
       <defs>
        <path id="DejaVuSans-36" d="M 2113 2584 
Q 1688 2584 1439 2293 
Q 1191 2003 1191 1497 
Q 1191 994 1439 701 
Q 1688 409 2113 409 
Q 2538 409 2786 701 
Q 3034 994 3034 1497 
Q 3034 2003 2786 2293 
Q 2538 2584 2113 2584 
z
M 3366 4563 
L 3366 3988 
Q 3128 4100 2886 4159 
Q 2644 4219 2406 4219 
Q 1781 4219 1451 3797 
Q 1122 3375 1075 2522 
Q 1259 2794 1537 2939 
Q 1816 3084 2150 3084 
Q 2853 3084 3261 2657 
Q 3669 2231 3669 1497 
Q 3669 778 3244 343 
Q 2819 -91 2113 -91 
Q 1303 -91 875 529 
Q 447 1150 447 2328 
Q 447 3434 972 4092 
Q 1497 4750 2381 4750 
Q 2619 4750 2861 4703 
Q 3103 4656 3366 4563 
z
" transform="scale(0.015625)"/>
       </defs>
       <use xlink:href="#DejaVuSans-30"/>
       <use xlink:href="#DejaVuSans-2e" x="63.623047"/>
       <use xlink:href="#DejaVuSans-36" x="95.410156"/>
      </g>
     </g>
    </g>
    <g id="ytick_5">
     <g id="line2d_5">
      <path d="M 47.81 165.49697 
L 450 165.49697 
" clip-path="url(#pc18f7d5486)" style="fill: none; stroke: #cccccc; stroke-width: 0.8; stroke-linecap: round"/>
     </g>
     <g id="text_9">
      <!-- 0.8 -->
      <g style="fill: #262626" transform="translate(24.906875 169.296188)scale(0.1 -0.1)">
       <defs>
        <path id="DejaVuSans-38" d="M 2034 2216 
Q 1584 2216 1326 1975 
Q 1069 1734 1069 1313 
Q 1069 891 1326 650 
Q 1584 409 2034 409 
Q 2484 409 2743 651 
Q 3003 894 3003 1313 
Q 3003 1734 2745 1975 
Q 2488 2216 2034 2216 
z
M 1403 2484 
Q 997 2584 770 2862 
Q 544 3141 544 3541 
Q 544 4100 942 4425 
Q 1341 4750 2034 4750 
Q 2731 4750 3128 4425 
Q 3525 4100 3525 3541 
Q 3525 3141 3298 2862 
Q 3072 2584 2669 2484 
Q 3125 2378 3379 2068 
Q 3634 1759 3634 1313 
Q 3634 634 3220 271 
Q 2806 -91 2034 -91 
Q 1263 -91 848 271 
Q 434 634 434 1313 
Q 434 1759 690 2068 
Q 947 2378 1403 2484 
z
M 1172 3481 
Q 1172 3119 1398 2916 
Q 1625 2713 2034 2713 
Q 2441 2713 2670 2916 
Q 2900 3119 2900 3481 
Q 2900 3844 2670 4047 
Q 2441 4250 2034 4250 
Q 1625 4250 1398 4047 
Q 1172 3844 1172 3481 
z
" transform="scale(0.015625)"/>
       </defs>
       <use xlink:href="#DejaVuSans-30"/>
       <use xlink:href="#DejaVuSans-2e" x="63.623047"/>
       <use xlink:href="#DejaVuSans-38" x="95.410156"/>
      </g>
     </g>
    </g>
    <g id="ytick_6">
     <g id="line2d_6">
      <path d="M 47.81 130.961212 
L 450 130.961212 
" clip-path="url(#pc18f7d5486)" style="fill: none; stroke: #cccccc; stroke-width: 0.8; stroke-linecap: round"/>
     </g>
     <g id="text_10">
      <!-- 1.0 -->
      <g style="fill: #262626" transform="translate(24.906875 134.760431)scale(0.1 -0.1)">
       <use xlink:href="#DejaVuSans-31"/>
       <use xlink:href="#DejaVuSans-2e" x="63.623047"/>
       <use xlink:href="#DejaVuSans-30" x="95.410156"/>
      </g>
     </g>
    </g>
    <g id="ytick_7">
     <g id="line2d_7">
      <path d="M 47.81 96.425454 
L 450 96.425454 
" clip-path="url(#pc18f7d5486)" style="fill: none; stroke: #cccccc; stroke-width: 0.8; stroke-linecap: round"/>
     </g>
     <g id="text_11">
      <!-- 1.2 -->
      <g style="fill: #262626" transform="translate(24.906875 100.224673)scale(0.1 -0.1)">
       <use xlink:href="#DejaVuSans-31"/>
       <use xlink:href="#DejaVuSans-2e" x="63.623047"/>
       <use xlink:href="#DejaVuSans-32" x="95.410156"/>
      </g>
     </g>
    </g>
    <g id="ytick_8">
     <g id="line2d_8">
      <path d="M 47.81 61.889697 
L 450 61.889697 
" clip-path="url(#pc18f7d5486)" style="fill: none; stroke: #cccccc; stroke-width: 0.8; stroke-linecap: round"/>
     </g>
     <g id="text_12">
      <!-- 1.4 -->
      <g style="fill: #262626" transform="translate(24.906875 65.688915)scale(0.1 -0.1)">
       <use xlink:href="#DejaVuSans-31"/>
       <use xlink:href="#DejaVuSans-2e" x="63.623047"/>
       <use xlink:href="#DejaVuSans-34" x="95.410156"/>
      </g>
     </g>
    </g>
    <g id="ytick_9">
     <g id="line2d_9">
      <path d="M 47.81 27.353939 
L 450 27.353939 
" clip-path="url(#pc18f7d5486)" style="fill: none; stroke: #cccccc; stroke-width: 0.8; stroke-linecap: round"/>
     </g>
     <g id="text_13">
      <!-- 1.6 -->
      <g style="fill: #262626" transform="translate(24.906875 31.153158)scale(0.1 -0.1)">
       <use xlink:href="#DejaVuSans-31"/>
       <use xlink:href="#DejaVuSans-2e" x="63.623047"/>
       <use xlink:href="#DejaVuSans-36" x="95.410156"/>
      </g>
     </g>
    </g>
    <g id="text_14">
     <!-- PercentGpA -->
     <g style="fill: #262626" transform="translate(18.827187 194.773532)rotate(-90)scale(0.1 -0.1)">
      <defs>
       <path id="DejaVuSans-50" d="M 1259 4147 
L 1259 2394 
L 2053 2394 
Q 2494 2394 2734 2622 
Q 2975 2850 2975 3272 
Q 2975 3691 2734 3919 
Q 2494 4147 2053 4147 
L 1259 4147 
z
M 628 4666 
L 2053 4666 
Q 2838 4666 3239 4311 
Q 3641 3956 3641 3272 
Q 3641 2581 3239 2228 
Q 2838 1875 2053 1875 
L 1259 1875 
L 1259 0 
L 628 0 
L 628 4666 
z
" transform="scale(0.015625)"/>
       <path id="DejaVuSans-65" d="M 3597 1894 
L 3597 1613 
L 953 1613 
Q 991 1019 1311 708 
Q 1631 397 2203 397 
Q 2534 397 2845 478 
Q 3156 559 3463 722 
L 3463 178 
Q 3153 47 2828 -22 
Q 2503 -91 2169 -91 
Q 1331 -91 842 396 
Q 353 884 353 1716 
Q 353 2575 817 3079 
Q 1281 3584 2069 3584 
Q 2775 3584 3186 3129 
Q 3597 2675 3597 1894 
z
M 3022 2063 
Q 3016 2534 2758 2815 
Q 2500 3097 2075 3097 
Q 1594 3097 1305 2825 
Q 1016 2553 972 2059 
L 3022 2063 
z
" transform="scale(0.015625)"/>
       <path id="DejaVuSans-72" d="M 2631 2963 
Q 2534 3019 2420 3045 
Q 2306 3072 2169 3072 
Q 1681 3072 1420 2755 
Q 1159 2438 1159 1844 
L 1159 0 
L 581 0 
L 581 3500 
L 1159 3500 
L 1159 2956 
Q 1341 3275 1631 3429 
Q 1922 3584 2338 3584 
Q 2397 3584 2469 3576 
Q 2541 3569 2628 3553 
L 2631 2963 
z
" transform="scale(0.015625)"/>
       <path id="DejaVuSans-63" d="M 3122 3366 
L 3122 2828 
Q 2878 2963 2633 3030 
Q 2388 3097 2138 3097 
Q 1578 3097 1268 2742 
Q 959 2388 959 1747 
Q 959 1106 1268 751 
Q 1578 397 2138 397 
Q 2388 397 2633 464 
Q 2878 531 3122 666 
L 3122 134 
Q 2881 22 2623 -34 
Q 2366 -91 2075 -91 
Q 1284 -91 818 406 
Q 353 903 353 1747 
Q 353 2603 823 3093 
Q 1294 3584 2113 3584 
Q 2378 3584 2631 3529 
Q 2884 3475 3122 3366 
z
" transform="scale(0.015625)"/>
       <path id="DejaVuSans-6e" d="M 3513 2113 
L 3513 0 
L 2938 0 
L 2938 2094 
Q 2938 2591 2744 2837 
Q 2550 3084 2163 3084 
Q 1697 3084 1428 2787 
Q 1159 2491 1159 1978 
L 1159 0 
L 581 0 
L 581 3500 
L 1159 3500 
L 1159 2956 
Q 1366 3272 1645 3428 
Q 1925 3584 2291 3584 
Q 2894 3584 3203 3211 
Q 3513 2838 3513 2113 
z
" transform="scale(0.015625)"/>
       <path id="DejaVuSans-47" d="M 3809 666 
L 3809 1919 
L 2778 1919 
L 2778 2438 
L 4434 2438 
L 4434 434 
Q 4069 175 3628 42 
Q 3188 -91 2688 -91 
Q 1594 -91 976 548 
Q 359 1188 359 2328 
Q 359 3472 976 4111 
Q 1594 4750 2688 4750 
Q 3144 4750 3555 4637 
Q 3966 4525 4313 4306 
L 4313 3634 
Q 3963 3931 3569 4081 
Q 3175 4231 2741 4231 
Q 1884 4231 1454 3753 
Q 1025 3275 1025 2328 
Q 1025 1384 1454 906 
Q 1884 428 2741 428 
Q 3075 428 3337 486 
Q 3600 544 3809 666 
z
" transform="scale(0.015625)"/>
      </defs>
      <use xlink:href="#DejaVuSans-50"/>
      <use xlink:href="#DejaVuSans-65" x="56.677734"/>
      <use xlink:href="#DejaVuSans-72" x="118.201172"/>
      <use xlink:href="#DejaVuSans-63" x="157.064453"/>
      <use xlink:href="#DejaVuSans-65" x="212.044922"/>
      <use xlink:href="#DejaVuSans-6e" x="273.568359"/>
      <use xlink:href="#DejaVuSans-74" x="336.947266"/>
      <use xlink:href="#DejaVuSans-47" x="376.15625"/>
      <use xlink:href="#DejaVuSans-70" x="453.646484"/>
      <use xlink:href="#DejaVuSans-41" x="517.123047"/>
     </g>
    </g>
   </g>
   <g id="patch_3">
    <path d="M 61.752587 263.50988 
L 114.305413 263.50988 
L 114.305413 242.770601 
L 61.752587 242.770601 
L 61.752587 263.50988 
z
" clip-path="url(#pc18f7d5486)" style="fill: #ecf2ec; stroke: #262626; stroke-width: 1.5; stroke-linejoin: miter"/>
   </g>
   <g id="patch_4">
    <path d="M 115.37792 131.332283 
L 167.930747 131.332283 
L 167.930747 93.432518 
L 115.37792 93.432518 
L 115.37792 131.332283 
z
" clip-path="url(#pc18f7d5486)" style="fill: #107010; stroke: #262626; stroke-width: 1.5; stroke-linejoin: miter"/>
   </g>
   <g id="patch_5">
    <path d="M 195.81592 265.659738 
L 248.368747 265.659738 
L 248.368747 245.228475 
L 195.81592 245.228475 
L 195.81592 265.659738 
z
" clip-path="url(#pc18f7d5486)" style="fill: #ecf2ec; stroke: #262626; stroke-width: 1.5; stroke-linejoin: miter"/>
   </g>
   <g id="patch_6">
    <path d="M 249.441253 166.922422 
L 301.99408 166.922422 
L 301.99408 142.084122 
L 249.441253 142.084122 
L 249.441253 166.922422 
z
" clip-path="url(#pc18f7d5486)" style="fill: #107010; stroke: #262626; stroke-width: 1.5; stroke-linejoin: miter"/>
   </g>
   <g id="patch_7">
    <path d="M 329.879253 260.988989 
L 382.43208 260.988989 
L 382.43208 229.012138 
L 329.879253 229.012138 
L 329.879253 260.988989 
z
" clip-path="url(#pc18f7d5486)" style="fill: #ecf2ec; stroke: #262626; stroke-width: 1.5; stroke-linejoin: miter"/>
   </g>
   <g id="patch_8">
    <path d="M 383.504587 126.087499 
L 436.057413 126.087499 
L 436.057413 89.630957 
L 383.504587 89.630957 
L 383.504587 126.087499 
z
" clip-path="url(#pc18f7d5486)" style="fill: #107010; stroke: #262626; stroke-width: 1.5; stroke-linejoin: miter"/>
   </g>
   <g id="patch_9">
    <path d="M 114.841667 303.64 
L 114.841667 303.64 
L 114.841667 303.64 
L 114.841667 303.64 
z
" clip-path="url(#pc18f7d5486)" style="fill: #ecf2ec; stroke: #262626; stroke-width: 0.75; stroke-linejoin: miter"/>
   </g>
   <g id="patch_10">
    <path d="M 114.841667 303.64 
L 114.841667 303.64 
L 114.841667 303.64 
L 114.841667 303.64 
z
" clip-path="url(#pc18f7d5486)" style="fill: #107010; stroke: #262626; stroke-width: 0.75; stroke-linejoin: miter"/>
   </g>
   <g id="PathCollection_1"/>
   <g id="PathCollection_2"/>
   <g id="line2d_10">
    <path d="M 88.029 263.50988 
L 88.029 274.890732 
" clip-path="url(#pc18f7d5486)" style="fill: none; stroke: #262626; stroke-width: 1.5; stroke-linecap: round"/>
   </g>
   <g id="line2d_11">
    <path d="M 88.029 242.770601 
L 88.029 235.900995 
" clip-path="url(#pc18f7d5486)" style="fill: none; stroke: #262626; stroke-width: 1.5; stroke-linecap: round"/>
   </g>
   <g id="line2d_12">
    <path d="M 74.890793 274.890732 
L 101.167207 274.890732 
" clip-path="url(#pc18f7d5486)" style="fill: none; stroke: #262626; stroke-width: 1.5; stroke-linecap: round"/>
   </g>
   <g id="line2d_13">
    <path d="M 74.890793 235.900995 
L 101.167207 235.900995 
" clip-path="url(#pc18f7d5486)" style="fill: none; stroke: #262626; stroke-width: 1.5; stroke-linecap: round"/>
   </g>
   <g id="line2d_14"/>
   <g id="line2d_15">
    <path d="M 141.654333 131.332283 
L 141.654333 172.382798 
" clip-path="url(#pc18f7d5486)" style="fill: none; stroke: #262626; stroke-width: 1.5; stroke-linecap: round"/>
   </g>
   <g id="line2d_16">
    <path d="M 141.654333 93.432518 
L 141.654333 84.493074 
" clip-path="url(#pc18f7d5486)" style="fill: none; stroke: #262626; stroke-width: 1.5; stroke-linecap: round"/>
   </g>
   <g id="line2d_17">
    <path d="M 128.516127 172.382798 
L 154.79254 172.382798 
" clip-path="url(#pc18f7d5486)" style="fill: none; stroke: #262626; stroke-width: 1.5; stroke-linecap: round"/>
   </g>
   <g id="line2d_18">
    <path d="M 128.516127 84.493074 
L 154.79254 84.493074 
" clip-path="url(#pc18f7d5486)" style="fill: none; stroke: #262626; stroke-width: 1.5; stroke-linecap: round"/>
   </g>
   <g id="line2d_19">
    <defs>
     <path id="m168b2e4407" d="M -0 1.414214 
L 0.848528 0 
L 0 -1.414214 
L -0.848528 -0 
z
" style="stroke: #262626; stroke-linejoin: miter"/>
    </defs>
    <g clip-path="url(#pc18f7d5486)">
     <use xlink:href="#m168b2e4407" x="141.654333" y="33.454959" style="fill: #262626; stroke: #262626; stroke-linejoin: miter"/>
    </g>
   </g>
   <g id="line2d_20">
    <path d="M 222.092333 265.659738 
L 222.092333 270.931194 
" clip-path="url(#pc18f7d5486)" style="fill: none; stroke: #262626; stroke-width: 1.5; stroke-linecap: round"/>
   </g>
   <g id="line2d_21">
    <path d="M 222.092333 245.228475 
L 222.092333 244.156428 
" clip-path="url(#pc18f7d5486)" style="fill: none; stroke: #262626; stroke-width: 1.5; stroke-linecap: round"/>
   </g>
   <g id="line2d_22">
    <path d="M 208.954127 270.931194 
L 235.23054 270.931194 
" clip-path="url(#pc18f7d5486)" style="fill: none; stroke: #262626; stroke-width: 1.5; stroke-linecap: round"/>
   </g>
   <g id="line2d_23">
    <path d="M 208.954127 244.156428 
L 235.23054 244.156428 
" clip-path="url(#pc18f7d5486)" style="fill: none; stroke: #262626; stroke-width: 1.5; stroke-linecap: round"/>
   </g>
   <g id="line2d_24">
    <g clip-path="url(#pc18f7d5486)">
     <use xlink:href="#m168b2e4407" x="222.092333" y="197.037948" style="fill: #262626; stroke: #262626; stroke-linejoin: miter"/>
     <use xlink:href="#m168b2e4407" x="222.092333" y="146.370853" style="fill: #262626; stroke: #262626; stroke-linejoin: miter"/>
    </g>
   </g>
   <g id="line2d_25">
    <path d="M 275.717667 166.922422 
L 275.717667 197.090189 
" clip-path="url(#pc18f7d5486)" style="fill: none; stroke: #262626; stroke-width: 1.5; stroke-linecap: round"/>
   </g>
   <g id="line2d_26">
    <path d="M 275.717667 142.084122 
L 275.717667 142.084122 
" clip-path="url(#pc18f7d5486)" style="fill: none; stroke: #262626; stroke-width: 1.5; stroke-linecap: round"/>
   </g>
   <g id="line2d_27">
    <path d="M 262.57946 197.090189 
L 288.855873 197.090189 
" clip-path="url(#pc18f7d5486)" style="fill: none; stroke: #262626; stroke-width: 1.5; stroke-linecap: round"/>
   </g>
   <g id="line2d_28">
    <path d="M 262.57946 142.084122 
L 288.855873 142.084122 
" clip-path="url(#pc18f7d5486)" style="fill: none; stroke: #262626; stroke-width: 1.5; stroke-linecap: round"/>
   </g>
   <g id="line2d_29">
    <g clip-path="url(#pc18f7d5486)">
     <use xlink:href="#m168b2e4407" x="275.717667" y="97.993746" style="fill: #262626; stroke: #262626; stroke-linejoin: miter"/>
    </g>
   </g>
   <g id="line2d_30">
    <path d="M 356.155667 260.988989 
L 356.155667 278.018603 
" clip-path="url(#pc18f7d5486)" style="fill: none; stroke: #262626; stroke-width: 1.5; stroke-linecap: round"/>
   </g>
   <g id="line2d_31">
    <path d="M 356.155667 229.012138 
L 356.155667 197.47848 
" clip-path="url(#pc18f7d5486)" style="fill: none; stroke: #262626; stroke-width: 1.5; stroke-linecap: round"/>
   </g>
   <g id="line2d_32">
    <path d="M 343.01746 278.018603 
L 369.293873 278.018603 
" clip-path="url(#pc18f7d5486)" style="fill: none; stroke: #262626; stroke-width: 1.5; stroke-linecap: round"/>
   </g>
   <g id="line2d_33">
    <path d="M 343.01746 197.47848 
L 369.293873 197.47848 
" clip-path="url(#pc18f7d5486)" style="fill: none; stroke: #262626; stroke-width: 1.5; stroke-linecap: round"/>
   </g>
   <g id="line2d_34">
    <g clip-path="url(#pc18f7d5486)">
     <use xlink:href="#m168b2e4407" x="356.155667" y="179.453514" style="fill: #262626; stroke: #262626; stroke-linejoin: miter"/>
    </g>
   </g>
   <g id="line2d_35">
    <path d="M 409.781 126.087499 
L 409.781 166.894713 
" clip-path="url(#pc18f7d5486)" style="fill: none; stroke: #262626; stroke-width: 1.5; stroke-linecap: round"/>
   </g>
   <g id="line2d_36">
    <path d="M 409.781 89.630957 
L 409.781 67.240208 
" clip-path="url(#pc18f7d5486)" style="fill: none; stroke: #262626; stroke-width: 1.5; stroke-linecap: round"/>
   </g>
   <g id="line2d_37">
    <path d="M 396.642793 166.894713 
L 422.919207 166.894713 
" clip-path="url(#pc18f7d5486)" style="fill: none; stroke: #262626; stroke-width: 1.5; stroke-linecap: round"/>
   </g>
   <g id="line2d_38">
    <path d="M 396.642793 67.240208 
L 422.919207 67.240208 
" clip-path="url(#pc18f7d5486)" style="fill: none; stroke: #262626; stroke-width: 1.5; stroke-linecap: round"/>
   </g>
   <g id="line2d_39">
    <g clip-path="url(#pc18f7d5486)">
     <use xlink:href="#m168b2e4407" x="409.781" y="195.316398" style="fill: #262626; stroke: #262626; stroke-linejoin: miter"/>
    </g>
   </g>
   <g id="line2d_40">
    <path d="M 61.752587 259.211559 
L 114.305413 259.211559 
" clip-path="url(#pc18f7d5486)" style="fill: none; stroke: #262626; stroke-width: 1.5; stroke-linecap: round"/>
   </g>
   <g id="line2d_41">
    <path d="M 115.37792 111.869222 
L 167.930747 111.869222 
" clip-path="url(#pc18f7d5486)" style="fill: none; stroke: #262626; stroke-width: 1.5; stroke-linecap: round"/>
   </g>
   <g id="line2d_42">
    <path d="M 195.81592 255.881638 
L 248.368747 255.881638 
" clip-path="url(#pc18f7d5486)" style="fill: none; stroke: #262626; stroke-width: 1.5; stroke-linecap: round"/>
   </g>
   <g id="line2d_43">
    <path d="M 249.441253 156.823707 
L 301.99408 156.823707 
" clip-path="url(#pc18f7d5486)" style="fill: none; stroke: #262626; stroke-width: 1.5; stroke-linecap: round"/>
   </g>
   <g id="line2d_44">
    <path d="M 329.879253 246.112627 
L 382.43208 246.112627 
" clip-path="url(#pc18f7d5486)" style="fill: none; stroke: #262626; stroke-width: 1.5; stroke-linecap: round"/>
   </g>
   <g id="line2d_45">
    <path d="M 383.504587 113.513456 
L 436.057413 113.513456 
" clip-path="url(#pc18f7d5486)" style="fill: none; stroke: #262626; stroke-width: 1.5; stroke-linecap: round"/>
   </g>
   <g id="patch_11">
    <path d="M 47.81 303.64 
L 47.81 27.353939 
" style="fill: none; stroke: #cccccc; stroke-width: 0.8; stroke-linejoin: miter; stroke-linecap: square"/>
   </g>
   <g id="patch_12">
    <path d="M 450 303.64 
L 450 27.353939 
" style="fill: none; stroke: #cccccc; stroke-width: 0.8; stroke-linejoin: miter; stroke-linecap: square"/>
   </g>
   <g id="patch_13">
    <path d="M 47.81 303.64 
L 450 303.64 
" style="fill: none; stroke: #cccccc; stroke-width: 0.8; stroke-linejoin: miter; stroke-linecap: square"/>
   </g>
   <g id="patch_14">
    <path d="M 47.81 27.353939 
L 450 27.353939 
" style="fill: none; stroke: #cccccc; stroke-width: 0.8; stroke-linejoin: miter; stroke-linecap: square"/>
   </g>
   <g id="PathCollection_3">
    <defs>
     <path id="C0_0_82a409deea" d="M 0 1 
C 0.265203 1 0.51958 0.894634 0.707107 0.707107 
C 0.894634 0.51958 1 0.265203 1 -0 
C 1 -0.265203 0.894634 -0.51958 0.707107 -0.707107 
C 0.51958 -0.894634 0.265203 -1 0 -1 
C -0.265203 -1 -0.51958 -0.894634 -0.707107 -0.707107 
C -0.894634 -0.51958 -1 -0.265203 -1 0 
C -1 0.265203 -0.894634 0.51958 -0.707107 0.707107 
C -0.51958 0.894634 -0.265203 1 0 1 
z
"/>
    </defs>
    <g clip-path="url(#pc18f7d5486)">
     <use xlink:href="#C0_0_82a409deea" x="94.557359" y="243.05356" style="fill: #262626"/>
    </g>
    <g clip-path="url(#pc18f7d5486)">
     <use xlink:href="#C0_0_82a409deea" x="88.408098" y="260.586484" style="fill: #262626"/>
    </g>
    <g clip-path="url(#pc18f7d5486)">
     <use xlink:href="#C0_0_82a409deea" x="88.102723" y="258.632719" style="fill: #262626"/>
    </g>
    <g clip-path="url(#pc18f7d5486)">
     <use xlink:href="#C0_0_82a409deea" x="89.629878" y="261.863566" style="fill: #262626"/>
    </g>
    <g clip-path="url(#pc18f7d5486)">
     <use xlink:href="#C0_0_82a409deea" x="91.818593" y="241.860574" style="fill: #262626"/>
    </g>
    <g clip-path="url(#pc18f7d5486)">
     <use xlink:href="#C0_0_82a409deea" x="84.881496" y="237.91772" style="fill: #262626"/>
    </g>
    <g clip-path="url(#pc18f7d5486)">
     <use xlink:href="#C0_0_82a409deea" x="90.411788" y="264.937659" style="fill: #262626"/>
    </g>
    <g clip-path="url(#pc18f7d5486)">
     <use xlink:href="#C0_0_82a409deea" x="88.60645" y="273.707886" style="fill: #262626"/>
    </g>
    <g clip-path="url(#pc18f7d5486)">
     <use xlink:href="#C0_0_82a409deea" x="91.500635" y="258.441081" style="fill: #262626"/>
    </g>
    <g clip-path="url(#pc18f7d5486)">
     <use xlink:href="#C0_0_82a409deea" x="84.482362" y="253.287262" style="fill: #262626"/>
    </g>
    <g clip-path="url(#pc18f7d5486)">
     <use xlink:href="#C0_0_82a409deea" x="89.915872" y="237.892635" style="fill: #262626"/>
    </g>
    <g clip-path="url(#pc18f7d5486)">
     <use xlink:href="#C0_0_82a409deea" x="87.550399" y="259.7904" style="fill: #262626"/>
    </g>
    <g clip-path="url(#pc18f7d5486)">
     <use xlink:href="#C0_0_82a409deea" x="84.073495" y="262.882852" style="fill: #262626"/>
    </g>
    <g clip-path="url(#pc18f7d5486)">
     <use xlink:href="#C0_0_82a409deea" x="87.462244" y="238.522535" style="fill: #262626"/>
    </g>
    <g clip-path="url(#pc18f7d5486)">
     <use xlink:href="#C0_0_82a409deea" x="93.90798" y="270.988886" style="fill: #262626"/>
    </g>
    <g clip-path="url(#pc18f7d5486)">
     <use xlink:href="#C0_0_82a409deea" x="89.629601" y="241.921722" style="fill: #262626"/>
    </g>
    <g clip-path="url(#pc18f7d5486)">
     <use xlink:href="#C0_0_82a409deea" x="86.114439" y="266.982904" style="fill: #262626"/>
    </g>
    <g clip-path="url(#pc18f7d5486)">
     <use xlink:href="#C0_0_82a409deea" x="84.03484" y="235.900995" style="fill: #262626"/>
    </g>
    <g clip-path="url(#pc18f7d5486)">
     <use xlink:href="#C0_0_82a409deea" x="86.696931" y="255.826083" style="fill: #262626"/>
    </g>
    <g clip-path="url(#pc18f7d5486)">
     <use xlink:href="#C0_0_82a409deea" x="89.207019" y="256.688121" style="fill: #262626"/>
    </g>
    <g clip-path="url(#pc18f7d5486)">
     <use xlink:href="#C0_0_82a409deea" x="82.096367" y="265.031972" style="fill: #262626"/>
    </g>
    <g clip-path="url(#pc18f7d5486)">
     <use xlink:href="#C0_0_82a409deea" x="90.702805" y="263.033954" style="fill: #262626"/>
    </g>
    <g clip-path="url(#pc18f7d5486)">
     <use xlink:href="#C0_0_82a409deea" x="89.731641" y="261.314901" style="fill: #262626"/>
    </g>
    <g clip-path="url(#pc18f7d5486)">
     <use xlink:href="#C0_0_82a409deea" x="92.974277" y="274.890732" style="fill: #262626"/>
    </g>
   </g>
   <g id="PathCollection_4">
    <defs>
     <path id="C1_0_ef49405ca2" d="M 0 1 
C 0.265203 1 0.51958 0.894634 0.707107 0.707107 
C 0.894634 0.51958 1 0.265203 1 -0 
C 1 -0.265203 0.894634 -0.51958 0.707107 -0.707107 
C 0.51958 -0.894634 0.265203 -1 0 -1 
C -0.265203 -1 -0.51958 -0.894634 -0.707107 -0.707107 
C -0.894634 -0.51958 -1 -0.265203 -1 0 
C -1 0.265203 -0.894634 0.51958 -0.707107 0.707107 
C -0.51958 0.894634 -0.265203 1 0 1 
z
"/>
    </defs>
    <g clip-path="url(#pc18f7d5486)">
     <use xlink:href="#C1_0_ef49405ca2" x="140.941732" y="91.419559"/>
    </g>
    <g clip-path="url(#pc18f7d5486)">
     <use xlink:href="#C1_0_ef49405ca2" x="138.462811" y="130.901802"/>
    </g>
    <g clip-path="url(#pc18f7d5486)">
     <use xlink:href="#C1_0_ef49405ca2" x="144.978797" y="33.454959"/>
    </g>
    <g clip-path="url(#pc18f7d5486)">
     <use xlink:href="#C1_0_ef49405ca2" x="139.550573" y="104.072661"/>
    </g>
    <g clip-path="url(#pc18f7d5486)">
     <use xlink:href="#C1_0_ef49405ca2" x="146.804786" y="91.760346"/>
    </g>
    <g clip-path="url(#pc18f7d5486)">
     <use xlink:href="#C1_0_ef49405ca2" x="144.461882" y="145.317217"/>
    </g>
    <g clip-path="url(#pc18f7d5486)">
     <use xlink:href="#C1_0_ef49405ca2" x="146.458987" y="108.628288"/>
    </g>
    <g clip-path="url(#pc18f7d5486)">
     <use xlink:href="#C1_0_ef49405ca2" x="148.326813" y="100.495348"/>
    </g>
    <g clip-path="url(#pc18f7d5486)">
     <use xlink:href="#C1_0_ef49405ca2" x="147.318199" y="93.215742"/>
    </g>
    <g clip-path="url(#pc18f7d5486)">
     <use xlink:href="#C1_0_ef49405ca2" x="145.571902" y="93.432518"/>
    </g>
    <g clip-path="url(#pc18f7d5486)">
     <use xlink:href="#C1_0_ef49405ca2" x="141.125629" y="123.302557"/>
    </g>
    <g clip-path="url(#pc18f7d5486)">
     <use xlink:href="#C1_0_ef49405ca2" x="137.86271" y="172.382798"/>
    </g>
    <g clip-path="url(#pc18f7d5486)">
     <use xlink:href="#C1_0_ef49405ca2" x="140.964222" y="151.834854"/>
    </g>
    <g clip-path="url(#pc18f7d5486)">
     <use xlink:href="#C1_0_ef49405ca2" x="143.589375" y="84.493074"/>
    </g>
    <g clip-path="url(#pc18f7d5486)">
     <use xlink:href="#C1_0_ef49405ca2" x="137.47465" y="131.332283"/>
    </g>
    <g clip-path="url(#pc18f7d5486)">
     <use xlink:href="#C1_0_ef49405ca2" x="138.119878" y="162.048162"/>
    </g>
    <g clip-path="url(#pc18f7d5486)">
     <use xlink:href="#C1_0_ef49405ca2" x="142.877764" y="111.869222"/>
    </g>
    <g clip-path="url(#pc18f7d5486)">
     <use xlink:href="#C1_0_ef49405ca2" x="147.265613" y="140.017273"/>
    </g>
    <g clip-path="url(#pc18f7d5486)">
     <use xlink:href="#C1_0_ef49405ca2" x="143.46649" y="96.870985"/>
    </g>
    <g clip-path="url(#pc18f7d5486)">
     <use xlink:href="#C1_0_ef49405ca2" x="143.681319" y="124.464776"/>
    </g>
    <g clip-path="url(#pc18f7d5486)">
     <use xlink:href="#C1_0_ef49405ca2" x="145.547701" y="123.577357"/>
    </g>
   </g>
   <g id="PathCollection_5">
    <defs>
     <path id="C2_0_d858711c77" d="M 0 1 
C 0.265203 1 0.51958 0.894634 0.707107 0.707107 
C 0.894634 0.51958 1 0.265203 1 -0 
C 1 -0.265203 0.894634 -0.51958 0.707107 -0.707107 
C 0.51958 -0.894634 0.265203 -1 0 -1 
C -0.265203 -1 -0.51958 -0.894634 -0.707107 -0.707107 
C -0.894634 -0.51958 -1 -0.265203 -1 0 
C -1 0.265203 -0.894634 0.51958 -0.707107 0.707107 
C -0.51958 0.894634 -0.265203 1 0 1 
z
"/>
    </defs>
    <g clip-path="url(#pc18f7d5486)">
     <use xlink:href="#C2_0_d858711c77" x="227.030401" y="259.646168" style="fill: #262626"/>
    </g>
    <g clip-path="url(#pc18f7d5486)">
     <use xlink:href="#C2_0_d858711c77" x="216.315396" y="270.931194" style="fill: #262626"/>
    </g>
    <g clip-path="url(#pc18f7d5486)">
     <use xlink:href="#C2_0_d858711c77" x="225.497431" y="268.605974" style="fill: #262626"/>
    </g>
    <g clip-path="url(#pc18f7d5486)">
     <use xlink:href="#C2_0_d858711c77" x="218.283074" y="248.444616" style="fill: #262626"/>
    </g>
    <g clip-path="url(#pc18f7d5486)">
     <use xlink:href="#C2_0_d858711c77" x="216.425481" y="256.525273" style="fill: #262626"/>
    </g>
    <g clip-path="url(#pc18f7d5486)">
     <use xlink:href="#C2_0_d858711c77" x="217.788261" y="244.156428" style="fill: #262626"/>
    </g>
    <g clip-path="url(#pc18f7d5486)">
     <use xlink:href="#C2_0_d858711c77" x="228.544937" y="197.037948" style="fill: #262626"/>
    </g>
    <g clip-path="url(#pc18f7d5486)">
     <use xlink:href="#C2_0_d858711c77" x="216.185172" y="267.664262" style="fill: #262626"/>
    </g>
    <g clip-path="url(#pc18f7d5486)">
     <use xlink:href="#C2_0_d858711c77" x="216.370687" y="255.238003" style="fill: #262626"/>
    </g>
    <g clip-path="url(#pc18f7d5486)">
     <use xlink:href="#C2_0_d858711c77" x="218.214832" y="146.370853" style="fill: #262626"/>
    </g>
   </g>
   <g id="PathCollection_6">
    <defs>
     <path id="C3_0_f106e470a5" d="M 0 1 
C 0.265203 1 0.51958 0.894634 0.707107 0.707107 
C 0.894634 0.51958 1 0.265203 1 -0 
C 1 -0.265203 0.894634 -0.51958 0.707107 -0.707107 
C 0.51958 -0.894634 0.265203 -1 0 -1 
C -0.265203 -1 -0.51958 -0.894634 -0.707107 -0.707107 
C -0.894634 -0.51958 -1 -0.265203 -1 0 
C -1 0.265203 -0.894634 0.51958 -0.707107 0.707107 
C -0.51958 0.894634 -0.265203 1 0 1 
z
"/>
    </defs>
    <g clip-path="url(#pc18f7d5486)">
     <use xlink:href="#C3_0_f106e470a5" x="276.96112" y="156.8665"/>
    </g>
    <g clip-path="url(#pc18f7d5486)">
     <use xlink:href="#C3_0_f106e470a5" x="282.128668" y="197.090189"/>
    </g>
    <g clip-path="url(#pc18f7d5486)">
     <use xlink:href="#C3_0_f106e470a5" x="272.88571" y="97.993746"/>
    </g>
    <g clip-path="url(#pc18f7d5486)">
     <use xlink:href="#C3_0_f106e470a5" x="276.301048" y="156.780914"/>
    </g>
   </g>
   <g id="PathCollection_7">
    <defs>
     <path id="C4_0_9c6d1a7789" d="M 0 1 
C 0.265203 1 0.51958 0.894634 0.707107 0.707107 
C 0.894634 0.51958 1 0.265203 1 -0 
C 1 -0.265203 0.894634 -0.51958 0.707107 -0.707107 
C 0.51958 -0.894634 0.265203 -1 0 -1 
C -0.265203 -1 -0.51958 -0.894634 -0.707107 -0.707107 
C -0.894634 -0.51958 -1 -0.265203 -1 0 
C -1 0.265203 -0.894634 0.51958 -0.707107 0.707107 
C -0.51958 0.894634 -0.265203 1 0 1 
z
"/>
    </defs>
    <g clip-path="url(#pc18f7d5486)">
     <use xlink:href="#C4_0_9c6d1a7789" x="350.666056" y="179.453514" style="fill: #262626"/>
    </g>
    <g clip-path="url(#pc18f7d5486)">
     <use xlink:href="#C4_0_9c6d1a7789" x="352.036941" y="249.806408" style="fill: #262626"/>
    </g>
    <g clip-path="url(#pc18f7d5486)">
     <use xlink:href="#C4_0_9c6d1a7789" x="350.462804" y="278.018603" style="fill: #262626"/>
    </g>
    <g clip-path="url(#pc18f7d5486)">
     <use xlink:href="#C4_0_9c6d1a7789" x="357.275257" y="223.405631" style="fill: #262626"/>
    </g>
    <g clip-path="url(#pc18f7d5486)">
     <use xlink:href="#C4_0_9c6d1a7789" x="349.554106" y="267.483843" style="fill: #262626"/>
    </g>
    <g clip-path="url(#pc18f7d5486)">
     <use xlink:href="#C4_0_9c6d1a7789" x="362.009142" y="197.47848" style="fill: #262626"/>
    </g>
    <g clip-path="url(#pc18f7d5486)">
     <use xlink:href="#C4_0_9c6d1a7789" x="354.465575" y="255.585052" style="fill: #262626"/>
    </g>
    <g clip-path="url(#pc18f7d5486)">
     <use xlink:href="#C4_0_9c6d1a7789" x="360.93233" y="236.975718" style="fill: #262626"/>
    </g>
    <g clip-path="url(#pc18f7d5486)">
     <use xlink:href="#C4_0_9c6d1a7789" x="350.222932" y="262.108089" style="fill: #262626"/>
    </g>
    <g clip-path="url(#pc18f7d5486)">
     <use xlink:href="#C4_0_9c6d1a7789" x="352.621073" y="237.431107" style="fill: #262626"/>
    </g>
    <g clip-path="url(#pc18f7d5486)">
     <use xlink:href="#C4_0_9c6d1a7789" x="354.829071" y="265.37146" style="fill: #262626"/>
    </g>
    <g clip-path="url(#pc18f7d5486)">
     <use xlink:href="#C4_0_9c6d1a7789" x="349.654733" y="223.520648" style="fill: #262626"/>
    </g>
    <g clip-path="url(#pc18f7d5486)">
     <use xlink:href="#C4_0_9c6d1a7789" x="352.28923" y="246.112627" style="fill: #262626"/>
    </g>
    <g clip-path="url(#pc18f7d5486)">
     <use xlink:href="#C4_0_9c6d1a7789" x="354.406412" y="259.869889" style="fill: #262626"/>
    </g>
    <g clip-path="url(#pc18f7d5486)">
     <use xlink:href="#C4_0_9c6d1a7789" x="354.70633" y="208.877576" style="fill: #262626"/>
    </g>
    <g clip-path="url(#pc18f7d5486)">
     <use xlink:href="#C4_0_9c6d1a7789" x="351.887415" y="234.701147" style="fill: #262626"/>
    </g>
    <g clip-path="url(#pc18f7d5486)">
     <use xlink:href="#C4_0_9c6d1a7789" x="354.923851" y="234.503628" style="fill: #262626"/>
    </g>
    <g clip-path="url(#pc18f7d5486)">
     <use xlink:href="#C4_0_9c6d1a7789" x="356.16596" y="265.631998" style="fill: #262626"/>
    </g>
    <g clip-path="url(#pc18f7d5486)">
     <use xlink:href="#C4_0_9c6d1a7789" x="357.868946" y="256.192824" style="fill: #262626"/>
    </g>
   </g>
   <g id="PathCollection_8">
    <defs>
     <path id="C5_0_c2be24f642" d="M 0 1 
C 0.265203 1 0.51958 0.894634 0.707107 0.707107 
C 0.894634 0.51958 1 0.265203 1 -0 
C 1 -0.265203 0.894634 -0.51958 0.707107 -0.707107 
C 0.51958 -0.894634 0.265203 -1 0 -1 
C -0.265203 -1 -0.51958 -0.894634 -0.707107 -0.707107 
C -0.894634 -0.51958 -1 -0.265203 -1 0 
C -1 0.265203 -0.894634 0.51958 -0.707107 0.707107 
C -0.51958 0.894634 -0.265203 1 0 1 
z
"/>
    </defs>
    <g clip-path="url(#pc18f7d5486)">
     <use xlink:href="#C5_0_c2be24f642" x="409.726427" y="195.316398"/>
    </g>
    <g clip-path="url(#pc18f7d5486)">
     <use xlink:href="#C5_0_c2be24f642" x="404.776131" y="86.495013"/>
    </g>
    <g clip-path="url(#pc18f7d5486)">
     <use xlink:href="#C5_0_c2be24f642" x="403.643681" y="124.036114"/>
    </g>
    <g clip-path="url(#pc18f7d5486)">
     <use xlink:href="#C5_0_c2be24f642" x="410.139882" y="166.894713"/>
    </g>
    <g clip-path="url(#pc18f7d5486)">
     <use xlink:href="#C5_0_c2be24f642" x="414.834224" y="113.55933"/>
    </g>
    <g clip-path="url(#pc18f7d5486)">
     <use xlink:href="#C5_0_c2be24f642" x="403.616091" y="126.771294"/>
    </g>
    <g clip-path="url(#pc18f7d5486)">
     <use xlink:href="#C5_0_c2be24f642" x="413.573576" y="99.038789"/>
    </g>
    <g clip-path="url(#pc18f7d5486)">
     <use xlink:href="#C5_0_c2be24f642" x="414.313576" y="67.240208"/>
    </g>
    <g clip-path="url(#pc18f7d5486)">
     <use xlink:href="#C5_0_c2be24f642" x="414.5422" y="70.918478"/>
    </g>
    <g clip-path="url(#pc18f7d5486)">
     <use xlink:href="#C5_0_c2be24f642" x="408.136484" y="113.467582"/>
    </g>
   </g>
   <g id="text_15">
    <!-- 24 -->
    <g style="fill: #262626" transform="translate(94.732167 18.72)scale(0.1 -0.1)">
     <use xlink:href="#DejaVuSans-32"/>
     <use xlink:href="#DejaVuSans-34" x="63.623047"/>
    </g>
   </g>
   <g id="text_16">
    <!-- p&lt;.005 -->
    <g style="fill: #262626" transform="translate(79.934667 227.267056)scale(0.08 -0.08)">
     <defs>
      <path id="DejaVuSans-3c" d="M 4684 3150 
L 1459 2003 
L 4684 863 
L 4684 294 
L 678 1747 
L 678 2266 
L 4684 3719 
L 4684 3150 
z
" transform="scale(0.015625)"/>
     </defs>
     <use xlink:href="#DejaVuSans-70"/>
     <use xlink:href="#DejaVuSans-3c" x="63.476562"/>
     <use xlink:href="#DejaVuSans-2e" x="147.265625"/>
     <use xlink:href="#DejaVuSans-30" x="179.052734"/>
     <use xlink:href="#DejaVuSans-30" x="242.675781"/>
     <use xlink:href="#DejaVuSans-35" x="306.298828"/>
    </g>
   </g>
   <g id="text_17">
    <!-- 21 -->
    <g style="fill: #262626" transform="translate(134.951167 18.72)scale(0.1 -0.1)">
     <use xlink:href="#DejaVuSans-32"/>
     <use xlink:href="#DejaVuSans-31" x="63.623047"/>
    </g>
   </g>
   <g id="text_18">
    <!-- 10 -->
    <g style="fill: #262626" transform="translate(228.7955 18.72)scale(0.1 -0.1)">
     <use xlink:href="#DejaVuSans-31"/>
     <use xlink:href="#DejaVuSans-30" x="63.623047"/>
    </g>
   </g>
   <g id="text_19">
    <!-- p&lt;.005 -->
    <g style="fill: #262626" transform="translate(213.998 137.736913)scale(0.08 -0.08)">
     <use xlink:href="#DejaVuSans-70"/>
     <use xlink:href="#DejaVuSans-3c" x="63.476562"/>
     <use xlink:href="#DejaVuSans-2e" x="147.265625"/>
     <use xlink:href="#DejaVuSans-30" x="179.052734"/>
     <use xlink:href="#DejaVuSans-30" x="242.675781"/>
     <use xlink:href="#DejaVuSans-35" x="306.298828"/>
    </g>
   </g>
   <g id="text_20">
    <!-- 4 -->
    <g style="fill: #262626" transform="translate(269.0145 18.72)scale(0.1 -0.1)">
     <use xlink:href="#DejaVuSans-34"/>
    </g>
   </g>
   <g id="text_21">
    <!-- 19 -->
    <g style="fill: #262626" transform="translate(362.858833 18.72)scale(0.1 -0.1)">
     <defs>
      <path id="DejaVuSans-39" d="M 703 97 
L 703 672 
Q 941 559 1184 500 
Q 1428 441 1663 441 
Q 2288 441 2617 861 
Q 2947 1281 2994 2138 
Q 2813 1869 2534 1725 
Q 2256 1581 1919 1581 
Q 1219 1581 811 2004 
Q 403 2428 403 3163 
Q 403 3881 828 4315 
Q 1253 4750 1959 4750 
Q 2769 4750 3195 4129 
Q 3622 3509 3622 2328 
Q 3622 1225 3098 567 
Q 2575 -91 1691 -91 
Q 1453 -91 1209 -44 
Q 966 3 703 97 
z
M 1959 2075 
Q 2384 2075 2632 2365 
Q 2881 2656 2881 3163 
Q 2881 3666 2632 3958 
Q 2384 4250 1959 4250 
Q 1534 4250 1286 3958 
Q 1038 3666 1038 3163 
Q 1038 2656 1286 2365 
Q 1534 2075 1959 2075 
z
" transform="scale(0.015625)"/>
     </defs>
     <use xlink:href="#DejaVuSans-31"/>
     <use xlink:href="#DejaVuSans-39" x="63.623047"/>
    </g>
   </g>
   <g id="text_22">
    <!-- p&lt;.005 -->
    <g style="fill: #262626" transform="translate(348.061333 170.819575)scale(0.08 -0.08)">
     <use xlink:href="#DejaVuSans-70"/>
     <use xlink:href="#DejaVuSans-3c" x="63.476562"/>
     <use xlink:href="#DejaVuSans-2e" x="147.265625"/>
     <use xlink:href="#DejaVuSans-30" x="179.052734"/>
     <use xlink:href="#DejaVuSans-30" x="242.675781"/>
     <use xlink:href="#DejaVuSans-35" x="306.298828"/>
    </g>
   </g>
   <g id="text_23">
    <!-- 10 -->
    <g style="fill: #262626" transform="translate(403.077833 18.72)scale(0.1 -0.1)">
     <use xlink:href="#DejaVuSans-31"/>
     <use xlink:href="#DejaVuSans-30" x="63.623047"/>
    </g>
   </g>
   <g id="legend_1">
    <g id="patch_15">
     <path d="M 377.728125 43.952377 
L 397.728125 43.952377 
L 397.728125 36.952377 
L 377.728125 36.952377 
z
" style="fill: #ecf2ec; stroke: #262626; stroke-width: 0.75; stroke-linejoin: miter"/>
    </g>
    <g id="text_24">
     <!-- Mutant -->
     <g style="fill: #262626" transform="translate(405.728125 43.952377)scale(0.1 -0.1)">
      <defs>
       <path id="DejaVuSans-4d" d="M 628 4666 
L 1569 4666 
L 2759 1491 
L 3956 4666 
L 4897 4666 
L 4897 0 
L 4281 0 
L 4281 4097 
L 3078 897 
L 2444 897 
L 1241 4097 
L 1241 0 
L 628 0 
L 628 4666 
z
" transform="scale(0.015625)"/>
       <path id="DejaVuSans-61" d="M 2194 1759 
Q 1497 1759 1228 1600 
Q 959 1441 959 1056 
Q 959 750 1161 570 
Q 1363 391 1709 391 
Q 2188 391 2477 730 
Q 2766 1069 2766 1631 
L 2766 1759 
L 2194 1759 
z
M 3341 1997 
L 3341 0 
L 2766 0 
L 2766 531 
Q 2569 213 2275 61 
Q 1981 -91 1556 -91 
Q 1019 -91 701 211 
Q 384 513 384 1019 
Q 384 1609 779 1909 
Q 1175 2209 1959 2209 
L 2766 2209 
L 2766 2266 
Q 2766 2663 2505 2880 
Q 2244 3097 1772 3097 
Q 1472 3097 1187 3025 
Q 903 2953 641 2809 
L 641 3341 
Q 956 3463 1253 3523 
Q 1550 3584 1831 3584 
Q 2591 3584 2966 3190 
Q 3341 2797 3341 1997 
z
" transform="scale(0.015625)"/>
      </defs>
      <use xlink:href="#DejaVuSans-4d"/>
      <use xlink:href="#DejaVuSans-75" x="86.279297"/>
      <use xlink:href="#DejaVuSans-74" x="149.658203"/>
      <use xlink:href="#DejaVuSans-61" x="188.867188"/>
      <use xlink:href="#DejaVuSans-6e" x="250.146484"/>
      <use xlink:href="#DejaVuSans-74" x="313.525391"/>
     </g>
    </g>
    <g id="patch_16">
     <path d="M 377.728125 58.630502 
L 397.728125 58.630502 
L 397.728125 51.630502 
L 377.728125 51.630502 
z
" style="fill: #107010; stroke: #262626; stroke-width: 0.75; stroke-linejoin: miter"/>
    </g>
    <g id="text_25">
     <!-- WT -->
     <g style="fill: #262626" transform="translate(405.728125 58.630502)scale(0.1 -0.1)">
      <defs>
       <path id="DejaVuSans-57" d="M 213 4666 
L 850 4666 
L 1831 722 
L 2809 4666 
L 3519 4666 
L 4500 722 
L 5478 4666 
L 6119 4666 
L 4947 0 
L 4153 0 
L 3169 4050 
L 2175 0 
L 1381 0 
L 213 4666 
z
" transform="scale(0.015625)"/>
       <path id="DejaVuSans-54" d="M -19 4666 
L 3928 4666 
L 3928 4134 
L 2272 4134 
L 2272 0 
L 1638 0 
L 1638 4134 
L -19 4134 
L -19 4666 
z
" transform="scale(0.015625)"/>
      </defs>
      <use xlink:href="#DejaVuSans-57"/>
      <use xlink:href="#DejaVuSans-54" x="98.876953"/>
     </g>
    </g>
   </g>
  </g>
 </g>
 <defs>
  <clipPath id="pc18f7d5486">
   <rect x="47.81" y="27.353939" width="402.19" height="276.286061"/>
  </clipPath>
 </defs>
</svg>
