<?xml version="1.0" encoding="utf-8" standalone="no"?>
<!DOCTYPE svg PUBLIC "-//W3C//DTD SVG 1.1//EN"
  "http://www.w3.org/Graphics/SVG/1.1/DTD/svg11.dtd">
<svg xmlns:xlink="http://www.w3.org/1999/xlink" width="460.8pt" height="345.6pt" viewBox="0 0 460.8 345.6" xmlns="http://www.w3.org/2000/svg" version="1.1">
 <metadata>
  <rdf:RDF xmlns:dc="http://purl.org/dc/elements/1.1/" xmlns:cc="http://creativecommons.org/ns#" xmlns:rdf="http://www.w3.org/1999/02/22-rdf-syntax-ns#">
   <cc:Work>
    <dc:type rdf:resource="http://purl.org/dc/dcmitype/StillImage"/>
    <dc:date>2024-02-15T21:00:05.903910</dc:date>
    <dc:format>image/svg+xml</dc:format>
    <dc:creator>
     <cc:Agent>
      <dc:title>Matplotlib v3.5.3, https://matplotlib.org/</dc:title>
     </cc:Agent>
    </dc:creator>
   </cc:Work>
  </rdf:RDF>
 </metadata>
 <defs>
  <style type="text/css">*{stroke-linejoin: round; stroke-linecap: butt}</style>
 </defs>
 <g id="figure_1">
  <g id="patch_1">
   <path d="M 0 345.6 
L 460.8 345.6 
L 460.8 0 
L 0 0 
z
" style="fill: #ffffff"/>
  </g>
  <g id="axes_1">
   <g id="patch_2">
    <path d="M 54.12125 303.64 
L 450 303.64 
L 450 46.673817 
L 54.12125 46.673817 
z
" style="fill: #ffffff"/>
   </g>
   <g id="PathCollection_1">
    <defs>
     <path id="mf16279cf4c" d="M 0 3 
C 0.795609 3 1.55874 2.683901 2.12132 2.12132 
C 2.683901 1.55874 3 0.795609 3 0 
C 3 -0.795609 2.683901 -1.55874 2.12132 -2.12132 
C 1.55874 -2.683901 0.795609 -3 0 -3 
C -0.795609 -3 -1.55874 -2.683901 -2.12132 -2.12132 
C -2.683901 -1.55874 -3 -0.795609 -3 0 
C -3 0.795609 -2.683901 1.55874 -2.12132 2.12132 
C -1.55874 2.683901 -0.795609 3 0 3 
z
" style="stroke: #1f77b4"/>
    </defs>
    <g clip-path="url(#pe98fbf1255)">
     <use xlink:href="#mf16279cf4c" x="106.115188" y="139.361503" style="fill: #1f77b4; stroke: #1f77b4"/>
     <use xlink:href="#mf16279cf4c" x="173.504922" y="181.422913" style="fill: #1f77b4; stroke: #1f77b4"/>
     <use xlink:href="#mf16279cf4c" x="213.920894" y="168.556635" style="fill: #1f77b4; stroke: #1f77b4"/>
     <use xlink:href="#mf16279cf4c" x="178.366048" y="172.415107" style="fill: #1f77b4; stroke: #1f77b4"/>
     <use xlink:href="#mf16279cf4c" x="162.783644" y="165.34721" style="fill: #1f77b4; stroke: #1f77b4"/>
     <use xlink:href="#mf16279cf4c" x="188.837569" y="230.06769" style="fill: #1f77b4; stroke: #1f77b4"/>
     <use xlink:href="#mf16279cf4c" x="313.427762" y="175.922517" style="fill: #1f77b4; stroke: #1f77b4"/>
     <use xlink:href="#mf16279cf4c" x="220.363814" y="197.51645" style="fill: #1f77b4; stroke: #1f77b4"/>
     <use xlink:href="#mf16279cf4c" x="284.358477" y="183.570029" style="fill: #1f77b4; stroke: #1f77b4"/>
     <use xlink:href="#mf16279cf4c" x="196.88665" y="270.466788" style="fill: #1f77b4; stroke: #1f77b4"/>
     <use xlink:href="#mf16279cf4c" x="218.790142" y="136.232443" style="fill: #1f77b4; stroke: #1f77b4"/>
     <use xlink:href="#mf16279cf4c" x="154.643188" y="150.101382" style="fill: #1f77b4; stroke: #1f77b4"/>
     <use xlink:href="#mf16279cf4c" x="72.115739" y="252.572111" style="fill: #1f77b4; stroke: #1f77b4"/>
     <use xlink:href="#mf16279cf4c" x="260.442716" y="218.482337" style="fill: #1f77b4; stroke: #1f77b4"/>
     <use xlink:href="#mf16279cf4c" x="179.657474" y="203.002851" style="fill: #1f77b4; stroke: #1f77b4"/>
     <use xlink:href="#mf16279cf4c" x="218.124123" y="194.217982" style="fill: #1f77b4; stroke: #1f77b4"/>
     <use xlink:href="#mf16279cf4c" x="268.98928" y="124.590393" style="fill: #1f77b4; stroke: #1f77b4"/>
     <use xlink:href="#mf16279cf4c" x="337.483632" y="228.397396" style="fill: #1f77b4; stroke: #1f77b4"/>
     <use xlink:href="#mf16279cf4c" x="168.006206" y="164.139933" style="fill: #1f77b4; stroke: #1f77b4"/>
     <use xlink:href="#mf16279cf4c" x="378.009253" y="268.684799" style="fill: #1f77b4; stroke: #1f77b4"/>
     <use xlink:href="#mf16279cf4c" x="395.522705" y="140.023778" style="fill: #1f77b4; stroke: #1f77b4"/>
     <use xlink:href="#mf16279cf4c" x="208.972456" y="148.246849" style="fill: #1f77b4; stroke: #1f77b4"/>
     <use xlink:href="#mf16279cf4c" x="180.195569" y="110.408191" style="fill: #1f77b4; stroke: #1f77b4"/>
     <use xlink:href="#mf16279cf4c" x="260.688412" y="126.030625" style="fill: #1f77b4; stroke: #1f77b4"/>
     <use xlink:href="#mf16279cf4c" x="328.086268" y="153.064001" style="fill: #1f77b4; stroke: #1f77b4"/>
     <use xlink:href="#mf16279cf4c" x="287.432723" y="136.125816" style="fill: #1f77b4; stroke: #1f77b4"/>
     <use xlink:href="#mf16279cf4c" x="279.885186" y="203.792985" style="fill: #1f77b4; stroke: #1f77b4"/>
     <use xlink:href="#mf16279cf4c" x="340.239081" y="252.497561" style="fill: #1f77b4; stroke: #1f77b4"/>
     <use xlink:href="#mf16279cf4c" x="309.027571" y="246.85026" style="fill: #1f77b4; stroke: #1f77b4"/>
     <use xlink:href="#mf16279cf4c" x="344.019957" y="264.410407" style="fill: #1f77b4; stroke: #1f77b4"/>
     <use xlink:href="#mf16279cf4c" x="355.021451" y="159.489762" style="fill: #1f77b4; stroke: #1f77b4"/>
     <use xlink:href="#mf16279cf4c" x="296.539718" y="188.450721" style="fill: #1f77b4; stroke: #1f77b4"/>
     <use xlink:href="#mf16279cf4c" x="283.032531" y="263.173663" style="fill: #1f77b4; stroke: #1f77b4"/>
     <use xlink:href="#mf16279cf4c" x="175.141542" y="193.619548" style="fill: #1f77b4; stroke: #1f77b4"/>
     <use xlink:href="#mf16279cf4c" x="306.777727" y="252.958936" style="fill: #1f77b4; stroke: #1f77b4"/>
     <use xlink:href="#mf16279cf4c" x="233.282143" y="161.554278" style="fill: #1f77b4; stroke: #1f77b4"/>
     <use xlink:href="#mf16279cf4c" x="416.597734" y="213.145008" style="fill: #1f77b4; stroke: #1f77b4"/>
     <use xlink:href="#mf16279cf4c" x="384.40344" y="226.89003" style="fill: #1f77b4; stroke: #1f77b4"/>
     <use xlink:href="#mf16279cf4c" x="326.246594" y="248.227517" style="fill: #1f77b4; stroke: #1f77b4"/>
     <use xlink:href="#mf16279cf4c" x="426.023525" y="269.45991" style="fill: #1f77b4; stroke: #1f77b4"/>
     <use xlink:href="#mf16279cf4c" x="403.6591" y="211.605892" style="fill: #1f77b4; stroke: #1f77b4"/>
     <use xlink:href="#mf16279cf4c" x="370.835337" y="166.050938" style="fill: #1f77b4; stroke: #1f77b4"/>
     <use xlink:href="#mf16279cf4c" x="275.72866" y="241.104084" style="fill: #1f77b4; stroke: #1f77b4"/>
     <use xlink:href="#mf16279cf4c" x="432.005511" y="276.190696" style="fill: #1f77b4; stroke: #1f77b4"/>
     <use xlink:href="#mf16279cf4c" x="371.247537" y="106.889823" style="fill: #1f77b4; stroke: #1f77b4"/>
    </g>
   </g>
   <g id="matplotlib.axis_1">
    <g id="xtick_1">
     <g id="line2d_1">
      <defs>
       <path id="m633ddd7b1e" d="M 0 0 
L 0 3.5 
" style="stroke: #000000; stroke-width: 0.8"/>
      </defs>
      <g>
       <use xlink:href="#m633ddd7b1e" x="57.205445" y="303.64" style="stroke: #000000; stroke-width: 0.8"/>
      </g>
     </g>
     <g id="text_1">
      <!-- −17.5 -->
      <g transform="translate(41.882789 318.238437)scale(0.1 -0.1)">
       <defs>
        <path id="DejaVuSans-2212" d="M 678 2272 
L 4684 2272 
L 4684 1741 
L 678 1741 
L 678 2272 
z
" transform="scale(0.015625)"/>
        <path id="DejaVuSans-31" d="M 794 531 
L 1825 531 
L 1825 4091 
L 703 3866 
L 703 4441 
L 1819 4666 
L 2450 4666 
L 2450 531 
L 3481 531 
L 3481 0 
L 794 0 
L 794 531 
z
" transform="scale(0.015625)"/>
        <path id="DejaVuSans-37" d="M 525 4666 
L 3525 4666 
L 3525 4397 
L 1831 0 
L 1172 0 
L 2766 4134 
L 525 4134 
L 525 4666 
z
" transform="scale(0.015625)"/>
        <path id="DejaVuSans-2e" d="M 684 794 
L 1344 794 
L 1344 0 
L 684 0 
L 684 794 
z
" transform="scale(0.015625)"/>
        <path id="DejaVuSans-35" d="M 691 4666 
L 3169 4666 
L 3169 4134 
L 1269 4134 
L 1269 2991 
Q 1406 3038 1543 3061 
Q 1681 3084 1819 3084 
Q 2600 3084 3056 2656 
Q 3513 2228 3513 1497 
Q 3513 744 3044 326 
Q 2575 -91 1722 -91 
Q 1428 -91 1123 -41 
Q 819 9 494 109 
L 494 744 
Q 775 591 1075 516 
Q 1375 441 1709 441 
Q 2250 441 2565 725 
Q 2881 1009 2881 1497 
Q 2881 1984 2565 2268 
Q 2250 2553 1709 2553 
Q 1456 2553 1204 2497 
Q 953 2441 691 2322 
L 691 4666 
z
" transform="scale(0.015625)"/>
       </defs>
       <use xlink:href="#DejaVuSans-2212"/>
       <use xlink:href="#DejaVuSans-31" x="83.789062"/>
       <use xlink:href="#DejaVuSans-37" x="147.412109"/>
       <use xlink:href="#DejaVuSans-2e" x="211.035156"/>
       <use xlink:href="#DejaVuSans-35" x="242.822266"/>
      </g>
     </g>
    </g>
    <g id="xtick_2">
     <g id="line2d_2">
      <g>
       <use xlink:href="#m633ddd7b1e" x="107.969075" y="303.64" style="stroke: #000000; stroke-width: 0.8"/>
      </g>
     </g>
     <g id="text_2">
      <!-- −15.0 -->
      <g transform="translate(92.646419 318.238437)scale(0.1 -0.1)">
       <defs>
        <path id="DejaVuSans-30" d="M 2034 4250 
Q 1547 4250 1301 3770 
Q 1056 3291 1056 2328 
Q 1056 1369 1301 889 
Q 1547 409 2034 409 
Q 2525 409 2770 889 
Q 3016 1369 3016 2328 
Q 3016 3291 2770 3770 
Q 2525 4250 2034 4250 
z
M 2034 4750 
Q 2819 4750 3233 4129 
Q 3647 3509 3647 2328 
Q 3647 1150 3233 529 
Q 2819 -91 2034 -91 
Q 1250 -91 836 529 
Q 422 1150 422 2328 
Q 422 3509 836 4129 
Q 1250 4750 2034 4750 
z
" transform="scale(0.015625)"/>
       </defs>
       <use xlink:href="#DejaVuSans-2212"/>
       <use xlink:href="#DejaVuSans-31" x="83.789062"/>
       <use xlink:href="#DejaVuSans-35" x="147.412109"/>
       <use xlink:href="#DejaVuSans-2e" x="211.035156"/>
       <use xlink:href="#DejaVuSans-30" x="242.822266"/>
      </g>
     </g>
    </g>
    <g id="xtick_3">
     <g id="line2d_3">
      <g>
       <use xlink:href="#m633ddd7b1e" x="158.732706" y="303.64" style="stroke: #000000; stroke-width: 0.8"/>
      </g>
     </g>
     <g id="text_3">
      <!-- −12.5 -->
      <g transform="translate(143.41005 318.238437)scale(0.1 -0.1)">
       <defs>
        <path id="DejaVuSans-32" d="M 1228 531 
L 3431 531 
L 3431 0 
L 469 0 
L 469 531 
Q 828 903 1448 1529 
Q 2069 2156 2228 2338 
Q 2531 2678 2651 2914 
Q 2772 3150 2772 3378 
Q 2772 3750 2511 3984 
Q 2250 4219 1831 4219 
Q 1534 4219 1204 4116 
Q 875 4013 500 3803 
L 500 4441 
Q 881 4594 1212 4672 
Q 1544 4750 1819 4750 
Q 2544 4750 2975 4387 
Q 3406 4025 3406 3419 
Q 3406 3131 3298 2873 
Q 3191 2616 2906 2266 
Q 2828 2175 2409 1742 
Q 1991 1309 1228 531 
z
" transform="scale(0.015625)"/>
       </defs>
       <use xlink:href="#DejaVuSans-2212"/>
       <use xlink:href="#DejaVuSans-31" x="83.789062"/>
       <use xlink:href="#DejaVuSans-32" x="147.412109"/>
       <use xlink:href="#DejaVuSans-2e" x="211.035156"/>
       <use xlink:href="#DejaVuSans-35" x="242.822266"/>
      </g>
     </g>
    </g>
    <g id="xtick_4">
     <g id="line2d_4">
      <g>
       <use xlink:href="#m633ddd7b1e" x="209.496336" y="303.64" style="stroke: #000000; stroke-width: 0.8"/>
      </g>
     </g>
     <g id="text_4">
      <!-- −10.0 -->
      <g transform="translate(194.17368 318.238437)scale(0.1 -0.1)">
       <use xlink:href="#DejaVuSans-2212"/>
       <use xlink:href="#DejaVuSans-31" x="83.789062"/>
       <use xlink:href="#DejaVuSans-30" x="147.412109"/>
       <use xlink:href="#DejaVuSans-2e" x="211.035156"/>
       <use xlink:href="#DejaVuSans-30" x="242.822266"/>
      </g>
     </g>
    </g>
    <g id="xtick_5">
     <g id="line2d_5">
      <g>
       <use xlink:href="#m633ddd7b1e" x="260.259967" y="303.64" style="stroke: #000000; stroke-width: 0.8"/>
      </g>
     </g>
     <g id="text_5">
      <!-- −7.5 -->
      <g transform="translate(248.11856 318.238437)scale(0.1 -0.1)">
       <use xlink:href="#DejaVuSans-2212"/>
       <use xlink:href="#DejaVuSans-37" x="83.789062"/>
       <use xlink:href="#DejaVuSans-2e" x="147.412109"/>
       <use xlink:href="#DejaVuSans-35" x="179.199219"/>
      </g>
     </g>
    </g>
    <g id="xtick_6">
     <g id="line2d_6">
      <g>
       <use xlink:href="#m633ddd7b1e" x="311.023597" y="303.64" style="stroke: #000000; stroke-width: 0.8"/>
      </g>
     </g>
     <g id="text_6">
      <!-- −5.0 -->
      <g transform="translate(298.882191 318.238437)scale(0.1 -0.1)">
       <use xlink:href="#DejaVuSans-2212"/>
       <use xlink:href="#DejaVuSans-35" x="83.789062"/>
       <use xlink:href="#DejaVuSans-2e" x="147.412109"/>
       <use xlink:href="#DejaVuSans-30" x="179.199219"/>
      </g>
     </g>
    </g>
    <g id="xtick_7">
     <g id="line2d_7">
      <g>
       <use xlink:href="#m633ddd7b1e" x="361.787227" y="303.64" style="stroke: #000000; stroke-width: 0.8"/>
      </g>
     </g>
     <g id="text_7">
      <!-- −2.5 -->
      <g transform="translate(349.645821 318.238437)scale(0.1 -0.1)">
       <use xlink:href="#DejaVuSans-2212"/>
       <use xlink:href="#DejaVuSans-32" x="83.789062"/>
       <use xlink:href="#DejaVuSans-2e" x="147.412109"/>
       <use xlink:href="#DejaVuSans-35" x="179.199219"/>
      </g>
     </g>
    </g>
    <g id="xtick_8">
     <g id="line2d_8">
      <g>
       <use xlink:href="#m633ddd7b1e" x="412.550858" y="303.64" style="stroke: #000000; stroke-width: 0.8"/>
      </g>
     </g>
     <g id="text_8">
      <!-- 0.0 -->
      <g transform="translate(404.599295 318.238437)scale(0.1 -0.1)">
       <use xlink:href="#DejaVuSans-30"/>
       <use xlink:href="#DejaVuSans-2e" x="63.623047"/>
       <use xlink:href="#DejaVuSans-30" x="95.410156"/>
      </g>
     </g>
    </g>
    <g id="text_9">
     <!-- HBONDDiff -->
     <g transform="translate(224.671562 331.916562)scale(0.1 -0.1)">
      <defs>
       <path id="DejaVuSans-48" d="M 628 4666 
L 1259 4666 
L 1259 2753 
L 3553 2753 
L 3553 4666 
L 4184 4666 
L 4184 0 
L 3553 0 
L 3553 2222 
L 1259 2222 
L 1259 0 
L 628 0 
L 628 4666 
z
" transform="scale(0.015625)"/>
       <path id="DejaVuSans-42" d="M 1259 2228 
L 1259 519 
L 2272 519 
Q 2781 519 3026 730 
Q 3272 941 3272 1375 
Q 3272 1813 3026 2020 
Q 2781 2228 2272 2228 
L 1259 2228 
z
M 1259 4147 
L 1259 2741 
L 2194 2741 
Q 2656 2741 2882 2914 
Q 3109 3088 3109 3444 
Q 3109 3797 2882 3972 
Q 2656 4147 2194 4147 
L 1259 4147 
z
M 628 4666 
L 2241 4666 
Q 2963 4666 3353 4366 
Q 3744 4066 3744 3513 
Q 3744 3084 3544 2831 
Q 3344 2578 2956 2516 
Q 3422 2416 3680 2098 
Q 3938 1781 3938 1306 
Q 3938 681 3513 340 
Q 3088 0 2303 0 
L 628 0 
L 628 4666 
z
" transform="scale(0.015625)"/>
       <path id="DejaVuSans-4f" d="M 2522 4238 
Q 1834 4238 1429 3725 
Q 1025 3213 1025 2328 
Q 1025 1447 1429 934 
Q 1834 422 2522 422 
Q 3209 422 3611 934 
Q 4013 1447 4013 2328 
Q 4013 3213 3611 3725 
Q 3209 4238 2522 4238 
z
M 2522 4750 
Q 3503 4750 4090 4092 
Q 4678 3434 4678 2328 
Q 4678 1225 4090 567 
Q 3503 -91 2522 -91 
Q 1538 -91 948 565 
Q 359 1222 359 2328 
Q 359 3434 948 4092 
Q 1538 4750 2522 4750 
z
" transform="scale(0.015625)"/>
       <path id="DejaVuSans-4e" d="M 628 4666 
L 1478 4666 
L 3547 763 
L 3547 4666 
L 4159 4666 
L 4159 0 
L 3309 0 
L 1241 3903 
L 1241 0 
L 628 0 
L 628 4666 
z
" transform="scale(0.015625)"/>
       <path id="DejaVuSans-44" d="M 1259 4147 
L 1259 519 
L 2022 519 
Q 2988 519 3436 956 
Q 3884 1394 3884 2338 
Q 3884 3275 3436 3711 
Q 2988 4147 2022 4147 
L 1259 4147 
z
M 628 4666 
L 1925 4666 
Q 3281 4666 3915 4102 
Q 4550 3538 4550 2338 
Q 4550 1131 3912 565 
Q 3275 0 1925 0 
L 628 0 
L 628 4666 
z
" transform="scale(0.015625)"/>
       <path id="DejaVuSans-69" d="M 603 3500 
L 1178 3500 
L 1178 0 
L 603 0 
L 603 3500 
z
M 603 4863 
L 1178 4863 
L 1178 4134 
L 603 4134 
L 603 4863 
z
" transform="scale(0.015625)"/>
       <path id="DejaVuSans-66" d="M 2375 4863 
L 2375 4384 
L 1825 4384 
Q 1516 4384 1395 4259 
Q 1275 4134 1275 3809 
L 1275 3500 
L 2222 3500 
L 2222 3053 
L 1275 3053 
L 1275 0 
L 697 0 
L 697 3053 
L 147 3053 
L 147 3500 
L 697 3500 
L 697 3744 
Q 697 4328 969 4595 
Q 1241 4863 1831 4863 
L 2375 4863 
z
" transform="scale(0.015625)"/>
      </defs>
      <use xlink:href="#DejaVuSans-48"/>
      <use xlink:href="#DejaVuSans-42" x="75.195312"/>
      <use xlink:href="#DejaVuSans-4f" x="142.048828"/>
      <use xlink:href="#DejaVuSans-4e" x="220.759766"/>
      <use xlink:href="#DejaVuSans-44" x="295.564453"/>
      <use xlink:href="#DejaVuSans-44" x="372.566406"/>
      <use xlink:href="#DejaVuSans-69" x="449.568359"/>
      <use xlink:href="#DejaVuSans-66" x="477.351562"/>
      <use xlink:href="#DejaVuSans-66" x="512.556641"/>
     </g>
    </g>
   </g>
   <g id="matplotlib.axis_2">
    <g id="ytick_1">
     <g id="line2d_9">
      <defs>
       <path id="md3d57ab6a9" d="M 0 0 
L -3.5 0 
" style="stroke: #000000; stroke-width: 0.8"/>
      </defs>
      <g>
       <use xlink:href="#md3d57ab6a9" x="54.12125" y="303.64" style="stroke: #000000; stroke-width: 0.8"/>
      </g>
     </g>
     <g id="text_10">
      <!-- 0.00 -->
      <g transform="translate(24.855625 307.439219)scale(0.1 -0.1)">
       <use xlink:href="#DejaVuSans-30"/>
       <use xlink:href="#DejaVuSans-2e" x="63.623047"/>
       <use xlink:href="#DejaVuSans-30" x="95.410156"/>
       <use xlink:href="#DejaVuSans-30" x="159.033203"/>
      </g>
     </g>
    </g>
    <g id="ytick_2">
     <g id="line2d_10">
      <g>
       <use xlink:href="#md3d57ab6a9" x="54.12125" y="268.431751" style="stroke: #000000; stroke-width: 0.8"/>
      </g>
     </g>
     <g id="text_11">
      <!-- 0.25 -->
      <g transform="translate(24.855625 272.23097)scale(0.1 -0.1)">
       <use xlink:href="#DejaVuSans-30"/>
       <use xlink:href="#DejaVuSans-2e" x="63.623047"/>
       <use xlink:href="#DejaVuSans-32" x="95.410156"/>
       <use xlink:href="#DejaVuSans-35" x="159.033203"/>
      </g>
     </g>
    </g>
    <g id="ytick_3">
     <g id="line2d_11">
      <g>
       <use xlink:href="#md3d57ab6a9" x="54.12125" y="233.223503" style="stroke: #000000; stroke-width: 0.8"/>
      </g>
     </g>
     <g id="text_12">
      <!-- 0.50 -->
      <g transform="translate(24.855625 237.022721)scale(0.1 -0.1)">
       <use xlink:href="#DejaVuSans-30"/>
       <use xlink:href="#DejaVuSans-2e" x="63.623047"/>
       <use xlink:href="#DejaVuSans-35" x="95.410156"/>
       <use xlink:href="#DejaVuSans-30" x="159.033203"/>
      </g>
     </g>
    </g>
    <g id="ytick_4">
     <g id="line2d_12">
      <g>
       <use xlink:href="#md3d57ab6a9" x="54.12125" y="198.015254" style="stroke: #000000; stroke-width: 0.8"/>
      </g>
     </g>
     <g id="text_13">
      <!-- 0.75 -->
      <g transform="translate(24.855625 201.814473)scale(0.1 -0.1)">
       <use xlink:href="#DejaVuSans-30"/>
       <use xlink:href="#DejaVuSans-2e" x="63.623047"/>
       <use xlink:href="#DejaVuSans-37" x="95.410156"/>
       <use xlink:href="#DejaVuSans-35" x="159.033203"/>
      </g>
     </g>
    </g>
    <g id="ytick_5">
     <g id="line2d_13">
      <g>
       <use xlink:href="#md3d57ab6a9" x="54.12125" y="162.807005" style="stroke: #000000; stroke-width: 0.8"/>
      </g>
     </g>
     <g id="text_14">
      <!-- 1.00 -->
      <g transform="translate(24.855625 166.606224)scale(0.1 -0.1)">
       <use xlink:href="#DejaVuSans-31"/>
       <use xlink:href="#DejaVuSans-2e" x="63.623047"/>
       <use xlink:href="#DejaVuSans-30" x="95.410156"/>
       <use xlink:href="#DejaVuSans-30" x="159.033203"/>
      </g>
     </g>
    </g>
    <g id="ytick_6">
     <g id="line2d_14">
      <g>
       <use xlink:href="#md3d57ab6a9" x="54.12125" y="127.598757" style="stroke: #000000; stroke-width: 0.8"/>
      </g>
     </g>
     <g id="text_15">
      <!-- 1.25 -->
      <g transform="translate(24.855625 131.397975)scale(0.1 -0.1)">
       <use xlink:href="#DejaVuSans-31"/>
       <use xlink:href="#DejaVuSans-2e" x="63.623047"/>
       <use xlink:href="#DejaVuSans-32" x="95.410156"/>
       <use xlink:href="#DejaVuSans-35" x="159.033203"/>
      </g>
     </g>
    </g>
    <g id="ytick_7">
     <g id="line2d_15">
      <g>
       <use xlink:href="#md3d57ab6a9" x="54.12125" y="92.390508" style="stroke: #000000; stroke-width: 0.8"/>
      </g>
     </g>
     <g id="text_16">
      <!-- 1.50 -->
      <g transform="translate(24.855625 96.189727)scale(0.1 -0.1)">
       <use xlink:href="#DejaVuSans-31"/>
       <use xlink:href="#DejaVuSans-2e" x="63.623047"/>
       <use xlink:href="#DejaVuSans-35" x="95.410156"/>
       <use xlink:href="#DejaVuSans-30" x="159.033203"/>
      </g>
     </g>
    </g>
    <g id="ytick_8">
     <g id="line2d_16">
      <g>
       <use xlink:href="#md3d57ab6a9" x="54.12125" y="57.182259" style="stroke: #000000; stroke-width: 0.8"/>
      </g>
     </g>
     <g id="text_17">
      <!-- 1.75 -->
      <g transform="translate(24.855625 60.981478)scale(0.1 -0.1)">
       <use xlink:href="#DejaVuSans-31"/>
       <use xlink:href="#DejaVuSans-2e" x="63.623047"/>
       <use xlink:href="#DejaVuSans-37" x="95.410156"/>
       <use xlink:href="#DejaVuSans-35" x="159.033203"/>
      </g>
     </g>
    </g>
    <g id="text_18">
     <!-- PercentGpA_transformed -->
     <g transform="translate(18.497813 237.69519)rotate(-90)scale(0.1 -0.1)">
      <defs>
       <path id="DejaVuSans-50" d="M 1259 4147 
L 1259 2394 
L 2053 2394 
Q 2494 2394 2734 2622 
Q 2975 2850 2975 3272 
Q 2975 3691 2734 3919 
Q 2494 4147 2053 4147 
L 1259 4147 
z
M 628 4666 
L 2053 4666 
Q 2838 4666 3239 4311 
Q 3641 3956 3641 3272 
Q 3641 2581 3239 2228 
Q 2838 1875 2053 1875 
L 1259 1875 
L 1259 0 
L 628 0 
L 628 4666 
z
" transform="scale(0.015625)"/>
       <path id="DejaVuSans-65" d="M 3597 1894 
L 3597 1613 
L 953 1613 
Q 991 1019 1311 708 
Q 1631 397 2203 397 
Q 2534 397 2845 478 
Q 3156 559 3463 722 
L 3463 178 
Q 3153 47 2828 -22 
Q 2503 -91 2169 -91 
Q 1331 -91 842 396 
Q 353 884 353 1716 
Q 353 2575 817 3079 
Q 1281 3584 2069 3584 
Q 2775 3584 3186 3129 
Q 3597 2675 3597 1894 
z
M 3022 2063 
Q 3016 2534 2758 2815 
Q 2500 3097 2075 3097 
Q 1594 3097 1305 2825 
Q 1016 2553 972 2059 
L 3022 2063 
z
" transform="scale(0.015625)"/>
       <path id="DejaVuSans-72" d="M 2631 2963 
Q 2534 3019 2420 3045 
Q 2306 3072 2169 3072 
Q 1681 3072 1420 2755 
Q 1159 2438 1159 1844 
L 1159 0 
L 581 0 
L 581 3500 
L 1159 3500 
L 1159 2956 
Q 1341 3275 1631 3429 
Q 1922 3584 2338 3584 
Q 2397 3584 2469 3576 
Q 2541 3569 2628 3553 
L 2631 2963 
z
" transform="scale(0.015625)"/>
       <path id="DejaVuSans-63" d="M 3122 3366 
L 3122 2828 
Q 2878 2963 2633 3030 
Q 2388 3097 2138 3097 
Q 1578 3097 1268 2742 
Q 959 2388 959 1747 
Q 959 1106 1268 751 
Q 1578 397 2138 397 
Q 2388 397 2633 464 
Q 2878 531 3122 666 
L 3122 134 
Q 2881 22 2623 -34 
Q 2366 -91 2075 -91 
Q 1284 -91 818 406 
Q 353 903 353 1747 
Q 353 2603 823 3093 
Q 1294 3584 2113 3584 
Q 2378 3584 2631 3529 
Q 2884 3475 3122 3366 
z
" transform="scale(0.015625)"/>
       <path id="DejaVuSans-6e" d="M 3513 2113 
L 3513 0 
L 2938 0 
L 2938 2094 
Q 2938 2591 2744 2837 
Q 2550 3084 2163 3084 
Q 1697 3084 1428 2787 
Q 1159 2491 1159 1978 
L 1159 0 
L 581 0 
L 581 3500 
L 1159 3500 
L 1159 2956 
Q 1366 3272 1645 3428 
Q 1925 3584 2291 3584 
Q 2894 3584 3203 3211 
Q 3513 2838 3513 2113 
z
" transform="scale(0.015625)"/>
       <path id="DejaVuSans-74" d="M 1172 4494 
L 1172 3500 
L 2356 3500 
L 2356 3053 
L 1172 3053 
L 1172 1153 
Q 1172 725 1289 603 
Q 1406 481 1766 481 
L 2356 481 
L 2356 0 
L 1766 0 
Q 1100 0 847 248 
Q 594 497 594 1153 
L 594 3053 
L 172 3053 
L 172 3500 
L 594 3500 
L 594 4494 
L 1172 4494 
z
" transform="scale(0.015625)"/>
       <path id="DejaVuSans-47" d="M 3809 666 
L 3809 1919 
L 2778 1919 
L 2778 2438 
L 4434 2438 
L 4434 434 
Q 4069 175 3628 42 
Q 3188 -91 2688 -91 
Q 1594 -91 976 548 
Q 359 1188 359 2328 
Q 359 3472 976 4111 
Q 1594 4750 2688 4750 
Q 3144 4750 3555 4637 
Q 3966 4525 4313 4306 
L 4313 3634 
Q 3963 3931 3569 4081 
Q 3175 4231 2741 4231 
Q 1884 4231 1454 3753 
Q 1025 3275 1025 2328 
Q 1025 1384 1454 906 
Q 1884 428 2741 428 
Q 3075 428 3337 486 
Q 3600 544 3809 666 
z
" transform="scale(0.015625)"/>
       <path id="DejaVuSans-70" d="M 1159 525 
L 1159 -1331 
L 581 -1331 
L 581 3500 
L 1159 3500 
L 1159 2969 
Q 1341 3281 1617 3432 
Q 1894 3584 2278 3584 
Q 2916 3584 3314 3078 
Q 3713 2572 3713 1747 
Q 3713 922 3314 415 
Q 2916 -91 2278 -91 
Q 1894 -91 1617 61 
Q 1341 213 1159 525 
z
M 3116 1747 
Q 3116 2381 2855 2742 
Q 2594 3103 2138 3103 
Q 1681 3103 1420 2742 
Q 1159 2381 1159 1747 
Q 1159 1113 1420 752 
Q 1681 391 2138 391 
Q 2594 391 2855 752 
Q 3116 1113 3116 1747 
z
" transform="scale(0.015625)"/>
       <path id="DejaVuSans-41" d="M 2188 4044 
L 1331 1722 
L 3047 1722 
L 2188 4044 
z
M 1831 4666 
L 2547 4666 
L 4325 0 
L 3669 0 
L 3244 1197 
L 1141 1197 
L 716 0 
L 50 0 
L 1831 4666 
z
" transform="scale(0.015625)"/>
       <path id="DejaVuSans-5f" d="M 3263 -1063 
L 3263 -1509 
L -63 -1509 
L -63 -1063 
L 3263 -1063 
z
" transform="scale(0.015625)"/>
       <path id="DejaVuSans-61" d="M 2194 1759 
Q 1497 1759 1228 1600 
Q 959 1441 959 1056 
Q 959 750 1161 570 
Q 1363 391 1709 391 
Q 2188 391 2477 730 
Q 2766 1069 2766 1631 
L 2766 1759 
L 2194 1759 
z
M 3341 1997 
L 3341 0 
L 2766 0 
L 2766 531 
Q 2569 213 2275 61 
Q 1981 -91 1556 -91 
Q 1019 -91 701 211 
Q 384 513 384 1019 
Q 384 1609 779 1909 
Q 1175 2209 1959 2209 
L 2766 2209 
L 2766 2266 
Q 2766 2663 2505 2880 
Q 2244 3097 1772 3097 
Q 1472 3097 1187 3025 
Q 903 2953 641 2809 
L 641 3341 
Q 956 3463 1253 3523 
Q 1550 3584 1831 3584 
Q 2591 3584 2966 3190 
Q 3341 2797 3341 1997 
z
" transform="scale(0.015625)"/>
       <path id="DejaVuSans-73" d="M 2834 3397 
L 2834 2853 
Q 2591 2978 2328 3040 
Q 2066 3103 1784 3103 
Q 1356 3103 1142 2972 
Q 928 2841 928 2578 
Q 928 2378 1081 2264 
Q 1234 2150 1697 2047 
L 1894 2003 
Q 2506 1872 2764 1633 
Q 3022 1394 3022 966 
Q 3022 478 2636 193 
Q 2250 -91 1575 -91 
Q 1294 -91 989 -36 
Q 684 19 347 128 
L 347 722 
Q 666 556 975 473 
Q 1284 391 1588 391 
Q 1994 391 2212 530 
Q 2431 669 2431 922 
Q 2431 1156 2273 1281 
Q 2116 1406 1581 1522 
L 1381 1569 
Q 847 1681 609 1914 
Q 372 2147 372 2553 
Q 372 3047 722 3315 
Q 1072 3584 1716 3584 
Q 2034 3584 2315 3537 
Q 2597 3491 2834 3397 
z
" transform="scale(0.015625)"/>
       <path id="DejaVuSans-6f" d="M 1959 3097 
Q 1497 3097 1228 2736 
Q 959 2375 959 1747 
Q 959 1119 1226 758 
Q 1494 397 1959 397 
Q 2419 397 2687 759 
Q 2956 1122 2956 1747 
Q 2956 2369 2687 2733 
Q 2419 3097 1959 3097 
z
M 1959 3584 
Q 2709 3584 3137 3096 
Q 3566 2609 3566 1747 
Q 3566 888 3137 398 
Q 2709 -91 1959 -91 
Q 1206 -91 779 398 
Q 353 888 353 1747 
Q 353 2609 779 3096 
Q 1206 3584 1959 3584 
z
" transform="scale(0.015625)"/>
       <path id="DejaVuSans-6d" d="M 3328 2828 
Q 3544 3216 3844 3400 
Q 4144 3584 4550 3584 
Q 5097 3584 5394 3201 
Q 5691 2819 5691 2113 
L 5691 0 
L 5113 0 
L 5113 2094 
Q 5113 2597 4934 2840 
Q 4756 3084 4391 3084 
Q 3944 3084 3684 2787 
Q 3425 2491 3425 1978 
L 3425 0 
L 2847 0 
L 2847 2094 
Q 2847 2600 2669 2842 
Q 2491 3084 2119 3084 
Q 1678 3084 1418 2786 
Q 1159 2488 1159 1978 
L 1159 0 
L 581 0 
L 581 3500 
L 1159 3500 
L 1159 2956 
Q 1356 3278 1631 3431 
Q 1906 3584 2284 3584 
Q 2666 3584 2933 3390 
Q 3200 3197 3328 2828 
z
" transform="scale(0.015625)"/>
       <path id="DejaVuSans-64" d="M 2906 2969 
L 2906 4863 
L 3481 4863 
L 3481 0 
L 2906 0 
L 2906 525 
Q 2725 213 2448 61 
Q 2172 -91 1784 -91 
Q 1150 -91 751 415 
Q 353 922 353 1747 
Q 353 2572 751 3078 
Q 1150 3584 1784 3584 
Q 2172 3584 2448 3432 
Q 2725 3281 2906 2969 
z
M 947 1747 
Q 947 1113 1208 752 
Q 1469 391 1925 391 
Q 2381 391 2643 752 
Q 2906 1113 2906 1747 
Q 2906 2381 2643 2742 
Q 2381 3103 1925 3103 
Q 1469 3103 1208 2742 
Q 947 2381 947 1747 
z
" transform="scale(0.015625)"/>
      </defs>
      <use xlink:href="#DejaVuSans-50"/>
      <use xlink:href="#DejaVuSans-65" x="56.677734"/>
      <use xlink:href="#DejaVuSans-72" x="118.201172"/>
      <use xlink:href="#DejaVuSans-63" x="157.064453"/>
      <use xlink:href="#DejaVuSans-65" x="212.044922"/>
      <use xlink:href="#DejaVuSans-6e" x="273.568359"/>
      <use xlink:href="#DejaVuSans-74" x="336.947266"/>
      <use xlink:href="#DejaVuSans-47" x="376.15625"/>
      <use xlink:href="#DejaVuSans-70" x="453.646484"/>
      <use xlink:href="#DejaVuSans-41" x="517.123047"/>
      <use xlink:href="#DejaVuSans-5f" x="585.53125"/>
      <use xlink:href="#DejaVuSans-74" x="635.53125"/>
      <use xlink:href="#DejaVuSans-72" x="674.740234"/>
      <use xlink:href="#DejaVuSans-61" x="715.853516"/>
      <use xlink:href="#DejaVuSans-6e" x="777.132812"/>
      <use xlink:href="#DejaVuSans-73" x="840.511719"/>
      <use xlink:href="#DejaVuSans-66" x="892.611328"/>
      <use xlink:href="#DejaVuSans-6f" x="927.816406"/>
      <use xlink:href="#DejaVuSans-72" x="988.998047"/>
      <use xlink:href="#DejaVuSans-6d" x="1028.361328"/>
      <use xlink:href="#DejaVuSans-65" x="1125.773438"/>
      <use xlink:href="#DejaVuSans-64" x="1187.296875"/>
     </g>
    </g>
   </g>
   <g id="LineCollection_1">
    <path d="M 106.115188 160.892708 
L 106.115188 117.830298 
" clip-path="url(#pe98fbf1255)" style="fill: none; stroke: #d3d3d3; stroke-width: 3"/>
    <path d="M 173.504922 213.307653 
L 173.504922 149.538174 
" clip-path="url(#pe98fbf1255)" style="fill: none; stroke: #d3d3d3; stroke-width: 3"/>
    <path d="M 213.920894 196.487812 
L 213.920894 140.625458 
" clip-path="url(#pe98fbf1255)" style="fill: none; stroke: #d3d3d3; stroke-width: 3"/>
    <path d="M 178.366048 221.465298 
L 178.366048 123.364915 
" clip-path="url(#pe98fbf1255)" style="fill: none; stroke: #d3d3d3; stroke-width: 3"/>
    <path d="M 162.783644 179.986409 
L 162.783644 150.708011 
" clip-path="url(#pe98fbf1255)" style="fill: none; stroke: #d3d3d3; stroke-width: 3"/>
    <path d="M 188.837569 238.159232 
L 188.837569 221.976149 
" clip-path="url(#pe98fbf1255)" style="fill: none; stroke: #d3d3d3; stroke-width: 3"/>
    <path d="M 313.427762 190.940392 
L 313.427762 160.904641 
" clip-path="url(#pe98fbf1255)" style="fill: none; stroke: #d3d3d3; stroke-width: 3"/>
    <path d="M 220.363814 210.272191 
L 220.363814 184.760708 
" clip-path="url(#pe98fbf1255)" style="fill: none; stroke: #d3d3d3; stroke-width: 3"/>
    <path d="M 284.358477 195.010446 
L 284.358477 172.129611 
" clip-path="url(#pe98fbf1255)" style="fill: none; stroke: #d3d3d3; stroke-width: 3"/>
    <path d="M 196.88665 277.37495 
L 196.88665 263.558627 
" clip-path="url(#pe98fbf1255)" style="fill: none; stroke: #d3d3d3; stroke-width: 3"/>
    <path d="M 218.790142 161.869443 
L 218.790142 110.595443 
" clip-path="url(#pe98fbf1255)" style="fill: none; stroke: #d3d3d3; stroke-width: 3"/>
    <path d="M 154.643188 166.466761 
L 154.643188 133.736002 
" clip-path="url(#pe98fbf1255)" style="fill: none; stroke: #d3d3d3; stroke-width: 3"/>
    <path d="M 72.115739 260.368923 
L 72.115739 244.775299 
" clip-path="url(#pe98fbf1255)" style="fill: none; stroke: #d3d3d3; stroke-width: 3"/>
    <path d="M 260.442716 237.897655 
L 260.442716 199.067019 
" clip-path="url(#pe98fbf1255)" style="fill: none; stroke: #d3d3d3; stroke-width: 3"/>
    <path d="M 179.657474 238.664733 
L 179.657474 167.340969 
" clip-path="url(#pe98fbf1255)" style="fill: none; stroke: #d3d3d3; stroke-width: 3"/>
    <path d="M 218.124123 204.074385 
L 218.124123 184.36158 
" clip-path="url(#pe98fbf1255)" style="fill: none; stroke: #d3d3d3; stroke-width: 3"/>
    <path d="M 268.98928 138.549255 
L 268.98928 110.631531 
" clip-path="url(#pe98fbf1255)" style="fill: none; stroke: #d3d3d3; stroke-width: 3"/>
    <path d="M 337.483632 234.064203 
L 337.483632 222.730588 
" clip-path="url(#pe98fbf1255)" style="fill: none; stroke: #d3d3d3; stroke-width: 3"/>
    <path d="M 168.006206 188.461118 
L 168.006206 139.818749 
" clip-path="url(#pe98fbf1255)" style="fill: none; stroke: #d3d3d3; stroke-width: 3"/>
    <path d="M 378.009253 289.612218 
L 378.009253 247.75738 
" clip-path="url(#pe98fbf1255)" style="fill: none; stroke: #d3d3d3; stroke-width: 3"/>
    <path d="M 395.522705 163.414969 
L 395.522705 116.632587 
" clip-path="url(#pe98fbf1255)" style="fill: none; stroke: #d3d3d3; stroke-width: 3"/>
    <path d="M 208.972456 152.985994 
L 208.972456 143.507703 
" clip-path="url(#pe98fbf1255)" style="fill: none; stroke: #d3d3d3; stroke-width: 3"/>
    <path d="M 180.195569 142.147963 
L 180.195569 78.668418 
" clip-path="url(#pe98fbf1255)" style="fill: none; stroke: #d3d3d3; stroke-width: 3"/>
    <path d="M 260.688412 139.865413 
L 260.688412 112.195838 
" clip-path="url(#pe98fbf1255)" style="fill: none; stroke: #d3d3d3; stroke-width: 3"/>
    <path d="M 328.086268 160.320323 
L 328.086268 145.807679 
" clip-path="url(#pe98fbf1255)" style="fill: none; stroke: #d3d3d3; stroke-width: 3"/>
    <path d="M 287.432723 214.00932 
L 287.432723 58.242313 
" clip-path="url(#pe98fbf1255)" style="fill: none; stroke: #d3d3d3; stroke-width: 3"/>
    <path d="M 279.885186 211.55884 
L 279.885186 196.02713 
" clip-path="url(#pe98fbf1255)" style="fill: none; stroke: #d3d3d3; stroke-width: 3"/>
    <path d="M 340.239081 259.640213 
L 340.239081 245.354908 
" clip-path="url(#pe98fbf1255)" style="fill: none; stroke: #d3d3d3; stroke-width: 3"/>
    <path d="M 309.027571 252.043015 
L 309.027571 241.657506 
" clip-path="url(#pe98fbf1255)" style="fill: none; stroke: #d3d3d3; stroke-width: 3"/>
    <path d="M 344.019957 265.303097 
L 344.019957 263.517717 
" clip-path="url(#pe98fbf1255)" style="fill: none; stroke: #d3d3d3; stroke-width: 3"/>
    <path d="M 355.021451 161.603659 
L 355.021451 157.375865 
" clip-path="url(#pe98fbf1255)" style="fill: none; stroke: #d3d3d3; stroke-width: 3"/>
    <path d="M 296.539718 202.586777 
L 296.539718 174.314664 
" clip-path="url(#pe98fbf1255)" style="fill: none; stroke: #d3d3d3; stroke-width: 3"/>
    <path d="M 283.032531 276.418706 
L 283.032531 249.928621 
" clip-path="url(#pe98fbf1255)" style="fill: none; stroke: #d3d3d3; stroke-width: 3"/>
    <path d="M 175.141542 211.777206 
L 175.141542 175.461889 
" clip-path="url(#pe98fbf1255)" style="fill: none; stroke: #d3d3d3; stroke-width: 3"/>
    <path d="M 306.777727 257.627674 
L 306.777727 248.290198 
" clip-path="url(#pe98fbf1255)" style="fill: none; stroke: #d3d3d3; stroke-width: 3"/>
    <path d="M 233.282143 187.91378 
L 233.282143 135.194777 
" clip-path="url(#pe98fbf1255)" style="fill: none; stroke: #d3d3d3; stroke-width: 3"/>
    <path d="M 416.597734 220.63732 
L 416.597734 205.652696 
" clip-path="url(#pe98fbf1255)" style="fill: none; stroke: #d3d3d3; stroke-width: 3"/>
    <path d="M 384.40344 234.759797 
L 384.40344 219.020263 
" clip-path="url(#pe98fbf1255)" style="fill: none; stroke: #d3d3d3; stroke-width: 3"/>
    <path d="M 326.246594 253.577751 
L 326.246594 242.877283 
" clip-path="url(#pe98fbf1255)" style="fill: none; stroke: #d3d3d3; stroke-width: 3"/>
    <path d="M 426.023525 280.30377 
L 426.023525 258.61605 
" clip-path="url(#pe98fbf1255)" style="fill: none; stroke: #d3d3d3; stroke-width: 3"/>
    <path d="M 403.6591 226.883674 
L 403.6591 196.32811 
" clip-path="url(#pe98fbf1255)" style="fill: none; stroke: #d3d3d3; stroke-width: 3"/>
    <path d="M 370.835337 187.92235 
L 370.835337 144.179526 
" clip-path="url(#pe98fbf1255)" style="fill: none; stroke: #d3d3d3; stroke-width: 3"/>
    <path d="M 275.72866 250.571112 
L 275.72866 231.637056 
" clip-path="url(#pe98fbf1255)" style="fill: none; stroke: #d3d3d3; stroke-width: 3"/>
    <path d="M 432.005511 281.13563 
L 432.005511 271.245761 
" clip-path="url(#pe98fbf1255)" style="fill: none; stroke: #d3d3d3; stroke-width: 3"/>
    <path d="M 371.247537 127.230572 
L 371.247537 86.549074 
" clip-path="url(#pe98fbf1255)" style="fill: none; stroke: #d3d3d3; stroke-width: 3"/>
   </g>
   <g id="line2d_17">
    <path d="M 106.115188 169.623158 
L 173.504922 179.962667 
L 213.920894 186.163631 
L 178.366048 180.708503 
L 162.783644 178.317717 
L 188.837569 182.315133 
L 313.427762 201.430825 
L 220.363814 187.152159 
L 284.358477 196.970767 
L 196.88665 183.550092 
L 218.790142 186.910713 
L 154.643188 177.068739 
L 72.115739 164.406672 
L 260.442716 193.301407 
L 179.657474 180.906644 
L 218.124123 186.808526 
L 268.98928 194.612694 
L 337.483632 205.121683 
L 168.006206 179.119007 
L 378.009253 211.33947 
L 395.522705 214.026533 
L 208.972456 185.404399 
L 180.195569 180.989203 
L 260.688412 193.339103 
L 328.086268 203.679859 
L 287.432723 197.442444 
L 279.885186 196.284437 
L 340.239081 205.544447 
L 309.027571 200.75571 
L 344.019957 206.124541 
L 355.021451 207.812485 
L 296.539718 198.839717 
L 283.032531 196.767329 
L 175.141542 180.213771 
L 306.777727 200.41052 
L 233.282143 189.134199 
L 416.597734 217.260044 
L 384.40344 212.320521 
L 326.246594 203.3976 
L 426.023525 218.70623 
L 403.6591 215.274889 
L 370.835337 210.238786 
L 275.72866 195.646707 
L 432.005511 219.624037 
L 371.247537 210.30203 
" clip-path="url(#pe98fbf1255)" style="fill: none; stroke: #1f77b4; stroke-width: 1.5; stroke-linecap: square"/>
   </g>
   <g id="line2d_18">
    <defs>
     <path id="m9109c3f146" d="M 0 3 
C 0.795609 3 1.55874 2.683901 2.12132 2.12132 
C 2.683901 1.55874 3 0.795609 3 0 
C 3 -0.795609 2.683901 -1.55874 2.12132 -2.12132 
C 1.55874 -2.683901 0.795609 -3 0 -3 
C -0.795609 -3 -1.55874 -2.683901 -2.12132 -2.12132 
C -2.683901 -1.55874 -3 -0.795609 -3 0 
C -3 0.795609 -2.683901 1.55874 -2.12132 2.12132 
C -1.55874 2.683901 -0.795609 3 0 3 
z
" style="stroke: #000000"/>
    </defs>
    <g clip-path="url(#pe98fbf1255)">
     <use xlink:href="#m9109c3f146" x="106.115188" y="139.361503" style="stroke: #000000"/>
     <use xlink:href="#m9109c3f146" x="173.504922" y="181.422913" style="stroke: #000000"/>
     <use xlink:href="#m9109c3f146" x="213.920894" y="168.556635" style="stroke: #000000"/>
     <use xlink:href="#m9109c3f146" x="178.366048" y="172.415107" style="stroke: #000000"/>
     <use xlink:href="#m9109c3f146" x="162.783644" y="165.34721" style="stroke: #000000"/>
     <use xlink:href="#m9109c3f146" x="188.837569" y="230.06769" style="stroke: #000000"/>
     <use xlink:href="#m9109c3f146" x="313.427762" y="175.922517" style="stroke: #000000"/>
     <use xlink:href="#m9109c3f146" x="220.363814" y="197.51645" style="stroke: #000000"/>
     <use xlink:href="#m9109c3f146" x="284.358477" y="183.570029" style="stroke: #000000"/>
     <use xlink:href="#m9109c3f146" x="196.88665" y="270.466788" style="stroke: #000000"/>
     <use xlink:href="#m9109c3f146" x="218.790142" y="136.232443" style="stroke: #000000"/>
     <use xlink:href="#m9109c3f146" x="154.643188" y="150.101382" style="stroke: #000000"/>
     <use xlink:href="#m9109c3f146" x="72.115739" y="252.572111" style="stroke: #000000"/>
     <use xlink:href="#m9109c3f146" x="260.442716" y="218.482337" style="stroke: #000000"/>
     <use xlink:href="#m9109c3f146" x="179.657474" y="203.002851" style="stroke: #000000"/>
     <use xlink:href="#m9109c3f146" x="218.124123" y="194.217982" style="stroke: #000000"/>
     <use xlink:href="#m9109c3f146" x="268.98928" y="124.590393" style="stroke: #000000"/>
     <use xlink:href="#m9109c3f146" x="337.483632" y="228.397396" style="stroke: #000000"/>
     <use xlink:href="#m9109c3f146" x="168.006206" y="164.139933" style="stroke: #000000"/>
     <use xlink:href="#m9109c3f146" x="378.009253" y="268.684799" style="stroke: #000000"/>
     <use xlink:href="#m9109c3f146" x="395.522705" y="140.023778" style="stroke: #000000"/>
     <use xlink:href="#m9109c3f146" x="208.972456" y="148.246849" style="stroke: #000000"/>
     <use xlink:href="#m9109c3f146" x="180.195569" y="110.408191" style="stroke: #000000"/>
     <use xlink:href="#m9109c3f146" x="260.688412" y="126.030625" style="stroke: #000000"/>
     <use xlink:href="#m9109c3f146" x="328.086268" y="153.064001" style="stroke: #000000"/>
     <use xlink:href="#m9109c3f146" x="287.432723" y="136.125816" style="stroke: #000000"/>
     <use xlink:href="#m9109c3f146" x="279.885186" y="203.792985" style="stroke: #000000"/>
     <use xlink:href="#m9109c3f146" x="340.239081" y="252.497561" style="stroke: #000000"/>
     <use xlink:href="#m9109c3f146" x="309.027571" y="246.85026" style="stroke: #000000"/>
     <use xlink:href="#m9109c3f146" x="344.019957" y="264.410407" style="stroke: #000000"/>
     <use xlink:href="#m9109c3f146" x="355.021451" y="159.489762" style="stroke: #000000"/>
     <use xlink:href="#m9109c3f146" x="296.539718" y="188.450721" style="stroke: #000000"/>
     <use xlink:href="#m9109c3f146" x="283.032531" y="263.173663" style="stroke: #000000"/>
     <use xlink:href="#m9109c3f146" x="175.141542" y="193.619548" style="stroke: #000000"/>
     <use xlink:href="#m9109c3f146" x="306.777727" y="252.958936" style="stroke: #000000"/>
     <use xlink:href="#m9109c3f146" x="233.282143" y="161.554278" style="stroke: #000000"/>
     <use xlink:href="#m9109c3f146" x="416.597734" y="213.145008" style="stroke: #000000"/>
     <use xlink:href="#m9109c3f146" x="384.40344" y="226.89003" style="stroke: #000000"/>
     <use xlink:href="#m9109c3f146" x="326.246594" y="248.227517" style="stroke: #000000"/>
     <use xlink:href="#m9109c3f146" x="426.023525" y="269.45991" style="stroke: #000000"/>
     <use xlink:href="#m9109c3f146" x="403.6591" y="211.605892" style="stroke: #000000"/>
     <use xlink:href="#m9109c3f146" x="370.835337" y="166.050938" style="stroke: #000000"/>
     <use xlink:href="#m9109c3f146" x="275.72866" y="241.104084" style="stroke: #000000"/>
     <use xlink:href="#m9109c3f146" x="432.005511" y="276.190696" style="stroke: #000000"/>
     <use xlink:href="#m9109c3f146" x="371.247537" y="106.889823" style="stroke: #000000"/>
    </g>
   </g>
   <g id="patch_3">
    <path d="M 54.12125 303.64 
L 54.12125 46.673817 
" style="fill: none; stroke: #000000; stroke-width: 0.8; stroke-linejoin: miter; stroke-linecap: square"/>
   </g>
   <g id="patch_4">
    <path d="M 450 303.64 
L 450 46.673817 
" style="fill: none; stroke: #000000; stroke-width: 0.8; stroke-linejoin: miter; stroke-linecap: square"/>
   </g>
   <g id="patch_5">
    <path d="M 54.12125 303.64 
L 450 303.64 
" style="fill: none; stroke: #000000; stroke-width: 0.8; stroke-linejoin: miter; stroke-linecap: square"/>
   </g>
   <g id="patch_6">
    <path d="M 54.12125 46.673817 
L 450 46.673817 
" style="fill: none; stroke: #000000; stroke-width: 0.8; stroke-linejoin: miter; stroke-linecap: square"/>
   </g>
   <g id="text_19">
    <!-- y = -0.02x + 0.62 -->
    <g transform="translate(48.984906 18.597251)scale(0.1 -0.1)">
     <defs>
      <path id="DejaVuSans-79" d="M 2059 -325 
Q 1816 -950 1584 -1140 
Q 1353 -1331 966 -1331 
L 506 -1331 
L 506 -850 
L 844 -850 
Q 1081 -850 1212 -737 
Q 1344 -625 1503 -206 
L 1606 56 
L 191 3500 
L 800 3500 
L 1894 763 
L 2988 3500 
L 3597 3500 
L 2059 -325 
z
" transform="scale(0.015625)"/>
      <path id="DejaVuSans-20" transform="scale(0.015625)"/>
      <path id="DejaVuSans-3d" d="M 678 2906 
L 4684 2906 
L 4684 2381 
L 678 2381 
L 678 2906 
z
M 678 1631 
L 4684 1631 
L 4684 1100 
L 678 1100 
L 678 1631 
z
" transform="scale(0.015625)"/>
      <path id="DejaVuSans-2d" d="M 313 2009 
L 1997 2009 
L 1997 1497 
L 313 1497 
L 313 2009 
z
" transform="scale(0.015625)"/>
      <path id="DejaVuSans-78" d="M 3513 3500 
L 2247 1797 
L 3578 0 
L 2900 0 
L 1881 1375 
L 863 0 
L 184 0 
L 1544 1831 
L 300 3500 
L 978 3500 
L 1906 2253 
L 2834 3500 
L 3513 3500 
z
" transform="scale(0.015625)"/>
      <path id="DejaVuSans-2b" d="M 2944 4013 
L 2944 2272 
L 4684 2272 
L 4684 1741 
L 2944 1741 
L 2944 0 
L 2419 0 
L 2419 1741 
L 678 1741 
L 678 2272 
L 2419 2272 
L 2419 4013 
L 2944 4013 
z
" transform="scale(0.015625)"/>
      <path id="DejaVuSans-36" d="M 2113 2584 
Q 1688 2584 1439 2293 
Q 1191 2003 1191 1497 
Q 1191 994 1439 701 
Q 1688 409 2113 409 
Q 2538 409 2786 701 
Q 3034 994 3034 1497 
Q 3034 2003 2786 2293 
Q 2538 2584 2113 2584 
z
M 3366 4563 
L 3366 3988 
Q 3128 4100 2886 4159 
Q 2644 4219 2406 4219 
Q 1781 4219 1451 3797 
Q 1122 3375 1075 2522 
Q 1259 2794 1537 2939 
Q 1816 3084 2150 3084 
Q 2853 3084 3261 2657 
Q 3669 2231 3669 1497 
Q 3669 778 3244 343 
Q 2819 -91 2113 -91 
Q 1303 -91 875 529 
Q 447 1150 447 2328 
Q 447 3434 972 4092 
Q 1497 4750 2381 4750 
Q 2619 4750 2861 4703 
Q 3103 4656 3366 4563 
z
" transform="scale(0.015625)"/>
     </defs>
     <use xlink:href="#DejaVuSans-79"/>
     <use xlink:href="#DejaVuSans-20" x="59.179688"/>
     <use xlink:href="#DejaVuSans-3d" x="90.966797"/>
     <use xlink:href="#DejaVuSans-20" x="174.755859"/>
     <use xlink:href="#DejaVuSans-2d" x="206.542969"/>
     <use xlink:href="#DejaVuSans-30" x="242.626953"/>
     <use xlink:href="#DejaVuSans-2e" x="306.25"/>
     <use xlink:href="#DejaVuSans-30" x="338.037109"/>
     <use xlink:href="#DejaVuSans-32" x="401.660156"/>
     <use xlink:href="#DejaVuSans-78" x="465.283203"/>
     <use xlink:href="#DejaVuSans-20" x="524.462891"/>
     <use xlink:href="#DejaVuSans-2b" x="556.25"/>
     <use xlink:href="#DejaVuSans-20" x="640.039062"/>
     <use xlink:href="#DejaVuSans-30" x="671.826172"/>
     <use xlink:href="#DejaVuSans-2e" x="735.449219"/>
     <use xlink:href="#DejaVuSans-36" x="767.236328"/>
     <use xlink:href="#DejaVuSans-32" x="830.859375"/>
    </g>
   </g>
   <g id="text_20">
    <!-- r^2 = 0.08 -->
    <g transform="translate(65.781781 26.306236)scale(0.1 -0.1)">
     <defs>
      <path id="DejaVuSans-5e" d="M 2988 4666 
L 4684 2925 
L 4056 2925 
L 2681 4159 
L 1306 2925 
L 678 2925 
L 2375 4666 
L 2988 4666 
z
" transform="scale(0.015625)"/>
      <path id="DejaVuSans-38" d="M 2034 2216 
Q 1584 2216 1326 1975 
Q 1069 1734 1069 1313 
Q 1069 891 1326 650 
Q 1584 409 2034 409 
Q 2484 409 2743 651 
Q 3003 894 3003 1313 
Q 3003 1734 2745 1975 
Q 2488 2216 2034 2216 
z
M 1403 2484 
Q 997 2584 770 2862 
Q 544 3141 544 3541 
Q 544 4100 942 4425 
Q 1341 4750 2034 4750 
Q 2731 4750 3128 4425 
Q 3525 4100 3525 3541 
Q 3525 3141 3298 2862 
Q 3072 2584 2669 2484 
Q 3125 2378 3379 2068 
Q 3634 1759 3634 1313 
Q 3634 634 3220 271 
Q 2806 -91 2034 -91 
Q 1263 -91 848 271 
Q 434 634 434 1313 
Q 434 1759 690 2068 
Q 947 2378 1403 2484 
z
M 1172 3481 
Q 1172 3119 1398 2916 
Q 1625 2713 2034 2713 
Q 2441 2713 2670 2916 
Q 2900 3119 2900 3481 
Q 2900 3844 2670 4047 
Q 2441 4250 2034 4250 
Q 1625 4250 1398 4047 
Q 1172 3844 1172 3481 
z
" transform="scale(0.015625)"/>
     </defs>
     <use xlink:href="#DejaVuSans-72"/>
     <use xlink:href="#DejaVuSans-5e" x="41.113281"/>
     <use xlink:href="#DejaVuSans-32" x="124.902344"/>
     <use xlink:href="#DejaVuSans-20" x="188.525391"/>
     <use xlink:href="#DejaVuSans-3d" x="220.3125"/>
     <use xlink:href="#DejaVuSans-20" x="304.101562"/>
     <use xlink:href="#DejaVuSans-30" x="335.888672"/>
     <use xlink:href="#DejaVuSans-2e" x="399.511719"/>
     <use xlink:href="#DejaVuSans-30" x="431.298828"/>
     <use xlink:href="#DejaVuSans-38" x="494.921875"/>
    </g>
   </g>
   <g id="text_21">
    <!-- n = 45 -->
    <g transform="translate(76.809906 34.015221)scale(0.1 -0.1)">
     <defs>
      <path id="DejaVuSans-34" d="M 2419 4116 
L 825 1625 
L 2419 1625 
L 2419 4116 
z
M 2253 4666 
L 3047 4666 
L 3047 1625 
L 3713 1625 
L 3713 1100 
L 3047 1100 
L 3047 0 
L 2419 0 
L 2419 1100 
L 313 1100 
L 313 1709 
L 2253 4666 
z
" transform="scale(0.015625)"/>
     </defs>
     <use xlink:href="#DejaVuSans-6e"/>
     <use xlink:href="#DejaVuSans-20" x="63.378906"/>
     <use xlink:href="#DejaVuSans-3d" x="95.166016"/>
     <use xlink:href="#DejaVuSans-20" x="178.955078"/>
     <use xlink:href="#DejaVuSans-34" x="210.742188"/>
     <use xlink:href="#DejaVuSans-35" x="274.365234"/>
    </g>
   </g>
   <g id="text_22">
    <!-- HBONDDiff vs PercentGpA_transformed -->
    <g transform="translate(133.657187 40.673817)scale(0.12 -0.12)">
     <defs>
      <path id="DejaVuSans-76" d="M 191 3500 
L 800 3500 
L 1894 563 
L 2988 3500 
L 3597 3500 
L 2284 0 
L 1503 0 
L 191 3500 
z
" transform="scale(0.015625)"/>
     </defs>
     <use xlink:href="#DejaVuSans-48"/>
     <use xlink:href="#DejaVuSans-42" x="75.195312"/>
     <use xlink:href="#DejaVuSans-4f" x="142.048828"/>
     <use xlink:href="#DejaVuSans-4e" x="220.759766"/>
     <use xlink:href="#DejaVuSans-44" x="295.564453"/>
     <use xlink:href="#DejaVuSans-44" x="372.566406"/>
     <use xlink:href="#DejaVuSans-69" x="449.568359"/>
     <use xlink:href="#DejaVuSans-66" x="477.351562"/>
     <use xlink:href="#DejaVuSans-66" x="512.556641"/>
     <use xlink:href="#DejaVuSans-20" x="547.761719"/>
     <use xlink:href="#DejaVuSans-76" x="579.548828"/>
     <use xlink:href="#DejaVuSans-73" x="638.728516"/>
     <use xlink:href="#DejaVuSans-20" x="690.828125"/>
     <use xlink:href="#DejaVuSans-50" x="722.615234"/>
     <use xlink:href="#DejaVuSans-65" x="779.292969"/>
     <use xlink:href="#DejaVuSans-72" x="840.816406"/>
     <use xlink:href="#DejaVuSans-63" x="879.679688"/>
     <use xlink:href="#DejaVuSans-65" x="934.660156"/>
     <use xlink:href="#DejaVuSans-6e" x="996.183594"/>
     <use xlink:href="#DejaVuSans-74" x="1059.5625"/>
     <use xlink:href="#DejaVuSans-47" x="1098.771484"/>
     <use xlink:href="#DejaVuSans-70" x="1176.261719"/>
     <use xlink:href="#DejaVuSans-41" x="1239.738281"/>
     <use xlink:href="#DejaVuSans-5f" x="1308.146484"/>
     <use xlink:href="#DejaVuSans-74" x="1358.146484"/>
     <use xlink:href="#DejaVuSans-72" x="1397.355469"/>
     <use xlink:href="#DejaVuSans-61" x="1438.46875"/>
     <use xlink:href="#DejaVuSans-6e" x="1499.748047"/>
     <use xlink:href="#DejaVuSans-73" x="1563.126953"/>
     <use xlink:href="#DejaVuSans-66" x="1615.226562"/>
     <use xlink:href="#DejaVuSans-6f" x="1650.431641"/>
     <use xlink:href="#DejaVuSans-72" x="1711.613281"/>
     <use xlink:href="#DejaVuSans-6d" x="1750.976562"/>
     <use xlink:href="#DejaVuSans-65" x="1848.388672"/>
     <use xlink:href="#DejaVuSans-64" x="1909.912109"/>
    </g>
   </g>
  </g>
 </g>
 <defs>
  <clipPath id="pe98fbf1255">
   <rect x="54.12125" y="46.673817" width="395.87875" height="256.966183"/>
  </clipPath>
 </defs>
</svg>
