<?xml version="1.0" encoding="utf-8" standalone="no"?>
<!DOCTYPE svg PUBLIC "-//W3C//DTD SVG 1.1//EN"
  "http://www.w3.org/Graphics/SVG/1.1/DTD/svg11.dtd">
<svg xmlns:xlink="http://www.w3.org/1999/xlink" width="460.8pt" height="345.6pt" viewBox="0 0 460.8 345.6" xmlns="http://www.w3.org/2000/svg" version="1.1">
 <metadata>
  <rdf:RDF xmlns:dc="http://purl.org/dc/elements/1.1/" xmlns:cc="http://creativecommons.org/ns#" xmlns:rdf="http://www.w3.org/1999/02/22-rdf-syntax-ns#">
   <cc:Work>
    <dc:type rdf:resource="http://purl.org/dc/dcmitype/StillImage"/>
    <dc:date>2024-02-15T21:00:05.600937</dc:date>
    <dc:format>image/svg+xml</dc:format>
    <dc:creator>
     <cc:Agent>
      <dc:title>Matplotlib v3.5.3, https://matplotlib.org/</dc:title>
     </cc:Agent>
    </dc:creator>
   </cc:Work>
  </rdf:RDF>
 </metadata>
 <defs>
  <style type="text/css">*{stroke-linejoin: round; stroke-linecap: butt}</style>
 </defs>
 <g id="figure_1">
  <g id="patch_1">
   <path d="M 0 345.6 
L 460.8 345.6 
L 460.8 0 
L 0 0 
z
" style="fill: #ffffff"/>
  </g>
  <g id="axes_1">
   <g id="patch_2">
    <path d="M 54.12125 303.64 
L 450 303.64 
L 450 46.543987 
L 54.12125 46.543987 
z
" style="fill: #ffffff"/>
   </g>
   <g id="PathCollection_1">
    <defs>
     <path id="m3b75c088da" d="M 0 3 
C 0.795609 3 1.55874 2.683901 2.12132 2.12132 
C 2.683901 1.55874 3 0.795609 3 0 
C 3 -0.795609 2.683901 -1.55874 2.12132 -2.12132 
C 1.55874 -2.683901 0.795609 -3 0 -3 
C -0.795609 -3 -1.55874 -2.683901 -2.12132 -2.12132 
C -2.683901 -1.55874 -3 -0.795609 -3 0 
C -3 0.795609 -2.683901 1.55874 -2.12132 2.12132 
C -1.55874 2.683901 -0.795609 3 0 3 
z
" style="stroke: #1f77b4"/>
    </defs>
    <g clip-path="url(#pe2555de871)">
     <use xlink:href="#m3b75c088da" x="86.687093" y="139.278502" style="fill: #1f77b4; stroke: #1f77b4"/>
     <use xlink:href="#m3b75c088da" x="103.847926" y="181.361164" style="fill: #1f77b4; stroke: #1f77b4"/>
     <use xlink:href="#m3b75c088da" x="105.459227" y="168.488385" style="fill: #1f77b4; stroke: #1f77b4"/>
     <use xlink:href="#m3b75c088da" x="167.607759" y="172.348806" style="fill: #1f77b4; stroke: #1f77b4"/>
     <use xlink:href="#m3b75c088da" x="198.285795" y="165.277338" style="fill: #1f77b4; stroke: #1f77b4"/>
     <use xlink:href="#m3b75c088da" x="206.59133" y="230.030519" style="fill: #1f77b4; stroke: #1f77b4"/>
     <use xlink:href="#m3b75c088da" x="224.587886" y="175.857988" style="fill: #1f77b4; stroke: #1f77b4"/>
     <use xlink:href="#m3b75c088da" x="243.247113" y="197.462831" style="fill: #1f77b4; stroke: #1f77b4"/>
     <use xlink:href="#m3b75c088da" x="254.906096" y="183.509364" style="fill: #1f77b4; stroke: #1f77b4"/>
     <use xlink:href="#m3b75c088da" x="262.59117" y="270.450028" style="fill: #1f77b4; stroke: #1f77b4"/>
     <use xlink:href="#m3b75c088da" x="271.426419" y="136.147862" style="fill: #1f77b4; stroke: #1f77b4"/>
     <use xlink:href="#m3b75c088da" x="271.51189" y="150.023808" style="fill: #1f77b4; stroke: #1f77b4"/>
     <use xlink:href="#m3b75c088da" x="278.138591" y="252.54631" style="fill: #1f77b4; stroke: #1f77b4"/>
     <use xlink:href="#m3b75c088da" x="280.645763" y="218.439312" style="fill: #1f77b4; stroke: #1f77b4"/>
     <use xlink:href="#m3b75c088da" x="283.425178" y="202.952005" style="fill: #1f77b4; stroke: #1f77b4"/>
     <use xlink:href="#m3b75c088da" x="284.751574" y="194.162698" style="fill: #1f77b4; stroke: #1f77b4"/>
     <use xlink:href="#m3b75c088da" x="291.252704" y="124.49993" style="fill: #1f77b4; stroke: #1f77b4"/>
     <use xlink:href="#m3b75c088da" x="312.020235" y="228.35938" style="fill: #1f77b4; stroke: #1f77b4"/>
     <use xlink:href="#m3b75c088da" x="329.031229" y="164.069452" style="fill: #1f77b4; stroke: #1f77b4"/>
     <use xlink:href="#m3b75c088da" x="334.920339" y="268.667138" style="fill: #1f77b4; stroke: #1f77b4"/>
     <use xlink:href="#m3b75c088da" x="432.005511" y="139.941112" style="fill: #1f77b4; stroke: #1f77b4"/>
     <use xlink:href="#m3b75c088da" x="72.115739" y="148.168337" style="fill: #1f77b4; stroke: #1f77b4"/>
     <use xlink:href="#m3b75c088da" x="112.008898" y="110.310562" style="fill: #1f77b4; stroke: #1f77b4"/>
     <use xlink:href="#m3b75c088da" x="158.843209" y="125.94089" style="fill: #1f77b4; stroke: #1f77b4"/>
     <use xlink:href="#m3b75c088da" x="168.113203" y="152.987924" style="fill: #1f77b4; stroke: #1f77b4"/>
     <use xlink:href="#m3b75c088da" x="183.3314" y="136.041181" style="fill: #1f77b4; stroke: #1f77b4"/>
     <use xlink:href="#m3b75c088da" x="202.204834" y="203.742538" style="fill: #1f77b4; stroke: #1f77b4"/>
     <use xlink:href="#m3b75c088da" x="214.426242" y="252.471721" style="fill: #1f77b4; stroke: #1f77b4"/>
     <use xlink:href="#m3b75c088da" x="253.78019" y="246.821568" style="fill: #1f77b4; stroke: #1f77b4"/>
     <use xlink:href="#m3b75c088da" x="302.094957" y="264.390587" style="fill: #1f77b4; stroke: #1f77b4"/>
     <use xlink:href="#m3b75c088da" x="307.569372" y="159.416932" style="fill: #1f77b4; stroke: #1f77b4"/>
     <use xlink:href="#m3b75c088da" x="309.847564" y="188.392522" style="fill: #1f77b4; stroke: #1f77b4"/>
     <use xlink:href="#m3b75c088da" x="311.20456" y="263.153218" style="fill: #1f77b4; stroke: #1f77b4"/>
     <use xlink:href="#m3b75c088da" x="319.10384" y="193.563961" style="fill: #1f77b4; stroke: #1f77b4"/>
     <use xlink:href="#m3b75c088da" x="324.078086" y="252.93333" style="fill: #1f77b4; stroke: #1f77b4"/>
     <use xlink:href="#m3b75c088da" x="336.141214" y="161.48249" style="fill: #1f77b4; stroke: #1f77b4"/>
     <use xlink:href="#m3b75c088da" x="338.073298" y="213.099286" style="fill: #1f77b4; stroke: #1f77b4"/>
     <use xlink:href="#m3b75c088da" x="346.567715" y="226.851253" style="fill: #1f77b4; stroke: #1f77b4"/>
     <use xlink:href="#m3b75c088da" x="351.091388" y="248.19952" style="fill: #1f77b4; stroke: #1f77b4"/>
     <use xlink:href="#m3b75c088da" x="352.329146" y="269.442641" style="fill: #1f77b4; stroke: #1f77b4"/>
     <use xlink:href="#m3b75c088da" x="359.07614" y="211.559392" style="fill: #1f77b4; stroke: #1f77b4"/>
     <use xlink:href="#m3b75c088da" x="365.999354" y="165.981422" style="fill: #1f77b4; stroke: #1f77b4"/>
     <use xlink:href="#m3b75c088da" x="381.806356" y="241.072488" style="fill: #1f77b4; stroke: #1f77b4"/>
     <use xlink:href="#m3b75c088da" x="388.372909" y="276.176827" style="fill: #1f77b4; stroke: #1f77b4"/>
     <use xlink:href="#m3b75c088da" x="403.744006" y="106.790417" style="fill: #1f77b4; stroke: #1f77b4"/>
    </g>
   </g>
   <g id="matplotlib.axis_1">
    <g id="xtick_1">
     <g id="line2d_1">
      <defs>
       <path id="m859cad5d59" d="M 0 0 
L 0 3.5 
" style="stroke: #000000; stroke-width: 0.8"/>
      </defs>
      <g>
       <use xlink:href="#m859cad5d59" x="86.861202" y="303.64" style="stroke: #000000; stroke-width: 0.8"/>
      </g>
     </g>
     <g id="text_1">
      <!-- −40 -->
      <g transform="translate(76.308859 318.238437)scale(0.1 -0.1)">
       <defs>
        <path id="DejaVuSans-2212" d="M 678 2272 
L 4684 2272 
L 4684 1741 
L 678 1741 
L 678 2272 
z
" transform="scale(0.015625)"/>
        <path id="DejaVuSans-34" d="M 2419 4116 
L 825 1625 
L 2419 1625 
L 2419 4116 
z
M 2253 4666 
L 3047 4666 
L 3047 1625 
L 3713 1625 
L 3713 1100 
L 3047 1100 
L 3047 0 
L 2419 0 
L 2419 1100 
L 313 1100 
L 313 1709 
L 2253 4666 
z
" transform="scale(0.015625)"/>
        <path id="DejaVuSans-30" d="M 2034 4250 
Q 1547 4250 1301 3770 
Q 1056 3291 1056 2328 
Q 1056 1369 1301 889 
Q 1547 409 2034 409 
Q 2525 409 2770 889 
Q 3016 1369 3016 2328 
Q 3016 3291 2770 3770 
Q 2525 4250 2034 4250 
z
M 2034 4750 
Q 2819 4750 3233 4129 
Q 3647 3509 3647 2328 
Q 3647 1150 3233 529 
Q 2819 -91 2034 -91 
Q 1250 -91 836 529 
Q 422 1150 422 2328 
Q 422 3509 836 4129 
Q 1250 4750 2034 4750 
z
" transform="scale(0.015625)"/>
       </defs>
       <use xlink:href="#DejaVuSans-2212"/>
       <use xlink:href="#DejaVuSans-34" x="83.789062"/>
       <use xlink:href="#DejaVuSans-30" x="147.412109"/>
      </g>
     </g>
    </g>
    <g id="xtick_2">
     <g id="line2d_2">
      <g>
       <use xlink:href="#m859cad5d59" x="139.621557" y="303.64" style="stroke: #000000; stroke-width: 0.8"/>
      </g>
     </g>
     <g id="text_2">
      <!-- −35 -->
      <g transform="translate(129.069213 318.238437)scale(0.1 -0.1)">
       <defs>
        <path id="DejaVuSans-33" d="M 2597 2516 
Q 3050 2419 3304 2112 
Q 3559 1806 3559 1356 
Q 3559 666 3084 287 
Q 2609 -91 1734 -91 
Q 1441 -91 1130 -33 
Q 819 25 488 141 
L 488 750 
Q 750 597 1062 519 
Q 1375 441 1716 441 
Q 2309 441 2620 675 
Q 2931 909 2931 1356 
Q 2931 1769 2642 2001 
Q 2353 2234 1838 2234 
L 1294 2234 
L 1294 2753 
L 1863 2753 
Q 2328 2753 2575 2939 
Q 2822 3125 2822 3475 
Q 2822 3834 2567 4026 
Q 2313 4219 1838 4219 
Q 1578 4219 1281 4162 
Q 984 4106 628 3988 
L 628 4550 
Q 988 4650 1302 4700 
Q 1616 4750 1894 4750 
Q 2613 4750 3031 4423 
Q 3450 4097 3450 3541 
Q 3450 3153 3228 2886 
Q 3006 2619 2597 2516 
z
" transform="scale(0.015625)"/>
        <path id="DejaVuSans-35" d="M 691 4666 
L 3169 4666 
L 3169 4134 
L 1269 4134 
L 1269 2991 
Q 1406 3038 1543 3061 
Q 1681 3084 1819 3084 
Q 2600 3084 3056 2656 
Q 3513 2228 3513 1497 
Q 3513 744 3044 326 
Q 2575 -91 1722 -91 
Q 1428 -91 1123 -41 
Q 819 9 494 109 
L 494 744 
Q 775 591 1075 516 
Q 1375 441 1709 441 
Q 2250 441 2565 725 
Q 2881 1009 2881 1497 
Q 2881 1984 2565 2268 
Q 2250 2553 1709 2553 
Q 1456 2553 1204 2497 
Q 953 2441 691 2322 
L 691 4666 
z
" transform="scale(0.015625)"/>
       </defs>
       <use xlink:href="#DejaVuSans-2212"/>
       <use xlink:href="#DejaVuSans-33" x="83.789062"/>
       <use xlink:href="#DejaVuSans-35" x="147.412109"/>
      </g>
     </g>
    </g>
    <g id="xtick_3">
     <g id="line2d_3">
      <g>
       <use xlink:href="#m859cad5d59" x="192.381911" y="303.64" style="stroke: #000000; stroke-width: 0.8"/>
      </g>
     </g>
     <g id="text_3">
      <!-- −30 -->
      <g transform="translate(181.829567 318.238437)scale(0.1 -0.1)">
       <use xlink:href="#DejaVuSans-2212"/>
       <use xlink:href="#DejaVuSans-33" x="83.789062"/>
       <use xlink:href="#DejaVuSans-30" x="147.412109"/>
      </g>
     </g>
    </g>
    <g id="xtick_4">
     <g id="line2d_4">
      <g>
       <use xlink:href="#m859cad5d59" x="245.142265" y="303.64" style="stroke: #000000; stroke-width: 0.8"/>
      </g>
     </g>
     <g id="text_4">
      <!-- −25 -->
      <g transform="translate(234.589922 318.238437)scale(0.1 -0.1)">
       <defs>
        <path id="DejaVuSans-32" d="M 1228 531 
L 3431 531 
L 3431 0 
L 469 0 
L 469 531 
Q 828 903 1448 1529 
Q 2069 2156 2228 2338 
Q 2531 2678 2651 2914 
Q 2772 3150 2772 3378 
Q 2772 3750 2511 3984 
Q 2250 4219 1831 4219 
Q 1534 4219 1204 4116 
Q 875 4013 500 3803 
L 500 4441 
Q 881 4594 1212 4672 
Q 1544 4750 1819 4750 
Q 2544 4750 2975 4387 
Q 3406 4025 3406 3419 
Q 3406 3131 3298 2873 
Q 3191 2616 2906 2266 
Q 2828 2175 2409 1742 
Q 1991 1309 1228 531 
z
" transform="scale(0.015625)"/>
       </defs>
       <use xlink:href="#DejaVuSans-2212"/>
       <use xlink:href="#DejaVuSans-32" x="83.789062"/>
       <use xlink:href="#DejaVuSans-35" x="147.412109"/>
      </g>
     </g>
    </g>
    <g id="xtick_5">
     <g id="line2d_5">
      <g>
       <use xlink:href="#m859cad5d59" x="297.90262" y="303.64" style="stroke: #000000; stroke-width: 0.8"/>
      </g>
     </g>
     <g id="text_5">
      <!-- −20 -->
      <g transform="translate(287.350276 318.238437)scale(0.1 -0.1)">
       <use xlink:href="#DejaVuSans-2212"/>
       <use xlink:href="#DejaVuSans-32" x="83.789062"/>
       <use xlink:href="#DejaVuSans-30" x="147.412109"/>
      </g>
     </g>
    </g>
    <g id="xtick_6">
     <g id="line2d_6">
      <g>
       <use xlink:href="#m859cad5d59" x="350.662974" y="303.64" style="stroke: #000000; stroke-width: 0.8"/>
      </g>
     </g>
     <g id="text_6">
      <!-- −15 -->
      <g transform="translate(340.11063 318.238437)scale(0.1 -0.1)">
       <defs>
        <path id="DejaVuSans-31" d="M 794 531 
L 1825 531 
L 1825 4091 
L 703 3866 
L 703 4441 
L 1819 4666 
L 2450 4666 
L 2450 531 
L 3481 531 
L 3481 0 
L 794 0 
L 794 531 
z
" transform="scale(0.015625)"/>
       </defs>
       <use xlink:href="#DejaVuSans-2212"/>
       <use xlink:href="#DejaVuSans-31" x="83.789062"/>
       <use xlink:href="#DejaVuSans-35" x="147.412109"/>
      </g>
     </g>
    </g>
    <g id="xtick_7">
     <g id="line2d_7">
      <g>
       <use xlink:href="#m859cad5d59" x="403.423328" y="303.64" style="stroke: #000000; stroke-width: 0.8"/>
      </g>
     </g>
     <g id="text_7">
      <!-- −10 -->
      <g transform="translate(392.870984 318.238437)scale(0.1 -0.1)">
       <use xlink:href="#DejaVuSans-2212"/>
       <use xlink:href="#DejaVuSans-31" x="83.789062"/>
       <use xlink:href="#DejaVuSans-30" x="147.412109"/>
      </g>
     </g>
    </g>
    <g id="text_8">
     <!-- Total -->
     <g transform="translate(240.384062 331.916562)scale(0.1 -0.1)">
      <defs>
       <path id="DejaVuSans-54" d="M -19 4666 
L 3928 4666 
L 3928 4134 
L 2272 4134 
L 2272 0 
L 1638 0 
L 1638 4134 
L -19 4134 
L -19 4666 
z
" transform="scale(0.015625)"/>
       <path id="DejaVuSans-6f" d="M 1959 3097 
Q 1497 3097 1228 2736 
Q 959 2375 959 1747 
Q 959 1119 1226 758 
Q 1494 397 1959 397 
Q 2419 397 2687 759 
Q 2956 1122 2956 1747 
Q 2956 2369 2687 2733 
Q 2419 3097 1959 3097 
z
M 1959 3584 
Q 2709 3584 3137 3096 
Q 3566 2609 3566 1747 
Q 3566 888 3137 398 
Q 2709 -91 1959 -91 
Q 1206 -91 779 398 
Q 353 888 353 1747 
Q 353 2609 779 3096 
Q 1206 3584 1959 3584 
z
" transform="scale(0.015625)"/>
       <path id="DejaVuSans-74" d="M 1172 4494 
L 1172 3500 
L 2356 3500 
L 2356 3053 
L 1172 3053 
L 1172 1153 
Q 1172 725 1289 603 
Q 1406 481 1766 481 
L 2356 481 
L 2356 0 
L 1766 0 
Q 1100 0 847 248 
Q 594 497 594 1153 
L 594 3053 
L 172 3053 
L 172 3500 
L 594 3500 
L 594 4494 
L 1172 4494 
z
" transform="scale(0.015625)"/>
       <path id="DejaVuSans-61" d="M 2194 1759 
Q 1497 1759 1228 1600 
Q 959 1441 959 1056 
Q 959 750 1161 570 
Q 1363 391 1709 391 
Q 2188 391 2477 730 
Q 2766 1069 2766 1631 
L 2766 1759 
L 2194 1759 
z
M 3341 1997 
L 3341 0 
L 2766 0 
L 2766 531 
Q 2569 213 2275 61 
Q 1981 -91 1556 -91 
Q 1019 -91 701 211 
Q 384 513 384 1019 
Q 384 1609 779 1909 
Q 1175 2209 1959 2209 
L 2766 2209 
L 2766 2266 
Q 2766 2663 2505 2880 
Q 2244 3097 1772 3097 
Q 1472 3097 1187 3025 
Q 903 2953 641 2809 
L 641 3341 
Q 956 3463 1253 3523 
Q 1550 3584 1831 3584 
Q 2591 3584 2966 3190 
Q 3341 2797 3341 1997 
z
" transform="scale(0.015625)"/>
       <path id="DejaVuSans-6c" d="M 603 4863 
L 1178 4863 
L 1178 0 
L 603 0 
L 603 4863 
z
" transform="scale(0.015625)"/>
      </defs>
      <use xlink:href="#DejaVuSans-54"/>
      <use xlink:href="#DejaVuSans-6f" x="44.083984"/>
      <use xlink:href="#DejaVuSans-74" x="105.265625"/>
      <use xlink:href="#DejaVuSans-61" x="144.474609"/>
      <use xlink:href="#DejaVuSans-6c" x="205.753906"/>
     </g>
    </g>
   </g>
   <g id="matplotlib.axis_2">
    <g id="ytick_1">
     <g id="line2d_8">
      <defs>
       <path id="mec6908a326" d="M 0 0 
L -3.5 0 
" style="stroke: #000000; stroke-width: 0.8"/>
      </defs>
      <g>
       <use xlink:href="#mec6908a326" x="54.12125" y="303.64" style="stroke: #000000; stroke-width: 0.8"/>
      </g>
     </g>
     <g id="text_9">
      <!-- 0.00 -->
      <g transform="translate(24.855625 307.439219)scale(0.1 -0.1)">
       <defs>
        <path id="DejaVuSans-2e" d="M 684 794 
L 1344 794 
L 1344 0 
L 684 0 
L 684 794 
z
" transform="scale(0.015625)"/>
       </defs>
       <use xlink:href="#DejaVuSans-30"/>
       <use xlink:href="#DejaVuSans-2e" x="63.623047"/>
       <use xlink:href="#DejaVuSans-30" x="95.410156"/>
       <use xlink:href="#DejaVuSans-30" x="159.033203"/>
      </g>
     </g>
    </g>
    <g id="ytick_2">
     <g id="line2d_9">
      <g>
       <use xlink:href="#mec6908a326" x="54.12125" y="268.413963" style="stroke: #000000; stroke-width: 0.8"/>
      </g>
     </g>
     <g id="text_10">
      <!-- 0.25 -->
      <g transform="translate(24.855625 272.213181)scale(0.1 -0.1)">
       <use xlink:href="#DejaVuSans-30"/>
       <use xlink:href="#DejaVuSans-2e" x="63.623047"/>
       <use xlink:href="#DejaVuSans-32" x="95.410156"/>
       <use xlink:href="#DejaVuSans-35" x="159.033203"/>
      </g>
     </g>
    </g>
    <g id="ytick_3">
     <g id="line2d_10">
      <g>
       <use xlink:href="#mec6908a326" x="54.12125" y="233.187925" style="stroke: #000000; stroke-width: 0.8"/>
      </g>
     </g>
     <g id="text_11">
      <!-- 0.50 -->
      <g transform="translate(24.855625 236.987144)scale(0.1 -0.1)">
       <use xlink:href="#DejaVuSans-30"/>
       <use xlink:href="#DejaVuSans-2e" x="63.623047"/>
       <use xlink:href="#DejaVuSans-35" x="95.410156"/>
       <use xlink:href="#DejaVuSans-30" x="159.033203"/>
      </g>
     </g>
    </g>
    <g id="ytick_4">
     <g id="line2d_11">
      <g>
       <use xlink:href="#mec6908a326" x="54.12125" y="197.961888" style="stroke: #000000; stroke-width: 0.8"/>
      </g>
     </g>
     <g id="text_12">
      <!-- 0.75 -->
      <g transform="translate(24.855625 201.761107)scale(0.1 -0.1)">
       <defs>
        <path id="DejaVuSans-37" d="M 525 4666 
L 3525 4666 
L 3525 4397 
L 1831 0 
L 1172 0 
L 2766 4134 
L 525 4134 
L 525 4666 
z
" transform="scale(0.015625)"/>
       </defs>
       <use xlink:href="#DejaVuSans-30"/>
       <use xlink:href="#DejaVuSans-2e" x="63.623047"/>
       <use xlink:href="#DejaVuSans-37" x="95.410156"/>
       <use xlink:href="#DejaVuSans-35" x="159.033203"/>
      </g>
     </g>
    </g>
    <g id="ytick_5">
     <g id="line2d_12">
      <g>
       <use xlink:href="#mec6908a326" x="54.12125" y="162.73585" style="stroke: #000000; stroke-width: 0.8"/>
      </g>
     </g>
     <g id="text_13">
      <!-- 1.00 -->
      <g transform="translate(24.855625 166.535069)scale(0.1 -0.1)">
       <use xlink:href="#DejaVuSans-31"/>
       <use xlink:href="#DejaVuSans-2e" x="63.623047"/>
       <use xlink:href="#DejaVuSans-30" x="95.410156"/>
       <use xlink:href="#DejaVuSans-30" x="159.033203"/>
      </g>
     </g>
    </g>
    <g id="ytick_6">
     <g id="line2d_13">
      <g>
       <use xlink:href="#mec6908a326" x="54.12125" y="127.509813" style="stroke: #000000; stroke-width: 0.8"/>
      </g>
     </g>
     <g id="text_14">
      <!-- 1.25 -->
      <g transform="translate(24.855625 131.309032)scale(0.1 -0.1)">
       <use xlink:href="#DejaVuSans-31"/>
       <use xlink:href="#DejaVuSans-2e" x="63.623047"/>
       <use xlink:href="#DejaVuSans-32" x="95.410156"/>
       <use xlink:href="#DejaVuSans-35" x="159.033203"/>
      </g>
     </g>
    </g>
    <g id="ytick_7">
     <g id="line2d_14">
      <g>
       <use xlink:href="#mec6908a326" x="54.12125" y="92.283776" style="stroke: #000000; stroke-width: 0.8"/>
      </g>
     </g>
     <g id="text_15">
      <!-- 1.50 -->
      <g transform="translate(24.855625 96.082994)scale(0.1 -0.1)">
       <use xlink:href="#DejaVuSans-31"/>
       <use xlink:href="#DejaVuSans-2e" x="63.623047"/>
       <use xlink:href="#DejaVuSans-35" x="95.410156"/>
       <use xlink:href="#DejaVuSans-30" x="159.033203"/>
      </g>
     </g>
    </g>
    <g id="ytick_8">
     <g id="line2d_15">
      <g>
       <use xlink:href="#mec6908a326" x="54.12125" y="57.057738" style="stroke: #000000; stroke-width: 0.8"/>
      </g>
     </g>
     <g id="text_16">
      <!-- 1.75 -->
      <g transform="translate(24.855625 60.856957)scale(0.1 -0.1)">
       <use xlink:href="#DejaVuSans-31"/>
       <use xlink:href="#DejaVuSans-2e" x="63.623047"/>
       <use xlink:href="#DejaVuSans-37" x="95.410156"/>
       <use xlink:href="#DejaVuSans-35" x="159.033203"/>
      </g>
     </g>
    </g>
    <g id="text_17">
     <!-- PercentGpA_transformed -->
     <g transform="translate(18.497813 237.630275)rotate(-90)scale(0.1 -0.1)">
      <defs>
       <path id="DejaVuSans-50" d="M 1259 4147 
L 1259 2394 
L 2053 2394 
Q 2494 2394 2734 2622 
Q 2975 2850 2975 3272 
Q 2975 3691 2734 3919 
Q 2494 4147 2053 4147 
L 1259 4147 
z
M 628 4666 
L 2053 4666 
Q 2838 4666 3239 4311 
Q 3641 3956 3641 3272 
Q 3641 2581 3239 2228 
Q 2838 1875 2053 1875 
L 1259 1875 
L 1259 0 
L 628 0 
L 628 4666 
z
" transform="scale(0.015625)"/>
       <path id="DejaVuSans-65" d="M 3597 1894 
L 3597 1613 
L 953 1613 
Q 991 1019 1311 708 
Q 1631 397 2203 397 
Q 2534 397 2845 478 
Q 3156 559 3463 722 
L 3463 178 
Q 3153 47 2828 -22 
Q 2503 -91 2169 -91 
Q 1331 -91 842 396 
Q 353 884 353 1716 
Q 353 2575 817 3079 
Q 1281 3584 2069 3584 
Q 2775 3584 3186 3129 
Q 3597 2675 3597 1894 
z
M 3022 2063 
Q 3016 2534 2758 2815 
Q 2500 3097 2075 3097 
Q 1594 3097 1305 2825 
Q 1016 2553 972 2059 
L 3022 2063 
z
" transform="scale(0.015625)"/>
       <path id="DejaVuSans-72" d="M 2631 2963 
Q 2534 3019 2420 3045 
Q 2306 3072 2169 3072 
Q 1681 3072 1420 2755 
Q 1159 2438 1159 1844 
L 1159 0 
L 581 0 
L 581 3500 
L 1159 3500 
L 1159 2956 
Q 1341 3275 1631 3429 
Q 1922 3584 2338 3584 
Q 2397 3584 2469 3576 
Q 2541 3569 2628 3553 
L 2631 2963 
z
" transform="scale(0.015625)"/>
       <path id="DejaVuSans-63" d="M 3122 3366 
L 3122 2828 
Q 2878 2963 2633 3030 
Q 2388 3097 2138 3097 
Q 1578 3097 1268 2742 
Q 959 2388 959 1747 
Q 959 1106 1268 751 
Q 1578 397 2138 397 
Q 2388 397 2633 464 
Q 2878 531 3122 666 
L 3122 134 
Q 2881 22 2623 -34 
Q 2366 -91 2075 -91 
Q 1284 -91 818 406 
Q 353 903 353 1747 
Q 353 2603 823 3093 
Q 1294 3584 2113 3584 
Q 2378 3584 2631 3529 
Q 2884 3475 3122 3366 
z
" transform="scale(0.015625)"/>
       <path id="DejaVuSans-6e" d="M 3513 2113 
L 3513 0 
L 2938 0 
L 2938 2094 
Q 2938 2591 2744 2837 
Q 2550 3084 2163 3084 
Q 1697 3084 1428 2787 
Q 1159 2491 1159 1978 
L 1159 0 
L 581 0 
L 581 3500 
L 1159 3500 
L 1159 2956 
Q 1366 3272 1645 3428 
Q 1925 3584 2291 3584 
Q 2894 3584 3203 3211 
Q 3513 2838 3513 2113 
z
" transform="scale(0.015625)"/>
       <path id="DejaVuSans-47" d="M 3809 666 
L 3809 1919 
L 2778 1919 
L 2778 2438 
L 4434 2438 
L 4434 434 
Q 4069 175 3628 42 
Q 3188 -91 2688 -91 
Q 1594 -91 976 548 
Q 359 1188 359 2328 
Q 359 3472 976 4111 
Q 1594 4750 2688 4750 
Q 3144 4750 3555 4637 
Q 3966 4525 4313 4306 
L 4313 3634 
Q 3963 3931 3569 4081 
Q 3175 4231 2741 4231 
Q 1884 4231 1454 3753 
Q 1025 3275 1025 2328 
Q 1025 1384 1454 906 
Q 1884 428 2741 428 
Q 3075 428 3337 486 
Q 3600 544 3809 666 
z
" transform="scale(0.015625)"/>
       <path id="DejaVuSans-70" d="M 1159 525 
L 1159 -1331 
L 581 -1331 
L 581 3500 
L 1159 3500 
L 1159 2969 
Q 1341 3281 1617 3432 
Q 1894 3584 2278 3584 
Q 2916 3584 3314 3078 
Q 3713 2572 3713 1747 
Q 3713 922 3314 415 
Q 2916 -91 2278 -91 
Q 1894 -91 1617 61 
Q 1341 213 1159 525 
z
M 3116 1747 
Q 3116 2381 2855 2742 
Q 2594 3103 2138 3103 
Q 1681 3103 1420 2742 
Q 1159 2381 1159 1747 
Q 1159 1113 1420 752 
Q 1681 391 2138 391 
Q 2594 391 2855 752 
Q 3116 1113 3116 1747 
z
" transform="scale(0.015625)"/>
       <path id="DejaVuSans-41" d="M 2188 4044 
L 1331 1722 
L 3047 1722 
L 2188 4044 
z
M 1831 4666 
L 2547 4666 
L 4325 0 
L 3669 0 
L 3244 1197 
L 1141 1197 
L 716 0 
L 50 0 
L 1831 4666 
z
" transform="scale(0.015625)"/>
       <path id="DejaVuSans-5f" d="M 3263 -1063 
L 3263 -1509 
L -63 -1509 
L -63 -1063 
L 3263 -1063 
z
" transform="scale(0.015625)"/>
       <path id="DejaVuSans-73" d="M 2834 3397 
L 2834 2853 
Q 2591 2978 2328 3040 
Q 2066 3103 1784 3103 
Q 1356 3103 1142 2972 
Q 928 2841 928 2578 
Q 928 2378 1081 2264 
Q 1234 2150 1697 2047 
L 1894 2003 
Q 2506 1872 2764 1633 
Q 3022 1394 3022 966 
Q 3022 478 2636 193 
Q 2250 -91 1575 -91 
Q 1294 -91 989 -36 
Q 684 19 347 128 
L 347 722 
Q 666 556 975 473 
Q 1284 391 1588 391 
Q 1994 391 2212 530 
Q 2431 669 2431 922 
Q 2431 1156 2273 1281 
Q 2116 1406 1581 1522 
L 1381 1569 
Q 847 1681 609 1914 
Q 372 2147 372 2553 
Q 372 3047 722 3315 
Q 1072 3584 1716 3584 
Q 2034 3584 2315 3537 
Q 2597 3491 2834 3397 
z
" transform="scale(0.015625)"/>
       <path id="DejaVuSans-66" d="M 2375 4863 
L 2375 4384 
L 1825 4384 
Q 1516 4384 1395 4259 
Q 1275 4134 1275 3809 
L 1275 3500 
L 2222 3500 
L 2222 3053 
L 1275 3053 
L 1275 0 
L 697 0 
L 697 3053 
L 147 3053 
L 147 3500 
L 697 3500 
L 697 3744 
Q 697 4328 969 4595 
Q 1241 4863 1831 4863 
L 2375 4863 
z
" transform="scale(0.015625)"/>
       <path id="DejaVuSans-6d" d="M 3328 2828 
Q 3544 3216 3844 3400 
Q 4144 3584 4550 3584 
Q 5097 3584 5394 3201 
Q 5691 2819 5691 2113 
L 5691 0 
L 5113 0 
L 5113 2094 
Q 5113 2597 4934 2840 
Q 4756 3084 4391 3084 
Q 3944 3084 3684 2787 
Q 3425 2491 3425 1978 
L 3425 0 
L 2847 0 
L 2847 2094 
Q 2847 2600 2669 2842 
Q 2491 3084 2119 3084 
Q 1678 3084 1418 2786 
Q 1159 2488 1159 1978 
L 1159 0 
L 581 0 
L 581 3500 
L 1159 3500 
L 1159 2956 
Q 1356 3278 1631 3431 
Q 1906 3584 2284 3584 
Q 2666 3584 2933 3390 
Q 3200 3197 3328 2828 
z
" transform="scale(0.015625)"/>
       <path id="DejaVuSans-64" d="M 2906 2969 
L 2906 4863 
L 3481 4863 
L 3481 0 
L 2906 0 
L 2906 525 
Q 2725 213 2448 61 
Q 2172 -91 1784 -91 
Q 1150 -91 751 415 
Q 353 922 353 1747 
Q 353 2572 751 3078 
Q 1150 3584 1784 3584 
Q 2172 3584 2448 3432 
Q 2725 3281 2906 2969 
z
M 947 1747 
Q 947 1113 1208 752 
Q 1469 391 1925 391 
Q 2381 391 2643 752 
Q 2906 1113 2906 1747 
Q 2906 2381 2643 2742 
Q 2381 3103 1925 3103 
Q 1469 3103 1208 2742 
Q 947 2381 947 1747 
z
" transform="scale(0.015625)"/>
      </defs>
      <use xlink:href="#DejaVuSans-50"/>
      <use xlink:href="#DejaVuSans-65" x="56.677734"/>
      <use xlink:href="#DejaVuSans-72" x="118.201172"/>
      <use xlink:href="#DejaVuSans-63" x="157.064453"/>
      <use xlink:href="#DejaVuSans-65" x="212.044922"/>
      <use xlink:href="#DejaVuSans-6e" x="273.568359"/>
      <use xlink:href="#DejaVuSans-74" x="336.947266"/>
      <use xlink:href="#DejaVuSans-47" x="376.15625"/>
      <use xlink:href="#DejaVuSans-70" x="453.646484"/>
      <use xlink:href="#DejaVuSans-41" x="517.123047"/>
      <use xlink:href="#DejaVuSans-5f" x="585.53125"/>
      <use xlink:href="#DejaVuSans-74" x="635.53125"/>
      <use xlink:href="#DejaVuSans-72" x="674.740234"/>
      <use xlink:href="#DejaVuSans-61" x="715.853516"/>
      <use xlink:href="#DejaVuSans-6e" x="777.132812"/>
      <use xlink:href="#DejaVuSans-73" x="840.511719"/>
      <use xlink:href="#DejaVuSans-66" x="892.611328"/>
      <use xlink:href="#DejaVuSans-6f" x="927.816406"/>
      <use xlink:href="#DejaVuSans-72" x="988.998047"/>
      <use xlink:href="#DejaVuSans-6d" x="1028.361328"/>
      <use xlink:href="#DejaVuSans-65" x="1125.773438"/>
      <use xlink:href="#DejaVuSans-64" x="1187.296875"/>
     </g>
    </g>
   </g>
   <g id="LineCollection_1">
    <path d="M 86.687093 160.820586 
L 86.687093 117.736419 
" clip-path="url(#pe2555de871)" style="fill: none; stroke: #d3d3d3; stroke-width: 3"/>
    <path d="M 103.847926 213.262013 
L 103.847926 149.460315 
" clip-path="url(#pe2555de871)" style="fill: none; stroke: #d3d3d3; stroke-width: 3"/>
    <path d="M 105.459227 196.433674 
L 105.459227 140.543097 
" clip-path="url(#pe2555de871)" style="fill: none; stroke: #d3d3d3; stroke-width: 3"/>
    <path d="M 167.607759 221.42378 
L 167.607759 123.273833 
" clip-path="url(#pe2555de871)" style="fill: none; stroke: #d3d3d3; stroke-width: 3"/>
    <path d="M 198.285795 179.923934 
L 198.285795 150.630743 
" clip-path="url(#pe2555de871)" style="fill: none; stroke: #d3d3d3; stroke-width: 3"/>
    <path d="M 206.59133 238.126148 
L 206.59133 221.934889 
" clip-path="url(#pe2555de871)" style="fill: none; stroke: #d3d3d3; stroke-width: 3"/>
    <path d="M 224.587886 190.883451 
L 224.587886 160.832525 
" clip-path="url(#pe2555de871)" style="fill: none; stroke: #d3d3d3; stroke-width: 3"/>
    <path d="M 243.247113 210.225017 
L 243.247113 184.700646 
" clip-path="url(#pe2555de871)" style="fill: none; stroke: #d3d3d3; stroke-width: 3"/>
    <path d="M 254.906096 194.955562 
L 254.906096 172.063167 
" clip-path="url(#pe2555de871)" style="fill: none; stroke: #d3d3d3; stroke-width: 3"/>
    <path d="M 262.59117 277.361679 
L 262.59117 263.538376 
" clip-path="url(#pe2555de871)" style="fill: none; stroke: #d3d3d3; stroke-width: 3"/>
    <path d="M 271.426419 161.797814 
L 271.426419 110.497909 
" clip-path="url(#pe2555de871)" style="fill: none; stroke: #d3d3d3; stroke-width: 3"/>
    <path d="M 271.51189 166.397455 
L 271.51189 133.65016 
" clip-path="url(#pe2555de871)" style="fill: none; stroke: #d3d3d3; stroke-width: 3"/>
    <path d="M 278.138591 260.347061 
L 278.138591 244.745558 
" clip-path="url(#pe2555de871)" style="fill: none; stroke: #d3d3d3; stroke-width: 3"/>
    <path d="M 280.645763 237.864439 
L 280.645763 199.014184 
" clip-path="url(#pe2555de871)" style="fill: none; stroke: #d3d3d3; stroke-width: 3"/>
    <path d="M 283.425178 238.631905 
L 283.425178 167.272105 
" clip-path="url(#pe2555de871)" style="fill: none; stroke: #d3d3d3; stroke-width: 3"/>
    <path d="M 284.751574 204.02408 
L 284.751574 184.301315 
" clip-path="url(#pe2555de871)" style="fill: none; stroke: #d3d3d3; stroke-width: 3"/>
    <path d="M 291.252704 138.465844 
L 291.252704 110.534015 
" clip-path="url(#pe2555de871)" style="fill: none; stroke: #d3d3d3; stroke-width: 3"/>
    <path d="M 312.020235 234.02905 
L 312.020235 222.68971 
" clip-path="url(#pe2555de871)" style="fill: none; stroke: #d3d3d3; stroke-width: 3"/>
    <path d="M 329.031229 188.402924 
L 329.031229 139.735979 
" clip-path="url(#pe2555de871)" style="fill: none; stroke: #d3d3d3; stroke-width: 3"/>
    <path d="M 334.920339 289.60513 
L 334.920339 247.729146 
" clip-path="url(#pe2555de871)" style="fill: none; stroke: #d3d3d3; stroke-width: 3"/>
    <path d="M 432.005511 163.344121 
L 432.005511 116.538103 
" clip-path="url(#pe2555de871)" style="fill: none; stroke: #d3d3d3; stroke-width: 3"/>
    <path d="M 72.115739 152.909877 
L 72.115739 143.426798 
" clip-path="url(#pe2555de871)" style="fill: none; stroke: #d3d3d3; stroke-width: 3"/>
    <path d="M 112.008898 142.066371 
L 112.008898 78.554753 
" clip-path="url(#pe2555de871)" style="fill: none; stroke: #d3d3d3; stroke-width: 3"/>
    <path d="M 158.843209 139.782667 
L 158.843209 112.099112 
" clip-path="url(#pe2555de871)" style="fill: none; stroke: #d3d3d3; stroke-width: 3"/>
    <path d="M 168.113203 160.247912 
L 168.113203 145.727935 
" clip-path="url(#pe2555de871)" style="fill: none; stroke: #d3d3d3; stroke-width: 3"/>
    <path d="M 183.3314 213.964035 
L 183.3314 58.118327 
" clip-path="url(#pe2555de871)" style="fill: none; stroke: #d3d3d3; stroke-width: 3"/>
    <path d="M 202.204834 211.512317 
L 202.204834 195.97276 
" clip-path="url(#pe2555de871)" style="fill: none; stroke: #d3d3d3; stroke-width: 3"/>
    <path d="M 214.426242 259.617982 
L 214.426242 245.32546 
" clip-path="url(#pe2555de871)" style="fill: none; stroke: #d3d3d3; stroke-width: 3"/>
    <path d="M 253.78019 252.016946 
L 253.78019 241.62619 
" clip-path="url(#pe2555de871)" style="fill: none; stroke: #d3d3d3; stroke-width: 3"/>
    <path d="M 302.094957 265.283727 
L 302.094957 263.497446 
" clip-path="url(#pe2555de871)" style="fill: none; stroke: #d3d3d3; stroke-width: 3"/>
    <path d="M 307.569372 161.531897 
L 307.569372 157.301967 
" clip-path="url(#pe2555de871)" style="fill: none; stroke: #d3d3d3; stroke-width: 3"/>
    <path d="M 309.847564 202.535721 
L 309.847564 174.249323 
" clip-path="url(#pe2555de871)" style="fill: none; stroke: #d3d3d3; stroke-width: 3"/>
    <path d="M 311.20456 276.404952 
L 311.20456 249.901483 
" clip-path="url(#pe2555de871)" style="fill: none; stroke: #d3d3d3; stroke-width: 3"/>
    <path d="M 319.10384 211.730793 
L 319.10384 175.397128 
" clip-path="url(#pe2555de871)" style="fill: none; stroke: #d3d3d3; stroke-width: 3"/>
    <path d="M 324.078086 257.604427 
L 324.078086 248.262233 
" clip-path="url(#pe2555de871)" style="fill: none; stroke: #d3d3d3; stroke-width: 3"/>
    <path d="M 336.141214 187.85531 
L 336.141214 135.109671 
" clip-path="url(#pe2555de871)" style="fill: none; stroke: #d3d3d3; stroke-width: 3"/>
    <path d="M 338.073298 220.595383 
L 338.073298 205.603189 
" clip-path="url(#pe2555de871)" style="fill: none; stroke: #d3d3d3; stroke-width: 3"/>
    <path d="M 346.567715 234.724996 
L 346.567715 218.977509 
" clip-path="url(#pe2555de871)" style="fill: none; stroke: #d3d3d3; stroke-width: 3"/>
    <path d="M 351.091388 253.552458 
L 351.091388 242.846583 
" clip-path="url(#pe2555de871)" style="fill: none; stroke: #d3d3d3; stroke-width: 3"/>
    <path d="M 352.329146 280.291979 
L 352.329146 258.593302 
" clip-path="url(#pe2555de871)" style="fill: none; stroke: #d3d3d3; stroke-width: 3"/>
    <path d="M 359.07614 226.844893 
L 359.07614 196.273891 
" clip-path="url(#pe2555de871)" style="fill: none; stroke: #d3d3d3; stroke-width: 3"/>
    <path d="M 365.999354 187.863884 
L 365.999354 144.09896 
" clip-path="url(#pe2555de871)" style="fill: none; stroke: #d3d3d3; stroke-width: 3"/>
    <path d="M 381.806356 250.5443 
L 381.806356 231.600677 
" clip-path="url(#pe2555de871)" style="fill: none; stroke: #d3d3d3; stroke-width: 3"/>
    <path d="M 388.372909 281.12426 
L 388.372909 271.229395 
" clip-path="url(#pe2555de871)" style="fill: none; stroke: #d3d3d3; stroke-width: 3"/>
    <path d="M 403.744006 127.141443 
L 403.744006 86.439391 
" clip-path="url(#pe2555de871)" style="fill: none; stroke: #d3d3d3; stroke-width: 3"/>
   </g>
   <g id="line2d_16">
    <path d="M 86.687093 159.28046 
L 103.847926 162.667449 
L 105.459227 162.985468 
L 167.607759 175.251564 
L 198.285795 181.306409 
L 206.59133 182.945651 
L 224.587886 186.497585 
L 243.247113 190.180309 
L 254.906096 192.481412 
L 262.59117 193.998195 
L 271.426419 195.741986 
L 271.51189 195.758855 
L 278.138591 197.06675 
L 280.645763 197.561584 
L 283.425178 198.11015 
L 284.751574 198.371937 
L 291.252704 199.655049 
L 312.020235 203.753883 
L 329.031229 207.111299 
L 334.920339 208.273618 
L 432.005511 227.435069 
L 72.115739 156.404549 
L 112.008898 164.278159 
L 158.843209 173.521727 
L 168.113203 175.351322 
L 183.3314 178.354898 
L 202.204834 182.079899 
L 214.426242 184.492007 
L 253.78019 192.259195 
L 302.094957 201.794956 
L 307.569372 202.875428 
L 309.847564 203.325068 
L 311.20456 203.592895 
L 319.10384 205.151956 
L 324.078086 206.13371 
L 336.141214 208.514579 
L 338.073298 208.895909 
L 346.567715 210.57243 
L 351.091388 211.465256 
L 352.329146 211.709549 
L 359.07614 213.041186 
L 365.999354 214.407603 
L 381.806356 217.52739 
L 388.372909 218.823414 
L 403.744006 221.857168 
" clip-path="url(#pe2555de871)" style="fill: none; stroke: #1f77b4; stroke-width: 1.5; stroke-linecap: square"/>
   </g>
   <g id="line2d_17">
    <defs>
     <path id="m1e0c31ea6d" d="M 0 3 
C 0.795609 3 1.55874 2.683901 2.12132 2.12132 
C 2.683901 1.55874 3 0.795609 3 0 
C 3 -0.795609 2.683901 -1.55874 2.12132 -2.12132 
C 1.55874 -2.683901 0.795609 -3 0 -3 
C -0.795609 -3 -1.55874 -2.683901 -2.12132 -2.12132 
C -2.683901 -1.55874 -3 -0.795609 -3 0 
C -3 0.795609 -2.683901 1.55874 -2.12132 2.12132 
C -1.55874 2.683901 -0.795609 3 0 3 
z
" style="stroke: #000000"/>
    </defs>
    <g clip-path="url(#pe2555de871)">
     <use xlink:href="#m1e0c31ea6d" x="86.687093" y="139.278502" style="stroke: #000000"/>
     <use xlink:href="#m1e0c31ea6d" x="103.847926" y="181.361164" style="stroke: #000000"/>
     <use xlink:href="#m1e0c31ea6d" x="105.459227" y="168.488385" style="stroke: #000000"/>
     <use xlink:href="#m1e0c31ea6d" x="167.607759" y="172.348806" style="stroke: #000000"/>
     <use xlink:href="#m1e0c31ea6d" x="198.285795" y="165.277338" style="stroke: #000000"/>
     <use xlink:href="#m1e0c31ea6d" x="206.59133" y="230.030519" style="stroke: #000000"/>
     <use xlink:href="#m1e0c31ea6d" x="224.587886" y="175.857988" style="stroke: #000000"/>
     <use xlink:href="#m1e0c31ea6d" x="243.247113" y="197.462831" style="stroke: #000000"/>
     <use xlink:href="#m1e0c31ea6d" x="254.906096" y="183.509364" style="stroke: #000000"/>
     <use xlink:href="#m1e0c31ea6d" x="262.59117" y="270.450028" style="stroke: #000000"/>
     <use xlink:href="#m1e0c31ea6d" x="271.426419" y="136.147862" style="stroke: #000000"/>
     <use xlink:href="#m1e0c31ea6d" x="271.51189" y="150.023808" style="stroke: #000000"/>
     <use xlink:href="#m1e0c31ea6d" x="278.138591" y="252.54631" style="stroke: #000000"/>
     <use xlink:href="#m1e0c31ea6d" x="280.645763" y="218.439312" style="stroke: #000000"/>
     <use xlink:href="#m1e0c31ea6d" x="283.425178" y="202.952005" style="stroke: #000000"/>
     <use xlink:href="#m1e0c31ea6d" x="284.751574" y="194.162698" style="stroke: #000000"/>
     <use xlink:href="#m1e0c31ea6d" x="291.252704" y="124.49993" style="stroke: #000000"/>
     <use xlink:href="#m1e0c31ea6d" x="312.020235" y="228.35938" style="stroke: #000000"/>
     <use xlink:href="#m1e0c31ea6d" x="329.031229" y="164.069452" style="stroke: #000000"/>
     <use xlink:href="#m1e0c31ea6d" x="334.920339" y="268.667138" style="stroke: #000000"/>
     <use xlink:href="#m1e0c31ea6d" x="432.005511" y="139.941112" style="stroke: #000000"/>
     <use xlink:href="#m1e0c31ea6d" x="72.115739" y="148.168337" style="stroke: #000000"/>
     <use xlink:href="#m1e0c31ea6d" x="112.008898" y="110.310562" style="stroke: #000000"/>
     <use xlink:href="#m1e0c31ea6d" x="158.843209" y="125.94089" style="stroke: #000000"/>
     <use xlink:href="#m1e0c31ea6d" x="168.113203" y="152.987924" style="stroke: #000000"/>
     <use xlink:href="#m1e0c31ea6d" x="183.3314" y="136.041181" style="stroke: #000000"/>
     <use xlink:href="#m1e0c31ea6d" x="202.204834" y="203.742538" style="stroke: #000000"/>
     <use xlink:href="#m1e0c31ea6d" x="214.426242" y="252.471721" style="stroke: #000000"/>
     <use xlink:href="#m1e0c31ea6d" x="253.78019" y="246.821568" style="stroke: #000000"/>
     <use xlink:href="#m1e0c31ea6d" x="302.094957" y="264.390587" style="stroke: #000000"/>
     <use xlink:href="#m1e0c31ea6d" x="307.569372" y="159.416932" style="stroke: #000000"/>
     <use xlink:href="#m1e0c31ea6d" x="309.847564" y="188.392522" style="stroke: #000000"/>
     <use xlink:href="#m1e0c31ea6d" x="311.20456" y="263.153218" style="stroke: #000000"/>
     <use xlink:href="#m1e0c31ea6d" x="319.10384" y="193.563961" style="stroke: #000000"/>
     <use xlink:href="#m1e0c31ea6d" x="324.078086" y="252.93333" style="stroke: #000000"/>
     <use xlink:href="#m1e0c31ea6d" x="336.141214" y="161.48249" style="stroke: #000000"/>
     <use xlink:href="#m1e0c31ea6d" x="338.073298" y="213.099286" style="stroke: #000000"/>
     <use xlink:href="#m1e0c31ea6d" x="346.567715" y="226.851253" style="stroke: #000000"/>
     <use xlink:href="#m1e0c31ea6d" x="351.091388" y="248.19952" style="stroke: #000000"/>
     <use xlink:href="#m1e0c31ea6d" x="352.329146" y="269.442641" style="stroke: #000000"/>
     <use xlink:href="#m1e0c31ea6d" x="359.07614" y="211.559392" style="stroke: #000000"/>
     <use xlink:href="#m1e0c31ea6d" x="365.999354" y="165.981422" style="stroke: #000000"/>
     <use xlink:href="#m1e0c31ea6d" x="381.806356" y="241.072488" style="stroke: #000000"/>
     <use xlink:href="#m1e0c31ea6d" x="388.372909" y="276.176827" style="stroke: #000000"/>
     <use xlink:href="#m1e0c31ea6d" x="403.744006" y="106.790417" style="stroke: #000000"/>
    </g>
   </g>
   <g id="patch_3">
    <path d="M 54.12125 303.64 
L 54.12125 46.543987 
" style="fill: none; stroke: #000000; stroke-width: 0.8; stroke-linejoin: miter; stroke-linecap: square"/>
   </g>
   <g id="patch_4">
    <path d="M 450 303.64 
L 450 46.543987 
" style="fill: none; stroke: #000000; stroke-width: 0.8; stroke-linejoin: miter; stroke-linecap: square"/>
   </g>
   <g id="patch_5">
    <path d="M 54.12125 303.64 
L 450 303.64 
" style="fill: none; stroke: #000000; stroke-width: 0.8; stroke-linejoin: miter; stroke-linecap: square"/>
   </g>
   <g id="patch_6">
    <path d="M 54.12125 46.543987 
L 450 46.543987 
" style="fill: none; stroke: #000000; stroke-width: 0.8; stroke-linejoin: miter; stroke-linecap: square"/>
   </g>
   <g id="text_18">
    <!-- y = -0.01x + 0.43 -->
    <g transform="translate(48.984906 18.451841)scale(0.1 -0.1)">
     <defs>
      <path id="DejaVuSans-79" d="M 2059 -325 
Q 1816 -950 1584 -1140 
Q 1353 -1331 966 -1331 
L 506 -1331 
L 506 -850 
L 844 -850 
Q 1081 -850 1212 -737 
Q 1344 -625 1503 -206 
L 1606 56 
L 191 3500 
L 800 3500 
L 1894 763 
L 2988 3500 
L 3597 3500 
L 2059 -325 
z
" transform="scale(0.015625)"/>
      <path id="DejaVuSans-20" transform="scale(0.015625)"/>
      <path id="DejaVuSans-3d" d="M 678 2906 
L 4684 2906 
L 4684 2381 
L 678 2381 
L 678 2906 
z
M 678 1631 
L 4684 1631 
L 4684 1100 
L 678 1100 
L 678 1631 
z
" transform="scale(0.015625)"/>
      <path id="DejaVuSans-2d" d="M 313 2009 
L 1997 2009 
L 1997 1497 
L 313 1497 
L 313 2009 
z
" transform="scale(0.015625)"/>
      <path id="DejaVuSans-78" d="M 3513 3500 
L 2247 1797 
L 3578 0 
L 2900 0 
L 1881 1375 
L 863 0 
L 184 0 
L 1544 1831 
L 300 3500 
L 978 3500 
L 1906 2253 
L 2834 3500 
L 3513 3500 
z
" transform="scale(0.015625)"/>
      <path id="DejaVuSans-2b" d="M 2944 4013 
L 2944 2272 
L 4684 2272 
L 4684 1741 
L 2944 1741 
L 2944 0 
L 2419 0 
L 2419 1741 
L 678 1741 
L 678 2272 
L 2419 2272 
L 2419 4013 
L 2944 4013 
z
" transform="scale(0.015625)"/>
     </defs>
     <use xlink:href="#DejaVuSans-79"/>
     <use xlink:href="#DejaVuSans-20" x="59.179688"/>
     <use xlink:href="#DejaVuSans-3d" x="90.966797"/>
     <use xlink:href="#DejaVuSans-20" x="174.755859"/>
     <use xlink:href="#DejaVuSans-2d" x="206.542969"/>
     <use xlink:href="#DejaVuSans-30" x="242.626953"/>
     <use xlink:href="#DejaVuSans-2e" x="306.25"/>
     <use xlink:href="#DejaVuSans-30" x="338.037109"/>
     <use xlink:href="#DejaVuSans-31" x="401.660156"/>
     <use xlink:href="#DejaVuSans-78" x="465.283203"/>
     <use xlink:href="#DejaVuSans-20" x="524.462891"/>
     <use xlink:href="#DejaVuSans-2b" x="556.25"/>
     <use xlink:href="#DejaVuSans-20" x="640.039062"/>
     <use xlink:href="#DejaVuSans-30" x="671.826172"/>
     <use xlink:href="#DejaVuSans-2e" x="735.449219"/>
     <use xlink:href="#DejaVuSans-34" x="767.236328"/>
     <use xlink:href="#DejaVuSans-33" x="830.859375"/>
    </g>
   </g>
   <g id="text_19">
    <!-- r^2 = 0.13 -->
    <g transform="translate(65.781781 26.164721)scale(0.1 -0.1)">
     <defs>
      <path id="DejaVuSans-5e" d="M 2988 4666 
L 4684 2925 
L 4056 2925 
L 2681 4159 
L 1306 2925 
L 678 2925 
L 2375 4666 
L 2988 4666 
z
" transform="scale(0.015625)"/>
     </defs>
     <use xlink:href="#DejaVuSans-72"/>
     <use xlink:href="#DejaVuSans-5e" x="41.113281"/>
     <use xlink:href="#DejaVuSans-32" x="124.902344"/>
     <use xlink:href="#DejaVuSans-20" x="188.525391"/>
     <use xlink:href="#DejaVuSans-3d" x="220.3125"/>
     <use xlink:href="#DejaVuSans-20" x="304.101562"/>
     <use xlink:href="#DejaVuSans-30" x="335.888672"/>
     <use xlink:href="#DejaVuSans-2e" x="399.511719"/>
     <use xlink:href="#DejaVuSans-31" x="431.298828"/>
     <use xlink:href="#DejaVuSans-33" x="494.921875"/>
    </g>
   </g>
   <g id="text_20">
    <!-- n = 45 -->
    <g transform="translate(76.809906 33.877601)scale(0.1 -0.1)">
     <use xlink:href="#DejaVuSans-6e"/>
     <use xlink:href="#DejaVuSans-20" x="63.378906"/>
     <use xlink:href="#DejaVuSans-3d" x="95.166016"/>
     <use xlink:href="#DejaVuSans-20" x="178.955078"/>
     <use xlink:href="#DejaVuSans-34" x="210.742188"/>
     <use xlink:href="#DejaVuSans-35" x="274.365234"/>
    </g>
   </g>
   <g id="text_21">
    <!-- Total vs PercentGpA_transformed -->
    <g transform="translate(152.512187 40.543987)scale(0.12 -0.12)">
     <defs>
      <path id="DejaVuSans-76" d="M 191 3500 
L 800 3500 
L 1894 563 
L 2988 3500 
L 3597 3500 
L 2284 0 
L 1503 0 
L 191 3500 
z
" transform="scale(0.015625)"/>
     </defs>
     <use xlink:href="#DejaVuSans-54"/>
     <use xlink:href="#DejaVuSans-6f" x="44.083984"/>
     <use xlink:href="#DejaVuSans-74" x="105.265625"/>
     <use xlink:href="#DejaVuSans-61" x="144.474609"/>
     <use xlink:href="#DejaVuSans-6c" x="205.753906"/>
     <use xlink:href="#DejaVuSans-20" x="233.537109"/>
     <use xlink:href="#DejaVuSans-76" x="265.324219"/>
     <use xlink:href="#DejaVuSans-73" x="324.503906"/>
     <use xlink:href="#DejaVuSans-20" x="376.603516"/>
     <use xlink:href="#DejaVuSans-50" x="408.390625"/>
     <use xlink:href="#DejaVuSans-65" x="465.068359"/>
     <use xlink:href="#DejaVuSans-72" x="526.591797"/>
     <use xlink:href="#DejaVuSans-63" x="565.455078"/>
     <use xlink:href="#DejaVuSans-65" x="620.435547"/>
     <use xlink:href="#DejaVuSans-6e" x="681.958984"/>
     <use xlink:href="#DejaVuSans-74" x="745.337891"/>
     <use xlink:href="#DejaVuSans-47" x="784.546875"/>
     <use xlink:href="#DejaVuSans-70" x="862.037109"/>
     <use xlink:href="#DejaVuSans-41" x="925.513672"/>
     <use xlink:href="#DejaVuSans-5f" x="993.921875"/>
     <use xlink:href="#DejaVuSans-74" x="1043.921875"/>
     <use xlink:href="#DejaVuSans-72" x="1083.130859"/>
     <use xlink:href="#DejaVuSans-61" x="1124.244141"/>
     <use xlink:href="#DejaVuSans-6e" x="1185.523438"/>
     <use xlink:href="#DejaVuSans-73" x="1248.902344"/>
     <use xlink:href="#DejaVuSans-66" x="1301.001953"/>
     <use xlink:href="#DejaVuSans-6f" x="1336.207031"/>
     <use xlink:href="#DejaVuSans-72" x="1397.388672"/>
     <use xlink:href="#DejaVuSans-6d" x="1436.751953"/>
     <use xlink:href="#DejaVuSans-65" x="1534.164062"/>
     <use xlink:href="#DejaVuSans-64" x="1595.6875"/>
    </g>
   </g>
  </g>
 </g>
 <defs>
  <clipPath id="pe2555de871">
   <rect x="54.12125" y="46.543987" width="395.87875" height="257.096013"/>
  </clipPath>
 </defs>
</svg>
