<?xml version="1.0" encoding="utf-8" standalone="no"?>
<!DOCTYPE svg PUBLIC "-//W3C//DTD SVG 1.1//EN"
  "http://www.w3.org/Graphics/SVG/1.1/DTD/svg11.dtd">
<svg xmlns:xlink="http://www.w3.org/1999/xlink" width="460.8pt" height="345.6pt" viewBox="0 0 460.8 345.6" xmlns="http://www.w3.org/2000/svg" version="1.1">
 <metadata>
  <rdf:RDF xmlns:dc="http://purl.org/dc/elements/1.1/" xmlns:cc="http://creativecommons.org/ns#" xmlns:rdf="http://www.w3.org/1999/02/22-rdf-syntax-ns#">
   <cc:Work>
    <dc:type rdf:resource="http://purl.org/dc/dcmitype/StillImage"/>
    <dc:date>2024-02-15T21:00:05.749953</dc:date>
    <dc:format>image/svg+xml</dc:format>
    <dc:creator>
     <cc:Agent>
      <dc:title>Matplotlib v3.5.3, https://matplotlib.org/</dc:title>
     </cc:Agent>
    </dc:creator>
   </cc:Work>
  </rdf:RDF>
 </metadata>
 <defs>
  <style type="text/css">*{stroke-linejoin: round; stroke-linecap: butt}</style>
 </defs>
 <g id="figure_1">
  <g id="patch_1">
   <path d="M 0 345.6 
L 460.8 345.6 
L 460.8 0 
L 0 0 
z
" style="fill: #ffffff"/>
  </g>
  <g id="axes_1">
   <g id="patch_2">
    <path d="M 54.12125 303.64 
L 450 303.64 
L 450 46.691522 
L 54.12125 46.691522 
z
" style="fill: #ffffff"/>
   </g>
   <g id="PathCollection_1">
    <defs>
     <path id="m4633bf94ee" d="M 0 3 
C 0.795609 3 1.55874 2.683901 2.12132 2.12132 
C 2.683901 1.55874 3 0.795609 3 0 
C 3 -0.795609 2.683901 -1.55874 2.12132 -2.12132 
C 1.55874 -2.683901 0.795609 -3 0 -3 
C -0.795609 -3 -1.55874 -2.683901 -2.12132 -2.12132 
C -2.683901 -1.55874 -3 -0.795609 -3 0 
C -3 0.795609 -2.683901 1.55874 -2.12132 2.12132 
C -1.55874 2.683901 -0.795609 3 0 3 
z
" style="stroke: #1f77b4"/>
    </defs>
    <g clip-path="url(#pe7e2c75c3d)">
     <use xlink:href="#m4633bf94ee" x="127.227886" y="139.372821" style="fill: #1f77b4; stroke: #1f77b4"/>
     <use xlink:href="#m4633bf94ee" x="72.115739" y="181.431334" style="fill: #1f77b4; stroke: #1f77b4"/>
     <use xlink:href="#m4633bf94ee" x="77.143834" y="168.565942" style="fill: #1f77b4; stroke: #1f77b4"/>
     <use xlink:href="#m4633bf94ee" x="169.541506" y="172.424148" style="fill: #1f77b4; stroke: #1f77b4"/>
     <use xlink:href="#m4633bf94ee" x="186.553418" y="165.356738" style="fill: #1f77b4; stroke: #1f77b4"/>
     <use xlink:href="#m4633bf94ee" x="207.152343" y="230.072759" style="fill: #1f77b4; stroke: #1f77b4"/>
     <use xlink:href="#m4633bf94ee" x="121.280922" y="175.931316" style="fill: #1f77b4; stroke: #1f77b4"/>
     <use xlink:href="#m4633bf94ee" x="279.156551" y="197.523761" style="fill: #1f77b4; stroke: #1f77b4"/>
     <use xlink:href="#m4633bf94ee" x="240.215922" y="183.578301" style="fill: #1f77b4; stroke: #1f77b4"/>
     <use xlink:href="#m4633bf94ee" x="209.338223" y="270.469074" style="fill: #1f77b4; stroke: #1f77b4"/>
     <use xlink:href="#m4633bf94ee" x="241.38591" y="136.243977" style="fill: #1f77b4; stroke: #1f77b4"/>
     <use xlink:href="#m4633bf94ee" x="301.795821" y="150.11196" style="fill: #1f77b4; stroke: #1f77b4"/>
     <use xlink:href="#m4633bf94ee" x="222.093948" y="252.57563" style="fill: #1f77b4; stroke: #1f77b4"/>
     <use xlink:href="#m4633bf94ee" x="260.944687" y="218.488204" style="fill: #1f77b4; stroke: #1f77b4"/>
     <use xlink:href="#m4633bf94ee" x="249.963921" y="203.009785" style="fill: #1f77b4; stroke: #1f77b4"/>
     <use xlink:href="#m4633bf94ee" x="329.377578" y="194.225521" style="fill: #1f77b4; stroke: #1f77b4"/>
     <use xlink:href="#m4633bf94ee" x="226.995056" y="124.602729" style="fill: #1f77b4; stroke: #1f77b4"/>
     <use xlink:href="#m4633bf94ee" x="300.894074" y="228.40258" style="fill: #1f77b4; stroke: #1f77b4"/>
     <use xlink:href="#m4633bf94ee" x="282.86627" y="164.149544" style="fill: #1f77b4; stroke: #1f77b4"/>
     <use xlink:href="#m4633bf94ee" x="302.984358" y="268.687207" style="fill: #1f77b4; stroke: #1f77b4"/>
     <use xlink:href="#m4633bf94ee" x="348.521152" y="140.03505" style="fill: #1f77b4; stroke: #1f77b4"/>
     <use xlink:href="#m4633bf94ee" x="84.416309" y="148.257555" style="fill: #1f77b4; stroke: #1f77b4"/>
     <use xlink:href="#m4633bf94ee" x="99.463498" y="110.421504" style="fill: #1f77b4; stroke: #1f77b4"/>
     <use xlink:href="#m4633bf94ee" x="162.076411" y="126.042862" style="fill: #1f77b4; stroke: #1f77b4"/>
     <use xlink:href="#m4633bf94ee" x="121.457847" y="153.074375" style="fill: #1f77b4; stroke: #1f77b4"/>
     <use xlink:href="#m4633bf94ee" x="222.044009" y="136.137358" style="fill: #1f77b4; stroke: #1f77b4"/>
     <use xlink:href="#m4633bf94ee" x="253.122889" y="203.799864" style="fill: #1f77b4; stroke: #1f77b4"/>
     <use xlink:href="#m4633bf94ee" x="216.450895" y="252.501084" style="fill: #1f77b4; stroke: #1f77b4"/>
     <use xlink:href="#m4633bf94ee" x="320.925127" y="246.854173" style="fill: #1f77b4; stroke: #1f77b4"/>
     <use xlink:href="#m4633bf94ee" x="249.123527" y="264.41311" style="fill: #1f77b4; stroke: #1f77b4"/>
     <use xlink:href="#m4633bf94ee" x="288.576382" y="159.499694" style="fill: #1f77b4; stroke: #1f77b4"/>
     <use xlink:href="#m4633bf94ee" x="296.575106" y="188.458657" style="fill: #1f77b4; stroke: #1f77b4"/>
     <use xlink:href="#m4633bf94ee" x="358.682927" y="263.176451" style="fill: #1f77b4; stroke: #1f77b4"/>
     <use xlink:href="#m4633bf94ee" x="416.644423" y="193.627128" style="fill: #1f77b4; stroke: #1f77b4"/>
     <use xlink:href="#m4633bf94ee" x="350.294682" y="252.962428" style="fill: #1f77b4; stroke: #1f77b4"/>
     <use xlink:href="#m4633bf94ee" x="416.140758" y="161.564067" style="fill: #1f77b4; stroke: #1f77b4"/>
     <use xlink:href="#m4633bf94ee" x="266.888798" y="213.151243" style="fill: #1f77b4; stroke: #1f77b4"/>
     <use xlink:href="#m4633bf94ee" x="375.623498" y="226.895318" style="fill: #1f77b4; stroke: #1f77b4"/>
     <use xlink:href="#m4633bf94ee" x="341.268652" y="248.231335" style="fill: #1f77b4; stroke: #1f77b4"/>
     <use xlink:href="#m4633bf94ee" x="294.862928" y="269.462265" style="fill: #1f77b4; stroke: #1f77b4"/>
     <use xlink:href="#m4633bf94ee" x="374.337938" y="211.612233" style="fill: #1f77b4; stroke: #1f77b4"/>
     <use xlink:href="#m4633bf94ee" x="321.387415" y="166.060417" style="fill: #1f77b4; stroke: #1f77b4"/>
     <use xlink:href="#m4633bf94ee" x="432.005511" y="241.108392" style="fill: #1f77b4; stroke: #1f77b4"/>
     <use xlink:href="#m4633bf94ee" x="337.548946" y="276.192587" style="fill: #1f77b4; stroke: #1f77b4"/>
     <use xlink:href="#m4633bf94ee" x="349.40863" y="106.903379" style="fill: #1f77b4; stroke: #1f77b4"/>
    </g>
   </g>
   <g id="matplotlib.axis_1">
    <g id="xtick_1">
     <g id="line2d_1">
      <defs>
       <path id="m409159126a" d="M 0 0 
L 0 3.5 
" style="stroke: #000000; stroke-width: 0.8"/>
      </defs>
      <g>
       <use xlink:href="#m409159126a" x="98.384826" y="303.64" style="stroke: #000000; stroke-width: 0.8"/>
      </g>
     </g>
     <g id="text_1">
      <!-- −50 -->
      <g transform="translate(87.832482 318.238437)scale(0.1 -0.1)">
       <defs>
        <path id="DejaVuSans-2212" d="M 678 2272 
L 4684 2272 
L 4684 1741 
L 678 1741 
L 678 2272 
z
" transform="scale(0.015625)"/>
        <path id="DejaVuSans-35" d="M 691 4666 
L 3169 4666 
L 3169 4134 
L 1269 4134 
L 1269 2991 
Q 1406 3038 1543 3061 
Q 1681 3084 1819 3084 
Q 2600 3084 3056 2656 
Q 3513 2228 3513 1497 
Q 3513 744 3044 326 
Q 2575 -91 1722 -91 
Q 1428 -91 1123 -41 
Q 819 9 494 109 
L 494 744 
Q 775 591 1075 516 
Q 1375 441 1709 441 
Q 2250 441 2565 725 
Q 2881 1009 2881 1497 
Q 2881 1984 2565 2268 
Q 2250 2553 1709 2553 
Q 1456 2553 1204 2497 
Q 953 2441 691 2322 
L 691 4666 
z
" transform="scale(0.015625)"/>
        <path id="DejaVuSans-30" d="M 2034 4250 
Q 1547 4250 1301 3770 
Q 1056 3291 1056 2328 
Q 1056 1369 1301 889 
Q 1547 409 2034 409 
Q 2525 409 2770 889 
Q 3016 1369 3016 2328 
Q 3016 3291 2770 3770 
Q 2525 4250 2034 4250 
z
M 2034 4750 
Q 2819 4750 3233 4129 
Q 3647 3509 3647 2328 
Q 3647 1150 3233 529 
Q 2819 -91 2034 -91 
Q 1250 -91 836 529 
Q 422 1150 422 2328 
Q 422 3509 836 4129 
Q 1250 4750 2034 4750 
z
" transform="scale(0.015625)"/>
       </defs>
       <use xlink:href="#DejaVuSans-2212"/>
       <use xlink:href="#DejaVuSans-35" x="83.789062"/>
       <use xlink:href="#DejaVuSans-30" x="147.412109"/>
      </g>
     </g>
    </g>
    <g id="xtick_2">
     <g id="line2d_2">
      <g>
       <use xlink:href="#m409159126a" x="169.725565" y="303.64" style="stroke: #000000; stroke-width: 0.8"/>
      </g>
     </g>
     <g id="text_2">
      <!-- −45 -->
      <g transform="translate(159.173221 318.238437)scale(0.1 -0.1)">
       <defs>
        <path id="DejaVuSans-34" d="M 2419 4116 
L 825 1625 
L 2419 1625 
L 2419 4116 
z
M 2253 4666 
L 3047 4666 
L 3047 1625 
L 3713 1625 
L 3713 1100 
L 3047 1100 
L 3047 0 
L 2419 0 
L 2419 1100 
L 313 1100 
L 313 1709 
L 2253 4666 
z
" transform="scale(0.015625)"/>
       </defs>
       <use xlink:href="#DejaVuSans-2212"/>
       <use xlink:href="#DejaVuSans-34" x="83.789062"/>
       <use xlink:href="#DejaVuSans-35" x="147.412109"/>
      </g>
     </g>
    </g>
    <g id="xtick_3">
     <g id="line2d_3">
      <g>
       <use xlink:href="#m409159126a" x="241.066304" y="303.64" style="stroke: #000000; stroke-width: 0.8"/>
      </g>
     </g>
     <g id="text_3">
      <!-- −40 -->
      <g transform="translate(230.51396 318.238437)scale(0.1 -0.1)">
       <use xlink:href="#DejaVuSans-2212"/>
       <use xlink:href="#DejaVuSans-34" x="83.789062"/>
       <use xlink:href="#DejaVuSans-30" x="147.412109"/>
      </g>
     </g>
    </g>
    <g id="xtick_4">
     <g id="line2d_4">
      <g>
       <use xlink:href="#m409159126a" x="312.407043" y="303.64" style="stroke: #000000; stroke-width: 0.8"/>
      </g>
     </g>
     <g id="text_4">
      <!-- −35 -->
      <g transform="translate(301.854699 318.238437)scale(0.1 -0.1)">
       <defs>
        <path id="DejaVuSans-33" d="M 2597 2516 
Q 3050 2419 3304 2112 
Q 3559 1806 3559 1356 
Q 3559 666 3084 287 
Q 2609 -91 1734 -91 
Q 1441 -91 1130 -33 
Q 819 25 488 141 
L 488 750 
Q 750 597 1062 519 
Q 1375 441 1716 441 
Q 2309 441 2620 675 
Q 2931 909 2931 1356 
Q 2931 1769 2642 2001 
Q 2353 2234 1838 2234 
L 1294 2234 
L 1294 2753 
L 1863 2753 
Q 2328 2753 2575 2939 
Q 2822 3125 2822 3475 
Q 2822 3834 2567 4026 
Q 2313 4219 1838 4219 
Q 1578 4219 1281 4162 
Q 984 4106 628 3988 
L 628 4550 
Q 988 4650 1302 4700 
Q 1616 4750 1894 4750 
Q 2613 4750 3031 4423 
Q 3450 4097 3450 3541 
Q 3450 3153 3228 2886 
Q 3006 2619 2597 2516 
z
" transform="scale(0.015625)"/>
       </defs>
       <use xlink:href="#DejaVuSans-2212"/>
       <use xlink:href="#DejaVuSans-33" x="83.789062"/>
       <use xlink:href="#DejaVuSans-35" x="147.412109"/>
      </g>
     </g>
    </g>
    <g id="xtick_5">
     <g id="line2d_5">
      <g>
       <use xlink:href="#m409159126a" x="383.747782" y="303.64" style="stroke: #000000; stroke-width: 0.8"/>
      </g>
     </g>
     <g id="text_5">
      <!-- −30 -->
      <g transform="translate(373.195438 318.238437)scale(0.1 -0.1)">
       <use xlink:href="#DejaVuSans-2212"/>
       <use xlink:href="#DejaVuSans-33" x="83.789062"/>
       <use xlink:href="#DejaVuSans-30" x="147.412109"/>
      </g>
     </g>
    </g>
    <g id="text_6">
     <!-- VDWDiff -->
     <g transform="translate(231.087188 331.916562)scale(0.1 -0.1)">
      <defs>
       <path id="DejaVuSans-56" d="M 1831 0 
L 50 4666 
L 709 4666 
L 2188 738 
L 3669 4666 
L 4325 4666 
L 2547 0 
L 1831 0 
z
" transform="scale(0.015625)"/>
       <path id="DejaVuSans-44" d="M 1259 4147 
L 1259 519 
L 2022 519 
Q 2988 519 3436 956 
Q 3884 1394 3884 2338 
Q 3884 3275 3436 3711 
Q 2988 4147 2022 4147 
L 1259 4147 
z
M 628 4666 
L 1925 4666 
Q 3281 4666 3915 4102 
Q 4550 3538 4550 2338 
Q 4550 1131 3912 565 
Q 3275 0 1925 0 
L 628 0 
L 628 4666 
z
" transform="scale(0.015625)"/>
       <path id="DejaVuSans-57" d="M 213 4666 
L 850 4666 
L 1831 722 
L 2809 4666 
L 3519 4666 
L 4500 722 
L 5478 4666 
L 6119 4666 
L 4947 0 
L 4153 0 
L 3169 4050 
L 2175 0 
L 1381 0 
L 213 4666 
z
" transform="scale(0.015625)"/>
       <path id="DejaVuSans-69" d="M 603 3500 
L 1178 3500 
L 1178 0 
L 603 0 
L 603 3500 
z
M 603 4863 
L 1178 4863 
L 1178 4134 
L 603 4134 
L 603 4863 
z
" transform="scale(0.015625)"/>
       <path id="DejaVuSans-66" d="M 2375 4863 
L 2375 4384 
L 1825 4384 
Q 1516 4384 1395 4259 
Q 1275 4134 1275 3809 
L 1275 3500 
L 2222 3500 
L 2222 3053 
L 1275 3053 
L 1275 0 
L 697 0 
L 697 3053 
L 147 3053 
L 147 3500 
L 697 3500 
L 697 3744 
Q 697 4328 969 4595 
Q 1241 4863 1831 4863 
L 2375 4863 
z
" transform="scale(0.015625)"/>
      </defs>
      <use xlink:href="#DejaVuSans-56"/>
      <use xlink:href="#DejaVuSans-44" x="68.408203"/>
      <use xlink:href="#DejaVuSans-57" x="145.410156"/>
      <use xlink:href="#DejaVuSans-44" x="244.287109"/>
      <use xlink:href="#DejaVuSans-69" x="321.289062"/>
      <use xlink:href="#DejaVuSans-66" x="349.072266"/>
      <use xlink:href="#DejaVuSans-66" x="384.277344"/>
     </g>
    </g>
   </g>
   <g id="matplotlib.axis_2">
    <g id="ytick_1">
     <g id="line2d_6">
      <defs>
       <path id="mec93a88086" d="M 0 0 
L -3.5 0 
" style="stroke: #000000; stroke-width: 0.8"/>
      </defs>
      <g>
       <use xlink:href="#mec93a88086" x="54.12125" y="303.64" style="stroke: #000000; stroke-width: 0.8"/>
      </g>
     </g>
     <g id="text_7">
      <!-- 0.00 -->
      <g transform="translate(24.855625 307.439219)scale(0.1 -0.1)">
       <defs>
        <path id="DejaVuSans-2e" d="M 684 794 
L 1344 794 
L 1344 0 
L 684 0 
L 684 794 
z
" transform="scale(0.015625)"/>
       </defs>
       <use xlink:href="#DejaVuSans-30"/>
       <use xlink:href="#DejaVuSans-2e" x="63.623047"/>
       <use xlink:href="#DejaVuSans-30" x="95.410156"/>
       <use xlink:href="#DejaVuSans-30" x="159.033203"/>
      </g>
     </g>
    </g>
    <g id="ytick_2">
     <g id="line2d_7">
      <g>
       <use xlink:href="#mec93a88086" x="54.12125" y="268.434177" style="stroke: #000000; stroke-width: 0.8"/>
      </g>
     </g>
     <g id="text_8">
      <!-- 0.25 -->
      <g transform="translate(24.855625 272.233396)scale(0.1 -0.1)">
       <defs>
        <path id="DejaVuSans-32" d="M 1228 531 
L 3431 531 
L 3431 0 
L 469 0 
L 469 531 
Q 828 903 1448 1529 
Q 2069 2156 2228 2338 
Q 2531 2678 2651 2914 
Q 2772 3150 2772 3378 
Q 2772 3750 2511 3984 
Q 2250 4219 1831 4219 
Q 1534 4219 1204 4116 
Q 875 4013 500 3803 
L 500 4441 
Q 881 4594 1212 4672 
Q 1544 4750 1819 4750 
Q 2544 4750 2975 4387 
Q 3406 4025 3406 3419 
Q 3406 3131 3298 2873 
Q 3191 2616 2906 2266 
Q 2828 2175 2409 1742 
Q 1991 1309 1228 531 
z
" transform="scale(0.015625)"/>
       </defs>
       <use xlink:href="#DejaVuSans-30"/>
       <use xlink:href="#DejaVuSans-2e" x="63.623047"/>
       <use xlink:href="#DejaVuSans-32" x="95.410156"/>
       <use xlink:href="#DejaVuSans-35" x="159.033203"/>
      </g>
     </g>
    </g>
    <g id="ytick_3">
     <g id="line2d_8">
      <g>
       <use xlink:href="#mec93a88086" x="54.12125" y="233.228354" style="stroke: #000000; stroke-width: 0.8"/>
      </g>
     </g>
     <g id="text_9">
      <!-- 0.50 -->
      <g transform="translate(24.855625 237.027573)scale(0.1 -0.1)">
       <use xlink:href="#DejaVuSans-30"/>
       <use xlink:href="#DejaVuSans-2e" x="63.623047"/>
       <use xlink:href="#DejaVuSans-35" x="95.410156"/>
       <use xlink:href="#DejaVuSans-30" x="159.033203"/>
      </g>
     </g>
    </g>
    <g id="ytick_4">
     <g id="line2d_9">
      <g>
       <use xlink:href="#mec93a88086" x="54.12125" y="198.022531" style="stroke: #000000; stroke-width: 0.8"/>
      </g>
     </g>
     <g id="text_10">
      <!-- 0.75 -->
      <g transform="translate(24.855625 201.82175)scale(0.1 -0.1)">
       <defs>
        <path id="DejaVuSans-37" d="M 525 4666 
L 3525 4666 
L 3525 4397 
L 1831 0 
L 1172 0 
L 2766 4134 
L 525 4134 
L 525 4666 
z
" transform="scale(0.015625)"/>
       </defs>
       <use xlink:href="#DejaVuSans-30"/>
       <use xlink:href="#DejaVuSans-2e" x="63.623047"/>
       <use xlink:href="#DejaVuSans-37" x="95.410156"/>
       <use xlink:href="#DejaVuSans-35" x="159.033203"/>
      </g>
     </g>
    </g>
    <g id="ytick_5">
     <g id="line2d_10">
      <g>
       <use xlink:href="#mec93a88086" x="54.12125" y="162.816708" style="stroke: #000000; stroke-width: 0.8"/>
      </g>
     </g>
     <g id="text_11">
      <!-- 1.00 -->
      <g transform="translate(24.855625 166.615927)scale(0.1 -0.1)">
       <defs>
        <path id="DejaVuSans-31" d="M 794 531 
L 1825 531 
L 1825 4091 
L 703 3866 
L 703 4441 
L 1819 4666 
L 2450 4666 
L 2450 531 
L 3481 531 
L 3481 0 
L 794 0 
L 794 531 
z
" transform="scale(0.015625)"/>
       </defs>
       <use xlink:href="#DejaVuSans-31"/>
       <use xlink:href="#DejaVuSans-2e" x="63.623047"/>
       <use xlink:href="#DejaVuSans-30" x="95.410156"/>
       <use xlink:href="#DejaVuSans-30" x="159.033203"/>
      </g>
     </g>
    </g>
    <g id="ytick_6">
     <g id="line2d_11">
      <g>
       <use xlink:href="#mec93a88086" x="54.12125" y="127.610885" style="stroke: #000000; stroke-width: 0.8"/>
      </g>
     </g>
     <g id="text_12">
      <!-- 1.25 -->
      <g transform="translate(24.855625 131.410104)scale(0.1 -0.1)">
       <use xlink:href="#DejaVuSans-31"/>
       <use xlink:href="#DejaVuSans-2e" x="63.623047"/>
       <use xlink:href="#DejaVuSans-32" x="95.410156"/>
       <use xlink:href="#DejaVuSans-35" x="159.033203"/>
      </g>
     </g>
    </g>
    <g id="ytick_7">
     <g id="line2d_12">
      <g>
       <use xlink:href="#mec93a88086" x="54.12125" y="92.405062" style="stroke: #000000; stroke-width: 0.8"/>
      </g>
     </g>
     <g id="text_13">
      <!-- 1.50 -->
      <g transform="translate(24.855625 96.204281)scale(0.1 -0.1)">
       <use xlink:href="#DejaVuSans-31"/>
       <use xlink:href="#DejaVuSans-2e" x="63.623047"/>
       <use xlink:href="#DejaVuSans-35" x="95.410156"/>
       <use xlink:href="#DejaVuSans-30" x="159.033203"/>
      </g>
     </g>
    </g>
    <g id="ytick_8">
     <g id="line2d_13">
      <g>
       <use xlink:href="#mec93a88086" x="54.12125" y="57.199239" style="stroke: #000000; stroke-width: 0.8"/>
      </g>
     </g>
     <g id="text_14">
      <!-- 1.75 -->
      <g transform="translate(24.855625 60.998458)scale(0.1 -0.1)">
       <use xlink:href="#DejaVuSans-31"/>
       <use xlink:href="#DejaVuSans-2e" x="63.623047"/>
       <use xlink:href="#DejaVuSans-37" x="95.410156"/>
       <use xlink:href="#DejaVuSans-35" x="159.033203"/>
      </g>
     </g>
    </g>
    <g id="text_15">
     <!-- PercentGpA_transformed -->
     <g transform="translate(18.497813 237.704042)rotate(-90)scale(0.1 -0.1)">
      <defs>
       <path id="DejaVuSans-50" d="M 1259 4147 
L 1259 2394 
L 2053 2394 
Q 2494 2394 2734 2622 
Q 2975 2850 2975 3272 
Q 2975 3691 2734 3919 
Q 2494 4147 2053 4147 
L 1259 4147 
z
M 628 4666 
L 2053 4666 
Q 2838 4666 3239 4311 
Q 3641 3956 3641 3272 
Q 3641 2581 3239 2228 
Q 2838 1875 2053 1875 
L 1259 1875 
L 1259 0 
L 628 0 
L 628 4666 
z
" transform="scale(0.015625)"/>
       <path id="DejaVuSans-65" d="M 3597 1894 
L 3597 1613 
L 953 1613 
Q 991 1019 1311 708 
Q 1631 397 2203 397 
Q 2534 397 2845 478 
Q 3156 559 3463 722 
L 3463 178 
Q 3153 47 2828 -22 
Q 2503 -91 2169 -91 
Q 1331 -91 842 396 
Q 353 884 353 1716 
Q 353 2575 817 3079 
Q 1281 3584 2069 3584 
Q 2775 3584 3186 3129 
Q 3597 2675 3597 1894 
z
M 3022 2063 
Q 3016 2534 2758 2815 
Q 2500 3097 2075 3097 
Q 1594 3097 1305 2825 
Q 1016 2553 972 2059 
L 3022 2063 
z
" transform="scale(0.015625)"/>
       <path id="DejaVuSans-72" d="M 2631 2963 
Q 2534 3019 2420 3045 
Q 2306 3072 2169 3072 
Q 1681 3072 1420 2755 
Q 1159 2438 1159 1844 
L 1159 0 
L 581 0 
L 581 3500 
L 1159 3500 
L 1159 2956 
Q 1341 3275 1631 3429 
Q 1922 3584 2338 3584 
Q 2397 3584 2469 3576 
Q 2541 3569 2628 3553 
L 2631 2963 
z
" transform="scale(0.015625)"/>
       <path id="DejaVuSans-63" d="M 3122 3366 
L 3122 2828 
Q 2878 2963 2633 3030 
Q 2388 3097 2138 3097 
Q 1578 3097 1268 2742 
Q 959 2388 959 1747 
Q 959 1106 1268 751 
Q 1578 397 2138 397 
Q 2388 397 2633 464 
Q 2878 531 3122 666 
L 3122 134 
Q 2881 22 2623 -34 
Q 2366 -91 2075 -91 
Q 1284 -91 818 406 
Q 353 903 353 1747 
Q 353 2603 823 3093 
Q 1294 3584 2113 3584 
Q 2378 3584 2631 3529 
Q 2884 3475 3122 3366 
z
" transform="scale(0.015625)"/>
       <path id="DejaVuSans-6e" d="M 3513 2113 
L 3513 0 
L 2938 0 
L 2938 2094 
Q 2938 2591 2744 2837 
Q 2550 3084 2163 3084 
Q 1697 3084 1428 2787 
Q 1159 2491 1159 1978 
L 1159 0 
L 581 0 
L 581 3500 
L 1159 3500 
L 1159 2956 
Q 1366 3272 1645 3428 
Q 1925 3584 2291 3584 
Q 2894 3584 3203 3211 
Q 3513 2838 3513 2113 
z
" transform="scale(0.015625)"/>
       <path id="DejaVuSans-74" d="M 1172 4494 
L 1172 3500 
L 2356 3500 
L 2356 3053 
L 1172 3053 
L 1172 1153 
Q 1172 725 1289 603 
Q 1406 481 1766 481 
L 2356 481 
L 2356 0 
L 1766 0 
Q 1100 0 847 248 
Q 594 497 594 1153 
L 594 3053 
L 172 3053 
L 172 3500 
L 594 3500 
L 594 4494 
L 1172 4494 
z
" transform="scale(0.015625)"/>
       <path id="DejaVuSans-47" d="M 3809 666 
L 3809 1919 
L 2778 1919 
L 2778 2438 
L 4434 2438 
L 4434 434 
Q 4069 175 3628 42 
Q 3188 -91 2688 -91 
Q 1594 -91 976 548 
Q 359 1188 359 2328 
Q 359 3472 976 4111 
Q 1594 4750 2688 4750 
Q 3144 4750 3555 4637 
Q 3966 4525 4313 4306 
L 4313 3634 
Q 3963 3931 3569 4081 
Q 3175 4231 2741 4231 
Q 1884 4231 1454 3753 
Q 1025 3275 1025 2328 
Q 1025 1384 1454 906 
Q 1884 428 2741 428 
Q 3075 428 3337 486 
Q 3600 544 3809 666 
z
" transform="scale(0.015625)"/>
       <path id="DejaVuSans-70" d="M 1159 525 
L 1159 -1331 
L 581 -1331 
L 581 3500 
L 1159 3500 
L 1159 2969 
Q 1341 3281 1617 3432 
Q 1894 3584 2278 3584 
Q 2916 3584 3314 3078 
Q 3713 2572 3713 1747 
Q 3713 922 3314 415 
Q 2916 -91 2278 -91 
Q 1894 -91 1617 61 
Q 1341 213 1159 525 
z
M 3116 1747 
Q 3116 2381 2855 2742 
Q 2594 3103 2138 3103 
Q 1681 3103 1420 2742 
Q 1159 2381 1159 1747 
Q 1159 1113 1420 752 
Q 1681 391 2138 391 
Q 2594 391 2855 752 
Q 3116 1113 3116 1747 
z
" transform="scale(0.015625)"/>
       <path id="DejaVuSans-41" d="M 2188 4044 
L 1331 1722 
L 3047 1722 
L 2188 4044 
z
M 1831 4666 
L 2547 4666 
L 4325 0 
L 3669 0 
L 3244 1197 
L 1141 1197 
L 716 0 
L 50 0 
L 1831 4666 
z
" transform="scale(0.015625)"/>
       <path id="DejaVuSans-5f" d="M 3263 -1063 
L 3263 -1509 
L -63 -1509 
L -63 -1063 
L 3263 -1063 
z
" transform="scale(0.015625)"/>
       <path id="DejaVuSans-61" d="M 2194 1759 
Q 1497 1759 1228 1600 
Q 959 1441 959 1056 
Q 959 750 1161 570 
Q 1363 391 1709 391 
Q 2188 391 2477 730 
Q 2766 1069 2766 1631 
L 2766 1759 
L 2194 1759 
z
M 3341 1997 
L 3341 0 
L 2766 0 
L 2766 531 
Q 2569 213 2275 61 
Q 1981 -91 1556 -91 
Q 1019 -91 701 211 
Q 384 513 384 1019 
Q 384 1609 779 1909 
Q 1175 2209 1959 2209 
L 2766 2209 
L 2766 2266 
Q 2766 2663 2505 2880 
Q 2244 3097 1772 3097 
Q 1472 3097 1187 3025 
Q 903 2953 641 2809 
L 641 3341 
Q 956 3463 1253 3523 
Q 1550 3584 1831 3584 
Q 2591 3584 2966 3190 
Q 3341 2797 3341 1997 
z
" transform="scale(0.015625)"/>
       <path id="DejaVuSans-73" d="M 2834 3397 
L 2834 2853 
Q 2591 2978 2328 3040 
Q 2066 3103 1784 3103 
Q 1356 3103 1142 2972 
Q 928 2841 928 2578 
Q 928 2378 1081 2264 
Q 1234 2150 1697 2047 
L 1894 2003 
Q 2506 1872 2764 1633 
Q 3022 1394 3022 966 
Q 3022 478 2636 193 
Q 2250 -91 1575 -91 
Q 1294 -91 989 -36 
Q 684 19 347 128 
L 347 722 
Q 666 556 975 473 
Q 1284 391 1588 391 
Q 1994 391 2212 530 
Q 2431 669 2431 922 
Q 2431 1156 2273 1281 
Q 2116 1406 1581 1522 
L 1381 1569 
Q 847 1681 609 1914 
Q 372 2147 372 2553 
Q 372 3047 722 3315 
Q 1072 3584 1716 3584 
Q 2034 3584 2315 3537 
Q 2597 3491 2834 3397 
z
" transform="scale(0.015625)"/>
       <path id="DejaVuSans-6f" d="M 1959 3097 
Q 1497 3097 1228 2736 
Q 959 2375 959 1747 
Q 959 1119 1226 758 
Q 1494 397 1959 397 
Q 2419 397 2687 759 
Q 2956 1122 2956 1747 
Q 2956 2369 2687 2733 
Q 2419 3097 1959 3097 
z
M 1959 3584 
Q 2709 3584 3137 3096 
Q 3566 2609 3566 1747 
Q 3566 888 3137 398 
Q 2709 -91 1959 -91 
Q 1206 -91 779 398 
Q 353 888 353 1747 
Q 353 2609 779 3096 
Q 1206 3584 1959 3584 
z
" transform="scale(0.015625)"/>
       <path id="DejaVuSans-6d" d="M 3328 2828 
Q 3544 3216 3844 3400 
Q 4144 3584 4550 3584 
Q 5097 3584 5394 3201 
Q 5691 2819 5691 2113 
L 5691 0 
L 5113 0 
L 5113 2094 
Q 5113 2597 4934 2840 
Q 4756 3084 4391 3084 
Q 3944 3084 3684 2787 
Q 3425 2491 3425 1978 
L 3425 0 
L 2847 0 
L 2847 2094 
Q 2847 2600 2669 2842 
Q 2491 3084 2119 3084 
Q 1678 3084 1418 2786 
Q 1159 2488 1159 1978 
L 1159 0 
L 581 0 
L 581 3500 
L 1159 3500 
L 1159 2956 
Q 1356 3278 1631 3431 
Q 1906 3584 2284 3584 
Q 2666 3584 2933 3390 
Q 3200 3197 3328 2828 
z
" transform="scale(0.015625)"/>
       <path id="DejaVuSans-64" d="M 2906 2969 
L 2906 4863 
L 3481 4863 
L 3481 0 
L 2906 0 
L 2906 525 
Q 2725 213 2448 61 
Q 2172 -91 1784 -91 
Q 1150 -91 751 415 
Q 353 922 353 1747 
Q 353 2572 751 3078 
Q 1150 3584 1784 3584 
Q 2172 3584 2448 3432 
Q 2725 3281 2906 2969 
z
M 947 1747 
Q 947 1113 1208 752 
Q 1469 391 1925 391 
Q 2381 391 2643 752 
Q 2906 1113 2906 1747 
Q 2906 2381 2643 2742 
Q 2381 3103 1925 3103 
Q 1469 3103 1208 2742 
Q 947 2381 947 1747 
z
" transform="scale(0.015625)"/>
      </defs>
      <use xlink:href="#DejaVuSans-50"/>
      <use xlink:href="#DejaVuSans-65" x="56.677734"/>
      <use xlink:href="#DejaVuSans-72" x="118.201172"/>
      <use xlink:href="#DejaVuSans-63" x="157.064453"/>
      <use xlink:href="#DejaVuSans-65" x="212.044922"/>
      <use xlink:href="#DejaVuSans-6e" x="273.568359"/>
      <use xlink:href="#DejaVuSans-74" x="336.947266"/>
      <use xlink:href="#DejaVuSans-47" x="376.15625"/>
      <use xlink:href="#DejaVuSans-70" x="453.646484"/>
      <use xlink:href="#DejaVuSans-41" x="517.123047"/>
      <use xlink:href="#DejaVuSans-5f" x="585.53125"/>
      <use xlink:href="#DejaVuSans-74" x="635.53125"/>
      <use xlink:href="#DejaVuSans-72" x="674.740234"/>
      <use xlink:href="#DejaVuSans-61" x="715.853516"/>
      <use xlink:href="#DejaVuSans-6e" x="777.132812"/>
      <use xlink:href="#DejaVuSans-73" x="840.511719"/>
      <use xlink:href="#DejaVuSans-66" x="892.611328"/>
      <use xlink:href="#DejaVuSans-6f" x="927.816406"/>
      <use xlink:href="#DejaVuSans-72" x="988.998047"/>
      <use xlink:href="#DejaVuSans-6d" x="1028.361328"/>
      <use xlink:href="#DejaVuSans-65" x="1125.773438"/>
      <use xlink:href="#DejaVuSans-64" x="1187.296875"/>
     </g>
    </g>
   </g>
   <g id="LineCollection_1">
    <path d="M 127.227886 160.902543 
L 127.227886 117.843099 
" clip-path="url(#pe7e2c75c3d)" style="fill: none; stroke: #d3d3d3; stroke-width: 3"/>
    <path d="M 72.115739 213.313877 
L 72.115739 149.548791 
" clip-path="url(#pe7e2c75c3d)" style="fill: none; stroke: #d3d3d3; stroke-width: 3"/>
    <path d="M 77.143834 196.495194 
L 77.143834 140.63669 
" clip-path="url(#pe7e2c75c3d)" style="fill: none; stroke: #d3d3d3; stroke-width: 3"/>
    <path d="M 169.541506 221.47096 
L 169.541506 123.377336 
" clip-path="url(#pe7e2c75c3d)" style="fill: none; stroke: #d3d3d3; stroke-width: 3"/>
    <path d="M 186.553418 179.994928 
L 186.553418 150.718547 
" clip-path="url(#pe7e2c75c3d)" style="fill: none; stroke: #d3d3d3; stroke-width: 3"/>
    <path d="M 207.152343 238.163743 
L 207.152343 221.981775 
" clip-path="url(#pe7e2c75c3d)" style="fill: none; stroke: #d3d3d3; stroke-width: 3"/>
    <path d="M 121.280922 190.948156 
L 121.280922 160.914475 
" clip-path="url(#pe7e2c75c3d)" style="fill: none; stroke: #d3d3d3; stroke-width: 3"/>
    <path d="M 279.156551 210.278623 
L 279.156551 184.768899 
" clip-path="url(#pe7e2c75c3d)" style="fill: none; stroke: #d3d3d3; stroke-width: 3"/>
    <path d="M 240.215922 195.01793 
L 240.215922 172.138672 
" clip-path="url(#pe7e2c75c3d)" style="fill: none; stroke: #d3d3d3; stroke-width: 3"/>
    <path d="M 209.338223 277.376759 
L 209.338223 263.561389 
" clip-path="url(#pe7e2c75c3d)" style="fill: none; stroke: #d3d3d3; stroke-width: 3"/>
    <path d="M 241.38591 161.87921 
L 241.38591 110.608743 
" clip-path="url(#pe7e2c75c3d)" style="fill: none; stroke: #d3d3d3; stroke-width: 3"/>
    <path d="M 301.795821 166.476212 
L 301.795821 133.747708 
" clip-path="url(#pe7e2c75c3d)" style="fill: none; stroke: #d3d3d3; stroke-width: 3"/>
    <path d="M 222.093948 260.371905 
L 222.093948 244.779355 
" clip-path="url(#pe7e2c75c3d)" style="fill: none; stroke: #d3d3d3; stroke-width: 3"/>
    <path d="M 260.944687 237.902184 
L 260.944687 199.074224 
" clip-path="url(#pe7e2c75c3d)" style="fill: none; stroke: #d3d3d3; stroke-width: 3"/>
    <path d="M 249.963921 238.66921 
L 249.963921 167.350359 
" clip-path="url(#pe7e2c75c3d)" style="fill: none; stroke: #d3d3d3; stroke-width: 3"/>
    <path d="M 329.377578 204.081244 
L 329.377578 184.369798 
" clip-path="url(#pe7e2c75c3d)" style="fill: none; stroke: #d3d3d3; stroke-width: 3"/>
    <path d="M 226.995056 138.560629 
L 226.995056 110.644829 
" clip-path="url(#pe7e2c75c3d)" style="fill: none; stroke: #d3d3d3; stroke-width: 3"/>
    <path d="M 300.894074 234.068996 
L 300.894074 222.736163 
" clip-path="url(#pe7e2c75c3d)" style="fill: none; stroke: #d3d3d3; stroke-width: 3"/>
    <path d="M 282.86627 188.469053 
L 282.86627 139.830036 
" clip-path="url(#pe7e2c75c3d)" style="fill: none; stroke: #d3d3d3; stroke-width: 3"/>
    <path d="M 302.984358 289.613184 
L 302.984358 247.76123 
" clip-path="url(#pe7e2c75c3d)" style="fill: none; stroke: #d3d3d3; stroke-width: 3"/>
    <path d="M 348.521152 163.42463 
L 348.521152 116.645471 
" clip-path="url(#pe7e2c75c3d)" style="fill: none; stroke: #d3d3d3; stroke-width: 3"/>
    <path d="M 84.416309 152.996374 
L 84.416309 143.518736 
" clip-path="url(#pe7e2c75c3d)" style="fill: none; stroke: #d3d3d3; stroke-width: 3"/>
    <path d="M 99.463498 142.15909 
L 99.463498 78.683918 
" clip-path="url(#pe7e2c75c3d)" style="fill: none; stroke: #d3d3d3; stroke-width: 3"/>
    <path d="M 162.076411 139.876697 
L 162.076411 112.209027 
" clip-path="url(#pe7e2c75c3d)" style="fill: none; stroke: #d3d3d3; stroke-width: 3"/>
    <path d="M 121.457847 160.330198 
L 121.457847 145.818553 
" clip-path="url(#pe7e2c75c3d)" style="fill: none; stroke: #d3d3d3; stroke-width: 3"/>
    <path d="M 222.044009 214.015495 
L 222.044009 58.25922 
" clip-path="url(#pe7e2c75c3d)" style="fill: none; stroke: #d3d3d3; stroke-width: 3"/>
    <path d="M 253.122889 211.565184 
L 253.122889 196.034544 
" clip-path="url(#pe7e2c75c3d)" style="fill: none; stroke: #d3d3d3; stroke-width: 3"/>
    <path d="M 216.450895 259.643244 
L 216.450895 245.358924 
" clip-path="url(#pe7e2c75c3d)" style="fill: none; stroke: #d3d3d3; stroke-width: 3"/>
    <path d="M 320.925127 252.04657 
L 320.925127 241.661776 
" clip-path="url(#pe7e2c75c3d)" style="fill: none; stroke: #d3d3d3; stroke-width: 3"/>
    <path d="M 249.123527 265.305738 
L 249.123527 263.520482 
" clip-path="url(#pe7e2c75c3d)" style="fill: none; stroke: #d3d3d3; stroke-width: 3"/>
    <path d="M 288.576382 161.613445 
L 288.576382 157.385943 
" clip-path="url(#pe7e2c75c3d)" style="fill: none; stroke: #d3d3d3; stroke-width: 3"/>
    <path d="M 296.575106 202.59374 
L 296.575106 174.323574 
" clip-path="url(#pe7e2c75c3d)" style="fill: none; stroke: #d3d3d3; stroke-width: 3"/>
    <path d="M 358.682927 276.420581 
L 358.682927 249.932321 
" clip-path="url(#pe7e2c75c3d)" style="fill: none; stroke: #d3d3d3; stroke-width: 3"/>
    <path d="M 416.644423 211.783535 
L 416.644423 175.47072 
" clip-path="url(#pe7e2c75c3d)" style="fill: none; stroke: #d3d3d3; stroke-width: 3"/>
    <path d="M 350.294682 257.630844 
L 350.294682 248.294012 
" clip-path="url(#pe7e2c75c3d)" style="fill: none; stroke: #d3d3d3; stroke-width: 3"/>
    <path d="M 416.140758 187.921753 
L 416.140758 135.206382 
" clip-path="url(#pe7e2c75c3d)" style="fill: none; stroke: #d3d3d3; stroke-width: 3"/>
    <path d="M 266.888798 220.643039 
L 266.888798 205.659447 
" clip-path="url(#pe7e2c75c3d)" style="fill: none; stroke: #d3d3d3; stroke-width: 3"/>
    <path d="M 375.623498 234.764543 
L 375.623498 219.026093 
" clip-path="url(#pe7e2c75c3d)" style="fill: none; stroke: #d3d3d3; stroke-width: 3"/>
    <path d="M 341.268652 253.5812 
L 341.268652 242.881469 
" clip-path="url(#pe7e2c75c3d)" style="fill: none; stroke: #d3d3d3; stroke-width: 3"/>
    <path d="M 294.862928 280.305377 
L 294.862928 258.619152 
" clip-path="url(#pe7e2c75c3d)" style="fill: none; stroke: #d3d3d3; stroke-width: 3"/>
    <path d="M 374.337938 226.888962 
L 374.337938 196.335503 
" clip-path="url(#pe7e2c75c3d)" style="fill: none; stroke: #d3d3d3; stroke-width: 3"/>
    <path d="M 321.387415 187.930322 
L 321.387415 144.190513 
" clip-path="url(#pe7e2c75c3d)" style="fill: none; stroke: #d3d3d3; stroke-width: 3"/>
    <path d="M 432.005511 250.574769 
L 432.005511 231.642016 
" clip-path="url(#pe7e2c75c3d)" style="fill: none; stroke: #d3d3d3; stroke-width: 3"/>
    <path d="M 337.548946 281.137181 
L 337.548946 271.247993 
" clip-path="url(#pe7e2c75c3d)" style="fill: none; stroke: #d3d3d3; stroke-width: 3"/>
    <path d="M 349.40863 127.242726 
L 349.40863 86.564031 
" clip-path="url(#pe7e2c75c3d)" style="fill: none; stroke: #d3d3d3; stroke-width: 3"/>
   </g>
   <g id="line2d_14">
    <path d="M 127.227886 170.237577 
L 72.115739 159.87253 
L 77.143834 160.818173 
L 169.541506 178.195579 
L 186.553418 181.395042 
L 207.152343 185.269121 
L 121.280922 169.11912 
L 279.156551 198.81109 
L 240.215922 191.487452 
L 209.338223 185.680224 
L 241.38591 191.707493 
L 301.795821 203.0689 
L 222.093948 188.079217 
L 260.944687 195.38595 
L 249.963921 193.320776 
L 329.377578 208.256254 
L 226.995056 189.000978 
L 300.894074 202.899307 
L 282.86627 199.508784 
L 302.984358 203.292431 
L 348.521152 211.856622 
L 84.416309 162.185922 
L 99.463498 165.015875 
L 162.076411 176.791605 
L 121.457847 169.152394 
L 222.044009 188.069825 
L 253.122889 193.914889 
L 216.450895 187.017918 
L 320.925127 206.666585 
L 249.123527 193.162722 
L 288.576382 200.582695 
L 296.575106 202.087031 
L 358.682927 213.767767 
L 416.644423 224.668696 
L 350.294682 212.190174 
L 416.140758 224.57397 
L 266.888798 196.50387 
L 375.623498 216.953812 
L 341.268652 210.492631 
L 294.862928 201.765018 
L 374.337938 216.712034 
L 321.387415 206.753529 
L 432.005511 227.557685 
L 337.548946 209.793059 
L 349.40863 212.023532 
" clip-path="url(#pe7e2c75c3d)" style="fill: none; stroke: #1f77b4; stroke-width: 1.5; stroke-linecap: square"/>
   </g>
   <g id="line2d_15">
    <defs>
     <path id="m67bc806c82" d="M 0 3 
C 0.795609 3 1.55874 2.683901 2.12132 2.12132 
C 2.683901 1.55874 3 0.795609 3 0 
C 3 -0.795609 2.683901 -1.55874 2.12132 -2.12132 
C 1.55874 -2.683901 0.795609 -3 0 -3 
C -0.795609 -3 -1.55874 -2.683901 -2.12132 -2.12132 
C -2.683901 -1.55874 -3 -0.795609 -3 0 
C -3 0.795609 -2.683901 1.55874 -2.12132 2.12132 
C -1.55874 2.683901 -0.795609 3 0 3 
z
" style="stroke: #000000"/>
    </defs>
    <g clip-path="url(#pe7e2c75c3d)">
     <use xlink:href="#m67bc806c82" x="127.227886" y="139.372821" style="stroke: #000000"/>
     <use xlink:href="#m67bc806c82" x="72.115739" y="181.431334" style="stroke: #000000"/>
     <use xlink:href="#m67bc806c82" x="77.143834" y="168.565942" style="stroke: #000000"/>
     <use xlink:href="#m67bc806c82" x="169.541506" y="172.424148" style="stroke: #000000"/>
     <use xlink:href="#m67bc806c82" x="186.553418" y="165.356738" style="stroke: #000000"/>
     <use xlink:href="#m67bc806c82" x="207.152343" y="230.072759" style="stroke: #000000"/>
     <use xlink:href="#m67bc806c82" x="121.280922" y="175.931316" style="stroke: #000000"/>
     <use xlink:href="#m67bc806c82" x="279.156551" y="197.523761" style="stroke: #000000"/>
     <use xlink:href="#m67bc806c82" x="240.215922" y="183.578301" style="stroke: #000000"/>
     <use xlink:href="#m67bc806c82" x="209.338223" y="270.469074" style="stroke: #000000"/>
     <use xlink:href="#m67bc806c82" x="241.38591" y="136.243977" style="stroke: #000000"/>
     <use xlink:href="#m67bc806c82" x="301.795821" y="150.11196" style="stroke: #000000"/>
     <use xlink:href="#m67bc806c82" x="222.093948" y="252.57563" style="stroke: #000000"/>
     <use xlink:href="#m67bc806c82" x="260.944687" y="218.488204" style="stroke: #000000"/>
     <use xlink:href="#m67bc806c82" x="249.963921" y="203.009785" style="stroke: #000000"/>
     <use xlink:href="#m67bc806c82" x="329.377578" y="194.225521" style="stroke: #000000"/>
     <use xlink:href="#m67bc806c82" x="226.995056" y="124.602729" style="stroke: #000000"/>
     <use xlink:href="#m67bc806c82" x="300.894074" y="228.40258" style="stroke: #000000"/>
     <use xlink:href="#m67bc806c82" x="282.86627" y="164.149544" style="stroke: #000000"/>
     <use xlink:href="#m67bc806c82" x="302.984358" y="268.687207" style="stroke: #000000"/>
     <use xlink:href="#m67bc806c82" x="348.521152" y="140.03505" style="stroke: #000000"/>
     <use xlink:href="#m67bc806c82" x="84.416309" y="148.257555" style="stroke: #000000"/>
     <use xlink:href="#m67bc806c82" x="99.463498" y="110.421504" style="stroke: #000000"/>
     <use xlink:href="#m67bc806c82" x="162.076411" y="126.042862" style="stroke: #000000"/>
     <use xlink:href="#m67bc806c82" x="121.457847" y="153.074375" style="stroke: #000000"/>
     <use xlink:href="#m67bc806c82" x="222.044009" y="136.137358" style="stroke: #000000"/>
     <use xlink:href="#m67bc806c82" x="253.122889" y="203.799864" style="stroke: #000000"/>
     <use xlink:href="#m67bc806c82" x="216.450895" y="252.501084" style="stroke: #000000"/>
     <use xlink:href="#m67bc806c82" x="320.925127" y="246.854173" style="stroke: #000000"/>
     <use xlink:href="#m67bc806c82" x="249.123527" y="264.41311" style="stroke: #000000"/>
     <use xlink:href="#m67bc806c82" x="288.576382" y="159.499694" style="stroke: #000000"/>
     <use xlink:href="#m67bc806c82" x="296.575106" y="188.458657" style="stroke: #000000"/>
     <use xlink:href="#m67bc806c82" x="358.682927" y="263.176451" style="stroke: #000000"/>
     <use xlink:href="#m67bc806c82" x="416.644423" y="193.627128" style="stroke: #000000"/>
     <use xlink:href="#m67bc806c82" x="350.294682" y="252.962428" style="stroke: #000000"/>
     <use xlink:href="#m67bc806c82" x="416.140758" y="161.564067" style="stroke: #000000"/>
     <use xlink:href="#m67bc806c82" x="266.888798" y="213.151243" style="stroke: #000000"/>
     <use xlink:href="#m67bc806c82" x="375.623498" y="226.895318" style="stroke: #000000"/>
     <use xlink:href="#m67bc806c82" x="341.268652" y="248.231335" style="stroke: #000000"/>
     <use xlink:href="#m67bc806c82" x="294.862928" y="269.462265" style="stroke: #000000"/>
     <use xlink:href="#m67bc806c82" x="374.337938" y="211.612233" style="stroke: #000000"/>
     <use xlink:href="#m67bc806c82" x="321.387415" y="166.060417" style="stroke: #000000"/>
     <use xlink:href="#m67bc806c82" x="432.005511" y="241.108392" style="stroke: #000000"/>
     <use xlink:href="#m67bc806c82" x="337.548946" y="276.192587" style="stroke: #000000"/>
     <use xlink:href="#m67bc806c82" x="349.40863" y="106.903379" style="stroke: #000000"/>
    </g>
   </g>
   <g id="patch_3">
    <path d="M 54.12125 303.64 
L 54.12125 46.691522 
" style="fill: none; stroke: #000000; stroke-width: 0.8; stroke-linejoin: miter; stroke-linecap: square"/>
   </g>
   <g id="patch_4">
    <path d="M 450 303.64 
L 450 46.691522 
" style="fill: none; stroke: #000000; stroke-width: 0.8; stroke-linejoin: miter; stroke-linecap: square"/>
   </g>
   <g id="patch_5">
    <path d="M 54.12125 303.64 
L 450 303.64 
" style="fill: none; stroke: #000000; stroke-width: 0.8; stroke-linejoin: miter; stroke-linecap: square"/>
   </g>
   <g id="patch_6">
    <path d="M 54.12125 46.691522 
L 450 46.691522 
" style="fill: none; stroke: #000000; stroke-width: 0.8; stroke-linejoin: miter; stroke-linecap: square"/>
   </g>
   <g id="text_16">
    <!-- y = -0.02x + 0.03 -->
    <g transform="translate(48.984906 18.617079)scale(0.1 -0.1)">
     <defs>
      <path id="DejaVuSans-79" d="M 2059 -325 
Q 1816 -950 1584 -1140 
Q 1353 -1331 966 -1331 
L 506 -1331 
L 506 -850 
L 844 -850 
Q 1081 -850 1212 -737 
Q 1344 -625 1503 -206 
L 1606 56 
L 191 3500 
L 800 3500 
L 1894 763 
L 2988 3500 
L 3597 3500 
L 2059 -325 
z
" transform="scale(0.015625)"/>
      <path id="DejaVuSans-20" transform="scale(0.015625)"/>
      <path id="DejaVuSans-3d" d="M 678 2906 
L 4684 2906 
L 4684 2381 
L 678 2381 
L 678 2906 
z
M 678 1631 
L 4684 1631 
L 4684 1100 
L 678 1100 
L 678 1631 
z
" transform="scale(0.015625)"/>
      <path id="DejaVuSans-2d" d="M 313 2009 
L 1997 2009 
L 1997 1497 
L 313 1497 
L 313 2009 
z
" transform="scale(0.015625)"/>
      <path id="DejaVuSans-78" d="M 3513 3500 
L 2247 1797 
L 3578 0 
L 2900 0 
L 1881 1375 
L 863 0 
L 184 0 
L 1544 1831 
L 300 3500 
L 978 3500 
L 1906 2253 
L 2834 3500 
L 3513 3500 
z
" transform="scale(0.015625)"/>
      <path id="DejaVuSans-2b" d="M 2944 4013 
L 2944 2272 
L 4684 2272 
L 4684 1741 
L 2944 1741 
L 2944 0 
L 2419 0 
L 2419 1741 
L 678 1741 
L 678 2272 
L 2419 2272 
L 2419 4013 
L 2944 4013 
z
" transform="scale(0.015625)"/>
     </defs>
     <use xlink:href="#DejaVuSans-79"/>
     <use xlink:href="#DejaVuSans-20" x="59.179688"/>
     <use xlink:href="#DejaVuSans-3d" x="90.966797"/>
     <use xlink:href="#DejaVuSans-20" x="174.755859"/>
     <use xlink:href="#DejaVuSans-2d" x="206.542969"/>
     <use xlink:href="#DejaVuSans-30" x="242.626953"/>
     <use xlink:href="#DejaVuSans-2e" x="306.25"/>
     <use xlink:href="#DejaVuSans-30" x="338.037109"/>
     <use xlink:href="#DejaVuSans-32" x="401.660156"/>
     <use xlink:href="#DejaVuSans-78" x="465.283203"/>
     <use xlink:href="#DejaVuSans-20" x="524.462891"/>
     <use xlink:href="#DejaVuSans-2b" x="556.25"/>
     <use xlink:href="#DejaVuSans-20" x="640.039062"/>
     <use xlink:href="#DejaVuSans-30" x="671.826172"/>
     <use xlink:href="#DejaVuSans-2e" x="735.449219"/>
     <use xlink:href="#DejaVuSans-30" x="767.236328"/>
     <use xlink:href="#DejaVuSans-33" x="830.859375"/>
    </g>
   </g>
   <g id="text_17">
    <!-- r^2 = 0.13 -->
    <g transform="translate(65.781781 26.325533)scale(0.1 -0.1)">
     <defs>
      <path id="DejaVuSans-5e" d="M 2988 4666 
L 4684 2925 
L 4056 2925 
L 2681 4159 
L 1306 2925 
L 678 2925 
L 2375 4666 
L 2988 4666 
z
" transform="scale(0.015625)"/>
     </defs>
     <use xlink:href="#DejaVuSans-72"/>
     <use xlink:href="#DejaVuSans-5e" x="41.113281"/>
     <use xlink:href="#DejaVuSans-32" x="124.902344"/>
     <use xlink:href="#DejaVuSans-20" x="188.525391"/>
     <use xlink:href="#DejaVuSans-3d" x="220.3125"/>
     <use xlink:href="#DejaVuSans-20" x="304.101562"/>
     <use xlink:href="#DejaVuSans-30" x="335.888672"/>
     <use xlink:href="#DejaVuSans-2e" x="399.511719"/>
     <use xlink:href="#DejaVuSans-31" x="431.298828"/>
     <use xlink:href="#DejaVuSans-33" x="494.921875"/>
    </g>
   </g>
   <g id="text_18">
    <!-- n = 45 -->
    <g transform="translate(76.809906 34.033988)scale(0.1 -0.1)">
     <use xlink:href="#DejaVuSans-6e"/>
     <use xlink:href="#DejaVuSans-20" x="63.378906"/>
     <use xlink:href="#DejaVuSans-3d" x="95.166016"/>
     <use xlink:href="#DejaVuSans-20" x="178.955078"/>
     <use xlink:href="#DejaVuSans-34" x="210.742188"/>
     <use xlink:href="#DejaVuSans-35" x="274.365234"/>
    </g>
   </g>
   <g id="text_19">
    <!-- VDWDiff vs PercentGpA_transformed -->
    <g transform="translate(141.355938 40.691522)scale(0.12 -0.12)">
     <defs>
      <path id="DejaVuSans-76" d="M 191 3500 
L 800 3500 
L 1894 563 
L 2988 3500 
L 3597 3500 
L 2284 0 
L 1503 0 
L 191 3500 
z
" transform="scale(0.015625)"/>
     </defs>
     <use xlink:href="#DejaVuSans-56"/>
     <use xlink:href="#DejaVuSans-44" x="68.408203"/>
     <use xlink:href="#DejaVuSans-57" x="145.410156"/>
     <use xlink:href="#DejaVuSans-44" x="244.287109"/>
     <use xlink:href="#DejaVuSans-69" x="321.289062"/>
     <use xlink:href="#DejaVuSans-66" x="349.072266"/>
     <use xlink:href="#DejaVuSans-66" x="384.277344"/>
     <use xlink:href="#DejaVuSans-20" x="419.482422"/>
     <use xlink:href="#DejaVuSans-76" x="451.269531"/>
     <use xlink:href="#DejaVuSans-73" x="510.449219"/>
     <use xlink:href="#DejaVuSans-20" x="562.548828"/>
     <use xlink:href="#DejaVuSans-50" x="594.335938"/>
     <use xlink:href="#DejaVuSans-65" x="651.013672"/>
     <use xlink:href="#DejaVuSans-72" x="712.537109"/>
     <use xlink:href="#DejaVuSans-63" x="751.400391"/>
     <use xlink:href="#DejaVuSans-65" x="806.380859"/>
     <use xlink:href="#DejaVuSans-6e" x="867.904297"/>
     <use xlink:href="#DejaVuSans-74" x="931.283203"/>
     <use xlink:href="#DejaVuSans-47" x="970.492188"/>
     <use xlink:href="#DejaVuSans-70" x="1047.982422"/>
     <use xlink:href="#DejaVuSans-41" x="1111.458984"/>
     <use xlink:href="#DejaVuSans-5f" x="1179.867188"/>
     <use xlink:href="#DejaVuSans-74" x="1229.867188"/>
     <use xlink:href="#DejaVuSans-72" x="1269.076172"/>
     <use xlink:href="#DejaVuSans-61" x="1310.189453"/>
     <use xlink:href="#DejaVuSans-6e" x="1371.46875"/>
     <use xlink:href="#DejaVuSans-73" x="1434.847656"/>
     <use xlink:href="#DejaVuSans-66" x="1486.947266"/>
     <use xlink:href="#DejaVuSans-6f" x="1522.152344"/>
     <use xlink:href="#DejaVuSans-72" x="1583.333984"/>
     <use xlink:href="#DejaVuSans-6d" x="1622.697266"/>
     <use xlink:href="#DejaVuSans-65" x="1720.109375"/>
     <use xlink:href="#DejaVuSans-64" x="1781.632812"/>
    </g>
   </g>
  </g>
 </g>
 <defs>
  <clipPath id="pe7e2c75c3d">
   <rect x="54.12125" y="46.691522" width="395.87875" height="256.948478"/>
  </clipPath>
 </defs>
</svg>
