<?xml version="1.0" encoding="utf-8" standalone="no"?>
<!DOCTYPE svg PUBLIC "-//W3C//DTD SVG 1.1//EN"
  "http://www.w3.org/Graphics/SVG/1.1/DTD/svg11.dtd">
<svg xmlns:xlink="http://www.w3.org/1999/xlink" width="460.8pt" height="345.6pt" viewBox="0 0 460.8 345.6" xmlns="http://www.w3.org/2000/svg" version="1.1">
 <metadata>
  <rdf:RDF xmlns:dc="http://purl.org/dc/elements/1.1/" xmlns:cc="http://creativecommons.org/ns#" xmlns:rdf="http://www.w3.org/1999/02/22-rdf-syntax-ns#">
   <cc:Work>
    <dc:type rdf:resource="http://purl.org/dc/dcmitype/StillImage"/>
    <dc:date>2024-02-03T13:07:27.750942</dc:date>
    <dc:format>image/svg+xml</dc:format>
    <dc:creator>
     <cc:Agent>
      <dc:title>Matplotlib v3.5.3, https://matplotlib.org/</dc:title>
     </cc:Agent>
    </dc:creator>
   </cc:Work>
  </rdf:RDF>
 </metadata>
 <defs>
  <style type="text/css">*{stroke-linejoin: round; stroke-linecap: butt}</style>
 </defs>
 <g id="figure_1">
  <g id="patch_1">
   <path d="M 0 345.6 
L 460.8 345.6 
L 460.8 0 
L 0 0 
z
" style="fill: #ffffff"/>
  </g>
  <g id="axes_1">
   <g id="patch_2">
    <path d="M 47.82125 303.64 
L 401.26 303.64 
L 401.26 46.675714 
L 47.82125 46.675714 
z
" style="fill: #ffffff"/>
   </g>
   <g id="PathCollection_1">
    <defs>
     <path id="md8fcfe3752" d="M 0 3 
C 0.795609 3 1.55874 2.683901 2.12132 2.12132 
C 2.683901 1.55874 3 0.795609 3 0 
C 3 -0.795609 2.683901 -1.55874 2.12132 -2.12132 
C 1.55874 -2.683901 0.795609 -3 0 -3 
C -0.795609 -3 -1.55874 -2.683901 -2.12132 -2.12132 
C -2.683901 -1.55874 -3 -0.795609 -3 0 
C -3 0.795609 -2.683901 1.55874 -2.12132 2.12132 
C -1.55874 2.683901 -0.795609 3 0 3 
z
" style="stroke: #3cb371"/>
    </defs>
    <g clip-path="url(#p8baf1c1626)">
     <use xlink:href="#md8fcfe3752" x="265.407853" y="201.917638" style="fill: #3cb371; stroke: #3cb371"/>
     <use xlink:href="#md8fcfe3752" x="385.194602" y="273.125004" style="fill: #3cb371; stroke: #3cb371"/>
     <use xlink:href="#md8fcfe3752" x="312.490847" y="267.394524" style="fill: #3cb371; stroke: #3cb371"/>
     <use xlink:href="#md8fcfe3752" x="285.962611" y="148.719371" style="fill: #3cb371; stroke: #3cb371"/>
     <use xlink:href="#md8fcfe3752" x="321.036975" y="159.32395" style="fill: #3cb371; stroke: #3cb371"/>
     <use xlink:href="#md8fcfe3752" x="230.791633" y="278.674583" style="fill: #3cb371; stroke: #3cb371"/>
     <use xlink:href="#md8fcfe3752" x="294.499928" y="270.411652" style="fill: #3cb371; stroke: #3cb371"/>
     <use xlink:href="#md8fcfe3752" x="344.974941" y="198.751216" style="fill: #3cb371; stroke: #3cb371"/>
     <use xlink:href="#md8fcfe3752" x="246.35087" y="278.329179" style="fill: #3cb371; stroke: #3cb371"/>
     <use xlink:href="#md8fcfe3752" x="261.698658" y="224.246327" style="fill: #3cb371; stroke: #3cb371"/>
     <use xlink:href="#md8fcfe3752" x="245.267186" y="284.926729" style="fill: #3cb371; stroke: #3cb371"/>
     <use xlink:href="#md8fcfe3752" x="233.364281" y="274.129756" style="fill: #3cb371; stroke: #3cb371"/>
     <use xlink:href="#md8fcfe3752" x="245.883917" y="230.397599" style="fill: #3cb371; stroke: #3cb371"/>
    </g>
   </g>
   <g id="PathCollection_2">
    <defs>
     <path id="m34fce7de0b" d="M 0 3 
C 0.795609 3 1.55874 2.683901 2.12132 2.12132 
C 2.683901 1.55874 3 0.795609 3 0 
C 3 -0.795609 2.683901 -1.55874 2.12132 -2.12132 
C 1.55874 -2.683901 0.795609 -3 0 -3 
C -0.795609 -3 -1.55874 -2.683901 -2.12132 -2.12132 
C -2.683901 -1.55874 -3 -0.795609 -3 0 
C -3 0.795609 -2.683901 1.55874 -2.12132 2.12132 
C -1.55874 2.683901 -0.795609 3 0 3 
z
" style="stroke: #ffdead"/>
    </defs>
    <g clip-path="url(#p8baf1c1626)">
     <use xlink:href="#m34fce7de0b" x="239.478727" y="280.38495" style="fill: #ffdead; stroke: #ffdead"/>
     <use xlink:href="#m34fce7de0b" x="213.399823" y="276.480341" style="fill: #ffdead; stroke: #ffdead"/>
     <use xlink:href="#m34fce7de0b" x="210.924089" y="291.832942" style="fill: #ffdead; stroke: #ffdead"/>
     <use xlink:href="#m34fce7de0b" x="265.460716" y="280.910341" style="fill: #ffdead; stroke: #ffdead"/>
     <use xlink:href="#m34fce7de0b" x="207.54969" y="271.571822" style="fill: #ffdead; stroke: #ffdead"/>
     <use xlink:href="#m34fce7de0b" x="233.170451" y="280.205513" style="fill: #ffdead; stroke: #ffdead"/>
     <use xlink:href="#m34fce7de0b" x="212.694988" y="268.856318" style="fill: #ffdead; stroke: #ffdead"/>
     <use xlink:href="#m34fce7de0b" x="63.886648" y="292.136416" style="fill: #ffdead; stroke: #ffdead"/>
     <use xlink:href="#m34fce7de0b" x="134.167532" y="259.325293" style="fill: #ffdead; stroke: #ffdead"/>
     <use xlink:href="#m34fce7de0b" x="141.911909" y="252.084776" style="fill: #ffdead; stroke: #ffdead"/>
     <use xlink:href="#m34fce7de0b" x="168.078917" y="266.045914" style="fill: #ffdead; stroke: #ffdead"/>
     <use xlink:href="#m34fce7de0b" x="248.720879" y="282.162698" style="fill: #ffdead; stroke: #ffdead"/>
     <use xlink:href="#m34fce7de0b" x="276.579492" y="255.297922" style="fill: #ffdead; stroke: #ffdead"/>
    </g>
   </g>
   <g id="PathCollection_3">
    <defs>
     <path id="md2f0aa5d1e" d="M 0 3 
C 0.795609 3 1.55874 2.683901 2.12132 2.12132 
C 2.683901 1.55874 3 0.795609 3 0 
C 3 -0.795609 2.683901 -1.55874 2.12132 -2.12132 
C 1.55874 -2.683901 0.795609 -3 0 -3 
C -0.795609 -3 -1.55874 -2.683901 -2.12132 -2.12132 
C -2.683901 -1.55874 -3 -0.795609 -3 0 
C -3 0.795609 -2.683901 1.55874 -2.12132 2.12132 
C -1.55874 2.683901 -0.795609 3 0 3 
z
" style="stroke: #483d8b"/>
    </defs>
    <g clip-path="url(#p8baf1c1626)">
     <use xlink:href="#md2f0aa5d1e" x="206.606973" y="277.48394" style="fill: #483d8b; stroke: #483d8b"/>
     <use xlink:href="#md2f0aa5d1e" x="217.646455" y="282.973501" style="fill: #483d8b; stroke: #483d8b"/>
     <use xlink:href="#md2f0aa5d1e" x="347.036584" y="275.563127" style="fill: #483d8b; stroke: #483d8b"/>
     <use xlink:href="#md2f0aa5d1e" x="265.055436" y="282.467432" style="fill: #483d8b; stroke: #483d8b"/>
     <use xlink:href="#md2f0aa5d1e" x="264.236065" y="282.63345" style="fill: #483d8b; stroke: #483d8b"/>
     <use xlink:href="#md2f0aa5d1e" x="223.690417" y="289.394691" style="fill: #483d8b; stroke: #483d8b"/>
     <use xlink:href="#md2f0aa5d1e" x="243.760601" y="275.681022" style="fill: #483d8b; stroke: #483d8b"/>
     <use xlink:href="#md2f0aa5d1e" x="220.016464" y="264.657971" style="fill: #483d8b; stroke: #483d8b"/>
     <use xlink:href="#md2f0aa5d1e" x="242.430224" y="261.539839" style="fill: #483d8b; stroke: #483d8b"/>
     <use xlink:href="#md2f0aa5d1e" x="236.782732" y="286.256764" style="fill: #483d8b; stroke: #483d8b"/>
    </g>
   </g>
   <g id="matplotlib.axis_1">
    <g id="xtick_1">
     <g id="line2d_1">
      <defs>
       <path id="m376f6f3e52" d="M 0 0 
L 0 3.5 
" style="stroke: #000000; stroke-width: 0.8"/>
      </defs>
      <g>
       <use xlink:href="#m376f6f3e52" x="62.476977" y="303.64" style="stroke: #000000; stroke-width: 0.8"/>
      </g>
     </g>
     <g id="text_1">
      <!-- 0 -->
      <g transform="translate(59.295727 318.238437)scale(0.1 -0.1)">
       <defs>
        <path id="DejaVuSans-30" d="M 2034 4250 
Q 1547 4250 1301 3770 
Q 1056 3291 1056 2328 
Q 1056 1369 1301 889 
Q 1547 409 2034 409 
Q 2525 409 2770 889 
Q 3016 1369 3016 2328 
Q 3016 3291 2770 3770 
Q 2525 4250 2034 4250 
z
M 2034 4750 
Q 2819 4750 3233 4129 
Q 3647 3509 3647 2328 
Q 3647 1150 3233 529 
Q 2819 -91 2034 -91 
Q 1250 -91 836 529 
Q 422 1150 422 2328 
Q 422 3509 836 4129 
Q 1250 4750 2034 4750 
z
" transform="scale(0.015625)"/>
       </defs>
       <use xlink:href="#DejaVuSans-30"/>
      </g>
     </g>
    </g>
    <g id="xtick_2">
     <g id="line2d_2">
      <g>
       <use xlink:href="#m376f6f3e52" x="106.52918" y="303.64" style="stroke: #000000; stroke-width: 0.8"/>
      </g>
     </g>
     <g id="text_2">
      <!-- 5 -->
      <g transform="translate(103.34793 318.238437)scale(0.1 -0.1)">
       <defs>
        <path id="DejaVuSans-35" d="M 691 4666 
L 3169 4666 
L 3169 4134 
L 1269 4134 
L 1269 2991 
Q 1406 3038 1543 3061 
Q 1681 3084 1819 3084 
Q 2600 3084 3056 2656 
Q 3513 2228 3513 1497 
Q 3513 744 3044 326 
Q 2575 -91 1722 -91 
Q 1428 -91 1123 -41 
Q 819 9 494 109 
L 494 744 
Q 775 591 1075 516 
Q 1375 441 1709 441 
Q 2250 441 2565 725 
Q 2881 1009 2881 1497 
Q 2881 1984 2565 2268 
Q 2250 2553 1709 2553 
Q 1456 2553 1204 2497 
Q 953 2441 691 2322 
L 691 4666 
z
" transform="scale(0.015625)"/>
       </defs>
       <use xlink:href="#DejaVuSans-35"/>
      </g>
     </g>
    </g>
    <g id="xtick_3">
     <g id="line2d_3">
      <g>
       <use xlink:href="#m376f6f3e52" x="150.581382" y="303.64" style="stroke: #000000; stroke-width: 0.8"/>
      </g>
     </g>
     <g id="text_3">
      <!-- 10 -->
      <g transform="translate(144.218882 318.238437)scale(0.1 -0.1)">
       <defs>
        <path id="DejaVuSans-31" d="M 794 531 
L 1825 531 
L 1825 4091 
L 703 3866 
L 703 4441 
L 1819 4666 
L 2450 4666 
L 2450 531 
L 3481 531 
L 3481 0 
L 794 0 
L 794 531 
z
" transform="scale(0.015625)"/>
       </defs>
       <use xlink:href="#DejaVuSans-31"/>
       <use xlink:href="#DejaVuSans-30" x="63.623047"/>
      </g>
     </g>
    </g>
    <g id="xtick_4">
     <g id="line2d_4">
      <g>
       <use xlink:href="#m376f6f3e52" x="194.633585" y="303.64" style="stroke: #000000; stroke-width: 0.8"/>
      </g>
     </g>
     <g id="text_4">
      <!-- 15 -->
      <g transform="translate(188.271085 318.238437)scale(0.1 -0.1)">
       <use xlink:href="#DejaVuSans-31"/>
       <use xlink:href="#DejaVuSans-35" x="63.623047"/>
      </g>
     </g>
    </g>
    <g id="xtick_5">
     <g id="line2d_5">
      <g>
       <use xlink:href="#m376f6f3e52" x="238.685787" y="303.64" style="stroke: #000000; stroke-width: 0.8"/>
      </g>
     </g>
     <g id="text_5">
      <!-- 20 -->
      <g transform="translate(232.323287 318.238437)scale(0.1 -0.1)">
       <defs>
        <path id="DejaVuSans-32" d="M 1228 531 
L 3431 531 
L 3431 0 
L 469 0 
L 469 531 
Q 828 903 1448 1529 
Q 2069 2156 2228 2338 
Q 2531 2678 2651 2914 
Q 2772 3150 2772 3378 
Q 2772 3750 2511 3984 
Q 2250 4219 1831 4219 
Q 1534 4219 1204 4116 
Q 875 4013 500 3803 
L 500 4441 
Q 881 4594 1212 4672 
Q 1544 4750 1819 4750 
Q 2544 4750 2975 4387 
Q 3406 4025 3406 3419 
Q 3406 3131 3298 2873 
Q 3191 2616 2906 2266 
Q 2828 2175 2409 1742 
Q 1991 1309 1228 531 
z
" transform="scale(0.015625)"/>
       </defs>
       <use xlink:href="#DejaVuSans-32"/>
       <use xlink:href="#DejaVuSans-30" x="63.623047"/>
      </g>
     </g>
    </g>
    <g id="xtick_6">
     <g id="line2d_6">
      <g>
       <use xlink:href="#m376f6f3e52" x="282.73799" y="303.64" style="stroke: #000000; stroke-width: 0.8"/>
      </g>
     </g>
     <g id="text_6">
      <!-- 25 -->
      <g transform="translate(276.37549 318.238437)scale(0.1 -0.1)">
       <use xlink:href="#DejaVuSans-32"/>
       <use xlink:href="#DejaVuSans-35" x="63.623047"/>
      </g>
     </g>
    </g>
    <g id="xtick_7">
     <g id="line2d_7">
      <g>
       <use xlink:href="#m376f6f3e52" x="326.790192" y="303.64" style="stroke: #000000; stroke-width: 0.8"/>
      </g>
     </g>
     <g id="text_7">
      <!-- 30 -->
      <g transform="translate(320.427692 318.238437)scale(0.1 -0.1)">
       <defs>
        <path id="DejaVuSans-33" d="M 2597 2516 
Q 3050 2419 3304 2112 
Q 3559 1806 3559 1356 
Q 3559 666 3084 287 
Q 2609 -91 1734 -91 
Q 1441 -91 1130 -33 
Q 819 25 488 141 
L 488 750 
Q 750 597 1062 519 
Q 1375 441 1716 441 
Q 2309 441 2620 675 
Q 2931 909 2931 1356 
Q 2931 1769 2642 2001 
Q 2353 2234 1838 2234 
L 1294 2234 
L 1294 2753 
L 1863 2753 
Q 2328 2753 2575 2939 
Q 2822 3125 2822 3475 
Q 2822 3834 2567 4026 
Q 2313 4219 1838 4219 
Q 1578 4219 1281 4162 
Q 984 4106 628 3988 
L 628 4550 
Q 988 4650 1302 4700 
Q 1616 4750 1894 4750 
Q 2613 4750 3031 4423 
Q 3450 4097 3450 3541 
Q 3450 3153 3228 2886 
Q 3006 2619 2597 2516 
z
" transform="scale(0.015625)"/>
       </defs>
       <use xlink:href="#DejaVuSans-33"/>
       <use xlink:href="#DejaVuSans-30" x="63.623047"/>
      </g>
     </g>
    </g>
    <g id="xtick_8">
     <g id="line2d_8">
      <g>
       <use xlink:href="#m376f6f3e52" x="370.842395" y="303.64" style="stroke: #000000; stroke-width: 0.8"/>
      </g>
     </g>
     <g id="text_8">
      <!-- 35 -->
      <g transform="translate(364.479895 318.238437)scale(0.1 -0.1)">
       <use xlink:href="#DejaVuSans-33"/>
       <use xlink:href="#DejaVuSans-35" x="63.623047"/>
      </g>
     </g>
    </g>
    <g id="text_9">
     <!-- IMM1Diff -->
     <g transform="translate(202.496875 331.916562)scale(0.1 -0.1)">
      <defs>
       <path id="DejaVuSans-49" d="M 628 4666 
L 1259 4666 
L 1259 0 
L 628 0 
L 628 4666 
z
" transform="scale(0.015625)"/>
       <path id="DejaVuSans-4d" d="M 628 4666 
L 1569 4666 
L 2759 1491 
L 3956 4666 
L 4897 4666 
L 4897 0 
L 4281 0 
L 4281 4097 
L 3078 897 
L 2444 897 
L 1241 4097 
L 1241 0 
L 628 0 
L 628 4666 
z
" transform="scale(0.015625)"/>
       <path id="DejaVuSans-44" d="M 1259 4147 
L 1259 519 
L 2022 519 
Q 2988 519 3436 956 
Q 3884 1394 3884 2338 
Q 3884 3275 3436 3711 
Q 2988 4147 2022 4147 
L 1259 4147 
z
M 628 4666 
L 1925 4666 
Q 3281 4666 3915 4102 
Q 4550 3538 4550 2338 
Q 4550 1131 3912 565 
Q 3275 0 1925 0 
L 628 0 
L 628 4666 
z
" transform="scale(0.015625)"/>
       <path id="DejaVuSans-69" d="M 603 3500 
L 1178 3500 
L 1178 0 
L 603 0 
L 603 3500 
z
M 603 4863 
L 1178 4863 
L 1178 4134 
L 603 4134 
L 603 4863 
z
" transform="scale(0.015625)"/>
       <path id="DejaVuSans-66" d="M 2375 4863 
L 2375 4384 
L 1825 4384 
Q 1516 4384 1395 4259 
Q 1275 4134 1275 3809 
L 1275 3500 
L 2222 3500 
L 2222 3053 
L 1275 3053 
L 1275 0 
L 697 0 
L 697 3053 
L 147 3053 
L 147 3500 
L 697 3500 
L 697 3744 
Q 697 4328 969 4595 
Q 1241 4863 1831 4863 
L 2375 4863 
z
" transform="scale(0.015625)"/>
      </defs>
      <use xlink:href="#DejaVuSans-49"/>
      <use xlink:href="#DejaVuSans-4d" x="29.492188"/>
      <use xlink:href="#DejaVuSans-4d" x="115.771484"/>
      <use xlink:href="#DejaVuSans-31" x="202.050781"/>
      <use xlink:href="#DejaVuSans-44" x="265.673828"/>
      <use xlink:href="#DejaVuSans-69" x="342.675781"/>
      <use xlink:href="#DejaVuSans-66" x="370.458984"/>
      <use xlink:href="#DejaVuSans-66" x="405.664062"/>
     </g>
    </g>
   </g>
   <g id="matplotlib.axis_2">
    <g id="ytick_1">
     <g id="line2d_9">
      <defs>
       <path id="m5df04e9174" d="M 0 0 
L -3.5 0 
" style="stroke: #000000; stroke-width: 0.8"/>
      </defs>
      <g>
       <use xlink:href="#m5df04e9174" x="47.82125" y="303.64" style="stroke: #000000; stroke-width: 0.8"/>
      </g>
     </g>
     <g id="text_10">
      <!-- 0.0 -->
      <g transform="translate(24.918125 307.439219)scale(0.1 -0.1)">
       <defs>
        <path id="DejaVuSans-2e" d="M 684 794 
L 1344 794 
L 1344 0 
L 684 0 
L 684 794 
z
" transform="scale(0.015625)"/>
       </defs>
       <use xlink:href="#DejaVuSans-30"/>
       <use xlink:href="#DejaVuSans-2e" x="63.623047"/>
       <use xlink:href="#DejaVuSans-30" x="95.410156"/>
      </g>
     </g>
    </g>
    <g id="ytick_2">
     <g id="line2d_10">
      <g>
       <use xlink:href="#m5df04e9174" x="47.82125" y="260.51219" style="stroke: #000000; stroke-width: 0.8"/>
      </g>
     </g>
     <g id="text_11">
      <!-- 0.5 -->
      <g transform="translate(24.918125 264.311409)scale(0.1 -0.1)">
       <use xlink:href="#DejaVuSans-30"/>
       <use xlink:href="#DejaVuSans-2e" x="63.623047"/>
       <use xlink:href="#DejaVuSans-35" x="95.410156"/>
      </g>
     </g>
    </g>
    <g id="ytick_3">
     <g id="line2d_11">
      <g>
       <use xlink:href="#m5df04e9174" x="47.82125" y="217.38438" style="stroke: #000000; stroke-width: 0.8"/>
      </g>
     </g>
     <g id="text_12">
      <!-- 1.0 -->
      <g transform="translate(24.918125 221.183599)scale(0.1 -0.1)">
       <use xlink:href="#DejaVuSans-31"/>
       <use xlink:href="#DejaVuSans-2e" x="63.623047"/>
       <use xlink:href="#DejaVuSans-30" x="95.410156"/>
      </g>
     </g>
    </g>
    <g id="ytick_4">
     <g id="line2d_12">
      <g>
       <use xlink:href="#m5df04e9174" x="47.82125" y="174.25657" style="stroke: #000000; stroke-width: 0.8"/>
      </g>
     </g>
     <g id="text_13">
      <!-- 1.5 -->
      <g transform="translate(24.918125 178.055789)scale(0.1 -0.1)">
       <use xlink:href="#DejaVuSans-31"/>
       <use xlink:href="#DejaVuSans-2e" x="63.623047"/>
       <use xlink:href="#DejaVuSans-35" x="95.410156"/>
      </g>
     </g>
    </g>
    <g id="ytick_5">
     <g id="line2d_13">
      <g>
       <use xlink:href="#m5df04e9174" x="47.82125" y="131.12876" style="stroke: #000000; stroke-width: 0.8"/>
      </g>
     </g>
     <g id="text_14">
      <!-- 2.0 -->
      <g transform="translate(24.918125 134.927979)scale(0.1 -0.1)">
       <use xlink:href="#DejaVuSans-32"/>
       <use xlink:href="#DejaVuSans-2e" x="63.623047"/>
       <use xlink:href="#DejaVuSans-30" x="95.410156"/>
      </g>
     </g>
    </g>
    <g id="ytick_6">
     <g id="line2d_14">
      <g>
       <use xlink:href="#m5df04e9174" x="47.82125" y="88.00095" style="stroke: #000000; stroke-width: 0.8"/>
      </g>
     </g>
     <g id="text_15">
      <!-- 2.5 -->
      <g transform="translate(24.918125 91.800169)scale(0.1 -0.1)">
       <use xlink:href="#DejaVuSans-32"/>
       <use xlink:href="#DejaVuSans-2e" x="63.623047"/>
       <use xlink:href="#DejaVuSans-35" x="95.410156"/>
      </g>
     </g>
    </g>
    <g id="text_16">
     <!-- PercentGpA_transformed -->
     <g transform="translate(18.560313 237.696138)rotate(-90)scale(0.1 -0.1)">
      <defs>
       <path id="DejaVuSans-50" d="M 1259 4147 
L 1259 2394 
L 2053 2394 
Q 2494 2394 2734 2622 
Q 2975 2850 2975 3272 
Q 2975 3691 2734 3919 
Q 2494 4147 2053 4147 
L 1259 4147 
z
M 628 4666 
L 2053 4666 
Q 2838 4666 3239 4311 
Q 3641 3956 3641 3272 
Q 3641 2581 3239 2228 
Q 2838 1875 2053 1875 
L 1259 1875 
L 1259 0 
L 628 0 
L 628 4666 
z
" transform="scale(0.015625)"/>
       <path id="DejaVuSans-65" d="M 3597 1894 
L 3597 1613 
L 953 1613 
Q 991 1019 1311 708 
Q 1631 397 2203 397 
Q 2534 397 2845 478 
Q 3156 559 3463 722 
L 3463 178 
Q 3153 47 2828 -22 
Q 2503 -91 2169 -91 
Q 1331 -91 842 396 
Q 353 884 353 1716 
Q 353 2575 817 3079 
Q 1281 3584 2069 3584 
Q 2775 3584 3186 3129 
Q 3597 2675 3597 1894 
z
M 3022 2063 
Q 3016 2534 2758 2815 
Q 2500 3097 2075 3097 
Q 1594 3097 1305 2825 
Q 1016 2553 972 2059 
L 3022 2063 
z
" transform="scale(0.015625)"/>
       <path id="DejaVuSans-72" d="M 2631 2963 
Q 2534 3019 2420 3045 
Q 2306 3072 2169 3072 
Q 1681 3072 1420 2755 
Q 1159 2438 1159 1844 
L 1159 0 
L 581 0 
L 581 3500 
L 1159 3500 
L 1159 2956 
Q 1341 3275 1631 3429 
Q 1922 3584 2338 3584 
Q 2397 3584 2469 3576 
Q 2541 3569 2628 3553 
L 2631 2963 
z
" transform="scale(0.015625)"/>
       <path id="DejaVuSans-63" d="M 3122 3366 
L 3122 2828 
Q 2878 2963 2633 3030 
Q 2388 3097 2138 3097 
Q 1578 3097 1268 2742 
Q 959 2388 959 1747 
Q 959 1106 1268 751 
Q 1578 397 2138 397 
Q 2388 397 2633 464 
Q 2878 531 3122 666 
L 3122 134 
Q 2881 22 2623 -34 
Q 2366 -91 2075 -91 
Q 1284 -91 818 406 
Q 353 903 353 1747 
Q 353 2603 823 3093 
Q 1294 3584 2113 3584 
Q 2378 3584 2631 3529 
Q 2884 3475 3122 3366 
z
" transform="scale(0.015625)"/>
       <path id="DejaVuSans-6e" d="M 3513 2113 
L 3513 0 
L 2938 0 
L 2938 2094 
Q 2938 2591 2744 2837 
Q 2550 3084 2163 3084 
Q 1697 3084 1428 2787 
Q 1159 2491 1159 1978 
L 1159 0 
L 581 0 
L 581 3500 
L 1159 3500 
L 1159 2956 
Q 1366 3272 1645 3428 
Q 1925 3584 2291 3584 
Q 2894 3584 3203 3211 
Q 3513 2838 3513 2113 
z
" transform="scale(0.015625)"/>
       <path id="DejaVuSans-74" d="M 1172 4494 
L 1172 3500 
L 2356 3500 
L 2356 3053 
L 1172 3053 
L 1172 1153 
Q 1172 725 1289 603 
Q 1406 481 1766 481 
L 2356 481 
L 2356 0 
L 1766 0 
Q 1100 0 847 248 
Q 594 497 594 1153 
L 594 3053 
L 172 3053 
L 172 3500 
L 594 3500 
L 594 4494 
L 1172 4494 
z
" transform="scale(0.015625)"/>
       <path id="DejaVuSans-47" d="M 3809 666 
L 3809 1919 
L 2778 1919 
L 2778 2438 
L 4434 2438 
L 4434 434 
Q 4069 175 3628 42 
Q 3188 -91 2688 -91 
Q 1594 -91 976 548 
Q 359 1188 359 2328 
Q 359 3472 976 4111 
Q 1594 4750 2688 4750 
Q 3144 4750 3555 4637 
Q 3966 4525 4313 4306 
L 4313 3634 
Q 3963 3931 3569 4081 
Q 3175 4231 2741 4231 
Q 1884 4231 1454 3753 
Q 1025 3275 1025 2328 
Q 1025 1384 1454 906 
Q 1884 428 2741 428 
Q 3075 428 3337 486 
Q 3600 544 3809 666 
z
" transform="scale(0.015625)"/>
       <path id="DejaVuSans-70" d="M 1159 525 
L 1159 -1331 
L 581 -1331 
L 581 3500 
L 1159 3500 
L 1159 2969 
Q 1341 3281 1617 3432 
Q 1894 3584 2278 3584 
Q 2916 3584 3314 3078 
Q 3713 2572 3713 1747 
Q 3713 922 3314 415 
Q 2916 -91 2278 -91 
Q 1894 -91 1617 61 
Q 1341 213 1159 525 
z
M 3116 1747 
Q 3116 2381 2855 2742 
Q 2594 3103 2138 3103 
Q 1681 3103 1420 2742 
Q 1159 2381 1159 1747 
Q 1159 1113 1420 752 
Q 1681 391 2138 391 
Q 2594 391 2855 752 
Q 3116 1113 3116 1747 
z
" transform="scale(0.015625)"/>
       <path id="DejaVuSans-41" d="M 2188 4044 
L 1331 1722 
L 3047 1722 
L 2188 4044 
z
M 1831 4666 
L 2547 4666 
L 4325 0 
L 3669 0 
L 3244 1197 
L 1141 1197 
L 716 0 
L 50 0 
L 1831 4666 
z
" transform="scale(0.015625)"/>
       <path id="DejaVuSans-5f" d="M 3263 -1063 
L 3263 -1509 
L -63 -1509 
L -63 -1063 
L 3263 -1063 
z
" transform="scale(0.015625)"/>
       <path id="DejaVuSans-61" d="M 2194 1759 
Q 1497 1759 1228 1600 
Q 959 1441 959 1056 
Q 959 750 1161 570 
Q 1363 391 1709 391 
Q 2188 391 2477 730 
Q 2766 1069 2766 1631 
L 2766 1759 
L 2194 1759 
z
M 3341 1997 
L 3341 0 
L 2766 0 
L 2766 531 
Q 2569 213 2275 61 
Q 1981 -91 1556 -91 
Q 1019 -91 701 211 
Q 384 513 384 1019 
Q 384 1609 779 1909 
Q 1175 2209 1959 2209 
L 2766 2209 
L 2766 2266 
Q 2766 2663 2505 2880 
Q 2244 3097 1772 3097 
Q 1472 3097 1187 3025 
Q 903 2953 641 2809 
L 641 3341 
Q 956 3463 1253 3523 
Q 1550 3584 1831 3584 
Q 2591 3584 2966 3190 
Q 3341 2797 3341 1997 
z
" transform="scale(0.015625)"/>
       <path id="DejaVuSans-73" d="M 2834 3397 
L 2834 2853 
Q 2591 2978 2328 3040 
Q 2066 3103 1784 3103 
Q 1356 3103 1142 2972 
Q 928 2841 928 2578 
Q 928 2378 1081 2264 
Q 1234 2150 1697 2047 
L 1894 2003 
Q 2506 1872 2764 1633 
Q 3022 1394 3022 966 
Q 3022 478 2636 193 
Q 2250 -91 1575 -91 
Q 1294 -91 989 -36 
Q 684 19 347 128 
L 347 722 
Q 666 556 975 473 
Q 1284 391 1588 391 
Q 1994 391 2212 530 
Q 2431 669 2431 922 
Q 2431 1156 2273 1281 
Q 2116 1406 1581 1522 
L 1381 1569 
Q 847 1681 609 1914 
Q 372 2147 372 2553 
Q 372 3047 722 3315 
Q 1072 3584 1716 3584 
Q 2034 3584 2315 3537 
Q 2597 3491 2834 3397 
z
" transform="scale(0.015625)"/>
       <path id="DejaVuSans-6f" d="M 1959 3097 
Q 1497 3097 1228 2736 
Q 959 2375 959 1747 
Q 959 1119 1226 758 
Q 1494 397 1959 397 
Q 2419 397 2687 759 
Q 2956 1122 2956 1747 
Q 2956 2369 2687 2733 
Q 2419 3097 1959 3097 
z
M 1959 3584 
Q 2709 3584 3137 3096 
Q 3566 2609 3566 1747 
Q 3566 888 3137 398 
Q 2709 -91 1959 -91 
Q 1206 -91 779 398 
Q 353 888 353 1747 
Q 353 2609 779 3096 
Q 1206 3584 1959 3584 
z
" transform="scale(0.015625)"/>
       <path id="DejaVuSans-6d" d="M 3328 2828 
Q 3544 3216 3844 3400 
Q 4144 3584 4550 3584 
Q 5097 3584 5394 3201 
Q 5691 2819 5691 2113 
L 5691 0 
L 5113 0 
L 5113 2094 
Q 5113 2597 4934 2840 
Q 4756 3084 4391 3084 
Q 3944 3084 3684 2787 
Q 3425 2491 3425 1978 
L 3425 0 
L 2847 0 
L 2847 2094 
Q 2847 2600 2669 2842 
Q 2491 3084 2119 3084 
Q 1678 3084 1418 2786 
Q 1159 2488 1159 1978 
L 1159 0 
L 581 0 
L 581 3500 
L 1159 3500 
L 1159 2956 
Q 1356 3278 1631 3431 
Q 1906 3584 2284 3584 
Q 2666 3584 2933 3390 
Q 3200 3197 3328 2828 
z
" transform="scale(0.015625)"/>
       <path id="DejaVuSans-64" d="M 2906 2969 
L 2906 4863 
L 3481 4863 
L 3481 0 
L 2906 0 
L 2906 525 
Q 2725 213 2448 61 
Q 2172 -91 1784 -91 
Q 1150 -91 751 415 
Q 353 922 353 1747 
Q 353 2572 751 3078 
Q 1150 3584 1784 3584 
Q 2172 3584 2448 3432 
Q 2725 3281 2906 2969 
z
M 947 1747 
Q 947 1113 1208 752 
Q 1469 391 1925 391 
Q 2381 391 2643 752 
Q 2906 1113 2906 1747 
Q 2906 2381 2643 2742 
Q 2381 3103 1925 3103 
Q 1469 3103 1208 2742 
Q 947 2381 947 1747 
z
" transform="scale(0.015625)"/>
      </defs>
      <use xlink:href="#DejaVuSans-50"/>
      <use xlink:href="#DejaVuSans-65" x="56.677734"/>
      <use xlink:href="#DejaVuSans-72" x="118.201172"/>
      <use xlink:href="#DejaVuSans-63" x="157.064453"/>
      <use xlink:href="#DejaVuSans-65" x="212.044922"/>
      <use xlink:href="#DejaVuSans-6e" x="273.568359"/>
      <use xlink:href="#DejaVuSans-74" x="336.947266"/>
      <use xlink:href="#DejaVuSans-47" x="376.15625"/>
      <use xlink:href="#DejaVuSans-70" x="453.646484"/>
      <use xlink:href="#DejaVuSans-41" x="517.123047"/>
      <use xlink:href="#DejaVuSans-5f" x="585.53125"/>
      <use xlink:href="#DejaVuSans-74" x="635.53125"/>
      <use xlink:href="#DejaVuSans-72" x="674.740234"/>
      <use xlink:href="#DejaVuSans-61" x="715.853516"/>
      <use xlink:href="#DejaVuSans-6e" x="777.132812"/>
      <use xlink:href="#DejaVuSans-73" x="840.511719"/>
      <use xlink:href="#DejaVuSans-66" x="892.611328"/>
      <use xlink:href="#DejaVuSans-6f" x="927.816406"/>
      <use xlink:href="#DejaVuSans-72" x="988.998047"/>
      <use xlink:href="#DejaVuSans-6d" x="1028.361328"/>
      <use xlink:href="#DejaVuSans-65" x="1125.773438"/>
      <use xlink:href="#DejaVuSans-64" x="1187.296875"/>
     </g>
    </g>
   </g>
   <g id="LineCollection_1">
    <path d="M 265.407853 219.095934 
L 265.407853 184.739342 
" clip-path="url(#p8baf1c1626)" style="fill: none; stroke: #d3d3d3; stroke-width: 3"/>
    <path d="M 385.194602 278.313967 
L 385.194602 267.93604 
" clip-path="url(#p8baf1c1626)" style="fill: none; stroke: #d3d3d3; stroke-width: 3"/>
    <path d="M 312.490847 272.550697 
L 312.490847 262.238351 
" clip-path="url(#p8baf1c1626)" style="fill: none; stroke: #d3d3d3; stroke-width: 3"/>
    <path d="M 285.962611 238.140018 
L 285.962611 59.298724 
" clip-path="url(#p8baf1c1626)" style="fill: none; stroke: #d3d3d3; stroke-width: 3"/>
    <path d="M 321.036975 242.142611 
L 321.036975 76.50529 
" clip-path="url(#p8baf1c1626)" style="fill: none; stroke: #d3d3d3; stroke-width: 3"/>
    <path d="M 230.791633 286.623101 
L 230.791633 270.726064 
" clip-path="url(#p8baf1c1626)" style="fill: none; stroke: #d3d3d3; stroke-width: 3"/>
    <path d="M 294.499928 275.144766 
L 294.499928 265.678538 
" clip-path="url(#p8baf1c1626)" style="fill: none; stroke: #d3d3d3; stroke-width: 3"/>
    <path d="M 344.974941 213.904233 
L 344.974941 183.5982 
" clip-path="url(#p8baf1c1626)" style="fill: none; stroke: #d3d3d3; stroke-width: 3"/>
    <path d="M 246.35087 291.478189 
L 246.35087 265.180168 
" clip-path="url(#p8baf1c1626)" style="fill: none; stroke: #d3d3d3; stroke-width: 3"/>
    <path d="M 261.698658 230.405292 
L 261.698658 218.087363 
" clip-path="url(#p8baf1c1626)" style="fill: none; stroke: #d3d3d3; stroke-width: 3"/>
    <path d="M 245.267186 289.558484 
L 245.267186 280.294974 
" clip-path="url(#p8baf1c1626)" style="fill: none; stroke: #d3d3d3; stroke-width: 3"/>
    <path d="M 233.364281 282.540676 
L 233.364281 265.718836 
" clip-path="url(#p8baf1c1626)" style="fill: none; stroke: #d3d3d3; stroke-width: 3"/>
    <path d="M 245.883917 230.807179 
L 245.883917 229.988018 
" clip-path="url(#p8baf1c1626)" style="fill: none; stroke: #d3d3d3; stroke-width: 3"/>
   </g>
   <g id="LineCollection_2">
    <path d="M 239.478727 288.956441 
L 239.478727 271.813459 
" clip-path="url(#p8baf1c1626)" style="fill: none; stroke: #d3d3d3; stroke-width: 3"/>
    <path d="M 213.399823 283.024524 
L 213.399823 269.936157 
" clip-path="url(#p8baf1c1626)" style="fill: none; stroke: #d3d3d3; stroke-width: 3"/>
    <path d="M 210.924089 302.716886 
L 210.924089 280.948998 
" clip-path="url(#p8baf1c1626)" style="fill: none; stroke: #d3d3d3; stroke-width: 3"/>
    <path d="M 265.460716 287.49037 
L 265.460716 274.330313 
" clip-path="url(#p8baf1c1626)" style="fill: none; stroke: #d3d3d3; stroke-width: 3"/>
    <path d="M 207.54969 280.257904 
L 207.54969 262.88574 
" clip-path="url(#p8baf1c1626)" style="fill: none; stroke: #d3d3d3; stroke-width: 3"/>
    <path d="M 233.170451 289.148681 
L 233.170451 271.262344 
" clip-path="url(#p8baf1c1626)" style="fill: none; stroke: #d3d3d3; stroke-width: 3"/>
    <path d="M 212.694988 280.750801 
L 212.694988 256.961834 
" clip-path="url(#p8baf1c1626)" style="fill: none; stroke: #d3d3d3; stroke-width: 3"/>
    <path d="M 63.886648 298.861778 
L 63.886648 285.411053 
" clip-path="url(#p8baf1c1626)" style="fill: none; stroke: #d3d3d3; stroke-width: 3"/>
    <path d="M 134.167532 272.960462 
L 134.167532 245.690124 
" clip-path="url(#p8baf1c1626)" style="fill: none; stroke: #d3d3d3; stroke-width: 3"/>
    <path d="M 141.911909 255.163259 
L 141.911909 249.006293 
" clip-path="url(#p8baf1c1626)" style="fill: none; stroke: #d3d3d3; stroke-width: 3"/>
    <path d="M 168.078917 295.742419 
L 168.078917 236.349408 
" clip-path="url(#p8baf1c1626)" style="fill: none; stroke: #d3d3d3; stroke-width: 3"/>
    <path d="M 248.720879 289.883366 
L 248.720879 274.442031 
" clip-path="url(#p8baf1c1626)" style="fill: none; stroke: #d3d3d3; stroke-width: 3"/>
    <path d="M 276.579492 257.514696 
L 276.579492 253.081148 
" clip-path="url(#p8baf1c1626)" style="fill: none; stroke: #d3d3d3; stroke-width: 3"/>
   </g>
   <g id="LineCollection_3">
    <path d="M 206.606973 281.715425 
L 206.606973 273.252455 
" clip-path="url(#p8baf1c1626)" style="fill: none; stroke: #d3d3d3; stroke-width: 3"/>
    <path d="M 217.646455 291.074526 
L 217.646455 274.872477 
" clip-path="url(#p8baf1c1626)" style="fill: none; stroke: #d3d3d3; stroke-width: 3"/>
    <path d="M 347.036584 285.562633 
L 347.036584 265.56362 
" clip-path="url(#p8baf1c1626)" style="fill: none; stroke: #d3d3d3; stroke-width: 3"/>
    <path d="M 265.055436 290.720189 
L 265.055436 274.214675 
" clip-path="url(#p8baf1c1626)" style="fill: none; stroke: #d3d3d3; stroke-width: 3"/>
    <path d="M 264.236065 311.758913 
L 264.236065 253.507986 
" clip-path="url(#p8baf1c1626)" style="fill: none; stroke: #d3d3d3; stroke-width: 3"/>
    <path d="M 223.690417 297.145592 
L 223.690417 281.64379 
" clip-path="url(#p8baf1c1626)" style="fill: none; stroke: #d3d3d3; stroke-width: 3"/>
    <path d="M 243.760601 277.799216 
L 243.760601 273.562829 
" clip-path="url(#p8baf1c1626)" style="fill: none; stroke: #d3d3d3; stroke-width: 3"/>
    <path d="M 220.016464 272.280195 
L 220.016464 257.035748 
" clip-path="url(#p8baf1c1626)" style="fill: none; stroke: #d3d3d3; stroke-width: 3"/>
    <path d="M 242.430224 267.384685 
L 242.430224 255.694994 
" clip-path="url(#p8baf1c1626)" style="fill: none; stroke: #d3d3d3; stroke-width: 3"/>
    <path d="M 236.782732 292.352184 
L 236.782732 280.161343 
" clip-path="url(#p8baf1c1626)" style="fill: none; stroke: #d3d3d3; stroke-width: 3"/>
   </g>
   <g id="line2d_15">
    <path d="M 265.407853 257.474792 
L 385.194602 233.891369 
L 312.490847 248.205167 
L 285.962611 253.428004 
L 321.036975 246.52262 
L 230.791633 264.289978 
L 294.499928 251.747191 
L 344.974941 241.809751 
L 246.35087 261.2267 
L 261.698658 258.205052 
L 245.267186 261.440054 
L 239.478727 262.579677 
L 213.399823 267.714049 
L 210.924089 268.201468 
L 265.460716 257.464384 
L 207.54969 268.865814 
L 233.170451 263.82164 
L 212.694988 267.852816 
L 206.606973 269.051415 
L 217.646455 266.877979 
L 347.036584 241.403858 
L 265.055436 257.544175 
L 264.236065 257.705492 
L 223.690417 265.688054 
L 233.364281 263.783479 
L 245.883917 261.318633 
L 63.886648 297.149964 
L 134.167532 283.313176 
L 141.911909 281.788475 
L 168.078917 276.636757 
L 248.720879 260.760097 
L 276.579492 255.275338 
L 243.760601 261.736668 
L 220.016464 266.411376 
L 242.430224 261.998591 
L 236.782732 263.11046 
" clip-path="url(#p8baf1c1626)" style="fill: none; stroke: #1f77b4; stroke-width: 1.5; stroke-linecap: square"/>
   </g>
   <g id="line2d_16">
    <g clip-path="url(#p8baf1c1626)">
     <use xlink:href="#md8fcfe3752" x="265.407853" y="201.917638" style="fill: #3cb371; stroke: #3cb371"/>
     <use xlink:href="#md8fcfe3752" x="385.194602" y="273.125004" style="fill: #3cb371; stroke: #3cb371"/>
     <use xlink:href="#md8fcfe3752" x="312.490847" y="267.394524" style="fill: #3cb371; stroke: #3cb371"/>
     <use xlink:href="#md8fcfe3752" x="285.962611" y="148.719371" style="fill: #3cb371; stroke: #3cb371"/>
     <use xlink:href="#md8fcfe3752" x="321.036975" y="159.32395" style="fill: #3cb371; stroke: #3cb371"/>
     <use xlink:href="#md8fcfe3752" x="230.791633" y="278.674583" style="fill: #3cb371; stroke: #3cb371"/>
     <use xlink:href="#md8fcfe3752" x="294.499928" y="270.411652" style="fill: #3cb371; stroke: #3cb371"/>
     <use xlink:href="#md8fcfe3752" x="344.974941" y="198.751216" style="fill: #3cb371; stroke: #3cb371"/>
     <use xlink:href="#md8fcfe3752" x="246.35087" y="278.329179" style="fill: #3cb371; stroke: #3cb371"/>
     <use xlink:href="#md8fcfe3752" x="261.698658" y="224.246327" style="fill: #3cb371; stroke: #3cb371"/>
     <use xlink:href="#md8fcfe3752" x="245.267186" y="284.926729" style="fill: #3cb371; stroke: #3cb371"/>
     <use xlink:href="#md8fcfe3752" x="233.364281" y="274.129756" style="fill: #3cb371; stroke: #3cb371"/>
     <use xlink:href="#md8fcfe3752" x="245.883917" y="230.397599" style="fill: #3cb371; stroke: #3cb371"/>
    </g>
   </g>
   <g id="line2d_17">
    <g clip-path="url(#p8baf1c1626)">
     <use xlink:href="#m34fce7de0b" x="239.478727" y="280.38495" style="fill: #ffdead; stroke: #ffdead"/>
     <use xlink:href="#m34fce7de0b" x="213.399823" y="276.480341" style="fill: #ffdead; stroke: #ffdead"/>
     <use xlink:href="#m34fce7de0b" x="210.924089" y="291.832942" style="fill: #ffdead; stroke: #ffdead"/>
     <use xlink:href="#m34fce7de0b" x="265.460716" y="280.910341" style="fill: #ffdead; stroke: #ffdead"/>
     <use xlink:href="#m34fce7de0b" x="207.54969" y="271.571822" style="fill: #ffdead; stroke: #ffdead"/>
     <use xlink:href="#m34fce7de0b" x="233.170451" y="280.205513" style="fill: #ffdead; stroke: #ffdead"/>
     <use xlink:href="#m34fce7de0b" x="212.694988" y="268.856318" style="fill: #ffdead; stroke: #ffdead"/>
     <use xlink:href="#m34fce7de0b" x="63.886648" y="292.136416" style="fill: #ffdead; stroke: #ffdead"/>
     <use xlink:href="#m34fce7de0b" x="134.167532" y="259.325293" style="fill: #ffdead; stroke: #ffdead"/>
     <use xlink:href="#m34fce7de0b" x="141.911909" y="252.084776" style="fill: #ffdead; stroke: #ffdead"/>
     <use xlink:href="#m34fce7de0b" x="168.078917" y="266.045914" style="fill: #ffdead; stroke: #ffdead"/>
     <use xlink:href="#m34fce7de0b" x="248.720879" y="282.162698" style="fill: #ffdead; stroke: #ffdead"/>
     <use xlink:href="#m34fce7de0b" x="276.579492" y="255.297922" style="fill: #ffdead; stroke: #ffdead"/>
    </g>
   </g>
   <g id="line2d_18">
    <g clip-path="url(#p8baf1c1626)">
     <use xlink:href="#md2f0aa5d1e" x="206.606973" y="277.48394" style="fill: #483d8b; stroke: #483d8b"/>
     <use xlink:href="#md2f0aa5d1e" x="217.646455" y="282.973501" style="fill: #483d8b; stroke: #483d8b"/>
     <use xlink:href="#md2f0aa5d1e" x="347.036584" y="275.563127" style="fill: #483d8b; stroke: #483d8b"/>
     <use xlink:href="#md2f0aa5d1e" x="265.055436" y="282.467432" style="fill: #483d8b; stroke: #483d8b"/>
     <use xlink:href="#md2f0aa5d1e" x="264.236065" y="282.63345" style="fill: #483d8b; stroke: #483d8b"/>
     <use xlink:href="#md2f0aa5d1e" x="223.690417" y="289.394691" style="fill: #483d8b; stroke: #483d8b"/>
     <use xlink:href="#md2f0aa5d1e" x="243.760601" y="275.681022" style="fill: #483d8b; stroke: #483d8b"/>
     <use xlink:href="#md2f0aa5d1e" x="220.016464" y="264.657971" style="fill: #483d8b; stroke: #483d8b"/>
     <use xlink:href="#md2f0aa5d1e" x="242.430224" y="261.539839" style="fill: #483d8b; stroke: #483d8b"/>
     <use xlink:href="#md2f0aa5d1e" x="236.782732" y="286.256764" style="fill: #483d8b; stroke: #483d8b"/>
    </g>
   </g>
   <g id="patch_3">
    <path d="M 47.82125 303.64 
L 47.82125 46.675714 
" style="fill: none; stroke: #000000; stroke-width: 0.8; stroke-linejoin: miter; stroke-linecap: square"/>
   </g>
   <g id="patch_4">
    <path d="M 401.26 303.64 
L 401.26 46.675714 
" style="fill: none; stroke: #000000; stroke-width: 0.8; stroke-linejoin: miter; stroke-linecap: square"/>
   </g>
   <g id="patch_5">
    <path d="M 47.82125 303.64 
L 401.26 303.64 
" style="fill: none; stroke: #000000; stroke-width: 0.8; stroke-linejoin: miter; stroke-linecap: square"/>
   </g>
   <g id="patch_6">
    <path d="M 47.82125 46.675714 
L 401.26 46.675714 
" style="fill: none; stroke: #000000; stroke-width: 0.8; stroke-linejoin: miter; stroke-linecap: square"/>
   </g>
   <g id="text_17">
    <!-- y = 0.02x + 0.07 -->
    <g transform="translate(40.244813 18.599375)scale(0.1 -0.1)">
     <defs>
      <path id="DejaVuSans-79" d="M 2059 -325 
Q 1816 -950 1584 -1140 
Q 1353 -1331 966 -1331 
L 506 -1331 
L 506 -850 
L 844 -850 
Q 1081 -850 1212 -737 
Q 1344 -625 1503 -206 
L 1606 56 
L 191 3500 
L 800 3500 
L 1894 763 
L 2988 3500 
L 3597 3500 
L 2059 -325 
z
" transform="scale(0.015625)"/>
      <path id="DejaVuSans-20" transform="scale(0.015625)"/>
      <path id="DejaVuSans-3d" d="M 678 2906 
L 4684 2906 
L 4684 2381 
L 678 2381 
L 678 2906 
z
M 678 1631 
L 4684 1631 
L 4684 1100 
L 678 1100 
L 678 1631 
z
" transform="scale(0.015625)"/>
      <path id="DejaVuSans-78" d="M 3513 3500 
L 2247 1797 
L 3578 0 
L 2900 0 
L 1881 1375 
L 863 0 
L 184 0 
L 1544 1831 
L 300 3500 
L 978 3500 
L 1906 2253 
L 2834 3500 
L 3513 3500 
z
" transform="scale(0.015625)"/>
      <path id="DejaVuSans-2b" d="M 2944 4013 
L 2944 2272 
L 4684 2272 
L 4684 1741 
L 2944 1741 
L 2944 0 
L 2419 0 
L 2419 1741 
L 678 1741 
L 678 2272 
L 2419 2272 
L 2419 4013 
L 2944 4013 
z
" transform="scale(0.015625)"/>
      <path id="DejaVuSans-37" d="M 525 4666 
L 3525 4666 
L 3525 4397 
L 1831 0 
L 1172 0 
L 2766 4134 
L 525 4134 
L 525 4666 
z
" transform="scale(0.015625)"/>
     </defs>
     <use xlink:href="#DejaVuSans-79"/>
     <use xlink:href="#DejaVuSans-20" x="59.179688"/>
     <use xlink:href="#DejaVuSans-3d" x="90.966797"/>
     <use xlink:href="#DejaVuSans-20" x="174.755859"/>
     <use xlink:href="#DejaVuSans-30" x="206.542969"/>
     <use xlink:href="#DejaVuSans-2e" x="270.166016"/>
     <use xlink:href="#DejaVuSans-30" x="301.953125"/>
     <use xlink:href="#DejaVuSans-32" x="365.576172"/>
     <use xlink:href="#DejaVuSans-78" x="429.199219"/>
     <use xlink:href="#DejaVuSans-20" x="488.378906"/>
     <use xlink:href="#DejaVuSans-2b" x="520.166016"/>
     <use xlink:href="#DejaVuSans-20" x="603.955078"/>
     <use xlink:href="#DejaVuSans-30" x="635.742188"/>
     <use xlink:href="#DejaVuSans-2e" x="699.365234"/>
     <use xlink:href="#DejaVuSans-30" x="731.152344"/>
     <use xlink:href="#DejaVuSans-37" x="794.775391"/>
    </g>
   </g>
   <g id="text_18">
    <!-- r^2 = 0.12 -->
    <g transform="translate(55.237781 26.308304)scale(0.1 -0.1)">
     <defs>
      <path id="DejaVuSans-5e" d="M 2988 4666 
L 4684 2925 
L 4056 2925 
L 2681 4159 
L 1306 2925 
L 678 2925 
L 2375 4666 
L 2988 4666 
z
" transform="scale(0.015625)"/>
     </defs>
     <use xlink:href="#DejaVuSans-72"/>
     <use xlink:href="#DejaVuSans-5e" x="41.113281"/>
     <use xlink:href="#DejaVuSans-32" x="124.902344"/>
     <use xlink:href="#DejaVuSans-20" x="188.525391"/>
     <use xlink:href="#DejaVuSans-3d" x="220.3125"/>
     <use xlink:href="#DejaVuSans-20" x="304.101562"/>
     <use xlink:href="#DejaVuSans-30" x="335.888672"/>
     <use xlink:href="#DejaVuSans-2e" x="399.511719"/>
     <use xlink:href="#DejaVuSans-31" x="431.298828"/>
     <use xlink:href="#DejaVuSans-32" x="494.921875"/>
    </g>
   </g>
   <g id="text_19">
    <!-- n = 36 -->
    <g transform="translate(66.265906 34.017232)scale(0.1 -0.1)">
     <defs>
      <path id="DejaVuSans-36" d="M 2113 2584 
Q 1688 2584 1439 2293 
Q 1191 2003 1191 1497 
Q 1191 994 1439 701 
Q 1688 409 2113 409 
Q 2538 409 2786 701 
Q 3034 994 3034 1497 
Q 3034 2003 2786 2293 
Q 2538 2584 2113 2584 
z
M 3366 4563 
L 3366 3988 
Q 3128 4100 2886 4159 
Q 2644 4219 2406 4219 
Q 1781 4219 1451 3797 
Q 1122 3375 1075 2522 
Q 1259 2794 1537 2939 
Q 1816 3084 2150 3084 
Q 2853 3084 3261 2657 
Q 3669 2231 3669 1497 
Q 3669 778 3244 343 
Q 2819 -91 2113 -91 
Q 1303 -91 875 529 
Q 447 1150 447 2328 
Q 447 3434 972 4092 
Q 1497 4750 2381 4750 
Q 2619 4750 2861 4703 
Q 3103 4656 3366 4563 
z
" transform="scale(0.015625)"/>
     </defs>
     <use xlink:href="#DejaVuSans-6e"/>
     <use xlink:href="#DejaVuSans-20" x="63.378906"/>
     <use xlink:href="#DejaVuSans-3d" x="95.166016"/>
     <use xlink:href="#DejaVuSans-20" x="178.955078"/>
     <use xlink:href="#DejaVuSans-33" x="210.742188"/>
     <use xlink:href="#DejaVuSans-36" x="274.365234"/>
    </g>
   </g>
   <g id="text_20">
    <!-- IMM1Diff vs PercentGpA_transformed -->
    <g transform="translate(112.551562 40.675714)scale(0.12 -0.12)">
     <defs>
      <path id="DejaVuSans-76" d="M 191 3500 
L 800 3500 
L 1894 563 
L 2988 3500 
L 3597 3500 
L 2284 0 
L 1503 0 
L 191 3500 
z
" transform="scale(0.015625)"/>
     </defs>
     <use xlink:href="#DejaVuSans-49"/>
     <use xlink:href="#DejaVuSans-4d" x="29.492188"/>
     <use xlink:href="#DejaVuSans-4d" x="115.771484"/>
     <use xlink:href="#DejaVuSans-31" x="202.050781"/>
     <use xlink:href="#DejaVuSans-44" x="265.673828"/>
     <use xlink:href="#DejaVuSans-69" x="342.675781"/>
     <use xlink:href="#DejaVuSans-66" x="370.458984"/>
     <use xlink:href="#DejaVuSans-66" x="405.664062"/>
     <use xlink:href="#DejaVuSans-20" x="440.869141"/>
     <use xlink:href="#DejaVuSans-76" x="472.65625"/>
     <use xlink:href="#DejaVuSans-73" x="531.835938"/>
     <use xlink:href="#DejaVuSans-20" x="583.935547"/>
     <use xlink:href="#DejaVuSans-50" x="615.722656"/>
     <use xlink:href="#DejaVuSans-65" x="672.400391"/>
     <use xlink:href="#DejaVuSans-72" x="733.923828"/>
     <use xlink:href="#DejaVuSans-63" x="772.787109"/>
     <use xlink:href="#DejaVuSans-65" x="827.767578"/>
     <use xlink:href="#DejaVuSans-6e" x="889.291016"/>
     <use xlink:href="#DejaVuSans-74" x="952.669922"/>
     <use xlink:href="#DejaVuSans-47" x="991.878906"/>
     <use xlink:href="#DejaVuSans-70" x="1069.369141"/>
     <use xlink:href="#DejaVuSans-41" x="1132.845703"/>
     <use xlink:href="#DejaVuSans-5f" x="1201.253906"/>
     <use xlink:href="#DejaVuSans-74" x="1251.253906"/>
     <use xlink:href="#DejaVuSans-72" x="1290.462891"/>
     <use xlink:href="#DejaVuSans-61" x="1331.576172"/>
     <use xlink:href="#DejaVuSans-6e" x="1392.855469"/>
     <use xlink:href="#DejaVuSans-73" x="1456.234375"/>
     <use xlink:href="#DejaVuSans-66" x="1508.333984"/>
     <use xlink:href="#DejaVuSans-6f" x="1543.539062"/>
     <use xlink:href="#DejaVuSans-72" x="1604.720703"/>
     <use xlink:href="#DejaVuSans-6d" x="1644.083984"/>
     <use xlink:href="#DejaVuSans-65" x="1741.496094"/>
     <use xlink:href="#DejaVuSans-64" x="1803.019531"/>
    </g>
   </g>
   <g id="legend_1">
    <g id="patch_7">
     <path d="M 408.26 98.710089 
L 448.008438 98.710089 
Q 450.008438 98.710089 450.008438 96.710089 
L 450.008438 53.675714 
Q 450.008438 51.675714 448.008438 51.675714 
L 408.26 51.675714 
Q 406.26 51.675714 406.26 53.675714 
L 406.26 96.710089 
Q 406.26 98.710089 408.26 98.710089 
z
" style="fill: #ffffff; opacity: 0.8; stroke: #cccccc; stroke-linejoin: miter"/>
    </g>
    <g id="PathCollection_4">
     <g>
      <use xlink:href="#md8fcfe3752" x="420.26" y="60.649152" style="fill: #3cb371; stroke: #3cb371"/>
     </g>
    </g>
    <g id="text_21">
     <!-- G -->
     <g transform="translate(438.26 63.274152)scale(0.1 -0.1)">
      <use xlink:href="#DejaVuSans-47"/>
     </g>
    </g>
    <g id="PathCollection_5">
     <g>
      <use xlink:href="#m34fce7de0b" x="420.26" y="75.327277" style="fill: #ffdead; stroke: #ffdead"/>
     </g>
    </g>
    <g id="text_22">
     <!-- L -->
     <g transform="translate(438.26 77.952277)scale(0.1 -0.1)">
      <defs>
       <path id="DejaVuSans-4c" d="M 628 4666 
L 1259 4666 
L 1259 531 
L 3531 531 
L 3531 0 
L 628 0 
L 628 4666 
z
" transform="scale(0.015625)"/>
      </defs>
      <use xlink:href="#DejaVuSans-4c"/>
     </g>
    </g>
    <g id="PathCollection_6">
     <g>
      <use xlink:href="#md2f0aa5d1e" x="420.26" y="90.005402" style="fill: #483d8b; stroke: #483d8b"/>
     </g>
    </g>
    <g id="text_23">
     <!-- R -->
     <g transform="translate(438.26 92.630402)scale(0.1 -0.1)">
      <defs>
       <path id="DejaVuSans-52" d="M 2841 2188 
Q 3044 2119 3236 1894 
Q 3428 1669 3622 1275 
L 4263 0 
L 3584 0 
L 2988 1197 
Q 2756 1666 2539 1819 
Q 2322 1972 1947 1972 
L 1259 1972 
L 1259 0 
L 628 0 
L 628 4666 
L 2053 4666 
Q 2853 4666 3247 4331 
Q 3641 3997 3641 3322 
Q 3641 2881 3436 2590 
Q 3231 2300 2841 2188 
z
M 1259 4147 
L 1259 2491 
L 2053 2491 
Q 2509 2491 2742 2702 
Q 2975 2913 2975 3322 
Q 2975 3731 2742 3939 
Q 2509 4147 2053 4147 
L 1259 4147 
z
" transform="scale(0.015625)"/>
      </defs>
      <use xlink:href="#DejaVuSans-52"/>
     </g>
    </g>
   </g>
  </g>
 </g>
 <defs>
  <clipPath id="p8baf1c1626">
   <rect x="47.82125" y="46.675714" width="353.43875" height="256.964286"/>
  </clipPath>
 </defs>
</svg>
