<?xml version="1.0" encoding="utf-8" standalone="no"?>
<!DOCTYPE svg PUBLIC "-//W3C//DTD SVG 1.1//EN"
  "http://www.w3.org/Graphics/SVG/1.1/DTD/svg11.dtd">
<svg xmlns:xlink="http://www.w3.org/1999/xlink" width="460.8pt" height="345.6pt" viewBox="0 0 460.8 345.6" xmlns="http://www.w3.org/2000/svg" version="1.1">
 <metadata>
  <rdf:RDF xmlns:dc="http://purl.org/dc/elements/1.1/" xmlns:cc="http://creativecommons.org/ns#" xmlns:rdf="http://www.w3.org/1999/02/22-rdf-syntax-ns#">
   <cc:Work>
    <dc:type rdf:resource="http://purl.org/dc/dcmitype/StillImage"/>
    <dc:date>2024-08-04T21:33:51.285272</dc:date>
    <dc:format>image/svg+xml</dc:format>
    <dc:creator>
     <cc:Agent>
      <dc:title>Matplotlib v3.5.3, https://matplotlib.org/</dc:title>
     </cc:Agent>
    </dc:creator>
   </cc:Work>
  </rdf:RDF>
 </metadata>
 <defs>
  <style type="text/css">*{stroke-linejoin: round; stroke-linecap: butt}</style>
 </defs>
 <g id="figure_1">
  <g id="patch_1">
   <path d="M 0 345.6 
L 460.8 345.6 
L 460.8 0 
L 0 0 
z
" style="fill: #ffffff"/>
  </g>
  <g id="axes_1">
   <g id="patch_2">
    <path d="M 45.83 303.53875 
L 450 303.53875 
L 450 215.743432 
L 45.83 215.743432 
z
" style="fill: #ffffff"/>
   </g>
   <g id="matplotlib.axis_1">
    <g id="xtick_1">
     <g id="text_1">
      <!-- AI -->
      <g style="fill: #262626" transform="translate(142.148281 317.696562)scale(0.1 -0.1)">
       <defs>
        <path id="ArialMT-41" d="M -9 0 
L 1750 4581 
L 2403 4581 
L 4278 0 
L 3588 0 
L 3053 1388 
L 1138 1388 
L 634 0 
L -9 0 
z
M 1313 1881 
L 2866 1881 
L 2388 3150 
Q 2169 3728 2063 4100 
Q 1975 3659 1816 3225 
L 1313 1881 
z
" transform="scale(0.015625)"/>
        <path id="ArialMT-49" d="M 597 0 
L 597 4581 
L 1203 4581 
L 1203 0 
L 597 0 
z
" transform="scale(0.015625)"/>
       </defs>
       <use xlink:href="#ArialMT-41"/>
       <use xlink:href="#ArialMT-49" x="66.699219"/>
      </g>
     </g>
    </g>
    <g id="xtick_2">
     <g id="text_2">
      <!-- TI -->
      <g style="fill: #262626" transform="translate(344.514531 317.696562)scale(0.1 -0.1)">
       <defs>
        <path id="ArialMT-54" d="M 1659 0 
L 1659 4041 
L 150 4041 
L 150 4581 
L 3781 4581 
L 3781 4041 
L 2266 4041 
L 2266 0 
L 1659 0 
z
" transform="scale(0.015625)"/>
       </defs>
       <use xlink:href="#ArialMT-54"/>
       <use xlink:href="#ArialMT-49" x="61.083984"/>
      </g>
     </g>
    </g>
    <g id="text_3">
     <!-- WT_MUT -->
     <g style="fill: #262626" transform="translate(226.531406 330.841875)scale(0.1 -0.1)">
      <defs>
       <path id="ArialMT-57" d="M 1294 0 
L 78 4581 
L 700 4581 
L 1397 1578 
Q 1509 1106 1591 641 
Q 1766 1375 1797 1488 
L 2669 4581 
L 3400 4581 
L 4056 2263 
Q 4303 1400 4413 641 
Q 4500 1075 4641 1638 
L 5359 4581 
L 5969 4581 
L 4713 0 
L 4128 0 
L 3163 3491 
Q 3041 3928 3019 4028 
Q 2947 3713 2884 3491 
L 1913 0 
L 1294 0 
z
" transform="scale(0.015625)"/>
       <path id="ArialMT-5f" d="M -97 -1272 
L -97 -866 
L 3631 -866 
L 3631 -1272 
L -97 -1272 
z
" transform="scale(0.015625)"/>
       <path id="ArialMT-4d" d="M 475 0 
L 475 4581 
L 1388 4581 
L 2472 1338 
Q 2622 884 2691 659 
Q 2769 909 2934 1394 
L 4031 4581 
L 4847 4581 
L 4847 0 
L 4263 0 
L 4263 3834 
L 2931 0 
L 2384 0 
L 1059 3900 
L 1059 0 
L 475 0 
z
" transform="scale(0.015625)"/>
       <path id="ArialMT-55" d="M 3500 4581 
L 4106 4581 
L 4106 1934 
Q 4106 1244 3950 837 
Q 3794 431 3386 176 
Q 2978 -78 2316 -78 
Q 1672 -78 1262 144 
Q 853 366 678 786 
Q 503 1206 503 1934 
L 503 4581 
L 1109 4581 
L 1109 1938 
Q 1109 1341 1220 1058 
Q 1331 775 1601 622 
Q 1872 469 2263 469 
Q 2931 469 3215 772 
Q 3500 1075 3500 1938 
L 3500 4581 
z
" transform="scale(0.015625)"/>
      </defs>
      <use xlink:href="#ArialMT-57"/>
      <use xlink:href="#ArialMT-54" x="94.384766"/>
      <use xlink:href="#ArialMT-5f" x="155.46875"/>
      <use xlink:href="#ArialMT-4d" x="211.083984"/>
      <use xlink:href="#ArialMT-55" x="294.384766"/>
      <use xlink:href="#ArialMT-54" x="366.601562"/>
     </g>
    </g>
   </g>
   <g id="matplotlib.axis_2">
    <g id="ytick_1">
     <g id="line2d_1">
      <path d="M 45.83 303.53875 
L 450 303.53875 
" clip-path="url(#p27797e03bc)" style="fill: none; stroke: #cccccc; stroke-width: 0.8; stroke-linecap: round"/>
     </g>
     <g id="text_4">
      <!-- 0.00 -->
      <g style="fill: #262626" transform="translate(19.369063 307.117656)scale(0.1 -0.1)">
       <defs>
        <path id="ArialMT-30" d="M 266 2259 
Q 266 3072 433 3567 
Q 600 4063 929 4331 
Q 1259 4600 1759 4600 
Q 2128 4600 2406 4451 
Q 2684 4303 2865 4023 
Q 3047 3744 3150 3342 
Q 3253 2941 3253 2259 
Q 3253 1453 3087 958 
Q 2922 463 2592 192 
Q 2263 -78 1759 -78 
Q 1097 -78 719 397 
Q 266 969 266 2259 
z
M 844 2259 
Q 844 1131 1108 757 
Q 1372 384 1759 384 
Q 2147 384 2411 759 
Q 2675 1134 2675 2259 
Q 2675 3391 2411 3762 
Q 2147 4134 1753 4134 
Q 1366 4134 1134 3806 
Q 844 3388 844 2259 
z
" transform="scale(0.015625)"/>
        <path id="ArialMT-2e" d="M 581 0 
L 581 641 
L 1222 641 
L 1222 0 
L 581 0 
z
" transform="scale(0.015625)"/>
       </defs>
       <use xlink:href="#ArialMT-30"/>
       <use xlink:href="#ArialMT-2e" x="55.615234"/>
       <use xlink:href="#ArialMT-30" x="83.398438"/>
       <use xlink:href="#ArialMT-30" x="139.013672"/>
      </g>
     </g>
    </g>
    <g id="ytick_2">
     <g id="line2d_2">
      <path d="M 45.83 281.283501 
L 450 281.283501 
" clip-path="url(#p27797e03bc)" style="fill: none; stroke: #cccccc; stroke-width: 0.8; stroke-linecap: round"/>
     </g>
     <g id="text_5">
      <!-- 0.25 -->
      <g style="fill: #262626" transform="translate(19.369063 284.862408)scale(0.1 -0.1)">
       <defs>
        <path id="ArialMT-32" d="M 3222 541 
L 3222 0 
L 194 0 
Q 188 203 259 391 
Q 375 700 629 1000 
Q 884 1300 1366 1694 
Q 2113 2306 2375 2664 
Q 2638 3022 2638 3341 
Q 2638 3675 2398 3904 
Q 2159 4134 1775 4134 
Q 1369 4134 1125 3890 
Q 881 3647 878 3216 
L 300 3275 
Q 359 3922 746 4261 
Q 1134 4600 1788 4600 
Q 2447 4600 2831 4234 
Q 3216 3869 3216 3328 
Q 3216 3053 3103 2787 
Q 2991 2522 2730 2228 
Q 2469 1934 1863 1422 
Q 1356 997 1212 845 
Q 1069 694 975 541 
L 3222 541 
z
" transform="scale(0.015625)"/>
        <path id="ArialMT-35" d="M 266 1200 
L 856 1250 
Q 922 819 1161 601 
Q 1400 384 1738 384 
Q 2144 384 2425 690 
Q 2706 997 2706 1503 
Q 2706 1984 2436 2262 
Q 2166 2541 1728 2541 
Q 1456 2541 1237 2417 
Q 1019 2294 894 2097 
L 366 2166 
L 809 4519 
L 3088 4519 
L 3088 3981 
L 1259 3981 
L 1013 2750 
Q 1425 3038 1878 3038 
Q 2478 3038 2890 2622 
Q 3303 2206 3303 1553 
Q 3303 931 2941 478 
Q 2500 -78 1738 -78 
Q 1113 -78 717 272 
Q 322 622 266 1200 
z
" transform="scale(0.015625)"/>
       </defs>
       <use xlink:href="#ArialMT-30"/>
       <use xlink:href="#ArialMT-2e" x="55.615234"/>
       <use xlink:href="#ArialMT-32" x="83.398438"/>
       <use xlink:href="#ArialMT-35" x="139.013672"/>
      </g>
     </g>
    </g>
    <g id="ytick_3">
     <g id="line2d_3">
      <path d="M 45.83 259.028253 
L 450 259.028253 
" clip-path="url(#p27797e03bc)" style="fill: none; stroke: #cccccc; stroke-width: 0.8; stroke-linecap: round"/>
     </g>
     <g id="text_6">
      <!-- 0.50 -->
      <g style="fill: #262626" transform="translate(19.369063 262.607159)scale(0.1 -0.1)">
       <use xlink:href="#ArialMT-30"/>
       <use xlink:href="#ArialMT-2e" x="55.615234"/>
       <use xlink:href="#ArialMT-35" x="83.398438"/>
       <use xlink:href="#ArialMT-30" x="139.013672"/>
      </g>
     </g>
    </g>
    <g id="ytick_4">
     <g id="line2d_4">
      <path d="M 45.83 236.773004 
L 450 236.773004 
" clip-path="url(#p27797e03bc)" style="fill: none; stroke: #cccccc; stroke-width: 0.8; stroke-linecap: round"/>
     </g>
     <g id="text_7">
      <!-- 0.75 -->
      <g style="fill: #262626" transform="translate(19.369063 240.35191)scale(0.1 -0.1)">
       <defs>
        <path id="ArialMT-37" d="M 303 3981 
L 303 4522 
L 3269 4522 
L 3269 4084 
Q 2831 3619 2401 2847 
Q 1972 2075 1738 1259 
Q 1569 684 1522 0 
L 944 0 
Q 953 541 1156 1306 
Q 1359 2072 1739 2783 
Q 2119 3494 2547 3981 
L 303 3981 
z
" transform="scale(0.015625)"/>
       </defs>
       <use xlink:href="#ArialMT-30"/>
       <use xlink:href="#ArialMT-2e" x="55.615234"/>
       <use xlink:href="#ArialMT-37" x="83.398438"/>
       <use xlink:href="#ArialMT-35" x="139.013672"/>
      </g>
     </g>
    </g>
    <g id="text_8">
     <!-- PercentGpA -->
     <g style="fill: #262626" transform="translate(13.381563 286.876247)rotate(-90)scale(0.1 -0.1)">
      <defs>
       <path id="ArialMT-50" d="M 494 0 
L 494 4581 
L 2222 4581 
Q 2678 4581 2919 4538 
Q 3256 4481 3484 4323 
Q 3713 4166 3852 3881 
Q 3991 3597 3991 3256 
Q 3991 2672 3619 2267 
Q 3247 1863 2275 1863 
L 1100 1863 
L 1100 0 
L 494 0 
z
M 1100 2403 
L 2284 2403 
Q 2872 2403 3119 2622 
Q 3366 2841 3366 3238 
Q 3366 3525 3220 3729 
Q 3075 3934 2838 4000 
Q 2684 4041 2272 4041 
L 1100 4041 
L 1100 2403 
z
" transform="scale(0.015625)"/>
       <path id="ArialMT-65" d="M 2694 1069 
L 3275 997 
Q 3138 488 2766 206 
Q 2394 -75 1816 -75 
Q 1088 -75 661 373 
Q 234 822 234 1631 
Q 234 2469 665 2931 
Q 1097 3394 1784 3394 
Q 2450 3394 2872 2941 
Q 3294 2488 3294 1666 
Q 3294 1616 3291 1516 
L 816 1516 
Q 847 969 1125 678 
Q 1403 388 1819 388 
Q 2128 388 2347 550 
Q 2566 713 2694 1069 
z
M 847 1978 
L 2700 1978 
Q 2663 2397 2488 2606 
Q 2219 2931 1791 2931 
Q 1403 2931 1139 2672 
Q 875 2413 847 1978 
z
" transform="scale(0.015625)"/>
       <path id="ArialMT-72" d="M 416 0 
L 416 3319 
L 922 3319 
L 922 2816 
Q 1116 3169 1280 3281 
Q 1444 3394 1641 3394 
Q 1925 3394 2219 3213 
L 2025 2691 
Q 1819 2813 1613 2813 
Q 1428 2813 1281 2702 
Q 1134 2591 1072 2394 
Q 978 2094 978 1738 
L 978 0 
L 416 0 
z
" transform="scale(0.015625)"/>
       <path id="ArialMT-63" d="M 2588 1216 
L 3141 1144 
Q 3050 572 2676 248 
Q 2303 -75 1759 -75 
Q 1078 -75 664 370 
Q 250 816 250 1647 
Q 250 2184 428 2587 
Q 606 2991 970 3192 
Q 1334 3394 1763 3394 
Q 2303 3394 2647 3120 
Q 2991 2847 3088 2344 
L 2541 2259 
Q 2463 2594 2264 2762 
Q 2066 2931 1784 2931 
Q 1359 2931 1093 2626 
Q 828 2322 828 1663 
Q 828 994 1084 691 
Q 1341 388 1753 388 
Q 2084 388 2306 591 
Q 2528 794 2588 1216 
z
" transform="scale(0.015625)"/>
       <path id="ArialMT-6e" d="M 422 0 
L 422 3319 
L 928 3319 
L 928 2847 
Q 1294 3394 1984 3394 
Q 2284 3394 2536 3286 
Q 2788 3178 2913 3003 
Q 3038 2828 3088 2588 
Q 3119 2431 3119 2041 
L 3119 0 
L 2556 0 
L 2556 2019 
Q 2556 2363 2490 2533 
Q 2425 2703 2258 2804 
Q 2091 2906 1866 2906 
Q 1506 2906 1245 2678 
Q 984 2450 984 1813 
L 984 0 
L 422 0 
z
" transform="scale(0.015625)"/>
       <path id="ArialMT-74" d="M 1650 503 
L 1731 6 
Q 1494 -44 1306 -44 
Q 1000 -44 831 53 
Q 663 150 594 308 
Q 525 466 525 972 
L 525 2881 
L 113 2881 
L 113 3319 
L 525 3319 
L 525 4141 
L 1084 4478 
L 1084 3319 
L 1650 3319 
L 1650 2881 
L 1084 2881 
L 1084 941 
Q 1084 700 1114 631 
Q 1144 563 1211 522 
Q 1278 481 1403 481 
Q 1497 481 1650 503 
z
" transform="scale(0.015625)"/>
       <path id="ArialMT-47" d="M 2638 1797 
L 2638 2334 
L 4578 2338 
L 4578 638 
Q 4131 281 3656 101 
Q 3181 -78 2681 -78 
Q 2006 -78 1454 211 
Q 903 500 622 1047 
Q 341 1594 341 2269 
Q 341 2938 620 3517 
Q 900 4097 1425 4378 
Q 1950 4659 2634 4659 
Q 3131 4659 3532 4498 
Q 3934 4338 4162 4050 
Q 4391 3763 4509 3300 
L 3963 3150 
Q 3859 3500 3706 3700 
Q 3553 3900 3268 4020 
Q 2984 4141 2638 4141 
Q 2222 4141 1919 4014 
Q 1616 3888 1430 3681 
Q 1244 3475 1141 3228 
Q 966 2803 966 2306 
Q 966 1694 1177 1281 
Q 1388 869 1791 669 
Q 2194 469 2647 469 
Q 3041 469 3416 620 
Q 3791 772 3984 944 
L 3984 1797 
L 2638 1797 
z
" transform="scale(0.015625)"/>
       <path id="ArialMT-70" d="M 422 -1272 
L 422 3319 
L 934 3319 
L 934 2888 
Q 1116 3141 1344 3267 
Q 1572 3394 1897 3394 
Q 2322 3394 2647 3175 
Q 2972 2956 3137 2557 
Q 3303 2159 3303 1684 
Q 3303 1175 3120 767 
Q 2938 359 2589 142 
Q 2241 -75 1856 -75 
Q 1575 -75 1351 44 
Q 1128 163 984 344 
L 984 -1272 
L 422 -1272 
z
M 931 1641 
Q 931 1000 1190 694 
Q 1450 388 1819 388 
Q 2194 388 2461 705 
Q 2728 1022 2728 1688 
Q 2728 2322 2467 2637 
Q 2206 2953 1844 2953 
Q 1484 2953 1207 2617 
Q 931 2281 931 1641 
z
" transform="scale(0.015625)"/>
      </defs>
      <use xlink:href="#ArialMT-50"/>
      <use xlink:href="#ArialMT-65" x="66.699219"/>
      <use xlink:href="#ArialMT-72" x="122.314453"/>
      <use xlink:href="#ArialMT-63" x="155.615234"/>
      <use xlink:href="#ArialMT-65" x="205.615234"/>
      <use xlink:href="#ArialMT-6e" x="261.230469"/>
      <use xlink:href="#ArialMT-74" x="316.845703"/>
      <use xlink:href="#ArialMT-47" x="344.628906"/>
      <use xlink:href="#ArialMT-70" x="422.412109"/>
      <use xlink:href="#ArialMT-41" x="478.027344"/>
     </g>
    </g>
   </g>
   <g id="patch_3">
    <path d="M 66.84684 285.965613 
L 146.06416 285.965613 
L 146.06416 265.188177 
L 66.84684 265.188177 
L 66.84684 285.965613 
z
" clip-path="url(#p27797e03bc)" style="fill: #ecf2ec; stroke: #262626; stroke-width: 1.5; stroke-linejoin: miter"/>
   </g>
   <g id="patch_4">
    <path d="M 147.68084 263.071859 
L 226.89816 263.071859 
L 226.89816 250.401881 
L 147.68084 250.401881 
L 147.68084 263.071859 
z
" clip-path="url(#p27797e03bc)" style="fill: #107010; stroke: #262626; stroke-width: 1.5; stroke-linejoin: miter"/>
   </g>
   <g id="patch_5">
    <path d="M 268.93184 285.150143 
L 348.14916 285.150143 
L 348.14916 279.113761 
L 268.93184 279.113761 
L 268.93184 285.150143 
z
" clip-path="url(#p27797e03bc)" style="fill: #ecf2ec; stroke: #262626; stroke-width: 1.5; stroke-linejoin: miter"/>
   </g>
   <g id="patch_6">
    <path d="M 349.76584 259.245203 
L 428.98316 259.245203 
L 428.98316 249.25326 
L 349.76584 249.25326 
L 349.76584 259.245203 
z
" clip-path="url(#p27797e03bc)" style="fill: #107010; stroke: #262626; stroke-width: 1.5; stroke-linejoin: miter"/>
   </g>
   <g id="patch_7">
    <path d="M 146.8725 303.53875 
L 146.8725 303.53875 
L 146.8725 303.53875 
L 146.8725 303.53875 
z
" clip-path="url(#p27797e03bc)" style="fill: #ecf2ec; stroke: #262626; stroke-width: 0.75; stroke-linejoin: miter"/>
   </g>
   <g id="patch_8">
    <path d="M 146.8725 303.53875 
L 146.8725 303.53875 
L 146.8725 303.53875 
L 146.8725 303.53875 
z
" clip-path="url(#p27797e03bc)" style="fill: #107010; stroke: #262626; stroke-width: 0.75; stroke-linejoin: miter"/>
   </g>
   <g id="PathCollection_1"/>
   <g id="PathCollection_2"/>
   <g id="line2d_5">
    <path d="M 106.4555 285.965613 
L 106.4555 292.629256 
" clip-path="url(#p27797e03bc)" style="fill: none; stroke: #262626; stroke-width: 1.5; stroke-linecap: round"/>
   </g>
   <g id="line2d_6">
    <path d="M 106.4555 265.188177 
L 106.4555 254.675534 
" clip-path="url(#p27797e03bc)" style="fill: none; stroke: #262626; stroke-width: 1.5; stroke-linecap: round"/>
   </g>
   <g id="line2d_7">
    <path d="M 86.65117 292.629256 
L 126.25983 292.629256 
" clip-path="url(#p27797e03bc)" style="fill: none; stroke: #262626; stroke-width: 1.5; stroke-linecap: round"/>
   </g>
   <g id="line2d_8">
    <path d="M 86.65117 254.675534 
L 126.25983 254.675534 
" clip-path="url(#p27797e03bc)" style="fill: none; stroke: #262626; stroke-width: 1.5; stroke-linecap: round"/>
   </g>
   <g id="line2d_9"/>
   <g id="line2d_10">
    <path d="M 187.2895 263.071859 
L 187.2895 264.331319 
" clip-path="url(#p27797e03bc)" style="fill: none; stroke: #262626; stroke-width: 1.5; stroke-linecap: round"/>
   </g>
   <g id="line2d_11">
    <path d="M 187.2895 250.401881 
L 187.2895 236.760639 
" clip-path="url(#p27797e03bc)" style="fill: none; stroke: #262626; stroke-width: 1.5; stroke-linecap: round"/>
   </g>
   <g id="line2d_12">
    <path d="M 167.48517 264.331319 
L 207.09383 264.331319 
" clip-path="url(#p27797e03bc)" style="fill: none; stroke: #262626; stroke-width: 1.5; stroke-linecap: round"/>
   </g>
   <g id="line2d_13">
    <path d="M 167.48517 236.760639 
L 207.09383 236.760639 
" clip-path="url(#p27797e03bc)" style="fill: none; stroke: #262626; stroke-width: 1.5; stroke-linecap: round"/>
   </g>
   <g id="line2d_14"/>
   <g id="line2d_15">
    <path d="M 308.5405 285.150143 
L 308.5405 285.70377 
" clip-path="url(#p27797e03bc)" style="fill: none; stroke: #262626; stroke-width: 1.5; stroke-linecap: round"/>
   </g>
   <g id="line2d_16">
    <path d="M 308.5405 279.113761 
L 308.5405 278.114689 
" clip-path="url(#p27797e03bc)" style="fill: none; stroke: #262626; stroke-width: 1.5; stroke-linecap: round"/>
   </g>
   <g id="line2d_17">
    <path d="M 288.73617 285.70377 
L 328.34483 285.70377 
" clip-path="url(#p27797e03bc)" style="fill: none; stroke: #262626; stroke-width: 1.5; stroke-linecap: round"/>
   </g>
   <g id="line2d_18">
    <path d="M 288.73617 278.114689 
L 328.34483 278.114689 
" clip-path="url(#p27797e03bc)" style="fill: none; stroke: #262626; stroke-width: 1.5; stroke-linecap: round"/>
   </g>
   <g id="line2d_19">
    <defs>
     <path id="m1179b2d58a" d="M -0 1.414214 
L 0.848528 0 
L 0 -1.414214 
L -0.848528 -0 
z
" style="stroke: #262626; stroke-linejoin: miter"/>
    </defs>
    <g clip-path="url(#p27797e03bc)">
     <use xlink:href="#m1179b2d58a" x="308.5405" y="268.1189" style="fill: #262626; stroke: #262626; stroke-linejoin: miter"/>
    </g>
   </g>
   <g id="line2d_20">
    <path d="M 389.3745 259.245203 
L 389.3745 262.948868 
" clip-path="url(#p27797e03bc)" style="fill: none; stroke: #262626; stroke-width: 1.5; stroke-linecap: round"/>
   </g>
   <g id="line2d_21">
    <path d="M 389.3745 249.25326 
L 389.3745 249.25326 
" clip-path="url(#p27797e03bc)" style="fill: none; stroke: #262626; stroke-width: 1.5; stroke-linecap: round"/>
   </g>
   <g id="line2d_22">
    <path d="M 369.57017 262.948868 
L 409.17883 262.948868 
" clip-path="url(#p27797e03bc)" style="fill: none; stroke: #262626; stroke-width: 1.5; stroke-linecap: round"/>
   </g>
   <g id="line2d_23">
    <path d="M 369.57017 249.25326 
L 409.17883 249.25326 
" clip-path="url(#p27797e03bc)" style="fill: none; stroke: #262626; stroke-width: 1.5; stroke-linecap: round"/>
   </g>
   <g id="line2d_24">
    <g clip-path="url(#p27797e03bc)">
     <use xlink:href="#m1179b2d58a" x="389.3745" y="223.724825" style="fill: #262626; stroke: #262626; stroke-linejoin: miter"/>
    </g>
   </g>
   <g id="line2d_25">
    <path d="M 66.84684 270.383066 
L 146.06416 270.383066 
" clip-path="url(#p27797e03bc)" style="fill: none; stroke: #262626; stroke-width: 1.5; stroke-linecap: round"/>
   </g>
   <g id="line2d_26">
    <path d="M 147.68084 260.451678 
L 226.89816 260.451678 
" clip-path="url(#p27797e03bc)" style="fill: none; stroke: #262626; stroke-width: 1.5; stroke-linecap: round"/>
   </g>
   <g id="line2d_27">
    <path d="M 268.93184 283.304921 
L 348.14916 283.304921 
" clip-path="url(#p27797e03bc)" style="fill: none; stroke: #262626; stroke-width: 1.5; stroke-linecap: round"/>
   </g>
   <g id="line2d_28">
    <path d="M 349.76584 251.13229 
L 428.98316 251.13229 
" clip-path="url(#p27797e03bc)" style="fill: none; stroke: #262626; stroke-width: 1.5; stroke-linecap: round"/>
   </g>
   <g id="patch_9">
    <path d="M 45.83 303.53875 
L 45.83 215.743432 
" style="fill: none; stroke: #cccccc; stroke-width: 0.8; stroke-linejoin: miter; stroke-linecap: square"/>
   </g>
   <g id="patch_10">
    <path d="M 450 303.53875 
L 450 215.743432 
" style="fill: none; stroke: #cccccc; stroke-width: 0.8; stroke-linejoin: miter; stroke-linecap: square"/>
   </g>
   <g id="patch_11">
    <path d="M 45.83 303.53875 
L 450 303.53875 
" style="fill: none; stroke: #cccccc; stroke-width: 0.8; stroke-linejoin: miter; stroke-linecap: square"/>
   </g>
   <g id="patch_12">
    <path d="M 45.83 215.743432 
L 450 215.743432 
" style="fill: none; stroke: #cccccc; stroke-width: 0.8; stroke-linejoin: miter; stroke-linecap: square"/>
   </g>
   <g id="PathCollection_3">
    <defs>
     <path id="C0_0_4bcf6f83e3" d="M 0 1 
C 0.265203 1 0.51958 0.894634 0.707107 0.707107 
C 0.894634 0.51958 1 0.265203 1 -0 
C 1 -0.265203 0.894634 -0.51958 0.707107 -0.707107 
C 0.51958 -0.894634 0.265203 -1 0 -1 
C -0.265203 -1 -0.51958 -0.894634 -0.707107 -0.707107 
C -0.894634 -0.51958 -1 -0.265203 -1 0 
C -1 0.265203 -0.894634 0.51958 -0.707107 0.707107 
C -0.51958 0.894634 -0.265203 1 0 1 
z
"/>
    </defs>
    <g clip-path="url(#p27797e03bc)">
     <use xlink:href="#C0_0_4bcf6f83e3" x="99.968559" y="288.768294" style="fill: #262626"/>
    </g>
    <g clip-path="url(#p27797e03bc)">
     <use xlink:href="#C0_0_4bcf6f83e3" x="108.272639" y="292.629256" style="fill: #262626"/>
    </g>
    <g clip-path="url(#p27797e03bc)">
     <use xlink:href="#C0_0_4bcf6f83e3" x="104.930991" y="285.357747" style="fill: #262626"/>
    </g>
    <g clip-path="url(#p27797e03bc)">
     <use xlink:href="#C0_0_4bcf6f83e3" x="108.330034" y="267.949265" style="fill: #262626"/>
    </g>
    <g clip-path="url(#p27797e03bc)">
     <use xlink:href="#C0_0_4bcf6f83e3" x="99.849517" y="266.724194" style="fill: #262626"/>
    </g>
    <g clip-path="url(#p27797e03bc)">
     <use xlink:href="#C0_0_4bcf6f83e3" x="97.475354" y="254.675534" style="fill: #262626"/>
    </g>
    <g clip-path="url(#p27797e03bc)">
     <use xlink:href="#C0_0_4bcf6f83e3" x="97.92736" y="286.573479" style="fill: #262626"/>
    </g>
    <g clip-path="url(#p27797e03bc)">
     <use xlink:href="#C0_0_4bcf6f83e3" x="111.175844" y="270.383066" style="fill: #262626"/>
    </g>
    <g clip-path="url(#p27797e03bc)">
     <use xlink:href="#C0_0_4bcf6f83e3" x="96.448855" y="263.65216" style="fill: #262626"/>
    </g>
    <g clip-path="url(#p27797e03bc)">
     <use xlink:href="#C0_0_4bcf6f83e3" x="99.457355" y="261.537016" style="fill: #262626"/>
    </g>
    <g clip-path="url(#p27797e03bc)">
     <use xlink:href="#C0_0_4bcf6f83e3" x="101.845973" y="284.070876" style="fill: #262626"/>
    </g>
   </g>
   <g id="PathCollection_4">
    <defs>
     <path id="C1_0_66cde1c4a0" d="M 0 1 
C 0.265203 1 0.51958 0.894634 0.707107 0.707107 
C 0.894634 0.51958 1 0.265203 1 -0 
C 1 -0.265203 0.894634 -0.51958 0.707107 -0.707107 
C 0.51958 -0.894634 0.265203 -1 0 -1 
C -0.265203 -1 -0.51958 -0.894634 -0.707107 -0.707107 
C -0.894634 -0.51958 -1 -0.265203 -1 0 
C -1 0.265203 -0.894634 0.51958 -0.707107 0.707107 
C -0.51958 0.894634 -0.265203 1 0 1 
z
"/>
    </defs>
    <g clip-path="url(#p27797e03bc)">
     <use xlink:href="#C1_0_66cde1c4a0" x="181.108649" y="263.835556"/>
    </g>
    <g clip-path="url(#p27797e03bc)">
     <use xlink:href="#C1_0_66cde1c4a0" x="182.996301" y="260.12259"/>
    </g>
    <g clip-path="url(#p27797e03bc)">
     <use xlink:href="#C1_0_66cde1c4a0" x="185.36396" y="236.760639"/>
    </g>
    <g clip-path="url(#p27797e03bc)">
     <use xlink:href="#C1_0_66cde1c4a0" x="180.129072" y="264.331319"/>
    </g>
    <g clip-path="url(#p27797e03bc)">
     <use xlink:href="#C1_0_66cde1c4a0" x="193.839486" y="260.780767"/>
    </g>
    <g clip-path="url(#p27797e03bc)">
     <use xlink:href="#C1_0_66cde1c4a0" x="177.562186" y="247.161645"/>
    </g>
   </g>
   <g id="PathCollection_5">
    <defs>
     <path id="C2_0_1cb45b7cc4" d="M 0 1 
C 0.265203 1 0.51958 0.894634 0.707107 0.707107 
C 0.894634 0.51958 1 0.265203 1 -0 
C 1 -0.265203 0.894634 -0.51958 0.707107 -0.707107 
C 0.51958 -0.894634 0.265203 -1 0 -1 
C -0.265203 -1 -0.51958 -0.894634 -0.707107 -0.707107 
C -0.894634 -0.51958 -1 -0.265203 -1 0 
C -1 0.265203 -0.894634 0.51958 -0.707107 0.707107 
C -0.51958 0.894634 -0.265203 1 0 1 
z
"/>
    </defs>
    <g clip-path="url(#p27797e03bc)">
     <use xlink:href="#C2_0_1cb45b7cc4" x="303.290829" y="284.498864" style="fill: #262626"/>
    </g>
    <g clip-path="url(#p27797e03bc)">
     <use xlink:href="#C2_0_1cb45b7cc4" x="315.48222" y="282.110977" style="fill: #262626"/>
    </g>
    <g clip-path="url(#p27797e03bc)">
     <use xlink:href="#C2_0_1cb45b7cc4" x="299.834574" y="285.70377" style="fill: #262626"/>
    </g>
    <g clip-path="url(#p27797e03bc)">
     <use xlink:href="#C2_0_1cb45b7cc4" x="312.513846" y="285.367236" style="fill: #262626"/>
    </g>
    <g clip-path="url(#p27797e03bc)">
     <use xlink:href="#C2_0_1cb45b7cc4" x="303.016179" y="268.1189" style="fill: #262626"/>
    </g>
    <g clip-path="url(#p27797e03bc)">
     <use xlink:href="#C2_0_1cb45b7cc4" x="308.452374" y="278.114689" style="fill: #262626"/>
    </g>
   </g>
   <g id="PathCollection_6">
    <defs>
     <path id="C3_0_a8d51e0012" d="M 0 1 
C 0.265203 1 0.51958 0.894634 0.707107 0.707107 
C 0.894634 0.51958 1 0.265203 1 -0 
C 1 -0.265203 0.894634 -0.51958 0.707107 -0.707107 
C 0.51958 -0.894634 0.265203 -1 0 -1 
C -0.265203 -1 -0.51958 -0.894634 -0.707107 -0.707107 
C -0.894634 -0.51958 -1 -0.265203 -1 0 
C -1 0.265203 -0.894634 0.51958 -0.707107 0.707107 
C -0.51958 0.894634 -0.265203 1 0 1 
z
"/>
    </defs>
    <g clip-path="url(#p27797e03bc)">
     <use xlink:href="#C3_0_a8d51e0012" x="389.335527" y="259.245203"/>
    </g>
    <g clip-path="url(#p27797e03bc)">
     <use xlink:href="#C3_0_a8d51e0012" x="386.262856" y="249.25326"/>
    </g>
    <g clip-path="url(#p27797e03bc)">
     <use xlink:href="#C3_0_a8d51e0012" x="383.284657" y="251.13229"/>
    </g>
    <g clip-path="url(#p27797e03bc)">
     <use xlink:href="#C3_0_a8d51e0012" x="383.142873" y="262.948868"/>
    </g>
    <g clip-path="url(#p27797e03bc)">
     <use xlink:href="#C3_0_a8d51e0012" x="393.971892" y="223.724825"/>
    </g>
   </g>
   <g id="text_9">
    <!-- 11 -->
    <g style="fill: #262626" transform="translate(116.55975 156.654109)scale(0.1 -0.1)">
     <defs>
      <path id="ArialMT-31" d="M 2384 0 
L 1822 0 
L 1822 3584 
Q 1619 3391 1289 3197 
Q 959 3003 697 2906 
L 697 3450 
Q 1169 3672 1522 3987 
Q 1875 4303 2022 4600 
L 2384 4600 
L 2384 0 
z
" transform="scale(0.015625)"/>
     </defs>
     <use xlink:href="#ArialMT-31"/>
     <use xlink:href="#ArialMT-31" x="48.240234"/>
    </g>
   </g>
   <g id="text_10">
    <!-- p=0.007905152580706853 -->
    <g style="fill: #262626" transform="translate(68.62475 250.224485)scale(0.08 -0.08)">
     <defs>
      <path id="ArialMT-3d" d="M 3381 2694 
L 356 2694 
L 356 3219 
L 3381 3219 
L 3381 2694 
z
M 3381 1303 
L 356 1303 
L 356 1828 
L 3381 1828 
L 3381 1303 
z
" transform="scale(0.015625)"/>
      <path id="ArialMT-39" d="M 350 1059 
L 891 1109 
Q 959 728 1153 556 
Q 1347 384 1650 384 
Q 1909 384 2104 503 
Q 2300 622 2425 820 
Q 2550 1019 2634 1356 
Q 2719 1694 2719 2044 
Q 2719 2081 2716 2156 
Q 2547 1888 2255 1720 
Q 1963 1553 1622 1553 
Q 1053 1553 659 1965 
Q 266 2378 266 3053 
Q 266 3750 677 4175 
Q 1088 4600 1706 4600 
Q 2153 4600 2523 4359 
Q 2894 4119 3086 3673 
Q 3278 3228 3278 2384 
Q 3278 1506 3087 986 
Q 2897 466 2520 194 
Q 2144 -78 1638 -78 
Q 1100 -78 759 220 
Q 419 519 350 1059 
z
M 2653 3081 
Q 2653 3566 2395 3850 
Q 2138 4134 1775 4134 
Q 1400 4134 1122 3828 
Q 844 3522 844 3034 
Q 844 2597 1108 2323 
Q 1372 2050 1759 2050 
Q 2150 2050 2401 2323 
Q 2653 2597 2653 3081 
z
" transform="scale(0.015625)"/>
      <path id="ArialMT-38" d="M 1131 2484 
Q 781 2613 612 2850 
Q 444 3088 444 3419 
Q 444 3919 803 4259 
Q 1163 4600 1759 4600 
Q 2359 4600 2725 4251 
Q 3091 3903 3091 3403 
Q 3091 3084 2923 2848 
Q 2756 2613 2416 2484 
Q 2838 2347 3058 2040 
Q 3278 1734 3278 1309 
Q 3278 722 2862 322 
Q 2447 -78 1769 -78 
Q 1091 -78 675 323 
Q 259 725 259 1325 
Q 259 1772 486 2073 
Q 713 2375 1131 2484 
z
M 1019 3438 
Q 1019 3113 1228 2906 
Q 1438 2700 1772 2700 
Q 2097 2700 2305 2904 
Q 2513 3109 2513 3406 
Q 2513 3716 2298 3927 
Q 2084 4138 1766 4138 
Q 1444 4138 1231 3931 
Q 1019 3725 1019 3438 
z
M 838 1322 
Q 838 1081 952 856 
Q 1066 631 1291 507 
Q 1516 384 1775 384 
Q 2178 384 2440 643 
Q 2703 903 2703 1303 
Q 2703 1709 2433 1975 
Q 2163 2241 1756 2241 
Q 1359 2241 1098 1978 
Q 838 1716 838 1322 
z
" transform="scale(0.015625)"/>
      <path id="ArialMT-36" d="M 3184 3459 
L 2625 3416 
Q 2550 3747 2413 3897 
Q 2184 4138 1850 4138 
Q 1581 4138 1378 3988 
Q 1113 3794 959 3422 
Q 806 3050 800 2363 
Q 1003 2672 1297 2822 
Q 1591 2972 1913 2972 
Q 2475 2972 2870 2558 
Q 3266 2144 3266 1488 
Q 3266 1056 3080 686 
Q 2894 316 2569 119 
Q 2244 -78 1831 -78 
Q 1128 -78 684 439 
Q 241 956 241 2144 
Q 241 3472 731 4075 
Q 1159 4600 1884 4600 
Q 2425 4600 2770 4297 
Q 3116 3994 3184 3459 
z
M 888 1484 
Q 888 1194 1011 928 
Q 1134 663 1356 523 
Q 1578 384 1822 384 
Q 2178 384 2434 671 
Q 2691 959 2691 1453 
Q 2691 1928 2437 2201 
Q 2184 2475 1800 2475 
Q 1419 2475 1153 2201 
Q 888 1928 888 1484 
z
" transform="scale(0.015625)"/>
      <path id="ArialMT-33" d="M 269 1209 
L 831 1284 
Q 928 806 1161 595 
Q 1394 384 1728 384 
Q 2125 384 2398 659 
Q 2672 934 2672 1341 
Q 2672 1728 2419 1979 
Q 2166 2231 1775 2231 
Q 1616 2231 1378 2169 
L 1441 2663 
Q 1497 2656 1531 2656 
Q 1891 2656 2178 2843 
Q 2466 3031 2466 3422 
Q 2466 3731 2256 3934 
Q 2047 4138 1716 4138 
Q 1388 4138 1169 3931 
Q 950 3725 888 3313 
L 325 3413 
Q 428 3978 793 4289 
Q 1159 4600 1703 4600 
Q 2078 4600 2393 4439 
Q 2709 4278 2876 4000 
Q 3044 3722 3044 3409 
Q 3044 3113 2884 2869 
Q 2725 2625 2413 2481 
Q 2819 2388 3044 2092 
Q 3269 1797 3269 1353 
Q 3269 753 2831 336 
Q 2394 -81 1725 -81 
Q 1122 -81 723 278 
Q 325 638 269 1209 
z
" transform="scale(0.015625)"/>
     </defs>
     <use xlink:href="#ArialMT-70"/>
     <use xlink:href="#ArialMT-3d" x="55.615234"/>
     <use xlink:href="#ArialMT-30" x="114.013672"/>
     <use xlink:href="#ArialMT-2e" x="169.628906"/>
     <use xlink:href="#ArialMT-30" x="197.412109"/>
     <use xlink:href="#ArialMT-30" x="253.027344"/>
     <use xlink:href="#ArialMT-37" x="308.642578"/>
     <use xlink:href="#ArialMT-39" x="364.257812"/>
     <use xlink:href="#ArialMT-30" x="419.873047"/>
     <use xlink:href="#ArialMT-35" x="475.488281"/>
     <use xlink:href="#ArialMT-31" x="531.103516"/>
     <use xlink:href="#ArialMT-35" x="586.71875"/>
     <use xlink:href="#ArialMT-32" x="642.333984"/>
     <use xlink:href="#ArialMT-35" x="697.949219"/>
     <use xlink:href="#ArialMT-38" x="753.564453"/>
     <use xlink:href="#ArialMT-30" x="809.179688"/>
     <use xlink:href="#ArialMT-37" x="864.794922"/>
     <use xlink:href="#ArialMT-30" x="920.410156"/>
     <use xlink:href="#ArialMT-36" x="976.025391"/>
     <use xlink:href="#ArialMT-38" x="1031.640625"/>
     <use xlink:href="#ArialMT-35" x="1087.255859"/>
     <use xlink:href="#ArialMT-33" x="1142.871094"/>
    </g>
   </g>
   <g id="text_11">
    <!-- 6 -->
    <g style="fill: #262626" transform="translate(177.18525 156.654109)scale(0.1 -0.1)">
     <use xlink:href="#ArialMT-36"/>
    </g>
   </g>
   <g id="text_12">
    <!-- 6 -->
    <g style="fill: #262626" transform="translate(318.64475 156.654109)scale(0.1 -0.1)">
     <use xlink:href="#ArialMT-36"/>
    </g>
   </g>
   <g id="text_13">
    <!-- p=0.0013955609456800012 -->
    <g style="fill: #262626" transform="translate(268.485375 263.66785)scale(0.08 -0.08)">
     <defs>
      <path id="ArialMT-34" d="M 2069 0 
L 2069 1097 
L 81 1097 
L 81 1613 
L 2172 4581 
L 2631 4581 
L 2631 1613 
L 3250 1613 
L 3250 1097 
L 2631 1097 
L 2631 0 
L 2069 0 
z
M 2069 1613 
L 2069 3678 
L 634 1613 
L 2069 1613 
z
" transform="scale(0.015625)"/>
     </defs>
     <use xlink:href="#ArialMT-70"/>
     <use xlink:href="#ArialMT-3d" x="55.615234"/>
     <use xlink:href="#ArialMT-30" x="114.013672"/>
     <use xlink:href="#ArialMT-2e" x="169.628906"/>
     <use xlink:href="#ArialMT-30" x="197.412109"/>
     <use xlink:href="#ArialMT-30" x="253.027344"/>
     <use xlink:href="#ArialMT-31" x="308.642578"/>
     <use xlink:href="#ArialMT-33" x="364.257812"/>
     <use xlink:href="#ArialMT-39" x="419.873047"/>
     <use xlink:href="#ArialMT-35" x="475.488281"/>
     <use xlink:href="#ArialMT-35" x="531.103516"/>
     <use xlink:href="#ArialMT-36" x="586.71875"/>
     <use xlink:href="#ArialMT-30" x="642.333984"/>
     <use xlink:href="#ArialMT-39" x="697.949219"/>
     <use xlink:href="#ArialMT-34" x="753.564453"/>
     <use xlink:href="#ArialMT-35" x="809.179688"/>
     <use xlink:href="#ArialMT-36" x="864.794922"/>
     <use xlink:href="#ArialMT-38" x="920.410156"/>
     <use xlink:href="#ArialMT-30" x="976.025391"/>
     <use xlink:href="#ArialMT-30" x="1031.640625"/>
     <use xlink:href="#ArialMT-30" x="1087.255859"/>
     <use xlink:href="#ArialMT-31" x="1142.871094"/>
     <use xlink:href="#ArialMT-32" x="1198.486328"/>
    </g>
   </g>
   <g id="text_14">
    <!-- 5 -->
    <g style="fill: #262626" transform="translate(379.27025 156.654109)scale(0.1 -0.1)">
     <use xlink:href="#ArialMT-35"/>
    </g>
   </g>
   <g id="legend_1">
    <g id="patch_13">
     <path d="M 54.83 231.901245 
L 74.83 231.901245 
L 74.83 224.901245 
L 54.83 224.901245 
z
" style="fill: #ecf2ec; stroke: #262626; stroke-width: 0.75; stroke-linejoin: miter"/>
    </g>
    <g id="text_15">
     <!-- Mutant -->
     <g style="fill: #262626" transform="translate(82.83 231.901245)scale(0.1 -0.1)">
      <defs>
       <path id="ArialMT-75" d="M 2597 0 
L 2597 488 
Q 2209 -75 1544 -75 
Q 1250 -75 995 37 
Q 741 150 617 320 
Q 494 491 444 738 
Q 409 903 409 1263 
L 409 3319 
L 972 3319 
L 972 1478 
Q 972 1038 1006 884 
Q 1059 663 1231 536 
Q 1403 409 1656 409 
Q 1909 409 2131 539 
Q 2353 669 2445 892 
Q 2538 1116 2538 1541 
L 2538 3319 
L 3100 3319 
L 3100 0 
L 2597 0 
z
" transform="scale(0.015625)"/>
       <path id="ArialMT-61" d="M 2588 409 
Q 2275 144 1986 34 
Q 1697 -75 1366 -75 
Q 819 -75 525 192 
Q 231 459 231 875 
Q 231 1119 342 1320 
Q 453 1522 633 1644 
Q 813 1766 1038 1828 
Q 1203 1872 1538 1913 
Q 2219 1994 2541 2106 
Q 2544 2222 2544 2253 
Q 2544 2597 2384 2738 
Q 2169 2928 1744 2928 
Q 1347 2928 1158 2789 
Q 969 2650 878 2297 
L 328 2372 
Q 403 2725 575 2942 
Q 747 3159 1072 3276 
Q 1397 3394 1825 3394 
Q 2250 3394 2515 3294 
Q 2781 3194 2906 3042 
Q 3031 2891 3081 2659 
Q 3109 2516 3109 2141 
L 3109 1391 
Q 3109 606 3145 398 
Q 3181 191 3288 0 
L 2700 0 
Q 2613 175 2588 409 
z
M 2541 1666 
Q 2234 1541 1622 1453 
Q 1275 1403 1131 1340 
Q 988 1278 909 1158 
Q 831 1038 831 891 
Q 831 666 1001 516 
Q 1172 366 1500 366 
Q 1825 366 2078 508 
Q 2331 650 2450 897 
Q 2541 1088 2541 1459 
L 2541 1666 
z
" transform="scale(0.015625)"/>
      </defs>
      <use xlink:href="#ArialMT-4d"/>
      <use xlink:href="#ArialMT-75" x="83.300781"/>
      <use xlink:href="#ArialMT-74" x="138.916016"/>
      <use xlink:href="#ArialMT-61" x="166.699219"/>
      <use xlink:href="#ArialMT-6e" x="222.314453"/>
      <use xlink:href="#ArialMT-74" x="277.929688"/>
     </g>
    </g>
    <g id="patch_14">
     <path d="M 54.83 246.046557 
L 74.83 246.046557 
L 74.83 239.046557 
L 54.83 239.046557 
z
" style="fill: #107010; stroke: #262626; stroke-width: 0.75; stroke-linejoin: miter"/>
    </g>
    <g id="text_16">
     <!-- WT -->
     <g style="fill: #262626" transform="translate(82.83 246.046557)scale(0.1 -0.1)">
      <use xlink:href="#ArialMT-57"/>
      <use xlink:href="#ArialMT-54" x="94.384766"/>
     </g>
    </g>
   </g>
  </g>
 </g>
 <defs>
  <clipPath id="p27797e03bc">
   <rect x="45.83" y="215.743432" width="404.17" height="87.795318"/>
  </clipPath>
 </defs>
</svg>
