<?xml version="1.0" encoding="utf-8" standalone="no"?>
<!DOCTYPE svg PUBLIC "-//W3C//DTD SVG 1.1//EN"
  "http://www.w3.org/Graphics/SVG/1.1/DTD/svg11.dtd">
<svg xmlns:xlink="http://www.w3.org/1999/xlink" width="460.8pt" height="345.6pt" viewBox="0 0 460.8 345.6" xmlns="http://www.w3.org/2000/svg" version="1.1">
 <metadata>
  <rdf:RDF xmlns:dc="http://purl.org/dc/elements/1.1/" xmlns:cc="http://creativecommons.org/ns#" xmlns:rdf="http://www.w3.org/1999/02/22-rdf-syntax-ns#">
   <cc:Work>
    <dc:type rdf:resource="http://purl.org/dc/dcmitype/StillImage"/>
    <dc:date>2024-06-12T17:58:21.223374</dc:date>
    <dc:format>image/svg+xml</dc:format>
    <dc:creator>
     <cc:Agent>
      <dc:title>Matplotlib v3.5.3, https://matplotlib.org/</dc:title>
     </cc:Agent>
    </dc:creator>
   </cc:Work>
  </rdf:RDF>
 </metadata>
 <defs>
  <style type="text/css">*{stroke-linejoin: round; stroke-linecap: butt}</style>
 </defs>
 <g id="figure_1">
  <g id="patch_1">
   <path d="M 0 345.6 
L 460.8 345.6 
L 460.8 0 
L 0 0 
z
" style="fill: #ffffff"/>
  </g>
  <g id="axes_1">
   <g id="patch_2">
    <path d="M 63.57125 303.64 
L 450 303.64 
L 450 10.8 
L 63.57125 10.8 
z
" style="fill: #ffffff"/>
   </g>
   <g id="matplotlib.axis_1">
    <g id="xtick_1">
     <g id="text_1">
      <!-- A -->
      <g style="fill: #262626" transform="translate(156.758125 318.238437)scale(0.1 -0.1)">
       <defs>
        <path id="DejaVuSans-41" d="M 2188 4044 
L 1331 1722 
L 3047 1722 
L 2188 4044 
z
M 1831 4666 
L 2547 4666 
L 4325 0 
L 3669 0 
L 3244 1197 
L 1141 1197 
L 716 0 
L 50 0 
L 1831 4666 
z
" transform="scale(0.015625)"/>
       </defs>
       <use xlink:href="#DejaVuSans-41"/>
      </g>
     </g>
    </g>
    <g id="xtick_2">
     <g id="text_2">
      <!-- L -->
      <g style="fill: #262626" transform="translate(350.606875 318.238437)scale(0.1 -0.1)">
       <defs>
        <path id="DejaVuSans-4c" d="M 628 4666 
L 1259 4666 
L 1259 531 
L 3531 531 
L 3531 0 
L 628 0 
L 628 4666 
z
" transform="scale(0.015625)"/>
       </defs>
       <use xlink:href="#DejaVuSans-4c"/>
      </g>
     </g>
    </g>
    <g id="text_3">
     <!-- WT_AA -->
     <g style="fill: #262626" transform="translate(239.309844 331.638437)scale(0.1 -0.1)">
      <defs>
       <path id="DejaVuSans-57" d="M 213 4666 
L 850 4666 
L 1831 722 
L 2809 4666 
L 3519 4666 
L 4500 722 
L 5478 4666 
L 6119 4666 
L 4947 0 
L 4153 0 
L 3169 4050 
L 2175 0 
L 1381 0 
L 213 4666 
z
" transform="scale(0.015625)"/>
       <path id="DejaVuSans-54" d="M -19 4666 
L 3928 4666 
L 3928 4134 
L 2272 4134 
L 2272 0 
L 1638 0 
L 1638 4134 
L -19 4134 
L -19 4666 
z
" transform="scale(0.015625)"/>
       <path id="DejaVuSans-5f" d="M 3263 -1063 
L 3263 -1509 
L -63 -1509 
L -63 -1063 
L 3263 -1063 
z
" transform="scale(0.015625)"/>
      </defs>
      <use xlink:href="#DejaVuSans-57"/>
      <use xlink:href="#DejaVuSans-54" x="98.876953"/>
      <use xlink:href="#DejaVuSans-5f" x="159.960938"/>
      <use xlink:href="#DejaVuSans-41" x="209.960938"/>
      <use xlink:href="#DejaVuSans-41" x="281.119141"/>
     </g>
    </g>
   </g>
   <g id="matplotlib.axis_2">
    <g id="ytick_1">
     <g id="line2d_1">
      <path d="M 63.57125 303.64 
L 450 303.64 
" clip-path="url(#pfa54d136a0)" style="fill: none; stroke: #cccccc; stroke-width: 0.8; stroke-linecap: round"/>
     </g>
     <g id="text_4">
      <!-- 0 -->
      <g style="fill: #262626" transform="translate(50.20875 307.439219)scale(0.1 -0.1)">
       <defs>
        <path id="DejaVuSans-30" d="M 2034 4250 
Q 1547 4250 1301 3770 
Q 1056 3291 1056 2328 
Q 1056 1369 1301 889 
Q 1547 409 2034 409 
Q 2525 409 2770 889 
Q 3016 1369 3016 2328 
Q 3016 3291 2770 3770 
Q 2525 4250 2034 4250 
z
M 2034 4750 
Q 2819 4750 3233 4129 
Q 3647 3509 3647 2328 
Q 3647 1150 3233 529 
Q 2819 -91 2034 -91 
Q 1250 -91 836 529 
Q 422 1150 422 2328 
Q 422 3509 836 4129 
Q 1250 4750 2034 4750 
z
" transform="scale(0.015625)"/>
       </defs>
       <use xlink:href="#DejaVuSans-30"/>
      </g>
     </g>
    </g>
    <g id="ytick_2">
     <g id="line2d_2">
      <path d="M 63.57125 254.282125 
L 450 254.282125 
" clip-path="url(#pfa54d136a0)" style="fill: none; stroke: #cccccc; stroke-width: 0.8; stroke-linecap: round"/>
     </g>
     <g id="text_5">
      <!-- 2000 -->
      <g style="fill: #262626" transform="translate(31.12125 258.081344)scale(0.1 -0.1)">
       <defs>
        <path id="DejaVuSans-32" d="M 1228 531 
L 3431 531 
L 3431 0 
L 469 0 
L 469 531 
Q 828 903 1448 1529 
Q 2069 2156 2228 2338 
Q 2531 2678 2651 2914 
Q 2772 3150 2772 3378 
Q 2772 3750 2511 3984 
Q 2250 4219 1831 4219 
Q 1534 4219 1204 4116 
Q 875 4013 500 3803 
L 500 4441 
Q 881 4594 1212 4672 
Q 1544 4750 1819 4750 
Q 2544 4750 2975 4387 
Q 3406 4025 3406 3419 
Q 3406 3131 3298 2873 
Q 3191 2616 2906 2266 
Q 2828 2175 2409 1742 
Q 1991 1309 1228 531 
z
" transform="scale(0.015625)"/>
       </defs>
       <use xlink:href="#DejaVuSans-32"/>
       <use xlink:href="#DejaVuSans-30" x="63.623047"/>
       <use xlink:href="#DejaVuSans-30" x="127.246094"/>
       <use xlink:href="#DejaVuSans-30" x="190.869141"/>
      </g>
     </g>
    </g>
    <g id="ytick_3">
     <g id="line2d_3">
      <path d="M 63.57125 204.92425 
L 450 204.92425 
" clip-path="url(#pfa54d136a0)" style="fill: none; stroke: #cccccc; stroke-width: 0.8; stroke-linecap: round"/>
     </g>
     <g id="text_6">
      <!-- 4000 -->
      <g style="fill: #262626" transform="translate(31.12125 208.723469)scale(0.1 -0.1)">
       <defs>
        <path id="DejaVuSans-34" d="M 2419 4116 
L 825 1625 
L 2419 1625 
L 2419 4116 
z
M 2253 4666 
L 3047 4666 
L 3047 1625 
L 3713 1625 
L 3713 1100 
L 3047 1100 
L 3047 0 
L 2419 0 
L 2419 1100 
L 313 1100 
L 313 1709 
L 2253 4666 
z
" transform="scale(0.015625)"/>
       </defs>
       <use xlink:href="#DejaVuSans-34"/>
       <use xlink:href="#DejaVuSans-30" x="63.623047"/>
       <use xlink:href="#DejaVuSans-30" x="127.246094"/>
       <use xlink:href="#DejaVuSans-30" x="190.869141"/>
      </g>
     </g>
    </g>
    <g id="ytick_4">
     <g id="line2d_4">
      <path d="M 63.57125 155.566375 
L 450 155.566375 
" clip-path="url(#pfa54d136a0)" style="fill: none; stroke: #cccccc; stroke-width: 0.8; stroke-linecap: round"/>
     </g>
     <g id="text_7">
      <!-- 6000 -->
      <g style="fill: #262626" transform="translate(31.12125 159.365594)scale(0.1 -0.1)">
       <defs>
        <path id="DejaVuSans-36" d="M 2113 2584 
Q 1688 2584 1439 2293 
Q 1191 2003 1191 1497 
Q 1191 994 1439 701 
Q 1688 409 2113 409 
Q 2538 409 2786 701 
Q 3034 994 3034 1497 
Q 3034 2003 2786 2293 
Q 2538 2584 2113 2584 
z
M 3366 4563 
L 3366 3988 
Q 3128 4100 2886 4159 
Q 2644 4219 2406 4219 
Q 1781 4219 1451 3797 
Q 1122 3375 1075 2522 
Q 1259 2794 1537 2939 
Q 1816 3084 2150 3084 
Q 2853 3084 3261 2657 
Q 3669 2231 3669 1497 
Q 3669 778 3244 343 
Q 2819 -91 2113 -91 
Q 1303 -91 875 529 
Q 447 1150 447 2328 
Q 447 3434 972 4092 
Q 1497 4750 2381 4750 
Q 2619 4750 2861 4703 
Q 3103 4656 3366 4563 
z
" transform="scale(0.015625)"/>
       </defs>
       <use xlink:href="#DejaVuSans-36"/>
       <use xlink:href="#DejaVuSans-30" x="63.623047"/>
       <use xlink:href="#DejaVuSans-30" x="127.246094"/>
       <use xlink:href="#DejaVuSans-30" x="190.869141"/>
      </g>
     </g>
    </g>
    <g id="ytick_5">
     <g id="line2d_5">
      <path d="M 63.57125 106.2085 
L 450 106.2085 
" clip-path="url(#pfa54d136a0)" style="fill: none; stroke: #cccccc; stroke-width: 0.8; stroke-linecap: round"/>
     </g>
     <g id="text_8">
      <!-- 8000 -->
      <g style="fill: #262626" transform="translate(31.12125 110.007719)scale(0.1 -0.1)">
       <defs>
        <path id="DejaVuSans-38" d="M 2034 2216 
Q 1584 2216 1326 1975 
Q 1069 1734 1069 1313 
Q 1069 891 1326 650 
Q 1584 409 2034 409 
Q 2484 409 2743 651 
Q 3003 894 3003 1313 
Q 3003 1734 2745 1975 
Q 2488 2216 2034 2216 
z
M 1403 2484 
Q 997 2584 770 2862 
Q 544 3141 544 3541 
Q 544 4100 942 4425 
Q 1341 4750 2034 4750 
Q 2731 4750 3128 4425 
Q 3525 4100 3525 3541 
Q 3525 3141 3298 2862 
Q 3072 2584 2669 2484 
Q 3125 2378 3379 2068 
Q 3634 1759 3634 1313 
Q 3634 634 3220 271 
Q 2806 -91 2034 -91 
Q 1263 -91 848 271 
Q 434 634 434 1313 
Q 434 1759 690 2068 
Q 947 2378 1403 2484 
z
M 1172 3481 
Q 1172 3119 1398 2916 
Q 1625 2713 2034 2713 
Q 2441 2713 2670 2916 
Q 2900 3119 2900 3481 
Q 2900 3844 2670 4047 
Q 2441 4250 2034 4250 
Q 1625 4250 1398 4047 
Q 1172 3844 1172 3481 
z
" transform="scale(0.015625)"/>
       </defs>
       <use xlink:href="#DejaVuSans-38"/>
       <use xlink:href="#DejaVuSans-30" x="63.623047"/>
       <use xlink:href="#DejaVuSans-30" x="127.246094"/>
       <use xlink:href="#DejaVuSans-30" x="190.869141"/>
      </g>
     </g>
    </g>
    <g id="ytick_6">
     <g id="line2d_6">
      <path d="M 63.57125 56.850625 
L 450 56.850625 
" clip-path="url(#pfa54d136a0)" style="fill: none; stroke: #cccccc; stroke-width: 0.8; stroke-linecap: round"/>
     </g>
     <g id="text_9">
      <!-- 10000 -->
      <g style="fill: #262626" transform="translate(24.75875 60.649844)scale(0.1 -0.1)">
       <defs>
        <path id="DejaVuSans-31" d="M 794 531 
L 1825 531 
L 1825 4091 
L 703 3866 
L 703 4441 
L 1819 4666 
L 2450 4666 
L 2450 531 
L 3481 531 
L 3481 0 
L 794 0 
L 794 531 
z
" transform="scale(0.015625)"/>
       </defs>
       <use xlink:href="#DejaVuSans-31"/>
       <use xlink:href="#DejaVuSans-30" x="63.623047"/>
       <use xlink:href="#DejaVuSans-30" x="127.246094"/>
       <use xlink:href="#DejaVuSans-30" x="190.869141"/>
       <use xlink:href="#DejaVuSans-30" x="254.492188"/>
      </g>
     </g>
    </g>
    <g id="text_10">
     <!-- toxgreen_fluor -->
     <g style="fill: #262626" transform="translate(18.400938 193.414531)rotate(-90)scale(0.1 -0.1)">
      <defs>
       <path id="DejaVuSans-74" d="M 1172 4494 
L 1172 3500 
L 2356 3500 
L 2356 3053 
L 1172 3053 
L 1172 1153 
Q 1172 725 1289 603 
Q 1406 481 1766 481 
L 2356 481 
L 2356 0 
L 1766 0 
Q 1100 0 847 248 
Q 594 497 594 1153 
L 594 3053 
L 172 3053 
L 172 3500 
L 594 3500 
L 594 4494 
L 1172 4494 
z
" transform="scale(0.015625)"/>
       <path id="DejaVuSans-6f" d="M 1959 3097 
Q 1497 3097 1228 2736 
Q 959 2375 959 1747 
Q 959 1119 1226 758 
Q 1494 397 1959 397 
Q 2419 397 2687 759 
Q 2956 1122 2956 1747 
Q 2956 2369 2687 2733 
Q 2419 3097 1959 3097 
z
M 1959 3584 
Q 2709 3584 3137 3096 
Q 3566 2609 3566 1747 
Q 3566 888 3137 398 
Q 2709 -91 1959 -91 
Q 1206 -91 779 398 
Q 353 888 353 1747 
Q 353 2609 779 3096 
Q 1206 3584 1959 3584 
z
" transform="scale(0.015625)"/>
       <path id="DejaVuSans-78" d="M 3513 3500 
L 2247 1797 
L 3578 0 
L 2900 0 
L 1881 1375 
L 863 0 
L 184 0 
L 1544 1831 
L 300 3500 
L 978 3500 
L 1906 2253 
L 2834 3500 
L 3513 3500 
z
" transform="scale(0.015625)"/>
       <path id="DejaVuSans-67" d="M 2906 1791 
Q 2906 2416 2648 2759 
Q 2391 3103 1925 3103 
Q 1463 3103 1205 2759 
Q 947 2416 947 1791 
Q 947 1169 1205 825 
Q 1463 481 1925 481 
Q 2391 481 2648 825 
Q 2906 1169 2906 1791 
z
M 3481 434 
Q 3481 -459 3084 -895 
Q 2688 -1331 1869 -1331 
Q 1566 -1331 1297 -1286 
Q 1028 -1241 775 -1147 
L 775 -588 
Q 1028 -725 1275 -790 
Q 1522 -856 1778 -856 
Q 2344 -856 2625 -561 
Q 2906 -266 2906 331 
L 2906 616 
Q 2728 306 2450 153 
Q 2172 0 1784 0 
Q 1141 0 747 490 
Q 353 981 353 1791 
Q 353 2603 747 3093 
Q 1141 3584 1784 3584 
Q 2172 3584 2450 3431 
Q 2728 3278 2906 2969 
L 2906 3500 
L 3481 3500 
L 3481 434 
z
" transform="scale(0.015625)"/>
       <path id="DejaVuSans-72" d="M 2631 2963 
Q 2534 3019 2420 3045 
Q 2306 3072 2169 3072 
Q 1681 3072 1420 2755 
Q 1159 2438 1159 1844 
L 1159 0 
L 581 0 
L 581 3500 
L 1159 3500 
L 1159 2956 
Q 1341 3275 1631 3429 
Q 1922 3584 2338 3584 
Q 2397 3584 2469 3576 
Q 2541 3569 2628 3553 
L 2631 2963 
z
" transform="scale(0.015625)"/>
       <path id="DejaVuSans-65" d="M 3597 1894 
L 3597 1613 
L 953 1613 
Q 991 1019 1311 708 
Q 1631 397 2203 397 
Q 2534 397 2845 478 
Q 3156 559 3463 722 
L 3463 178 
Q 3153 47 2828 -22 
Q 2503 -91 2169 -91 
Q 1331 -91 842 396 
Q 353 884 353 1716 
Q 353 2575 817 3079 
Q 1281 3584 2069 3584 
Q 2775 3584 3186 3129 
Q 3597 2675 3597 1894 
z
M 3022 2063 
Q 3016 2534 2758 2815 
Q 2500 3097 2075 3097 
Q 1594 3097 1305 2825 
Q 1016 2553 972 2059 
L 3022 2063 
z
" transform="scale(0.015625)"/>
       <path id="DejaVuSans-6e" d="M 3513 2113 
L 3513 0 
L 2938 0 
L 2938 2094 
Q 2938 2591 2744 2837 
Q 2550 3084 2163 3084 
Q 1697 3084 1428 2787 
Q 1159 2491 1159 1978 
L 1159 0 
L 581 0 
L 581 3500 
L 1159 3500 
L 1159 2956 
Q 1366 3272 1645 3428 
Q 1925 3584 2291 3584 
Q 2894 3584 3203 3211 
Q 3513 2838 3513 2113 
z
" transform="scale(0.015625)"/>
       <path id="DejaVuSans-66" d="M 2375 4863 
L 2375 4384 
L 1825 4384 
Q 1516 4384 1395 4259 
Q 1275 4134 1275 3809 
L 1275 3500 
L 2222 3500 
L 2222 3053 
L 1275 3053 
L 1275 0 
L 697 0 
L 697 3053 
L 147 3053 
L 147 3500 
L 697 3500 
L 697 3744 
Q 697 4328 969 4595 
Q 1241 4863 1831 4863 
L 2375 4863 
z
" transform="scale(0.015625)"/>
       <path id="DejaVuSans-6c" d="M 603 4863 
L 1178 4863 
L 1178 0 
L 603 0 
L 603 4863 
z
" transform="scale(0.015625)"/>
       <path id="DejaVuSans-75" d="M 544 1381 
L 544 3500 
L 1119 3500 
L 1119 1403 
Q 1119 906 1312 657 
Q 1506 409 1894 409 
Q 2359 409 2629 706 
Q 2900 1003 2900 1516 
L 2900 3500 
L 3475 3500 
L 3475 0 
L 2900 0 
L 2900 538 
Q 2691 219 2414 64 
Q 2138 -91 1772 -91 
Q 1169 -91 856 284 
Q 544 659 544 1381 
z
M 1991 3584 
L 1991 3584 
z
" transform="scale(0.015625)"/>
      </defs>
      <use xlink:href="#DejaVuSans-74"/>
      <use xlink:href="#DejaVuSans-6f" x="39.208984"/>
      <use xlink:href="#DejaVuSans-78" x="97.265625"/>
      <use xlink:href="#DejaVuSans-67" x="156.445312"/>
      <use xlink:href="#DejaVuSans-72" x="219.921875"/>
      <use xlink:href="#DejaVuSans-65" x="258.785156"/>
      <use xlink:href="#DejaVuSans-65" x="320.308594"/>
      <use xlink:href="#DejaVuSans-6e" x="381.832031"/>
      <use xlink:href="#DejaVuSans-5f" x="445.210938"/>
      <use xlink:href="#DejaVuSans-66" x="495.210938"/>
      <use xlink:href="#DejaVuSans-6c" x="530.416016"/>
      <use xlink:href="#DejaVuSans-75" x="558.199219"/>
      <use xlink:href="#DejaVuSans-6f" x="621.578125"/>
      <use xlink:href="#DejaVuSans-72" x="682.759766"/>
     </g>
    </g>
   </g>
   <g id="patch_3">
    <path d="M 83.665545 236.142281 
L 159.40558 236.142281 
L 159.40558 170.316055 
L 83.665545 170.316055 
L 83.665545 236.142281 
z
" clip-path="url(#pfa54d136a0)" style="fill: #ecf2ec; stroke: #262626; stroke-width: 1.5; stroke-linejoin: miter"/>
   </g>
   <g id="patch_4">
    <path d="M 160.951295 184.991894 
L 236.69133 184.991894 
L 236.69133 140.299833 
L 160.951295 140.299833 
L 160.951295 184.991894 
z
" clip-path="url(#pfa54d136a0)" style="fill: #107010; stroke: #262626; stroke-width: 1.5; stroke-linejoin: miter"/>
   </g>
   <g id="patch_5">
    <path d="M 276.87992 185.378631 
L 352.619955 185.378631 
L 352.619955 121.274792 
L 276.87992 121.274792 
L 276.87992 185.378631 
z
" clip-path="url(#pfa54d136a0)" style="fill: #ecf2ec; stroke: #262626; stroke-width: 1.5; stroke-linejoin: miter"/>
   </g>
   <g id="patch_6">
    <path d="M 354.16567 236.761311 
L 429.905705 236.761311 
L 429.905705 171.69207 
L 354.16567 171.69207 
L 354.16567 236.761311 
z
" clip-path="url(#pfa54d136a0)" style="fill: #107010; stroke: #262626; stroke-width: 1.5; stroke-linejoin: miter"/>
   </g>
   <g id="patch_7">
    <path d="M 160.178438 303.64 
L 160.178438 303.64 
L 160.178438 303.64 
L 160.178438 303.64 
z
" clip-path="url(#pfa54d136a0)" style="fill: #ecf2ec; stroke: #262626; stroke-width: 0.75; stroke-linejoin: miter"/>
   </g>
   <g id="patch_8">
    <path d="M 160.178438 303.64 
L 160.178438 303.64 
L 160.178438 303.64 
L 160.178438 303.64 
z
" clip-path="url(#pfa54d136a0)" style="fill: #107010; stroke: #262626; stroke-width: 0.75; stroke-linejoin: miter"/>
   </g>
   <g id="PathCollection_1"/>
   <g id="PathCollection_2"/>
   <g id="line2d_7">
    <path d="M 121.535562 236.142281 
L 121.535562 305.646095 
" clip-path="url(#pfa54d136a0)" style="fill: none; stroke: #262626; stroke-width: 1.5; stroke-linecap: round"/>
   </g>
   <g id="line2d_8">
    <path d="M 121.535562 170.316055 
L 121.535562 133.462394 
" clip-path="url(#pfa54d136a0)" style="fill: none; stroke: #262626; stroke-width: 1.5; stroke-linecap: round"/>
   </g>
   <g id="line2d_9">
    <path d="M 102.600554 305.646095 
L 140.470571 305.646095 
" clip-path="url(#pfa54d136a0)" style="fill: none; stroke: #262626; stroke-width: 1.5; stroke-linecap: round"/>
   </g>
   <g id="line2d_10">
    <path d="M 102.600554 133.462394 
L 140.470571 133.462394 
" clip-path="url(#pfa54d136a0)" style="fill: none; stroke: #262626; stroke-width: 1.5; stroke-linecap: round"/>
   </g>
   <g id="line2d_11"/>
   <g id="line2d_12">
    <path d="M 198.821313 184.991894 
L 198.821313 225.901223 
" clip-path="url(#pfa54d136a0)" style="fill: none; stroke: #262626; stroke-width: 1.5; stroke-linecap: round"/>
   </g>
   <g id="line2d_13">
    <path d="M 198.821313 140.299833 
L 198.821313 81.572324 
" clip-path="url(#pfa54d136a0)" style="fill: none; stroke: #262626; stroke-width: 1.5; stroke-linecap: round"/>
   </g>
   <g id="line2d_14">
    <path d="M 179.886304 225.901223 
L 217.756321 225.901223 
" clip-path="url(#pfa54d136a0)" style="fill: none; stroke: #262626; stroke-width: 1.5; stroke-linecap: round"/>
   </g>
   <g id="line2d_15">
    <path d="M 179.886304 81.572324 
L 217.756321 81.572324 
" clip-path="url(#pfa54d136a0)" style="fill: none; stroke: #262626; stroke-width: 1.5; stroke-linecap: round"/>
   </g>
   <g id="line2d_16">
    <defs>
     <path id="m7e48c6f149" d="M -0 1.414214 
L 0.848528 0 
L 0 -1.414214 
L -0.848528 -0 
z
" style="stroke: #262626; stroke-linejoin: miter"/>
    </defs>
    <g clip-path="url(#pfa54d136a0)">
     <use xlink:href="#m7e48c6f149" x="198.821313" y="63.698854" style="fill: #262626; stroke: #262626; stroke-linejoin: miter"/>
    </g>
   </g>
   <g id="line2d_17">
    <path d="M 314.749937 185.378631 
L 314.749937 267.617772 
" clip-path="url(#pfa54d136a0)" style="fill: none; stroke: #262626; stroke-width: 1.5; stroke-linecap: round"/>
   </g>
   <g id="line2d_18">
    <path d="M 314.749937 121.274792 
L 314.749937 37.421818 
" clip-path="url(#pfa54d136a0)" style="fill: none; stroke: #262626; stroke-width: 1.5; stroke-linecap: round"/>
   </g>
   <g id="line2d_19">
    <path d="M 295.814929 267.617772 
L 333.684946 267.617772 
" clip-path="url(#pfa54d136a0)" style="fill: none; stroke: #262626; stroke-width: 1.5; stroke-linecap: round"/>
   </g>
   <g id="line2d_20">
    <path d="M 295.814929 37.421818 
L 333.684946 37.421818 
" clip-path="url(#pfa54d136a0)" style="fill: none; stroke: #262626; stroke-width: 1.5; stroke-linecap: round"/>
   </g>
   <g id="line2d_21">
    <g clip-path="url(#pfa54d136a0)">
     <use xlink:href="#m7e48c6f149" x="314.749937" y="310.365506" style="fill: #262626; stroke: #262626; stroke-linejoin: miter"/>
    </g>
   </g>
   <g id="line2d_22">
    <path d="M 392.035687 236.761311 
L 392.035687 256.177474 
" clip-path="url(#pfa54d136a0)" style="fill: none; stroke: #262626; stroke-width: 1.5; stroke-linecap: round"/>
   </g>
   <g id="line2d_23">
    <path d="M 392.035687 171.69207 
L 392.035687 140.088153 
" clip-path="url(#pfa54d136a0)" style="fill: none; stroke: #262626; stroke-width: 1.5; stroke-linecap: round"/>
   </g>
   <g id="line2d_24">
    <path d="M 373.100679 256.177474 
L 410.970696 256.177474 
" clip-path="url(#pfa54d136a0)" style="fill: none; stroke: #262626; stroke-width: 1.5; stroke-linecap: round"/>
   </g>
   <g id="line2d_25">
    <path d="M 373.100679 140.088153 
L 410.970696 140.088153 
" clip-path="url(#pfa54d136a0)" style="fill: none; stroke: #262626; stroke-width: 1.5; stroke-linecap: round"/>
   </g>
   <g id="line2d_26"/>
   <g id="line2d_27">
    <path d="M 83.665545 201.171229 
L 159.40558 201.171229 
" clip-path="url(#pfa54d136a0)" style="fill: none; stroke: #262626; stroke-width: 1.5; stroke-linecap: round"/>
   </g>
   <g id="line2d_28">
    <path d="M 160.951295 165.504183 
L 236.69133 165.504183 
" clip-path="url(#pfa54d136a0)" style="fill: none; stroke: #262626; stroke-width: 1.5; stroke-linecap: round"/>
   </g>
   <g id="line2d_29">
    <path d="M 276.87992 154.505687 
L 352.619955 154.505687 
" clip-path="url(#pfa54d136a0)" style="fill: none; stroke: #262626; stroke-width: 1.5; stroke-linecap: round"/>
   </g>
   <g id="line2d_30">
    <path d="M 354.16567 216.625563 
L 429.905705 216.625563 
" clip-path="url(#pfa54d136a0)" style="fill: none; stroke: #262626; stroke-width: 1.5; stroke-linecap: round"/>
   </g>
   <g id="patch_9">
    <path d="M 63.57125 303.64 
L 63.57125 10.8 
" style="fill: none; stroke: #cccccc; stroke-width: 0.8; stroke-linejoin: miter; stroke-linecap: square"/>
   </g>
   <g id="patch_10">
    <path d="M 450 303.64 
L 450 10.8 
" style="fill: none; stroke: #cccccc; stroke-width: 0.8; stroke-linejoin: miter; stroke-linecap: square"/>
   </g>
   <g id="patch_11">
    <path d="M 63.57125 303.64 
L 450 303.64 
" style="fill: none; stroke: #cccccc; stroke-width: 0.8; stroke-linejoin: miter; stroke-linecap: square"/>
   </g>
   <g id="patch_12">
    <path d="M 63.57125 10.8 
L 450 10.8 
" style="fill: none; stroke: #cccccc; stroke-width: 0.8; stroke-linejoin: miter; stroke-linecap: square"/>
   </g>
   <g id="PathCollection_3">
    <defs>
     <path id="C0_0_657a6fa903" d="M 0 1 
C 0.265203 1 0.51958 0.894634 0.707107 0.707107 
C 0.894634 0.51958 1 0.265203 1 -0 
C 1 -0.265203 0.894634 -0.51958 0.707107 -0.707107 
C 0.51958 -0.894634 0.265203 -1 0 -1 
C -0.265203 -1 -0.51958 -0.894634 -0.707107 -0.707107 
C -0.894634 -0.51958 -1 -0.265203 -1 0 
C -1 0.265203 -0.894634 0.51958 -0.707107 0.707107 
C -0.51958 0.894634 -0.265203 1 0 1 
z
"/>
    </defs>
    <g clip-path="url(#pfa54d136a0)">
     <use xlink:href="#C0_0_657a6fa903" x="119.052325" y="192.94686" style="fill: #262626"/>
    </g>
    <g clip-path="url(#pfa54d136a0)">
     <use xlink:href="#C0_0_657a6fa903" x="119.051146" y="277.934377" style="fill: #262626"/>
    </g>
    <g clip-path="url(#pfa54d136a0)">
     <use xlink:href="#C0_0_657a6fa903" x="115.430656" y="170.184668" style="fill: #262626"/>
    </g>
    <g clip-path="url(#pfa54d136a0)">
     <use xlink:href="#C0_0_657a6fa903" x="129.930131" y="155.769494" style="fill: #262626"/>
    </g>
    <g clip-path="url(#pfa54d136a0)">
     <use xlink:href="#C0_0_657a6fa903" x="130.845054" y="133.462394" style="fill: #262626"/>
    </g>
    <g clip-path="url(#pfa54d136a0)">
     <use xlink:href="#C0_0_657a6fa903" x="126.842166" y="224.721885" style="fill: #262626"/>
    </g>
    <g clip-path="url(#pfa54d136a0)">
     <use xlink:href="#C0_0_657a6fa903" x="119.060589" y="175.190456" style="fill: #262626"/>
    </g>
    <g clip-path="url(#pfa54d136a0)">
     <use xlink:href="#C0_0_657a6fa903" x="124.611983" y="165.665049" style="fill: #262626"/>
    </g>
    <g clip-path="url(#pfa54d136a0)">
     <use xlink:href="#C0_0_657a6fa903" x="122.646444" y="181.174059" style="fill: #262626"/>
    </g>
    <g clip-path="url(#pfa54d136a0)">
     <use xlink:href="#C0_0_657a6fa903" x="130.18642" y="216.345847" style="fill: #262626"/>
    </g>
    <g clip-path="url(#pfa54d136a0)">
     <use xlink:href="#C0_0_657a6fa903" x="115.440694" y="235.11231" style="fill: #262626"/>
    </g>
    <g clip-path="url(#pfa54d136a0)">
     <use xlink:href="#C0_0_657a6fa903" x="116.92148" y="193.422672" style="fill: #262626"/>
    </g>
    <g clip-path="url(#pfa54d136a0)">
     <use xlink:href="#C0_0_657a6fa903" x="126.658128" y="211.461928" style="fill: #262626"/>
    </g>
    <g clip-path="url(#pfa54d136a0)">
     <use xlink:href="#C0_0_657a6fa903" x="125.444279" y="241.099495" style="fill: #262626"/>
    </g>
    <g clip-path="url(#pfa54d136a0)">
     <use xlink:href="#C0_0_657a6fa903" x="116.64257" y="206.452736" style="fill: #262626"/>
    </g>
    <g clip-path="url(#pfa54d136a0)">
     <use xlink:href="#C0_0_657a6fa903" x="122.556533" y="236.485604" style="fill: #262626"/>
    </g>
    <g clip-path="url(#pfa54d136a0)">
     <use xlink:href="#C0_0_657a6fa903" x="115.637072" y="192.118324" style="fill: #262626"/>
    </g>
    <g clip-path="url(#pfa54d136a0)">
     <use xlink:href="#C0_0_657a6fa903" x="119.633597" y="160.372609" style="fill: #262626"/>
    </g>
    <g clip-path="url(#pfa54d136a0)">
     <use xlink:href="#C0_0_657a6fa903" x="123.335631" y="289.608258" style="fill: #262626"/>
    </g>
    <g clip-path="url(#pfa54d136a0)">
     <use xlink:href="#C0_0_657a6fa903" x="117.136833" y="170.655273" style="fill: #262626"/>
    </g>
    <g clip-path="url(#pfa54d136a0)">
     <use xlink:href="#C0_0_657a6fa903" x="120.068377" y="252.299868" style="fill: #262626"/>
    </g>
    <g clip-path="url(#pfa54d136a0)">
     <use xlink:href="#C0_0_657a6fa903" x="118.298439" y="204.756796" style="fill: #262626"/>
    </g>
    <g clip-path="url(#pfa54d136a0)">
     <use xlink:href="#C0_0_657a6fa903" x="129.977478" y="182.78011" style="fill: #262626"/>
    </g>
    <g clip-path="url(#pfa54d136a0)">
     <use xlink:href="#C0_0_657a6fa903" x="120.526589" y="281.804489" style="fill: #262626"/>
    </g>
    <g clip-path="url(#pfa54d136a0)">
     <use xlink:href="#C0_0_657a6fa903" x="117.617711" y="182.409066" style="fill: #262626"/>
    </g>
    <g clip-path="url(#pfa54d136a0)">
     <use xlink:href="#C0_0_657a6fa903" x="125.89388" y="271.409952" style="fill: #262626"/>
    </g>
    <g clip-path="url(#pfa54d136a0)">
     <use xlink:href="#C0_0_657a6fa903" x="121.495572" y="167.956514" style="fill: #262626"/>
    </g>
    <g clip-path="url(#pfa54d136a0)">
     <use xlink:href="#C0_0_657a6fa903" x="120.645356" y="253.314797" style="fill: #262626"/>
    </g>
    <g clip-path="url(#pfa54d136a0)">
     <use xlink:href="#C0_0_657a6fa903" x="128.38593" y="233.912539" style="fill: #262626"/>
    </g>
    <g clip-path="url(#pfa54d136a0)">
     <use xlink:href="#C0_0_657a6fa903" x="124.024279" y="190.259315" style="fill: #262626"/>
    </g>
    <g clip-path="url(#pfa54d136a0)">
     <use xlink:href="#C0_0_657a6fa903" x="128.314665" y="170.202983" style="fill: #262626"/>
    </g>
    <g clip-path="url(#pfa54d136a0)">
     <use xlink:href="#C0_0_657a6fa903" x="112.292506" y="221.116896" style="fill: #262626"/>
    </g>
    <g clip-path="url(#pfa54d136a0)">
     <use xlink:href="#C0_0_657a6fa903" x="121.406348" y="152.870148" style="fill: #262626"/>
    </g>
    <g clip-path="url(#pfa54d136a0)">
     <use xlink:href="#C0_0_657a6fa903" x="123.064994" y="238.294685" style="fill: #262626"/>
    </g>
    <g clip-path="url(#pfa54d136a0)">
     <use xlink:href="#C0_0_657a6fa903" x="117.333558" y="222.540275" style="fill: #262626"/>
    </g>
    <g clip-path="url(#pfa54d136a0)">
     <use xlink:href="#C0_0_657a6fa903" x="121.052536" y="305.646095" style="fill: #262626"/>
    </g>
    <g clip-path="url(#pfa54d136a0)">
     <use xlink:href="#C0_0_657a6fa903" x="126.866966" y="197.585662" style="fill: #262626"/>
    </g>
    <g clip-path="url(#pfa54d136a0)">
     <use xlink:href="#C0_0_657a6fa903" x="121.822805" y="169.919597" style="fill: #262626"/>
    </g>
    <g clip-path="url(#pfa54d136a0)">
     <use xlink:href="#C0_0_657a6fa903" x="119.278639" y="179.850369" style="fill: #262626"/>
    </g>
    <g clip-path="url(#pfa54d136a0)">
     <use xlink:href="#C0_0_657a6fa903" x="112.42265" y="278.545882" style="fill: #262626"/>
    </g>
    <g clip-path="url(#pfa54d136a0)">
     <use xlink:href="#C0_0_657a6fa903" x="123.415984" y="146.272659" style="fill: #262626"/>
    </g>
    <g clip-path="url(#pfa54d136a0)">
     <use xlink:href="#C0_0_657a6fa903" x="120.052881" y="209.031073" style="fill: #262626"/>
    </g>
    <g clip-path="url(#pfa54d136a0)">
     <use xlink:href="#C0_0_657a6fa903" x="121.709393" y="157.341843" style="fill: #262626"/>
    </g>
    <g clip-path="url(#pfa54d136a0)">
     <use xlink:href="#C0_0_657a6fa903" x="112.541132" y="206.819937" style="fill: #262626"/>
    </g>
    <g clip-path="url(#pfa54d136a0)">
     <use xlink:href="#C0_0_657a6fa903" x="127.512183" y="154.02942" style="fill: #262626"/>
    </g>
    <g clip-path="url(#pfa54d136a0)">
     <use xlink:href="#C0_0_657a6fa903" x="113.359628" y="248.391991" style="fill: #262626"/>
    </g>
   </g>
   <g id="PathCollection_4">
    <defs>
     <path id="C1_0_6757feecbc" d="M 0 1 
C 0.265203 1 0.51958 0.894634 0.707107 0.707107 
C 0.894634 0.51958 1 0.265203 1 -0 
C 1 -0.265203 0.894634 -0.51958 0.707107 -0.707107 
C 0.51958 -0.894634 0.265203 -1 0 -1 
C -0.265203 -1 -0.51958 -0.894634 -0.707107 -0.707107 
C -0.894634 -0.51958 -1 -0.265203 -1 0 
C -1 0.265203 -0.894634 0.51958 -0.707107 0.707107 
C -0.51958 0.894634 -0.265203 1 0 1 
z
"/>
    </defs>
    <g clip-path="url(#pfa54d136a0)">
     <use xlink:href="#C1_0_6757feecbc" x="205.245687" y="176.000266"/>
    </g>
    <g clip-path="url(#pfa54d136a0)">
     <use xlink:href="#C1_0_6757feecbc" x="205.496138" y="158.024169"/>
    </g>
    <g clip-path="url(#pfa54d136a0)">
     <use xlink:href="#C1_0_6757feecbc" x="199.328019" y="191.782265"/>
    </g>
    <g clip-path="url(#pfa54d136a0)">
     <use xlink:href="#C1_0_6757feecbc" x="195.952843" y="149.493632"/>
    </g>
    <g clip-path="url(#pfa54d136a0)">
     <use xlink:href="#C1_0_6757feecbc" x="206.439065" y="162.387923"/>
    </g>
    <g clip-path="url(#pfa54d136a0)">
     <use xlink:href="#C1_0_6757feecbc" x="196.283244" y="83.361612"/>
    </g>
    <g clip-path="url(#pfa54d136a0)">
     <use xlink:href="#C1_0_6757feecbc" x="203.362904" y="119.232092"/>
    </g>
    <g clip-path="url(#pfa54d136a0)">
     <use xlink:href="#C1_0_6757feecbc" x="194.177545" y="168.620443"/>
    </g>
    <g clip-path="url(#pfa54d136a0)">
     <use xlink:href="#C1_0_6757feecbc" x="195.402539" y="81.572324"/>
    </g>
    <g clip-path="url(#pfa54d136a0)">
     <use xlink:href="#C1_0_6757feecbc" x="192.490535" y="192.880279"/>
    </g>
    <g clip-path="url(#pfa54d136a0)">
     <use xlink:href="#C1_0_6757feecbc" x="204.457107" y="185.405471"/>
    </g>
    <g clip-path="url(#pfa54d136a0)">
     <use xlink:href="#C1_0_6757feecbc" x="206.702376" y="212.203221"/>
    </g>
    <g clip-path="url(#pfa54d136a0)">
     <use xlink:href="#C1_0_6757feecbc" x="193.044825" y="183.751162"/>
    </g>
    <g clip-path="url(#pfa54d136a0)">
     <use xlink:href="#C1_0_6757feecbc" x="191.528008" y="181.728061"/>
    </g>
    <g clip-path="url(#pfa54d136a0)">
     <use xlink:href="#C1_0_6757feecbc" x="197.58918" y="145.964844"/>
    </g>
    <g clip-path="url(#pfa54d136a0)">
     <use xlink:href="#C1_0_6757feecbc" x="190.562352" y="138.411496"/>
    </g>
    <g clip-path="url(#pfa54d136a0)">
     <use xlink:href="#C1_0_6757feecbc" x="190.694769" y="63.698854"/>
    </g>
    <g clip-path="url(#pfa54d136a0)">
     <use xlink:href="#C1_0_6757feecbc" x="205.758224" y="218.488102"/>
    </g>
    <g clip-path="url(#pfa54d136a0)">
     <use xlink:href="#C1_0_6757feecbc" x="200.733397" y="161.085673"/>
    </g>
    <g clip-path="url(#pfa54d136a0)">
     <use xlink:href="#C1_0_6757feecbc" x="192.674397" y="225.901223"/>
    </g>
    <g clip-path="url(#pfa54d136a0)">
     <use xlink:href="#C1_0_6757feecbc" x="198.306423" y="90.547853"/>
    </g>
    <g clip-path="url(#pfa54d136a0)">
     <use xlink:href="#C1_0_6757feecbc" x="194.130675" y="174.029534"/>
    </g>
   </g>
   <g id="PathCollection_5">
    <defs>
     <path id="C2_0_286a7671e0" d="M 0 1 
C 0.265203 1 0.51958 0.894634 0.707107 0.707107 
C 0.894634 0.51958 1 0.265203 1 -0 
C 1 -0.265203 0.894634 -0.51958 0.707107 -0.707107 
C 0.51958 -0.894634 0.265203 -1 0 -1 
C -0.265203 -1 -0.51958 -0.894634 -0.707107 -0.707107 
C -0.894634 -0.51958 -1 -0.265203 -1 0 
C -1 0.265203 -0.894634 0.51958 -0.707107 0.707107 
C -0.51958 0.894634 -0.265203 1 0 1 
z
"/>
    </defs>
    <g clip-path="url(#pfa54d136a0)">
     <use xlink:href="#C2_0_286a7671e0" x="316.137042" y="116.874036" style="fill: #262626"/>
    </g>
    <g clip-path="url(#pfa54d136a0)">
     <use xlink:href="#C2_0_286a7671e0" x="310.173054" y="127.931983" style="fill: #262626"/>
    </g>
    <g clip-path="url(#pfa54d136a0)">
     <use xlink:href="#C2_0_286a7671e0" x="312.219135" y="138.183398" style="fill: #262626"/>
    </g>
    <g clip-path="url(#pfa54d136a0)">
     <use xlink:href="#C2_0_286a7671e0" x="319.788055" y="108.662693" style="fill: #262626"/>
    </g>
    <g clip-path="url(#pfa54d136a0)">
     <use xlink:href="#C2_0_286a7671e0" x="310.304836" y="212.945093" style="fill: #262626"/>
    </g>
    <g clip-path="url(#pfa54d136a0)">
     <use xlink:href="#C2_0_286a7671e0" x="318.96559" y="217.401619" style="fill: #262626"/>
    </g>
    <g clip-path="url(#pfa54d136a0)">
     <use xlink:href="#C2_0_286a7671e0" x="311.84242" y="108.900611" style="fill: #262626"/>
    </g>
    <g clip-path="url(#pfa54d136a0)">
     <use xlink:href="#C2_0_286a7671e0" x="309.63423" y="179.739898" style="fill: #262626"/>
    </g>
    <g clip-path="url(#pfa54d136a0)">
     <use xlink:href="#C2_0_286a7671e0" x="322.426569" y="180.464126" style="fill: #262626"/>
    </g>
    <g clip-path="url(#pfa54d136a0)">
     <use xlink:href="#C2_0_286a7671e0" x="321.958074" y="212.342344" style="fill: #262626"/>
    </g>
    <g clip-path="url(#pfa54d136a0)">
     <use xlink:href="#C2_0_286a7671e0" x="316.918599" y="127.181084" style="fill: #262626"/>
    </g>
    <g clip-path="url(#pfa54d136a0)">
     <use xlink:href="#C2_0_286a7671e0" x="308.493998" y="130.802063" style="fill: #262626"/>
    </g>
    <g clip-path="url(#pfa54d136a0)">
     <use xlink:href="#C2_0_286a7671e0" x="320.990588" y="267.617772" style="fill: #262626"/>
    </g>
    <g clip-path="url(#pfa54d136a0)">
     <use xlink:href="#C2_0_286a7671e0" x="320.03969" y="110.753718" style="fill: #262626"/>
    </g>
    <g clip-path="url(#pfa54d136a0)">
     <use xlink:href="#C2_0_286a7671e0" x="322.588398" y="200.189235" style="fill: #262626"/>
    </g>
    <g clip-path="url(#pfa54d136a0)">
     <use xlink:href="#C2_0_286a7671e0" x="306.892207" y="141.013774" style="fill: #262626"/>
    </g>
    <g clip-path="url(#pfa54d136a0)">
     <use xlink:href="#C2_0_286a7671e0" x="319.21288" y="155.495166" style="fill: #262626"/>
    </g>
    <g clip-path="url(#pfa54d136a0)">
     <use xlink:href="#C2_0_286a7671e0" x="317.239187" y="254.655652" style="fill: #262626"/>
    </g>
    <g clip-path="url(#pfa54d136a0)">
     <use xlink:href="#C2_0_286a7671e0" x="305.367623" y="37.421818" style="fill: #262626"/>
    </g>
    <g clip-path="url(#pfa54d136a0)">
     <use xlink:href="#C2_0_286a7671e0" x="323.9894" y="106.151853" style="fill: #262626"/>
    </g>
    <g clip-path="url(#pfa54d136a0)">
     <use xlink:href="#C2_0_286a7671e0" x="312.507696" y="245.525623" style="fill: #262626"/>
    </g>
    <g clip-path="url(#pfa54d136a0)">
     <use xlink:href="#C2_0_286a7671e0" x="316.664096" y="93.049424" style="fill: #262626"/>
    </g>
    <g clip-path="url(#pfa54d136a0)">
     <use xlink:href="#C2_0_286a7671e0" x="306.622041" y="116.916777" style="fill: #262626"/>
    </g>
    <g clip-path="url(#pfa54d136a0)">
     <use xlink:href="#C2_0_286a7671e0" x="320.897174" y="143.756973" style="fill: #262626"/>
    </g>
    <g clip-path="url(#pfa54d136a0)">
     <use xlink:href="#C2_0_286a7671e0" x="313.664473" y="154.505687" style="fill: #262626"/>
    </g>
    <g clip-path="url(#pfa54d136a0)">
     <use xlink:href="#C2_0_286a7671e0" x="322.169766" y="125.632807" style="fill: #262626"/>
    </g>
    <g clip-path="url(#pfa54d136a0)">
     <use xlink:href="#C2_0_286a7671e0" x="309.5767" y="193.179363" style="fill: #262626"/>
    </g>
    <g clip-path="url(#pfa54d136a0)">
     <use xlink:href="#C2_0_286a7671e0" x="314.816085" y="310.365506" style="fill: #262626"/>
    </g>
    <g clip-path="url(#pfa54d136a0)">
     <use xlink:href="#C2_0_286a7671e0" x="314.983079" y="184.855967" style="fill: #262626"/>
    </g>
    <g clip-path="url(#pfa54d136a0)">
     <use xlink:href="#C2_0_286a7671e0" x="322.361312" y="184.866954" style="fill: #262626"/>
    </g>
    <g clip-path="url(#pfa54d136a0)">
     <use xlink:href="#C2_0_286a7671e0" x="307.658299" y="135.359357" style="fill: #262626"/>
    </g>
    <g clip-path="url(#pfa54d136a0)">
     <use xlink:href="#C2_0_286a7671e0" x="321.550108" y="135.783533" style="fill: #262626"/>
    </g>
    <g clip-path="url(#pfa54d136a0)">
     <use xlink:href="#C2_0_286a7671e0" x="315.666099" y="173.177315" style="fill: #262626"/>
    </g>
    <g clip-path="url(#pfa54d136a0)">
     <use xlink:href="#C2_0_286a7671e0" x="314.788137" y="157.94503" style="fill: #262626"/>
    </g>
    <g clip-path="url(#pfa54d136a0)">
     <use xlink:href="#C2_0_286a7671e0" x="319.686334" y="177.959714" style="fill: #262626"/>
    </g>
    <g clip-path="url(#pfa54d136a0)">
     <use xlink:href="#C2_0_286a7671e0" x="322.525625" y="91.295185" style="fill: #262626"/>
    </g>
    <g clip-path="url(#pfa54d136a0)">
     <use xlink:href="#C2_0_286a7671e0" x="323.16018" y="185.890308" style="fill: #262626"/>
    </g>
    <g clip-path="url(#pfa54d136a0)">
     <use xlink:href="#C2_0_286a7671e0" x="322.491848" y="107.245328" style="fill: #262626"/>
    </g>
    <g clip-path="url(#pfa54d136a0)">
     <use xlink:href="#C2_0_286a7671e0" x="316.906926" y="156.719655" style="fill: #262626"/>
    </g>
    <g clip-path="url(#pfa54d136a0)">
     <use xlink:href="#C2_0_286a7671e0" x="311.709595" y="92.162081" style="fill: #262626"/>
    </g>
    <g clip-path="url(#pfa54d136a0)">
     <use xlink:href="#C2_0_286a7671e0" x="307.769852" y="219.739336" style="fill: #262626"/>
    </g>
    <g clip-path="url(#pfa54d136a0)">
     <use xlink:href="#C2_0_286a7671e0" x="314.226016" y="142.009683" style="fill: #262626"/>
    </g>
    <g clip-path="url(#pfa54d136a0)">
     <use xlink:href="#C2_0_286a7671e0" x="309.451058" y="131.300929" style="fill: #262626"/>
    </g>
    <g clip-path="url(#pfa54d136a0)">
     <use xlink:href="#C2_0_286a7671e0" x="310.795717" y="227.888323" style="fill: #262626"/>
    </g>
    <g clip-path="url(#pfa54d136a0)">
     <use xlink:href="#C2_0_286a7671e0" x="311.712263" y="168.297454" style="fill: #262626"/>
    </g>
    <g clip-path="url(#pfa54d136a0)">
     <use xlink:href="#C2_0_286a7671e0" x="308.039751" y="165.7432" style="fill: #262626"/>
    </g>
    <g clip-path="url(#pfa54d136a0)">
     <use xlink:href="#C2_0_286a7671e0" x="317.832931" y="106.597002" style="fill: #262626"/>
    </g>
   </g>
   <g id="PathCollection_6">
    <defs>
     <path id="C3_0_90dc8cfa1a" d="M 0 1 
C 0.265203 1 0.51958 0.894634 0.707107 0.707107 
C 0.894634 0.51958 1 0.265203 1 -0 
C 1 -0.265203 0.894634 -0.51958 0.707107 -0.707107 
C 0.51958 -0.894634 0.265203 -1 0 -1 
C -0.265203 -1 -0.51958 -0.894634 -0.707107 -0.707107 
C -0.894634 -0.51958 -1 -0.265203 -1 0 
C -1 0.265203 -0.894634 0.51958 -0.707107 0.707107 
C -0.51958 0.894634 -0.265203 1 0 1 
z
"/>
    </defs>
    <g clip-path="url(#pfa54d136a0)">
     <use xlink:href="#C3_0_90dc8cfa1a" x="400.278628" y="236.761311"/>
    </g>
    <g clip-path="url(#pfa54d136a0)">
     <use xlink:href="#C3_0_90dc8cfa1a" x="393.218857" y="216.625563"/>
    </g>
    <g clip-path="url(#pfa54d136a0)">
     <use xlink:href="#C3_0_90dc8cfa1a" x="389.197776" y="140.088153"/>
    </g>
    <g clip-path="url(#pfa54d136a0)">
     <use xlink:href="#C3_0_90dc8cfa1a" x="394.012505" y="256.177474"/>
    </g>
    <g clip-path="url(#pfa54d136a0)">
     <use xlink:href="#C3_0_90dc8cfa1a" x="393.950841" y="226.620933"/>
    </g>
    <g clip-path="url(#pfa54d136a0)">
     <use xlink:href="#C3_0_90dc8cfa1a" x="384.567372" y="171.69207"/>
    </g>
    <g clip-path="url(#pfa54d136a0)">
     <use xlink:href="#C3_0_90dc8cfa1a" x="385.259907" y="145.245626"/>
    </g>
    <g clip-path="url(#pfa54d136a0)">
     <use xlink:href="#C3_0_90dc8cfa1a" x="395.624409" y="251.668597"/>
    </g>
    <g clip-path="url(#pfa54d136a0)">
     <use xlink:href="#C3_0_90dc8cfa1a" x="393.809677" y="181.569204"/>
    </g>
   </g>
   <g id="text_11">
    <!-- 46 -->
    <g style="fill: #262626" transform="translate(131.196281 303.59928)scale(0.1 -0.1)">
     <use xlink:href="#DejaVuSans-34"/>
     <use xlink:href="#DejaVuSans-36" x="63.623047"/>
    </g>
   </g>
   <g id="text_12">
    <!-- p=4.942358609099319e-05 -->
    <g style="fill: #262626" transform="translate(74.319406 133.46116)scale(0.08 -0.08)">
     <defs>
      <path id="DejaVuSans-70" d="M 1159 525 
L 1159 -1331 
L 581 -1331 
L 581 3500 
L 1159 3500 
L 1159 2969 
Q 1341 3281 1617 3432 
Q 1894 3584 2278 3584 
Q 2916 3584 3314 3078 
Q 3713 2572 3713 1747 
Q 3713 922 3314 415 
Q 2916 -91 2278 -91 
Q 1894 -91 1617 61 
Q 1341 213 1159 525 
z
M 3116 1747 
Q 3116 2381 2855 2742 
Q 2594 3103 2138 3103 
Q 1681 3103 1420 2742 
Q 1159 2381 1159 1747 
Q 1159 1113 1420 752 
Q 1681 391 2138 391 
Q 2594 391 2855 752 
Q 3116 1113 3116 1747 
z
" transform="scale(0.015625)"/>
      <path id="DejaVuSans-3d" d="M 678 2906 
L 4684 2906 
L 4684 2381 
L 678 2381 
L 678 2906 
z
M 678 1631 
L 4684 1631 
L 4684 1100 
L 678 1100 
L 678 1631 
z
" transform="scale(0.015625)"/>
      <path id="DejaVuSans-2e" d="M 684 794 
L 1344 794 
L 1344 0 
L 684 0 
L 684 794 
z
" transform="scale(0.015625)"/>
      <path id="DejaVuSans-39" d="M 703 97 
L 703 672 
Q 941 559 1184 500 
Q 1428 441 1663 441 
Q 2288 441 2617 861 
Q 2947 1281 2994 2138 
Q 2813 1869 2534 1725 
Q 2256 1581 1919 1581 
Q 1219 1581 811 2004 
Q 403 2428 403 3163 
Q 403 3881 828 4315 
Q 1253 4750 1959 4750 
Q 2769 4750 3195 4129 
Q 3622 3509 3622 2328 
Q 3622 1225 3098 567 
Q 2575 -91 1691 -91 
Q 1453 -91 1209 -44 
Q 966 3 703 97 
z
M 1959 2075 
Q 2384 2075 2632 2365 
Q 2881 2656 2881 3163 
Q 2881 3666 2632 3958 
Q 2384 4250 1959 4250 
Q 1534 4250 1286 3958 
Q 1038 3666 1038 3163 
Q 1038 2656 1286 2365 
Q 1534 2075 1959 2075 
z
" transform="scale(0.015625)"/>
      <path id="DejaVuSans-33" d="M 2597 2516 
Q 3050 2419 3304 2112 
Q 3559 1806 3559 1356 
Q 3559 666 3084 287 
Q 2609 -91 1734 -91 
Q 1441 -91 1130 -33 
Q 819 25 488 141 
L 488 750 
Q 750 597 1062 519 
Q 1375 441 1716 441 
Q 2309 441 2620 675 
Q 2931 909 2931 1356 
Q 2931 1769 2642 2001 
Q 2353 2234 1838 2234 
L 1294 2234 
L 1294 2753 
L 1863 2753 
Q 2328 2753 2575 2939 
Q 2822 3125 2822 3475 
Q 2822 3834 2567 4026 
Q 2313 4219 1838 4219 
Q 1578 4219 1281 4162 
Q 984 4106 628 3988 
L 628 4550 
Q 988 4650 1302 4700 
Q 1616 4750 1894 4750 
Q 2613 4750 3031 4423 
Q 3450 4097 3450 3541 
Q 3450 3153 3228 2886 
Q 3006 2619 2597 2516 
z
" transform="scale(0.015625)"/>
      <path id="DejaVuSans-35" d="M 691 4666 
L 3169 4666 
L 3169 4134 
L 1269 4134 
L 1269 2991 
Q 1406 3038 1543 3061 
Q 1681 3084 1819 3084 
Q 2600 3084 3056 2656 
Q 3513 2228 3513 1497 
Q 3513 744 3044 326 
Q 2575 -91 1722 -91 
Q 1428 -91 1123 -41 
Q 819 9 494 109 
L 494 744 
Q 775 591 1075 516 
Q 1375 441 1709 441 
Q 2250 441 2565 725 
Q 2881 1009 2881 1497 
Q 2881 1984 2565 2268 
Q 2250 2553 1709 2553 
Q 1456 2553 1204 2497 
Q 953 2441 691 2322 
L 691 4666 
z
" transform="scale(0.015625)"/>
      <path id="DejaVuSans-2d" d="M 313 2009 
L 1997 2009 
L 1997 1497 
L 313 1497 
L 313 2009 
z
" transform="scale(0.015625)"/>
     </defs>
     <use xlink:href="#DejaVuSans-70"/>
     <use xlink:href="#DejaVuSans-3d" x="63.476562"/>
     <use xlink:href="#DejaVuSans-34" x="147.265625"/>
     <use xlink:href="#DejaVuSans-2e" x="210.888672"/>
     <use xlink:href="#DejaVuSans-39" x="242.675781"/>
     <use xlink:href="#DejaVuSans-34" x="306.298828"/>
     <use xlink:href="#DejaVuSans-32" x="369.921875"/>
     <use xlink:href="#DejaVuSans-33" x="433.544922"/>
     <use xlink:href="#DejaVuSans-35" x="497.167969"/>
     <use xlink:href="#DejaVuSans-38" x="560.791016"/>
     <use xlink:href="#DejaVuSans-36" x="624.414062"/>
     <use xlink:href="#DejaVuSans-30" x="688.037109"/>
     <use xlink:href="#DejaVuSans-39" x="751.660156"/>
     <use xlink:href="#DejaVuSans-30" x="815.283203"/>
     <use xlink:href="#DejaVuSans-39" x="878.90625"/>
     <use xlink:href="#DejaVuSans-39" x="942.529297"/>
     <use xlink:href="#DejaVuSans-33" x="1006.152344"/>
     <use xlink:href="#DejaVuSans-31" x="1069.775391"/>
     <use xlink:href="#DejaVuSans-39" x="1133.398438"/>
     <use xlink:href="#DejaVuSans-65" x="1197.021484"/>
     <use xlink:href="#DejaVuSans-2d" x="1258.544922"/>
     <use xlink:href="#DejaVuSans-30" x="1294.628906"/>
     <use xlink:href="#DejaVuSans-35" x="1358.251953"/>
    </g>
   </g>
   <g id="text_13">
    <!-- 22 -->
    <g style="fill: #262626" transform="translate(189.160594 303.59928)scale(0.1 -0.1)">
     <use xlink:href="#DejaVuSans-32"/>
     <use xlink:href="#DejaVuSans-32" x="63.623047"/>
    </g>
   </g>
   <g id="text_14">
    <!-- 47 -->
    <g style="fill: #262626" transform="translate(324.410656 303.59928)scale(0.1 -0.1)">
     <defs>
      <path id="DejaVuSans-37" d="M 525 4666 
L 3525 4666 
L 3525 4397 
L 1831 0 
L 1172 0 
L 2766 4134 
L 525 4134 
L 525 4666 
z
" transform="scale(0.015625)"/>
     </defs>
     <use xlink:href="#DejaVuSans-34"/>
     <use xlink:href="#DejaVuSans-37" x="63.623047"/>
    </g>
   </g>
   <g id="text_15">
    <!-- p=0.023175068227445077 -->
    <g style="fill: #262626" transform="translate(268.893156 37.420584)scale(0.08 -0.08)">
     <use xlink:href="#DejaVuSans-70"/>
     <use xlink:href="#DejaVuSans-3d" x="63.476562"/>
     <use xlink:href="#DejaVuSans-30" x="147.265625"/>
     <use xlink:href="#DejaVuSans-2e" x="210.888672"/>
     <use xlink:href="#DejaVuSans-30" x="242.675781"/>
     <use xlink:href="#DejaVuSans-32" x="306.298828"/>
     <use xlink:href="#DejaVuSans-33" x="369.921875"/>
     <use xlink:href="#DejaVuSans-31" x="433.544922"/>
     <use xlink:href="#DejaVuSans-37" x="497.167969"/>
     <use xlink:href="#DejaVuSans-35" x="560.791016"/>
     <use xlink:href="#DejaVuSans-30" x="624.414062"/>
     <use xlink:href="#DejaVuSans-36" x="688.037109"/>
     <use xlink:href="#DejaVuSans-38" x="751.660156"/>
     <use xlink:href="#DejaVuSans-32" x="815.283203"/>
     <use xlink:href="#DejaVuSans-32" x="878.90625"/>
     <use xlink:href="#DejaVuSans-37" x="942.529297"/>
     <use xlink:href="#DejaVuSans-34" x="1006.152344"/>
     <use xlink:href="#DejaVuSans-34" x="1069.775391"/>
     <use xlink:href="#DejaVuSans-35" x="1133.398438"/>
     <use xlink:href="#DejaVuSans-30" x="1197.021484"/>
     <use xlink:href="#DejaVuSans-37" x="1260.644531"/>
     <use xlink:href="#DejaVuSans-37" x="1324.267578"/>
    </g>
   </g>
   <g id="text_16">
    <!-- 9 -->
    <g style="fill: #262626" transform="translate(382.374969 303.59928)scale(0.1 -0.1)">
     <use xlink:href="#DejaVuSans-39"/>
    </g>
   </g>
   <g id="legend_1">
    <g id="patch_13">
     <path d="M 377.728125 27.398438 
L 397.728125 27.398438 
L 397.728125 20.398438 
L 377.728125 20.398438 
z
" style="fill: #ecf2ec; stroke: #262626; stroke-width: 0.75; stroke-linejoin: miter"/>
    </g>
    <g id="text_17">
     <!-- Mutant -->
     <g style="fill: #262626" transform="translate(405.728125 27.398438)scale(0.1 -0.1)">
      <defs>
       <path id="DejaVuSans-4d" d="M 628 4666 
L 1569 4666 
L 2759 1491 
L 3956 4666 
L 4897 4666 
L 4897 0 
L 4281 0 
L 4281 4097 
L 3078 897 
L 2444 897 
L 1241 4097 
L 1241 0 
L 628 0 
L 628 4666 
z
" transform="scale(0.015625)"/>
       <path id="DejaVuSans-61" d="M 2194 1759 
Q 1497 1759 1228 1600 
Q 959 1441 959 1056 
Q 959 750 1161 570 
Q 1363 391 1709 391 
Q 2188 391 2477 730 
Q 2766 1069 2766 1631 
L 2766 1759 
L 2194 1759 
z
M 3341 1997 
L 3341 0 
L 2766 0 
L 2766 531 
Q 2569 213 2275 61 
Q 1981 -91 1556 -91 
Q 1019 -91 701 211 
Q 384 513 384 1019 
Q 384 1609 779 1909 
Q 1175 2209 1959 2209 
L 2766 2209 
L 2766 2266 
Q 2766 2663 2505 2880 
Q 2244 3097 1772 3097 
Q 1472 3097 1187 3025 
Q 903 2953 641 2809 
L 641 3341 
Q 956 3463 1253 3523 
Q 1550 3584 1831 3584 
Q 2591 3584 2966 3190 
Q 3341 2797 3341 1997 
z
" transform="scale(0.015625)"/>
      </defs>
      <use xlink:href="#DejaVuSans-4d"/>
      <use xlink:href="#DejaVuSans-75" x="86.279297"/>
      <use xlink:href="#DejaVuSans-74" x="149.658203"/>
      <use xlink:href="#DejaVuSans-61" x="188.867188"/>
      <use xlink:href="#DejaVuSans-6e" x="250.146484"/>
      <use xlink:href="#DejaVuSans-74" x="313.525391"/>
     </g>
    </g>
    <g id="patch_14">
     <path d="M 377.728125 42.076563 
L 397.728125 42.076563 
L 397.728125 35.076563 
L 377.728125 35.076563 
z
" style="fill: #107010; stroke: #262626; stroke-width: 0.75; stroke-linejoin: miter"/>
    </g>
    <g id="text_18">
     <!-- WT -->
     <g style="fill: #262626" transform="translate(405.728125 42.076563)scale(0.1 -0.1)">
      <use xlink:href="#DejaVuSans-57"/>
      <use xlink:href="#DejaVuSans-54" x="98.876953"/>
     </g>
    </g>
   </g>
  </g>
 </g>
 <defs>
  <clipPath id="pfa54d136a0">
   <rect x="63.57125" y="10.8" width="386.42875" height="292.84"/>
  </clipPath>
 </defs>
</svg>
