<?xml version="1.0" encoding="utf-8" standalone="no"?>
<!DOCTYPE svg PUBLIC "-//W3C//DTD SVG 1.1//EN"
  "http://www.w3.org/Graphics/SVG/1.1/DTD/svg11.dtd">
<svg xmlns:xlink="http://www.w3.org/1999/xlink" width="460.8pt" height="345.6pt" viewBox="0 0 460.8 345.6" xmlns="http://www.w3.org/2000/svg" version="1.1">
 <metadata>
  <rdf:RDF xmlns:dc="http://purl.org/dc/elements/1.1/" xmlns:cc="http://creativecommons.org/ns#" xmlns:rdf="http://www.w3.org/1999/02/22-rdf-syntax-ns#">
   <cc:Work>
    <dc:type rdf:resource="http://purl.org/dc/dcmitype/StillImage"/>
    <dc:date>2024-02-03T13:08:30.110002</dc:date>
    <dc:format>image/svg+xml</dc:format>
    <dc:creator>
     <cc:Agent>
      <dc:title>Matplotlib v3.5.3, https://matplotlib.org/</dc:title>
     </cc:Agent>
    </dc:creator>
   </cc:Work>
  </rdf:RDF>
 </metadata>
 <defs>
  <style type="text/css">*{stroke-linejoin: round; stroke-linecap: butt}</style>
 </defs>
 <g id="figure_1">
  <g id="patch_1">
   <path d="M 0 345.6 
L 460.8 345.6 
L 460.8 0 
L 0 0 
z
" style="fill: #ffffff"/>
  </g>
  <g id="axes_1">
   <g id="patch_2">
    <path d="M 47.82125 303.64 
L 450 303.64 
L 450 46.675714 
L 47.82125 46.675714 
z
" style="fill: #ffffff"/>
   </g>
   <g id="PathCollection_1">
    <defs>
     <path id="m3a7885ec50" d="M 0 3 
C 0.795609 3 1.55874 2.683901 2.12132 2.12132 
C 2.683901 1.55874 3 0.795609 3 0 
C 3 -0.795609 2.683901 -1.55874 2.12132 -2.12132 
C 1.55874 -2.683901 0.795609 -3 0 -3 
C -0.795609 -3 -1.55874 -2.683901 -2.12132 -2.12132 
C -2.683901 -1.55874 -3 -0.795609 -3 0 
C -3 0.795609 -2.683901 1.55874 -2.12132 2.12132 
C -1.55874 2.683901 -0.795609 3 0 3 
z
" style="stroke: #1f77b4"/>
    </defs>
    <g clip-path="url(#p542c1b584a)">
     <use xlink:href="#m3a7885ec50" x="249.38392" y="130.959359" style="fill: #1f77b4; stroke: #1f77b4"/>
     <use xlink:href="#m3a7885ec50" x="220.159262" y="171.924963" style="fill: #1f77b4; stroke: #1f77b4"/>
     <use xlink:href="#m3a7885ec50" x="228.403677" y="149.176949" style="fill: #1f77b4; stroke: #1f77b4"/>
     <use xlink:href="#m3a7885ec50" x="186.509902" y="187.947791" style="fill: #1f77b4; stroke: #1f77b4"/>
     <use xlink:href="#m3a7885ec50" x="203.859059" y="139.330448" style="fill: #1f77b4; stroke: #1f77b4"/>
     <use xlink:href="#m3a7885ec50" x="231.802428" y="167.588679" style="fill: #1f77b4; stroke: #1f77b4"/>
     <use xlink:href="#m3a7885ec50" x="210.635858" y="166.2892" style="fill: #1f77b4; stroke: #1f77b4"/>
     <use xlink:href="#m3a7885ec50" x="181.354842" y="178.494471" style="fill: #1f77b4; stroke: #1f77b4"/>
     <use xlink:href="#m3a7885ec50" x="249.45293" y="152.797842" style="fill: #1f77b4; stroke: #1f77b4"/>
     <use xlink:href="#m3a7885ec50" x="185.298773" y="177.873096" style="fill: #1f77b4; stroke: #1f77b4"/>
     <use xlink:href="#m3a7885ec50" x="243.75269" y="182.082324" style="fill: #1f77b4; stroke: #1f77b4"/>
     <use xlink:href="#m3a7885ec50" x="287.629358" y="176.034391" style="fill: #1f77b4; stroke: #1f77b4"/>
     <use xlink:href="#m3a7885ec50" x="193.847983" y="189.955213" style="fill: #1f77b4; stroke: #1f77b4"/>
     <use xlink:href="#m3a7885ec50" x="252.680306" y="174.970331" style="fill: #1f77b4; stroke: #1f77b4"/>
     <use xlink:href="#m3a7885ec50" x="261.035137" y="154.265689" style="fill: #1f77b4; stroke: #1f77b4"/>
     <use xlink:href="#m3a7885ec50" x="276.335843" y="159.147361" style="fill: #1f77b4; stroke: #1f77b4"/>
     <use xlink:href="#m3a7885ec50" x="207.254359" y="183.026393" style="fill: #1f77b4; stroke: #1f77b4"/>
     <use xlink:href="#m3a7885ec50" x="232.277448" y="194.624733" style="fill: #1f77b4; stroke: #1f77b4"/>
     <use xlink:href="#m3a7885ec50" x="264.601813" y="161.726601" style="fill: #1f77b4; stroke: #1f77b4"/>
     <use xlink:href="#m3a7885ec50" x="255.263586" y="185.238795" style="fill: #1f77b4; stroke: #1f77b4"/>
     <use xlink:href="#m3a7885ec50" x="263.265316" y="167.965703" style="fill: #1f77b4; stroke: #1f77b4"/>
     <use xlink:href="#m3a7885ec50" x="239.850164" y="156.852598" style="fill: #1f77b4; stroke: #1f77b4"/>
     <use xlink:href="#m3a7885ec50" x="194.474826" y="199.535406" style="fill: #1f77b4; stroke: #1f77b4"/>
     <use xlink:href="#m3a7885ec50" x="260.326633" y="219.48894" style="fill: #1f77b4; stroke: #1f77b4"/>
     <use xlink:href="#m3a7885ec50" x="254.74486" y="170.578478" style="fill: #1f77b4; stroke: #1f77b4"/>
     <use xlink:href="#m3a7885ec50" x="242.110248" y="170.72733" style="fill: #1f77b4; stroke: #1f77b4"/>
     <use xlink:href="#m3a7885ec50" x="222.99443" y="240.721089" style="fill: #1f77b4; stroke: #1f77b4"/>
     <use xlink:href="#m3a7885ec50" x="195.45707" y="162.211221" style="fill: #1f77b4; stroke: #1f77b4"/>
     <use xlink:href="#m3a7885ec50" x="247.298662" y="151.064163" style="fill: #1f77b4; stroke: #1f77b4"/>
     <use xlink:href="#m3a7885ec50" x="243.516905" y="189.935811" style="fill: #1f77b4; stroke: #1f77b4"/>
     <use xlink:href="#m3a7885ec50" x="257.302837" y="184.032157" style="fill: #1f77b4; stroke: #1f77b4"/>
     <use xlink:href="#m3a7885ec50" x="282.378834" y="131.610941" style="fill: #1f77b4; stroke: #1f77b4"/>
     <use xlink:href="#m3a7885ec50" x="220.668787" y="167.007139" style="fill: #1f77b4; stroke: #1f77b4"/>
     <use xlink:href="#m3a7885ec50" x="275.905679" y="156.469238" style="fill: #1f77b4; stroke: #1f77b4"/>
     <use xlink:href="#m3a7885ec50" x="249.358616" y="155.262336" style="fill: #1f77b4; stroke: #1f77b4"/>
     <use xlink:href="#m3a7885ec50" x="238.044398" y="266.354983" style="fill: #1f77b4; stroke: #1f77b4"/>
     <use xlink:href="#m3a7885ec50" x="260.891366" y="177.191234" style="fill: #1f77b4; stroke: #1f77b4"/>
     <use xlink:href="#m3a7885ec50" x="276.833866" y="256.43285" style="fill: #1f77b4; stroke: #1f77b4"/>
     <use xlink:href="#m3a7885ec50" x="244.36688" y="169.217148" style="fill: #1f77b4; stroke: #1f77b4"/>
     <use xlink:href="#m3a7885ec50" x="293.81957" y="180.004944" style="fill: #1f77b4; stroke: #1f77b4"/>
     <use xlink:href="#m3a7885ec50" x="320.051487" y="261.908654" style="fill: #1f77b4; stroke: #1f77b4"/>
     <use xlink:href="#m3a7885ec50" x="337.075146" y="180.005281" style="fill: #1f77b4; stroke: #1f77b4"/>
     <use xlink:href="#m3a7885ec50" x="220.498562" y="169.802284" style="fill: #1f77b4; stroke: #1f77b4"/>
     <use xlink:href="#m3a7885ec50" x="231.528688" y="182.42158" style="fill: #1f77b4; stroke: #1f77b4"/>
     <use xlink:href="#m3a7885ec50" x="338.99823" y="270.930256" style="fill: #1f77b4; stroke: #1f77b4"/>
     <use xlink:href="#m3a7885ec50" x="298.136156" y="150.160399" style="fill: #1f77b4; stroke: #1f77b4"/>
     <use xlink:href="#m3a7885ec50" x="326.419976" y="283.195248" style="fill: #1f77b4; stroke: #1f77b4"/>
     <use xlink:href="#m3a7885ec50" x="261.229516" y="139.116969" style="fill: #1f77b4; stroke: #1f77b4"/>
     <use xlink:href="#m3a7885ec50" x="207.643117" y="270.604259" style="fill: #1f77b4; stroke: #1f77b4"/>
     <use xlink:href="#m3a7885ec50" x="255.050805" y="269.815994" style="fill: #1f77b4; stroke: #1f77b4"/>
     <use xlink:href="#m3a7885ec50" x="337.796303" y="195.178023" style="fill: #1f77b4; stroke: #1f77b4"/>
     <use xlink:href="#m3a7885ec50" x="300.054639" y="217.64737" style="fill: #1f77b4; stroke: #1f77b4"/>
     <use xlink:href="#m3a7885ec50" x="230.179539" y="258.634936" style="fill: #1f77b4; stroke: #1f77b4"/>
     <use xlink:href="#m3a7885ec50" x="431.719148" y="253.437666" style="fill: #1f77b4; stroke: #1f77b4"/>
     <use xlink:href="#m3a7885ec50" x="296.654738" y="271.4894" style="fill: #1f77b4; stroke: #1f77b4"/>
     <use xlink:href="#m3a7885ec50" x="227.114337" y="263.627128" style="fill: #1f77b4; stroke: #1f77b4"/>
     <use xlink:href="#m3a7885ec50" x="302.886357" y="181.533798" style="fill: #1f77b4; stroke: #1f77b4"/>
     <use xlink:href="#m3a7885ec50" x="284.99892" y="204.464487" style="fill: #1f77b4; stroke: #1f77b4"/>
     <use xlink:href="#m3a7885ec50" x="66.102102" y="203.317478" style="fill: #1f77b4; stroke: #1f77b4"/>
     <use xlink:href="#m3a7885ec50" x="269.760323" y="206.307239" style="fill: #1f77b4; stroke: #1f77b4"/>
     <use xlink:href="#m3a7885ec50" x="337.16486" y="278.497802" style="fill: #1f77b4; stroke: #1f77b4"/>
     <use xlink:href="#m3a7885ec50" x="353.866471" y="196.12994" style="fill: #1f77b4; stroke: #1f77b4"/>
     <use xlink:href="#m3a7885ec50" x="330.934391" y="244.390679" style="fill: #1f77b4; stroke: #1f77b4"/>
     <use xlink:href="#m3a7885ec50" x="200.996287" y="210.772875" style="fill: #1f77b4; stroke: #1f77b4"/>
     <use xlink:href="#m3a7885ec50" x="248.252153" y="248.639396" style="fill: #1f77b4; stroke: #1f77b4"/>
     <use xlink:href="#m3a7885ec50" x="281.822151" y="181.085216" style="fill: #1f77b4; stroke: #1f77b4"/>
     <use xlink:href="#m3a7885ec50" x="337.207416" y="275.055682" style="fill: #1f77b4; stroke: #1f77b4"/>
     <use xlink:href="#m3a7885ec50" x="233.929092" y="183.303291" style="fill: #1f77b4; stroke: #1f77b4"/>
     <use xlink:href="#m3a7885ec50" x="337.765248" y="227.52115" style="fill: #1f77b4; stroke: #1f77b4"/>
     <use xlink:href="#m3a7885ec50" x="284.920708" y="274.578155" style="fill: #1f77b4; stroke: #1f77b4"/>
     <use xlink:href="#m3a7885ec50" x="308.284102" y="282.389961" style="fill: #1f77b4; stroke: #1f77b4"/>
     <use xlink:href="#m3a7885ec50" x="319.52931" y="239.313976" style="fill: #1f77b4; stroke: #1f77b4"/>
     <use xlink:href="#m3a7885ec50" x="286.587304" y="257.612859" style="fill: #1f77b4; stroke: #1f77b4"/>
     <use xlink:href="#m3a7885ec50" x="293.992095" y="221.241896" style="fill: #1f77b4; stroke: #1f77b4"/>
     <use xlink:href="#m3a7885ec50" x="296.67084" y="237.532741" style="fill: #1f77b4; stroke: #1f77b4"/>
     <use xlink:href="#m3a7885ec50" x="330.436368" y="226.181637" style="fill: #1f77b4; stroke: #1f77b4"/>
     <use xlink:href="#m3a7885ec50" x="307.418025" y="245.579353" style="fill: #1f77b4; stroke: #1f77b4"/>
     <use xlink:href="#m3a7885ec50" x="311.843877" y="187.269527" style="fill: #1f77b4; stroke: #1f77b4"/>
     <use xlink:href="#m3a7885ec50" x="288.344763" y="218.352188" style="fill: #1f77b4; stroke: #1f77b4"/>
     <use xlink:href="#m3a7885ec50" x="337.841159" y="267.845715" style="fill: #1f77b4; stroke: #1f77b4"/>
     <use xlink:href="#m3a7885ec50" x="309.586094" y="274.482927" style="fill: #1f77b4; stroke: #1f77b4"/>
     <use xlink:href="#m3a7885ec50" x="286.165192" y="263.890282" style="fill: #1f77b4; stroke: #1f77b4"/>
     <use xlink:href="#m3a7885ec50" x="337.187863" y="257.985404" style="fill: #1f77b4; stroke: #1f77b4"/>
     <use xlink:href="#m3a7885ec50" x="257.972236" y="251.556288" style="fill: #1f77b4; stroke: #1f77b4"/>
     <use xlink:href="#m3a7885ec50" x="312.210781" y="244.345713" style="fill: #1f77b4; stroke: #1f77b4"/>
     <use xlink:href="#m3a7885ec50" x="287.533893" y="271.985761" style="fill: #1f77b4; stroke: #1f77b4"/>
     <use xlink:href="#m3a7885ec50" x="346.492735" y="281.613384" style="fill: #1f77b4; stroke: #1f77b4"/>
     <use xlink:href="#m3a7885ec50" x="279.751846" y="277.448396" style="fill: #1f77b4; stroke: #1f77b4"/>
     <use xlink:href="#m3a7885ec50" x="233.243591" y="257.805577" style="fill: #1f77b4; stroke: #1f77b4"/>
     <use xlink:href="#m3a7885ec50" x="315.894774" y="162.441182" style="fill: #1f77b4; stroke: #1f77b4"/>
     <use xlink:href="#m3a7885ec50" x="277.211122" y="269.485579" style="fill: #1f77b4; stroke: #1f77b4"/>
     <use xlink:href="#m3a7885ec50" x="202.128054" y="284.385932" style="fill: #1f77b4; stroke: #1f77b4"/>
     <use xlink:href="#m3a7885ec50" x="312.077361" y="136.426822" style="fill: #1f77b4; stroke: #1f77b4"/>
     <use xlink:href="#m3a7885ec50" x="290.459925" y="257.181392" style="fill: #1f77b4; stroke: #1f77b4"/>
     <use xlink:href="#m3a7885ec50" x="337.737644" y="267.019188" style="fill: #1f77b4; stroke: #1f77b4"/>
     <use xlink:href="#m3a7885ec50" x="242.19306" y="258.656476" style="fill: #1f77b4; stroke: #1f77b4"/>
     <use xlink:href="#m3a7885ec50" x="325.311212" y="203.217332" style="fill: #1f77b4; stroke: #1f77b4"/>
     <use xlink:href="#m3a7885ec50" x="337.615726" y="267.794394" style="fill: #1f77b4; stroke: #1f77b4"/>
     <use xlink:href="#m3a7885ec50" x="308.156433" y="189.686113" style="fill: #1f77b4; stroke: #1f77b4"/>
    </g>
   </g>
   <g id="matplotlib.axis_1">
    <g id="xtick_1">
     <g id="line2d_1">
      <defs>
       <path id="mddf3c27819" d="M 0 0 
L 0 3.5 
" style="stroke: #000000; stroke-width: 0.8"/>
      </defs>
      <g>
       <use xlink:href="#mddf3c27819" x="47.930574" y="303.64" style="stroke: #000000; stroke-width: 0.8"/>
      </g>
     </g>
     <g id="text_1">
      <!-- −25 -->
      <g transform="translate(37.37823 318.238437)scale(0.1 -0.1)">
       <defs>
        <path id="DejaVuSans-2212" d="M 678 2272 
L 4684 2272 
L 4684 1741 
L 678 1741 
L 678 2272 
z
" transform="scale(0.015625)"/>
        <path id="DejaVuSans-32" d="M 1228 531 
L 3431 531 
L 3431 0 
L 469 0 
L 469 531 
Q 828 903 1448 1529 
Q 2069 2156 2228 2338 
Q 2531 2678 2651 2914 
Q 2772 3150 2772 3378 
Q 2772 3750 2511 3984 
Q 2250 4219 1831 4219 
Q 1534 4219 1204 4116 
Q 875 4013 500 3803 
L 500 4441 
Q 881 4594 1212 4672 
Q 1544 4750 1819 4750 
Q 2544 4750 2975 4387 
Q 3406 4025 3406 3419 
Q 3406 3131 3298 2873 
Q 3191 2616 2906 2266 
Q 2828 2175 2409 1742 
Q 1991 1309 1228 531 
z
" transform="scale(0.015625)"/>
        <path id="DejaVuSans-35" d="M 691 4666 
L 3169 4666 
L 3169 4134 
L 1269 4134 
L 1269 2991 
Q 1406 3038 1543 3061 
Q 1681 3084 1819 3084 
Q 2600 3084 3056 2656 
Q 3513 2228 3513 1497 
Q 3513 744 3044 326 
Q 2575 -91 1722 -91 
Q 1428 -91 1123 -41 
Q 819 9 494 109 
L 494 744 
Q 775 591 1075 516 
Q 1375 441 1709 441 
Q 2250 441 2565 725 
Q 2881 1009 2881 1497 
Q 2881 1984 2565 2268 
Q 2250 2553 1709 2553 
Q 1456 2553 1204 2497 
Q 953 2441 691 2322 
L 691 4666 
z
" transform="scale(0.015625)"/>
       </defs>
       <use xlink:href="#DejaVuSans-2212"/>
       <use xlink:href="#DejaVuSans-32" x="83.789062"/>
       <use xlink:href="#DejaVuSans-35" x="147.412109"/>
      </g>
     </g>
    </g>
    <g id="xtick_2">
     <g id="line2d_2">
      <g>
       <use xlink:href="#mddf3c27819" x="105.439051" y="303.64" style="stroke: #000000; stroke-width: 0.8"/>
      </g>
     </g>
     <g id="text_2">
      <!-- −20 -->
      <g transform="translate(94.886707 318.238437)scale(0.1 -0.1)">
       <defs>
        <path id="DejaVuSans-30" d="M 2034 4250 
Q 1547 4250 1301 3770 
Q 1056 3291 1056 2328 
Q 1056 1369 1301 889 
Q 1547 409 2034 409 
Q 2525 409 2770 889 
Q 3016 1369 3016 2328 
Q 3016 3291 2770 3770 
Q 2525 4250 2034 4250 
z
M 2034 4750 
Q 2819 4750 3233 4129 
Q 3647 3509 3647 2328 
Q 3647 1150 3233 529 
Q 2819 -91 2034 -91 
Q 1250 -91 836 529 
Q 422 1150 422 2328 
Q 422 3509 836 4129 
Q 1250 4750 2034 4750 
z
" transform="scale(0.015625)"/>
       </defs>
       <use xlink:href="#DejaVuSans-2212"/>
       <use xlink:href="#DejaVuSans-32" x="83.789062"/>
       <use xlink:href="#DejaVuSans-30" x="147.412109"/>
      </g>
     </g>
    </g>
    <g id="xtick_3">
     <g id="line2d_3">
      <g>
       <use xlink:href="#mddf3c27819" x="162.947528" y="303.64" style="stroke: #000000; stroke-width: 0.8"/>
      </g>
     </g>
     <g id="text_3">
      <!-- −15 -->
      <g transform="translate(152.395184 318.238437)scale(0.1 -0.1)">
       <defs>
        <path id="DejaVuSans-31" d="M 794 531 
L 1825 531 
L 1825 4091 
L 703 3866 
L 703 4441 
L 1819 4666 
L 2450 4666 
L 2450 531 
L 3481 531 
L 3481 0 
L 794 0 
L 794 531 
z
" transform="scale(0.015625)"/>
       </defs>
       <use xlink:href="#DejaVuSans-2212"/>
       <use xlink:href="#DejaVuSans-31" x="83.789062"/>
       <use xlink:href="#DejaVuSans-35" x="147.412109"/>
      </g>
     </g>
    </g>
    <g id="xtick_4">
     <g id="line2d_4">
      <g>
       <use xlink:href="#mddf3c27819" x="220.456006" y="303.64" style="stroke: #000000; stroke-width: 0.8"/>
      </g>
     </g>
     <g id="text_4">
      <!-- −10 -->
      <g transform="translate(209.903662 318.238437)scale(0.1 -0.1)">
       <use xlink:href="#DejaVuSans-2212"/>
       <use xlink:href="#DejaVuSans-31" x="83.789062"/>
       <use xlink:href="#DejaVuSans-30" x="147.412109"/>
      </g>
     </g>
    </g>
    <g id="xtick_5">
     <g id="line2d_5">
      <g>
       <use xlink:href="#mddf3c27819" x="277.964483" y="303.64" style="stroke: #000000; stroke-width: 0.8"/>
      </g>
     </g>
     <g id="text_5">
      <!-- −5 -->
      <g transform="translate(270.593389 318.238437)scale(0.1 -0.1)">
       <use xlink:href="#DejaVuSans-2212"/>
       <use xlink:href="#DejaVuSans-35" x="83.789062"/>
      </g>
     </g>
    </g>
    <g id="xtick_6">
     <g id="line2d_6">
      <g>
       <use xlink:href="#mddf3c27819" x="335.47296" y="303.64" style="stroke: #000000; stroke-width: 0.8"/>
      </g>
     </g>
     <g id="text_6">
      <!-- 0 -->
      <g transform="translate(332.29171 318.238437)scale(0.1 -0.1)">
       <use xlink:href="#DejaVuSans-30"/>
      </g>
     </g>
    </g>
    <g id="xtick_7">
     <g id="line2d_7">
      <g>
       <use xlink:href="#mddf3c27819" x="392.981437" y="303.64" style="stroke: #000000; stroke-width: 0.8"/>
      </g>
     </g>
     <g id="text_7">
      <!-- 5 -->
      <g transform="translate(389.800187 318.238437)scale(0.1 -0.1)">
       <use xlink:href="#DejaVuSans-35"/>
      </g>
     </g>
    </g>
    <g id="text_8">
     <!-- HBONDDiff -->
     <g transform="translate(221.521562 331.916562)scale(0.1 -0.1)">
      <defs>
       <path id="DejaVuSans-48" d="M 628 4666 
L 1259 4666 
L 1259 2753 
L 3553 2753 
L 3553 4666 
L 4184 4666 
L 4184 0 
L 3553 0 
L 3553 2222 
L 1259 2222 
L 1259 0 
L 628 0 
L 628 4666 
z
" transform="scale(0.015625)"/>
       <path id="DejaVuSans-42" d="M 1259 2228 
L 1259 519 
L 2272 519 
Q 2781 519 3026 730 
Q 3272 941 3272 1375 
Q 3272 1813 3026 2020 
Q 2781 2228 2272 2228 
L 1259 2228 
z
M 1259 4147 
L 1259 2741 
L 2194 2741 
Q 2656 2741 2882 2914 
Q 3109 3088 3109 3444 
Q 3109 3797 2882 3972 
Q 2656 4147 2194 4147 
L 1259 4147 
z
M 628 4666 
L 2241 4666 
Q 2963 4666 3353 4366 
Q 3744 4066 3744 3513 
Q 3744 3084 3544 2831 
Q 3344 2578 2956 2516 
Q 3422 2416 3680 2098 
Q 3938 1781 3938 1306 
Q 3938 681 3513 340 
Q 3088 0 2303 0 
L 628 0 
L 628 4666 
z
" transform="scale(0.015625)"/>
       <path id="DejaVuSans-4f" d="M 2522 4238 
Q 1834 4238 1429 3725 
Q 1025 3213 1025 2328 
Q 1025 1447 1429 934 
Q 1834 422 2522 422 
Q 3209 422 3611 934 
Q 4013 1447 4013 2328 
Q 4013 3213 3611 3725 
Q 3209 4238 2522 4238 
z
M 2522 4750 
Q 3503 4750 4090 4092 
Q 4678 3434 4678 2328 
Q 4678 1225 4090 567 
Q 3503 -91 2522 -91 
Q 1538 -91 948 565 
Q 359 1222 359 2328 
Q 359 3434 948 4092 
Q 1538 4750 2522 4750 
z
" transform="scale(0.015625)"/>
       <path id="DejaVuSans-4e" d="M 628 4666 
L 1478 4666 
L 3547 763 
L 3547 4666 
L 4159 4666 
L 4159 0 
L 3309 0 
L 1241 3903 
L 1241 0 
L 628 0 
L 628 4666 
z
" transform="scale(0.015625)"/>
       <path id="DejaVuSans-44" d="M 1259 4147 
L 1259 519 
L 2022 519 
Q 2988 519 3436 956 
Q 3884 1394 3884 2338 
Q 3884 3275 3436 3711 
Q 2988 4147 2022 4147 
L 1259 4147 
z
M 628 4666 
L 1925 4666 
Q 3281 4666 3915 4102 
Q 4550 3538 4550 2338 
Q 4550 1131 3912 565 
Q 3275 0 1925 0 
L 628 0 
L 628 4666 
z
" transform="scale(0.015625)"/>
       <path id="DejaVuSans-69" d="M 603 3500 
L 1178 3500 
L 1178 0 
L 603 0 
L 603 3500 
z
M 603 4863 
L 1178 4863 
L 1178 4134 
L 603 4134 
L 603 4863 
z
" transform="scale(0.015625)"/>
       <path id="DejaVuSans-66" d="M 2375 4863 
L 2375 4384 
L 1825 4384 
Q 1516 4384 1395 4259 
Q 1275 4134 1275 3809 
L 1275 3500 
L 2222 3500 
L 2222 3053 
L 1275 3053 
L 1275 0 
L 697 0 
L 697 3053 
L 147 3053 
L 147 3500 
L 697 3500 
L 697 3744 
Q 697 4328 969 4595 
Q 1241 4863 1831 4863 
L 2375 4863 
z
" transform="scale(0.015625)"/>
      </defs>
      <use xlink:href="#DejaVuSans-48"/>
      <use xlink:href="#DejaVuSans-42" x="75.195312"/>
      <use xlink:href="#DejaVuSans-4f" x="142.048828"/>
      <use xlink:href="#DejaVuSans-4e" x="220.759766"/>
      <use xlink:href="#DejaVuSans-44" x="295.564453"/>
      <use xlink:href="#DejaVuSans-44" x="372.566406"/>
      <use xlink:href="#DejaVuSans-69" x="449.568359"/>
      <use xlink:href="#DejaVuSans-66" x="477.351562"/>
      <use xlink:href="#DejaVuSans-66" x="512.556641"/>
     </g>
    </g>
   </g>
   <g id="matplotlib.axis_2">
    <g id="ytick_1">
     <g id="line2d_8">
      <defs>
       <path id="mab4e7e8dfa" d="M 0 0 
L -3.5 0 
" style="stroke: #000000; stroke-width: 0.8"/>
      </defs>
      <g>
       <use xlink:href="#mab4e7e8dfa" x="47.82125" y="303.64" style="stroke: #000000; stroke-width: 0.8"/>
      </g>
     </g>
     <g id="text_9">
      <!-- 0.0 -->
      <g transform="translate(24.918125 307.439219)scale(0.1 -0.1)">
       <defs>
        <path id="DejaVuSans-2e" d="M 684 794 
L 1344 794 
L 1344 0 
L 684 0 
L 684 794 
z
" transform="scale(0.015625)"/>
       </defs>
       <use xlink:href="#DejaVuSans-30"/>
       <use xlink:href="#DejaVuSans-2e" x="63.623047"/>
       <use xlink:href="#DejaVuSans-30" x="95.410156"/>
      </g>
     </g>
    </g>
    <g id="ytick_2">
     <g id="line2d_9">
      <g>
       <use xlink:href="#mab4e7e8dfa" x="47.82125" y="255.120977" style="stroke: #000000; stroke-width: 0.8"/>
      </g>
     </g>
     <g id="text_10">
      <!-- 0.5 -->
      <g transform="translate(24.918125 258.920196)scale(0.1 -0.1)">
       <use xlink:href="#DejaVuSans-30"/>
       <use xlink:href="#DejaVuSans-2e" x="63.623047"/>
       <use xlink:href="#DejaVuSans-35" x="95.410156"/>
      </g>
     </g>
    </g>
    <g id="ytick_3">
     <g id="line2d_10">
      <g>
       <use xlink:href="#mab4e7e8dfa" x="47.82125" y="206.601954" style="stroke: #000000; stroke-width: 0.8"/>
      </g>
     </g>
     <g id="text_11">
      <!-- 1.0 -->
      <g transform="translate(24.918125 210.401173)scale(0.1 -0.1)">
       <use xlink:href="#DejaVuSans-31"/>
       <use xlink:href="#DejaVuSans-2e" x="63.623047"/>
       <use xlink:href="#DejaVuSans-30" x="95.410156"/>
      </g>
     </g>
    </g>
    <g id="ytick_4">
     <g id="line2d_11">
      <g>
       <use xlink:href="#mab4e7e8dfa" x="47.82125" y="158.082931" style="stroke: #000000; stroke-width: 0.8"/>
      </g>
     </g>
     <g id="text_12">
      <!-- 1.5 -->
      <g transform="translate(24.918125 161.88215)scale(0.1 -0.1)">
       <use xlink:href="#DejaVuSans-31"/>
       <use xlink:href="#DejaVuSans-2e" x="63.623047"/>
       <use xlink:href="#DejaVuSans-35" x="95.410156"/>
      </g>
     </g>
    </g>
    <g id="ytick_5">
     <g id="line2d_12">
      <g>
       <use xlink:href="#mab4e7e8dfa" x="47.82125" y="109.563908" style="stroke: #000000; stroke-width: 0.8"/>
      </g>
     </g>
     <g id="text_13">
      <!-- 2.0 -->
      <g transform="translate(24.918125 113.363126)scale(0.1 -0.1)">
       <use xlink:href="#DejaVuSans-32"/>
       <use xlink:href="#DejaVuSans-2e" x="63.623047"/>
       <use xlink:href="#DejaVuSans-30" x="95.410156"/>
      </g>
     </g>
    </g>
    <g id="ytick_6">
     <g id="line2d_13">
      <g>
       <use xlink:href="#mab4e7e8dfa" x="47.82125" y="61.044885" style="stroke: #000000; stroke-width: 0.8"/>
      </g>
     </g>
     <g id="text_14">
      <!-- 2.5 -->
      <g transform="translate(24.918125 64.844103)scale(0.1 -0.1)">
       <use xlink:href="#DejaVuSans-32"/>
       <use xlink:href="#DejaVuSans-2e" x="63.623047"/>
       <use xlink:href="#DejaVuSans-35" x="95.410156"/>
      </g>
     </g>
    </g>
    <g id="text_15">
     <!-- PercentGpA_transformed -->
     <g transform="translate(18.560313 237.696138)rotate(-90)scale(0.1 -0.1)">
      <defs>
       <path id="DejaVuSans-50" d="M 1259 4147 
L 1259 2394 
L 2053 2394 
Q 2494 2394 2734 2622 
Q 2975 2850 2975 3272 
Q 2975 3691 2734 3919 
Q 2494 4147 2053 4147 
L 1259 4147 
z
M 628 4666 
L 2053 4666 
Q 2838 4666 3239 4311 
Q 3641 3956 3641 3272 
Q 3641 2581 3239 2228 
Q 2838 1875 2053 1875 
L 1259 1875 
L 1259 0 
L 628 0 
L 628 4666 
z
" transform="scale(0.015625)"/>
       <path id="DejaVuSans-65" d="M 3597 1894 
L 3597 1613 
L 953 1613 
Q 991 1019 1311 708 
Q 1631 397 2203 397 
Q 2534 397 2845 478 
Q 3156 559 3463 722 
L 3463 178 
Q 3153 47 2828 -22 
Q 2503 -91 2169 -91 
Q 1331 -91 842 396 
Q 353 884 353 1716 
Q 353 2575 817 3079 
Q 1281 3584 2069 3584 
Q 2775 3584 3186 3129 
Q 3597 2675 3597 1894 
z
M 3022 2063 
Q 3016 2534 2758 2815 
Q 2500 3097 2075 3097 
Q 1594 3097 1305 2825 
Q 1016 2553 972 2059 
L 3022 2063 
z
" transform="scale(0.015625)"/>
       <path id="DejaVuSans-72" d="M 2631 2963 
Q 2534 3019 2420 3045 
Q 2306 3072 2169 3072 
Q 1681 3072 1420 2755 
Q 1159 2438 1159 1844 
L 1159 0 
L 581 0 
L 581 3500 
L 1159 3500 
L 1159 2956 
Q 1341 3275 1631 3429 
Q 1922 3584 2338 3584 
Q 2397 3584 2469 3576 
Q 2541 3569 2628 3553 
L 2631 2963 
z
" transform="scale(0.015625)"/>
       <path id="DejaVuSans-63" d="M 3122 3366 
L 3122 2828 
Q 2878 2963 2633 3030 
Q 2388 3097 2138 3097 
Q 1578 3097 1268 2742 
Q 959 2388 959 1747 
Q 959 1106 1268 751 
Q 1578 397 2138 397 
Q 2388 397 2633 464 
Q 2878 531 3122 666 
L 3122 134 
Q 2881 22 2623 -34 
Q 2366 -91 2075 -91 
Q 1284 -91 818 406 
Q 353 903 353 1747 
Q 353 2603 823 3093 
Q 1294 3584 2113 3584 
Q 2378 3584 2631 3529 
Q 2884 3475 3122 3366 
z
" transform="scale(0.015625)"/>
       <path id="DejaVuSans-6e" d="M 3513 2113 
L 3513 0 
L 2938 0 
L 2938 2094 
Q 2938 2591 2744 2837 
Q 2550 3084 2163 3084 
Q 1697 3084 1428 2787 
Q 1159 2491 1159 1978 
L 1159 0 
L 581 0 
L 581 3500 
L 1159 3500 
L 1159 2956 
Q 1366 3272 1645 3428 
Q 1925 3584 2291 3584 
Q 2894 3584 3203 3211 
Q 3513 2838 3513 2113 
z
" transform="scale(0.015625)"/>
       <path id="DejaVuSans-74" d="M 1172 4494 
L 1172 3500 
L 2356 3500 
L 2356 3053 
L 1172 3053 
L 1172 1153 
Q 1172 725 1289 603 
Q 1406 481 1766 481 
L 2356 481 
L 2356 0 
L 1766 0 
Q 1100 0 847 248 
Q 594 497 594 1153 
L 594 3053 
L 172 3053 
L 172 3500 
L 594 3500 
L 594 4494 
L 1172 4494 
z
" transform="scale(0.015625)"/>
       <path id="DejaVuSans-47" d="M 3809 666 
L 3809 1919 
L 2778 1919 
L 2778 2438 
L 4434 2438 
L 4434 434 
Q 4069 175 3628 42 
Q 3188 -91 2688 -91 
Q 1594 -91 976 548 
Q 359 1188 359 2328 
Q 359 3472 976 4111 
Q 1594 4750 2688 4750 
Q 3144 4750 3555 4637 
Q 3966 4525 4313 4306 
L 4313 3634 
Q 3963 3931 3569 4081 
Q 3175 4231 2741 4231 
Q 1884 4231 1454 3753 
Q 1025 3275 1025 2328 
Q 1025 1384 1454 906 
Q 1884 428 2741 428 
Q 3075 428 3337 486 
Q 3600 544 3809 666 
z
" transform="scale(0.015625)"/>
       <path id="DejaVuSans-70" d="M 1159 525 
L 1159 -1331 
L 581 -1331 
L 581 3500 
L 1159 3500 
L 1159 2969 
Q 1341 3281 1617 3432 
Q 1894 3584 2278 3584 
Q 2916 3584 3314 3078 
Q 3713 2572 3713 1747 
Q 3713 922 3314 415 
Q 2916 -91 2278 -91 
Q 1894 -91 1617 61 
Q 1341 213 1159 525 
z
M 3116 1747 
Q 3116 2381 2855 2742 
Q 2594 3103 2138 3103 
Q 1681 3103 1420 2742 
Q 1159 2381 1159 1747 
Q 1159 1113 1420 752 
Q 1681 391 2138 391 
Q 2594 391 2855 752 
Q 3116 1113 3116 1747 
z
" transform="scale(0.015625)"/>
       <path id="DejaVuSans-41" d="M 2188 4044 
L 1331 1722 
L 3047 1722 
L 2188 4044 
z
M 1831 4666 
L 2547 4666 
L 4325 0 
L 3669 0 
L 3244 1197 
L 1141 1197 
L 716 0 
L 50 0 
L 1831 4666 
z
" transform="scale(0.015625)"/>
       <path id="DejaVuSans-5f" d="M 3263 -1063 
L 3263 -1509 
L -63 -1509 
L -63 -1063 
L 3263 -1063 
z
" transform="scale(0.015625)"/>
       <path id="DejaVuSans-61" d="M 2194 1759 
Q 1497 1759 1228 1600 
Q 959 1441 959 1056 
Q 959 750 1161 570 
Q 1363 391 1709 391 
Q 2188 391 2477 730 
Q 2766 1069 2766 1631 
L 2766 1759 
L 2194 1759 
z
M 3341 1997 
L 3341 0 
L 2766 0 
L 2766 531 
Q 2569 213 2275 61 
Q 1981 -91 1556 -91 
Q 1019 -91 701 211 
Q 384 513 384 1019 
Q 384 1609 779 1909 
Q 1175 2209 1959 2209 
L 2766 2209 
L 2766 2266 
Q 2766 2663 2505 2880 
Q 2244 3097 1772 3097 
Q 1472 3097 1187 3025 
Q 903 2953 641 2809 
L 641 3341 
Q 956 3463 1253 3523 
Q 1550 3584 1831 3584 
Q 2591 3584 2966 3190 
Q 3341 2797 3341 1997 
z
" transform="scale(0.015625)"/>
       <path id="DejaVuSans-73" d="M 2834 3397 
L 2834 2853 
Q 2591 2978 2328 3040 
Q 2066 3103 1784 3103 
Q 1356 3103 1142 2972 
Q 928 2841 928 2578 
Q 928 2378 1081 2264 
Q 1234 2150 1697 2047 
L 1894 2003 
Q 2506 1872 2764 1633 
Q 3022 1394 3022 966 
Q 3022 478 2636 193 
Q 2250 -91 1575 -91 
Q 1294 -91 989 -36 
Q 684 19 347 128 
L 347 722 
Q 666 556 975 473 
Q 1284 391 1588 391 
Q 1994 391 2212 530 
Q 2431 669 2431 922 
Q 2431 1156 2273 1281 
Q 2116 1406 1581 1522 
L 1381 1569 
Q 847 1681 609 1914 
Q 372 2147 372 2553 
Q 372 3047 722 3315 
Q 1072 3584 1716 3584 
Q 2034 3584 2315 3537 
Q 2597 3491 2834 3397 
z
" transform="scale(0.015625)"/>
       <path id="DejaVuSans-6f" d="M 1959 3097 
Q 1497 3097 1228 2736 
Q 959 2375 959 1747 
Q 959 1119 1226 758 
Q 1494 397 1959 397 
Q 2419 397 2687 759 
Q 2956 1122 2956 1747 
Q 2956 2369 2687 2733 
Q 2419 3097 1959 3097 
z
M 1959 3584 
Q 2709 3584 3137 3096 
Q 3566 2609 3566 1747 
Q 3566 888 3137 398 
Q 2709 -91 1959 -91 
Q 1206 -91 779 398 
Q 353 888 353 1747 
Q 353 2609 779 3096 
Q 1206 3584 1959 3584 
z
" transform="scale(0.015625)"/>
       <path id="DejaVuSans-6d" d="M 3328 2828 
Q 3544 3216 3844 3400 
Q 4144 3584 4550 3584 
Q 5097 3584 5394 3201 
Q 5691 2819 5691 2113 
L 5691 0 
L 5113 0 
L 5113 2094 
Q 5113 2597 4934 2840 
Q 4756 3084 4391 3084 
Q 3944 3084 3684 2787 
Q 3425 2491 3425 1978 
L 3425 0 
L 2847 0 
L 2847 2094 
Q 2847 2600 2669 2842 
Q 2491 3084 2119 3084 
Q 1678 3084 1418 2786 
Q 1159 2488 1159 1978 
L 1159 0 
L 581 0 
L 581 3500 
L 1159 3500 
L 1159 2956 
Q 1356 3278 1631 3431 
Q 1906 3584 2284 3584 
Q 2666 3584 2933 3390 
Q 3200 3197 3328 2828 
z
" transform="scale(0.015625)"/>
       <path id="DejaVuSans-64" d="M 2906 2969 
L 2906 4863 
L 3481 4863 
L 3481 0 
L 2906 0 
L 2906 525 
Q 2725 213 2448 61 
Q 2172 -91 1784 -91 
Q 1150 -91 751 415 
Q 353 922 353 1747 
Q 353 2572 751 3078 
Q 1150 3584 1784 3584 
Q 2172 3584 2448 3432 
Q 2725 3281 2906 2969 
z
M 947 1747 
Q 947 1113 1208 752 
Q 1469 391 1925 391 
Q 2381 391 2643 752 
Q 2906 1113 2906 1747 
Q 2906 2381 2643 2742 
Q 2381 3103 1925 3103 
Q 1469 3103 1208 2742 
Q 947 2381 947 1747 
z
" transform="scale(0.015625)"/>
      </defs>
      <use xlink:href="#DejaVuSans-50"/>
      <use xlink:href="#DejaVuSans-65" x="56.677734"/>
      <use xlink:href="#DejaVuSans-72" x="118.201172"/>
      <use xlink:href="#DejaVuSans-63" x="157.064453"/>
      <use xlink:href="#DejaVuSans-65" x="212.044922"/>
      <use xlink:href="#DejaVuSans-6e" x="273.568359"/>
      <use xlink:href="#DejaVuSans-74" x="336.947266"/>
      <use xlink:href="#DejaVuSans-47" x="376.15625"/>
      <use xlink:href="#DejaVuSans-70" x="453.646484"/>
      <use xlink:href="#DejaVuSans-41" x="517.123047"/>
      <use xlink:href="#DejaVuSans-5f" x="585.53125"/>
      <use xlink:href="#DejaVuSans-74" x="635.53125"/>
      <use xlink:href="#DejaVuSans-72" x="674.740234"/>
      <use xlink:href="#DejaVuSans-61" x="715.853516"/>
      <use xlink:href="#DejaVuSans-6e" x="777.132812"/>
      <use xlink:href="#DejaVuSans-73" x="840.511719"/>
      <use xlink:href="#DejaVuSans-66" x="892.611328"/>
      <use xlink:href="#DejaVuSans-6f" x="927.816406"/>
      <use xlink:href="#DejaVuSans-72" x="988.998047"/>
      <use xlink:href="#DejaVuSans-6d" x="1028.361328"/>
      <use xlink:href="#DejaVuSans-65" x="1125.773438"/>
      <use xlink:href="#DejaVuSans-64" x="1187.296875"/>
     </g>
    </g>
   </g>
   <g id="LineCollection_1">
    <path d="M 249.38392 152.497637 
L 249.38392 109.421082 
" clip-path="url(#p542c1b584a)" style="fill: none; stroke: #d3d3d3; stroke-width: 3"/>
    <path d="M 220.159262 175.253822 
L 220.159262 168.596103 
" clip-path="url(#p542c1b584a)" style="fill: none; stroke: #d3d3d3; stroke-width: 3"/>
    <path d="M 228.403677 178.872049 
L 228.403677 119.481848 
" clip-path="url(#p542c1b584a)" style="fill: none; stroke: #d3d3d3; stroke-width: 3"/>
    <path d="M 186.509902 203.505419 
L 186.509902 172.390163 
" clip-path="url(#p542c1b584a)" style="fill: none; stroke: #d3d3d3; stroke-width: 3"/>
    <path d="M 203.859059 161.644374 
L 203.859059 117.016522 
" clip-path="url(#p542c1b584a)" style="fill: none; stroke: #d3d3d3; stroke-width: 3"/>
    <path d="M 231.802428 182.05995 
L 231.802428 153.117407 
" clip-path="url(#p542c1b584a)" style="fill: none; stroke: #d3d3d3; stroke-width: 3"/>
    <path d="M 210.635858 178.179822 
L 210.635858 154.398579 
" clip-path="url(#p542c1b584a)" style="fill: none; stroke: #d3d3d3; stroke-width: 3"/>
    <path d="M 181.354842 209.064416 
L 181.354842 147.924525 
" clip-path="url(#p542c1b584a)" style="fill: none; stroke: #d3d3d3; stroke-width: 3"/>
    <path d="M 249.45293 162.595592 
L 249.45293 143.000091 
" clip-path="url(#p542c1b584a)" style="fill: none; stroke: #d3d3d3; stroke-width: 3"/>
    <path d="M 185.298773 192.444615 
L 185.298773 163.301576 
" clip-path="url(#p542c1b584a)" style="fill: none; stroke: #d3d3d3; stroke-width: 3"/>
    <path d="M 243.75269 186.742264 
L 243.75269 177.422385 
" clip-path="url(#p542c1b584a)" style="fill: none; stroke: #d3d3d3; stroke-width: 3"/>
    <path d="M 287.629358 181.128177 
L 287.629358 170.940605 
" clip-path="url(#p542c1b584a)" style="fill: none; stroke: #d3d3d3; stroke-width: 3"/>
    <path d="M 193.847983 201.209138 
L 193.847983 178.701287 
" clip-path="url(#p542c1b584a)" style="fill: none; stroke: #d3d3d3; stroke-width: 3"/>
    <path d="M 252.680306 184.255068 
L 252.680306 165.685594 
" clip-path="url(#p542c1b584a)" style="fill: none; stroke: #d3d3d3; stroke-width: 3"/>
    <path d="M 261.035137 168.717042 
L 261.035137 139.814335 
" clip-path="url(#p542c1b584a)" style="fill: none; stroke: #d3d3d3; stroke-width: 3"/>
    <path d="M 276.335843 165.469928 
L 276.335843 152.824794 
" clip-path="url(#p542c1b584a)" style="fill: none; stroke: #d3d3d3; stroke-width: 3"/>
    <path d="M 207.254359 188.033243 
L 207.254359 178.019543 
" clip-path="url(#p542c1b584a)" style="fill: none; stroke: #d3d3d3; stroke-width: 3"/>
    <path d="M 232.277448 209.234034 
L 232.277448 180.015432 
" clip-path="url(#p542c1b584a)" style="fill: none; stroke: #d3d3d3; stroke-width: 3"/>
    <path d="M 264.601813 216.308372 
L 264.601813 107.144829 
" clip-path="url(#p542c1b584a)" style="fill: none; stroke: #d3d3d3; stroke-width: 3"/>
    <path d="M 255.263586 203.811467 
L 255.263586 166.666123 
" clip-path="url(#p542c1b584a)" style="fill: none; stroke: #d3d3d3; stroke-width: 3"/>
    <path d="M 263.265316 178.063863 
L 263.265316 157.867543 
" clip-path="url(#p542c1b584a)" style="fill: none; stroke: #d3d3d3; stroke-width: 3"/>
    <path d="M 239.850164 166.17728 
L 239.850164 147.527915 
" clip-path="url(#p542c1b584a)" style="fill: none; stroke: #d3d3d3; stroke-width: 3"/>
    <path d="M 194.474826 217.856049 
L 194.474826 181.214762 
" clip-path="url(#p542c1b584a)" style="fill: none; stroke: #d3d3d3; stroke-width: 3"/>
    <path d="M 260.326633 224.389271 
L 260.326633 214.588608 
" clip-path="url(#p542c1b584a)" style="fill: none; stroke: #d3d3d3; stroke-width: 3"/>
    <path d="M 254.74486 181.316908 
L 254.74486 159.840049 
" clip-path="url(#p542c1b584a)" style="fill: none; stroke: #d3d3d3; stroke-width: 3"/>
    <path d="M 242.110248 180.7402 
L 242.110248 160.714461 
" clip-path="url(#p542c1b584a)" style="fill: none; stroke: #d3d3d3; stroke-width: 3"/>
    <path d="M 222.99443 243.877674 
L 222.99443 237.564504 
" clip-path="url(#p542c1b584a)" style="fill: none; stroke: #d3d3d3; stroke-width: 3"/>
    <path d="M 195.45707 171.380269 
L 195.45707 153.042173 
" clip-path="url(#p542c1b584a)" style="fill: none; stroke: #d3d3d3; stroke-width: 3"/>
    <path d="M 247.298662 168.796756 
L 247.298662 133.331569 
" clip-path="url(#p542c1b584a)" style="fill: none; stroke: #d3d3d3; stroke-width: 3"/>
    <path d="M 243.516905 199.912915 
L 243.516905 179.958707 
" clip-path="url(#p542c1b584a)" style="fill: none; stroke: #d3d3d3; stroke-width: 3"/>
    <path d="M 257.302837 204.256981 
L 257.302837 163.807333 
" clip-path="url(#p542c1b584a)" style="fill: none; stroke: #d3d3d3; stroke-width: 3"/>
    <path d="M 282.378834 157.952907 
L 282.378834 105.268976 
" clip-path="url(#p542c1b584a)" style="fill: none; stroke: #d3d3d3; stroke-width: 3"/>
    <path d="M 220.668787 183.56402 
L 220.668787 150.450258 
" clip-path="url(#p542c1b584a)" style="fill: none; stroke: #d3d3d3; stroke-width: 3"/>
    <path d="M 275.905679 169.704707 
L 275.905679 143.233769 
" clip-path="url(#p542c1b584a)" style="fill: none; stroke: #d3d3d3; stroke-width: 3"/>
    <path d="M 249.358616 171.700475 
L 249.358616 138.824198 
" clip-path="url(#p542c1b584a)" style="fill: none; stroke: #d3d3d3; stroke-width: 3"/>
    <path d="M 238.044398 279.636811 
L 238.044398 253.073156 
" clip-path="url(#p542c1b584a)" style="fill: none; stroke: #d3d3d3; stroke-width: 3"/>
    <path d="M 260.891366 197.487758 
L 260.891366 156.894711 
" clip-path="url(#p542c1b584a)" style="fill: none; stroke: #d3d3d3; stroke-width: 3"/>
    <path d="M 276.833866 259.962089 
L 276.833866 252.903611 
" clip-path="url(#p542c1b584a)" style="fill: none; stroke: #d3d3d3; stroke-width: 3"/>
    <path d="M 244.36688 186.230453 
L 244.36688 152.203843 
" clip-path="url(#p542c1b584a)" style="fill: none; stroke: #d3d3d3; stroke-width: 3"/>
    <path d="M 293.81957 184.836645 
L 293.81957 175.173244 
" clip-path="url(#p542c1b584a)" style="fill: none; stroke: #d3d3d3; stroke-width: 3"/>
    <path d="M 320.051487 263.431545 
L 320.051487 260.385763 
" clip-path="url(#p542c1b584a)" style="fill: none; stroke: #d3d3d3; stroke-width: 3"/>
    <path d="M 337.075146 185.154418 
L 337.075146 174.856143 
" clip-path="url(#p542c1b584a)" style="fill: none; stroke: #d3d3d3; stroke-width: 3"/>
    <path d="M 220.498562 178.879428 
L 220.498562 160.725141 
" clip-path="url(#p542c1b584a)" style="fill: none; stroke: #d3d3d3; stroke-width: 3"/>
    <path d="M 231.528688 192.04037 
L 231.528688 172.80279 
" clip-path="url(#p542c1b584a)" style="fill: none; stroke: #d3d3d3; stroke-width: 3"/>
    <path d="M 338.99823 276.33665 
L 338.99823 265.523862 
" clip-path="url(#p542c1b584a)" style="fill: none; stroke: #d3d3d3; stroke-width: 3"/>
    <path d="M 298.136156 162.056198 
L 298.136156 138.264599 
" clip-path="url(#p542c1b584a)" style="fill: none; stroke: #d3d3d3; stroke-width: 3"/>
    <path d="M 326.419976 286.593582 
L 326.419976 279.796915 
" clip-path="url(#p542c1b584a)" style="fill: none; stroke: #d3d3d3; stroke-width: 3"/>
    <path d="M 261.229516 220.124949 
L 261.229516 58.10899 
" clip-path="url(#p542c1b584a)" style="fill: none; stroke: #d3d3d3; stroke-width: 3"/>
    <path d="M 207.643117 275.678075 
L 207.643117 265.530443 
" clip-path="url(#p542c1b584a)" style="fill: none; stroke: #d3d3d3; stroke-width: 3"/>
    <path d="M 255.050805 275.704733 
L 255.050805 263.927254 
" clip-path="url(#p542c1b584a)" style="fill: none; stroke: #d3d3d3; stroke-width: 3"/>
    <path d="M 337.796303 202.344212 
L 337.796303 188.011835 
" clip-path="url(#p542c1b584a)" style="fill: none; stroke: #d3d3d3; stroke-width: 3"/>
    <path d="M 300.054639 221.90028 
L 300.054639 213.394461 
" clip-path="url(#p542c1b584a)" style="fill: none; stroke: #d3d3d3; stroke-width: 3"/>
    <path d="M 230.179539 262.71613 
L 230.179539 254.553742 
" clip-path="url(#p542c1b584a)" style="fill: none; stroke: #d3d3d3; stroke-width: 3"/>
    <path d="M 431.719148 261.291069 
L 431.719148 245.584263 
" clip-path="url(#p542c1b584a)" style="fill: none; stroke: #d3d3d3; stroke-width: 3"/>
    <path d="M 296.654738 271.909365 
L 296.654738 271.069435 
" clip-path="url(#p542c1b584a)" style="fill: none; stroke: #d3d3d3; stroke-width: 3"/>
    <path d="M 227.114337 267.601753 
L 227.114337 259.652502 
" clip-path="url(#p542c1b584a)" style="fill: none; stroke: #d3d3d3; stroke-width: 3"/>
    <path d="M 302.886357 182.889865 
L 302.886357 180.177731 
" clip-path="url(#p542c1b584a)" style="fill: none; stroke: #d3d3d3; stroke-width: 3"/>
    <path d="M 284.99892 226.631605 
L 284.99892 182.297369 
" clip-path="url(#p542c1b584a)" style="fill: none; stroke: #d3d3d3; stroke-width: 3"/>
    <path d="M 66.102102 208.458947 
L 66.102102 198.176008 
" clip-path="url(#p542c1b584a)" style="fill: none; stroke: #d3d3d3; stroke-width: 3"/>
    <path d="M 269.760323 215.758356 
L 269.760323 196.856122 
" clip-path="url(#p542c1b584a)" style="fill: none; stroke: #d3d3d3; stroke-width: 3"/>
    <path d="M 337.16486 283.577406 
L 337.16486 273.418198 
" clip-path="url(#p542c1b584a)" style="fill: none; stroke: #d3d3d3; stroke-width: 3"/>
    <path d="M 353.866471 200.492003 
L 353.866471 191.767876 
" clip-path="url(#p542c1b584a)" style="fill: none; stroke: #d3d3d3; stroke-width: 3"/>
    <path d="M 330.934391 248.870075 
L 330.934391 239.911283 
" clip-path="url(#p542c1b584a)" style="fill: none; stroke: #d3d3d3; stroke-width: 3"/>
    <path d="M 200.996287 223.33599 
L 200.996287 198.209759 
" clip-path="url(#p542c1b584a)" style="fill: none; stroke: #d3d3d3; stroke-width: 3"/>
    <path d="M 248.252153 250.203462 
L 248.252153 247.07533 
" clip-path="url(#p542c1b584a)" style="fill: none; stroke: #d3d3d3; stroke-width: 3"/>
    <path d="M 281.822151 193.605963 
L 281.822151 168.56447 
" clip-path="url(#p542c1b584a)" style="fill: none; stroke: #d3d3d3; stroke-width: 3"/>
    <path d="M 337.207416 276.362044 
L 337.207416 273.749319 
" clip-path="url(#p542c1b584a)" style="fill: none; stroke: #d3d3d3; stroke-width: 3"/>
    <path d="M 233.929092 201.784542 
L 233.929092 164.82204 
" clip-path="url(#p542c1b584a)" style="fill: none; stroke: #d3d3d3; stroke-width: 3"/>
    <path d="M 337.765248 232.43982 
L 337.765248 222.60248 
" clip-path="url(#p542c1b584a)" style="fill: none; stroke: #d3d3d3; stroke-width: 3"/>
    <path d="M 284.920708 279.396405 
L 284.920708 269.759906 
" clip-path="url(#p542c1b584a)" style="fill: none; stroke: #d3d3d3; stroke-width: 3"/>
    <path d="M 308.284102 284.672774 
L 308.284102 280.107148 
" clip-path="url(#p542c1b584a)" style="fill: none; stroke: #d3d3d3; stroke-width: 3"/>
    <path d="M 319.52931 244.62613 
L 319.52931 234.001822 
" clip-path="url(#p542c1b584a)" style="fill: none; stroke: #d3d3d3; stroke-width: 3"/>
    <path d="M 286.587304 261.227786 
L 286.587304 253.997933 
" clip-path="url(#p542c1b584a)" style="fill: none; stroke: #d3d3d3; stroke-width: 3"/>
    <path d="M 293.992095 221.702677 
L 293.992095 220.781116 
" clip-path="url(#p542c1b584a)" style="fill: none; stroke: #d3d3d3; stroke-width: 3"/>
    <path d="M 296.67084 242.443053 
L 296.67084 232.622429 
" clip-path="url(#p542c1b584a)" style="fill: none; stroke: #d3d3d3; stroke-width: 3"/>
    <path d="M 330.436368 236.519399 
L 330.436368 215.843874 
" clip-path="url(#p542c1b584a)" style="fill: none; stroke: #d3d3d3; stroke-width: 3"/>
    <path d="M 307.418025 249.277006 
L 307.418025 241.8817 
" clip-path="url(#p542c1b584a)" style="fill: none; stroke: #d3d3d3; stroke-width: 3"/>
    <path d="M 311.843877 202.654023 
L 311.843877 171.885031 
" clip-path="url(#p542c1b584a)" style="fill: none; stroke: #d3d3d3; stroke-width: 3"/>
    <path d="M 288.344763 223.811697 
L 288.344763 212.89268 
" clip-path="url(#p542c1b584a)" style="fill: none; stroke: #d3d3d3; stroke-width: 3"/>
    <path d="M 337.841159 276.524142 
L 337.841159 259.167289 
" clip-path="url(#p542c1b584a)" style="fill: none; stroke: #d3d3d3; stroke-width: 3"/>
    <path d="M 309.586094 286.774501 
L 309.586094 262.191354 
" clip-path="url(#p542c1b584a)" style="fill: none; stroke: #d3d3d3; stroke-width: 3"/>
    <path d="M 286.165192 268.902415 
L 286.165192 258.878149 
" clip-path="url(#p542c1b584a)" style="fill: none; stroke: #d3d3d3; stroke-width: 3"/>
    <path d="M 337.187863 263.409312 
L 337.187863 252.561497 
" clip-path="url(#p542c1b584a)" style="fill: none; stroke: #d3d3d3; stroke-width: 3"/>
    <path d="M 257.972236 258.95973 
L 257.972236 244.152846 
" clip-path="url(#p542c1b584a)" style="fill: none; stroke: #d3d3d3; stroke-width: 3"/>
    <path d="M 312.210781 247.694847 
L 312.210781 240.99658 
" clip-path="url(#p542c1b584a)" style="fill: none; stroke: #d3d3d3; stroke-width: 3"/>
    <path d="M 287.533893 276.66662 
L 287.533893 267.304901 
" clip-path="url(#p542c1b584a)" style="fill: none; stroke: #d3d3d3; stroke-width: 3"/>
    <path d="M 346.492735 286.074124 
L 346.492735 277.152644 
" clip-path="url(#p542c1b584a)" style="fill: none; stroke: #d3d3d3; stroke-width: 3"/>
    <path d="M 279.751846 286.080453 
L 279.751846 268.81634 
" clip-path="url(#p542c1b584a)" style="fill: none; stroke: #d3d3d3; stroke-width: 3"/>
    <path d="M 233.243591 262.549339 
L 233.243591 253.061815 
" clip-path="url(#p542c1b584a)" style="fill: none; stroke: #d3d3d3; stroke-width: 3"/>
    <path d="M 315.894774 172.151184 
L 315.894774 152.73118 
" clip-path="url(#p542c1b584a)" style="fill: none; stroke: #d3d3d3; stroke-width: 3"/>
    <path d="M 277.211122 279.366028 
L 277.211122 259.605131 
" clip-path="url(#p542c1b584a)" style="fill: none; stroke: #d3d3d3; stroke-width: 3"/>
    <path d="M 202.128054 286.727646 
L 202.128054 282.044218 
" clip-path="url(#p542c1b584a)" style="fill: none; stroke: #d3d3d3; stroke-width: 3"/>
    <path d="M 312.077361 150.752166 
L 312.077361 122.101477 
" clip-path="url(#p542c1b584a)" style="fill: none; stroke: #d3d3d3; stroke-width: 3"/>
    <path d="M 290.459925 263.105207 
L 290.459925 251.257577 
" clip-path="url(#p542c1b584a)" style="fill: none; stroke: #d3d3d3; stroke-width: 3"/>
    <path d="M 337.737644 270.045122 
L 337.737644 263.993255 
" clip-path="url(#p542c1b584a)" style="fill: none; stroke: #d3d3d3; stroke-width: 3"/>
    <path d="M 242.19306 264.050844 
L 242.19306 253.262108 
" clip-path="url(#p542c1b584a)" style="fill: none; stroke: #d3d3d3; stroke-width: 3"/>
    <path d="M 325.311212 224.171148 
L 325.311212 182.263517 
" clip-path="url(#p542c1b584a)" style="fill: none; stroke: #d3d3d3; stroke-width: 3"/>
    <path d="M 337.615726 275.309288 
L 337.615726 260.279499 
" clip-path="url(#p542c1b584a)" style="fill: none; stroke: #d3d3d3; stroke-width: 3"/>
    <path d="M 308.156433 200.990634 
L 308.156433 178.381591 
" clip-path="url(#p542c1b584a)" style="fill: none; stroke: #d3d3d3; stroke-width: 3"/>
   </g>
   <g id="line2d_14">
    <path d="M 249.38392 204.32509 
L 220.159262 195.243745 
L 228.403677 197.805636 
L 186.509902 184.787457 
L 203.859059 190.178578 
L 231.802428 198.861772 
L 210.635858 192.284418 
L 181.354842 183.18556 
L 249.45293 204.346535 
L 185.298773 184.411108 
L 243.75269 202.575227 
L 287.629358 216.209575 
L 193.847983 187.067711 
L 252.680306 205.349417 
L 261.035137 207.945619 
L 276.335843 212.7002 
L 207.254359 191.233643 
L 232.277448 199.009381 
L 264.601813 209.053937 
L 255.263586 206.152153 
L 263.265316 208.638631 
L 239.850164 201.362547 
L 194.474826 187.262498 
L 260.326633 207.725457 
L 254.74486 205.990962 
L 242.110248 202.064851 
L 222.99443 196.124752 
L 195.45707 187.567723 
L 247.298662 203.677112 
L 243.516905 202.501959 
L 257.302837 206.785835 
L 282.378834 214.578014 
L 220.668787 195.402076 
L 275.905679 212.566529 
L 249.358616 204.317227 
L 238.044398 200.801418 
L 260.891366 207.900943 
L 276.833866 212.854957 
L 244.36688 202.766082 
L 293.81957 218.133138 
L 320.051487 226.284511 
L 337.075146 231.574486 
L 220.498562 195.34918 
L 231.528688 198.77671 
L 338.99823 232.17207 
L 298.136156 219.474485 
L 326.419976 228.263471 
L 261.229516 208.006021 
L 207.643117 191.354446 
L 255.050805 206.086033 
L 337.796303 231.79858 
L 300.054639 220.070639 
L 230.179539 198.357472 
L 431.719148 260.984405 
L 296.654738 219.014145 
L 227.114337 197.404983 
L 302.886357 220.950574 
L 284.99892 215.392186 
L 66.102102 147.371629 
L 269.760323 210.656906 
L 337.16486 231.602364 
L 353.866471 236.792265 
L 330.934391 229.666292 
L 200.996287 189.288993 
L 248.252153 203.973402 
L 281.822151 214.405029 
L 337.207416 231.615588 
L 233.929092 199.522617 
L 337.765248 231.78893 
L 284.920708 215.367883 
L 308.284102 222.627883 
L 319.52931 226.122248 
L 286.587304 215.885765 
L 293.992095 218.186749 
L 296.67084 219.019149 
L 330.436368 229.511535 
L 307.418025 222.358756 
L 311.843877 223.734057 
L 288.344763 216.431882 
L 337.841159 231.812519 
L 309.586094 223.032468 
L 286.165192 215.754597 
L 337.187863 231.609512 
L 257.972236 206.993845 
L 312.210781 223.84807 
L 287.533893 216.17991 
L 346.492735 234.500932 
L 279.751846 213.761697 
L 233.243591 199.309603 
L 315.894774 224.992843 
L 277.211122 212.972186 
L 202.128054 189.640681 
L 312.077361 223.80661 
L 290.459925 217.089153 
L 337.737644 231.780352 
L 242.19306 202.090584 
L 325.311212 227.918931 
L 337.615726 231.742467 
L 308.156433 222.588211 
" clip-path="url(#p542c1b584a)" style="fill: none; stroke: #1f77b4; stroke-width: 1.5; stroke-linecap: square"/>
   </g>
   <g id="line2d_15">
    <defs>
     <path id="m3a87b8d3ac" d="M 0 3 
C 0.795609 3 1.55874 2.683901 2.12132 2.12132 
C 2.683901 1.55874 3 0.795609 3 0 
C 3 -0.795609 2.683901 -1.55874 2.12132 -2.12132 
C 1.55874 -2.683901 0.795609 -3 0 -3 
C -0.795609 -3 -1.55874 -2.683901 -2.12132 -2.12132 
C -2.683901 -1.55874 -3 -0.795609 -3 0 
C -3 0.795609 -2.683901 1.55874 -2.12132 2.12132 
C -1.55874 2.683901 -0.795609 3 0 3 
z
" style="stroke: #000000"/>
    </defs>
    <g clip-path="url(#p542c1b584a)">
     <use xlink:href="#m3a87b8d3ac" x="249.38392" y="130.959359" style="stroke: #000000"/>
     <use xlink:href="#m3a87b8d3ac" x="220.159262" y="171.924963" style="stroke: #000000"/>
     <use xlink:href="#m3a87b8d3ac" x="228.403677" y="149.176949" style="stroke: #000000"/>
     <use xlink:href="#m3a87b8d3ac" x="186.509902" y="187.947791" style="stroke: #000000"/>
     <use xlink:href="#m3a87b8d3ac" x="203.859059" y="139.330448" style="stroke: #000000"/>
     <use xlink:href="#m3a87b8d3ac" x="231.802428" y="167.588679" style="stroke: #000000"/>
     <use xlink:href="#m3a87b8d3ac" x="210.635858" y="166.2892" style="stroke: #000000"/>
     <use xlink:href="#m3a87b8d3ac" x="181.354842" y="178.494471" style="stroke: #000000"/>
     <use xlink:href="#m3a87b8d3ac" x="249.45293" y="152.797842" style="stroke: #000000"/>
     <use xlink:href="#m3a87b8d3ac" x="185.298773" y="177.873096" style="stroke: #000000"/>
     <use xlink:href="#m3a87b8d3ac" x="243.75269" y="182.082324" style="stroke: #000000"/>
     <use xlink:href="#m3a87b8d3ac" x="287.629358" y="176.034391" style="stroke: #000000"/>
     <use xlink:href="#m3a87b8d3ac" x="193.847983" y="189.955213" style="stroke: #000000"/>
     <use xlink:href="#m3a87b8d3ac" x="252.680306" y="174.970331" style="stroke: #000000"/>
     <use xlink:href="#m3a87b8d3ac" x="261.035137" y="154.265689" style="stroke: #000000"/>
     <use xlink:href="#m3a87b8d3ac" x="276.335843" y="159.147361" style="stroke: #000000"/>
     <use xlink:href="#m3a87b8d3ac" x="207.254359" y="183.026393" style="stroke: #000000"/>
     <use xlink:href="#m3a87b8d3ac" x="232.277448" y="194.624733" style="stroke: #000000"/>
     <use xlink:href="#m3a87b8d3ac" x="264.601813" y="161.726601" style="stroke: #000000"/>
     <use xlink:href="#m3a87b8d3ac" x="255.263586" y="185.238795" style="stroke: #000000"/>
     <use xlink:href="#m3a87b8d3ac" x="263.265316" y="167.965703" style="stroke: #000000"/>
     <use xlink:href="#m3a87b8d3ac" x="239.850164" y="156.852598" style="stroke: #000000"/>
     <use xlink:href="#m3a87b8d3ac" x="194.474826" y="199.535406" style="stroke: #000000"/>
     <use xlink:href="#m3a87b8d3ac" x="260.326633" y="219.48894" style="stroke: #000000"/>
     <use xlink:href="#m3a87b8d3ac" x="254.74486" y="170.578478" style="stroke: #000000"/>
     <use xlink:href="#m3a87b8d3ac" x="242.110248" y="170.72733" style="stroke: #000000"/>
     <use xlink:href="#m3a87b8d3ac" x="222.99443" y="240.721089" style="stroke: #000000"/>
     <use xlink:href="#m3a87b8d3ac" x="195.45707" y="162.211221" style="stroke: #000000"/>
     <use xlink:href="#m3a87b8d3ac" x="247.298662" y="151.064163" style="stroke: #000000"/>
     <use xlink:href="#m3a87b8d3ac" x="243.516905" y="189.935811" style="stroke: #000000"/>
     <use xlink:href="#m3a87b8d3ac" x="257.302837" y="184.032157" style="stroke: #000000"/>
     <use xlink:href="#m3a87b8d3ac" x="282.378834" y="131.610941" style="stroke: #000000"/>
     <use xlink:href="#m3a87b8d3ac" x="220.668787" y="167.007139" style="stroke: #000000"/>
     <use xlink:href="#m3a87b8d3ac" x="275.905679" y="156.469238" style="stroke: #000000"/>
     <use xlink:href="#m3a87b8d3ac" x="249.358616" y="155.262336" style="stroke: #000000"/>
     <use xlink:href="#m3a87b8d3ac" x="238.044398" y="266.354983" style="stroke: #000000"/>
     <use xlink:href="#m3a87b8d3ac" x="260.891366" y="177.191234" style="stroke: #000000"/>
     <use xlink:href="#m3a87b8d3ac" x="276.833866" y="256.43285" style="stroke: #000000"/>
     <use xlink:href="#m3a87b8d3ac" x="244.36688" y="169.217148" style="stroke: #000000"/>
     <use xlink:href="#m3a87b8d3ac" x="293.81957" y="180.004944" style="stroke: #000000"/>
     <use xlink:href="#m3a87b8d3ac" x="320.051487" y="261.908654" style="stroke: #000000"/>
     <use xlink:href="#m3a87b8d3ac" x="337.075146" y="180.005281" style="stroke: #000000"/>
     <use xlink:href="#m3a87b8d3ac" x="220.498562" y="169.802284" style="stroke: #000000"/>
     <use xlink:href="#m3a87b8d3ac" x="231.528688" y="182.42158" style="stroke: #000000"/>
     <use xlink:href="#m3a87b8d3ac" x="338.99823" y="270.930256" style="stroke: #000000"/>
     <use xlink:href="#m3a87b8d3ac" x="298.136156" y="150.160399" style="stroke: #000000"/>
     <use xlink:href="#m3a87b8d3ac" x="326.419976" y="283.195248" style="stroke: #000000"/>
     <use xlink:href="#m3a87b8d3ac" x="261.229516" y="139.116969" style="stroke: #000000"/>
     <use xlink:href="#m3a87b8d3ac" x="207.643117" y="270.604259" style="stroke: #000000"/>
     <use xlink:href="#m3a87b8d3ac" x="255.050805" y="269.815994" style="stroke: #000000"/>
     <use xlink:href="#m3a87b8d3ac" x="337.796303" y="195.178023" style="stroke: #000000"/>
     <use xlink:href="#m3a87b8d3ac" x="300.054639" y="217.64737" style="stroke: #000000"/>
     <use xlink:href="#m3a87b8d3ac" x="230.179539" y="258.634936" style="stroke: #000000"/>
     <use xlink:href="#m3a87b8d3ac" x="431.719148" y="253.437666" style="stroke: #000000"/>
     <use xlink:href="#m3a87b8d3ac" x="296.654738" y="271.4894" style="stroke: #000000"/>
     <use xlink:href="#m3a87b8d3ac" x="227.114337" y="263.627128" style="stroke: #000000"/>
     <use xlink:href="#m3a87b8d3ac" x="302.886357" y="181.533798" style="stroke: #000000"/>
     <use xlink:href="#m3a87b8d3ac" x="284.99892" y="204.464487" style="stroke: #000000"/>
     <use xlink:href="#m3a87b8d3ac" x="66.102102" y="203.317478" style="stroke: #000000"/>
     <use xlink:href="#m3a87b8d3ac" x="269.760323" y="206.307239" style="stroke: #000000"/>
     <use xlink:href="#m3a87b8d3ac" x="337.16486" y="278.497802" style="stroke: #000000"/>
     <use xlink:href="#m3a87b8d3ac" x="353.866471" y="196.12994" style="stroke: #000000"/>
     <use xlink:href="#m3a87b8d3ac" x="330.934391" y="244.390679" style="stroke: #000000"/>
     <use xlink:href="#m3a87b8d3ac" x="200.996287" y="210.772875" style="stroke: #000000"/>
     <use xlink:href="#m3a87b8d3ac" x="248.252153" y="248.639396" style="stroke: #000000"/>
     <use xlink:href="#m3a87b8d3ac" x="281.822151" y="181.085216" style="stroke: #000000"/>
     <use xlink:href="#m3a87b8d3ac" x="337.207416" y="275.055682" style="stroke: #000000"/>
     <use xlink:href="#m3a87b8d3ac" x="233.929092" y="183.303291" style="stroke: #000000"/>
     <use xlink:href="#m3a87b8d3ac" x="337.765248" y="227.52115" style="stroke: #000000"/>
     <use xlink:href="#m3a87b8d3ac" x="284.920708" y="274.578155" style="stroke: #000000"/>
     <use xlink:href="#m3a87b8d3ac" x="308.284102" y="282.389961" style="stroke: #000000"/>
     <use xlink:href="#m3a87b8d3ac" x="319.52931" y="239.313976" style="stroke: #000000"/>
     <use xlink:href="#m3a87b8d3ac" x="286.587304" y="257.612859" style="stroke: #000000"/>
     <use xlink:href="#m3a87b8d3ac" x="293.992095" y="221.241896" style="stroke: #000000"/>
     <use xlink:href="#m3a87b8d3ac" x="296.67084" y="237.532741" style="stroke: #000000"/>
     <use xlink:href="#m3a87b8d3ac" x="330.436368" y="226.181637" style="stroke: #000000"/>
     <use xlink:href="#m3a87b8d3ac" x="307.418025" y="245.579353" style="stroke: #000000"/>
     <use xlink:href="#m3a87b8d3ac" x="311.843877" y="187.269527" style="stroke: #000000"/>
     <use xlink:href="#m3a87b8d3ac" x="288.344763" y="218.352188" style="stroke: #000000"/>
     <use xlink:href="#m3a87b8d3ac" x="337.841159" y="267.845715" style="stroke: #000000"/>
     <use xlink:href="#m3a87b8d3ac" x="309.586094" y="274.482927" style="stroke: #000000"/>
     <use xlink:href="#m3a87b8d3ac" x="286.165192" y="263.890282" style="stroke: #000000"/>
     <use xlink:href="#m3a87b8d3ac" x="337.187863" y="257.985404" style="stroke: #000000"/>
     <use xlink:href="#m3a87b8d3ac" x="257.972236" y="251.556288" style="stroke: #000000"/>
     <use xlink:href="#m3a87b8d3ac" x="312.210781" y="244.345713" style="stroke: #000000"/>
     <use xlink:href="#m3a87b8d3ac" x="287.533893" y="271.985761" style="stroke: #000000"/>
     <use xlink:href="#m3a87b8d3ac" x="346.492735" y="281.613384" style="stroke: #000000"/>
     <use xlink:href="#m3a87b8d3ac" x="279.751846" y="277.448396" style="stroke: #000000"/>
     <use xlink:href="#m3a87b8d3ac" x="233.243591" y="257.805577" style="stroke: #000000"/>
     <use xlink:href="#m3a87b8d3ac" x="315.894774" y="162.441182" style="stroke: #000000"/>
     <use xlink:href="#m3a87b8d3ac" x="277.211122" y="269.485579" style="stroke: #000000"/>
     <use xlink:href="#m3a87b8d3ac" x="202.128054" y="284.385932" style="stroke: #000000"/>
     <use xlink:href="#m3a87b8d3ac" x="312.077361" y="136.426822" style="stroke: #000000"/>
     <use xlink:href="#m3a87b8d3ac" x="290.459925" y="257.181392" style="stroke: #000000"/>
     <use xlink:href="#m3a87b8d3ac" x="337.737644" y="267.019188" style="stroke: #000000"/>
     <use xlink:href="#m3a87b8d3ac" x="242.19306" y="258.656476" style="stroke: #000000"/>
     <use xlink:href="#m3a87b8d3ac" x="325.311212" y="203.217332" style="stroke: #000000"/>
     <use xlink:href="#m3a87b8d3ac" x="337.615726" y="267.794394" style="stroke: #000000"/>
     <use xlink:href="#m3a87b8d3ac" x="308.156433" y="189.686113" style="stroke: #000000"/>
    </g>
   </g>
   <g id="patch_3">
    <path d="M 47.82125 303.64 
L 47.82125 46.675714 
" style="fill: none; stroke: #000000; stroke-width: 0.8; stroke-linejoin: miter; stroke-linecap: square"/>
   </g>
   <g id="patch_4">
    <path d="M 450 303.64 
L 450 46.675714 
" style="fill: none; stroke: #000000; stroke-width: 0.8; stroke-linejoin: miter; stroke-linecap: square"/>
   </g>
   <g id="patch_5">
    <path d="M 47.82125 303.64 
L 450 303.64 
" style="fill: none; stroke: #000000; stroke-width: 0.8; stroke-linejoin: miter; stroke-linecap: square"/>
   </g>
   <g id="patch_6">
    <path d="M 47.82125 46.675714 
L 450 46.675714 
" style="fill: none; stroke: #000000; stroke-width: 0.8; stroke-linejoin: miter; stroke-linecap: square"/>
   </g>
   <g id="text_16">
    <!-- y = -0.04x + 0.75 -->
    <g transform="translate(43.314906 18.599375)scale(0.1 -0.1)">
     <defs>
      <path id="DejaVuSans-79" d="M 2059 -325 
Q 1816 -950 1584 -1140 
Q 1353 -1331 966 -1331 
L 506 -1331 
L 506 -850 
L 844 -850 
Q 1081 -850 1212 -737 
Q 1344 -625 1503 -206 
L 1606 56 
L 191 3500 
L 800 3500 
L 1894 763 
L 2988 3500 
L 3597 3500 
L 2059 -325 
z
" transform="scale(0.015625)"/>
      <path id="DejaVuSans-20" transform="scale(0.015625)"/>
      <path id="DejaVuSans-3d" d="M 678 2906 
L 4684 2906 
L 4684 2381 
L 678 2381 
L 678 2906 
z
M 678 1631 
L 4684 1631 
L 4684 1100 
L 678 1100 
L 678 1631 
z
" transform="scale(0.015625)"/>
      <path id="DejaVuSans-2d" d="M 313 2009 
L 1997 2009 
L 1997 1497 
L 313 1497 
L 313 2009 
z
" transform="scale(0.015625)"/>
      <path id="DejaVuSans-34" d="M 2419 4116 
L 825 1625 
L 2419 1625 
L 2419 4116 
z
M 2253 4666 
L 3047 4666 
L 3047 1625 
L 3713 1625 
L 3713 1100 
L 3047 1100 
L 3047 0 
L 2419 0 
L 2419 1100 
L 313 1100 
L 313 1709 
L 2253 4666 
z
" transform="scale(0.015625)"/>
      <path id="DejaVuSans-78" d="M 3513 3500 
L 2247 1797 
L 3578 0 
L 2900 0 
L 1881 1375 
L 863 0 
L 184 0 
L 1544 1831 
L 300 3500 
L 978 3500 
L 1906 2253 
L 2834 3500 
L 3513 3500 
z
" transform="scale(0.015625)"/>
      <path id="DejaVuSans-2b" d="M 2944 4013 
L 2944 2272 
L 4684 2272 
L 4684 1741 
L 2944 1741 
L 2944 0 
L 2419 0 
L 2419 1741 
L 678 1741 
L 678 2272 
L 2419 2272 
L 2419 4013 
L 2944 4013 
z
" transform="scale(0.015625)"/>
      <path id="DejaVuSans-37" d="M 525 4666 
L 3525 4666 
L 3525 4397 
L 1831 0 
L 1172 0 
L 2766 4134 
L 525 4134 
L 525 4666 
z
" transform="scale(0.015625)"/>
     </defs>
     <use xlink:href="#DejaVuSans-79"/>
     <use xlink:href="#DejaVuSans-20" x="59.179688"/>
     <use xlink:href="#DejaVuSans-3d" x="90.966797"/>
     <use xlink:href="#DejaVuSans-20" x="174.755859"/>
     <use xlink:href="#DejaVuSans-2d" x="206.542969"/>
     <use xlink:href="#DejaVuSans-30" x="242.626953"/>
     <use xlink:href="#DejaVuSans-2e" x="306.25"/>
     <use xlink:href="#DejaVuSans-30" x="338.037109"/>
     <use xlink:href="#DejaVuSans-34" x="401.660156"/>
     <use xlink:href="#DejaVuSans-78" x="465.283203"/>
     <use xlink:href="#DejaVuSans-20" x="524.462891"/>
     <use xlink:href="#DejaVuSans-2b" x="556.25"/>
     <use xlink:href="#DejaVuSans-20" x="640.039062"/>
     <use xlink:href="#DejaVuSans-30" x="671.826172"/>
     <use xlink:href="#DejaVuSans-2e" x="735.449219"/>
     <use xlink:href="#DejaVuSans-37" x="767.236328"/>
     <use xlink:href="#DejaVuSans-35" x="830.859375"/>
    </g>
   </g>
   <g id="text_17">
    <!-- r^2 = 0.12 -->
    <g transform="translate(60.111781 26.308304)scale(0.1 -0.1)">
     <defs>
      <path id="DejaVuSans-5e" d="M 2988 4666 
L 4684 2925 
L 4056 2925 
L 2681 4159 
L 1306 2925 
L 678 2925 
L 2375 4666 
L 2988 4666 
z
" transform="scale(0.015625)"/>
     </defs>
     <use xlink:href="#DejaVuSans-72"/>
     <use xlink:href="#DejaVuSans-5e" x="41.113281"/>
     <use xlink:href="#DejaVuSans-32" x="124.902344"/>
     <use xlink:href="#DejaVuSans-20" x="188.525391"/>
     <use xlink:href="#DejaVuSans-3d" x="220.3125"/>
     <use xlink:href="#DejaVuSans-20" x="304.101562"/>
     <use xlink:href="#DejaVuSans-30" x="335.888672"/>
     <use xlink:href="#DejaVuSans-2e" x="399.511719"/>
     <use xlink:href="#DejaVuSans-31" x="431.298828"/>
     <use xlink:href="#DejaVuSans-32" x="494.921875"/>
    </g>
   </g>
   <g id="text_18">
    <!-- n = 99 -->
    <g transform="translate(71.139906 34.017232)scale(0.1 -0.1)">
     <defs>
      <path id="DejaVuSans-39" d="M 703 97 
L 703 672 
Q 941 559 1184 500 
Q 1428 441 1663 441 
Q 2288 441 2617 861 
Q 2947 1281 2994 2138 
Q 2813 1869 2534 1725 
Q 2256 1581 1919 1581 
Q 1219 1581 811 2004 
Q 403 2428 403 3163 
Q 403 3881 828 4315 
Q 1253 4750 1959 4750 
Q 2769 4750 3195 4129 
Q 3622 3509 3622 2328 
Q 3622 1225 3098 567 
Q 2575 -91 1691 -91 
Q 1453 -91 1209 -44 
Q 966 3 703 97 
z
M 1959 2075 
Q 2384 2075 2632 2365 
Q 2881 2656 2881 3163 
Q 2881 3666 2632 3958 
Q 2384 4250 1959 4250 
Q 1534 4250 1286 3958 
Q 1038 3666 1038 3163 
Q 1038 2656 1286 2365 
Q 1534 2075 1959 2075 
z
" transform="scale(0.015625)"/>
     </defs>
     <use xlink:href="#DejaVuSans-6e"/>
     <use xlink:href="#DejaVuSans-20" x="63.378906"/>
     <use xlink:href="#DejaVuSans-3d" x="95.166016"/>
     <use xlink:href="#DejaVuSans-20" x="178.955078"/>
     <use xlink:href="#DejaVuSans-39" x="210.742188"/>
     <use xlink:href="#DejaVuSans-39" x="274.365234"/>
    </g>
   </g>
   <g id="text_19">
    <!-- HBONDDiff vs PercentGpA_transformed -->
    <g transform="translate(130.507187 40.675714)scale(0.12 -0.12)">
     <defs>
      <path id="DejaVuSans-76" d="M 191 3500 
L 800 3500 
L 1894 563 
L 2988 3500 
L 3597 3500 
L 2284 0 
L 1503 0 
L 191 3500 
z
" transform="scale(0.015625)"/>
     </defs>
     <use xlink:href="#DejaVuSans-48"/>
     <use xlink:href="#DejaVuSans-42" x="75.195312"/>
     <use xlink:href="#DejaVuSans-4f" x="142.048828"/>
     <use xlink:href="#DejaVuSans-4e" x="220.759766"/>
     <use xlink:href="#DejaVuSans-44" x="295.564453"/>
     <use xlink:href="#DejaVuSans-44" x="372.566406"/>
     <use xlink:href="#DejaVuSans-69" x="449.568359"/>
     <use xlink:href="#DejaVuSans-66" x="477.351562"/>
     <use xlink:href="#DejaVuSans-66" x="512.556641"/>
     <use xlink:href="#DejaVuSans-20" x="547.761719"/>
     <use xlink:href="#DejaVuSans-76" x="579.548828"/>
     <use xlink:href="#DejaVuSans-73" x="638.728516"/>
     <use xlink:href="#DejaVuSans-20" x="690.828125"/>
     <use xlink:href="#DejaVuSans-50" x="722.615234"/>
     <use xlink:href="#DejaVuSans-65" x="779.292969"/>
     <use xlink:href="#DejaVuSans-72" x="840.816406"/>
     <use xlink:href="#DejaVuSans-63" x="879.679688"/>
     <use xlink:href="#DejaVuSans-65" x="934.660156"/>
     <use xlink:href="#DejaVuSans-6e" x="996.183594"/>
     <use xlink:href="#DejaVuSans-74" x="1059.5625"/>
     <use xlink:href="#DejaVuSans-47" x="1098.771484"/>
     <use xlink:href="#DejaVuSans-70" x="1176.261719"/>
     <use xlink:href="#DejaVuSans-41" x="1239.738281"/>
     <use xlink:href="#DejaVuSans-5f" x="1308.146484"/>
     <use xlink:href="#DejaVuSans-74" x="1358.146484"/>
     <use xlink:href="#DejaVuSans-72" x="1397.355469"/>
     <use xlink:href="#DejaVuSans-61" x="1438.46875"/>
     <use xlink:href="#DejaVuSans-6e" x="1499.748047"/>
     <use xlink:href="#DejaVuSans-73" x="1563.126953"/>
     <use xlink:href="#DejaVuSans-66" x="1615.226562"/>
     <use xlink:href="#DejaVuSans-6f" x="1650.431641"/>
     <use xlink:href="#DejaVuSans-72" x="1711.613281"/>
     <use xlink:href="#DejaVuSans-6d" x="1750.976562"/>
     <use xlink:href="#DejaVuSans-65" x="1848.388672"/>
     <use xlink:href="#DejaVuSans-64" x="1909.912109"/>
    </g>
   </g>
  </g>
 </g>
 <defs>
  <clipPath id="p542c1b584a">
   <rect x="47.82125" y="46.675714" width="402.17875" height="256.964286"/>
  </clipPath>
 </defs>
</svg>
