<?xml version="1.0" encoding="utf-8" standalone="no"?>
<!DOCTYPE svg PUBLIC "-//W3C//DTD SVG 1.1//EN"
  "http://www.w3.org/Graphics/SVG/1.1/DTD/svg11.dtd">
<svg xmlns:xlink="http://www.w3.org/1999/xlink" width="460.8pt" height="345.6pt" viewBox="0 0 460.8 345.6" xmlns="http://www.w3.org/2000/svg" version="1.1">
 <metadata>
  <rdf:RDF xmlns:dc="http://purl.org/dc/elements/1.1/" xmlns:cc="http://creativecommons.org/ns#" xmlns:rdf="http://www.w3.org/1999/02/22-rdf-syntax-ns#">
   <cc:Work>
    <dc:type rdf:resource="http://purl.org/dc/dcmitype/StillImage"/>
    <dc:date>2024-06-14T16:10:49.923519</dc:date>
    <dc:format>image/svg+xml</dc:format>
    <dc:creator>
     <cc:Agent>
      <dc:title>Matplotlib v3.5.3, https://matplotlib.org/</dc:title>
     </cc:Agent>
    </dc:creator>
   </cc:Work>
  </rdf:RDF>
 </metadata>
 <defs>
  <style type="text/css">*{stroke-linejoin: round; stroke-linecap: butt}</style>
 </defs>
 <g id="figure_1">
  <g id="patch_1">
   <path d="M 0 345.6 
L 460.8 345.6 
L 460.8 0 
L 0 0 
z
" style="fill: #ffffff"/>
  </g>
  <g id="axes_1">
   <g id="patch_2">
    <path d="M 63.57125 303.64 
L 450 303.64 
L 450 13.022438 
L 63.57125 13.022438 
z
" style="fill: #ffffff"/>
   </g>
   <g id="matplotlib.axis_1">
    <g id="xtick_1">
     <g id="text_1">
      <!-- 11G -->
      <g style="fill: #262626" transform="translate(117.739323 318.238437)scale(0.1 -0.1)">
       <defs>
        <path id="DejaVuSans-31" d="M 794 531 
L 1825 531 
L 1825 4091 
L 703 3866 
L 703 4441 
L 1819 4666 
L 2450 4666 
L 2450 531 
L 3481 531 
L 3481 0 
L 794 0 
L 794 531 
z
" transform="scale(0.015625)"/>
        <path id="DejaVuSans-47" d="M 3809 666 
L 3809 1919 
L 2778 1919 
L 2778 2438 
L 4434 2438 
L 4434 434 
Q 4069 175 3628 42 
Q 3188 -91 2688 -91 
Q 1594 -91 976 548 
Q 359 1188 359 2328 
Q 359 3472 976 4111 
Q 1594 4750 2688 4750 
Q 3144 4750 3555 4637 
Q 3966 4525 4313 4306 
L 4313 3634 
Q 3963 3931 3569 4081 
Q 3175 4231 2741 4231 
Q 1884 4231 1454 3753 
Q 1025 3275 1025 2328 
Q 1025 1384 1454 906 
Q 1884 428 2741 428 
Q 3075 428 3337 486 
Q 3600 544 3809 666 
z
" transform="scale(0.015625)"/>
       </defs>
       <use xlink:href="#DejaVuSans-31"/>
       <use xlink:href="#DejaVuSans-31" x="63.623047"/>
       <use xlink:href="#DejaVuSans-47" x="127.246094"/>
      </g>
     </g>
    </g>
    <g id="xtick_2">
     <g id="text_2">
      <!-- 15G -->
      <g style="fill: #262626" transform="translate(246.548906 318.238437)scale(0.1 -0.1)">
       <defs>
        <path id="DejaVuSans-35" d="M 691 4666 
L 3169 4666 
L 3169 4134 
L 1269 4134 
L 1269 2991 
Q 1406 3038 1543 3061 
Q 1681 3084 1819 3084 
Q 2600 3084 3056 2656 
Q 3513 2228 3513 1497 
Q 3513 744 3044 326 
Q 2575 -91 1722 -91 
Q 1428 -91 1123 -41 
Q 819 9 494 109 
L 494 744 
Q 775 591 1075 516 
Q 1375 441 1709 441 
Q 2250 441 2565 725 
Q 2881 1009 2881 1497 
Q 2881 1984 2565 2268 
Q 2250 2553 1709 2553 
Q 1456 2553 1204 2497 
Q 953 2441 691 2322 
L 691 4666 
z
" transform="scale(0.015625)"/>
       </defs>
       <use xlink:href="#DejaVuSans-31"/>
       <use xlink:href="#DejaVuSans-35" x="63.623047"/>
       <use xlink:href="#DejaVuSans-47" x="127.246094"/>
      </g>
     </g>
    </g>
    <g id="xtick_3">
     <g id="text_3">
      <!-- 7G -->
      <g style="fill: #262626" transform="translate(378.53974 318.238437)scale(0.1 -0.1)">
       <defs>
        <path id="DejaVuSans-37" d="M 525 4666 
L 3525 4666 
L 3525 4397 
L 1831 0 
L 1172 0 
L 2766 4134 
L 525 4134 
L 525 4666 
z
" transform="scale(0.015625)"/>
       </defs>
       <use xlink:href="#DejaVuSans-37"/>
       <use xlink:href="#DejaVuSans-47" x="63.623047"/>
      </g>
     </g>
    </g>
    <g id="text_4">
     <!-- pos_wtAA -->
     <g style="fill: #262626" transform="translate(232.42 331.638437)scale(0.1 -0.1)">
      <defs>
       <path id="DejaVuSans-70" d="M 1159 525 
L 1159 -1331 
L 581 -1331 
L 581 3500 
L 1159 3500 
L 1159 2969 
Q 1341 3281 1617 3432 
Q 1894 3584 2278 3584 
Q 2916 3584 3314 3078 
Q 3713 2572 3713 1747 
Q 3713 922 3314 415 
Q 2916 -91 2278 -91 
Q 1894 -91 1617 61 
Q 1341 213 1159 525 
z
M 3116 1747 
Q 3116 2381 2855 2742 
Q 2594 3103 2138 3103 
Q 1681 3103 1420 2742 
Q 1159 2381 1159 1747 
Q 1159 1113 1420 752 
Q 1681 391 2138 391 
Q 2594 391 2855 752 
Q 3116 1113 3116 1747 
z
" transform="scale(0.015625)"/>
       <path id="DejaVuSans-6f" d="M 1959 3097 
Q 1497 3097 1228 2736 
Q 959 2375 959 1747 
Q 959 1119 1226 758 
Q 1494 397 1959 397 
Q 2419 397 2687 759 
Q 2956 1122 2956 1747 
Q 2956 2369 2687 2733 
Q 2419 3097 1959 3097 
z
M 1959 3584 
Q 2709 3584 3137 3096 
Q 3566 2609 3566 1747 
Q 3566 888 3137 398 
Q 2709 -91 1959 -91 
Q 1206 -91 779 398 
Q 353 888 353 1747 
Q 353 2609 779 3096 
Q 1206 3584 1959 3584 
z
" transform="scale(0.015625)"/>
       <path id="DejaVuSans-73" d="M 2834 3397 
L 2834 2853 
Q 2591 2978 2328 3040 
Q 2066 3103 1784 3103 
Q 1356 3103 1142 2972 
Q 928 2841 928 2578 
Q 928 2378 1081 2264 
Q 1234 2150 1697 2047 
L 1894 2003 
Q 2506 1872 2764 1633 
Q 3022 1394 3022 966 
Q 3022 478 2636 193 
Q 2250 -91 1575 -91 
Q 1294 -91 989 -36 
Q 684 19 347 128 
L 347 722 
Q 666 556 975 473 
Q 1284 391 1588 391 
Q 1994 391 2212 530 
Q 2431 669 2431 922 
Q 2431 1156 2273 1281 
Q 2116 1406 1581 1522 
L 1381 1569 
Q 847 1681 609 1914 
Q 372 2147 372 2553 
Q 372 3047 722 3315 
Q 1072 3584 1716 3584 
Q 2034 3584 2315 3537 
Q 2597 3491 2834 3397 
z
" transform="scale(0.015625)"/>
       <path id="DejaVuSans-5f" d="M 3263 -1063 
L 3263 -1509 
L -63 -1509 
L -63 -1063 
L 3263 -1063 
z
" transform="scale(0.015625)"/>
       <path id="DejaVuSans-77" d="M 269 3500 
L 844 3500 
L 1563 769 
L 2278 3500 
L 2956 3500 
L 3675 769 
L 4391 3500 
L 4966 3500 
L 4050 0 
L 3372 0 
L 2619 2869 
L 1863 0 
L 1184 0 
L 269 3500 
z
" transform="scale(0.015625)"/>
       <path id="DejaVuSans-74" d="M 1172 4494 
L 1172 3500 
L 2356 3500 
L 2356 3053 
L 1172 3053 
L 1172 1153 
Q 1172 725 1289 603 
Q 1406 481 1766 481 
L 2356 481 
L 2356 0 
L 1766 0 
Q 1100 0 847 248 
Q 594 497 594 1153 
L 594 3053 
L 172 3053 
L 172 3500 
L 594 3500 
L 594 4494 
L 1172 4494 
z
" transform="scale(0.015625)"/>
       <path id="DejaVuSans-41" d="M 2188 4044 
L 1331 1722 
L 3047 1722 
L 2188 4044 
z
M 1831 4666 
L 2547 4666 
L 4325 0 
L 3669 0 
L 3244 1197 
L 1141 1197 
L 716 0 
L 50 0 
L 1831 4666 
z
" transform="scale(0.015625)"/>
      </defs>
      <use xlink:href="#DejaVuSans-70"/>
      <use xlink:href="#DejaVuSans-6f" x="63.476562"/>
      <use xlink:href="#DejaVuSans-73" x="124.658203"/>
      <use xlink:href="#DejaVuSans-5f" x="176.757812"/>
      <use xlink:href="#DejaVuSans-77" x="226.757812"/>
      <use xlink:href="#DejaVuSans-74" x="308.544922"/>
      <use xlink:href="#DejaVuSans-41" x="347.753906"/>
      <use xlink:href="#DejaVuSans-41" x="418.912109"/>
     </g>
    </g>
   </g>
   <g id="matplotlib.axis_2">
    <g id="ytick_1">
     <g id="line2d_1">
      <path d="M 63.57125 303.64 
L 450 303.64 
" clip-path="url(#p9a76195c94)" style="fill: none; stroke: #cccccc; stroke-width: 0.8; stroke-linecap: round"/>
     </g>
     <g id="text_5">
      <!-- 0 -->
      <g style="fill: #262626" transform="translate(50.20875 307.439219)scale(0.1 -0.1)">
       <defs>
        <path id="DejaVuSans-30" d="M 2034 4250 
Q 1547 4250 1301 3770 
Q 1056 3291 1056 2328 
Q 1056 1369 1301 889 
Q 1547 409 2034 409 
Q 2525 409 2770 889 
Q 3016 1369 3016 2328 
Q 3016 3291 2770 3770 
Q 2525 4250 2034 4250 
z
M 2034 4750 
Q 2819 4750 3233 4129 
Q 3647 3509 3647 2328 
Q 3647 1150 3233 529 
Q 2819 -91 2034 -91 
Q 1250 -91 836 529 
Q 422 1150 422 2328 
Q 422 3509 836 4129 
Q 1250 4750 2034 4750 
z
" transform="scale(0.015625)"/>
       </defs>
       <use xlink:href="#DejaVuSans-30"/>
      </g>
     </g>
    </g>
    <g id="ytick_2">
     <g id="line2d_2">
      <path d="M 63.57125 262.414378 
L 450 262.414378 
" clip-path="url(#p9a76195c94)" style="fill: none; stroke: #cccccc; stroke-width: 0.8; stroke-linecap: round"/>
     </g>
     <g id="text_6">
      <!-- 5000 -->
      <g style="fill: #262626" transform="translate(31.12125 266.213596)scale(0.1 -0.1)">
       <use xlink:href="#DejaVuSans-35"/>
       <use xlink:href="#DejaVuSans-30" x="63.623047"/>
       <use xlink:href="#DejaVuSans-30" x="127.246094"/>
       <use xlink:href="#DejaVuSans-30" x="190.869141"/>
      </g>
     </g>
    </g>
    <g id="ytick_3">
     <g id="line2d_3">
      <path d="M 63.57125 221.188755 
L 450 221.188755 
" clip-path="url(#p9a76195c94)" style="fill: none; stroke: #cccccc; stroke-width: 0.8; stroke-linecap: round"/>
     </g>
     <g id="text_7">
      <!-- 10000 -->
      <g style="fill: #262626" transform="translate(24.75875 224.987974)scale(0.1 -0.1)">
       <use xlink:href="#DejaVuSans-31"/>
       <use xlink:href="#DejaVuSans-30" x="63.623047"/>
       <use xlink:href="#DejaVuSans-30" x="127.246094"/>
       <use xlink:href="#DejaVuSans-30" x="190.869141"/>
       <use xlink:href="#DejaVuSans-30" x="254.492188"/>
      </g>
     </g>
    </g>
    <g id="ytick_4">
     <g id="line2d_4">
      <path d="M 63.57125 179.963133 
L 450 179.963133 
" clip-path="url(#p9a76195c94)" style="fill: none; stroke: #cccccc; stroke-width: 0.8; stroke-linecap: round"/>
     </g>
     <g id="text_8">
      <!-- 15000 -->
      <g style="fill: #262626" transform="translate(24.75875 183.762352)scale(0.1 -0.1)">
       <use xlink:href="#DejaVuSans-31"/>
       <use xlink:href="#DejaVuSans-35" x="63.623047"/>
       <use xlink:href="#DejaVuSans-30" x="127.246094"/>
       <use xlink:href="#DejaVuSans-30" x="190.869141"/>
       <use xlink:href="#DejaVuSans-30" x="254.492188"/>
      </g>
     </g>
    </g>
    <g id="ytick_5">
     <g id="line2d_5">
      <path d="M 63.57125 138.737511 
L 450 138.737511 
" clip-path="url(#p9a76195c94)" style="fill: none; stroke: #cccccc; stroke-width: 0.8; stroke-linecap: round"/>
     </g>
     <g id="text_9">
      <!-- 20000 -->
      <g style="fill: #262626" transform="translate(24.75875 142.536729)scale(0.1 -0.1)">
       <defs>
        <path id="DejaVuSans-32" d="M 1228 531 
L 3431 531 
L 3431 0 
L 469 0 
L 469 531 
Q 828 903 1448 1529 
Q 2069 2156 2228 2338 
Q 2531 2678 2651 2914 
Q 2772 3150 2772 3378 
Q 2772 3750 2511 3984 
Q 2250 4219 1831 4219 
Q 1534 4219 1204 4116 
Q 875 4013 500 3803 
L 500 4441 
Q 881 4594 1212 4672 
Q 1544 4750 1819 4750 
Q 2544 4750 2975 4387 
Q 3406 4025 3406 3419 
Q 3406 3131 3298 2873 
Q 3191 2616 2906 2266 
Q 2828 2175 2409 1742 
Q 1991 1309 1228 531 
z
" transform="scale(0.015625)"/>
       </defs>
       <use xlink:href="#DejaVuSans-32"/>
       <use xlink:href="#DejaVuSans-30" x="63.623047"/>
       <use xlink:href="#DejaVuSans-30" x="127.246094"/>
       <use xlink:href="#DejaVuSans-30" x="190.869141"/>
       <use xlink:href="#DejaVuSans-30" x="254.492188"/>
      </g>
     </g>
    </g>
    <g id="ytick_6">
     <g id="line2d_6">
      <path d="M 63.57125 97.511888 
L 450 97.511888 
" clip-path="url(#p9a76195c94)" style="fill: none; stroke: #cccccc; stroke-width: 0.8; stroke-linecap: round"/>
     </g>
     <g id="text_10">
      <!-- 25000 -->
      <g style="fill: #262626" transform="translate(24.75875 101.311107)scale(0.1 -0.1)">
       <use xlink:href="#DejaVuSans-32"/>
       <use xlink:href="#DejaVuSans-35" x="63.623047"/>
       <use xlink:href="#DejaVuSans-30" x="127.246094"/>
       <use xlink:href="#DejaVuSans-30" x="190.869141"/>
       <use xlink:href="#DejaVuSans-30" x="254.492188"/>
      </g>
     </g>
    </g>
    <g id="ytick_7">
     <g id="line2d_7">
      <path d="M 63.57125 56.286266 
L 450 56.286266 
" clip-path="url(#p9a76195c94)" style="fill: none; stroke: #cccccc; stroke-width: 0.8; stroke-linecap: round"/>
     </g>
     <g id="text_11">
      <!-- 30000 -->
      <g style="fill: #262626" transform="translate(24.75875 60.085485)scale(0.1 -0.1)">
       <defs>
        <path id="DejaVuSans-33" d="M 2597 2516 
Q 3050 2419 3304 2112 
Q 3559 1806 3559 1356 
Q 3559 666 3084 287 
Q 2609 -91 1734 -91 
Q 1441 -91 1130 -33 
Q 819 25 488 141 
L 488 750 
Q 750 597 1062 519 
Q 1375 441 1716 441 
Q 2309 441 2620 675 
Q 2931 909 2931 1356 
Q 2931 1769 2642 2001 
Q 2353 2234 1838 2234 
L 1294 2234 
L 1294 2753 
L 1863 2753 
Q 2328 2753 2575 2939 
Q 2822 3125 2822 3475 
Q 2822 3834 2567 4026 
Q 2313 4219 1838 4219 
Q 1578 4219 1281 4162 
Q 984 4106 628 3988 
L 628 4550 
Q 988 4650 1302 4700 
Q 1616 4750 1894 4750 
Q 2613 4750 3031 4423 
Q 3450 4097 3450 3541 
Q 3450 3153 3228 2886 
Q 3006 2619 2597 2516 
z
" transform="scale(0.015625)"/>
       </defs>
       <use xlink:href="#DejaVuSans-33"/>
       <use xlink:href="#DejaVuSans-30" x="63.623047"/>
       <use xlink:href="#DejaVuSans-30" x="127.246094"/>
       <use xlink:href="#DejaVuSans-30" x="190.869141"/>
       <use xlink:href="#DejaVuSans-30" x="254.492188"/>
      </g>
     </g>
    </g>
    <g id="ytick_8">
     <g id="line2d_8">
      <path d="M 63.57125 15.060643 
L 450 15.060643 
" clip-path="url(#p9a76195c94)" style="fill: none; stroke: #cccccc; stroke-width: 0.8; stroke-linecap: round"/>
     </g>
     <g id="text_12">
      <!-- 35000 -->
      <g style="fill: #262626" transform="translate(24.75875 18.859862)scale(0.1 -0.1)">
       <use xlink:href="#DejaVuSans-33"/>
       <use xlink:href="#DejaVuSans-35" x="63.623047"/>
       <use xlink:href="#DejaVuSans-30" x="127.246094"/>
       <use xlink:href="#DejaVuSans-30" x="190.869141"/>
       <use xlink:href="#DejaVuSans-30" x="254.492188"/>
      </g>
     </g>
    </g>
    <g id="text_13">
     <!-- toxgreen_fluor -->
     <g style="fill: #262626" transform="translate(18.400937 194.52575)rotate(-90)scale(0.1 -0.1)">
      <defs>
       <path id="DejaVuSans-78" d="M 3513 3500 
L 2247 1797 
L 3578 0 
L 2900 0 
L 1881 1375 
L 863 0 
L 184 0 
L 1544 1831 
L 300 3500 
L 978 3500 
L 1906 2253 
L 2834 3500 
L 3513 3500 
z
" transform="scale(0.015625)"/>
       <path id="DejaVuSans-67" d="M 2906 1791 
Q 2906 2416 2648 2759 
Q 2391 3103 1925 3103 
Q 1463 3103 1205 2759 
Q 947 2416 947 1791 
Q 947 1169 1205 825 
Q 1463 481 1925 481 
Q 2391 481 2648 825 
Q 2906 1169 2906 1791 
z
M 3481 434 
Q 3481 -459 3084 -895 
Q 2688 -1331 1869 -1331 
Q 1566 -1331 1297 -1286 
Q 1028 -1241 775 -1147 
L 775 -588 
Q 1028 -725 1275 -790 
Q 1522 -856 1778 -856 
Q 2344 -856 2625 -561 
Q 2906 -266 2906 331 
L 2906 616 
Q 2728 306 2450 153 
Q 2172 0 1784 0 
Q 1141 0 747 490 
Q 353 981 353 1791 
Q 353 2603 747 3093 
Q 1141 3584 1784 3584 
Q 2172 3584 2450 3431 
Q 2728 3278 2906 2969 
L 2906 3500 
L 3481 3500 
L 3481 434 
z
" transform="scale(0.015625)"/>
       <path id="DejaVuSans-72" d="M 2631 2963 
Q 2534 3019 2420 3045 
Q 2306 3072 2169 3072 
Q 1681 3072 1420 2755 
Q 1159 2438 1159 1844 
L 1159 0 
L 581 0 
L 581 3500 
L 1159 3500 
L 1159 2956 
Q 1341 3275 1631 3429 
Q 1922 3584 2338 3584 
Q 2397 3584 2469 3576 
Q 2541 3569 2628 3553 
L 2631 2963 
z
" transform="scale(0.015625)"/>
       <path id="DejaVuSans-65" d="M 3597 1894 
L 3597 1613 
L 953 1613 
Q 991 1019 1311 708 
Q 1631 397 2203 397 
Q 2534 397 2845 478 
Q 3156 559 3463 722 
L 3463 178 
Q 3153 47 2828 -22 
Q 2503 -91 2169 -91 
Q 1331 -91 842 396 
Q 353 884 353 1716 
Q 353 2575 817 3079 
Q 1281 3584 2069 3584 
Q 2775 3584 3186 3129 
Q 3597 2675 3597 1894 
z
M 3022 2063 
Q 3016 2534 2758 2815 
Q 2500 3097 2075 3097 
Q 1594 3097 1305 2825 
Q 1016 2553 972 2059 
L 3022 2063 
z
" transform="scale(0.015625)"/>
       <path id="DejaVuSans-6e" d="M 3513 2113 
L 3513 0 
L 2938 0 
L 2938 2094 
Q 2938 2591 2744 2837 
Q 2550 3084 2163 3084 
Q 1697 3084 1428 2787 
Q 1159 2491 1159 1978 
L 1159 0 
L 581 0 
L 581 3500 
L 1159 3500 
L 1159 2956 
Q 1366 3272 1645 3428 
Q 1925 3584 2291 3584 
Q 2894 3584 3203 3211 
Q 3513 2838 3513 2113 
z
" transform="scale(0.015625)"/>
       <path id="DejaVuSans-66" d="M 2375 4863 
L 2375 4384 
L 1825 4384 
Q 1516 4384 1395 4259 
Q 1275 4134 1275 3809 
L 1275 3500 
L 2222 3500 
L 2222 3053 
L 1275 3053 
L 1275 0 
L 697 0 
L 697 3053 
L 147 3053 
L 147 3500 
L 697 3500 
L 697 3744 
Q 697 4328 969 4595 
Q 1241 4863 1831 4863 
L 2375 4863 
z
" transform="scale(0.015625)"/>
       <path id="DejaVuSans-6c" d="M 603 4863 
L 1178 4863 
L 1178 0 
L 603 0 
L 603 4863 
z
" transform="scale(0.015625)"/>
       <path id="DejaVuSans-75" d="M 544 1381 
L 544 3500 
L 1119 3500 
L 1119 1403 
Q 1119 906 1312 657 
Q 1506 409 1894 409 
Q 2359 409 2629 706 
Q 2900 1003 2900 1516 
L 2900 3500 
L 3475 3500 
L 3475 0 
L 2900 0 
L 2900 538 
Q 2691 219 2414 64 
Q 2138 -91 1772 -91 
Q 1169 -91 856 284 
Q 544 659 544 1381 
z
M 1991 3584 
L 1991 3584 
z
" transform="scale(0.015625)"/>
      </defs>
      <use xlink:href="#DejaVuSans-74"/>
      <use xlink:href="#DejaVuSans-6f" x="39.208984"/>
      <use xlink:href="#DejaVuSans-78" x="97.265625"/>
      <use xlink:href="#DejaVuSans-67" x="156.445312"/>
      <use xlink:href="#DejaVuSans-72" x="219.921875"/>
      <use xlink:href="#DejaVuSans-65" x="258.785156"/>
      <use xlink:href="#DejaVuSans-65" x="320.308594"/>
      <use xlink:href="#DejaVuSans-6e" x="381.832031"/>
      <use xlink:href="#DejaVuSans-5f" x="445.210938"/>
      <use xlink:href="#DejaVuSans-66" x="495.210938"/>
      <use xlink:href="#DejaVuSans-6c" x="530.416016"/>
      <use xlink:href="#DejaVuSans-75" x="558.199219"/>
      <use xlink:href="#DejaVuSans-6f" x="621.578125"/>
      <use xlink:href="#DejaVuSans-72" x="682.759766"/>
     </g>
    </g>
   </g>
   <g id="patch_3">
    <path d="M 76.967447 268.032508 
L 127.460803 268.032508 
L 127.460803 251.394045 
L 76.967447 251.394045 
L 76.967447 268.032508 
z
" clip-path="url(#p9a76195c94)" style="fill: #ecf2ec; stroke: #262626; stroke-width: 1.5; stroke-linejoin: miter"/>
   </g>
   <g id="patch_4">
    <path d="M 128.49128 259.598476 
L 178.984637 259.598476 
L 178.984637 152.778979 
L 128.49128 152.778979 
L 128.49128 259.598476 
z
" clip-path="url(#p9a76195c94)" style="fill: #107010; stroke: #262626; stroke-width: 1.5; stroke-linejoin: miter"/>
   </g>
   <g id="patch_5">
    <path d="M 205.77703 259.982322 
L 256.270387 259.982322 
L 256.270387 247.947121 
L 205.77703 247.947121 
L 205.77703 259.982322 
z
" clip-path="url(#p9a76195c94)" style="fill: #ecf2ec; stroke: #262626; stroke-width: 1.5; stroke-linejoin: miter"/>
   </g>
   <g id="patch_6">
    <path d="M 257.300863 248.04456 
L 307.79422 248.04456 
L 307.79422 229.646285 
L 257.300863 229.646285 
L 257.300863 248.04456 
z
" clip-path="url(#p9a76195c94)" style="fill: #107010; stroke: #262626; stroke-width: 1.5; stroke-linejoin: miter"/>
   </g>
   <g id="patch_7">
    <path d="M 334.586613 260.14865 
L 385.07997 260.14865 
L 385.07997 245.490672 
L 334.586613 245.490672 
L 334.586613 260.14865 
z
" clip-path="url(#p9a76195c94)" style="fill: #ecf2ec; stroke: #262626; stroke-width: 1.5; stroke-linejoin: miter"/>
   </g>
   <g id="patch_8">
    <path d="M 386.110447 116.42523 
L 436.603803 116.42523 
L 436.603803 95.478615 
L 386.110447 95.478615 
L 386.110447 116.42523 
z
" clip-path="url(#p9a76195c94)" style="fill: #107010; stroke: #262626; stroke-width: 1.5; stroke-linejoin: miter"/>
   </g>
   <g id="patch_9">
    <path d="M 127.976042 303.64 
L 127.976042 303.64 
L 127.976042 303.64 
L 127.976042 303.64 
z
" clip-path="url(#p9a76195c94)" style="fill: #ecf2ec; stroke: #262626; stroke-width: 0.75; stroke-linejoin: miter"/>
   </g>
   <g id="patch_10">
    <path d="M 127.976042 303.64 
L 127.976042 303.64 
L 127.976042 303.64 
L 127.976042 303.64 
z
" clip-path="url(#p9a76195c94)" style="fill: #107010; stroke: #262626; stroke-width: 0.75; stroke-linejoin: miter"/>
   </g>
   <g id="PathCollection_1"/>
   <g id="PathCollection_2"/>
   <g id="line2d_9">
    <path d="M 102.214125 268.032508 
L 102.214125 278.404765 
" clip-path="url(#p9a76195c94)" style="fill: none; stroke: #262626; stroke-width: 1.5; stroke-linecap: round"/>
   </g>
   <g id="line2d_10">
    <path d="M 102.214125 251.394045 
L 102.214125 238.994523 
" clip-path="url(#p9a76195c94)" style="fill: none; stroke: #262626; stroke-width: 1.5; stroke-linecap: round"/>
   </g>
   <g id="line2d_11">
    <path d="M 89.590786 278.404765 
L 114.837464 278.404765 
" clip-path="url(#p9a76195c94)" style="fill: none; stroke: #262626; stroke-width: 1.5; stroke-linecap: round"/>
   </g>
   <g id="line2d_12">
    <path d="M 89.590786 238.994523 
L 114.837464 238.994523 
" clip-path="url(#p9a76195c94)" style="fill: none; stroke: #262626; stroke-width: 1.5; stroke-linecap: round"/>
   </g>
   <g id="line2d_13"/>
   <g id="line2d_14">
    <path d="M 153.737958 259.598476 
L 153.737958 274.968408 
" clip-path="url(#p9a76195c94)" style="fill: none; stroke: #262626; stroke-width: 1.5; stroke-linecap: round"/>
   </g>
   <g id="line2d_15">
    <path d="M 153.737958 152.778979 
L 153.737958 80.9673 
" clip-path="url(#p9a76195c94)" style="fill: none; stroke: #262626; stroke-width: 1.5; stroke-linecap: round"/>
   </g>
   <g id="line2d_16">
    <path d="M 141.114619 274.968408 
L 166.361297 274.968408 
" clip-path="url(#p9a76195c94)" style="fill: none; stroke: #262626; stroke-width: 1.5; stroke-linecap: round"/>
   </g>
   <g id="line2d_17">
    <path d="M 141.114619 80.9673 
L 166.361297 80.9673 
" clip-path="url(#p9a76195c94)" style="fill: none; stroke: #262626; stroke-width: 1.5; stroke-linecap: round"/>
   </g>
   <g id="line2d_18"/>
   <g id="line2d_19">
    <path d="M 231.023708 259.982322 
L 231.023708 269.560435 
" clip-path="url(#p9a76195c94)" style="fill: none; stroke: #262626; stroke-width: 1.5; stroke-linecap: round"/>
   </g>
   <g id="line2d_20">
    <path d="M 231.023708 247.947121 
L 231.023708 243.95343 
" clip-path="url(#p9a76195c94)" style="fill: none; stroke: #262626; stroke-width: 1.5; stroke-linecap: round"/>
   </g>
   <g id="line2d_21">
    <path d="M 218.400369 269.560435 
L 243.647047 269.560435 
" clip-path="url(#p9a76195c94)" style="fill: none; stroke: #262626; stroke-width: 1.5; stroke-linecap: round"/>
   </g>
   <g id="line2d_22">
    <path d="M 218.400369 243.95343 
L 243.647047 243.95343 
" clip-path="url(#p9a76195c94)" style="fill: none; stroke: #262626; stroke-width: 1.5; stroke-linecap: round"/>
   </g>
   <g id="line2d_23"/>
   <g id="line2d_24">
    <path d="M 282.547542 248.04456 
L 282.547542 256.845888 
" clip-path="url(#p9a76195c94)" style="fill: none; stroke: #262626; stroke-width: 1.5; stroke-linecap: round"/>
   </g>
   <g id="line2d_25">
    <path d="M 282.547542 229.646285 
L 282.547542 221.326563 
" clip-path="url(#p9a76195c94)" style="fill: none; stroke: #262626; stroke-width: 1.5; stroke-linecap: round"/>
   </g>
   <g id="line2d_26">
    <path d="M 269.924202 256.845888 
L 295.170881 256.845888 
" clip-path="url(#p9a76195c94)" style="fill: none; stroke: #262626; stroke-width: 1.5; stroke-linecap: round"/>
   </g>
   <g id="line2d_27">
    <path d="M 269.924202 221.326563 
L 295.170881 221.326563 
" clip-path="url(#p9a76195c94)" style="fill: none; stroke: #262626; stroke-width: 1.5; stroke-linecap: round"/>
   </g>
   <g id="line2d_28"/>
   <g id="line2d_29">
    <path d="M 359.833292 260.14865 
L 359.833292 271.72205 
" clip-path="url(#p9a76195c94)" style="fill: none; stroke: #262626; stroke-width: 1.5; stroke-linecap: round"/>
   </g>
   <g id="line2d_30">
    <path d="M 359.833292 245.490672 
L 359.833292 241.673067 
" clip-path="url(#p9a76195c94)" style="fill: none; stroke: #262626; stroke-width: 1.5; stroke-linecap: round"/>
   </g>
   <g id="line2d_31">
    <path d="M 347.209952 271.72205 
L 372.456631 271.72205 
" clip-path="url(#p9a76195c94)" style="fill: none; stroke: #262626; stroke-width: 1.5; stroke-linecap: round"/>
   </g>
   <g id="line2d_32">
    <path d="M 347.209952 241.673067 
L 372.456631 241.673067 
" clip-path="url(#p9a76195c94)" style="fill: none; stroke: #262626; stroke-width: 1.5; stroke-linecap: round"/>
   </g>
   <g id="line2d_33"/>
   <g id="line2d_34">
    <path d="M 411.357125 116.42523 
L 411.357125 123.04716 
" clip-path="url(#p9a76195c94)" style="fill: none; stroke: #262626; stroke-width: 1.5; stroke-linecap: round"/>
   </g>
   <g id="line2d_35">
    <path d="M 411.357125 95.478615 
L 411.357125 95.478615 
" clip-path="url(#p9a76195c94)" style="fill: none; stroke: #262626; stroke-width: 1.5; stroke-linecap: round"/>
   </g>
   <g id="line2d_36">
    <path d="M 398.733786 123.04716 
L 423.980464 123.04716 
" clip-path="url(#p9a76195c94)" style="fill: none; stroke: #262626; stroke-width: 1.5; stroke-linecap: round"/>
   </g>
   <g id="line2d_37">
    <path d="M 398.733786 95.478615 
L 423.980464 95.478615 
" clip-path="url(#p9a76195c94)" style="fill: none; stroke: #262626; stroke-width: 1.5; stroke-linecap: round"/>
   </g>
   <g id="line2d_38">
    <defs>
     <path id="m4a9934ff01" d="M -0 1.414214 
L 0.848528 0 
L 0 -1.414214 
L -0.848528 -0 
z
" style="stroke: #262626; stroke-linejoin: miter"/>
    </defs>
    <g clip-path="url(#p9a76195c94)">
     <use xlink:href="#m4a9934ff01" x="411.357125" y="39.442216" style="fill: #262626; stroke: #262626; stroke-linejoin: miter"/>
    </g>
   </g>
   <g id="line2d_39">
    <path d="M 76.967447 260.520187 
L 127.460803 260.520187 
" clip-path="url(#p9a76195c94)" style="fill: none; stroke: #262626; stroke-width: 1.5; stroke-linecap: round"/>
   </g>
   <g id="line2d_40">
    <path d="M 128.49128 245.800546 
L 178.984637 245.800546 
" clip-path="url(#p9a76195c94)" style="fill: none; stroke: #262626; stroke-width: 1.5; stroke-linecap: round"/>
   </g>
   <g id="line2d_41">
    <path d="M 205.77703 254.710382 
L 256.270387 254.710382 
" clip-path="url(#p9a76195c94)" style="fill: none; stroke: #262626; stroke-width: 1.5; stroke-linecap: round"/>
   </g>
   <g id="line2d_42">
    <path d="M 257.300863 243.555668 
L 307.79422 243.555668 
" clip-path="url(#p9a76195c94)" style="fill: none; stroke: #262626; stroke-width: 1.5; stroke-linecap: round"/>
   </g>
   <g id="line2d_43">
    <path d="M 334.586613 249.06791 
L 385.07997 249.06791 
" clip-path="url(#p9a76195c94)" style="fill: none; stroke: #262626; stroke-width: 1.5; stroke-linecap: round"/>
   </g>
   <g id="line2d_44">
    <path d="M 386.110447 114.187667 
L 436.603803 114.187667 
" clip-path="url(#p9a76195c94)" style="fill: none; stroke: #262626; stroke-width: 1.5; stroke-linecap: round"/>
   </g>
   <g id="patch_11">
    <path d="M 63.57125 303.64 
L 63.57125 13.022438 
" style="fill: none; stroke: #cccccc; stroke-width: 0.8; stroke-linejoin: miter; stroke-linecap: square"/>
   </g>
   <g id="patch_12">
    <path d="M 450 303.64 
L 450 13.022438 
" style="fill: none; stroke: #cccccc; stroke-width: 0.8; stroke-linejoin: miter; stroke-linecap: square"/>
   </g>
   <g id="patch_13">
    <path d="M 63.57125 303.64 
L 450 303.64 
" style="fill: none; stroke: #cccccc; stroke-width: 0.8; stroke-linejoin: miter; stroke-linecap: square"/>
   </g>
   <g id="patch_14">
    <path d="M 63.57125 13.022438 
L 450 13.022438 
" style="fill: none; stroke: #cccccc; stroke-width: 0.8; stroke-linejoin: miter; stroke-linecap: square"/>
   </g>
   <g id="PathCollection_3">
    <defs>
     <path id="C0_0_9d9723ff85" d="M 0 1 
C 0.265203 1 0.51958 0.894634 0.707107 0.707107 
C 0.894634 0.51958 1 0.265203 1 -0 
C 1 -0.265203 0.894634 -0.51958 0.707107 -0.707107 
C 0.51958 -0.894634 0.265203 -1 0 -1 
C -0.265203 -1 -0.51958 -0.894634 -0.707107 -0.707107 
C -0.894634 -0.51958 -1 -0.265203 -1 0 
C -1 0.265203 -0.894634 0.51958 -0.707107 0.707107 
C -0.51958 0.894634 -0.265203 1 0 1 
z
"/>
    </defs>
    <g clip-path="url(#p9a76195c94)">
     <use xlink:href="#C0_0_9d9723ff85" x="98.192359" y="241.823413" style="fill: #262626"/>
    </g>
    <g clip-path="url(#p9a76195c94)">
     <use xlink:href="#C0_0_9d9723ff85" x="105.6654" y="240.044392" style="fill: #262626"/>
    </g>
    <g clip-path="url(#p9a76195c94)">
     <use xlink:href="#C0_0_9d9723ff85" x="108.492007" y="238.994523" style="fill: #262626"/>
    </g>
    <g clip-path="url(#p9a76195c94)">
     <use xlink:href="#C0_0_9d9723ff85" x="104.959227" y="258.270863" style="fill: #262626"/>
    </g>
    <g clip-path="url(#p9a76195c94)">
     <use xlink:href="#C0_0_9d9723ff85" x="103.468315" y="267.066963" style="fill: #262626"/>
    </g>
    <g clip-path="url(#p9a76195c94)">
     <use xlink:href="#C0_0_9d9723ff85" x="104.06483" y="252.458888" style="fill: #262626"/>
    </g>
    <g clip-path="url(#p9a76195c94)">
     <use xlink:href="#C0_0_9d9723ff85" x="107.572198" y="251.039097" style="fill: #262626"/>
    </g>
    <g clip-path="url(#p9a76195c94)">
     <use xlink:href="#C0_0_9d9723ff85" x="105.554109" y="250.768076" style="fill: #262626"/>
    </g>
    <g clip-path="url(#p9a76195c94)">
     <use xlink:href="#C0_0_9d9723ff85" x="102.005244" y="246.522775" style="fill: #262626"/>
    </g>
    <g clip-path="url(#p9a76195c94)">
     <use xlink:href="#C0_0_9d9723ff85" x="105.542645" y="243.108044" style="fill: #262626"/>
    </g>
    <g clip-path="url(#p9a76195c94)">
     <use xlink:href="#C0_0_9d9723ff85" x="103.02477" y="274.535302" style="fill: #262626"/>
    </g>
    <g clip-path="url(#p9a76195c94)">
     <use xlink:href="#C0_0_9d9723ff85" x="106.123616" y="256.735603" style="fill: #262626"/>
    </g>
    <g clip-path="url(#p9a76195c94)">
     <use xlink:href="#C0_0_9d9723ff85" x="96.506618" y="262.502325" style="fill: #262626"/>
    </g>
    <g clip-path="url(#p9a76195c94)">
     <use xlink:href="#C0_0_9d9723ff85" x="97.608448" y="268.354356" style="fill: #262626"/>
    </g>
    <g clip-path="url(#p9a76195c94)">
     <use xlink:href="#C0_0_9d9723ff85" x="103.719036" y="275.067824" style="fill: #262626"/>
    </g>
    <g clip-path="url(#p9a76195c94)">
     <use xlink:href="#C0_0_9d9723ff85" x="97.975288" y="273.098413" style="fill: #262626"/>
    </g>
    <g clip-path="url(#p9a76195c94)">
     <use xlink:href="#C0_0_9d9723ff85" x="98.743391" y="255.979389" style="fill: #262626"/>
    </g>
    <g clip-path="url(#p9a76195c94)">
     <use xlink:href="#C0_0_9d9723ff85" x="105.594401" y="277.363352" style="fill: #262626"/>
    </g>
    <g clip-path="url(#p9a76195c94)">
     <use xlink:href="#C0_0_9d9723ff85" x="98.570755" y="272.850842" style="fill: #262626"/>
    </g>
    <g clip-path="url(#p9a76195c94)">
     <use xlink:href="#C0_0_9d9723ff85" x="104.143018" y="264.545946" style="fill: #262626"/>
    </g>
    <g clip-path="url(#p9a76195c94)">
     <use xlink:href="#C0_0_9d9723ff85" x="99.765906" y="266.84349" style="fill: #262626"/>
    </g>
    <g clip-path="url(#p9a76195c94)">
     <use xlink:href="#C0_0_9d9723ff85" x="104.103647" y="264.68231" style="fill: #262626"/>
    </g>
    <g clip-path="url(#p9a76195c94)">
     <use xlink:href="#C0_0_9d9723ff85" x="101.888124" y="258.77081" style="fill: #262626"/>
    </g>
    <g clip-path="url(#p9a76195c94)">
     <use xlink:href="#C0_0_9d9723ff85" x="96.548029" y="259.617078" style="fill: #262626"/>
    </g>
    <g clip-path="url(#p9a76195c94)">
     <use xlink:href="#C0_0_9d9723ff85" x="96.574848" y="246.266075" style="fill: #262626"/>
    </g>
    <g clip-path="url(#p9a76195c94)">
     <use xlink:href="#C0_0_9d9723ff85" x="99.284039" y="263.796036" style="fill: #262626"/>
    </g>
    <g clip-path="url(#p9a76195c94)">
     <use xlink:href="#C0_0_9d9723ff85" x="99.151787" y="278.404765" style="fill: #262626"/>
    </g>
    <g clip-path="url(#p9a76195c94)">
     <use xlink:href="#C0_0_9d9723ff85" x="99.891794" y="261.423296" style="fill: #262626"/>
    </g>
    <g clip-path="url(#p9a76195c94)">
     <use xlink:href="#C0_0_9d9723ff85" x="106.074254" y="256.415095" style="fill: #262626"/>
    </g>
    <g clip-path="url(#p9a76195c94)">
     <use xlink:href="#C0_0_9d9723ff85" x="100.2352" y="270.271662" style="fill: #262626"/>
    </g>
   </g>
   <g id="PathCollection_4">
    <defs>
     <path id="C1_0_f9a4ee4020" d="M 0 1 
C 0.265203 1 0.51958 0.894634 0.707107 0.707107 
C 0.894634 0.51958 1 0.265203 1 -0 
C 1 -0.265203 0.894634 -0.51958 0.707107 -0.707107 
C 0.51958 -0.894634 0.265203 -1 0 -1 
C -0.265203 -1 -0.51958 -0.894634 -0.707107 -0.707107 
C -0.894634 -0.51958 -1 -0.265203 -1 0 
C -1 0.265203 -0.894634 0.51958 -0.707107 0.707107 
C -0.51958 0.894634 -0.265203 1 0 1 
z
"/>
    </defs>
    <g clip-path="url(#p9a76195c94)">
     <use xlink:href="#C1_0_f9a4ee4020" x="148.470014" y="249.763155"/>
    </g>
    <g clip-path="url(#p9a76195c94)">
     <use xlink:href="#C1_0_f9a4ee4020" x="149.993553" y="241.837936"/>
    </g>
    <g clip-path="url(#p9a76195c94)">
     <use xlink:href="#C1_0_f9a4ee4020" x="149.930837" y="217.317142"/>
    </g>
    <g clip-path="url(#p9a76195c94)">
     <use xlink:href="#C1_0_f9a4ee4020" x="148.016397" y="274.968408"/>
    </g>
    <g clip-path="url(#p9a76195c94)">
     <use xlink:href="#C1_0_f9a4ee4020" x="151.349283" y="140.790838"/>
    </g>
    <g clip-path="url(#p9a76195c94)">
     <use xlink:href="#C1_0_f9a4ee4020" x="153.816998" y="149.289368"/>
    </g>
    <g clip-path="url(#p9a76195c94)">
     <use xlink:href="#C1_0_f9a4ee4020" x="155.10316" y="256.952298"/>
    </g>
    <g clip-path="url(#p9a76195c94)">
     <use xlink:href="#C1_0_f9a4ee4020" x="152.923064" y="136.193755"/>
    </g>
    <g clip-path="url(#p9a76195c94)">
     <use xlink:href="#C1_0_f9a4ee4020" x="156.574935" y="273.432406"/>
    </g>
    <g clip-path="url(#p9a76195c94)">
     <use xlink:href="#C1_0_f9a4ee4020" x="150.997343" y="153.942183"/>
    </g>
    <g clip-path="url(#p9a76195c94)">
     <use xlink:href="#C1_0_f9a4ee4020" x="148.480387" y="269.518217"/>
    </g>
    <g clip-path="url(#p9a76195c94)">
     <use xlink:href="#C1_0_f9a4ee4020" x="157.482818" y="252.649877"/>
    </g>
    <g clip-path="url(#p9a76195c94)">
     <use xlink:href="#C1_0_f9a4ee4020" x="158.445889" y="80.9673"/>
    </g>
    <g clip-path="url(#p9a76195c94)">
     <use xlink:href="#C1_0_f9a4ee4020" x="158.15691" y="267.537012"/>
    </g>
    <g clip-path="url(#p9a76195c94)">
     <use xlink:href="#C1_0_f9a4ee4020" x="151.225699" y="253.195938"/>
    </g>
    <g clip-path="url(#p9a76195c94)">
     <use xlink:href="#C1_0_f9a4ee4020" x="159.905403" y="215.426874"/>
    </g>
   </g>
   <g id="PathCollection_5">
    <defs>
     <path id="C2_0_a7eb2ebd6c" d="M 0 1 
C 0.265203 1 0.51958 0.894634 0.707107 0.707107 
C 0.894634 0.51958 1 0.265203 1 -0 
C 1 -0.265203 0.894634 -0.51958 0.707107 -0.707107 
C 0.51958 -0.894634 0.265203 -1 0 -1 
C -0.265203 -1 -0.51958 -0.894634 -0.707107 -0.707107 
C -0.894634 -0.51958 -1 -0.265203 -1 0 
C -1 0.265203 -0.894634 0.51958 -0.707107 0.707107 
C -0.51958 0.894634 -0.265203 1 0 1 
z
"/>
    </defs>
    <g clip-path="url(#p9a76195c94)">
     <use xlink:href="#C2_0_a7eb2ebd6c" x="228.966221" y="256.924858" style="fill: #262626"/>
    </g>
    <g clip-path="url(#p9a76195c94)">
     <use xlink:href="#C2_0_a7eb2ebd6c" x="231.200587" y="247.993273" style="fill: #262626"/>
    </g>
    <g clip-path="url(#p9a76195c94)">
     <use xlink:href="#C2_0_a7eb2ebd6c" x="232.333405" y="251.396595" style="fill: #262626"/>
    </g>
    <g clip-path="url(#p9a76195c94)">
     <use xlink:href="#C2_0_a7eb2ebd6c" x="235.958026" y="256.792954" style="fill: #262626"/>
    </g>
    <g clip-path="url(#p9a76195c94)">
     <use xlink:href="#C2_0_a7eb2ebd6c" x="228.752613" y="263.303943" style="fill: #262626"/>
    </g>
    <g clip-path="url(#p9a76195c94)">
     <use xlink:href="#C2_0_a7eb2ebd6c" x="231.757312" y="244.132342" style="fill: #262626"/>
    </g>
    <g clip-path="url(#p9a76195c94)">
     <use xlink:href="#C2_0_a7eb2ebd6c" x="226.696532" y="247.808666" style="fill: #262626"/>
    </g>
    <g clip-path="url(#p9a76195c94)">
     <use xlink:href="#C2_0_a7eb2ebd6c" x="227.157649" y="269.560435" style="fill: #262626"/>
    </g>
    <g clip-path="url(#p9a76195c94)">
     <use xlink:href="#C2_0_a7eb2ebd6c" x="227.060453" y="243.95343" style="fill: #262626"/>
    </g>
    <g clip-path="url(#p9a76195c94)">
     <use xlink:href="#C2_0_a7eb2ebd6c" x="235.480321" y="258.875115" style="fill: #262626"/>
    </g>
    <g clip-path="url(#p9a76195c94)">
     <use xlink:href="#C2_0_a7eb2ebd6c" x="228.823941" y="267.18827" style="fill: #262626"/>
    </g>
    <g clip-path="url(#p9a76195c94)">
     <use xlink:href="#C2_0_a7eb2ebd6c" x="227.423838" y="252.627809" style="fill: #262626"/>
    </g>
   </g>
   <g id="PathCollection_6">
    <defs>
     <path id="C3_0_7f191829e7" d="M 0 1 
C 0.265203 1 0.51958 0.894634 0.707107 0.707107 
C 0.894634 0.51958 1 0.265203 1 -0 
C 1 -0.265203 0.894634 -0.51958 0.707107 -0.707107 
C 0.51958 -0.894634 0.265203 -1 0 -1 
C -0.265203 -1 -0.51958 -0.894634 -0.707107 -0.707107 
C -0.894634 -0.51958 -1 -0.265203 -1 0 
C -1 0.265203 -0.894634 0.51958 -0.707107 0.707107 
C -0.51958 0.894634 -0.265203 1 0 1 
z
"/>
    </defs>
    <g clip-path="url(#p9a76195c94)">
     <use xlink:href="#C3_0_7f191829e7" x="283.222389" y="249.075497"/>
    </g>
    <g clip-path="url(#p9a76195c94)">
     <use xlink:href="#C3_0_7f191829e7" x="284.543777" y="242.159587"/>
    </g>
    <g clip-path="url(#p9a76195c94)">
     <use xlink:href="#C3_0_7f191829e7" x="283.077272" y="244.951749"/>
    </g>
    <g clip-path="url(#p9a76195c94)">
     <use xlink:href="#C3_0_7f191829e7" x="283.363427" y="225.475185"/>
    </g>
    <g clip-path="url(#p9a76195c94)">
     <use xlink:href="#C3_0_7f191829e7" x="277.194416" y="256.845888"/>
    </g>
    <g clip-path="url(#p9a76195c94)">
     <use xlink:href="#C3_0_7f191829e7" x="287.33532" y="221.326563"/>
    </g>
   </g>
   <g id="PathCollection_7">
    <defs>
     <path id="C4_0_4b5bb985a9" d="M 0 1 
C 0.265203 1 0.51958 0.894634 0.707107 0.707107 
C 0.894634 0.51958 1 0.265203 1 -0 
C 1 -0.265203 0.894634 -0.51958 0.707107 -0.707107 
C 0.51958 -0.894634 0.265203 -1 0 -1 
C -0.265203 -1 -0.51958 -0.894634 -0.707107 -0.707107 
C -0.894634 -0.51958 -1 -0.265203 -1 0 
C -1 0.265203 -0.894634 0.51958 -0.707107 0.707107 
C -0.51958 0.894634 -0.265203 1 0 1 
z
"/>
    </defs>
    <g clip-path="url(#p9a76195c94)">
     <use xlink:href="#C4_0_4b5bb985a9" x="357.26768" y="263.678603" style="fill: #262626"/>
    </g>
    <g clip-path="url(#p9a76195c94)">
     <use xlink:href="#C4_0_4b5bb985a9" x="356.118243" y="244.461888" style="fill: #262626"/>
    </g>
    <g clip-path="url(#p9a76195c94)">
     <use xlink:href="#C4_0_4b5bb985a9" x="361.850754" y="241.673067" style="fill: #262626"/>
    </g>
    <g clip-path="url(#p9a76195c94)">
     <use xlink:href="#C4_0_4b5bb985a9" x="362.799457" y="248.577027" style="fill: #262626"/>
    </g>
    <g clip-path="url(#p9a76195c94)">
     <use xlink:href="#C4_0_4b5bb985a9" x="362.440833" y="249.558793" style="fill: #262626"/>
    </g>
    <g clip-path="url(#p9a76195c94)">
     <use xlink:href="#C4_0_4b5bb985a9" x="363.588004" y="271.72205" style="fill: #262626"/>
    </g>
   </g>
   <g id="PathCollection_8">
    <defs>
     <path id="C5_0_99fc6c5b56" d="M 0 1 
C 0.265203 1 0.51958 0.894634 0.707107 0.707107 
C 0.894634 0.51958 1 0.265203 1 -0 
C 1 -0.265203 0.894634 -0.51958 0.707107 -0.707107 
C 0.51958 -0.894634 0.265203 -1 0 -1 
C -0.265203 -1 -0.51958 -0.894634 -0.707107 -0.707107 
C -0.894634 -0.51958 -1 -0.265203 -1 0 
C -1 0.265203 -0.894634 0.51958 -0.707107 0.707107 
C -0.51958 0.894634 -0.265203 1 0 1 
z
"/>
    </defs>
    <g clip-path="url(#p9a76195c94)">
     <use xlink:href="#C5_0_99fc6c5b56" x="405.673081" y="114.21792"/>
    </g>
    <g clip-path="url(#p9a76195c94)">
     <use xlink:href="#C5_0_99fc6c5b56" x="410.617595" y="123.04716"/>
    </g>
    <g clip-path="url(#p9a76195c94)">
     <use xlink:href="#C5_0_99fc6c5b56" x="406.152702" y="114.157414"/>
    </g>
    <g clip-path="url(#p9a76195c94)">
     <use xlink:href="#C5_0_99fc6c5b56" x="408.944555" y="39.442216"/>
    </g>
   </g>
   <g id="text_14">
    <!-- 30 -->
    <g style="fill: #262626" transform="translate(108.654604 303.626396)scale(0.1 -0.1)">
     <use xlink:href="#DejaVuSans-33"/>
     <use xlink:href="#DejaVuSans-30" x="63.623047"/>
    </g>
   </g>
   <g id="text_15">
    <!-- p=0.00029236343469684305 -->
    <g style="fill: #262626" transform="translate(48.047104 238.994111)scale(0.08 -0.08)">
     <defs>
      <path id="DejaVuSans-3d" d="M 678 2906 
L 4684 2906 
L 4684 2381 
L 678 2381 
L 678 2906 
z
M 678 1631 
L 4684 1631 
L 4684 1100 
L 678 1100 
L 678 1631 
z
" transform="scale(0.015625)"/>
      <path id="DejaVuSans-2e" d="M 684 794 
L 1344 794 
L 1344 0 
L 684 0 
L 684 794 
z
" transform="scale(0.015625)"/>
      <path id="DejaVuSans-39" d="M 703 97 
L 703 672 
Q 941 559 1184 500 
Q 1428 441 1663 441 
Q 2288 441 2617 861 
Q 2947 1281 2994 2138 
Q 2813 1869 2534 1725 
Q 2256 1581 1919 1581 
Q 1219 1581 811 2004 
Q 403 2428 403 3163 
Q 403 3881 828 4315 
Q 1253 4750 1959 4750 
Q 2769 4750 3195 4129 
Q 3622 3509 3622 2328 
Q 3622 1225 3098 567 
Q 2575 -91 1691 -91 
Q 1453 -91 1209 -44 
Q 966 3 703 97 
z
M 1959 2075 
Q 2384 2075 2632 2365 
Q 2881 2656 2881 3163 
Q 2881 3666 2632 3958 
Q 2384 4250 1959 4250 
Q 1534 4250 1286 3958 
Q 1038 3666 1038 3163 
Q 1038 2656 1286 2365 
Q 1534 2075 1959 2075 
z
" transform="scale(0.015625)"/>
      <path id="DejaVuSans-36" d="M 2113 2584 
Q 1688 2584 1439 2293 
Q 1191 2003 1191 1497 
Q 1191 994 1439 701 
Q 1688 409 2113 409 
Q 2538 409 2786 701 
Q 3034 994 3034 1497 
Q 3034 2003 2786 2293 
Q 2538 2584 2113 2584 
z
M 3366 4563 
L 3366 3988 
Q 3128 4100 2886 4159 
Q 2644 4219 2406 4219 
Q 1781 4219 1451 3797 
Q 1122 3375 1075 2522 
Q 1259 2794 1537 2939 
Q 1816 3084 2150 3084 
Q 2853 3084 3261 2657 
Q 3669 2231 3669 1497 
Q 3669 778 3244 343 
Q 2819 -91 2113 -91 
Q 1303 -91 875 529 
Q 447 1150 447 2328 
Q 447 3434 972 4092 
Q 1497 4750 2381 4750 
Q 2619 4750 2861 4703 
Q 3103 4656 3366 4563 
z
" transform="scale(0.015625)"/>
      <path id="DejaVuSans-34" d="M 2419 4116 
L 825 1625 
L 2419 1625 
L 2419 4116 
z
M 2253 4666 
L 3047 4666 
L 3047 1625 
L 3713 1625 
L 3713 1100 
L 3047 1100 
L 3047 0 
L 2419 0 
L 2419 1100 
L 313 1100 
L 313 1709 
L 2253 4666 
z
" transform="scale(0.015625)"/>
      <path id="DejaVuSans-38" d="M 2034 2216 
Q 1584 2216 1326 1975 
Q 1069 1734 1069 1313 
Q 1069 891 1326 650 
Q 1584 409 2034 409 
Q 2484 409 2743 651 
Q 3003 894 3003 1313 
Q 3003 1734 2745 1975 
Q 2488 2216 2034 2216 
z
M 1403 2484 
Q 997 2584 770 2862 
Q 544 3141 544 3541 
Q 544 4100 942 4425 
Q 1341 4750 2034 4750 
Q 2731 4750 3128 4425 
Q 3525 4100 3525 3541 
Q 3525 3141 3298 2862 
Q 3072 2584 2669 2484 
Q 3125 2378 3379 2068 
Q 3634 1759 3634 1313 
Q 3634 634 3220 271 
Q 2806 -91 2034 -91 
Q 1263 -91 848 271 
Q 434 634 434 1313 
Q 434 1759 690 2068 
Q 947 2378 1403 2484 
z
M 1172 3481 
Q 1172 3119 1398 2916 
Q 1625 2713 2034 2713 
Q 2441 2713 2670 2916 
Q 2900 3119 2900 3481 
Q 2900 3844 2670 4047 
Q 2441 4250 2034 4250 
Q 1625 4250 1398 4047 
Q 1172 3844 1172 3481 
z
" transform="scale(0.015625)"/>
     </defs>
     <use xlink:href="#DejaVuSans-70"/>
     <use xlink:href="#DejaVuSans-3d" x="63.476562"/>
     <use xlink:href="#DejaVuSans-30" x="147.265625"/>
     <use xlink:href="#DejaVuSans-2e" x="210.888672"/>
     <use xlink:href="#DejaVuSans-30" x="242.675781"/>
     <use xlink:href="#DejaVuSans-30" x="306.298828"/>
     <use xlink:href="#DejaVuSans-30" x="369.921875"/>
     <use xlink:href="#DejaVuSans-32" x="433.544922"/>
     <use xlink:href="#DejaVuSans-39" x="497.167969"/>
     <use xlink:href="#DejaVuSans-32" x="560.791016"/>
     <use xlink:href="#DejaVuSans-33" x="624.414062"/>
     <use xlink:href="#DejaVuSans-36" x="688.037109"/>
     <use xlink:href="#DejaVuSans-33" x="751.660156"/>
     <use xlink:href="#DejaVuSans-34" x="815.283203"/>
     <use xlink:href="#DejaVuSans-33" x="878.90625"/>
     <use xlink:href="#DejaVuSans-34" x="942.529297"/>
     <use xlink:href="#DejaVuSans-36" x="1006.152344"/>
     <use xlink:href="#DejaVuSans-39" x="1069.775391"/>
     <use xlink:href="#DejaVuSans-36" x="1133.398438"/>
     <use xlink:href="#DejaVuSans-38" x="1197.021484"/>
     <use xlink:href="#DejaVuSans-34" x="1260.644531"/>
     <use xlink:href="#DejaVuSans-33" x="1324.267578"/>
     <use xlink:href="#DejaVuSans-30" x="1387.890625"/>
     <use xlink:href="#DejaVuSans-35" x="1451.513672"/>
    </g>
   </g>
   <g id="text_16">
    <!-- 16 -->
    <g style="fill: #262626" transform="translate(147.297479 303.626396)scale(0.1 -0.1)">
     <use xlink:href="#DejaVuSans-31"/>
     <use xlink:href="#DejaVuSans-36" x="63.623047"/>
    </g>
   </g>
   <g id="text_17">
    <!-- 12 -->
    <g style="fill: #262626" transform="translate(237.464187 303.626396)scale(0.1 -0.1)">
     <use xlink:href="#DejaVuSans-31"/>
     <use xlink:href="#DejaVuSans-32" x="63.623047"/>
    </g>
   </g>
   <g id="text_18">
    <!-- p=0.011119371825779639 -->
    <g style="fill: #262626" transform="translate(181.946687 243.953018)scale(0.08 -0.08)">
     <use xlink:href="#DejaVuSans-70"/>
     <use xlink:href="#DejaVuSans-3d" x="63.476562"/>
     <use xlink:href="#DejaVuSans-30" x="147.265625"/>
     <use xlink:href="#DejaVuSans-2e" x="210.888672"/>
     <use xlink:href="#DejaVuSans-30" x="242.675781"/>
     <use xlink:href="#DejaVuSans-31" x="306.298828"/>
     <use xlink:href="#DejaVuSans-31" x="369.921875"/>
     <use xlink:href="#DejaVuSans-31" x="433.544922"/>
     <use xlink:href="#DejaVuSans-31" x="497.167969"/>
     <use xlink:href="#DejaVuSans-39" x="560.791016"/>
     <use xlink:href="#DejaVuSans-33" x="624.414062"/>
     <use xlink:href="#DejaVuSans-37" x="688.037109"/>
     <use xlink:href="#DejaVuSans-31" x="751.660156"/>
     <use xlink:href="#DejaVuSans-38" x="815.283203"/>
     <use xlink:href="#DejaVuSans-32" x="878.90625"/>
     <use xlink:href="#DejaVuSans-35" x="942.529297"/>
     <use xlink:href="#DejaVuSans-37" x="1006.152344"/>
     <use xlink:href="#DejaVuSans-37" x="1069.775391"/>
     <use xlink:href="#DejaVuSans-39" x="1133.398438"/>
     <use xlink:href="#DejaVuSans-36" x="1197.021484"/>
     <use xlink:href="#DejaVuSans-33" x="1260.644531"/>
     <use xlink:href="#DejaVuSans-39" x="1324.267578"/>
    </g>
   </g>
   <g id="text_19">
    <!-- 6 -->
    <g style="fill: #262626" transform="translate(276.107062 303.626396)scale(0.1 -0.1)">
     <use xlink:href="#DejaVuSans-36"/>
    </g>
   </g>
   <g id="text_20">
    <!-- 6 -->
    <g style="fill: #262626" transform="translate(366.273771 303.626396)scale(0.1 -0.1)">
     <use xlink:href="#DejaVuSans-36"/>
    </g>
   </g>
   <g id="text_21">
    <!-- p=1.3620835851595887e-05 -->
    <g style="fill: #262626" transform="translate(306.851896 241.672655)scale(0.08 -0.08)">
     <defs>
      <path id="DejaVuSans-2d" d="M 313 2009 
L 1997 2009 
L 1997 1497 
L 313 1497 
L 313 2009 
z
" transform="scale(0.015625)"/>
     </defs>
     <use xlink:href="#DejaVuSans-70"/>
     <use xlink:href="#DejaVuSans-3d" x="63.476562"/>
     <use xlink:href="#DejaVuSans-31" x="147.265625"/>
     <use xlink:href="#DejaVuSans-2e" x="210.888672"/>
     <use xlink:href="#DejaVuSans-33" x="242.675781"/>
     <use xlink:href="#DejaVuSans-36" x="306.298828"/>
     <use xlink:href="#DejaVuSans-32" x="369.921875"/>
     <use xlink:href="#DejaVuSans-30" x="433.544922"/>
     <use xlink:href="#DejaVuSans-38" x="497.167969"/>
     <use xlink:href="#DejaVuSans-33" x="560.791016"/>
     <use xlink:href="#DejaVuSans-35" x="624.414062"/>
     <use xlink:href="#DejaVuSans-38" x="688.037109"/>
     <use xlink:href="#DejaVuSans-35" x="751.660156"/>
     <use xlink:href="#DejaVuSans-31" x="815.283203"/>
     <use xlink:href="#DejaVuSans-35" x="878.90625"/>
     <use xlink:href="#DejaVuSans-39" x="942.529297"/>
     <use xlink:href="#DejaVuSans-35" x="1006.152344"/>
     <use xlink:href="#DejaVuSans-38" x="1069.775391"/>
     <use xlink:href="#DejaVuSans-38" x="1133.398438"/>
     <use xlink:href="#DejaVuSans-37" x="1197.021484"/>
     <use xlink:href="#DejaVuSans-65" x="1260.644531"/>
     <use xlink:href="#DejaVuSans-2d" x="1322.167969"/>
     <use xlink:href="#DejaVuSans-30" x="1358.251953"/>
     <use xlink:href="#DejaVuSans-35" x="1421.875"/>
    </g>
   </g>
   <g id="text_22">
    <!-- 4 -->
    <g style="fill: #262626" transform="translate(404.916646 303.626396)scale(0.1 -0.1)">
     <use xlink:href="#DejaVuSans-34"/>
    </g>
   </g>
   <g id="legend_1">
    <g id="patch_15">
     <path d="M 72.57125 29.620875 
L 92.57125 29.620875 
L 92.57125 22.620875 
L 72.57125 22.620875 
z
" style="fill: #ecf2ec; stroke: #262626; stroke-width: 0.75; stroke-linejoin: miter"/>
    </g>
    <g id="text_23">
     <!-- Mutant -->
     <g style="fill: #262626" transform="translate(100.57125 29.620875)scale(0.1 -0.1)">
      <defs>
       <path id="DejaVuSans-4d" d="M 628 4666 
L 1569 4666 
L 2759 1491 
L 3956 4666 
L 4897 4666 
L 4897 0 
L 4281 0 
L 4281 4097 
L 3078 897 
L 2444 897 
L 1241 4097 
L 1241 0 
L 628 0 
L 628 4666 
z
" transform="scale(0.015625)"/>
       <path id="DejaVuSans-61" d="M 2194 1759 
Q 1497 1759 1228 1600 
Q 959 1441 959 1056 
Q 959 750 1161 570 
Q 1363 391 1709 391 
Q 2188 391 2477 730 
Q 2766 1069 2766 1631 
L 2766 1759 
L 2194 1759 
z
M 3341 1997 
L 3341 0 
L 2766 0 
L 2766 531 
Q 2569 213 2275 61 
Q 1981 -91 1556 -91 
Q 1019 -91 701 211 
Q 384 513 384 1019 
Q 384 1609 779 1909 
Q 1175 2209 1959 2209 
L 2766 2209 
L 2766 2266 
Q 2766 2663 2505 2880 
Q 2244 3097 1772 3097 
Q 1472 3097 1187 3025 
Q 903 2953 641 2809 
L 641 3341 
Q 956 3463 1253 3523 
Q 1550 3584 1831 3584 
Q 2591 3584 2966 3190 
Q 3341 2797 3341 1997 
z
" transform="scale(0.015625)"/>
      </defs>
      <use xlink:href="#DejaVuSans-4d"/>
      <use xlink:href="#DejaVuSans-75" x="86.279297"/>
      <use xlink:href="#DejaVuSans-74" x="149.658203"/>
      <use xlink:href="#DejaVuSans-61" x="188.867188"/>
      <use xlink:href="#DejaVuSans-6e" x="250.146484"/>
      <use xlink:href="#DejaVuSans-74" x="313.525391"/>
     </g>
    </g>
    <g id="patch_16">
     <path d="M 72.57125 44.299 
L 92.57125 44.299 
L 92.57125 37.299 
L 72.57125 37.299 
z
" style="fill: #107010; stroke: #262626; stroke-width: 0.75; stroke-linejoin: miter"/>
    </g>
    <g id="text_24">
     <!-- WT -->
     <g style="fill: #262626" transform="translate(100.57125 44.299)scale(0.1 -0.1)">
      <defs>
       <path id="DejaVuSans-57" d="M 213 4666 
L 850 4666 
L 1831 722 
L 2809 4666 
L 3519 4666 
L 4500 722 
L 5478 4666 
L 6119 4666 
L 4947 0 
L 4153 0 
L 3169 4050 
L 2175 0 
L 1381 0 
L 213 4666 
z
" transform="scale(0.015625)"/>
       <path id="DejaVuSans-54" d="M -19 4666 
L 3928 4666 
L 3928 4134 
L 2272 4134 
L 2272 0 
L 1638 0 
L 1638 4134 
L -19 4134 
L -19 4666 
z
" transform="scale(0.015625)"/>
      </defs>
      <use xlink:href="#DejaVuSans-57"/>
      <use xlink:href="#DejaVuSans-54" x="98.876953"/>
     </g>
    </g>
   </g>
  </g>
 </g>
 <defs>
  <clipPath id="p9a76195c94">
   <rect x="63.57125" y="13.022438" width="386.42875" height="290.617562"/>
  </clipPath>
 </defs>
</svg>
