<?xml version="1.0" encoding="utf-8" standalone="no"?>
<!DOCTYPE svg PUBLIC "-//W3C//DTD SVG 1.1//EN"
  "http://www.w3.org/Graphics/SVG/1.1/DTD/svg11.dtd">
<svg xmlns:xlink="http://www.w3.org/1999/xlink" width="460.8pt" height="345.6pt" viewBox="0 0 460.8 345.6" xmlns="http://www.w3.org/2000/svg" version="1.1">
 <metadata>
  <rdf:RDF xmlns:dc="http://purl.org/dc/elements/1.1/" xmlns:cc="http://creativecommons.org/ns#" xmlns:rdf="http://www.w3.org/1999/02/22-rdf-syntax-ns#">
   <cc:Work>
    <dc:type rdf:resource="http://purl.org/dc/dcmitype/StillImage"/>
    <dc:date>2024-06-14T16:03:25.882480</dc:date>
    <dc:format>image/svg+xml</dc:format>
    <dc:creator>
     <cc:Agent>
      <dc:title>Matplotlib v3.5.3, https://matplotlib.org/</dc:title>
     </cc:Agent>
    </dc:creator>
   </cc:Work>
  </rdf:RDF>
 </metadata>
 <defs>
  <style type="text/css">*{stroke-linejoin: round; stroke-linecap: butt}</style>
 </defs>
 <g id="figure_1">
  <g id="patch_1">
   <path d="M 0 345.6 
L 460.8 345.6 
L 460.8 0 
L 0 0 
z
" style="fill: #ffffff"/>
  </g>
  <g id="axes_1">
   <g id="patch_2">
    <path d="M 63.57125 303.64 
L 450 303.64 
L 450 11.243229 
L 63.57125 11.243229 
z
" style="fill: #ffffff"/>
   </g>
   <g id="matplotlib.axis_1">
    <g id="xtick_1">
     <g id="text_1">
      <!-- I -->
      <g style="fill: #262626" transform="translate(255.310625 318.238437)scale(0.1 -0.1)">
       <defs>
        <path id="DejaVuSans-49" d="M 628 4666 
L 1259 4666 
L 1259 0 
L 628 0 
L 628 4666 
z
" transform="scale(0.015625)"/>
       </defs>
       <use xlink:href="#DejaVuSans-49"/>
      </g>
     </g>
    </g>
    <g id="text_2">
     <!-- mut_AA -->
     <g style="fill: #262626" transform="translate(237.308281 331.638437)scale(0.1 -0.1)">
      <defs>
       <path id="DejaVuSans-6d" d="M 3328 2828 
Q 3544 3216 3844 3400 
Q 4144 3584 4550 3584 
Q 5097 3584 5394 3201 
Q 5691 2819 5691 2113 
L 5691 0 
L 5113 0 
L 5113 2094 
Q 5113 2597 4934 2840 
Q 4756 3084 4391 3084 
Q 3944 3084 3684 2787 
Q 3425 2491 3425 1978 
L 3425 0 
L 2847 0 
L 2847 2094 
Q 2847 2600 2669 2842 
Q 2491 3084 2119 3084 
Q 1678 3084 1418 2786 
Q 1159 2488 1159 1978 
L 1159 0 
L 581 0 
L 581 3500 
L 1159 3500 
L 1159 2956 
Q 1356 3278 1631 3431 
Q 1906 3584 2284 3584 
Q 2666 3584 2933 3390 
Q 3200 3197 3328 2828 
z
" transform="scale(0.015625)"/>
       <path id="DejaVuSans-75" d="M 544 1381 
L 544 3500 
L 1119 3500 
L 1119 1403 
Q 1119 906 1312 657 
Q 1506 409 1894 409 
Q 2359 409 2629 706 
Q 2900 1003 2900 1516 
L 2900 3500 
L 3475 3500 
L 3475 0 
L 2900 0 
L 2900 538 
Q 2691 219 2414 64 
Q 2138 -91 1772 -91 
Q 1169 -91 856 284 
Q 544 659 544 1381 
z
M 1991 3584 
L 1991 3584 
z
" transform="scale(0.015625)"/>
       <path id="DejaVuSans-74" d="M 1172 4494 
L 1172 3500 
L 2356 3500 
L 2356 3053 
L 1172 3053 
L 1172 1153 
Q 1172 725 1289 603 
Q 1406 481 1766 481 
L 2356 481 
L 2356 0 
L 1766 0 
Q 1100 0 847 248 
Q 594 497 594 1153 
L 594 3053 
L 172 3053 
L 172 3500 
L 594 3500 
L 594 4494 
L 1172 4494 
z
" transform="scale(0.015625)"/>
       <path id="DejaVuSans-5f" d="M 3263 -1063 
L 3263 -1509 
L -63 -1509 
L -63 -1063 
L 3263 -1063 
z
" transform="scale(0.015625)"/>
       <path id="DejaVuSans-41" d="M 2188 4044 
L 1331 1722 
L 3047 1722 
L 2188 4044 
z
M 1831 4666 
L 2547 4666 
L 4325 0 
L 3669 0 
L 3244 1197 
L 1141 1197 
L 716 0 
L 50 0 
L 1831 4666 
z
" transform="scale(0.015625)"/>
      </defs>
      <use xlink:href="#DejaVuSans-6d"/>
      <use xlink:href="#DejaVuSans-75" x="97.412109"/>
      <use xlink:href="#DejaVuSans-74" x="160.791016"/>
      <use xlink:href="#DejaVuSans-5f" x="200"/>
      <use xlink:href="#DejaVuSans-41" x="250"/>
      <use xlink:href="#DejaVuSans-41" x="321.158203"/>
     </g>
    </g>
   </g>
   <g id="matplotlib.axis_2">
    <g id="ytick_1">
     <g id="line2d_1">
      <path d="M 63.57125 303.64 
L 450 303.64 
" clip-path="url(#pa4261b15fc)" style="fill: none; stroke: #cccccc; stroke-width: 0.8; stroke-linecap: round"/>
     </g>
     <g id="text_3">
      <!-- 0 -->
      <g style="fill: #262626" transform="translate(50.20875 307.439219)scale(0.1 -0.1)">
       <defs>
        <path id="DejaVuSans-30" d="M 2034 4250 
Q 1547 4250 1301 3770 
Q 1056 3291 1056 2328 
Q 1056 1369 1301 889 
Q 1547 409 2034 409 
Q 2525 409 2770 889 
Q 3016 1369 3016 2328 
Q 3016 3291 2770 3770 
Q 2525 4250 2034 4250 
z
M 2034 4750 
Q 2819 4750 3233 4129 
Q 3647 3509 3647 2328 
Q 3647 1150 3233 529 
Q 2819 -91 2034 -91 
Q 1250 -91 836 529 
Q 422 1150 422 2328 
Q 422 3509 836 4129 
Q 1250 4750 2034 4750 
z
" transform="scale(0.015625)"/>
       </defs>
       <use xlink:href="#DejaVuSans-30"/>
      </g>
     </g>
    </g>
    <g id="ytick_2">
     <g id="line2d_2">
      <path d="M 63.57125 255.778201 
L 450 255.778201 
" clip-path="url(#pa4261b15fc)" style="fill: none; stroke: #cccccc; stroke-width: 0.8; stroke-linecap: round"/>
     </g>
     <g id="text_4">
      <!-- 5000 -->
      <g style="fill: #262626" transform="translate(31.12125 259.57742)scale(0.1 -0.1)">
       <defs>
        <path id="DejaVuSans-35" d="M 691 4666 
L 3169 4666 
L 3169 4134 
L 1269 4134 
L 1269 2991 
Q 1406 3038 1543 3061 
Q 1681 3084 1819 3084 
Q 2600 3084 3056 2656 
Q 3513 2228 3513 1497 
Q 3513 744 3044 326 
Q 2575 -91 1722 -91 
Q 1428 -91 1123 -41 
Q 819 9 494 109 
L 494 744 
Q 775 591 1075 516 
Q 1375 441 1709 441 
Q 2250 441 2565 725 
Q 2881 1009 2881 1497 
Q 2881 1984 2565 2268 
Q 2250 2553 1709 2553 
Q 1456 2553 1204 2497 
Q 953 2441 691 2322 
L 691 4666 
z
" transform="scale(0.015625)"/>
       </defs>
       <use xlink:href="#DejaVuSans-35"/>
       <use xlink:href="#DejaVuSans-30" x="63.623047"/>
       <use xlink:href="#DejaVuSans-30" x="127.246094"/>
       <use xlink:href="#DejaVuSans-30" x="190.869141"/>
      </g>
     </g>
    </g>
    <g id="ytick_3">
     <g id="line2d_3">
      <path d="M 63.57125 207.916402 
L 450 207.916402 
" clip-path="url(#pa4261b15fc)" style="fill: none; stroke: #cccccc; stroke-width: 0.8; stroke-linecap: round"/>
     </g>
     <g id="text_5">
      <!-- 10000 -->
      <g style="fill: #262626" transform="translate(24.75875 211.71562)scale(0.1 -0.1)">
       <defs>
        <path id="DejaVuSans-31" d="M 794 531 
L 1825 531 
L 1825 4091 
L 703 3866 
L 703 4441 
L 1819 4666 
L 2450 4666 
L 2450 531 
L 3481 531 
L 3481 0 
L 794 0 
L 794 531 
z
" transform="scale(0.015625)"/>
       </defs>
       <use xlink:href="#DejaVuSans-31"/>
       <use xlink:href="#DejaVuSans-30" x="63.623047"/>
       <use xlink:href="#DejaVuSans-30" x="127.246094"/>
       <use xlink:href="#DejaVuSans-30" x="190.869141"/>
       <use xlink:href="#DejaVuSans-30" x="254.492188"/>
      </g>
     </g>
    </g>
    <g id="ytick_4">
     <g id="line2d_4">
      <path d="M 63.57125 160.054603 
L 450 160.054603 
" clip-path="url(#pa4261b15fc)" style="fill: none; stroke: #cccccc; stroke-width: 0.8; stroke-linecap: round"/>
     </g>
     <g id="text_6">
      <!-- 15000 -->
      <g style="fill: #262626" transform="translate(24.75875 163.853821)scale(0.1 -0.1)">
       <use xlink:href="#DejaVuSans-31"/>
       <use xlink:href="#DejaVuSans-35" x="63.623047"/>
       <use xlink:href="#DejaVuSans-30" x="127.246094"/>
       <use xlink:href="#DejaVuSans-30" x="190.869141"/>
       <use xlink:href="#DejaVuSans-30" x="254.492188"/>
      </g>
     </g>
    </g>
    <g id="ytick_5">
     <g id="line2d_5">
      <path d="M 63.57125 112.192803 
L 450 112.192803 
" clip-path="url(#pa4261b15fc)" style="fill: none; stroke: #cccccc; stroke-width: 0.8; stroke-linecap: round"/>
     </g>
     <g id="text_7">
      <!-- 20000 -->
      <g style="fill: #262626" transform="translate(24.75875 115.992022)scale(0.1 -0.1)">
       <defs>
        <path id="DejaVuSans-32" d="M 1228 531 
L 3431 531 
L 3431 0 
L 469 0 
L 469 531 
Q 828 903 1448 1529 
Q 2069 2156 2228 2338 
Q 2531 2678 2651 2914 
Q 2772 3150 2772 3378 
Q 2772 3750 2511 3984 
Q 2250 4219 1831 4219 
Q 1534 4219 1204 4116 
Q 875 4013 500 3803 
L 500 4441 
Q 881 4594 1212 4672 
Q 1544 4750 1819 4750 
Q 2544 4750 2975 4387 
Q 3406 4025 3406 3419 
Q 3406 3131 3298 2873 
Q 3191 2616 2906 2266 
Q 2828 2175 2409 1742 
Q 1991 1309 1228 531 
z
" transform="scale(0.015625)"/>
       </defs>
       <use xlink:href="#DejaVuSans-32"/>
       <use xlink:href="#DejaVuSans-30" x="63.623047"/>
       <use xlink:href="#DejaVuSans-30" x="127.246094"/>
       <use xlink:href="#DejaVuSans-30" x="190.869141"/>
       <use xlink:href="#DejaVuSans-30" x="254.492188"/>
      </g>
     </g>
    </g>
    <g id="ytick_6">
     <g id="line2d_6">
      <path d="M 63.57125 64.331004 
L 450 64.331004 
" clip-path="url(#pa4261b15fc)" style="fill: none; stroke: #cccccc; stroke-width: 0.8; stroke-linecap: round"/>
     </g>
     <g id="text_8">
      <!-- 25000 -->
      <g style="fill: #262626" transform="translate(24.75875 68.130223)scale(0.1 -0.1)">
       <use xlink:href="#DejaVuSans-32"/>
       <use xlink:href="#DejaVuSans-35" x="63.623047"/>
       <use xlink:href="#DejaVuSans-30" x="127.246094"/>
       <use xlink:href="#DejaVuSans-30" x="190.869141"/>
       <use xlink:href="#DejaVuSans-30" x="254.492188"/>
      </g>
     </g>
    </g>
    <g id="ytick_7">
     <g id="line2d_7">
      <path d="M 63.57125 16.469205 
L 450 16.469205 
" clip-path="url(#pa4261b15fc)" style="fill: none; stroke: #cccccc; stroke-width: 0.8; stroke-linecap: round"/>
     </g>
     <g id="text_9">
      <!-- 30000 -->
      <g style="fill: #262626" transform="translate(24.75875 20.268424)scale(0.1 -0.1)">
       <defs>
        <path id="DejaVuSans-33" d="M 2597 2516 
Q 3050 2419 3304 2112 
Q 3559 1806 3559 1356 
Q 3559 666 3084 287 
Q 2609 -91 1734 -91 
Q 1441 -91 1130 -33 
Q 819 25 488 141 
L 488 750 
Q 750 597 1062 519 
Q 1375 441 1716 441 
Q 2309 441 2620 675 
Q 2931 909 2931 1356 
Q 2931 1769 2642 2001 
Q 2353 2234 1838 2234 
L 1294 2234 
L 1294 2753 
L 1863 2753 
Q 2328 2753 2575 2939 
Q 2822 3125 2822 3475 
Q 2822 3834 2567 4026 
Q 2313 4219 1838 4219 
Q 1578 4219 1281 4162 
Q 984 4106 628 3988 
L 628 4550 
Q 988 4650 1302 4700 
Q 1616 4750 1894 4750 
Q 2613 4750 3031 4423 
Q 3450 4097 3450 3541 
Q 3450 3153 3228 2886 
Q 3006 2619 2597 2516 
z
" transform="scale(0.015625)"/>
       </defs>
       <use xlink:href="#DejaVuSans-33"/>
       <use xlink:href="#DejaVuSans-30" x="63.623047"/>
       <use xlink:href="#DejaVuSans-30" x="127.246094"/>
       <use xlink:href="#DejaVuSans-30" x="190.869141"/>
       <use xlink:href="#DejaVuSans-30" x="254.492188"/>
      </g>
     </g>
    </g>
    <g id="text_10">
     <!-- toxgreen_fluor -->
     <g style="fill: #262626" transform="translate(18.400938 193.636146)rotate(-90)scale(0.1 -0.1)">
      <defs>
       <path id="DejaVuSans-6f" d="M 1959 3097 
Q 1497 3097 1228 2736 
Q 959 2375 959 1747 
Q 959 1119 1226 758 
Q 1494 397 1959 397 
Q 2419 397 2687 759 
Q 2956 1122 2956 1747 
Q 2956 2369 2687 2733 
Q 2419 3097 1959 3097 
z
M 1959 3584 
Q 2709 3584 3137 3096 
Q 3566 2609 3566 1747 
Q 3566 888 3137 398 
Q 2709 -91 1959 -91 
Q 1206 -91 779 398 
Q 353 888 353 1747 
Q 353 2609 779 3096 
Q 1206 3584 1959 3584 
z
" transform="scale(0.015625)"/>
       <path id="DejaVuSans-78" d="M 3513 3500 
L 2247 1797 
L 3578 0 
L 2900 0 
L 1881 1375 
L 863 0 
L 184 0 
L 1544 1831 
L 300 3500 
L 978 3500 
L 1906 2253 
L 2834 3500 
L 3513 3500 
z
" transform="scale(0.015625)"/>
       <path id="DejaVuSans-67" d="M 2906 1791 
Q 2906 2416 2648 2759 
Q 2391 3103 1925 3103 
Q 1463 3103 1205 2759 
Q 947 2416 947 1791 
Q 947 1169 1205 825 
Q 1463 481 1925 481 
Q 2391 481 2648 825 
Q 2906 1169 2906 1791 
z
M 3481 434 
Q 3481 -459 3084 -895 
Q 2688 -1331 1869 -1331 
Q 1566 -1331 1297 -1286 
Q 1028 -1241 775 -1147 
L 775 -588 
Q 1028 -725 1275 -790 
Q 1522 -856 1778 -856 
Q 2344 -856 2625 -561 
Q 2906 -266 2906 331 
L 2906 616 
Q 2728 306 2450 153 
Q 2172 0 1784 0 
Q 1141 0 747 490 
Q 353 981 353 1791 
Q 353 2603 747 3093 
Q 1141 3584 1784 3584 
Q 2172 3584 2450 3431 
Q 2728 3278 2906 2969 
L 2906 3500 
L 3481 3500 
L 3481 434 
z
" transform="scale(0.015625)"/>
       <path id="DejaVuSans-72" d="M 2631 2963 
Q 2534 3019 2420 3045 
Q 2306 3072 2169 3072 
Q 1681 3072 1420 2755 
Q 1159 2438 1159 1844 
L 1159 0 
L 581 0 
L 581 3500 
L 1159 3500 
L 1159 2956 
Q 1341 3275 1631 3429 
Q 1922 3584 2338 3584 
Q 2397 3584 2469 3576 
Q 2541 3569 2628 3553 
L 2631 2963 
z
" transform="scale(0.015625)"/>
       <path id="DejaVuSans-65" d="M 3597 1894 
L 3597 1613 
L 953 1613 
Q 991 1019 1311 708 
Q 1631 397 2203 397 
Q 2534 397 2845 478 
Q 3156 559 3463 722 
L 3463 178 
Q 3153 47 2828 -22 
Q 2503 -91 2169 -91 
Q 1331 -91 842 396 
Q 353 884 353 1716 
Q 353 2575 817 3079 
Q 1281 3584 2069 3584 
Q 2775 3584 3186 3129 
Q 3597 2675 3597 1894 
z
M 3022 2063 
Q 3016 2534 2758 2815 
Q 2500 3097 2075 3097 
Q 1594 3097 1305 2825 
Q 1016 2553 972 2059 
L 3022 2063 
z
" transform="scale(0.015625)"/>
       <path id="DejaVuSans-6e" d="M 3513 2113 
L 3513 0 
L 2938 0 
L 2938 2094 
Q 2938 2591 2744 2837 
Q 2550 3084 2163 3084 
Q 1697 3084 1428 2787 
Q 1159 2491 1159 1978 
L 1159 0 
L 581 0 
L 581 3500 
L 1159 3500 
L 1159 2956 
Q 1366 3272 1645 3428 
Q 1925 3584 2291 3584 
Q 2894 3584 3203 3211 
Q 3513 2838 3513 2113 
z
" transform="scale(0.015625)"/>
       <path id="DejaVuSans-66" d="M 2375 4863 
L 2375 4384 
L 1825 4384 
Q 1516 4384 1395 4259 
Q 1275 4134 1275 3809 
L 1275 3500 
L 2222 3500 
L 2222 3053 
L 1275 3053 
L 1275 0 
L 697 0 
L 697 3053 
L 147 3053 
L 147 3500 
L 697 3500 
L 697 3744 
Q 697 4328 969 4595 
Q 1241 4863 1831 4863 
L 2375 4863 
z
" transform="scale(0.015625)"/>
       <path id="DejaVuSans-6c" d="M 603 4863 
L 1178 4863 
L 1178 0 
L 603 0 
L 603 4863 
z
" transform="scale(0.015625)"/>
      </defs>
      <use xlink:href="#DejaVuSans-74"/>
      <use xlink:href="#DejaVuSans-6f" x="39.208984"/>
      <use xlink:href="#DejaVuSans-78" x="97.265625"/>
      <use xlink:href="#DejaVuSans-67" x="156.445312"/>
      <use xlink:href="#DejaVuSans-72" x="219.921875"/>
      <use xlink:href="#DejaVuSans-65" x="258.785156"/>
      <use xlink:href="#DejaVuSans-65" x="320.308594"/>
      <use xlink:href="#DejaVuSans-6e" x="381.832031"/>
      <use xlink:href="#DejaVuSans-5f" x="445.210938"/>
      <use xlink:href="#DejaVuSans-66" x="495.210938"/>
      <use xlink:href="#DejaVuSans-6c" x="530.416016"/>
      <use xlink:href="#DejaVuSans-75" x="558.199219"/>
      <use xlink:href="#DejaVuSans-6f" x="621.578125"/>
      <use xlink:href="#DejaVuSans-72" x="682.759766"/>
     </g>
    </g>
   </g>
   <g id="patch_3">
    <path d="M 103.75984 262.680111 
L 255.23991 262.680111 
L 255.23991 247.581984 
L 103.75984 247.581984 
L 103.75984 262.680111 
z
" clip-path="url(#pa4261b15fc)" style="fill: #ecf2ec; stroke: #262626; stroke-width: 1.5; stroke-linejoin: miter"/>
   </g>
   <g id="patch_4">
    <path d="M 258.33134 245.535452 
L 409.81141 245.535452 
L 409.81141 115.696139 
L 258.33134 115.696139 
L 258.33134 245.535452 
z
" clip-path="url(#pa4261b15fc)" style="fill: #107010; stroke: #262626; stroke-width: 1.5; stroke-linejoin: miter"/>
   </g>
   <g id="patch_5">
    <path d="M 256.785625 303.64 
L 256.785625 303.64 
L 256.785625 303.64 
L 256.785625 303.64 
z
" clip-path="url(#pa4261b15fc)" style="fill: #ecf2ec; stroke: #262626; stroke-width: 0.75; stroke-linejoin: miter"/>
   </g>
   <g id="patch_6">
    <path d="M 256.785625 303.64 
L 256.785625 303.64 
L 256.785625 303.64 
L 256.785625 303.64 
z
" clip-path="url(#pa4261b15fc)" style="fill: #107010; stroke: #262626; stroke-width: 0.75; stroke-linejoin: miter"/>
   </g>
   <g id="PathCollection_1"/>
   <g id="PathCollection_2"/>
   <g id="line2d_8">
    <path d="M 179.499875 262.680111 
L 179.499875 276.223834 
" clip-path="url(#pa4261b15fc)" style="fill: none; stroke: #262626; stroke-width: 1.5; stroke-linecap: round"/>
   </g>
   <g id="line2d_9">
    <path d="M 179.499875 247.581984 
L 179.499875 230.56908 
" clip-path="url(#pa4261b15fc)" style="fill: none; stroke: #262626; stroke-width: 1.5; stroke-linecap: round"/>
   </g>
   <g id="line2d_10">
    <path d="M 141.629857 276.223834 
L 217.369892 276.223834 
" clip-path="url(#pa4261b15fc)" style="fill: none; stroke: #262626; stroke-width: 1.5; stroke-linecap: round"/>
   </g>
   <g id="line2d_11">
    <path d="M 141.629857 230.56908 
L 217.369892 230.56908 
" clip-path="url(#pa4261b15fc)" style="fill: none; stroke: #262626; stroke-width: 1.5; stroke-linecap: round"/>
   </g>
   <g id="line2d_12">
    <defs>
     <path id="m4a323a850d" d="M -0 1.414214 
L 0.848528 0 
L 0 -1.414214 
L -0.848528 -0 
z
" style="stroke: #262626; stroke-linejoin: miter"/>
    </defs>
    <g clip-path="url(#pa4261b15fc)">
     <use xlink:href="#m4a323a850d" x="179.499875" y="286.904909" style="fill: #262626; stroke: #262626; stroke-linejoin: miter"/>
     <use xlink:href="#m4a323a850d" x="179.499875" y="222.08116" style="fill: #262626; stroke: #262626; stroke-linejoin: miter"/>
     <use xlink:href="#m4a323a850d" x="179.499875" y="180.866949" style="fill: #262626; stroke: #262626; stroke-linejoin: miter"/>
     <use xlink:href="#m4a323a850d" x="179.499875" y="222.592424" style="fill: #262626; stroke: #262626; stroke-linejoin: miter"/>
     <use xlink:href="#m4a323a850d" x="179.499875" y="214.903492" style="fill: #262626; stroke: #262626; stroke-linejoin: miter"/>
    </g>
   </g>
   <g id="line2d_13">
    <path d="M 334.071375 245.535452 
L 334.071375 268.569825 
" clip-path="url(#pa4261b15fc)" style="fill: none; stroke: #262626; stroke-width: 1.5; stroke-linecap: round"/>
   </g>
   <g id="line2d_14">
    <path d="M 334.071375 115.696139 
L 334.071375 37.824754 
" clip-path="url(#pa4261b15fc)" style="fill: none; stroke: #262626; stroke-width: 1.5; stroke-linecap: round"/>
   </g>
   <g id="line2d_15">
    <path d="M 296.201357 268.569825 
L 371.941393 268.569825 
" clip-path="url(#pa4261b15fc)" style="fill: none; stroke: #262626; stroke-width: 1.5; stroke-linecap: round"/>
   </g>
   <g id="line2d_16">
    <path d="M 296.201357 37.824754 
L 371.941393 37.824754 
" clip-path="url(#pa4261b15fc)" style="fill: none; stroke: #262626; stroke-width: 1.5; stroke-linecap: round"/>
   </g>
   <g id="line2d_17"/>
   <g id="line2d_18">
    <path d="M 103.75984 255.642268 
L 255.23991 255.642268 
" clip-path="url(#pa4261b15fc)" style="fill: none; stroke: #262626; stroke-width: 1.5; stroke-linecap: round"/>
   </g>
   <g id="line2d_19">
    <path d="M 258.33134 229.578994 
L 409.81141 229.578994 
" clip-path="url(#pa4261b15fc)" style="fill: none; stroke: #262626; stroke-width: 1.5; stroke-linecap: round"/>
   </g>
   <g id="patch_7">
    <path d="M 63.57125 303.64 
L 63.57125 11.243229 
" style="fill: none; stroke: #cccccc; stroke-width: 0.8; stroke-linejoin: miter; stroke-linecap: square"/>
   </g>
   <g id="patch_8">
    <path d="M 450 303.64 
L 450 11.243229 
" style="fill: none; stroke: #cccccc; stroke-width: 0.8; stroke-linejoin: miter; stroke-linecap: square"/>
   </g>
   <g id="patch_9">
    <path d="M 63.57125 303.64 
L 450 303.64 
" style="fill: none; stroke: #cccccc; stroke-width: 0.8; stroke-linejoin: miter; stroke-linecap: square"/>
   </g>
   <g id="patch_10">
    <path d="M 63.57125 11.243229 
L 450 11.243229 
" style="fill: none; stroke: #cccccc; stroke-width: 0.8; stroke-linejoin: miter; stroke-linecap: square"/>
   </g>
   <g id="PathCollection_3">
    <defs>
     <path id="C0_0_2404e01c07" d="M 0 1 
C 0.265203 1 0.51958 0.894634 0.707107 0.707107 
C 0.894634 0.51958 1 0.265203 1 -0 
C 1 -0.265203 0.894634 -0.51958 0.707107 -0.707107 
C 0.51958 -0.894634 0.265203 -1 0 -1 
C -0.265203 -1 -0.51958 -0.894634 -0.707107 -0.707107 
C -0.894634 -0.51958 -1 -0.265203 -1 0 
C -1 0.265203 -0.894634 0.51958 -0.707107 0.707107 
C -0.51958 0.894634 -0.265203 1 0 1 
z
"/>
    </defs>
    <g clip-path="url(#pa4261b15fc)">
     <use xlink:href="#C0_0_2404e01c07" x="184.623973" y="264.074574" style="fill: #262626"/>
    </g>
    <g clip-path="url(#pa4261b15fc)">
     <use xlink:href="#C0_0_2404e01c07" x="174.683993" y="276.223834" style="fill: #262626"/>
    </g>
    <g clip-path="url(#pa4261b15fc)">
     <use xlink:href="#C0_0_2404e01c07" x="166.128335" y="266.58415" style="fill: #262626"/>
    </g>
    <g clip-path="url(#pa4261b15fc)">
     <use xlink:href="#C0_0_2404e01c07" x="170.033781" y="255.246688" style="fill: #262626"/>
    </g>
    <g clip-path="url(#pa4261b15fc)">
     <use xlink:href="#C0_0_2404e01c07" x="173.380813" y="262.67435" style="fill: #262626"/>
    </g>
    <g clip-path="url(#pa4261b15fc)">
     <use xlink:href="#C0_0_2404e01c07" x="189.198925" y="242.257169" style="fill: #262626"/>
    </g>
    <g clip-path="url(#pa4261b15fc)">
     <use xlink:href="#C0_0_2404e01c07" x="162.309639" y="249.311104" style="fill: #262626"/>
    </g>
    <g clip-path="url(#pa4261b15fc)">
     <use xlink:href="#C0_0_2404e01c07" x="187.666625" y="244.220155" style="fill: #262626"/>
    </g>
    <g clip-path="url(#pa4261b15fc)">
     <use xlink:href="#C0_0_2404e01c07" x="192.311724" y="251.548121" style="fill: #262626"/>
    </g>
    <g clip-path="url(#pa4261b15fc)">
     <use xlink:href="#C0_0_2404e01c07" x="170.247198" y="257.245931" style="fill: #262626"/>
    </g>
    <g clip-path="url(#pa4261b15fc)">
     <use xlink:href="#C0_0_2404e01c07" x="165.841554" y="240.688504" style="fill: #262626"/>
    </g>
    <g clip-path="url(#pa4261b15fc)">
     <use xlink:href="#C0_0_2404e01c07" x="183.203063" y="258.411207" style="fill: #262626"/>
    </g>
    <g clip-path="url(#pa4261b15fc)">
     <use xlink:href="#C0_0_2404e01c07" x="167.527624" y="230.56908" style="fill: #262626"/>
    </g>
    <g clip-path="url(#pa4261b15fc)">
     <use xlink:href="#C0_0_2404e01c07" x="184.508926" y="270.4685" style="fill: #262626"/>
    </g>
    <g clip-path="url(#pa4261b15fc)">
     <use xlink:href="#C0_0_2404e01c07" x="188.988632" y="248.431076" style="fill: #262626"/>
    </g>
    <g clip-path="url(#pa4261b15fc)">
     <use xlink:href="#C0_0_2404e01c07" x="176.925458" y="249.405022" style="fill: #262626"/>
    </g>
    <g clip-path="url(#pa4261b15fc)">
     <use xlink:href="#C0_0_2404e01c07" x="173.82194" y="238.57146" style="fill: #262626"/>
    </g>
    <g clip-path="url(#pa4261b15fc)">
     <use xlink:href="#C0_0_2404e01c07" x="197.53683" y="249.504092" style="fill: #262626"/>
    </g>
    <g clip-path="url(#pa4261b15fc)">
     <use xlink:href="#C0_0_2404e01c07" x="177.378631" y="255.880306" style="fill: #262626"/>
    </g>
    <g clip-path="url(#pa4261b15fc)">
     <use xlink:href="#C0_0_2404e01c07" x="197.316594" y="258.667767" style="fill: #262626"/>
    </g>
    <g clip-path="url(#pa4261b15fc)">
     <use xlink:href="#C0_0_2404e01c07" x="190.543508" y="248.140679" style="fill: #262626"/>
    </g>
    <g clip-path="url(#pa4261b15fc)">
     <use xlink:href="#C0_0_2404e01c07" x="180.798147" y="261.320557" style="fill: #262626"/>
    </g>
    <g clip-path="url(#pa4261b15fc)">
     <use xlink:href="#C0_0_2404e01c07" x="178.81125" y="232.353771" style="fill: #262626"/>
    </g>
    <g clip-path="url(#pa4261b15fc)">
     <use xlink:href="#C0_0_2404e01c07" x="197.278281" y="260.007098" style="fill: #262626"/>
    </g>
    <g clip-path="url(#pa4261b15fc)">
     <use xlink:href="#C0_0_2404e01c07" x="183.430107" y="222.08116" style="fill: #262626"/>
    </g>
    <g clip-path="url(#pa4261b15fc)">
     <use xlink:href="#C0_0_2404e01c07" x="168.485686" y="261.179723" style="fill: #262626"/>
    </g>
    <g clip-path="url(#pa4261b15fc)">
     <use xlink:href="#C0_0_2404e01c07" x="164.291799" y="251.669216" style="fill: #262626"/>
    </g>
    <g clip-path="url(#pa4261b15fc)">
     <use xlink:href="#C0_0_2404e01c07" x="193.400355" y="262.469258" style="fill: #262626"/>
    </g>
    <g clip-path="url(#pa4261b15fc)">
     <use xlink:href="#C0_0_2404e01c07" x="170.477353" y="252.530614" style="fill: #262626"/>
    </g>
    <g clip-path="url(#pa4261b15fc)">
     <use xlink:href="#C0_0_2404e01c07" x="160.455259" y="242.986862" style="fill: #262626"/>
    </g>
    <g clip-path="url(#pa4261b15fc)">
     <use xlink:href="#C0_0_2404e01c07" x="176.156216" y="274.342595" style="fill: #262626"/>
    </g>
    <g clip-path="url(#pa4261b15fc)">
     <use xlink:href="#C0_0_2404e01c07" x="161.647551" y="259.052133" style="fill: #262626"/>
    </g>
    <g clip-path="url(#pa4261b15fc)">
     <use xlink:href="#C0_0_2404e01c07" x="180.866803" y="250.727306" style="fill: #262626"/>
    </g>
    <g clip-path="url(#pa4261b15fc)">
     <use xlink:href="#C0_0_2404e01c07" x="192.546592" y="246.910684" style="fill: #262626"/>
    </g>
    <g clip-path="url(#pa4261b15fc)">
     <use xlink:href="#C0_0_2404e01c07" x="163.946772" y="261.785023" style="fill: #262626"/>
    </g>
    <g clip-path="url(#pa4261b15fc)">
     <use xlink:href="#C0_0_2404e01c07" x="178.424938" y="251.640983" style="fill: #262626"/>
    </g>
    <g clip-path="url(#pa4261b15fc)">
     <use xlink:href="#C0_0_2404e01c07" x="166.812513" y="264.233266" style="fill: #262626"/>
    </g>
    <g clip-path="url(#pa4261b15fc)">
     <use xlink:href="#C0_0_2404e01c07" x="191.577997" y="273.133543" style="fill: #262626"/>
    </g>
    <g clip-path="url(#pa4261b15fc)">
     <use xlink:href="#C0_0_2404e01c07" x="193.207309" y="255.210013" style="fill: #262626"/>
    </g>
    <g clip-path="url(#pa4261b15fc)">
     <use xlink:href="#C0_0_2404e01c07" x="193.003217" y="248.307358" style="fill: #262626"/>
    </g>
    <g clip-path="url(#pa4261b15fc)">
     <use xlink:href="#C0_0_2404e01c07" x="176.389093" y="252.606425" style="fill: #262626"/>
    </g>
    <g clip-path="url(#pa4261b15fc)">
     <use xlink:href="#C0_0_2404e01c07" x="187.671973" y="258.426987" style="fill: #262626"/>
    </g>
    <g clip-path="url(#pa4261b15fc)">
     <use xlink:href="#C0_0_2404e01c07" x="194.923947" y="255.964466" style="fill: #262626"/>
    </g>
    <g clip-path="url(#pa4261b15fc)">
     <use xlink:href="#C0_0_2404e01c07" x="192.324267" y="249.251885" style="fill: #262626"/>
    </g>
    <g clip-path="url(#pa4261b15fc)">
     <use xlink:href="#C0_0_2404e01c07" x="194.56338" y="255.40423" style="fill: #262626"/>
    </g>
    <g clip-path="url(#pa4261b15fc)">
     <use xlink:href="#C0_0_2404e01c07" x="188.098094" y="180.866949" style="fill: #262626"/>
    </g>
    <g clip-path="url(#pa4261b15fc)">
     <use xlink:href="#C0_0_2404e01c07" x="184.949768" y="238.821376" style="fill: #262626"/>
    </g>
    <g clip-path="url(#pa4261b15fc)">
     <use xlink:href="#C0_0_2404e01c07" x="167.477692" y="249.903744" style="fill: #262626"/>
    </g>
    <g clip-path="url(#pa4261b15fc)">
     <use xlink:href="#C0_0_2404e01c07" x="194.794409" y="231.872665" style="fill: #262626"/>
    </g>
    <g clip-path="url(#pa4261b15fc)">
     <use xlink:href="#C0_0_2404e01c07" x="178.169293" y="258.526385" style="fill: #262626"/>
    </g>
    <g clip-path="url(#pa4261b15fc)">
     <use xlink:href="#C0_0_2404e01c07" x="197.259856" y="222.592424" style="fill: #262626"/>
    </g>
    <g clip-path="url(#pa4261b15fc)">
     <use xlink:href="#C0_0_2404e01c07" x="184.799735" y="246.918729" style="fill: #262626"/>
    </g>
    <g clip-path="url(#pa4261b15fc)">
     <use xlink:href="#C0_0_2404e01c07" x="169.959408" y="268.406372" style="fill: #262626"/>
    </g>
    <g clip-path="url(#pa4261b15fc)">
     <use xlink:href="#C0_0_2404e01c07" x="172.737504" y="264.178047" style="fill: #262626"/>
    </g>
    <g clip-path="url(#pa4261b15fc)">
     <use xlink:href="#C0_0_2404e01c07" x="193.591708" y="258.247209" style="fill: #262626"/>
    </g>
    <g clip-path="url(#pa4261b15fc)">
     <use xlink:href="#C0_0_2404e01c07" x="165.413214" y="267.894646" style="fill: #262626"/>
    </g>
    <g clip-path="url(#pa4261b15fc)">
     <use xlink:href="#C0_0_2404e01c07" x="160.764377" y="267.625457" style="fill: #262626"/>
    </g>
    <g clip-path="url(#pa4261b15fc)">
     <use xlink:href="#C0_0_2404e01c07" x="181.787838" y="259.64033" style="fill: #262626"/>
    </g>
    <g clip-path="url(#pa4261b15fc)">
     <use xlink:href="#C0_0_2404e01c07" x="184.058588" y="268.182068" style="fill: #262626"/>
    </g>
    <g clip-path="url(#pa4261b15fc)">
     <use xlink:href="#C0_0_2404e01c07" x="176.177505" y="250.410281" style="fill: #262626"/>
    </g>
    <g clip-path="url(#pa4261b15fc)">
     <use xlink:href="#C0_0_2404e01c07" x="166.722574" y="262.162943" style="fill: #262626"/>
    </g>
    <g clip-path="url(#pa4261b15fc)">
     <use xlink:href="#C0_0_2404e01c07" x="179.542834" y="231.698117" style="fill: #262626"/>
    </g>
    <g clip-path="url(#pa4261b15fc)">
     <use xlink:href="#C0_0_2404e01c07" x="178.16737" y="257.382268" style="fill: #262626"/>
    </g>
    <g clip-path="url(#pa4261b15fc)">
     <use xlink:href="#C0_0_2404e01c07" x="178.640573" y="239.713422" style="fill: #262626"/>
    </g>
    <g clip-path="url(#pa4261b15fc)">
     <use xlink:href="#C0_0_2404e01c07" x="181.134456" y="269.751238" style="fill: #262626"/>
    </g>
    <g clip-path="url(#pa4261b15fc)">
     <use xlink:href="#C0_0_2404e01c07" x="174.794686" y="265.213511" style="fill: #262626"/>
    </g>
    <g clip-path="url(#pa4261b15fc)">
     <use xlink:href="#C0_0_2404e01c07" x="185.926828" y="254.627583" style="fill: #262626"/>
    </g>
    <g clip-path="url(#pa4261b15fc)">
     <use xlink:href="#C0_0_2404e01c07" x="164.275124" y="267.01405" style="fill: #262626"/>
    </g>
    <g clip-path="url(#pa4261b15fc)">
     <use xlink:href="#C0_0_2404e01c07" x="175.852125" y="256.509116" style="fill: #262626"/>
    </g>
    <g clip-path="url(#pa4261b15fc)">
     <use xlink:href="#C0_0_2404e01c07" x="180.611702" y="262.082425" style="fill: #262626"/>
    </g>
    <g clip-path="url(#pa4261b15fc)">
     <use xlink:href="#C0_0_2404e01c07" x="187.235334" y="214.903492" style="fill: #262626"/>
    </g>
    <g clip-path="url(#pa4261b15fc)">
     <use xlink:href="#C0_0_2404e01c07" x="169.409786" y="233.440007" style="fill: #262626"/>
    </g>
    <g clip-path="url(#pa4261b15fc)">
     <use xlink:href="#C0_0_2404e01c07" x="180.748895" y="247.122191" style="fill: #262626"/>
    </g>
    <g clip-path="url(#pa4261b15fc)">
     <use xlink:href="#C0_0_2404e01c07" x="176.930475" y="260.979004" style="fill: #262626"/>
    </g>
    <g clip-path="url(#pa4261b15fc)">
     <use xlink:href="#C0_0_2404e01c07" x="194.61859" y="252.997084" style="fill: #262626"/>
    </g>
    <g clip-path="url(#pa4261b15fc)">
     <use xlink:href="#C0_0_2404e01c07" x="175.771192" y="237.328493" style="fill: #262626"/>
    </g>
    <g clip-path="url(#pa4261b15fc)">
     <use xlink:href="#C0_0_2404e01c07" x="177.502863" y="262.697392" style="fill: #262626"/>
    </g>
    <g clip-path="url(#pa4261b15fc)">
     <use xlink:href="#C0_0_2404e01c07" x="185.469684" y="244.427971" style="fill: #262626"/>
    </g>
    <g clip-path="url(#pa4261b15fc)">
     <use xlink:href="#C0_0_2404e01c07" x="186.929738" y="246.359043" style="fill: #262626"/>
    </g>
    <g clip-path="url(#pa4261b15fc)">
     <use xlink:href="#C0_0_2404e01c07" x="170.384478" y="247.575241" style="fill: #262626"/>
    </g>
    <g clip-path="url(#pa4261b15fc)">
     <use xlink:href="#C0_0_2404e01c07" x="191.67927" y="275.505592" style="fill: #262626"/>
    </g>
    <g clip-path="url(#pa4261b15fc)">
     <use xlink:href="#C0_0_2404e01c07" x="179.547988" y="234.93586" style="fill: #262626"/>
    </g>
    <g clip-path="url(#pa4261b15fc)">
     <use xlink:href="#C0_0_2404e01c07" x="163.946146" y="250.967696" style="fill: #262626"/>
    </g>
    <g clip-path="url(#pa4261b15fc)">
     <use xlink:href="#C0_0_2404e01c07" x="196.802733" y="247.584232" style="fill: #262626"/>
    </g>
    <g clip-path="url(#pa4261b15fc)">
     <use xlink:href="#C0_0_2404e01c07" x="198.640115" y="256.234022" style="fill: #262626"/>
    </g>
    <g clip-path="url(#pa4261b15fc)">
     <use xlink:href="#C0_0_2404e01c07" x="188.20175" y="263.241505" style="fill: #262626"/>
    </g>
    <g clip-path="url(#pa4261b15fc)">
     <use xlink:href="#C0_0_2404e01c07" x="174.302231" y="248.761669" style="fill: #262626"/>
    </g>
    <g clip-path="url(#pa4261b15fc)">
     <use xlink:href="#C0_0_2404e01c07" x="182.798907" y="263.125323" style="fill: #262626"/>
    </g>
    <g clip-path="url(#pa4261b15fc)">
     <use xlink:href="#C0_0_2404e01c07" x="196.59123" y="260.920276" style="fill: #262626"/>
    </g>
    <g clip-path="url(#pa4261b15fc)">
     <use xlink:href="#C0_0_2404e01c07" x="172.435109" y="246.379526" style="fill: #262626"/>
    </g>
    <g clip-path="url(#pa4261b15fc)">
     <use xlink:href="#C0_0_2404e01c07" x="174.176449" y="256.810962" style="fill: #262626"/>
    </g>
    <g clip-path="url(#pa4261b15fc)">
     <use xlink:href="#C0_0_2404e01c07" x="198.467648" y="263.645629" style="fill: #262626"/>
    </g>
    <g clip-path="url(#pa4261b15fc)">
     <use xlink:href="#C0_0_2404e01c07" x="188.43714" y="249.707672" style="fill: #262626"/>
    </g>
    <g clip-path="url(#pa4261b15fc)">
     <use xlink:href="#C0_0_2404e01c07" x="189.391026" y="271.230644" style="fill: #262626"/>
    </g>
    <g clip-path="url(#pa4261b15fc)">
     <use xlink:href="#C0_0_2404e01c07" x="191.618227" y="264.900289" style="fill: #262626"/>
    </g>
    <g clip-path="url(#pa4261b15fc)">
     <use xlink:href="#C0_0_2404e01c07" x="187.926196" y="259.71315" style="fill: #262626"/>
    </g>
    <g clip-path="url(#pa4261b15fc)">
     <use xlink:href="#C0_0_2404e01c07" x="181.488568" y="248.813201" style="fill: #262626"/>
    </g>
    <g clip-path="url(#pa4261b15fc)">
     <use xlink:href="#C0_0_2404e01c07" x="164.941847" y="286.904909" style="fill: #262626"/>
    </g>
    <g clip-path="url(#pa4261b15fc)">
     <use xlink:href="#C0_0_2404e01c07" x="184.581544" y="239.18553" style="fill: #262626"/>
    </g>
    <g clip-path="url(#pa4261b15fc)">
     <use xlink:href="#C0_0_2404e01c07" x="162.009379" y="242.700483" style="fill: #262626"/>
    </g>
    <g clip-path="url(#pa4261b15fc)">
     <use xlink:href="#C0_0_2404e01c07" x="179.798602" y="269.850257" style="fill: #262626"/>
    </g>
    <g clip-path="url(#pa4261b15fc)">
     <use xlink:href="#C0_0_2404e01c07" x="164.480058" y="254.908084" style="fill: #262626"/>
    </g>
    <g clip-path="url(#pa4261b15fc)">
     <use xlink:href="#C0_0_2404e01c07" x="164.863758" y="249.185302" style="fill: #262626"/>
    </g>
    <g clip-path="url(#pa4261b15fc)">
     <use xlink:href="#C0_0_2404e01c07" x="191.116385" y="264.164225" style="fill: #262626"/>
    </g>
    <g clip-path="url(#pa4261b15fc)">
     <use xlink:href="#C0_0_2404e01c07" x="195.963859" y="258.252892" style="fill: #262626"/>
    </g>
    <g clip-path="url(#pa4261b15fc)">
     <use xlink:href="#C0_0_2404e01c07" x="192.59681" y="257.945264" style="fill: #262626"/>
    </g>
    <g clip-path="url(#pa4261b15fc)">
     <use xlink:href="#C0_0_2404e01c07" x="187.431192" y="267.691937" style="fill: #262626"/>
    </g>
    <g clip-path="url(#pa4261b15fc)">
     <use xlink:href="#C0_0_2404e01c07" x="192.487291" y="274.176333" style="fill: #262626"/>
    </g>
   </g>
   <g id="PathCollection_4">
    <defs>
     <path id="C1_0_e976b37ed7" d="M 0 1 
C 0.265203 1 0.51958 0.894634 0.707107 0.707107 
C 0.894634 0.51958 1 0.265203 1 -0 
C 1 -0.265203 0.894634 -0.51958 0.707107 -0.707107 
C 0.51958 -0.894634 0.265203 -1 0 -1 
C -0.265203 -1 -0.51958 -0.894634 -0.707107 -0.707107 
C -0.894634 -0.51958 -1 -0.265203 -1 0 
C -1 0.265203 -0.894634 0.51958 -0.707107 0.707107 
C -0.51958 0.894634 -0.265203 1 0 1 
z
"/>
    </defs>
    <g clip-path="url(#pa4261b15fc)">
     <use xlink:href="#C1_0_e976b37ed7" x="325.945585" y="93.976744"/>
    </g>
    <g clip-path="url(#pa4261b15fc)">
     <use xlink:href="#C1_0_e976b37ed7" x="336.392988" y="261.952971"/>
    </g>
    <g clip-path="url(#pa4261b15fc)">
     <use xlink:href="#C1_0_e976b37ed7" x="349.146274" y="114.57666"/>
    </g>
    <g clip-path="url(#pa4261b15fc)">
     <use xlink:href="#C1_0_e976b37ed7" x="326.893177" y="130.279138"/>
    </g>
    <g clip-path="url(#pa4261b15fc)">
     <use xlink:href="#C1_0_e976b37ed7" x="327.179953" y="231.889526"/>
    </g>
    <g clip-path="url(#pa4261b15fc)">
     <use xlink:href="#C1_0_e976b37ed7" x="333.786217" y="84.596886"/>
    </g>
    <g clip-path="url(#pa4261b15fc)">
     <use xlink:href="#C1_0_e976b37ed7" x="349.794718" y="116.069299"/>
    </g>
    <g clip-path="url(#pa4261b15fc)">
     <use xlink:href="#C1_0_e976b37ed7" x="335.101144" y="208.076392"/>
    </g>
    <g clip-path="url(#pa4261b15fc)">
     <use xlink:href="#C1_0_e976b37ed7" x="321.1631" y="221.636814"/>
    </g>
    <g clip-path="url(#pa4261b15fc)">
     <use xlink:href="#C1_0_e976b37ed7" x="344.408384" y="263.409485"/>
    </g>
    <g clip-path="url(#pa4261b15fc)">
     <use xlink:href="#C1_0_e976b37ed7" x="327.527178" y="124.443215"/>
    </g>
    <g clip-path="url(#pa4261b15fc)">
     <use xlink:href="#C1_0_e976b37ed7" x="345.189521" y="242.746324"/>
    </g>
    <g clip-path="url(#pa4261b15fc)">
     <use xlink:href="#C1_0_e976b37ed7" x="334.770415" y="246.395034"/>
    </g>
    <g clip-path="url(#pa4261b15fc)">
     <use xlink:href="#C1_0_e976b37ed7" x="336.797905" y="268.569825"/>
    </g>
    <g clip-path="url(#pa4261b15fc)">
     <use xlink:href="#C1_0_e976b37ed7" x="328.948342" y="263.347728"/>
    </g>
    <g clip-path="url(#pa4261b15fc)">
     <use xlink:href="#C1_0_e976b37ed7" x="344.550863" y="246.711623"/>
    </g>
    <g clip-path="url(#pa4261b15fc)">
     <use xlink:href="#C1_0_e976b37ed7" x="336.994821" y="229.735837"/>
    </g>
    <g clip-path="url(#pa4261b15fc)">
     <use xlink:href="#C1_0_e976b37ed7" x="348.129676" y="229.42215"/>
    </g>
    <g clip-path="url(#pa4261b15fc)">
     <use xlink:href="#C1_0_e976b37ed7" x="334.767628" y="47.300935"/>
    </g>
    <g clip-path="url(#pa4261b15fc)">
     <use xlink:href="#C1_0_e976b37ed7" x="340.987479" y="261.725436"/>
    </g>
    <g clip-path="url(#pa4261b15fc)">
     <use xlink:href="#C1_0_e976b37ed7" x="330.470845" y="234.145207"/>
    </g>
    <g clip-path="url(#pa4261b15fc)">
     <use xlink:href="#C1_0_e976b37ed7" x="351.190167" y="239.395006"/>
    </g>
    <g clip-path="url(#pa4261b15fc)">
     <use xlink:href="#C1_0_e976b37ed7" x="349.795775" y="249.491666"/>
    </g>
    <g clip-path="url(#pa4261b15fc)">
     <use xlink:href="#C1_0_e976b37ed7" x="352.505115" y="244.96534"/>
    </g>
    <g clip-path="url(#pa4261b15fc)">
     <use xlink:href="#C1_0_e976b37ed7" x="346.871723" y="245.262149"/>
    </g>
    <g clip-path="url(#pa4261b15fc)">
     <use xlink:href="#C1_0_e976b37ed7" x="335.861564" y="187.688223"/>
    </g>
    <g clip-path="url(#pa4261b15fc)">
     <use xlink:href="#C1_0_e976b37ed7" x="332.29029" y="233.19911"/>
    </g>
    <g clip-path="url(#pa4261b15fc)">
     <use xlink:href="#C1_0_e976b37ed7" x="323.53344" y="245.075849"/>
    </g>
    <g clip-path="url(#pa4261b15fc)">
     <use xlink:href="#C1_0_e976b37ed7" x="346.615345" y="213.672507"/>
    </g>
    <g clip-path="url(#pa4261b15fc)">
     <use xlink:href="#C1_0_e976b37ed7" x="341.554125" y="201.227019"/>
    </g>
    <g clip-path="url(#pa4261b15fc)">
     <use xlink:href="#C1_0_e976b37ed7" x="333.61151" y="258.687191"/>
    </g>
    <g clip-path="url(#pa4261b15fc)">
     <use xlink:href="#C1_0_e976b37ed7" x="319.380614" y="250.693073"/>
    </g>
    <g clip-path="url(#pa4261b15fc)">
     <use xlink:href="#C1_0_e976b37ed7" x="325.306555" y="264.02556"/>
    </g>
    <g clip-path="url(#pa4261b15fc)">
     <use xlink:href="#C1_0_e976b37ed7" x="331.880349" y="230.888695"/>
    </g>
    <g clip-path="url(#pa4261b15fc)">
     <use xlink:href="#C1_0_e976b37ed7" x="342.455512" y="109.239573"/>
    </g>
    <g clip-path="url(#pa4261b15fc)">
     <use xlink:href="#C1_0_e976b37ed7" x="351.886977" y="246.355361"/>
    </g>
    <g clip-path="url(#pa4261b15fc)">
     <use xlink:href="#C1_0_e976b37ed7" x="351.254055" y="236.574452"/>
    </g>
    <g clip-path="url(#pa4261b15fc)">
     <use xlink:href="#C1_0_e976b37ed7" x="351.614856" y="111.393055"/>
    </g>
    <g clip-path="url(#pa4261b15fc)">
     <use xlink:href="#C1_0_e976b37ed7" x="321.442629" y="253.191355"/>
    </g>
    <g clip-path="url(#pa4261b15fc)">
     <use xlink:href="#C1_0_e976b37ed7" x="336.274232" y="37.824754"/>
    </g>
    <g clip-path="url(#pa4261b15fc)">
     <use xlink:href="#C1_0_e976b37ed7" x="344.628064" y="83.726242"/>
    </g>
    <g clip-path="url(#pa4261b15fc)">
     <use xlink:href="#C1_0_e976b37ed7" x="330.139063" y="83.655996"/>
    </g>
    <g clip-path="url(#pa4261b15fc)">
     <use xlink:href="#C1_0_e976b37ed7" x="346.927431" y="210.63734"/>
    </g>
    <g clip-path="url(#pa4261b15fc)">
     <use xlink:href="#C1_0_e976b37ed7" x="322.602172" y="239.24034"/>
    </g>
    <g clip-path="url(#pa4261b15fc)">
     <use xlink:href="#C1_0_e976b37ed7" x="321.510878" y="44.242975"/>
    </g>
    <g clip-path="url(#pa4261b15fc)">
     <use xlink:href="#C1_0_e976b37ed7" x="335.475869" y="221.114979"/>
    </g>
    <g clip-path="url(#pa4261b15fc)">
     <use xlink:href="#C1_0_e976b37ed7" x="332.039373" y="45.123198"/>
    </g>
    <g clip-path="url(#pa4261b15fc)">
     <use xlink:href="#C1_0_e976b37ed7" x="347.82908" y="237.3371"/>
    </g>
    <g clip-path="url(#pa4261b15fc)">
     <use xlink:href="#C1_0_e976b37ed7" x="320.253872" y="84.890144"/>
    </g>
    <g clip-path="url(#pa4261b15fc)">
     <use xlink:href="#C1_0_e976b37ed7" x="328.530671" y="138.410799"/>
    </g>
    <g clip-path="url(#pa4261b15fc)">
     <use xlink:href="#C1_0_e976b37ed7" x="326.180234" y="92.379328"/>
    </g>
    <g clip-path="url(#pa4261b15fc)">
     <use xlink:href="#C1_0_e976b37ed7" x="349.458525" y="203.421567"/>
    </g>
    <g clip-path="url(#pa4261b15fc)">
     <use xlink:href="#C1_0_e976b37ed7" x="328.437151" y="56.400332"/>
    </g>
    <g clip-path="url(#pa4261b15fc)">
     <use xlink:href="#C1_0_e976b37ed7" x="338.98758" y="65.923919"/>
    </g>
    <g clip-path="url(#pa4261b15fc)">
     <use xlink:href="#C1_0_e976b37ed7" x="346.131309" y="129.845005"/>
    </g>
    <g clip-path="url(#pa4261b15fc)">
     <use xlink:href="#C1_0_e976b37ed7" x="324.336072" y="247.12364"/>
    </g>
    <g clip-path="url(#pa4261b15fc)">
     <use xlink:href="#C1_0_e976b37ed7" x="336.931132" y="121.885565"/>
    </g>
    <g clip-path="url(#pa4261b15fc)">
     <use xlink:href="#C1_0_e976b37ed7" x="343.645746" y="249.436878"/>
    </g>
    <g clip-path="url(#pa4261b15fc)">
     <use xlink:href="#C1_0_e976b37ed7" x="327.932849" y="232.262953"/>
    </g>
    <g clip-path="url(#pa4261b15fc)">
     <use xlink:href="#C1_0_e976b37ed7" x="324.24589" y="244.441888"/>
    </g>
   </g>
   <g id="text_11">
    <!-- 108 -->
    <g style="fill: #262626" transform="translate(198.821312 303.624206)scale(0.1 -0.1)">
     <defs>
      <path id="DejaVuSans-38" d="M 2034 2216 
Q 1584 2216 1326 1975 
Q 1069 1734 1069 1313 
Q 1069 891 1326 650 
Q 1584 409 2034 409 
Q 2484 409 2743 651 
Q 3003 894 3003 1313 
Q 3003 1734 2745 1975 
Q 2488 2216 2034 2216 
z
M 1403 2484 
Q 997 2584 770 2862 
Q 544 3141 544 3541 
Q 544 4100 942 4425 
Q 1341 4750 2034 4750 
Q 2731 4750 3128 4425 
Q 3525 4100 3525 3541 
Q 3525 3141 3298 2862 
Q 3072 2584 2669 2484 
Q 3125 2378 3379 2068 
Q 3634 1759 3634 1313 
Q 3634 634 3220 271 
Q 2806 -91 2034 -91 
Q 1263 -91 848 271 
Q 434 634 434 1313 
Q 434 1759 690 2068 
Q 947 2378 1403 2484 
z
M 1172 3481 
Q 1172 3119 1398 2916 
Q 1625 2713 2034 2713 
Q 2441 2713 2670 2916 
Q 2900 3119 2900 3481 
Q 2900 3844 2670 4047 
Q 2441 4250 2034 4250 
Q 1625 4250 1398 4047 
Q 1172 3844 1172 3481 
z
" transform="scale(0.015625)"/>
     </defs>
     <use xlink:href="#DejaVuSans-31"/>
     <use xlink:href="#DejaVuSans-30" x="63.623047"/>
     <use xlink:href="#DejaVuSans-38" x="127.246094"/>
    </g>
   </g>
   <g id="text_12">
    <!-- p=4.4030526032651014e-16 -->
    <g style="fill: #262626" transform="translate(139.399437 180.86647)scale(0.08 -0.08)">
     <defs>
      <path id="DejaVuSans-70" d="M 1159 525 
L 1159 -1331 
L 581 -1331 
L 581 3500 
L 1159 3500 
L 1159 2969 
Q 1341 3281 1617 3432 
Q 1894 3584 2278 3584 
Q 2916 3584 3314 3078 
Q 3713 2572 3713 1747 
Q 3713 922 3314 415 
Q 2916 -91 2278 -91 
Q 1894 -91 1617 61 
Q 1341 213 1159 525 
z
M 3116 1747 
Q 3116 2381 2855 2742 
Q 2594 3103 2138 3103 
Q 1681 3103 1420 2742 
Q 1159 2381 1159 1747 
Q 1159 1113 1420 752 
Q 1681 391 2138 391 
Q 2594 391 2855 752 
Q 3116 1113 3116 1747 
z
" transform="scale(0.015625)"/>
      <path id="DejaVuSans-3d" d="M 678 2906 
L 4684 2906 
L 4684 2381 
L 678 2381 
L 678 2906 
z
M 678 1631 
L 4684 1631 
L 4684 1100 
L 678 1100 
L 678 1631 
z
" transform="scale(0.015625)"/>
      <path id="DejaVuSans-34" d="M 2419 4116 
L 825 1625 
L 2419 1625 
L 2419 4116 
z
M 2253 4666 
L 3047 4666 
L 3047 1625 
L 3713 1625 
L 3713 1100 
L 3047 1100 
L 3047 0 
L 2419 0 
L 2419 1100 
L 313 1100 
L 313 1709 
L 2253 4666 
z
" transform="scale(0.015625)"/>
      <path id="DejaVuSans-2e" d="M 684 794 
L 1344 794 
L 1344 0 
L 684 0 
L 684 794 
z
" transform="scale(0.015625)"/>
      <path id="DejaVuSans-36" d="M 2113 2584 
Q 1688 2584 1439 2293 
Q 1191 2003 1191 1497 
Q 1191 994 1439 701 
Q 1688 409 2113 409 
Q 2538 409 2786 701 
Q 3034 994 3034 1497 
Q 3034 2003 2786 2293 
Q 2538 2584 2113 2584 
z
M 3366 4563 
L 3366 3988 
Q 3128 4100 2886 4159 
Q 2644 4219 2406 4219 
Q 1781 4219 1451 3797 
Q 1122 3375 1075 2522 
Q 1259 2794 1537 2939 
Q 1816 3084 2150 3084 
Q 2853 3084 3261 2657 
Q 3669 2231 3669 1497 
Q 3669 778 3244 343 
Q 2819 -91 2113 -91 
Q 1303 -91 875 529 
Q 447 1150 447 2328 
Q 447 3434 972 4092 
Q 1497 4750 2381 4750 
Q 2619 4750 2861 4703 
Q 3103 4656 3366 4563 
z
" transform="scale(0.015625)"/>
      <path id="DejaVuSans-2d" d="M 313 2009 
L 1997 2009 
L 1997 1497 
L 313 1497 
L 313 2009 
z
" transform="scale(0.015625)"/>
     </defs>
     <use xlink:href="#DejaVuSans-70"/>
     <use xlink:href="#DejaVuSans-3d" x="63.476562"/>
     <use xlink:href="#DejaVuSans-34" x="147.265625"/>
     <use xlink:href="#DejaVuSans-2e" x="210.888672"/>
     <use xlink:href="#DejaVuSans-34" x="242.675781"/>
     <use xlink:href="#DejaVuSans-30" x="306.298828"/>
     <use xlink:href="#DejaVuSans-33" x="369.921875"/>
     <use xlink:href="#DejaVuSans-30" x="433.544922"/>
     <use xlink:href="#DejaVuSans-35" x="497.167969"/>
     <use xlink:href="#DejaVuSans-32" x="560.791016"/>
     <use xlink:href="#DejaVuSans-36" x="624.414062"/>
     <use xlink:href="#DejaVuSans-30" x="688.037109"/>
     <use xlink:href="#DejaVuSans-33" x="751.660156"/>
     <use xlink:href="#DejaVuSans-32" x="815.283203"/>
     <use xlink:href="#DejaVuSans-36" x="878.90625"/>
     <use xlink:href="#DejaVuSans-35" x="942.529297"/>
     <use xlink:href="#DejaVuSans-31" x="1006.152344"/>
     <use xlink:href="#DejaVuSans-30" x="1069.775391"/>
     <use xlink:href="#DejaVuSans-31" x="1133.398438"/>
     <use xlink:href="#DejaVuSans-34" x="1197.021484"/>
     <use xlink:href="#DejaVuSans-65" x="1260.644531"/>
     <use xlink:href="#DejaVuSans-2d" x="1322.167969"/>
     <use xlink:href="#DejaVuSans-31" x="1358.251953"/>
     <use xlink:href="#DejaVuSans-36" x="1421.875"/>
    </g>
   </g>
   <g id="text_13">
    <!-- 60 -->
    <g style="fill: #262626" transform="translate(314.749937 303.624206)scale(0.1 -0.1)">
     <use xlink:href="#DejaVuSans-36"/>
     <use xlink:href="#DejaVuSans-30" x="63.623047"/>
    </g>
   </g>
   <g id="legend_1">
    <g id="patch_11">
     <path d="M 377.728125 27.841667 
L 397.728125 27.841667 
L 397.728125 20.841667 
L 377.728125 20.841667 
z
" style="fill: #ecf2ec; stroke: #262626; stroke-width: 0.75; stroke-linejoin: miter"/>
    </g>
    <g id="text_14">
     <!-- Mutant -->
     <g style="fill: #262626" transform="translate(405.728125 27.841667)scale(0.1 -0.1)">
      <defs>
       <path id="DejaVuSans-4d" d="M 628 4666 
L 1569 4666 
L 2759 1491 
L 3956 4666 
L 4897 4666 
L 4897 0 
L 4281 0 
L 4281 4097 
L 3078 897 
L 2444 897 
L 1241 4097 
L 1241 0 
L 628 0 
L 628 4666 
z
" transform="scale(0.015625)"/>
       <path id="DejaVuSans-61" d="M 2194 1759 
Q 1497 1759 1228 1600 
Q 959 1441 959 1056 
Q 959 750 1161 570 
Q 1363 391 1709 391 
Q 2188 391 2477 730 
Q 2766 1069 2766 1631 
L 2766 1759 
L 2194 1759 
z
M 3341 1997 
L 3341 0 
L 2766 0 
L 2766 531 
Q 2569 213 2275 61 
Q 1981 -91 1556 -91 
Q 1019 -91 701 211 
Q 384 513 384 1019 
Q 384 1609 779 1909 
Q 1175 2209 1959 2209 
L 2766 2209 
L 2766 2266 
Q 2766 2663 2505 2880 
Q 2244 3097 1772 3097 
Q 1472 3097 1187 3025 
Q 903 2953 641 2809 
L 641 3341 
Q 956 3463 1253 3523 
Q 1550 3584 1831 3584 
Q 2591 3584 2966 3190 
Q 3341 2797 3341 1997 
z
" transform="scale(0.015625)"/>
      </defs>
      <use xlink:href="#DejaVuSans-4d"/>
      <use xlink:href="#DejaVuSans-75" x="86.279297"/>
      <use xlink:href="#DejaVuSans-74" x="149.658203"/>
      <use xlink:href="#DejaVuSans-61" x="188.867188"/>
      <use xlink:href="#DejaVuSans-6e" x="250.146484"/>
      <use xlink:href="#DejaVuSans-74" x="313.525391"/>
     </g>
    </g>
    <g id="patch_12">
     <path d="M 377.728125 42.519792 
L 397.728125 42.519792 
L 397.728125 35.519792 
L 377.728125 35.519792 
z
" style="fill: #107010; stroke: #262626; stroke-width: 0.75; stroke-linejoin: miter"/>
    </g>
    <g id="text_15">
     <!-- WT -->
     <g style="fill: #262626" transform="translate(405.728125 42.519792)scale(0.1 -0.1)">
      <defs>
       <path id="DejaVuSans-57" d="M 213 4666 
L 850 4666 
L 1831 722 
L 2809 4666 
L 3519 4666 
L 4500 722 
L 5478 4666 
L 6119 4666 
L 4947 0 
L 4153 0 
L 3169 4050 
L 2175 0 
L 1381 0 
L 213 4666 
z
" transform="scale(0.015625)"/>
       <path id="DejaVuSans-54" d="M -19 4666 
L 3928 4666 
L 3928 4134 
L 2272 4134 
L 2272 0 
L 1638 0 
L 1638 4134 
L -19 4134 
L -19 4666 
z
" transform="scale(0.015625)"/>
      </defs>
      <use xlink:href="#DejaVuSans-57"/>
      <use xlink:href="#DejaVuSans-54" x="98.876953"/>
     </g>
    </g>
   </g>
  </g>
 </g>
 <defs>
  <clipPath id="pa4261b15fc">
   <rect x="63.57125" y="11.243229" width="386.42875" height="292.396771"/>
  </clipPath>
 </defs>
</svg>
