<?xml version="1.0" encoding="utf-8" standalone="no"?>
<!DOCTYPE svg PUBLIC "-//W3C//DTD SVG 1.1//EN"
  "http://www.w3.org/Graphics/SVG/1.1/DTD/svg11.dtd">
<svg xmlns:xlink="http://www.w3.org/1999/xlink" width="460.8pt" height="345.6pt" viewBox="0 0 460.8 345.6" xmlns="http://www.w3.org/2000/svg" version="1.1">
 <metadata>
  <rdf:RDF xmlns:dc="http://purl.org/dc/elements/1.1/" xmlns:cc="http://creativecommons.org/ns#" xmlns:rdf="http://www.w3.org/1999/02/22-rdf-syntax-ns#">
   <cc:Work>
    <dc:type rdf:resource="http://purl.org/dc/dcmitype/StillImage"/>
    <dc:date>2023-12-16T14:38:59.273643</dc:date>
    <dc:format>image/svg+xml</dc:format>
    <dc:creator>
     <cc:Agent>
      <dc:title>Matplotlib v3.5.3, https://matplotlib.org/</dc:title>
     </cc:Agent>
    </dc:creator>
   </cc:Work>
  </rdf:RDF>
 </metadata>
 <defs>
  <style type="text/css">*{stroke-linejoin: round; stroke-linecap: butt}</style>
 </defs>
 <g id="figure_1">
  <g id="patch_1">
   <path d="M 0 345.6 
L 460.8 345.6 
L 460.8 0 
L 0 0 
z
" style="fill: #ffffff"/>
  </g>
  <g id="axes_1">
   <g id="patch_2">
    <path d="M 47.81 303.64 
L 450 303.64 
L 450 27.353939 
L 47.81 27.353939 
z
" style="fill: #ffffff"/>
   </g>
   <g id="matplotlib.axis_1">
    <g id="xtick_1">
     <g id="text_1">
      <!-- 14F -->
      <g style="fill: #262626" transform="translate(88.845469 318.238437)scale(0.1 -0.1)">
       <defs>
        <path id="DejaVuSans-31" d="M 794 531 
L 1825 531 
L 1825 4091 
L 703 3866 
L 703 4441 
L 1819 4666 
L 2450 4666 
L 2450 531 
L 3481 531 
L 3481 0 
L 794 0 
L 794 531 
z
" transform="scale(0.015625)"/>
        <path id="DejaVuSans-34" d="M 2419 4116 
L 825 1625 
L 2419 1625 
L 2419 4116 
z
M 2253 4666 
L 3047 4666 
L 3047 1625 
L 3713 1625 
L 3713 1100 
L 3047 1100 
L 3047 0 
L 2419 0 
L 2419 1100 
L 313 1100 
L 313 1709 
L 2253 4666 
z
" transform="scale(0.015625)"/>
        <path id="DejaVuSans-46" d="M 628 4666 
L 3309 4666 
L 3309 4134 
L 1259 4134 
L 1259 2759 
L 3109 2759 
L 3109 2228 
L 1259 2228 
L 1259 0 
L 628 0 
L 628 4666 
z
" transform="scale(0.015625)"/>
       </defs>
       <use xlink:href="#DejaVuSans-31"/>
       <use xlink:href="#DejaVuSans-34" x="63.623047"/>
       <use xlink:href="#DejaVuSans-46" x="127.246094"/>
      </g>
     </g>
    </g>
    <g id="xtick_2">
     <g id="text_2">
      <!-- 4A -->
      <g style="fill: #262626" transform="translate(192.029688 318.238437)scale(0.1 -0.1)">
       <defs>
        <path id="DejaVuSans-41" d="M 2188 4044 
L 1331 1722 
L 3047 1722 
L 2188 4044 
z
M 1831 4666 
L 2547 4666 
L 4325 0 
L 3669 0 
L 3244 1197 
L 1141 1197 
L 716 0 
L 50 0 
L 1831 4666 
z
" transform="scale(0.015625)"/>
       </defs>
       <use xlink:href="#DejaVuSans-34"/>
       <use xlink:href="#DejaVuSans-41" x="63.623047"/>
      </g>
     </g>
    </g>
    <g id="xtick_3">
     <g id="text_3">
      <!-- 4Y -->
      <g style="fill: #262626" transform="translate(292.943594 318.238437)scale(0.1 -0.1)">
       <defs>
        <path id="DejaVuSans-59" d="M -13 4666 
L 666 4666 
L 1959 2747 
L 3244 4666 
L 3922 4666 
L 2272 2222 
L 2272 0 
L 1638 0 
L 1638 2222 
L -13 4666 
z
" transform="scale(0.015625)"/>
       </defs>
       <use xlink:href="#DejaVuSans-34"/>
       <use xlink:href="#DejaVuSans-59" x="63.623047"/>
      </g>
     </g>
    </g>
    <g id="xtick_4">
     <g id="text_4">
      <!-- 8A -->
      <g style="fill: #262626" transform="translate(393.124687 318.238437)scale(0.1 -0.1)">
       <defs>
        <path id="DejaVuSans-38" d="M 2034 2216 
Q 1584 2216 1326 1975 
Q 1069 1734 1069 1313 
Q 1069 891 1326 650 
Q 1584 409 2034 409 
Q 2484 409 2743 651 
Q 3003 894 3003 1313 
Q 3003 1734 2745 1975 
Q 2488 2216 2034 2216 
z
M 1403 2484 
Q 997 2584 770 2862 
Q 544 3141 544 3541 
Q 544 4100 942 4425 
Q 1341 4750 2034 4750 
Q 2731 4750 3128 4425 
Q 3525 4100 3525 3541 
Q 3525 3141 3298 2862 
Q 3072 2584 2669 2484 
Q 3125 2378 3379 2068 
Q 3634 1759 3634 1313 
Q 3634 634 3220 271 
Q 2806 -91 2034 -91 
Q 1263 -91 848 271 
Q 434 634 434 1313 
Q 434 1759 690 2068 
Q 947 2378 1403 2484 
z
M 1172 3481 
Q 1172 3119 1398 2916 
Q 1625 2713 2034 2713 
Q 2441 2713 2670 2916 
Q 2900 3119 2900 3481 
Q 2900 3844 2670 4047 
Q 2441 4250 2034 4250 
Q 1625 4250 1398 4047 
Q 1172 3844 1172 3481 
z
" transform="scale(0.015625)"/>
       </defs>
       <use xlink:href="#DejaVuSans-38"/>
       <use xlink:href="#DejaVuSans-41" x="63.623047"/>
      </g>
     </g>
    </g>
    <g id="text_5">
     <!-- pos_wtAA -->
     <g style="fill: #262626" transform="translate(224.539375 331.638437)scale(0.1 -0.1)">
      <defs>
       <path id="DejaVuSans-70" d="M 1159 525 
L 1159 -1331 
L 581 -1331 
L 581 3500 
L 1159 3500 
L 1159 2969 
Q 1341 3281 1617 3432 
Q 1894 3584 2278 3584 
Q 2916 3584 3314 3078 
Q 3713 2572 3713 1747 
Q 3713 922 3314 415 
Q 2916 -91 2278 -91 
Q 1894 -91 1617 61 
Q 1341 213 1159 525 
z
M 3116 1747 
Q 3116 2381 2855 2742 
Q 2594 3103 2138 3103 
Q 1681 3103 1420 2742 
Q 1159 2381 1159 1747 
Q 1159 1113 1420 752 
Q 1681 391 2138 391 
Q 2594 391 2855 752 
Q 3116 1113 3116 1747 
z
" transform="scale(0.015625)"/>
       <path id="DejaVuSans-6f" d="M 1959 3097 
Q 1497 3097 1228 2736 
Q 959 2375 959 1747 
Q 959 1119 1226 758 
Q 1494 397 1959 397 
Q 2419 397 2687 759 
Q 2956 1122 2956 1747 
Q 2956 2369 2687 2733 
Q 2419 3097 1959 3097 
z
M 1959 3584 
Q 2709 3584 3137 3096 
Q 3566 2609 3566 1747 
Q 3566 888 3137 398 
Q 2709 -91 1959 -91 
Q 1206 -91 779 398 
Q 353 888 353 1747 
Q 353 2609 779 3096 
Q 1206 3584 1959 3584 
z
" transform="scale(0.015625)"/>
       <path id="DejaVuSans-73" d="M 2834 3397 
L 2834 2853 
Q 2591 2978 2328 3040 
Q 2066 3103 1784 3103 
Q 1356 3103 1142 2972 
Q 928 2841 928 2578 
Q 928 2378 1081 2264 
Q 1234 2150 1697 2047 
L 1894 2003 
Q 2506 1872 2764 1633 
Q 3022 1394 3022 966 
Q 3022 478 2636 193 
Q 2250 -91 1575 -91 
Q 1294 -91 989 -36 
Q 684 19 347 128 
L 347 722 
Q 666 556 975 473 
Q 1284 391 1588 391 
Q 1994 391 2212 530 
Q 2431 669 2431 922 
Q 2431 1156 2273 1281 
Q 2116 1406 1581 1522 
L 1381 1569 
Q 847 1681 609 1914 
Q 372 2147 372 2553 
Q 372 3047 722 3315 
Q 1072 3584 1716 3584 
Q 2034 3584 2315 3537 
Q 2597 3491 2834 3397 
z
" transform="scale(0.015625)"/>
       <path id="DejaVuSans-5f" d="M 3263 -1063 
L 3263 -1509 
L -63 -1509 
L -63 -1063 
L 3263 -1063 
z
" transform="scale(0.015625)"/>
       <path id="DejaVuSans-77" d="M 269 3500 
L 844 3500 
L 1563 769 
L 2278 3500 
L 2956 3500 
L 3675 769 
L 4391 3500 
L 4966 3500 
L 4050 0 
L 3372 0 
L 2619 2869 
L 1863 0 
L 1184 0 
L 269 3500 
z
" transform="scale(0.015625)"/>
       <path id="DejaVuSans-74" d="M 1172 4494 
L 1172 3500 
L 2356 3500 
L 2356 3053 
L 1172 3053 
L 1172 1153 
Q 1172 725 1289 603 
Q 1406 481 1766 481 
L 2356 481 
L 2356 0 
L 1766 0 
Q 1100 0 847 248 
Q 594 497 594 1153 
L 594 3053 
L 172 3053 
L 172 3500 
L 594 3500 
L 594 4494 
L 1172 4494 
z
" transform="scale(0.015625)"/>
      </defs>
      <use xlink:href="#DejaVuSans-70"/>
      <use xlink:href="#DejaVuSans-6f" x="63.476562"/>
      <use xlink:href="#DejaVuSans-73" x="124.658203"/>
      <use xlink:href="#DejaVuSans-5f" x="176.757812"/>
      <use xlink:href="#DejaVuSans-77" x="226.757812"/>
      <use xlink:href="#DejaVuSans-74" x="308.544922"/>
      <use xlink:href="#DejaVuSans-41" x="347.753906"/>
      <use xlink:href="#DejaVuSans-41" x="418.912109"/>
     </g>
    </g>
   </g>
   <g id="matplotlib.axis_2">
    <g id="ytick_1">
     <g id="line2d_1">
      <path d="M 47.81 303.64 
L 450 303.64 
" clip-path="url(#p45c532d048)" style="fill: none; stroke: #cccccc; stroke-width: 0.8; stroke-linecap: round"/>
     </g>
     <g id="text_6">
      <!-- 0.0 -->
      <g style="fill: #262626" transform="translate(24.906875 307.439219)scale(0.1 -0.1)">
       <defs>
        <path id="DejaVuSans-30" d="M 2034 4250 
Q 1547 4250 1301 3770 
Q 1056 3291 1056 2328 
Q 1056 1369 1301 889 
Q 1547 409 2034 409 
Q 2525 409 2770 889 
Q 3016 1369 3016 2328 
Q 3016 3291 2770 3770 
Q 2525 4250 2034 4250 
z
M 2034 4750 
Q 2819 4750 3233 4129 
Q 3647 3509 3647 2328 
Q 3647 1150 3233 529 
Q 2819 -91 2034 -91 
Q 1250 -91 836 529 
Q 422 1150 422 2328 
Q 422 3509 836 4129 
Q 1250 4750 2034 4750 
z
" transform="scale(0.015625)"/>
        <path id="DejaVuSans-2e" d="M 684 794 
L 1344 794 
L 1344 0 
L 684 0 
L 684 794 
z
" transform="scale(0.015625)"/>
       </defs>
       <use xlink:href="#DejaVuSans-30"/>
       <use xlink:href="#DejaVuSans-2e" x="63.623047"/>
       <use xlink:href="#DejaVuSans-30" x="95.410156"/>
      </g>
     </g>
    </g>
    <g id="ytick_2">
     <g id="line2d_2">
      <path d="M 47.81 269.104242 
L 450 269.104242 
" clip-path="url(#p45c532d048)" style="fill: none; stroke: #cccccc; stroke-width: 0.8; stroke-linecap: round"/>
     </g>
     <g id="text_7">
      <!-- 0.2 -->
      <g style="fill: #262626" transform="translate(24.906875 272.903461)scale(0.1 -0.1)">
       <defs>
        <path id="DejaVuSans-32" d="M 1228 531 
L 3431 531 
L 3431 0 
L 469 0 
L 469 531 
Q 828 903 1448 1529 
Q 2069 2156 2228 2338 
Q 2531 2678 2651 2914 
Q 2772 3150 2772 3378 
Q 2772 3750 2511 3984 
Q 2250 4219 1831 4219 
Q 1534 4219 1204 4116 
Q 875 4013 500 3803 
L 500 4441 
Q 881 4594 1212 4672 
Q 1544 4750 1819 4750 
Q 2544 4750 2975 4387 
Q 3406 4025 3406 3419 
Q 3406 3131 3298 2873 
Q 3191 2616 2906 2266 
Q 2828 2175 2409 1742 
Q 1991 1309 1228 531 
z
" transform="scale(0.015625)"/>
       </defs>
       <use xlink:href="#DejaVuSans-30"/>
       <use xlink:href="#DejaVuSans-2e" x="63.623047"/>
       <use xlink:href="#DejaVuSans-32" x="95.410156"/>
      </g>
     </g>
    </g>
    <g id="ytick_3">
     <g id="line2d_3">
      <path d="M 47.81 234.568485 
L 450 234.568485 
" clip-path="url(#p45c532d048)" style="fill: none; stroke: #cccccc; stroke-width: 0.8; stroke-linecap: round"/>
     </g>
     <g id="text_8">
      <!-- 0.4 -->
      <g style="fill: #262626" transform="translate(24.906875 238.367704)scale(0.1 -0.1)">
       <use xlink:href="#DejaVuSans-30"/>
       <use xlink:href="#DejaVuSans-2e" x="63.623047"/>
       <use xlink:href="#DejaVuSans-34" x="95.410156"/>
      </g>
     </g>
    </g>
    <g id="ytick_4">
     <g id="line2d_4">
      <path d="M 47.81 200.032727 
L 450 200.032727 
" clip-path="url(#p45c532d048)" style="fill: none; stroke: #cccccc; stroke-width: 0.8; stroke-linecap: round"/>
     </g>
     <g id="text_9">
      <!-- 0.6 -->
      <g style="fill: #262626" transform="translate(24.906875 203.831946)scale(0.1 -0.1)">
       <defs>
        <path id="DejaVuSans-36" d="M 2113 2584 
Q 1688 2584 1439 2293 
Q 1191 2003 1191 1497 
Q 1191 994 1439 701 
Q 1688 409 2113 409 
Q 2538 409 2786 701 
Q 3034 994 3034 1497 
Q 3034 2003 2786 2293 
Q 2538 2584 2113 2584 
z
M 3366 4563 
L 3366 3988 
Q 3128 4100 2886 4159 
Q 2644 4219 2406 4219 
Q 1781 4219 1451 3797 
Q 1122 3375 1075 2522 
Q 1259 2794 1537 2939 
Q 1816 3084 2150 3084 
Q 2853 3084 3261 2657 
Q 3669 2231 3669 1497 
Q 3669 778 3244 343 
Q 2819 -91 2113 -91 
Q 1303 -91 875 529 
Q 447 1150 447 2328 
Q 447 3434 972 4092 
Q 1497 4750 2381 4750 
Q 2619 4750 2861 4703 
Q 3103 4656 3366 4563 
z
" transform="scale(0.015625)"/>
       </defs>
       <use xlink:href="#DejaVuSans-30"/>
       <use xlink:href="#DejaVuSans-2e" x="63.623047"/>
       <use xlink:href="#DejaVuSans-36" x="95.410156"/>
      </g>
     </g>
    </g>
    <g id="ytick_5">
     <g id="line2d_5">
      <path d="M 47.81 165.49697 
L 450 165.49697 
" clip-path="url(#p45c532d048)" style="fill: none; stroke: #cccccc; stroke-width: 0.8; stroke-linecap: round"/>
     </g>
     <g id="text_10">
      <!-- 0.8 -->
      <g style="fill: #262626" transform="translate(24.906875 169.296188)scale(0.1 -0.1)">
       <use xlink:href="#DejaVuSans-30"/>
       <use xlink:href="#DejaVuSans-2e" x="63.623047"/>
       <use xlink:href="#DejaVuSans-38" x="95.410156"/>
      </g>
     </g>
    </g>
    <g id="ytick_6">
     <g id="line2d_6">
      <path d="M 47.81 130.961212 
L 450 130.961212 
" clip-path="url(#p45c532d048)" style="fill: none; stroke: #cccccc; stroke-width: 0.8; stroke-linecap: round"/>
     </g>
     <g id="text_11">
      <!-- 1.0 -->
      <g style="fill: #262626" transform="translate(24.906875 134.760431)scale(0.1 -0.1)">
       <use xlink:href="#DejaVuSans-31"/>
       <use xlink:href="#DejaVuSans-2e" x="63.623047"/>
       <use xlink:href="#DejaVuSans-30" x="95.410156"/>
      </g>
     </g>
    </g>
    <g id="ytick_7">
     <g id="line2d_7">
      <path d="M 47.81 96.425455 
L 450 96.425455 
" clip-path="url(#p45c532d048)" style="fill: none; stroke: #cccccc; stroke-width: 0.8; stroke-linecap: round"/>
     </g>
     <g id="text_12">
      <!-- 1.2 -->
      <g style="fill: #262626" transform="translate(24.906875 100.224673)scale(0.1 -0.1)">
       <use xlink:href="#DejaVuSans-31"/>
       <use xlink:href="#DejaVuSans-2e" x="63.623047"/>
       <use xlink:href="#DejaVuSans-32" x="95.410156"/>
      </g>
     </g>
    </g>
    <g id="ytick_8">
     <g id="line2d_8">
      <path d="M 47.81 61.889697 
L 450 61.889697 
" clip-path="url(#p45c532d048)" style="fill: none; stroke: #cccccc; stroke-width: 0.8; stroke-linecap: round"/>
     </g>
     <g id="text_13">
      <!-- 1.4 -->
      <g style="fill: #262626" transform="translate(24.906875 65.688916)scale(0.1 -0.1)">
       <use xlink:href="#DejaVuSans-31"/>
       <use xlink:href="#DejaVuSans-2e" x="63.623047"/>
       <use xlink:href="#DejaVuSans-34" x="95.410156"/>
      </g>
     </g>
    </g>
    <g id="ytick_9">
     <g id="line2d_9">
      <path d="M 47.81 27.353939 
L 450 27.353939 
" clip-path="url(#p45c532d048)" style="fill: none; stroke: #cccccc; stroke-width: 0.8; stroke-linecap: round"/>
     </g>
     <g id="text_14">
      <!-- 1.6 -->
      <g style="fill: #262626" transform="translate(24.906875 31.153158)scale(0.1 -0.1)">
       <use xlink:href="#DejaVuSans-31"/>
       <use xlink:href="#DejaVuSans-2e" x="63.623047"/>
       <use xlink:href="#DejaVuSans-36" x="95.410156"/>
      </g>
     </g>
    </g>
    <g id="text_15">
     <!-- PercentGpA -->
     <g style="fill: #262626" transform="translate(18.827187 194.773532)rotate(-90)scale(0.1 -0.1)">
      <defs>
       <path id="DejaVuSans-50" d="M 1259 4147 
L 1259 2394 
L 2053 2394 
Q 2494 2394 2734 2622 
Q 2975 2850 2975 3272 
Q 2975 3691 2734 3919 
Q 2494 4147 2053 4147 
L 1259 4147 
z
M 628 4666 
L 2053 4666 
Q 2838 4666 3239 4311 
Q 3641 3956 3641 3272 
Q 3641 2581 3239 2228 
Q 2838 1875 2053 1875 
L 1259 1875 
L 1259 0 
L 628 0 
L 628 4666 
z
" transform="scale(0.015625)"/>
       <path id="DejaVuSans-65" d="M 3597 1894 
L 3597 1613 
L 953 1613 
Q 991 1019 1311 708 
Q 1631 397 2203 397 
Q 2534 397 2845 478 
Q 3156 559 3463 722 
L 3463 178 
Q 3153 47 2828 -22 
Q 2503 -91 2169 -91 
Q 1331 -91 842 396 
Q 353 884 353 1716 
Q 353 2575 817 3079 
Q 1281 3584 2069 3584 
Q 2775 3584 3186 3129 
Q 3597 2675 3597 1894 
z
M 3022 2063 
Q 3016 2534 2758 2815 
Q 2500 3097 2075 3097 
Q 1594 3097 1305 2825 
Q 1016 2553 972 2059 
L 3022 2063 
z
" transform="scale(0.015625)"/>
       <path id="DejaVuSans-72" d="M 2631 2963 
Q 2534 3019 2420 3045 
Q 2306 3072 2169 3072 
Q 1681 3072 1420 2755 
Q 1159 2438 1159 1844 
L 1159 0 
L 581 0 
L 581 3500 
L 1159 3500 
L 1159 2956 
Q 1341 3275 1631 3429 
Q 1922 3584 2338 3584 
Q 2397 3584 2469 3576 
Q 2541 3569 2628 3553 
L 2631 2963 
z
" transform="scale(0.015625)"/>
       <path id="DejaVuSans-63" d="M 3122 3366 
L 3122 2828 
Q 2878 2963 2633 3030 
Q 2388 3097 2138 3097 
Q 1578 3097 1268 2742 
Q 959 2388 959 1747 
Q 959 1106 1268 751 
Q 1578 397 2138 397 
Q 2388 397 2633 464 
Q 2878 531 3122 666 
L 3122 134 
Q 2881 22 2623 -34 
Q 2366 -91 2075 -91 
Q 1284 -91 818 406 
Q 353 903 353 1747 
Q 353 2603 823 3093 
Q 1294 3584 2113 3584 
Q 2378 3584 2631 3529 
Q 2884 3475 3122 3366 
z
" transform="scale(0.015625)"/>
       <path id="DejaVuSans-6e" d="M 3513 2113 
L 3513 0 
L 2938 0 
L 2938 2094 
Q 2938 2591 2744 2837 
Q 2550 3084 2163 3084 
Q 1697 3084 1428 2787 
Q 1159 2491 1159 1978 
L 1159 0 
L 581 0 
L 581 3500 
L 1159 3500 
L 1159 2956 
Q 1366 3272 1645 3428 
Q 1925 3584 2291 3584 
Q 2894 3584 3203 3211 
Q 3513 2838 3513 2113 
z
" transform="scale(0.015625)"/>
       <path id="DejaVuSans-47" d="M 3809 666 
L 3809 1919 
L 2778 1919 
L 2778 2438 
L 4434 2438 
L 4434 434 
Q 4069 175 3628 42 
Q 3188 -91 2688 -91 
Q 1594 -91 976 548 
Q 359 1188 359 2328 
Q 359 3472 976 4111 
Q 1594 4750 2688 4750 
Q 3144 4750 3555 4637 
Q 3966 4525 4313 4306 
L 4313 3634 
Q 3963 3931 3569 4081 
Q 3175 4231 2741 4231 
Q 1884 4231 1454 3753 
Q 1025 3275 1025 2328 
Q 1025 1384 1454 906 
Q 1884 428 2741 428 
Q 3075 428 3337 486 
Q 3600 544 3809 666 
z
" transform="scale(0.015625)"/>
      </defs>
      <use xlink:href="#DejaVuSans-50"/>
      <use xlink:href="#DejaVuSans-65" x="56.677734"/>
      <use xlink:href="#DejaVuSans-72" x="118.201172"/>
      <use xlink:href="#DejaVuSans-63" x="157.064453"/>
      <use xlink:href="#DejaVuSans-65" x="212.044922"/>
      <use xlink:href="#DejaVuSans-6e" x="273.568359"/>
      <use xlink:href="#DejaVuSans-74" x="336.947266"/>
      <use xlink:href="#DejaVuSans-47" x="376.15625"/>
      <use xlink:href="#DejaVuSans-70" x="453.646484"/>
      <use xlink:href="#DejaVuSans-41" x="517.123047"/>
     </g>
    </g>
   </g>
   <g id="patch_3">
    <path d="M 58.26694 253.98913 
L 97.68156 253.98913 
L 97.68156 230.468068 
L 58.26694 230.468068 
L 58.26694 253.98913 
z
" clip-path="url(#p45c532d048)" style="fill: #ecf2ec; stroke: #262626; stroke-width: 1.5; stroke-linejoin: miter"/>
   </g>
   <g id="patch_4">
    <path d="M 98.48594 269.146973 
L 137.90056 269.146973 
L 137.90056 258.079093 
L 98.48594 258.079093 
L 98.48594 269.146973 
z
" clip-path="url(#p45c532d048)" style="fill: #107010; stroke: #262626; stroke-width: 1.5; stroke-linejoin: miter"/>
   </g>
   <g id="patch_5">
    <path d="M 158.81444 268.179219 
L 198.22906 268.179219 
L 198.22906 259.735326 
L 158.81444 259.735326 
L 158.81444 268.179219 
z
" clip-path="url(#p45c532d048)" style="fill: #ecf2ec; stroke: #262626; stroke-width: 1.5; stroke-linejoin: miter"/>
   </g>
   <g id="patch_6">
    <path d="M 199.03344 258.486906 
L 238.44806 258.486906 
L 238.44806 244.516118 
L 199.03344 244.516118 
L 199.03344 258.486906 
z
" clip-path="url(#p45c532d048)" style="fill: #107010; stroke: #262626; stroke-width: 1.5; stroke-linejoin: miter"/>
   </g>
   <g id="patch_7">
    <path d="M 259.36194 241.49215 
L 298.77656 241.49215 
L 298.77656 229.953606 
L 259.36194 229.953606 
L 259.36194 241.49215 
z
" clip-path="url(#p45c532d048)" style="fill: #ecf2ec; stroke: #262626; stroke-width: 1.5; stroke-linejoin: miter"/>
   </g>
   <g id="patch_8">
    <path d="M 299.58094 259.20311 
L 338.99556 259.20311 
L 338.99556 250.396297 
L 299.58094 250.396297 
L 299.58094 259.20311 
z
" clip-path="url(#p45c532d048)" style="fill: #107010; stroke: #262626; stroke-width: 1.5; stroke-linejoin: miter"/>
   </g>
   <g id="patch_9">
    <path d="M 359.90944 273.145214 
L 399.32406 273.145214 
L 399.32406 253.116449 
L 359.90944 253.116449 
L 359.90944 273.145214 
z
" clip-path="url(#p45c532d048)" style="fill: #ecf2ec; stroke: #262626; stroke-width: 1.5; stroke-linejoin: miter"/>
   </g>
   <g id="patch_10">
    <path d="M 400.12844 243.112766 
L 439.54306 243.112766 
L 439.54306 240.329247 
L 400.12844 240.329247 
L 400.12844 243.112766 
z
" clip-path="url(#p45c532d048)" style="fill: #107010; stroke: #262626; stroke-width: 1.5; stroke-linejoin: miter"/>
   </g>
   <g id="patch_11">
    <path d="M 98.08375 303.64 
L 98.08375 303.64 
L 98.08375 303.64 
L 98.08375 303.64 
z
" clip-path="url(#p45c532d048)" style="fill: #ecf2ec; stroke: #262626; stroke-width: 0.75; stroke-linejoin: miter"/>
   </g>
   <g id="patch_12">
    <path d="M 98.08375 303.64 
L 98.08375 303.64 
L 98.08375 303.64 
L 98.08375 303.64 
z
" clip-path="url(#p45c532d048)" style="fill: #107010; stroke: #262626; stroke-width: 0.75; stroke-linejoin: miter"/>
   </g>
   <g id="PathCollection_1"/>
   <g id="PathCollection_2"/>
   <g id="line2d_10">
    <path d="M 77.97425 253.98913 
L 77.97425 262.908687 
" clip-path="url(#p45c532d048)" style="fill: none; stroke: #262626; stroke-width: 1.5; stroke-linecap: round"/>
   </g>
   <g id="line2d_11">
    <path d="M 77.97425 230.468068 
L 77.97425 222.24662 
" clip-path="url(#p45c532d048)" style="fill: none; stroke: #262626; stroke-width: 1.5; stroke-linecap: round"/>
   </g>
   <g id="line2d_12">
    <path d="M 68.120595 262.908687 
L 87.827905 262.908687 
" clip-path="url(#p45c532d048)" style="fill: none; stroke: #262626; stroke-width: 1.5; stroke-linecap: round"/>
   </g>
   <g id="line2d_13">
    <path d="M 68.120595 222.24662 
L 87.827905 222.24662 
" clip-path="url(#p45c532d048)" style="fill: none; stroke: #262626; stroke-width: 1.5; stroke-linecap: round"/>
   </g>
   <g id="line2d_14"/>
   <g id="line2d_15">
    <path d="M 118.19325 269.146973 
L 118.19325 272.45223 
" clip-path="url(#p45c532d048)" style="fill: none; stroke: #262626; stroke-width: 1.5; stroke-linecap: round"/>
   </g>
   <g id="line2d_16">
    <path d="M 118.19325 258.079093 
L 118.19325 243.388784 
" clip-path="url(#p45c532d048)" style="fill: none; stroke: #262626; stroke-width: 1.5; stroke-linecap: round"/>
   </g>
   <g id="line2d_17">
    <path d="M 108.339595 272.45223 
L 128.046905 272.45223 
" clip-path="url(#p45c532d048)" style="fill: none; stroke: #262626; stroke-width: 1.5; stroke-linecap: round"/>
   </g>
   <g id="line2d_18">
    <path d="M 108.339595 243.388784 
L 128.046905 243.388784 
" clip-path="url(#p45c532d048)" style="fill: none; stroke: #262626; stroke-width: 1.5; stroke-linecap: round"/>
   </g>
   <g id="line2d_19"/>
   <g id="line2d_20">
    <path d="M 178.52175 268.179219 
L 178.52175 271.139906 
" clip-path="url(#p45c532d048)" style="fill: none; stroke: #262626; stroke-width: 1.5; stroke-linecap: round"/>
   </g>
   <g id="line2d_21">
    <path d="M 178.52175 259.735326 
L 178.52175 252.856175 
" clip-path="url(#p45c532d048)" style="fill: none; stroke: #262626; stroke-width: 1.5; stroke-linecap: round"/>
   </g>
   <g id="line2d_22">
    <path d="M 168.668095 271.139906 
L 188.375405 271.139906 
" clip-path="url(#p45c532d048)" style="fill: none; stroke: #262626; stroke-width: 1.5; stroke-linecap: round"/>
   </g>
   <g id="line2d_23">
    <path d="M 168.668095 252.856175 
L 188.375405 252.856175 
" clip-path="url(#p45c532d048)" style="fill: none; stroke: #262626; stroke-width: 1.5; stroke-linecap: round"/>
   </g>
   <g id="line2d_24"/>
   <g id="line2d_25">
    <path d="M 218.74075 258.486906 
L 218.74075 262.381028 
" clip-path="url(#p45c532d048)" style="fill: none; stroke: #262626; stroke-width: 1.5; stroke-linecap: round"/>
   </g>
   <g id="line2d_26">
    <path d="M 218.74075 244.516118 
L 218.74075 234.464677 
" clip-path="url(#p45c532d048)" style="fill: none; stroke: #262626; stroke-width: 1.5; stroke-linecap: round"/>
   </g>
   <g id="line2d_27">
    <path d="M 208.887095 262.381028 
L 228.594405 262.381028 
" clip-path="url(#p45c532d048)" style="fill: none; stroke: #262626; stroke-width: 1.5; stroke-linecap: round"/>
   </g>
   <g id="line2d_28">
    <path d="M 208.887095 234.464677 
L 228.594405 234.464677 
" clip-path="url(#p45c532d048)" style="fill: none; stroke: #262626; stroke-width: 1.5; stroke-linecap: round"/>
   </g>
   <g id="line2d_29"/>
   <g id="line2d_30">
    <path d="M 279.06925 241.49215 
L 279.06925 253.036923 
" clip-path="url(#p45c532d048)" style="fill: none; stroke: #262626; stroke-width: 1.5; stroke-linecap: round"/>
   </g>
   <g id="line2d_31">
    <path d="M 279.06925 229.953606 
L 279.06925 226.804538 
" clip-path="url(#p45c532d048)" style="fill: none; stroke: #262626; stroke-width: 1.5; stroke-linecap: round"/>
   </g>
   <g id="line2d_32">
    <path d="M 269.215595 253.036923 
L 288.922905 253.036923 
" clip-path="url(#p45c532d048)" style="fill: none; stroke: #262626; stroke-width: 1.5; stroke-linecap: round"/>
   </g>
   <g id="line2d_33">
    <path d="M 269.215595 226.804538 
L 288.922905 226.804538 
" clip-path="url(#p45c532d048)" style="fill: none; stroke: #262626; stroke-width: 1.5; stroke-linecap: round"/>
   </g>
   <g id="line2d_34">
    <defs>
     <path id="meb04b9bc28" d="M -0 1.414214 
L 0.848528 0 
L 0 -1.414214 
L -0.848528 -0 
z
" style="stroke: #262626; stroke-linejoin: miter"/>
    </defs>
    <g clip-path="url(#p45c532d048)">
     <use xlink:href="#meb04b9bc28" x="279.06925" y="208.707158" style="fill: #262626; stroke: #262626; stroke-linejoin: miter"/>
    </g>
   </g>
   <g id="line2d_35">
    <path d="M 319.28825 259.20311 
L 319.28825 263.519605 
" clip-path="url(#p45c532d048)" style="fill: none; stroke: #262626; stroke-width: 1.5; stroke-linecap: round"/>
   </g>
   <g id="line2d_36">
    <path d="M 319.28825 250.396297 
L 319.28825 249.475472 
" clip-path="url(#p45c532d048)" style="fill: none; stroke: #262626; stroke-width: 1.5; stroke-linecap: round"/>
   </g>
   <g id="line2d_37">
    <path d="M 309.434595 263.519605 
L 329.141905 263.519605 
" clip-path="url(#p45c532d048)" style="fill: none; stroke: #262626; stroke-width: 1.5; stroke-linecap: round"/>
   </g>
   <g id="line2d_38">
    <path d="M 309.434595 249.475472 
L 329.141905 249.475472 
" clip-path="url(#p45c532d048)" style="fill: none; stroke: #262626; stroke-width: 1.5; stroke-linecap: round"/>
   </g>
   <g id="line2d_39">
    <g clip-path="url(#p45c532d048)">
     <use xlink:href="#meb04b9bc28" x="319.28825" y="235.91008" style="fill: #262626; stroke: #262626; stroke-linejoin: miter"/>
    </g>
   </g>
   <g id="line2d_40">
    <path d="M 379.61675 273.145214 
L 379.61675 287.208767 
" clip-path="url(#p45c532d048)" style="fill: none; stroke: #262626; stroke-width: 1.5; stroke-linecap: round"/>
   </g>
   <g id="line2d_41">
    <path d="M 379.61675 253.116449 
L 379.61675 244.638917 
" clip-path="url(#p45c532d048)" style="fill: none; stroke: #262626; stroke-width: 1.5; stroke-linecap: round"/>
   </g>
   <g id="line2d_42">
    <path d="M 369.763095 287.208767 
L 389.470405 287.208767 
" clip-path="url(#p45c532d048)" style="fill: none; stroke: #262626; stroke-width: 1.5; stroke-linecap: round"/>
   </g>
   <g id="line2d_43">
    <path d="M 369.763095 244.638917 
L 389.470405 244.638917 
" clip-path="url(#p45c532d048)" style="fill: none; stroke: #262626; stroke-width: 1.5; stroke-linecap: round"/>
   </g>
   <g id="line2d_44"/>
   <g id="line2d_45">
    <path d="M 419.83575 243.112766 
L 419.83575 243.173139 
" clip-path="url(#p45c532d048)" style="fill: none; stroke: #262626; stroke-width: 1.5; stroke-linecap: round"/>
   </g>
   <g id="line2d_46">
    <path d="M 419.83575 240.329247 
L 419.83575 240.135916 
" clip-path="url(#p45c532d048)" style="fill: none; stroke: #262626; stroke-width: 1.5; stroke-linecap: round"/>
   </g>
   <g id="line2d_47">
    <path d="M 409.982095 243.173139 
L 429.689405 243.173139 
" clip-path="url(#p45c532d048)" style="fill: none; stroke: #262626; stroke-width: 1.5; stroke-linecap: round"/>
   </g>
   <g id="line2d_48">
    <path d="M 409.982095 240.135916 
L 429.689405 240.135916 
" clip-path="url(#p45c532d048)" style="fill: none; stroke: #262626; stroke-width: 1.5; stroke-linecap: round"/>
   </g>
   <g id="line2d_49">
    <g clip-path="url(#p45c532d048)">
     <use xlink:href="#meb04b9bc28" x="419.83575" y="270.253169" style="fill: #262626; stroke: #262626; stroke-linejoin: miter"/>
     <use xlink:href="#meb04b9bc28" x="419.83575" y="232.29723" style="fill: #262626; stroke: #262626; stroke-linejoin: miter"/>
    </g>
   </g>
   <g id="line2d_50">
    <path d="M 58.26694 244.33052 
L 97.68156 244.33052 
" clip-path="url(#p45c532d048)" style="fill: none; stroke: #262626; stroke-width: 1.5; stroke-linecap: round"/>
   </g>
   <g id="line2d_51">
    <path d="M 98.48594 269.027164 
L 137.90056 269.027164 
" clip-path="url(#p45c532d048)" style="fill: none; stroke: #262626; stroke-width: 1.5; stroke-linecap: round"/>
   </g>
   <g id="line2d_52">
    <path d="M 158.81444 264.764459 
L 198.22906 264.764459 
" clip-path="url(#p45c532d048)" style="fill: none; stroke: #262626; stroke-width: 1.5; stroke-linecap: round"/>
   </g>
   <g id="line2d_53">
    <path d="M 199.03344 252.844793 
L 238.44806 252.844793 
" clip-path="url(#p45c532d048)" style="fill: none; stroke: #262626; stroke-width: 1.5; stroke-linecap: round"/>
   </g>
   <g id="line2d_54">
    <path d="M 259.36194 237.609045 
L 298.77656 237.609045 
" clip-path="url(#p45c532d048)" style="fill: none; stroke: #262626; stroke-width: 1.5; stroke-linecap: round"/>
   </g>
   <g id="line2d_55">
    <path d="M 299.58094 251.386603 
L 338.99556 251.386603 
" clip-path="url(#p45c532d048)" style="fill: none; stroke: #262626; stroke-width: 1.5; stroke-linecap: round"/>
   </g>
   <g id="line2d_56">
    <path d="M 359.90944 264.109811 
L 399.32406 264.109811 
" clip-path="url(#p45c532d048)" style="fill: none; stroke: #262626; stroke-width: 1.5; stroke-linecap: round"/>
   </g>
   <g id="line2d_57">
    <path d="M 400.12844 241.920444 
L 439.54306 241.920444 
" clip-path="url(#p45c532d048)" style="fill: none; stroke: #262626; stroke-width: 1.5; stroke-linecap: round"/>
   </g>
   <g id="patch_13">
    <path d="M 47.81 303.64 
L 47.81 27.353939 
" style="fill: none; stroke: #cccccc; stroke-width: 0.8; stroke-linejoin: miter; stroke-linecap: square"/>
   </g>
   <g id="patch_14">
    <path d="M 450 303.64 
L 450 27.353939 
" style="fill: none; stroke: #cccccc; stroke-width: 0.8; stroke-linejoin: miter; stroke-linecap: square"/>
   </g>
   <g id="patch_15">
    <path d="M 47.81 303.64 
L 450 303.64 
" style="fill: none; stroke: #cccccc; stroke-width: 0.8; stroke-linejoin: miter; stroke-linecap: square"/>
   </g>
   <g id="patch_16">
    <path d="M 47.81 27.353939 
L 450 27.353939 
" style="fill: none; stroke: #cccccc; stroke-width: 0.8; stroke-linejoin: miter; stroke-linecap: square"/>
   </g>
   <g id="PathCollection_3">
    <defs>
     <path id="C0_0_d6cb747071" d="M 0 1 
C 0.265203 1 0.51958 0.894634 0.707107 0.707107 
C 0.894634 0.51958 1 0.265203 1 -0 
C 1 -0.265203 0.894634 -0.51958 0.707107 -0.707107 
C 0.51958 -0.894634 0.265203 -1 0 -1 
C -0.265203 -1 -0.51958 -0.894634 -0.707107 -0.707107 
C -0.894634 -0.51958 -1 -0.265203 -1 0 
C -1 0.265203 -0.894634 0.51958 -0.707107 0.707107 
C -0.51958 0.894634 -0.265203 1 0 1 
z
"/>
    </defs>
    <g clip-path="url(#p45c532d048)">
     <use xlink:href="#C0_0_d6cb747071" x="74.129096" y="224.732917" style="fill: #262626"/>
    </g>
    <g clip-path="url(#p45c532d048)">
     <use xlink:href="#C0_0_d6cb747071" x="76.249434" y="236.203219" style="fill: #262626"/>
    </g>
    <g clip-path="url(#p45c532d048)">
     <use xlink:href="#C0_0_d6cb747071" x="77.924179" y="222.24662" style="fill: #262626"/>
    </g>
    <g clip-path="url(#p45c532d048)">
     <use xlink:href="#C0_0_d6cb747071" x="74.750158" y="251.453468" style="fill: #262626"/>
    </g>
    <g clip-path="url(#p45c532d048)">
     <use xlink:href="#C0_0_d6cb747071" x="80.034985" y="256.524792" style="fill: #262626"/>
    </g>
    <g clip-path="url(#p45c532d048)">
     <use xlink:href="#C0_0_d6cb747071" x="82.408818" y="262.908687" style="fill: #262626"/>
    </g>
    <g clip-path="url(#p45c532d048)">
     <use xlink:href="#C0_0_d6cb747071" x="80.058955" y="244.33052" style="fill: #262626"/>
    </g>
   </g>
   <g id="PathCollection_4">
    <defs>
     <path id="C1_0_46534a3595" d="M 0 1 
C 0.265203 1 0.51958 0.894634 0.707107 0.707107 
C 0.894634 0.51958 1 0.265203 1 -0 
C 1 -0.265203 0.894634 -0.51958 0.707107 -0.707107 
C 0.51958 -0.894634 0.265203 -1 0 -1 
C -0.265203 -1 -0.51958 -0.894634 -0.707107 -0.707107 
C -0.894634 -0.51958 -1 -0.265203 -1 0 
C -1 0.265203 -0.894634 0.51958 -0.707107 0.707107 
C -0.51958 0.894634 -0.265203 1 0 1 
z
"/>
    </defs>
    <g clip-path="url(#p45c532d048)">
     <use xlink:href="#C1_0_46534a3595" x="113.34437" y="269.146973"/>
    </g>
    <g clip-path="url(#p45c532d048)">
     <use xlink:href="#C1_0_46534a3595" x="116.149884" y="243.388784"/>
    </g>
    <g clip-path="url(#p45c532d048)">
     <use xlink:href="#C1_0_46534a3595" x="114.713795" y="269.027164"/>
    </g>
    <g clip-path="url(#p45c532d048)">
     <use xlink:href="#C1_0_46534a3595" x="117.20947" y="258.079093"/>
    </g>
    <g clip-path="url(#p45c532d048)">
     <use xlink:href="#C1_0_46534a3595" x="122.679068" y="272.45223"/>
    </g>
   </g>
   <g id="PathCollection_5">
    <defs>
     <path id="C2_0_3dc4dbf526" d="M 0 1 
C 0.265203 1 0.51958 0.894634 0.707107 0.707107 
C 0.894634 0.51958 1 0.265203 1 -0 
C 1 -0.265203 0.894634 -0.51958 0.707107 -0.707107 
C 0.51958 -0.894634 0.265203 -1 0 -1 
C -0.265203 -1 -0.51958 -0.894634 -0.707107 -0.707107 
C -0.894634 -0.51958 -1 -0.265203 -1 0 
C -1 0.265203 -0.894634 0.51958 -0.707107 0.707107 
C -0.51958 0.894634 -0.265203 1 0 1 
z
"/>
    </defs>
    <g clip-path="url(#p45c532d048)">
     <use xlink:href="#C2_0_3dc4dbf526" x="176.486713" y="257.867378" style="fill: #262626"/>
    </g>
    <g clip-path="url(#p45c532d048)">
     <use xlink:href="#C2_0_3dc4dbf526" x="177.13538" y="271.139906" style="fill: #262626"/>
    </g>
    <g clip-path="url(#p45c532d048)">
     <use xlink:href="#C2_0_3dc4dbf526" x="176.181726" y="265.272842" style="fill: #262626"/>
    </g>
    <g clip-path="url(#p45c532d048)">
     <use xlink:href="#C2_0_3dc4dbf526" x="180.838747" y="252.856175" style="fill: #262626"/>
    </g>
    <g clip-path="url(#p45c532d048)">
     <use xlink:href="#C2_0_3dc4dbf526" x="173.762691" y="271.085597" style="fill: #262626"/>
    </g>
    <g clip-path="url(#p45c532d048)">
     <use xlink:href="#C2_0_3dc4dbf526" x="178.555757" y="261.603275" style="fill: #262626"/>
    </g>
    <g clip-path="url(#p45c532d048)">
     <use xlink:href="#C2_0_3dc4dbf526" x="176.001167" y="264.764459" style="fill: #262626"/>
    </g>
   </g>
   <g id="PathCollection_6">
    <defs>
     <path id="C3_0_45029a04ad" d="M 0 1 
C 0.265203 1 0.51958 0.894634 0.707107 0.707107 
C 0.894634 0.51958 1 0.265203 1 -0 
C 1 -0.265203 0.894634 -0.51958 0.707107 -0.707107 
C 0.51958 -0.894634 0.265203 -1 0 -1 
C -0.265203 -1 -0.51958 -0.894634 -0.707107 -0.707107 
C -0.894634 -0.51958 -1 -0.265203 -1 0 
C -1 0.265203 -0.894634 0.51958 -0.707107 0.707107 
C -0.51958 0.894634 -0.265203 1 0 1 
z
"/>
    </defs>
    <g clip-path="url(#p45c532d048)">
     <use xlink:href="#C3_0_45029a04ad" x="215.18908" y="259.508789"/>
    </g>
    <g clip-path="url(#p45c532d048)">
     <use xlink:href="#C3_0_45029a04ad" x="214.78002" y="262.381028"/>
    </g>
    <g clip-path="url(#p45c532d048)">
     <use xlink:href="#C3_0_45029a04ad" x="217.019158" y="242.598713"/>
    </g>
    <g clip-path="url(#p45c532d048)">
     <use xlink:href="#C3_0_45029a04ad" x="222.187378" y="255.421255"/>
    </g>
    <g clip-path="url(#p45c532d048)">
     <use xlink:href="#C3_0_45029a04ad" x="214.286023" y="250.268331"/>
    </g>
    <g clip-path="url(#p45c532d048)">
     <use xlink:href="#C3_0_45029a04ad" x="221.040477" y="234.464677"/>
    </g>
   </g>
   <g id="PathCollection_7">
    <defs>
     <path id="C4_0_dfecea3548" d="M 0 1 
C 0.265203 1 0.51958 0.894634 0.707107 0.707107 
C 0.894634 0.51958 1 0.265203 1 -0 
C 1 -0.265203 0.894634 -0.51958 0.707107 -0.707107 
C 0.51958 -0.894634 0.265203 -1 0 -1 
C -0.265203 -1 -0.51958 -0.894634 -0.707107 -0.707107 
C -0.894634 -0.51958 -1 -0.265203 -1 0 
C -1 0.265203 -0.894634 0.51958 -0.707107 0.707107 
C -0.51958 0.894634 -0.265203 1 0 1 
z
"/>
    </defs>
    <g clip-path="url(#p45c532d048)">
     <use xlink:href="#C4_0_dfecea3548" x="277.496978" y="238.668977" style="fill: #262626"/>
    </g>
    <g clip-path="url(#p45c532d048)">
     <use xlink:href="#C4_0_dfecea3548" x="277.392128" y="253.036923" style="fill: #262626"/>
    </g>
    <g clip-path="url(#p45c532d048)">
     <use xlink:href="#C4_0_dfecea3548" x="275.510265" y="240.260529" style="fill: #262626"/>
    </g>
    <g clip-path="url(#p45c532d048)">
     <use xlink:href="#C4_0_dfecea3548" x="277.268127" y="227.952915" style="fill: #262626"/>
    </g>
    <g clip-path="url(#p45c532d048)">
     <use xlink:href="#C4_0_dfecea3548" x="281.401358" y="245.079034" style="fill: #262626"/>
    </g>
    <g clip-path="url(#p45c532d048)">
     <use xlink:href="#C4_0_dfecea3548" x="277.241542" y="208.707158" style="fill: #262626"/>
    </g>
    <g clip-path="url(#p45c532d048)">
     <use xlink:href="#C4_0_dfecea3548" x="277.891658" y="230.501053" style="fill: #262626"/>
    </g>
    <g clip-path="url(#p45c532d048)">
     <use xlink:href="#C4_0_dfecea3548" x="278.6674" y="238.984892" style="fill: #262626"/>
    </g>
    <g clip-path="url(#p45c532d048)">
     <use xlink:href="#C4_0_dfecea3548" x="274.090836" y="241.90269" style="fill: #262626"/>
    </g>
    <g clip-path="url(#p45c532d048)">
     <use xlink:href="#C4_0_dfecea3548" x="279.535536" y="236.549112" style="fill: #262626"/>
    </g>
    <g clip-path="url(#p45c532d048)">
     <use xlink:href="#C4_0_dfecea3548" x="276.795045" y="229.771124" style="fill: #262626"/>
    </g>
    <g clip-path="url(#p45c532d048)">
     <use xlink:href="#C4_0_dfecea3548" x="282.604148" y="226.804538" style="fill: #262626"/>
    </g>
    <g clip-path="url(#p45c532d048)">
     <use xlink:href="#C4_0_dfecea3548" x="276.101466" y="234.856722" style="fill: #262626"/>
    </g>
    <g clip-path="url(#p45c532d048)">
     <use xlink:href="#C4_0_dfecea3548" x="278.595911" y="246.681685" style="fill: #262626"/>
    </g>
   </g>
   <g id="PathCollection_8">
    <defs>
     <path id="C5_0_f8d546eb53" d="M 0 1 
C 0.265203 1 0.51958 0.894634 0.707107 0.707107 
C 0.894634 0.51958 1 0.265203 1 -0 
C 1 -0.265203 0.894634 -0.51958 0.707107 -0.707107 
C 0.51958 -0.894634 0.265203 -1 0 -1 
C -0.265203 -1 -0.51958 -0.894634 -0.707107 -0.707107 
C -0.894634 -0.51958 -1 -0.265203 -1 0 
C -1 0.265203 -0.894634 0.51958 -0.707107 0.707107 
C -0.51958 0.894634 -0.265203 1 0 1 
z
"/>
    </defs>
    <g clip-path="url(#p45c532d048)">
     <use xlink:href="#C5_0_f8d546eb53" x="319.139329" y="250.703239"/>
    </g>
    <g clip-path="url(#p45c532d048)">
     <use xlink:href="#C5_0_f8d546eb53" x="320.612729" y="235.91008"/>
    </g>
    <g clip-path="url(#p45c532d048)">
     <use xlink:href="#C5_0_f8d546eb53" x="321.26481" y="258.013624"/>
    </g>
    <g clip-path="url(#p45c532d048)">
     <use xlink:href="#C5_0_f8d546eb53" x="324.031159" y="251.869601"/>
    </g>
    <g clip-path="url(#p45c532d048)">
     <use xlink:href="#C5_0_f8d546eb53" x="317.115364" y="249.475472"/>
    </g>
    <g clip-path="url(#p45c532d048)">
     <use xlink:href="#C5_0_f8d546eb53" x="317.84597" y="263.519605"/>
    </g>
    <g clip-path="url(#p45c532d048)">
     <use xlink:href="#C5_0_f8d546eb53" x="316.827253" y="250.903604"/>
    </g>
    <g clip-path="url(#p45c532d048)">
     <use xlink:href="#C5_0_f8d546eb53" x="322.241331" y="262.771569"/>
    </g>
   </g>
   <g id="PathCollection_9">
    <defs>
     <path id="C6_0_868fc465fc" d="M 0 1 
C 0.265203 1 0.51958 0.894634 0.707107 0.707107 
C 0.894634 0.51958 1 0.265203 1 -0 
C 1 -0.265203 0.894634 -0.51958 0.707107 -0.707107 
C 0.51958 -0.894634 0.265203 -1 0 -1 
C -0.265203 -1 -0.51958 -0.894634 -0.707107 -0.707107 
C -0.894634 -0.51958 -1 -0.265203 -1 0 
C -1 0.265203 -0.894634 0.51958 -0.707107 0.707107 
C -0.51958 0.894634 -0.265203 1 0 1 
z
"/>
    </defs>
    <g clip-path="url(#p45c532d048)">
     <use xlink:href="#C6_0_868fc465fc" x="375.95714" y="253.740451" style="fill: #262626"/>
    </g>
    <g clip-path="url(#p45c532d048)">
     <use xlink:href="#C6_0_868fc465fc" x="380.366184" y="273.145214" style="fill: #262626"/>
    </g>
    <g clip-path="url(#p45c532d048)">
     <use xlink:href="#C6_0_868fc465fc" x="381.253949" y="264.109811" style="fill: #262626"/>
    </g>
    <g clip-path="url(#p45c532d048)">
     <use xlink:href="#C6_0_868fc465fc" x="380.125598" y="268.563039" style="fill: #262626"/>
    </g>
    <g clip-path="url(#p45c532d048)">
     <use xlink:href="#C6_0_868fc465fc" x="377.822691" y="273.959599" style="fill: #262626"/>
    </g>
    <g clip-path="url(#p45c532d048)">
     <use xlink:href="#C6_0_868fc465fc" x="375.374101" y="281.726934" style="fill: #262626"/>
    </g>
    <g clip-path="url(#p45c532d048)">
     <use xlink:href="#C6_0_868fc465fc" x="376.253949" y="253.116449" style="fill: #262626"/>
    </g>
    <g clip-path="url(#p45c532d048)">
     <use xlink:href="#C6_0_868fc465fc" x="377.304233" y="244.638917" style="fill: #262626"/>
    </g>
    <g clip-path="url(#p45c532d048)">
     <use xlink:href="#C6_0_868fc465fc" x="381.719064" y="271.649927" style="fill: #262626"/>
    </g>
    <g clip-path="url(#p45c532d048)">
     <use xlink:href="#C6_0_868fc465fc" x="380.4876" y="250.650155" style="fill: #262626"/>
    </g>
    <g clip-path="url(#p45c532d048)">
     <use xlink:href="#C6_0_868fc465fc" x="377.522042" y="287.208767" style="fill: #262626"/>
    </g>
    <g clip-path="url(#p45c532d048)">
     <use xlink:href="#C6_0_868fc465fc" x="379.397952" y="250.960128" style="fill: #262626"/>
    </g>
    <g clip-path="url(#p45c532d048)">
     <use xlink:href="#C6_0_868fc465fc" x="380.296481" y="263.359738" style="fill: #262626"/>
    </g>
   </g>
   <g id="PathCollection_10">
    <defs>
     <path id="C7_0_4527062f37" d="M 0 1 
C 0.265203 1 0.51958 0.894634 0.707107 0.707107 
C 0.894634 0.51958 1 0.265203 1 -0 
C 1 -0.265203 0.894634 -0.51958 0.707107 -0.707107 
C 0.51958 -0.894634 0.265203 -1 0 -1 
C -0.265203 -1 -0.51958 -0.894634 -0.707107 -0.707107 
C -0.894634 -0.51958 -1 -0.265203 -1 0 
C -1 0.265203 -0.894634 0.51958 -0.707107 0.707107 
C -0.51958 0.894634 -0.265203 1 0 1 
z
"/>
    </defs>
    <g clip-path="url(#p45c532d048)">
     <use xlink:href="#C7_0_4527062f37" x="415.750117" y="232.29723"/>
    </g>
    <g clip-path="url(#p45c532d048)">
     <use xlink:href="#C7_0_4527062f37" x="423.025255" y="243.173139"/>
    </g>
    <g clip-path="url(#p45c532d048)">
     <use xlink:href="#C7_0_4527062f37" x="417.605015" y="242.931649"/>
    </g>
    <g clip-path="url(#p45c532d048)">
     <use xlink:href="#C7_0_4527062f37" x="421.838477" y="270.253169"/>
    </g>
    <g clip-path="url(#p45c532d048)">
     <use xlink:href="#C7_0_4527062f37" x="424.327501" y="240.135916"/>
    </g>
    <g clip-path="url(#p45c532d048)">
     <use xlink:href="#C7_0_4527062f37" x="419.765914" y="240.909239"/>
    </g>
   </g>
   <g id="text_16">
    <!-- 7 -->
    <g style="fill: #262626" transform="translate(83.001625 18.72)scale(0.1 -0.1)">
     <defs>
      <path id="DejaVuSans-37" d="M 525 4666 
L 3525 4666 
L 3525 4397 
L 1831 0 
L 1172 0 
L 2766 4134 
L 525 4134 
L 525 4666 
z
" transform="scale(0.015625)"/>
     </defs>
     <use xlink:href="#DejaVuSans-37"/>
    </g>
   </g>
   <g id="text_17">
    <!-- p&lt;.05 -->
    <g style="fill: #262626" transform="translate(70.749125 213.612681)scale(0.08 -0.08)">
     <defs>
      <path id="DejaVuSans-3c" d="M 4684 3150 
L 1459 2003 
L 4684 863 
L 4684 294 
L 678 1747 
L 678 2266 
L 4684 3719 
L 4684 3150 
z
" transform="scale(0.015625)"/>
      <path id="DejaVuSans-35" d="M 691 4666 
L 3169 4666 
L 3169 4134 
L 1269 4134 
L 1269 2991 
Q 1406 3038 1543 3061 
Q 1681 3084 1819 3084 
Q 2600 3084 3056 2656 
Q 3513 2228 3513 1497 
Q 3513 744 3044 326 
Q 2575 -91 1722 -91 
Q 1428 -91 1123 -41 
Q 819 9 494 109 
L 494 744 
Q 775 591 1075 516 
Q 1375 441 1709 441 
Q 2250 441 2565 725 
Q 2881 1009 2881 1497 
Q 2881 1984 2565 2268 
Q 2250 2553 1709 2553 
Q 1456 2553 1204 2497 
Q 953 2441 691 2322 
L 691 4666 
z
" transform="scale(0.015625)"/>
     </defs>
     <use xlink:href="#DejaVuSans-70"/>
     <use xlink:href="#DejaVuSans-3c" x="63.476562"/>
     <use xlink:href="#DejaVuSans-2e" x="147.265625"/>
     <use xlink:href="#DejaVuSans-30" x="179.052734"/>
     <use xlink:href="#DejaVuSans-35" x="242.675781"/>
    </g>
   </g>
   <g id="text_18">
    <!-- 5 -->
    <g style="fill: #262626" transform="translate(113.165875 18.72)scale(0.1 -0.1)">
     <use xlink:href="#DejaVuSans-35"/>
    </g>
   </g>
   <g id="text_19">
    <!-- 7 -->
    <g style="fill: #262626" transform="translate(183.549125 18.72)scale(0.1 -0.1)">
     <use xlink:href="#DejaVuSans-37"/>
    </g>
   </g>
   <g id="text_20">
    <!-- p&lt;.05 -->
    <g style="fill: #262626" transform="translate(171.296625 244.222235)scale(0.08 -0.08)">
     <use xlink:href="#DejaVuSans-70"/>
     <use xlink:href="#DejaVuSans-3c" x="63.476562"/>
     <use xlink:href="#DejaVuSans-2e" x="147.265625"/>
     <use xlink:href="#DejaVuSans-30" x="179.052734"/>
     <use xlink:href="#DejaVuSans-35" x="242.675781"/>
    </g>
   </g>
   <g id="text_21">
    <!-- 6 -->
    <g style="fill: #262626" transform="translate(213.713375 18.72)scale(0.1 -0.1)">
     <use xlink:href="#DejaVuSans-36"/>
    </g>
   </g>
   <g id="text_22">
    <!-- 14 -->
    <g style="fill: #262626" transform="translate(284.096625 18.72)scale(0.1 -0.1)">
     <use xlink:href="#DejaVuSans-31"/>
     <use xlink:href="#DejaVuSans-34" x="63.623047"/>
    </g>
   </g>
   <g id="text_23">
    <!-- p&lt;.005 -->
    <g style="fill: #262626" transform="translate(269.299125 200.073219)scale(0.08 -0.08)">
     <use xlink:href="#DejaVuSans-70"/>
     <use xlink:href="#DejaVuSans-3c" x="63.476562"/>
     <use xlink:href="#DejaVuSans-2e" x="147.265625"/>
     <use xlink:href="#DejaVuSans-30" x="179.052734"/>
     <use xlink:href="#DejaVuSans-30" x="242.675781"/>
     <use xlink:href="#DejaVuSans-35" x="306.298828"/>
    </g>
   </g>
   <g id="text_24">
    <!-- 8 -->
    <g style="fill: #262626" transform="translate(314.260875 18.72)scale(0.1 -0.1)">
     <use xlink:href="#DejaVuSans-38"/>
    </g>
   </g>
   <g id="text_25">
    <!-- 13 -->
    <g style="fill: #262626" transform="translate(384.644125 18.72)scale(0.1 -0.1)">
     <defs>
      <path id="DejaVuSans-33" d="M 2597 2516 
Q 3050 2419 3304 2112 
Q 3559 1806 3559 1356 
Q 3559 666 3084 287 
Q 2609 -91 1734 -91 
Q 1441 -91 1130 -33 
Q 819 25 488 141 
L 488 750 
Q 750 597 1062 519 
Q 1375 441 1716 441 
Q 2309 441 2620 675 
Q 2931 909 2931 1356 
Q 2931 1769 2642 2001 
Q 2353 2234 1838 2234 
L 1294 2234 
L 1294 2753 
L 1863 2753 
Q 2328 2753 2575 2939 
Q 2822 3125 2822 3475 
Q 2822 3834 2567 4026 
Q 2313 4219 1838 4219 
Q 1578 4219 1281 4162 
Q 984 4106 628 3988 
L 628 4550 
Q 988 4650 1302 4700 
Q 1616 4750 1894 4750 
Q 2613 4750 3031 4423 
Q 3450 4097 3450 3541 
Q 3450 3153 3228 2886 
Q 3006 2619 2597 2516 
z
" transform="scale(0.015625)"/>
     </defs>
     <use xlink:href="#DejaVuSans-31"/>
     <use xlink:href="#DejaVuSans-33" x="63.623047"/>
    </g>
   </g>
   <g id="text_26">
    <!-- p&lt;.05 -->
    <g style="fill: #262626" transform="translate(372.391625 236.004977)scale(0.08 -0.08)">
     <use xlink:href="#DejaVuSans-70"/>
     <use xlink:href="#DejaVuSans-3c" x="63.476562"/>
     <use xlink:href="#DejaVuSans-2e" x="147.265625"/>
     <use xlink:href="#DejaVuSans-30" x="179.052734"/>
     <use xlink:href="#DejaVuSans-35" x="242.675781"/>
    </g>
   </g>
   <g id="text_27">
    <!-- 6 -->
    <g style="fill: #262626" transform="translate(414.808375 18.72)scale(0.1 -0.1)">
     <use xlink:href="#DejaVuSans-36"/>
    </g>
   </g>
   <g id="legend_1">
    <g id="patch_17">
     <path d="M 377.728125 43.952377 
L 397.728125 43.952377 
L 397.728125 36.952377 
L 377.728125 36.952377 
z
" style="fill: #ecf2ec; stroke: #262626; stroke-width: 0.75; stroke-linejoin: miter"/>
    </g>
    <g id="text_28">
     <!-- Mutant -->
     <g style="fill: #262626" transform="translate(405.728125 43.952377)scale(0.1 -0.1)">
      <defs>
       <path id="DejaVuSans-4d" d="M 628 4666 
L 1569 4666 
L 2759 1491 
L 3956 4666 
L 4897 4666 
L 4897 0 
L 4281 0 
L 4281 4097 
L 3078 897 
L 2444 897 
L 1241 4097 
L 1241 0 
L 628 0 
L 628 4666 
z
" transform="scale(0.015625)"/>
       <path id="DejaVuSans-75" d="M 544 1381 
L 544 3500 
L 1119 3500 
L 1119 1403 
Q 1119 906 1312 657 
Q 1506 409 1894 409 
Q 2359 409 2629 706 
Q 2900 1003 2900 1516 
L 2900 3500 
L 3475 3500 
L 3475 0 
L 2900 0 
L 2900 538 
Q 2691 219 2414 64 
Q 2138 -91 1772 -91 
Q 1169 -91 856 284 
Q 544 659 544 1381 
z
M 1991 3584 
L 1991 3584 
z
" transform="scale(0.015625)"/>
       <path id="DejaVuSans-61" d="M 2194 1759 
Q 1497 1759 1228 1600 
Q 959 1441 959 1056 
Q 959 750 1161 570 
Q 1363 391 1709 391 
Q 2188 391 2477 730 
Q 2766 1069 2766 1631 
L 2766 1759 
L 2194 1759 
z
M 3341 1997 
L 3341 0 
L 2766 0 
L 2766 531 
Q 2569 213 2275 61 
Q 1981 -91 1556 -91 
Q 1019 -91 701 211 
Q 384 513 384 1019 
Q 384 1609 779 1909 
Q 1175 2209 1959 2209 
L 2766 2209 
L 2766 2266 
Q 2766 2663 2505 2880 
Q 2244 3097 1772 3097 
Q 1472 3097 1187 3025 
Q 903 2953 641 2809 
L 641 3341 
Q 956 3463 1253 3523 
Q 1550 3584 1831 3584 
Q 2591 3584 2966 3190 
Q 3341 2797 3341 1997 
z
" transform="scale(0.015625)"/>
      </defs>
      <use xlink:href="#DejaVuSans-4d"/>
      <use xlink:href="#DejaVuSans-75" x="86.279297"/>
      <use xlink:href="#DejaVuSans-74" x="149.658203"/>
      <use xlink:href="#DejaVuSans-61" x="188.867188"/>
      <use xlink:href="#DejaVuSans-6e" x="250.146484"/>
      <use xlink:href="#DejaVuSans-74" x="313.525391"/>
     </g>
    </g>
    <g id="patch_18">
     <path d="M 377.728125 58.630502 
L 397.728125 58.630502 
L 397.728125 51.630502 
L 377.728125 51.630502 
z
" style="fill: #107010; stroke: #262626; stroke-width: 0.75; stroke-linejoin: miter"/>
    </g>
    <g id="text_29">
     <!-- WT -->
     <g style="fill: #262626" transform="translate(405.728125 58.630502)scale(0.1 -0.1)">
      <defs>
       <path id="DejaVuSans-57" d="M 213 4666 
L 850 4666 
L 1831 722 
L 2809 4666 
L 3519 4666 
L 4500 722 
L 5478 4666 
L 6119 4666 
L 4947 0 
L 4153 0 
L 3169 4050 
L 2175 0 
L 1381 0 
L 213 4666 
z
" transform="scale(0.015625)"/>
       <path id="DejaVuSans-54" d="M -19 4666 
L 3928 4666 
L 3928 4134 
L 2272 4134 
L 2272 0 
L 1638 0 
L 1638 4134 
L -19 4134 
L -19 4666 
z
" transform="scale(0.015625)"/>
      </defs>
      <use xlink:href="#DejaVuSans-57"/>
      <use xlink:href="#DejaVuSans-54" x="98.876953"/>
     </g>
    </g>
   </g>
  </g>
 </g>
 <defs>
  <clipPath id="p45c532d048">
   <rect x="47.81" y="27.353939" width="402.19" height="276.286061"/>
  </clipPath>
 </defs>
</svg>
