<?xml version="1.0" encoding="utf-8" standalone="no"?>
<!DOCTYPE svg PUBLIC "-//W3C//DTD SVG 1.1//EN"
  "http://www.w3.org/Graphics/SVG/1.1/DTD/svg11.dtd">
<svg xmlns:xlink="http://www.w3.org/1999/xlink" width="460.8pt" height="345.6pt" viewBox="0 0 460.8 345.6" xmlns="http://www.w3.org/2000/svg" version="1.1">
 <metadata>
  <rdf:RDF xmlns:dc="http://purl.org/dc/elements/1.1/" xmlns:cc="http://creativecommons.org/ns#" xmlns:rdf="http://www.w3.org/1999/02/22-rdf-syntax-ns#">
   <cc:Work>
    <dc:type rdf:resource="http://purl.org/dc/dcmitype/StillImage"/>
    <dc:date>2023-12-16T14:39:00.000492</dc:date>
    <dc:format>image/svg+xml</dc:format>
    <dc:creator>
     <cc:Agent>
      <dc:title>Matplotlib v3.5.3, https://matplotlib.org/</dc:title>
     </cc:Agent>
    </dc:creator>
   </cc:Work>
  </rdf:RDF>
 </metadata>
 <defs>
  <style type="text/css">*{stroke-linejoin: round; stroke-linecap: butt}</style>
 </defs>
 <g id="figure_1">
  <g id="patch_1">
   <path d="M 0 345.6 
L 460.8 345.6 
L 460.8 0 
L 0 0 
z
" style="fill: #ffffff"/>
  </g>
  <g id="axes_1">
   <g id="patch_2">
    <path d="M 47.81 303.64 
L 450 303.64 
L 450 27.353939 
L 47.81 27.353939 
z
" style="fill: #ffffff"/>
   </g>
   <g id="matplotlib.axis_1">
    <g id="xtick_1">
     <g id="text_1">
      <!-- AI -->
      <g style="fill: #262626" transform="translate(143.462188 318.238437)scale(0.1 -0.1)">
       <defs>
        <path id="DejaVuSans-41" d="M 2188 4044 
L 1331 1722 
L 3047 1722 
L 2188 4044 
z
M 1831 4666 
L 2547 4666 
L 4325 0 
L 3669 0 
L 3244 1197 
L 1141 1197 
L 716 0 
L 50 0 
L 1831 4666 
z
" transform="scale(0.015625)"/>
        <path id="DejaVuSans-49" d="M 628 4666 
L 1259 4666 
L 1259 0 
L 628 0 
L 628 4666 
z
" transform="scale(0.015625)"/>
       </defs>
       <use xlink:href="#DejaVuSans-41"/>
       <use xlink:href="#DejaVuSans-49" x="68.408203"/>
      </g>
     </g>
    </g>
    <g id="xtick_2">
     <g id="text_2">
      <!-- FA -->
      <g style="fill: #262626" transform="translate(343.612656 318.238437)scale(0.1 -0.1)">
       <defs>
        <path id="DejaVuSans-46" d="M 628 4666 
L 3309 4666 
L 3309 4134 
L 1259 4134 
L 1259 2759 
L 3109 2759 
L 3109 2228 
L 1259 2228 
L 1259 0 
L 628 0 
L 628 4666 
z
" transform="scale(0.015625)"/>
       </defs>
       <use xlink:href="#DejaVuSans-46"/>
       <use xlink:href="#DejaVuSans-41" x="48.394531"/>
      </g>
     </g>
    </g>
    <g id="text_3">
     <!-- WT_MUT -->
     <g style="fill: #262626" transform="translate(227.38 331.638437)scale(0.1 -0.1)">
      <defs>
       <path id="DejaVuSans-57" d="M 213 4666 
L 850 4666 
L 1831 722 
L 2809 4666 
L 3519 4666 
L 4500 722 
L 5478 4666 
L 6119 4666 
L 4947 0 
L 4153 0 
L 3169 4050 
L 2175 0 
L 1381 0 
L 213 4666 
z
" transform="scale(0.015625)"/>
       <path id="DejaVuSans-54" d="M -19 4666 
L 3928 4666 
L 3928 4134 
L 2272 4134 
L 2272 0 
L 1638 0 
L 1638 4134 
L -19 4134 
L -19 4666 
z
" transform="scale(0.015625)"/>
       <path id="DejaVuSans-5f" d="M 3263 -1063 
L 3263 -1509 
L -63 -1509 
L -63 -1063 
L 3263 -1063 
z
" transform="scale(0.015625)"/>
       <path id="DejaVuSans-4d" d="M 628 4666 
L 1569 4666 
L 2759 1491 
L 3956 4666 
L 4897 4666 
L 4897 0 
L 4281 0 
L 4281 4097 
L 3078 897 
L 2444 897 
L 1241 4097 
L 1241 0 
L 628 0 
L 628 4666 
z
" transform="scale(0.015625)"/>
       <path id="DejaVuSans-55" d="M 556 4666 
L 1191 4666 
L 1191 1831 
Q 1191 1081 1462 751 
Q 1734 422 2344 422 
Q 2950 422 3222 751 
Q 3494 1081 3494 1831 
L 3494 4666 
L 4128 4666 
L 4128 1753 
Q 4128 841 3676 375 
Q 3225 -91 2344 -91 
Q 1459 -91 1007 375 
Q 556 841 556 1753 
L 556 4666 
z
" transform="scale(0.015625)"/>
      </defs>
      <use xlink:href="#DejaVuSans-57"/>
      <use xlink:href="#DejaVuSans-54" x="98.876953"/>
      <use xlink:href="#DejaVuSans-5f" x="159.960938"/>
      <use xlink:href="#DejaVuSans-4d" x="209.960938"/>
      <use xlink:href="#DejaVuSans-55" x="296.240234"/>
      <use xlink:href="#DejaVuSans-54" x="369.433594"/>
     </g>
    </g>
   </g>
   <g id="matplotlib.axis_2">
    <g id="ytick_1">
     <g id="line2d_1">
      <path d="M 47.81 303.64 
L 450 303.64 
" clip-path="url(#p6aa58e81e8)" style="fill: none; stroke: #cccccc; stroke-width: 0.8; stroke-linecap: round"/>
     </g>
     <g id="text_4">
      <!-- 0.0 -->
      <g style="fill: #262626" transform="translate(24.906875 307.439219)scale(0.1 -0.1)">
       <defs>
        <path id="DejaVuSans-30" d="M 2034 4250 
Q 1547 4250 1301 3770 
Q 1056 3291 1056 2328 
Q 1056 1369 1301 889 
Q 1547 409 2034 409 
Q 2525 409 2770 889 
Q 3016 1369 3016 2328 
Q 3016 3291 2770 3770 
Q 2525 4250 2034 4250 
z
M 2034 4750 
Q 2819 4750 3233 4129 
Q 3647 3509 3647 2328 
Q 3647 1150 3233 529 
Q 2819 -91 2034 -91 
Q 1250 -91 836 529 
Q 422 1150 422 2328 
Q 422 3509 836 4129 
Q 1250 4750 2034 4750 
z
" transform="scale(0.015625)"/>
        <path id="DejaVuSans-2e" d="M 684 794 
L 1344 794 
L 1344 0 
L 684 0 
L 684 794 
z
" transform="scale(0.015625)"/>
       </defs>
       <use xlink:href="#DejaVuSans-30"/>
       <use xlink:href="#DejaVuSans-2e" x="63.623047"/>
       <use xlink:href="#DejaVuSans-30" x="95.410156"/>
      </g>
     </g>
    </g>
    <g id="ytick_2">
     <g id="line2d_2">
      <path d="M 47.81 269.104242 
L 450 269.104242 
" clip-path="url(#p6aa58e81e8)" style="fill: none; stroke: #cccccc; stroke-width: 0.8; stroke-linecap: round"/>
     </g>
     <g id="text_5">
      <!-- 0.2 -->
      <g style="fill: #262626" transform="translate(24.906875 272.903461)scale(0.1 -0.1)">
       <defs>
        <path id="DejaVuSans-32" d="M 1228 531 
L 3431 531 
L 3431 0 
L 469 0 
L 469 531 
Q 828 903 1448 1529 
Q 2069 2156 2228 2338 
Q 2531 2678 2651 2914 
Q 2772 3150 2772 3378 
Q 2772 3750 2511 3984 
Q 2250 4219 1831 4219 
Q 1534 4219 1204 4116 
Q 875 4013 500 3803 
L 500 4441 
Q 881 4594 1212 4672 
Q 1544 4750 1819 4750 
Q 2544 4750 2975 4387 
Q 3406 4025 3406 3419 
Q 3406 3131 3298 2873 
Q 3191 2616 2906 2266 
Q 2828 2175 2409 1742 
Q 1991 1309 1228 531 
z
" transform="scale(0.015625)"/>
       </defs>
       <use xlink:href="#DejaVuSans-30"/>
       <use xlink:href="#DejaVuSans-2e" x="63.623047"/>
       <use xlink:href="#DejaVuSans-32" x="95.410156"/>
      </g>
     </g>
    </g>
    <g id="ytick_3">
     <g id="line2d_3">
      <path d="M 47.81 234.568485 
L 450 234.568485 
" clip-path="url(#p6aa58e81e8)" style="fill: none; stroke: #cccccc; stroke-width: 0.8; stroke-linecap: round"/>
     </g>
     <g id="text_6">
      <!-- 0.4 -->
      <g style="fill: #262626" transform="translate(24.906875 238.367704)scale(0.1 -0.1)">
       <defs>
        <path id="DejaVuSans-34" d="M 2419 4116 
L 825 1625 
L 2419 1625 
L 2419 4116 
z
M 2253 4666 
L 3047 4666 
L 3047 1625 
L 3713 1625 
L 3713 1100 
L 3047 1100 
L 3047 0 
L 2419 0 
L 2419 1100 
L 313 1100 
L 313 1709 
L 2253 4666 
z
" transform="scale(0.015625)"/>
       </defs>
       <use xlink:href="#DejaVuSans-30"/>
       <use xlink:href="#DejaVuSans-2e" x="63.623047"/>
       <use xlink:href="#DejaVuSans-34" x="95.410156"/>
      </g>
     </g>
    </g>
    <g id="ytick_4">
     <g id="line2d_4">
      <path d="M 47.81 200.032727 
L 450 200.032727 
" clip-path="url(#p6aa58e81e8)" style="fill: none; stroke: #cccccc; stroke-width: 0.8; stroke-linecap: round"/>
     </g>
     <g id="text_7">
      <!-- 0.6 -->
      <g style="fill: #262626" transform="translate(24.906875 203.831946)scale(0.1 -0.1)">
       <defs>
        <path id="DejaVuSans-36" d="M 2113 2584 
Q 1688 2584 1439 2293 
Q 1191 2003 1191 1497 
Q 1191 994 1439 701 
Q 1688 409 2113 409 
Q 2538 409 2786 701 
Q 3034 994 3034 1497 
Q 3034 2003 2786 2293 
Q 2538 2584 2113 2584 
z
M 3366 4563 
L 3366 3988 
Q 3128 4100 2886 4159 
Q 2644 4219 2406 4219 
Q 1781 4219 1451 3797 
Q 1122 3375 1075 2522 
Q 1259 2794 1537 2939 
Q 1816 3084 2150 3084 
Q 2853 3084 3261 2657 
Q 3669 2231 3669 1497 
Q 3669 778 3244 343 
Q 2819 -91 2113 -91 
Q 1303 -91 875 529 
Q 447 1150 447 2328 
Q 447 3434 972 4092 
Q 1497 4750 2381 4750 
Q 2619 4750 2861 4703 
Q 3103 4656 3366 4563 
z
" transform="scale(0.015625)"/>
       </defs>
       <use xlink:href="#DejaVuSans-30"/>
       <use xlink:href="#DejaVuSans-2e" x="63.623047"/>
       <use xlink:href="#DejaVuSans-36" x="95.410156"/>
      </g>
     </g>
    </g>
    <g id="ytick_5">
     <g id="line2d_5">
      <path d="M 47.81 165.49697 
L 450 165.49697 
" clip-path="url(#p6aa58e81e8)" style="fill: none; stroke: #cccccc; stroke-width: 0.8; stroke-linecap: round"/>
     </g>
     <g id="text_8">
      <!-- 0.8 -->
      <g style="fill: #262626" transform="translate(24.906875 169.296188)scale(0.1 -0.1)">
       <defs>
        <path id="DejaVuSans-38" d="M 2034 2216 
Q 1584 2216 1326 1975 
Q 1069 1734 1069 1313 
Q 1069 891 1326 650 
Q 1584 409 2034 409 
Q 2484 409 2743 651 
Q 3003 894 3003 1313 
Q 3003 1734 2745 1975 
Q 2488 2216 2034 2216 
z
M 1403 2484 
Q 997 2584 770 2862 
Q 544 3141 544 3541 
Q 544 4100 942 4425 
Q 1341 4750 2034 4750 
Q 2731 4750 3128 4425 
Q 3525 4100 3525 3541 
Q 3525 3141 3298 2862 
Q 3072 2584 2669 2484 
Q 3125 2378 3379 2068 
Q 3634 1759 3634 1313 
Q 3634 634 3220 271 
Q 2806 -91 2034 -91 
Q 1263 -91 848 271 
Q 434 634 434 1313 
Q 434 1759 690 2068 
Q 947 2378 1403 2484 
z
M 1172 3481 
Q 1172 3119 1398 2916 
Q 1625 2713 2034 2713 
Q 2441 2713 2670 2916 
Q 2900 3119 2900 3481 
Q 2900 3844 2670 4047 
Q 2441 4250 2034 4250 
Q 1625 4250 1398 4047 
Q 1172 3844 1172 3481 
z
" transform="scale(0.015625)"/>
       </defs>
       <use xlink:href="#DejaVuSans-30"/>
       <use xlink:href="#DejaVuSans-2e" x="63.623047"/>
       <use xlink:href="#DejaVuSans-38" x="95.410156"/>
      </g>
     </g>
    </g>
    <g id="ytick_6">
     <g id="line2d_6">
      <path d="M 47.81 130.961212 
L 450 130.961212 
" clip-path="url(#p6aa58e81e8)" style="fill: none; stroke: #cccccc; stroke-width: 0.8; stroke-linecap: round"/>
     </g>
     <g id="text_9">
      <!-- 1.0 -->
      <g style="fill: #262626" transform="translate(24.906875 134.760431)scale(0.1 -0.1)">
       <defs>
        <path id="DejaVuSans-31" d="M 794 531 
L 1825 531 
L 1825 4091 
L 703 3866 
L 703 4441 
L 1819 4666 
L 2450 4666 
L 2450 531 
L 3481 531 
L 3481 0 
L 794 0 
L 794 531 
z
" transform="scale(0.015625)"/>
       </defs>
       <use xlink:href="#DejaVuSans-31"/>
       <use xlink:href="#DejaVuSans-2e" x="63.623047"/>
       <use xlink:href="#DejaVuSans-30" x="95.410156"/>
      </g>
     </g>
    </g>
    <g id="ytick_7">
     <g id="line2d_7">
      <path d="M 47.81 96.425455 
L 450 96.425455 
" clip-path="url(#p6aa58e81e8)" style="fill: none; stroke: #cccccc; stroke-width: 0.8; stroke-linecap: round"/>
     </g>
     <g id="text_10">
      <!-- 1.2 -->
      <g style="fill: #262626" transform="translate(24.906875 100.224673)scale(0.1 -0.1)">
       <use xlink:href="#DejaVuSans-31"/>
       <use xlink:href="#DejaVuSans-2e" x="63.623047"/>
       <use xlink:href="#DejaVuSans-32" x="95.410156"/>
      </g>
     </g>
    </g>
    <g id="ytick_8">
     <g id="line2d_8">
      <path d="M 47.81 61.889697 
L 450 61.889697 
" clip-path="url(#p6aa58e81e8)" style="fill: none; stroke: #cccccc; stroke-width: 0.8; stroke-linecap: round"/>
     </g>
     <g id="text_11">
      <!-- 1.4 -->
      <g style="fill: #262626" transform="translate(24.906875 65.688916)scale(0.1 -0.1)">
       <use xlink:href="#DejaVuSans-31"/>
       <use xlink:href="#DejaVuSans-2e" x="63.623047"/>
       <use xlink:href="#DejaVuSans-34" x="95.410156"/>
      </g>
     </g>
    </g>
    <g id="ytick_9">
     <g id="line2d_9">
      <path d="M 47.81 27.353939 
L 450 27.353939 
" clip-path="url(#p6aa58e81e8)" style="fill: none; stroke: #cccccc; stroke-width: 0.8; stroke-linecap: round"/>
     </g>
     <g id="text_12">
      <!-- 1.6 -->
      <g style="fill: #262626" transform="translate(24.906875 31.153158)scale(0.1 -0.1)">
       <use xlink:href="#DejaVuSans-31"/>
       <use xlink:href="#DejaVuSans-2e" x="63.623047"/>
       <use xlink:href="#DejaVuSans-36" x="95.410156"/>
      </g>
     </g>
    </g>
    <g id="text_13">
     <!-- PercentGpA -->
     <g style="fill: #262626" transform="translate(18.827187 194.773532)rotate(-90)scale(0.1 -0.1)">
      <defs>
       <path id="DejaVuSans-50" d="M 1259 4147 
L 1259 2394 
L 2053 2394 
Q 2494 2394 2734 2622 
Q 2975 2850 2975 3272 
Q 2975 3691 2734 3919 
Q 2494 4147 2053 4147 
L 1259 4147 
z
M 628 4666 
L 2053 4666 
Q 2838 4666 3239 4311 
Q 3641 3956 3641 3272 
Q 3641 2581 3239 2228 
Q 2838 1875 2053 1875 
L 1259 1875 
L 1259 0 
L 628 0 
L 628 4666 
z
" transform="scale(0.015625)"/>
       <path id="DejaVuSans-65" d="M 3597 1894 
L 3597 1613 
L 953 1613 
Q 991 1019 1311 708 
Q 1631 397 2203 397 
Q 2534 397 2845 478 
Q 3156 559 3463 722 
L 3463 178 
Q 3153 47 2828 -22 
Q 2503 -91 2169 -91 
Q 1331 -91 842 396 
Q 353 884 353 1716 
Q 353 2575 817 3079 
Q 1281 3584 2069 3584 
Q 2775 3584 3186 3129 
Q 3597 2675 3597 1894 
z
M 3022 2063 
Q 3016 2534 2758 2815 
Q 2500 3097 2075 3097 
Q 1594 3097 1305 2825 
Q 1016 2553 972 2059 
L 3022 2063 
z
" transform="scale(0.015625)"/>
       <path id="DejaVuSans-72" d="M 2631 2963 
Q 2534 3019 2420 3045 
Q 2306 3072 2169 3072 
Q 1681 3072 1420 2755 
Q 1159 2438 1159 1844 
L 1159 0 
L 581 0 
L 581 3500 
L 1159 3500 
L 1159 2956 
Q 1341 3275 1631 3429 
Q 1922 3584 2338 3584 
Q 2397 3584 2469 3576 
Q 2541 3569 2628 3553 
L 2631 2963 
z
" transform="scale(0.015625)"/>
       <path id="DejaVuSans-63" d="M 3122 3366 
L 3122 2828 
Q 2878 2963 2633 3030 
Q 2388 3097 2138 3097 
Q 1578 3097 1268 2742 
Q 959 2388 959 1747 
Q 959 1106 1268 751 
Q 1578 397 2138 397 
Q 2388 397 2633 464 
Q 2878 531 3122 666 
L 3122 134 
Q 2881 22 2623 -34 
Q 2366 -91 2075 -91 
Q 1284 -91 818 406 
Q 353 903 353 1747 
Q 353 2603 823 3093 
Q 1294 3584 2113 3584 
Q 2378 3584 2631 3529 
Q 2884 3475 3122 3366 
z
" transform="scale(0.015625)"/>
       <path id="DejaVuSans-6e" d="M 3513 2113 
L 3513 0 
L 2938 0 
L 2938 2094 
Q 2938 2591 2744 2837 
Q 2550 3084 2163 3084 
Q 1697 3084 1428 2787 
Q 1159 2491 1159 1978 
L 1159 0 
L 581 0 
L 581 3500 
L 1159 3500 
L 1159 2956 
Q 1366 3272 1645 3428 
Q 1925 3584 2291 3584 
Q 2894 3584 3203 3211 
Q 3513 2838 3513 2113 
z
" transform="scale(0.015625)"/>
       <path id="DejaVuSans-74" d="M 1172 4494 
L 1172 3500 
L 2356 3500 
L 2356 3053 
L 1172 3053 
L 1172 1153 
Q 1172 725 1289 603 
Q 1406 481 1766 481 
L 2356 481 
L 2356 0 
L 1766 0 
Q 1100 0 847 248 
Q 594 497 594 1153 
L 594 3053 
L 172 3053 
L 172 3500 
L 594 3500 
L 594 4494 
L 1172 4494 
z
" transform="scale(0.015625)"/>
       <path id="DejaVuSans-47" d="M 3809 666 
L 3809 1919 
L 2778 1919 
L 2778 2438 
L 4434 2438 
L 4434 434 
Q 4069 175 3628 42 
Q 3188 -91 2688 -91 
Q 1594 -91 976 548 
Q 359 1188 359 2328 
Q 359 3472 976 4111 
Q 1594 4750 2688 4750 
Q 3144 4750 3555 4637 
Q 3966 4525 4313 4306 
L 4313 3634 
Q 3963 3931 3569 4081 
Q 3175 4231 2741 4231 
Q 1884 4231 1454 3753 
Q 1025 3275 1025 2328 
Q 1025 1384 1454 906 
Q 1884 428 2741 428 
Q 3075 428 3337 486 
Q 3600 544 3809 666 
z
" transform="scale(0.015625)"/>
       <path id="DejaVuSans-70" d="M 1159 525 
L 1159 -1331 
L 581 -1331 
L 581 3500 
L 1159 3500 
L 1159 2969 
Q 1341 3281 1617 3432 
Q 1894 3584 2278 3584 
Q 2916 3584 3314 3078 
Q 3713 2572 3713 1747 
Q 3713 922 3314 415 
Q 2916 -91 2278 -91 
Q 1894 -91 1617 61 
Q 1341 213 1159 525 
z
M 3116 1747 
Q 3116 2381 2855 2742 
Q 2594 3103 2138 3103 
Q 1681 3103 1420 2742 
Q 1159 2381 1159 1747 
Q 1159 1113 1420 752 
Q 1681 391 2138 391 
Q 2594 391 2855 752 
Q 3116 1113 3116 1747 
z
" transform="scale(0.015625)"/>
      </defs>
      <use xlink:href="#DejaVuSans-50"/>
      <use xlink:href="#DejaVuSans-65" x="56.677734"/>
      <use xlink:href="#DejaVuSans-72" x="118.201172"/>
      <use xlink:href="#DejaVuSans-63" x="157.064453"/>
      <use xlink:href="#DejaVuSans-65" x="212.044922"/>
      <use xlink:href="#DejaVuSans-6e" x="273.568359"/>
      <use xlink:href="#DejaVuSans-74" x="336.947266"/>
      <use xlink:href="#DejaVuSans-47" x="376.15625"/>
      <use xlink:href="#DejaVuSans-70" x="453.646484"/>
      <use xlink:href="#DejaVuSans-41" x="517.123047"/>
     </g>
    </g>
   </g>
   <g id="patch_3">
    <path d="M 68.72388 271.070837 
L 147.55312 271.070837 
L 147.55312 253.272449 
L 68.72388 253.272449 
L 68.72388 271.070837 
z
" clip-path="url(#p6aa58e81e8)" style="fill: #ecf2ec; stroke: #262626; stroke-width: 1.5; stroke-linejoin: miter"/>
   </g>
   <g id="patch_4">
    <path d="M 149.16188 259.161099 
L 227.99112 259.161099 
L 227.99112 242.156639 
L 149.16188 242.156639 
L 149.16188 259.161099 
z
" clip-path="url(#p6aa58e81e8)" style="fill: #107010; stroke: #262626; stroke-width: 1.5; stroke-linejoin: miter"/>
   </g>
   <g id="patch_5">
    <path d="M 269.81888 248.702325 
L 348.64812 248.702325 
L 348.64812 224.256595 
L 269.81888 224.256595 
L 269.81888 248.702325 
z
" clip-path="url(#p6aa58e81e8)" style="fill: #ecf2ec; stroke: #262626; stroke-width: 1.5; stroke-linejoin: miter"/>
   </g>
   <g id="patch_6">
    <path d="M 350.25688 267.413865 
L 429.08612 267.413865 
L 429.08612 243.76181 
L 350.25688 243.76181 
L 350.25688 267.413865 
z
" clip-path="url(#p6aa58e81e8)" style="fill: #107010; stroke: #262626; stroke-width: 1.5; stroke-linejoin: miter"/>
   </g>
   <g id="patch_7">
    <path d="M 148.3575 303.64 
L 148.3575 303.64 
L 148.3575 303.64 
L 148.3575 303.64 
z
" clip-path="url(#p6aa58e81e8)" style="fill: #ecf2ec; stroke: #262626; stroke-width: 0.75; stroke-linejoin: miter"/>
   </g>
   <g id="patch_8">
    <path d="M 148.3575 303.64 
L 148.3575 303.64 
L 148.3575 303.64 
L 148.3575 303.64 
z
" clip-path="url(#p6aa58e81e8)" style="fill: #107010; stroke: #262626; stroke-width: 0.75; stroke-linejoin: miter"/>
   </g>
   <g id="PathCollection_1"/>
   <g id="PathCollection_2"/>
   <g id="line2d_10">
    <path d="M 108.1385 271.070837 
L 108.1385 287.208767 
" clip-path="url(#p6aa58e81e8)" style="fill: none; stroke: #262626; stroke-width: 1.5; stroke-linecap: round"/>
   </g>
   <g id="line2d_11">
    <path d="M 108.1385 253.272449 
L 108.1385 233.903388 
" clip-path="url(#p6aa58e81e8)" style="fill: none; stroke: #262626; stroke-width: 1.5; stroke-linecap: round"/>
   </g>
   <g id="line2d_12">
    <path d="M 88.43119 287.208767 
L 127.84581 287.208767 
" clip-path="url(#p6aa58e81e8)" style="fill: none; stroke: #262626; stroke-width: 1.5; stroke-linecap: round"/>
   </g>
   <g id="line2d_13">
    <path d="M 88.43119 233.903388 
L 127.84581 233.903388 
" clip-path="url(#p6aa58e81e8)" style="fill: none; stroke: #262626; stroke-width: 1.5; stroke-linecap: round"/>
   </g>
   <g id="line2d_14"/>
   <g id="line2d_15">
    <path d="M 188.5765 259.161099 
L 188.5765 271.868086 
" clip-path="url(#p6aa58e81e8)" style="fill: none; stroke: #262626; stroke-width: 1.5; stroke-linecap: round"/>
   </g>
   <g id="line2d_16">
    <path d="M 188.5765 242.156639 
L 188.5765 225.160495 
" clip-path="url(#p6aa58e81e8)" style="fill: none; stroke: #262626; stroke-width: 1.5; stroke-linecap: round"/>
   </g>
   <g id="line2d_17">
    <path d="M 168.86919 271.868086 
L 208.28381 271.868086 
" clip-path="url(#p6aa58e81e8)" style="fill: none; stroke: #262626; stroke-width: 1.5; stroke-linecap: round"/>
   </g>
   <g id="line2d_18">
    <path d="M 168.86919 225.160495 
L 208.28381 225.160495 
" clip-path="url(#p6aa58e81e8)" style="fill: none; stroke: #262626; stroke-width: 1.5; stroke-linecap: round"/>
   </g>
   <g id="line2d_19"/>
   <g id="line2d_20">
    <path d="M 309.2335 248.702325 
L 309.2335 275.088845 
" clip-path="url(#p6aa58e81e8)" style="fill: none; stroke: #262626; stroke-width: 1.5; stroke-linecap: round"/>
   </g>
   <g id="line2d_21">
    <path d="M 309.2335 224.256595 
L 309.2335 200.637695 
" clip-path="url(#p6aa58e81e8)" style="fill: none; stroke: #262626; stroke-width: 1.5; stroke-linecap: round"/>
   </g>
   <g id="line2d_22">
    <path d="M 289.52619 275.088845 
L 328.94081 275.088845 
" clip-path="url(#p6aa58e81e8)" style="fill: none; stroke: #262626; stroke-width: 1.5; stroke-linecap: round"/>
   </g>
   <g id="line2d_23">
    <path d="M 289.52619 200.637695 
L 328.94081 200.637695 
" clip-path="url(#p6aa58e81e8)" style="fill: none; stroke: #262626; stroke-width: 1.5; stroke-linecap: round"/>
   </g>
   <g id="line2d_24"/>
   <g id="line2d_25">
    <path d="M 389.6715 267.413865 
L 389.6715 269.221425 
" clip-path="url(#p6aa58e81e8)" style="fill: none; stroke: #262626; stroke-width: 1.5; stroke-linecap: round"/>
   </g>
   <g id="line2d_26">
    <path d="M 389.6715 243.76181 
L 389.6715 226.891717 
" clip-path="url(#p6aa58e81e8)" style="fill: none; stroke: #262626; stroke-width: 1.5; stroke-linecap: round"/>
   </g>
   <g id="line2d_27">
    <path d="M 369.96419 269.221425 
L 409.37881 269.221425 
" clip-path="url(#p6aa58e81e8)" style="fill: none; stroke: #262626; stroke-width: 1.5; stroke-linecap: round"/>
   </g>
   <g id="line2d_28">
    <path d="M 369.96419 226.891717 
L 409.37881 226.891717 
" clip-path="url(#p6aa58e81e8)" style="fill: none; stroke: #262626; stroke-width: 1.5; stroke-linecap: round"/>
   </g>
   <g id="line2d_29"/>
   <g id="line2d_30">
    <path d="M 68.72388 264.887107 
L 147.55312 264.887107 
" clip-path="url(#p6aa58e81e8)" style="fill: none; stroke: #262626; stroke-width: 1.5; stroke-linecap: round"/>
   </g>
   <g id="line2d_31">
    <path d="M 149.16188 257.758955 
L 227.99112 257.758955 
" clip-path="url(#p6aa58e81e8)" style="fill: none; stroke: #262626; stroke-width: 1.5; stroke-linecap: round"/>
   </g>
   <g id="line2d_32">
    <path d="M 269.81888 238.811704 
L 348.64812 238.811704 
" clip-path="url(#p6aa58e81e8)" style="fill: none; stroke: #262626; stroke-width: 1.5; stroke-linecap: round"/>
   </g>
   <g id="line2d_33">
    <path d="M 350.25688 258.320998 
L 429.08612 258.320998 
" clip-path="url(#p6aa58e81e8)" style="fill: none; stroke: #262626; stroke-width: 1.5; stroke-linecap: round"/>
   </g>
   <g id="patch_9">
    <path d="M 47.81 303.64 
L 47.81 27.353939 
" style="fill: none; stroke: #cccccc; stroke-width: 0.8; stroke-linejoin: miter; stroke-linecap: square"/>
   </g>
   <g id="patch_10">
    <path d="M 450 303.64 
L 450 27.353939 
" style="fill: none; stroke: #cccccc; stroke-width: 0.8; stroke-linejoin: miter; stroke-linecap: square"/>
   </g>
   <g id="patch_11">
    <path d="M 47.81 303.64 
L 450 303.64 
" style="fill: none; stroke: #cccccc; stroke-width: 0.8; stroke-linejoin: miter; stroke-linecap: square"/>
   </g>
   <g id="patch_12">
    <path d="M 47.81 27.353939 
L 450 27.353939 
" style="fill: none; stroke: #cccccc; stroke-width: 0.8; stroke-linejoin: miter; stroke-linecap: square"/>
   </g>
   <g id="PathCollection_3">
    <defs>
     <path id="C0_0_e82cdd76bf" d="M 0 1 
C 0.265203 1 0.51958 0.894634 0.707107 0.707107 
C 0.894634 0.51958 1 0.265203 1 -0 
C 1 -0.265203 0.894634 -0.51958 0.707107 -0.707107 
C 0.51958 -0.894634 0.265203 -1 0 -1 
C -0.265203 -1 -0.51958 -0.894634 -0.707107 -0.707107 
C -0.894634 -0.51958 -1 -0.265203 -1 0 
C -1 0.265203 -0.894634 0.51958 -0.707107 0.707107 
C -0.51958 0.894634 -0.265203 1 0 1 
z
"/>
    </defs>
    <g clip-path="url(#p6aa58e81e8)">
     <use xlink:href="#C0_0_e82cdd76bf" x="106.290488" y="264.764459" style="fill: #262626"/>
    </g>
    <g clip-path="url(#p6aa58e81e8)">
     <use xlink:href="#C0_0_e82cdd76bf" x="114.659908" y="273.145214" style="fill: #262626"/>
    </g>
    <g clip-path="url(#p6aa58e81e8)">
     <use xlink:href="#C0_0_e82cdd76bf" x="116.81802" y="244.638917" style="fill: #262626"/>
    </g>
    <g clip-path="url(#p6aa58e81e8)">
     <use xlink:href="#C0_0_e82cdd76bf" x="117.57904" y="266.75341" style="fill: #262626"/>
    </g>
    <g clip-path="url(#p6aa58e81e8)">
     <use xlink:href="#C0_0_e82cdd76bf" x="111.048239" y="264.109811" style="fill: #262626"/>
    </g>
    <g clip-path="url(#p6aa58e81e8)">
     <use xlink:href="#C0_0_e82cdd76bf" x="105.882806" y="257.867378" style="fill: #262626"/>
    </g>
    <g clip-path="url(#p6aa58e81e8)">
     <use xlink:href="#C0_0_e82cdd76bf" x="107.255019" y="269.153801" style="fill: #262626"/>
    </g>
    <g clip-path="url(#p6aa58e81e8)">
     <use xlink:href="#C0_0_e82cdd76bf" x="100.841496" y="260.835394" style="fill: #262626"/>
    </g>
    <g clip-path="url(#p6aa58e81e8)">
     <use xlink:href="#C0_0_e82cdd76bf" x="116.599173" y="247.146864" style="fill: #262626"/>
    </g>
    <g clip-path="url(#p6aa58e81e8)">
     <use xlink:href="#C0_0_e82cdd76bf" x="104.686048" y="250.650155" style="fill: #262626"/>
    </g>
    <g clip-path="url(#p6aa58e81e8)">
     <use xlink:href="#C0_0_e82cdd76bf" x="106.393458" y="261.603275" style="fill: #262626"/>
    </g>
    <g clip-path="url(#p6aa58e81e8)">
     <use xlink:href="#C0_0_e82cdd76bf" x="98.798628" y="250.960128" style="fill: #262626"/>
    </g>
    <g clip-path="url(#p6aa58e81e8)">
     <use xlink:href="#C0_0_e82cdd76bf" x="98.991921" y="265.272842" style="fill: #262626"/>
    </g>
    <g clip-path="url(#p6aa58e81e8)">
     <use xlink:href="#C0_0_e82cdd76bf" x="103.439191" y="287.208767" style="fill: #262626"/>
    </g>
    <g clip-path="url(#p6aa58e81e8)">
     <use xlink:href="#C0_0_e82cdd76bf" x="104.77329" y="236.09879" style="fill: #262626"/>
    </g>
    <g clip-path="url(#p6aa58e81e8)">
     <use xlink:href="#C0_0_e82cdd76bf" x="107.230224" y="233.903388" style="fill: #262626"/>
    </g>
    <g clip-path="url(#p6aa58e81e8)">
     <use xlink:href="#C0_0_e82cdd76bf" x="106.975636" y="253.740451" style="fill: #262626"/>
    </g>
    <g clip-path="url(#p6aa58e81e8)">
     <use xlink:href="#C0_0_e82cdd76bf" x="101.619742" y="252.856175" style="fill: #262626"/>
    </g>
    <g clip-path="url(#p6aa58e81e8)">
     <use xlink:href="#C0_0_e82cdd76bf" x="103.569172" y="260.806146" style="fill: #262626"/>
    </g>
    <g clip-path="url(#p6aa58e81e8)">
     <use xlink:href="#C0_0_e82cdd76bf" x="98.699683" y="271.649927" style="fill: #262626"/>
    </g>
    <g clip-path="url(#p6aa58e81e8)">
     <use xlink:href="#C0_0_e82cdd76bf" x="104.006921" y="263.916219" style="fill: #262626"/>
    </g>
    <g clip-path="url(#p6aa58e81e8)">
     <use xlink:href="#C0_0_e82cdd76bf" x="104.358506" y="268.513857" style="fill: #262626"/>
    </g>
    <g clip-path="url(#p6aa58e81e8)">
     <use xlink:href="#C0_0_e82cdd76bf" x="106.539251" y="273.591477" style="fill: #262626"/>
    </g>
    <g clip-path="url(#p6aa58e81e8)">
     <use xlink:href="#C0_0_e82cdd76bf" x="108.033901" y="278.048858" style="fill: #262626"/>
    </g>
    <g clip-path="url(#p6aa58e81e8)">
     <use xlink:href="#C0_0_e82cdd76bf" x="117.828323" y="253.116449" style="fill: #262626"/>
    </g>
    <g clip-path="url(#p6aa58e81e8)">
     <use xlink:href="#C0_0_e82cdd76bf" x="102.826353" y="268.563039" style="fill: #262626"/>
    </g>
    <g clip-path="url(#p6aa58e81e8)">
     <use xlink:href="#C0_0_e82cdd76bf" x="98.430536" y="236.633146" style="fill: #262626"/>
    </g>
    <g clip-path="url(#p6aa58e81e8)">
     <use xlink:href="#C0_0_e82cdd76bf" x="107.308479" y="271.139906" style="fill: #262626"/>
    </g>
    <g clip-path="url(#p6aa58e81e8)">
     <use xlink:href="#C0_0_e82cdd76bf" x="110.050908" y="265.009755" style="fill: #262626"/>
    </g>
    <g clip-path="url(#p6aa58e81e8)">
     <use xlink:href="#C0_0_e82cdd76bf" x="116.601863" y="265.565885" style="fill: #262626"/>
    </g>
    <g clip-path="url(#p6aa58e81e8)">
     <use xlink:href="#C0_0_e82cdd76bf" x="115.427461" y="236.657401" style="fill: #262626"/>
    </g>
    <g clip-path="url(#p6aa58e81e8)">
     <use xlink:href="#C0_0_e82cdd76bf" x="115.348451" y="281.726934" style="fill: #262626"/>
    </g>
    <g clip-path="url(#p6aa58e81e8)">
     <use xlink:href="#C0_0_e82cdd76bf" x="112.630752" y="276.247098" style="fill: #262626"/>
    </g>
    <g clip-path="url(#p6aa58e81e8)">
     <use xlink:href="#C0_0_e82cdd76bf" x="112.100421" y="271.085597" style="fill: #262626"/>
    </g>
    <g clip-path="url(#p6aa58e81e8)">
     <use xlink:href="#C0_0_e82cdd76bf" x="104.110252" y="234.523287" style="fill: #262626"/>
    </g>
    <g clip-path="url(#p6aa58e81e8)">
     <use xlink:href="#C0_0_e82cdd76bf" x="98.875718" y="282.791407" style="fill: #262626"/>
    </g>
    <g clip-path="url(#p6aa58e81e8)">
     <use xlink:href="#C0_0_e82cdd76bf" x="118.133168" y="266.376531" style="fill: #262626"/>
    </g>
    <g clip-path="url(#p6aa58e81e8)">
     <use xlink:href="#C0_0_e82cdd76bf" x="114.99431" y="261.146799" style="fill: #262626"/>
    </g>
    <g clip-path="url(#p6aa58e81e8)">
     <use xlink:href="#C0_0_e82cdd76bf" x="106.021276" y="266.819103" style="fill: #262626"/>
    </g>
    <g clip-path="url(#p6aa58e81e8)">
     <use xlink:href="#C0_0_e82cdd76bf" x="110.797295" y="273.959599" style="fill: #262626"/>
    </g>
    <g clip-path="url(#p6aa58e81e8)">
     <use xlink:href="#C0_0_e82cdd76bf" x="105.677298" y="271.026557" style="fill: #262626"/>
    </g>
    <g clip-path="url(#p6aa58e81e8)">
     <use xlink:href="#C0_0_e82cdd76bf" x="112.40068" y="263.359738" style="fill: #262626"/>
    </g>
   </g>
   <g id="PathCollection_4">
    <defs>
     <path id="C1_0_99360d009a" d="M 0 1 
C 0.265203 1 0.51958 0.894634 0.707107 0.707107 
C 0.894634 0.51958 1 0.265203 1 -0 
C 1 -0.265203 0.894634 -0.51958 0.707107 -0.707107 
C 0.51958 -0.894634 0.265203 -1 0 -1 
C -0.265203 -1 -0.51958 -0.894634 -0.707107 -0.707107 
C -0.894634 -0.51958 -1 -0.265203 -1 0 
C -1 0.265203 -0.894634 0.51958 -0.707107 0.707107 
C -0.51958 0.894634 -0.265203 1 0 1 
z
"/>
    </defs>
    <g clip-path="url(#p6aa58e81e8)">
     <use xlink:href="#C1_0_99360d009a" x="182.898952" y="258.04516"/>
    </g>
    <g clip-path="url(#p6aa58e81e8)">
     <use xlink:href="#C1_0_99360d009a" x="192.373867" y="258.729871"/>
    </g>
    <g clip-path="url(#p6aa58e81e8)">
     <use xlink:href="#C1_0_99360d009a" x="190.710915" y="257.758955"/>
    </g>
    <g clip-path="url(#p6aa58e81e8)">
     <use xlink:href="#C1_0_99360d009a" x="195.386841" y="271.868086"/>
    </g>
    <g clip-path="url(#p6aa58e81e8)">
     <use xlink:href="#C1_0_99360d009a" x="185.725908" y="226.574109"/>
    </g>
    <g clip-path="url(#p6aa58e81e8)">
     <use xlink:href="#C1_0_99360d009a" x="194.986302" y="250.506465"/>
    </g>
    <g clip-path="url(#p6aa58e81e8)">
     <use xlink:href="#C1_0_99360d009a" x="190.150439" y="234.464677"/>
    </g>
    <g clip-path="url(#p6aa58e81e8)">
     <use xlink:href="#C1_0_99360d009a" x="183.295403" y="249.848602"/>
    </g>
    <g clip-path="url(#p6aa58e81e8)">
     <use xlink:href="#C1_0_99360d009a" x="179.267173" y="267.548492"/>
    </g>
    <g clip-path="url(#p6aa58e81e8)">
     <use xlink:href="#C1_0_99360d009a" x="194.3188" y="258.81341"/>
    </g>
    <g clip-path="url(#p6aa58e81e8)">
     <use xlink:href="#C1_0_99360d009a" x="184.026772" y="227.973157"/>
    </g>
    <g clip-path="url(#p6aa58e81e8)">
     <use xlink:href="#C1_0_99360d009a" x="187.365164" y="270.253169"/>
    </g>
    <g clip-path="url(#p6aa58e81e8)">
     <use xlink:href="#C1_0_99360d009a" x="183.081988" y="255.421255"/>
    </g>
    <g clip-path="url(#p6aa58e81e8)">
     <use xlink:href="#C1_0_99360d009a" x="187.90159" y="225.160495"/>
    </g>
    <g clip-path="url(#p6aa58e81e8)">
     <use xlink:href="#C1_0_99360d009a" x="185.014719" y="259.508789"/>
    </g>
   </g>
   <g id="PathCollection_5">
    <defs>
     <path id="C2_0_cfe8b21cfa" d="M 0 1 
C 0.265203 1 0.51958 0.894634 0.707107 0.707107 
C 0.894634 0.51958 1 0.265203 1 -0 
C 1 -0.265203 0.894634 -0.51958 0.707107 -0.707107 
C 0.51958 -0.894634 0.265203 -1 0 -1 
C -0.265203 -1 -0.51958 -0.894634 -0.707107 -0.707107 
C -0.894634 -0.51958 -1 -0.265203 -1 0 
C -1 0.265203 -0.894634 0.51958 -0.707107 0.707107 
C -0.51958 0.894634 -0.265203 1 0 1 
z
"/>
    </defs>
    <g clip-path="url(#p6aa58e81e8)">
     <use xlink:href="#C2_0_cfe8b21cfa" x="299.623542" y="222.24662" style="fill: #262626"/>
    </g>
    <g clip-path="url(#p6aa58e81e8)">
     <use xlink:href="#C2_0_cfe8b21cfa" x="309.814669" y="231.71533" style="fill: #262626"/>
    </g>
    <g clip-path="url(#p6aa58e81e8)">
     <use xlink:href="#C2_0_cfe8b21cfa" x="312.948153" y="243.440493" style="fill: #262626"/>
    </g>
    <g clip-path="url(#p6aa58e81e8)">
     <use xlink:href="#C2_0_cfe8b21cfa" x="303.951411" y="256.524792" style="fill: #262626"/>
    </g>
    <g clip-path="url(#p6aa58e81e8)">
     <use xlink:href="#C2_0_cfe8b21cfa" x="314.311564" y="213.501868" style="fill: #262626"/>
    </g>
    <g clip-path="url(#p6aa58e81e8)">
     <use xlink:href="#C2_0_cfe8b21cfa" x="317.485778" y="229.651805" style="fill: #262626"/>
    </g>
    <g clip-path="url(#p6aa58e81e8)">
     <use xlink:href="#C2_0_cfe8b21cfa" x="301.19725" y="244.604865" style="fill: #262626"/>
    </g>
    <g clip-path="url(#p6aa58e81e8)">
     <use xlink:href="#C2_0_cfe8b21cfa" x="318.776705" y="248.702325" style="fill: #262626"/>
    </g>
    <g clip-path="url(#p6aa58e81e8)">
     <use xlink:href="#C2_0_cfe8b21cfa" x="300.592436" y="236.203219" style="fill: #262626"/>
    </g>
    <g clip-path="url(#p6aa58e81e8)">
     <use xlink:href="#C2_0_cfe8b21cfa" x="314.66479" y="231.009207" style="fill: #262626"/>
    </g>
    <g clip-path="url(#p6aa58e81e8)">
     <use xlink:href="#C2_0_cfe8b21cfa" x="315.717203" y="227.925195" style="fill: #262626"/>
    </g>
    <g clip-path="url(#p6aa58e81e8)">
     <use xlink:href="#C2_0_cfe8b21cfa" x="310.370769" y="275.088845" style="fill: #262626"/>
    </g>
    <g clip-path="url(#p6aa58e81e8)">
     <use xlink:href="#C2_0_cfe8b21cfa" x="307.192744" y="210.048116" style="fill: #262626"/>
    </g>
    <g clip-path="url(#p6aa58e81e8)">
     <use xlink:href="#C2_0_cfe8b21cfa" x="318.911673" y="274.154577" style="fill: #262626"/>
    </g>
    <g clip-path="url(#p6aa58e81e8)">
     <use xlink:href="#C2_0_cfe8b21cfa" x="310.327933" y="260.466238" style="fill: #262626"/>
    </g>
    <g clip-path="url(#p6aa58e81e8)">
     <use xlink:href="#C2_0_cfe8b21cfa" x="316.49938" y="242.207266" style="fill: #262626"/>
    </g>
    <g clip-path="url(#p6aa58e81e8)">
     <use xlink:href="#C2_0_cfe8b21cfa" x="301.993916" y="200.637695" style="fill: #262626"/>
    </g>
    <g clip-path="url(#p6aa58e81e8)">
     <use xlink:href="#C2_0_cfe8b21cfa" x="309.281684" y="217.992993" style="fill: #262626"/>
    </g>
    <g clip-path="url(#p6aa58e81e8)">
     <use xlink:href="#C2_0_cfe8b21cfa" x="308.667574" y="234.662156" style="fill: #262626"/>
    </g>
    <g clip-path="url(#p6aa58e81e8)">
     <use xlink:href="#C2_0_cfe8b21cfa" x="318.738582" y="218.264094" style="fill: #262626"/>
    </g>
    <g clip-path="url(#p6aa58e81e8)">
     <use xlink:href="#C2_0_cfe8b21cfa" x="319.088069" y="230.376516" style="fill: #262626"/>
    </g>
    <g clip-path="url(#p6aa58e81e8)">
     <use xlink:href="#C2_0_cfe8b21cfa" x="309.054916" y="240.661362" style="fill: #262626"/>
    </g>
    <g clip-path="url(#p6aa58e81e8)">
     <use xlink:href="#C2_0_cfe8b21cfa" x="318.619491" y="242.264102" style="fill: #262626"/>
    </g>
    <g clip-path="url(#p6aa58e81e8)">
     <use xlink:href="#C2_0_cfe8b21cfa" x="300.478854" y="217.380934" style="fill: #262626"/>
    </g>
    <g clip-path="url(#p6aa58e81e8)">
     <use xlink:href="#C2_0_cfe8b21cfa" x="315.418788" y="217.544941" style="fill: #262626"/>
    </g>
    <g clip-path="url(#p6aa58e81e8)">
     <use xlink:href="#C2_0_cfe8b21cfa" x="311.48224" y="248.981114" style="fill: #262626"/>
    </g>
    <g clip-path="url(#p6aa58e81e8)">
     <use xlink:href="#C2_0_cfe8b21cfa" x="310.262635" y="223.350123" style="fill: #262626"/>
    </g>
    <g clip-path="url(#p6aa58e81e8)">
     <use xlink:href="#C2_0_cfe8b21cfa" x="314.902743" y="262.908687" style="fill: #262626"/>
    </g>
    <g clip-path="url(#p6aa58e81e8)">
     <use xlink:href="#C2_0_cfe8b21cfa" x="315.211857" y="241.246548" style="fill: #262626"/>
    </g>
    <g clip-path="url(#p6aa58e81e8)">
     <use xlink:href="#C2_0_cfe8b21cfa" x="308.990761" y="238.811704" style="fill: #262626"/>
    </g>
    <g clip-path="url(#p6aa58e81e8)">
     <use xlink:href="#C2_0_cfe8b21cfa" x="316.030662" y="242.543381" style="fill: #262626"/>
    </g>
    <g clip-path="url(#p6aa58e81e8)">
     <use xlink:href="#C2_0_cfe8b21cfa" x="299.792042" y="244.33052" style="fill: #262626"/>
    </g>
    <g clip-path="url(#p6aa58e81e8)">
     <use xlink:href="#C2_0_cfe8b21cfa" x="312.436886" y="215.000084" style="fill: #262626"/>
    </g>
    <g clip-path="url(#p6aa58e81e8)">
     <use xlink:href="#C2_0_cfe8b21cfa" x="302.793163" y="250.460778" style="fill: #262626"/>
    </g>
    <g clip-path="url(#p6aa58e81e8)">
     <use xlink:href="#C2_0_cfe8b21cfa" x="304.592805" y="235.439698" style="fill: #262626"/>
    </g>
    <g clip-path="url(#p6aa58e81e8)">
     <use xlink:href="#C2_0_cfe8b21cfa" x="311.748714" y="253.355089" style="fill: #262626"/>
    </g>
    <g clip-path="url(#p6aa58e81e8)">
     <use xlink:href="#C2_0_cfe8b21cfa" x="316.906811" y="238.742672" style="fill: #262626"/>
    </g>
    <g clip-path="url(#p6aa58e81e8)">
     <use xlink:href="#C2_0_cfe8b21cfa" x="316.59385" y="241.907216" style="fill: #262626"/>
    </g>
    <g clip-path="url(#p6aa58e81e8)">
     <use xlink:href="#C2_0_cfe8b21cfa" x="318.851803" y="266.707295" style="fill: #262626"/>
    </g>
    <g clip-path="url(#p6aa58e81e8)">
     <use xlink:href="#C2_0_cfe8b21cfa" x="307.050159" y="224.256595" style="fill: #262626"/>
    </g>
    <g clip-path="url(#p6aa58e81e8)">
     <use xlink:href="#C2_0_cfe8b21cfa" x="304.322332" y="251.453468" style="fill: #262626"/>
    </g>
   </g>
   <g id="PathCollection_6">
    <defs>
     <path id="C3_0_0621c3b103" d="M 0 1 
C 0.265203 1 0.51958 0.894634 0.707107 0.707107 
C 0.894634 0.51958 1 0.265203 1 -0 
C 1 -0.265203 0.894634 -0.51958 0.707107 -0.707107 
C 0.51958 -0.894634 0.265203 -1 0 -1 
C -0.265203 -1 -0.51958 -0.894634 -0.707107 -0.707107 
C -0.894634 -0.51958 -1 -0.265203 -1 0 
C -1 0.265203 -0.894634 0.51958 -0.707107 0.707107 
C -0.51958 0.894634 -0.265203 1 0 1 
z
"/>
    </defs>
    <g clip-path="url(#p6aa58e81e8)">
     <use xlink:href="#C3_0_0621c3b103" x="382.047792" y="226.891717"/>
    </g>
    <g clip-path="url(#p6aa58e81e8)">
     <use xlink:href="#C3_0_0621c3b103" x="385.745828" y="269.146973"/>
    </g>
    <g clip-path="url(#p6aa58e81e8)">
     <use xlink:href="#C3_0_0621c3b103" x="388.106738" y="242.420994"/>
    </g>
    <g clip-path="url(#p6aa58e81e8)">
     <use xlink:href="#C3_0_0621c3b103" x="382.978258" y="267.809303"/>
    </g>
    <g clip-path="url(#p6aa58e81e8)">
     <use xlink:href="#C3_0_0621c3b103" x="388.846764" y="269.221425"/>
    </g>
    <g clip-path="url(#p6aa58e81e8)">
     <use xlink:href="#C3_0_0621c3b103" x="398.680971" y="267.282053"/>
    </g>
    <g clip-path="url(#p6aa58e81e8)">
     <use xlink:href="#C3_0_0621c3b103" x="389.921011" y="242.598713"/>
    </g>
    <g clip-path="url(#p6aa58e81e8)">
     <use xlink:href="#C3_0_0621c3b103" x="391.870925" y="243.173139"/>
    </g>
    <g clip-path="url(#p6aa58e81e8)">
     <use xlink:href="#C3_0_0621c3b103" x="391.281693" y="261.347782"/>
    </g>
    <g clip-path="url(#p6aa58e81e8)">
     <use xlink:href="#C3_0_0621c3b103" x="394.630332" y="269.027164"/>
    </g>
    <g clip-path="url(#p6aa58e81e8)">
     <use xlink:href="#C3_0_0621c3b103" x="381.446117" y="263.963901"/>
    </g>
    <g clip-path="url(#p6aa58e81e8)">
     <use xlink:href="#C3_0_0621c3b103" x="383.100195" y="243.958034"/>
    </g>
    <g clip-path="url(#p6aa58e81e8)">
     <use xlink:href="#C3_0_0621c3b103" x="395.501688" y="250.903604"/>
    </g>
    <g clip-path="url(#p6aa58e81e8)">
     <use xlink:href="#C3_0_0621c3b103" x="396.526978" y="258.562904"/>
    </g>
    <g clip-path="url(#p6aa58e81e8)">
     <use xlink:href="#C3_0_0621c3b103" x="383.217414" y="250.567493"/>
    </g>
    <g clip-path="url(#p6aa58e81e8)">
     <use xlink:href="#C3_0_0621c3b103" x="391.579069" y="258.079093"/>
    </g>
   </g>
   <g id="text_14">
    <!-- 42 -->
    <g style="fill: #262626" transform="translate(118.19325 18.72)scale(0.1 -0.1)">
     <use xlink:href="#DejaVuSans-34"/>
     <use xlink:href="#DejaVuSans-32" x="63.623047"/>
    </g>
   </g>
   <g id="text_15">
    <!-- p&lt;.05 -->
    <g style="fill: #262626" transform="translate(105.94075 225.269448)scale(0.08 -0.08)">
     <defs>
      <path id="DejaVuSans-3c" d="M 4684 3150 
L 1459 2003 
L 4684 863 
L 4684 294 
L 678 1747 
L 678 2266 
L 4684 3719 
L 4684 3150 
z
" transform="scale(0.015625)"/>
      <path id="DejaVuSans-35" d="M 691 4666 
L 3169 4666 
L 3169 4134 
L 1269 4134 
L 1269 2991 
Q 1406 3038 1543 3061 
Q 1681 3084 1819 3084 
Q 2600 3084 3056 2656 
Q 3513 2228 3513 1497 
Q 3513 744 3044 326 
Q 2575 -91 1722 -91 
Q 1428 -91 1123 -41 
Q 819 9 494 109 
L 494 744 
Q 775 591 1075 516 
Q 1375 441 1709 441 
Q 2250 441 2565 725 
Q 2881 1009 2881 1497 
Q 2881 1984 2565 2268 
Q 2250 2553 1709 2553 
Q 1456 2553 1204 2497 
Q 953 2441 691 2322 
L 691 4666 
z
" transform="scale(0.015625)"/>
     </defs>
     <use xlink:href="#DejaVuSans-70"/>
     <use xlink:href="#DejaVuSans-3c" x="63.476562"/>
     <use xlink:href="#DejaVuSans-2e" x="147.265625"/>
     <use xlink:href="#DejaVuSans-30" x="179.052734"/>
     <use xlink:href="#DejaVuSans-35" x="242.675781"/>
    </g>
   </g>
   <g id="text_16">
    <!-- 15 -->
    <g style="fill: #262626" transform="translate(178.52175 18.72)scale(0.1 -0.1)">
     <use xlink:href="#DejaVuSans-31"/>
     <use xlink:href="#DejaVuSans-35" x="63.623047"/>
    </g>
   </g>
   <g id="text_17">
    <!-- 41 -->
    <g style="fill: #262626" transform="translate(319.28825 18.72)scale(0.1 -0.1)">
     <use xlink:href="#DejaVuSans-34"/>
     <use xlink:href="#DejaVuSans-31" x="63.623047"/>
    </g>
   </g>
   <g id="text_18">
    <!-- p&lt;.005 -->
    <g style="fill: #262626" transform="translate(304.49075 192.003755)scale(0.08 -0.08)">
     <use xlink:href="#DejaVuSans-70"/>
     <use xlink:href="#DejaVuSans-3c" x="63.476562"/>
     <use xlink:href="#DejaVuSans-2e" x="147.265625"/>
     <use xlink:href="#DejaVuSans-30" x="179.052734"/>
     <use xlink:href="#DejaVuSans-30" x="242.675781"/>
     <use xlink:href="#DejaVuSans-35" x="306.298828"/>
    </g>
   </g>
   <g id="text_19">
    <!-- 16 -->
    <g style="fill: #262626" transform="translate(379.61675 18.72)scale(0.1 -0.1)">
     <use xlink:href="#DejaVuSans-31"/>
     <use xlink:href="#DejaVuSans-36" x="63.623047"/>
    </g>
   </g>
   <g id="legend_1">
    <g id="patch_13">
     <path d="M 377.728125 43.952377 
L 397.728125 43.952377 
L 397.728125 36.952377 
L 377.728125 36.952377 
z
" style="fill: #ecf2ec; stroke: #262626; stroke-width: 0.75; stroke-linejoin: miter"/>
    </g>
    <g id="text_20">
     <!-- Mutant -->
     <g style="fill: #262626" transform="translate(405.728125 43.952377)scale(0.1 -0.1)">
      <defs>
       <path id="DejaVuSans-75" d="M 544 1381 
L 544 3500 
L 1119 3500 
L 1119 1403 
Q 1119 906 1312 657 
Q 1506 409 1894 409 
Q 2359 409 2629 706 
Q 2900 1003 2900 1516 
L 2900 3500 
L 3475 3500 
L 3475 0 
L 2900 0 
L 2900 538 
Q 2691 219 2414 64 
Q 2138 -91 1772 -91 
Q 1169 -91 856 284 
Q 544 659 544 1381 
z
M 1991 3584 
L 1991 3584 
z
" transform="scale(0.015625)"/>
       <path id="DejaVuSans-61" d="M 2194 1759 
Q 1497 1759 1228 1600 
Q 959 1441 959 1056 
Q 959 750 1161 570 
Q 1363 391 1709 391 
Q 2188 391 2477 730 
Q 2766 1069 2766 1631 
L 2766 1759 
L 2194 1759 
z
M 3341 1997 
L 3341 0 
L 2766 0 
L 2766 531 
Q 2569 213 2275 61 
Q 1981 -91 1556 -91 
Q 1019 -91 701 211 
Q 384 513 384 1019 
Q 384 1609 779 1909 
Q 1175 2209 1959 2209 
L 2766 2209 
L 2766 2266 
Q 2766 2663 2505 2880 
Q 2244 3097 1772 3097 
Q 1472 3097 1187 3025 
Q 903 2953 641 2809 
L 641 3341 
Q 956 3463 1253 3523 
Q 1550 3584 1831 3584 
Q 2591 3584 2966 3190 
Q 3341 2797 3341 1997 
z
" transform="scale(0.015625)"/>
      </defs>
      <use xlink:href="#DejaVuSans-4d"/>
      <use xlink:href="#DejaVuSans-75" x="86.279297"/>
      <use xlink:href="#DejaVuSans-74" x="149.658203"/>
      <use xlink:href="#DejaVuSans-61" x="188.867188"/>
      <use xlink:href="#DejaVuSans-6e" x="250.146484"/>
      <use xlink:href="#DejaVuSans-74" x="313.525391"/>
     </g>
    </g>
    <g id="patch_14">
     <path d="M 377.728125 58.630502 
L 397.728125 58.630502 
L 397.728125 51.630502 
L 377.728125 51.630502 
z
" style="fill: #107010; stroke: #262626; stroke-width: 0.75; stroke-linejoin: miter"/>
    </g>
    <g id="text_21">
     <!-- WT -->
     <g style="fill: #262626" transform="translate(405.728125 58.630502)scale(0.1 -0.1)">
      <use xlink:href="#DejaVuSans-57"/>
      <use xlink:href="#DejaVuSans-54" x="98.876953"/>
     </g>
    </g>
   </g>
  </g>
 </g>
 <defs>
  <clipPath id="p6aa58e81e8">
   <rect x="47.81" y="27.353939" width="402.19" height="276.286061"/>
  </clipPath>
 </defs>
</svg>
