<?xml version="1.0" encoding="utf-8" standalone="no"?>
<!DOCTYPE svg PUBLIC "-//W3C//DTD SVG 1.1//EN"
  "http://www.w3.org/Graphics/SVG/1.1/DTD/svg11.dtd">
<svg xmlns:xlink="http://www.w3.org/1999/xlink" width="460.8pt" height="345.6pt" viewBox="0 0 460.8 345.6" xmlns="http://www.w3.org/2000/svg" version="1.1">
 <metadata>
  <rdf:RDF xmlns:dc="http://purl.org/dc/elements/1.1/" xmlns:cc="http://creativecommons.org/ns#" xmlns:rdf="http://www.w3.org/1999/02/22-rdf-syntax-ns#">
   <cc:Work>
    <dc:type rdf:resource="http://purl.org/dc/dcmitype/StillImage"/>
    <dc:date>2024-02-03T13:08:11.948233</dc:date>
    <dc:format>image/svg+xml</dc:format>
    <dc:creator>
     <cc:Agent>
      <dc:title>Matplotlib v3.5.3, https://matplotlib.org/</dc:title>
     </cc:Agent>
    </dc:creator>
   </cc:Work>
  </rdf:RDF>
 </metadata>
 <defs>
  <style type="text/css">*{stroke-linejoin: round; stroke-linecap: butt}</style>
 </defs>
 <g id="figure_1">
  <g id="patch_1">
   <path d="M 0 345.6 
L 460.8 345.6 
L 460.8 0 
L 0 0 
z
" style="fill: #ffffff"/>
  </g>
  <g id="axes_1">
   <g id="patch_2">
    <path d="M 47.82125 303.64 
L 450 303.64 
L 450 46.673817 
L 47.82125 46.673817 
z
" style="fill: #ffffff"/>
   </g>
   <g id="PathCollection_1">
    <defs>
     <path id="mbced97b3ee" d="M 0 3 
C 0.795609 3 1.55874 2.683901 2.12132 2.12132 
C 2.683901 1.55874 3 0.795609 3 0 
C 3 -0.795609 2.683901 -1.55874 2.12132 -2.12132 
C 1.55874 -2.683901 0.795609 -3 0 -3 
C -0.795609 -3 -1.55874 -2.683901 -2.12132 -2.12132 
C -2.683901 -1.55874 -3 -0.795609 -3 0 
C -3 0.795609 -2.683901 1.55874 -2.12132 2.12132 
C -1.55874 2.683901 -0.795609 3 0 3 
z
" style="stroke: #1f77b4"/>
    </defs>
    <g clip-path="url(#p8f93ce5b8e)">
     <use xlink:href="#mbced97b3ee" x="66.102102" y="194.612046" style="fill: #1f77b4; stroke: #1f77b4"/>
     <use xlink:href="#mbced97b3ee" x="66.366903" y="233.433321" style="fill: #1f77b4; stroke: #1f77b4"/>
     <use xlink:href="#mbced97b3ee" x="223.713328" y="179.204553" style="fill: #1f77b4; stroke: #1f77b4"/>
     <use xlink:href="#mbced97b3ee" x="75.085893" y="196.968044" style="fill: #1f77b4; stroke: #1f77b4"/>
     <use xlink:href="#mbced97b3ee" x="217.663643" y="176.149419" style="fill: #1f77b4; stroke: #1f77b4"/>
     <use xlink:href="#mbced97b3ee" x="234.316479" y="184.849766" style="fill: #1f77b4; stroke: #1f77b4"/>
     <use xlink:href="#mbced97b3ee" x="107.919366" y="220.387547" style="fill: #1f77b4; stroke: #1f77b4"/>
     <use xlink:href="#mbced97b3ee" x="273.630169" y="279.681387" style="fill: #1f77b4; stroke: #1f77b4"/>
     <use xlink:href="#mbced97b3ee" x="242.992878" y="217.298587" style="fill: #1f77b4; stroke: #1f77b4"/>
     <use xlink:href="#mbced97b3ee" x="256.657906" y="204.406325" style="fill: #1f77b4; stroke: #1f77b4"/>
     <use xlink:href="#mbced97b3ee" x="244.206704" y="181.276536" style="fill: #1f77b4; stroke: #1f77b4"/>
     <use xlink:href="#mbced97b3ee" x="125.494376" y="273.004692" style="fill: #1f77b4; stroke: #1f77b4"/>
     <use xlink:href="#mbced97b3ee" x="235.496973" y="192.501302" style="fill: #1f77b4; stroke: #1f77b4"/>
     <use xlink:href="#mbced97b3ee" x="269.875735" y="227.614374" style="fill: #1f77b4; stroke: #1f77b4"/>
     <use xlink:href="#mbced97b3ee" x="183.243216" y="196.586534" style="fill: #1f77b4; stroke: #1f77b4"/>
     <use xlink:href="#mbced97b3ee" x="133.689319" y="267.251619" style="fill: #1f77b4; stroke: #1f77b4"/>
     <use xlink:href="#mbced97b3ee" x="148.39133" y="247.151456" style="fill: #1f77b4; stroke: #1f77b4"/>
     <use xlink:href="#mbced97b3ee" x="273.100567" y="179.421036" style="fill: #1f77b4; stroke: #1f77b4"/>
     <use xlink:href="#mbced97b3ee" x="267.338831" y="158.592961" style="fill: #1f77b4; stroke: #1f77b4"/>
     <use xlink:href="#mbced97b3ee" x="249.552721" y="199.151044" style="fill: #1f77b4; stroke: #1f77b4"/>
     <use xlink:href="#mbced97b3ee" x="330.511462" y="279.785326" style="fill: #1f77b4; stroke: #1f77b4"/>
     <use xlink:href="#mbced97b3ee" x="287.829429" y="195.358571" style="fill: #1f77b4; stroke: #1f77b4"/>
     <use xlink:href="#mbced97b3ee" x="250.798027" y="161.530699" style="fill: #1f77b4; stroke: #1f77b4"/>
     <use xlink:href="#mbced97b3ee" x="277.493857" y="189.466746" style="fill: #1f77b4; stroke: #1f77b4"/>
     <use xlink:href="#mbced97b3ee" x="261.432657" y="248.706574" style="fill: #1f77b4; stroke: #1f77b4"/>
     <use xlink:href="#mbced97b3ee" x="242.362355" y="148.108567" style="fill: #1f77b4; stroke: #1f77b4"/>
     <use xlink:href="#mbced97b3ee" x="121.06868" y="236.618628" style="fill: #1f77b4; stroke: #1f77b4"/>
     <use xlink:href="#mbced97b3ee" x="163.074823" y="270.202919" style="fill: #1f77b4; stroke: #1f77b4"/>
     <use xlink:href="#mbced97b3ee" x="223.142987" y="237.778518" style="fill: #1f77b4; stroke: #1f77b4"/>
     <use xlink:href="#mbced97b3ee" x="177.182421" y="250.944086" style="fill: #1f77b4; stroke: #1f77b4"/>
     <use xlink:href="#mbced97b3ee" x="318.242658" y="207.203683" style="fill: #1f77b4; stroke: #1f77b4"/>
     <use xlink:href="#mbced97b3ee" x="242.590121" y="184.966265" style="fill: #1f77b4; stroke: #1f77b4"/>
     <use xlink:href="#mbced97b3ee" x="157.331604" y="220.100575" style="fill: #1f77b4; stroke: #1f77b4"/>
     <use xlink:href="#mbced97b3ee" x="183.894108" y="158.754957" style="fill: #1f77b4; stroke: #1f77b4"/>
     <use xlink:href="#mbced97b3ee" x="274.511605" y="189.929698" style="fill: #1f77b4; stroke: #1f77b4"/>
     <use xlink:href="#mbced97b3ee" x="154.646559" y="202.527068" style="fill: #1f77b4; stroke: #1f77b4"/>
     <use xlink:href="#mbced97b3ee" x="275.807834" y="223.772675" style="fill: #1f77b4; stroke: #1f77b4"/>
     <use xlink:href="#mbced97b3ee" x="283.382439" y="276.798823" style="fill: #1f77b4; stroke: #1f77b4"/>
     <use xlink:href="#mbced97b3ee" x="265.102836" y="279.615072" style="fill: #1f77b4; stroke: #1f77b4"/>
     <use xlink:href="#mbced97b3ee" x="275.090278" y="176.815476" style="fill: #1f77b4; stroke: #1f77b4"/>
     <use xlink:href="#mbced97b3ee" x="245.840878" y="187.436192" style="fill: #1f77b4; stroke: #1f77b4"/>
     <use xlink:href="#mbced97b3ee" x="153.073493" y="197.427426" style="fill: #1f77b4; stroke: #1f77b4"/>
     <use xlink:href="#mbced97b3ee" x="184.526482" y="229.533794" style="fill: #1f77b4; stroke: #1f77b4"/>
     <use xlink:href="#mbced97b3ee" x="167.683842" y="215.186348" style="fill: #1f77b4; stroke: #1f77b4"/>
     <use xlink:href="#mbced97b3ee" x="234.595168" y="180.70078" style="fill: #1f77b4; stroke: #1f77b4"/>
     <use xlink:href="#mbced97b3ee" x="294.082806" y="239.815064" style="fill: #1f77b4; stroke: #1f77b4"/>
     <use xlink:href="#mbced97b3ee" x="276.945737" y="186.529256" style="fill: #1f77b4; stroke: #1f77b4"/>
     <use xlink:href="#mbced97b3ee" x="130.160799" y="244.112099" style="fill: #1f77b4; stroke: #1f77b4"/>
     <use xlink:href="#mbced97b3ee" x="257.246764" y="227.973886" style="fill: #1f77b4; stroke: #1f77b4"/>
     <use xlink:href="#mbced97b3ee" x="274.78659" y="221.220939" style="fill: #1f77b4; stroke: #1f77b4"/>
     <use xlink:href="#mbced97b3ee" x="178.249958" y="202.748471" style="fill: #1f77b4; stroke: #1f77b4"/>
     <use xlink:href="#mbced97b3ee" x="310.845821" y="177.176837" style="fill: #1f77b4; stroke: #1f77b4"/>
     <use xlink:href="#mbced97b3ee" x="273.352406" y="218.197824" style="fill: #1f77b4; stroke: #1f77b4"/>
     <use xlink:href="#mbced97b3ee" x="318.616712" y="192.178003" style="fill: #1f77b4; stroke: #1f77b4"/>
     <use xlink:href="#mbced97b3ee" x="282.4186" y="218.222359" style="fill: #1f77b4; stroke: #1f77b4"/>
     <use xlink:href="#mbced97b3ee" x="208.288206" y="227.738799" style="fill: #1f77b4; stroke: #1f77b4"/>
     <use xlink:href="#mbced97b3ee" x="251.934078" y="198.337673" style="fill: #1f77b4; stroke: #1f77b4"/>
     <use xlink:href="#mbced97b3ee" x="265.937052" y="202.107451" style="fill: #1f77b4; stroke: #1f77b4"/>
     <use xlink:href="#mbced97b3ee" x="141.364844" y="261.303762" style="fill: #1f77b4; stroke: #1f77b4"/>
     <use xlink:href="#mbced97b3ee" x="272.586705" y="180.95515" style="fill: #1f77b4; stroke: #1f77b4"/>
     <use xlink:href="#mbced97b3ee" x="287.93035" y="223.933303" style="fill: #1f77b4; stroke: #1f77b4"/>
     <use xlink:href="#mbced97b3ee" x="344.762571" y="242.70404" style="fill: #1f77b4; stroke: #1f77b4"/>
     <use xlink:href="#mbced97b3ee" x="87.564872" y="219.162607" style="fill: #1f77b4; stroke: #1f77b4"/>
     <use xlink:href="#mbced97b3ee" x="431.719148" y="180.859398" style="fill: #1f77b4; stroke: #1f77b4"/>
     <use xlink:href="#mbced97b3ee" x="234.922003" y="260.329868" style="fill: #1f77b4; stroke: #1f77b4"/>
     <use xlink:href="#mbced97b3ee" x="406.583421" y="284.523075" style="fill: #1f77b4; stroke: #1f77b4"/>
    </g>
   </g>
   <g id="matplotlib.axis_1">
    <g id="xtick_1">
     <g id="line2d_1">
      <defs>
       <path id="m7ebd5f8ffb" d="M 0 0 
L 0 3.5 
" style="stroke: #000000; stroke-width: 0.8"/>
      </defs>
      <g>
       <use xlink:href="#m7ebd5f8ffb" x="85.677007" y="303.64" style="stroke: #000000; stroke-width: 0.8"/>
      </g>
     </g>
     <g id="text_1">
      <!-- −30 -->
      <g transform="translate(75.124664 318.238437)scale(0.1 -0.1)">
       <defs>
        <path id="DejaVuSans-2212" d="M 678 2272 
L 4684 2272 
L 4684 1741 
L 678 1741 
L 678 2272 
z
" transform="scale(0.015625)"/>
        <path id="DejaVuSans-33" d="M 2597 2516 
Q 3050 2419 3304 2112 
Q 3559 1806 3559 1356 
Q 3559 666 3084 287 
Q 2609 -91 1734 -91 
Q 1441 -91 1130 -33 
Q 819 25 488 141 
L 488 750 
Q 750 597 1062 519 
Q 1375 441 1716 441 
Q 2309 441 2620 675 
Q 2931 909 2931 1356 
Q 2931 1769 2642 2001 
Q 2353 2234 1838 2234 
L 1294 2234 
L 1294 2753 
L 1863 2753 
Q 2328 2753 2575 2939 
Q 2822 3125 2822 3475 
Q 2822 3834 2567 4026 
Q 2313 4219 1838 4219 
Q 1578 4219 1281 4162 
Q 984 4106 628 3988 
L 628 4550 
Q 988 4650 1302 4700 
Q 1616 4750 1894 4750 
Q 2613 4750 3031 4423 
Q 3450 4097 3450 3541 
Q 3450 3153 3228 2886 
Q 3006 2619 2597 2516 
z
" transform="scale(0.015625)"/>
        <path id="DejaVuSans-30" d="M 2034 4250 
Q 1547 4250 1301 3770 
Q 1056 3291 1056 2328 
Q 1056 1369 1301 889 
Q 1547 409 2034 409 
Q 2525 409 2770 889 
Q 3016 1369 3016 2328 
Q 3016 3291 2770 3770 
Q 2525 4250 2034 4250 
z
M 2034 4750 
Q 2819 4750 3233 4129 
Q 3647 3509 3647 2328 
Q 3647 1150 3233 529 
Q 2819 -91 2034 -91 
Q 1250 -91 836 529 
Q 422 1150 422 2328 
Q 422 3509 836 4129 
Q 1250 4750 2034 4750 
z
" transform="scale(0.015625)"/>
       </defs>
       <use xlink:href="#DejaVuSans-2212"/>
       <use xlink:href="#DejaVuSans-33" x="83.789062"/>
       <use xlink:href="#DejaVuSans-30" x="147.412109"/>
      </g>
     </g>
    </g>
    <g id="xtick_2">
     <g id="line2d_2">
      <g>
       <use xlink:href="#m7ebd5f8ffb" x="131.97089" y="303.64" style="stroke: #000000; stroke-width: 0.8"/>
      </g>
     </g>
     <g id="text_2">
      <!-- −25 -->
      <g transform="translate(121.418546 318.238437)scale(0.1 -0.1)">
       <defs>
        <path id="DejaVuSans-32" d="M 1228 531 
L 3431 531 
L 3431 0 
L 469 0 
L 469 531 
Q 828 903 1448 1529 
Q 2069 2156 2228 2338 
Q 2531 2678 2651 2914 
Q 2772 3150 2772 3378 
Q 2772 3750 2511 3984 
Q 2250 4219 1831 4219 
Q 1534 4219 1204 4116 
Q 875 4013 500 3803 
L 500 4441 
Q 881 4594 1212 4672 
Q 1544 4750 1819 4750 
Q 2544 4750 2975 4387 
Q 3406 4025 3406 3419 
Q 3406 3131 3298 2873 
Q 3191 2616 2906 2266 
Q 2828 2175 2409 1742 
Q 1991 1309 1228 531 
z
" transform="scale(0.015625)"/>
        <path id="DejaVuSans-35" d="M 691 4666 
L 3169 4666 
L 3169 4134 
L 1269 4134 
L 1269 2991 
Q 1406 3038 1543 3061 
Q 1681 3084 1819 3084 
Q 2600 3084 3056 2656 
Q 3513 2228 3513 1497 
Q 3513 744 3044 326 
Q 2575 -91 1722 -91 
Q 1428 -91 1123 -41 
Q 819 9 494 109 
L 494 744 
Q 775 591 1075 516 
Q 1375 441 1709 441 
Q 2250 441 2565 725 
Q 2881 1009 2881 1497 
Q 2881 1984 2565 2268 
Q 2250 2553 1709 2553 
Q 1456 2553 1204 2497 
Q 953 2441 691 2322 
L 691 4666 
z
" transform="scale(0.015625)"/>
       </defs>
       <use xlink:href="#DejaVuSans-2212"/>
       <use xlink:href="#DejaVuSans-32" x="83.789062"/>
       <use xlink:href="#DejaVuSans-35" x="147.412109"/>
      </g>
     </g>
    </g>
    <g id="xtick_3">
     <g id="line2d_3">
      <g>
       <use xlink:href="#m7ebd5f8ffb" x="178.264772" y="303.64" style="stroke: #000000; stroke-width: 0.8"/>
      </g>
     </g>
     <g id="text_3">
      <!-- −20 -->
      <g transform="translate(167.712428 318.238437)scale(0.1 -0.1)">
       <use xlink:href="#DejaVuSans-2212"/>
       <use xlink:href="#DejaVuSans-32" x="83.789062"/>
       <use xlink:href="#DejaVuSans-30" x="147.412109"/>
      </g>
     </g>
    </g>
    <g id="xtick_4">
     <g id="line2d_4">
      <g>
       <use xlink:href="#m7ebd5f8ffb" x="224.558654" y="303.64" style="stroke: #000000; stroke-width: 0.8"/>
      </g>
     </g>
     <g id="text_4">
      <!-- −15 -->
      <g transform="translate(214.00631 318.238437)scale(0.1 -0.1)">
       <defs>
        <path id="DejaVuSans-31" d="M 794 531 
L 1825 531 
L 1825 4091 
L 703 3866 
L 703 4441 
L 1819 4666 
L 2450 4666 
L 2450 531 
L 3481 531 
L 3481 0 
L 794 0 
L 794 531 
z
" transform="scale(0.015625)"/>
       </defs>
       <use xlink:href="#DejaVuSans-2212"/>
       <use xlink:href="#DejaVuSans-31" x="83.789062"/>
       <use xlink:href="#DejaVuSans-35" x="147.412109"/>
      </g>
     </g>
    </g>
    <g id="xtick_5">
     <g id="line2d_5">
      <g>
       <use xlink:href="#m7ebd5f8ffb" x="270.852536" y="303.64" style="stroke: #000000; stroke-width: 0.8"/>
      </g>
     </g>
     <g id="text_5">
      <!-- −10 -->
      <g transform="translate(260.300193 318.238437)scale(0.1 -0.1)">
       <use xlink:href="#DejaVuSans-2212"/>
       <use xlink:href="#DejaVuSans-31" x="83.789062"/>
       <use xlink:href="#DejaVuSans-30" x="147.412109"/>
      </g>
     </g>
    </g>
    <g id="xtick_6">
     <g id="line2d_6">
      <g>
       <use xlink:href="#m7ebd5f8ffb" x="317.146419" y="303.64" style="stroke: #000000; stroke-width: 0.8"/>
      </g>
     </g>
     <g id="text_6">
      <!-- −5 -->
      <g transform="translate(309.775325 318.238437)scale(0.1 -0.1)">
       <use xlink:href="#DejaVuSans-2212"/>
       <use xlink:href="#DejaVuSans-35" x="83.789062"/>
      </g>
     </g>
    </g>
    <g id="xtick_7">
     <g id="line2d_7">
      <g>
       <use xlink:href="#m7ebd5f8ffb" x="363.440301" y="303.64" style="stroke: #000000; stroke-width: 0.8"/>
      </g>
     </g>
     <g id="text_7">
      <!-- 0 -->
      <g transform="translate(360.259051 318.238437)scale(0.1 -0.1)">
       <use xlink:href="#DejaVuSans-30"/>
      </g>
     </g>
    </g>
    <g id="xtick_8">
     <g id="line2d_8">
      <g>
       <use xlink:href="#m7ebd5f8ffb" x="409.734183" y="303.64" style="stroke: #000000; stroke-width: 0.8"/>
      </g>
     </g>
     <g id="text_8">
      <!-- 5 -->
      <g transform="translate(406.552933 318.238437)scale(0.1 -0.1)">
       <use xlink:href="#DejaVuSans-35"/>
      </g>
     </g>
    </g>
    <g id="text_9">
     <!-- HBONDDiff -->
     <g transform="translate(221.521562 331.916562)scale(0.1 -0.1)">
      <defs>
       <path id="DejaVuSans-48" d="M 628 4666 
L 1259 4666 
L 1259 2753 
L 3553 2753 
L 3553 4666 
L 4184 4666 
L 4184 0 
L 3553 0 
L 3553 2222 
L 1259 2222 
L 1259 0 
L 628 0 
L 628 4666 
z
" transform="scale(0.015625)"/>
       <path id="DejaVuSans-42" d="M 1259 2228 
L 1259 519 
L 2272 519 
Q 2781 519 3026 730 
Q 3272 941 3272 1375 
Q 3272 1813 3026 2020 
Q 2781 2228 2272 2228 
L 1259 2228 
z
M 1259 4147 
L 1259 2741 
L 2194 2741 
Q 2656 2741 2882 2914 
Q 3109 3088 3109 3444 
Q 3109 3797 2882 3972 
Q 2656 4147 2194 4147 
L 1259 4147 
z
M 628 4666 
L 2241 4666 
Q 2963 4666 3353 4366 
Q 3744 4066 3744 3513 
Q 3744 3084 3544 2831 
Q 3344 2578 2956 2516 
Q 3422 2416 3680 2098 
Q 3938 1781 3938 1306 
Q 3938 681 3513 340 
Q 3088 0 2303 0 
L 628 0 
L 628 4666 
z
" transform="scale(0.015625)"/>
       <path id="DejaVuSans-4f" d="M 2522 4238 
Q 1834 4238 1429 3725 
Q 1025 3213 1025 2328 
Q 1025 1447 1429 934 
Q 1834 422 2522 422 
Q 3209 422 3611 934 
Q 4013 1447 4013 2328 
Q 4013 3213 3611 3725 
Q 3209 4238 2522 4238 
z
M 2522 4750 
Q 3503 4750 4090 4092 
Q 4678 3434 4678 2328 
Q 4678 1225 4090 567 
Q 3503 -91 2522 -91 
Q 1538 -91 948 565 
Q 359 1222 359 2328 
Q 359 3434 948 4092 
Q 1538 4750 2522 4750 
z
" transform="scale(0.015625)"/>
       <path id="DejaVuSans-4e" d="M 628 4666 
L 1478 4666 
L 3547 763 
L 3547 4666 
L 4159 4666 
L 4159 0 
L 3309 0 
L 1241 3903 
L 1241 0 
L 628 0 
L 628 4666 
z
" transform="scale(0.015625)"/>
       <path id="DejaVuSans-44" d="M 1259 4147 
L 1259 519 
L 2022 519 
Q 2988 519 3436 956 
Q 3884 1394 3884 2338 
Q 3884 3275 3436 3711 
Q 2988 4147 2022 4147 
L 1259 4147 
z
M 628 4666 
L 1925 4666 
Q 3281 4666 3915 4102 
Q 4550 3538 4550 2338 
Q 4550 1131 3912 565 
Q 3275 0 1925 0 
L 628 0 
L 628 4666 
z
" transform="scale(0.015625)"/>
       <path id="DejaVuSans-69" d="M 603 3500 
L 1178 3500 
L 1178 0 
L 603 0 
L 603 3500 
z
M 603 4863 
L 1178 4863 
L 1178 4134 
L 603 4134 
L 603 4863 
z
" transform="scale(0.015625)"/>
       <path id="DejaVuSans-66" d="M 2375 4863 
L 2375 4384 
L 1825 4384 
Q 1516 4384 1395 4259 
Q 1275 4134 1275 3809 
L 1275 3500 
L 2222 3500 
L 2222 3053 
L 1275 3053 
L 1275 0 
L 697 0 
L 697 3053 
L 147 3053 
L 147 3500 
L 697 3500 
L 697 3744 
Q 697 4328 969 4595 
Q 1241 4863 1831 4863 
L 2375 4863 
z
" transform="scale(0.015625)"/>
      </defs>
      <use xlink:href="#DejaVuSans-48"/>
      <use xlink:href="#DejaVuSans-42" x="75.195312"/>
      <use xlink:href="#DejaVuSans-4f" x="142.048828"/>
      <use xlink:href="#DejaVuSans-4e" x="220.759766"/>
      <use xlink:href="#DejaVuSans-44" x="295.564453"/>
      <use xlink:href="#DejaVuSans-44" x="372.566406"/>
      <use xlink:href="#DejaVuSans-69" x="449.568359"/>
      <use xlink:href="#DejaVuSans-66" x="477.351562"/>
      <use xlink:href="#DejaVuSans-66" x="512.556641"/>
     </g>
    </g>
   </g>
   <g id="matplotlib.axis_2">
    <g id="ytick_1">
     <g id="line2d_9">
      <defs>
       <path id="mefc2c1004c" d="M 0 0 
L -3.5 0 
" style="stroke: #000000; stroke-width: 0.8"/>
      </defs>
      <g>
       <use xlink:href="#mefc2c1004c" x="47.82125" y="303.64" style="stroke: #000000; stroke-width: 0.8"/>
      </g>
     </g>
     <g id="text_10">
      <!-- 0.0 -->
      <g transform="translate(24.918125 307.439219)scale(0.1 -0.1)">
       <defs>
        <path id="DejaVuSans-2e" d="M 684 794 
L 1344 794 
L 1344 0 
L 684 0 
L 684 794 
z
" transform="scale(0.015625)"/>
       </defs>
       <use xlink:href="#DejaVuSans-30"/>
       <use xlink:href="#DejaVuSans-2e" x="63.623047"/>
       <use xlink:href="#DejaVuSans-30" x="95.410156"/>
      </g>
     </g>
    </g>
    <g id="ytick_2">
     <g id="line2d_10">
      <g>
       <use xlink:href="#mefc2c1004c" x="47.82125" y="260.34215" style="stroke: #000000; stroke-width: 0.8"/>
      </g>
     </g>
     <g id="text_11">
      <!-- 0.5 -->
      <g transform="translate(24.918125 264.141369)scale(0.1 -0.1)">
       <use xlink:href="#DejaVuSans-30"/>
       <use xlink:href="#DejaVuSans-2e" x="63.623047"/>
       <use xlink:href="#DejaVuSans-35" x="95.410156"/>
      </g>
     </g>
    </g>
    <g id="ytick_3">
     <g id="line2d_11">
      <g>
       <use xlink:href="#mefc2c1004c" x="47.82125" y="217.044301" style="stroke: #000000; stroke-width: 0.8"/>
      </g>
     </g>
     <g id="text_12">
      <!-- 1.0 -->
      <g transform="translate(24.918125 220.84352)scale(0.1 -0.1)">
       <use xlink:href="#DejaVuSans-31"/>
       <use xlink:href="#DejaVuSans-2e" x="63.623047"/>
       <use xlink:href="#DejaVuSans-30" x="95.410156"/>
      </g>
     </g>
    </g>
    <g id="ytick_4">
     <g id="line2d_12">
      <g>
       <use xlink:href="#mefc2c1004c" x="47.82125" y="173.746451" style="stroke: #000000; stroke-width: 0.8"/>
      </g>
     </g>
     <g id="text_13">
      <!-- 1.5 -->
      <g transform="translate(24.918125 177.54567)scale(0.1 -0.1)">
       <use xlink:href="#DejaVuSans-31"/>
       <use xlink:href="#DejaVuSans-2e" x="63.623047"/>
       <use xlink:href="#DejaVuSans-35" x="95.410156"/>
      </g>
     </g>
    </g>
    <g id="ytick_5">
     <g id="line2d_13">
      <g>
       <use xlink:href="#mefc2c1004c" x="47.82125" y="130.448602" style="stroke: #000000; stroke-width: 0.8"/>
      </g>
     </g>
     <g id="text_14">
      <!-- 2.0 -->
      <g transform="translate(24.918125 134.247821)scale(0.1 -0.1)">
       <use xlink:href="#DejaVuSans-32"/>
       <use xlink:href="#DejaVuSans-2e" x="63.623047"/>
       <use xlink:href="#DejaVuSans-30" x="95.410156"/>
      </g>
     </g>
    </g>
    <g id="ytick_6">
     <g id="line2d_14">
      <g>
       <use xlink:href="#mefc2c1004c" x="47.82125" y="87.150752" style="stroke: #000000; stroke-width: 0.8"/>
      </g>
     </g>
     <g id="text_15">
      <!-- 2.5 -->
      <g transform="translate(24.918125 90.949971)scale(0.1 -0.1)">
       <use xlink:href="#DejaVuSans-32"/>
       <use xlink:href="#DejaVuSans-2e" x="63.623047"/>
       <use xlink:href="#DejaVuSans-35" x="95.410156"/>
      </g>
     </g>
    </g>
    <g id="text_16">
     <!-- PercentGpA_transformed -->
     <g transform="translate(18.560313 237.69519)rotate(-90)scale(0.1 -0.1)">
      <defs>
       <path id="DejaVuSans-50" d="M 1259 4147 
L 1259 2394 
L 2053 2394 
Q 2494 2394 2734 2622 
Q 2975 2850 2975 3272 
Q 2975 3691 2734 3919 
Q 2494 4147 2053 4147 
L 1259 4147 
z
M 628 4666 
L 2053 4666 
Q 2838 4666 3239 4311 
Q 3641 3956 3641 3272 
Q 3641 2581 3239 2228 
Q 2838 1875 2053 1875 
L 1259 1875 
L 1259 0 
L 628 0 
L 628 4666 
z
" transform="scale(0.015625)"/>
       <path id="DejaVuSans-65" d="M 3597 1894 
L 3597 1613 
L 953 1613 
Q 991 1019 1311 708 
Q 1631 397 2203 397 
Q 2534 397 2845 478 
Q 3156 559 3463 722 
L 3463 178 
Q 3153 47 2828 -22 
Q 2503 -91 2169 -91 
Q 1331 -91 842 396 
Q 353 884 353 1716 
Q 353 2575 817 3079 
Q 1281 3584 2069 3584 
Q 2775 3584 3186 3129 
Q 3597 2675 3597 1894 
z
M 3022 2063 
Q 3016 2534 2758 2815 
Q 2500 3097 2075 3097 
Q 1594 3097 1305 2825 
Q 1016 2553 972 2059 
L 3022 2063 
z
" transform="scale(0.015625)"/>
       <path id="DejaVuSans-72" d="M 2631 2963 
Q 2534 3019 2420 3045 
Q 2306 3072 2169 3072 
Q 1681 3072 1420 2755 
Q 1159 2438 1159 1844 
L 1159 0 
L 581 0 
L 581 3500 
L 1159 3500 
L 1159 2956 
Q 1341 3275 1631 3429 
Q 1922 3584 2338 3584 
Q 2397 3584 2469 3576 
Q 2541 3569 2628 3553 
L 2631 2963 
z
" transform="scale(0.015625)"/>
       <path id="DejaVuSans-63" d="M 3122 3366 
L 3122 2828 
Q 2878 2963 2633 3030 
Q 2388 3097 2138 3097 
Q 1578 3097 1268 2742 
Q 959 2388 959 1747 
Q 959 1106 1268 751 
Q 1578 397 2138 397 
Q 2388 397 2633 464 
Q 2878 531 3122 666 
L 3122 134 
Q 2881 22 2623 -34 
Q 2366 -91 2075 -91 
Q 1284 -91 818 406 
Q 353 903 353 1747 
Q 353 2603 823 3093 
Q 1294 3584 2113 3584 
Q 2378 3584 2631 3529 
Q 2884 3475 3122 3366 
z
" transform="scale(0.015625)"/>
       <path id="DejaVuSans-6e" d="M 3513 2113 
L 3513 0 
L 2938 0 
L 2938 2094 
Q 2938 2591 2744 2837 
Q 2550 3084 2163 3084 
Q 1697 3084 1428 2787 
Q 1159 2491 1159 1978 
L 1159 0 
L 581 0 
L 581 3500 
L 1159 3500 
L 1159 2956 
Q 1366 3272 1645 3428 
Q 1925 3584 2291 3584 
Q 2894 3584 3203 3211 
Q 3513 2838 3513 2113 
z
" transform="scale(0.015625)"/>
       <path id="DejaVuSans-74" d="M 1172 4494 
L 1172 3500 
L 2356 3500 
L 2356 3053 
L 1172 3053 
L 1172 1153 
Q 1172 725 1289 603 
Q 1406 481 1766 481 
L 2356 481 
L 2356 0 
L 1766 0 
Q 1100 0 847 248 
Q 594 497 594 1153 
L 594 3053 
L 172 3053 
L 172 3500 
L 594 3500 
L 594 4494 
L 1172 4494 
z
" transform="scale(0.015625)"/>
       <path id="DejaVuSans-47" d="M 3809 666 
L 3809 1919 
L 2778 1919 
L 2778 2438 
L 4434 2438 
L 4434 434 
Q 4069 175 3628 42 
Q 3188 -91 2688 -91 
Q 1594 -91 976 548 
Q 359 1188 359 2328 
Q 359 3472 976 4111 
Q 1594 4750 2688 4750 
Q 3144 4750 3555 4637 
Q 3966 4525 4313 4306 
L 4313 3634 
Q 3963 3931 3569 4081 
Q 3175 4231 2741 4231 
Q 1884 4231 1454 3753 
Q 1025 3275 1025 2328 
Q 1025 1384 1454 906 
Q 1884 428 2741 428 
Q 3075 428 3337 486 
Q 3600 544 3809 666 
z
" transform="scale(0.015625)"/>
       <path id="DejaVuSans-70" d="M 1159 525 
L 1159 -1331 
L 581 -1331 
L 581 3500 
L 1159 3500 
L 1159 2969 
Q 1341 3281 1617 3432 
Q 1894 3584 2278 3584 
Q 2916 3584 3314 3078 
Q 3713 2572 3713 1747 
Q 3713 922 3314 415 
Q 2916 -91 2278 -91 
Q 1894 -91 1617 61 
Q 1341 213 1159 525 
z
M 3116 1747 
Q 3116 2381 2855 2742 
Q 2594 3103 2138 3103 
Q 1681 3103 1420 2742 
Q 1159 2381 1159 1747 
Q 1159 1113 1420 752 
Q 1681 391 2138 391 
Q 2594 391 2855 752 
Q 3116 1113 3116 1747 
z
" transform="scale(0.015625)"/>
       <path id="DejaVuSans-41" d="M 2188 4044 
L 1331 1722 
L 3047 1722 
L 2188 4044 
z
M 1831 4666 
L 2547 4666 
L 4325 0 
L 3669 0 
L 3244 1197 
L 1141 1197 
L 716 0 
L 50 0 
L 1831 4666 
z
" transform="scale(0.015625)"/>
       <path id="DejaVuSans-5f" d="M 3263 -1063 
L 3263 -1509 
L -63 -1509 
L -63 -1063 
L 3263 -1063 
z
" transform="scale(0.015625)"/>
       <path id="DejaVuSans-61" d="M 2194 1759 
Q 1497 1759 1228 1600 
Q 959 1441 959 1056 
Q 959 750 1161 570 
Q 1363 391 1709 391 
Q 2188 391 2477 730 
Q 2766 1069 2766 1631 
L 2766 1759 
L 2194 1759 
z
M 3341 1997 
L 3341 0 
L 2766 0 
L 2766 531 
Q 2569 213 2275 61 
Q 1981 -91 1556 -91 
Q 1019 -91 701 211 
Q 384 513 384 1019 
Q 384 1609 779 1909 
Q 1175 2209 1959 2209 
L 2766 2209 
L 2766 2266 
Q 2766 2663 2505 2880 
Q 2244 3097 1772 3097 
Q 1472 3097 1187 3025 
Q 903 2953 641 2809 
L 641 3341 
Q 956 3463 1253 3523 
Q 1550 3584 1831 3584 
Q 2591 3584 2966 3190 
Q 3341 2797 3341 1997 
z
" transform="scale(0.015625)"/>
       <path id="DejaVuSans-73" d="M 2834 3397 
L 2834 2853 
Q 2591 2978 2328 3040 
Q 2066 3103 1784 3103 
Q 1356 3103 1142 2972 
Q 928 2841 928 2578 
Q 928 2378 1081 2264 
Q 1234 2150 1697 2047 
L 1894 2003 
Q 2506 1872 2764 1633 
Q 3022 1394 3022 966 
Q 3022 478 2636 193 
Q 2250 -91 1575 -91 
Q 1294 -91 989 -36 
Q 684 19 347 128 
L 347 722 
Q 666 556 975 473 
Q 1284 391 1588 391 
Q 1994 391 2212 530 
Q 2431 669 2431 922 
Q 2431 1156 2273 1281 
Q 2116 1406 1581 1522 
L 1381 1569 
Q 847 1681 609 1914 
Q 372 2147 372 2553 
Q 372 3047 722 3315 
Q 1072 3584 1716 3584 
Q 2034 3584 2315 3537 
Q 2597 3491 2834 3397 
z
" transform="scale(0.015625)"/>
       <path id="DejaVuSans-6f" d="M 1959 3097 
Q 1497 3097 1228 2736 
Q 959 2375 959 1747 
Q 959 1119 1226 758 
Q 1494 397 1959 397 
Q 2419 397 2687 759 
Q 2956 1122 2956 1747 
Q 2956 2369 2687 2733 
Q 2419 3097 1959 3097 
z
M 1959 3584 
Q 2709 3584 3137 3096 
Q 3566 2609 3566 1747 
Q 3566 888 3137 398 
Q 2709 -91 1959 -91 
Q 1206 -91 779 398 
Q 353 888 353 1747 
Q 353 2609 779 3096 
Q 1206 3584 1959 3584 
z
" transform="scale(0.015625)"/>
       <path id="DejaVuSans-6d" d="M 3328 2828 
Q 3544 3216 3844 3400 
Q 4144 3584 4550 3584 
Q 5097 3584 5394 3201 
Q 5691 2819 5691 2113 
L 5691 0 
L 5113 0 
L 5113 2094 
Q 5113 2597 4934 2840 
Q 4756 3084 4391 3084 
Q 3944 3084 3684 2787 
Q 3425 2491 3425 1978 
L 3425 0 
L 2847 0 
L 2847 2094 
Q 2847 2600 2669 2842 
Q 2491 3084 2119 3084 
Q 1678 3084 1418 2786 
Q 1159 2488 1159 1978 
L 1159 0 
L 581 0 
L 581 3500 
L 1159 3500 
L 1159 2956 
Q 1356 3278 1631 3431 
Q 1906 3584 2284 3584 
Q 2666 3584 2933 3390 
Q 3200 3197 3328 2828 
z
" transform="scale(0.015625)"/>
       <path id="DejaVuSans-64" d="M 2906 2969 
L 2906 4863 
L 3481 4863 
L 3481 0 
L 2906 0 
L 2906 525 
Q 2725 213 2448 61 
Q 2172 -91 1784 -91 
Q 1150 -91 751 415 
Q 353 922 353 1747 
Q 353 2572 751 3078 
Q 1150 3584 1784 3584 
Q 2172 3584 2448 3432 
Q 2725 3281 2906 2969 
z
M 947 1747 
Q 947 1113 1208 752 
Q 1469 391 1925 391 
Q 2381 391 2643 752 
Q 2906 1113 2906 1747 
Q 2906 2381 2643 2742 
Q 2381 3103 1925 3103 
Q 1469 3103 1208 2742 
Q 947 2381 947 1747 
z
" transform="scale(0.015625)"/>
      </defs>
      <use xlink:href="#DejaVuSans-50"/>
      <use xlink:href="#DejaVuSans-65" x="56.677734"/>
      <use xlink:href="#DejaVuSans-72" x="118.201172"/>
      <use xlink:href="#DejaVuSans-63" x="157.064453"/>
      <use xlink:href="#DejaVuSans-65" x="212.044922"/>
      <use xlink:href="#DejaVuSans-6e" x="273.568359"/>
      <use xlink:href="#DejaVuSans-74" x="336.947266"/>
      <use xlink:href="#DejaVuSans-47" x="376.15625"/>
      <use xlink:href="#DejaVuSans-70" x="453.646484"/>
      <use xlink:href="#DejaVuSans-41" x="517.123047"/>
      <use xlink:href="#DejaVuSans-5f" x="585.53125"/>
      <use xlink:href="#DejaVuSans-74" x="635.53125"/>
      <use xlink:href="#DejaVuSans-72" x="674.740234"/>
      <use xlink:href="#DejaVuSans-61" x="715.853516"/>
      <use xlink:href="#DejaVuSans-6e" x="777.132812"/>
      <use xlink:href="#DejaVuSans-73" x="840.511719"/>
      <use xlink:href="#DejaVuSans-66" x="892.611328"/>
      <use xlink:href="#DejaVuSans-6f" x="927.816406"/>
      <use xlink:href="#DejaVuSans-72" x="988.998047"/>
      <use xlink:href="#DejaVuSans-6d" x="1028.361328"/>
      <use xlink:href="#DejaVuSans-65" x="1125.773438"/>
      <use xlink:href="#DejaVuSans-64" x="1187.296875"/>
     </g>
    </g>
   </g>
   <g id="LineCollection_1">
    <path d="M 66.102102 201.362791 
L 66.102102 187.861302 
" clip-path="url(#p8f93ce5b8e)" style="fill: none; stroke: #d3d3d3; stroke-width: 3"/>
    <path d="M 66.366903 237.524422 
L 66.366903 229.342219 
" clip-path="url(#p8f93ce5b8e)" style="fill: none; stroke: #d3d3d3; stroke-width: 3"/>
    <path d="M 223.713328 192.660515 
L 223.713328 165.74859 
" clip-path="url(#p8f93ce5b8e)" style="fill: none; stroke: #d3d3d3; stroke-width: 3"/>
    <path d="M 75.085893 203.079351 
L 75.085893 190.856737 
" clip-path="url(#p8f93ce5b8e)" style="fill: none; stroke: #d3d3d3; stroke-width: 3"/>
    <path d="M 217.663643 187.646645 
L 217.663643 164.652192 
" clip-path="url(#p8f93ce5b8e)" style="fill: none; stroke: #d3d3d3; stroke-width: 3"/>
    <path d="M 234.316479 192.171499 
L 234.316479 177.528033 
" clip-path="url(#p8f93ce5b8e)" style="fill: none; stroke: #d3d3d3; stroke-width: 3"/>
    <path d="M 107.919366 226.276869 
L 107.919366 214.498225 
" clip-path="url(#p8f93ce5b8e)" style="fill: none; stroke: #d3d3d3; stroke-width: 3"/>
    <path d="M 273.630169 282.394036 
L 273.630169 276.968738 
" clip-path="url(#p8f93ce5b8e)" style="fill: none; stroke: #d3d3d3; stroke-width: 3"/>
    <path d="M 242.992878 223.252164 
L 242.992878 211.34501 
" clip-path="url(#p8f93ce5b8e)" style="fill: none; stroke: #d3d3d3; stroke-width: 3"/>
    <path d="M 256.657906 234.848481 
L 256.657906 173.964168 
" clip-path="url(#p8f93ce5b8e)" style="fill: none; stroke: #d3d3d3; stroke-width: 3"/>
    <path d="M 244.206704 197.163313 
L 244.206704 165.389758 
" clip-path="url(#p8f93ce5b8e)" style="fill: none; stroke: #d3d3d3; stroke-width: 3"/>
    <path d="M 125.494376 278.214114 
L 125.494376 267.795271 
" clip-path="url(#p8f93ce5b8e)" style="fill: none; stroke: #d3d3d3; stroke-width: 3"/>
    <path d="M 235.496973 210.40164 
L 235.496973 174.600965 
" clip-path="url(#p8f93ce5b8e)" style="fill: none; stroke: #d3d3d3; stroke-width: 3"/>
    <path d="M 269.875735 259.934014 
L 269.875735 195.294733 
" clip-path="url(#p8f93ce5b8e)" style="fill: none; stroke: #d3d3d3; stroke-width: 3"/>
    <path d="M 183.243216 204.254518 
L 183.243216 188.91855 
" clip-path="url(#p8f93ce5b8e)" style="fill: none; stroke: #d3d3d3; stroke-width: 3"/>
    <path d="M 133.689319 272.428122 
L 133.689319 262.075117 
" clip-path="url(#p8f93ce5b8e)" style="fill: none; stroke: #d3d3d3; stroke-width: 3"/>
    <path d="M 148.39133 250.431062 
L 148.39133 243.871849 
" clip-path="url(#p8f93ce5b8e)" style="fill: none; stroke: #d3d3d3; stroke-width: 3"/>
    <path d="M 273.100567 209.920243 
L 273.100567 148.921829 
" clip-path="url(#p8f93ce5b8e)" style="fill: none; stroke: #d3d3d3; stroke-width: 3"/>
    <path d="M 267.338831 249.847712 
L 267.338831 67.33821 
" clip-path="url(#p8f93ce5b8e)" style="fill: none; stroke: #d3d3d3; stroke-width: 3"/>
    <path d="M 249.552721 208.277218 
L 249.552721 190.024871 
" clip-path="url(#p8f93ce5b8e)" style="fill: none; stroke: #d3d3d3; stroke-width: 3"/>
    <path d="M 330.511462 282.403683 
L 330.511462 277.166969 
" clip-path="url(#p8f93ce5b8e)" style="fill: none; stroke: #d3d3d3; stroke-width: 3"/>
    <path d="M 287.829429 206.019675 
L 287.829429 184.697466 
" clip-path="url(#p8f93ce5b8e)" style="fill: none; stroke: #d3d3d3; stroke-width: 3"/>
    <path d="M 250.798027 183.074776 
L 250.798027 139.986621 
" clip-path="url(#p8f93ce5b8e)" style="fill: none; stroke: #d3d3d3; stroke-width: 3"/>
    <path d="M 277.493857 192.213929 
L 277.493857 186.719562 
" clip-path="url(#p8f93ce5b8e)" style="fill: none; stroke: #d3d3d3; stroke-width: 3"/>
    <path d="M 261.432657 254.28134 
L 261.432657 243.131808 
" clip-path="url(#p8f93ce5b8e)" style="fill: none; stroke: #d3d3d3; stroke-width: 3"/>
    <path d="M 242.362355 237.881772 
L 242.362355 58.335362 
" clip-path="url(#p8f93ce5b8e)" style="fill: none; stroke: #d3d3d3; stroke-width: 3"/>
    <path d="M 121.06868 242.528324 
L 121.06868 230.708931 
" clip-path="url(#p8f93ce5b8e)" style="fill: none; stroke: #d3d3d3; stroke-width: 3"/>
    <path d="M 163.074823 274.495514 
L 163.074823 265.910324 
" clip-path="url(#p8f93ce5b8e)" style="fill: none; stroke: #d3d3d3; stroke-width: 3"/>
    <path d="M 223.142987 252.957928 
L 223.142987 222.599107 
" clip-path="url(#p8f93ce5b8e)" style="fill: none; stroke: #d3d3d3; stroke-width: 3"/>
    <path d="M 177.182421 258.712186 
L 177.182421 243.175985 
" clip-path="url(#p8f93ce5b8e)" style="fill: none; stroke: #d3d3d3; stroke-width: 3"/>
    <path d="M 318.242658 216.387402 
L 318.242658 198.019963 
" clip-path="url(#p8f93ce5b8e)" style="fill: none; stroke: #d3d3d3; stroke-width: 3"/>
    <path d="M 242.590121 195.557498 
L 242.590121 174.375032 
" clip-path="url(#p8f93ce5b8e)" style="fill: none; stroke: #d3d3d3; stroke-width: 3"/>
    <path d="M 157.331604 230.497053 
L 157.331604 209.704097 
" clip-path="url(#p8f93ce5b8e)" style="fill: none; stroke: #d3d3d3; stroke-width: 3"/>
    <path d="M 183.894108 241.900146 
L 183.894108 75.609768 
" clip-path="url(#p8f93ce5b8e)" style="fill: none; stroke: #d3d3d3; stroke-width: 3"/>
    <path d="M 274.511605 206.489649 
L 274.511605 173.369747 
" clip-path="url(#p8f93ce5b8e)" style="fill: none; stroke: #d3d3d3; stroke-width: 3"/>
    <path d="M 154.646559 213.875215 
L 154.646559 191.178921 
" clip-path="url(#p8f93ce5b8e)" style="fill: none; stroke: #d3d3d3; stroke-width: 3"/>
    <path d="M 275.807834 231.756813 
L 275.807834 215.788538 
" clip-path="url(#p8f93ce5b8e)" style="fill: none; stroke: #d3d3d3; stroke-width: 3"/>
    <path d="M 283.382439 280.732466 
L 283.382439 272.86518 
" clip-path="url(#p8f93ce5b8e)" style="fill: none; stroke: #d3d3d3; stroke-width: 3"/>
    <path d="M 265.102836 284.859942 
L 265.102836 274.370202 
" clip-path="url(#p8f93ce5b8e)" style="fill: none; stroke: #d3d3d3; stroke-width: 3"/>
    <path d="M 275.090278 192.796953 
L 275.090278 160.833999 
" clip-path="url(#p8f93ce5b8e)" style="fill: none; stroke: #d3d3d3; stroke-width: 3"/>
    <path d="M 245.840878 197.542088 
L 245.840878 177.330295 
" clip-path="url(#p8f93ce5b8e)" style="fill: none; stroke: #d3d3d3; stroke-width: 3"/>
    <path d="M 153.073493 203.606364 
L 153.073493 191.248488 
" clip-path="url(#p8f93ce5b8e)" style="fill: none; stroke: #d3d3d3; stroke-width: 3"/>
    <path d="M 184.526482 234.595561 
L 184.526482 224.472026 
" clip-path="url(#p8f93ce5b8e)" style="fill: none; stroke: #d3d3d3; stroke-width: 3"/>
    <path d="M 167.683842 220.45778 
L 167.683842 209.914916 
" clip-path="url(#p8f93ce5b8e)" style="fill: none; stroke: #d3d3d3; stroke-width: 3"/>
    <path d="M 234.595168 195.015167 
L 234.595168 166.386393 
" clip-path="url(#p8f93ce5b8e)" style="fill: none; stroke: #d3d3d3; stroke-width: 3"/>
    <path d="M 294.082806 251.991423 
L 294.082806 227.638705 
" clip-path="url(#p8f93ce5b8e)" style="fill: none; stroke: #d3d3d3; stroke-width: 3"/>
    <path d="M 276.945737 200.779215 
L 276.945737 172.279297 
" clip-path="url(#p8f93ce5b8e)" style="fill: none; stroke: #d3d3d3; stroke-width: 3"/>
    <path d="M 130.160799 245.098624 
L 130.160799 243.125574 
" clip-path="url(#p8f93ce5b8e)" style="fill: none; stroke: #d3d3d3; stroke-width: 3"/>
    <path d="M 257.246764 250.322394 
L 257.246764 205.625378 
" clip-path="url(#p8f93ce5b8e)" style="fill: none; stroke: #d3d3d3; stroke-width: 3"/>
    <path d="M 274.78659 227.108835 
L 274.78659 215.333042 
" clip-path="url(#p8f93ce5b8e)" style="fill: none; stroke: #d3d3d3; stroke-width: 3"/>
    <path d="M 178.249958 210.023177 
L 178.249958 195.473765 
" clip-path="url(#p8f93ce5b8e)" style="fill: none; stroke: #d3d3d3; stroke-width: 3"/>
    <path d="M 310.845821 195.93326 
L 310.845821 158.420413 
" clip-path="url(#p8f93ce5b8e)" style="fill: none; stroke: #d3d3d3; stroke-width: 3"/>
    <path d="M 273.352406 224.416753 
L 273.352406 211.978895 
" clip-path="url(#p8f93ce5b8e)" style="fill: none; stroke: #d3d3d3; stroke-width: 3"/>
    <path d="M 318.616712 208.898751 
L 318.616712 175.457256 
" clip-path="url(#p8f93ce5b8e)" style="fill: none; stroke: #d3d3d3; stroke-width: 3"/>
    <path d="M 282.4186 229.916165 
L 282.4186 206.528554 
" clip-path="url(#p8f93ce5b8e)" style="fill: none; stroke: #d3d3d3; stroke-width: 3"/>
    <path d="M 208.288206 233.592715 
L 208.288206 221.884883 
" clip-path="url(#p8f93ce5b8e)" style="fill: none; stroke: #d3d3d3; stroke-width: 3"/>
    <path d="M 251.934078 213.550433 
L 251.934078 183.124912 
" clip-path="url(#p8f93ce5b8e)" style="fill: none; stroke: #d3d3d3; stroke-width: 3"/>
    <path d="M 265.937052 222.586405 
L 265.937052 181.628498 
" clip-path="url(#p8f93ce5b8e)" style="fill: none; stroke: #d3d3d3; stroke-width: 3"/>
    <path d="M 141.364844 266.40161 
L 141.364844 256.205913 
" clip-path="url(#p8f93ce5b8e)" style="fill: none; stroke: #d3d3d3; stroke-width: 3"/>
    <path d="M 272.586705 191.331545 
L 272.586705 170.578755 
" clip-path="url(#p8f93ce5b8e)" style="fill: none; stroke: #d3d3d3; stroke-width: 3"/>
    <path d="M 287.93035 230.116551 
L 287.93035 217.750055 
" clip-path="url(#p8f93ce5b8e)" style="fill: none; stroke: #d3d3d3; stroke-width: 3"/>
    <path d="M 344.762571 248.075511 
L 344.762571 237.332568 
" clip-path="url(#p8f93ce5b8e)" style="fill: none; stroke: #d3d3d3; stroke-width: 3"/>
    <path d="M 87.564872 223.978894 
L 87.564872 214.34632 
" clip-path="url(#p8f93ce5b8e)" style="fill: none; stroke: #d3d3d3; stroke-width: 3"/>
    <path d="M 431.719148 189.479136 
L 431.719148 172.239659 
" clip-path="url(#p8f93ce5b8e)" style="fill: none; stroke: #d3d3d3; stroke-width: 3"/>
    <path d="M 234.922003 262.426044 
L 234.922003 258.233693 
" clip-path="url(#p8f93ce5b8e)" style="fill: none; stroke: #d3d3d3; stroke-width: 3"/>
    <path d="M 406.583421 291.566263 
L 406.583421 277.479888 
" clip-path="url(#p8f93ce5b8e)" style="fill: none; stroke: #d3d3d3; stroke-width: 3"/>
   </g>
   <g id="line2d_15">
    <path d="M 66.102102 221.263125 
L 66.366903 221.252487 
L 223.713328 214.931278 
L 75.085893 220.902212 
L 217.663643 215.174317 
L 234.316479 214.505309 
L 107.919366 219.583166 
L 273.630169 212.925927 
L 242.992878 214.156745 
L 256.657906 213.607768 
L 244.206704 214.107981 
L 125.494376 218.87711 
L 235.496973 214.457884 
L 269.875735 213.076757 
L 183.243216 216.557118 
L 133.689319 218.547888 
L 148.39133 217.957252 
L 273.100567 212.947203 
L 267.338831 213.178675 
L 249.552721 213.893211 
L 330.511462 210.640788 
L 287.829429 212.355489 
L 250.798027 213.843182 
L 277.493857 212.770708 
L 261.432657 213.415948 
L 242.362355 214.182075 
L 121.06868 219.054907 
L 163.074823 217.367359 
L 223.142987 214.954191 
L 177.182421 216.800603 
L 318.242658 211.133673 
L 242.590121 214.172925 
L 157.331604 217.598087 
L 183.894108 216.530969 
L 274.511605 212.890517 
L 154.646559 217.705955 
L 275.807834 212.838442 
L 283.382439 212.534141 
L 265.102836 213.268503 
L 275.090278 212.867269 
L 245.840878 214.04233 
L 153.073493 217.769151 
L 184.526482 216.505564 
L 167.683842 217.182197 
L 234.595168 214.494113 
L 294.082806 212.104266 
L 276.945737 212.792728 
L 130.160799 218.689642 
L 257.246764 213.584112 
L 274.78659 212.879469 
L 178.249958 216.757716 
L 310.845821 211.430832 
L 273.352406 212.937086 
L 318.616712 211.118645 
L 282.4186 212.572862 
L 208.288206 215.550964 
L 251.934078 213.797542 
L 265.937052 213.234989 
L 141.364844 218.239532 
L 272.586705 212.967847 
L 287.93035 212.351434 
L 344.762571 210.068266 
L 87.564872 220.400884 
L 431.719148 206.574887 
L 234.922003 214.480983 
L 406.583421 207.584686 
" clip-path="url(#p8f93ce5b8e)" style="fill: none; stroke: #1f77b4; stroke-width: 1.5; stroke-linecap: square"/>
   </g>
   <g id="line2d_16">
    <defs>
     <path id="m7cae08f36e" d="M 0 3 
C 0.795609 3 1.55874 2.683901 2.12132 2.12132 
C 2.683901 1.55874 3 0.795609 3 0 
C 3 -0.795609 2.683901 -1.55874 2.12132 -2.12132 
C 1.55874 -2.683901 0.795609 -3 0 -3 
C -0.795609 -3 -1.55874 -2.683901 -2.12132 -2.12132 
C -2.683901 -1.55874 -3 -0.795609 -3 0 
C -3 0.795609 -2.683901 1.55874 -2.12132 2.12132 
C -1.55874 2.683901 -0.795609 3 0 3 
z
" style="stroke: #000000"/>
    </defs>
    <g clip-path="url(#p8f93ce5b8e)">
     <use xlink:href="#m7cae08f36e" x="66.102102" y="194.612046" style="stroke: #000000"/>
     <use xlink:href="#m7cae08f36e" x="66.366903" y="233.433321" style="stroke: #000000"/>
     <use xlink:href="#m7cae08f36e" x="223.713328" y="179.204553" style="stroke: #000000"/>
     <use xlink:href="#m7cae08f36e" x="75.085893" y="196.968044" style="stroke: #000000"/>
     <use xlink:href="#m7cae08f36e" x="217.663643" y="176.149419" style="stroke: #000000"/>
     <use xlink:href="#m7cae08f36e" x="234.316479" y="184.849766" style="stroke: #000000"/>
     <use xlink:href="#m7cae08f36e" x="107.919366" y="220.387547" style="stroke: #000000"/>
     <use xlink:href="#m7cae08f36e" x="273.630169" y="279.681387" style="stroke: #000000"/>
     <use xlink:href="#m7cae08f36e" x="242.992878" y="217.298587" style="stroke: #000000"/>
     <use xlink:href="#m7cae08f36e" x="256.657906" y="204.406325" style="stroke: #000000"/>
     <use xlink:href="#m7cae08f36e" x="244.206704" y="181.276536" style="stroke: #000000"/>
     <use xlink:href="#m7cae08f36e" x="125.494376" y="273.004692" style="stroke: #000000"/>
     <use xlink:href="#m7cae08f36e" x="235.496973" y="192.501302" style="stroke: #000000"/>
     <use xlink:href="#m7cae08f36e" x="269.875735" y="227.614374" style="stroke: #000000"/>
     <use xlink:href="#m7cae08f36e" x="183.243216" y="196.586534" style="stroke: #000000"/>
     <use xlink:href="#m7cae08f36e" x="133.689319" y="267.251619" style="stroke: #000000"/>
     <use xlink:href="#m7cae08f36e" x="148.39133" y="247.151456" style="stroke: #000000"/>
     <use xlink:href="#m7cae08f36e" x="273.100567" y="179.421036" style="stroke: #000000"/>
     <use xlink:href="#m7cae08f36e" x="267.338831" y="158.592961" style="stroke: #000000"/>
     <use xlink:href="#m7cae08f36e" x="249.552721" y="199.151044" style="stroke: #000000"/>
     <use xlink:href="#m7cae08f36e" x="330.511462" y="279.785326" style="stroke: #000000"/>
     <use xlink:href="#m7cae08f36e" x="287.829429" y="195.358571" style="stroke: #000000"/>
     <use xlink:href="#m7cae08f36e" x="250.798027" y="161.530699" style="stroke: #000000"/>
     <use xlink:href="#m7cae08f36e" x="277.493857" y="189.466746" style="stroke: #000000"/>
     <use xlink:href="#m7cae08f36e" x="261.432657" y="248.706574" style="stroke: #000000"/>
     <use xlink:href="#m7cae08f36e" x="242.362355" y="148.108567" style="stroke: #000000"/>
     <use xlink:href="#m7cae08f36e" x="121.06868" y="236.618628" style="stroke: #000000"/>
     <use xlink:href="#m7cae08f36e" x="163.074823" y="270.202919" style="stroke: #000000"/>
     <use xlink:href="#m7cae08f36e" x="223.142987" y="237.778518" style="stroke: #000000"/>
     <use xlink:href="#m7cae08f36e" x="177.182421" y="250.944086" style="stroke: #000000"/>
     <use xlink:href="#m7cae08f36e" x="318.242658" y="207.203683" style="stroke: #000000"/>
     <use xlink:href="#m7cae08f36e" x="242.590121" y="184.966265" style="stroke: #000000"/>
     <use xlink:href="#m7cae08f36e" x="157.331604" y="220.100575" style="stroke: #000000"/>
     <use xlink:href="#m7cae08f36e" x="183.894108" y="158.754957" style="stroke: #000000"/>
     <use xlink:href="#m7cae08f36e" x="274.511605" y="189.929698" style="stroke: #000000"/>
     <use xlink:href="#m7cae08f36e" x="154.646559" y="202.527068" style="stroke: #000000"/>
     <use xlink:href="#m7cae08f36e" x="275.807834" y="223.772675" style="stroke: #000000"/>
     <use xlink:href="#m7cae08f36e" x="283.382439" y="276.798823" style="stroke: #000000"/>
     <use xlink:href="#m7cae08f36e" x="265.102836" y="279.615072" style="stroke: #000000"/>
     <use xlink:href="#m7cae08f36e" x="275.090278" y="176.815476" style="stroke: #000000"/>
     <use xlink:href="#m7cae08f36e" x="245.840878" y="187.436192" style="stroke: #000000"/>
     <use xlink:href="#m7cae08f36e" x="153.073493" y="197.427426" style="stroke: #000000"/>
     <use xlink:href="#m7cae08f36e" x="184.526482" y="229.533794" style="stroke: #000000"/>
     <use xlink:href="#m7cae08f36e" x="167.683842" y="215.186348" style="stroke: #000000"/>
     <use xlink:href="#m7cae08f36e" x="234.595168" y="180.70078" style="stroke: #000000"/>
     <use xlink:href="#m7cae08f36e" x="294.082806" y="239.815064" style="stroke: #000000"/>
     <use xlink:href="#m7cae08f36e" x="276.945737" y="186.529256" style="stroke: #000000"/>
     <use xlink:href="#m7cae08f36e" x="130.160799" y="244.112099" style="stroke: #000000"/>
     <use xlink:href="#m7cae08f36e" x="257.246764" y="227.973886" style="stroke: #000000"/>
     <use xlink:href="#m7cae08f36e" x="274.78659" y="221.220939" style="stroke: #000000"/>
     <use xlink:href="#m7cae08f36e" x="178.249958" y="202.748471" style="stroke: #000000"/>
     <use xlink:href="#m7cae08f36e" x="310.845821" y="177.176837" style="stroke: #000000"/>
     <use xlink:href="#m7cae08f36e" x="273.352406" y="218.197824" style="stroke: #000000"/>
     <use xlink:href="#m7cae08f36e" x="318.616712" y="192.178003" style="stroke: #000000"/>
     <use xlink:href="#m7cae08f36e" x="282.4186" y="218.222359" style="stroke: #000000"/>
     <use xlink:href="#m7cae08f36e" x="208.288206" y="227.738799" style="stroke: #000000"/>
     <use xlink:href="#m7cae08f36e" x="251.934078" y="198.337673" style="stroke: #000000"/>
     <use xlink:href="#m7cae08f36e" x="265.937052" y="202.107451" style="stroke: #000000"/>
     <use xlink:href="#m7cae08f36e" x="141.364844" y="261.303762" style="stroke: #000000"/>
     <use xlink:href="#m7cae08f36e" x="272.586705" y="180.95515" style="stroke: #000000"/>
     <use xlink:href="#m7cae08f36e" x="287.93035" y="223.933303" style="stroke: #000000"/>
     <use xlink:href="#m7cae08f36e" x="344.762571" y="242.70404" style="stroke: #000000"/>
     <use xlink:href="#m7cae08f36e" x="87.564872" y="219.162607" style="stroke: #000000"/>
     <use xlink:href="#m7cae08f36e" x="431.719148" y="180.859398" style="stroke: #000000"/>
     <use xlink:href="#m7cae08f36e" x="234.922003" y="260.329868" style="stroke: #000000"/>
     <use xlink:href="#m7cae08f36e" x="406.583421" y="284.523075" style="stroke: #000000"/>
    </g>
   </g>
   <g id="patch_3">
    <path d="M 47.82125 303.64 
L 47.82125 46.673817 
" style="fill: none; stroke: #000000; stroke-width: 0.8; stroke-linejoin: miter; stroke-linecap: square"/>
   </g>
   <g id="patch_4">
    <path d="M 450 303.64 
L 450 46.673817 
" style="fill: none; stroke: #000000; stroke-width: 0.8; stroke-linejoin: miter; stroke-linecap: square"/>
   </g>
   <g id="patch_5">
    <path d="M 47.82125 303.64 
L 450 303.64 
" style="fill: none; stroke: #000000; stroke-width: 0.8; stroke-linejoin: miter; stroke-linecap: square"/>
   </g>
   <g id="patch_6">
    <path d="M 47.82125 46.673817 
L 450 46.673817 
" style="fill: none; stroke: #000000; stroke-width: 0.8; stroke-linejoin: miter; stroke-linecap: square"/>
   </g>
   <g id="text_17">
    <!-- y = 0.00x + 1.09 -->
    <g transform="translate(45.118813 18.597251)scale(0.1 -0.1)">
     <defs>
      <path id="DejaVuSans-79" d="M 2059 -325 
Q 1816 -950 1584 -1140 
Q 1353 -1331 966 -1331 
L 506 -1331 
L 506 -850 
L 844 -850 
Q 1081 -850 1212 -737 
Q 1344 -625 1503 -206 
L 1606 56 
L 191 3500 
L 800 3500 
L 1894 763 
L 2988 3500 
L 3597 3500 
L 2059 -325 
z
" transform="scale(0.015625)"/>
      <path id="DejaVuSans-20" transform="scale(0.015625)"/>
      <path id="DejaVuSans-3d" d="M 678 2906 
L 4684 2906 
L 4684 2381 
L 678 2381 
L 678 2906 
z
M 678 1631 
L 4684 1631 
L 4684 1100 
L 678 1100 
L 678 1631 
z
" transform="scale(0.015625)"/>
      <path id="DejaVuSans-78" d="M 3513 3500 
L 2247 1797 
L 3578 0 
L 2900 0 
L 1881 1375 
L 863 0 
L 184 0 
L 1544 1831 
L 300 3500 
L 978 3500 
L 1906 2253 
L 2834 3500 
L 3513 3500 
z
" transform="scale(0.015625)"/>
      <path id="DejaVuSans-2b" d="M 2944 4013 
L 2944 2272 
L 4684 2272 
L 4684 1741 
L 2944 1741 
L 2944 0 
L 2419 0 
L 2419 1741 
L 678 1741 
L 678 2272 
L 2419 2272 
L 2419 4013 
L 2944 4013 
z
" transform="scale(0.015625)"/>
      <path id="DejaVuSans-39" d="M 703 97 
L 703 672 
Q 941 559 1184 500 
Q 1428 441 1663 441 
Q 2288 441 2617 861 
Q 2947 1281 2994 2138 
Q 2813 1869 2534 1725 
Q 2256 1581 1919 1581 
Q 1219 1581 811 2004 
Q 403 2428 403 3163 
Q 403 3881 828 4315 
Q 1253 4750 1959 4750 
Q 2769 4750 3195 4129 
Q 3622 3509 3622 2328 
Q 3622 1225 3098 567 
Q 2575 -91 1691 -91 
Q 1453 -91 1209 -44 
Q 966 3 703 97 
z
M 1959 2075 
Q 2384 2075 2632 2365 
Q 2881 2656 2881 3163 
Q 2881 3666 2632 3958 
Q 2384 4250 1959 4250 
Q 1534 4250 1286 3958 
Q 1038 3666 1038 3163 
Q 1038 2656 1286 2365 
Q 1534 2075 1959 2075 
z
" transform="scale(0.015625)"/>
     </defs>
     <use xlink:href="#DejaVuSans-79"/>
     <use xlink:href="#DejaVuSans-20" x="59.179688"/>
     <use xlink:href="#DejaVuSans-3d" x="90.966797"/>
     <use xlink:href="#DejaVuSans-20" x="174.755859"/>
     <use xlink:href="#DejaVuSans-30" x="206.542969"/>
     <use xlink:href="#DejaVuSans-2e" x="270.166016"/>
     <use xlink:href="#DejaVuSans-30" x="301.953125"/>
     <use xlink:href="#DejaVuSans-30" x="365.576172"/>
     <use xlink:href="#DejaVuSans-78" x="429.199219"/>
     <use xlink:href="#DejaVuSans-20" x="488.378906"/>
     <use xlink:href="#DejaVuSans-2b" x="520.166016"/>
     <use xlink:href="#DejaVuSans-20" x="603.955078"/>
     <use xlink:href="#DejaVuSans-31" x="635.742188"/>
     <use xlink:href="#DejaVuSans-2e" x="699.365234"/>
     <use xlink:href="#DejaVuSans-30" x="731.152344"/>
     <use xlink:href="#DejaVuSans-39" x="794.775391"/>
    </g>
   </g>
   <g id="text_18">
    <!-- r^2 = 0.01 -->
    <g transform="translate(60.111781 26.306236)scale(0.1 -0.1)">
     <defs>
      <path id="DejaVuSans-5e" d="M 2988 4666 
L 4684 2925 
L 4056 2925 
L 2681 4159 
L 1306 2925 
L 678 2925 
L 2375 4666 
L 2988 4666 
z
" transform="scale(0.015625)"/>
     </defs>
     <use xlink:href="#DejaVuSans-72"/>
     <use xlink:href="#DejaVuSans-5e" x="41.113281"/>
     <use xlink:href="#DejaVuSans-32" x="124.902344"/>
     <use xlink:href="#DejaVuSans-20" x="188.525391"/>
     <use xlink:href="#DejaVuSans-3d" x="220.3125"/>
     <use xlink:href="#DejaVuSans-20" x="304.101562"/>
     <use xlink:href="#DejaVuSans-30" x="335.888672"/>
     <use xlink:href="#DejaVuSans-2e" x="399.511719"/>
     <use xlink:href="#DejaVuSans-30" x="431.298828"/>
     <use xlink:href="#DejaVuSans-31" x="494.921875"/>
    </g>
   </g>
   <g id="text_19">
    <!-- n = 66 -->
    <g transform="translate(71.139906 34.015221)scale(0.1 -0.1)">
     <defs>
      <path id="DejaVuSans-36" d="M 2113 2584 
Q 1688 2584 1439 2293 
Q 1191 2003 1191 1497 
Q 1191 994 1439 701 
Q 1688 409 2113 409 
Q 2538 409 2786 701 
Q 3034 994 3034 1497 
Q 3034 2003 2786 2293 
Q 2538 2584 2113 2584 
z
M 3366 4563 
L 3366 3988 
Q 3128 4100 2886 4159 
Q 2644 4219 2406 4219 
Q 1781 4219 1451 3797 
Q 1122 3375 1075 2522 
Q 1259 2794 1537 2939 
Q 1816 3084 2150 3084 
Q 2853 3084 3261 2657 
Q 3669 2231 3669 1497 
Q 3669 778 3244 343 
Q 2819 -91 2113 -91 
Q 1303 -91 875 529 
Q 447 1150 447 2328 
Q 447 3434 972 4092 
Q 1497 4750 2381 4750 
Q 2619 4750 2861 4703 
Q 3103 4656 3366 4563 
z
" transform="scale(0.015625)"/>
     </defs>
     <use xlink:href="#DejaVuSans-6e"/>
     <use xlink:href="#DejaVuSans-20" x="63.378906"/>
     <use xlink:href="#DejaVuSans-3d" x="95.166016"/>
     <use xlink:href="#DejaVuSans-20" x="178.955078"/>
     <use xlink:href="#DejaVuSans-36" x="210.742188"/>
     <use xlink:href="#DejaVuSans-36" x="274.365234"/>
    </g>
   </g>
   <g id="text_20">
    <!-- HBONDDiff vs PercentGpA_transformed -->
    <g transform="translate(130.507187 40.673817)scale(0.12 -0.12)">
     <defs>
      <path id="DejaVuSans-76" d="M 191 3500 
L 800 3500 
L 1894 563 
L 2988 3500 
L 3597 3500 
L 2284 0 
L 1503 0 
L 191 3500 
z
" transform="scale(0.015625)"/>
     </defs>
     <use xlink:href="#DejaVuSans-48"/>
     <use xlink:href="#DejaVuSans-42" x="75.195312"/>
     <use xlink:href="#DejaVuSans-4f" x="142.048828"/>
     <use xlink:href="#DejaVuSans-4e" x="220.759766"/>
     <use xlink:href="#DejaVuSans-44" x="295.564453"/>
     <use xlink:href="#DejaVuSans-44" x="372.566406"/>
     <use xlink:href="#DejaVuSans-69" x="449.568359"/>
     <use xlink:href="#DejaVuSans-66" x="477.351562"/>
     <use xlink:href="#DejaVuSans-66" x="512.556641"/>
     <use xlink:href="#DejaVuSans-20" x="547.761719"/>
     <use xlink:href="#DejaVuSans-76" x="579.548828"/>
     <use xlink:href="#DejaVuSans-73" x="638.728516"/>
     <use xlink:href="#DejaVuSans-20" x="690.828125"/>
     <use xlink:href="#DejaVuSans-50" x="722.615234"/>
     <use xlink:href="#DejaVuSans-65" x="779.292969"/>
     <use xlink:href="#DejaVuSans-72" x="840.816406"/>
     <use xlink:href="#DejaVuSans-63" x="879.679688"/>
     <use xlink:href="#DejaVuSans-65" x="934.660156"/>
     <use xlink:href="#DejaVuSans-6e" x="996.183594"/>
     <use xlink:href="#DejaVuSans-74" x="1059.5625"/>
     <use xlink:href="#DejaVuSans-47" x="1098.771484"/>
     <use xlink:href="#DejaVuSans-70" x="1176.261719"/>
     <use xlink:href="#DejaVuSans-41" x="1239.738281"/>
     <use xlink:href="#DejaVuSans-5f" x="1308.146484"/>
     <use xlink:href="#DejaVuSans-74" x="1358.146484"/>
     <use xlink:href="#DejaVuSans-72" x="1397.355469"/>
     <use xlink:href="#DejaVuSans-61" x="1438.46875"/>
     <use xlink:href="#DejaVuSans-6e" x="1499.748047"/>
     <use xlink:href="#DejaVuSans-73" x="1563.126953"/>
     <use xlink:href="#DejaVuSans-66" x="1615.226562"/>
     <use xlink:href="#DejaVuSans-6f" x="1650.431641"/>
     <use xlink:href="#DejaVuSans-72" x="1711.613281"/>
     <use xlink:href="#DejaVuSans-6d" x="1750.976562"/>
     <use xlink:href="#DejaVuSans-65" x="1848.388672"/>
     <use xlink:href="#DejaVuSans-64" x="1909.912109"/>
    </g>
   </g>
  </g>
 </g>
 <defs>
  <clipPath id="p8f93ce5b8e">
   <rect x="47.82125" y="46.673817" width="402.17875" height="256.966183"/>
  </clipPath>
 </defs>
</svg>
