<?xml version="1.0" encoding="utf-8" standalone="no"?>
<!DOCTYPE svg PUBLIC "-//W3C//DTD SVG 1.1//EN"
  "http://www.w3.org/Graphics/SVG/1.1/DTD/svg11.dtd">
<svg xmlns:xlink="http://www.w3.org/1999/xlink" width="460.8pt" height="345.6pt" viewBox="0 0 460.8 345.6" xmlns="http://www.w3.org/2000/svg" version="1.1">
 <metadata>
  <rdf:RDF xmlns:dc="http://purl.org/dc/elements/1.1/" xmlns:cc="http://creativecommons.org/ns#" xmlns:rdf="http://www.w3.org/1999/02/22-rdf-syntax-ns#">
   <cc:Work>
    <dc:type rdf:resource="http://purl.org/dc/dcmitype/StillImage"/>
    <dc:date>2024-06-14T16:04:07.653852</dc:date>
    <dc:format>image/svg+xml</dc:format>
    <dc:creator>
     <cc:Agent>
      <dc:title>Matplotlib v3.5.3, https://matplotlib.org/</dc:title>
     </cc:Agent>
    </dc:creator>
   </cc:Work>
  </rdf:RDF>
 </metadata>
 <defs>
  <style type="text/css">*{stroke-linejoin: round; stroke-linecap: butt}</style>
 </defs>
 <g id="figure_1">
  <g id="patch_1">
   <path d="M 0 345.6 
L 460.8 345.6 
L 460.8 0 
L 0 0 
z
" style="fill: #ffffff"/>
  </g>
  <g id="axes_1">
   <g id="patch_2">
    <path d="M 47.72 303.64 
L 450 303.64 
L 450 267.042226 
L 47.72 267.042226 
z
" style="fill: #ffffff"/>
   </g>
   <g id="matplotlib.axis_1">
    <g id="xtick_1">
     <g id="text_1">
      <!-- 12I -->
      <g style="fill: #262626" transform="translate(106.929167 318.238437)scale(0.1 -0.1)">
       <defs>
        <path id="DejaVuSans-31" d="M 794 531 
L 1825 531 
L 1825 4091 
L 703 3866 
L 703 4441 
L 1819 4666 
L 2450 4666 
L 2450 531 
L 3481 531 
L 3481 0 
L 794 0 
L 794 531 
z
" transform="scale(0.015625)"/>
        <path id="DejaVuSans-32" d="M 1228 531 
L 3431 531 
L 3431 0 
L 469 0 
L 469 531 
Q 828 903 1448 1529 
Q 2069 2156 2228 2338 
Q 2531 2678 2651 2914 
Q 2772 3150 2772 3378 
Q 2772 3750 2511 3984 
Q 2250 4219 1831 4219 
Q 1534 4219 1204 4116 
Q 875 4013 500 3803 
L 500 4441 
Q 881 4594 1212 4672 
Q 1544 4750 1819 4750 
Q 2544 4750 2975 4387 
Q 3406 4025 3406 3419 
Q 3406 3131 3298 2873 
Q 3191 2616 2906 2266 
Q 2828 2175 2409 1742 
Q 1991 1309 1228 531 
z
" transform="scale(0.015625)"/>
        <path id="DejaVuSans-49" d="M 628 4666 
L 1259 4666 
L 1259 0 
L 628 0 
L 628 4666 
z
" transform="scale(0.015625)"/>
       </defs>
       <use xlink:href="#DejaVuSans-31"/>
       <use xlink:href="#DejaVuSans-32" x="63.623047"/>
       <use xlink:href="#DejaVuSans-49" x="127.246094"/>
      </g>
     </g>
    </g>
    <g id="xtick_2">
     <g id="text_2">
      <!-- 4I -->
      <g style="fill: #262626" transform="translate(244.20375 318.238437)scale(0.1 -0.1)">
       <defs>
        <path id="DejaVuSans-34" d="M 2419 4116 
L 825 1625 
L 2419 1625 
L 2419 4116 
z
M 2253 4666 
L 3047 4666 
L 3047 1625 
L 3713 1625 
L 3713 1100 
L 3047 1100 
L 3047 0 
L 2419 0 
L 2419 1100 
L 313 1100 
L 313 1709 
L 2253 4666 
z
" transform="scale(0.015625)"/>
       </defs>
       <use xlink:href="#DejaVuSans-34"/>
       <use xlink:href="#DejaVuSans-49" x="63.623047"/>
      </g>
     </g>
    </g>
    <g id="xtick_3">
     <g id="text_3">
      <!-- 5A -->
      <g style="fill: #262626" transform="translate(376.351771 318.238437)scale(0.1 -0.1)">
       <defs>
        <path id="DejaVuSans-35" d="M 691 4666 
L 3169 4666 
L 3169 4134 
L 1269 4134 
L 1269 2991 
Q 1406 3038 1543 3061 
Q 1681 3084 1819 3084 
Q 2600 3084 3056 2656 
Q 3513 2228 3513 1497 
Q 3513 744 3044 326 
Q 2575 -91 1722 -91 
Q 1428 -91 1123 -41 
Q 819 9 494 109 
L 494 744 
Q 775 591 1075 516 
Q 1375 441 1709 441 
Q 2250 441 2565 725 
Q 2881 1009 2881 1497 
Q 2881 1984 2565 2268 
Q 2250 2553 1709 2553 
Q 1456 2553 1204 2497 
Q 953 2441 691 2322 
L 691 4666 
z
" transform="scale(0.015625)"/>
        <path id="DejaVuSans-41" d="M 2188 4044 
L 1331 1722 
L 3047 1722 
L 2188 4044 
z
M 1831 4666 
L 2547 4666 
L 4325 0 
L 3669 0 
L 3244 1197 
L 1141 1197 
L 716 0 
L 50 0 
L 1831 4666 
z
" transform="scale(0.015625)"/>
       </defs>
       <use xlink:href="#DejaVuSans-35"/>
       <use xlink:href="#DejaVuSans-41" x="63.623047"/>
      </g>
     </g>
    </g>
    <g id="text_4">
     <!-- pos_mutAA -->
     <g style="fill: #262626" transform="translate(220.544375 331.638437)scale(0.1 -0.1)">
      <defs>
       <path id="DejaVuSans-70" d="M 1159 525 
L 1159 -1331 
L 581 -1331 
L 581 3500 
L 1159 3500 
L 1159 2969 
Q 1341 3281 1617 3432 
Q 1894 3584 2278 3584 
Q 2916 3584 3314 3078 
Q 3713 2572 3713 1747 
Q 3713 922 3314 415 
Q 2916 -91 2278 -91 
Q 1894 -91 1617 61 
Q 1341 213 1159 525 
z
M 3116 1747 
Q 3116 2381 2855 2742 
Q 2594 3103 2138 3103 
Q 1681 3103 1420 2742 
Q 1159 2381 1159 1747 
Q 1159 1113 1420 752 
Q 1681 391 2138 391 
Q 2594 391 2855 752 
Q 3116 1113 3116 1747 
z
" transform="scale(0.015625)"/>
       <path id="DejaVuSans-6f" d="M 1959 3097 
Q 1497 3097 1228 2736 
Q 959 2375 959 1747 
Q 959 1119 1226 758 
Q 1494 397 1959 397 
Q 2419 397 2687 759 
Q 2956 1122 2956 1747 
Q 2956 2369 2687 2733 
Q 2419 3097 1959 3097 
z
M 1959 3584 
Q 2709 3584 3137 3096 
Q 3566 2609 3566 1747 
Q 3566 888 3137 398 
Q 2709 -91 1959 -91 
Q 1206 -91 779 398 
Q 353 888 353 1747 
Q 353 2609 779 3096 
Q 1206 3584 1959 3584 
z
" transform="scale(0.015625)"/>
       <path id="DejaVuSans-73" d="M 2834 3397 
L 2834 2853 
Q 2591 2978 2328 3040 
Q 2066 3103 1784 3103 
Q 1356 3103 1142 2972 
Q 928 2841 928 2578 
Q 928 2378 1081 2264 
Q 1234 2150 1697 2047 
L 1894 2003 
Q 2506 1872 2764 1633 
Q 3022 1394 3022 966 
Q 3022 478 2636 193 
Q 2250 -91 1575 -91 
Q 1294 -91 989 -36 
Q 684 19 347 128 
L 347 722 
Q 666 556 975 473 
Q 1284 391 1588 391 
Q 1994 391 2212 530 
Q 2431 669 2431 922 
Q 2431 1156 2273 1281 
Q 2116 1406 1581 1522 
L 1381 1569 
Q 847 1681 609 1914 
Q 372 2147 372 2553 
Q 372 3047 722 3315 
Q 1072 3584 1716 3584 
Q 2034 3584 2315 3537 
Q 2597 3491 2834 3397 
z
" transform="scale(0.015625)"/>
       <path id="DejaVuSans-5f" d="M 3263 -1063 
L 3263 -1509 
L -63 -1509 
L -63 -1063 
L 3263 -1063 
z
" transform="scale(0.015625)"/>
       <path id="DejaVuSans-6d" d="M 3328 2828 
Q 3544 3216 3844 3400 
Q 4144 3584 4550 3584 
Q 5097 3584 5394 3201 
Q 5691 2819 5691 2113 
L 5691 0 
L 5113 0 
L 5113 2094 
Q 5113 2597 4934 2840 
Q 4756 3084 4391 3084 
Q 3944 3084 3684 2787 
Q 3425 2491 3425 1978 
L 3425 0 
L 2847 0 
L 2847 2094 
Q 2847 2600 2669 2842 
Q 2491 3084 2119 3084 
Q 1678 3084 1418 2786 
Q 1159 2488 1159 1978 
L 1159 0 
L 581 0 
L 581 3500 
L 1159 3500 
L 1159 2956 
Q 1356 3278 1631 3431 
Q 1906 3584 2284 3584 
Q 2666 3584 2933 3390 
Q 3200 3197 3328 2828 
z
" transform="scale(0.015625)"/>
       <path id="DejaVuSans-75" d="M 544 1381 
L 544 3500 
L 1119 3500 
L 1119 1403 
Q 1119 906 1312 657 
Q 1506 409 1894 409 
Q 2359 409 2629 706 
Q 2900 1003 2900 1516 
L 2900 3500 
L 3475 3500 
L 3475 0 
L 2900 0 
L 2900 538 
Q 2691 219 2414 64 
Q 2138 -91 1772 -91 
Q 1169 -91 856 284 
Q 544 659 544 1381 
z
M 1991 3584 
L 1991 3584 
z
" transform="scale(0.015625)"/>
       <path id="DejaVuSans-74" d="M 1172 4494 
L 1172 3500 
L 2356 3500 
L 2356 3053 
L 1172 3053 
L 1172 1153 
Q 1172 725 1289 603 
Q 1406 481 1766 481 
L 2356 481 
L 2356 0 
L 1766 0 
Q 1100 0 847 248 
Q 594 497 594 1153 
L 594 3053 
L 172 3053 
L 172 3500 
L 594 3500 
L 594 4494 
L 1172 4494 
z
" transform="scale(0.015625)"/>
      </defs>
      <use xlink:href="#DejaVuSans-70"/>
      <use xlink:href="#DejaVuSans-6f" x="63.476562"/>
      <use xlink:href="#DejaVuSans-73" x="124.658203"/>
      <use xlink:href="#DejaVuSans-5f" x="176.757812"/>
      <use xlink:href="#DejaVuSans-6d" x="226.757812"/>
      <use xlink:href="#DejaVuSans-75" x="324.169922"/>
      <use xlink:href="#DejaVuSans-74" x="387.548828"/>
      <use xlink:href="#DejaVuSans-41" x="426.757812"/>
      <use xlink:href="#DejaVuSans-41" x="497.916016"/>
     </g>
    </g>
   </g>
   <g id="matplotlib.axis_2">
    <g id="ytick_1">
     <g id="line2d_1">
      <path d="M 47.72 303.64 
L 450 303.64 
" clip-path="url(#pe41172da4a)" style="fill: none; stroke: #cccccc; stroke-width: 0.8; stroke-linecap: round"/>
     </g>
     <g id="text_5">
      <!-- 0.0 -->
      <g style="fill: #262626" transform="translate(24.816875 307.439219)scale(0.1 -0.1)">
       <defs>
        <path id="DejaVuSans-30" d="M 2034 4250 
Q 1547 4250 1301 3770 
Q 1056 3291 1056 2328 
Q 1056 1369 1301 889 
Q 1547 409 2034 409 
Q 2525 409 2770 889 
Q 3016 1369 3016 2328 
Q 3016 3291 2770 3770 
Q 2525 4250 2034 4250 
z
M 2034 4750 
Q 2819 4750 3233 4129 
Q 3647 3509 3647 2328 
Q 3647 1150 3233 529 
Q 2819 -91 2034 -91 
Q 1250 -91 836 529 
Q 422 1150 422 2328 
Q 422 3509 836 4129 
Q 1250 4750 2034 4750 
z
" transform="scale(0.015625)"/>
        <path id="DejaVuSans-2e" d="M 684 794 
L 1344 794 
L 1344 0 
L 684 0 
L 684 794 
z
" transform="scale(0.015625)"/>
       </defs>
       <use xlink:href="#DejaVuSans-30"/>
       <use xlink:href="#DejaVuSans-2e" x="63.623047"/>
       <use xlink:href="#DejaVuSans-30" x="95.410156"/>
      </g>
     </g>
    </g>
    <g id="ytick_2">
     <g id="line2d_2">
      <path d="M 47.72 283.068259 
L 450 283.068259 
" clip-path="url(#pe41172da4a)" style="fill: none; stroke: #cccccc; stroke-width: 0.8; stroke-linecap: round"/>
     </g>
     <g id="text_6">
      <!-- 0.5 -->
      <g style="fill: #262626" transform="translate(24.816875 286.867478)scale(0.1 -0.1)">
       <use xlink:href="#DejaVuSans-30"/>
       <use xlink:href="#DejaVuSans-2e" x="63.623047"/>
       <use xlink:href="#DejaVuSans-35" x="95.410156"/>
      </g>
     </g>
    </g>
    <g id="text_7">
     <!-- PercentGpA -->
     <g style="fill: #262626" transform="translate(18.737188 314.617675)rotate(-90)scale(0.1 -0.1)">
      <defs>
       <path id="DejaVuSans-50" d="M 1259 4147 
L 1259 2394 
L 2053 2394 
Q 2494 2394 2734 2622 
Q 2975 2850 2975 3272 
Q 2975 3691 2734 3919 
Q 2494 4147 2053 4147 
L 1259 4147 
z
M 628 4666 
L 2053 4666 
Q 2838 4666 3239 4311 
Q 3641 3956 3641 3272 
Q 3641 2581 3239 2228 
Q 2838 1875 2053 1875 
L 1259 1875 
L 1259 0 
L 628 0 
L 628 4666 
z
" transform="scale(0.015625)"/>
       <path id="DejaVuSans-65" d="M 3597 1894 
L 3597 1613 
L 953 1613 
Q 991 1019 1311 708 
Q 1631 397 2203 397 
Q 2534 397 2845 478 
Q 3156 559 3463 722 
L 3463 178 
Q 3153 47 2828 -22 
Q 2503 -91 2169 -91 
Q 1331 -91 842 396 
Q 353 884 353 1716 
Q 353 2575 817 3079 
Q 1281 3584 2069 3584 
Q 2775 3584 3186 3129 
Q 3597 2675 3597 1894 
z
M 3022 2063 
Q 3016 2534 2758 2815 
Q 2500 3097 2075 3097 
Q 1594 3097 1305 2825 
Q 1016 2553 972 2059 
L 3022 2063 
z
" transform="scale(0.015625)"/>
       <path id="DejaVuSans-72" d="M 2631 2963 
Q 2534 3019 2420 3045 
Q 2306 3072 2169 3072 
Q 1681 3072 1420 2755 
Q 1159 2438 1159 1844 
L 1159 0 
L 581 0 
L 581 3500 
L 1159 3500 
L 1159 2956 
Q 1341 3275 1631 3429 
Q 1922 3584 2338 3584 
Q 2397 3584 2469 3576 
Q 2541 3569 2628 3553 
L 2631 2963 
z
" transform="scale(0.015625)"/>
       <path id="DejaVuSans-63" d="M 3122 3366 
L 3122 2828 
Q 2878 2963 2633 3030 
Q 2388 3097 2138 3097 
Q 1578 3097 1268 2742 
Q 959 2388 959 1747 
Q 959 1106 1268 751 
Q 1578 397 2138 397 
Q 2388 397 2633 464 
Q 2878 531 3122 666 
L 3122 134 
Q 2881 22 2623 -34 
Q 2366 -91 2075 -91 
Q 1284 -91 818 406 
Q 353 903 353 1747 
Q 353 2603 823 3093 
Q 1294 3584 2113 3584 
Q 2378 3584 2631 3529 
Q 2884 3475 3122 3366 
z
" transform="scale(0.015625)"/>
       <path id="DejaVuSans-6e" d="M 3513 2113 
L 3513 0 
L 2938 0 
L 2938 2094 
Q 2938 2591 2744 2837 
Q 2550 3084 2163 3084 
Q 1697 3084 1428 2787 
Q 1159 2491 1159 1978 
L 1159 0 
L 581 0 
L 581 3500 
L 1159 3500 
L 1159 2956 
Q 1366 3272 1645 3428 
Q 1925 3584 2291 3584 
Q 2894 3584 3203 3211 
Q 3513 2838 3513 2113 
z
" transform="scale(0.015625)"/>
       <path id="DejaVuSans-47" d="M 3809 666 
L 3809 1919 
L 2778 1919 
L 2778 2438 
L 4434 2438 
L 4434 434 
Q 4069 175 3628 42 
Q 3188 -91 2688 -91 
Q 1594 -91 976 548 
Q 359 1188 359 2328 
Q 359 3472 976 4111 
Q 1594 4750 2688 4750 
Q 3144 4750 3555 4637 
Q 3966 4525 4313 4306 
L 4313 3634 
Q 3963 3931 3569 4081 
Q 3175 4231 2741 4231 
Q 1884 4231 1454 3753 
Q 1025 3275 1025 2328 
Q 1025 1384 1454 906 
Q 1884 428 2741 428 
Q 3075 428 3337 486 
Q 3600 544 3809 666 
z
" transform="scale(0.015625)"/>
      </defs>
      <use xlink:href="#DejaVuSans-50"/>
      <use xlink:href="#DejaVuSans-65" x="56.677734"/>
      <use xlink:href="#DejaVuSans-72" x="118.201172"/>
      <use xlink:href="#DejaVuSans-63" x="157.064453"/>
      <use xlink:href="#DejaVuSans-65" x="212.044922"/>
      <use xlink:href="#DejaVuSans-6e" x="273.568359"/>
      <use xlink:href="#DejaVuSans-74" x="336.947266"/>
      <use xlink:href="#DejaVuSans-47" x="376.15625"/>
      <use xlink:href="#DejaVuSans-70" x="453.646484"/>
      <use xlink:href="#DejaVuSans-41" x="517.123047"/>
     </g>
    </g>
   </g>
   <g id="patch_3">
    <path d="M 61.665707 296.938104 
L 114.230293 296.938104 
L 114.230293 293.891808 
L 61.665707 293.891808 
L 61.665707 296.938104 
z
" clip-path="url(#pe41172da4a)" style="fill: #ecf2ec; stroke: #262626; stroke-width: 1.5; stroke-linejoin: miter"/>
   </g>
   <g id="patch_4">
    <path d="M 115.30304 292.435145 
L 167.867627 292.435145 
L 167.867627 285.270254 
L 115.30304 285.270254 
L 115.30304 292.435145 
z
" clip-path="url(#pe41172da4a)" style="fill: #107010; stroke: #262626; stroke-width: 1.5; stroke-linejoin: miter"/>
   </g>
   <g id="patch_5">
    <path d="M 195.75904 296.006104 
L 248.323627 296.006104 
L 248.323627 293.849742 
L 195.75904 293.849742 
L 195.75904 296.006104 
z
" clip-path="url(#pe41172da4a)" style="fill: #ecf2ec; stroke: #262626; stroke-width: 1.5; stroke-linejoin: miter"/>
   </g>
   <g id="patch_6">
    <path d="M 249.396373 294.084281 
L 301.96096 294.084281 
L 301.96096 288.243637 
L 249.396373 288.243637 
L 249.396373 294.084281 
z
" clip-path="url(#pe41172da4a)" style="fill: #107010; stroke: #262626; stroke-width: 1.5; stroke-linejoin: miter"/>
   </g>
   <g id="patch_7">
    <path d="M 329.852373 290.960802 
L 382.41696 290.960802 
L 382.41696 286.985409 
L 329.852373 286.985409 
L 329.852373 290.960802 
z
" clip-path="url(#pe41172da4a)" style="fill: #ecf2ec; stroke: #262626; stroke-width: 1.5; stroke-linejoin: miter"/>
   </g>
   <g id="patch_8">
    <path d="M 383.489707 294.447712 
L 436.054293 294.447712 
L 436.054293 292.251518 
L 383.489707 292.251518 
L 383.489707 294.447712 
z
" clip-path="url(#pe41172da4a)" style="fill: #107010; stroke: #262626; stroke-width: 1.5; stroke-linejoin: miter"/>
   </g>
   <g id="patch_9">
    <path d="M 114.766667 303.64 
L 114.766667 303.64 
L 114.766667 303.64 
L 114.766667 303.64 
z
" clip-path="url(#pe41172da4a)" style="fill: #ecf2ec; stroke: #262626; stroke-width: 0.75; stroke-linejoin: miter"/>
   </g>
   <g id="patch_10">
    <path d="M 114.766667 303.64 
L 114.766667 303.64 
L 114.766667 303.64 
L 114.766667 303.64 
z
" clip-path="url(#pe41172da4a)" style="fill: #107010; stroke: #262626; stroke-width: 0.75; stroke-linejoin: miter"/>
   </g>
   <g id="PathCollection_1"/>
   <g id="PathCollection_2"/>
   <g id="line2d_3">
    <path d="M 87.948 296.938104 
L 87.948 298.472045 
" clip-path="url(#pe41172da4a)" style="fill: none; stroke: #262626; stroke-width: 1.5; stroke-linecap: round"/>
   </g>
   <g id="line2d_4">
    <path d="M 87.948 293.891808 
L 87.948 291.789823 
" clip-path="url(#pe41172da4a)" style="fill: none; stroke: #262626; stroke-width: 1.5; stroke-linecap: round"/>
   </g>
   <g id="line2d_5">
    <path d="M 74.806853 298.472045 
L 101.089147 298.472045 
" clip-path="url(#pe41172da4a)" style="fill: none; stroke: #262626; stroke-width: 1.5; stroke-linecap: round"/>
   </g>
   <g id="line2d_6">
    <path d="M 74.806853 291.789823 
L 101.089147 291.789823 
" clip-path="url(#pe41172da4a)" style="fill: none; stroke: #262626; stroke-width: 1.5; stroke-linecap: round"/>
   </g>
   <g id="line2d_7">
    <defs>
     <path id="mbaabd6f542" d="M -0 1.414214 
L 0.848528 0 
L 0 -1.414214 
L -0.848528 -0 
z
" style="stroke: #262626; stroke-linejoin: miter"/>
    </defs>
    <g clip-path="url(#pe41172da4a)">
     <use xlink:href="#mbaabd6f542" x="87.948" y="284.248728" style="fill: #262626; stroke: #262626; stroke-linejoin: miter"/>
    </g>
   </g>
   <g id="line2d_8">
    <path d="M 141.585333 292.435145 
L 141.585333 294.2774 
" clip-path="url(#pe41172da4a)" style="fill: none; stroke: #262626; stroke-width: 1.5; stroke-linecap: round"/>
   </g>
   <g id="line2d_9">
    <path d="M 141.585333 285.270254 
L 141.585333 281.105043 
" clip-path="url(#pe41172da4a)" style="fill: none; stroke: #262626; stroke-width: 1.5; stroke-linecap: round"/>
   </g>
   <g id="line2d_10">
    <path d="M 128.444187 294.2774 
L 154.72648 294.2774 
" clip-path="url(#pe41172da4a)" style="fill: none; stroke: #262626; stroke-width: 1.5; stroke-linecap: round"/>
   </g>
   <g id="line2d_11">
    <path d="M 128.444187 281.105043 
L 154.72648 281.105043 
" clip-path="url(#pe41172da4a)" style="fill: none; stroke: #262626; stroke-width: 1.5; stroke-linecap: round"/>
   </g>
   <g id="line2d_12">
    <g clip-path="url(#pe41172da4a)">
     <use xlink:href="#mbaabd6f542" x="141.585333" y="270.369296" style="fill: #262626; stroke: #262626; stroke-linejoin: miter"/>
    </g>
   </g>
   <g id="line2d_13">
    <path d="M 222.041333 296.006104 
L 222.041333 298.874941 
" clip-path="url(#pe41172da4a)" style="fill: none; stroke: #262626; stroke-width: 1.5; stroke-linecap: round"/>
   </g>
   <g id="line2d_14">
    <path d="M 222.041333 293.849742 
L 222.041333 292.024626 
" clip-path="url(#pe41172da4a)" style="fill: none; stroke: #262626; stroke-width: 1.5; stroke-linecap: round"/>
   </g>
   <g id="line2d_15">
    <path d="M 208.900187 298.874941 
L 235.18248 298.874941 
" clip-path="url(#pe41172da4a)" style="fill: none; stroke: #262626; stroke-width: 1.5; stroke-linecap: round"/>
   </g>
   <g id="line2d_16">
    <path d="M 208.900187 292.024626 
L 235.18248 292.024626 
" clip-path="url(#pe41172da4a)" style="fill: none; stroke: #262626; stroke-width: 1.5; stroke-linecap: round"/>
   </g>
   <g id="line2d_17">
    <g clip-path="url(#pe41172da4a)">
     <use xlink:href="#mbaabd6f542" x="222.041333" y="289.86672" style="fill: #262626; stroke: #262626; stroke-linejoin: miter"/>
     <use xlink:href="#mbaabd6f542" x="222.041333" y="289.213931" style="fill: #262626; stroke: #262626; stroke-linejoin: miter"/>
    </g>
   </g>
   <g id="line2d_18">
    <path d="M 275.678667 294.084281 
L 275.678667 294.989522 
" clip-path="url(#pe41172da4a)" style="fill: none; stroke: #262626; stroke-width: 1.5; stroke-linecap: round"/>
   </g>
   <g id="line2d_19">
    <path d="M 275.678667 288.243637 
L 275.678667 281.145613 
" clip-path="url(#pe41172da4a)" style="fill: none; stroke: #262626; stroke-width: 1.5; stroke-linecap: round"/>
   </g>
   <g id="line2d_20">
    <path d="M 262.53752 294.989522 
L 288.819813 294.989522 
" clip-path="url(#pe41172da4a)" style="fill: none; stroke: #262626; stroke-width: 1.5; stroke-linecap: round"/>
   </g>
   <g id="line2d_21">
    <path d="M 262.53752 281.145613 
L 288.819813 281.145613 
" clip-path="url(#pe41172da4a)" style="fill: none; stroke: #262626; stroke-width: 1.5; stroke-linecap: round"/>
   </g>
   <g id="line2d_22"/>
   <g id="line2d_23">
    <path d="M 356.134667 290.960802 
L 356.134667 293.510417 
" clip-path="url(#pe41172da4a)" style="fill: none; stroke: #262626; stroke-width: 1.5; stroke-linecap: round"/>
   </g>
   <g id="line2d_24">
    <path d="M 356.134667 286.985409 
L 356.134667 284.255869 
" clip-path="url(#pe41172da4a)" style="fill: none; stroke: #262626; stroke-width: 1.5; stroke-linecap: round"/>
   </g>
   <g id="line2d_25">
    <path d="M 342.99352 293.510417 
L 369.275813 293.510417 
" clip-path="url(#pe41172da4a)" style="fill: none; stroke: #262626; stroke-width: 1.5; stroke-linecap: round"/>
   </g>
   <g id="line2d_26">
    <path d="M 342.99352 284.255869 
L 369.275813 284.255869 
" clip-path="url(#pe41172da4a)" style="fill: none; stroke: #262626; stroke-width: 1.5; stroke-linecap: round"/>
   </g>
   <g id="line2d_27"/>
   <g id="line2d_28">
    <path d="M 409.772 294.447712 
L 409.772 294.611127 
" clip-path="url(#pe41172da4a)" style="fill: none; stroke: #262626; stroke-width: 1.5; stroke-linecap: round"/>
   </g>
   <g id="line2d_29">
    <path d="M 409.772 292.251518 
L 409.772 290.218738 
" clip-path="url(#pe41172da4a)" style="fill: none; stroke: #262626; stroke-width: 1.5; stroke-linecap: round"/>
   </g>
   <g id="line2d_30">
    <path d="M 396.630853 294.611127 
L 422.913147 294.611127 
" clip-path="url(#pe41172da4a)" style="fill: none; stroke: #262626; stroke-width: 1.5; stroke-linecap: round"/>
   </g>
   <g id="line2d_31">
    <path d="M 396.630853 290.218738 
L 422.913147 290.218738 
" clip-path="url(#pe41172da4a)" style="fill: none; stroke: #262626; stroke-width: 1.5; stroke-linecap: round"/>
   </g>
   <g id="line2d_32"/>
   <g id="line2d_33">
    <path d="M 61.665707 295.501985 
L 114.230293 295.501985 
" clip-path="url(#pe41172da4a)" style="fill: none; stroke: #262626; stroke-width: 1.5; stroke-linecap: round"/>
   </g>
   <g id="line2d_34">
    <path d="M 115.30304 286.675763 
L 167.867627 286.675763 
" clip-path="url(#pe41172da4a)" style="fill: none; stroke: #262626; stroke-width: 1.5; stroke-linecap: round"/>
   </g>
   <g id="line2d_35">
    <path d="M 195.75904 295.064172 
L 248.323627 295.064172 
" clip-path="url(#pe41172da4a)" style="fill: none; stroke: #262626; stroke-width: 1.5; stroke-linecap: round"/>
   </g>
   <g id="line2d_36">
    <path d="M 249.396373 292.55096 
L 301.96096 292.55096 
" clip-path="url(#pe41172da4a)" style="fill: none; stroke: #262626; stroke-width: 1.5; stroke-linecap: round"/>
   </g>
   <g id="line2d_37">
    <path d="M 329.852373 288.697172 
L 382.41696 288.697172 
" clip-path="url(#pe41172da4a)" style="fill: none; stroke: #262626; stroke-width: 1.5; stroke-linecap: round"/>
   </g>
   <g id="line2d_38">
    <path d="M 383.489707 294.284298 
L 436.054293 294.284298 
" clip-path="url(#pe41172da4a)" style="fill: none; stroke: #262626; stroke-width: 1.5; stroke-linecap: round"/>
   </g>
   <g id="patch_11">
    <path d="M 47.72 303.64 
L 47.72 267.042226 
" style="fill: none; stroke: #cccccc; stroke-width: 0.8; stroke-linejoin: miter; stroke-linecap: square"/>
   </g>
   <g id="patch_12">
    <path d="M 450 303.64 
L 450 267.042226 
" style="fill: none; stroke: #cccccc; stroke-width: 0.8; stroke-linejoin: miter; stroke-linecap: square"/>
   </g>
   <g id="patch_13">
    <path d="M 47.72 303.64 
L 450 303.64 
" style="fill: none; stroke: #cccccc; stroke-width: 0.8; stroke-linejoin: miter; stroke-linecap: square"/>
   </g>
   <g id="patch_14">
    <path d="M 47.72 267.042226 
L 450 267.042226 
" style="fill: none; stroke: #cccccc; stroke-width: 0.8; stroke-linejoin: miter; stroke-linecap: square"/>
   </g>
   <g id="PathCollection_3">
    <defs>
     <path id="C0_0_a3df81343f" d="M 0 1 
C 0.265203 1 0.51958 0.894634 0.707107 0.707107 
C 0.894634 0.51958 1 0.265203 1 -0 
C 1 -0.265203 0.894634 -0.51958 0.707107 -0.707107 
C 0.51958 -0.894634 0.265203 -1 0 -1 
C -0.265203 -1 -0.51958 -0.894634 -0.707107 -0.707107 
C -0.894634 -0.51958 -1 -0.265203 -1 0 
C -1 0.265203 -0.894634 0.51958 -0.707107 0.707107 
C -0.51958 0.894634 -0.265203 1 0 1 
z
"/>
    </defs>
    <g clip-path="url(#pe41172da4a)">
     <use xlink:href="#C0_0_a3df81343f" x="87.607376" y="296.934637" style="fill: #262626"/>
    </g>
    <g clip-path="url(#pe41172da4a)">
     <use xlink:href="#C0_0_a3df81343f" x="84.158858" y="296.948506" style="fill: #262626"/>
    </g>
    <g clip-path="url(#pe41172da4a)">
     <use xlink:href="#C0_0_a3df81343f" x="82.426045" y="294.178638" style="fill: #262626"/>
    </g>
    <g clip-path="url(#pe41172da4a)">
     <use xlink:href="#C0_0_a3df81343f" x="85.891919" y="296.401956" style="fill: #262626"/>
    </g>
    <g clip-path="url(#pe41172da4a)">
     <use xlink:href="#C0_0_a3df81343f" x="85.581834" y="294.001519" style="fill: #262626"/>
    </g>
    <g clip-path="url(#pe41172da4a)">
     <use xlink:href="#C0_0_a3df81343f" x="91.541927" y="295.334549" style="fill: #262626"/>
    </g>
    <g clip-path="url(#pe41172da4a)">
     <use xlink:href="#C0_0_a3df81343f" x="89.260589" y="298.472045" style="fill: #262626"/>
    </g>
    <g clip-path="url(#pe41172da4a)">
     <use xlink:href="#C0_0_a3df81343f" x="89.037886" y="295.66942" style="fill: #262626"/>
    </g>
    <g clip-path="url(#pe41172da4a)">
     <use xlink:href="#C0_0_a3df81343f" x="81.245103" y="293.967617" style="fill: #262626"/>
    </g>
    <g clip-path="url(#pe41172da4a)">
     <use xlink:href="#C0_0_a3df81343f" x="91.193247" y="293.664381" style="fill: #262626"/>
    </g>
    <g clip-path="url(#pe41172da4a)">
     <use xlink:href="#C0_0_a3df81343f" x="88.887592" y="293.519967" style="fill: #262626"/>
    </g>
    <g clip-path="url(#pe41172da4a)">
     <use xlink:href="#C0_0_a3df81343f" x="88.678665" y="297.520802" style="fill: #262626"/>
    </g>
    <g clip-path="url(#pe41172da4a)">
     <use xlink:href="#C0_0_a3df81343f" x="92.20711" y="297.096265" style="fill: #262626"/>
    </g>
    <g clip-path="url(#pe41172da4a)">
     <use xlink:href="#C0_0_a3df81343f" x="94.408514" y="291.789823" style="fill: #262626"/>
    </g>
    <g clip-path="url(#pe41172da4a)">
     <use xlink:href="#C0_0_a3df81343f" x="81.615068" y="295.935889" style="fill: #262626"/>
    </g>
    <g clip-path="url(#pe41172da4a)">
     <use xlink:href="#C0_0_a3df81343f" x="90.580607" y="284.248728" style="fill: #262626"/>
    </g>
   </g>
   <g id="PathCollection_4">
    <defs>
     <path id="C1_0_6169b0fb47" d="M 0 1 
C 0.265203 1 0.51958 0.894634 0.707107 0.707107 
C 0.894634 0.51958 1 0.265203 1 -0 
C 1 -0.265203 0.894634 -0.51958 0.707107 -0.707107 
C 0.51958 -0.894634 0.265203 -1 0 -1 
C -0.265203 -1 -0.51958 -0.894634 -0.707107 -0.707107 
C -0.894634 -0.51958 -1 -0.265203 -1 0 
C -1 0.265203 -0.894634 0.51958 -0.707107 0.707107 
C -0.51958 0.894634 -0.265203 1 0 1 
z
"/>
    </defs>
    <g clip-path="url(#pe41172da4a)">
     <use xlink:href="#C1_0_6169b0fb47" x="141.060154" y="293.094616"/>
    </g>
    <g clip-path="url(#pe41172da4a)">
     <use xlink:href="#C1_0_6169b0fb47" x="142.278258" y="290.417293"/>
    </g>
    <g clip-path="url(#pe41172da4a)">
     <use xlink:href="#C1_0_6169b0fb47" x="147.503202" y="286.80815"/>
    </g>
    <g clip-path="url(#pe41172da4a)">
     <use xlink:href="#C1_0_6169b0fb47" x="147.196406" y="285.270254"/>
    </g>
    <g clip-path="url(#pe41172da4a)">
     <use xlink:href="#C1_0_6169b0fb47" x="148.213184" y="285.982275"/>
    </g>
    <g clip-path="url(#pe41172da4a)">
     <use xlink:href="#C1_0_6169b0fb47" x="146.266222" y="270.369296"/>
    </g>
    <g clip-path="url(#pe41172da4a)">
     <use xlink:href="#C1_0_6169b0fb47" x="136.41224" y="292.525284"/>
    </g>
    <g clip-path="url(#pe41172da4a)">
     <use xlink:href="#C1_0_6169b0fb47" x="141.557" y="281.812051"/>
    </g>
    <g clip-path="url(#pe41172da4a)">
     <use xlink:href="#C1_0_6169b0fb47" x="147.941863" y="294.2774"/>
    </g>
    <g clip-path="url(#pe41172da4a)">
     <use xlink:href="#C1_0_6169b0fb47" x="136.358807" y="286.231265"/>
    </g>
    <g clip-path="url(#pe41172da4a)">
     <use xlink:href="#C1_0_6169b0fb47" x="137.904811" y="286.675763"/>
    </g>
    <g clip-path="url(#pe41172da4a)">
     <use xlink:href="#C1_0_6169b0fb47" x="134.906656" y="292.435145"/>
    </g>
    <g clip-path="url(#pe41172da4a)">
     <use xlink:href="#C1_0_6169b0fb47" x="141.283607" y="281.105043"/>
    </g>
   </g>
   <g id="PathCollection_5">
    <defs>
     <path id="C2_0_2bd28e0d76" d="M 0 1 
C 0.265203 1 0.51958 0.894634 0.707107 0.707107 
C 0.894634 0.51958 1 0.265203 1 -0 
C 1 -0.265203 0.894634 -0.51958 0.707107 -0.707107 
C 0.51958 -0.894634 0.265203 -1 0 -1 
C -0.265203 -1 -0.51958 -0.894634 -0.707107 -0.707107 
C -0.894634 -0.51958 -1 -0.265203 -1 0 
C -1 0.265203 -0.894634 0.51958 -0.707107 0.707107 
C -0.51958 0.894634 -0.265203 1 0 1 
z
"/>
    </defs>
    <g clip-path="url(#pe41172da4a)">
     <use xlink:href="#C2_0_2bd28e0d76" x="223.462385" y="295.064172" style="fill: #262626"/>
    </g>
    <g clip-path="url(#pe41172da4a)">
     <use xlink:href="#C2_0_2bd28e0d76" x="226.981525" y="296.876648" style="fill: #262626"/>
    </g>
    <g clip-path="url(#pe41172da4a)">
     <use xlink:href="#C2_0_2bd28e0d76" x="216.737342" y="294.171739" style="fill: #262626"/>
    </g>
    <g clip-path="url(#pe41172da4a)">
     <use xlink:href="#C2_0_2bd28e0d76" x="227.276258" y="296.006104" style="fill: #262626"/>
    </g>
    <g clip-path="url(#pe41172da4a)">
     <use xlink:href="#C2_0_2bd28e0d76" x="220.655717" y="295.701037" style="fill: #262626"/>
    </g>
    <g clip-path="url(#pe41172da4a)">
     <use xlink:href="#C2_0_2bd28e0d76" x="215.753315" y="289.86672" style="fill: #262626"/>
    </g>
    <g clip-path="url(#pe41172da4a)">
     <use xlink:href="#C2_0_2bd28e0d76" x="217.641828" y="295.726781" style="fill: #262626"/>
    </g>
    <g clip-path="url(#pe41172da4a)">
     <use xlink:href="#C2_0_2bd28e0d76" x="215.940837" y="289.213931" style="fill: #262626"/>
    </g>
    <g clip-path="url(#pe41172da4a)">
     <use xlink:href="#C2_0_2bd28e0d76" x="225.872555" y="293.995438" style="fill: #262626"/>
    </g>
    <g clip-path="url(#pe41172da4a)">
     <use xlink:href="#C2_0_2bd28e0d76" x="221.44582" y="295.974253" style="fill: #262626"/>
    </g>
    <g clip-path="url(#pe41172da4a)">
     <use xlink:href="#C2_0_2bd28e0d76" x="224.380096" y="294.012337" style="fill: #262626"/>
    </g>
    <g clip-path="url(#pe41172da4a)">
     <use xlink:href="#C2_0_2bd28e0d76" x="223.844954" y="297.424603" style="fill: #262626"/>
    </g>
    <g clip-path="url(#pe41172da4a)">
     <use xlink:href="#C2_0_2bd28e0d76" x="217.707723" y="292.024626" style="fill: #262626"/>
    </g>
    <g clip-path="url(#pe41172da4a)">
     <use xlink:href="#C2_0_2bd28e0d76" x="225.742669" y="296.109145" style="fill: #262626"/>
    </g>
    <g clip-path="url(#pe41172da4a)">
     <use xlink:href="#C2_0_2bd28e0d76" x="227.189717" y="294.17044" style="fill: #262626"/>
    </g>
    <g clip-path="url(#pe41172da4a)">
     <use xlink:href="#C2_0_2bd28e0d76" x="223.688103" y="296.424401" style="fill: #262626"/>
    </g>
    <g clip-path="url(#pe41172da4a)">
     <use xlink:href="#C2_0_2bd28e0d76" x="216.211196" y="293.824932" style="fill: #262626"/>
    </g>
    <g clip-path="url(#pe41172da4a)">
     <use xlink:href="#C2_0_2bd28e0d76" x="221.011996" y="295.785572" style="fill: #262626"/>
    </g>
    <g clip-path="url(#pe41172da4a)">
     <use xlink:href="#C2_0_2bd28e0d76" x="224.653448" y="293.309933" style="fill: #262626"/>
    </g>
    <g clip-path="url(#pe41172da4a)">
     <use xlink:href="#C2_0_2bd28e0d76" x="217.428512" y="293.849742" style="fill: #262626"/>
    </g>
    <g clip-path="url(#pe41172da4a)">
     <use xlink:href="#C2_0_2bd28e0d76" x="215.906834" y="298.874941" style="fill: #262626"/>
    </g>
   </g>
   <g id="PathCollection_6">
    <defs>
     <path id="C3_0_5f56808d86" d="M 0 1 
C 0.265203 1 0.51958 0.894634 0.707107 0.707107 
C 0.894634 0.51958 1 0.265203 1 -0 
C 1 -0.265203 0.894634 -0.51958 0.707107 -0.707107 
C 0.51958 -0.894634 0.265203 -1 0 -1 
C -0.265203 -1 -0.51958 -0.894634 -0.707107 -0.707107 
C -0.894634 -0.51958 -1 -0.265203 -1 0 
C -1 0.265203 -0.894634 0.51958 -0.707107 0.707107 
C -0.51958 0.894634 -0.265203 1 0 1 
z
"/>
    </defs>
    <g clip-path="url(#pe41172da4a)">
     <use xlink:href="#C3_0_5f56808d86" x="270.566831" y="292.392311"/>
    </g>
    <g clip-path="url(#pe41172da4a)">
     <use xlink:href="#C3_0_5f56808d86" x="280.636695" y="289.326168"/>
    </g>
    <g clip-path="url(#pe41172da4a)">
     <use xlink:href="#C3_0_5f56808d86" x="280.307139" y="287.882794"/>
    </g>
    <g clip-path="url(#pe41172da4a)">
     <use xlink:href="#C3_0_5f56808d86" x="277.322063" y="285.320281"/>
    </g>
    <g clip-path="url(#pe41172da4a)">
     <use xlink:href="#C3_0_5f56808d86" x="269.02359" y="292.70961"/>
    </g>
    <g clip-path="url(#pe41172da4a)">
     <use xlink:href="#C3_0_5f56808d86" x="269.41767" y="294.435382"/>
    </g>
    <g clip-path="url(#pe41172da4a)">
     <use xlink:href="#C3_0_5f56808d86" x="272.869529" y="294.989522"/>
    </g>
    <g clip-path="url(#pe41172da4a)">
     <use xlink:href="#C3_0_5f56808d86" x="269.069694" y="293.617208"/>
    </g>
    <g clip-path="url(#pe41172da4a)">
     <use xlink:href="#C3_0_5f56808d86" x="274.67171" y="281.145613"/>
    </g>
    <g clip-path="url(#pe41172da4a)">
     <use xlink:href="#C3_0_5f56808d86" x="279.181071" y="294.239972"/>
    </g>
   </g>
   <g id="PathCollection_7">
    <defs>
     <path id="C4_0_abc9b6ac0d" d="M 0 1 
C 0.265203 1 0.51958 0.894634 0.707107 0.707107 
C 0.894634 0.51958 1 0.265203 1 -0 
C 1 -0.265203 0.894634 -0.51958 0.707107 -0.707107 
C 0.51958 -0.894634 0.265203 -1 0 -1 
C -0.265203 -1 -0.51958 -0.894634 -0.707107 -0.707107 
C -0.894634 -0.51958 -1 -0.265203 -1 0 
C -1 0.265203 -0.894634 0.51958 -0.707107 0.707107 
C -0.51958 0.894634 -0.265203 1 0 1 
z
"/>
    </defs>
    <g clip-path="url(#pe41172da4a)">
     <use xlink:href="#C4_0_abc9b6ac0d" x="355.554211" y="288.697172" style="fill: #262626"/>
    </g>
    <g clip-path="url(#pe41172da4a)">
     <use xlink:href="#C4_0_abc9b6ac0d" x="354.26469" y="293.510417" style="fill: #262626"/>
    </g>
    <g clip-path="url(#pe41172da4a)">
     <use xlink:href="#C4_0_abc9b6ac0d" x="357.139621" y="284.255869" style="fill: #262626"/>
    </g>
    <g clip-path="url(#pe41172da4a)">
     <use xlink:href="#C4_0_abc9b6ac0d" x="362.667169" y="287.115152" style="fill: #262626"/>
    </g>
    <g clip-path="url(#pe41172da4a)">
     <use xlink:href="#C4_0_abc9b6ac0d" x="355.054805" y="287.902403" style="fill: #262626"/>
    </g>
    <g clip-path="url(#pe41172da4a)">
     <use xlink:href="#C4_0_abc9b6ac0d" x="362.148137" y="290.545627" style="fill: #262626"/>
    </g>
    <g clip-path="url(#pe41172da4a)">
     <use xlink:href="#C4_0_abc9b6ac0d" x="358.06581" y="284.750016" style="fill: #262626"/>
    </g>
    <g clip-path="url(#pe41172da4a)">
     <use xlink:href="#C4_0_abc9b6ac0d" x="357.960462" y="287.872769" style="fill: #262626"/>
    </g>
    <g clip-path="url(#pe41172da4a)">
     <use xlink:href="#C4_0_abc9b6ac0d" x="349.80269" y="289.361235" style="fill: #262626"/>
    </g>
    <g clip-path="url(#pe41172da4a)">
     <use xlink:href="#C4_0_abc9b6ac0d" x="356.993476" y="292.220411" style="fill: #262626"/>
    </g>
    <g clip-path="url(#pe41172da4a)">
     <use xlink:href="#C4_0_abc9b6ac0d" x="361.544531" y="290.326118" style="fill: #262626"/>
    </g>
    <g clip-path="url(#pe41172da4a)">
     <use xlink:href="#C4_0_abc9b6ac0d" x="356.600991" y="291.375977" style="fill: #262626"/>
    </g>
    <g clip-path="url(#pe41172da4a)">
     <use xlink:href="#C4_0_abc9b6ac0d" x="361.140164" y="291.900218" style="fill: #262626"/>
    </g>
    <g clip-path="url(#pe41172da4a)">
     <use xlink:href="#C4_0_abc9b6ac0d" x="354.814084" y="293.113237" style="fill: #262626"/>
    </g>
    <g clip-path="url(#pe41172da4a)">
     <use xlink:href="#C4_0_abc9b6ac0d" x="359.207438" y="288.402504" style="fill: #262626"/>
    </g>
    <g clip-path="url(#pe41172da4a)">
     <use xlink:href="#C4_0_abc9b6ac0d" x="357.347695" y="284.67385" style="fill: #262626"/>
    </g>
    <g clip-path="url(#pe41172da4a)">
     <use xlink:href="#C4_0_abc9b6ac0d" x="359.31985" y="286.586439" style="fill: #262626"/>
    </g>
    <g clip-path="url(#pe41172da4a)">
     <use xlink:href="#C4_0_abc9b6ac0d" x="359.178051" y="289.759941" style="fill: #262626"/>
    </g>
    <g clip-path="url(#pe41172da4a)">
     <use xlink:href="#C4_0_abc9b6ac0d" x="354.38123" y="286.855665" style="fill: #262626"/>
    </g>
   </g>
   <g id="PathCollection_8">
    <defs>
     <path id="C5_0_308e61a3eb" d="M 0 1 
C 0.265203 1 0.51958 0.894634 0.707107 0.707107 
C 0.894634 0.51958 1 0.265203 1 -0 
C 1 -0.265203 0.894634 -0.51958 0.707107 -0.707107 
C 0.51958 -0.894634 0.265203 -1 0 -1 
C -0.265203 -1 -0.51958 -0.894634 -0.707107 -0.707107 
C -0.894634 -0.51958 -1 -0.265203 -1 0 
C -1 0.265203 -0.894634 0.51958 -0.707107 0.707107 
C -0.51958 0.894634 -0.265203 1 0 1 
z
"/>
    </defs>
    <g clip-path="url(#pe41172da4a)">
     <use xlink:href="#C5_0_308e61a3eb" x="410.086437" y="294.611127"/>
    </g>
    <g clip-path="url(#pe41172da4a)">
     <use xlink:href="#C5_0_308e61a3eb" x="405.444684" y="294.284298"/>
    </g>
    <g clip-path="url(#pe41172da4a)">
     <use xlink:href="#C5_0_308e61a3eb" x="407.093154" y="290.218738"/>
    </g>
   </g>
   <g id="text_8">
    <!-- 16 -->
    <g style="fill: #262626" transform="translate(94.652667 235.753254)scale(0.1 -0.1)">
     <defs>
      <path id="DejaVuSans-36" d="M 2113 2584 
Q 1688 2584 1439 2293 
Q 1191 2003 1191 1497 
Q 1191 994 1439 701 
Q 1688 409 2113 409 
Q 2538 409 2786 701 
Q 3034 994 3034 1497 
Q 3034 2003 2786 2293 
Q 2538 2584 2113 2584 
z
M 3366 4563 
L 3366 3988 
Q 3128 4100 2886 4159 
Q 2644 4219 2406 4219 
Q 1781 4219 1451 3797 
Q 1122 3375 1075 2522 
Q 1259 2794 1537 2939 
Q 1816 3084 2150 3084 
Q 2853 3084 3261 2657 
Q 3669 2231 3669 1497 
Q 3669 778 3244 343 
Q 2819 -91 2113 -91 
Q 1303 -91 875 529 
Q 447 1150 447 2328 
Q 447 3434 972 4092 
Q 1497 4750 2381 4750 
Q 2619 4750 2861 4703 
Q 3103 4656 3366 4563 
z
" transform="scale(0.015625)"/>
     </defs>
     <use xlink:href="#DejaVuSans-31"/>
     <use xlink:href="#DejaVuSans-36" x="63.623047"/>
    </g>
   </g>
   <g id="text_9">
    <!-- p=0.00018639794024237738 -->
    <g style="fill: #262626" transform="translate(34.045167 282.191554)scale(0.08 -0.08)">
     <defs>
      <path id="DejaVuSans-3d" d="M 678 2906 
L 4684 2906 
L 4684 2381 
L 678 2381 
L 678 2906 
z
M 678 1631 
L 4684 1631 
L 4684 1100 
L 678 1100 
L 678 1631 
z
" transform="scale(0.015625)"/>
      <path id="DejaVuSans-38" d="M 2034 2216 
Q 1584 2216 1326 1975 
Q 1069 1734 1069 1313 
Q 1069 891 1326 650 
Q 1584 409 2034 409 
Q 2484 409 2743 651 
Q 3003 894 3003 1313 
Q 3003 1734 2745 1975 
Q 2488 2216 2034 2216 
z
M 1403 2484 
Q 997 2584 770 2862 
Q 544 3141 544 3541 
Q 544 4100 942 4425 
Q 1341 4750 2034 4750 
Q 2731 4750 3128 4425 
Q 3525 4100 3525 3541 
Q 3525 3141 3298 2862 
Q 3072 2584 2669 2484 
Q 3125 2378 3379 2068 
Q 3634 1759 3634 1313 
Q 3634 634 3220 271 
Q 2806 -91 2034 -91 
Q 1263 -91 848 271 
Q 434 634 434 1313 
Q 434 1759 690 2068 
Q 947 2378 1403 2484 
z
M 1172 3481 
Q 1172 3119 1398 2916 
Q 1625 2713 2034 2713 
Q 2441 2713 2670 2916 
Q 2900 3119 2900 3481 
Q 2900 3844 2670 4047 
Q 2441 4250 2034 4250 
Q 1625 4250 1398 4047 
Q 1172 3844 1172 3481 
z
" transform="scale(0.015625)"/>
      <path id="DejaVuSans-33" d="M 2597 2516 
Q 3050 2419 3304 2112 
Q 3559 1806 3559 1356 
Q 3559 666 3084 287 
Q 2609 -91 1734 -91 
Q 1441 -91 1130 -33 
Q 819 25 488 141 
L 488 750 
Q 750 597 1062 519 
Q 1375 441 1716 441 
Q 2309 441 2620 675 
Q 2931 909 2931 1356 
Q 2931 1769 2642 2001 
Q 2353 2234 1838 2234 
L 1294 2234 
L 1294 2753 
L 1863 2753 
Q 2328 2753 2575 2939 
Q 2822 3125 2822 3475 
Q 2822 3834 2567 4026 
Q 2313 4219 1838 4219 
Q 1578 4219 1281 4162 
Q 984 4106 628 3988 
L 628 4550 
Q 988 4650 1302 4700 
Q 1616 4750 1894 4750 
Q 2613 4750 3031 4423 
Q 3450 4097 3450 3541 
Q 3450 3153 3228 2886 
Q 3006 2619 2597 2516 
z
" transform="scale(0.015625)"/>
      <path id="DejaVuSans-39" d="M 703 97 
L 703 672 
Q 941 559 1184 500 
Q 1428 441 1663 441 
Q 2288 441 2617 861 
Q 2947 1281 2994 2138 
Q 2813 1869 2534 1725 
Q 2256 1581 1919 1581 
Q 1219 1581 811 2004 
Q 403 2428 403 3163 
Q 403 3881 828 4315 
Q 1253 4750 1959 4750 
Q 2769 4750 3195 4129 
Q 3622 3509 3622 2328 
Q 3622 1225 3098 567 
Q 2575 -91 1691 -91 
Q 1453 -91 1209 -44 
Q 966 3 703 97 
z
M 1959 2075 
Q 2384 2075 2632 2365 
Q 2881 2656 2881 3163 
Q 2881 3666 2632 3958 
Q 2384 4250 1959 4250 
Q 1534 4250 1286 3958 
Q 1038 3666 1038 3163 
Q 1038 2656 1286 2365 
Q 1534 2075 1959 2075 
z
" transform="scale(0.015625)"/>
      <path id="DejaVuSans-37" d="M 525 4666 
L 3525 4666 
L 3525 4397 
L 1831 0 
L 1172 0 
L 2766 4134 
L 525 4134 
L 525 4666 
z
" transform="scale(0.015625)"/>
     </defs>
     <use xlink:href="#DejaVuSans-70"/>
     <use xlink:href="#DejaVuSans-3d" x="63.476562"/>
     <use xlink:href="#DejaVuSans-30" x="147.265625"/>
     <use xlink:href="#DejaVuSans-2e" x="210.888672"/>
     <use xlink:href="#DejaVuSans-30" x="242.675781"/>
     <use xlink:href="#DejaVuSans-30" x="306.298828"/>
     <use xlink:href="#DejaVuSans-30" x="369.921875"/>
     <use xlink:href="#DejaVuSans-31" x="433.544922"/>
     <use xlink:href="#DejaVuSans-38" x="497.167969"/>
     <use xlink:href="#DejaVuSans-36" x="560.791016"/>
     <use xlink:href="#DejaVuSans-33" x="624.414062"/>
     <use xlink:href="#DejaVuSans-39" x="688.037109"/>
     <use xlink:href="#DejaVuSans-37" x="751.660156"/>
     <use xlink:href="#DejaVuSans-39" x="815.283203"/>
     <use xlink:href="#DejaVuSans-34" x="878.90625"/>
     <use xlink:href="#DejaVuSans-30" x="942.529297"/>
     <use xlink:href="#DejaVuSans-32" x="1006.152344"/>
     <use xlink:href="#DejaVuSans-34" x="1069.775391"/>
     <use xlink:href="#DejaVuSans-32" x="1133.398438"/>
     <use xlink:href="#DejaVuSans-33" x="1197.021484"/>
     <use xlink:href="#DejaVuSans-37" x="1260.644531"/>
     <use xlink:href="#DejaVuSans-37" x="1324.267578"/>
     <use xlink:href="#DejaVuSans-33" x="1387.890625"/>
     <use xlink:href="#DejaVuSans-38" x="1451.513672"/>
    </g>
   </g>
   <g id="text_10">
    <!-- 13 -->
    <g style="fill: #262626" transform="translate(134.880667 235.753254)scale(0.1 -0.1)">
     <use xlink:href="#DejaVuSans-31"/>
     <use xlink:href="#DejaVuSans-33" x="63.623047"/>
    </g>
   </g>
   <g id="text_11">
    <!-- 21 -->
    <g style="fill: #262626" transform="translate(228.746 235.753254)scale(0.1 -0.1)">
     <use xlink:href="#DejaVuSans-32"/>
     <use xlink:href="#DejaVuSans-31" x="63.623047"/>
    </g>
   </g>
   <g id="text_12">
    <!-- p=0.002450148886293041 -->
    <g style="fill: #262626" transform="translate(173.2285 287.156757)scale(0.08 -0.08)">
     <use xlink:href="#DejaVuSans-70"/>
     <use xlink:href="#DejaVuSans-3d" x="63.476562"/>
     <use xlink:href="#DejaVuSans-30" x="147.265625"/>
     <use xlink:href="#DejaVuSans-2e" x="210.888672"/>
     <use xlink:href="#DejaVuSans-30" x="242.675781"/>
     <use xlink:href="#DejaVuSans-30" x="306.298828"/>
     <use xlink:href="#DejaVuSans-32" x="369.921875"/>
     <use xlink:href="#DejaVuSans-34" x="433.544922"/>
     <use xlink:href="#DejaVuSans-35" x="497.167969"/>
     <use xlink:href="#DejaVuSans-30" x="560.791016"/>
     <use xlink:href="#DejaVuSans-31" x="624.414062"/>
     <use xlink:href="#DejaVuSans-34" x="688.037109"/>
     <use xlink:href="#DejaVuSans-38" x="751.660156"/>
     <use xlink:href="#DejaVuSans-38" x="815.283203"/>
     <use xlink:href="#DejaVuSans-38" x="878.90625"/>
     <use xlink:href="#DejaVuSans-36" x="942.529297"/>
     <use xlink:href="#DejaVuSans-32" x="1006.152344"/>
     <use xlink:href="#DejaVuSans-39" x="1069.775391"/>
     <use xlink:href="#DejaVuSans-33" x="1133.398438"/>
     <use xlink:href="#DejaVuSans-30" x="1197.021484"/>
     <use xlink:href="#DejaVuSans-34" x="1260.644531"/>
     <use xlink:href="#DejaVuSans-31" x="1324.267578"/>
    </g>
   </g>
   <g id="text_13">
    <!-- 10 -->
    <g style="fill: #262626" transform="translate(268.974 235.753254)scale(0.1 -0.1)">
     <use xlink:href="#DejaVuSans-31"/>
     <use xlink:href="#DejaVuSans-30" x="63.623047"/>
    </g>
   </g>
   <g id="text_14">
    <!-- 19 -->
    <g style="fill: #262626" transform="translate(362.839333 235.753254)scale(0.1 -0.1)">
     <use xlink:href="#DejaVuSans-31"/>
     <use xlink:href="#DejaVuSans-39" x="63.623047"/>
    </g>
   </g>
   <g id="text_15">
    <!-- p=0.026674919848199845 -->
    <g style="fill: #262626" transform="translate(307.321833 282.198695)scale(0.08 -0.08)">
     <use xlink:href="#DejaVuSans-70"/>
     <use xlink:href="#DejaVuSans-3d" x="63.476562"/>
     <use xlink:href="#DejaVuSans-30" x="147.265625"/>
     <use xlink:href="#DejaVuSans-2e" x="210.888672"/>
     <use xlink:href="#DejaVuSans-30" x="242.675781"/>
     <use xlink:href="#DejaVuSans-32" x="306.298828"/>
     <use xlink:href="#DejaVuSans-36" x="369.921875"/>
     <use xlink:href="#DejaVuSans-36" x="433.544922"/>
     <use xlink:href="#DejaVuSans-37" x="497.167969"/>
     <use xlink:href="#DejaVuSans-34" x="560.791016"/>
     <use xlink:href="#DejaVuSans-39" x="624.414062"/>
     <use xlink:href="#DejaVuSans-31" x="688.037109"/>
     <use xlink:href="#DejaVuSans-39" x="751.660156"/>
     <use xlink:href="#DejaVuSans-38" x="815.283203"/>
     <use xlink:href="#DejaVuSans-34" x="878.90625"/>
     <use xlink:href="#DejaVuSans-38" x="942.529297"/>
     <use xlink:href="#DejaVuSans-31" x="1006.152344"/>
     <use xlink:href="#DejaVuSans-39" x="1069.775391"/>
     <use xlink:href="#DejaVuSans-39" x="1133.398438"/>
     <use xlink:href="#DejaVuSans-38" x="1197.021484"/>
     <use xlink:href="#DejaVuSans-34" x="1260.644531"/>
     <use xlink:href="#DejaVuSans-35" x="1324.267578"/>
    </g>
   </g>
   <g id="text_16">
    <!-- 3 -->
    <g style="fill: #262626" transform="translate(403.067333 235.753254)scale(0.1 -0.1)">
     <use xlink:href="#DejaVuSans-33"/>
    </g>
   </g>
   <g id="legend_1">
    <g id="patch_15">
     <path d="M 377.728125 283.640663 
L 397.728125 283.640663 
L 397.728125 276.640663 
L 377.728125 276.640663 
z
" style="fill: #ecf2ec; stroke: #262626; stroke-width: 0.75; stroke-linejoin: miter"/>
    </g>
    <g id="text_17">
     <!-- Mutant -->
     <g style="fill: #262626" transform="translate(405.728125 283.640663)scale(0.1 -0.1)">
      <defs>
       <path id="DejaVuSans-4d" d="M 628 4666 
L 1569 4666 
L 2759 1491 
L 3956 4666 
L 4897 4666 
L 4897 0 
L 4281 0 
L 4281 4097 
L 3078 897 
L 2444 897 
L 1241 4097 
L 1241 0 
L 628 0 
L 628 4666 
z
" transform="scale(0.015625)"/>
       <path id="DejaVuSans-61" d="M 2194 1759 
Q 1497 1759 1228 1600 
Q 959 1441 959 1056 
Q 959 750 1161 570 
Q 1363 391 1709 391 
Q 2188 391 2477 730 
Q 2766 1069 2766 1631 
L 2766 1759 
L 2194 1759 
z
M 3341 1997 
L 3341 0 
L 2766 0 
L 2766 531 
Q 2569 213 2275 61 
Q 1981 -91 1556 -91 
Q 1019 -91 701 211 
Q 384 513 384 1019 
Q 384 1609 779 1909 
Q 1175 2209 1959 2209 
L 2766 2209 
L 2766 2266 
Q 2766 2663 2505 2880 
Q 2244 3097 1772 3097 
Q 1472 3097 1187 3025 
Q 903 2953 641 2809 
L 641 3341 
Q 956 3463 1253 3523 
Q 1550 3584 1831 3584 
Q 2591 3584 2966 3190 
Q 3341 2797 3341 1997 
z
" transform="scale(0.015625)"/>
      </defs>
      <use xlink:href="#DejaVuSans-4d"/>
      <use xlink:href="#DejaVuSans-75" x="86.279297"/>
      <use xlink:href="#DejaVuSans-74" x="149.658203"/>
      <use xlink:href="#DejaVuSans-61" x="188.867188"/>
      <use xlink:href="#DejaVuSans-6e" x="250.146484"/>
      <use xlink:href="#DejaVuSans-74" x="313.525391"/>
     </g>
    </g>
    <g id="patch_16">
     <path d="M 377.728125 298.318788 
L 397.728125 298.318788 
L 397.728125 291.318788 
L 377.728125 291.318788 
z
" style="fill: #107010; stroke: #262626; stroke-width: 0.75; stroke-linejoin: miter"/>
    </g>
    <g id="text_18">
     <!-- WT -->
     <g style="fill: #262626" transform="translate(405.728125 298.318788)scale(0.1 -0.1)">
      <defs>
       <path id="DejaVuSans-57" d="M 213 4666 
L 850 4666 
L 1831 722 
L 2809 4666 
L 3519 4666 
L 4500 722 
L 5478 4666 
L 6119 4666 
L 4947 0 
L 4153 0 
L 3169 4050 
L 2175 0 
L 1381 0 
L 213 4666 
z
" transform="scale(0.015625)"/>
       <path id="DejaVuSans-54" d="M -19 4666 
L 3928 4666 
L 3928 4134 
L 2272 4134 
L 2272 0 
L 1638 0 
L 1638 4134 
L -19 4134 
L -19 4666 
z
" transform="scale(0.015625)"/>
      </defs>
      <use xlink:href="#DejaVuSans-57"/>
      <use xlink:href="#DejaVuSans-54" x="98.876953"/>
     </g>
    </g>
   </g>
  </g>
 </g>
 <defs>
  <clipPath id="pe41172da4a">
   <rect x="47.72" y="267.042226" width="402.28" height="36.597774"/>
  </clipPath>
 </defs>
</svg>
