<?xml version="1.0" encoding="utf-8" standalone="no"?>
<!DOCTYPE svg PUBLIC "-//W3C//DTD SVG 1.1//EN"
  "http://www.w3.org/Graphics/SVG/1.1/DTD/svg11.dtd">
<svg xmlns:xlink="http://www.w3.org/1999/xlink" width="460.8pt" height="345.6pt" viewBox="0 0 460.8 345.6" xmlns="http://www.w3.org/2000/svg" version="1.1">
 <metadata>
  <rdf:RDF xmlns:dc="http://purl.org/dc/elements/1.1/" xmlns:cc="http://creativecommons.org/ns#" xmlns:rdf="http://www.w3.org/1999/02/22-rdf-syntax-ns#">
   <cc:Work>
    <dc:type rdf:resource="http://purl.org/dc/dcmitype/StillImage"/>
    <dc:date>2024-06-12T17:53:24.333896</dc:date>
    <dc:format>image/svg+xml</dc:format>
    <dc:creator>
     <cc:Agent>
      <dc:title>Matplotlib v3.5.3, https://matplotlib.org/</dc:title>
     </cc:Agent>
    </dc:creator>
   </cc:Work>
  </rdf:RDF>
 </metadata>
 <defs>
  <style type="text/css">*{stroke-linejoin: round; stroke-linecap: butt}</style>
 </defs>
 <g id="figure_1">
  <g id="patch_1">
   <path d="M 0 345.6 
L 460.8 345.6 
L 460.8 0 
L 0 0 
z
" style="fill: #ffffff"/>
  </g>
  <g id="axes_1">
   <g id="patch_2">
    <path d="M 63.57125 303.64 
L 450 303.64 
L 450 13.022438 
L 63.57125 13.022438 
z
" style="fill: #ffffff"/>
   </g>
   <g id="matplotlib.axis_1">
    <g id="xtick_1">
     <g id="text_1">
      <!-- G -->
      <g style="fill: #262626" transform="translate(124.101823 318.238437)scale(0.1 -0.1)">
       <defs>
        <path id="DejaVuSans-47" d="M 3809 666 
L 3809 1919 
L 2778 1919 
L 2778 2438 
L 4434 2438 
L 4434 434 
Q 4069 175 3628 42 
Q 3188 -91 2688 -91 
Q 1594 -91 976 548 
Q 359 1188 359 2328 
Q 359 3472 976 4111 
Q 1594 4750 2688 4750 
Q 3144 4750 3555 4637 
Q 3966 4525 4313 4306 
L 4313 3634 
Q 3963 3931 3569 4081 
Q 3175 4231 2741 4231 
Q 1884 4231 1454 3753 
Q 1025 3275 1025 2328 
Q 1025 1384 1454 906 
Q 1884 428 2741 428 
Q 3075 428 3337 486 
Q 3600 544 3809 666 
z
" transform="scale(0.015625)"/>
       </defs>
       <use xlink:href="#DejaVuSans-47"/>
      </g>
     </g>
    </g>
    <g id="xtick_2">
     <g id="text_2">
      <!-- L -->
      <g style="fill: #262626" transform="translate(253.999687 318.238437)scale(0.1 -0.1)">
       <defs>
        <path id="DejaVuSans-4c" d="M 628 4666 
L 1259 4666 
L 1259 531 
L 3531 531 
L 3531 0 
L 628 0 
L 628 4666 
z
" transform="scale(0.015625)"/>
       </defs>
       <use xlink:href="#DejaVuSans-4c"/>
      </g>
     </g>
    </g>
    <g id="xtick_3">
     <g id="text_3">
      <!-- R -->
      <g style="fill: #262626" transform="translate(382.12099 318.238437)scale(0.1 -0.1)">
       <defs>
        <path id="DejaVuSans-52" d="M 2841 2188 
Q 3044 2119 3236 1894 
Q 3428 1669 3622 1275 
L 4263 0 
L 3584 0 
L 2988 1197 
Q 2756 1666 2539 1819 
Q 2322 1972 1947 1972 
L 1259 1972 
L 1259 0 
L 628 0 
L 628 4666 
L 2053 4666 
Q 2853 4666 3247 4331 
Q 3641 3997 3641 3322 
Q 3641 2881 3436 2590 
Q 3231 2300 2841 2188 
z
M 1259 4147 
L 1259 2491 
L 2053 2491 
Q 2509 2491 2742 2702 
Q 2975 2913 2975 3322 
Q 2975 3731 2742 3939 
Q 2509 4147 2053 4147 
L 1259 4147 
z
" transform="scale(0.015625)"/>
       </defs>
       <use xlink:href="#DejaVuSans-52"/>
      </g>
     </g>
    </g>
    <g id="text_4">
     <!-- Sample -->
     <g style="fill: #262626" transform="translate(238.037187 331.916562)scale(0.1 -0.1)">
      <defs>
       <path id="DejaVuSans-53" d="M 3425 4513 
L 3425 3897 
Q 3066 4069 2747 4153 
Q 2428 4238 2131 4238 
Q 1616 4238 1336 4038 
Q 1056 3838 1056 3469 
Q 1056 3159 1242 3001 
Q 1428 2844 1947 2747 
L 2328 2669 
Q 3034 2534 3370 2195 
Q 3706 1856 3706 1288 
Q 3706 609 3251 259 
Q 2797 -91 1919 -91 
Q 1588 -91 1214 -16 
Q 841 59 441 206 
L 441 856 
Q 825 641 1194 531 
Q 1563 422 1919 422 
Q 2459 422 2753 634 
Q 3047 847 3047 1241 
Q 3047 1584 2836 1778 
Q 2625 1972 2144 2069 
L 1759 2144 
Q 1053 2284 737 2584 
Q 422 2884 422 3419 
Q 422 4038 858 4394 
Q 1294 4750 2059 4750 
Q 2388 4750 2728 4690 
Q 3069 4631 3425 4513 
z
" transform="scale(0.015625)"/>
       <path id="DejaVuSans-61" d="M 2194 1759 
Q 1497 1759 1228 1600 
Q 959 1441 959 1056 
Q 959 750 1161 570 
Q 1363 391 1709 391 
Q 2188 391 2477 730 
Q 2766 1069 2766 1631 
L 2766 1759 
L 2194 1759 
z
M 3341 1997 
L 3341 0 
L 2766 0 
L 2766 531 
Q 2569 213 2275 61 
Q 1981 -91 1556 -91 
Q 1019 -91 701 211 
Q 384 513 384 1019 
Q 384 1609 779 1909 
Q 1175 2209 1959 2209 
L 2766 2209 
L 2766 2266 
Q 2766 2663 2505 2880 
Q 2244 3097 1772 3097 
Q 1472 3097 1187 3025 
Q 903 2953 641 2809 
L 641 3341 
Q 956 3463 1253 3523 
Q 1550 3584 1831 3584 
Q 2591 3584 2966 3190 
Q 3341 2797 3341 1997 
z
" transform="scale(0.015625)"/>
       <path id="DejaVuSans-6d" d="M 3328 2828 
Q 3544 3216 3844 3400 
Q 4144 3584 4550 3584 
Q 5097 3584 5394 3201 
Q 5691 2819 5691 2113 
L 5691 0 
L 5113 0 
L 5113 2094 
Q 5113 2597 4934 2840 
Q 4756 3084 4391 3084 
Q 3944 3084 3684 2787 
Q 3425 2491 3425 1978 
L 3425 0 
L 2847 0 
L 2847 2094 
Q 2847 2600 2669 2842 
Q 2491 3084 2119 3084 
Q 1678 3084 1418 2786 
Q 1159 2488 1159 1978 
L 1159 0 
L 581 0 
L 581 3500 
L 1159 3500 
L 1159 2956 
Q 1356 3278 1631 3431 
Q 1906 3584 2284 3584 
Q 2666 3584 2933 3390 
Q 3200 3197 3328 2828 
z
" transform="scale(0.015625)"/>
       <path id="DejaVuSans-70" d="M 1159 525 
L 1159 -1331 
L 581 -1331 
L 581 3500 
L 1159 3500 
L 1159 2969 
Q 1341 3281 1617 3432 
Q 1894 3584 2278 3584 
Q 2916 3584 3314 3078 
Q 3713 2572 3713 1747 
Q 3713 922 3314 415 
Q 2916 -91 2278 -91 
Q 1894 -91 1617 61 
Q 1341 213 1159 525 
z
M 3116 1747 
Q 3116 2381 2855 2742 
Q 2594 3103 2138 3103 
Q 1681 3103 1420 2742 
Q 1159 2381 1159 1747 
Q 1159 1113 1420 752 
Q 1681 391 2138 391 
Q 2594 391 2855 752 
Q 3116 1113 3116 1747 
z
" transform="scale(0.015625)"/>
       <path id="DejaVuSans-6c" d="M 603 4863 
L 1178 4863 
L 1178 0 
L 603 0 
L 603 4863 
z
" transform="scale(0.015625)"/>
       <path id="DejaVuSans-65" d="M 3597 1894 
L 3597 1613 
L 953 1613 
Q 991 1019 1311 708 
Q 1631 397 2203 397 
Q 2534 397 2845 478 
Q 3156 559 3463 722 
L 3463 178 
Q 3153 47 2828 -22 
Q 2503 -91 2169 -91 
Q 1331 -91 842 396 
Q 353 884 353 1716 
Q 353 2575 817 3079 
Q 1281 3584 2069 3584 
Q 2775 3584 3186 3129 
Q 3597 2675 3597 1894 
z
M 3022 2063 
Q 3016 2534 2758 2815 
Q 2500 3097 2075 3097 
Q 1594 3097 1305 2825 
Q 1016 2553 972 2059 
L 3022 2063 
z
" transform="scale(0.015625)"/>
      </defs>
      <use xlink:href="#DejaVuSans-53"/>
      <use xlink:href="#DejaVuSans-61" x="63.476562"/>
      <use xlink:href="#DejaVuSans-6d" x="124.755859"/>
      <use xlink:href="#DejaVuSans-70" x="222.167969"/>
      <use xlink:href="#DejaVuSans-6c" x="285.644531"/>
      <use xlink:href="#DejaVuSans-65" x="313.427734"/>
     </g>
    </g>
   </g>
   <g id="matplotlib.axis_2">
    <g id="ytick_1">
     <g id="line2d_1">
      <path d="M 63.57125 303.64 
L 450 303.64 
" clip-path="url(#p063558a8e1)" style="fill: none; stroke: #cccccc; stroke-width: 0.8; stroke-linecap: round"/>
     </g>
     <g id="text_5">
      <!-- 0 -->
      <g style="fill: #262626" transform="translate(50.20875 307.439219)scale(0.1 -0.1)">
       <defs>
        <path id="DejaVuSans-30" d="M 2034 4250 
Q 1547 4250 1301 3770 
Q 1056 3291 1056 2328 
Q 1056 1369 1301 889 
Q 1547 409 2034 409 
Q 2525 409 2770 889 
Q 3016 1369 3016 2328 
Q 3016 3291 2770 3770 
Q 2525 4250 2034 4250 
z
M 2034 4750 
Q 2819 4750 3233 4129 
Q 3647 3509 3647 2328 
Q 3647 1150 3233 529 
Q 2819 -91 2034 -91 
Q 1250 -91 836 529 
Q 422 1150 422 2328 
Q 422 3509 836 4129 
Q 1250 4750 2034 4750 
z
" transform="scale(0.015625)"/>
       </defs>
       <use xlink:href="#DejaVuSans-30"/>
      </g>
     </g>
    </g>
    <g id="ytick_2">
     <g id="line2d_2">
      <path d="M 63.57125 262.414378 
L 450 262.414378 
" clip-path="url(#p063558a8e1)" style="fill: none; stroke: #cccccc; stroke-width: 0.8; stroke-linecap: round"/>
     </g>
     <g id="text_6">
      <!-- 5000 -->
      <g style="fill: #262626" transform="translate(31.12125 266.213596)scale(0.1 -0.1)">
       <defs>
        <path id="DejaVuSans-35" d="M 691 4666 
L 3169 4666 
L 3169 4134 
L 1269 4134 
L 1269 2991 
Q 1406 3038 1543 3061 
Q 1681 3084 1819 3084 
Q 2600 3084 3056 2656 
Q 3513 2228 3513 1497 
Q 3513 744 3044 326 
Q 2575 -91 1722 -91 
Q 1428 -91 1123 -41 
Q 819 9 494 109 
L 494 744 
Q 775 591 1075 516 
Q 1375 441 1709 441 
Q 2250 441 2565 725 
Q 2881 1009 2881 1497 
Q 2881 1984 2565 2268 
Q 2250 2553 1709 2553 
Q 1456 2553 1204 2497 
Q 953 2441 691 2322 
L 691 4666 
z
" transform="scale(0.015625)"/>
       </defs>
       <use xlink:href="#DejaVuSans-35"/>
       <use xlink:href="#DejaVuSans-30" x="63.623047"/>
       <use xlink:href="#DejaVuSans-30" x="127.246094"/>
       <use xlink:href="#DejaVuSans-30" x="190.869141"/>
      </g>
     </g>
    </g>
    <g id="ytick_3">
     <g id="line2d_3">
      <path d="M 63.57125 221.188755 
L 450 221.188755 
" clip-path="url(#p063558a8e1)" style="fill: none; stroke: #cccccc; stroke-width: 0.8; stroke-linecap: round"/>
     </g>
     <g id="text_7">
      <!-- 10000 -->
      <g style="fill: #262626" transform="translate(24.75875 224.987974)scale(0.1 -0.1)">
       <defs>
        <path id="DejaVuSans-31" d="M 794 531 
L 1825 531 
L 1825 4091 
L 703 3866 
L 703 4441 
L 1819 4666 
L 2450 4666 
L 2450 531 
L 3481 531 
L 3481 0 
L 794 0 
L 794 531 
z
" transform="scale(0.015625)"/>
       </defs>
       <use xlink:href="#DejaVuSans-31"/>
       <use xlink:href="#DejaVuSans-30" x="63.623047"/>
       <use xlink:href="#DejaVuSans-30" x="127.246094"/>
       <use xlink:href="#DejaVuSans-30" x="190.869141"/>
       <use xlink:href="#DejaVuSans-30" x="254.492188"/>
      </g>
     </g>
    </g>
    <g id="ytick_4">
     <g id="line2d_4">
      <path d="M 63.57125 179.963133 
L 450 179.963133 
" clip-path="url(#p063558a8e1)" style="fill: none; stroke: #cccccc; stroke-width: 0.8; stroke-linecap: round"/>
     </g>
     <g id="text_8">
      <!-- 15000 -->
      <g style="fill: #262626" transform="translate(24.75875 183.762352)scale(0.1 -0.1)">
       <use xlink:href="#DejaVuSans-31"/>
       <use xlink:href="#DejaVuSans-35" x="63.623047"/>
       <use xlink:href="#DejaVuSans-30" x="127.246094"/>
       <use xlink:href="#DejaVuSans-30" x="190.869141"/>
       <use xlink:href="#DejaVuSans-30" x="254.492188"/>
      </g>
     </g>
    </g>
    <g id="ytick_5">
     <g id="line2d_5">
      <path d="M 63.57125 138.737511 
L 450 138.737511 
" clip-path="url(#p063558a8e1)" style="fill: none; stroke: #cccccc; stroke-width: 0.8; stroke-linecap: round"/>
     </g>
     <g id="text_9">
      <!-- 20000 -->
      <g style="fill: #262626" transform="translate(24.75875 142.536729)scale(0.1 -0.1)">
       <defs>
        <path id="DejaVuSans-32" d="M 1228 531 
L 3431 531 
L 3431 0 
L 469 0 
L 469 531 
Q 828 903 1448 1529 
Q 2069 2156 2228 2338 
Q 2531 2678 2651 2914 
Q 2772 3150 2772 3378 
Q 2772 3750 2511 3984 
Q 2250 4219 1831 4219 
Q 1534 4219 1204 4116 
Q 875 4013 500 3803 
L 500 4441 
Q 881 4594 1212 4672 
Q 1544 4750 1819 4750 
Q 2544 4750 2975 4387 
Q 3406 4025 3406 3419 
Q 3406 3131 3298 2873 
Q 3191 2616 2906 2266 
Q 2828 2175 2409 1742 
Q 1991 1309 1228 531 
z
" transform="scale(0.015625)"/>
       </defs>
       <use xlink:href="#DejaVuSans-32"/>
       <use xlink:href="#DejaVuSans-30" x="63.623047"/>
       <use xlink:href="#DejaVuSans-30" x="127.246094"/>
       <use xlink:href="#DejaVuSans-30" x="190.869141"/>
       <use xlink:href="#DejaVuSans-30" x="254.492188"/>
      </g>
     </g>
    </g>
    <g id="ytick_6">
     <g id="line2d_6">
      <path d="M 63.57125 97.511888 
L 450 97.511888 
" clip-path="url(#p063558a8e1)" style="fill: none; stroke: #cccccc; stroke-width: 0.8; stroke-linecap: round"/>
     </g>
     <g id="text_10">
      <!-- 25000 -->
      <g style="fill: #262626" transform="translate(24.75875 101.311107)scale(0.1 -0.1)">
       <use xlink:href="#DejaVuSans-32"/>
       <use xlink:href="#DejaVuSans-35" x="63.623047"/>
       <use xlink:href="#DejaVuSans-30" x="127.246094"/>
       <use xlink:href="#DejaVuSans-30" x="190.869141"/>
       <use xlink:href="#DejaVuSans-30" x="254.492188"/>
      </g>
     </g>
    </g>
    <g id="ytick_7">
     <g id="line2d_7">
      <path d="M 63.57125 56.286266 
L 450 56.286266 
" clip-path="url(#p063558a8e1)" style="fill: none; stroke: #cccccc; stroke-width: 0.8; stroke-linecap: round"/>
     </g>
     <g id="text_11">
      <!-- 30000 -->
      <g style="fill: #262626" transform="translate(24.75875 60.085485)scale(0.1 -0.1)">
       <defs>
        <path id="DejaVuSans-33" d="M 2597 2516 
Q 3050 2419 3304 2112 
Q 3559 1806 3559 1356 
Q 3559 666 3084 287 
Q 2609 -91 1734 -91 
Q 1441 -91 1130 -33 
Q 819 25 488 141 
L 488 750 
Q 750 597 1062 519 
Q 1375 441 1716 441 
Q 2309 441 2620 675 
Q 2931 909 2931 1356 
Q 2931 1769 2642 2001 
Q 2353 2234 1838 2234 
L 1294 2234 
L 1294 2753 
L 1863 2753 
Q 2328 2753 2575 2939 
Q 2822 3125 2822 3475 
Q 2822 3834 2567 4026 
Q 2313 4219 1838 4219 
Q 1578 4219 1281 4162 
Q 984 4106 628 3988 
L 628 4550 
Q 988 4650 1302 4700 
Q 1616 4750 1894 4750 
Q 2613 4750 3031 4423 
Q 3450 4097 3450 3541 
Q 3450 3153 3228 2886 
Q 3006 2619 2597 2516 
z
" transform="scale(0.015625)"/>
       </defs>
       <use xlink:href="#DejaVuSans-33"/>
       <use xlink:href="#DejaVuSans-30" x="63.623047"/>
       <use xlink:href="#DejaVuSans-30" x="127.246094"/>
       <use xlink:href="#DejaVuSans-30" x="190.869141"/>
       <use xlink:href="#DejaVuSans-30" x="254.492188"/>
      </g>
     </g>
    </g>
    <g id="ytick_8">
     <g id="line2d_8">
      <path d="M 63.57125 15.060643 
L 450 15.060643 
" clip-path="url(#p063558a8e1)" style="fill: none; stroke: #cccccc; stroke-width: 0.8; stroke-linecap: round"/>
     </g>
     <g id="text_12">
      <!-- 35000 -->
      <g style="fill: #262626" transform="translate(24.75875 18.859862)scale(0.1 -0.1)">
       <use xlink:href="#DejaVuSans-33"/>
       <use xlink:href="#DejaVuSans-35" x="63.623047"/>
       <use xlink:href="#DejaVuSans-30" x="127.246094"/>
       <use xlink:href="#DejaVuSans-30" x="190.869141"/>
       <use xlink:href="#DejaVuSans-30" x="254.492188"/>
      </g>
     </g>
    </g>
    <g id="text_13">
     <!-- toxgreen_fluor -->
     <g style="fill: #262626" transform="translate(18.400938 194.52575)rotate(-90)scale(0.1 -0.1)">
      <defs>
       <path id="DejaVuSans-74" d="M 1172 4494 
L 1172 3500 
L 2356 3500 
L 2356 3053 
L 1172 3053 
L 1172 1153 
Q 1172 725 1289 603 
Q 1406 481 1766 481 
L 2356 481 
L 2356 0 
L 1766 0 
Q 1100 0 847 248 
Q 594 497 594 1153 
L 594 3053 
L 172 3053 
L 172 3500 
L 594 3500 
L 594 4494 
L 1172 4494 
z
" transform="scale(0.015625)"/>
       <path id="DejaVuSans-6f" d="M 1959 3097 
Q 1497 3097 1228 2736 
Q 959 2375 959 1747 
Q 959 1119 1226 758 
Q 1494 397 1959 397 
Q 2419 397 2687 759 
Q 2956 1122 2956 1747 
Q 2956 2369 2687 2733 
Q 2419 3097 1959 3097 
z
M 1959 3584 
Q 2709 3584 3137 3096 
Q 3566 2609 3566 1747 
Q 3566 888 3137 398 
Q 2709 -91 1959 -91 
Q 1206 -91 779 398 
Q 353 888 353 1747 
Q 353 2609 779 3096 
Q 1206 3584 1959 3584 
z
" transform="scale(0.015625)"/>
       <path id="DejaVuSans-78" d="M 3513 3500 
L 2247 1797 
L 3578 0 
L 2900 0 
L 1881 1375 
L 863 0 
L 184 0 
L 1544 1831 
L 300 3500 
L 978 3500 
L 1906 2253 
L 2834 3500 
L 3513 3500 
z
" transform="scale(0.015625)"/>
       <path id="DejaVuSans-67" d="M 2906 1791 
Q 2906 2416 2648 2759 
Q 2391 3103 1925 3103 
Q 1463 3103 1205 2759 
Q 947 2416 947 1791 
Q 947 1169 1205 825 
Q 1463 481 1925 481 
Q 2391 481 2648 825 
Q 2906 1169 2906 1791 
z
M 3481 434 
Q 3481 -459 3084 -895 
Q 2688 -1331 1869 -1331 
Q 1566 -1331 1297 -1286 
Q 1028 -1241 775 -1147 
L 775 -588 
Q 1028 -725 1275 -790 
Q 1522 -856 1778 -856 
Q 2344 -856 2625 -561 
Q 2906 -266 2906 331 
L 2906 616 
Q 2728 306 2450 153 
Q 2172 0 1784 0 
Q 1141 0 747 490 
Q 353 981 353 1791 
Q 353 2603 747 3093 
Q 1141 3584 1784 3584 
Q 2172 3584 2450 3431 
Q 2728 3278 2906 2969 
L 2906 3500 
L 3481 3500 
L 3481 434 
z
" transform="scale(0.015625)"/>
       <path id="DejaVuSans-72" d="M 2631 2963 
Q 2534 3019 2420 3045 
Q 2306 3072 2169 3072 
Q 1681 3072 1420 2755 
Q 1159 2438 1159 1844 
L 1159 0 
L 581 0 
L 581 3500 
L 1159 3500 
L 1159 2956 
Q 1341 3275 1631 3429 
Q 1922 3584 2338 3584 
Q 2397 3584 2469 3576 
Q 2541 3569 2628 3553 
L 2631 2963 
z
" transform="scale(0.015625)"/>
       <path id="DejaVuSans-6e" d="M 3513 2113 
L 3513 0 
L 2938 0 
L 2938 2094 
Q 2938 2591 2744 2837 
Q 2550 3084 2163 3084 
Q 1697 3084 1428 2787 
Q 1159 2491 1159 1978 
L 1159 0 
L 581 0 
L 581 3500 
L 1159 3500 
L 1159 2956 
Q 1366 3272 1645 3428 
Q 1925 3584 2291 3584 
Q 2894 3584 3203 3211 
Q 3513 2838 3513 2113 
z
" transform="scale(0.015625)"/>
       <path id="DejaVuSans-5f" d="M 3263 -1063 
L 3263 -1509 
L -63 -1509 
L -63 -1063 
L 3263 -1063 
z
" transform="scale(0.015625)"/>
       <path id="DejaVuSans-66" d="M 2375 4863 
L 2375 4384 
L 1825 4384 
Q 1516 4384 1395 4259 
Q 1275 4134 1275 3809 
L 1275 3500 
L 2222 3500 
L 2222 3053 
L 1275 3053 
L 1275 0 
L 697 0 
L 697 3053 
L 147 3053 
L 147 3500 
L 697 3500 
L 697 3744 
Q 697 4328 969 4595 
Q 1241 4863 1831 4863 
L 2375 4863 
z
" transform="scale(0.015625)"/>
       <path id="DejaVuSans-75" d="M 544 1381 
L 544 3500 
L 1119 3500 
L 1119 1403 
Q 1119 906 1312 657 
Q 1506 409 1894 409 
Q 2359 409 2629 706 
Q 2900 1003 2900 1516 
L 2900 3500 
L 3475 3500 
L 3475 0 
L 2900 0 
L 2900 538 
Q 2691 219 2414 64 
Q 2138 -91 1772 -91 
Q 1169 -91 856 284 
Q 544 659 544 1381 
z
M 1991 3584 
L 1991 3584 
z
" transform="scale(0.015625)"/>
      </defs>
      <use xlink:href="#DejaVuSans-74"/>
      <use xlink:href="#DejaVuSans-6f" x="39.208984"/>
      <use xlink:href="#DejaVuSans-78" x="97.265625"/>
      <use xlink:href="#DejaVuSans-67" x="156.445312"/>
      <use xlink:href="#DejaVuSans-72" x="219.921875"/>
      <use xlink:href="#DejaVuSans-65" x="258.785156"/>
      <use xlink:href="#DejaVuSans-65" x="320.308594"/>
      <use xlink:href="#DejaVuSans-6e" x="381.832031"/>
      <use xlink:href="#DejaVuSans-5f" x="445.210938"/>
      <use xlink:href="#DejaVuSans-66" x="495.210938"/>
      <use xlink:href="#DejaVuSans-6c" x="530.416016"/>
      <use xlink:href="#DejaVuSans-75" x="558.199219"/>
      <use xlink:href="#DejaVuSans-6f" x="621.578125"/>
      <use xlink:href="#DejaVuSans-72" x="682.759766"/>
     </g>
    </g>
   </g>
   <g id="patch_3">
    <path d="M 76.795701 263.983514 
L 110.457938 263.983514 
L 110.457938 247.990097 
L 76.795701 247.990097 
L 76.795701 263.983514 
z
" clip-path="url(#p063558a8e1)" style="fill: #ecf2ec; stroke: #262626; stroke-width: 1.5; stroke-linejoin: miter"/>
   </g>
   <g id="patch_4">
    <path d="M 111.144923 185.798348 
L 144.807161 185.798348 
L 144.807161 112.967948 
L 111.144923 112.967948 
L 111.144923 185.798348 
z
" clip-path="url(#p063558a8e1)" style="fill: #7db17d; stroke: #262626; stroke-width: 1.5; stroke-linejoin: miter"/>
   </g>
   <g id="patch_5">
    <path d="M 145.494145 140.129892 
L 179.156383 140.129892 
L 179.156383 93.749443 
L 145.494145 93.749443 
L 145.494145 140.129892 
z
" clip-path="url(#p063558a8e1)" style="fill: #107010; stroke: #262626; stroke-width: 1.5; stroke-linejoin: miter"/>
   </g>
   <g id="patch_6">
    <path d="M 205.605284 287.601941 
L 239.267522 287.601941 
L 239.267522 286.858972 
L 205.605284 286.858972 
L 205.605284 287.601941 
z
" clip-path="url(#p063558a8e1)" style="fill: #ecf2ec; stroke: #262626; stroke-width: 1.5; stroke-linejoin: miter"/>
   </g>
   <g id="patch_7">
    <path d="M 239.954506 241.034331 
L 273.616744 241.034331 
L 273.616744 240.221369 
L 239.954506 240.221369 
L 239.954506 241.034331 
z
" clip-path="url(#p063558a8e1)" style="fill: #7db17d; stroke: #262626; stroke-width: 1.5; stroke-linejoin: miter"/>
   </g>
   <g id="patch_8">
    <path d="M 274.303728 236.354024 
L 307.965966 236.354024 
L 307.965966 236.354024 
L 274.303728 236.354024 
L 274.303728 236.354024 
z
" clip-path="url(#p063558a8e1)" style="fill: #107010; stroke: #262626; stroke-width: 1.5; stroke-linejoin: miter"/>
   </g>
   <g id="patch_9">
    <path d="M 334.414867 247.515126 
L 368.077105 247.515126 
L 368.077105 243.283005 
L 334.414867 243.283005 
L 334.414867 247.515126 
z
" clip-path="url(#p063558a8e1)" style="fill: #ecf2ec; stroke: #262626; stroke-width: 1.5; stroke-linejoin: miter"/>
   </g>
   <g id="patch_10">
    <path d="M 368.764089 221.376138 
L 402.426327 221.376138 
L 402.426327 208.790997 
L 368.764089 208.790997 
L 368.764089 221.376138 
z
" clip-path="url(#p063558a8e1)" style="fill: #7db17d; stroke: #262626; stroke-width: 1.5; stroke-linejoin: miter"/>
   </g>
   <g id="patch_11">
    <path d="M 403.113312 192.311968 
L 436.775549 192.311968 
L 436.775549 192.311968 
L 403.113312 192.311968 
L 403.113312 192.311968 
z
" clip-path="url(#p063558a8e1)" style="fill: #107010; stroke: #262626; stroke-width: 1.5; stroke-linejoin: miter"/>
   </g>
   <g id="patch_12">
    <path d="M 127.976042 303.64 
L 127.976042 303.64 
L 127.976042 303.64 
L 127.976042 303.64 
z
" clip-path="url(#p063558a8e1)" style="fill: #ecf2ec; stroke: #262626; stroke-width: 0.75; stroke-linejoin: miter"/>
   </g>
   <g id="patch_13">
    <path d="M 127.976042 303.64 
L 127.976042 303.64 
L 127.976042 303.64 
L 127.976042 303.64 
z
" clip-path="url(#p063558a8e1)" style="fill: #7db17d; stroke: #262626; stroke-width: 0.75; stroke-linejoin: miter"/>
   </g>
   <g id="patch_14">
    <path d="M 127.976042 303.64 
L 127.976042 303.64 
L 127.976042 303.64 
L 127.976042 303.64 
z
" clip-path="url(#p063558a8e1)" style="fill: #107010; stroke: #262626; stroke-width: 0.75; stroke-linejoin: miter"/>
   </g>
   <g id="PathCollection_1"/>
   <g id="PathCollection_2"/>
   <g id="PathCollection_3"/>
   <g id="line2d_9">
    <path d="M 93.626819 263.983514 
L 93.626819 275.724295 
" clip-path="url(#p063558a8e1)" style="fill: none; stroke: #262626; stroke-width: 1.5; stroke-linecap: round"/>
   </g>
   <g id="line2d_10">
    <path d="M 93.626819 247.990097 
L 93.626819 233.674889 
" clip-path="url(#p063558a8e1)" style="fill: none; stroke: #262626; stroke-width: 1.5; stroke-linecap: round"/>
   </g>
   <g id="line2d_11">
    <path d="M 85.21126 275.724295 
L 102.042379 275.724295 
" clip-path="url(#p063558a8e1)" style="fill: none; stroke: #262626; stroke-width: 1.5; stroke-linecap: round"/>
   </g>
   <g id="line2d_12">
    <path d="M 85.21126 233.674889 
L 102.042379 233.674889 
" clip-path="url(#p063558a8e1)" style="fill: none; stroke: #262626; stroke-width: 1.5; stroke-linecap: round"/>
   </g>
   <g id="line2d_13">
    <defs>
     <path id="m7d239a4db7" d="M -0 1.414214 
L 0.848528 0 
L 0 -1.414214 
L -0.848528 -0 
z
" style="stroke: #262626; stroke-linejoin: miter"/>
    </defs>
    <g clip-path="url(#p063558a8e1)">
     <use xlink:href="#m7d239a4db7" x="93.626819" y="209.702149" style="fill: #262626; stroke: #262626; stroke-linejoin: miter"/>
     <use xlink:href="#m7d239a4db7" x="93.626819" y="138.282935" style="fill: #262626; stroke: #262626; stroke-linejoin: miter"/>
    </g>
   </g>
   <g id="line2d_14">
    <path d="M 127.976042 185.798348 
L 127.976042 245.330946 
" clip-path="url(#p063558a8e1)" style="fill: none; stroke: #262626; stroke-width: 1.5; stroke-linecap: round"/>
   </g>
   <g id="line2d_15">
    <path d="M 127.976042 112.967948 
L 127.976042 40.045159 
" clip-path="url(#p063558a8e1)" style="fill: none; stroke: #262626; stroke-width: 1.5; stroke-linecap: round"/>
   </g>
   <g id="line2d_16">
    <path d="M 119.560482 245.330946 
L 136.391601 245.330946 
" clip-path="url(#p063558a8e1)" style="fill: none; stroke: #262626; stroke-width: 1.5; stroke-linecap: round"/>
   </g>
   <g id="line2d_17">
    <path d="M 119.560482 40.045159 
L 136.391601 40.045159 
" clip-path="url(#p063558a8e1)" style="fill: none; stroke: #262626; stroke-width: 1.5; stroke-linecap: round"/>
   </g>
   <g id="line2d_18"/>
   <g id="line2d_19">
    <path d="M 162.325264 140.129892 
L 162.325264 153.942183 
" clip-path="url(#p063558a8e1)" style="fill: none; stroke: #262626; stroke-width: 1.5; stroke-linecap: round"/>
   </g>
   <g id="line2d_20">
    <path d="M 162.325264 93.749443 
L 162.325264 39.442216 
" clip-path="url(#p063558a8e1)" style="fill: none; stroke: #262626; stroke-width: 1.5; stroke-linecap: round"/>
   </g>
   <g id="line2d_21">
    <path d="M 153.909704 153.942183 
L 170.740823 153.942183 
" clip-path="url(#p063558a8e1)" style="fill: none; stroke: #262626; stroke-width: 1.5; stroke-linecap: round"/>
   </g>
   <g id="line2d_22">
    <path d="M 153.909704 39.442216 
L 170.740823 39.442216 
" clip-path="url(#p063558a8e1)" style="fill: none; stroke: #262626; stroke-width: 1.5; stroke-linecap: round"/>
   </g>
   <g id="line2d_23">
    <g clip-path="url(#p063558a8e1)">
     <use xlink:href="#m7d239a4db7" x="162.325264" y="217.317142" style="fill: #262626; stroke: #262626; stroke-linejoin: miter"/>
    </g>
   </g>
   <g id="line2d_24">
    <path d="M 222.436403 287.601941 
L 222.436403 287.973425 
" clip-path="url(#p063558a8e1)" style="fill: none; stroke: #262626; stroke-width: 1.5; stroke-linecap: round"/>
   </g>
   <g id="line2d_25">
    <path d="M 222.436403 286.858972 
L 222.436403 286.487488 
" clip-path="url(#p063558a8e1)" style="fill: none; stroke: #262626; stroke-width: 1.5; stroke-linecap: round"/>
   </g>
   <g id="line2d_26">
    <path d="M 214.020843 287.973425 
L 230.851962 287.973425 
" clip-path="url(#p063558a8e1)" style="fill: none; stroke: #262626; stroke-width: 1.5; stroke-linecap: round"/>
   </g>
   <g id="line2d_27">
    <path d="M 214.020843 286.487488 
L 230.851962 286.487488 
" clip-path="url(#p063558a8e1)" style="fill: none; stroke: #262626; stroke-width: 1.5; stroke-linecap: round"/>
   </g>
   <g id="line2d_28"/>
   <g id="line2d_29">
    <path d="M 256.785625 241.034331 
L 256.785625 241.440813 
" clip-path="url(#p063558a8e1)" style="fill: none; stroke: #262626; stroke-width: 1.5; stroke-linecap: round"/>
   </g>
   <g id="line2d_30">
    <path d="M 256.785625 240.221369 
L 256.785625 239.814888 
" clip-path="url(#p063558a8e1)" style="fill: none; stroke: #262626; stroke-width: 1.5; stroke-linecap: round"/>
   </g>
   <g id="line2d_31">
    <path d="M 248.370066 241.440813 
L 265.201184 241.440813 
" clip-path="url(#p063558a8e1)" style="fill: none; stroke: #262626; stroke-width: 1.5; stroke-linecap: round"/>
   </g>
   <g id="line2d_32">
    <path d="M 248.370066 239.814888 
L 265.201184 239.814888 
" clip-path="url(#p063558a8e1)" style="fill: none; stroke: #262626; stroke-width: 1.5; stroke-linecap: round"/>
   </g>
   <g id="line2d_33"/>
   <g id="line2d_34">
    <path d="M 291.134847 236.354024 
L 291.134847 236.354024 
" clip-path="url(#p063558a8e1)" style="fill: none; stroke: #262626; stroke-width: 1.5; stroke-linecap: round"/>
   </g>
   <g id="line2d_35">
    <path d="M 291.134847 236.354024 
L 291.134847 236.354024 
" clip-path="url(#p063558a8e1)" style="fill: none; stroke: #262626; stroke-width: 1.5; stroke-linecap: round"/>
   </g>
   <g id="line2d_36">
    <path d="M 282.719288 236.354024 
L 299.550407 236.354024 
" clip-path="url(#p063558a8e1)" style="fill: none; stroke: #262626; stroke-width: 1.5; stroke-linecap: round"/>
   </g>
   <g id="line2d_37">
    <path d="M 282.719288 236.354024 
L 299.550407 236.354024 
" clip-path="url(#p063558a8e1)" style="fill: none; stroke: #262626; stroke-width: 1.5; stroke-linecap: round"/>
   </g>
   <g id="line2d_38"/>
   <g id="line2d_39">
    <path d="M 351.245986 247.515126 
L 351.245986 249.631187 
" clip-path="url(#p063558a8e1)" style="fill: none; stroke: #262626; stroke-width: 1.5; stroke-linecap: round"/>
   </g>
   <g id="line2d_40">
    <path d="M 351.245986 243.283005 
L 351.245986 241.166944 
" clip-path="url(#p063558a8e1)" style="fill: none; stroke: #262626; stroke-width: 1.5; stroke-linecap: round"/>
   </g>
   <g id="line2d_41">
    <path d="M 342.830427 249.631187 
L 359.661546 249.631187 
" clip-path="url(#p063558a8e1)" style="fill: none; stroke: #262626; stroke-width: 1.5; stroke-linecap: round"/>
   </g>
   <g id="line2d_42">
    <path d="M 342.830427 241.166944 
L 359.661546 241.166944 
" clip-path="url(#p063558a8e1)" style="fill: none; stroke: #262626; stroke-width: 1.5; stroke-linecap: round"/>
   </g>
   <g id="line2d_43"/>
   <g id="line2d_44">
    <path d="M 385.595208 221.376138 
L 385.595208 227.668708 
" clip-path="url(#p063558a8e1)" style="fill: none; stroke: #262626; stroke-width: 1.5; stroke-linecap: round"/>
   </g>
   <g id="line2d_45">
    <path d="M 385.595208 208.790997 
L 385.595208 202.498426 
" clip-path="url(#p063558a8e1)" style="fill: none; stroke: #262626; stroke-width: 1.5; stroke-linecap: round"/>
   </g>
   <g id="line2d_46">
    <path d="M 377.179649 227.668708 
L 394.010768 227.668708 
" clip-path="url(#p063558a8e1)" style="fill: none; stroke: #262626; stroke-width: 1.5; stroke-linecap: round"/>
   </g>
   <g id="line2d_47">
    <path d="M 377.179649 202.498426 
L 394.010768 202.498426 
" clip-path="url(#p063558a8e1)" style="fill: none; stroke: #262626; stroke-width: 1.5; stroke-linecap: round"/>
   </g>
   <g id="line2d_48"/>
   <g id="line2d_49">
    <path d="M 419.944431 192.311968 
L 419.944431 192.311968 
" clip-path="url(#p063558a8e1)" style="fill: none; stroke: #262626; stroke-width: 1.5; stroke-linecap: round"/>
   </g>
   <g id="line2d_50">
    <path d="M 419.944431 192.311968 
L 419.944431 192.311968 
" clip-path="url(#p063558a8e1)" style="fill: none; stroke: #262626; stroke-width: 1.5; stroke-linecap: round"/>
   </g>
   <g id="line2d_51">
    <path d="M 411.528871 192.311968 
L 428.35999 192.311968 
" clip-path="url(#p063558a8e1)" style="fill: none; stroke: #262626; stroke-width: 1.5; stroke-linecap: round"/>
   </g>
   <g id="line2d_52">
    <path d="M 411.528871 192.311968 
L 428.35999 192.311968 
" clip-path="url(#p063558a8e1)" style="fill: none; stroke: #262626; stroke-width: 1.5; stroke-linecap: round"/>
   </g>
   <g id="line2d_53"/>
   <g id="line2d_54">
    <path d="M 76.795701 256.439454 
L 110.457938 256.439454 
" clip-path="url(#p063558a8e1)" style="fill: none; stroke: #262626; stroke-width: 1.5; stroke-linecap: round"/>
   </g>
   <g id="line2d_55">
    <path d="M 111.144923 146.707876 
L 144.807161 146.707876 
" clip-path="url(#p063558a8e1)" style="fill: none; stroke: #262626; stroke-width: 1.5; stroke-linecap: round"/>
   </g>
   <g id="line2d_56">
    <path d="M 145.494145 118.63254 
L 179.156383 118.63254 
" clip-path="url(#p063558a8e1)" style="fill: none; stroke: #262626; stroke-width: 1.5; stroke-linecap: round"/>
   </g>
   <g id="line2d_57">
    <path d="M 205.605284 287.230456 
L 239.267522 287.230456 
" clip-path="url(#p063558a8e1)" style="fill: none; stroke: #262626; stroke-width: 1.5; stroke-linecap: round"/>
   </g>
   <g id="line2d_58">
    <path d="M 239.954506 240.62785 
L 273.616744 240.62785 
" clip-path="url(#p063558a8e1)" style="fill: none; stroke: #262626; stroke-width: 1.5; stroke-linecap: round"/>
   </g>
   <g id="line2d_59">
    <path d="M 274.303728 236.354024 
L 307.965966 236.354024 
" clip-path="url(#p063558a8e1)" style="fill: none; stroke: #262626; stroke-width: 1.5; stroke-linecap: round"/>
   </g>
   <g id="line2d_60">
    <path d="M 334.414867 245.399066 
L 368.077105 245.399066 
" clip-path="url(#p063558a8e1)" style="fill: none; stroke: #262626; stroke-width: 1.5; stroke-linecap: round"/>
   </g>
   <g id="line2d_61">
    <path d="M 368.764089 215.083567 
L 402.426327 215.083567 
" clip-path="url(#p063558a8e1)" style="fill: none; stroke: #262626; stroke-width: 1.5; stroke-linecap: round"/>
   </g>
   <g id="line2d_62">
    <path d="M 403.113312 192.311968 
L 436.775549 192.311968 
" clip-path="url(#p063558a8e1)" style="fill: none; stroke: #262626; stroke-width: 1.5; stroke-linecap: round"/>
   </g>
   <g id="patch_15">
    <path d="M 63.57125 303.64 
L 63.57125 13.022438 
" style="fill: none; stroke: #cccccc; stroke-width: 0.8; stroke-linejoin: miter; stroke-linecap: square"/>
   </g>
   <g id="patch_16">
    <path d="M 450 303.64 
L 450 13.022438 
" style="fill: none; stroke: #cccccc; stroke-width: 0.8; stroke-linejoin: miter; stroke-linecap: square"/>
   </g>
   <g id="patch_17">
    <path d="M 63.57125 303.64 
L 450 303.64 
" style="fill: none; stroke: #cccccc; stroke-width: 0.8; stroke-linejoin: miter; stroke-linecap: square"/>
   </g>
   <g id="patch_18">
    <path d="M 63.57125 13.022438 
L 450 13.022438 
" style="fill: none; stroke: #cccccc; stroke-width: 0.8; stroke-linejoin: miter; stroke-linecap: square"/>
   </g>
   <g id="PathCollection_4">
    <defs>
     <path id="C0_0_7c551f16d5" d="M 0 1 
C 0.265203 1 0.51958 0.894634 0.707107 0.707107 
C 0.894634 0.51958 1 0.265203 1 -0 
C 1 -0.265203 0.894634 -0.51958 0.707107 -0.707107 
C 0.51958 -0.894634 0.265203 -1 0 -1 
C -0.265203 -1 -0.51958 -0.894634 -0.707107 -0.707107 
C -0.894634 -0.51958 -1 -0.265203 -1 0 
C -1 0.265203 -0.894634 0.51958 -0.707107 0.707107 
C -0.51958 0.894634 -0.265203 1 0 1 
z
"/>
    </defs>
    <g clip-path="url(#p063558a8e1)">
     <use xlink:href="#C0_0_7c551f16d5" x="92.649816" y="233.829905" style="fill: #262626"/>
    </g>
    <g clip-path="url(#p063558a8e1)">
     <use xlink:href="#C0_0_7c551f16d5" x="93.230661" y="247.593401" style="fill: #262626"/>
    </g>
    <g clip-path="url(#p063558a8e1)">
     <use xlink:href="#C0_0_7c551f16d5" x="93.806342" y="256.085953" style="fill: #262626"/>
    </g>
    <g clip-path="url(#p063558a8e1)">
     <use xlink:href="#C0_0_7c551f16d5" x="96.482443" y="233.674889" style="fill: #262626"/>
    </g>
    <g clip-path="url(#p063558a8e1)">
     <use xlink:href="#C0_0_7c551f16d5" x="90.77356" y="209.702149" style="fill: #262626"/>
    </g>
    <g clip-path="url(#p063558a8e1)">
     <use xlink:href="#C0_0_7c551f16d5" x="89.542869" y="271.72205" style="fill: #262626"/>
    </g>
    <g clip-path="url(#p063558a8e1)">
     <use xlink:href="#C0_0_7c551f16d5" x="89.792832" y="257.010192" style="fill: #262626"/>
    </g>
    <g clip-path="url(#p063558a8e1)">
     <use xlink:href="#C0_0_7c551f16d5" x="91.532922" y="138.282935" style="fill: #262626"/>
    </g>
    <g clip-path="url(#p063558a8e1)">
     <use xlink:href="#C0_0_7c551f16d5" x="93.425994" y="264.781518" style="fill: #262626"/>
    </g>
    <g clip-path="url(#p063558a8e1)">
     <use xlink:href="#C0_0_7c551f16d5" x="94.727579" y="249.558793" style="fill: #262626"/>
    </g>
    <g clip-path="url(#p063558a8e1)">
     <use xlink:href="#C0_0_7c551f16d5" x="92.748745" y="256.792954" style="fill: #262626"/>
    </g>
    <g clip-path="url(#p063558a8e1)">
     <use xlink:href="#C0_0_7c551f16d5" x="96.684502" y="255.979389" style="fill: #262626"/>
    </g>
    <g clip-path="url(#p063558a8e1)">
     <use xlink:href="#C0_0_7c551f16d5" x="93.056062" y="275.724295" style="fill: #262626"/>
    </g>
    <g clip-path="url(#p063558a8e1)">
     <use xlink:href="#C0_0_7c551f16d5" x="95.459017" y="270.271662" style="fill: #262626"/>
    </g>
    <g clip-path="url(#p063558a8e1)">
     <use xlink:href="#C0_0_7c551f16d5" x="97.090304" y="252.816254" style="fill: #262626"/>
    </g>
    <g clip-path="url(#p063558a8e1)">
     <use xlink:href="#C0_0_7c551f16d5" x="92.073224" y="240.700574" style="fill: #262626"/>
    </g>
    <g clip-path="url(#p063558a8e1)">
     <use xlink:href="#C0_0_7c551f16d5" x="95.486621" y="275.067824" style="fill: #262626"/>
    </g>
    <g clip-path="url(#p063558a8e1)">
     <use xlink:href="#C0_0_7c551f16d5" x="94.976076" y="251.396595" style="fill: #262626"/>
    </g>
    <g clip-path="url(#p063558a8e1)">
     <use xlink:href="#C0_0_7c551f16d5" x="95.419264" y="258.77081" style="fill: #262626"/>
    </g>
    <g clip-path="url(#p063558a8e1)">
     <use xlink:href="#C0_0_7c551f16d5" x="92.810998" y="248.577027" style="fill: #262626"/>
    </g>
    <g clip-path="url(#p063558a8e1)">
     <use xlink:href="#C0_0_7c551f16d5" x="93.187504" y="264.68231" style="fill: #262626"/>
    </g>
    <g clip-path="url(#p063558a8e1)">
     <use xlink:href="#C0_0_7c551f16d5" x="93.294456" y="263.796036" style="fill: #262626"/>
    </g>
    <g clip-path="url(#p063558a8e1)">
     <use xlink:href="#C0_0_7c551f16d5" x="89.818713" y="263.678603" style="fill: #262626"/>
    </g>
    <g clip-path="url(#p063558a8e1)">
     <use xlink:href="#C0_0_7c551f16d5" x="94.434867" y="264.545946" style="fill: #262626"/>
    </g>
    <g clip-path="url(#p063558a8e1)">
     <use xlink:href="#C0_0_7c551f16d5" x="90.018733" y="259.617078" style="fill: #262626"/>
    </g>
    <g clip-path="url(#p063558a8e1)">
     <use xlink:href="#C0_0_7c551f16d5" x="95.311044" y="248.122328" style="fill: #262626"/>
    </g>
    <g clip-path="url(#p063558a8e1)">
     <use xlink:href="#C0_0_7c551f16d5" x="95.167793" y="261.423296" style="fill: #262626"/>
    </g>
    <g clip-path="url(#p063558a8e1)">
     <use xlink:href="#C0_0_7c551f16d5" x="95.745756" y="246.266075" style="fill: #262626"/>
    </g>
   </g>
   <g id="PathCollection_5">
    <defs>
     <path id="C1_0_e13ed623e3" d="M 0 1 
C 0.265203 1 0.51958 0.894634 0.707107 0.707107 
C 0.894634 0.51958 1 0.265203 1 -0 
C 1 -0.265203 0.894634 -0.51958 0.707107 -0.707107 
C 0.51958 -0.894634 0.265203 -1 0 -1 
C -0.265203 -1 -0.51958 -0.894634 -0.707107 -0.707107 
C -0.894634 -0.51958 -1 -0.265203 -1 0 
C -1 0.265203 -0.894634 0.51958 -0.707107 0.707107 
C -0.51958 0.894634 -0.265203 1 0 1 
z
"/>
    </defs>
    <g clip-path="url(#p063558a8e1)">
     <use xlink:href="#C1_0_e13ed623e3" x="130.728637" y="232.690362" style="fill: #131313"/>
    </g>
    <g clip-path="url(#p063558a8e1)">
     <use xlink:href="#C1_0_e13ed623e3" x="125.917745" y="137.73708" style="fill: #131313"/>
    </g>
    <g clip-path="url(#p063558a8e1)">
     <use xlink:href="#C1_0_e13ed623e3" x="128.154173" y="114.983198" style="fill: #131313"/>
    </g>
    <g clip-path="url(#p063558a8e1)">
     <use xlink:href="#C1_0_e13ed623e3" x="128.827842" y="151.639724" style="fill: #131313"/>
    </g>
    <g clip-path="url(#p063558a8e1)">
     <use xlink:href="#C1_0_e13ed623e3" x="128.934698" y="189.008107" style="fill: #131313"/>
    </g>
    <g clip-path="url(#p063558a8e1)">
     <use xlink:href="#C1_0_e13ed623e3" x="131.013334" y="245.330946" style="fill: #131313"/>
    </g>
    <g clip-path="url(#p063558a8e1)">
     <use xlink:href="#C1_0_e13ed623e3" x="126.803746" y="140.456958" style="fill: #131313"/>
    </g>
    <g clip-path="url(#p063558a8e1)">
     <use xlink:href="#C1_0_e13ed623e3" x="128.907921" y="150.139174" style="fill: #131313"/>
    </g>
    <g clip-path="url(#p063558a8e1)">
     <use xlink:href="#C1_0_e13ed623e3" x="132.036161" y="48.60755" style="fill: #131313"/>
    </g>
    <g clip-path="url(#p063558a8e1)">
     <use xlink:href="#C1_0_e13ed623e3" x="124.584" y="162.353983" style="fill: #131313"/>
    </g>
    <g clip-path="url(#p063558a8e1)">
     <use xlink:href="#C1_0_e13ed623e3" x="127.120156" y="138.610592" style="fill: #131313"/>
    </g>
    <g clip-path="url(#p063558a8e1)">
     <use xlink:href="#C1_0_e13ed623e3" x="128.183087" y="74.135968" style="fill: #131313"/>
    </g>
    <g clip-path="url(#p063558a8e1)">
     <use xlink:href="#C1_0_e13ed623e3" x="130.22958" y="162.648087" style="fill: #131313"/>
    </g>
    <g clip-path="url(#p063558a8e1)">
     <use xlink:href="#C1_0_e13ed623e3" x="127.901565" y="224.162151" style="fill: #131313"/>
    </g>
    <g clip-path="url(#p063558a8e1)">
     <use xlink:href="#C1_0_e13ed623e3" x="128.370908" y="70.765777" style="fill: #131313"/>
    </g>
    <g clip-path="url(#p063558a8e1)">
     <use xlink:href="#C1_0_e13ed623e3" x="131.115066" y="128.67525" style="fill: #131313"/>
    </g>
    <g clip-path="url(#p063558a8e1)">
     <use xlink:href="#C1_0_e13ed623e3" x="130.726743" y="102.943825" style="fill: #131313"/>
    </g>
    <g clip-path="url(#p063558a8e1)">
     <use xlink:href="#C1_0_e13ed623e3" x="125.467255" y="185.798348" style="fill: #131313"/>
    </g>
    <g clip-path="url(#p063558a8e1)">
     <use xlink:href="#C1_0_e13ed623e3" x="129.331832" y="153.605717" style="fill: #131313"/>
    </g>
    <g clip-path="url(#p063558a8e1)">
     <use xlink:href="#C1_0_e13ed623e3" x="128.339947" y="74.776316" style="fill: #131313"/>
    </g>
    <g clip-path="url(#p063558a8e1)">
     <use xlink:href="#C1_0_e13ed623e3" x="126.681691" y="112.967948" style="fill: #131313"/>
    </g>
    <g clip-path="url(#p063558a8e1)">
     <use xlink:href="#C1_0_e13ed623e3" x="131.202113" y="210.367338" style="fill: #131313"/>
    </g>
    <g clip-path="url(#p063558a8e1)">
     <use xlink:href="#C1_0_e13ed623e3" x="129.662475" y="146.707876" style="fill: #131313"/>
    </g>
    <g clip-path="url(#p063558a8e1)">
     <use xlink:href="#C1_0_e13ed623e3" x="129.437464" y="189.728156" style="fill: #131313"/>
    </g>
    <g clip-path="url(#p063558a8e1)">
     <use xlink:href="#C1_0_e13ed623e3" x="128.837706" y="40.045159" style="fill: #131313"/>
    </g>
   </g>
   <g id="PathCollection_6">
    <defs>
     <path id="C2_0_b3d9847c25" d="M 0 1 
C 0.265203 1 0.51958 0.894634 0.707107 0.707107 
C 0.894634 0.51958 1 0.265203 1 -0 
C 1 -0.265203 0.894634 -0.51958 0.707107 -0.707107 
C 0.51958 -0.894634 0.265203 -1 0 -1 
C -0.265203 -1 -0.51958 -0.894634 -0.707107 -0.707107 
C -0.894634 -0.51958 -1 -0.265203 -1 0 
C -1 0.265203 -0.894634 0.51958 -0.707107 0.707107 
C -0.51958 0.894634 -0.265203 1 0 1 
z
"/>
    </defs>
    <g clip-path="url(#p063558a8e1)">
     <use xlink:href="#C2_0_b3d9847c25" x="161.226178" y="39.442216"/>
    </g>
    <g clip-path="url(#p063558a8e1)">
     <use xlink:href="#C2_0_b3d9847c25" x="165.41083" y="82.617176"/>
    </g>
    <g clip-path="url(#p063558a8e1)">
     <use xlink:href="#C2_0_b3d9847c25" x="163.338662" y="114.21792"/>
    </g>
    <g clip-path="url(#p063558a8e1)">
     <use xlink:href="#C2_0_b3d9847c25" x="158.903255" y="123.04716"/>
    </g>
    <g clip-path="url(#p063558a8e1)">
     <use xlink:href="#C2_0_b3d9847c25" x="158.698832" y="217.317142"/>
    </g>
    <g clip-path="url(#p063558a8e1)">
     <use xlink:href="#C2_0_b3d9847c25" x="166.539767" y="149.289368"/>
    </g>
    <g clip-path="url(#p063558a8e1)">
     <use xlink:href="#C2_0_b3d9847c25" x="159.699824" y="114.157414"/>
    </g>
    <g clip-path="url(#p063558a8e1)">
     <use xlink:href="#C2_0_b3d9847c25" x="165.684343" y="87.058517"/>
    </g>
    <g clip-path="url(#p063558a8e1)">
     <use xlink:href="#C2_0_b3d9847c25" x="165.15727" y="140.790838"/>
    </g>
    <g clip-path="url(#p063558a8e1)">
     <use xlink:href="#C2_0_b3d9847c25" x="165.875357" y="113.822218"/>
    </g>
    <g clip-path="url(#p063558a8e1)">
     <use xlink:href="#C2_0_b3d9847c25" x="161.787741" y="138.147053"/>
    </g>
    <g clip-path="url(#p063558a8e1)">
     <use xlink:href="#C2_0_b3d9847c25" x="165.800572" y="80.9673"/>
    </g>
    <g clip-path="url(#p063558a8e1)">
     <use xlink:href="#C2_0_b3d9847c25" x="165.412094" y="153.942183"/>
    </g>
    <g clip-path="url(#p063558a8e1)">
     <use xlink:href="#C2_0_b3d9847c25" x="165.561207" y="136.193755"/>
    </g>
   </g>
   <g id="PathCollection_7">
    <defs>
     <path id="C3_0_b1f4c283cf" d="M 0 1 
C 0.265203 1 0.51958 0.894634 0.707107 0.707107 
C 0.894634 0.51958 1 0.265203 1 -0 
C 1 -0.265203 0.894634 -0.51958 0.707107 -0.707107 
C 0.51958 -0.894634 0.265203 -1 0 -1 
C -0.265203 -1 -0.51958 -0.894634 -0.707107 -0.707107 
C -0.894634 -0.51958 -1 -0.265203 -1 0 
C -1 0.265203 -0.894634 0.51958 -0.707107 0.707107 
C -0.51958 0.894634 -0.265203 1 0 1 
z
"/>
    </defs>
    <g clip-path="url(#p063558a8e1)">
     <use xlink:href="#C3_0_b1f4c283cf" x="223.500492" y="287.973425" style="fill: #262626"/>
    </g>
    <g clip-path="url(#p063558a8e1)">
     <use xlink:href="#C3_0_b1f4c283cf" x="226.151642" y="286.487488" style="fill: #262626"/>
    </g>
   </g>
   <g id="PathCollection_8">
    <defs>
     <path id="C4_0_f3eb3a2099" d="M 0 1 
C 0.265203 1 0.51958 0.894634 0.707107 0.707107 
C 0.894634 0.51958 1 0.265203 1 -0 
C 1 -0.265203 0.894634 -0.51958 0.707107 -0.707107 
C 0.51958 -0.894634 0.265203 -1 0 -1 
C -0.265203 -1 -0.51958 -0.894634 -0.707107 -0.707107 
C -0.894634 -0.51958 -1 -0.265203 -1 0 
C -1 0.265203 -0.894634 0.51958 -0.707107 0.707107 
C -0.51958 0.894634 -0.265203 1 0 1 
z
"/>
    </defs>
    <g clip-path="url(#p063558a8e1)">
     <use xlink:href="#C4_0_f3eb3a2099" x="259.535421" y="239.814888" style="fill: #131313"/>
    </g>
    <g clip-path="url(#p063558a8e1)">
     <use xlink:href="#C4_0_f3eb3a2099" x="256.842159" y="241.440813" style="fill: #131313"/>
    </g>
   </g>
   <g id="PathCollection_9">
    <defs>
     <path id="m02914a4d16" d="M 0 1 
C 0.265203 1 0.51958 0.894634 0.707107 0.707107 
C 0.894634 0.51958 1 0.265203 1 0 
C 1 -0.265203 0.894634 -0.51958 0.707107 -0.707107 
C 0.51958 -0.894634 0.265203 -1 0 -1 
C -0.265203 -1 -0.51958 -0.894634 -0.707107 -0.707107 
C -0.894634 -0.51958 -1 -0.265203 -1 0 
C -1 0.265203 -0.894634 0.51958 -0.707107 0.707107 
C -0.51958 0.894634 -0.265203 1 0 1 
z
"/>
    </defs>
    <g clip-path="url(#p063558a8e1)">
     <use xlink:href="#m02914a4d16" x="291.896516" y="236.354024"/>
    </g>
   </g>
   <g id="PathCollection_10">
    <defs>
     <path id="C5_0_620474d8c4" d="M 0 1 
C 0.265203 1 0.51958 0.894634 0.707107 0.707107 
C 0.894634 0.51958 1 0.265203 1 -0 
C 1 -0.265203 0.894634 -0.51958 0.707107 -0.707107 
C 0.51958 -0.894634 0.265203 -1 0 -1 
C -0.265203 -1 -0.51958 -0.894634 -0.707107 -0.707107 
C -0.894634 -0.51958 -1 -0.265203 -1 0 
C -1 0.265203 -0.894634 0.51958 -0.707107 0.707107 
C -0.51958 0.894634 -0.265203 1 0 1 
z
"/>
    </defs>
    <g clip-path="url(#p063558a8e1)">
     <use xlink:href="#C5_0_620474d8c4" x="353.393804" y="249.631187" style="fill: #262626"/>
    </g>
    <g clip-path="url(#p063558a8e1)">
     <use xlink:href="#C5_0_620474d8c4" x="353.601628" y="241.166944" style="fill: #262626"/>
    </g>
   </g>
   <g id="PathCollection_11">
    <defs>
     <path id="C6_0_5450c7bab6" d="M 0 1 
C 0.265203 1 0.51958 0.894634 0.707107 0.707107 
C 0.894634 0.51958 1 0.265203 1 -0 
C 1 -0.265203 0.894634 -0.51958 0.707107 -0.707107 
C 0.51958 -0.894634 0.265203 -1 0 -1 
C -0.265203 -1 -0.51958 -0.894634 -0.707107 -0.707107 
C -0.894634 -0.51958 -1 -0.265203 -1 0 
C -1 0.265203 -0.894634 0.51958 -0.707107 0.707107 
C -0.51958 0.894634 -0.265203 1 0 1 
z
"/>
    </defs>
    <g clip-path="url(#p063558a8e1)">
     <use xlink:href="#C6_0_5450c7bab6" x="383.990754" y="227.668708" style="fill: #131313"/>
    </g>
    <g clip-path="url(#p063558a8e1)">
     <use xlink:href="#C6_0_5450c7bab6" x="385.785991" y="202.498426" style="fill: #131313"/>
    </g>
   </g>
   <g id="PathCollection_12">
    <g clip-path="url(#p063558a8e1)">
     <use xlink:href="#m02914a4d16" x="423.378305" y="192.311968"/>
    </g>
   </g>
   <g id="text_14">
    <!-- 28 -->
    <g style="fill: #262626" transform="translate(95.773646 303.626396)scale(0.1 -0.1)">
     <defs>
      <path id="DejaVuSans-38" d="M 2034 2216 
Q 1584 2216 1326 1975 
Q 1069 1734 1069 1313 
Q 1069 891 1326 650 
Q 1584 409 2034 409 
Q 2484 409 2743 651 
Q 3003 894 3003 1313 
Q 3003 1734 2745 1975 
Q 2488 2216 2034 2216 
z
M 1403 2484 
Q 997 2584 770 2862 
Q 544 3141 544 3541 
Q 544 4100 942 4425 
Q 1341 4750 2034 4750 
Q 2731 4750 3128 4425 
Q 3525 4100 3525 3541 
Q 3525 3141 3298 2862 
Q 3072 2584 2669 2484 
Q 3125 2378 3379 2068 
Q 3634 1759 3634 1313 
Q 3634 634 3220 271 
Q 2806 -91 2034 -91 
Q 1263 -91 848 271 
Q 434 634 434 1313 
Q 434 1759 690 2068 
Q 947 2378 1403 2484 
z
M 1172 3481 
Q 1172 3119 1398 2916 
Q 1625 2713 2034 2713 
Q 2441 2713 2670 2916 
Q 2900 3119 2900 3481 
Q 2900 3844 2670 4047 
Q 2441 4250 2034 4250 
Q 1625 4250 1398 4047 
Q 1172 3844 1172 3481 
z
" transform="scale(0.015625)"/>
     </defs>
     <use xlink:href="#DejaVuSans-32"/>
     <use xlink:href="#DejaVuSans-38" x="63.623047"/>
    </g>
   </g>
   <g id="text_15">
    <!-- p=3.3690143613762667e-15 -->
    <g style="fill: #262626" transform="translate(36.351771 138.282522)scale(0.08 -0.08)">
     <defs>
      <path id="DejaVuSans-3d" d="M 678 2906 
L 4684 2906 
L 4684 2381 
L 678 2381 
L 678 2906 
z
M 678 1631 
L 4684 1631 
L 4684 1100 
L 678 1100 
L 678 1631 
z
" transform="scale(0.015625)"/>
      <path id="DejaVuSans-2e" d="M 684 794 
L 1344 794 
L 1344 0 
L 684 0 
L 684 794 
z
" transform="scale(0.015625)"/>
      <path id="DejaVuSans-36" d="M 2113 2584 
Q 1688 2584 1439 2293 
Q 1191 2003 1191 1497 
Q 1191 994 1439 701 
Q 1688 409 2113 409 
Q 2538 409 2786 701 
Q 3034 994 3034 1497 
Q 3034 2003 2786 2293 
Q 2538 2584 2113 2584 
z
M 3366 4563 
L 3366 3988 
Q 3128 4100 2886 4159 
Q 2644 4219 2406 4219 
Q 1781 4219 1451 3797 
Q 1122 3375 1075 2522 
Q 1259 2794 1537 2939 
Q 1816 3084 2150 3084 
Q 2853 3084 3261 2657 
Q 3669 2231 3669 1497 
Q 3669 778 3244 343 
Q 2819 -91 2113 -91 
Q 1303 -91 875 529 
Q 447 1150 447 2328 
Q 447 3434 972 4092 
Q 1497 4750 2381 4750 
Q 2619 4750 2861 4703 
Q 3103 4656 3366 4563 
z
" transform="scale(0.015625)"/>
      <path id="DejaVuSans-39" d="M 703 97 
L 703 672 
Q 941 559 1184 500 
Q 1428 441 1663 441 
Q 2288 441 2617 861 
Q 2947 1281 2994 2138 
Q 2813 1869 2534 1725 
Q 2256 1581 1919 1581 
Q 1219 1581 811 2004 
Q 403 2428 403 3163 
Q 403 3881 828 4315 
Q 1253 4750 1959 4750 
Q 2769 4750 3195 4129 
Q 3622 3509 3622 2328 
Q 3622 1225 3098 567 
Q 2575 -91 1691 -91 
Q 1453 -91 1209 -44 
Q 966 3 703 97 
z
M 1959 2075 
Q 2384 2075 2632 2365 
Q 2881 2656 2881 3163 
Q 2881 3666 2632 3958 
Q 2384 4250 1959 4250 
Q 1534 4250 1286 3958 
Q 1038 3666 1038 3163 
Q 1038 2656 1286 2365 
Q 1534 2075 1959 2075 
z
" transform="scale(0.015625)"/>
      <path id="DejaVuSans-34" d="M 2419 4116 
L 825 1625 
L 2419 1625 
L 2419 4116 
z
M 2253 4666 
L 3047 4666 
L 3047 1625 
L 3713 1625 
L 3713 1100 
L 3047 1100 
L 3047 0 
L 2419 0 
L 2419 1100 
L 313 1100 
L 313 1709 
L 2253 4666 
z
" transform="scale(0.015625)"/>
      <path id="DejaVuSans-37" d="M 525 4666 
L 3525 4666 
L 3525 4397 
L 1831 0 
L 1172 0 
L 2766 4134 
L 525 4134 
L 525 4666 
z
" transform="scale(0.015625)"/>
      <path id="DejaVuSans-2d" d="M 313 2009 
L 1997 2009 
L 1997 1497 
L 313 1497 
L 313 2009 
z
" transform="scale(0.015625)"/>
     </defs>
     <use xlink:href="#DejaVuSans-70"/>
     <use xlink:href="#DejaVuSans-3d" x="63.476562"/>
     <use xlink:href="#DejaVuSans-33" x="147.265625"/>
     <use xlink:href="#DejaVuSans-2e" x="210.888672"/>
     <use xlink:href="#DejaVuSans-33" x="242.675781"/>
     <use xlink:href="#DejaVuSans-36" x="306.298828"/>
     <use xlink:href="#DejaVuSans-39" x="369.921875"/>
     <use xlink:href="#DejaVuSans-30" x="433.544922"/>
     <use xlink:href="#DejaVuSans-31" x="497.167969"/>
     <use xlink:href="#DejaVuSans-34" x="560.791016"/>
     <use xlink:href="#DejaVuSans-33" x="624.414062"/>
     <use xlink:href="#DejaVuSans-36" x="688.037109"/>
     <use xlink:href="#DejaVuSans-31" x="751.660156"/>
     <use xlink:href="#DejaVuSans-33" x="815.283203"/>
     <use xlink:href="#DejaVuSans-37" x="878.90625"/>
     <use xlink:href="#DejaVuSans-36" x="942.529297"/>
     <use xlink:href="#DejaVuSans-32" x="1006.152344"/>
     <use xlink:href="#DejaVuSans-36" x="1069.775391"/>
     <use xlink:href="#DejaVuSans-36" x="1133.398438"/>
     <use xlink:href="#DejaVuSans-37" x="1197.021484"/>
     <use xlink:href="#DejaVuSans-65" x="1260.644531"/>
     <use xlink:href="#DejaVuSans-2d" x="1322.167969"/>
     <use xlink:href="#DejaVuSans-31" x="1358.251953"/>
     <use xlink:href="#DejaVuSans-35" x="1421.875"/>
    </g>
   </g>
   <g id="text_16">
    <!-- 25 -->
    <g style="fill: #262626" transform="translate(127.976042 303.626396)scale(0.1 -0.1)">
     <use xlink:href="#DejaVuSans-32"/>
     <use xlink:href="#DejaVuSans-35" x="63.623047"/>
    </g>
   </g>
   <g id="text_17">
    <!-- p=0.19219814596451062 -->
    <g style="fill: #262626" transform="translate(75.003542 40.044747)scale(0.08 -0.08)">
     <use xlink:href="#DejaVuSans-70"/>
     <use xlink:href="#DejaVuSans-3d" x="63.476562"/>
     <use xlink:href="#DejaVuSans-30" x="147.265625"/>
     <use xlink:href="#DejaVuSans-2e" x="210.888672"/>
     <use xlink:href="#DejaVuSans-31" x="242.675781"/>
     <use xlink:href="#DejaVuSans-39" x="306.298828"/>
     <use xlink:href="#DejaVuSans-32" x="369.921875"/>
     <use xlink:href="#DejaVuSans-31" x="433.544922"/>
     <use xlink:href="#DejaVuSans-39" x="497.167969"/>
     <use xlink:href="#DejaVuSans-38" x="560.791016"/>
     <use xlink:href="#DejaVuSans-31" x="624.414062"/>
     <use xlink:href="#DejaVuSans-34" x="688.037109"/>
     <use xlink:href="#DejaVuSans-35" x="751.660156"/>
     <use xlink:href="#DejaVuSans-39" x="815.283203"/>
     <use xlink:href="#DejaVuSans-36" x="878.90625"/>
     <use xlink:href="#DejaVuSans-34" x="942.529297"/>
     <use xlink:href="#DejaVuSans-35" x="1006.152344"/>
     <use xlink:href="#DejaVuSans-31" x="1069.775391"/>
     <use xlink:href="#DejaVuSans-30" x="1133.398438"/>
     <use xlink:href="#DejaVuSans-36" x="1197.021484"/>
     <use xlink:href="#DejaVuSans-32" x="1260.644531"/>
    </g>
   </g>
   <g id="text_18">
    <!-- 14 -->
    <g style="fill: #262626" transform="translate(160.178438 303.626396)scale(0.1 -0.1)">
     <use xlink:href="#DejaVuSans-31"/>
     <use xlink:href="#DejaVuSans-34" x="63.623047"/>
    </g>
   </g>
   <g id="text_19">
    <!-- 2 -->
    <g style="fill: #262626" transform="translate(224.583229 303.626396)scale(0.1 -0.1)">
     <use xlink:href="#DejaVuSans-32"/>
    </g>
   </g>
   <g id="text_20">
    <!-- p=nan -->
    <g style="fill: #262626" transform="translate(211.170729 286.487075)scale(0.08 -0.08)">
     <use xlink:href="#DejaVuSans-70"/>
     <use xlink:href="#DejaVuSans-3d" x="63.476562"/>
     <use xlink:href="#DejaVuSans-6e" x="147.265625"/>
     <use xlink:href="#DejaVuSans-61" x="210.644531"/>
     <use xlink:href="#DejaVuSans-6e" x="271.923828"/>
    </g>
   </g>
   <g id="text_21">
    <!-- 2 -->
    <g style="fill: #262626" transform="translate(256.785625 303.626396)scale(0.1 -0.1)">
     <use xlink:href="#DejaVuSans-32"/>
    </g>
   </g>
   <g id="text_22">
    <!-- p=nan -->
    <g style="fill: #262626" transform="translate(243.373125 239.814476)scale(0.08 -0.08)">
     <use xlink:href="#DejaVuSans-70"/>
     <use xlink:href="#DejaVuSans-3d" x="63.476562"/>
     <use xlink:href="#DejaVuSans-6e" x="147.265625"/>
     <use xlink:href="#DejaVuSans-61" x="210.644531"/>
     <use xlink:href="#DejaVuSans-6e" x="271.923828"/>
    </g>
   </g>
   <g id="text_23">
    <!-- 1 -->
    <g style="fill: #262626" transform="translate(288.988021 303.626396)scale(0.1 -0.1)">
     <use xlink:href="#DejaVuSans-31"/>
    </g>
   </g>
   <g id="text_24">
    <!-- 2 -->
    <g style="fill: #262626" transform="translate(353.392812 303.626396)scale(0.1 -0.1)">
     <use xlink:href="#DejaVuSans-32"/>
    </g>
   </g>
   <g id="text_25">
    <!-- p=nan -->
    <g style="fill: #262626" transform="translate(339.980312 241.166532)scale(0.08 -0.08)">
     <use xlink:href="#DejaVuSans-70"/>
     <use xlink:href="#DejaVuSans-3d" x="63.476562"/>
     <use xlink:href="#DejaVuSans-6e" x="147.265625"/>
     <use xlink:href="#DejaVuSans-61" x="210.644531"/>
     <use xlink:href="#DejaVuSans-6e" x="271.923828"/>
    </g>
   </g>
   <g id="text_26">
    <!-- 2 -->
    <g style="fill: #262626" transform="translate(385.595208 303.626396)scale(0.1 -0.1)">
     <use xlink:href="#DejaVuSans-32"/>
    </g>
   </g>
   <g id="text_27">
    <!-- p=nan -->
    <g style="fill: #262626" transform="translate(372.182708 202.498014)scale(0.08 -0.08)">
     <use xlink:href="#DejaVuSans-70"/>
     <use xlink:href="#DejaVuSans-3d" x="63.476562"/>
     <use xlink:href="#DejaVuSans-6e" x="147.265625"/>
     <use xlink:href="#DejaVuSans-61" x="210.644531"/>
     <use xlink:href="#DejaVuSans-6e" x="271.923828"/>
    </g>
   </g>
   <g id="text_28">
    <!-- 1 -->
    <g style="fill: #262626" transform="translate(417.797604 303.626396)scale(0.1 -0.1)">
     <use xlink:href="#DejaVuSans-31"/>
    </g>
   </g>
   <g id="legend_1">
    <g id="patch_19">
     <path d="M 387.048438 29.620875 
L 407.048438 29.620875 
L 407.048438 22.620875 
L 387.048438 22.620875 
z
" style="fill: #ecf2ec; stroke: #262626; stroke-width: 0.75; stroke-linejoin: miter"/>
    </g>
    <g id="text_29">
     <!-- clash -->
     <g style="fill: #262626" transform="translate(415.048438 29.620875)scale(0.1 -0.1)">
      <defs>
       <path id="DejaVuSans-63" d="M 3122 3366 
L 3122 2828 
Q 2878 2963 2633 3030 
Q 2388 3097 2138 3097 
Q 1578 3097 1268 2742 
Q 959 2388 959 1747 
Q 959 1106 1268 751 
Q 1578 397 2138 397 
Q 2388 397 2633 464 
Q 2878 531 3122 666 
L 3122 134 
Q 2881 22 2623 -34 
Q 2366 -91 2075 -91 
Q 1284 -91 818 406 
Q 353 903 353 1747 
Q 353 2603 823 3093 
Q 1294 3584 2113 3584 
Q 2378 3584 2631 3529 
Q 2884 3475 3122 3366 
z
" transform="scale(0.015625)"/>
       <path id="DejaVuSans-73" d="M 2834 3397 
L 2834 2853 
Q 2591 2978 2328 3040 
Q 2066 3103 1784 3103 
Q 1356 3103 1142 2972 
Q 928 2841 928 2578 
Q 928 2378 1081 2264 
Q 1234 2150 1697 2047 
L 1894 2003 
Q 2506 1872 2764 1633 
Q 3022 1394 3022 966 
Q 3022 478 2636 193 
Q 2250 -91 1575 -91 
Q 1294 -91 989 -36 
Q 684 19 347 128 
L 347 722 
Q 666 556 975 473 
Q 1284 391 1588 391 
Q 1994 391 2212 530 
Q 2431 669 2431 922 
Q 2431 1156 2273 1281 
Q 2116 1406 1581 1522 
L 1381 1569 
Q 847 1681 609 1914 
Q 372 2147 372 2553 
Q 372 3047 722 3315 
Q 1072 3584 1716 3584 
Q 2034 3584 2315 3537 
Q 2597 3491 2834 3397 
z
" transform="scale(0.015625)"/>
       <path id="DejaVuSans-68" d="M 3513 2113 
L 3513 0 
L 2938 0 
L 2938 2094 
Q 2938 2591 2744 2837 
Q 2550 3084 2163 3084 
Q 1697 3084 1428 2787 
Q 1159 2491 1159 1978 
L 1159 0 
L 581 0 
L 581 4863 
L 1159 4863 
L 1159 2956 
Q 1366 3272 1645 3428 
Q 1925 3584 2291 3584 
Q 2894 3584 3203 3211 
Q 3513 2838 3513 2113 
z
" transform="scale(0.015625)"/>
      </defs>
      <use xlink:href="#DejaVuSans-63"/>
      <use xlink:href="#DejaVuSans-6c" x="54.980469"/>
      <use xlink:href="#DejaVuSans-61" x="82.763672"/>
      <use xlink:href="#DejaVuSans-73" x="144.042969"/>
      <use xlink:href="#DejaVuSans-68" x="196.142578"/>
     </g>
    </g>
    <g id="patch_20">
     <path d="M 387.048438 44.299 
L 407.048438 44.299 
L 407.048438 37.299 
L 387.048438 37.299 
z
" style="fill: #7db17d; stroke: #262626; stroke-width: 0.75; stroke-linejoin: miter"/>
    </g>
    <g id="text_30">
     <!-- void -->
     <g style="fill: #262626" transform="translate(415.048438 44.299)scale(0.1 -0.1)">
      <defs>
       <path id="DejaVuSans-76" d="M 191 3500 
L 800 3500 
L 1894 563 
L 2988 3500 
L 3597 3500 
L 2284 0 
L 1503 0 
L 191 3500 
z
" transform="scale(0.015625)"/>
       <path id="DejaVuSans-69" d="M 603 3500 
L 1178 3500 
L 1178 0 
L 603 0 
L 603 3500 
z
M 603 4863 
L 1178 4863 
L 1178 4134 
L 603 4134 
L 603 4863 
z
" transform="scale(0.015625)"/>
       <path id="DejaVuSans-64" d="M 2906 2969 
L 2906 4863 
L 3481 4863 
L 3481 0 
L 2906 0 
L 2906 525 
Q 2725 213 2448 61 
Q 2172 -91 1784 -91 
Q 1150 -91 751 415 
Q 353 922 353 1747 
Q 353 2572 751 3078 
Q 1150 3584 1784 3584 
Q 2172 3584 2448 3432 
Q 2725 3281 2906 2969 
z
M 947 1747 
Q 947 1113 1208 752 
Q 1469 391 1925 391 
Q 2381 391 2643 752 
Q 2906 1113 2906 1747 
Q 2906 2381 2643 2742 
Q 2381 3103 1925 3103 
Q 1469 3103 1208 2742 
Q 947 2381 947 1747 
z
" transform="scale(0.015625)"/>
      </defs>
      <use xlink:href="#DejaVuSans-76"/>
      <use xlink:href="#DejaVuSans-6f" x="59.179688"/>
      <use xlink:href="#DejaVuSans-69" x="120.361328"/>
      <use xlink:href="#DejaVuSans-64" x="148.144531"/>
     </g>
    </g>
    <g id="patch_21">
     <path d="M 387.048438 58.977125 
L 407.048438 58.977125 
L 407.048438 51.977125 
L 387.048438 51.977125 
z
" style="fill: #107010; stroke: #262626; stroke-width: 0.75; stroke-linejoin: miter"/>
    </g>
    <g id="text_31">
     <!-- WT -->
     <g style="fill: #262626" transform="translate(415.048438 58.977125)scale(0.1 -0.1)">
      <defs>
       <path id="DejaVuSans-57" d="M 213 4666 
L 850 4666 
L 1831 722 
L 2809 4666 
L 3519 4666 
L 4500 722 
L 5478 4666 
L 6119 4666 
L 4947 0 
L 4153 0 
L 3169 4050 
L 2175 0 
L 1381 0 
L 213 4666 
z
" transform="scale(0.015625)"/>
       <path id="DejaVuSans-54" d="M -19 4666 
L 3928 4666 
L 3928 4134 
L 2272 4134 
L 2272 0 
L 1638 0 
L 1638 4134 
L -19 4134 
L -19 4666 
z
" transform="scale(0.015625)"/>
      </defs>
      <use xlink:href="#DejaVuSans-57"/>
      <use xlink:href="#DejaVuSans-54" x="98.876953"/>
     </g>
    </g>
   </g>
  </g>
 </g>
 <defs>
  <clipPath id="p063558a8e1">
   <rect x="63.57125" y="13.022438" width="386.42875" height="290.617562"/>
  </clipPath>
 </defs>
</svg>
