<?xml version="1.0" encoding="utf-8" standalone="no"?>
<!DOCTYPE svg PUBLIC "-//W3C//DTD SVG 1.1//EN"
  "http://www.w3.org/Graphics/SVG/1.1/DTD/svg11.dtd">
<svg xmlns:xlink="http://www.w3.org/1999/xlink" width="460.8pt" height="345.6pt" viewBox="0 0 460.8 345.6" xmlns="http://www.w3.org/2000/svg" version="1.1">
 <metadata>
  <rdf:RDF xmlns:dc="http://purl.org/dc/elements/1.1/" xmlns:cc="http://creativecommons.org/ns#" xmlns:rdf="http://www.w3.org/1999/02/22-rdf-syntax-ns#">
   <cc:Work>
    <dc:type rdf:resource="http://purl.org/dc/dcmitype/StillImage"/>
    <dc:date>2024-02-20T13:16:09.134664</dc:date>
    <dc:format>image/svg+xml</dc:format>
    <dc:creator>
     <cc:Agent>
      <dc:title>Matplotlib v3.7.1, https://matplotlib.org/</dc:title>
     </cc:Agent>
    </dc:creator>
   </cc:Work>
  </rdf:RDF>
 </metadata>
 <defs>
  <style type="text/css">*{stroke-linejoin: round; stroke-linecap: butt}</style>
 </defs>
 <g id="figure_1">
  <g id="patch_1">
   <path d="M 0 345.6 
L 460.8 345.6 
L 460.8 0 
L 0 0 
z
" style="fill: #ffffff"/>
  </g>
  <g id="axes_1">
   <g id="patch_2">
    <path d="M 71.84 303.64 
L 450 303.64 
L 450 16.560318 
L 71.84 16.560318 
z
" style="fill: #ffffff"/>
   </g>
   <g id="matplotlib.axis_1">
    <g id="xtick_1">
     <g id="text_1">
      <!-- G -->
      <g style="fill: #262626" transform="translate(257.045781 318.238437) scale(0.1 -0.1)">
       <defs>
        <path id="DejaVuSans-47" d="M 3809 666 
L 3809 1919 
L 2778 1919 
L 2778 2438 
L 4434 2438 
L 4434 434 
Q 4069 175 3628 42 
Q 3188 -91 2688 -91 
Q 1594 -91 976 548 
Q 359 1188 359 2328 
Q 359 3472 976 4111 
Q 1594 4750 2688 4750 
Q 3144 4750 3555 4637 
Q 3966 4525 4313 4306 
L 4313 3634 
Q 3963 3931 3569 4081 
Q 3175 4231 2741 4231 
Q 1884 4231 1454 3753 
Q 1025 3275 1025 2328 
Q 1025 1384 1454 906 
Q 1884 428 2741 428 
Q 3075 428 3337 486 
Q 3600 544 3809 666 
z
" transform="scale(0.015625)"/>
       </defs>
       <use xlink:href="#DejaVuSans-47"/>
      </g>
     </g>
    </g>
    <g id="text_2">
     <!-- Sample -->
     <g style="fill: #262626" transform="translate(242.171562 331.916562) scale(0.1 -0.1)">
      <defs>
       <path id="DejaVuSans-53" d="M 3425 4513 
L 3425 3897 
Q 3066 4069 2747 4153 
Q 2428 4238 2131 4238 
Q 1616 4238 1336 4038 
Q 1056 3838 1056 3469 
Q 1056 3159 1242 3001 
Q 1428 2844 1947 2747 
L 2328 2669 
Q 3034 2534 3370 2195 
Q 3706 1856 3706 1288 
Q 3706 609 3251 259 
Q 2797 -91 1919 -91 
Q 1588 -91 1214 -16 
Q 841 59 441 206 
L 441 856 
Q 825 641 1194 531 
Q 1563 422 1919 422 
Q 2459 422 2753 634 
Q 3047 847 3047 1241 
Q 3047 1584 2836 1778 
Q 2625 1972 2144 2069 
L 1759 2144 
Q 1053 2284 737 2584 
Q 422 2884 422 3419 
Q 422 4038 858 4394 
Q 1294 4750 2059 4750 
Q 2388 4750 2728 4690 
Q 3069 4631 3425 4513 
z
" transform="scale(0.015625)"/>
       <path id="DejaVuSans-61" d="M 2194 1759 
Q 1497 1759 1228 1600 
Q 959 1441 959 1056 
Q 959 750 1161 570 
Q 1363 391 1709 391 
Q 2188 391 2477 730 
Q 2766 1069 2766 1631 
L 2766 1759 
L 2194 1759 
z
M 3341 1997 
L 3341 0 
L 2766 0 
L 2766 531 
Q 2569 213 2275 61 
Q 1981 -91 1556 -91 
Q 1019 -91 701 211 
Q 384 513 384 1019 
Q 384 1609 779 1909 
Q 1175 2209 1959 2209 
L 2766 2209 
L 2766 2266 
Q 2766 2663 2505 2880 
Q 2244 3097 1772 3097 
Q 1472 3097 1187 3025 
Q 903 2953 641 2809 
L 641 3341 
Q 956 3463 1253 3523 
Q 1550 3584 1831 3584 
Q 2591 3584 2966 3190 
Q 3341 2797 3341 1997 
z
" transform="scale(0.015625)"/>
       <path id="DejaVuSans-6d" d="M 3328 2828 
Q 3544 3216 3844 3400 
Q 4144 3584 4550 3584 
Q 5097 3584 5394 3201 
Q 5691 2819 5691 2113 
L 5691 0 
L 5113 0 
L 5113 2094 
Q 5113 2597 4934 2840 
Q 4756 3084 4391 3084 
Q 3944 3084 3684 2787 
Q 3425 2491 3425 1978 
L 3425 0 
L 2847 0 
L 2847 2094 
Q 2847 2600 2669 2842 
Q 2491 3084 2119 3084 
Q 1678 3084 1418 2786 
Q 1159 2488 1159 1978 
L 1159 0 
L 581 0 
L 581 3500 
L 1159 3500 
L 1159 2956 
Q 1356 3278 1631 3431 
Q 1906 3584 2284 3584 
Q 2666 3584 2933 3390 
Q 3200 3197 3328 2828 
z
" transform="scale(0.015625)"/>
       <path id="DejaVuSans-70" d="M 1159 525 
L 1159 -1331 
L 581 -1331 
L 581 3500 
L 1159 3500 
L 1159 2969 
Q 1341 3281 1617 3432 
Q 1894 3584 2278 3584 
Q 2916 3584 3314 3078 
Q 3713 2572 3713 1747 
Q 3713 922 3314 415 
Q 2916 -91 2278 -91 
Q 1894 -91 1617 61 
Q 1341 213 1159 525 
z
M 3116 1747 
Q 3116 2381 2855 2742 
Q 2594 3103 2138 3103 
Q 1681 3103 1420 2742 
Q 1159 2381 1159 1747 
Q 1159 1113 1420 752 
Q 1681 391 2138 391 
Q 2594 391 2855 752 
Q 3116 1113 3116 1747 
z
" transform="scale(0.015625)"/>
       <path id="DejaVuSans-6c" d="M 603 4863 
L 1178 4863 
L 1178 0 
L 603 0 
L 603 4863 
z
" transform="scale(0.015625)"/>
       <path id="DejaVuSans-65" d="M 3597 1894 
L 3597 1613 
L 953 1613 
Q 991 1019 1311 708 
Q 1631 397 2203 397 
Q 2534 397 2845 478 
Q 3156 559 3463 722 
L 3463 178 
Q 3153 47 2828 -22 
Q 2503 -91 2169 -91 
Q 1331 -91 842 396 
Q 353 884 353 1716 
Q 353 2575 817 3079 
Q 1281 3584 2069 3584 
Q 2775 3584 3186 3129 
Q 3597 2675 3597 1894 
z
M 3022 2063 
Q 3016 2534 2758 2815 
Q 2500 3097 2075 3097 
Q 1594 3097 1305 2825 
Q 1016 2553 972 2059 
L 3022 2063 
z
" transform="scale(0.015625)"/>
      </defs>
      <use xlink:href="#DejaVuSans-53"/>
      <use xlink:href="#DejaVuSans-61" x="63.476562"/>
      <use xlink:href="#DejaVuSans-6d" x="124.755859"/>
      <use xlink:href="#DejaVuSans-70" x="222.167969"/>
      <use xlink:href="#DejaVuSans-6c" x="285.644531"/>
      <use xlink:href="#DejaVuSans-65" x="313.427734"/>
     </g>
    </g>
   </g>
   <g id="matplotlib.axis_2">
    <g id="ytick_1">
     <g id="line2d_1">
      <path d="M 71.84 291.423059 
L 450 291.423059 
" clip-path="url(#pff68d04140)" style="fill: none; stroke: #cccccc; stroke-width: 0.8; stroke-linecap: round"/>
     </g>
     <g id="text_3">
      <!-- −15000 -->
      <g style="fill: #262626" transform="translate(24.647813 295.222277) scale(0.1 -0.1)">
       <defs>
        <path id="DejaVuSans-2212" d="M 678 2272 
L 4684 2272 
L 4684 1741 
L 678 1741 
L 678 2272 
z
" transform="scale(0.015625)"/>
        <path id="DejaVuSans-31" d="M 794 531 
L 1825 531 
L 1825 4091 
L 703 3866 
L 703 4441 
L 1819 4666 
L 2450 4666 
L 2450 531 
L 3481 531 
L 3481 0 
L 794 0 
L 794 531 
z
" transform="scale(0.015625)"/>
        <path id="DejaVuSans-35" d="M 691 4666 
L 3169 4666 
L 3169 4134 
L 1269 4134 
L 1269 2991 
Q 1406 3038 1543 3061 
Q 1681 3084 1819 3084 
Q 2600 3084 3056 2656 
Q 3513 2228 3513 1497 
Q 3513 744 3044 326 
Q 2575 -91 1722 -91 
Q 1428 -91 1123 -41 
Q 819 9 494 109 
L 494 744 
Q 775 591 1075 516 
Q 1375 441 1709 441 
Q 2250 441 2565 725 
Q 2881 1009 2881 1497 
Q 2881 1984 2565 2268 
Q 2250 2553 1709 2553 
Q 1456 2553 1204 2497 
Q 953 2441 691 2322 
L 691 4666 
z
" transform="scale(0.015625)"/>
        <path id="DejaVuSans-30" d="M 2034 4250 
Q 1547 4250 1301 3770 
Q 1056 3291 1056 2328 
Q 1056 1369 1301 889 
Q 1547 409 2034 409 
Q 2525 409 2770 889 
Q 3016 1369 3016 2328 
Q 3016 3291 2770 3770 
Q 2525 4250 2034 4250 
z
M 2034 4750 
Q 2819 4750 3233 4129 
Q 3647 3509 3647 2328 
Q 3647 1150 3233 529 
Q 2819 -91 2034 -91 
Q 1250 -91 836 529 
Q 422 1150 422 2328 
Q 422 3509 836 4129 
Q 1250 4750 2034 4750 
z
" transform="scale(0.015625)"/>
       </defs>
       <use xlink:href="#DejaVuSans-2212"/>
       <use xlink:href="#DejaVuSans-31" x="83.789062"/>
       <use xlink:href="#DejaVuSans-35" x="147.412109"/>
       <use xlink:href="#DejaVuSans-30" x="211.035156"/>
       <use xlink:href="#DejaVuSans-30" x="274.658203"/>
       <use xlink:href="#DejaVuSans-30" x="338.28125"/>
      </g>
     </g>
    </g>
    <g id="ytick_2">
     <g id="line2d_2">
      <path d="M 71.84 257.137544 
L 450 257.137544 
" clip-path="url(#pff68d04140)" style="fill: none; stroke: #cccccc; stroke-width: 0.8; stroke-linecap: round"/>
     </g>
     <g id="text_4">
      <!-- −10000 -->
      <g style="fill: #262626" transform="translate(24.647813 260.936762) scale(0.1 -0.1)">
       <use xlink:href="#DejaVuSans-2212"/>
       <use xlink:href="#DejaVuSans-31" x="83.789062"/>
       <use xlink:href="#DejaVuSans-30" x="147.412109"/>
       <use xlink:href="#DejaVuSans-30" x="211.035156"/>
       <use xlink:href="#DejaVuSans-30" x="274.658203"/>
       <use xlink:href="#DejaVuSans-30" x="338.28125"/>
      </g>
     </g>
    </g>
    <g id="ytick_3">
     <g id="line2d_3">
      <path d="M 71.84 222.852029 
L 450 222.852029 
" clip-path="url(#pff68d04140)" style="fill: none; stroke: #cccccc; stroke-width: 0.8; stroke-linecap: round"/>
     </g>
     <g id="text_5">
      <!-- −5000 -->
      <g style="fill: #262626" transform="translate(31.010313 226.651247) scale(0.1 -0.1)">
       <use xlink:href="#DejaVuSans-2212"/>
       <use xlink:href="#DejaVuSans-35" x="83.789062"/>
       <use xlink:href="#DejaVuSans-30" x="147.412109"/>
       <use xlink:href="#DejaVuSans-30" x="211.035156"/>
       <use xlink:href="#DejaVuSans-30" x="274.658203"/>
      </g>
     </g>
    </g>
    <g id="ytick_4">
     <g id="line2d_4">
      <path d="M 71.84 188.566514 
L 450 188.566514 
" clip-path="url(#pff68d04140)" style="fill: none; stroke: #cccccc; stroke-width: 0.8; stroke-linecap: round"/>
     </g>
     <g id="text_6">
      <!-- 0 -->
      <g style="fill: #262626" transform="translate(58.4775 192.365733) scale(0.1 -0.1)">
       <use xlink:href="#DejaVuSans-30"/>
      </g>
     </g>
    </g>
    <g id="ytick_5">
     <g id="line2d_5">
      <path d="M 71.84 154.280999 
L 450 154.280999 
" clip-path="url(#pff68d04140)" style="fill: none; stroke: #cccccc; stroke-width: 0.8; stroke-linecap: round"/>
     </g>
     <g id="text_7">
      <!-- 5000 -->
      <g style="fill: #262626" transform="translate(39.39 158.080218) scale(0.1 -0.1)">
       <use xlink:href="#DejaVuSans-35"/>
       <use xlink:href="#DejaVuSans-30" x="63.623047"/>
       <use xlink:href="#DejaVuSans-30" x="127.246094"/>
       <use xlink:href="#DejaVuSans-30" x="190.869141"/>
      </g>
     </g>
    </g>
    <g id="ytick_6">
     <g id="line2d_6">
      <path d="M 71.84 119.995484 
L 450 119.995484 
" clip-path="url(#pff68d04140)" style="fill: none; stroke: #cccccc; stroke-width: 0.8; stroke-linecap: round"/>
     </g>
     <g id="text_8">
      <!-- 10000 -->
      <g style="fill: #262626" transform="translate(33.0275 123.794703) scale(0.1 -0.1)">
       <use xlink:href="#DejaVuSans-31"/>
       <use xlink:href="#DejaVuSans-30" x="63.623047"/>
       <use xlink:href="#DejaVuSans-30" x="127.246094"/>
       <use xlink:href="#DejaVuSans-30" x="190.869141"/>
       <use xlink:href="#DejaVuSans-30" x="254.492188"/>
      </g>
     </g>
    </g>
    <g id="ytick_7">
     <g id="line2d_7">
      <path d="M 71.84 85.709969 
L 450 85.709969 
" clip-path="url(#pff68d04140)" style="fill: none; stroke: #cccccc; stroke-width: 0.8; stroke-linecap: round"/>
     </g>
     <g id="text_9">
      <!-- 15000 -->
      <g style="fill: #262626" transform="translate(33.0275 89.509188) scale(0.1 -0.1)">
       <use xlink:href="#DejaVuSans-31"/>
       <use xlink:href="#DejaVuSans-35" x="63.623047"/>
       <use xlink:href="#DejaVuSans-30" x="127.246094"/>
       <use xlink:href="#DejaVuSans-30" x="190.869141"/>
       <use xlink:href="#DejaVuSans-30" x="254.492188"/>
      </g>
     </g>
    </g>
    <g id="ytick_8">
     <g id="line2d_8">
      <path d="M 71.84 51.424454 
L 450 51.424454 
" clip-path="url(#pff68d04140)" style="fill: none; stroke: #cccccc; stroke-width: 0.8; stroke-linecap: round"/>
     </g>
     <g id="text_10">
      <!-- 20000 -->
      <g style="fill: #262626" transform="translate(33.0275 55.223673) scale(0.1 -0.1)">
       <defs>
        <path id="DejaVuSans-32" d="M 1228 531 
L 3431 531 
L 3431 0 
L 469 0 
L 469 531 
Q 828 903 1448 1529 
Q 2069 2156 2228 2338 
Q 2531 2678 2651 2914 
Q 2772 3150 2772 3378 
Q 2772 3750 2511 3984 
Q 2250 4219 1831 4219 
Q 1534 4219 1204 4116 
Q 875 4013 500 3803 
L 500 4441 
Q 881 4594 1212 4672 
Q 1544 4750 1819 4750 
Q 2544 4750 2975 4387 
Q 3406 4025 3406 3419 
Q 3406 3131 3298 2873 
Q 3191 2616 2906 2266 
Q 2828 2175 2409 1742 
Q 1991 1309 1228 531 
z
" transform="scale(0.015625)"/>
       </defs>
       <use xlink:href="#DejaVuSans-32"/>
       <use xlink:href="#DejaVuSans-30" x="63.623047"/>
       <use xlink:href="#DejaVuSans-30" x="127.246094"/>
       <use xlink:href="#DejaVuSans-30" x="190.869141"/>
       <use xlink:href="#DejaVuSans-30" x="254.492188"/>
      </g>
     </g>
    </g>
    <g id="ytick_9">
     <g id="line2d_9">
      <path d="M 71.84 17.138939 
L 450 17.138939 
" clip-path="url(#pff68d04140)" style="fill: none; stroke: #cccccc; stroke-width: 0.8; stroke-linecap: round"/>
     </g>
     <g id="text_11">
      <!-- 25000 -->
      <g style="fill: #262626" transform="translate(33.0275 20.938158) scale(0.1 -0.1)">
       <use xlink:href="#DejaVuSans-32"/>
       <use xlink:href="#DejaVuSans-35" x="63.623047"/>
       <use xlink:href="#DejaVuSans-30" x="127.246094"/>
       <use xlink:href="#DejaVuSans-30" x="190.869141"/>
       <use xlink:href="#DejaVuSans-30" x="254.492188"/>
      </g>
     </g>
    </g>
    <g id="text_12">
     <!-- Delta Fluorescence -->
     <g style="fill: #262626" transform="translate(18.568125 207.966565) rotate(-90) scale(0.1 -0.1)">
      <defs>
       <path id="DejaVuSans-44" d="M 1259 4147 
L 1259 519 
L 2022 519 
Q 2988 519 3436 956 
Q 3884 1394 3884 2338 
Q 3884 3275 3436 3711 
Q 2988 4147 2022 4147 
L 1259 4147 
z
M 628 4666 
L 1925 4666 
Q 3281 4666 3915 4102 
Q 4550 3538 4550 2338 
Q 4550 1131 3912 565 
Q 3275 0 1925 0 
L 628 0 
L 628 4666 
z
" transform="scale(0.015625)"/>
       <path id="DejaVuSans-74" d="M 1172 4494 
L 1172 3500 
L 2356 3500 
L 2356 3053 
L 1172 3053 
L 1172 1153 
Q 1172 725 1289 603 
Q 1406 481 1766 481 
L 2356 481 
L 2356 0 
L 1766 0 
Q 1100 0 847 248 
Q 594 497 594 1153 
L 594 3053 
L 172 3053 
L 172 3500 
L 594 3500 
L 594 4494 
L 1172 4494 
z
" transform="scale(0.015625)"/>
       <path id="DejaVuSans-20" transform="scale(0.015625)"/>
       <path id="DejaVuSans-46" d="M 628 4666 
L 3309 4666 
L 3309 4134 
L 1259 4134 
L 1259 2759 
L 3109 2759 
L 3109 2228 
L 1259 2228 
L 1259 0 
L 628 0 
L 628 4666 
z
" transform="scale(0.015625)"/>
       <path id="DejaVuSans-75" d="M 544 1381 
L 544 3500 
L 1119 3500 
L 1119 1403 
Q 1119 906 1312 657 
Q 1506 409 1894 409 
Q 2359 409 2629 706 
Q 2900 1003 2900 1516 
L 2900 3500 
L 3475 3500 
L 3475 0 
L 2900 0 
L 2900 538 
Q 2691 219 2414 64 
Q 2138 -91 1772 -91 
Q 1169 -91 856 284 
Q 544 659 544 1381 
z
M 1991 3584 
L 1991 3584 
z
" transform="scale(0.015625)"/>
       <path id="DejaVuSans-6f" d="M 1959 3097 
Q 1497 3097 1228 2736 
Q 959 2375 959 1747 
Q 959 1119 1226 758 
Q 1494 397 1959 397 
Q 2419 397 2687 759 
Q 2956 1122 2956 1747 
Q 2956 2369 2687 2733 
Q 2419 3097 1959 3097 
z
M 1959 3584 
Q 2709 3584 3137 3096 
Q 3566 2609 3566 1747 
Q 3566 888 3137 398 
Q 2709 -91 1959 -91 
Q 1206 -91 779 398 
Q 353 888 353 1747 
Q 353 2609 779 3096 
Q 1206 3584 1959 3584 
z
" transform="scale(0.015625)"/>
       <path id="DejaVuSans-72" d="M 2631 2963 
Q 2534 3019 2420 3045 
Q 2306 3072 2169 3072 
Q 1681 3072 1420 2755 
Q 1159 2438 1159 1844 
L 1159 0 
L 581 0 
L 581 3500 
L 1159 3500 
L 1159 2956 
Q 1341 3275 1631 3429 
Q 1922 3584 2338 3584 
Q 2397 3584 2469 3576 
Q 2541 3569 2628 3553 
L 2631 2963 
z
" transform="scale(0.015625)"/>
       <path id="DejaVuSans-73" d="M 2834 3397 
L 2834 2853 
Q 2591 2978 2328 3040 
Q 2066 3103 1784 3103 
Q 1356 3103 1142 2972 
Q 928 2841 928 2578 
Q 928 2378 1081 2264 
Q 1234 2150 1697 2047 
L 1894 2003 
Q 2506 1872 2764 1633 
Q 3022 1394 3022 966 
Q 3022 478 2636 193 
Q 2250 -91 1575 -91 
Q 1294 -91 989 -36 
Q 684 19 347 128 
L 347 722 
Q 666 556 975 473 
Q 1284 391 1588 391 
Q 1994 391 2212 530 
Q 2431 669 2431 922 
Q 2431 1156 2273 1281 
Q 2116 1406 1581 1522 
L 1381 1569 
Q 847 1681 609 1914 
Q 372 2147 372 2553 
Q 372 3047 722 3315 
Q 1072 3584 1716 3584 
Q 2034 3584 2315 3537 
Q 2597 3491 2834 3397 
z
" transform="scale(0.015625)"/>
       <path id="DejaVuSans-63" d="M 3122 3366 
L 3122 2828 
Q 2878 2963 2633 3030 
Q 2388 3097 2138 3097 
Q 1578 3097 1268 2742 
Q 959 2388 959 1747 
Q 959 1106 1268 751 
Q 1578 397 2138 397 
Q 2388 397 2633 464 
Q 2878 531 3122 666 
L 3122 134 
Q 2881 22 2623 -34 
Q 2366 -91 2075 -91 
Q 1284 -91 818 406 
Q 353 903 353 1747 
Q 353 2603 823 3093 
Q 1294 3584 2113 3584 
Q 2378 3584 2631 3529 
Q 2884 3475 3122 3366 
z
" transform="scale(0.015625)"/>
       <path id="DejaVuSans-6e" d="M 3513 2113 
L 3513 0 
L 2938 0 
L 2938 2094 
Q 2938 2591 2744 2837 
Q 2550 3084 2163 3084 
Q 1697 3084 1428 2787 
Q 1159 2491 1159 1978 
L 1159 0 
L 581 0 
L 581 3500 
L 1159 3500 
L 1159 2956 
Q 1366 3272 1645 3428 
Q 1925 3584 2291 3584 
Q 2894 3584 3203 3211 
Q 3513 2838 3513 2113 
z
" transform="scale(0.015625)"/>
      </defs>
      <use xlink:href="#DejaVuSans-44"/>
      <use xlink:href="#DejaVuSans-65" x="77.001953"/>
      <use xlink:href="#DejaVuSans-6c" x="138.525391"/>
      <use xlink:href="#DejaVuSans-74" x="166.308594"/>
      <use xlink:href="#DejaVuSans-61" x="205.517578"/>
      <use xlink:href="#DejaVuSans-20" x="266.796875"/>
      <use xlink:href="#DejaVuSans-46" x="298.583984"/>
      <use xlink:href="#DejaVuSans-6c" x="356.103516"/>
      <use xlink:href="#DejaVuSans-75" x="383.886719"/>
      <use xlink:href="#DejaVuSans-6f" x="447.265625"/>
      <use xlink:href="#DejaVuSans-72" x="508.447266"/>
      <use xlink:href="#DejaVuSans-65" x="547.310547"/>
      <use xlink:href="#DejaVuSans-73" x="608.833984"/>
      <use xlink:href="#DejaVuSans-63" x="660.933594"/>
      <use xlink:href="#DejaVuSans-65" x="715.914062"/>
      <use xlink:href="#DejaVuSans-6e" x="777.4375"/>
      <use xlink:href="#DejaVuSans-63" x="840.816406"/>
      <use xlink:href="#DejaVuSans-65" x="895.796875"/>
     </g>
    </g>
   </g>
   <g id="patch_3">
    <path d="M 111.16864 199.236412 
L 259.40736 199.236412 
L 259.40736 176.311927 
L 111.16864 176.311927 
L 111.16864 199.236412 
z
" clip-path="url(#pff68d04140)" style="fill: #ecf2ec; stroke: #262626; stroke-width: 1.5; stroke-linejoin: miter"/>
   </g>
   <g id="patch_4">
    <path d="M 262.43264 183.625309 
L 410.67136 183.625309 
L 410.67136 98.352712 
L 262.43264 98.352712 
L 262.43264 183.625309 
z
" clip-path="url(#pff68d04140)" style="fill: #107010; stroke: #262626; stroke-width: 1.5; stroke-linejoin: miter"/>
   </g>
   <g id="patch_5">
    <path d="M 260.92 188.566514 
L 260.92 188.566514 
L 260.92 188.566514 
L 260.92 188.566514 
z
" clip-path="url(#pff68d04140)" style="fill: #ecf2ec; stroke: #262626; stroke-width: 0.75; stroke-linejoin: miter"/>
   </g>
   <g id="patch_6">
    <path d="M 260.92 188.566514 
L 260.92 188.566514 
L 260.92 188.566514 
L 260.92 188.566514 
z
" clip-path="url(#pff68d04140)" style="fill: #107010; stroke: #262626; stroke-width: 0.75; stroke-linejoin: miter"/>
   </g>
   <g id="PathCollection_1"/>
   <g id="PathCollection_2"/>
   <g id="line2d_10">
    <path d="M 185.288 199.236412 
L 185.288 212.926387 
" clip-path="url(#pff68d04140)" style="fill: none; stroke: #262626; stroke-width: 1.5; stroke-linecap: round"/>
   </g>
   <g id="line2d_11">
    <path d="M 185.288 176.311927 
L 185.288 143.240294 
" clip-path="url(#pff68d04140)" style="fill: none; stroke: #262626; stroke-width: 1.5; stroke-linecap: round"/>
   </g>
   <g id="line2d_12">
    <path d="M 148.22832 212.926387 
L 222.34768 212.926387 
" clip-path="url(#pff68d04140)" style="fill: none; stroke: #262626; stroke-width: 1.5; stroke-linecap: round"/>
   </g>
   <g id="line2d_13">
    <path d="M 148.22832 143.240294 
L 222.34768 143.240294 
" clip-path="url(#pff68d04140)" style="fill: none; stroke: #262626; stroke-width: 1.5; stroke-linecap: round"/>
   </g>
   <g id="line2d_14">
    <defs>
     <path id="m96ca47e9b7" d="M -0 1.414214 
L 0.848528 0 
L 0 -1.414214 
L -0.848528 -0 
z
" style="stroke: #262626; stroke-linejoin: miter"/>
    </defs>
    <g clip-path="url(#pff68d04140)">
     <use xlink:href="#m96ca47e9b7" x="185.288" y="250.913522" style="fill: #262626; stroke: #262626; stroke-linejoin: miter"/>
     <use xlink:href="#m96ca47e9b7" x="185.288" y="264.930888" style="fill: #262626; stroke: #262626; stroke-linejoin: miter"/>
     <use xlink:href="#m96ca47e9b7" x="185.288" y="303.64" style="fill: #262626; stroke: #262626; stroke-linejoin: miter"/>
     <use xlink:href="#m96ca47e9b7" x="185.288" y="243.124386" style="fill: #262626; stroke: #262626; stroke-linejoin: miter"/>
     <use xlink:href="#m96ca47e9b7" x="185.288" y="271.461685" style="fill: #262626; stroke: #262626; stroke-linejoin: miter"/>
     <use xlink:href="#m96ca47e9b7" x="185.288" y="241.481754" style="fill: #262626; stroke: #262626; stroke-linejoin: miter"/>
     <use xlink:href="#m96ca47e9b7" x="185.288" y="125.742442" style="fill: #262626; stroke: #262626; stroke-linejoin: miter"/>
     <use xlink:href="#m96ca47e9b7" x="185.288" y="133.70973" style="fill: #262626; stroke: #262626; stroke-linejoin: miter"/>
     <use xlink:href="#m96ca47e9b7" x="185.288" y="133.18004" style="fill: #262626; stroke: #262626; stroke-linejoin: miter"/>
     <use xlink:href="#m96ca47e9b7" x="185.288" y="106.448993" style="fill: #262626; stroke: #262626; stroke-linejoin: miter"/>
    </g>
   </g>
   <g id="line2d_15">
    <path d="M 336.552 183.625309 
L 336.552 198.136735 
" clip-path="url(#pff68d04140)" style="fill: none; stroke: #262626; stroke-width: 1.5; stroke-linecap: round"/>
   </g>
   <g id="line2d_16">
    <path d="M 336.552 98.352712 
L 336.552 16.560318 
" clip-path="url(#pff68d04140)" style="fill: none; stroke: #262626; stroke-width: 1.5; stroke-linecap: round"/>
   </g>
   <g id="line2d_17">
    <path d="M 299.49232 198.136735 
L 373.61168 198.136735 
" clip-path="url(#pff68d04140)" style="fill: none; stroke: #262626; stroke-width: 1.5; stroke-linecap: round"/>
   </g>
   <g id="line2d_18">
    <path d="M 299.49232 16.560318 
L 373.61168 16.560318 
" clip-path="url(#pff68d04140)" style="fill: none; stroke: #262626; stroke-width: 1.5; stroke-linecap: round"/>
   </g>
   <g id="line2d_19"/>
   <g id="line2d_20">
    <path d="M 111.16864 186.611827 
L 259.40736 186.611827 
" clip-path="url(#pff68d04140)" style="fill: none; stroke: #262626; stroke-width: 1.5; stroke-linecap: round"/>
   </g>
   <g id="line2d_21">
    <path d="M 262.43264 170.67616 
L 410.67136 170.67616 
" clip-path="url(#pff68d04140)" style="fill: none; stroke: #262626; stroke-width: 1.5; stroke-linecap: round"/>
   </g>
   <g id="patch_7">
    <path d="M 71.84 303.64 
L 71.84 16.560318 
" style="fill: none; stroke: #cccccc; stroke-width: 0.8; stroke-linejoin: miter; stroke-linecap: square"/>
   </g>
   <g id="patch_8">
    <path d="M 450 303.64 
L 450 16.560318 
" style="fill: none; stroke: #cccccc; stroke-width: 0.8; stroke-linejoin: miter; stroke-linecap: square"/>
   </g>
   <g id="patch_9">
    <path d="M 71.84 303.64 
L 450 303.64 
" style="fill: none; stroke: #cccccc; stroke-width: 0.8; stroke-linejoin: miter; stroke-linecap: square"/>
   </g>
   <g id="patch_10">
    <path d="M 71.84 16.560318 
L 450 16.560318 
" style="fill: none; stroke: #cccccc; stroke-width: 0.8; stroke-linejoin: miter; stroke-linecap: square"/>
   </g>
   <g id="PathCollection_3">
    <defs>
     <path id="C0_0_99bd93bc3e" d="M 0 1 
C 0.265203 1 0.51958 0.894634 0.707107 0.707107 
C 0.894634 0.51958 1 0.265203 1 -0 
C 1 -0.265203 0.894634 -0.51958 0.707107 -0.707107 
C 0.51958 -0.894634 0.265203 -1 0 -1 
C -0.265203 -1 -0.51958 -0.894634 -0.707107 -0.707107 
C -0.894634 -0.51958 -1 -0.265203 -1 0 
C -1 0.265203 -0.894634 0.51958 -0.707107 0.707107 
C -0.51958 0.894634 -0.265203 1 0 1 
z
"/>
    </defs>
    <g clip-path="url(#pff68d04140)">
     <use xlink:href="#C0_0_99bd93bc3e" x="192.023871" y="174.027036" style="fill: #262626"/>
    </g>
    <g clip-path="url(#pff68d04140)">
     <use xlink:href="#C0_0_99bd93bc3e" x="173.116819" y="250.913522" style="fill: #262626"/>
    </g>
    <g clip-path="url(#pff68d04140)">
     <use xlink:href="#C0_0_99bd93bc3e" x="183.78183" y="264.930888" style="fill: #262626"/>
    </g>
    <g clip-path="url(#pff68d04140)">
     <use xlink:href="#C0_0_99bd93bc3e" x="191.386755" y="176.50484" style="fill: #262626"/>
    </g>
    <g clip-path="url(#pff68d04140)">
     <use xlink:href="#C0_0_99bd93bc3e" x="184.39749" y="201.326309" style="fill: #262626"/>
    </g>
    <g clip-path="url(#pff68d04140)">
     <use xlink:href="#C0_0_99bd93bc3e" x="182.273989" y="149.324432" style="fill: #262626"/>
    </g>
    <g clip-path="url(#pff68d04140)">
     <use xlink:href="#C0_0_99bd93bc3e" x="174.986306" y="303.64" style="fill: #262626"/>
    </g>
    <g clip-path="url(#pff68d04140)">
     <use xlink:href="#C0_0_99bd93bc3e" x="176.136449" y="210.773172" style="fill: #262626"/>
    </g>
    <g clip-path="url(#pff68d04140)">
     <use xlink:href="#C0_0_99bd93bc3e" x="187.597463" y="188.939554" style="fill: #262626"/>
    </g>
    <g clip-path="url(#pff68d04140)">
     <use xlink:href="#C0_0_99bd93bc3e" x="169.26175" y="166.744674" style="fill: #262626"/>
    </g>
    <g clip-path="url(#pff68d04140)">
     <use xlink:href="#C0_0_99bd93bc3e" x="195.335578" y="193.162887" style="fill: #262626"/>
    </g>
    <g clip-path="url(#pff68d04140)">
     <use xlink:href="#C0_0_99bd93bc3e" x="201.770318" y="197.942677" style="fill: #262626"/>
    </g>
    <g clip-path="url(#pff68d04140)">
     <use xlink:href="#C0_0_99bd93bc3e" x="201.45238" y="193.71528" style="fill: #262626"/>
    </g>
    <g clip-path="url(#pff68d04140)">
     <use xlink:href="#C0_0_99bd93bc3e" x="178.908199" y="204.29191" style="fill: #262626"/>
    </g>
    <g clip-path="url(#pff68d04140)">
     <use xlink:href="#C0_0_99bd93bc3e" x="184.219365" y="171.248543" style="fill: #262626"/>
    </g>
    <g clip-path="url(#pff68d04140)">
     <use xlink:href="#C0_0_99bd93bc3e" x="196.535403" y="243.124386" style="fill: #262626"/>
    </g>
    <g clip-path="url(#pff68d04140)">
     <use xlink:href="#C0_0_99bd93bc3e" x="180.109681" y="201.505942" style="fill: #262626"/>
    </g>
    <g clip-path="url(#pff68d04140)">
     <use xlink:href="#C0_0_99bd93bc3e" x="191.826698" y="271.461685" style="fill: #262626"/>
    </g>
    <g clip-path="url(#pff68d04140)">
     <use xlink:href="#C0_0_99bd93bc3e" x="187.364993" y="194.225703" style="fill: #262626"/>
    </g>
    <g clip-path="url(#pff68d04140)">
     <use xlink:href="#C0_0_99bd93bc3e" x="199.262064" y="171.737226" style="fill: #262626"/>
    </g>
    <g clip-path="url(#pff68d04140)">
     <use xlink:href="#C0_0_99bd93bc3e" x="168.893199" y="209.730334" style="fill: #262626"/>
    </g>
    <g clip-path="url(#pff68d04140)">
     <use xlink:href="#C0_0_99bd93bc3e" x="178.847162" y="241.481754" style="fill: #262626"/>
    </g>
    <g clip-path="url(#pff68d04140)">
     <use xlink:href="#C0_0_99bd93bc3e" x="189.881486" y="190.704449" style="fill: #262626"/>
    </g>
    <g clip-path="url(#pff68d04140)">
     <use xlink:href="#C0_0_99bd93bc3e" x="197.669565" y="197.050666" style="fill: #262626"/>
    </g>
    <g clip-path="url(#pff68d04140)">
     <use xlink:href="#C0_0_99bd93bc3e" x="182.305462" y="194.633653" style="fill: #262626"/>
    </g>
    <g clip-path="url(#pff68d04140)">
     <use xlink:href="#C0_0_99bd93bc3e" x="180.152597" y="176.349561" style="fill: #262626"/>
    </g>
    <g clip-path="url(#pff68d04140)">
     <use xlink:href="#C0_0_99bd93bc3e" x="188.485754" y="181.028922" style="fill: #262626"/>
    </g>
    <g clip-path="url(#pff68d04140)">
     <use xlink:href="#C0_0_99bd93bc3e" x="188.266547" y="179.820711" style="fill: #262626"/>
    </g>
    <g clip-path="url(#pff68d04140)">
     <use xlink:href="#C0_0_99bd93bc3e" x="184.669388" y="187.562358" style="fill: #262626"/>
    </g>
    <g clip-path="url(#pff68d04140)">
     <use xlink:href="#C0_0_99bd93bc3e" x="174.499687" y="197.986867" style="fill: #262626"/>
    </g>
    <g clip-path="url(#pff68d04140)">
     <use xlink:href="#C0_0_99bd93bc3e" x="170.338427" y="179.500644" style="fill: #262626"/>
    </g>
    <g clip-path="url(#pff68d04140)">
     <use xlink:href="#C0_0_99bd93bc3e" x="197.990751" y="204.971856" style="fill: #262626"/>
    </g>
    <g clip-path="url(#pff68d04140)">
     <use xlink:href="#C0_0_99bd93bc3e" x="172.029381" y="200.485956" style="fill: #262626"/>
    </g>
    <g clip-path="url(#pff68d04140)">
     <use xlink:href="#C0_0_99bd93bc3e" x="173.393536" y="125.742442" style="fill: #262626"/>
    </g>
    <g clip-path="url(#pff68d04140)">
     <use xlink:href="#C0_0_99bd93bc3e" x="197.075259" y="133.70973" style="fill: #262626"/>
    </g>
    <g clip-path="url(#pff68d04140)">
     <use xlink:href="#C0_0_99bd93bc3e" x="200.490383" y="195.925456" style="fill: #262626"/>
    </g>
    <g clip-path="url(#pff68d04140)">
     <use xlink:href="#C0_0_99bd93bc3e" x="184.504395" y="189.481317" style="fill: #262626"/>
    </g>
    <g clip-path="url(#pff68d04140)">
     <use xlink:href="#C0_0_99bd93bc3e" x="193.757749" y="191.355965" style="fill: #262626"/>
    </g>
    <g clip-path="url(#pff68d04140)">
     <use xlink:href="#C0_0_99bd93bc3e" x="182.381416" y="145.016349" style="fill: #262626"/>
    </g>
    <g clip-path="url(#pff68d04140)">
     <use xlink:href="#C0_0_99bd93bc3e" x="175.748977" y="203.277875" style="fill: #262626"/>
    </g>
    <g clip-path="url(#pff68d04140)">
     <use xlink:href="#C0_0_99bd93bc3e" x="169.031869" y="207.939573" style="fill: #262626"/>
    </g>
    <g clip-path="url(#pff68d04140)">
     <use xlink:href="#C0_0_99bd93bc3e" x="193.174105" y="133.18004" style="fill: #262626"/>
    </g>
    <g clip-path="url(#pff68d04140)">
     <use xlink:href="#C0_0_99bd93bc3e" x="199.685389" y="183.35574" style="fill: #262626"/>
    </g>
    <g clip-path="url(#pff68d04140)">
     <use xlink:href="#C0_0_99bd93bc3e" x="169.308443" y="172.152104" style="fill: #262626"/>
    </g>
    <g clip-path="url(#pff68d04140)">
     <use xlink:href="#C0_0_99bd93bc3e" x="182.209463" y="185.763393" style="fill: #262626"/>
    </g>
    <g clip-path="url(#pff68d04140)">
     <use xlink:href="#C0_0_99bd93bc3e" x="166.472518" y="106.448993" style="fill: #262626"/>
    </g>
    <g clip-path="url(#pff68d04140)">
     <use xlink:href="#C0_0_99bd93bc3e" x="176.627022" y="185.330625" style="fill: #262626"/>
    </g>
    <g clip-path="url(#pff68d04140)">
     <use xlink:href="#C0_0_99bd93bc3e" x="173.183012" y="185.985986" style="fill: #262626"/>
    </g>
    <g clip-path="url(#pff68d04140)">
     <use xlink:href="#C0_0_99bd93bc3e" x="183.972609" y="212.926387" style="fill: #262626"/>
    </g>
    <g clip-path="url(#pff68d04140)">
     <use xlink:href="#C0_0_99bd93bc3e" x="185.680231" y="194.515234" style="fill: #262626"/>
    </g>
    <g clip-path="url(#pff68d04140)">
     <use xlink:href="#C0_0_99bd93bc3e" x="177.146775" y="204.052417" style="fill: #262626"/>
    </g>
    <g clip-path="url(#pff68d04140)">
     <use xlink:href="#C0_0_99bd93bc3e" x="168.760012" y="180.247366" style="fill: #262626"/>
    </g>
    <g clip-path="url(#pff68d04140)">
     <use xlink:href="#C0_0_99bd93bc3e" x="200.006181" y="166.565623" style="fill: #262626"/>
    </g>
    <g clip-path="url(#pff68d04140)">
     <use xlink:href="#C0_0_99bd93bc3e" x="187.456071" y="143.240294" style="fill: #262626"/>
    </g>
    <g clip-path="url(#pff68d04140)">
     <use xlink:href="#C0_0_99bd93bc3e" x="169.327987" y="168.434687" style="fill: #262626"/>
    </g>
    <g clip-path="url(#pff68d04140)">
     <use xlink:href="#C0_0_99bd93bc3e" x="196.888246" y="181.503631" style="fill: #262626"/>
    </g>
    <g clip-path="url(#pff68d04140)">
     <use xlink:href="#C0_0_99bd93bc3e" x="171.35055" y="194.475671" style="fill: #262626"/>
    </g>
    <g clip-path="url(#pff68d04140)">
     <use xlink:href="#C0_0_99bd93bc3e" x="179.405972" y="184.551728" style="fill: #262626"/>
    </g>
    <g clip-path="url(#pff68d04140)">
     <use xlink:href="#C0_0_99bd93bc3e" x="187.345059" y="205.615178" style="fill: #262626"/>
    </g>
    <g clip-path="url(#pff68d04140)">
     <use xlink:href="#C0_0_99bd93bc3e" x="178.394118" y="193.044255" style="fill: #262626"/>
    </g>
    <g clip-path="url(#pff68d04140)">
     <use xlink:href="#C0_0_99bd93bc3e" x="180.284746" y="170.800273" style="fill: #262626"/>
    </g>
    <g clip-path="url(#pff68d04140)">
     <use xlink:href="#C0_0_99bd93bc3e" x="200.318397" y="171.607861" style="fill: #262626"/>
    </g>
    <g clip-path="url(#pff68d04140)">
     <use xlink:href="#C0_0_99bd93bc3e" x="172.561395" y="164.201884" style="fill: #262626"/>
    </g>
    <g clip-path="url(#pff68d04140)">
     <use xlink:href="#C0_0_99bd93bc3e" x="187.193247" y="176.550531" style="fill: #262626"/>
    </g>
    <g clip-path="url(#pff68d04140)">
     <use xlink:href="#C0_0_99bd93bc3e" x="195.902252" y="186.611827" style="fill: #262626"/>
    </g>
    <g clip-path="url(#pff68d04140)">
     <use xlink:href="#C0_0_99bd93bc3e" x="197.9574" y="176.274292" style="fill: #262626"/>
    </g>
    <g clip-path="url(#pff68d04140)">
     <use xlink:href="#C0_0_99bd93bc3e" x="182.538582" y="180.963276" style="fill: #262626"/>
    </g>
    <g clip-path="url(#pff68d04140)">
     <use xlink:href="#C0_0_99bd93bc3e" x="189.025438" y="157.55906" style="fill: #262626"/>
    </g>
    <g clip-path="url(#pff68d04140)">
     <use xlink:href="#C0_0_99bd93bc3e" x="184.970749" y="185.72273" style="fill: #262626"/>
    </g>
    <g clip-path="url(#pff68d04140)">
     <use xlink:href="#C0_0_99bd93bc3e" x="178.174911" y="186.999512" style="fill: #262626"/>
    </g>
    <g clip-path="url(#pff68d04140)">
     <use xlink:href="#C0_0_99bd93bc3e" x="196.505767" y="189.342871" style="fill: #262626"/>
    </g>
    <g clip-path="url(#pff68d04140)">
     <use xlink:href="#C0_0_99bd93bc3e" x="189.013489" y="182.378816" style="fill: #262626"/>
    </g>
    <g clip-path="url(#pff68d04140)">
     <use xlink:href="#C0_0_99bd93bc3e" x="194.010545" y="180.749086" style="fill: #262626"/>
    </g>
    <g clip-path="url(#pff68d04140)">
     <use xlink:href="#C0_0_99bd93bc3e" x="176.123503" y="197.751688" style="fill: #262626"/>
    </g>
    <g clip-path="url(#pff68d04140)">
     <use xlink:href="#C0_0_99bd93bc3e" x="166.43568" y="178.115728" style="fill: #262626"/>
    </g>
    <g clip-path="url(#pff68d04140)">
     <use xlink:href="#C0_0_99bd93bc3e" x="203.016256" y="208.731674" style="fill: #262626"/>
    </g>
    <g clip-path="url(#pff68d04140)">
     <use xlink:href="#C0_0_99bd93bc3e" x="181.426662" y="202.739466" style="fill: #262626"/>
    </g>
    <g clip-path="url(#pff68d04140)">
     <use xlink:href="#C0_0_99bd93bc3e" x="181.282036" y="159.916107" style="fill: #262626"/>
    </g>
    <g clip-path="url(#pff68d04140)">
     <use xlink:href="#C0_0_99bd93bc3e" x="184.289263" y="177.364466" style="fill: #262626"/>
    </g>
   </g>
   <g id="PathCollection_4">
    <defs>
     <path id="C1_0_dacc5ae5b3" d="M 0 1 
C 0.265203 1 0.51958 0.894634 0.707107 0.707107 
C 0.894634 0.51958 1 0.265203 1 -0 
C 1 -0.265203 0.894634 -0.51958 0.707107 -0.707107 
C 0.51958 -0.894634 0.265203 -1 0 -1 
C -0.265203 -1 -0.51958 -0.894634 -0.707107 -0.707107 
C -0.894634 -0.51958 -1 -0.265203 -1 0 
C -1 0.265203 -0.894634 0.51958 -0.707107 0.707107 
C -0.51958 0.894634 -0.265203 1 0 1 
z
"/>
    </defs>
    <g clip-path="url(#pff68d04140)">
     <use xlink:href="#C1_0_dacc5ae5b3" x="335.813694" y="181.938295"/>
    </g>
    <g clip-path="url(#pff68d04140)">
     <use xlink:href="#C1_0_dacc5ae5b3" x="343.291891" y="150.96706"/>
    </g>
    <g clip-path="url(#pff68d04140)">
     <use xlink:href="#C1_0_dacc5ae5b3" x="340.778301" y="97.544858"/>
    </g>
    <g clip-path="url(#pff68d04140)">
     <use xlink:href="#C1_0_dacc5ae5b3" x="332.40867" y="55.72346"/>
    </g>
    <g clip-path="url(#pff68d04140)">
     <use xlink:href="#C1_0_dacc5ae5b3" x="333.966557" y="188.393949"/>
    </g>
    <g clip-path="url(#pff68d04140)">
     <use xlink:href="#C1_0_dacc5ae5b3" x="328.655274" y="147.636679"/>
    </g>
    <g clip-path="url(#pff68d04140)">
     <use xlink:href="#C1_0_dacc5ae5b3" x="349.128156" y="170.410539"/>
    </g>
    <g clip-path="url(#pff68d04140)">
     <use xlink:href="#C1_0_dacc5ae5b3" x="325.90727" y="186.818475"/>
    </g>
    <g clip-path="url(#pff68d04140)">
     <use xlink:href="#C1_0_dacc5ae5b3" x="355.263199" y="183.798218"/>
    </g>
    <g clip-path="url(#pff68d04140)">
     <use xlink:href="#C1_0_dacc5ae5b3" x="343.082789" y="68.34831"/>
    </g>
    <g clip-path="url(#pff68d04140)">
     <use xlink:href="#C1_0_dacc5ae5b3" x="326.253821" y="176.757367"/>
    </g>
    <g clip-path="url(#pff68d04140)">
     <use xlink:href="#C1_0_dacc5ae5b3" x="340.092096" y="180.174282"/>
    </g>
    <g clip-path="url(#pff68d04140)">
     <use xlink:href="#C1_0_dacc5ae5b3" x="342.649136" y="157.665002"/>
    </g>
    <g clip-path="url(#pff68d04140)">
     <use xlink:href="#C1_0_dacc5ae5b3" x="344.627068" y="183.116874"/>
    </g>
    <g clip-path="url(#pff68d04140)">
     <use xlink:href="#C1_0_dacc5ae5b3" x="319.77909" y="182.410491"/>
    </g>
    <g clip-path="url(#pff68d04140)">
     <use xlink:href="#C1_0_dacc5ae5b3" x="336.535049" y="173.19898"/>
    </g>
    <g clip-path="url(#pff68d04140)">
     <use xlink:href="#C1_0_dacc5ae5b3" x="349.017143" y="188.196675"/>
    </g>
    <g clip-path="url(#pff68d04140)">
     <use xlink:href="#C1_0_dacc5ae5b3" x="346.172158" y="146.538021"/>
    </g>
    <g clip-path="url(#pff68d04140)">
     <use xlink:href="#C1_0_dacc5ae5b3" x="338.535034" y="88.85751"/>
    </g>
    <g clip-path="url(#pff68d04140)">
     <use xlink:href="#C1_0_dacc5ae5b3" x="331.633718" y="187.50537"/>
    </g>
    <g clip-path="url(#pff68d04140)">
     <use xlink:href="#C1_0_dacc5ae5b3" x="321.571388" y="169.701586"/>
    </g>
    <g clip-path="url(#pff68d04140)">
     <use xlink:href="#C1_0_dacc5ae5b3" x="348.110115" y="170.67616"/>
    </g>
    <g clip-path="url(#pff68d04140)">
     <use xlink:href="#C1_0_dacc5ae5b3" x="318.567726" y="89.713332"/>
    </g>
    <g clip-path="url(#pff68d04140)">
     <use xlink:href="#C1_0_dacc5ae5b3" x="319.518137" y="182.598848"/>
    </g>
    <g clip-path="url(#pff68d04140)">
     <use xlink:href="#C1_0_dacc5ae5b3" x="319.841434" y="57.916385"/>
    </g>
    <g clip-path="url(#pff68d04140)">
     <use xlink:href="#C1_0_dacc5ae5b3" x="348.54014" y="152.935076"/>
    </g>
    <g clip-path="url(#pff68d04140)">
     <use xlink:href="#C1_0_dacc5ae5b3" x="324.418954" y="124.335411"/>
    </g>
    <g clip-path="url(#pff68d04140)">
     <use xlink:href="#C1_0_dacc5ae5b3" x="325.06504" y="179.026161"/>
    </g>
    <g clip-path="url(#pff68d04140)">
     <use xlink:href="#C1_0_dacc5ae5b3" x="321.293314" y="22.892755"/>
    </g>
    <g clip-path="url(#pff68d04140)">
     <use xlink:href="#C1_0_dacc5ae5b3" x="348.39352" y="197.417908"/>
    </g>
    <g clip-path="url(#pff68d04140)">
     <use xlink:href="#C1_0_dacc5ae5b3" x="330.660801" y="152.546631"/>
    </g>
    <g clip-path="url(#pff68d04140)">
     <use xlink:href="#C1_0_dacc5ae5b3" x="329.642764" y="192.647744"/>
    </g>
    <g clip-path="url(#pff68d04140)">
     <use xlink:href="#C1_0_dacc5ae5b3" x="333.588106" y="99.160566"/>
    </g>
    <g clip-path="url(#pff68d04140)">
     <use xlink:href="#C1_0_dacc5ae5b3" x="331.105593" y="189.677114"/>
    </g>
    <g clip-path="url(#pff68d04140)">
     <use xlink:href="#C1_0_dacc5ae5b3" x="319.368184" y="176.977617"/>
    </g>
    <g clip-path="url(#pff68d04140)">
     <use xlink:href="#C1_0_dacc5ae5b3" x="340.243859" y="40.762205"/>
    </g>
    <g clip-path="url(#pff68d04140)">
     <use xlink:href="#C1_0_dacc5ae5b3" x="345.164659" y="153.029832"/>
    </g>
    <g clip-path="url(#pff68d04140)">
     <use xlink:href="#C1_0_dacc5ae5b3" x="325.376239" y="73.071132"/>
    </g>
    <g clip-path="url(#pff68d04140)">
     <use xlink:href="#C1_0_dacc5ae5b3" x="325.743095" y="183.4524"/>
    </g>
    <g clip-path="url(#pff68d04140)">
     <use xlink:href="#C1_0_dacc5ae5b3" x="329.644261" y="176.833567"/>
    </g>
    <g clip-path="url(#pff68d04140)">
     <use xlink:href="#C1_0_dacc5ae5b3" x="322.825404" y="158.15551"/>
    </g>
    <g clip-path="url(#pff68d04140)">
     <use xlink:href="#C1_0_dacc5ae5b3" x="327.653761" y="186.834274"/>
    </g>
    <g clip-path="url(#pff68d04140)">
     <use xlink:href="#C1_0_dacc5ae5b3" x="347.619421" y="35.892326"/>
    </g>
    <g clip-path="url(#pff68d04140)">
     <use xlink:href="#C1_0_dacc5ae5b3" x="339.658352" y="176.589554"/>
    </g>
    <g clip-path="url(#pff68d04140)">
     <use xlink:href="#C1_0_dacc5ae5b3" x="344.970432" y="187.684705"/>
    </g>
    <g clip-path="url(#pff68d04140)">
     <use xlink:href="#C1_0_dacc5ae5b3" x="330.017808" y="64.266717"/>
    </g>
    <g clip-path="url(#pff68d04140)">
     <use xlink:href="#C1_0_dacc5ae5b3" x="326.077745" y="180.223874"/>
    </g>
    <g clip-path="url(#pff68d04140)">
     <use xlink:href="#C1_0_dacc5ae5b3" x="341.162917" y="178.267758"/>
    </g>
    <g clip-path="url(#pff68d04140)">
     <use xlink:href="#C1_0_dacc5ae5b3" x="326.474337" y="16.560318"/>
    </g>
    <g clip-path="url(#pff68d04140)">
     <use xlink:href="#C1_0_dacc5ae5b3" x="323.686262" y="67.800685"/>
    </g>
    <g clip-path="url(#pff68d04140)">
     <use xlink:href="#C1_0_dacc5ae5b3" x="317.84194" y="96.721692"/>
    </g>
    <g clip-path="url(#pff68d04140)">
     <use xlink:href="#C1_0_dacc5ae5b3" x="328.231307" y="165.025287"/>
    </g>
    <g clip-path="url(#pff68d04140)">
     <use xlink:href="#C1_0_dacc5ae5b3" x="343.859344" y="187.886765"/>
    </g>
    <g clip-path="url(#pff68d04140)">
     <use xlink:href="#C1_0_dacc5ae5b3" x="333.562202" y="188.703628"/>
    </g>
    <g clip-path="url(#pff68d04140)">
     <use xlink:href="#C1_0_dacc5ae5b3" x="338.374543" y="163.430601"/>
    </g>
    <g clip-path="url(#pff68d04140)">
     <use xlink:href="#C1_0_dacc5ae5b3" x="330.434765" y="175.383649"/>
    </g>
    <g clip-path="url(#pff68d04140)">
     <use xlink:href="#C1_0_dacc5ae5b3" x="347.774463" y="42.692299"/>
    </g>
    <g clip-path="url(#pff68d04140)">
     <use xlink:href="#C1_0_dacc5ae5b3" x="320.051452" y="182.858739"/>
    </g>
    <g clip-path="url(#pff68d04140)">
     <use xlink:href="#C1_0_dacc5ae5b3" x="342.442817" y="184.3788"/>
    </g>
    <g clip-path="url(#pff68d04140)">
     <use xlink:href="#C1_0_dacc5ae5b3" x="328.521911" y="32.621564"/>
    </g>
    <g clip-path="url(#pff68d04140)">
     <use xlink:href="#C1_0_dacc5ae5b3" x="346.347497" y="175.138509"/>
    </g>
    <g clip-path="url(#pff68d04140)">
     <use xlink:href="#C1_0_dacc5ae5b3" x="321.343126" y="166.542527"/>
    </g>
    <g clip-path="url(#pff68d04140)">
     <use xlink:href="#C1_0_dacc5ae5b3" x="336.790524" y="178.592798"/>
    </g>
    <g clip-path="url(#pff68d04140)">
     <use xlink:href="#C1_0_dacc5ae5b3" x="335.844191" y="89.757215"/>
    </g>
    <g clip-path="url(#pff68d04140)">
     <use xlink:href="#C1_0_dacc5ae5b3" x="324.239836" y="185.297321"/>
    </g>
    <g clip-path="url(#pff68d04140)">
     <use xlink:href="#C1_0_dacc5ae5b3" x="354.919509" y="84.168911"/>
    </g>
    <g clip-path="url(#pff68d04140)">
     <use xlink:href="#C1_0_dacc5ae5b3" x="318.846036" y="165.56387"/>
    </g>
    <g clip-path="url(#pff68d04140)">
     <use xlink:href="#C1_0_dacc5ae5b3" x="345.98254" y="66.503285"/>
    </g>
    <g clip-path="url(#pff68d04140)">
     <use xlink:href="#C1_0_dacc5ae5b3" x="326.932582" y="173.90205"/>
    </g>
    <g clip-path="url(#pff68d04140)">
     <use xlink:href="#C1_0_dacc5ae5b3" x="351.033118" y="99.837173"/>
    </g>
    <g clip-path="url(#pff68d04140)">
     <use xlink:href="#C1_0_dacc5ae5b3" x="339.072199" y="162.564872"/>
    </g>
    <g clip-path="url(#pff68d04140)">
     <use xlink:href="#C1_0_dacc5ae5b3" x="333.741759" y="188.615801"/>
    </g>
    <g clip-path="url(#pff68d04140)">
     <use xlink:href="#C1_0_dacc5ae5b3" x="338.727291" y="190.605112"/>
    </g>
    <g clip-path="url(#pff68d04140)">
     <use xlink:href="#C1_0_dacc5ae5b3" x="322.260756" y="53.908518"/>
    </g>
    <g clip-path="url(#pff68d04140)">
     <use xlink:href="#C1_0_dacc5ae5b3" x="336.477148" y="185.612214"/>
    </g>
    <g clip-path="url(#pff68d04140)">
     <use xlink:href="#C1_0_dacc5ae5b3" x="353.226537" y="198.136735"/>
    </g>
    <g clip-path="url(#pff68d04140)">
     <use xlink:href="#C1_0_dacc5ae5b3" x="347.536792" y="190.038447"/>
    </g>
    <g clip-path="url(#pff68d04140)">
     <use xlink:href="#C1_0_dacc5ae5b3" x="353.038369" y="133.368164"/>
    </g>
    <g clip-path="url(#pff68d04140)">
     <use xlink:href="#C1_0_dacc5ae5b3" x="322.87427" y="188.856547"/>
    </g>
   </g>
   <g id="text_13">
    <!-- 79 -->
    <g style="fill: #262626" transform="translate(204.196 188.5552) scale(0.1 -0.1)">
     <defs>
      <path id="DejaVuSans-37" d="M 525 4666 
L 3525 4666 
L 3525 4397 
L 1831 0 
L 1172 0 
L 2766 4134 
L 525 4134 
L 525 4666 
z
" transform="scale(0.015625)"/>
      <path id="DejaVuSans-39" d="M 703 97 
L 703 672 
Q 941 559 1184 500 
Q 1428 441 1663 441 
Q 2288 441 2617 861 
Q 2947 1281 2994 2138 
Q 2813 1869 2534 1725 
Q 2256 1581 1919 1581 
Q 1219 1581 811 2004 
Q 403 2428 403 3163 
Q 403 3881 828 4315 
Q 1253 4750 1959 4750 
Q 2769 4750 3195 4129 
Q 3622 3509 3622 2328 
Q 3622 1225 3098 567 
Q 2575 -91 1691 -91 
Q 1453 -91 1209 -44 
Q 966 3 703 97 
z
M 1959 2075 
Q 2384 2075 2632 2365 
Q 2881 2656 2881 3163 
Q 2881 3666 2632 3958 
Q 2384 4250 1959 4250 
Q 1534 4250 1286 3958 
Q 1038 3666 1038 3163 
Q 1038 2656 1286 2365 
Q 1534 2075 1959 2075 
z
" transform="scale(0.015625)"/>
     </defs>
     <use xlink:href="#DejaVuSans-37"/>
     <use xlink:href="#DejaVuSans-39" x="63.623047"/>
    </g>
   </g>
   <g id="text_14">
    <!-- p=nan -->
    <g style="fill: #262626" transform="translate(190.7835 106.44865) scale(0.08 -0.08)">
     <defs>
      <path id="DejaVuSans-3d" d="M 678 2906 
L 4684 2906 
L 4684 2381 
L 678 2381 
L 678 2906 
z
M 678 1631 
L 4684 1631 
L 4684 1100 
L 678 1100 
L 678 1631 
z
" transform="scale(0.015625)"/>
     </defs>
     <use xlink:href="#DejaVuSans-70"/>
     <use xlink:href="#DejaVuSans-3d" x="63.476562"/>
     <use xlink:href="#DejaVuSans-6e" x="147.265625"/>
     <use xlink:href="#DejaVuSans-61" x="210.644531"/>
     <use xlink:href="#DejaVuSans-6e" x="271.923828"/>
    </g>
   </g>
   <g id="text_15">
    <!-- 79 -->
    <g style="fill: #262626" transform="translate(317.644 188.5552) scale(0.1 -0.1)">
     <use xlink:href="#DejaVuSans-37"/>
     <use xlink:href="#DejaVuSans-39" x="63.623047"/>
    </g>
   </g>
   <g id="text_16">
    <!-- p=nan -->
    <g style="fill: #262626" transform="translate(304.2315 16.559975) scale(0.08 -0.08)">
     <use xlink:href="#DejaVuSans-70"/>
     <use xlink:href="#DejaVuSans-3d" x="63.476562"/>
     <use xlink:href="#DejaVuSans-6e" x="147.265625"/>
     <use xlink:href="#DejaVuSans-61" x="210.644531"/>
     <use xlink:href="#DejaVuSans-6e" x="271.923828"/>
    </g>
   </g>
   <g id="legend_1">
    <g id="patch_11">
     <path d="M 387.048437 33.158755 
L 407.048437 33.158755 
L 407.048437 26.158755 
L 387.048437 26.158755 
z
" style="fill: #ecf2ec; stroke: #262626; stroke-width: 0.75; stroke-linejoin: miter"/>
    </g>
    <g id="text_17">
     <!-- void -->
     <g style="fill: #262626" transform="translate(415.048437 33.158755) scale(0.1 -0.1)">
      <defs>
       <path id="DejaVuSans-76" d="M 191 3500 
L 800 3500 
L 1894 563 
L 2988 3500 
L 3597 3500 
L 2284 0 
L 1503 0 
L 191 3500 
z
" transform="scale(0.015625)"/>
       <path id="DejaVuSans-69" d="M 603 3500 
L 1178 3500 
L 1178 0 
L 603 0 
L 603 3500 
z
M 603 4863 
L 1178 4863 
L 1178 4134 
L 603 4134 
L 603 4863 
z
" transform="scale(0.015625)"/>
       <path id="DejaVuSans-64" d="M 2906 2969 
L 2906 4863 
L 3481 4863 
L 3481 0 
L 2906 0 
L 2906 525 
Q 2725 213 2448 61 
Q 2172 -91 1784 -91 
Q 1150 -91 751 415 
Q 353 922 353 1747 
Q 353 2572 751 3078 
Q 1150 3584 1784 3584 
Q 2172 3584 2448 3432 
Q 2725 3281 2906 2969 
z
M 947 1747 
Q 947 1113 1208 752 
Q 1469 391 1925 391 
Q 2381 391 2643 752 
Q 2906 1113 2906 1747 
Q 2906 2381 2643 2742 
Q 2381 3103 1925 3103 
Q 1469 3103 1208 2742 
Q 947 2381 947 1747 
z
" transform="scale(0.015625)"/>
      </defs>
      <use xlink:href="#DejaVuSans-76"/>
      <use xlink:href="#DejaVuSans-6f" x="59.179688"/>
      <use xlink:href="#DejaVuSans-69" x="120.361328"/>
      <use xlink:href="#DejaVuSans-64" x="148.144531"/>
     </g>
    </g>
    <g id="patch_12">
     <path d="M 387.048437 47.83688 
L 407.048437 47.83688 
L 407.048437 40.83688 
L 387.048437 40.83688 
z
" style="fill: #107010; stroke: #262626; stroke-width: 0.75; stroke-linejoin: miter"/>
    </g>
    <g id="text_18">
     <!-- clash -->
     <g style="fill: #262626" transform="translate(415.048437 47.83688) scale(0.1 -0.1)">
      <defs>
       <path id="DejaVuSans-68" d="M 3513 2113 
L 3513 0 
L 2938 0 
L 2938 2094 
Q 2938 2591 2744 2837 
Q 2550 3084 2163 3084 
Q 1697 3084 1428 2787 
Q 1159 2491 1159 1978 
L 1159 0 
L 581 0 
L 581 4863 
L 1159 4863 
L 1159 2956 
Q 1366 3272 1645 3428 
Q 1925 3584 2291 3584 
Q 2894 3584 3203 3211 
Q 3513 2838 3513 2113 
z
" transform="scale(0.015625)"/>
      </defs>
      <use xlink:href="#DejaVuSans-63"/>
      <use xlink:href="#DejaVuSans-6c" x="54.980469"/>
      <use xlink:href="#DejaVuSans-61" x="82.763672"/>
      <use xlink:href="#DejaVuSans-73" x="144.042969"/>
      <use xlink:href="#DejaVuSans-68" x="196.142578"/>
     </g>
    </g>
   </g>
  </g>
 </g>
 <defs>
  <clipPath id="pff68d04140">
   <rect x="71.84" y="16.560318" width="378.16" height="287.079682"/>
  </clipPath>
 </defs>
</svg>
