<?xml version="1.0" encoding="utf-8" standalone="no"?>
<!DOCTYPE svg PUBLIC "-//W3C//DTD SVG 1.1//EN"
  "http://www.w3.org/Graphics/SVG/1.1/DTD/svg11.dtd">
<svg xmlns:xlink="http://www.w3.org/1999/xlink" width="460.8pt" height="345.6pt" viewBox="0 0 460.8 345.6" xmlns="http://www.w3.org/2000/svg" version="1.1">
 <metadata>
  <rdf:RDF xmlns:dc="http://purl.org/dc/elements/1.1/" xmlns:cc="http://creativecommons.org/ns#" xmlns:rdf="http://www.w3.org/1999/02/22-rdf-syntax-ns#">
   <cc:Work>
    <dc:type rdf:resource="http://purl.org/dc/dcmitype/StillImage"/>
    <dc:date>2024-02-03T13:11:29.930629</dc:date>
    <dc:format>image/svg+xml</dc:format>
    <dc:creator>
     <cc:Agent>
      <dc:title>Matplotlib v3.5.3, https://matplotlib.org/</dc:title>
     </cc:Agent>
    </dc:creator>
   </cc:Work>
  </rdf:RDF>
 </metadata>
 <defs>
  <style type="text/css">*{stroke-linejoin: round; stroke-linecap: butt}</style>
 </defs>
 <g id="figure_1">
  <g id="patch_1">
   <path d="M 0 345.6 
L 460.8 345.6 
L 460.8 0 
L 0 0 
z
" style="fill: #ffffff"/>
  </g>
  <g id="axes_1">
   <g id="patch_2">
    <path d="M 47.82125 303.64 
L 450 303.64 
L 450 46.673817 
L 47.82125 46.673817 
z
" style="fill: #ffffff"/>
   </g>
   <g id="PathCollection_1">
    <defs>
     <path id="md9c25bec99" d="M 0 3 
C 0.795609 3 1.55874 2.683901 2.12132 2.12132 
C 2.683901 1.55874 3 0.795609 3 0 
C 3 -0.795609 2.683901 -1.55874 2.12132 -2.12132 
C 1.55874 -2.683901 0.795609 -3 0 -3 
C -0.795609 -3 -1.55874 -2.683901 -2.12132 -2.12132 
C -2.683901 -1.55874 -3 -0.795609 -3 0 
C -3 0.795609 -2.683901 1.55874 -2.12132 2.12132 
C -1.55874 2.683901 -0.795609 3 0 3 
z
" style="stroke: #1f77b4"/>
    </defs>
    <g clip-path="url(#p51b1a5325d)">
     <use xlink:href="#md9c25bec99" x="108.445026" y="215.554958" style="fill: #1f77b4; stroke: #1f77b4"/>
     <use xlink:href="#md9c25bec99" x="108.696445" y="246.919149" style="fill: #1f77b4; stroke: #1f77b4"/>
     <use xlink:href="#md9c25bec99" x="258.090918" y="203.107052" style="fill: #1f77b4; stroke: #1f77b4"/>
     <use xlink:href="#md9c25bec99" x="116.974796" y="217.458398" style="fill: #1f77b4; stroke: #1f77b4"/>
     <use xlink:href="#md9c25bec99" x="304.763339" y="221.133216" style="fill: #1f77b4; stroke: #1f77b4"/>
     <use xlink:href="#md9c25bec99" x="268.158208" y="207.667891" style="fill: #1f77b4; stroke: #1f77b4"/>
     <use xlink:href="#md9c25bec99" x="264.95394" y="193.030935" style="fill: #1f77b4; stroke: #1f77b4"/>
     <use xlink:href="#md9c25bec99" x="148.148935" y="236.379307" style="fill: #1f77b4; stroke: #1f77b4"/>
     <use xlink:href="#md9c25bec99" x="265.36799" y="249.887224" style="fill: #1f77b4; stroke: #1f77b4"/>
     <use xlink:href="#md9c25bec99" x="289.370547" y="223.467878" style="fill: #1f77b4; stroke: #1f77b4"/>
     <use xlink:href="#md9c25bec99" x="282.146221" y="207.891146" style="fill: #1f77b4; stroke: #1f77b4"/>
     <use xlink:href="#md9c25bec99" x="66.102102" y="253.620568" style="fill: #1f77b4; stroke: #1f77b4"/>
     <use xlink:href="#md9c25bec99" x="316.175631" y="222.367817" style="fill: #1f77b4; stroke: #1f77b4"/>
     <use xlink:href="#md9c25bec99" x="277.548602" y="204.781033" style="fill: #1f77b4; stroke: #1f77b4"/>
     <use xlink:href="#md9c25bec99" x="164.835741" y="278.889353" style="fill: #1f77b4; stroke: #1f77b4"/>
     <use xlink:href="#md9c25bec99" x="269.279042" y="213.849662" style="fill: #1f77b4; stroke: #1f77b4"/>
     <use xlink:href="#md9c25bec99" x="301.920376" y="242.21795" style="fill: #1f77b4; stroke: #1f77b4"/>
     <use xlink:href="#md9c25bec99" x="219.666079" y="217.150172" style="fill: #1f77b4; stroke: #1f77b4"/>
     <use xlink:href="#md9c25bec99" x="172.616529" y="274.241374" style="fill: #1f77b4; stroke: #1f77b4"/>
     <use xlink:href="#md9c25bec99" x="304.982232" y="203.281952" style="fill: #1f77b4; stroke: #1f77b4"/>
     <use xlink:href="#md9c25bec99" x="299.511681" y="186.454691" style="fill: #1f77b4; stroke: #1f77b4"/>
     <use xlink:href="#md9c25bec99" x="282.624443" y="219.222071" style="fill: #1f77b4; stroke: #1f77b4"/>
     <use xlink:href="#md9c25bec99" x="318.966728" y="216.158085" style="fill: #1f77b4; stroke: #1f77b4"/>
     <use xlink:href="#md9c25bec99" x="309.153494" y="211.398006" style="fill: #1f77b4; stroke: #1f77b4"/>
     <use xlink:href="#md9c25bec99" x="293.903993" y="259.258601" style="fill: #1f77b4; stroke: #1f77b4"/>
     <use xlink:href="#md9c25bec99" x="197.892882" y="243.65808" style="fill: #1f77b4; stroke: #1f77b4"/>
     <use xlink:href="#md9c25bec99" x="347.842937" y="225.727898" style="fill: #1f77b4; stroke: #1f77b4"/>
     <use xlink:href="#md9c25bec99" x="276.013718" y="207.762012" style="fill: #1f77b4; stroke: #1f77b4"/>
     <use xlink:href="#md9c25bec99" x="132.652411" y="237.755479" style="fill: #1f77b4; stroke: #1f77b4"/>
     <use xlink:href="#md9c25bec99" x="296.682783" y="229.416509" style="fill: #1f77b4; stroke: #1f77b4"/>
     <use xlink:href="#md9c25bec99" x="220.284076" y="186.58557" style="fill: #1f77b4; stroke: #1f77b4"/>
     <use xlink:href="#md9c25bec99" x="306.321958" y="211.772031" style="fill: #1f77b4; stroke: #1f77b4"/>
     <use xlink:href="#md9c25bec99" x="267.839979" y="210.016181" style="fill: #1f77b4; stroke: #1f77b4"/>
     <use xlink:href="#md9c25bec99" x="307.552678" y="239.114194" style="fill: #1f77b4; stroke: #1f77b4"/>
     <use xlink:href="#md9c25bec99" x="319.326274" y="234.296301" style="fill: #1f77b4; stroke: #1f77b4"/>
     <use xlink:href="#md9c25bec99" x="188.219423" y="224.497366" style="fill: #1f77b4; stroke: #1f77b4"/>
     <use xlink:href="#md9c25bec99" x="221.205358" y="216.912219" style="fill: #1f77b4; stroke: #1f77b4"/>
     <use xlink:href="#md9c25bec99" x="306.871387" y="201.176888" style="fill: #1f77b4; stroke: #1f77b4"/>
     <use xlink:href="#md9c25bec99" x="279.100188" y="209.757496" style="fill: #1f77b4; stroke: #1f77b4"/>
     <use xlink:href="#md9c25bec99" x="220.884492" y="243.768673" style="fill: #1f77b4; stroke: #1f77b4"/>
     <use xlink:href="#md9c25bec99" x="268.422813" y="204.315873" style="fill: #1f77b4; stroke: #1f77b4"/>
     <use xlink:href="#md9c25bec99" x="334.36919" y="279.364301" style="fill: #1f77b4; stroke: #1f77b4"/>
     <use xlink:href="#md9c25bec99" x="308.633075" y="209.024772" style="fill: #1f77b4; stroke: #1f77b4"/>
     <use xlink:href="#md9c25bec99" x="169.266333" y="255.546668" style="fill: #1f77b4; stroke: #1f77b4"/>
     <use xlink:href="#md9c25bec99" x="289.929646" y="242.508404" style="fill: #1f77b4; stroke: #1f77b4"/>
     <use xlink:href="#md9c25bec99" x="344.584166" y="284.396898" style="fill: #1f77b4; stroke: #1f77b4"/>
     <use xlink:href="#md9c25bec99" x="306.583047" y="237.052614" style="fill: #1f77b4; stroke: #1f77b4"/>
     <use xlink:href="#md9c25bec99" x="214.925169" y="222.128477" style="fill: #1f77b4; stroke: #1f77b4"/>
     <use xlink:href="#md9c25bec99" x="308.402754" y="243.611896" style="fill: #1f77b4; stroke: #1f77b4"/>
     <use xlink:href="#md9c25bec99" x="340.819921" y="201.468835" style="fill: #1f77b4; stroke: #1f77b4"/>
     <use xlink:href="#md9c25bec99" x="305.221343" y="234.610202" style="fill: #1f77b4; stroke: #1f77b4"/>
     <use xlink:href="#md9c25bec99" x="351.02347" y="154.01905" style="fill: #1f77b4; stroke: #1f77b4"/>
     <use xlink:href="#md9c25bec99" x="331.3592" y="285.777376" style="fill: #1f77b4; stroke: #1f77b4"/>
     <use xlink:href="#md9c25bec99" x="348.198088" y="213.588465" style="fill: #1f77b4; stroke: #1f77b4"/>
     <use xlink:href="#md9c25bec99" x="315.266656" y="276.68856" style="fill: #1f77b4; stroke: #1f77b4"/>
     <use xlink:href="#md9c25bec99" x="284.885452" y="218.564938" style="fill: #1f77b4; stroke: #1f77b4"/>
     <use xlink:href="#md9c25bec99" x="166.712589" y="225.977912" style="fill: #1f77b4; stroke: #1f77b4"/>
     <use xlink:href="#md9c25bec99" x="310.833427" y="217.358385" style="fill: #1f77b4; stroke: #1f77b4"/>
     <use xlink:href="#md9c25bec99" x="128.823114" y="235.389662" style="fill: #1f77b4; stroke: #1f77b4"/>
     <use xlink:href="#md9c25bec99" x="377.512082" y="225.481696" style="fill: #1f77b4; stroke: #1f77b4"/>
     <use xlink:href="#md9c25bec99" x="325.096593" y="225.715821" style="fill: #1f77b4; stroke: #1f77b4"/>
     <use xlink:href="#md9c25bec99" x="383.384375" y="203.558072" style="fill: #1f77b4; stroke: #1f77b4"/>
     <use xlink:href="#md9c25bec99" x="431.719148" y="288.195199" style="fill: #1f77b4; stroke: #1f77b4"/>
     <use xlink:href="#md9c25bec99" x="258.326513" y="213.742569" style="fill: #1f77b4; stroke: #1f77b4"/>
    </g>
   </g>
   <g id="matplotlib.axis_1">
    <g id="xtick_1">
     <g id="line2d_1">
      <defs>
       <path id="m19a54f66e5" d="M 0 0 
L 0 3.5 
" style="stroke: #000000; stroke-width: 0.8"/>
      </defs>
      <g>
       <use xlink:href="#m19a54f66e5" x="127.030658" y="303.64" style="stroke: #000000; stroke-width: 0.8"/>
      </g>
     </g>
     <g id="text_1">
      <!-- −30 -->
      <g transform="translate(116.478314 318.238437)scale(0.1 -0.1)">
       <defs>
        <path id="DejaVuSans-2212" d="M 678 2272 
L 4684 2272 
L 4684 1741 
L 678 1741 
L 678 2272 
z
" transform="scale(0.015625)"/>
        <path id="DejaVuSans-33" d="M 2597 2516 
Q 3050 2419 3304 2112 
Q 3559 1806 3559 1356 
Q 3559 666 3084 287 
Q 2609 -91 1734 -91 
Q 1441 -91 1130 -33 
Q 819 25 488 141 
L 488 750 
Q 750 597 1062 519 
Q 1375 441 1716 441 
Q 2309 441 2620 675 
Q 2931 909 2931 1356 
Q 2931 1769 2642 2001 
Q 2353 2234 1838 2234 
L 1294 2234 
L 1294 2753 
L 1863 2753 
Q 2328 2753 2575 2939 
Q 2822 3125 2822 3475 
Q 2822 3834 2567 4026 
Q 2313 4219 1838 4219 
Q 1578 4219 1281 4162 
Q 984 4106 628 3988 
L 628 4550 
Q 988 4650 1302 4700 
Q 1616 4750 1894 4750 
Q 2613 4750 3031 4423 
Q 3450 4097 3450 3541 
Q 3450 3153 3228 2886 
Q 3006 2619 2597 2516 
z
" transform="scale(0.015625)"/>
        <path id="DejaVuSans-30" d="M 2034 4250 
Q 1547 4250 1301 3770 
Q 1056 3291 1056 2328 
Q 1056 1369 1301 889 
Q 1547 409 2034 409 
Q 2525 409 2770 889 
Q 3016 1369 3016 2328 
Q 3016 3291 2770 3770 
Q 2525 4250 2034 4250 
z
M 2034 4750 
Q 2819 4750 3233 4129 
Q 3647 3509 3647 2328 
Q 3647 1150 3233 529 
Q 2819 -91 2034 -91 
Q 1250 -91 836 529 
Q 422 1150 422 2328 
Q 422 3509 836 4129 
Q 1250 4750 2034 4750 
z
" transform="scale(0.015625)"/>
       </defs>
       <use xlink:href="#DejaVuSans-2212"/>
       <use xlink:href="#DejaVuSans-33" x="83.789062"/>
       <use xlink:href="#DejaVuSans-30" x="147.412109"/>
      </g>
     </g>
    </g>
    <g id="xtick_2">
     <g id="line2d_2">
      <g>
       <use xlink:href="#m19a54f66e5" x="214.939235" y="303.64" style="stroke: #000000; stroke-width: 0.8"/>
      </g>
     </g>
     <g id="text_2">
      <!-- −20 -->
      <g transform="translate(204.386891 318.238437)scale(0.1 -0.1)">
       <defs>
        <path id="DejaVuSans-32" d="M 1228 531 
L 3431 531 
L 3431 0 
L 469 0 
L 469 531 
Q 828 903 1448 1529 
Q 2069 2156 2228 2338 
Q 2531 2678 2651 2914 
Q 2772 3150 2772 3378 
Q 2772 3750 2511 3984 
Q 2250 4219 1831 4219 
Q 1534 4219 1204 4116 
Q 875 4013 500 3803 
L 500 4441 
Q 881 4594 1212 4672 
Q 1544 4750 1819 4750 
Q 2544 4750 2975 4387 
Q 3406 4025 3406 3419 
Q 3406 3131 3298 2873 
Q 3191 2616 2906 2266 
Q 2828 2175 2409 1742 
Q 1991 1309 1228 531 
z
" transform="scale(0.015625)"/>
       </defs>
       <use xlink:href="#DejaVuSans-2212"/>
       <use xlink:href="#DejaVuSans-32" x="83.789062"/>
       <use xlink:href="#DejaVuSans-30" x="147.412109"/>
      </g>
     </g>
    </g>
    <g id="xtick_3">
     <g id="line2d_3">
      <g>
       <use xlink:href="#m19a54f66e5" x="302.847811" y="303.64" style="stroke: #000000; stroke-width: 0.8"/>
      </g>
     </g>
     <g id="text_3">
      <!-- −10 -->
      <g transform="translate(292.295468 318.238437)scale(0.1 -0.1)">
       <defs>
        <path id="DejaVuSans-31" d="M 794 531 
L 1825 531 
L 1825 4091 
L 703 3866 
L 703 4441 
L 1819 4666 
L 2450 4666 
L 2450 531 
L 3481 531 
L 3481 0 
L 794 0 
L 794 531 
z
" transform="scale(0.015625)"/>
       </defs>
       <use xlink:href="#DejaVuSans-2212"/>
       <use xlink:href="#DejaVuSans-31" x="83.789062"/>
       <use xlink:href="#DejaVuSans-30" x="147.412109"/>
      </g>
     </g>
    </g>
    <g id="xtick_4">
     <g id="line2d_4">
      <g>
       <use xlink:href="#m19a54f66e5" x="390.756388" y="303.64" style="stroke: #000000; stroke-width: 0.8"/>
      </g>
     </g>
     <g id="text_4">
      <!-- 0 -->
      <g transform="translate(387.575138 318.238437)scale(0.1 -0.1)">
       <use xlink:href="#DejaVuSans-30"/>
      </g>
     </g>
    </g>
    <g id="text_5">
     <!-- HBONDDiff -->
     <g transform="translate(221.521562 331.916562)scale(0.1 -0.1)">
      <defs>
       <path id="DejaVuSans-48" d="M 628 4666 
L 1259 4666 
L 1259 2753 
L 3553 2753 
L 3553 4666 
L 4184 4666 
L 4184 0 
L 3553 0 
L 3553 2222 
L 1259 2222 
L 1259 0 
L 628 0 
L 628 4666 
z
" transform="scale(0.015625)"/>
       <path id="DejaVuSans-42" d="M 1259 2228 
L 1259 519 
L 2272 519 
Q 2781 519 3026 730 
Q 3272 941 3272 1375 
Q 3272 1813 3026 2020 
Q 2781 2228 2272 2228 
L 1259 2228 
z
M 1259 4147 
L 1259 2741 
L 2194 2741 
Q 2656 2741 2882 2914 
Q 3109 3088 3109 3444 
Q 3109 3797 2882 3972 
Q 2656 4147 2194 4147 
L 1259 4147 
z
M 628 4666 
L 2241 4666 
Q 2963 4666 3353 4366 
Q 3744 4066 3744 3513 
Q 3744 3084 3544 2831 
Q 3344 2578 2956 2516 
Q 3422 2416 3680 2098 
Q 3938 1781 3938 1306 
Q 3938 681 3513 340 
Q 3088 0 2303 0 
L 628 0 
L 628 4666 
z
" transform="scale(0.015625)"/>
       <path id="DejaVuSans-4f" d="M 2522 4238 
Q 1834 4238 1429 3725 
Q 1025 3213 1025 2328 
Q 1025 1447 1429 934 
Q 1834 422 2522 422 
Q 3209 422 3611 934 
Q 4013 1447 4013 2328 
Q 4013 3213 3611 3725 
Q 3209 4238 2522 4238 
z
M 2522 4750 
Q 3503 4750 4090 4092 
Q 4678 3434 4678 2328 
Q 4678 1225 4090 567 
Q 3503 -91 2522 -91 
Q 1538 -91 948 565 
Q 359 1222 359 2328 
Q 359 3434 948 4092 
Q 1538 4750 2522 4750 
z
" transform="scale(0.015625)"/>
       <path id="DejaVuSans-4e" d="M 628 4666 
L 1478 4666 
L 3547 763 
L 3547 4666 
L 4159 4666 
L 4159 0 
L 3309 0 
L 1241 3903 
L 1241 0 
L 628 0 
L 628 4666 
z
" transform="scale(0.015625)"/>
       <path id="DejaVuSans-44" d="M 1259 4147 
L 1259 519 
L 2022 519 
Q 2988 519 3436 956 
Q 3884 1394 3884 2338 
Q 3884 3275 3436 3711 
Q 2988 4147 2022 4147 
L 1259 4147 
z
M 628 4666 
L 1925 4666 
Q 3281 4666 3915 4102 
Q 4550 3538 4550 2338 
Q 4550 1131 3912 565 
Q 3275 0 1925 0 
L 628 0 
L 628 4666 
z
" transform="scale(0.015625)"/>
       <path id="DejaVuSans-69" d="M 603 3500 
L 1178 3500 
L 1178 0 
L 603 0 
L 603 3500 
z
M 603 4863 
L 1178 4863 
L 1178 4134 
L 603 4134 
L 603 4863 
z
" transform="scale(0.015625)"/>
       <path id="DejaVuSans-66" d="M 2375 4863 
L 2375 4384 
L 1825 4384 
Q 1516 4384 1395 4259 
Q 1275 4134 1275 3809 
L 1275 3500 
L 2222 3500 
L 2222 3053 
L 1275 3053 
L 1275 0 
L 697 0 
L 697 3053 
L 147 3053 
L 147 3500 
L 697 3500 
L 697 3744 
Q 697 4328 969 4595 
Q 1241 4863 1831 4863 
L 2375 4863 
z
" transform="scale(0.015625)"/>
      </defs>
      <use xlink:href="#DejaVuSans-48"/>
      <use xlink:href="#DejaVuSans-42" x="75.195312"/>
      <use xlink:href="#DejaVuSans-4f" x="142.048828"/>
      <use xlink:href="#DejaVuSans-4e" x="220.759766"/>
      <use xlink:href="#DejaVuSans-44" x="295.564453"/>
      <use xlink:href="#DejaVuSans-44" x="372.566406"/>
      <use xlink:href="#DejaVuSans-69" x="449.568359"/>
      <use xlink:href="#DejaVuSans-66" x="477.351562"/>
      <use xlink:href="#DejaVuSans-66" x="512.556641"/>
     </g>
    </g>
   </g>
   <g id="matplotlib.axis_2">
    <g id="ytick_1">
     <g id="line2d_5">
      <defs>
       <path id="mf874f2c05f" d="M 0 0 
L -3.5 0 
" style="stroke: #000000; stroke-width: 0.8"/>
      </defs>
      <g>
       <use xlink:href="#mf874f2c05f" x="47.82125" y="303.64" style="stroke: #000000; stroke-width: 0.8"/>
      </g>
     </g>
     <g id="text_6">
      <!-- 0.0 -->
      <g transform="translate(24.918125 307.439219)scale(0.1 -0.1)">
       <defs>
        <path id="DejaVuSans-2e" d="M 684 794 
L 1344 794 
L 1344 0 
L 684 0 
L 684 794 
z
" transform="scale(0.015625)"/>
       </defs>
       <use xlink:href="#DejaVuSans-30"/>
       <use xlink:href="#DejaVuSans-2e" x="63.623047"/>
       <use xlink:href="#DejaVuSans-30" x="95.410156"/>
      </g>
     </g>
    </g>
    <g id="ytick_2">
     <g id="line2d_6">
      <g>
       <use xlink:href="#mf874f2c05f" x="47.82125" y="260.641734" style="stroke: #000000; stroke-width: 0.8"/>
      </g>
     </g>
     <g id="text_7">
      <!-- 0.5 -->
      <g transform="translate(24.918125 264.440952)scale(0.1 -0.1)">
       <defs>
        <path id="DejaVuSans-35" d="M 691 4666 
L 3169 4666 
L 3169 4134 
L 1269 4134 
L 1269 2991 
Q 1406 3038 1543 3061 
Q 1681 3084 1819 3084 
Q 2600 3084 3056 2656 
Q 3513 2228 3513 1497 
Q 3513 744 3044 326 
Q 2575 -91 1722 -91 
Q 1428 -91 1123 -41 
Q 819 9 494 109 
L 494 744 
Q 775 591 1075 516 
Q 1375 441 1709 441 
Q 2250 441 2565 725 
Q 2881 1009 2881 1497 
Q 2881 1984 2565 2268 
Q 2250 2553 1709 2553 
Q 1456 2553 1204 2497 
Q 953 2441 691 2322 
L 691 4666 
z
" transform="scale(0.015625)"/>
       </defs>
       <use xlink:href="#DejaVuSans-30"/>
       <use xlink:href="#DejaVuSans-2e" x="63.623047"/>
       <use xlink:href="#DejaVuSans-35" x="95.410156"/>
      </g>
     </g>
    </g>
    <g id="ytick_3">
     <g id="line2d_7">
      <g>
       <use xlink:href="#mf874f2c05f" x="47.82125" y="217.643467" style="stroke: #000000; stroke-width: 0.8"/>
      </g>
     </g>
     <g id="text_8">
      <!-- 1.0 -->
      <g transform="translate(24.918125 221.442686)scale(0.1 -0.1)">
       <use xlink:href="#DejaVuSans-31"/>
       <use xlink:href="#DejaVuSans-2e" x="63.623047"/>
       <use xlink:href="#DejaVuSans-30" x="95.410156"/>
      </g>
     </g>
    </g>
    <g id="ytick_4">
     <g id="line2d_8">
      <g>
       <use xlink:href="#mf874f2c05f" x="47.82125" y="174.645201" style="stroke: #000000; stroke-width: 0.8"/>
      </g>
     </g>
     <g id="text_9">
      <!-- 1.5 -->
      <g transform="translate(24.918125 178.44442)scale(0.1 -0.1)">
       <use xlink:href="#DejaVuSans-31"/>
       <use xlink:href="#DejaVuSans-2e" x="63.623047"/>
       <use xlink:href="#DejaVuSans-35" x="95.410156"/>
      </g>
     </g>
    </g>
    <g id="ytick_5">
     <g id="line2d_9">
      <g>
       <use xlink:href="#mf874f2c05f" x="47.82125" y="131.646935" style="stroke: #000000; stroke-width: 0.8"/>
      </g>
     </g>
     <g id="text_10">
      <!-- 2.0 -->
      <g transform="translate(24.918125 135.446154)scale(0.1 -0.1)">
       <use xlink:href="#DejaVuSans-32"/>
       <use xlink:href="#DejaVuSans-2e" x="63.623047"/>
       <use xlink:href="#DejaVuSans-30" x="95.410156"/>
      </g>
     </g>
    </g>
    <g id="ytick_6">
     <g id="line2d_10">
      <g>
       <use xlink:href="#mf874f2c05f" x="47.82125" y="88.648669" style="stroke: #000000; stroke-width: 0.8"/>
      </g>
     </g>
     <g id="text_11">
      <!-- 2.5 -->
      <g transform="translate(24.918125 92.447887)scale(0.1 -0.1)">
       <use xlink:href="#DejaVuSans-32"/>
       <use xlink:href="#DejaVuSans-2e" x="63.623047"/>
       <use xlink:href="#DejaVuSans-35" x="95.410156"/>
      </g>
     </g>
    </g>
    <g id="text_12">
     <!-- PercentGpA_transformed -->
     <g transform="translate(18.560313 237.69519)rotate(-90)scale(0.1 -0.1)">
      <defs>
       <path id="DejaVuSans-50" d="M 1259 4147 
L 1259 2394 
L 2053 2394 
Q 2494 2394 2734 2622 
Q 2975 2850 2975 3272 
Q 2975 3691 2734 3919 
Q 2494 4147 2053 4147 
L 1259 4147 
z
M 628 4666 
L 2053 4666 
Q 2838 4666 3239 4311 
Q 3641 3956 3641 3272 
Q 3641 2581 3239 2228 
Q 2838 1875 2053 1875 
L 1259 1875 
L 1259 0 
L 628 0 
L 628 4666 
z
" transform="scale(0.015625)"/>
       <path id="DejaVuSans-65" d="M 3597 1894 
L 3597 1613 
L 953 1613 
Q 991 1019 1311 708 
Q 1631 397 2203 397 
Q 2534 397 2845 478 
Q 3156 559 3463 722 
L 3463 178 
Q 3153 47 2828 -22 
Q 2503 -91 2169 -91 
Q 1331 -91 842 396 
Q 353 884 353 1716 
Q 353 2575 817 3079 
Q 1281 3584 2069 3584 
Q 2775 3584 3186 3129 
Q 3597 2675 3597 1894 
z
M 3022 2063 
Q 3016 2534 2758 2815 
Q 2500 3097 2075 3097 
Q 1594 3097 1305 2825 
Q 1016 2553 972 2059 
L 3022 2063 
z
" transform="scale(0.015625)"/>
       <path id="DejaVuSans-72" d="M 2631 2963 
Q 2534 3019 2420 3045 
Q 2306 3072 2169 3072 
Q 1681 3072 1420 2755 
Q 1159 2438 1159 1844 
L 1159 0 
L 581 0 
L 581 3500 
L 1159 3500 
L 1159 2956 
Q 1341 3275 1631 3429 
Q 1922 3584 2338 3584 
Q 2397 3584 2469 3576 
Q 2541 3569 2628 3553 
L 2631 2963 
z
" transform="scale(0.015625)"/>
       <path id="DejaVuSans-63" d="M 3122 3366 
L 3122 2828 
Q 2878 2963 2633 3030 
Q 2388 3097 2138 3097 
Q 1578 3097 1268 2742 
Q 959 2388 959 1747 
Q 959 1106 1268 751 
Q 1578 397 2138 397 
Q 2388 397 2633 464 
Q 2878 531 3122 666 
L 3122 134 
Q 2881 22 2623 -34 
Q 2366 -91 2075 -91 
Q 1284 -91 818 406 
Q 353 903 353 1747 
Q 353 2603 823 3093 
Q 1294 3584 2113 3584 
Q 2378 3584 2631 3529 
Q 2884 3475 3122 3366 
z
" transform="scale(0.015625)"/>
       <path id="DejaVuSans-6e" d="M 3513 2113 
L 3513 0 
L 2938 0 
L 2938 2094 
Q 2938 2591 2744 2837 
Q 2550 3084 2163 3084 
Q 1697 3084 1428 2787 
Q 1159 2491 1159 1978 
L 1159 0 
L 581 0 
L 581 3500 
L 1159 3500 
L 1159 2956 
Q 1366 3272 1645 3428 
Q 1925 3584 2291 3584 
Q 2894 3584 3203 3211 
Q 3513 2838 3513 2113 
z
" transform="scale(0.015625)"/>
       <path id="DejaVuSans-74" d="M 1172 4494 
L 1172 3500 
L 2356 3500 
L 2356 3053 
L 1172 3053 
L 1172 1153 
Q 1172 725 1289 603 
Q 1406 481 1766 481 
L 2356 481 
L 2356 0 
L 1766 0 
Q 1100 0 847 248 
Q 594 497 594 1153 
L 594 3053 
L 172 3053 
L 172 3500 
L 594 3500 
L 594 4494 
L 1172 4494 
z
" transform="scale(0.015625)"/>
       <path id="DejaVuSans-47" d="M 3809 666 
L 3809 1919 
L 2778 1919 
L 2778 2438 
L 4434 2438 
L 4434 434 
Q 4069 175 3628 42 
Q 3188 -91 2688 -91 
Q 1594 -91 976 548 
Q 359 1188 359 2328 
Q 359 3472 976 4111 
Q 1594 4750 2688 4750 
Q 3144 4750 3555 4637 
Q 3966 4525 4313 4306 
L 4313 3634 
Q 3963 3931 3569 4081 
Q 3175 4231 2741 4231 
Q 1884 4231 1454 3753 
Q 1025 3275 1025 2328 
Q 1025 1384 1454 906 
Q 1884 428 2741 428 
Q 3075 428 3337 486 
Q 3600 544 3809 666 
z
" transform="scale(0.015625)"/>
       <path id="DejaVuSans-70" d="M 1159 525 
L 1159 -1331 
L 581 -1331 
L 581 3500 
L 1159 3500 
L 1159 2969 
Q 1341 3281 1617 3432 
Q 1894 3584 2278 3584 
Q 2916 3584 3314 3078 
Q 3713 2572 3713 1747 
Q 3713 922 3314 415 
Q 2916 -91 2278 -91 
Q 1894 -91 1617 61 
Q 1341 213 1159 525 
z
M 3116 1747 
Q 3116 2381 2855 2742 
Q 2594 3103 2138 3103 
Q 1681 3103 1420 2742 
Q 1159 2381 1159 1747 
Q 1159 1113 1420 752 
Q 1681 391 2138 391 
Q 2594 391 2855 752 
Q 3116 1113 3116 1747 
z
" transform="scale(0.015625)"/>
       <path id="DejaVuSans-41" d="M 2188 4044 
L 1331 1722 
L 3047 1722 
L 2188 4044 
z
M 1831 4666 
L 2547 4666 
L 4325 0 
L 3669 0 
L 3244 1197 
L 1141 1197 
L 716 0 
L 50 0 
L 1831 4666 
z
" transform="scale(0.015625)"/>
       <path id="DejaVuSans-5f" d="M 3263 -1063 
L 3263 -1509 
L -63 -1509 
L -63 -1063 
L 3263 -1063 
z
" transform="scale(0.015625)"/>
       <path id="DejaVuSans-61" d="M 2194 1759 
Q 1497 1759 1228 1600 
Q 959 1441 959 1056 
Q 959 750 1161 570 
Q 1363 391 1709 391 
Q 2188 391 2477 730 
Q 2766 1069 2766 1631 
L 2766 1759 
L 2194 1759 
z
M 3341 1997 
L 3341 0 
L 2766 0 
L 2766 531 
Q 2569 213 2275 61 
Q 1981 -91 1556 -91 
Q 1019 -91 701 211 
Q 384 513 384 1019 
Q 384 1609 779 1909 
Q 1175 2209 1959 2209 
L 2766 2209 
L 2766 2266 
Q 2766 2663 2505 2880 
Q 2244 3097 1772 3097 
Q 1472 3097 1187 3025 
Q 903 2953 641 2809 
L 641 3341 
Q 956 3463 1253 3523 
Q 1550 3584 1831 3584 
Q 2591 3584 2966 3190 
Q 3341 2797 3341 1997 
z
" transform="scale(0.015625)"/>
       <path id="DejaVuSans-73" d="M 2834 3397 
L 2834 2853 
Q 2591 2978 2328 3040 
Q 2066 3103 1784 3103 
Q 1356 3103 1142 2972 
Q 928 2841 928 2578 
Q 928 2378 1081 2264 
Q 1234 2150 1697 2047 
L 1894 2003 
Q 2506 1872 2764 1633 
Q 3022 1394 3022 966 
Q 3022 478 2636 193 
Q 2250 -91 1575 -91 
Q 1294 -91 989 -36 
Q 684 19 347 128 
L 347 722 
Q 666 556 975 473 
Q 1284 391 1588 391 
Q 1994 391 2212 530 
Q 2431 669 2431 922 
Q 2431 1156 2273 1281 
Q 2116 1406 1581 1522 
L 1381 1569 
Q 847 1681 609 1914 
Q 372 2147 372 2553 
Q 372 3047 722 3315 
Q 1072 3584 1716 3584 
Q 2034 3584 2315 3537 
Q 2597 3491 2834 3397 
z
" transform="scale(0.015625)"/>
       <path id="DejaVuSans-6f" d="M 1959 3097 
Q 1497 3097 1228 2736 
Q 959 2375 959 1747 
Q 959 1119 1226 758 
Q 1494 397 1959 397 
Q 2419 397 2687 759 
Q 2956 1122 2956 1747 
Q 2956 2369 2687 2733 
Q 2419 3097 1959 3097 
z
M 1959 3584 
Q 2709 3584 3137 3096 
Q 3566 2609 3566 1747 
Q 3566 888 3137 398 
Q 2709 -91 1959 -91 
Q 1206 -91 779 398 
Q 353 888 353 1747 
Q 353 2609 779 3096 
Q 1206 3584 1959 3584 
z
" transform="scale(0.015625)"/>
       <path id="DejaVuSans-6d" d="M 3328 2828 
Q 3544 3216 3844 3400 
Q 4144 3584 4550 3584 
Q 5097 3584 5394 3201 
Q 5691 2819 5691 2113 
L 5691 0 
L 5113 0 
L 5113 2094 
Q 5113 2597 4934 2840 
Q 4756 3084 4391 3084 
Q 3944 3084 3684 2787 
Q 3425 2491 3425 1978 
L 3425 0 
L 2847 0 
L 2847 2094 
Q 2847 2600 2669 2842 
Q 2491 3084 2119 3084 
Q 1678 3084 1418 2786 
Q 1159 2488 1159 1978 
L 1159 0 
L 581 0 
L 581 3500 
L 1159 3500 
L 1159 2956 
Q 1356 3278 1631 3431 
Q 1906 3584 2284 3584 
Q 2666 3584 2933 3390 
Q 3200 3197 3328 2828 
z
" transform="scale(0.015625)"/>
       <path id="DejaVuSans-64" d="M 2906 2969 
L 2906 4863 
L 3481 4863 
L 3481 0 
L 2906 0 
L 2906 525 
Q 2725 213 2448 61 
Q 2172 -91 1784 -91 
Q 1150 -91 751 415 
Q 353 922 353 1747 
Q 353 2572 751 3078 
Q 1150 3584 1784 3584 
Q 2172 3584 2448 3432 
Q 2725 3281 2906 2969 
z
M 947 1747 
Q 947 1113 1208 752 
Q 1469 391 1925 391 
Q 2381 391 2643 752 
Q 2906 1113 2906 1747 
Q 2906 2381 2643 2742 
Q 2381 3103 1925 3103 
Q 1469 3103 1208 2742 
Q 947 2381 947 1747 
z
" transform="scale(0.015625)"/>
      </defs>
      <use xlink:href="#DejaVuSans-50"/>
      <use xlink:href="#DejaVuSans-65" x="56.677734"/>
      <use xlink:href="#DejaVuSans-72" x="118.201172"/>
      <use xlink:href="#DejaVuSans-63" x="157.064453"/>
      <use xlink:href="#DejaVuSans-65" x="212.044922"/>
      <use xlink:href="#DejaVuSans-6e" x="273.568359"/>
      <use xlink:href="#DejaVuSans-74" x="336.947266"/>
      <use xlink:href="#DejaVuSans-47" x="376.15625"/>
      <use xlink:href="#DejaVuSans-70" x="453.646484"/>
      <use xlink:href="#DejaVuSans-41" x="517.123047"/>
      <use xlink:href="#DejaVuSans-5f" x="585.53125"/>
      <use xlink:href="#DejaVuSans-74" x="635.53125"/>
      <use xlink:href="#DejaVuSans-72" x="674.740234"/>
      <use xlink:href="#DejaVuSans-61" x="715.853516"/>
      <use xlink:href="#DejaVuSans-6e" x="777.132812"/>
      <use xlink:href="#DejaVuSans-73" x="840.511719"/>
      <use xlink:href="#DejaVuSans-66" x="892.611328"/>
      <use xlink:href="#DejaVuSans-6f" x="927.816406"/>
      <use xlink:href="#DejaVuSans-72" x="988.998047"/>
      <use xlink:href="#DejaVuSans-6d" x="1028.361328"/>
      <use xlink:href="#DejaVuSans-65" x="1125.773438"/>
      <use xlink:href="#DejaVuSans-64" x="1187.296875"/>
     </g>
    </g>
   </g>
   <g id="LineCollection_1">
    <path d="M 108.445026 222.258994 
L 108.445026 208.850923 
" clip-path="url(#p51b1a5325d)" style="fill: none; stroke: #d3d3d3; stroke-width: 3"/>
    <path d="M 108.696445 250.981944 
L 108.696445 242.856355 
" clip-path="url(#p51b1a5325d)" style="fill: none; stroke: #d3d3d3; stroke-width: 3"/>
    <path d="M 258.090918 216.469911 
L 258.090918 189.744194 
" clip-path="url(#p51b1a5325d)" style="fill: none; stroke: #d3d3d3; stroke-width: 3"/>
    <path d="M 116.974796 223.52742 
L 116.974796 211.389376 
" clip-path="url(#p51b1a5325d)" style="fill: none; stroke: #d3d3d3; stroke-width: 3"/>
    <path d="M 304.763339 238.259913 
L 304.763339 204.006519 
" clip-path="url(#p51b1a5325d)" style="fill: none; stroke: #d3d3d3; stroke-width: 3"/>
    <path d="M 268.158208 214.938964 
L 268.158208 200.396817 
" clip-path="url(#p51b1a5325d)" style="fill: none; stroke: #d3d3d3; stroke-width: 3"/>
    <path d="M 264.95394 210.135952 
L 264.95394 175.925917 
" clip-path="url(#p51b1a5325d)" style="fill: none; stroke: #d3d3d3; stroke-width: 3"/>
    <path d="M 148.148935 242.227879 
L 148.148935 230.530734 
" clip-path="url(#p51b1a5325d)" style="fill: none; stroke: #d3d3d3; stroke-width: 3"/>
    <path d="M 265.36799 258.947351 
L 265.36799 240.827097 
" clip-path="url(#p51b1a5325d)" style="fill: none; stroke: #d3d3d3; stroke-width: 3"/>
    <path d="M 289.370547 253.699401 
L 289.370547 193.236354 
" clip-path="url(#p51b1a5325d)" style="fill: none; stroke: #d3d3d3; stroke-width: 3"/>
    <path d="M 282.146221 222.537752 
L 282.146221 193.24454 
" clip-path="url(#p51b1a5325d)" style="fill: none; stroke: #d3d3d3; stroke-width: 3"/>
    <path d="M 66.102102 259.80222 
L 66.102102 247.438916 
" clip-path="url(#p51b1a5325d)" style="fill: none; stroke: #d3d3d3; stroke-width: 3"/>
    <path d="M 316.175631 304.927823 
L 316.175631 139.807811 
" clip-path="url(#p51b1a5325d)" style="fill: none; stroke: #d3d3d3; stroke-width: 3"/>
    <path d="M 277.548602 220.557888 
L 277.548602 189.004178 
" clip-path="url(#p51b1a5325d)" style="fill: none; stroke: #d3d3d3; stroke-width: 3"/>
    <path d="M 164.835741 284.062731 
L 164.835741 273.715976 
" clip-path="url(#p51b1a5325d)" style="fill: none; stroke: #d3d3d3; stroke-width: 3"/>
    <path d="M 269.279042 231.626145 
L 269.279042 196.073179 
" clip-path="url(#p51b1a5325d)" style="fill: none; stroke: #d3d3d3; stroke-width: 3"/>
    <path d="M 301.920376 274.313966 
L 301.920376 210.121933 
" clip-path="url(#p51b1a5325d)" style="fill: none; stroke: #d3d3d3; stroke-width: 3"/>
    <path d="M 219.666079 224.7651 
L 219.666079 209.535244 
" clip-path="url(#p51b1a5325d)" style="fill: none; stroke: #d3d3d3; stroke-width: 3"/>
    <path d="M 172.616529 279.38206 
L 172.616529 269.100689 
" clip-path="url(#p51b1a5325d)" style="fill: none; stroke: #d3d3d3; stroke-width: 3"/>
    <path d="M 304.982232 233.570131 
L 304.982232 172.993773 
" clip-path="url(#p51b1a5325d)" style="fill: none; stroke: #d3d3d3; stroke-width: 3"/>
    <path d="M 299.511681 277.078038 
L 299.511681 95.831343 
" clip-path="url(#p51b1a5325d)" style="fill: none; stroke: #d3d3d3; stroke-width: 3"/>
    <path d="M 282.624443 228.2851 
L 282.624443 210.159043 
" clip-path="url(#p51b1a5325d)" style="fill: none; stroke: #d3d3d3; stroke-width: 3"/>
    <path d="M 318.966728 226.745424 
L 318.966728 205.570746 
" clip-path="url(#p51b1a5325d)" style="fill: none; stroke: #d3d3d3; stroke-width: 3"/>
    <path d="M 309.153494 214.126181 
L 309.153494 208.669831 
" clip-path="url(#p51b1a5325d)" style="fill: none; stroke: #d3d3d3; stroke-width: 3"/>
    <path d="M 293.903993 264.794794 
L 293.903993 253.722408 
" clip-path="url(#p51b1a5325d)" style="fill: none; stroke: #d3d3d3; stroke-width: 3"/>
    <path d="M 197.892882 260.359223 
L 197.892882 226.956936 
" clip-path="url(#p51b1a5325d)" style="fill: none; stroke: #d3d3d3; stroke-width: 3"/>
    <path d="M 347.842937 234.848074 
L 347.842937 216.607722 
" clip-path="url(#p51b1a5325d)" style="fill: none; stroke: #d3d3d3; stroke-width: 3"/>
    <path d="M 276.013718 218.279963 
L 276.013718 197.24406 
" clip-path="url(#p51b1a5325d)" style="fill: none; stroke: #d3d3d3; stroke-width: 3"/>
    <path d="M 132.652411 278.375319 
L 132.652411 197.135639 
" clip-path="url(#p51b1a5325d)" style="fill: none; stroke: #d3d3d3; stroke-width: 3"/>
    <path d="M 296.682783 235.032991 
L 296.682783 223.800027 
" clip-path="url(#p51b1a5325d)" style="fill: none; stroke: #d3d3d3; stroke-width: 3"/>
    <path d="M 220.284076 269.155466 
L 220.284076 104.015673 
" clip-path="url(#p51b1a5325d)" style="fill: none; stroke: #d3d3d3; stroke-width: 3"/>
    <path d="M 306.321958 228.217402 
L 306.321958 195.326661 
" clip-path="url(#p51b1a5325d)" style="fill: none; stroke: #d3d3d3; stroke-width: 3"/>
    <path d="M 267.839979 225.673142 
L 267.839979 194.35922 
" clip-path="url(#p51b1a5325d)" style="fill: none; stroke: #d3d3d3; stroke-width: 3"/>
    <path d="M 307.552678 247.043088 
L 307.552678 231.1853 
" clip-path="url(#p51b1a5325d)" style="fill: none; stroke: #d3d3d3; stroke-width: 3"/>
    <path d="M 319.326274 240.647432 
L 319.326274 227.94517 
" clip-path="url(#p51b1a5325d)" style="fill: none; stroke: #d3d3d3; stroke-width: 3"/>
    <path d="M 188.219423 231.485983 
L 188.219423 217.508749 
" clip-path="url(#p51b1a5325d)" style="fill: none; stroke: #d3d3d3; stroke-width: 3"/>
    <path d="M 221.205358 234.616017 
L 221.205358 199.20842 
" clip-path="url(#p51b1a5325d)" style="fill: none; stroke: #d3d3d3; stroke-width: 3"/>
    <path d="M 306.871387 217.047787 
L 306.871387 185.305988 
" clip-path="url(#p51b1a5325d)" style="fill: none; stroke: #d3d3d3; stroke-width: 3"/>
    <path d="M 279.100188 219.793469 
L 279.100188 199.721523 
" clip-path="url(#p51b1a5325d)" style="fill: none; stroke: #d3d3d3; stroke-width: 3"/>
    <path d="M 220.884492 248.795418 
L 220.884492 238.741929 
" clip-path="url(#p51b1a5325d)" style="fill: none; stroke: #d3d3d3; stroke-width: 3"/>
    <path d="M 268.422813 218.531217 
L 268.422813 190.100529 
" clip-path="url(#p51b1a5325d)" style="fill: none; stroke: #d3d3d3; stroke-width: 3"/>
    <path d="M 334.36919 291.54325 
L 334.36919 267.185352 
" clip-path="url(#p51b1a5325d)" style="fill: none; stroke: #d3d3d3; stroke-width: 3"/>
    <path d="M 308.633075 223.176133 
L 308.633075 194.87341 
" clip-path="url(#p51b1a5325d)" style="fill: none; stroke: #d3d3d3; stroke-width: 3"/>
    <path d="M 169.266333 256.526367 
L 169.266333 254.566968 
" clip-path="url(#p51b1a5325d)" style="fill: none; stroke: #d3d3d3; stroke-width: 3"/>
    <path d="M 289.929646 264.70228 
L 289.929646 220.314528 
" clip-path="url(#p51b1a5325d)" style="fill: none; stroke: #d3d3d3; stroke-width: 3"/>
    <path d="M 344.584166 290.992075 
L 344.584166 277.801721 
" clip-path="url(#p51b1a5325d)" style="fill: none; stroke: #d3d3d3; stroke-width: 3"/>
    <path d="M 306.583047 242.899771 
L 306.583047 231.205457 
" clip-path="url(#p51b1a5325d)" style="fill: none; stroke: #d3d3d3; stroke-width: 3"/>
    <path d="M 214.925169 229.352848 
L 214.925169 214.904106 
" clip-path="url(#p51b1a5325d)" style="fill: none; stroke: #d3d3d3; stroke-width: 3"/>
    <path d="M 308.402754 244.636844 
L 308.402754 242.586947 
" clip-path="url(#p51b1a5325d)" style="fill: none; stroke: #d3d3d3; stroke-width: 3"/>
    <path d="M 340.819921 220.095481 
L 340.819921 182.84219 
" clip-path="url(#p51b1a5325d)" style="fill: none; stroke: #d3d3d3; stroke-width: 3"/>
    <path d="M 305.221343 240.786101 
L 305.221343 228.434302 
" clip-path="url(#p51b1a5325d)" style="fill: none; stroke: #d3d3d3; stroke-width: 3"/>
    <path d="M 351.02347 249.066473 
L 351.02347 58.971627 
" clip-path="url(#p51b1a5325d)" style="fill: none; stroke: #d3d3d3; stroke-width: 3"/>
    <path d="M 331.3592 288.993898 
L 331.3592 282.560855 
" clip-path="url(#p51b1a5325d)" style="fill: none; stroke: #d3d3d3; stroke-width: 3"/>
    <path d="M 348.198088 230.193519 
L 348.198088 196.98341 
" clip-path="url(#p51b1a5325d)" style="fill: none; stroke: #d3d3d3; stroke-width: 3"/>
    <path d="M 315.266656 281.407457 
L 315.266656 271.969663 
" clip-path="url(#p51b1a5325d)" style="fill: none; stroke: #d3d3d3; stroke-width: 3"/>
    <path d="M 284.885452 233.67244 
L 284.885452 203.457437 
" clip-path="url(#p51b1a5325d)" style="fill: none; stroke: #d3d3d3; stroke-width: 3"/>
    <path d="M 166.712589 236.906407 
L 166.712589 215.049417 
" clip-path="url(#p51b1a5325d)" style="fill: none; stroke: #d3d3d3; stroke-width: 3"/>
    <path d="M 310.833427 224.76569 
L 310.833427 209.95108 
" clip-path="url(#p51b1a5325d)" style="fill: none; stroke: #d3d3d3; stroke-width: 3"/>
    <path d="M 128.823114 240.172625 
L 128.823114 230.6067 
" clip-path="url(#p51b1a5325d)" style="fill: none; stroke: #d3d3d3; stroke-width: 3"/>
    <path d="M 377.512082 243.523357 
L 377.512082 207.440035 
" clip-path="url(#p51b1a5325d)" style="fill: none; stroke: #d3d3d3; stroke-width: 3"/>
    <path d="M 325.096593 229.93298 
L 325.096593 221.498662 
" clip-path="url(#p51b1a5325d)" style="fill: none; stroke: #d3d3d3; stroke-width: 3"/>
    <path d="M 383.384375 218.084711 
L 383.384375 189.031432 
" clip-path="url(#p51b1a5325d)" style="fill: none; stroke: #d3d3d3; stroke-width: 3"/>
    <path d="M 431.719148 295.189653 
L 431.719148 281.200744 
" clip-path="url(#p51b1a5325d)" style="fill: none; stroke: #d3d3d3; stroke-width: 3"/>
    <path d="M 258.326513 227.36463 
L 258.326513 200.120509 
" clip-path="url(#p51b1a5325d)" style="fill: none; stroke: #d3d3d3; stroke-width: 3"/>
   </g>
   <g id="line2d_11">
    <path d="M 108.445026 232.458518 
L 108.696445 232.450315 
L 258.090918 227.575983 
L 116.974796 232.180215 
L 304.763339 226.05319 
L 268.158208 227.247515 
L 264.95394 227.352062 
L 148.148935 231.163088 
L 265.36799 227.338552 
L 289.370547 226.555415 
L 282.146221 226.791125 
L 66.102102 233.840051 
L 316.175631 225.680838 
L 277.548602 226.941132 
L 164.835741 230.618644 
L 269.279042 227.210945 
L 301.920376 226.145948 
L 219.666079 228.82968 
L 172.616529 230.364778 
L 304.982232 226.046048 
L 299.511681 226.224537 
L 282.624443 226.775522 
L 318.966728 225.589773 
L 309.153494 225.909951 
L 293.903993 226.407501 
L 197.892882 229.54008 
L 347.842937 224.647621 
L 276.013718 226.991211 
L 132.652411 231.668697 
L 296.682783 226.316836 
L 220.284076 228.809517 
L 306.321958 226.002337 
L 267.839979 227.257898 
L 307.552678 225.962182 
L 319.326274 225.578042 
L 188.219423 229.855698 
L 221.205358 228.779458 
L 306.871387 225.98441 
L 279.100188 226.890508 
L 220.884492 228.789927 
L 268.422813 227.238882 
L 334.36919 225.087232 
L 308.633075 225.926931 
L 169.266333 230.474086 
L 289.929646 226.537173 
L 344.584166 224.753946 
L 306.583047 225.993818 
L 214.925169 228.984363 
L 308.402754 225.934446 
L 340.819921 224.876763 
L 305.221343 226.038247 
L 351.02347 224.543849 
L 331.3592 225.18544 
L 348.198088 224.636033 
L 315.266656 225.710496 
L 284.885452 226.701751 
L 166.712589 230.557407 
L 310.833427 225.85514 
L 128.823114 231.793637 
L 377.512082 223.679598 
L 325.096593 225.389772 
L 383.384375 223.488001 
L 431.719148 221.91097 
L 258.326513 227.568296 
" clip-path="url(#p51b1a5325d)" style="fill: none; stroke: #1f77b4; stroke-width: 1.5; stroke-linecap: square"/>
   </g>
   <g id="line2d_12">
    <defs>
     <path id="mff50d243f0" d="M 0 3 
C 0.795609 3 1.55874 2.683901 2.12132 2.12132 
C 2.683901 1.55874 3 0.795609 3 0 
C 3 -0.795609 2.683901 -1.55874 2.12132 -2.12132 
C 1.55874 -2.683901 0.795609 -3 0 -3 
C -0.795609 -3 -1.55874 -2.683901 -2.12132 -2.12132 
C -2.683901 -1.55874 -3 -0.795609 -3 0 
C -3 0.795609 -2.683901 1.55874 -2.12132 2.12132 
C -1.55874 2.683901 -0.795609 3 0 3 
z
" style="stroke: #000000"/>
    </defs>
    <g clip-path="url(#p51b1a5325d)">
     <use xlink:href="#mff50d243f0" x="108.445026" y="215.554958" style="stroke: #000000"/>
     <use xlink:href="#mff50d243f0" x="108.696445" y="246.919149" style="stroke: #000000"/>
     <use xlink:href="#mff50d243f0" x="258.090918" y="203.107052" style="stroke: #000000"/>
     <use xlink:href="#mff50d243f0" x="116.974796" y="217.458398" style="stroke: #000000"/>
     <use xlink:href="#mff50d243f0" x="304.763339" y="221.133216" style="stroke: #000000"/>
     <use xlink:href="#mff50d243f0" x="268.158208" y="207.667891" style="stroke: #000000"/>
     <use xlink:href="#mff50d243f0" x="264.95394" y="193.030935" style="stroke: #000000"/>
     <use xlink:href="#mff50d243f0" x="148.148935" y="236.379307" style="stroke: #000000"/>
     <use xlink:href="#mff50d243f0" x="265.36799" y="249.887224" style="stroke: #000000"/>
     <use xlink:href="#mff50d243f0" x="289.370547" y="223.467878" style="stroke: #000000"/>
     <use xlink:href="#mff50d243f0" x="282.146221" y="207.891146" style="stroke: #000000"/>
     <use xlink:href="#mff50d243f0" x="66.102102" y="253.620568" style="stroke: #000000"/>
     <use xlink:href="#mff50d243f0" x="316.175631" y="222.367817" style="stroke: #000000"/>
     <use xlink:href="#mff50d243f0" x="277.548602" y="204.781033" style="stroke: #000000"/>
     <use xlink:href="#mff50d243f0" x="164.835741" y="278.889353" style="stroke: #000000"/>
     <use xlink:href="#mff50d243f0" x="269.279042" y="213.849662" style="stroke: #000000"/>
     <use xlink:href="#mff50d243f0" x="301.920376" y="242.21795" style="stroke: #000000"/>
     <use xlink:href="#mff50d243f0" x="219.666079" y="217.150172" style="stroke: #000000"/>
     <use xlink:href="#mff50d243f0" x="172.616529" y="274.241374" style="stroke: #000000"/>
     <use xlink:href="#mff50d243f0" x="304.982232" y="203.281952" style="stroke: #000000"/>
     <use xlink:href="#mff50d243f0" x="299.511681" y="186.454691" style="stroke: #000000"/>
     <use xlink:href="#mff50d243f0" x="282.624443" y="219.222071" style="stroke: #000000"/>
     <use xlink:href="#mff50d243f0" x="318.966728" y="216.158085" style="stroke: #000000"/>
     <use xlink:href="#mff50d243f0" x="309.153494" y="211.398006" style="stroke: #000000"/>
     <use xlink:href="#mff50d243f0" x="293.903993" y="259.258601" style="stroke: #000000"/>
     <use xlink:href="#mff50d243f0" x="197.892882" y="243.65808" style="stroke: #000000"/>
     <use xlink:href="#mff50d243f0" x="347.842937" y="225.727898" style="stroke: #000000"/>
     <use xlink:href="#mff50d243f0" x="276.013718" y="207.762012" style="stroke: #000000"/>
     <use xlink:href="#mff50d243f0" x="132.652411" y="237.755479" style="stroke: #000000"/>
     <use xlink:href="#mff50d243f0" x="296.682783" y="229.416509" style="stroke: #000000"/>
     <use xlink:href="#mff50d243f0" x="220.284076" y="186.58557" style="stroke: #000000"/>
     <use xlink:href="#mff50d243f0" x="306.321958" y="211.772031" style="stroke: #000000"/>
     <use xlink:href="#mff50d243f0" x="267.839979" y="210.016181" style="stroke: #000000"/>
     <use xlink:href="#mff50d243f0" x="307.552678" y="239.114194" style="stroke: #000000"/>
     <use xlink:href="#mff50d243f0" x="319.326274" y="234.296301" style="stroke: #000000"/>
     <use xlink:href="#mff50d243f0" x="188.219423" y="224.497366" style="stroke: #000000"/>
     <use xlink:href="#mff50d243f0" x="221.205358" y="216.912219" style="stroke: #000000"/>
     <use xlink:href="#mff50d243f0" x="306.871387" y="201.176888" style="stroke: #000000"/>
     <use xlink:href="#mff50d243f0" x="279.100188" y="209.757496" style="stroke: #000000"/>
     <use xlink:href="#mff50d243f0" x="220.884492" y="243.768673" style="stroke: #000000"/>
     <use xlink:href="#mff50d243f0" x="268.422813" y="204.315873" style="stroke: #000000"/>
     <use xlink:href="#mff50d243f0" x="334.36919" y="279.364301" style="stroke: #000000"/>
     <use xlink:href="#mff50d243f0" x="308.633075" y="209.024772" style="stroke: #000000"/>
     <use xlink:href="#mff50d243f0" x="169.266333" y="255.546668" style="stroke: #000000"/>
     <use xlink:href="#mff50d243f0" x="289.929646" y="242.508404" style="stroke: #000000"/>
     <use xlink:href="#mff50d243f0" x="344.584166" y="284.396898" style="stroke: #000000"/>
     <use xlink:href="#mff50d243f0" x="306.583047" y="237.052614" style="stroke: #000000"/>
     <use xlink:href="#mff50d243f0" x="214.925169" y="222.128477" style="stroke: #000000"/>
     <use xlink:href="#mff50d243f0" x="308.402754" y="243.611896" style="stroke: #000000"/>
     <use xlink:href="#mff50d243f0" x="340.819921" y="201.468835" style="stroke: #000000"/>
     <use xlink:href="#mff50d243f0" x="305.221343" y="234.610202" style="stroke: #000000"/>
     <use xlink:href="#mff50d243f0" x="351.02347" y="154.01905" style="stroke: #000000"/>
     <use xlink:href="#mff50d243f0" x="331.3592" y="285.777376" style="stroke: #000000"/>
     <use xlink:href="#mff50d243f0" x="348.198088" y="213.588465" style="stroke: #000000"/>
     <use xlink:href="#mff50d243f0" x="315.266656" y="276.68856" style="stroke: #000000"/>
     <use xlink:href="#mff50d243f0" x="284.885452" y="218.564938" style="stroke: #000000"/>
     <use xlink:href="#mff50d243f0" x="166.712589" y="225.977912" style="stroke: #000000"/>
     <use xlink:href="#mff50d243f0" x="310.833427" y="217.358385" style="stroke: #000000"/>
     <use xlink:href="#mff50d243f0" x="128.823114" y="235.389662" style="stroke: #000000"/>
     <use xlink:href="#mff50d243f0" x="377.512082" y="225.481696" style="stroke: #000000"/>
     <use xlink:href="#mff50d243f0" x="325.096593" y="225.715821" style="stroke: #000000"/>
     <use xlink:href="#mff50d243f0" x="383.384375" y="203.558072" style="stroke: #000000"/>
     <use xlink:href="#mff50d243f0" x="431.719148" y="288.195199" style="stroke: #000000"/>
     <use xlink:href="#mff50d243f0" x="258.326513" y="213.742569" style="stroke: #000000"/>
    </g>
   </g>
   <g id="patch_3">
    <path d="M 47.82125 303.64 
L 47.82125 46.673817 
" style="fill: none; stroke: #000000; stroke-width: 0.8; stroke-linejoin: miter; stroke-linecap: square"/>
   </g>
   <g id="patch_4">
    <path d="M 450 303.64 
L 450 46.673817 
" style="fill: none; stroke: #000000; stroke-width: 0.8; stroke-linejoin: miter; stroke-linecap: square"/>
   </g>
   <g id="patch_5">
    <path d="M 47.82125 303.64 
L 450 303.64 
" style="fill: none; stroke: #000000; stroke-width: 0.8; stroke-linejoin: miter; stroke-linecap: square"/>
   </g>
   <g id="patch_6">
    <path d="M 47.82125 46.673817 
L 450 46.673817 
" style="fill: none; stroke: #000000; stroke-width: 0.8; stroke-linejoin: miter; stroke-linecap: square"/>
   </g>
   <g id="text_13">
    <!-- y = 0.00x + 0.93 -->
    <g transform="translate(45.118813 18.597251)scale(0.1 -0.1)">
     <defs>
      <path id="DejaVuSans-79" d="M 2059 -325 
Q 1816 -950 1584 -1140 
Q 1353 -1331 966 -1331 
L 506 -1331 
L 506 -850 
L 844 -850 
Q 1081 -850 1212 -737 
Q 1344 -625 1503 -206 
L 1606 56 
L 191 3500 
L 800 3500 
L 1894 763 
L 2988 3500 
L 3597 3500 
L 2059 -325 
z
" transform="scale(0.015625)"/>
      <path id="DejaVuSans-20" transform="scale(0.015625)"/>
      <path id="DejaVuSans-3d" d="M 678 2906 
L 4684 2906 
L 4684 2381 
L 678 2381 
L 678 2906 
z
M 678 1631 
L 4684 1631 
L 4684 1100 
L 678 1100 
L 678 1631 
z
" transform="scale(0.015625)"/>
      <path id="DejaVuSans-78" d="M 3513 3500 
L 2247 1797 
L 3578 0 
L 2900 0 
L 1881 1375 
L 863 0 
L 184 0 
L 1544 1831 
L 300 3500 
L 978 3500 
L 1906 2253 
L 2834 3500 
L 3513 3500 
z
" transform="scale(0.015625)"/>
      <path id="DejaVuSans-2b" d="M 2944 4013 
L 2944 2272 
L 4684 2272 
L 4684 1741 
L 2944 1741 
L 2944 0 
L 2419 0 
L 2419 1741 
L 678 1741 
L 678 2272 
L 2419 2272 
L 2419 4013 
L 2944 4013 
z
" transform="scale(0.015625)"/>
      <path id="DejaVuSans-39" d="M 703 97 
L 703 672 
Q 941 559 1184 500 
Q 1428 441 1663 441 
Q 2288 441 2617 861 
Q 2947 1281 2994 2138 
Q 2813 1869 2534 1725 
Q 2256 1581 1919 1581 
Q 1219 1581 811 2004 
Q 403 2428 403 3163 
Q 403 3881 828 4315 
Q 1253 4750 1959 4750 
Q 2769 4750 3195 4129 
Q 3622 3509 3622 2328 
Q 3622 1225 3098 567 
Q 2575 -91 1691 -91 
Q 1453 -91 1209 -44 
Q 966 3 703 97 
z
M 1959 2075 
Q 2384 2075 2632 2365 
Q 2881 2656 2881 3163 
Q 2881 3666 2632 3958 
Q 2384 4250 1959 4250 
Q 1534 4250 1286 3958 
Q 1038 3666 1038 3163 
Q 1038 2656 1286 2365 
Q 1534 2075 1959 2075 
z
" transform="scale(0.015625)"/>
     </defs>
     <use xlink:href="#DejaVuSans-79"/>
     <use xlink:href="#DejaVuSans-20" x="59.179688"/>
     <use xlink:href="#DejaVuSans-3d" x="90.966797"/>
     <use xlink:href="#DejaVuSans-20" x="174.755859"/>
     <use xlink:href="#DejaVuSans-30" x="206.542969"/>
     <use xlink:href="#DejaVuSans-2e" x="270.166016"/>
     <use xlink:href="#DejaVuSans-30" x="301.953125"/>
     <use xlink:href="#DejaVuSans-30" x="365.576172"/>
     <use xlink:href="#DejaVuSans-78" x="429.199219"/>
     <use xlink:href="#DejaVuSans-20" x="488.378906"/>
     <use xlink:href="#DejaVuSans-2b" x="520.166016"/>
     <use xlink:href="#DejaVuSans-20" x="603.955078"/>
     <use xlink:href="#DejaVuSans-30" x="635.742188"/>
     <use xlink:href="#DejaVuSans-2e" x="699.365234"/>
     <use xlink:href="#DejaVuSans-39" x="731.152344"/>
     <use xlink:href="#DejaVuSans-33" x="794.775391"/>
    </g>
   </g>
   <g id="text_14">
    <!-- r^2 = 0.01 -->
    <g transform="translate(60.111781 26.306236)scale(0.1 -0.1)">
     <defs>
      <path id="DejaVuSans-5e" d="M 2988 4666 
L 4684 2925 
L 4056 2925 
L 2681 4159 
L 1306 2925 
L 678 2925 
L 2375 4666 
L 2988 4666 
z
" transform="scale(0.015625)"/>
     </defs>
     <use xlink:href="#DejaVuSans-72"/>
     <use xlink:href="#DejaVuSans-5e" x="41.113281"/>
     <use xlink:href="#DejaVuSans-32" x="124.902344"/>
     <use xlink:href="#DejaVuSans-20" x="188.525391"/>
     <use xlink:href="#DejaVuSans-3d" x="220.3125"/>
     <use xlink:href="#DejaVuSans-20" x="304.101562"/>
     <use xlink:href="#DejaVuSans-30" x="335.888672"/>
     <use xlink:href="#DejaVuSans-2e" x="399.511719"/>
     <use xlink:href="#DejaVuSans-30" x="431.298828"/>
     <use xlink:href="#DejaVuSans-31" x="494.921875"/>
    </g>
   </g>
   <g id="text_15">
    <!-- n = 64 -->
    <g transform="translate(71.139906 34.015221)scale(0.1 -0.1)">
     <defs>
      <path id="DejaVuSans-36" d="M 2113 2584 
Q 1688 2584 1439 2293 
Q 1191 2003 1191 1497 
Q 1191 994 1439 701 
Q 1688 409 2113 409 
Q 2538 409 2786 701 
Q 3034 994 3034 1497 
Q 3034 2003 2786 2293 
Q 2538 2584 2113 2584 
z
M 3366 4563 
L 3366 3988 
Q 3128 4100 2886 4159 
Q 2644 4219 2406 4219 
Q 1781 4219 1451 3797 
Q 1122 3375 1075 2522 
Q 1259 2794 1537 2939 
Q 1816 3084 2150 3084 
Q 2853 3084 3261 2657 
Q 3669 2231 3669 1497 
Q 3669 778 3244 343 
Q 2819 -91 2113 -91 
Q 1303 -91 875 529 
Q 447 1150 447 2328 
Q 447 3434 972 4092 
Q 1497 4750 2381 4750 
Q 2619 4750 2861 4703 
Q 3103 4656 3366 4563 
z
" transform="scale(0.015625)"/>
      <path id="DejaVuSans-34" d="M 2419 4116 
L 825 1625 
L 2419 1625 
L 2419 4116 
z
M 2253 4666 
L 3047 4666 
L 3047 1625 
L 3713 1625 
L 3713 1100 
L 3047 1100 
L 3047 0 
L 2419 0 
L 2419 1100 
L 313 1100 
L 313 1709 
L 2253 4666 
z
" transform="scale(0.015625)"/>
     </defs>
     <use xlink:href="#DejaVuSans-6e"/>
     <use xlink:href="#DejaVuSans-20" x="63.378906"/>
     <use xlink:href="#DejaVuSans-3d" x="95.166016"/>
     <use xlink:href="#DejaVuSans-20" x="178.955078"/>
     <use xlink:href="#DejaVuSans-36" x="210.742188"/>
     <use xlink:href="#DejaVuSans-34" x="274.365234"/>
    </g>
   </g>
   <g id="text_16">
    <!-- HBONDDiff vs PercentGpA_transformed -->
    <g transform="translate(130.507187 40.673817)scale(0.12 -0.12)">
     <defs>
      <path id="DejaVuSans-76" d="M 191 3500 
L 800 3500 
L 1894 563 
L 2988 3500 
L 3597 3500 
L 2284 0 
L 1503 0 
L 191 3500 
z
" transform="scale(0.015625)"/>
     </defs>
     <use xlink:href="#DejaVuSans-48"/>
     <use xlink:href="#DejaVuSans-42" x="75.195312"/>
     <use xlink:href="#DejaVuSans-4f" x="142.048828"/>
     <use xlink:href="#DejaVuSans-4e" x="220.759766"/>
     <use xlink:href="#DejaVuSans-44" x="295.564453"/>
     <use xlink:href="#DejaVuSans-44" x="372.566406"/>
     <use xlink:href="#DejaVuSans-69" x="449.568359"/>
     <use xlink:href="#DejaVuSans-66" x="477.351562"/>
     <use xlink:href="#DejaVuSans-66" x="512.556641"/>
     <use xlink:href="#DejaVuSans-20" x="547.761719"/>
     <use xlink:href="#DejaVuSans-76" x="579.548828"/>
     <use xlink:href="#DejaVuSans-73" x="638.728516"/>
     <use xlink:href="#DejaVuSans-20" x="690.828125"/>
     <use xlink:href="#DejaVuSans-50" x="722.615234"/>
     <use xlink:href="#DejaVuSans-65" x="779.292969"/>
     <use xlink:href="#DejaVuSans-72" x="840.816406"/>
     <use xlink:href="#DejaVuSans-63" x="879.679688"/>
     <use xlink:href="#DejaVuSans-65" x="934.660156"/>
     <use xlink:href="#DejaVuSans-6e" x="996.183594"/>
     <use xlink:href="#DejaVuSans-74" x="1059.5625"/>
     <use xlink:href="#DejaVuSans-47" x="1098.771484"/>
     <use xlink:href="#DejaVuSans-70" x="1176.261719"/>
     <use xlink:href="#DejaVuSans-41" x="1239.738281"/>
     <use xlink:href="#DejaVuSans-5f" x="1308.146484"/>
     <use xlink:href="#DejaVuSans-74" x="1358.146484"/>
     <use xlink:href="#DejaVuSans-72" x="1397.355469"/>
     <use xlink:href="#DejaVuSans-61" x="1438.46875"/>
     <use xlink:href="#DejaVuSans-6e" x="1499.748047"/>
     <use xlink:href="#DejaVuSans-73" x="1563.126953"/>
     <use xlink:href="#DejaVuSans-66" x="1615.226562"/>
     <use xlink:href="#DejaVuSans-6f" x="1650.431641"/>
     <use xlink:href="#DejaVuSans-72" x="1711.613281"/>
     <use xlink:href="#DejaVuSans-6d" x="1750.976562"/>
     <use xlink:href="#DejaVuSans-65" x="1848.388672"/>
     <use xlink:href="#DejaVuSans-64" x="1909.912109"/>
    </g>
   </g>
  </g>
 </g>
 <defs>
  <clipPath id="p51b1a5325d">
   <rect x="47.82125" y="46.673817" width="402.17875" height="256.966183"/>
  </clipPath>
 </defs>
</svg>
