<svg width="2804" height="1575" xmlns="http://www.w3.org/2000/svg" xmlns:xlink="http://www.w3.org/1999/xlink" xml:space="preserve" overflow="hidden"><defs><clipPath id="clip0"><rect x="3468" y="1164" width="2804" height="1575"/></clipPath></defs><g clip-path="url(#clip0)" transform="translate(-3468 -1164)"><rect x="3469" y="1165" width="2801" height="1572" fill="#FFFFFF"/><g><path d="M3641.5 2686.5 6219.5 2686.5M3641.5 2348.58 6219.5 2348.58M3641.5 2179.57 6219.5 2179.57M3641.5 2010.57 6219.5 2010.57M3641.5 1841.56 6219.5 1841.56M3641.5 1673.56 6219.5 1673.56M3641.5 1504.55 6219.5 1504.55M3641.5 1335.5 6219.5 1335.5" stroke="#D9D9D9" stroke-width="3.4375" stroke-linejoin="round" stroke-miterlimit="10" fill="none"/></g><g><path d="M3668.12 1756.06 3693.12 1756.06 3693.12 2517.08 3668.12 2517.08ZM3746.12 2386.08 3771.12 2386.08 3771.12 2517.08 3746.12 2517.08ZM3902.13 2529.08 3927.13 2529.08 3927.13 2517.08 3902.13 2517.08ZM3981.13 2426.08 4005.13 2426.08 4005.13 2517.08 3981.13 2517.08ZM4059.13 2380.08 4083.13 2380.08 4083.13 2517.08 4059.13 2517.08ZM4137.14 2223.07 4161.14 2223.07 4161.14 2517.08 4137.14 2517.08ZM4215.14 1533.05 4239.14 1533.05 4239.14 2517.08 4215.14 2517.08ZM4293.14 2152.07 4318.14 2152.07 4318.14 2517.08 4293.14 2517.08ZM4371.14 2197.07 4396.14 2197.07 4396.14 2517.08 4371.14 2517.08ZM4449.15 2106.07 4474.15 2106.07 4474.15 2517.08 4449.15 2517.08ZM4527.15 1917.06 4552.15 1917.06 4552.15 2517.08 4527.15 2517.08ZM4606.15 2187.07 4630.15 2187.07 4630.15 2517.08 4606.15 2517.08ZM4684.15 1903.06 4708.15 1903.06 4708.15 2517.08 4684.15 2517.08ZM4762.16 2115.07 4786.16 2115.07 4786.16 2517.08 4762.16 2517.08ZM4840.16 2098.07 4864.16 2098.07 4864.16 2517.08 4840.16 2517.08ZM4918.16 2203.07 4943.16 2203.07 4943.16 2517.08 4918.16 2517.08ZM4996.16 2014.07 5021.16 2014.07 5021.16 2517.08 4996.16 2517.08ZM5074.17 2066.07 5099.17 2066.07 5099.17 2517.08 5074.17 2517.08ZM5152.17 2318.08 5177.17 2318.08 5177.17 2517.08 5152.17 2517.08ZM5231.17 2123.07 5255.17 2123.07 5255.17 2517.08 5231.17 2517.08ZM5309.17 2205.07 5333.17 2205.07 5333.17 2517.08 5309.17 2517.08ZM5387.18 2227.07 5411.18 2227.07 5411.18 2517.08 5387.18 2517.08ZM5465.18 2020.07 5489.18 2020.07 5489.18 2517.08 5465.18 2517.08ZM5543.18 2069.07 5568.18 2069.07 5568.18 2517.08 5543.18 2517.08ZM5621.18 2165.07 5646.19 2165.07 5646.19 2517.08 5621.18 2517.08ZM5699.19 1949.06 5724.19 1949.06 5724.19 2517.08 5699.19 2517.08ZM5777.19 2239.07 5802.19 2239.07 5802.19 2517.08 5777.19 2517.08ZM5856.19 2193.07 5880.19 2193.07 5880.19 2517.08 5856.19 2517.08ZM5934.19 2070.07 5958.2 2070.07 5958.2 2517.08 5934.19 2517.08ZM6012.2 2192.07 6036.2 2192.07 6036.2 2517.08 6012.2 2517.08ZM6090.2 2132.07 6114.2 2132.07 6114.2 2517.08 6090.2 2517.08ZM6168.2 2033.07 6193.2 2033.07 6193.2 2517.08 6168.2 2517.08Z" fill="#156082"/></g><g><path d="M3680.62 1756.56 3680.62 1811.5M3680.62 1756.56 3680.62 1700.5M3670.5 1811.5 3690.5 1811.5M3670.5 1700.5 3690.5 1700.5" stroke="#595959" stroke-width="3.4375" stroke-linejoin="round" stroke-miterlimit="10" fill="none"/></g><g><path d="M3758.62 2385.58 3758.62 2386.5M3758.62 2385.58 3758.62 2384.5M3748.5 2386.5 3768.5 2386.5M3748.5 2384.5 3768.5 2384.5" stroke="#595959" stroke-width="3.4375" stroke-linejoin="round" stroke-miterlimit="10" fill="none"/></g><g><path d="M3826.5 2517.5 3846.5 2517.5M3826.5 2517.5 3846.5 2517.5" stroke="#595959" stroke-width="3.4375" stroke-linejoin="round" stroke-miterlimit="10" fill="none"/></g><g><path d="M3914.63 2529.58 3914.63 2530.5M3914.63 2529.58 3914.63 2529.5M3904.5 2530.5 3925.5 2530.5M3904.5 2529.5 3925.5 2529.5" stroke="#595959" stroke-width="3.4375" stroke-linejoin="round" stroke-miterlimit="10" fill="none"/></g><g><path d="M3992.63 2426.58 3992.63 2427.5M3992.63 2426.58 3992.63 2426.5M3982.5 2427.5 4003.5 2427.5M3982.5 2426.5 4003.5 2426.5" stroke="#595959" stroke-width="3.4375" stroke-linejoin="round" stroke-miterlimit="10" fill="none"/></g><g><path d="M4070.63 2379.58 4070.63 2380.5M4070.63 2379.58 4070.63 2378.5M4060.5 2380.5 4081.5 2380.5M4060.5 2378.5 4081.5 2378.5" stroke="#595959" stroke-width="3.4375" stroke-linejoin="round" stroke-miterlimit="10" fill="none"/></g><g><path d="M4149.64 2223.57 4149.64 2228.5M4149.64 2223.57 4149.64 2218.5M4138.5 2228.5 4159.5 2228.5M4138.5 2218.5 4159.5 2218.5" stroke="#595959" stroke-width="3.4375" stroke-linejoin="round" stroke-miterlimit="10" fill="none"/></g><g><path d="M4227.64 1533.55 4227.64 1575.5M4227.64 1533.55 4227.64 1491.5M4216.5 1575.5 4237.5 1575.5M4216.5 1491.5 4237.5 1491.5" stroke="#595959" stroke-width="3.4375" stroke-linejoin="round" stroke-miterlimit="10" fill="none"/></g><g><path d="M4305.64 2151.57 4305.64 2152.5M4305.64 2151.57 4305.64 2150.5M4295.5 2152.5 4315.5 2152.5M4295.5 2150.5 4315.5 2150.5" stroke="#595959" stroke-width="3.4375" stroke-linejoin="round" stroke-miterlimit="10" fill="none"/></g><g><path d="M4383.64 2197.57 4383.64 2207.5M4383.64 2197.57 4383.64 2186.5M4373.5 2207.5 4393.5 2207.5M4373.5 2186.5 4393.5 2186.5" stroke="#595959" stroke-width="3.4375" stroke-linejoin="round" stroke-miterlimit="10" fill="none"/></g><g><path d="M4461.65 2105.57 4461.65 2114.5M4461.65 2105.57 4461.65 2096.5M4451.5 2114.5 4472.5 2114.5M4451.5 2096.5 4472.5 2096.5" stroke="#595959" stroke-width="3.4375" stroke-linejoin="round" stroke-miterlimit="10" fill="none"/></g><g><path d="M4539.65 1917.56 4539.65 1946.5M4539.65 1917.56 4539.65 1888.5M4529.5 1946.5 4550.5 1946.5M4529.5 1888.5 4550.5 1888.5" stroke="#595959" stroke-width="3.4375" stroke-linejoin="round" stroke-miterlimit="10" fill="none"/></g><g><path d="M4617.65 2186.57 4617.65 2193.5M4617.65 2186.57 4617.65 2180.5M4607.5 2193.5 4628.5 2193.5M4607.5 2180.5 4628.5 2180.5" stroke="#595959" stroke-width="3.4375" stroke-linejoin="round" stroke-miterlimit="10" fill="none"/></g><g><path d="M4695.65 1903.56 4695.65 1926.5M4695.65 1903.56 4695.65 1879.5M4685.5 1926.5 4706.5 1926.5M4685.5 1879.5 4706.5 1879.5" stroke="#595959" stroke-width="3.4375" stroke-linejoin="round" stroke-miterlimit="10" fill="none"/></g><g><path d="M4774.66 2115.57 4774.66 2126.5M4774.66 2115.57 4774.66 2104.5M4763.5 2126.5 4784.5 2126.5M4763.5 2104.5 4784.5 2104.5" stroke="#595959" stroke-width="3.4375" stroke-linejoin="round" stroke-miterlimit="10" fill="none"/></g><g><path d="M4852.66 2098.57 4852.66 2105.5M4852.66 2098.57 4852.66 2091.5M4842.5 2105.5 4862.5 2105.5M4842.5 2091.5 4862.5 2091.5" stroke="#595959" stroke-width="3.4375" stroke-linejoin="round" stroke-miterlimit="10" fill="none"/></g><g><path d="M4930.66 2202.57 4930.66 2211.5M4930.66 2202.57 4930.66 2194.5M4920.5 2211.5 4940.5 2211.5M4920.5 2194.5 4940.5 2194.5" stroke="#595959" stroke-width="3.4375" stroke-linejoin="round" stroke-miterlimit="10" fill="none"/></g><g><path d="M5008.66 2013.57 5008.66 2031.5M5008.66 2013.57 5008.66 1996.5M4998.5 2031.5 5018.5 2031.5M4998.5 1996.5 5018.5 1996.5" stroke="#595959" stroke-width="3.4375" stroke-linejoin="round" stroke-miterlimit="10" fill="none"/></g><g><path d="M5086.67 2065.57 5086.67 2080.5M5086.67 2065.57 5086.67 2051.5M5076.5 2080.5 5097.5 2080.5M5076.5 2051.5 5097.5 2051.5" stroke="#595959" stroke-width="3.4375" stroke-linejoin="round" stroke-miterlimit="10" fill="none"/></g><g><path d="M5164.67 2318.58 5164.67 2329.5M5164.67 2318.58 5164.67 2307.5M5154.5 2329.5 5175.5 2329.5M5154.5 2307.5 5175.5 2307.5" stroke="#595959" stroke-width="3.4375" stroke-linejoin="round" stroke-miterlimit="10" fill="none"/></g><g><path d="M5242.67 2122.57 5242.67 2128.5M5242.67 2122.57 5242.67 2117.5M5232.5 2128.5 5253.5 2128.5M5232.5 2117.5 5253.5 2117.5" stroke="#595959" stroke-width="3.4375" stroke-linejoin="round" stroke-miterlimit="10" fill="none"/></g><g><path d="M5320.67 2204.57 5320.67 2211.5M5320.67 2204.57 5320.67 2198.5M5310.5 2211.5 5331.5 2211.5M5310.5 2198.5 5331.5 2198.5" stroke="#595959" stroke-width="3.4375" stroke-linejoin="round" stroke-miterlimit="10" fill="none"/></g><g><path d="M5399.68 2226.57 5399.68 2250.5M5399.68 2226.57 5399.68 2203.5M5388.5 2250.5 5409.5 2250.5M5388.5 2203.5 5409.5 2203.5" stroke="#595959" stroke-width="3.4375" stroke-linejoin="round" stroke-miterlimit="10" fill="none"/></g><g><path d="M5477.68 2020.57 5477.68 2037.5M5477.68 2020.57 5477.68 2003.5M5467.5 2037.5 5487.5 2037.5M5467.5 2003.5 5487.5 2003.5" stroke="#595959" stroke-width="3.4375" stroke-linejoin="round" stroke-miterlimit="10" fill="none"/></g><g><path d="M5555.68 2069.57 5555.68 2089.5M5555.68 2069.57 5555.68 2048.5M5545.5 2089.5 5565.5 2089.5M5545.5 2048.5 5565.5 2048.5" stroke="#595959" stroke-width="3.4375" stroke-linejoin="round" stroke-miterlimit="10" fill="none"/></g><g><path d="M5633.69 2164.57 5633.69 2175.5M5633.69 2164.57 5633.69 2154.5M5623.5 2175.5 5643.5 2175.5M5623.5 2154.5 5643.5 2154.5" stroke="#595959" stroke-width="3.4375" stroke-linejoin="round" stroke-miterlimit="10" fill="none"/></g><g><path d="M5711.69 1949.56 5711.69 1967.5M5711.69 1949.56 5711.69 1931.5M5701.5 1967.5 5722.5 1967.5M5701.5 1931.5 5722.5 1931.5" stroke="#595959" stroke-width="3.4375" stroke-linejoin="round" stroke-miterlimit="10" fill="none"/></g><g><path d="M5789.69 2239.57 5789.69 2241.5M5789.69 2239.57 5789.69 2237.5M5779.5 2241.5 5800.5 2241.5M5779.5 2237.5 5800.5 2237.5" stroke="#595959" stroke-width="3.4375" stroke-linejoin="round" stroke-miterlimit="10" fill="none"/></g><g><path d="M5867.69 2192.57 5867.69 2193.5M5867.69 2192.57 5867.69 2192.5M5857.5 2193.5 5878.5 2193.5M5857.5 2192.5 5878.5 2192.5" stroke="#595959" stroke-width="3.4375" stroke-linejoin="round" stroke-miterlimit="10" fill="none"/></g><g><path d="M5945.7 2070.57 5945.7 2072.5M5945.7 2070.57 5945.7 2067.5M5935.5 2072.5 5956.5 2072.5M5935.5 2067.5 5956.5 2067.5" stroke="#595959" stroke-width="3.4375" stroke-linejoin="round" stroke-miterlimit="10" fill="none"/></g><g><path d="M6024.7 2192.57 6024.7 2194.5M6024.7 2192.57 6024.7 2189.5M6013.5 2194.5 6034.5 2194.5M6013.5 2189.5 6034.5 2189.5" stroke="#595959" stroke-width="3.4375" stroke-linejoin="round" stroke-miterlimit="10" fill="none"/></g><g><path d="M6102.7 2132.57 6102.7 2142.5M6102.7 2132.57 6102.7 2121.5M6092.5 2142.5 6112.5 2142.5M6092.5 2121.5 6112.5 2121.5" stroke="#595959" stroke-width="3.4375" stroke-linejoin="round" stroke-miterlimit="10" fill="none"/></g><g><path d="M6180.7 2033.57 6180.7 2047.5M6180.7 2033.57 6180.7 2019.5M6170.5 2047.5 6190.5 2047.5M6170.5 2019.5 6190.5 2019.5" stroke="#595959" stroke-width="3.4375" stroke-linejoin="round" stroke-miterlimit="10" fill="none"/></g><g><path d="M3641.5 2517.5 6219.5 2517.5" stroke="#D9D9D9" stroke-width="3.4375" stroke-linejoin="round" stroke-miterlimit="10" fill="none" fill-rule="evenodd"/></g><g><text fill="#595959" font-family="Aptos Narrow,Aptos Narrow_MSFontService,sans-serif" font-weight="400" font-stretch="semi-condensed" font-size="41" transform="matrix(1 0 0 1 3507.04 2698)">-5000</text></g><g><text fill="#595959" font-family="Aptos Narrow,Aptos Narrow_MSFontService,sans-serif" font-weight="400" font-stretch="semi-condensed" font-size="41" transform="matrix(1 0 0 1 3582.36 2529)">0</text></g><g><text fill="#595959" font-family="Aptos Narrow,Aptos Narrow_MSFontService,sans-serif" font-weight="400" font-stretch="semi-condensed" font-size="41" transform="matrix(1 0 0 1 3519.66 2360)">5000</text></g><g><text fill="#595959" font-family="Aptos Narrow,Aptos Narrow_MSFontService,sans-serif" font-weight="400" font-stretch="semi-condensed" font-size="41" transform="matrix(1 0 0 1 3498.76 2191)">10000</text></g><g><text fill="#595959" font-family="Aptos Narrow,Aptos Narrow_MSFontService,sans-serif" font-weight="400" font-stretch="semi-condensed" font-size="41" transform="matrix(1 0 0 1 3498.76 2022)">15000</text></g><g><text fill="#595959" font-family="Aptos Narrow,Aptos Narrow_MSFontService,sans-serif" font-weight="400" font-stretch="semi-condensed" font-size="41" transform="matrix(1 0 0 1 3498.76 1854)">20000</text></g><g><text fill="#595959" font-family="Aptos Narrow,Aptos Narrow_MSFontService,sans-serif" font-weight="400" font-stretch="semi-condensed" font-size="41" transform="matrix(1 0 0 1 3498.76 1685)">25000</text></g><g><text fill="#595959" font-family="Aptos Narrow,Aptos Narrow_MSFontService,sans-serif" font-weight="400" font-stretch="semi-condensed" font-size="41" transform="matrix(1 0 0 1 3498.76 1516)">30000</text></g><g><text fill="#595959" font-family="Aptos Narrow,Aptos Narrow_MSFontService,sans-serif" font-weight="400" font-stretch="semi-condensed" font-size="41" transform="matrix(1 0 0 1 3498.76 1347)">35000</text></g><g><text fill="#595959" font-family="Aptos Narrow,Aptos Narrow_MSFontService,sans-serif" font-weight="400" font-stretch="semi-condensed" font-size="41" transform="matrix(0.707107 -0.707107 0.707107 0.707107 3642.14 2619)">Gpa</text></g><g><text fill="#595959" font-family="Aptos Narrow,Aptos Narrow_MSFontService,sans-serif" font-weight="400" font-stretch="semi-condensed" font-size="41" transform="matrix(0.707107 -0.707107 0.707107 0.707107 3712.82 2626)">G83I</text></g><g><text fill="#595959" font-family="Aptos Narrow,Aptos Narrow_MSFontService,sans-serif" font-weight="400" font-stretch="semi-condensed" font-size="41" transform="matrix(0.707107 -0.707107 0.707107 0.707107 3779.13 2638)">NoTM</text></g><g><text fill="#595959" font-family="Aptos Narrow,Aptos Narrow_MSFontService,sans-serif" font-weight="400" font-stretch="semi-condensed" font-size="41" transform="matrix(0.707107 -0.707107 0.707107 0.707107 3890.95 2604)">G2</text></g><g><text fill="#595959" font-family="Aptos Narrow,Aptos Narrow_MSFontService,sans-serif" font-weight="400" font-stretch="semi-condensed" font-size="41" transform="matrix(0.707107 -0.707107 0.707107 0.707107 3969.08 2604)">G3</text></g><g><text fill="#595959" font-family="Aptos Narrow,Aptos Narrow_MSFontService,sans-serif" font-weight="400" font-stretch="semi-condensed" font-size="41" transform="matrix(0.707107 -0.707107 0.707107 0.707107 4032.43 2619)">1G2</text></g><g><text fill="#595959" font-family="Aptos Narrow,Aptos Narrow_MSFontService,sans-serif" font-weight="400" font-stretch="semi-condensed" font-size="41" transform="matrix(0.707107 -0.707107 0.707107 0.707107 4100.62 2629)">2F12</text></g><g><text fill="#595959" font-family="Aptos Narrow,Aptos Narrow_MSFontService,sans-serif" font-weight="400" font-stretch="semi-condensed" font-size="41" transform="matrix(0.707107 -0.707107 0.707107 0.707107 4173.91 2634)">2H11</text></g><g><text fill="#595959" font-family="Aptos Narrow,Aptos Narrow_MSFontService,sans-serif" font-weight="400" font-stretch="semi-condensed" font-size="41" transform="matrix(0.707107 -0.707107 0.707107 0.707107 4287.12 2599)">L4</text></g><g><text fill="#595959" font-family="Aptos Narrow,Aptos Narrow_MSFontService,sans-serif" font-weight="400" font-stretch="semi-condensed" font-size="41" transform="matrix(0.707107 -0.707107 0.707107 0.707107 4346.79 2617)">LC7</text></g><g><text fill="#595959" font-family="Aptos Narrow,Aptos Narrow_MSFontService,sans-serif" font-weight="400" font-stretch="semi-condensed" font-size="41" transform="matrix(0.707107 -0.707107 0.707107 0.707107 4410.3 2632)">LD23</text></g><g><text fill="#595959" font-family="Aptos Narrow,Aptos Narrow_MSFontService,sans-serif" font-weight="400" font-stretch="semi-condensed" font-size="41" transform="matrix(0.707107 -0.707107 0.707107 0.707107 4485.07 2635)">LWT3</text></g><g><text fill="#595959" font-family="Aptos Narrow,Aptos Narrow_MSFontService,sans-serif" font-weight="400" font-stretch="semi-condensed" font-size="41" transform="matrix(0.707107 -0.707107 0.707107 0.707107 4581.17 2617)">LC2</text></g><g><text fill="#595959" font-family="Aptos Narrow,Aptos Narrow_MSFontService,sans-serif" font-weight="400" font-stretch="semi-condensed" font-size="41" transform="matrix(0.707107 -0.707107 0.707107 0.707107 4644.69 2632)">LD21</text></g><g><text fill="#595959" font-family="Aptos Narrow,Aptos Narrow_MSFontService,sans-serif" font-weight="400" font-stretch="semi-condensed" font-size="41" transform="matrix(0.707107 -0.707107 0.707107 0.707107 4704.68 2650)">LWT11</text></g><g><text fill="#595959" font-family="Aptos Narrow,Aptos Narrow_MSFontService,sans-serif" font-weight="400" font-stretch="semi-condensed" font-size="41" transform="matrix(0.707107 -0.707107 0.707107 0.707107 4815.56 2617)">LC3</text></g><g><text fill="#595959" font-family="Aptos Narrow,Aptos Narrow_MSFontService,sans-serif" font-weight="400" font-stretch="semi-condensed" font-size="41" transform="matrix(0.707107 -0.707107 0.707107 0.707107 4879.07 2632)">LD50</text></g><g><text fill="#595959" font-family="Aptos Narrow,Aptos Narrow_MSFontService,sans-serif" font-weight="400" font-stretch="semi-condensed" font-size="41" transform="matrix(0.707107 -0.707107 0.707107 0.707107 4936.2 2653)">RWT34</text></g><g><text fill="#595959" font-family="Aptos Narrow,Aptos Narrow_MSFontService,sans-serif" font-weight="400" font-stretch="semi-condensed" font-size="41" transform="matrix(0.707107 -0.707107 0.707107 0.707107 5047.07 2620)">RC8</text></g><g><text fill="#595959" font-family="Aptos Narrow,Aptos Narrow_MSFontService,sans-serif" font-weight="400" font-stretch="semi-condensed" font-size="41" transform="matrix(0.707107 -0.707107 0.707107 0.707107 5110.59 2635)">RD13</text></g><g><text fill="#595959" font-family="Aptos Narrow,Aptos Narrow_MSFontService,sans-serif" font-weight="400" font-stretch="semi-condensed" font-size="41" transform="matrix(0.707107 -0.707107 0.707107 0.707107 5170.58 2653)">RWT40</text></g><g><text fill="#595959" font-family="Aptos Narrow,Aptos Narrow_MSFontService,sans-serif" font-weight="400" font-stretch="semi-condensed" font-size="41" transform="matrix(0.707107 -0.707107 0.707107 0.707107 5281.46 2620)">RC1</text></g><g><text fill="#595959" font-family="Aptos Narrow,Aptos Narrow_MSFontService,sans-serif" font-weight="400" font-stretch="semi-condensed" font-size="41" transform="matrix(0.707107 -0.707107 0.707107 0.707107 5344.97 2635)">RD52</text></g><g><text fill="#595959" font-family="Aptos Narrow,Aptos Narrow_MSFontService,sans-serif" font-weight="400" font-stretch="semi-condensed" font-size="41" transform="matrix(0.707107 -0.707107 0.707107 0.707107 5459.04 2599)">L8</text></g><g><text fill="#595959" font-family="Aptos Narrow,Aptos Narrow_MSFontService,sans-serif" font-weight="400" font-stretch="semi-condensed" font-size="41" transform="matrix(0.707107 -0.707107 0.707107 0.707107 5518.71 2617)">LC4</text></g><g><text fill="#595959" font-family="Aptos Narrow,Aptos Narrow_MSFontService,sans-serif" font-weight="400" font-stretch="semi-condensed" font-size="41" transform="matrix(0.707107 -0.707107 0.707107 0.707107 5597 2617)">LD9</text></g><g><text fill="#595959" font-family="Aptos Narrow,Aptos Narrow_MSFontService,sans-serif" font-weight="400" font-stretch="semi-condensed" font-size="41" transform="matrix(0.707107 -0.707107 0.707107 0.707107 5654.13 2638)">RWT3</text></g><g><text fill="#595959" font-family="Aptos Narrow,Aptos Narrow_MSFontService,sans-serif" font-weight="400" font-stretch="semi-condensed" font-size="41" transform="matrix(0.707107 -0.707107 0.707107 0.707107 5735.45 2635)">RC11</text></g><g><text fill="#595959" font-family="Aptos Narrow,Aptos Narrow_MSFontService,sans-serif" font-weight="400" font-stretch="semi-condensed" font-size="41" transform="matrix(0.707107 -0.707107 0.707107 0.707107 5828.52 2620)">RD2</text></g><g><text fill="#595959" font-family="Aptos Narrow,Aptos Narrow_MSFontService,sans-serif" font-weight="400" font-stretch="semi-condensed" font-size="41" transform="matrix(0.707107 -0.707107 0.707107 0.707107 5873.74 2653)">RWT39</text></g><g><text fill="#595959" font-family="Aptos Narrow,Aptos Narrow_MSFontService,sans-serif" font-weight="400" font-stretch="semi-condensed" font-size="41" transform="matrix(0.707107 -0.707107 0.707107 0.707107 5984.61 2620)">RC2</text></g><g><text fill="#595959" font-family="Aptos Narrow,Aptos Narrow_MSFontService,sans-serif" font-weight="400" font-stretch="semi-condensed" font-size="41" transform="matrix(0.707107 -0.707107 0.707107 0.707107 6048.13 2635)">RD39</text></g><g><text fill="#595959" font-family="Aptos Narrow,Aptos Narrow_MSFontService,sans-serif" font-weight="400" font-stretch="semi-condensed" font-size="41" transform="matrix(0.707107 -0.707107 0.707107 0.707107 6147.14 2614)">YF9</text></g><g><text fill="#595959" font-family="Aptos Narrow,Aptos Narrow_MSFontService,sans-serif" font-weight="400" font-stretch="semi-condensed" font-size="64" transform="matrix(1 0 0 1 4653.58 1260)">NoTM subtracted</text></g><rect x="3469.5" y="1165.5" width="2801" height="1572" stroke="#D9D9D9" stroke-width="3.4375" stroke-linejoin="round" stroke-miterlimit="10" fill="none"/></g></svg>