<svg width="2584" height="1362" xmlns="http://www.w3.org/2000/svg" xmlns:xlink="http://www.w3.org/1999/xlink" xml:space="preserve" overflow="hidden"><defs><clipPath id="clip0"><rect x="2344" y="1257" width="2584" height="1362"/></clipPath></defs><g clip-path="url(#clip0)" transform="translate(-2344 -1257)"><rect x="2345" y="1258" width="2581" height="1359" fill="#FFFFFF"/><g><path d="M2517.5 2566.5 4875.5 2566.5M2517.5 2281.58 4875.5 2281.58M2517.5 2139.57 4875.5 2139.57M2517.5 1997.57 4875.5 1997.57M2517.5 1854.56 4875.5 1854.56M2517.5 1712.56 4875.5 1712.56M2517.5 1570.55 4875.5 1570.55M2517.5 1427.5 4875.5 1427.5" stroke="#D9D9D9" stroke-width="3.4375" stroke-linejoin="round" stroke-miterlimit="10" fill="none"/></g><g><path d="M2543.08 1783.06 2566.08 1783.06 2566.08 2424.08 2543.08 2424.08ZM2617.09 2313.08 2640.09 2313.08 2640.09 2424.08 2617.09 2424.08ZM2690.09 2434.08 2713.09 2434.08 2713.09 2424.08 2690.09 2424.08ZM2764.09 2347.08 2787.09 2347.08 2787.09 2424.08 2764.09 2424.08ZM2838.09 2308.08 2861.09 2308.08 2861.09 2424.08 2838.09 2424.08ZM2911.1 2176.07 2934.1 2176.07 2934.1 2424.08 2911.1 2424.08ZM2985.1 1595.05 3008.1 1595.05 3008.1 2424.08 2985.1 2424.08ZM3059.1 2116.07 3082.1 2116.07 3082.1 2424.08 3059.1 2424.08ZM3132.1 2154.07 3155.1 2154.07 3155.1 2424.08 3132.1 2424.08ZM3206.11 2077.07 3229.11 2077.07 3229.11 2424.08 3206.11 2424.08ZM3280.11 1918.06 3303.11 1918.06 3303.11 2424.08 3280.11 2424.08ZM3353.11 2146.07 3376.11 2146.07 3376.11 2424.08 3353.11 2424.08ZM3427.11 1906.06 3450.11 1906.06 3450.11 2424.08 3427.11 2424.08ZM3501.11 2085.07 3524.12 2085.07 3524.12 2424.08 3501.11 2424.08ZM3574.12 2071.07 3597.12 2071.07 3597.12 2424.08 3574.12 2424.08ZM3648.12 2159.07 3671.12 2159.07 3671.12 2424.08 3648.12 2424.08ZM3722.12 2000.07 3745.12 2000.07 3745.12 2424.08 3722.12 2424.08ZM3795.12 2044.07 3818.13 2044.07 3818.13 2424.08 3795.12 2424.08ZM3869.13 2256.07 3892.13 2256.07 3892.13 2424.08 3869.13 2424.08ZM3943.13 2092.07 3966.13 2092.07 3966.13 2424.08 3943.13 2424.08ZM4016.13 2161.07 4039.13 2161.07 4039.13 2424.08 4016.13 2424.08ZM4090.13 2179.07 4113.13 2179.07 4113.13 2424.08 4090.13 2424.08ZM4164.14 2005.07 4187.14 2005.07 4187.14 2424.08 4164.14 2424.08ZM4237.14 2046.07 4260.14 2046.07 4260.14 2424.08 4237.14 2424.08ZM4311.14 2127.07 4334.14 2127.07 4334.14 2424.08 4311.14 2424.08ZM4385.14 1945.06 4408.14 1945.06 4408.14 2424.08 4385.14 2424.08ZM4458.15 2190.07 4481.15 2190.07 4481.15 2424.08 4458.15 2424.08ZM4532.15 2151.07 4555.15 2151.07 4555.15 2424.08 4532.15 2424.08ZM4606.15 2047.07 4629.15 2047.07 4629.15 2424.08 4606.15 2424.08ZM4679.15 2150.07 4702.15 2150.07 4702.15 2424.08 4679.15 2424.08ZM4753.16 2100.07 4776.16 2100.07 4776.16 2424.08 4753.16 2424.08ZM4827.16 2016.07 4850.16 2016.07 4850.16 2424.08 4827.16 2424.08Z" fill="#156082"/></g><g><path d="M2517.5 2424.5 4875.5 2424.5" stroke="#D9D9D9" stroke-width="3.4375" stroke-linejoin="round" stroke-miterlimit="10" fill="none" fill-rule="evenodd"/></g><g><text fill="#595959" font-family="Aptos Narrow,Aptos Narrow_MSFontService,sans-serif" font-weight="400" font-stretch="semi-condensed" font-size="41" transform="matrix(1 0 0 1 2383.42 2578)">-5000</text></g><g><text fill="#595959" font-family="Aptos Narrow,Aptos Narrow_MSFontService,sans-serif" font-weight="400" font-stretch="semi-condensed" font-size="41" transform="matrix(1 0 0 1 2458.75 2436)">0</text></g><g><text fill="#595959" font-family="Aptos Narrow,Aptos Narrow_MSFontService,sans-serif" font-weight="400" font-stretch="semi-condensed" font-size="41" transform="matrix(1 0 0 1 2396.05 2294)">5000</text></g><g><text fill="#595959" font-family="Aptos Narrow,Aptos Narrow_MSFontService,sans-serif" font-weight="400" font-stretch="semi-condensed" font-size="41" transform="matrix(1 0 0 1 2375.15 2151)">10000</text></g><g><text fill="#595959" font-family="Aptos Narrow,Aptos Narrow_MSFontService,sans-serif" font-weight="400" font-stretch="semi-condensed" font-size="41" transform="matrix(1 0 0 1 2375.15 2009)">15000</text></g><g><text fill="#595959" font-family="Aptos Narrow,Aptos Narrow_MSFontService,sans-serif" font-weight="400" font-stretch="semi-condensed" font-size="41" transform="matrix(1 0 0 1 2375.15 1866)">20000</text></g><g><text fill="#595959" font-family="Aptos Narrow,Aptos Narrow_MSFontService,sans-serif" font-weight="400" font-stretch="semi-condensed" font-size="41" transform="matrix(1 0 0 1 2375.15 1724)">25000</text></g><g><text fill="#595959" font-family="Aptos Narrow,Aptos Narrow_MSFontService,sans-serif" font-weight="400" font-stretch="semi-condensed" font-size="41" transform="matrix(1 0 0 1 2375.15 1582)">30000</text></g><g><text fill="#595959" font-family="Aptos Narrow,Aptos Narrow_MSFontService,sans-serif" font-weight="400" font-stretch="semi-condensed" font-size="41" transform="matrix(1 0 0 1 2375.15 1439)">35000</text></g><g><text fill="#595959" font-family="Aptos Narrow,Aptos Narrow_MSFontService,sans-serif" font-weight="400" font-stretch="semi-condensed" font-size="41" transform="matrix(0.707107 -0.707107 0.707107 0.707107 2516.3 2526)">Gpa</text></g><g><text fill="#595959" font-family="Aptos Narrow,Aptos Narrow_MSFontService,sans-serif" font-weight="400" font-stretch="semi-condensed" font-size="41" transform="matrix(0.707107 -0.707107 0.707107 0.707107 2582.52 2533)">G83I</text></g><g><text fill="#595959" font-family="Aptos Narrow,Aptos Narrow_MSFontService,sans-serif" font-weight="400" font-stretch="semi-condensed" font-size="41" transform="matrix(0.707107 -0.707107 0.707107 0.707107 2678.06 2511)">G2</text></g><g><text fill="#595959" font-family="Aptos Narrow,Aptos Narrow_MSFontService,sans-serif" font-weight="400" font-stretch="semi-condensed" font-size="41" transform="matrix(0.707107 -0.707107 0.707107 0.707107 2751.74 2511)">G3</text></g><g><text fill="#595959" font-family="Aptos Narrow,Aptos Narrow_MSFontService,sans-serif" font-weight="400" font-stretch="semi-condensed" font-size="41" transform="matrix(0.707107 -0.707107 0.707107 0.707107 2810.63 2526)">1G2</text></g><g><text fill="#595959" font-family="Aptos Narrow,Aptos Narrow_MSFontService,sans-serif" font-weight="400" font-stretch="semi-condensed" font-size="41" transform="matrix(0.707107 -0.707107 0.707107 0.707107 2874.37 2536)">2F12</text></g><g><text fill="#595959" font-family="Aptos Narrow,Aptos Narrow_MSFontService,sans-serif" font-weight="400" font-stretch="semi-condensed" font-size="41" transform="matrix(0.707107 -0.707107 0.707107 0.707107 2943.19 2541)">2H11</text></g><g><text fill="#595959" font-family="Aptos Narrow,Aptos Narrow_MSFontService,sans-serif" font-weight="400" font-stretch="semi-condensed" font-size="41" transform="matrix(0.707107 -0.707107 0.707107 0.707107 3051.95 2506)">L4</text></g><g><text fill="#595959" font-family="Aptos Narrow,Aptos Narrow_MSFontService,sans-serif" font-weight="400" font-stretch="semi-condensed" font-size="41" transform="matrix(0.707107 -0.707107 0.707107 0.707107 3107.16 2524)">LC7</text></g><g><text fill="#595959" font-family="Aptos Narrow,Aptos Narrow_MSFontService,sans-serif" font-weight="400" font-stretch="semi-condensed" font-size="41" transform="matrix(0.707107 -0.707107 0.707107 0.707107 3166.22 2539)">LD23</text></g><g><text fill="#595959" font-family="Aptos Narrow,Aptos Narrow_MSFontService,sans-serif" font-weight="400" font-stretch="semi-condensed" font-size="41" transform="matrix(0.707107 -0.707107 0.707107 0.707107 3236.53 2542)">LWT3</text></g><g><text fill="#595959" font-family="Aptos Narrow,Aptos Narrow_MSFontService,sans-serif" font-weight="400" font-stretch="semi-condensed" font-size="41" transform="matrix(0.707107 -0.707107 0.707107 0.707107 3328.18 2524)">LC2</text></g><g><text fill="#595959" font-family="Aptos Narrow,Aptos Narrow_MSFontService,sans-serif" font-weight="400" font-stretch="semi-condensed" font-size="41" transform="matrix(0.707107 -0.707107 0.707107 0.707107 3387.23 2539)">LD21</text></g><g><text fill="#595959" font-family="Aptos Narrow,Aptos Narrow_MSFontService,sans-serif" font-weight="400" font-stretch="semi-condensed" font-size="41" transform="matrix(0.707107 -0.707107 0.707107 0.707107 3442.77 2557)">LWT11</text></g><g><text fill="#595959" font-family="Aptos Narrow,Aptos Narrow_MSFontService,sans-serif" font-weight="400" font-stretch="semi-condensed" font-size="41" transform="matrix(0.707107 -0.707107 0.707107 0.707107 3549.19 2524)">LC3</text></g><g><text fill="#595959" font-family="Aptos Narrow,Aptos Narrow_MSFontService,sans-serif" font-weight="400" font-stretch="semi-condensed" font-size="41" transform="matrix(0.707107 -0.707107 0.707107 0.707107 3608.25 2539)">LD50</text></g><g><text fill="#595959" font-family="Aptos Narrow,Aptos Narrow_MSFontService,sans-serif" font-weight="400" font-stretch="semi-condensed" font-size="41" transform="matrix(0.707107 -0.707107 0.707107 0.707107 3660.92 2560)">RWT34</text></g><g><text fill="#595959" font-family="Aptos Narrow,Aptos Narrow_MSFontService,sans-serif" font-weight="400" font-stretch="semi-condensed" font-size="41" transform="matrix(0.707107 -0.707107 0.707107 0.707107 3767.34 2527)">RC8</text></g><g><text fill="#595959" font-family="Aptos Narrow,Aptos Narrow_MSFontService,sans-serif" font-weight="400" font-stretch="semi-condensed" font-size="41" transform="matrix(0.707107 -0.707107 0.707107 0.707107 3826.39 2542)">RD13</text></g><g><text fill="#595959" font-family="Aptos Narrow,Aptos Narrow_MSFontService,sans-serif" font-weight="400" font-stretch="semi-condensed" font-size="41" transform="matrix(0.707107 -0.707107 0.707107 0.707107 3881.93 2560)">RWT40</text></g><g><text fill="#595959" font-family="Aptos Narrow,Aptos Narrow_MSFontService,sans-serif" font-weight="400" font-stretch="semi-condensed" font-size="41" transform="matrix(0.707107 -0.707107 0.707107 0.707107 3988.35 2527)">RC1</text></g><g><text fill="#595959" font-family="Aptos Narrow,Aptos Narrow_MSFontService,sans-serif" font-weight="400" font-stretch="semi-condensed" font-size="41" transform="matrix(0.707107 -0.707107 0.707107 0.707107 4047.41 2542)">RD52</text></g><g><text fill="#595959" font-family="Aptos Narrow,Aptos Narrow_MSFontService,sans-serif" font-weight="400" font-stretch="semi-condensed" font-size="41" transform="matrix(0.707107 -0.707107 0.707107 0.707107 4157.02 2506)">L8</text></g><g><text fill="#595959" font-family="Aptos Narrow,Aptos Narrow_MSFontService,sans-serif" font-weight="400" font-stretch="semi-condensed" font-size="41" transform="matrix(0.707107 -0.707107 0.707107 0.707107 4212.24 2524)">LC4</text></g><g><text fill="#595959" font-family="Aptos Narrow,Aptos Narrow_MSFontService,sans-serif" font-weight="400" font-stretch="semi-condensed" font-size="41" transform="matrix(0.707107 -0.707107 0.707107 0.707107 4286.07 2524)">LD9</text></g><g><text fill="#595959" font-family="Aptos Narrow,Aptos Narrow_MSFontService,sans-serif" font-weight="400" font-stretch="semi-condensed" font-size="41" transform="matrix(0.707107 -0.707107 0.707107 0.707107 4338.74 2545)">RWT3</text></g><g><text fill="#595959" font-family="Aptos Narrow,Aptos Narrow_MSFontService,sans-serif" font-weight="400" font-stretch="semi-condensed" font-size="41" transform="matrix(0.707107 -0.707107 0.707107 0.707107 4415.6 2542)">RC11</text></g><g><text fill="#595959" font-family="Aptos Narrow,Aptos Narrow_MSFontService,sans-serif" font-weight="400" font-stretch="semi-condensed" font-size="41" transform="matrix(0.707107 -0.707107 0.707107 0.707107 4504.22 2527)">RD2</text></g><g><text fill="#595959" font-family="Aptos Narrow,Aptos Narrow_MSFontService,sans-serif" font-weight="400" font-stretch="semi-condensed" font-size="41" transform="matrix(0.707107 -0.707107 0.707107 0.707107 4544.98 2560)">RWT39</text></g><g><text fill="#595959" font-family="Aptos Narrow,Aptos Narrow_MSFontService,sans-serif" font-weight="400" font-stretch="semi-condensed" font-size="41" transform="matrix(0.707107 -0.707107 0.707107 0.707107 4651.4 2527)">RC2</text></g><g><text fill="#595959" font-family="Aptos Narrow,Aptos Narrow_MSFontService,sans-serif" font-weight="400" font-stretch="semi-condensed" font-size="41" transform="matrix(0.707107 -0.707107 0.707107 0.707107 4710.45 2542)">RD39</text></g><g><text fill="#595959" font-family="Aptos Narrow,Aptos Narrow_MSFontService,sans-serif" font-weight="400" font-stretch="semi-condensed" font-size="41" transform="matrix(0.707107 -0.707107 0.707107 0.707107 4805.01 2521)">YF9</text></g><g><text fill="#595959" font-family="Aptos Narrow,Aptos Narrow_MSFontService,sans-serif" font-weight="400" font-stretch="semi-condensed" font-size="64" transform="matrix(1 0 0 1 3419.59 1352)">NoTM subtracted</text></g><rect x="2345.5" y="1258.5" width="2581" height="1359" stroke="#D9D9D9" stroke-width="3.4375" stroke-linejoin="round" stroke-miterlimit="10" fill="none"/></g></svg>