<svg width="3232" height="1844" xmlns="http://www.w3.org/2000/svg" xmlns:xlink="http://www.w3.org/1999/xlink" xml:space="preserve" overflow="hidden"><defs><clipPath id="clip0"><rect x="5003" y="371" width="3232" height="1844"/></clipPath></defs><g clip-path="url(#clip0)" transform="translate(-5003 -371)"><rect x="5004" y="372" width="3229" height="1841" fill="#FFFFFF"/><g><path d="M5134.5 1795.56 8182.5 1795.56M5134.5 1656.55 8182.5 1656.55M5134.5 1516.55 8182.5 1516.55M5134.5 1377.55 8182.5 1377.55M5134.5 1238.54 8182.5 1238.54M5134.5 1098.54 8182.5 1098.54M5134.5 959.532 8182.5 959.532M5134.5 820.527 8182.5 820.527M5134.5 680.522 8182.5 680.522M5134.5 541.5 8182.5 541.5" stroke="#D9D9D9" stroke-width="3.4375" stroke-linejoin="round" stroke-miterlimit="10" fill="none"/></g><g><path d="M5159.17 1093.04 5181.17 1093.04 5181.17 1935 5159.17 1935ZM5257.17 1205.04 5279.17 1205.04 5279.17 1935 5257.17 1935ZM5355.18 1150.04 5377.18 1150.04 5377.18 1935 5355.18 1935ZM5453.18 871.029 5476.18 871.029 5476.18 1935 5453.18 1935ZM5552.18 805.026 5574.18 805.026 5574.18 1935 5552.18 1935ZM5650.19 1298.04 5672.19 1298.04 5672.19 1935 5650.19 1935ZM5748.19 970.032 5770.19 970.032 5770.19 1935 5748.19 1935ZM5847.19 1126.04 5869.19 1126.04 5869.19 1935 5847.19 1935ZM5945.2 1200.04 5967.2 1200.04 5967.2 1935 5945.2 1935ZM6043.2 1081.04 6065.2 1081.04 6065.2 1935 6043.2 1935ZM6142.2 1634.05 6164.2 1634.05 6164.2 1935 6142.2 1935ZM6240.21 1251.04 6262.21 1251.04 6262.21 1935 6240.21 1935ZM6338.21 1141.04 6360.21 1141.04 6360.21 1935 6338.21 1935ZM6437.21 1057.03 6459.21 1057.03 6459.21 1935 6437.21 1935ZM6535.21 1428.05 6557.22 1428.05 6557.22 1935 6535.21 1935ZM6633.22 817.027 6655.22 817.027 6655.22 1935 6633.22 1935ZM6732.22 1408.05 6754.22 1408.05 6754.22 1935 6732.22 1935ZM6830.22 1416.05 6852.22 1416.05 6852.22 1935 6830.22 1935ZM6928.23 1344.04 6950.23 1344.04 6950.23 1935 6928.23 1935ZM7026.23 1062.03 7048.23 1062.03 7048.23 1935 7026.23 1935ZM7125.23 1275.04 7147.23 1275.04 7147.23 1935 7125.23 1935ZM7223.24 1377.05 7245.24 1377.05 7245.24 1935 7223.24 1935ZM7321.24 1173.04 7343.24 1173.04 7343.24 1935 7321.24 1935ZM7420.24 1164.04 7442.24 1164.04 7442.24 1935 7420.24 1935ZM7518.25 885.029 7540.25 885.029 7540.25 1935 7518.25 1935ZM7616.25 1473.05 7638.25 1473.05 7638.25 1935 7616.25 1935ZM7715.25 1379.05 7737.25 1379.05 7737.25 1935 7715.25 1935ZM7813.26 939.031 7835.26 939.031 7835.26 1935 7813.26 1935ZM7911.26 1083.04 7933.26 1083.04 7933.26 1935 7911.26 1935ZM8010.26 1093.04 8032.26 1093.04 8032.26 1935 8010.26 1935ZM8108.27 1202.04 8130.27 1202.04 8130.27 1935 8108.27 1935Z" fill="#156082"/></g><g><path d="M5187.17 1056.03 5209.17 1056.03 5209.17 1935 5187.17 1935ZM5285.17 1214.04 5307.17 1214.04 5307.17 1935 5285.17 1935ZM5383.18 1156.04 5405.18 1156.04 5405.18 1935 5383.18 1935ZM5481.18 916.03 5504.18 916.03 5504.18 1935 5481.18 1935ZM5580.18 755.025 5602.18 755.025 5602.18 1935 5580.18 1935ZM5678.19 1164.04 5700.19 1164.04 5700.19 1935 5678.19 1935ZM5776.19 975.032 5798.19 975.032 5798.19 1935 5776.19 1935ZM5875.19 1144.04 5897.19 1144.04 5897.19 1935 5875.19 1935ZM5973.2 1220.04 5995.2 1220.04 5995.2 1935 5973.2 1935ZM6071.2 1015.03 6093.2 1015.03 6093.2 1935 6071.2 1935ZM6170.2 1467.05 6192.2 1467.05 6192.2 1935 6170.2 1935ZM6268.21 1127.04 6290.21 1127.04 6290.21 1935 6268.21 1935ZM6366.21 1048.03 6388.21 1048.03 6388.21 1935 6366.21 1935ZM6465.21 1010.03 6487.21 1010.03 6487.21 1935 6465.21 1935ZM6563.22 1416.05 6585.22 1416.05 6585.22 1935 6563.22 1935ZM6661.22 805.026 6683.22 805.026 6683.22 1935 6661.22 1935ZM6760.22 1409.05 6782.22 1409.05 6782.22 1935 6760.22 1935ZM6858.23 1409.05 6880.23 1409.05 6880.23 1935 6858.23 1935ZM6956.23 1260.04 6978.23 1260.04 6978.23 1935 6956.23 1935ZM7054.23 1059.03 7076.23 1059.03 7076.23 1935 7054.23 1935ZM7153.23 1278.04 7175.24 1278.04 7175.24 1935 7153.23 1935ZM7251.24 1349.04 7273.24 1349.04 7273.24 1935 7251.24 1935ZM7349.24 1165.04 7371.24 1165.04 7371.24 1935 7349.24 1935ZM7448.24 1180.04 7470.25 1180.04 7470.25 1935 7448.24 1935ZM7546.25 819.027 7568.25 819.027 7568.25 1935 7546.25 1935ZM7644.25 1446.05 7666.25 1446.05 7666.25 1935 7644.25 1935ZM7743.25 1127.04 7765.25 1127.04 7765.25 1935 7743.25 1935ZM7841.26 927.03 7863.26 927.03 7863.26 1935 7841.26 1935ZM7939.26 1143.04 7961.26 1143.04 7961.26 1935 7939.26 1935ZM8038.26 1069.04 8060.26 1069.04 8060.26 1935 8038.26 1935ZM8136.27 1243.04 8158.27 1243.04 8158.27 1935 8136.27 1935Z" fill="#E97132"/></g><g><path d="M5169.67 1093.54 5169.67 1120.5M5169.67 1093.54 5169.67 1066.5M5159.5 1120.5 5180.5 1120.5M5159.5 1066.5 5180.5 1066.5" stroke="#595959" stroke-width="3.4375" stroke-linejoin="round" stroke-miterlimit="10" fill="none"/></g><g><path d="M5267.67 1204.54 5267.67 1249.5M5267.67 1204.54 5267.67 1160.5M5257.5 1249.5 5278.5 1249.5M5257.5 1160.5 5278.5 1160.5" stroke="#595959" stroke-width="3.4375" stroke-linejoin="round" stroke-miterlimit="10" fill="none"/></g><g><path d="M5366.68 1149.54 5366.68 1186.5M5366.68 1149.54 5366.68 1112.5M5356.5 1186.5 5376.5 1186.5M5356.5 1112.5 5376.5 1112.5" stroke="#595959" stroke-width="3.4375" stroke-linejoin="round" stroke-miterlimit="10" fill="none"/></g><g><path d="M5464.68 871.529 5464.68 912.5M5464.68 871.529 5464.68 830.5M5454.5 912.5 5475.5 912.5M5454.5 830.5 5475.5 830.5" stroke="#595959" stroke-width="3.4375" stroke-linejoin="round" stroke-miterlimit="10" fill="none"/></g><g><path d="M5562.68 804.527 5562.68 850.5M5562.68 804.527 5562.68 759.5M5552.5 850.5 5573.5 850.5M5552.5 759.5 5573.5 759.5" stroke="#595959" stroke-width="3.4375" stroke-linejoin="round" stroke-miterlimit="10" fill="none"/></g><g><path d="M5661.69 1297.54 5661.69 1324.5M5661.69 1297.54 5661.69 1271.5M5651.5 1324.5 5671.5 1324.5M5651.5 1271.5 5671.5 1271.5" stroke="#595959" stroke-width="3.4375" stroke-linejoin="round" stroke-miterlimit="10" fill="none"/></g><g><path d="M5759.69 969.532 5759.69 1006.5M5759.69 969.532 5759.69 933.5M5749.5 1006.5 5769.5 1006.5M5749.5 933.5 5769.5 933.5" stroke="#595959" stroke-width="3.4375" stroke-linejoin="round" stroke-miterlimit="10" fill="none"/></g><g><path d="M5857.69 1126.54 5857.69 1136.5M5857.69 1126.54 5857.69 1116.5M5847.5 1136.5 5868.5 1136.5M5847.5 1116.5 5868.5 1116.5" stroke="#595959" stroke-width="3.4375" stroke-linejoin="round" stroke-miterlimit="10" fill="none"/></g><g><path d="M5956.7 1199.54 5956.7 1201.5M5956.7 1199.54 5956.7 1198.5M5945.5 1201.5 5966.5 1201.5M5945.5 1198.5 5966.5 1198.5" stroke="#595959" stroke-width="3.4375" stroke-linejoin="round" stroke-miterlimit="10" fill="none"/></g><g><path d="M6054.7 1080.54 6054.7 1096.5M6054.7 1080.54 6054.7 1064.5M6044.5 1096.5 6064.5 1096.5M6044.5 1064.5 6064.5 1064.5" stroke="#595959" stroke-width="3.4375" stroke-linejoin="round" stroke-miterlimit="10" fill="none"/></g><g><path d="M6152.7 1634.55 6152.7 1685.5M6152.7 1634.55 6152.7 1583.5M6142.5 1685.5 6163.5 1685.5M6142.5 1583.5 6163.5 1583.5" stroke="#595959" stroke-width="3.4375" stroke-linejoin="round" stroke-miterlimit="10" fill="none"/></g><g><path d="M6250.71 1250.54 6250.71 1262.5M6250.71 1250.54 6250.71 1238.5M6240.5 1262.5 6261.5 1262.5M6240.5 1238.5 6261.5 1238.5" stroke="#595959" stroke-width="3.4375" stroke-linejoin="round" stroke-miterlimit="10" fill="none"/></g><g><path d="M6349.71 1140.54 6349.71 1175.5M6349.71 1140.54 6349.71 1105.5M6339.5 1175.5 6359.5 1175.5M6339.5 1105.5 6359.5 1105.5" stroke="#595959" stroke-width="3.4375" stroke-linejoin="round" stroke-miterlimit="10" fill="none"/></g><g><path d="M6447.71 1057.53 6447.71 1065.5M6447.71 1057.53 6447.71 1049.5M6437.5 1065.5 6458.5 1065.5M6437.5 1049.5 6458.5 1049.5" stroke="#595959" stroke-width="3.4375" stroke-linejoin="round" stroke-miterlimit="10" fill="none"/></g><g><path d="M6545.71 1428.55 6545.71 1437.5M6545.71 1428.55 6545.71 1418.5M6535.5 1437.5 6556.5 1437.5M6535.5 1418.5 6556.5 1418.5" stroke="#595959" stroke-width="3.4375" stroke-linejoin="round" stroke-miterlimit="10" fill="none"/></g><g><path d="M6644.72 817.527 6644.72 840.5M6644.72 817.527 6644.72 794.5M6634.5 840.5 6654.5 840.5M6634.5 794.5 6654.5 794.5" stroke="#595959" stroke-width="3.4375" stroke-linejoin="round" stroke-miterlimit="10" fill="none"/></g><g><path d="M6742.72 1408.55 6742.72 1421.5M6742.72 1408.55 6742.72 1395.5M6732.5 1421.5 6753.5 1421.5M6732.5 1395.5 6753.5 1395.5" stroke="#595959" stroke-width="3.4375" stroke-linejoin="round" stroke-miterlimit="10" fill="none"/></g><g><path d="M6840.72 1416.55 6840.72 1432.5M6840.72 1416.55 6840.72 1399.5M6830.5 1432.5 6851.5 1432.5M6830.5 1399.5 6851.5 1399.5" stroke="#595959" stroke-width="3.4375" stroke-linejoin="round" stroke-miterlimit="10" fill="none"/></g><g><path d="M6939.73 1344.54 6939.73 1353.5M6939.73 1344.54 6939.73 1335.5M6929.5 1353.5 6949.5 1353.5M6929.5 1335.5 6949.5 1335.5" stroke="#595959" stroke-width="3.4375" stroke-linejoin="round" stroke-miterlimit="10" fill="none"/></g><g><path d="M7037.73 1061.54 7037.73 1070.5M7037.73 1061.54 7037.73 1053.5M7027.5 1070.5 7048.5 1070.5M7027.5 1053.5 7048.5 1053.5" stroke="#595959" stroke-width="3.4375" stroke-linejoin="round" stroke-miterlimit="10" fill="none"/></g><g><path d="M7135.73 1274.54 7135.73 1311.5M7135.73 1274.54 7135.73 1237.5M7125.5 1311.5 7146.5 1311.5M7125.5 1237.5 7146.5 1237.5" stroke="#595959" stroke-width="3.4375" stroke-linejoin="round" stroke-miterlimit="10" fill="none"/></g><g><path d="M7234.74 1376.55 7234.74 1387.5M7234.74 1376.55 7234.74 1366.5M7224.5 1387.5 7244.5 1387.5M7224.5 1366.5 7244.5 1366.5" stroke="#595959" stroke-width="3.4375" stroke-linejoin="round" stroke-miterlimit="10" fill="none"/></g><g><path d="M7332.74 1173.54 7332.74 1190.5M7332.74 1173.54 7332.74 1155.5M7322.5 1190.5 7342.5 1190.5M7322.5 1155.5 7342.5 1155.5" stroke="#595959" stroke-width="3.4375" stroke-linejoin="round" stroke-miterlimit="10" fill="none"/></g><g><path d="M7430.74 1163.54 7430.74 1179.5M7430.74 1163.54 7430.74 1148.5M7420.5 1179.5 7441.5 1179.5M7420.5 1148.5 7441.5 1148.5" stroke="#595959" stroke-width="3.4375" stroke-linejoin="round" stroke-miterlimit="10" fill="none"/></g><g><path d="M7529.75 884.529 7529.75 920.5M7529.75 884.529 7529.75 848.5M7518.5 920.5 7539.5 920.5M7518.5 848.5 7539.5 848.5" stroke="#595959" stroke-width="3.4375" stroke-linejoin="round" stroke-miterlimit="10" fill="none"/></g><g><path d="M7627.75 1473.55 7627.75 1511.5M7627.75 1473.55 7627.75 1435.5M7617.5 1511.5 7637.5 1511.5M7617.5 1435.5 7637.5 1435.5" stroke="#595959" stroke-width="3.4375" stroke-linejoin="round" stroke-miterlimit="10" fill="none"/></g><g><path d="M7725.75 1379.55 7725.75 1392.5M7725.75 1379.55 7725.75 1365.5M7715.5 1392.5 7736.5 1392.5M7715.5 1365.5 7736.5 1365.5" stroke="#595959" stroke-width="3.4375" stroke-linejoin="round" stroke-miterlimit="10" fill="none"/></g><g><path d="M7823.76 939.531 7823.76 953.5M7823.76 939.531 7823.76 924.5M7813.5 953.5 7834.5 953.5M7813.5 924.5 7834.5 924.5" stroke="#595959" stroke-width="3.4375" stroke-linejoin="round" stroke-miterlimit="10" fill="none"/></g><g><path d="M7922.76 1083.54 7922.76 1124.5M7922.76 1083.54 7922.76 1042.5M7912.5 1124.5 7932.5 1124.5M7912.5 1042.5 7932.5 1042.5" stroke="#595959" stroke-width="3.4375" stroke-linejoin="round" stroke-miterlimit="10" fill="none"/></g><g><path d="M8020.76 1093.54 8020.76 1138.5M8020.76 1093.54 8020.76 1048.5M8010.5 1138.5 8031.5 1138.5M8010.5 1048.5 8031.5 1048.5" stroke="#595959" stroke-width="3.4375" stroke-linejoin="round" stroke-miterlimit="10" fill="none"/></g><g><path d="M8118.77 1202.54 8118.77 1214.5M8118.77 1202.54 8118.77 1190.5M8108.5 1214.5 8129.5 1214.5M8108.5 1190.5 8129.5 1190.5" stroke="#595959" stroke-width="3.4375" stroke-linejoin="round" stroke-miterlimit="10" fill="none"/></g><g><path d="M5197.67 1056.53 5197.67 1086.5M5197.67 1056.53 5197.67 1026.5M5187.5 1086.5 5208.5 1086.5M5187.5 1026.5 5208.5 1026.5" stroke="#595959" stroke-width="3.4375" stroke-linejoin="round" stroke-miterlimit="10" fill="none"/></g><g><path d="M5295.67 1213.54 5295.67 1222.5M5295.67 1213.54 5295.67 1204.5M5285.5 1222.5 5306.5 1222.5M5285.5 1204.5 5306.5 1204.5" stroke="#595959" stroke-width="3.4375" stroke-linejoin="round" stroke-miterlimit="10" fill="none"/></g><g><path d="M5394.68 1155.54 5394.68 1170.5M5394.68 1155.54 5394.68 1141.5M5384.5 1170.5 5404.5 1170.5M5384.5 1141.5 5404.5 1141.5" stroke="#595959" stroke-width="3.4375" stroke-linejoin="round" stroke-miterlimit="10" fill="none"/></g><g><path d="M5492.68 916.53 5492.68 934.5M5492.68 916.53 5492.68 897.5M5482.5 934.5 5502.5 934.5M5482.5 897.5 5502.5 897.5" stroke="#595959" stroke-width="3.4375" stroke-linejoin="round" stroke-miterlimit="10" fill="none"/></g><g><path d="M5590.68 754.525 5590.68 766.5M5590.68 754.525 5590.68 743.5M5580.5 766.5 5601.5 766.5M5580.5 743.5 5601.5 743.5" stroke="#595959" stroke-width="3.4375" stroke-linejoin="round" stroke-miterlimit="10" fill="none"/></g><g><path d="M5689.69 1164.54 5689.69 1188.5M5689.69 1164.54 5689.69 1140.5M5678.5 1188.5 5699.5 1188.5M5678.5 1140.5 5699.5 1140.5" stroke="#595959" stroke-width="3.4375" stroke-linejoin="round" stroke-miterlimit="10" fill="none"/></g><g><path d="M5787.69 974.532 5787.69 1033.5M5787.69 974.532 5787.69 916.5M5777.5 1033.5 5797.5 1033.5M5777.5 916.5 5797.5 916.5" stroke="#595959" stroke-width="3.4375" stroke-linejoin="round" stroke-miterlimit="10" fill="none"/></g><g><path d="M5885.69 1143.54 5885.69 1243.5M5885.69 1143.54 5885.69 1044.5M5875.5 1243.5 5896.5 1243.5M5875.5 1044.5 5896.5 1044.5" stroke="#595959" stroke-width="3.4375" stroke-linejoin="round" stroke-miterlimit="10" fill="none"/></g><g><path d="M5984.7 1219.54 5984.7 1271.5M5984.7 1219.54 5984.7 1168.5M5973.5 1271.5 5994.5 1271.5M5973.5 1168.5 5994.5 1168.5" stroke="#595959" stroke-width="3.4375" stroke-linejoin="round" stroke-miterlimit="10" fill="none"/></g><g><path d="M6082.7 1014.53 6082.7 1026.5M6082.7 1014.53 6082.7 1003.5M6072.5 1026.5 6092.5 1026.5M6072.5 1003.5 6092.5 1003.5" stroke="#595959" stroke-width="3.4375" stroke-linejoin="round" stroke-miterlimit="10" fill="none"/></g><g><path d="M6180.7 1466.55 6180.7 1487.5M6180.7 1466.55 6180.7 1446.5M6170.5 1487.5 6191.5 1487.5M6170.5 1446.5 6191.5 1446.5" stroke="#595959" stroke-width="3.4375" stroke-linejoin="round" stroke-miterlimit="10" fill="none"/></g><g><path d="M6278.71 1127.54 6278.71 1130.5M6278.71 1127.54 6278.71 1123.5M6268.5 1130.5 6289.5 1130.5M6268.5 1123.5 6289.5 1123.5" stroke="#595959" stroke-width="3.4375" stroke-linejoin="round" stroke-miterlimit="10" fill="none"/></g><g><path d="M6377.71 1047.53 6377.71 1083.5M6377.71 1047.53 6377.71 1011.5M6367.5 1083.5 6387.5 1083.5M6367.5 1011.5 6387.5 1011.5" stroke="#595959" stroke-width="3.4375" stroke-linejoin="round" stroke-miterlimit="10" fill="none"/></g><g><path d="M6475.71 1009.53 6475.71 1059.5M6475.71 1009.53 6475.71 960.5M6465.5 1059.5 6486.5 1059.5M6465.5 960.5 6486.5 960.5" stroke="#595959" stroke-width="3.4375" stroke-linejoin="round" stroke-miterlimit="10" fill="none"/></g><g><path d="M6573.72 1415.55 6573.72 1425.5M6573.72 1415.55 6573.72 1405.5M6563.5 1425.5 6584.5 1425.5M6563.5 1405.5 6584.5 1405.5" stroke="#595959" stroke-width="3.4375" stroke-linejoin="round" stroke-miterlimit="10" fill="none"/></g><g><path d="M6672.72 804.527 6672.72 833.5M6672.72 804.527 6672.72 776.5M6662.5 833.5 6682.5 833.5M6662.5 776.5 6682.5 776.5" stroke="#595959" stroke-width="3.4375" stroke-linejoin="round" stroke-miterlimit="10" fill="none"/></g><g><path d="M6770.72 1409.55 6770.72 1420.5M6770.72 1409.55 6770.72 1397.5M6760.5 1420.5 6781.5 1420.5M6760.5 1397.5 6781.5 1397.5" stroke="#595959" stroke-width="3.4375" stroke-linejoin="round" stroke-miterlimit="10" fill="none"/></g><g><path d="M6868.73 1409.55 6868.73 1416.5M6868.73 1409.55 6868.73 1401.5M6858.5 1416.5 6879.5 1416.5M6858.5 1401.5 6879.5 1401.5" stroke="#595959" stroke-width="3.4375" stroke-linejoin="round" stroke-miterlimit="10" fill="none"/></g><g><path d="M6967.73 1260.54 6967.73 1265.5M6967.73 1260.54 6967.73 1254.5M6957.5 1265.5 6977.5 1265.5M6957.5 1254.5 6977.5 1254.5" stroke="#595959" stroke-width="3.4375" stroke-linejoin="round" stroke-miterlimit="10" fill="none"/></g><g><path d="M7065.73 1059.53 7065.73 1086.5M7065.73 1059.53 7065.73 1032.5M7055.5 1086.5 7076.5 1086.5M7055.5 1032.5 7076.5 1032.5" stroke="#595959" stroke-width="3.4375" stroke-linejoin="round" stroke-miterlimit="10" fill="none"/></g><g><path d="M7163.74 1278.54 7163.74 1288.5M7163.74 1278.54 7163.74 1268.5M7153.5 1288.5 7174.5 1288.5M7153.5 1268.5 7174.5 1268.5" stroke="#595959" stroke-width="3.4375" stroke-linejoin="round" stroke-miterlimit="10" fill="none"/></g><g><path d="M7262.74 1349.54 7262.74 1376.5M7262.74 1349.54 7262.74 1322.5M7252.5 1376.5 7272.5 1376.5M7252.5 1322.5 7272.5 1322.5" stroke="#595959" stroke-width="3.4375" stroke-linejoin="round" stroke-miterlimit="10" fill="none"/></g><g><path d="M7360.74 1165.54 7360.74 1208.5M7360.74 1165.54 7360.74 1122.5M7350.5 1208.5 7370.5 1208.5M7350.5 1122.5 7370.5 1122.5" stroke="#595959" stroke-width="3.4375" stroke-linejoin="round" stroke-miterlimit="10" fill="none"/></g><g><path d="M7458.75 1180.54 7458.75 1208.5M7458.75 1180.54 7458.75 1152.5M7448.5 1208.5 7469.5 1208.5M7448.5 1152.5 7469.5 1152.5" stroke="#595959" stroke-width="3.4375" stroke-linejoin="round" stroke-miterlimit="10" fill="none"/></g><g><path d="M7557.75 818.527 7557.75 910.5M7557.75 818.527 7557.75 727.5M7546.5 910.5 7567.5 910.5M7546.5 727.5 7567.5 727.5" stroke="#595959" stroke-width="3.4375" stroke-linejoin="round" stroke-miterlimit="10" fill="none"/></g><g><path d="M7655.75 1446.55 7655.75 1499.5M7655.75 1446.55 7655.75 1393.5M7645.5 1499.5 7665.5 1499.5M7645.5 1393.5 7665.5 1393.5" stroke="#595959" stroke-width="3.4375" stroke-linejoin="round" stroke-miterlimit="10" fill="none"/></g><g><path d="M7753.75 1126.54 7753.75 1165.5M7753.75 1126.54 7753.75 1087.5M7743.5 1165.5 7764.5 1165.5M7743.5 1087.5 7764.5 1087.5" stroke="#595959" stroke-width="3.4375" stroke-linejoin="round" stroke-miterlimit="10" fill="none"/></g><g><path d="M7851.76 926.531 7851.76 995.5M7851.76 926.531 7851.76 858.5M7841.5 995.5 7862.5 995.5M7841.5 858.5 7862.5 858.5" stroke="#595959" stroke-width="3.4375" stroke-linejoin="round" stroke-miterlimit="10" fill="none"/></g><g><path d="M7950.76 1142.54 7950.76 1158.5M7950.76 1142.54 7950.76 1127.5M7940.5 1158.5 7960.5 1158.5M7940.5 1127.5 7960.5 1127.5" stroke="#595959" stroke-width="3.4375" stroke-linejoin="round" stroke-miterlimit="10" fill="none"/></g><g><path d="M8048.76 1068.54 8048.76 1081.5M8048.76 1068.54 8048.76 1056.5M8038.5 1081.5 8059.5 1081.5M8038.5 1056.5 8059.5 1056.5" stroke="#595959" stroke-width="3.4375" stroke-linejoin="round" stroke-miterlimit="10" fill="none"/></g><g><path d="M8146.77 1242.54 8146.77 1246.5M8146.77 1242.54 8146.77 1239.5M8136.5 1246.5 8157.5 1246.5M8136.5 1239.5 8157.5 1239.5" stroke="#595959" stroke-width="3.4375" stroke-linejoin="round" stroke-miterlimit="10" fill="none"/></g><g><path d="M5134.5 1934.5 8182.5 1934.5" stroke="#D9D9D9" stroke-width="3.4375" stroke-linejoin="round" stroke-miterlimit="10" fill="none" fill-rule="evenodd"/></g><g><text fill="#595959" font-family="Aptos Narrow,Aptos Narrow_MSFontService,sans-serif" font-weight="400" font-stretch="semi-condensed" font-size="41" transform="matrix(1 0 0 1 5075.61 1946)">0</text></g><g><text fill="#595959" font-family="Aptos Narrow,Aptos Narrow_MSFontService,sans-serif" font-weight="400" font-stretch="semi-condensed" font-size="41" transform="matrix(1 0 0 1 5054.71 1807)">10</text></g><g><text fill="#595959" font-family="Aptos Narrow,Aptos Narrow_MSFontService,sans-serif" font-weight="400" font-stretch="semi-condensed" font-size="41" transform="matrix(1 0 0 1 5054.71 1668)">20</text></g><g><text fill="#595959" font-family="Aptos Narrow,Aptos Narrow_MSFontService,sans-serif" font-weight="400" font-stretch="semi-condensed" font-size="41" transform="matrix(1 0 0 1 5054.71 1528)">30</text></g><g><text fill="#595959" font-family="Aptos Narrow,Aptos Narrow_MSFontService,sans-serif" font-weight="400" font-stretch="semi-condensed" font-size="41" transform="matrix(1 0 0 1 5054.71 1389)">40</text></g><g><text fill="#595959" font-family="Aptos Narrow,Aptos Narrow_MSFontService,sans-serif" font-weight="400" font-stretch="semi-condensed" font-size="41" transform="matrix(1 0 0 1 5054.71 1250)">50</text></g><g><text fill="#595959" font-family="Aptos Narrow,Aptos Narrow_MSFontService,sans-serif" font-weight="400" font-stretch="semi-condensed" font-size="41" transform="matrix(1 0 0 1 5054.71 1110)">60</text></g><g><text fill="#595959" font-family="Aptos Narrow,Aptos Narrow_MSFontService,sans-serif" font-weight="400" font-stretch="semi-condensed" font-size="41" transform="matrix(1 0 0 1 5054.71 971)">70</text></g><g><text fill="#595959" font-family="Aptos Narrow,Aptos Narrow_MSFontService,sans-serif" font-weight="400" font-stretch="semi-condensed" font-size="41" transform="matrix(1 0 0 1 5054.71 832)">80</text></g><g><text fill="#595959" font-family="Aptos Narrow,Aptos Narrow_MSFontService,sans-serif" font-weight="400" font-stretch="semi-condensed" font-size="41" transform="matrix(1 0 0 1 5054.71 692)">90</text></g><g><text fill="#595959" font-family="Aptos Narrow,Aptos Narrow_MSFontService,sans-serif" font-weight="400" font-stretch="semi-condensed" font-size="41" transform="matrix(1 0 0 1 5033.81 553)">100</text></g><g><text fill="#595959" font-family="Aptos Narrow,Aptos Narrow_MSFontService,sans-serif" font-weight="400" font-stretch="semi-condensed" font-size="41" transform="matrix(0.707107 -0.707107 0.707107 0.707107 5165.43 2016)">L4</text></g><g><text fill="#595959" font-family="Aptos Narrow,Aptos Narrow_MSFontService,sans-serif" font-weight="400" font-stretch="semi-condensed" font-size="41" transform="matrix(0.707107 -0.707107 0.707107 0.707107 5230.67 2049)">LD23</text></g><g><text fill="#595959" font-family="Aptos Narrow,Aptos Narrow_MSFontService,sans-serif" font-weight="400" font-stretch="semi-condensed" font-size="41" transform="matrix(0.707107 -0.707107 0.707107 0.707107 5343.6 2035)">LC9</text></g><g><text fill="#595959" font-family="Aptos Narrow,Aptos Narrow_MSFontService,sans-serif" font-weight="400" font-stretch="semi-condensed" font-size="41" transform="matrix(0.707107 -0.707107 0.707107 0.707107 5423.94 2053)">LWT3</text></g><g><text fill="#595959" font-family="Aptos Narrow,Aptos Narrow_MSFontService,sans-serif" font-weight="400" font-stretch="semi-condensed" font-size="41" transform="matrix(0.707107 -0.707107 0.707107 0.707107 5525.61 2049)">LD21</text></g><g><text fill="#595959" font-family="Aptos Narrow,Aptos Narrow_MSFontService,sans-serif" font-weight="400" font-stretch="semi-condensed" font-size="41" transform="matrix(0.707107 -0.707107 0.707107 0.707107 5638.54 2035)">LC2</text></g><g><text fill="#595959" font-family="Aptos Narrow,Aptos Narrow_MSFontService,sans-serif" font-weight="400" font-stretch="semi-condensed" font-size="41" transform="matrix(0.707107 -0.707107 0.707107 0.707107 5755.31 2016)">L8</text></g><g><text fill="#595959" font-family="Aptos Narrow,Aptos Narrow_MSFontService,sans-serif" font-weight="400" font-stretch="semi-condensed" font-size="41" transform="matrix(0.707107 -0.707107 0.707107 0.707107 5835.32 2035)">LD9</text></g><g><text fill="#595959" font-family="Aptos Narrow,Aptos Narrow_MSFontService,sans-serif" font-weight="400" font-stretch="semi-condensed" font-size="41" transform="matrix(0.707107 -0.707107 0.707107 0.707107 5933.47 2035)">LC4</text></g><g><text fill="#595959" font-family="Aptos Narrow,Aptos Narrow_MSFontService,sans-serif" font-weight="400" font-stretch="semi-condensed" font-size="41" transform="matrix(0.707107 -0.707107 0.707107 0.707107 5996.17 2070)">RWT34</text></g><g><text fill="#595959" font-family="Aptos Narrow,Aptos Narrow_MSFontService,sans-serif" font-weight="400" font-stretch="semi-condensed" font-size="41" transform="matrix(0.707107 -0.707107 0.707107 0.707107 6112.62 2052)">RD17</text></g><g><text fill="#595959" font-family="Aptos Narrow,Aptos Narrow_MSFontService,sans-serif" font-weight="400" font-stretch="semi-condensed" font-size="41" transform="matrix(0.707107 -0.707107 0.707107 0.707107 6225.54 2038)">RC8</text></g><g><text fill="#595959" font-family="Aptos Narrow,Aptos Narrow_MSFontService,sans-serif" font-weight="400" font-stretch="semi-condensed" font-size="41" transform="matrix(0.707107 -0.707107 0.707107 0.707107 6291.11 2070)">RWT40</text></g><g><text fill="#595959" font-family="Aptos Narrow,Aptos Narrow_MSFontService,sans-serif" font-weight="400" font-stretch="semi-condensed" font-size="41" transform="matrix(0.707107 -0.707107 0.707107 0.707107 6407.55 2052)">RD52</text></g><g><text fill="#595959" font-family="Aptos Narrow,Aptos Narrow_MSFontService,sans-serif" font-weight="400" font-stretch="semi-condensed" font-size="41" transform="matrix(0.707107 -0.707107 0.707107 0.707107 6520.48 2038)">RC1</text></g><g><text fill="#595959" font-family="Aptos Narrow,Aptos Narrow_MSFontService,sans-serif" font-weight="400" font-stretch="semi-condensed" font-size="41" transform="matrix(0.707107 -0.707107 0.707107 0.707107 6600.83 2056)">RWT3</text></g><g><text fill="#595959" font-family="Aptos Narrow,Aptos Narrow_MSFontService,sans-serif" font-weight="400" font-stretch="semi-condensed" font-size="41" transform="matrix(0.707107 -0.707107 0.707107 0.707107 6717.27 2037)">RD2</text></g><g><text fill="#595959" font-family="Aptos Narrow,Aptos Narrow_MSFontService,sans-serif" font-weight="400" font-stretch="semi-condensed" font-size="41" transform="matrix(0.707107 -0.707107 0.707107 0.707107 6800.65 2052)">RC11</text></g><g><text fill="#595959" font-family="Aptos Narrow,Aptos Narrow_MSFontService,sans-serif" font-weight="400" font-stretch="semi-condensed" font-size="41" transform="matrix(0.707107 -0.707107 0.707107 0.707107 6912.54 2039)">M18</text></g><g><text fill="#595959" font-family="Aptos Narrow,Aptos Narrow_MSFontService,sans-serif" font-weight="400" font-stretch="semi-condensed" font-size="41" transform="matrix(0.707107 -0.707107 0.707107 0.707107 6979.3 2070)">RWT39</text></g><g><text fill="#595959" font-family="Aptos Narrow,Aptos Narrow_MSFontService,sans-serif" font-weight="400" font-stretch="semi-condensed" font-size="41" transform="matrix(0.707107 -0.707107 0.707107 0.707107 7095.75 2052)">RD39</text></g><g><text fill="#595959" font-family="Aptos Narrow,Aptos Narrow_MSFontService,sans-serif" font-weight="400" font-stretch="semi-condensed" font-size="41" transform="matrix(0.707107 -0.707107 0.707107 0.707107 7208.68 2038)">RC2</text></g><g><text fill="#595959" font-family="Aptos Narrow,Aptos Narrow_MSFontService,sans-serif" font-weight="400" font-stretch="semi-condensed" font-size="41" transform="matrix(0.707107 -0.707107 0.707107 0.707107 7313.26 2031)">YF9</text></g><g><text fill="#595959" font-family="Aptos Narrow,Aptos Narrow_MSFontService,sans-serif" font-weight="400" font-stretch="semi-condensed" font-size="41" transform="matrix(0.707107 -0.707107 0.707107 0.707107 7372.55 2070)">RWT38</text></g><g><text fill="#595959" font-family="Aptos Narrow,Aptos Narrow_MSFontService,sans-serif" font-weight="400" font-stretch="semi-condensed" font-size="41" transform="matrix(0.707107 -0.707107 0.707107 0.707107 7503.78 2037)">RD3</text></g><g><text fill="#595959" font-family="Aptos Narrow,Aptos Narrow_MSFontService,sans-serif" font-weight="400" font-stretch="semi-condensed" font-size="41" transform="matrix(0.707107 -0.707107 0.707107 0.707107 7600.73 2039)">M17</text></g><g><text fill="#595959" font-family="Aptos Narrow,Aptos Narrow_MSFontService,sans-serif" font-weight="400" font-stretch="semi-condensed" font-size="41" transform="matrix(0.707107 -0.707107 0.707107 0.707107 7706.51 2031)">YF3</text></g><g><text fill="#595959" font-family="Aptos Narrow,Aptos Narrow_MSFontService,sans-serif" font-weight="400" font-stretch="semi-condensed" font-size="41" transform="matrix(0.707107 -0.707107 0.707107 0.707107 7797.35 2039)">M27</text></g><g><text fill="#595959" font-family="Aptos Narrow,Aptos Narrow_MSFontService,sans-serif" font-weight="400" font-stretch="semi-condensed" font-size="41" transform="matrix(0.707107 -0.707107 0.707107 0.707107 7882.25 2052)">RD53</text></g><g><text fill="#595959" font-family="Aptos Narrow,Aptos Narrow_MSFontService,sans-serif" font-weight="400" font-stretch="semi-condensed" font-size="41" transform="matrix(0.707107 -0.707107 0.707107 0.707107 7995.18 2038)">RC6</text></g><g><text fill="#595959" font-family="Aptos Narrow,Aptos Narrow_MSFontService,sans-serif" font-weight="400" font-stretch="semi-condensed" font-size="41" transform="matrix(0.707107 -0.707107 0.707107 0.707107 8099.76 2031)">YF7</text></g><g><text fill="#595959" font-family="Aptos Narrow,Aptos Narrow_MSFontService,sans-serif" font-weight="400" font-stretch="semi-condensed" font-size="64" transform="matrix(1 0 0 1 6486.7 466)">Chart Title</text></g><g><rect x="6454" y="2135" width="23" height="23" fill="#156082"/></g><g><text fill="#595959" font-family="Aptos Narrow,Aptos Narrow_MSFontService,sans-serif" font-weight="400" font-stretch="semi-condensed" font-size="41" transform="matrix(1 0 0 1 6486.29 2158)">Series1</text></g><g><rect x="6644" y="2135" width="23" height="23" fill="#E97132"/></g><g><text fill="#595959" font-family="Aptos Narrow,Aptos Narrow_MSFontService,sans-serif" font-weight="400" font-stretch="semi-condensed" font-size="41" transform="matrix(1 0 0 1 6676.59 2158)">Series2</text></g><rect x="5004.5" y="372.5" width="3229" height="1841" stroke="#D9D9D9" stroke-width="3.4375" stroke-linejoin="round" stroke-miterlimit="10" fill="none"/></g></svg>