<?xml version="1.0" encoding="utf-8" standalone="no"?>
<!DOCTYPE svg PUBLIC "-//W3C//DTD SVG 1.1//EN"
  "http://www.w3.org/Graphics/SVG/1.1/DTD/svg11.dtd">
<svg xmlns:xlink="http://www.w3.org/1999/xlink" width="460.8pt" height="345.6pt" viewBox="0 0 460.8 345.6" xmlns="http://www.w3.org/2000/svg" version="1.1">
 <metadata>
  <rdf:RDF xmlns:dc="http://purl.org/dc/elements/1.1/" xmlns:cc="http://creativecommons.org/ns#" xmlns:rdf="http://www.w3.org/1999/02/22-rdf-syntax-ns#">
   <cc:Work>
    <dc:type rdf:resource="http://purl.org/dc/dcmitype/StillImage"/>
    <dc:date>2024-02-20T13:07:25.211690</dc:date>
    <dc:format>image/svg+xml</dc:format>
    <dc:creator>
     <cc:Agent>
      <dc:title>Matplotlib v3.7.1, https://matplotlib.org/</dc:title>
     </cc:Agent>
    </dc:creator>
   </cc:Work>
  </rdf:RDF>
 </metadata>
 <defs>
  <style type="text/css">*{stroke-linejoin: round; stroke-linecap: butt}</style>
 </defs>
 <g id="figure_1">
  <g id="patch_1">
   <path d="M 0 345.6 
L 460.8 345.6 
L 460.8 0 
L 0 0 
z
" style="fill: #ffffff"/>
  </g>
  <g id="axes_1">
   <g id="patch_2">
    <path d="M 63.57125 303.64 
L 450 303.64 
L 450 13.022721 
L 63.57125 13.022721 
z
" style="fill: #ffffff"/>
   </g>
   <g id="matplotlib.axis_1">
    <g id="xtick_1">
     <g id="text_1">
      <!-- G -->
      <g style="fill: #262626" transform="translate(252.911406 318.238437) scale(0.1 -0.1)">
       <defs>
        <path id="DejaVuSans-47" d="M 3809 666 
L 3809 1919 
L 2778 1919 
L 2778 2438 
L 4434 2438 
L 4434 434 
Q 4069 175 3628 42 
Q 3188 -91 2688 -91 
Q 1594 -91 976 548 
Q 359 1188 359 2328 
Q 359 3472 976 4111 
Q 1594 4750 2688 4750 
Q 3144 4750 3555 4637 
Q 3966 4525 4313 4306 
L 4313 3634 
Q 3963 3931 3569 4081 
Q 3175 4231 2741 4231 
Q 1884 4231 1454 3753 
Q 1025 3275 1025 2328 
Q 1025 1384 1454 906 
Q 1884 428 2741 428 
Q 3075 428 3337 486 
Q 3600 544 3809 666 
z
" transform="scale(0.015625)"/>
       </defs>
       <use xlink:href="#DejaVuSans-47"/>
      </g>
     </g>
    </g>
    <g id="text_2">
     <!-- WT_AA -->
     <g style="fill: #262626" transform="translate(239.309844 331.638437) scale(0.1 -0.1)">
      <defs>
       <path id="DejaVuSans-57" d="M 213 4666 
L 850 4666 
L 1831 722 
L 2809 4666 
L 3519 4666 
L 4500 722 
L 5478 4666 
L 6119 4666 
L 4947 0 
L 4153 0 
L 3169 4050 
L 2175 0 
L 1381 0 
L 213 4666 
z
" transform="scale(0.015625)"/>
       <path id="DejaVuSans-54" d="M -19 4666 
L 3928 4666 
L 3928 4134 
L 2272 4134 
L 2272 0 
L 1638 0 
L 1638 4134 
L -19 4134 
L -19 4666 
z
" transform="scale(0.015625)"/>
       <path id="DejaVuSans-5f" d="M 3263 -1063 
L 3263 -1509 
L -63 -1509 
L -63 -1063 
L 3263 -1063 
z
" transform="scale(0.015625)"/>
       <path id="DejaVuSans-41" d="M 2188 4044 
L 1331 1722 
L 3047 1722 
L 2188 4044 
z
M 1831 4666 
L 2547 4666 
L 4325 0 
L 3669 0 
L 3244 1197 
L 1141 1197 
L 716 0 
L 50 0 
L 1831 4666 
z
" transform="scale(0.015625)"/>
      </defs>
      <use xlink:href="#DejaVuSans-57"/>
      <use xlink:href="#DejaVuSans-54" x="98.876953"/>
      <use xlink:href="#DejaVuSans-5f" x="159.960938"/>
      <use xlink:href="#DejaVuSans-41" x="209.960938"/>
      <use xlink:href="#DejaVuSans-41" x="281.119141"/>
     </g>
    </g>
   </g>
   <g id="matplotlib.axis_2">
    <g id="ytick_1">
     <g id="line2d_1">
      <path d="M 63.57125 303.64 
L 450 303.64 
" clip-path="url(#pa0e20ee6db)" style="fill: none; stroke: #cccccc; stroke-width: 0.8; stroke-linecap: round"/>
     </g>
     <g id="text_3">
      <!-- 0 -->
      <g style="fill: #262626" transform="translate(50.20875 307.439219) scale(0.1 -0.1)">
       <defs>
        <path id="DejaVuSans-30" d="M 2034 4250 
Q 1547 4250 1301 3770 
Q 1056 3291 1056 2328 
Q 1056 1369 1301 889 
Q 1547 409 2034 409 
Q 2525 409 2770 889 
Q 3016 1369 3016 2328 
Q 3016 3291 2770 3770 
Q 2525 4250 2034 4250 
z
M 2034 4750 
Q 2819 4750 3233 4129 
Q 3647 3509 3647 2328 
Q 3647 1150 3233 529 
Q 2819 -91 2034 -91 
Q 1250 -91 836 529 
Q 422 1150 422 2328 
Q 422 3509 836 4129 
Q 1250 4750 2034 4750 
z
" transform="scale(0.015625)"/>
       </defs>
       <use xlink:href="#DejaVuSans-30"/>
      </g>
     </g>
    </g>
    <g id="ytick_2">
     <g id="line2d_2">
      <path d="M 63.57125 262.414418 
L 450 262.414418 
" clip-path="url(#pa0e20ee6db)" style="fill: none; stroke: #cccccc; stroke-width: 0.8; stroke-linecap: round"/>
     </g>
     <g id="text_4">
      <!-- 5000 -->
      <g style="fill: #262626" transform="translate(31.12125 266.213637) scale(0.1 -0.1)">
       <defs>
        <path id="DejaVuSans-35" d="M 691 4666 
L 3169 4666 
L 3169 4134 
L 1269 4134 
L 1269 2991 
Q 1406 3038 1543 3061 
Q 1681 3084 1819 3084 
Q 2600 3084 3056 2656 
Q 3513 2228 3513 1497 
Q 3513 744 3044 326 
Q 2575 -91 1722 -91 
Q 1428 -91 1123 -41 
Q 819 9 494 109 
L 494 744 
Q 775 591 1075 516 
Q 1375 441 1709 441 
Q 2250 441 2565 725 
Q 2881 1009 2881 1497 
Q 2881 1984 2565 2268 
Q 2250 2553 1709 2553 
Q 1456 2553 1204 2497 
Q 953 2441 691 2322 
L 691 4666 
z
" transform="scale(0.015625)"/>
       </defs>
       <use xlink:href="#DejaVuSans-35"/>
       <use xlink:href="#DejaVuSans-30" x="63.623047"/>
       <use xlink:href="#DejaVuSans-30" x="127.246094"/>
       <use xlink:href="#DejaVuSans-30" x="190.869141"/>
      </g>
     </g>
    </g>
    <g id="ytick_3">
     <g id="line2d_3">
      <path d="M 63.57125 221.188836 
L 450 221.188836 
" clip-path="url(#pa0e20ee6db)" style="fill: none; stroke: #cccccc; stroke-width: 0.8; stroke-linecap: round"/>
     </g>
     <g id="text_5">
      <!-- 10000 -->
      <g style="fill: #262626" transform="translate(24.75875 224.988054) scale(0.1 -0.1)">
       <defs>
        <path id="DejaVuSans-31" d="M 794 531 
L 1825 531 
L 1825 4091 
L 703 3866 
L 703 4441 
L 1819 4666 
L 2450 4666 
L 2450 531 
L 3481 531 
L 3481 0 
L 794 0 
L 794 531 
z
" transform="scale(0.015625)"/>
       </defs>
       <use xlink:href="#DejaVuSans-31"/>
       <use xlink:href="#DejaVuSans-30" x="63.623047"/>
       <use xlink:href="#DejaVuSans-30" x="127.246094"/>
       <use xlink:href="#DejaVuSans-30" x="190.869141"/>
       <use xlink:href="#DejaVuSans-30" x="254.492188"/>
      </g>
     </g>
    </g>
    <g id="ytick_4">
     <g id="line2d_4">
      <path d="M 63.57125 179.963254 
L 450 179.963254 
" clip-path="url(#pa0e20ee6db)" style="fill: none; stroke: #cccccc; stroke-width: 0.8; stroke-linecap: round"/>
     </g>
     <g id="text_6">
      <!-- 15000 -->
      <g style="fill: #262626" transform="translate(24.75875 183.762472) scale(0.1 -0.1)">
       <use xlink:href="#DejaVuSans-31"/>
       <use xlink:href="#DejaVuSans-35" x="63.623047"/>
       <use xlink:href="#DejaVuSans-30" x="127.246094"/>
       <use xlink:href="#DejaVuSans-30" x="190.869141"/>
       <use xlink:href="#DejaVuSans-30" x="254.492188"/>
      </g>
     </g>
    </g>
    <g id="ytick_5">
     <g id="line2d_5">
      <path d="M 63.57125 138.737671 
L 450 138.737671 
" clip-path="url(#pa0e20ee6db)" style="fill: none; stroke: #cccccc; stroke-width: 0.8; stroke-linecap: round"/>
     </g>
     <g id="text_7">
      <!-- 20000 -->
      <g style="fill: #262626" transform="translate(24.75875 142.53689) scale(0.1 -0.1)">
       <defs>
        <path id="DejaVuSans-32" d="M 1228 531 
L 3431 531 
L 3431 0 
L 469 0 
L 469 531 
Q 828 903 1448 1529 
Q 2069 2156 2228 2338 
Q 2531 2678 2651 2914 
Q 2772 3150 2772 3378 
Q 2772 3750 2511 3984 
Q 2250 4219 1831 4219 
Q 1534 4219 1204 4116 
Q 875 4013 500 3803 
L 500 4441 
Q 881 4594 1212 4672 
Q 1544 4750 1819 4750 
Q 2544 4750 2975 4387 
Q 3406 4025 3406 3419 
Q 3406 3131 3298 2873 
Q 3191 2616 2906 2266 
Q 2828 2175 2409 1742 
Q 1991 1309 1228 531 
z
" transform="scale(0.015625)"/>
       </defs>
       <use xlink:href="#DejaVuSans-32"/>
       <use xlink:href="#DejaVuSans-30" x="63.623047"/>
       <use xlink:href="#DejaVuSans-30" x="127.246094"/>
       <use xlink:href="#DejaVuSans-30" x="190.869141"/>
       <use xlink:href="#DejaVuSans-30" x="254.492188"/>
      </g>
     </g>
    </g>
    <g id="ytick_6">
     <g id="line2d_6">
      <path d="M 63.57125 97.512089 
L 450 97.512089 
" clip-path="url(#pa0e20ee6db)" style="fill: none; stroke: #cccccc; stroke-width: 0.8; stroke-linecap: round"/>
     </g>
     <g id="text_8">
      <!-- 25000 -->
      <g style="fill: #262626" transform="translate(24.75875 101.311308) scale(0.1 -0.1)">
       <use xlink:href="#DejaVuSans-32"/>
       <use xlink:href="#DejaVuSans-35" x="63.623047"/>
       <use xlink:href="#DejaVuSans-30" x="127.246094"/>
       <use xlink:href="#DejaVuSans-30" x="190.869141"/>
       <use xlink:href="#DejaVuSans-30" x="254.492188"/>
      </g>
     </g>
    </g>
    <g id="ytick_7">
     <g id="line2d_7">
      <path d="M 63.57125 56.286507 
L 450 56.286507 
" clip-path="url(#pa0e20ee6db)" style="fill: none; stroke: #cccccc; stroke-width: 0.8; stroke-linecap: round"/>
     </g>
     <g id="text_9">
      <!-- 30000 -->
      <g style="fill: #262626" transform="translate(24.75875 60.085726) scale(0.1 -0.1)">
       <defs>
        <path id="DejaVuSans-33" d="M 2597 2516 
Q 3050 2419 3304 2112 
Q 3559 1806 3559 1356 
Q 3559 666 3084 287 
Q 2609 -91 1734 -91 
Q 1441 -91 1130 -33 
Q 819 25 488 141 
L 488 750 
Q 750 597 1062 519 
Q 1375 441 1716 441 
Q 2309 441 2620 675 
Q 2931 909 2931 1356 
Q 2931 1769 2642 2001 
Q 2353 2234 1838 2234 
L 1294 2234 
L 1294 2753 
L 1863 2753 
Q 2328 2753 2575 2939 
Q 2822 3125 2822 3475 
Q 2822 3834 2567 4026 
Q 2313 4219 1838 4219 
Q 1578 4219 1281 4162 
Q 984 4106 628 3988 
L 628 4550 
Q 988 4650 1302 4700 
Q 1616 4750 1894 4750 
Q 2613 4750 3031 4423 
Q 3450 4097 3450 3541 
Q 3450 3153 3228 2886 
Q 3006 2619 2597 2516 
z
" transform="scale(0.015625)"/>
       </defs>
       <use xlink:href="#DejaVuSans-33"/>
       <use xlink:href="#DejaVuSans-30" x="63.623047"/>
       <use xlink:href="#DejaVuSans-30" x="127.246094"/>
       <use xlink:href="#DejaVuSans-30" x="190.869141"/>
       <use xlink:href="#DejaVuSans-30" x="254.492188"/>
      </g>
     </g>
    </g>
    <g id="ytick_8">
     <g id="line2d_8">
      <path d="M 63.57125 15.060925 
L 450 15.060925 
" clip-path="url(#pa0e20ee6db)" style="fill: none; stroke: #cccccc; stroke-width: 0.8; stroke-linecap: round"/>
     </g>
     <g id="text_10">
      <!-- 35000 -->
      <g style="fill: #262626" transform="translate(24.75875 18.860144) scale(0.1 -0.1)">
       <use xlink:href="#DejaVuSans-33"/>
       <use xlink:href="#DejaVuSans-35" x="63.623047"/>
       <use xlink:href="#DejaVuSans-30" x="127.246094"/>
       <use xlink:href="#DejaVuSans-30" x="190.869141"/>
       <use xlink:href="#DejaVuSans-30" x="254.492188"/>
      </g>
     </g>
    </g>
    <g id="text_11">
     <!-- toxgreen_fluor -->
     <g style="fill: #262626" transform="translate(18.400937 194.525892) rotate(-90) scale(0.1 -0.1)">
      <defs>
       <path id="DejaVuSans-74" d="M 1172 4494 
L 1172 3500 
L 2356 3500 
L 2356 3053 
L 1172 3053 
L 1172 1153 
Q 1172 725 1289 603 
Q 1406 481 1766 481 
L 2356 481 
L 2356 0 
L 1766 0 
Q 1100 0 847 248 
Q 594 497 594 1153 
L 594 3053 
L 172 3053 
L 172 3500 
L 594 3500 
L 594 4494 
L 1172 4494 
z
" transform="scale(0.015625)"/>
       <path id="DejaVuSans-6f" d="M 1959 3097 
Q 1497 3097 1228 2736 
Q 959 2375 959 1747 
Q 959 1119 1226 758 
Q 1494 397 1959 397 
Q 2419 397 2687 759 
Q 2956 1122 2956 1747 
Q 2956 2369 2687 2733 
Q 2419 3097 1959 3097 
z
M 1959 3584 
Q 2709 3584 3137 3096 
Q 3566 2609 3566 1747 
Q 3566 888 3137 398 
Q 2709 -91 1959 -91 
Q 1206 -91 779 398 
Q 353 888 353 1747 
Q 353 2609 779 3096 
Q 1206 3584 1959 3584 
z
" transform="scale(0.015625)"/>
       <path id="DejaVuSans-78" d="M 3513 3500 
L 2247 1797 
L 3578 0 
L 2900 0 
L 1881 1375 
L 863 0 
L 184 0 
L 1544 1831 
L 300 3500 
L 978 3500 
L 1906 2253 
L 2834 3500 
L 3513 3500 
z
" transform="scale(0.015625)"/>
       <path id="DejaVuSans-67" d="M 2906 1791 
Q 2906 2416 2648 2759 
Q 2391 3103 1925 3103 
Q 1463 3103 1205 2759 
Q 947 2416 947 1791 
Q 947 1169 1205 825 
Q 1463 481 1925 481 
Q 2391 481 2648 825 
Q 2906 1169 2906 1791 
z
M 3481 434 
Q 3481 -459 3084 -895 
Q 2688 -1331 1869 -1331 
Q 1566 -1331 1297 -1286 
Q 1028 -1241 775 -1147 
L 775 -588 
Q 1028 -725 1275 -790 
Q 1522 -856 1778 -856 
Q 2344 -856 2625 -561 
Q 2906 -266 2906 331 
L 2906 616 
Q 2728 306 2450 153 
Q 2172 0 1784 0 
Q 1141 0 747 490 
Q 353 981 353 1791 
Q 353 2603 747 3093 
Q 1141 3584 1784 3584 
Q 2172 3584 2450 3431 
Q 2728 3278 2906 2969 
L 2906 3500 
L 3481 3500 
L 3481 434 
z
" transform="scale(0.015625)"/>
       <path id="DejaVuSans-72" d="M 2631 2963 
Q 2534 3019 2420 3045 
Q 2306 3072 2169 3072 
Q 1681 3072 1420 2755 
Q 1159 2438 1159 1844 
L 1159 0 
L 581 0 
L 581 3500 
L 1159 3500 
L 1159 2956 
Q 1341 3275 1631 3429 
Q 1922 3584 2338 3584 
Q 2397 3584 2469 3576 
Q 2541 3569 2628 3553 
L 2631 2963 
z
" transform="scale(0.015625)"/>
       <path id="DejaVuSans-65" d="M 3597 1894 
L 3597 1613 
L 953 1613 
Q 991 1019 1311 708 
Q 1631 397 2203 397 
Q 2534 397 2845 478 
Q 3156 559 3463 722 
L 3463 178 
Q 3153 47 2828 -22 
Q 2503 -91 2169 -91 
Q 1331 -91 842 396 
Q 353 884 353 1716 
Q 353 2575 817 3079 
Q 1281 3584 2069 3584 
Q 2775 3584 3186 3129 
Q 3597 2675 3597 1894 
z
M 3022 2063 
Q 3016 2534 2758 2815 
Q 2500 3097 2075 3097 
Q 1594 3097 1305 2825 
Q 1016 2553 972 2059 
L 3022 2063 
z
" transform="scale(0.015625)"/>
       <path id="DejaVuSans-6e" d="M 3513 2113 
L 3513 0 
L 2938 0 
L 2938 2094 
Q 2938 2591 2744 2837 
Q 2550 3084 2163 3084 
Q 1697 3084 1428 2787 
Q 1159 2491 1159 1978 
L 1159 0 
L 581 0 
L 581 3500 
L 1159 3500 
L 1159 2956 
Q 1366 3272 1645 3428 
Q 1925 3584 2291 3584 
Q 2894 3584 3203 3211 
Q 3513 2838 3513 2113 
z
" transform="scale(0.015625)"/>
       <path id="DejaVuSans-66" d="M 2375 4863 
L 2375 4384 
L 1825 4384 
Q 1516 4384 1395 4259 
Q 1275 4134 1275 3809 
L 1275 3500 
L 2222 3500 
L 2222 3053 
L 1275 3053 
L 1275 0 
L 697 0 
L 697 3053 
L 147 3053 
L 147 3500 
L 697 3500 
L 697 3744 
Q 697 4328 969 4595 
Q 1241 4863 1831 4863 
L 2375 4863 
z
" transform="scale(0.015625)"/>
       <path id="DejaVuSans-6c" d="M 603 4863 
L 1178 4863 
L 1178 0 
L 603 0 
L 603 4863 
z
" transform="scale(0.015625)"/>
       <path id="DejaVuSans-75" d="M 544 1381 
L 544 3500 
L 1119 3500 
L 1119 1403 
Q 1119 906 1312 657 
Q 1506 409 1894 409 
Q 2359 409 2629 706 
Q 2900 1003 2900 1516 
L 2900 3500 
L 3475 3500 
L 3475 0 
L 2900 0 
L 2900 538 
Q 2691 219 2414 64 
Q 2138 -91 1772 -91 
Q 1169 -91 856 284 
Q 544 659 544 1381 
z
M 1991 3584 
L 1991 3584 
z
" transform="scale(0.015625)"/>
      </defs>
      <use xlink:href="#DejaVuSans-74"/>
      <use xlink:href="#DejaVuSans-6f" x="39.208984"/>
      <use xlink:href="#DejaVuSans-78" x="97.265625"/>
      <use xlink:href="#DejaVuSans-67" x="156.445312"/>
      <use xlink:href="#DejaVuSans-72" x="219.921875"/>
      <use xlink:href="#DejaVuSans-65" x="258.785156"/>
      <use xlink:href="#DejaVuSans-65" x="320.308594"/>
      <use xlink:href="#DejaVuSans-6e" x="381.832031"/>
      <use xlink:href="#DejaVuSans-5f" x="445.210938"/>
      <use xlink:href="#DejaVuSans-66" x="495.210938"/>
      <use xlink:href="#DejaVuSans-6c" x="530.416016"/>
      <use xlink:href="#DejaVuSans-75" x="558.199219"/>
      <use xlink:href="#DejaVuSans-6f" x="621.578125"/>
      <use xlink:href="#DejaVuSans-72" x="682.759766"/>
     </g>
    </g>
   </g>
   <g id="patch_3">
    <path d="M 103.75984 264.325477 
L 255.23991 264.325477 
L 255.23991 248.811467 
L 103.75984 248.811467 
L 103.75984 264.325477 
z
" clip-path="url(#pa0e20ee6db)" style="fill: #ecf2ec; stroke: #262626; stroke-width: 1.5; stroke-linejoin: miter"/>
   </g>
   <g id="patch_4">
    <path d="M 258.33134 242.904532 
L 409.81141 242.904532 
L 409.81141 99.680701 
L 258.33134 99.680701 
L 258.33134 242.904532 
z
" clip-path="url(#pa0e20ee6db)" style="fill: #107010; stroke: #262626; stroke-width: 1.5; stroke-linejoin: miter"/>
   </g>
   <g id="patch_5">
    <path d="M 256.785625 303.64 
L 256.785625 303.64 
L 256.785625 303.64 
L 256.785625 303.64 
z
" clip-path="url(#pa0e20ee6db)" style="fill: #ecf2ec; stroke: #262626; stroke-width: 0.75; stroke-linejoin: miter"/>
   </g>
   <g id="patch_6">
    <path d="M 256.785625 303.64 
L 256.785625 303.64 
L 256.785625 303.64 
L 256.785625 303.64 
z
" clip-path="url(#pa0e20ee6db)" style="fill: #107010; stroke: #262626; stroke-width: 0.75; stroke-linejoin: miter"/>
   </g>
   <g id="PathCollection_1"/>
   <g id="PathCollection_2"/>
   <g id="line2d_9">
    <path d="M 179.499875 264.325477 
L 179.499875 278.40479 
" clip-path="url(#pa0e20ee6db)" style="fill: none; stroke: #262626; stroke-width: 1.5; stroke-linecap: round"/>
   </g>
   <g id="line2d_10">
    <path d="M 179.499875 248.811467 
L 179.499875 227.20714 
" clip-path="url(#pa0e20ee6db)" style="fill: none; stroke: #262626; stroke-width: 1.5; stroke-linecap: round"/>
   </g>
   <g id="line2d_11">
    <path d="M 141.629857 278.40479 
L 217.369892 278.40479 
" clip-path="url(#pa0e20ee6db)" style="fill: none; stroke: #262626; stroke-width: 1.5; stroke-linecap: round"/>
   </g>
   <g id="line2d_12">
    <path d="M 141.629857 227.20714 
L 217.369892 227.20714 
" clip-path="url(#pa0e20ee6db)" style="fill: none; stroke: #262626; stroke-width: 1.5; stroke-linecap: round"/>
   </g>
   <g id="line2d_13">
    <defs>
     <path id="ma0d780c22f" d="M -0 1.414214 
L 0.848528 0 
L 0 -1.414214 
L -0.848528 -0 
z
" style="stroke: #262626; stroke-linejoin: miter"/>
    </defs>
    <g clip-path="url(#pa0e20ee6db)">
     <use xlink:href="#ma0d780c22f" x="179.499875" y="218.739275" style="fill: #262626; stroke: #262626; stroke-linejoin: miter"/>
     <use xlink:href="#ma0d780c22f" x="179.499875" y="214.085786" style="fill: #262626; stroke: #262626; stroke-linejoin: miter"/>
     <use xlink:href="#ma0d780c22f" x="179.499875" y="138.283096" style="fill: #262626; stroke: #262626; stroke-linejoin: miter"/>
    </g>
   </g>
   <g id="line2d_14">
    <path d="M 334.071375 242.904532 
L 334.071375 273.432435 
" clip-path="url(#pa0e20ee6db)" style="fill: none; stroke: #262626; stroke-width: 1.5; stroke-linecap: round"/>
   </g>
   <g id="line2d_15">
    <path d="M 334.071375 99.680701 
L 334.071375 39.442474 
" clip-path="url(#pa0e20ee6db)" style="fill: none; stroke: #262626; stroke-width: 1.5; stroke-linecap: round"/>
   </g>
   <g id="line2d_16">
    <path d="M 296.201357 273.432435 
L 371.941393 273.432435 
" clip-path="url(#pa0e20ee6db)" style="fill: none; stroke: #262626; stroke-width: 1.5; stroke-linecap: round"/>
   </g>
   <g id="line2d_17">
    <path d="M 296.201357 39.442474 
L 371.941393 39.442474 
" clip-path="url(#pa0e20ee6db)" style="fill: none; stroke: #262626; stroke-width: 1.5; stroke-linecap: round"/>
   </g>
   <g id="line2d_18"/>
   <g id="line2d_19">
    <path d="M 103.75984 256.604071 
L 255.23991 256.604071 
" clip-path="url(#pa0e20ee6db)" style="fill: none; stroke: #262626; stroke-width: 1.5; stroke-linecap: round"/>
   </g>
   <g id="line2d_20">
    <path d="M 258.33134 148.188007 
L 409.81141 148.188007 
" clip-path="url(#pa0e20ee6db)" style="fill: none; stroke: #262626; stroke-width: 1.5; stroke-linecap: round"/>
   </g>
   <g id="patch_7">
    <path d="M 63.57125 303.64 
L 63.57125 13.022721 
" style="fill: none; stroke: #cccccc; stroke-width: 0.8; stroke-linejoin: miter; stroke-linecap: square"/>
   </g>
   <g id="patch_8">
    <path d="M 450 303.64 
L 450 13.022721 
" style="fill: none; stroke: #cccccc; stroke-width: 0.8; stroke-linejoin: miter; stroke-linecap: square"/>
   </g>
   <g id="patch_9">
    <path d="M 63.57125 303.64 
L 450 303.64 
" style="fill: none; stroke: #cccccc; stroke-width: 0.8; stroke-linejoin: miter; stroke-linecap: square"/>
   </g>
   <g id="patch_10">
    <path d="M 63.57125 13.022721 
L 450 13.022721 
" style="fill: none; stroke: #cccccc; stroke-width: 0.8; stroke-linejoin: miter; stroke-linecap: square"/>
   </g>
   <g id="PathCollection_3">
    <defs>
     <path id="C0_0_3a542d7fe3" d="M 0 1 
C 0.265203 1 0.51958 0.894634 0.707107 0.707107 
C 0.894634 0.51958 1 0.265203 1 -0 
C 1 -0.265203 0.894634 -0.51958 0.707107 -0.707107 
C 0.51958 -0.894634 0.265203 -1 0 -1 
C -0.265203 -1 -0.51958 -0.894634 -0.707107 -0.707107 
C -0.894634 -0.51958 -1 -0.265203 -1 0 
C -1 0.265203 -0.894634 0.51958 -0.707107 0.707107 
C -0.51958 0.894634 -0.265203 1 0 1 
z
"/>
    </defs>
    <g clip-path="url(#pa0e20ee6db)">
     <use xlink:href="#C0_0_3a542d7fe3" x="172.24051" y="244.810467" style="fill: #262626"/>
    </g>
    <g clip-path="url(#pa0e20ee6db)">
     <use xlink:href="#C0_0_3a542d7fe3" x="182.069246" y="269.649594" style="fill: #262626"/>
    </g>
    <g clip-path="url(#pa0e20ee6db)">
     <use xlink:href="#C0_0_3a542d7fe3" x="161.6016" y="272.850872" style="fill: #262626"/>
    </g>
    <g clip-path="url(#pa0e20ee6db)">
     <use xlink:href="#C0_0_3a542d7fe3" x="173.992195" y="256.370755" style="fill: #262626"/>
    </g>
    <g clip-path="url(#pa0e20ee6db)">
     <use xlink:href="#C0_0_3a542d7fe3" x="174.207589" y="272.67627" style="fill: #262626"/>
    </g>
    <g clip-path="url(#pa0e20ee6db)">
     <use xlink:href="#C0_0_3a542d7fe3" x="191.713855" y="258.063849" style="fill: #262626"/>
    </g>
    <g clip-path="url(#pa0e20ee6db)">
     <use xlink:href="#C0_0_3a542d7fe3" x="177.873477" y="250.614425" style="fill: #262626"/>
    </g>
    <g clip-path="url(#pa0e20ee6db)">
     <use xlink:href="#C0_0_3a542d7fe3" x="186.89907" y="248.577081" style="fill: #262626"/>
    </g>
    <g clip-path="url(#pa0e20ee6db)">
     <use xlink:href="#C0_0_3a542d7fe3" x="191.445921" y="277.363378" style="fill: #262626"/>
    </g>
    <g clip-path="url(#pa0e20ee6db)">
     <use xlink:href="#C0_0_3a542d7fe3" x="162.526079" y="229.979092" style="fill: #262626"/>
    </g>
    <g clip-path="url(#pa0e20ee6db)">
     <use xlink:href="#C0_0_3a542d7fe3" x="176.472028" y="252.627859" style="fill: #262626"/>
    </g>
    <g clip-path="url(#pa0e20ee6db)">
     <use xlink:href="#C0_0_3a542d7fe3" x="196.025495" y="234.471073" style="fill: #262626"/>
    </g>
    <g clip-path="url(#pa0e20ee6db)">
     <use xlink:href="#C0_0_3a542d7fe3" x="190.270046" y="241.673128" style="fill: #262626"/>
    </g>
    <g clip-path="url(#pa0e20ee6db)">
     <use xlink:href="#C0_0_3a542d7fe3" x="182.626931" y="269.190998" style="fill: #262626"/>
    </g>
    <g clip-path="url(#pa0e20ee6db)">
     <use xlink:href="#C0_0_3a542d7fe3" x="174.327621" y="249.514626" style="fill: #262626"/>
    </g>
    <g clip-path="url(#pa0e20ee6db)">
     <use xlink:href="#C0_0_3a542d7fe3" x="163.25233" y="254.958596" style="fill: #262626"/>
    </g>
    <g clip-path="url(#pa0e20ee6db)">
     <use xlink:href="#C0_0_3a542d7fe3" x="162.817743" y="252.04169" style="fill: #262626"/>
    </g>
    <g clip-path="url(#pa0e20ee6db)">
     <use xlink:href="#C0_0_3a542d7fe3" x="163.935789" y="251.039148" style="fill: #262626"/>
    </g>
    <g clip-path="url(#pa0e20ee6db)">
     <use xlink:href="#C0_0_3a542d7fe3" x="172.961992" y="252.664575" style="fill: #262626"/>
    </g>
    <g clip-path="url(#pa0e20ee6db)">
     <use xlink:href="#C0_0_3a542d7fe3" x="197.164608" y="257.010238" style="fill: #262626"/>
    </g>
    <g clip-path="url(#pa0e20ee6db)">
     <use xlink:href="#C0_0_3a542d7fe3" x="186.431853" y="263.308808" style="fill: #262626"/>
    </g>
    <g clip-path="url(#pa0e20ee6db)">
     <use xlink:href="#C0_0_3a542d7fe3" x="177.963317" y="218.739275" style="fill: #262626"/>
    </g>
    <g clip-path="url(#pa0e20ee6db)">
     <use xlink:href="#C0_0_3a542d7fe3" x="182.92522" y="254.318904" style="fill: #262626"/>
    </g>
    <g clip-path="url(#pa0e20ee6db)">
     <use xlink:href="#C0_0_3a542d7fe3" x="194.020415" y="256.793" style="fill: #262626"/>
    </g>
    <g clip-path="url(#pa0e20ee6db)">
     <use xlink:href="#C0_0_3a542d7fe3" x="174.531082" y="250.219408" style="fill: #262626"/>
    </g>
    <g clip-path="url(#pa0e20ee6db)">
     <use xlink:href="#C0_0_3a542d7fe3" x="189.522874" y="278.40479" style="fill: #262626"/>
    </g>
    <g clip-path="url(#pa0e20ee6db)">
     <use xlink:href="#C0_0_3a542d7fe3" x="182.915886" y="240.044454" style="fill: #262626"/>
    </g>
    <g clip-path="url(#pa0e20ee6db)">
     <use xlink:href="#C0_0_3a542d7fe3" x="176.590191" y="247.80872" style="fill: #262626"/>
    </g>
    <g clip-path="url(#pa0e20ee6db)">
     <use xlink:href="#C0_0_3a542d7fe3" x="162.934885" y="256.415142" style="fill: #262626"/>
    </g>
    <g clip-path="url(#pa0e20ee6db)">
     <use xlink:href="#C0_0_3a542d7fe3" x="193.981643" y="262.502365" style="fill: #262626"/>
    </g>
    <g clip-path="url(#pa0e20ee6db)">
     <use xlink:href="#C0_0_3a542d7fe3" x="195.488426" y="258.770854" style="fill: #262626"/>
    </g>
    <g clip-path="url(#pa0e20ee6db)">
     <use xlink:href="#C0_0_3a542d7fe3" x="171.636747" y="250.892508" style="fill: #262626"/>
    </g>
    <g clip-path="url(#pa0e20ee6db)">
     <use xlink:href="#C0_0_3a542d7fe3" x="161.422409" y="262.807038" style="fill: #262626"/>
    </g>
    <g clip-path="url(#pa0e20ee6db)">
     <use xlink:href="#C0_0_3a542d7fe3" x="193.357834" y="246.918551" style="fill: #262626"/>
    </g>
    <g clip-path="url(#pa0e20ee6db)">
     <use xlink:href="#C0_0_3a542d7fe3" x="166.997794" y="247.993327" style="fill: #262626"/>
    </g>
    <g clip-path="url(#pa0e20ee6db)">
     <use xlink:href="#C0_0_3a542d7fe3" x="186.580312" y="264.541089" style="fill: #262626"/>
    </g>
    <g clip-path="url(#pa0e20ee6db)">
     <use xlink:href="#C0_0_3a542d7fe3" x="165.046756" y="263.640891" style="fill: #262626"/>
    </g>
    <g clip-path="url(#pa0e20ee6db)">
     <use xlink:href="#C0_0_3a542d7fe3" x="162.790839" y="261.664946" style="fill: #262626"/>
    </g>
    <g clip-path="url(#pa0e20ee6db)">
     <use xlink:href="#C0_0_3a542d7fe3" x="164.354502" y="275.067852" style="fill: #262626"/>
    </g>
    <g clip-path="url(#pa0e20ee6db)">
     <use xlink:href="#C0_0_3a542d7fe3" x="172.249834" y="246.266131" style="fill: #262626"/>
    </g>
    <g clip-path="url(#pa0e20ee6db)">
     <use xlink:href="#C0_0_3a542d7fe3" x="180.008238" y="254.301261" style="fill: #262626"/>
    </g>
    <g clip-path="url(#pa0e20ee6db)">
     <use xlink:href="#C0_0_3a542d7fe3" x="189.883202" y="268.354391" style="fill: #262626"/>
    </g>
    <g clip-path="url(#pa0e20ee6db)">
     <use xlink:href="#C0_0_3a542d7fe3" x="176.731275" y="231.641351" style="fill: #262626"/>
    </g>
    <g clip-path="url(#pa0e20ee6db)">
     <use xlink:href="#C0_0_3a542d7fe3" x="165.111118" y="264.781556" style="fill: #262626"/>
    </g>
    <g clip-path="url(#pa0e20ee6db)">
     <use xlink:href="#C0_0_3a542d7fe3" x="189.140967" y="252.832639" style="fill: #262626"/>
    </g>
    <g clip-path="url(#pa0e20ee6db)">
     <use xlink:href="#C0_0_3a542d7fe3" x="167.942617" y="267.844538" style="fill: #262626"/>
    </g>
    <g clip-path="url(#pa0e20ee6db)">
     <use xlink:href="#C0_0_3a542d7fe3" x="170.964857" y="264.545984" style="fill: #262626"/>
    </g>
    <g clip-path="url(#pa0e20ee6db)">
     <use xlink:href="#C0_0_3a542d7fe3" x="180.668434" y="267.188306" style="fill: #262626"/>
    </g>
    <g clip-path="url(#pa0e20ee6db)">
     <use xlink:href="#C0_0_3a542d7fe3" x="171.208708" y="260.310464" style="fill: #262626"/>
    </g>
    <g clip-path="url(#pa0e20ee6db)">
     <use xlink:href="#C0_0_3a542d7fe3" x="197.163033" y="214.085786" style="fill: #262626"/>
    </g>
    <g clip-path="url(#pa0e20ee6db)">
     <use xlink:href="#C0_0_3a542d7fe3" x="178.754581" y="266.843526" style="fill: #262626"/>
    </g>
    <g clip-path="url(#pa0e20ee6db)">
     <use xlink:href="#C0_0_3a542d7fe3" x="167.774541" y="258.270907" style="fill: #262626"/>
    </g>
    <g clip-path="url(#pa0e20ee6db)">
     <use xlink:href="#C0_0_3a542d7fe3" x="173.343085" y="268.678227" style="fill: #262626"/>
    </g>
    <g clip-path="url(#pa0e20ee6db)">
     <use xlink:href="#C0_0_3a542d7fe3" x="185.158714" y="263.043989" style="fill: #262626"/>
    </g>
    <g clip-path="url(#pa0e20ee6db)">
     <use xlink:href="#C0_0_3a542d7fe3" x="164.680196" y="252.643264" style="fill: #262626"/>
    </g>
    <g clip-path="url(#pa0e20ee6db)">
     <use xlink:href="#C0_0_3a542d7fe3" x="188.070937" y="259.68242" style="fill: #262626"/>
    </g>
    <g clip-path="url(#pa0e20ee6db)">
     <use xlink:href="#C0_0_3a542d7fe3" x="177.696304" y="252.816303" style="fill: #262626"/>
    </g>
    <g clip-path="url(#pa0e20ee6db)">
     <use xlink:href="#C0_0_3a542d7fe3" x="180.368305" y="250.774784" style="fill: #262626"/>
    </g>
    <g clip-path="url(#pa0e20ee6db)">
     <use xlink:href="#C0_0_3a542d7fe3" x="185.407639" y="255.979435" style="fill: #262626"/>
    </g>
    <g clip-path="url(#pa0e20ee6db)">
     <use xlink:href="#C0_0_3a542d7fe3" x="163.14679" y="257.354476" style="fill: #262626"/>
    </g>
    <g clip-path="url(#pa0e20ee6db)">
     <use xlink:href="#C0_0_3a542d7fe3" x="181.31693" y="246.580324" style="fill: #262626"/>
    </g>
    <g clip-path="url(#pa0e20ee6db)">
     <use xlink:href="#C0_0_3a542d7fe3" x="168.820697" y="273.098442" style="fill: #262626"/>
    </g>
    <g clip-path="url(#pa0e20ee6db)">
     <use xlink:href="#C0_0_3a542d7fe3" x="195.553642" y="240.486753" style="fill: #262626"/>
    </g>
    <g clip-path="url(#pa0e20ee6db)">
     <use xlink:href="#C0_0_3a542d7fe3" x="171.115421" y="274.203452" style="fill: #262626"/>
    </g>
    <g clip-path="url(#pa0e20ee6db)">
     <use xlink:href="#C0_0_3a542d7fe3" x="166.667948" y="239.735248" style="fill: #262626"/>
    </g>
    <g clip-path="url(#pa0e20ee6db)">
     <use xlink:href="#C0_0_3a542d7fe3" x="185.52182" y="255.348829" style="fill: #262626"/>
    </g>
    <g clip-path="url(#pa0e20ee6db)">
     <use xlink:href="#C0_0_3a542d7fe3" x="162.895563" y="258.269475" style="fill: #262626"/>
    </g>
    <g clip-path="url(#pa0e20ee6db)">
     <use xlink:href="#C0_0_3a542d7fe3" x="191.917455" y="258.875159" style="fill: #262626"/>
    </g>
    <g clip-path="url(#pa0e20ee6db)">
     <use xlink:href="#C0_0_3a542d7fe3" x="186.763444" y="227.20714" style="fill: #262626"/>
    </g>
    <g clip-path="url(#pa0e20ee6db)">
     <use xlink:href="#C0_0_3a542d7fe3" x="189.806259" y="263.678642" style="fill: #262626"/>
    </g>
    <g clip-path="url(#pa0e20ee6db)">
     <use xlink:href="#C0_0_3a542d7fe3" x="162.454204" y="258.092989" style="fill: #262626"/>
    </g>
    <g clip-path="url(#pa0e20ee6db)">
     <use xlink:href="#C0_0_3a542d7fe3" x="189.2729" y="257.817066" style="fill: #262626"/>
    </g>
    <g clip-path="url(#pa0e20ee6db)">
     <use xlink:href="#C0_0_3a542d7fe3" x="192.379124" y="267.066999" style="fill: #262626"/>
    </g>
    <g clip-path="url(#pa0e20ee6db)">
     <use xlink:href="#C0_0_3a542d7fe3" x="162.502869" y="265.129603" style="fill: #262626"/>
    </g>
    <g clip-path="url(#pa0e20ee6db)">
     <use xlink:href="#C0_0_3a542d7fe3" x="176.535478" y="233.829973" style="fill: #262626"/>
    </g>
    <g clip-path="url(#pa0e20ee6db)">
     <use xlink:href="#C0_0_3a542d7fe3" x="188.227875" y="233.674957" style="fill: #262626"/>
    </g>
    <g clip-path="url(#pa0e20ee6db)">
     <use xlink:href="#C0_0_3a542d7fe3" x="172.309441" y="272.092375" style="fill: #262626"/>
    </g>
    <g clip-path="url(#pa0e20ee6db)">
     <use xlink:href="#C0_0_3a542d7fe3" x="198.657366" y="138.283096" style="fill: #262626"/>
    </g>
   </g>
   <g id="PathCollection_4">
    <defs>
     <path id="C1_0_2856e2ba6d" d="M 0 1 
C 0.265203 1 0.51958 0.894634 0.707107 0.707107 
C 0.894634 0.51958 1 0.265203 1 -0 
C 1 -0.265203 0.894634 -0.51958 0.707107 -0.707107 
C 0.51958 -0.894634 0.265203 -1 0 -1 
C -0.265203 -1 -0.51958 -0.894634 -0.707107 -0.707107 
C -0.894634 -0.51958 -1 -0.265203 -1 0 
C -1 0.265203 -0.894634 0.51958 -0.707107 0.707107 
C -0.51958 0.894634 -0.265203 1 0 1 
z
"/>
    </defs>
    <g clip-path="url(#pa0e20ee6db)">
     <use xlink:href="#C1_0_2856e2ba6d" x="321.095103" y="215.426961"/>
    </g>
    <g clip-path="url(#pa0e20ee6db)">
     <use xlink:href="#C1_0_2856e2ba6d" x="319.300646" y="269.51825"/>
    </g>
    <g clip-path="url(#pa0e20ee6db)">
     <use xlink:href="#C1_0_2856e2ba6d" x="329.728741" y="242.222107"/>
    </g>
    <g clip-path="url(#pa0e20ee6db)">
     <use xlink:href="#C1_0_2856e2ba6d" x="321.084369" y="259.802119"/>
    </g>
    <g clip-path="url(#pa0e20ee6db)">
     <use xlink:href="#C1_0_2856e2ba6d" x="335.860354" y="251.390126"/>
    </g>
    <g clip-path="url(#pa0e20ee6db)">
     <use xlink:href="#C1_0_2856e2ba6d" x="350.666005" y="267.537047"/>
    </g>
    <g clip-path="url(#pa0e20ee6db)">
     <use xlink:href="#C1_0_2856e2ba6d" x="320.617319" y="244.951806"/>
    </g>
    <g clip-path="url(#pa0e20ee6db)">
     <use xlink:href="#C1_0_2856e2ba6d" x="323.086869" y="249.075551"/>
    </g>
    <g clip-path="url(#pa0e20ee6db)">
     <use xlink:href="#C1_0_2856e2ba6d" x="349.141342" y="232.149392"/>
    </g>
    <g clip-path="url(#pa0e20ee6db)">
     <use xlink:href="#C1_0_2856e2ba6d" x="346.720967" y="191.445477"/>
    </g>
    <g clip-path="url(#pa0e20ee6db)">
     <use xlink:href="#C1_0_2856e2ba6d" x="351.642567" y="136.193918"/>
    </g>
    <g clip-path="url(#pa0e20ee6db)">
     <use xlink:href="#C1_0_2856e2ba6d" x="329.540996" y="245.488935"/>
    </g>
    <g clip-path="url(#pa0e20ee6db)">
     <use xlink:href="#C1_0_2856e2ba6d" x="322.380179" y="203.765369"/>
    </g>
    <g clip-path="url(#pa0e20ee6db)">
     <use xlink:href="#C1_0_2856e2ba6d" x="321.477518" y="253.100801"/>
    </g>
    <g clip-path="url(#pa0e20ee6db)">
     <use xlink:href="#C1_0_2856e2ba6d" x="344.632847" y="235.334454"/>
    </g>
    <g clip-path="url(#pa0e20ee6db)">
     <use xlink:href="#C1_0_2856e2ba6d" x="345.488734" y="138.147215"/>
    </g>
    <g clip-path="url(#pa0e20ee6db)">
     <use xlink:href="#C1_0_2856e2ba6d" x="317.671924" y="273.432435"/>
    </g>
    <g clip-path="url(#pa0e20ee6db)">
     <use xlink:href="#C1_0_2856e2ba6d" x="352.107251" y="262.791685"/>
    </g>
    <g clip-path="url(#pa0e20ee6db)">
     <use xlink:href="#C1_0_2856e2ba6d" x="335.038102" y="183.516769"/>
    </g>
    <g clip-path="url(#pa0e20ee6db)">
     <use xlink:href="#C1_0_2856e2ba6d" x="331.535492" y="254.959845"/>
    </g>
    <g clip-path="url(#pa0e20ee6db)">
     <use xlink:href="#C1_0_2856e2ba6d" x="339.454732" y="90.681034"/>
    </g>
    <g clip-path="url(#pa0e20ee6db)">
     <use xlink:href="#C1_0_2856e2ba6d" x="352.779158" y="97.816923"/>
    </g>
    <g clip-path="url(#pa0e20ee6db)">
     <use xlink:href="#C1_0_2856e2ba6d" x="335.741876" y="113.822404"/>
    </g>
    <g clip-path="url(#pa0e20ee6db)">
     <use xlink:href="#C1_0_2856e2ba6d" x="347.652387" y="87.058729"/>
    </g>
    <g clip-path="url(#pa0e20ee6db)">
     <use xlink:href="#C1_0_2856e2ba6d" x="337.69748" y="121.671408"/>
    </g>
    <g clip-path="url(#pa0e20ee6db)">
     <use xlink:href="#C1_0_2856e2ba6d" x="338.25431" y="147.086496"/>
    </g>
    <g clip-path="url(#pa0e20ee6db)">
     <use xlink:href="#C1_0_2856e2ba6d" x="330.086234" y="82.617392"/>
    </g>
    <g clip-path="url(#pa0e20ee6db)">
     <use xlink:href="#C1_0_2856e2ba6d" x="338.103965" y="59.740811"/>
    </g>
    <g clip-path="url(#pa0e20ee6db)">
     <use xlink:href="#C1_0_2856e2ba6d" x="318.763566" y="256.952343"/>
    </g>
    <g clip-path="url(#pa0e20ee6db)">
     <use xlink:href="#C1_0_2856e2ba6d" x="329.81717" y="39.442474"/>
    </g>
    <g clip-path="url(#pa0e20ee6db)">
     <use xlink:href="#C1_0_2856e2ba6d" x="318.502239" y="103.899631"/>
    </g>
    <g clip-path="url(#pa0e20ee6db)">
     <use xlink:href="#C1_0_2856e2ba6d" x="323.561419" y="59.069028"/>
    </g>
    <g clip-path="url(#pa0e20ee6db)">
     <use xlink:href="#C1_0_2856e2ba6d" x="344.501145" y="82.29728"/>
    </g>
    <g clip-path="url(#pa0e20ee6db)">
     <use xlink:href="#C1_0_2856e2ba6d" x="329.754762" y="115.220628"/>
    </g>
    <g clip-path="url(#pa0e20ee6db)">
     <use xlink:href="#C1_0_2856e2ba6d" x="344.400211" y="239.982925"/>
    </g>
    <g clip-path="url(#pa0e20ee6db)">
     <use xlink:href="#C1_0_2856e2ba6d" x="325.754557" y="76.568079"/>
    </g>
    <g clip-path="url(#pa0e20ee6db)">
     <use xlink:href="#C1_0_2856e2ba6d" x="331.643332" y="123.047336"/>
    </g>
    <g clip-path="url(#pa0e20ee6db)">
     <use xlink:href="#C1_0_2856e2ba6d" x="317.010923" y="95.275528"/>
    </g>
    <g clip-path="url(#pa0e20ee6db)">
     <use xlink:href="#C1_0_2856e2ba6d" x="319.941973" y="256.999534"/>
    </g>
    <g clip-path="url(#pa0e20ee6db)">
     <use xlink:href="#C1_0_2856e2ba6d" x="345.479302" y="114.218105"/>
    </g>
    <g clip-path="url(#pa0e20ee6db)">
     <use xlink:href="#C1_0_2856e2ba6d" x="332.293461" y="241.837997"/>
    </g>
    <g clip-path="url(#pa0e20ee6db)">
     <use xlink:href="#C1_0_2856e2ba6d" x="335.354416" y="223.11595"/>
    </g>
    <g clip-path="url(#pa0e20ee6db)">
     <use xlink:href="#C1_0_2856e2ba6d" x="343.644838" y="160.905238"/>
    </g>
    <g clip-path="url(#pa0e20ee6db)">
     <use xlink:href="#C1_0_2856e2ba6d" x="350.929562" y="103.214162"/>
    </g>
    <g clip-path="url(#pa0e20ee6db)">
     <use xlink:href="#C1_0_2856e2ba6d" x="332.451093" y="100.30196"/>
    </g>
    <g clip-path="url(#pa0e20ee6db)">
     <use xlink:href="#C1_0_2856e2ba6d" x="336.971579" y="59.060066"/>
    </g>
    <g clip-path="url(#pa0e20ee6db)">
     <use xlink:href="#C1_0_2856e2ba6d" x="339.663977" y="80.20934"/>
    </g>
    <g clip-path="url(#pa0e20ee6db)">
     <use xlink:href="#C1_0_2856e2ba6d" x="315.206494" y="104.477488"/>
    </g>
    <g clip-path="url(#pa0e20ee6db)">
     <use xlink:href="#C1_0_2856e2ba6d" x="338.338379" y="122.00846"/>
    </g>
    <g clip-path="url(#pa0e20ee6db)">
     <use xlink:href="#C1_0_2856e2ba6d" x="329.34699" y="82.305651"/>
    </g>
    <g clip-path="url(#pa0e20ee6db)">
     <use xlink:href="#C1_0_2856e2ba6d" x="344.676583" y="149.289518"/>
    </g>
    <g clip-path="url(#pa0e20ee6db)">
     <use xlink:href="#C1_0_2856e2ba6d" x="338.620636" y="226.146836"/>
    </g>
   </g>
   <g id="text_12">
    <!-- 78 -->
    <g style="fill: #262626" transform="translate(198.821312 303.626396) scale(0.1 -0.1)">
     <defs>
      <path id="DejaVuSans-37" d="M 525 4666 
L 3525 4666 
L 3525 4397 
L 1831 0 
L 1172 0 
L 2766 4134 
L 525 4134 
L 525 4666 
z
" transform="scale(0.015625)"/>
      <path id="DejaVuSans-38" d="M 2034 2216 
Q 1584 2216 1326 1975 
Q 1069 1734 1069 1313 
Q 1069 891 1326 650 
Q 1584 409 2034 409 
Q 2484 409 2743 651 
Q 3003 894 3003 1313 
Q 3003 1734 2745 1975 
Q 2488 2216 2034 2216 
z
M 1403 2484 
Q 997 2584 770 2862 
Q 544 3141 544 3541 
Q 544 4100 942 4425 
Q 1341 4750 2034 4750 
Q 2731 4750 3128 4425 
Q 3525 4100 3525 3541 
Q 3525 3141 3298 2862 
Q 3072 2584 2669 2484 
Q 3125 2378 3379 2068 
Q 3634 1759 3634 1313 
Q 3634 634 3220 271 
Q 2806 -91 2034 -91 
Q 1263 -91 848 271 
Q 434 634 434 1313 
Q 434 1759 690 2068 
Q 947 2378 1403 2484 
z
M 1172 3481 
Q 1172 3119 1398 2916 
Q 1625 2713 2034 2713 
Q 2441 2713 2670 2916 
Q 2900 3119 2900 3481 
Q 2900 3844 2670 4047 
Q 2441 4250 2034 4250 
Q 1625 4250 1398 4047 
Q 1172 3844 1172 3481 
z
" transform="scale(0.015625)"/>
     </defs>
     <use xlink:href="#DejaVuSans-37"/>
     <use xlink:href="#DejaVuSans-38" x="63.623047"/>
    </g>
   </g>
   <g id="text_13">
    <!-- p=1.532019334530096e-17 -->
    <g style="fill: #262626" transform="translate(141.944437 138.282684) scale(0.08 -0.08)">
     <defs>
      <path id="DejaVuSans-70" d="M 1159 525 
L 1159 -1331 
L 581 -1331 
L 581 3500 
L 1159 3500 
L 1159 2969 
Q 1341 3281 1617 3432 
Q 1894 3584 2278 3584 
Q 2916 3584 3314 3078 
Q 3713 2572 3713 1747 
Q 3713 922 3314 415 
Q 2916 -91 2278 -91 
Q 1894 -91 1617 61 
Q 1341 213 1159 525 
z
M 3116 1747 
Q 3116 2381 2855 2742 
Q 2594 3103 2138 3103 
Q 1681 3103 1420 2742 
Q 1159 2381 1159 1747 
Q 1159 1113 1420 752 
Q 1681 391 2138 391 
Q 2594 391 2855 752 
Q 3116 1113 3116 1747 
z
" transform="scale(0.015625)"/>
      <path id="DejaVuSans-3d" d="M 678 2906 
L 4684 2906 
L 4684 2381 
L 678 2381 
L 678 2906 
z
M 678 1631 
L 4684 1631 
L 4684 1100 
L 678 1100 
L 678 1631 
z
" transform="scale(0.015625)"/>
      <path id="DejaVuSans-2e" d="M 684 794 
L 1344 794 
L 1344 0 
L 684 0 
L 684 794 
z
" transform="scale(0.015625)"/>
      <path id="DejaVuSans-39" d="M 703 97 
L 703 672 
Q 941 559 1184 500 
Q 1428 441 1663 441 
Q 2288 441 2617 861 
Q 2947 1281 2994 2138 
Q 2813 1869 2534 1725 
Q 2256 1581 1919 1581 
Q 1219 1581 811 2004 
Q 403 2428 403 3163 
Q 403 3881 828 4315 
Q 1253 4750 1959 4750 
Q 2769 4750 3195 4129 
Q 3622 3509 3622 2328 
Q 3622 1225 3098 567 
Q 2575 -91 1691 -91 
Q 1453 -91 1209 -44 
Q 966 3 703 97 
z
M 1959 2075 
Q 2384 2075 2632 2365 
Q 2881 2656 2881 3163 
Q 2881 3666 2632 3958 
Q 2384 4250 1959 4250 
Q 1534 4250 1286 3958 
Q 1038 3666 1038 3163 
Q 1038 2656 1286 2365 
Q 1534 2075 1959 2075 
z
" transform="scale(0.015625)"/>
      <path id="DejaVuSans-34" d="M 2419 4116 
L 825 1625 
L 2419 1625 
L 2419 4116 
z
M 2253 4666 
L 3047 4666 
L 3047 1625 
L 3713 1625 
L 3713 1100 
L 3047 1100 
L 3047 0 
L 2419 0 
L 2419 1100 
L 313 1100 
L 313 1709 
L 2253 4666 
z
" transform="scale(0.015625)"/>
      <path id="DejaVuSans-36" d="M 2113 2584 
Q 1688 2584 1439 2293 
Q 1191 2003 1191 1497 
Q 1191 994 1439 701 
Q 1688 409 2113 409 
Q 2538 409 2786 701 
Q 3034 994 3034 1497 
Q 3034 2003 2786 2293 
Q 2538 2584 2113 2584 
z
M 3366 4563 
L 3366 3988 
Q 3128 4100 2886 4159 
Q 2644 4219 2406 4219 
Q 1781 4219 1451 3797 
Q 1122 3375 1075 2522 
Q 1259 2794 1537 2939 
Q 1816 3084 2150 3084 
Q 2853 3084 3261 2657 
Q 3669 2231 3669 1497 
Q 3669 778 3244 343 
Q 2819 -91 2113 -91 
Q 1303 -91 875 529 
Q 447 1150 447 2328 
Q 447 3434 972 4092 
Q 1497 4750 2381 4750 
Q 2619 4750 2861 4703 
Q 3103 4656 3366 4563 
z
" transform="scale(0.015625)"/>
      <path id="DejaVuSans-2d" d="M 313 2009 
L 1997 2009 
L 1997 1497 
L 313 1497 
L 313 2009 
z
" transform="scale(0.015625)"/>
     </defs>
     <use xlink:href="#DejaVuSans-70"/>
     <use xlink:href="#DejaVuSans-3d" x="63.476562"/>
     <use xlink:href="#DejaVuSans-31" x="147.265625"/>
     <use xlink:href="#DejaVuSans-2e" x="210.888672"/>
     <use xlink:href="#DejaVuSans-35" x="242.675781"/>
     <use xlink:href="#DejaVuSans-33" x="306.298828"/>
     <use xlink:href="#DejaVuSans-32" x="369.921875"/>
     <use xlink:href="#DejaVuSans-30" x="433.544922"/>
     <use xlink:href="#DejaVuSans-31" x="497.167969"/>
     <use xlink:href="#DejaVuSans-39" x="560.791016"/>
     <use xlink:href="#DejaVuSans-33" x="624.414062"/>
     <use xlink:href="#DejaVuSans-33" x="688.037109"/>
     <use xlink:href="#DejaVuSans-34" x="751.660156"/>
     <use xlink:href="#DejaVuSans-35" x="815.283203"/>
     <use xlink:href="#DejaVuSans-33" x="878.90625"/>
     <use xlink:href="#DejaVuSans-30" x="942.529297"/>
     <use xlink:href="#DejaVuSans-30" x="1006.152344"/>
     <use xlink:href="#DejaVuSans-39" x="1069.775391"/>
     <use xlink:href="#DejaVuSans-36" x="1133.398438"/>
     <use xlink:href="#DejaVuSans-65" x="1197.021484"/>
     <use xlink:href="#DejaVuSans-2d" x="1258.544922"/>
     <use xlink:href="#DejaVuSans-31" x="1294.628906"/>
     <use xlink:href="#DejaVuSans-37" x="1358.251953"/>
    </g>
   </g>
   <g id="text_14">
    <!-- 52 -->
    <g style="fill: #262626" transform="translate(314.749937 303.626396) scale(0.1 -0.1)">
     <use xlink:href="#DejaVuSans-35"/>
     <use xlink:href="#DejaVuSans-32" x="63.623047"/>
    </g>
   </g>
   <g id="legend_1">
    <g id="patch_11">
     <path d="M 377.728125 29.621159 
L 397.728125 29.621159 
L 397.728125 22.621159 
L 377.728125 22.621159 
z
" style="fill: #ecf2ec; stroke: #262626; stroke-width: 0.75; stroke-linejoin: miter"/>
    </g>
    <g id="text_15">
     <!-- Mutant -->
     <g style="fill: #262626" transform="translate(405.728125 29.621159) scale(0.1 -0.1)">
      <defs>
       <path id="DejaVuSans-4d" d="M 628 4666 
L 1569 4666 
L 2759 1491 
L 3956 4666 
L 4897 4666 
L 4897 0 
L 4281 0 
L 4281 4097 
L 3078 897 
L 2444 897 
L 1241 4097 
L 1241 0 
L 628 0 
L 628 4666 
z
" transform="scale(0.015625)"/>
       <path id="DejaVuSans-61" d="M 2194 1759 
Q 1497 1759 1228 1600 
Q 959 1441 959 1056 
Q 959 750 1161 570 
Q 1363 391 1709 391 
Q 2188 391 2477 730 
Q 2766 1069 2766 1631 
L 2766 1759 
L 2194 1759 
z
M 3341 1997 
L 3341 0 
L 2766 0 
L 2766 531 
Q 2569 213 2275 61 
Q 1981 -91 1556 -91 
Q 1019 -91 701 211 
Q 384 513 384 1019 
Q 384 1609 779 1909 
Q 1175 2209 1959 2209 
L 2766 2209 
L 2766 2266 
Q 2766 2663 2505 2880 
Q 2244 3097 1772 3097 
Q 1472 3097 1187 3025 
Q 903 2953 641 2809 
L 641 3341 
Q 956 3463 1253 3523 
Q 1550 3584 1831 3584 
Q 2591 3584 2966 3190 
Q 3341 2797 3341 1997 
z
" transform="scale(0.015625)"/>
      </defs>
      <use xlink:href="#DejaVuSans-4d"/>
      <use xlink:href="#DejaVuSans-75" x="86.279297"/>
      <use xlink:href="#DejaVuSans-74" x="149.658203"/>
      <use xlink:href="#DejaVuSans-61" x="188.867188"/>
      <use xlink:href="#DejaVuSans-6e" x="250.146484"/>
      <use xlink:href="#DejaVuSans-74" x="313.525391"/>
     </g>
    </g>
    <g id="patch_12">
     <path d="M 377.728125 44.299284 
L 397.728125 44.299284 
L 397.728125 37.299284 
L 377.728125 37.299284 
z
" style="fill: #107010; stroke: #262626; stroke-width: 0.75; stroke-linejoin: miter"/>
    </g>
    <g id="text_16">
     <!-- WT -->
     <g style="fill: #262626" transform="translate(405.728125 44.299284) scale(0.1 -0.1)">
      <use xlink:href="#DejaVuSans-57"/>
      <use xlink:href="#DejaVuSans-54" x="98.876953"/>
     </g>
    </g>
   </g>
  </g>
 </g>
 <defs>
  <clipPath id="pa0e20ee6db">
   <rect x="63.57125" y="13.022721" width="386.42875" height="290.617279"/>
  </clipPath>
 </defs>
</svg>
