<?xml version="1.0" encoding="utf-8" standalone="no"?>
<!DOCTYPE svg PUBLIC "-//W3C//DTD SVG 1.1//EN"
  "http://www.w3.org/Graphics/SVG/1.1/DTD/svg11.dtd">
<svg xmlns:xlink="http://www.w3.org/1999/xlink" width="460.8pt" height="345.6pt" viewBox="0 0 460.8 345.6" xmlns="http://www.w3.org/2000/svg" version="1.1">
 <metadata>
  <rdf:RDF xmlns:dc="http://purl.org/dc/elements/1.1/" xmlns:cc="http://creativecommons.org/ns#" xmlns:rdf="http://www.w3.org/1999/02/22-rdf-syntax-ns#">
   <cc:Work>
    <dc:type rdf:resource="http://purl.org/dc/dcmitype/StillImage"/>
    <dc:date>2024-06-12T17:57:12.480261</dc:date>
    <dc:format>image/svg+xml</dc:format>
    <dc:creator>
     <cc:Agent>
      <dc:title>Matplotlib v3.5.3, https://matplotlib.org/</dc:title>
     </cc:Agent>
    </dc:creator>
   </cc:Work>
  </rdf:RDF>
 </metadata>
 <defs>
  <style type="text/css">*{stroke-linejoin: round; stroke-linecap: butt}</style>
 </defs>
 <g id="figure_1">
  <g id="patch_1">
   <path d="M 0 345.6 
L 460.8 345.6 
L 460.8 0 
L 0 0 
z
" style="fill: #ffffff"/>
  </g>
  <g id="axes_1">
   <g id="patch_2">
    <path d="M 47.72 303.64 
L 450 303.64 
L 450 269.081194 
L 47.72 269.081194 
z
" style="fill: #ffffff"/>
   </g>
   <g id="matplotlib.axis_1">
    <g id="xtick_1">
     <g id="text_1">
      <!-- 12 -->
      <g style="fill: #262626" transform="translate(141.9275 318.238437)scale(0.1 -0.1)">
       <defs>
        <path id="DejaVuSans-31" d="M 794 531 
L 1825 531 
L 1825 4091 
L 703 3866 
L 703 4441 
L 1819 4666 
L 2450 4666 
L 2450 531 
L 3481 531 
L 3481 0 
L 794 0 
L 794 531 
z
" transform="scale(0.015625)"/>
        <path id="DejaVuSans-32" d="M 1228 531 
L 3431 531 
L 3431 0 
L 469 0 
L 469 531 
Q 828 903 1448 1529 
Q 2069 2156 2228 2338 
Q 2531 2678 2651 2914 
Q 2772 3150 2772 3378 
Q 2772 3750 2511 3984 
Q 2250 4219 1831 4219 
Q 1534 4219 1204 4116 
Q 875 4013 500 3803 
L 500 4441 
Q 881 4594 1212 4672 
Q 1544 4750 1819 4750 
Q 2544 4750 2975 4387 
Q 3406 4025 3406 3419 
Q 3406 3131 3298 2873 
Q 3191 2616 2906 2266 
Q 2828 2175 2409 1742 
Q 1991 1309 1228 531 
z
" transform="scale(0.015625)"/>
       </defs>
       <use xlink:href="#DejaVuSans-31"/>
       <use xlink:href="#DejaVuSans-32" x="63.623047"/>
      </g>
     </g>
    </g>
    <g id="xtick_2">
     <g id="text_2">
      <!-- 14 -->
      <g style="fill: #262626" transform="translate(343.0675 318.238437)scale(0.1 -0.1)">
       <defs>
        <path id="DejaVuSans-34" d="M 2419 4116 
L 825 1625 
L 2419 1625 
L 2419 4116 
z
M 2253 4666 
L 3047 4666 
L 3047 1625 
L 3713 1625 
L 3713 1100 
L 3047 1100 
L 3047 0 
L 2419 0 
L 2419 1100 
L 313 1100 
L 313 1709 
L 2253 4666 
z
" transform="scale(0.015625)"/>
       </defs>
       <use xlink:href="#DejaVuSans-31"/>
       <use xlink:href="#DejaVuSans-34" x="63.623047"/>
      </g>
     </g>
    </g>
    <g id="text_3">
     <!-- Position -->
     <g style="fill: #262626" transform="translate(229.395937 331.916562)scale(0.1 -0.1)">
      <defs>
       <path id="DejaVuSans-50" d="M 1259 4147 
L 1259 2394 
L 2053 2394 
Q 2494 2394 2734 2622 
Q 2975 2850 2975 3272 
Q 2975 3691 2734 3919 
Q 2494 4147 2053 4147 
L 1259 4147 
z
M 628 4666 
L 2053 4666 
Q 2838 4666 3239 4311 
Q 3641 3956 3641 3272 
Q 3641 2581 3239 2228 
Q 2838 1875 2053 1875 
L 1259 1875 
L 1259 0 
L 628 0 
L 628 4666 
z
" transform="scale(0.015625)"/>
       <path id="DejaVuSans-6f" d="M 1959 3097 
Q 1497 3097 1228 2736 
Q 959 2375 959 1747 
Q 959 1119 1226 758 
Q 1494 397 1959 397 
Q 2419 397 2687 759 
Q 2956 1122 2956 1747 
Q 2956 2369 2687 2733 
Q 2419 3097 1959 3097 
z
M 1959 3584 
Q 2709 3584 3137 3096 
Q 3566 2609 3566 1747 
Q 3566 888 3137 398 
Q 2709 -91 1959 -91 
Q 1206 -91 779 398 
Q 353 888 353 1747 
Q 353 2609 779 3096 
Q 1206 3584 1959 3584 
z
" transform="scale(0.015625)"/>
       <path id="DejaVuSans-73" d="M 2834 3397 
L 2834 2853 
Q 2591 2978 2328 3040 
Q 2066 3103 1784 3103 
Q 1356 3103 1142 2972 
Q 928 2841 928 2578 
Q 928 2378 1081 2264 
Q 1234 2150 1697 2047 
L 1894 2003 
Q 2506 1872 2764 1633 
Q 3022 1394 3022 966 
Q 3022 478 2636 193 
Q 2250 -91 1575 -91 
Q 1294 -91 989 -36 
Q 684 19 347 128 
L 347 722 
Q 666 556 975 473 
Q 1284 391 1588 391 
Q 1994 391 2212 530 
Q 2431 669 2431 922 
Q 2431 1156 2273 1281 
Q 2116 1406 1581 1522 
L 1381 1569 
Q 847 1681 609 1914 
Q 372 2147 372 2553 
Q 372 3047 722 3315 
Q 1072 3584 1716 3584 
Q 2034 3584 2315 3537 
Q 2597 3491 2834 3397 
z
" transform="scale(0.015625)"/>
       <path id="DejaVuSans-69" d="M 603 3500 
L 1178 3500 
L 1178 0 
L 603 0 
L 603 3500 
z
M 603 4863 
L 1178 4863 
L 1178 4134 
L 603 4134 
L 603 4863 
z
" transform="scale(0.015625)"/>
       <path id="DejaVuSans-74" d="M 1172 4494 
L 1172 3500 
L 2356 3500 
L 2356 3053 
L 1172 3053 
L 1172 1153 
Q 1172 725 1289 603 
Q 1406 481 1766 481 
L 2356 481 
L 2356 0 
L 1766 0 
Q 1100 0 847 248 
Q 594 497 594 1153 
L 594 3053 
L 172 3053 
L 172 3500 
L 594 3500 
L 594 4494 
L 1172 4494 
z
" transform="scale(0.015625)"/>
       <path id="DejaVuSans-6e" d="M 3513 2113 
L 3513 0 
L 2938 0 
L 2938 2094 
Q 2938 2591 2744 2837 
Q 2550 3084 2163 3084 
Q 1697 3084 1428 2787 
Q 1159 2491 1159 1978 
L 1159 0 
L 581 0 
L 581 3500 
L 1159 3500 
L 1159 2956 
Q 1366 3272 1645 3428 
Q 1925 3584 2291 3584 
Q 2894 3584 3203 3211 
Q 3513 2838 3513 2113 
z
" transform="scale(0.015625)"/>
      </defs>
      <use xlink:href="#DejaVuSans-50"/>
      <use xlink:href="#DejaVuSans-6f" x="56.677734"/>
      <use xlink:href="#DejaVuSans-73" x="117.859375"/>
      <use xlink:href="#DejaVuSans-69" x="169.958984"/>
      <use xlink:href="#DejaVuSans-74" x="197.742188"/>
      <use xlink:href="#DejaVuSans-69" x="236.951172"/>
      <use xlink:href="#DejaVuSans-6f" x="264.734375"/>
      <use xlink:href="#DejaVuSans-6e" x="325.916016"/>
     </g>
    </g>
   </g>
   <g id="matplotlib.axis_2">
    <g id="ytick_1">
     <g id="line2d_1">
      <path d="M 47.72 303.64 
L 450 303.64 
" clip-path="url(#p6d433a7260)" style="fill: none; stroke: #cccccc; stroke-width: 0.8; stroke-linecap: round"/>
     </g>
     <g id="text_4">
      <!-- 0.0 -->
      <g style="fill: #262626" transform="translate(24.816875 307.439219)scale(0.1 -0.1)">
       <defs>
        <path id="DejaVuSans-30" d="M 2034 4250 
Q 1547 4250 1301 3770 
Q 1056 3291 1056 2328 
Q 1056 1369 1301 889 
Q 1547 409 2034 409 
Q 2525 409 2770 889 
Q 3016 1369 3016 2328 
Q 3016 3291 2770 3770 
Q 2525 4250 2034 4250 
z
M 2034 4750 
Q 2819 4750 3233 4129 
Q 3647 3509 3647 2328 
Q 3647 1150 3233 529 
Q 2819 -91 2034 -91 
Q 1250 -91 836 529 
Q 422 1150 422 2328 
Q 422 3509 836 4129 
Q 1250 4750 2034 4750 
z
" transform="scale(0.015625)"/>
        <path id="DejaVuSans-2e" d="M 684 794 
L 1344 794 
L 1344 0 
L 684 0 
L 684 794 
z
" transform="scale(0.015625)"/>
       </defs>
       <use xlink:href="#DejaVuSans-30"/>
       <use xlink:href="#DejaVuSans-2e" x="63.623047"/>
       <use xlink:href="#DejaVuSans-30" x="95.410156"/>
      </g>
     </g>
    </g>
    <g id="ytick_2">
     <g id="line2d_2">
      <path d="M 47.72 284.21437 
L 450 284.21437 
" clip-path="url(#p6d433a7260)" style="fill: none; stroke: #cccccc; stroke-width: 0.8; stroke-linecap: round"/>
     </g>
     <g id="text_5">
      <!-- 0.5 -->
      <g style="fill: #262626" transform="translate(24.816875 288.013589)scale(0.1 -0.1)">
       <defs>
        <path id="DejaVuSans-35" d="M 691 4666 
L 3169 4666 
L 3169 4134 
L 1269 4134 
L 1269 2991 
Q 1406 3038 1543 3061 
Q 1681 3084 1819 3084 
Q 2600 3084 3056 2656 
Q 3513 2228 3513 1497 
Q 3513 744 3044 326 
Q 2575 -91 1722 -91 
Q 1428 -91 1123 -41 
Q 819 9 494 109 
L 494 744 
Q 775 591 1075 516 
Q 1375 441 1709 441 
Q 2250 441 2565 725 
Q 2881 1009 2881 1497 
Q 2881 1984 2565 2268 
Q 2250 2553 1709 2553 
Q 1456 2553 1204 2497 
Q 953 2441 691 2322 
L 691 4666 
z
" transform="scale(0.015625)"/>
       </defs>
       <use xlink:href="#DejaVuSans-30"/>
       <use xlink:href="#DejaVuSans-2e" x="63.623047"/>
       <use xlink:href="#DejaVuSans-35" x="95.410156"/>
      </g>
     </g>
    </g>
    <g id="text_6">
     <!-- PercentGpA -->
     <g style="fill: #262626" transform="translate(18.737188 315.637159)rotate(-90)scale(0.1 -0.1)">
      <defs>
       <path id="DejaVuSans-65" d="M 3597 1894 
L 3597 1613 
L 953 1613 
Q 991 1019 1311 708 
Q 1631 397 2203 397 
Q 2534 397 2845 478 
Q 3156 559 3463 722 
L 3463 178 
Q 3153 47 2828 -22 
Q 2503 -91 2169 -91 
Q 1331 -91 842 396 
Q 353 884 353 1716 
Q 353 2575 817 3079 
Q 1281 3584 2069 3584 
Q 2775 3584 3186 3129 
Q 3597 2675 3597 1894 
z
M 3022 2063 
Q 3016 2534 2758 2815 
Q 2500 3097 2075 3097 
Q 1594 3097 1305 2825 
Q 1016 2553 972 2059 
L 3022 2063 
z
" transform="scale(0.015625)"/>
       <path id="DejaVuSans-72" d="M 2631 2963 
Q 2534 3019 2420 3045 
Q 2306 3072 2169 3072 
Q 1681 3072 1420 2755 
Q 1159 2438 1159 1844 
L 1159 0 
L 581 0 
L 581 3500 
L 1159 3500 
L 1159 2956 
Q 1341 3275 1631 3429 
Q 1922 3584 2338 3584 
Q 2397 3584 2469 3576 
Q 2541 3569 2628 3553 
L 2631 2963 
z
" transform="scale(0.015625)"/>
       <path id="DejaVuSans-63" d="M 3122 3366 
L 3122 2828 
Q 2878 2963 2633 3030 
Q 2388 3097 2138 3097 
Q 1578 3097 1268 2742 
Q 959 2388 959 1747 
Q 959 1106 1268 751 
Q 1578 397 2138 397 
Q 2388 397 2633 464 
Q 2878 531 3122 666 
L 3122 134 
Q 2881 22 2623 -34 
Q 2366 -91 2075 -91 
Q 1284 -91 818 406 
Q 353 903 353 1747 
Q 353 2603 823 3093 
Q 1294 3584 2113 3584 
Q 2378 3584 2631 3529 
Q 2884 3475 3122 3366 
z
" transform="scale(0.015625)"/>
       <path id="DejaVuSans-47" d="M 3809 666 
L 3809 1919 
L 2778 1919 
L 2778 2438 
L 4434 2438 
L 4434 434 
Q 4069 175 3628 42 
Q 3188 -91 2688 -91 
Q 1594 -91 976 548 
Q 359 1188 359 2328 
Q 359 3472 976 4111 
Q 1594 4750 2688 4750 
Q 3144 4750 3555 4637 
Q 3966 4525 4313 4306 
L 4313 3634 
Q 3963 3931 3569 4081 
Q 3175 4231 2741 4231 
Q 1884 4231 1454 3753 
Q 1025 3275 1025 2328 
Q 1025 1384 1454 906 
Q 1884 428 2741 428 
Q 3075 428 3337 486 
Q 3600 544 3809 666 
z
" transform="scale(0.015625)"/>
       <path id="DejaVuSans-70" d="M 1159 525 
L 1159 -1331 
L 581 -1331 
L 581 3500 
L 1159 3500 
L 1159 2969 
Q 1341 3281 1617 3432 
Q 1894 3584 2278 3584 
Q 2916 3584 3314 3078 
Q 3713 2572 3713 1747 
Q 3713 922 3314 415 
Q 2916 -91 2278 -91 
Q 1894 -91 1617 61 
Q 1341 213 1159 525 
z
M 3116 1747 
Q 3116 2381 2855 2742 
Q 2594 3103 2138 3103 
Q 1681 3103 1420 2742 
Q 1159 2381 1159 1747 
Q 1159 1113 1420 752 
Q 1681 391 2138 391 
Q 2594 391 2855 752 
Q 3116 1113 3116 1747 
z
" transform="scale(0.015625)"/>
       <path id="DejaVuSans-41" d="M 2188 4044 
L 1331 1722 
L 3047 1722 
L 2188 4044 
z
M 1831 4666 
L 2547 4666 
L 4325 0 
L 3669 0 
L 3244 1197 
L 1141 1197 
L 716 0 
L 50 0 
L 1831 4666 
z
" transform="scale(0.015625)"/>
      </defs>
      <use xlink:href="#DejaVuSans-50"/>
      <use xlink:href="#DejaVuSans-65" x="56.677734"/>
      <use xlink:href="#DejaVuSans-72" x="118.201172"/>
      <use xlink:href="#DejaVuSans-63" x="157.064453"/>
      <use xlink:href="#DejaVuSans-65" x="212.044922"/>
      <use xlink:href="#DejaVuSans-6e" x="273.568359"/>
      <use xlink:href="#DejaVuSans-74" x="336.947266"/>
      <use xlink:href="#DejaVuSans-47" x="376.15625"/>
      <use xlink:href="#DejaVuSans-70" x="453.646484"/>
      <use xlink:href="#DejaVuSans-41" x="517.123047"/>
     </g>
    </g>
   </g>
   <g id="patch_3">
    <path d="M 68.63856 296.475132 
L 147.48544 296.475132 
L 147.48544 291.691808 
L 68.63856 291.691808 
L 68.63856 296.475132 
z
" clip-path="url(#p6d433a7260)" style="fill: #ecf2ec; stroke: #262626; stroke-width: 1.5; stroke-linejoin: miter"/>
   </g>
   <g id="patch_4">
    <path d="M 149.09456 293.0814 
L 227.94144 293.0814 
L 227.94144 286.082937 
L 149.09456 286.082937 
L 149.09456 293.0814 
z
" clip-path="url(#p6d433a7260)" style="fill: #107010; stroke: #262626; stroke-width: 1.5; stroke-linejoin: miter"/>
   </g>
   <g id="patch_5">
    <path d="M 269.77856 294.608163 
L 348.62544 294.608163 
L 348.62544 289.061896 
L 269.77856 289.061896 
L 269.77856 294.608163 
z
" clip-path="url(#p6d433a7260)" style="fill: #ecf2ec; stroke: #262626; stroke-width: 1.5; stroke-linejoin: miter"/>
   </g>
   <g id="patch_6">
    <path d="M 350.23456 293.356292 
L 429.08144 293.356292 
L 429.08144 282.154213 
L 350.23456 282.154213 
L 350.23456 293.356292 
z
" clip-path="url(#p6d433a7260)" style="fill: #107010; stroke: #262626; stroke-width: 1.5; stroke-linejoin: miter"/>
   </g>
   <g id="patch_7">
    <path d="M 148.29 303.64 
L 148.29 303.64 
L 148.29 303.64 
L 148.29 303.64 
z
" clip-path="url(#p6d433a7260)" style="fill: #ecf2ec; stroke: #262626; stroke-width: 0.75; stroke-linejoin: miter"/>
   </g>
   <g id="patch_8">
    <path d="M 148.29 303.64 
L 148.29 303.64 
L 148.29 303.64 
L 148.29 303.64 
z
" clip-path="url(#p6d433a7260)" style="fill: #107010; stroke: #262626; stroke-width: 0.75; stroke-linejoin: miter"/>
   </g>
   <g id="PathCollection_1"/>
   <g id="PathCollection_2"/>
   <g id="line2d_3">
    <path d="M 108.062 296.475132 
L 108.062 301.958605 
" clip-path="url(#p6d433a7260)" style="fill: none; stroke: #262626; stroke-width: 1.5; stroke-linecap: round"/>
   </g>
   <g id="line2d_4">
    <path d="M 108.062 291.691808 
L 108.062 285.329072 
" clip-path="url(#p6d433a7260)" style="fill: none; stroke: #262626; stroke-width: 1.5; stroke-linecap: round"/>
   </g>
   <g id="line2d_5">
    <path d="M 88.35028 301.958605 
L 127.77372 301.958605 
" clip-path="url(#p6d433a7260)" style="fill: none; stroke: #262626; stroke-width: 1.5; stroke-linecap: round"/>
   </g>
   <g id="line2d_6">
    <path d="M 88.35028 285.329072 
L 127.77372 285.329072 
" clip-path="url(#p6d433a7260)" style="fill: none; stroke: #262626; stroke-width: 1.5; stroke-linecap: round"/>
   </g>
   <g id="line2d_7">
    <defs>
     <path id="mbab29109bc" d="M -0 1.414214 
L 0.848528 0 
L 0 -1.414214 
L -0.848528 -0 
z
" style="stroke: #262626; stroke-linejoin: miter"/>
    </defs>
    <g clip-path="url(#p6d433a7260)">
     <use xlink:href="#mbab29109bc" x="108.062" y="305.810193" style="fill: #262626; stroke: #262626; stroke-linejoin: miter"/>
     <use xlink:href="#mbab29109bc" x="108.062" y="284.370467" style="fill: #262626; stroke: #262626; stroke-linejoin: miter"/>
     <use xlink:href="#mbab29109bc" x="108.062" y="281.507754" style="fill: #262626; stroke: #262626; stroke-linejoin: miter"/>
    </g>
   </g>
   <g id="line2d_8">
    <path d="M 188.518 293.0814 
L 188.518 295.460821 
" clip-path="url(#p6d433a7260)" style="fill: none; stroke: #262626; stroke-width: 1.5; stroke-linecap: round"/>
   </g>
   <g id="line2d_9">
    <path d="M 188.518 286.082937 
L 188.518 280.306316 
" clip-path="url(#p6d433a7260)" style="fill: none; stroke: #262626; stroke-width: 1.5; stroke-linecap: round"/>
   </g>
   <g id="line2d_10">
    <path d="M 168.80628 295.460821 
L 208.22972 295.460821 
" clip-path="url(#p6d433a7260)" style="fill: none; stroke: #262626; stroke-width: 1.5; stroke-linecap: round"/>
   </g>
   <g id="line2d_11">
    <path d="M 168.80628 280.306316 
L 208.22972 280.306316 
" clip-path="url(#p6d433a7260)" style="fill: none; stroke: #262626; stroke-width: 1.5; stroke-linecap: round"/>
   </g>
   <g id="line2d_12">
    <g clip-path="url(#p6d433a7260)">
     <use xlink:href="#mbab29109bc" x="188.518" y="272.222903" style="fill: #262626; stroke: #262626; stroke-linejoin: miter"/>
    </g>
   </g>
   <g id="line2d_13">
    <path d="M 309.202 294.608163 
L 309.202 301.263627 
" clip-path="url(#p6d433a7260)" style="fill: none; stroke: #262626; stroke-width: 1.5; stroke-linecap: round"/>
   </g>
   <g id="line2d_14">
    <path d="M 309.202 289.061896 
L 309.202 283.693032 
" clip-path="url(#p6d433a7260)" style="fill: none; stroke: #262626; stroke-width: 1.5; stroke-linecap: round"/>
   </g>
   <g id="line2d_15">
    <path d="M 289.49028 301.263627 
L 328.91372 301.263627 
" clip-path="url(#p6d433a7260)" style="fill: none; stroke: #262626; stroke-width: 1.5; stroke-linecap: round"/>
   </g>
   <g id="line2d_16">
    <path d="M 289.49028 283.693032 
L 328.91372 283.693032 
" clip-path="url(#p6d433a7260)" style="fill: none; stroke: #262626; stroke-width: 1.5; stroke-linecap: round"/>
   </g>
   <g id="line2d_17">
    <g clip-path="url(#p6d433a7260)">
     <use xlink:href="#mbab29109bc" x="309.202" y="277.695639" style="fill: #262626; stroke: #262626; stroke-linejoin: miter"/>
    </g>
   </g>
   <g id="line2d_18">
    <path d="M 389.658 293.356292 
L 389.658 296.997665 
" clip-path="url(#p6d433a7260)" style="fill: none; stroke: #262626; stroke-width: 1.5; stroke-linecap: round"/>
   </g>
   <g id="line2d_19">
    <path d="M 389.658 282.154213 
L 389.658 275.495428 
" clip-path="url(#p6d433a7260)" style="fill: none; stroke: #262626; stroke-width: 1.5; stroke-linecap: round"/>
   </g>
   <g id="line2d_20">
    <path d="M 369.94628 296.997665 
L 409.36972 296.997665 
" clip-path="url(#p6d433a7260)" style="fill: none; stroke: #262626; stroke-width: 1.5; stroke-linecap: round"/>
   </g>
   <g id="line2d_21">
    <path d="M 369.94628 275.495428 
L 409.36972 275.495428 
" clip-path="url(#p6d433a7260)" style="fill: none; stroke: #262626; stroke-width: 1.5; stroke-linecap: round"/>
   </g>
   <g id="line2d_22"/>
   <g id="line2d_23">
    <path d="M 68.63856 293.866145 
L 147.48544 293.866145 
" clip-path="url(#p6d433a7260)" style="fill: none; stroke: #262626; stroke-width: 1.5; stroke-linecap: round"/>
   </g>
   <g id="line2d_24">
    <path d="M 149.09456 287.683395 
L 227.94144 287.683395 
" clip-path="url(#p6d433a7260)" style="fill: none; stroke: #262626; stroke-width: 1.5; stroke-linecap: round"/>
   </g>
   <g id="line2d_25">
    <path d="M 269.77856 292.595039 
L 348.62544 292.595039 
" clip-path="url(#p6d433a7260)" style="fill: none; stroke: #262626; stroke-width: 1.5; stroke-linecap: round"/>
   </g>
   <g id="line2d_26">
    <path d="M 350.23456 287.739 
L 429.08144 287.739 
" clip-path="url(#p6d433a7260)" style="fill: none; stroke: #262626; stroke-width: 1.5; stroke-linecap: round"/>
   </g>
   <g id="patch_9">
    <path d="M 47.72 303.64 
L 47.72 269.081194 
" style="fill: none; stroke: #cccccc; stroke-width: 0.8; stroke-linejoin: miter; stroke-linecap: square"/>
   </g>
   <g id="patch_10">
    <path d="M 450 303.64 
L 450 269.081194 
" style="fill: none; stroke: #cccccc; stroke-width: 0.8; stroke-linejoin: miter; stroke-linecap: square"/>
   </g>
   <g id="patch_11">
    <path d="M 47.72 303.64 
L 450 303.64 
" style="fill: none; stroke: #cccccc; stroke-width: 0.8; stroke-linejoin: miter; stroke-linecap: square"/>
   </g>
   <g id="patch_12">
    <path d="M 47.72 269.081194 
L 450 269.081194 
" style="fill: none; stroke: #cccccc; stroke-width: 0.8; stroke-linejoin: miter; stroke-linecap: square"/>
   </g>
   <g id="PathCollection_3">
    <defs>
     <path id="C0_0_9473dd7125" d="M 0 1 
C 0.265203 1 0.51958 0.894634 0.707107 0.707107 
C 0.894634 0.51958 1 0.265203 1 -0 
C 1 -0.265203 0.894634 -0.51958 0.707107 -0.707107 
C 0.51958 -0.894634 0.265203 -1 0 -1 
C -0.265203 -1 -0.51958 -0.894634 -0.707107 -0.707107 
C -0.894634 -0.51958 -1 -0.265203 -1 0 
C -1 0.265203 -0.894634 0.51958 -0.707107 0.707107 
C -0.51958 0.894634 -0.265203 1 0 1 
z
"/>
    </defs>
    <g clip-path="url(#p6d433a7260)">
     <use xlink:href="#C0_0_9473dd7125" x="111.153493" y="294.220152" style="fill: #262626"/>
    </g>
    <g clip-path="url(#p6d433a7260)">
     <use xlink:href="#C0_0_9473dd7125" x="115.377689" y="291.866936" style="fill: #262626"/>
    </g>
    <g clip-path="url(#p6d433a7260)">
     <use xlink:href="#C0_0_9473dd7125" x="107.479577" y="293.606564" style="fill: #262626"/>
    </g>
    <g clip-path="url(#p6d433a7260)">
     <use xlink:href="#C0_0_9473dd7125" x="104.154441" y="294.804567" style="fill: #262626"/>
    </g>
    <g clip-path="url(#p6d433a7260)">
     <use xlink:href="#C0_0_9473dd7125" x="117.354332" y="292.321841" style="fill: #262626"/>
    </g>
    <g clip-path="url(#p6d433a7260)">
     <use xlink:href="#C0_0_9473dd7125" x="108.754962" y="297.861721" style="fill: #262626"/>
    </g>
    <g clip-path="url(#p6d433a7260)">
     <use xlink:href="#C0_0_9473dd7125" x="102.913491" y="286.972598" style="fill: #262626"/>
    </g>
    <g clip-path="url(#p6d433a7260)">
     <use xlink:href="#C0_0_9473dd7125" x="114.473785" y="293.411058" style="fill: #262626"/>
    </g>
    <g clip-path="url(#p6d433a7260)">
     <use xlink:href="#C0_0_9473dd7125" x="99.114454" y="297.460836" style="fill: #262626"/>
    </g>
    <g clip-path="url(#p6d433a7260)">
     <use xlink:href="#C0_0_9473dd7125" x="104.400232" y="285.329072" style="fill: #262626"/>
    </g>
    <g clip-path="url(#p6d433a7260)">
     <use xlink:href="#C0_0_9473dd7125" x="111.695693" y="292.532627" style="fill: #262626"/>
    </g>
    <g clip-path="url(#p6d433a7260)">
     <use xlink:href="#C0_0_9473dd7125" x="102.552339" y="284.370467" style="fill: #262626"/>
    </g>
    <g clip-path="url(#p6d433a7260)">
     <use xlink:href="#C0_0_9473dd7125" x="103.415856" y="292.450031" style="fill: #262626"/>
    </g>
    <g clip-path="url(#p6d433a7260)">
     <use xlink:href="#C0_0_9473dd7125" x="106.037424" y="299.341485" style="fill: #262626"/>
    </g>
    <g clip-path="url(#p6d433a7260)">
     <use xlink:href="#C0_0_9473dd7125" x="106.779852" y="290.480856" style="fill: #262626"/>
    </g>
    <g clip-path="url(#p6d433a7260)">
     <use xlink:href="#C0_0_9473dd7125" x="115.361834" y="301.958605" style="fill: #262626"/>
    </g>
    <g clip-path="url(#p6d433a7260)">
     <use xlink:href="#C0_0_9473dd7125" x="113.899678" y="297.321308" style="fill: #262626"/>
    </g>
    <g clip-path="url(#p6d433a7260)">
     <use xlink:href="#C0_0_9473dd7125" x="99.410077" y="297.308212" style="fill: #262626"/>
    </g>
    <g clip-path="url(#p6d433a7260)">
     <use xlink:href="#C0_0_9473dd7125" x="116.216118" y="295.79727" style="fill: #262626"/>
    </g>
    <g clip-path="url(#p6d433a7260)">
     <use xlink:href="#C0_0_9473dd7125" x="106.77239" y="296.304324" style="fill: #262626"/>
    </g>
    <g clip-path="url(#p6d433a7260)">
     <use xlink:href="#C0_0_9473dd7125" x="108.037452" y="293.018662" style="fill: #262626"/>
    </g>
    <g clip-path="url(#p6d433a7260)">
     <use xlink:href="#C0_0_9473dd7125" x="107.927578" y="298.209286" style="fill: #262626"/>
    </g>
    <g clip-path="url(#p6d433a7260)">
     <use xlink:href="#C0_0_9473dd7125" x="108.856133" y="296.805208" style="fill: #262626"/>
    </g>
    <g clip-path="url(#p6d433a7260)">
     <use xlink:href="#C0_0_9473dd7125" x="115.41481" y="296.113484" style="fill: #262626"/>
    </g>
    <g clip-path="url(#p6d433a7260)">
     <use xlink:href="#C0_0_9473dd7125" x="108.212358" y="294.538507" style="fill: #262626"/>
    </g>
    <g clip-path="url(#p6d433a7260)">
     <use xlink:href="#C0_0_9473dd7125" x="100.281827" y="293.779644" style="fill: #262626"/>
    </g>
    <g clip-path="url(#p6d433a7260)">
     <use xlink:href="#C0_0_9473dd7125" x="106.135542" y="287.482059" style="fill: #262626"/>
    </g>
    <g clip-path="url(#p6d433a7260)">
     <use xlink:href="#C0_0_9473dd7125" x="115.905916" y="294.506494" style="fill: #262626"/>
    </g>
    <g clip-path="url(#p6d433a7260)">
     <use xlink:href="#C0_0_9473dd7125" x="98.314361" y="281.507754" style="fill: #262626"/>
    </g>
    <g clip-path="url(#p6d433a7260)">
     <use xlink:href="#C0_0_9473dd7125" x="105.451928" y="292.936582" style="fill: #262626"/>
    </g>
    <g clip-path="url(#p6d433a7260)">
     <use xlink:href="#C0_0_9473dd7125" x="102.492344" y="305.810193" style="fill: #262626"/>
    </g>
    <g clip-path="url(#p6d433a7260)">
     <use xlink:href="#C0_0_9473dd7125" x="114.398913" y="292.850809" style="fill: #262626"/>
    </g>
    <g clip-path="url(#p6d433a7260)">
     <use xlink:href="#C0_0_9473dd7125" x="113.797175" y="291.126014" style="fill: #262626"/>
    </g>
    <g clip-path="url(#p6d433a7260)">
     <use xlink:href="#C0_0_9473dd7125" x="100.889036" y="286.702782" style="fill: #262626"/>
    </g>
    <g clip-path="url(#p6d433a7260)">
     <use xlink:href="#C0_0_9473dd7125" x="108.465634" y="294.083783" style="fill: #262626"/>
    </g>
    <g clip-path="url(#p6d433a7260)">
     <use xlink:href="#C0_0_9473dd7125" x="103.476688" y="291.166425" style="fill: #262626"/>
    </g>
    <g clip-path="url(#p6d433a7260)">
     <use xlink:href="#C0_0_9473dd7125" x="99.060931" y="300.357874" style="fill: #262626"/>
    </g>
    <g clip-path="url(#p6d433a7260)">
     <use xlink:href="#C0_0_9473dd7125" x="117.432064" y="293.952645" style="fill: #262626"/>
    </g>
    <g clip-path="url(#p6d433a7260)">
     <use xlink:href="#C0_0_9473dd7125" x="108.972598" y="296.365107" style="fill: #262626"/>
    </g>
    <g clip-path="url(#p6d433a7260)">
     <use xlink:href="#C0_0_9473dd7125" x="107.103281" y="298.759966" style="fill: #262626"/>
    </g>
    <g clip-path="url(#p6d433a7260)">
     <use xlink:href="#C0_0_9473dd7125" x="104.816878" y="294.705758" style="fill: #262626"/>
    </g>
    <g clip-path="url(#p6d433a7260)">
     <use xlink:href="#C0_0_9473dd7125" x="101.109617" y="293.116104" style="fill: #262626"/>
    </g>
    <g clip-path="url(#p6d433a7260)">
     <use xlink:href="#C0_0_9473dd7125" x="113.087588" y="289.798676" style="fill: #262626"/>
    </g>
    <g clip-path="url(#p6d433a7260)">
     <use xlink:href="#C0_0_9473dd7125" x="109.78031" y="290.728759" style="fill: #262626"/>
    </g>
   </g>
   <g id="PathCollection_4">
    <defs>
     <path id="C1_0_e5169355fe" d="M 0 1 
C 0.265203 1 0.51958 0.894634 0.707107 0.707107 
C 0.894634 0.51958 1 0.265203 1 -0 
C 1 -0.265203 0.894634 -0.51958 0.707107 -0.707107 
C 0.51958 -0.894634 0.265203 -1 0 -1 
C -0.265203 -1 -0.51958 -0.894634 -0.707107 -0.707107 
C -0.894634 -0.51958 -1 -0.265203 -1 0 
C -1 0.265203 -0.894634 0.51958 -0.707107 0.707107 
C -0.51958 0.894634 -0.265203 1 0 1 
z
"/>
    </defs>
    <g clip-path="url(#p6d433a7260)">
     <use xlink:href="#C1_0_e5169355fe" x="198.442155" y="294.799018"/>
    </g>
    <g clip-path="url(#p6d433a7260)">
     <use xlink:href="#C1_0_e5169355fe" x="185.242323" y="287.62089"/>
    </g>
    <g clip-path="url(#p6d433a7260)">
     <use xlink:href="#C1_0_e5169355fe" x="180.312503" y="288.880562"/>
    </g>
    <g clip-path="url(#p6d433a7260)">
     <use xlink:href="#C1_0_e5169355fe" x="193.358244" y="293.419517"/>
    </g>
    <g clip-path="url(#p6d433a7260)">
     <use xlink:href="#C1_0_e5169355fe" x="187.846413" y="295.460821"/>
    </g>
    <g clip-path="url(#p6d433a7260)">
     <use xlink:href="#C1_0_e5169355fe" x="181.907382" y="287.201156"/>
    </g>
    <g clip-path="url(#p6d433a7260)">
     <use xlink:href="#C1_0_e5169355fe" x="198.020462" y="286.966038"/>
    </g>
    <g clip-path="url(#p6d433a7260)">
     <use xlink:href="#C1_0_e5169355fe" x="184.295229" y="285.374062"/>
    </g>
    <g clip-path="url(#p6d433a7260)">
     <use xlink:href="#C1_0_e5169355fe" x="197.269883" y="272.222903"/>
    </g>
    <g clip-path="url(#p6d433a7260)">
     <use xlink:href="#C1_0_e5169355fe" x="188.956455" y="291.890276"/>
    </g>
    <g clip-path="url(#p6d433a7260)">
     <use xlink:href="#C1_0_e5169355fe" x="184.368688" y="282.360531"/>
    </g>
    <g clip-path="url(#p6d433a7260)">
     <use xlink:href="#C1_0_e5169355fe" x="197.792813" y="287.745901"/>
    </g>
    <g clip-path="url(#p6d433a7260)">
     <use xlink:href="#C1_0_e5169355fe" x="194.643767" y="293.1474"/>
    </g>
    <g clip-path="url(#p6d433a7260)">
     <use xlink:href="#C1_0_e5169355fe" x="198.557404" y="295.252916"/>
    </g>
    <g clip-path="url(#p6d433a7260)">
     <use xlink:href="#C1_0_e5169355fe" x="198.186093" y="293.0594"/>
    </g>
    <g clip-path="url(#p6d433a7260)">
     <use xlink:href="#C1_0_e5169355fe" x="195.673988" y="287.244316"/>
    </g>
    <g clip-path="url(#p6d433a7260)">
     <use xlink:href="#C1_0_e5169355fe" x="197.350272" y="280.306316"/>
    </g>
    <g clip-path="url(#p6d433a7260)">
     <use xlink:href="#C1_0_e5169355fe" x="195.439244" y="291.157602"/>
    </g>
    <g clip-path="url(#p6d433a7260)">
     <use xlink:href="#C1_0_e5169355fe" x="193.265514" y="286.293686"/>
    </g>
    <g clip-path="url(#p6d433a7260)">
     <use xlink:href="#C1_0_e5169355fe" x="187.679024" y="287.548444"/>
    </g>
    <g clip-path="url(#p6d433a7260)">
     <use xlink:href="#C1_0_e5169355fe" x="192.557102" y="289.492274"/>
    </g>
    <g clip-path="url(#p6d433a7260)">
     <use xlink:href="#C1_0_e5169355fe" x="196.462509" y="293.68213"/>
    </g>
    <g clip-path="url(#p6d433a7260)">
     <use xlink:href="#C1_0_e5169355fe" x="187.199908" y="285.45069"/>
    </g>
    <g clip-path="url(#p6d433a7260)">
     <use xlink:href="#C1_0_e5169355fe" x="181.772197" y="283.02815"/>
    </g>
   </g>
   <g id="PathCollection_5">
    <defs>
     <path id="C2_0_f200150e71" d="M 0 1 
C 0.265203 1 0.51958 0.894634 0.707107 0.707107 
C 0.894634 0.51958 1 0.265203 1 -0 
C 1 -0.265203 0.894634 -0.51958 0.707107 -0.707107 
C 0.51958 -0.894634 0.265203 -1 0 -1 
C -0.265203 -1 -0.51958 -0.894634 -0.707107 -0.707107 
C -0.894634 -0.51958 -1 -0.265203 -1 0 
C -1 0.265203 -0.894634 0.51958 -0.707107 0.707107 
C -0.51958 0.894634 -0.265203 1 0 1 
z
"/>
    </defs>
    <g clip-path="url(#p6d433a7260)">
     <use xlink:href="#C2_0_f200150e71" x="310.592869" y="284.552949" style="fill: #262626"/>
    </g>
    <g clip-path="url(#p6d433a7260)">
     <use xlink:href="#C2_0_f200150e71" x="301.994091" y="288.775021" style="fill: #262626"/>
    </g>
    <g clip-path="url(#p6d433a7260)">
     <use xlink:href="#C2_0_f200150e71" x="315.538057" y="293.079684" style="fill: #262626"/>
    </g>
    <g clip-path="url(#p6d433a7260)">
     <use xlink:href="#C2_0_f200150e71" x="316.693343" y="293.910067" style="fill: #262626"/>
    </g>
    <g clip-path="url(#p6d433a7260)">
     <use xlink:href="#C2_0_f200150e71" x="303.989946" y="297.096302" style="fill: #262626"/>
    </g>
    <g clip-path="url(#p6d433a7260)">
     <use xlink:href="#C2_0_f200150e71" x="318.545838" y="294.729549" style="fill: #262626"/>
    </g>
    <g clip-path="url(#p6d433a7260)">
     <use xlink:href="#C2_0_f200150e71" x="302.458169" y="294.624599" style="fill: #262626"/>
    </g>
    <g clip-path="url(#p6d433a7260)">
     <use xlink:href="#C2_0_f200150e71" x="303.051547" y="295.570849" style="fill: #262626"/>
    </g>
    <g clip-path="url(#p6d433a7260)">
     <use xlink:href="#C2_0_f200150e71" x="313.247577" y="277.695639" style="fill: #262626"/>
    </g>
    <g clip-path="url(#p6d433a7260)">
     <use xlink:href="#C2_0_f200150e71" x="311.148065" y="284.17317" style="fill: #262626"/>
    </g>
    <g clip-path="url(#p6d433a7260)">
     <use xlink:href="#C2_0_f200150e71" x="315.587744" y="289.451178" style="fill: #262626"/>
    </g>
    <g clip-path="url(#p6d433a7260)">
     <use xlink:href="#C2_0_f200150e71" x="305.604296" y="293.366529" style="fill: #262626"/>
    </g>
    <g clip-path="url(#p6d433a7260)">
     <use xlink:href="#C2_0_f200150e71" x="309.727895" y="289.185532" style="fill: #262626"/>
    </g>
    <g clip-path="url(#p6d433a7260)">
     <use xlink:href="#C2_0_f200150e71" x="317.336586" y="285.313454" style="fill: #262626"/>
    </g>
    <g clip-path="url(#p6d433a7260)">
     <use xlink:href="#C2_0_f200150e71" x="307.068674" y="288.561764" style="fill: #262626"/>
    </g>
    <g clip-path="url(#p6d433a7260)">
     <use xlink:href="#C2_0_f200150e71" x="316.106241" y="289.450772" style="fill: #262626"/>
    </g>
    <g clip-path="url(#p6d433a7260)">
     <use xlink:href="#C2_0_f200150e71" x="316.22995" y="293.438817" style="fill: #262626"/>
    </g>
    <g clip-path="url(#p6d433a7260)">
     <use xlink:href="#C2_0_f200150e71" x="310.056693" y="291.610659" style="fill: #262626"/>
    </g>
    <g clip-path="url(#p6d433a7260)">
     <use xlink:href="#C2_0_f200150e71" x="315.253021" y="291.674753" style="fill: #262626"/>
    </g>
    <g clip-path="url(#p6d433a7260)">
     <use xlink:href="#C2_0_f200150e71" x="303.37113" y="297.574643" style="fill: #262626"/>
    </g>
    <g clip-path="url(#p6d433a7260)">
     <use xlink:href="#C2_0_f200150e71" x="310.684205" y="294.680256" style="fill: #262626"/>
    </g>
    <g clip-path="url(#p6d433a7260)">
     <use xlink:href="#C2_0_f200150e71" x="301.552453" y="294.558857" style="fill: #262626"/>
    </g>
    <g clip-path="url(#p6d433a7260)">
     <use xlink:href="#C2_0_f200150e71" x="304.524027" y="298.319328" style="fill: #262626"/>
    </g>
    <g clip-path="url(#p6d433a7260)">
     <use xlink:href="#C2_0_f200150e71" x="301.16366" y="291.882274" style="fill: #262626"/>
    </g>
    <g clip-path="url(#p6d433a7260)">
     <use xlink:href="#C2_0_f200150e71" x="310.714434" y="293.513345" style="fill: #262626"/>
    </g>
    <g clip-path="url(#p6d433a7260)">
     <use xlink:href="#C2_0_f200150e71" x="299.615214" y="292.0111" style="fill: #262626"/>
    </g>
    <g clip-path="url(#p6d433a7260)">
     <use xlink:href="#C2_0_f200150e71" x="311.065927" y="293.222379" style="fill: #262626"/>
    </g>
    <g clip-path="url(#p6d433a7260)">
     <use xlink:href="#C2_0_f200150e71" x="304.853026" y="292.010455" style="fill: #262626"/>
    </g>
    <g clip-path="url(#p6d433a7260)">
     <use xlink:href="#C2_0_f200150e71" x="310.713334" y="301.263627" style="fill: #262626"/>
    </g>
    <g clip-path="url(#p6d433a7260)">
     <use xlink:href="#C2_0_f200150e71" x="314.253694" y="290.175518" style="fill: #262626"/>
    </g>
    <g clip-path="url(#p6d433a7260)">
     <use xlink:href="#C2_0_f200150e71" x="310.830256" y="292.382601" style="fill: #262626"/>
    </g>
    <g clip-path="url(#p6d433a7260)">
     <use xlink:href="#C2_0_f200150e71" x="317.624141" y="289.418968" style="fill: #262626"/>
    </g>
    <g clip-path="url(#p6d433a7260)">
     <use xlink:href="#C2_0_f200150e71" x="313.94105" y="291.303637" style="fill: #262626"/>
    </g>
    <g clip-path="url(#p6d433a7260)">
     <use xlink:href="#C2_0_f200150e71" x="314.49295" y="291.643851" style="fill: #262626"/>
    </g>
    <g clip-path="url(#p6d433a7260)">
     <use xlink:href="#C2_0_f200150e71" x="302.431934" y="294.040574" style="fill: #262626"/>
    </g>
    <g clip-path="url(#p6d433a7260)">
     <use xlink:href="#C2_0_f200150e71" x="314.284138" y="289.020684" style="fill: #262626"/>
    </g>
    <g clip-path="url(#p6d433a7260)">
     <use xlink:href="#C2_0_f200150e71" x="304.020566" y="292.807477" style="fill: #262626"/>
    </g>
    <g clip-path="url(#p6d433a7260)">
     <use xlink:href="#C2_0_f200150e71" x="316.363499" y="286.571164" style="fill: #262626"/>
    </g>
    <g clip-path="url(#p6d433a7260)">
     <use xlink:href="#C2_0_f200150e71" x="303.086009" y="294.400888" style="fill: #262626"/>
    </g>
    <g clip-path="url(#p6d433a7260)">
     <use xlink:href="#C2_0_f200150e71" x="308.785291" y="287.065192" style="fill: #262626"/>
    </g>
    <g clip-path="url(#p6d433a7260)">
     <use xlink:href="#C2_0_f200150e71" x="310.295069" y="299.0484" style="fill: #262626"/>
    </g>
    <g clip-path="url(#p6d433a7260)">
     <use xlink:href="#C2_0_f200150e71" x="303.737766" y="296.251329" style="fill: #262626"/>
    </g>
    <g clip-path="url(#p6d433a7260)">
     <use xlink:href="#C2_0_f200150e71" x="299.651037" y="299.657023" style="fill: #262626"/>
    </g>
    <g clip-path="url(#p6d433a7260)">
     <use xlink:href="#C2_0_f200150e71" x="304.344073" y="295.909151" style="fill: #262626"/>
    </g>
    <g clip-path="url(#p6d433a7260)">
     <use xlink:href="#C2_0_f200150e71" x="306.548531" y="285.67378" style="fill: #262626"/>
    </g>
    <g clip-path="url(#p6d433a7260)">
     <use xlink:href="#C2_0_f200150e71" x="309.354792" y="293.273317" style="fill: #262626"/>
    </g>
    <g clip-path="url(#p6d433a7260)">
     <use xlink:href="#C2_0_f200150e71" x="315.160501" y="286.40227" style="fill: #262626"/>
    </g>
    <g clip-path="url(#p6d433a7260)">
     <use xlink:href="#C2_0_f200150e71" x="313.668777" y="288.823779" style="fill: #262626"/>
    </g>
    <g clip-path="url(#p6d433a7260)">
     <use xlink:href="#C2_0_f200150e71" x="309.35987" y="292.809994" style="fill: #262626"/>
    </g>
    <g clip-path="url(#p6d433a7260)">
     <use xlink:href="#C2_0_f200150e71" x="311.068642" y="295.781562" style="fill: #262626"/>
    </g>
    <g clip-path="url(#p6d433a7260)">
     <use xlink:href="#C2_0_f200150e71" x="308.555549" y="293.139824" style="fill: #262626"/>
    </g>
    <g clip-path="url(#p6d433a7260)">
     <use xlink:href="#C2_0_f200150e71" x="309.183743" y="283.693032" style="fill: #262626"/>
    </g>
    <g clip-path="url(#p6d433a7260)">
     <use xlink:href="#C2_0_f200150e71" x="305.294267" y="294.800288" style="fill: #262626"/>
    </g>
    <g clip-path="url(#p6d433a7260)">
     <use xlink:href="#C2_0_f200150e71" x="304.952583" y="288.972621" style="fill: #262626"/>
    </g>
   </g>
   <g id="PathCollection_6">
    <defs>
     <path id="C3_0_c5e299c4ca" d="M 0 1 
C 0.265203 1 0.51958 0.894634 0.707107 0.707107 
C 0.894634 0.51958 1 0.265203 1 -0 
C 1 -0.265203 0.894634 -0.51958 0.707107 -0.707107 
C 0.51958 -0.894634 0.265203 -1 0 -1 
C -0.265203 -1 -0.51958 -0.894634 -0.707107 -0.707107 
C -0.894634 -0.51958 -1 -0.265203 -1 0 
C -1 0.265203 -0.894634 0.51958 -0.707107 0.707107 
C -0.51958 0.894634 -0.265203 1 0 1 
z
"/>
    </defs>
    <g clip-path="url(#p6d433a7260)">
     <use xlink:href="#C3_0_c5e299c4ca" x="391.159288" y="295.717865"/>
    </g>
    <g clip-path="url(#p6d433a7260)">
     <use xlink:href="#C3_0_c5e299c4ca" x="384.658492" y="290.138794"/>
    </g>
    <g clip-path="url(#p6d433a7260)">
     <use xlink:href="#C3_0_c5e299c4ca" x="383.806747" y="296.997665"/>
    </g>
    <g clip-path="url(#p6d433a7260)">
     <use xlink:href="#C3_0_c5e299c4ca" x="384.244754" y="277.772783"/>
    </g>
    <g clip-path="url(#p6d433a7260)">
     <use xlink:href="#C3_0_c5e299c4ca" x="380.179115" y="275.495428"/>
    </g>
    <g clip-path="url(#p6d433a7260)">
     <use xlink:href="#C3_0_c5e299c4ca" x="387.812706" y="283.61469"/>
    </g>
    <g clip-path="url(#p6d433a7260)">
     <use xlink:href="#C3_0_c5e299c4ca" x="388.377355" y="292.569101"/>
    </g>
    <g clip-path="url(#p6d433a7260)">
     <use xlink:href="#C3_0_c5e299c4ca" x="395.009625" y="285.339205"/>
    </g>
   </g>
   <g id="text_7">
    <!-- 44 -->
    <g style="fill: #262626" transform="translate(118.119 239.535421)scale(0.1 -0.1)">
     <use xlink:href="#DejaVuSans-34"/>
     <use xlink:href="#DejaVuSans-34" x="63.623047"/>
    </g>
   </g>
   <g id="text_8">
    <!-- p=5.287062219562614e-05 -->
    <g style="fill: #262626" transform="translate(61.242125 279.565191)scale(0.08 -0.08)">
     <defs>
      <path id="DejaVuSans-3d" d="M 678 2906 
L 4684 2906 
L 4684 2381 
L 678 2381 
L 678 2906 
z
M 678 1631 
L 4684 1631 
L 4684 1100 
L 678 1100 
L 678 1631 
z
" transform="scale(0.015625)"/>
      <path id="DejaVuSans-38" d="M 2034 2216 
Q 1584 2216 1326 1975 
Q 1069 1734 1069 1313 
Q 1069 891 1326 650 
Q 1584 409 2034 409 
Q 2484 409 2743 651 
Q 3003 894 3003 1313 
Q 3003 1734 2745 1975 
Q 2488 2216 2034 2216 
z
M 1403 2484 
Q 997 2584 770 2862 
Q 544 3141 544 3541 
Q 544 4100 942 4425 
Q 1341 4750 2034 4750 
Q 2731 4750 3128 4425 
Q 3525 4100 3525 3541 
Q 3525 3141 3298 2862 
Q 3072 2584 2669 2484 
Q 3125 2378 3379 2068 
Q 3634 1759 3634 1313 
Q 3634 634 3220 271 
Q 2806 -91 2034 -91 
Q 1263 -91 848 271 
Q 434 634 434 1313 
Q 434 1759 690 2068 
Q 947 2378 1403 2484 
z
M 1172 3481 
Q 1172 3119 1398 2916 
Q 1625 2713 2034 2713 
Q 2441 2713 2670 2916 
Q 2900 3119 2900 3481 
Q 2900 3844 2670 4047 
Q 2441 4250 2034 4250 
Q 1625 4250 1398 4047 
Q 1172 3844 1172 3481 
z
" transform="scale(0.015625)"/>
      <path id="DejaVuSans-37" d="M 525 4666 
L 3525 4666 
L 3525 4397 
L 1831 0 
L 1172 0 
L 2766 4134 
L 525 4134 
L 525 4666 
z
" transform="scale(0.015625)"/>
      <path id="DejaVuSans-36" d="M 2113 2584 
Q 1688 2584 1439 2293 
Q 1191 2003 1191 1497 
Q 1191 994 1439 701 
Q 1688 409 2113 409 
Q 2538 409 2786 701 
Q 3034 994 3034 1497 
Q 3034 2003 2786 2293 
Q 2538 2584 2113 2584 
z
M 3366 4563 
L 3366 3988 
Q 3128 4100 2886 4159 
Q 2644 4219 2406 4219 
Q 1781 4219 1451 3797 
Q 1122 3375 1075 2522 
Q 1259 2794 1537 2939 
Q 1816 3084 2150 3084 
Q 2853 3084 3261 2657 
Q 3669 2231 3669 1497 
Q 3669 778 3244 343 
Q 2819 -91 2113 -91 
Q 1303 -91 875 529 
Q 447 1150 447 2328 
Q 447 3434 972 4092 
Q 1497 4750 2381 4750 
Q 2619 4750 2861 4703 
Q 3103 4656 3366 4563 
z
" transform="scale(0.015625)"/>
      <path id="DejaVuSans-39" d="M 703 97 
L 703 672 
Q 941 559 1184 500 
Q 1428 441 1663 441 
Q 2288 441 2617 861 
Q 2947 1281 2994 2138 
Q 2813 1869 2534 1725 
Q 2256 1581 1919 1581 
Q 1219 1581 811 2004 
Q 403 2428 403 3163 
Q 403 3881 828 4315 
Q 1253 4750 1959 4750 
Q 2769 4750 3195 4129 
Q 3622 3509 3622 2328 
Q 3622 1225 3098 567 
Q 2575 -91 1691 -91 
Q 1453 -91 1209 -44 
Q 966 3 703 97 
z
M 1959 2075 
Q 2384 2075 2632 2365 
Q 2881 2656 2881 3163 
Q 2881 3666 2632 3958 
Q 2384 4250 1959 4250 
Q 1534 4250 1286 3958 
Q 1038 3666 1038 3163 
Q 1038 2656 1286 2365 
Q 1534 2075 1959 2075 
z
" transform="scale(0.015625)"/>
      <path id="DejaVuSans-2d" d="M 313 2009 
L 1997 2009 
L 1997 1497 
L 313 1497 
L 313 2009 
z
" transform="scale(0.015625)"/>
     </defs>
     <use xlink:href="#DejaVuSans-70"/>
     <use xlink:href="#DejaVuSans-3d" x="63.476562"/>
     <use xlink:href="#DejaVuSans-35" x="147.265625"/>
     <use xlink:href="#DejaVuSans-2e" x="210.888672"/>
     <use xlink:href="#DejaVuSans-32" x="242.675781"/>
     <use xlink:href="#DejaVuSans-38" x="306.298828"/>
     <use xlink:href="#DejaVuSans-37" x="369.921875"/>
     <use xlink:href="#DejaVuSans-30" x="433.544922"/>
     <use xlink:href="#DejaVuSans-36" x="497.167969"/>
     <use xlink:href="#DejaVuSans-32" x="560.791016"/>
     <use xlink:href="#DejaVuSans-32" x="624.414062"/>
     <use xlink:href="#DejaVuSans-31" x="688.037109"/>
     <use xlink:href="#DejaVuSans-39" x="751.660156"/>
     <use xlink:href="#DejaVuSans-35" x="815.283203"/>
     <use xlink:href="#DejaVuSans-36" x="878.90625"/>
     <use xlink:href="#DejaVuSans-32" x="942.529297"/>
     <use xlink:href="#DejaVuSans-36" x="1006.152344"/>
     <use xlink:href="#DejaVuSans-31" x="1069.775391"/>
     <use xlink:href="#DejaVuSans-34" x="1133.398438"/>
     <use xlink:href="#DejaVuSans-65" x="1197.021484"/>
     <use xlink:href="#DejaVuSans-2d" x="1258.544922"/>
     <use xlink:href="#DejaVuSans-30" x="1294.628906"/>
     <use xlink:href="#DejaVuSans-35" x="1358.251953"/>
    </g>
   </g>
   <g id="text_9">
    <!-- 24 -->
    <g style="fill: #262626" transform="translate(178.461 239.535421)scale(0.1 -0.1)">
     <use xlink:href="#DejaVuSans-32"/>
     <use xlink:href="#DejaVuSans-34" x="63.623047"/>
    </g>
   </g>
   <g id="text_10">
    <!-- 54 -->
    <g style="fill: #262626" transform="translate(319.259 239.535421)scale(0.1 -0.1)">
     <use xlink:href="#DejaVuSans-35"/>
     <use xlink:href="#DejaVuSans-34" x="63.623047"/>
    </g>
   </g>
   <g id="text_11">
    <!-- p=0.01791194482194298 -->
    <g style="fill: #262626" transform="translate(266.2865 275.753076)scale(0.08 -0.08)">
     <use xlink:href="#DejaVuSans-70"/>
     <use xlink:href="#DejaVuSans-3d" x="63.476562"/>
     <use xlink:href="#DejaVuSans-30" x="147.265625"/>
     <use xlink:href="#DejaVuSans-2e" x="210.888672"/>
     <use xlink:href="#DejaVuSans-30" x="242.675781"/>
     <use xlink:href="#DejaVuSans-31" x="306.298828"/>
     <use xlink:href="#DejaVuSans-37" x="369.921875"/>
     <use xlink:href="#DejaVuSans-39" x="433.544922"/>
     <use xlink:href="#DejaVuSans-31" x="497.167969"/>
     <use xlink:href="#DejaVuSans-31" x="560.791016"/>
     <use xlink:href="#DejaVuSans-39" x="624.414062"/>
     <use xlink:href="#DejaVuSans-34" x="688.037109"/>
     <use xlink:href="#DejaVuSans-34" x="751.660156"/>
     <use xlink:href="#DejaVuSans-38" x="815.283203"/>
     <use xlink:href="#DejaVuSans-32" x="878.90625"/>
     <use xlink:href="#DejaVuSans-31" x="942.529297"/>
     <use xlink:href="#DejaVuSans-39" x="1006.152344"/>
     <use xlink:href="#DejaVuSans-34" x="1069.775391"/>
     <use xlink:href="#DejaVuSans-32" x="1133.398438"/>
     <use xlink:href="#DejaVuSans-39" x="1197.021484"/>
     <use xlink:href="#DejaVuSans-38" x="1260.644531"/>
    </g>
   </g>
   <g id="text_12">
    <!-- 8 -->
    <g style="fill: #262626" transform="translate(379.601 239.535421)scale(0.1 -0.1)">
     <use xlink:href="#DejaVuSans-38"/>
    </g>
   </g>
   <g id="legend_1">
    <g id="patch_13">
     <path d="M 217.224062 277.882187 
L 237.224062 277.882187 
L 237.224062 270.882187 
L 217.224062 270.882187 
z
" style="fill: #ecf2ec; stroke: #262626; stroke-width: 0.75; stroke-linejoin: miter"/>
    </g>
    <g id="text_13">
     <!-- Mutant -->
     <g style="fill: #262626" transform="translate(245.224062 277.882187)scale(0.1 -0.1)">
      <defs>
       <path id="DejaVuSans-4d" d="M 628 4666 
L 1569 4666 
L 2759 1491 
L 3956 4666 
L 4897 4666 
L 4897 0 
L 4281 0 
L 4281 4097 
L 3078 897 
L 2444 897 
L 1241 4097 
L 1241 0 
L 628 0 
L 628 4666 
z
" transform="scale(0.015625)"/>
       <path id="DejaVuSans-75" d="M 544 1381 
L 544 3500 
L 1119 3500 
L 1119 1403 
Q 1119 906 1312 657 
Q 1506 409 1894 409 
Q 2359 409 2629 706 
Q 2900 1003 2900 1516 
L 2900 3500 
L 3475 3500 
L 3475 0 
L 2900 0 
L 2900 538 
Q 2691 219 2414 64 
Q 2138 -91 1772 -91 
Q 1169 -91 856 284 
Q 544 659 544 1381 
z
M 1991 3584 
L 1991 3584 
z
" transform="scale(0.015625)"/>
       <path id="DejaVuSans-61" d="M 2194 1759 
Q 1497 1759 1228 1600 
Q 959 1441 959 1056 
Q 959 750 1161 570 
Q 1363 391 1709 391 
Q 2188 391 2477 730 
Q 2766 1069 2766 1631 
L 2766 1759 
L 2194 1759 
z
M 3341 1997 
L 3341 0 
L 2766 0 
L 2766 531 
Q 2569 213 2275 61 
Q 1981 -91 1556 -91 
Q 1019 -91 701 211 
Q 384 513 384 1019 
Q 384 1609 779 1909 
Q 1175 2209 1959 2209 
L 2766 2209 
L 2766 2266 
Q 2766 2663 2505 2880 
Q 2244 3097 1772 3097 
Q 1472 3097 1187 3025 
Q 903 2953 641 2809 
L 641 3341 
Q 956 3463 1253 3523 
Q 1550 3584 1831 3584 
Q 2591 3584 2966 3190 
Q 3341 2797 3341 1997 
z
" transform="scale(0.015625)"/>
      </defs>
      <use xlink:href="#DejaVuSans-4d"/>
      <use xlink:href="#DejaVuSans-75" x="86.279297"/>
      <use xlink:href="#DejaVuSans-74" x="149.658203"/>
      <use xlink:href="#DejaVuSans-61" x="188.867188"/>
      <use xlink:href="#DejaVuSans-6e" x="250.146484"/>
      <use xlink:href="#DejaVuSans-74" x="313.525391"/>
     </g>
    </g>
    <g id="patch_14">
     <path d="M 217.224062 292.560312 
L 237.224062 292.560312 
L 237.224062 285.560312 
L 217.224062 285.560312 
z
" style="fill: #107010; stroke: #262626; stroke-width: 0.75; stroke-linejoin: miter"/>
    </g>
    <g id="text_14">
     <!-- WT -->
     <g style="fill: #262626" transform="translate(245.224062 292.560312)scale(0.1 -0.1)">
      <defs>
       <path id="DejaVuSans-57" d="M 213 4666 
L 850 4666 
L 1831 722 
L 2809 4666 
L 3519 4666 
L 4500 722 
L 5478 4666 
L 6119 4666 
L 4947 0 
L 4153 0 
L 3169 4050 
L 2175 0 
L 1381 0 
L 213 4666 
z
" transform="scale(0.015625)"/>
       <path id="DejaVuSans-54" d="M -19 4666 
L 3928 4666 
L 3928 4134 
L 2272 4134 
L 2272 0 
L 1638 0 
L 1638 4134 
L -19 4134 
L -19 4666 
z
" transform="scale(0.015625)"/>
      </defs>
      <use xlink:href="#DejaVuSans-57"/>
      <use xlink:href="#DejaVuSans-54" x="98.876953"/>
     </g>
    </g>
   </g>
  </g>
 </g>
 <defs>
  <clipPath id="p6d433a7260">
   <rect x="47.72" y="269.081194" width="402.28" height="34.558806"/>
  </clipPath>
 </defs>
</svg>
