<?xml version="1.0" encoding="utf-8" standalone="no"?>
<!DOCTYPE svg PUBLIC "-//W3C//DTD SVG 1.1//EN"
  "http://www.w3.org/Graphics/SVG/1.1/DTD/svg11.dtd">
<svg xmlns:xlink="http://www.w3.org/1999/xlink" width="460.8pt" height="345.6pt" viewBox="0 0 460.8 345.6" xmlns="http://www.w3.org/2000/svg" version="1.1">
 <metadata>
  <rdf:RDF xmlns:dc="http://purl.org/dc/elements/1.1/" xmlns:cc="http://creativecommons.org/ns#" xmlns:rdf="http://www.w3.org/1999/02/22-rdf-syntax-ns#">
   <cc:Work>
    <dc:type rdf:resource="http://purl.org/dc/dcmitype/StillImage"/>
    <dc:date>2024-07-25T17:15:34.386523</dc:date>
    <dc:format>image/svg+xml</dc:format>
    <dc:creator>
     <cc:Agent>
      <dc:title>Matplotlib v3.5.3, https://matplotlib.org/</dc:title>
     </cc:Agent>
    </dc:creator>
   </cc:Work>
  </rdf:RDF>
 </metadata>
 <defs>
  <style type="text/css">*{stroke-linejoin: round; stroke-linecap: butt}</style>
 </defs>
 <g id="figure_1">
  <g id="patch_1">
   <path d="M 0 345.6 
L 460.8 345.6 
L 460.8 0 
L 0 0 
z
" style="fill: #ffffff"/>
  </g>
  <g id="axes_1">
   <g id="patch_2">
    <path d="M 59.88125 303.53875 
L 450 303.53875 
L 450 12.063819 
L 59.88125 12.063819 
z
" style="fill: #ffffff"/>
   </g>
   <g id="matplotlib.axis_1">
    <g id="xtick_1">
     <g id="text_1">
      <!-- 12I -->
      <g style="fill: #262626" transform="translate(117.951042 317.696562)scale(0.1 -0.1)">
       <defs>
        <path id="ArialMT-31" d="M 2384 0 
L 1822 0 
L 1822 3584 
Q 1619 3391 1289 3197 
Q 959 3003 697 2906 
L 697 3450 
Q 1169 3672 1522 3987 
Q 1875 4303 2022 4600 
L 2384 4600 
L 2384 0 
z
" transform="scale(0.015625)"/>
        <path id="ArialMT-32" d="M 3222 541 
L 3222 0 
L 194 0 
Q 188 203 259 391 
Q 375 700 629 1000 
Q 884 1300 1366 1694 
Q 2113 2306 2375 2664 
Q 2638 3022 2638 3341 
Q 2638 3675 2398 3904 
Q 2159 4134 1775 4134 
Q 1369 4134 1125 3890 
Q 881 3647 878 3216 
L 300 3275 
Q 359 3922 746 4261 
Q 1134 4600 1788 4600 
Q 2447 4600 2831 4234 
Q 3216 3869 3216 3328 
Q 3216 3053 3103 2787 
Q 2991 2522 2730 2228 
Q 2469 1934 1863 1422 
Q 1356 997 1212 845 
Q 1069 694 975 541 
L 3222 541 
z
" transform="scale(0.015625)"/>
        <path id="ArialMT-49" d="M 597 0 
L 597 4581 
L 1203 4581 
L 1203 0 
L 597 0 
z
" transform="scale(0.015625)"/>
       </defs>
       <use xlink:href="#ArialMT-31"/>
       <use xlink:href="#ArialMT-32" x="55.615234"/>
       <use xlink:href="#ArialMT-49" x="111.230469"/>
      </g>
     </g>
    </g>
    <g id="xtick_2">
     <g id="text_2">
      <!-- 4I -->
      <g style="fill: #262626" transform="translate(250.771094 317.696562)scale(0.1 -0.1)">
       <defs>
        <path id="ArialMT-34" d="M 2069 0 
L 2069 1097 
L 81 1097 
L 81 1613 
L 2172 4581 
L 2631 4581 
L 2631 1613 
L 3250 1613 
L 3250 1097 
L 2631 1097 
L 2631 0 
L 2069 0 
z
M 2069 1613 
L 2069 3678 
L 634 1613 
L 2069 1613 
z
" transform="scale(0.015625)"/>
       </defs>
       <use xlink:href="#ArialMT-34"/>
       <use xlink:href="#ArialMT-49" x="55.615234"/>
      </g>
     </g>
    </g>
    <g id="xtick_3">
     <g id="text_3">
      <!-- 8I -->
      <g style="fill: #262626" transform="translate(380.810677 317.696562)scale(0.1 -0.1)">
       <defs>
        <path id="ArialMT-38" d="M 1131 2484 
Q 781 2613 612 2850 
Q 444 3088 444 3419 
Q 444 3919 803 4259 
Q 1163 4600 1759 4600 
Q 2359 4600 2725 4251 
Q 3091 3903 3091 3403 
Q 3091 3084 2923 2848 
Q 2756 2613 2416 2484 
Q 2838 2347 3058 2040 
Q 3278 1734 3278 1309 
Q 3278 722 2862 322 
Q 2447 -78 1769 -78 
Q 1091 -78 675 323 
Q 259 725 259 1325 
Q 259 1772 486 2073 
Q 713 2375 1131 2484 
z
M 1019 3438 
Q 1019 3113 1228 2906 
Q 1438 2700 1772 2700 
Q 2097 2700 2305 2904 
Q 2513 3109 2513 3406 
Q 2513 3716 2298 3927 
Q 2084 4138 1766 4138 
Q 1444 4138 1231 3931 
Q 1019 3725 1019 3438 
z
M 838 1322 
Q 838 1081 952 856 
Q 1066 631 1291 507 
Q 1516 384 1775 384 
Q 2178 384 2440 643 
Q 2703 903 2703 1303 
Q 2703 1709 2433 1975 
Q 2163 2241 1756 2241 
Q 1359 2241 1098 1978 
Q 838 1716 838 1322 
z
" transform="scale(0.015625)"/>
       </defs>
       <use xlink:href="#ArialMT-38"/>
       <use xlink:href="#ArialMT-49" x="55.615234"/>
      </g>
     </g>
    </g>
    <g id="text_4">
     <!-- pos_mutAA -->
     <g style="fill: #262626" transform="translate(229.094531 330.841875)scale(0.1 -0.1)">
      <defs>
       <path id="ArialMT-70" d="M 422 -1272 
L 422 3319 
L 934 3319 
L 934 2888 
Q 1116 3141 1344 3267 
Q 1572 3394 1897 3394 
Q 2322 3394 2647 3175 
Q 2972 2956 3137 2557 
Q 3303 2159 3303 1684 
Q 3303 1175 3120 767 
Q 2938 359 2589 142 
Q 2241 -75 1856 -75 
Q 1575 -75 1351 44 
Q 1128 163 984 344 
L 984 -1272 
L 422 -1272 
z
M 931 1641 
Q 931 1000 1190 694 
Q 1450 388 1819 388 
Q 2194 388 2461 705 
Q 2728 1022 2728 1688 
Q 2728 2322 2467 2637 
Q 2206 2953 1844 2953 
Q 1484 2953 1207 2617 
Q 931 2281 931 1641 
z
" transform="scale(0.015625)"/>
       <path id="ArialMT-6f" d="M 213 1659 
Q 213 2581 725 3025 
Q 1153 3394 1769 3394 
Q 2453 3394 2887 2945 
Q 3322 2497 3322 1706 
Q 3322 1066 3130 698 
Q 2938 331 2570 128 
Q 2203 -75 1769 -75 
Q 1072 -75 642 372 
Q 213 819 213 1659 
z
M 791 1659 
Q 791 1022 1069 705 
Q 1347 388 1769 388 
Q 2188 388 2466 706 
Q 2744 1025 2744 1678 
Q 2744 2294 2464 2611 
Q 2184 2928 1769 2928 
Q 1347 2928 1069 2612 
Q 791 2297 791 1659 
z
" transform="scale(0.015625)"/>
       <path id="ArialMT-73" d="M 197 991 
L 753 1078 
Q 800 744 1014 566 
Q 1228 388 1613 388 
Q 2000 388 2187 545 
Q 2375 703 2375 916 
Q 2375 1106 2209 1216 
Q 2094 1291 1634 1406 
Q 1016 1563 777 1677 
Q 538 1791 414 1992 
Q 291 2194 291 2438 
Q 291 2659 392 2848 
Q 494 3038 669 3163 
Q 800 3259 1026 3326 
Q 1253 3394 1513 3394 
Q 1903 3394 2198 3281 
Q 2494 3169 2634 2976 
Q 2775 2784 2828 2463 
L 2278 2388 
Q 2241 2644 2061 2787 
Q 1881 2931 1553 2931 
Q 1166 2931 1000 2803 
Q 834 2675 834 2503 
Q 834 2394 903 2306 
Q 972 2216 1119 2156 
Q 1203 2125 1616 2013 
Q 2213 1853 2448 1751 
Q 2684 1650 2818 1456 
Q 2953 1263 2953 975 
Q 2953 694 2789 445 
Q 2625 197 2315 61 
Q 2006 -75 1616 -75 
Q 969 -75 630 194 
Q 291 463 197 991 
z
" transform="scale(0.015625)"/>
       <path id="ArialMT-5f" d="M -97 -1272 
L -97 -866 
L 3631 -866 
L 3631 -1272 
L -97 -1272 
z
" transform="scale(0.015625)"/>
       <path id="ArialMT-6d" d="M 422 0 
L 422 3319 
L 925 3319 
L 925 2853 
Q 1081 3097 1340 3245 
Q 1600 3394 1931 3394 
Q 2300 3394 2536 3241 
Q 2772 3088 2869 2813 
Q 3263 3394 3894 3394 
Q 4388 3394 4653 3120 
Q 4919 2847 4919 2278 
L 4919 0 
L 4359 0 
L 4359 2091 
Q 4359 2428 4304 2576 
Q 4250 2725 4106 2815 
Q 3963 2906 3769 2906 
Q 3419 2906 3187 2673 
Q 2956 2441 2956 1928 
L 2956 0 
L 2394 0 
L 2394 2156 
Q 2394 2531 2256 2718 
Q 2119 2906 1806 2906 
Q 1569 2906 1367 2781 
Q 1166 2656 1075 2415 
Q 984 2175 984 1722 
L 984 0 
L 422 0 
z
" transform="scale(0.015625)"/>
       <path id="ArialMT-75" d="M 2597 0 
L 2597 488 
Q 2209 -75 1544 -75 
Q 1250 -75 995 37 
Q 741 150 617 320 
Q 494 491 444 738 
Q 409 903 409 1263 
L 409 3319 
L 972 3319 
L 972 1478 
Q 972 1038 1006 884 
Q 1059 663 1231 536 
Q 1403 409 1656 409 
Q 1909 409 2131 539 
Q 2353 669 2445 892 
Q 2538 1116 2538 1541 
L 2538 3319 
L 3100 3319 
L 3100 0 
L 2597 0 
z
" transform="scale(0.015625)"/>
       <path id="ArialMT-74" d="M 1650 503 
L 1731 6 
Q 1494 -44 1306 -44 
Q 1000 -44 831 53 
Q 663 150 594 308 
Q 525 466 525 972 
L 525 2881 
L 113 2881 
L 113 3319 
L 525 3319 
L 525 4141 
L 1084 4478 
L 1084 3319 
L 1650 3319 
L 1650 2881 
L 1084 2881 
L 1084 941 
Q 1084 700 1114 631 
Q 1144 563 1211 522 
Q 1278 481 1403 481 
Q 1497 481 1650 503 
z
" transform="scale(0.015625)"/>
       <path id="ArialMT-41" d="M -9 0 
L 1750 4581 
L 2403 4581 
L 4278 0 
L 3588 0 
L 3053 1388 
L 1138 1388 
L 634 0 
L -9 0 
z
M 1313 1881 
L 2866 1881 
L 2388 3150 
Q 2169 3728 2063 4100 
Q 1975 3659 1816 3225 
L 1313 1881 
z
" transform="scale(0.015625)"/>
      </defs>
      <use xlink:href="#ArialMT-70"/>
      <use xlink:href="#ArialMT-6f" x="55.615234"/>
      <use xlink:href="#ArialMT-73" x="111.230469"/>
      <use xlink:href="#ArialMT-5f" x="161.230469"/>
      <use xlink:href="#ArialMT-6d" x="216.845703"/>
      <use xlink:href="#ArialMT-75" x="300.146484"/>
      <use xlink:href="#ArialMT-74" x="355.761719"/>
      <use xlink:href="#ArialMT-41" x="383.544922"/>
      <use xlink:href="#ArialMT-41" x="450.244141"/>
     </g>
    </g>
   </g>
   <g id="matplotlib.axis_2">
    <g id="ytick_1">
     <g id="line2d_1">
      <path d="M 59.88125 303.53875 
L 450 303.53875 
" clip-path="url(#pb99ab6a74c)" style="fill: none; stroke: #cccccc; stroke-width: 0.8; stroke-linecap: round"/>
     </g>
     <g id="text_5">
      <!-- 0 -->
      <g style="fill: #262626" transform="translate(47.320313 307.117656)scale(0.1 -0.1)">
       <defs>
        <path id="ArialMT-30" d="M 266 2259 
Q 266 3072 433 3567 
Q 600 4063 929 4331 
Q 1259 4600 1759 4600 
Q 2128 4600 2406 4451 
Q 2684 4303 2865 4023 
Q 3047 3744 3150 3342 
Q 3253 2941 3253 2259 
Q 3253 1453 3087 958 
Q 2922 463 2592 192 
Q 2263 -78 1759 -78 
Q 1097 -78 719 397 
Q 266 969 266 2259 
z
M 844 2259 
Q 844 1131 1108 757 
Q 1372 384 1759 384 
Q 2147 384 2411 759 
Q 2675 1134 2675 2259 
Q 2675 3391 2411 3762 
Q 2147 4134 1753 4134 
Q 1366 4134 1134 3806 
Q 844 3388 844 2259 
z
" transform="scale(0.015625)"/>
       </defs>
       <use xlink:href="#ArialMT-30"/>
      </g>
     </g>
    </g>
    <g id="ytick_2">
     <g id="line2d_2">
      <path d="M 59.88125 262.28298 
L 450 262.28298 
" clip-path="url(#pb99ab6a74c)" style="fill: none; stroke: #cccccc; stroke-width: 0.8; stroke-linecap: round"/>
     </g>
     <g id="text_6">
      <!-- 2000 -->
      <g style="fill: #262626" transform="translate(30.6375 265.861886)scale(0.1 -0.1)">
       <use xlink:href="#ArialMT-32"/>
       <use xlink:href="#ArialMT-30" x="55.615234"/>
       <use xlink:href="#ArialMT-30" x="111.230469"/>
       <use xlink:href="#ArialMT-30" x="166.845703"/>
      </g>
     </g>
    </g>
    <g id="ytick_3">
     <g id="line2d_3">
      <path d="M 59.88125 221.02721 
L 450 221.02721 
" clip-path="url(#pb99ab6a74c)" style="fill: none; stroke: #cccccc; stroke-width: 0.8; stroke-linecap: round"/>
     </g>
     <g id="text_7">
      <!-- 4000 -->
      <g style="fill: #262626" transform="translate(30.6375 224.606116)scale(0.1 -0.1)">
       <use xlink:href="#ArialMT-34"/>
       <use xlink:href="#ArialMT-30" x="55.615234"/>
       <use xlink:href="#ArialMT-30" x="111.230469"/>
       <use xlink:href="#ArialMT-30" x="166.845703"/>
      </g>
     </g>
    </g>
    <g id="ytick_4">
     <g id="line2d_4">
      <path d="M 59.88125 179.77144 
L 450 179.77144 
" clip-path="url(#pb99ab6a74c)" style="fill: none; stroke: #cccccc; stroke-width: 0.8; stroke-linecap: round"/>
     </g>
     <g id="text_8">
      <!-- 6000 -->
      <g style="fill: #262626" transform="translate(30.6375 183.350346)scale(0.1 -0.1)">
       <defs>
        <path id="ArialMT-36" d="M 3184 3459 
L 2625 3416 
Q 2550 3747 2413 3897 
Q 2184 4138 1850 4138 
Q 1581 4138 1378 3988 
Q 1113 3794 959 3422 
Q 806 3050 800 2363 
Q 1003 2672 1297 2822 
Q 1591 2972 1913 2972 
Q 2475 2972 2870 2558 
Q 3266 2144 3266 1488 
Q 3266 1056 3080 686 
Q 2894 316 2569 119 
Q 2244 -78 1831 -78 
Q 1128 -78 684 439 
Q 241 956 241 2144 
Q 241 3472 731 4075 
Q 1159 4600 1884 4600 
Q 2425 4600 2770 4297 
Q 3116 3994 3184 3459 
z
M 888 1484 
Q 888 1194 1011 928 
Q 1134 663 1356 523 
Q 1578 384 1822 384 
Q 2178 384 2434 671 
Q 2691 959 2691 1453 
Q 2691 1928 2437 2201 
Q 2184 2475 1800 2475 
Q 1419 2475 1153 2201 
Q 888 1928 888 1484 
z
" transform="scale(0.015625)"/>
       </defs>
       <use xlink:href="#ArialMT-36"/>
       <use xlink:href="#ArialMT-30" x="55.615234"/>
       <use xlink:href="#ArialMT-30" x="111.230469"/>
       <use xlink:href="#ArialMT-30" x="166.845703"/>
      </g>
     </g>
    </g>
    <g id="ytick_5">
     <g id="line2d_5">
      <path d="M 59.88125 138.51567 
L 450 138.51567 
" clip-path="url(#pb99ab6a74c)" style="fill: none; stroke: #cccccc; stroke-width: 0.8; stroke-linecap: round"/>
     </g>
     <g id="text_9">
      <!-- 8000 -->
      <g style="fill: #262626" transform="translate(30.6375 142.094576)scale(0.1 -0.1)">
       <use xlink:href="#ArialMT-38"/>
       <use xlink:href="#ArialMT-30" x="55.615234"/>
       <use xlink:href="#ArialMT-30" x="111.230469"/>
       <use xlink:href="#ArialMT-30" x="166.845703"/>
      </g>
     </g>
    </g>
    <g id="ytick_6">
     <g id="line2d_6">
      <path d="M 59.88125 97.2599 
L 450 97.2599 
" clip-path="url(#pb99ab6a74c)" style="fill: none; stroke: #cccccc; stroke-width: 0.8; stroke-linecap: round"/>
     </g>
     <g id="text_10">
      <!-- 10000 -->
      <g style="fill: #262626" transform="translate(25.076563 100.838806)scale(0.1 -0.1)">
       <use xlink:href="#ArialMT-31"/>
       <use xlink:href="#ArialMT-30" x="55.615234"/>
       <use xlink:href="#ArialMT-30" x="111.230469"/>
       <use xlink:href="#ArialMT-30" x="166.845703"/>
       <use xlink:href="#ArialMT-30" x="222.460938"/>
      </g>
     </g>
    </g>
    <g id="ytick_7">
     <g id="line2d_7">
      <path d="M 59.88125 56.00413 
L 450 56.00413 
" clip-path="url(#pb99ab6a74c)" style="fill: none; stroke: #cccccc; stroke-width: 0.8; stroke-linecap: round"/>
     </g>
     <g id="text_11">
      <!-- 12000 -->
      <g style="fill: #262626" transform="translate(25.076563 59.583036)scale(0.1 -0.1)">
       <use xlink:href="#ArialMT-31"/>
       <use xlink:href="#ArialMT-32" x="55.615234"/>
       <use xlink:href="#ArialMT-30" x="111.230469"/>
       <use xlink:href="#ArialMT-30" x="166.845703"/>
       <use xlink:href="#ArialMT-30" x="222.460938"/>
      </g>
     </g>
    </g>
    <g id="ytick_8">
     <g id="line2d_8">
      <path d="M 59.88125 14.74836 
L 450 14.74836 
" clip-path="url(#pb99ab6a74c)" style="fill: none; stroke: #cccccc; stroke-width: 0.8; stroke-linecap: round"/>
     </g>
     <g id="text_12">
      <!-- 14000 -->
      <g style="fill: #262626" transform="translate(25.076563 18.327266)scale(0.1 -0.1)">
       <use xlink:href="#ArialMT-31"/>
       <use xlink:href="#ArialMT-34" x="55.615234"/>
       <use xlink:href="#ArialMT-30" x="111.230469"/>
       <use xlink:href="#ArialMT-30" x="166.845703"/>
       <use xlink:href="#ArialMT-30" x="222.460938"/>
      </g>
     </g>
    </g>
    <g id="text_13">
     <!-- toxgreen_fluor -->
     <g style="fill: #262626" transform="translate(18.971875 189.763784)rotate(-90)scale(0.1 -0.1)">
      <defs>
       <path id="ArialMT-78" d="M 47 0 
L 1259 1725 
L 138 3319 
L 841 3319 
L 1350 2541 
Q 1494 2319 1581 2169 
Q 1719 2375 1834 2534 
L 2394 3319 
L 3066 3319 
L 1919 1756 
L 3153 0 
L 2463 0 
L 1781 1031 
L 1600 1309 
L 728 0 
L 47 0 
z
" transform="scale(0.015625)"/>
       <path id="ArialMT-67" d="M 319 -275 
L 866 -356 
Q 900 -609 1056 -725 
Q 1266 -881 1628 -881 
Q 2019 -881 2231 -725 
Q 2444 -569 2519 -288 
Q 2563 -116 2559 434 
Q 2191 0 1641 0 
Q 956 0 581 494 
Q 206 988 206 1678 
Q 206 2153 378 2554 
Q 550 2956 876 3175 
Q 1203 3394 1644 3394 
Q 2231 3394 2613 2919 
L 2613 3319 
L 3131 3319 
L 3131 450 
Q 3131 -325 2973 -648 
Q 2816 -972 2473 -1159 
Q 2131 -1347 1631 -1347 
Q 1038 -1347 672 -1080 
Q 306 -813 319 -275 
z
M 784 1719 
Q 784 1066 1043 766 
Q 1303 466 1694 466 
Q 2081 466 2343 764 
Q 2606 1063 2606 1700 
Q 2606 2309 2336 2618 
Q 2066 2928 1684 2928 
Q 1309 2928 1046 2623 
Q 784 2319 784 1719 
z
" transform="scale(0.015625)"/>
       <path id="ArialMT-72" d="M 416 0 
L 416 3319 
L 922 3319 
L 922 2816 
Q 1116 3169 1280 3281 
Q 1444 3394 1641 3394 
Q 1925 3394 2219 3213 
L 2025 2691 
Q 1819 2813 1613 2813 
Q 1428 2813 1281 2702 
Q 1134 2591 1072 2394 
Q 978 2094 978 1738 
L 978 0 
L 416 0 
z
" transform="scale(0.015625)"/>
       <path id="ArialMT-65" d="M 2694 1069 
L 3275 997 
Q 3138 488 2766 206 
Q 2394 -75 1816 -75 
Q 1088 -75 661 373 
Q 234 822 234 1631 
Q 234 2469 665 2931 
Q 1097 3394 1784 3394 
Q 2450 3394 2872 2941 
Q 3294 2488 3294 1666 
Q 3294 1616 3291 1516 
L 816 1516 
Q 847 969 1125 678 
Q 1403 388 1819 388 
Q 2128 388 2347 550 
Q 2566 713 2694 1069 
z
M 847 1978 
L 2700 1978 
Q 2663 2397 2488 2606 
Q 2219 2931 1791 2931 
Q 1403 2931 1139 2672 
Q 875 2413 847 1978 
z
" transform="scale(0.015625)"/>
       <path id="ArialMT-6e" d="M 422 0 
L 422 3319 
L 928 3319 
L 928 2847 
Q 1294 3394 1984 3394 
Q 2284 3394 2536 3286 
Q 2788 3178 2913 3003 
Q 3038 2828 3088 2588 
Q 3119 2431 3119 2041 
L 3119 0 
L 2556 0 
L 2556 2019 
Q 2556 2363 2490 2533 
Q 2425 2703 2258 2804 
Q 2091 2906 1866 2906 
Q 1506 2906 1245 2678 
Q 984 2450 984 1813 
L 984 0 
L 422 0 
z
" transform="scale(0.015625)"/>
       <path id="ArialMT-66" d="M 556 0 
L 556 2881 
L 59 2881 
L 59 3319 
L 556 3319 
L 556 3672 
Q 556 4006 616 4169 
Q 697 4388 901 4523 
Q 1106 4659 1475 4659 
Q 1713 4659 2000 4603 
L 1916 4113 
Q 1741 4144 1584 4144 
Q 1328 4144 1222 4034 
Q 1116 3925 1116 3625 
L 1116 3319 
L 1763 3319 
L 1763 2881 
L 1116 2881 
L 1116 0 
L 556 0 
z
" transform="scale(0.015625)"/>
       <path id="ArialMT-6c" d="M 409 0 
L 409 4581 
L 972 4581 
L 972 0 
L 409 0 
z
" transform="scale(0.015625)"/>
      </defs>
      <use xlink:href="#ArialMT-74"/>
      <use xlink:href="#ArialMT-6f" x="27.783203"/>
      <use xlink:href="#ArialMT-78" x="83.398438"/>
      <use xlink:href="#ArialMT-67" x="133.398438"/>
      <use xlink:href="#ArialMT-72" x="189.013672"/>
      <use xlink:href="#ArialMT-65" x="222.314453"/>
      <use xlink:href="#ArialMT-65" x="277.929688"/>
      <use xlink:href="#ArialMT-6e" x="333.544922"/>
      <use xlink:href="#ArialMT-5f" x="389.160156"/>
      <use xlink:href="#ArialMT-66" x="444.775391"/>
      <use xlink:href="#ArialMT-6c" x="472.558594"/>
      <use xlink:href="#ArialMT-75" x="494.775391"/>
      <use xlink:href="#ArialMT-6f" x="550.390625"/>
      <use xlink:href="#ArialMT-72" x="606.005859"/>
     </g>
    </g>
   </g>
   <g id="patch_3">
    <path d="M 73.405367 224.714931 
L 124.380883 224.714931 
L 124.380883 172.256245 
L 73.405367 172.256245 
L 73.405367 224.714931 
z
" clip-path="url(#pb99ab6a74c)" style="fill: #ecf2ec; stroke: #262626; stroke-width: 1.5; stroke-linejoin: miter"/>
   </g>
   <g id="patch_4">
    <path d="M 125.4212 137.43727 
L 176.396717 137.43727 
L 176.396717 91.342287 
L 125.4212 91.342287 
L 125.4212 137.43727 
z
" clip-path="url(#pb99ab6a74c)" style="fill: #107010; stroke: #262626; stroke-width: 1.5; stroke-linejoin: miter"/>
   </g>
   <g id="patch_5">
    <path d="M 203.44495 210.842778 
L 254.420467 210.842778 
L 254.420467 169.338962 
L 203.44495 169.338962 
L 203.44495 210.842778 
z
" clip-path="url(#pb99ab6a74c)" style="fill: #ecf2ec; stroke: #262626; stroke-width: 1.5; stroke-linejoin: miter"/>
   </g>
   <g id="patch_6">
    <path d="M 255.460783 195.15747 
L 306.4363 195.15747 
L 306.4363 130.175883 
L 255.460783 130.175883 
L 255.460783 195.15747 
z
" clip-path="url(#pb99ab6a74c)" style="fill: #107010; stroke: #262626; stroke-width: 1.5; stroke-linejoin: miter"/>
   </g>
   <g id="patch_7">
    <path d="M 333.484533 222.738807 
L 384.46005 222.738807 
L 384.46005 180.269779 
L 333.484533 180.269779 
L 333.484533 222.738807 
z
" clip-path="url(#pb99ab6a74c)" style="fill: #ecf2ec; stroke: #262626; stroke-width: 1.5; stroke-linejoin: miter"/>
   </g>
   <g id="patch_8">
    <path d="M 385.500367 170.115508 
L 436.475883 170.115508 
L 436.475883 134.2145 
L 385.500367 134.2145 
L 385.500367 170.115508 
z
" clip-path="url(#pb99ab6a74c)" style="fill: #107010; stroke: #262626; stroke-width: 1.5; stroke-linejoin: miter"/>
   </g>
   <g id="patch_9">
    <path d="M 124.901042 303.53875 
L 124.901042 303.53875 
L 124.901042 303.53875 
L 124.901042 303.53875 
z
" clip-path="url(#pb99ab6a74c)" style="fill: #ecf2ec; stroke: #262626; stroke-width: 0.75; stroke-linejoin: miter"/>
   </g>
   <g id="patch_10">
    <path d="M 124.901042 303.53875 
L 124.901042 303.53875 
L 124.901042 303.53875 
L 124.901042 303.53875 
z
" clip-path="url(#pb99ab6a74c)" style="fill: #107010; stroke: #262626; stroke-width: 0.75; stroke-linejoin: miter"/>
   </g>
   <g id="PathCollection_1"/>
   <g id="PathCollection_2"/>
   <g id="line2d_9">
    <path d="M 98.893125 224.714931 
L 98.893125 242.661766 
" clip-path="url(#pb99ab6a74c)" style="fill: none; stroke: #262626; stroke-width: 1.5; stroke-linecap: round"/>
   </g>
   <g id="line2d_10">
    <path d="M 98.893125 172.256245 
L 98.893125 134.943356 
" clip-path="url(#pb99ab6a74c)" style="fill: none; stroke: #262626; stroke-width: 1.5; stroke-linecap: round"/>
   </g>
   <g id="line2d_11">
    <path d="M 86.149246 242.661766 
L 111.637004 242.661766 
" clip-path="url(#pb99ab6a74c)" style="fill: none; stroke: #262626; stroke-width: 1.5; stroke-linecap: round"/>
   </g>
   <g id="line2d_12">
    <path d="M 86.149246 134.943356 
L 111.637004 134.943356 
" clip-path="url(#pb99ab6a74c)" style="fill: none; stroke: #262626; stroke-width: 1.5; stroke-linecap: round"/>
   </g>
   <g id="line2d_13"/>
   <g id="line2d_14">
    <path d="M 150.908958 137.43727 
L 150.908958 193.250099 
" clip-path="url(#pb99ab6a74c)" style="fill: none; stroke: #262626; stroke-width: 1.5; stroke-linecap: round"/>
   </g>
   <g id="line2d_15">
    <path d="M 150.908958 91.342287 
L 150.908958 73.08052 
" clip-path="url(#pb99ab6a74c)" style="fill: none; stroke: #262626; stroke-width: 1.5; stroke-linecap: round"/>
   </g>
   <g id="line2d_16">
    <path d="M 138.165079 193.250099 
L 163.652838 193.250099 
" clip-path="url(#pb99ab6a74c)" style="fill: none; stroke: #262626; stroke-width: 1.5; stroke-linecap: round"/>
   </g>
   <g id="line2d_17">
    <path d="M 138.165079 73.08052 
L 163.652838 73.08052 
" clip-path="url(#pb99ab6a74c)" style="fill: none; stroke: #262626; stroke-width: 1.5; stroke-linecap: round"/>
   </g>
   <g id="line2d_18"/>
   <g id="line2d_19">
    <path d="M 228.932708 210.842778 
L 228.932708 247.407762 
" clip-path="url(#pb99ab6a74c)" style="fill: none; stroke: #262626; stroke-width: 1.5; stroke-linecap: round"/>
   </g>
   <g id="line2d_20">
    <path d="M 228.932708 169.338962 
L 228.932708 141.293595 
" clip-path="url(#pb99ab6a74c)" style="fill: none; stroke: #262626; stroke-width: 1.5; stroke-linecap: round"/>
   </g>
   <g id="line2d_21">
    <path d="M 216.188829 247.407762 
L 241.676587 247.407762 
" clip-path="url(#pb99ab6a74c)" style="fill: none; stroke: #262626; stroke-width: 1.5; stroke-linecap: round"/>
   </g>
   <g id="line2d_22">
    <path d="M 216.188829 141.293595 
L 241.676587 141.293595 
" clip-path="url(#pb99ab6a74c)" style="fill: none; stroke: #262626; stroke-width: 1.5; stroke-linecap: round"/>
   </g>
   <g id="line2d_23"/>
   <g id="line2d_24">
    <path d="M 280.948542 195.15747 
L 280.948542 204.84301 
" clip-path="url(#pb99ab6a74c)" style="fill: none; stroke: #262626; stroke-width: 1.5; stroke-linecap: round"/>
   </g>
   <g id="line2d_25">
    <path d="M 280.948542 130.175883 
L 280.948542 38.56154 
" clip-path="url(#pb99ab6a74c)" style="fill: none; stroke: #262626; stroke-width: 1.5; stroke-linecap: round"/>
   </g>
   <g id="line2d_26">
    <path d="M 268.204662 204.84301 
L 293.692421 204.84301 
" clip-path="url(#pb99ab6a74c)" style="fill: none; stroke: #262626; stroke-width: 1.5; stroke-linecap: round"/>
   </g>
   <g id="line2d_27">
    <path d="M 268.204662 38.56154 
L 293.692421 38.56154 
" clip-path="url(#pb99ab6a74c)" style="fill: none; stroke: #262626; stroke-width: 1.5; stroke-linecap: round"/>
   </g>
   <g id="line2d_28"/>
   <g id="line2d_29">
    <path d="M 358.972292 222.738807 
L 358.972292 260.62611 
" clip-path="url(#pb99ab6a74c)" style="fill: none; stroke: #262626; stroke-width: 1.5; stroke-linecap: round"/>
   </g>
   <g id="line2d_30">
    <path d="M 358.972292 180.269779 
L 358.972292 154.012452 
" clip-path="url(#pb99ab6a74c)" style="fill: none; stroke: #262626; stroke-width: 1.5; stroke-linecap: round"/>
   </g>
   <g id="line2d_31">
    <path d="M 346.228412 260.62611 
L 371.716171 260.62611 
" clip-path="url(#pb99ab6a74c)" style="fill: none; stroke: #262626; stroke-width: 1.5; stroke-linecap: round"/>
   </g>
   <g id="line2d_32">
    <path d="M 346.228412 154.012452 
L 371.716171 154.012452 
" clip-path="url(#pb99ab6a74c)" style="fill: none; stroke: #262626; stroke-width: 1.5; stroke-linecap: round"/>
   </g>
   <g id="line2d_33"/>
   <g id="line2d_34">
    <path d="M 410.988125 170.115508 
L 410.988125 209.180451 
" clip-path="url(#pb99ab6a74c)" style="fill: none; stroke: #262626; stroke-width: 1.5; stroke-linecap: round"/>
   </g>
   <g id="line2d_35">
    <path d="M 410.988125 134.2145 
L 410.988125 111.392877 
" clip-path="url(#pb99ab6a74c)" style="fill: none; stroke: #262626; stroke-width: 1.5; stroke-linecap: round"/>
   </g>
   <g id="line2d_36">
    <path d="M 398.244246 209.180451 
L 423.732004 209.180451 
" clip-path="url(#pb99ab6a74c)" style="fill: none; stroke: #262626; stroke-width: 1.5; stroke-linecap: round"/>
   </g>
   <g id="line2d_37">
    <path d="M 398.244246 111.392877 
L 423.732004 111.392877 
" clip-path="url(#pb99ab6a74c)" style="fill: none; stroke: #262626; stroke-width: 1.5; stroke-linecap: round"/>
   </g>
   <g id="line2d_38">
    <defs>
     <path id="m991669cb52" d="M -0 1.414214 
L 0.848528 0 
L 0 -1.414214 
L -0.848528 -0 
z
" style="stroke: #262626; stroke-linejoin: miter"/>
    </defs>
    <g clip-path="url(#pb99ab6a74c)">
     <use xlink:href="#m991669cb52" x="410.988125" y="68.99444" style="fill: #262626; stroke: #262626; stroke-linejoin: miter"/>
    </g>
   </g>
   <g id="line2d_39">
    <path d="M 73.405367 192.086706 
L 124.380883 192.086706 
" clip-path="url(#pb99ab6a74c)" style="fill: none; stroke: #262626; stroke-width: 1.5; stroke-linecap: round"/>
   </g>
   <g id="line2d_40">
    <path d="M 125.4212 103.705069 
L 176.396717 103.705069 
" clip-path="url(#pb99ab6a74c)" style="fill: none; stroke: #262626; stroke-width: 1.5; stroke-linecap: round"/>
   </g>
   <g id="line2d_41">
    <path d="M 203.44495 190.028202 
L 254.420467 190.028202 
" clip-path="url(#pb99ab6a74c)" style="fill: none; stroke: #262626; stroke-width: 1.5; stroke-linecap: round"/>
   </g>
   <g id="line2d_42">
    <path d="M 255.460783 171.151275 
L 306.4363 171.151275 
" clip-path="url(#pb99ab6a74c)" style="fill: none; stroke: #262626; stroke-width: 1.5; stroke-linecap: round"/>
   </g>
   <g id="line2d_43">
    <path d="M 333.484533 207.745466 
L 384.46005 207.745466 
" clip-path="url(#pb99ab6a74c)" style="fill: none; stroke: #262626; stroke-width: 1.5; stroke-linecap: round"/>
   </g>
   <g id="line2d_44">
    <path d="M 385.500367 166.329565 
L 436.475883 166.329565 
" clip-path="url(#pb99ab6a74c)" style="fill: none; stroke: #262626; stroke-width: 1.5; stroke-linecap: round"/>
   </g>
   <g id="patch_11">
    <path d="M 59.88125 303.53875 
L 59.88125 12.063819 
" style="fill: none; stroke: #cccccc; stroke-width: 0.8; stroke-linejoin: miter; stroke-linecap: square"/>
   </g>
   <g id="patch_12">
    <path d="M 450 303.53875 
L 450 12.063819 
" style="fill: none; stroke: #cccccc; stroke-width: 0.8; stroke-linejoin: miter; stroke-linecap: square"/>
   </g>
   <g id="patch_13">
    <path d="M 59.88125 303.53875 
L 450 303.53875 
" style="fill: none; stroke: #cccccc; stroke-width: 0.8; stroke-linejoin: miter; stroke-linecap: square"/>
   </g>
   <g id="patch_14">
    <path d="M 59.88125 12.063819 
L 450 12.063819 
" style="fill: none; stroke: #cccccc; stroke-width: 0.8; stroke-linejoin: miter; stroke-linecap: square"/>
   </g>
   <g id="PathCollection_3">
    <defs>
     <path id="C0_0_d9c8a2c462" d="M 0 1 
C 0.265203 1 0.51958 0.894634 0.707107 0.707107 
C 0.894634 0.51958 1 0.265203 1 -0 
C 1 -0.265203 0.894634 -0.51958 0.707107 -0.707107 
C 0.51958 -0.894634 0.265203 -1 0 -1 
C -0.265203 -1 -0.51958 -0.894634 -0.707107 -0.707107 
C -0.894634 -0.51958 -1 -0.265203 -1 0 
C -1 0.265203 -0.894634 0.51958 -0.707107 0.707107 
C -0.51958 0.894634 -0.265203 1 0 1 
z
"/>
    </defs>
    <g clip-path="url(#pb99ab6a74c)">
     <use xlink:href="#C0_0_d9c8a2c462" x="102.264078" y="189.600946" style="fill: #262626"/>
    </g>
    <g clip-path="url(#pb99ab6a74c)">
     <use xlink:href="#C0_0_d9c8a2c462" x="102.124272" y="192.086706" style="fill: #262626"/>
    </g>
    <g clip-path="url(#pb99ab6a74c)">
     <use xlink:href="#C0_0_d9c8a2c462" x="98.306128" y="134.943356" style="fill: #262626"/>
    </g>
    <g clip-path="url(#pb99ab6a74c)">
     <use xlink:href="#C0_0_d9c8a2c462" x="93.913842" y="224.714931" style="fill: #262626"/>
    </g>
    <g clip-path="url(#pb99ab6a74c)">
     <use xlink:href="#C0_0_d9c8a2c462" x="94.422263" y="184.327754" style="fill: #262626"/>
    </g>
    <g clip-path="url(#pb99ab6a74c)">
     <use xlink:href="#C0_0_d9c8a2c462" x="104.000611" y="242.661766" style="fill: #262626"/>
    </g>
    <g clip-path="url(#pb99ab6a74c)">
     <use xlink:href="#C0_0_d9c8a2c462" x="96.818189" y="172.256245" style="fill: #262626"/>
    </g>
    <g clip-path="url(#pb99ab6a74c)">
     <use xlink:href="#C0_0_d9c8a2c462" x="104.321645" y="224.551563" style="fill: #262626"/>
    </g>
    <g clip-path="url(#pb99ab6a74c)">
     <use xlink:href="#C0_0_d9c8a2c462" x="98.932422" y="168.946764" style="fill: #262626"/>
    </g>
    <g clip-path="url(#pb99ab6a74c)">
     <use xlink:href="#C0_0_d9c8a2c462" x="94.756124" y="164.97754" style="fill: #262626"/>
    </g>
    <g clip-path="url(#pb99ab6a74c)">
     <use xlink:href="#C0_0_d9c8a2c462" x="93.350078" y="226.455493" style="fill: #262626"/>
    </g>
    <g clip-path="url(#pb99ab6a74c)">
     <use xlink:href="#C0_0_d9c8a2c462" x="102.647434" y="212.786601" style="fill: #262626"/>
    </g>
    <g clip-path="url(#pb99ab6a74c)">
     <use xlink:href="#C0_0_d9c8a2c462" x="98.163652" y="231.456416" style="fill: #262626"/>
    </g>
   </g>
   <g id="PathCollection_4">
    <defs>
     <path id="C1_0_2bc8827581" d="M 0 1 
C 0.265203 1 0.51958 0.894634 0.707107 0.707107 
C 0.894634 0.51958 1 0.265203 1 -0 
C 1 -0.265203 0.894634 -0.51958 0.707107 -0.707107 
C 0.51958 -0.894634 0.265203 -1 0 -1 
C -0.265203 -1 -0.51958 -0.894634 -0.707107 -0.707107 
C -0.894634 -0.51958 -1 -0.265203 -1 0 
C -1 0.265203 -0.894634 0.51958 -0.707107 0.707107 
C -0.51958 0.894634 -0.265203 1 0 1 
z
"/>
    </defs>
    <g clip-path="url(#pb99ab6a74c)">
     <use xlink:href="#C1_0_2bc8827581" x="151.421639" y="105.264538"/>
    </g>
    <g clip-path="url(#pb99ab6a74c)">
     <use xlink:href="#C1_0_2bc8827581" x="156.981633" y="73.08052"/>
    </g>
    <g clip-path="url(#pb99ab6a74c)">
     <use xlink:href="#C1_0_2bc8827581" x="147.234454" y="95.535986"/>
    </g>
    <g clip-path="url(#pb99ab6a74c)">
     <use xlink:href="#C1_0_2bc8827581" x="146.915267" y="193.250099"/>
    </g>
    <g clip-path="url(#pb99ab6a74c)">
     <use xlink:href="#C1_0_2bc8827581" x="156.96323" y="147.824502"/>
    </g>
    <g clip-path="url(#pb99ab6a74c)">
     <use xlink:href="#C1_0_2bc8827581" x="149.409825" y="127.050037"/>
    </g>
    <g clip-path="url(#pb99ab6a74c)">
     <use xlink:href="#C1_0_2bc8827581" x="156.071538" y="75.676543"/>
    </g>
    <g clip-path="url(#pb99ab6a74c)">
     <use xlink:href="#C1_0_2bc8827581" x="146.232913" y="103.705069"/>
    </g>
    <g clip-path="url(#pb99ab6a74c)">
     <use xlink:href="#C1_0_2bc8827581" x="157.324356" y="87.148588"/>
    </g>
    <g clip-path="url(#pb99ab6a74c)">
     <use xlink:href="#C1_0_2bc8827581" x="157.330398" y="171.548875"/>
    </g>
    <g clip-path="url(#pb99ab6a74c)">
     <use xlink:href="#C1_0_2bc8827581" x="155.786565" y="98.46901"/>
    </g>
   </g>
   <g id="PathCollection_5">
    <defs>
     <path id="C2_0_a3deb14e17" d="M 0 1 
C 0.265203 1 0.51958 0.894634 0.707107 0.707107 
C 0.894634 0.51958 1 0.265203 1 -0 
C 1 -0.265203 0.894634 -0.51958 0.707107 -0.707107 
C 0.51958 -0.894634 0.265203 -1 0 -1 
C -0.265203 -1 -0.51958 -0.894634 -0.707107 -0.707107 
C -0.894634 -0.51958 -1 -0.265203 -1 0 
C -1 0.265203 -0.894634 0.51958 -0.707107 0.707107 
C -0.51958 0.894634 -0.265203 1 0 1 
z
"/>
    </defs>
    <g clip-path="url(#pb99ab6a74c)">
     <use xlink:href="#C2_0_a3deb14e17" x="228.208913" y="192.005446" style="fill: #262626"/>
    </g>
    <g clip-path="url(#pb99ab6a74c)">
     <use xlink:href="#C2_0_a3deb14e17" x="223.2447" y="177.874995" style="fill: #262626"/>
    </g>
    <g clip-path="url(#pb99ab6a74c)">
     <use xlink:href="#C2_0_a3deb14e17" x="224.010401" y="210.020113" style="fill: #262626"/>
    </g>
    <g clip-path="url(#pb99ab6a74c)">
     <use xlink:href="#C2_0_a3deb14e17" x="233.335882" y="154.683306" style="fill: #262626"/>
    </g>
    <g clip-path="url(#pb99ab6a74c)">
     <use xlink:href="#C2_0_a3deb14e17" x="226.470442" y="141.293595" style="fill: #262626"/>
    </g>
    <g clip-path="url(#pb99ab6a74c)">
     <use xlink:href="#C2_0_a3deb14e17" x="227.134783" y="177.216594" style="fill: #262626"/>
    </g>
    <g clip-path="url(#pb99ab6a74c)">
     <use xlink:href="#C2_0_a3deb14e17" x="226.896899" y="188.212415" style="fill: #262626"/>
    </g>
    <g clip-path="url(#pb99ab6a74c)">
     <use xlink:href="#C2_0_a3deb14e17" x="227.342385" y="202.518035" style="fill: #262626"/>
    </g>
    <g clip-path="url(#pb99ab6a74c)">
     <use xlink:href="#C2_0_a3deb14e17" x="227.438877" y="191.990137" style="fill: #262626"/>
    </g>
    <g clip-path="url(#pb99ab6a74c)">
     <use xlink:href="#C2_0_a3deb14e17" x="225.632769" y="189.928668" style="fill: #262626"/>
    </g>
    <g clip-path="url(#pb99ab6a74c)">
     <use xlink:href="#C2_0_a3deb14e17" x="226.097303" y="210.323379" style="fill: #262626"/>
    </g>
    <g clip-path="url(#pb99ab6a74c)">
     <use xlink:href="#C2_0_a3deb14e17" x="225.352933" y="213.238517" style="fill: #262626"/>
    </g>
    <g clip-path="url(#pb99ab6a74c)">
     <use xlink:href="#C2_0_a3deb14e17" x="227.926546" y="177.517799" style="fill: #262626"/>
    </g>
    <g clip-path="url(#pb99ab6a74c)">
     <use xlink:href="#C2_0_a3deb14e17" x="227.162762" y="156.628299" style="fill: #262626"/>
    </g>
    <g clip-path="url(#pb99ab6a74c)">
     <use xlink:href="#C2_0_a3deb14e17" x="225.233868" y="190.127735" style="fill: #262626"/>
    </g>
    <g clip-path="url(#pb99ab6a74c)">
     <use xlink:href="#C2_0_a3deb14e17" x="230.431796" y="166.713084" style="fill: #262626"/>
    </g>
    <g clip-path="url(#pb99ab6a74c)">
     <use xlink:href="#C2_0_a3deb14e17" x="234.731949" y="181.853622" style="fill: #262626"/>
    </g>
    <g clip-path="url(#pb99ab6a74c)">
     <use xlink:href="#C2_0_a3deb14e17" x="235.431128" y="214.827512" style="fill: #262626"/>
    </g>
    <g clip-path="url(#pb99ab6a74c)">
     <use xlink:href="#C2_0_a3deb14e17" x="226.776879" y="147.850547" style="fill: #262626"/>
    </g>
    <g clip-path="url(#pb99ab6a74c)">
     <use xlink:href="#C2_0_a3deb14e17" x="227.771569" y="147.744694" style="fill: #262626"/>
    </g>
    <g clip-path="url(#pb99ab6a74c)">
     <use xlink:href="#C2_0_a3deb14e17" x="224.611838" y="153.001113" style="fill: #262626"/>
    </g>
    <g clip-path="url(#pb99ab6a74c)">
     <use xlink:href="#C2_0_a3deb14e17" x="229.836148" y="247.407762" style="fill: #262626"/>
    </g>
    <g clip-path="url(#pb99ab6a74c)">
     <use xlink:href="#C2_0_a3deb14e17" x="226.563148" y="218.541127" style="fill: #262626"/>
    </g>
    <g clip-path="url(#pb99ab6a74c)">
     <use xlink:href="#C2_0_a3deb14e17" x="223.579492" y="223.868466" style="fill: #262626"/>
    </g>
    <g clip-path="url(#pb99ab6a74c)">
     <use xlink:href="#C2_0_a3deb14e17" x="232.75839" y="213.613714" style="fill: #262626"/>
    </g>
    <g clip-path="url(#pb99ab6a74c)">
     <use xlink:href="#C2_0_a3deb14e17" x="226.013624" y="211.015911" style="fill: #262626"/>
    </g>
   </g>
   <g id="PathCollection_6">
    <defs>
     <path id="C3_0_47b4cba4d7" d="M 0 1 
C 0.265203 1 0.51958 0.894634 0.707107 0.707107 
C 0.894634 0.51958 1 0.265203 1 -0 
C 1 -0.265203 0.894634 -0.51958 0.707107 -0.707107 
C 0.51958 -0.894634 0.265203 -1 0 -1 
C -0.265203 -1 -0.51958 -0.894634 -0.707107 -0.707107 
C -0.894634 -0.51958 -1 -0.265203 -1 0 
C -1 0.265203 -0.894634 0.51958 -0.707107 0.707107 
C -0.51958 0.894634 -0.265203 1 0 1 
z
"/>
    </defs>
    <g clip-path="url(#pb99ab6a74c)">
     <use xlink:href="#C3_0_47b4cba4d7" x="287.053336" y="201.63868"/>
    </g>
    <g clip-path="url(#pb99ab6a74c)">
     <use xlink:href="#C3_0_47b4cba4d7" x="287.304416" y="174.781991"/>
    </g>
    <g clip-path="url(#pb99ab6a74c)">
     <use xlink:href="#C3_0_47b4cba4d7" x="282.969156" y="171.151275"/>
    </g>
    <g clip-path="url(#pb99ab6a74c)">
     <use xlink:href="#C3_0_47b4cba4d7" x="281.813512" y="38.56154"/>
    </g>
    <g clip-path="url(#pb99ab6a74c)">
     <use xlink:href="#C3_0_47b4cba4d7" x="280.136988" y="134.926045"/>
    </g>
    <g clip-path="url(#pb99ab6a74c)">
     <use xlink:href="#C3_0_47b4cba4d7" x="278.814708" y="195.111072"/>
    </g>
    <g clip-path="url(#pb99ab6a74c)">
     <use xlink:href="#C3_0_47b4cba4d7" x="286.684925" y="106.702418"/>
    </g>
    <g clip-path="url(#pb99ab6a74c)">
     <use xlink:href="#C3_0_47b4cba4d7" x="278.925567" y="204.84301"/>
    </g>
    <g clip-path="url(#pb99ab6a74c)">
     <use xlink:href="#C3_0_47b4cba4d7" x="275.654735" y="137.3007"/>
    </g>
    <g clip-path="url(#pb99ab6a74c)">
     <use xlink:href="#C3_0_47b4cba4d7" x="279.427652" y="125.425721"/>
    </g>
    <g clip-path="url(#pb99ab6a74c)">
     <use xlink:href="#C3_0_47b4cba4d7" x="277.422589" y="195.203868"/>
    </g>
   </g>
   <g id="PathCollection_7">
    <defs>
     <path id="C4_0_ceae36b514" d="M 0 1 
C 0.265203 1 0.51958 0.894634 0.707107 0.707107 
C 0.894634 0.51958 1 0.265203 1 -0 
C 1 -0.265203 0.894634 -0.51958 0.707107 -0.707107 
C 0.51958 -0.894634 0.265203 -1 0 -1 
C -0.265203 -1 -0.51958 -0.894634 -0.707107 -0.707107 
C -0.894634 -0.51958 -1 -0.265203 -1 0 
C -1 0.265203 -0.894634 0.51958 -0.707107 0.707107 
C -0.51958 0.894634 -0.265203 1 0 1 
z
"/>
    </defs>
    <g clip-path="url(#pb99ab6a74c)">
     <use xlink:href="#C4_0_ceae36b514" x="359.697836" y="235.751561" style="fill: #262626"/>
    </g>
    <g clip-path="url(#pb99ab6a74c)">
     <use xlink:href="#C4_0_ceae36b514" x="360.411005" y="260.62611" style="fill: #262626"/>
    </g>
    <g clip-path="url(#pb99ab6a74c)">
     <use xlink:href="#C4_0_ceae36b514" x="357.676317" y="161.185269" style="fill: #262626"/>
    </g>
    <g clip-path="url(#pb99ab6a74c)">
     <use xlink:href="#C4_0_ceae36b514" x="356.539616" y="203.670618" style="fill: #262626"/>
    </g>
    <g clip-path="url(#pb99ab6a74c)">
     <use xlink:href="#C4_0_ceae36b514" x="353.128867" y="222.883477" style="fill: #262626"/>
    </g>
    <g clip-path="url(#pb99ab6a74c)">
     <use xlink:href="#C4_0_ceae36b514" x="361.275853" y="211.820314" style="fill: #262626"/>
    </g>
    <g clip-path="url(#pb99ab6a74c)">
     <use xlink:href="#C4_0_ceae36b514" x="355.312575" y="172.003289" style="fill: #262626"/>
    </g>
    <g clip-path="url(#pb99ab6a74c)">
     <use xlink:href="#C4_0_ceae36b514" x="365.455872" y="154.012452" style="fill: #262626"/>
    </g>
    <g clip-path="url(#pb99ab6a74c)">
     <use xlink:href="#C4_0_ceae36b514" x="355.285481" y="217.069449" style="fill: #262626"/>
    </g>
    <g clip-path="url(#pb99ab6a74c)">
     <use xlink:href="#C4_0_ceae36b514" x="352.593901" y="179.941217" style="fill: #262626"/>
    </g>
    <g clip-path="url(#pb99ab6a74c)">
     <use xlink:href="#C4_0_ceae36b514" x="362.378418" y="222.304795" style="fill: #262626"/>
    </g>
    <g clip-path="url(#pb99ab6a74c)">
     <use xlink:href="#C4_0_ceae36b514" x="358.762265" y="162.821427" style="fill: #262626"/>
    </g>
    <g clip-path="url(#pb99ab6a74c)">
     <use xlink:href="#C4_0_ceae36b514" x="357.878916" y="257.359712" style="fill: #262626"/>
    </g>
    <g clip-path="url(#pb99ab6a74c)">
     <use xlink:href="#C4_0_ceae36b514" x="359.614073" y="191.536172" style="fill: #262626"/>
    </g>
    <g clip-path="url(#pb99ab6a74c)">
     <use xlink:href="#C4_0_ceae36b514" x="354.367067" y="221.694785" style="fill: #262626"/>
    </g>
    <g clip-path="url(#pb99ab6a74c)">
     <use xlink:href="#C4_0_ceae36b514" x="364.172287" y="181.255464" style="fill: #262626"/>
    </g>
    <g clip-path="url(#pb99ab6a74c)">
     <use xlink:href="#C4_0_ceae36b514" x="352.816796" y="237.575059" style="fill: #262626"/>
    </g>
    <g clip-path="url(#pb99ab6a74c)">
     <use xlink:href="#C4_0_ceae36b514" x="361.403636" y="196.340484" style="fill: #262626"/>
    </g>
   </g>
   <g id="PathCollection_8">
    <defs>
     <path id="C5_0_9b96eea3d9" d="M 0 1 
C 0.265203 1 0.51958 0.894634 0.707107 0.707107 
C 0.894634 0.51958 1 0.265203 1 -0 
C 1 -0.265203 0.894634 -0.51958 0.707107 -0.707107 
C 0.51958 -0.894634 0.265203 -1 0 -1 
C -0.265203 -1 -0.51958 -0.894634 -0.707107 -0.707107 
C -0.894634 -0.51958 -1 -0.265203 -1 0 
C -1 0.265203 -0.894634 0.51958 -0.707107 0.707107 
C -0.51958 0.894634 -0.265203 1 0 1 
z
"/>
    </defs>
    <g clip-path="url(#pb99ab6a74c)">
     <use xlink:href="#C5_0_9b96eea3d9" x="405.804679" y="169.086171"/>
    </g>
    <g clip-path="url(#pb99ab6a74c)">
     <use xlink:href="#C5_0_9b96eea3d9" x="415.339629" y="68.99444"/>
    </g>
    <g clip-path="url(#pb99ab6a74c)">
     <use xlink:href="#C5_0_9b96eea3d9" x="416.199886" y="119.419103"/>
    </g>
    <g clip-path="url(#pb99ab6a74c)">
     <use xlink:href="#C5_0_9b96eea3d9" x="413.685771" y="171.144844"/>
    </g>
    <g clip-path="url(#pb99ab6a74c)">
     <use xlink:href="#C5_0_9b96eea3d9" x="408.442121" y="111.392877"/>
    </g>
    <g clip-path="url(#pb99ab6a74c)">
     <use xlink:href="#C5_0_9b96eea3d9" x="404.492594" y="185.703526"/>
    </g>
    <g clip-path="url(#pb99ab6a74c)">
     <use xlink:href="#C5_0_9b96eea3d9" x="409.749267" y="209.180451"/>
    </g>
    <g clip-path="url(#pb99ab6a74c)">
     <use xlink:href="#C5_0_9b96eea3d9" x="408.723355" y="168.415495"/>
    </g>
    <g clip-path="url(#pb99ab6a74c)">
     <use xlink:href="#C5_0_9b96eea3d9" x="411.001496" y="166.329565"/>
    </g>
    <g clip-path="url(#pb99ab6a74c)">
     <use xlink:href="#C5_0_9b96eea3d9" x="409.889386" y="149.401437"/>
    </g>
    <g clip-path="url(#pb99ab6a74c)">
     <use xlink:href="#C5_0_9b96eea3d9" x="406.006744" y="149.009897"/>
    </g>
   </g>
   <g id="text_14">
    <!-- 13 -->
    <g style="fill: #262626" transform="translate(105.395104 303.504714)scale(0.1 -0.1)">
     <defs>
      <path id="ArialMT-33" d="M 269 1209 
L 831 1284 
Q 928 806 1161 595 
Q 1394 384 1728 384 
Q 2125 384 2398 659 
Q 2672 934 2672 1341 
Q 2672 1728 2419 1979 
Q 2166 2231 1775 2231 
Q 1616 2231 1378 2169 
L 1441 2663 
Q 1497 2656 1531 2656 
Q 1891 2656 2178 2843 
Q 2466 3031 2466 3422 
Q 2466 3731 2256 3934 
Q 2047 4138 1716 4138 
Q 1388 4138 1169 3931 
Q 950 3725 888 3313 
L 325 3413 
Q 428 3978 793 4289 
Q 1159 4600 1703 4600 
Q 2078 4600 2393 4439 
Q 2709 4278 2876 4000 
Q 3044 3722 3044 3409 
Q 3044 3113 2884 2869 
Q 2725 2625 2413 2481 
Q 2819 2388 3044 2092 
Q 3269 1797 3269 1353 
Q 3269 753 2831 336 
Q 2394 -81 1725 -81 
Q 1122 -81 723 278 
Q 325 638 269 1209 
z
" transform="scale(0.015625)"/>
     </defs>
     <use xlink:href="#ArialMT-31"/>
     <use xlink:href="#ArialMT-33" x="55.615234"/>
    </g>
   </g>
   <g id="text_15">
    <!-- p=1.304150208788051e-05 -->
    <g style="fill: #262626" transform="translate(56.128229 134.942325)scale(0.08 -0.08)">
     <defs>
      <path id="ArialMT-3d" d="M 3381 2694 
L 356 2694 
L 356 3219 
L 3381 3219 
L 3381 2694 
z
M 3381 1303 
L 356 1303 
L 356 1828 
L 3381 1828 
L 3381 1303 
z
" transform="scale(0.015625)"/>
      <path id="ArialMT-2e" d="M 581 0 
L 581 641 
L 1222 641 
L 1222 0 
L 581 0 
z
" transform="scale(0.015625)"/>
      <path id="ArialMT-35" d="M 266 1200 
L 856 1250 
Q 922 819 1161 601 
Q 1400 384 1738 384 
Q 2144 384 2425 690 
Q 2706 997 2706 1503 
Q 2706 1984 2436 2262 
Q 2166 2541 1728 2541 
Q 1456 2541 1237 2417 
Q 1019 2294 894 2097 
L 366 2166 
L 809 4519 
L 3088 4519 
L 3088 3981 
L 1259 3981 
L 1013 2750 
Q 1425 3038 1878 3038 
Q 2478 3038 2890 2622 
Q 3303 2206 3303 1553 
Q 3303 931 2941 478 
Q 2500 -78 1738 -78 
Q 1113 -78 717 272 
Q 322 622 266 1200 
z
" transform="scale(0.015625)"/>
      <path id="ArialMT-37" d="M 303 3981 
L 303 4522 
L 3269 4522 
L 3269 4084 
Q 2831 3619 2401 2847 
Q 1972 2075 1738 1259 
Q 1569 684 1522 0 
L 944 0 
Q 953 541 1156 1306 
Q 1359 2072 1739 2783 
Q 2119 3494 2547 3981 
L 303 3981 
z
" transform="scale(0.015625)"/>
      <path id="ArialMT-2d" d="M 203 1375 
L 203 1941 
L 1931 1941 
L 1931 1375 
L 203 1375 
z
" transform="scale(0.015625)"/>
     </defs>
     <use xlink:href="#ArialMT-70"/>
     <use xlink:href="#ArialMT-3d" x="55.615234"/>
     <use xlink:href="#ArialMT-31" x="114.013672"/>
     <use xlink:href="#ArialMT-2e" x="169.628906"/>
     <use xlink:href="#ArialMT-33" x="197.412109"/>
     <use xlink:href="#ArialMT-30" x="253.027344"/>
     <use xlink:href="#ArialMT-34" x="308.642578"/>
     <use xlink:href="#ArialMT-31" x="364.257812"/>
     <use xlink:href="#ArialMT-35" x="419.873047"/>
     <use xlink:href="#ArialMT-30" x="475.488281"/>
     <use xlink:href="#ArialMT-32" x="531.103516"/>
     <use xlink:href="#ArialMT-30" x="586.71875"/>
     <use xlink:href="#ArialMT-38" x="642.333984"/>
     <use xlink:href="#ArialMT-37" x="697.949219"/>
     <use xlink:href="#ArialMT-38" x="753.564453"/>
     <use xlink:href="#ArialMT-38" x="809.179688"/>
     <use xlink:href="#ArialMT-30" x="864.794922"/>
     <use xlink:href="#ArialMT-35" x="920.410156"/>
     <use xlink:href="#ArialMT-31" x="976.025391"/>
     <use xlink:href="#ArialMT-65" x="1031.640625"/>
     <use xlink:href="#ArialMT-2d" x="1087.255859"/>
     <use xlink:href="#ArialMT-30" x="1120.556641"/>
     <use xlink:href="#ArialMT-35" x="1176.171875"/>
    </g>
   </g>
   <g id="text_16">
    <!-- 11 -->
    <g style="fill: #262626" transform="translate(144.406979 303.504714)scale(0.1 -0.1)">
     <use xlink:href="#ArialMT-31"/>
     <use xlink:href="#ArialMT-31" x="48.240234"/>
    </g>
   </g>
   <g id="text_17">
    <!-- 26 -->
    <g style="fill: #262626" transform="translate(235.434687 303.504714)scale(0.1 -0.1)">
     <use xlink:href="#ArialMT-32"/>
     <use xlink:href="#ArialMT-36" x="55.615234"/>
    </g>
   </g>
   <g id="text_18">
    <!-- p=0.009865043145292464 -->
    <g style="fill: #262626" transform="translate(187.499687 141.292564)scale(0.08 -0.08)">
     <defs>
      <path id="ArialMT-39" d="M 350 1059 
L 891 1109 
Q 959 728 1153 556 
Q 1347 384 1650 384 
Q 1909 384 2104 503 
Q 2300 622 2425 820 
Q 2550 1019 2634 1356 
Q 2719 1694 2719 2044 
Q 2719 2081 2716 2156 
Q 2547 1888 2255 1720 
Q 1963 1553 1622 1553 
Q 1053 1553 659 1965 
Q 266 2378 266 3053 
Q 266 3750 677 4175 
Q 1088 4600 1706 4600 
Q 2153 4600 2523 4359 
Q 2894 4119 3086 3673 
Q 3278 3228 3278 2384 
Q 3278 1506 3087 986 
Q 2897 466 2520 194 
Q 2144 -78 1638 -78 
Q 1100 -78 759 220 
Q 419 519 350 1059 
z
M 2653 3081 
Q 2653 3566 2395 3850 
Q 2138 4134 1775 4134 
Q 1400 4134 1122 3828 
Q 844 3522 844 3034 
Q 844 2597 1108 2323 
Q 1372 2050 1759 2050 
Q 2150 2050 2401 2323 
Q 2653 2597 2653 3081 
z
" transform="scale(0.015625)"/>
     </defs>
     <use xlink:href="#ArialMT-70"/>
     <use xlink:href="#ArialMT-3d" x="55.615234"/>
     <use xlink:href="#ArialMT-30" x="114.013672"/>
     <use xlink:href="#ArialMT-2e" x="169.628906"/>
     <use xlink:href="#ArialMT-30" x="197.412109"/>
     <use xlink:href="#ArialMT-30" x="253.027344"/>
     <use xlink:href="#ArialMT-39" x="308.642578"/>
     <use xlink:href="#ArialMT-38" x="364.257812"/>
     <use xlink:href="#ArialMT-36" x="419.873047"/>
     <use xlink:href="#ArialMT-35" x="475.488281"/>
     <use xlink:href="#ArialMT-30" x="531.103516"/>
     <use xlink:href="#ArialMT-34" x="586.71875"/>
     <use xlink:href="#ArialMT-33" x="642.333984"/>
     <use xlink:href="#ArialMT-31" x="697.949219"/>
     <use xlink:href="#ArialMT-34" x="753.564453"/>
     <use xlink:href="#ArialMT-35" x="809.179688"/>
     <use xlink:href="#ArialMT-32" x="864.794922"/>
     <use xlink:href="#ArialMT-39" x="920.410156"/>
     <use xlink:href="#ArialMT-32" x="976.025391"/>
     <use xlink:href="#ArialMT-34" x="1031.640625"/>
     <use xlink:href="#ArialMT-36" x="1087.255859"/>
     <use xlink:href="#ArialMT-34" x="1142.871094"/>
    </g>
   </g>
   <g id="text_19">
    <!-- 11 -->
    <g style="fill: #262626" transform="translate(274.446562 303.504714)scale(0.1 -0.1)">
     <use xlink:href="#ArialMT-31"/>
     <use xlink:href="#ArialMT-31" x="48.240234"/>
    </g>
   </g>
   <g id="text_20">
    <!-- 18 -->
    <g style="fill: #262626" transform="translate(365.474271 303.504714)scale(0.1 -0.1)">
     <use xlink:href="#ArialMT-31"/>
     <use xlink:href="#ArialMT-38" x="55.615234"/>
    </g>
   </g>
   <g id="text_21">
    <!-- p=0.0004520983669852918 -->
    <g style="fill: #262626" transform="translate(315.314896 154.011421)scale(0.08 -0.08)">
     <use xlink:href="#ArialMT-70"/>
     <use xlink:href="#ArialMT-3d" x="55.615234"/>
     <use xlink:href="#ArialMT-30" x="114.013672"/>
     <use xlink:href="#ArialMT-2e" x="169.628906"/>
     <use xlink:href="#ArialMT-30" x="197.412109"/>
     <use xlink:href="#ArialMT-30" x="253.027344"/>
     <use xlink:href="#ArialMT-30" x="308.642578"/>
     <use xlink:href="#ArialMT-34" x="364.257812"/>
     <use xlink:href="#ArialMT-35" x="419.873047"/>
     <use xlink:href="#ArialMT-32" x="475.488281"/>
     <use xlink:href="#ArialMT-30" x="531.103516"/>
     <use xlink:href="#ArialMT-39" x="586.71875"/>
     <use xlink:href="#ArialMT-38" x="642.333984"/>
     <use xlink:href="#ArialMT-33" x="697.949219"/>
     <use xlink:href="#ArialMT-36" x="753.564453"/>
     <use xlink:href="#ArialMT-36" x="809.179688"/>
     <use xlink:href="#ArialMT-39" x="864.794922"/>
     <use xlink:href="#ArialMT-38" x="920.410156"/>
     <use xlink:href="#ArialMT-35" x="976.025391"/>
     <use xlink:href="#ArialMT-32" x="1031.640625"/>
     <use xlink:href="#ArialMT-39" x="1087.255859"/>
     <use xlink:href="#ArialMT-31" x="1142.871094"/>
     <use xlink:href="#ArialMT-38" x="1198.486328"/>
    </g>
   </g>
   <g id="text_22">
    <!-- 11 -->
    <g style="fill: #262626" transform="translate(404.486146 303.504714)scale(0.1 -0.1)">
     <use xlink:href="#ArialMT-31"/>
     <use xlink:href="#ArialMT-31" x="48.240234"/>
    </g>
   </g>
   <g id="legend_1">
    <g id="patch_15">
     <path d="M 382.43125 28.221631 
L 402.43125 28.221631 
L 402.43125 21.221631 
L 382.43125 21.221631 
z
" style="fill: #ecf2ec; stroke: #262626; stroke-width: 0.75; stroke-linejoin: miter"/>
    </g>
    <g id="text_23">
     <!-- Mutant -->
     <g style="fill: #262626" transform="translate(410.43125 28.221631)scale(0.1 -0.1)">
      <defs>
       <path id="ArialMT-4d" d="M 475 0 
L 475 4581 
L 1388 4581 
L 2472 1338 
Q 2622 884 2691 659 
Q 2769 909 2934 1394 
L 4031 4581 
L 4847 4581 
L 4847 0 
L 4263 0 
L 4263 3834 
L 2931 0 
L 2384 0 
L 1059 3900 
L 1059 0 
L 475 0 
z
" transform="scale(0.015625)"/>
       <path id="ArialMT-61" d="M 2588 409 
Q 2275 144 1986 34 
Q 1697 -75 1366 -75 
Q 819 -75 525 192 
Q 231 459 231 875 
Q 231 1119 342 1320 
Q 453 1522 633 1644 
Q 813 1766 1038 1828 
Q 1203 1872 1538 1913 
Q 2219 1994 2541 2106 
Q 2544 2222 2544 2253 
Q 2544 2597 2384 2738 
Q 2169 2928 1744 2928 
Q 1347 2928 1158 2789 
Q 969 2650 878 2297 
L 328 2372 
Q 403 2725 575 2942 
Q 747 3159 1072 3276 
Q 1397 3394 1825 3394 
Q 2250 3394 2515 3294 
Q 2781 3194 2906 3042 
Q 3031 2891 3081 2659 
Q 3109 2516 3109 2141 
L 3109 1391 
Q 3109 606 3145 398 
Q 3181 191 3288 0 
L 2700 0 
Q 2613 175 2588 409 
z
M 2541 1666 
Q 2234 1541 1622 1453 
Q 1275 1403 1131 1340 
Q 988 1278 909 1158 
Q 831 1038 831 891 
Q 831 666 1001 516 
Q 1172 366 1500 366 
Q 1825 366 2078 508 
Q 2331 650 2450 897 
Q 2541 1088 2541 1459 
L 2541 1666 
z
" transform="scale(0.015625)"/>
      </defs>
      <use xlink:href="#ArialMT-4d"/>
      <use xlink:href="#ArialMT-75" x="83.300781"/>
      <use xlink:href="#ArialMT-74" x="138.916016"/>
      <use xlink:href="#ArialMT-61" x="166.699219"/>
      <use xlink:href="#ArialMT-6e" x="222.314453"/>
      <use xlink:href="#ArialMT-74" x="277.929688"/>
     </g>
    </g>
    <g id="patch_16">
     <path d="M 382.43125 42.366944 
L 402.43125 42.366944 
L 402.43125 35.366944 
L 382.43125 35.366944 
z
" style="fill: #107010; stroke: #262626; stroke-width: 0.75; stroke-linejoin: miter"/>
    </g>
    <g id="text_24">
     <!-- WT -->
     <g style="fill: #262626" transform="translate(410.43125 42.366944)scale(0.1 -0.1)">
      <defs>
       <path id="ArialMT-57" d="M 1294 0 
L 78 4581 
L 700 4581 
L 1397 1578 
Q 1509 1106 1591 641 
Q 1766 1375 1797 1488 
L 2669 4581 
L 3400 4581 
L 4056 2263 
Q 4303 1400 4413 641 
Q 4500 1075 4641 1638 
L 5359 4581 
L 5969 4581 
L 4713 0 
L 4128 0 
L 3163 3491 
Q 3041 3928 3019 4028 
Q 2947 3713 2884 3491 
L 1913 0 
L 1294 0 
z
" transform="scale(0.015625)"/>
       <path id="ArialMT-54" d="M 1659 0 
L 1659 4041 
L 150 4041 
L 150 4581 
L 3781 4581 
L 3781 4041 
L 2266 4041 
L 2266 0 
L 1659 0 
z
" transform="scale(0.015625)"/>
      </defs>
      <use xlink:href="#ArialMT-57"/>
      <use xlink:href="#ArialMT-54" x="94.384766"/>
     </g>
    </g>
   </g>
  </g>
 </g>
 <defs>
  <clipPath id="pb99ab6a74c">
   <rect x="59.88125" y="12.063819" width="390.11875" height="291.474931"/>
  </clipPath>
 </defs>
</svg>
