<?xml version="1.0" encoding="utf-8" standalone="no"?>
<!DOCTYPE svg PUBLIC "-//W3C//DTD SVG 1.1//EN"
  "http://www.w3.org/Graphics/SVG/1.1/DTD/svg11.dtd">
<svg xmlns:xlink="http://www.w3.org/1999/xlink" width="460.8pt" height="345.6pt" viewBox="0 0 460.8 345.6" xmlns="http://www.w3.org/2000/svg" version="1.1">
 <metadata>
  <rdf:RDF xmlns:dc="http://purl.org/dc/elements/1.1/" xmlns:cc="http://creativecommons.org/ns#" xmlns:rdf="http://www.w3.org/1999/02/22-rdf-syntax-ns#">
   <cc:Work>
    <dc:type rdf:resource="http://purl.org/dc/dcmitype/StillImage"/>
    <dc:date>2024-02-24T17:25:41.212335</dc:date>
    <dc:format>image/svg+xml</dc:format>
    <dc:creator>
     <cc:Agent>
      <dc:title>Matplotlib v3.5.3, https://matplotlib.org/</dc:title>
     </cc:Agent>
    </dc:creator>
   </cc:Work>
  </rdf:RDF>
 </metadata>
 <defs>
  <style type="text/css">*{stroke-linejoin: round; stroke-linecap: butt}</style>
 </defs>
 <g id="figure_1">
  <g id="patch_1">
   <path d="M 0 345.6 
L 460.8 345.6 
L 460.8 0 
L 0 0 
z
" style="fill: #ffffff"/>
  </g>
  <g id="axes_1">
   <g id="patch_2">
    <path d="M 47.82125 303.64 
L 401.26 303.64 
L 401.26 46.675714 
L 47.82125 46.675714 
z
" style="fill: #ffffff"/>
   </g>
   <g id="PathCollection_1">
    <defs>
     <path id="m7883a373ed" d="M 0 3 
C 0.795609 3 1.55874 2.683901 2.12132 2.12132 
C 2.683901 1.55874 3 0.795609 3 0 
C 3 -0.795609 2.683901 -1.55874 2.12132 -2.12132 
C 1.55874 -2.683901 0.795609 -3 0 -3 
C -0.795609 -3 -1.55874 -2.683901 -2.12132 -2.12132 
C -2.683901 -1.55874 -3 -0.795609 -3 0 
C -3 0.795609 -2.683901 1.55874 -2.12132 2.12132 
C -1.55874 2.683901 -0.795609 3 0 3 
z
" style="stroke: #3cb371"/>
    </defs>
    <g clip-path="url(#pa4e2ae0754)">
     <use xlink:href="#m7883a373ed" x="63.886648" y="210.744683" style="fill: #3cb371; stroke: #3cb371"/>
     <use xlink:href="#m7883a373ed" x="131.253538" y="206.818089" style="fill: #3cb371; stroke: #3cb371"/>
     <use xlink:href="#m7883a373ed" x="141.233916" y="214.983858" style="fill: #3cb371; stroke: #3cb371"/>
     <use xlink:href="#m7883a373ed" x="150.742508" y="198.342424" style="fill: #3cb371; stroke: #3cb371"/>
     <use xlink:href="#m7883a373ed" x="160.872153" y="220.176118" style="fill: #3cb371; stroke: #3cb371"/>
     <use xlink:href="#m7883a373ed" x="198.257036" y="277.491988" style="fill: #3cb371; stroke: #3cb371"/>
     <use xlink:href="#m7883a373ed" x="207.297395" y="212.418923" style="fill: #3cb371; stroke: #3cb371"/>
     <use xlink:href="#m7883a373ed" x="207.836707" y="199.044985" style="fill: #3cb371; stroke: #3cb371"/>
     <use xlink:href="#m7883a373ed" x="212.308464" y="279.41939" style="fill: #3cb371; stroke: #3cb371"/>
     <use xlink:href="#m7883a373ed" x="231.532665" y="279.415789" style="fill: #3cb371; stroke: #3cb371"/>
     <use xlink:href="#m7883a373ed" x="236.144803" y="273.912667" style="fill: #3cb371; stroke: #3cb371"/>
     <use xlink:href="#m7883a373ed" x="236.781849" y="195.448506" style="fill: #3cb371; stroke: #3cb371"/>
     <use xlink:href="#m7883a373ed" x="245.420611" y="257.107027" style="fill: #3cb371; stroke: #3cb371"/>
     <use xlink:href="#m7883a373ed" x="255.133555" y="258.81122" style="fill: #3cb371; stroke: #3cb371"/>
     <use xlink:href="#m7883a373ed" x="255.357454" y="243.021709" style="fill: #3cb371; stroke: #3cb371"/>
     <use xlink:href="#m7883a373ed" x="258.420959" y="280.976262" style="fill: #3cb371; stroke: #3cb371"/>
     <use xlink:href="#m7883a373ed" x="259.491586" y="275.433956" style="fill: #3cb371; stroke: #3cb371"/>
     <use xlink:href="#m7883a373ed" x="266.09127" y="280.237088" style="fill: #3cb371; stroke: #3cb371"/>
     <use xlink:href="#m7883a373ed" x="267.860249" y="285.916655" style="fill: #3cb371; stroke: #3cb371"/>
     <use xlink:href="#m7883a373ed" x="268.476859" y="227.85355" style="fill: #3cb371; stroke: #3cb371"/>
     <use xlink:href="#m7883a373ed" x="268.501736" y="194.29928" style="fill: #3cb371; stroke: #3cb371"/>
     <use xlink:href="#m7883a373ed" x="273.442615" y="264.86874" style="fill: #3cb371; stroke: #3cb371"/>
     <use xlink:href="#m7883a373ed" x="276.930816" y="274.05021" style="fill: #3cb371; stroke: #3cb371"/>
     <use xlink:href="#m7883a373ed" x="288.714824" y="249.981976" style="fill: #3cb371; stroke: #3cb371"/>
     <use xlink:href="#m7883a373ed" x="302.13898" y="245.555578" style="fill: #3cb371; stroke: #3cb371"/>
     <use xlink:href="#m7883a373ed" x="331.067241" y="288.112904" style="fill: #3cb371; stroke: #3cb371"/>
    </g>
   </g>
   <g id="PathCollection_2">
    <defs>
     <path id="md030e59214" d="M 0 3 
C 0.795609 3 1.55874 2.683901 2.12132 2.12132 
C 2.683901 1.55874 3 0.795609 3 0 
C 3 -0.795609 2.683901 -1.55874 2.12132 -2.12132 
C 1.55874 -2.683901 0.795609 -3 0 -3 
C -0.795609 -3 -1.55874 -2.683901 -2.12132 -2.12132 
C -2.683901 -1.55874 -3 -0.795609 -3 0 
C -3 0.795609 -2.683901 1.55874 -2.12132 2.12132 
C -1.55874 2.683901 -0.795609 3 0 3 
z
" style="stroke: #ffdead"/>
    </defs>
    <g clip-path="url(#pa4e2ae0754)">
     <use xlink:href="#md030e59214" x="125.095432" y="294.272498" style="fill: #ffdead; stroke: #ffdead"/>
     <use xlink:href="#md030e59214" x="163.079155" y="267.55402" style="fill: #ffdead; stroke: #ffdead"/>
     <use xlink:href="#md030e59214" x="183.340221" y="261.657983" style="fill: #ffdead; stroke: #ffdead"/>
     <use xlink:href="#md030e59214" x="189.879489" y="273.026699" style="fill: #ffdead; stroke: #ffdead"/>
     <use xlink:href="#md030e59214" x="216.007237" y="280.925554" style="fill: #ffdead; stroke: #ffdead"/>
     <use xlink:href="#md030e59214" x="246.987015" y="175.678077" style="fill: #ffdead; stroke: #ffdead"/>
     <use xlink:href="#md030e59214" x="285.499388" y="257.8878" style="fill: #ffdead; stroke: #ffdead"/>
     <use xlink:href="#md030e59214" x="321.012229" y="268.802752" style="fill: #ffdead; stroke: #ffdead"/>
     <use xlink:href="#md030e59214" x="325.971765" y="286.150784" style="fill: #ffdead; stroke: #ffdead"/>
     <use xlink:href="#md030e59214" x="385.194602" y="264.274485" style="fill: #ffdead; stroke: #ffdead"/>
    </g>
   </g>
   <g id="PathCollection_3">
    <defs>
     <path id="mb1e86d5646" d="M 0 3 
C 0.795609 3 1.55874 2.683901 2.12132 2.12132 
C 2.683901 1.55874 3 0.795609 3 0 
C 3 -0.795609 2.683901 -1.55874 2.12132 -2.12132 
C 1.55874 -2.683901 0.795609 -3 0 -3 
C -0.795609 -3 -1.55874 -2.683901 -2.12132 -2.12132 
C -2.683901 -1.55874 -3 -0.795609 -3 0 
C -3 0.795609 -2.683901 1.55874 -2.12132 2.12132 
C -1.55874 2.683901 -0.795609 3 0 3 
z
" style="stroke: #483d8b"/>
    </defs>
    <g clip-path="url(#pa4e2ae0754)">
     <use xlink:href="#mb1e86d5646" x="268.218309" y="280.317361" style="fill: #483d8b; stroke: #483d8b"/>
     <use xlink:href="#mb1e86d5646" x="319.444937" y="271.122224" style="fill: #483d8b; stroke: #483d8b"/>
     <use xlink:href="#mb1e86d5646" x="341.872136" y="268.521161" style="fill: #483d8b; stroke: #483d8b"/>
     <use xlink:href="#mb1e86d5646" x="350.043732" y="277.072257" style="fill: #483d8b; stroke: #483d8b"/>
     <use xlink:href="#mb1e86d5646" x="360.296609" y="289.139365" style="fill: #483d8b; stroke: #483d8b"/>
     <use xlink:href="#mb1e86d5646" x="381.719639" y="269.062827" style="fill: #483d8b; stroke: #483d8b"/>
     <use xlink:href="#mb1e86d5646" x="382.495111" y="261.803742" style="fill: #483d8b; stroke: #483d8b"/>
     <use xlink:href="#mb1e86d5646" x="384.454137" y="228.253941" style="fill: #483d8b; stroke: #483d8b"/>
    </g>
   </g>
   <g id="matplotlib.axis_1">
    <g id="xtick_1">
     <g id="line2d_1">
      <defs>
       <path id="m806c22dd11" d="M 0 0 
L 0 3.5 
" style="stroke: #000000; stroke-width: 0.8"/>
      </defs>
      <g>
       <use xlink:href="#m806c22dd11" x="77.193523" y="303.64" style="stroke: #000000; stroke-width: 0.8"/>
      </g>
     </g>
     <g id="text_1">
      <!-- −40 -->
      <g transform="translate(66.641179 318.238437)scale(0.1 -0.1)">
       <defs>
        <path id="DejaVuSans-2212" d="M 678 2272 
L 4684 2272 
L 4684 1741 
L 678 1741 
L 678 2272 
z
" transform="scale(0.015625)"/>
        <path id="DejaVuSans-34" d="M 2419 4116 
L 825 1625 
L 2419 1625 
L 2419 4116 
z
M 2253 4666 
L 3047 4666 
L 3047 1625 
L 3713 1625 
L 3713 1100 
L 3047 1100 
L 3047 0 
L 2419 0 
L 2419 1100 
L 313 1100 
L 313 1709 
L 2253 4666 
z
" transform="scale(0.015625)"/>
        <path id="DejaVuSans-30" d="M 2034 4250 
Q 1547 4250 1301 3770 
Q 1056 3291 1056 2328 
Q 1056 1369 1301 889 
Q 1547 409 2034 409 
Q 2525 409 2770 889 
Q 3016 1369 3016 2328 
Q 3016 3291 2770 3770 
Q 2525 4250 2034 4250 
z
M 2034 4750 
Q 2819 4750 3233 4129 
Q 3647 3509 3647 2328 
Q 3647 1150 3233 529 
Q 2819 -91 2034 -91 
Q 1250 -91 836 529 
Q 422 1150 422 2328 
Q 422 3509 836 4129 
Q 1250 4750 2034 4750 
z
" transform="scale(0.015625)"/>
       </defs>
       <use xlink:href="#DejaVuSans-2212"/>
       <use xlink:href="#DejaVuSans-34" x="83.789062"/>
       <use xlink:href="#DejaVuSans-30" x="147.412109"/>
      </g>
     </g>
    </g>
    <g id="xtick_2">
     <g id="line2d_2">
      <g>
       <use xlink:href="#m806c22dd11" x="121.617892" y="303.64" style="stroke: #000000; stroke-width: 0.8"/>
      </g>
     </g>
     <g id="text_2">
      <!-- −35 -->
      <g transform="translate(111.065548 318.238437)scale(0.1 -0.1)">
       <defs>
        <path id="DejaVuSans-33" d="M 2597 2516 
Q 3050 2419 3304 2112 
Q 3559 1806 3559 1356 
Q 3559 666 3084 287 
Q 2609 -91 1734 -91 
Q 1441 -91 1130 -33 
Q 819 25 488 141 
L 488 750 
Q 750 597 1062 519 
Q 1375 441 1716 441 
Q 2309 441 2620 675 
Q 2931 909 2931 1356 
Q 2931 1769 2642 2001 
Q 2353 2234 1838 2234 
L 1294 2234 
L 1294 2753 
L 1863 2753 
Q 2328 2753 2575 2939 
Q 2822 3125 2822 3475 
Q 2822 3834 2567 4026 
Q 2313 4219 1838 4219 
Q 1578 4219 1281 4162 
Q 984 4106 628 3988 
L 628 4550 
Q 988 4650 1302 4700 
Q 1616 4750 1894 4750 
Q 2613 4750 3031 4423 
Q 3450 4097 3450 3541 
Q 3450 3153 3228 2886 
Q 3006 2619 2597 2516 
z
" transform="scale(0.015625)"/>
        <path id="DejaVuSans-35" d="M 691 4666 
L 3169 4666 
L 3169 4134 
L 1269 4134 
L 1269 2991 
Q 1406 3038 1543 3061 
Q 1681 3084 1819 3084 
Q 2600 3084 3056 2656 
Q 3513 2228 3513 1497 
Q 3513 744 3044 326 
Q 2575 -91 1722 -91 
Q 1428 -91 1123 -41 
Q 819 9 494 109 
L 494 744 
Q 775 591 1075 516 
Q 1375 441 1709 441 
Q 2250 441 2565 725 
Q 2881 1009 2881 1497 
Q 2881 1984 2565 2268 
Q 2250 2553 1709 2553 
Q 1456 2553 1204 2497 
Q 953 2441 691 2322 
L 691 4666 
z
" transform="scale(0.015625)"/>
       </defs>
       <use xlink:href="#DejaVuSans-2212"/>
       <use xlink:href="#DejaVuSans-33" x="83.789062"/>
       <use xlink:href="#DejaVuSans-35" x="147.412109"/>
      </g>
     </g>
    </g>
    <g id="xtick_3">
     <g id="line2d_3">
      <g>
       <use xlink:href="#m806c22dd11" x="166.042261" y="303.64" style="stroke: #000000; stroke-width: 0.8"/>
      </g>
     </g>
     <g id="text_3">
      <!-- −30 -->
      <g transform="translate(155.489917 318.238437)scale(0.1 -0.1)">
       <use xlink:href="#DejaVuSans-2212"/>
       <use xlink:href="#DejaVuSans-33" x="83.789062"/>
       <use xlink:href="#DejaVuSans-30" x="147.412109"/>
      </g>
     </g>
    </g>
    <g id="xtick_4">
     <g id="line2d_4">
      <g>
       <use xlink:href="#m806c22dd11" x="210.46663" y="303.64" style="stroke: #000000; stroke-width: 0.8"/>
      </g>
     </g>
     <g id="text_4">
      <!-- −25 -->
      <g transform="translate(199.914286 318.238437)scale(0.1 -0.1)">
       <defs>
        <path id="DejaVuSans-32" d="M 1228 531 
L 3431 531 
L 3431 0 
L 469 0 
L 469 531 
Q 828 903 1448 1529 
Q 2069 2156 2228 2338 
Q 2531 2678 2651 2914 
Q 2772 3150 2772 3378 
Q 2772 3750 2511 3984 
Q 2250 4219 1831 4219 
Q 1534 4219 1204 4116 
Q 875 4013 500 3803 
L 500 4441 
Q 881 4594 1212 4672 
Q 1544 4750 1819 4750 
Q 2544 4750 2975 4387 
Q 3406 4025 3406 3419 
Q 3406 3131 3298 2873 
Q 3191 2616 2906 2266 
Q 2828 2175 2409 1742 
Q 1991 1309 1228 531 
z
" transform="scale(0.015625)"/>
       </defs>
       <use xlink:href="#DejaVuSans-2212"/>
       <use xlink:href="#DejaVuSans-32" x="83.789062"/>
       <use xlink:href="#DejaVuSans-35" x="147.412109"/>
      </g>
     </g>
    </g>
    <g id="xtick_5">
     <g id="line2d_5">
      <g>
       <use xlink:href="#m806c22dd11" x="254.890998" y="303.64" style="stroke: #000000; stroke-width: 0.8"/>
      </g>
     </g>
     <g id="text_5">
      <!-- −20 -->
      <g transform="translate(244.338655 318.238437)scale(0.1 -0.1)">
       <use xlink:href="#DejaVuSans-2212"/>
       <use xlink:href="#DejaVuSans-32" x="83.789062"/>
       <use xlink:href="#DejaVuSans-30" x="147.412109"/>
      </g>
     </g>
    </g>
    <g id="xtick_6">
     <g id="line2d_6">
      <g>
       <use xlink:href="#m806c22dd11" x="299.315367" y="303.64" style="stroke: #000000; stroke-width: 0.8"/>
      </g>
     </g>
     <g id="text_6">
      <!-- −15 -->
      <g transform="translate(288.763023 318.238437)scale(0.1 -0.1)">
       <defs>
        <path id="DejaVuSans-31" d="M 794 531 
L 1825 531 
L 1825 4091 
L 703 3866 
L 703 4441 
L 1819 4666 
L 2450 4666 
L 2450 531 
L 3481 531 
L 3481 0 
L 794 0 
L 794 531 
z
" transform="scale(0.015625)"/>
       </defs>
       <use xlink:href="#DejaVuSans-2212"/>
       <use xlink:href="#DejaVuSans-31" x="83.789062"/>
       <use xlink:href="#DejaVuSans-35" x="147.412109"/>
      </g>
     </g>
    </g>
    <g id="xtick_7">
     <g id="line2d_7">
      <g>
       <use xlink:href="#m806c22dd11" x="343.739736" y="303.64" style="stroke: #000000; stroke-width: 0.8"/>
      </g>
     </g>
     <g id="text_7">
      <!-- −10 -->
      <g transform="translate(333.187392 318.238437)scale(0.1 -0.1)">
       <use xlink:href="#DejaVuSans-2212"/>
       <use xlink:href="#DejaVuSans-31" x="83.789062"/>
       <use xlink:href="#DejaVuSans-30" x="147.412109"/>
      </g>
     </g>
    </g>
    <g id="xtick_8">
     <g id="line2d_8">
      <g>
       <use xlink:href="#m806c22dd11" x="388.164105" y="303.64" style="stroke: #000000; stroke-width: 0.8"/>
      </g>
     </g>
     <g id="text_8">
      <!-- −5 -->
      <g transform="translate(380.793011 318.238437)scale(0.1 -0.1)">
       <use xlink:href="#DejaVuSans-2212"/>
       <use xlink:href="#DejaVuSans-35" x="83.789062"/>
      </g>
     </g>
    </g>
    <g id="text_9">
     <!-- Total -->
     <g transform="translate(212.864062 331.916562)scale(0.1 -0.1)">
      <defs>
       <path id="DejaVuSans-54" d="M -19 4666 
L 3928 4666 
L 3928 4134 
L 2272 4134 
L 2272 0 
L 1638 0 
L 1638 4134 
L -19 4134 
L -19 4666 
z
" transform="scale(0.015625)"/>
       <path id="DejaVuSans-6f" d="M 1959 3097 
Q 1497 3097 1228 2736 
Q 959 2375 959 1747 
Q 959 1119 1226 758 
Q 1494 397 1959 397 
Q 2419 397 2687 759 
Q 2956 1122 2956 1747 
Q 2956 2369 2687 2733 
Q 2419 3097 1959 3097 
z
M 1959 3584 
Q 2709 3584 3137 3096 
Q 3566 2609 3566 1747 
Q 3566 888 3137 398 
Q 2709 -91 1959 -91 
Q 1206 -91 779 398 
Q 353 888 353 1747 
Q 353 2609 779 3096 
Q 1206 3584 1959 3584 
z
" transform="scale(0.015625)"/>
       <path id="DejaVuSans-74" d="M 1172 4494 
L 1172 3500 
L 2356 3500 
L 2356 3053 
L 1172 3053 
L 1172 1153 
Q 1172 725 1289 603 
Q 1406 481 1766 481 
L 2356 481 
L 2356 0 
L 1766 0 
Q 1100 0 847 248 
Q 594 497 594 1153 
L 594 3053 
L 172 3053 
L 172 3500 
L 594 3500 
L 594 4494 
L 1172 4494 
z
" transform="scale(0.015625)"/>
       <path id="DejaVuSans-61" d="M 2194 1759 
Q 1497 1759 1228 1600 
Q 959 1441 959 1056 
Q 959 750 1161 570 
Q 1363 391 1709 391 
Q 2188 391 2477 730 
Q 2766 1069 2766 1631 
L 2766 1759 
L 2194 1759 
z
M 3341 1997 
L 3341 0 
L 2766 0 
L 2766 531 
Q 2569 213 2275 61 
Q 1981 -91 1556 -91 
Q 1019 -91 701 211 
Q 384 513 384 1019 
Q 384 1609 779 1909 
Q 1175 2209 1959 2209 
L 2766 2209 
L 2766 2266 
Q 2766 2663 2505 2880 
Q 2244 3097 1772 3097 
Q 1472 3097 1187 3025 
Q 903 2953 641 2809 
L 641 3341 
Q 956 3463 1253 3523 
Q 1550 3584 1831 3584 
Q 2591 3584 2966 3190 
Q 3341 2797 3341 1997 
z
" transform="scale(0.015625)"/>
       <path id="DejaVuSans-6c" d="M 603 4863 
L 1178 4863 
L 1178 0 
L 603 0 
L 603 4863 
z
" transform="scale(0.015625)"/>
      </defs>
      <use xlink:href="#DejaVuSans-54"/>
      <use xlink:href="#DejaVuSans-6f" x="44.083984"/>
      <use xlink:href="#DejaVuSans-74" x="105.265625"/>
      <use xlink:href="#DejaVuSans-61" x="144.474609"/>
      <use xlink:href="#DejaVuSans-6c" x="205.753906"/>
     </g>
    </g>
   </g>
   <g id="matplotlib.axis_2">
    <g id="ytick_1">
     <g id="line2d_9">
      <defs>
       <path id="m4d406343c8" d="M 0 0 
L -3.5 0 
" style="stroke: #000000; stroke-width: 0.8"/>
      </defs>
      <g>
       <use xlink:href="#m4d406343c8" x="47.82125" y="303.64" style="stroke: #000000; stroke-width: 0.8"/>
      </g>
     </g>
     <g id="text_10">
      <!-- 0.0 -->
      <g transform="translate(24.918125 307.439219)scale(0.1 -0.1)">
       <defs>
        <path id="DejaVuSans-2e" d="M 684 794 
L 1344 794 
L 1344 0 
L 684 0 
L 684 794 
z
" transform="scale(0.015625)"/>
       </defs>
       <use xlink:href="#DejaVuSans-30"/>
       <use xlink:href="#DejaVuSans-2e" x="63.623047"/>
       <use xlink:href="#DejaVuSans-30" x="95.410156"/>
      </g>
     </g>
    </g>
    <g id="ytick_2">
     <g id="line2d_10">
      <g>
       <use xlink:href="#m4d406343c8" x="47.82125" y="261.598828" style="stroke: #000000; stroke-width: 0.8"/>
      </g>
     </g>
     <g id="text_11">
      <!-- 0.5 -->
      <g transform="translate(24.918125 265.398046)scale(0.1 -0.1)">
       <use xlink:href="#DejaVuSans-30"/>
       <use xlink:href="#DejaVuSans-2e" x="63.623047"/>
       <use xlink:href="#DejaVuSans-35" x="95.410156"/>
      </g>
     </g>
    </g>
    <g id="ytick_3">
     <g id="line2d_11">
      <g>
       <use xlink:href="#m4d406343c8" x="47.82125" y="219.557655" style="stroke: #000000; stroke-width: 0.8"/>
      </g>
     </g>
     <g id="text_12">
      <!-- 1.0 -->
      <g transform="translate(24.918125 223.356874)scale(0.1 -0.1)">
       <use xlink:href="#DejaVuSans-31"/>
       <use xlink:href="#DejaVuSans-2e" x="63.623047"/>
       <use xlink:href="#DejaVuSans-30" x="95.410156"/>
      </g>
     </g>
    </g>
    <g id="ytick_4">
     <g id="line2d_12">
      <g>
       <use xlink:href="#m4d406343c8" x="47.82125" y="177.516483" style="stroke: #000000; stroke-width: 0.8"/>
      </g>
     </g>
     <g id="text_13">
      <!-- 1.5 -->
      <g transform="translate(24.918125 181.315701)scale(0.1 -0.1)">
       <use xlink:href="#DejaVuSans-31"/>
       <use xlink:href="#DejaVuSans-2e" x="63.623047"/>
       <use xlink:href="#DejaVuSans-35" x="95.410156"/>
      </g>
     </g>
    </g>
    <g id="ytick_5">
     <g id="line2d_13">
      <g>
       <use xlink:href="#m4d406343c8" x="47.82125" y="135.47531" style="stroke: #000000; stroke-width: 0.8"/>
      </g>
     </g>
     <g id="text_14">
      <!-- 2.0 -->
      <g transform="translate(24.918125 139.274529)scale(0.1 -0.1)">
       <use xlink:href="#DejaVuSans-32"/>
       <use xlink:href="#DejaVuSans-2e" x="63.623047"/>
       <use xlink:href="#DejaVuSans-30" x="95.410156"/>
      </g>
     </g>
    </g>
    <g id="ytick_6">
     <g id="line2d_14">
      <g>
       <use xlink:href="#m4d406343c8" x="47.82125" y="93.434138" style="stroke: #000000; stroke-width: 0.8"/>
      </g>
     </g>
     <g id="text_15">
      <!-- 2.5 -->
      <g transform="translate(24.918125 97.233357)scale(0.1 -0.1)">
       <use xlink:href="#DejaVuSans-32"/>
       <use xlink:href="#DejaVuSans-2e" x="63.623047"/>
       <use xlink:href="#DejaVuSans-35" x="95.410156"/>
      </g>
     </g>
    </g>
    <g id="ytick_7">
     <g id="line2d_15">
      <g>
       <use xlink:href="#m4d406343c8" x="47.82125" y="51.392965" style="stroke: #000000; stroke-width: 0.8"/>
      </g>
     </g>
     <g id="text_16">
      <!-- 3.0 -->
      <g transform="translate(24.918125 55.192184)scale(0.1 -0.1)">
       <use xlink:href="#DejaVuSans-33"/>
       <use xlink:href="#DejaVuSans-2e" x="63.623047"/>
       <use xlink:href="#DejaVuSans-30" x="95.410156"/>
      </g>
     </g>
    </g>
    <g id="text_17">
     <!-- PercentGpA_transformed -->
     <g transform="translate(18.560313 237.696138)rotate(-90)scale(0.1 -0.1)">
      <defs>
       <path id="DejaVuSans-50" d="M 1259 4147 
L 1259 2394 
L 2053 2394 
Q 2494 2394 2734 2622 
Q 2975 2850 2975 3272 
Q 2975 3691 2734 3919 
Q 2494 4147 2053 4147 
L 1259 4147 
z
M 628 4666 
L 2053 4666 
Q 2838 4666 3239 4311 
Q 3641 3956 3641 3272 
Q 3641 2581 3239 2228 
Q 2838 1875 2053 1875 
L 1259 1875 
L 1259 0 
L 628 0 
L 628 4666 
z
" transform="scale(0.015625)"/>
       <path id="DejaVuSans-65" d="M 3597 1894 
L 3597 1613 
L 953 1613 
Q 991 1019 1311 708 
Q 1631 397 2203 397 
Q 2534 397 2845 478 
Q 3156 559 3463 722 
L 3463 178 
Q 3153 47 2828 -22 
Q 2503 -91 2169 -91 
Q 1331 -91 842 396 
Q 353 884 353 1716 
Q 353 2575 817 3079 
Q 1281 3584 2069 3584 
Q 2775 3584 3186 3129 
Q 3597 2675 3597 1894 
z
M 3022 2063 
Q 3016 2534 2758 2815 
Q 2500 3097 2075 3097 
Q 1594 3097 1305 2825 
Q 1016 2553 972 2059 
L 3022 2063 
z
" transform="scale(0.015625)"/>
       <path id="DejaVuSans-72" d="M 2631 2963 
Q 2534 3019 2420 3045 
Q 2306 3072 2169 3072 
Q 1681 3072 1420 2755 
Q 1159 2438 1159 1844 
L 1159 0 
L 581 0 
L 581 3500 
L 1159 3500 
L 1159 2956 
Q 1341 3275 1631 3429 
Q 1922 3584 2338 3584 
Q 2397 3584 2469 3576 
Q 2541 3569 2628 3553 
L 2631 2963 
z
" transform="scale(0.015625)"/>
       <path id="DejaVuSans-63" d="M 3122 3366 
L 3122 2828 
Q 2878 2963 2633 3030 
Q 2388 3097 2138 3097 
Q 1578 3097 1268 2742 
Q 959 2388 959 1747 
Q 959 1106 1268 751 
Q 1578 397 2138 397 
Q 2388 397 2633 464 
Q 2878 531 3122 666 
L 3122 134 
Q 2881 22 2623 -34 
Q 2366 -91 2075 -91 
Q 1284 -91 818 406 
Q 353 903 353 1747 
Q 353 2603 823 3093 
Q 1294 3584 2113 3584 
Q 2378 3584 2631 3529 
Q 2884 3475 3122 3366 
z
" transform="scale(0.015625)"/>
       <path id="DejaVuSans-6e" d="M 3513 2113 
L 3513 0 
L 2938 0 
L 2938 2094 
Q 2938 2591 2744 2837 
Q 2550 3084 2163 3084 
Q 1697 3084 1428 2787 
Q 1159 2491 1159 1978 
L 1159 0 
L 581 0 
L 581 3500 
L 1159 3500 
L 1159 2956 
Q 1366 3272 1645 3428 
Q 1925 3584 2291 3584 
Q 2894 3584 3203 3211 
Q 3513 2838 3513 2113 
z
" transform="scale(0.015625)"/>
       <path id="DejaVuSans-47" d="M 3809 666 
L 3809 1919 
L 2778 1919 
L 2778 2438 
L 4434 2438 
L 4434 434 
Q 4069 175 3628 42 
Q 3188 -91 2688 -91 
Q 1594 -91 976 548 
Q 359 1188 359 2328 
Q 359 3472 976 4111 
Q 1594 4750 2688 4750 
Q 3144 4750 3555 4637 
Q 3966 4525 4313 4306 
L 4313 3634 
Q 3963 3931 3569 4081 
Q 3175 4231 2741 4231 
Q 1884 4231 1454 3753 
Q 1025 3275 1025 2328 
Q 1025 1384 1454 906 
Q 1884 428 2741 428 
Q 3075 428 3337 486 
Q 3600 544 3809 666 
z
" transform="scale(0.015625)"/>
       <path id="DejaVuSans-70" d="M 1159 525 
L 1159 -1331 
L 581 -1331 
L 581 3500 
L 1159 3500 
L 1159 2969 
Q 1341 3281 1617 3432 
Q 1894 3584 2278 3584 
Q 2916 3584 3314 3078 
Q 3713 2572 3713 1747 
Q 3713 922 3314 415 
Q 2916 -91 2278 -91 
Q 1894 -91 1617 61 
Q 1341 213 1159 525 
z
M 3116 1747 
Q 3116 2381 2855 2742 
Q 2594 3103 2138 3103 
Q 1681 3103 1420 2742 
Q 1159 2381 1159 1747 
Q 1159 1113 1420 752 
Q 1681 391 2138 391 
Q 2594 391 2855 752 
Q 3116 1113 3116 1747 
z
" transform="scale(0.015625)"/>
       <path id="DejaVuSans-41" d="M 2188 4044 
L 1331 1722 
L 3047 1722 
L 2188 4044 
z
M 1831 4666 
L 2547 4666 
L 4325 0 
L 3669 0 
L 3244 1197 
L 1141 1197 
L 716 0 
L 50 0 
L 1831 4666 
z
" transform="scale(0.015625)"/>
       <path id="DejaVuSans-5f" d="M 3263 -1063 
L 3263 -1509 
L -63 -1509 
L -63 -1063 
L 3263 -1063 
z
" transform="scale(0.015625)"/>
       <path id="DejaVuSans-73" d="M 2834 3397 
L 2834 2853 
Q 2591 2978 2328 3040 
Q 2066 3103 1784 3103 
Q 1356 3103 1142 2972 
Q 928 2841 928 2578 
Q 928 2378 1081 2264 
Q 1234 2150 1697 2047 
L 1894 2003 
Q 2506 1872 2764 1633 
Q 3022 1394 3022 966 
Q 3022 478 2636 193 
Q 2250 -91 1575 -91 
Q 1294 -91 989 -36 
Q 684 19 347 128 
L 347 722 
Q 666 556 975 473 
Q 1284 391 1588 391 
Q 1994 391 2212 530 
Q 2431 669 2431 922 
Q 2431 1156 2273 1281 
Q 2116 1406 1581 1522 
L 1381 1569 
Q 847 1681 609 1914 
Q 372 2147 372 2553 
Q 372 3047 722 3315 
Q 1072 3584 1716 3584 
Q 2034 3584 2315 3537 
Q 2597 3491 2834 3397 
z
" transform="scale(0.015625)"/>
       <path id="DejaVuSans-66" d="M 2375 4863 
L 2375 4384 
L 1825 4384 
Q 1516 4384 1395 4259 
Q 1275 4134 1275 3809 
L 1275 3500 
L 2222 3500 
L 2222 3053 
L 1275 3053 
L 1275 0 
L 697 0 
L 697 3053 
L 147 3053 
L 147 3500 
L 697 3500 
L 697 3744 
Q 697 4328 969 4595 
Q 1241 4863 1831 4863 
L 2375 4863 
z
" transform="scale(0.015625)"/>
       <path id="DejaVuSans-6d" d="M 3328 2828 
Q 3544 3216 3844 3400 
Q 4144 3584 4550 3584 
Q 5097 3584 5394 3201 
Q 5691 2819 5691 2113 
L 5691 0 
L 5113 0 
L 5113 2094 
Q 5113 2597 4934 2840 
Q 4756 3084 4391 3084 
Q 3944 3084 3684 2787 
Q 3425 2491 3425 1978 
L 3425 0 
L 2847 0 
L 2847 2094 
Q 2847 2600 2669 2842 
Q 2491 3084 2119 3084 
Q 1678 3084 1418 2786 
Q 1159 2488 1159 1978 
L 1159 0 
L 581 0 
L 581 3500 
L 1159 3500 
L 1159 2956 
Q 1356 3278 1631 3431 
Q 1906 3584 2284 3584 
Q 2666 3584 2933 3390 
Q 3200 3197 3328 2828 
z
" transform="scale(0.015625)"/>
       <path id="DejaVuSans-64" d="M 2906 2969 
L 2906 4863 
L 3481 4863 
L 3481 0 
L 2906 0 
L 2906 525 
Q 2725 213 2448 61 
Q 2172 -91 1784 -91 
Q 1150 -91 751 415 
Q 353 922 353 1747 
Q 353 2572 751 3078 
Q 1150 3584 1784 3584 
Q 2172 3584 2448 3432 
Q 2725 3281 2906 2969 
z
M 947 1747 
Q 947 1113 1208 752 
Q 1469 391 1925 391 
Q 2381 391 2643 752 
Q 2906 1113 2906 1747 
Q 2906 2381 2643 2742 
Q 2381 3103 1925 3103 
Q 1469 3103 1208 2742 
Q 947 2381 947 1747 
z
" transform="scale(0.015625)"/>
      </defs>
      <use xlink:href="#DejaVuSans-50"/>
      <use xlink:href="#DejaVuSans-65" x="56.677734"/>
      <use xlink:href="#DejaVuSans-72" x="118.201172"/>
      <use xlink:href="#DejaVuSans-63" x="157.064453"/>
      <use xlink:href="#DejaVuSans-65" x="212.044922"/>
      <use xlink:href="#DejaVuSans-6e" x="273.568359"/>
      <use xlink:href="#DejaVuSans-74" x="336.947266"/>
      <use xlink:href="#DejaVuSans-47" x="376.15625"/>
      <use xlink:href="#DejaVuSans-70" x="453.646484"/>
      <use xlink:href="#DejaVuSans-41" x="517.123047"/>
      <use xlink:href="#DejaVuSans-5f" x="585.53125"/>
      <use xlink:href="#DejaVuSans-74" x="635.53125"/>
      <use xlink:href="#DejaVuSans-72" x="674.740234"/>
      <use xlink:href="#DejaVuSans-61" x="715.853516"/>
      <use xlink:href="#DejaVuSans-6e" x="777.132812"/>
      <use xlink:href="#DejaVuSans-73" x="840.511719"/>
      <use xlink:href="#DejaVuSans-66" x="892.611328"/>
      <use xlink:href="#DejaVuSans-6f" x="927.816406"/>
      <use xlink:href="#DejaVuSans-72" x="988.998047"/>
      <use xlink:href="#DejaVuSans-6d" x="1028.361328"/>
      <use xlink:href="#DejaVuSans-65" x="1125.773438"/>
      <use xlink:href="#DejaVuSans-64" x="1187.296875"/>
     </g>
    </g>
   </g>
   <g id="LineCollection_1">
    <path d="M 63.886648 245.725587 
L 63.886648 175.76378 
" clip-path="url(#pa4e2ae0754)" style="fill: none; stroke: #d3d3d3; stroke-width: 3"/>
    <path d="M 131.253538 217.121175 
L 131.253538 196.515004 
" clip-path="url(#pa4e2ae0754)" style="fill: none; stroke: #d3d3d3; stroke-width: 3"/>
    <path d="M 141.233916 227.609912 
L 141.233916 202.357805 
" clip-path="url(#pa4e2ae0754)" style="fill: none; stroke: #d3d3d3; stroke-width: 3"/>
    <path d="M 150.742508 210.864355 
L 150.742508 185.820494 
" clip-path="url(#pa4e2ae0754)" style="fill: none; stroke: #d3d3d3; stroke-width: 3"/>
    <path d="M 160.872153 236.269123 
L 160.872153 204.083113 
" clip-path="url(#pa4e2ae0754)" style="fill: none; stroke: #d3d3d3; stroke-width: 3"/>
    <path d="M 198.257036 280.38523 
L 198.257036 274.598747 
" clip-path="url(#pa4e2ae0754)" style="fill: none; stroke: #d3d3d3; stroke-width: 3"/>
    <path d="M 207.297395 220.285061 
L 207.297395 204.552785 
" clip-path="url(#pa4e2ae0754)" style="fill: none; stroke: #d3d3d3; stroke-width: 3"/>
    <path d="M 207.836707 213.288442 
L 207.836707 184.801529 
" clip-path="url(#pa4e2ae0754)" style="fill: none; stroke: #d3d3d3; stroke-width: 3"/>
    <path d="M 212.308464 286.033114 
L 212.308464 272.805666 
" clip-path="url(#pa4e2ae0754)" style="fill: none; stroke: #d3d3d3; stroke-width: 3"/>
    <path d="M 231.532665 282.995119 
L 231.532665 275.836459 
" clip-path="url(#pa4e2ae0754)" style="fill: none; stroke: #d3d3d3; stroke-width: 3"/>
    <path d="M 236.144803 277.962945 
L 236.144803 269.86239 
" clip-path="url(#pa4e2ae0754)" style="fill: none; stroke: #d3d3d3; stroke-width: 3"/>
    <path d="M 236.781849 205.756079 
L 236.781849 185.140933 
" clip-path="url(#pa4e2ae0754)" style="fill: none; stroke: #d3d3d3; stroke-width: 3"/>
    <path d="M 245.420611 265.662542 
L 245.420611 248.551512 
" clip-path="url(#pa4e2ae0754)" style="fill: none; stroke: #d3d3d3; stroke-width: 3"/>
    <path d="M 255.133555 270.827751 
L 255.133555 246.79469 
" clip-path="url(#pa4e2ae0754)" style="fill: none; stroke: #d3d3d3; stroke-width: 3"/>
    <path d="M 255.357454 246.706806 
L 255.357454 239.336612 
" clip-path="url(#pa4e2ae0754)" style="fill: none; stroke: #d3d3d3; stroke-width: 3"/>
    <path d="M 258.420959 281.340157 
L 258.420959 280.612367 
" clip-path="url(#pa4e2ae0754)" style="fill: none; stroke: #d3d3d3; stroke-width: 3"/>
    <path d="M 259.491586 278.877923 
L 259.491586 271.989989 
" clip-path="url(#pa4e2ae0754)" style="fill: none; stroke: #d3d3d3; stroke-width: 3"/>
    <path d="M 266.09127 288.436088 
L 266.09127 272.038088 
" clip-path="url(#pa4e2ae0754)" style="fill: none; stroke: #d3d3d3; stroke-width: 3"/>
    <path d="M 267.860249 290.318073 
L 267.860249 281.515236 
" clip-path="url(#pa4e2ae0754)" style="fill: none; stroke: #d3d3d3; stroke-width: 3"/>
    <path d="M 268.476859 231.633228 
L 268.476859 224.073873 
" clip-path="url(#pa4e2ae0754)" style="fill: none; stroke: #d3d3d3; stroke-width: 3"/>
    <path d="M 268.501736 207.792358 
L 268.501736 180.806202 
" clip-path="url(#pa4e2ae0754)" style="fill: none; stroke: #d3d3d3; stroke-width: 3"/>
    <path d="M 273.442615 266.223985 
L 273.442615 263.513495 
" clip-path="url(#pa4e2ae0754)" style="fill: none; stroke: #d3d3d3; stroke-width: 3"/>
    <path d="M 276.930816 276.55021 
L 276.930816 271.550211 
" clip-path="url(#pa4e2ae0754)" style="fill: none; stroke: #d3d3d3; stroke-width: 3"/>
    <path d="M 288.714824 254.243946 
L 288.714824 245.720005 
" clip-path="url(#pa4e2ae0754)" style="fill: none; stroke: #d3d3d3; stroke-width: 3"/>
    <path d="M 302.13898 245.954839 
L 302.13898 245.156317 
" clip-path="url(#pa4e2ae0754)" style="fill: none; stroke: #d3d3d3; stroke-width: 3"/>
    <path d="M 331.067241 291.978083 
L 331.067241 284.247724 
" clip-path="url(#pa4e2ae0754)" style="fill: none; stroke: #d3d3d3; stroke-width: 3"/>
   </g>
   <g id="LineCollection_2">
    <path d="M 125.095432 300.82841 
L 125.095432 287.716586 
" clip-path="url(#pa4e2ae0754)" style="fill: none; stroke: #d3d3d3; stroke-width: 3"/>
    <path d="M 163.079155 280.845641 
L 163.079155 254.262399 
" clip-path="url(#pa4e2ae0754)" style="fill: none; stroke: #d3d3d3; stroke-width: 3"/>
    <path d="M 183.340221 264.658902 
L 183.340221 258.657064 
" clip-path="url(#pa4e2ae0754)" style="fill: none; stroke: #d3d3d3; stroke-width: 3"/>
    <path d="M 189.879489 301.974979 
L 189.879489 244.07842 
" clip-path="url(#pa4e2ae0754)" style="fill: none; stroke: #d3d3d3; stroke-width: 3"/>
    <path d="M 216.007237 289.81266 
L 216.007237 272.038448 
" clip-path="url(#pa4e2ae0754)" style="fill: none; stroke: #d3d3d3; stroke-width: 3"/>
    <path d="M 246.987015 292.523331 
L 246.987015 58.832822 
" clip-path="url(#pa4e2ae0754)" style="fill: none; stroke: #d3d3d3; stroke-width: 3"/>
    <path d="M 285.499388 271.102631 
L 285.499388 244.672968 
" clip-path="url(#pa4e2ae0754)" style="fill: none; stroke: #d3d3d3; stroke-width: 3"/>
    <path d="M 321.012229 271.903095 
L 321.012229 265.70241 
" clip-path="url(#pa4e2ae0754)" style="fill: none; stroke: #d3d3d3; stroke-width: 3"/>
    <path d="M 325.971765 293.676924 
L 325.971765 278.624645 
" clip-path="url(#pa4e2ae0754)" style="fill: none; stroke: #d3d3d3; stroke-width: 3"/>
    <path d="M 385.194602 266.435406 
L 385.194602 262.113564 
" clip-path="url(#pa4e2ae0754)" style="fill: none; stroke: #d3d3d3; stroke-width: 3"/>
   </g>
   <g id="LineCollection_3">
    <path d="M 268.218309 282.382185 
L 268.218309 278.252537 
" clip-path="url(#pa4e2ae0754)" style="fill: none; stroke: #d3d3d3; stroke-width: 3"/>
    <path d="M 319.444937 278.5524 
L 319.444937 263.692048 
" clip-path="url(#pa4e2ae0754)" style="fill: none; stroke: #d3d3d3; stroke-width: 3"/>
    <path d="M 341.872136 274.218741 
L 341.872136 262.823581 
" clip-path="url(#pa4e2ae0754)" style="fill: none; stroke: #d3d3d3; stroke-width: 3"/>
    <path d="M 350.043732 283.542284 
L 350.043732 270.602231 
" clip-path="url(#pa4e2ae0754)" style="fill: none; stroke: #d3d3d3; stroke-width: 3"/>
    <path d="M 360.296609 295.081206 
L 360.296609 283.197523 
" clip-path="url(#pa4e2ae0754)" style="fill: none; stroke: #d3d3d3; stroke-width: 3"/>
    <path d="M 381.719639 272.493601 
L 381.719639 265.632054 
" clip-path="url(#pa4e2ae0754)" style="fill: none; stroke: #d3d3d3; stroke-width: 3"/>
    <path d="M 382.495111 267.090949 
L 382.495111 256.516535 
" clip-path="url(#pa4e2ae0754)" style="fill: none; stroke: #d3d3d3; stroke-width: 3"/>
    <path d="M 384.454137 232.413158 
L 384.454137 224.094724 
" clip-path="url(#pa4e2ae0754)" style="fill: none; stroke: #d3d3d3; stroke-width: 3"/>
   </g>
   <g id="line2d_16">
    <path d="M 63.886648 226.100355 
L 131.253538 235.879812 
L 141.233916 237.328635 
L 150.742508 238.70897 
L 160.872153 240.179461 
L 198.257036 245.606516 
L 207.297395 246.918879 
L 207.836707 246.997169 
L 212.308464 247.646321 
L 231.532665 250.437043 
L 236.144803 251.106574 
L 236.781849 251.199052 
L 245.420611 252.453116 
L 255.133555 253.863116 
L 255.357454 253.895619 
L 258.420959 254.340339 
L 259.491586 254.495759 
L 266.09127 255.453816 
L 267.860249 255.710613 
L 268.476859 255.800125 
L 268.501736 255.803736 
L 273.442615 256.520989 
L 276.930816 257.027361 
L 288.714824 258.738012 
L 302.13898 260.686758 
L 331.067241 264.886189 
L 125.095432 234.985858 
L 163.079155 240.499845 
L 183.340221 243.441085 
L 189.879489 244.390372 
L 216.007237 248.183261 
L 246.987015 252.680506 
L 285.499388 258.271236 
L 321.012229 263.426533 
L 325.971765 264.146494 
L 385.194602 272.743702 
L 268.218309 255.762592 
L 319.444937 263.199013 
L 341.872136 266.454705 
L 350.043732 267.640952 
L 360.296609 269.129332 
L 381.719639 272.239252 
L 382.495111 272.351825 
L 384.454137 272.636211 
" clip-path="url(#pa4e2ae0754)" style="fill: none; stroke: #1f77b4; stroke-width: 1.5; stroke-linecap: square"/>
   </g>
   <g id="line2d_17">
    <g clip-path="url(#pa4e2ae0754)">
     <use xlink:href="#m7883a373ed" x="63.886648" y="210.744683" style="fill: #3cb371; stroke: #3cb371"/>
     <use xlink:href="#m7883a373ed" x="131.253538" y="206.818089" style="fill: #3cb371; stroke: #3cb371"/>
     <use xlink:href="#m7883a373ed" x="141.233916" y="214.983858" style="fill: #3cb371; stroke: #3cb371"/>
     <use xlink:href="#m7883a373ed" x="150.742508" y="198.342424" style="fill: #3cb371; stroke: #3cb371"/>
     <use xlink:href="#m7883a373ed" x="160.872153" y="220.176118" style="fill: #3cb371; stroke: #3cb371"/>
     <use xlink:href="#m7883a373ed" x="198.257036" y="277.491988" style="fill: #3cb371; stroke: #3cb371"/>
     <use xlink:href="#m7883a373ed" x="207.297395" y="212.418923" style="fill: #3cb371; stroke: #3cb371"/>
     <use xlink:href="#m7883a373ed" x="207.836707" y="199.044985" style="fill: #3cb371; stroke: #3cb371"/>
     <use xlink:href="#m7883a373ed" x="212.308464" y="279.41939" style="fill: #3cb371; stroke: #3cb371"/>
     <use xlink:href="#m7883a373ed" x="231.532665" y="279.415789" style="fill: #3cb371; stroke: #3cb371"/>
     <use xlink:href="#m7883a373ed" x="236.144803" y="273.912667" style="fill: #3cb371; stroke: #3cb371"/>
     <use xlink:href="#m7883a373ed" x="236.781849" y="195.448506" style="fill: #3cb371; stroke: #3cb371"/>
     <use xlink:href="#m7883a373ed" x="245.420611" y="257.107027" style="fill: #3cb371; stroke: #3cb371"/>
     <use xlink:href="#m7883a373ed" x="255.133555" y="258.81122" style="fill: #3cb371; stroke: #3cb371"/>
     <use xlink:href="#m7883a373ed" x="255.357454" y="243.021709" style="fill: #3cb371; stroke: #3cb371"/>
     <use xlink:href="#m7883a373ed" x="258.420959" y="280.976262" style="fill: #3cb371; stroke: #3cb371"/>
     <use xlink:href="#m7883a373ed" x="259.491586" y="275.433956" style="fill: #3cb371; stroke: #3cb371"/>
     <use xlink:href="#m7883a373ed" x="266.09127" y="280.237088" style="fill: #3cb371; stroke: #3cb371"/>
     <use xlink:href="#m7883a373ed" x="267.860249" y="285.916655" style="fill: #3cb371; stroke: #3cb371"/>
     <use xlink:href="#m7883a373ed" x="268.476859" y="227.85355" style="fill: #3cb371; stroke: #3cb371"/>
     <use xlink:href="#m7883a373ed" x="268.501736" y="194.29928" style="fill: #3cb371; stroke: #3cb371"/>
     <use xlink:href="#m7883a373ed" x="273.442615" y="264.86874" style="fill: #3cb371; stroke: #3cb371"/>
     <use xlink:href="#m7883a373ed" x="276.930816" y="274.05021" style="fill: #3cb371; stroke: #3cb371"/>
     <use xlink:href="#m7883a373ed" x="288.714824" y="249.981976" style="fill: #3cb371; stroke: #3cb371"/>
     <use xlink:href="#m7883a373ed" x="302.13898" y="245.555578" style="fill: #3cb371; stroke: #3cb371"/>
     <use xlink:href="#m7883a373ed" x="331.067241" y="288.112904" style="fill: #3cb371; stroke: #3cb371"/>
    </g>
   </g>
   <g id="line2d_18">
    <g clip-path="url(#pa4e2ae0754)">
     <use xlink:href="#md030e59214" x="125.095432" y="294.272498" style="fill: #ffdead; stroke: #ffdead"/>
     <use xlink:href="#md030e59214" x="163.079155" y="267.55402" style="fill: #ffdead; stroke: #ffdead"/>
     <use xlink:href="#md030e59214" x="183.340221" y="261.657983" style="fill: #ffdead; stroke: #ffdead"/>
     <use xlink:href="#md030e59214" x="189.879489" y="273.026699" style="fill: #ffdead; stroke: #ffdead"/>
     <use xlink:href="#md030e59214" x="216.007237" y="280.925554" style="fill: #ffdead; stroke: #ffdead"/>
     <use xlink:href="#md030e59214" x="246.987015" y="175.678077" style="fill: #ffdead; stroke: #ffdead"/>
     <use xlink:href="#md030e59214" x="285.499388" y="257.8878" style="fill: #ffdead; stroke: #ffdead"/>
     <use xlink:href="#md030e59214" x="321.012229" y="268.802752" style="fill: #ffdead; stroke: #ffdead"/>
     <use xlink:href="#md030e59214" x="325.971765" y="286.150784" style="fill: #ffdead; stroke: #ffdead"/>
     <use xlink:href="#md030e59214" x="385.194602" y="264.274485" style="fill: #ffdead; stroke: #ffdead"/>
    </g>
   </g>
   <g id="line2d_19">
    <g clip-path="url(#pa4e2ae0754)">
     <use xlink:href="#mb1e86d5646" x="268.218309" y="280.317361" style="fill: #483d8b; stroke: #483d8b"/>
     <use xlink:href="#mb1e86d5646" x="319.444937" y="271.122224" style="fill: #483d8b; stroke: #483d8b"/>
     <use xlink:href="#mb1e86d5646" x="341.872136" y="268.521161" style="fill: #483d8b; stroke: #483d8b"/>
     <use xlink:href="#mb1e86d5646" x="350.043732" y="277.072257" style="fill: #483d8b; stroke: #483d8b"/>
     <use xlink:href="#mb1e86d5646" x="360.296609" y="289.139365" style="fill: #483d8b; stroke: #483d8b"/>
     <use xlink:href="#mb1e86d5646" x="381.719639" y="269.062827" style="fill: #483d8b; stroke: #483d8b"/>
     <use xlink:href="#mb1e86d5646" x="382.495111" y="261.803742" style="fill: #483d8b; stroke: #483d8b"/>
     <use xlink:href="#mb1e86d5646" x="384.454137" y="228.253941" style="fill: #483d8b; stroke: #483d8b"/>
    </g>
   </g>
   <g id="patch_3">
    <path d="M 47.82125 303.64 
L 47.82125 46.675714 
" style="fill: none; stroke: #000000; stroke-width: 0.8; stroke-linejoin: miter; stroke-linecap: square"/>
   </g>
   <g id="patch_4">
    <path d="M 401.26 303.64 
L 401.26 46.675714 
" style="fill: none; stroke: #000000; stroke-width: 0.8; stroke-linejoin: miter; stroke-linecap: square"/>
   </g>
   <g id="patch_5">
    <path d="M 47.82125 303.64 
L 401.26 303.64 
" style="fill: none; stroke: #000000; stroke-width: 0.8; stroke-linejoin: miter; stroke-linecap: square"/>
   </g>
   <g id="patch_6">
    <path d="M 47.82125 46.675714 
L 401.26 46.675714 
" style="fill: none; stroke: #000000; stroke-width: 0.8; stroke-linejoin: miter; stroke-linecap: square"/>
   </g>
   <g id="text_18">
    <!-- y = -0.02x + 0.29 -->
    <g transform="translate(38.440906 18.599375)scale(0.1 -0.1)">
     <defs>
      <path id="DejaVuSans-79" d="M 2059 -325 
Q 1816 -950 1584 -1140 
Q 1353 -1331 966 -1331 
L 506 -1331 
L 506 -850 
L 844 -850 
Q 1081 -850 1212 -737 
Q 1344 -625 1503 -206 
L 1606 56 
L 191 3500 
L 800 3500 
L 1894 763 
L 2988 3500 
L 3597 3500 
L 2059 -325 
z
" transform="scale(0.015625)"/>
      <path id="DejaVuSans-20" transform="scale(0.015625)"/>
      <path id="DejaVuSans-3d" d="M 678 2906 
L 4684 2906 
L 4684 2381 
L 678 2381 
L 678 2906 
z
M 678 1631 
L 4684 1631 
L 4684 1100 
L 678 1100 
L 678 1631 
z
" transform="scale(0.015625)"/>
      <path id="DejaVuSans-2d" d="M 313 2009 
L 1997 2009 
L 1997 1497 
L 313 1497 
L 313 2009 
z
" transform="scale(0.015625)"/>
      <path id="DejaVuSans-78" d="M 3513 3500 
L 2247 1797 
L 3578 0 
L 2900 0 
L 1881 1375 
L 863 0 
L 184 0 
L 1544 1831 
L 300 3500 
L 978 3500 
L 1906 2253 
L 2834 3500 
L 3513 3500 
z
" transform="scale(0.015625)"/>
      <path id="DejaVuSans-2b" d="M 2944 4013 
L 2944 2272 
L 4684 2272 
L 4684 1741 
L 2944 1741 
L 2944 0 
L 2419 0 
L 2419 1741 
L 678 1741 
L 678 2272 
L 2419 2272 
L 2419 4013 
L 2944 4013 
z
" transform="scale(0.015625)"/>
      <path id="DejaVuSans-39" d="M 703 97 
L 703 672 
Q 941 559 1184 500 
Q 1428 441 1663 441 
Q 2288 441 2617 861 
Q 2947 1281 2994 2138 
Q 2813 1869 2534 1725 
Q 2256 1581 1919 1581 
Q 1219 1581 811 2004 
Q 403 2428 403 3163 
Q 403 3881 828 4315 
Q 1253 4750 1959 4750 
Q 2769 4750 3195 4129 
Q 3622 3509 3622 2328 
Q 3622 1225 3098 567 
Q 2575 -91 1691 -91 
Q 1453 -91 1209 -44 
Q 966 3 703 97 
z
M 1959 2075 
Q 2384 2075 2632 2365 
Q 2881 2656 2881 3163 
Q 2881 3666 2632 3958 
Q 2384 4250 1959 4250 
Q 1534 4250 1286 3958 
Q 1038 3666 1038 3163 
Q 1038 2656 1286 2365 
Q 1534 2075 1959 2075 
z
" transform="scale(0.015625)"/>
     </defs>
     <use xlink:href="#DejaVuSans-79"/>
     <use xlink:href="#DejaVuSans-20" x="59.179688"/>
     <use xlink:href="#DejaVuSans-3d" x="90.966797"/>
     <use xlink:href="#DejaVuSans-20" x="174.755859"/>
     <use xlink:href="#DejaVuSans-2d" x="206.542969"/>
     <use xlink:href="#DejaVuSans-30" x="242.626953"/>
     <use xlink:href="#DejaVuSans-2e" x="306.25"/>
     <use xlink:href="#DejaVuSans-30" x="338.037109"/>
     <use xlink:href="#DejaVuSans-32" x="401.660156"/>
     <use xlink:href="#DejaVuSans-78" x="465.283203"/>
     <use xlink:href="#DejaVuSans-20" x="524.462891"/>
     <use xlink:href="#DejaVuSans-2b" x="556.25"/>
     <use xlink:href="#DejaVuSans-20" x="640.039062"/>
     <use xlink:href="#DejaVuSans-30" x="671.826172"/>
     <use xlink:href="#DejaVuSans-2e" x="735.449219"/>
     <use xlink:href="#DejaVuSans-32" x="767.236328"/>
     <use xlink:href="#DejaVuSans-39" x="830.859375"/>
    </g>
   </g>
   <g id="text_19">
    <!-- r^2 = 0.12 -->
    <g transform="translate(55.237781 26.308304)scale(0.1 -0.1)">
     <defs>
      <path id="DejaVuSans-5e" d="M 2988 4666 
L 4684 2925 
L 4056 2925 
L 2681 4159 
L 1306 2925 
L 678 2925 
L 2375 4666 
L 2988 4666 
z
" transform="scale(0.015625)"/>
     </defs>
     <use xlink:href="#DejaVuSans-72"/>
     <use xlink:href="#DejaVuSans-5e" x="41.113281"/>
     <use xlink:href="#DejaVuSans-32" x="124.902344"/>
     <use xlink:href="#DejaVuSans-20" x="188.525391"/>
     <use xlink:href="#DejaVuSans-3d" x="220.3125"/>
     <use xlink:href="#DejaVuSans-20" x="304.101562"/>
     <use xlink:href="#DejaVuSans-30" x="335.888672"/>
     <use xlink:href="#DejaVuSans-2e" x="399.511719"/>
     <use xlink:href="#DejaVuSans-31" x="431.298828"/>
     <use xlink:href="#DejaVuSans-32" x="494.921875"/>
    </g>
   </g>
   <g id="text_20">
    <!-- n = 44 -->
    <g transform="translate(66.265906 34.017232)scale(0.1 -0.1)">
     <use xlink:href="#DejaVuSans-6e"/>
     <use xlink:href="#DejaVuSans-20" x="63.378906"/>
     <use xlink:href="#DejaVuSans-3d" x="95.166016"/>
     <use xlink:href="#DejaVuSans-20" x="178.955078"/>
     <use xlink:href="#DejaVuSans-34" x="210.742188"/>
     <use xlink:href="#DejaVuSans-34" x="274.365234"/>
    </g>
   </g>
   <g id="text_21">
    <!-- Total vs PercentGpA_transformed -->
    <g transform="translate(124.992187 40.675714)scale(0.12 -0.12)">
     <defs>
      <path id="DejaVuSans-76" d="M 191 3500 
L 800 3500 
L 1894 563 
L 2988 3500 
L 3597 3500 
L 2284 0 
L 1503 0 
L 191 3500 
z
" transform="scale(0.015625)"/>
     </defs>
     <use xlink:href="#DejaVuSans-54"/>
     <use xlink:href="#DejaVuSans-6f" x="44.083984"/>
     <use xlink:href="#DejaVuSans-74" x="105.265625"/>
     <use xlink:href="#DejaVuSans-61" x="144.474609"/>
     <use xlink:href="#DejaVuSans-6c" x="205.753906"/>
     <use xlink:href="#DejaVuSans-20" x="233.537109"/>
     <use xlink:href="#DejaVuSans-76" x="265.324219"/>
     <use xlink:href="#DejaVuSans-73" x="324.503906"/>
     <use xlink:href="#DejaVuSans-20" x="376.603516"/>
     <use xlink:href="#DejaVuSans-50" x="408.390625"/>
     <use xlink:href="#DejaVuSans-65" x="465.068359"/>
     <use xlink:href="#DejaVuSans-72" x="526.591797"/>
     <use xlink:href="#DejaVuSans-63" x="565.455078"/>
     <use xlink:href="#DejaVuSans-65" x="620.435547"/>
     <use xlink:href="#DejaVuSans-6e" x="681.958984"/>
     <use xlink:href="#DejaVuSans-74" x="745.337891"/>
     <use xlink:href="#DejaVuSans-47" x="784.546875"/>
     <use xlink:href="#DejaVuSans-70" x="862.037109"/>
     <use xlink:href="#DejaVuSans-41" x="925.513672"/>
     <use xlink:href="#DejaVuSans-5f" x="993.921875"/>
     <use xlink:href="#DejaVuSans-74" x="1043.921875"/>
     <use xlink:href="#DejaVuSans-72" x="1083.130859"/>
     <use xlink:href="#DejaVuSans-61" x="1124.244141"/>
     <use xlink:href="#DejaVuSans-6e" x="1185.523438"/>
     <use xlink:href="#DejaVuSans-73" x="1248.902344"/>
     <use xlink:href="#DejaVuSans-66" x="1301.001953"/>
     <use xlink:href="#DejaVuSans-6f" x="1336.207031"/>
     <use xlink:href="#DejaVuSans-72" x="1397.388672"/>
     <use xlink:href="#DejaVuSans-6d" x="1436.751953"/>
     <use xlink:href="#DejaVuSans-65" x="1534.164062"/>
     <use xlink:href="#DejaVuSans-64" x="1595.6875"/>
    </g>
   </g>
   <g id="legend_1">
    <g id="patch_7">
     <path d="M 408.26 98.710089 
L 448.008438 98.710089 
Q 450.008438 98.710089 450.008438 96.710089 
L 450.008438 53.675714 
Q 450.008438 51.675714 448.008438 51.675714 
L 408.26 51.675714 
Q 406.26 51.675714 406.26 53.675714 
L 406.26 96.710089 
Q 406.26 98.710089 408.26 98.710089 
z
" style="fill: #ffffff; opacity: 0.8; stroke: #cccccc; stroke-linejoin: miter"/>
    </g>
    <g id="PathCollection_4">
     <g>
      <use xlink:href="#m7883a373ed" x="420.26" y="60.649152" style="fill: #3cb371; stroke: #3cb371"/>
     </g>
    </g>
    <g id="text_22">
     <!-- G -->
     <g transform="translate(438.26 63.274152)scale(0.1 -0.1)">
      <use xlink:href="#DejaVuSans-47"/>
     </g>
    </g>
    <g id="PathCollection_5">
     <g>
      <use xlink:href="#md030e59214" x="420.26" y="75.327277" style="fill: #ffdead; stroke: #ffdead"/>
     </g>
    </g>
    <g id="text_23">
     <!-- L -->
     <g transform="translate(438.26 77.952277)scale(0.1 -0.1)">
      <defs>
       <path id="DejaVuSans-4c" d="M 628 4666 
L 1259 4666 
L 1259 531 
L 3531 531 
L 3531 0 
L 628 0 
L 628 4666 
z
" transform="scale(0.015625)"/>
      </defs>
      <use xlink:href="#DejaVuSans-4c"/>
     </g>
    </g>
    <g id="PathCollection_6">
     <g>
      <use xlink:href="#mb1e86d5646" x="420.26" y="90.005402" style="fill: #483d8b; stroke: #483d8b"/>
     </g>
    </g>
    <g id="text_24">
     <!-- R -->
     <g transform="translate(438.26 92.630402)scale(0.1 -0.1)">
      <defs>
       <path id="DejaVuSans-52" d="M 2841 2188 
Q 3044 2119 3236 1894 
Q 3428 1669 3622 1275 
L 4263 0 
L 3584 0 
L 2988 1197 
Q 2756 1666 2539 1819 
Q 2322 1972 1947 1972 
L 1259 1972 
L 1259 0 
L 628 0 
L 628 4666 
L 2053 4666 
Q 2853 4666 3247 4331 
Q 3641 3997 3641 3322 
Q 3641 2881 3436 2590 
Q 3231 2300 2841 2188 
z
M 1259 4147 
L 1259 2491 
L 2053 2491 
Q 2509 2491 2742 2702 
Q 2975 2913 2975 3322 
Q 2975 3731 2742 3939 
Q 2509 4147 2053 4147 
L 1259 4147 
z
" transform="scale(0.015625)"/>
      </defs>
      <use xlink:href="#DejaVuSans-52"/>
     </g>
    </g>
   </g>
  </g>
 </g>
 <defs>
  <clipPath id="pa4e2ae0754">
   <rect x="47.82125" y="46.675714" width="353.43875" height="256.964286"/>
  </clipPath>
 </defs>
</svg>
