<?xml version="1.0" encoding="utf-8" standalone="no"?>
<!DOCTYPE svg PUBLIC "-//W3C//DTD SVG 1.1//EN"
  "http://www.w3.org/Graphics/SVG/1.1/DTD/svg11.dtd">
<svg xmlns:xlink="http://www.w3.org/1999/xlink" width="460.8pt" height="345.6pt" viewBox="0 0 460.8 345.6" xmlns="http://www.w3.org/2000/svg" version="1.1">
 <metadata>
  <rdf:RDF xmlns:dc="http://purl.org/dc/elements/1.1/" xmlns:cc="http://creativecommons.org/ns#" xmlns:rdf="http://www.w3.org/1999/02/22-rdf-syntax-ns#">
   <cc:Work>
    <dc:type rdf:resource="http://purl.org/dc/dcmitype/StillImage"/>
    <dc:date>2024-02-15T15:20:22.005679</dc:date>
    <dc:format>image/svg+xml</dc:format>
    <dc:creator>
     <cc:Agent>
      <dc:title>Matplotlib v3.7.1, https://matplotlib.org/</dc:title>
     </cc:Agent>
    </dc:creator>
   </cc:Work>
  </rdf:RDF>
 </metadata>
 <defs>
  <style type="text/css">*{stroke-linejoin: round; stroke-linecap: butt}</style>
 </defs>
 <g id="figure_1">
  <g id="patch_1">
   <path d="M 0 345.6 
L 460.8 345.6 
L 460.8 0 
L 0 0 
z
" style="fill: #ffffff"/>
  </g>
  <g id="axes_1">
   <g id="patch_2">
    <path d="M 47.91125 303.64 
L 401.26 303.64 
L 401.26 46.675714 
L 47.91125 46.675714 
z
" style="fill: #ffffff"/>
   </g>
   <g id="PathCollection_1">
    <defs>
     <path id="m47a89a5c73" d="M 0 3 
C 0.795609 3 1.55874 2.683901 2.12132 2.12132 
C 2.683901 1.55874 3 0.795609 3 0 
C 3 -0.795609 2.683901 -1.55874 2.12132 -2.12132 
C 1.55874 -2.683901 0.795609 -3 0 -3 
C -0.795609 -3 -1.55874 -2.683901 -2.12132 -2.12132 
C -2.683901 -1.55874 -3 -0.795609 -3 0 
C -3 0.795609 -2.683901 1.55874 -2.12132 2.12132 
C -1.55874 2.683901 -0.795609 3 0 3 
z
" style="stroke: #3cb371"/>
    </defs>
    <g clip-path="url(#pe2ed1bc18f)">
     <use xlink:href="#m47a89a5c73" x="166.09148" y="124.402879" style="fill: #3cb371; stroke: #3cb371"/>
     <use xlink:href="#m47a89a5c73" x="156.867537" y="170.294254" style="fill: #3cb371; stroke: #3cb371"/>
     <use xlink:href="#m47a89a5c73" x="264.215418" y="156.256417" style="fill: #3cb371; stroke: #3cb371"/>
     <use xlink:href="#m47a89a5c73" x="231.792795" y="160.466228" style="fill: #3cb371; stroke: #3cb371"/>
     <use xlink:href="#m47a89a5c73" x="153.150195" y="152.754753" style="fill: #3cb371; stroke: #3cb371"/>
     <use xlink:href="#m47a89a5c73" x="212.350018" y="223.368454" style="fill: #3cb371; stroke: #3cb371"/>
     <use xlink:href="#m47a89a5c73" x="218.805236" y="164.29301" style="fill: #3cb371; stroke: #3cb371"/>
     <use xlink:href="#m47a89a5c73" x="299.283369" y="187.853211" style="fill: #3cb371; stroke: #3cb371"/>
     <use xlink:href="#m47a89a5c73" x="323.631186" y="172.636878" style="fill: #3cb371; stroke: #3cb371"/>
     <use xlink:href="#m47a89a5c73" x="300.04689" y="267.446152" style="fill: #3cb371; stroke: #3cb371"/>
     <use xlink:href="#m47a89a5c73" x="240.800793" y="120.988898" style="fill: #3cb371; stroke: #3cb371"/>
     <use xlink:href="#m47a89a5c73" x="228.152576" y="136.120693" style="fill: #3cb371; stroke: #3cb371"/>
     <use xlink:href="#m47a89a5c73" x="313.936791" y="210.728179" style="fill: #3cb371; stroke: #3cb371"/>
     <use xlink:href="#m47a89a5c73" x="257.829611" y="193.839185" style="fill: #3cb371; stroke: #3cb371"/>
     <use xlink:href="#m47a89a5c73" x="359.107891" y="184.254397" style="fill: #3cb371; stroke: #3cb371"/>
     <use xlink:href="#m47a89a5c73" x="274.688758" y="108.286764" style="fill: #3cb371; stroke: #3cb371"/>
     <use xlink:href="#m47a89a5c73" x="385.198693" y="221.546068" style="fill: #3cb371; stroke: #3cb371"/>
     <use xlink:href="#m47a89a5c73" x="328.528514" y="151.437546" style="fill: #3cb371; stroke: #3cb371"/>
     <use xlink:href="#m47a89a5c73" x="228.306823" y="265.501901" style="fill: #3cb371; stroke: #3cb371"/>
     <use xlink:href="#m47a89a5c73" x="281.514168" y="125.125458" style="fill: #3cb371; stroke: #3cb371"/>
     <use xlink:href="#m47a89a5c73" x="63.972557" y="92.81318" style="fill: #3cb371; stroke: #3cb371"/>
     <use xlink:href="#m47a89a5c73" x="272.47532" y="109.858138" style="fill: #3cb371; stroke: #3cb371"/>
     <use xlink:href="#m47a89a5c73" x="170.903972" y="139.353078" style="fill: #3cb371; stroke: #3cb371"/>
     <use xlink:href="#m47a89a5c73" x="283.272578" y="194.701266" style="fill: #3cb371; stroke: #3cb371"/>
     <use xlink:href="#m47a89a5c73" x="195.298063" y="247.840709" style="fill: #3cb371; stroke: #3cb371"/>
     <use xlink:href="#m47a89a5c73" x="266.050952" y="241.679186" style="fill: #3cb371; stroke: #3cb371"/>
     <use xlink:href="#m47a89a5c73" x="184.246298" y="260.838298" style="fill: #3cb371; stroke: #3cb371"/>
     <use xlink:href="#m47a89a5c73" x="362.632424" y="146.363947" style="fill: #3cb371; stroke: #3cb371"/>
     <use xlink:href="#m47a89a5c73" x="336.665019" y="177.961989" style="fill: #3cb371; stroke: #3cb371"/>
     <use xlink:href="#m47a89a5c73" x="285.717386" y="259.48894" style="fill: #3cb371; stroke: #3cb371"/>
     <use xlink:href="#m47a89a5c73" x="209.157115" y="183.601471" style="fill: #3cb371; stroke: #3cb371"/>
     <use xlink:href="#m47a89a5c73" x="260.690884" y="248.344096" style="fill: #3cb371; stroke: #3cb371"/>
     <use xlink:href="#m47a89a5c73" x="376.838531" y="148.61645" style="fill: #3cb371; stroke: #3cb371"/>
     <use xlink:href="#m47a89a5c73" x="265.379979" y="243.18185" style="fill: #3cb371; stroke: #3cb371"/>
     <use xlink:href="#m47a89a5c73" x="263.382487" y="266.347591" style="fill: #3cb371; stroke: #3cb371"/>
     <use xlink:href="#m47a89a5c73" x="91.050537" y="203.225589" style="fill: #3cb371; stroke: #3cb371"/>
     <use xlink:href="#m47a89a5c73" x="185.51112" y="153.52256" style="fill: #3cb371; stroke: #3cb371"/>
     <use xlink:href="#m47a89a5c73" x="384.172954" y="235.409783" style="fill: #3cb371; stroke: #3cb371"/>
     <use xlink:href="#m47a89a5c73" x="170.657178" y="273.691258" style="fill: #3cb371; stroke: #3cb371"/>
     <use xlink:href="#m47a89a5c73" x="329.847322" y="88.974442" style="fill: #3cb371; stroke: #3cb371"/>
    </g>
   </g>
   <g id="matplotlib.axis_1">
    <g id="xtick_1">
     <g id="line2d_1">
      <defs>
       <path id="md63031b948" d="M 0 0 
L 0 3.5 
" style="stroke: #000000; stroke-width: 0.8"/>
      </defs>
      <g>
       <use xlink:href="#md63031b948" x="111.318533" y="303.64" style="stroke: #000000; stroke-width: 0.8"/>
      </g>
     </g>
     <g id="text_1">
      <!-- −1000 -->
      <g transform="translate(94.403689 318.238437) scale(0.1 -0.1)">
       <defs>
        <path id="DejaVuSans-2212" d="M 678 2272 
L 4684 2272 
L 4684 1741 
L 678 1741 
L 678 2272 
z
" transform="scale(0.015625)"/>
        <path id="DejaVuSans-31" d="M 794 531 
L 1825 531 
L 1825 4091 
L 703 3866 
L 703 4441 
L 1819 4666 
L 2450 4666 
L 2450 531 
L 3481 531 
L 3481 0 
L 794 0 
L 794 531 
z
" transform="scale(0.015625)"/>
        <path id="DejaVuSans-30" d="M 2034 4250 
Q 1547 4250 1301 3770 
Q 1056 3291 1056 2328 
Q 1056 1369 1301 889 
Q 1547 409 2034 409 
Q 2525 409 2770 889 
Q 3016 1369 3016 2328 
Q 3016 3291 2770 3770 
Q 2525 4250 2034 4250 
z
M 2034 4750 
Q 2819 4750 3233 4129 
Q 3647 3509 3647 2328 
Q 3647 1150 3233 529 
Q 2819 -91 2034 -91 
Q 1250 -91 836 529 
Q 422 1150 422 2328 
Q 422 3509 836 4129 
Q 1250 4750 2034 4750 
z
" transform="scale(0.015625)"/>
       </defs>
       <use xlink:href="#DejaVuSans-2212"/>
       <use xlink:href="#DejaVuSans-31" x="83.789062"/>
       <use xlink:href="#DejaVuSans-30" x="147.412109"/>
       <use xlink:href="#DejaVuSans-30" x="211.035156"/>
       <use xlink:href="#DejaVuSans-30" x="274.658203"/>
      </g>
     </g>
    </g>
    <g id="xtick_2">
     <g id="line2d_2">
      <g>
       <use xlink:href="#md63031b948" x="188.441804" y="303.64" style="stroke: #000000; stroke-width: 0.8"/>
      </g>
     </g>
     <g id="text_2">
      <!-- −900 -->
      <g transform="translate(174.70821 318.238437) scale(0.1 -0.1)">
       <defs>
        <path id="DejaVuSans-39" d="M 703 97 
L 703 672 
Q 941 559 1184 500 
Q 1428 441 1663 441 
Q 2288 441 2617 861 
Q 2947 1281 2994 2138 
Q 2813 1869 2534 1725 
Q 2256 1581 1919 1581 
Q 1219 1581 811 2004 
Q 403 2428 403 3163 
Q 403 3881 828 4315 
Q 1253 4750 1959 4750 
Q 2769 4750 3195 4129 
Q 3622 3509 3622 2328 
Q 3622 1225 3098 567 
Q 2575 -91 1691 -91 
Q 1453 -91 1209 -44 
Q 966 3 703 97 
z
M 1959 2075 
Q 2384 2075 2632 2365 
Q 2881 2656 2881 3163 
Q 2881 3666 2632 3958 
Q 2384 4250 1959 4250 
Q 1534 4250 1286 3958 
Q 1038 3666 1038 3163 
Q 1038 2656 1286 2365 
Q 1534 2075 1959 2075 
z
" transform="scale(0.015625)"/>
       </defs>
       <use xlink:href="#DejaVuSans-2212"/>
       <use xlink:href="#DejaVuSans-39" x="83.789062"/>
       <use xlink:href="#DejaVuSans-30" x="147.412109"/>
       <use xlink:href="#DejaVuSans-30" x="211.035156"/>
      </g>
     </g>
    </g>
    <g id="xtick_3">
     <g id="line2d_3">
      <g>
       <use xlink:href="#md63031b948" x="265.565075" y="303.64" style="stroke: #000000; stroke-width: 0.8"/>
      </g>
     </g>
     <g id="text_3">
      <!-- −800 -->
      <g transform="translate(251.831481 318.238437) scale(0.1 -0.1)">
       <defs>
        <path id="DejaVuSans-38" d="M 2034 2216 
Q 1584 2216 1326 1975 
Q 1069 1734 1069 1313 
Q 1069 891 1326 650 
Q 1584 409 2034 409 
Q 2484 409 2743 651 
Q 3003 894 3003 1313 
Q 3003 1734 2745 1975 
Q 2488 2216 2034 2216 
z
M 1403 2484 
Q 997 2584 770 2862 
Q 544 3141 544 3541 
Q 544 4100 942 4425 
Q 1341 4750 2034 4750 
Q 2731 4750 3128 4425 
Q 3525 4100 3525 3541 
Q 3525 3141 3298 2862 
Q 3072 2584 2669 2484 
Q 3125 2378 3379 2068 
Q 3634 1759 3634 1313 
Q 3634 634 3220 271 
Q 2806 -91 2034 -91 
Q 1263 -91 848 271 
Q 434 634 434 1313 
Q 434 1759 690 2068 
Q 947 2378 1403 2484 
z
M 1172 3481 
Q 1172 3119 1398 2916 
Q 1625 2713 2034 2713 
Q 2441 2713 2670 2916 
Q 2900 3119 2900 3481 
Q 2900 3844 2670 4047 
Q 2441 4250 2034 4250 
Q 1625 4250 1398 4047 
Q 1172 3844 1172 3481 
z
" transform="scale(0.015625)"/>
       </defs>
       <use xlink:href="#DejaVuSans-2212"/>
       <use xlink:href="#DejaVuSans-38" x="83.789062"/>
       <use xlink:href="#DejaVuSans-30" x="147.412109"/>
       <use xlink:href="#DejaVuSans-30" x="211.035156"/>
      </g>
     </g>
    </g>
    <g id="xtick_4">
     <g id="line2d_4">
      <g>
       <use xlink:href="#md63031b948" x="342.688346" y="303.64" style="stroke: #000000; stroke-width: 0.8"/>
      </g>
     </g>
     <g id="text_4">
      <!-- −700 -->
      <g transform="translate(328.954752 318.238437) scale(0.1 -0.1)">
       <defs>
        <path id="DejaVuSans-37" d="M 525 4666 
L 3525 4666 
L 3525 4397 
L 1831 0 
L 1172 0 
L 2766 4134 
L 525 4134 
L 525 4666 
z
" transform="scale(0.015625)"/>
       </defs>
       <use xlink:href="#DejaVuSans-2212"/>
       <use xlink:href="#DejaVuSans-37" x="83.789062"/>
       <use xlink:href="#DejaVuSans-30" x="147.412109"/>
       <use xlink:href="#DejaVuSans-30" x="211.035156"/>
      </g>
     </g>
    </g>
    <g id="text_5">
     <!-- SasaDiff -->
     <g transform="translate(203.919219 331.916562) scale(0.1 -0.1)">
      <defs>
       <path id="DejaVuSans-53" d="M 3425 4513 
L 3425 3897 
Q 3066 4069 2747 4153 
Q 2428 4238 2131 4238 
Q 1616 4238 1336 4038 
Q 1056 3838 1056 3469 
Q 1056 3159 1242 3001 
Q 1428 2844 1947 2747 
L 2328 2669 
Q 3034 2534 3370 2195 
Q 3706 1856 3706 1288 
Q 3706 609 3251 259 
Q 2797 -91 1919 -91 
Q 1588 -91 1214 -16 
Q 841 59 441 206 
L 441 856 
Q 825 641 1194 531 
Q 1563 422 1919 422 
Q 2459 422 2753 634 
Q 3047 847 3047 1241 
Q 3047 1584 2836 1778 
Q 2625 1972 2144 2069 
L 1759 2144 
Q 1053 2284 737 2584 
Q 422 2884 422 3419 
Q 422 4038 858 4394 
Q 1294 4750 2059 4750 
Q 2388 4750 2728 4690 
Q 3069 4631 3425 4513 
z
" transform="scale(0.015625)"/>
       <path id="DejaVuSans-61" d="M 2194 1759 
Q 1497 1759 1228 1600 
Q 959 1441 959 1056 
Q 959 750 1161 570 
Q 1363 391 1709 391 
Q 2188 391 2477 730 
Q 2766 1069 2766 1631 
L 2766 1759 
L 2194 1759 
z
M 3341 1997 
L 3341 0 
L 2766 0 
L 2766 531 
Q 2569 213 2275 61 
Q 1981 -91 1556 -91 
Q 1019 -91 701 211 
Q 384 513 384 1019 
Q 384 1609 779 1909 
Q 1175 2209 1959 2209 
L 2766 2209 
L 2766 2266 
Q 2766 2663 2505 2880 
Q 2244 3097 1772 3097 
Q 1472 3097 1187 3025 
Q 903 2953 641 2809 
L 641 3341 
Q 956 3463 1253 3523 
Q 1550 3584 1831 3584 
Q 2591 3584 2966 3190 
Q 3341 2797 3341 1997 
z
" transform="scale(0.015625)"/>
       <path id="DejaVuSans-73" d="M 2834 3397 
L 2834 2853 
Q 2591 2978 2328 3040 
Q 2066 3103 1784 3103 
Q 1356 3103 1142 2972 
Q 928 2841 928 2578 
Q 928 2378 1081 2264 
Q 1234 2150 1697 2047 
L 1894 2003 
Q 2506 1872 2764 1633 
Q 3022 1394 3022 966 
Q 3022 478 2636 193 
Q 2250 -91 1575 -91 
Q 1294 -91 989 -36 
Q 684 19 347 128 
L 347 722 
Q 666 556 975 473 
Q 1284 391 1588 391 
Q 1994 391 2212 530 
Q 2431 669 2431 922 
Q 2431 1156 2273 1281 
Q 2116 1406 1581 1522 
L 1381 1569 
Q 847 1681 609 1914 
Q 372 2147 372 2553 
Q 372 3047 722 3315 
Q 1072 3584 1716 3584 
Q 2034 3584 2315 3537 
Q 2597 3491 2834 3397 
z
" transform="scale(0.015625)"/>
       <path id="DejaVuSans-44" d="M 1259 4147 
L 1259 519 
L 2022 519 
Q 2988 519 3436 956 
Q 3884 1394 3884 2338 
Q 3884 3275 3436 3711 
Q 2988 4147 2022 4147 
L 1259 4147 
z
M 628 4666 
L 1925 4666 
Q 3281 4666 3915 4102 
Q 4550 3538 4550 2338 
Q 4550 1131 3912 565 
Q 3275 0 1925 0 
L 628 0 
L 628 4666 
z
" transform="scale(0.015625)"/>
       <path id="DejaVuSans-69" d="M 603 3500 
L 1178 3500 
L 1178 0 
L 603 0 
L 603 3500 
z
M 603 4863 
L 1178 4863 
L 1178 4134 
L 603 4134 
L 603 4863 
z
" transform="scale(0.015625)"/>
       <path id="DejaVuSans-66" d="M 2375 4863 
L 2375 4384 
L 1825 4384 
Q 1516 4384 1395 4259 
Q 1275 4134 1275 3809 
L 1275 3500 
L 2222 3500 
L 2222 3053 
L 1275 3053 
L 1275 0 
L 697 0 
L 697 3053 
L 147 3053 
L 147 3500 
L 697 3500 
L 697 3744 
Q 697 4328 969 4595 
Q 1241 4863 1831 4863 
L 2375 4863 
z
" transform="scale(0.015625)"/>
      </defs>
      <use xlink:href="#DejaVuSans-53"/>
      <use xlink:href="#DejaVuSans-61" x="63.476562"/>
      <use xlink:href="#DejaVuSans-73" x="124.755859"/>
      <use xlink:href="#DejaVuSans-61" x="176.855469"/>
      <use xlink:href="#DejaVuSans-44" x="238.134766"/>
      <use xlink:href="#DejaVuSans-69" x="315.136719"/>
      <use xlink:href="#DejaVuSans-66" x="342.919922"/>
      <use xlink:href="#DejaVuSans-66" x="378.125"/>
     </g>
    </g>
   </g>
   <g id="matplotlib.axis_2">
    <g id="ytick_1">
     <g id="line2d_5">
      <defs>
       <path id="md0ba96f543" d="M 0 0 
L -3.5 0 
" style="stroke: #000000; stroke-width: 0.8"/>
      </defs>
      <g>
       <use xlink:href="#md0ba96f543" x="47.91125" y="303.64" style="stroke: #000000; stroke-width: 0.8"/>
      </g>
     </g>
     <g id="text_6">
      <!-- 0.0 -->
      <g transform="translate(25.008125 307.439219) scale(0.1 -0.1)">
       <defs>
        <path id="DejaVuSans-2e" d="M 684 794 
L 1344 794 
L 1344 0 
L 684 0 
L 684 794 
z
" transform="scale(0.015625)"/>
       </defs>
       <use xlink:href="#DejaVuSans-30"/>
       <use xlink:href="#DejaVuSans-2e" x="63.623047"/>
       <use xlink:href="#DejaVuSans-30" x="95.410156"/>
      </g>
     </g>
    </g>
    <g id="ytick_2">
     <g id="line2d_6">
      <g>
       <use xlink:href="#md0ba96f543" x="47.91125" y="272.908649" style="stroke: #000000; stroke-width: 0.8"/>
      </g>
     </g>
     <g id="text_7">
      <!-- 0.2 -->
      <g transform="translate(25.008125 276.707868) scale(0.1 -0.1)">
       <defs>
        <path id="DejaVuSans-32" d="M 1228 531 
L 3431 531 
L 3431 0 
L 469 0 
L 469 531 
Q 828 903 1448 1529 
Q 2069 2156 2228 2338 
Q 2531 2678 2651 2914 
Q 2772 3150 2772 3378 
Q 2772 3750 2511 3984 
Q 2250 4219 1831 4219 
Q 1534 4219 1204 4116 
Q 875 4013 500 3803 
L 500 4441 
Q 881 4594 1212 4672 
Q 1544 4750 1819 4750 
Q 2544 4750 2975 4387 
Q 3406 4025 3406 3419 
Q 3406 3131 3298 2873 
Q 3191 2616 2906 2266 
Q 2828 2175 2409 1742 
Q 1991 1309 1228 531 
z
" transform="scale(0.015625)"/>
       </defs>
       <use xlink:href="#DejaVuSans-30"/>
       <use xlink:href="#DejaVuSans-2e" x="63.623047"/>
       <use xlink:href="#DejaVuSans-32" x="95.410156"/>
      </g>
     </g>
    </g>
    <g id="ytick_3">
     <g id="line2d_7">
      <g>
       <use xlink:href="#md0ba96f543" x="47.91125" y="242.177299" style="stroke: #000000; stroke-width: 0.8"/>
      </g>
     </g>
     <g id="text_8">
      <!-- 0.4 -->
      <g transform="translate(25.008125 245.976517) scale(0.1 -0.1)">
       <defs>
        <path id="DejaVuSans-34" d="M 2419 4116 
L 825 1625 
L 2419 1625 
L 2419 4116 
z
M 2253 4666 
L 3047 4666 
L 3047 1625 
L 3713 1625 
L 3713 1100 
L 3047 1100 
L 3047 0 
L 2419 0 
L 2419 1100 
L 313 1100 
L 313 1709 
L 2253 4666 
z
" transform="scale(0.015625)"/>
       </defs>
       <use xlink:href="#DejaVuSans-30"/>
       <use xlink:href="#DejaVuSans-2e" x="63.623047"/>
       <use xlink:href="#DejaVuSans-34" x="95.410156"/>
      </g>
     </g>
    </g>
    <g id="ytick_4">
     <g id="line2d_8">
      <g>
       <use xlink:href="#md0ba96f543" x="47.91125" y="211.445948" style="stroke: #000000; stroke-width: 0.8"/>
      </g>
     </g>
     <g id="text_9">
      <!-- 0.6 -->
      <g transform="translate(25.008125 215.245167) scale(0.1 -0.1)">
       <defs>
        <path id="DejaVuSans-36" d="M 2113 2584 
Q 1688 2584 1439 2293 
Q 1191 2003 1191 1497 
Q 1191 994 1439 701 
Q 1688 409 2113 409 
Q 2538 409 2786 701 
Q 3034 994 3034 1497 
Q 3034 2003 2786 2293 
Q 2538 2584 2113 2584 
z
M 3366 4563 
L 3366 3988 
Q 3128 4100 2886 4159 
Q 2644 4219 2406 4219 
Q 1781 4219 1451 3797 
Q 1122 3375 1075 2522 
Q 1259 2794 1537 2939 
Q 1816 3084 2150 3084 
Q 2853 3084 3261 2657 
Q 3669 2231 3669 1497 
Q 3669 778 3244 343 
Q 2819 -91 2113 -91 
Q 1303 -91 875 529 
Q 447 1150 447 2328 
Q 447 3434 972 4092 
Q 1497 4750 2381 4750 
Q 2619 4750 2861 4703 
Q 3103 4656 3366 4563 
z
" transform="scale(0.015625)"/>
       </defs>
       <use xlink:href="#DejaVuSans-30"/>
       <use xlink:href="#DejaVuSans-2e" x="63.623047"/>
       <use xlink:href="#DejaVuSans-36" x="95.410156"/>
      </g>
     </g>
    </g>
    <g id="ytick_5">
     <g id="line2d_9">
      <g>
       <use xlink:href="#md0ba96f543" x="47.91125" y="180.714597" style="stroke: #000000; stroke-width: 0.8"/>
      </g>
     </g>
     <g id="text_10">
      <!-- 0.8 -->
      <g transform="translate(25.008125 184.513816) scale(0.1 -0.1)">
       <use xlink:href="#DejaVuSans-30"/>
       <use xlink:href="#DejaVuSans-2e" x="63.623047"/>
       <use xlink:href="#DejaVuSans-38" x="95.410156"/>
      </g>
     </g>
    </g>
    <g id="ytick_6">
     <g id="line2d_10">
      <g>
       <use xlink:href="#md0ba96f543" x="47.91125" y="149.983246" style="stroke: #000000; stroke-width: 0.8"/>
      </g>
     </g>
     <g id="text_11">
      <!-- 1.0 -->
      <g transform="translate(25.008125 153.782465) scale(0.1 -0.1)">
       <use xlink:href="#DejaVuSans-31"/>
       <use xlink:href="#DejaVuSans-2e" x="63.623047"/>
       <use xlink:href="#DejaVuSans-30" x="95.410156"/>
      </g>
     </g>
    </g>
    <g id="ytick_7">
     <g id="line2d_11">
      <g>
       <use xlink:href="#md0ba96f543" x="47.91125" y="119.251896" style="stroke: #000000; stroke-width: 0.8"/>
      </g>
     </g>
     <g id="text_12">
      <!-- 1.2 -->
      <g transform="translate(25.008125 123.051114) scale(0.1 -0.1)">
       <use xlink:href="#DejaVuSans-31"/>
       <use xlink:href="#DejaVuSans-2e" x="63.623047"/>
       <use xlink:href="#DejaVuSans-32" x="95.410156"/>
      </g>
     </g>
    </g>
    <g id="ytick_8">
     <g id="line2d_12">
      <g>
       <use xlink:href="#md0ba96f543" x="47.91125" y="88.520545" style="stroke: #000000; stroke-width: 0.8"/>
      </g>
     </g>
     <g id="text_13">
      <!-- 1.4 -->
      <g transform="translate(25.008125 92.319764) scale(0.1 -0.1)">
       <use xlink:href="#DejaVuSans-31"/>
       <use xlink:href="#DejaVuSans-2e" x="63.623047"/>
       <use xlink:href="#DejaVuSans-34" x="95.410156"/>
      </g>
     </g>
    </g>
    <g id="ytick_9">
     <g id="line2d_13">
      <g>
       <use xlink:href="#md0ba96f543" x="47.91125" y="57.789194" style="stroke: #000000; stroke-width: 0.8"/>
      </g>
     </g>
     <g id="text_14">
      <!-- 1.6 -->
      <g transform="translate(25.008125 61.588413) scale(0.1 -0.1)">
       <use xlink:href="#DejaVuSans-31"/>
       <use xlink:href="#DejaVuSans-2e" x="63.623047"/>
       <use xlink:href="#DejaVuSans-36" x="95.410156"/>
      </g>
     </g>
    </g>
    <g id="text_15">
     <!-- PercentGpA_transformed -->
     <g transform="translate(18.650313 237.696138) rotate(-90) scale(0.1 -0.1)">
      <defs>
       <path id="DejaVuSans-50" d="M 1259 4147 
L 1259 2394 
L 2053 2394 
Q 2494 2394 2734 2622 
Q 2975 2850 2975 3272 
Q 2975 3691 2734 3919 
Q 2494 4147 2053 4147 
L 1259 4147 
z
M 628 4666 
L 2053 4666 
Q 2838 4666 3239 4311 
Q 3641 3956 3641 3272 
Q 3641 2581 3239 2228 
Q 2838 1875 2053 1875 
L 1259 1875 
L 1259 0 
L 628 0 
L 628 4666 
z
" transform="scale(0.015625)"/>
       <path id="DejaVuSans-65" d="M 3597 1894 
L 3597 1613 
L 953 1613 
Q 991 1019 1311 708 
Q 1631 397 2203 397 
Q 2534 397 2845 478 
Q 3156 559 3463 722 
L 3463 178 
Q 3153 47 2828 -22 
Q 2503 -91 2169 -91 
Q 1331 -91 842 396 
Q 353 884 353 1716 
Q 353 2575 817 3079 
Q 1281 3584 2069 3584 
Q 2775 3584 3186 3129 
Q 3597 2675 3597 1894 
z
M 3022 2063 
Q 3016 2534 2758 2815 
Q 2500 3097 2075 3097 
Q 1594 3097 1305 2825 
Q 1016 2553 972 2059 
L 3022 2063 
z
" transform="scale(0.015625)"/>
       <path id="DejaVuSans-72" d="M 2631 2963 
Q 2534 3019 2420 3045 
Q 2306 3072 2169 3072 
Q 1681 3072 1420 2755 
Q 1159 2438 1159 1844 
L 1159 0 
L 581 0 
L 581 3500 
L 1159 3500 
L 1159 2956 
Q 1341 3275 1631 3429 
Q 1922 3584 2338 3584 
Q 2397 3584 2469 3576 
Q 2541 3569 2628 3553 
L 2631 2963 
z
" transform="scale(0.015625)"/>
       <path id="DejaVuSans-63" d="M 3122 3366 
L 3122 2828 
Q 2878 2963 2633 3030 
Q 2388 3097 2138 3097 
Q 1578 3097 1268 2742 
Q 959 2388 959 1747 
Q 959 1106 1268 751 
Q 1578 397 2138 397 
Q 2388 397 2633 464 
Q 2878 531 3122 666 
L 3122 134 
Q 2881 22 2623 -34 
Q 2366 -91 2075 -91 
Q 1284 -91 818 406 
Q 353 903 353 1747 
Q 353 2603 823 3093 
Q 1294 3584 2113 3584 
Q 2378 3584 2631 3529 
Q 2884 3475 3122 3366 
z
" transform="scale(0.015625)"/>
       <path id="DejaVuSans-6e" d="M 3513 2113 
L 3513 0 
L 2938 0 
L 2938 2094 
Q 2938 2591 2744 2837 
Q 2550 3084 2163 3084 
Q 1697 3084 1428 2787 
Q 1159 2491 1159 1978 
L 1159 0 
L 581 0 
L 581 3500 
L 1159 3500 
L 1159 2956 
Q 1366 3272 1645 3428 
Q 1925 3584 2291 3584 
Q 2894 3584 3203 3211 
Q 3513 2838 3513 2113 
z
" transform="scale(0.015625)"/>
       <path id="DejaVuSans-74" d="M 1172 4494 
L 1172 3500 
L 2356 3500 
L 2356 3053 
L 1172 3053 
L 1172 1153 
Q 1172 725 1289 603 
Q 1406 481 1766 481 
L 2356 481 
L 2356 0 
L 1766 0 
Q 1100 0 847 248 
Q 594 497 594 1153 
L 594 3053 
L 172 3053 
L 172 3500 
L 594 3500 
L 594 4494 
L 1172 4494 
z
" transform="scale(0.015625)"/>
       <path id="DejaVuSans-47" d="M 3809 666 
L 3809 1919 
L 2778 1919 
L 2778 2438 
L 4434 2438 
L 4434 434 
Q 4069 175 3628 42 
Q 3188 -91 2688 -91 
Q 1594 -91 976 548 
Q 359 1188 359 2328 
Q 359 3472 976 4111 
Q 1594 4750 2688 4750 
Q 3144 4750 3555 4637 
Q 3966 4525 4313 4306 
L 4313 3634 
Q 3963 3931 3569 4081 
Q 3175 4231 2741 4231 
Q 1884 4231 1454 3753 
Q 1025 3275 1025 2328 
Q 1025 1384 1454 906 
Q 1884 428 2741 428 
Q 3075 428 3337 486 
Q 3600 544 3809 666 
z
" transform="scale(0.015625)"/>
       <path id="DejaVuSans-70" d="M 1159 525 
L 1159 -1331 
L 581 -1331 
L 581 3500 
L 1159 3500 
L 1159 2969 
Q 1341 3281 1617 3432 
Q 1894 3584 2278 3584 
Q 2916 3584 3314 3078 
Q 3713 2572 3713 1747 
Q 3713 922 3314 415 
Q 2916 -91 2278 -91 
Q 1894 -91 1617 61 
Q 1341 213 1159 525 
z
M 3116 1747 
Q 3116 2381 2855 2742 
Q 2594 3103 2138 3103 
Q 1681 3103 1420 2742 
Q 1159 2381 1159 1747 
Q 1159 1113 1420 752 
Q 1681 391 2138 391 
Q 2594 391 2855 752 
Q 3116 1113 3116 1747 
z
" transform="scale(0.015625)"/>
       <path id="DejaVuSans-41" d="M 2188 4044 
L 1331 1722 
L 3047 1722 
L 2188 4044 
z
M 1831 4666 
L 2547 4666 
L 4325 0 
L 3669 0 
L 3244 1197 
L 1141 1197 
L 716 0 
L 50 0 
L 1831 4666 
z
" transform="scale(0.015625)"/>
       <path id="DejaVuSans-5f" d="M 3263 -1063 
L 3263 -1509 
L -63 -1509 
L -63 -1063 
L 3263 -1063 
z
" transform="scale(0.015625)"/>
       <path id="DejaVuSans-6f" d="M 1959 3097 
Q 1497 3097 1228 2736 
Q 959 2375 959 1747 
Q 959 1119 1226 758 
Q 1494 397 1959 397 
Q 2419 397 2687 759 
Q 2956 1122 2956 1747 
Q 2956 2369 2687 2733 
Q 2419 3097 1959 3097 
z
M 1959 3584 
Q 2709 3584 3137 3096 
Q 3566 2609 3566 1747 
Q 3566 888 3137 398 
Q 2709 -91 1959 -91 
Q 1206 -91 779 398 
Q 353 888 353 1747 
Q 353 2609 779 3096 
Q 1206 3584 1959 3584 
z
" transform="scale(0.015625)"/>
       <path id="DejaVuSans-6d" d="M 3328 2828 
Q 3544 3216 3844 3400 
Q 4144 3584 4550 3584 
Q 5097 3584 5394 3201 
Q 5691 2819 5691 2113 
L 5691 0 
L 5113 0 
L 5113 2094 
Q 5113 2597 4934 2840 
Q 4756 3084 4391 3084 
Q 3944 3084 3684 2787 
Q 3425 2491 3425 1978 
L 3425 0 
L 2847 0 
L 2847 2094 
Q 2847 2600 2669 2842 
Q 2491 3084 2119 3084 
Q 1678 3084 1418 2786 
Q 1159 2488 1159 1978 
L 1159 0 
L 581 0 
L 581 3500 
L 1159 3500 
L 1159 2956 
Q 1356 3278 1631 3431 
Q 1906 3584 2284 3584 
Q 2666 3584 2933 3390 
Q 3200 3197 3328 2828 
z
" transform="scale(0.015625)"/>
       <path id="DejaVuSans-64" d="M 2906 2969 
L 2906 4863 
L 3481 4863 
L 3481 0 
L 2906 0 
L 2906 525 
Q 2725 213 2448 61 
Q 2172 -91 1784 -91 
Q 1150 -91 751 415 
Q 353 922 353 1747 
Q 353 2572 751 3078 
Q 1150 3584 1784 3584 
Q 2172 3584 2448 3432 
Q 2725 3281 2906 2969 
z
M 947 1747 
Q 947 1113 1208 752 
Q 1469 391 1925 391 
Q 2381 391 2643 752 
Q 2906 1113 2906 1747 
Q 2906 2381 2643 2742 
Q 2381 3103 1925 3103 
Q 1469 3103 1208 2742 
Q 947 2381 947 1747 
z
" transform="scale(0.015625)"/>
      </defs>
      <use xlink:href="#DejaVuSans-50"/>
      <use xlink:href="#DejaVuSans-65" x="56.677734"/>
      <use xlink:href="#DejaVuSans-72" x="118.201172"/>
      <use xlink:href="#DejaVuSans-63" x="157.064453"/>
      <use xlink:href="#DejaVuSans-65" x="212.044922"/>
      <use xlink:href="#DejaVuSans-6e" x="273.568359"/>
      <use xlink:href="#DejaVuSans-74" x="336.947266"/>
      <use xlink:href="#DejaVuSans-47" x="376.15625"/>
      <use xlink:href="#DejaVuSans-70" x="453.646484"/>
      <use xlink:href="#DejaVuSans-41" x="517.123047"/>
      <use xlink:href="#DejaVuSans-5f" x="585.53125"/>
      <use xlink:href="#DejaVuSans-74" x="635.53125"/>
      <use xlink:href="#DejaVuSans-72" x="674.740234"/>
      <use xlink:href="#DejaVuSans-61" x="715.853516"/>
      <use xlink:href="#DejaVuSans-6e" x="777.132812"/>
      <use xlink:href="#DejaVuSans-73" x="840.511719"/>
      <use xlink:href="#DejaVuSans-66" x="892.611328"/>
      <use xlink:href="#DejaVuSans-6f" x="927.816406"/>
      <use xlink:href="#DejaVuSans-72" x="988.998047"/>
      <use xlink:href="#DejaVuSans-6d" x="1028.361328"/>
      <use xlink:href="#DejaVuSans-65" x="1125.773438"/>
      <use xlink:href="#DejaVuSans-64" x="1187.296875"/>
     </g>
    </g>
   </g>
   <g id="LineCollection_1">
    <path d="M 166.09148 147.89464 
L 166.09148 100.911117 
" clip-path="url(#pe2ed1bc18f)" style="fill: none; stroke: #d3d3d3; stroke-width: 3"/>
    <path d="M 156.867537 205.082306 
L 156.867537 135.506202 
" clip-path="url(#pe2ed1bc18f)" style="fill: none; stroke: #d3d3d3; stroke-width: 3"/>
    <path d="M 264.215418 186.730909 
L 264.215418 125.781926 
" clip-path="url(#pe2ed1bc18f)" style="fill: none; stroke: #d3d3d3; stroke-width: 3"/>
    <path d="M 231.792795 213.982758 
L 231.792795 106.949698 
" clip-path="url(#pe2ed1bc18f)" style="fill: none; stroke: #d3d3d3; stroke-width: 3"/>
    <path d="M 153.150195 168.726947 
L 153.150195 136.78256 
" clip-path="url(#pe2ed1bc18f)" style="fill: none; stroke: #d3d3d3; stroke-width: 3"/>
    <path d="M 212.350018 232.196783 
L 212.350018 214.540125 
" clip-path="url(#pe2ed1bc18f)" style="fill: none; stroke: #d3d3d3; stroke-width: 3"/>
    <path d="M 218.805236 180.67836 
L 218.805236 147.90766 
" clip-path="url(#pe2ed1bc18f)" style="fill: none; stroke: #d3d3d3; stroke-width: 3"/>
    <path d="M 299.283369 201.770445 
L 299.283369 173.935977 
" clip-path="url(#pe2ed1bc18f)" style="fill: none; stroke: #d3d3d3; stroke-width: 3"/>
    <path d="M 323.631186 185.11902 
L 323.631186 160.154736 
" clip-path="url(#pe2ed1bc18f)" style="fill: none; stroke: #d3d3d3; stroke-width: 3"/>
    <path d="M 300.04689 274.983346 
L 300.04689 259.908958 
" clip-path="url(#pe2ed1bc18f)" style="fill: none; stroke: #d3d3d3; stroke-width: 3"/>
    <path d="M 240.800793 148.960313 
L 240.800793 93.017482 
" clip-path="url(#pe2ed1bc18f)" style="fill: none; stroke: #d3d3d3; stroke-width: 3"/>
    <path d="M 228.152576 153.976247 
L 228.152576 118.26514 
" clip-path="url(#pe2ed1bc18f)" style="fill: none; stroke: #d3d3d3; stroke-width: 3"/>
    <path d="M 313.936791 231.911388 
L 313.936791 189.54497 
" clip-path="url(#pe2ed1bc18f)" style="fill: none; stroke: #d3d3d3; stroke-width: 3"/>
    <path d="M 257.829611 232.748313 
L 257.829611 154.930057 
" clip-path="url(#pe2ed1bc18f)" style="fill: none; stroke: #d3d3d3; stroke-width: 3"/>
    <path d="M 359.107891 195.008289 
L 359.107891 173.500505 
" clip-path="url(#pe2ed1bc18f)" style="fill: none; stroke: #d3d3d3; stroke-width: 3"/>
    <path d="M 274.688758 123.516671 
L 274.688758 93.056856 
" clip-path="url(#pe2ed1bc18f)" style="fill: none; stroke: #d3d3d3; stroke-width: 3"/>
    <path d="M 385.198693 227.728875 
L 385.198693 215.363261 
" clip-path="url(#pe2ed1bc18f)" style="fill: none; stroke: #d3d3d3; stroke-width: 3"/>
    <path d="M 328.528514 177.973332 
L 328.528514 124.90176 
" clip-path="url(#pe2ed1bc18f)" style="fill: none; stroke: #d3d3d3; stroke-width: 3"/>
    <path d="M 228.306823 288.334897 
L 228.306823 242.668904 
" clip-path="url(#pe2ed1bc18f)" style="fill: none; stroke: #d3d3d3; stroke-width: 3"/>
    <path d="M 281.514168 150.646569 
L 281.514168 99.604348 
" clip-path="url(#pe2ed1bc18f)" style="fill: none; stroke: #d3d3d3; stroke-width: 3"/>
    <path d="M 63.972557 127.443065 
L 63.972557 58.183294 
" clip-path="url(#pe2ed1bc18f)" style="fill: none; stroke: #d3d3d3; stroke-width: 3"/>
    <path d="M 272.47532 124.952674 
L 272.47532 94.763603 
" clip-path="url(#pe2ed1bc18f)" style="fill: none; stroke: #d3d3d3; stroke-width: 3"/>
    <path d="M 170.903972 147.270136 
L 170.903972 131.436021 
" clip-path="url(#pe2ed1bc18f)" style="fill: none; stroke: #d3d3d3; stroke-width: 3"/>
    <path d="M 283.272578 203.174253 
L 283.272578 186.228279 
" clip-path="url(#pe2ed1bc18f)" style="fill: none; stroke: #d3d3d3; stroke-width: 3"/>
    <path d="M 195.298063 255.633747 
L 195.298063 240.047672 
" clip-path="url(#pe2ed1bc18f)" style="fill: none; stroke: #d3d3d3; stroke-width: 3"/>
    <path d="M 266.050952 247.344774 
L 266.050952 236.013597 
" clip-path="url(#pe2ed1bc18f)" style="fill: none; stroke: #d3d3d3; stroke-width: 3"/>
    <path d="M 184.246298 261.812273 
L 184.246298 259.864323 
" clip-path="url(#pe2ed1bc18f)" style="fill: none; stroke: #d3d3d3; stroke-width: 3"/>
    <path d="M 362.632424 148.670328 
L 362.632424 144.057566 
" clip-path="url(#pe2ed1bc18f)" style="fill: none; stroke: #d3d3d3; stroke-width: 3"/>
    <path d="M 336.665019 193.385225 
L 336.665019 162.538752 
" clip-path="url(#pe2ed1bc18f)" style="fill: none; stroke: #d3d3d3; stroke-width: 3"/>
    <path d="M 285.717386 273.94003 
L 285.717386 245.037851 
" clip-path="url(#pe2ed1bc18f)" style="fill: none; stroke: #d3d3d3; stroke-width: 3"/>
    <path d="M 209.157115 203.412502 
L 209.157115 163.79044 
" clip-path="url(#pe2ed1bc18f)" style="fill: none; stroke: #d3d3d3; stroke-width: 3"/>
    <path d="M 260.690884 253.437953 
L 260.690884 243.250239 
" clip-path="url(#pe2ed1bc18f)" style="fill: none; stroke: #d3d3d3; stroke-width: 3"/>
    <path d="M 376.838531 177.376156 
L 376.838531 119.856745 
" clip-path="url(#pe2ed1bc18f)" style="fill: none; stroke: #d3d3d3; stroke-width: 3"/>
    <path d="M 265.379979 249.019258 
L 265.379979 237.344442 
" clip-path="url(#pe2ed1bc18f)" style="fill: none; stroke: #d3d3d3; stroke-width: 3"/>
    <path d="M 263.382487 278.178854 
L 263.382487 254.516327 
" clip-path="url(#pe2ed1bc18f)" style="fill: none; stroke: #d3d3d3; stroke-width: 3"/>
    <path d="M 91.050537 219.894512 
L 91.050537 186.556665 
" clip-path="url(#pe2ed1bc18f)" style="fill: none; stroke: #d3d3d3; stroke-width: 3"/>
    <path d="M 185.51112 177.385506 
L 185.51112 129.659615 
" clip-path="url(#pe2ed1bc18f)" style="fill: none; stroke: #d3d3d3; stroke-width: 3"/>
    <path d="M 384.172954 245.738845 
L 384.172954 225.08072 
" clip-path="url(#pe2ed1bc18f)" style="fill: none; stroke: #d3d3d3; stroke-width: 3"/>
    <path d="M 170.657178 279.086461 
L 170.657178 268.296056 
" clip-path="url(#pe2ed1bc18f)" style="fill: none; stroke: #d3d3d3; stroke-width: 3"/>
    <path d="M 329.847322 111.167348 
L 329.847322 66.781536 
" clip-path="url(#pe2ed1bc18f)" style="fill: none; stroke: #d3d3d3; stroke-width: 3"/>
   </g>
   <g id="line2d_14">
    <path d="M 166.09148 181.094767 
L 156.867537 180.652608 
L 264.215418 185.798435 
L 231.792795 184.244224 
L 153.150195 180.474413 
L 212.350018 183.312215 
L 218.805236 183.621653 
L 299.283369 187.479452 
L 323.631186 188.646588 
L 300.04689 187.516052 
L 240.800793 184.676031 
L 228.152576 184.069727 
L 313.936791 188.181878 
L 257.829611 185.492325 
L 359.107891 190.347199 
L 274.688758 186.300485 
L 385.198693 191.597888 
L 328.528514 188.881347 
L 228.306823 184.077121 
L 281.514168 186.627667 
L 63.972557 176.199595 
L 272.47532 186.194381 
L 170.903972 181.325458 
L 283.272578 186.711959 
L 195.298063 182.494813 
L 266.050952 185.886423 
L 184.246298 181.965036 
L 362.632424 190.516151 
L 336.665019 189.271378 
L 285.717386 186.829153 
L 209.157115 183.15916 
L 260.690884 185.629483 
L 376.838531 191.197135 
L 265.379979 185.854259 
L 263.382487 185.758507 
L 91.050537 177.497605 
L 185.51112 182.025666 
L 384.172954 191.548718 
L 170.657178 181.313628 
L 329.847322 188.944565 
" clip-path="url(#pe2ed1bc18f)" style="fill: none; stroke: #1f77b4; stroke-width: 1.5; stroke-linecap: square"/>
   </g>
   <g id="line2d_15">
    <g clip-path="url(#pe2ed1bc18f)">
     <use xlink:href="#m47a89a5c73" x="166.09148" y="124.402879" style="fill: #3cb371; stroke: #3cb371"/>
     <use xlink:href="#m47a89a5c73" x="156.867537" y="170.294254" style="fill: #3cb371; stroke: #3cb371"/>
     <use xlink:href="#m47a89a5c73" x="264.215418" y="156.256417" style="fill: #3cb371; stroke: #3cb371"/>
     <use xlink:href="#m47a89a5c73" x="231.792795" y="160.466228" style="fill: #3cb371; stroke: #3cb371"/>
     <use xlink:href="#m47a89a5c73" x="153.150195" y="152.754753" style="fill: #3cb371; stroke: #3cb371"/>
     <use xlink:href="#m47a89a5c73" x="212.350018" y="223.368454" style="fill: #3cb371; stroke: #3cb371"/>
     <use xlink:href="#m47a89a5c73" x="218.805236" y="164.29301" style="fill: #3cb371; stroke: #3cb371"/>
     <use xlink:href="#m47a89a5c73" x="299.283369" y="187.853211" style="fill: #3cb371; stroke: #3cb371"/>
     <use xlink:href="#m47a89a5c73" x="323.631186" y="172.636878" style="fill: #3cb371; stroke: #3cb371"/>
     <use xlink:href="#m47a89a5c73" x="300.04689" y="267.446152" style="fill: #3cb371; stroke: #3cb371"/>
     <use xlink:href="#m47a89a5c73" x="240.800793" y="120.988898" style="fill: #3cb371; stroke: #3cb371"/>
     <use xlink:href="#m47a89a5c73" x="228.152576" y="136.120693" style="fill: #3cb371; stroke: #3cb371"/>
     <use xlink:href="#m47a89a5c73" x="313.936791" y="210.728179" style="fill: #3cb371; stroke: #3cb371"/>
     <use xlink:href="#m47a89a5c73" x="257.829611" y="193.839185" style="fill: #3cb371; stroke: #3cb371"/>
     <use xlink:href="#m47a89a5c73" x="359.107891" y="184.254397" style="fill: #3cb371; stroke: #3cb371"/>
     <use xlink:href="#m47a89a5c73" x="274.688758" y="108.286764" style="fill: #3cb371; stroke: #3cb371"/>
     <use xlink:href="#m47a89a5c73" x="385.198693" y="221.546068" style="fill: #3cb371; stroke: #3cb371"/>
     <use xlink:href="#m47a89a5c73" x="328.528514" y="151.437546" style="fill: #3cb371; stroke: #3cb371"/>
     <use xlink:href="#m47a89a5c73" x="228.306823" y="265.501901" style="fill: #3cb371; stroke: #3cb371"/>
     <use xlink:href="#m47a89a5c73" x="281.514168" y="125.125458" style="fill: #3cb371; stroke: #3cb371"/>
     <use xlink:href="#m47a89a5c73" x="63.972557" y="92.81318" style="fill: #3cb371; stroke: #3cb371"/>
     <use xlink:href="#m47a89a5c73" x="272.47532" y="109.858138" style="fill: #3cb371; stroke: #3cb371"/>
     <use xlink:href="#m47a89a5c73" x="170.903972" y="139.353078" style="fill: #3cb371; stroke: #3cb371"/>
     <use xlink:href="#m47a89a5c73" x="283.272578" y="194.701266" style="fill: #3cb371; stroke: #3cb371"/>
     <use xlink:href="#m47a89a5c73" x="195.298063" y="247.840709" style="fill: #3cb371; stroke: #3cb371"/>
     <use xlink:href="#m47a89a5c73" x="266.050952" y="241.679186" style="fill: #3cb371; stroke: #3cb371"/>
     <use xlink:href="#m47a89a5c73" x="184.246298" y="260.838298" style="fill: #3cb371; stroke: #3cb371"/>
     <use xlink:href="#m47a89a5c73" x="362.632424" y="146.363947" style="fill: #3cb371; stroke: #3cb371"/>
     <use xlink:href="#m47a89a5c73" x="336.665019" y="177.961989" style="fill: #3cb371; stroke: #3cb371"/>
     <use xlink:href="#m47a89a5c73" x="285.717386" y="259.48894" style="fill: #3cb371; stroke: #3cb371"/>
     <use xlink:href="#m47a89a5c73" x="209.157115" y="183.601471" style="fill: #3cb371; stroke: #3cb371"/>
     <use xlink:href="#m47a89a5c73" x="260.690884" y="248.344096" style="fill: #3cb371; stroke: #3cb371"/>
     <use xlink:href="#m47a89a5c73" x="376.838531" y="148.61645" style="fill: #3cb371; stroke: #3cb371"/>
     <use xlink:href="#m47a89a5c73" x="265.379979" y="243.18185" style="fill: #3cb371; stroke: #3cb371"/>
     <use xlink:href="#m47a89a5c73" x="263.382487" y="266.347591" style="fill: #3cb371; stroke: #3cb371"/>
     <use xlink:href="#m47a89a5c73" x="91.050537" y="203.225589" style="fill: #3cb371; stroke: #3cb371"/>
     <use xlink:href="#m47a89a5c73" x="185.51112" y="153.52256" style="fill: #3cb371; stroke: #3cb371"/>
     <use xlink:href="#m47a89a5c73" x="384.172954" y="235.409783" style="fill: #3cb371; stroke: #3cb371"/>
     <use xlink:href="#m47a89a5c73" x="170.657178" y="273.691258" style="fill: #3cb371; stroke: #3cb371"/>
     <use xlink:href="#m47a89a5c73" x="329.847322" y="88.974442" style="fill: #3cb371; stroke: #3cb371"/>
    </g>
   </g>
   <g id="patch_3">
    <path d="M 47.91125 303.64 
L 47.91125 46.675714 
" style="fill: none; stroke: #000000; stroke-width: 0.8; stroke-linejoin: miter; stroke-linecap: square"/>
   </g>
   <g id="patch_4">
    <path d="M 401.26 303.64 
L 401.26 46.675714 
" style="fill: none; stroke: #000000; stroke-width: 0.8; stroke-linejoin: miter; stroke-linecap: square"/>
   </g>
   <g id="patch_5">
    <path d="M 47.91125 303.64 
L 401.26 303.64 
" style="fill: none; stroke: #000000; stroke-width: 0.8; stroke-linejoin: miter; stroke-linecap: square"/>
   </g>
   <g id="patch_6">
    <path d="M 47.91125 46.675714 
L 401.26 46.675714 
" style="fill: none; stroke: #000000; stroke-width: 0.8; stroke-linejoin: miter; stroke-linecap: square"/>
   </g>
   <g id="text_16">
    <!-- y = -0.00x + 0.57 -->
    <g transform="translate(38.521906 18.599375) scale(0.1 -0.1)">
     <defs>
      <path id="DejaVuSans-79" d="M 2059 -325 
Q 1816 -950 1584 -1140 
Q 1353 -1331 966 -1331 
L 506 -1331 
L 506 -850 
L 844 -850 
Q 1081 -850 1212 -737 
Q 1344 -625 1503 -206 
L 1606 56 
L 191 3500 
L 800 3500 
L 1894 763 
L 2988 3500 
L 3597 3500 
L 2059 -325 
z
" transform="scale(0.015625)"/>
      <path id="DejaVuSans-20" transform="scale(0.015625)"/>
      <path id="DejaVuSans-3d" d="M 678 2906 
L 4684 2906 
L 4684 2381 
L 678 2381 
L 678 2906 
z
M 678 1631 
L 4684 1631 
L 4684 1100 
L 678 1100 
L 678 1631 
z
" transform="scale(0.015625)"/>
      <path id="DejaVuSans-2d" d="M 313 2009 
L 1997 2009 
L 1997 1497 
L 313 1497 
L 313 2009 
z
" transform="scale(0.015625)"/>
      <path id="DejaVuSans-78" d="M 3513 3500 
L 2247 1797 
L 3578 0 
L 2900 0 
L 1881 1375 
L 863 0 
L 184 0 
L 1544 1831 
L 300 3500 
L 978 3500 
L 1906 2253 
L 2834 3500 
L 3513 3500 
z
" transform="scale(0.015625)"/>
      <path id="DejaVuSans-2b" d="M 2944 4013 
L 2944 2272 
L 4684 2272 
L 4684 1741 
L 2944 1741 
L 2944 0 
L 2419 0 
L 2419 1741 
L 678 1741 
L 678 2272 
L 2419 2272 
L 2419 4013 
L 2944 4013 
z
" transform="scale(0.015625)"/>
      <path id="DejaVuSans-35" d="M 691 4666 
L 3169 4666 
L 3169 4134 
L 1269 4134 
L 1269 2991 
Q 1406 3038 1543 3061 
Q 1681 3084 1819 3084 
Q 2600 3084 3056 2656 
Q 3513 2228 3513 1497 
Q 3513 744 3044 326 
Q 2575 -91 1722 -91 
Q 1428 -91 1123 -41 
Q 819 9 494 109 
L 494 744 
Q 775 591 1075 516 
Q 1375 441 1709 441 
Q 2250 441 2565 725 
Q 2881 1009 2881 1497 
Q 2881 1984 2565 2268 
Q 2250 2553 1709 2553 
Q 1456 2553 1204 2497 
Q 953 2441 691 2322 
L 691 4666 
z
" transform="scale(0.015625)"/>
     </defs>
     <use xlink:href="#DejaVuSans-79"/>
     <use xlink:href="#DejaVuSans-20" x="59.179688"/>
     <use xlink:href="#DejaVuSans-3d" x="90.966797"/>
     <use xlink:href="#DejaVuSans-20" x="174.755859"/>
     <use xlink:href="#DejaVuSans-2d" x="206.542969"/>
     <use xlink:href="#DejaVuSans-30" x="242.626953"/>
     <use xlink:href="#DejaVuSans-2e" x="306.25"/>
     <use xlink:href="#DejaVuSans-30" x="338.037109"/>
     <use xlink:href="#DejaVuSans-30" x="401.660156"/>
     <use xlink:href="#DejaVuSans-78" x="465.283203"/>
     <use xlink:href="#DejaVuSans-20" x="524.462891"/>
     <use xlink:href="#DejaVuSans-2b" x="556.25"/>
     <use xlink:href="#DejaVuSans-20" x="640.039062"/>
     <use xlink:href="#DejaVuSans-30" x="671.826172"/>
     <use xlink:href="#DejaVuSans-2e" x="735.449219"/>
     <use xlink:href="#DejaVuSans-35" x="767.236328"/>
     <use xlink:href="#DejaVuSans-37" x="830.859375"/>
    </g>
   </g>
   <g id="text_17">
    <!-- r^2 = 0.00 -->
    <g transform="translate(55.318781 26.308304) scale(0.1 -0.1)">
     <defs>
      <path id="DejaVuSans-5e" d="M 2988 4666 
L 4684 2925 
L 4056 2925 
L 2681 4159 
L 1306 2925 
L 678 2925 
L 2375 4666 
L 2988 4666 
z
" transform="scale(0.015625)"/>
     </defs>
     <use xlink:href="#DejaVuSans-72"/>
     <use xlink:href="#DejaVuSans-5e" x="41.113281"/>
     <use xlink:href="#DejaVuSans-32" x="124.902344"/>
     <use xlink:href="#DejaVuSans-20" x="188.525391"/>
     <use xlink:href="#DejaVuSans-3d" x="220.3125"/>
     <use xlink:href="#DejaVuSans-20" x="304.101562"/>
     <use xlink:href="#DejaVuSans-30" x="335.888672"/>
     <use xlink:href="#DejaVuSans-2e" x="399.511719"/>
     <use xlink:href="#DejaVuSans-30" x="431.298828"/>
     <use xlink:href="#DejaVuSans-30" x="494.921875"/>
    </g>
   </g>
   <g id="text_18">
    <!-- n = 40 -->
    <g transform="translate(66.346906 34.017232) scale(0.1 -0.1)">
     <use xlink:href="#DejaVuSans-6e"/>
     <use xlink:href="#DejaVuSans-20" x="63.378906"/>
     <use xlink:href="#DejaVuSans-3d" x="95.166016"/>
     <use xlink:href="#DejaVuSans-20" x="178.955078"/>
     <use xlink:href="#DejaVuSans-34" x="210.742188"/>
     <use xlink:href="#DejaVuSans-30" x="274.365234"/>
    </g>
   </g>
   <g id="text_19">
    <!-- SasaDiff vs PercentGpA_transformed -->
    <g transform="translate(114.249375 40.675714) scale(0.12 -0.12)">
     <defs>
      <path id="DejaVuSans-76" d="M 191 3500 
L 800 3500 
L 1894 563 
L 2988 3500 
L 3597 3500 
L 2284 0 
L 1503 0 
L 191 3500 
z
" transform="scale(0.015625)"/>
     </defs>
     <use xlink:href="#DejaVuSans-53"/>
     <use xlink:href="#DejaVuSans-61" x="63.476562"/>
     <use xlink:href="#DejaVuSans-73" x="124.755859"/>
     <use xlink:href="#DejaVuSans-61" x="176.855469"/>
     <use xlink:href="#DejaVuSans-44" x="238.134766"/>
     <use xlink:href="#DejaVuSans-69" x="315.136719"/>
     <use xlink:href="#DejaVuSans-66" x="342.919922"/>
     <use xlink:href="#DejaVuSans-66" x="378.125"/>
     <use xlink:href="#DejaVuSans-20" x="413.330078"/>
     <use xlink:href="#DejaVuSans-76" x="445.117188"/>
     <use xlink:href="#DejaVuSans-73" x="504.296875"/>
     <use xlink:href="#DejaVuSans-20" x="556.396484"/>
     <use xlink:href="#DejaVuSans-50" x="588.183594"/>
     <use xlink:href="#DejaVuSans-65" x="644.861328"/>
     <use xlink:href="#DejaVuSans-72" x="706.384766"/>
     <use xlink:href="#DejaVuSans-63" x="745.248047"/>
     <use xlink:href="#DejaVuSans-65" x="800.228516"/>
     <use xlink:href="#DejaVuSans-6e" x="861.751953"/>
     <use xlink:href="#DejaVuSans-74" x="925.130859"/>
     <use xlink:href="#DejaVuSans-47" x="964.339844"/>
     <use xlink:href="#DejaVuSans-70" x="1041.830078"/>
     <use xlink:href="#DejaVuSans-41" x="1105.306641"/>
     <use xlink:href="#DejaVuSans-5f" x="1173.714844"/>
     <use xlink:href="#DejaVuSans-74" x="1223.714844"/>
     <use xlink:href="#DejaVuSans-72" x="1262.923828"/>
     <use xlink:href="#DejaVuSans-61" x="1304.037109"/>
     <use xlink:href="#DejaVuSans-6e" x="1365.316406"/>
     <use xlink:href="#DejaVuSans-73" x="1428.695312"/>
     <use xlink:href="#DejaVuSans-66" x="1480.794922"/>
     <use xlink:href="#DejaVuSans-6f" x="1516"/>
     <use xlink:href="#DejaVuSans-72" x="1577.181641"/>
     <use xlink:href="#DejaVuSans-6d" x="1616.544922"/>
     <use xlink:href="#DejaVuSans-65" x="1713.957031"/>
     <use xlink:href="#DejaVuSans-64" x="1775.480469"/>
    </g>
   </g>
   <g id="legend_1">
    <g id="patch_7">
     <path d="M 408.26 69.353839 
L 448.008438 69.353839 
Q 450.008438 69.353839 450.008438 67.353839 
L 450.008438 53.675714 
Q 450.008438 51.675714 448.008438 51.675714 
L 408.26 51.675714 
Q 406.26 51.675714 406.26 53.675714 
L 406.26 67.353839 
Q 406.26 69.353839 408.26 69.353839 
z
" style="fill: #ffffff; opacity: 0.8; stroke: #cccccc; stroke-linejoin: miter"/>
    </g>
    <g id="PathCollection_2">
     <g>
      <use xlink:href="#m47a89a5c73" x="420.26" y="60.649152" style="fill: #3cb371; stroke: #3cb371"/>
     </g>
    </g>
    <g id="text_20">
     <!-- G -->
     <g transform="translate(438.26 63.274152) scale(0.1 -0.1)">
      <use xlink:href="#DejaVuSans-47"/>
     </g>
    </g>
   </g>
  </g>
 </g>
 <defs>
  <clipPath id="pe2ed1bc18f">
   <rect x="47.91125" y="46.675714" width="353.34875" height="256.964286"/>
  </clipPath>
 </defs>
</svg>
