<?xml version="1.0" encoding="utf-8" standalone="no"?>
<!DOCTYPE svg PUBLIC "-//W3C//DTD SVG 1.1//EN"
  "http://www.w3.org/Graphics/SVG/1.1/DTD/svg11.dtd">
<svg xmlns:xlink="http://www.w3.org/1999/xlink" width="460.8pt" height="345.6pt" viewBox="0 0 460.8 345.6" xmlns="http://www.w3.org/2000/svg" version="1.1">
 <metadata>
  <rdf:RDF xmlns:dc="http://purl.org/dc/elements/1.1/" xmlns:cc="http://creativecommons.org/ns#" xmlns:rdf="http://www.w3.org/1999/02/22-rdf-syntax-ns#">
   <cc:Work>
    <dc:type rdf:resource="http://purl.org/dc/dcmitype/StillImage"/>
    <dc:date>2024-02-20T13:07:45.843274</dc:date>
    <dc:format>image/svg+xml</dc:format>
    <dc:creator>
     <cc:Agent>
      <dc:title>Matplotlib v3.7.1, https://matplotlib.org/</dc:title>
     </cc:Agent>
    </dc:creator>
   </cc:Work>
  </rdf:RDF>
 </metadata>
 <defs>
  <style type="text/css">*{stroke-linejoin: round; stroke-linecap: butt}</style>
 </defs>
 <g id="figure_1">
  <g id="patch_1">
   <path d="M 0 345.6 
L 460.8 345.6 
L 460.8 0 
L 0 0 
z
" style="fill: #ffffff"/>
  </g>
  <g id="axes_1">
   <g id="patch_2">
    <path d="M 63.57125 303.64 
L 450 303.64 
L 450 10.8 
L 63.57125 10.8 
z
" style="fill: #ffffff"/>
   </g>
   <g id="matplotlib.axis_1">
    <g id="xtick_1">
     <g id="text_1">
      <!-- I -->
      <g style="fill: #262626" transform="translate(255.310625 318.238437) scale(0.1 -0.1)">
       <defs>
        <path id="DejaVuSans-49" d="M 628 4666 
L 1259 4666 
L 1259 0 
L 628 0 
L 628 4666 
z
" transform="scale(0.015625)"/>
       </defs>
       <use xlink:href="#DejaVuSans-49"/>
      </g>
     </g>
    </g>
    <g id="text_2">
     <!-- mut_AA -->
     <g style="fill: #262626" transform="translate(237.308281 331.638437) scale(0.1 -0.1)">
      <defs>
       <path id="DejaVuSans-6d" d="M 3328 2828 
Q 3544 3216 3844 3400 
Q 4144 3584 4550 3584 
Q 5097 3584 5394 3201 
Q 5691 2819 5691 2113 
L 5691 0 
L 5113 0 
L 5113 2094 
Q 5113 2597 4934 2840 
Q 4756 3084 4391 3084 
Q 3944 3084 3684 2787 
Q 3425 2491 3425 1978 
L 3425 0 
L 2847 0 
L 2847 2094 
Q 2847 2600 2669 2842 
Q 2491 3084 2119 3084 
Q 1678 3084 1418 2786 
Q 1159 2488 1159 1978 
L 1159 0 
L 581 0 
L 581 3500 
L 1159 3500 
L 1159 2956 
Q 1356 3278 1631 3431 
Q 1906 3584 2284 3584 
Q 2666 3584 2933 3390 
Q 3200 3197 3328 2828 
z
" transform="scale(0.015625)"/>
       <path id="DejaVuSans-75" d="M 544 1381 
L 544 3500 
L 1119 3500 
L 1119 1403 
Q 1119 906 1312 657 
Q 1506 409 1894 409 
Q 2359 409 2629 706 
Q 2900 1003 2900 1516 
L 2900 3500 
L 3475 3500 
L 3475 0 
L 2900 0 
L 2900 538 
Q 2691 219 2414 64 
Q 2138 -91 1772 -91 
Q 1169 -91 856 284 
Q 544 659 544 1381 
z
M 1991 3584 
L 1991 3584 
z
" transform="scale(0.015625)"/>
       <path id="DejaVuSans-74" d="M 1172 4494 
L 1172 3500 
L 2356 3500 
L 2356 3053 
L 1172 3053 
L 1172 1153 
Q 1172 725 1289 603 
Q 1406 481 1766 481 
L 2356 481 
L 2356 0 
L 1766 0 
Q 1100 0 847 248 
Q 594 497 594 1153 
L 594 3053 
L 172 3053 
L 172 3500 
L 594 3500 
L 594 4494 
L 1172 4494 
z
" transform="scale(0.015625)"/>
       <path id="DejaVuSans-5f" d="M 3263 -1063 
L 3263 -1509 
L -63 -1509 
L -63 -1063 
L 3263 -1063 
z
" transform="scale(0.015625)"/>
       <path id="DejaVuSans-41" d="M 2188 4044 
L 1331 1722 
L 3047 1722 
L 2188 4044 
z
M 1831 4666 
L 2547 4666 
L 4325 0 
L 3669 0 
L 3244 1197 
L 1141 1197 
L 716 0 
L 50 0 
L 1831 4666 
z
" transform="scale(0.015625)"/>
      </defs>
      <use xlink:href="#DejaVuSans-6d"/>
      <use xlink:href="#DejaVuSans-75" x="97.412109"/>
      <use xlink:href="#DejaVuSans-74" x="160.791016"/>
      <use xlink:href="#DejaVuSans-5f" x="200"/>
      <use xlink:href="#DejaVuSans-41" x="250"/>
      <use xlink:href="#DejaVuSans-41" x="321.158203"/>
     </g>
    </g>
   </g>
   <g id="matplotlib.axis_2">
    <g id="ytick_1">
     <g id="line2d_1">
      <path d="M 63.57125 303.64 
L 450 303.64 
" clip-path="url(#pec009a6c19)" style="fill: none; stroke: #cccccc; stroke-width: 0.8; stroke-linecap: round"/>
     </g>
     <g id="text_3">
      <!-- 0 -->
      <g style="fill: #262626" transform="translate(50.20875 307.439219) scale(0.1 -0.1)">
       <defs>
        <path id="DejaVuSans-30" d="M 2034 4250 
Q 1547 4250 1301 3770 
Q 1056 3291 1056 2328 
Q 1056 1369 1301 889 
Q 1547 409 2034 409 
Q 2525 409 2770 889 
Q 3016 1369 3016 2328 
Q 3016 3291 2770 3770 
Q 2525 4250 2034 4250 
z
M 2034 4750 
Q 2819 4750 3233 4129 
Q 3647 3509 3647 2328 
Q 3647 1150 3233 529 
Q 2819 -91 2034 -91 
Q 1250 -91 836 529 
Q 422 1150 422 2328 
Q 422 3509 836 4129 
Q 1250 4750 2034 4750 
z
" transform="scale(0.015625)"/>
       </defs>
       <use xlink:href="#DejaVuSans-30"/>
      </g>
     </g>
    </g>
    <g id="ytick_2">
     <g id="line2d_2">
      <path d="M 63.57125 263.004194 
L 450 263.004194 
" clip-path="url(#pec009a6c19)" style="fill: none; stroke: #cccccc; stroke-width: 0.8; stroke-linecap: round"/>
     </g>
     <g id="text_4">
      <!-- 2500 -->
      <g style="fill: #262626" transform="translate(31.12125 266.803413) scale(0.1 -0.1)">
       <defs>
        <path id="DejaVuSans-32" d="M 1228 531 
L 3431 531 
L 3431 0 
L 469 0 
L 469 531 
Q 828 903 1448 1529 
Q 2069 2156 2228 2338 
Q 2531 2678 2651 2914 
Q 2772 3150 2772 3378 
Q 2772 3750 2511 3984 
Q 2250 4219 1831 4219 
Q 1534 4219 1204 4116 
Q 875 4013 500 3803 
L 500 4441 
Q 881 4594 1212 4672 
Q 1544 4750 1819 4750 
Q 2544 4750 2975 4387 
Q 3406 4025 3406 3419 
Q 3406 3131 3298 2873 
Q 3191 2616 2906 2266 
Q 2828 2175 2409 1742 
Q 1991 1309 1228 531 
z
" transform="scale(0.015625)"/>
        <path id="DejaVuSans-35" d="M 691 4666 
L 3169 4666 
L 3169 4134 
L 1269 4134 
L 1269 2991 
Q 1406 3038 1543 3061 
Q 1681 3084 1819 3084 
Q 2600 3084 3056 2656 
Q 3513 2228 3513 1497 
Q 3513 744 3044 326 
Q 2575 -91 1722 -91 
Q 1428 -91 1123 -41 
Q 819 9 494 109 
L 494 744 
Q 775 591 1075 516 
Q 1375 441 1709 441 
Q 2250 441 2565 725 
Q 2881 1009 2881 1497 
Q 2881 1984 2565 2268 
Q 2250 2553 1709 2553 
Q 1456 2553 1204 2497 
Q 953 2441 691 2322 
L 691 4666 
z
" transform="scale(0.015625)"/>
       </defs>
       <use xlink:href="#DejaVuSans-32"/>
       <use xlink:href="#DejaVuSans-35" x="63.623047"/>
       <use xlink:href="#DejaVuSans-30" x="127.246094"/>
       <use xlink:href="#DejaVuSans-30" x="190.869141"/>
      </g>
     </g>
    </g>
    <g id="ytick_3">
     <g id="line2d_3">
      <path d="M 63.57125 222.368389 
L 450 222.368389 
" clip-path="url(#pec009a6c19)" style="fill: none; stroke: #cccccc; stroke-width: 0.8; stroke-linecap: round"/>
     </g>
     <g id="text_5">
      <!-- 5000 -->
      <g style="fill: #262626" transform="translate(31.12125 226.167608) scale(0.1 -0.1)">
       <use xlink:href="#DejaVuSans-35"/>
       <use xlink:href="#DejaVuSans-30" x="63.623047"/>
       <use xlink:href="#DejaVuSans-30" x="127.246094"/>
       <use xlink:href="#DejaVuSans-30" x="190.869141"/>
      </g>
     </g>
    </g>
    <g id="ytick_4">
     <g id="line2d_4">
      <path d="M 63.57125 181.732583 
L 450 181.732583 
" clip-path="url(#pec009a6c19)" style="fill: none; stroke: #cccccc; stroke-width: 0.8; stroke-linecap: round"/>
     </g>
     <g id="text_6">
      <!-- 7500 -->
      <g style="fill: #262626" transform="translate(31.12125 185.531802) scale(0.1 -0.1)">
       <defs>
        <path id="DejaVuSans-37" d="M 525 4666 
L 3525 4666 
L 3525 4397 
L 1831 0 
L 1172 0 
L 2766 4134 
L 525 4134 
L 525 4666 
z
" transform="scale(0.015625)"/>
       </defs>
       <use xlink:href="#DejaVuSans-37"/>
       <use xlink:href="#DejaVuSans-35" x="63.623047"/>
       <use xlink:href="#DejaVuSans-30" x="127.246094"/>
       <use xlink:href="#DejaVuSans-30" x="190.869141"/>
      </g>
     </g>
    </g>
    <g id="ytick_5">
     <g id="line2d_5">
      <path d="M 63.57125 141.096778 
L 450 141.096778 
" clip-path="url(#pec009a6c19)" style="fill: none; stroke: #cccccc; stroke-width: 0.8; stroke-linecap: round"/>
     </g>
     <g id="text_7">
      <!-- 10000 -->
      <g style="fill: #262626" transform="translate(24.75875 144.895997) scale(0.1 -0.1)">
       <defs>
        <path id="DejaVuSans-31" d="M 794 531 
L 1825 531 
L 1825 4091 
L 703 3866 
L 703 4441 
L 1819 4666 
L 2450 4666 
L 2450 531 
L 3481 531 
L 3481 0 
L 794 0 
L 794 531 
z
" transform="scale(0.015625)"/>
       </defs>
       <use xlink:href="#DejaVuSans-31"/>
       <use xlink:href="#DejaVuSans-30" x="63.623047"/>
       <use xlink:href="#DejaVuSans-30" x="127.246094"/>
       <use xlink:href="#DejaVuSans-30" x="190.869141"/>
       <use xlink:href="#DejaVuSans-30" x="254.492188"/>
      </g>
     </g>
    </g>
    <g id="ytick_6">
     <g id="line2d_6">
      <path d="M 63.57125 100.460972 
L 450 100.460972 
" clip-path="url(#pec009a6c19)" style="fill: none; stroke: #cccccc; stroke-width: 0.8; stroke-linecap: round"/>
     </g>
     <g id="text_8">
      <!-- 12500 -->
      <g style="fill: #262626" transform="translate(24.75875 104.260191) scale(0.1 -0.1)">
       <use xlink:href="#DejaVuSans-31"/>
       <use xlink:href="#DejaVuSans-32" x="63.623047"/>
       <use xlink:href="#DejaVuSans-35" x="127.246094"/>
       <use xlink:href="#DejaVuSans-30" x="190.869141"/>
       <use xlink:href="#DejaVuSans-30" x="254.492188"/>
      </g>
     </g>
    </g>
    <g id="ytick_7">
     <g id="line2d_7">
      <path d="M 63.57125 59.825167 
L 450 59.825167 
" clip-path="url(#pec009a6c19)" style="fill: none; stroke: #cccccc; stroke-width: 0.8; stroke-linecap: round"/>
     </g>
     <g id="text_9">
      <!-- 15000 -->
      <g style="fill: #262626" transform="translate(24.75875 63.624385) scale(0.1 -0.1)">
       <use xlink:href="#DejaVuSans-31"/>
       <use xlink:href="#DejaVuSans-35" x="63.623047"/>
       <use xlink:href="#DejaVuSans-30" x="127.246094"/>
       <use xlink:href="#DejaVuSans-30" x="190.869141"/>
       <use xlink:href="#DejaVuSans-30" x="254.492188"/>
      </g>
     </g>
    </g>
    <g id="ytick_8">
     <g id="line2d_8">
      <path d="M 63.57125 19.189361 
L 450 19.189361 
" clip-path="url(#pec009a6c19)" style="fill: none; stroke: #cccccc; stroke-width: 0.8; stroke-linecap: round"/>
     </g>
     <g id="text_10">
      <!-- 17500 -->
      <g style="fill: #262626" transform="translate(24.75875 22.98858) scale(0.1 -0.1)">
       <use xlink:href="#DejaVuSans-31"/>
       <use xlink:href="#DejaVuSans-37" x="63.623047"/>
       <use xlink:href="#DejaVuSans-35" x="127.246094"/>
       <use xlink:href="#DejaVuSans-30" x="190.869141"/>
       <use xlink:href="#DejaVuSans-30" x="254.492188"/>
      </g>
     </g>
    </g>
    <g id="text_11">
     <!-- toxgreen_fluor -->
     <g style="fill: #262626" transform="translate(18.400938 193.414531) rotate(-90) scale(0.1 -0.1)">
      <defs>
       <path id="DejaVuSans-6f" d="M 1959 3097 
Q 1497 3097 1228 2736 
Q 959 2375 959 1747 
Q 959 1119 1226 758 
Q 1494 397 1959 397 
Q 2419 397 2687 759 
Q 2956 1122 2956 1747 
Q 2956 2369 2687 2733 
Q 2419 3097 1959 3097 
z
M 1959 3584 
Q 2709 3584 3137 3096 
Q 3566 2609 3566 1747 
Q 3566 888 3137 398 
Q 2709 -91 1959 -91 
Q 1206 -91 779 398 
Q 353 888 353 1747 
Q 353 2609 779 3096 
Q 1206 3584 1959 3584 
z
" transform="scale(0.015625)"/>
       <path id="DejaVuSans-78" d="M 3513 3500 
L 2247 1797 
L 3578 0 
L 2900 0 
L 1881 1375 
L 863 0 
L 184 0 
L 1544 1831 
L 300 3500 
L 978 3500 
L 1906 2253 
L 2834 3500 
L 3513 3500 
z
" transform="scale(0.015625)"/>
       <path id="DejaVuSans-67" d="M 2906 1791 
Q 2906 2416 2648 2759 
Q 2391 3103 1925 3103 
Q 1463 3103 1205 2759 
Q 947 2416 947 1791 
Q 947 1169 1205 825 
Q 1463 481 1925 481 
Q 2391 481 2648 825 
Q 2906 1169 2906 1791 
z
M 3481 434 
Q 3481 -459 3084 -895 
Q 2688 -1331 1869 -1331 
Q 1566 -1331 1297 -1286 
Q 1028 -1241 775 -1147 
L 775 -588 
Q 1028 -725 1275 -790 
Q 1522 -856 1778 -856 
Q 2344 -856 2625 -561 
Q 2906 -266 2906 331 
L 2906 616 
Q 2728 306 2450 153 
Q 2172 0 1784 0 
Q 1141 0 747 490 
Q 353 981 353 1791 
Q 353 2603 747 3093 
Q 1141 3584 1784 3584 
Q 2172 3584 2450 3431 
Q 2728 3278 2906 2969 
L 2906 3500 
L 3481 3500 
L 3481 434 
z
" transform="scale(0.015625)"/>
       <path id="DejaVuSans-72" d="M 2631 2963 
Q 2534 3019 2420 3045 
Q 2306 3072 2169 3072 
Q 1681 3072 1420 2755 
Q 1159 2438 1159 1844 
L 1159 0 
L 581 0 
L 581 3500 
L 1159 3500 
L 1159 2956 
Q 1341 3275 1631 3429 
Q 1922 3584 2338 3584 
Q 2397 3584 2469 3576 
Q 2541 3569 2628 3553 
L 2631 2963 
z
" transform="scale(0.015625)"/>
       <path id="DejaVuSans-65" d="M 3597 1894 
L 3597 1613 
L 953 1613 
Q 991 1019 1311 708 
Q 1631 397 2203 397 
Q 2534 397 2845 478 
Q 3156 559 3463 722 
L 3463 178 
Q 3153 47 2828 -22 
Q 2503 -91 2169 -91 
Q 1331 -91 842 396 
Q 353 884 353 1716 
Q 353 2575 817 3079 
Q 1281 3584 2069 3584 
Q 2775 3584 3186 3129 
Q 3597 2675 3597 1894 
z
M 3022 2063 
Q 3016 2534 2758 2815 
Q 2500 3097 2075 3097 
Q 1594 3097 1305 2825 
Q 1016 2553 972 2059 
L 3022 2063 
z
" transform="scale(0.015625)"/>
       <path id="DejaVuSans-6e" d="M 3513 2113 
L 3513 0 
L 2938 0 
L 2938 2094 
Q 2938 2591 2744 2837 
Q 2550 3084 2163 3084 
Q 1697 3084 1428 2787 
Q 1159 2491 1159 1978 
L 1159 0 
L 581 0 
L 581 3500 
L 1159 3500 
L 1159 2956 
Q 1366 3272 1645 3428 
Q 1925 3584 2291 3584 
Q 2894 3584 3203 3211 
Q 3513 2838 3513 2113 
z
" transform="scale(0.015625)"/>
       <path id="DejaVuSans-66" d="M 2375 4863 
L 2375 4384 
L 1825 4384 
Q 1516 4384 1395 4259 
Q 1275 4134 1275 3809 
L 1275 3500 
L 2222 3500 
L 2222 3053 
L 1275 3053 
L 1275 0 
L 697 0 
L 697 3053 
L 147 3053 
L 147 3500 
L 697 3500 
L 697 3744 
Q 697 4328 969 4595 
Q 1241 4863 1831 4863 
L 2375 4863 
z
" transform="scale(0.015625)"/>
       <path id="DejaVuSans-6c" d="M 603 4863 
L 1178 4863 
L 1178 0 
L 603 0 
L 603 4863 
z
" transform="scale(0.015625)"/>
      </defs>
      <use xlink:href="#DejaVuSans-74"/>
      <use xlink:href="#DejaVuSans-6f" x="39.208984"/>
      <use xlink:href="#DejaVuSans-78" x="97.265625"/>
      <use xlink:href="#DejaVuSans-67" x="156.445312"/>
      <use xlink:href="#DejaVuSans-72" x="219.921875"/>
      <use xlink:href="#DejaVuSans-65" x="258.785156"/>
      <use xlink:href="#DejaVuSans-65" x="320.308594"/>
      <use xlink:href="#DejaVuSans-6e" x="381.832031"/>
      <use xlink:href="#DejaVuSans-5f" x="445.210938"/>
      <use xlink:href="#DejaVuSans-66" x="495.210938"/>
      <use xlink:href="#DejaVuSans-6c" x="530.416016"/>
      <use xlink:href="#DejaVuSans-75" x="558.199219"/>
      <use xlink:href="#DejaVuSans-6f" x="621.578125"/>
      <use xlink:href="#DejaVuSans-72" x="682.759766"/>
     </g>
    </g>
   </g>
   <g id="patch_3">
    <path d="M 103.75984 224.491991 
L 255.23991 224.491991 
L 255.23991 176.431882 
L 103.75984 176.431882 
L 103.75984 224.491991 
z
" clip-path="url(#pec009a6c19)" style="fill: #ecf2ec; stroke: #262626; stroke-width: 1.5; stroke-linejoin: miter"/>
   </g>
   <g id="patch_4">
    <path d="M 258.33134 210.606952 
L 409.81141 210.606952 
L 409.81141 142.127723 
L 258.33134 142.127723 
L 258.33134 210.606952 
z
" clip-path="url(#pec009a6c19)" style="fill: #107010; stroke: #262626; stroke-width: 1.5; stroke-linejoin: miter"/>
   </g>
   <g id="patch_5">
    <path d="M 256.785625 303.64 
L 256.785625 303.64 
L 256.785625 303.64 
L 256.785625 303.64 
z
" clip-path="url(#pec009a6c19)" style="fill: #ecf2ec; stroke: #262626; stroke-width: 0.75; stroke-linejoin: miter"/>
   </g>
   <g id="patch_6">
    <path d="M 256.785625 303.64 
L 256.785625 303.64 
L 256.785625 303.64 
L 256.785625 303.64 
z
" clip-path="url(#pec009a6c19)" style="fill: #107010; stroke: #262626; stroke-width: 0.75; stroke-linejoin: miter"/>
   </g>
   <g id="PathCollection_1"/>
   <g id="PathCollection_2"/>
   <g id="line2d_9">
    <path d="M 179.499875 224.491991 
L 179.499875 264.488151 
" clip-path="url(#pec009a6c19)" style="fill: none; stroke: #262626; stroke-width: 1.5; stroke-linecap: round"/>
   </g>
   <g id="line2d_10">
    <path d="M 179.499875 176.431882 
L 179.499875 111.287938 
" clip-path="url(#pec009a6c19)" style="fill: none; stroke: #262626; stroke-width: 1.5; stroke-linecap: round"/>
   </g>
   <g id="line2d_11">
    <path d="M 141.629857 264.488151 
L 217.369892 264.488151 
" clip-path="url(#pec009a6c19)" style="fill: none; stroke: #262626; stroke-width: 1.5; stroke-linecap: round"/>
   </g>
   <g id="line2d_12">
    <path d="M 141.629857 111.287938 
L 217.369892 111.287938 
" clip-path="url(#pec009a6c19)" style="fill: none; stroke: #262626; stroke-width: 1.5; stroke-linecap: round"/>
   </g>
   <g id="line2d_13">
    <defs>
     <path id="me73617f251" d="M -0 1.414214 
L 0.848528 0 
L 0 -1.414214 
L -0.848528 -0 
z
" style="stroke: #262626; stroke-linejoin: miter"/>
    </defs>
    <g clip-path="url(#pec009a6c19)">
     <use xlink:href="#me73617f251" x="179.499875" y="37.421818" style="fill: #262626; stroke: #262626; stroke-linejoin: miter"/>
     <use xlink:href="#me73617f251" x="179.499875" y="60.168397" style="fill: #262626; stroke: #262626; stroke-linejoin: miter"/>
     <use xlink:href="#me73617f251" x="179.499875" y="77.671837" style="fill: #262626; stroke: #262626; stroke-linejoin: miter"/>
    </g>
   </g>
   <g id="line2d_14">
    <path d="M 334.071375 210.606952 
L 334.071375 247.556289 
" clip-path="url(#pec009a6c19)" style="fill: none; stroke: #262626; stroke-width: 1.5; stroke-linecap: round"/>
   </g>
   <g id="line2d_15">
    <path d="M 334.071375 142.127723 
L 334.071375 74.274662 
" clip-path="url(#pec009a6c19)" style="fill: none; stroke: #262626; stroke-width: 1.5; stroke-linecap: round"/>
   </g>
   <g id="line2d_16">
    <path d="M 296.201357 247.556289 
L 371.941393 247.556289 
" clip-path="url(#pec009a6c19)" style="fill: none; stroke: #262626; stroke-width: 1.5; stroke-linecap: round"/>
   </g>
   <g id="line2d_17">
    <path d="M 296.201357 74.274662 
L 371.941393 74.274662 
" clip-path="url(#pec009a6c19)" style="fill: none; stroke: #262626; stroke-width: 1.5; stroke-linecap: round"/>
   </g>
   <g id="line2d_18"/>
   <g id="line2d_19">
    <path d="M 103.75984 201.094757 
L 255.23991 201.094757 
" clip-path="url(#pec009a6c19)" style="fill: none; stroke: #262626; stroke-width: 1.5; stroke-linecap: round"/>
   </g>
   <g id="line2d_20">
    <path d="M 258.33134 182.806168 
L 409.81141 182.806168 
" clip-path="url(#pec009a6c19)" style="fill: none; stroke: #262626; stroke-width: 1.5; stroke-linecap: round"/>
   </g>
   <g id="patch_7">
    <path d="M 63.57125 303.64 
L 63.57125 10.8 
" style="fill: none; stroke: #cccccc; stroke-width: 0.8; stroke-linejoin: miter; stroke-linecap: square"/>
   </g>
   <g id="patch_8">
    <path d="M 450 303.64 
L 450 10.8 
" style="fill: none; stroke: #cccccc; stroke-width: 0.8; stroke-linejoin: miter; stroke-linecap: square"/>
   </g>
   <g id="patch_9">
    <path d="M 63.57125 303.64 
L 450 303.64 
" style="fill: none; stroke: #cccccc; stroke-width: 0.8; stroke-linejoin: miter; stroke-linecap: square"/>
   </g>
   <g id="patch_10">
    <path d="M 63.57125 10.8 
L 450 10.8 
" style="fill: none; stroke: #cccccc; stroke-width: 0.8; stroke-linejoin: miter; stroke-linecap: square"/>
   </g>
   <g id="PathCollection_3">
    <defs>
     <path id="C0_0_2981ec4fc4" d="M 0 1 
C 0.265203 1 0.51958 0.894634 0.707107 0.707107 
C 0.894634 0.51958 1 0.265203 1 -0 
C 1 -0.265203 0.894634 -0.51958 0.707107 -0.707107 
C 0.51958 -0.894634 0.265203 -1 0 -1 
C -0.265203 -1 -0.51958 -0.894634 -0.707107 -0.707107 
C -0.894634 -0.51958 -1 -0.265203 -1 0 
C -1 0.265203 -0.894634 0.51958 -0.707107 0.707107 
C -0.51958 0.894634 -0.265203 1 0 1 
z
"/>
    </defs>
    <g clip-path="url(#pec009a6c19)">
     <use xlink:href="#C0_0_2981ec4fc4" x="177.297422" y="155.224962" style="fill: #262626"/>
    </g>
    <g clip-path="url(#pec009a6c19)">
     <use xlink:href="#C0_0_2981ec4fc4" x="169.6218" y="228.963925" style="fill: #262626"/>
    </g>
    <g clip-path="url(#pec009a6c19)">
     <use xlink:href="#C0_0_2981ec4fc4" x="175.1048" y="201.094757" style="fill: #262626"/>
    </g>
    <g clip-path="url(#pec009a6c19)">
     <use xlink:href="#C0_0_2981ec4fc4" x="187.549889" y="188.824649" style="fill: #262626"/>
    </g>
    <g clip-path="url(#pec009a6c19)">
     <use xlink:href="#C0_0_2981ec4fc4" x="189.611245" y="190.786836" style="fill: #262626"/>
    </g>
    <g clip-path="url(#pec009a6c19)">
     <use xlink:href="#C0_0_2981ec4fc4" x="173.218408" y="245.947757" style="fill: #262626"/>
    </g>
    <g clip-path="url(#pec009a6c19)">
     <use xlink:href="#C0_0_2981ec4fc4" x="162.88035" y="165.879081" style="fill: #262626"/>
    </g>
    <g clip-path="url(#pec009a6c19)">
     <use xlink:href="#C0_0_2981ec4fc4" x="161.556117" y="200.425423" style="fill: #262626"/>
    </g>
    <g clip-path="url(#pec009a6c19)">
     <use xlink:href="#C0_0_2981ec4fc4" x="162.314984" y="201.17835" style="fill: #262626"/>
    </g>
    <g clip-path="url(#pec009a6c19)">
     <use xlink:href="#C0_0_2981ec4fc4" x="166.178762" y="204.338247" style="fill: #262626"/>
    </g>
    <g clip-path="url(#pec009a6c19)">
     <use xlink:href="#C0_0_2981ec4fc4" x="172.426938" y="130.306958" style="fill: #262626"/>
    </g>
    <g clip-path="url(#pec009a6c19)">
     <use xlink:href="#C0_0_2981ec4fc4" x="184.216915" y="217.070418" style="fill: #262626"/>
    </g>
    <g clip-path="url(#pec009a6c19)">
     <use xlink:href="#C0_0_2981ec4fc4" x="185.383061" y="111.287938" style="fill: #262626"/>
    </g>
    <g clip-path="url(#pec009a6c19)">
     <use xlink:href="#C0_0_2981ec4fc4" x="174.528245" y="212.066021" style="fill: #262626"/>
    </g>
    <g clip-path="url(#pec009a6c19)">
     <use xlink:href="#C0_0_2981ec4fc4" x="173.413531" y="145.69102" style="fill: #262626"/>
    </g>
    <g clip-path="url(#pec009a6c19)">
     <use xlink:href="#C0_0_2981ec4fc4" x="164.28649" y="201.758348" style="fill: #262626"/>
    </g>
    <g clip-path="url(#pec009a6c19)">
     <use xlink:href="#C0_0_2981ec4fc4" x="178.673043" y="207.07599" style="fill: #262626"/>
    </g>
    <g clip-path="url(#pec009a6c19)">
     <use xlink:href="#C0_0_2981ec4fc4" x="185.237792" y="238.440049" style="fill: #262626"/>
    </g>
    <g clip-path="url(#pec009a6c19)">
     <use xlink:href="#C0_0_2981ec4fc4" x="189.48628" y="195.271225" style="fill: #262626"/>
    </g>
    <g clip-path="url(#pec009a6c19)">
     <use xlink:href="#C0_0_2981ec4fc4" x="172.335202" y="255.670268" style="fill: #262626"/>
    </g>
    <g clip-path="url(#pec009a6c19)">
     <use xlink:href="#C0_0_2981ec4fc4" x="191.32451" y="219.170111" style="fill: #262626"/>
    </g>
    <g clip-path="url(#pec009a6c19)">
     <use xlink:href="#C0_0_2981ec4fc4" x="174.231286" y="242.840814" style="fill: #262626"/>
    </g>
    <g clip-path="url(#pec009a6c19)">
     <use xlink:href="#C0_0_2981ec4fc4" x="174.563763" y="189.536382" style="fill: #262626"/>
    </g>
    <g clip-path="url(#pec009a6c19)">
     <use xlink:href="#C0_0_2981ec4fc4" x="185.667305" y="192.757827" style="fill: #262626"/>
    </g>
    <g clip-path="url(#pec009a6c19)">
     <use xlink:href="#C0_0_2981ec4fc4" x="164.493094" y="206.247847" style="fill: #262626"/>
    </g>
    <g clip-path="url(#pec009a6c19)">
     <use xlink:href="#C0_0_2981ec4fc4" x="179.551333" y="169.735079" style="fill: #262626"/>
    </g>
    <g clip-path="url(#pec009a6c19)">
     <use xlink:href="#C0_0_2981ec4fc4" x="179.269122" y="204.100904" style="fill: #262626"/>
    </g>
    <g clip-path="url(#pec009a6c19)">
     <use xlink:href="#C0_0_2981ec4fc4" x="182.22283" y="198.682783" style="fill: #262626"/>
    </g>
    <g clip-path="url(#pec009a6c19)">
     <use xlink:href="#C0_0_2981ec4fc4" x="163.9838" y="208.653924" style="fill: #262626"/>
    </g>
    <g clip-path="url(#pec009a6c19)">
     <use xlink:href="#C0_0_2981ec4fc4" x="180.854496" y="229.655889" style="fill: #262626"/>
    </g>
    <g clip-path="url(#pec009a6c19)">
     <use xlink:href="#C0_0_2981ec4fc4" x="182.837746" y="197.484673" style="fill: #262626"/>
    </g>
    <g clip-path="url(#pec009a6c19)">
     <use xlink:href="#C0_0_2981ec4fc4" x="191.866747" y="226.547569" style="fill: #262626"/>
    </g>
    <g clip-path="url(#pec009a6c19)">
     <use xlink:href="#C0_0_2981ec4fc4" x="169.419335" y="201.675766" style="fill: #262626"/>
    </g>
    <g clip-path="url(#pec009a6c19)">
     <use xlink:href="#C0_0_2981ec4fc4" x="186.377499" y="250.225178" style="fill: #262626"/>
    </g>
    <g clip-path="url(#pec009a6c19)">
     <use xlink:href="#C0_0_2981ec4fc4" x="188.73784" y="144.823987" style="fill: #262626"/>
    </g>
    <g clip-path="url(#pec009a6c19)">
     <use xlink:href="#C0_0_2981ec4fc4" x="168.469887" y="132.967581" style="fill: #262626"/>
    </g>
    <g clip-path="url(#pec009a6c19)">
     <use xlink:href="#C0_0_2981ec4fc4" x="197.896978" y="201.236917" style="fill: #262626"/>
    </g>
    <g clip-path="url(#pec009a6c19)">
     <use xlink:href="#C0_0_2981ec4fc4" x="172.415558" y="200.573597" style="fill: #262626"/>
    </g>
    <g clip-path="url(#pec009a6c19)">
     <use xlink:href="#C0_0_2981ec4fc4" x="190.331899" y="37.421818" style="fill: #262626"/>
    </g>
    <g clip-path="url(#pec009a6c19)">
     <use xlink:href="#C0_0_2981ec4fc4" x="189.095338" y="161.71965" style="fill: #262626"/>
    </g>
    <g clip-path="url(#pec009a6c19)">
     <use xlink:href="#C0_0_2981ec4fc4" x="181.94018" y="177.069398" style="fill: #262626"/>
    </g>
    <g clip-path="url(#pec009a6c19)">
     <use xlink:href="#C0_0_2981ec4fc4" x="169.063517" y="236.663732" style="fill: #262626"/>
    </g>
    <g clip-path="url(#pec009a6c19)">
     <use xlink:href="#C0_0_2981ec4fc4" x="182.506683" y="127.942052" style="fill: #262626"/>
    </g>
    <g clip-path="url(#pec009a6c19)">
     <use xlink:href="#C0_0_2981ec4fc4" x="177.182921" y="121.033213" style="fill: #262626"/>
    </g>
    <g clip-path="url(#pec009a6c19)">
     <use xlink:href="#C0_0_2981ec4fc4" x="190.545724" y="231.786661" style="fill: #262626"/>
    </g>
    <g clip-path="url(#pec009a6c19)">
     <use xlink:href="#C0_0_2981ec4fc4" x="163.495556" y="164.162792" style="fill: #262626"/>
    </g>
    <g clip-path="url(#pec009a6c19)">
     <use xlink:href="#C0_0_2981ec4fc4" x="164.508316" y="203.224943" style="fill: #262626"/>
    </g>
    <g clip-path="url(#pec009a6c19)">
     <use xlink:href="#C0_0_2981ec4fc4" x="179.972332" y="196.364458" style="fill: #262626"/>
    </g>
    <g clip-path="url(#pec009a6c19)">
     <use xlink:href="#C0_0_2981ec4fc4" x="174.559112" y="177.392363" style="fill: #262626"/>
    </g>
    <g clip-path="url(#pec009a6c19)">
     <use xlink:href="#C0_0_2981ec4fc4" x="164.353396" y="239.51594" style="fill: #262626"/>
    </g>
    <g clip-path="url(#pec009a6c19)">
     <use xlink:href="#C0_0_2981ec4fc4" x="192.402809" y="175.405379" style="fill: #262626"/>
    </g>
    <g clip-path="url(#pec009a6c19)">
     <use xlink:href="#C0_0_2981ec4fc4" x="164.662662" y="155.071239" style="fill: #262626"/>
    </g>
    <g clip-path="url(#pec009a6c19)">
     <use xlink:href="#C0_0_2981ec4fc4" x="192.649521" y="233.789287" style="fill: #262626"/>
    </g>
    <g clip-path="url(#pec009a6c19)">
     <use xlink:href="#C0_0_2981ec4fc4" x="164.248214" y="239.148746" style="fill: #262626"/>
    </g>
    <g clip-path="url(#pec009a6c19)">
     <use xlink:href="#C0_0_2981ec4fc4" x="160.627653" y="212.93643" style="fill: #262626"/>
    </g>
    <g clip-path="url(#pec009a6c19)">
     <use xlink:href="#C0_0_2981ec4fc4" x="170.647079" y="175.794367" style="fill: #262626"/>
    </g>
    <g clip-path="url(#pec009a6c19)">
     <use xlink:href="#C0_0_2981ec4fc4" x="185.852502" y="236.455394" style="fill: #262626"/>
    </g>
    <g clip-path="url(#pec009a6c19)">
     <use xlink:href="#C0_0_2981ec4fc4" x="167.372444" y="264.488151" style="fill: #262626"/>
    </g>
    <g clip-path="url(#pec009a6c19)">
     <use xlink:href="#C0_0_2981ec4fc4" x="168.870402" y="224.946097" style="fill: #262626"/>
    </g>
    <g clip-path="url(#pec009a6c19)">
     <use xlink:href="#C0_0_2981ec4fc4" x="176.692459" y="155.535287" style="fill: #262626"/>
    </g>
    <g clip-path="url(#pec009a6c19)">
     <use xlink:href="#C0_0_2981ec4fc4" x="179.763411" y="198.665505" style="fill: #262626"/>
    </g>
    <g clip-path="url(#pec009a6c19)">
     <use xlink:href="#C0_0_2981ec4fc4" x="175.762908" y="209.704342" style="fill: #262626"/>
    </g>
    <g clip-path="url(#pec009a6c19)">
     <use xlink:href="#C0_0_2981ec4fc4" x="172.010385" y="179.148731" style="fill: #262626"/>
    </g>
    <g clip-path="url(#pec009a6c19)">
     <use xlink:href="#C0_0_2981ec4fc4" x="178.222179" y="251.662054" style="fill: #262626"/>
    </g>
    <g clip-path="url(#pec009a6c19)">
     <use xlink:href="#C0_0_2981ec4fc4" x="191.072243" y="153.519003" style="fill: #262626"/>
    </g>
    <g clip-path="url(#pec009a6c19)">
     <use xlink:href="#C0_0_2981ec4fc4" x="184.182986" y="205.805445" style="fill: #262626"/>
    </g>
    <g clip-path="url(#pec009a6c19)">
     <use xlink:href="#C0_0_2981ec4fc4" x="181.801779" y="185.657182" style="fill: #262626"/>
    </g>
    <g clip-path="url(#pec009a6c19)">
     <use xlink:href="#C0_0_2981ec4fc4" x="162.734044" y="253.74757" style="fill: #262626"/>
    </g>
    <g clip-path="url(#pec009a6c19)">
     <use xlink:href="#C0_0_2981ec4fc4" x="193.206384" y="197.584459" style="fill: #262626"/>
    </g>
    <g clip-path="url(#pec009a6c19)">
     <use xlink:href="#C0_0_2981ec4fc4" x="194.062836" y="219.267718" style="fill: #262626"/>
    </g>
    <g clip-path="url(#pec009a6c19)">
     <use xlink:href="#C0_0_2981ec4fc4" x="179.961812" y="154.766832" style="fill: #262626"/>
    </g>
    <g clip-path="url(#pec009a6c19)">
     <use xlink:href="#C0_0_2981ec4fc4" x="180.745211" y="188.246099" style="fill: #262626"/>
    </g>
    <g clip-path="url(#pec009a6c19)">
     <use xlink:href="#C0_0_2981ec4fc4" x="176.959637" y="232.781038" style="fill: #262626"/>
    </g>
    <g clip-path="url(#pec009a6c19)">
     <use xlink:href="#C0_0_2981ec4fc4" x="171.371902" y="167.928332" style="fill: #262626"/>
    </g>
    <g clip-path="url(#pec009a6c19)">
     <use xlink:href="#C0_0_2981ec4fc4" x="167.024292" y="232.485391" style="fill: #262626"/>
    </g>
    <g clip-path="url(#pec009a6c19)">
     <use xlink:href="#C0_0_2981ec4fc4" x="182.055149" y="191.555692" style="fill: #262626"/>
    </g>
    <g clip-path="url(#pec009a6c19)">
     <use xlink:href="#C0_0_2981ec4fc4" x="195.964284" y="127.568109" style="fill: #262626"/>
    </g>
    <g clip-path="url(#pec009a6c19)">
     <use xlink:href="#C0_0_2981ec4fc4" x="174.900711" y="215.818227" style="fill: #262626"/>
    </g>
    <g clip-path="url(#pec009a6c19)">
     <use xlink:href="#C0_0_2981ec4fc4" x="174.842646" y="205.654955" style="fill: #262626"/>
    </g>
    <g clip-path="url(#pec009a6c19)">
     <use xlink:href="#C0_0_2981ec4fc4" x="163.157494" y="239.87127" style="fill: #262626"/>
    </g>
    <g clip-path="url(#pec009a6c19)">
     <use xlink:href="#C0_0_2981ec4fc4" x="177.28822" y="220.798286" style="fill: #262626"/>
    </g>
    <g clip-path="url(#pec009a6c19)">
     <use xlink:href="#C0_0_2981ec4fc4" x="188.029967" y="127.839151" style="fill: #262626"/>
    </g>
    <g clip-path="url(#pec009a6c19)">
     <use xlink:href="#C0_0_2981ec4fc4" x="196.318713" y="222.108267" style="fill: #262626"/>
    </g>
    <g clip-path="url(#pec009a6c19)">
     <use xlink:href="#C0_0_2981ec4fc4" x="184.342881" y="168.320116" style="fill: #262626"/>
    </g>
    <g clip-path="url(#pec009a6c19)">
     <use xlink:href="#C0_0_2981ec4fc4" x="193.060202" y="229.94936" style="fill: #262626"/>
    </g>
    <g clip-path="url(#pec009a6c19)">
     <use xlink:href="#C0_0_2981ec4fc4" x="176.338776" y="60.168397" style="fill: #262626"/>
    </g>
    <g clip-path="url(#pec009a6c19)">
     <use xlink:href="#C0_0_2981ec4fc4" x="195.48647" y="239.62942" style="fill: #262626"/>
    </g>
    <g clip-path="url(#pec009a6c19)">
     <use xlink:href="#C0_0_2981ec4fc4" x="174.095715" y="167.582617" style="fill: #262626"/>
    </g>
    <g clip-path="url(#pec009a6c19)">
     <use xlink:href="#C0_0_2981ec4fc4" x="188.940232" y="224.037886" style="fill: #262626"/>
    </g>
    <g clip-path="url(#pec009a6c19)">
     <use xlink:href="#C0_0_2981ec4fc4" x="169.476139" y="231.367878" style="fill: #262626"/>
    </g>
    <g clip-path="url(#pec009a6c19)">
     <use xlink:href="#C0_0_2981ec4fc4" x="183.700923" y="185.092421" style="fill: #262626"/>
    </g>
    <g clip-path="url(#pec009a6c19)">
     <use xlink:href="#C0_0_2981ec4fc4" x="189.244646" y="200.224241" style="fill: #262626"/>
    </g>
    <g clip-path="url(#pec009a6c19)">
     <use xlink:href="#C0_0_2981ec4fc4" x="190.944658" y="223.793504" style="fill: #262626"/>
    </g>
    <g clip-path="url(#pec009a6c19)">
     <use xlink:href="#C0_0_2981ec4fc4" x="169.355823" y="185.720308" style="fill: #262626"/>
    </g>
    <g clip-path="url(#pec009a6c19)">
     <use xlink:href="#C0_0_2981ec4fc4" x="173.787305" y="196.559241" style="fill: #262626"/>
    </g>
    <g clip-path="url(#pec009a6c19)">
     <use xlink:href="#C0_0_2981ec4fc4" x="173.253417" y="199.992934" style="fill: #262626"/>
    </g>
    <g clip-path="url(#pec009a6c19)">
     <use xlink:href="#C0_0_2981ec4fc4" x="189.491129" y="215.754196" style="fill: #262626"/>
    </g>
    <g clip-path="url(#pec009a6c19)">
     <use xlink:href="#C0_0_2981ec4fc4" x="195.015545" y="200.356363" style="fill: #262626"/>
    </g>
    <g clip-path="url(#pec009a6c19)">
     <use xlink:href="#C0_0_2981ec4fc4" x="177.185457" y="196.529267" style="fill: #262626"/>
    </g>
    <g clip-path="url(#pec009a6c19)">
     <use xlink:href="#C0_0_2981ec4fc4" x="180.585576" y="241.528554" style="fill: #262626"/>
    </g>
    <g clip-path="url(#pec009a6c19)">
     <use xlink:href="#C0_0_2981ec4fc4" x="177.717812" y="77.671837" style="fill: #262626"/>
    </g>
    <g clip-path="url(#pec009a6c19)">
     <use xlink:href="#C0_0_2981ec4fc4" x="176.146396" y="230.734026" style="fill: #262626"/>
    </g>
    <g clip-path="url(#pec009a6c19)">
     <use xlink:href="#C0_0_2981ec4fc4" x="173.04449" y="207.283445" style="fill: #262626"/>
    </g>
   </g>
   <g id="PathCollection_4">
    <defs>
     <path id="C1_0_3bb98e97ef" d="M 0 1 
C 0.265203 1 0.51958 0.894634 0.707107 0.707107 
C 0.894634 0.51958 1 0.265203 1 -0 
C 1 -0.265203 0.894634 -0.51958 0.707107 -0.707107 
C 0.51958 -0.894634 0.265203 -1 0 -1 
C -0.265203 -1 -0.51958 -0.894634 -0.707107 -0.707107 
C -0.894634 -0.51958 -1 -0.265203 -1 0 
C -1 0.265203 -0.894634 0.51958 -0.707107 0.707107 
C -0.51958 0.894634 -0.265203 1 0 1 
z
"/>
    </defs>
    <g clip-path="url(#pec009a6c19)">
     <use xlink:href="#C1_0_3bb98e97ef" x="314.766675" y="182.806168"/>
    </g>
    <g clip-path="url(#pec009a6c19)">
     <use xlink:href="#C1_0_3bb98e97ef" x="351.206275" y="199.321565"/>
    </g>
    <g clip-path="url(#pec009a6c19)">
     <use xlink:href="#C1_0_3bb98e97ef" x="340.968857" y="247.556289"/>
    </g>
    <g clip-path="url(#pec009a6c19)">
     <use xlink:href="#C1_0_3bb98e97ef" x="339.544829" y="193.230161"/>
    </g>
    <g clip-path="url(#pec009a6c19)">
     <use xlink:href="#C1_0_3bb98e97ef" x="329.792587" y="122.043955"/>
    </g>
    <g clip-path="url(#pec009a6c19)">
     <use xlink:href="#C1_0_3bb98e97ef" x="351.091845" y="203.174747"/>
    </g>
    <g clip-path="url(#pec009a6c19)">
     <use xlink:href="#C1_0_3bb98e97ef" x="350.941902" y="74.274662"/>
    </g>
    <g clip-path="url(#pec009a6c19)">
     <use xlink:href="#C1_0_3bb98e97ef" x="333.011687" y="210.606952"/>
    </g>
    <g clip-path="url(#pec009a6c19)">
     <use xlink:href="#C1_0_3bb98e97ef" x="319.938461" y="142.127723"/>
    </g>
    <g clip-path="url(#pec009a6c19)">
     <use xlink:href="#C1_0_3bb98e97ef" x="328.646304" y="207.995341"/>
    </g>
    <g clip-path="url(#pec009a6c19)">
     <use xlink:href="#C1_0_3bb98e97ef" x="330.869587" y="139.738371"/>
    </g>
    <g clip-path="url(#pec009a6c19)">
     <use xlink:href="#C1_0_3bb98e97ef" x="343.408561" y="180.904861"/>
    </g>
    <g clip-path="url(#pec009a6c19)">
     <use xlink:href="#C1_0_3bb98e97ef" x="340.006198" y="229.287724"/>
    </g>
    <g clip-path="url(#pec009a6c19)">
     <use xlink:href="#C1_0_3bb98e97ef" x="320.639244" y="110.732469"/>
    </g>
    <g clip-path="url(#pec009a6c19)">
     <use xlink:href="#C1_0_3bb98e97ef" x="345.220087" y="213.691526"/>
    </g>
    <g clip-path="url(#pec009a6c19)">
     <use xlink:href="#C1_0_3bb98e97ef" x="352.253" y="219.572468"/>
    </g>
    <g clip-path="url(#pec009a6c19)">
     <use xlink:href="#C1_0_3bb98e97ef" x="321.159809" y="106.795302"/>
    </g>
    <g clip-path="url(#pec009a6c19)">
     <use xlink:href="#C1_0_3bb98e97ef" x="337.261674" y="238.34721"/>
    </g>
    <g clip-path="url(#pec009a6c19)">
     <use xlink:href="#C1_0_3bb98e97ef" x="334.656622" y="199.237272"/>
    </g>
    <g clip-path="url(#pec009a6c19)">
     <use xlink:href="#C1_0_3bb98e97ef" x="345.503186" y="199.316498"/>
    </g>
    <g clip-path="url(#pec009a6c19)">
     <use xlink:href="#C1_0_3bb98e97ef" x="324.10525" y="208.794689"/>
    </g>
    <g clip-path="url(#pec009a6c19)">
     <use xlink:href="#C1_0_3bb98e97ef" x="340.914366" y="182.183168"/>
    </g>
    <g clip-path="url(#pec009a6c19)">
     <use xlink:href="#C1_0_3bb98e97ef" x="328.475684" y="225.777419"/>
    </g>
    <g clip-path="url(#pec009a6c19)">
     <use xlink:href="#C1_0_3bb98e97ef" x="350.222834" y="148.537275"/>
    </g>
    <g clip-path="url(#pec009a6c19)">
     <use xlink:href="#C1_0_3bb98e97ef" x="348.870038" y="115.284973"/>
    </g>
    <g clip-path="url(#pec009a6c19)">
     <use xlink:href="#C1_0_3bb98e97ef" x="345.207832" y="103.908351"/>
    </g>
    <g clip-path="url(#pec009a6c19)">
     <use xlink:href="#C1_0_3bb98e97ef" x="322.594014" y="152.233254"/>
    </g>
    <g clip-path="url(#pec009a6c19)">
     <use xlink:href="#C1_0_3bb98e97ef" x="333.452551" y="211.83523"/>
    </g>
    <g clip-path="url(#pec009a6c19)">
     <use xlink:href="#C1_0_3bb98e97ef" x="336.909193" y="180.940578"/>
    </g>
    <g clip-path="url(#pec009a6c19)">
     <use xlink:href="#C1_0_3bb98e97ef" x="320.848993" y="241.1408"/>
    </g>
    <g clip-path="url(#pec009a6c19)">
     <use xlink:href="#C1_0_3bb98e97ef" x="327.945873" y="175.802716"/>
    </g>
    <g clip-path="url(#pec009a6c19)">
     <use xlink:href="#C1_0_3bb98e97ef" x="315.681332" y="170.925908"/>
    </g>
    <g clip-path="url(#pec009a6c19)">
     <use xlink:href="#C1_0_3bb98e97ef" x="316.339356" y="101.636791"/>
    </g>
   </g>
   <g id="text_12">
    <!-- 103 -->
    <g style="fill: #262626" transform="translate(198.821312 303.61318) scale(0.1 -0.1)">
     <defs>
      <path id="DejaVuSans-33" d="M 2597 2516 
Q 3050 2419 3304 2112 
Q 3559 1806 3559 1356 
Q 3559 666 3084 287 
Q 2609 -91 1734 -91 
Q 1441 -91 1130 -33 
Q 819 25 488 141 
L 488 750 
Q 750 597 1062 519 
Q 1375 441 1716 441 
Q 2309 441 2620 675 
Q 2931 909 2931 1356 
Q 2931 1769 2642 2001 
Q 2353 2234 1838 2234 
L 1294 2234 
L 1294 2753 
L 1863 2753 
Q 2328 2753 2575 2939 
Q 2822 3125 2822 3475 
Q 2822 3834 2567 4026 
Q 2313 4219 1838 4219 
Q 1578 4219 1281 4162 
Q 984 4106 628 3988 
L 628 4550 
Q 988 4650 1302 4700 
Q 1616 4750 1894 4750 
Q 2613 4750 3031 4423 
Q 3450 4097 3450 3541 
Q 3450 3153 3228 2886 
Q 3006 2619 2597 2516 
z
" transform="scale(0.015625)"/>
     </defs>
     <use xlink:href="#DejaVuSans-31"/>
     <use xlink:href="#DejaVuSans-30" x="63.623047"/>
     <use xlink:href="#DejaVuSans-33" x="127.246094"/>
    </g>
   </g>
   <g id="text_13">
    <!-- p=0.03168217934353024 -->
    <g style="fill: #262626" transform="translate(145.848812 37.421005) scale(0.08 -0.08)">
     <defs>
      <path id="DejaVuSans-70" d="M 1159 525 
L 1159 -1331 
L 581 -1331 
L 581 3500 
L 1159 3500 
L 1159 2969 
Q 1341 3281 1617 3432 
Q 1894 3584 2278 3584 
Q 2916 3584 3314 3078 
Q 3713 2572 3713 1747 
Q 3713 922 3314 415 
Q 2916 -91 2278 -91 
Q 1894 -91 1617 61 
Q 1341 213 1159 525 
z
M 3116 1747 
Q 3116 2381 2855 2742 
Q 2594 3103 2138 3103 
Q 1681 3103 1420 2742 
Q 1159 2381 1159 1747 
Q 1159 1113 1420 752 
Q 1681 391 2138 391 
Q 2594 391 2855 752 
Q 3116 1113 3116 1747 
z
" transform="scale(0.015625)"/>
      <path id="DejaVuSans-3d" d="M 678 2906 
L 4684 2906 
L 4684 2381 
L 678 2381 
L 678 2906 
z
M 678 1631 
L 4684 1631 
L 4684 1100 
L 678 1100 
L 678 1631 
z
" transform="scale(0.015625)"/>
      <path id="DejaVuSans-2e" d="M 684 794 
L 1344 794 
L 1344 0 
L 684 0 
L 684 794 
z
" transform="scale(0.015625)"/>
      <path id="DejaVuSans-36" d="M 2113 2584 
Q 1688 2584 1439 2293 
Q 1191 2003 1191 1497 
Q 1191 994 1439 701 
Q 1688 409 2113 409 
Q 2538 409 2786 701 
Q 3034 994 3034 1497 
Q 3034 2003 2786 2293 
Q 2538 2584 2113 2584 
z
M 3366 4563 
L 3366 3988 
Q 3128 4100 2886 4159 
Q 2644 4219 2406 4219 
Q 1781 4219 1451 3797 
Q 1122 3375 1075 2522 
Q 1259 2794 1537 2939 
Q 1816 3084 2150 3084 
Q 2853 3084 3261 2657 
Q 3669 2231 3669 1497 
Q 3669 778 3244 343 
Q 2819 -91 2113 -91 
Q 1303 -91 875 529 
Q 447 1150 447 2328 
Q 447 3434 972 4092 
Q 1497 4750 2381 4750 
Q 2619 4750 2861 4703 
Q 3103 4656 3366 4563 
z
" transform="scale(0.015625)"/>
      <path id="DejaVuSans-38" d="M 2034 2216 
Q 1584 2216 1326 1975 
Q 1069 1734 1069 1313 
Q 1069 891 1326 650 
Q 1584 409 2034 409 
Q 2484 409 2743 651 
Q 3003 894 3003 1313 
Q 3003 1734 2745 1975 
Q 2488 2216 2034 2216 
z
M 1403 2484 
Q 997 2584 770 2862 
Q 544 3141 544 3541 
Q 544 4100 942 4425 
Q 1341 4750 2034 4750 
Q 2731 4750 3128 4425 
Q 3525 4100 3525 3541 
Q 3525 3141 3298 2862 
Q 3072 2584 2669 2484 
Q 3125 2378 3379 2068 
Q 3634 1759 3634 1313 
Q 3634 634 3220 271 
Q 2806 -91 2034 -91 
Q 1263 -91 848 271 
Q 434 634 434 1313 
Q 434 1759 690 2068 
Q 947 2378 1403 2484 
z
M 1172 3481 
Q 1172 3119 1398 2916 
Q 1625 2713 2034 2713 
Q 2441 2713 2670 2916 
Q 2900 3119 2900 3481 
Q 2900 3844 2670 4047 
Q 2441 4250 2034 4250 
Q 1625 4250 1398 4047 
Q 1172 3844 1172 3481 
z
" transform="scale(0.015625)"/>
      <path id="DejaVuSans-39" d="M 703 97 
L 703 672 
Q 941 559 1184 500 
Q 1428 441 1663 441 
Q 2288 441 2617 861 
Q 2947 1281 2994 2138 
Q 2813 1869 2534 1725 
Q 2256 1581 1919 1581 
Q 1219 1581 811 2004 
Q 403 2428 403 3163 
Q 403 3881 828 4315 
Q 1253 4750 1959 4750 
Q 2769 4750 3195 4129 
Q 3622 3509 3622 2328 
Q 3622 1225 3098 567 
Q 2575 -91 1691 -91 
Q 1453 -91 1209 -44 
Q 966 3 703 97 
z
M 1959 2075 
Q 2384 2075 2632 2365 
Q 2881 2656 2881 3163 
Q 2881 3666 2632 3958 
Q 2384 4250 1959 4250 
Q 1534 4250 1286 3958 
Q 1038 3666 1038 3163 
Q 1038 2656 1286 2365 
Q 1534 2075 1959 2075 
z
" transform="scale(0.015625)"/>
      <path id="DejaVuSans-34" d="M 2419 4116 
L 825 1625 
L 2419 1625 
L 2419 4116 
z
M 2253 4666 
L 3047 4666 
L 3047 1625 
L 3713 1625 
L 3713 1100 
L 3047 1100 
L 3047 0 
L 2419 0 
L 2419 1100 
L 313 1100 
L 313 1709 
L 2253 4666 
z
" transform="scale(0.015625)"/>
     </defs>
     <use xlink:href="#DejaVuSans-70"/>
     <use xlink:href="#DejaVuSans-3d" x="63.476562"/>
     <use xlink:href="#DejaVuSans-30" x="147.265625"/>
     <use xlink:href="#DejaVuSans-2e" x="210.888672"/>
     <use xlink:href="#DejaVuSans-30" x="242.675781"/>
     <use xlink:href="#DejaVuSans-33" x="306.298828"/>
     <use xlink:href="#DejaVuSans-31" x="369.921875"/>
     <use xlink:href="#DejaVuSans-36" x="433.544922"/>
     <use xlink:href="#DejaVuSans-38" x="497.167969"/>
     <use xlink:href="#DejaVuSans-32" x="560.791016"/>
     <use xlink:href="#DejaVuSans-31" x="624.414062"/>
     <use xlink:href="#DejaVuSans-37" x="688.037109"/>
     <use xlink:href="#DejaVuSans-39" x="751.660156"/>
     <use xlink:href="#DejaVuSans-33" x="815.283203"/>
     <use xlink:href="#DejaVuSans-34" x="878.90625"/>
     <use xlink:href="#DejaVuSans-33" x="942.529297"/>
     <use xlink:href="#DejaVuSans-35" x="1006.152344"/>
     <use xlink:href="#DejaVuSans-33" x="1069.775391"/>
     <use xlink:href="#DejaVuSans-30" x="1133.398438"/>
     <use xlink:href="#DejaVuSans-32" x="1197.021484"/>
     <use xlink:href="#DejaVuSans-34" x="1260.644531"/>
    </g>
   </g>
   <g id="text_14">
    <!-- 33 -->
    <g style="fill: #262626" transform="translate(314.749937 303.61318) scale(0.1 -0.1)">
     <use xlink:href="#DejaVuSans-33"/>
     <use xlink:href="#DejaVuSans-33" x="63.623047"/>
    </g>
   </g>
   <g id="legend_1">
    <g id="patch_11">
     <path d="M 377.728125 27.398438 
L 397.728125 27.398438 
L 397.728125 20.398438 
L 377.728125 20.398438 
z
" style="fill: #ecf2ec; stroke: #262626; stroke-width: 0.75; stroke-linejoin: miter"/>
    </g>
    <g id="text_15">
     <!-- Mutant -->
     <g style="fill: #262626" transform="translate(405.728125 27.398438) scale(0.1 -0.1)">
      <defs>
       <path id="DejaVuSans-4d" d="M 628 4666 
L 1569 4666 
L 2759 1491 
L 3956 4666 
L 4897 4666 
L 4897 0 
L 4281 0 
L 4281 4097 
L 3078 897 
L 2444 897 
L 1241 4097 
L 1241 0 
L 628 0 
L 628 4666 
z
" transform="scale(0.015625)"/>
       <path id="DejaVuSans-61" d="M 2194 1759 
Q 1497 1759 1228 1600 
Q 959 1441 959 1056 
Q 959 750 1161 570 
Q 1363 391 1709 391 
Q 2188 391 2477 730 
Q 2766 1069 2766 1631 
L 2766 1759 
L 2194 1759 
z
M 3341 1997 
L 3341 0 
L 2766 0 
L 2766 531 
Q 2569 213 2275 61 
Q 1981 -91 1556 -91 
Q 1019 -91 701 211 
Q 384 513 384 1019 
Q 384 1609 779 1909 
Q 1175 2209 1959 2209 
L 2766 2209 
L 2766 2266 
Q 2766 2663 2505 2880 
Q 2244 3097 1772 3097 
Q 1472 3097 1187 3025 
Q 903 2953 641 2809 
L 641 3341 
Q 956 3463 1253 3523 
Q 1550 3584 1831 3584 
Q 2591 3584 2966 3190 
Q 3341 2797 3341 1997 
z
" transform="scale(0.015625)"/>
      </defs>
      <use xlink:href="#DejaVuSans-4d"/>
      <use xlink:href="#DejaVuSans-75" x="86.279297"/>
      <use xlink:href="#DejaVuSans-74" x="149.658203"/>
      <use xlink:href="#DejaVuSans-61" x="188.867188"/>
      <use xlink:href="#DejaVuSans-6e" x="250.146484"/>
      <use xlink:href="#DejaVuSans-74" x="313.525391"/>
     </g>
    </g>
    <g id="patch_12">
     <path d="M 377.728125 42.076563 
L 397.728125 42.076563 
L 397.728125 35.076563 
L 377.728125 35.076563 
z
" style="fill: #107010; stroke: #262626; stroke-width: 0.75; stroke-linejoin: miter"/>
    </g>
    <g id="text_16">
     <!-- WT -->
     <g style="fill: #262626" transform="translate(405.728125 42.076563) scale(0.1 -0.1)">
      <defs>
       <path id="DejaVuSans-57" d="M 213 4666 
L 850 4666 
L 1831 722 
L 2809 4666 
L 3519 4666 
L 4500 722 
L 5478 4666 
L 6119 4666 
L 4947 0 
L 4153 0 
L 3169 4050 
L 2175 0 
L 1381 0 
L 213 4666 
z
" transform="scale(0.015625)"/>
       <path id="DejaVuSans-54" d="M -19 4666 
L 3928 4666 
L 3928 4134 
L 2272 4134 
L 2272 0 
L 1638 0 
L 1638 4134 
L -19 4134 
L -19 4666 
z
" transform="scale(0.015625)"/>
      </defs>
      <use xlink:href="#DejaVuSans-57"/>
      <use xlink:href="#DejaVuSans-54" x="98.876953"/>
     </g>
    </g>
   </g>
  </g>
 </g>
 <defs>
  <clipPath id="pec009a6c19">
   <rect x="63.57125" y="10.8" width="386.42875" height="292.84"/>
  </clipPath>
 </defs>
</svg>
