<?xml version="1.0" encoding="utf-8" standalone="no"?>
<!DOCTYPE svg PUBLIC "-//W3C//DTD SVG 1.1//EN"
  "http://www.w3.org/Graphics/SVG/1.1/DTD/svg11.dtd">
<svg xmlns:xlink="http://www.w3.org/1999/xlink" width="460.8pt" height="345.6pt" viewBox="0 0 460.8 345.6" xmlns="http://www.w3.org/2000/svg" version="1.1">
 <metadata>
  <rdf:RDF xmlns:dc="http://purl.org/dc/elements/1.1/" xmlns:cc="http://creativecommons.org/ns#" xmlns:rdf="http://www.w3.org/1999/02/22-rdf-syntax-ns#">
   <cc:Work>
    <dc:type rdf:resource="http://purl.org/dc/dcmitype/StillImage"/>
    <dc:date>2024-02-24T17:26:42.227645</dc:date>
    <dc:format>image/svg+xml</dc:format>
    <dc:creator>
     <cc:Agent>
      <dc:title>Matplotlib v3.5.3, https://matplotlib.org/</dc:title>
     </cc:Agent>
    </dc:creator>
   </cc:Work>
  </rdf:RDF>
 </metadata>
 <defs>
  <style type="text/css">*{stroke-linejoin: round; stroke-linecap: butt}</style>
 </defs>
 <g id="figure_1">
  <g id="patch_1">
   <path d="M 0 345.6 
L 460.8 345.6 
L 460.8 0 
L 0 0 
z
" style="fill: #ffffff"/>
  </g>
  <g id="axes_1">
   <g id="patch_2">
    <path d="M 47.82125 303.64 
L 450 303.64 
L 450 46.675714 
L 47.82125 46.675714 
z
" style="fill: #ffffff"/>
   </g>
   <g id="PathCollection_1">
    <defs>
     <path id="m69ea060c6f" d="M 0 3 
C 0.795609 3 1.55874 2.683901 2.12132 2.12132 
C 2.683901 1.55874 3 0.795609 3 0 
C 3 -0.795609 2.683901 -1.55874 2.12132 -2.12132 
C 1.55874 -2.683901 0.795609 -3 0 -3 
C -0.795609 -3 -1.55874 -2.683901 -2.12132 -2.12132 
C -2.683901 -1.55874 -3 -0.795609 -3 0 
C -3 0.795609 -2.683901 1.55874 -2.12132 2.12132 
C -1.55874 2.683901 -0.795609 3 0 3 
z
" style="stroke: #1f77b4"/>
    </defs>
    <g clip-path="url(#pcbf32f8709)">
     <use xlink:href="#m69ea060c6f" x="66.102102" y="158.662391" style="fill: #1f77b4; stroke: #1f77b4"/>
     <use xlink:href="#m69ea060c6f" x="238.419755" y="134.450524" style="fill: #1f77b4; stroke: #1f77b4"/>
     <use xlink:href="#m69ea060c6f" x="211.960769" y="173.957346" style="fill: #1f77b4; stroke: #1f77b4"/>
     <use xlink:href="#m69ea060c6f" x="67.036541" y="206.50821" style="fill: #1f77b4; stroke: #1f77b4"/>
     <use xlink:href="#m69ea060c6f" x="211.486362" y="189.415295" style="fill: #1f77b4; stroke: #1f77b4"/>
     <use xlink:href="#m69ea060c6f" x="198.799562" y="188.324291" style="fill: #1f77b4; stroke: #1f77b4"/>
     <use xlink:href="#m69ea060c6f" x="146.974163" y="198.571479" style="fill: #1f77b4; stroke: #1f77b4"/>
     <use xlink:href="#m69ea060c6f" x="271.829527" y="176.997341" style="fill: #1f77b4; stroke: #1f77b4"/>
     <use xlink:href="#m69ea060c6f" x="263.017053" y="198.04979" style="fill: #1f77b4; stroke: #1f77b4"/>
     <use xlink:href="#m69ea060c6f" x="335.644491" y="201.583736" style="fill: #1f77b4; stroke: #1f77b4"/>
     <use xlink:href="#m69ea060c6f" x="177.163716" y="196.506068" style="fill: #1f77b4; stroke: #1f77b4"/>
     <use xlink:href="#m69ea060c6f" x="257.324166" y="208.193582" style="fill: #1f77b4; stroke: #1f77b4"/>
     <use xlink:href="#m69ea060c6f" x="171.794288" y="195.612714" style="fill: #1f77b4; stroke: #1f77b4"/>
     <use xlink:href="#m69ea060c6f" x="176.459293" y="178.229703" style="fill: #1f77b4; stroke: #1f77b4"/>
     <use xlink:href="#m69ea060c6f" x="173.188758" y="131.701798" style="fill: #1f77b4; stroke: #1f77b4"/>
     <use xlink:href="#m69ea060c6f" x="196.348458" y="182.328212" style="fill: #1f77b4; stroke: #1f77b4"/>
     <use xlink:href="#m69ea060c6f" x="133.094157" y="184.493666" style="fill: #1f77b4; stroke: #1f77b4"/>
     <use xlink:href="#m69ea060c6f" x="244.529546" y="204.233816" style="fill: #1f77b4; stroke: #1f77b4"/>
     <use xlink:href="#m69ea060c6f" x="272.28237" y="189.731834" style="fill: #1f77b4; stroke: #1f77b4"/>
     <use xlink:href="#m69ea060c6f" x="212.801764" y="180.401596" style="fill: #1f77b4; stroke: #1f77b4"/>
     <use xlink:href="#m69ea060c6f" x="201.624441" y="216.236832" style="fill: #1f77b4; stroke: #1f77b4"/>
     <use xlink:href="#m69ea060c6f" x="281.892711" y="232.989234" style="fill: #1f77b4; stroke: #1f77b4"/>
     <use xlink:href="#m69ea060c6f" x="201.042214" y="191.925443" style="fill: #1f77b4; stroke: #1f77b4"/>
     <use xlink:href="#m69ea060c6f" x="165.64137" y="192.050415" style="fill: #1f77b4; stroke: #1f77b4"/>
     <use xlink:href="#m69ea060c6f" x="230.707044" y="250.815125" style="fill: #1f77b4; stroke: #1f77b4"/>
     <use xlink:href="#m69ea060c6f" x="224.561313" y="184.900539" style="fill: #1f77b4; stroke: #1f77b4"/>
     <use xlink:href="#m69ea060c6f" x="248.533256" y="208.177293" style="fill: #1f77b4; stroke: #1f77b4"/>
     <use xlink:href="#m69ea060c6f" x="202.077285" y="203.220758" style="fill: #1f77b4; stroke: #1f77b4"/>
     <use xlink:href="#m69ea060c6f" x="175.345155" y="159.20944" style="fill: #1f77b4; stroke: #1f77b4"/>
     <use xlink:href="#m69ea060c6f" x="175.524854" y="180.079738" style="fill: #1f77b4; stroke: #1f77b4"/>
     <use xlink:href="#m69ea060c6f" x="115.375765" y="179.066459" style="fill: #1f77b4; stroke: #1f77b4"/>
     <use xlink:href="#m69ea060c6f" x="249.072355" y="272.336592" style="fill: #1f77b4; stroke: #1f77b4"/>
     <use xlink:href="#m69ea060c6f" x="236.335239" y="274.79305" style="fill: #1f77b4; stroke: #1f77b4"/>
     <use xlink:href="#m69ea060c6f" x="243.738867" y="197.47732" style="fill: #1f77b4; stroke: #1f77b4"/>
     <use xlink:href="#m69ea060c6f" x="106.441095" y="276.579648" style="fill: #1f77b4; stroke: #1f77b4"/>
     <use xlink:href="#m69ea060c6f" x="331.813293" y="190.78251" style="fill: #1f77b4; stroke: #1f77b4"/>
     <use xlink:href="#m69ea060c6f" x="236.284923" y="199.839628" style="fill: #1f77b4; stroke: #1f77b4"/>
     <use xlink:href="#m69ea060c6f" x="137.169747" y="268.603584" style="fill: #1f77b4; stroke: #1f77b4"/>
     <use xlink:href="#m69ea060c6f" x="292.344047" y="199.83991" style="fill: #1f77b4; stroke: #1f77b4"/>
     <use xlink:href="#m69ea060c6f" x="133.51106" y="273.626636" style="fill: #1f77b4; stroke: #1f77b4"/>
     <use xlink:href="#m69ea060c6f" x="219.479405" y="191.273774" style="fill: #1f77b4; stroke: #1f77b4"/>
     <use xlink:href="#m69ea060c6f" x="285.989865" y="201.868565" style="fill: #1f77b4; stroke: #1f77b4"/>
     <use xlink:href="#m69ea060c6f" x="198.857066" y="274.788761" style="fill: #1f77b4; stroke: #1f77b4"/>
     <use xlink:href="#m69ea060c6f" x="199.94964" y="268.234497" style="fill: #1f77b4; stroke: #1f77b4"/>
     <use xlink:href="#m69ea060c6f" x="279.434419" y="174.783022" style="fill: #1f77b4; stroke: #1f77b4"/>
     <use xlink:href="#m69ea060c6f" x="252.292574" y="279.66718" style="fill: #1f77b4; stroke: #1f77b4"/>
     <use xlink:href="#m69ea060c6f" x="313.45517" y="275.76123" style="fill: #1f77b4; stroke: #1f77b4"/>
     <use xlink:href="#m69ea060c6f" x="235.034213" y="165.511282" style="fill: #1f77b4; stroke: #1f77b4"/>
     <use xlink:href="#m69ea060c6f" x="267.473606" y="275.90416" style="fill: #1f77b4; stroke: #1f77b4"/>
     <use xlink:href="#m69ea060c6f" x="315.288107" y="275.242355" style="fill: #1f77b4; stroke: #1f77b4"/>
     <use xlink:href="#m69ea060c6f" x="252.213506" y="260.690393" style="fill: #1f77b4; stroke: #1f77b4"/>
     <use xlink:href="#m69ea060c6f" x="175.136703" y="250.248547" style="fill: #1f77b4; stroke: #1f77b4"/>
     <use xlink:href="#m69ea060c6f" x="268.451172" y="212.578501" style="fill: #1f77b4; stroke: #1f77b4"/>
     <use xlink:href="#m69ea060c6f" x="331.561713" y="231.443107" style="fill: #1f77b4; stroke: #1f77b4"/>
     <use xlink:href="#m69ea060c6f" x="215.396628" y="265.855066" style="fill: #1f77b4; stroke: #1f77b4"/>
     <use xlink:href="#m69ea060c6f" x="213.290547" y="261.491591" style="fill: #1f77b4; stroke: #1f77b4"/>
     <use xlink:href="#m69ea060c6f" x="189.598936" y="276.647298" style="fill: #1f77b4; stroke: #1f77b4"/>
     <use xlink:href="#m69ea060c6f" x="332.740543" y="270.046364" style="fill: #1f77b4; stroke: #1f77b4"/>
     <use xlink:href="#m69ea060c6f" x="355.857115" y="201.123209" style="fill: #1f77b4; stroke: #1f77b4"/>
     <use xlink:href="#m69ea060c6f" x="187.241276" y="220.375144" style="fill: #1f77b4; stroke: #1f77b4"/>
     <use xlink:href="#m69ea060c6f" x="212.974275" y="219.412148" style="fill: #1f77b4; stroke: #1f77b4"/>
     <use xlink:href="#m69ea060c6f" x="284.171304" y="275.766935" style="fill: #1f77b4; stroke: #1f77b4"/>
     <use xlink:href="#m69ea060c6f" x="299.862683" y="272.241632" style="fill: #1f77b4; stroke: #1f77b4"/>
     <use xlink:href="#m69ea060c6f" x="339.252861" y="282.531347" style="fill: #1f77b4; stroke: #1f77b4"/>
     <use xlink:href="#m69ea060c6f" x="191.439061" y="213.377702" style="fill: #1f77b4; stroke: #1f77b4"/>
     <use xlink:href="#m69ea060c6f" x="239.936421" y="290.259647" style="fill: #1f77b4; stroke: #1f77b4"/>
     <use xlink:href="#m69ea060c6f" x="270.772893" y="253.896005" style="fill: #1f77b4; stroke: #1f77b4"/>
     <use xlink:href="#m69ea060c6f" x="271.613887" y="257.463104" style="fill: #1f77b4; stroke: #1f77b4"/>
     <use xlink:href="#m69ea060c6f" x="196.405962" y="256.095448" style="fill: #1f77b4; stroke: #1f77b4"/>
     <use xlink:href="#m69ea060c6f" x="260.84628" y="268.398312" style="fill: #1f77b4; stroke: #1f77b4"/>
     <use xlink:href="#m69ea060c6f" x="109.31629" y="200.746593" style="fill: #1f77b4; stroke: #1f77b4"/>
     <use xlink:href="#m69ea060c6f" x="296.153681" y="279.641443" style="fill: #1f77b4; stroke: #1f77b4"/>
     <use xlink:href="#m69ea060c6f" x="98.397736" y="239.732843" style="fill: #1f77b4; stroke: #1f77b4"/>
     <use xlink:href="#m69ea060c6f" x="304.707387" y="279.240526" style="fill: #1f77b4; stroke: #1f77b4"/>
     <use xlink:href="#m69ea060c6f" x="312.585423" y="285.79909" style="fill: #1f77b4; stroke: #1f77b4"/>
     <use xlink:href="#m69ea060c6f" x="306.935664" y="249.633754" style="fill: #1f77b4; stroke: #1f77b4"/>
     <use xlink:href="#m69ea060c6f" x="321.836364" y="279.987013" style="fill: #1f77b4; stroke: #1f77b4"/>
     <use xlink:href="#m69ea060c6f" x="316.891028" y="283.797634" style="fill: #1f77b4; stroke: #1f77b4"/>
     <use xlink:href="#m69ea060c6f" x="294.407" y="271.194561" style="fill: #1f77b4; stroke: #1f77b4"/>
     <use xlink:href="#m69ea060c6f" x="289.943259" y="273.93703" style="fill: #1f77b4; stroke: #1f77b4"/>
     <use xlink:href="#m69ea060c6f" x="362.297553" y="276.949833" style="fill: #1f77b4; stroke: #1f77b4"/>
     <use xlink:href="#m69ea060c6f" x="265.216577" y="264.996961" style="fill: #1f77b4; stroke: #1f77b4"/>
     <use xlink:href="#m69ea060c6f" x="216.546706" y="279.098727" style="fill: #1f77b4; stroke: #1f77b4"/>
     <use xlink:href="#m69ea060c6f" x="260.731272" y="288.218355" style="fill: #1f77b4; stroke: #1f77b4"/>
     <use xlink:href="#m69ea060c6f" x="263.354888" y="280.324405" style="fill: #1f77b4; stroke: #1f77b4"/>
     <use xlink:href="#m69ea060c6f" x="229.492274" y="234.460965" style="fill: #1f77b4; stroke: #1f77b4"/>
     <use xlink:href="#m69ea060c6f" x="260.573137" y="270.068796" style="fill: #1f77b4; stroke: #1f77b4"/>
     <use xlink:href="#m69ea060c6f" x="199.015201" y="248.138282" style="fill: #1f77b4; stroke: #1f77b4"/>
     <use xlink:href="#m69ea060c6f" x="197.261332" y="271.817702" style="fill: #1f77b4; stroke: #1f77b4"/>
     <use xlink:href="#m69ea060c6f" x="102.739281" y="238.608227" style="fill: #1f77b4; stroke: #1f77b4"/>
     <use xlink:href="#m69ea060c6f" x="376.666342" y="254.893981" style="fill: #1f77b4; stroke: #1f77b4"/>
     <use xlink:href="#m69ea060c6f" x="190.777766" y="205.938759" style="fill: #1f77b4; stroke: #1f77b4"/>
     <use xlink:href="#m69ea060c6f" x="197.512912" y="232.034851" style="fill: #1f77b4; stroke: #1f77b4"/>
     <use xlink:href="#m69ea060c6f" x="189.527056" y="273.588167" style="fill: #1f77b4; stroke: #1f77b4"/>
     <use xlink:href="#m69ea060c6f" x="356.69811" y="279.160576" style="fill: #1f77b4; stroke: #1f77b4"/>
     <use xlink:href="#m69ea060c6f" x="160.660094" y="270.267301" style="fill: #1f77b4; stroke: #1f77b4"/>
     <use xlink:href="#m69ea060c6f" x="223.605311" y="265.309739" style="fill: #1f77b4; stroke: #1f77b4"/>
     <use xlink:href="#m69ea060c6f" x="332.532092" y="276.768796" style="fill: #1f77b4; stroke: #1f77b4"/>
     <use xlink:href="#m69ea060c6f" x="375.933167" y="259.912041" style="fill: #1f77b4; stroke: #1f77b4"/>
     <use xlink:href="#m69ea060c6f" x="195.960306" y="266.532506" style="fill: #1f77b4; stroke: #1f77b4"/>
     <use xlink:href="#m69ea060c6f" x="258.970215" y="253.858253" style="fill: #1f77b4; stroke: #1f77b4"/>
     <use xlink:href="#m69ea060c6f" x="311.435345" y="276.769041" style="fill: #1f77b4; stroke: #1f77b4"/>
     <use xlink:href="#m69ea060c6f" x="305.296802" y="277.064028" style="fill: #1f77b4; stroke: #1f77b4"/>
     <use xlink:href="#m69ea060c6f" x="231.418654" y="273.060467" style="fill: #1f77b4; stroke: #1f77b4"/>
     <use xlink:href="#m69ea060c6f" x="176.9337" y="285.147098" style="fill: #1f77b4; stroke: #1f77b4"/>
     <use xlink:href="#m69ea060c6f" x="365.151184" y="281.650297" style="fill: #1f77b4; stroke: #1f77b4"/>
     <use xlink:href="#m69ea060c6f" x="181.713713" y="265.158761" style="fill: #1f77b4; stroke: #1f77b4"/>
     <use xlink:href="#m69ea060c6f" x="299.718923" y="275.78305" style="fill: #1f77b4; stroke: #1f77b4"/>
     <use xlink:href="#m69ea060c6f" x="401.910559" y="185.093607" style="fill: #1f77b4; stroke: #1f77b4"/>
     <use xlink:href="#m69ea060c6f" x="322.583915" y="288.863876" style="fill: #1f77b4; stroke: #1f77b4"/>
     <use xlink:href="#m69ea060c6f" x="350.739267" y="287.474849" style="fill: #1f77b4; stroke: #1f77b4"/>
     <use xlink:href="#m69ea060c6f" x="325.300975" y="163.252713" style="fill: #1f77b4; stroke: #1f77b4"/>
     <use xlink:href="#m69ea060c6f" x="165.583866" y="264.634714" style="fill: #1f77b4; stroke: #1f77b4"/>
     <use xlink:href="#m69ea060c6f" x="309.846799" y="272.894239" style="fill: #1f77b4; stroke: #1f77b4"/>
     <use xlink:href="#m69ea060c6f" x="238.829471" y="265.87315" style="fill: #1f77b4; stroke: #1f77b4"/>
     <use xlink:href="#m69ea060c6f" x="352.083421" y="219.328069" style="fill: #1f77b4; stroke: #1f77b4"/>
     <use xlink:href="#m69ea060c6f" x="325.861638" y="273.545079" style="fill: #1f77b4; stroke: #1f77b4"/>
     <use xlink:href="#m69ea060c6f" x="394.305667" y="277.403849" style="fill: #1f77b4; stroke: #1f77b4"/>
     <use xlink:href="#m69ea060c6f" x="431.719148" y="278.848937" style="fill: #1f77b4; stroke: #1f77b4"/>
     <use xlink:href="#m69ea060c6f" x="387.635213" y="207.967654" style="fill: #1f77b4; stroke: #1f77b4"/>
    </g>
   </g>
   <g id="matplotlib.axis_1">
    <g id="xtick_1">
     <g id="line2d_1">
      <defs>
       <path id="m2b53e2494e" d="M 0 0 
L 0 3.5 
" style="stroke: #000000; stroke-width: 0.8"/>
      </defs>
      <g>
       <use xlink:href="#m2b53e2494e" x="49.749428" y="303.64" style="stroke: #000000; stroke-width: 0.8"/>
      </g>
     </g>
     <g id="text_1">
      <!-- −1100 -->
      <g transform="translate(32.834584 318.238437)scale(0.1 -0.1)">
       <defs>
        <path id="DejaVuSans-2212" d="M 678 2272 
L 4684 2272 
L 4684 1741 
L 678 1741 
L 678 2272 
z
" transform="scale(0.015625)"/>
        <path id="DejaVuSans-31" d="M 794 531 
L 1825 531 
L 1825 4091 
L 703 3866 
L 703 4441 
L 1819 4666 
L 2450 4666 
L 2450 531 
L 3481 531 
L 3481 0 
L 794 0 
L 794 531 
z
" transform="scale(0.015625)"/>
        <path id="DejaVuSans-30" d="M 2034 4250 
Q 1547 4250 1301 3770 
Q 1056 3291 1056 2328 
Q 1056 1369 1301 889 
Q 1547 409 2034 409 
Q 2525 409 2770 889 
Q 3016 1369 3016 2328 
Q 3016 3291 2770 3770 
Q 2525 4250 2034 4250 
z
M 2034 4750 
Q 2819 4750 3233 4129 
Q 3647 3509 3647 2328 
Q 3647 1150 3233 529 
Q 2819 -91 2034 -91 
Q 1250 -91 836 529 
Q 422 1150 422 2328 
Q 422 3509 836 4129 
Q 1250 4750 2034 4750 
z
" transform="scale(0.015625)"/>
       </defs>
       <use xlink:href="#DejaVuSans-2212"/>
       <use xlink:href="#DejaVuSans-31" x="83.789062"/>
       <use xlink:href="#DejaVuSans-31" x="147.412109"/>
       <use xlink:href="#DejaVuSans-30" x="211.035156"/>
       <use xlink:href="#DejaVuSans-30" x="274.658203"/>
      </g>
     </g>
    </g>
    <g id="xtick_2">
     <g id="line2d_2">
      <g>
       <use xlink:href="#m2b53e2494e" x="121.629315" y="303.64" style="stroke: #000000; stroke-width: 0.8"/>
      </g>
     </g>
     <g id="text_2">
      <!-- −1000 -->
      <g transform="translate(104.714471 318.238437)scale(0.1 -0.1)">
       <use xlink:href="#DejaVuSans-2212"/>
       <use xlink:href="#DejaVuSans-31" x="83.789062"/>
       <use xlink:href="#DejaVuSans-30" x="147.412109"/>
       <use xlink:href="#DejaVuSans-30" x="211.035156"/>
       <use xlink:href="#DejaVuSans-30" x="274.658203"/>
      </g>
     </g>
    </g>
    <g id="xtick_3">
     <g id="line2d_3">
      <g>
       <use xlink:href="#m2b53e2494e" x="193.509202" y="303.64" style="stroke: #000000; stroke-width: 0.8"/>
      </g>
     </g>
     <g id="text_3">
      <!-- −900 -->
      <g transform="translate(179.775608 318.238437)scale(0.1 -0.1)">
       <defs>
        <path id="DejaVuSans-39" d="M 703 97 
L 703 672 
Q 941 559 1184 500 
Q 1428 441 1663 441 
Q 2288 441 2617 861 
Q 2947 1281 2994 2138 
Q 2813 1869 2534 1725 
Q 2256 1581 1919 1581 
Q 1219 1581 811 2004 
Q 403 2428 403 3163 
Q 403 3881 828 4315 
Q 1253 4750 1959 4750 
Q 2769 4750 3195 4129 
Q 3622 3509 3622 2328 
Q 3622 1225 3098 567 
Q 2575 -91 1691 -91 
Q 1453 -91 1209 -44 
Q 966 3 703 97 
z
M 1959 2075 
Q 2384 2075 2632 2365 
Q 2881 2656 2881 3163 
Q 2881 3666 2632 3958 
Q 2384 4250 1959 4250 
Q 1534 4250 1286 3958 
Q 1038 3666 1038 3163 
Q 1038 2656 1286 2365 
Q 1534 2075 1959 2075 
z
" transform="scale(0.015625)"/>
       </defs>
       <use xlink:href="#DejaVuSans-2212"/>
       <use xlink:href="#DejaVuSans-39" x="83.789062"/>
       <use xlink:href="#DejaVuSans-30" x="147.412109"/>
       <use xlink:href="#DejaVuSans-30" x="211.035156"/>
      </g>
     </g>
    </g>
    <g id="xtick_4">
     <g id="line2d_4">
      <g>
       <use xlink:href="#m2b53e2494e" x="265.389089" y="303.64" style="stroke: #000000; stroke-width: 0.8"/>
      </g>
     </g>
     <g id="text_4">
      <!-- −800 -->
      <g transform="translate(251.655495 318.238437)scale(0.1 -0.1)">
       <defs>
        <path id="DejaVuSans-38" d="M 2034 2216 
Q 1584 2216 1326 1975 
Q 1069 1734 1069 1313 
Q 1069 891 1326 650 
Q 1584 409 2034 409 
Q 2484 409 2743 651 
Q 3003 894 3003 1313 
Q 3003 1734 2745 1975 
Q 2488 2216 2034 2216 
z
M 1403 2484 
Q 997 2584 770 2862 
Q 544 3141 544 3541 
Q 544 4100 942 4425 
Q 1341 4750 2034 4750 
Q 2731 4750 3128 4425 
Q 3525 4100 3525 3541 
Q 3525 3141 3298 2862 
Q 3072 2584 2669 2484 
Q 3125 2378 3379 2068 
Q 3634 1759 3634 1313 
Q 3634 634 3220 271 
Q 2806 -91 2034 -91 
Q 1263 -91 848 271 
Q 434 634 434 1313 
Q 434 1759 690 2068 
Q 947 2378 1403 2484 
z
M 1172 3481 
Q 1172 3119 1398 2916 
Q 1625 2713 2034 2713 
Q 2441 2713 2670 2916 
Q 2900 3119 2900 3481 
Q 2900 3844 2670 4047 
Q 2441 4250 2034 4250 
Q 1625 4250 1398 4047 
Q 1172 3844 1172 3481 
z
" transform="scale(0.015625)"/>
       </defs>
       <use xlink:href="#DejaVuSans-2212"/>
       <use xlink:href="#DejaVuSans-38" x="83.789062"/>
       <use xlink:href="#DejaVuSans-30" x="147.412109"/>
       <use xlink:href="#DejaVuSans-30" x="211.035156"/>
      </g>
     </g>
    </g>
    <g id="xtick_5">
     <g id="line2d_5">
      <g>
       <use xlink:href="#m2b53e2494e" x="337.268976" y="303.64" style="stroke: #000000; stroke-width: 0.8"/>
      </g>
     </g>
     <g id="text_5">
      <!-- −700 -->
      <g transform="translate(323.535382 318.238437)scale(0.1 -0.1)">
       <defs>
        <path id="DejaVuSans-37" d="M 525 4666 
L 3525 4666 
L 3525 4397 
L 1831 0 
L 1172 0 
L 2766 4134 
L 525 4134 
L 525 4666 
z
" transform="scale(0.015625)"/>
       </defs>
       <use xlink:href="#DejaVuSans-2212"/>
       <use xlink:href="#DejaVuSans-37" x="83.789062"/>
       <use xlink:href="#DejaVuSans-30" x="147.412109"/>
       <use xlink:href="#DejaVuSans-30" x="211.035156"/>
      </g>
     </g>
    </g>
    <g id="xtick_6">
     <g id="line2d_6">
      <g>
       <use xlink:href="#m2b53e2494e" x="409.148863" y="303.64" style="stroke: #000000; stroke-width: 0.8"/>
      </g>
     </g>
     <g id="text_6">
      <!-- −600 -->
      <g transform="translate(395.415269 318.238437)scale(0.1 -0.1)">
       <defs>
        <path id="DejaVuSans-36" d="M 2113 2584 
Q 1688 2584 1439 2293 
Q 1191 2003 1191 1497 
Q 1191 994 1439 701 
Q 1688 409 2113 409 
Q 2538 409 2786 701 
Q 3034 994 3034 1497 
Q 3034 2003 2786 2293 
Q 2538 2584 2113 2584 
z
M 3366 4563 
L 3366 3988 
Q 3128 4100 2886 4159 
Q 2644 4219 2406 4219 
Q 1781 4219 1451 3797 
Q 1122 3375 1075 2522 
Q 1259 2794 1537 2939 
Q 1816 3084 2150 3084 
Q 2853 3084 3261 2657 
Q 3669 2231 3669 1497 
Q 3669 778 3244 343 
Q 2819 -91 2113 -91 
Q 1303 -91 875 529 
Q 447 1150 447 2328 
Q 447 3434 972 4092 
Q 1497 4750 2381 4750 
Q 2619 4750 2861 4703 
Q 3103 4656 3366 4563 
z
" transform="scale(0.015625)"/>
       </defs>
       <use xlink:href="#DejaVuSans-2212"/>
       <use xlink:href="#DejaVuSans-36" x="83.789062"/>
       <use xlink:href="#DejaVuSans-30" x="147.412109"/>
       <use xlink:href="#DejaVuSans-30" x="211.035156"/>
      </g>
     </g>
    </g>
    <g id="text_7">
     <!-- SasaDiff -->
     <g transform="translate(228.244219 331.916562)scale(0.1 -0.1)">
      <defs>
       <path id="DejaVuSans-53" d="M 3425 4513 
L 3425 3897 
Q 3066 4069 2747 4153 
Q 2428 4238 2131 4238 
Q 1616 4238 1336 4038 
Q 1056 3838 1056 3469 
Q 1056 3159 1242 3001 
Q 1428 2844 1947 2747 
L 2328 2669 
Q 3034 2534 3370 2195 
Q 3706 1856 3706 1288 
Q 3706 609 3251 259 
Q 2797 -91 1919 -91 
Q 1588 -91 1214 -16 
Q 841 59 441 206 
L 441 856 
Q 825 641 1194 531 
Q 1563 422 1919 422 
Q 2459 422 2753 634 
Q 3047 847 3047 1241 
Q 3047 1584 2836 1778 
Q 2625 1972 2144 2069 
L 1759 2144 
Q 1053 2284 737 2584 
Q 422 2884 422 3419 
Q 422 4038 858 4394 
Q 1294 4750 2059 4750 
Q 2388 4750 2728 4690 
Q 3069 4631 3425 4513 
z
" transform="scale(0.015625)"/>
       <path id="DejaVuSans-61" d="M 2194 1759 
Q 1497 1759 1228 1600 
Q 959 1441 959 1056 
Q 959 750 1161 570 
Q 1363 391 1709 391 
Q 2188 391 2477 730 
Q 2766 1069 2766 1631 
L 2766 1759 
L 2194 1759 
z
M 3341 1997 
L 3341 0 
L 2766 0 
L 2766 531 
Q 2569 213 2275 61 
Q 1981 -91 1556 -91 
Q 1019 -91 701 211 
Q 384 513 384 1019 
Q 384 1609 779 1909 
Q 1175 2209 1959 2209 
L 2766 2209 
L 2766 2266 
Q 2766 2663 2505 2880 
Q 2244 3097 1772 3097 
Q 1472 3097 1187 3025 
Q 903 2953 641 2809 
L 641 3341 
Q 956 3463 1253 3523 
Q 1550 3584 1831 3584 
Q 2591 3584 2966 3190 
Q 3341 2797 3341 1997 
z
" transform="scale(0.015625)"/>
       <path id="DejaVuSans-73" d="M 2834 3397 
L 2834 2853 
Q 2591 2978 2328 3040 
Q 2066 3103 1784 3103 
Q 1356 3103 1142 2972 
Q 928 2841 928 2578 
Q 928 2378 1081 2264 
Q 1234 2150 1697 2047 
L 1894 2003 
Q 2506 1872 2764 1633 
Q 3022 1394 3022 966 
Q 3022 478 2636 193 
Q 2250 -91 1575 -91 
Q 1294 -91 989 -36 
Q 684 19 347 128 
L 347 722 
Q 666 556 975 473 
Q 1284 391 1588 391 
Q 1994 391 2212 530 
Q 2431 669 2431 922 
Q 2431 1156 2273 1281 
Q 2116 1406 1581 1522 
L 1381 1569 
Q 847 1681 609 1914 
Q 372 2147 372 2553 
Q 372 3047 722 3315 
Q 1072 3584 1716 3584 
Q 2034 3584 2315 3537 
Q 2597 3491 2834 3397 
z
" transform="scale(0.015625)"/>
       <path id="DejaVuSans-44" d="M 1259 4147 
L 1259 519 
L 2022 519 
Q 2988 519 3436 956 
Q 3884 1394 3884 2338 
Q 3884 3275 3436 3711 
Q 2988 4147 2022 4147 
L 1259 4147 
z
M 628 4666 
L 1925 4666 
Q 3281 4666 3915 4102 
Q 4550 3538 4550 2338 
Q 4550 1131 3912 565 
Q 3275 0 1925 0 
L 628 0 
L 628 4666 
z
" transform="scale(0.015625)"/>
       <path id="DejaVuSans-69" d="M 603 3500 
L 1178 3500 
L 1178 0 
L 603 0 
L 603 3500 
z
M 603 4863 
L 1178 4863 
L 1178 4134 
L 603 4134 
L 603 4863 
z
" transform="scale(0.015625)"/>
       <path id="DejaVuSans-66" d="M 2375 4863 
L 2375 4384 
L 1825 4384 
Q 1516 4384 1395 4259 
Q 1275 4134 1275 3809 
L 1275 3500 
L 2222 3500 
L 2222 3053 
L 1275 3053 
L 1275 0 
L 697 0 
L 697 3053 
L 147 3053 
L 147 3500 
L 697 3500 
L 697 3744 
Q 697 4328 969 4595 
Q 1241 4863 1831 4863 
L 2375 4863 
z
" transform="scale(0.015625)"/>
      </defs>
      <use xlink:href="#DejaVuSans-53"/>
      <use xlink:href="#DejaVuSans-61" x="63.476562"/>
      <use xlink:href="#DejaVuSans-73" x="124.755859"/>
      <use xlink:href="#DejaVuSans-61" x="176.855469"/>
      <use xlink:href="#DejaVuSans-44" x="238.134766"/>
      <use xlink:href="#DejaVuSans-69" x="315.136719"/>
      <use xlink:href="#DejaVuSans-66" x="342.919922"/>
      <use xlink:href="#DejaVuSans-66" x="378.125"/>
     </g>
    </g>
   </g>
   <g id="matplotlib.axis_2">
    <g id="ytick_1">
     <g id="line2d_7">
      <defs>
       <path id="m8b14d23059" d="M 0 0 
L -3.5 0 
" style="stroke: #000000; stroke-width: 0.8"/>
      </defs>
      <g>
       <use xlink:href="#m8b14d23059" x="47.82125" y="303.64" style="stroke: #000000; stroke-width: 0.8"/>
      </g>
     </g>
     <g id="text_8">
      <!-- 0.0 -->
      <g transform="translate(24.918125 307.439219)scale(0.1 -0.1)">
       <defs>
        <path id="DejaVuSans-2e" d="M 684 794 
L 1344 794 
L 1344 0 
L 684 0 
L 684 794 
z
" transform="scale(0.015625)"/>
       </defs>
       <use xlink:href="#DejaVuSans-30"/>
       <use xlink:href="#DejaVuSans-2e" x="63.623047"/>
       <use xlink:href="#DejaVuSans-30" x="95.410156"/>
      </g>
     </g>
    </g>
    <g id="ytick_2">
     <g id="line2d_8">
      <g>
       <use xlink:href="#m8b14d23059" x="47.82125" y="253.568611" style="stroke: #000000; stroke-width: 0.8"/>
      </g>
     </g>
     <g id="text_9">
      <!-- 0.5 -->
      <g transform="translate(24.918125 257.367829)scale(0.1 -0.1)">
       <defs>
        <path id="DejaVuSans-35" d="M 691 4666 
L 3169 4666 
L 3169 4134 
L 1269 4134 
L 1269 2991 
Q 1406 3038 1543 3061 
Q 1681 3084 1819 3084 
Q 2600 3084 3056 2656 
Q 3513 2228 3513 1497 
Q 3513 744 3044 326 
Q 2575 -91 1722 -91 
Q 1428 -91 1123 -41 
Q 819 9 494 109 
L 494 744 
Q 775 591 1075 516 
Q 1375 441 1709 441 
Q 2250 441 2565 725 
Q 2881 1009 2881 1497 
Q 2881 1984 2565 2268 
Q 2250 2553 1709 2553 
Q 1456 2553 1204 2497 
Q 953 2441 691 2322 
L 691 4666 
z
" transform="scale(0.015625)"/>
       </defs>
       <use xlink:href="#DejaVuSans-30"/>
       <use xlink:href="#DejaVuSans-2e" x="63.623047"/>
       <use xlink:href="#DejaVuSans-35" x="95.410156"/>
      </g>
     </g>
    </g>
    <g id="ytick_3">
     <g id="line2d_9">
      <g>
       <use xlink:href="#m8b14d23059" x="47.82125" y="203.497221" style="stroke: #000000; stroke-width: 0.8"/>
      </g>
     </g>
     <g id="text_10">
      <!-- 1.0 -->
      <g transform="translate(24.918125 207.29644)scale(0.1 -0.1)">
       <use xlink:href="#DejaVuSans-31"/>
       <use xlink:href="#DejaVuSans-2e" x="63.623047"/>
       <use xlink:href="#DejaVuSans-30" x="95.410156"/>
      </g>
     </g>
    </g>
    <g id="ytick_4">
     <g id="line2d_10">
      <g>
       <use xlink:href="#m8b14d23059" x="47.82125" y="153.425832" style="stroke: #000000; stroke-width: 0.8"/>
      </g>
     </g>
     <g id="text_11">
      <!-- 1.5 -->
      <g transform="translate(24.918125 157.22505)scale(0.1 -0.1)">
       <use xlink:href="#DejaVuSans-31"/>
       <use xlink:href="#DejaVuSans-2e" x="63.623047"/>
       <use xlink:href="#DejaVuSans-35" x="95.410156"/>
      </g>
     </g>
    </g>
    <g id="ytick_5">
     <g id="line2d_11">
      <g>
       <use xlink:href="#m8b14d23059" x="47.82125" y="103.354442" style="stroke: #000000; stroke-width: 0.8"/>
      </g>
     </g>
     <g id="text_12">
      <!-- 2.0 -->
      <g transform="translate(24.918125 107.153661)scale(0.1 -0.1)">
       <defs>
        <path id="DejaVuSans-32" d="M 1228 531 
L 3431 531 
L 3431 0 
L 469 0 
L 469 531 
Q 828 903 1448 1529 
Q 2069 2156 2228 2338 
Q 2531 2678 2651 2914 
Q 2772 3150 2772 3378 
Q 2772 3750 2511 3984 
Q 2250 4219 1831 4219 
Q 1534 4219 1204 4116 
Q 875 4013 500 3803 
L 500 4441 
Q 881 4594 1212 4672 
Q 1544 4750 1819 4750 
Q 2544 4750 2975 4387 
Q 3406 4025 3406 3419 
Q 3406 3131 3298 2873 
Q 3191 2616 2906 2266 
Q 2828 2175 2409 1742 
Q 1991 1309 1228 531 
z
" transform="scale(0.015625)"/>
       </defs>
       <use xlink:href="#DejaVuSans-32"/>
       <use xlink:href="#DejaVuSans-2e" x="63.623047"/>
       <use xlink:href="#DejaVuSans-30" x="95.410156"/>
      </g>
     </g>
    </g>
    <g id="ytick_6">
     <g id="line2d_12">
      <g>
       <use xlink:href="#m8b14d23059" x="47.82125" y="53.283053" style="stroke: #000000; stroke-width: 0.8"/>
      </g>
     </g>
     <g id="text_13">
      <!-- 2.5 -->
      <g transform="translate(24.918125 57.082271)scale(0.1 -0.1)">
       <use xlink:href="#DejaVuSans-32"/>
       <use xlink:href="#DejaVuSans-2e" x="63.623047"/>
       <use xlink:href="#DejaVuSans-35" x="95.410156"/>
      </g>
     </g>
    </g>
    <g id="text_14">
     <!-- PercentGpA_transformed -->
     <g transform="translate(18.560313 237.696138)rotate(-90)scale(0.1 -0.1)">
      <defs>
       <path id="DejaVuSans-50" d="M 1259 4147 
L 1259 2394 
L 2053 2394 
Q 2494 2394 2734 2622 
Q 2975 2850 2975 3272 
Q 2975 3691 2734 3919 
Q 2494 4147 2053 4147 
L 1259 4147 
z
M 628 4666 
L 2053 4666 
Q 2838 4666 3239 4311 
Q 3641 3956 3641 3272 
Q 3641 2581 3239 2228 
Q 2838 1875 2053 1875 
L 1259 1875 
L 1259 0 
L 628 0 
L 628 4666 
z
" transform="scale(0.015625)"/>
       <path id="DejaVuSans-65" d="M 3597 1894 
L 3597 1613 
L 953 1613 
Q 991 1019 1311 708 
Q 1631 397 2203 397 
Q 2534 397 2845 478 
Q 3156 559 3463 722 
L 3463 178 
Q 3153 47 2828 -22 
Q 2503 -91 2169 -91 
Q 1331 -91 842 396 
Q 353 884 353 1716 
Q 353 2575 817 3079 
Q 1281 3584 2069 3584 
Q 2775 3584 3186 3129 
Q 3597 2675 3597 1894 
z
M 3022 2063 
Q 3016 2534 2758 2815 
Q 2500 3097 2075 3097 
Q 1594 3097 1305 2825 
Q 1016 2553 972 2059 
L 3022 2063 
z
" transform="scale(0.015625)"/>
       <path id="DejaVuSans-72" d="M 2631 2963 
Q 2534 3019 2420 3045 
Q 2306 3072 2169 3072 
Q 1681 3072 1420 2755 
Q 1159 2438 1159 1844 
L 1159 0 
L 581 0 
L 581 3500 
L 1159 3500 
L 1159 2956 
Q 1341 3275 1631 3429 
Q 1922 3584 2338 3584 
Q 2397 3584 2469 3576 
Q 2541 3569 2628 3553 
L 2631 2963 
z
" transform="scale(0.015625)"/>
       <path id="DejaVuSans-63" d="M 3122 3366 
L 3122 2828 
Q 2878 2963 2633 3030 
Q 2388 3097 2138 3097 
Q 1578 3097 1268 2742 
Q 959 2388 959 1747 
Q 959 1106 1268 751 
Q 1578 397 2138 397 
Q 2388 397 2633 464 
Q 2878 531 3122 666 
L 3122 134 
Q 2881 22 2623 -34 
Q 2366 -91 2075 -91 
Q 1284 -91 818 406 
Q 353 903 353 1747 
Q 353 2603 823 3093 
Q 1294 3584 2113 3584 
Q 2378 3584 2631 3529 
Q 2884 3475 3122 3366 
z
" transform="scale(0.015625)"/>
       <path id="DejaVuSans-6e" d="M 3513 2113 
L 3513 0 
L 2938 0 
L 2938 2094 
Q 2938 2591 2744 2837 
Q 2550 3084 2163 3084 
Q 1697 3084 1428 2787 
Q 1159 2491 1159 1978 
L 1159 0 
L 581 0 
L 581 3500 
L 1159 3500 
L 1159 2956 
Q 1366 3272 1645 3428 
Q 1925 3584 2291 3584 
Q 2894 3584 3203 3211 
Q 3513 2838 3513 2113 
z
" transform="scale(0.015625)"/>
       <path id="DejaVuSans-74" d="M 1172 4494 
L 1172 3500 
L 2356 3500 
L 2356 3053 
L 1172 3053 
L 1172 1153 
Q 1172 725 1289 603 
Q 1406 481 1766 481 
L 2356 481 
L 2356 0 
L 1766 0 
Q 1100 0 847 248 
Q 594 497 594 1153 
L 594 3053 
L 172 3053 
L 172 3500 
L 594 3500 
L 594 4494 
L 1172 4494 
z
" transform="scale(0.015625)"/>
       <path id="DejaVuSans-47" d="M 3809 666 
L 3809 1919 
L 2778 1919 
L 2778 2438 
L 4434 2438 
L 4434 434 
Q 4069 175 3628 42 
Q 3188 -91 2688 -91 
Q 1594 -91 976 548 
Q 359 1188 359 2328 
Q 359 3472 976 4111 
Q 1594 4750 2688 4750 
Q 3144 4750 3555 4637 
Q 3966 4525 4313 4306 
L 4313 3634 
Q 3963 3931 3569 4081 
Q 3175 4231 2741 4231 
Q 1884 4231 1454 3753 
Q 1025 3275 1025 2328 
Q 1025 1384 1454 906 
Q 1884 428 2741 428 
Q 3075 428 3337 486 
Q 3600 544 3809 666 
z
" transform="scale(0.015625)"/>
       <path id="DejaVuSans-70" d="M 1159 525 
L 1159 -1331 
L 581 -1331 
L 581 3500 
L 1159 3500 
L 1159 2969 
Q 1341 3281 1617 3432 
Q 1894 3584 2278 3584 
Q 2916 3584 3314 3078 
Q 3713 2572 3713 1747 
Q 3713 922 3314 415 
Q 2916 -91 2278 -91 
Q 1894 -91 1617 61 
Q 1341 213 1159 525 
z
M 3116 1747 
Q 3116 2381 2855 2742 
Q 2594 3103 2138 3103 
Q 1681 3103 1420 2742 
Q 1159 2381 1159 1747 
Q 1159 1113 1420 752 
Q 1681 391 2138 391 
Q 2594 391 2855 752 
Q 3116 1113 3116 1747 
z
" transform="scale(0.015625)"/>
       <path id="DejaVuSans-41" d="M 2188 4044 
L 1331 1722 
L 3047 1722 
L 2188 4044 
z
M 1831 4666 
L 2547 4666 
L 4325 0 
L 3669 0 
L 3244 1197 
L 1141 1197 
L 716 0 
L 50 0 
L 1831 4666 
z
" transform="scale(0.015625)"/>
       <path id="DejaVuSans-5f" d="M 3263 -1063 
L 3263 -1509 
L -63 -1509 
L -63 -1063 
L 3263 -1063 
z
" transform="scale(0.015625)"/>
       <path id="DejaVuSans-6f" d="M 1959 3097 
Q 1497 3097 1228 2736 
Q 959 2375 959 1747 
Q 959 1119 1226 758 
Q 1494 397 1959 397 
Q 2419 397 2687 759 
Q 2956 1122 2956 1747 
Q 2956 2369 2687 2733 
Q 2419 3097 1959 3097 
z
M 1959 3584 
Q 2709 3584 3137 3096 
Q 3566 2609 3566 1747 
Q 3566 888 3137 398 
Q 2709 -91 1959 -91 
Q 1206 -91 779 398 
Q 353 888 353 1747 
Q 353 2609 779 3096 
Q 1206 3584 1959 3584 
z
" transform="scale(0.015625)"/>
       <path id="DejaVuSans-6d" d="M 3328 2828 
Q 3544 3216 3844 3400 
Q 4144 3584 4550 3584 
Q 5097 3584 5394 3201 
Q 5691 2819 5691 2113 
L 5691 0 
L 5113 0 
L 5113 2094 
Q 5113 2597 4934 2840 
Q 4756 3084 4391 3084 
Q 3944 3084 3684 2787 
Q 3425 2491 3425 1978 
L 3425 0 
L 2847 0 
L 2847 2094 
Q 2847 2600 2669 2842 
Q 2491 3084 2119 3084 
Q 1678 3084 1418 2786 
Q 1159 2488 1159 1978 
L 1159 0 
L 581 0 
L 581 3500 
L 1159 3500 
L 1159 2956 
Q 1356 3278 1631 3431 
Q 1906 3584 2284 3584 
Q 2666 3584 2933 3390 
Q 3200 3197 3328 2828 
z
" transform="scale(0.015625)"/>
       <path id="DejaVuSans-64" d="M 2906 2969 
L 2906 4863 
L 3481 4863 
L 3481 0 
L 2906 0 
L 2906 525 
Q 2725 213 2448 61 
Q 2172 -91 1784 -91 
Q 1150 -91 751 415 
Q 353 922 353 1747 
Q 353 2572 751 3078 
Q 1150 3584 1784 3584 
Q 2172 3584 2448 3432 
Q 2725 3281 2906 2969 
z
M 947 1747 
Q 947 1113 1208 752 
Q 1469 391 1925 391 
Q 2381 391 2643 752 
Q 2906 1113 2906 1747 
Q 2906 2381 2643 2742 
Q 2381 3103 1925 3103 
Q 1469 3103 1208 2742 
Q 947 2381 947 1747 
z
" transform="scale(0.015625)"/>
      </defs>
      <use xlink:href="#DejaVuSans-50"/>
      <use xlink:href="#DejaVuSans-65" x="56.677734"/>
      <use xlink:href="#DejaVuSans-72" x="118.201172"/>
      <use xlink:href="#DejaVuSans-63" x="157.064453"/>
      <use xlink:href="#DejaVuSans-65" x="212.044922"/>
      <use xlink:href="#DejaVuSans-6e" x="273.568359"/>
      <use xlink:href="#DejaVuSans-74" x="336.947266"/>
      <use xlink:href="#DejaVuSans-47" x="376.15625"/>
      <use xlink:href="#DejaVuSans-70" x="453.646484"/>
      <use xlink:href="#DejaVuSans-41" x="517.123047"/>
      <use xlink:href="#DejaVuSans-5f" x="585.53125"/>
      <use xlink:href="#DejaVuSans-74" x="635.53125"/>
      <use xlink:href="#DejaVuSans-72" x="674.740234"/>
      <use xlink:href="#DejaVuSans-61" x="715.853516"/>
      <use xlink:href="#DejaVuSans-6e" x="777.132812"/>
      <use xlink:href="#DejaVuSans-73" x="840.511719"/>
      <use xlink:href="#DejaVuSans-66" x="892.611328"/>
      <use xlink:href="#DejaVuSans-6f" x="927.816406"/>
      <use xlink:href="#DejaVuSans-72" x="988.998047"/>
      <use xlink:href="#DejaVuSans-6d" x="1028.361328"/>
      <use xlink:href="#DejaVuSans-65" x="1125.773438"/>
      <use xlink:href="#DejaVuSans-64" x="1187.296875"/>
     </g>
    </g>
   </g>
   <g id="LineCollection_1">
    <path d="M 66.102102 180.889786 
L 66.102102 136.434997 
" clip-path="url(#pcbf32f8709)" style="fill: none; stroke: #d3d3d3; stroke-width: 3"/>
    <path d="M 238.419755 210.255977 
L 238.419755 58.645071 
" clip-path="url(#pcbf32f8709)" style="fill: none; stroke: #d3d3d3; stroke-width: 3"/>
    <path d="M 211.960769 204.602541 
L 211.960769 143.312151 
" clip-path="url(#pcbf32f8709)" style="fill: none; stroke: #d3d3d3; stroke-width: 3"/>
    <path d="M 67.036541 222.563604 
L 67.036541 190.452816 
" clip-path="url(#pcbf32f8709)" style="fill: none; stroke: #d3d3d3; stroke-width: 3"/>
    <path d="M 211.486362 204.349575 
L 211.486362 174.481015 
" clip-path="url(#pcbf32f8709)" style="fill: none; stroke: #d3d3d3; stroke-width: 3"/>
    <path d="M 198.799562 200.595353 
L 198.799562 176.05323 
" clip-path="url(#pcbf32f8709)" style="fill: none; stroke: #d3d3d3; stroke-width: 3"/>
    <path d="M 146.974163 230.119509 
L 146.974163 167.023448 
" clip-path="url(#pcbf32f8709)" style="fill: none; stroke: #d3d3d3; stroke-width: 3"/>
    <path d="M 271.829527 187.108571 
L 271.829527 166.886112 
" clip-path="url(#pcbf32f8709)" style="fill: none; stroke: #d3d3d3; stroke-width: 3"/>
    <path d="M 263.017053 213.087526 
L 263.017053 183.012055 
" clip-path="url(#pcbf32f8709)" style="fill: none; stroke: #d3d3d3; stroke-width: 3"/>
    <path d="M 335.644491 206.39277 
L 335.644491 196.774702 
" clip-path="url(#pcbf32f8709)" style="fill: none; stroke: #d3d3d3; stroke-width: 3"/>
    <path d="M 177.163716 201.762829 
L 177.163716 191.249306 
" clip-path="url(#pcbf32f8709)" style="fill: none; stroke: #d3d3d3; stroke-width: 3"/>
    <path d="M 257.324166 219.807576 
L 257.324166 196.579587 
" clip-path="url(#pcbf32f8709)" style="fill: none; stroke: #d3d3d3; stroke-width: 3"/>
    <path d="M 171.794288 205.194516 
L 171.794288 186.030912 
" clip-path="url(#pcbf32f8709)" style="fill: none; stroke: #d3d3d3; stroke-width: 3"/>
    <path d="M 176.459293 193.143428 
L 176.459293 163.315978 
" clip-path="url(#pcbf32f8709)" style="fill: none; stroke: #d3d3d3; stroke-width: 3"/>
    <path d="M 173.188758 204.33488 
L 173.188758 59.068715 
" clip-path="url(#pcbf32f8709)" style="fill: none; stroke: #d3d3d3; stroke-width: 3"/>
    <path d="M 196.348458 188.85307 
L 196.348458 175.803354 
" clip-path="url(#pcbf32f8709)" style="fill: none; stroke: #d3d3d3; stroke-width: 3"/>
    <path d="M 133.094157 240.821782 
L 133.094157 128.16555 
" clip-path="url(#pcbf32f8709)" style="fill: none; stroke: #d3d3d3; stroke-width: 3"/>
    <path d="M 244.529546 223.40072 
L 244.529546 185.066911 
" clip-path="url(#pcbf32f8709)" style="fill: none; stroke: #d3d3d3; stroke-width: 3"/>
    <path d="M 272.28237 200.153085 
L 272.28237 179.310583 
" clip-path="url(#pcbf32f8709)" style="fill: none; stroke: #d3d3d3; stroke-width: 3"/>
    <path d="M 212.801764 190.024622 
L 212.801764 170.77857 
" clip-path="url(#pcbf32f8709)" style="fill: none; stroke: #d3d3d3; stroke-width: 3"/>
    <path d="M 201.624441 235.143644 
L 201.624441 197.330019 
" clip-path="url(#pcbf32f8709)" style="fill: none; stroke: #d3d3d3; stroke-width: 3"/>
    <path d="M 281.892711 238.046352 
L 281.892711 227.932117 
" clip-path="url(#pcbf32f8709)" style="fill: none; stroke: #d3d3d3; stroke-width: 3"/>
    <path d="M 201.042214 203.007449 
L 201.042214 180.843438 
" clip-path="url(#pcbf32f8709)" style="fill: none; stroke: #d3d3d3; stroke-width: 3"/>
    <path d="M 165.64137 202.383646 
L 165.64137 181.717184 
" clip-path="url(#pcbf32f8709)" style="fill: none; stroke: #d3d3d3; stroke-width: 3"/>
    <path d="M 230.707044 254.072705 
L 230.707044 247.557545 
" clip-path="url(#pcbf32f8709)" style="fill: none; stroke: #d3d3d3; stroke-width: 3"/>
    <path d="M 224.561313 194.362951 
L 224.561313 175.438127 
" clip-path="url(#pcbf32f8709)" style="fill: none; stroke: #d3d3d3; stroke-width: 3"/>
    <path d="M 248.533256 218.473615 
L 248.533256 197.880972 
" clip-path="url(#pcbf32f8709)" style="fill: none; stroke: #d3d3d3; stroke-width: 3"/>
    <path d="M 202.077285 224.092675 
L 202.077285 182.348841 
" clip-path="url(#pcbf32f8709)" style="fill: none; stroke: #d3d3d3; stroke-width: 3"/>
    <path d="M 175.345155 186.394217 
L 175.345155 132.024664 
" clip-path="url(#pcbf32f8709)" style="fill: none; stroke: #d3d3d3; stroke-width: 3"/>
    <path d="M 175.524854 193.738676 
L 175.524854 166.4208 
" clip-path="url(#pcbf32f8709)" style="fill: none; stroke: #d3d3d3; stroke-width: 3"/>
    <path d="M 115.375765 196.030536 
L 115.375765 162.102383 
" clip-path="url(#pcbf32f8709)" style="fill: none; stroke: #d3d3d3; stroke-width: 3"/>
    <path d="M 249.072355 286.043372 
L 249.072355 258.629812 
" clip-path="url(#pcbf32f8709)" style="fill: none; stroke: #d3d3d3; stroke-width: 3"/>
    <path d="M 236.335239 282.670051 
L 236.335239 266.916049 
" clip-path="url(#pcbf32f8709)" style="fill: none; stroke: #d3d3d3; stroke-width: 3"/>
    <path d="M 243.738867 218.423231 
L 243.738867 176.531409 
" clip-path="url(#pcbf32f8709)" style="fill: none; stroke: #d3d3d3; stroke-width: 3"/>
    <path d="M 106.441095 282.27868 
L 106.441095 270.880617 
" clip-path="url(#pcbf32f8709)" style="fill: none; stroke: #d3d3d3; stroke-width: 3"/>
    <path d="M 331.813293 208.340156 
L 331.813293 173.224864 
" clip-path="url(#pcbf32f8709)" style="fill: none; stroke: #d3d3d3; stroke-width: 3"/>
    <path d="M 236.284923 204.825919 
L 236.284923 194.853338 
" clip-path="url(#pcbf32f8709)" style="fill: none; stroke: #d3d3d3; stroke-width: 3"/>
    <path d="M 137.169747 270.1752 
L 137.169747 267.031968 
" clip-path="url(#pcbf32f8709)" style="fill: none; stroke: #d3d3d3; stroke-width: 3"/>
    <path d="M 292.344047 205.153794 
L 292.344047 194.526026 
" clip-path="url(#pcbf32f8709)" style="fill: none; stroke: #d3d3d3; stroke-width: 3"/>
    <path d="M 133.51106 280.753368 
L 133.51106 266.499904 
" clip-path="url(#pcbf32f8709)" style="fill: none; stroke: #d3d3d3; stroke-width: 3"/>
    <path d="M 219.479405 200.64134 
L 219.479405 181.906207 
" clip-path="url(#pcbf32f8709)" style="fill: none; stroke: #d3d3d3; stroke-width: 3"/>
    <path d="M 285.989865 211.795108 
L 285.989865 191.942022 
" clip-path="url(#pcbf32f8709)" style="fill: none; stroke: #d3d3d3; stroke-width: 3"/>
    <path d="M 198.857066 279.051773 
L 198.857066 270.525749 
" clip-path="url(#pcbf32f8709)" style="fill: none; stroke: #d3d3d3; stroke-width: 3"/>
    <path d="M 199.94964 273.058411 
L 199.94964 263.410582 
" clip-path="url(#pcbf32f8709)" style="fill: none; stroke: #d3d3d3; stroke-width: 3"/>
    <path d="M 279.434419 187.059427 
L 279.434419 162.506616 
" clip-path="url(#pcbf32f8709)" style="fill: none; stroke: #d3d3d3; stroke-width: 3"/>
    <path d="M 252.292574 284.530095 
L 252.292574 274.804265 
" clip-path="url(#pcbf32f8709)" style="fill: none; stroke: #d3d3d3; stroke-width: 3"/>
    <path d="M 313.45517 280.862648 
L 313.45517 270.659813 
" clip-path="url(#pcbf32f8709)" style="fill: none; stroke: #d3d3d3; stroke-width: 3"/>
    <path d="M 235.034213 249.111112 
L 235.034213 81.911452 
" clip-path="url(#pcbf32f8709)" style="fill: none; stroke: #d3d3d3; stroke-width: 3"/>
    <path d="M 267.473606 281.140312 
L 267.473606 270.668007 
" clip-path="url(#pcbf32f8709)" style="fill: none; stroke: #d3d3d3; stroke-width: 3"/>
    <path d="M 315.288107 281.319505 
L 315.288107 269.165205 
" clip-path="url(#pcbf32f8709)" style="fill: none; stroke: #d3d3d3; stroke-width: 3"/>
    <path d="M 252.213506 265.534074 
L 252.213506 255.846711 
" clip-path="url(#pcbf32f8709)" style="fill: none; stroke: #d3d3d3; stroke-width: 3"/>
    <path d="M 175.136703 264.560336 
L 175.136703 235.936758 
" clip-path="url(#pcbf32f8709)" style="fill: none; stroke: #d3d3d3; stroke-width: 3"/>
    <path d="M 268.451172 219.973972 
L 268.451172 205.18303 
" clip-path="url(#pcbf32f8709)" style="fill: none; stroke: #d3d3d3; stroke-width: 3"/>
    <path d="M 331.561713 235.832088 
L 331.561713 227.054125 
" clip-path="url(#pcbf32f8709)" style="fill: none; stroke: #d3d3d3; stroke-width: 3"/>
    <path d="M 215.396628 270.066838 
L 215.396628 261.643294 
" clip-path="url(#pcbf32f8709)" style="fill: none; stroke: #d3d3d3; stroke-width: 3"/>
    <path d="M 213.290547 269.596263 
L 213.290547 253.386918 
" clip-path="url(#pcbf32f8709)" style="fill: none; stroke: #d3d3d3; stroke-width: 3"/>
    <path d="M 189.598936 277.0807 
L 189.598936 276.213896 
" clip-path="url(#pcbf32f8709)" style="fill: none; stroke: #d3d3d3; stroke-width: 3"/>
    <path d="M 332.740543 274.148158 
L 332.740543 265.944571 
" clip-path="url(#pcbf32f8709)" style="fill: none; stroke: #d3d3d3; stroke-width: 3"/>
    <path d="M 355.857115 202.522663 
L 355.857115 199.723754 
" clip-path="url(#pcbf32f8709)" style="fill: none; stroke: #d3d3d3; stroke-width: 3"/>
    <path d="M 187.241276 243.251499 
L 187.241276 197.498789 
" clip-path="url(#pcbf32f8709)" style="fill: none; stroke: #d3d3d3; stroke-width: 3"/>
    <path d="M 212.974275 224.718119 
L 212.974275 214.106177 
" clip-path="url(#pcbf32f8709)" style="fill: none; stroke: #d3d3d3; stroke-width: 3"/>
    <path d="M 284.171304 285.532014 
L 284.171304 266.001857 
" clip-path="url(#pcbf32f8709)" style="fill: none; stroke: #d3d3d3; stroke-width: 3"/>
    <path d="M 299.862683 276.964146 
L 299.862683 267.519118 
" clip-path="url(#pcbf32f8709)" style="fill: none; stroke: #d3d3d3; stroke-width: 3"/>
    <path d="M 339.252861 287.773473 
L 339.252861 277.289221 
" clip-path="url(#pcbf32f8709)" style="fill: none; stroke: #d3d3d3; stroke-width: 3"/>
    <path d="M 191.439061 217.879329 
L 191.439061 208.876075 
" clip-path="url(#pcbf32f8709)" style="fill: none; stroke: #d3d3d3; stroke-width: 3"/>
    <path d="M 239.936421 292.950518 
L 239.936421 287.568776 
" clip-path="url(#pcbf32f8709)" style="fill: none; stroke: #d3d3d3; stroke-width: 3"/>
    <path d="M 270.772893 258.51872 
L 270.772893 249.273291 
" clip-path="url(#pcbf32f8709)" style="fill: none; stroke: #d3d3d3; stroke-width: 3"/>
    <path d="M 271.613887 259.077212 
L 271.613887 255.848995 
" clip-path="url(#pcbf32f8709)" style="fill: none; stroke: #d3d3d3; stroke-width: 3"/>
    <path d="M 196.405962 261.212601 
L 196.405962 250.978295 
" clip-path="url(#pcbf32f8709)" style="fill: none; stroke: #d3d3d3; stroke-width: 3"/>
    <path d="M 260.84628 271.375832 
L 260.84628 265.420792 
" clip-path="url(#pcbf32f8709)" style="fill: none; stroke: #d3d3d3; stroke-width: 3"/>
    <path d="M 109.31629 213.66794 
L 109.31629 187.825245 
" clip-path="url(#pcbf32f8709)" style="fill: none; stroke: #d3d3d3; stroke-width: 3"/>
    <path d="M 296.153681 280.989603 
L 296.153681 278.293284 
" clip-path="url(#pcbf32f8709)" style="fill: none; stroke: #d3d3d3; stroke-width: 3"/>
    <path d="M 98.397736 244.808885 
L 98.397736 234.6568 
" clip-path="url(#pcbf32f8709)" style="fill: none; stroke: #d3d3d3; stroke-width: 3"/>
    <path d="M 304.707387 284.212936 
L 304.707387 274.268117 
" clip-path="url(#pcbf32f8709)" style="fill: none; stroke: #d3d3d3; stroke-width: 3"/>
    <path d="M 312.585423 288.154941 
L 312.585423 283.443238 
" clip-path="url(#pcbf32f8709)" style="fill: none; stroke: #d3d3d3; stroke-width: 3"/>
    <path d="M 306.935664 255.115871 
L 306.935664 244.151638 
" clip-path="url(#pcbf32f8709)" style="fill: none; stroke: #d3d3d3; stroke-width: 3"/>
    <path d="M 321.836364 292.599081 
L 321.836364 267.374946 
" clip-path="url(#pcbf32f8709)" style="fill: none; stroke: #d3d3d3; stroke-width: 3"/>
    <path d="M 316.891028 290.838295 
L 316.891028 276.756974 
" clip-path="url(#pcbf32f8709)" style="fill: none; stroke: #d3d3d3; stroke-width: 3"/>
    <path d="M 294.407 272.645865 
L 294.407 269.743256 
" clip-path="url(#pcbf32f8709)" style="fill: none; stroke: #d3d3d3; stroke-width: 3"/>
    <path d="M 289.943259 277.445123 
L 289.943259 270.428936 
" clip-path="url(#pcbf32f8709)" style="fill: none; stroke: #d3d3d3; stroke-width: 3"/>
    <path d="M 362.297553 279.275456 
L 362.297553 274.624209 
" clip-path="url(#pcbf32f8709)" style="fill: none; stroke: #d3d3d3; stroke-width: 3"/>
    <path d="M 265.216577 268.727547 
L 265.216577 261.266375 
" clip-path="url(#pcbf32f8709)" style="fill: none; stroke: #d3d3d3; stroke-width: 3"/>
    <path d="M 216.546706 281.485775 
L 216.546706 276.711679 
" clip-path="url(#pcbf32f8709)" style="fill: none; stroke: #d3d3d3; stroke-width: 3"/>
    <path d="M 260.731272 292.363147 
L 260.731272 284.073562 
" clip-path="url(#pcbf32f8709)" style="fill: none; stroke: #d3d3d3; stroke-width: 3"/>
    <path d="M 263.354888 289.122213 
L 263.354888 271.526598 
" clip-path="url(#pcbf32f8709)" style="fill: none; stroke: #d3d3d3; stroke-width: 3"/>
    <path d="M 229.492274 234.936488 
L 229.492274 233.985442 
" clip-path="url(#pcbf32f8709)" style="fill: none; stroke: #d3d3d3; stroke-width: 3"/>
    <path d="M 260.573137 275.766099 
L 260.573137 264.371493 
" clip-path="url(#pcbf32f8709)" style="fill: none; stroke: #d3d3d3; stroke-width: 3"/>
    <path d="M 199.015201 253.205699 
L 199.015201 243.070864 
" clip-path="url(#pcbf32f8709)" style="fill: none; stroke: #d3d3d3; stroke-width: 3"/>
    <path d="M 197.261332 273.89892 
L 197.261332 269.736484 
" clip-path="url(#pcbf32f8709)" style="fill: none; stroke: #d3d3d3; stroke-width: 3"/>
    <path d="M 102.739281 249.276746 
L 102.739281 227.939707 
" clip-path="url(#pcbf32f8709)" style="fill: none; stroke: #d3d3d3; stroke-width: 3"/>
    <path d="M 376.666342 258.709941 
L 376.666342 251.078022 
" clip-path="url(#pcbf32f8709)" style="fill: none; stroke: #d3d3d3; stroke-width: 3"/>
    <path d="M 190.777766 221.815482 
L 190.777766 190.062036 
" clip-path="url(#pcbf32f8709)" style="fill: none; stroke: #d3d3d3; stroke-width: 3"/>
    <path d="M 197.512912 237.669037 
L 197.512912 226.400665 
" clip-path="url(#pcbf32f8709)" style="fill: none; stroke: #d3d3d3; stroke-width: 3"/>
    <path d="M 189.527056 282.54426 
L 189.527056 264.632074 
" clip-path="url(#pcbf32f8709)" style="fill: none; stroke: #d3d3d3; stroke-width: 3"/>
    <path d="M 356.69811 291.845419 
L 356.69811 266.475733 
" clip-path="url(#pcbf32f8709)" style="fill: none; stroke: #d3d3d3; stroke-width: 3"/>
    <path d="M 160.660094 275.439798 
L 160.660094 265.094804 
" clip-path="url(#pcbf32f8709)" style="fill: none; stroke: #d3d3d3; stroke-width: 3"/>
    <path d="M 223.605311 270.907184 
L 223.605311 259.712293 
" clip-path="url(#pcbf32f8709)" style="fill: none; stroke: #d3d3d3; stroke-width: 3"/>
    <path d="M 332.532092 282.042248 
L 332.532092 271.495344 
" clip-path="url(#pcbf32f8709)" style="fill: none; stroke: #d3d3d3; stroke-width: 3"/>
    <path d="M 375.933167 267.552355 
L 375.933167 252.271726 
" clip-path="url(#pcbf32f8709)" style="fill: none; stroke: #d3d3d3; stroke-width: 3"/>
    <path d="M 195.960306 270.200508 
L 195.960306 262.864505 
" clip-path="url(#pcbf32f8709)" style="fill: none; stroke: #d3d3d3; stroke-width: 3"/>
    <path d="M 258.970215 257.314543 
L 258.970215 250.401964 
" clip-path="url(#pcbf32f8709)" style="fill: none; stroke: #d3d3d3; stroke-width: 3"/>
    <path d="M 311.435345 280.315659 
L 311.435345 273.222423 
" clip-path="url(#pcbf32f8709)" style="fill: none; stroke: #d3d3d3; stroke-width: 3"/>
    <path d="M 305.296802 281.894651 
L 305.296802 272.233404 
" clip-path="url(#pcbf32f8709)" style="fill: none; stroke: #d3d3d3; stroke-width: 3"/>
    <path d="M 231.418654 275.772439 
L 231.418654 270.348495 
" clip-path="url(#pcbf32f8709)" style="fill: none; stroke: #d3d3d3; stroke-width: 3"/>
    <path d="M 176.9337 289.750559 
L 176.9337 280.543637 
" clip-path="url(#pcbf32f8709)" style="fill: none; stroke: #d3d3d3; stroke-width: 3"/>
    <path d="M 365.151184 290.558536 
L 365.151184 272.742057 
" clip-path="url(#pcbf32f8709)" style="fill: none; stroke: #d3d3d3; stroke-width: 3"/>
    <path d="M 181.713713 270.0543 
L 181.713713 260.263222 
" clip-path="url(#pcbf32f8709)" style="fill: none; stroke: #d3d3d3; stroke-width: 3"/>
    <path d="M 299.718923 283.477923 
L 299.718923 268.088177 
" clip-path="url(#pcbf32f8709)" style="fill: none; stroke: #d3d3d3; stroke-width: 3"/>
    <path d="M 401.910559 195.114281 
L 401.910559 175.072934 
" clip-path="url(#pcbf32f8709)" style="fill: none; stroke: #d3d3d3; stroke-width: 3"/>
    <path d="M 322.583915 298.032215 
L 322.583915 279.695538 
" clip-path="url(#pcbf32f8709)" style="fill: none; stroke: #d3d3d3; stroke-width: 3"/>
    <path d="M 350.739267 289.891486 
L 350.739267 285.058212 
" clip-path="url(#pcbf32f8709)" style="fill: none; stroke: #d3d3d3; stroke-width: 3"/>
    <path d="M 325.300975 178.036396 
L 325.300975 148.469029 
" clip-path="url(#pcbf32f8709)" style="fill: none; stroke: #d3d3d3; stroke-width: 3"/>
    <path d="M 165.583866 270.748061 
L 165.583866 258.521366 
" clip-path="url(#pcbf32f8709)" style="fill: none; stroke: #d3d3d3; stroke-width: 3"/>
    <path d="M 309.846799 276.016987 
L 309.846799 269.771491 
" clip-path="url(#pcbf32f8709)" style="fill: none; stroke: #d3d3d3; stroke-width: 3"/>
    <path d="M 238.829471 271.440111 
L 238.829471 260.30619 
" clip-path="url(#pcbf32f8709)" style="fill: none; stroke: #d3d3d3; stroke-width: 3"/>
    <path d="M 352.083421 240.952303 
L 352.083421 197.703836 
" clip-path="url(#pcbf32f8709)" style="fill: none; stroke: #d3d3d3; stroke-width: 3"/>
    <path d="M 325.861638 281.300412 
L 325.861638 265.789745 
" clip-path="url(#pcbf32f8709)" style="fill: none; stroke: #d3d3d3; stroke-width: 3"/>
    <path d="M 394.305667 280.040646 
L 394.305667 274.767051 
" clip-path="url(#pcbf32f8709)" style="fill: none; stroke: #d3d3d3; stroke-width: 3"/>
    <path d="M 431.719148 282.766702 
L 431.719148 274.931172 
" clip-path="url(#pcbf32f8709)" style="fill: none; stroke: #d3d3d3; stroke-width: 3"/>
    <path d="M 387.635213 219.633863 
L 387.635213 196.301444 
" clip-path="url(#pcbf32f8709)" style="fill: none; stroke: #d3d3d3; stroke-width: 3"/>
   </g>
   <g id="line2d_13">
    <path d="M 66.102102 207.395079 
L 238.419755 236.166178 
L 211.960769 231.748441 
L 67.036541 207.551098 
L 211.486362 231.669231 
L 198.799562 229.550974 
L 146.974163 220.897921 
L 271.829527 241.744457 
L 263.017053 240.273078 
L 335.644491 252.399353 
L 177.163716 225.938534 
L 257.324166 239.322562 
L 171.794288 225.042025 
L 176.459293 225.82092 
L 173.188758 225.274854 
L 196.348458 229.141724 
L 133.094157 218.580439 
L 244.529546 237.186303 
L 272.28237 241.820066 
L 212.801764 231.888858 
L 201.624441 230.022631 
L 281.892711 243.424661 
L 201.042214 229.925419 
L 165.64137 224.0147 
L 230.707044 234.878422 
L 224.561313 233.852297 
L 248.533256 237.854784 
L 202.077285 230.09824 
L 175.345155 225.634897 
L 175.524854 225.664901 
L 115.375765 215.62208 
L 249.072355 237.944795 
L 236.335239 235.818136 
L 243.738867 237.054287 
L 106.441095 214.130298 
L 331.813293 251.759675 
L 236.284923 235.809735 
L 137.169747 219.260922 
L 292.344047 245.169674 
L 133.51106 218.650048 
L 219.479405 233.003794 
L 285.989865 244.108745 
L 198.857066 229.560575 
L 199.94964 229.742997 
L 279.434419 243.014211 
L 252.292574 238.48246 
L 313.45517 248.694502 
L 235.034213 235.60091 
L 267.473606 241.017169 
L 315.288107 249.00054 
L 252.213506 238.469259 
L 175.136703 225.600093 
L 268.451172 241.180388 
L 331.561713 251.71767 
L 215.396628 232.322111 
L 213.290547 231.970468 
L 189.598936 228.014787 
L 332.740543 251.914494 
L 355.857115 255.774164 
L 187.241276 227.621139 
L 212.974275 231.917662 
L 284.171304 243.805108 
L 299.862683 246.425026 
L 339.252861 253.001826 
L 191.439061 228.322024 
L 239.936421 236.419409 
L 270.772893 241.568036 
L 271.613887 241.708453 
L 196.405962 229.151325 
L 260.84628 239.910634 
L 109.31629 214.610356 
L 296.153681 245.805751 
L 98.397736 212.787335 
L 304.707387 247.233925 
L 312.585423 248.549285 
L 306.935664 247.60597 
L 321.836364 250.093873 
L 316.891028 249.268172 
L 294.407 245.514116 
L 289.943259 244.768825 
L 362.297553 256.849494 
L 265.216577 240.640323 
L 216.546706 232.514134 
L 260.731272 239.891432 
L 263.354888 240.329485 
L 229.492274 234.675597 
L 260.573137 239.865028 
L 199.015201 229.586978 
L 197.261332 229.294143 
L 102.739281 213.512223 
L 376.666342 259.248586 
L 190.777766 228.211611 
L 197.512912 229.336148 
L 189.527056 228.002786 
L 356.69811 255.914581 
L 160.660094 223.182999 
L 223.605311 233.692678 
L 332.532092 251.87969 
L 375.933167 259.126171 
L 195.960306 229.076916 
L 258.970215 239.597396 
L 311.435345 248.357261 
L 305.296802 247.332337 
L 231.418654 234.997236 
L 176.9337 225.90013 
L 365.151184 257.325952 
L 181.713713 226.698227 
L 299.718923 246.401023 
L 401.910559 263.463499 
L 322.583915 250.218688 
L 350.739267 254.91966 
L 325.300975 250.672343 
L 165.583866 224.005099 
L 309.846799 248.092029 
L 238.829471 236.234587 
L 352.083421 255.144087 
L 325.861638 250.765954 
L 394.305667 262.193744 
L 431.719148 268.440504 
L 387.635213 261.080009 
" clip-path="url(#pcbf32f8709)" style="fill: none; stroke: #1f77b4; stroke-width: 1.5; stroke-linecap: square"/>
   </g>
   <g id="line2d_14">
    <defs>
     <path id="mfa841c9315" d="M 0 3 
C 0.795609 3 1.55874 2.683901 2.12132 2.12132 
C 2.683901 1.55874 3 0.795609 3 0 
C 3 -0.795609 2.683901 -1.55874 2.12132 -2.12132 
C 1.55874 -2.683901 0.795609 -3 0 -3 
C -0.795609 -3 -1.55874 -2.683901 -2.12132 -2.12132 
C -2.683901 -1.55874 -3 -0.795609 -3 0 
C -3 0.795609 -2.683901 1.55874 -2.12132 2.12132 
C -1.55874 2.683901 -0.795609 3 0 3 
z
" style="stroke: #000000"/>
    </defs>
    <g clip-path="url(#pcbf32f8709)">
     <use xlink:href="#mfa841c9315" x="66.102102" y="158.662391" style="stroke: #000000"/>
     <use xlink:href="#mfa841c9315" x="238.419755" y="134.450524" style="stroke: #000000"/>
     <use xlink:href="#mfa841c9315" x="211.960769" y="173.957346" style="stroke: #000000"/>
     <use xlink:href="#mfa841c9315" x="67.036541" y="206.50821" style="stroke: #000000"/>
     <use xlink:href="#mfa841c9315" x="211.486362" y="189.415295" style="stroke: #000000"/>
     <use xlink:href="#mfa841c9315" x="198.799562" y="188.324291" style="stroke: #000000"/>
     <use xlink:href="#mfa841c9315" x="146.974163" y="198.571479" style="stroke: #000000"/>
     <use xlink:href="#mfa841c9315" x="271.829527" y="176.997341" style="stroke: #000000"/>
     <use xlink:href="#mfa841c9315" x="263.017053" y="198.04979" style="stroke: #000000"/>
     <use xlink:href="#mfa841c9315" x="335.644491" y="201.583736" style="stroke: #000000"/>
     <use xlink:href="#mfa841c9315" x="177.163716" y="196.506068" style="stroke: #000000"/>
     <use xlink:href="#mfa841c9315" x="257.324166" y="208.193582" style="stroke: #000000"/>
     <use xlink:href="#mfa841c9315" x="171.794288" y="195.612714" style="stroke: #000000"/>
     <use xlink:href="#mfa841c9315" x="176.459293" y="178.229703" style="stroke: #000000"/>
     <use xlink:href="#mfa841c9315" x="173.188758" y="131.701798" style="stroke: #000000"/>
     <use xlink:href="#mfa841c9315" x="196.348458" y="182.328212" style="stroke: #000000"/>
     <use xlink:href="#mfa841c9315" x="133.094157" y="184.493666" style="stroke: #000000"/>
     <use xlink:href="#mfa841c9315" x="244.529546" y="204.233816" style="stroke: #000000"/>
     <use xlink:href="#mfa841c9315" x="272.28237" y="189.731834" style="stroke: #000000"/>
     <use xlink:href="#mfa841c9315" x="212.801764" y="180.401596" style="stroke: #000000"/>
     <use xlink:href="#mfa841c9315" x="201.624441" y="216.236832" style="stroke: #000000"/>
     <use xlink:href="#mfa841c9315" x="281.892711" y="232.989234" style="stroke: #000000"/>
     <use xlink:href="#mfa841c9315" x="201.042214" y="191.925443" style="stroke: #000000"/>
     <use xlink:href="#mfa841c9315" x="165.64137" y="192.050415" style="stroke: #000000"/>
     <use xlink:href="#mfa841c9315" x="230.707044" y="250.815125" style="stroke: #000000"/>
     <use xlink:href="#mfa841c9315" x="224.561313" y="184.900539" style="stroke: #000000"/>
     <use xlink:href="#mfa841c9315" x="248.533256" y="208.177293" style="stroke: #000000"/>
     <use xlink:href="#mfa841c9315" x="202.077285" y="203.220758" style="stroke: #000000"/>
     <use xlink:href="#mfa841c9315" x="175.345155" y="159.20944" style="stroke: #000000"/>
     <use xlink:href="#mfa841c9315" x="175.524854" y="180.079738" style="stroke: #000000"/>
     <use xlink:href="#mfa841c9315" x="115.375765" y="179.066459" style="stroke: #000000"/>
     <use xlink:href="#mfa841c9315" x="249.072355" y="272.336592" style="stroke: #000000"/>
     <use xlink:href="#mfa841c9315" x="236.335239" y="274.79305" style="stroke: #000000"/>
     <use xlink:href="#mfa841c9315" x="243.738867" y="197.47732" style="stroke: #000000"/>
     <use xlink:href="#mfa841c9315" x="106.441095" y="276.579648" style="stroke: #000000"/>
     <use xlink:href="#mfa841c9315" x="331.813293" y="190.78251" style="stroke: #000000"/>
     <use xlink:href="#mfa841c9315" x="236.284923" y="199.839628" style="stroke: #000000"/>
     <use xlink:href="#mfa841c9315" x="137.169747" y="268.603584" style="stroke: #000000"/>
     <use xlink:href="#mfa841c9315" x="292.344047" y="199.83991" style="stroke: #000000"/>
     <use xlink:href="#mfa841c9315" x="133.51106" y="273.626636" style="stroke: #000000"/>
     <use xlink:href="#mfa841c9315" x="219.479405" y="191.273774" style="stroke: #000000"/>
     <use xlink:href="#mfa841c9315" x="285.989865" y="201.868565" style="stroke: #000000"/>
     <use xlink:href="#mfa841c9315" x="198.857066" y="274.788761" style="stroke: #000000"/>
     <use xlink:href="#mfa841c9315" x="199.94964" y="268.234497" style="stroke: #000000"/>
     <use xlink:href="#mfa841c9315" x="279.434419" y="174.783022" style="stroke: #000000"/>
     <use xlink:href="#mfa841c9315" x="252.292574" y="279.66718" style="stroke: #000000"/>
     <use xlink:href="#mfa841c9315" x="313.45517" y="275.76123" style="stroke: #000000"/>
     <use xlink:href="#mfa841c9315" x="235.034213" y="165.511282" style="stroke: #000000"/>
     <use xlink:href="#mfa841c9315" x="267.473606" y="275.90416" style="stroke: #000000"/>
     <use xlink:href="#mfa841c9315" x="315.288107" y="275.242355" style="stroke: #000000"/>
     <use xlink:href="#mfa841c9315" x="252.213506" y="260.690393" style="stroke: #000000"/>
     <use xlink:href="#mfa841c9315" x="175.136703" y="250.248547" style="stroke: #000000"/>
     <use xlink:href="#mfa841c9315" x="268.451172" y="212.578501" style="stroke: #000000"/>
     <use xlink:href="#mfa841c9315" x="331.561713" y="231.443107" style="stroke: #000000"/>
     <use xlink:href="#mfa841c9315" x="215.396628" y="265.855066" style="stroke: #000000"/>
     <use xlink:href="#mfa841c9315" x="213.290547" y="261.491591" style="stroke: #000000"/>
     <use xlink:href="#mfa841c9315" x="189.598936" y="276.647298" style="stroke: #000000"/>
     <use xlink:href="#mfa841c9315" x="332.740543" y="270.046364" style="stroke: #000000"/>
     <use xlink:href="#mfa841c9315" x="355.857115" y="201.123209" style="stroke: #000000"/>
     <use xlink:href="#mfa841c9315" x="187.241276" y="220.375144" style="stroke: #000000"/>
     <use xlink:href="#mfa841c9315" x="212.974275" y="219.412148" style="stroke: #000000"/>
     <use xlink:href="#mfa841c9315" x="284.171304" y="275.766935" style="stroke: #000000"/>
     <use xlink:href="#mfa841c9315" x="299.862683" y="272.241632" style="stroke: #000000"/>
     <use xlink:href="#mfa841c9315" x="339.252861" y="282.531347" style="stroke: #000000"/>
     <use xlink:href="#mfa841c9315" x="191.439061" y="213.377702" style="stroke: #000000"/>
     <use xlink:href="#mfa841c9315" x="239.936421" y="290.259647" style="stroke: #000000"/>
     <use xlink:href="#mfa841c9315" x="270.772893" y="253.896005" style="stroke: #000000"/>
     <use xlink:href="#mfa841c9315" x="271.613887" y="257.463104" style="stroke: #000000"/>
     <use xlink:href="#mfa841c9315" x="196.405962" y="256.095448" style="stroke: #000000"/>
     <use xlink:href="#mfa841c9315" x="260.84628" y="268.398312" style="stroke: #000000"/>
     <use xlink:href="#mfa841c9315" x="109.31629" y="200.746593" style="stroke: #000000"/>
     <use xlink:href="#mfa841c9315" x="296.153681" y="279.641443" style="stroke: #000000"/>
     <use xlink:href="#mfa841c9315" x="98.397736" y="239.732843" style="stroke: #000000"/>
     <use xlink:href="#mfa841c9315" x="304.707387" y="279.240526" style="stroke: #000000"/>
     <use xlink:href="#mfa841c9315" x="312.585423" y="285.79909" style="stroke: #000000"/>
     <use xlink:href="#mfa841c9315" x="306.935664" y="249.633754" style="stroke: #000000"/>
     <use xlink:href="#mfa841c9315" x="321.836364" y="279.987013" style="stroke: #000000"/>
     <use xlink:href="#mfa841c9315" x="316.891028" y="283.797634" style="stroke: #000000"/>
     <use xlink:href="#mfa841c9315" x="294.407" y="271.194561" style="stroke: #000000"/>
     <use xlink:href="#mfa841c9315" x="289.943259" y="273.93703" style="stroke: #000000"/>
     <use xlink:href="#mfa841c9315" x="362.297553" y="276.949833" style="stroke: #000000"/>
     <use xlink:href="#mfa841c9315" x="265.216577" y="264.996961" style="stroke: #000000"/>
     <use xlink:href="#mfa841c9315" x="216.546706" y="279.098727" style="stroke: #000000"/>
     <use xlink:href="#mfa841c9315" x="260.731272" y="288.218355" style="stroke: #000000"/>
     <use xlink:href="#mfa841c9315" x="263.354888" y="280.324405" style="stroke: #000000"/>
     <use xlink:href="#mfa841c9315" x="229.492274" y="234.460965" style="stroke: #000000"/>
     <use xlink:href="#mfa841c9315" x="260.573137" y="270.068796" style="stroke: #000000"/>
     <use xlink:href="#mfa841c9315" x="199.015201" y="248.138282" style="stroke: #000000"/>
     <use xlink:href="#mfa841c9315" x="197.261332" y="271.817702" style="stroke: #000000"/>
     <use xlink:href="#mfa841c9315" x="102.739281" y="238.608227" style="stroke: #000000"/>
     <use xlink:href="#mfa841c9315" x="376.666342" y="254.893981" style="stroke: #000000"/>
     <use xlink:href="#mfa841c9315" x="190.777766" y="205.938759" style="stroke: #000000"/>
     <use xlink:href="#mfa841c9315" x="197.512912" y="232.034851" style="stroke: #000000"/>
     <use xlink:href="#mfa841c9315" x="189.527056" y="273.588167" style="stroke: #000000"/>
     <use xlink:href="#mfa841c9315" x="356.69811" y="279.160576" style="stroke: #000000"/>
     <use xlink:href="#mfa841c9315" x="160.660094" y="270.267301" style="stroke: #000000"/>
     <use xlink:href="#mfa841c9315" x="223.605311" y="265.309739" style="stroke: #000000"/>
     <use xlink:href="#mfa841c9315" x="332.532092" y="276.768796" style="stroke: #000000"/>
     <use xlink:href="#mfa841c9315" x="375.933167" y="259.912041" style="stroke: #000000"/>
     <use xlink:href="#mfa841c9315" x="195.960306" y="266.532506" style="stroke: #000000"/>
     <use xlink:href="#mfa841c9315" x="258.970215" y="253.858253" style="stroke: #000000"/>
     <use xlink:href="#mfa841c9315" x="311.435345" y="276.769041" style="stroke: #000000"/>
     <use xlink:href="#mfa841c9315" x="305.296802" y="277.064028" style="stroke: #000000"/>
     <use xlink:href="#mfa841c9315" x="231.418654" y="273.060467" style="stroke: #000000"/>
     <use xlink:href="#mfa841c9315" x="176.9337" y="285.147098" style="stroke: #000000"/>
     <use xlink:href="#mfa841c9315" x="365.151184" y="281.650297" style="stroke: #000000"/>
     <use xlink:href="#mfa841c9315" x="181.713713" y="265.158761" style="stroke: #000000"/>
     <use xlink:href="#mfa841c9315" x="299.718923" y="275.78305" style="stroke: #000000"/>
     <use xlink:href="#mfa841c9315" x="401.910559" y="185.093607" style="stroke: #000000"/>
     <use xlink:href="#mfa841c9315" x="322.583915" y="288.863876" style="stroke: #000000"/>
     <use xlink:href="#mfa841c9315" x="350.739267" y="287.474849" style="stroke: #000000"/>
     <use xlink:href="#mfa841c9315" x="325.300975" y="163.252713" style="stroke: #000000"/>
     <use xlink:href="#mfa841c9315" x="165.583866" y="264.634714" style="stroke: #000000"/>
     <use xlink:href="#mfa841c9315" x="309.846799" y="272.894239" style="stroke: #000000"/>
     <use xlink:href="#mfa841c9315" x="238.829471" y="265.87315" style="stroke: #000000"/>
     <use xlink:href="#mfa841c9315" x="352.083421" y="219.328069" style="stroke: #000000"/>
     <use xlink:href="#mfa841c9315" x="325.861638" y="273.545079" style="stroke: #000000"/>
     <use xlink:href="#mfa841c9315" x="394.305667" y="277.403849" style="stroke: #000000"/>
     <use xlink:href="#mfa841c9315" x="431.719148" y="278.848937" style="stroke: #000000"/>
     <use xlink:href="#mfa841c9315" x="387.635213" y="207.967654" style="stroke: #000000"/>
    </g>
   </g>
   <g id="patch_3">
    <path d="M 47.82125 303.64 
L 47.82125 46.675714 
" style="fill: none; stroke: #000000; stroke-width: 0.8; stroke-linejoin: miter; stroke-linecap: square"/>
   </g>
   <g id="patch_4">
    <path d="M 450 303.64 
L 450 46.675714 
" style="fill: none; stroke: #000000; stroke-width: 0.8; stroke-linejoin: miter; stroke-linecap: square"/>
   </g>
   <g id="patch_5">
    <path d="M 47.82125 303.64 
L 450 303.64 
" style="fill: none; stroke: #000000; stroke-width: 0.8; stroke-linejoin: miter; stroke-linecap: square"/>
   </g>
   <g id="patch_6">
    <path d="M 47.82125 46.675714 
L 450 46.675714 
" style="fill: none; stroke: #000000; stroke-width: 0.8; stroke-linejoin: miter; stroke-linecap: square"/>
   </g>
   <g id="text_15">
    <!-- y = -0.00x + -0.33 -->
    <g transform="translate(41.511 18.599375)scale(0.1 -0.1)">
     <defs>
      <path id="DejaVuSans-79" d="M 2059 -325 
Q 1816 -950 1584 -1140 
Q 1353 -1331 966 -1331 
L 506 -1331 
L 506 -850 
L 844 -850 
Q 1081 -850 1212 -737 
Q 1344 -625 1503 -206 
L 1606 56 
L 191 3500 
L 800 3500 
L 1894 763 
L 2988 3500 
L 3597 3500 
L 2059 -325 
z
" transform="scale(0.015625)"/>
      <path id="DejaVuSans-20" transform="scale(0.015625)"/>
      <path id="DejaVuSans-3d" d="M 678 2906 
L 4684 2906 
L 4684 2381 
L 678 2381 
L 678 2906 
z
M 678 1631 
L 4684 1631 
L 4684 1100 
L 678 1100 
L 678 1631 
z
" transform="scale(0.015625)"/>
      <path id="DejaVuSans-2d" d="M 313 2009 
L 1997 2009 
L 1997 1497 
L 313 1497 
L 313 2009 
z
" transform="scale(0.015625)"/>
      <path id="DejaVuSans-78" d="M 3513 3500 
L 2247 1797 
L 3578 0 
L 2900 0 
L 1881 1375 
L 863 0 
L 184 0 
L 1544 1831 
L 300 3500 
L 978 3500 
L 1906 2253 
L 2834 3500 
L 3513 3500 
z
" transform="scale(0.015625)"/>
      <path id="DejaVuSans-2b" d="M 2944 4013 
L 2944 2272 
L 4684 2272 
L 4684 1741 
L 2944 1741 
L 2944 0 
L 2419 0 
L 2419 1741 
L 678 1741 
L 678 2272 
L 2419 2272 
L 2419 4013 
L 2944 4013 
z
" transform="scale(0.015625)"/>
      <path id="DejaVuSans-33" d="M 2597 2516 
Q 3050 2419 3304 2112 
Q 3559 1806 3559 1356 
Q 3559 666 3084 287 
Q 2609 -91 1734 -91 
Q 1441 -91 1130 -33 
Q 819 25 488 141 
L 488 750 
Q 750 597 1062 519 
Q 1375 441 1716 441 
Q 2309 441 2620 675 
Q 2931 909 2931 1356 
Q 2931 1769 2642 2001 
Q 2353 2234 1838 2234 
L 1294 2234 
L 1294 2753 
L 1863 2753 
Q 2328 2753 2575 2939 
Q 2822 3125 2822 3475 
Q 2822 3834 2567 4026 
Q 2313 4219 1838 4219 
Q 1578 4219 1281 4162 
Q 984 4106 628 3988 
L 628 4550 
Q 988 4650 1302 4700 
Q 1616 4750 1894 4750 
Q 2613 4750 3031 4423 
Q 3450 4097 3450 3541 
Q 3450 3153 3228 2886 
Q 3006 2619 2597 2516 
z
" transform="scale(0.015625)"/>
     </defs>
     <use xlink:href="#DejaVuSans-79"/>
     <use xlink:href="#DejaVuSans-20" x="59.179688"/>
     <use xlink:href="#DejaVuSans-3d" x="90.966797"/>
     <use xlink:href="#DejaVuSans-20" x="174.755859"/>
     <use xlink:href="#DejaVuSans-2d" x="206.542969"/>
     <use xlink:href="#DejaVuSans-30" x="242.626953"/>
     <use xlink:href="#DejaVuSans-2e" x="306.25"/>
     <use xlink:href="#DejaVuSans-30" x="338.037109"/>
     <use xlink:href="#DejaVuSans-30" x="401.660156"/>
     <use xlink:href="#DejaVuSans-78" x="465.283203"/>
     <use xlink:href="#DejaVuSans-20" x="524.462891"/>
     <use xlink:href="#DejaVuSans-2b" x="556.25"/>
     <use xlink:href="#DejaVuSans-20" x="640.039062"/>
     <use xlink:href="#DejaVuSans-2d" x="671.826172"/>
     <use xlink:href="#DejaVuSans-30" x="707.910156"/>
     <use xlink:href="#DejaVuSans-2e" x="771.533203"/>
     <use xlink:href="#DejaVuSans-33" x="803.320312"/>
     <use xlink:href="#DejaVuSans-33" x="866.943359"/>
    </g>
   </g>
   <g id="text_16">
    <!-- r^2 = 0.09 -->
    <g transform="translate(60.111781 26.308304)scale(0.1 -0.1)">
     <defs>
      <path id="DejaVuSans-5e" d="M 2988 4666 
L 4684 2925 
L 4056 2925 
L 2681 4159 
L 1306 2925 
L 678 2925 
L 2375 4666 
L 2988 4666 
z
" transform="scale(0.015625)"/>
     </defs>
     <use xlink:href="#DejaVuSans-72"/>
     <use xlink:href="#DejaVuSans-5e" x="41.113281"/>
     <use xlink:href="#DejaVuSans-32" x="124.902344"/>
     <use xlink:href="#DejaVuSans-20" x="188.525391"/>
     <use xlink:href="#DejaVuSans-3d" x="220.3125"/>
     <use xlink:href="#DejaVuSans-20" x="304.101562"/>
     <use xlink:href="#DejaVuSans-30" x="335.888672"/>
     <use xlink:href="#DejaVuSans-2e" x="399.511719"/>
     <use xlink:href="#DejaVuSans-30" x="431.298828"/>
     <use xlink:href="#DejaVuSans-39" x="494.921875"/>
    </g>
   </g>
   <g id="text_17">
    <!-- n = 120 -->
    <g transform="translate(67.958656 34.017232)scale(0.1 -0.1)">
     <use xlink:href="#DejaVuSans-6e"/>
     <use xlink:href="#DejaVuSans-20" x="63.378906"/>
     <use xlink:href="#DejaVuSans-3d" x="95.166016"/>
     <use xlink:href="#DejaVuSans-20" x="178.955078"/>
     <use xlink:href="#DejaVuSans-31" x="210.742188"/>
     <use xlink:href="#DejaVuSans-32" x="274.365234"/>
     <use xlink:href="#DejaVuSans-30" x="337.988281"/>
    </g>
   </g>
   <g id="text_18">
    <!-- SasaDiff vs PercentGpA_transformed -->
    <g transform="translate(138.574375 40.675714)scale(0.12 -0.12)">
     <defs>
      <path id="DejaVuSans-76" d="M 191 3500 
L 800 3500 
L 1894 563 
L 2988 3500 
L 3597 3500 
L 2284 0 
L 1503 0 
L 191 3500 
z
" transform="scale(0.015625)"/>
     </defs>
     <use xlink:href="#DejaVuSans-53"/>
     <use xlink:href="#DejaVuSans-61" x="63.476562"/>
     <use xlink:href="#DejaVuSans-73" x="124.755859"/>
     <use xlink:href="#DejaVuSans-61" x="176.855469"/>
     <use xlink:href="#DejaVuSans-44" x="238.134766"/>
     <use xlink:href="#DejaVuSans-69" x="315.136719"/>
     <use xlink:href="#DejaVuSans-66" x="342.919922"/>
     <use xlink:href="#DejaVuSans-66" x="378.125"/>
     <use xlink:href="#DejaVuSans-20" x="413.330078"/>
     <use xlink:href="#DejaVuSans-76" x="445.117188"/>
     <use xlink:href="#DejaVuSans-73" x="504.296875"/>
     <use xlink:href="#DejaVuSans-20" x="556.396484"/>
     <use xlink:href="#DejaVuSans-50" x="588.183594"/>
     <use xlink:href="#DejaVuSans-65" x="644.861328"/>
     <use xlink:href="#DejaVuSans-72" x="706.384766"/>
     <use xlink:href="#DejaVuSans-63" x="745.248047"/>
     <use xlink:href="#DejaVuSans-65" x="800.228516"/>
     <use xlink:href="#DejaVuSans-6e" x="861.751953"/>
     <use xlink:href="#DejaVuSans-74" x="925.130859"/>
     <use xlink:href="#DejaVuSans-47" x="964.339844"/>
     <use xlink:href="#DejaVuSans-70" x="1041.830078"/>
     <use xlink:href="#DejaVuSans-41" x="1105.306641"/>
     <use xlink:href="#DejaVuSans-5f" x="1173.714844"/>
     <use xlink:href="#DejaVuSans-74" x="1223.714844"/>
     <use xlink:href="#DejaVuSans-72" x="1262.923828"/>
     <use xlink:href="#DejaVuSans-61" x="1304.037109"/>
     <use xlink:href="#DejaVuSans-6e" x="1365.316406"/>
     <use xlink:href="#DejaVuSans-73" x="1428.695312"/>
     <use xlink:href="#DejaVuSans-66" x="1480.794922"/>
     <use xlink:href="#DejaVuSans-6f" x="1516"/>
     <use xlink:href="#DejaVuSans-72" x="1577.181641"/>
     <use xlink:href="#DejaVuSans-6d" x="1616.544922"/>
     <use xlink:href="#DejaVuSans-65" x="1713.957031"/>
     <use xlink:href="#DejaVuSans-64" x="1775.480469"/>
    </g>
   </g>
  </g>
 </g>
 <defs>
  <clipPath id="pcbf32f8709">
   <rect x="47.82125" y="46.675714" width="402.17875" height="256.964286"/>
  </clipPath>
 </defs>
</svg>
