<?xml version="1.0" encoding="utf-8" standalone="no"?>
<!DOCTYPE svg PUBLIC "-//W3C//DTD SVG 1.1//EN"
  "http://www.w3.org/Graphics/SVG/1.1/DTD/svg11.dtd">
<svg xmlns:xlink="http://www.w3.org/1999/xlink" width="460.8pt" height="345.6pt" viewBox="0 0 460.8 345.6" xmlns="http://www.w3.org/2000/svg" version="1.1">
 <metadata>
  <rdf:RDF xmlns:dc="http://purl.org/dc/elements/1.1/" xmlns:cc="http://creativecommons.org/ns#" xmlns:rdf="http://www.w3.org/1999/02/22-rdf-syntax-ns#">
   <cc:Work>
    <dc:type rdf:resource="http://purl.org/dc/dcmitype/StillImage"/>
    <dc:date>2024-06-15T13:29:15.721880</dc:date>
    <dc:format>image/svg+xml</dc:format>
    <dc:creator>
     <cc:Agent>
      <dc:title>Matplotlib v3.5.3, https://matplotlib.org/</dc:title>
     </cc:Agent>
    </dc:creator>
   </cc:Work>
  </rdf:RDF>
 </metadata>
 <defs>
  <style type="text/css">*{stroke-linejoin: round; stroke-linecap: butt}</style>
 </defs>
 <g id="figure_1">
  <g id="patch_1">
   <path d="M 0 345.6 
L 460.8 345.6 
L 460.8 0 
L 0 0 
z
" style="fill: #ffffff"/>
  </g>
  <g id="axes_1">
   <g id="patch_2">
    <path d="M 59.96 303.64 
L 450 303.64 
L 450 16.560404 
L 59.96 16.560404 
z
" style="fill: #ffffff"/>
   </g>
   <g id="matplotlib.axis_1">
    <g id="xtick_1">
     <g id="text_1">
      <!-- G -->
      <g style="fill: #262626" transform="translate(251.090937 317.797812)scale(0.1 -0.1)">
       <defs>
        <path id="ArialMT-47" d="M 2638 1797 
L 2638 2334 
L 4578 2338 
L 4578 638 
Q 4131 281 3656 101 
Q 3181 -78 2681 -78 
Q 2006 -78 1454 211 
Q 903 500 622 1047 
Q 341 1594 341 2269 
Q 341 2938 620 3517 
Q 900 4097 1425 4378 
Q 1950 4659 2634 4659 
Q 3131 4659 3532 4498 
Q 3934 4338 4162 4050 
Q 4391 3763 4509 3300 
L 3963 3150 
Q 3859 3500 3706 3700 
Q 3553 3900 3268 4020 
Q 2984 4141 2638 4141 
Q 2222 4141 1919 4014 
Q 1616 3888 1430 3681 
Q 1244 3475 1141 3228 
Q 966 2803 966 2306 
Q 966 1694 1177 1281 
Q 1388 869 1791 669 
Q 2194 469 2647 469 
Q 3041 469 3416 620 
Q 3791 772 3984 944 
L 3984 1797 
L 2638 1797 
z
" transform="scale(0.015625)"/>
       </defs>
       <use xlink:href="#ArialMT-47"/>
      </g>
     </g>
    </g>
    <g id="text_2">
     <!-- Sample -->
     <g style="fill: #262626" transform="translate(238.027656 331.065)scale(0.1 -0.1)">
      <defs>
       <path id="ArialMT-53" d="M 288 1472 
L 859 1522 
Q 900 1178 1048 958 
Q 1197 738 1509 602 
Q 1822 466 2213 466 
Q 2559 466 2825 569 
Q 3091 672 3220 851 
Q 3350 1031 3350 1244 
Q 3350 1459 3225 1620 
Q 3100 1781 2813 1891 
Q 2628 1963 1997 2114 
Q 1366 2266 1113 2400 
Q 784 2572 623 2826 
Q 463 3081 463 3397 
Q 463 3744 659 4045 
Q 856 4347 1234 4503 
Q 1613 4659 2075 4659 
Q 2584 4659 2973 4495 
Q 3363 4331 3572 4012 
Q 3781 3694 3797 3291 
L 3216 3247 
Q 3169 3681 2898 3903 
Q 2628 4125 2100 4125 
Q 1550 4125 1298 3923 
Q 1047 3722 1047 3438 
Q 1047 3191 1225 3031 
Q 1400 2872 2139 2705 
Q 2878 2538 3153 2413 
Q 3553 2228 3743 1945 
Q 3934 1663 3934 1294 
Q 3934 928 3725 604 
Q 3516 281 3123 101 
Q 2731 -78 2241 -78 
Q 1619 -78 1198 103 
Q 778 284 539 648 
Q 300 1013 288 1472 
z
" transform="scale(0.015625)"/>
       <path id="ArialMT-61" d="M 2588 409 
Q 2275 144 1986 34 
Q 1697 -75 1366 -75 
Q 819 -75 525 192 
Q 231 459 231 875 
Q 231 1119 342 1320 
Q 453 1522 633 1644 
Q 813 1766 1038 1828 
Q 1203 1872 1538 1913 
Q 2219 1994 2541 2106 
Q 2544 2222 2544 2253 
Q 2544 2597 2384 2738 
Q 2169 2928 1744 2928 
Q 1347 2928 1158 2789 
Q 969 2650 878 2297 
L 328 2372 
Q 403 2725 575 2942 
Q 747 3159 1072 3276 
Q 1397 3394 1825 3394 
Q 2250 3394 2515 3294 
Q 2781 3194 2906 3042 
Q 3031 2891 3081 2659 
Q 3109 2516 3109 2141 
L 3109 1391 
Q 3109 606 3145 398 
Q 3181 191 3288 0 
L 2700 0 
Q 2613 175 2588 409 
z
M 2541 1666 
Q 2234 1541 1622 1453 
Q 1275 1403 1131 1340 
Q 988 1278 909 1158 
Q 831 1038 831 891 
Q 831 666 1001 516 
Q 1172 366 1500 366 
Q 1825 366 2078 508 
Q 2331 650 2450 897 
Q 2541 1088 2541 1459 
L 2541 1666 
z
" transform="scale(0.015625)"/>
       <path id="ArialMT-6d" d="M 422 0 
L 422 3319 
L 925 3319 
L 925 2853 
Q 1081 3097 1340 3245 
Q 1600 3394 1931 3394 
Q 2300 3394 2536 3241 
Q 2772 3088 2869 2813 
Q 3263 3394 3894 3394 
Q 4388 3394 4653 3120 
Q 4919 2847 4919 2278 
L 4919 0 
L 4359 0 
L 4359 2091 
Q 4359 2428 4304 2576 
Q 4250 2725 4106 2815 
Q 3963 2906 3769 2906 
Q 3419 2906 3187 2673 
Q 2956 2441 2956 1928 
L 2956 0 
L 2394 0 
L 2394 2156 
Q 2394 2531 2256 2718 
Q 2119 2906 1806 2906 
Q 1569 2906 1367 2781 
Q 1166 2656 1075 2415 
Q 984 2175 984 1722 
L 984 0 
L 422 0 
z
" transform="scale(0.015625)"/>
       <path id="ArialMT-70" d="M 422 -1272 
L 422 3319 
L 934 3319 
L 934 2888 
Q 1116 3141 1344 3267 
Q 1572 3394 1897 3394 
Q 2322 3394 2647 3175 
Q 2972 2956 3137 2557 
Q 3303 2159 3303 1684 
Q 3303 1175 3120 767 
Q 2938 359 2589 142 
Q 2241 -75 1856 -75 
Q 1575 -75 1351 44 
Q 1128 163 984 344 
L 984 -1272 
L 422 -1272 
z
M 931 1641 
Q 931 1000 1190 694 
Q 1450 388 1819 388 
Q 2194 388 2461 705 
Q 2728 1022 2728 1688 
Q 2728 2322 2467 2637 
Q 2206 2953 1844 2953 
Q 1484 2953 1207 2617 
Q 931 2281 931 1641 
z
" transform="scale(0.015625)"/>
       <path id="ArialMT-6c" d="M 409 0 
L 409 4581 
L 972 4581 
L 972 0 
L 409 0 
z
" transform="scale(0.015625)"/>
       <path id="ArialMT-65" d="M 2694 1069 
L 3275 997 
Q 3138 488 2766 206 
Q 2394 -75 1816 -75 
Q 1088 -75 661 373 
Q 234 822 234 1631 
Q 234 2469 665 2931 
Q 1097 3394 1784 3394 
Q 2450 3394 2872 2941 
Q 3294 2488 3294 1666 
Q 3294 1616 3291 1516 
L 816 1516 
Q 847 969 1125 678 
Q 1403 388 1819 388 
Q 2128 388 2347 550 
Q 2566 713 2694 1069 
z
M 847 1978 
L 2700 1978 
Q 2663 2397 2488 2606 
Q 2219 2931 1791 2931 
Q 1403 2931 1139 2672 
Q 875 2413 847 1978 
z
" transform="scale(0.015625)"/>
      </defs>
      <use xlink:href="#ArialMT-53"/>
      <use xlink:href="#ArialMT-61" x="66.699219"/>
      <use xlink:href="#ArialMT-6d" x="122.314453"/>
      <use xlink:href="#ArialMT-70" x="205.615234"/>
      <use xlink:href="#ArialMT-6c" x="261.230469"/>
      <use xlink:href="#ArialMT-65" x="283.447266"/>
     </g>
    </g>
   </g>
   <g id="matplotlib.axis_2">
    <g id="ytick_1">
     <g id="line2d_1">
      <path d="M 59.96 282.137705 
L 450 282.137705 
" clip-path="url(#p3cbf56d155)" style="fill: none; stroke: #cccccc; stroke-width: 0.8; stroke-linecap: round"/>
     </g>
     <g id="text_3">
      <!-- −5000 -->
      <g style="fill: #262626" transform="translate(24.875625 285.716611)scale(0.1 -0.1)">
       <defs>
        <path id="ArialMT-2212" d="M 3381 1997 
L 356 1997 
L 356 2522 
L 3381 2522 
L 3381 1997 
z
" transform="scale(0.015625)"/>
        <path id="ArialMT-35" d="M 266 1200 
L 856 1250 
Q 922 819 1161 601 
Q 1400 384 1738 384 
Q 2144 384 2425 690 
Q 2706 997 2706 1503 
Q 2706 1984 2436 2262 
Q 2166 2541 1728 2541 
Q 1456 2541 1237 2417 
Q 1019 2294 894 2097 
L 366 2166 
L 809 4519 
L 3088 4519 
L 3088 3981 
L 1259 3981 
L 1013 2750 
Q 1425 3038 1878 3038 
Q 2478 3038 2890 2622 
Q 3303 2206 3303 1553 
Q 3303 931 2941 478 
Q 2500 -78 1738 -78 
Q 1113 -78 717 272 
Q 322 622 266 1200 
z
" transform="scale(0.015625)"/>
        <path id="ArialMT-30" d="M 266 2259 
Q 266 3072 433 3567 
Q 600 4063 929 4331 
Q 1259 4600 1759 4600 
Q 2128 4600 2406 4451 
Q 2684 4303 2865 4023 
Q 3047 3744 3150 3342 
Q 3253 2941 3253 2259 
Q 3253 1453 3087 958 
Q 2922 463 2592 192 
Q 2263 -78 1759 -78 
Q 1097 -78 719 397 
Q 266 969 266 2259 
z
M 844 2259 
Q 844 1131 1108 757 
Q 1372 384 1759 384 
Q 2147 384 2411 759 
Q 2675 1134 2675 2259 
Q 2675 3391 2411 3762 
Q 2147 4134 1753 4134 
Q 1366 4134 1134 3806 
Q 844 3388 844 2259 
z
" transform="scale(0.015625)"/>
       </defs>
       <use xlink:href="#ArialMT-2212"/>
       <use xlink:href="#ArialMT-35" x="58.398438"/>
       <use xlink:href="#ArialMT-30" x="114.013672"/>
       <use xlink:href="#ArialMT-30" x="169.628906"/>
       <use xlink:href="#ArialMT-30" x="225.244141"/>
      </g>
     </g>
    </g>
    <g id="ytick_2">
     <g id="line2d_2">
      <path d="M 59.96 238.577214 
L 450 238.577214 
" clip-path="url(#p3cbf56d155)" style="fill: none; stroke: #cccccc; stroke-width: 0.8; stroke-linecap: round"/>
     </g>
     <g id="text_4">
      <!-- 0 -->
      <g style="fill: #262626" transform="translate(47.399063 242.15612)scale(0.1 -0.1)">
       <use xlink:href="#ArialMT-30"/>
      </g>
     </g>
    </g>
    <g id="ytick_3">
     <g id="line2d_3">
      <path d="M 59.96 195.016723 
L 450 195.016723 
" clip-path="url(#p3cbf56d155)" style="fill: none; stroke: #cccccc; stroke-width: 0.8; stroke-linecap: round"/>
     </g>
     <g id="text_5">
      <!-- 5000 -->
      <g style="fill: #262626" transform="translate(30.71625 198.59563)scale(0.1 -0.1)">
       <use xlink:href="#ArialMT-35"/>
       <use xlink:href="#ArialMT-30" x="55.615234"/>
       <use xlink:href="#ArialMT-30" x="111.230469"/>
       <use xlink:href="#ArialMT-30" x="166.845703"/>
      </g>
     </g>
    </g>
    <g id="ytick_4">
     <g id="line2d_4">
      <path d="M 59.96 151.456233 
L 450 151.456233 
" clip-path="url(#p3cbf56d155)" style="fill: none; stroke: #cccccc; stroke-width: 0.8; stroke-linecap: round"/>
     </g>
     <g id="text_6">
      <!-- 10000 -->
      <g style="fill: #262626" transform="translate(25.155313 155.035139)scale(0.1 -0.1)">
       <defs>
        <path id="ArialMT-31" d="M 2384 0 
L 1822 0 
L 1822 3584 
Q 1619 3391 1289 3197 
Q 959 3003 697 2906 
L 697 3450 
Q 1169 3672 1522 3987 
Q 1875 4303 2022 4600 
L 2384 4600 
L 2384 0 
z
" transform="scale(0.015625)"/>
       </defs>
       <use xlink:href="#ArialMT-31"/>
       <use xlink:href="#ArialMT-30" x="55.615234"/>
       <use xlink:href="#ArialMT-30" x="111.230469"/>
       <use xlink:href="#ArialMT-30" x="166.845703"/>
       <use xlink:href="#ArialMT-30" x="222.460938"/>
      </g>
     </g>
    </g>
    <g id="ytick_5">
     <g id="line2d_5">
      <path d="M 59.96 107.895742 
L 450 107.895742 
" clip-path="url(#p3cbf56d155)" style="fill: none; stroke: #cccccc; stroke-width: 0.8; stroke-linecap: round"/>
     </g>
     <g id="text_7">
      <!-- 15000 -->
      <g style="fill: #262626" transform="translate(25.155313 111.474648)scale(0.1 -0.1)">
       <use xlink:href="#ArialMT-31"/>
       <use xlink:href="#ArialMT-35" x="55.615234"/>
       <use xlink:href="#ArialMT-30" x="111.230469"/>
       <use xlink:href="#ArialMT-30" x="166.845703"/>
       <use xlink:href="#ArialMT-30" x="222.460938"/>
      </g>
     </g>
    </g>
    <g id="ytick_6">
     <g id="line2d_6">
      <path d="M 59.96 64.335251 
L 450 64.335251 
" clip-path="url(#p3cbf56d155)" style="fill: none; stroke: #cccccc; stroke-width: 0.8; stroke-linecap: round"/>
     </g>
     <g id="text_8">
      <!-- 20000 -->
      <g style="fill: #262626" transform="translate(25.155313 67.914158)scale(0.1 -0.1)">
       <defs>
        <path id="ArialMT-32" d="M 3222 541 
L 3222 0 
L 194 0 
Q 188 203 259 391 
Q 375 700 629 1000 
Q 884 1300 1366 1694 
Q 2113 2306 2375 2664 
Q 2638 3022 2638 3341 
Q 2638 3675 2398 3904 
Q 2159 4134 1775 4134 
Q 1369 4134 1125 3890 
Q 881 3647 878 3216 
L 300 3275 
Q 359 3922 746 4261 
Q 1134 4600 1788 4600 
Q 2447 4600 2831 4234 
Q 3216 3869 3216 3328 
Q 3216 3053 3103 2787 
Q 2991 2522 2730 2228 
Q 2469 1934 1863 1422 
Q 1356 997 1212 845 
Q 1069 694 975 541 
L 3222 541 
z
" transform="scale(0.015625)"/>
       </defs>
       <use xlink:href="#ArialMT-32"/>
       <use xlink:href="#ArialMT-30" x="55.615234"/>
       <use xlink:href="#ArialMT-30" x="111.230469"/>
       <use xlink:href="#ArialMT-30" x="166.845703"/>
       <use xlink:href="#ArialMT-30" x="222.460938"/>
      </g>
     </g>
    </g>
    <g id="ytick_7">
     <g id="line2d_7">
      <path d="M 59.96 20.774761 
L 450 20.774761 
" clip-path="url(#p3cbf56d155)" style="fill: none; stroke: #cccccc; stroke-width: 0.8; stroke-linecap: round"/>
     </g>
     <g id="text_9">
      <!-- 25000 -->
      <g style="fill: #262626" transform="translate(25.155313 24.353667)scale(0.1 -0.1)">
       <use xlink:href="#ArialMT-32"/>
       <use xlink:href="#ArialMT-35" x="55.615234"/>
       <use xlink:href="#ArialMT-30" x="111.230469"/>
       <use xlink:href="#ArialMT-30" x="166.845703"/>
       <use xlink:href="#ArialMT-30" x="222.460938"/>
      </g>
     </g>
    </g>
    <g id="text_10">
     <!-- Delta Fluorescence -->
     <g style="fill: #262626" transform="translate(18.888125 203.173639)rotate(-90)scale(0.1 -0.1)">
      <defs>
       <path id="ArialMT-44" d="M 494 0 
L 494 4581 
L 2072 4581 
Q 2606 4581 2888 4516 
Q 3281 4425 3559 4188 
Q 3922 3881 4101 3404 
Q 4281 2928 4281 2316 
Q 4281 1794 4159 1391 
Q 4038 988 3847 723 
Q 3656 459 3429 307 
Q 3203 156 2883 78 
Q 2563 0 2147 0 
L 494 0 
z
M 1100 541 
L 2078 541 
Q 2531 541 2789 625 
Q 3047 709 3200 863 
Q 3416 1078 3536 1442 
Q 3656 1806 3656 2325 
Q 3656 3044 3420 3430 
Q 3184 3816 2847 3947 
Q 2603 4041 2063 4041 
L 1100 4041 
L 1100 541 
z
" transform="scale(0.015625)"/>
       <path id="ArialMT-74" d="M 1650 503 
L 1731 6 
Q 1494 -44 1306 -44 
Q 1000 -44 831 53 
Q 663 150 594 308 
Q 525 466 525 972 
L 525 2881 
L 113 2881 
L 113 3319 
L 525 3319 
L 525 4141 
L 1084 4478 
L 1084 3319 
L 1650 3319 
L 1650 2881 
L 1084 2881 
L 1084 941 
Q 1084 700 1114 631 
Q 1144 563 1211 522 
Q 1278 481 1403 481 
Q 1497 481 1650 503 
z
" transform="scale(0.015625)"/>
       <path id="ArialMT-20" transform="scale(0.015625)"/>
       <path id="ArialMT-46" d="M 525 0 
L 525 4581 
L 3616 4581 
L 3616 4041 
L 1131 4041 
L 1131 2622 
L 3281 2622 
L 3281 2081 
L 1131 2081 
L 1131 0 
L 525 0 
z
" transform="scale(0.015625)"/>
       <path id="ArialMT-75" d="M 2597 0 
L 2597 488 
Q 2209 -75 1544 -75 
Q 1250 -75 995 37 
Q 741 150 617 320 
Q 494 491 444 738 
Q 409 903 409 1263 
L 409 3319 
L 972 3319 
L 972 1478 
Q 972 1038 1006 884 
Q 1059 663 1231 536 
Q 1403 409 1656 409 
Q 1909 409 2131 539 
Q 2353 669 2445 892 
Q 2538 1116 2538 1541 
L 2538 3319 
L 3100 3319 
L 3100 0 
L 2597 0 
z
" transform="scale(0.015625)"/>
       <path id="ArialMT-6f" d="M 213 1659 
Q 213 2581 725 3025 
Q 1153 3394 1769 3394 
Q 2453 3394 2887 2945 
Q 3322 2497 3322 1706 
Q 3322 1066 3130 698 
Q 2938 331 2570 128 
Q 2203 -75 1769 -75 
Q 1072 -75 642 372 
Q 213 819 213 1659 
z
M 791 1659 
Q 791 1022 1069 705 
Q 1347 388 1769 388 
Q 2188 388 2466 706 
Q 2744 1025 2744 1678 
Q 2744 2294 2464 2611 
Q 2184 2928 1769 2928 
Q 1347 2928 1069 2612 
Q 791 2297 791 1659 
z
" transform="scale(0.015625)"/>
       <path id="ArialMT-72" d="M 416 0 
L 416 3319 
L 922 3319 
L 922 2816 
Q 1116 3169 1280 3281 
Q 1444 3394 1641 3394 
Q 1925 3394 2219 3213 
L 2025 2691 
Q 1819 2813 1613 2813 
Q 1428 2813 1281 2702 
Q 1134 2591 1072 2394 
Q 978 2094 978 1738 
L 978 0 
L 416 0 
z
" transform="scale(0.015625)"/>
       <path id="ArialMT-73" d="M 197 991 
L 753 1078 
Q 800 744 1014 566 
Q 1228 388 1613 388 
Q 2000 388 2187 545 
Q 2375 703 2375 916 
Q 2375 1106 2209 1216 
Q 2094 1291 1634 1406 
Q 1016 1563 777 1677 
Q 538 1791 414 1992 
Q 291 2194 291 2438 
Q 291 2659 392 2848 
Q 494 3038 669 3163 
Q 800 3259 1026 3326 
Q 1253 3394 1513 3394 
Q 1903 3394 2198 3281 
Q 2494 3169 2634 2976 
Q 2775 2784 2828 2463 
L 2278 2388 
Q 2241 2644 2061 2787 
Q 1881 2931 1553 2931 
Q 1166 2931 1000 2803 
Q 834 2675 834 2503 
Q 834 2394 903 2306 
Q 972 2216 1119 2156 
Q 1203 2125 1616 2013 
Q 2213 1853 2448 1751 
Q 2684 1650 2818 1456 
Q 2953 1263 2953 975 
Q 2953 694 2789 445 
Q 2625 197 2315 61 
Q 2006 -75 1616 -75 
Q 969 -75 630 194 
Q 291 463 197 991 
z
" transform="scale(0.015625)"/>
       <path id="ArialMT-63" d="M 2588 1216 
L 3141 1144 
Q 3050 572 2676 248 
Q 2303 -75 1759 -75 
Q 1078 -75 664 370 
Q 250 816 250 1647 
Q 250 2184 428 2587 
Q 606 2991 970 3192 
Q 1334 3394 1763 3394 
Q 2303 3394 2647 3120 
Q 2991 2847 3088 2344 
L 2541 2259 
Q 2463 2594 2264 2762 
Q 2066 2931 1784 2931 
Q 1359 2931 1093 2626 
Q 828 2322 828 1663 
Q 828 994 1084 691 
Q 1341 388 1753 388 
Q 2084 388 2306 591 
Q 2528 794 2588 1216 
z
" transform="scale(0.015625)"/>
       <path id="ArialMT-6e" d="M 422 0 
L 422 3319 
L 928 3319 
L 928 2847 
Q 1294 3394 1984 3394 
Q 2284 3394 2536 3286 
Q 2788 3178 2913 3003 
Q 3038 2828 3088 2588 
Q 3119 2431 3119 2041 
L 3119 0 
L 2556 0 
L 2556 2019 
Q 2556 2363 2490 2533 
Q 2425 2703 2258 2804 
Q 2091 2906 1866 2906 
Q 1506 2906 1245 2678 
Q 984 2450 984 1813 
L 984 0 
L 422 0 
z
" transform="scale(0.015625)"/>
      </defs>
      <use xlink:href="#ArialMT-44"/>
      <use xlink:href="#ArialMT-65" x="72.216797"/>
      <use xlink:href="#ArialMT-6c" x="127.832031"/>
      <use xlink:href="#ArialMT-74" x="150.048828"/>
      <use xlink:href="#ArialMT-61" x="177.832031"/>
      <use xlink:href="#ArialMT-20" x="233.447266"/>
      <use xlink:href="#ArialMT-46" x="261.230469"/>
      <use xlink:href="#ArialMT-6c" x="322.314453"/>
      <use xlink:href="#ArialMT-75" x="344.53125"/>
      <use xlink:href="#ArialMT-6f" x="400.146484"/>
      <use xlink:href="#ArialMT-72" x="455.761719"/>
      <use xlink:href="#ArialMT-65" x="489.0625"/>
      <use xlink:href="#ArialMT-73" x="544.677734"/>
      <use xlink:href="#ArialMT-63" x="594.677734"/>
      <use xlink:href="#ArialMT-65" x="644.677734"/>
      <use xlink:href="#ArialMT-6e" x="700.292969"/>
      <use xlink:href="#ArialMT-63" x="755.908203"/>
      <use xlink:href="#ArialMT-65" x="805.908203"/>
     </g>
    </g>
   </g>
   <g id="patch_3">
    <path d="M 100.52416 111.926085 
L 253.41984 111.926085 
L 253.41984 66.289146 
L 100.52416 66.289146 
L 100.52416 111.926085 
z
" clip-path="url(#p3cbf56d155)" style="fill: #ecf2ec; stroke: #262626; stroke-width: 1.5; stroke-linejoin: miter"/>
   </g>
   <g id="patch_4">
    <path d="M 256.54016 244.615924 
L 409.43584 244.615924 
L 409.43584 178.877266 
L 256.54016 178.877266 
L 256.54016 244.615924 
z
" clip-path="url(#p3cbf56d155)" style="fill: #107010; stroke: #262626; stroke-width: 1.5; stroke-linejoin: miter"/>
   </g>
   <g id="patch_5">
    <path d="M 254.98 238.577214 
L 254.98 238.577214 
L 254.98 238.577214 
L 254.98 238.577214 
z
" clip-path="url(#p3cbf56d155)" style="fill: #ecf2ec; stroke: #262626; stroke-width: 0.75; stroke-linejoin: miter"/>
   </g>
   <g id="patch_6">
    <path d="M 254.98 238.577214 
L 254.98 238.577214 
L 254.98 238.577214 
L 254.98 238.577214 
z
" clip-path="url(#p3cbf56d155)" style="fill: #107010; stroke: #262626; stroke-width: 0.75; stroke-linejoin: miter"/>
   </g>
   <g id="PathCollection_1"/>
   <g id="PathCollection_2"/>
   <g id="line2d_8">
    <path d="M 176.972 111.926085 
L 176.972 179.75875 
" clip-path="url(#p3cbf56d155)" style="fill: none; stroke: #262626; stroke-width: 1.5; stroke-linecap: round"/>
   </g>
   <g id="line2d_9">
    <path d="M 176.972 66.289146 
L 176.972 16.560404 
" clip-path="url(#p3cbf56d155)" style="fill: none; stroke: #262626; stroke-width: 1.5; stroke-linecap: round"/>
   </g>
   <g id="line2d_10">
    <path d="M 138.74808 179.75875 
L 215.19592 179.75875 
" clip-path="url(#p3cbf56d155)" style="fill: none; stroke: #262626; stroke-width: 1.5; stroke-linecap: round"/>
   </g>
   <g id="line2d_11">
    <path d="M 138.74808 16.560404 
L 215.19592 16.560404 
" clip-path="url(#p3cbf56d155)" style="fill: none; stroke: #262626; stroke-width: 1.5; stroke-linecap: round"/>
   </g>
   <g id="line2d_12"/>
   <g id="line2d_13">
    <path d="M 332.988 244.615924 
L 332.988 303.64 
" clip-path="url(#p3cbf56d155)" style="fill: none; stroke: #262626; stroke-width: 1.5; stroke-linecap: round"/>
   </g>
   <g id="line2d_14">
    <path d="M 332.988 178.877266 
L 332.988 84.142387 
" clip-path="url(#p3cbf56d155)" style="fill: none; stroke: #262626; stroke-width: 1.5; stroke-linecap: round"/>
   </g>
   <g id="line2d_15">
    <path d="M 294.76408 303.64 
L 371.21192 303.64 
" clip-path="url(#p3cbf56d155)" style="fill: none; stroke: #262626; stroke-width: 1.5; stroke-linecap: round"/>
   </g>
   <g id="line2d_16">
    <path d="M 294.76408 84.142387 
L 371.21192 84.142387 
" clip-path="url(#p3cbf56d155)" style="fill: none; stroke: #262626; stroke-width: 1.5; stroke-linecap: round"/>
   </g>
   <g id="line2d_17">
    <defs>
     <path id="m25454259d2" d="M -0 1.414214 
L 0.848528 0 
L 0 -1.414214 
L -0.848528 -0 
z
" style="stroke: #262626; stroke-linejoin: miter"/>
    </defs>
    <g clip-path="url(#p3cbf56d155)">
     <use xlink:href="#m25454259d2" x="332.988" y="53.895297" style="fill: #262626; stroke: #262626; stroke-linejoin: miter"/>
    </g>
   </g>
   <g id="line2d_18">
    <path d="M 100.52416 85.885431 
L 253.41984 85.885431 
" clip-path="url(#p3cbf56d155)" style="fill: none; stroke: #262626; stroke-width: 1.5; stroke-linecap: round"/>
   </g>
   <g id="line2d_19">
    <path d="M 256.54016 219.142875 
L 409.43584 219.142875 
" clip-path="url(#p3cbf56d155)" style="fill: none; stroke: #262626; stroke-width: 1.5; stroke-linecap: round"/>
   </g>
   <g id="patch_7">
    <path d="M 59.96 303.64 
L 59.96 16.560404 
" style="fill: none; stroke: #cccccc; stroke-width: 0.8; stroke-linejoin: miter; stroke-linecap: square"/>
   </g>
   <g id="patch_8">
    <path d="M 450 303.64 
L 450 16.560404 
" style="fill: none; stroke: #cccccc; stroke-width: 0.8; stroke-linejoin: miter; stroke-linecap: square"/>
   </g>
   <g id="patch_9">
    <path d="M 59.96 303.64 
L 450 303.64 
" style="fill: none; stroke: #cccccc; stroke-width: 0.8; stroke-linejoin: miter; stroke-linecap: square"/>
   </g>
   <g id="patch_10">
    <path d="M 59.96 16.560404 
L 450 16.560404 
" style="fill: none; stroke: #cccccc; stroke-width: 0.8; stroke-linejoin: miter; stroke-linecap: square"/>
   </g>
   <g id="PathCollection_3">
    <defs>
     <path id="C0_0_6b49da95a8" d="M 0 1 
C 0.265203 1 0.51958 0.894634 0.707107 0.707107 
C 0.894634 0.51958 1 0.265203 1 -0 
C 1 -0.265203 0.894634 -0.51958 0.707107 -0.707107 
C 0.51958 -0.894634 0.265203 -1 0 -1 
C -0.265203 -1 -0.51958 -0.894634 -0.707107 -0.707107 
C -0.894634 -0.51958 -1 -0.265203 -1 0 
C -1 0.265203 -0.894634 0.51958 -0.707107 0.707107 
C -0.51958 0.894634 -0.265203 1 0 1 
z
"/>
    </defs>
    <g clip-path="url(#p3cbf56d155)">
     <use xlink:href="#C0_0_6b49da95a8" x="173.345366" y="107.908817" style="fill: #262626"/>
    </g>
    <g clip-path="url(#p3cbf56d155)">
     <use xlink:href="#C0_0_6b49da95a8" x="164.667723" y="45.855957" style="fill: #262626"/>
    </g>
    <g clip-path="url(#p3cbf56d155)">
     <use xlink:href="#C0_0_6b49da95a8" x="171.816509" y="86.638069" style="fill: #262626"/>
    </g>
    <g clip-path="url(#p3cbf56d155)">
     <use xlink:href="#C0_0_6b49da95a8" x="180.637577" y="16.560404" style="fill: #262626"/>
    </g>
    <g clip-path="url(#p3cbf56d155)">
     <use xlink:href="#C0_0_6b49da95a8" x="180.922676" y="20.039609" style="fill: #262626"/>
    </g>
    <g clip-path="url(#p3cbf56d155)">
     <use xlink:href="#C0_0_6b49da95a8" x="179.860196" y="61.714277" style="fill: #262626"/>
    </g>
    <g clip-path="url(#p3cbf56d155)">
     <use xlink:href="#C0_0_6b49da95a8" x="159.493169" y="58.583281" style="fill: #262626"/>
    </g>
    <g clip-path="url(#p3cbf56d155)">
     <use xlink:href="#C0_0_6b49da95a8" x="158.975669" y="106.49133" style="fill: #262626"/>
    </g>
    <g clip-path="url(#p3cbf56d155)">
     <use xlink:href="#C0_0_6b49da95a8" x="165.712399" y="65.119784" style="fill: #262626"/>
    </g>
    <g clip-path="url(#p3cbf56d155)">
     <use xlink:href="#C0_0_6b49da95a8" x="188.918063" y="126.91728" style="fill: #262626"/>
    </g>
    <g clip-path="url(#p3cbf56d155)">
     <use xlink:href="#C0_0_6b49da95a8" x="170.526253" y="102.687346" style="fill: #262626"/>
    </g>
    <g clip-path="url(#p3cbf56d155)">
     <use xlink:href="#C0_0_6b49da95a8" x="184.0825" y="50.788633" style="fill: #262626"/>
    </g>
    <g clip-path="url(#p3cbf56d155)">
     <use xlink:href="#C0_0_6b49da95a8" x="193.136768" y="83.493233" style="fill: #262626"/>
    </g>
    <g clip-path="url(#p3cbf56d155)">
     <use xlink:href="#C0_0_6b49da95a8" x="185.354595" y="115.231143" style="fill: #262626"/>
    </g>
    <g clip-path="url(#p3cbf56d155)">
     <use xlink:href="#C0_0_6b49da95a8" x="193.882186" y="28.717815" style="fill: #262626"/>
    </g>
    <g clip-path="url(#p3cbf56d155)">
     <use xlink:href="#C0_0_6b49da95a8" x="187.242285" y="124.985018" style="fill: #262626"/>
    </g>
    <g clip-path="url(#p3cbf56d155)">
     <use xlink:href="#C0_0_6b49da95a8" x="170.312133" y="135.603342" style="fill: #262626"/>
    </g>
    <g clip-path="url(#p3cbf56d155)">
     <use xlink:href="#C0_0_6b49da95a8" x="193.384589" y="85.933485" style="fill: #262626"/>
    </g>
    <g clip-path="url(#p3cbf56d155)">
     <use xlink:href="#C0_0_6b49da95a8" x="158.635422" y="82.702503" style="fill: #262626"/>
    </g>
    <g clip-path="url(#p3cbf56d155)">
     <use xlink:href="#C0_0_6b49da95a8" x="169.784139" y="96.027298" style="fill: #262626"/>
    </g>
    <g clip-path="url(#p3cbf56d155)">
     <use xlink:href="#C0_0_6b49da95a8" x="158.246657" y="125.844661" style="fill: #262626"/>
    </g>
    <g clip-path="url(#p3cbf56d155)">
     <use xlink:href="#C0_0_6b49da95a8" x="158.748879" y="127.310846" style="fill: #262626"/>
    </g>
    <g clip-path="url(#p3cbf56d155)">
     <use xlink:href="#C0_0_6b49da95a8" x="183.616809" y="125.166861" style="fill: #262626"/>
    </g>
    <g clip-path="url(#p3cbf56d155)">
     <use xlink:href="#C0_0_6b49da95a8" x="160.703552" y="89.856837" style="fill: #262626"/>
    </g>
    <g clip-path="url(#p3cbf56d155)">
     <use xlink:href="#C0_0_6b49da95a8" x="177.330243" y="105.937795" style="fill: #262626"/>
    </g>
    <g clip-path="url(#p3cbf56d155)">
     <use xlink:href="#C0_0_6b49da95a8" x="168.029319" y="70.062562" style="fill: #262626"/>
    </g>
    <g clip-path="url(#p3cbf56d155)">
     <use xlink:href="#C0_0_6b49da95a8" x="159.139176" y="70.64522" style="fill: #262626"/>
    </g>
    <g clip-path="url(#p3cbf56d155)">
     <use xlink:href="#C0_0_6b49da95a8" x="180.647726" y="80.651625" style="fill: #262626"/>
    </g>
    <g clip-path="url(#p3cbf56d155)">
     <use xlink:href="#C0_0_6b49da95a8" x="168.26347" y="85.837377" style="fill: #262626"/>
    </g>
    <g clip-path="url(#p3cbf56d155)">
     <use xlink:href="#C0_0_6b49da95a8" x="164.503297" y="56.94068" style="fill: #262626"/>
    </g>
    <g clip-path="url(#p3cbf56d155)">
     <use xlink:href="#C0_0_6b49da95a8" x="159.942948" y="72.231219" style="fill: #262626"/>
    </g>
    <g clip-path="url(#p3cbf56d155)">
     <use xlink:href="#C0_0_6b49da95a8" x="177.999129" y="58.738684" style="fill: #262626"/>
    </g>
    <g clip-path="url(#p3cbf56d155)">
     <use xlink:href="#C0_0_6b49da95a8" x="186.614302" y="137.266995" style="fill: #262626"/>
    </g>
    <g clip-path="url(#p3cbf56d155)">
     <use xlink:href="#C0_0_6b49da95a8" x="183.947312" y="111.112575" style="fill: #262626"/>
    </g>
    <g clip-path="url(#p3cbf56d155)">
     <use xlink:href="#C0_0_6b49da95a8" x="195.52335" y="72.088694" style="fill: #262626"/>
    </g>
    <g clip-path="url(#p3cbf56d155)">
     <use xlink:href="#C0_0_6b49da95a8" x="174.789613" y="79.527139" style="fill: #262626"/>
    </g>
    <g clip-path="url(#p3cbf56d155)">
     <use xlink:href="#C0_0_6b49da95a8" x="189.762254" y="35.209463" style="fill: #262626"/>
    </g>
    <g clip-path="url(#p3cbf56d155)">
     <use xlink:href="#C0_0_6b49da95a8" x="183.812348" y="74.781816" style="fill: #262626"/>
    </g>
    <g clip-path="url(#p3cbf56d155)">
     <use xlink:href="#C0_0_6b49da95a8" x="161.818031" y="44.601345" style="fill: #262626"/>
    </g>
    <g clip-path="url(#p3cbf56d155)">
     <use xlink:href="#C0_0_6b49da95a8" x="193.141262" y="69.797232" style="fill: #262626"/>
    </g>
    <g clip-path="url(#p3cbf56d155)">
     <use xlink:href="#C0_0_6b49da95a8" x="165.548643" y="112.982102" style="fill: #262626"/>
    </g>
    <g clip-path="url(#p3cbf56d155)">
     <use xlink:href="#C0_0_6b49da95a8" x="181.840396" y="122.932226" style="fill: #262626"/>
    </g>
    <g clip-path="url(#p3cbf56d155)">
     <use xlink:href="#C0_0_6b49da95a8" x="175.470614" y="91.837825" style="fill: #262626"/>
    </g>
    <g clip-path="url(#p3cbf56d155)">
     <use xlink:href="#C0_0_6b49da95a8" x="178.101599" y="111.894761" style="fill: #262626"/>
    </g>
    <g clip-path="url(#p3cbf56d155)">
     <use xlink:href="#C0_0_6b49da95a8" x="193.313517" y="111.936527" style="fill: #262626"/>
    </g>
    <g clip-path="url(#p3cbf56d155)">
     <use xlink:href="#C0_0_6b49da95a8" x="162.172183" y="179.75875" style="fill: #262626"/>
    </g>
   </g>
   <g id="PathCollection_4">
    <defs>
     <path id="C1_0_10ecd6ab84" d="M 0 1 
C 0.265203 1 0.51958 0.894634 0.707107 0.707107 
C 0.894634 0.51958 1 0.265203 1 -0 
C 1 -0.265203 0.894634 -0.51958 0.707107 -0.707107 
C 0.51958 -0.894634 0.265203 -1 0 -1 
C -0.265203 -1 -0.51958 -0.894634 -0.707107 -0.707107 
C -0.894634 -0.51958 -1 -0.265203 -1 0 
C -1 0.265203 -0.894634 0.51958 -0.707107 0.707107 
C -0.51958 0.894634 -0.265203 1 0 1 
z
"/>
    </defs>
    <g clip-path="url(#p3cbf56d155)">
     <use xlink:href="#C1_0_10ecd6ab84" x="324.065077" y="132.953063"/>
    </g>
    <g clip-path="url(#p3cbf56d155)">
     <use xlink:href="#C1_0_10ecd6ab84" x="318.928939" y="270.662774"/>
    </g>
    <g clip-path="url(#p3cbf56d155)">
     <use xlink:href="#C1_0_10ecd6ab84" x="322.382276" y="219.183024"/>
    </g>
    <g clip-path="url(#p3cbf56d155)">
     <use xlink:href="#C1_0_10ecd6ab84" x="334.002853" y="195.503217"/>
    </g>
    <g clip-path="url(#p3cbf56d155)">
     <use xlink:href="#C1_0_10ecd6ab84" x="324.439398" y="158.757868"/>
    </g>
    <g clip-path="url(#p3cbf56d155)">
     <use xlink:href="#C1_0_10ecd6ab84" x="315.223144" y="228.892789"/>
    </g>
    <g clip-path="url(#p3cbf56d155)">
     <use xlink:href="#C1_0_10ecd6ab84" x="313.910791" y="237.940123"/>
    </g>
    <g clip-path="url(#p3cbf56d155)">
     <use xlink:href="#C1_0_10ecd6ab84" x="314.330463" y="84.142387"/>
    </g>
    <g clip-path="url(#p3cbf56d155)">
     <use xlink:href="#C1_0_10ecd6ab84" x="327.596698" y="219.142875"/>
    </g>
    <g clip-path="url(#p3cbf56d155)">
     <use xlink:href="#C1_0_10ecd6ab84" x="342.496973" y="214.052355"/>
    </g>
    <g clip-path="url(#p3cbf56d155)">
     <use xlink:href="#C1_0_10ecd6ab84" x="349.959454" y="250.107995"/>
    </g>
    <g clip-path="url(#p3cbf56d155)">
     <use xlink:href="#C1_0_10ecd6ab84" x="316.775455" y="258.845506"/>
    </g>
    <g clip-path="url(#p3cbf56d155)">
     <use xlink:href="#C1_0_10ecd6ab84" x="352.349761" y="282.042055"/>
    </g>
    <g clip-path="url(#p3cbf56d155)">
     <use xlink:href="#C1_0_10ecd6ab84" x="345.290902" y="281.87208"/>
    </g>
    <g clip-path="url(#p3cbf56d155)">
     <use xlink:href="#C1_0_10ecd6ab84" x="321.161016" y="134.245121"/>
    </g>
    <g clip-path="url(#p3cbf56d155)">
     <use xlink:href="#C1_0_10ecd6ab84" x="341.995021" y="187.068283"/>
    </g>
    <g clip-path="url(#p3cbf56d155)">
     <use xlink:href="#C1_0_10ecd6ab84" x="342.308526" y="215.941719"/>
    </g>
    <g clip-path="url(#p3cbf56d155)">
     <use xlink:href="#C1_0_10ecd6ab84" x="351.031247" y="53.895297"/>
    </g>
    <g clip-path="url(#p3cbf56d155)">
     <use xlink:href="#C1_0_10ecd6ab84" x="333.903325" y="150.452693"/>
    </g>
    <g clip-path="url(#p3cbf56d155)">
     <use xlink:href="#C1_0_10ecd6ab84" x="317.773642" y="236.093742"/>
    </g>
    <g clip-path="url(#p3cbf56d155)">
     <use xlink:href="#C1_0_10ecd6ab84" x="351.479292" y="220.850226"/>
    </g>
    <g clip-path="url(#p3cbf56d155)">
     <use xlink:href="#C1_0_10ecd6ab84" x="347.906535" y="269.59298"/>
    </g>
    <g clip-path="url(#p3cbf56d155)">
     <use xlink:href="#C1_0_10ecd6ab84" x="315.282009" y="229.226659"/>
    </g>
    <g clip-path="url(#p3cbf56d155)">
     <use xlink:href="#C1_0_10ecd6ab84" x="316.623828" y="303.64"/>
    </g>
    <g clip-path="url(#p3cbf56d155)">
     <use xlink:href="#C1_0_10ecd6ab84" x="333.419418" y="195.977017"/>
    </g>
    <g clip-path="url(#p3cbf56d155)">
     <use xlink:href="#C1_0_10ecd6ab84" x="316.946895" y="164.380245"/>
    </g>
    <g clip-path="url(#p3cbf56d155)">
     <use xlink:href="#C1_0_10ecd6ab84" x="318.21888" y="291.892077"/>
    </g>
    <g clip-path="url(#p3cbf56d155)">
     <use xlink:href="#C1_0_10ecd6ab84" x="327.773526" y="232.325057"/>
    </g>
    <g clip-path="url(#p3cbf56d155)">
     <use xlink:href="#C1_0_10ecd6ab84" x="339.548509" y="251.378985"/>
    </g>
    <g clip-path="url(#p3cbf56d155)">
     <use xlink:href="#C1_0_10ecd6ab84" x="320.085467" y="168.88048"/>
    </g>
    <g clip-path="url(#p3cbf56d155)">
     <use xlink:href="#C1_0_10ecd6ab84" x="319.376448" y="223.055311"/>
    </g>
    <g clip-path="url(#p3cbf56d155)">
     <use xlink:href="#C1_0_10ecd6ab84" x="336.366891" y="185.198052"/>
    </g>
    <g clip-path="url(#p3cbf56d155)">
     <use xlink:href="#C1_0_10ecd6ab84" x="316.840386" y="178.877266"/>
    </g>
    <g clip-path="url(#p3cbf56d155)">
     <use xlink:href="#C1_0_10ecd6ab84" x="324.778374" y="240.931391"/>
    </g>
    <g clip-path="url(#p3cbf56d155)">
     <use xlink:href="#C1_0_10ecd6ab84" x="335.001573" y="210.852093"/>
    </g>
    <g clip-path="url(#p3cbf56d155)">
     <use xlink:href="#C1_0_10ecd6ab84" x="323.315036" y="250.489832"/>
    </g>
    <g clip-path="url(#p3cbf56d155)">
     <use xlink:href="#C1_0_10ecd6ab84" x="319.225167" y="155.717276"/>
    </g>
    <g clip-path="url(#p3cbf56d155)">
     <use xlink:href="#C1_0_10ecd6ab84" x="350.088093" y="209.619811"/>
    </g>
    <g clip-path="url(#p3cbf56d155)">
     <use xlink:href="#C1_0_10ecd6ab84" x="352.290433" y="280.865329"/>
    </g>
    <g clip-path="url(#p3cbf56d155)">
     <use xlink:href="#C1_0_10ecd6ab84" x="347.608337" y="239.704557"/>
    </g>
    <g clip-path="url(#p3cbf56d155)">
     <use xlink:href="#C1_0_10ecd6ab84" x="344.892332" y="210.497462"/>
    </g>
    <g clip-path="url(#p3cbf56d155)">
     <use xlink:href="#C1_0_10ecd6ab84" x="331.66491" y="245.118833"/>
    </g>
    <g clip-path="url(#p3cbf56d155)">
     <use xlink:href="#C1_0_10ecd6ab84" x="331.094617" y="163.568142"/>
    </g>
    <g clip-path="url(#p3cbf56d155)">
     <use xlink:href="#C1_0_10ecd6ab84" x="325.224931" y="244.615924"/>
    </g>
    <g clip-path="url(#p3cbf56d155)">
     <use xlink:href="#C1_0_10ecd6ab84" x="346.435706" y="212.999292"/>
    </g>
    <g clip-path="url(#p3cbf56d155)">
     <use xlink:href="#C1_0_10ecd6ab84" x="350.024112" y="238.087422"/>
    </g>
    <g clip-path="url(#p3cbf56d155)">
     <use xlink:href="#C1_0_10ecd6ab84" x="322.822811" y="210.624605"/>
    </g>
    <g clip-path="url(#p3cbf56d155)">
     <use xlink:href="#C1_0_10ecd6ab84" x="316.411947" y="136.564132"/>
    </g>
    <g clip-path="url(#p3cbf56d155)">
     <use xlink:href="#C1_0_10ecd6ab84" x="323.766569" y="158.372242"/>
    </g>
   </g>
   <g id="text_11">
    <!-- 46 -->
    <g style="fill: #262626" transform="translate(196.474 238.562839)scale(0.1 -0.1)">
     <defs>
      <path id="ArialMT-34" d="M 2069 0 
L 2069 1097 
L 81 1097 
L 81 1613 
L 2172 4581 
L 2631 4581 
L 2631 1613 
L 3250 1613 
L 3250 1097 
L 2631 1097 
L 2631 0 
L 2069 0 
z
M 2069 1613 
L 2069 3678 
L 634 1613 
L 2069 1613 
z
" transform="scale(0.015625)"/>
      <path id="ArialMT-36" d="M 3184 3459 
L 2625 3416 
Q 2550 3747 2413 3897 
Q 2184 4138 1850 4138 
Q 1581 4138 1378 3988 
Q 1113 3794 959 3422 
Q 806 3050 800 2363 
Q 1003 2672 1297 2822 
Q 1591 2972 1913 2972 
Q 2475 2972 2870 2558 
Q 3266 2144 3266 1488 
Q 3266 1056 3080 686 
Q 2894 316 2569 119 
Q 2244 -78 1831 -78 
Q 1128 -78 684 439 
Q 241 956 241 2144 
Q 241 3472 731 4075 
Q 1159 4600 1884 4600 
Q 2425 4600 2770 4297 
Q 3116 3994 3184 3459 
z
M 888 1484 
Q 888 1194 1011 928 
Q 1134 663 1356 523 
Q 1578 384 1822 384 
Q 2178 384 2434 671 
Q 2691 959 2691 1453 
Q 2691 1928 2437 2201 
Q 2184 2475 1800 2475 
Q 1419 2475 1153 2201 
Q 888 1928 888 1484 
z
" transform="scale(0.015625)"/>
     </defs>
     <use xlink:href="#ArialMT-34"/>
     <use xlink:href="#ArialMT-36" x="55.615234"/>
    </g>
   </g>
   <g id="text_12">
    <!-- p=nan -->
    <g style="fill: #262626" transform="translate(185.24025 16.559968)scale(0.08 -0.08)">
     <defs>
      <path id="ArialMT-3d" d="M 3381 2694 
L 356 2694 
L 356 3219 
L 3381 3219 
L 3381 2694 
z
M 3381 1303 
L 356 1303 
L 356 1828 
L 3381 1828 
L 3381 1303 
z
" transform="scale(0.015625)"/>
     </defs>
     <use xlink:href="#ArialMT-70"/>
     <use xlink:href="#ArialMT-3d" x="55.615234"/>
     <use xlink:href="#ArialMT-6e" x="114.013672"/>
     <use xlink:href="#ArialMT-61" x="169.628906"/>
     <use xlink:href="#ArialMT-6e" x="225.244141"/>
    </g>
   </g>
   <g id="text_13">
    <!-- 49 -->
    <g style="fill: #262626" transform="translate(313.486 238.562839)scale(0.1 -0.1)">
     <defs>
      <path id="ArialMT-39" d="M 350 1059 
L 891 1109 
Q 959 728 1153 556 
Q 1347 384 1650 384 
Q 1909 384 2104 503 
Q 2300 622 2425 820 
Q 2550 1019 2634 1356 
Q 2719 1694 2719 2044 
Q 2719 2081 2716 2156 
Q 2547 1888 2255 1720 
Q 1963 1553 1622 1553 
Q 1053 1553 659 1965 
Q 266 2378 266 3053 
Q 266 3750 677 4175 
Q 1088 4600 1706 4600 
Q 2153 4600 2523 4359 
Q 2894 4119 3086 3673 
Q 3278 3228 3278 2384 
Q 3278 1506 3087 986 
Q 2897 466 2520 194 
Q 2144 -78 1638 -78 
Q 1100 -78 759 220 
Q 419 519 350 1059 
z
M 2653 3081 
Q 2653 3566 2395 3850 
Q 2138 4134 1775 4134 
Q 1400 4134 1122 3828 
Q 844 3522 844 3034 
Q 844 2597 1108 2323 
Q 1372 2050 1759 2050 
Q 2150 2050 2401 2323 
Q 2653 2597 2653 3081 
z
" transform="scale(0.015625)"/>
     </defs>
     <use xlink:href="#ArialMT-34"/>
     <use xlink:href="#ArialMT-39" x="55.615234"/>
    </g>
   </g>
   <g id="text_14">
    <!-- p=nan -->
    <g style="fill: #262626" transform="translate(302.25225 53.894861)scale(0.08 -0.08)">
     <use xlink:href="#ArialMT-70"/>
     <use xlink:href="#ArialMT-3d" x="55.615234"/>
     <use xlink:href="#ArialMT-6e" x="114.013672"/>
     <use xlink:href="#ArialMT-61" x="169.628906"/>
     <use xlink:href="#ArialMT-6e" x="225.244141"/>
    </g>
   </g>
   <g id="legend_1">
    <g id="patch_11">
     <path d="M 389.65625 32.718216 
L 409.65625 32.718216 
L 409.65625 25.718216 
L 389.65625 25.718216 
z
" style="fill: #ecf2ec; stroke: #262626; stroke-width: 0.75; stroke-linejoin: miter"/>
    </g>
    <g id="text_15">
     <!-- clash -->
     <g style="fill: #262626" transform="translate(417.65625 32.718216)scale(0.1 -0.1)">
      <defs>
       <path id="ArialMT-68" d="M 422 0 
L 422 4581 
L 984 4581 
L 984 2938 
Q 1378 3394 1978 3394 
Q 2347 3394 2619 3248 
Q 2891 3103 3008 2847 
Q 3125 2591 3125 2103 
L 3125 0 
L 2563 0 
L 2563 2103 
Q 2563 2525 2380 2717 
Q 2197 2909 1863 2909 
Q 1613 2909 1392 2779 
Q 1172 2650 1078 2428 
Q 984 2206 984 1816 
L 984 0 
L 422 0 
z
" transform="scale(0.015625)"/>
      </defs>
      <use xlink:href="#ArialMT-63"/>
      <use xlink:href="#ArialMT-6c" x="50"/>
      <use xlink:href="#ArialMT-61" x="72.216797"/>
      <use xlink:href="#ArialMT-73" x="127.832031"/>
      <use xlink:href="#ArialMT-68" x="177.832031"/>
     </g>
    </g>
    <g id="patch_12">
     <path d="M 389.65625 46.863529 
L 409.65625 46.863529 
L 409.65625 39.863529 
L 389.65625 39.863529 
z
" style="fill: #107010; stroke: #262626; stroke-width: 0.75; stroke-linejoin: miter"/>
    </g>
    <g id="text_16">
     <!-- void -->
     <g style="fill: #262626" transform="translate(417.65625 46.863529)scale(0.1 -0.1)">
      <defs>
       <path id="ArialMT-76" d="M 1344 0 
L 81 3319 
L 675 3319 
L 1388 1331 
Q 1503 1009 1600 663 
Q 1675 925 1809 1294 
L 2547 3319 
L 3125 3319 
L 1869 0 
L 1344 0 
z
" transform="scale(0.015625)"/>
       <path id="ArialMT-69" d="M 425 3934 
L 425 4581 
L 988 4581 
L 988 3934 
L 425 3934 
z
M 425 0 
L 425 3319 
L 988 3319 
L 988 0 
L 425 0 
z
" transform="scale(0.015625)"/>
       <path id="ArialMT-64" d="M 2575 0 
L 2575 419 
Q 2259 -75 1647 -75 
Q 1250 -75 917 144 
Q 584 363 401 755 
Q 219 1147 219 1656 
Q 219 2153 384 2558 
Q 550 2963 881 3178 
Q 1213 3394 1622 3394 
Q 1922 3394 2156 3267 
Q 2391 3141 2538 2938 
L 2538 4581 
L 3097 4581 
L 3097 0 
L 2575 0 
z
M 797 1656 
Q 797 1019 1065 703 
Q 1334 388 1700 388 
Q 2069 388 2326 689 
Q 2584 991 2584 1609 
Q 2584 2291 2321 2609 
Q 2059 2928 1675 2928 
Q 1300 2928 1048 2622 
Q 797 2316 797 1656 
z
" transform="scale(0.015625)"/>
      </defs>
      <use xlink:href="#ArialMT-76"/>
      <use xlink:href="#ArialMT-6f" x="50"/>
      <use xlink:href="#ArialMT-69" x="105.615234"/>
      <use xlink:href="#ArialMT-64" x="127.832031"/>
     </g>
    </g>
   </g>
  </g>
 </g>
 <defs>
  <clipPath id="p3cbf56d155">
   <rect x="59.96" y="16.560404" width="390.04" height="287.079596"/>
  </clipPath>
 </defs>
</svg>
