<?xml version="1.0" encoding="utf-8" standalone="no"?>
<!DOCTYPE svg PUBLIC "-//W3C//DTD SVG 1.1//EN"
  "http://www.w3.org/Graphics/SVG/1.1/DTD/svg11.dtd">
<svg xmlns:xlink="http://www.w3.org/1999/xlink" width="460.8pt" height="345.6pt" viewBox="0 0 460.8 345.6" xmlns="http://www.w3.org/2000/svg" version="1.1">
 <metadata>
  <rdf:RDF xmlns:dc="http://purl.org/dc/elements/1.1/" xmlns:cc="http://creativecommons.org/ns#" xmlns:rdf="http://www.w3.org/1999/02/22-rdf-syntax-ns#">
   <cc:Work>
    <dc:type rdf:resource="http://purl.org/dc/dcmitype/StillImage"/>
    <dc:date>2024-02-24T17:24:57.751272</dc:date>
    <dc:format>image/svg+xml</dc:format>
    <dc:creator>
     <cc:Agent>
      <dc:title>Matplotlib v3.5.3, https://matplotlib.org/</dc:title>
     </cc:Agent>
    </dc:creator>
   </cc:Work>
  </rdf:RDF>
 </metadata>
 <defs>
  <style type="text/css">*{stroke-linejoin: round; stroke-linecap: butt}</style>
 </defs>
 <g id="figure_1">
  <g id="patch_1">
   <path d="M 0 345.6 
L 460.8 345.6 
L 460.8 0 
L 0 0 
z
" style="fill: #ffffff"/>
  </g>
  <g id="axes_1">
   <g id="patch_2">
    <path d="M 47.82125 303.64 
L 450 303.64 
L 450 46.675714 
L 47.82125 46.675714 
z
" style="fill: #ffffff"/>
   </g>
   <g id="PathCollection_1">
    <defs>
     <path id="mf8223e5ef3" d="M 0 3 
C 0.795609 3 1.55874 2.683901 2.12132 2.12132 
C 2.683901 1.55874 3 0.795609 3 0 
C 3 -0.795609 2.683901 -1.55874 2.12132 -2.12132 
C 1.55874 -2.683901 0.795609 -3 0 -3 
C -0.795609 -3 -1.55874 -2.683901 -2.12132 -2.12132 
C -2.683901 -1.55874 -3 -0.795609 -3 0 
C -3 0.795609 -2.683901 1.55874 -2.12132 2.12132 
C -1.55874 2.683901 -0.795609 3 0 3 
z
" style="stroke: #1f77b4"/>
    </defs>
    <g clip-path="url(#pe8c866e111)">
     <use xlink:href="#mf8223e5ef3" x="234.076477" y="212.259162" style="fill: #1f77b4; stroke: #1f77b4"/>
     <use xlink:href="#mf8223e5ef3" x="152.09637" y="238.479811" style="fill: #1f77b4; stroke: #1f77b4"/>
     <use xlink:href="#mf8223e5ef3" x="94.730366" y="205.903827" style="fill: #1f77b4; stroke: #1f77b4"/>
     <use xlink:href="#mf8223e5ef3" x="272.229249" y="177.677499" style="fill: #1f77b4; stroke: #1f77b4"/>
     <use xlink:href="#mf8223e5ef3" x="179.794078" y="193.065861" style="fill: #1f77b4; stroke: #1f77b4"/>
     <use xlink:href="#mf8223e5ef3" x="92.887501" y="246.313302" style="fill: #1f77b4; stroke: #1f77b4"/>
     <use xlink:href="#mf8223e5ef3" x="88.508417" y="209.571013" style="fill: #1f77b4; stroke: #1f77b4"/>
     <use xlink:href="#mf8223e5ef3" x="99.145942" y="192.97497" style="fill: #1f77b4; stroke: #1f77b4"/>
     <use xlink:href="#mf8223e5ef3" x="172.258404" y="224.116941" style="fill: #1f77b4; stroke: #1f77b4"/>
     <use xlink:href="#mf8223e5ef3" x="217.837373" y="150.855108" style="fill: #1f77b4; stroke: #1f77b4"/>
     <use xlink:href="#mf8223e5ef3" x="235.536172" y="175.681767" style="fill: #1f77b4; stroke: #1f77b4"/>
     <use xlink:href="#mf8223e5ef3" x="66.102102" y="193.715275" style="fill: #1f77b4; stroke: #1f77b4"/>
     <use xlink:href="#mf8223e5ef3" x="139.579487" y="228.439689" style="fill: #1f77b4; stroke: #1f77b4"/>
     <use xlink:href="#mf8223e5ef3" x="187.658184" y="234.840295" style="fill: #1f77b4; stroke: #1f77b4"/>
     <use xlink:href="#mf8223e5ef3" x="260.825383" y="232.848272" style="fill: #1f77b4; stroke: #1f77b4"/>
     <use xlink:href="#mf8223e5ef3" x="103.397303" y="235.365411" style="fill: #1f77b4; stroke: #1f77b4"/>
     <use xlink:href="#mf8223e5ef3" x="121.388041" y="178.984111" style="fill: #1f77b4; stroke: #1f77b4"/>
     <use xlink:href="#mf8223e5ef3" x="147.023931" y="230.344791" style="fill: #1f77b4; stroke: #1f77b4"/>
     <use xlink:href="#mf8223e5ef3" x="177.093643" y="182.784691" style="fill: #1f77b4; stroke: #1f77b4"/>
     <use xlink:href="#mf8223e5ef3" x="198.076755" y="173.185434" style="fill: #1f77b4; stroke: #1f77b4"/>
     <use xlink:href="#mf8223e5ef3" x="159.467828" y="217.383715" style="fill: #1f77b4; stroke: #1f77b4"/>
     <use xlink:href="#mf8223e5ef3" x="141.00269" y="199.954615" style="fill: #1f77b4; stroke: #1f77b4"/>
     <use xlink:href="#mf8223e5ef3" x="208.842004" y="158.500748" style="fill: #1f77b4; stroke: #1f77b4"/>
     <use xlink:href="#mf8223e5ef3" x="177.458566" y="164.42477" style="fill: #1f77b4; stroke: #1f77b4"/>
     <use xlink:href="#mf8223e5ef3" x="208.166895" y="200.975425" style="fill: #1f77b4; stroke: #1f77b4"/>
     <use xlink:href="#mf8223e5ef3" x="163.518481" y="203.26997" style="fill: #1f77b4; stroke: #1f77b4"/>
     <use xlink:href="#mf8223e5ef3" x="142.517123" y="224.90703" style="fill: #1f77b4; stroke: #1f77b4"/>
     <use xlink:href="#mf8223e5ef3" x="125.803618" y="175.817409" style="fill: #1f77b4; stroke: #1f77b4"/>
     <use xlink:href="#mf8223e5ef3" x="261.500492" y="238.101615" style="fill: #1f77b4; stroke: #1f77b4"/>
     <use xlink:href="#mf8223e5ef3" x="166.857533" y="211.041142" style="fill: #1f77b4; stroke: #1f77b4"/>
     <use xlink:href="#mf8223e5ef3" x="145.16282" y="199.29565" style="fill: #1f77b4; stroke: #1f77b4"/>
     <use xlink:href="#mf8223e5ef3" x="269.656537" y="191.840888" style="fill: #1f77b4; stroke: #1f77b4"/>
     <use xlink:href="#mf8223e5ef3" x="299.489048" y="244.664766" style="fill: #1f77b4; stroke: #1f77b4"/>
     <use xlink:href="#mf8223e5ef3" x="176.43678" y="221.510095" style="fill: #1f77b4; stroke: #1f77b4"/>
     <use xlink:href="#mf8223e5ef3" x="140.583027" y="258.71706" style="fill: #1f77b4; stroke: #1f77b4"/>
     <use xlink:href="#mf8223e5ef3" x="167.459657" y="208.705127" style="fill: #1f77b4; stroke: #1f77b4"/>
     <use xlink:href="#mf8223e5ef3" x="141.568321" y="247.559316" style="fill: #1f77b4; stroke: #1f77b4"/>
     <use xlink:href="#mf8223e5ef3" x="219.205837" y="149.559921" style="fill: #1f77b4; stroke: #1f77b4"/>
     <use xlink:href="#mf8223e5ef3" x="221.86978" y="225.950615" style="fill: #1f77b4; stroke: #1f77b4"/>
     <use xlink:href="#mf8223e5ef3" x="220.95747" y="214.987656" style="fill: #1f77b4; stroke: #1f77b4"/>
     <use xlink:href="#mf8223e5ef3" x="101.700408" y="145.377015" style="fill: #1f77b4; stroke: #1f77b4"/>
     <use xlink:href="#mf8223e5ef3" x="178.863523" y="189.409211" style="fill: #1f77b4; stroke: #1f77b4"/>
     <use xlink:href="#mf8223e5ef3" x="199.627681" y="254.30727" style="fill: #1f77b4; stroke: #1f77b4"/>
     <use xlink:href="#mf8223e5ef3" x="160.872785" y="226.32623" style="fill: #1f77b4; stroke: #1f77b4"/>
     <use xlink:href="#mf8223e5ef3" x="200.813683" y="134.005698" style="fill: #1f77b4; stroke: #1f77b4"/>
     <use xlink:href="#mf8223e5ef3" x="178.900015" y="218.449066" style="fill: #1f77b4; stroke: #1f77b4"/>
     <use xlink:href="#mf8223e5ef3" x="169.849907" y="150.773762" style="fill: #1f77b4; stroke: #1f77b4"/>
     <use xlink:href="#mf8223e5ef3" x="203.860795" y="185.304957" style="fill: #1f77b4; stroke: #1f77b4"/>
     <use xlink:href="#mf8223e5ef3" x="215.629584" y="211.115683" style="fill: #1f77b4; stroke: #1f77b4"/>
     <use xlink:href="#mf8223e5ef3" x="203.076209" y="158.191511" style="fill: #1f77b4; stroke: #1f77b4"/>
     <use xlink:href="#mf8223e5ef3" x="194.774196" y="221.635464" style="fill: #1f77b4; stroke: #1f77b4"/>
     <use xlink:href="#mf8223e5ef3" x="431.719148" y="229.412966" style="fill: #1f77b4; stroke: #1f77b4"/>
     <use xlink:href="#mf8223e5ef3" x="128.960208" y="231.057182" style="fill: #1f77b4; stroke: #1f77b4"/>
     <use xlink:href="#mf8223e5ef3" x="149.487166" y="195.132276" style="fill: #1f77b4; stroke: #1f77b4"/>
     <use xlink:href="#mf8223e5ef3" x="207.656002" y="201.935686" style="fill: #1f77b4; stroke: #1f77b4"/>
     <use xlink:href="#mf8223e5ef3" x="259.146735" y="199.811457" style="fill: #1f77b4; stroke: #1f77b4"/>
     <use xlink:href="#mf8223e5ef3" x="173.152467" y="238.386579" style="fill: #1f77b4; stroke: #1f77b4"/>
     <use xlink:href="#mf8223e5ef3" x="176.017118" y="197.429484" style="fill: #1f77b4; stroke: #1f77b4"/>
     <use xlink:href="#mf8223e5ef3" x="202.656547" y="231.976972" style="fill: #1f77b4; stroke: #1f77b4"/>
     <use xlink:href="#mf8223e5ef3" x="212.710195" y="202.346852" style="fill: #1f77b4; stroke: #1f77b4"/>
     <use xlink:href="#mf8223e5ef3" x="274.838453" y="221.254146" style="fill: #1f77b4; stroke: #1f77b4"/>
     <use xlink:href="#mf8223e5ef3" x="282.629574" y="199.170272" style="fill: #1f77b4; stroke: #1f77b4"/>
     <use xlink:href="#mf8223e5ef3" x="221.96101" y="186.515837" style="fill: #1f77b4; stroke: #1f77b4"/>
     <use xlink:href="#mf8223e5ef3" x="198.240971" y="258.882043" style="fill: #1f77b4; stroke: #1f77b4"/>
     <use xlink:href="#mf8223e5ef3" x="144.287003" y="202.691167" style="fill: #1f77b4; stroke: #1f77b4"/>
     <use xlink:href="#mf8223e5ef3" x="159.376598" y="200.45264" style="fill: #1f77b4; stroke: #1f77b4"/>
     <use xlink:href="#mf8223e5ef3" x="198.514663" y="219.427012" style="fill: #1f77b4; stroke: #1f77b4"/>
     <use xlink:href="#mf8223e5ef3" x="161.511401" y="224.141924" style="fill: #1f77b4; stroke: #1f77b4"/>
     <use xlink:href="#mf8223e5ef3" x="194.536995" y="185.967646" style="fill: #1f77b4; stroke: #1f77b4"/>
     <use xlink:href="#mf8223e5ef3" x="297.062306" y="204.562244" style="fill: #1f77b4; stroke: #1f77b4"/>
     <use xlink:href="#mf8223e5ef3" x="250.680505" y="210.983774" style="fill: #1f77b4; stroke: #1f77b4"/>
     <use xlink:href="#mf8223e5ef3" x="186.107258" y="235.923849" style="fill: #1f77b4; stroke: #1f77b4"/>
     <use xlink:href="#mf8223e5ef3" x="233.091183" y="231.596968" style="fill: #1f77b4; stroke: #1f77b4"/>
     <use xlink:href="#mf8223e5ef3" x="193.953117" y="217.52725" style="fill: #1f77b4; stroke: #1f77b4"/>
     <use xlink:href="#mf8223e5ef3" x="245.389111" y="230.656512" style="fill: #1f77b4; stroke: #1f77b4"/>
     <use xlink:href="#mf8223e5ef3" x="215.428876" y="216.295943" style="fill: #1f77b4; stroke: #1f77b4"/>
     <use xlink:href="#mf8223e5ef3" x="270.222169" y="227.746422" style="fill: #1f77b4; stroke: #1f77b4"/>
     <use xlink:href="#mf8223e5ef3" x="144.049803" y="225.424406" style="fill: #1f77b4; stroke: #1f77b4"/>
     <use xlink:href="#mf8223e5ef3" x="167.441411" y="118.564482" style="fill: #1f77b4; stroke: #1f77b4"/>
     <use xlink:href="#mf8223e5ef3" x="157.661456" y="196.913395" style="fill: #1f77b4; stroke: #1f77b4"/>
     <use xlink:href="#mf8223e5ef3" x="203.641841" y="174.507354" style="fill: #1f77b4; stroke: #1f77b4"/>
     <use xlink:href="#mf8223e5ef3" x="241.721628" y="142.762452" style="fill: #1f77b4; stroke: #1f77b4"/>
     <use xlink:href="#mf8223e5ef3" x="194.518749" y="211.422825" style="fill: #1f77b4; stroke: #1f77b4"/>
     <use xlink:href="#mf8223e5ef3" x="249.585734" y="221.765379" style="fill: #1f77b4; stroke: #1f77b4"/>
     <use xlink:href="#mf8223e5ef3" x="207.491786" y="70.951855" style="fill: #1f77b4; stroke: #1f77b4"/>
    </g>
   </g>
   <g id="matplotlib.axis_1">
    <g id="xtick_1">
     <g id="line2d_1">
      <defs>
       <path id="m527dae8e1c" d="M 0 0 
L 0 3.5 
" style="stroke: #000000; stroke-width: 0.8"/>
      </defs>
      <g>
       <use xlink:href="#m527dae8e1c" x="65.335763" y="303.64" style="stroke: #000000; stroke-width: 0.8"/>
      </g>
     </g>
     <g id="text_1">
      <!-- 12.5 -->
      <g transform="translate(54.20295 318.238437)scale(0.1 -0.1)">
       <defs>
        <path id="DejaVuSans-31" d="M 794 531 
L 1825 531 
L 1825 4091 
L 703 3866 
L 703 4441 
L 1819 4666 
L 2450 4666 
L 2450 531 
L 3481 531 
L 3481 0 
L 794 0 
L 794 531 
z
" transform="scale(0.015625)"/>
        <path id="DejaVuSans-32" d="M 1228 531 
L 3431 531 
L 3431 0 
L 469 0 
L 469 531 
Q 828 903 1448 1529 
Q 2069 2156 2228 2338 
Q 2531 2678 2651 2914 
Q 2772 3150 2772 3378 
Q 2772 3750 2511 3984 
Q 2250 4219 1831 4219 
Q 1534 4219 1204 4116 
Q 875 4013 500 3803 
L 500 4441 
Q 881 4594 1212 4672 
Q 1544 4750 1819 4750 
Q 2544 4750 2975 4387 
Q 3406 4025 3406 3419 
Q 3406 3131 3298 2873 
Q 3191 2616 2906 2266 
Q 2828 2175 2409 1742 
Q 1991 1309 1228 531 
z
" transform="scale(0.015625)"/>
        <path id="DejaVuSans-2e" d="M 684 794 
L 1344 794 
L 1344 0 
L 684 0 
L 684 794 
z
" transform="scale(0.015625)"/>
        <path id="DejaVuSans-35" d="M 691 4666 
L 3169 4666 
L 3169 4134 
L 1269 4134 
L 1269 2991 
Q 1406 3038 1543 3061 
Q 1681 3084 1819 3084 
Q 2600 3084 3056 2656 
Q 3513 2228 3513 1497 
Q 3513 744 3044 326 
Q 2575 -91 1722 -91 
Q 1428 -91 1123 -41 
Q 819 9 494 109 
L 494 744 
Q 775 591 1075 516 
Q 1375 441 1709 441 
Q 2250 441 2565 725 
Q 2881 1009 2881 1497 
Q 2881 1984 2565 2268 
Q 2250 2553 1709 2553 
Q 1456 2553 1204 2497 
Q 953 2441 691 2322 
L 691 4666 
z
" transform="scale(0.015625)"/>
       </defs>
       <use xlink:href="#DejaVuSans-31"/>
       <use xlink:href="#DejaVuSans-32" x="63.623047"/>
       <use xlink:href="#DejaVuSans-2e" x="127.246094"/>
       <use xlink:href="#DejaVuSans-35" x="159.033203"/>
      </g>
     </g>
    </g>
    <g id="xtick_2">
     <g id="line2d_2">
      <g>
       <use xlink:href="#m527dae8e1c" x="110.951224" y="303.64" style="stroke: #000000; stroke-width: 0.8"/>
      </g>
     </g>
     <g id="text_2">
      <!-- 15.0 -->
      <g transform="translate(99.818411 318.238437)scale(0.1 -0.1)">
       <defs>
        <path id="DejaVuSans-30" d="M 2034 4250 
Q 1547 4250 1301 3770 
Q 1056 3291 1056 2328 
Q 1056 1369 1301 889 
Q 1547 409 2034 409 
Q 2525 409 2770 889 
Q 3016 1369 3016 2328 
Q 3016 3291 2770 3770 
Q 2525 4250 2034 4250 
z
M 2034 4750 
Q 2819 4750 3233 4129 
Q 3647 3509 3647 2328 
Q 3647 1150 3233 529 
Q 2819 -91 2034 -91 
Q 1250 -91 836 529 
Q 422 1150 422 2328 
Q 422 3509 836 4129 
Q 1250 4750 2034 4750 
z
" transform="scale(0.015625)"/>
       </defs>
       <use xlink:href="#DejaVuSans-31"/>
       <use xlink:href="#DejaVuSans-35" x="63.623047"/>
       <use xlink:href="#DejaVuSans-2e" x="127.246094"/>
       <use xlink:href="#DejaVuSans-30" x="159.033203"/>
      </g>
     </g>
    </g>
    <g id="xtick_3">
     <g id="line2d_3">
      <g>
       <use xlink:href="#m527dae8e1c" x="156.566685" y="303.64" style="stroke: #000000; stroke-width: 0.8"/>
      </g>
     </g>
     <g id="text_3">
      <!-- 17.5 -->
      <g transform="translate(145.433873 318.238437)scale(0.1 -0.1)">
       <defs>
        <path id="DejaVuSans-37" d="M 525 4666 
L 3525 4666 
L 3525 4397 
L 1831 0 
L 1172 0 
L 2766 4134 
L 525 4134 
L 525 4666 
z
" transform="scale(0.015625)"/>
       </defs>
       <use xlink:href="#DejaVuSans-31"/>
       <use xlink:href="#DejaVuSans-37" x="63.623047"/>
       <use xlink:href="#DejaVuSans-2e" x="127.246094"/>
       <use xlink:href="#DejaVuSans-35" x="159.033203"/>
      </g>
     </g>
    </g>
    <g id="xtick_4">
     <g id="line2d_4">
      <g>
       <use xlink:href="#m527dae8e1c" x="202.182146" y="303.64" style="stroke: #000000; stroke-width: 0.8"/>
      </g>
     </g>
     <g id="text_4">
      <!-- 20.0 -->
      <g transform="translate(191.049334 318.238437)scale(0.1 -0.1)">
       <use xlink:href="#DejaVuSans-32"/>
       <use xlink:href="#DejaVuSans-30" x="63.623047"/>
       <use xlink:href="#DejaVuSans-2e" x="127.246094"/>
       <use xlink:href="#DejaVuSans-30" x="159.033203"/>
      </g>
     </g>
    </g>
    <g id="xtick_5">
     <g id="line2d_5">
      <g>
       <use xlink:href="#m527dae8e1c" x="247.797608" y="303.64" style="stroke: #000000; stroke-width: 0.8"/>
      </g>
     </g>
     <g id="text_5">
      <!-- 22.5 -->
      <g transform="translate(236.664795 318.238437)scale(0.1 -0.1)">
       <use xlink:href="#DejaVuSans-32"/>
       <use xlink:href="#DejaVuSans-32" x="63.623047"/>
       <use xlink:href="#DejaVuSans-2e" x="127.246094"/>
       <use xlink:href="#DejaVuSans-35" x="159.033203"/>
      </g>
     </g>
    </g>
    <g id="xtick_6">
     <g id="line2d_6">
      <g>
       <use xlink:href="#m527dae8e1c" x="293.413069" y="303.64" style="stroke: #000000; stroke-width: 0.8"/>
      </g>
     </g>
     <g id="text_6">
      <!-- 25.0 -->
      <g transform="translate(282.280257 318.238437)scale(0.1 -0.1)">
       <use xlink:href="#DejaVuSans-32"/>
       <use xlink:href="#DejaVuSans-35" x="63.623047"/>
       <use xlink:href="#DejaVuSans-2e" x="127.246094"/>
       <use xlink:href="#DejaVuSans-30" x="159.033203"/>
      </g>
     </g>
    </g>
    <g id="xtick_7">
     <g id="line2d_7">
      <g>
       <use xlink:href="#m527dae8e1c" x="339.02853" y="303.64" style="stroke: #000000; stroke-width: 0.8"/>
      </g>
     </g>
     <g id="text_7">
      <!-- 27.5 -->
      <g transform="translate(327.895718 318.238437)scale(0.1 -0.1)">
       <use xlink:href="#DejaVuSans-32"/>
       <use xlink:href="#DejaVuSans-37" x="63.623047"/>
       <use xlink:href="#DejaVuSans-2e" x="127.246094"/>
       <use xlink:href="#DejaVuSans-35" x="159.033203"/>
      </g>
     </g>
    </g>
    <g id="xtick_8">
     <g id="line2d_8">
      <g>
       <use xlink:href="#m527dae8e1c" x="384.643992" y="303.64" style="stroke: #000000; stroke-width: 0.8"/>
      </g>
     </g>
     <g id="text_8">
      <!-- 30.0 -->
      <g transform="translate(373.511179 318.238437)scale(0.1 -0.1)">
       <defs>
        <path id="DejaVuSans-33" d="M 2597 2516 
Q 3050 2419 3304 2112 
Q 3559 1806 3559 1356 
Q 3559 666 3084 287 
Q 2609 -91 1734 -91 
Q 1441 -91 1130 -33 
Q 819 25 488 141 
L 488 750 
Q 750 597 1062 519 
Q 1375 441 1716 441 
Q 2309 441 2620 675 
Q 2931 909 2931 1356 
Q 2931 1769 2642 2001 
Q 2353 2234 1838 2234 
L 1294 2234 
L 1294 2753 
L 1863 2753 
Q 2328 2753 2575 2939 
Q 2822 3125 2822 3475 
Q 2822 3834 2567 4026 
Q 2313 4219 1838 4219 
Q 1578 4219 1281 4162 
Q 984 4106 628 3988 
L 628 4550 
Q 988 4650 1302 4700 
Q 1616 4750 1894 4750 
Q 2613 4750 3031 4423 
Q 3450 4097 3450 3541 
Q 3450 3153 3228 2886 
Q 3006 2619 2597 2516 
z
" transform="scale(0.015625)"/>
       </defs>
       <use xlink:href="#DejaVuSans-33"/>
       <use xlink:href="#DejaVuSans-30" x="63.623047"/>
       <use xlink:href="#DejaVuSans-2e" x="127.246094"/>
       <use xlink:href="#DejaVuSans-30" x="159.033203"/>
      </g>
     </g>
    </g>
    <g id="xtick_9">
     <g id="line2d_9">
      <g>
       <use xlink:href="#m527dae8e1c" x="430.259453" y="303.64" style="stroke: #000000; stroke-width: 0.8"/>
      </g>
     </g>
     <g id="text_9">
      <!-- 32.5 -->
      <g transform="translate(419.12664 318.238437)scale(0.1 -0.1)">
       <use xlink:href="#DejaVuSans-33"/>
       <use xlink:href="#DejaVuSans-32" x="63.623047"/>
       <use xlink:href="#DejaVuSans-2e" x="127.246094"/>
       <use xlink:href="#DejaVuSans-35" x="159.033203"/>
      </g>
     </g>
    </g>
    <g id="text_10">
     <!-- IMM1Diff -->
     <g transform="translate(226.866875 331.916562)scale(0.1 -0.1)">
      <defs>
       <path id="DejaVuSans-49" d="M 628 4666 
L 1259 4666 
L 1259 0 
L 628 0 
L 628 4666 
z
" transform="scale(0.015625)"/>
       <path id="DejaVuSans-4d" d="M 628 4666 
L 1569 4666 
L 2759 1491 
L 3956 4666 
L 4897 4666 
L 4897 0 
L 4281 0 
L 4281 4097 
L 3078 897 
L 2444 897 
L 1241 4097 
L 1241 0 
L 628 0 
L 628 4666 
z
" transform="scale(0.015625)"/>
       <path id="DejaVuSans-44" d="M 1259 4147 
L 1259 519 
L 2022 519 
Q 2988 519 3436 956 
Q 3884 1394 3884 2338 
Q 3884 3275 3436 3711 
Q 2988 4147 2022 4147 
L 1259 4147 
z
M 628 4666 
L 1925 4666 
Q 3281 4666 3915 4102 
Q 4550 3538 4550 2338 
Q 4550 1131 3912 565 
Q 3275 0 1925 0 
L 628 0 
L 628 4666 
z
" transform="scale(0.015625)"/>
       <path id="DejaVuSans-69" d="M 603 3500 
L 1178 3500 
L 1178 0 
L 603 0 
L 603 3500 
z
M 603 4863 
L 1178 4863 
L 1178 4134 
L 603 4134 
L 603 4863 
z
" transform="scale(0.015625)"/>
       <path id="DejaVuSans-66" d="M 2375 4863 
L 2375 4384 
L 1825 4384 
Q 1516 4384 1395 4259 
Q 1275 4134 1275 3809 
L 1275 3500 
L 2222 3500 
L 2222 3053 
L 1275 3053 
L 1275 0 
L 697 0 
L 697 3053 
L 147 3053 
L 147 3500 
L 697 3500 
L 697 3744 
Q 697 4328 969 4595 
Q 1241 4863 1831 4863 
L 2375 4863 
z
" transform="scale(0.015625)"/>
      </defs>
      <use xlink:href="#DejaVuSans-49"/>
      <use xlink:href="#DejaVuSans-4d" x="29.492188"/>
      <use xlink:href="#DejaVuSans-4d" x="115.771484"/>
      <use xlink:href="#DejaVuSans-31" x="202.050781"/>
      <use xlink:href="#DejaVuSans-44" x="265.673828"/>
      <use xlink:href="#DejaVuSans-69" x="342.675781"/>
      <use xlink:href="#DejaVuSans-66" x="370.458984"/>
      <use xlink:href="#DejaVuSans-66" x="405.664062"/>
     </g>
    </g>
   </g>
   <g id="matplotlib.axis_2">
    <g id="ytick_1">
     <g id="line2d_10">
      <defs>
       <path id="m61356009af" d="M 0 0 
L -3.5 0 
" style="stroke: #000000; stroke-width: 0.8"/>
      </defs>
      <g>
       <use xlink:href="#m61356009af" x="47.82125" y="303.64" style="stroke: #000000; stroke-width: 0.8"/>
      </g>
     </g>
     <g id="text_11">
      <!-- 0.0 -->
      <g transform="translate(24.918125 307.439219)scale(0.1 -0.1)">
       <use xlink:href="#DejaVuSans-30"/>
       <use xlink:href="#DejaVuSans-2e" x="63.623047"/>
       <use xlink:href="#DejaVuSans-30" x="95.410156"/>
      </g>
     </g>
    </g>
    <g id="ytick_2">
     <g id="line2d_11">
      <g>
       <use xlink:href="#m61356009af" x="47.82125" y="251.733944" style="stroke: #000000; stroke-width: 0.8"/>
      </g>
     </g>
     <g id="text_12">
      <!-- 0.2 -->
      <g transform="translate(24.918125 255.533163)scale(0.1 -0.1)">
       <use xlink:href="#DejaVuSans-30"/>
       <use xlink:href="#DejaVuSans-2e" x="63.623047"/>
       <use xlink:href="#DejaVuSans-32" x="95.410156"/>
      </g>
     </g>
    </g>
    <g id="ytick_3">
     <g id="line2d_12">
      <g>
       <use xlink:href="#m61356009af" x="47.82125" y="199.827889" style="stroke: #000000; stroke-width: 0.8"/>
      </g>
     </g>
     <g id="text_13">
      <!-- 0.4 -->
      <g transform="translate(24.918125 203.627107)scale(0.1 -0.1)">
       <defs>
        <path id="DejaVuSans-34" d="M 2419 4116 
L 825 1625 
L 2419 1625 
L 2419 4116 
z
M 2253 4666 
L 3047 4666 
L 3047 1625 
L 3713 1625 
L 3713 1100 
L 3047 1100 
L 3047 0 
L 2419 0 
L 2419 1100 
L 313 1100 
L 313 1709 
L 2253 4666 
z
" transform="scale(0.015625)"/>
       </defs>
       <use xlink:href="#DejaVuSans-30"/>
       <use xlink:href="#DejaVuSans-2e" x="63.623047"/>
       <use xlink:href="#DejaVuSans-34" x="95.410156"/>
      </g>
     </g>
    </g>
    <g id="ytick_4">
     <g id="line2d_13">
      <g>
       <use xlink:href="#m61356009af" x="47.82125" y="147.921833" style="stroke: #000000; stroke-width: 0.8"/>
      </g>
     </g>
     <g id="text_14">
      <!-- 0.6 -->
      <g transform="translate(24.918125 151.721052)scale(0.1 -0.1)">
       <defs>
        <path id="DejaVuSans-36" d="M 2113 2584 
Q 1688 2584 1439 2293 
Q 1191 2003 1191 1497 
Q 1191 994 1439 701 
Q 1688 409 2113 409 
Q 2538 409 2786 701 
Q 3034 994 3034 1497 
Q 3034 2003 2786 2293 
Q 2538 2584 2113 2584 
z
M 3366 4563 
L 3366 3988 
Q 3128 4100 2886 4159 
Q 2644 4219 2406 4219 
Q 1781 4219 1451 3797 
Q 1122 3375 1075 2522 
Q 1259 2794 1537 2939 
Q 1816 3084 2150 3084 
Q 2853 3084 3261 2657 
Q 3669 2231 3669 1497 
Q 3669 778 3244 343 
Q 2819 -91 2113 -91 
Q 1303 -91 875 529 
Q 447 1150 447 2328 
Q 447 3434 972 4092 
Q 1497 4750 2381 4750 
Q 2619 4750 2861 4703 
Q 3103 4656 3366 4563 
z
" transform="scale(0.015625)"/>
       </defs>
       <use xlink:href="#DejaVuSans-30"/>
       <use xlink:href="#DejaVuSans-2e" x="63.623047"/>
       <use xlink:href="#DejaVuSans-36" x="95.410156"/>
      </g>
     </g>
    </g>
    <g id="ytick_5">
     <g id="line2d_14">
      <g>
       <use xlink:href="#m61356009af" x="47.82125" y="96.015777" style="stroke: #000000; stroke-width: 0.8"/>
      </g>
     </g>
     <g id="text_15">
      <!-- 0.8 -->
      <g transform="translate(24.918125 99.814996)scale(0.1 -0.1)">
       <defs>
        <path id="DejaVuSans-38" d="M 2034 2216 
Q 1584 2216 1326 1975 
Q 1069 1734 1069 1313 
Q 1069 891 1326 650 
Q 1584 409 2034 409 
Q 2484 409 2743 651 
Q 3003 894 3003 1313 
Q 3003 1734 2745 1975 
Q 2488 2216 2034 2216 
z
M 1403 2484 
Q 997 2584 770 2862 
Q 544 3141 544 3541 
Q 544 4100 942 4425 
Q 1341 4750 2034 4750 
Q 2731 4750 3128 4425 
Q 3525 4100 3525 3541 
Q 3525 3141 3298 2862 
Q 3072 2584 2669 2484 
Q 3125 2378 3379 2068 
Q 3634 1759 3634 1313 
Q 3634 634 3220 271 
Q 2806 -91 2034 -91 
Q 1263 -91 848 271 
Q 434 634 434 1313 
Q 434 1759 690 2068 
Q 947 2378 1403 2484 
z
M 1172 3481 
Q 1172 3119 1398 2916 
Q 1625 2713 2034 2713 
Q 2441 2713 2670 2916 
Q 2900 3119 2900 3481 
Q 2900 3844 2670 4047 
Q 2441 4250 2034 4250 
Q 1625 4250 1398 4047 
Q 1172 3844 1172 3481 
z
" transform="scale(0.015625)"/>
       </defs>
       <use xlink:href="#DejaVuSans-30"/>
       <use xlink:href="#DejaVuSans-2e" x="63.623047"/>
       <use xlink:href="#DejaVuSans-38" x="95.410156"/>
      </g>
     </g>
    </g>
    <g id="text_16">
     <!-- PercentGpA_transformed -->
     <g transform="translate(18.560313 237.696138)rotate(-90)scale(0.1 -0.1)">
      <defs>
       <path id="DejaVuSans-50" d="M 1259 4147 
L 1259 2394 
L 2053 2394 
Q 2494 2394 2734 2622 
Q 2975 2850 2975 3272 
Q 2975 3691 2734 3919 
Q 2494 4147 2053 4147 
L 1259 4147 
z
M 628 4666 
L 2053 4666 
Q 2838 4666 3239 4311 
Q 3641 3956 3641 3272 
Q 3641 2581 3239 2228 
Q 2838 1875 2053 1875 
L 1259 1875 
L 1259 0 
L 628 0 
L 628 4666 
z
" transform="scale(0.015625)"/>
       <path id="DejaVuSans-65" d="M 3597 1894 
L 3597 1613 
L 953 1613 
Q 991 1019 1311 708 
Q 1631 397 2203 397 
Q 2534 397 2845 478 
Q 3156 559 3463 722 
L 3463 178 
Q 3153 47 2828 -22 
Q 2503 -91 2169 -91 
Q 1331 -91 842 396 
Q 353 884 353 1716 
Q 353 2575 817 3079 
Q 1281 3584 2069 3584 
Q 2775 3584 3186 3129 
Q 3597 2675 3597 1894 
z
M 3022 2063 
Q 3016 2534 2758 2815 
Q 2500 3097 2075 3097 
Q 1594 3097 1305 2825 
Q 1016 2553 972 2059 
L 3022 2063 
z
" transform="scale(0.015625)"/>
       <path id="DejaVuSans-72" d="M 2631 2963 
Q 2534 3019 2420 3045 
Q 2306 3072 2169 3072 
Q 1681 3072 1420 2755 
Q 1159 2438 1159 1844 
L 1159 0 
L 581 0 
L 581 3500 
L 1159 3500 
L 1159 2956 
Q 1341 3275 1631 3429 
Q 1922 3584 2338 3584 
Q 2397 3584 2469 3576 
Q 2541 3569 2628 3553 
L 2631 2963 
z
" transform="scale(0.015625)"/>
       <path id="DejaVuSans-63" d="M 3122 3366 
L 3122 2828 
Q 2878 2963 2633 3030 
Q 2388 3097 2138 3097 
Q 1578 3097 1268 2742 
Q 959 2388 959 1747 
Q 959 1106 1268 751 
Q 1578 397 2138 397 
Q 2388 397 2633 464 
Q 2878 531 3122 666 
L 3122 134 
Q 2881 22 2623 -34 
Q 2366 -91 2075 -91 
Q 1284 -91 818 406 
Q 353 903 353 1747 
Q 353 2603 823 3093 
Q 1294 3584 2113 3584 
Q 2378 3584 2631 3529 
Q 2884 3475 3122 3366 
z
" transform="scale(0.015625)"/>
       <path id="DejaVuSans-6e" d="M 3513 2113 
L 3513 0 
L 2938 0 
L 2938 2094 
Q 2938 2591 2744 2837 
Q 2550 3084 2163 3084 
Q 1697 3084 1428 2787 
Q 1159 2491 1159 1978 
L 1159 0 
L 581 0 
L 581 3500 
L 1159 3500 
L 1159 2956 
Q 1366 3272 1645 3428 
Q 1925 3584 2291 3584 
Q 2894 3584 3203 3211 
Q 3513 2838 3513 2113 
z
" transform="scale(0.015625)"/>
       <path id="DejaVuSans-74" d="M 1172 4494 
L 1172 3500 
L 2356 3500 
L 2356 3053 
L 1172 3053 
L 1172 1153 
Q 1172 725 1289 603 
Q 1406 481 1766 481 
L 2356 481 
L 2356 0 
L 1766 0 
Q 1100 0 847 248 
Q 594 497 594 1153 
L 594 3053 
L 172 3053 
L 172 3500 
L 594 3500 
L 594 4494 
L 1172 4494 
z
" transform="scale(0.015625)"/>
       <path id="DejaVuSans-47" d="M 3809 666 
L 3809 1919 
L 2778 1919 
L 2778 2438 
L 4434 2438 
L 4434 434 
Q 4069 175 3628 42 
Q 3188 -91 2688 -91 
Q 1594 -91 976 548 
Q 359 1188 359 2328 
Q 359 3472 976 4111 
Q 1594 4750 2688 4750 
Q 3144 4750 3555 4637 
Q 3966 4525 4313 4306 
L 4313 3634 
Q 3963 3931 3569 4081 
Q 3175 4231 2741 4231 
Q 1884 4231 1454 3753 
Q 1025 3275 1025 2328 
Q 1025 1384 1454 906 
Q 1884 428 2741 428 
Q 3075 428 3337 486 
Q 3600 544 3809 666 
z
" transform="scale(0.015625)"/>
       <path id="DejaVuSans-70" d="M 1159 525 
L 1159 -1331 
L 581 -1331 
L 581 3500 
L 1159 3500 
L 1159 2969 
Q 1341 3281 1617 3432 
Q 1894 3584 2278 3584 
Q 2916 3584 3314 3078 
Q 3713 2572 3713 1747 
Q 3713 922 3314 415 
Q 2916 -91 2278 -91 
Q 1894 -91 1617 61 
Q 1341 213 1159 525 
z
M 3116 1747 
Q 3116 2381 2855 2742 
Q 2594 3103 2138 3103 
Q 1681 3103 1420 2742 
Q 1159 2381 1159 1747 
Q 1159 1113 1420 752 
Q 1681 391 2138 391 
Q 2594 391 2855 752 
Q 3116 1113 3116 1747 
z
" transform="scale(0.015625)"/>
       <path id="DejaVuSans-41" d="M 2188 4044 
L 1331 1722 
L 3047 1722 
L 2188 4044 
z
M 1831 4666 
L 2547 4666 
L 4325 0 
L 3669 0 
L 3244 1197 
L 1141 1197 
L 716 0 
L 50 0 
L 1831 4666 
z
" transform="scale(0.015625)"/>
       <path id="DejaVuSans-5f" d="M 3263 -1063 
L 3263 -1509 
L -63 -1509 
L -63 -1063 
L 3263 -1063 
z
" transform="scale(0.015625)"/>
       <path id="DejaVuSans-61" d="M 2194 1759 
Q 1497 1759 1228 1600 
Q 959 1441 959 1056 
Q 959 750 1161 570 
Q 1363 391 1709 391 
Q 2188 391 2477 730 
Q 2766 1069 2766 1631 
L 2766 1759 
L 2194 1759 
z
M 3341 1997 
L 3341 0 
L 2766 0 
L 2766 531 
Q 2569 213 2275 61 
Q 1981 -91 1556 -91 
Q 1019 -91 701 211 
Q 384 513 384 1019 
Q 384 1609 779 1909 
Q 1175 2209 1959 2209 
L 2766 2209 
L 2766 2266 
Q 2766 2663 2505 2880 
Q 2244 3097 1772 3097 
Q 1472 3097 1187 3025 
Q 903 2953 641 2809 
L 641 3341 
Q 956 3463 1253 3523 
Q 1550 3584 1831 3584 
Q 2591 3584 2966 3190 
Q 3341 2797 3341 1997 
z
" transform="scale(0.015625)"/>
       <path id="DejaVuSans-73" d="M 2834 3397 
L 2834 2853 
Q 2591 2978 2328 3040 
Q 2066 3103 1784 3103 
Q 1356 3103 1142 2972 
Q 928 2841 928 2578 
Q 928 2378 1081 2264 
Q 1234 2150 1697 2047 
L 1894 2003 
Q 2506 1872 2764 1633 
Q 3022 1394 3022 966 
Q 3022 478 2636 193 
Q 2250 -91 1575 -91 
Q 1294 -91 989 -36 
Q 684 19 347 128 
L 347 722 
Q 666 556 975 473 
Q 1284 391 1588 391 
Q 1994 391 2212 530 
Q 2431 669 2431 922 
Q 2431 1156 2273 1281 
Q 2116 1406 1581 1522 
L 1381 1569 
Q 847 1681 609 1914 
Q 372 2147 372 2553 
Q 372 3047 722 3315 
Q 1072 3584 1716 3584 
Q 2034 3584 2315 3537 
Q 2597 3491 2834 3397 
z
" transform="scale(0.015625)"/>
       <path id="DejaVuSans-6f" d="M 1959 3097 
Q 1497 3097 1228 2736 
Q 959 2375 959 1747 
Q 959 1119 1226 758 
Q 1494 397 1959 397 
Q 2419 397 2687 759 
Q 2956 1122 2956 1747 
Q 2956 2369 2687 2733 
Q 2419 3097 1959 3097 
z
M 1959 3584 
Q 2709 3584 3137 3096 
Q 3566 2609 3566 1747 
Q 3566 888 3137 398 
Q 2709 -91 1959 -91 
Q 1206 -91 779 398 
Q 353 888 353 1747 
Q 353 2609 779 3096 
Q 1206 3584 1959 3584 
z
" transform="scale(0.015625)"/>
       <path id="DejaVuSans-6d" d="M 3328 2828 
Q 3544 3216 3844 3400 
Q 4144 3584 4550 3584 
Q 5097 3584 5394 3201 
Q 5691 2819 5691 2113 
L 5691 0 
L 5113 0 
L 5113 2094 
Q 5113 2597 4934 2840 
Q 4756 3084 4391 3084 
Q 3944 3084 3684 2787 
Q 3425 2491 3425 1978 
L 3425 0 
L 2847 0 
L 2847 2094 
Q 2847 2600 2669 2842 
Q 2491 3084 2119 3084 
Q 1678 3084 1418 2786 
Q 1159 2488 1159 1978 
L 1159 0 
L 581 0 
L 581 3500 
L 1159 3500 
L 1159 2956 
Q 1356 3278 1631 3431 
Q 1906 3584 2284 3584 
Q 2666 3584 2933 3390 
Q 3200 3197 3328 2828 
z
" transform="scale(0.015625)"/>
       <path id="DejaVuSans-64" d="M 2906 2969 
L 2906 4863 
L 3481 4863 
L 3481 0 
L 2906 0 
L 2906 525 
Q 2725 213 2448 61 
Q 2172 -91 1784 -91 
Q 1150 -91 751 415 
Q 353 922 353 1747 
Q 353 2572 751 3078 
Q 1150 3584 1784 3584 
Q 2172 3584 2448 3432 
Q 2725 3281 2906 2969 
z
M 947 1747 
Q 947 1113 1208 752 
Q 1469 391 1925 391 
Q 2381 391 2643 752 
Q 2906 1113 2906 1747 
Q 2906 2381 2643 2742 
Q 2381 3103 1925 3103 
Q 1469 3103 1208 2742 
Q 947 2381 947 1747 
z
" transform="scale(0.015625)"/>
      </defs>
      <use xlink:href="#DejaVuSans-50"/>
      <use xlink:href="#DejaVuSans-65" x="56.677734"/>
      <use xlink:href="#DejaVuSans-72" x="118.201172"/>
      <use xlink:href="#DejaVuSans-63" x="157.064453"/>
      <use xlink:href="#DejaVuSans-65" x="212.044922"/>
      <use xlink:href="#DejaVuSans-6e" x="273.568359"/>
      <use xlink:href="#DejaVuSans-74" x="336.947266"/>
      <use xlink:href="#DejaVuSans-47" x="376.15625"/>
      <use xlink:href="#DejaVuSans-70" x="453.646484"/>
      <use xlink:href="#DejaVuSans-41" x="517.123047"/>
      <use xlink:href="#DejaVuSans-5f" x="585.53125"/>
      <use xlink:href="#DejaVuSans-74" x="635.53125"/>
      <use xlink:href="#DejaVuSans-72" x="674.740234"/>
      <use xlink:href="#DejaVuSans-61" x="715.853516"/>
      <use xlink:href="#DejaVuSans-6e" x="777.132812"/>
      <use xlink:href="#DejaVuSans-73" x="840.511719"/>
      <use xlink:href="#DejaVuSans-66" x="892.611328"/>
      <use xlink:href="#DejaVuSans-6f" x="927.816406"/>
      <use xlink:href="#DejaVuSans-72" x="988.998047"/>
      <use xlink:href="#DejaVuSans-6d" x="1028.361328"/>
      <use xlink:href="#DejaVuSans-65" x="1125.773438"/>
      <use xlink:href="#DejaVuSans-64" x="1187.296875"/>
     </g>
    </g>
   </g>
   <g id="LineCollection_1">
    <path d="M 234.076477 223.367247 
L 234.076477 201.151078 
" clip-path="url(#pe8c866e111)" style="fill: none; stroke: #d3d3d3; stroke-width: 3"/>
    <path d="M 152.09637 265.257496 
L 152.09637 211.702126 
" clip-path="url(#pe8c866e111)" style="fill: none; stroke: #d3d3d3; stroke-width: 3"/>
    <path d="M 94.730366 222.682761 
L 94.730366 189.124893 
" clip-path="url(#pe8c866e111)" style="fill: none; stroke: #d3d3d3; stroke-width: 3"/>
    <path d="M 272.229249 208.109538 
L 272.229249 147.245459 
" clip-path="url(#pe8c866e111)" style="fill: none; stroke: #d3d3d3; stroke-width: 3"/>
    <path d="M 179.794078 217.625274 
L 179.794078 168.506449 
" clip-path="url(#pe8c866e111)" style="fill: none; stroke: #d3d3d3; stroke-width: 3"/>
    <path d="M 92.887501 278.377642 
L 92.887501 214.248962 
" clip-path="url(#pe8c866e111)" style="fill: none; stroke: #d3d3d3; stroke-width: 3"/>
    <path d="M 88.508417 238.434728 
L 88.508417 180.707297 
" clip-path="url(#pe8c866e111)" style="fill: none; stroke: #d3d3d3; stroke-width: 3"/>
    <path d="M 99.145942 204.10799 
L 99.145942 181.841949 
" clip-path="url(#pe8c866e111)" style="fill: none; stroke: #d3d3d3; stroke-width: 3"/>
    <path d="M 172.258404 247.075127 
L 172.258404 201.158754 
" clip-path="url(#pe8c866e111)" style="fill: none; stroke: #d3d3d3; stroke-width: 3"/>
    <path d="M 217.837373 215.921979 
L 217.837373 85.788236 
" clip-path="url(#pe8c866e111)" style="fill: none; stroke: #d3d3d3; stroke-width: 3"/>
    <path d="M 235.536172 185.358994 
L 235.536172 166.00454 
" clip-path="url(#pe8c866e111)" style="fill: none; stroke: #d3d3d3; stroke-width: 3"/>
    <path d="M 66.102102 204.326478 
L 66.102102 183.104073 
" clip-path="url(#pe8c866e111)" style="fill: none; stroke: #d3d3d3; stroke-width: 3"/>
    <path d="M 139.579487 245.300328 
L 139.579487 211.57905 
" clip-path="url(#pe8c866e111)" style="fill: none; stroke: #d3d3d3; stroke-width: 3"/>
    <path d="M 187.658184 261.611778 
L 187.658184 208.068813 
" clip-path="url(#pe8c866e111)" style="fill: none; stroke: #d3d3d3; stroke-width: 3"/>
    <path d="M 260.825383 258.629656 
L 260.825383 207.066889 
" clip-path="url(#pe8c866e111)" style="fill: none; stroke: #d3d3d3; stroke-width: 3"/>
    <path d="M 103.397303 268.271296 
L 103.397303 202.459526 
" clip-path="url(#pe8c866e111)" style="fill: none; stroke: #d3d3d3; stroke-width: 3"/>
    <path d="M 121.388041 195.209033 
L 121.388041 162.759188 
" clip-path="url(#pe8c866e111)" style="fill: none; stroke: #d3d3d3; stroke-width: 3"/>
    <path d="M 147.023931 268.443323 
L 147.023931 192.246259 
" clip-path="url(#pe8c866e111)" style="fill: none; stroke: #d3d3d3; stroke-width: 3"/>
    <path d="M 177.093643 207.05716 
L 177.093643 158.512222 
" clip-path="url(#pe8c866e111)" style="fill: none; stroke: #d3d3d3; stroke-width: 3"/>
    <path d="M 198.076755 184.336784 
L 198.076755 162.034085 
" clip-path="url(#pe8c866e111)" style="fill: none; stroke: #d3d3d3; stroke-width: 3"/>
    <path d="M 159.467828 228.331192 
L 159.467828 206.436238 
" clip-path="url(#pe8c866e111)" style="fill: none; stroke: #d3d3d3; stroke-width: 3"/>
    <path d="M 141.00269 220.790116 
L 141.00269 179.119115 
" clip-path="url(#pe8c866e111)" style="fill: none; stroke: #d3d3d3; stroke-width: 3"/>
    <path d="M 208.842004 164.018555 
L 208.842004 152.982941 
" clip-path="url(#pe8c866e111)" style="fill: none; stroke: #d3d3d3; stroke-width: 3"/>
    <path d="M 177.458566 168.200977 
L 177.458566 160.648563 
" clip-path="url(#pe8c866e111)" style="fill: none; stroke: #d3d3d3; stroke-width: 3"/>
    <path d="M 208.166895 216.033892 
L 208.166895 185.916959 
" clip-path="url(#pe8c866e111)" style="fill: none; stroke: #d3d3d3; stroke-width: 3"/>
    <path d="M 163.518481 226.204103 
L 163.518481 180.335837 
" clip-path="url(#pe8c866e111)" style="fill: none; stroke: #d3d3d3; stroke-width: 3"/>
    <path d="M 142.517123 226.144307 
L 142.517123 223.669753 
" clip-path="url(#pe8c866e111)" style="fill: none; stroke: #d3d3d3; stroke-width: 3"/>
    <path d="M 125.803618 180.605255 
L 125.803618 171.029563 
" clip-path="url(#pe8c866e111)" style="fill: none; stroke: #d3d3d3; stroke-width: 3"/>
    <path d="M 261.500492 256.205268 
L 261.500492 219.997961 
" clip-path="url(#pe8c866e111)" style="fill: none; stroke: #d3d3d3; stroke-width: 3"/>
    <path d="M 166.857533 225.622654 
L 166.857533 196.459631 
" clip-path="url(#pe8c866e111)" style="fill: none; stroke: #d3d3d3; stroke-width: 3"/>
    <path d="M 145.16282 208.773202 
L 145.16282 189.818098 
" clip-path="url(#pe8c866e111)" style="fill: none; stroke: #d3d3d3; stroke-width: 3"/>
    <path d="M 269.656537 204.479815 
L 269.656537 179.201961 
" clip-path="url(#pe8c866e111)" style="fill: none; stroke: #d3d3d3; stroke-width: 3"/>
    <path d="M 299.489048 286.878233 
L 299.489048 202.451299 
" clip-path="url(#pe8c866e111)" style="fill: none; stroke: #d3d3d3; stroke-width: 3"/>
    <path d="M 176.43678 223.239197 
L 176.43678 219.780992 
" clip-path="url(#pe8c866e111)" style="fill: none; stroke: #d3d3d3; stroke-width: 3"/>
    <path d="M 140.583027 282.253071 
L 140.583027 235.181048 
" clip-path="url(#pe8c866e111)" style="fill: none; stroke: #d3d3d3; stroke-width: 3"/>
    <path d="M 167.459657 216.787284 
L 167.459657 200.62297 
" clip-path="url(#pe8c866e111)" style="fill: none; stroke: #d3d3d3; stroke-width: 3"/>
    <path d="M 141.568321 272.931482 
L 141.568321 222.18715 
" clip-path="url(#pe8c866e111)" style="fill: none; stroke: #d3d3d3; stroke-width: 3"/>
    <path d="M 219.205837 168.613323 
L 219.205837 130.506518 
" clip-path="url(#pe8c866e111)" style="fill: none; stroke: #d3d3d3; stroke-width: 3"/>
    <path d="M 221.86978 232.788352 
L 221.86978 219.112877 
" clip-path="url(#pe8c866e111)" style="fill: none; stroke: #d3d3d3; stroke-width: 3"/>
    <path d="M 220.95747 233.165239 
L 220.95747 196.810074 
" clip-path="url(#pe8c866e111)" style="fill: none; stroke: #d3d3d3; stroke-width: 3"/>
    <path d="M 101.700408 157.971041 
L 101.700408 132.782989 
" clip-path="url(#pe8c866e111)" style="fill: none; stroke: #d3d3d3; stroke-width: 3"/>
    <path d="M 178.863523 208.658208 
L 178.863523 170.160214 
" clip-path="url(#pe8c866e111)" style="fill: none; stroke: #d3d3d3; stroke-width: 3"/>
    <path d="M 199.627681 269.678453 
L 199.627681 238.936086 
" clip-path="url(#pe8c866e111)" style="fill: none; stroke: #d3d3d3; stroke-width: 3"/>
    <path d="M 160.872785 236.660807 
L 160.872785 215.991652 
" clip-path="url(#pe8c866e111)" style="fill: none; stroke: #d3d3d3; stroke-width: 3"/>
    <path d="M 200.813683 153.579407 
L 200.813683 114.431988 
" clip-path="url(#pe8c866e111)" style="fill: none; stroke: #d3d3d3; stroke-width: 3"/>
    <path d="M 178.900015 234.578911 
L 178.900015 202.319221 
" clip-path="url(#pe8c866e111)" style="fill: none; stroke: #d3d3d3; stroke-width: 3"/>
    <path d="M 169.849907 161.474358 
L 169.849907 140.073165 
" clip-path="url(#pe8c866e111)" style="fill: none; stroke: #d3d3d3; stroke-width: 3"/>
    <path d="M 203.860795 197.433086 
L 203.860795 173.176828 
" clip-path="url(#pe8c866e111)" style="fill: none; stroke: #d3d3d3; stroke-width: 3"/>
    <path d="M 215.629584 215.058595 
L 215.629584 207.172771 
" clip-path="url(#pe8c866e111)" style="fill: none; stroke: #d3d3d3; stroke-width: 3"/>
    <path d="M 203.076209 172.930609 
L 203.076209 143.452413 
" clip-path="url(#pe8c866e111)" style="fill: none; stroke: #d3d3d3; stroke-width: 3"/>
    <path d="M 194.774196 241.605979 
L 194.774196 201.664949 
" clip-path="url(#pe8c866e111)" style="fill: none; stroke: #d3d3d3; stroke-width: 3"/>
    <path d="M 431.719148 250.105756 
L 431.719148 208.720175 
" clip-path="url(#pe8c866e111)" style="fill: none; stroke: #d3d3d3; stroke-width: 3"/>
    <path d="M 128.960208 244.277235 
L 128.960208 217.837128 
" clip-path="url(#pe8c866e111)" style="fill: none; stroke: #d3d3d3; stroke-width: 3"/>
    <path d="M 149.487166 200.669983 
L 149.487166 189.594569 
" clip-path="url(#pe8c866e111)" style="fill: none; stroke: #d3d3d3; stroke-width: 3"/>
    <path d="M 207.656002 218.12068 
L 207.656002 185.750693 
" clip-path="url(#pe8c866e111)" style="fill: none; stroke: #d3d3d3; stroke-width: 3"/>
    <path d="M 259.146735 208.625521 
L 259.146735 190.997393 
" clip-path="url(#pe8c866e111)" style="fill: none; stroke: #d3d3d3; stroke-width: 3"/>
    <path d="M 173.152467 258.939947 
L 173.152467 217.833211 
" clip-path="url(#pe8c866e111)" style="fill: none; stroke: #d3d3d3; stroke-width: 3"/>
    <path d="M 176.017118 208.479004 
L 176.017118 186.379965 
" clip-path="url(#pe8c866e111)" style="fill: none; stroke: #d3d3d3; stroke-width: 3"/>
    <path d="M 202.656547 257.13958 
L 202.656547 206.814364 
" clip-path="url(#pe8c866e111)" style="fill: none; stroke: #d3d3d3; stroke-width: 3"/>
    <path d="M 212.710195 209.520901 
L 212.710195 195.172804 
" clip-path="url(#pe8c866e111)" style="fill: none; stroke: #d3d3d3; stroke-width: 3"/>
    <path d="M 274.838453 229.414286 
L 274.838453 213.094007 
" clip-path="url(#pe8c866e111)" style="fill: none; stroke: #d3d3d3; stroke-width: 3"/>
    <path d="M 282.629574 206.610908 
L 282.629574 191.729636 
" clip-path="url(#pe8c866e111)" style="fill: none; stroke: #d3d3d3; stroke-width: 3"/>
    <path d="M 221.96101 192.389374 
L 221.96101 180.6423 
" clip-path="url(#pe8c866e111)" style="fill: none; stroke: #d3d3d3; stroke-width: 3"/>
    <path d="M 198.240971 277.222252 
L 198.240971 240.541834 
" clip-path="url(#pe8c866e111)" style="fill: none; stroke: #d3d3d3; stroke-width: 3"/>
    <path d="M 144.287003 209.938851 
L 144.287003 195.443483 
" clip-path="url(#pe8c866e111)" style="fill: none; stroke: #d3d3d3; stroke-width: 3"/>
    <path d="M 159.376598 217.008393 
L 159.376598 183.896887 
" clip-path="url(#pe8c866e111)" style="fill: none; stroke: #d3d3d3; stroke-width: 3"/>
    <path d="M 198.514663 234.631785 
L 198.514663 204.222239 
" clip-path="url(#pe8c866e111)" style="fill: none; stroke: #d3d3d3; stroke-width: 3"/>
    <path d="M 161.511401 237.718922 
L 161.511401 210.564927 
" clip-path="url(#pe8c866e111)" style="fill: none; stroke: #d3d3d3; stroke-width: 3"/>
    <path d="M 194.536995 196.100674 
L 194.536995 175.834617 
" clip-path="url(#pe8c866e111)" style="fill: none; stroke: #d3d3d3; stroke-width: 3"/>
    <path d="M 297.062306 222.643419 
L 297.062306 186.48107 
" clip-path="url(#pe8c866e111)" style="fill: none; stroke: #d3d3d3; stroke-width: 3"/>
    <path d="M 250.680505 221.396924 
L 250.680505 200.570624 
" clip-path="url(#pe8c866e111)" style="fill: none; stroke: #d3d3d3; stroke-width: 3"/>
    <path d="M 186.107258 244.157698 
L 186.107258 227.69 
" clip-path="url(#pe8c866e111)" style="fill: none; stroke: #d3d3d3; stroke-width: 3"/>
    <path d="M 233.091183 255.851392 
L 233.091183 207.342544 
" clip-path="url(#pe8c866e111)" style="fill: none; stroke: #d3d3d3; stroke-width: 3"/>
    <path d="M 193.953117 231.257113 
L 193.953117 203.797387 
" clip-path="url(#pe8c866e111)" style="fill: none; stroke: #d3d3d3; stroke-width: 3"/>
    <path d="M 245.389111 246.240479 
L 245.389111 215.072544 
" clip-path="url(#pe8c866e111)" style="fill: none; stroke: #d3d3d3; stroke-width: 3"/>
    <path d="M 215.428876 235.635464 
L 215.428876 196.956423 
" clip-path="url(#pe8c866e111)" style="fill: none; stroke: #d3d3d3; stroke-width: 3"/>
    <path d="M 270.222169 233.507484 
L 270.222169 221.985359 
" clip-path="url(#pe8c866e111)" style="fill: none; stroke: #d3d3d3; stroke-width: 3"/>
    <path d="M 144.049803 245.792078 
L 144.049803 205.056733 
" clip-path="url(#pe8c866e111)" style="fill: none; stroke: #d3d3d3; stroke-width: 3"/>
    <path d="M 167.441411 155.116625 
L 167.441411 82.01234 
" clip-path="url(#pe8c866e111)" style="fill: none; stroke: #d3d3d3; stroke-width: 3"/>
    <path d="M 157.661456 207.502891 
L 157.661456 186.323899 
" clip-path="url(#pe8c866e111)" style="fill: none; stroke: #d3d3d3; stroke-width: 3"/>
    <path d="M 203.641841 190.826955 
L 203.641841 158.187752 
" clip-path="url(#pe8c866e111)" style="fill: none; stroke: #d3d3d3; stroke-width: 3"/>
    <path d="M 241.721628 182.060342 
L 241.721628 103.464561 
" clip-path="url(#pe8c866e111)" style="fill: none; stroke: #d3d3d3; stroke-width: 3"/>
    <path d="M 194.518749 218.049693 
L 194.518749 204.795957 
" clip-path="url(#pe8c866e111)" style="fill: none; stroke: #d3d3d3; stroke-width: 3"/>
    <path d="M 249.585734 239.265552 
L 249.585734 204.265207 
" clip-path="url(#pe8c866e111)" style="fill: none; stroke: #d3d3d3; stroke-width: 3"/>
    <path d="M 207.491786 83.78978 
L 207.491786 58.113929 
" clip-path="url(#pe8c866e111)" style="fill: none; stroke: #d3d3d3; stroke-width: 3"/>
   </g>
   <g id="line2d_15">
    <path d="M 234.076477 204.189869 
L 152.09637 203.672441 
L 94.730366 203.310368 
L 272.229249 204.430675 
L 179.794078 203.847259 
L 92.887501 203.298737 
L 88.508417 203.271097 
L 99.145942 203.338238 
L 172.258404 203.799696 
L 217.837373 204.087374 
L 235.536172 204.199082 
L 66.102102 203.129677 
L 139.579487 203.593439 
L 187.658184 203.896894 
L 260.825383 204.358698 
L 103.397303 203.365071 
L 121.388041 203.478621 
L 147.023931 203.640426 
L 177.093643 203.830214 
L 198.076755 203.962652 
L 159.467828 203.718967 
L 141.00269 203.602422 
L 208.842004 204.030598 
L 177.458566 203.832518 
L 208.166895 204.026337 
L 163.518481 203.744533 
L 142.517123 203.61198 
L 125.803618 203.506491 
L 261.500492 204.362959 
L 166.857533 203.765608 
L 145.16282 203.628679 
L 269.656537 204.414437 
L 299.489048 204.602729 
L 176.43678 203.826069 
L 140.583027 203.599773 
L 167.459657 203.769408 
L 141.568321 203.605992 
L 219.205837 204.096011 
L 221.86978 204.112825 
L 220.95747 204.107067 
L 101.700408 203.35436 
L 178.863523 203.841385 
L 199.627681 203.972441 
L 160.872785 203.727834 
L 200.813683 203.979926 
L 178.900015 203.841616 
L 169.849907 203.784495 
L 203.860795 203.999159 
L 215.629584 204.073439 
L 203.076209 203.994207 
L 194.774196 203.941808 
L 431.719148 205.437316 
L 128.960208 203.526414 
L 149.487166 203.655973 
L 207.656002 204.023113 
L 259.146735 204.348103 
L 173.152467 203.805339 
L 176.017118 203.82342 
L 202.656547 203.991558 
L 212.710195 204.055013 
L 274.838453 204.447143 
L 282.629574 204.496318 
L 221.96101 204.113401 
L 198.240971 203.963688 
L 144.287003 203.623151 
L 159.376598 203.718391 
L 198.514663 203.965416 
L 161.511401 203.731865 
L 194.536995 203.94031 
L 297.062306 204.587412 
L 250.680505 204.294667 
L 186.107258 203.887105 
L 233.091183 204.18365 
L 193.953117 203.936625 
L 245.389111 204.26127 
L 215.428876 204.072172 
L 270.222169 204.418007 
L 144.049803 203.621654 
L 167.441411 203.769293 
L 157.661456 203.707566 
L 203.641841 203.997777 
L 241.721628 204.238122 
L 194.518749 203.940195 
L 249.585734 204.287758 
L 207.491786 204.022076 
" clip-path="url(#pe8c866e111)" style="fill: none; stroke: #1f77b4; stroke-width: 1.5; stroke-linecap: square"/>
   </g>
   <g id="line2d_16">
    <defs>
     <path id="m3f5ef8f244" d="M 0 3 
C 0.795609 3 1.55874 2.683901 2.12132 2.12132 
C 2.683901 1.55874 3 0.795609 3 0 
C 3 -0.795609 2.683901 -1.55874 2.12132 -2.12132 
C 1.55874 -2.683901 0.795609 -3 0 -3 
C -0.795609 -3 -1.55874 -2.683901 -2.12132 -2.12132 
C -2.683901 -1.55874 -3 -0.795609 -3 0 
C -3 0.795609 -2.683901 1.55874 -2.12132 2.12132 
C -1.55874 2.683901 -0.795609 3 0 3 
z
" style="stroke: #000000"/>
    </defs>
    <g clip-path="url(#pe8c866e111)">
     <use xlink:href="#m3f5ef8f244" x="234.076477" y="212.259162" style="stroke: #000000"/>
     <use xlink:href="#m3f5ef8f244" x="152.09637" y="238.479811" style="stroke: #000000"/>
     <use xlink:href="#m3f5ef8f244" x="94.730366" y="205.903827" style="stroke: #000000"/>
     <use xlink:href="#m3f5ef8f244" x="272.229249" y="177.677499" style="stroke: #000000"/>
     <use xlink:href="#m3f5ef8f244" x="179.794078" y="193.065861" style="stroke: #000000"/>
     <use xlink:href="#m3f5ef8f244" x="92.887501" y="246.313302" style="stroke: #000000"/>
     <use xlink:href="#m3f5ef8f244" x="88.508417" y="209.571013" style="stroke: #000000"/>
     <use xlink:href="#m3f5ef8f244" x="99.145942" y="192.97497" style="stroke: #000000"/>
     <use xlink:href="#m3f5ef8f244" x="172.258404" y="224.116941" style="stroke: #000000"/>
     <use xlink:href="#m3f5ef8f244" x="217.837373" y="150.855108" style="stroke: #000000"/>
     <use xlink:href="#m3f5ef8f244" x="235.536172" y="175.681767" style="stroke: #000000"/>
     <use xlink:href="#m3f5ef8f244" x="66.102102" y="193.715275" style="stroke: #000000"/>
     <use xlink:href="#m3f5ef8f244" x="139.579487" y="228.439689" style="stroke: #000000"/>
     <use xlink:href="#m3f5ef8f244" x="187.658184" y="234.840295" style="stroke: #000000"/>
     <use xlink:href="#m3f5ef8f244" x="260.825383" y="232.848272" style="stroke: #000000"/>
     <use xlink:href="#m3f5ef8f244" x="103.397303" y="235.365411" style="stroke: #000000"/>
     <use xlink:href="#m3f5ef8f244" x="121.388041" y="178.984111" style="stroke: #000000"/>
     <use xlink:href="#m3f5ef8f244" x="147.023931" y="230.344791" style="stroke: #000000"/>
     <use xlink:href="#m3f5ef8f244" x="177.093643" y="182.784691" style="stroke: #000000"/>
     <use xlink:href="#m3f5ef8f244" x="198.076755" y="173.185434" style="stroke: #000000"/>
     <use xlink:href="#m3f5ef8f244" x="159.467828" y="217.383715" style="stroke: #000000"/>
     <use xlink:href="#m3f5ef8f244" x="141.00269" y="199.954615" style="stroke: #000000"/>
     <use xlink:href="#m3f5ef8f244" x="208.842004" y="158.500748" style="stroke: #000000"/>
     <use xlink:href="#m3f5ef8f244" x="177.458566" y="164.42477" style="stroke: #000000"/>
     <use xlink:href="#m3f5ef8f244" x="208.166895" y="200.975425" style="stroke: #000000"/>
     <use xlink:href="#m3f5ef8f244" x="163.518481" y="203.26997" style="stroke: #000000"/>
     <use xlink:href="#m3f5ef8f244" x="142.517123" y="224.90703" style="stroke: #000000"/>
     <use xlink:href="#m3f5ef8f244" x="125.803618" y="175.817409" style="stroke: #000000"/>
     <use xlink:href="#m3f5ef8f244" x="261.500492" y="238.101615" style="stroke: #000000"/>
     <use xlink:href="#m3f5ef8f244" x="166.857533" y="211.041142" style="stroke: #000000"/>
     <use xlink:href="#m3f5ef8f244" x="145.16282" y="199.29565" style="stroke: #000000"/>
     <use xlink:href="#m3f5ef8f244" x="269.656537" y="191.840888" style="stroke: #000000"/>
     <use xlink:href="#m3f5ef8f244" x="299.489048" y="244.664766" style="stroke: #000000"/>
     <use xlink:href="#m3f5ef8f244" x="176.43678" y="221.510095" style="stroke: #000000"/>
     <use xlink:href="#m3f5ef8f244" x="140.583027" y="258.71706" style="stroke: #000000"/>
     <use xlink:href="#m3f5ef8f244" x="167.459657" y="208.705127" style="stroke: #000000"/>
     <use xlink:href="#m3f5ef8f244" x="141.568321" y="247.559316" style="stroke: #000000"/>
     <use xlink:href="#m3f5ef8f244" x="219.205837" y="149.559921" style="stroke: #000000"/>
     <use xlink:href="#m3f5ef8f244" x="221.86978" y="225.950615" style="stroke: #000000"/>
     <use xlink:href="#m3f5ef8f244" x="220.95747" y="214.987656" style="stroke: #000000"/>
     <use xlink:href="#m3f5ef8f244" x="101.700408" y="145.377015" style="stroke: #000000"/>
     <use xlink:href="#m3f5ef8f244" x="178.863523" y="189.409211" style="stroke: #000000"/>
     <use xlink:href="#m3f5ef8f244" x="199.627681" y="254.30727" style="stroke: #000000"/>
     <use xlink:href="#m3f5ef8f244" x="160.872785" y="226.32623" style="stroke: #000000"/>
     <use xlink:href="#m3f5ef8f244" x="200.813683" y="134.005698" style="stroke: #000000"/>
     <use xlink:href="#m3f5ef8f244" x="178.900015" y="218.449066" style="stroke: #000000"/>
     <use xlink:href="#m3f5ef8f244" x="169.849907" y="150.773762" style="stroke: #000000"/>
     <use xlink:href="#m3f5ef8f244" x="203.860795" y="185.304957" style="stroke: #000000"/>
     <use xlink:href="#m3f5ef8f244" x="215.629584" y="211.115683" style="stroke: #000000"/>
     <use xlink:href="#m3f5ef8f244" x="203.076209" y="158.191511" style="stroke: #000000"/>
     <use xlink:href="#m3f5ef8f244" x="194.774196" y="221.635464" style="stroke: #000000"/>
     <use xlink:href="#m3f5ef8f244" x="431.719148" y="229.412966" style="stroke: #000000"/>
     <use xlink:href="#m3f5ef8f244" x="128.960208" y="231.057182" style="stroke: #000000"/>
     <use xlink:href="#m3f5ef8f244" x="149.487166" y="195.132276" style="stroke: #000000"/>
     <use xlink:href="#m3f5ef8f244" x="207.656002" y="201.935686" style="stroke: #000000"/>
     <use xlink:href="#m3f5ef8f244" x="259.146735" y="199.811457" style="stroke: #000000"/>
     <use xlink:href="#m3f5ef8f244" x="173.152467" y="238.386579" style="stroke: #000000"/>
     <use xlink:href="#m3f5ef8f244" x="176.017118" y="197.429484" style="stroke: #000000"/>
     <use xlink:href="#m3f5ef8f244" x="202.656547" y="231.976972" style="stroke: #000000"/>
     <use xlink:href="#m3f5ef8f244" x="212.710195" y="202.346852" style="stroke: #000000"/>
     <use xlink:href="#m3f5ef8f244" x="274.838453" y="221.254146" style="stroke: #000000"/>
     <use xlink:href="#m3f5ef8f244" x="282.629574" y="199.170272" style="stroke: #000000"/>
     <use xlink:href="#m3f5ef8f244" x="221.96101" y="186.515837" style="stroke: #000000"/>
     <use xlink:href="#m3f5ef8f244" x="198.240971" y="258.882043" style="stroke: #000000"/>
     <use xlink:href="#m3f5ef8f244" x="144.287003" y="202.691167" style="stroke: #000000"/>
     <use xlink:href="#m3f5ef8f244" x="159.376598" y="200.45264" style="stroke: #000000"/>
     <use xlink:href="#m3f5ef8f244" x="198.514663" y="219.427012" style="stroke: #000000"/>
     <use xlink:href="#m3f5ef8f244" x="161.511401" y="224.141924" style="stroke: #000000"/>
     <use xlink:href="#m3f5ef8f244" x="194.536995" y="185.967646" style="stroke: #000000"/>
     <use xlink:href="#m3f5ef8f244" x="297.062306" y="204.562244" style="stroke: #000000"/>
     <use xlink:href="#m3f5ef8f244" x="250.680505" y="210.983774" style="stroke: #000000"/>
     <use xlink:href="#m3f5ef8f244" x="186.107258" y="235.923849" style="stroke: #000000"/>
     <use xlink:href="#m3f5ef8f244" x="233.091183" y="231.596968" style="stroke: #000000"/>
     <use xlink:href="#m3f5ef8f244" x="193.953117" y="217.52725" style="stroke: #000000"/>
     <use xlink:href="#m3f5ef8f244" x="245.389111" y="230.656512" style="stroke: #000000"/>
     <use xlink:href="#m3f5ef8f244" x="215.428876" y="216.295943" style="stroke: #000000"/>
     <use xlink:href="#m3f5ef8f244" x="270.222169" y="227.746422" style="stroke: #000000"/>
     <use xlink:href="#m3f5ef8f244" x="144.049803" y="225.424406" style="stroke: #000000"/>
     <use xlink:href="#m3f5ef8f244" x="167.441411" y="118.564482" style="stroke: #000000"/>
     <use xlink:href="#m3f5ef8f244" x="157.661456" y="196.913395" style="stroke: #000000"/>
     <use xlink:href="#m3f5ef8f244" x="203.641841" y="174.507354" style="stroke: #000000"/>
     <use xlink:href="#m3f5ef8f244" x="241.721628" y="142.762452" style="stroke: #000000"/>
     <use xlink:href="#m3f5ef8f244" x="194.518749" y="211.422825" style="stroke: #000000"/>
     <use xlink:href="#m3f5ef8f244" x="249.585734" y="221.765379" style="stroke: #000000"/>
     <use xlink:href="#m3f5ef8f244" x="207.491786" y="70.951855" style="stroke: #000000"/>
    </g>
   </g>
   <g id="patch_3">
    <path d="M 47.82125 303.64 
L 47.82125 46.675714 
" style="fill: none; stroke: #000000; stroke-width: 0.8; stroke-linejoin: miter; stroke-linecap: square"/>
   </g>
   <g id="patch_4">
    <path d="M 450 303.64 
L 450 46.675714 
" style="fill: none; stroke: #000000; stroke-width: 0.8; stroke-linejoin: miter; stroke-linecap: square"/>
   </g>
   <g id="patch_5">
    <path d="M 47.82125 303.64 
L 450 303.64 
" style="fill: none; stroke: #000000; stroke-width: 0.8; stroke-linejoin: miter; stroke-linecap: square"/>
   </g>
   <g id="patch_6">
    <path d="M 47.82125 46.675714 
L 450 46.675714 
" style="fill: none; stroke: #000000; stroke-width: 0.8; stroke-linejoin: miter; stroke-linecap: square"/>
   </g>
   <g id="text_17">
    <!-- y = -0.00x + 0.39 -->
    <g transform="translate(43.314906 18.599375)scale(0.1 -0.1)">
     <defs>
      <path id="DejaVuSans-79" d="M 2059 -325 
Q 1816 -950 1584 -1140 
Q 1353 -1331 966 -1331 
L 506 -1331 
L 506 -850 
L 844 -850 
Q 1081 -850 1212 -737 
Q 1344 -625 1503 -206 
L 1606 56 
L 191 3500 
L 800 3500 
L 1894 763 
L 2988 3500 
L 3597 3500 
L 2059 -325 
z
" transform="scale(0.015625)"/>
      <path id="DejaVuSans-20" transform="scale(0.015625)"/>
      <path id="DejaVuSans-3d" d="M 678 2906 
L 4684 2906 
L 4684 2381 
L 678 2381 
L 678 2906 
z
M 678 1631 
L 4684 1631 
L 4684 1100 
L 678 1100 
L 678 1631 
z
" transform="scale(0.015625)"/>
      <path id="DejaVuSans-2d" d="M 313 2009 
L 1997 2009 
L 1997 1497 
L 313 1497 
L 313 2009 
z
" transform="scale(0.015625)"/>
      <path id="DejaVuSans-78" d="M 3513 3500 
L 2247 1797 
L 3578 0 
L 2900 0 
L 1881 1375 
L 863 0 
L 184 0 
L 1544 1831 
L 300 3500 
L 978 3500 
L 1906 2253 
L 2834 3500 
L 3513 3500 
z
" transform="scale(0.015625)"/>
      <path id="DejaVuSans-2b" d="M 2944 4013 
L 2944 2272 
L 4684 2272 
L 4684 1741 
L 2944 1741 
L 2944 0 
L 2419 0 
L 2419 1741 
L 678 1741 
L 678 2272 
L 2419 2272 
L 2419 4013 
L 2944 4013 
z
" transform="scale(0.015625)"/>
      <path id="DejaVuSans-39" d="M 703 97 
L 703 672 
Q 941 559 1184 500 
Q 1428 441 1663 441 
Q 2288 441 2617 861 
Q 2947 1281 2994 2138 
Q 2813 1869 2534 1725 
Q 2256 1581 1919 1581 
Q 1219 1581 811 2004 
Q 403 2428 403 3163 
Q 403 3881 828 4315 
Q 1253 4750 1959 4750 
Q 2769 4750 3195 4129 
Q 3622 3509 3622 2328 
Q 3622 1225 3098 567 
Q 2575 -91 1691 -91 
Q 1453 -91 1209 -44 
Q 966 3 703 97 
z
M 1959 2075 
Q 2384 2075 2632 2365 
Q 2881 2656 2881 3163 
Q 2881 3666 2632 3958 
Q 2384 4250 1959 4250 
Q 1534 4250 1286 3958 
Q 1038 3666 1038 3163 
Q 1038 2656 1286 2365 
Q 1534 2075 1959 2075 
z
" transform="scale(0.015625)"/>
     </defs>
     <use xlink:href="#DejaVuSans-79"/>
     <use xlink:href="#DejaVuSans-20" x="59.179688"/>
     <use xlink:href="#DejaVuSans-3d" x="90.966797"/>
     <use xlink:href="#DejaVuSans-20" x="174.755859"/>
     <use xlink:href="#DejaVuSans-2d" x="206.542969"/>
     <use xlink:href="#DejaVuSans-30" x="242.626953"/>
     <use xlink:href="#DejaVuSans-2e" x="306.25"/>
     <use xlink:href="#DejaVuSans-30" x="338.037109"/>
     <use xlink:href="#DejaVuSans-30" x="401.660156"/>
     <use xlink:href="#DejaVuSans-78" x="465.283203"/>
     <use xlink:href="#DejaVuSans-20" x="524.462891"/>
     <use xlink:href="#DejaVuSans-2b" x="556.25"/>
     <use xlink:href="#DejaVuSans-20" x="640.039062"/>
     <use xlink:href="#DejaVuSans-30" x="671.826172"/>
     <use xlink:href="#DejaVuSans-2e" x="735.449219"/>
     <use xlink:href="#DejaVuSans-33" x="767.236328"/>
     <use xlink:href="#DejaVuSans-39" x="830.859375"/>
    </g>
   </g>
   <g id="text_18">
    <!-- r^2 = 0.00 -->
    <g transform="translate(60.111781 26.308304)scale(0.1 -0.1)">
     <defs>
      <path id="DejaVuSans-5e" d="M 2988 4666 
L 4684 2925 
L 4056 2925 
L 2681 4159 
L 1306 2925 
L 678 2925 
L 2375 4666 
L 2988 4666 
z
" transform="scale(0.015625)"/>
     </defs>
     <use xlink:href="#DejaVuSans-72"/>
     <use xlink:href="#DejaVuSans-5e" x="41.113281"/>
     <use xlink:href="#DejaVuSans-32" x="124.902344"/>
     <use xlink:href="#DejaVuSans-20" x="188.525391"/>
     <use xlink:href="#DejaVuSans-3d" x="220.3125"/>
     <use xlink:href="#DejaVuSans-20" x="304.101562"/>
     <use xlink:href="#DejaVuSans-30" x="335.888672"/>
     <use xlink:href="#DejaVuSans-2e" x="399.511719"/>
     <use xlink:href="#DejaVuSans-30" x="431.298828"/>
     <use xlink:href="#DejaVuSans-30" x="494.921875"/>
    </g>
   </g>
   <g id="text_19">
    <!-- n = 85 -->
    <g transform="translate(71.139906 34.017232)scale(0.1 -0.1)">
     <use xlink:href="#DejaVuSans-6e"/>
     <use xlink:href="#DejaVuSans-20" x="63.378906"/>
     <use xlink:href="#DejaVuSans-3d" x="95.166016"/>
     <use xlink:href="#DejaVuSans-20" x="178.955078"/>
     <use xlink:href="#DejaVuSans-38" x="210.742188"/>
     <use xlink:href="#DejaVuSans-35" x="274.365234"/>
    </g>
   </g>
   <g id="text_20">
    <!-- IMM1Diff vs PercentGpA_transformed -->
    <g transform="translate(136.921562 40.675714)scale(0.12 -0.12)">
     <defs>
      <path id="DejaVuSans-76" d="M 191 3500 
L 800 3500 
L 1894 563 
L 2988 3500 
L 3597 3500 
L 2284 0 
L 1503 0 
L 191 3500 
z
" transform="scale(0.015625)"/>
     </defs>
     <use xlink:href="#DejaVuSans-49"/>
     <use xlink:href="#DejaVuSans-4d" x="29.492188"/>
     <use xlink:href="#DejaVuSans-4d" x="115.771484"/>
     <use xlink:href="#DejaVuSans-31" x="202.050781"/>
     <use xlink:href="#DejaVuSans-44" x="265.673828"/>
     <use xlink:href="#DejaVuSans-69" x="342.675781"/>
     <use xlink:href="#DejaVuSans-66" x="370.458984"/>
     <use xlink:href="#DejaVuSans-66" x="405.664062"/>
     <use xlink:href="#DejaVuSans-20" x="440.869141"/>
     <use xlink:href="#DejaVuSans-76" x="472.65625"/>
     <use xlink:href="#DejaVuSans-73" x="531.835938"/>
     <use xlink:href="#DejaVuSans-20" x="583.935547"/>
     <use xlink:href="#DejaVuSans-50" x="615.722656"/>
     <use xlink:href="#DejaVuSans-65" x="672.400391"/>
     <use xlink:href="#DejaVuSans-72" x="733.923828"/>
     <use xlink:href="#DejaVuSans-63" x="772.787109"/>
     <use xlink:href="#DejaVuSans-65" x="827.767578"/>
     <use xlink:href="#DejaVuSans-6e" x="889.291016"/>
     <use xlink:href="#DejaVuSans-74" x="952.669922"/>
     <use xlink:href="#DejaVuSans-47" x="991.878906"/>
     <use xlink:href="#DejaVuSans-70" x="1069.369141"/>
     <use xlink:href="#DejaVuSans-41" x="1132.845703"/>
     <use xlink:href="#DejaVuSans-5f" x="1201.253906"/>
     <use xlink:href="#DejaVuSans-74" x="1251.253906"/>
     <use xlink:href="#DejaVuSans-72" x="1290.462891"/>
     <use xlink:href="#DejaVuSans-61" x="1331.576172"/>
     <use xlink:href="#DejaVuSans-6e" x="1392.855469"/>
     <use xlink:href="#DejaVuSans-73" x="1456.234375"/>
     <use xlink:href="#DejaVuSans-66" x="1508.333984"/>
     <use xlink:href="#DejaVuSans-6f" x="1543.539062"/>
     <use xlink:href="#DejaVuSans-72" x="1604.720703"/>
     <use xlink:href="#DejaVuSans-6d" x="1644.083984"/>
     <use xlink:href="#DejaVuSans-65" x="1741.496094"/>
     <use xlink:href="#DejaVuSans-64" x="1803.019531"/>
    </g>
   </g>
  </g>
 </g>
 <defs>
  <clipPath id="pe8c866e111">
   <rect x="47.82125" y="46.675714" width="402.17875" height="256.964286"/>
  </clipPath>
 </defs>
</svg>
