<?xml version="1.0" encoding="utf-8" standalone="no"?>
<!DOCTYPE svg PUBLIC "-//W3C//DTD SVG 1.1//EN"
  "http://www.w3.org/Graphics/SVG/1.1/DTD/svg11.dtd">
<svg xmlns:xlink="http://www.w3.org/1999/xlink" width="460.8pt" height="345.6pt" viewBox="0 0 460.8 345.6" xmlns="http://www.w3.org/2000/svg" version="1.1">
 <metadata>
  <rdf:RDF xmlns:dc="http://purl.org/dc/elements/1.1/" xmlns:cc="http://creativecommons.org/ns#" xmlns:rdf="http://www.w3.org/1999/02/22-rdf-syntax-ns#">
   <cc:Work>
    <dc:type rdf:resource="http://purl.org/dc/dcmitype/StillImage"/>
    <dc:date>2024-02-24T17:24:57.935754</dc:date>
    <dc:format>image/svg+xml</dc:format>
    <dc:creator>
     <cc:Agent>
      <dc:title>Matplotlib v3.5.3, https://matplotlib.org/</dc:title>
     </cc:Agent>
    </dc:creator>
   </cc:Work>
  </rdf:RDF>
 </metadata>
 <defs>
  <style type="text/css">*{stroke-linejoin: round; stroke-linecap: butt}</style>
 </defs>
 <g id="figure_1">
  <g id="patch_1">
   <path d="M 0 345.6 
L 460.8 345.6 
L 460.8 0 
L 0 0 
z
" style="fill: #ffffff"/>
  </g>
  <g id="axes_1">
   <g id="patch_2">
    <path d="M 47.82125 303.64 
L 441.08946 303.64 
L 441.08946 46.675714 
L 47.82125 46.675714 
z
" style="fill: #ffffff"/>
   </g>
   <g id="PathCollection_1">
    <defs>
     <path id="m0a7256bf89" d="M 0 3 
C 0.795609 3 1.55874 2.683901 2.12132 2.12132 
C 2.683901 1.55874 3 0.795609 3 0 
C 3 -0.795609 2.683901 -1.55874 2.12132 -2.12132 
C 1.55874 -2.683901 0.795609 -3 0 -3 
C -0.795609 -3 -1.55874 -2.683901 -2.12132 -2.12132 
C -2.683901 -1.55874 -3 -0.795609 -3 0 
C -3 0.795609 -2.683901 1.55874 -2.12132 2.12132 
C -1.55874 2.683901 -0.795609 3 0 3 
z
" style="stroke: #1f77b4"/>
    </defs>
    <g clip-path="url(#p6c7ae8052e)">
     <use xlink:href="#m0a7256bf89" x="94.210784" y="212.259162" style="fill: #1f77b4; stroke: #1f77b4"/>
     <use xlink:href="#m0a7256bf89" x="143.278907" y="238.479811" style="fill: #1f77b4; stroke: #1f77b4"/>
     <use xlink:href="#m0a7256bf89" x="158.829262" y="205.903827" style="fill: #1f77b4; stroke: #1f77b4"/>
     <use xlink:href="#m0a7256bf89" x="235.174238" y="177.677499" style="fill: #1f77b4; stroke: #1f77b4"/>
     <use xlink:href="#m0a7256bf89" x="90.047027" y="193.065861" style="fill: #1f77b4; stroke: #1f77b4"/>
     <use xlink:href="#m0a7256bf89" x="371.634038" y="246.313302" style="fill: #1f77b4; stroke: #1f77b4"/>
     <use xlink:href="#m0a7256bf89" x="235.967335" y="209.571013" style="fill: #1f77b4; stroke: #1f77b4"/>
     <use xlink:href="#m0a7256bf89" x="162.823069" y="192.97497" style="fill: #1f77b4; stroke: #1f77b4"/>
     <use xlink:href="#m0a7256bf89" x="256.04967" y="224.116941" style="fill: #1f77b4; stroke: #1f77b4"/>
     <use xlink:href="#m0a7256bf89" x="127.671901" y="150.855108" style="fill: #1f77b4; stroke: #1f77b4"/>
     <use xlink:href="#m0a7256bf89" x="168.809059" y="175.681767" style="fill: #1f77b4; stroke: #1f77b4"/>
     <use xlink:href="#m0a7256bf89" x="229.301548" y="193.715275" style="fill: #1f77b4; stroke: #1f77b4"/>
     <use xlink:href="#m0a7256bf89" x="305.287742" y="228.439689" style="fill: #1f77b4; stroke: #1f77b4"/>
     <use xlink:href="#m0a7256bf89" x="245.220127" y="234.840295" style="fill: #1f77b4; stroke: #1f77b4"/>
     <use xlink:href="#m0a7256bf89" x="65.697078" y="232.848272" style="fill: #1f77b4; stroke: #1f77b4"/>
     <use xlink:href="#m0a7256bf89" x="197.303882" y="235.365411" style="fill: #1f77b4; stroke: #1f77b4"/>
     <use xlink:href="#m0a7256bf89" x="232.993223" y="178.984111" style="fill: #1f77b4; stroke: #1f77b4"/>
     <use xlink:href="#m0a7256bf89" x="198.531293" y="230.344791" style="fill: #1f77b4; stroke: #1f77b4"/>
     <use xlink:href="#m0a7256bf89" x="180.26175" y="182.784691" style="fill: #1f77b4; stroke: #1f77b4"/>
     <use xlink:href="#m0a7256bf89" x="294.590382" y="173.185434" style="fill: #1f77b4; stroke: #1f77b4"/>
     <use xlink:href="#m0a7256bf89" x="278.086422" y="217.383715" style="fill: #1f77b4; stroke: #1f77b4"/>
     <use xlink:href="#m0a7256bf89" x="228.772817" y="199.954615" style="fill: #1f77b4; stroke: #1f77b4"/>
     <use xlink:href="#m0a7256bf89" x="145.120023" y="158.500748" style="fill: #1f77b4; stroke: #1f77b4"/>
     <use xlink:href="#m0a7256bf89" x="281.523173" y="164.42477" style="fill: #1f77b4; stroke: #1f77b4"/>
     <use xlink:href="#m0a7256bf89" x="98.450073" y="200.975425" style="fill: #1f77b4; stroke: #1f77b4"/>
     <use xlink:href="#m0a7256bf89" x="229.575355" y="203.26997" style="fill: #1f77b4; stroke: #1f77b4"/>
     <use xlink:href="#m0a7256bf89" x="248.968452" y="224.90703" style="fill: #1f77b4; stroke: #1f77b4"/>
     <use xlink:href="#m0a7256bf89" x="362.352921" y="175.817409" style="fill: #1f77b4; stroke: #1f77b4"/>
     <use xlink:href="#m0a7256bf89" x="172.774542" y="238.101615" style="fill: #1f77b4; stroke: #1f77b4"/>
     <use xlink:href="#m0a7256bf89" x="237.034238" y="211.041142" style="fill: #1f77b4; stroke: #1f77b4"/>
     <use xlink:href="#m0a7256bf89" x="239.866726" y="199.29565" style="fill: #1f77b4; stroke: #1f77b4"/>
     <use xlink:href="#m0a7256bf89" x="177.391496" y="191.840888" style="fill: #1f77b4; stroke: #1f77b4"/>
     <use xlink:href="#m0a7256bf89" x="231.860228" y="244.664766" style="fill: #1f77b4; stroke: #1f77b4"/>
     <use xlink:href="#m0a7256bf89" x="224.533527" y="221.510095" style="fill: #1f77b4; stroke: #1f77b4"/>
     <use xlink:href="#m0a7256bf89" x="377.317896" y="258.71706" style="fill: #1f77b4; stroke: #1f77b4"/>
     <use xlink:href="#m0a7256bf89" x="272.704696" y="208.705127" style="fill: #1f77b4; stroke: #1f77b4"/>
     <use xlink:href="#m0a7256bf89" x="304.088656" y="247.559316" style="fill: #1f77b4; stroke: #1f77b4"/>
     <use xlink:href="#m0a7256bf89" x="128.795455" y="149.559921" style="fill: #1f77b4; stroke: #1f77b4"/>
     <use xlink:href="#m0a7256bf89" x="199.041141" y="225.950615" style="fill: #1f77b4; stroke: #1f77b4"/>
     <use xlink:href="#m0a7256bf89" x="256.474543" y="214.987656" style="fill: #1f77b4; stroke: #1f77b4"/>
     <use xlink:href="#m0a7256bf89" x="284.402869" y="145.377015" style="fill: #1f77b4; stroke: #1f77b4"/>
     <use xlink:href="#m0a7256bf89" x="267.653427" y="189.409211" style="fill: #1f77b4; stroke: #1f77b4"/>
     <use xlink:href="#m0a7256bf89" x="310.357895" y="254.30727" style="fill: #1f77b4; stroke: #1f77b4"/>
     <use xlink:href="#m0a7256bf89" x="251.149467" y="226.32623" style="fill: #1f77b4; stroke: #1f77b4"/>
     <use xlink:href="#m0a7256bf89" x="381.245612" y="134.005698" style="fill: #1f77b4; stroke: #1f77b4"/>
     <use xlink:href="#m0a7256bf89" x="374.872515" y="218.449066" style="fill: #1f77b4; stroke: #1f77b4"/>
     <use xlink:href="#m0a7256bf89" x="231.775253" y="150.773762" style="fill: #1f77b4; stroke: #1f77b4"/>
     <use xlink:href="#m0a7256bf89" x="256.153528" y="185.304957" style="fill: #1f77b4; stroke: #1f77b4"/>
     <use xlink:href="#m0a7256bf89" x="109.071901" y="211.115683" style="fill: #1f77b4; stroke: #1f77b4"/>
     <use xlink:href="#m0a7256bf89" x="240.76368" y="158.191511" style="fill: #1f77b4; stroke: #1f77b4"/>
     <use xlink:href="#m0a7256bf89" x="193.04571" y="221.635464" style="fill: #1f77b4; stroke: #1f77b4"/>
     <use xlink:href="#m0a7256bf89" x="206.632207" y="229.412966" style="fill: #1f77b4; stroke: #1f77b4"/>
     <use xlink:href="#m0a7256bf89" x="377.22348" y="231.057182" style="fill: #1f77b4; stroke: #1f77b4"/>
     <use xlink:href="#m0a7256bf89" x="379.574444" y="195.132276" style="fill: #1f77b4; stroke: #1f77b4"/>
     <use xlink:href="#m0a7256bf89" x="323.085204" y="201.935686" style="fill: #1f77b4; stroke: #1f77b4"/>
     <use xlink:href="#m0a7256bf89" x="231.728045" y="199.811457" style="fill: #1f77b4; stroke: #1f77b4"/>
     <use xlink:href="#m0a7256bf89" x="344.319418" y="238.386579" style="fill: #1f77b4; stroke: #1f77b4"/>
     <use xlink:href="#m0a7256bf89" x="236.250584" y="197.429484" style="fill: #1f77b4; stroke: #1f77b4"/>
     <use xlink:href="#m0a7256bf89" x="228.7917" y="231.976972" style="fill: #1f77b4; stroke: #1f77b4"/>
     <use xlink:href="#m0a7256bf89" x="267.020838" y="202.346852" style="fill: #1f77b4; stroke: #1f77b4"/>
     <use xlink:href="#m0a7256bf89" x="138.964084" y="221.254146" style="fill: #1f77b4; stroke: #1f77b4"/>
     <use xlink:href="#m0a7256bf89" x="212.523781" y="199.170272" style="fill: #1f77b4; stroke: #1f77b4"/>
     <use xlink:href="#m0a7256bf89" x="339.834646" y="186.515837" style="fill: #1f77b4; stroke: #1f77b4"/>
     <use xlink:href="#m0a7256bf89" x="391.470891" y="258.882043" style="fill: #1f77b4; stroke: #1f77b4"/>
     <use xlink:href="#m0a7256bf89" x="137.746115" y="202.691167" style="fill: #1f77b4; stroke: #1f77b4"/>
     <use xlink:href="#m0a7256bf89" x="241.991091" y="200.45264" style="fill: #1f77b4; stroke: #1f77b4"/>
     <use xlink:href="#m0a7256bf89" x="294.920838" y="219.427012" style="fill: #1f77b4; stroke: #1f77b4"/>
     <use xlink:href="#m0a7256bf89" x="423.213633" y="224.141924" style="fill: #1f77b4; stroke: #1f77b4"/>
     <use xlink:href="#m0a7256bf89" x="259.524188" y="185.967646" style="fill: #1f77b4; stroke: #1f77b4"/>
     <use xlink:href="#m0a7256bf89" x="118.003678" y="204.562244" style="fill: #1f77b4; stroke: #1f77b4"/>
     <use xlink:href="#m0a7256bf89" x="179.978501" y="210.983774" style="fill: #1f77b4; stroke: #1f77b4"/>
     <use xlink:href="#m0a7256bf89" x="420.456678" y="235.923849" style="fill: #1f77b4; stroke: #1f77b4"/>
     <use xlink:href="#m0a7256bf89" x="255.99302" y="231.596968" style="fill: #1f77b4; stroke: #1f77b4"/>
     <use xlink:href="#m0a7256bf89" x="348.672007" y="217.52725" style="fill: #1f77b4; stroke: #1f77b4"/>
     <use xlink:href="#m0a7256bf89" x="355.19617" y="230.656512" style="fill: #1f77b4; stroke: #1f77b4"/>
     <use xlink:href="#m0a7256bf89" x="293.344087" y="216.295943" style="fill: #1f77b4; stroke: #1f77b4"/>
     <use xlink:href="#m0a7256bf89" x="322.197692" y="227.746422" style="fill: #1f77b4; stroke: #1f77b4"/>
     <use xlink:href="#m0a7256bf89" x="340.023479" y="225.424406" style="fill: #1f77b4; stroke: #1f77b4"/>
     <use xlink:href="#m0a7256bf89" x="224.25972" y="118.564482" style="fill: #1f77b4; stroke: #1f77b4"/>
     <use xlink:href="#m0a7256bf89" x="262.772107" y="196.913395" style="fill: #1f77b4; stroke: #1f77b4"/>
     <use xlink:href="#m0a7256bf89" x="330.355255" y="174.507354" style="fill: #1f77b4; stroke: #1f77b4"/>
     <use xlink:href="#m0a7256bf89" x="200.674542" y="142.762452" style="fill: #1f77b4; stroke: #1f77b4"/>
     <use xlink:href="#m0a7256bf89" x="295.591194" y="211.422825" style="fill: #1f77b4; stroke: #1f77b4"/>
     <use xlink:href="#m0a7256bf89" x="200.381852" y="221.765379" style="fill: #1f77b4; stroke: #1f77b4"/>
     <use xlink:href="#m0a7256bf89" x="293.344087" y="70.951855" style="fill: #1f77b4; stroke: #1f77b4"/>
    </g>
   </g>
   <g id="matplotlib.axis_1">
    <g id="xtick_1">
     <g id="line2d_1">
      <defs>
       <path id="mbff8f8867d" d="M 0 0 
L 0 3.5 
" style="stroke: #000000; stroke-width: 0.8"/>
      </defs>
      <g>
       <use xlink:href="#mbff8f8867d" x="58.804692" y="303.64" style="stroke: #000000; stroke-width: 0.8"/>
      </g>
     </g>
     <g id="text_1">
      <!-- −900 -->
      <g transform="translate(45.071098 318.238437)scale(0.1 -0.1)">
       <defs>
        <path id="DejaVuSans-2212" d="M 678 2272 
L 4684 2272 
L 4684 1741 
L 678 1741 
L 678 2272 
z
" transform="scale(0.015625)"/>
        <path id="DejaVuSans-39" d="M 703 97 
L 703 672 
Q 941 559 1184 500 
Q 1428 441 1663 441 
Q 2288 441 2617 861 
Q 2947 1281 2994 2138 
Q 2813 1869 2534 1725 
Q 2256 1581 1919 1581 
Q 1219 1581 811 2004 
Q 403 2428 403 3163 
Q 403 3881 828 4315 
Q 1253 4750 1959 4750 
Q 2769 4750 3195 4129 
Q 3622 3509 3622 2328 
Q 3622 1225 3098 567 
Q 2575 -91 1691 -91 
Q 1453 -91 1209 -44 
Q 966 3 703 97 
z
M 1959 2075 
Q 2384 2075 2632 2365 
Q 2881 2656 2881 3163 
Q 2881 3666 2632 3958 
Q 2384 4250 1959 4250 
Q 1534 4250 1286 3958 
Q 1038 3666 1038 3163 
Q 1038 2656 1286 2365 
Q 1534 2075 1959 2075 
z
" transform="scale(0.015625)"/>
        <path id="DejaVuSans-30" d="M 2034 4250 
Q 1547 4250 1301 3770 
Q 1056 3291 1056 2328 
Q 1056 1369 1301 889 
Q 1547 409 2034 409 
Q 2525 409 2770 889 
Q 3016 1369 3016 2328 
Q 3016 3291 2770 3770 
Q 2525 4250 2034 4250 
z
M 2034 4750 
Q 2819 4750 3233 4129 
Q 3647 3509 3647 2328 
Q 3647 1150 3233 529 
Q 2819 -91 2034 -91 
Q 1250 -91 836 529 
Q 422 1150 422 2328 
Q 422 3509 836 4129 
Q 1250 4750 2034 4750 
z
" transform="scale(0.015625)"/>
       </defs>
       <use xlink:href="#DejaVuSans-2212"/>
       <use xlink:href="#DejaVuSans-39" x="83.789062"/>
       <use xlink:href="#DejaVuSans-30" x="147.412109"/>
       <use xlink:href="#DejaVuSans-30" x="211.035156"/>
      </g>
     </g>
    </g>
    <g id="xtick_2">
     <g id="line2d_2">
      <g>
       <use xlink:href="#mbff8f8867d" x="106.012815" y="303.64" style="stroke: #000000; stroke-width: 0.8"/>
      </g>
     </g>
     <g id="text_2">
      <!-- −850 -->
      <g transform="translate(92.279221 318.238437)scale(0.1 -0.1)">
       <defs>
        <path id="DejaVuSans-38" d="M 2034 2216 
Q 1584 2216 1326 1975 
Q 1069 1734 1069 1313 
Q 1069 891 1326 650 
Q 1584 409 2034 409 
Q 2484 409 2743 651 
Q 3003 894 3003 1313 
Q 3003 1734 2745 1975 
Q 2488 2216 2034 2216 
z
M 1403 2484 
Q 997 2584 770 2862 
Q 544 3141 544 3541 
Q 544 4100 942 4425 
Q 1341 4750 2034 4750 
Q 2731 4750 3128 4425 
Q 3525 4100 3525 3541 
Q 3525 3141 3298 2862 
Q 3072 2584 2669 2484 
Q 3125 2378 3379 2068 
Q 3634 1759 3634 1313 
Q 3634 634 3220 271 
Q 2806 -91 2034 -91 
Q 1263 -91 848 271 
Q 434 634 434 1313 
Q 434 1759 690 2068 
Q 947 2378 1403 2484 
z
M 1172 3481 
Q 1172 3119 1398 2916 
Q 1625 2713 2034 2713 
Q 2441 2713 2670 2916 
Q 2900 3119 2900 3481 
Q 2900 3844 2670 4047 
Q 2441 4250 2034 4250 
Q 1625 4250 1398 4047 
Q 1172 3844 1172 3481 
z
" transform="scale(0.015625)"/>
        <path id="DejaVuSans-35" d="M 691 4666 
L 3169 4666 
L 3169 4134 
L 1269 4134 
L 1269 2991 
Q 1406 3038 1543 3061 
Q 1681 3084 1819 3084 
Q 2600 3084 3056 2656 
Q 3513 2228 3513 1497 
Q 3513 744 3044 326 
Q 2575 -91 1722 -91 
Q 1428 -91 1123 -41 
Q 819 9 494 109 
L 494 744 
Q 775 591 1075 516 
Q 1375 441 1709 441 
Q 2250 441 2565 725 
Q 2881 1009 2881 1497 
Q 2881 1984 2565 2268 
Q 2250 2553 1709 2553 
Q 1456 2553 1204 2497 
Q 953 2441 691 2322 
L 691 4666 
z
" transform="scale(0.015625)"/>
       </defs>
       <use xlink:href="#DejaVuSans-2212"/>
       <use xlink:href="#DejaVuSans-38" x="83.789062"/>
       <use xlink:href="#DejaVuSans-35" x="147.412109"/>
       <use xlink:href="#DejaVuSans-30" x="211.035156"/>
      </g>
     </g>
    </g>
    <g id="xtick_3">
     <g id="line2d_3">
      <g>
       <use xlink:href="#mbff8f8867d" x="153.220937" y="303.64" style="stroke: #000000; stroke-width: 0.8"/>
      </g>
     </g>
     <g id="text_3">
      <!-- −800 -->
      <g transform="translate(139.487344 318.238437)scale(0.1 -0.1)">
       <use xlink:href="#DejaVuSans-2212"/>
       <use xlink:href="#DejaVuSans-38" x="83.789062"/>
       <use xlink:href="#DejaVuSans-30" x="147.412109"/>
       <use xlink:href="#DejaVuSans-30" x="211.035156"/>
      </g>
     </g>
    </g>
    <g id="xtick_4">
     <g id="line2d_4">
      <g>
       <use xlink:href="#mbff8f8867d" x="200.42906" y="303.64" style="stroke: #000000; stroke-width: 0.8"/>
      </g>
     </g>
     <g id="text_4">
      <!-- −750 -->
      <g transform="translate(186.695466 318.238437)scale(0.1 -0.1)">
       <defs>
        <path id="DejaVuSans-37" d="M 525 4666 
L 3525 4666 
L 3525 4397 
L 1831 0 
L 1172 0 
L 2766 4134 
L 525 4134 
L 525 4666 
z
" transform="scale(0.015625)"/>
       </defs>
       <use xlink:href="#DejaVuSans-2212"/>
       <use xlink:href="#DejaVuSans-37" x="83.789062"/>
       <use xlink:href="#DejaVuSans-35" x="147.412109"/>
       <use xlink:href="#DejaVuSans-30" x="211.035156"/>
      </g>
     </g>
    </g>
    <g id="xtick_5">
     <g id="line2d_5">
      <g>
       <use xlink:href="#mbff8f8867d" x="247.637183" y="303.64" style="stroke: #000000; stroke-width: 0.8"/>
      </g>
     </g>
     <g id="text_5">
      <!-- −700 -->
      <g transform="translate(233.903589 318.238437)scale(0.1 -0.1)">
       <use xlink:href="#DejaVuSans-2212"/>
       <use xlink:href="#DejaVuSans-37" x="83.789062"/>
       <use xlink:href="#DejaVuSans-30" x="147.412109"/>
       <use xlink:href="#DejaVuSans-30" x="211.035156"/>
      </g>
     </g>
    </g>
    <g id="xtick_6">
     <g id="line2d_6">
      <g>
       <use xlink:href="#mbff8f8867d" x="294.845305" y="303.64" style="stroke: #000000; stroke-width: 0.8"/>
      </g>
     </g>
     <g id="text_6">
      <!-- −650 -->
      <g transform="translate(281.111712 318.238437)scale(0.1 -0.1)">
       <defs>
        <path id="DejaVuSans-36" d="M 2113 2584 
Q 1688 2584 1439 2293 
Q 1191 2003 1191 1497 
Q 1191 994 1439 701 
Q 1688 409 2113 409 
Q 2538 409 2786 701 
Q 3034 994 3034 1497 
Q 3034 2003 2786 2293 
Q 2538 2584 2113 2584 
z
M 3366 4563 
L 3366 3988 
Q 3128 4100 2886 4159 
Q 2644 4219 2406 4219 
Q 1781 4219 1451 3797 
Q 1122 3375 1075 2522 
Q 1259 2794 1537 2939 
Q 1816 3084 2150 3084 
Q 2853 3084 3261 2657 
Q 3669 2231 3669 1497 
Q 3669 778 3244 343 
Q 2819 -91 2113 -91 
Q 1303 -91 875 529 
Q 447 1150 447 2328 
Q 447 3434 972 4092 
Q 1497 4750 2381 4750 
Q 2619 4750 2861 4703 
Q 3103 4656 3366 4563 
z
" transform="scale(0.015625)"/>
       </defs>
       <use xlink:href="#DejaVuSans-2212"/>
       <use xlink:href="#DejaVuSans-36" x="83.789062"/>
       <use xlink:href="#DejaVuSans-35" x="147.412109"/>
       <use xlink:href="#DejaVuSans-30" x="211.035156"/>
      </g>
     </g>
    </g>
    <g id="xtick_7">
     <g id="line2d_7">
      <g>
       <use xlink:href="#mbff8f8867d" x="342.053428" y="303.64" style="stroke: #000000; stroke-width: 0.8"/>
      </g>
     </g>
     <g id="text_7">
      <!-- −600 -->
      <g transform="translate(328.319834 318.238437)scale(0.1 -0.1)">
       <use xlink:href="#DejaVuSans-2212"/>
       <use xlink:href="#DejaVuSans-36" x="83.789062"/>
       <use xlink:href="#DejaVuSans-30" x="147.412109"/>
       <use xlink:href="#DejaVuSans-30" x="211.035156"/>
      </g>
     </g>
    </g>
    <g id="xtick_8">
     <g id="line2d_8">
      <g>
       <use xlink:href="#mbff8f8867d" x="389.261551" y="303.64" style="stroke: #000000; stroke-width: 0.8"/>
      </g>
     </g>
     <g id="text_8">
      <!-- −550 -->
      <g transform="translate(375.527957 318.238437)scale(0.1 -0.1)">
       <use xlink:href="#DejaVuSans-2212"/>
       <use xlink:href="#DejaVuSans-35" x="83.789062"/>
       <use xlink:href="#DejaVuSans-35" x="147.412109"/>
       <use xlink:href="#DejaVuSans-30" x="211.035156"/>
      </g>
     </g>
    </g>
    <g id="xtick_9">
     <g id="line2d_9">
      <g>
       <use xlink:href="#mbff8f8867d" x="436.469674" y="303.64" style="stroke: #000000; stroke-width: 0.8"/>
      </g>
     </g>
     <g id="text_9">
      <!-- −500 -->
      <g transform="translate(422.73608 318.238437)scale(0.1 -0.1)">
       <use xlink:href="#DejaVuSans-2212"/>
       <use xlink:href="#DejaVuSans-35" x="83.789062"/>
       <use xlink:href="#DejaVuSans-30" x="147.412109"/>
       <use xlink:href="#DejaVuSans-30" x="211.035156"/>
      </g>
     </g>
    </g>
    <g id="text_10">
     <!-- SasaDiff -->
     <g transform="translate(223.788949 331.916562)scale(0.1 -0.1)">
      <defs>
       <path id="DejaVuSans-53" d="M 3425 4513 
L 3425 3897 
Q 3066 4069 2747 4153 
Q 2428 4238 2131 4238 
Q 1616 4238 1336 4038 
Q 1056 3838 1056 3469 
Q 1056 3159 1242 3001 
Q 1428 2844 1947 2747 
L 2328 2669 
Q 3034 2534 3370 2195 
Q 3706 1856 3706 1288 
Q 3706 609 3251 259 
Q 2797 -91 1919 -91 
Q 1588 -91 1214 -16 
Q 841 59 441 206 
L 441 856 
Q 825 641 1194 531 
Q 1563 422 1919 422 
Q 2459 422 2753 634 
Q 3047 847 3047 1241 
Q 3047 1584 2836 1778 
Q 2625 1972 2144 2069 
L 1759 2144 
Q 1053 2284 737 2584 
Q 422 2884 422 3419 
Q 422 4038 858 4394 
Q 1294 4750 2059 4750 
Q 2388 4750 2728 4690 
Q 3069 4631 3425 4513 
z
" transform="scale(0.015625)"/>
       <path id="DejaVuSans-61" d="M 2194 1759 
Q 1497 1759 1228 1600 
Q 959 1441 959 1056 
Q 959 750 1161 570 
Q 1363 391 1709 391 
Q 2188 391 2477 730 
Q 2766 1069 2766 1631 
L 2766 1759 
L 2194 1759 
z
M 3341 1997 
L 3341 0 
L 2766 0 
L 2766 531 
Q 2569 213 2275 61 
Q 1981 -91 1556 -91 
Q 1019 -91 701 211 
Q 384 513 384 1019 
Q 384 1609 779 1909 
Q 1175 2209 1959 2209 
L 2766 2209 
L 2766 2266 
Q 2766 2663 2505 2880 
Q 2244 3097 1772 3097 
Q 1472 3097 1187 3025 
Q 903 2953 641 2809 
L 641 3341 
Q 956 3463 1253 3523 
Q 1550 3584 1831 3584 
Q 2591 3584 2966 3190 
Q 3341 2797 3341 1997 
z
" transform="scale(0.015625)"/>
       <path id="DejaVuSans-73" d="M 2834 3397 
L 2834 2853 
Q 2591 2978 2328 3040 
Q 2066 3103 1784 3103 
Q 1356 3103 1142 2972 
Q 928 2841 928 2578 
Q 928 2378 1081 2264 
Q 1234 2150 1697 2047 
L 1894 2003 
Q 2506 1872 2764 1633 
Q 3022 1394 3022 966 
Q 3022 478 2636 193 
Q 2250 -91 1575 -91 
Q 1294 -91 989 -36 
Q 684 19 347 128 
L 347 722 
Q 666 556 975 473 
Q 1284 391 1588 391 
Q 1994 391 2212 530 
Q 2431 669 2431 922 
Q 2431 1156 2273 1281 
Q 2116 1406 1581 1522 
L 1381 1569 
Q 847 1681 609 1914 
Q 372 2147 372 2553 
Q 372 3047 722 3315 
Q 1072 3584 1716 3584 
Q 2034 3584 2315 3537 
Q 2597 3491 2834 3397 
z
" transform="scale(0.015625)"/>
       <path id="DejaVuSans-44" d="M 1259 4147 
L 1259 519 
L 2022 519 
Q 2988 519 3436 956 
Q 3884 1394 3884 2338 
Q 3884 3275 3436 3711 
Q 2988 4147 2022 4147 
L 1259 4147 
z
M 628 4666 
L 1925 4666 
Q 3281 4666 3915 4102 
Q 4550 3538 4550 2338 
Q 4550 1131 3912 565 
Q 3275 0 1925 0 
L 628 0 
L 628 4666 
z
" transform="scale(0.015625)"/>
       <path id="DejaVuSans-69" d="M 603 3500 
L 1178 3500 
L 1178 0 
L 603 0 
L 603 3500 
z
M 603 4863 
L 1178 4863 
L 1178 4134 
L 603 4134 
L 603 4863 
z
" transform="scale(0.015625)"/>
       <path id="DejaVuSans-66" d="M 2375 4863 
L 2375 4384 
L 1825 4384 
Q 1516 4384 1395 4259 
Q 1275 4134 1275 3809 
L 1275 3500 
L 2222 3500 
L 2222 3053 
L 1275 3053 
L 1275 0 
L 697 0 
L 697 3053 
L 147 3053 
L 147 3500 
L 697 3500 
L 697 3744 
Q 697 4328 969 4595 
Q 1241 4863 1831 4863 
L 2375 4863 
z
" transform="scale(0.015625)"/>
      </defs>
      <use xlink:href="#DejaVuSans-53"/>
      <use xlink:href="#DejaVuSans-61" x="63.476562"/>
      <use xlink:href="#DejaVuSans-73" x="124.755859"/>
      <use xlink:href="#DejaVuSans-61" x="176.855469"/>
      <use xlink:href="#DejaVuSans-44" x="238.134766"/>
      <use xlink:href="#DejaVuSans-69" x="315.136719"/>
      <use xlink:href="#DejaVuSans-66" x="342.919922"/>
      <use xlink:href="#DejaVuSans-66" x="378.125"/>
     </g>
    </g>
   </g>
   <g id="matplotlib.axis_2">
    <g id="ytick_1">
     <g id="line2d_10">
      <defs>
       <path id="m350a9fe4f8" d="M 0 0 
L -3.5 0 
" style="stroke: #000000; stroke-width: 0.8"/>
      </defs>
      <g>
       <use xlink:href="#m350a9fe4f8" x="47.82125" y="303.64" style="stroke: #000000; stroke-width: 0.8"/>
      </g>
     </g>
     <g id="text_11">
      <!-- 0.0 -->
      <g transform="translate(24.918125 307.439219)scale(0.1 -0.1)">
       <defs>
        <path id="DejaVuSans-2e" d="M 684 794 
L 1344 794 
L 1344 0 
L 684 0 
L 684 794 
z
" transform="scale(0.015625)"/>
       </defs>
       <use xlink:href="#DejaVuSans-30"/>
       <use xlink:href="#DejaVuSans-2e" x="63.623047"/>
       <use xlink:href="#DejaVuSans-30" x="95.410156"/>
      </g>
     </g>
    </g>
    <g id="ytick_2">
     <g id="line2d_11">
      <g>
       <use xlink:href="#m350a9fe4f8" x="47.82125" y="251.733944" style="stroke: #000000; stroke-width: 0.8"/>
      </g>
     </g>
     <g id="text_12">
      <!-- 0.2 -->
      <g transform="translate(24.918125 255.533163)scale(0.1 -0.1)">
       <defs>
        <path id="DejaVuSans-32" d="M 1228 531 
L 3431 531 
L 3431 0 
L 469 0 
L 469 531 
Q 828 903 1448 1529 
Q 2069 2156 2228 2338 
Q 2531 2678 2651 2914 
Q 2772 3150 2772 3378 
Q 2772 3750 2511 3984 
Q 2250 4219 1831 4219 
Q 1534 4219 1204 4116 
Q 875 4013 500 3803 
L 500 4441 
Q 881 4594 1212 4672 
Q 1544 4750 1819 4750 
Q 2544 4750 2975 4387 
Q 3406 4025 3406 3419 
Q 3406 3131 3298 2873 
Q 3191 2616 2906 2266 
Q 2828 2175 2409 1742 
Q 1991 1309 1228 531 
z
" transform="scale(0.015625)"/>
       </defs>
       <use xlink:href="#DejaVuSans-30"/>
       <use xlink:href="#DejaVuSans-2e" x="63.623047"/>
       <use xlink:href="#DejaVuSans-32" x="95.410156"/>
      </g>
     </g>
    </g>
    <g id="ytick_3">
     <g id="line2d_12">
      <g>
       <use xlink:href="#m350a9fe4f8" x="47.82125" y="199.827889" style="stroke: #000000; stroke-width: 0.8"/>
      </g>
     </g>
     <g id="text_13">
      <!-- 0.4 -->
      <g transform="translate(24.918125 203.627107)scale(0.1 -0.1)">
       <defs>
        <path id="DejaVuSans-34" d="M 2419 4116 
L 825 1625 
L 2419 1625 
L 2419 4116 
z
M 2253 4666 
L 3047 4666 
L 3047 1625 
L 3713 1625 
L 3713 1100 
L 3047 1100 
L 3047 0 
L 2419 0 
L 2419 1100 
L 313 1100 
L 313 1709 
L 2253 4666 
z
" transform="scale(0.015625)"/>
       </defs>
       <use xlink:href="#DejaVuSans-30"/>
       <use xlink:href="#DejaVuSans-2e" x="63.623047"/>
       <use xlink:href="#DejaVuSans-34" x="95.410156"/>
      </g>
     </g>
    </g>
    <g id="ytick_4">
     <g id="line2d_13">
      <g>
       <use xlink:href="#m350a9fe4f8" x="47.82125" y="147.921833" style="stroke: #000000; stroke-width: 0.8"/>
      </g>
     </g>
     <g id="text_14">
      <!-- 0.6 -->
      <g transform="translate(24.918125 151.721052)scale(0.1 -0.1)">
       <use xlink:href="#DejaVuSans-30"/>
       <use xlink:href="#DejaVuSans-2e" x="63.623047"/>
       <use xlink:href="#DejaVuSans-36" x="95.410156"/>
      </g>
     </g>
    </g>
    <g id="ytick_5">
     <g id="line2d_14">
      <g>
       <use xlink:href="#m350a9fe4f8" x="47.82125" y="96.015777" style="stroke: #000000; stroke-width: 0.8"/>
      </g>
     </g>
     <g id="text_15">
      <!-- 0.8 -->
      <g transform="translate(24.918125 99.814996)scale(0.1 -0.1)">
       <use xlink:href="#DejaVuSans-30"/>
       <use xlink:href="#DejaVuSans-2e" x="63.623047"/>
       <use xlink:href="#DejaVuSans-38" x="95.410156"/>
      </g>
     </g>
    </g>
    <g id="text_16">
     <!-- PercentGpA_transformed -->
     <g transform="translate(18.560313 237.696138)rotate(-90)scale(0.1 -0.1)">
      <defs>
       <path id="DejaVuSans-50" d="M 1259 4147 
L 1259 2394 
L 2053 2394 
Q 2494 2394 2734 2622 
Q 2975 2850 2975 3272 
Q 2975 3691 2734 3919 
Q 2494 4147 2053 4147 
L 1259 4147 
z
M 628 4666 
L 2053 4666 
Q 2838 4666 3239 4311 
Q 3641 3956 3641 3272 
Q 3641 2581 3239 2228 
Q 2838 1875 2053 1875 
L 1259 1875 
L 1259 0 
L 628 0 
L 628 4666 
z
" transform="scale(0.015625)"/>
       <path id="DejaVuSans-65" d="M 3597 1894 
L 3597 1613 
L 953 1613 
Q 991 1019 1311 708 
Q 1631 397 2203 397 
Q 2534 397 2845 478 
Q 3156 559 3463 722 
L 3463 178 
Q 3153 47 2828 -22 
Q 2503 -91 2169 -91 
Q 1331 -91 842 396 
Q 353 884 353 1716 
Q 353 2575 817 3079 
Q 1281 3584 2069 3584 
Q 2775 3584 3186 3129 
Q 3597 2675 3597 1894 
z
M 3022 2063 
Q 3016 2534 2758 2815 
Q 2500 3097 2075 3097 
Q 1594 3097 1305 2825 
Q 1016 2553 972 2059 
L 3022 2063 
z
" transform="scale(0.015625)"/>
       <path id="DejaVuSans-72" d="M 2631 2963 
Q 2534 3019 2420 3045 
Q 2306 3072 2169 3072 
Q 1681 3072 1420 2755 
Q 1159 2438 1159 1844 
L 1159 0 
L 581 0 
L 581 3500 
L 1159 3500 
L 1159 2956 
Q 1341 3275 1631 3429 
Q 1922 3584 2338 3584 
Q 2397 3584 2469 3576 
Q 2541 3569 2628 3553 
L 2631 2963 
z
" transform="scale(0.015625)"/>
       <path id="DejaVuSans-63" d="M 3122 3366 
L 3122 2828 
Q 2878 2963 2633 3030 
Q 2388 3097 2138 3097 
Q 1578 3097 1268 2742 
Q 959 2388 959 1747 
Q 959 1106 1268 751 
Q 1578 397 2138 397 
Q 2388 397 2633 464 
Q 2878 531 3122 666 
L 3122 134 
Q 2881 22 2623 -34 
Q 2366 -91 2075 -91 
Q 1284 -91 818 406 
Q 353 903 353 1747 
Q 353 2603 823 3093 
Q 1294 3584 2113 3584 
Q 2378 3584 2631 3529 
Q 2884 3475 3122 3366 
z
" transform="scale(0.015625)"/>
       <path id="DejaVuSans-6e" d="M 3513 2113 
L 3513 0 
L 2938 0 
L 2938 2094 
Q 2938 2591 2744 2837 
Q 2550 3084 2163 3084 
Q 1697 3084 1428 2787 
Q 1159 2491 1159 1978 
L 1159 0 
L 581 0 
L 581 3500 
L 1159 3500 
L 1159 2956 
Q 1366 3272 1645 3428 
Q 1925 3584 2291 3584 
Q 2894 3584 3203 3211 
Q 3513 2838 3513 2113 
z
" transform="scale(0.015625)"/>
       <path id="DejaVuSans-74" d="M 1172 4494 
L 1172 3500 
L 2356 3500 
L 2356 3053 
L 1172 3053 
L 1172 1153 
Q 1172 725 1289 603 
Q 1406 481 1766 481 
L 2356 481 
L 2356 0 
L 1766 0 
Q 1100 0 847 248 
Q 594 497 594 1153 
L 594 3053 
L 172 3053 
L 172 3500 
L 594 3500 
L 594 4494 
L 1172 4494 
z
" transform="scale(0.015625)"/>
       <path id="DejaVuSans-47" d="M 3809 666 
L 3809 1919 
L 2778 1919 
L 2778 2438 
L 4434 2438 
L 4434 434 
Q 4069 175 3628 42 
Q 3188 -91 2688 -91 
Q 1594 -91 976 548 
Q 359 1188 359 2328 
Q 359 3472 976 4111 
Q 1594 4750 2688 4750 
Q 3144 4750 3555 4637 
Q 3966 4525 4313 4306 
L 4313 3634 
Q 3963 3931 3569 4081 
Q 3175 4231 2741 4231 
Q 1884 4231 1454 3753 
Q 1025 3275 1025 2328 
Q 1025 1384 1454 906 
Q 1884 428 2741 428 
Q 3075 428 3337 486 
Q 3600 544 3809 666 
z
" transform="scale(0.015625)"/>
       <path id="DejaVuSans-70" d="M 1159 525 
L 1159 -1331 
L 581 -1331 
L 581 3500 
L 1159 3500 
L 1159 2969 
Q 1341 3281 1617 3432 
Q 1894 3584 2278 3584 
Q 2916 3584 3314 3078 
Q 3713 2572 3713 1747 
Q 3713 922 3314 415 
Q 2916 -91 2278 -91 
Q 1894 -91 1617 61 
Q 1341 213 1159 525 
z
M 3116 1747 
Q 3116 2381 2855 2742 
Q 2594 3103 2138 3103 
Q 1681 3103 1420 2742 
Q 1159 2381 1159 1747 
Q 1159 1113 1420 752 
Q 1681 391 2138 391 
Q 2594 391 2855 752 
Q 3116 1113 3116 1747 
z
" transform="scale(0.015625)"/>
       <path id="DejaVuSans-41" d="M 2188 4044 
L 1331 1722 
L 3047 1722 
L 2188 4044 
z
M 1831 4666 
L 2547 4666 
L 4325 0 
L 3669 0 
L 3244 1197 
L 1141 1197 
L 716 0 
L 50 0 
L 1831 4666 
z
" transform="scale(0.015625)"/>
       <path id="DejaVuSans-5f" d="M 3263 -1063 
L 3263 -1509 
L -63 -1509 
L -63 -1063 
L 3263 -1063 
z
" transform="scale(0.015625)"/>
       <path id="DejaVuSans-6f" d="M 1959 3097 
Q 1497 3097 1228 2736 
Q 959 2375 959 1747 
Q 959 1119 1226 758 
Q 1494 397 1959 397 
Q 2419 397 2687 759 
Q 2956 1122 2956 1747 
Q 2956 2369 2687 2733 
Q 2419 3097 1959 3097 
z
M 1959 3584 
Q 2709 3584 3137 3096 
Q 3566 2609 3566 1747 
Q 3566 888 3137 398 
Q 2709 -91 1959 -91 
Q 1206 -91 779 398 
Q 353 888 353 1747 
Q 353 2609 779 3096 
Q 1206 3584 1959 3584 
z
" transform="scale(0.015625)"/>
       <path id="DejaVuSans-6d" d="M 3328 2828 
Q 3544 3216 3844 3400 
Q 4144 3584 4550 3584 
Q 5097 3584 5394 3201 
Q 5691 2819 5691 2113 
L 5691 0 
L 5113 0 
L 5113 2094 
Q 5113 2597 4934 2840 
Q 4756 3084 4391 3084 
Q 3944 3084 3684 2787 
Q 3425 2491 3425 1978 
L 3425 0 
L 2847 0 
L 2847 2094 
Q 2847 2600 2669 2842 
Q 2491 3084 2119 3084 
Q 1678 3084 1418 2786 
Q 1159 2488 1159 1978 
L 1159 0 
L 581 0 
L 581 3500 
L 1159 3500 
L 1159 2956 
Q 1356 3278 1631 3431 
Q 1906 3584 2284 3584 
Q 2666 3584 2933 3390 
Q 3200 3197 3328 2828 
z
" transform="scale(0.015625)"/>
       <path id="DejaVuSans-64" d="M 2906 2969 
L 2906 4863 
L 3481 4863 
L 3481 0 
L 2906 0 
L 2906 525 
Q 2725 213 2448 61 
Q 2172 -91 1784 -91 
Q 1150 -91 751 415 
Q 353 922 353 1747 
Q 353 2572 751 3078 
Q 1150 3584 1784 3584 
Q 2172 3584 2448 3432 
Q 2725 3281 2906 2969 
z
M 947 1747 
Q 947 1113 1208 752 
Q 1469 391 1925 391 
Q 2381 391 2643 752 
Q 2906 1113 2906 1747 
Q 2906 2381 2643 2742 
Q 2381 3103 1925 3103 
Q 1469 3103 1208 2742 
Q 947 2381 947 1747 
z
" transform="scale(0.015625)"/>
      </defs>
      <use xlink:href="#DejaVuSans-50"/>
      <use xlink:href="#DejaVuSans-65" x="56.677734"/>
      <use xlink:href="#DejaVuSans-72" x="118.201172"/>
      <use xlink:href="#DejaVuSans-63" x="157.064453"/>
      <use xlink:href="#DejaVuSans-65" x="212.044922"/>
      <use xlink:href="#DejaVuSans-6e" x="273.568359"/>
      <use xlink:href="#DejaVuSans-74" x="336.947266"/>
      <use xlink:href="#DejaVuSans-47" x="376.15625"/>
      <use xlink:href="#DejaVuSans-70" x="453.646484"/>
      <use xlink:href="#DejaVuSans-41" x="517.123047"/>
      <use xlink:href="#DejaVuSans-5f" x="585.53125"/>
      <use xlink:href="#DejaVuSans-74" x="635.53125"/>
      <use xlink:href="#DejaVuSans-72" x="674.740234"/>
      <use xlink:href="#DejaVuSans-61" x="715.853516"/>
      <use xlink:href="#DejaVuSans-6e" x="777.132812"/>
      <use xlink:href="#DejaVuSans-73" x="840.511719"/>
      <use xlink:href="#DejaVuSans-66" x="892.611328"/>
      <use xlink:href="#DejaVuSans-6f" x="927.816406"/>
      <use xlink:href="#DejaVuSans-72" x="988.998047"/>
      <use xlink:href="#DejaVuSans-6d" x="1028.361328"/>
      <use xlink:href="#DejaVuSans-65" x="1125.773438"/>
      <use xlink:href="#DejaVuSans-64" x="1187.296875"/>
     </g>
    </g>
   </g>
   <g id="LineCollection_1">
    <path d="M 94.210784 223.367247 
L 94.210784 201.151078 
" clip-path="url(#p6c7ae8052e)" style="fill: none; stroke: #d3d3d3; stroke-width: 3"/>
    <path d="M 143.278907 265.257496 
L 143.278907 211.702126 
" clip-path="url(#p6c7ae8052e)" style="fill: none; stroke: #d3d3d3; stroke-width: 3"/>
    <path d="M 158.829262 222.682761 
L 158.829262 189.124893 
" clip-path="url(#p6c7ae8052e)" style="fill: none; stroke: #d3d3d3; stroke-width: 3"/>
    <path d="M 235.174238 208.109538 
L 235.174238 147.245459 
" clip-path="url(#p6c7ae8052e)" style="fill: none; stroke: #d3d3d3; stroke-width: 3"/>
    <path d="M 90.047027 217.625274 
L 90.047027 168.506449 
" clip-path="url(#p6c7ae8052e)" style="fill: none; stroke: #d3d3d3; stroke-width: 3"/>
    <path d="M 371.634038 278.377642 
L 371.634038 214.248962 
" clip-path="url(#p6c7ae8052e)" style="fill: none; stroke: #d3d3d3; stroke-width: 3"/>
    <path d="M 235.967335 238.434728 
L 235.967335 180.707297 
" clip-path="url(#p6c7ae8052e)" style="fill: none; stroke: #d3d3d3; stroke-width: 3"/>
    <path d="M 162.823069 204.10799 
L 162.823069 181.841949 
" clip-path="url(#p6c7ae8052e)" style="fill: none; stroke: #d3d3d3; stroke-width: 3"/>
    <path d="M 256.04967 247.075127 
L 256.04967 201.158754 
" clip-path="url(#p6c7ae8052e)" style="fill: none; stroke: #d3d3d3; stroke-width: 3"/>
    <path d="M 127.671901 215.921979 
L 127.671901 85.788236 
" clip-path="url(#p6c7ae8052e)" style="fill: none; stroke: #d3d3d3; stroke-width: 3"/>
    <path d="M 168.809059 185.358994 
L 168.809059 166.00454 
" clip-path="url(#p6c7ae8052e)" style="fill: none; stroke: #d3d3d3; stroke-width: 3"/>
    <path d="M 229.301548 204.326478 
L 229.301548 183.104073 
" clip-path="url(#p6c7ae8052e)" style="fill: none; stroke: #d3d3d3; stroke-width: 3"/>
    <path d="M 305.287742 245.300328 
L 305.287742 211.57905 
" clip-path="url(#p6c7ae8052e)" style="fill: none; stroke: #d3d3d3; stroke-width: 3"/>
    <path d="M 245.220127 261.611778 
L 245.220127 208.068813 
" clip-path="url(#p6c7ae8052e)" style="fill: none; stroke: #d3d3d3; stroke-width: 3"/>
    <path d="M 65.697078 258.629656 
L 65.697078 207.066889 
" clip-path="url(#p6c7ae8052e)" style="fill: none; stroke: #d3d3d3; stroke-width: 3"/>
    <path d="M 197.303882 268.271296 
L 197.303882 202.459526 
" clip-path="url(#p6c7ae8052e)" style="fill: none; stroke: #d3d3d3; stroke-width: 3"/>
    <path d="M 232.993223 195.209033 
L 232.993223 162.759188 
" clip-path="url(#p6c7ae8052e)" style="fill: none; stroke: #d3d3d3; stroke-width: 3"/>
    <path d="M 198.531293 268.443323 
L 198.531293 192.246259 
" clip-path="url(#p6c7ae8052e)" style="fill: none; stroke: #d3d3d3; stroke-width: 3"/>
    <path d="M 180.26175 207.05716 
L 180.26175 158.512222 
" clip-path="url(#p6c7ae8052e)" style="fill: none; stroke: #d3d3d3; stroke-width: 3"/>
    <path d="M 294.590382 184.336784 
L 294.590382 162.034085 
" clip-path="url(#p6c7ae8052e)" style="fill: none; stroke: #d3d3d3; stroke-width: 3"/>
    <path d="M 278.086422 228.331192 
L 278.086422 206.436238 
" clip-path="url(#p6c7ae8052e)" style="fill: none; stroke: #d3d3d3; stroke-width: 3"/>
    <path d="M 228.772817 220.790116 
L 228.772817 179.119115 
" clip-path="url(#p6c7ae8052e)" style="fill: none; stroke: #d3d3d3; stroke-width: 3"/>
    <path d="M 145.120023 164.018555 
L 145.120023 152.982941 
" clip-path="url(#p6c7ae8052e)" style="fill: none; stroke: #d3d3d3; stroke-width: 3"/>
    <path d="M 281.523173 168.200977 
L 281.523173 160.648563 
" clip-path="url(#p6c7ae8052e)" style="fill: none; stroke: #d3d3d3; stroke-width: 3"/>
    <path d="M 98.450073 216.033892 
L 98.450073 185.916959 
" clip-path="url(#p6c7ae8052e)" style="fill: none; stroke: #d3d3d3; stroke-width: 3"/>
    <path d="M 229.575355 226.204103 
L 229.575355 180.335837 
" clip-path="url(#p6c7ae8052e)" style="fill: none; stroke: #d3d3d3; stroke-width: 3"/>
    <path d="M 248.968452 226.144307 
L 248.968452 223.669753 
" clip-path="url(#p6c7ae8052e)" style="fill: none; stroke: #d3d3d3; stroke-width: 3"/>
    <path d="M 362.352921 180.605255 
L 362.352921 171.029563 
" clip-path="url(#p6c7ae8052e)" style="fill: none; stroke: #d3d3d3; stroke-width: 3"/>
    <path d="M 172.774542 256.205268 
L 172.774542 219.997961 
" clip-path="url(#p6c7ae8052e)" style="fill: none; stroke: #d3d3d3; stroke-width: 3"/>
    <path d="M 237.034238 225.622654 
L 237.034238 196.459631 
" clip-path="url(#p6c7ae8052e)" style="fill: none; stroke: #d3d3d3; stroke-width: 3"/>
    <path d="M 239.866726 208.773202 
L 239.866726 189.818098 
" clip-path="url(#p6c7ae8052e)" style="fill: none; stroke: #d3d3d3; stroke-width: 3"/>
    <path d="M 177.391496 204.479815 
L 177.391496 179.201961 
" clip-path="url(#p6c7ae8052e)" style="fill: none; stroke: #d3d3d3; stroke-width: 3"/>
    <path d="M 231.860228 286.878233 
L 231.860228 202.451299 
" clip-path="url(#p6c7ae8052e)" style="fill: none; stroke: #d3d3d3; stroke-width: 3"/>
    <path d="M 224.533527 223.239197 
L 224.533527 219.780992 
" clip-path="url(#p6c7ae8052e)" style="fill: none; stroke: #d3d3d3; stroke-width: 3"/>
    <path d="M 377.317896 282.253071 
L 377.317896 235.181048 
" clip-path="url(#p6c7ae8052e)" style="fill: none; stroke: #d3d3d3; stroke-width: 3"/>
    <path d="M 272.704696 216.787284 
L 272.704696 200.62297 
" clip-path="url(#p6c7ae8052e)" style="fill: none; stroke: #d3d3d3; stroke-width: 3"/>
    <path d="M 304.088656 272.931482 
L 304.088656 222.18715 
" clip-path="url(#p6c7ae8052e)" style="fill: none; stroke: #d3d3d3; stroke-width: 3"/>
    <path d="M 128.795455 168.613323 
L 128.795455 130.506518 
" clip-path="url(#p6c7ae8052e)" style="fill: none; stroke: #d3d3d3; stroke-width: 3"/>
    <path d="M 199.041141 232.788352 
L 199.041141 219.112877 
" clip-path="url(#p6c7ae8052e)" style="fill: none; stroke: #d3d3d3; stroke-width: 3"/>
    <path d="M 256.474543 233.165239 
L 256.474543 196.810074 
" clip-path="url(#p6c7ae8052e)" style="fill: none; stroke: #d3d3d3; stroke-width: 3"/>
    <path d="M 284.402869 157.971041 
L 284.402869 132.782989 
" clip-path="url(#p6c7ae8052e)" style="fill: none; stroke: #d3d3d3; stroke-width: 3"/>
    <path d="M 267.653427 208.658208 
L 267.653427 170.160214 
" clip-path="url(#p6c7ae8052e)" style="fill: none; stroke: #d3d3d3; stroke-width: 3"/>
    <path d="M 310.357895 269.678453 
L 310.357895 238.936086 
" clip-path="url(#p6c7ae8052e)" style="fill: none; stroke: #d3d3d3; stroke-width: 3"/>
    <path d="M 251.149467 236.660807 
L 251.149467 215.991652 
" clip-path="url(#p6c7ae8052e)" style="fill: none; stroke: #d3d3d3; stroke-width: 3"/>
    <path d="M 381.245612 153.579407 
L 381.245612 114.431988 
" clip-path="url(#p6c7ae8052e)" style="fill: none; stroke: #d3d3d3; stroke-width: 3"/>
    <path d="M 374.872515 234.578911 
L 374.872515 202.319221 
" clip-path="url(#p6c7ae8052e)" style="fill: none; stroke: #d3d3d3; stroke-width: 3"/>
    <path d="M 231.775253 161.474358 
L 231.775253 140.073165 
" clip-path="url(#p6c7ae8052e)" style="fill: none; stroke: #d3d3d3; stroke-width: 3"/>
    <path d="M 256.153528 197.433086 
L 256.153528 173.176828 
" clip-path="url(#p6c7ae8052e)" style="fill: none; stroke: #d3d3d3; stroke-width: 3"/>
    <path d="M 109.071901 215.058595 
L 109.071901 207.172771 
" clip-path="url(#p6c7ae8052e)" style="fill: none; stroke: #d3d3d3; stroke-width: 3"/>
    <path d="M 240.76368 172.930609 
L 240.76368 143.452413 
" clip-path="url(#p6c7ae8052e)" style="fill: none; stroke: #d3d3d3; stroke-width: 3"/>
    <path d="M 193.04571 241.605979 
L 193.04571 201.664949 
" clip-path="url(#p6c7ae8052e)" style="fill: none; stroke: #d3d3d3; stroke-width: 3"/>
    <path d="M 206.632207 250.105756 
L 206.632207 208.720175 
" clip-path="url(#p6c7ae8052e)" style="fill: none; stroke: #d3d3d3; stroke-width: 3"/>
    <path d="M 377.22348 244.277235 
L 377.22348 217.837128 
" clip-path="url(#p6c7ae8052e)" style="fill: none; stroke: #d3d3d3; stroke-width: 3"/>
    <path d="M 379.574444 200.669983 
L 379.574444 189.594569 
" clip-path="url(#p6c7ae8052e)" style="fill: none; stroke: #d3d3d3; stroke-width: 3"/>
    <path d="M 323.085204 218.12068 
L 323.085204 185.750693 
" clip-path="url(#p6c7ae8052e)" style="fill: none; stroke: #d3d3d3; stroke-width: 3"/>
    <path d="M 231.728045 208.625521 
L 231.728045 190.997393 
" clip-path="url(#p6c7ae8052e)" style="fill: none; stroke: #d3d3d3; stroke-width: 3"/>
    <path d="M 344.319418 258.939947 
L 344.319418 217.833211 
" clip-path="url(#p6c7ae8052e)" style="fill: none; stroke: #d3d3d3; stroke-width: 3"/>
    <path d="M 236.250584 208.479004 
L 236.250584 186.379965 
" clip-path="url(#p6c7ae8052e)" style="fill: none; stroke: #d3d3d3; stroke-width: 3"/>
    <path d="M 228.7917 257.13958 
L 228.7917 206.814364 
" clip-path="url(#p6c7ae8052e)" style="fill: none; stroke: #d3d3d3; stroke-width: 3"/>
    <path d="M 267.020838 209.520901 
L 267.020838 195.172804 
" clip-path="url(#p6c7ae8052e)" style="fill: none; stroke: #d3d3d3; stroke-width: 3"/>
    <path d="M 138.964084 229.414286 
L 138.964084 213.094007 
" clip-path="url(#p6c7ae8052e)" style="fill: none; stroke: #d3d3d3; stroke-width: 3"/>
    <path d="M 212.523781 206.610908 
L 212.523781 191.729636 
" clip-path="url(#p6c7ae8052e)" style="fill: none; stroke: #d3d3d3; stroke-width: 3"/>
    <path d="M 339.834646 192.389374 
L 339.834646 180.6423 
" clip-path="url(#p6c7ae8052e)" style="fill: none; stroke: #d3d3d3; stroke-width: 3"/>
    <path d="M 391.470891 277.222252 
L 391.470891 240.541834 
" clip-path="url(#p6c7ae8052e)" style="fill: none; stroke: #d3d3d3; stroke-width: 3"/>
    <path d="M 137.746115 209.938851 
L 137.746115 195.443483 
" clip-path="url(#p6c7ae8052e)" style="fill: none; stroke: #d3d3d3; stroke-width: 3"/>
    <path d="M 241.991091 217.008393 
L 241.991091 183.896887 
" clip-path="url(#p6c7ae8052e)" style="fill: none; stroke: #d3d3d3; stroke-width: 3"/>
    <path d="M 294.920838 234.631785 
L 294.920838 204.222239 
" clip-path="url(#p6c7ae8052e)" style="fill: none; stroke: #d3d3d3; stroke-width: 3"/>
    <path d="M 423.213633 237.718922 
L 423.213633 210.564927 
" clip-path="url(#p6c7ae8052e)" style="fill: none; stroke: #d3d3d3; stroke-width: 3"/>
    <path d="M 259.524188 196.100674 
L 259.524188 175.834617 
" clip-path="url(#p6c7ae8052e)" style="fill: none; stroke: #d3d3d3; stroke-width: 3"/>
    <path d="M 118.003678 222.643419 
L 118.003678 186.48107 
" clip-path="url(#p6c7ae8052e)" style="fill: none; stroke: #d3d3d3; stroke-width: 3"/>
    <path d="M 179.978501 221.396924 
L 179.978501 200.570624 
" clip-path="url(#p6c7ae8052e)" style="fill: none; stroke: #d3d3d3; stroke-width: 3"/>
    <path d="M 420.456678 244.157698 
L 420.456678 227.69 
" clip-path="url(#p6c7ae8052e)" style="fill: none; stroke: #d3d3d3; stroke-width: 3"/>
    <path d="M 255.99302 255.851392 
L 255.99302 207.342544 
" clip-path="url(#p6c7ae8052e)" style="fill: none; stroke: #d3d3d3; stroke-width: 3"/>
    <path d="M 348.672007 231.257113 
L 348.672007 203.797387 
" clip-path="url(#p6c7ae8052e)" style="fill: none; stroke: #d3d3d3; stroke-width: 3"/>
    <path d="M 355.19617 246.240479 
L 355.19617 215.072544 
" clip-path="url(#p6c7ae8052e)" style="fill: none; stroke: #d3d3d3; stroke-width: 3"/>
    <path d="M 293.344087 235.635464 
L 293.344087 196.956423 
" clip-path="url(#p6c7ae8052e)" style="fill: none; stroke: #d3d3d3; stroke-width: 3"/>
    <path d="M 322.197692 233.507484 
L 322.197692 221.985359 
" clip-path="url(#p6c7ae8052e)" style="fill: none; stroke: #d3d3d3; stroke-width: 3"/>
    <path d="M 340.023479 245.792078 
L 340.023479 205.056733 
" clip-path="url(#p6c7ae8052e)" style="fill: none; stroke: #d3d3d3; stroke-width: 3"/>
    <path d="M 224.25972 155.116625 
L 224.25972 82.01234 
" clip-path="url(#p6c7ae8052e)" style="fill: none; stroke: #d3d3d3; stroke-width: 3"/>
    <path d="M 262.772107 207.502891 
L 262.772107 186.323899 
" clip-path="url(#p6c7ae8052e)" style="fill: none; stroke: #d3d3d3; stroke-width: 3"/>
    <path d="M 330.355255 190.826955 
L 330.355255 158.187752 
" clip-path="url(#p6c7ae8052e)" style="fill: none; stroke: #d3d3d3; stroke-width: 3"/>
    <path d="M 200.674542 182.060342 
L 200.674542 103.464561 
" clip-path="url(#p6c7ae8052e)" style="fill: none; stroke: #d3d3d3; stroke-width: 3"/>
    <path d="M 295.591194 218.049693 
L 295.591194 204.795957 
" clip-path="url(#p6c7ae8052e)" style="fill: none; stroke: #d3d3d3; stroke-width: 3"/>
    <path d="M 200.381852 239.265552 
L 200.381852 204.265207 
" clip-path="url(#p6c7ae8052e)" style="fill: none; stroke: #d3d3d3; stroke-width: 3"/>
    <path d="M 293.344087 83.78978 
L 293.344087 58.113929 
" clip-path="url(#p6c7ae8052e)" style="fill: none; stroke: #d3d3d3; stroke-width: 3"/>
   </g>
   <g id="line2d_15">
    <path d="M 94.210784 194.720735 
L 143.278907 197.658744 
L 158.829262 198.589839 
L 235.174238 203.161079 
L 90.047027 194.471426 
L 371.634038 211.331762 
L 235.967335 203.208567 
L 162.823069 198.828973 
L 256.04967 204.411019 
L 127.671901 196.724257 
L 168.809059 199.18739 
L 229.301548 202.809445 
L 305.287742 207.359203 
L 245.220127 203.762588 
L 65.697078 193.013446 
L 197.303882 200.89355 
L 232.993223 203.030489 
L 198.531293 200.967042 
L 180.26175 199.873133 
L 294.590382 206.718687 
L 278.086422 205.730494 
L 228.772817 202.777787 
L 145.120023 197.768983 
L 281.523173 205.936273 
L 98.450073 194.974568 
L 229.575355 202.82584 
L 248.968452 203.987023 
L 362.352921 210.776045 
L 172.774542 199.424828 
L 237.034238 203.272449 
L 239.866726 203.442047 
L 177.391496 199.701273 
L 231.860228 202.962649 
L 224.533527 202.523955 
L 377.317896 211.672089 
L 272.704696 205.408257 
L 304.088656 207.287407 
L 128.795455 196.791531 
L 199.041141 200.99757 
L 256.474543 204.436459 
L 284.402869 206.108698 
L 267.653427 205.105807 
L 310.357895 207.662785 
L 251.149467 204.117614 
L 381.245612 211.907266 
L 374.872515 211.525669 
L 231.775253 202.957561 
L 256.153528 204.417238 
L 109.071901 195.610561 
L 240.76368 203.495753 
L 193.04571 200.638587 
L 206.632207 201.452093 
L 377.22348 211.666436 
L 379.574444 211.807203 
L 323.085204 208.424846 
L 231.728045 202.954735 
L 344.319418 209.696269 
L 236.250584 203.225527 
L 228.7917 202.778918 
L 267.020838 205.06793 
L 138.964084 197.400389 
L 212.523781 201.804858 
L 339.834646 209.427738 
L 391.470891 212.519516 
L 137.746115 197.327462 
L 241.991091 203.569246 
L 294.920838 206.738474 
L 423.213633 214.420148 
L 259.524188 204.61906 
L 118.003678 196.145361 
L 179.978501 199.856173 
L 420.456678 214.255072 
L 255.99302 204.407627 
L 348.672007 209.956885 
L 355.19617 210.347526 
L 293.344087 206.644064 
L 322.197692 208.371706 
L 340.023479 209.439044 
L 224.25972 202.50756 
L 262.772107 204.813532 
L 330.355255 208.860149 
L 200.674542 201.095372 
L 295.591194 206.778612 
L 200.381852 201.077846 
L 293.344087 206.644064 
" clip-path="url(#p6c7ae8052e)" style="fill: none; stroke: #1f77b4; stroke-width: 1.5; stroke-linecap: square"/>
   </g>
   <g id="line2d_16">
    <defs>
     <path id="m79c9e1062a" d="M 0 3 
C 0.795609 3 1.55874 2.683901 2.12132 2.12132 
C 2.683901 1.55874 3 0.795609 3 0 
C 3 -0.795609 2.683901 -1.55874 2.12132 -2.12132 
C 1.55874 -2.683901 0.795609 -3 0 -3 
C -0.795609 -3 -1.55874 -2.683901 -2.12132 -2.12132 
C -2.683901 -1.55874 -3 -0.795609 -3 0 
C -3 0.795609 -2.683901 1.55874 -2.12132 2.12132 
C -1.55874 2.683901 -0.795609 3 0 3 
z
" style="stroke: #000000"/>
    </defs>
    <g clip-path="url(#p6c7ae8052e)">
     <use xlink:href="#m79c9e1062a" x="94.210784" y="212.259162" style="stroke: #000000"/>
     <use xlink:href="#m79c9e1062a" x="143.278907" y="238.479811" style="stroke: #000000"/>
     <use xlink:href="#m79c9e1062a" x="158.829262" y="205.903827" style="stroke: #000000"/>
     <use xlink:href="#m79c9e1062a" x="235.174238" y="177.677499" style="stroke: #000000"/>
     <use xlink:href="#m79c9e1062a" x="90.047027" y="193.065861" style="stroke: #000000"/>
     <use xlink:href="#m79c9e1062a" x="371.634038" y="246.313302" style="stroke: #000000"/>
     <use xlink:href="#m79c9e1062a" x="235.967335" y="209.571013" style="stroke: #000000"/>
     <use xlink:href="#m79c9e1062a" x="162.823069" y="192.97497" style="stroke: #000000"/>
     <use xlink:href="#m79c9e1062a" x="256.04967" y="224.116941" style="stroke: #000000"/>
     <use xlink:href="#m79c9e1062a" x="127.671901" y="150.855108" style="stroke: #000000"/>
     <use xlink:href="#m79c9e1062a" x="168.809059" y="175.681767" style="stroke: #000000"/>
     <use xlink:href="#m79c9e1062a" x="229.301548" y="193.715275" style="stroke: #000000"/>
     <use xlink:href="#m79c9e1062a" x="305.287742" y="228.439689" style="stroke: #000000"/>
     <use xlink:href="#m79c9e1062a" x="245.220127" y="234.840295" style="stroke: #000000"/>
     <use xlink:href="#m79c9e1062a" x="65.697078" y="232.848272" style="stroke: #000000"/>
     <use xlink:href="#m79c9e1062a" x="197.303882" y="235.365411" style="stroke: #000000"/>
     <use xlink:href="#m79c9e1062a" x="232.993223" y="178.984111" style="stroke: #000000"/>
     <use xlink:href="#m79c9e1062a" x="198.531293" y="230.344791" style="stroke: #000000"/>
     <use xlink:href="#m79c9e1062a" x="180.26175" y="182.784691" style="stroke: #000000"/>
     <use xlink:href="#m79c9e1062a" x="294.590382" y="173.185434" style="stroke: #000000"/>
     <use xlink:href="#m79c9e1062a" x="278.086422" y="217.383715" style="stroke: #000000"/>
     <use xlink:href="#m79c9e1062a" x="228.772817" y="199.954615" style="stroke: #000000"/>
     <use xlink:href="#m79c9e1062a" x="145.120023" y="158.500748" style="stroke: #000000"/>
     <use xlink:href="#m79c9e1062a" x="281.523173" y="164.42477" style="stroke: #000000"/>
     <use xlink:href="#m79c9e1062a" x="98.450073" y="200.975425" style="stroke: #000000"/>
     <use xlink:href="#m79c9e1062a" x="229.575355" y="203.26997" style="stroke: #000000"/>
     <use xlink:href="#m79c9e1062a" x="248.968452" y="224.90703" style="stroke: #000000"/>
     <use xlink:href="#m79c9e1062a" x="362.352921" y="175.817409" style="stroke: #000000"/>
     <use xlink:href="#m79c9e1062a" x="172.774542" y="238.101615" style="stroke: #000000"/>
     <use xlink:href="#m79c9e1062a" x="237.034238" y="211.041142" style="stroke: #000000"/>
     <use xlink:href="#m79c9e1062a" x="239.866726" y="199.29565" style="stroke: #000000"/>
     <use xlink:href="#m79c9e1062a" x="177.391496" y="191.840888" style="stroke: #000000"/>
     <use xlink:href="#m79c9e1062a" x="231.860228" y="244.664766" style="stroke: #000000"/>
     <use xlink:href="#m79c9e1062a" x="224.533527" y="221.510095" style="stroke: #000000"/>
     <use xlink:href="#m79c9e1062a" x="377.317896" y="258.71706" style="stroke: #000000"/>
     <use xlink:href="#m79c9e1062a" x="272.704696" y="208.705127" style="stroke: #000000"/>
     <use xlink:href="#m79c9e1062a" x="304.088656" y="247.559316" style="stroke: #000000"/>
     <use xlink:href="#m79c9e1062a" x="128.795455" y="149.559921" style="stroke: #000000"/>
     <use xlink:href="#m79c9e1062a" x="199.041141" y="225.950615" style="stroke: #000000"/>
     <use xlink:href="#m79c9e1062a" x="256.474543" y="214.987656" style="stroke: #000000"/>
     <use xlink:href="#m79c9e1062a" x="284.402869" y="145.377015" style="stroke: #000000"/>
     <use xlink:href="#m79c9e1062a" x="267.653427" y="189.409211" style="stroke: #000000"/>
     <use xlink:href="#m79c9e1062a" x="310.357895" y="254.30727" style="stroke: #000000"/>
     <use xlink:href="#m79c9e1062a" x="251.149467" y="226.32623" style="stroke: #000000"/>
     <use xlink:href="#m79c9e1062a" x="381.245612" y="134.005698" style="stroke: #000000"/>
     <use xlink:href="#m79c9e1062a" x="374.872515" y="218.449066" style="stroke: #000000"/>
     <use xlink:href="#m79c9e1062a" x="231.775253" y="150.773762" style="stroke: #000000"/>
     <use xlink:href="#m79c9e1062a" x="256.153528" y="185.304957" style="stroke: #000000"/>
     <use xlink:href="#m79c9e1062a" x="109.071901" y="211.115683" style="stroke: #000000"/>
     <use xlink:href="#m79c9e1062a" x="240.76368" y="158.191511" style="stroke: #000000"/>
     <use xlink:href="#m79c9e1062a" x="193.04571" y="221.635464" style="stroke: #000000"/>
     <use xlink:href="#m79c9e1062a" x="206.632207" y="229.412966" style="stroke: #000000"/>
     <use xlink:href="#m79c9e1062a" x="377.22348" y="231.057182" style="stroke: #000000"/>
     <use xlink:href="#m79c9e1062a" x="379.574444" y="195.132276" style="stroke: #000000"/>
     <use xlink:href="#m79c9e1062a" x="323.085204" y="201.935686" style="stroke: #000000"/>
     <use xlink:href="#m79c9e1062a" x="231.728045" y="199.811457" style="stroke: #000000"/>
     <use xlink:href="#m79c9e1062a" x="344.319418" y="238.386579" style="stroke: #000000"/>
     <use xlink:href="#m79c9e1062a" x="236.250584" y="197.429484" style="stroke: #000000"/>
     <use xlink:href="#m79c9e1062a" x="228.7917" y="231.976972" style="stroke: #000000"/>
     <use xlink:href="#m79c9e1062a" x="267.020838" y="202.346852" style="stroke: #000000"/>
     <use xlink:href="#m79c9e1062a" x="138.964084" y="221.254146" style="stroke: #000000"/>
     <use xlink:href="#m79c9e1062a" x="212.523781" y="199.170272" style="stroke: #000000"/>
     <use xlink:href="#m79c9e1062a" x="339.834646" y="186.515837" style="stroke: #000000"/>
     <use xlink:href="#m79c9e1062a" x="391.470891" y="258.882043" style="stroke: #000000"/>
     <use xlink:href="#m79c9e1062a" x="137.746115" y="202.691167" style="stroke: #000000"/>
     <use xlink:href="#m79c9e1062a" x="241.991091" y="200.45264" style="stroke: #000000"/>
     <use xlink:href="#m79c9e1062a" x="294.920838" y="219.427012" style="stroke: #000000"/>
     <use xlink:href="#m79c9e1062a" x="423.213633" y="224.141924" style="stroke: #000000"/>
     <use xlink:href="#m79c9e1062a" x="259.524188" y="185.967646" style="stroke: #000000"/>
     <use xlink:href="#m79c9e1062a" x="118.003678" y="204.562244" style="stroke: #000000"/>
     <use xlink:href="#m79c9e1062a" x="179.978501" y="210.983774" style="stroke: #000000"/>
     <use xlink:href="#m79c9e1062a" x="420.456678" y="235.923849" style="stroke: #000000"/>
     <use xlink:href="#m79c9e1062a" x="255.99302" y="231.596968" style="stroke: #000000"/>
     <use xlink:href="#m79c9e1062a" x="348.672007" y="217.52725" style="stroke: #000000"/>
     <use xlink:href="#m79c9e1062a" x="355.19617" y="230.656512" style="stroke: #000000"/>
     <use xlink:href="#m79c9e1062a" x="293.344087" y="216.295943" style="stroke: #000000"/>
     <use xlink:href="#m79c9e1062a" x="322.197692" y="227.746422" style="stroke: #000000"/>
     <use xlink:href="#m79c9e1062a" x="340.023479" y="225.424406" style="stroke: #000000"/>
     <use xlink:href="#m79c9e1062a" x="224.25972" y="118.564482" style="stroke: #000000"/>
     <use xlink:href="#m79c9e1062a" x="262.772107" y="196.913395" style="stroke: #000000"/>
     <use xlink:href="#m79c9e1062a" x="330.355255" y="174.507354" style="stroke: #000000"/>
     <use xlink:href="#m79c9e1062a" x="200.674542" y="142.762452" style="stroke: #000000"/>
     <use xlink:href="#m79c9e1062a" x="295.591194" y="211.422825" style="stroke: #000000"/>
     <use xlink:href="#m79c9e1062a" x="200.381852" y="221.765379" style="stroke: #000000"/>
     <use xlink:href="#m79c9e1062a" x="293.344087" y="70.951855" style="stroke: #000000"/>
    </g>
   </g>
   <g id="patch_3">
    <path d="M 47.82125 303.64 
L 47.82125 46.675714 
" style="fill: none; stroke: #000000; stroke-width: 0.8; stroke-linejoin: miter; stroke-linecap: square"/>
   </g>
   <g id="patch_4">
    <path d="M 441.08946 303.64 
L 441.08946 46.675714 
" style="fill: none; stroke: #000000; stroke-width: 0.8; stroke-linejoin: miter; stroke-linecap: square"/>
   </g>
   <g id="patch_5">
    <path d="M 47.82125 303.64 
L 441.08946 303.64 
" style="fill: none; stroke: #000000; stroke-width: 0.8; stroke-linejoin: miter; stroke-linecap: square"/>
   </g>
   <g id="patch_6">
    <path d="M 47.82125 46.675714 
L 441.08946 46.675714 
" style="fill: none; stroke: #000000; stroke-width: 0.8; stroke-linejoin: miter; stroke-linecap: square"/>
   </g>
   <g id="text_17">
    <!-- y = -0.00x + 0.23 -->
    <g transform="translate(42.423852 18.599375)scale(0.1 -0.1)">
     <defs>
      <path id="DejaVuSans-79" d="M 2059 -325 
Q 1816 -950 1584 -1140 
Q 1353 -1331 966 -1331 
L 506 -1331 
L 506 -850 
L 844 -850 
Q 1081 -850 1212 -737 
Q 1344 -625 1503 -206 
L 1606 56 
L 191 3500 
L 800 3500 
L 1894 763 
L 2988 3500 
L 3597 3500 
L 2059 -325 
z
" transform="scale(0.015625)"/>
      <path id="DejaVuSans-20" transform="scale(0.015625)"/>
      <path id="DejaVuSans-3d" d="M 678 2906 
L 4684 2906 
L 4684 2381 
L 678 2381 
L 678 2906 
z
M 678 1631 
L 4684 1631 
L 4684 1100 
L 678 1100 
L 678 1631 
z
" transform="scale(0.015625)"/>
      <path id="DejaVuSans-2d" d="M 313 2009 
L 1997 2009 
L 1997 1497 
L 313 1497 
L 313 2009 
z
" transform="scale(0.015625)"/>
      <path id="DejaVuSans-78" d="M 3513 3500 
L 2247 1797 
L 3578 0 
L 2900 0 
L 1881 1375 
L 863 0 
L 184 0 
L 1544 1831 
L 300 3500 
L 978 3500 
L 1906 2253 
L 2834 3500 
L 3513 3500 
z
" transform="scale(0.015625)"/>
      <path id="DejaVuSans-2b" d="M 2944 4013 
L 2944 2272 
L 4684 2272 
L 4684 1741 
L 2944 1741 
L 2944 0 
L 2419 0 
L 2419 1741 
L 678 1741 
L 678 2272 
L 2419 2272 
L 2419 4013 
L 2944 4013 
z
" transform="scale(0.015625)"/>
      <path id="DejaVuSans-33" d="M 2597 2516 
Q 3050 2419 3304 2112 
Q 3559 1806 3559 1356 
Q 3559 666 3084 287 
Q 2609 -91 1734 -91 
Q 1441 -91 1130 -33 
Q 819 25 488 141 
L 488 750 
Q 750 597 1062 519 
Q 1375 441 1716 441 
Q 2309 441 2620 675 
Q 2931 909 2931 1356 
Q 2931 1769 2642 2001 
Q 2353 2234 1838 2234 
L 1294 2234 
L 1294 2753 
L 1863 2753 
Q 2328 2753 2575 2939 
Q 2822 3125 2822 3475 
Q 2822 3834 2567 4026 
Q 2313 4219 1838 4219 
Q 1578 4219 1281 4162 
Q 984 4106 628 3988 
L 628 4550 
Q 988 4650 1302 4700 
Q 1616 4750 1894 4750 
Q 2613 4750 3031 4423 
Q 3450 4097 3450 3541 
Q 3450 3153 3228 2886 
Q 3006 2619 2597 2516 
z
" transform="scale(0.015625)"/>
     </defs>
     <use xlink:href="#DejaVuSans-79"/>
     <use xlink:href="#DejaVuSans-20" x="59.179688"/>
     <use xlink:href="#DejaVuSans-3d" x="90.966797"/>
     <use xlink:href="#DejaVuSans-20" x="174.755859"/>
     <use xlink:href="#DejaVuSans-2d" x="206.542969"/>
     <use xlink:href="#DejaVuSans-30" x="242.626953"/>
     <use xlink:href="#DejaVuSans-2e" x="306.25"/>
     <use xlink:href="#DejaVuSans-30" x="338.037109"/>
     <use xlink:href="#DejaVuSans-30" x="401.660156"/>
     <use xlink:href="#DejaVuSans-78" x="465.283203"/>
     <use xlink:href="#DejaVuSans-20" x="524.462891"/>
     <use xlink:href="#DejaVuSans-2b" x="556.25"/>
     <use xlink:href="#DejaVuSans-20" x="640.039062"/>
     <use xlink:href="#DejaVuSans-30" x="671.826172"/>
     <use xlink:href="#DejaVuSans-2e" x="735.449219"/>
     <use xlink:href="#DejaVuSans-32" x="767.236328"/>
     <use xlink:href="#DejaVuSans-33" x="830.859375"/>
    </g>
   </g>
   <g id="text_18">
    <!-- r^2 = 0.02 -->
    <g transform="translate(59.220727 26.308304)scale(0.1 -0.1)">
     <defs>
      <path id="DejaVuSans-5e" d="M 2988 4666 
L 4684 2925 
L 4056 2925 
L 2681 4159 
L 1306 2925 
L 678 2925 
L 2375 4666 
L 2988 4666 
z
" transform="scale(0.015625)"/>
     </defs>
     <use xlink:href="#DejaVuSans-72"/>
     <use xlink:href="#DejaVuSans-5e" x="41.113281"/>
     <use xlink:href="#DejaVuSans-32" x="124.902344"/>
     <use xlink:href="#DejaVuSans-20" x="188.525391"/>
     <use xlink:href="#DejaVuSans-3d" x="220.3125"/>
     <use xlink:href="#DejaVuSans-20" x="304.101562"/>
     <use xlink:href="#DejaVuSans-30" x="335.888672"/>
     <use xlink:href="#DejaVuSans-2e" x="399.511719"/>
     <use xlink:href="#DejaVuSans-30" x="431.298828"/>
     <use xlink:href="#DejaVuSans-32" x="494.921875"/>
    </g>
   </g>
   <g id="text_19">
    <!-- n = 85 -->
    <g transform="translate(70.248852 34.017232)scale(0.1 -0.1)">
     <use xlink:href="#DejaVuSans-6e"/>
     <use xlink:href="#DejaVuSans-20" x="63.378906"/>
     <use xlink:href="#DejaVuSans-3d" x="95.166016"/>
     <use xlink:href="#DejaVuSans-20" x="178.955078"/>
     <use xlink:href="#DejaVuSans-38" x="210.742188"/>
     <use xlink:href="#DejaVuSans-35" x="274.365234"/>
    </g>
   </g>
   <g id="text_20">
    <!-- SasaDiff vs PercentGpA_transformed -->
    <g transform="translate(134.119105 40.675714)scale(0.12 -0.12)">
     <defs>
      <path id="DejaVuSans-76" d="M 191 3500 
L 800 3500 
L 1894 563 
L 2988 3500 
L 3597 3500 
L 2284 0 
L 1503 0 
L 191 3500 
z
" transform="scale(0.015625)"/>
     </defs>
     <use xlink:href="#DejaVuSans-53"/>
     <use xlink:href="#DejaVuSans-61" x="63.476562"/>
     <use xlink:href="#DejaVuSans-73" x="124.755859"/>
     <use xlink:href="#DejaVuSans-61" x="176.855469"/>
     <use xlink:href="#DejaVuSans-44" x="238.134766"/>
     <use xlink:href="#DejaVuSans-69" x="315.136719"/>
     <use xlink:href="#DejaVuSans-66" x="342.919922"/>
     <use xlink:href="#DejaVuSans-66" x="378.125"/>
     <use xlink:href="#DejaVuSans-20" x="413.330078"/>
     <use xlink:href="#DejaVuSans-76" x="445.117188"/>
     <use xlink:href="#DejaVuSans-73" x="504.296875"/>
     <use xlink:href="#DejaVuSans-20" x="556.396484"/>
     <use xlink:href="#DejaVuSans-50" x="588.183594"/>
     <use xlink:href="#DejaVuSans-65" x="644.861328"/>
     <use xlink:href="#DejaVuSans-72" x="706.384766"/>
     <use xlink:href="#DejaVuSans-63" x="745.248047"/>
     <use xlink:href="#DejaVuSans-65" x="800.228516"/>
     <use xlink:href="#DejaVuSans-6e" x="861.751953"/>
     <use xlink:href="#DejaVuSans-74" x="925.130859"/>
     <use xlink:href="#DejaVuSans-47" x="964.339844"/>
     <use xlink:href="#DejaVuSans-70" x="1041.830078"/>
     <use xlink:href="#DejaVuSans-41" x="1105.306641"/>
     <use xlink:href="#DejaVuSans-5f" x="1173.714844"/>
     <use xlink:href="#DejaVuSans-74" x="1223.714844"/>
     <use xlink:href="#DejaVuSans-72" x="1262.923828"/>
     <use xlink:href="#DejaVuSans-61" x="1304.037109"/>
     <use xlink:href="#DejaVuSans-6e" x="1365.316406"/>
     <use xlink:href="#DejaVuSans-73" x="1428.695312"/>
     <use xlink:href="#DejaVuSans-66" x="1480.794922"/>
     <use xlink:href="#DejaVuSans-6f" x="1516"/>
     <use xlink:href="#DejaVuSans-72" x="1577.181641"/>
     <use xlink:href="#DejaVuSans-6d" x="1616.544922"/>
     <use xlink:href="#DejaVuSans-65" x="1713.957031"/>
     <use xlink:href="#DejaVuSans-64" x="1775.480469"/>
    </g>
   </g>
  </g>
 </g>
 <defs>
  <clipPath id="p6c7ae8052e">
   <rect x="47.82125" y="46.675714" width="393.26821" height="256.964286"/>
  </clipPath>
 </defs>
</svg>
