<?xml version="1.0" encoding="utf-8" standalone="no"?>
<!DOCTYPE svg PUBLIC "-//W3C//DTD SVG 1.1//EN"
  "http://www.w3.org/Graphics/SVG/1.1/DTD/svg11.dtd">
<svg xmlns:xlink="http://www.w3.org/1999/xlink" width="460.8pt" height="345.6pt" viewBox="0 0 460.8 345.6" xmlns="http://www.w3.org/2000/svg" version="1.1">
 <metadata>
  <rdf:RDF xmlns:dc="http://purl.org/dc/elements/1.1/" xmlns:cc="http://creativecommons.org/ns#" xmlns:rdf="http://www.w3.org/1999/02/22-rdf-syntax-ns#">
   <cc:Work>
    <dc:type rdf:resource="http://purl.org/dc/dcmitype/StillImage"/>
    <dc:date>2024-02-24T17:24:57.414194</dc:date>
    <dc:format>image/svg+xml</dc:format>
    <dc:creator>
     <cc:Agent>
      <dc:title>Matplotlib v3.5.3, https://matplotlib.org/</dc:title>
     </cc:Agent>
    </dc:creator>
   </cc:Work>
  </rdf:RDF>
 </metadata>
 <defs>
  <style type="text/css">*{stroke-linejoin: round; stroke-linecap: butt}</style>
 </defs>
 <g id="figure_1">
  <g id="patch_1">
   <path d="M 0 345.6 
L 460.8 345.6 
L 460.8 0 
L 0 0 
z
" style="fill: #ffffff"/>
  </g>
  <g id="axes_1">
   <g id="patch_2">
    <path d="M 47.82125 303.64 
L 450 303.64 
L 450 46.675714 
L 47.82125 46.675714 
z
" style="fill: #ffffff"/>
   </g>
   <g id="PathCollection_1">
    <defs>
     <path id="mf0a2362967" d="M 0 3 
C 0.795609 3 1.55874 2.683901 2.12132 2.12132 
C 2.683901 1.55874 3 0.795609 3 0 
C 3 -0.795609 2.683901 -1.55874 2.12132 -2.12132 
C 1.55874 -2.683901 0.795609 -3 0 -3 
C -0.795609 -3 -1.55874 -2.683901 -2.12132 -2.12132 
C -2.683901 -1.55874 -3 -0.795609 -3 0 
C -3 0.795609 -2.683901 1.55874 -2.12132 2.12132 
C -1.55874 2.683901 -0.795609 3 0 3 
z
" style="stroke: #1f77b4"/>
    </defs>
    <g clip-path="url(#pe972f62dd9)">
     <use xlink:href="#mf0a2362967" x="152.235262" y="212.259162" style="fill: #1f77b4; stroke: #1f77b4"/>
     <use xlink:href="#mf0a2362967" x="155.411715" y="238.479811" style="fill: #1f77b4; stroke: #1f77b4"/>
     <use xlink:href="#mf0a2362967" x="129.340091" y="205.903827" style="fill: #1f77b4; stroke: #1f77b4"/>
     <use xlink:href="#mf0a2362967" x="259.239598" y="177.677499" style="fill: #1f77b4; stroke: #1f77b4"/>
     <use xlink:href="#mf0a2362967" x="180.879187" y="193.065861" style="fill: #1f77b4; stroke: #1f77b4"/>
     <use xlink:href="#mf0a2362967" x="130.517934" y="246.313302" style="fill: #1f77b4; stroke: #1f77b4"/>
     <use xlink:href="#mf0a2362967" x="265.831119" y="209.571013" style="fill: #1f77b4; stroke: #1f77b4"/>
     <use xlink:href="#mf0a2362967" x="172.549671" y="192.97497" style="fill: #1f77b4; stroke: #1f77b4"/>
     <use xlink:href="#mf0a2362967" x="214.376638" y="224.116941" style="fill: #1f77b4; stroke: #1f77b4"/>
     <use xlink:href="#mf0a2362967" x="163.081234" y="150.855108" style="fill: #1f77b4; stroke: #1f77b4"/>
     <use xlink:href="#mf0a2362967" x="339.253389" y="175.681767" style="fill: #1f77b4; stroke: #1f77b4"/>
     <use xlink:href="#mf0a2362967" x="225.750609" y="193.715275" style="fill: #1f77b4; stroke: #1f77b4"/>
     <use xlink:href="#mf0a2362967" x="173.725821" y="228.439689" style="fill: #1f77b4; stroke: #1f77b4"/>
     <use xlink:href="#mf0a2362967" x="125.303948" y="234.840295" style="fill: #1f77b4; stroke: #1f77b4"/>
     <use xlink:href="#mf0a2362967" x="192.820079" y="232.848272" style="fill: #1f77b4; stroke: #1f77b4"/>
     <use xlink:href="#mf0a2362967" x="184.524408" y="235.365411" style="fill: #1f77b4; stroke: #1f77b4"/>
     <use xlink:href="#mf0a2362967" x="293.667816" y="178.984111" style="fill: #1f77b4; stroke: #1f77b4"/>
     <use xlink:href="#mf0a2362967" x="113.00598" y="230.344791" style="fill: #1f77b4; stroke: #1f77b4"/>
     <use xlink:href="#mf0a2362967" x="151.10988" y="182.784691" style="fill: #1f77b4; stroke: #1f77b4"/>
     <use xlink:href="#mf0a2362967" x="196.10484" y="173.185434" style="fill: #1f77b4; stroke: #1f77b4"/>
     <use xlink:href="#mf0a2362967" x="172.290748" y="217.383715" style="fill: #1f77b4; stroke: #1f77b4"/>
     <use xlink:href="#mf0a2362967" x="293.243048" y="199.954615" style="fill: #1f77b4; stroke: #1f77b4"/>
     <use xlink:href="#mf0a2362967" x="139.204527" y="158.500748" style="fill: #1f77b4; stroke: #1f77b4"/>
     <use xlink:href="#mf0a2362967" x="128.497324" y="164.42477" style="fill: #1f77b4; stroke: #1f77b4"/>
     <use xlink:href="#mf0a2362967" x="193.970845" y="200.975425" style="fill: #1f77b4; stroke: #1f77b4"/>
     <use xlink:href="#mf0a2362967" x="295.813656" y="203.26997" style="fill: #1f77b4; stroke: #1f77b4"/>
     <use xlink:href="#mf0a2362967" x="210.667109" y="224.90703" style="fill: #1f77b4; stroke: #1f77b4"/>
     <use xlink:href="#mf0a2362967" x="263.835894" y="175.817409" style="fill: #1f77b4; stroke: #1f77b4"/>
     <use xlink:href="#mf0a2362967" x="331.41464" y="238.101615" style="fill: #1f77b4; stroke: #1f77b4"/>
     <use xlink:href="#mf0a2362967" x="226.385222" y="211.041142" style="fill: #1f77b4; stroke: #1f77b4"/>
     <use xlink:href="#mf0a2362967" x="295.612272" y="199.29565" style="fill: #1f77b4; stroke: #1f77b4"/>
     <use xlink:href="#mf0a2362967" x="364.72763" y="191.840888" style="fill: #1f77b4; stroke: #1f77b4"/>
     <use xlink:href="#mf0a2362967" x="66.102102" y="244.664766" style="fill: #1f77b4; stroke: #1f77b4"/>
     <use xlink:href="#mf0a2362967" x="193.375155" y="221.510095" style="fill: #1f77b4; stroke: #1f77b4"/>
     <use xlink:href="#mf0a2362967" x="230.876595" y="258.71706" style="fill: #1f77b4; stroke: #1f77b4"/>
     <use xlink:href="#mf0a2362967" x="228.084295" y="208.705127" style="fill: #1f77b4; stroke: #1f77b4"/>
     <use xlink:href="#mf0a2362967" x="231.514593" y="247.559316" style="fill: #1f77b4; stroke: #1f77b4"/>
     <use xlink:href="#mf0a2362967" x="160.258472" y="149.559921" style="fill: #1f77b4; stroke: #1f77b4"/>
     <use xlink:href="#mf0a2362967" x="170.845521" y="225.950615" style="fill: #1f77b4; stroke: #1f77b4"/>
     <use xlink:href="#mf0a2362967" x="291.389976" y="214.987656" style="fill: #1f77b4; stroke: #1f77b4"/>
     <use xlink:href="#mf0a2362967" x="279.833237" y="145.377015" style="fill: #1f77b4; stroke: #1f77b4"/>
     <use xlink:href="#mf0a2362967" x="228.216294" y="189.409211" style="fill: #1f77b4; stroke: #1f77b4"/>
     <use xlink:href="#mf0a2362967" x="193.710231" y="254.30727" style="fill: #1f77b4; stroke: #1f77b4"/>
     <use xlink:href="#mf0a2362967" x="364.174247" y="226.32623" style="fill: #1f77b4; stroke: #1f77b4"/>
     <use xlink:href="#mf0a2362967" x="199.125601" y="134.005698" style="fill: #1f77b4; stroke: #1f77b4"/>
     <use xlink:href="#mf0a2362967" x="219.147241" y="218.449066" style="fill: #1f77b4; stroke: #1f77b4"/>
     <use xlink:href="#mf0a2362967" x="236.855503" y="150.773762" style="fill: #1f77b4; stroke: #1f77b4"/>
     <use xlink:href="#mf0a2362967" x="208.120193" y="185.304957" style="fill: #1f77b4; stroke: #1f77b4"/>
     <use xlink:href="#mf0a2362967" x="195.312842" y="211.115683" style="fill: #1f77b4; stroke: #1f77b4"/>
     <use xlink:href="#mf0a2362967" x="208.23527" y="158.191511" style="fill: #1f77b4; stroke: #1f77b4"/>
     <use xlink:href="#mf0a2362967" x="221.861696" y="221.635464" style="fill: #1f77b4; stroke: #1f77b4"/>
     <use xlink:href="#mf0a2362967" x="329.468492" y="229.412966" style="fill: #1f77b4; stroke: #1f77b4"/>
     <use xlink:href="#mf0a2362967" x="338.76939" y="231.057182" style="fill: #1f77b4; stroke: #1f77b4"/>
     <use xlink:href="#mf0a2362967" x="268.828188" y="195.132276" style="fill: #1f77b4; stroke: #1f77b4"/>
     <use xlink:href="#mf0a2362967" x="266.443733" y="201.935686" style="fill: #1f77b4; stroke: #1f77b4"/>
     <use xlink:href="#mf0a2362967" x="311.851615" y="199.811457" style="fill: #1f77b4; stroke: #1f77b4"/>
     <use xlink:href="#mf0a2362967" x="254.431764" y="238.386579" style="fill: #1f77b4; stroke: #1f77b4"/>
     <use xlink:href="#mf0a2362967" x="250.558082" y="197.429484" style="fill: #1f77b4; stroke: #1f77b4"/>
     <use xlink:href="#mf0a2362967" x="241.324876" y="231.976972" style="fill: #1f77b4; stroke: #1f77b4"/>
     <use xlink:href="#mf0a2362967" x="329.536184" y="202.346852" style="fill: #1f77b4; stroke: #1f77b4"/>
     <use xlink:href="#mf0a2362967" x="176.753352" y="221.254146" style="fill: #1f77b4; stroke: #1f77b4"/>
     <use xlink:href="#mf0a2362967" x="155.750176" y="199.170272" style="fill: #1f77b4; stroke: #1f77b4"/>
     <use xlink:href="#mf0a2362967" x="212.36449" y="186.515837" style="fill: #1f77b4; stroke: #1f77b4"/>
     <use xlink:href="#mf0a2362967" x="297.260576" y="258.882043" style="fill: #1f77b4; stroke: #1f77b4"/>
     <use xlink:href="#mf0a2362967" x="289.736595" y="202.691167" style="fill: #1f77b4; stroke: #1f77b4"/>
     <use xlink:href="#mf0a2362967" x="276.988475" y="200.45264" style="fill: #1f77b4; stroke: #1f77b4"/>
     <use xlink:href="#mf0a2362967" x="242.822564" y="219.427012" style="fill: #1f77b4; stroke: #1f77b4"/>
     <use xlink:href="#mf0a2362967" x="277.467397" y="224.141924" style="fill: #1f77b4; stroke: #1f77b4"/>
     <use xlink:href="#mf0a2362967" x="332.440176" y="185.967646" style="fill: #1f77b4; stroke: #1f77b4"/>
     <use xlink:href="#mf0a2362967" x="287.516293" y="204.562244" style="fill: #1f77b4; stroke: #1f77b4"/>
     <use xlink:href="#mf0a2362967" x="236.833503" y="210.983774" style="fill: #1f77b4; stroke: #1f77b4"/>
     <use xlink:href="#mf0a2362967" x="257.460987" y="235.923849" style="fill: #1f77b4; stroke: #1f77b4"/>
     <use xlink:href="#mf0a2362967" x="88.019122" y="231.596968" style="fill: #1f77b4; stroke: #1f77b4"/>
     <use xlink:href="#mf0a2362967" x="260.18898" y="217.52725" style="fill: #1f77b4; stroke: #1f77b4"/>
     <use xlink:href="#mf0a2362967" x="258.105755" y="230.656512" style="fill: #1f77b4; stroke: #1f77b4"/>
     <use xlink:href="#mf0a2362967" x="229.532906" y="216.295943" style="fill: #1f77b4; stroke: #1f77b4"/>
     <use xlink:href="#mf0a2362967" x="165.573996" y="227.746422" style="fill: #1f77b4; stroke: #1f77b4"/>
     <use xlink:href="#mf0a2362967" x="259.54929" y="225.424406" style="fill: #1f77b4; stroke: #1f77b4"/>
     <use xlink:href="#mf0a2362967" x="305.473323" y="118.564482" style="fill: #1f77b4; stroke: #1f77b4"/>
     <use xlink:href="#mf0a2362967" x="315.486682" y="196.913395" style="fill: #1f77b4; stroke: #1f77b4"/>
     <use xlink:href="#mf0a2362967" x="274.338328" y="174.507354" style="fill: #1f77b4; stroke: #1f77b4"/>
     <use xlink:href="#mf0a2362967" x="239.898264" y="142.762452" style="fill: #1f77b4; stroke: #1f77b4"/>
     <use xlink:href="#mf0a2362967" x="431.719148" y="211.422825" style="fill: #1f77b4; stroke: #1f77b4"/>
     <use xlink:href="#mf0a2362967" x="308.675161" y="221.765379" style="fill: #1f77b4; stroke: #1f77b4"/>
     <use xlink:href="#mf0a2362967" x="274.644635" y="70.951855" style="fill: #1f77b4; stroke: #1f77b4"/>
    </g>
   </g>
   <g id="matplotlib.axis_1">
    <g id="xtick_1">
     <g id="line2d_1">
      <defs>
       <path id="m300946123f" d="M 0 0 
L 0 3.5 
" style="stroke: #000000; stroke-width: 0.8"/>
      </defs>
      <g>
       <use xlink:href="#m300946123f" x="118.169197" y="303.64" style="stroke: #000000; stroke-width: 0.8"/>
      </g>
     </g>
     <g id="text_1">
      <!-- −35 -->
      <g transform="translate(107.616853 318.238437)scale(0.1 -0.1)">
       <defs>
        <path id="DejaVuSans-2212" d="M 678 2272 
L 4684 2272 
L 4684 1741 
L 678 1741 
L 678 2272 
z
" transform="scale(0.015625)"/>
        <path id="DejaVuSans-33" d="M 2597 2516 
Q 3050 2419 3304 2112 
Q 3559 1806 3559 1356 
Q 3559 666 3084 287 
Q 2609 -91 1734 -91 
Q 1441 -91 1130 -33 
Q 819 25 488 141 
L 488 750 
Q 750 597 1062 519 
Q 1375 441 1716 441 
Q 2309 441 2620 675 
Q 2931 909 2931 1356 
Q 2931 1769 2642 2001 
Q 2353 2234 1838 2234 
L 1294 2234 
L 1294 2753 
L 1863 2753 
Q 2328 2753 2575 2939 
Q 2822 3125 2822 3475 
Q 2822 3834 2567 4026 
Q 2313 4219 1838 4219 
Q 1578 4219 1281 4162 
Q 984 4106 628 3988 
L 628 4550 
Q 988 4650 1302 4700 
Q 1616 4750 1894 4750 
Q 2613 4750 3031 4423 
Q 3450 4097 3450 3541 
Q 3450 3153 3228 2886 
Q 3006 2619 2597 2516 
z
" transform="scale(0.015625)"/>
        <path id="DejaVuSans-35" d="M 691 4666 
L 3169 4666 
L 3169 4134 
L 1269 4134 
L 1269 2991 
Q 1406 3038 1543 3061 
Q 1681 3084 1819 3084 
Q 2600 3084 3056 2656 
Q 3513 2228 3513 1497 
Q 3513 744 3044 326 
Q 2575 -91 1722 -91 
Q 1428 -91 1123 -41 
Q 819 9 494 109 
L 494 744 
Q 775 591 1075 516 
Q 1375 441 1709 441 
Q 2250 441 2565 725 
Q 2881 1009 2881 1497 
Q 2881 1984 2565 2268 
Q 2250 2553 1709 2553 
Q 1456 2553 1204 2497 
Q 953 2441 691 2322 
L 691 4666 
z
" transform="scale(0.015625)"/>
       </defs>
       <use xlink:href="#DejaVuSans-2212"/>
       <use xlink:href="#DejaVuSans-33" x="83.789062"/>
       <use xlink:href="#DejaVuSans-35" x="147.412109"/>
      </g>
     </g>
    </g>
    <g id="xtick_2">
     <g id="line2d_2">
      <g>
       <use xlink:href="#m300946123f" x="202.784361" y="303.64" style="stroke: #000000; stroke-width: 0.8"/>
      </g>
     </g>
     <g id="text_2">
      <!-- −30 -->
      <g transform="translate(192.232017 318.238437)scale(0.1 -0.1)">
       <defs>
        <path id="DejaVuSans-30" d="M 2034 4250 
Q 1547 4250 1301 3770 
Q 1056 3291 1056 2328 
Q 1056 1369 1301 889 
Q 1547 409 2034 409 
Q 2525 409 2770 889 
Q 3016 1369 3016 2328 
Q 3016 3291 2770 3770 
Q 2525 4250 2034 4250 
z
M 2034 4750 
Q 2819 4750 3233 4129 
Q 3647 3509 3647 2328 
Q 3647 1150 3233 529 
Q 2819 -91 2034 -91 
Q 1250 -91 836 529 
Q 422 1150 422 2328 
Q 422 3509 836 4129 
Q 1250 4750 2034 4750 
z
" transform="scale(0.015625)"/>
       </defs>
       <use xlink:href="#DejaVuSans-2212"/>
       <use xlink:href="#DejaVuSans-33" x="83.789062"/>
       <use xlink:href="#DejaVuSans-30" x="147.412109"/>
      </g>
     </g>
    </g>
    <g id="xtick_3">
     <g id="line2d_3">
      <g>
       <use xlink:href="#m300946123f" x="287.399525" y="303.64" style="stroke: #000000; stroke-width: 0.8"/>
      </g>
     </g>
     <g id="text_3">
      <!-- −25 -->
      <g transform="translate(276.847181 318.238437)scale(0.1 -0.1)">
       <defs>
        <path id="DejaVuSans-32" d="M 1228 531 
L 3431 531 
L 3431 0 
L 469 0 
L 469 531 
Q 828 903 1448 1529 
Q 2069 2156 2228 2338 
Q 2531 2678 2651 2914 
Q 2772 3150 2772 3378 
Q 2772 3750 2511 3984 
Q 2250 4219 1831 4219 
Q 1534 4219 1204 4116 
Q 875 4013 500 3803 
L 500 4441 
Q 881 4594 1212 4672 
Q 1544 4750 1819 4750 
Q 2544 4750 2975 4387 
Q 3406 4025 3406 3419 
Q 3406 3131 3298 2873 
Q 3191 2616 2906 2266 
Q 2828 2175 2409 1742 
Q 1991 1309 1228 531 
z
" transform="scale(0.015625)"/>
       </defs>
       <use xlink:href="#DejaVuSans-2212"/>
       <use xlink:href="#DejaVuSans-32" x="83.789062"/>
       <use xlink:href="#DejaVuSans-35" x="147.412109"/>
      </g>
     </g>
    </g>
    <g id="xtick_4">
     <g id="line2d_4">
      <g>
       <use xlink:href="#m300946123f" x="372.014688" y="303.64" style="stroke: #000000; stroke-width: 0.8"/>
      </g>
     </g>
     <g id="text_4">
      <!-- −20 -->
      <g transform="translate(361.462344 318.238437)scale(0.1 -0.1)">
       <use xlink:href="#DejaVuSans-2212"/>
       <use xlink:href="#DejaVuSans-32" x="83.789062"/>
       <use xlink:href="#DejaVuSans-30" x="147.412109"/>
      </g>
     </g>
    </g>
    <g id="text_5">
     <!-- VDWDiff -->
     <g transform="translate(227.937187 331.916562)scale(0.1 -0.1)">
      <defs>
       <path id="DejaVuSans-56" d="M 1831 0 
L 50 4666 
L 709 4666 
L 2188 738 
L 3669 4666 
L 4325 4666 
L 2547 0 
L 1831 0 
z
" transform="scale(0.015625)"/>
       <path id="DejaVuSans-44" d="M 1259 4147 
L 1259 519 
L 2022 519 
Q 2988 519 3436 956 
Q 3884 1394 3884 2338 
Q 3884 3275 3436 3711 
Q 2988 4147 2022 4147 
L 1259 4147 
z
M 628 4666 
L 1925 4666 
Q 3281 4666 3915 4102 
Q 4550 3538 4550 2338 
Q 4550 1131 3912 565 
Q 3275 0 1925 0 
L 628 0 
L 628 4666 
z
" transform="scale(0.015625)"/>
       <path id="DejaVuSans-57" d="M 213 4666 
L 850 4666 
L 1831 722 
L 2809 4666 
L 3519 4666 
L 4500 722 
L 5478 4666 
L 6119 4666 
L 4947 0 
L 4153 0 
L 3169 4050 
L 2175 0 
L 1381 0 
L 213 4666 
z
" transform="scale(0.015625)"/>
       <path id="DejaVuSans-69" d="M 603 3500 
L 1178 3500 
L 1178 0 
L 603 0 
L 603 3500 
z
M 603 4863 
L 1178 4863 
L 1178 4134 
L 603 4134 
L 603 4863 
z
" transform="scale(0.015625)"/>
       <path id="DejaVuSans-66" d="M 2375 4863 
L 2375 4384 
L 1825 4384 
Q 1516 4384 1395 4259 
Q 1275 4134 1275 3809 
L 1275 3500 
L 2222 3500 
L 2222 3053 
L 1275 3053 
L 1275 0 
L 697 0 
L 697 3053 
L 147 3053 
L 147 3500 
L 697 3500 
L 697 3744 
Q 697 4328 969 4595 
Q 1241 4863 1831 4863 
L 2375 4863 
z
" transform="scale(0.015625)"/>
      </defs>
      <use xlink:href="#DejaVuSans-56"/>
      <use xlink:href="#DejaVuSans-44" x="68.408203"/>
      <use xlink:href="#DejaVuSans-57" x="145.410156"/>
      <use xlink:href="#DejaVuSans-44" x="244.287109"/>
      <use xlink:href="#DejaVuSans-69" x="321.289062"/>
      <use xlink:href="#DejaVuSans-66" x="349.072266"/>
      <use xlink:href="#DejaVuSans-66" x="384.277344"/>
     </g>
    </g>
   </g>
   <g id="matplotlib.axis_2">
    <g id="ytick_1">
     <g id="line2d_5">
      <defs>
       <path id="ma0bd8ffef1" d="M 0 0 
L -3.5 0 
" style="stroke: #000000; stroke-width: 0.8"/>
      </defs>
      <g>
       <use xlink:href="#ma0bd8ffef1" x="47.82125" y="303.64" style="stroke: #000000; stroke-width: 0.8"/>
      </g>
     </g>
     <g id="text_6">
      <!-- 0.0 -->
      <g transform="translate(24.918125 307.439219)scale(0.1 -0.1)">
       <defs>
        <path id="DejaVuSans-2e" d="M 684 794 
L 1344 794 
L 1344 0 
L 684 0 
L 684 794 
z
" transform="scale(0.015625)"/>
       </defs>
       <use xlink:href="#DejaVuSans-30"/>
       <use xlink:href="#DejaVuSans-2e" x="63.623047"/>
       <use xlink:href="#DejaVuSans-30" x="95.410156"/>
      </g>
     </g>
    </g>
    <g id="ytick_2">
     <g id="line2d_6">
      <g>
       <use xlink:href="#ma0bd8ffef1" x="47.82125" y="251.733944" style="stroke: #000000; stroke-width: 0.8"/>
      </g>
     </g>
     <g id="text_7">
      <!-- 0.2 -->
      <g transform="translate(24.918125 255.533163)scale(0.1 -0.1)">
       <use xlink:href="#DejaVuSans-30"/>
       <use xlink:href="#DejaVuSans-2e" x="63.623047"/>
       <use xlink:href="#DejaVuSans-32" x="95.410156"/>
      </g>
     </g>
    </g>
    <g id="ytick_3">
     <g id="line2d_7">
      <g>
       <use xlink:href="#ma0bd8ffef1" x="47.82125" y="199.827889" style="stroke: #000000; stroke-width: 0.8"/>
      </g>
     </g>
     <g id="text_8">
      <!-- 0.4 -->
      <g transform="translate(24.918125 203.627107)scale(0.1 -0.1)">
       <defs>
        <path id="DejaVuSans-34" d="M 2419 4116 
L 825 1625 
L 2419 1625 
L 2419 4116 
z
M 2253 4666 
L 3047 4666 
L 3047 1625 
L 3713 1625 
L 3713 1100 
L 3047 1100 
L 3047 0 
L 2419 0 
L 2419 1100 
L 313 1100 
L 313 1709 
L 2253 4666 
z
" transform="scale(0.015625)"/>
       </defs>
       <use xlink:href="#DejaVuSans-30"/>
       <use xlink:href="#DejaVuSans-2e" x="63.623047"/>
       <use xlink:href="#DejaVuSans-34" x="95.410156"/>
      </g>
     </g>
    </g>
    <g id="ytick_4">
     <g id="line2d_8">
      <g>
       <use xlink:href="#ma0bd8ffef1" x="47.82125" y="147.921833" style="stroke: #000000; stroke-width: 0.8"/>
      </g>
     </g>
     <g id="text_9">
      <!-- 0.6 -->
      <g transform="translate(24.918125 151.721052)scale(0.1 -0.1)">
       <defs>
        <path id="DejaVuSans-36" d="M 2113 2584 
Q 1688 2584 1439 2293 
Q 1191 2003 1191 1497 
Q 1191 994 1439 701 
Q 1688 409 2113 409 
Q 2538 409 2786 701 
Q 3034 994 3034 1497 
Q 3034 2003 2786 2293 
Q 2538 2584 2113 2584 
z
M 3366 4563 
L 3366 3988 
Q 3128 4100 2886 4159 
Q 2644 4219 2406 4219 
Q 1781 4219 1451 3797 
Q 1122 3375 1075 2522 
Q 1259 2794 1537 2939 
Q 1816 3084 2150 3084 
Q 2853 3084 3261 2657 
Q 3669 2231 3669 1497 
Q 3669 778 3244 343 
Q 2819 -91 2113 -91 
Q 1303 -91 875 529 
Q 447 1150 447 2328 
Q 447 3434 972 4092 
Q 1497 4750 2381 4750 
Q 2619 4750 2861 4703 
Q 3103 4656 3366 4563 
z
" transform="scale(0.015625)"/>
       </defs>
       <use xlink:href="#DejaVuSans-30"/>
       <use xlink:href="#DejaVuSans-2e" x="63.623047"/>
       <use xlink:href="#DejaVuSans-36" x="95.410156"/>
      </g>
     </g>
    </g>
    <g id="ytick_5">
     <g id="line2d_9">
      <g>
       <use xlink:href="#ma0bd8ffef1" x="47.82125" y="96.015777" style="stroke: #000000; stroke-width: 0.8"/>
      </g>
     </g>
     <g id="text_10">
      <!-- 0.8 -->
      <g transform="translate(24.918125 99.814996)scale(0.1 -0.1)">
       <defs>
        <path id="DejaVuSans-38" d="M 2034 2216 
Q 1584 2216 1326 1975 
Q 1069 1734 1069 1313 
Q 1069 891 1326 650 
Q 1584 409 2034 409 
Q 2484 409 2743 651 
Q 3003 894 3003 1313 
Q 3003 1734 2745 1975 
Q 2488 2216 2034 2216 
z
M 1403 2484 
Q 997 2584 770 2862 
Q 544 3141 544 3541 
Q 544 4100 942 4425 
Q 1341 4750 2034 4750 
Q 2731 4750 3128 4425 
Q 3525 4100 3525 3541 
Q 3525 3141 3298 2862 
Q 3072 2584 2669 2484 
Q 3125 2378 3379 2068 
Q 3634 1759 3634 1313 
Q 3634 634 3220 271 
Q 2806 -91 2034 -91 
Q 1263 -91 848 271 
Q 434 634 434 1313 
Q 434 1759 690 2068 
Q 947 2378 1403 2484 
z
M 1172 3481 
Q 1172 3119 1398 2916 
Q 1625 2713 2034 2713 
Q 2441 2713 2670 2916 
Q 2900 3119 2900 3481 
Q 2900 3844 2670 4047 
Q 2441 4250 2034 4250 
Q 1625 4250 1398 4047 
Q 1172 3844 1172 3481 
z
" transform="scale(0.015625)"/>
       </defs>
       <use xlink:href="#DejaVuSans-30"/>
       <use xlink:href="#DejaVuSans-2e" x="63.623047"/>
       <use xlink:href="#DejaVuSans-38" x="95.410156"/>
      </g>
     </g>
    </g>
    <g id="text_11">
     <!-- PercentGpA_transformed -->
     <g transform="translate(18.560313 237.696138)rotate(-90)scale(0.1 -0.1)">
      <defs>
       <path id="DejaVuSans-50" d="M 1259 4147 
L 1259 2394 
L 2053 2394 
Q 2494 2394 2734 2622 
Q 2975 2850 2975 3272 
Q 2975 3691 2734 3919 
Q 2494 4147 2053 4147 
L 1259 4147 
z
M 628 4666 
L 2053 4666 
Q 2838 4666 3239 4311 
Q 3641 3956 3641 3272 
Q 3641 2581 3239 2228 
Q 2838 1875 2053 1875 
L 1259 1875 
L 1259 0 
L 628 0 
L 628 4666 
z
" transform="scale(0.015625)"/>
       <path id="DejaVuSans-65" d="M 3597 1894 
L 3597 1613 
L 953 1613 
Q 991 1019 1311 708 
Q 1631 397 2203 397 
Q 2534 397 2845 478 
Q 3156 559 3463 722 
L 3463 178 
Q 3153 47 2828 -22 
Q 2503 -91 2169 -91 
Q 1331 -91 842 396 
Q 353 884 353 1716 
Q 353 2575 817 3079 
Q 1281 3584 2069 3584 
Q 2775 3584 3186 3129 
Q 3597 2675 3597 1894 
z
M 3022 2063 
Q 3016 2534 2758 2815 
Q 2500 3097 2075 3097 
Q 1594 3097 1305 2825 
Q 1016 2553 972 2059 
L 3022 2063 
z
" transform="scale(0.015625)"/>
       <path id="DejaVuSans-72" d="M 2631 2963 
Q 2534 3019 2420 3045 
Q 2306 3072 2169 3072 
Q 1681 3072 1420 2755 
Q 1159 2438 1159 1844 
L 1159 0 
L 581 0 
L 581 3500 
L 1159 3500 
L 1159 2956 
Q 1341 3275 1631 3429 
Q 1922 3584 2338 3584 
Q 2397 3584 2469 3576 
Q 2541 3569 2628 3553 
L 2631 2963 
z
" transform="scale(0.015625)"/>
       <path id="DejaVuSans-63" d="M 3122 3366 
L 3122 2828 
Q 2878 2963 2633 3030 
Q 2388 3097 2138 3097 
Q 1578 3097 1268 2742 
Q 959 2388 959 1747 
Q 959 1106 1268 751 
Q 1578 397 2138 397 
Q 2388 397 2633 464 
Q 2878 531 3122 666 
L 3122 134 
Q 2881 22 2623 -34 
Q 2366 -91 2075 -91 
Q 1284 -91 818 406 
Q 353 903 353 1747 
Q 353 2603 823 3093 
Q 1294 3584 2113 3584 
Q 2378 3584 2631 3529 
Q 2884 3475 3122 3366 
z
" transform="scale(0.015625)"/>
       <path id="DejaVuSans-6e" d="M 3513 2113 
L 3513 0 
L 2938 0 
L 2938 2094 
Q 2938 2591 2744 2837 
Q 2550 3084 2163 3084 
Q 1697 3084 1428 2787 
Q 1159 2491 1159 1978 
L 1159 0 
L 581 0 
L 581 3500 
L 1159 3500 
L 1159 2956 
Q 1366 3272 1645 3428 
Q 1925 3584 2291 3584 
Q 2894 3584 3203 3211 
Q 3513 2838 3513 2113 
z
" transform="scale(0.015625)"/>
       <path id="DejaVuSans-74" d="M 1172 4494 
L 1172 3500 
L 2356 3500 
L 2356 3053 
L 1172 3053 
L 1172 1153 
Q 1172 725 1289 603 
Q 1406 481 1766 481 
L 2356 481 
L 2356 0 
L 1766 0 
Q 1100 0 847 248 
Q 594 497 594 1153 
L 594 3053 
L 172 3053 
L 172 3500 
L 594 3500 
L 594 4494 
L 1172 4494 
z
" transform="scale(0.015625)"/>
       <path id="DejaVuSans-47" d="M 3809 666 
L 3809 1919 
L 2778 1919 
L 2778 2438 
L 4434 2438 
L 4434 434 
Q 4069 175 3628 42 
Q 3188 -91 2688 -91 
Q 1594 -91 976 548 
Q 359 1188 359 2328 
Q 359 3472 976 4111 
Q 1594 4750 2688 4750 
Q 3144 4750 3555 4637 
Q 3966 4525 4313 4306 
L 4313 3634 
Q 3963 3931 3569 4081 
Q 3175 4231 2741 4231 
Q 1884 4231 1454 3753 
Q 1025 3275 1025 2328 
Q 1025 1384 1454 906 
Q 1884 428 2741 428 
Q 3075 428 3337 486 
Q 3600 544 3809 666 
z
" transform="scale(0.015625)"/>
       <path id="DejaVuSans-70" d="M 1159 525 
L 1159 -1331 
L 581 -1331 
L 581 3500 
L 1159 3500 
L 1159 2969 
Q 1341 3281 1617 3432 
Q 1894 3584 2278 3584 
Q 2916 3584 3314 3078 
Q 3713 2572 3713 1747 
Q 3713 922 3314 415 
Q 2916 -91 2278 -91 
Q 1894 -91 1617 61 
Q 1341 213 1159 525 
z
M 3116 1747 
Q 3116 2381 2855 2742 
Q 2594 3103 2138 3103 
Q 1681 3103 1420 2742 
Q 1159 2381 1159 1747 
Q 1159 1113 1420 752 
Q 1681 391 2138 391 
Q 2594 391 2855 752 
Q 3116 1113 3116 1747 
z
" transform="scale(0.015625)"/>
       <path id="DejaVuSans-41" d="M 2188 4044 
L 1331 1722 
L 3047 1722 
L 2188 4044 
z
M 1831 4666 
L 2547 4666 
L 4325 0 
L 3669 0 
L 3244 1197 
L 1141 1197 
L 716 0 
L 50 0 
L 1831 4666 
z
" transform="scale(0.015625)"/>
       <path id="DejaVuSans-5f" d="M 3263 -1063 
L 3263 -1509 
L -63 -1509 
L -63 -1063 
L 3263 -1063 
z
" transform="scale(0.015625)"/>
       <path id="DejaVuSans-61" d="M 2194 1759 
Q 1497 1759 1228 1600 
Q 959 1441 959 1056 
Q 959 750 1161 570 
Q 1363 391 1709 391 
Q 2188 391 2477 730 
Q 2766 1069 2766 1631 
L 2766 1759 
L 2194 1759 
z
M 3341 1997 
L 3341 0 
L 2766 0 
L 2766 531 
Q 2569 213 2275 61 
Q 1981 -91 1556 -91 
Q 1019 -91 701 211 
Q 384 513 384 1019 
Q 384 1609 779 1909 
Q 1175 2209 1959 2209 
L 2766 2209 
L 2766 2266 
Q 2766 2663 2505 2880 
Q 2244 3097 1772 3097 
Q 1472 3097 1187 3025 
Q 903 2953 641 2809 
L 641 3341 
Q 956 3463 1253 3523 
Q 1550 3584 1831 3584 
Q 2591 3584 2966 3190 
Q 3341 2797 3341 1997 
z
" transform="scale(0.015625)"/>
       <path id="DejaVuSans-73" d="M 2834 3397 
L 2834 2853 
Q 2591 2978 2328 3040 
Q 2066 3103 1784 3103 
Q 1356 3103 1142 2972 
Q 928 2841 928 2578 
Q 928 2378 1081 2264 
Q 1234 2150 1697 2047 
L 1894 2003 
Q 2506 1872 2764 1633 
Q 3022 1394 3022 966 
Q 3022 478 2636 193 
Q 2250 -91 1575 -91 
Q 1294 -91 989 -36 
Q 684 19 347 128 
L 347 722 
Q 666 556 975 473 
Q 1284 391 1588 391 
Q 1994 391 2212 530 
Q 2431 669 2431 922 
Q 2431 1156 2273 1281 
Q 2116 1406 1581 1522 
L 1381 1569 
Q 847 1681 609 1914 
Q 372 2147 372 2553 
Q 372 3047 722 3315 
Q 1072 3584 1716 3584 
Q 2034 3584 2315 3537 
Q 2597 3491 2834 3397 
z
" transform="scale(0.015625)"/>
       <path id="DejaVuSans-6f" d="M 1959 3097 
Q 1497 3097 1228 2736 
Q 959 2375 959 1747 
Q 959 1119 1226 758 
Q 1494 397 1959 397 
Q 2419 397 2687 759 
Q 2956 1122 2956 1747 
Q 2956 2369 2687 2733 
Q 2419 3097 1959 3097 
z
M 1959 3584 
Q 2709 3584 3137 3096 
Q 3566 2609 3566 1747 
Q 3566 888 3137 398 
Q 2709 -91 1959 -91 
Q 1206 -91 779 398 
Q 353 888 353 1747 
Q 353 2609 779 3096 
Q 1206 3584 1959 3584 
z
" transform="scale(0.015625)"/>
       <path id="DejaVuSans-6d" d="M 3328 2828 
Q 3544 3216 3844 3400 
Q 4144 3584 4550 3584 
Q 5097 3584 5394 3201 
Q 5691 2819 5691 2113 
L 5691 0 
L 5113 0 
L 5113 2094 
Q 5113 2597 4934 2840 
Q 4756 3084 4391 3084 
Q 3944 3084 3684 2787 
Q 3425 2491 3425 1978 
L 3425 0 
L 2847 0 
L 2847 2094 
Q 2847 2600 2669 2842 
Q 2491 3084 2119 3084 
Q 1678 3084 1418 2786 
Q 1159 2488 1159 1978 
L 1159 0 
L 581 0 
L 581 3500 
L 1159 3500 
L 1159 2956 
Q 1356 3278 1631 3431 
Q 1906 3584 2284 3584 
Q 2666 3584 2933 3390 
Q 3200 3197 3328 2828 
z
" transform="scale(0.015625)"/>
       <path id="DejaVuSans-64" d="M 2906 2969 
L 2906 4863 
L 3481 4863 
L 3481 0 
L 2906 0 
L 2906 525 
Q 2725 213 2448 61 
Q 2172 -91 1784 -91 
Q 1150 -91 751 415 
Q 353 922 353 1747 
Q 353 2572 751 3078 
Q 1150 3584 1784 3584 
Q 2172 3584 2448 3432 
Q 2725 3281 2906 2969 
z
M 947 1747 
Q 947 1113 1208 752 
Q 1469 391 1925 391 
Q 2381 391 2643 752 
Q 2906 1113 2906 1747 
Q 2906 2381 2643 2742 
Q 2381 3103 1925 3103 
Q 1469 3103 1208 2742 
Q 947 2381 947 1747 
z
" transform="scale(0.015625)"/>
      </defs>
      <use xlink:href="#DejaVuSans-50"/>
      <use xlink:href="#DejaVuSans-65" x="56.677734"/>
      <use xlink:href="#DejaVuSans-72" x="118.201172"/>
      <use xlink:href="#DejaVuSans-63" x="157.064453"/>
      <use xlink:href="#DejaVuSans-65" x="212.044922"/>
      <use xlink:href="#DejaVuSans-6e" x="273.568359"/>
      <use xlink:href="#DejaVuSans-74" x="336.947266"/>
      <use xlink:href="#DejaVuSans-47" x="376.15625"/>
      <use xlink:href="#DejaVuSans-70" x="453.646484"/>
      <use xlink:href="#DejaVuSans-41" x="517.123047"/>
      <use xlink:href="#DejaVuSans-5f" x="585.53125"/>
      <use xlink:href="#DejaVuSans-74" x="635.53125"/>
      <use xlink:href="#DejaVuSans-72" x="674.740234"/>
      <use xlink:href="#DejaVuSans-61" x="715.853516"/>
      <use xlink:href="#DejaVuSans-6e" x="777.132812"/>
      <use xlink:href="#DejaVuSans-73" x="840.511719"/>
      <use xlink:href="#DejaVuSans-66" x="892.611328"/>
      <use xlink:href="#DejaVuSans-6f" x="927.816406"/>
      <use xlink:href="#DejaVuSans-72" x="988.998047"/>
      <use xlink:href="#DejaVuSans-6d" x="1028.361328"/>
      <use xlink:href="#DejaVuSans-65" x="1125.773438"/>
      <use xlink:href="#DejaVuSans-64" x="1187.296875"/>
     </g>
    </g>
   </g>
   <g id="LineCollection_1">
    <path d="M 152.235262 223.367247 
L 152.235262 201.151078 
" clip-path="url(#pe972f62dd9)" style="fill: none; stroke: #d3d3d3; stroke-width: 3"/>
    <path d="M 155.411715 265.257496 
L 155.411715 211.702126 
" clip-path="url(#pe972f62dd9)" style="fill: none; stroke: #d3d3d3; stroke-width: 3"/>
    <path d="M 129.340091 222.682761 
L 129.340091 189.124893 
" clip-path="url(#pe972f62dd9)" style="fill: none; stroke: #d3d3d3; stroke-width: 3"/>
    <path d="M 259.239598 208.109538 
L 259.239598 147.245459 
" clip-path="url(#pe972f62dd9)" style="fill: none; stroke: #d3d3d3; stroke-width: 3"/>
    <path d="M 180.879187 217.625274 
L 180.879187 168.506449 
" clip-path="url(#pe972f62dd9)" style="fill: none; stroke: #d3d3d3; stroke-width: 3"/>
    <path d="M 130.517934 278.377642 
L 130.517934 214.248962 
" clip-path="url(#pe972f62dd9)" style="fill: none; stroke: #d3d3d3; stroke-width: 3"/>
    <path d="M 265.831119 238.434728 
L 265.831119 180.707297 
" clip-path="url(#pe972f62dd9)" style="fill: none; stroke: #d3d3d3; stroke-width: 3"/>
    <path d="M 172.549671 204.10799 
L 172.549671 181.841949 
" clip-path="url(#pe972f62dd9)" style="fill: none; stroke: #d3d3d3; stroke-width: 3"/>
    <path d="M 214.376638 247.075127 
L 214.376638 201.158754 
" clip-path="url(#pe972f62dd9)" style="fill: none; stroke: #d3d3d3; stroke-width: 3"/>
    <path d="M 163.081234 215.921979 
L 163.081234 85.788236 
" clip-path="url(#pe972f62dd9)" style="fill: none; stroke: #d3d3d3; stroke-width: 3"/>
    <path d="M 339.253389 185.358994 
L 339.253389 166.00454 
" clip-path="url(#pe972f62dd9)" style="fill: none; stroke: #d3d3d3; stroke-width: 3"/>
    <path d="M 225.750609 204.326478 
L 225.750609 183.104073 
" clip-path="url(#pe972f62dd9)" style="fill: none; stroke: #d3d3d3; stroke-width: 3"/>
    <path d="M 173.725821 245.300328 
L 173.725821 211.57905 
" clip-path="url(#pe972f62dd9)" style="fill: none; stroke: #d3d3d3; stroke-width: 3"/>
    <path d="M 125.303948 261.611778 
L 125.303948 208.068813 
" clip-path="url(#pe972f62dd9)" style="fill: none; stroke: #d3d3d3; stroke-width: 3"/>
    <path d="M 192.820079 258.629656 
L 192.820079 207.066889 
" clip-path="url(#pe972f62dd9)" style="fill: none; stroke: #d3d3d3; stroke-width: 3"/>
    <path d="M 184.524408 268.271296 
L 184.524408 202.459526 
" clip-path="url(#pe972f62dd9)" style="fill: none; stroke: #d3d3d3; stroke-width: 3"/>
    <path d="M 293.667816 195.209033 
L 293.667816 162.759188 
" clip-path="url(#pe972f62dd9)" style="fill: none; stroke: #d3d3d3; stroke-width: 3"/>
    <path d="M 113.00598 268.443323 
L 113.00598 192.246259 
" clip-path="url(#pe972f62dd9)" style="fill: none; stroke: #d3d3d3; stroke-width: 3"/>
    <path d="M 151.10988 207.05716 
L 151.10988 158.512222 
" clip-path="url(#pe972f62dd9)" style="fill: none; stroke: #d3d3d3; stroke-width: 3"/>
    <path d="M 196.10484 184.336784 
L 196.10484 162.034085 
" clip-path="url(#pe972f62dd9)" style="fill: none; stroke: #d3d3d3; stroke-width: 3"/>
    <path d="M 172.290748 228.331192 
L 172.290748 206.436238 
" clip-path="url(#pe972f62dd9)" style="fill: none; stroke: #d3d3d3; stroke-width: 3"/>
    <path d="M 293.243048 220.790116 
L 293.243048 179.119115 
" clip-path="url(#pe972f62dd9)" style="fill: none; stroke: #d3d3d3; stroke-width: 3"/>
    <path d="M 139.204527 164.018555 
L 139.204527 152.982941 
" clip-path="url(#pe972f62dd9)" style="fill: none; stroke: #d3d3d3; stroke-width: 3"/>
    <path d="M 128.497324 168.200977 
L 128.497324 160.648563 
" clip-path="url(#pe972f62dd9)" style="fill: none; stroke: #d3d3d3; stroke-width: 3"/>
    <path d="M 193.970845 216.033892 
L 193.970845 185.916959 
" clip-path="url(#pe972f62dd9)" style="fill: none; stroke: #d3d3d3; stroke-width: 3"/>
    <path d="M 295.813656 226.204103 
L 295.813656 180.335837 
" clip-path="url(#pe972f62dd9)" style="fill: none; stroke: #d3d3d3; stroke-width: 3"/>
    <path d="M 210.667109 226.144307 
L 210.667109 223.669753 
" clip-path="url(#pe972f62dd9)" style="fill: none; stroke: #d3d3d3; stroke-width: 3"/>
    <path d="M 263.835894 180.605255 
L 263.835894 171.029563 
" clip-path="url(#pe972f62dd9)" style="fill: none; stroke: #d3d3d3; stroke-width: 3"/>
    <path d="M 331.41464 256.205268 
L 331.41464 219.997961 
" clip-path="url(#pe972f62dd9)" style="fill: none; stroke: #d3d3d3; stroke-width: 3"/>
    <path d="M 226.385222 225.622654 
L 226.385222 196.459631 
" clip-path="url(#pe972f62dd9)" style="fill: none; stroke: #d3d3d3; stroke-width: 3"/>
    <path d="M 295.612272 208.773202 
L 295.612272 189.818098 
" clip-path="url(#pe972f62dd9)" style="fill: none; stroke: #d3d3d3; stroke-width: 3"/>
    <path d="M 364.72763 204.479815 
L 364.72763 179.201961 
" clip-path="url(#pe972f62dd9)" style="fill: none; stroke: #d3d3d3; stroke-width: 3"/>
    <path d="M 66.102102 286.878233 
L 66.102102 202.451299 
" clip-path="url(#pe972f62dd9)" style="fill: none; stroke: #d3d3d3; stroke-width: 3"/>
    <path d="M 193.375155 223.239197 
L 193.375155 219.780992 
" clip-path="url(#pe972f62dd9)" style="fill: none; stroke: #d3d3d3; stroke-width: 3"/>
    <path d="M 230.876595 282.253071 
L 230.876595 235.181048 
" clip-path="url(#pe972f62dd9)" style="fill: none; stroke: #d3d3d3; stroke-width: 3"/>
    <path d="M 228.084295 216.787284 
L 228.084295 200.62297 
" clip-path="url(#pe972f62dd9)" style="fill: none; stroke: #d3d3d3; stroke-width: 3"/>
    <path d="M 231.514593 272.931482 
L 231.514593 222.18715 
" clip-path="url(#pe972f62dd9)" style="fill: none; stroke: #d3d3d3; stroke-width: 3"/>
    <path d="M 160.258472 168.613323 
L 160.258472 130.506518 
" clip-path="url(#pe972f62dd9)" style="fill: none; stroke: #d3d3d3; stroke-width: 3"/>
    <path d="M 170.845521 232.788352 
L 170.845521 219.112877 
" clip-path="url(#pe972f62dd9)" style="fill: none; stroke: #d3d3d3; stroke-width: 3"/>
    <path d="M 291.389976 233.165239 
L 291.389976 196.810074 
" clip-path="url(#pe972f62dd9)" style="fill: none; stroke: #d3d3d3; stroke-width: 3"/>
    <path d="M 279.833237 157.971041 
L 279.833237 132.782989 
" clip-path="url(#pe972f62dd9)" style="fill: none; stroke: #d3d3d3; stroke-width: 3"/>
    <path d="M 228.216294 208.658208 
L 228.216294 170.160214 
" clip-path="url(#pe972f62dd9)" style="fill: none; stroke: #d3d3d3; stroke-width: 3"/>
    <path d="M 193.710231 269.678453 
L 193.710231 238.936086 
" clip-path="url(#pe972f62dd9)" style="fill: none; stroke: #d3d3d3; stroke-width: 3"/>
    <path d="M 364.174247 236.660807 
L 364.174247 215.991652 
" clip-path="url(#pe972f62dd9)" style="fill: none; stroke: #d3d3d3; stroke-width: 3"/>
    <path d="M 199.125601 153.579407 
L 199.125601 114.431988 
" clip-path="url(#pe972f62dd9)" style="fill: none; stroke: #d3d3d3; stroke-width: 3"/>
    <path d="M 219.147241 234.578911 
L 219.147241 202.319221 
" clip-path="url(#pe972f62dd9)" style="fill: none; stroke: #d3d3d3; stroke-width: 3"/>
    <path d="M 236.855503 161.474358 
L 236.855503 140.073165 
" clip-path="url(#pe972f62dd9)" style="fill: none; stroke: #d3d3d3; stroke-width: 3"/>
    <path d="M 208.120193 197.433086 
L 208.120193 173.176828 
" clip-path="url(#pe972f62dd9)" style="fill: none; stroke: #d3d3d3; stroke-width: 3"/>
    <path d="M 195.312842 215.058595 
L 195.312842 207.172771 
" clip-path="url(#pe972f62dd9)" style="fill: none; stroke: #d3d3d3; stroke-width: 3"/>
    <path d="M 208.23527 172.930609 
L 208.23527 143.452413 
" clip-path="url(#pe972f62dd9)" style="fill: none; stroke: #d3d3d3; stroke-width: 3"/>
    <path d="M 221.861696 241.605979 
L 221.861696 201.664949 
" clip-path="url(#pe972f62dd9)" style="fill: none; stroke: #d3d3d3; stroke-width: 3"/>
    <path d="M 329.468492 250.105756 
L 329.468492 208.720175 
" clip-path="url(#pe972f62dd9)" style="fill: none; stroke: #d3d3d3; stroke-width: 3"/>
    <path d="M 338.76939 244.277235 
L 338.76939 217.837128 
" clip-path="url(#pe972f62dd9)" style="fill: none; stroke: #d3d3d3; stroke-width: 3"/>
    <path d="M 268.828188 200.669983 
L 268.828188 189.594569 
" clip-path="url(#pe972f62dd9)" style="fill: none; stroke: #d3d3d3; stroke-width: 3"/>
    <path d="M 266.443733 218.12068 
L 266.443733 185.750693 
" clip-path="url(#pe972f62dd9)" style="fill: none; stroke: #d3d3d3; stroke-width: 3"/>
    <path d="M 311.851615 208.625521 
L 311.851615 190.997393 
" clip-path="url(#pe972f62dd9)" style="fill: none; stroke: #d3d3d3; stroke-width: 3"/>
    <path d="M 254.431764 258.939947 
L 254.431764 217.833211 
" clip-path="url(#pe972f62dd9)" style="fill: none; stroke: #d3d3d3; stroke-width: 3"/>
    <path d="M 250.558082 208.479004 
L 250.558082 186.379965 
" clip-path="url(#pe972f62dd9)" style="fill: none; stroke: #d3d3d3; stroke-width: 3"/>
    <path d="M 241.324876 257.13958 
L 241.324876 206.814364 
" clip-path="url(#pe972f62dd9)" style="fill: none; stroke: #d3d3d3; stroke-width: 3"/>
    <path d="M 329.536184 209.520901 
L 329.536184 195.172804 
" clip-path="url(#pe972f62dd9)" style="fill: none; stroke: #d3d3d3; stroke-width: 3"/>
    <path d="M 176.753352 229.414286 
L 176.753352 213.094007 
" clip-path="url(#pe972f62dd9)" style="fill: none; stroke: #d3d3d3; stroke-width: 3"/>
    <path d="M 155.750176 206.610908 
L 155.750176 191.729636 
" clip-path="url(#pe972f62dd9)" style="fill: none; stroke: #d3d3d3; stroke-width: 3"/>
    <path d="M 212.36449 192.389374 
L 212.36449 180.6423 
" clip-path="url(#pe972f62dd9)" style="fill: none; stroke: #d3d3d3; stroke-width: 3"/>
    <path d="M 297.260576 277.222252 
L 297.260576 240.541834 
" clip-path="url(#pe972f62dd9)" style="fill: none; stroke: #d3d3d3; stroke-width: 3"/>
    <path d="M 289.736595 209.938851 
L 289.736595 195.443483 
" clip-path="url(#pe972f62dd9)" style="fill: none; stroke: #d3d3d3; stroke-width: 3"/>
    <path d="M 276.988475 217.008393 
L 276.988475 183.896887 
" clip-path="url(#pe972f62dd9)" style="fill: none; stroke: #d3d3d3; stroke-width: 3"/>
    <path d="M 242.822564 234.631785 
L 242.822564 204.222239 
" clip-path="url(#pe972f62dd9)" style="fill: none; stroke: #d3d3d3; stroke-width: 3"/>
    <path d="M 277.467397 237.718922 
L 277.467397 210.564927 
" clip-path="url(#pe972f62dd9)" style="fill: none; stroke: #d3d3d3; stroke-width: 3"/>
    <path d="M 332.440176 196.100674 
L 332.440176 175.834617 
" clip-path="url(#pe972f62dd9)" style="fill: none; stroke: #d3d3d3; stroke-width: 3"/>
    <path d="M 287.516293 222.643419 
L 287.516293 186.48107 
" clip-path="url(#pe972f62dd9)" style="fill: none; stroke: #d3d3d3; stroke-width: 3"/>
    <path d="M 236.833503 221.396924 
L 236.833503 200.570624 
" clip-path="url(#pe972f62dd9)" style="fill: none; stroke: #d3d3d3; stroke-width: 3"/>
    <path d="M 257.460987 244.157698 
L 257.460987 227.69 
" clip-path="url(#pe972f62dd9)" style="fill: none; stroke: #d3d3d3; stroke-width: 3"/>
    <path d="M 88.019122 255.851392 
L 88.019122 207.342544 
" clip-path="url(#pe972f62dd9)" style="fill: none; stroke: #d3d3d3; stroke-width: 3"/>
    <path d="M 260.18898 231.257113 
L 260.18898 203.797387 
" clip-path="url(#pe972f62dd9)" style="fill: none; stroke: #d3d3d3; stroke-width: 3"/>
    <path d="M 258.105755 246.240479 
L 258.105755 215.072544 
" clip-path="url(#pe972f62dd9)" style="fill: none; stroke: #d3d3d3; stroke-width: 3"/>
    <path d="M 229.532906 235.635464 
L 229.532906 196.956423 
" clip-path="url(#pe972f62dd9)" style="fill: none; stroke: #d3d3d3; stroke-width: 3"/>
    <path d="M 165.573996 233.507484 
L 165.573996 221.985359 
" clip-path="url(#pe972f62dd9)" style="fill: none; stroke: #d3d3d3; stroke-width: 3"/>
    <path d="M 259.54929 245.792078 
L 259.54929 205.056733 
" clip-path="url(#pe972f62dd9)" style="fill: none; stroke: #d3d3d3; stroke-width: 3"/>
    <path d="M 305.473323 155.116625 
L 305.473323 82.01234 
" clip-path="url(#pe972f62dd9)" style="fill: none; stroke: #d3d3d3; stroke-width: 3"/>
    <path d="M 315.486682 207.502891 
L 315.486682 186.323899 
" clip-path="url(#pe972f62dd9)" style="fill: none; stroke: #d3d3d3; stroke-width: 3"/>
    <path d="M 274.338328 190.826955 
L 274.338328 158.187752 
" clip-path="url(#pe972f62dd9)" style="fill: none; stroke: #d3d3d3; stroke-width: 3"/>
    <path d="M 239.898264 182.060342 
L 239.898264 103.464561 
" clip-path="url(#pe972f62dd9)" style="fill: none; stroke: #d3d3d3; stroke-width: 3"/>
    <path d="M 431.719148 218.049693 
L 431.719148 204.795957 
" clip-path="url(#pe972f62dd9)" style="fill: none; stroke: #d3d3d3; stroke-width: 3"/>
    <path d="M 308.675161 239.265552 
L 308.675161 204.265207 
" clip-path="url(#pe972f62dd9)" style="fill: none; stroke: #d3d3d3; stroke-width: 3"/>
    <path d="M 274.644635 83.78978 
L 274.644635 58.113929 
" clip-path="url(#pe972f62dd9)" style="fill: none; stroke: #d3d3d3; stroke-width: 3"/>
   </g>
   <g id="line2d_10">
    <path d="M 152.235262 207.688667 
L 155.411715 207.542562 
L 129.340091 208.741765 
L 259.239598 202.766844 
L 180.879187 206.371147 
L 130.517934 208.687588 
L 265.831119 202.463657 
L 172.549671 206.754276 
L 214.376638 204.830382 
L 163.081234 207.189791 
L 339.253389 199.086491 
L 225.750609 204.30722 
L 173.725821 206.700177 
L 125.303948 208.927413 
L 192.820079 205.821908 
L 184.524408 206.20348 
L 293.667816 201.183267 
L 113.00598 209.493076 
L 151.10988 207.740431 
L 196.10484 205.670821 
L 172.290748 206.766185 
L 293.243048 201.202805 
L 139.204527 208.288035 
L 128.497324 208.780529 
L 193.970845 205.768977 
L 295.813656 201.084566 
L 210.667109 205.001008 
L 263.835894 202.555431 
L 331.41464 199.447046 
L 226.385222 204.27803 
L 295.612272 201.093829 
L 364.72763 197.914765 
L 66.102102 211.65049 
L 193.375155 205.796377 
L 230.876595 204.071442 
L 228.084295 204.199878 
L 231.514593 204.042097 
L 160.258472 207.319628 
L 170.845521 206.832661 
L 291.389976 201.28804 
L 279.833237 201.819609 
L 228.216294 204.193807 
L 193.710231 205.780965 
L 364.174247 197.940219 
L 199.125601 205.531877 
L 219.147241 204.610951 
L 236.855503 203.796434 
L 208.120193 205.118157 
L 195.312842 205.70725 
L 208.23527 205.112864 
L 221.861696 204.486096 
L 329.468492 199.536562 
L 338.76939 199.108753 
L 268.828188 202.325803 
L 266.443733 202.435479 
L 311.851615 200.346876 
L 254.431764 202.987987 
L 250.558082 203.166163 
L 241.324876 203.590858 
L 329.536184 199.533448 
L 176.753352 206.560921 
L 155.750176 207.526994 
L 212.36449 204.922934 
L 297.260576 201.018013 
L 289.736595 201.364089 
L 276.988475 201.950458 
L 242.822564 203.52197 
L 277.467397 201.928429 
L 332.440176 199.399875 
L 287.516293 201.466215 
L 236.833503 203.797446 
L 257.460987 202.848654 
L 88.019122 210.642384 
L 260.18898 202.723176 
L 258.105755 202.818997 
L 229.532906 204.133247 
L 165.573996 207.075132 
L 259.54929 202.752599 
L 305.473323 200.640255 
L 315.486682 200.179676 
L 274.338328 202.072356 
L 239.898264 203.656477 
L 431.719148 194.833391 
L 308.675161 200.492982 
L 274.644635 202.058267 
" clip-path="url(#pe972f62dd9)" style="fill: none; stroke: #1f77b4; stroke-width: 1.5; stroke-linecap: square"/>
   </g>
   <g id="line2d_11">
    <defs>
     <path id="m4b42618d68" d="M 0 3 
C 0.795609 3 1.55874 2.683901 2.12132 2.12132 
C 2.683901 1.55874 3 0.795609 3 0 
C 3 -0.795609 2.683901 -1.55874 2.12132 -2.12132 
C 1.55874 -2.683901 0.795609 -3 0 -3 
C -0.795609 -3 -1.55874 -2.683901 -2.12132 -2.12132 
C -2.683901 -1.55874 -3 -0.795609 -3 0 
C -3 0.795609 -2.683901 1.55874 -2.12132 2.12132 
C -1.55874 2.683901 -0.795609 3 0 3 
z
" style="stroke: #000000"/>
    </defs>
    <g clip-path="url(#pe972f62dd9)">
     <use xlink:href="#m4b42618d68" x="152.235262" y="212.259162" style="stroke: #000000"/>
     <use xlink:href="#m4b42618d68" x="155.411715" y="238.479811" style="stroke: #000000"/>
     <use xlink:href="#m4b42618d68" x="129.340091" y="205.903827" style="stroke: #000000"/>
     <use xlink:href="#m4b42618d68" x="259.239598" y="177.677499" style="stroke: #000000"/>
     <use xlink:href="#m4b42618d68" x="180.879187" y="193.065861" style="stroke: #000000"/>
     <use xlink:href="#m4b42618d68" x="130.517934" y="246.313302" style="stroke: #000000"/>
     <use xlink:href="#m4b42618d68" x="265.831119" y="209.571013" style="stroke: #000000"/>
     <use xlink:href="#m4b42618d68" x="172.549671" y="192.97497" style="stroke: #000000"/>
     <use xlink:href="#m4b42618d68" x="214.376638" y="224.116941" style="stroke: #000000"/>
     <use xlink:href="#m4b42618d68" x="163.081234" y="150.855108" style="stroke: #000000"/>
     <use xlink:href="#m4b42618d68" x="339.253389" y="175.681767" style="stroke: #000000"/>
     <use xlink:href="#m4b42618d68" x="225.750609" y="193.715275" style="stroke: #000000"/>
     <use xlink:href="#m4b42618d68" x="173.725821" y="228.439689" style="stroke: #000000"/>
     <use xlink:href="#m4b42618d68" x="125.303948" y="234.840295" style="stroke: #000000"/>
     <use xlink:href="#m4b42618d68" x="192.820079" y="232.848272" style="stroke: #000000"/>
     <use xlink:href="#m4b42618d68" x="184.524408" y="235.365411" style="stroke: #000000"/>
     <use xlink:href="#m4b42618d68" x="293.667816" y="178.984111" style="stroke: #000000"/>
     <use xlink:href="#m4b42618d68" x="113.00598" y="230.344791" style="stroke: #000000"/>
     <use xlink:href="#m4b42618d68" x="151.10988" y="182.784691" style="stroke: #000000"/>
     <use xlink:href="#m4b42618d68" x="196.10484" y="173.185434" style="stroke: #000000"/>
     <use xlink:href="#m4b42618d68" x="172.290748" y="217.383715" style="stroke: #000000"/>
     <use xlink:href="#m4b42618d68" x="293.243048" y="199.954615" style="stroke: #000000"/>
     <use xlink:href="#m4b42618d68" x="139.204527" y="158.500748" style="stroke: #000000"/>
     <use xlink:href="#m4b42618d68" x="128.497324" y="164.42477" style="stroke: #000000"/>
     <use xlink:href="#m4b42618d68" x="193.970845" y="200.975425" style="stroke: #000000"/>
     <use xlink:href="#m4b42618d68" x="295.813656" y="203.26997" style="stroke: #000000"/>
     <use xlink:href="#m4b42618d68" x="210.667109" y="224.90703" style="stroke: #000000"/>
     <use xlink:href="#m4b42618d68" x="263.835894" y="175.817409" style="stroke: #000000"/>
     <use xlink:href="#m4b42618d68" x="331.41464" y="238.101615" style="stroke: #000000"/>
     <use xlink:href="#m4b42618d68" x="226.385222" y="211.041142" style="stroke: #000000"/>
     <use xlink:href="#m4b42618d68" x="295.612272" y="199.29565" style="stroke: #000000"/>
     <use xlink:href="#m4b42618d68" x="364.72763" y="191.840888" style="stroke: #000000"/>
     <use xlink:href="#m4b42618d68" x="66.102102" y="244.664766" style="stroke: #000000"/>
     <use xlink:href="#m4b42618d68" x="193.375155" y="221.510095" style="stroke: #000000"/>
     <use xlink:href="#m4b42618d68" x="230.876595" y="258.71706" style="stroke: #000000"/>
     <use xlink:href="#m4b42618d68" x="228.084295" y="208.705127" style="stroke: #000000"/>
     <use xlink:href="#m4b42618d68" x="231.514593" y="247.559316" style="stroke: #000000"/>
     <use xlink:href="#m4b42618d68" x="160.258472" y="149.559921" style="stroke: #000000"/>
     <use xlink:href="#m4b42618d68" x="170.845521" y="225.950615" style="stroke: #000000"/>
     <use xlink:href="#m4b42618d68" x="291.389976" y="214.987656" style="stroke: #000000"/>
     <use xlink:href="#m4b42618d68" x="279.833237" y="145.377015" style="stroke: #000000"/>
     <use xlink:href="#m4b42618d68" x="228.216294" y="189.409211" style="stroke: #000000"/>
     <use xlink:href="#m4b42618d68" x="193.710231" y="254.30727" style="stroke: #000000"/>
     <use xlink:href="#m4b42618d68" x="364.174247" y="226.32623" style="stroke: #000000"/>
     <use xlink:href="#m4b42618d68" x="199.125601" y="134.005698" style="stroke: #000000"/>
     <use xlink:href="#m4b42618d68" x="219.147241" y="218.449066" style="stroke: #000000"/>
     <use xlink:href="#m4b42618d68" x="236.855503" y="150.773762" style="stroke: #000000"/>
     <use xlink:href="#m4b42618d68" x="208.120193" y="185.304957" style="stroke: #000000"/>
     <use xlink:href="#m4b42618d68" x="195.312842" y="211.115683" style="stroke: #000000"/>
     <use xlink:href="#m4b42618d68" x="208.23527" y="158.191511" style="stroke: #000000"/>
     <use xlink:href="#m4b42618d68" x="221.861696" y="221.635464" style="stroke: #000000"/>
     <use xlink:href="#m4b42618d68" x="329.468492" y="229.412966" style="stroke: #000000"/>
     <use xlink:href="#m4b42618d68" x="338.76939" y="231.057182" style="stroke: #000000"/>
     <use xlink:href="#m4b42618d68" x="268.828188" y="195.132276" style="stroke: #000000"/>
     <use xlink:href="#m4b42618d68" x="266.443733" y="201.935686" style="stroke: #000000"/>
     <use xlink:href="#m4b42618d68" x="311.851615" y="199.811457" style="stroke: #000000"/>
     <use xlink:href="#m4b42618d68" x="254.431764" y="238.386579" style="stroke: #000000"/>
     <use xlink:href="#m4b42618d68" x="250.558082" y="197.429484" style="stroke: #000000"/>
     <use xlink:href="#m4b42618d68" x="241.324876" y="231.976972" style="stroke: #000000"/>
     <use xlink:href="#m4b42618d68" x="329.536184" y="202.346852" style="stroke: #000000"/>
     <use xlink:href="#m4b42618d68" x="176.753352" y="221.254146" style="stroke: #000000"/>
     <use xlink:href="#m4b42618d68" x="155.750176" y="199.170272" style="stroke: #000000"/>
     <use xlink:href="#m4b42618d68" x="212.36449" y="186.515837" style="stroke: #000000"/>
     <use xlink:href="#m4b42618d68" x="297.260576" y="258.882043" style="stroke: #000000"/>
     <use xlink:href="#m4b42618d68" x="289.736595" y="202.691167" style="stroke: #000000"/>
     <use xlink:href="#m4b42618d68" x="276.988475" y="200.45264" style="stroke: #000000"/>
     <use xlink:href="#m4b42618d68" x="242.822564" y="219.427012" style="stroke: #000000"/>
     <use xlink:href="#m4b42618d68" x="277.467397" y="224.141924" style="stroke: #000000"/>
     <use xlink:href="#m4b42618d68" x="332.440176" y="185.967646" style="stroke: #000000"/>
     <use xlink:href="#m4b42618d68" x="287.516293" y="204.562244" style="stroke: #000000"/>
     <use xlink:href="#m4b42618d68" x="236.833503" y="210.983774" style="stroke: #000000"/>
     <use xlink:href="#m4b42618d68" x="257.460987" y="235.923849" style="stroke: #000000"/>
     <use xlink:href="#m4b42618d68" x="88.019122" y="231.596968" style="stroke: #000000"/>
     <use xlink:href="#m4b42618d68" x="260.18898" y="217.52725" style="stroke: #000000"/>
     <use xlink:href="#m4b42618d68" x="258.105755" y="230.656512" style="stroke: #000000"/>
     <use xlink:href="#m4b42618d68" x="229.532906" y="216.295943" style="stroke: #000000"/>
     <use xlink:href="#m4b42618d68" x="165.573996" y="227.746422" style="stroke: #000000"/>
     <use xlink:href="#m4b42618d68" x="259.54929" y="225.424406" style="stroke: #000000"/>
     <use xlink:href="#m4b42618d68" x="305.473323" y="118.564482" style="stroke: #000000"/>
     <use xlink:href="#m4b42618d68" x="315.486682" y="196.913395" style="stroke: #000000"/>
     <use xlink:href="#m4b42618d68" x="274.338328" y="174.507354" style="stroke: #000000"/>
     <use xlink:href="#m4b42618d68" x="239.898264" y="142.762452" style="stroke: #000000"/>
     <use xlink:href="#m4b42618d68" x="431.719148" y="211.422825" style="stroke: #000000"/>
     <use xlink:href="#m4b42618d68" x="308.675161" y="221.765379" style="stroke: #000000"/>
     <use xlink:href="#m4b42618d68" x="274.644635" y="70.951855" style="stroke: #000000"/>
    </g>
   </g>
   <g id="patch_3">
    <path d="M 47.82125 303.64 
L 47.82125 46.675714 
" style="fill: none; stroke: #000000; stroke-width: 0.8; stroke-linejoin: miter; stroke-linecap: square"/>
   </g>
   <g id="patch_4">
    <path d="M 450 303.64 
L 450 46.675714 
" style="fill: none; stroke: #000000; stroke-width: 0.8; stroke-linejoin: miter; stroke-linecap: square"/>
   </g>
   <g id="patch_5">
    <path d="M 47.82125 303.64 
L 450 303.64 
" style="fill: none; stroke: #000000; stroke-width: 0.8; stroke-linejoin: miter; stroke-linecap: square"/>
   </g>
   <g id="patch_6">
    <path d="M 47.82125 46.675714 
L 450 46.675714 
" style="fill: none; stroke: #000000; stroke-width: 0.8; stroke-linejoin: miter; stroke-linecap: square"/>
   </g>
   <g id="text_12">
    <!-- y = 0.00x + 0.47 -->
    <g transform="translate(45.118812 18.599375)scale(0.1 -0.1)">
     <defs>
      <path id="DejaVuSans-79" d="M 2059 -325 
Q 1816 -950 1584 -1140 
Q 1353 -1331 966 -1331 
L 506 -1331 
L 506 -850 
L 844 -850 
Q 1081 -850 1212 -737 
Q 1344 -625 1503 -206 
L 1606 56 
L 191 3500 
L 800 3500 
L 1894 763 
L 2988 3500 
L 3597 3500 
L 2059 -325 
z
" transform="scale(0.015625)"/>
      <path id="DejaVuSans-20" transform="scale(0.015625)"/>
      <path id="DejaVuSans-3d" d="M 678 2906 
L 4684 2906 
L 4684 2381 
L 678 2381 
L 678 2906 
z
M 678 1631 
L 4684 1631 
L 4684 1100 
L 678 1100 
L 678 1631 
z
" transform="scale(0.015625)"/>
      <path id="DejaVuSans-78" d="M 3513 3500 
L 2247 1797 
L 3578 0 
L 2900 0 
L 1881 1375 
L 863 0 
L 184 0 
L 1544 1831 
L 300 3500 
L 978 3500 
L 1906 2253 
L 2834 3500 
L 3513 3500 
z
" transform="scale(0.015625)"/>
      <path id="DejaVuSans-2b" d="M 2944 4013 
L 2944 2272 
L 4684 2272 
L 4684 1741 
L 2944 1741 
L 2944 0 
L 2419 0 
L 2419 1741 
L 678 1741 
L 678 2272 
L 2419 2272 
L 2419 4013 
L 2944 4013 
z
" transform="scale(0.015625)"/>
      <path id="DejaVuSans-37" d="M 525 4666 
L 3525 4666 
L 3525 4397 
L 1831 0 
L 1172 0 
L 2766 4134 
L 525 4134 
L 525 4666 
z
" transform="scale(0.015625)"/>
     </defs>
     <use xlink:href="#DejaVuSans-79"/>
     <use xlink:href="#DejaVuSans-20" x="59.179688"/>
     <use xlink:href="#DejaVuSans-3d" x="90.966797"/>
     <use xlink:href="#DejaVuSans-20" x="174.755859"/>
     <use xlink:href="#DejaVuSans-30" x="206.542969"/>
     <use xlink:href="#DejaVuSans-2e" x="270.166016"/>
     <use xlink:href="#DejaVuSans-30" x="301.953125"/>
     <use xlink:href="#DejaVuSans-30" x="365.576172"/>
     <use xlink:href="#DejaVuSans-78" x="429.199219"/>
     <use xlink:href="#DejaVuSans-20" x="488.378906"/>
     <use xlink:href="#DejaVuSans-2b" x="520.166016"/>
     <use xlink:href="#DejaVuSans-20" x="603.955078"/>
     <use xlink:href="#DejaVuSans-30" x="635.742188"/>
     <use xlink:href="#DejaVuSans-2e" x="699.365234"/>
     <use xlink:href="#DejaVuSans-34" x="731.152344"/>
     <use xlink:href="#DejaVuSans-37" x="794.775391"/>
    </g>
   </g>
   <g id="text_13">
    <!-- r^2 = 0.01 -->
    <g transform="translate(60.111781 26.308304)scale(0.1 -0.1)">
     <defs>
      <path id="DejaVuSans-5e" d="M 2988 4666 
L 4684 2925 
L 4056 2925 
L 2681 4159 
L 1306 2925 
L 678 2925 
L 2375 4666 
L 2988 4666 
z
" transform="scale(0.015625)"/>
      <path id="DejaVuSans-31" d="M 794 531 
L 1825 531 
L 1825 4091 
L 703 3866 
L 703 4441 
L 1819 4666 
L 2450 4666 
L 2450 531 
L 3481 531 
L 3481 0 
L 794 0 
L 794 531 
z
" transform="scale(0.015625)"/>
     </defs>
     <use xlink:href="#DejaVuSans-72"/>
     <use xlink:href="#DejaVuSans-5e" x="41.113281"/>
     <use xlink:href="#DejaVuSans-32" x="124.902344"/>
     <use xlink:href="#DejaVuSans-20" x="188.525391"/>
     <use xlink:href="#DejaVuSans-3d" x="220.3125"/>
     <use xlink:href="#DejaVuSans-20" x="304.101562"/>
     <use xlink:href="#DejaVuSans-30" x="335.888672"/>
     <use xlink:href="#DejaVuSans-2e" x="399.511719"/>
     <use xlink:href="#DejaVuSans-30" x="431.298828"/>
     <use xlink:href="#DejaVuSans-31" x="494.921875"/>
    </g>
   </g>
   <g id="text_14">
    <!-- n = 85 -->
    <g transform="translate(71.139906 34.017232)scale(0.1 -0.1)">
     <use xlink:href="#DejaVuSans-6e"/>
     <use xlink:href="#DejaVuSans-20" x="63.378906"/>
     <use xlink:href="#DejaVuSans-3d" x="95.166016"/>
     <use xlink:href="#DejaVuSans-20" x="178.955078"/>
     <use xlink:href="#DejaVuSans-38" x="210.742188"/>
     <use xlink:href="#DejaVuSans-35" x="274.365234"/>
    </g>
   </g>
   <g id="text_15">
    <!-- VDWDiff vs PercentGpA_transformed -->
    <g transform="translate(138.205938 40.675714)scale(0.12 -0.12)">
     <defs>
      <path id="DejaVuSans-76" d="M 191 3500 
L 800 3500 
L 1894 563 
L 2988 3500 
L 3597 3500 
L 2284 0 
L 1503 0 
L 191 3500 
z
" transform="scale(0.015625)"/>
     </defs>
     <use xlink:href="#DejaVuSans-56"/>
     <use xlink:href="#DejaVuSans-44" x="68.408203"/>
     <use xlink:href="#DejaVuSans-57" x="145.410156"/>
     <use xlink:href="#DejaVuSans-44" x="244.287109"/>
     <use xlink:href="#DejaVuSans-69" x="321.289062"/>
     <use xlink:href="#DejaVuSans-66" x="349.072266"/>
     <use xlink:href="#DejaVuSans-66" x="384.277344"/>
     <use xlink:href="#DejaVuSans-20" x="419.482422"/>
     <use xlink:href="#DejaVuSans-76" x="451.269531"/>
     <use xlink:href="#DejaVuSans-73" x="510.449219"/>
     <use xlink:href="#DejaVuSans-20" x="562.548828"/>
     <use xlink:href="#DejaVuSans-50" x="594.335938"/>
     <use xlink:href="#DejaVuSans-65" x="651.013672"/>
     <use xlink:href="#DejaVuSans-72" x="712.537109"/>
     <use xlink:href="#DejaVuSans-63" x="751.400391"/>
     <use xlink:href="#DejaVuSans-65" x="806.380859"/>
     <use xlink:href="#DejaVuSans-6e" x="867.904297"/>
     <use xlink:href="#DejaVuSans-74" x="931.283203"/>
     <use xlink:href="#DejaVuSans-47" x="970.492188"/>
     <use xlink:href="#DejaVuSans-70" x="1047.982422"/>
     <use xlink:href="#DejaVuSans-41" x="1111.458984"/>
     <use xlink:href="#DejaVuSans-5f" x="1179.867188"/>
     <use xlink:href="#DejaVuSans-74" x="1229.867188"/>
     <use xlink:href="#DejaVuSans-72" x="1269.076172"/>
     <use xlink:href="#DejaVuSans-61" x="1310.189453"/>
     <use xlink:href="#DejaVuSans-6e" x="1371.46875"/>
     <use xlink:href="#DejaVuSans-73" x="1434.847656"/>
     <use xlink:href="#DejaVuSans-66" x="1486.947266"/>
     <use xlink:href="#DejaVuSans-6f" x="1522.152344"/>
     <use xlink:href="#DejaVuSans-72" x="1583.333984"/>
     <use xlink:href="#DejaVuSans-6d" x="1622.697266"/>
     <use xlink:href="#DejaVuSans-65" x="1720.109375"/>
     <use xlink:href="#DejaVuSans-64" x="1781.632812"/>
    </g>
   </g>
  </g>
 </g>
 <defs>
  <clipPath id="pe972f62dd9">
   <rect x="47.82125" y="46.675714" width="402.17875" height="256.964286"/>
  </clipPath>
 </defs>
</svg>
