<?xml version="1.0" encoding="utf-8" standalone="no"?>
<!DOCTYPE svg PUBLIC "-//W3C//DTD SVG 1.1//EN"
  "http://www.w3.org/Graphics/SVG/1.1/DTD/svg11.dtd">
<svg xmlns:xlink="http://www.w3.org/1999/xlink" width="460.8pt" height="345.6pt" viewBox="0 0 460.8 345.6" xmlns="http://www.w3.org/2000/svg" version="1.1">
 <metadata>
  <rdf:RDF xmlns:dc="http://purl.org/dc/elements/1.1/" xmlns:cc="http://creativecommons.org/ns#" xmlns:rdf="http://www.w3.org/1999/02/22-rdf-syntax-ns#">
   <cc:Work>
    <dc:type rdf:resource="http://purl.org/dc/dcmitype/StillImage"/>
    <dc:date>2024-02-20T13:08:52.713084</dc:date>
    <dc:format>image/svg+xml</dc:format>
    <dc:creator>
     <cc:Agent>
      <dc:title>Matplotlib v3.7.1, https://matplotlib.org/</dc:title>
     </cc:Agent>
    </dc:creator>
   </cc:Work>
  </rdf:RDF>
 </metadata>
 <defs>
  <style type="text/css">*{stroke-linejoin: round; stroke-linecap: butt}</style>
 </defs>
 <g id="figure_1">
  <g id="patch_1">
   <path d="M 0 345.6 
L 460.8 345.6 
L 460.8 0 
L 0 0 
z
" style="fill: #ffffff"/>
  </g>
  <g id="axes_1">
   <g id="patch_2">
    <path d="M 63.57125 303.64 
L 450 303.64 
L 450 13.022553 
L 63.57125 13.022553 
z
" style="fill: #ffffff"/>
   </g>
   <g id="matplotlib.axis_1">
    <g id="xtick_1">
     <g id="text_1">
      <!-- G -->
      <g style="fill: #262626" transform="translate(252.911406 318.238437) scale(0.1 -0.1)">
       <defs>
        <path id="DejaVuSans-47" d="M 3809 666 
L 3809 1919 
L 2778 1919 
L 2778 2438 
L 4434 2438 
L 4434 434 
Q 4069 175 3628 42 
Q 3188 -91 2688 -91 
Q 1594 -91 976 548 
Q 359 1188 359 2328 
Q 359 3472 976 4111 
Q 1594 4750 2688 4750 
Q 3144 4750 3555 4637 
Q 3966 4525 4313 4306 
L 4313 3634 
Q 3963 3931 3569 4081 
Q 3175 4231 2741 4231 
Q 1884 4231 1454 3753 
Q 1025 3275 1025 2328 
Q 1025 1384 1454 906 
Q 1884 428 2741 428 
Q 3075 428 3337 486 
Q 3600 544 3809 666 
z
" transform="scale(0.015625)"/>
       </defs>
       <use xlink:href="#DejaVuSans-47"/>
      </g>
     </g>
    </g>
    <g id="text_2">
     <!-- WT_AA -->
     <g style="fill: #262626" transform="translate(239.309844 331.638437) scale(0.1 -0.1)">
      <defs>
       <path id="DejaVuSans-57" d="M 213 4666 
L 850 4666 
L 1831 722 
L 2809 4666 
L 3519 4666 
L 4500 722 
L 5478 4666 
L 6119 4666 
L 4947 0 
L 4153 0 
L 3169 4050 
L 2175 0 
L 1381 0 
L 213 4666 
z
" transform="scale(0.015625)"/>
       <path id="DejaVuSans-54" d="M -19 4666 
L 3928 4666 
L 3928 4134 
L 2272 4134 
L 2272 0 
L 1638 0 
L 1638 4134 
L -19 4134 
L -19 4666 
z
" transform="scale(0.015625)"/>
       <path id="DejaVuSans-5f" d="M 3263 -1063 
L 3263 -1509 
L -63 -1509 
L -63 -1063 
L 3263 -1063 
z
" transform="scale(0.015625)"/>
       <path id="DejaVuSans-41" d="M 2188 4044 
L 1331 1722 
L 3047 1722 
L 2188 4044 
z
M 1831 4666 
L 2547 4666 
L 4325 0 
L 3669 0 
L 3244 1197 
L 1141 1197 
L 716 0 
L 50 0 
L 1831 4666 
z
" transform="scale(0.015625)"/>
      </defs>
      <use xlink:href="#DejaVuSans-57"/>
      <use xlink:href="#DejaVuSans-54" x="98.876953"/>
      <use xlink:href="#DejaVuSans-5f" x="159.960938"/>
      <use xlink:href="#DejaVuSans-41" x="209.960938"/>
      <use xlink:href="#DejaVuSans-41" x="281.119141"/>
     </g>
    </g>
   </g>
   <g id="matplotlib.axis_2">
    <g id="ytick_1">
     <g id="line2d_1">
      <path d="M 63.57125 303.64 
L 450 303.64 
" clip-path="url(#pddbb7eb3a8)" style="fill: none; stroke: #cccccc; stroke-width: 0.8; stroke-linecap: round"/>
     </g>
     <g id="text_3">
      <!-- 0 -->
      <g style="fill: #262626" transform="translate(50.20875 307.439219) scale(0.1 -0.1)">
       <defs>
        <path id="DejaVuSans-30" d="M 2034 4250 
Q 1547 4250 1301 3770 
Q 1056 3291 1056 2328 
Q 1056 1369 1301 889 
Q 1547 409 2034 409 
Q 2525 409 2770 889 
Q 3016 1369 3016 2328 
Q 3016 3291 2770 3770 
Q 2525 4250 2034 4250 
z
M 2034 4750 
Q 2819 4750 3233 4129 
Q 3647 3509 3647 2328 
Q 3647 1150 3233 529 
Q 2819 -91 2034 -91 
Q 1250 -91 836 529 
Q 422 1150 422 2328 
Q 422 3509 836 4129 
Q 1250 4750 2034 4750 
z
" transform="scale(0.015625)"/>
       </defs>
       <use xlink:href="#DejaVuSans-30"/>
      </g>
     </g>
    </g>
    <g id="ytick_2">
     <g id="line2d_2">
      <path d="M 63.57125 262.414394 
L 450 262.414394 
" clip-path="url(#pddbb7eb3a8)" style="fill: none; stroke: #cccccc; stroke-width: 0.8; stroke-linecap: round"/>
     </g>
     <g id="text_4">
      <!-- 5000 -->
      <g style="fill: #262626" transform="translate(31.12125 266.213613) scale(0.1 -0.1)">
       <defs>
        <path id="DejaVuSans-35" d="M 691 4666 
L 3169 4666 
L 3169 4134 
L 1269 4134 
L 1269 2991 
Q 1406 3038 1543 3061 
Q 1681 3084 1819 3084 
Q 2600 3084 3056 2656 
Q 3513 2228 3513 1497 
Q 3513 744 3044 326 
Q 2575 -91 1722 -91 
Q 1428 -91 1123 -41 
Q 819 9 494 109 
L 494 744 
Q 775 591 1075 516 
Q 1375 441 1709 441 
Q 2250 441 2565 725 
Q 2881 1009 2881 1497 
Q 2881 1984 2565 2268 
Q 2250 2553 1709 2553 
Q 1456 2553 1204 2497 
Q 953 2441 691 2322 
L 691 4666 
z
" transform="scale(0.015625)"/>
       </defs>
       <use xlink:href="#DejaVuSans-35"/>
       <use xlink:href="#DejaVuSans-30" x="63.623047"/>
       <use xlink:href="#DejaVuSans-30" x="127.246094"/>
       <use xlink:href="#DejaVuSans-30" x="190.869141"/>
      </g>
     </g>
    </g>
    <g id="ytick_3">
     <g id="line2d_3">
      <path d="M 63.57125 221.188788 
L 450 221.188788 
" clip-path="url(#pddbb7eb3a8)" style="fill: none; stroke: #cccccc; stroke-width: 0.8; stroke-linecap: round"/>
     </g>
     <g id="text_5">
      <!-- 10000 -->
      <g style="fill: #262626" transform="translate(24.75875 224.988007) scale(0.1 -0.1)">
       <defs>
        <path id="DejaVuSans-31" d="M 794 531 
L 1825 531 
L 1825 4091 
L 703 3866 
L 703 4441 
L 1819 4666 
L 2450 4666 
L 2450 531 
L 3481 531 
L 3481 0 
L 794 0 
L 794 531 
z
" transform="scale(0.015625)"/>
       </defs>
       <use xlink:href="#DejaVuSans-31"/>
       <use xlink:href="#DejaVuSans-30" x="63.623047"/>
       <use xlink:href="#DejaVuSans-30" x="127.246094"/>
       <use xlink:href="#DejaVuSans-30" x="190.869141"/>
       <use xlink:href="#DejaVuSans-30" x="254.492188"/>
      </g>
     </g>
    </g>
    <g id="ytick_4">
     <g id="line2d_4">
      <path d="M 63.57125 179.963182 
L 450 179.963182 
" clip-path="url(#pddbb7eb3a8)" style="fill: none; stroke: #cccccc; stroke-width: 0.8; stroke-linecap: round"/>
     </g>
     <g id="text_6">
      <!-- 15000 -->
      <g style="fill: #262626" transform="translate(24.75875 183.762401) scale(0.1 -0.1)">
       <use xlink:href="#DejaVuSans-31"/>
       <use xlink:href="#DejaVuSans-35" x="63.623047"/>
       <use xlink:href="#DejaVuSans-30" x="127.246094"/>
       <use xlink:href="#DejaVuSans-30" x="190.869141"/>
       <use xlink:href="#DejaVuSans-30" x="254.492188"/>
      </g>
     </g>
    </g>
    <g id="ytick_5">
     <g id="line2d_5">
      <path d="M 63.57125 138.737576 
L 450 138.737576 
" clip-path="url(#pddbb7eb3a8)" style="fill: none; stroke: #cccccc; stroke-width: 0.8; stroke-linecap: round"/>
     </g>
     <g id="text_7">
      <!-- 20000 -->
      <g style="fill: #262626" transform="translate(24.75875 142.536795) scale(0.1 -0.1)">
       <defs>
        <path id="DejaVuSans-32" d="M 1228 531 
L 3431 531 
L 3431 0 
L 469 0 
L 469 531 
Q 828 903 1448 1529 
Q 2069 2156 2228 2338 
Q 2531 2678 2651 2914 
Q 2772 3150 2772 3378 
Q 2772 3750 2511 3984 
Q 2250 4219 1831 4219 
Q 1534 4219 1204 4116 
Q 875 4013 500 3803 
L 500 4441 
Q 881 4594 1212 4672 
Q 1544 4750 1819 4750 
Q 2544 4750 2975 4387 
Q 3406 4025 3406 3419 
Q 3406 3131 3298 2873 
Q 3191 2616 2906 2266 
Q 2828 2175 2409 1742 
Q 1991 1309 1228 531 
z
" transform="scale(0.015625)"/>
       </defs>
       <use xlink:href="#DejaVuSans-32"/>
       <use xlink:href="#DejaVuSans-30" x="63.623047"/>
       <use xlink:href="#DejaVuSans-30" x="127.246094"/>
       <use xlink:href="#DejaVuSans-30" x="190.869141"/>
       <use xlink:href="#DejaVuSans-30" x="254.492188"/>
      </g>
     </g>
    </g>
    <g id="ytick_6">
     <g id="line2d_6">
      <path d="M 63.57125 97.51197 
L 450 97.51197 
" clip-path="url(#pddbb7eb3a8)" style="fill: none; stroke: #cccccc; stroke-width: 0.8; stroke-linecap: round"/>
     </g>
     <g id="text_8">
      <!-- 25000 -->
      <g style="fill: #262626" transform="translate(24.75875 101.311189) scale(0.1 -0.1)">
       <use xlink:href="#DejaVuSans-32"/>
       <use xlink:href="#DejaVuSans-35" x="63.623047"/>
       <use xlink:href="#DejaVuSans-30" x="127.246094"/>
       <use xlink:href="#DejaVuSans-30" x="190.869141"/>
       <use xlink:href="#DejaVuSans-30" x="254.492188"/>
      </g>
     </g>
    </g>
    <g id="ytick_7">
     <g id="line2d_7">
      <path d="M 63.57125 56.286364 
L 450 56.286364 
" clip-path="url(#pddbb7eb3a8)" style="fill: none; stroke: #cccccc; stroke-width: 0.8; stroke-linecap: round"/>
     </g>
     <g id="text_9">
      <!-- 30000 -->
      <g style="fill: #262626" transform="translate(24.75875 60.085583) scale(0.1 -0.1)">
       <defs>
        <path id="DejaVuSans-33" d="M 2597 2516 
Q 3050 2419 3304 2112 
Q 3559 1806 3559 1356 
Q 3559 666 3084 287 
Q 2609 -91 1734 -91 
Q 1441 -91 1130 -33 
Q 819 25 488 141 
L 488 750 
Q 750 597 1062 519 
Q 1375 441 1716 441 
Q 2309 441 2620 675 
Q 2931 909 2931 1356 
Q 2931 1769 2642 2001 
Q 2353 2234 1838 2234 
L 1294 2234 
L 1294 2753 
L 1863 2753 
Q 2328 2753 2575 2939 
Q 2822 3125 2822 3475 
Q 2822 3834 2567 4026 
Q 2313 4219 1838 4219 
Q 1578 4219 1281 4162 
Q 984 4106 628 3988 
L 628 4550 
Q 988 4650 1302 4700 
Q 1616 4750 1894 4750 
Q 2613 4750 3031 4423 
Q 3450 4097 3450 3541 
Q 3450 3153 3228 2886 
Q 3006 2619 2597 2516 
z
" transform="scale(0.015625)"/>
       </defs>
       <use xlink:href="#DejaVuSans-33"/>
       <use xlink:href="#DejaVuSans-30" x="63.623047"/>
       <use xlink:href="#DejaVuSans-30" x="127.246094"/>
       <use xlink:href="#DejaVuSans-30" x="190.869141"/>
       <use xlink:href="#DejaVuSans-30" x="254.492188"/>
      </g>
     </g>
    </g>
    <g id="ytick_8">
     <g id="line2d_8">
      <path d="M 63.57125 15.060758 
L 450 15.060758 
" clip-path="url(#pddbb7eb3a8)" style="fill: none; stroke: #cccccc; stroke-width: 0.8; stroke-linecap: round"/>
     </g>
     <g id="text_10">
      <!-- 35000 -->
      <g style="fill: #262626" transform="translate(24.75875 18.859977) scale(0.1 -0.1)">
       <use xlink:href="#DejaVuSans-33"/>
       <use xlink:href="#DejaVuSans-35" x="63.623047"/>
       <use xlink:href="#DejaVuSans-30" x="127.246094"/>
       <use xlink:href="#DejaVuSans-30" x="190.869141"/>
       <use xlink:href="#DejaVuSans-30" x="254.492188"/>
      </g>
     </g>
    </g>
    <g id="text_11">
     <!-- toxgreen_fluor -->
     <g style="fill: #262626" transform="translate(18.400937 194.525808) rotate(-90) scale(0.1 -0.1)">
      <defs>
       <path id="DejaVuSans-74" d="M 1172 4494 
L 1172 3500 
L 2356 3500 
L 2356 3053 
L 1172 3053 
L 1172 1153 
Q 1172 725 1289 603 
Q 1406 481 1766 481 
L 2356 481 
L 2356 0 
L 1766 0 
Q 1100 0 847 248 
Q 594 497 594 1153 
L 594 3053 
L 172 3053 
L 172 3500 
L 594 3500 
L 594 4494 
L 1172 4494 
z
" transform="scale(0.015625)"/>
       <path id="DejaVuSans-6f" d="M 1959 3097 
Q 1497 3097 1228 2736 
Q 959 2375 959 1747 
Q 959 1119 1226 758 
Q 1494 397 1959 397 
Q 2419 397 2687 759 
Q 2956 1122 2956 1747 
Q 2956 2369 2687 2733 
Q 2419 3097 1959 3097 
z
M 1959 3584 
Q 2709 3584 3137 3096 
Q 3566 2609 3566 1747 
Q 3566 888 3137 398 
Q 2709 -91 1959 -91 
Q 1206 -91 779 398 
Q 353 888 353 1747 
Q 353 2609 779 3096 
Q 1206 3584 1959 3584 
z
" transform="scale(0.015625)"/>
       <path id="DejaVuSans-78" d="M 3513 3500 
L 2247 1797 
L 3578 0 
L 2900 0 
L 1881 1375 
L 863 0 
L 184 0 
L 1544 1831 
L 300 3500 
L 978 3500 
L 1906 2253 
L 2834 3500 
L 3513 3500 
z
" transform="scale(0.015625)"/>
       <path id="DejaVuSans-67" d="M 2906 1791 
Q 2906 2416 2648 2759 
Q 2391 3103 1925 3103 
Q 1463 3103 1205 2759 
Q 947 2416 947 1791 
Q 947 1169 1205 825 
Q 1463 481 1925 481 
Q 2391 481 2648 825 
Q 2906 1169 2906 1791 
z
M 3481 434 
Q 3481 -459 3084 -895 
Q 2688 -1331 1869 -1331 
Q 1566 -1331 1297 -1286 
Q 1028 -1241 775 -1147 
L 775 -588 
Q 1028 -725 1275 -790 
Q 1522 -856 1778 -856 
Q 2344 -856 2625 -561 
Q 2906 -266 2906 331 
L 2906 616 
Q 2728 306 2450 153 
Q 2172 0 1784 0 
Q 1141 0 747 490 
Q 353 981 353 1791 
Q 353 2603 747 3093 
Q 1141 3584 1784 3584 
Q 2172 3584 2450 3431 
Q 2728 3278 2906 2969 
L 2906 3500 
L 3481 3500 
L 3481 434 
z
" transform="scale(0.015625)"/>
       <path id="DejaVuSans-72" d="M 2631 2963 
Q 2534 3019 2420 3045 
Q 2306 3072 2169 3072 
Q 1681 3072 1420 2755 
Q 1159 2438 1159 1844 
L 1159 0 
L 581 0 
L 581 3500 
L 1159 3500 
L 1159 2956 
Q 1341 3275 1631 3429 
Q 1922 3584 2338 3584 
Q 2397 3584 2469 3576 
Q 2541 3569 2628 3553 
L 2631 2963 
z
" transform="scale(0.015625)"/>
       <path id="DejaVuSans-65" d="M 3597 1894 
L 3597 1613 
L 953 1613 
Q 991 1019 1311 708 
Q 1631 397 2203 397 
Q 2534 397 2845 478 
Q 3156 559 3463 722 
L 3463 178 
Q 3153 47 2828 -22 
Q 2503 -91 2169 -91 
Q 1331 -91 842 396 
Q 353 884 353 1716 
Q 353 2575 817 3079 
Q 1281 3584 2069 3584 
Q 2775 3584 3186 3129 
Q 3597 2675 3597 1894 
z
M 3022 2063 
Q 3016 2534 2758 2815 
Q 2500 3097 2075 3097 
Q 1594 3097 1305 2825 
Q 1016 2553 972 2059 
L 3022 2063 
z
" transform="scale(0.015625)"/>
       <path id="DejaVuSans-6e" d="M 3513 2113 
L 3513 0 
L 2938 0 
L 2938 2094 
Q 2938 2591 2744 2837 
Q 2550 3084 2163 3084 
Q 1697 3084 1428 2787 
Q 1159 2491 1159 1978 
L 1159 0 
L 581 0 
L 581 3500 
L 1159 3500 
L 1159 2956 
Q 1366 3272 1645 3428 
Q 1925 3584 2291 3584 
Q 2894 3584 3203 3211 
Q 3513 2838 3513 2113 
z
" transform="scale(0.015625)"/>
       <path id="DejaVuSans-66" d="M 2375 4863 
L 2375 4384 
L 1825 4384 
Q 1516 4384 1395 4259 
Q 1275 4134 1275 3809 
L 1275 3500 
L 2222 3500 
L 2222 3053 
L 1275 3053 
L 1275 0 
L 697 0 
L 697 3053 
L 147 3053 
L 147 3500 
L 697 3500 
L 697 3744 
Q 697 4328 969 4595 
Q 1241 4863 1831 4863 
L 2375 4863 
z
" transform="scale(0.015625)"/>
       <path id="DejaVuSans-6c" d="M 603 4863 
L 1178 4863 
L 1178 0 
L 603 0 
L 603 4863 
z
" transform="scale(0.015625)"/>
       <path id="DejaVuSans-75" d="M 544 1381 
L 544 3500 
L 1119 3500 
L 1119 1403 
Q 1119 906 1312 657 
Q 1506 409 1894 409 
Q 2359 409 2629 706 
Q 2900 1003 2900 1516 
L 2900 3500 
L 3475 3500 
L 3475 0 
L 2900 0 
L 2900 538 
Q 2691 219 2414 64 
Q 2138 -91 1772 -91 
Q 1169 -91 856 284 
Q 544 659 544 1381 
z
M 1991 3584 
L 1991 3584 
z
" transform="scale(0.015625)"/>
      </defs>
      <use xlink:href="#DejaVuSans-74"/>
      <use xlink:href="#DejaVuSans-6f" x="39.208984"/>
      <use xlink:href="#DejaVuSans-78" x="97.265625"/>
      <use xlink:href="#DejaVuSans-67" x="156.445312"/>
      <use xlink:href="#DejaVuSans-72" x="219.921875"/>
      <use xlink:href="#DejaVuSans-65" x="258.785156"/>
      <use xlink:href="#DejaVuSans-65" x="320.308594"/>
      <use xlink:href="#DejaVuSans-6e" x="381.832031"/>
      <use xlink:href="#DejaVuSans-5f" x="445.210938"/>
      <use xlink:href="#DejaVuSans-66" x="495.210938"/>
      <use xlink:href="#DejaVuSans-6c" x="530.416016"/>
      <use xlink:href="#DejaVuSans-75" x="558.199219"/>
      <use xlink:href="#DejaVuSans-6f" x="621.578125"/>
      <use xlink:href="#DejaVuSans-72" x="682.759766"/>
     </g>
    </g>
   </g>
   <g id="patch_3">
    <path d="M 103.75984 263.043965 
L 255.23991 263.043965 
L 255.23991 241.135212 
L 103.75984 241.135212 
L 103.75984 263.043965 
z
" clip-path="url(#pddbb7eb3a8)" style="fill: #ecf2ec; stroke: #262626; stroke-width: 1.5; stroke-linejoin: miter"/>
   </g>
   <g id="patch_4">
    <path d="M 258.33134 240.446657 
L 409.81141 240.446657 
L 409.81141 103.728148 
L 258.33134 103.728148 
L 258.33134 240.446657 
z
" clip-path="url(#pddbb7eb3a8)" style="fill: #107010; stroke: #262626; stroke-width: 1.5; stroke-linejoin: miter"/>
   </g>
   <g id="patch_5">
    <path d="M 256.785625 303.64 
L 256.785625 303.64 
L 256.785625 303.64 
L 256.785625 303.64 
z
" clip-path="url(#pddbb7eb3a8)" style="fill: #ecf2ec; stroke: #262626; stroke-width: 0.75; stroke-linejoin: miter"/>
   </g>
   <g id="patch_6">
    <path d="M 256.785625 303.64 
L 256.785625 303.64 
L 256.785625 303.64 
L 256.785625 303.64 
z
" clip-path="url(#pddbb7eb3a8)" style="fill: #107010; stroke: #262626; stroke-width: 0.75; stroke-linejoin: miter"/>
   </g>
   <g id="PathCollection_1"/>
   <g id="PathCollection_2"/>
   <g id="line2d_9">
    <path d="M 179.499875 263.043965 
L 179.499875 278.404775 
" clip-path="url(#pddbb7eb3a8)" style="fill: none; stroke: #262626; stroke-width: 1.5; stroke-linecap: round"/>
   </g>
   <g id="line2d_10">
    <path d="M 179.499875 241.135212 
L 179.499875 214.085734 
" clip-path="url(#pddbb7eb3a8)" style="fill: none; stroke: #262626; stroke-width: 1.5; stroke-linecap: round"/>
   </g>
   <g id="line2d_11">
    <path d="M 141.629857 278.404775 
L 217.369892 278.404775 
" clip-path="url(#pddbb7eb3a8)" style="fill: none; stroke: #262626; stroke-width: 1.5; stroke-linecap: round"/>
   </g>
   <g id="line2d_12">
    <path d="M 141.629857 214.085734 
L 217.369892 214.085734 
" clip-path="url(#pddbb7eb3a8)" style="fill: none; stroke: #262626; stroke-width: 1.5; stroke-linecap: round"/>
   </g>
   <g id="line2d_13">
    <defs>
     <path id="ma96ea2ed96" d="M -0 1.414214 
L 0.848528 0 
L 0 -1.414214 
L -0.848528 -0 
z
" style="stroke: #262626; stroke-linejoin: miter"/>
    </defs>
    <g clip-path="url(#pddbb7eb3a8)">
     <use xlink:href="#ma96ea2ed96" x="179.499875" y="207.263802" style="fill: #262626; stroke: #262626; stroke-linejoin: miter"/>
     <use xlink:href="#ma96ea2ed96" x="179.499875" y="138.283" style="fill: #262626; stroke: #262626; stroke-linejoin: miter"/>
    </g>
   </g>
   <g id="line2d_14">
    <path d="M 334.071375 240.446657 
L 334.071375 273.432418 
" clip-path="url(#pddbb7eb3a8)" style="fill: none; stroke: #262626; stroke-width: 1.5; stroke-linecap: round"/>
   </g>
   <g id="line2d_15">
    <path d="M 334.071375 103.728148 
L 334.071375 39.442321 
" clip-path="url(#pddbb7eb3a8)" style="fill: none; stroke: #262626; stroke-width: 1.5; stroke-linecap: round"/>
   </g>
   <g id="line2d_16">
    <path d="M 296.201357 273.432418 
L 371.941393 273.432418 
" clip-path="url(#pddbb7eb3a8)" style="fill: none; stroke: #262626; stroke-width: 1.5; stroke-linecap: round"/>
   </g>
   <g id="line2d_17">
    <path d="M 296.201357 39.442321 
L 371.941393 39.442321 
" clip-path="url(#pddbb7eb3a8)" style="fill: none; stroke: #262626; stroke-width: 1.5; stroke-linecap: round"/>
   </g>
   <g id="line2d_18"/>
   <g id="line2d_19">
    <path d="M 103.75984 252.83261 
L 255.23991 252.83261 
" clip-path="url(#pddbb7eb3a8)" style="fill: none; stroke: #262626; stroke-width: 1.5; stroke-linecap: round"/>
   </g>
   <g id="line2d_20">
    <path d="M 258.33134 194.244079 
L 409.81141 194.244079 
" clip-path="url(#pddbb7eb3a8)" style="fill: none; stroke: #262626; stroke-width: 1.5; stroke-linecap: round"/>
   </g>
   <g id="patch_7">
    <path d="M 63.57125 303.64 
L 63.57125 13.022553 
" style="fill: none; stroke: #cccccc; stroke-width: 0.8; stroke-linejoin: miter; stroke-linecap: square"/>
   </g>
   <g id="patch_8">
    <path d="M 450 303.64 
L 450 13.022553 
" style="fill: none; stroke: #cccccc; stroke-width: 0.8; stroke-linejoin: miter; stroke-linecap: square"/>
   </g>
   <g id="patch_9">
    <path d="M 63.57125 303.64 
L 450 303.64 
" style="fill: none; stroke: #cccccc; stroke-width: 0.8; stroke-linejoin: miter; stroke-linecap: square"/>
   </g>
   <g id="patch_10">
    <path d="M 63.57125 13.022553 
L 450 13.022553 
" style="fill: none; stroke: #cccccc; stroke-width: 0.8; stroke-linejoin: miter; stroke-linecap: square"/>
   </g>
   <g id="PathCollection_3">
    <defs>
     <path id="C0_0_040f185645" d="M 0 1 
C 0.265203 1 0.51958 0.894634 0.707107 0.707107 
C 0.894634 0.51958 1 0.265203 1 -0 
C 1 -0.265203 0.894634 -0.51958 0.707107 -0.707107 
C 0.51958 -0.894634 0.265203 -1 0 -1 
C -0.265203 -1 -0.51958 -0.894634 -0.707107 -0.707107 
C -0.894634 -0.51958 -1 -0.265203 -1 0 
C -1 0.265203 -0.894634 0.51958 -0.707107 0.707107 
C -0.51958 0.894634 -0.265203 1 0 1 
z
"/>
    </defs>
    <g clip-path="url(#pddbb7eb3a8)">
     <use xlink:href="#C0_0_040f185645" x="192.555356" y="269.190978" style="fill: #262626"/>
    </g>
    <g clip-path="url(#pddbb7eb3a8)">
     <use xlink:href="#C0_0_040f185645" x="191.520545" y="268.678207" style="fill: #262626"/>
    </g>
    <g clip-path="url(#pddbb7eb3a8)">
     <use xlink:href="#C0_0_040f185645" x="165.547378" y="246.580291" style="fill: #262626"/>
    </g>
    <g clip-path="url(#pddbb7eb3a8)">
     <use xlink:href="#C0_0_040f185645" x="165.085354" y="260.310439" style="fill: #262626"/>
    </g>
    <g clip-path="url(#pddbb7eb3a8)">
     <use xlink:href="#C0_0_040f185645" x="189.421558" y="236.99895" style="fill: #262626"/>
    </g>
    <g clip-path="url(#pddbb7eb3a8)">
     <use xlink:href="#C0_0_040f185645" x="185.731716" y="258.063822" style="fill: #262626"/>
    </g>
    <g clip-path="url(#pddbb7eb3a8)">
     <use xlink:href="#C0_0_040f185645" x="171.068986" y="258.270881" style="fill: #262626"/>
    </g>
    <g clip-path="url(#pddbb7eb3a8)">
     <use xlink:href="#C0_0_040f185645" x="198.328829" y="256.370727" style="fill: #262626"/>
    </g>
    <g clip-path="url(#pddbb7eb3a8)">
     <use xlink:href="#C0_0_040f185645" x="176.17697" y="272.850855" style="fill: #262626"/>
    </g>
    <g clip-path="url(#pddbb7eb3a8)">
     <use xlink:href="#C0_0_040f185645" x="173.013073" y="234.471033" style="fill: #262626"/>
    </g>
    <g clip-path="url(#pddbb7eb3a8)">
     <use xlink:href="#C0_0_040f185645" x="166.613443" y="241.673092" style="fill: #262626"/>
    </g>
    <g clip-path="url(#pddbb7eb3a8)">
     <use xlink:href="#C0_0_040f185645" x="195.423971" y="249.514595" style="fill: #262626"/>
    </g>
    <g clip-path="url(#pddbb7eb3a8)">
     <use xlink:href="#C0_0_040f185645" x="176.95103" y="266.843504" style="fill: #262626"/>
    </g>
    <g clip-path="url(#pddbb7eb3a8)">
     <use xlink:href="#C0_0_040f185645" x="165.206841" y="229.979049" style="fill: #262626"/>
    </g>
    <g clip-path="url(#pddbb7eb3a8)">
     <use xlink:href="#C0_0_040f185645" x="186.561055" y="207.263802" style="fill: #262626"/>
    </g>
    <g clip-path="url(#pddbb7eb3a8)">
     <use xlink:href="#C0_0_040f185645" x="164.9263" y="252.643235" style="fill: #262626"/>
    </g>
    <g clip-path="url(#pddbb7eb3a8)">
     <use xlink:href="#C0_0_040f185645" x="171.105471" y="214.085734" style="fill: #262626"/>
    </g>
    <g clip-path="url(#pddbb7eb3a8)">
     <use xlink:href="#C0_0_040f185645" x="161.811291" y="262.807015" style="fill: #262626"/>
    </g>
    <g clip-path="url(#pddbb7eb3a8)">
     <use xlink:href="#C0_0_040f185645" x="183.844921" y="234.199358" style="fill: #262626"/>
    </g>
    <g clip-path="url(#pddbb7eb3a8)">
     <use xlink:href="#C0_0_040f185645" x="185.152808" y="243.953454" style="fill: #262626"/>
    </g>
    <g clip-path="url(#pddbb7eb3a8)">
     <use xlink:href="#C0_0_040f185645" x="192.943631" y="250.892478" style="fill: #262626"/>
    </g>
    <g clip-path="url(#pddbb7eb3a8)">
     <use xlink:href="#C0_0_040f185645" x="166.995476" y="218.053058" style="fill: #262626"/>
    </g>
    <g clip-path="url(#pddbb7eb3a8)">
     <use xlink:href="#C0_0_040f185645" x="175.205886" y="246.918518" style="fill: #262626"/>
    </g>
    <g clip-path="url(#pddbb7eb3a8)">
     <use xlink:href="#C0_0_040f185645" x="182.745852" y="240.044418" style="fill: #262626"/>
    </g>
    <g clip-path="url(#pddbb7eb3a8)">
     <use xlink:href="#C0_0_040f185645" x="188.754202" y="239.772781" style="fill: #262626"/>
    </g>
    <g clip-path="url(#pddbb7eb3a8)">
     <use xlink:href="#C0_0_040f185645" x="185.025831" y="278.404775" style="fill: #262626"/>
    </g>
    <g clip-path="url(#pddbb7eb3a8)">
     <use xlink:href="#C0_0_040f185645" x="161.262848" y="220.653057" style="fill: #262626"/>
    </g>
    <g clip-path="url(#pddbb7eb3a8)">
     <use xlink:href="#C0_0_040f185645" x="173.153182" y="256.792973" style="fill: #262626"/>
    </g>
    <g clip-path="url(#pddbb7eb3a8)">
     <use xlink:href="#C0_0_040f185645" x="175.880714" y="254.318876" style="fill: #262626"/>
    </g>
    <g clip-path="url(#pddbb7eb3a8)">
     <use xlink:href="#C0_0_040f185645" x="197.426894" y="218.739226" style="fill: #262626"/>
    </g>
    <g clip-path="url(#pddbb7eb3a8)">
     <use xlink:href="#C0_0_040f185645" x="186.588435" y="263.308784" style="fill: #262626"/>
    </g>
    <g clip-path="url(#pddbb7eb3a8)">
     <use xlink:href="#C0_0_040f185645" x="192.186447" y="257.010211" style="fill: #262626"/>
    </g>
    <g clip-path="url(#pddbb7eb3a8)">
     <use xlink:href="#C0_0_040f185645" x="160.954919" y="235.264343" style="fill: #262626"/>
    </g>
    <g clip-path="url(#pddbb7eb3a8)">
     <use xlink:href="#C0_0_040f185645" x="171.971137" y="252.04166" style="fill: #262626"/>
    </g>
    <g clip-path="url(#pddbb7eb3a8)">
     <use xlink:href="#C0_0_040f185645" x="169.063288" y="243.108068" style="fill: #262626"/>
    </g>
    <g clip-path="url(#pddbb7eb3a8)">
     <use xlink:href="#C0_0_040f185645" x="179.448159" y="227.207096" style="fill: #262626"/>
    </g>
    <g clip-path="url(#pddbb7eb3a8)">
     <use xlink:href="#C0_0_040f185645" x="169.881699" y="263.640868" style="fill: #262626"/>
    </g>
    <g clip-path="url(#pddbb7eb3a8)">
     <use xlink:href="#C0_0_040f185645" x="196.941522" y="261.664922" style="fill: #262626"/>
    </g>
    <g clip-path="url(#pddbb7eb3a8)">
     <use xlink:href="#C0_0_040f185645" x="185.961455" y="275.067836" style="fill: #262626"/>
    </g>
    <g clip-path="url(#pddbb7eb3a8)">
     <use xlink:href="#C0_0_040f185645" x="197.081607" y="264.541066" style="fill: #262626"/>
    </g>
    <g clip-path="url(#pddbb7eb3a8)">
     <use xlink:href="#C0_0_040f185645" x="168.155594" y="244.810433" style="fill: #262626"/>
    </g>
    <g clip-path="url(#pddbb7eb3a8)">
     <use xlink:href="#C0_0_040f185645" x="161.428254" y="239.735211" style="fill: #262626"/>
    </g>
    <g clip-path="url(#pddbb7eb3a8)">
     <use xlink:href="#C0_0_040f185645" x="165.302642" y="257.354449" style="fill: #262626"/>
    </g>
    <g clip-path="url(#pddbb7eb3a8)">
     <use xlink:href="#C0_0_040f185645" x="164.436548" y="250.219377" style="fill: #262626"/>
    </g>
    <g clip-path="url(#pddbb7eb3a8)">
     <use xlink:href="#C0_0_040f185645" x="177.893526" y="247.993295" style="fill: #262626"/>
    </g>
    <g clip-path="url(#pddbb7eb3a8)">
     <use xlink:href="#C0_0_040f185645" x="163.780317" y="252.83261" style="fill: #262626"/>
    </g>
    <g clip-path="url(#pddbb7eb3a8)">
     <use xlink:href="#C0_0_040f185645" x="188.042997" y="231.641309" style="fill: #262626"/>
    </g>
    <g clip-path="url(#pddbb7eb3a8)">
     <use xlink:href="#C0_0_040f185645" x="168.40632" y="254.301232" style="fill: #262626"/>
    </g>
    <g clip-path="url(#pddbb7eb3a8)">
     <use xlink:href="#C0_0_040f185645" x="164.133313" y="268.35437" style="fill: #262626"/>
    </g>
    <g clip-path="url(#pddbb7eb3a8)">
     <use xlink:href="#C0_0_040f185645" x="177.825944" y="246.266097" style="fill: #262626"/>
    </g>
    <g clip-path="url(#pddbb7eb3a8)">
     <use xlink:href="#C0_0_040f185645" x="162.166115" y="264.781534" style="fill: #262626"/>
    </g>
    <g clip-path="url(#pddbb7eb3a8)">
     <use xlink:href="#C0_0_040f185645" x="165.835993" y="247.808688" style="fill: #262626"/>
    </g>
    <g clip-path="url(#pddbb7eb3a8)">
     <use xlink:href="#C0_0_040f185645" x="181.776836" y="241.135212" style="fill: #262626"/>
    </g>
    <g clip-path="url(#pddbb7eb3a8)">
     <use xlink:href="#C0_0_040f185645" x="193.237688" y="252.664545" style="fill: #262626"/>
    </g>
    <g clip-path="url(#pddbb7eb3a8)">
     <use xlink:href="#C0_0_040f185645" x="174.596902" y="228.338015" style="fill: #262626"/>
    </g>
    <g clip-path="url(#pddbb7eb3a8)">
     <use xlink:href="#C0_0_040f185645" x="169.705374" y="251.039118" style="fill: #262626"/>
    </g>
    <g clip-path="url(#pddbb7eb3a8)">
     <use xlink:href="#C0_0_040f185645" x="162.41887" y="255.348801" style="fill: #262626"/>
    </g>
    <g clip-path="url(#pddbb7eb3a8)">
     <use xlink:href="#C0_0_040f185645" x="176.774126" y="258.875133" style="fill: #262626"/>
    </g>
    <g clip-path="url(#pddbb7eb3a8)">
     <use xlink:href="#C0_0_040f185645" x="173.24897" y="258.269449" style="fill: #262626"/>
    </g>
    <g clip-path="url(#pddbb7eb3a8)">
     <use xlink:href="#C0_0_040f185645" x="183.259463" y="242.309137" style="fill: #262626"/>
    </g>
    <g clip-path="url(#pddbb7eb3a8)">
     <use xlink:href="#C0_0_040f185645" x="196.069185" y="240.486716" style="fill: #262626"/>
    </g>
    <g clip-path="url(#pddbb7eb3a8)">
     <use xlink:href="#C0_0_040f185645" x="179.351807" y="273.098425" style="fill: #262626"/>
    </g>
    <g clip-path="url(#pddbb7eb3a8)">
     <use xlink:href="#C0_0_040f185645" x="185.010332" y="250.614394" style="fill: #262626"/>
    </g>
    <g clip-path="url(#pddbb7eb3a8)">
     <use xlink:href="#C0_0_040f185645" x="162.539425" y="252.816274" style="fill: #262626"/>
    </g>
    <g clip-path="url(#pddbb7eb3a8)">
     <use xlink:href="#C0_0_040f185645" x="195.185435" y="237.174554" style="fill: #262626"/>
    </g>
    <g clip-path="url(#pddbb7eb3a8)">
     <use xlink:href="#C0_0_040f185645" x="195.363838" y="248.577049" style="fill: #262626"/>
    </g>
    <g clip-path="url(#pddbb7eb3a8)">
     <use xlink:href="#C0_0_040f185645" x="177.146828" y="277.363362" style="fill: #262626"/>
    </g>
    <g clip-path="url(#pddbb7eb3a8)">
     <use xlink:href="#C0_0_040f185645" x="186.713817" y="262.502342" style="fill: #262626"/>
    </g>
    <g clip-path="url(#pddbb7eb3a8)">
     <use xlink:href="#C0_0_040f185645" x="196.507638" y="254.958568" style="fill: #262626"/>
    </g>
    <g clip-path="url(#pddbb7eb3a8)">
     <use xlink:href="#C0_0_040f185645" x="177.590764" y="264.545962" style="fill: #262626"/>
    </g>
    <g clip-path="url(#pddbb7eb3a8)">
     <use xlink:href="#C0_0_040f185645" x="187.869347" y="267.844517" style="fill: #262626"/>
    </g>
    <g clip-path="url(#pddbb7eb3a8)">
     <use xlink:href="#C0_0_040f185645" x="165.107062" y="256.415114" style="fill: #262626"/>
    </g>
    <g clip-path="url(#pddbb7eb3a8)">
     <use xlink:href="#C0_0_040f185645" x="191.641585" y="233.829932" style="fill: #262626"/>
    </g>
    <g clip-path="url(#pddbb7eb3a8)">
     <use xlink:href="#C0_0_040f185645" x="164.836758" y="272.676252" style="fill: #262626"/>
    </g>
    <g clip-path="url(#pddbb7eb3a8)">
     <use xlink:href="#C0_0_040f185645" x="192.771991" y="274.203435" style="fill: #262626"/>
    </g>
    <g clip-path="url(#pddbb7eb3a8)">
     <use xlink:href="#C0_0_040f185645" x="196.559667" y="255.979407" style="fill: #262626"/>
    </g>
    <g clip-path="url(#pddbb7eb3a8)">
     <use xlink:href="#C0_0_040f185645" x="194.487777" y="258.770828" style="fill: #262626"/>
    </g>
    <g clip-path="url(#pddbb7eb3a8)">
     <use xlink:href="#C0_0_040f185645" x="173.089651" y="252.62783" style="fill: #262626"/>
    </g>
    <g clip-path="url(#pddbb7eb3a8)">
     <use xlink:href="#C0_0_040f185645" x="164.018343" y="259.682395" style="fill: #262626"/>
    </g>
    <g clip-path="url(#pddbb7eb3a8)">
     <use xlink:href="#C0_0_040f185645" x="168.073237" y="263.043965" style="fill: #262626"/>
    </g>
    <g clip-path="url(#pddbb7eb3a8)">
     <use xlink:href="#C0_0_040f185645" x="161.049986" y="263.678619" style="fill: #262626"/>
    </g>
    <g clip-path="url(#pddbb7eb3a8)">
     <use xlink:href="#C0_0_040f185645" x="189.803959" y="269.649574" style="fill: #262626"/>
    </g>
    <g clip-path="url(#pddbb7eb3a8)">
     <use xlink:href="#C0_0_040f185645" x="160.88671" y="250.774754" style="fill: #262626"/>
    </g>
    <g clip-path="url(#pddbb7eb3a8)">
     <use xlink:href="#C0_0_040f185645" x="183.023245" y="267.066978" style="fill: #262626"/>
    </g>
    <g clip-path="url(#pddbb7eb3a8)">
     <use xlink:href="#C0_0_040f185645" x="184.985274" y="138.283" style="fill: #262626"/>
    </g>
    <g clip-path="url(#pddbb7eb3a8)">
     <use xlink:href="#C0_0_040f185645" x="198.021695" y="272.092357" style="fill: #262626"/>
    </g>
    <g clip-path="url(#pddbb7eb3a8)">
     <use xlink:href="#C0_0_040f185645" x="160.219944" y="233.674917" style="fill: #262626"/>
    </g>
    <g clip-path="url(#pddbb7eb3a8)">
     <use xlink:href="#C0_0_040f185645" x="162.691521" y="258.092962" style="fill: #262626"/>
    </g>
    <g clip-path="url(#pddbb7eb3a8)">
     <use xlink:href="#C0_0_040f185645" x="180.037858" y="265.12958" style="fill: #262626"/>
    </g>
    <g clip-path="url(#pddbb7eb3a8)">
     <use xlink:href="#C0_0_040f185645" x="164.970992" y="227.083929" style="fill: #262626"/>
    </g>
    <g clip-path="url(#pddbb7eb3a8)">
     <use xlink:href="#C0_0_040f185645" x="162.936192" y="236.919347" style="fill: #262626"/>
    </g>
    <g clip-path="url(#pddbb7eb3a8)">
     <use xlink:href="#C0_0_040f185645" x="169.665104" y="257.81704" style="fill: #262626"/>
    </g>
    <g clip-path="url(#pddbb7eb3a8)">
     <use xlink:href="#C0_0_040f185645" x="194.922009" y="267.188285" style="fill: #262626"/>
    </g>
   </g>
   <g id="PathCollection_4">
    <defs>
     <path id="C1_0_9549ada4bc" d="M 0 1 
C 0.265203 1 0.51958 0.894634 0.707107 0.707107 
C 0.894634 0.51958 1 0.265203 1 -0 
C 1 -0.265203 0.894634 -0.51958 0.707107 -0.707107 
C 0.51958 -0.894634 0.265203 -1 0 -1 
C -0.265203 -1 -0.51958 -0.894634 -0.707107 -0.707107 
C -0.894634 -0.51958 -1 -0.265203 -1 0 
C -1 0.265203 -0.894634 0.51958 -0.707107 0.707107 
C -0.51958 0.894634 -0.265203 1 0 1 
z
"/>
    </defs>
    <g clip-path="url(#pddbb7eb3a8)">
     <use xlink:href="#C1_0_9549ada4bc" x="338.149298" y="114.217995"/>
    </g>
    <g clip-path="url(#pddbb7eb3a8)">
     <use xlink:href="#C1_0_9549ada4bc" x="343.397774" y="123.047232"/>
    </g>
    <g clip-path="url(#pddbb7eb3a8)">
     <use xlink:href="#C1_0_9549ada4bc" x="324.321357" y="80.967388"/>
    </g>
    <g clip-path="url(#pddbb7eb3a8)">
     <use xlink:href="#C1_0_9549ada4bc" x="325.521158" y="121.671303"/>
    </g>
    <g clip-path="url(#pddbb7eb3a8)">
     <use xlink:href="#C1_0_9549ada4bc" x="340.129465" y="59.068886"/>
    </g>
    <g clip-path="url(#pddbb7eb3a8)">
     <use xlink:href="#C1_0_9549ada4bc" x="333.587932" y="98.884022"/>
    </g>
    <g clip-path="url(#pddbb7eb3a8)">
     <use xlink:href="#C1_0_9549ada4bc" x="334.428015" y="254.959816"/>
    </g>
    <g clip-path="url(#pddbb7eb3a8)">
     <use xlink:href="#C1_0_9549ada4bc" x="352.533662" y="203.765312"/>
    </g>
    <g clip-path="url(#pddbb7eb3a8)">
     <use xlink:href="#C1_0_9549ada4bc" x="324.351506" y="136.193821"/>
    </g>
    <g clip-path="url(#pddbb7eb3a8)">
     <use xlink:href="#C1_0_9549ada4bc" x="315.152771" y="269.51823"/>
    </g>
    <g clip-path="url(#pddbb7eb3a8)">
     <use xlink:href="#C1_0_9549ada4bc" x="337.171453" y="251.390096"/>
    </g>
    <g clip-path="url(#pddbb7eb3a8)">
     <use xlink:href="#C1_0_9549ada4bc" x="340.516037" y="103.899515"/>
    </g>
    <g clip-path="url(#pddbb7eb3a8)">
     <use xlink:href="#C1_0_9549ada4bc" x="326.962084" y="215.42691"/>
    </g>
    <g clip-path="url(#pddbb7eb3a8)">
     <use xlink:href="#C1_0_9549ada4bc" x="342.811337" y="242.222072"/>
    </g>
    <g clip-path="url(#pddbb7eb3a8)">
     <use xlink:href="#C1_0_9549ada4bc" x="339.166911" y="253.100772"/>
    </g>
    <g clip-path="url(#pddbb7eb3a8)">
     <use xlink:href="#C1_0_9549ada4bc" x="344.823025" y="82.305523"/>
    </g>
    <g clip-path="url(#pddbb7eb3a8)">
     <use xlink:href="#C1_0_9549ada4bc" x="331.295594" y="76.567948"/>
    </g>
    <g clip-path="url(#pddbb7eb3a8)">
     <use xlink:href="#C1_0_9549ada4bc" x="333.581443" y="239.982888"/>
    </g>
    <g clip-path="url(#pddbb7eb3a8)">
     <use xlink:href="#C1_0_9549ada4bc" x="345.053564" y="225.751645"/>
    </g>
    <g clip-path="url(#pddbb7eb3a8)">
     <use xlink:href="#C1_0_9549ada4bc" x="331.015165" y="267.537026"/>
    </g>
    <g clip-path="url(#pddbb7eb3a8)">
     <use xlink:href="#C1_0_9549ada4bc" x="318.668896" y="191.445412"/>
    </g>
    <g clip-path="url(#pddbb7eb3a8)">
     <use xlink:href="#C1_0_9549ada4bc" x="320.52592" y="232.14935"/>
    </g>
    <g clip-path="url(#pddbb7eb3a8)">
     <use xlink:href="#C1_0_9549ada4bc" x="348.001426" y="206.870189"/>
    </g>
    <g clip-path="url(#pddbb7eb3a8)">
     <use xlink:href="#C1_0_9549ada4bc" x="323.140113" y="244.951772"/>
    </g>
    <g clip-path="url(#pddbb7eb3a8)">
     <use xlink:href="#C1_0_9549ada4bc" x="347.937698" y="245.488902"/>
    </g>
    <g clip-path="url(#pddbb7eb3a8)">
     <use xlink:href="#C1_0_9549ada4bc" x="331.879677" y="235.334414"/>
    </g>
    <g clip-path="url(#pddbb7eb3a8)">
     <use xlink:href="#C1_0_9549ada4bc" x="317.315327" y="82.617264"/>
    </g>
    <g clip-path="url(#pddbb7eb3a8)">
     <use xlink:href="#C1_0_9549ada4bc" x="318.726661" y="147.086405"/>
    </g>
    <g clip-path="url(#pddbb7eb3a8)">
     <use xlink:href="#C1_0_9549ada4bc" x="317.283213" y="95.275408"/>
    </g>
    <g clip-path="url(#pddbb7eb3a8)">
     <use xlink:href="#C1_0_9549ada4bc" x="321.886734" y="82.297152"/>
    </g>
    <g clip-path="url(#pddbb7eb3a8)">
     <use xlink:href="#C1_0_9549ada4bc" x="348.317782" y="256.999507"/>
    </g>
    <g clip-path="url(#pddbb7eb3a8)">
     <use xlink:href="#C1_0_9549ada4bc" x="321.809473" y="100.301842"/>
    </g>
    <g clip-path="url(#pddbb7eb3a8)">
     <use xlink:href="#C1_0_9549ada4bc" x="329.374895" y="104.477373"/>
    </g>
    <g clip-path="url(#pddbb7eb3a8)">
     <use xlink:href="#C1_0_9549ada4bc" x="319.020963" y="59.740669"/>
    </g>
    <g clip-path="url(#pddbb7eb3a8)">
     <use xlink:href="#C1_0_9549ada4bc" x="339.672156" y="80.209211"/>
    </g>
    <g clip-path="url(#pddbb7eb3a8)">
     <use xlink:href="#C1_0_9549ada4bc" x="320.192422" y="197.042746"/>
    </g>
    <g clip-path="url(#pddbb7eb3a8)">
     <use xlink:href="#C1_0_9549ada4bc" x="323.283176" y="90.680911"/>
    </g>
    <g clip-path="url(#pddbb7eb3a8)">
     <use xlink:href="#C1_0_9549ada4bc" x="322.840014" y="59.059925"/>
    </g>
    <g clip-path="url(#pddbb7eb3a8)">
     <use xlink:href="#C1_0_9549ada4bc" x="315.542405" y="231.498535"/>
    </g>
    <g clip-path="url(#pddbb7eb3a8)">
     <use xlink:href="#C1_0_9549ada4bc" x="331.564967" y="103.214046"/>
    </g>
    <g clip-path="url(#pddbb7eb3a8)">
     <use xlink:href="#C1_0_9549ada4bc" x="347.135817" y="241.837961"/>
    </g>
    <g clip-path="url(#pddbb7eb3a8)">
     <use xlink:href="#C1_0_9549ada4bc" x="343.071073" y="227.143193"/>
    </g>
    <g clip-path="url(#pddbb7eb3a8)">
     <use xlink:href="#C1_0_9549ada4bc" x="321.914469" y="122.008355"/>
    </g>
    <g clip-path="url(#pddbb7eb3a8)">
     <use xlink:href="#C1_0_9549ada4bc" x="346.2198" y="160.905155"/>
    </g>
    <g clip-path="url(#pddbb7eb3a8)">
     <use xlink:href="#C1_0_9549ada4bc" x="352.718944" y="175.98787"/>
    </g>
    <g clip-path="url(#pddbb7eb3a8)">
     <use xlink:href="#C1_0_9549ada4bc" x="350.220425" y="249.075519"/>
    </g>
    <g clip-path="url(#pddbb7eb3a8)">
     <use xlink:href="#C1_0_9549ada4bc" x="331.584864" y="138.147119"/>
    </g>
    <g clip-path="url(#pddbb7eb3a8)">
     <use xlink:href="#C1_0_9549ada4bc" x="334.541185" y="273.432418"/>
    </g>
    <g clip-path="url(#pddbb7eb3a8)">
     <use xlink:href="#C1_0_9549ada4bc" x="328.003191" y="262.791661"/>
    </g>
    <g clip-path="url(#pddbb7eb3a8)">
     <use xlink:href="#C1_0_9549ada4bc" x="351.81813" y="183.516699"/>
    </g>
    <g clip-path="url(#pddbb7eb3a8)">
     <use xlink:href="#C1_0_9549ada4bc" x="324.915355" y="39.442321"/>
    </g>
    <g clip-path="url(#pddbb7eb3a8)">
     <use xlink:href="#C1_0_9549ada4bc" x="337.696312" y="226.146791"/>
    </g>
    <g clip-path="url(#pddbb7eb3a8)">
     <use xlink:href="#C1_0_9549ada4bc" x="332.744616" y="228.471485"/>
    </g>
    <g clip-path="url(#pddbb7eb3a8)">
     <use xlink:href="#C1_0_9549ada4bc" x="347.190059" y="115.220519"/>
    </g>
    <g clip-path="url(#pddbb7eb3a8)">
     <use xlink:href="#C1_0_9549ada4bc" x="346.017839" y="87.058603"/>
    </g>
    <g clip-path="url(#pddbb7eb3a8)">
     <use xlink:href="#C1_0_9549ada4bc" x="324.472263" y="268.934382"/>
    </g>
    <g clip-path="url(#pddbb7eb3a8)">
     <use xlink:href="#C1_0_9549ada4bc" x="320.358894" y="113.822294"/>
    </g>
    <g clip-path="url(#pddbb7eb3a8)">
     <use xlink:href="#C1_0_9549ada4bc" x="349.964022" y="149.289429"/>
    </g>
    <g clip-path="url(#pddbb7eb3a8)">
     <use xlink:href="#C1_0_9549ada4bc" x="326.327676" y="265.181801"/>
    </g>
    <g clip-path="url(#pddbb7eb3a8)">
     <use xlink:href="#C1_0_9549ada4bc" x="331.099973" y="227.200485"/>
    </g>
    <g clip-path="url(#pddbb7eb3a8)">
     <use xlink:href="#C1_0_9549ada4bc" x="335.120375" y="259.802093"/>
    </g>
    <g clip-path="url(#pddbb7eb3a8)">
     <use xlink:href="#C1_0_9549ada4bc" x="329.219463" y="223.115903"/>
    </g>
    <g clip-path="url(#pddbb7eb3a8)">
     <use xlink:href="#C1_0_9549ada4bc" x="332.532523" y="205.65444"/>
    </g>
    <g clip-path="url(#pddbb7eb3a8)">
     <use xlink:href="#C1_0_9549ada4bc" x="335.919169" y="225.475216"/>
    </g>
   </g>
   <g id="text_12">
    <!-- 93 -->
    <g style="fill: #262626" transform="translate(198.821312 303.626396) scale(0.1 -0.1)">
     <defs>
      <path id="DejaVuSans-39" d="M 703 97 
L 703 672 
Q 941 559 1184 500 
Q 1428 441 1663 441 
Q 2288 441 2617 861 
Q 2947 1281 2994 2138 
Q 2813 1869 2534 1725 
Q 2256 1581 1919 1581 
Q 1219 1581 811 2004 
Q 403 2428 403 3163 
Q 403 3881 828 4315 
Q 1253 4750 1959 4750 
Q 2769 4750 3195 4129 
Q 3622 3509 3622 2328 
Q 3622 1225 3098 567 
Q 2575 -91 1691 -91 
Q 1453 -91 1209 -44 
Q 966 3 703 97 
z
M 1959 2075 
Q 2384 2075 2632 2365 
Q 2881 2656 2881 3163 
Q 2881 3666 2632 3958 
Q 2384 4250 1959 4250 
Q 1534 4250 1286 3958 
Q 1038 3666 1038 3163 
Q 1038 2656 1286 2365 
Q 1534 2075 1959 2075 
z
" transform="scale(0.015625)"/>
     </defs>
     <use xlink:href="#DejaVuSans-39"/>
     <use xlink:href="#DejaVuSans-33" x="63.623047"/>
    </g>
   </g>
   <g id="text_13">
    <!-- p=9.996395593891733e-18 -->
    <g style="fill: #262626" transform="translate(141.944437 138.282588) scale(0.08 -0.08)">
     <defs>
      <path id="DejaVuSans-70" d="M 1159 525 
L 1159 -1331 
L 581 -1331 
L 581 3500 
L 1159 3500 
L 1159 2969 
Q 1341 3281 1617 3432 
Q 1894 3584 2278 3584 
Q 2916 3584 3314 3078 
Q 3713 2572 3713 1747 
Q 3713 922 3314 415 
Q 2916 -91 2278 -91 
Q 1894 -91 1617 61 
Q 1341 213 1159 525 
z
M 3116 1747 
Q 3116 2381 2855 2742 
Q 2594 3103 2138 3103 
Q 1681 3103 1420 2742 
Q 1159 2381 1159 1747 
Q 1159 1113 1420 752 
Q 1681 391 2138 391 
Q 2594 391 2855 752 
Q 3116 1113 3116 1747 
z
" transform="scale(0.015625)"/>
      <path id="DejaVuSans-3d" d="M 678 2906 
L 4684 2906 
L 4684 2381 
L 678 2381 
L 678 2906 
z
M 678 1631 
L 4684 1631 
L 4684 1100 
L 678 1100 
L 678 1631 
z
" transform="scale(0.015625)"/>
      <path id="DejaVuSans-2e" d="M 684 794 
L 1344 794 
L 1344 0 
L 684 0 
L 684 794 
z
" transform="scale(0.015625)"/>
      <path id="DejaVuSans-36" d="M 2113 2584 
Q 1688 2584 1439 2293 
Q 1191 2003 1191 1497 
Q 1191 994 1439 701 
Q 1688 409 2113 409 
Q 2538 409 2786 701 
Q 3034 994 3034 1497 
Q 3034 2003 2786 2293 
Q 2538 2584 2113 2584 
z
M 3366 4563 
L 3366 3988 
Q 3128 4100 2886 4159 
Q 2644 4219 2406 4219 
Q 1781 4219 1451 3797 
Q 1122 3375 1075 2522 
Q 1259 2794 1537 2939 
Q 1816 3084 2150 3084 
Q 2853 3084 3261 2657 
Q 3669 2231 3669 1497 
Q 3669 778 3244 343 
Q 2819 -91 2113 -91 
Q 1303 -91 875 529 
Q 447 1150 447 2328 
Q 447 3434 972 4092 
Q 1497 4750 2381 4750 
Q 2619 4750 2861 4703 
Q 3103 4656 3366 4563 
z
" transform="scale(0.015625)"/>
      <path id="DejaVuSans-38" d="M 2034 2216 
Q 1584 2216 1326 1975 
Q 1069 1734 1069 1313 
Q 1069 891 1326 650 
Q 1584 409 2034 409 
Q 2484 409 2743 651 
Q 3003 894 3003 1313 
Q 3003 1734 2745 1975 
Q 2488 2216 2034 2216 
z
M 1403 2484 
Q 997 2584 770 2862 
Q 544 3141 544 3541 
Q 544 4100 942 4425 
Q 1341 4750 2034 4750 
Q 2731 4750 3128 4425 
Q 3525 4100 3525 3541 
Q 3525 3141 3298 2862 
Q 3072 2584 2669 2484 
Q 3125 2378 3379 2068 
Q 3634 1759 3634 1313 
Q 3634 634 3220 271 
Q 2806 -91 2034 -91 
Q 1263 -91 848 271 
Q 434 634 434 1313 
Q 434 1759 690 2068 
Q 947 2378 1403 2484 
z
M 1172 3481 
Q 1172 3119 1398 2916 
Q 1625 2713 2034 2713 
Q 2441 2713 2670 2916 
Q 2900 3119 2900 3481 
Q 2900 3844 2670 4047 
Q 2441 4250 2034 4250 
Q 1625 4250 1398 4047 
Q 1172 3844 1172 3481 
z
" transform="scale(0.015625)"/>
      <path id="DejaVuSans-37" d="M 525 4666 
L 3525 4666 
L 3525 4397 
L 1831 0 
L 1172 0 
L 2766 4134 
L 525 4134 
L 525 4666 
z
" transform="scale(0.015625)"/>
      <path id="DejaVuSans-2d" d="M 313 2009 
L 1997 2009 
L 1997 1497 
L 313 1497 
L 313 2009 
z
" transform="scale(0.015625)"/>
     </defs>
     <use xlink:href="#DejaVuSans-70"/>
     <use xlink:href="#DejaVuSans-3d" x="63.476562"/>
     <use xlink:href="#DejaVuSans-39" x="147.265625"/>
     <use xlink:href="#DejaVuSans-2e" x="210.888672"/>
     <use xlink:href="#DejaVuSans-39" x="242.675781"/>
     <use xlink:href="#DejaVuSans-39" x="306.298828"/>
     <use xlink:href="#DejaVuSans-36" x="369.921875"/>
     <use xlink:href="#DejaVuSans-33" x="433.544922"/>
     <use xlink:href="#DejaVuSans-39" x="497.167969"/>
     <use xlink:href="#DejaVuSans-35" x="560.791016"/>
     <use xlink:href="#DejaVuSans-35" x="624.414062"/>
     <use xlink:href="#DejaVuSans-39" x="688.037109"/>
     <use xlink:href="#DejaVuSans-33" x="751.660156"/>
     <use xlink:href="#DejaVuSans-38" x="815.283203"/>
     <use xlink:href="#DejaVuSans-39" x="878.90625"/>
     <use xlink:href="#DejaVuSans-31" x="942.529297"/>
     <use xlink:href="#DejaVuSans-37" x="1006.152344"/>
     <use xlink:href="#DejaVuSans-33" x="1069.775391"/>
     <use xlink:href="#DejaVuSans-33" x="1133.398438"/>
     <use xlink:href="#DejaVuSans-65" x="1197.021484"/>
     <use xlink:href="#DejaVuSans-2d" x="1258.544922"/>
     <use xlink:href="#DejaVuSans-31" x="1294.628906"/>
     <use xlink:href="#DejaVuSans-38" x="1358.251953"/>
    </g>
   </g>
   <g id="text_14">
    <!-- 64 -->
    <g style="fill: #262626" transform="translate(314.749937 303.626396) scale(0.1 -0.1)">
     <defs>
      <path id="DejaVuSans-34" d="M 2419 4116 
L 825 1625 
L 2419 1625 
L 2419 4116 
z
M 2253 4666 
L 3047 4666 
L 3047 1625 
L 3713 1625 
L 3713 1100 
L 3047 1100 
L 3047 0 
L 2419 0 
L 2419 1100 
L 313 1100 
L 313 1709 
L 2253 4666 
z
" transform="scale(0.015625)"/>
     </defs>
     <use xlink:href="#DejaVuSans-36"/>
     <use xlink:href="#DejaVuSans-34" x="63.623047"/>
    </g>
   </g>
   <g id="legend_1">
    <g id="patch_11">
     <path d="M 377.728125 29.620991 
L 397.728125 29.620991 
L 397.728125 22.620991 
L 377.728125 22.620991 
z
" style="fill: #ecf2ec; stroke: #262626; stroke-width: 0.75; stroke-linejoin: miter"/>
    </g>
    <g id="text_15">
     <!-- Mutant -->
     <g style="fill: #262626" transform="translate(405.728125 29.620991) scale(0.1 -0.1)">
      <defs>
       <path id="DejaVuSans-4d" d="M 628 4666 
L 1569 4666 
L 2759 1491 
L 3956 4666 
L 4897 4666 
L 4897 0 
L 4281 0 
L 4281 4097 
L 3078 897 
L 2444 897 
L 1241 4097 
L 1241 0 
L 628 0 
L 628 4666 
z
" transform="scale(0.015625)"/>
       <path id="DejaVuSans-61" d="M 2194 1759 
Q 1497 1759 1228 1600 
Q 959 1441 959 1056 
Q 959 750 1161 570 
Q 1363 391 1709 391 
Q 2188 391 2477 730 
Q 2766 1069 2766 1631 
L 2766 1759 
L 2194 1759 
z
M 3341 1997 
L 3341 0 
L 2766 0 
L 2766 531 
Q 2569 213 2275 61 
Q 1981 -91 1556 -91 
Q 1019 -91 701 211 
Q 384 513 384 1019 
Q 384 1609 779 1909 
Q 1175 2209 1959 2209 
L 2766 2209 
L 2766 2266 
Q 2766 2663 2505 2880 
Q 2244 3097 1772 3097 
Q 1472 3097 1187 3025 
Q 903 2953 641 2809 
L 641 3341 
Q 956 3463 1253 3523 
Q 1550 3584 1831 3584 
Q 2591 3584 2966 3190 
Q 3341 2797 3341 1997 
z
" transform="scale(0.015625)"/>
      </defs>
      <use xlink:href="#DejaVuSans-4d"/>
      <use xlink:href="#DejaVuSans-75" x="86.279297"/>
      <use xlink:href="#DejaVuSans-74" x="149.658203"/>
      <use xlink:href="#DejaVuSans-61" x="188.867188"/>
      <use xlink:href="#DejaVuSans-6e" x="250.146484"/>
      <use xlink:href="#DejaVuSans-74" x="313.525391"/>
     </g>
    </g>
    <g id="patch_12">
     <path d="M 377.728125 44.299116 
L 397.728125 44.299116 
L 397.728125 37.299116 
L 377.728125 37.299116 
z
" style="fill: #107010; stroke: #262626; stroke-width: 0.75; stroke-linejoin: miter"/>
    </g>
    <g id="text_16">
     <!-- WT -->
     <g style="fill: #262626" transform="translate(405.728125 44.299116) scale(0.1 -0.1)">
      <use xlink:href="#DejaVuSans-57"/>
      <use xlink:href="#DejaVuSans-54" x="98.876953"/>
     </g>
    </g>
   </g>
  </g>
 </g>
 <defs>
  <clipPath id="pddbb7eb3a8">
   <rect x="63.57125" y="13.022553" width="386.42875" height="290.617447"/>
  </clipPath>
 </defs>
</svg>
