<?xml version="1.0" encoding="utf-8" standalone="no"?>
<!DOCTYPE svg PUBLIC "-//W3C//DTD SVG 1.1//EN"
  "http://www.w3.org/Graphics/SVG/1.1/DTD/svg11.dtd">
<svg xmlns:xlink="http://www.w3.org/1999/xlink" width="460.8pt" height="345.6pt" viewBox="0 0 460.8 345.6" xmlns="http://www.w3.org/2000/svg" version="1.1">
 <metadata>
  <rdf:RDF xmlns:dc="http://purl.org/dc/elements/1.1/" xmlns:cc="http://creativecommons.org/ns#" xmlns:rdf="http://www.w3.org/1999/02/22-rdf-syntax-ns#">
   <cc:Work>
    <dc:type rdf:resource="http://purl.org/dc/dcmitype/StillImage"/>
    <dc:date>2024-02-24T17:24:54.723733</dc:date>
    <dc:format>image/svg+xml</dc:format>
    <dc:creator>
     <cc:Agent>
      <dc:title>Matplotlib v3.5.3, https://matplotlib.org/</dc:title>
     </cc:Agent>
    </dc:creator>
   </cc:Work>
  </rdf:RDF>
 </metadata>
 <defs>
  <style type="text/css">*{stroke-linejoin: round; stroke-linecap: butt}</style>
 </defs>
 <g id="figure_1">
  <g id="patch_1">
   <path d="M 0 345.6 
L 460.8 345.6 
L 460.8 0 
L 0 0 
z
" style="fill: #ffffff"/>
  </g>
  <g id="axes_1">
   <g id="patch_2">
    <path d="M 47.82125 303.64 
L 450 303.64 
L 450 46.675714 
L 47.82125 46.675714 
z
" style="fill: #ffffff"/>
   </g>
   <g id="PathCollection_1">
    <defs>
     <path id="m24cc4d9092" d="M 0 3 
C 0.795609 3 1.55874 2.683901 2.12132 2.12132 
C 2.683901 1.55874 3 0.795609 3 0 
C 3 -0.795609 2.683901 -1.55874 2.12132 -2.12132 
C 1.55874 -2.683901 0.795609 -3 0 -3 
C -0.795609 -3 -1.55874 -2.683901 -2.12132 -2.12132 
C -2.683901 -1.55874 -3 -0.795609 -3 0 
C -3 0.795609 -2.683901 1.55874 -2.12132 2.12132 
C -1.55874 2.683901 -0.795609 3 0 3 
z
" style="stroke: #1f77b4"/>
    </defs>
    <g clip-path="url(#p3e161b1864)">
     <use xlink:href="#m24cc4d9092" x="85.795613" y="203.791578" style="fill: #1f77b4; stroke: #1f77b4"/>
     <use xlink:href="#m24cc4d9092" x="233.583799" y="229.808285" style="fill: #1f77b4; stroke: #1f77b4"/>
     <use xlink:href="#m24cc4d9092" x="111.664073" y="212.684035" style="fill: #1f77b4; stroke: #1f77b4"/>
     <use xlink:href="#m24cc4d9092" x="196.802576" y="215.383947" style="fill: #1f77b4; stroke: #1f77b4"/>
     <use xlink:href="#m24cc4d9092" x="243.485829" y="201.588764" style="fill: #1f77b4; stroke: #1f77b4"/>
     <use xlink:href="#m24cc4d9092" x="229.288182" y="221.849598" style="fill: #1f77b4; stroke: #1f77b4"/>
     <use xlink:href="#m24cc4d9092" x="217.870052" y="186.482863" style="fill: #1f77b4; stroke: #1f77b4"/>
     <use xlink:href="#m24cc4d9092" x="266.353674" y="231.761874" style="fill: #1f77b4; stroke: #1f77b4"/>
     <use xlink:href="#m24cc4d9092" x="272.891856" y="170.480802" style="fill: #1f77b4; stroke: #1f77b4"/>
     <use xlink:href="#m24cc4d9092" x="360.225546" y="232.550045" style="fill: #1f77b4; stroke: #1f77b4"/>
     <use xlink:href="#m24cc4d9092" x="91.938977" y="200.171431" style="fill: #1f77b4; stroke: #1f77b4"/>
     <use xlink:href="#m24cc4d9092" x="285.304927" y="172.025911" style="fill: #1f77b4; stroke: #1f77b4"/>
     <use xlink:href="#m24cc4d9092" x="266.148369" y="209.440887" style="fill: #1f77b4; stroke: #1f77b4"/>
     <use xlink:href="#m24cc4d9092" x="131.278619" y="208.222473" style="fill: #1f77b4; stroke: #1f77b4"/>
     <use xlink:href="#m24cc4d9092" x="110.163765" y="213.478448" style="fill: #1f77b4; stroke: #1f77b4"/>
     <use xlink:href="#m24cc4d9092" x="66.102102" y="207.606066" style="fill: #1f77b4; stroke: #1f77b4"/>
     <use xlink:href="#m24cc4d9092" x="294.748968" y="194.889019" style="fill: #1f77b4; stroke: #1f77b4"/>
     <use xlink:href="#m24cc4d9092" x="390.373831" y="199.404871" style="fill: #1f77b4; stroke: #1f77b4"/>
     <use xlink:href="#m24cc4d9092" x="154.841344" y="238.344967" style="fill: #1f77b4; stroke: #1f77b4"/>
     <use xlink:href="#m24cc4d9092" x="128.151663" y="241.120794" style="fill: #1f77b4; stroke: #1f77b4"/>
     <use xlink:href="#m24cc4d9092" x="198.22392" y="184.718838" style="fill: #1f77b4; stroke: #1f77b4"/>
     <use xlink:href="#m24cc4d9092" x="145.492059" y="210.907319" style="fill: #1f77b4; stroke: #1f77b4"/>
     <use xlink:href="#m24cc4d9092" x="325.023594" y="213.003319" style="fill: #1f77b4; stroke: #1f77b4"/>
     <use xlink:href="#m24cc4d9092" x="266.353674" y="235.202926" style="fill: #1f77b4; stroke: #1f77b4"/>
     <use xlink:href="#m24cc4d9092" x="148.239991" y="146.677436" style="fill: #1f77b4; stroke: #1f77b4"/>
     <use xlink:href="#m24cc4d9092" x="141.41754" y="208.171671" style="fill: #1f77b4; stroke: #1f77b4"/>
     <use xlink:href="#m24cc4d9092" x="143.312665" y="229.62249" style="fill: #1f77b4; stroke: #1f77b4"/>
     <use xlink:href="#m24cc4d9092" x="105.64705" y="240.366175" style="fill: #1f77b4; stroke: #1f77b4"/>
     <use xlink:href="#m24cc4d9092" x="357.951396" y="247.32034" style="fill: #1f77b4; stroke: #1f77b4"/>
     <use xlink:href="#m24cc4d9092" x="115.391152" y="190.142259" style="fill: #1f77b4; stroke: #1f77b4"/>
     <use xlink:href="#m24cc4d9092" x="207.02046" y="241.467134" style="fill: #1f77b4; stroke: #1f77b4"/>
     <use xlink:href="#m24cc4d9092" x="160.542512" y="242.399336" style="fill: #1f77b4; stroke: #1f77b4"/>
     <use xlink:href="#m24cc4d9092" x="162.248125" y="219.67938" style="fill: #1f77b4; stroke: #1f77b4"/>
     <use xlink:href="#m24cc4d9092" x="150.545726" y="240.767906" style="fill: #1f77b4; stroke: #1f77b4"/>
     <use xlink:href="#m24cc4d9092" x="208.457597" y="185.677223" style="fill: #1f77b4; stroke: #1f77b4"/>
     <use xlink:href="#m24cc4d9092" x="356.245783" y="229.953435" style="fill: #1f77b4; stroke: #1f77b4"/>
     <use xlink:href="#m24cc4d9092" x="132.210389" y="253.381636" style="fill: #1f77b4; stroke: #1f77b4"/>
     <use xlink:href="#m24cc4d9092" x="183.899931" y="226.929127" style="fill: #1f77b4; stroke: #1f77b4"/>
     <use xlink:href="#m24cc4d9092" x="268.817337" y="211.939789" style="fill: #1f77b4; stroke: #1f77b4"/>
     <use xlink:href="#m24cc4d9092" x="125.435316" y="253.64591" style="fill: #1f77b4; stroke: #1f77b4"/>
     <use xlink:href="#m24cc4d9092" x="268.501483" y="136.961571" style="fill: #1f77b4; stroke: #1f77b4"/>
     <use xlink:href="#m24cc4d9092" x="380.819241" y="189.427733" style="fill: #1f77b4; stroke: #1f77b4"/>
     <use xlink:href="#m24cc4d9092" x="326.350182" y="244.190697" style="fill: #1f77b4; stroke: #1f77b4"/>
     <use xlink:href="#m24cc4d9092" x="155.441467" y="226.708955" style="fill: #1f77b4; stroke: #1f77b4"/>
     <use xlink:href="#m24cc4d9092" x="286.584136" y="230.267199" style="fill: #1f77b4; stroke: #1f77b4"/>
     <use xlink:href="#m24cc4d9092" x="154.193843" y="235.992547" style="fill: #1f77b4; stroke: #1f77b4"/>
     <use xlink:href="#m24cc4d9092" x="380.708692" y="252.534332" style="fill: #1f77b4; stroke: #1f77b4"/>
     <use xlink:href="#m24cc4d9092" x="198.445018" y="226.841337" style="fill: #1f77b4; stroke: #1f77b4"/>
     <use xlink:href="#m24cc4d9092" x="357.367066" y="235.719558" style="fill: #1f77b4; stroke: #1f77b4"/>
     <use xlink:href="#m24cc4d9092" x="201.366669" y="224.802575" style="fill: #1f77b4; stroke: #1f77b4"/>
     <use xlink:href="#m24cc4d9092" x="264.426963" y="186.565695" style="fill: #1f77b4; stroke: #1f77b4"/>
     <use xlink:href="#m24cc4d9092" x="363.09982" y="197.646153" style="fill: #1f77b4; stroke: #1f77b4"/>
     <use xlink:href="#m24cc4d9092" x="187.516462" y="195.770888" style="fill: #1f77b4; stroke: #1f77b4"/>
     <use xlink:href="#m24cc4d9092" x="157.541897" y="196.246964" style="fill: #1f77b4; stroke: #1f77b4"/>
     <use xlink:href="#m24cc4d9092" x="249.818706" y="186.881787" style="fill: #1f77b4; stroke: #1f77b4"/>
     <use xlink:href="#m24cc4d9092" x="138.764364" y="220.470977" style="fill: #1f77b4; stroke: #1f77b4"/>
     <use xlink:href="#m24cc4d9092" x="308.457041" y="120.728139" style="fill: #1f77b4; stroke: #1f77b4"/>
     <use xlink:href="#m24cc4d9092" x="174.424305" y="269.79194" style="fill: #1f77b4; stroke: #1f77b4"/>
     <use xlink:href="#m24cc4d9092" x="161.900685" y="234.402405" style="fill: #1f77b4; stroke: #1f77b4"/>
     <use xlink:href="#m24cc4d9092" x="279.935405" y="228.405943" style="fill: #1f77b4; stroke: #1f77b4"/>
     <use xlink:href="#m24cc4d9092" x="232.794164" y="197.650639" style="fill: #1f77b4; stroke: #1f77b4"/>
     <use xlink:href="#m24cc4d9092" x="147.023952" y="223.871594" style="fill: #1f77b4; stroke: #1f77b4"/>
     <use xlink:href="#m24cc4d9092" x="364.347444" y="229.303999" style="fill: #1f77b4; stroke: #1f77b4"/>
     <use xlink:href="#m24cc4d9092" x="118.328597" y="220.460059" style="fill: #1f77b4; stroke: #1f77b4"/>
     <use xlink:href="#m24cc4d9092" x="350.734127" y="229.412484" style="fill: #1f77b4; stroke: #1f77b4"/>
     <use xlink:href="#m24cc4d9092" x="361.64689" y="248.041687" style="fill: #1f77b4; stroke: #1f77b4"/>
     <use xlink:href="#m24cc4d9092" x="153.467378" y="224.703998" style="fill: #1f77b4; stroke: #1f77b4"/>
     <use xlink:href="#m24cc4d9092" x="287.057918" y="223.062821" style="fill: #1f77b4; stroke: #1f77b4"/>
     <use xlink:href="#m24cc4d9092" x="431.719148" y="193.296914" style="fill: #1f77b4; stroke: #1f77b4"/>
     <use xlink:href="#m24cc4d9092" x="393.011214" y="181.447284" style="fill: #1f77b4; stroke: #1f77b4"/>
     <use xlink:href="#m24cc4d9092" x="210.415893" y="252.421682" style="fill: #1f77b4; stroke: #1f77b4"/>
     <use xlink:href="#m24cc4d9092" x="153.483171" y="240.502365" style="fill: #1f77b4; stroke: #1f77b4"/>
     <use xlink:href="#m24cc4d9092" x="199.787398" y="222.83773" style="fill: #1f77b4; stroke: #1f77b4"/>
     <use xlink:href="#m24cc4d9092" x="125.356353" y="219.712316" style="fill: #1f77b4; stroke: #1f77b4"/>
     <use xlink:href="#m24cc4d9092" x="318.690717" y="182.144286" style="fill: #1f77b4; stroke: #1f77b4"/>
     <use xlink:href="#m24cc4d9092" x="224.123966" y="214.08691" style="fill: #1f77b4; stroke: #1f77b4"/>
     <use xlink:href="#m24cc4d9092" x="182.383831" y="250.302223" style="fill: #1f77b4; stroke: #1f77b4"/>
     <use xlink:href="#m24cc4d9092" x="363.668357" y="227.140143" style="fill: #1f77b4; stroke: #1f77b4"/>
     <use xlink:href="#m24cc4d9092" x="227.724704" y="199.172553" style="fill: #1f77b4; stroke: #1f77b4"/>
     <use xlink:href="#m24cc4d9092" x="348.949551" y="245.543406" style="fill: #1f77b4; stroke: #1f77b4"/>
     <use xlink:href="#m24cc4d9092" x="169.56015" y="252.411073" style="fill: #1f77b4; stroke: #1f77b4"/>
     <use xlink:href="#m24cc4d9092" x="206.388751" y="206.751652" style="fill: #1f77b4; stroke: #1f77b4"/>
     <use xlink:href="#m24cc4d9092" x="204.998993" y="245.149562" style="fill: #1f77b4; stroke: #1f77b4"/>
     <use xlink:href="#m24cc4d9092" x="239.537651" y="250.804714" style="fill: #1f77b4; stroke: #1f77b4"/>
     <use xlink:href="#m24cc4d9092" x="266.527394" y="214.590307" style="fill: #1f77b4; stroke: #1f77b4"/>
     <use xlink:href="#m24cc4d9092" x="330.014091" y="243.318349" style="fill: #1f77b4; stroke: #1f77b4"/>
     <use xlink:href="#m24cc4d9092" x="208.947171" y="252.823295" style="fill: #1f77b4; stroke: #1f77b4"/>
     <use xlink:href="#m24cc4d9092" x="391.984688" y="252.524836" style="fill: #1f77b4; stroke: #1f77b4"/>
     <use xlink:href="#m24cc4d9092" x="182.683893" y="237.801095" style="fill: #1f77b4; stroke: #1f77b4"/>
     <use xlink:href="#m24cc4d9092" x="229.935683" y="237.783335" style="fill: #1f77b4; stroke: #1f77b4"/>
     <use xlink:href="#m24cc4d9092" x="295.317505" y="203.242021" style="fill: #1f77b4; stroke: #1f77b4"/>
     <use xlink:href="#m24cc4d9092" x="195.460196" y="186.760231" style="fill: #1f77b4; stroke: #1f77b4"/>
     <use xlink:href="#m24cc4d9092" x="286.915783" y="201.254332" style="fill: #1f77b4; stroke: #1f77b4"/>
     <use xlink:href="#m24cc4d9092" x="285.620781" y="227.942166" style="fill: #1f77b4; stroke: #1f77b4"/>
     <use xlink:href="#m24cc4d9092" x="262.373911" y="209.319531" style="fill: #1f77b4; stroke: #1f77b4"/>
     <use xlink:href="#m24cc4d9092" x="215.46956" y="201.91261" style="fill: #1f77b4; stroke: #1f77b4"/>
     <use xlink:href="#m24cc4d9092" x="205.804421" y="245.863921" style="fill: #1f77b4; stroke: #1f77b4"/>
     <use xlink:href="#m24cc4d9092" x="283.946754" y="228.465334" style="fill: #1f77b4; stroke: #1f77b4"/>
     <use xlink:href="#m24cc4d9092" x="338.463191" y="239.098482" style="fill: #1f77b4; stroke: #1f77b4"/>
     <use xlink:href="#m24cc4d9092" x="257.020182" y="220.516736" style="fill: #1f77b4; stroke: #1f77b4"/>
     <use xlink:href="#m24cc4d9092" x="268.83313" y="231.360794" style="fill: #1f77b4; stroke: #1f77b4"/>
     <use xlink:href="#m24cc4d9092" x="138.369546" y="249.861742" style="fill: #1f77b4; stroke: #1f77b4"/>
     <use xlink:href="#m24cc4d9092" x="303.798191" y="213.056166" style="fill: #1f77b4; stroke: #1f77b4"/>
     <use xlink:href="#m24cc4d9092" x="368.737817" y="208.484711" style="fill: #1f77b4; stroke: #1f77b4"/>
     <use xlink:href="#m24cc4d9092" x="293.264453" y="243.302321" style="fill: #1f77b4; stroke: #1f77b4"/>
     <use xlink:href="#m24cc4d9092" x="226.050676" y="206.220525" style="fill: #1f77b4; stroke: #1f77b4"/>
     <use xlink:href="#m24cc4d9092" x="216.590843" y="221.324398" style="fill: #1f77b4; stroke: #1f77b4"/>
     <use xlink:href="#m24cc4d9092" x="286.157733" y="234.0528" style="fill: #1f77b4; stroke: #1f77b4"/>
     <use xlink:href="#m24cc4d9092" x="404.555685" y="224.549704" style="fill: #1f77b4; stroke: #1f77b4"/>
     <use xlink:href="#m24cc4d9092" x="378.434542" y="252.353542" style="fill: #1f77b4; stroke: #1f77b4"/>
     <use xlink:href="#m24cc4d9092" x="143.628519" y="201.48205" style="fill: #1f77b4; stroke: #1f77b4"/>
     <use xlink:href="#m24cc4d9092" x="335.036173" y="232.089781" style="fill: #1f77b4; stroke: #1f77b4"/>
     <use xlink:href="#m24cc4d9092" x="198.792458" y="230.895448" style="fill: #1f77b4; stroke: #1f77b4"/>
    </g>
   </g>
   <g id="matplotlib.axis_1">
    <g id="xtick_1">
     <g id="line2d_1">
      <defs>
       <path id="m4e4e700b08" d="M 0 0 
L 0 3.5 
" style="stroke: #000000; stroke-width: 0.8"/>
      </defs>
      <g>
       <use xlink:href="#m4e4e700b08" x="84.184756" y="303.64" style="stroke: #000000; stroke-width: 0.8"/>
      </g>
     </g>
     <g id="text_1">
      <!-- 15 -->
      <g transform="translate(77.822256 318.238437)scale(0.1 -0.1)">
       <defs>
        <path id="DejaVuSans-31" d="M 794 531 
L 1825 531 
L 1825 4091 
L 703 3866 
L 703 4441 
L 1819 4666 
L 2450 4666 
L 2450 531 
L 3481 531 
L 3481 0 
L 794 0 
L 794 531 
z
" transform="scale(0.015625)"/>
        <path id="DejaVuSans-35" d="M 691 4666 
L 3169 4666 
L 3169 4134 
L 1269 4134 
L 1269 2991 
Q 1406 3038 1543 3061 
Q 1681 3084 1819 3084 
Q 2600 3084 3056 2656 
Q 3513 2228 3513 1497 
Q 3513 744 3044 326 
Q 2575 -91 1722 -91 
Q 1428 -91 1123 -41 
Q 819 9 494 109 
L 494 744 
Q 775 591 1075 516 
Q 1375 441 1709 441 
Q 2250 441 2565 725 
Q 2881 1009 2881 1497 
Q 2881 1984 2565 2268 
Q 2250 2553 1709 2553 
Q 1456 2553 1204 2497 
Q 953 2441 691 2322 
L 691 4666 
z
" transform="scale(0.015625)"/>
       </defs>
       <use xlink:href="#DejaVuSans-31"/>
       <use xlink:href="#DejaVuSans-35" x="63.623047"/>
      </g>
     </g>
    </g>
    <g id="xtick_2">
     <g id="line2d_2">
      <g>
       <use xlink:href="#m4e4e700b08" x="163.14831" y="303.64" style="stroke: #000000; stroke-width: 0.8"/>
      </g>
     </g>
     <g id="text_2">
      <!-- 20 -->
      <g transform="translate(156.78581 318.238437)scale(0.1 -0.1)">
       <defs>
        <path id="DejaVuSans-32" d="M 1228 531 
L 3431 531 
L 3431 0 
L 469 0 
L 469 531 
Q 828 903 1448 1529 
Q 2069 2156 2228 2338 
Q 2531 2678 2651 2914 
Q 2772 3150 2772 3378 
Q 2772 3750 2511 3984 
Q 2250 4219 1831 4219 
Q 1534 4219 1204 4116 
Q 875 4013 500 3803 
L 500 4441 
Q 881 4594 1212 4672 
Q 1544 4750 1819 4750 
Q 2544 4750 2975 4387 
Q 3406 4025 3406 3419 
Q 3406 3131 3298 2873 
Q 3191 2616 2906 2266 
Q 2828 2175 2409 1742 
Q 1991 1309 1228 531 
z
" transform="scale(0.015625)"/>
        <path id="DejaVuSans-30" d="M 2034 4250 
Q 1547 4250 1301 3770 
Q 1056 3291 1056 2328 
Q 1056 1369 1301 889 
Q 1547 409 2034 409 
Q 2525 409 2770 889 
Q 3016 1369 3016 2328 
Q 3016 3291 2770 3770 
Q 2525 4250 2034 4250 
z
M 2034 4750 
Q 2819 4750 3233 4129 
Q 3647 3509 3647 2328 
Q 3647 1150 3233 529 
Q 2819 -91 2034 -91 
Q 1250 -91 836 529 
Q 422 1150 422 2328 
Q 422 3509 836 4129 
Q 1250 4750 2034 4750 
z
" transform="scale(0.015625)"/>
       </defs>
       <use xlink:href="#DejaVuSans-32"/>
       <use xlink:href="#DejaVuSans-30" x="63.623047"/>
      </g>
     </g>
    </g>
    <g id="xtick_3">
     <g id="line2d_3">
      <g>
       <use xlink:href="#m4e4e700b08" x="242.111863" y="303.64" style="stroke: #000000; stroke-width: 0.8"/>
      </g>
     </g>
     <g id="text_3">
      <!-- 25 -->
      <g transform="translate(235.749363 318.238437)scale(0.1 -0.1)">
       <use xlink:href="#DejaVuSans-32"/>
       <use xlink:href="#DejaVuSans-35" x="63.623047"/>
      </g>
     </g>
    </g>
    <g id="xtick_4">
     <g id="line2d_4">
      <g>
       <use xlink:href="#m4e4e700b08" x="321.075417" y="303.64" style="stroke: #000000; stroke-width: 0.8"/>
      </g>
     </g>
     <g id="text_4">
      <!-- 30 -->
      <g transform="translate(314.712917 318.238437)scale(0.1 -0.1)">
       <defs>
        <path id="DejaVuSans-33" d="M 2597 2516 
Q 3050 2419 3304 2112 
Q 3559 1806 3559 1356 
Q 3559 666 3084 287 
Q 2609 -91 1734 -91 
Q 1441 -91 1130 -33 
Q 819 25 488 141 
L 488 750 
Q 750 597 1062 519 
Q 1375 441 1716 441 
Q 2309 441 2620 675 
Q 2931 909 2931 1356 
Q 2931 1769 2642 2001 
Q 2353 2234 1838 2234 
L 1294 2234 
L 1294 2753 
L 1863 2753 
Q 2328 2753 2575 2939 
Q 2822 3125 2822 3475 
Q 2822 3834 2567 4026 
Q 2313 4219 1838 4219 
Q 1578 4219 1281 4162 
Q 984 4106 628 3988 
L 628 4550 
Q 988 4650 1302 4700 
Q 1616 4750 1894 4750 
Q 2613 4750 3031 4423 
Q 3450 4097 3450 3541 
Q 3450 3153 3228 2886 
Q 3006 2619 2597 2516 
z
" transform="scale(0.015625)"/>
       </defs>
       <use xlink:href="#DejaVuSans-33"/>
       <use xlink:href="#DejaVuSans-30" x="63.623047"/>
      </g>
     </g>
    </g>
    <g id="xtick_5">
     <g id="line2d_5">
      <g>
       <use xlink:href="#m4e4e700b08" x="400.03897" y="303.64" style="stroke: #000000; stroke-width: 0.8"/>
      </g>
     </g>
     <g id="text_5">
      <!-- 35 -->
      <g transform="translate(393.67647 318.238437)scale(0.1 -0.1)">
       <use xlink:href="#DejaVuSans-33"/>
       <use xlink:href="#DejaVuSans-35" x="63.623047"/>
      </g>
     </g>
    </g>
    <g id="text_6">
     <!-- IMM1Diff -->
     <g transform="translate(226.866875 331.916562)scale(0.1 -0.1)">
      <defs>
       <path id="DejaVuSans-49" d="M 628 4666 
L 1259 4666 
L 1259 0 
L 628 0 
L 628 4666 
z
" transform="scale(0.015625)"/>
       <path id="DejaVuSans-4d" d="M 628 4666 
L 1569 4666 
L 2759 1491 
L 3956 4666 
L 4897 4666 
L 4897 0 
L 4281 0 
L 4281 4097 
L 3078 897 
L 2444 897 
L 1241 4097 
L 1241 0 
L 628 0 
L 628 4666 
z
" transform="scale(0.015625)"/>
       <path id="DejaVuSans-44" d="M 1259 4147 
L 1259 519 
L 2022 519 
Q 2988 519 3436 956 
Q 3884 1394 3884 2338 
Q 3884 3275 3436 3711 
Q 2988 4147 2022 4147 
L 1259 4147 
z
M 628 4666 
L 1925 4666 
Q 3281 4666 3915 4102 
Q 4550 3538 4550 2338 
Q 4550 1131 3912 565 
Q 3275 0 1925 0 
L 628 0 
L 628 4666 
z
" transform="scale(0.015625)"/>
       <path id="DejaVuSans-69" d="M 603 3500 
L 1178 3500 
L 1178 0 
L 603 0 
L 603 3500 
z
M 603 4863 
L 1178 4863 
L 1178 4134 
L 603 4134 
L 603 4863 
z
" transform="scale(0.015625)"/>
       <path id="DejaVuSans-66" d="M 2375 4863 
L 2375 4384 
L 1825 4384 
Q 1516 4384 1395 4259 
Q 1275 4134 1275 3809 
L 1275 3500 
L 2222 3500 
L 2222 3053 
L 1275 3053 
L 1275 0 
L 697 0 
L 697 3053 
L 147 3053 
L 147 3500 
L 697 3500 
L 697 3744 
Q 697 4328 969 4595 
Q 1241 4863 1831 4863 
L 2375 4863 
z
" transform="scale(0.015625)"/>
      </defs>
      <use xlink:href="#DejaVuSans-49"/>
      <use xlink:href="#DejaVuSans-4d" x="29.492188"/>
      <use xlink:href="#DejaVuSans-4d" x="115.771484"/>
      <use xlink:href="#DejaVuSans-31" x="202.050781"/>
      <use xlink:href="#DejaVuSans-44" x="265.673828"/>
      <use xlink:href="#DejaVuSans-69" x="342.675781"/>
      <use xlink:href="#DejaVuSans-66" x="370.458984"/>
      <use xlink:href="#DejaVuSans-66" x="405.664062"/>
     </g>
    </g>
   </g>
   <g id="matplotlib.axis_2">
    <g id="ytick_1">
     <g id="line2d_6">
      <defs>
       <path id="m88ef421e5d" d="M 0 0 
L -3.5 0 
" style="stroke: #000000; stroke-width: 0.8"/>
      </defs>
      <g>
       <use xlink:href="#m88ef421e5d" x="47.82125" y="303.64" style="stroke: #000000; stroke-width: 0.8"/>
      </g>
     </g>
     <g id="text_7">
      <!-- 0.0 -->
      <g transform="translate(24.918125 307.439219)scale(0.1 -0.1)">
       <defs>
        <path id="DejaVuSans-2e" d="M 684 794 
L 1344 794 
L 1344 0 
L 684 0 
L 684 794 
z
" transform="scale(0.015625)"/>
       </defs>
       <use xlink:href="#DejaVuSans-30"/>
       <use xlink:href="#DejaVuSans-2e" x="63.623047"/>
       <use xlink:href="#DejaVuSans-30" x="95.410156"/>
      </g>
     </g>
    </g>
    <g id="ytick_2">
     <g id="line2d_7">
      <g>
       <use xlink:href="#m88ef421e5d" x="47.82125" y="254.872536" style="stroke: #000000; stroke-width: 0.8"/>
      </g>
     </g>
     <g id="text_8">
      <!-- 0.2 -->
      <g transform="translate(24.918125 258.671755)scale(0.1 -0.1)">
       <use xlink:href="#DejaVuSans-30"/>
       <use xlink:href="#DejaVuSans-2e" x="63.623047"/>
       <use xlink:href="#DejaVuSans-32" x="95.410156"/>
      </g>
     </g>
    </g>
    <g id="ytick_3">
     <g id="line2d_8">
      <g>
       <use xlink:href="#m88ef421e5d" x="47.82125" y="206.105072" style="stroke: #000000; stroke-width: 0.8"/>
      </g>
     </g>
     <g id="text_9">
      <!-- 0.4 -->
      <g transform="translate(24.918125 209.90429)scale(0.1 -0.1)">
       <defs>
        <path id="DejaVuSans-34" d="M 2419 4116 
L 825 1625 
L 2419 1625 
L 2419 4116 
z
M 2253 4666 
L 3047 4666 
L 3047 1625 
L 3713 1625 
L 3713 1100 
L 3047 1100 
L 3047 0 
L 2419 0 
L 2419 1100 
L 313 1100 
L 313 1709 
L 2253 4666 
z
" transform="scale(0.015625)"/>
       </defs>
       <use xlink:href="#DejaVuSans-30"/>
       <use xlink:href="#DejaVuSans-2e" x="63.623047"/>
       <use xlink:href="#DejaVuSans-34" x="95.410156"/>
      </g>
     </g>
    </g>
    <g id="ytick_4">
     <g id="line2d_9">
      <g>
       <use xlink:href="#m88ef421e5d" x="47.82125" y="157.337607" style="stroke: #000000; stroke-width: 0.8"/>
      </g>
     </g>
     <g id="text_10">
      <!-- 0.6 -->
      <g transform="translate(24.918125 161.136826)scale(0.1 -0.1)">
       <defs>
        <path id="DejaVuSans-36" d="M 2113 2584 
Q 1688 2584 1439 2293 
Q 1191 2003 1191 1497 
Q 1191 994 1439 701 
Q 1688 409 2113 409 
Q 2538 409 2786 701 
Q 3034 994 3034 1497 
Q 3034 2003 2786 2293 
Q 2538 2584 2113 2584 
z
M 3366 4563 
L 3366 3988 
Q 3128 4100 2886 4159 
Q 2644 4219 2406 4219 
Q 1781 4219 1451 3797 
Q 1122 3375 1075 2522 
Q 1259 2794 1537 2939 
Q 1816 3084 2150 3084 
Q 2853 3084 3261 2657 
Q 3669 2231 3669 1497 
Q 3669 778 3244 343 
Q 2819 -91 2113 -91 
Q 1303 -91 875 529 
Q 447 1150 447 2328 
Q 447 3434 972 4092 
Q 1497 4750 2381 4750 
Q 2619 4750 2861 4703 
Q 3103 4656 3366 4563 
z
" transform="scale(0.015625)"/>
       </defs>
       <use xlink:href="#DejaVuSans-30"/>
       <use xlink:href="#DejaVuSans-2e" x="63.623047"/>
       <use xlink:href="#DejaVuSans-36" x="95.410156"/>
      </g>
     </g>
    </g>
    <g id="ytick_5">
     <g id="line2d_10">
      <g>
       <use xlink:href="#m88ef421e5d" x="47.82125" y="108.570143" style="stroke: #000000; stroke-width: 0.8"/>
      </g>
     </g>
     <g id="text_11">
      <!-- 0.8 -->
      <g transform="translate(24.918125 112.369362)scale(0.1 -0.1)">
       <defs>
        <path id="DejaVuSans-38" d="M 2034 2216 
Q 1584 2216 1326 1975 
Q 1069 1734 1069 1313 
Q 1069 891 1326 650 
Q 1584 409 2034 409 
Q 2484 409 2743 651 
Q 3003 894 3003 1313 
Q 3003 1734 2745 1975 
Q 2488 2216 2034 2216 
z
M 1403 2484 
Q 997 2584 770 2862 
Q 544 3141 544 3541 
Q 544 4100 942 4425 
Q 1341 4750 2034 4750 
Q 2731 4750 3128 4425 
Q 3525 4100 3525 3541 
Q 3525 3141 3298 2862 
Q 3072 2584 2669 2484 
Q 3125 2378 3379 2068 
Q 3634 1759 3634 1313 
Q 3634 634 3220 271 
Q 2806 -91 2034 -91 
Q 1263 -91 848 271 
Q 434 634 434 1313 
Q 434 1759 690 2068 
Q 947 2378 1403 2484 
z
M 1172 3481 
Q 1172 3119 1398 2916 
Q 1625 2713 2034 2713 
Q 2441 2713 2670 2916 
Q 2900 3119 2900 3481 
Q 2900 3844 2670 4047 
Q 2441 4250 2034 4250 
Q 1625 4250 1398 4047 
Q 1172 3844 1172 3481 
z
" transform="scale(0.015625)"/>
       </defs>
       <use xlink:href="#DejaVuSans-30"/>
       <use xlink:href="#DejaVuSans-2e" x="63.623047"/>
       <use xlink:href="#DejaVuSans-38" x="95.410156"/>
      </g>
     </g>
    </g>
    <g id="ytick_6">
     <g id="line2d_11">
      <g>
       <use xlink:href="#m88ef421e5d" x="47.82125" y="59.802679" style="stroke: #000000; stroke-width: 0.8"/>
      </g>
     </g>
     <g id="text_12">
      <!-- 1.0 -->
      <g transform="translate(24.918125 63.601898)scale(0.1 -0.1)">
       <use xlink:href="#DejaVuSans-31"/>
       <use xlink:href="#DejaVuSans-2e" x="63.623047"/>
       <use xlink:href="#DejaVuSans-30" x="95.410156"/>
      </g>
     </g>
    </g>
    <g id="text_13">
     <!-- PercentGpA_transformed -->
     <g transform="translate(18.560313 237.696138)rotate(-90)scale(0.1 -0.1)">
      <defs>
       <path id="DejaVuSans-50" d="M 1259 4147 
L 1259 2394 
L 2053 2394 
Q 2494 2394 2734 2622 
Q 2975 2850 2975 3272 
Q 2975 3691 2734 3919 
Q 2494 4147 2053 4147 
L 1259 4147 
z
M 628 4666 
L 2053 4666 
Q 2838 4666 3239 4311 
Q 3641 3956 3641 3272 
Q 3641 2581 3239 2228 
Q 2838 1875 2053 1875 
L 1259 1875 
L 1259 0 
L 628 0 
L 628 4666 
z
" transform="scale(0.015625)"/>
       <path id="DejaVuSans-65" d="M 3597 1894 
L 3597 1613 
L 953 1613 
Q 991 1019 1311 708 
Q 1631 397 2203 397 
Q 2534 397 2845 478 
Q 3156 559 3463 722 
L 3463 178 
Q 3153 47 2828 -22 
Q 2503 -91 2169 -91 
Q 1331 -91 842 396 
Q 353 884 353 1716 
Q 353 2575 817 3079 
Q 1281 3584 2069 3584 
Q 2775 3584 3186 3129 
Q 3597 2675 3597 1894 
z
M 3022 2063 
Q 3016 2534 2758 2815 
Q 2500 3097 2075 3097 
Q 1594 3097 1305 2825 
Q 1016 2553 972 2059 
L 3022 2063 
z
" transform="scale(0.015625)"/>
       <path id="DejaVuSans-72" d="M 2631 2963 
Q 2534 3019 2420 3045 
Q 2306 3072 2169 3072 
Q 1681 3072 1420 2755 
Q 1159 2438 1159 1844 
L 1159 0 
L 581 0 
L 581 3500 
L 1159 3500 
L 1159 2956 
Q 1341 3275 1631 3429 
Q 1922 3584 2338 3584 
Q 2397 3584 2469 3576 
Q 2541 3569 2628 3553 
L 2631 2963 
z
" transform="scale(0.015625)"/>
       <path id="DejaVuSans-63" d="M 3122 3366 
L 3122 2828 
Q 2878 2963 2633 3030 
Q 2388 3097 2138 3097 
Q 1578 3097 1268 2742 
Q 959 2388 959 1747 
Q 959 1106 1268 751 
Q 1578 397 2138 397 
Q 2388 397 2633 464 
Q 2878 531 3122 666 
L 3122 134 
Q 2881 22 2623 -34 
Q 2366 -91 2075 -91 
Q 1284 -91 818 406 
Q 353 903 353 1747 
Q 353 2603 823 3093 
Q 1294 3584 2113 3584 
Q 2378 3584 2631 3529 
Q 2884 3475 3122 3366 
z
" transform="scale(0.015625)"/>
       <path id="DejaVuSans-6e" d="M 3513 2113 
L 3513 0 
L 2938 0 
L 2938 2094 
Q 2938 2591 2744 2837 
Q 2550 3084 2163 3084 
Q 1697 3084 1428 2787 
Q 1159 2491 1159 1978 
L 1159 0 
L 581 0 
L 581 3500 
L 1159 3500 
L 1159 2956 
Q 1366 3272 1645 3428 
Q 1925 3584 2291 3584 
Q 2894 3584 3203 3211 
Q 3513 2838 3513 2113 
z
" transform="scale(0.015625)"/>
       <path id="DejaVuSans-74" d="M 1172 4494 
L 1172 3500 
L 2356 3500 
L 2356 3053 
L 1172 3053 
L 1172 1153 
Q 1172 725 1289 603 
Q 1406 481 1766 481 
L 2356 481 
L 2356 0 
L 1766 0 
Q 1100 0 847 248 
Q 594 497 594 1153 
L 594 3053 
L 172 3053 
L 172 3500 
L 594 3500 
L 594 4494 
L 1172 4494 
z
" transform="scale(0.015625)"/>
       <path id="DejaVuSans-47" d="M 3809 666 
L 3809 1919 
L 2778 1919 
L 2778 2438 
L 4434 2438 
L 4434 434 
Q 4069 175 3628 42 
Q 3188 -91 2688 -91 
Q 1594 -91 976 548 
Q 359 1188 359 2328 
Q 359 3472 976 4111 
Q 1594 4750 2688 4750 
Q 3144 4750 3555 4637 
Q 3966 4525 4313 4306 
L 4313 3634 
Q 3963 3931 3569 4081 
Q 3175 4231 2741 4231 
Q 1884 4231 1454 3753 
Q 1025 3275 1025 2328 
Q 1025 1384 1454 906 
Q 1884 428 2741 428 
Q 3075 428 3337 486 
Q 3600 544 3809 666 
z
" transform="scale(0.015625)"/>
       <path id="DejaVuSans-70" d="M 1159 525 
L 1159 -1331 
L 581 -1331 
L 581 3500 
L 1159 3500 
L 1159 2969 
Q 1341 3281 1617 3432 
Q 1894 3584 2278 3584 
Q 2916 3584 3314 3078 
Q 3713 2572 3713 1747 
Q 3713 922 3314 415 
Q 2916 -91 2278 -91 
Q 1894 -91 1617 61 
Q 1341 213 1159 525 
z
M 3116 1747 
Q 3116 2381 2855 2742 
Q 2594 3103 2138 3103 
Q 1681 3103 1420 2742 
Q 1159 2381 1159 1747 
Q 1159 1113 1420 752 
Q 1681 391 2138 391 
Q 2594 391 2855 752 
Q 3116 1113 3116 1747 
z
" transform="scale(0.015625)"/>
       <path id="DejaVuSans-41" d="M 2188 4044 
L 1331 1722 
L 3047 1722 
L 2188 4044 
z
M 1831 4666 
L 2547 4666 
L 4325 0 
L 3669 0 
L 3244 1197 
L 1141 1197 
L 716 0 
L 50 0 
L 1831 4666 
z
" transform="scale(0.015625)"/>
       <path id="DejaVuSans-5f" d="M 3263 -1063 
L 3263 -1509 
L -63 -1509 
L -63 -1063 
L 3263 -1063 
z
" transform="scale(0.015625)"/>
       <path id="DejaVuSans-61" d="M 2194 1759 
Q 1497 1759 1228 1600 
Q 959 1441 959 1056 
Q 959 750 1161 570 
Q 1363 391 1709 391 
Q 2188 391 2477 730 
Q 2766 1069 2766 1631 
L 2766 1759 
L 2194 1759 
z
M 3341 1997 
L 3341 0 
L 2766 0 
L 2766 531 
Q 2569 213 2275 61 
Q 1981 -91 1556 -91 
Q 1019 -91 701 211 
Q 384 513 384 1019 
Q 384 1609 779 1909 
Q 1175 2209 1959 2209 
L 2766 2209 
L 2766 2266 
Q 2766 2663 2505 2880 
Q 2244 3097 1772 3097 
Q 1472 3097 1187 3025 
Q 903 2953 641 2809 
L 641 3341 
Q 956 3463 1253 3523 
Q 1550 3584 1831 3584 
Q 2591 3584 2966 3190 
Q 3341 2797 3341 1997 
z
" transform="scale(0.015625)"/>
       <path id="DejaVuSans-73" d="M 2834 3397 
L 2834 2853 
Q 2591 2978 2328 3040 
Q 2066 3103 1784 3103 
Q 1356 3103 1142 2972 
Q 928 2841 928 2578 
Q 928 2378 1081 2264 
Q 1234 2150 1697 2047 
L 1894 2003 
Q 2506 1872 2764 1633 
Q 3022 1394 3022 966 
Q 3022 478 2636 193 
Q 2250 -91 1575 -91 
Q 1294 -91 989 -36 
Q 684 19 347 128 
L 347 722 
Q 666 556 975 473 
Q 1284 391 1588 391 
Q 1994 391 2212 530 
Q 2431 669 2431 922 
Q 2431 1156 2273 1281 
Q 2116 1406 1581 1522 
L 1381 1569 
Q 847 1681 609 1914 
Q 372 2147 372 2553 
Q 372 3047 722 3315 
Q 1072 3584 1716 3584 
Q 2034 3584 2315 3537 
Q 2597 3491 2834 3397 
z
" transform="scale(0.015625)"/>
       <path id="DejaVuSans-6f" d="M 1959 3097 
Q 1497 3097 1228 2736 
Q 959 2375 959 1747 
Q 959 1119 1226 758 
Q 1494 397 1959 397 
Q 2419 397 2687 759 
Q 2956 1122 2956 1747 
Q 2956 2369 2687 2733 
Q 2419 3097 1959 3097 
z
M 1959 3584 
Q 2709 3584 3137 3096 
Q 3566 2609 3566 1747 
Q 3566 888 3137 398 
Q 2709 -91 1959 -91 
Q 1206 -91 779 398 
Q 353 888 353 1747 
Q 353 2609 779 3096 
Q 1206 3584 1959 3584 
z
" transform="scale(0.015625)"/>
       <path id="DejaVuSans-6d" d="M 3328 2828 
Q 3544 3216 3844 3400 
Q 4144 3584 4550 3584 
Q 5097 3584 5394 3201 
Q 5691 2819 5691 2113 
L 5691 0 
L 5113 0 
L 5113 2094 
Q 5113 2597 4934 2840 
Q 4756 3084 4391 3084 
Q 3944 3084 3684 2787 
Q 3425 2491 3425 1978 
L 3425 0 
L 2847 0 
L 2847 2094 
Q 2847 2600 2669 2842 
Q 2491 3084 2119 3084 
Q 1678 3084 1418 2786 
Q 1159 2488 1159 1978 
L 1159 0 
L 581 0 
L 581 3500 
L 1159 3500 
L 1159 2956 
Q 1356 3278 1631 3431 
Q 1906 3584 2284 3584 
Q 2666 3584 2933 3390 
Q 3200 3197 3328 2828 
z
" transform="scale(0.015625)"/>
       <path id="DejaVuSans-64" d="M 2906 2969 
L 2906 4863 
L 3481 4863 
L 3481 0 
L 2906 0 
L 2906 525 
Q 2725 213 2448 61 
Q 2172 -91 1784 -91 
Q 1150 -91 751 415 
Q 353 922 353 1747 
Q 353 2572 751 3078 
Q 1150 3584 1784 3584 
Q 2172 3584 2448 3432 
Q 2725 3281 2906 2969 
z
M 947 1747 
Q 947 1113 1208 752 
Q 1469 391 1925 391 
Q 2381 391 2643 752 
Q 2906 1113 2906 1747 
Q 2906 2381 2643 2742 
Q 2381 3103 1925 3103 
Q 1469 3103 1208 2742 
Q 947 2381 947 1747 
z
" transform="scale(0.015625)"/>
      </defs>
      <use xlink:href="#DejaVuSans-50"/>
      <use xlink:href="#DejaVuSans-65" x="56.677734"/>
      <use xlink:href="#DejaVuSans-72" x="118.201172"/>
      <use xlink:href="#DejaVuSans-63" x="157.064453"/>
      <use xlink:href="#DejaVuSans-65" x="212.044922"/>
      <use xlink:href="#DejaVuSans-6e" x="273.568359"/>
      <use xlink:href="#DejaVuSans-74" x="336.947266"/>
      <use xlink:href="#DejaVuSans-47" x="376.15625"/>
      <use xlink:href="#DejaVuSans-70" x="453.646484"/>
      <use xlink:href="#DejaVuSans-41" x="517.123047"/>
      <use xlink:href="#DejaVuSans-5f" x="585.53125"/>
      <use xlink:href="#DejaVuSans-74" x="635.53125"/>
      <use xlink:href="#DejaVuSans-72" x="674.740234"/>
      <use xlink:href="#DejaVuSans-61" x="715.853516"/>
      <use xlink:href="#DejaVuSans-6e" x="777.132812"/>
      <use xlink:href="#DejaVuSans-73" x="840.511719"/>
      <use xlink:href="#DejaVuSans-66" x="892.611328"/>
      <use xlink:href="#DejaVuSans-6f" x="927.816406"/>
      <use xlink:href="#DejaVuSans-72" x="988.998047"/>
      <use xlink:href="#DejaVuSans-6d" x="1028.361328"/>
      <use xlink:href="#DejaVuSans-65" x="1125.773438"/>
      <use xlink:href="#DejaVuSans-64" x="1187.296875"/>
     </g>
    </g>
   </g>
   <g id="LineCollection_1">
    <path d="M 85.795613 205.055888 
L 85.795613 202.527267 
" clip-path="url(#p3e161b1864)" style="fill: none; stroke: #d3d3d3; stroke-width: 3"/>
    <path d="M 233.583799 251.844912 
L 233.583799 207.771658 
" clip-path="url(#p3e161b1864)" style="fill: none; stroke: #d3d3d3; stroke-width: 3"/>
    <path d="M 111.664073 229.476953 
L 111.664073 195.891117 
" clip-path="url(#p3e161b1864)" style="fill: none; stroke: #d3d3d3; stroke-width: 3"/>
    <path d="M 196.802576 217.071499 
L 196.802576 213.696395 
" clip-path="url(#p3e161b1864)" style="fill: none; stroke: #d3d3d3; stroke-width: 3"/>
    <path d="M 243.485829 228.454945 
L 243.485829 174.722583 
" clip-path="url(#p3e161b1864)" style="fill: none; stroke: #d3d3d3; stroke-width: 3"/>
    <path d="M 229.288182 228.934401 
L 229.288182 214.764795 
" clip-path="url(#p3e161b1864)" style="fill: none; stroke: #d3d3d3; stroke-width: 3"/>
    <path d="M 217.870052 203.148092 
L 217.870052 169.817635 
" clip-path="url(#p3e161b1864)" style="fill: none; stroke: #d3d3d3; stroke-width: 3"/>
    <path d="M 266.353674 239.77334 
L 266.353674 223.750407 
" clip-path="url(#p3e161b1864)" style="fill: none; stroke: #d3d3d3; stroke-width: 3"/>
    <path d="M 272.891856 175.669271 
L 272.891856 165.292332 
" clip-path="url(#p3e161b1864)" style="fill: none; stroke: #d3d3d3; stroke-width: 3"/>
    <path d="M 360.225546 240.486798 
L 360.225546 224.613292 
" clip-path="url(#p3e161b1864)" style="fill: none; stroke: #d3d3d3; stroke-width: 3"/>
    <path d="M 91.938977 205.788367 
L 91.938977 194.554494 
" clip-path="url(#p3e161b1864)" style="fill: none; stroke: #d3d3d3; stroke-width: 3"/>
    <path d="M 285.304927 178.545918 
L 285.304927 165.505904 
" clip-path="url(#p3e161b1864)" style="fill: none; stroke: #d3d3d3; stroke-width: 3"/>
    <path d="M 266.148369 225.814023 
L 266.148369 193.06775 
" clip-path="url(#p3e161b1864)" style="fill: none; stroke: #d3d3d3; stroke-width: 3"/>
    <path d="M 131.278619 215.204555 
L 131.278619 201.240391 
" clip-path="url(#p3e161b1864)" style="fill: none; stroke: #d3d3d3; stroke-width: 3"/>
    <path d="M 110.163765 226.513771 
L 110.163765 200.443125 
" clip-path="url(#p3e161b1864)" style="fill: none; stroke: #d3d3d3; stroke-width: 3"/>
    <path d="M 66.102102 251.925507 
L 66.102102 163.286626 
" clip-path="url(#p3e161b1864)" style="fill: none; stroke: #d3d3d3; stroke-width: 3"/>
    <path d="M 294.748968 209.825331 
L 294.748968 179.952707 
" clip-path="url(#p3e161b1864)" style="fill: none; stroke: #d3d3d3; stroke-width: 3"/>
    <path d="M 390.373831 209.64555 
L 390.373831 189.164193 
" clip-path="url(#p3e161b1864)" style="fill: none; stroke: #d3d3d3; stroke-width: 3"/>
    <path d="M 154.841344 267.655482 
L 154.841344 209.034451 
" clip-path="url(#p3e161b1864)" style="fill: none; stroke: #d3d3d3; stroke-width: 3"/>
    <path d="M 128.151663 254.915864 
L 128.151663 227.325723 
" clip-path="url(#p3e161b1864)" style="fill: none; stroke: #d3d3d3; stroke-width: 3"/>
    <path d="M 198.22392 203.591744 
L 198.22392 165.845933 
" clip-path="url(#p3e161b1864)" style="fill: none; stroke: #d3d3d3; stroke-width: 3"/>
    <path d="M 145.492059 217.154408 
L 145.492059 204.66023 
" clip-path="url(#p3e161b1864)" style="fill: none; stroke: #d3d3d3; stroke-width: 3"/>
    <path d="M 325.023594 229.646396 
L 325.023594 196.360242 
" clip-path="url(#p3e161b1864)" style="fill: none; stroke: #d3d3d3; stroke-width: 3"/>
    <path d="M 266.353674 244.903676 
L 266.353674 225.502176 
" clip-path="url(#p3e161b1864)" style="fill: none; stroke: #d3d3d3; stroke-width: 3"/>
    <path d="M 148.239991 170.458901 
L 148.239991 122.895971 
" clip-path="url(#p3e161b1864)" style="fill: none; stroke: #d3d3d3; stroke-width: 3"/>
    <path d="M 141.41754 220.513995 
L 141.41754 195.829347 
" clip-path="url(#p3e161b1864)" style="fill: none; stroke: #d3d3d3; stroke-width: 3"/>
    <path d="M 143.312665 256.801031 
L 143.312665 202.443949 
" clip-path="url(#p3e161b1864)" style="fill: none; stroke: #d3d3d3; stroke-width: 3"/>
    <path d="M 105.64705 252.328225 
L 105.64705 228.404126 
" clip-path="url(#p3e161b1864)" style="fill: none; stroke: #d3d3d3; stroke-width: 3"/>
    <path d="M 357.951396 271.978348 
L 357.951396 222.662332 
" clip-path="url(#p3e161b1864)" style="fill: none; stroke: #d3d3d3; stroke-width: 3"/>
    <path d="M 115.391152 205.544202 
L 115.391152 174.740316 
" clip-path="url(#p3e161b1864)" style="fill: none; stroke: #d3d3d3; stroke-width: 3"/>
    <path d="M 207.02046 250.743001 
L 207.02046 232.191266 
" clip-path="url(#p3e161b1864)" style="fill: none; stroke: #d3d3d3; stroke-width: 3"/>
    <path d="M 160.542512 259.832901 
L 160.542512 224.965771 
" clip-path="url(#p3e161b1864)" style="fill: none; stroke: #d3d3d3; stroke-width: 3"/>
    <path d="M 162.248125 247.312104 
L 162.248125 192.046656 
" clip-path="url(#p3e161b1864)" style="fill: none; stroke: #d3d3d3; stroke-width: 3"/>
    <path d="M 150.545726 258.7373 
L 150.545726 222.798513 
" clip-path="url(#p3e161b1864)" style="fill: none; stroke: #d3d3d3; stroke-width: 3"/>
    <path d="M 208.457597 203.530922 
L 208.457597 167.823524 
" clip-path="url(#p3e161b1864)" style="fill: none; stroke: #d3d3d3; stroke-width: 3"/>
    <path d="M 356.245783 245.964076 
L 356.245783 213.942794 
" clip-path="url(#p3e161b1864)" style="fill: none; stroke: #d3d3d3; stroke-width: 3"/>
    <path d="M 132.210389 280.796748 
L 132.210389 225.966524 
" clip-path="url(#p3e161b1864)" style="fill: none; stroke: #d3d3d3; stroke-width: 3"/>
    <path d="M 183.899931 234.954694 
L 183.899931 218.90356 
" clip-path="url(#p3e161b1864)" style="fill: none; stroke: #d3d3d3; stroke-width: 3"/>
    <path d="M 268.817337 235.333582 
L 268.817337 188.545996 
" clip-path="url(#p3e161b1864)" style="fill: none; stroke: #d3d3d3; stroke-width: 3"/>
    <path d="M 125.435316 276.546818 
L 125.435316 230.745002 
" clip-path="url(#p3e161b1864)" style="fill: none; stroke: #d3d3d3; stroke-width: 3"/>
    <path d="M 268.501483 147.000399 
L 268.501483 126.922743 
" clip-path="url(#p3e161b1864)" style="fill: none; stroke: #d3d3d3; stroke-width: 3"/>
    <path d="M 380.819241 203.889665 
L 380.819241 174.965801 
" clip-path="url(#p3e161b1864)" style="fill: none; stroke: #d3d3d3; stroke-width: 3"/>
    <path d="M 326.350182 260.193031 
L 326.350182 228.188362 
" clip-path="url(#p3e161b1864)" style="fill: none; stroke: #d3d3d3; stroke-width: 3"/>
    <path d="M 155.441467 240.75433 
L 155.441467 212.66358 
" clip-path="url(#p3e161b1864)" style="fill: none; stroke: #d3d3d3; stroke-width: 3"/>
    <path d="M 286.584136 246.302445 
L 286.584136 214.231953 
" clip-path="url(#p3e161b1864)" style="fill: none; stroke: #d3d3d3; stroke-width: 3"/>
    <path d="M 154.193843 238.63415 
L 154.193843 233.350944 
" clip-path="url(#p3e161b1864)" style="fill: none; stroke: #d3d3d3; stroke-width: 3"/>
    <path d="M 380.708692 272.484573 
L 380.708692 232.58409 
" clip-path="url(#p3e161b1864)" style="fill: none; stroke: #d3d3d3; stroke-width: 3"/>
    <path d="M 198.445018 239.363608 
L 198.445018 214.319066 
" clip-path="url(#p3e161b1864)" style="fill: none; stroke: #d3d3d3; stroke-width: 3"/>
    <path d="M 357.367066 263.987314 
L 357.367066 207.451801 
" clip-path="url(#p3e161b1864)" style="fill: none; stroke: #d3d3d3; stroke-width: 3"/>
    <path d="M 201.366669 240.413967 
L 201.366669 209.191182 
" clip-path="url(#p3e161b1864)" style="fill: none; stroke: #d3d3d3; stroke-width: 3"/>
    <path d="M 264.426963 205.587313 
L 264.426963 167.544077 
" clip-path="url(#p3e161b1864)" style="fill: none; stroke: #d3d3d3; stroke-width: 3"/>
    <path d="M 363.09982 220.622327 
L 363.09982 174.669978 
" clip-path="url(#p3e161b1864)" style="fill: none; stroke: #d3d3d3; stroke-width: 3"/>
    <path d="M 187.516462 209.246559 
L 187.516462 182.295218 
" clip-path="url(#p3e161b1864)" style="fill: none; stroke: #d3d3d3; stroke-width: 3"/>
    <path d="M 157.541897 208.947044 
L 157.541897 183.546884 
" clip-path="url(#p3e161b1864)" style="fill: none; stroke: #d3d3d3; stroke-width: 3"/>
    <path d="M 249.818706 202.433954 
L 249.818706 171.32962 
" clip-path="url(#p3e161b1864)" style="fill: none; stroke: #d3d3d3; stroke-width: 3"/>
    <path d="M 138.764364 243.348032 
L 138.764364 197.593922 
" clip-path="url(#p3e161b1864)" style="fill: none; stroke: #d3d3d3; stroke-width: 3"/>
    <path d="M 308.457041 181.043289 
L 308.457041 60.41299 
" clip-path="url(#p3e161b1864)" style="fill: none; stroke: #d3d3d3; stroke-width: 3"/>
    <path d="M 174.424305 283.765012 
L 174.424305 255.818869 
" clip-path="url(#p3e161b1864)" style="fill: none; stroke: #d3d3d3; stroke-width: 3"/>
    <path d="M 161.900685 253.403972 
L 161.900685 215.400838 
" clip-path="url(#p3e161b1864)" style="fill: none; stroke: #d3d3d3; stroke-width: 3"/>
    <path d="M 279.935405 248.492614 
L 279.935405 208.319272 
" clip-path="url(#p3e161b1864)" style="fill: none; stroke: #d3d3d3; stroke-width: 3"/>
    <path d="M 232.794164 209.572458 
L 232.794164 185.728819 
" clip-path="url(#p3e161b1864)" style="fill: none; stroke: #d3d3d3; stroke-width: 3"/>
    <path d="M 147.023952 237.656179 
L 147.023952 210.087008 
" clip-path="url(#p3e161b1864)" style="fill: none; stroke: #d3d3d3; stroke-width: 3"/>
    <path d="M 364.347444 248.607766 
L 364.347444 210.000233 
" clip-path="url(#p3e161b1864)" style="fill: none; stroke: #d3d3d3; stroke-width: 3"/>
    <path d="M 118.328597 231.563469 
L 118.328597 209.356649 
" clip-path="url(#p3e161b1864)" style="fill: none; stroke: #d3d3d3; stroke-width: 3"/>
    <path d="M 350.734127 243.213293 
L 350.734127 215.611676 
" clip-path="url(#p3e161b1864)" style="fill: none; stroke: #d3d3d3; stroke-width: 3"/>
    <path d="M 361.64689 266.544403 
L 361.64689 229.53897 
" clip-path="url(#p3e161b1864)" style="fill: none; stroke: #d3d3d3; stroke-width: 3"/>
    <path d="M 153.467378 247.694023 
L 153.467378 201.713973 
" clip-path="url(#p3e161b1864)" style="fill: none; stroke: #d3d3d3; stroke-width: 3"/>
    <path d="M 287.057918 246.133383 
L 287.057918 199.992258 
" clip-path="url(#p3e161b1864)" style="fill: none; stroke: #d3d3d3; stroke-width: 3"/>
    <path d="M 431.719148 208.867895 
L 431.719148 177.725933 
" clip-path="url(#p3e161b1864)" style="fill: none; stroke: #d3d3d3; stroke-width: 3"/>
    <path d="M 393.011214 239.567547 
L 393.011214 123.32702 
" clip-path="url(#p3e161b1864)" style="fill: none; stroke: #d3d3d3; stroke-width: 3"/>
    <path d="M 210.415893 275.751527 
L 210.415893 229.091838 
" clip-path="url(#p3e161b1864)" style="fill: none; stroke: #d3d3d3; stroke-width: 3"/>
    <path d="M 153.483171 292.025983 
L 153.483171 188.978747 
" clip-path="url(#p3e161b1864)" style="fill: none; stroke: #d3d3d3; stroke-width: 3"/>
    <path d="M 199.787398 234.639198 
L 199.787398 211.036263 
" clip-path="url(#p3e161b1864)" style="fill: none; stroke: #d3d3d3; stroke-width: 3"/>
    <path d="M 125.356353 252.421943 
L 125.356353 187.002689 
" clip-path="url(#p3e161b1864)" style="fill: none; stroke: #d3d3d3; stroke-width: 3"/>
    <path d="M 318.690717 197.823566 
L 318.690717 166.465005 
" clip-path="url(#p3e161b1864)" style="fill: none; stroke: #d3d3d3; stroke-width: 3"/>
    <path d="M 224.123966 226.842023 
L 224.123966 201.331798 
" clip-path="url(#p3e161b1864)" style="fill: none; stroke: #d3d3d3; stroke-width: 3"/>
    <path d="M 182.383831 259.910462 
L 182.383831 240.693983 
" clip-path="url(#p3e161b1864)" style="fill: none; stroke: #d3d3d3; stroke-width: 3"/>
    <path d="M 363.668357 257.697256 
L 363.668357 196.58303 
" clip-path="url(#p3e161b1864)" style="fill: none; stroke: #d3d3d3; stroke-width: 3"/>
    <path d="M 227.724704 213.402595 
L 227.724704 184.94251 
" clip-path="url(#p3e161b1864)" style="fill: none; stroke: #d3d3d3; stroke-width: 3"/>
    <path d="M 348.949551 271.465291 
L 348.949551 219.62152 
" clip-path="url(#p3e161b1864)" style="fill: none; stroke: #d3d3d3; stroke-width: 3"/>
    <path d="M 169.56015 280.849242 
L 169.56015 223.972903 
" clip-path="url(#p3e161b1864)" style="fill: none; stroke: #d3d3d3; stroke-width: 3"/>
    <path d="M 206.388751 209.01782 
L 206.388751 204.485484 
" clip-path="url(#p3e161b1864)" style="fill: none; stroke: #d3d3d3; stroke-width: 3"/>
    <path d="M 204.998993 267.687433 
L 204.998993 222.611691 
" clip-path="url(#p3e161b1864)" style="fill: none; stroke: #d3d3d3; stroke-width: 3"/>
    <path d="M 239.537651 268.039167 
L 239.537651 233.57026 
" clip-path="url(#p3e161b1864)" style="fill: none; stroke: #d3d3d3; stroke-width: 3"/>
    <path d="M 266.527394 227.883103 
L 266.527394 201.297511 
" clip-path="url(#p3e161b1864)" style="fill: none; stroke: #d3d3d3; stroke-width: 3"/>
    <path d="M 330.014091 265.599117 
L 330.014091 221.037581 
" clip-path="url(#p3e161b1864)" style="fill: none; stroke: #d3d3d3; stroke-width: 3"/>
    <path d="M 208.947171 335.158509 
L 208.947171 170.488081 
" clip-path="url(#p3e161b1864)" style="fill: none; stroke: #d3d3d3; stroke-width: 3"/>
    <path d="M 391.984688 271.317945 
L 391.984688 233.731727 
" clip-path="url(#p3e161b1864)" style="fill: none; stroke: #d3d3d3; stroke-width: 3"/>
    <path d="M 182.683893 253.795742 
L 182.683893 221.806449 
" clip-path="url(#p3e161b1864)" style="fill: none; stroke: #d3d3d3; stroke-width: 3"/>
    <path d="M 229.935683 248.716972 
L 229.935683 226.849698 
" clip-path="url(#p3e161b1864)" style="fill: none; stroke: #d3d3d3; stroke-width: 3"/>
    <path d="M 295.317505 214.256051 
L 295.317505 192.227992 
" clip-path="url(#p3e161b1864)" style="fill: none; stroke: #d3d3d3; stroke-width: 3"/>
    <path d="M 195.460196 215.519176 
L 195.460196 158.001286 
" clip-path="url(#p3e161b1864)" style="fill: none; stroke: #d3d3d3; stroke-width: 3"/>
    <path d="M 286.915783 212.279892 
L 286.915783 190.228773 
" clip-path="url(#p3e161b1864)" style="fill: none; stroke: #d3d3d3; stroke-width: 3"/>
    <path d="M 285.620781 272.922374 
L 285.620781 182.961957 
" clip-path="url(#p3e161b1864)" style="fill: none; stroke: #d3d3d3; stroke-width: 3"/>
    <path d="M 262.373911 226.416111 
L 262.373911 192.222951 
" clip-path="url(#p3e161b1864)" style="fill: none; stroke: #d3d3d3; stroke-width: 3"/>
    <path d="M 215.46956 218.060092 
L 215.46956 185.765129 
" clip-path="url(#p3e161b1864)" style="fill: none; stroke: #d3d3d3; stroke-width: 3"/>
    <path d="M 205.804421 263.457593 
L 205.804421 228.270248 
" clip-path="url(#p3e161b1864)" style="fill: none; stroke: #d3d3d3; stroke-width: 3"/>
    <path d="M 283.946754 245.546983 
L 283.946754 211.383686 
" clip-path="url(#p3e161b1864)" style="fill: none; stroke: #d3d3d3; stroke-width: 3"/>
    <path d="M 338.463191 255.612013 
L 338.463191 222.584952 
" clip-path="url(#p3e161b1864)" style="fill: none; stroke: #d3d3d3; stroke-width: 3"/>
    <path d="M 257.020182 231.308459 
L 257.020182 209.725014 
" clip-path="url(#p3e161b1864)" style="fill: none; stroke: #d3d3d3; stroke-width: 3"/>
    <path d="M 268.83313 263.268611 
L 268.83313 199.452977 
" clip-path="url(#p3e161b1864)" style="fill: none; stroke: #d3d3d3; stroke-width: 3"/>
    <path d="M 138.369546 268.658447 
L 138.369546 231.065037 
" clip-path="url(#p3e161b1864)" style="fill: none; stroke: #d3d3d3; stroke-width: 3"/>
    <path d="M 303.798191 227.595225 
L 303.798191 198.517106 
" clip-path="url(#p3e161b1864)" style="fill: none; stroke: #d3d3d3; stroke-width: 3"/>
    <path d="M 368.737817 218.613525 
L 368.737817 198.355897 
" clip-path="url(#p3e161b1864)" style="fill: none; stroke: #d3d3d3; stroke-width: 3"/>
    <path d="M 293.264453 267.440186 
L 293.264453 219.164456 
" clip-path="url(#p3e161b1864)" style="fill: none; stroke: #d3d3d3; stroke-width: 3"/>
    <path d="M 226.050676 216.484771 
L 226.050676 195.956279 
" clip-path="url(#p3e161b1864)" style="fill: none; stroke: #d3d3d3; stroke-width: 3"/>
    <path d="M 216.590843 237.474745 
L 216.590843 205.17405 
" clip-path="url(#p3e161b1864)" style="fill: none; stroke: #d3d3d3; stroke-width: 3"/>
    <path d="M 286.157733 248.596948 
L 286.157733 219.508652 
" clip-path="url(#p3e161b1864)" style="fill: none; stroke: #d3d3d3; stroke-width: 3"/>
    <path d="M 404.555685 248.251181 
L 404.555685 200.848228 
" clip-path="url(#p3e161b1864)" style="fill: none; stroke: #d3d3d3; stroke-width: 3"/>
    <path d="M 378.434542 276.037117 
L 378.434542 228.669966 
" clip-path="url(#p3e161b1864)" style="fill: none; stroke: #d3d3d3; stroke-width: 3"/>
    <path d="M 143.628519 214.803783 
L 143.628519 188.160317 
" clip-path="url(#p3e161b1864)" style="fill: none; stroke: #d3d3d3; stroke-width: 3"/>
    <path d="M 335.036173 257.59974 
L 335.036173 206.579822 
" clip-path="url(#p3e161b1864)" style="fill: none; stroke: #d3d3d3; stroke-width: 3"/>
    <path d="M 198.792458 244.769918 
L 198.792458 217.020978 
" clip-path="url(#p3e161b1864)" style="fill: none; stroke: #d3d3d3; stroke-width: 3"/>
   </g>
   <g id="line2d_12">
    <path d="M 85.795613 220.808464 
L 233.583799 219.29686 
L 111.664073 220.543877 
L 196.802576 219.673065 
L 243.485829 219.19558 
L 229.288182 219.340796 
L 217.870052 219.457583 
L 266.353674 218.961684 
L 272.891856 218.89481 
L 360.225546 218.001546 
L 91.938977 220.745629 
L 285.304927 218.767847 
L 266.148369 218.963784 
L 131.278619 220.343256 
L 110.163765 220.559222 
L 66.102102 221.009893 
L 294.748968 218.671252 
L 390.373831 217.693183 
L 154.841344 220.102252 
L 128.151663 220.375239 
L 198.22392 219.658527 
L 145.492059 220.197878 
L 325.023594 218.361597 
L 266.353674 218.961684 
L 148.239991 220.169772 
L 141.41754 220.239553 
L 143.312665 220.220169 
L 105.64705 220.60542 
L 357.951396 218.024806 
L 115.391152 220.505755 
L 207.02046 219.568555 
L 160.542512 220.043939 
L 162.248125 220.026494 
L 150.545726 220.146188 
L 208.457597 219.553855 
L 356.245783 218.042251 
L 132.210389 220.333725 
L 183.899931 219.805035 
L 268.817337 218.936485 
L 125.435316 220.403022 
L 268.501483 218.939716 
L 380.819241 217.79091 
L 326.350182 218.348029 
L 155.441467 220.096114 
L 286.584136 218.754763 
L 154.193843 220.108875 
L 380.708692 217.79204 
L 198.445018 219.656266 
L 357.367066 218.030783 
L 201.366669 219.626383 
L 264.426963 218.981391 
L 363.09982 217.972147 
L 187.516462 219.768045 
L 157.541897 220.07463 
L 249.818706 219.130806 
L 138.764364 220.26669 
L 308.457041 218.531043 
L 174.424305 219.901954 
L 161.900685 220.030048 
L 279.935405 218.822767 
L 232.794164 219.304936 
L 147.023952 220.18221 
L 364.347444 217.959386 
L 118.328597 220.475711 
L 350.734127 218.098625 
L 361.64689 217.987008 
L 153.467378 220.116305 
L 287.057918 218.749917 
L 431.719148 217.270296 
L 393.011214 217.666208 
L 210.415893 219.533825 
L 153.483171 220.116143 
L 199.787398 219.642536 
L 125.356353 220.40383 
L 318.690717 218.426371 
L 224.123966 219.393617 
L 182.383831 219.820542 
L 363.668357 217.966332 
L 227.724704 219.356788 
L 348.949551 218.116878 
L 169.56015 219.951705 
L 206.388751 219.575016 
L 204.998993 219.58923 
L 239.537651 219.235963 
L 266.527394 218.959907 
L 330.014091 218.310554 
L 208.947171 219.548848 
L 391.984688 217.676707 
L 182.683893 219.817473 
L 229.935683 219.334174 
L 295.317505 218.665437 
L 195.460196 219.686795 
L 286.915783 218.751371 
L 285.620781 218.764616 
L 262.373911 219.00239 
L 215.46956 219.482136 
L 205.804421 219.580992 
L 283.946754 218.781739 
L 338.463191 218.224135 
L 257.020182 219.057148 
L 268.83313 218.936324 
L 138.369546 220.270728 
L 303.798191 218.578695 
L 368.737817 217.91448 
L 293.264453 218.686436 
L 226.050676 219.37391 
L 216.590843 219.470667 
L 286.157733 218.759124 
L 404.555685 217.548129 
L 378.434542 217.815301 
L 143.628519 220.216939 
L 335.036173 218.259187 
L 198.792458 219.652712 
" clip-path="url(#p3e161b1864)" style="fill: none; stroke: #1f77b4; stroke-width: 1.5; stroke-linecap: square"/>
   </g>
   <g id="line2d_13">
    <defs>
     <path id="m4f10a91eee" d="M 0 3 
C 0.795609 3 1.55874 2.683901 2.12132 2.12132 
C 2.683901 1.55874 3 0.795609 3 0 
C 3 -0.795609 2.683901 -1.55874 2.12132 -2.12132 
C 1.55874 -2.683901 0.795609 -3 0 -3 
C -0.795609 -3 -1.55874 -2.683901 -2.12132 -2.12132 
C -2.683901 -1.55874 -3 -0.795609 -3 0 
C -3 0.795609 -2.683901 1.55874 -2.12132 2.12132 
C -1.55874 2.683901 -0.795609 3 0 3 
z
" style="stroke: #000000"/>
    </defs>
    <g clip-path="url(#p3e161b1864)">
     <use xlink:href="#m4f10a91eee" x="85.795613" y="203.791578" style="stroke: #000000"/>
     <use xlink:href="#m4f10a91eee" x="233.583799" y="229.808285" style="stroke: #000000"/>
     <use xlink:href="#m4f10a91eee" x="111.664073" y="212.684035" style="stroke: #000000"/>
     <use xlink:href="#m4f10a91eee" x="196.802576" y="215.383947" style="stroke: #000000"/>
     <use xlink:href="#m4f10a91eee" x="243.485829" y="201.588764" style="stroke: #000000"/>
     <use xlink:href="#m4f10a91eee" x="229.288182" y="221.849598" style="stroke: #000000"/>
     <use xlink:href="#m4f10a91eee" x="217.870052" y="186.482863" style="stroke: #000000"/>
     <use xlink:href="#m4f10a91eee" x="266.353674" y="231.761874" style="stroke: #000000"/>
     <use xlink:href="#m4f10a91eee" x="272.891856" y="170.480802" style="stroke: #000000"/>
     <use xlink:href="#m4f10a91eee" x="360.225546" y="232.550045" style="stroke: #000000"/>
     <use xlink:href="#m4f10a91eee" x="91.938977" y="200.171431" style="stroke: #000000"/>
     <use xlink:href="#m4f10a91eee" x="285.304927" y="172.025911" style="stroke: #000000"/>
     <use xlink:href="#m4f10a91eee" x="266.148369" y="209.440887" style="stroke: #000000"/>
     <use xlink:href="#m4f10a91eee" x="131.278619" y="208.222473" style="stroke: #000000"/>
     <use xlink:href="#m4f10a91eee" x="110.163765" y="213.478448" style="stroke: #000000"/>
     <use xlink:href="#m4f10a91eee" x="66.102102" y="207.606066" style="stroke: #000000"/>
     <use xlink:href="#m4f10a91eee" x="294.748968" y="194.889019" style="stroke: #000000"/>
     <use xlink:href="#m4f10a91eee" x="390.373831" y="199.404871" style="stroke: #000000"/>
     <use xlink:href="#m4f10a91eee" x="154.841344" y="238.344967" style="stroke: #000000"/>
     <use xlink:href="#m4f10a91eee" x="128.151663" y="241.120794" style="stroke: #000000"/>
     <use xlink:href="#m4f10a91eee" x="198.22392" y="184.718838" style="stroke: #000000"/>
     <use xlink:href="#m4f10a91eee" x="145.492059" y="210.907319" style="stroke: #000000"/>
     <use xlink:href="#m4f10a91eee" x="325.023594" y="213.003319" style="stroke: #000000"/>
     <use xlink:href="#m4f10a91eee" x="266.353674" y="235.202926" style="stroke: #000000"/>
     <use xlink:href="#m4f10a91eee" x="148.239991" y="146.677436" style="stroke: #000000"/>
     <use xlink:href="#m4f10a91eee" x="141.41754" y="208.171671" style="stroke: #000000"/>
     <use xlink:href="#m4f10a91eee" x="143.312665" y="229.62249" style="stroke: #000000"/>
     <use xlink:href="#m4f10a91eee" x="105.64705" y="240.366175" style="stroke: #000000"/>
     <use xlink:href="#m4f10a91eee" x="357.951396" y="247.32034" style="stroke: #000000"/>
     <use xlink:href="#m4f10a91eee" x="115.391152" y="190.142259" style="stroke: #000000"/>
     <use xlink:href="#m4f10a91eee" x="207.02046" y="241.467134" style="stroke: #000000"/>
     <use xlink:href="#m4f10a91eee" x="160.542512" y="242.399336" style="stroke: #000000"/>
     <use xlink:href="#m4f10a91eee" x="162.248125" y="219.67938" style="stroke: #000000"/>
     <use xlink:href="#m4f10a91eee" x="150.545726" y="240.767906" style="stroke: #000000"/>
     <use xlink:href="#m4f10a91eee" x="208.457597" y="185.677223" style="stroke: #000000"/>
     <use xlink:href="#m4f10a91eee" x="356.245783" y="229.953435" style="stroke: #000000"/>
     <use xlink:href="#m4f10a91eee" x="132.210389" y="253.381636" style="stroke: #000000"/>
     <use xlink:href="#m4f10a91eee" x="183.899931" y="226.929127" style="stroke: #000000"/>
     <use xlink:href="#m4f10a91eee" x="268.817337" y="211.939789" style="stroke: #000000"/>
     <use xlink:href="#m4f10a91eee" x="125.435316" y="253.64591" style="stroke: #000000"/>
     <use xlink:href="#m4f10a91eee" x="268.501483" y="136.961571" style="stroke: #000000"/>
     <use xlink:href="#m4f10a91eee" x="380.819241" y="189.427733" style="stroke: #000000"/>
     <use xlink:href="#m4f10a91eee" x="326.350182" y="244.190697" style="stroke: #000000"/>
     <use xlink:href="#m4f10a91eee" x="155.441467" y="226.708955" style="stroke: #000000"/>
     <use xlink:href="#m4f10a91eee" x="286.584136" y="230.267199" style="stroke: #000000"/>
     <use xlink:href="#m4f10a91eee" x="154.193843" y="235.992547" style="stroke: #000000"/>
     <use xlink:href="#m4f10a91eee" x="380.708692" y="252.534332" style="stroke: #000000"/>
     <use xlink:href="#m4f10a91eee" x="198.445018" y="226.841337" style="stroke: #000000"/>
     <use xlink:href="#m4f10a91eee" x="357.367066" y="235.719558" style="stroke: #000000"/>
     <use xlink:href="#m4f10a91eee" x="201.366669" y="224.802575" style="stroke: #000000"/>
     <use xlink:href="#m4f10a91eee" x="264.426963" y="186.565695" style="stroke: #000000"/>
     <use xlink:href="#m4f10a91eee" x="363.09982" y="197.646153" style="stroke: #000000"/>
     <use xlink:href="#m4f10a91eee" x="187.516462" y="195.770888" style="stroke: #000000"/>
     <use xlink:href="#m4f10a91eee" x="157.541897" y="196.246964" style="stroke: #000000"/>
     <use xlink:href="#m4f10a91eee" x="249.818706" y="186.881787" style="stroke: #000000"/>
     <use xlink:href="#m4f10a91eee" x="138.764364" y="220.470977" style="stroke: #000000"/>
     <use xlink:href="#m4f10a91eee" x="308.457041" y="120.728139" style="stroke: #000000"/>
     <use xlink:href="#m4f10a91eee" x="174.424305" y="269.79194" style="stroke: #000000"/>
     <use xlink:href="#m4f10a91eee" x="161.900685" y="234.402405" style="stroke: #000000"/>
     <use xlink:href="#m4f10a91eee" x="279.935405" y="228.405943" style="stroke: #000000"/>
     <use xlink:href="#m4f10a91eee" x="232.794164" y="197.650639" style="stroke: #000000"/>
     <use xlink:href="#m4f10a91eee" x="147.023952" y="223.871594" style="stroke: #000000"/>
     <use xlink:href="#m4f10a91eee" x="364.347444" y="229.303999" style="stroke: #000000"/>
     <use xlink:href="#m4f10a91eee" x="118.328597" y="220.460059" style="stroke: #000000"/>
     <use xlink:href="#m4f10a91eee" x="350.734127" y="229.412484" style="stroke: #000000"/>
     <use xlink:href="#m4f10a91eee" x="361.64689" y="248.041687" style="stroke: #000000"/>
     <use xlink:href="#m4f10a91eee" x="153.467378" y="224.703998" style="stroke: #000000"/>
     <use xlink:href="#m4f10a91eee" x="287.057918" y="223.062821" style="stroke: #000000"/>
     <use xlink:href="#m4f10a91eee" x="431.719148" y="193.296914" style="stroke: #000000"/>
     <use xlink:href="#m4f10a91eee" x="393.011214" y="181.447284" style="stroke: #000000"/>
     <use xlink:href="#m4f10a91eee" x="210.415893" y="252.421682" style="stroke: #000000"/>
     <use xlink:href="#m4f10a91eee" x="153.483171" y="240.502365" style="stroke: #000000"/>
     <use xlink:href="#m4f10a91eee" x="199.787398" y="222.83773" style="stroke: #000000"/>
     <use xlink:href="#m4f10a91eee" x="125.356353" y="219.712316" style="stroke: #000000"/>
     <use xlink:href="#m4f10a91eee" x="318.690717" y="182.144286" style="stroke: #000000"/>
     <use xlink:href="#m4f10a91eee" x="224.123966" y="214.08691" style="stroke: #000000"/>
     <use xlink:href="#m4f10a91eee" x="182.383831" y="250.302223" style="stroke: #000000"/>
     <use xlink:href="#m4f10a91eee" x="363.668357" y="227.140143" style="stroke: #000000"/>
     <use xlink:href="#m4f10a91eee" x="227.724704" y="199.172553" style="stroke: #000000"/>
     <use xlink:href="#m4f10a91eee" x="348.949551" y="245.543406" style="stroke: #000000"/>
     <use xlink:href="#m4f10a91eee" x="169.56015" y="252.411073" style="stroke: #000000"/>
     <use xlink:href="#m4f10a91eee" x="206.388751" y="206.751652" style="stroke: #000000"/>
     <use xlink:href="#m4f10a91eee" x="204.998993" y="245.149562" style="stroke: #000000"/>
     <use xlink:href="#m4f10a91eee" x="239.537651" y="250.804714" style="stroke: #000000"/>
     <use xlink:href="#m4f10a91eee" x="266.527394" y="214.590307" style="stroke: #000000"/>
     <use xlink:href="#m4f10a91eee" x="330.014091" y="243.318349" style="stroke: #000000"/>
     <use xlink:href="#m4f10a91eee" x="208.947171" y="252.823295" style="stroke: #000000"/>
     <use xlink:href="#m4f10a91eee" x="391.984688" y="252.524836" style="stroke: #000000"/>
     <use xlink:href="#m4f10a91eee" x="182.683893" y="237.801095" style="stroke: #000000"/>
     <use xlink:href="#m4f10a91eee" x="229.935683" y="237.783335" style="stroke: #000000"/>
     <use xlink:href="#m4f10a91eee" x="295.317505" y="203.242021" style="stroke: #000000"/>
     <use xlink:href="#m4f10a91eee" x="195.460196" y="186.760231" style="stroke: #000000"/>
     <use xlink:href="#m4f10a91eee" x="286.915783" y="201.254332" style="stroke: #000000"/>
     <use xlink:href="#m4f10a91eee" x="285.620781" y="227.942166" style="stroke: #000000"/>
     <use xlink:href="#m4f10a91eee" x="262.373911" y="209.319531" style="stroke: #000000"/>
     <use xlink:href="#m4f10a91eee" x="215.46956" y="201.91261" style="stroke: #000000"/>
     <use xlink:href="#m4f10a91eee" x="205.804421" y="245.863921" style="stroke: #000000"/>
     <use xlink:href="#m4f10a91eee" x="283.946754" y="228.465334" style="stroke: #000000"/>
     <use xlink:href="#m4f10a91eee" x="338.463191" y="239.098482" style="stroke: #000000"/>
     <use xlink:href="#m4f10a91eee" x="257.020182" y="220.516736" style="stroke: #000000"/>
     <use xlink:href="#m4f10a91eee" x="268.83313" y="231.360794" style="stroke: #000000"/>
     <use xlink:href="#m4f10a91eee" x="138.369546" y="249.861742" style="stroke: #000000"/>
     <use xlink:href="#m4f10a91eee" x="303.798191" y="213.056166" style="stroke: #000000"/>
     <use xlink:href="#m4f10a91eee" x="368.737817" y="208.484711" style="stroke: #000000"/>
     <use xlink:href="#m4f10a91eee" x="293.264453" y="243.302321" style="stroke: #000000"/>
     <use xlink:href="#m4f10a91eee" x="226.050676" y="206.220525" style="stroke: #000000"/>
     <use xlink:href="#m4f10a91eee" x="216.590843" y="221.324398" style="stroke: #000000"/>
     <use xlink:href="#m4f10a91eee" x="286.157733" y="234.0528" style="stroke: #000000"/>
     <use xlink:href="#m4f10a91eee" x="404.555685" y="224.549704" style="stroke: #000000"/>
     <use xlink:href="#m4f10a91eee" x="378.434542" y="252.353542" style="stroke: #000000"/>
     <use xlink:href="#m4f10a91eee" x="143.628519" y="201.48205" style="stroke: #000000"/>
     <use xlink:href="#m4f10a91eee" x="335.036173" y="232.089781" style="stroke: #000000"/>
     <use xlink:href="#m4f10a91eee" x="198.792458" y="230.895448" style="stroke: #000000"/>
    </g>
   </g>
   <g id="patch_3">
    <path d="M 47.82125 303.64 
L 47.82125 46.675714 
" style="fill: none; stroke: #000000; stroke-width: 0.8; stroke-linejoin: miter; stroke-linecap: square"/>
   </g>
   <g id="patch_4">
    <path d="M 450 303.64 
L 450 46.675714 
" style="fill: none; stroke: #000000; stroke-width: 0.8; stroke-linejoin: miter; stroke-linecap: square"/>
   </g>
   <g id="patch_5">
    <path d="M 47.82125 303.64 
L 450 303.64 
" style="fill: none; stroke: #000000; stroke-width: 0.8; stroke-linejoin: miter; stroke-linecap: square"/>
   </g>
   <g id="patch_6">
    <path d="M 47.82125 46.675714 
L 450 46.675714 
" style="fill: none; stroke: #000000; stroke-width: 0.8; stroke-linejoin: miter; stroke-linecap: square"/>
   </g>
   <g id="text_14">
    <!-- y = 0.00x + 0.33 -->
    <g transform="translate(45.118813 18.599375)scale(0.1 -0.1)">
     <defs>
      <path id="DejaVuSans-79" d="M 2059 -325 
Q 1816 -950 1584 -1140 
Q 1353 -1331 966 -1331 
L 506 -1331 
L 506 -850 
L 844 -850 
Q 1081 -850 1212 -737 
Q 1344 -625 1503 -206 
L 1606 56 
L 191 3500 
L 800 3500 
L 1894 763 
L 2988 3500 
L 3597 3500 
L 2059 -325 
z
" transform="scale(0.015625)"/>
      <path id="DejaVuSans-20" transform="scale(0.015625)"/>
      <path id="DejaVuSans-3d" d="M 678 2906 
L 4684 2906 
L 4684 2381 
L 678 2381 
L 678 2906 
z
M 678 1631 
L 4684 1631 
L 4684 1100 
L 678 1100 
L 678 1631 
z
" transform="scale(0.015625)"/>
      <path id="DejaVuSans-78" d="M 3513 3500 
L 2247 1797 
L 3578 0 
L 2900 0 
L 1881 1375 
L 863 0 
L 184 0 
L 1544 1831 
L 300 3500 
L 978 3500 
L 1906 2253 
L 2834 3500 
L 3513 3500 
z
" transform="scale(0.015625)"/>
      <path id="DejaVuSans-2b" d="M 2944 4013 
L 2944 2272 
L 4684 2272 
L 4684 1741 
L 2944 1741 
L 2944 0 
L 2419 0 
L 2419 1741 
L 678 1741 
L 678 2272 
L 2419 2272 
L 2419 4013 
L 2944 4013 
z
" transform="scale(0.015625)"/>
     </defs>
     <use xlink:href="#DejaVuSans-79"/>
     <use xlink:href="#DejaVuSans-20" x="59.179688"/>
     <use xlink:href="#DejaVuSans-3d" x="90.966797"/>
     <use xlink:href="#DejaVuSans-20" x="174.755859"/>
     <use xlink:href="#DejaVuSans-30" x="206.542969"/>
     <use xlink:href="#DejaVuSans-2e" x="270.166016"/>
     <use xlink:href="#DejaVuSans-30" x="301.953125"/>
     <use xlink:href="#DejaVuSans-30" x="365.576172"/>
     <use xlink:href="#DejaVuSans-78" x="429.199219"/>
     <use xlink:href="#DejaVuSans-20" x="488.378906"/>
     <use xlink:href="#DejaVuSans-2b" x="520.166016"/>
     <use xlink:href="#DejaVuSans-20" x="603.955078"/>
     <use xlink:href="#DejaVuSans-30" x="635.742188"/>
     <use xlink:href="#DejaVuSans-2e" x="699.365234"/>
     <use xlink:href="#DejaVuSans-33" x="731.152344"/>
     <use xlink:href="#DejaVuSans-33" x="794.775391"/>
    </g>
   </g>
   <g id="text_15">
    <!-- r^2 = 0.00 -->
    <g transform="translate(60.111781 26.308304)scale(0.1 -0.1)">
     <defs>
      <path id="DejaVuSans-5e" d="M 2988 4666 
L 4684 2925 
L 4056 2925 
L 2681 4159 
L 1306 2925 
L 678 2925 
L 2375 4666 
L 2988 4666 
z
" transform="scale(0.015625)"/>
     </defs>
     <use xlink:href="#DejaVuSans-72"/>
     <use xlink:href="#DejaVuSans-5e" x="41.113281"/>
     <use xlink:href="#DejaVuSans-32" x="124.902344"/>
     <use xlink:href="#DejaVuSans-20" x="188.525391"/>
     <use xlink:href="#DejaVuSans-3d" x="220.3125"/>
     <use xlink:href="#DejaVuSans-20" x="304.101562"/>
     <use xlink:href="#DejaVuSans-30" x="335.888672"/>
     <use xlink:href="#DejaVuSans-2e" x="399.511719"/>
     <use xlink:href="#DejaVuSans-30" x="431.298828"/>
     <use xlink:href="#DejaVuSans-30" x="494.921875"/>
    </g>
   </g>
   <g id="text_16">
    <!-- n = 113 -->
    <g transform="translate(67.958656 34.017232)scale(0.1 -0.1)">
     <use xlink:href="#DejaVuSans-6e"/>
     <use xlink:href="#DejaVuSans-20" x="63.378906"/>
     <use xlink:href="#DejaVuSans-3d" x="95.166016"/>
     <use xlink:href="#DejaVuSans-20" x="178.955078"/>
     <use xlink:href="#DejaVuSans-31" x="210.742188"/>
     <use xlink:href="#DejaVuSans-31" x="274.365234"/>
     <use xlink:href="#DejaVuSans-33" x="337.988281"/>
    </g>
   </g>
   <g id="text_17">
    <!-- IMM1Diff vs PercentGpA_transformed -->
    <g transform="translate(136.921562 40.675714)scale(0.12 -0.12)">
     <defs>
      <path id="DejaVuSans-76" d="M 191 3500 
L 800 3500 
L 1894 563 
L 2988 3500 
L 3597 3500 
L 2284 0 
L 1503 0 
L 191 3500 
z
" transform="scale(0.015625)"/>
     </defs>
     <use xlink:href="#DejaVuSans-49"/>
     <use xlink:href="#DejaVuSans-4d" x="29.492188"/>
     <use xlink:href="#DejaVuSans-4d" x="115.771484"/>
     <use xlink:href="#DejaVuSans-31" x="202.050781"/>
     <use xlink:href="#DejaVuSans-44" x="265.673828"/>
     <use xlink:href="#DejaVuSans-69" x="342.675781"/>
     <use xlink:href="#DejaVuSans-66" x="370.458984"/>
     <use xlink:href="#DejaVuSans-66" x="405.664062"/>
     <use xlink:href="#DejaVuSans-20" x="440.869141"/>
     <use xlink:href="#DejaVuSans-76" x="472.65625"/>
     <use xlink:href="#DejaVuSans-73" x="531.835938"/>
     <use xlink:href="#DejaVuSans-20" x="583.935547"/>
     <use xlink:href="#DejaVuSans-50" x="615.722656"/>
     <use xlink:href="#DejaVuSans-65" x="672.400391"/>
     <use xlink:href="#DejaVuSans-72" x="733.923828"/>
     <use xlink:href="#DejaVuSans-63" x="772.787109"/>
     <use xlink:href="#DejaVuSans-65" x="827.767578"/>
     <use xlink:href="#DejaVuSans-6e" x="889.291016"/>
     <use xlink:href="#DejaVuSans-74" x="952.669922"/>
     <use xlink:href="#DejaVuSans-47" x="991.878906"/>
     <use xlink:href="#DejaVuSans-70" x="1069.369141"/>
     <use xlink:href="#DejaVuSans-41" x="1132.845703"/>
     <use xlink:href="#DejaVuSans-5f" x="1201.253906"/>
     <use xlink:href="#DejaVuSans-74" x="1251.253906"/>
     <use xlink:href="#DejaVuSans-72" x="1290.462891"/>
     <use xlink:href="#DejaVuSans-61" x="1331.576172"/>
     <use xlink:href="#DejaVuSans-6e" x="1392.855469"/>
     <use xlink:href="#DejaVuSans-73" x="1456.234375"/>
     <use xlink:href="#DejaVuSans-66" x="1508.333984"/>
     <use xlink:href="#DejaVuSans-6f" x="1543.539062"/>
     <use xlink:href="#DejaVuSans-72" x="1604.720703"/>
     <use xlink:href="#DejaVuSans-6d" x="1644.083984"/>
     <use xlink:href="#DejaVuSans-65" x="1741.496094"/>
     <use xlink:href="#DejaVuSans-64" x="1803.019531"/>
    </g>
   </g>
  </g>
 </g>
 <defs>
  <clipPath id="p3e161b1864">
   <rect x="47.82125" y="46.675714" width="402.17875" height="256.964286"/>
  </clipPath>
 </defs>
</svg>
