<?xml version="1.0" encoding="utf-8" standalone="no"?>
<!DOCTYPE svg PUBLIC "-//W3C//DTD SVG 1.1//EN"
  "http://www.w3.org/Graphics/SVG/1.1/DTD/svg11.dtd">
<svg xmlns:xlink="http://www.w3.org/1999/xlink" width="460.8pt" height="345.6pt" viewBox="0 0 460.8 345.6" xmlns="http://www.w3.org/2000/svg" version="1.1">
 <metadata>
  <rdf:RDF xmlns:dc="http://purl.org/dc/elements/1.1/" xmlns:cc="http://creativecommons.org/ns#" xmlns:rdf="http://www.w3.org/1999/02/22-rdf-syntax-ns#">
   <cc:Work>
    <dc:type rdf:resource="http://purl.org/dc/dcmitype/StillImage"/>
    <dc:date>2024-02-15T22:37:45.272630</dc:date>
    <dc:format>image/svg+xml</dc:format>
    <dc:creator>
     <cc:Agent>
      <dc:title>Matplotlib v3.5.3, https://matplotlib.org/</dc:title>
     </cc:Agent>
    </dc:creator>
   </cc:Work>
  </rdf:RDF>
 </metadata>
 <defs>
  <style type="text/css">*{stroke-linejoin: round; stroke-linecap: butt}</style>
 </defs>
 <g id="figure_1">
  <g id="patch_1">
   <path d="M 0 345.6 
L 460.8 345.6 
L 460.8 0 
L 0 0 
z
" style="fill: #ffffff"/>
  </g>
  <g id="axes_1">
   <g id="patch_2">
    <path d="M 54.12125 303.64 
L 450 303.64 
L 450 46.675942 
L 54.12125 46.675942 
z
" style="fill: #ffffff"/>
   </g>
   <g id="PathCollection_1">
    <defs>
     <path id="m0891cedba6" d="M 0 3 
C 0.795609 3 1.55874 2.683901 2.12132 2.12132 
C 2.683901 1.55874 3 0.795609 3 0 
C 3 -0.795609 2.683901 -1.55874 2.12132 -2.12132 
C 1.55874 -2.683901 0.795609 -3 0 -3 
C -0.795609 -3 -1.55874 -2.683901 -2.12132 -2.12132 
C -2.683901 -1.55874 -3 -0.795609 -3 0 
C -3 0.795609 -2.683901 1.55874 -2.12132 2.12132 
C -1.55874 2.683901 -0.795609 3 0 3 
z
" style="stroke: #1f77b4"/>
    </defs>
    <g clip-path="url(#pc7c1df42c2)">
     <use xlink:href="#m0891cedba6" x="205.255844" y="139.362861" style="fill: #1f77b4; stroke: #1f77b4"/>
     <use xlink:href="#m0891cedba6" x="242.617026" y="181.423924" style="fill: #1f77b4; stroke: #1f77b4"/>
     <use xlink:href="#m0891cedba6" x="204.911501" y="168.557752" style="fill: #1f77b4; stroke: #1f77b4"/>
     <use xlink:href="#m0891cedba6" x="224.969463" y="172.416192" style="fill: #1f77b4; stroke: #1f77b4"/>
     <use xlink:href="#m0891cedba6" x="267.719609" y="165.348353" style="fill: #1f77b4; stroke: #1f77b4"/>
     <use xlink:href="#m0891cedba6" x="234.318367" y="230.068299" style="fill: #1f77b4; stroke: #1f77b4"/>
     <use xlink:href="#m0891cedba6" x="261.659178" y="175.923572" style="fill: #1f77b4; stroke: #1f77b4"/>
     <use xlink:href="#m0891cedba6" x="180.514821" y="197.517327" style="fill: #1f77b4; stroke: #1f77b4"/>
     <use xlink:href="#m0891cedba6" x="192.256907" y="183.571021" style="fill: #1f77b4; stroke: #1f77b4"/>
     <use xlink:href="#m0891cedba6" x="316.220279" y="270.467063" style="fill: #1f77b4; stroke: #1f77b4"/>
     <use xlink:href="#m0891cedba6" x="273.401264" y="136.233827" style="fill: #1f77b4; stroke: #1f77b4"/>
     <use xlink:href="#m0891cedba6" x="255.030581" y="150.102651" style="fill: #1f77b4; stroke: #1f77b4"/>
     <use xlink:href="#m0891cedba6" x="432.005511" y="252.572533" style="fill: #1f77b4; stroke: #1f77b4"/>
     <use xlink:href="#m0891cedba6" x="229.514787" y="218.483041" style="fill: #1f77b4; stroke: #1f77b4"/>
     <use xlink:href="#m0891cedba6" x="315.807067" y="203.003683" style="fill: #1f77b4; stroke: #1f77b4"/>
     <use xlink:href="#m0891cedba6" x="189.536599" y="194.218887" style="fill: #1f77b4; stroke: #1f77b4"/>
     <use xlink:href="#m0891cedba6" x="280.546375" y="124.591873" style="fill: #1f77b4; stroke: #1f77b4"/>
     <use xlink:href="#m0891cedba6" x="167.188758" y="228.398018" style="fill: #1f77b4; stroke: #1f77b4"/>
     <use xlink:href="#m0891cedba6" x="360.399447" y="164.141087" style="fill: #1f77b4; stroke: #1f77b4"/>
     <use xlink:href="#m0891cedba6" x="167.670838" y="268.685088" style="fill: #1f77b4; stroke: #1f77b4"/>
     <use xlink:href="#m0891cedba6" x="256.287432" y="140.025131" style="fill: #1f77b4; stroke: #1f77b4"/>
     <use xlink:href="#m0891cedba6" x="145.925596" y="148.248133" style="fill: #1f77b4; stroke: #1f77b4"/>
     <use xlink:href="#m0891cedba6" x="217.256187" y="110.409788" style="fill: #1f77b4; stroke: #1f77b4"/>
     <use xlink:href="#m0891cedba6" x="149.885537" y="126.032094" style="fill: #1f77b4; stroke: #1f77b4"/>
     <use xlink:href="#m0891cedba6" x="156.875694" y="153.065246" style="fill: #1f77b4; stroke: #1f77b4"/>
     <use xlink:href="#m0891cedba6" x="94.807923" y="136.127201" style="fill: #1f77b4; stroke: #1f77b4"/>
     <use xlink:href="#m0891cedba6" x="94.480797" y="203.793811" style="fill: #1f77b4; stroke: #1f77b4"/>
     <use xlink:href="#m0891cedba6" x="107.514168" y="252.497984" style="fill: #1f77b4; stroke: #1f77b4"/>
     <use xlink:href="#m0891cedba6" x="72.115739" y="246.85073" style="fill: #1f77b4; stroke: #1f77b4"/>
     <use xlink:href="#m0891cedba6" x="207.907282" y="264.410732" style="fill: #1f77b4; stroke: #1f77b4"/>
     <use xlink:href="#m0891cedba6" x="159.90591" y="159.490954" style="fill: #1f77b4; stroke: #1f77b4"/>
     <use xlink:href="#m0891cedba6" x="203.568564" y="188.451673" style="fill: #1f77b4; stroke: #1f77b4"/>
     <use xlink:href="#m0891cedba6" x="142.292781" y="263.173998" style="fill: #1f77b4; stroke: #1f77b4"/>
     <use xlink:href="#m0891cedba6" x="176.727051" y="193.620457" style="fill: #1f77b4; stroke: #1f77b4"/>
     <use xlink:href="#m0891cedba6" x="153.277313" y="252.959355" style="fill: #1f77b4; stroke: #1f77b4"/>
     <use xlink:href="#m0891cedba6" x="155.825449" y="161.555453" style="fill: #1f77b4; stroke: #1f77b4"/>
     <use xlink:href="#m0891cedba6" x="183.631122" y="213.145756" style="fill: #1f77b4; stroke: #1f77b4"/>
     <use xlink:href="#m0891cedba6" x="93.585506" y="226.890665" style="fill: #1f77b4; stroke: #1f77b4"/>
     <use xlink:href="#m0891cedba6" x="191.740393" y="248.227975" style="fill: #1f77b4; stroke: #1f77b4"/>
     <use xlink:href="#m0891cedba6" x="165.157136" y="269.460192" style="fill: #1f77b4; stroke: #1f77b4"/>
     <use xlink:href="#m0891cedba6" x="99.232726" y="211.606653" style="fill: #1f77b4; stroke: #1f77b4"/>
     <use xlink:href="#m0891cedba6" x="202.242845" y="166.052076" style="fill: #1f77b4; stroke: #1f77b4"/>
     <use xlink:href="#m0891cedba6" x="175.194726" y="241.104601" style="fill: #1f77b4; stroke: #1f77b4"/>
     <use xlink:href="#m0891cedba6" x="167.395364" y="276.190923" style="fill: #1f77b4; stroke: #1f77b4"/>
     <use xlink:href="#m0891cedba6" x="229.669741" y="106.89145" style="fill: #1f77b4; stroke: #1f77b4"/>
    </g>
   </g>
   <g id="matplotlib.axis_1">
    <g id="xtick_1">
     <g id="line2d_1">
      <defs>
       <path id="m7545f916ad" d="M 0 0 
L 0 3.5 
" style="stroke: #000000; stroke-width: 0.8"/>
      </defs>
      <g>
       <use xlink:href="#m7545f916ad" x="66.606255" y="303.64" style="stroke: #000000; stroke-width: 0.8"/>
      </g>
     </g>
     <g id="text_1">
      <!-- 15 -->
      <g transform="translate(60.243755 318.238437)scale(0.1 -0.1)">
       <defs>
        <path id="DejaVuSans-31" d="M 794 531 
L 1825 531 
L 1825 4091 
L 703 3866 
L 703 4441 
L 1819 4666 
L 2450 4666 
L 2450 531 
L 3481 531 
L 3481 0 
L 794 0 
L 794 531 
z
" transform="scale(0.015625)"/>
        <path id="DejaVuSans-35" d="M 691 4666 
L 3169 4666 
L 3169 4134 
L 1269 4134 
L 1269 2991 
Q 1406 3038 1543 3061 
Q 1681 3084 1819 3084 
Q 2600 3084 3056 2656 
Q 3513 2228 3513 1497 
Q 3513 744 3044 326 
Q 2575 -91 1722 -91 
Q 1428 -91 1123 -41 
Q 819 9 494 109 
L 494 744 
Q 775 591 1075 516 
Q 1375 441 1709 441 
Q 2250 441 2565 725 
Q 2881 1009 2881 1497 
Q 2881 1984 2565 2268 
Q 2250 2553 1709 2553 
Q 1456 2553 1204 2497 
Q 953 2441 691 2322 
L 691 4666 
z
" transform="scale(0.015625)"/>
       </defs>
       <use xlink:href="#DejaVuSans-31"/>
       <use xlink:href="#DejaVuSans-35" x="63.623047"/>
      </g>
     </g>
    </g>
    <g id="xtick_2">
     <g id="line2d_2">
      <g>
       <use xlink:href="#m7545f916ad" x="152.69193" y="303.64" style="stroke: #000000; stroke-width: 0.8"/>
      </g>
     </g>
     <g id="text_2">
      <!-- 20 -->
      <g transform="translate(146.32943 318.238437)scale(0.1 -0.1)">
       <defs>
        <path id="DejaVuSans-32" d="M 1228 531 
L 3431 531 
L 3431 0 
L 469 0 
L 469 531 
Q 828 903 1448 1529 
Q 2069 2156 2228 2338 
Q 2531 2678 2651 2914 
Q 2772 3150 2772 3378 
Q 2772 3750 2511 3984 
Q 2250 4219 1831 4219 
Q 1534 4219 1204 4116 
Q 875 4013 500 3803 
L 500 4441 
Q 881 4594 1212 4672 
Q 1544 4750 1819 4750 
Q 2544 4750 2975 4387 
Q 3406 4025 3406 3419 
Q 3406 3131 3298 2873 
Q 3191 2616 2906 2266 
Q 2828 2175 2409 1742 
Q 1991 1309 1228 531 
z
" transform="scale(0.015625)"/>
        <path id="DejaVuSans-30" d="M 2034 4250 
Q 1547 4250 1301 3770 
Q 1056 3291 1056 2328 
Q 1056 1369 1301 889 
Q 1547 409 2034 409 
Q 2525 409 2770 889 
Q 3016 1369 3016 2328 
Q 3016 3291 2770 3770 
Q 2525 4250 2034 4250 
z
M 2034 4750 
Q 2819 4750 3233 4129 
Q 3647 3509 3647 2328 
Q 3647 1150 3233 529 
Q 2819 -91 2034 -91 
Q 1250 -91 836 529 
Q 422 1150 422 2328 
Q 422 3509 836 4129 
Q 1250 4750 2034 4750 
z
" transform="scale(0.015625)"/>
       </defs>
       <use xlink:href="#DejaVuSans-32"/>
       <use xlink:href="#DejaVuSans-30" x="63.623047"/>
      </g>
     </g>
    </g>
    <g id="xtick_3">
     <g id="line2d_3">
      <g>
       <use xlink:href="#m7545f916ad" x="238.777605" y="303.64" style="stroke: #000000; stroke-width: 0.8"/>
      </g>
     </g>
     <g id="text_3">
      <!-- 25 -->
      <g transform="translate(232.415105 318.238437)scale(0.1 -0.1)">
       <use xlink:href="#DejaVuSans-32"/>
       <use xlink:href="#DejaVuSans-35" x="63.623047"/>
      </g>
     </g>
    </g>
    <g id="xtick_4">
     <g id="line2d_4">
      <g>
       <use xlink:href="#m7545f916ad" x="324.86328" y="303.64" style="stroke: #000000; stroke-width: 0.8"/>
      </g>
     </g>
     <g id="text_4">
      <!-- 30 -->
      <g transform="translate(318.50078 318.238437)scale(0.1 -0.1)">
       <defs>
        <path id="DejaVuSans-33" d="M 2597 2516 
Q 3050 2419 3304 2112 
Q 3559 1806 3559 1356 
Q 3559 666 3084 287 
Q 2609 -91 1734 -91 
Q 1441 -91 1130 -33 
Q 819 25 488 141 
L 488 750 
Q 750 597 1062 519 
Q 1375 441 1716 441 
Q 2309 441 2620 675 
Q 2931 909 2931 1356 
Q 2931 1769 2642 2001 
Q 2353 2234 1838 2234 
L 1294 2234 
L 1294 2753 
L 1863 2753 
Q 2328 2753 2575 2939 
Q 2822 3125 2822 3475 
Q 2822 3834 2567 4026 
Q 2313 4219 1838 4219 
Q 1578 4219 1281 4162 
Q 984 4106 628 3988 
L 628 4550 
Q 988 4650 1302 4700 
Q 1616 4750 1894 4750 
Q 2613 4750 3031 4423 
Q 3450 4097 3450 3541 
Q 3450 3153 3228 2886 
Q 3006 2619 2597 2516 
z
" transform="scale(0.015625)"/>
       </defs>
       <use xlink:href="#DejaVuSans-33"/>
       <use xlink:href="#DejaVuSans-30" x="63.623047"/>
      </g>
     </g>
    </g>
    <g id="xtick_5">
     <g id="line2d_5">
      <g>
       <use xlink:href="#m7545f916ad" x="410.948955" y="303.64" style="stroke: #000000; stroke-width: 0.8"/>
      </g>
     </g>
     <g id="text_5">
      <!-- 35 -->
      <g transform="translate(404.586455 318.238437)scale(0.1 -0.1)">
       <use xlink:href="#DejaVuSans-33"/>
       <use xlink:href="#DejaVuSans-35" x="63.623047"/>
      </g>
     </g>
    </g>
    <g id="text_6">
     <!-- IMM1Diff -->
     <g transform="translate(230.016875 331.916562)scale(0.1 -0.1)">
      <defs>
       <path id="DejaVuSans-49" d="M 628 4666 
L 1259 4666 
L 1259 0 
L 628 0 
L 628 4666 
z
" transform="scale(0.015625)"/>
       <path id="DejaVuSans-4d" d="M 628 4666 
L 1569 4666 
L 2759 1491 
L 3956 4666 
L 4897 4666 
L 4897 0 
L 4281 0 
L 4281 4097 
L 3078 897 
L 2444 897 
L 1241 4097 
L 1241 0 
L 628 0 
L 628 4666 
z
" transform="scale(0.015625)"/>
       <path id="DejaVuSans-44" d="M 1259 4147 
L 1259 519 
L 2022 519 
Q 2988 519 3436 956 
Q 3884 1394 3884 2338 
Q 3884 3275 3436 3711 
Q 2988 4147 2022 4147 
L 1259 4147 
z
M 628 4666 
L 1925 4666 
Q 3281 4666 3915 4102 
Q 4550 3538 4550 2338 
Q 4550 1131 3912 565 
Q 3275 0 1925 0 
L 628 0 
L 628 4666 
z
" transform="scale(0.015625)"/>
       <path id="DejaVuSans-69" d="M 603 3500 
L 1178 3500 
L 1178 0 
L 603 0 
L 603 3500 
z
M 603 4863 
L 1178 4863 
L 1178 4134 
L 603 4134 
L 603 4863 
z
" transform="scale(0.015625)"/>
       <path id="DejaVuSans-66" d="M 2375 4863 
L 2375 4384 
L 1825 4384 
Q 1516 4384 1395 4259 
Q 1275 4134 1275 3809 
L 1275 3500 
L 2222 3500 
L 2222 3053 
L 1275 3053 
L 1275 0 
L 697 0 
L 697 3053 
L 147 3053 
L 147 3500 
L 697 3500 
L 697 3744 
Q 697 4328 969 4595 
Q 1241 4863 1831 4863 
L 2375 4863 
z
" transform="scale(0.015625)"/>
      </defs>
      <use xlink:href="#DejaVuSans-49"/>
      <use xlink:href="#DejaVuSans-4d" x="29.492188"/>
      <use xlink:href="#DejaVuSans-4d" x="115.771484"/>
      <use xlink:href="#DejaVuSans-31" x="202.050781"/>
      <use xlink:href="#DejaVuSans-44" x="265.673828"/>
      <use xlink:href="#DejaVuSans-69" x="342.675781"/>
      <use xlink:href="#DejaVuSans-66" x="370.458984"/>
      <use xlink:href="#DejaVuSans-66" x="405.664062"/>
     </g>
    </g>
   </g>
   <g id="matplotlib.axis_2">
    <g id="ytick_1">
     <g id="line2d_6">
      <defs>
       <path id="mdfca54a4af" d="M 0 0 
L -3.5 0 
" style="stroke: #000000; stroke-width: 0.8"/>
      </defs>
      <g>
       <use xlink:href="#mdfca54a4af" x="54.12125" y="303.64" style="stroke: #000000; stroke-width: 0.8"/>
      </g>
     </g>
     <g id="text_7">
      <!-- 0.00 -->
      <g transform="translate(24.855625 307.439219)scale(0.1 -0.1)">
       <defs>
        <path id="DejaVuSans-2e" d="M 684 794 
L 1344 794 
L 1344 0 
L 684 0 
L 684 794 
z
" transform="scale(0.015625)"/>
       </defs>
       <use xlink:href="#DejaVuSans-30"/>
       <use xlink:href="#DejaVuSans-2e" x="63.623047"/>
       <use xlink:href="#DejaVuSans-30" x="95.410156"/>
       <use xlink:href="#DejaVuSans-30" x="159.033203"/>
      </g>
     </g>
    </g>
    <g id="ytick_2">
     <g id="line2d_7">
      <g>
       <use xlink:href="#mdfca54a4af" x="54.12125" y="268.432042" style="stroke: #000000; stroke-width: 0.8"/>
      </g>
     </g>
     <g id="text_8">
      <!-- 0.25 -->
      <g transform="translate(24.855625 272.231261)scale(0.1 -0.1)">
       <use xlink:href="#DejaVuSans-30"/>
       <use xlink:href="#DejaVuSans-2e" x="63.623047"/>
       <use xlink:href="#DejaVuSans-32" x="95.410156"/>
       <use xlink:href="#DejaVuSans-35" x="159.033203"/>
      </g>
     </g>
    </g>
    <g id="ytick_3">
     <g id="line2d_8">
      <g>
       <use xlink:href="#mdfca54a4af" x="54.12125" y="233.224085" style="stroke: #000000; stroke-width: 0.8"/>
      </g>
     </g>
     <g id="text_9">
      <!-- 0.50 -->
      <g transform="translate(24.855625 237.023304)scale(0.1 -0.1)">
       <use xlink:href="#DejaVuSans-30"/>
       <use xlink:href="#DejaVuSans-2e" x="63.623047"/>
       <use xlink:href="#DejaVuSans-35" x="95.410156"/>
       <use xlink:href="#DejaVuSans-30" x="159.033203"/>
      </g>
     </g>
    </g>
    <g id="ytick_4">
     <g id="line2d_9">
      <g>
       <use xlink:href="#mdfca54a4af" x="54.12125" y="198.016127" style="stroke: #000000; stroke-width: 0.8"/>
      </g>
     </g>
     <g id="text_10">
      <!-- 0.75 -->
      <g transform="translate(24.855625 201.815346)scale(0.1 -0.1)">
       <defs>
        <path id="DejaVuSans-37" d="M 525 4666 
L 3525 4666 
L 3525 4397 
L 1831 0 
L 1172 0 
L 2766 4134 
L 525 4134 
L 525 4666 
z
" transform="scale(0.015625)"/>
       </defs>
       <use xlink:href="#DejaVuSans-30"/>
       <use xlink:href="#DejaVuSans-2e" x="63.623047"/>
       <use xlink:href="#DejaVuSans-37" x="95.410156"/>
       <use xlink:href="#DejaVuSans-35" x="159.033203"/>
      </g>
     </g>
    </g>
    <g id="ytick_5">
     <g id="line2d_10">
      <g>
       <use xlink:href="#mdfca54a4af" x="54.12125" y="162.80817" style="stroke: #000000; stroke-width: 0.8"/>
      </g>
     </g>
     <g id="text_11">
      <!-- 1.00 -->
      <g transform="translate(24.855625 166.607388)scale(0.1 -0.1)">
       <use xlink:href="#DejaVuSans-31"/>
       <use xlink:href="#DejaVuSans-2e" x="63.623047"/>
       <use xlink:href="#DejaVuSans-30" x="95.410156"/>
       <use xlink:href="#DejaVuSans-30" x="159.033203"/>
      </g>
     </g>
    </g>
    <g id="ytick_6">
     <g id="line2d_11">
      <g>
       <use xlink:href="#mdfca54a4af" x="54.12125" y="127.600212" style="stroke: #000000; stroke-width: 0.8"/>
      </g>
     </g>
     <g id="text_12">
      <!-- 1.25 -->
      <g transform="translate(24.855625 131.399431)scale(0.1 -0.1)">
       <use xlink:href="#DejaVuSans-31"/>
       <use xlink:href="#DejaVuSans-2e" x="63.623047"/>
       <use xlink:href="#DejaVuSans-32" x="95.410156"/>
       <use xlink:href="#DejaVuSans-35" x="159.033203"/>
      </g>
     </g>
    </g>
    <g id="ytick_7">
     <g id="line2d_12">
      <g>
       <use xlink:href="#mdfca54a4af" x="54.12125" y="92.392254" style="stroke: #000000; stroke-width: 0.8"/>
      </g>
     </g>
     <g id="text_13">
      <!-- 1.50 -->
      <g transform="translate(24.855625 96.191473)scale(0.1 -0.1)">
       <use xlink:href="#DejaVuSans-31"/>
       <use xlink:href="#DejaVuSans-2e" x="63.623047"/>
       <use xlink:href="#DejaVuSans-35" x="95.410156"/>
       <use xlink:href="#DejaVuSans-30" x="159.033203"/>
      </g>
     </g>
    </g>
    <g id="ytick_8">
     <g id="line2d_13">
      <g>
       <use xlink:href="#mdfca54a4af" x="54.12125" y="57.184297" style="stroke: #000000; stroke-width: 0.8"/>
      </g>
     </g>
     <g id="text_14">
      <!-- 1.75 -->
      <g transform="translate(24.855625 60.983516)scale(0.1 -0.1)">
       <use xlink:href="#DejaVuSans-31"/>
       <use xlink:href="#DejaVuSans-2e" x="63.623047"/>
       <use xlink:href="#DejaVuSans-37" x="95.410156"/>
       <use xlink:href="#DejaVuSans-35" x="159.033203"/>
      </g>
     </g>
    </g>
    <g id="text_15">
     <!-- PercentGpA_transformed -->
     <g transform="translate(18.497813 237.696252)rotate(-90)scale(0.1 -0.1)">
      <defs>
       <path id="DejaVuSans-50" d="M 1259 4147 
L 1259 2394 
L 2053 2394 
Q 2494 2394 2734 2622 
Q 2975 2850 2975 3272 
Q 2975 3691 2734 3919 
Q 2494 4147 2053 4147 
L 1259 4147 
z
M 628 4666 
L 2053 4666 
Q 2838 4666 3239 4311 
Q 3641 3956 3641 3272 
Q 3641 2581 3239 2228 
Q 2838 1875 2053 1875 
L 1259 1875 
L 1259 0 
L 628 0 
L 628 4666 
z
" transform="scale(0.015625)"/>
       <path id="DejaVuSans-65" d="M 3597 1894 
L 3597 1613 
L 953 1613 
Q 991 1019 1311 708 
Q 1631 397 2203 397 
Q 2534 397 2845 478 
Q 3156 559 3463 722 
L 3463 178 
Q 3153 47 2828 -22 
Q 2503 -91 2169 -91 
Q 1331 -91 842 396 
Q 353 884 353 1716 
Q 353 2575 817 3079 
Q 1281 3584 2069 3584 
Q 2775 3584 3186 3129 
Q 3597 2675 3597 1894 
z
M 3022 2063 
Q 3016 2534 2758 2815 
Q 2500 3097 2075 3097 
Q 1594 3097 1305 2825 
Q 1016 2553 972 2059 
L 3022 2063 
z
" transform="scale(0.015625)"/>
       <path id="DejaVuSans-72" d="M 2631 2963 
Q 2534 3019 2420 3045 
Q 2306 3072 2169 3072 
Q 1681 3072 1420 2755 
Q 1159 2438 1159 1844 
L 1159 0 
L 581 0 
L 581 3500 
L 1159 3500 
L 1159 2956 
Q 1341 3275 1631 3429 
Q 1922 3584 2338 3584 
Q 2397 3584 2469 3576 
Q 2541 3569 2628 3553 
L 2631 2963 
z
" transform="scale(0.015625)"/>
       <path id="DejaVuSans-63" d="M 3122 3366 
L 3122 2828 
Q 2878 2963 2633 3030 
Q 2388 3097 2138 3097 
Q 1578 3097 1268 2742 
Q 959 2388 959 1747 
Q 959 1106 1268 751 
Q 1578 397 2138 397 
Q 2388 397 2633 464 
Q 2878 531 3122 666 
L 3122 134 
Q 2881 22 2623 -34 
Q 2366 -91 2075 -91 
Q 1284 -91 818 406 
Q 353 903 353 1747 
Q 353 2603 823 3093 
Q 1294 3584 2113 3584 
Q 2378 3584 2631 3529 
Q 2884 3475 3122 3366 
z
" transform="scale(0.015625)"/>
       <path id="DejaVuSans-6e" d="M 3513 2113 
L 3513 0 
L 2938 0 
L 2938 2094 
Q 2938 2591 2744 2837 
Q 2550 3084 2163 3084 
Q 1697 3084 1428 2787 
Q 1159 2491 1159 1978 
L 1159 0 
L 581 0 
L 581 3500 
L 1159 3500 
L 1159 2956 
Q 1366 3272 1645 3428 
Q 1925 3584 2291 3584 
Q 2894 3584 3203 3211 
Q 3513 2838 3513 2113 
z
" transform="scale(0.015625)"/>
       <path id="DejaVuSans-74" d="M 1172 4494 
L 1172 3500 
L 2356 3500 
L 2356 3053 
L 1172 3053 
L 1172 1153 
Q 1172 725 1289 603 
Q 1406 481 1766 481 
L 2356 481 
L 2356 0 
L 1766 0 
Q 1100 0 847 248 
Q 594 497 594 1153 
L 594 3053 
L 172 3053 
L 172 3500 
L 594 3500 
L 594 4494 
L 1172 4494 
z
" transform="scale(0.015625)"/>
       <path id="DejaVuSans-47" d="M 3809 666 
L 3809 1919 
L 2778 1919 
L 2778 2438 
L 4434 2438 
L 4434 434 
Q 4069 175 3628 42 
Q 3188 -91 2688 -91 
Q 1594 -91 976 548 
Q 359 1188 359 2328 
Q 359 3472 976 4111 
Q 1594 4750 2688 4750 
Q 3144 4750 3555 4637 
Q 3966 4525 4313 4306 
L 4313 3634 
Q 3963 3931 3569 4081 
Q 3175 4231 2741 4231 
Q 1884 4231 1454 3753 
Q 1025 3275 1025 2328 
Q 1025 1384 1454 906 
Q 1884 428 2741 428 
Q 3075 428 3337 486 
Q 3600 544 3809 666 
z
" transform="scale(0.015625)"/>
       <path id="DejaVuSans-70" d="M 1159 525 
L 1159 -1331 
L 581 -1331 
L 581 3500 
L 1159 3500 
L 1159 2969 
Q 1341 3281 1617 3432 
Q 1894 3584 2278 3584 
Q 2916 3584 3314 3078 
Q 3713 2572 3713 1747 
Q 3713 922 3314 415 
Q 2916 -91 2278 -91 
Q 1894 -91 1617 61 
Q 1341 213 1159 525 
z
M 3116 1747 
Q 3116 2381 2855 2742 
Q 2594 3103 2138 3103 
Q 1681 3103 1420 2742 
Q 1159 2381 1159 1747 
Q 1159 1113 1420 752 
Q 1681 391 2138 391 
Q 2594 391 2855 752 
Q 3116 1113 3116 1747 
z
" transform="scale(0.015625)"/>
       <path id="DejaVuSans-41" d="M 2188 4044 
L 1331 1722 
L 3047 1722 
L 2188 4044 
z
M 1831 4666 
L 2547 4666 
L 4325 0 
L 3669 0 
L 3244 1197 
L 1141 1197 
L 716 0 
L 50 0 
L 1831 4666 
z
" transform="scale(0.015625)"/>
       <path id="DejaVuSans-5f" d="M 3263 -1063 
L 3263 -1509 
L -63 -1509 
L -63 -1063 
L 3263 -1063 
z
" transform="scale(0.015625)"/>
       <path id="DejaVuSans-61" d="M 2194 1759 
Q 1497 1759 1228 1600 
Q 959 1441 959 1056 
Q 959 750 1161 570 
Q 1363 391 1709 391 
Q 2188 391 2477 730 
Q 2766 1069 2766 1631 
L 2766 1759 
L 2194 1759 
z
M 3341 1997 
L 3341 0 
L 2766 0 
L 2766 531 
Q 2569 213 2275 61 
Q 1981 -91 1556 -91 
Q 1019 -91 701 211 
Q 384 513 384 1019 
Q 384 1609 779 1909 
Q 1175 2209 1959 2209 
L 2766 2209 
L 2766 2266 
Q 2766 2663 2505 2880 
Q 2244 3097 1772 3097 
Q 1472 3097 1187 3025 
Q 903 2953 641 2809 
L 641 3341 
Q 956 3463 1253 3523 
Q 1550 3584 1831 3584 
Q 2591 3584 2966 3190 
Q 3341 2797 3341 1997 
z
" transform="scale(0.015625)"/>
       <path id="DejaVuSans-73" d="M 2834 3397 
L 2834 2853 
Q 2591 2978 2328 3040 
Q 2066 3103 1784 3103 
Q 1356 3103 1142 2972 
Q 928 2841 928 2578 
Q 928 2378 1081 2264 
Q 1234 2150 1697 2047 
L 1894 2003 
Q 2506 1872 2764 1633 
Q 3022 1394 3022 966 
Q 3022 478 2636 193 
Q 2250 -91 1575 -91 
Q 1294 -91 989 -36 
Q 684 19 347 128 
L 347 722 
Q 666 556 975 473 
Q 1284 391 1588 391 
Q 1994 391 2212 530 
Q 2431 669 2431 922 
Q 2431 1156 2273 1281 
Q 2116 1406 1581 1522 
L 1381 1569 
Q 847 1681 609 1914 
Q 372 2147 372 2553 
Q 372 3047 722 3315 
Q 1072 3584 1716 3584 
Q 2034 3584 2315 3537 
Q 2597 3491 2834 3397 
z
" transform="scale(0.015625)"/>
       <path id="DejaVuSans-6f" d="M 1959 3097 
Q 1497 3097 1228 2736 
Q 959 2375 959 1747 
Q 959 1119 1226 758 
Q 1494 397 1959 397 
Q 2419 397 2687 759 
Q 2956 1122 2956 1747 
Q 2956 2369 2687 2733 
Q 2419 3097 1959 3097 
z
M 1959 3584 
Q 2709 3584 3137 3096 
Q 3566 2609 3566 1747 
Q 3566 888 3137 398 
Q 2709 -91 1959 -91 
Q 1206 -91 779 398 
Q 353 888 353 1747 
Q 353 2609 779 3096 
Q 1206 3584 1959 3584 
z
" transform="scale(0.015625)"/>
       <path id="DejaVuSans-6d" d="M 3328 2828 
Q 3544 3216 3844 3400 
Q 4144 3584 4550 3584 
Q 5097 3584 5394 3201 
Q 5691 2819 5691 2113 
L 5691 0 
L 5113 0 
L 5113 2094 
Q 5113 2597 4934 2840 
Q 4756 3084 4391 3084 
Q 3944 3084 3684 2787 
Q 3425 2491 3425 1978 
L 3425 0 
L 2847 0 
L 2847 2094 
Q 2847 2600 2669 2842 
Q 2491 3084 2119 3084 
Q 1678 3084 1418 2786 
Q 1159 2488 1159 1978 
L 1159 0 
L 581 0 
L 581 3500 
L 1159 3500 
L 1159 2956 
Q 1356 3278 1631 3431 
Q 1906 3584 2284 3584 
Q 2666 3584 2933 3390 
Q 3200 3197 3328 2828 
z
" transform="scale(0.015625)"/>
       <path id="DejaVuSans-64" d="M 2906 2969 
L 2906 4863 
L 3481 4863 
L 3481 0 
L 2906 0 
L 2906 525 
Q 2725 213 2448 61 
Q 2172 -91 1784 -91 
Q 1150 -91 751 415 
Q 353 922 353 1747 
Q 353 2572 751 3078 
Q 1150 3584 1784 3584 
Q 2172 3584 2448 3432 
Q 2725 3281 2906 2969 
z
M 947 1747 
Q 947 1113 1208 752 
Q 1469 391 1925 391 
Q 2381 391 2643 752 
Q 2906 1113 2906 1747 
Q 2906 2381 2643 2742 
Q 2381 3103 1925 3103 
Q 1469 3103 1208 2742 
Q 947 2381 947 1747 
z
" transform="scale(0.015625)"/>
      </defs>
      <use xlink:href="#DejaVuSans-50"/>
      <use xlink:href="#DejaVuSans-65" x="56.677734"/>
      <use xlink:href="#DejaVuSans-72" x="118.201172"/>
      <use xlink:href="#DejaVuSans-63" x="157.064453"/>
      <use xlink:href="#DejaVuSans-65" x="212.044922"/>
      <use xlink:href="#DejaVuSans-6e" x="273.568359"/>
      <use xlink:href="#DejaVuSans-74" x="336.947266"/>
      <use xlink:href="#DejaVuSans-47" x="376.15625"/>
      <use xlink:href="#DejaVuSans-70" x="453.646484"/>
      <use xlink:href="#DejaVuSans-41" x="517.123047"/>
      <use xlink:href="#DejaVuSans-5f" x="585.53125"/>
      <use xlink:href="#DejaVuSans-74" x="635.53125"/>
      <use xlink:href="#DejaVuSans-72" x="674.740234"/>
      <use xlink:href="#DejaVuSans-61" x="715.853516"/>
      <use xlink:href="#DejaVuSans-6e" x="777.132812"/>
      <use xlink:href="#DejaVuSans-73" x="840.511719"/>
      <use xlink:href="#DejaVuSans-66" x="892.611328"/>
      <use xlink:href="#DejaVuSans-6f" x="927.816406"/>
      <use xlink:href="#DejaVuSans-72" x="988.998047"/>
      <use xlink:href="#DejaVuSans-6d" x="1028.361328"/>
      <use xlink:href="#DejaVuSans-65" x="1125.773438"/>
      <use xlink:href="#DejaVuSans-64" x="1187.296875"/>
     </g>
    </g>
   </g>
   <g id="LineCollection_1">
    <path d="M 205.255844 160.893888 
L 205.255844 117.831834 
" clip-path="url(#pc7c1df42c2)" style="fill: none; stroke: #d3d3d3; stroke-width: 3"/>
    <path d="M 242.617026 213.3084 
L 242.617026 149.539448 
" clip-path="url(#pc7c1df42c2)" style="fill: none; stroke: #d3d3d3; stroke-width: 3"/>
    <path d="M 204.911501 196.488697 
L 204.911501 140.626806 
" clip-path="url(#pc7c1df42c2)" style="fill: none; stroke: #d3d3d3; stroke-width: 3"/>
    <path d="M 224.969463 221.465978 
L 224.969463 123.366406 
" clip-path="url(#pc7c1df42c2)" style="fill: none; stroke: #d3d3d3; stroke-width: 3"/>
    <path d="M 267.719609 179.987431 
L 267.719609 150.709275 
" clip-path="url(#pc7c1df42c2)" style="fill: none; stroke: #d3d3d3; stroke-width: 3"/>
    <path d="M 234.318367 238.159773 
L 234.318367 221.976824 
" clip-path="url(#pc7c1df42c2)" style="fill: none; stroke: #d3d3d3; stroke-width: 3"/>
    <path d="M 261.659178 190.941324 
L 261.659178 160.905821 
" clip-path="url(#pc7c1df42c2)" style="fill: none; stroke: #d3d3d3; stroke-width: 3"/>
    <path d="M 180.514821 210.272963 
L 180.514821 184.761691 
" clip-path="url(#pc7c1df42c2)" style="fill: none; stroke: #d3d3d3; stroke-width: 3"/>
    <path d="M 192.256907 195.011344 
L 192.256907 172.130698 
" clip-path="url(#pc7c1df42c2)" style="fill: none; stroke: #d3d3d3; stroke-width: 3"/>
    <path d="M 316.220279 277.375167 
L 316.220279 263.558959 
" clip-path="url(#pc7c1df42c2)" style="fill: none; stroke: #d3d3d3; stroke-width: 3"/>
    <path d="M 273.401264 161.870615 
L 273.401264 110.597039 
" clip-path="url(#pc7c1df42c2)" style="fill: none; stroke: #d3d3d3; stroke-width: 3"/>
    <path d="M 255.030581 166.467895 
L 255.030581 133.737407 
" clip-path="url(#pc7c1df42c2)" style="fill: none; stroke: #d3d3d3; stroke-width: 3"/>
    <path d="M 432.005511 260.369281 
L 432.005511 244.775786 
" clip-path="url(#pc7c1df42c2)" style="fill: none; stroke: #d3d3d3; stroke-width: 3"/>
    <path d="M 229.514787 237.898199 
L 229.514787 199.067883 
" clip-path="url(#pc7c1df42c2)" style="fill: none; stroke: #d3d3d3; stroke-width: 3"/>
    <path d="M 315.807067 238.665271 
L 315.807067 167.342096 
" clip-path="url(#pc7c1df42c2)" style="fill: none; stroke: #d3d3d3; stroke-width: 3"/>
    <path d="M 189.536599 204.075208 
L 189.536599 184.362566 
" clip-path="url(#pc7c1df42c2)" style="fill: none; stroke: #d3d3d3; stroke-width: 3"/>
    <path d="M 280.546375 138.55062 
L 280.546375 110.633127 
" clip-path="url(#pc7c1df42c2)" style="fill: none; stroke: #d3d3d3; stroke-width: 3"/>
    <path d="M 167.188758 234.064778 
L 167.188758 222.731257 
" clip-path="url(#pc7c1df42c2)" style="fill: none; stroke: #d3d3d3; stroke-width: 3"/>
    <path d="M 360.399447 188.46207 
L 360.399447 139.820103 
" clip-path="url(#pc7c1df42c2)" style="fill: none; stroke: #d3d3d3; stroke-width: 3"/>
    <path d="M 167.670838 289.612334 
L 167.670838 247.757842 
" clip-path="url(#pc7c1df42c2)" style="fill: none; stroke: #d3d3d3; stroke-width: 3"/>
    <path d="M 256.287432 163.416128 
L 256.287432 116.634133 
" clip-path="url(#pc7c1df42c2)" style="fill: none; stroke: #d3d3d3; stroke-width: 3"/>
    <path d="M 145.925596 152.987239 
L 145.925596 143.509027 
" clip-path="url(#pc7c1df42c2)" style="fill: none; stroke: #d3d3d3; stroke-width: 3"/>
    <path d="M 217.256187 142.149299 
L 217.256187 78.670278 
" clip-path="url(#pc7c1df42c2)" style="fill: none; stroke: #d3d3d3; stroke-width: 3"/>
    <path d="M 149.885537 139.866767 
L 149.885537 112.19742 
" clip-path="url(#pc7c1df42c2)" style="fill: none; stroke: #d3d3d3; stroke-width: 3"/>
    <path d="M 156.875694 160.321508 
L 156.875694 145.808983 
" clip-path="url(#pc7c1df42c2)" style="fill: none; stroke: #d3d3d3; stroke-width: 3"/>
    <path d="M 94.807923 214.010061 
L 94.807923 58.244342 
" clip-path="url(#pc7c1df42c2)" style="fill: none; stroke: #d3d3d3; stroke-width: 3"/>
    <path d="M 94.480797 211.559602 
L 94.480797 196.02802 
" clip-path="url(#pc7c1df42c2)" style="fill: none; stroke: #d3d3d3; stroke-width: 3"/>
    <path d="M 107.514168 259.640577 
L 107.514168 245.35539 
" clip-path="url(#pc7c1df42c2)" style="fill: none; stroke: #d3d3d3; stroke-width: 3"/>
    <path d="M 72.115739 252.043441 
L 72.115739 241.658018 
" clip-path="url(#pc7c1df42c2)" style="fill: none; stroke: #d3d3d3; stroke-width: 3"/>
    <path d="M 207.907282 265.303414 
L 207.907282 263.518049 
" clip-path="url(#pc7c1df42c2)" style="fill: none; stroke: #d3d3d3; stroke-width: 3"/>
    <path d="M 159.90591 161.604834 
L 159.90591 157.377075 
" clip-path="url(#pc7c1df42c2)" style="fill: none; stroke: #d3d3d3; stroke-width: 3"/>
    <path d="M 203.568564 202.587613 
L 203.568564 174.315733 
" clip-path="url(#pc7c1df42c2)" style="fill: none; stroke: #d3d3d3; stroke-width: 3"/>
    <path d="M 142.292781 276.418931 
L 142.292781 249.929065 
" clip-path="url(#pc7c1df42c2)" style="fill: none; stroke: #d3d3d3; stroke-width: 3"/>
    <path d="M 176.727051 211.777965 
L 176.727051 175.462949 
" clip-path="url(#pc7c1df42c2)" style="fill: none; stroke: #d3d3d3; stroke-width: 3"/>
    <path d="M 153.277313 257.628055 
L 153.277313 248.290656 
" clip-path="url(#pc7c1df42c2)" style="fill: none; stroke: #d3d3d3; stroke-width: 3"/>
    <path d="M 155.825449 187.914737 
L 155.825449 135.196169 
" clip-path="url(#pc7c1df42c2)" style="fill: none; stroke: #d3d3d3; stroke-width: 3"/>
    <path d="M 183.631122 220.638006 
L 183.631122 205.653506 
" clip-path="url(#pc7c1df42c2)" style="fill: none; stroke: #d3d3d3; stroke-width: 3"/>
    <path d="M 93.585506 234.760367 
L 93.585506 219.020962 
" clip-path="url(#pc7c1df42c2)" style="fill: none; stroke: #d3d3d3; stroke-width: 3"/>
    <path d="M 191.740393 253.578165 
L 191.740393 242.877785 
" clip-path="url(#pc7c1df42c2)" style="fill: none; stroke: #d3d3d3; stroke-width: 3"/>
    <path d="M 165.157136 280.303962 
L 165.157136 258.616422 
" clip-path="url(#pc7c1df42c2)" style="fill: none; stroke: #d3d3d3; stroke-width: 3"/>
    <path d="M 99.232726 226.884309 
L 99.232726 196.328997 
" clip-path="url(#pc7c1df42c2)" style="fill: none; stroke: #d3d3d3; stroke-width: 3"/>
    <path d="M 202.242845 187.923306 
L 202.242845 144.180845 
" clip-path="url(#pc7c1df42c2)" style="fill: none; stroke: #d3d3d3; stroke-width: 3"/>
    <path d="M 175.194726 250.571551 
L 175.194726 231.637651 
" clip-path="url(#pc7c1df42c2)" style="fill: none; stroke: #d3d3d3; stroke-width: 3"/>
    <path d="M 167.395364 281.135816 
L 167.395364 271.246029 
" clip-path="url(#pc7c1df42c2)" style="fill: none; stroke: #d3d3d3; stroke-width: 3"/>
    <path d="M 229.669741 127.232031 
L 229.669741 86.550869 
" clip-path="url(#pc7c1df42c2)" style="fill: none; stroke: #d3d3d3; stroke-width: 3"/>
   </g>
   <g id="line2d_14">
    <path d="M 205.255844 194.733657 
L 242.617026 191.140747 
L 204.911501 194.766771 
L 224.969463 192.837859 
L 267.719609 188.726708 
L 234.318367 191.938803 
L 261.659178 189.309521 
L 180.514821 197.112925 
L 192.256907 195.983725 
L 316.220279 184.062548 
L 273.401264 188.180321 
L 255.030581 189.946973 
L 432.005511 172.927837 
L 229.514787 192.400749 
L 315.807067 184.102285 
L 189.536599 196.245328 
L 280.546375 187.493197 
L 167.188758 198.394452 
L 360.399447 179.813972 
L 167.670838 198.348092 
L 256.287432 189.826106 
L 145.925596 200.439265 
L 217.256187 193.579621 
L 149.885537 200.058449 
L 156.875694 199.386228 
L 94.807923 205.355095 
L 94.480797 205.386553 
L 107.514168 204.133174 
L 72.115739 207.537332 
L 207.907282 194.478676 
L 159.90591 199.094821 
L 203.568564 194.895917 
L 142.292781 200.788622 
L 176.727051 197.477183 
L 153.277313 199.732273 
L 155.825449 199.487226 
L 183.631122 196.81324 
L 93.585506 205.472651 
L 191.740393 196.033396 
L 165.157136 198.589827 
L 99.232726 204.929575 
L 202.242845 195.023408 
L 175.194726 197.624542 
L 167.395364 198.374583 
L 229.669741 192.385847 
" clip-path="url(#pc7c1df42c2)" style="fill: none; stroke: #1f77b4; stroke-width: 1.5; stroke-linecap: square"/>
   </g>
   <g id="line2d_15">
    <defs>
     <path id="me025033c06" d="M 0 3 
C 0.795609 3 1.55874 2.683901 2.12132 2.12132 
C 2.683901 1.55874 3 0.795609 3 0 
C 3 -0.795609 2.683901 -1.55874 2.12132 -2.12132 
C 1.55874 -2.683901 0.795609 -3 0 -3 
C -0.795609 -3 -1.55874 -2.683901 -2.12132 -2.12132 
C -2.683901 -1.55874 -3 -0.795609 -3 0 
C -3 0.795609 -2.683901 1.55874 -2.12132 2.12132 
C -1.55874 2.683901 -0.795609 3 0 3 
z
" style="stroke: #000000"/>
    </defs>
    <g clip-path="url(#pc7c1df42c2)">
     <use xlink:href="#me025033c06" x="205.255844" y="139.362861" style="stroke: #000000"/>
     <use xlink:href="#me025033c06" x="242.617026" y="181.423924" style="stroke: #000000"/>
     <use xlink:href="#me025033c06" x="204.911501" y="168.557752" style="stroke: #000000"/>
     <use xlink:href="#me025033c06" x="224.969463" y="172.416192" style="stroke: #000000"/>
     <use xlink:href="#me025033c06" x="267.719609" y="165.348353" style="stroke: #000000"/>
     <use xlink:href="#me025033c06" x="234.318367" y="230.068299" style="stroke: #000000"/>
     <use xlink:href="#me025033c06" x="261.659178" y="175.923572" style="stroke: #000000"/>
     <use xlink:href="#me025033c06" x="180.514821" y="197.517327" style="stroke: #000000"/>
     <use xlink:href="#me025033c06" x="192.256907" y="183.571021" style="stroke: #000000"/>
     <use xlink:href="#me025033c06" x="316.220279" y="270.467063" style="stroke: #000000"/>
     <use xlink:href="#me025033c06" x="273.401264" y="136.233827" style="stroke: #000000"/>
     <use xlink:href="#me025033c06" x="255.030581" y="150.102651" style="stroke: #000000"/>
     <use xlink:href="#me025033c06" x="432.005511" y="252.572533" style="stroke: #000000"/>
     <use xlink:href="#me025033c06" x="229.514787" y="218.483041" style="stroke: #000000"/>
     <use xlink:href="#me025033c06" x="315.807067" y="203.003683" style="stroke: #000000"/>
     <use xlink:href="#me025033c06" x="189.536599" y="194.218887" style="stroke: #000000"/>
     <use xlink:href="#me025033c06" x="280.546375" y="124.591873" style="stroke: #000000"/>
     <use xlink:href="#me025033c06" x="167.188758" y="228.398018" style="stroke: #000000"/>
     <use xlink:href="#me025033c06" x="360.399447" y="164.141087" style="stroke: #000000"/>
     <use xlink:href="#me025033c06" x="167.670838" y="268.685088" style="stroke: #000000"/>
     <use xlink:href="#me025033c06" x="256.287432" y="140.025131" style="stroke: #000000"/>
     <use xlink:href="#me025033c06" x="145.925596" y="148.248133" style="stroke: #000000"/>
     <use xlink:href="#me025033c06" x="217.256187" y="110.409788" style="stroke: #000000"/>
     <use xlink:href="#me025033c06" x="149.885537" y="126.032094" style="stroke: #000000"/>
     <use xlink:href="#me025033c06" x="156.875694" y="153.065246" style="stroke: #000000"/>
     <use xlink:href="#me025033c06" x="94.807923" y="136.127201" style="stroke: #000000"/>
     <use xlink:href="#me025033c06" x="94.480797" y="203.793811" style="stroke: #000000"/>
     <use xlink:href="#me025033c06" x="107.514168" y="252.497984" style="stroke: #000000"/>
     <use xlink:href="#me025033c06" x="72.115739" y="246.85073" style="stroke: #000000"/>
     <use xlink:href="#me025033c06" x="207.907282" y="264.410732" style="stroke: #000000"/>
     <use xlink:href="#me025033c06" x="159.90591" y="159.490954" style="stroke: #000000"/>
     <use xlink:href="#me025033c06" x="203.568564" y="188.451673" style="stroke: #000000"/>
     <use xlink:href="#me025033c06" x="142.292781" y="263.173998" style="stroke: #000000"/>
     <use xlink:href="#me025033c06" x="176.727051" y="193.620457" style="stroke: #000000"/>
     <use xlink:href="#me025033c06" x="153.277313" y="252.959355" style="stroke: #000000"/>
     <use xlink:href="#me025033c06" x="155.825449" y="161.555453" style="stroke: #000000"/>
     <use xlink:href="#me025033c06" x="183.631122" y="213.145756" style="stroke: #000000"/>
     <use xlink:href="#me025033c06" x="93.585506" y="226.890665" style="stroke: #000000"/>
     <use xlink:href="#me025033c06" x="191.740393" y="248.227975" style="stroke: #000000"/>
     <use xlink:href="#me025033c06" x="165.157136" y="269.460192" style="stroke: #000000"/>
     <use xlink:href="#me025033c06" x="99.232726" y="211.606653" style="stroke: #000000"/>
     <use xlink:href="#me025033c06" x="202.242845" y="166.052076" style="stroke: #000000"/>
     <use xlink:href="#me025033c06" x="175.194726" y="241.104601" style="stroke: #000000"/>
     <use xlink:href="#me025033c06" x="167.395364" y="276.190923" style="stroke: #000000"/>
     <use xlink:href="#me025033c06" x="229.669741" y="106.89145" style="stroke: #000000"/>
    </g>
   </g>
   <g id="patch_3">
    <path d="M 54.12125 303.64 
L 54.12125 46.675942 
" style="fill: none; stroke: #000000; stroke-width: 0.8; stroke-linejoin: miter; stroke-linecap: square"/>
   </g>
   <g id="patch_4">
    <path d="M 450 303.64 
L 450 46.675942 
" style="fill: none; stroke: #000000; stroke-width: 0.8; stroke-linejoin: miter; stroke-linecap: square"/>
   </g>
   <g id="patch_5">
    <path d="M 54.12125 303.64 
L 450 303.64 
" style="fill: none; stroke: #000000; stroke-width: 0.8; stroke-linejoin: miter; stroke-linecap: square"/>
   </g>
   <g id="patch_6">
    <path d="M 54.12125 46.675942 
L 450 46.675942 
" style="fill: none; stroke: #000000; stroke-width: 0.8; stroke-linejoin: miter; stroke-linecap: square"/>
   </g>
   <g id="text_16">
    <!-- y = 0.01x + 0.50 -->
    <g transform="translate(50.788813 18.59963)scale(0.1 -0.1)">
     <defs>
      <path id="DejaVuSans-79" d="M 2059 -325 
Q 1816 -950 1584 -1140 
Q 1353 -1331 966 -1331 
L 506 -1331 
L 506 -850 
L 844 -850 
Q 1081 -850 1212 -737 
Q 1344 -625 1503 -206 
L 1606 56 
L 191 3500 
L 800 3500 
L 1894 763 
L 2988 3500 
L 3597 3500 
L 2059 -325 
z
" transform="scale(0.015625)"/>
      <path id="DejaVuSans-20" transform="scale(0.015625)"/>
      <path id="DejaVuSans-3d" d="M 678 2906 
L 4684 2906 
L 4684 2381 
L 678 2381 
L 678 2906 
z
M 678 1631 
L 4684 1631 
L 4684 1100 
L 678 1100 
L 678 1631 
z
" transform="scale(0.015625)"/>
      <path id="DejaVuSans-78" d="M 3513 3500 
L 2247 1797 
L 3578 0 
L 2900 0 
L 1881 1375 
L 863 0 
L 184 0 
L 1544 1831 
L 300 3500 
L 978 3500 
L 1906 2253 
L 2834 3500 
L 3513 3500 
z
" transform="scale(0.015625)"/>
      <path id="DejaVuSans-2b" d="M 2944 4013 
L 2944 2272 
L 4684 2272 
L 4684 1741 
L 2944 1741 
L 2944 0 
L 2419 0 
L 2419 1741 
L 678 1741 
L 678 2272 
L 2419 2272 
L 2419 4013 
L 2944 4013 
z
" transform="scale(0.015625)"/>
     </defs>
     <use xlink:href="#DejaVuSans-79"/>
     <use xlink:href="#DejaVuSans-20" x="59.179688"/>
     <use xlink:href="#DejaVuSans-3d" x="90.966797"/>
     <use xlink:href="#DejaVuSans-20" x="174.755859"/>
     <use xlink:href="#DejaVuSans-30" x="206.542969"/>
     <use xlink:href="#DejaVuSans-2e" x="270.166016"/>
     <use xlink:href="#DejaVuSans-30" x="301.953125"/>
     <use xlink:href="#DejaVuSans-31" x="365.576172"/>
     <use xlink:href="#DejaVuSans-78" x="429.199219"/>
     <use xlink:href="#DejaVuSans-20" x="488.378906"/>
     <use xlink:href="#DejaVuSans-2b" x="520.166016"/>
     <use xlink:href="#DejaVuSans-20" x="603.955078"/>
     <use xlink:href="#DejaVuSans-30" x="635.742188"/>
     <use xlink:href="#DejaVuSans-2e" x="699.365234"/>
     <use xlink:href="#DejaVuSans-35" x="731.152344"/>
     <use xlink:href="#DejaVuSans-30" x="794.775391"/>
    </g>
   </g>
   <g id="text_17">
    <!-- r^2 = 0.02 -->
    <g transform="translate(65.781781 26.308552)scale(0.1 -0.1)">
     <defs>
      <path id="DejaVuSans-5e" d="M 2988 4666 
L 4684 2925 
L 4056 2925 
L 2681 4159 
L 1306 2925 
L 678 2925 
L 2375 4666 
L 2988 4666 
z
" transform="scale(0.015625)"/>
     </defs>
     <use xlink:href="#DejaVuSans-72"/>
     <use xlink:href="#DejaVuSans-5e" x="41.113281"/>
     <use xlink:href="#DejaVuSans-32" x="124.902344"/>
     <use xlink:href="#DejaVuSans-20" x="188.525391"/>
     <use xlink:href="#DejaVuSans-3d" x="220.3125"/>
     <use xlink:href="#DejaVuSans-20" x="304.101562"/>
     <use xlink:href="#DejaVuSans-30" x="335.888672"/>
     <use xlink:href="#DejaVuSans-2e" x="399.511719"/>
     <use xlink:href="#DejaVuSans-30" x="431.298828"/>
     <use xlink:href="#DejaVuSans-32" x="494.921875"/>
    </g>
   </g>
   <g id="text_18">
    <!-- n = 45 -->
    <g transform="translate(76.809906 34.017473)scale(0.1 -0.1)">
     <defs>
      <path id="DejaVuSans-34" d="M 2419 4116 
L 825 1625 
L 2419 1625 
L 2419 4116 
z
M 2253 4666 
L 3047 4666 
L 3047 1625 
L 3713 1625 
L 3713 1100 
L 3047 1100 
L 3047 0 
L 2419 0 
L 2419 1100 
L 313 1100 
L 313 1709 
L 2253 4666 
z
" transform="scale(0.015625)"/>
     </defs>
     <use xlink:href="#DejaVuSans-6e"/>
     <use xlink:href="#DejaVuSans-20" x="63.378906"/>
     <use xlink:href="#DejaVuSans-3d" x="95.166016"/>
     <use xlink:href="#DejaVuSans-20" x="178.955078"/>
     <use xlink:href="#DejaVuSans-34" x="210.742188"/>
     <use xlink:href="#DejaVuSans-35" x="274.365234"/>
    </g>
   </g>
   <g id="text_19">
    <!-- IMM1Diff vs PercentGpA_transformed -->
    <g transform="translate(140.071563 40.675942)scale(0.12 -0.12)">
     <defs>
      <path id="DejaVuSans-76" d="M 191 3500 
L 800 3500 
L 1894 563 
L 2988 3500 
L 3597 3500 
L 2284 0 
L 1503 0 
L 191 3500 
z
" transform="scale(0.015625)"/>
     </defs>
     <use xlink:href="#DejaVuSans-49"/>
     <use xlink:href="#DejaVuSans-4d" x="29.492188"/>
     <use xlink:href="#DejaVuSans-4d" x="115.771484"/>
     <use xlink:href="#DejaVuSans-31" x="202.050781"/>
     <use xlink:href="#DejaVuSans-44" x="265.673828"/>
     <use xlink:href="#DejaVuSans-69" x="342.675781"/>
     <use xlink:href="#DejaVuSans-66" x="370.458984"/>
     <use xlink:href="#DejaVuSans-66" x="405.664062"/>
     <use xlink:href="#DejaVuSans-20" x="440.869141"/>
     <use xlink:href="#DejaVuSans-76" x="472.65625"/>
     <use xlink:href="#DejaVuSans-73" x="531.835938"/>
     <use xlink:href="#DejaVuSans-20" x="583.935547"/>
     <use xlink:href="#DejaVuSans-50" x="615.722656"/>
     <use xlink:href="#DejaVuSans-65" x="672.400391"/>
     <use xlink:href="#DejaVuSans-72" x="733.923828"/>
     <use xlink:href="#DejaVuSans-63" x="772.787109"/>
     <use xlink:href="#DejaVuSans-65" x="827.767578"/>
     <use xlink:href="#DejaVuSans-6e" x="889.291016"/>
     <use xlink:href="#DejaVuSans-74" x="952.669922"/>
     <use xlink:href="#DejaVuSans-47" x="991.878906"/>
     <use xlink:href="#DejaVuSans-70" x="1069.369141"/>
     <use xlink:href="#DejaVuSans-41" x="1132.845703"/>
     <use xlink:href="#DejaVuSans-5f" x="1201.253906"/>
     <use xlink:href="#DejaVuSans-74" x="1251.253906"/>
     <use xlink:href="#DejaVuSans-72" x="1290.462891"/>
     <use xlink:href="#DejaVuSans-61" x="1331.576172"/>
     <use xlink:href="#DejaVuSans-6e" x="1392.855469"/>
     <use xlink:href="#DejaVuSans-73" x="1456.234375"/>
     <use xlink:href="#DejaVuSans-66" x="1508.333984"/>
     <use xlink:href="#DejaVuSans-6f" x="1543.539062"/>
     <use xlink:href="#DejaVuSans-72" x="1604.720703"/>
     <use xlink:href="#DejaVuSans-6d" x="1644.083984"/>
     <use xlink:href="#DejaVuSans-65" x="1741.496094"/>
     <use xlink:href="#DejaVuSans-64" x="1803.019531"/>
    </g>
   </g>
  </g>
 </g>
 <defs>
  <clipPath id="pc7c1df42c2">
   <rect x="54.12125" y="46.675942" width="395.87875" height="256.964058"/>
  </clipPath>
 </defs>
</svg>
