<?xml version="1.0" encoding="utf-8" standalone="no"?>
<!DOCTYPE svg PUBLIC "-//W3C//DTD SVG 1.1//EN"
  "http://www.w3.org/Graphics/SVG/1.1/DTD/svg11.dtd">
<svg xmlns:xlink="http://www.w3.org/1999/xlink" width="460.8pt" height="345.6pt" viewBox="0 0 460.8 345.6" xmlns="http://www.w3.org/2000/svg" version="1.1">
 <metadata>
  <rdf:RDF xmlns:dc="http://purl.org/dc/elements/1.1/" xmlns:cc="http://creativecommons.org/ns#" xmlns:rdf="http://www.w3.org/1999/02/22-rdf-syntax-ns#">
   <cc:Work>
    <dc:type rdf:resource="http://purl.org/dc/dcmitype/StillImage"/>
    <dc:date>2024-02-20T13:07:23.857253</dc:date>
    <dc:format>image/svg+xml</dc:format>
    <dc:creator>
     <cc:Agent>
      <dc:title>Matplotlib v3.7.1, https://matplotlib.org/</dc:title>
     </cc:Agent>
    </dc:creator>
   </cc:Work>
  </rdf:RDF>
 </metadata>
 <defs>
  <style type="text/css">*{stroke-linejoin: round; stroke-linecap: butt}</style>
 </defs>
 <g id="figure_1">
  <g id="patch_1">
   <path d="M 0 345.6 
L 460.8 345.6 
L 460.8 0 
L 0 0 
z
" style="fill: #ffffff"/>
  </g>
  <g id="axes_1">
   <g id="patch_2">
    <path d="M 63.66125 303.64 
L 450 303.64 
L 450 10.8 
L 63.66125 10.8 
z
" style="fill: #ffffff"/>
   </g>
   <g id="matplotlib.axis_1">
    <g id="xtick_1">
     <g id="text_1">
      <!-- AI -->
      <g style="fill: #262626" transform="translate(155.350625 318.238437) scale(0.1 -0.1)">
       <defs>
        <path id="DejaVuSans-41" d="M 2188 4044 
L 1331 1722 
L 3047 1722 
L 2188 4044 
z
M 1831 4666 
L 2547 4666 
L 4325 0 
L 3669 0 
L 3244 1197 
L 1141 1197 
L 716 0 
L 50 0 
L 1831 4666 
z
" transform="scale(0.015625)"/>
        <path id="DejaVuSans-49" d="M 628 4666 
L 1259 4666 
L 1259 0 
L 628 0 
L 628 4666 
z
" transform="scale(0.015625)"/>
       </defs>
       <use xlink:href="#DejaVuSans-41"/>
       <use xlink:href="#DejaVuSans-49" x="68.408203"/>
      </g>
     </g>
    </g>
    <g id="xtick_2">
     <g id="text_2">
      <!-- FA -->
      <g style="fill: #262626" transform="translate(347.575469 318.238437) scale(0.1 -0.1)">
       <defs>
        <path id="DejaVuSans-46" d="M 628 4666 
L 3309 4666 
L 3309 4134 
L 1259 4134 
L 1259 2759 
L 3109 2759 
L 3109 2228 
L 1259 2228 
L 1259 0 
L 628 0 
L 628 4666 
z
" transform="scale(0.015625)"/>
       </defs>
       <use xlink:href="#DejaVuSans-46"/>
       <use xlink:href="#DejaVuSans-41" x="48.394531"/>
      </g>
     </g>
    </g>
    <g id="text_3">
     <!-- WT_MUT -->
     <g style="fill: #262626" transform="translate(235.305625 331.638437) scale(0.1 -0.1)">
      <defs>
       <path id="DejaVuSans-57" d="M 213 4666 
L 850 4666 
L 1831 722 
L 2809 4666 
L 3519 4666 
L 4500 722 
L 5478 4666 
L 6119 4666 
L 4947 0 
L 4153 0 
L 3169 4050 
L 2175 0 
L 1381 0 
L 213 4666 
z
" transform="scale(0.015625)"/>
       <path id="DejaVuSans-54" d="M -19 4666 
L 3928 4666 
L 3928 4134 
L 2272 4134 
L 2272 0 
L 1638 0 
L 1638 4134 
L -19 4134 
L -19 4666 
z
" transform="scale(0.015625)"/>
       <path id="DejaVuSans-5f" d="M 3263 -1063 
L 3263 -1509 
L -63 -1509 
L -63 -1063 
L 3263 -1063 
z
" transform="scale(0.015625)"/>
       <path id="DejaVuSans-4d" d="M 628 4666 
L 1569 4666 
L 2759 1491 
L 3956 4666 
L 4897 4666 
L 4897 0 
L 4281 0 
L 4281 4097 
L 3078 897 
L 2444 897 
L 1241 4097 
L 1241 0 
L 628 0 
L 628 4666 
z
" transform="scale(0.015625)"/>
       <path id="DejaVuSans-55" d="M 556 4666 
L 1191 4666 
L 1191 1831 
Q 1191 1081 1462 751 
Q 1734 422 2344 422 
Q 2950 422 3222 751 
Q 3494 1081 3494 1831 
L 3494 4666 
L 4128 4666 
L 4128 1753 
Q 4128 841 3676 375 
Q 3225 -91 2344 -91 
Q 1459 -91 1007 375 
Q 556 841 556 1753 
L 556 4666 
z
" transform="scale(0.015625)"/>
      </defs>
      <use xlink:href="#DejaVuSans-57"/>
      <use xlink:href="#DejaVuSans-54" x="98.876953"/>
      <use xlink:href="#DejaVuSans-5f" x="159.960938"/>
      <use xlink:href="#DejaVuSans-4d" x="209.960938"/>
      <use xlink:href="#DejaVuSans-55" x="296.240234"/>
      <use xlink:href="#DejaVuSans-54" x="369.433594"/>
     </g>
    </g>
   </g>
   <g id="matplotlib.axis_2">
    <g id="ytick_1">
     <g id="line2d_1">
      <path d="M 63.66125 303.64 
L 450 303.64 
" clip-path="url(#pedf178abfb)" style="fill: none; stroke: #cccccc; stroke-width: 0.8; stroke-linecap: round"/>
     </g>
     <g id="text_4">
      <!-- 0.0 -->
      <g style="fill: #262626" transform="translate(40.758125 307.439219) scale(0.1 -0.1)">
       <defs>
        <path id="DejaVuSans-30" d="M 2034 4250 
Q 1547 4250 1301 3770 
Q 1056 3291 1056 2328 
Q 1056 1369 1301 889 
Q 1547 409 2034 409 
Q 2525 409 2770 889 
Q 3016 1369 3016 2328 
Q 3016 3291 2770 3770 
Q 2525 4250 2034 4250 
z
M 2034 4750 
Q 2819 4750 3233 4129 
Q 3647 3509 3647 2328 
Q 3647 1150 3233 529 
Q 2819 -91 2034 -91 
Q 1250 -91 836 529 
Q 422 1150 422 2328 
Q 422 3509 836 4129 
Q 1250 4750 2034 4750 
z
" transform="scale(0.015625)"/>
        <path id="DejaVuSans-2e" d="M 684 794 
L 1344 794 
L 1344 0 
L 684 0 
L 684 794 
z
" transform="scale(0.015625)"/>
       </defs>
       <use xlink:href="#DejaVuSans-30"/>
       <use xlink:href="#DejaVuSans-2e" x="63.623047"/>
       <use xlink:href="#DejaVuSans-30" x="95.410156"/>
      </g>
     </g>
    </g>
    <g id="ytick_2">
     <g id="line2d_2">
      <path d="M 63.66125 264.979047 
L 450 264.979047 
" clip-path="url(#pedf178abfb)" style="fill: none; stroke: #cccccc; stroke-width: 0.8; stroke-linecap: round"/>
     </g>
     <g id="text_5">
      <!-- 0.1 -->
      <g style="fill: #262626" transform="translate(40.758125 268.778266) scale(0.1 -0.1)">
       <defs>
        <path id="DejaVuSans-31" d="M 794 531 
L 1825 531 
L 1825 4091 
L 703 3866 
L 703 4441 
L 1819 4666 
L 2450 4666 
L 2450 531 
L 3481 531 
L 3481 0 
L 794 0 
L 794 531 
z
" transform="scale(0.015625)"/>
       </defs>
       <use xlink:href="#DejaVuSans-30"/>
       <use xlink:href="#DejaVuSans-2e" x="63.623047"/>
       <use xlink:href="#DejaVuSans-31" x="95.410156"/>
      </g>
     </g>
    </g>
    <g id="ytick_3">
     <g id="line2d_3">
      <path d="M 63.66125 226.318094 
L 450 226.318094 
" clip-path="url(#pedf178abfb)" style="fill: none; stroke: #cccccc; stroke-width: 0.8; stroke-linecap: round"/>
     </g>
     <g id="text_6">
      <!-- 0.2 -->
      <g style="fill: #262626" transform="translate(40.758125 230.117313) scale(0.1 -0.1)">
       <defs>
        <path id="DejaVuSans-32" d="M 1228 531 
L 3431 531 
L 3431 0 
L 469 0 
L 469 531 
Q 828 903 1448 1529 
Q 2069 2156 2228 2338 
Q 2531 2678 2651 2914 
Q 2772 3150 2772 3378 
Q 2772 3750 2511 3984 
Q 2250 4219 1831 4219 
Q 1534 4219 1204 4116 
Q 875 4013 500 3803 
L 500 4441 
Q 881 4594 1212 4672 
Q 1544 4750 1819 4750 
Q 2544 4750 2975 4387 
Q 3406 4025 3406 3419 
Q 3406 3131 3298 2873 
Q 3191 2616 2906 2266 
Q 2828 2175 2409 1742 
Q 1991 1309 1228 531 
z
" transform="scale(0.015625)"/>
       </defs>
       <use xlink:href="#DejaVuSans-30"/>
       <use xlink:href="#DejaVuSans-2e" x="63.623047"/>
       <use xlink:href="#DejaVuSans-32" x="95.410156"/>
      </g>
     </g>
    </g>
    <g id="ytick_4">
     <g id="line2d_4">
      <path d="M 63.66125 187.657141 
L 450 187.657141 
" clip-path="url(#pedf178abfb)" style="fill: none; stroke: #cccccc; stroke-width: 0.8; stroke-linecap: round"/>
     </g>
     <g id="text_7">
      <!-- 0.3 -->
      <g style="fill: #262626" transform="translate(40.758125 191.456359) scale(0.1 -0.1)">
       <defs>
        <path id="DejaVuSans-33" d="M 2597 2516 
Q 3050 2419 3304 2112 
Q 3559 1806 3559 1356 
Q 3559 666 3084 287 
Q 2609 -91 1734 -91 
Q 1441 -91 1130 -33 
Q 819 25 488 141 
L 488 750 
Q 750 597 1062 519 
Q 1375 441 1716 441 
Q 2309 441 2620 675 
Q 2931 909 2931 1356 
Q 2931 1769 2642 2001 
Q 2353 2234 1838 2234 
L 1294 2234 
L 1294 2753 
L 1863 2753 
Q 2328 2753 2575 2939 
Q 2822 3125 2822 3475 
Q 2822 3834 2567 4026 
Q 2313 4219 1838 4219 
Q 1578 4219 1281 4162 
Q 984 4106 628 3988 
L 628 4550 
Q 988 4650 1302 4700 
Q 1616 4750 1894 4750 
Q 2613 4750 3031 4423 
Q 3450 4097 3450 3541 
Q 3450 3153 3228 2886 
Q 3006 2619 2597 2516 
z
" transform="scale(0.015625)"/>
       </defs>
       <use xlink:href="#DejaVuSans-30"/>
       <use xlink:href="#DejaVuSans-2e" x="63.623047"/>
       <use xlink:href="#DejaVuSans-33" x="95.410156"/>
      </g>
     </g>
    </g>
    <g id="ytick_5">
     <g id="line2d_5">
      <path d="M 63.66125 148.996188 
L 450 148.996188 
" clip-path="url(#pedf178abfb)" style="fill: none; stroke: #cccccc; stroke-width: 0.8; stroke-linecap: round"/>
     </g>
     <g id="text_8">
      <!-- 0.4 -->
      <g style="fill: #262626" transform="translate(40.758125 152.795406) scale(0.1 -0.1)">
       <defs>
        <path id="DejaVuSans-34" d="M 2419 4116 
L 825 1625 
L 2419 1625 
L 2419 4116 
z
M 2253 4666 
L 3047 4666 
L 3047 1625 
L 3713 1625 
L 3713 1100 
L 3047 1100 
L 3047 0 
L 2419 0 
L 2419 1100 
L 313 1100 
L 313 1709 
L 2253 4666 
z
" transform="scale(0.015625)"/>
       </defs>
       <use xlink:href="#DejaVuSans-30"/>
       <use xlink:href="#DejaVuSans-2e" x="63.623047"/>
       <use xlink:href="#DejaVuSans-34" x="95.410156"/>
      </g>
     </g>
    </g>
    <g id="ytick_6">
     <g id="line2d_6">
      <path d="M 63.66125 110.335234 
L 450 110.335234 
" clip-path="url(#pedf178abfb)" style="fill: none; stroke: #cccccc; stroke-width: 0.8; stroke-linecap: round"/>
     </g>
     <g id="text_9">
      <!-- 0.5 -->
      <g style="fill: #262626" transform="translate(40.758125 114.134453) scale(0.1 -0.1)">
       <defs>
        <path id="DejaVuSans-35" d="M 691 4666 
L 3169 4666 
L 3169 4134 
L 1269 4134 
L 1269 2991 
Q 1406 3038 1543 3061 
Q 1681 3084 1819 3084 
Q 2600 3084 3056 2656 
Q 3513 2228 3513 1497 
Q 3513 744 3044 326 
Q 2575 -91 1722 -91 
Q 1428 -91 1123 -41 
Q 819 9 494 109 
L 494 744 
Q 775 591 1075 516 
Q 1375 441 1709 441 
Q 2250 441 2565 725 
Q 2881 1009 2881 1497 
Q 2881 1984 2565 2268 
Q 2250 2553 1709 2553 
Q 1456 2553 1204 2497 
Q 953 2441 691 2322 
L 691 4666 
z
" transform="scale(0.015625)"/>
       </defs>
       <use xlink:href="#DejaVuSans-30"/>
       <use xlink:href="#DejaVuSans-2e" x="63.623047"/>
       <use xlink:href="#DejaVuSans-35" x="95.410156"/>
      </g>
     </g>
    </g>
    <g id="ytick_7">
     <g id="line2d_7">
      <path d="M 63.66125 71.674281 
L 450 71.674281 
" clip-path="url(#pedf178abfb)" style="fill: none; stroke: #cccccc; stroke-width: 0.8; stroke-linecap: round"/>
     </g>
     <g id="text_10">
      <!-- 0.6 -->
      <g style="fill: #262626" transform="translate(40.758125 75.4735) scale(0.1 -0.1)">
       <defs>
        <path id="DejaVuSans-36" d="M 2113 2584 
Q 1688 2584 1439 2293 
Q 1191 2003 1191 1497 
Q 1191 994 1439 701 
Q 1688 409 2113 409 
Q 2538 409 2786 701 
Q 3034 994 3034 1497 
Q 3034 2003 2786 2293 
Q 2538 2584 2113 2584 
z
M 3366 4563 
L 3366 3988 
Q 3128 4100 2886 4159 
Q 2644 4219 2406 4219 
Q 1781 4219 1451 3797 
Q 1122 3375 1075 2522 
Q 1259 2794 1537 2939 
Q 1816 3084 2150 3084 
Q 2853 3084 3261 2657 
Q 3669 2231 3669 1497 
Q 3669 778 3244 343 
Q 2819 -91 2113 -91 
Q 1303 -91 875 529 
Q 447 1150 447 2328 
Q 447 3434 972 4092 
Q 1497 4750 2381 4750 
Q 2619 4750 2861 4703 
Q 3103 4656 3366 4563 
z
" transform="scale(0.015625)"/>
       </defs>
       <use xlink:href="#DejaVuSans-30"/>
       <use xlink:href="#DejaVuSans-2e" x="63.623047"/>
       <use xlink:href="#DejaVuSans-36" x="95.410156"/>
      </g>
     </g>
    </g>
    <g id="ytick_8">
     <g id="line2d_8">
      <path d="M 63.66125 33.013328 
L 450 33.013328 
" clip-path="url(#pedf178abfb)" style="fill: none; stroke: #cccccc; stroke-width: 0.8; stroke-linecap: round"/>
     </g>
     <g id="text_11">
      <!-- 0.7 -->
      <g style="fill: #262626" transform="translate(40.758125 36.812547) scale(0.1 -0.1)">
       <defs>
        <path id="DejaVuSans-37" d="M 525 4666 
L 3525 4666 
L 3525 4397 
L 1831 0 
L 1172 0 
L 2766 4134 
L 525 4134 
L 525 4666 
z
" transform="scale(0.015625)"/>
       </defs>
       <use xlink:href="#DejaVuSans-30"/>
       <use xlink:href="#DejaVuSans-2e" x="63.623047"/>
       <use xlink:href="#DejaVuSans-37" x="95.410156"/>
      </g>
     </g>
    </g>
    <g id="text_12">
     <!-- PercentGpA -->
     <g style="fill: #262626" transform="translate(34.678438 186.496563) rotate(-90) scale(0.1 -0.1)">
      <defs>
       <path id="DejaVuSans-50" d="M 1259 4147 
L 1259 2394 
L 2053 2394 
Q 2494 2394 2734 2622 
Q 2975 2850 2975 3272 
Q 2975 3691 2734 3919 
Q 2494 4147 2053 4147 
L 1259 4147 
z
M 628 4666 
L 2053 4666 
Q 2838 4666 3239 4311 
Q 3641 3956 3641 3272 
Q 3641 2581 3239 2228 
Q 2838 1875 2053 1875 
L 1259 1875 
L 1259 0 
L 628 0 
L 628 4666 
z
" transform="scale(0.015625)"/>
       <path id="DejaVuSans-65" d="M 3597 1894 
L 3597 1613 
L 953 1613 
Q 991 1019 1311 708 
Q 1631 397 2203 397 
Q 2534 397 2845 478 
Q 3156 559 3463 722 
L 3463 178 
Q 3153 47 2828 -22 
Q 2503 -91 2169 -91 
Q 1331 -91 842 396 
Q 353 884 353 1716 
Q 353 2575 817 3079 
Q 1281 3584 2069 3584 
Q 2775 3584 3186 3129 
Q 3597 2675 3597 1894 
z
M 3022 2063 
Q 3016 2534 2758 2815 
Q 2500 3097 2075 3097 
Q 1594 3097 1305 2825 
Q 1016 2553 972 2059 
L 3022 2063 
z
" transform="scale(0.015625)"/>
       <path id="DejaVuSans-72" d="M 2631 2963 
Q 2534 3019 2420 3045 
Q 2306 3072 2169 3072 
Q 1681 3072 1420 2755 
Q 1159 2438 1159 1844 
L 1159 0 
L 581 0 
L 581 3500 
L 1159 3500 
L 1159 2956 
Q 1341 3275 1631 3429 
Q 1922 3584 2338 3584 
Q 2397 3584 2469 3576 
Q 2541 3569 2628 3553 
L 2631 2963 
z
" transform="scale(0.015625)"/>
       <path id="DejaVuSans-63" d="M 3122 3366 
L 3122 2828 
Q 2878 2963 2633 3030 
Q 2388 3097 2138 3097 
Q 1578 3097 1268 2742 
Q 959 2388 959 1747 
Q 959 1106 1268 751 
Q 1578 397 2138 397 
Q 2388 397 2633 464 
Q 2878 531 3122 666 
L 3122 134 
Q 2881 22 2623 -34 
Q 2366 -91 2075 -91 
Q 1284 -91 818 406 
Q 353 903 353 1747 
Q 353 2603 823 3093 
Q 1294 3584 2113 3584 
Q 2378 3584 2631 3529 
Q 2884 3475 3122 3366 
z
" transform="scale(0.015625)"/>
       <path id="DejaVuSans-6e" d="M 3513 2113 
L 3513 0 
L 2938 0 
L 2938 2094 
Q 2938 2591 2744 2837 
Q 2550 3084 2163 3084 
Q 1697 3084 1428 2787 
Q 1159 2491 1159 1978 
L 1159 0 
L 581 0 
L 581 3500 
L 1159 3500 
L 1159 2956 
Q 1366 3272 1645 3428 
Q 1925 3584 2291 3584 
Q 2894 3584 3203 3211 
Q 3513 2838 3513 2113 
z
" transform="scale(0.015625)"/>
       <path id="DejaVuSans-74" d="M 1172 4494 
L 1172 3500 
L 2356 3500 
L 2356 3053 
L 1172 3053 
L 1172 1153 
Q 1172 725 1289 603 
Q 1406 481 1766 481 
L 2356 481 
L 2356 0 
L 1766 0 
Q 1100 0 847 248 
Q 594 497 594 1153 
L 594 3053 
L 172 3053 
L 172 3500 
L 594 3500 
L 594 4494 
L 1172 4494 
z
" transform="scale(0.015625)"/>
       <path id="DejaVuSans-47" d="M 3809 666 
L 3809 1919 
L 2778 1919 
L 2778 2438 
L 4434 2438 
L 4434 434 
Q 4069 175 3628 42 
Q 3188 -91 2688 -91 
Q 1594 -91 976 548 
Q 359 1188 359 2328 
Q 359 3472 976 4111 
Q 1594 4750 2688 4750 
Q 3144 4750 3555 4637 
Q 3966 4525 4313 4306 
L 4313 3634 
Q 3963 3931 3569 4081 
Q 3175 4231 2741 4231 
Q 1884 4231 1454 3753 
Q 1025 3275 1025 2328 
Q 1025 1384 1454 906 
Q 1884 428 2741 428 
Q 3075 428 3337 486 
Q 3600 544 3809 666 
z
" transform="scale(0.015625)"/>
       <path id="DejaVuSans-70" d="M 1159 525 
L 1159 -1331 
L 581 -1331 
L 581 3500 
L 1159 3500 
L 1159 2969 
Q 1341 3281 1617 3432 
Q 1894 3584 2278 3584 
Q 2916 3584 3314 3078 
Q 3713 2572 3713 1747 
Q 3713 922 3314 415 
Q 2916 -91 2278 -91 
Q 1894 -91 1617 61 
Q 1341 213 1159 525 
z
M 3116 1747 
Q 3116 2381 2855 2742 
Q 2594 3103 2138 3103 
Q 1681 3103 1420 2742 
Q 1159 2381 1159 1747 
Q 1159 1113 1420 752 
Q 1681 391 2138 391 
Q 2594 391 2855 752 
Q 3116 1113 3116 1747 
z
" transform="scale(0.015625)"/>
      </defs>
      <use xlink:href="#DejaVuSans-50"/>
      <use xlink:href="#DejaVuSans-65" x="56.677734"/>
      <use xlink:href="#DejaVuSans-72" x="118.201172"/>
      <use xlink:href="#DejaVuSans-63" x="157.064453"/>
      <use xlink:href="#DejaVuSans-65" x="212.044922"/>
      <use xlink:href="#DejaVuSans-6e" x="273.568359"/>
      <use xlink:href="#DejaVuSans-74" x="336.947266"/>
      <use xlink:href="#DejaVuSans-47" x="376.15625"/>
      <use xlink:href="#DejaVuSans-70" x="453.646484"/>
      <use xlink:href="#DejaVuSans-41" x="517.123047"/>
     </g>
    </g>
   </g>
   <g id="patch_3">
    <path d="M 83.750865 223.05623 
L 159.47326 223.05623 
L 159.47326 193.934818 
L 83.750865 193.934818 
L 83.750865 223.05623 
z
" clip-path="url(#pedf178abfb)" style="fill: #ecf2ec; stroke: #262626; stroke-width: 1.5; stroke-linejoin: miter"/>
   </g>
   <g id="patch_4">
    <path d="M 161.018615 197.168779 
L 236.74101 197.168779 
L 236.74101 150.847993 
L 161.018615 150.847993 
L 161.018615 197.168779 
z
" clip-path="url(#pedf178abfb)" style="fill: #107010; stroke: #262626; stroke-width: 1.5; stroke-linejoin: miter"/>
   </g>
   <g id="patch_5">
    <path d="M 276.92024 180.174353 
L 352.642635 180.174353 
L 352.642635 124.032051 
L 276.92024 124.032051 
L 276.92024 180.174353 
z
" clip-path="url(#pedf178abfb)" style="fill: #ecf2ec; stroke: #262626; stroke-width: 1.5; stroke-linejoin: miter"/>
   </g>
   <g id="patch_6">
    <path d="M 354.18799 202.383096 
L 429.910385 202.383096 
L 429.910385 163.050703 
L 354.18799 163.050703 
L 354.18799 202.383096 
z
" clip-path="url(#pedf178abfb)" style="fill: #107010; stroke: #262626; stroke-width: 1.5; stroke-linejoin: miter"/>
   </g>
   <g id="patch_7">
    <path d="M 160.245938 303.64 
L 160.245938 303.64 
L 160.245938 303.64 
L 160.245938 303.64 
z
" clip-path="url(#pedf178abfb)" style="fill: #ecf2ec; stroke: #262626; stroke-width: 0.75; stroke-linejoin: miter"/>
   </g>
   <g id="patch_8">
    <path d="M 160.245938 303.64 
L 160.245938 303.64 
L 160.245938 303.64 
L 160.245938 303.64 
z
" clip-path="url(#pedf178abfb)" style="fill: #107010; stroke: #262626; stroke-width: 0.75; stroke-linejoin: miter"/>
   </g>
   <g id="PathCollection_1"/>
   <g id="PathCollection_2"/>
   <g id="line2d_9">
    <path d="M 121.612063 223.05623 
L 121.612063 251.021061 
" clip-path="url(#pedf178abfb)" style="fill: none; stroke: #262626; stroke-width: 1.5; stroke-linecap: round"/>
   </g>
   <g id="line2d_10">
    <path d="M 121.612063 193.934818 
L 121.612063 162.442755 
" clip-path="url(#pedf178abfb)" style="fill: none; stroke: #262626; stroke-width: 1.5; stroke-linecap: round"/>
   </g>
   <g id="line2d_11">
    <path d="M 102.681464 251.021061 
L 140.542661 251.021061 
" clip-path="url(#pedf178abfb)" style="fill: none; stroke: #262626; stroke-width: 1.5; stroke-linecap: round"/>
   </g>
   <g id="line2d_12">
    <path d="M 102.681464 162.442755 
L 140.542661 162.442755 
" clip-path="url(#pedf178abfb)" style="fill: none; stroke: #262626; stroke-width: 1.5; stroke-linecap: round"/>
   </g>
   <g id="line2d_13">
    <defs>
     <path id="mb86311b358" d="M -0 1.414214 
L 0.848528 0 
L 0 -1.414214 
L -0.848528 -0 
z
" style="stroke: #262626; stroke-linejoin: miter"/>
    </defs>
    <g clip-path="url(#pedf178abfb)">
     <use xlink:href="#mb86311b358" x="121.612063" y="130.862844" style="fill: #262626; stroke: #262626; stroke-linejoin: miter"/>
     <use xlink:href="#mb86311b358" x="121.612063" y="128.16941" style="fill: #262626; stroke: #262626; stroke-linejoin: miter"/>
     <use xlink:href="#mb86311b358" x="121.612063" y="125.775339" style="fill: #262626; stroke: #262626; stroke-linejoin: miter"/>
    </g>
   </g>
   <g id="line2d_14">
    <path d="M 198.879813 197.168779 
L 198.879813 246.864663 
" clip-path="url(#pedf178abfb)" style="fill: none; stroke: #262626; stroke-width: 1.5; stroke-linecap: round"/>
   </g>
   <g id="line2d_15">
    <path d="M 198.879813 150.847993 
L 198.879813 112.962173 
" clip-path="url(#pedf178abfb)" style="fill: none; stroke: #262626; stroke-width: 1.5; stroke-linecap: round"/>
   </g>
   <g id="line2d_16">
    <path d="M 179.949214 246.864663 
L 217.810411 246.864663 
" clip-path="url(#pedf178abfb)" style="fill: none; stroke: #262626; stroke-width: 1.5; stroke-linecap: round"/>
   </g>
   <g id="line2d_17">
    <path d="M 179.949214 112.962173 
L 217.810411 112.962173 
" clip-path="url(#pedf178abfb)" style="fill: none; stroke: #262626; stroke-width: 1.5; stroke-linecap: round"/>
   </g>
   <g id="line2d_18"/>
   <g id="line2d_19">
    <path d="M 314.781438 180.174353 
L 314.781438 252.238495 
" clip-path="url(#pedf178abfb)" style="fill: none; stroke: #262626; stroke-width: 1.5; stroke-linecap: round"/>
   </g>
   <g id="line2d_20">
    <path d="M 314.781438 124.032051 
L 314.781438 73.03778 
" clip-path="url(#pedf178abfb)" style="fill: none; stroke: #262626; stroke-width: 1.5; stroke-linecap: round"/>
   </g>
   <g id="line2d_21">
    <path d="M 295.850839 252.238495 
L 333.712036 252.238495 
" clip-path="url(#pedf178abfb)" style="fill: none; stroke: #262626; stroke-width: 1.5; stroke-linecap: round"/>
   </g>
   <g id="line2d_22">
    <path d="M 295.850839 73.03778 
L 333.712036 73.03778 
" clip-path="url(#pedf178abfb)" style="fill: none; stroke: #262626; stroke-width: 1.5; stroke-linecap: round"/>
   </g>
   <g id="line2d_23">
    <g clip-path="url(#pedf178abfb)">
     <use xlink:href="#mb86311b358" x="314.781438" y="37.421818" style="fill: #262626; stroke: #262626; stroke-linejoin: miter"/>
    </g>
   </g>
   <g id="line2d_24">
    <path d="M 392.049188 202.383096 
L 392.049188 240.181849 
" clip-path="url(#pedf178abfb)" style="fill: none; stroke: #262626; stroke-width: 1.5; stroke-linecap: round"/>
   </g>
   <g id="line2d_25">
    <path d="M 392.049188 163.050703 
L 392.049188 144.233572 
" clip-path="url(#pedf178abfb)" style="fill: none; stroke: #262626; stroke-width: 1.5; stroke-linecap: round"/>
   </g>
   <g id="line2d_26">
    <path d="M 373.118589 240.181849 
L 410.979786 240.181849 
" clip-path="url(#pedf178abfb)" style="fill: none; stroke: #262626; stroke-width: 1.5; stroke-linecap: round"/>
   </g>
   <g id="line2d_27">
    <path d="M 373.118589 144.233572 
L 410.979786 144.233572 
" clip-path="url(#pedf178abfb)" style="fill: none; stroke: #262626; stroke-width: 1.5; stroke-linecap: round"/>
   </g>
   <g id="line2d_28"/>
   <g id="line2d_29">
    <path d="M 83.750865 203.113655 
L 159.47326 203.113655 
" clip-path="url(#pedf178abfb)" style="fill: none; stroke: #262626; stroke-width: 1.5; stroke-linecap: round"/>
   </g>
   <g id="line2d_30">
    <path d="M 161.018615 174.226222 
L 236.74101 174.226222 
" clip-path="url(#pedf178abfb)" style="fill: none; stroke: #262626; stroke-width: 1.5; stroke-linecap: round"/>
   </g>
   <g id="line2d_31">
    <path d="M 276.92024 161.650811 
L 352.642635 161.650811 
" clip-path="url(#pedf178abfb)" style="fill: none; stroke: #262626; stroke-width: 1.5; stroke-linecap: round"/>
   </g>
   <g id="line2d_32">
    <path d="M 354.18799 177.076509 
L 429.910385 177.076509 
" clip-path="url(#pedf178abfb)" style="fill: none; stroke: #262626; stroke-width: 1.5; stroke-linecap: round"/>
   </g>
   <g id="patch_9">
    <path d="M 63.66125 303.64 
L 63.66125 10.8 
" style="fill: none; stroke: #cccccc; stroke-width: 0.8; stroke-linejoin: miter; stroke-linecap: square"/>
   </g>
   <g id="patch_10">
    <path d="M 450 303.64 
L 450 10.8 
" style="fill: none; stroke: #cccccc; stroke-width: 0.8; stroke-linejoin: miter; stroke-linecap: square"/>
   </g>
   <g id="patch_11">
    <path d="M 63.66125 303.64 
L 450 303.64 
" style="fill: none; stroke: #cccccc; stroke-width: 0.8; stroke-linejoin: miter; stroke-linecap: square"/>
   </g>
   <g id="patch_12">
    <path d="M 63.66125 10.8 
L 450 10.8 
" style="fill: none; stroke: #cccccc; stroke-width: 0.8; stroke-linejoin: miter; stroke-linecap: square"/>
   </g>
   <g id="PathCollection_3">
    <defs>
     <path id="C0_0_2c6318e869" d="M 0 1 
C 0.265203 1 0.51958 0.894634 0.707107 0.707107 
C 0.894634 0.51958 1 0.265203 1 -0 
C 1 -0.265203 0.894634 -0.51958 0.707107 -0.707107 
C 0.51958 -0.894634 0.265203 -1 0 -1 
C -0.265203 -1 -0.51958 -0.894634 -0.707107 -0.707107 
C -0.894634 -0.51958 -1 -0.265203 -1 0 
C -1 0.265203 -0.894634 0.51958 -0.707107 0.707107 
C -0.51958 0.894634 -0.265203 1 0 1 
z
"/>
    </defs>
    <g clip-path="url(#pedf178abfb)">
     <use xlink:href="#C0_0_2c6318e869" x="117.804209" y="198.714755" style="fill: #262626"/>
    </g>
    <g clip-path="url(#pedf178abfb)">
     <use xlink:href="#C0_0_2c6318e869" x="112.707908" y="206.095173" style="fill: #262626"/>
    </g>
    <g clip-path="url(#pedf178abfb)">
     <use xlink:href="#C0_0_2c6318e869" x="112.183185" y="193.934818" style="fill: #262626"/>
    </g>
    <g clip-path="url(#pedf178abfb)">
     <use xlink:href="#C0_0_2c6318e869" x="124.524271" y="214.670385" style="fill: #262626"/>
    </g>
    <g clip-path="url(#pedf178abfb)">
     <use xlink:href="#C0_0_2c6318e869" x="130.396324" y="199.830166" style="fill: #262626"/>
    </g>
    <g clip-path="url(#pedf178abfb)">
     <use xlink:href="#C0_0_2c6318e869" x="112.884291" y="199.082666" style="fill: #262626"/>
    </g>
    <g clip-path="url(#pedf178abfb)">
     <use xlink:href="#C0_0_2c6318e869" x="125.455858" y="229.834947" style="fill: #262626"/>
    </g>
    <g clip-path="url(#pedf178abfb)">
     <use xlink:href="#C0_0_2c6318e869" x="123.10696" y="240.762594" style="fill: #262626"/>
    </g>
    <g clip-path="url(#pedf178abfb)">
     <use xlink:href="#C0_0_2c6318e869" x="122.594273" y="238.84004" style="fill: #262626"/>
    </g>
    <g clip-path="url(#pedf178abfb)">
     <use xlink:href="#C0_0_2c6318e869" x="127.614856" y="166.651347" style="fill: #262626"/>
    </g>
    <g clip-path="url(#pedf178abfb)">
     <use xlink:href="#C0_0_2c6318e869" x="126.919718" y="221.102815" style="fill: #262626"/>
    </g>
    <g clip-path="url(#pedf178abfb)">
     <use xlink:href="#C0_0_2c6318e869" x="117.302054" y="239.084872" style="fill: #262626"/>
    </g>
    <g clip-path="url(#pedf178abfb)">
     <use xlink:href="#C0_0_2c6318e869" x="114.879065" y="214.735206" style="fill: #262626"/>
    </g>
    <g clip-path="url(#pedf178abfb)">
     <use xlink:href="#C0_0_2c6318e869" x="115.881701" y="202.873385" style="fill: #262626"/>
    </g>
    <g clip-path="url(#pedf178abfb)">
     <use xlink:href="#C0_0_2c6318e869" x="127.675063" y="203.113655" style="fill: #262626"/>
    </g>
    <g clip-path="url(#pedf178abfb)">
     <use xlink:href="#C0_0_2c6318e869" x="121.852967" y="190.173464" style="fill: #262626"/>
    </g>
    <g clip-path="url(#pedf178abfb)">
     <use xlink:href="#C0_0_2c6318e869" x="114.084389" y="195.238718" style="fill: #262626"/>
    </g>
    <g clip-path="url(#pedf178abfb)">
     <use xlink:href="#C0_0_2c6318e869" x="121.531047" y="231.907203" style="fill: #262626"/>
    </g>
    <g clip-path="url(#pedf178abfb)">
     <use xlink:href="#C0_0_2c6318e869" x="128.828957" y="130.862844" style="fill: #262626"/>
    </g>
    <g clip-path="url(#pedf178abfb)">
     <use xlink:href="#C0_0_2c6318e869" x="117.325063" y="200.501941" style="fill: #262626"/>
    </g>
    <g clip-path="url(#pedf178abfb)">
     <use xlink:href="#C0_0_2c6318e869" x="126.266872" y="164.180209" style="fill: #262626"/>
    </g>
    <g clip-path="url(#pedf178abfb)">
     <use xlink:href="#C0_0_2c6318e869" x="130.594706" y="197.388448" style="fill: #262626"/>
    </g>
    <g clip-path="url(#pedf178abfb)">
     <use xlink:href="#C0_0_2c6318e869" x="116.521134" y="223.05623" style="fill: #262626"/>
    </g>
    <g clip-path="url(#pedf178abfb)">
     <use xlink:href="#C0_0_2c6318e869" x="130.742125" y="128.16941" style="fill: #262626"/>
    </g>
    <g clip-path="url(#pedf178abfb)">
     <use xlink:href="#C0_0_2c6318e869" x="115.256201" y="218.128426" style="fill: #262626"/>
    </g>
    <g clip-path="url(#pedf178abfb)">
     <use xlink:href="#C0_0_2c6318e869" x="126.1266" y="245.236295" style="fill: #262626"/>
    </g>
    <g clip-path="url(#pedf178abfb)">
     <use xlink:href="#C0_0_2c6318e869" x="115.816639" y="199.152577" style="fill: #262626"/>
    </g>
    <g clip-path="url(#pedf178abfb)">
     <use xlink:href="#C0_0_2c6318e869" x="127.351546" y="199.91479" style="fill: #262626"/>
    </g>
    <g clip-path="url(#pedf178abfb)">
     <use xlink:href="#C0_0_2c6318e869" x="116.959117" y="205.046804" style="fill: #262626"/>
    </g>
    <g clip-path="url(#pedf178abfb)">
     <use xlink:href="#C0_0_2c6318e869" x="112.034046" y="191.390425" style="fill: #262626"/>
    </g>
    <g clip-path="url(#pedf178abfb)">
     <use xlink:href="#C0_0_2c6318e869" x="120.542452" y="249.566464" style="fill: #262626"/>
    </g>
    <g clip-path="url(#pedf178abfb)">
     <use xlink:href="#C0_0_2c6318e869" x="128.488714" y="208.545925" style="fill: #262626"/>
    </g>
    <g clip-path="url(#pedf178abfb)">
     <use xlink:href="#C0_0_2c6318e869" x="130.003375" y="211.81787" style="fill: #262626"/>
    </g>
    <g clip-path="url(#pedf178abfb)">
     <use xlink:href="#C0_0_2c6318e869" x="126.869933" y="174.21777" style="fill: #262626"/>
    </g>
    <g clip-path="url(#pedf178abfb)">
     <use xlink:href="#C0_0_2c6318e869" x="127.41002" y="175.835473" style="fill: #262626"/>
    </g>
    <g clip-path="url(#pedf178abfb)">
     <use xlink:href="#C0_0_2c6318e869" x="120.798542" y="125.775339" style="fill: #262626"/>
    </g>
    <g clip-path="url(#pedf178abfb)">
     <use xlink:href="#C0_0_2c6318e869" x="122.598784" y="223.975641" style="fill: #262626"/>
    </g>
    <g clip-path="url(#pedf178abfb)">
     <use xlink:href="#C0_0_2c6318e869" x="127.89811" y="210.936728" style="fill: #262626"/>
    </g>
    <g clip-path="url(#pedf178abfb)">
     <use xlink:href="#C0_0_2c6318e869" x="126.180231" y="232.927885" style="fill: #262626"/>
    </g>
    <g clip-path="url(#pedf178abfb)">
     <use xlink:href="#C0_0_2c6318e869" x="123.238624" y="228.043017" style="fill: #262626"/>
    </g>
    <g clip-path="url(#pedf178abfb)">
     <use xlink:href="#C0_0_2c6318e869" x="129.540148" y="251.021061" style="fill: #262626"/>
    </g>
    <g clip-path="url(#pedf178abfb)">
     <use xlink:href="#C0_0_2c6318e869" x="130.84014" y="162.442755" style="fill: #262626"/>
    </g>
    <g clip-path="url(#pedf178abfb)">
     <use xlink:href="#C0_0_2c6318e869" x="117.256043" y="186.823057" style="fill: #262626"/>
    </g>
    <g clip-path="url(#pedf178abfb)">
     <use xlink:href="#C0_0_2c6318e869" x="127.441557" y="198.948915" style="fill: #262626"/>
    </g>
    <g clip-path="url(#pedf178abfb)">
     <use xlink:href="#C0_0_2c6318e869" x="112.36487" y="222.808835" style="fill: #262626"/>
    </g>
   </g>
   <g id="PathCollection_4">
    <defs>
     <path id="C1_0_7528c04bc7" d="M 0 1 
C 0.265203 1 0.51958 0.894634 0.707107 0.707107 
C 0.894634 0.51958 1 0.265203 1 -0 
C 1 -0.265203 0.894634 -0.51958 0.707107 -0.707107 
C 0.51958 -0.894634 0.265203 -1 0 -1 
C -0.265203 -1 -0.51958 -0.894634 -0.707107 -0.707107 
C -0.894634 -0.51958 -1 -0.265203 -1 0 
C -1 0.265203 -0.894634 0.51958 -0.707107 0.707107 
C -0.51958 0.894634 -0.265203 1 0 1 
z
"/>
    </defs>
    <g clip-path="url(#pedf178abfb)">
     <use xlink:href="#C1_0_7528c04bc7" x="207.249451" y="169.289273"/>
    </g>
    <g clip-path="url(#pedf178abfb)">
     <use xlink:href="#C1_0_7528c04bc7" x="200.303518" y="198.035107"/>
    </g>
    <g clip-path="url(#pedf178abfb)">
     <use xlink:href="#C1_0_7528c04bc7" x="201.368643" y="112.962173"/>
    </g>
    <g clip-path="url(#pedf178abfb)">
     <use xlink:href="#C1_0_7528c04bc7" x="203.276618" y="246.864663"/>
    </g>
    <g clip-path="url(#pedf178abfb)">
     <use xlink:href="#C1_0_7528c04bc7" x="202.46595" y="140.135948"/>
    </g>
    <g clip-path="url(#pedf178abfb)">
     <use xlink:href="#C1_0_7528c04bc7" x="189.858612" y="191.868583"/>
    </g>
    <g clip-path="url(#pedf178abfb)">
     <use xlink:href="#C1_0_7528c04bc7" x="191.382837" y="137.717132"/>
    </g>
    <g clip-path="url(#pedf178abfb)">
     <use xlink:href="#C1_0_7528c04bc7" x="203.001568" y="174.226222"/>
    </g>
    <g clip-path="url(#pedf178abfb)">
     <use xlink:href="#C1_0_7528c04bc7" x="201.749564" y="196.387783"/>
    </g>
    <g clip-path="url(#pedf178abfb)">
     <use xlink:href="#C1_0_7528c04bc7" x="200.355345" y="197.949775"/>
    </g>
    <g clip-path="url(#pedf178abfb)">
     <use xlink:href="#C1_0_7528c04bc7" x="196.666601" y="161.560038"/>
    </g>
   </g>
   <g id="PathCollection_5">
    <defs>
     <path id="C2_0_586ad0a5bd" d="M 0 1 
C 0.265203 1 0.51958 0.894634 0.707107 0.707107 
C 0.894634 0.51958 1 0.265203 1 -0 
C 1 -0.265203 0.894634 -0.51958 0.707107 -0.707107 
C 0.51958 -0.894634 0.265203 -1 0 -1 
C -0.265203 -1 -0.51958 -0.894634 -0.707107 -0.707107 
C -0.894634 -0.51958 -1 -0.265203 -1 0 
C -1 0.265203 -0.894634 0.51958 -0.707107 0.707107 
C -0.51958 0.894634 -0.265203 1 0 1 
z
"/>
    </defs>
    <g clip-path="url(#pedf178abfb)">
     <use xlink:href="#C2_0_586ad0a5bd" x="323.15986" y="158.357682" style="fill: #262626"/>
    </g>
    <g clip-path="url(#pedf178abfb)">
     <use xlink:href="#C2_0_586ad0a5bd" x="316.007075" y="133.787731" style="fill: #262626"/>
    </g>
    <g clip-path="url(#pedf178abfb)">
     <use xlink:href="#C2_0_586ad0a5bd" x="312.249706" y="226.710189" style="fill: #262626"/>
    </g>
    <g clip-path="url(#pedf178abfb)">
     <use xlink:href="#C2_0_586ad0a5bd" x="313.772424" y="211.701441" style="fill: #262626"/>
    </g>
    <g clip-path="url(#pedf178abfb)">
     <use xlink:href="#C2_0_586ad0a5bd" x="316.440201" y="163.484296" style="fill: #262626"/>
    </g>
    <g clip-path="url(#pedf178abfb)">
     <use xlink:href="#C2_0_586ad0a5bd" x="317.800651" y="177.201609" style="fill: #262626"/>
    </g>
    <g clip-path="url(#pedf178abfb)">
     <use xlink:href="#C2_0_586ad0a5bd" x="316.87376" y="142.852061" style="fill: #262626"/>
    </g>
    <g clip-path="url(#pedf178abfb)">
     <use xlink:href="#C2_0_586ad0a5bd" x="323.241525" y="161.650811" style="fill: #262626"/>
    </g>
    <g clip-path="url(#pedf178abfb)">
     <use xlink:href="#C2_0_586ad0a5bd" x="320.130242" y="179.515243" style="fill: #262626"/>
    </g>
    <g clip-path="url(#pedf178abfb)">
     <use xlink:href="#C2_0_586ad0a5bd" x="309.834433" y="37.421818" style="fill: #262626"/>
    </g>
    <g clip-path="url(#pedf178abfb)">
     <use xlink:href="#C2_0_586ad0a5bd" x="315.404099" y="193.991261" style="fill: #262626"/>
    </g>
    <g clip-path="url(#pedf178abfb)">
     <use xlink:href="#C2_0_586ad0a5bd" x="320.405666" y="153.909782" style="fill: #262626"/>
    </g>
    <g clip-path="url(#pedf178abfb)">
     <use xlink:href="#C2_0_586ad0a5bd" x="317.345248" y="147.054163" style="fill: #262626"/>
    </g>
    <g clip-path="url(#pedf178abfb)">
     <use xlink:href="#C2_0_586ad0a5bd" x="305.570467" y="73.03778" style="fill: #262626"/>
    </g>
    <g clip-path="url(#pedf178abfb)">
     <use xlink:href="#C2_0_586ad0a5bd" x="312.363133" y="111.888553" style="fill: #262626"/>
    </g>
    <g clip-path="url(#pedf178abfb)">
     <use xlink:href="#C2_0_586ad0a5bd" x="311.417574" y="185.549697" style="fill: #262626"/>
    </g>
    <g clip-path="url(#pedf178abfb)">
     <use xlink:href="#C2_0_586ad0a5bd" x="320.899452" y="153.596222" style="fill: #262626"/>
    </g>
    <g clip-path="url(#pedf178abfb)">
     <use xlink:href="#C2_0_586ad0a5bd" x="308.95092" y="252.238495" style="fill: #262626"/>
    </g>
    <g clip-path="url(#pedf178abfb)">
     <use xlink:href="#C2_0_586ad0a5bd" x="310.071974" y="162.460122" style="fill: #262626"/>
    </g>
    <g clip-path="url(#pedf178abfb)">
     <use xlink:href="#C2_0_586ad0a5bd" x="310.645916" y="180.755203" style="fill: #262626"/>
    </g>
    <g clip-path="url(#pedf178abfb)">
     <use xlink:href="#C2_0_586ad0a5bd" x="313.026438" y="146.793247" style="fill: #262626"/>
    </g>
    <g clip-path="url(#pedf178abfb)">
     <use xlink:href="#C2_0_586ad0a5bd" x="317.980385" y="119.088876" style="fill: #262626"/>
    </g>
    <g clip-path="url(#pedf178abfb)">
     <use xlink:href="#C2_0_586ad0a5bd" x="320.383786" y="85.251989" style="fill: #262626"/>
    </g>
    <g clip-path="url(#pedf178abfb)">
     <use xlink:href="#C2_0_586ad0a5bd" x="320.359704" y="125.422363" style="fill: #262626"/>
    </g>
    <g clip-path="url(#pedf178abfb)">
     <use xlink:href="#C2_0_586ad0a5bd" x="308.608402" y="220.960519" style="fill: #262626"/>
    </g>
    <g clip-path="url(#pedf178abfb)">
     <use xlink:href="#C2_0_586ad0a5bd" x="317.146131" y="184.831522" style="fill: #262626"/>
    </g>
    <g clip-path="url(#pedf178abfb)">
     <use xlink:href="#C2_0_586ad0a5bd" x="312.938114" y="94.382659" style="fill: #262626"/>
    </g>
    <g clip-path="url(#pedf178abfb)">
     <use xlink:href="#C2_0_586ad0a5bd" x="305.490486" y="96.295147" style="fill: #262626"/>
    </g>
    <g clip-path="url(#pedf178abfb)">
     <use xlink:href="#C2_0_586ad0a5bd" x="322.53095" y="162.12627" style="fill: #262626"/>
    </g>
    <g clip-path="url(#pedf178abfb)">
     <use xlink:href="#C2_0_586ad0a5bd" x="318.01445" y="173.542513" style="fill: #262626"/>
    </g>
    <g clip-path="url(#pedf178abfb)">
     <use xlink:href="#C2_0_586ad0a5bd" x="312.997551" y="182.174272" style="fill: #262626"/>
    </g>
    <g clip-path="url(#pedf178abfb)">
     <use xlink:href="#C2_0_586ad0a5bd" x="311.685605" y="175.652344" style="fill: #262626"/>
    </g>
    <g clip-path="url(#pedf178abfb)">
     <use xlink:href="#C2_0_586ad0a5bd" x="308.810198" y="194.327166" style="fill: #262626"/>
    </g>
    <g clip-path="url(#pedf178abfb)">
     <use xlink:href="#C2_0_586ad0a5bd" x="310.643524" y="122.50147" style="fill: #262626"/>
    </g>
    <g clip-path="url(#pedf178abfb)">
     <use xlink:href="#C2_0_586ad0a5bd" x="319.51841" y="179.593503" style="fill: #262626"/>
    </g>
    <g clip-path="url(#pedf178abfb)">
     <use xlink:href="#C2_0_586ad0a5bd" x="311.3199" y="181.990185" style="fill: #262626"/>
    </g>
    <g clip-path="url(#pedf178abfb)">
     <use xlink:href="#C2_0_586ad0a5bd" x="314.551624" y="197.991101" style="fill: #262626"/>
    </g>
    <g clip-path="url(#pedf178abfb)">
     <use xlink:href="#C2_0_586ad0a5bd" x="317.567288" y="140.822363" style="fill: #262626"/>
    </g>
    <g clip-path="url(#pedf178abfb)">
     <use xlink:href="#C2_0_586ad0a5bd" x="323.998384" y="164.107164" style="fill: #262626"/>
    </g>
    <g clip-path="url(#pedf178abfb)">
     <use xlink:href="#C2_0_586ad0a5bd" x="308.838626" y="171.097267" style="fill: #262626"/>
    </g>
    <g clip-path="url(#pedf178abfb)">
     <use xlink:href="#C2_0_586ad0a5bd" x="313.872531" y="117.467417" style="fill: #262626"/>
    </g>
    <g clip-path="url(#pedf178abfb)">
     <use xlink:href="#C2_0_586ad0a5bd" x="322.6789" y="138.377115" style="fill: #262626"/>
    </g>
    <g clip-path="url(#pedf178abfb)">
     <use xlink:href="#C2_0_586ad0a5bd" x="314.025309" y="178.534559" style="fill: #262626"/>
    </g>
    <g clip-path="url(#pedf178abfb)">
     <use xlink:href="#C2_0_586ad0a5bd" x="313.832707" y="122.641739" style="fill: #262626"/>
    </g>
    <g clip-path="url(#pedf178abfb)">
     <use xlink:href="#C2_0_586ad0a5bd" x="312.877816" y="136.276691" style="fill: #262626"/>
    </g>
    <g clip-path="url(#pedf178abfb)">
     <use xlink:href="#C2_0_586ad0a5bd" x="318.665295" y="121.494755" style="fill: #262626"/>
    </g>
    <g clip-path="url(#pedf178abfb)">
     <use xlink:href="#C2_0_586ad0a5bd" x="322.526229" y="80.019928" style="fill: #262626"/>
    </g>
   </g>
   <g id="PathCollection_6">
    <defs>
     <path id="C3_0_e76b1c2bc1" d="M 0 1 
C 0.265203 1 0.51958 0.894634 0.707107 0.707107 
C 0.894634 0.51958 1 0.265203 1 -0 
C 1 -0.265203 0.894634 -0.51958 0.707107 -0.707107 
C 0.51958 -0.894634 0.265203 -1 0 -1 
C -0.265203 -1 -0.51958 -0.894634 -0.707107 -0.707107 
C -0.894634 -0.51958 -1 -0.265203 -1 0 
C -1 0.265203 -0.894634 0.51958 -0.707107 0.707107 
C -0.51958 0.894634 -0.265203 1 0 1 
z
"/>
    </defs>
    <g clip-path="url(#pedf178abfb)">
     <use xlink:href="#C3_0_e76b1c2bc1" x="388.21553" y="167.575529"/>
    </g>
    <g clip-path="url(#pedf178abfb)">
     <use xlink:href="#C3_0_e76b1c2bc1" x="396.965371" y="145.477553"/>
    </g>
    <g clip-path="url(#pedf178abfb)">
     <use xlink:href="#C3_0_e76b1c2bc1" x="388.26752" y="163.050703"/>
    </g>
    <g clip-path="url(#pedf178abfb)">
     <use xlink:href="#C3_0_e76b1c2bc1" x="384.960429" y="179.391288"/>
    </g>
    <g clip-path="url(#pedf178abfb)">
     <use xlink:href="#C3_0_e76b1c2bc1" x="385.102391" y="177.076509"/>
    </g>
    <g clip-path="url(#pedf178abfb)">
     <use xlink:href="#C3_0_e76b1c2bc1" x="391.657137" y="144.233572"/>
    </g>
    <g clip-path="url(#pedf178abfb)">
     <use xlink:href="#C3_0_e76b1c2bc1" x="391.103112" y="202.383096"/>
    </g>
    <g clip-path="url(#pedf178abfb)">
     <use xlink:href="#C3_0_e76b1c2bc1" x="384.613848" y="168.805427"/>
    </g>
    <g clip-path="url(#pedf178abfb)">
     <use xlink:href="#C3_0_e76b1c2bc1" x="394.133918" y="181.029391"/>
    </g>
    <g clip-path="url(#pedf178abfb)">
     <use xlink:href="#C3_0_e76b1c2bc1" x="393.25246" y="223.224812"/>
    </g>
    <g clip-path="url(#pedf178abfb)">
     <use xlink:href="#C3_0_e76b1c2bc1" x="397.299424" y="148.916708"/>
    </g>
    <g clip-path="url(#pedf178abfb)">
     <use xlink:href="#C3_0_e76b1c2bc1" x="396.722378" y="215.728054"/>
    </g>
    <g clip-path="url(#pedf178abfb)">
     <use xlink:href="#C3_0_e76b1c2bc1" x="399.927713" y="240.181849"/>
    </g>
   </g>
   <g id="text_13">
    <!-- 45 -->
    <g style="fill: #262626" transform="translate(131.270531 -334.265726) scale(0.1 -0.1)">
     <use xlink:href="#DejaVuSans-34"/>
     <use xlink:href="#DejaVuSans-35" x="63.623047"/>
    </g>
   </g>
   <g id="text_14">
    <!-- p=0.009680340044143119 -->
    <g style="fill: #262626" transform="translate(75.753031 106.444863) scale(0.08 -0.08)">
     <defs>
      <path id="DejaVuSans-3d" d="M 678 2906 
L 4684 2906 
L 4684 2381 
L 678 2381 
L 678 2906 
z
M 678 1631 
L 4684 1631 
L 4684 1100 
L 678 1100 
L 678 1631 
z
" transform="scale(0.015625)"/>
      <path id="DejaVuSans-39" d="M 703 97 
L 703 672 
Q 941 559 1184 500 
Q 1428 441 1663 441 
Q 2288 441 2617 861 
Q 2947 1281 2994 2138 
Q 2813 1869 2534 1725 
Q 2256 1581 1919 1581 
Q 1219 1581 811 2004 
Q 403 2428 403 3163 
Q 403 3881 828 4315 
Q 1253 4750 1959 4750 
Q 2769 4750 3195 4129 
Q 3622 3509 3622 2328 
Q 3622 1225 3098 567 
Q 2575 -91 1691 -91 
Q 1453 -91 1209 -44 
Q 966 3 703 97 
z
M 1959 2075 
Q 2384 2075 2632 2365 
Q 2881 2656 2881 3163 
Q 2881 3666 2632 3958 
Q 2384 4250 1959 4250 
Q 1534 4250 1286 3958 
Q 1038 3666 1038 3163 
Q 1038 2656 1286 2365 
Q 1534 2075 1959 2075 
z
" transform="scale(0.015625)"/>
      <path id="DejaVuSans-38" d="M 2034 2216 
Q 1584 2216 1326 1975 
Q 1069 1734 1069 1313 
Q 1069 891 1326 650 
Q 1584 409 2034 409 
Q 2484 409 2743 651 
Q 3003 894 3003 1313 
Q 3003 1734 2745 1975 
Q 2488 2216 2034 2216 
z
M 1403 2484 
Q 997 2584 770 2862 
Q 544 3141 544 3541 
Q 544 4100 942 4425 
Q 1341 4750 2034 4750 
Q 2731 4750 3128 4425 
Q 3525 4100 3525 3541 
Q 3525 3141 3298 2862 
Q 3072 2584 2669 2484 
Q 3125 2378 3379 2068 
Q 3634 1759 3634 1313 
Q 3634 634 3220 271 
Q 2806 -91 2034 -91 
Q 1263 -91 848 271 
Q 434 634 434 1313 
Q 434 1759 690 2068 
Q 947 2378 1403 2484 
z
M 1172 3481 
Q 1172 3119 1398 2916 
Q 1625 2713 2034 2713 
Q 2441 2713 2670 2916 
Q 2900 3119 2900 3481 
Q 2900 3844 2670 4047 
Q 2441 4250 2034 4250 
Q 1625 4250 1398 4047 
Q 1172 3844 1172 3481 
z
" transform="scale(0.015625)"/>
     </defs>
     <use xlink:href="#DejaVuSans-70"/>
     <use xlink:href="#DejaVuSans-3d" x="63.476562"/>
     <use xlink:href="#DejaVuSans-30" x="147.265625"/>
     <use xlink:href="#DejaVuSans-2e" x="210.888672"/>
     <use xlink:href="#DejaVuSans-30" x="242.675781"/>
     <use xlink:href="#DejaVuSans-30" x="306.298828"/>
     <use xlink:href="#DejaVuSans-39" x="369.921875"/>
     <use xlink:href="#DejaVuSans-36" x="433.544922"/>
     <use xlink:href="#DejaVuSans-38" x="497.167969"/>
     <use xlink:href="#DejaVuSans-30" x="560.791016"/>
     <use xlink:href="#DejaVuSans-33" x="624.414062"/>
     <use xlink:href="#DejaVuSans-34" x="688.037109"/>
     <use xlink:href="#DejaVuSans-30" x="751.660156"/>
     <use xlink:href="#DejaVuSans-30" x="815.283203"/>
     <use xlink:href="#DejaVuSans-34" x="878.90625"/>
     <use xlink:href="#DejaVuSans-34" x="942.529297"/>
     <use xlink:href="#DejaVuSans-31" x="1006.152344"/>
     <use xlink:href="#DejaVuSans-34" x="1069.775391"/>
     <use xlink:href="#DejaVuSans-33" x="1133.398438"/>
     <use xlink:href="#DejaVuSans-31" x="1197.021484"/>
     <use xlink:href="#DejaVuSans-31" x="1260.644531"/>
     <use xlink:href="#DejaVuSans-39" x="1324.267578"/>
    </g>
   </g>
   <g id="text_15">
    <!-- 11 -->
    <g style="fill: #262626" transform="translate(189.221344 -334.265726) scale(0.1 -0.1)">
     <use xlink:href="#DejaVuSans-31"/>
     <use xlink:href="#DejaVuSans-31" x="63.623047"/>
    </g>
   </g>
   <g id="text_16">
    <!-- 47 -->
    <g style="fill: #262626" transform="translate(324.439906 -334.265726) scale(0.1 -0.1)">
     <use xlink:href="#DejaVuSans-34"/>
     <use xlink:href="#DejaVuSans-37" x="63.623047"/>
    </g>
   </g>
   <g id="text_17">
    <!-- p=0.03241618160117902 -->
    <g style="fill: #262626" transform="translate(271.467406 18.091342) scale(0.08 -0.08)">
     <use xlink:href="#DejaVuSans-70"/>
     <use xlink:href="#DejaVuSans-3d" x="63.476562"/>
     <use xlink:href="#DejaVuSans-30" x="147.265625"/>
     <use xlink:href="#DejaVuSans-2e" x="210.888672"/>
     <use xlink:href="#DejaVuSans-30" x="242.675781"/>
     <use xlink:href="#DejaVuSans-33" x="306.298828"/>
     <use xlink:href="#DejaVuSans-32" x="369.921875"/>
     <use xlink:href="#DejaVuSans-34" x="433.544922"/>
     <use xlink:href="#DejaVuSans-31" x="497.167969"/>
     <use xlink:href="#DejaVuSans-36" x="560.791016"/>
     <use xlink:href="#DejaVuSans-31" x="624.414062"/>
     <use xlink:href="#DejaVuSans-38" x="688.037109"/>
     <use xlink:href="#DejaVuSans-31" x="751.660156"/>
     <use xlink:href="#DejaVuSans-36" x="815.283203"/>
     <use xlink:href="#DejaVuSans-30" x="878.90625"/>
     <use xlink:href="#DejaVuSans-31" x="942.529297"/>
     <use xlink:href="#DejaVuSans-31" x="1006.152344"/>
     <use xlink:href="#DejaVuSans-37" x="1069.775391"/>
     <use xlink:href="#DejaVuSans-39" x="1133.398438"/>
     <use xlink:href="#DejaVuSans-30" x="1197.021484"/>
     <use xlink:href="#DejaVuSans-32" x="1260.644531"/>
    </g>
   </g>
   <g id="text_18">
    <!-- 13 -->
    <g style="fill: #262626" transform="translate(382.390719 -334.265726) scale(0.1 -0.1)">
     <use xlink:href="#DejaVuSans-31"/>
     <use xlink:href="#DejaVuSans-33" x="63.623047"/>
    </g>
   </g>
   <g id="legend_1">
    <g id="patch_13">
     <path d="M 377.728125 27.398438 
L 397.728125 27.398438 
L 397.728125 20.398438 
L 377.728125 20.398438 
z
" style="fill: #ecf2ec; stroke: #262626; stroke-width: 0.75; stroke-linejoin: miter"/>
    </g>
    <g id="text_19">
     <!-- Mutant -->
     <g style="fill: #262626" transform="translate(405.728125 27.398438) scale(0.1 -0.1)">
      <defs>
       <path id="DejaVuSans-75" d="M 544 1381 
L 544 3500 
L 1119 3500 
L 1119 1403 
Q 1119 906 1312 657 
Q 1506 409 1894 409 
Q 2359 409 2629 706 
Q 2900 1003 2900 1516 
L 2900 3500 
L 3475 3500 
L 3475 0 
L 2900 0 
L 2900 538 
Q 2691 219 2414 64 
Q 2138 -91 1772 -91 
Q 1169 -91 856 284 
Q 544 659 544 1381 
z
M 1991 3584 
L 1991 3584 
z
" transform="scale(0.015625)"/>
       <path id="DejaVuSans-61" d="M 2194 1759 
Q 1497 1759 1228 1600 
Q 959 1441 959 1056 
Q 959 750 1161 570 
Q 1363 391 1709 391 
Q 2188 391 2477 730 
Q 2766 1069 2766 1631 
L 2766 1759 
L 2194 1759 
z
M 3341 1997 
L 3341 0 
L 2766 0 
L 2766 531 
Q 2569 213 2275 61 
Q 1981 -91 1556 -91 
Q 1019 -91 701 211 
Q 384 513 384 1019 
Q 384 1609 779 1909 
Q 1175 2209 1959 2209 
L 2766 2209 
L 2766 2266 
Q 2766 2663 2505 2880 
Q 2244 3097 1772 3097 
Q 1472 3097 1187 3025 
Q 903 2953 641 2809 
L 641 3341 
Q 956 3463 1253 3523 
Q 1550 3584 1831 3584 
Q 2591 3584 2966 3190 
Q 3341 2797 3341 1997 
z
" transform="scale(0.015625)"/>
      </defs>
      <use xlink:href="#DejaVuSans-4d"/>
      <use xlink:href="#DejaVuSans-75" x="86.279297"/>
      <use xlink:href="#DejaVuSans-74" x="149.658203"/>
      <use xlink:href="#DejaVuSans-61" x="188.867188"/>
      <use xlink:href="#DejaVuSans-6e" x="250.146484"/>
      <use xlink:href="#DejaVuSans-74" x="313.525391"/>
     </g>
    </g>
    <g id="patch_14">
     <path d="M 377.728125 42.076563 
L 397.728125 42.076563 
L 397.728125 35.076563 
L 377.728125 35.076563 
z
" style="fill: #107010; stroke: #262626; stroke-width: 0.75; stroke-linejoin: miter"/>
    </g>
    <g id="text_20">
     <!-- WT -->
     <g style="fill: #262626" transform="translate(405.728125 42.076563) scale(0.1 -0.1)">
      <use xlink:href="#DejaVuSans-57"/>
      <use xlink:href="#DejaVuSans-54" x="98.876953"/>
     </g>
    </g>
   </g>
  </g>
 </g>
 <defs>
  <clipPath id="pedf178abfb">
   <rect x="63.66125" y="10.8" width="386.33875" height="292.84"/>
  </clipPath>
 </defs>
</svg>
