<?xml version="1.0" encoding="utf-8" standalone="no"?>
<!DOCTYPE svg PUBLIC "-//W3C//DTD SVG 1.1//EN"
  "http://www.w3.org/Graphics/SVG/1.1/DTD/svg11.dtd">
<svg xmlns:xlink="http://www.w3.org/1999/xlink" width="460.8pt" height="345.6pt" viewBox="0 0 460.8 345.6" xmlns="http://www.w3.org/2000/svg" version="1.1">
 <metadata>
  <rdf:RDF xmlns:dc="http://purl.org/dc/elements/1.1/" xmlns:cc="http://creativecommons.org/ns#" xmlns:rdf="http://www.w3.org/1999/02/22-rdf-syntax-ns#">
   <cc:Work>
    <dc:type rdf:resource="http://purl.org/dc/dcmitype/StillImage"/>
    <dc:date>2024-05-16T13:52:12.756180</dc:date>
    <dc:format>image/svg+xml</dc:format>
    <dc:creator>
     <cc:Agent>
      <dc:title>Matplotlib v3.7.1, https://matplotlib.org/</dc:title>
     </cc:Agent>
    </dc:creator>
   </cc:Work>
  </rdf:RDF>
 </metadata>
 <defs>
  <style type="text/css">*{stroke-linejoin: round; stroke-linecap: butt}</style>
 </defs>
 <g id="figure_1">
  <g id="patch_1">
   <path d="M 0 345.6 
L 460.8 345.6 
L 460.8 0 
L 0 0 
z
" style="fill: #ffffff"/>
  </g>
  <g id="axes_1">
   <g id="patch_2">
    <path d="M 57.6 307.584 
L 414.72 307.584 
L 414.72 41.472 
L 57.6 41.472 
z
" style="fill: #ffffff"/>
   </g>
   <g id="PathCollection_1">
    <defs>
     <path id="m8215618e7e" d="M 0 3 
C 0.795609 3 1.55874 2.683901 2.12132 2.12132 
C 2.683901 1.55874 3 0.795609 3 0 
C 3 -0.795609 2.683901 -1.55874 2.12132 -2.12132 
C 1.55874 -2.683901 0.795609 -3 0 -3 
C -0.795609 -3 -1.55874 -2.683901 -2.12132 -2.12132 
C -2.683901 -1.55874 -3 -0.795609 -3 0 
C -3 0.795609 -2.683901 1.55874 -2.12132 2.12132 
C -1.55874 2.683901 -0.795609 3 0 3 
z
" style="stroke: #1f77b4"/>
    </defs>
    <g clip-path="url(#p61e8a54ce4)">
     <use xlink:href="#m8215618e7e" x="340.953556" y="66.058542" style="fill: #1f77b4; stroke: #1f77b4"/>
     <use xlink:href="#m8215618e7e" x="308.077146" y="150.234089" style="fill: #1f77b4; stroke: #1f77b4"/>
     <use xlink:href="#m8215618e7e" x="289.584166" y="112.330235" style="fill: #1f77b4; stroke: #1f77b4"/>
     <use xlink:href="#m8215618e7e" x="277.255512" y="123.127998" style="fill: #1f77b4; stroke: #1f77b4"/>
     <use xlink:href="#m8215618e7e" x="273.145961" y="91.858701" style="fill: #1f77b4; stroke: #1f77b4"/>
     <use xlink:href="#m8215618e7e" x="266.981634" y="144.181901" style="fill: #1f77b4; stroke: #1f77b4"/>
     <use xlink:href="#m8215618e7e" x="266.981634" y="150.268427" style="fill: #1f77b4; stroke: #1f77b4"/>
     <use xlink:href="#m8215618e7e" x="252.598205" y="141.218292" style="fill: #1f77b4; stroke: #1f77b4"/>
     <use xlink:href="#m8215618e7e" x="217.66702" y="144.94095" style="fill: #1f77b4; stroke: #1f77b4"/>
     <use xlink:href="#m8215618e7e" x="215.612244" y="142.591757" style="fill: #1f77b4; stroke: #1f77b4"/>
     <use xlink:href="#m8215618e7e" x="197.119264" y="153.09942" style="fill: #1f77b4; stroke: #1f77b4"/>
     <use xlink:href="#m8215618e7e" x="182.735834" y="213.445768" style="fill: #1f77b4; stroke: #1f77b4"/>
     <use xlink:href="#m8215618e7e" x="162.188078" y="190.007644" style="fill: #1f77b4; stroke: #1f77b4"/>
     <use xlink:href="#m8215618e7e" x="147.804649" y="185.685487" style="fill: #1f77b4; stroke: #1f77b4"/>
     <use xlink:href="#m8215618e7e" x="147.804649" y="177.431447" style="fill: #1f77b4; stroke: #1f77b4"/>
     <use xlink:href="#m8215618e7e" x="141.640322" y="191.289683" style="fill: #1f77b4; stroke: #1f77b4"/>
     <use xlink:href="#m8215618e7e" x="129.311669" y="224.106615" style="fill: #1f77b4; stroke: #1f77b4"/>
     <use xlink:href="#m8215618e7e" x="127.256893" y="215.999713" style="fill: #1f77b4; stroke: #1f77b4"/>
     <use xlink:href="#m8215618e7e" x="127.256893" y="223.324204" style="fill: #1f77b4; stroke: #1f77b4"/>
     <use xlink:href="#m8215618e7e" x="104.654361" y="200.988166" style="fill: #1f77b4; stroke: #1f77b4"/>
     <use xlink:href="#m8215618e7e" x="227.940898" y="176.026839" style="fill: #1f77b4; stroke: #1f77b4"/>
     <use xlink:href="#m8215618e7e" x="84.106605" y="289.561207" style="fill: #1f77b4; stroke: #1f77b4"/>
    </g>
   </g>
   <g id="matplotlib.axis_1">
    <g id="xtick_1">
     <g id="line2d_1">
      <defs>
       <path id="m0b63af651f" d="M 0 0 
L 0 3.5 
" style="stroke: #000000; stroke-width: 0.8"/>
      </defs>
      <g>
       <use xlink:href="#m0b63af651f" x="63.558849" y="307.584" style="stroke: #000000; stroke-width: 0.8"/>
      </g>
     </g>
     <g id="text_1">
      <!-- 0.2 -->
      <g transform="translate(55.607287 322.182437) scale(0.1 -0.1)">
       <defs>
        <path id="DejaVuSans-30" d="M 2034 4250 
Q 1547 4250 1301 3770 
Q 1056 3291 1056 2328 
Q 1056 1369 1301 889 
Q 1547 409 2034 409 
Q 2525 409 2770 889 
Q 3016 1369 3016 2328 
Q 3016 3291 2770 3770 
Q 2525 4250 2034 4250 
z
M 2034 4750 
Q 2819 4750 3233 4129 
Q 3647 3509 3647 2328 
Q 3647 1150 3233 529 
Q 2819 -91 2034 -91 
Q 1250 -91 836 529 
Q 422 1150 422 2328 
Q 422 3509 836 4129 
Q 1250 4750 2034 4750 
z
" transform="scale(0.015625)"/>
        <path id="DejaVuSans-2e" d="M 684 794 
L 1344 794 
L 1344 0 
L 684 0 
L 684 794 
z
" transform="scale(0.015625)"/>
        <path id="DejaVuSans-32" d="M 1228 531 
L 3431 531 
L 3431 0 
L 469 0 
L 469 531 
Q 828 903 1448 1529 
Q 2069 2156 2228 2338 
Q 2531 2678 2651 2914 
Q 2772 3150 2772 3378 
Q 2772 3750 2511 3984 
Q 2250 4219 1831 4219 
Q 1534 4219 1204 4116 
Q 875 4013 500 3803 
L 500 4441 
Q 881 4594 1212 4672 
Q 1544 4750 1819 4750 
Q 2544 4750 2975 4387 
Q 3406 4025 3406 3419 
Q 3406 3131 3298 2873 
Q 3191 2616 2906 2266 
Q 2828 2175 2409 1742 
Q 1991 1309 1228 531 
z
" transform="scale(0.015625)"/>
       </defs>
       <use xlink:href="#DejaVuSans-30"/>
       <use xlink:href="#DejaVuSans-2e" x="63.623047"/>
       <use xlink:href="#DejaVuSans-32" x="95.410156"/>
      </g>
     </g>
    </g>
    <g id="xtick_2">
     <g id="line2d_2">
      <g>
       <use xlink:href="#m0b63af651f" x="104.654361" y="307.584" style="stroke: #000000; stroke-width: 0.8"/>
      </g>
     </g>
     <g id="text_2">
      <!-- 0.4 -->
      <g transform="translate(96.702799 322.182437) scale(0.1 -0.1)">
       <defs>
        <path id="DejaVuSans-34" d="M 2419 4116 
L 825 1625 
L 2419 1625 
L 2419 4116 
z
M 2253 4666 
L 3047 4666 
L 3047 1625 
L 3713 1625 
L 3713 1100 
L 3047 1100 
L 3047 0 
L 2419 0 
L 2419 1100 
L 313 1100 
L 313 1709 
L 2253 4666 
z
" transform="scale(0.015625)"/>
       </defs>
       <use xlink:href="#DejaVuSans-30"/>
       <use xlink:href="#DejaVuSans-2e" x="63.623047"/>
       <use xlink:href="#DejaVuSans-34" x="95.410156"/>
      </g>
     </g>
    </g>
    <g id="xtick_3">
     <g id="line2d_3">
      <g>
       <use xlink:href="#m0b63af651f" x="145.749873" y="307.584" style="stroke: #000000; stroke-width: 0.8"/>
      </g>
     </g>
     <g id="text_3">
      <!-- 0.6 -->
      <g transform="translate(137.798311 322.182437) scale(0.1 -0.1)">
       <defs>
        <path id="DejaVuSans-36" d="M 2113 2584 
Q 1688 2584 1439 2293 
Q 1191 2003 1191 1497 
Q 1191 994 1439 701 
Q 1688 409 2113 409 
Q 2538 409 2786 701 
Q 3034 994 3034 1497 
Q 3034 2003 2786 2293 
Q 2538 2584 2113 2584 
z
M 3366 4563 
L 3366 3988 
Q 3128 4100 2886 4159 
Q 2644 4219 2406 4219 
Q 1781 4219 1451 3797 
Q 1122 3375 1075 2522 
Q 1259 2794 1537 2939 
Q 1816 3084 2150 3084 
Q 2853 3084 3261 2657 
Q 3669 2231 3669 1497 
Q 3669 778 3244 343 
Q 2819 -91 2113 -91 
Q 1303 -91 875 529 
Q 447 1150 447 2328 
Q 447 3434 972 4092 
Q 1497 4750 2381 4750 
Q 2619 4750 2861 4703 
Q 3103 4656 3366 4563 
z
" transform="scale(0.015625)"/>
       </defs>
       <use xlink:href="#DejaVuSans-30"/>
       <use xlink:href="#DejaVuSans-2e" x="63.623047"/>
       <use xlink:href="#DejaVuSans-36" x="95.410156"/>
      </g>
     </g>
    </g>
    <g id="xtick_4">
     <g id="line2d_4">
      <g>
       <use xlink:href="#m0b63af651f" x="186.845386" y="307.584" style="stroke: #000000; stroke-width: 0.8"/>
      </g>
     </g>
     <g id="text_4">
      <!-- 0.8 -->
      <g transform="translate(178.893823 322.182437) scale(0.1 -0.1)">
       <defs>
        <path id="DejaVuSans-38" d="M 2034 2216 
Q 1584 2216 1326 1975 
Q 1069 1734 1069 1313 
Q 1069 891 1326 650 
Q 1584 409 2034 409 
Q 2484 409 2743 651 
Q 3003 894 3003 1313 
Q 3003 1734 2745 1975 
Q 2488 2216 2034 2216 
z
M 1403 2484 
Q 997 2584 770 2862 
Q 544 3141 544 3541 
Q 544 4100 942 4425 
Q 1341 4750 2034 4750 
Q 2731 4750 3128 4425 
Q 3525 4100 3525 3541 
Q 3525 3141 3298 2862 
Q 3072 2584 2669 2484 
Q 3125 2378 3379 2068 
Q 3634 1759 3634 1313 
Q 3634 634 3220 271 
Q 2806 -91 2034 -91 
Q 1263 -91 848 271 
Q 434 634 434 1313 
Q 434 1759 690 2068 
Q 947 2378 1403 2484 
z
M 1172 3481 
Q 1172 3119 1398 2916 
Q 1625 2713 2034 2713 
Q 2441 2713 2670 2916 
Q 2900 3119 2900 3481 
Q 2900 3844 2670 4047 
Q 2441 4250 2034 4250 
Q 1625 4250 1398 4047 
Q 1172 3844 1172 3481 
z
" transform="scale(0.015625)"/>
       </defs>
       <use xlink:href="#DejaVuSans-30"/>
       <use xlink:href="#DejaVuSans-2e" x="63.623047"/>
       <use xlink:href="#DejaVuSans-38" x="95.410156"/>
      </g>
     </g>
    </g>
    <g id="xtick_5">
     <g id="line2d_5">
      <g>
       <use xlink:href="#m0b63af651f" x="227.940898" y="307.584" style="stroke: #000000; stroke-width: 0.8"/>
      </g>
     </g>
     <g id="text_5">
      <!-- 1.0 -->
      <g transform="translate(219.989335 322.182437) scale(0.1 -0.1)">
       <defs>
        <path id="DejaVuSans-31" d="M 794 531 
L 1825 531 
L 1825 4091 
L 703 3866 
L 703 4441 
L 1819 4666 
L 2450 4666 
L 2450 531 
L 3481 531 
L 3481 0 
L 794 0 
L 794 531 
z
" transform="scale(0.015625)"/>
       </defs>
       <use xlink:href="#DejaVuSans-31"/>
       <use xlink:href="#DejaVuSans-2e" x="63.623047"/>
       <use xlink:href="#DejaVuSans-30" x="95.410156"/>
      </g>
     </g>
    </g>
    <g id="xtick_6">
     <g id="line2d_6">
      <g>
       <use xlink:href="#m0b63af651f" x="269.03641" y="307.584" style="stroke: #000000; stroke-width: 0.8"/>
      </g>
     </g>
     <g id="text_6">
      <!-- 1.2 -->
      <g transform="translate(261.084847 322.182437) scale(0.1 -0.1)">
       <use xlink:href="#DejaVuSans-31"/>
       <use xlink:href="#DejaVuSans-2e" x="63.623047"/>
       <use xlink:href="#DejaVuSans-32" x="95.410156"/>
      </g>
     </g>
    </g>
    <g id="xtick_7">
     <g id="line2d_7">
      <g>
       <use xlink:href="#m0b63af651f" x="310.131922" y="307.584" style="stroke: #000000; stroke-width: 0.8"/>
      </g>
     </g>
     <g id="text_7">
      <!-- 1.4 -->
      <g transform="translate(302.180359 322.182437) scale(0.1 -0.1)">
       <use xlink:href="#DejaVuSans-31"/>
       <use xlink:href="#DejaVuSans-2e" x="63.623047"/>
       <use xlink:href="#DejaVuSans-34" x="95.410156"/>
      </g>
     </g>
    </g>
    <g id="xtick_8">
     <g id="line2d_8">
      <g>
       <use xlink:href="#m0b63af651f" x="351.227434" y="307.584" style="stroke: #000000; stroke-width: 0.8"/>
      </g>
     </g>
     <g id="text_8">
      <!-- 1.6 -->
      <g transform="translate(343.275871 322.182437) scale(0.1 -0.1)">
       <use xlink:href="#DejaVuSans-31"/>
       <use xlink:href="#DejaVuSans-2e" x="63.623047"/>
       <use xlink:href="#DejaVuSans-36" x="95.410156"/>
      </g>
     </g>
    </g>
    <g id="xtick_9">
     <g id="line2d_9">
      <g>
       <use xlink:href="#m0b63af651f" x="392.322946" y="307.584" style="stroke: #000000; stroke-width: 0.8"/>
      </g>
     </g>
     <g id="text_9">
      <!-- 1.8 -->
      <g transform="translate(384.371383 322.182437) scale(0.1 -0.1)">
       <use xlink:href="#DejaVuSans-31"/>
       <use xlink:href="#DejaVuSans-2e" x="63.623047"/>
       <use xlink:href="#DejaVuSans-38" x="95.410156"/>
      </g>
     </g>
    </g>
    <g id="text_10">
     <!-- PercentGpA -->
     <g transform="translate(206.883437 335.860562) scale(0.1 -0.1)">
      <defs>
       <path id="DejaVuSans-50" d="M 1259 4147 
L 1259 2394 
L 2053 2394 
Q 2494 2394 2734 2622 
Q 2975 2850 2975 3272 
Q 2975 3691 2734 3919 
Q 2494 4147 2053 4147 
L 1259 4147 
z
M 628 4666 
L 2053 4666 
Q 2838 4666 3239 4311 
Q 3641 3956 3641 3272 
Q 3641 2581 3239 2228 
Q 2838 1875 2053 1875 
L 1259 1875 
L 1259 0 
L 628 0 
L 628 4666 
z
" transform="scale(0.015625)"/>
       <path id="DejaVuSans-65" d="M 3597 1894 
L 3597 1613 
L 953 1613 
Q 991 1019 1311 708 
Q 1631 397 2203 397 
Q 2534 397 2845 478 
Q 3156 559 3463 722 
L 3463 178 
Q 3153 47 2828 -22 
Q 2503 -91 2169 -91 
Q 1331 -91 842 396 
Q 353 884 353 1716 
Q 353 2575 817 3079 
Q 1281 3584 2069 3584 
Q 2775 3584 3186 3129 
Q 3597 2675 3597 1894 
z
M 3022 2063 
Q 3016 2534 2758 2815 
Q 2500 3097 2075 3097 
Q 1594 3097 1305 2825 
Q 1016 2553 972 2059 
L 3022 2063 
z
" transform="scale(0.015625)"/>
       <path id="DejaVuSans-72" d="M 2631 2963 
Q 2534 3019 2420 3045 
Q 2306 3072 2169 3072 
Q 1681 3072 1420 2755 
Q 1159 2438 1159 1844 
L 1159 0 
L 581 0 
L 581 3500 
L 1159 3500 
L 1159 2956 
Q 1341 3275 1631 3429 
Q 1922 3584 2338 3584 
Q 2397 3584 2469 3576 
Q 2541 3569 2628 3553 
L 2631 2963 
z
" transform="scale(0.015625)"/>
       <path id="DejaVuSans-63" d="M 3122 3366 
L 3122 2828 
Q 2878 2963 2633 3030 
Q 2388 3097 2138 3097 
Q 1578 3097 1268 2742 
Q 959 2388 959 1747 
Q 959 1106 1268 751 
Q 1578 397 2138 397 
Q 2388 397 2633 464 
Q 2878 531 3122 666 
L 3122 134 
Q 2881 22 2623 -34 
Q 2366 -91 2075 -91 
Q 1284 -91 818 406 
Q 353 903 353 1747 
Q 353 2603 823 3093 
Q 1294 3584 2113 3584 
Q 2378 3584 2631 3529 
Q 2884 3475 3122 3366 
z
" transform="scale(0.015625)"/>
       <path id="DejaVuSans-6e" d="M 3513 2113 
L 3513 0 
L 2938 0 
L 2938 2094 
Q 2938 2591 2744 2837 
Q 2550 3084 2163 3084 
Q 1697 3084 1428 2787 
Q 1159 2491 1159 1978 
L 1159 0 
L 581 0 
L 581 3500 
L 1159 3500 
L 1159 2956 
Q 1366 3272 1645 3428 
Q 1925 3584 2291 3584 
Q 2894 3584 3203 3211 
Q 3513 2838 3513 2113 
z
" transform="scale(0.015625)"/>
       <path id="DejaVuSans-74" d="M 1172 4494 
L 1172 3500 
L 2356 3500 
L 2356 3053 
L 1172 3053 
L 1172 1153 
Q 1172 725 1289 603 
Q 1406 481 1766 481 
L 2356 481 
L 2356 0 
L 1766 0 
Q 1100 0 847 248 
Q 594 497 594 1153 
L 594 3053 
L 172 3053 
L 172 3500 
L 594 3500 
L 594 4494 
L 1172 4494 
z
" transform="scale(0.015625)"/>
       <path id="DejaVuSans-47" d="M 3809 666 
L 3809 1919 
L 2778 1919 
L 2778 2438 
L 4434 2438 
L 4434 434 
Q 4069 175 3628 42 
Q 3188 -91 2688 -91 
Q 1594 -91 976 548 
Q 359 1188 359 2328 
Q 359 3472 976 4111 
Q 1594 4750 2688 4750 
Q 3144 4750 3555 4637 
Q 3966 4525 4313 4306 
L 4313 3634 
Q 3963 3931 3569 4081 
Q 3175 4231 2741 4231 
Q 1884 4231 1454 3753 
Q 1025 3275 1025 2328 
Q 1025 1384 1454 906 
Q 1884 428 2741 428 
Q 3075 428 3337 486 
Q 3600 544 3809 666 
z
" transform="scale(0.015625)"/>
       <path id="DejaVuSans-70" d="M 1159 525 
L 1159 -1331 
L 581 -1331 
L 581 3500 
L 1159 3500 
L 1159 2969 
Q 1341 3281 1617 3432 
Q 1894 3584 2278 3584 
Q 2916 3584 3314 3078 
Q 3713 2572 3713 1747 
Q 3713 922 3314 415 
Q 2916 -91 2278 -91 
Q 1894 -91 1617 61 
Q 1341 213 1159 525 
z
M 3116 1747 
Q 3116 2381 2855 2742 
Q 2594 3103 2138 3103 
Q 1681 3103 1420 2742 
Q 1159 2381 1159 1747 
Q 1159 1113 1420 752 
Q 1681 391 2138 391 
Q 2594 391 2855 752 
Q 3116 1113 3116 1747 
z
" transform="scale(0.015625)"/>
       <path id="DejaVuSans-41" d="M 2188 4044 
L 1331 1722 
L 3047 1722 
L 2188 4044 
z
M 1831 4666 
L 2547 4666 
L 4325 0 
L 3669 0 
L 3244 1197 
L 1141 1197 
L 716 0 
L 50 0 
L 1831 4666 
z
" transform="scale(0.015625)"/>
      </defs>
      <use xlink:href="#DejaVuSans-50"/>
      <use xlink:href="#DejaVuSans-65" x="56.677734"/>
      <use xlink:href="#DejaVuSans-72" x="118.201172"/>
      <use xlink:href="#DejaVuSans-63" x="157.064453"/>
      <use xlink:href="#DejaVuSans-65" x="212.044922"/>
      <use xlink:href="#DejaVuSans-6e" x="273.568359"/>
      <use xlink:href="#DejaVuSans-74" x="336.947266"/>
      <use xlink:href="#DejaVuSans-47" x="376.15625"/>
      <use xlink:href="#DejaVuSans-70" x="453.646484"/>
      <use xlink:href="#DejaVuSans-41" x="517.123047"/>
     </g>
    </g>
   </g>
   <g id="matplotlib.axis_2">
    <g id="ytick_1">
     <g id="line2d_10">
      <defs>
       <path id="m45f80b2fc4" d="M 0 0 
L -3.5 0 
" style="stroke: #000000; stroke-width: 0.8"/>
      </defs>
      <g>
       <use xlink:href="#m45f80b2fc4" x="57.6" y="279.521774" style="stroke: #000000; stroke-width: 0.8"/>
      </g>
     </g>
     <g id="text_11">
      <!-- 50000 -->
      <g transform="translate(18.7875 283.320992) scale(0.1 -0.1)">
       <defs>
        <path id="DejaVuSans-35" d="M 691 4666 
L 3169 4666 
L 3169 4134 
L 1269 4134 
L 1269 2991 
Q 1406 3038 1543 3061 
Q 1681 3084 1819 3084 
Q 2600 3084 3056 2656 
Q 3513 2228 3513 1497 
Q 3513 744 3044 326 
Q 2575 -91 1722 -91 
Q 1428 -91 1123 -41 
Q 819 9 494 109 
L 494 744 
Q 775 591 1075 516 
Q 1375 441 1709 441 
Q 2250 441 2565 725 
Q 2881 1009 2881 1497 
Q 2881 1984 2565 2268 
Q 2250 2553 1709 2553 
Q 1456 2553 1204 2497 
Q 953 2441 691 2322 
L 691 4666 
z
" transform="scale(0.015625)"/>
       </defs>
       <use xlink:href="#DejaVuSans-35"/>
       <use xlink:href="#DejaVuSans-30" x="63.623047"/>
       <use xlink:href="#DejaVuSans-30" x="127.246094"/>
       <use xlink:href="#DejaVuSans-30" x="190.869141"/>
       <use xlink:href="#DejaVuSans-30" x="254.492188"/>
      </g>
     </g>
    </g>
    <g id="ytick_2">
     <g id="line2d_11">
      <g>
       <use xlink:href="#m45f80b2fc4" x="57.6" y="228.884605" style="stroke: #000000; stroke-width: 0.8"/>
      </g>
     </g>
     <g id="text_12">
      <!-- 100000 -->
      <g transform="translate(12.425 232.683824) scale(0.1 -0.1)">
       <use xlink:href="#DejaVuSans-31"/>
       <use xlink:href="#DejaVuSans-30" x="63.623047"/>
       <use xlink:href="#DejaVuSans-30" x="127.246094"/>
       <use xlink:href="#DejaVuSans-30" x="190.869141"/>
       <use xlink:href="#DejaVuSans-30" x="254.492188"/>
       <use xlink:href="#DejaVuSans-30" x="318.115234"/>
      </g>
     </g>
    </g>
    <g id="ytick_3">
     <g id="line2d_12">
      <g>
       <use xlink:href="#m45f80b2fc4" x="57.6" y="178.247437" style="stroke: #000000; stroke-width: 0.8"/>
      </g>
     </g>
     <g id="text_13">
      <!-- 150000 -->
      <g transform="translate(12.425 182.046656) scale(0.1 -0.1)">
       <use xlink:href="#DejaVuSans-31"/>
       <use xlink:href="#DejaVuSans-35" x="63.623047"/>
       <use xlink:href="#DejaVuSans-30" x="127.246094"/>
       <use xlink:href="#DejaVuSans-30" x="190.869141"/>
       <use xlink:href="#DejaVuSans-30" x="254.492188"/>
       <use xlink:href="#DejaVuSans-30" x="318.115234"/>
      </g>
     </g>
    </g>
    <g id="ytick_4">
     <g id="line2d_13">
      <g>
       <use xlink:href="#m45f80b2fc4" x="57.6" y="127.610269" style="stroke: #000000; stroke-width: 0.8"/>
      </g>
     </g>
     <g id="text_14">
      <!-- 200000 -->
      <g transform="translate(12.425 131.409488) scale(0.1 -0.1)">
       <use xlink:href="#DejaVuSans-32"/>
       <use xlink:href="#DejaVuSans-30" x="63.623047"/>
       <use xlink:href="#DejaVuSans-30" x="127.246094"/>
       <use xlink:href="#DejaVuSans-30" x="190.869141"/>
       <use xlink:href="#DejaVuSans-30" x="254.492188"/>
       <use xlink:href="#DejaVuSans-30" x="318.115234"/>
      </g>
     </g>
    </g>
    <g id="ytick_5">
     <g id="line2d_14">
      <g>
       <use xlink:href="#m45f80b2fc4" x="57.6" y="76.973101" style="stroke: #000000; stroke-width: 0.8"/>
      </g>
     </g>
     <g id="text_15">
      <!-- 250000 -->
      <g transform="translate(12.425 80.772319) scale(0.1 -0.1)">
       <use xlink:href="#DejaVuSans-32"/>
       <use xlink:href="#DejaVuSans-35" x="63.623047"/>
       <use xlink:href="#DejaVuSans-30" x="127.246094"/>
       <use xlink:href="#DejaVuSans-30" x="190.869141"/>
       <use xlink:href="#DejaVuSans-30" x="254.492188"/>
       <use xlink:href="#DejaVuSans-30" x="318.115234"/>
      </g>
     </g>
    </g>
    <g id="text_16">
     <!-- Reconstructed Fluorescence -->
     <g transform="translate(6.345312 245.106906) rotate(-90) scale(0.1 -0.1)">
      <defs>
       <path id="DejaVuSans-52" d="M 2841 2188 
Q 3044 2119 3236 1894 
Q 3428 1669 3622 1275 
L 4263 0 
L 3584 0 
L 2988 1197 
Q 2756 1666 2539 1819 
Q 2322 1972 1947 1972 
L 1259 1972 
L 1259 0 
L 628 0 
L 628 4666 
L 2053 4666 
Q 2853 4666 3247 4331 
Q 3641 3997 3641 3322 
Q 3641 2881 3436 2590 
Q 3231 2300 2841 2188 
z
M 1259 4147 
L 1259 2491 
L 2053 2491 
Q 2509 2491 2742 2702 
Q 2975 2913 2975 3322 
Q 2975 3731 2742 3939 
Q 2509 4147 2053 4147 
L 1259 4147 
z
" transform="scale(0.015625)"/>
       <path id="DejaVuSans-6f" d="M 1959 3097 
Q 1497 3097 1228 2736 
Q 959 2375 959 1747 
Q 959 1119 1226 758 
Q 1494 397 1959 397 
Q 2419 397 2687 759 
Q 2956 1122 2956 1747 
Q 2956 2369 2687 2733 
Q 2419 3097 1959 3097 
z
M 1959 3584 
Q 2709 3584 3137 3096 
Q 3566 2609 3566 1747 
Q 3566 888 3137 398 
Q 2709 -91 1959 -91 
Q 1206 -91 779 398 
Q 353 888 353 1747 
Q 353 2609 779 3096 
Q 1206 3584 1959 3584 
z
" transform="scale(0.015625)"/>
       <path id="DejaVuSans-73" d="M 2834 3397 
L 2834 2853 
Q 2591 2978 2328 3040 
Q 2066 3103 1784 3103 
Q 1356 3103 1142 2972 
Q 928 2841 928 2578 
Q 928 2378 1081 2264 
Q 1234 2150 1697 2047 
L 1894 2003 
Q 2506 1872 2764 1633 
Q 3022 1394 3022 966 
Q 3022 478 2636 193 
Q 2250 -91 1575 -91 
Q 1294 -91 989 -36 
Q 684 19 347 128 
L 347 722 
Q 666 556 975 473 
Q 1284 391 1588 391 
Q 1994 391 2212 530 
Q 2431 669 2431 922 
Q 2431 1156 2273 1281 
Q 2116 1406 1581 1522 
L 1381 1569 
Q 847 1681 609 1914 
Q 372 2147 372 2553 
Q 372 3047 722 3315 
Q 1072 3584 1716 3584 
Q 2034 3584 2315 3537 
Q 2597 3491 2834 3397 
z
" transform="scale(0.015625)"/>
       <path id="DejaVuSans-75" d="M 544 1381 
L 544 3500 
L 1119 3500 
L 1119 1403 
Q 1119 906 1312 657 
Q 1506 409 1894 409 
Q 2359 409 2629 706 
Q 2900 1003 2900 1516 
L 2900 3500 
L 3475 3500 
L 3475 0 
L 2900 0 
L 2900 538 
Q 2691 219 2414 64 
Q 2138 -91 1772 -91 
Q 1169 -91 856 284 
Q 544 659 544 1381 
z
M 1991 3584 
L 1991 3584 
z
" transform="scale(0.015625)"/>
       <path id="DejaVuSans-64" d="M 2906 2969 
L 2906 4863 
L 3481 4863 
L 3481 0 
L 2906 0 
L 2906 525 
Q 2725 213 2448 61 
Q 2172 -91 1784 -91 
Q 1150 -91 751 415 
Q 353 922 353 1747 
Q 353 2572 751 3078 
Q 1150 3584 1784 3584 
Q 2172 3584 2448 3432 
Q 2725 3281 2906 2969 
z
M 947 1747 
Q 947 1113 1208 752 
Q 1469 391 1925 391 
Q 2381 391 2643 752 
Q 2906 1113 2906 1747 
Q 2906 2381 2643 2742 
Q 2381 3103 1925 3103 
Q 1469 3103 1208 2742 
Q 947 2381 947 1747 
z
" transform="scale(0.015625)"/>
       <path id="DejaVuSans-20" transform="scale(0.015625)"/>
       <path id="DejaVuSans-46" d="M 628 4666 
L 3309 4666 
L 3309 4134 
L 1259 4134 
L 1259 2759 
L 3109 2759 
L 3109 2228 
L 1259 2228 
L 1259 0 
L 628 0 
L 628 4666 
z
" transform="scale(0.015625)"/>
       <path id="DejaVuSans-6c" d="M 603 4863 
L 1178 4863 
L 1178 0 
L 603 0 
L 603 4863 
z
" transform="scale(0.015625)"/>
      </defs>
      <use xlink:href="#DejaVuSans-52"/>
      <use xlink:href="#DejaVuSans-65" x="64.982422"/>
      <use xlink:href="#DejaVuSans-63" x="126.505859"/>
      <use xlink:href="#DejaVuSans-6f" x="181.486328"/>
      <use xlink:href="#DejaVuSans-6e" x="242.667969"/>
      <use xlink:href="#DejaVuSans-73" x="306.046875"/>
      <use xlink:href="#DejaVuSans-74" x="358.146484"/>
      <use xlink:href="#DejaVuSans-72" x="397.355469"/>
      <use xlink:href="#DejaVuSans-75" x="438.46875"/>
      <use xlink:href="#DejaVuSans-63" x="501.847656"/>
      <use xlink:href="#DejaVuSans-74" x="556.828125"/>
      <use xlink:href="#DejaVuSans-65" x="596.037109"/>
      <use xlink:href="#DejaVuSans-64" x="657.560547"/>
      <use xlink:href="#DejaVuSans-20" x="721.037109"/>
      <use xlink:href="#DejaVuSans-46" x="752.824219"/>
      <use xlink:href="#DejaVuSans-6c" x="810.34375"/>
      <use xlink:href="#DejaVuSans-75" x="838.126953"/>
      <use xlink:href="#DejaVuSans-6f" x="901.505859"/>
      <use xlink:href="#DejaVuSans-72" x="962.6875"/>
      <use xlink:href="#DejaVuSans-65" x="1001.550781"/>
      <use xlink:href="#DejaVuSans-73" x="1063.074219"/>
      <use xlink:href="#DejaVuSans-63" x="1115.173828"/>
      <use xlink:href="#DejaVuSans-65" x="1170.154297"/>
      <use xlink:href="#DejaVuSans-6e" x="1231.677734"/>
      <use xlink:href="#DejaVuSans-63" x="1295.056641"/>
      <use xlink:href="#DejaVuSans-65" x="1350.037109"/>
     </g>
    </g>
   </g>
   <g id="line2d_15">
    <path d="M 340.953556 85.390713 
L 308.077146 105.354493 
L 289.584166 116.58412 
L 277.255512 124.070538 
L 273.145961 126.56601 
L 266.981634 130.309219 
L 266.981634 130.309219 
L 252.598205 139.043373 
L 217.66702 160.25489 
L 215.612244 161.502627 
L 197.119264 172.732253 
L 182.735834 181.466407 
L 162.188078 193.94377 
L 147.804649 202.677924 
L 147.804649 202.677924 
L 141.640322 206.421133 
L 129.311669 213.907551 
L 127.256893 215.155287 
L 127.256893 215.155287 
L 104.654361 228.880387 
L 227.940898 154.016209 
L 84.106605 241.35775 
" clip-path="url(#p61e8a54ce4)" style="fill: none; stroke: #1f77b4; stroke-width: 1.5; stroke-linecap: square"/>
   </g>
   <g id="LineCollection_1">
    <path d="M 283.419839 66.058542 
L 398.487273 66.058542 
" clip-path="url(#p61e8a54ce4)" style="fill: none; stroke: #000000; stroke-width: 1.5"/>
    <path d="M 269.03641 150.234089 
L 347.117883 150.234089 
" clip-path="url(#p61e8a54ce4)" style="fill: none; stroke: #000000; stroke-width: 1.5"/>
    <path d="M 264.926858 112.330235 
L 314.241473 112.330235 
" clip-path="url(#p61e8a54ce4)" style="fill: none; stroke: #000000; stroke-width: 1.5"/>
    <path d="M 182.735834 123.127998 
L 371.77519 123.127998 
" clip-path="url(#p61e8a54ce4)" style="fill: none; stroke: #000000; stroke-width: 1.5"/>
    <path d="M 252.598205 91.858701 
L 293.693717 91.858701 
" clip-path="url(#p61e8a54ce4)" style="fill: none; stroke: #000000; stroke-width: 1.5"/>
    <path d="M 229.995673 144.181901 
L 303.967595 144.181901 
" clip-path="url(#p61e8a54ce4)" style="fill: none; stroke: #000000; stroke-width: 1.5"/>
    <path d="M 238.214776 150.268427 
L 295.748493 150.268427 
" clip-path="url(#p61e8a54ce4)" style="fill: none; stroke: #000000; stroke-width: 1.5"/>
    <path d="M 211.502693 141.218292 
L 293.693717 141.218292 
" clip-path="url(#p61e8a54ce4)" style="fill: none; stroke: #000000; stroke-width: 1.5"/>
    <path d="M 186.845386 144.94095 
L 248.488654 144.94095 
" clip-path="url(#p61e8a54ce4)" style="fill: none; stroke: #000000; stroke-width: 1.5"/>
    <path d="M 182.735834 142.591757 
L 248.488654 142.591757 
" clip-path="url(#p61e8a54ce4)" style="fill: none; stroke: #000000; stroke-width: 1.5"/>
    <path d="M 156.023751 153.09942 
L 238.214776 153.09942 
" clip-path="url(#p61e8a54ce4)" style="fill: none; stroke: #000000; stroke-width: 1.5"/>
    <path d="M 166.297629 213.445768 
L 199.174039 213.445768 
" clip-path="url(#p61e8a54ce4)" style="fill: none; stroke: #000000; stroke-width: 1.5"/>
    <path d="M 135.475995 190.007644 
L 188.900161 190.007644 
" clip-path="url(#p61e8a54ce4)" style="fill: none; stroke: #000000; stroke-width: 1.5"/>
    <path d="M 125.202117 185.685487 
L 170.407181 185.685487 
" clip-path="url(#p61e8a54ce4)" style="fill: none; stroke: #000000; stroke-width: 1.5"/>
    <path d="M 123.147342 177.431447 
L 172.461956 177.431447 
" clip-path="url(#p61e8a54ce4)" style="fill: none; stroke: #000000; stroke-width: 1.5"/>
    <path d="M 116.983015 191.289683 
L 166.297629 191.289683 
" clip-path="url(#p61e8a54ce4)" style="fill: none; stroke: #000000; stroke-width: 1.5"/>
    <path d="M 104.654361 224.106615 
L 153.968976 224.106615 
" clip-path="url(#p61e8a54ce4)" style="fill: none; stroke: #000000; stroke-width: 1.5"/>
    <path d="M 116.983015 215.999713 
L 137.530771 215.999713 
" clip-path="url(#p61e8a54ce4)" style="fill: none; stroke: #000000; stroke-width: 1.5"/>
    <path d="M 108.763913 223.324204 
L 145.749873 223.324204 
" clip-path="url(#p61e8a54ce4)" style="fill: none; stroke: #000000; stroke-width: 1.5"/>
    <path d="M 84.106605 200.988166 
L 125.202117 200.988166 
" clip-path="url(#p61e8a54ce4)" style="fill: none; stroke: #000000; stroke-width: 1.5"/>
    <path d="M 186.845386 176.026839 
L 269.03641 176.026839 
" clip-path="url(#p61e8a54ce4)" style="fill: none; stroke: #000000; stroke-width: 1.5"/>
    <path d="M 73.832727 289.561207 
L 94.380483 289.561207 
" clip-path="url(#p61e8a54ce4)" style="fill: none; stroke: #000000; stroke-width: 1.5"/>
   </g>
   <g id="LineCollection_2">
    <path d="M 340.953556 78.549084 
L 340.953556 53.568 
" clip-path="url(#p61e8a54ce4)" style="fill: none; stroke: #000000; stroke-width: 1.5"/>
    <path d="M 308.077146 162.366054 
L 308.077146 138.102124 
" clip-path="url(#p61e8a54ce4)" style="fill: none; stroke: #000000; stroke-width: 1.5"/>
    <path d="M 289.584166 134.634439 
L 289.584166 90.026032 
" clip-path="url(#p61e8a54ce4)" style="fill: none; stroke: #000000; stroke-width: 1.5"/>
    <path d="M 277.255512 125.156925 
L 277.255512 121.099071 
" clip-path="url(#p61e8a54ce4)" style="fill: none; stroke: #000000; stroke-width: 1.5"/>
    <path d="M 273.145961 104.765176 
L 273.145961 78.952227 
" clip-path="url(#p61e8a54ce4)" style="fill: none; stroke: #000000; stroke-width: 1.5"/>
    <path d="M 266.981634 147.260957 
L 266.981634 141.102846 
" clip-path="url(#p61e8a54ce4)" style="fill: none; stroke: #000000; stroke-width: 1.5"/>
    <path d="M 266.981634 163.939455 
L 266.981634 136.597398 
" clip-path="url(#p61e8a54ce4)" style="fill: none; stroke: #000000; stroke-width: 1.5"/>
    <path d="M 252.598205 146.220742 
L 252.598205 136.215843 
" clip-path="url(#p61e8a54ce4)" style="fill: none; stroke: #000000; stroke-width: 1.5"/>
    <path d="M 217.66702 146.520844 
L 217.66702 143.361056 
" clip-path="url(#p61e8a54ce4)" style="fill: none; stroke: #000000; stroke-width: 1.5"/>
    <path d="M 215.612244 143.081037 
L 215.612244 142.102477 
" clip-path="url(#p61e8a54ce4)" style="fill: none; stroke: #000000; stroke-width: 1.5"/>
    <path d="M 197.119264 164.197861 
L 197.119264 142.000978 
" clip-path="url(#p61e8a54ce4)" style="fill: none; stroke: #000000; stroke-width: 1.5"/>
    <path d="M 182.735834 226.313411 
L 182.735834 200.578126 
" clip-path="url(#p61e8a54ce4)" style="fill: none; stroke: #000000; stroke-width: 1.5"/>
    <path d="M 162.188078 196.185122 
L 162.188078 183.830166 
" clip-path="url(#p61e8a54ce4)" style="fill: none; stroke: #000000; stroke-width: 1.5"/>
    <path d="M 147.804649 195.937352 
L 147.804649 175.433622 
" clip-path="url(#p61e8a54ce4)" style="fill: none; stroke: #000000; stroke-width: 1.5"/>
    <path d="M 147.804649 191.067013 
L 147.804649 163.795881 
" clip-path="url(#p61e8a54ce4)" style="fill: none; stroke: #000000; stroke-width: 1.5"/>
    <path d="M 141.640322 195.734601 
L 141.640322 186.844766 
" clip-path="url(#p61e8a54ce4)" style="fill: none; stroke: #000000; stroke-width: 1.5"/>
    <path d="M 129.311669 240.664408 
L 129.311669 207.548822 
" clip-path="url(#p61e8a54ce4)" style="fill: none; stroke: #000000; stroke-width: 1.5"/>
    <path d="M 127.256893 231.420629 
L 127.256893 200.578797 
" clip-path="url(#p61e8a54ce4)" style="fill: none; stroke: #000000; stroke-width: 1.5"/>
    <path d="M 127.256893 235.421885 
L 127.256893 211.226523 
" clip-path="url(#p61e8a54ce4)" style="fill: none; stroke: #000000; stroke-width: 1.5"/>
    <path d="M 104.654361 211.880832 
L 104.654361 190.095499 
" clip-path="url(#p61e8a54ce4)" style="fill: none; stroke: #000000; stroke-width: 1.5"/>
    <path d="M 227.940898 180.665497 
L 227.940898 171.388182 
" clip-path="url(#p61e8a54ce4)" style="fill: none; stroke: #000000; stroke-width: 1.5"/>
    <path d="M 84.106605 295.488 
L 84.106605 283.634413 
" clip-path="url(#p61e8a54ce4)" style="fill: none; stroke: #000000; stroke-width: 1.5"/>
   </g>
   <g id="patch_3">
    <path d="M 57.6 307.584 
L 57.6 41.472 
" style="fill: none; stroke: #000000; stroke-width: 0.8; stroke-linejoin: miter; stroke-linecap: square"/>
   </g>
   <g id="patch_4">
    <path d="M 414.72 307.584 
L 414.72 41.472 
" style="fill: none; stroke: #000000; stroke-width: 0.8; stroke-linejoin: miter; stroke-linecap: square"/>
   </g>
   <g id="patch_5">
    <path d="M 57.6 307.584 
L 414.72 307.584 
" style="fill: none; stroke: #000000; stroke-width: 0.8; stroke-linejoin: miter; stroke-linecap: square"/>
   </g>
   <g id="patch_6">
    <path d="M 57.6 41.472 
L 414.72 41.472 
" style="fill: none; stroke: #000000; stroke-width: 0.8; stroke-linejoin: miter; stroke-linecap: square"/>
   </g>
   <g id="text_17">
    <!-- y = 123203.60x + 50722.73 -->
    <g transform="translate(75.456 54.7776) scale(0.1 -0.1)">
     <defs>
      <path id="DejaVuSans-79" d="M 2059 -325 
Q 1816 -950 1584 -1140 
Q 1353 -1331 966 -1331 
L 506 -1331 
L 506 -850 
L 844 -850 
Q 1081 -850 1212 -737 
Q 1344 -625 1503 -206 
L 1606 56 
L 191 3500 
L 800 3500 
L 1894 763 
L 2988 3500 
L 3597 3500 
L 2059 -325 
z
" transform="scale(0.015625)"/>
      <path id="DejaVuSans-3d" d="M 678 2906 
L 4684 2906 
L 4684 2381 
L 678 2381 
L 678 2906 
z
M 678 1631 
L 4684 1631 
L 4684 1100 
L 678 1100 
L 678 1631 
z
" transform="scale(0.015625)"/>
      <path id="DejaVuSans-33" d="M 2597 2516 
Q 3050 2419 3304 2112 
Q 3559 1806 3559 1356 
Q 3559 666 3084 287 
Q 2609 -91 1734 -91 
Q 1441 -91 1130 -33 
Q 819 25 488 141 
L 488 750 
Q 750 597 1062 519 
Q 1375 441 1716 441 
Q 2309 441 2620 675 
Q 2931 909 2931 1356 
Q 2931 1769 2642 2001 
Q 2353 2234 1838 2234 
L 1294 2234 
L 1294 2753 
L 1863 2753 
Q 2328 2753 2575 2939 
Q 2822 3125 2822 3475 
Q 2822 3834 2567 4026 
Q 2313 4219 1838 4219 
Q 1578 4219 1281 4162 
Q 984 4106 628 3988 
L 628 4550 
Q 988 4650 1302 4700 
Q 1616 4750 1894 4750 
Q 2613 4750 3031 4423 
Q 3450 4097 3450 3541 
Q 3450 3153 3228 2886 
Q 3006 2619 2597 2516 
z
" transform="scale(0.015625)"/>
      <path id="DejaVuSans-78" d="M 3513 3500 
L 2247 1797 
L 3578 0 
L 2900 0 
L 1881 1375 
L 863 0 
L 184 0 
L 1544 1831 
L 300 3500 
L 978 3500 
L 1906 2253 
L 2834 3500 
L 3513 3500 
z
" transform="scale(0.015625)"/>
      <path id="DejaVuSans-2b" d="M 2944 4013 
L 2944 2272 
L 4684 2272 
L 4684 1741 
L 2944 1741 
L 2944 0 
L 2419 0 
L 2419 1741 
L 678 1741 
L 678 2272 
L 2419 2272 
L 2419 4013 
L 2944 4013 
z
" transform="scale(0.015625)"/>
      <path id="DejaVuSans-37" d="M 525 4666 
L 3525 4666 
L 3525 4397 
L 1831 0 
L 1172 0 
L 2766 4134 
L 525 4134 
L 525 4666 
z
" transform="scale(0.015625)"/>
     </defs>
     <use xlink:href="#DejaVuSans-79"/>
     <use xlink:href="#DejaVuSans-20" x="59.179688"/>
     <use xlink:href="#DejaVuSans-3d" x="90.966797"/>
     <use xlink:href="#DejaVuSans-20" x="174.755859"/>
     <use xlink:href="#DejaVuSans-31" x="206.542969"/>
     <use xlink:href="#DejaVuSans-32" x="270.166016"/>
     <use xlink:href="#DejaVuSans-33" x="333.789062"/>
     <use xlink:href="#DejaVuSans-32" x="397.412109"/>
     <use xlink:href="#DejaVuSans-30" x="461.035156"/>
     <use xlink:href="#DejaVuSans-33" x="524.658203"/>
     <use xlink:href="#DejaVuSans-2e" x="588.28125"/>
     <use xlink:href="#DejaVuSans-36" x="620.068359"/>
     <use xlink:href="#DejaVuSans-30" x="683.691406"/>
     <use xlink:href="#DejaVuSans-78" x="747.314453"/>
     <use xlink:href="#DejaVuSans-20" x="806.494141"/>
     <use xlink:href="#DejaVuSans-2b" x="838.28125"/>
     <use xlink:href="#DejaVuSans-20" x="922.070312"/>
     <use xlink:href="#DejaVuSans-35" x="953.857422"/>
     <use xlink:href="#DejaVuSans-30" x="1017.480469"/>
     <use xlink:href="#DejaVuSans-37" x="1081.103516"/>
     <use xlink:href="#DejaVuSans-32" x="1144.726562"/>
     <use xlink:href="#DejaVuSans-32" x="1208.349609"/>
     <use xlink:href="#DejaVuSans-2e" x="1271.972656"/>
     <use xlink:href="#DejaVuSans-37" x="1303.759766"/>
     <use xlink:href="#DejaVuSans-33" x="1367.382812"/>
    </g>
   </g>
   <g id="text_18">
    <!-- r^2 = 0.79 -->
    <g transform="translate(75.456 68.0832) scale(0.1 -0.1)">
     <defs>
      <path id="DejaVuSans-5e" d="M 2988 4666 
L 4684 2925 
L 4056 2925 
L 2681 4159 
L 1306 2925 
L 678 2925 
L 2375 4666 
L 2988 4666 
z
" transform="scale(0.015625)"/>
      <path id="DejaVuSans-39" d="M 703 97 
L 703 672 
Q 941 559 1184 500 
Q 1428 441 1663 441 
Q 2288 441 2617 861 
Q 2947 1281 2994 2138 
Q 2813 1869 2534 1725 
Q 2256 1581 1919 1581 
Q 1219 1581 811 2004 
Q 403 2428 403 3163 
Q 403 3881 828 4315 
Q 1253 4750 1959 4750 
Q 2769 4750 3195 4129 
Q 3622 3509 3622 2328 
Q 3622 1225 3098 567 
Q 2575 -91 1691 -91 
Q 1453 -91 1209 -44 
Q 966 3 703 97 
z
M 1959 2075 
Q 2384 2075 2632 2365 
Q 2881 2656 2881 3163 
Q 2881 3666 2632 3958 
Q 2384 4250 1959 4250 
Q 1534 4250 1286 3958 
Q 1038 3666 1038 3163 
Q 1038 2656 1286 2365 
Q 1534 2075 1959 2075 
z
" transform="scale(0.015625)"/>
     </defs>
     <use xlink:href="#DejaVuSans-72"/>
     <use xlink:href="#DejaVuSans-5e" x="41.113281"/>
     <use xlink:href="#DejaVuSans-32" x="124.902344"/>
     <use xlink:href="#DejaVuSans-20" x="188.525391"/>
     <use xlink:href="#DejaVuSans-3d" x="220.3125"/>
     <use xlink:href="#DejaVuSans-20" x="304.101562"/>
     <use xlink:href="#DejaVuSans-30" x="335.888672"/>
     <use xlink:href="#DejaVuSans-2e" x="399.511719"/>
     <use xlink:href="#DejaVuSans-37" x="431.298828"/>
     <use xlink:href="#DejaVuSans-39" x="494.921875"/>
    </g>
   </g>
   <g id="text_19">
    <!-- C_Rep2-Fluor -->
    <g transform="translate(196.53 35.472) scale(0.12 -0.12)">
     <defs>
      <path id="DejaVuSans-43" d="M 4122 4306 
L 4122 3641 
Q 3803 3938 3442 4084 
Q 3081 4231 2675 4231 
Q 1875 4231 1450 3742 
Q 1025 3253 1025 2328 
Q 1025 1406 1450 917 
Q 1875 428 2675 428 
Q 3081 428 3442 575 
Q 3803 722 4122 1019 
L 4122 359 
Q 3791 134 3420 21 
Q 3050 -91 2638 -91 
Q 1578 -91 968 557 
Q 359 1206 359 2328 
Q 359 3453 968 4101 
Q 1578 4750 2638 4750 
Q 3056 4750 3426 4639 
Q 3797 4528 4122 4306 
z
" transform="scale(0.015625)"/>
      <path id="DejaVuSans-5f" d="M 3263 -1063 
L 3263 -1509 
L -63 -1509 
L -63 -1063 
L 3263 -1063 
z
" transform="scale(0.015625)"/>
      <path id="DejaVuSans-2d" d="M 313 2009 
L 1997 2009 
L 1997 1497 
L 313 1497 
L 313 2009 
z
" transform="scale(0.015625)"/>
     </defs>
     <use xlink:href="#DejaVuSans-43"/>
     <use xlink:href="#DejaVuSans-5f" x="69.824219"/>
     <use xlink:href="#DejaVuSans-52" x="119.824219"/>
     <use xlink:href="#DejaVuSans-65" x="184.806641"/>
     <use xlink:href="#DejaVuSans-70" x="246.330078"/>
     <use xlink:href="#DejaVuSans-32" x="309.806641"/>
     <use xlink:href="#DejaVuSans-2d" x="373.429688"/>
     <use xlink:href="#DejaVuSans-46" x="409.513672"/>
     <use xlink:href="#DejaVuSans-6c" x="467.033203"/>
     <use xlink:href="#DejaVuSans-75" x="494.816406"/>
     <use xlink:href="#DejaVuSans-6f" x="558.195312"/>
     <use xlink:href="#DejaVuSans-72" x="619.376953"/>
    </g>
   </g>
  </g>
 </g>
 <defs>
  <clipPath id="p61e8a54ce4">
   <rect x="57.6" y="41.472" width="357.12" height="266.112"/>
  </clipPath>
 </defs>
</svg>
