<?xml version="1.0" encoding="utf-8" standalone="no"?>
<!DOCTYPE svg PUBLIC "-//W3C//DTD SVG 1.1//EN"
  "http://www.w3.org/Graphics/SVG/1.1/DTD/svg11.dtd">
<svg xmlns:xlink="http://www.w3.org/1999/xlink" width="460.8pt" height="345.6pt" viewBox="0 0 460.8 345.6" xmlns="http://www.w3.org/2000/svg" version="1.1">
 <metadata>
  <rdf:RDF xmlns:dc="http://purl.org/dc/elements/1.1/" xmlns:cc="http://creativecommons.org/ns#" xmlns:rdf="http://www.w3.org/1999/02/22-rdf-syntax-ns#">
   <cc:Work>
    <dc:type rdf:resource="http://purl.org/dc/dcmitype/StillImage"/>
    <dc:date>2024-02-15T15:57:49.530079</dc:date>
    <dc:format>image/svg+xml</dc:format>
    <dc:creator>
     <cc:Agent>
      <dc:title>Matplotlib v3.7.1, https://matplotlib.org/</dc:title>
     </cc:Agent>
    </dc:creator>
   </cc:Work>
  </rdf:RDF>
 </metadata>
 <defs>
  <style type="text/css">*{stroke-linejoin: round; stroke-linecap: butt}</style>
 </defs>
 <g id="figure_1">
  <g id="patch_1">
   <path d="M 0 345.6 
L 460.8 345.6 
L 460.8 0 
L 0 0 
z
" style="fill: #ffffff"/>
  </g>
  <g id="axes_1">
   <g id="patch_2">
    <path d="M 47.82125 303.64 
L 450 303.64 
L 450 46.675687 
L 47.82125 46.675687 
z
" style="fill: #ffffff"/>
   </g>
   <g id="PathCollection_1">
    <defs>
     <path id="m7181b6700d" d="M 0 3 
C 0.795609 3 1.55874 2.683901 2.12132 2.12132 
C 2.683901 1.55874 3 0.795609 3 0 
C 3 -0.795609 2.683901 -1.55874 2.12132 -2.12132 
C 1.55874 -2.683901 0.795609 -3 0 -3 
C -0.795609 -3 -1.55874 -2.683901 -2.12132 -2.12132 
C -2.683901 -1.55874 -3 -0.795609 -3 0 
C -3 0.795609 -2.683901 1.55874 -2.12132 2.12132 
C -1.55874 2.683901 -0.795609 3 0 3 
z
" style="stroke: #1f77b4"/>
    </defs>
    <g clip-path="url(#p1a15deb739)">
     <use xlink:href="#m7181b6700d" x="286.621975" y="174.987036" style="fill: #1f77b4; stroke: #1f77b4"/>
     <use xlink:href="#m7181b6700d" x="356.222146" y="184.107065" style="fill: #1f77b4; stroke: #1f77b4"/>
     <use xlink:href="#m7181b6700d" x="254.125234" y="61.183494" style="fill: #1f77b4; stroke: #1f77b4"/>
     <use xlink:href="#m7181b6700d" x="284.723912" y="156.18609" style="fill: #1f77b4; stroke: #1f77b4"/>
     <use xlink:href="#m7181b6700d" x="275.0985" y="215.865521" style="fill: #1f77b4; stroke: #1f77b4"/>
     <use xlink:href="#m7181b6700d" x="363.638779" y="212.799852" style="fill: #1f77b4; stroke: #1f77b4"/>
     <use xlink:href="#m7181b6700d" x="286.52741" y="267.492839" style="fill: #1f77b4; stroke: #1f77b4"/>
     <use xlink:href="#m7181b6700d" x="319.949541" y="181.944684" style="fill: #1f77b4; stroke: #1f77b4"/>
     <use xlink:href="#m7181b6700d" x="353.054203" y="210.746562" style="fill: #1f77b4; stroke: #1f77b4"/>
     <use xlink:href="#m7181b6700d" x="431.719148" y="299.670585" style="fill: #1f77b4; stroke: #1f77b4"/>
     <use xlink:href="#m7181b6700d" x="213.657976" y="160.275448" style="fill: #1f77b4; stroke: #1f77b4"/>
     <use xlink:href="#m7181b6700d" x="352.115303" y="187.891383" style="fill: #1f77b4; stroke: #1f77b4"/>
     <use xlink:href="#m7181b6700d" x="316.484393" y="189.017188" style="fill: #1f77b4; stroke: #1f77b4"/>
     <use xlink:href="#m7181b6700d" x="413.191074" y="230.615852" style="fill: #1f77b4; stroke: #1f77b4"/>
     <use xlink:href="#m7181b6700d" x="354.202498" y="237.114372" style="fill: #1f77b4; stroke: #1f77b4"/>
     <use xlink:href="#m7181b6700d" x="66.102102" y="148.354635" style="fill: #1f77b4; stroke: #1f77b4"/>
     <use xlink:href="#m7181b6700d" x="118.815586" y="160.918952" style="fill: #1f77b4; stroke: #1f77b4"/>
     <use xlink:href="#m7181b6700d" x="228.031925" y="165.85568" style="fill: #1f77b4; stroke: #1f77b4"/>
     <use xlink:href="#m7181b6700d" x="76.815017" y="158.268638" style="fill: #1f77b4; stroke: #1f77b4"/>
     <use xlink:href="#m7181b6700d" x="202.722158" y="186.213767" style="fill: #1f77b4; stroke: #1f77b4"/>
     <use xlink:href="#m7181b6700d" x="290.769346" y="154.599113" style="fill: #1f77b4; stroke: #1f77b4"/>
     <use xlink:href="#m7181b6700d" x="190.800156" y="165.206909" style="fill: #1f77b4; stroke: #1f77b4"/>
     <use xlink:href="#m7181b6700d" x="142.09895" y="184.065709" style="fill: #1f77b4; stroke: #1f77b4"/>
     <use xlink:href="#m7181b6700d" x="167.483019" y="159.972247" style="fill: #1f77b4; stroke: #1f77b4"/>
     <use xlink:href="#m7181b6700d" x="245.79672" y="196.853691" style="fill: #1f77b4; stroke: #1f77b4"/>
     <use xlink:href="#m7181b6700d" x="166.73325" y="172.208106" style="fill: #1f77b4; stroke: #1f77b4"/>
     <use xlink:href="#m7181b6700d" x="131.413054" y="180.755817" style="fill: #1f77b4; stroke: #1f77b4"/>
     <use xlink:href="#m7181b6700d" x="156.702557" y="132.174222" style="fill: #1f77b4; stroke: #1f77b4"/>
     <use xlink:href="#m7181b6700d" x="203.958263" y="154.662858" style="fill: #1f77b4; stroke: #1f77b4"/>
     <use xlink:href="#m7181b6700d" x="193.454744" y="192.246942" style="fill: #1f77b4; stroke: #1f77b4"/>
     <use xlink:href="#m7181b6700d" x="268.884199" y="238.26176" style="fill: #1f77b4; stroke: #1f77b4"/>
     <use xlink:href="#m7181b6700d" x="192.907615" y="177.492052" style="fill: #1f77b4; stroke: #1f77b4"/>
     <use xlink:href="#m7181b6700d" x="159.640841" y="168.79322" style="fill: #1f77b4; stroke: #1f77b4"/>
     <use xlink:href="#m7181b6700d" x="177.756879" y="189.704685" style="fill: #1f77b4; stroke: #1f77b4"/>
     <use xlink:href="#m7181b6700d" x="168.928519" y="155.104563" style="fill: #1f77b4; stroke: #1f77b4"/>
     <use xlink:href="#m7181b6700d" x="104.009338" y="284.02743" style="fill: #1f77b4; stroke: #1f77b4"/>
     <use xlink:href="#m7181b6700d" x="132.885573" y="265.094768" style="fill: #1f77b4; stroke: #1f77b4"/>
     <use xlink:href="#m7181b6700d" x="210.233356" y="176.095976" style="fill: #1f77b4; stroke: #1f77b4"/>
     <use xlink:href="#m7181b6700d" x="223.499538" y="178.989256" style="fill: #1f77b4; stroke: #1f77b4"/>
     <use xlink:href="#m7181b6700d" x="391.819283" y="267.278598" style="fill: #1f77b4; stroke: #1f77b4"/>
     <use xlink:href="#m7181b6700d" x="258.407698" y="286.277794" style="fill: #1f77b4; stroke: #1f77b4"/>
     <use xlink:href="#m7181b6700d" x="259.225014" y="250.034121" style="fill: #1f77b4; stroke: #1f77b4"/>
     <use xlink:href="#m7181b6700d" x="249.106511" y="257.41587" style="fill: #1f77b4; stroke: #1f77b4"/>
     <use xlink:href="#m7181b6700d" x="96.450857" y="233.271847" style="fill: #1f77b4; stroke: #1f77b4"/>
     <use xlink:href="#m7181b6700d" x="292.417486" y="238.419502" style="fill: #1f77b4; stroke: #1f77b4"/>
     <use xlink:href="#m7181b6700d" x="219.642618" y="220.557228" style="fill: #1f77b4; stroke: #1f77b4"/>
     <use xlink:href="#m7181b6700d" x="230.396061" y="172.100252" style="fill: #1f77b4; stroke: #1f77b4"/>
     <use xlink:href="#m7181b6700d" x="339.180101" y="280.675259" style="fill: #1f77b4; stroke: #1f77b4"/>
     <use xlink:href="#m7181b6700d" x="154.959851" y="274.089613" style="fill: #1f77b4; stroke: #1f77b4"/>
     <use xlink:href="#m7181b6700d" x="409.678643" y="287.19745" style="fill: #1f77b4; stroke: #1f77b4"/>
    </g>
   </g>
   <g id="matplotlib.axis_1">
    <g id="xtick_1">
     <g id="line2d_1">
      <defs>
       <path id="m053a61c83e" d="M 0 0 
L 0 3.5 
" style="stroke: #000000; stroke-width: 0.8"/>
      </defs>
      <g>
       <use xlink:href="#m053a61c83e" x="50.735217" y="303.64" style="stroke: #000000; stroke-width: 0.8"/>
      </g>
     </g>
     <g id="text_1">
      <!-- −1100 -->
      <g transform="translate(33.820373 318.238437) scale(0.1 -0.1)">
       <defs>
        <path id="DejaVuSans-2212" d="M 678 2272 
L 4684 2272 
L 4684 1741 
L 678 1741 
L 678 2272 
z
" transform="scale(0.015625)"/>
        <path id="DejaVuSans-31" d="M 794 531 
L 1825 531 
L 1825 4091 
L 703 3866 
L 703 4441 
L 1819 4666 
L 2450 4666 
L 2450 531 
L 3481 531 
L 3481 0 
L 794 0 
L 794 531 
z
" transform="scale(0.015625)"/>
        <path id="DejaVuSans-30" d="M 2034 4250 
Q 1547 4250 1301 3770 
Q 1056 3291 1056 2328 
Q 1056 1369 1301 889 
Q 1547 409 2034 409 
Q 2525 409 2770 889 
Q 3016 1369 3016 2328 
Q 3016 3291 2770 3770 
Q 2525 4250 2034 4250 
z
M 2034 4750 
Q 2819 4750 3233 4129 
Q 3647 3509 3647 2328 
Q 3647 1150 3233 529 
Q 2819 -91 2034 -91 
Q 1250 -91 836 529 
Q 422 1150 422 2328 
Q 422 3509 836 4129 
Q 1250 4750 2034 4750 
z
" transform="scale(0.015625)"/>
       </defs>
       <use xlink:href="#DejaVuSans-2212"/>
       <use xlink:href="#DejaVuSans-31" x="83.789062"/>
       <use xlink:href="#DejaVuSans-31" x="147.412109"/>
       <use xlink:href="#DejaVuSans-30" x="211.035156"/>
       <use xlink:href="#DejaVuSans-30" x="274.658203"/>
      </g>
     </g>
    </g>
    <g id="xtick_2">
     <g id="line2d_2">
      <g>
       <use xlink:href="#m053a61c83e" x="118.281966" y="303.64" style="stroke: #000000; stroke-width: 0.8"/>
      </g>
     </g>
     <g id="text_2">
      <!-- −1000 -->
      <g transform="translate(101.367122 318.238437) scale(0.1 -0.1)">
       <use xlink:href="#DejaVuSans-2212"/>
       <use xlink:href="#DejaVuSans-31" x="83.789062"/>
       <use xlink:href="#DejaVuSans-30" x="147.412109"/>
       <use xlink:href="#DejaVuSans-30" x="211.035156"/>
       <use xlink:href="#DejaVuSans-30" x="274.658203"/>
      </g>
     </g>
    </g>
    <g id="xtick_3">
     <g id="line2d_3">
      <g>
       <use xlink:href="#m053a61c83e" x="185.828716" y="303.64" style="stroke: #000000; stroke-width: 0.8"/>
      </g>
     </g>
     <g id="text_3">
      <!-- −900 -->
      <g transform="translate(172.095122 318.238437) scale(0.1 -0.1)">
       <defs>
        <path id="DejaVuSans-39" d="M 703 97 
L 703 672 
Q 941 559 1184 500 
Q 1428 441 1663 441 
Q 2288 441 2617 861 
Q 2947 1281 2994 2138 
Q 2813 1869 2534 1725 
Q 2256 1581 1919 1581 
Q 1219 1581 811 2004 
Q 403 2428 403 3163 
Q 403 3881 828 4315 
Q 1253 4750 1959 4750 
Q 2769 4750 3195 4129 
Q 3622 3509 3622 2328 
Q 3622 1225 3098 567 
Q 2575 -91 1691 -91 
Q 1453 -91 1209 -44 
Q 966 3 703 97 
z
M 1959 2075 
Q 2384 2075 2632 2365 
Q 2881 2656 2881 3163 
Q 2881 3666 2632 3958 
Q 2384 4250 1959 4250 
Q 1534 4250 1286 3958 
Q 1038 3666 1038 3163 
Q 1038 2656 1286 2365 
Q 1534 2075 1959 2075 
z
" transform="scale(0.015625)"/>
       </defs>
       <use xlink:href="#DejaVuSans-2212"/>
       <use xlink:href="#DejaVuSans-39" x="83.789062"/>
       <use xlink:href="#DejaVuSans-30" x="147.412109"/>
       <use xlink:href="#DejaVuSans-30" x="211.035156"/>
      </g>
     </g>
    </g>
    <g id="xtick_4">
     <g id="line2d_4">
      <g>
       <use xlink:href="#m053a61c83e" x="253.375465" y="303.64" style="stroke: #000000; stroke-width: 0.8"/>
      </g>
     </g>
     <g id="text_4">
      <!-- −800 -->
      <g transform="translate(239.641871 318.238437) scale(0.1 -0.1)">
       <defs>
        <path id="DejaVuSans-38" d="M 2034 2216 
Q 1584 2216 1326 1975 
Q 1069 1734 1069 1313 
Q 1069 891 1326 650 
Q 1584 409 2034 409 
Q 2484 409 2743 651 
Q 3003 894 3003 1313 
Q 3003 1734 2745 1975 
Q 2488 2216 2034 2216 
z
M 1403 2484 
Q 997 2584 770 2862 
Q 544 3141 544 3541 
Q 544 4100 942 4425 
Q 1341 4750 2034 4750 
Q 2731 4750 3128 4425 
Q 3525 4100 3525 3541 
Q 3525 3141 3298 2862 
Q 3072 2584 2669 2484 
Q 3125 2378 3379 2068 
Q 3634 1759 3634 1313 
Q 3634 634 3220 271 
Q 2806 -91 2034 -91 
Q 1263 -91 848 271 
Q 434 634 434 1313 
Q 434 1759 690 2068 
Q 947 2378 1403 2484 
z
M 1172 3481 
Q 1172 3119 1398 2916 
Q 1625 2713 2034 2713 
Q 2441 2713 2670 2916 
Q 2900 3119 2900 3481 
Q 2900 3844 2670 4047 
Q 2441 4250 2034 4250 
Q 1625 4250 1398 4047 
Q 1172 3844 1172 3481 
z
" transform="scale(0.015625)"/>
       </defs>
       <use xlink:href="#DejaVuSans-2212"/>
       <use xlink:href="#DejaVuSans-38" x="83.789062"/>
       <use xlink:href="#DejaVuSans-30" x="147.412109"/>
       <use xlink:href="#DejaVuSans-30" x="211.035156"/>
      </g>
     </g>
    </g>
    <g id="xtick_5">
     <g id="line2d_5">
      <g>
       <use xlink:href="#m053a61c83e" x="320.922215" y="303.64" style="stroke: #000000; stroke-width: 0.8"/>
      </g>
     </g>
     <g id="text_5">
      <!-- −700 -->
      <g transform="translate(307.188621 318.238437) scale(0.1 -0.1)">
       <defs>
        <path id="DejaVuSans-37" d="M 525 4666 
L 3525 4666 
L 3525 4397 
L 1831 0 
L 1172 0 
L 2766 4134 
L 525 4134 
L 525 4666 
z
" transform="scale(0.015625)"/>
       </defs>
       <use xlink:href="#DejaVuSans-2212"/>
       <use xlink:href="#DejaVuSans-37" x="83.789062"/>
       <use xlink:href="#DejaVuSans-30" x="147.412109"/>
       <use xlink:href="#DejaVuSans-30" x="211.035156"/>
      </g>
     </g>
    </g>
    <g id="xtick_6">
     <g id="line2d_6">
      <g>
       <use xlink:href="#m053a61c83e" x="388.468964" y="303.64" style="stroke: #000000; stroke-width: 0.8"/>
      </g>
     </g>
     <g id="text_6">
      <!-- −600 -->
      <g transform="translate(374.73537 318.238437) scale(0.1 -0.1)">
       <defs>
        <path id="DejaVuSans-36" d="M 2113 2584 
Q 1688 2584 1439 2293 
Q 1191 2003 1191 1497 
Q 1191 994 1439 701 
Q 1688 409 2113 409 
Q 2538 409 2786 701 
Q 3034 994 3034 1497 
Q 3034 2003 2786 2293 
Q 2538 2584 2113 2584 
z
M 3366 4563 
L 3366 3988 
Q 3128 4100 2886 4159 
Q 2644 4219 2406 4219 
Q 1781 4219 1451 3797 
Q 1122 3375 1075 2522 
Q 1259 2794 1537 2939 
Q 1816 3084 2150 3084 
Q 2853 3084 3261 2657 
Q 3669 2231 3669 1497 
Q 3669 778 3244 343 
Q 2819 -91 2113 -91 
Q 1303 -91 875 529 
Q 447 1150 447 2328 
Q 447 3434 972 4092 
Q 1497 4750 2381 4750 
Q 2619 4750 2861 4703 
Q 3103 4656 3366 4563 
z
" transform="scale(0.015625)"/>
       </defs>
       <use xlink:href="#DejaVuSans-2212"/>
       <use xlink:href="#DejaVuSans-36" x="83.789062"/>
       <use xlink:href="#DejaVuSans-30" x="147.412109"/>
       <use xlink:href="#DejaVuSans-30" x="211.035156"/>
      </g>
     </g>
    </g>
    <g id="text_7">
     <!-- SasaDiff -->
     <g transform="translate(228.244219 331.916562) scale(0.1 -0.1)">
      <defs>
       <path id="DejaVuSans-53" d="M 3425 4513 
L 3425 3897 
Q 3066 4069 2747 4153 
Q 2428 4238 2131 4238 
Q 1616 4238 1336 4038 
Q 1056 3838 1056 3469 
Q 1056 3159 1242 3001 
Q 1428 2844 1947 2747 
L 2328 2669 
Q 3034 2534 3370 2195 
Q 3706 1856 3706 1288 
Q 3706 609 3251 259 
Q 2797 -91 1919 -91 
Q 1588 -91 1214 -16 
Q 841 59 441 206 
L 441 856 
Q 825 641 1194 531 
Q 1563 422 1919 422 
Q 2459 422 2753 634 
Q 3047 847 3047 1241 
Q 3047 1584 2836 1778 
Q 2625 1972 2144 2069 
L 1759 2144 
Q 1053 2284 737 2584 
Q 422 2884 422 3419 
Q 422 4038 858 4394 
Q 1294 4750 2059 4750 
Q 2388 4750 2728 4690 
Q 3069 4631 3425 4513 
z
" transform="scale(0.015625)"/>
       <path id="DejaVuSans-61" d="M 2194 1759 
Q 1497 1759 1228 1600 
Q 959 1441 959 1056 
Q 959 750 1161 570 
Q 1363 391 1709 391 
Q 2188 391 2477 730 
Q 2766 1069 2766 1631 
L 2766 1759 
L 2194 1759 
z
M 3341 1997 
L 3341 0 
L 2766 0 
L 2766 531 
Q 2569 213 2275 61 
Q 1981 -91 1556 -91 
Q 1019 -91 701 211 
Q 384 513 384 1019 
Q 384 1609 779 1909 
Q 1175 2209 1959 2209 
L 2766 2209 
L 2766 2266 
Q 2766 2663 2505 2880 
Q 2244 3097 1772 3097 
Q 1472 3097 1187 3025 
Q 903 2953 641 2809 
L 641 3341 
Q 956 3463 1253 3523 
Q 1550 3584 1831 3584 
Q 2591 3584 2966 3190 
Q 3341 2797 3341 1997 
z
" transform="scale(0.015625)"/>
       <path id="DejaVuSans-73" d="M 2834 3397 
L 2834 2853 
Q 2591 2978 2328 3040 
Q 2066 3103 1784 3103 
Q 1356 3103 1142 2972 
Q 928 2841 928 2578 
Q 928 2378 1081 2264 
Q 1234 2150 1697 2047 
L 1894 2003 
Q 2506 1872 2764 1633 
Q 3022 1394 3022 966 
Q 3022 478 2636 193 
Q 2250 -91 1575 -91 
Q 1294 -91 989 -36 
Q 684 19 347 128 
L 347 722 
Q 666 556 975 473 
Q 1284 391 1588 391 
Q 1994 391 2212 530 
Q 2431 669 2431 922 
Q 2431 1156 2273 1281 
Q 2116 1406 1581 1522 
L 1381 1569 
Q 847 1681 609 1914 
Q 372 2147 372 2553 
Q 372 3047 722 3315 
Q 1072 3584 1716 3584 
Q 2034 3584 2315 3537 
Q 2597 3491 2834 3397 
z
" transform="scale(0.015625)"/>
       <path id="DejaVuSans-44" d="M 1259 4147 
L 1259 519 
L 2022 519 
Q 2988 519 3436 956 
Q 3884 1394 3884 2338 
Q 3884 3275 3436 3711 
Q 2988 4147 2022 4147 
L 1259 4147 
z
M 628 4666 
L 1925 4666 
Q 3281 4666 3915 4102 
Q 4550 3538 4550 2338 
Q 4550 1131 3912 565 
Q 3275 0 1925 0 
L 628 0 
L 628 4666 
z
" transform="scale(0.015625)"/>
       <path id="DejaVuSans-69" d="M 603 3500 
L 1178 3500 
L 1178 0 
L 603 0 
L 603 3500 
z
M 603 4863 
L 1178 4863 
L 1178 4134 
L 603 4134 
L 603 4863 
z
" transform="scale(0.015625)"/>
       <path id="DejaVuSans-66" d="M 2375 4863 
L 2375 4384 
L 1825 4384 
Q 1516 4384 1395 4259 
Q 1275 4134 1275 3809 
L 1275 3500 
L 2222 3500 
L 2222 3053 
L 1275 3053 
L 1275 0 
L 697 0 
L 697 3053 
L 147 3053 
L 147 3500 
L 697 3500 
L 697 3744 
Q 697 4328 969 4595 
Q 1241 4863 1831 4863 
L 2375 4863 
z
" transform="scale(0.015625)"/>
      </defs>
      <use xlink:href="#DejaVuSans-53"/>
      <use xlink:href="#DejaVuSans-61" x="63.476562"/>
      <use xlink:href="#DejaVuSans-73" x="124.755859"/>
      <use xlink:href="#DejaVuSans-61" x="176.855469"/>
      <use xlink:href="#DejaVuSans-44" x="238.134766"/>
      <use xlink:href="#DejaVuSans-69" x="315.136719"/>
      <use xlink:href="#DejaVuSans-66" x="342.919922"/>
      <use xlink:href="#DejaVuSans-66" x="378.125"/>
     </g>
    </g>
   </g>
   <g id="matplotlib.axis_2">
    <g id="ytick_1">
     <g id="line2d_7">
      <defs>
       <path id="m49a7ae8dd0" d="M 0 0 
L -3.5 0 
" style="stroke: #000000; stroke-width: 0.8"/>
      </defs>
      <g>
       <use xlink:href="#m49a7ae8dd0" x="47.82125" y="303.64" style="stroke: #000000; stroke-width: 0.8"/>
      </g>
     </g>
     <g id="text_8">
      <!-- 0.0 -->
      <g transform="translate(24.918125 307.439219) scale(0.1 -0.1)">
       <defs>
        <path id="DejaVuSans-2e" d="M 684 794 
L 1344 794 
L 1344 0 
L 684 0 
L 684 794 
z
" transform="scale(0.015625)"/>
       </defs>
       <use xlink:href="#DejaVuSans-30"/>
       <use xlink:href="#DejaVuSans-2e" x="63.623047"/>
       <use xlink:href="#DejaVuSans-30" x="95.410156"/>
      </g>
     </g>
    </g>
    <g id="ytick_2">
     <g id="line2d_8">
      <g>
       <use xlink:href="#m49a7ae8dd0" x="47.82125" y="251.047581" style="stroke: #000000; stroke-width: 0.8"/>
      </g>
     </g>
     <g id="text_9">
      <!-- 0.5 -->
      <g transform="translate(24.918125 254.846799) scale(0.1 -0.1)">
       <defs>
        <path id="DejaVuSans-35" d="M 691 4666 
L 3169 4666 
L 3169 4134 
L 1269 4134 
L 1269 2991 
Q 1406 3038 1543 3061 
Q 1681 3084 1819 3084 
Q 2600 3084 3056 2656 
Q 3513 2228 3513 1497 
Q 3513 744 3044 326 
Q 2575 -91 1722 -91 
Q 1428 -91 1123 -41 
Q 819 9 494 109 
L 494 744 
Q 775 591 1075 516 
Q 1375 441 1709 441 
Q 2250 441 2565 725 
Q 2881 1009 2881 1497 
Q 2881 1984 2565 2268 
Q 2250 2553 1709 2553 
Q 1456 2553 1204 2497 
Q 953 2441 691 2322 
L 691 4666 
z
" transform="scale(0.015625)"/>
       </defs>
       <use xlink:href="#DejaVuSans-30"/>
       <use xlink:href="#DejaVuSans-2e" x="63.623047"/>
       <use xlink:href="#DejaVuSans-35" x="95.410156"/>
      </g>
     </g>
    </g>
    <g id="ytick_3">
     <g id="line2d_9">
      <g>
       <use xlink:href="#m49a7ae8dd0" x="47.82125" y="198.455161" style="stroke: #000000; stroke-width: 0.8"/>
      </g>
     </g>
     <g id="text_10">
      <!-- 1.0 -->
      <g transform="translate(24.918125 202.25438) scale(0.1 -0.1)">
       <use xlink:href="#DejaVuSans-31"/>
       <use xlink:href="#DejaVuSans-2e" x="63.623047"/>
       <use xlink:href="#DejaVuSans-30" x="95.410156"/>
      </g>
     </g>
    </g>
    <g id="ytick_4">
     <g id="line2d_10">
      <g>
       <use xlink:href="#m49a7ae8dd0" x="47.82125" y="145.862742" style="stroke: #000000; stroke-width: 0.8"/>
      </g>
     </g>
     <g id="text_11">
      <!-- 1.5 -->
      <g transform="translate(24.918125 149.661961) scale(0.1 -0.1)">
       <use xlink:href="#DejaVuSans-31"/>
       <use xlink:href="#DejaVuSans-2e" x="63.623047"/>
       <use xlink:href="#DejaVuSans-35" x="95.410156"/>
      </g>
     </g>
    </g>
    <g id="ytick_5">
     <g id="line2d_11">
      <g>
       <use xlink:href="#m49a7ae8dd0" x="47.82125" y="93.270323" style="stroke: #000000; stroke-width: 0.8"/>
      </g>
     </g>
     <g id="text_12">
      <!-- 2.0 -->
      <g transform="translate(24.918125 97.069542) scale(0.1 -0.1)">
       <defs>
        <path id="DejaVuSans-32" d="M 1228 531 
L 3431 531 
L 3431 0 
L 469 0 
L 469 531 
Q 828 903 1448 1529 
Q 2069 2156 2228 2338 
Q 2531 2678 2651 2914 
Q 2772 3150 2772 3378 
Q 2772 3750 2511 3984 
Q 2250 4219 1831 4219 
Q 1534 4219 1204 4116 
Q 875 4013 500 3803 
L 500 4441 
Q 881 4594 1212 4672 
Q 1544 4750 1819 4750 
Q 2544 4750 2975 4387 
Q 3406 4025 3406 3419 
Q 3406 3131 3298 2873 
Q 3191 2616 2906 2266 
Q 2828 2175 2409 1742 
Q 1991 1309 1228 531 
z
" transform="scale(0.015625)"/>
       </defs>
       <use xlink:href="#DejaVuSans-32"/>
       <use xlink:href="#DejaVuSans-2e" x="63.623047"/>
       <use xlink:href="#DejaVuSans-30" x="95.410156"/>
      </g>
     </g>
    </g>
    <g id="text_13">
     <!-- PercentGpA_transformed -->
     <g transform="translate(18.560313 237.696125) rotate(-90) scale(0.1 -0.1)">
      <defs>
       <path id="DejaVuSans-50" d="M 1259 4147 
L 1259 2394 
L 2053 2394 
Q 2494 2394 2734 2622 
Q 2975 2850 2975 3272 
Q 2975 3691 2734 3919 
Q 2494 4147 2053 4147 
L 1259 4147 
z
M 628 4666 
L 2053 4666 
Q 2838 4666 3239 4311 
Q 3641 3956 3641 3272 
Q 3641 2581 3239 2228 
Q 2838 1875 2053 1875 
L 1259 1875 
L 1259 0 
L 628 0 
L 628 4666 
z
" transform="scale(0.015625)"/>
       <path id="DejaVuSans-65" d="M 3597 1894 
L 3597 1613 
L 953 1613 
Q 991 1019 1311 708 
Q 1631 397 2203 397 
Q 2534 397 2845 478 
Q 3156 559 3463 722 
L 3463 178 
Q 3153 47 2828 -22 
Q 2503 -91 2169 -91 
Q 1331 -91 842 396 
Q 353 884 353 1716 
Q 353 2575 817 3079 
Q 1281 3584 2069 3584 
Q 2775 3584 3186 3129 
Q 3597 2675 3597 1894 
z
M 3022 2063 
Q 3016 2534 2758 2815 
Q 2500 3097 2075 3097 
Q 1594 3097 1305 2825 
Q 1016 2553 972 2059 
L 3022 2063 
z
" transform="scale(0.015625)"/>
       <path id="DejaVuSans-72" d="M 2631 2963 
Q 2534 3019 2420 3045 
Q 2306 3072 2169 3072 
Q 1681 3072 1420 2755 
Q 1159 2438 1159 1844 
L 1159 0 
L 581 0 
L 581 3500 
L 1159 3500 
L 1159 2956 
Q 1341 3275 1631 3429 
Q 1922 3584 2338 3584 
Q 2397 3584 2469 3576 
Q 2541 3569 2628 3553 
L 2631 2963 
z
" transform="scale(0.015625)"/>
       <path id="DejaVuSans-63" d="M 3122 3366 
L 3122 2828 
Q 2878 2963 2633 3030 
Q 2388 3097 2138 3097 
Q 1578 3097 1268 2742 
Q 959 2388 959 1747 
Q 959 1106 1268 751 
Q 1578 397 2138 397 
Q 2388 397 2633 464 
Q 2878 531 3122 666 
L 3122 134 
Q 2881 22 2623 -34 
Q 2366 -91 2075 -91 
Q 1284 -91 818 406 
Q 353 903 353 1747 
Q 353 2603 823 3093 
Q 1294 3584 2113 3584 
Q 2378 3584 2631 3529 
Q 2884 3475 3122 3366 
z
" transform="scale(0.015625)"/>
       <path id="DejaVuSans-6e" d="M 3513 2113 
L 3513 0 
L 2938 0 
L 2938 2094 
Q 2938 2591 2744 2837 
Q 2550 3084 2163 3084 
Q 1697 3084 1428 2787 
Q 1159 2491 1159 1978 
L 1159 0 
L 581 0 
L 581 3500 
L 1159 3500 
L 1159 2956 
Q 1366 3272 1645 3428 
Q 1925 3584 2291 3584 
Q 2894 3584 3203 3211 
Q 3513 2838 3513 2113 
z
" transform="scale(0.015625)"/>
       <path id="DejaVuSans-74" d="M 1172 4494 
L 1172 3500 
L 2356 3500 
L 2356 3053 
L 1172 3053 
L 1172 1153 
Q 1172 725 1289 603 
Q 1406 481 1766 481 
L 2356 481 
L 2356 0 
L 1766 0 
Q 1100 0 847 248 
Q 594 497 594 1153 
L 594 3053 
L 172 3053 
L 172 3500 
L 594 3500 
L 594 4494 
L 1172 4494 
z
" transform="scale(0.015625)"/>
       <path id="DejaVuSans-47" d="M 3809 666 
L 3809 1919 
L 2778 1919 
L 2778 2438 
L 4434 2438 
L 4434 434 
Q 4069 175 3628 42 
Q 3188 -91 2688 -91 
Q 1594 -91 976 548 
Q 359 1188 359 2328 
Q 359 3472 976 4111 
Q 1594 4750 2688 4750 
Q 3144 4750 3555 4637 
Q 3966 4525 4313 4306 
L 4313 3634 
Q 3963 3931 3569 4081 
Q 3175 4231 2741 4231 
Q 1884 4231 1454 3753 
Q 1025 3275 1025 2328 
Q 1025 1384 1454 906 
Q 1884 428 2741 428 
Q 3075 428 3337 486 
Q 3600 544 3809 666 
z
" transform="scale(0.015625)"/>
       <path id="DejaVuSans-70" d="M 1159 525 
L 1159 -1331 
L 581 -1331 
L 581 3500 
L 1159 3500 
L 1159 2969 
Q 1341 3281 1617 3432 
Q 1894 3584 2278 3584 
Q 2916 3584 3314 3078 
Q 3713 2572 3713 1747 
Q 3713 922 3314 415 
Q 2916 -91 2278 -91 
Q 1894 -91 1617 61 
Q 1341 213 1159 525 
z
M 3116 1747 
Q 3116 2381 2855 2742 
Q 2594 3103 2138 3103 
Q 1681 3103 1420 2742 
Q 1159 2381 1159 1747 
Q 1159 1113 1420 752 
Q 1681 391 2138 391 
Q 2594 391 2855 752 
Q 3116 1113 3116 1747 
z
" transform="scale(0.015625)"/>
       <path id="DejaVuSans-41" d="M 2188 4044 
L 1331 1722 
L 3047 1722 
L 2188 4044 
z
M 1831 4666 
L 2547 4666 
L 4325 0 
L 3669 0 
L 3244 1197 
L 1141 1197 
L 716 0 
L 50 0 
L 1831 4666 
z
" transform="scale(0.015625)"/>
       <path id="DejaVuSans-5f" d="M 3263 -1063 
L 3263 -1509 
L -63 -1509 
L -63 -1063 
L 3263 -1063 
z
" transform="scale(0.015625)"/>
       <path id="DejaVuSans-6f" d="M 1959 3097 
Q 1497 3097 1228 2736 
Q 959 2375 959 1747 
Q 959 1119 1226 758 
Q 1494 397 1959 397 
Q 2419 397 2687 759 
Q 2956 1122 2956 1747 
Q 2956 2369 2687 2733 
Q 2419 3097 1959 3097 
z
M 1959 3584 
Q 2709 3584 3137 3096 
Q 3566 2609 3566 1747 
Q 3566 888 3137 398 
Q 2709 -91 1959 -91 
Q 1206 -91 779 398 
Q 353 888 353 1747 
Q 353 2609 779 3096 
Q 1206 3584 1959 3584 
z
" transform="scale(0.015625)"/>
       <path id="DejaVuSans-6d" d="M 3328 2828 
Q 3544 3216 3844 3400 
Q 4144 3584 4550 3584 
Q 5097 3584 5394 3201 
Q 5691 2819 5691 2113 
L 5691 0 
L 5113 0 
L 5113 2094 
Q 5113 2597 4934 2840 
Q 4756 3084 4391 3084 
Q 3944 3084 3684 2787 
Q 3425 2491 3425 1978 
L 3425 0 
L 2847 0 
L 2847 2094 
Q 2847 2600 2669 2842 
Q 2491 3084 2119 3084 
Q 1678 3084 1418 2786 
Q 1159 2488 1159 1978 
L 1159 0 
L 581 0 
L 581 3500 
L 1159 3500 
L 1159 2956 
Q 1356 3278 1631 3431 
Q 1906 3584 2284 3584 
Q 2666 3584 2933 3390 
Q 3200 3197 3328 2828 
z
" transform="scale(0.015625)"/>
       <path id="DejaVuSans-64" d="M 2906 2969 
L 2906 4863 
L 3481 4863 
L 3481 0 
L 2906 0 
L 2906 525 
Q 2725 213 2448 61 
Q 2172 -91 1784 -91 
Q 1150 -91 751 415 
Q 353 922 353 1747 
Q 353 2572 751 3078 
Q 1150 3584 1784 3584 
Q 2172 3584 2448 3432 
Q 2725 3281 2906 2969 
z
M 947 1747 
Q 947 1113 1208 752 
Q 1469 391 1925 391 
Q 2381 391 2643 752 
Q 2906 1113 2906 1747 
Q 2906 2381 2643 2742 
Q 2381 3103 1925 3103 
Q 1469 3103 1208 2742 
Q 947 2381 947 1747 
z
" transform="scale(0.015625)"/>
      </defs>
      <use xlink:href="#DejaVuSans-50"/>
      <use xlink:href="#DejaVuSans-65" x="56.677734"/>
      <use xlink:href="#DejaVuSans-72" x="118.201172"/>
      <use xlink:href="#DejaVuSans-63" x="157.064453"/>
      <use xlink:href="#DejaVuSans-65" x="212.044922"/>
      <use xlink:href="#DejaVuSans-6e" x="273.568359"/>
      <use xlink:href="#DejaVuSans-74" x="336.947266"/>
      <use xlink:href="#DejaVuSans-47" x="376.15625"/>
      <use xlink:href="#DejaVuSans-70" x="453.646484"/>
      <use xlink:href="#DejaVuSans-41" x="517.123047"/>
      <use xlink:href="#DejaVuSans-5f" x="585.53125"/>
      <use xlink:href="#DejaVuSans-74" x="635.53125"/>
      <use xlink:href="#DejaVuSans-72" x="674.740234"/>
      <use xlink:href="#DejaVuSans-61" x="715.853516"/>
      <use xlink:href="#DejaVuSans-6e" x="777.132812"/>
      <use xlink:href="#DejaVuSans-73" x="840.511719"/>
      <use xlink:href="#DejaVuSans-66" x="892.611328"/>
      <use xlink:href="#DejaVuSans-6f" x="927.816406"/>
      <use xlink:href="#DejaVuSans-72" x="988.998047"/>
      <use xlink:href="#DejaVuSans-6d" x="1028.361328"/>
      <use xlink:href="#DejaVuSans-65" x="1125.773438"/>
      <use xlink:href="#DejaVuSans-64" x="1187.296875"/>
     </g>
    </g>
   </g>
   <g id="LineCollection_1">
    <path d="M 286.621975 175.130567 
L 286.621975 174.843504 
" clip-path="url(#p1a15deb739)" style="fill: none; stroke: #d3d3d3; stroke-width: 3"/>
    <path d="M 356.222146 184.29573 
L 356.222146 183.9184 
" clip-path="url(#p1a15deb739)" style="fill: none; stroke: #d3d3d3; stroke-width: 3"/>
    <path d="M 254.125234 63.626702 
L 254.125234 58.740285 
" clip-path="url(#p1a15deb739)" style="fill: none; stroke: #d3d3d3; stroke-width: 3"/>
    <path d="M 284.723912 156.361338 
L 284.723912 156.010842 
" clip-path="url(#p1a15deb739)" style="fill: none; stroke: #d3d3d3; stroke-width: 3"/>
    <path d="M 275.0985 215.994943 
L 275.0985 215.736099 
" clip-path="url(#p1a15deb739)" style="fill: none; stroke: #d3d3d3; stroke-width: 3"/>
    <path d="M 363.638779 212.91311 
L 363.638779 212.686593 
" clip-path="url(#p1a15deb739)" style="fill: none; stroke: #d3d3d3; stroke-width: 3"/>
    <path d="M 286.52741 267.752969 
L 286.52741 267.23271 
" clip-path="url(#p1a15deb739)" style="fill: none; stroke: #d3d3d3; stroke-width: 3"/>
    <path d="M 319.949541 182.147951 
L 319.949541 181.741417 
" clip-path="url(#p1a15deb739)" style="fill: none; stroke: #d3d3d3; stroke-width: 3"/>
    <path d="M 353.054203 210.853687 
L 353.054203 210.639437 
" clip-path="url(#p1a15deb739)" style="fill: none; stroke: #d3d3d3; stroke-width: 3"/>
    <path d="M 431.719148 300.032241 
L 431.719148 299.308928 
" clip-path="url(#p1a15deb739)" style="fill: none; stroke: #d3d3d3; stroke-width: 3"/>
    <path d="M 213.657976 160.424192 
L 213.657976 160.126704 
" clip-path="url(#p1a15deb739)" style="fill: none; stroke: #d3d3d3; stroke-width: 3"/>
    <path d="M 352.115303 188.20752 
L 352.115303 187.575245 
" clip-path="url(#p1a15deb739)" style="fill: none; stroke: #d3d3d3; stroke-width: 3"/>
    <path d="M 316.484393 189.68783 
L 316.484393 188.346546 
" clip-path="url(#p1a15deb739)" style="fill: none; stroke: #d3d3d3; stroke-width: 3"/>
    <path d="M 413.191074 230.759745 
L 413.191074 230.471959 
" clip-path="url(#p1a15deb739)" style="fill: none; stroke: #d3d3d3; stroke-width: 3"/>
    <path d="M 354.202498 237.356601 
L 354.202498 236.872144 
" clip-path="url(#p1a15deb739)" style="fill: none; stroke: #d3d3d3; stroke-width: 3"/>
    <path d="M 66.102102 148.775164 
L 66.102102 147.934106 
" clip-path="url(#p1a15deb739)" style="fill: none; stroke: #d3d3d3; stroke-width: 3"/>
    <path d="M 118.815586 161.222976 
L 118.815586 160.614927 
" clip-path="url(#p1a15deb739)" style="fill: none; stroke: #d3d3d3; stroke-width: 3"/>
    <path d="M 228.031925 165.928845 
L 228.031925 165.782515 
" clip-path="url(#p1a15deb739)" style="fill: none; stroke: #d3d3d3; stroke-width: 3"/>
    <path d="M 76.815017 158.530256 
L 76.815017 158.007019 
" clip-path="url(#p1a15deb739)" style="fill: none; stroke: #d3d3d3; stroke-width: 3"/>
    <path d="M 202.722158 186.308544 
L 202.722158 186.118989 
" clip-path="url(#p1a15deb739)" style="fill: none; stroke: #d3d3d3; stroke-width: 3"/>
    <path d="M 290.769346 154.855645 
L 290.769346 154.342582 
" clip-path="url(#p1a15deb739)" style="fill: none; stroke: #d3d3d3; stroke-width: 3"/>
    <path d="M 190.800156 165.557565 
L 190.800156 164.856252 
" clip-path="url(#p1a15deb739)" style="fill: none; stroke: #d3d3d3; stroke-width: 3"/>
    <path d="M 142.09895 184.225295 
L 142.09895 183.906122 
" clip-path="url(#p1a15deb739)" style="fill: none; stroke: #d3d3d3; stroke-width: 3"/>
    <path d="M 167.483019 160.199182 
L 167.483019 159.745313 
" clip-path="url(#p1a15deb739)" style="fill: none; stroke: #d3d3d3; stroke-width: 3"/>
    <path d="M 245.79672 196.948794 
L 245.79672 196.758587 
" clip-path="url(#p1a15deb739)" style="fill: none; stroke: #d3d3d3; stroke-width: 3"/>
    <path d="M 166.73325 172.400037 
L 166.73325 172.016174 
" clip-path="url(#p1a15deb739)" style="fill: none; stroke: #d3d3d3; stroke-width: 3"/>
    <path d="M 131.413054 180.946782 
L 131.413054 180.564852 
" clip-path="url(#p1a15deb739)" style="fill: none; stroke: #d3d3d3; stroke-width: 3"/>
    <path d="M 156.702557 132.613711 
L 156.702557 131.734733 
" clip-path="url(#p1a15deb739)" style="fill: none; stroke: #d3d3d3; stroke-width: 3"/>
    <path d="M 203.958263 154.898183 
L 203.958263 154.427532 
" clip-path="url(#p1a15deb739)" style="fill: none; stroke: #d3d3d3; stroke-width: 3"/>
    <path d="M 193.454744 192.608906 
L 193.454744 191.884977 
" clip-path="url(#p1a15deb739)" style="fill: none; stroke: #d3d3d3; stroke-width: 3"/>
    <path d="M 268.884199 238.402997 
L 268.884199 238.120523 
" clip-path="url(#p1a15deb739)" style="fill: none; stroke: #d3d3d3; stroke-width: 3"/>
    <path d="M 192.907615 177.534745 
L 192.907615 177.449359 
" clip-path="url(#p1a15deb739)" style="fill: none; stroke: #d3d3d3; stroke-width: 3"/>
    <path d="M 159.640841 169.042073 
L 159.640841 168.544366 
" clip-path="url(#p1a15deb739)" style="fill: none; stroke: #d3d3d3; stroke-width: 3"/>
    <path d="M 177.756879 190.102396 
L 177.756879 189.306974 
" clip-path="url(#p1a15deb739)" style="fill: none; stroke: #d3d3d3; stroke-width: 3"/>
    <path d="M 168.928519 155.231717 
L 168.928519 154.977408 
" clip-path="url(#p1a15deb739)" style="fill: none; stroke: #d3d3d3; stroke-width: 3"/>
    <path d="M 104.009338 284.252475 
L 104.009338 283.802386 
" clip-path="url(#p1a15deb739)" style="fill: none; stroke: #d3d3d3; stroke-width: 3"/>
    <path d="M 132.885573 265.226631 
L 132.885573 264.962906 
" clip-path="url(#p1a15deb739)" style="fill: none; stroke: #d3d3d3; stroke-width: 3"/>
    <path d="M 210.233356 176.210283 
L 210.233356 175.981669 
" clip-path="url(#p1a15deb739)" style="fill: none; stroke: #d3d3d3; stroke-width: 3"/>
    <path d="M 223.499538 179.240558 
L 223.499538 178.737954 
" clip-path="url(#p1a15deb739)" style="fill: none; stroke: #d3d3d3; stroke-width: 3"/>
    <path d="M 391.819283 267.359271 
L 391.819283 267.197925 
" clip-path="url(#p1a15deb739)" style="fill: none; stroke: #d3d3d3; stroke-width: 3"/>
    <path d="M 258.407698 286.368083 
L 258.407698 286.187506 
" clip-path="url(#p1a15deb739)" style="fill: none; stroke: #d3d3d3; stroke-width: 3"/>
    <path d="M 259.225014 250.221213 
L 259.225014 249.847029 
" clip-path="url(#p1a15deb739)" style="fill: none; stroke: #d3d3d3; stroke-width: 3"/>
    <path d="M 249.106511 257.516698 
L 249.106511 257.315043 
" clip-path="url(#p1a15deb739)" style="fill: none; stroke: #d3d3d3; stroke-width: 3"/>
    <path d="M 96.450857 233.472677 
L 96.450857 233.071017 
" clip-path="url(#p1a15deb739)" style="fill: none; stroke: #d3d3d3; stroke-width: 3"/>
    <path d="M 292.417486 238.486484 
L 292.417486 238.35252 
" clip-path="url(#p1a15deb739)" style="fill: none; stroke: #d3d3d3; stroke-width: 3"/>
    <path d="M 219.642618 220.636956 
L 219.642618 220.4775 
" clip-path="url(#p1a15deb739)" style="fill: none; stroke: #d3d3d3; stroke-width: 3"/>
    <path d="M 230.396061 172.118978 
L 230.396061 172.081526 
" clip-path="url(#p1a15deb739)" style="fill: none; stroke: #d3d3d3; stroke-width: 3"/>
    <path d="M 339.180101 280.794358 
L 339.180101 280.556161 
" clip-path="url(#p1a15deb739)" style="fill: none; stroke: #d3d3d3; stroke-width: 3"/>
    <path d="M 154.959851 274.217114 
L 154.959851 273.962112 
" clip-path="url(#p1a15deb739)" style="fill: none; stroke: #d3d3d3; stroke-width: 3"/>
    <path d="M 409.678643 287.404204 
L 409.678643 286.990697 
" clip-path="url(#p1a15deb739)" style="fill: none; stroke: #d3d3d3; stroke-width: 3"/>
   </g>
   <g id="line2d_12">
    <path d="M 286.621975 210.728422 
L 356.222146 224.164603 
L 254.125234 204.454988 
L 284.723912 210.362005 
L 275.0985 208.503837 
L 363.638779 225.59637 
L 286.52741 210.710167 
L 319.949541 217.162246 
L 353.054203 223.553038 
L 431.719148 238.739155 
L 213.657976 196.642861 
L 352.115303 223.371785 
L 316.484393 216.493305 
L 413.191074 235.162346 
L 354.202498 223.774714 
L 66.102102 168.157481 
L 118.815586 178.333718 
L 228.031925 199.417725 
L 76.815017 170.225588 
L 202.722158 194.531722 
L 290.769346 211.529064 
L 190.800156 192.230203 
L 142.09895 182.828528 
L 167.483019 187.728874 
L 245.79672 202.847185 
L 166.73325 187.584132 
L 131.413054 180.765636 
L 156.702557 185.647726 
L 203.958263 194.77035 
L 193.454744 192.742666 
L 268.884199 207.304178 
L 192.907615 192.637044 
L 159.640841 186.214956 
L 177.756879 189.712223 
L 168.928519 188.007925 
L 104.009338 175.4754 
L 132.885573 181.049903 
L 210.233356 195.981745 
L 223.499538 198.542756 
L 391.819283 231.036562 
L 258.407698 205.28171 
L 259.225014 205.439491 
L 249.106511 203.486133 
L 96.450857 174.01625 
L 292.417486 211.847235 
L 219.642618 197.798185 
L 230.396061 199.874117 
L 339.180101 220.874669 
L 154.959851 185.3113 
L 409.678643 234.484278 
" clip-path="url(#p1a15deb739)" style="fill: none; stroke: #1f77b4; stroke-width: 1.5; stroke-linecap: square"/>
   </g>
   <g id="line2d_13">
    <defs>
     <path id="mf91c3cc2eb" d="M 0 3 
C 0.795609 3 1.55874 2.683901 2.12132 2.12132 
C 2.683901 1.55874 3 0.795609 3 0 
C 3 -0.795609 2.683901 -1.55874 2.12132 -2.12132 
C 1.55874 -2.683901 0.795609 -3 0 -3 
C -0.795609 -3 -1.55874 -2.683901 -2.12132 -2.12132 
C -2.683901 -1.55874 -3 -0.795609 -3 0 
C -3 0.795609 -2.683901 1.55874 -2.12132 2.12132 
C -1.55874 2.683901 -0.795609 3 0 3 
z
" style="stroke: #000000"/>
    </defs>
    <g clip-path="url(#p1a15deb739)">
     <use xlink:href="#mf91c3cc2eb" x="286.621975" y="174.987036" style="stroke: #000000"/>
     <use xlink:href="#mf91c3cc2eb" x="356.222146" y="184.107065" style="stroke: #000000"/>
     <use xlink:href="#mf91c3cc2eb" x="254.125234" y="61.183494" style="stroke: #000000"/>
     <use xlink:href="#mf91c3cc2eb" x="284.723912" y="156.18609" style="stroke: #000000"/>
     <use xlink:href="#mf91c3cc2eb" x="275.0985" y="215.865521" style="stroke: #000000"/>
     <use xlink:href="#mf91c3cc2eb" x="363.638779" y="212.799852" style="stroke: #000000"/>
     <use xlink:href="#mf91c3cc2eb" x="286.52741" y="267.492839" style="stroke: #000000"/>
     <use xlink:href="#mf91c3cc2eb" x="319.949541" y="181.944684" style="stroke: #000000"/>
     <use xlink:href="#mf91c3cc2eb" x="353.054203" y="210.746562" style="stroke: #000000"/>
     <use xlink:href="#mf91c3cc2eb" x="431.719148" y="299.670585" style="stroke: #000000"/>
     <use xlink:href="#mf91c3cc2eb" x="213.657976" y="160.275448" style="stroke: #000000"/>
     <use xlink:href="#mf91c3cc2eb" x="352.115303" y="187.891383" style="stroke: #000000"/>
     <use xlink:href="#mf91c3cc2eb" x="316.484393" y="189.017188" style="stroke: #000000"/>
     <use xlink:href="#mf91c3cc2eb" x="413.191074" y="230.615852" style="stroke: #000000"/>
     <use xlink:href="#mf91c3cc2eb" x="354.202498" y="237.114372" style="stroke: #000000"/>
     <use xlink:href="#mf91c3cc2eb" x="66.102102" y="148.354635" style="stroke: #000000"/>
     <use xlink:href="#mf91c3cc2eb" x="118.815586" y="160.918952" style="stroke: #000000"/>
     <use xlink:href="#mf91c3cc2eb" x="228.031925" y="165.85568" style="stroke: #000000"/>
     <use xlink:href="#mf91c3cc2eb" x="76.815017" y="158.268638" style="stroke: #000000"/>
     <use xlink:href="#mf91c3cc2eb" x="202.722158" y="186.213767" style="stroke: #000000"/>
     <use xlink:href="#mf91c3cc2eb" x="290.769346" y="154.599113" style="stroke: #000000"/>
     <use xlink:href="#mf91c3cc2eb" x="190.800156" y="165.206909" style="stroke: #000000"/>
     <use xlink:href="#mf91c3cc2eb" x="142.09895" y="184.065709" style="stroke: #000000"/>
     <use xlink:href="#mf91c3cc2eb" x="167.483019" y="159.972247" style="stroke: #000000"/>
     <use xlink:href="#mf91c3cc2eb" x="245.79672" y="196.853691" style="stroke: #000000"/>
     <use xlink:href="#mf91c3cc2eb" x="166.73325" y="172.208106" style="stroke: #000000"/>
     <use xlink:href="#mf91c3cc2eb" x="131.413054" y="180.755817" style="stroke: #000000"/>
     <use xlink:href="#mf91c3cc2eb" x="156.702557" y="132.174222" style="stroke: #000000"/>
     <use xlink:href="#mf91c3cc2eb" x="203.958263" y="154.662858" style="stroke: #000000"/>
     <use xlink:href="#mf91c3cc2eb" x="193.454744" y="192.246942" style="stroke: #000000"/>
     <use xlink:href="#mf91c3cc2eb" x="268.884199" y="238.26176" style="stroke: #000000"/>
     <use xlink:href="#mf91c3cc2eb" x="192.907615" y="177.492052" style="stroke: #000000"/>
     <use xlink:href="#mf91c3cc2eb" x="159.640841" y="168.79322" style="stroke: #000000"/>
     <use xlink:href="#mf91c3cc2eb" x="177.756879" y="189.704685" style="stroke: #000000"/>
     <use xlink:href="#mf91c3cc2eb" x="168.928519" y="155.104563" style="stroke: #000000"/>
     <use xlink:href="#mf91c3cc2eb" x="104.009338" y="284.02743" style="stroke: #000000"/>
     <use xlink:href="#mf91c3cc2eb" x="132.885573" y="265.094768" style="stroke: #000000"/>
     <use xlink:href="#mf91c3cc2eb" x="210.233356" y="176.095976" style="stroke: #000000"/>
     <use xlink:href="#mf91c3cc2eb" x="223.499538" y="178.989256" style="stroke: #000000"/>
     <use xlink:href="#mf91c3cc2eb" x="391.819283" y="267.278598" style="stroke: #000000"/>
     <use xlink:href="#mf91c3cc2eb" x="258.407698" y="286.277794" style="stroke: #000000"/>
     <use xlink:href="#mf91c3cc2eb" x="259.225014" y="250.034121" style="stroke: #000000"/>
     <use xlink:href="#mf91c3cc2eb" x="249.106511" y="257.41587" style="stroke: #000000"/>
     <use xlink:href="#mf91c3cc2eb" x="96.450857" y="233.271847" style="stroke: #000000"/>
     <use xlink:href="#mf91c3cc2eb" x="292.417486" y="238.419502" style="stroke: #000000"/>
     <use xlink:href="#mf91c3cc2eb" x="219.642618" y="220.557228" style="stroke: #000000"/>
     <use xlink:href="#mf91c3cc2eb" x="230.396061" y="172.100252" style="stroke: #000000"/>
     <use xlink:href="#mf91c3cc2eb" x="339.180101" y="280.675259" style="stroke: #000000"/>
     <use xlink:href="#mf91c3cc2eb" x="154.959851" y="274.089613" style="stroke: #000000"/>
     <use xlink:href="#mf91c3cc2eb" x="409.678643" y="287.19745" style="stroke: #000000"/>
    </g>
   </g>
   <g id="patch_3">
    <path d="M 47.82125 303.64 
L 47.82125 46.675687 
" style="fill: none; stroke: #000000; stroke-width: 0.8; stroke-linejoin: miter; stroke-linecap: square"/>
   </g>
   <g id="patch_4">
    <path d="M 450 303.64 
L 450 46.675687 
" style="fill: none; stroke: #000000; stroke-width: 0.8; stroke-linejoin: miter; stroke-linecap: square"/>
   </g>
   <g id="patch_5">
    <path d="M 47.82125 303.64 
L 450 303.64 
" style="fill: none; stroke: #000000; stroke-width: 0.8; stroke-linejoin: miter; stroke-linecap: square"/>
   </g>
   <g id="patch_6">
    <path d="M 47.82125 46.675687 
L 450 46.675687 
" style="fill: none; stroke: #000000; stroke-width: 0.8; stroke-linejoin: miter; stroke-linecap: square"/>
   </g>
   <g id="text_14">
    <!-- y = -0.00x + -0.05 -->
    <g transform="translate(41.511 18.599344) scale(0.1 -0.1)">
     <defs>
      <path id="DejaVuSans-79" d="M 2059 -325 
Q 1816 -950 1584 -1140 
Q 1353 -1331 966 -1331 
L 506 -1331 
L 506 -850 
L 844 -850 
Q 1081 -850 1212 -737 
Q 1344 -625 1503 -206 
L 1606 56 
L 191 3500 
L 800 3500 
L 1894 763 
L 2988 3500 
L 3597 3500 
L 2059 -325 
z
" transform="scale(0.015625)"/>
      <path id="DejaVuSans-20" transform="scale(0.015625)"/>
      <path id="DejaVuSans-3d" d="M 678 2906 
L 4684 2906 
L 4684 2381 
L 678 2381 
L 678 2906 
z
M 678 1631 
L 4684 1631 
L 4684 1100 
L 678 1100 
L 678 1631 
z
" transform="scale(0.015625)"/>
      <path id="DejaVuSans-2d" d="M 313 2009 
L 1997 2009 
L 1997 1497 
L 313 1497 
L 313 2009 
z
" transform="scale(0.015625)"/>
      <path id="DejaVuSans-78" d="M 3513 3500 
L 2247 1797 
L 3578 0 
L 2900 0 
L 1881 1375 
L 863 0 
L 184 0 
L 1544 1831 
L 300 3500 
L 978 3500 
L 1906 2253 
L 2834 3500 
L 3513 3500 
z
" transform="scale(0.015625)"/>
      <path id="DejaVuSans-2b" d="M 2944 4013 
L 2944 2272 
L 4684 2272 
L 4684 1741 
L 2944 1741 
L 2944 0 
L 2419 0 
L 2419 1741 
L 678 1741 
L 678 2272 
L 2419 2272 
L 2419 4013 
L 2944 4013 
z
" transform="scale(0.015625)"/>
     </defs>
     <use xlink:href="#DejaVuSans-79"/>
     <use xlink:href="#DejaVuSans-20" x="59.179688"/>
     <use xlink:href="#DejaVuSans-3d" x="90.966797"/>
     <use xlink:href="#DejaVuSans-20" x="174.755859"/>
     <use xlink:href="#DejaVuSans-2d" x="206.542969"/>
     <use xlink:href="#DejaVuSans-30" x="242.626953"/>
     <use xlink:href="#DejaVuSans-2e" x="306.25"/>
     <use xlink:href="#DejaVuSans-30" x="338.037109"/>
     <use xlink:href="#DejaVuSans-30" x="401.660156"/>
     <use xlink:href="#DejaVuSans-78" x="465.283203"/>
     <use xlink:href="#DejaVuSans-20" x="524.462891"/>
     <use xlink:href="#DejaVuSans-2b" x="556.25"/>
     <use xlink:href="#DejaVuSans-20" x="640.039062"/>
     <use xlink:href="#DejaVuSans-2d" x="671.826172"/>
     <use xlink:href="#DejaVuSans-30" x="707.910156"/>
     <use xlink:href="#DejaVuSans-2e" x="771.533203"/>
     <use xlink:href="#DejaVuSans-30" x="803.320312"/>
     <use xlink:href="#DejaVuSans-35" x="866.943359"/>
    </g>
   </g>
   <g id="text_15">
    <!-- r^2 = 0.13 -->
    <g transform="translate(60.111781 26.308274) scale(0.1 -0.1)">
     <defs>
      <path id="DejaVuSans-5e" d="M 2988 4666 
L 4684 2925 
L 4056 2925 
L 2681 4159 
L 1306 2925 
L 678 2925 
L 2375 4666 
L 2988 4666 
z
" transform="scale(0.015625)"/>
      <path id="DejaVuSans-33" d="M 2597 2516 
Q 3050 2419 3304 2112 
Q 3559 1806 3559 1356 
Q 3559 666 3084 287 
Q 2609 -91 1734 -91 
Q 1441 -91 1130 -33 
Q 819 25 488 141 
L 488 750 
Q 750 597 1062 519 
Q 1375 441 1716 441 
Q 2309 441 2620 675 
Q 2931 909 2931 1356 
Q 2931 1769 2642 2001 
Q 2353 2234 1838 2234 
L 1294 2234 
L 1294 2753 
L 1863 2753 
Q 2328 2753 2575 2939 
Q 2822 3125 2822 3475 
Q 2822 3834 2567 4026 
Q 2313 4219 1838 4219 
Q 1578 4219 1281 4162 
Q 984 4106 628 3988 
L 628 4550 
Q 988 4650 1302 4700 
Q 1616 4750 1894 4750 
Q 2613 4750 3031 4423 
Q 3450 4097 3450 3541 
Q 3450 3153 3228 2886 
Q 3006 2619 2597 2516 
z
" transform="scale(0.015625)"/>
     </defs>
     <use xlink:href="#DejaVuSans-72"/>
     <use xlink:href="#DejaVuSans-5e" x="41.113281"/>
     <use xlink:href="#DejaVuSans-32" x="124.902344"/>
     <use xlink:href="#DejaVuSans-20" x="188.525391"/>
     <use xlink:href="#DejaVuSans-3d" x="220.3125"/>
     <use xlink:href="#DejaVuSans-20" x="304.101562"/>
     <use xlink:href="#DejaVuSans-30" x="335.888672"/>
     <use xlink:href="#DejaVuSans-2e" x="399.511719"/>
     <use xlink:href="#DejaVuSans-31" x="431.298828"/>
     <use xlink:href="#DejaVuSans-33" x="494.921875"/>
    </g>
   </g>
   <g id="text_16">
    <!-- n = 50 -->
    <g transform="translate(71.139906 34.017203) scale(0.1 -0.1)">
     <use xlink:href="#DejaVuSans-6e"/>
     <use xlink:href="#DejaVuSans-20" x="63.378906"/>
     <use xlink:href="#DejaVuSans-3d" x="95.166016"/>
     <use xlink:href="#DejaVuSans-20" x="178.955078"/>
     <use xlink:href="#DejaVuSans-35" x="210.742188"/>
     <use xlink:href="#DejaVuSans-30" x="274.365234"/>
    </g>
   </g>
   <g id="text_17">
    <!-- SasaDiff vs PercentGpA_transformed -->
    <g transform="translate(138.574375 40.675687) scale(0.12 -0.12)">
     <defs>
      <path id="DejaVuSans-76" d="M 191 3500 
L 800 3500 
L 1894 563 
L 2988 3500 
L 3597 3500 
L 2284 0 
L 1503 0 
L 191 3500 
z
" transform="scale(0.015625)"/>
     </defs>
     <use xlink:href="#DejaVuSans-53"/>
     <use xlink:href="#DejaVuSans-61" x="63.476562"/>
     <use xlink:href="#DejaVuSans-73" x="124.755859"/>
     <use xlink:href="#DejaVuSans-61" x="176.855469"/>
     <use xlink:href="#DejaVuSans-44" x="238.134766"/>
     <use xlink:href="#DejaVuSans-69" x="315.136719"/>
     <use xlink:href="#DejaVuSans-66" x="342.919922"/>
     <use xlink:href="#DejaVuSans-66" x="378.125"/>
     <use xlink:href="#DejaVuSans-20" x="413.330078"/>
     <use xlink:href="#DejaVuSans-76" x="445.117188"/>
     <use xlink:href="#DejaVuSans-73" x="504.296875"/>
     <use xlink:href="#DejaVuSans-20" x="556.396484"/>
     <use xlink:href="#DejaVuSans-50" x="588.183594"/>
     <use xlink:href="#DejaVuSans-65" x="644.861328"/>
     <use xlink:href="#DejaVuSans-72" x="706.384766"/>
     <use xlink:href="#DejaVuSans-63" x="745.248047"/>
     <use xlink:href="#DejaVuSans-65" x="800.228516"/>
     <use xlink:href="#DejaVuSans-6e" x="861.751953"/>
     <use xlink:href="#DejaVuSans-74" x="925.130859"/>
     <use xlink:href="#DejaVuSans-47" x="964.339844"/>
     <use xlink:href="#DejaVuSans-70" x="1041.830078"/>
     <use xlink:href="#DejaVuSans-41" x="1105.306641"/>
     <use xlink:href="#DejaVuSans-5f" x="1173.714844"/>
     <use xlink:href="#DejaVuSans-74" x="1223.714844"/>
     <use xlink:href="#DejaVuSans-72" x="1262.923828"/>
     <use xlink:href="#DejaVuSans-61" x="1304.037109"/>
     <use xlink:href="#DejaVuSans-6e" x="1365.316406"/>
     <use xlink:href="#DejaVuSans-73" x="1428.695312"/>
     <use xlink:href="#DejaVuSans-66" x="1480.794922"/>
     <use xlink:href="#DejaVuSans-6f" x="1516"/>
     <use xlink:href="#DejaVuSans-72" x="1577.181641"/>
     <use xlink:href="#DejaVuSans-6d" x="1616.544922"/>
     <use xlink:href="#DejaVuSans-65" x="1713.957031"/>
     <use xlink:href="#DejaVuSans-64" x="1775.480469"/>
    </g>
   </g>
  </g>
 </g>
 <defs>
  <clipPath id="p1a15deb739">
   <rect x="47.82125" y="46.675687" width="402.17875" height="256.964313"/>
  </clipPath>
 </defs>
</svg>
