<?xml version="1.0" encoding="utf-8" standalone="no"?>
<!DOCTYPE svg PUBLIC "-//W3C//DTD SVG 1.1//EN"
  "http://www.w3.org/Graphics/SVG/1.1/DTD/svg11.dtd">
<svg xmlns:xlink="http://www.w3.org/1999/xlink" width="460.8pt" height="345.6pt" viewBox="0 0 460.8 345.6" xmlns="http://www.w3.org/2000/svg" version="1.1">
 <metadata>
  <rdf:RDF xmlns:dc="http://purl.org/dc/elements/1.1/" xmlns:cc="http://creativecommons.org/ns#" xmlns:rdf="http://www.w3.org/1999/02/22-rdf-syntax-ns#">
   <cc:Work>
    <dc:type rdf:resource="http://purl.org/dc/dcmitype/StillImage"/>
    <dc:date>2024-02-11T12:13:00.572597</dc:date>
    <dc:format>image/svg+xml</dc:format>
    <dc:creator>
     <cc:Agent>
      <dc:title>Matplotlib v3.5.3, https://matplotlib.org/</dc:title>
     </cc:Agent>
    </dc:creator>
   </cc:Work>
  </rdf:RDF>
 </metadata>
 <defs>
  <style type="text/css">*{stroke-linejoin: round; stroke-linecap: butt}</style>
 </defs>
 <g id="figure_1">
  <g id="patch_1">
   <path d="M 0 345.6 
L 460.8 345.6 
L 460.8 0 
L 0 0 
z
" style="fill: #ffffff"/>
  </g>
  <g id="axes_1">
   <g id="patch_2">
    <path d="M 65.54 303.64 
L 450 303.64 
L 450 16.560877 
L 65.54 16.560877 
z
" style="fill: #ffffff"/>
   </g>
   <g id="matplotlib.axis_1">
    <g id="xtick_1">
     <g id="text_1">
      <!-- L -->
      <g style="fill: #262626" transform="translate(254.984062 318.238437)scale(0.1 -0.1)">
       <defs>
        <path id="DejaVuSans-4c" d="M 628 4666 
L 1259 4666 
L 1259 531 
L 3531 531 
L 3531 0 
L 628 0 
L 628 4666 
z
" transform="scale(0.015625)"/>
       </defs>
       <use xlink:href="#DejaVuSans-4c"/>
      </g>
     </g>
    </g>
    <g id="text_2">
     <!-- Sample -->
     <g style="fill: #262626" transform="translate(239.021562 331.916562)scale(0.1 -0.1)">
      <defs>
       <path id="DejaVuSans-53" d="M 3425 4513 
L 3425 3897 
Q 3066 4069 2747 4153 
Q 2428 4238 2131 4238 
Q 1616 4238 1336 4038 
Q 1056 3838 1056 3469 
Q 1056 3159 1242 3001 
Q 1428 2844 1947 2747 
L 2328 2669 
Q 3034 2534 3370 2195 
Q 3706 1856 3706 1288 
Q 3706 609 3251 259 
Q 2797 -91 1919 -91 
Q 1588 -91 1214 -16 
Q 841 59 441 206 
L 441 856 
Q 825 641 1194 531 
Q 1563 422 1919 422 
Q 2459 422 2753 634 
Q 3047 847 3047 1241 
Q 3047 1584 2836 1778 
Q 2625 1972 2144 2069 
L 1759 2144 
Q 1053 2284 737 2584 
Q 422 2884 422 3419 
Q 422 4038 858 4394 
Q 1294 4750 2059 4750 
Q 2388 4750 2728 4690 
Q 3069 4631 3425 4513 
z
" transform="scale(0.015625)"/>
       <path id="DejaVuSans-61" d="M 2194 1759 
Q 1497 1759 1228 1600 
Q 959 1441 959 1056 
Q 959 750 1161 570 
Q 1363 391 1709 391 
Q 2188 391 2477 730 
Q 2766 1069 2766 1631 
L 2766 1759 
L 2194 1759 
z
M 3341 1997 
L 3341 0 
L 2766 0 
L 2766 531 
Q 2569 213 2275 61 
Q 1981 -91 1556 -91 
Q 1019 -91 701 211 
Q 384 513 384 1019 
Q 384 1609 779 1909 
Q 1175 2209 1959 2209 
L 2766 2209 
L 2766 2266 
Q 2766 2663 2505 2880 
Q 2244 3097 1772 3097 
Q 1472 3097 1187 3025 
Q 903 2953 641 2809 
L 641 3341 
Q 956 3463 1253 3523 
Q 1550 3584 1831 3584 
Q 2591 3584 2966 3190 
Q 3341 2797 3341 1997 
z
" transform="scale(0.015625)"/>
       <path id="DejaVuSans-6d" d="M 3328 2828 
Q 3544 3216 3844 3400 
Q 4144 3584 4550 3584 
Q 5097 3584 5394 3201 
Q 5691 2819 5691 2113 
L 5691 0 
L 5113 0 
L 5113 2094 
Q 5113 2597 4934 2840 
Q 4756 3084 4391 3084 
Q 3944 3084 3684 2787 
Q 3425 2491 3425 1978 
L 3425 0 
L 2847 0 
L 2847 2094 
Q 2847 2600 2669 2842 
Q 2491 3084 2119 3084 
Q 1678 3084 1418 2786 
Q 1159 2488 1159 1978 
L 1159 0 
L 581 0 
L 581 3500 
L 1159 3500 
L 1159 2956 
Q 1356 3278 1631 3431 
Q 1906 3584 2284 3584 
Q 2666 3584 2933 3390 
Q 3200 3197 3328 2828 
z
" transform="scale(0.015625)"/>
       <path id="DejaVuSans-70" d="M 1159 525 
L 1159 -1331 
L 581 -1331 
L 581 3500 
L 1159 3500 
L 1159 2969 
Q 1341 3281 1617 3432 
Q 1894 3584 2278 3584 
Q 2916 3584 3314 3078 
Q 3713 2572 3713 1747 
Q 3713 922 3314 415 
Q 2916 -91 2278 -91 
Q 1894 -91 1617 61 
Q 1341 213 1159 525 
z
M 3116 1747 
Q 3116 2381 2855 2742 
Q 2594 3103 2138 3103 
Q 1681 3103 1420 2742 
Q 1159 2381 1159 1747 
Q 1159 1113 1420 752 
Q 1681 391 2138 391 
Q 2594 391 2855 752 
Q 3116 1113 3116 1747 
z
" transform="scale(0.015625)"/>
       <path id="DejaVuSans-6c" d="M 603 4863 
L 1178 4863 
L 1178 0 
L 603 0 
L 603 4863 
z
" transform="scale(0.015625)"/>
       <path id="DejaVuSans-65" d="M 3597 1894 
L 3597 1613 
L 953 1613 
Q 991 1019 1311 708 
Q 1631 397 2203 397 
Q 2534 397 2845 478 
Q 3156 559 3463 722 
L 3463 178 
Q 3153 47 2828 -22 
Q 2503 -91 2169 -91 
Q 1331 -91 842 396 
Q 353 884 353 1716 
Q 353 2575 817 3079 
Q 1281 3584 2069 3584 
Q 2775 3584 3186 3129 
Q 3597 2675 3597 1894 
z
M 3022 2063 
Q 3016 2534 2758 2815 
Q 2500 3097 2075 3097 
Q 1594 3097 1305 2825 
Q 1016 2553 972 2059 
L 3022 2063 
z
" transform="scale(0.015625)"/>
      </defs>
      <use xlink:href="#DejaVuSans-53"/>
      <use xlink:href="#DejaVuSans-61" x="63.476562"/>
      <use xlink:href="#DejaVuSans-6d" x="124.755859"/>
      <use xlink:href="#DejaVuSans-70" x="222.167969"/>
      <use xlink:href="#DejaVuSans-6c" x="285.644531"/>
      <use xlink:href="#DejaVuSans-65" x="313.427734"/>
     </g>
    </g>
   </g>
   <g id="matplotlib.axis_2">
    <g id="ytick_1">
     <g id="line2d_1">
      <path d="M 65.54 289.597223 
L 450 289.597223 
" clip-path="url(#pe1dfa683af)" style="fill: none; stroke: #cccccc; stroke-width: 0.8; stroke-linecap: round"/>
     </g>
     <g id="text_3">
      <!-- −6000 -->
      <g style="fill: #262626" transform="translate(24.710313 293.396442)scale(0.1 -0.1)">
       <defs>
        <path id="DejaVuSans-2212" d="M 678 2272 
L 4684 2272 
L 4684 1741 
L 678 1741 
L 678 2272 
z
" transform="scale(0.015625)"/>
        <path id="DejaVuSans-36" d="M 2113 2584 
Q 1688 2584 1439 2293 
Q 1191 2003 1191 1497 
Q 1191 994 1439 701 
Q 1688 409 2113 409 
Q 2538 409 2786 701 
Q 3034 994 3034 1497 
Q 3034 2003 2786 2293 
Q 2538 2584 2113 2584 
z
M 3366 4563 
L 3366 3988 
Q 3128 4100 2886 4159 
Q 2644 4219 2406 4219 
Q 1781 4219 1451 3797 
Q 1122 3375 1075 2522 
Q 1259 2794 1537 2939 
Q 1816 3084 2150 3084 
Q 2853 3084 3261 2657 
Q 3669 2231 3669 1497 
Q 3669 778 3244 343 
Q 2819 -91 2113 -91 
Q 1303 -91 875 529 
Q 447 1150 447 2328 
Q 447 3434 972 4092 
Q 1497 4750 2381 4750 
Q 2619 4750 2861 4703 
Q 3103 4656 3366 4563 
z
" transform="scale(0.015625)"/>
        <path id="DejaVuSans-30" d="M 2034 4250 
Q 1547 4250 1301 3770 
Q 1056 3291 1056 2328 
Q 1056 1369 1301 889 
Q 1547 409 2034 409 
Q 2525 409 2770 889 
Q 3016 1369 3016 2328 
Q 3016 3291 2770 3770 
Q 2525 4250 2034 4250 
z
M 2034 4750 
Q 2819 4750 3233 4129 
Q 3647 3509 3647 2328 
Q 3647 1150 3233 529 
Q 2819 -91 2034 -91 
Q 1250 -91 836 529 
Q 422 1150 422 2328 
Q 422 3509 836 4129 
Q 1250 4750 2034 4750 
z
" transform="scale(0.015625)"/>
       </defs>
       <use xlink:href="#DejaVuSans-2212"/>
       <use xlink:href="#DejaVuSans-36" x="83.789062"/>
       <use xlink:href="#DejaVuSans-30" x="147.412109"/>
       <use xlink:href="#DejaVuSans-30" x="211.035156"/>
       <use xlink:href="#DejaVuSans-30" x="274.658203"/>
      </g>
     </g>
    </g>
    <g id="ytick_2">
     <g id="line2d_2">
      <path d="M 65.54 254.501176 
L 450 254.501176 
" clip-path="url(#pe1dfa683af)" style="fill: none; stroke: #cccccc; stroke-width: 0.8; stroke-linecap: round"/>
     </g>
     <g id="text_4">
      <!-- −4000 -->
      <g style="fill: #262626" transform="translate(24.710313 258.300395)scale(0.1 -0.1)">
       <defs>
        <path id="DejaVuSans-34" d="M 2419 4116 
L 825 1625 
L 2419 1625 
L 2419 4116 
z
M 2253 4666 
L 3047 4666 
L 3047 1625 
L 3713 1625 
L 3713 1100 
L 3047 1100 
L 3047 0 
L 2419 0 
L 2419 1100 
L 313 1100 
L 313 1709 
L 2253 4666 
z
" transform="scale(0.015625)"/>
       </defs>
       <use xlink:href="#DejaVuSans-2212"/>
       <use xlink:href="#DejaVuSans-34" x="83.789062"/>
       <use xlink:href="#DejaVuSans-30" x="147.412109"/>
       <use xlink:href="#DejaVuSans-30" x="211.035156"/>
       <use xlink:href="#DejaVuSans-30" x="274.658203"/>
      </g>
     </g>
    </g>
    <g id="ytick_3">
     <g id="line2d_3">
      <path d="M 65.54 219.40513 
L 450 219.40513 
" clip-path="url(#pe1dfa683af)" style="fill: none; stroke: #cccccc; stroke-width: 0.8; stroke-linecap: round"/>
     </g>
     <g id="text_5">
      <!-- −2000 -->
      <g style="fill: #262626" transform="translate(24.710313 223.204348)scale(0.1 -0.1)">
       <defs>
        <path id="DejaVuSans-32" d="M 1228 531 
L 3431 531 
L 3431 0 
L 469 0 
L 469 531 
Q 828 903 1448 1529 
Q 2069 2156 2228 2338 
Q 2531 2678 2651 2914 
Q 2772 3150 2772 3378 
Q 2772 3750 2511 3984 
Q 2250 4219 1831 4219 
Q 1534 4219 1204 4116 
Q 875 4013 500 3803 
L 500 4441 
Q 881 4594 1212 4672 
Q 1544 4750 1819 4750 
Q 2544 4750 2975 4387 
Q 3406 4025 3406 3419 
Q 3406 3131 3298 2873 
Q 3191 2616 2906 2266 
Q 2828 2175 2409 1742 
Q 1991 1309 1228 531 
z
" transform="scale(0.015625)"/>
       </defs>
       <use xlink:href="#DejaVuSans-2212"/>
       <use xlink:href="#DejaVuSans-32" x="83.789062"/>
       <use xlink:href="#DejaVuSans-30" x="147.412109"/>
       <use xlink:href="#DejaVuSans-30" x="211.035156"/>
       <use xlink:href="#DejaVuSans-30" x="274.658203"/>
      </g>
     </g>
    </g>
    <g id="ytick_4">
     <g id="line2d_4">
      <path d="M 65.54 184.309083 
L 450 184.309083 
" clip-path="url(#pe1dfa683af)" style="fill: none; stroke: #cccccc; stroke-width: 0.8; stroke-linecap: round"/>
     </g>
     <g id="text_6">
      <!-- 0 -->
      <g style="fill: #262626" transform="translate(52.1775 188.108302)scale(0.1 -0.1)">
       <use xlink:href="#DejaVuSans-30"/>
      </g>
     </g>
    </g>
    <g id="ytick_5">
     <g id="line2d_5">
      <path d="M 65.54 149.213036 
L 450 149.213036 
" clip-path="url(#pe1dfa683af)" style="fill: none; stroke: #cccccc; stroke-width: 0.8; stroke-linecap: round"/>
     </g>
     <g id="text_7">
      <!-- 2000 -->
      <g style="fill: #262626" transform="translate(33.09 153.012255)scale(0.1 -0.1)">
       <use xlink:href="#DejaVuSans-32"/>
       <use xlink:href="#DejaVuSans-30" x="63.623047"/>
       <use xlink:href="#DejaVuSans-30" x="127.246094"/>
       <use xlink:href="#DejaVuSans-30" x="190.869141"/>
      </g>
     </g>
    </g>
    <g id="ytick_6">
     <g id="line2d_6">
      <path d="M 65.54 114.11699 
L 450 114.11699 
" clip-path="url(#pe1dfa683af)" style="fill: none; stroke: #cccccc; stroke-width: 0.8; stroke-linecap: round"/>
     </g>
     <g id="text_8">
      <!-- 4000 -->
      <g style="fill: #262626" transform="translate(33.09 117.916208)scale(0.1 -0.1)">
       <use xlink:href="#DejaVuSans-34"/>
       <use xlink:href="#DejaVuSans-30" x="63.623047"/>
       <use xlink:href="#DejaVuSans-30" x="127.246094"/>
       <use xlink:href="#DejaVuSans-30" x="190.869141"/>
      </g>
     </g>
    </g>
    <g id="ytick_7">
     <g id="line2d_7">
      <path d="M 65.54 79.020943 
L 450 79.020943 
" clip-path="url(#pe1dfa683af)" style="fill: none; stroke: #cccccc; stroke-width: 0.8; stroke-linecap: round"/>
     </g>
     <g id="text_9">
      <!-- 6000 -->
      <g style="fill: #262626" transform="translate(33.09 82.820162)scale(0.1 -0.1)">
       <use xlink:href="#DejaVuSans-36"/>
       <use xlink:href="#DejaVuSans-30" x="63.623047"/>
       <use xlink:href="#DejaVuSans-30" x="127.246094"/>
       <use xlink:href="#DejaVuSans-30" x="190.869141"/>
      </g>
     </g>
    </g>
    <g id="ytick_8">
     <g id="line2d_8">
      <path d="M 65.54 43.924896 
L 450 43.924896 
" clip-path="url(#pe1dfa683af)" style="fill: none; stroke: #cccccc; stroke-width: 0.8; stroke-linecap: round"/>
     </g>
     <g id="text_10">
      <!-- 8000 -->
      <g style="fill: #262626" transform="translate(33.09 47.724115)scale(0.1 -0.1)">
       <defs>
        <path id="DejaVuSans-38" d="M 2034 2216 
Q 1584 2216 1326 1975 
Q 1069 1734 1069 1313 
Q 1069 891 1326 650 
Q 1584 409 2034 409 
Q 2484 409 2743 651 
Q 3003 894 3003 1313 
Q 3003 1734 2745 1975 
Q 2488 2216 2034 2216 
z
M 1403 2484 
Q 997 2584 770 2862 
Q 544 3141 544 3541 
Q 544 4100 942 4425 
Q 1341 4750 2034 4750 
Q 2731 4750 3128 4425 
Q 3525 4100 3525 3541 
Q 3525 3141 3298 2862 
Q 3072 2584 2669 2484 
Q 3125 2378 3379 2068 
Q 3634 1759 3634 1313 
Q 3634 634 3220 271 
Q 2806 -91 2034 -91 
Q 1263 -91 848 271 
Q 434 634 434 1313 
Q 434 1759 690 2068 
Q 947 2378 1403 2484 
z
M 1172 3481 
Q 1172 3119 1398 2916 
Q 1625 2713 2034 2713 
Q 2441 2713 2670 2916 
Q 2900 3119 2900 3481 
Q 2900 3844 2670 4047 
Q 2441 4250 2034 4250 
Q 1625 4250 1398 4047 
Q 1172 3844 1172 3481 
z
" transform="scale(0.015625)"/>
       </defs>
       <use xlink:href="#DejaVuSans-38"/>
       <use xlink:href="#DejaVuSans-30" x="63.623047"/>
       <use xlink:href="#DejaVuSans-30" x="127.246094"/>
       <use xlink:href="#DejaVuSans-30" x="190.869141"/>
      </g>
     </g>
    </g>
    <g id="text_11">
     <!-- Delta Fluorescence -->
     <g style="fill: #262626" transform="translate(18.630625 207.966845)rotate(-90)scale(0.1 -0.1)">
      <defs>
       <path id="DejaVuSans-44" d="M 1259 4147 
L 1259 519 
L 2022 519 
Q 2988 519 3436 956 
Q 3884 1394 3884 2338 
Q 3884 3275 3436 3711 
Q 2988 4147 2022 4147 
L 1259 4147 
z
M 628 4666 
L 1925 4666 
Q 3281 4666 3915 4102 
Q 4550 3538 4550 2338 
Q 4550 1131 3912 565 
Q 3275 0 1925 0 
L 628 0 
L 628 4666 
z
" transform="scale(0.015625)"/>
       <path id="DejaVuSans-74" d="M 1172 4494 
L 1172 3500 
L 2356 3500 
L 2356 3053 
L 1172 3053 
L 1172 1153 
Q 1172 725 1289 603 
Q 1406 481 1766 481 
L 2356 481 
L 2356 0 
L 1766 0 
Q 1100 0 847 248 
Q 594 497 594 1153 
L 594 3053 
L 172 3053 
L 172 3500 
L 594 3500 
L 594 4494 
L 1172 4494 
z
" transform="scale(0.015625)"/>
       <path id="DejaVuSans-20" transform="scale(0.015625)"/>
       <path id="DejaVuSans-46" d="M 628 4666 
L 3309 4666 
L 3309 4134 
L 1259 4134 
L 1259 2759 
L 3109 2759 
L 3109 2228 
L 1259 2228 
L 1259 0 
L 628 0 
L 628 4666 
z
" transform="scale(0.015625)"/>
       <path id="DejaVuSans-75" d="M 544 1381 
L 544 3500 
L 1119 3500 
L 1119 1403 
Q 1119 906 1312 657 
Q 1506 409 1894 409 
Q 2359 409 2629 706 
Q 2900 1003 2900 1516 
L 2900 3500 
L 3475 3500 
L 3475 0 
L 2900 0 
L 2900 538 
Q 2691 219 2414 64 
Q 2138 -91 1772 -91 
Q 1169 -91 856 284 
Q 544 659 544 1381 
z
M 1991 3584 
L 1991 3584 
z
" transform="scale(0.015625)"/>
       <path id="DejaVuSans-6f" d="M 1959 3097 
Q 1497 3097 1228 2736 
Q 959 2375 959 1747 
Q 959 1119 1226 758 
Q 1494 397 1959 397 
Q 2419 397 2687 759 
Q 2956 1122 2956 1747 
Q 2956 2369 2687 2733 
Q 2419 3097 1959 3097 
z
M 1959 3584 
Q 2709 3584 3137 3096 
Q 3566 2609 3566 1747 
Q 3566 888 3137 398 
Q 2709 -91 1959 -91 
Q 1206 -91 779 398 
Q 353 888 353 1747 
Q 353 2609 779 3096 
Q 1206 3584 1959 3584 
z
" transform="scale(0.015625)"/>
       <path id="DejaVuSans-72" d="M 2631 2963 
Q 2534 3019 2420 3045 
Q 2306 3072 2169 3072 
Q 1681 3072 1420 2755 
Q 1159 2438 1159 1844 
L 1159 0 
L 581 0 
L 581 3500 
L 1159 3500 
L 1159 2956 
Q 1341 3275 1631 3429 
Q 1922 3584 2338 3584 
Q 2397 3584 2469 3576 
Q 2541 3569 2628 3553 
L 2631 2963 
z
" transform="scale(0.015625)"/>
       <path id="DejaVuSans-73" d="M 2834 3397 
L 2834 2853 
Q 2591 2978 2328 3040 
Q 2066 3103 1784 3103 
Q 1356 3103 1142 2972 
Q 928 2841 928 2578 
Q 928 2378 1081 2264 
Q 1234 2150 1697 2047 
L 1894 2003 
Q 2506 1872 2764 1633 
Q 3022 1394 3022 966 
Q 3022 478 2636 193 
Q 2250 -91 1575 -91 
Q 1294 -91 989 -36 
Q 684 19 347 128 
L 347 722 
Q 666 556 975 473 
Q 1284 391 1588 391 
Q 1994 391 2212 530 
Q 2431 669 2431 922 
Q 2431 1156 2273 1281 
Q 2116 1406 1581 1522 
L 1381 1569 
Q 847 1681 609 1914 
Q 372 2147 372 2553 
Q 372 3047 722 3315 
Q 1072 3584 1716 3584 
Q 2034 3584 2315 3537 
Q 2597 3491 2834 3397 
z
" transform="scale(0.015625)"/>
       <path id="DejaVuSans-63" d="M 3122 3366 
L 3122 2828 
Q 2878 2963 2633 3030 
Q 2388 3097 2138 3097 
Q 1578 3097 1268 2742 
Q 959 2388 959 1747 
Q 959 1106 1268 751 
Q 1578 397 2138 397 
Q 2388 397 2633 464 
Q 2878 531 3122 666 
L 3122 134 
Q 2881 22 2623 -34 
Q 2366 -91 2075 -91 
Q 1284 -91 818 406 
Q 353 903 353 1747 
Q 353 2603 823 3093 
Q 1294 3584 2113 3584 
Q 2378 3584 2631 3529 
Q 2884 3475 3122 3366 
z
" transform="scale(0.015625)"/>
       <path id="DejaVuSans-6e" d="M 3513 2113 
L 3513 0 
L 2938 0 
L 2938 2094 
Q 2938 2591 2744 2837 
Q 2550 3084 2163 3084 
Q 1697 3084 1428 2787 
Q 1159 2491 1159 1978 
L 1159 0 
L 581 0 
L 581 3500 
L 1159 3500 
L 1159 2956 
Q 1366 3272 1645 3428 
Q 1925 3584 2291 3584 
Q 2894 3584 3203 3211 
Q 3513 2838 3513 2113 
z
" transform="scale(0.015625)"/>
      </defs>
      <use xlink:href="#DejaVuSans-44"/>
      <use xlink:href="#DejaVuSans-65" x="77.001953"/>
      <use xlink:href="#DejaVuSans-6c" x="138.525391"/>
      <use xlink:href="#DejaVuSans-74" x="166.308594"/>
      <use xlink:href="#DejaVuSans-61" x="205.517578"/>
      <use xlink:href="#DejaVuSans-20" x="266.796875"/>
      <use xlink:href="#DejaVuSans-46" x="298.583984"/>
      <use xlink:href="#DejaVuSans-6c" x="356.103516"/>
      <use xlink:href="#DejaVuSans-75" x="383.886719"/>
      <use xlink:href="#DejaVuSans-6f" x="447.265625"/>
      <use xlink:href="#DejaVuSans-72" x="508.447266"/>
      <use xlink:href="#DejaVuSans-65" x="547.310547"/>
      <use xlink:href="#DejaVuSans-73" x="608.833984"/>
      <use xlink:href="#DejaVuSans-63" x="660.933594"/>
      <use xlink:href="#DejaVuSans-65" x="715.914062"/>
      <use xlink:href="#DejaVuSans-6e" x="777.4375"/>
      <use xlink:href="#DejaVuSans-63" x="840.816406"/>
      <use xlink:href="#DejaVuSans-65" x="895.796875"/>
     </g>
    </g>
   </g>
   <g id="patch_3">
    <path d="M 105.52384 198.100852 
L 256.23216 198.100852 
L 256.23216 137.780982 
L 105.52384 137.780982 
L 105.52384 198.100852 
z
" clip-path="url(#pe1dfa683af)" style="fill: #ecf2ec; stroke: #262626; stroke-width: 1.5; stroke-linejoin: miter"/>
   </g>
   <g id="patch_4">
    <path d="M 259.30784 223.846209 
L 410.01616 223.846209 
L 410.01616 172.371168 
L 259.30784 172.371168 
L 259.30784 223.846209 
z
" clip-path="url(#pe1dfa683af)" style="fill: #107010; stroke: #262626; stroke-width: 1.5; stroke-linejoin: miter"/>
   </g>
   <g id="patch_5">
    <path d="M 257.77 184.309083 
L 257.77 184.309083 
L 257.77 184.309083 
L 257.77 184.309083 
z
" clip-path="url(#pe1dfa683af)" style="fill: #ecf2ec; stroke: #262626; stroke-width: 0.75; stroke-linejoin: miter"/>
   </g>
   <g id="patch_6">
    <path d="M 257.77 184.309083 
L 257.77 184.309083 
L 257.77 184.309083 
L 257.77 184.309083 
z
" clip-path="url(#pe1dfa683af)" style="fill: #107010; stroke: #262626; stroke-width: 0.75; stroke-linejoin: miter"/>
   </g>
   <g id="PathCollection_1"/>
   <g id="PathCollection_2"/>
   <g id="line2d_9">
    <path d="M 180.878 198.100852 
L 180.878 284.469365 
" clip-path="url(#pe1dfa683af)" style="fill: none; stroke: #262626; stroke-width: 1.5; stroke-linecap: round"/>
   </g>
   <g id="line2d_10">
    <path d="M 180.878 137.780982 
L 180.878 48.801128 
" clip-path="url(#pe1dfa683af)" style="fill: none; stroke: #262626; stroke-width: 1.5; stroke-linecap: round"/>
   </g>
   <g id="line2d_11">
    <path d="M 143.20092 284.469365 
L 218.55508 284.469365 
" clip-path="url(#pe1dfa683af)" style="fill: none; stroke: #262626; stroke-width: 1.5; stroke-linecap: round"/>
   </g>
   <g id="line2d_12">
    <path d="M 143.20092 48.801128 
L 218.55508 48.801128 
" clip-path="url(#pe1dfa683af)" style="fill: none; stroke: #262626; stroke-width: 1.5; stroke-linecap: round"/>
   </g>
   <g id="line2d_13">
    <defs>
     <path id="m236f244e56" d="M -0 1.414214 
L 0.848528 0 
L 0 -1.414214 
L -0.848528 -0 
z
" style="stroke: #262626; stroke-linejoin: miter"/>
    </defs>
    <g clip-path="url(#pe1dfa683af)">
     <use xlink:href="#m236f244e56" x="180.878" y="16.560877" style="fill: #262626; stroke: #262626; stroke-linejoin: miter"/>
    </g>
   </g>
   <g id="line2d_14">
    <path d="M 334.662 223.846209 
L 334.662 289.560542 
" clip-path="url(#pe1dfa683af)" style="fill: none; stroke: #262626; stroke-width: 1.5; stroke-linecap: round"/>
   </g>
   <g id="line2d_15">
    <path d="M 334.662 172.371168 
L 334.662 104.801009 
" clip-path="url(#pe1dfa683af)" style="fill: none; stroke: #262626; stroke-width: 1.5; stroke-linecap: round"/>
   </g>
   <g id="line2d_16">
    <path d="M 296.98492 289.560542 
L 372.33908 289.560542 
" clip-path="url(#pe1dfa683af)" style="fill: none; stroke: #262626; stroke-width: 1.5; stroke-linecap: round"/>
   </g>
   <g id="line2d_17">
    <path d="M 296.98492 104.801009 
L 372.33908 104.801009 
" clip-path="url(#pe1dfa683af)" style="fill: none; stroke: #262626; stroke-width: 1.5; stroke-linecap: round"/>
   </g>
   <g id="line2d_18">
    <g clip-path="url(#pe1dfa683af)">
     <use xlink:href="#m236f244e56" x="334.662" y="303.64" style="fill: #262626; stroke: #262626; stroke-linejoin: miter"/>
     <use xlink:href="#m236f244e56" x="334.662" y="69.008942" style="fill: #262626; stroke: #262626; stroke-linejoin: miter"/>
    </g>
   </g>
   <g id="line2d_19">
    <path d="M 105.52384 167.059114 
L 256.23216 167.059114 
" clip-path="url(#pe1dfa683af)" style="fill: none; stroke: #262626; stroke-width: 1.5; stroke-linecap: round"/>
   </g>
   <g id="line2d_20">
    <path d="M 259.30784 197.213704 
L 410.01616 197.213704 
" clip-path="url(#pe1dfa683af)" style="fill: none; stroke: #262626; stroke-width: 1.5; stroke-linecap: round"/>
   </g>
   <g id="patch_7">
    <path d="M 65.54 303.64 
L 65.54 16.560877 
" style="fill: none; stroke: #cccccc; stroke-width: 0.8; stroke-linejoin: miter; stroke-linecap: square"/>
   </g>
   <g id="patch_8">
    <path d="M 450 303.64 
L 450 16.560877 
" style="fill: none; stroke: #cccccc; stroke-width: 0.8; stroke-linejoin: miter; stroke-linecap: square"/>
   </g>
   <g id="patch_9">
    <path d="M 65.54 303.64 
L 450 303.64 
" style="fill: none; stroke: #cccccc; stroke-width: 0.8; stroke-linejoin: miter; stroke-linecap: square"/>
   </g>
   <g id="patch_10">
    <path d="M 65.54 16.560877 
L 450 16.560877 
" style="fill: none; stroke: #cccccc; stroke-width: 0.8; stroke-linejoin: miter; stroke-linecap: square"/>
   </g>
   <g id="PathCollection_3">
    <defs>
     <path id="C0_0_f81d835e84" d="M 0 1 
C 0.265203 1 0.51958 0.894634 0.707107 0.707107 
C 0.894634 0.51958 1 0.265203 1 -0 
C 1 -0.265203 0.894634 -0.51958 0.707107 -0.707107 
C 0.51958 -0.894634 0.265203 -1 0 -1 
C -0.265203 -1 -0.51958 -0.894634 -0.707107 -0.707107 
C -0.894634 -0.51958 -1 -0.265203 -1 0 
C -1 0.265203 -0.894634 0.51958 -0.707107 0.707107 
C -0.51958 0.894634 -0.265203 1 0 1 
z
"/>
    </defs>
    <g clip-path="url(#pe1dfa683af)">
     <use xlink:href="#C0_0_f81d835e84" x="199.270667" y="176.847895" style="fill: #262626"/>
    </g>
    <g clip-path="url(#pe1dfa683af)">
     <use xlink:href="#C0_0_f81d835e84" x="176.616742" y="176.022003" style="fill: #262626"/>
    </g>
    <g clip-path="url(#pe1dfa683af)">
     <use xlink:href="#C0_0_f81d835e84" x="186.548614" y="234.748863" style="fill: #262626"/>
    </g>
    <g clip-path="url(#pe1dfa683af)">
     <use xlink:href="#C0_0_f81d835e84" x="181.823647" y="223.434587" style="fill: #262626"/>
    </g>
    <g clip-path="url(#pe1dfa683af)">
     <use xlink:href="#C0_0_f81d835e84" x="176.889762" y="197.682963" style="fill: #262626"/>
    </g>
    <g clip-path="url(#pe1dfa683af)">
     <use xlink:href="#C0_0_f81d835e84" x="163.609634" y="175.260283" style="fill: #262626"/>
    </g>
    <g clip-path="url(#pe1dfa683af)">
     <use xlink:href="#C0_0_f81d835e84" x="176.855966" y="103.631567" style="fill: #262626"/>
    </g>
    <g clip-path="url(#pe1dfa683af)">
     <use xlink:href="#C0_0_f81d835e84" x="183.537551" y="190.762371" style="fill: #262626"/>
    </g>
    <g clip-path="url(#pe1dfa683af)">
     <use xlink:href="#C0_0_f81d835e84" x="169.918037" y="124.337216" style="fill: #262626"/>
    </g>
    <g clip-path="url(#pe1dfa683af)">
     <use xlink:href="#C0_0_f81d835e84" x="171.462552" y="173.66321" style="fill: #262626"/>
    </g>
    <g clip-path="url(#pe1dfa683af)">
     <use xlink:href="#C0_0_f81d835e84" x="186.178342" y="191.492558" style="fill: #262626"/>
    </g>
    <g clip-path="url(#pe1dfa683af)">
     <use xlink:href="#C0_0_f81d835e84" x="182.436288" y="146.912762" style="fill: #262626"/>
    </g>
    <g clip-path="url(#pe1dfa683af)">
     <use xlink:href="#C0_0_f81d835e84" x="182.908091" y="160.252793" style="fill: #262626"/>
    </g>
    <g clip-path="url(#pe1dfa683af)">
     <use xlink:href="#C0_0_f81d835e84" x="181.444391" y="102.756219" style="fill: #262626"/>
    </g>
    <g clip-path="url(#pe1dfa683af)">
     <use xlink:href="#C0_0_f81d835e84" x="167.310554" y="212.099425" style="fill: #262626"/>
    </g>
    <g clip-path="url(#pe1dfa683af)">
     <use xlink:href="#C0_0_f81d835e84" x="193.032338" y="127.670093" style="fill: #262626"/>
    </g>
    <g clip-path="url(#pe1dfa683af)">
     <use xlink:href="#C0_0_f81d835e84" x="172.245833" y="113.408986" style="fill: #262626"/>
    </g>
    <g clip-path="url(#pe1dfa683af)">
     <use xlink:href="#C0_0_f81d835e84" x="178.394476" y="179.82679" style="fill: #262626"/>
    </g>
    <g clip-path="url(#pe1dfa683af)">
     <use xlink:href="#C0_0_f81d835e84" x="184.451908" y="222.175183" style="fill: #262626"/>
    </g>
    <g clip-path="url(#pe1dfa683af)">
     <use xlink:href="#C0_0_f81d835e84" x="173.399279" y="203.03707" style="fill: #262626"/>
    </g>
    <g clip-path="url(#pe1dfa683af)">
     <use xlink:href="#C0_0_f81d835e84" x="182.021011" y="174.397253" style="fill: #262626"/>
    </g>
    <g clip-path="url(#pe1dfa683af)">
     <use xlink:href="#C0_0_f81d835e84" x="168.216536" y="169.809165" style="fill: #262626"/>
    </g>
    <g clip-path="url(#pe1dfa683af)">
     <use xlink:href="#C0_0_f81d835e84" x="195.912614" y="156.098378" style="fill: #262626"/>
    </g>
    <g clip-path="url(#pe1dfa683af)">
     <use xlink:href="#C0_0_f81d835e84" x="185.746191" y="133.045214" style="fill: #262626"/>
    </g>
    <g clip-path="url(#pe1dfa683af)">
     <use xlink:href="#C0_0_f81d835e84" x="197.863573" y="212.502523" style="fill: #262626"/>
    </g>
    <g clip-path="url(#pe1dfa683af)">
     <use xlink:href="#C0_0_f81d835e84" x="182.123504" y="157.943819" style="fill: #262626"/>
    </g>
    <g clip-path="url(#pe1dfa683af)">
     <use xlink:href="#C0_0_f81d835e84" x="165.685238" y="139.081025" style="fill: #262626"/>
    </g>
    <g clip-path="url(#pe1dfa683af)">
     <use xlink:href="#C0_0_f81d835e84" x="197.031365" y="150.396466" style="fill: #262626"/>
    </g>
    <g clip-path="url(#pe1dfa683af)">
     <use xlink:href="#C0_0_f81d835e84" x="192.757808" y="144.988304" style="fill: #262626"/>
    </g>
    <g clip-path="url(#pe1dfa683af)">
     <use xlink:href="#C0_0_f81d835e84" x="168.859611" y="160.84084" style="fill: #262626"/>
    </g>
    <g clip-path="url(#pe1dfa683af)">
     <use xlink:href="#C0_0_f81d835e84" x="163.144787" y="104.702469" style="fill: #262626"/>
    </g>
    <g clip-path="url(#pe1dfa683af)">
     <use xlink:href="#C0_0_f81d835e84" x="163.982518" y="139.576017" style="fill: #262626"/>
    </g>
    <g clip-path="url(#pe1dfa683af)">
     <use xlink:href="#C0_0_f81d835e84" x="181.001565" y="90.566771" style="fill: #262626"/>
    </g>
    <g clip-path="url(#pe1dfa683af)">
     <use xlink:href="#C0_0_f81d835e84" x="167.148374" y="284.469365" style="fill: #262626"/>
    </g>
    <g clip-path="url(#pe1dfa683af)">
     <use xlink:href="#C0_0_f81d835e84" x="167.949107" y="200.401119" style="fill: #262626"/>
    </g>
    <g clip-path="url(#pe1dfa683af)">
     <use xlink:href="#C0_0_f81d835e84" x="174.339682" y="142.786269" style="fill: #262626"/>
    </g>
    <g clip-path="url(#pe1dfa683af)">
     <use xlink:href="#C0_0_f81d835e84" x="199.274974" y="133.880854" style="fill: #262626"/>
    </g>
    <g clip-path="url(#pe1dfa683af)">
     <use xlink:href="#C0_0_f81d835e84" x="196.326213" y="139.591993" style="fill: #262626"/>
    </g>
    <g clip-path="url(#pe1dfa683af)">
     <use xlink:href="#C0_0_f81d835e84" x="184.31648" y="185.10886" style="fill: #262626"/>
    </g>
    <g clip-path="url(#pe1dfa683af)">
     <use xlink:href="#C0_0_f81d835e84" x="196.646566" y="213.837068" style="fill: #262626"/>
    </g>
    <g clip-path="url(#pe1dfa683af)">
     <use xlink:href="#C0_0_f81d835e84" x="162.415529" y="209.416286" style="fill: #262626"/>
    </g>
    <g clip-path="url(#pe1dfa683af)">
     <use xlink:href="#C0_0_f81d835e84" x="193.960146" y="216.542268" style="fill: #262626"/>
    </g>
    <g clip-path="url(#pe1dfa683af)">
     <use xlink:href="#C0_0_f81d835e84" x="167.748216" y="181.427775" style="fill: #262626"/>
    </g>
    <g clip-path="url(#pe1dfa683af)">
     <use xlink:href="#C0_0_f81d835e84" x="168.738171" y="156.021245" style="fill: #262626"/>
    </g>
    <g clip-path="url(#pe1dfa683af)">
     <use xlink:href="#C0_0_f81d835e84" x="167.956564" y="236.465561" style="fill: #262626"/>
    </g>
    <g clip-path="url(#pe1dfa683af)">
     <use xlink:href="#C0_0_f81d835e84" x="172.650538" y="199.35452" style="fill: #262626"/>
    </g>
    <g clip-path="url(#pe1dfa683af)">
     <use xlink:href="#C0_0_f81d835e84" x="183.229514" y="152.461666" style="fill: #262626"/>
    </g>
    <g clip-path="url(#pe1dfa683af)">
     <use xlink:href="#C0_0_f81d835e84" x="182.090567" y="48.801128" style="fill: #262626"/>
    </g>
    <g clip-path="url(#pe1dfa683af)">
     <use xlink:href="#C0_0_f81d835e84" x="182.700934" y="168.88817" style="fill: #262626"/>
    </g>
    <g clip-path="url(#pe1dfa683af)">
     <use xlink:href="#C0_0_f81d835e84" x="162.881449" y="164.743523" style="fill: #262626"/>
    </g>
    <g clip-path="url(#pe1dfa683af)">
     <use xlink:href="#C0_0_f81d835e84" x="165.7179" y="100.65158" style="fill: #262626"/>
    </g>
    <g clip-path="url(#pe1dfa683af)">
     <use xlink:href="#C0_0_f81d835e84" x="184.843795" y="164.127323" style="fill: #262626"/>
    </g>
    <g clip-path="url(#pe1dfa683af)">
     <use xlink:href="#C0_0_f81d835e84" x="191.439429" y="102.33266" style="fill: #262626"/>
    </g>
    <g clip-path="url(#pe1dfa683af)">
     <use xlink:href="#C0_0_f81d835e84" x="181.30733" y="187.545239" style="fill: #262626"/>
    </g>
    <g clip-path="url(#pe1dfa683af)">
     <use xlink:href="#C0_0_f81d835e84" x="188.398038" y="130.570511" style="fill: #262626"/>
    </g>
    <g clip-path="url(#pe1dfa683af)">
     <use xlink:href="#C0_0_f81d835e84" x="189.648079" y="206.189621" style="fill: #262626"/>
    </g>
    <g clip-path="url(#pe1dfa683af)">
     <use xlink:href="#C0_0_f81d835e84" x="176.884962" y="156.087553" style="fill: #262626"/>
    </g>
    <g clip-path="url(#pe1dfa683af)">
     <use xlink:href="#C0_0_f81d835e84" x="174.630795" y="167.68299" style="fill: #262626"/>
    </g>
    <g clip-path="url(#pe1dfa683af)">
     <use xlink:href="#C0_0_f81d835e84" x="172.452836" y="166.435238" style="fill: #262626"/>
    </g>
    <g clip-path="url(#pe1dfa683af)">
     <use xlink:href="#C0_0_f81d835e84" x="178.490716" y="240.683528" style="fill: #262626"/>
    </g>
    <g clip-path="url(#pe1dfa683af)">
     <use xlink:href="#C0_0_f81d835e84" x="194.152115" y="188.121079" style="fill: #262626"/>
    </g>
    <g clip-path="url(#pe1dfa683af)">
     <use xlink:href="#C0_0_f81d835e84" x="172.442295" y="129.008271" style="fill: #262626"/>
    </g>
    <g clip-path="url(#pe1dfa683af)">
     <use xlink:href="#C0_0_f81d835e84" x="180.032069" y="119.046172" style="fill: #262626"/>
    </g>
    <g clip-path="url(#pe1dfa683af)">
     <use xlink:href="#C0_0_f81d835e84" x="191.370066" y="168.93796" style="fill: #262626"/>
    </g>
    <g clip-path="url(#pe1dfa683af)">
     <use xlink:href="#C0_0_f81d835e84" x="197.219083" y="263.454617" style="fill: #262626"/>
    </g>
    <g clip-path="url(#pe1dfa683af)">
     <use xlink:href="#C0_0_f81d835e84" x="169.350191" y="214.580104" style="fill: #262626"/>
    </g>
    <g clip-path="url(#pe1dfa683af)">
     <use xlink:href="#C0_0_f81d835e84" x="185.997985" y="105.540894" style="fill: #262626"/>
    </g>
    <g clip-path="url(#pe1dfa683af)">
     <use xlink:href="#C0_0_f81d835e84" x="183.258989" y="16.560877" style="fill: #262626"/>
    </g>
   </g>
   <g id="PathCollection_4">
    <defs>
     <path id="C1_0_1545d5909a" d="M 0 1 
C 0.265203 1 0.51958 0.894634 0.707107 0.707107 
C 0.894634 0.51958 1 0.265203 1 -0 
C 1 -0.265203 0.894634 -0.51958 0.707107 -0.707107 
C 0.51958 -0.894634 0.265203 -1 0 -1 
C -0.265203 -1 -0.51958 -0.894634 -0.707107 -0.707107 
C -0.894634 -0.51958 -1 -0.265203 -1 0 
C -1 0.265203 -0.894634 0.51958 -0.707107 0.707107 
C -0.51958 0.894634 -0.265203 1 0 1 
z
"/>
    </defs>
    <g clip-path="url(#pe1dfa683af)">
     <use xlink:href="#C1_0_1545d5909a" x="333.614417" y="188.828739"/>
    </g>
    <g clip-path="url(#pe1dfa683af)">
     <use xlink:href="#C1_0_1545d5909a" x="324.331823" y="239.665212"/>
    </g>
    <g clip-path="url(#pe1dfa683af)">
     <use xlink:href="#C1_0_1545d5909a" x="338.957312" y="219.604107"/>
    </g>
    <g clip-path="url(#pe1dfa683af)">
     <use xlink:href="#C1_0_1545d5909a" x="353.404027" y="210.681415"/>
    </g>
    <g clip-path="url(#pe1dfa683af)">
     <use xlink:href="#C1_0_1545d5909a" x="317.744211" y="289.560542"/>
    </g>
    <g clip-path="url(#pe1dfa683af)">
     <use xlink:href="#C1_0_1545d5909a" x="323.670563" y="247.031285"/>
    </g>
    <g clip-path="url(#pe1dfa683af)">
     <use xlink:href="#C1_0_1545d5909a" x="338.417191" y="172.482853"/>
    </g>
    <g clip-path="url(#pe1dfa683af)">
     <use xlink:href="#C1_0_1545d5909a" x="337.909271" y="188.473429"/>
    </g>
    <g clip-path="url(#pe1dfa683af)">
     <use xlink:href="#C1_0_1545d5909a" x="316.733265" y="178.872625"/>
    </g>
    <g clip-path="url(#pe1dfa683af)">
     <use xlink:href="#C1_0_1545d5909a" x="346.336883" y="233.14675"/>
    </g>
    <g clip-path="url(#pe1dfa683af)">
     <use xlink:href="#C1_0_1545d5909a" x="339.875165" y="181.087722"/>
    </g>
    <g clip-path="url(#pe1dfa683af)">
     <use xlink:href="#C1_0_1545d5909a" x="338.662049" y="191.432003"/>
    </g>
    <g clip-path="url(#pe1dfa683af)">
     <use xlink:href="#C1_0_1545d5909a" x="334.190942" y="207.277543"/>
    </g>
    <g clip-path="url(#pe1dfa683af)">
     <use xlink:href="#C1_0_1545d5909a" x="335.480055" y="221.77456"/>
    </g>
    <g clip-path="url(#pe1dfa683af)">
     <use xlink:href="#C1_0_1545d5909a" x="334.594276" y="212.863839"/>
    </g>
    <g clip-path="url(#pe1dfa683af)">
     <use xlink:href="#C1_0_1545d5909a" x="343.001477" y="207.600582"/>
    </g>
    <g clip-path="url(#pe1dfa683af)">
     <use xlink:href="#C1_0_1545d5909a" x="339.55653" y="172.055878"/>
    </g>
    <g clip-path="url(#pe1dfa683af)">
     <use xlink:href="#C1_0_1545d5909a" x="340.227531" y="175.727907"/>
    </g>
    <g clip-path="url(#pe1dfa683af)">
     <use xlink:href="#C1_0_1545d5909a" x="349.018605" y="192.794617"/>
    </g>
    <g clip-path="url(#pe1dfa683af)">
     <use xlink:href="#C1_0_1545d5909a" x="346.990602" y="233.612405"/>
    </g>
    <g clip-path="url(#pe1dfa683af)">
     <use xlink:href="#C1_0_1545d5909a" x="352.110925" y="198.470491"/>
    </g>
    <g clip-path="url(#pe1dfa683af)">
     <use xlink:href="#C1_0_1545d5909a" x="331.56897" y="207.715009"/>
    </g>
    <g clip-path="url(#pe1dfa683af)">
     <use xlink:href="#C1_0_1545d5909a" x="343.254151" y="155.527215"/>
    </g>
    <g clip-path="url(#pe1dfa683af)">
     <use xlink:href="#C1_0_1545d5909a" x="320.451155" y="217.54739"/>
    </g>
    <g clip-path="url(#pe1dfa683af)">
     <use xlink:href="#C1_0_1545d5909a" x="348.373173" y="230.619175"/>
    </g>
    <g clip-path="url(#pe1dfa683af)">
     <use xlink:href="#C1_0_1545d5909a" x="342.620487" y="172.259483"/>
    </g>
    <g clip-path="url(#pe1dfa683af)">
     <use xlink:href="#C1_0_1545d5909a" x="325.420451" y="194.957643"/>
    </g>
    <g clip-path="url(#pe1dfa683af)">
     <use xlink:href="#C1_0_1545d5909a" x="340.422457" y="201.758263"/>
    </g>
    <g clip-path="url(#pe1dfa683af)">
     <use xlink:href="#C1_0_1545d5909a" x="323.4552" y="202.003256"/>
    </g>
    <g clip-path="url(#pe1dfa683af)">
     <use xlink:href="#C1_0_1545d5909a" x="328.43353" y="181.938201"/>
    </g>
    <g clip-path="url(#pe1dfa683af)">
     <use xlink:href="#C1_0_1545d5909a" x="322.41079" y="200.773086"/>
    </g>
    <g clip-path="url(#pe1dfa683af)">
     <use xlink:href="#C1_0_1545d5909a" x="325.160625" y="130.522578"/>
    </g>
    <g clip-path="url(#pe1dfa683af)">
     <use xlink:href="#C1_0_1545d5909a" x="322.486642" y="208.397924"/>
    </g>
    <g clip-path="url(#pe1dfa683af)">
     <use xlink:href="#C1_0_1545d5909a" x="316.070743" y="135.23014"/>
    </g>
    <g clip-path="url(#pe1dfa683af)">
     <use xlink:href="#C1_0_1545d5909a" x="324.336763" y="174.943429"/>
    </g>
    <g clip-path="url(#pe1dfa683af)">
     <use xlink:href="#C1_0_1545d5909a" x="332.576824" y="197.213704"/>
    </g>
    <g clip-path="url(#pe1dfa683af)">
     <use xlink:href="#C1_0_1545d5909a" x="350.376649" y="247.83974"/>
    </g>
    <g clip-path="url(#pe1dfa683af)">
     <use xlink:href="#C1_0_1545d5909a" x="331.85412" y="104.801009"/>
    </g>
    <g clip-path="url(#pe1dfa683af)">
     <use xlink:href="#C1_0_1545d5909a" x="337.957231" y="238.746805"/>
    </g>
    <g clip-path="url(#pe1dfa683af)">
     <use xlink:href="#C1_0_1545d5909a" x="353.075565" y="228.401278"/>
    </g>
    <g clip-path="url(#pe1dfa683af)">
     <use xlink:href="#C1_0_1545d5909a" x="329.955113" y="285.172976"/>
    </g>
    <g clip-path="url(#pe1dfa683af)">
     <use xlink:href="#C1_0_1545d5909a" x="348.975978" y="155.069116"/>
    </g>
    <g clip-path="url(#pe1dfa683af)">
     <use xlink:href="#C1_0_1545d5909a" x="343.355866" y="230.197169"/>
    </g>
    <g clip-path="url(#pe1dfa683af)">
     <use xlink:href="#C1_0_1545d5909a" x="337.076987" y="123.977743"/>
    </g>
    <g clip-path="url(#pe1dfa683af)">
     <use xlink:href="#C1_0_1545d5909a" x="316.484151" y="178.185965"/>
    </g>
    <g clip-path="url(#pe1dfa683af)">
     <use xlink:href="#C1_0_1545d5909a" x="352.81082" y="235.269674"/>
    </g>
    <g clip-path="url(#pe1dfa683af)">
     <use xlink:href="#C1_0_1545d5909a" x="319.510974" y="184.534945"/>
    </g>
    <g clip-path="url(#pe1dfa683af)">
     <use xlink:href="#C1_0_1545d5909a" x="353.075053" y="139.844449"/>
    </g>
    <g clip-path="url(#pe1dfa683af)">
     <use xlink:href="#C1_0_1545d5909a" x="352.560221" y="243.580825"/>
    </g>
    <g clip-path="url(#pe1dfa683af)">
     <use xlink:href="#C1_0_1545d5909a" x="337.968694" y="220.972803"/>
    </g>
    <g clip-path="url(#pe1dfa683af)">
     <use xlink:href="#C1_0_1545d5909a" x="318.753558" y="230.327973"/>
    </g>
    <g clip-path="url(#pe1dfa683af)">
     <use xlink:href="#C1_0_1545d5909a" x="322.330078" y="303.64"/>
    </g>
    <g clip-path="url(#pe1dfa683af)">
     <use xlink:href="#C1_0_1545d5909a" x="351.712311" y="213.564907"/>
    </g>
    <g clip-path="url(#pe1dfa683af)">
     <use xlink:href="#C1_0_1545d5909a" x="327.754537" y="220.341736"/>
    </g>
    <g clip-path="url(#pe1dfa683af)">
     <use xlink:href="#C1_0_1545d5909a" x="341.625258" y="183.363405"/>
    </g>
    <g clip-path="url(#pe1dfa683af)">
     <use xlink:href="#C1_0_1545d5909a" x="336.211539" y="121.163046"/>
    </g>
    <g clip-path="url(#pe1dfa683af)">
     <use xlink:href="#C1_0_1545d5909a" x="331.286509" y="171.11997"/>
    </g>
    <g clip-path="url(#pe1dfa683af)">
     <use xlink:href="#C1_0_1545d5909a" x="339.996401" y="134.554366"/>
    </g>
    <g clip-path="url(#pe1dfa683af)">
     <use xlink:href="#C1_0_1545d5909a" x="335.79604" y="186.485399"/>
    </g>
    <g clip-path="url(#pe1dfa683af)">
     <use xlink:href="#C1_0_1545d5909a" x="329.154289" y="236.429797"/>
    </g>
    <g clip-path="url(#pe1dfa683af)">
     <use xlink:href="#C1_0_1545d5909a" x="335.806645" y="167.628289"/>
    </g>
    <g clip-path="url(#pe1dfa683af)">
     <use xlink:href="#C1_0_1545d5909a" x="319.295433" y="197.049009"/>
    </g>
    <g clip-path="url(#pe1dfa683af)">
     <use xlink:href="#C1_0_1545d5909a" x="339.812066" y="257.664561"/>
    </g>
    <g clip-path="url(#pe1dfa683af)">
     <use xlink:href="#C1_0_1545d5909a" x="324.10291" y="194.163998"/>
    </g>
    <g clip-path="url(#pe1dfa683af)">
     <use xlink:href="#C1_0_1545d5909a" x="319.460708" y="197.094147"/>
    </g>
    <g clip-path="url(#pe1dfa683af)">
     <use xlink:href="#C1_0_1545d5909a" x="343.721849" y="223.797382"/>
    </g>
    <g clip-path="url(#pe1dfa683af)">
     <use xlink:href="#C1_0_1545d5909a" x="323.179291" y="223.895036"/>
    </g>
    <g clip-path="url(#pe1dfa683af)">
     <use xlink:href="#C1_0_1545d5909a" x="323.240975" y="171.987741"/>
    </g>
    <g clip-path="url(#pe1dfa683af)">
     <use xlink:href="#C1_0_1545d5909a" x="351.009427" y="241.863694"/>
    </g>
    <g clip-path="url(#pe1dfa683af)">
     <use xlink:href="#C1_0_1545d5909a" x="352.930864" y="212.918797"/>
    </g>
    <g clip-path="url(#pe1dfa683af)">
     <use xlink:href="#C1_0_1545d5909a" x="321.077317" y="230.520742"/>
    </g>
    <g clip-path="url(#pe1dfa683af)">
     <use xlink:href="#C1_0_1545d5909a" x="348.279666" y="182.950591"/>
    </g>
    <g clip-path="url(#pe1dfa683af)">
     <use xlink:href="#C1_0_1545d5909a" x="343.759439" y="193.443831"/>
    </g>
    <g clip-path="url(#pe1dfa683af)">
     <use xlink:href="#C1_0_1545d5909a" x="350.49481" y="210.055234"/>
    </g>
    <g clip-path="url(#pe1dfa683af)">
     <use xlink:href="#C1_0_1545d5909a" x="351.116467" y="218.800829"/>
    </g>
    <g clip-path="url(#pe1dfa683af)">
     <use xlink:href="#C1_0_1545d5909a" x="316.192431" y="252.186834"/>
    </g>
    <g clip-path="url(#pe1dfa683af)">
     <use xlink:href="#C1_0_1545d5909a" x="332.138303" y="141.574553"/>
    </g>
    <g clip-path="url(#pe1dfa683af)">
     <use xlink:href="#C1_0_1545d5909a" x="331.076227" y="178.353684"/>
    </g>
    <g clip-path="url(#pe1dfa683af)">
     <use xlink:href="#C1_0_1545d5909a" x="324.235535" y="69.008942"/>
    </g>
    <g clip-path="url(#pe1dfa683af)">
     <use xlink:href="#C1_0_1545d5909a" x="331.248086" y="202.403712"/>
    </g>
    <g clip-path="url(#pe1dfa683af)">
     <use xlink:href="#C1_0_1545d5909a" x="335.831005" y="168.636174"/>
    </g>
    <g clip-path="url(#pe1dfa683af)">
     <use xlink:href="#C1_0_1545d5909a" x="328.311656" y="128.597297"/>
    </g>
    <g clip-path="url(#pe1dfa683af)">
     <use xlink:href="#C1_0_1545d5909a" x="350.104243" y="126.682527"/>
    </g>
    <g clip-path="url(#pe1dfa683af)">
     <use xlink:href="#C1_0_1545d5909a" x="351.6359" y="226.410474"/>
    </g>
    <g clip-path="url(#pe1dfa683af)">
     <use xlink:href="#C1_0_1545d5909a" x="327.566642" y="163.516431"/>
    </g>
    <g clip-path="url(#pe1dfa683af)">
     <use xlink:href="#C1_0_1545d5909a" x="331.795306" y="134.355792"/>
    </g>
    <g clip-path="url(#pe1dfa683af)">
     <use xlink:href="#C1_0_1545d5909a" x="346.160644" y="157.092955"/>
    </g>
   </g>
   <g id="text_12">
    <!-- 68 -->
    <g style="fill: #262626" transform="translate(200.101 184.280129)scale(0.1 -0.1)">
     <use xlink:href="#DejaVuSans-36"/>
     <use xlink:href="#DejaVuSans-38" x="63.623047"/>
    </g>
   </g>
   <g id="text_13">
    <!-- p=nan -->
    <g style="fill: #262626" transform="translate(186.6885 16.56)scale(0.08 -0.08)">
     <defs>
      <path id="DejaVuSans-3d" d="M 678 2906 
L 4684 2906 
L 4684 2381 
L 678 2381 
L 678 2906 
z
M 678 1631 
L 4684 1631 
L 4684 1100 
L 678 1100 
L 678 1631 
z
" transform="scale(0.015625)"/>
     </defs>
     <use xlink:href="#DejaVuSans-70"/>
     <use xlink:href="#DejaVuSans-3d" x="63.476562"/>
     <use xlink:href="#DejaVuSans-6e" x="147.265625"/>
     <use xlink:href="#DejaVuSans-61" x="210.644531"/>
     <use xlink:href="#DejaVuSans-6e" x="271.923828"/>
    </g>
   </g>
   <g id="text_14">
    <!-- 87 -->
    <g style="fill: #262626" transform="translate(315.439 184.280129)scale(0.1 -0.1)">
     <defs>
      <path id="DejaVuSans-37" d="M 525 4666 
L 3525 4666 
L 3525 4397 
L 1831 0 
L 1172 0 
L 2766 4134 
L 525 4134 
L 525 4666 
z
" transform="scale(0.015625)"/>
     </defs>
     <use xlink:href="#DejaVuSans-38"/>
     <use xlink:href="#DejaVuSans-37" x="63.623047"/>
    </g>
   </g>
   <g id="text_15">
    <!-- p=nan -->
    <g style="fill: #262626" transform="translate(302.0265 69.008065)scale(0.08 -0.08)">
     <use xlink:href="#DejaVuSans-70"/>
     <use xlink:href="#DejaVuSans-3d" x="63.476562"/>
     <use xlink:href="#DejaVuSans-6e" x="147.265625"/>
     <use xlink:href="#DejaVuSans-61" x="210.644531"/>
     <use xlink:href="#DejaVuSans-6e" x="271.923828"/>
    </g>
   </g>
   <g id="legend_1">
    <g id="patch_11">
     <path d="M 387.048438 33.159315 
L 407.048438 33.159315 
L 407.048438 26.159315 
L 387.048438 26.159315 
z
" style="fill: #ecf2ec; stroke: #262626; stroke-width: 0.75; stroke-linejoin: miter"/>
    </g>
    <g id="text_16">
     <!-- clash -->
     <g style="fill: #262626" transform="translate(415.048438 33.159315)scale(0.1 -0.1)">
      <defs>
       <path id="DejaVuSans-68" d="M 3513 2113 
L 3513 0 
L 2938 0 
L 2938 2094 
Q 2938 2591 2744 2837 
Q 2550 3084 2163 3084 
Q 1697 3084 1428 2787 
Q 1159 2491 1159 1978 
L 1159 0 
L 581 0 
L 581 4863 
L 1159 4863 
L 1159 2956 
Q 1366 3272 1645 3428 
Q 1925 3584 2291 3584 
Q 2894 3584 3203 3211 
Q 3513 2838 3513 2113 
z
" transform="scale(0.015625)"/>
      </defs>
      <use xlink:href="#DejaVuSans-63"/>
      <use xlink:href="#DejaVuSans-6c" x="54.980469"/>
      <use xlink:href="#DejaVuSans-61" x="82.763672"/>
      <use xlink:href="#DejaVuSans-73" x="144.042969"/>
      <use xlink:href="#DejaVuSans-68" x="196.142578"/>
     </g>
    </g>
    <g id="patch_12">
     <path d="M 387.048438 47.83744 
L 407.048438 47.83744 
L 407.048438 40.83744 
L 387.048438 40.83744 
z
" style="fill: #107010; stroke: #262626; stroke-width: 0.75; stroke-linejoin: miter"/>
    </g>
    <g id="text_17">
     <!-- void -->
     <g style="fill: #262626" transform="translate(415.048438 47.83744)scale(0.1 -0.1)">
      <defs>
       <path id="DejaVuSans-76" d="M 191 3500 
L 800 3500 
L 1894 563 
L 2988 3500 
L 3597 3500 
L 2284 0 
L 1503 0 
L 191 3500 
z
" transform="scale(0.015625)"/>
       <path id="DejaVuSans-69" d="M 603 3500 
L 1178 3500 
L 1178 0 
L 603 0 
L 603 3500 
z
M 603 4863 
L 1178 4863 
L 1178 4134 
L 603 4134 
L 603 4863 
z
" transform="scale(0.015625)"/>
       <path id="DejaVuSans-64" d="M 2906 2969 
L 2906 4863 
L 3481 4863 
L 3481 0 
L 2906 0 
L 2906 525 
Q 2725 213 2448 61 
Q 2172 -91 1784 -91 
Q 1150 -91 751 415 
Q 353 922 353 1747 
Q 353 2572 751 3078 
Q 1150 3584 1784 3584 
Q 2172 3584 2448 3432 
Q 2725 3281 2906 2969 
z
M 947 1747 
Q 947 1113 1208 752 
Q 1469 391 1925 391 
Q 2381 391 2643 752 
Q 2906 1113 2906 1747 
Q 2906 2381 2643 2742 
Q 2381 3103 1925 3103 
Q 1469 3103 1208 2742 
Q 947 2381 947 1747 
z
" transform="scale(0.015625)"/>
      </defs>
      <use xlink:href="#DejaVuSans-76"/>
      <use xlink:href="#DejaVuSans-6f" x="59.179688"/>
      <use xlink:href="#DejaVuSans-69" x="120.361328"/>
      <use xlink:href="#DejaVuSans-64" x="148.144531"/>
     </g>
    </g>
   </g>
  </g>
 </g>
 <defs>
  <clipPath id="pe1dfa683af">
   <rect x="65.54" y="16.560877" width="384.46" height="287.079123"/>
  </clipPath>
 </defs>
</svg>
