<?xml version="1.0" encoding="utf-8" standalone="no"?>
<!DOCTYPE svg PUBLIC "-//W3C//DTD SVG 1.1//EN"
  "http://www.w3.org/Graphics/SVG/1.1/DTD/svg11.dtd">
<svg xmlns:xlink="http://www.w3.org/1999/xlink" width="460.8pt" height="345.6pt" viewBox="0 0 460.8 345.6" xmlns="http://www.w3.org/2000/svg" version="1.1">
 <metadata>
  <rdf:RDF xmlns:dc="http://purl.org/dc/elements/1.1/" xmlns:cc="http://creativecommons.org/ns#" xmlns:rdf="http://www.w3.org/1999/02/22-rdf-syntax-ns#">
   <cc:Work>
    <dc:type rdf:resource="http://purl.org/dc/dcmitype/StillImage"/>
    <dc:date>2024-02-24T17:25:38.893379</dc:date>
    <dc:format>image/svg+xml</dc:format>
    <dc:creator>
     <cc:Agent>
      <dc:title>Matplotlib v3.5.3, https://matplotlib.org/</dc:title>
     </cc:Agent>
    </dc:creator>
   </cc:Work>
  </rdf:RDF>
 </metadata>
 <defs>
  <style type="text/css">*{stroke-linejoin: round; stroke-linecap: butt}</style>
 </defs>
 <g id="figure_1">
  <g id="patch_1">
   <path d="M 0 345.6 
L 460.8 345.6 
L 460.8 0 
L 0 0 
z
" style="fill: #ffffff"/>
  </g>
  <g id="axes_1">
   <g id="patch_2">
    <path d="M 47.82125 303.64 
L 450 303.64 
L 450 46.543987 
L 47.82125 46.543987 
z
" style="fill: #ffffff"/>
   </g>
   <g id="PathCollection_1">
    <defs>
     <path id="mccffb64b6c" d="M 0 3 
C 0.795609 3 1.55874 2.683901 2.12132 2.12132 
C 2.683901 1.55874 3 0.795609 3 0 
C 3 -0.795609 2.683901 -1.55874 2.12132 -2.12132 
C 1.55874 -2.683901 0.795609 -3 0 -3 
C -0.795609 -3 -1.55874 -2.683901 -2.12132 -2.12132 
C -2.683901 -1.55874 -3 -0.795609 -3 0 
C -3 0.795609 -2.683901 1.55874 -2.12132 2.12132 
C -1.55874 2.683901 -0.795609 3 0 3 
z
" style="stroke: #1f77b4"/>
    </defs>
    <g clip-path="url(#pcd5ebee2c3)">
     <use xlink:href="#mccffb64b6c" x="66.102102" y="203.263021" style="fill: #1f77b4; stroke: #1f77b4"/>
     <use xlink:href="#mccffb64b6c" x="149.383988" y="218.843657" style="fill: #1f77b4; stroke: #1f77b4"/>
     <use xlink:href="#mccffb64b6c" x="150.770294" y="209.619703" style="fill: #1f77b4; stroke: #1f77b4"/>
     <use xlink:href="#mccffb64b6c" x="155.756277" y="269.237663" style="fill: #1f77b4; stroke: #1f77b4"/>
     <use xlink:href="#mccffb64b6c" x="204.240689" y="212.280158" style="fill: #1f77b4; stroke: #1f77b4"/>
     <use xlink:href="#mccffb64b6c" x="209.416415" y="194.529752" style="fill: #1f77b4; stroke: #1f77b4"/>
     <use xlink:href="#mccffb64b6c" x="211.422791" y="246.640544" style="fill: #1f77b4; stroke: #1f77b4"/>
     <use xlink:href="#mccffb64b6c" x="212.247131" y="211.026588" style="fill: #1f77b4; stroke: #1f77b4"/>
     <use xlink:href="#mccffb64b6c" x="216.275318" y="275.435493" style="fill: #1f77b4; stroke: #1f77b4"/>
     <use xlink:href="#mccffb64b6c" x="217.968482" y="282.849275" style="fill: #1f77b4; stroke: #1f77b4"/>
     <use xlink:href="#mccffb64b6c" x="223.215021" y="270.138906" style="fill: #1f77b4; stroke: #1f77b4"/>
     <use xlink:href="#mccffb64b6c" x="237.780772" y="253.065343" style="fill: #1f77b4; stroke: #1f77b4"/>
     <use xlink:href="#mccffb64b6c" x="239.71452" y="160.449425" style="fill: #1f77b4; stroke: #1f77b4"/>
     <use xlink:href="#mccffb64b6c" x="244.524377" y="235.287827" style="fill: #1f77b4; stroke: #1f77b4"/>
     <use xlink:href="#mccffb64b6c" x="265.394327" y="170.251062" style="fill: #1f77b4; stroke: #1f77b4"/>
     <use xlink:href="#mccffb64b6c" x="266.035278" y="280.564878" style="fill: #1f77b4; stroke: #1f77b4"/>
     <use xlink:href="#mccffb64b6c" x="269.31811" y="230.109859" style="fill: #1f77b4; stroke: #1f77b4"/>
     <use xlink:href="#mccffb64b6c" x="289.605211" y="204.809682" style="fill: #1f77b4; stroke: #1f77b4"/>
     <use xlink:href="#mccffb64b6c" x="293.908481" y="235.413854" style="fill: #1f77b4; stroke: #1f77b4"/>
     <use xlink:href="#mccffb64b6c" x="299.319343" y="275.976718" style="fill: #1f77b4; stroke: #1f77b4"/>
     <use xlink:href="#mccffb64b6c" x="303.885893" y="233.977719" style="fill: #1f77b4; stroke: #1f77b4"/>
     <use xlink:href="#mccffb64b6c" x="304.270827" y="289.793346" style="fill: #1f77b4; stroke: #1f77b4"/>
     <use xlink:href="#mccffb64b6c" x="304.899976" y="281.711595" style="fill: #1f77b4; stroke: #1f77b4"/>
     <use xlink:href="#mccffb64b6c" x="305.027077" y="227.760594" style="fill: #1f77b4; stroke: #1f77b4"/>
     <use xlink:href="#mccffb64b6c" x="315.368542" y="224.977352" style="fill: #1f77b4; stroke: #1f77b4"/>
     <use xlink:href="#mccffb64b6c" x="324.202047" y="274.606516" style="fill: #1f77b4; stroke: #1f77b4"/>
     <use xlink:href="#mccffb64b6c" x="328.488067" y="251.841853" style="fill: #1f77b4; stroke: #1f77b4"/>
     <use xlink:href="#mccffb64b6c" x="341.55312" y="272.927587" style="fill: #1f77b4; stroke: #1f77b4"/>
     <use xlink:href="#mccffb64b6c" x="343.123723" y="206.693032" style="fill: #1f77b4; stroke: #1f77b4"/>
     <use xlink:href="#mccffb64b6c" x="343.308927" y="215.140459" style="fill: #1f77b4; stroke: #1f77b4"/>
     <use xlink:href="#mccffb64b6c" x="346.796028" y="205.318109" style="fill: #1f77b4; stroke: #1f77b4"/>
     <use xlink:href="#mccffb64b6c" x="348.190505" y="280.245626" style="fill: #1f77b4; stroke: #1f77b4"/>
     <use xlink:href="#mccffb64b6c" x="368.702757" y="230.257742" style="fill: #1f77b4; stroke: #1f77b4"/>
     <use xlink:href="#mccffb64b6c" x="375.891215" y="259.775885" style="fill: #1f77b4; stroke: #1f77b4"/>
     <use xlink:href="#mccffb64b6c" x="378.87536" y="286.343633" style="fill: #1f77b4; stroke: #1f77b4"/>
     <use xlink:href="#mccffb64b6c" x="385.007065" y="286.939007" style="fill: #1f77b4; stroke: #1f77b4"/>
     <use xlink:href="#mccffb64b6c" x="431.719148" y="189.592013" style="fill: #1f77b4; stroke: #1f77b4"/>
    </g>
   </g>
   <g id="matplotlib.axis_1">
    <g id="xtick_1">
     <g id="line2d_1">
      <defs>
       <path id="m6eb40814ed" d="M 0 0 
L 0 3.5 
" style="stroke: #000000; stroke-width: 0.8"/>
      </defs>
      <g>
       <use xlink:href="#m6eb40814ed" x="89.376073" y="303.64" style="stroke: #000000; stroke-width: 0.8"/>
      </g>
     </g>
     <g id="text_1">
      <!-- −45 -->
      <g transform="translate(78.823729 318.238437)scale(0.1 -0.1)">
       <defs>
        <path id="DejaVuSans-2212" d="M 678 2272 
L 4684 2272 
L 4684 1741 
L 678 1741 
L 678 2272 
z
" transform="scale(0.015625)"/>
        <path id="DejaVuSans-34" d="M 2419 4116 
L 825 1625 
L 2419 1625 
L 2419 4116 
z
M 2253 4666 
L 3047 4666 
L 3047 1625 
L 3713 1625 
L 3713 1100 
L 3047 1100 
L 3047 0 
L 2419 0 
L 2419 1100 
L 313 1100 
L 313 1709 
L 2253 4666 
z
" transform="scale(0.015625)"/>
        <path id="DejaVuSans-35" d="M 691 4666 
L 3169 4666 
L 3169 4134 
L 1269 4134 
L 1269 2991 
Q 1406 3038 1543 3061 
Q 1681 3084 1819 3084 
Q 2600 3084 3056 2656 
Q 3513 2228 3513 1497 
Q 3513 744 3044 326 
Q 2575 -91 1722 -91 
Q 1428 -91 1123 -41 
Q 819 9 494 109 
L 494 744 
Q 775 591 1075 516 
Q 1375 441 1709 441 
Q 2250 441 2565 725 
Q 2881 1009 2881 1497 
Q 2881 1984 2565 2268 
Q 2250 2553 1709 2553 
Q 1456 2553 1204 2497 
Q 953 2441 691 2322 
L 691 4666 
z
" transform="scale(0.015625)"/>
       </defs>
       <use xlink:href="#DejaVuSans-2212"/>
       <use xlink:href="#DejaVuSans-34" x="83.789062"/>
       <use xlink:href="#DejaVuSans-35" x="147.412109"/>
      </g>
     </g>
    </g>
    <g id="xtick_2">
     <g id="line2d_2">
      <g>
       <use xlink:href="#m6eb40814ed" x="134.769212" y="303.64" style="stroke: #000000; stroke-width: 0.8"/>
      </g>
     </g>
     <g id="text_2">
      <!-- −40 -->
      <g transform="translate(124.216869 318.238437)scale(0.1 -0.1)">
       <defs>
        <path id="DejaVuSans-30" d="M 2034 4250 
Q 1547 4250 1301 3770 
Q 1056 3291 1056 2328 
Q 1056 1369 1301 889 
Q 1547 409 2034 409 
Q 2525 409 2770 889 
Q 3016 1369 3016 2328 
Q 3016 3291 2770 3770 
Q 2525 4250 2034 4250 
z
M 2034 4750 
Q 2819 4750 3233 4129 
Q 3647 3509 3647 2328 
Q 3647 1150 3233 529 
Q 2819 -91 2034 -91 
Q 1250 -91 836 529 
Q 422 1150 422 2328 
Q 422 3509 836 4129 
Q 1250 4750 2034 4750 
z
" transform="scale(0.015625)"/>
       </defs>
       <use xlink:href="#DejaVuSans-2212"/>
       <use xlink:href="#DejaVuSans-34" x="83.789062"/>
       <use xlink:href="#DejaVuSans-30" x="147.412109"/>
      </g>
     </g>
    </g>
    <g id="xtick_3">
     <g id="line2d_3">
      <g>
       <use xlink:href="#m6eb40814ed" x="180.162352" y="303.64" style="stroke: #000000; stroke-width: 0.8"/>
      </g>
     </g>
     <g id="text_3">
      <!-- −35 -->
      <g transform="translate(169.610008 318.238437)scale(0.1 -0.1)">
       <defs>
        <path id="DejaVuSans-33" d="M 2597 2516 
Q 3050 2419 3304 2112 
Q 3559 1806 3559 1356 
Q 3559 666 3084 287 
Q 2609 -91 1734 -91 
Q 1441 -91 1130 -33 
Q 819 25 488 141 
L 488 750 
Q 750 597 1062 519 
Q 1375 441 1716 441 
Q 2309 441 2620 675 
Q 2931 909 2931 1356 
Q 2931 1769 2642 2001 
Q 2353 2234 1838 2234 
L 1294 2234 
L 1294 2753 
L 1863 2753 
Q 2328 2753 2575 2939 
Q 2822 3125 2822 3475 
Q 2822 3834 2567 4026 
Q 2313 4219 1838 4219 
Q 1578 4219 1281 4162 
Q 984 4106 628 3988 
L 628 4550 
Q 988 4650 1302 4700 
Q 1616 4750 1894 4750 
Q 2613 4750 3031 4423 
Q 3450 4097 3450 3541 
Q 3450 3153 3228 2886 
Q 3006 2619 2597 2516 
z
" transform="scale(0.015625)"/>
       </defs>
       <use xlink:href="#DejaVuSans-2212"/>
       <use xlink:href="#DejaVuSans-33" x="83.789062"/>
       <use xlink:href="#DejaVuSans-35" x="147.412109"/>
      </g>
     </g>
    </g>
    <g id="xtick_4">
     <g id="line2d_4">
      <g>
       <use xlink:href="#m6eb40814ed" x="225.555492" y="303.64" style="stroke: #000000; stroke-width: 0.8"/>
      </g>
     </g>
     <g id="text_4">
      <!-- −30 -->
      <g transform="translate(215.003148 318.238437)scale(0.1 -0.1)">
       <use xlink:href="#DejaVuSans-2212"/>
       <use xlink:href="#DejaVuSans-33" x="83.789062"/>
       <use xlink:href="#DejaVuSans-30" x="147.412109"/>
      </g>
     </g>
    </g>
    <g id="xtick_5">
     <g id="line2d_5">
      <g>
       <use xlink:href="#m6eb40814ed" x="270.948631" y="303.64" style="stroke: #000000; stroke-width: 0.8"/>
      </g>
     </g>
     <g id="text_5">
      <!-- −25 -->
      <g transform="translate(260.396287 318.238437)scale(0.1 -0.1)">
       <defs>
        <path id="DejaVuSans-32" d="M 1228 531 
L 3431 531 
L 3431 0 
L 469 0 
L 469 531 
Q 828 903 1448 1529 
Q 2069 2156 2228 2338 
Q 2531 2678 2651 2914 
Q 2772 3150 2772 3378 
Q 2772 3750 2511 3984 
Q 2250 4219 1831 4219 
Q 1534 4219 1204 4116 
Q 875 4013 500 3803 
L 500 4441 
Q 881 4594 1212 4672 
Q 1544 4750 1819 4750 
Q 2544 4750 2975 4387 
Q 3406 4025 3406 3419 
Q 3406 3131 3298 2873 
Q 3191 2616 2906 2266 
Q 2828 2175 2409 1742 
Q 1991 1309 1228 531 
z
" transform="scale(0.015625)"/>
       </defs>
       <use xlink:href="#DejaVuSans-2212"/>
       <use xlink:href="#DejaVuSans-32" x="83.789062"/>
       <use xlink:href="#DejaVuSans-35" x="147.412109"/>
      </g>
     </g>
    </g>
    <g id="xtick_6">
     <g id="line2d_6">
      <g>
       <use xlink:href="#m6eb40814ed" x="316.341771" y="303.64" style="stroke: #000000; stroke-width: 0.8"/>
      </g>
     </g>
     <g id="text_6">
      <!-- −20 -->
      <g transform="translate(305.789427 318.238437)scale(0.1 -0.1)">
       <use xlink:href="#DejaVuSans-2212"/>
       <use xlink:href="#DejaVuSans-32" x="83.789062"/>
       <use xlink:href="#DejaVuSans-30" x="147.412109"/>
      </g>
     </g>
    </g>
    <g id="xtick_7">
     <g id="line2d_7">
      <g>
       <use xlink:href="#m6eb40814ed" x="361.73491" y="303.64" style="stroke: #000000; stroke-width: 0.8"/>
      </g>
     </g>
     <g id="text_7">
      <!-- −15 -->
      <g transform="translate(351.182567 318.238437)scale(0.1 -0.1)">
       <defs>
        <path id="DejaVuSans-31" d="M 794 531 
L 1825 531 
L 1825 4091 
L 703 3866 
L 703 4441 
L 1819 4666 
L 2450 4666 
L 2450 531 
L 3481 531 
L 3481 0 
L 794 0 
L 794 531 
z
" transform="scale(0.015625)"/>
       </defs>
       <use xlink:href="#DejaVuSans-2212"/>
       <use xlink:href="#DejaVuSans-31" x="83.789062"/>
       <use xlink:href="#DejaVuSans-35" x="147.412109"/>
      </g>
     </g>
    </g>
    <g id="xtick_8">
     <g id="line2d_8">
      <g>
       <use xlink:href="#m6eb40814ed" x="407.12805" y="303.64" style="stroke: #000000; stroke-width: 0.8"/>
      </g>
     </g>
     <g id="text_8">
      <!-- −10 -->
      <g transform="translate(396.575706 318.238437)scale(0.1 -0.1)">
       <use xlink:href="#DejaVuSans-2212"/>
       <use xlink:href="#DejaVuSans-31" x="83.789062"/>
       <use xlink:href="#DejaVuSans-30" x="147.412109"/>
      </g>
     </g>
    </g>
    <g id="text_9">
     <!-- Total -->
     <g transform="translate(237.234062 331.916562)scale(0.1 -0.1)">
      <defs>
       <path id="DejaVuSans-54" d="M -19 4666 
L 3928 4666 
L 3928 4134 
L 2272 4134 
L 2272 0 
L 1638 0 
L 1638 4134 
L -19 4134 
L -19 4666 
z
" transform="scale(0.015625)"/>
       <path id="DejaVuSans-6f" d="M 1959 3097 
Q 1497 3097 1228 2736 
Q 959 2375 959 1747 
Q 959 1119 1226 758 
Q 1494 397 1959 397 
Q 2419 397 2687 759 
Q 2956 1122 2956 1747 
Q 2956 2369 2687 2733 
Q 2419 3097 1959 3097 
z
M 1959 3584 
Q 2709 3584 3137 3096 
Q 3566 2609 3566 1747 
Q 3566 888 3137 398 
Q 2709 -91 1959 -91 
Q 1206 -91 779 398 
Q 353 888 353 1747 
Q 353 2609 779 3096 
Q 1206 3584 1959 3584 
z
" transform="scale(0.015625)"/>
       <path id="DejaVuSans-74" d="M 1172 4494 
L 1172 3500 
L 2356 3500 
L 2356 3053 
L 1172 3053 
L 1172 1153 
Q 1172 725 1289 603 
Q 1406 481 1766 481 
L 2356 481 
L 2356 0 
L 1766 0 
Q 1100 0 847 248 
Q 594 497 594 1153 
L 594 3053 
L 172 3053 
L 172 3500 
L 594 3500 
L 594 4494 
L 1172 4494 
z
" transform="scale(0.015625)"/>
       <path id="DejaVuSans-61" d="M 2194 1759 
Q 1497 1759 1228 1600 
Q 959 1441 959 1056 
Q 959 750 1161 570 
Q 1363 391 1709 391 
Q 2188 391 2477 730 
Q 2766 1069 2766 1631 
L 2766 1759 
L 2194 1759 
z
M 3341 1997 
L 3341 0 
L 2766 0 
L 2766 531 
Q 2569 213 2275 61 
Q 1981 -91 1556 -91 
Q 1019 -91 701 211 
Q 384 513 384 1019 
Q 384 1609 779 1909 
Q 1175 2209 1959 2209 
L 2766 2209 
L 2766 2266 
Q 2766 2663 2505 2880 
Q 2244 3097 1772 3097 
Q 1472 3097 1187 3025 
Q 903 2953 641 2809 
L 641 3341 
Q 956 3463 1253 3523 
Q 1550 3584 1831 3584 
Q 2591 3584 2966 3190 
Q 3341 2797 3341 1997 
z
" transform="scale(0.015625)"/>
       <path id="DejaVuSans-6c" d="M 603 4863 
L 1178 4863 
L 1178 0 
L 603 0 
L 603 4863 
z
" transform="scale(0.015625)"/>
      </defs>
      <use xlink:href="#DejaVuSans-54"/>
      <use xlink:href="#DejaVuSans-6f" x="44.083984"/>
      <use xlink:href="#DejaVuSans-74" x="105.265625"/>
      <use xlink:href="#DejaVuSans-61" x="144.474609"/>
      <use xlink:href="#DejaVuSans-6c" x="205.753906"/>
     </g>
    </g>
   </g>
   <g id="matplotlib.axis_2">
    <g id="ytick_1">
     <g id="line2d_9">
      <defs>
       <path id="mdaa66ab122" d="M 0 0 
L -3.5 0 
" style="stroke: #000000; stroke-width: 0.8"/>
      </defs>
      <g>
       <use xlink:href="#mdaa66ab122" x="47.82125" y="303.64" style="stroke: #000000; stroke-width: 0.8"/>
      </g>
     </g>
     <g id="text_10">
      <!-- 0.0 -->
      <g transform="translate(24.918125 307.439219)scale(0.1 -0.1)">
       <defs>
        <path id="DejaVuSans-2e" d="M 684 794 
L 1344 794 
L 1344 0 
L 684 0 
L 684 794 
z
" transform="scale(0.015625)"/>
       </defs>
       <use xlink:href="#DejaVuSans-30"/>
       <use xlink:href="#DejaVuSans-2e" x="63.623047"/>
       <use xlink:href="#DejaVuSans-30" x="95.410156"/>
      </g>
     </g>
    </g>
    <g id="ytick_2">
     <g id="line2d_10">
      <g>
       <use xlink:href="#mdaa66ab122" x="47.82125" y="254.641487" style="stroke: #000000; stroke-width: 0.8"/>
      </g>
     </g>
     <g id="text_11">
      <!-- 0.5 -->
      <g transform="translate(24.918125 258.440705)scale(0.1 -0.1)">
       <use xlink:href="#DejaVuSans-30"/>
       <use xlink:href="#DejaVuSans-2e" x="63.623047"/>
       <use xlink:href="#DejaVuSans-35" x="95.410156"/>
      </g>
     </g>
    </g>
    <g id="ytick_3">
     <g id="line2d_11">
      <g>
       <use xlink:href="#mdaa66ab122" x="47.82125" y="205.642973" style="stroke: #000000; stroke-width: 0.8"/>
      </g>
     </g>
     <g id="text_12">
      <!-- 1.0 -->
      <g transform="translate(24.918125 209.442192)scale(0.1 -0.1)">
       <use xlink:href="#DejaVuSans-31"/>
       <use xlink:href="#DejaVuSans-2e" x="63.623047"/>
       <use xlink:href="#DejaVuSans-30" x="95.410156"/>
      </g>
     </g>
    </g>
    <g id="ytick_4">
     <g id="line2d_12">
      <g>
       <use xlink:href="#mdaa66ab122" x="47.82125" y="156.64446" style="stroke: #000000; stroke-width: 0.8"/>
      </g>
     </g>
     <g id="text_13">
      <!-- 1.5 -->
      <g transform="translate(24.918125 160.443679)scale(0.1 -0.1)">
       <use xlink:href="#DejaVuSans-31"/>
       <use xlink:href="#DejaVuSans-2e" x="63.623047"/>
       <use xlink:href="#DejaVuSans-35" x="95.410156"/>
      </g>
     </g>
    </g>
    <g id="ytick_5">
     <g id="line2d_13">
      <g>
       <use xlink:href="#mdaa66ab122" x="47.82125" y="107.645947" style="stroke: #000000; stroke-width: 0.8"/>
      </g>
     </g>
     <g id="text_14">
      <!-- 2.0 -->
      <g transform="translate(24.918125 111.445166)scale(0.1 -0.1)">
       <use xlink:href="#DejaVuSans-32"/>
       <use xlink:href="#DejaVuSans-2e" x="63.623047"/>
       <use xlink:href="#DejaVuSans-30" x="95.410156"/>
      </g>
     </g>
    </g>
    <g id="ytick_6">
     <g id="line2d_14">
      <g>
       <use xlink:href="#mdaa66ab122" x="47.82125" y="58.647434" style="stroke: #000000; stroke-width: 0.8"/>
      </g>
     </g>
     <g id="text_15">
      <!-- 2.5 -->
      <g transform="translate(24.918125 62.446652)scale(0.1 -0.1)">
       <use xlink:href="#DejaVuSans-32"/>
       <use xlink:href="#DejaVuSans-2e" x="63.623047"/>
       <use xlink:href="#DejaVuSans-35" x="95.410156"/>
      </g>
     </g>
    </g>
    <g id="text_16">
     <!-- PercentGpA_transformed -->
     <g transform="translate(18.560312 237.630275)rotate(-90)scale(0.1 -0.1)">
      <defs>
       <path id="DejaVuSans-50" d="M 1259 4147 
L 1259 2394 
L 2053 2394 
Q 2494 2394 2734 2622 
Q 2975 2850 2975 3272 
Q 2975 3691 2734 3919 
Q 2494 4147 2053 4147 
L 1259 4147 
z
M 628 4666 
L 2053 4666 
Q 2838 4666 3239 4311 
Q 3641 3956 3641 3272 
Q 3641 2581 3239 2228 
Q 2838 1875 2053 1875 
L 1259 1875 
L 1259 0 
L 628 0 
L 628 4666 
z
" transform="scale(0.015625)"/>
       <path id="DejaVuSans-65" d="M 3597 1894 
L 3597 1613 
L 953 1613 
Q 991 1019 1311 708 
Q 1631 397 2203 397 
Q 2534 397 2845 478 
Q 3156 559 3463 722 
L 3463 178 
Q 3153 47 2828 -22 
Q 2503 -91 2169 -91 
Q 1331 -91 842 396 
Q 353 884 353 1716 
Q 353 2575 817 3079 
Q 1281 3584 2069 3584 
Q 2775 3584 3186 3129 
Q 3597 2675 3597 1894 
z
M 3022 2063 
Q 3016 2534 2758 2815 
Q 2500 3097 2075 3097 
Q 1594 3097 1305 2825 
Q 1016 2553 972 2059 
L 3022 2063 
z
" transform="scale(0.015625)"/>
       <path id="DejaVuSans-72" d="M 2631 2963 
Q 2534 3019 2420 3045 
Q 2306 3072 2169 3072 
Q 1681 3072 1420 2755 
Q 1159 2438 1159 1844 
L 1159 0 
L 581 0 
L 581 3500 
L 1159 3500 
L 1159 2956 
Q 1341 3275 1631 3429 
Q 1922 3584 2338 3584 
Q 2397 3584 2469 3576 
Q 2541 3569 2628 3553 
L 2631 2963 
z
" transform="scale(0.015625)"/>
       <path id="DejaVuSans-63" d="M 3122 3366 
L 3122 2828 
Q 2878 2963 2633 3030 
Q 2388 3097 2138 3097 
Q 1578 3097 1268 2742 
Q 959 2388 959 1747 
Q 959 1106 1268 751 
Q 1578 397 2138 397 
Q 2388 397 2633 464 
Q 2878 531 3122 666 
L 3122 134 
Q 2881 22 2623 -34 
Q 2366 -91 2075 -91 
Q 1284 -91 818 406 
Q 353 903 353 1747 
Q 353 2603 823 3093 
Q 1294 3584 2113 3584 
Q 2378 3584 2631 3529 
Q 2884 3475 3122 3366 
z
" transform="scale(0.015625)"/>
       <path id="DejaVuSans-6e" d="M 3513 2113 
L 3513 0 
L 2938 0 
L 2938 2094 
Q 2938 2591 2744 2837 
Q 2550 3084 2163 3084 
Q 1697 3084 1428 2787 
Q 1159 2491 1159 1978 
L 1159 0 
L 581 0 
L 581 3500 
L 1159 3500 
L 1159 2956 
Q 1366 3272 1645 3428 
Q 1925 3584 2291 3584 
Q 2894 3584 3203 3211 
Q 3513 2838 3513 2113 
z
" transform="scale(0.015625)"/>
       <path id="DejaVuSans-47" d="M 3809 666 
L 3809 1919 
L 2778 1919 
L 2778 2438 
L 4434 2438 
L 4434 434 
Q 4069 175 3628 42 
Q 3188 -91 2688 -91 
Q 1594 -91 976 548 
Q 359 1188 359 2328 
Q 359 3472 976 4111 
Q 1594 4750 2688 4750 
Q 3144 4750 3555 4637 
Q 3966 4525 4313 4306 
L 4313 3634 
Q 3963 3931 3569 4081 
Q 3175 4231 2741 4231 
Q 1884 4231 1454 3753 
Q 1025 3275 1025 2328 
Q 1025 1384 1454 906 
Q 1884 428 2741 428 
Q 3075 428 3337 486 
Q 3600 544 3809 666 
z
" transform="scale(0.015625)"/>
       <path id="DejaVuSans-70" d="M 1159 525 
L 1159 -1331 
L 581 -1331 
L 581 3500 
L 1159 3500 
L 1159 2969 
Q 1341 3281 1617 3432 
Q 1894 3584 2278 3584 
Q 2916 3584 3314 3078 
Q 3713 2572 3713 1747 
Q 3713 922 3314 415 
Q 2916 -91 2278 -91 
Q 1894 -91 1617 61 
Q 1341 213 1159 525 
z
M 3116 1747 
Q 3116 2381 2855 2742 
Q 2594 3103 2138 3103 
Q 1681 3103 1420 2742 
Q 1159 2381 1159 1747 
Q 1159 1113 1420 752 
Q 1681 391 2138 391 
Q 2594 391 2855 752 
Q 3116 1113 3116 1747 
z
" transform="scale(0.015625)"/>
       <path id="DejaVuSans-41" d="M 2188 4044 
L 1331 1722 
L 3047 1722 
L 2188 4044 
z
M 1831 4666 
L 2547 4666 
L 4325 0 
L 3669 0 
L 3244 1197 
L 1141 1197 
L 716 0 
L 50 0 
L 1831 4666 
z
" transform="scale(0.015625)"/>
       <path id="DejaVuSans-5f" d="M 3263 -1063 
L 3263 -1509 
L -63 -1509 
L -63 -1063 
L 3263 -1063 
z
" transform="scale(0.015625)"/>
       <path id="DejaVuSans-73" d="M 2834 3397 
L 2834 2853 
Q 2591 2978 2328 3040 
Q 2066 3103 1784 3103 
Q 1356 3103 1142 2972 
Q 928 2841 928 2578 
Q 928 2378 1081 2264 
Q 1234 2150 1697 2047 
L 1894 2003 
Q 2506 1872 2764 1633 
Q 3022 1394 3022 966 
Q 3022 478 2636 193 
Q 2250 -91 1575 -91 
Q 1294 -91 989 -36 
Q 684 19 347 128 
L 347 722 
Q 666 556 975 473 
Q 1284 391 1588 391 
Q 1994 391 2212 530 
Q 2431 669 2431 922 
Q 2431 1156 2273 1281 
Q 2116 1406 1581 1522 
L 1381 1569 
Q 847 1681 609 1914 
Q 372 2147 372 2553 
Q 372 3047 722 3315 
Q 1072 3584 1716 3584 
Q 2034 3584 2315 3537 
Q 2597 3491 2834 3397 
z
" transform="scale(0.015625)"/>
       <path id="DejaVuSans-66" d="M 2375 4863 
L 2375 4384 
L 1825 4384 
Q 1516 4384 1395 4259 
Q 1275 4134 1275 3809 
L 1275 3500 
L 2222 3500 
L 2222 3053 
L 1275 3053 
L 1275 0 
L 697 0 
L 697 3053 
L 147 3053 
L 147 3500 
L 697 3500 
L 697 3744 
Q 697 4328 969 4595 
Q 1241 4863 1831 4863 
L 2375 4863 
z
" transform="scale(0.015625)"/>
       <path id="DejaVuSans-6d" d="M 3328 2828 
Q 3544 3216 3844 3400 
Q 4144 3584 4550 3584 
Q 5097 3584 5394 3201 
Q 5691 2819 5691 2113 
L 5691 0 
L 5113 0 
L 5113 2094 
Q 5113 2597 4934 2840 
Q 4756 3084 4391 3084 
Q 3944 3084 3684 2787 
Q 3425 2491 3425 1978 
L 3425 0 
L 2847 0 
L 2847 2094 
Q 2847 2600 2669 2842 
Q 2491 3084 2119 3084 
Q 1678 3084 1418 2786 
Q 1159 2488 1159 1978 
L 1159 0 
L 581 0 
L 581 3500 
L 1159 3500 
L 1159 2956 
Q 1356 3278 1631 3431 
Q 1906 3584 2284 3584 
Q 2666 3584 2933 3390 
Q 3200 3197 3328 2828 
z
" transform="scale(0.015625)"/>
       <path id="DejaVuSans-64" d="M 2906 2969 
L 2906 4863 
L 3481 4863 
L 3481 0 
L 2906 0 
L 2906 525 
Q 2725 213 2448 61 
Q 2172 -91 1784 -91 
Q 1150 -91 751 415 
Q 353 922 353 1747 
Q 353 2572 751 3078 
Q 1150 3584 1784 3584 
Q 2172 3584 2448 3432 
Q 2725 3281 2906 2969 
z
M 947 1747 
Q 947 1113 1208 752 
Q 1469 391 1925 391 
Q 2381 391 2643 752 
Q 2906 1113 2906 1747 
Q 2906 2381 2643 2742 
Q 2381 3103 1925 3103 
Q 1469 3103 1208 2742 
Q 947 2381 947 1747 
z
" transform="scale(0.015625)"/>
      </defs>
      <use xlink:href="#DejaVuSans-50"/>
      <use xlink:href="#DejaVuSans-65" x="56.677734"/>
      <use xlink:href="#DejaVuSans-72" x="118.201172"/>
      <use xlink:href="#DejaVuSans-63" x="157.064453"/>
      <use xlink:href="#DejaVuSans-65" x="212.044922"/>
      <use xlink:href="#DejaVuSans-6e" x="273.568359"/>
      <use xlink:href="#DejaVuSans-74" x="336.947266"/>
      <use xlink:href="#DejaVuSans-47" x="376.15625"/>
      <use xlink:href="#DejaVuSans-70" x="453.646484"/>
      <use xlink:href="#DejaVuSans-41" x="517.123047"/>
      <use xlink:href="#DejaVuSans-5f" x="585.53125"/>
      <use xlink:href="#DejaVuSans-74" x="635.53125"/>
      <use xlink:href="#DejaVuSans-72" x="674.740234"/>
      <use xlink:href="#DejaVuSans-61" x="715.853516"/>
      <use xlink:href="#DejaVuSans-6e" x="777.132812"/>
      <use xlink:href="#DejaVuSans-73" x="840.511719"/>
      <use xlink:href="#DejaVuSans-66" x="892.611328"/>
      <use xlink:href="#DejaVuSans-6f" x="927.816406"/>
      <use xlink:href="#DejaVuSans-72" x="988.998047"/>
      <use xlink:href="#DejaVuSans-6d" x="1028.361328"/>
      <use xlink:href="#DejaVuSans-65" x="1125.773438"/>
      <use xlink:href="#DejaVuSans-64" x="1187.296875"/>
     </g>
    </g>
   </g>
   <g id="LineCollection_1">
    <path d="M 66.102102 210.902579 
L 66.102102 195.623462 
" clip-path="url(#pcd5ebee2c3)" style="fill: none; stroke: #d3d3d3; stroke-width: 3"/>
    <path d="M 149.383988 241.488789 
L 149.383988 196.198525 
" clip-path="url(#pcd5ebee2c3)" style="fill: none; stroke: #d3d3d3; stroke-width: 3"/>
    <path d="M 150.770294 229.136367 
L 150.770294 190.10304 
" clip-path="url(#pcd5ebee2c3)" style="fill: none; stroke: #d3d3d3; stroke-width: 3"/>
    <path d="M 155.756277 284.562486 
L 155.756277 253.912841 
" clip-path="url(#pcd5ebee2c3)" style="fill: none; stroke: #d3d3d3; stroke-width: 3"/>
    <path d="M 204.240689 246.730378 
L 204.240689 177.829939 
" clip-path="url(#pcd5ebee2c3)" style="fill: none; stroke: #d3d3d3; stroke-width: 3"/>
    <path d="M 209.416415 211.220237 
L 209.416415 177.839267 
" clip-path="url(#pcd5ebee2c3)" style="fill: none; stroke: #d3d3d3; stroke-width: 3"/>
    <path d="M 211.422791 253.684822 
L 211.422791 239.596265 
" clip-path="url(#pcd5ebee2c3)" style="fill: none; stroke: #d3d3d3; stroke-width: 3"/>
    <path d="M 212.247131 305.107534 
L 212.247131 116.945643 
" clip-path="url(#pcd5ebee2c3)" style="fill: none; stroke: #d3d3d3; stroke-width: 3"/>
    <path d="M 216.275318 281.330796 
L 216.275318 269.540191 
" clip-path="url(#pcd5ebee2c3)" style="fill: none; stroke: #d3d3d3; stroke-width: 3"/>
    <path d="M 217.968482 290.486294 
L 217.968482 275.212255 
" clip-path="url(#pcd5ebee2c3)" style="fill: none; stroke: #d3d3d3; stroke-width: 3"/>
    <path d="M 223.215021 275.996955 
L 223.215021 264.280857 
" clip-path="url(#pcd5ebee2c3)" style="fill: none; stroke: #d3d3d3; stroke-width: 3"/>
    <path d="M 237.780772 259.374091 
L 237.780772 246.756595 
" clip-path="url(#pcd5ebee2c3)" style="fill: none; stroke: #d3d3d3; stroke-width: 3"/>
    <path d="M 239.71452 262.042313 
L 239.71452 58.856537 
" clip-path="url(#pcd5ebee2c3)" style="fill: none; stroke: #d3d3d3; stroke-width: 3"/>
    <path d="M 244.524377 254.319553 
L 244.524377 216.256102 
" clip-path="url(#pcd5ebee2c3)" style="fill: none; stroke: #d3d3d3; stroke-width: 3"/>
    <path d="M 265.394327 264.343279 
L 265.394327 76.158846 
" clip-path="url(#pcd5ebee2c3)" style="fill: none; stroke: #d3d3d3; stroke-width: 3"/>
    <path d="M 266.035278 289.595376 
L 266.035278 271.534379 
" clip-path="url(#pcd5ebee2c3)" style="fill: none; stroke: #d3d3d3; stroke-width: 3"/>
    <path d="M 269.31811 239.145201 
L 269.31811 221.074518 
" clip-path="url(#pcd5ebee2c3)" style="fill: none; stroke: #d3d3d3; stroke-width: 3"/>
    <path d="M 289.605211 224.983979 
L 289.605211 184.635385 
" clip-path="url(#pcd5ebee2c3)" style="fill: none; stroke: #d3d3d3; stroke-width: 3"/>
    <path d="M 293.908481 241.142062 
L 293.908481 229.685646 
" clip-path="url(#pcd5ebee2c3)" style="fill: none; stroke: #d3d3d3; stroke-width: 3"/>
    <path d="M 299.319343 289.855194 
L 299.319343 262.098243 
" clip-path="url(#pcd5ebee2c3)" style="fill: none; stroke: #d3d3d3; stroke-width: 3"/>
    <path d="M 303.885893 259.268667 
L 303.885893 208.68677 
" clip-path="url(#pcd5ebee2c3)" style="fill: none; stroke: #d3d3d3; stroke-width: 3"/>
    <path d="M 304.270827 295.199408 
L 304.270827 284.387284 
" clip-path="url(#pcd5ebee2c3)" style="fill: none; stroke: #d3d3d3; stroke-width: 3"/>
    <path d="M 304.899976 289.227105 
L 304.899976 274.196086 
" clip-path="url(#pcd5ebee2c3)" style="fill: none; stroke: #d3d3d3; stroke-width: 3"/>
    <path d="M 305.027077 234.4237 
L 305.027077 221.097487 
" clip-path="url(#pcd5ebee2c3)" style="fill: none; stroke: #d3d3d3; stroke-width: 3"/>
    <path d="M 315.368542 232.015075 
L 315.368542 217.939629 
" clip-path="url(#pcd5ebee2c3)" style="fill: none; stroke: #d3d3d3; stroke-width: 3"/>
    <path d="M 324.202047 287.074965 
L 324.202047 262.138066 
" clip-path="url(#pcd5ebee2c3)" style="fill: none; stroke: #d3d3d3; stroke-width: 3"/>
    <path d="M 328.488067 255.128882 
L 328.488067 248.554823 
" clip-path="url(#pcd5ebee2c3)" style="fill: none; stroke: #d3d3d3; stroke-width: 3"/>
    <path d="M 341.55312 278.304989 
L 341.55312 267.550186 
" clip-path="url(#pcd5ebee2c3)" style="fill: none; stroke: #d3d3d3; stroke-width: 3"/>
    <path d="M 343.123723 223.908729 
L 343.123723 189.477336 
" clip-path="url(#pcd5ebee2c3)" style="fill: none; stroke: #d3d3d3; stroke-width: 3"/>
    <path d="M 343.308927 227.593984 
L 343.308927 202.686934 
" clip-path="url(#pcd5ebee2c3)" style="fill: none; stroke: #d3d3d3; stroke-width: 3"/>
    <path d="M 346.796028 213.759076 
L 346.796028 196.877143 
" clip-path="url(#pcd5ebee2c3)" style="fill: none; stroke: #d3d3d3; stroke-width: 3"/>
    <path d="M 348.190505 295.184524 
L 348.190505 265.306728 
" clip-path="url(#pcd5ebee2c3)" style="fill: none; stroke: #d3d3d3; stroke-width: 3"/>
    <path d="M 368.702757 237.255086 
L 368.702757 223.260398 
" clip-path="url(#pcd5ebee2c3)" style="fill: none; stroke: #d3d3d3; stroke-width: 3"/>
    <path d="M 375.891215 266.693515 
L 375.891215 252.858255 
" clip-path="url(#pcd5ebee2c3)" style="fill: none; stroke: #d3d3d3; stroke-width: 3"/>
    <path d="M 378.87536 291.605878 
L 378.87536 281.081388 
" clip-path="url(#pcd5ebee2c3)" style="fill: none; stroke: #d3d3d3; stroke-width: 3"/>
    <path d="M 385.007065 289.536345 
L 385.007065 284.341669 
" clip-path="url(#pcd5ebee2c3)" style="fill: none; stroke: #d3d3d3; stroke-width: 3"/>
    <path d="M 431.719148 206.145791 
L 431.719148 173.038236 
" clip-path="url(#pcd5ebee2c3)" style="fill: none; stroke: #d3d3d3; stroke-width: 3"/>
   </g>
   <g id="line2d_15">
    <path d="M 66.102102 220.520305 
L 149.383988 227.952998 
L 150.770294 228.076722 
L 155.756277 228.521708 
L 204.240689 232.848817 
L 209.416415 233.310738 
L 211.422791 233.489801 
L 212.247131 233.563372 
L 216.275318 233.922877 
L 217.968482 234.073988 
L 223.215021 234.542228 
L 237.780772 235.842183 
L 239.71452 236.014765 
L 244.524377 236.444033 
L 265.394327 238.306622 
L 266.035278 238.363825 
L 269.31811 238.656809 
L 289.605211 240.467381 
L 293.908481 240.851437 
L 299.319343 241.334342 
L 303.885893 241.741895 
L 304.270827 241.776249 
L 304.899976 241.832399 
L 305.027077 241.843743 
L 315.368542 242.766692 
L 324.202047 243.555059 
L 328.488067 243.937576 
L 341.55312 245.103598 
L 343.123723 245.24377 
L 343.308927 245.260299 
L 346.796028 245.571514 
L 348.190505 245.695967 
L 368.702757 247.526633 
L 375.891215 248.168184 
L 378.87536 248.434512 
L 385.007065 248.981751 
L 431.719148 253.150684 
" clip-path="url(#pcd5ebee2c3)" style="fill: none; stroke: #1f77b4; stroke-width: 1.5; stroke-linecap: square"/>
   </g>
   <g id="line2d_16">
    <defs>
     <path id="m83f3bf4add" d="M 0 3 
C 0.795609 3 1.55874 2.683901 2.12132 2.12132 
C 2.683901 1.55874 3 0.795609 3 0 
C 3 -0.795609 2.683901 -1.55874 2.12132 -2.12132 
C 1.55874 -2.683901 0.795609 -3 0 -3 
C -0.795609 -3 -1.55874 -2.683901 -2.12132 -2.12132 
C -2.683901 -1.55874 -3 -0.795609 -3 0 
C -3 0.795609 -2.683901 1.55874 -2.12132 2.12132 
C -1.55874 2.683901 -0.795609 3 0 3 
z
" style="stroke: #000000"/>
    </defs>
    <g clip-path="url(#pcd5ebee2c3)">
     <use xlink:href="#m83f3bf4add" x="66.102102" y="203.263021" style="stroke: #000000"/>
     <use xlink:href="#m83f3bf4add" x="149.383988" y="218.843657" style="stroke: #000000"/>
     <use xlink:href="#m83f3bf4add" x="150.770294" y="209.619703" style="stroke: #000000"/>
     <use xlink:href="#m83f3bf4add" x="155.756277" y="269.237663" style="stroke: #000000"/>
     <use xlink:href="#m83f3bf4add" x="204.240689" y="212.280158" style="stroke: #000000"/>
     <use xlink:href="#m83f3bf4add" x="209.416415" y="194.529752" style="stroke: #000000"/>
     <use xlink:href="#m83f3bf4add" x="211.422791" y="246.640544" style="stroke: #000000"/>
     <use xlink:href="#m83f3bf4add" x="212.247131" y="211.026588" style="stroke: #000000"/>
     <use xlink:href="#m83f3bf4add" x="216.275318" y="275.435493" style="stroke: #000000"/>
     <use xlink:href="#m83f3bf4add" x="217.968482" y="282.849275" style="stroke: #000000"/>
     <use xlink:href="#m83f3bf4add" x="223.215021" y="270.138906" style="stroke: #000000"/>
     <use xlink:href="#m83f3bf4add" x="237.780772" y="253.065343" style="stroke: #000000"/>
     <use xlink:href="#m83f3bf4add" x="239.71452" y="160.449425" style="stroke: #000000"/>
     <use xlink:href="#m83f3bf4add" x="244.524377" y="235.287827" style="stroke: #000000"/>
     <use xlink:href="#m83f3bf4add" x="265.394327" y="170.251062" style="stroke: #000000"/>
     <use xlink:href="#m83f3bf4add" x="266.035278" y="280.564878" style="stroke: #000000"/>
     <use xlink:href="#m83f3bf4add" x="269.31811" y="230.109859" style="stroke: #000000"/>
     <use xlink:href="#m83f3bf4add" x="289.605211" y="204.809682" style="stroke: #000000"/>
     <use xlink:href="#m83f3bf4add" x="293.908481" y="235.413854" style="stroke: #000000"/>
     <use xlink:href="#m83f3bf4add" x="299.319343" y="275.976718" style="stroke: #000000"/>
     <use xlink:href="#m83f3bf4add" x="303.885893" y="233.977719" style="stroke: #000000"/>
     <use xlink:href="#m83f3bf4add" x="304.270827" y="289.793346" style="stroke: #000000"/>
     <use xlink:href="#m83f3bf4add" x="304.899976" y="281.711595" style="stroke: #000000"/>
     <use xlink:href="#m83f3bf4add" x="305.027077" y="227.760594" style="stroke: #000000"/>
     <use xlink:href="#m83f3bf4add" x="315.368542" y="224.977352" style="stroke: #000000"/>
     <use xlink:href="#m83f3bf4add" x="324.202047" y="274.606516" style="stroke: #000000"/>
     <use xlink:href="#m83f3bf4add" x="328.488067" y="251.841853" style="stroke: #000000"/>
     <use xlink:href="#m83f3bf4add" x="341.55312" y="272.927587" style="stroke: #000000"/>
     <use xlink:href="#m83f3bf4add" x="343.123723" y="206.693032" style="stroke: #000000"/>
     <use xlink:href="#m83f3bf4add" x="343.308927" y="215.140459" style="stroke: #000000"/>
     <use xlink:href="#m83f3bf4add" x="346.796028" y="205.318109" style="stroke: #000000"/>
     <use xlink:href="#m83f3bf4add" x="348.190505" y="280.245626" style="stroke: #000000"/>
     <use xlink:href="#m83f3bf4add" x="368.702757" y="230.257742" style="stroke: #000000"/>
     <use xlink:href="#m83f3bf4add" x="375.891215" y="259.775885" style="stroke: #000000"/>
     <use xlink:href="#m83f3bf4add" x="378.87536" y="286.343633" style="stroke: #000000"/>
     <use xlink:href="#m83f3bf4add" x="385.007065" y="286.939007" style="stroke: #000000"/>
     <use xlink:href="#m83f3bf4add" x="431.719148" y="189.592013" style="stroke: #000000"/>
    </g>
   </g>
   <g id="patch_3">
    <path d="M 47.82125 303.64 
L 47.82125 46.543987 
" style="fill: none; stroke: #000000; stroke-width: 0.8; stroke-linejoin: miter; stroke-linecap: square"/>
   </g>
   <g id="patch_4">
    <path d="M 450 303.64 
L 450 46.543987 
" style="fill: none; stroke: #000000; stroke-width: 0.8; stroke-linejoin: miter; stroke-linecap: square"/>
   </g>
   <g id="patch_5">
    <path d="M 47.82125 303.64 
L 450 303.64 
" style="fill: none; stroke: #000000; stroke-width: 0.8; stroke-linejoin: miter; stroke-linecap: square"/>
   </g>
   <g id="patch_6">
    <path d="M 47.82125 46.543987 
L 450 46.543987 
" style="fill: none; stroke: #000000; stroke-width: 0.8; stroke-linejoin: miter; stroke-linecap: square"/>
   </g>
   <g id="text_17">
    <!-- y = -0.01x + 0.45 -->
    <g transform="translate(43.314906 18.451841)scale(0.1 -0.1)">
     <defs>
      <path id="DejaVuSans-79" d="M 2059 -325 
Q 1816 -950 1584 -1140 
Q 1353 -1331 966 -1331 
L 506 -1331 
L 506 -850 
L 844 -850 
Q 1081 -850 1212 -737 
Q 1344 -625 1503 -206 
L 1606 56 
L 191 3500 
L 800 3500 
L 1894 763 
L 2988 3500 
L 3597 3500 
L 2059 -325 
z
" transform="scale(0.015625)"/>
      <path id="DejaVuSans-20" transform="scale(0.015625)"/>
      <path id="DejaVuSans-3d" d="M 678 2906 
L 4684 2906 
L 4684 2381 
L 678 2381 
L 678 2906 
z
M 678 1631 
L 4684 1631 
L 4684 1100 
L 678 1100 
L 678 1631 
z
" transform="scale(0.015625)"/>
      <path id="DejaVuSans-2d" d="M 313 2009 
L 1997 2009 
L 1997 1497 
L 313 1497 
L 313 2009 
z
" transform="scale(0.015625)"/>
      <path id="DejaVuSans-78" d="M 3513 3500 
L 2247 1797 
L 3578 0 
L 2900 0 
L 1881 1375 
L 863 0 
L 184 0 
L 1544 1831 
L 300 3500 
L 978 3500 
L 1906 2253 
L 2834 3500 
L 3513 3500 
z
" transform="scale(0.015625)"/>
      <path id="DejaVuSans-2b" d="M 2944 4013 
L 2944 2272 
L 4684 2272 
L 4684 1741 
L 2944 1741 
L 2944 0 
L 2419 0 
L 2419 1741 
L 678 1741 
L 678 2272 
L 2419 2272 
L 2419 4013 
L 2944 4013 
z
" transform="scale(0.015625)"/>
     </defs>
     <use xlink:href="#DejaVuSans-79"/>
     <use xlink:href="#DejaVuSans-20" x="59.179688"/>
     <use xlink:href="#DejaVuSans-3d" x="90.966797"/>
     <use xlink:href="#DejaVuSans-20" x="174.755859"/>
     <use xlink:href="#DejaVuSans-2d" x="206.542969"/>
     <use xlink:href="#DejaVuSans-30" x="242.626953"/>
     <use xlink:href="#DejaVuSans-2e" x="306.25"/>
     <use xlink:href="#DejaVuSans-30" x="338.037109"/>
     <use xlink:href="#DejaVuSans-31" x="401.660156"/>
     <use xlink:href="#DejaVuSans-78" x="465.283203"/>
     <use xlink:href="#DejaVuSans-20" x="524.462891"/>
     <use xlink:href="#DejaVuSans-2b" x="556.25"/>
     <use xlink:href="#DejaVuSans-20" x="640.039062"/>
     <use xlink:href="#DejaVuSans-30" x="671.826172"/>
     <use xlink:href="#DejaVuSans-2e" x="735.449219"/>
     <use xlink:href="#DejaVuSans-34" x="767.236328"/>
     <use xlink:href="#DejaVuSans-35" x="830.859375"/>
    </g>
   </g>
   <g id="text_18">
    <!-- r^2 = 0.04 -->
    <g transform="translate(60.111781 26.164721)scale(0.1 -0.1)">
     <defs>
      <path id="DejaVuSans-5e" d="M 2988 4666 
L 4684 2925 
L 4056 2925 
L 2681 4159 
L 1306 2925 
L 678 2925 
L 2375 4666 
L 2988 4666 
z
" transform="scale(0.015625)"/>
     </defs>
     <use xlink:href="#DejaVuSans-72"/>
     <use xlink:href="#DejaVuSans-5e" x="41.113281"/>
     <use xlink:href="#DejaVuSans-32" x="124.902344"/>
     <use xlink:href="#DejaVuSans-20" x="188.525391"/>
     <use xlink:href="#DejaVuSans-3d" x="220.3125"/>
     <use xlink:href="#DejaVuSans-20" x="304.101562"/>
     <use xlink:href="#DejaVuSans-30" x="335.888672"/>
     <use xlink:href="#DejaVuSans-2e" x="399.511719"/>
     <use xlink:href="#DejaVuSans-30" x="431.298828"/>
     <use xlink:href="#DejaVuSans-34" x="494.921875"/>
    </g>
   </g>
   <g id="text_19">
    <!-- n = 37 -->
    <g transform="translate(71.139906 33.877601)scale(0.1 -0.1)">
     <defs>
      <path id="DejaVuSans-37" d="M 525 4666 
L 3525 4666 
L 3525 4397 
L 1831 0 
L 1172 0 
L 2766 4134 
L 525 4134 
L 525 4666 
z
" transform="scale(0.015625)"/>
     </defs>
     <use xlink:href="#DejaVuSans-6e"/>
     <use xlink:href="#DejaVuSans-20" x="63.378906"/>
     <use xlink:href="#DejaVuSans-3d" x="95.166016"/>
     <use xlink:href="#DejaVuSans-20" x="178.955078"/>
     <use xlink:href="#DejaVuSans-33" x="210.742188"/>
     <use xlink:href="#DejaVuSans-37" x="274.365234"/>
    </g>
   </g>
   <g id="text_20">
    <!-- Total vs PercentGpA_transformed -->
    <g transform="translate(149.362188 40.543987)scale(0.12 -0.12)">
     <defs>
      <path id="DejaVuSans-76" d="M 191 3500 
L 800 3500 
L 1894 563 
L 2988 3500 
L 3597 3500 
L 2284 0 
L 1503 0 
L 191 3500 
z
" transform="scale(0.015625)"/>
     </defs>
     <use xlink:href="#DejaVuSans-54"/>
     <use xlink:href="#DejaVuSans-6f" x="44.083984"/>
     <use xlink:href="#DejaVuSans-74" x="105.265625"/>
     <use xlink:href="#DejaVuSans-61" x="144.474609"/>
     <use xlink:href="#DejaVuSans-6c" x="205.753906"/>
     <use xlink:href="#DejaVuSans-20" x="233.537109"/>
     <use xlink:href="#DejaVuSans-76" x="265.324219"/>
     <use xlink:href="#DejaVuSans-73" x="324.503906"/>
     <use xlink:href="#DejaVuSans-20" x="376.603516"/>
     <use xlink:href="#DejaVuSans-50" x="408.390625"/>
     <use xlink:href="#DejaVuSans-65" x="465.068359"/>
     <use xlink:href="#DejaVuSans-72" x="526.591797"/>
     <use xlink:href="#DejaVuSans-63" x="565.455078"/>
     <use xlink:href="#DejaVuSans-65" x="620.435547"/>
     <use xlink:href="#DejaVuSans-6e" x="681.958984"/>
     <use xlink:href="#DejaVuSans-74" x="745.337891"/>
     <use xlink:href="#DejaVuSans-47" x="784.546875"/>
     <use xlink:href="#DejaVuSans-70" x="862.037109"/>
     <use xlink:href="#DejaVuSans-41" x="925.513672"/>
     <use xlink:href="#DejaVuSans-5f" x="993.921875"/>
     <use xlink:href="#DejaVuSans-74" x="1043.921875"/>
     <use xlink:href="#DejaVuSans-72" x="1083.130859"/>
     <use xlink:href="#DejaVuSans-61" x="1124.244141"/>
     <use xlink:href="#DejaVuSans-6e" x="1185.523438"/>
     <use xlink:href="#DejaVuSans-73" x="1248.902344"/>
     <use xlink:href="#DejaVuSans-66" x="1301.001953"/>
     <use xlink:href="#DejaVuSans-6f" x="1336.207031"/>
     <use xlink:href="#DejaVuSans-72" x="1397.388672"/>
     <use xlink:href="#DejaVuSans-6d" x="1436.751953"/>
     <use xlink:href="#DejaVuSans-65" x="1534.164062"/>
     <use xlink:href="#DejaVuSans-64" x="1595.6875"/>
    </g>
   </g>
  </g>
 </g>
 <defs>
  <clipPath id="pcd5ebee2c3">
   <rect x="47.82125" y="46.543987" width="402.17875" height="257.096013"/>
  </clipPath>
 </defs>
</svg>
