<?xml version="1.0" encoding="utf-8" standalone="no"?>
<!DOCTYPE svg PUBLIC "-//W3C//DTD SVG 1.1//EN"
  "http://www.w3.org/Graphics/SVG/1.1/DTD/svg11.dtd">
<svg xmlns:xlink="http://www.w3.org/1999/xlink" width="460.8pt" height="345.6pt" viewBox="0 0 460.8 345.6" xmlns="http://www.w3.org/2000/svg" version="1.1">
 <metadata>
  <rdf:RDF xmlns:dc="http://purl.org/dc/elements/1.1/" xmlns:cc="http://creativecommons.org/ns#" xmlns:rdf="http://www.w3.org/1999/02/22-rdf-syntax-ns#">
   <cc:Work>
    <dc:type rdf:resource="http://purl.org/dc/dcmitype/StillImage"/>
    <dc:date>2024-02-11T15:17:49.167798</dc:date>
    <dc:format>image/svg+xml</dc:format>
    <dc:creator>
     <cc:Agent>
      <dc:title>Matplotlib v3.5.3, https://matplotlib.org/</dc:title>
     </cc:Agent>
    </dc:creator>
   </cc:Work>
  </rdf:RDF>
 </metadata>
 <defs>
  <style type="text/css">*{stroke-linejoin: round; stroke-linecap: butt}</style>
 </defs>
 <g id="figure_1">
  <g id="patch_1">
   <path d="M 0 345.6 
L 460.8 345.6 
L 460.8 0 
L 0 0 
z
" style="fill: #ffffff"/>
  </g>
  <g id="axes_1">
   <g id="patch_2">
    <path d="M 47.72 303.64 
L 450 303.64 
L 450 246.185164 
L 47.72 246.185164 
z
" style="fill: #ffffff"/>
   </g>
   <g id="matplotlib.axis_1">
    <g id="xtick_1">
     <g id="text_1">
      <!-- AI -->
      <g style="fill: #262626" transform="translate(143.394688 318.238437)scale(0.1 -0.1)">
       <defs>
        <path id="DejaVuSans-41" d="M 2188 4044 
L 1331 1722 
L 3047 1722 
L 2188 4044 
z
M 1831 4666 
L 2547 4666 
L 4325 0 
L 3669 0 
L 3244 1197 
L 1141 1197 
L 716 0 
L 50 0 
L 1831 4666 
z
" transform="scale(0.015625)"/>
        <path id="DejaVuSans-49" d="M 628 4666 
L 1259 4666 
L 1259 0 
L 628 0 
L 628 4666 
z
" transform="scale(0.015625)"/>
       </defs>
       <use xlink:href="#DejaVuSans-41"/>
       <use xlink:href="#DejaVuSans-49" x="68.408203"/>
      </g>
     </g>
    </g>
    <g id="xtick_2">
     <g id="text_2">
      <!-- LA -->
      <g style="fill: #262626" transform="translate(343.11125 318.238437)scale(0.1 -0.1)">
       <defs>
        <path id="DejaVuSans-4c" d="M 628 4666 
L 1259 4666 
L 1259 531 
L 3531 531 
L 3531 0 
L 628 0 
L 628 4666 
z
" transform="scale(0.015625)"/>
       </defs>
       <use xlink:href="#DejaVuSans-4c"/>
       <use xlink:href="#DejaVuSans-41" x="57.962891"/>
      </g>
     </g>
    </g>
    <g id="text_3">
     <!-- WT_MUT -->
     <g style="fill: #262626" transform="translate(227.335 331.638437)scale(0.1 -0.1)">
      <defs>
       <path id="DejaVuSans-57" d="M 213 4666 
L 850 4666 
L 1831 722 
L 2809 4666 
L 3519 4666 
L 4500 722 
L 5478 4666 
L 6119 4666 
L 4947 0 
L 4153 0 
L 3169 4050 
L 2175 0 
L 1381 0 
L 213 4666 
z
" transform="scale(0.015625)"/>
       <path id="DejaVuSans-54" d="M -19 4666 
L 3928 4666 
L 3928 4134 
L 2272 4134 
L 2272 0 
L 1638 0 
L 1638 4134 
L -19 4134 
L -19 4666 
z
" transform="scale(0.015625)"/>
       <path id="DejaVuSans-5f" d="M 3263 -1063 
L 3263 -1509 
L -63 -1509 
L -63 -1063 
L 3263 -1063 
z
" transform="scale(0.015625)"/>
       <path id="DejaVuSans-4d" d="M 628 4666 
L 1569 4666 
L 2759 1491 
L 3956 4666 
L 4897 4666 
L 4897 0 
L 4281 0 
L 4281 4097 
L 3078 897 
L 2444 897 
L 1241 4097 
L 1241 0 
L 628 0 
L 628 4666 
z
" transform="scale(0.015625)"/>
       <path id="DejaVuSans-55" d="M 556 4666 
L 1191 4666 
L 1191 1831 
Q 1191 1081 1462 751 
Q 1734 422 2344 422 
Q 2950 422 3222 751 
Q 3494 1081 3494 1831 
L 3494 4666 
L 4128 4666 
L 4128 1753 
Q 4128 841 3676 375 
Q 3225 -91 2344 -91 
Q 1459 -91 1007 375 
Q 556 841 556 1753 
L 556 4666 
z
" transform="scale(0.015625)"/>
      </defs>
      <use xlink:href="#DejaVuSans-57"/>
      <use xlink:href="#DejaVuSans-54" x="98.876953"/>
      <use xlink:href="#DejaVuSans-5f" x="159.960938"/>
      <use xlink:href="#DejaVuSans-4d" x="209.960938"/>
      <use xlink:href="#DejaVuSans-55" x="296.240234"/>
      <use xlink:href="#DejaVuSans-54" x="369.433594"/>
     </g>
    </g>
   </g>
   <g id="matplotlib.axis_2">
    <g id="ytick_1">
     <g id="line2d_1">
      <path d="M 47.72 303.64 
L 450 303.64 
" clip-path="url(#p81ab1ab701)" style="fill: none; stroke: #cccccc; stroke-width: 0.8; stroke-linecap: round"/>
     </g>
     <g id="text_4">
      <!-- 0.0 -->
      <g style="fill: #262626" transform="translate(24.816875 307.439219)scale(0.1 -0.1)">
       <defs>
        <path id="DejaVuSans-30" d="M 2034 4250 
Q 1547 4250 1301 3770 
Q 1056 3291 1056 2328 
Q 1056 1369 1301 889 
Q 1547 409 2034 409 
Q 2525 409 2770 889 
Q 3016 1369 3016 2328 
Q 3016 3291 2770 3770 
Q 2525 4250 2034 4250 
z
M 2034 4750 
Q 2819 4750 3233 4129 
Q 3647 3509 3647 2328 
Q 3647 1150 3233 529 
Q 2819 -91 2034 -91 
Q 1250 -91 836 529 
Q 422 1150 422 2328 
Q 422 3509 836 4129 
Q 1250 4750 2034 4750 
z
" transform="scale(0.015625)"/>
        <path id="DejaVuSans-2e" d="M 684 794 
L 1344 794 
L 1344 0 
L 684 0 
L 684 794 
z
" transform="scale(0.015625)"/>
       </defs>
       <use xlink:href="#DejaVuSans-30"/>
       <use xlink:href="#DejaVuSans-2e" x="63.623047"/>
       <use xlink:href="#DejaVuSans-30" x="95.410156"/>
      </g>
     </g>
    </g>
    <g id="ytick_2">
     <g id="line2d_2">
      <path d="M 47.72 272.088778 
L 450 272.088778 
" clip-path="url(#p81ab1ab701)" style="fill: none; stroke: #cccccc; stroke-width: 0.8; stroke-linecap: round"/>
     </g>
     <g id="text_5">
      <!-- 0.5 -->
      <g style="fill: #262626" transform="translate(24.816875 275.887997)scale(0.1 -0.1)">
       <defs>
        <path id="DejaVuSans-35" d="M 691 4666 
L 3169 4666 
L 3169 4134 
L 1269 4134 
L 1269 2991 
Q 1406 3038 1543 3061 
Q 1681 3084 1819 3084 
Q 2600 3084 3056 2656 
Q 3513 2228 3513 1497 
Q 3513 744 3044 326 
Q 2575 -91 1722 -91 
Q 1428 -91 1123 -41 
Q 819 9 494 109 
L 494 744 
Q 775 591 1075 516 
Q 1375 441 1709 441 
Q 2250 441 2565 725 
Q 2881 1009 2881 1497 
Q 2881 1984 2565 2268 
Q 2250 2553 1709 2553 
Q 1456 2553 1204 2497 
Q 953 2441 691 2322 
L 691 4666 
z
" transform="scale(0.015625)"/>
       </defs>
       <use xlink:href="#DejaVuSans-30"/>
       <use xlink:href="#DejaVuSans-2e" x="63.623047"/>
       <use xlink:href="#DejaVuSans-35" x="95.410156"/>
      </g>
     </g>
    </g>
    <g id="text_6">
     <!-- PercentGpA -->
     <g style="fill: #262626" transform="translate(18.737188 304.189144)rotate(-90)scale(0.1 -0.1)">
      <defs>
       <path id="DejaVuSans-50" d="M 1259 4147 
L 1259 2394 
L 2053 2394 
Q 2494 2394 2734 2622 
Q 2975 2850 2975 3272 
Q 2975 3691 2734 3919 
Q 2494 4147 2053 4147 
L 1259 4147 
z
M 628 4666 
L 2053 4666 
Q 2838 4666 3239 4311 
Q 3641 3956 3641 3272 
Q 3641 2581 3239 2228 
Q 2838 1875 2053 1875 
L 1259 1875 
L 1259 0 
L 628 0 
L 628 4666 
z
" transform="scale(0.015625)"/>
       <path id="DejaVuSans-65" d="M 3597 1894 
L 3597 1613 
L 953 1613 
Q 991 1019 1311 708 
Q 1631 397 2203 397 
Q 2534 397 2845 478 
Q 3156 559 3463 722 
L 3463 178 
Q 3153 47 2828 -22 
Q 2503 -91 2169 -91 
Q 1331 -91 842 396 
Q 353 884 353 1716 
Q 353 2575 817 3079 
Q 1281 3584 2069 3584 
Q 2775 3584 3186 3129 
Q 3597 2675 3597 1894 
z
M 3022 2063 
Q 3016 2534 2758 2815 
Q 2500 3097 2075 3097 
Q 1594 3097 1305 2825 
Q 1016 2553 972 2059 
L 3022 2063 
z
" transform="scale(0.015625)"/>
       <path id="DejaVuSans-72" d="M 2631 2963 
Q 2534 3019 2420 3045 
Q 2306 3072 2169 3072 
Q 1681 3072 1420 2755 
Q 1159 2438 1159 1844 
L 1159 0 
L 581 0 
L 581 3500 
L 1159 3500 
L 1159 2956 
Q 1341 3275 1631 3429 
Q 1922 3584 2338 3584 
Q 2397 3584 2469 3576 
Q 2541 3569 2628 3553 
L 2631 2963 
z
" transform="scale(0.015625)"/>
       <path id="DejaVuSans-63" d="M 3122 3366 
L 3122 2828 
Q 2878 2963 2633 3030 
Q 2388 3097 2138 3097 
Q 1578 3097 1268 2742 
Q 959 2388 959 1747 
Q 959 1106 1268 751 
Q 1578 397 2138 397 
Q 2388 397 2633 464 
Q 2878 531 3122 666 
L 3122 134 
Q 2881 22 2623 -34 
Q 2366 -91 2075 -91 
Q 1284 -91 818 406 
Q 353 903 353 1747 
Q 353 2603 823 3093 
Q 1294 3584 2113 3584 
Q 2378 3584 2631 3529 
Q 2884 3475 3122 3366 
z
" transform="scale(0.015625)"/>
       <path id="DejaVuSans-6e" d="M 3513 2113 
L 3513 0 
L 2938 0 
L 2938 2094 
Q 2938 2591 2744 2837 
Q 2550 3084 2163 3084 
Q 1697 3084 1428 2787 
Q 1159 2491 1159 1978 
L 1159 0 
L 581 0 
L 581 3500 
L 1159 3500 
L 1159 2956 
Q 1366 3272 1645 3428 
Q 1925 3584 2291 3584 
Q 2894 3584 3203 3211 
Q 3513 2838 3513 2113 
z
" transform="scale(0.015625)"/>
       <path id="DejaVuSans-74" d="M 1172 4494 
L 1172 3500 
L 2356 3500 
L 2356 3053 
L 1172 3053 
L 1172 1153 
Q 1172 725 1289 603 
Q 1406 481 1766 481 
L 2356 481 
L 2356 0 
L 1766 0 
Q 1100 0 847 248 
Q 594 497 594 1153 
L 594 3053 
L 172 3053 
L 172 3500 
L 594 3500 
L 594 4494 
L 1172 4494 
z
" transform="scale(0.015625)"/>
       <path id="DejaVuSans-47" d="M 3809 666 
L 3809 1919 
L 2778 1919 
L 2778 2438 
L 4434 2438 
L 4434 434 
Q 4069 175 3628 42 
Q 3188 -91 2688 -91 
Q 1594 -91 976 548 
Q 359 1188 359 2328 
Q 359 3472 976 4111 
Q 1594 4750 2688 4750 
Q 3144 4750 3555 4637 
Q 3966 4525 4313 4306 
L 4313 3634 
Q 3963 3931 3569 4081 
Q 3175 4231 2741 4231 
Q 1884 4231 1454 3753 
Q 1025 3275 1025 2328 
Q 1025 1384 1454 906 
Q 1884 428 2741 428 
Q 3075 428 3337 486 
Q 3600 544 3809 666 
z
" transform="scale(0.015625)"/>
       <path id="DejaVuSans-70" d="M 1159 525 
L 1159 -1331 
L 581 -1331 
L 581 3500 
L 1159 3500 
L 1159 2969 
Q 1341 3281 1617 3432 
Q 1894 3584 2278 3584 
Q 2916 3584 3314 3078 
Q 3713 2572 3713 1747 
Q 3713 922 3314 415 
Q 2916 -91 2278 -91 
Q 1894 -91 1617 61 
Q 1341 213 1159 525 
z
M 3116 1747 
Q 3116 2381 2855 2742 
Q 2594 3103 2138 3103 
Q 1681 3103 1420 2742 
Q 1159 2381 1159 1747 
Q 1159 1113 1420 752 
Q 1681 391 2138 391 
Q 2594 391 2855 752 
Q 3116 1113 3116 1747 
z
" transform="scale(0.015625)"/>
      </defs>
      <use xlink:href="#DejaVuSans-50"/>
      <use xlink:href="#DejaVuSans-65" x="56.677734"/>
      <use xlink:href="#DejaVuSans-72" x="118.201172"/>
      <use xlink:href="#DejaVuSans-63" x="157.064453"/>
      <use xlink:href="#DejaVuSans-65" x="212.044922"/>
      <use xlink:href="#DejaVuSans-6e" x="273.568359"/>
      <use xlink:href="#DejaVuSans-74" x="336.947266"/>
      <use xlink:href="#DejaVuSans-47" x="376.15625"/>
      <use xlink:href="#DejaVuSans-70" x="453.646484"/>
      <use xlink:href="#DejaVuSans-41" x="517.123047"/>
     </g>
    </g>
   </g>
   <g id="patch_3">
    <path d="M 68.63856 291.593532 
L 147.48544 291.593532 
L 147.48544 284.512269 
L 68.63856 284.512269 
L 68.63856 291.593532 
z
" clip-path="url(#p81ab1ab701)" style="fill: #ecf2ec; stroke: #262626; stroke-width: 1.5; stroke-linejoin: miter"/>
   </g>
   <g id="patch_4">
    <path d="M 149.09456 286.869339 
L 227.94144 286.869339 
L 227.94144 276.12767 
L 149.09456 276.12767 
L 149.09456 286.869339 
z
" clip-path="url(#p81ab1ab701)" style="fill: #107010; stroke: #262626; stroke-width: 1.5; stroke-linejoin: miter"/>
   </g>
   <g id="patch_5">
    <path d="M 269.77856 284.9682 
L 348.62544 284.9682 
L 348.62544 278.749176 
L 269.77856 278.749176 
L 269.77856 284.9682 
z
" clip-path="url(#p81ab1ab701)" style="fill: #ecf2ec; stroke: #262626; stroke-width: 1.5; stroke-linejoin: miter"/>
   </g>
   <g id="patch_6">
    <path d="M 350.23456 289.49179 
L 429.08144 289.49179 
L 429.08144 282.108954 
L 350.23456 282.108954 
L 350.23456 289.49179 
z
" clip-path="url(#p81ab1ab701)" style="fill: #107010; stroke: #262626; stroke-width: 1.5; stroke-linejoin: miter"/>
   </g>
   <g id="patch_7">
    <path d="M 148.29 303.64 
L 148.29 303.64 
L 148.29 303.64 
L 148.29 303.64 
z
" clip-path="url(#p81ab1ab701)" style="fill: #ecf2ec; stroke: #262626; stroke-width: 0.75; stroke-linejoin: miter"/>
   </g>
   <g id="patch_8">
    <path d="M 148.29 303.64 
L 148.29 303.64 
L 148.29 303.64 
L 148.29 303.64 
z
" clip-path="url(#p81ab1ab701)" style="fill: #107010; stroke: #262626; stroke-width: 0.75; stroke-linejoin: miter"/>
   </g>
   <g id="PathCollection_1"/>
   <g id="PathCollection_2"/>
   <g id="line2d_3">
    <path d="M 108.062 291.593532 
L 108.062 294.814112 
" clip-path="url(#p81ab1ab701)" style="fill: none; stroke: #262626; stroke-width: 1.5; stroke-linecap: round"/>
   </g>
   <g id="line2d_4">
    <path d="M 108.062 284.512269 
L 108.062 279.399764 
" clip-path="url(#p81ab1ab701)" style="fill: none; stroke: #262626; stroke-width: 1.5; stroke-linecap: round"/>
   </g>
   <g id="line2d_5">
    <path d="M 88.35028 294.814112 
L 127.77372 294.814112 
" clip-path="url(#p81ab1ab701)" style="fill: none; stroke: #262626; stroke-width: 1.5; stroke-linecap: round"/>
   </g>
   <g id="line2d_6">
    <path d="M 88.35028 279.399764 
L 127.77372 279.399764 
" clip-path="url(#p81ab1ab701)" style="fill: none; stroke: #262626; stroke-width: 1.5; stroke-linecap: round"/>
   </g>
   <g id="line2d_7"/>
   <g id="line2d_8">
    <path d="M 188.518 286.869339 
L 188.518 294.373124 
" clip-path="url(#p81ab1ab701)" style="fill: none; stroke: #262626; stroke-width: 1.5; stroke-linecap: round"/>
   </g>
   <g id="line2d_9">
    <path d="M 188.518 276.12767 
L 188.518 272.517547 
" clip-path="url(#p81ab1ab701)" style="fill: none; stroke: #262626; stroke-width: 1.5; stroke-linecap: round"/>
   </g>
   <g id="line2d_10">
    <path d="M 168.80628 294.373124 
L 208.22972 294.373124 
" clip-path="url(#p81ab1ab701)" style="fill: none; stroke: #262626; stroke-width: 1.5; stroke-linecap: round"/>
   </g>
   <g id="line2d_11">
    <path d="M 168.80628 272.517547 
L 208.22972 272.517547 
" clip-path="url(#p81ab1ab701)" style="fill: none; stroke: #262626; stroke-width: 1.5; stroke-linecap: round"/>
   </g>
   <g id="line2d_12"/>
   <g id="line2d_13">
    <path d="M 309.202 284.9682 
L 309.202 293.011687 
" clip-path="url(#p81ab1ab701)" style="fill: none; stroke: #262626; stroke-width: 1.5; stroke-linecap: round"/>
   </g>
   <g id="line2d_14">
    <path d="M 309.202 278.749176 
L 309.202 271.68449 
" clip-path="url(#p81ab1ab701)" style="fill: none; stroke: #262626; stroke-width: 1.5; stroke-linecap: round"/>
   </g>
   <g id="line2d_15">
    <path d="M 289.49028 293.011687 
L 328.91372 293.011687 
" clip-path="url(#p81ab1ab701)" style="fill: none; stroke: #262626; stroke-width: 1.5; stroke-linecap: round"/>
   </g>
   <g id="line2d_16">
    <path d="M 289.49028 271.68449 
L 328.91372 271.68449 
" clip-path="url(#p81ab1ab701)" style="fill: none; stroke: #262626; stroke-width: 1.5; stroke-linecap: round"/>
   </g>
   <g id="line2d_17">
    <defs>
     <path id="m30732a5cb7" d="M -0 1.414214 
L 0.848528 0 
L 0 -1.414214 
L -0.848528 -0 
z
" style="stroke: #262626; stroke-linejoin: miter"/>
    </defs>
    <g clip-path="url(#p81ab1ab701)">
     <use xlink:href="#m30732a5cb7" x="309.202" y="251.408331" style="fill: #262626; stroke: #262626; stroke-linejoin: miter"/>
     <use xlink:href="#m30732a5cb7" x="309.202" y="269.352378" style="fill: #262626; stroke: #262626; stroke-linejoin: miter"/>
    </g>
   </g>
   <g id="line2d_18">
    <path d="M 389.658 289.49179 
L 389.658 293.313074 
" clip-path="url(#p81ab1ab701)" style="fill: none; stroke: #262626; stroke-width: 1.5; stroke-linecap: round"/>
   </g>
   <g id="line2d_19">
    <path d="M 389.658 282.108954 
L 389.658 273.915742 
" clip-path="url(#p81ab1ab701)" style="fill: none; stroke: #262626; stroke-width: 1.5; stroke-linecap: round"/>
   </g>
   <g id="line2d_20">
    <path d="M 369.94628 293.313074 
L 409.36972 293.313074 
" clip-path="url(#p81ab1ab701)" style="fill: none; stroke: #262626; stroke-width: 1.5; stroke-linecap: round"/>
   </g>
   <g id="line2d_21">
    <path d="M 369.94628 273.915742 
L 409.36972 273.915742 
" clip-path="url(#p81ab1ab701)" style="fill: none; stroke: #262626; stroke-width: 1.5; stroke-linecap: round"/>
   </g>
   <g id="line2d_22"/>
   <g id="line2d_23">
    <path d="M 68.63856 289.118371 
L 147.48544 289.118371 
" clip-path="url(#p81ab1ab701)" style="fill: none; stroke: #262626; stroke-width: 1.5; stroke-linecap: round"/>
   </g>
   <g id="line2d_24">
    <path d="M 149.09456 283.419463 
L 227.94144 283.419463 
" clip-path="url(#p81ab1ab701)" style="fill: none; stroke: #262626; stroke-width: 1.5; stroke-linecap: round"/>
   </g>
   <g id="line2d_25">
    <path d="M 269.77856 282.037569 
L 348.62544 282.037569 
" clip-path="url(#p81ab1ab701)" style="fill: none; stroke: #262626; stroke-width: 1.5; stroke-linecap: round"/>
   </g>
   <g id="line2d_26">
    <path d="M 350.23456 286.003601 
L 429.08144 286.003601 
" clip-path="url(#p81ab1ab701)" style="fill: none; stroke: #262626; stroke-width: 1.5; stroke-linecap: round"/>
   </g>
   <g id="patch_9">
    <path d="M 47.72 303.64 
L 47.72 246.185164 
" style="fill: none; stroke: #cccccc; stroke-width: 0.8; stroke-linejoin: miter; stroke-linecap: square"/>
   </g>
   <g id="patch_10">
    <path d="M 450 303.64 
L 450 246.185164 
" style="fill: none; stroke: #cccccc; stroke-width: 0.8; stroke-linejoin: miter; stroke-linecap: square"/>
   </g>
   <g id="patch_11">
    <path d="M 47.72 303.64 
L 450 303.64 
" style="fill: none; stroke: #cccccc; stroke-width: 0.8; stroke-linejoin: miter; stroke-linecap: square"/>
   </g>
   <g id="patch_12">
    <path d="M 47.72 246.185164 
L 450 246.185164 
" style="fill: none; stroke: #cccccc; stroke-width: 0.8; stroke-linejoin: miter; stroke-linecap: square"/>
   </g>
   <g id="PathCollection_3">
    <defs>
     <path id="C0_0_58037aefde" d="M 0 1 
C 0.265203 1 0.51958 0.894634 0.707107 0.707107 
C 0.894634 0.51958 1 0.265203 1 -0 
C 1 -0.265203 0.894634 -0.51958 0.707107 -0.707107 
C 0.51958 -0.894634 0.265203 -1 0 -1 
C -0.265203 -1 -0.51958 -0.894634 -0.707107 -0.707107 
C -0.894634 -0.51958 -1 -0.265203 -1 0 
C -1 0.265203 -0.894634 0.51958 -0.707107 0.707107 
C -0.51958 0.894634 -0.265203 1 0 1 
z
"/>
    </defs>
    <g clip-path="url(#p81ab1ab701)">
     <use xlink:href="#C0_0_58037aefde" x="117.210386" y="279.399764" style="fill: #262626"/>
    </g>
    <g clip-path="url(#p81ab1ab701)">
     <use xlink:href="#C0_0_58037aefde" x="112.681169" y="290.44673" style="fill: #262626"/>
    </g>
    <g clip-path="url(#p81ab1ab701)">
     <use xlink:href="#C0_0_58037aefde" x="106.599881" y="290.168273" style="fill: #262626"/>
    </g>
    <g clip-path="url(#p81ab1ab701)">
     <use xlink:href="#C0_0_58037aefde" x="113.010706" y="286.514092" style="fill: #262626"/>
    </g>
    <g clip-path="url(#p81ab1ab701)">
     <use xlink:href="#C0_0_58037aefde" x="98.790099" y="287.23208" style="fill: #262626"/>
    </g>
    <g clip-path="url(#p81ab1ab701)">
     <use xlink:href="#C0_0_58037aefde" x="109.407557" y="286.585553" style="fill: #262626"/>
    </g>
    <g clip-path="url(#p81ab1ab701)">
     <use xlink:href="#C0_0_58037aefde" x="100.51806" y="280.87736" style="fill: #262626"/>
    </g>
    <g clip-path="url(#p81ab1ab701)">
     <use xlink:href="#C0_0_58037aefde" x="114.046764" y="293.103306" style="fill: #262626"/>
    </g>
    <g clip-path="url(#p81ab1ab701)">
     <use xlink:href="#C0_0_58037aefde" x="106.545264" y="291.931766" style="fill: #262626"/>
    </g>
    <g clip-path="url(#p81ab1ab701)">
     <use xlink:href="#C0_0_58037aefde" x="114.16984" y="289.118371" style="fill: #262626"/>
    </g>
    <g clip-path="url(#p81ab1ab701)">
     <use xlink:href="#C0_0_58037aefde" x="117.724251" y="291.593532" style="fill: #262626"/>
    </g>
    <g clip-path="url(#p81ab1ab701)">
     <use xlink:href="#C0_0_58037aefde" x="111.317404" y="284.013468" style="fill: #262626"/>
    </g>
    <g clip-path="url(#p81ab1ab701)">
     <use xlink:href="#C0_0_58037aefde" x="111.623807" y="294.814112" style="fill: #262626"/>
    </g>
    <g clip-path="url(#p81ab1ab701)">
     <use xlink:href="#C0_0_58037aefde" x="107.458914" y="289.682793" style="fill: #262626"/>
    </g>
    <g clip-path="url(#p81ab1ab701)">
     <use xlink:href="#C0_0_58037aefde" x="99.483445" y="294.107342" style="fill: #262626"/>
    </g>
    <g clip-path="url(#p81ab1ab701)">
     <use xlink:href="#C0_0_58037aefde" x="101.538721" y="283.369406" style="fill: #262626"/>
    </g>
    <g clip-path="url(#p81ab1ab701)">
     <use xlink:href="#C0_0_58037aefde" x="107.806284" y="280.774317" style="fill: #262626"/>
    </g>
    <g clip-path="url(#p81ab1ab701)">
     <use xlink:href="#C0_0_58037aefde" x="112.513568" y="280.593772" style="fill: #262626"/>
    </g>
    <g clip-path="url(#p81ab1ab701)">
     <use xlink:href="#C0_0_58037aefde" x="102.537419" y="291.301053" style="fill: #262626"/>
    </g>
    <g clip-path="url(#p81ab1ab701)">
     <use xlink:href="#C0_0_58037aefde" x="103.917936" y="293.377144" style="fill: #262626"/>
    </g>
    <g clip-path="url(#p81ab1ab701)">
     <use xlink:href="#C0_0_58037aefde" x="99.402285" y="290.48711" style="fill: #262626"/>
    </g>
    <g clip-path="url(#p81ab1ab701)">
     <use xlink:href="#C0_0_58037aefde" x="100.1862" y="284.573128" style="fill: #262626"/>
    </g>
    <g clip-path="url(#p81ab1ab701)">
     <use xlink:href="#C0_0_58037aefde" x="114.243227" y="284.512269" style="fill: #262626"/>
    </g>
    <g clip-path="url(#p81ab1ab701)">
     <use xlink:href="#C0_0_58037aefde" x="117.539706" y="292.098362" style="fill: #262626"/>
    </g>
    <g clip-path="url(#p81ab1ab701)">
     <use xlink:href="#C0_0_58037aefde" x="110.810508" y="286.552311" style="fill: #262626"/>
    </g>
   </g>
   <g id="PathCollection_4">
    <defs>
     <path id="C1_0_3269349eb3" d="M 0 1 
C 0.265203 1 0.51958 0.894634 0.707107 0.707107 
C 0.894634 0.51958 1 0.265203 1 -0 
C 1 -0.265203 0.894634 -0.51958 0.707107 -0.707107 
C 0.51958 -0.894634 0.265203 -1 0 -1 
C -0.265203 -1 -0.51958 -0.894634 -0.707107 -0.707107 
C -0.894634 -0.51958 -1 -0.265203 -1 0 
C -1 0.265203 -0.894634 0.51958 -0.707107 0.707107 
C -0.51958 0.894634 -0.265203 1 0 1 
z
"/>
    </defs>
    <g clip-path="url(#p81ab1ab701)">
     <use xlink:href="#C1_0_3269349eb3" x="195.504777" y="277.156145"/>
    </g>
    <g clip-path="url(#p81ab1ab701)">
     <use xlink:href="#C1_0_3269349eb3" x="189.175831" y="272.517547"/>
    </g>
    <g clip-path="url(#p81ab1ab701)">
     <use xlink:href="#C1_0_3269349eb3" x="196.220572" y="286.389231"/>
    </g>
    <g clip-path="url(#p81ab1ab701)">
     <use xlink:href="#C1_0_3269349eb3" x="182.955568" y="280.449695"/>
    </g>
    <g clip-path="url(#p81ab1ab701)">
     <use xlink:href="#C1_0_3269349eb3" x="189.527891" y="288.267877"/>
    </g>
    <g clip-path="url(#p81ab1ab701)">
     <use xlink:href="#C1_0_3269349eb3" x="190.917793" y="273.042247"/>
    </g>
    <g clip-path="url(#p81ab1ab701)">
     <use xlink:href="#C1_0_3269349eb3" x="195.883977" y="294.373124"/>
    </g>
    <g clip-path="url(#p81ab1ab701)">
     <use xlink:href="#C1_0_3269349eb3" x="186.681597" y="286.403159"/>
    </g>
   </g>
   <g id="PathCollection_5">
    <defs>
     <path id="C2_0_94aa6abe2d" d="M 0 1 
C 0.265203 1 0.51958 0.894634 0.707107 0.707107 
C 0.894634 0.51958 1 0.265203 1 -0 
C 1 -0.265203 0.894634 -0.51958 0.707107 -0.707107 
C 0.51958 -0.894634 0.265203 -1 0 -1 
C -0.265203 -1 -0.51958 -0.894634 -0.707107 -0.707107 
C -0.894634 -0.51958 -1 -0.265203 -1 0 
C -1 0.265203 -0.894634 0.51958 -0.707107 0.707107 
C -0.51958 0.894634 -0.265203 1 0 1 
z
"/>
    </defs>
    <g clip-path="url(#p81ab1ab701)">
     <use xlink:href="#C2_0_94aa6abe2d" x="302.543407" y="278.277913" style="fill: #262626"/>
    </g>
    <g clip-path="url(#p81ab1ab701)">
     <use xlink:href="#C2_0_94aa6abe2d" x="300.642249" y="251.408331" style="fill: #262626"/>
    </g>
    <g clip-path="url(#p81ab1ab701)">
     <use xlink:href="#C2_0_94aa6abe2d" x="304.90451" y="280.721935" style="fill: #262626"/>
    </g>
    <g clip-path="url(#p81ab1ab701)">
     <use xlink:href="#C2_0_94aa6abe2d" x="299.227346" y="277.245373" style="fill: #262626"/>
    </g>
    <g clip-path="url(#p81ab1ab701)">
     <use xlink:href="#C2_0_94aa6abe2d" x="305.800534" y="277.351399" style="fill: #262626"/>
    </g>
    <g clip-path="url(#p81ab1ab701)">
     <use xlink:href="#C2_0_94aa6abe2d" x="305.535125" y="282.00101" style="fill: #262626"/>
    </g>
    <g clip-path="url(#p81ab1ab701)">
     <use xlink:href="#C2_0_94aa6abe2d" x="317.440164" y="271.68449" style="fill: #262626"/>
    </g>
    <g clip-path="url(#p81ab1ab701)">
     <use xlink:href="#C2_0_94aa6abe2d" x="311.023921" y="282.717319" style="fill: #262626"/>
    </g>
    <g clip-path="url(#p81ab1ab701)">
     <use xlink:href="#C2_0_94aa6abe2d" x="313.302354" y="286.240316" style="fill: #262626"/>
    </g>
    <g clip-path="url(#p81ab1ab701)">
     <use xlink:href="#C2_0_94aa6abe2d" x="311.630402" y="284.932418" style="fill: #262626"/>
    </g>
    <g clip-path="url(#p81ab1ab701)">
     <use xlink:href="#C2_0_94aa6abe2d" x="312.949625" y="282.074129" style="fill: #262626"/>
    </g>
    <g clip-path="url(#p81ab1ab701)">
     <use xlink:href="#C2_0_94aa6abe2d" x="303.892611" y="281.642312" style="fill: #262626"/>
    </g>
    <g clip-path="url(#p81ab1ab701)">
     <use xlink:href="#C2_0_94aa6abe2d" x="311.695571" y="282.446982" style="fill: #262626"/>
    </g>
    <g clip-path="url(#p81ab1ab701)">
     <use xlink:href="#C2_0_94aa6abe2d" x="310.670483" y="281.615557" style="fill: #262626"/>
    </g>
    <g clip-path="url(#p81ab1ab701)">
     <use xlink:href="#C2_0_94aa6abe2d" x="304.389141" y="282.147841" style="fill: #262626"/>
    </g>
    <g clip-path="url(#p81ab1ab701)">
     <use xlink:href="#C2_0_94aa6abe2d" x="317.622082" y="288.910997" style="fill: #262626"/>
    </g>
    <g clip-path="url(#p81ab1ab701)">
     <use xlink:href="#C2_0_94aa6abe2d" x="315.700265" y="293.011687" style="fill: #262626"/>
    </g>
    <g clip-path="url(#p81ab1ab701)">
     <use xlink:href="#C2_0_94aa6abe2d" x="316.072668" y="282.093575" style="fill: #262626"/>
    </g>
    <g clip-path="url(#p81ab1ab701)">
     <use xlink:href="#C2_0_94aa6abe2d" x="309.273398" y="281.712058" style="fill: #262626"/>
    </g>
    <g clip-path="url(#p81ab1ab701)">
     <use xlink:href="#C2_0_94aa6abe2d" x="316.928034" y="280.162968" style="fill: #262626"/>
    </g>
    <g clip-path="url(#p81ab1ab701)">
     <use xlink:href="#C2_0_94aa6abe2d" x="316.609297" y="281.098456" style="fill: #262626"/>
    </g>
    <g clip-path="url(#p81ab1ab701)">
     <use xlink:href="#C2_0_94aa6abe2d" x="308.640898" y="288.833049" style="fill: #262626"/>
    </g>
    <g clip-path="url(#p81ab1ab701)">
     <use xlink:href="#C2_0_94aa6abe2d" x="312.630307" y="281.879712" style="fill: #262626"/>
    </g>
    <g clip-path="url(#p81ab1ab701)">
     <use xlink:href="#C2_0_94aa6abe2d" x="299.919985" y="285.372585" style="fill: #262626"/>
    </g>
    <g clip-path="url(#p81ab1ab701)">
     <use xlink:href="#C2_0_94aa6abe2d" x="317.943691" y="286.789553" style="fill: #262626"/>
    </g>
    <g clip-path="url(#p81ab1ab701)">
     <use xlink:href="#C2_0_94aa6abe2d" x="317.325135" y="286.561351" style="fill: #262626"/>
    </g>
    <g clip-path="url(#p81ab1ab701)">
     <use xlink:href="#C2_0_94aa6abe2d" x="316.92798" y="282.674275" style="fill: #262626"/>
    </g>
    <g clip-path="url(#p81ab1ab701)">
     <use xlink:href="#C2_0_94aa6abe2d" x="314.33056" y="276.160536" style="fill: #262626"/>
    </g>
    <g clip-path="url(#p81ab1ab701)">
     <use xlink:href="#C2_0_94aa6abe2d" x="312.357011" y="282.990232" style="fill: #262626"/>
    </g>
    <g clip-path="url(#p81ab1ab701)">
     <use xlink:href="#C2_0_94aa6abe2d" x="309.340236" y="285.326423" style="fill: #262626"/>
    </g>
    <g clip-path="url(#p81ab1ab701)">
     <use xlink:href="#C2_0_94aa6abe2d" x="307.600406" y="284.980127" style="fill: #262626"/>
    </g>
    <g clip-path="url(#p81ab1ab701)">
     <use xlink:href="#C2_0_94aa6abe2d" x="317.206458" y="274.60265" style="fill: #262626"/>
    </g>
    <g clip-path="url(#p81ab1ab701)">
     <use xlink:href="#C2_0_94aa6abe2d" x="310.652617" y="269.352378" style="fill: #262626"/>
    </g>
    <g clip-path="url(#p81ab1ab701)">
     <use xlink:href="#C2_0_94aa6abe2d" x="307.644841" y="274.938441" style="fill: #262626"/>
    </g>
   </g>
   <g id="PathCollection_6">
    <defs>
     <path id="C3_0_4de9efde32" d="M 0 1 
C 0.265203 1 0.51958 0.894634 0.707107 0.707107 
C 0.894634 0.51958 1 0.265203 1 -0 
C 1 -0.265203 0.894634 -0.51958 0.707107 -0.707107 
C 0.51958 -0.894634 0.265203 -1 0 -1 
C -0.265203 -1 -0.51958 -0.894634 -0.707107 -0.707107 
C -0.894634 -0.51958 -1 -0.265203 -1 0 
C -1 0.265203 -0.894634 0.51958 -0.707107 0.707107 
C -0.51958 0.894634 -0.265203 1 0 1 
z
"/>
    </defs>
    <g clip-path="url(#p81ab1ab701)">
     <use xlink:href="#C3_0_4de9efde32" x="389.963409" y="278.069994"/>
    </g>
    <g clip-path="url(#p81ab1ab701)">
     <use xlink:href="#C3_0_4de9efde32" x="385.720078" y="290.789821"/>
    </g>
    <g clip-path="url(#p81ab1ab701)">
     <use xlink:href="#C3_0_4de9efde32" x="396.874372" y="281.910188"/>
    </g>
    <g clip-path="url(#p81ab1ab701)">
     <use xlink:href="#C3_0_4de9efde32" x="387.614426" y="293.313074"/>
    </g>
    <g clip-path="url(#p81ab1ab701)">
     <use xlink:href="#C3_0_4de9efde32" x="381.076022" y="290.774538"/>
    </g>
    <g clip-path="url(#p81ab1ab701)">
     <use xlink:href="#C3_0_4de9efde32" x="382.282689" y="289.362745"/>
    </g>
    <g clip-path="url(#p81ab1ab701)">
     <use xlink:href="#C3_0_4de9efde32" x="388.39868" y="273.915742"/>
    </g>
    <g clip-path="url(#p81ab1ab701)">
     <use xlink:href="#C3_0_4de9efde32" x="386.777677" y="282.70525"/>
    </g>
    <g clip-path="url(#p81ab1ab701)">
     <use xlink:href="#C3_0_4de9efde32" x="394.702128" y="284.068645"/>
    </g>
    <g clip-path="url(#p81ab1ab701)">
     <use xlink:href="#C3_0_4de9efde32" x="390.227089" y="281.711262"/>
    </g>
    <g clip-path="url(#p81ab1ab701)">
     <use xlink:href="#C3_0_4de9efde32" x="392.567647" y="289.534805"/>
    </g>
    <g clip-path="url(#p81ab1ab701)">
     <use xlink:href="#C3_0_4de9efde32" x="389.425513" y="286.610543"/>
    </g>
    <g clip-path="url(#p81ab1ab701)">
     <use xlink:href="#C3_0_4de9efde32" x="379.811603" y="288.297861"/>
    </g>
    <g clip-path="url(#p81ab1ab701)">
     <use xlink:href="#C3_0_4de9efde32" x="380.397317" y="285.396659"/>
    </g>
   </g>
   <g id="text_7">
    <!-- 25 -->
    <g style="fill: #262626" transform="translate(118.119 199.520967)scale(0.1 -0.1)">
     <defs>
      <path id="DejaVuSans-32" d="M 1228 531 
L 3431 531 
L 3431 0 
L 469 0 
L 469 531 
Q 828 903 1448 1529 
Q 2069 2156 2228 2338 
Q 2531 2678 2651 2914 
Q 2772 3150 2772 3378 
Q 2772 3750 2511 3984 
Q 2250 4219 1831 4219 
Q 1534 4219 1204 4116 
Q 875 4013 500 3803 
L 500 4441 
Q 881 4594 1212 4672 
Q 1544 4750 1819 4750 
Q 2544 4750 2975 4387 
Q 3406 4025 3406 3419 
Q 3406 3131 3298 2873 
Q 3191 2616 2906 2266 
Q 2828 2175 2409 1742 
Q 1991 1309 1228 531 
z
" transform="scale(0.015625)"/>
     </defs>
     <use xlink:href="#DejaVuSans-32"/>
     <use xlink:href="#DejaVuSans-35" x="63.623047"/>
    </g>
   </g>
   <g id="text_8">
    <!-- p=0.018533321478228747 -->
    <g style="fill: #262626" transform="translate(62.6015 276.244642)scale(0.08 -0.08)">
     <defs>
      <path id="DejaVuSans-3d" d="M 678 2906 
L 4684 2906 
L 4684 2381 
L 678 2381 
L 678 2906 
z
M 678 1631 
L 4684 1631 
L 4684 1100 
L 678 1100 
L 678 1631 
z
" transform="scale(0.015625)"/>
      <path id="DejaVuSans-31" d="M 794 531 
L 1825 531 
L 1825 4091 
L 703 3866 
L 703 4441 
L 1819 4666 
L 2450 4666 
L 2450 531 
L 3481 531 
L 3481 0 
L 794 0 
L 794 531 
z
" transform="scale(0.015625)"/>
      <path id="DejaVuSans-38" d="M 2034 2216 
Q 1584 2216 1326 1975 
Q 1069 1734 1069 1313 
Q 1069 891 1326 650 
Q 1584 409 2034 409 
Q 2484 409 2743 651 
Q 3003 894 3003 1313 
Q 3003 1734 2745 1975 
Q 2488 2216 2034 2216 
z
M 1403 2484 
Q 997 2584 770 2862 
Q 544 3141 544 3541 
Q 544 4100 942 4425 
Q 1341 4750 2034 4750 
Q 2731 4750 3128 4425 
Q 3525 4100 3525 3541 
Q 3525 3141 3298 2862 
Q 3072 2584 2669 2484 
Q 3125 2378 3379 2068 
Q 3634 1759 3634 1313 
Q 3634 634 3220 271 
Q 2806 -91 2034 -91 
Q 1263 -91 848 271 
Q 434 634 434 1313 
Q 434 1759 690 2068 
Q 947 2378 1403 2484 
z
M 1172 3481 
Q 1172 3119 1398 2916 
Q 1625 2713 2034 2713 
Q 2441 2713 2670 2916 
Q 2900 3119 2900 3481 
Q 2900 3844 2670 4047 
Q 2441 4250 2034 4250 
Q 1625 4250 1398 4047 
Q 1172 3844 1172 3481 
z
" transform="scale(0.015625)"/>
      <path id="DejaVuSans-33" d="M 2597 2516 
Q 3050 2419 3304 2112 
Q 3559 1806 3559 1356 
Q 3559 666 3084 287 
Q 2609 -91 1734 -91 
Q 1441 -91 1130 -33 
Q 819 25 488 141 
L 488 750 
Q 750 597 1062 519 
Q 1375 441 1716 441 
Q 2309 441 2620 675 
Q 2931 909 2931 1356 
Q 2931 1769 2642 2001 
Q 2353 2234 1838 2234 
L 1294 2234 
L 1294 2753 
L 1863 2753 
Q 2328 2753 2575 2939 
Q 2822 3125 2822 3475 
Q 2822 3834 2567 4026 
Q 2313 4219 1838 4219 
Q 1578 4219 1281 4162 
Q 984 4106 628 3988 
L 628 4550 
Q 988 4650 1302 4700 
Q 1616 4750 1894 4750 
Q 2613 4750 3031 4423 
Q 3450 4097 3450 3541 
Q 3450 3153 3228 2886 
Q 3006 2619 2597 2516 
z
" transform="scale(0.015625)"/>
      <path id="DejaVuSans-34" d="M 2419 4116 
L 825 1625 
L 2419 1625 
L 2419 4116 
z
M 2253 4666 
L 3047 4666 
L 3047 1625 
L 3713 1625 
L 3713 1100 
L 3047 1100 
L 3047 0 
L 2419 0 
L 2419 1100 
L 313 1100 
L 313 1709 
L 2253 4666 
z
" transform="scale(0.015625)"/>
      <path id="DejaVuSans-37" d="M 525 4666 
L 3525 4666 
L 3525 4397 
L 1831 0 
L 1172 0 
L 2766 4134 
L 525 4134 
L 525 4666 
z
" transform="scale(0.015625)"/>
     </defs>
     <use xlink:href="#DejaVuSans-70"/>
     <use xlink:href="#DejaVuSans-3d" x="63.476562"/>
     <use xlink:href="#DejaVuSans-30" x="147.265625"/>
     <use xlink:href="#DejaVuSans-2e" x="210.888672"/>
     <use xlink:href="#DejaVuSans-30" x="242.675781"/>
     <use xlink:href="#DejaVuSans-31" x="306.298828"/>
     <use xlink:href="#DejaVuSans-38" x="369.921875"/>
     <use xlink:href="#DejaVuSans-35" x="433.544922"/>
     <use xlink:href="#DejaVuSans-33" x="497.167969"/>
     <use xlink:href="#DejaVuSans-33" x="560.791016"/>
     <use xlink:href="#DejaVuSans-33" x="624.414062"/>
     <use xlink:href="#DejaVuSans-32" x="688.037109"/>
     <use xlink:href="#DejaVuSans-31" x="751.660156"/>
     <use xlink:href="#DejaVuSans-34" x="815.283203"/>
     <use xlink:href="#DejaVuSans-37" x="878.90625"/>
     <use xlink:href="#DejaVuSans-38" x="942.529297"/>
     <use xlink:href="#DejaVuSans-32" x="1006.152344"/>
     <use xlink:href="#DejaVuSans-32" x="1069.775391"/>
     <use xlink:href="#DejaVuSans-38" x="1133.398438"/>
     <use xlink:href="#DejaVuSans-37" x="1197.021484"/>
     <use xlink:href="#DejaVuSans-34" x="1260.644531"/>
     <use xlink:href="#DejaVuSans-37" x="1324.267578"/>
    </g>
   </g>
   <g id="text_9">
    <!-- 8 -->
    <g style="fill: #262626" transform="translate(178.461 199.520967)scale(0.1 -0.1)">
     <use xlink:href="#DejaVuSans-38"/>
    </g>
   </g>
   <g id="text_10">
    <!-- 34 -->
    <g style="fill: #262626" transform="translate(319.259 199.520967)scale(0.1 -0.1)">
     <use xlink:href="#DejaVuSans-33"/>
     <use xlink:href="#DejaVuSans-34" x="63.623047"/>
    </g>
   </g>
   <g id="text_11">
    <!-- p=0.03664578806435073 -->
    <g style="fill: #262626" transform="translate(266.2865 248.253209)scale(0.08 -0.08)">
     <defs>
      <path id="DejaVuSans-36" d="M 2113 2584 
Q 1688 2584 1439 2293 
Q 1191 2003 1191 1497 
Q 1191 994 1439 701 
Q 1688 409 2113 409 
Q 2538 409 2786 701 
Q 3034 994 3034 1497 
Q 3034 2003 2786 2293 
Q 2538 2584 2113 2584 
z
M 3366 4563 
L 3366 3988 
Q 3128 4100 2886 4159 
Q 2644 4219 2406 4219 
Q 1781 4219 1451 3797 
Q 1122 3375 1075 2522 
Q 1259 2794 1537 2939 
Q 1816 3084 2150 3084 
Q 2853 3084 3261 2657 
Q 3669 2231 3669 1497 
Q 3669 778 3244 343 
Q 2819 -91 2113 -91 
Q 1303 -91 875 529 
Q 447 1150 447 2328 
Q 447 3434 972 4092 
Q 1497 4750 2381 4750 
Q 2619 4750 2861 4703 
Q 3103 4656 3366 4563 
z
" transform="scale(0.015625)"/>
     </defs>
     <use xlink:href="#DejaVuSans-70"/>
     <use xlink:href="#DejaVuSans-3d" x="63.476562"/>
     <use xlink:href="#DejaVuSans-30" x="147.265625"/>
     <use xlink:href="#DejaVuSans-2e" x="210.888672"/>
     <use xlink:href="#DejaVuSans-30" x="242.675781"/>
     <use xlink:href="#DejaVuSans-33" x="306.298828"/>
     <use xlink:href="#DejaVuSans-36" x="369.921875"/>
     <use xlink:href="#DejaVuSans-36" x="433.544922"/>
     <use xlink:href="#DejaVuSans-34" x="497.167969"/>
     <use xlink:href="#DejaVuSans-35" x="560.791016"/>
     <use xlink:href="#DejaVuSans-37" x="624.414062"/>
     <use xlink:href="#DejaVuSans-38" x="688.037109"/>
     <use xlink:href="#DejaVuSans-38" x="751.660156"/>
     <use xlink:href="#DejaVuSans-30" x="815.283203"/>
     <use xlink:href="#DejaVuSans-36" x="878.90625"/>
     <use xlink:href="#DejaVuSans-34" x="942.529297"/>
     <use xlink:href="#DejaVuSans-33" x="1006.152344"/>
     <use xlink:href="#DejaVuSans-35" x="1069.775391"/>
     <use xlink:href="#DejaVuSans-30" x="1133.398438"/>
     <use xlink:href="#DejaVuSans-37" x="1197.021484"/>
     <use xlink:href="#DejaVuSans-33" x="1260.644531"/>
    </g>
   </g>
   <g id="text_12">
    <!-- 14 -->
    <g style="fill: #262626" transform="translate(379.601 199.520967)scale(0.1 -0.1)">
     <use xlink:href="#DejaVuSans-31"/>
     <use xlink:href="#DejaVuSans-34" x="63.623047"/>
    </g>
   </g>
   <g id="legend_1">
    <g id="patch_13">
     <path d="M 217.224062 277.882187 
L 237.224062 277.882187 
L 237.224062 270.882187 
L 217.224062 270.882187 
z
" style="fill: #ecf2ec; stroke: #262626; stroke-width: 0.75; stroke-linejoin: miter"/>
    </g>
    <g id="text_13">
     <!-- Mutant -->
     <g style="fill: #262626" transform="translate(245.224062 277.882187)scale(0.1 -0.1)">
      <defs>
       <path id="DejaVuSans-75" d="M 544 1381 
L 544 3500 
L 1119 3500 
L 1119 1403 
Q 1119 906 1312 657 
Q 1506 409 1894 409 
Q 2359 409 2629 706 
Q 2900 1003 2900 1516 
L 2900 3500 
L 3475 3500 
L 3475 0 
L 2900 0 
L 2900 538 
Q 2691 219 2414 64 
Q 2138 -91 1772 -91 
Q 1169 -91 856 284 
Q 544 659 544 1381 
z
M 1991 3584 
L 1991 3584 
z
" transform="scale(0.015625)"/>
       <path id="DejaVuSans-61" d="M 2194 1759 
Q 1497 1759 1228 1600 
Q 959 1441 959 1056 
Q 959 750 1161 570 
Q 1363 391 1709 391 
Q 2188 391 2477 730 
Q 2766 1069 2766 1631 
L 2766 1759 
L 2194 1759 
z
M 3341 1997 
L 3341 0 
L 2766 0 
L 2766 531 
Q 2569 213 2275 61 
Q 1981 -91 1556 -91 
Q 1019 -91 701 211 
Q 384 513 384 1019 
Q 384 1609 779 1909 
Q 1175 2209 1959 2209 
L 2766 2209 
L 2766 2266 
Q 2766 2663 2505 2880 
Q 2244 3097 1772 3097 
Q 1472 3097 1187 3025 
Q 903 2953 641 2809 
L 641 3341 
Q 956 3463 1253 3523 
Q 1550 3584 1831 3584 
Q 2591 3584 2966 3190 
Q 3341 2797 3341 1997 
z
" transform="scale(0.015625)"/>
      </defs>
      <use xlink:href="#DejaVuSans-4d"/>
      <use xlink:href="#DejaVuSans-75" x="86.279297"/>
      <use xlink:href="#DejaVuSans-74" x="149.658203"/>
      <use xlink:href="#DejaVuSans-61" x="188.867188"/>
      <use xlink:href="#DejaVuSans-6e" x="250.146484"/>
      <use xlink:href="#DejaVuSans-74" x="313.525391"/>
     </g>
    </g>
    <g id="patch_14">
     <path d="M 217.224062 292.560312 
L 237.224062 292.560312 
L 237.224062 285.560312 
L 217.224062 285.560312 
z
" style="fill: #107010; stroke: #262626; stroke-width: 0.75; stroke-linejoin: miter"/>
    </g>
    <g id="text_14">
     <!-- WT -->
     <g style="fill: #262626" transform="translate(245.224062 292.560312)scale(0.1 -0.1)">
      <use xlink:href="#DejaVuSans-57"/>
      <use xlink:href="#DejaVuSans-54" x="98.876953"/>
     </g>
    </g>
   </g>
  </g>
 </g>
 <defs>
  <clipPath id="p81ab1ab701">
   <rect x="47.72" y="246.185164" width="402.28" height="57.454836"/>
  </clipPath>
 </defs>
</svg>
