<?xml version="1.0" encoding="utf-8" standalone="no"?>
<!DOCTYPE svg PUBLIC "-//W3C//DTD SVG 1.1//EN"
  "http://www.w3.org/Graphics/SVG/1.1/DTD/svg11.dtd">
<svg xmlns:xlink="http://www.w3.org/1999/xlink" width="460.8pt" height="345.6pt" viewBox="0 0 460.8 345.6" xmlns="http://www.w3.org/2000/svg" version="1.1">
 <metadata>
  <rdf:RDF xmlns:dc="http://purl.org/dc/elements/1.1/" xmlns:cc="http://creativecommons.org/ns#" xmlns:rdf="http://www.w3.org/1999/02/22-rdf-syntax-ns#">
   <cc:Work>
    <dc:type rdf:resource="http://purl.org/dc/dcmitype/StillImage"/>
    <dc:date>2024-02-11T11:24:57.638439</dc:date>
    <dc:format>image/svg+xml</dc:format>
    <dc:creator>
     <cc:Agent>
      <dc:title>Matplotlib v3.5.3, https://matplotlib.org/</dc:title>
     </cc:Agent>
    </dc:creator>
   </cc:Work>
  </rdf:RDF>
 </metadata>
 <defs>
  <style type="text/css">*{stroke-linejoin: round; stroke-linecap: butt}</style>
 </defs>
 <g id="figure_1">
  <g id="patch_1">
   <path d="M 0 345.6 
L 460.8 345.6 
L 460.8 0 
L 0 0 
z
" style="fill: #ffffff"/>
  </g>
  <g id="axes_1">
   <g id="patch_2">
    <path d="M 63.57125 303.64 
L 450 303.64 
L 450 10.8 
L 63.57125 10.8 
z
" style="fill: #ffffff"/>
   </g>
   <g id="matplotlib.axis_1">
    <g id="xtick_1">
     <g id="text_1">
      <!-- AI -->
      <g style="fill: #262626" transform="translate(155.283125 318.238437)scale(0.1 -0.1)">
       <defs>
        <path id="DejaVuSans-41" d="M 2188 4044 
L 1331 1722 
L 3047 1722 
L 2188 4044 
z
M 1831 4666 
L 2547 4666 
L 4325 0 
L 3669 0 
L 3244 1197 
L 1141 1197 
L 716 0 
L 50 0 
L 1831 4666 
z
" transform="scale(0.015625)"/>
        <path id="DejaVuSans-49" d="M 628 4666 
L 1259 4666 
L 1259 0 
L 628 0 
L 628 4666 
z
" transform="scale(0.015625)"/>
       </defs>
       <use xlink:href="#DejaVuSans-41"/>
       <use xlink:href="#DejaVuSans-49" x="68.408203"/>
      </g>
     </g>
    </g>
    <g id="xtick_2">
     <g id="text_2">
      <!-- LA -->
      <g style="fill: #262626" transform="translate(347.074062 318.238437)scale(0.1 -0.1)">
       <defs>
        <path id="DejaVuSans-4c" d="M 628 4666 
L 1259 4666 
L 1259 531 
L 3531 531 
L 3531 0 
L 628 0 
L 628 4666 
z
" transform="scale(0.015625)"/>
       </defs>
       <use xlink:href="#DejaVuSans-4c"/>
       <use xlink:href="#DejaVuSans-41" x="57.962891"/>
      </g>
     </g>
    </g>
    <g id="text_3">
     <!-- WT_MUT -->
     <g style="fill: #262626" transform="translate(235.260625 331.638437)scale(0.1 -0.1)">
      <defs>
       <path id="DejaVuSans-57" d="M 213 4666 
L 850 4666 
L 1831 722 
L 2809 4666 
L 3519 4666 
L 4500 722 
L 5478 4666 
L 6119 4666 
L 4947 0 
L 4153 0 
L 3169 4050 
L 2175 0 
L 1381 0 
L 213 4666 
z
" transform="scale(0.015625)"/>
       <path id="DejaVuSans-54" d="M -19 4666 
L 3928 4666 
L 3928 4134 
L 2272 4134 
L 2272 0 
L 1638 0 
L 1638 4134 
L -19 4134 
L -19 4666 
z
" transform="scale(0.015625)"/>
       <path id="DejaVuSans-5f" d="M 3263 -1063 
L 3263 -1509 
L -63 -1509 
L -63 -1063 
L 3263 -1063 
z
" transform="scale(0.015625)"/>
       <path id="DejaVuSans-4d" d="M 628 4666 
L 1569 4666 
L 2759 1491 
L 3956 4666 
L 4897 4666 
L 4897 0 
L 4281 0 
L 4281 4097 
L 3078 897 
L 2444 897 
L 1241 4097 
L 1241 0 
L 628 0 
L 628 4666 
z
" transform="scale(0.015625)"/>
       <path id="DejaVuSans-55" d="M 556 4666 
L 1191 4666 
L 1191 1831 
Q 1191 1081 1462 751 
Q 1734 422 2344 422 
Q 2950 422 3222 751 
Q 3494 1081 3494 1831 
L 3494 4666 
L 4128 4666 
L 4128 1753 
Q 4128 841 3676 375 
Q 3225 -91 2344 -91 
Q 1459 -91 1007 375 
Q 556 841 556 1753 
L 556 4666 
z
" transform="scale(0.015625)"/>
      </defs>
      <use xlink:href="#DejaVuSans-57"/>
      <use xlink:href="#DejaVuSans-54" x="98.876953"/>
      <use xlink:href="#DejaVuSans-5f" x="159.960938"/>
      <use xlink:href="#DejaVuSans-4d" x="209.960938"/>
      <use xlink:href="#DejaVuSans-55" x="296.240234"/>
      <use xlink:href="#DejaVuSans-54" x="369.433594"/>
     </g>
    </g>
   </g>
   <g id="matplotlib.axis_2">
    <g id="ytick_1">
     <g id="line2d_1">
      <path d="M 63.57125 303.64 
L 450 303.64 
" clip-path="url(#pce8e0e8254)" style="fill: none; stroke: #cccccc; stroke-width: 0.8; stroke-linecap: round"/>
     </g>
     <g id="text_4">
      <!-- 0 -->
      <g style="fill: #262626" transform="translate(50.20875 307.439219)scale(0.1 -0.1)">
       <defs>
        <path id="DejaVuSans-30" d="M 2034 4250 
Q 1547 4250 1301 3770 
Q 1056 3291 1056 2328 
Q 1056 1369 1301 889 
Q 1547 409 2034 409 
Q 2525 409 2770 889 
Q 3016 1369 3016 2328 
Q 3016 3291 2770 3770 
Q 2525 4250 2034 4250 
z
M 2034 4750 
Q 2819 4750 3233 4129 
Q 3647 3509 3647 2328 
Q 3647 1150 3233 529 
Q 2819 -91 2034 -91 
Q 1250 -91 836 529 
Q 422 1150 422 2328 
Q 422 3509 836 4129 
Q 1250 4750 2034 4750 
z
" transform="scale(0.015625)"/>
       </defs>
       <use xlink:href="#DejaVuSans-30"/>
      </g>
     </g>
    </g>
    <g id="ytick_2">
     <g id="line2d_2">
      <path d="M 63.57125 269.417693 
L 450 269.417693 
" clip-path="url(#pce8e0e8254)" style="fill: none; stroke: #cccccc; stroke-width: 0.8; stroke-linecap: round"/>
     </g>
     <g id="text_5">
      <!-- 2500 -->
      <g style="fill: #262626" transform="translate(31.12125 273.216912)scale(0.1 -0.1)">
       <defs>
        <path id="DejaVuSans-32" d="M 1228 531 
L 3431 531 
L 3431 0 
L 469 0 
L 469 531 
Q 828 903 1448 1529 
Q 2069 2156 2228 2338 
Q 2531 2678 2651 2914 
Q 2772 3150 2772 3378 
Q 2772 3750 2511 3984 
Q 2250 4219 1831 4219 
Q 1534 4219 1204 4116 
Q 875 4013 500 3803 
L 500 4441 
Q 881 4594 1212 4672 
Q 1544 4750 1819 4750 
Q 2544 4750 2975 4387 
Q 3406 4025 3406 3419 
Q 3406 3131 3298 2873 
Q 3191 2616 2906 2266 
Q 2828 2175 2409 1742 
Q 1991 1309 1228 531 
z
" transform="scale(0.015625)"/>
        <path id="DejaVuSans-35" d="M 691 4666 
L 3169 4666 
L 3169 4134 
L 1269 4134 
L 1269 2991 
Q 1406 3038 1543 3061 
Q 1681 3084 1819 3084 
Q 2600 3084 3056 2656 
Q 3513 2228 3513 1497 
Q 3513 744 3044 326 
Q 2575 -91 1722 -91 
Q 1428 -91 1123 -41 
Q 819 9 494 109 
L 494 744 
Q 775 591 1075 516 
Q 1375 441 1709 441 
Q 2250 441 2565 725 
Q 2881 1009 2881 1497 
Q 2881 1984 2565 2268 
Q 2250 2553 1709 2553 
Q 1456 2553 1204 2497 
Q 953 2441 691 2322 
L 691 4666 
z
" transform="scale(0.015625)"/>
       </defs>
       <use xlink:href="#DejaVuSans-32"/>
       <use xlink:href="#DejaVuSans-35" x="63.623047"/>
       <use xlink:href="#DejaVuSans-30" x="127.246094"/>
       <use xlink:href="#DejaVuSans-30" x="190.869141"/>
      </g>
     </g>
    </g>
    <g id="ytick_3">
     <g id="line2d_3">
      <path d="M 63.57125 235.195386 
L 450 235.195386 
" clip-path="url(#pce8e0e8254)" style="fill: none; stroke: #cccccc; stroke-width: 0.8; stroke-linecap: round"/>
     </g>
     <g id="text_6">
      <!-- 5000 -->
      <g style="fill: #262626" transform="translate(31.12125 238.994604)scale(0.1 -0.1)">
       <use xlink:href="#DejaVuSans-35"/>
       <use xlink:href="#DejaVuSans-30" x="63.623047"/>
       <use xlink:href="#DejaVuSans-30" x="127.246094"/>
       <use xlink:href="#DejaVuSans-30" x="190.869141"/>
      </g>
     </g>
    </g>
    <g id="ytick_4">
     <g id="line2d_4">
      <path d="M 63.57125 200.973078 
L 450 200.973078 
" clip-path="url(#pce8e0e8254)" style="fill: none; stroke: #cccccc; stroke-width: 0.8; stroke-linecap: round"/>
     </g>
     <g id="text_7">
      <!-- 7500 -->
      <g style="fill: #262626" transform="translate(31.12125 204.772297)scale(0.1 -0.1)">
       <defs>
        <path id="DejaVuSans-37" d="M 525 4666 
L 3525 4666 
L 3525 4397 
L 1831 0 
L 1172 0 
L 2766 4134 
L 525 4134 
L 525 4666 
z
" transform="scale(0.015625)"/>
       </defs>
       <use xlink:href="#DejaVuSans-37"/>
       <use xlink:href="#DejaVuSans-35" x="63.623047"/>
       <use xlink:href="#DejaVuSans-30" x="127.246094"/>
       <use xlink:href="#DejaVuSans-30" x="190.869141"/>
      </g>
     </g>
    </g>
    <g id="ytick_5">
     <g id="line2d_5">
      <path d="M 63.57125 166.750771 
L 450 166.750771 
" clip-path="url(#pce8e0e8254)" style="fill: none; stroke: #cccccc; stroke-width: 0.8; stroke-linecap: round"/>
     </g>
     <g id="text_8">
      <!-- 10000 -->
      <g style="fill: #262626" transform="translate(24.75875 170.54999)scale(0.1 -0.1)">
       <defs>
        <path id="DejaVuSans-31" d="M 794 531 
L 1825 531 
L 1825 4091 
L 703 3866 
L 703 4441 
L 1819 4666 
L 2450 4666 
L 2450 531 
L 3481 531 
L 3481 0 
L 794 0 
L 794 531 
z
" transform="scale(0.015625)"/>
       </defs>
       <use xlink:href="#DejaVuSans-31"/>
       <use xlink:href="#DejaVuSans-30" x="63.623047"/>
       <use xlink:href="#DejaVuSans-30" x="127.246094"/>
       <use xlink:href="#DejaVuSans-30" x="190.869141"/>
       <use xlink:href="#DejaVuSans-30" x="254.492188"/>
      </g>
     </g>
    </g>
    <g id="ytick_6">
     <g id="line2d_6">
      <path d="M 63.57125 132.528464 
L 450 132.528464 
" clip-path="url(#pce8e0e8254)" style="fill: none; stroke: #cccccc; stroke-width: 0.8; stroke-linecap: round"/>
     </g>
     <g id="text_9">
      <!-- 12500 -->
      <g style="fill: #262626" transform="translate(24.75875 136.327683)scale(0.1 -0.1)">
       <use xlink:href="#DejaVuSans-31"/>
       <use xlink:href="#DejaVuSans-32" x="63.623047"/>
       <use xlink:href="#DejaVuSans-35" x="127.246094"/>
       <use xlink:href="#DejaVuSans-30" x="190.869141"/>
       <use xlink:href="#DejaVuSans-30" x="254.492188"/>
      </g>
     </g>
    </g>
    <g id="ytick_7">
     <g id="line2d_7">
      <path d="M 63.57125 98.306157 
L 450 98.306157 
" clip-path="url(#pce8e0e8254)" style="fill: none; stroke: #cccccc; stroke-width: 0.8; stroke-linecap: round"/>
     </g>
     <g id="text_10">
      <!-- 15000 -->
      <g style="fill: #262626" transform="translate(24.75875 102.105375)scale(0.1 -0.1)">
       <use xlink:href="#DejaVuSans-31"/>
       <use xlink:href="#DejaVuSans-35" x="63.623047"/>
       <use xlink:href="#DejaVuSans-30" x="127.246094"/>
       <use xlink:href="#DejaVuSans-30" x="190.869141"/>
       <use xlink:href="#DejaVuSans-30" x="254.492188"/>
      </g>
     </g>
    </g>
    <g id="ytick_8">
     <g id="line2d_8">
      <path d="M 63.57125 64.083849 
L 450 64.083849 
" clip-path="url(#pce8e0e8254)" style="fill: none; stroke: #cccccc; stroke-width: 0.8; stroke-linecap: round"/>
     </g>
     <g id="text_11">
      <!-- 17500 -->
      <g style="fill: #262626" transform="translate(24.75875 67.883068)scale(0.1 -0.1)">
       <use xlink:href="#DejaVuSans-31"/>
       <use xlink:href="#DejaVuSans-37" x="63.623047"/>
       <use xlink:href="#DejaVuSans-35" x="127.246094"/>
       <use xlink:href="#DejaVuSans-30" x="190.869141"/>
       <use xlink:href="#DejaVuSans-30" x="254.492188"/>
      </g>
     </g>
    </g>
    <g id="ytick_9">
     <g id="line2d_9">
      <path d="M 63.57125 29.861542 
L 450 29.861542 
" clip-path="url(#pce8e0e8254)" style="fill: none; stroke: #cccccc; stroke-width: 0.8; stroke-linecap: round"/>
     </g>
     <g id="text_12">
      <!-- 20000 -->
      <g style="fill: #262626" transform="translate(24.75875 33.660761)scale(0.1 -0.1)">
       <use xlink:href="#DejaVuSans-32"/>
       <use xlink:href="#DejaVuSans-30" x="63.623047"/>
       <use xlink:href="#DejaVuSans-30" x="127.246094"/>
       <use xlink:href="#DejaVuSans-30" x="190.869141"/>
       <use xlink:href="#DejaVuSans-30" x="254.492188"/>
      </g>
     </g>
    </g>
    <g id="text_13">
     <!-- toxgreen_fluor -->
     <g style="fill: #262626" transform="translate(18.400938 193.414531)rotate(-90)scale(0.1 -0.1)">
      <defs>
       <path id="DejaVuSans-74" d="M 1172 4494 
L 1172 3500 
L 2356 3500 
L 2356 3053 
L 1172 3053 
L 1172 1153 
Q 1172 725 1289 603 
Q 1406 481 1766 481 
L 2356 481 
L 2356 0 
L 1766 0 
Q 1100 0 847 248 
Q 594 497 594 1153 
L 594 3053 
L 172 3053 
L 172 3500 
L 594 3500 
L 594 4494 
L 1172 4494 
z
" transform="scale(0.015625)"/>
       <path id="DejaVuSans-6f" d="M 1959 3097 
Q 1497 3097 1228 2736 
Q 959 2375 959 1747 
Q 959 1119 1226 758 
Q 1494 397 1959 397 
Q 2419 397 2687 759 
Q 2956 1122 2956 1747 
Q 2956 2369 2687 2733 
Q 2419 3097 1959 3097 
z
M 1959 3584 
Q 2709 3584 3137 3096 
Q 3566 2609 3566 1747 
Q 3566 888 3137 398 
Q 2709 -91 1959 -91 
Q 1206 -91 779 398 
Q 353 888 353 1747 
Q 353 2609 779 3096 
Q 1206 3584 1959 3584 
z
" transform="scale(0.015625)"/>
       <path id="DejaVuSans-78" d="M 3513 3500 
L 2247 1797 
L 3578 0 
L 2900 0 
L 1881 1375 
L 863 0 
L 184 0 
L 1544 1831 
L 300 3500 
L 978 3500 
L 1906 2253 
L 2834 3500 
L 3513 3500 
z
" transform="scale(0.015625)"/>
       <path id="DejaVuSans-67" d="M 2906 1791 
Q 2906 2416 2648 2759 
Q 2391 3103 1925 3103 
Q 1463 3103 1205 2759 
Q 947 2416 947 1791 
Q 947 1169 1205 825 
Q 1463 481 1925 481 
Q 2391 481 2648 825 
Q 2906 1169 2906 1791 
z
M 3481 434 
Q 3481 -459 3084 -895 
Q 2688 -1331 1869 -1331 
Q 1566 -1331 1297 -1286 
Q 1028 -1241 775 -1147 
L 775 -588 
Q 1028 -725 1275 -790 
Q 1522 -856 1778 -856 
Q 2344 -856 2625 -561 
Q 2906 -266 2906 331 
L 2906 616 
Q 2728 306 2450 153 
Q 2172 0 1784 0 
Q 1141 0 747 490 
Q 353 981 353 1791 
Q 353 2603 747 3093 
Q 1141 3584 1784 3584 
Q 2172 3584 2450 3431 
Q 2728 3278 2906 2969 
L 2906 3500 
L 3481 3500 
L 3481 434 
z
" transform="scale(0.015625)"/>
       <path id="DejaVuSans-72" d="M 2631 2963 
Q 2534 3019 2420 3045 
Q 2306 3072 2169 3072 
Q 1681 3072 1420 2755 
Q 1159 2438 1159 1844 
L 1159 0 
L 581 0 
L 581 3500 
L 1159 3500 
L 1159 2956 
Q 1341 3275 1631 3429 
Q 1922 3584 2338 3584 
Q 2397 3584 2469 3576 
Q 2541 3569 2628 3553 
L 2631 2963 
z
" transform="scale(0.015625)"/>
       <path id="DejaVuSans-65" d="M 3597 1894 
L 3597 1613 
L 953 1613 
Q 991 1019 1311 708 
Q 1631 397 2203 397 
Q 2534 397 2845 478 
Q 3156 559 3463 722 
L 3463 178 
Q 3153 47 2828 -22 
Q 2503 -91 2169 -91 
Q 1331 -91 842 396 
Q 353 884 353 1716 
Q 353 2575 817 3079 
Q 1281 3584 2069 3584 
Q 2775 3584 3186 3129 
Q 3597 2675 3597 1894 
z
M 3022 2063 
Q 3016 2534 2758 2815 
Q 2500 3097 2075 3097 
Q 1594 3097 1305 2825 
Q 1016 2553 972 2059 
L 3022 2063 
z
" transform="scale(0.015625)"/>
       <path id="DejaVuSans-6e" d="M 3513 2113 
L 3513 0 
L 2938 0 
L 2938 2094 
Q 2938 2591 2744 2837 
Q 2550 3084 2163 3084 
Q 1697 3084 1428 2787 
Q 1159 2491 1159 1978 
L 1159 0 
L 581 0 
L 581 3500 
L 1159 3500 
L 1159 2956 
Q 1366 3272 1645 3428 
Q 1925 3584 2291 3584 
Q 2894 3584 3203 3211 
Q 3513 2838 3513 2113 
z
" transform="scale(0.015625)"/>
       <path id="DejaVuSans-66" d="M 2375 4863 
L 2375 4384 
L 1825 4384 
Q 1516 4384 1395 4259 
Q 1275 4134 1275 3809 
L 1275 3500 
L 2222 3500 
L 2222 3053 
L 1275 3053 
L 1275 0 
L 697 0 
L 697 3053 
L 147 3053 
L 147 3500 
L 697 3500 
L 697 3744 
Q 697 4328 969 4595 
Q 1241 4863 1831 4863 
L 2375 4863 
z
" transform="scale(0.015625)"/>
       <path id="DejaVuSans-6c" d="M 603 4863 
L 1178 4863 
L 1178 0 
L 603 0 
L 603 4863 
z
" transform="scale(0.015625)"/>
       <path id="DejaVuSans-75" d="M 544 1381 
L 544 3500 
L 1119 3500 
L 1119 1403 
Q 1119 906 1312 657 
Q 1506 409 1894 409 
Q 2359 409 2629 706 
Q 2900 1003 2900 1516 
L 2900 3500 
L 3475 3500 
L 3475 0 
L 2900 0 
L 2900 538 
Q 2691 219 2414 64 
Q 2138 -91 1772 -91 
Q 1169 -91 856 284 
Q 544 659 544 1381 
z
M 1991 3584 
L 1991 3584 
z
" transform="scale(0.015625)"/>
      </defs>
      <use xlink:href="#DejaVuSans-74"/>
      <use xlink:href="#DejaVuSans-6f" x="39.208984"/>
      <use xlink:href="#DejaVuSans-78" x="97.265625"/>
      <use xlink:href="#DejaVuSans-67" x="156.445312"/>
      <use xlink:href="#DejaVuSans-72" x="219.921875"/>
      <use xlink:href="#DejaVuSans-65" x="258.785156"/>
      <use xlink:href="#DejaVuSans-65" x="320.308594"/>
      <use xlink:href="#DejaVuSans-6e" x="381.832031"/>
      <use xlink:href="#DejaVuSans-5f" x="445.210938"/>
      <use xlink:href="#DejaVuSans-66" x="495.210938"/>
      <use xlink:href="#DejaVuSans-6c" x="530.416016"/>
      <use xlink:href="#DejaVuSans-75" x="558.199219"/>
      <use xlink:href="#DejaVuSans-6f" x="621.578125"/>
      <use xlink:href="#DejaVuSans-72" x="682.759766"/>
     </g>
    </g>
   </g>
   <g id="patch_3">
    <path d="M 83.665545 242.240685 
L 159.40558 242.240685 
L 159.40558 206.148384 
L 83.665545 206.148384 
L 83.665545 242.240685 
z
" clip-path="url(#pce8e0e8254)" style="fill: #ecf2ec; stroke: #262626; stroke-width: 1.5; stroke-linejoin: miter"/>
   </g>
   <g id="patch_4">
    <path d="M 160.951295 218.16207 
L 236.69133 218.16207 
L 236.69133 163.41315 
L 160.951295 163.41315 
L 160.951295 218.16207 
z
" clip-path="url(#pce8e0e8254)" style="fill: #107010; stroke: #262626; stroke-width: 1.5; stroke-linejoin: miter"/>
   </g>
   <g id="patch_5">
    <path d="M 276.87992 208.472206 
L 352.619955 208.472206 
L 352.619955 176.774635 
L 276.87992 176.774635 
L 276.87992 208.472206 
z
" clip-path="url(#pce8e0e8254)" style="fill: #ecf2ec; stroke: #262626; stroke-width: 1.5; stroke-linejoin: miter"/>
   </g>
   <g id="patch_6">
    <path d="M 354.16567 231.528373 
L 429.905705 231.528373 
L 429.905705 193.898992 
L 354.16567 193.898992 
L 354.16567 231.528373 
z
" clip-path="url(#pce8e0e8254)" style="fill: #107010; stroke: #262626; stroke-width: 1.5; stroke-linejoin: miter"/>
   </g>
   <g id="patch_7">
    <path d="M 160.178438 303.64 
L 160.178438 303.64 
L 160.178438 303.64 
L 160.178438 303.64 
z
" clip-path="url(#pce8e0e8254)" style="fill: #ecf2ec; stroke: #262626; stroke-width: 0.75; stroke-linejoin: miter"/>
   </g>
   <g id="patch_8">
    <path d="M 160.178438 303.64 
L 160.178438 303.64 
L 160.178438 303.64 
L 160.178438 303.64 
z
" clip-path="url(#pce8e0e8254)" style="fill: #107010; stroke: #262626; stroke-width: 0.75; stroke-linejoin: miter"/>
   </g>
   <g id="PathCollection_1"/>
   <g id="PathCollection_2"/>
   <g id="line2d_10">
    <path d="M 121.535562 242.240685 
L 121.535562 258.655572 
" clip-path="url(#pce8e0e8254)" style="fill: none; stroke: #262626; stroke-width: 1.5; stroke-linecap: round"/>
   </g>
   <g id="line2d_11">
    <path d="M 121.535562 206.148384 
L 121.535562 180.090597 
" clip-path="url(#pce8e0e8254)" style="fill: none; stroke: #262626; stroke-width: 1.5; stroke-linecap: round"/>
   </g>
   <g id="line2d_12">
    <path d="M 102.600554 258.655572 
L 140.470571 258.655572 
" clip-path="url(#pce8e0e8254)" style="fill: none; stroke: #262626; stroke-width: 1.5; stroke-linecap: round"/>
   </g>
   <g id="line2d_13">
    <path d="M 102.600554 180.090597 
L 140.470571 180.090597 
" clip-path="url(#pce8e0e8254)" style="fill: none; stroke: #262626; stroke-width: 1.5; stroke-linecap: round"/>
   </g>
   <g id="line2d_14"/>
   <g id="line2d_15">
    <path d="M 198.821313 218.16207 
L 198.821313 256.407911 
" clip-path="url(#pce8e0e8254)" style="fill: none; stroke: #262626; stroke-width: 1.5; stroke-linecap: round"/>
   </g>
   <g id="line2d_16">
    <path d="M 198.821313 163.41315 
L 198.821313 145.012812 
" clip-path="url(#pce8e0e8254)" style="fill: none; stroke: #262626; stroke-width: 1.5; stroke-linecap: round"/>
   </g>
   <g id="line2d_17">
    <path d="M 179.886304 256.407911 
L 217.756321 256.407911 
" clip-path="url(#pce8e0e8254)" style="fill: none; stroke: #262626; stroke-width: 1.5; stroke-linecap: round"/>
   </g>
   <g id="line2d_18">
    <path d="M 179.886304 145.012812 
L 217.756321 145.012812 
" clip-path="url(#pce8e0e8254)" style="fill: none; stroke: #262626; stroke-width: 1.5; stroke-linecap: round"/>
   </g>
   <g id="line2d_19"/>
   <g id="line2d_20">
    <path d="M 314.749937 208.472206 
L 314.749937 249.46884 
" clip-path="url(#pce8e0e8254)" style="fill: none; stroke: #262626; stroke-width: 1.5; stroke-linecap: round"/>
   </g>
   <g id="line2d_21">
    <path d="M 314.749937 176.774635 
L 314.749937 140.766826 
" clip-path="url(#pce8e0e8254)" style="fill: none; stroke: #262626; stroke-width: 1.5; stroke-linecap: round"/>
   </g>
   <g id="line2d_22">
    <path d="M 295.814929 249.46884 
L 333.684946 249.46884 
" clip-path="url(#pce8e0e8254)" style="fill: none; stroke: #262626; stroke-width: 1.5; stroke-linecap: round"/>
   </g>
   <g id="line2d_23">
    <path d="M 295.814929 140.766826 
L 333.684946 140.766826 
" clip-path="url(#pce8e0e8254)" style="fill: none; stroke: #262626; stroke-width: 1.5; stroke-linecap: round"/>
   </g>
   <g id="line2d_24">
    <defs>
     <path id="ma4676c3e52" d="M -0 1.414214 
L 0.848528 0 
L 0 -1.414214 
L -0.848528 -0 
z
" style="stroke: #262626; stroke-linejoin: miter"/>
    </defs>
    <g clip-path="url(#pce8e0e8254)">
     <use xlink:href="#ma4676c3e52" x="314.749937" y="37.421818" style="fill: #262626; stroke: #262626; stroke-linejoin: miter"/>
     <use xlink:href="#ma4676c3e52" x="314.749937" y="128.880348" style="fill: #262626; stroke: #262626; stroke-linejoin: miter"/>
    </g>
   </g>
   <g id="line2d_25">
    <path d="M 392.035687 231.528373 
L 392.035687 251.00497 
" clip-path="url(#pce8e0e8254)" style="fill: none; stroke: #262626; stroke-width: 1.5; stroke-linecap: round"/>
   </g>
   <g id="line2d_26">
    <path d="M 392.035687 193.898992 
L 392.035687 152.139232 
" clip-path="url(#pce8e0e8254)" style="fill: none; stroke: #262626; stroke-width: 1.5; stroke-linecap: round"/>
   </g>
   <g id="line2d_27">
    <path d="M 373.100679 251.00497 
L 410.970696 251.00497 
" clip-path="url(#pce8e0e8254)" style="fill: none; stroke: #262626; stroke-width: 1.5; stroke-linecap: round"/>
   </g>
   <g id="line2d_28">
    <path d="M 373.100679 152.139232 
L 410.970696 152.139232 
" clip-path="url(#pce8e0e8254)" style="fill: none; stroke: #262626; stroke-width: 1.5; stroke-linecap: round"/>
   </g>
   <g id="line2d_29"/>
   <g id="line2d_30">
    <path d="M 83.665545 229.625102 
L 159.40558 229.625102 
" clip-path="url(#pce8e0e8254)" style="fill: none; stroke: #262626; stroke-width: 1.5; stroke-linecap: round"/>
   </g>
   <g id="line2d_31">
    <path d="M 160.951295 200.578493 
L 236.69133 200.578493 
" clip-path="url(#pce8e0e8254)" style="fill: none; stroke: #262626; stroke-width: 1.5; stroke-linecap: round"/>
   </g>
   <g id="line2d_32">
    <path d="M 276.87992 193.535155 
L 352.619955 193.535155 
" clip-path="url(#pce8e0e8254)" style="fill: none; stroke: #262626; stroke-width: 1.5; stroke-linecap: round"/>
   </g>
   <g id="line2d_33">
    <path d="M 354.16567 213.749515 
L 429.905705 213.749515 
" clip-path="url(#pce8e0e8254)" style="fill: none; stroke: #262626; stroke-width: 1.5; stroke-linecap: round"/>
   </g>
   <g id="patch_9">
    <path d="M 63.57125 303.64 
L 63.57125 10.8 
" style="fill: none; stroke: #cccccc; stroke-width: 0.8; stroke-linejoin: miter; stroke-linecap: square"/>
   </g>
   <g id="patch_10">
    <path d="M 450 303.64 
L 450 10.8 
" style="fill: none; stroke: #cccccc; stroke-width: 0.8; stroke-linejoin: miter; stroke-linecap: square"/>
   </g>
   <g id="patch_11">
    <path d="M 63.57125 303.64 
L 450 303.64 
" style="fill: none; stroke: #cccccc; stroke-width: 0.8; stroke-linejoin: miter; stroke-linecap: square"/>
   </g>
   <g id="patch_12">
    <path d="M 63.57125 10.8 
L 450 10.8 
" style="fill: none; stroke: #cccccc; stroke-width: 0.8; stroke-linejoin: miter; stroke-linecap: square"/>
   </g>
   <g id="PathCollection_3">
    <defs>
     <path id="C0_0_04b3b6877d" d="M 0 1 
C 0.265203 1 0.51958 0.894634 0.707107 0.707107 
C 0.894634 0.51958 1 0.265203 1 -0 
C 1 -0.265203 0.894634 -0.51958 0.707107 -0.707107 
C 0.51958 -0.894634 0.265203 -1 0 -1 
C -0.265203 -1 -0.51958 -0.894634 -0.707107 -0.707107 
C -0.894634 -0.51958 -1 -0.265203 -1 0 
C -1 0.265203 -0.894634 0.51958 -0.707107 0.707107 
C -0.51958 0.894634 -0.265203 1 0 1 
z
"/>
    </defs>
    <g clip-path="url(#pce8e0e8254)">
     <use xlink:href="#C0_0_04b3b6877d" x="130.7058" y="180.090597" style="fill: #262626"/>
    </g>
    <g clip-path="url(#pce8e0e8254)">
     <use xlink:href="#C0_0_04b3b6877d" x="115.239295" y="236.395577" style="fill: #262626"/>
    </g>
    <g clip-path="url(#pce8e0e8254)">
     <use xlink:href="#C0_0_04b3b6877d" x="128.00983" y="234.976318" style="fill: #262626"/>
    </g>
    <g clip-path="url(#pce8e0e8254)">
     <use xlink:href="#C0_0_04b3b6877d" x="119.173838" y="216.351421" style="fill: #262626"/>
    </g>
    <g clip-path="url(#pce8e0e8254)">
     <use xlink:href="#C0_0_04b3b6877d" x="130.360813" y="220.010918" style="fill: #262626"/>
    </g>
    <g clip-path="url(#pce8e0e8254)">
     <use xlink:href="#C0_0_04b3b6877d" x="117.291384" y="216.71565" style="fill: #262626"/>
    </g>
    <g clip-path="url(#pce8e0e8254)">
     <use xlink:href="#C0_0_04b3b6877d" x="117.873709" y="187.621714" style="fill: #262626"/>
    </g>
    <g clip-path="url(#pce8e0e8254)">
     <use xlink:href="#C0_0_04b3b6877d" x="130.711039" y="249.935809" style="fill: #262626"/>
    </g>
    <g clip-path="url(#pce8e0e8254)">
     <use xlink:href="#C0_0_04b3b6877d" x="122.836765" y="243.964619" style="fill: #262626"/>
    </g>
    <g clip-path="url(#pce8e0e8254)">
     <use xlink:href="#C0_0_04b3b6877d" x="112.006408" y="229.625102" style="fill: #262626"/>
    </g>
    <g clip-path="url(#pce8e0e8254)">
     <use xlink:href="#C0_0_04b3b6877d" x="116.046281" y="242.240685" style="fill: #262626"/>
    </g>
    <g clip-path="url(#pce8e0e8254)">
     <use xlink:href="#C0_0_04b3b6877d" x="128.050253" y="203.606058" style="fill: #262626"/>
    </g>
    <g clip-path="url(#pce8e0e8254)">
     <use xlink:href="#C0_0_04b3b6877d" x="129.47669" y="258.655572" style="fill: #262626"/>
    </g>
    <g clip-path="url(#pce8e0e8254)">
     <use xlink:href="#C0_0_04b3b6877d" x="113.003584" y="232.501888" style="fill: #262626"/>
    </g>
    <g clip-path="url(#pce8e0e8254)">
     <use xlink:href="#C0_0_04b3b6877d" x="116.52932" y="255.053252" style="fill: #262626"/>
    </g>
    <g clip-path="url(#pce8e0e8254)">
     <use xlink:href="#C0_0_04b3b6877d" x="127.070432" y="200.323358" style="fill: #262626"/>
    </g>
    <g clip-path="url(#pce8e0e8254)">
     <use xlink:href="#C0_0_04b3b6877d" x="126.341164" y="187.096521" style="fill: #262626"/>
    </g>
    <g clip-path="url(#pce8e0e8254)">
     <use xlink:href="#C0_0_04b3b6877d" x="123.541022" y="186.176306" style="fill: #262626"/>
    </g>
    <g clip-path="url(#pce8e0e8254)">
     <use xlink:href="#C0_0_04b3b6877d" x="114.589808" y="240.749956" style="fill: #262626"/>
    </g>
    <g clip-path="url(#pce8e0e8254)">
     <use xlink:href="#C0_0_04b3b6877d" x="121.951833" y="251.331526" style="fill: #262626"/>
    </g>
    <g clip-path="url(#pce8e0e8254)">
     <use xlink:href="#C0_0_04b3b6877d" x="129.093186" y="236.601388" style="fill: #262626"/>
    </g>
    <g clip-path="url(#pce8e0e8254)">
     <use xlink:href="#C0_0_04b3b6877d" x="121.900356" y="206.458574" style="fill: #262626"/>
    </g>
    <g clip-path="url(#pce8e0e8254)">
     <use xlink:href="#C0_0_04b3b6877d" x="128.094736" y="206.148384" style="fill: #262626"/>
    </g>
    <g clip-path="url(#pce8e0e8254)">
     <use xlink:href="#C0_0_04b3b6877d" x="113.370451" y="244.813737" style="fill: #262626"/>
    </g>
    <g clip-path="url(#pce8e0e8254)">
     <use xlink:href="#C0_0_04b3b6877d" x="129.630249" y="216.546221" style="fill: #262626"/>
    </g>
   </g>
   <g id="PathCollection_4">
    <defs>
     <path id="C1_0_ce750a4dc6" d="M 0 1 
C 0.265203 1 0.51958 0.894634 0.707107 0.707107 
C 0.894634 0.51958 1 0.265203 1 -0 
C 1 -0.265203 0.894634 -0.51958 0.707107 -0.707107 
C 0.51958 -0.894634 0.265203 -1 0 -1 
C -0.265203 -1 -0.51958 -0.894634 -0.707107 -0.707107 
C -0.894634 -0.51958 -1 -0.265203 -1 0 
C -1 0.265203 -0.894634 0.51958 -0.707107 0.707107 
C -0.51958 0.894634 -0.265203 1 0 1 
z
"/>
    </defs>
    <g clip-path="url(#pce8e0e8254)">
     <use xlink:href="#C1_0_ce750a4dc6" x="200.498575" y="168.655153"/>
    </g>
    <g clip-path="url(#pce8e0e8254)">
     <use xlink:href="#C1_0_ce750a4dc6" x="189.37839" y="145.012812"/>
    </g>
    <g clip-path="url(#pce8e0e8254)">
     <use xlink:href="#C1_0_ce750a4dc6" x="200.532186" y="215.715024"/>
    </g>
    <g clip-path="url(#pce8e0e8254)">
     <use xlink:href="#C1_0_ce750a4dc6" x="198.923394" y="185.441963"/>
    </g>
    <g clip-path="url(#pce8e0e8254)">
     <use xlink:href="#C1_0_ce750a4dc6" x="202.155767" y="225.290242"/>
    </g>
    <g clip-path="url(#pce8e0e8254)">
     <use xlink:href="#C1_0_ce750a4dc6" x="207.408707" y="147.687139"/>
    </g>
    <g clip-path="url(#pce8e0e8254)">
     <use xlink:href="#C1_0_ce750a4dc6" x="198.925279" y="256.407911"/>
    </g>
    <g clip-path="url(#pce8e0e8254)">
     <use xlink:href="#C1_0_ce750a4dc6" x="192.745678" y="215.786013"/>
    </g>
   </g>
   <g id="PathCollection_5">
    <defs>
     <path id="C2_0_4e2970b055" d="M 0 1 
C 0.265203 1 0.51958 0.894634 0.707107 0.707107 
C 0.894634 0.51958 1 0.265203 1 -0 
C 1 -0.265203 0.894634 -0.51958 0.707107 -0.707107 
C 0.51958 -0.894634 0.265203 -1 0 -1 
C -0.265203 -1 -0.51958 -0.894634 -0.707107 -0.707107 
C -0.894634 -0.51958 -1 -0.265203 -1 0 
C -1 0.265203 -0.894634 0.51958 -0.707107 0.707107 
C -0.51958 0.894634 -0.265203 1 0 1 
z
"/>
    </defs>
    <g clip-path="url(#pce8e0e8254)">
     <use xlink:href="#C2_0_4e2970b055" x="323.959686" y="174.372663" style="fill: #262626"/>
    </g>
    <g clip-path="url(#pce8e0e8254)">
     <use xlink:href="#C2_0_4e2970b055" x="315.932845" y="37.421818" style="fill: #262626"/>
    </g>
    <g clip-path="url(#pce8e0e8254)">
     <use xlink:href="#C2_0_4e2970b055" x="316.833747" y="186.829535" style="fill: #262626"/>
    </g>
    <g clip-path="url(#pce8e0e8254)">
     <use xlink:href="#C2_0_4e2970b055" x="313.782626" y="169.109941" style="fill: #262626"/>
    </g>
    <g clip-path="url(#pce8e0e8254)">
     <use xlink:href="#C2_0_4e2970b055" x="309.592654" y="169.650338" style="fill: #262626"/>
    </g>
    <g clip-path="url(#pce8e0e8254)">
     <use xlink:href="#C2_0_4e2970b055" x="309.081874" y="193.348818" style="fill: #262626"/>
    </g>
    <g clip-path="url(#pce8e0e8254)">
     <use xlink:href="#C2_0_4e2970b055" x="310.837142" y="140.766826" style="fill: #262626"/>
    </g>
    <g clip-path="url(#pce8e0e8254)">
     <use xlink:href="#C2_0_4e2970b055" x="323.575175" y="196.999751" style="fill: #262626"/>
    </g>
    <g clip-path="url(#pce8e0e8254)">
     <use xlink:href="#C2_0_4e2970b055" x="311.156744" y="214.956019" style="fill: #262626"/>
    </g>
    <g clip-path="url(#pce8e0e8254)">
     <use xlink:href="#C2_0_4e2970b055" x="322.272399" y="208.289829" style="fill: #262626"/>
    </g>
    <g clip-path="url(#pce8e0e8254)">
     <use xlink:href="#C2_0_4e2970b055" x="323.866419" y="193.721493" style="fill: #262626"/>
    </g>
    <g clip-path="url(#pce8e0e8254)">
     <use xlink:href="#C2_0_4e2970b055" x="307.193267" y="191.520577" style="fill: #262626"/>
    </g>
    <g clip-path="url(#pce8e0e8254)">
     <use xlink:href="#C2_0_4e2970b055" x="320.357311" y="195.621878" style="fill: #262626"/>
    </g>
    <g clip-path="url(#pce8e0e8254)">
     <use xlink:href="#C2_0_4e2970b055" x="321.854442" y="191.384213" style="fill: #262626"/>
    </g>
    <g clip-path="url(#pce8e0e8254)">
     <use xlink:href="#C2_0_4e2970b055" x="319.645172" y="194.097196" style="fill: #262626"/>
    </g>
    <g clip-path="url(#pce8e0e8254)">
     <use xlink:href="#C2_0_4e2970b055" x="313.641812" y="228.568143" style="fill: #262626"/>
    </g>
    <g clip-path="url(#pce8e0e8254)">
     <use xlink:href="#C2_0_4e2970b055" x="314.074633" y="249.46884" style="fill: #262626"/>
    </g>
    <g clip-path="url(#pce8e0e8254)">
     <use xlink:href="#C2_0_4e2970b055" x="311.518314" y="193.820608" style="fill: #262626"/>
    </g>
    <g clip-path="url(#pce8e0e8254)">
     <use xlink:href="#C2_0_4e2970b055" x="313.929429" y="191.876063" style="fill: #262626"/>
    </g>
    <g clip-path="url(#pce8e0e8254)">
     <use xlink:href="#C2_0_4e2970b055" x="318.842558" y="183.980548" style="fill: #262626"/>
    </g>
    <g clip-path="url(#pce8e0e8254)">
     <use xlink:href="#C2_0_4e2970b055" x="309.12552" y="188.748614" style="fill: #262626"/>
    </g>
    <g clip-path="url(#pce8e0e8254)">
     <use xlink:href="#C2_0_4e2970b055" x="309.613105" y="228.170853" style="fill: #262626"/>
    </g>
    <g clip-path="url(#pce8e0e8254)">
     <use xlink:href="#C2_0_4e2970b055" x="307.893075" y="192.730576" style="fill: #262626"/>
    </g>
    <g clip-path="url(#pce8e0e8254)">
     <use xlink:href="#C2_0_4e2970b055" x="322.409522" y="210.533308" style="fill: #262626"/>
    </g>
    <g clip-path="url(#pce8e0e8254)">
     <use xlink:href="#C2_0_4e2970b055" x="314.356454" y="217.755413" style="fill: #262626"/>
    </g>
    <g clip-path="url(#pce8e0e8254)">
     <use xlink:href="#C2_0_4e2970b055" x="316.605411" y="216.592297" style="fill: #262626"/>
    </g>
    <g clip-path="url(#pce8e0e8254)">
     <use xlink:href="#C2_0_4e2970b055" x="322.811841" y="196.780365" style="fill: #262626"/>
    </g>
    <g clip-path="url(#pce8e0e8254)">
     <use xlink:href="#C2_0_4e2970b055" x="317.878998" y="163.580662" style="fill: #262626"/>
    </g>
    <g clip-path="url(#pce8e0e8254)">
     <use xlink:href="#C2_0_4e2970b055" x="311.164458" y="198.390756" style="fill: #262626"/>
    </g>
    <g clip-path="url(#pce8e0e8254)">
     <use xlink:href="#C2_0_4e2970b055" x="314.117069" y="210.298026" style="fill: #262626"/>
    </g>
    <g clip-path="url(#pce8e0e8254)">
     <use xlink:href="#C2_0_4e2970b055" x="309.461314" y="208.532998" style="fill: #262626"/>
    </g>
    <g clip-path="url(#pce8e0e8254)">
     <use xlink:href="#C2_0_4e2970b055" x="323.054766" y="155.640315" style="fill: #262626"/>
    </g>
    <g clip-path="url(#pce8e0e8254)">
     <use xlink:href="#C2_0_4e2970b055" x="323.467691" y="128.880348" style="fill: #262626"/>
    </g>
    <g clip-path="url(#pce8e0e8254)">
     <use xlink:href="#C2_0_4e2970b055" x="305.583457" y="157.351798" style="fill: #262626"/>
    </g>
   </g>
   <g id="PathCollection_6">
    <defs>
     <path id="C3_0_8270351a97" d="M 0 1 
C 0.265203 1 0.51958 0.894634 0.707107 0.707107 
C 0.894634 0.51958 1 0.265203 1 -0 
C 1 -0.265203 0.894634 -0.51958 0.707107 -0.707107 
C 0.51958 -0.894634 0.265203 -1 0 -1 
C -0.265203 -1 -0.51958 -0.894634 -0.707107 -0.707107 
C -0.894634 -0.51958 -1 -0.265203 -1 0 
C -1 0.265203 -0.894634 0.51958 -0.707107 0.707107 
C -0.51958 0.894634 -0.265203 1 0 1 
z
"/>
    </defs>
    <g clip-path="url(#pce8e0e8254)">
     <use xlink:href="#C3_0_8270351a97" x="394.220033" y="173.312926"/>
    </g>
    <g clip-path="url(#pce8e0e8254)">
     <use xlink:href="#C3_0_8270351a97" x="386.087714" y="238.14427"/>
    </g>
    <g clip-path="url(#pce8e0e8254)">
     <use xlink:href="#C3_0_8270351a97" x="395.194684" y="192.88591"/>
    </g>
    <g clip-path="url(#pce8e0e8254)">
     <use xlink:href="#C3_0_8270351a97" x="398.940441" y="251.00497"/>
    </g>
    <g clip-path="url(#pce8e0e8254)">
     <use xlink:href="#C3_0_8270351a97" x="391.237981" y="238.066372"/>
    </g>
    <g clip-path="url(#pce8e0e8254)">
     <use xlink:href="#C3_0_8270351a97" x="401.326452" y="230.870646"/>
    </g>
    <g clip-path="url(#pce8e0e8254)">
     <use xlink:href="#C3_0_8270351a97" x="395.535172" y="152.139232"/>
    </g>
    <g clip-path="url(#pce8e0e8254)">
     <use xlink:href="#C3_0_8270351a97" x="393.140325" y="196.938239"/>
    </g>
    <g clip-path="url(#pce8e0e8254)">
     <use xlink:href="#C3_0_8270351a97" x="392.168565" y="203.88729"/>
    </g>
    <g clip-path="url(#pce8e0e8254)">
     <use xlink:href="#C3_0_8270351a97" x="397.291209" y="191.872007"/>
    </g>
    <g clip-path="url(#pce8e0e8254)">
     <use xlink:href="#C3_0_8270351a97" x="387.474681" y="231.747615"/>
    </g>
    <g clip-path="url(#pce8e0e8254)">
     <use xlink:href="#C3_0_8270351a97" x="389.625431" y="216.843023"/>
    </g>
    <g clip-path="url(#pce8e0e8254)">
     <use xlink:href="#C3_0_8270351a97" x="392.898567" y="225.443069"/>
    </g>
    <g clip-path="url(#pce8e0e8254)">
     <use xlink:href="#C3_0_8270351a97" x="390.093356" y="210.656008"/>
    </g>
   </g>
   <g id="text_14">
    <!-- 25 -->
    <g style="fill: #262626" transform="translate(131.196281 303.617413)scale(0.1 -0.1)">
     <use xlink:href="#DejaVuSans-32"/>
     <use xlink:href="#DejaVuSans-35" x="63.623047"/>
    </g>
   </g>
   <g id="text_15">
    <!-- p=0.018533321478348724 -->
    <g style="fill: #262626" transform="translate(75.678781 180.089913)scale(0.08 -0.08)">
     <defs>
      <path id="DejaVuSans-70" d="M 1159 525 
L 1159 -1331 
L 581 -1331 
L 581 3500 
L 1159 3500 
L 1159 2969 
Q 1341 3281 1617 3432 
Q 1894 3584 2278 3584 
Q 2916 3584 3314 3078 
Q 3713 2572 3713 1747 
Q 3713 922 3314 415 
Q 2916 -91 2278 -91 
Q 1894 -91 1617 61 
Q 1341 213 1159 525 
z
M 3116 1747 
Q 3116 2381 2855 2742 
Q 2594 3103 2138 3103 
Q 1681 3103 1420 2742 
Q 1159 2381 1159 1747 
Q 1159 1113 1420 752 
Q 1681 391 2138 391 
Q 2594 391 2855 752 
Q 3116 1113 3116 1747 
z
" transform="scale(0.015625)"/>
      <path id="DejaVuSans-3d" d="M 678 2906 
L 4684 2906 
L 4684 2381 
L 678 2381 
L 678 2906 
z
M 678 1631 
L 4684 1631 
L 4684 1100 
L 678 1100 
L 678 1631 
z
" transform="scale(0.015625)"/>
      <path id="DejaVuSans-2e" d="M 684 794 
L 1344 794 
L 1344 0 
L 684 0 
L 684 794 
z
" transform="scale(0.015625)"/>
      <path id="DejaVuSans-38" d="M 2034 2216 
Q 1584 2216 1326 1975 
Q 1069 1734 1069 1313 
Q 1069 891 1326 650 
Q 1584 409 2034 409 
Q 2484 409 2743 651 
Q 3003 894 3003 1313 
Q 3003 1734 2745 1975 
Q 2488 2216 2034 2216 
z
M 1403 2484 
Q 997 2584 770 2862 
Q 544 3141 544 3541 
Q 544 4100 942 4425 
Q 1341 4750 2034 4750 
Q 2731 4750 3128 4425 
Q 3525 4100 3525 3541 
Q 3525 3141 3298 2862 
Q 3072 2584 2669 2484 
Q 3125 2378 3379 2068 
Q 3634 1759 3634 1313 
Q 3634 634 3220 271 
Q 2806 -91 2034 -91 
Q 1263 -91 848 271 
Q 434 634 434 1313 
Q 434 1759 690 2068 
Q 947 2378 1403 2484 
z
M 1172 3481 
Q 1172 3119 1398 2916 
Q 1625 2713 2034 2713 
Q 2441 2713 2670 2916 
Q 2900 3119 2900 3481 
Q 2900 3844 2670 4047 
Q 2441 4250 2034 4250 
Q 1625 4250 1398 4047 
Q 1172 3844 1172 3481 
z
" transform="scale(0.015625)"/>
      <path id="DejaVuSans-33" d="M 2597 2516 
Q 3050 2419 3304 2112 
Q 3559 1806 3559 1356 
Q 3559 666 3084 287 
Q 2609 -91 1734 -91 
Q 1441 -91 1130 -33 
Q 819 25 488 141 
L 488 750 
Q 750 597 1062 519 
Q 1375 441 1716 441 
Q 2309 441 2620 675 
Q 2931 909 2931 1356 
Q 2931 1769 2642 2001 
Q 2353 2234 1838 2234 
L 1294 2234 
L 1294 2753 
L 1863 2753 
Q 2328 2753 2575 2939 
Q 2822 3125 2822 3475 
Q 2822 3834 2567 4026 
Q 2313 4219 1838 4219 
Q 1578 4219 1281 4162 
Q 984 4106 628 3988 
L 628 4550 
Q 988 4650 1302 4700 
Q 1616 4750 1894 4750 
Q 2613 4750 3031 4423 
Q 3450 4097 3450 3541 
Q 3450 3153 3228 2886 
Q 3006 2619 2597 2516 
z
" transform="scale(0.015625)"/>
      <path id="DejaVuSans-34" d="M 2419 4116 
L 825 1625 
L 2419 1625 
L 2419 4116 
z
M 2253 4666 
L 3047 4666 
L 3047 1625 
L 3713 1625 
L 3713 1100 
L 3047 1100 
L 3047 0 
L 2419 0 
L 2419 1100 
L 313 1100 
L 313 1709 
L 2253 4666 
z
" transform="scale(0.015625)"/>
     </defs>
     <use xlink:href="#DejaVuSans-70"/>
     <use xlink:href="#DejaVuSans-3d" x="63.476562"/>
     <use xlink:href="#DejaVuSans-30" x="147.265625"/>
     <use xlink:href="#DejaVuSans-2e" x="210.888672"/>
     <use xlink:href="#DejaVuSans-30" x="242.675781"/>
     <use xlink:href="#DejaVuSans-31" x="306.298828"/>
     <use xlink:href="#DejaVuSans-38" x="369.921875"/>
     <use xlink:href="#DejaVuSans-35" x="433.544922"/>
     <use xlink:href="#DejaVuSans-33" x="497.167969"/>
     <use xlink:href="#DejaVuSans-33" x="560.791016"/>
     <use xlink:href="#DejaVuSans-33" x="624.414062"/>
     <use xlink:href="#DejaVuSans-32" x="688.037109"/>
     <use xlink:href="#DejaVuSans-31" x="751.660156"/>
     <use xlink:href="#DejaVuSans-34" x="815.283203"/>
     <use xlink:href="#DejaVuSans-37" x="878.90625"/>
     <use xlink:href="#DejaVuSans-38" x="942.529297"/>
     <use xlink:href="#DejaVuSans-33" x="1006.152344"/>
     <use xlink:href="#DejaVuSans-34" x="1069.775391"/>
     <use xlink:href="#DejaVuSans-38" x="1133.398438"/>
     <use xlink:href="#DejaVuSans-37" x="1197.021484"/>
     <use xlink:href="#DejaVuSans-32" x="1260.644531"/>
     <use xlink:href="#DejaVuSans-34" x="1324.267578"/>
    </g>
   </g>
   <g id="text_16">
    <!-- 8 -->
    <g style="fill: #262626" transform="translate(189.160594 303.617413)scale(0.1 -0.1)">
     <use xlink:href="#DejaVuSans-38"/>
    </g>
   </g>
   <g id="text_17">
    <!-- 34 -->
    <g style="fill: #262626" transform="translate(324.410656 303.617413)scale(0.1 -0.1)">
     <use xlink:href="#DejaVuSans-33"/>
     <use xlink:href="#DejaVuSans-34" x="63.623047"/>
    </g>
   </g>
   <g id="text_18">
    <!-- p=0.036645788064288164 -->
    <g style="fill: #262626" transform="translate(268.893156 37.421134)scale(0.08 -0.08)">
     <defs>
      <path id="DejaVuSans-36" d="M 2113 2584 
Q 1688 2584 1439 2293 
Q 1191 2003 1191 1497 
Q 1191 994 1439 701 
Q 1688 409 2113 409 
Q 2538 409 2786 701 
Q 3034 994 3034 1497 
Q 3034 2003 2786 2293 
Q 2538 2584 2113 2584 
z
M 3366 4563 
L 3366 3988 
Q 3128 4100 2886 4159 
Q 2644 4219 2406 4219 
Q 1781 4219 1451 3797 
Q 1122 3375 1075 2522 
Q 1259 2794 1537 2939 
Q 1816 3084 2150 3084 
Q 2853 3084 3261 2657 
Q 3669 2231 3669 1497 
Q 3669 778 3244 343 
Q 2819 -91 2113 -91 
Q 1303 -91 875 529 
Q 447 1150 447 2328 
Q 447 3434 972 4092 
Q 1497 4750 2381 4750 
Q 2619 4750 2861 4703 
Q 3103 4656 3366 4563 
z
" transform="scale(0.015625)"/>
     </defs>
     <use xlink:href="#DejaVuSans-70"/>
     <use xlink:href="#DejaVuSans-3d" x="63.476562"/>
     <use xlink:href="#DejaVuSans-30" x="147.265625"/>
     <use xlink:href="#DejaVuSans-2e" x="210.888672"/>
     <use xlink:href="#DejaVuSans-30" x="242.675781"/>
     <use xlink:href="#DejaVuSans-33" x="306.298828"/>
     <use xlink:href="#DejaVuSans-36" x="369.921875"/>
     <use xlink:href="#DejaVuSans-36" x="433.544922"/>
     <use xlink:href="#DejaVuSans-34" x="497.167969"/>
     <use xlink:href="#DejaVuSans-35" x="560.791016"/>
     <use xlink:href="#DejaVuSans-37" x="624.414062"/>
     <use xlink:href="#DejaVuSans-38" x="688.037109"/>
     <use xlink:href="#DejaVuSans-38" x="751.660156"/>
     <use xlink:href="#DejaVuSans-30" x="815.283203"/>
     <use xlink:href="#DejaVuSans-36" x="878.90625"/>
     <use xlink:href="#DejaVuSans-34" x="942.529297"/>
     <use xlink:href="#DejaVuSans-32" x="1006.152344"/>
     <use xlink:href="#DejaVuSans-38" x="1069.775391"/>
     <use xlink:href="#DejaVuSans-38" x="1133.398438"/>
     <use xlink:href="#DejaVuSans-31" x="1197.021484"/>
     <use xlink:href="#DejaVuSans-36" x="1260.644531"/>
     <use xlink:href="#DejaVuSans-34" x="1324.267578"/>
    </g>
   </g>
   <g id="text_19">
    <!-- 14 -->
    <g style="fill: #262626" transform="translate(382.374969 303.617413)scale(0.1 -0.1)">
     <use xlink:href="#DejaVuSans-31"/>
     <use xlink:href="#DejaVuSans-34" x="63.623047"/>
    </g>
   </g>
   <g id="legend_1">
    <g id="patch_13">
     <path d="M 377.728125 27.398438 
L 397.728125 27.398438 
L 397.728125 20.398438 
L 377.728125 20.398438 
z
" style="fill: #ecf2ec; stroke: #262626; stroke-width: 0.75; stroke-linejoin: miter"/>
    </g>
    <g id="text_20">
     <!-- Mutant -->
     <g style="fill: #262626" transform="translate(405.728125 27.398438)scale(0.1 -0.1)">
      <defs>
       <path id="DejaVuSans-61" d="M 2194 1759 
Q 1497 1759 1228 1600 
Q 959 1441 959 1056 
Q 959 750 1161 570 
Q 1363 391 1709 391 
Q 2188 391 2477 730 
Q 2766 1069 2766 1631 
L 2766 1759 
L 2194 1759 
z
M 3341 1997 
L 3341 0 
L 2766 0 
L 2766 531 
Q 2569 213 2275 61 
Q 1981 -91 1556 -91 
Q 1019 -91 701 211 
Q 384 513 384 1019 
Q 384 1609 779 1909 
Q 1175 2209 1959 2209 
L 2766 2209 
L 2766 2266 
Q 2766 2663 2505 2880 
Q 2244 3097 1772 3097 
Q 1472 3097 1187 3025 
Q 903 2953 641 2809 
L 641 3341 
Q 956 3463 1253 3523 
Q 1550 3584 1831 3584 
Q 2591 3584 2966 3190 
Q 3341 2797 3341 1997 
z
" transform="scale(0.015625)"/>
      </defs>
      <use xlink:href="#DejaVuSans-4d"/>
      <use xlink:href="#DejaVuSans-75" x="86.279297"/>
      <use xlink:href="#DejaVuSans-74" x="149.658203"/>
      <use xlink:href="#DejaVuSans-61" x="188.867188"/>
      <use xlink:href="#DejaVuSans-6e" x="250.146484"/>
      <use xlink:href="#DejaVuSans-74" x="313.525391"/>
     </g>
    </g>
    <g id="patch_14">
     <path d="M 377.728125 42.076563 
L 397.728125 42.076563 
L 397.728125 35.076563 
L 377.728125 35.076563 
z
" style="fill: #107010; stroke: #262626; stroke-width: 0.75; stroke-linejoin: miter"/>
    </g>
    <g id="text_21">
     <!-- WT -->
     <g style="fill: #262626" transform="translate(405.728125 42.076563)scale(0.1 -0.1)">
      <use xlink:href="#DejaVuSans-57"/>
      <use xlink:href="#DejaVuSans-54" x="98.876953"/>
     </g>
    </g>
   </g>
  </g>
 </g>
 <defs>
  <clipPath id="pce8e0e8254">
   <rect x="63.57125" y="10.8" width="386.42875" height="292.84"/>
  </clipPath>
 </defs>
</svg>
