<?xml version="1.0" encoding="utf-8" standalone="no"?>
<!DOCTYPE svg PUBLIC "-//W3C//DTD SVG 1.1//EN"
  "http://www.w3.org/Graphics/SVG/1.1/DTD/svg11.dtd">
<svg xmlns:xlink="http://www.w3.org/1999/xlink" width="460.8pt" height="345.6pt" viewBox="0 0 460.8 345.6" xmlns="http://www.w3.org/2000/svg" version="1.1">
 <metadata>
  <rdf:RDF xmlns:dc="http://purl.org/dc/elements/1.1/" xmlns:cc="http://creativecommons.org/ns#" xmlns:rdf="http://www.w3.org/1999/02/22-rdf-syntax-ns#">
   <cc:Work>
    <dc:type rdf:resource="http://purl.org/dc/dcmitype/StillImage"/>
    <dc:date>2024-02-11T15:15:08.324450</dc:date>
    <dc:format>image/svg+xml</dc:format>
    <dc:creator>
     <cc:Agent>
      <dc:title>Matplotlib v3.5.3, https://matplotlib.org/</dc:title>
     </cc:Agent>
    </dc:creator>
   </cc:Work>
  </rdf:RDF>
 </metadata>
 <defs>
  <style type="text/css">*{stroke-linejoin: round; stroke-linecap: butt}</style>
 </defs>
 <g id="figure_1">
  <g id="patch_1">
   <path d="M 0 345.6 
L 460.8 345.6 
L 460.8 0 
L 0 0 
z
" style="fill: #ffffff"/>
  </g>
  <g id="axes_1">
   <g id="patch_2">
    <path d="M 63.57125 303.64 
L 450 303.64 
L 450 10.8 
L 63.57125 10.8 
z
" style="fill: #ffffff"/>
   </g>
   <g id="matplotlib.axis_1">
    <g id="xtick_1">
     <g id="text_1">
      <!-- I -->
      <g style="fill: #262626" transform="translate(255.310625 318.238437)scale(0.1 -0.1)">
       <defs>
        <path id="DejaVuSans-49" d="M 628 4666 
L 1259 4666 
L 1259 0 
L 628 0 
L 628 4666 
z
" transform="scale(0.015625)"/>
       </defs>
       <use xlink:href="#DejaVuSans-49"/>
      </g>
     </g>
    </g>
    <g id="text_2">
     <!-- mut_AA -->
     <g style="fill: #262626" transform="translate(237.308281 331.638437)scale(0.1 -0.1)">
      <defs>
       <path id="DejaVuSans-6d" d="M 3328 2828 
Q 3544 3216 3844 3400 
Q 4144 3584 4550 3584 
Q 5097 3584 5394 3201 
Q 5691 2819 5691 2113 
L 5691 0 
L 5113 0 
L 5113 2094 
Q 5113 2597 4934 2840 
Q 4756 3084 4391 3084 
Q 3944 3084 3684 2787 
Q 3425 2491 3425 1978 
L 3425 0 
L 2847 0 
L 2847 2094 
Q 2847 2600 2669 2842 
Q 2491 3084 2119 3084 
Q 1678 3084 1418 2786 
Q 1159 2488 1159 1978 
L 1159 0 
L 581 0 
L 581 3500 
L 1159 3500 
L 1159 2956 
Q 1356 3278 1631 3431 
Q 1906 3584 2284 3584 
Q 2666 3584 2933 3390 
Q 3200 3197 3328 2828 
z
" transform="scale(0.015625)"/>
       <path id="DejaVuSans-75" d="M 544 1381 
L 544 3500 
L 1119 3500 
L 1119 1403 
Q 1119 906 1312 657 
Q 1506 409 1894 409 
Q 2359 409 2629 706 
Q 2900 1003 2900 1516 
L 2900 3500 
L 3475 3500 
L 3475 0 
L 2900 0 
L 2900 538 
Q 2691 219 2414 64 
Q 2138 -91 1772 -91 
Q 1169 -91 856 284 
Q 544 659 544 1381 
z
M 1991 3584 
L 1991 3584 
z
" transform="scale(0.015625)"/>
       <path id="DejaVuSans-74" d="M 1172 4494 
L 1172 3500 
L 2356 3500 
L 2356 3053 
L 1172 3053 
L 1172 1153 
Q 1172 725 1289 603 
Q 1406 481 1766 481 
L 2356 481 
L 2356 0 
L 1766 0 
Q 1100 0 847 248 
Q 594 497 594 1153 
L 594 3053 
L 172 3053 
L 172 3500 
L 594 3500 
L 594 4494 
L 1172 4494 
z
" transform="scale(0.015625)"/>
       <path id="DejaVuSans-5f" d="M 3263 -1063 
L 3263 -1509 
L -63 -1509 
L -63 -1063 
L 3263 -1063 
z
" transform="scale(0.015625)"/>
       <path id="DejaVuSans-41" d="M 2188 4044 
L 1331 1722 
L 3047 1722 
L 2188 4044 
z
M 1831 4666 
L 2547 4666 
L 4325 0 
L 3669 0 
L 3244 1197 
L 1141 1197 
L 716 0 
L 50 0 
L 1831 4666 
z
" transform="scale(0.015625)"/>
      </defs>
      <use xlink:href="#DejaVuSans-6d"/>
      <use xlink:href="#DejaVuSans-75" x="97.412109"/>
      <use xlink:href="#DejaVuSans-74" x="160.791016"/>
      <use xlink:href="#DejaVuSans-5f" x="200"/>
      <use xlink:href="#DejaVuSans-41" x="250"/>
      <use xlink:href="#DejaVuSans-41" x="321.158203"/>
     </g>
    </g>
   </g>
   <g id="matplotlib.axis_2">
    <g id="ytick_1">
     <g id="line2d_1">
      <path d="M 63.57125 303.64 
L 450 303.64 
" clip-path="url(#p9428f9e53b)" style="fill: none; stroke: #cccccc; stroke-width: 0.8; stroke-linecap: round"/>
     </g>
     <g id="text_3">
      <!-- 0.0 -->
      <g style="fill: #262626" transform="translate(40.668125 307.439219)scale(0.1 -0.1)">
       <defs>
        <path id="DejaVuSans-30" d="M 2034 4250 
Q 1547 4250 1301 3770 
Q 1056 3291 1056 2328 
Q 1056 1369 1301 889 
Q 1547 409 2034 409 
Q 2525 409 2770 889 
Q 3016 1369 3016 2328 
Q 3016 3291 2770 3770 
Q 2525 4250 2034 4250 
z
M 2034 4750 
Q 2819 4750 3233 4129 
Q 3647 3509 3647 2328 
Q 3647 1150 3233 529 
Q 2819 -91 2034 -91 
Q 1250 -91 836 529 
Q 422 1150 422 2328 
Q 422 3509 836 4129 
Q 1250 4750 2034 4750 
z
" transform="scale(0.015625)"/>
        <path id="DejaVuSans-2e" d="M 684 794 
L 1344 794 
L 1344 0 
L 684 0 
L 684 794 
z
" transform="scale(0.015625)"/>
       </defs>
       <use xlink:href="#DejaVuSans-30"/>
       <use xlink:href="#DejaVuSans-2e" x="63.623047"/>
       <use xlink:href="#DejaVuSans-30" x="95.410156"/>
      </g>
     </g>
    </g>
    <g id="ytick_2">
     <g id="line2d_2">
      <path d="M 63.57125 250.677746 
L 450 250.677746 
" clip-path="url(#p9428f9e53b)" style="fill: none; stroke: #cccccc; stroke-width: 0.8; stroke-linecap: round"/>
     </g>
     <g id="text_4">
      <!-- 0.1 -->
      <g style="fill: #262626" transform="translate(40.668125 254.476964)scale(0.1 -0.1)">
       <defs>
        <path id="DejaVuSans-31" d="M 794 531 
L 1825 531 
L 1825 4091 
L 703 3866 
L 703 4441 
L 1819 4666 
L 2450 4666 
L 2450 531 
L 3481 531 
L 3481 0 
L 794 0 
L 794 531 
z
" transform="scale(0.015625)"/>
       </defs>
       <use xlink:href="#DejaVuSans-30"/>
       <use xlink:href="#DejaVuSans-2e" x="63.623047"/>
       <use xlink:href="#DejaVuSans-31" x="95.410156"/>
      </g>
     </g>
    </g>
    <g id="ytick_3">
     <g id="line2d_3">
      <path d="M 63.57125 197.715491 
L 450 197.715491 
" clip-path="url(#p9428f9e53b)" style="fill: none; stroke: #cccccc; stroke-width: 0.8; stroke-linecap: round"/>
     </g>
     <g id="text_5">
      <!-- 0.2 -->
      <g style="fill: #262626" transform="translate(40.668125 201.51471)scale(0.1 -0.1)">
       <defs>
        <path id="DejaVuSans-32" d="M 1228 531 
L 3431 531 
L 3431 0 
L 469 0 
L 469 531 
Q 828 903 1448 1529 
Q 2069 2156 2228 2338 
Q 2531 2678 2651 2914 
Q 2772 3150 2772 3378 
Q 2772 3750 2511 3984 
Q 2250 4219 1831 4219 
Q 1534 4219 1204 4116 
Q 875 4013 500 3803 
L 500 4441 
Q 881 4594 1212 4672 
Q 1544 4750 1819 4750 
Q 2544 4750 2975 4387 
Q 3406 4025 3406 3419 
Q 3406 3131 3298 2873 
Q 3191 2616 2906 2266 
Q 2828 2175 2409 1742 
Q 1991 1309 1228 531 
z
" transform="scale(0.015625)"/>
       </defs>
       <use xlink:href="#DejaVuSans-30"/>
       <use xlink:href="#DejaVuSans-2e" x="63.623047"/>
       <use xlink:href="#DejaVuSans-32" x="95.410156"/>
      </g>
     </g>
    </g>
    <g id="ytick_4">
     <g id="line2d_4">
      <path d="M 63.57125 144.753237 
L 450 144.753237 
" clip-path="url(#p9428f9e53b)" style="fill: none; stroke: #cccccc; stroke-width: 0.8; stroke-linecap: round"/>
     </g>
     <g id="text_6">
      <!-- 0.3 -->
      <g style="fill: #262626" transform="translate(40.668125 148.552456)scale(0.1 -0.1)">
       <defs>
        <path id="DejaVuSans-33" d="M 2597 2516 
Q 3050 2419 3304 2112 
Q 3559 1806 3559 1356 
Q 3559 666 3084 287 
Q 2609 -91 1734 -91 
Q 1441 -91 1130 -33 
Q 819 25 488 141 
L 488 750 
Q 750 597 1062 519 
Q 1375 441 1716 441 
Q 2309 441 2620 675 
Q 2931 909 2931 1356 
Q 2931 1769 2642 2001 
Q 2353 2234 1838 2234 
L 1294 2234 
L 1294 2753 
L 1863 2753 
Q 2328 2753 2575 2939 
Q 2822 3125 2822 3475 
Q 2822 3834 2567 4026 
Q 2313 4219 1838 4219 
Q 1578 4219 1281 4162 
Q 984 4106 628 3988 
L 628 4550 
Q 988 4650 1302 4700 
Q 1616 4750 1894 4750 
Q 2613 4750 3031 4423 
Q 3450 4097 3450 3541 
Q 3450 3153 3228 2886 
Q 3006 2619 2597 2516 
z
" transform="scale(0.015625)"/>
       </defs>
       <use xlink:href="#DejaVuSans-30"/>
       <use xlink:href="#DejaVuSans-2e" x="63.623047"/>
       <use xlink:href="#DejaVuSans-33" x="95.410156"/>
      </g>
     </g>
    </g>
    <g id="ytick_5">
     <g id="line2d_5">
      <path d="M 63.57125 91.790982 
L 450 91.790982 
" clip-path="url(#p9428f9e53b)" style="fill: none; stroke: #cccccc; stroke-width: 0.8; stroke-linecap: round"/>
     </g>
     <g id="text_7">
      <!-- 0.4 -->
      <g style="fill: #262626" transform="translate(40.668125 95.590201)scale(0.1 -0.1)">
       <defs>
        <path id="DejaVuSans-34" d="M 2419 4116 
L 825 1625 
L 2419 1625 
L 2419 4116 
z
M 2253 4666 
L 3047 4666 
L 3047 1625 
L 3713 1625 
L 3713 1100 
L 3047 1100 
L 3047 0 
L 2419 0 
L 2419 1100 
L 313 1100 
L 313 1709 
L 2253 4666 
z
" transform="scale(0.015625)"/>
       </defs>
       <use xlink:href="#DejaVuSans-30"/>
       <use xlink:href="#DejaVuSans-2e" x="63.623047"/>
       <use xlink:href="#DejaVuSans-34" x="95.410156"/>
      </g>
     </g>
    </g>
    <g id="ytick_6">
     <g id="line2d_6">
      <path d="M 63.57125 38.828728 
L 450 38.828728 
" clip-path="url(#p9428f9e53b)" style="fill: none; stroke: #cccccc; stroke-width: 0.8; stroke-linecap: round"/>
     </g>
     <g id="text_8">
      <!-- 0.5 -->
      <g style="fill: #262626" transform="translate(40.668125 42.627947)scale(0.1 -0.1)">
       <defs>
        <path id="DejaVuSans-35" d="M 691 4666 
L 3169 4666 
L 3169 4134 
L 1269 4134 
L 1269 2991 
Q 1406 3038 1543 3061 
Q 1681 3084 1819 3084 
Q 2600 3084 3056 2656 
Q 3513 2228 3513 1497 
Q 3513 744 3044 326 
Q 2575 -91 1722 -91 
Q 1428 -91 1123 -41 
Q 819 9 494 109 
L 494 744 
Q 775 591 1075 516 
Q 1375 441 1709 441 
Q 2250 441 2565 725 
Q 2881 1009 2881 1497 
Q 2881 1984 2565 2268 
Q 2250 2553 1709 2553 
Q 1456 2553 1204 2497 
Q 953 2441 691 2322 
L 691 4666 
z
" transform="scale(0.015625)"/>
       </defs>
       <use xlink:href="#DejaVuSans-30"/>
       <use xlink:href="#DejaVuSans-2e" x="63.623047"/>
       <use xlink:href="#DejaVuSans-35" x="95.410156"/>
      </g>
     </g>
    </g>
    <g id="text_9">
     <!-- PercentGpA -->
     <g style="fill: #262626" transform="translate(34.588438 186.496563)rotate(-90)scale(0.1 -0.1)">
      <defs>
       <path id="DejaVuSans-50" d="M 1259 4147 
L 1259 2394 
L 2053 2394 
Q 2494 2394 2734 2622 
Q 2975 2850 2975 3272 
Q 2975 3691 2734 3919 
Q 2494 4147 2053 4147 
L 1259 4147 
z
M 628 4666 
L 2053 4666 
Q 2838 4666 3239 4311 
Q 3641 3956 3641 3272 
Q 3641 2581 3239 2228 
Q 2838 1875 2053 1875 
L 1259 1875 
L 1259 0 
L 628 0 
L 628 4666 
z
" transform="scale(0.015625)"/>
       <path id="DejaVuSans-65" d="M 3597 1894 
L 3597 1613 
L 953 1613 
Q 991 1019 1311 708 
Q 1631 397 2203 397 
Q 2534 397 2845 478 
Q 3156 559 3463 722 
L 3463 178 
Q 3153 47 2828 -22 
Q 2503 -91 2169 -91 
Q 1331 -91 842 396 
Q 353 884 353 1716 
Q 353 2575 817 3079 
Q 1281 3584 2069 3584 
Q 2775 3584 3186 3129 
Q 3597 2675 3597 1894 
z
M 3022 2063 
Q 3016 2534 2758 2815 
Q 2500 3097 2075 3097 
Q 1594 3097 1305 2825 
Q 1016 2553 972 2059 
L 3022 2063 
z
" transform="scale(0.015625)"/>
       <path id="DejaVuSans-72" d="M 2631 2963 
Q 2534 3019 2420 3045 
Q 2306 3072 2169 3072 
Q 1681 3072 1420 2755 
Q 1159 2438 1159 1844 
L 1159 0 
L 581 0 
L 581 3500 
L 1159 3500 
L 1159 2956 
Q 1341 3275 1631 3429 
Q 1922 3584 2338 3584 
Q 2397 3584 2469 3576 
Q 2541 3569 2628 3553 
L 2631 2963 
z
" transform="scale(0.015625)"/>
       <path id="DejaVuSans-63" d="M 3122 3366 
L 3122 2828 
Q 2878 2963 2633 3030 
Q 2388 3097 2138 3097 
Q 1578 3097 1268 2742 
Q 959 2388 959 1747 
Q 959 1106 1268 751 
Q 1578 397 2138 397 
Q 2388 397 2633 464 
Q 2878 531 3122 666 
L 3122 134 
Q 2881 22 2623 -34 
Q 2366 -91 2075 -91 
Q 1284 -91 818 406 
Q 353 903 353 1747 
Q 353 2603 823 3093 
Q 1294 3584 2113 3584 
Q 2378 3584 2631 3529 
Q 2884 3475 3122 3366 
z
" transform="scale(0.015625)"/>
       <path id="DejaVuSans-6e" d="M 3513 2113 
L 3513 0 
L 2938 0 
L 2938 2094 
Q 2938 2591 2744 2837 
Q 2550 3084 2163 3084 
Q 1697 3084 1428 2787 
Q 1159 2491 1159 1978 
L 1159 0 
L 581 0 
L 581 3500 
L 1159 3500 
L 1159 2956 
Q 1366 3272 1645 3428 
Q 1925 3584 2291 3584 
Q 2894 3584 3203 3211 
Q 3513 2838 3513 2113 
z
" transform="scale(0.015625)"/>
       <path id="DejaVuSans-47" d="M 3809 666 
L 3809 1919 
L 2778 1919 
L 2778 2438 
L 4434 2438 
L 4434 434 
Q 4069 175 3628 42 
Q 3188 -91 2688 -91 
Q 1594 -91 976 548 
Q 359 1188 359 2328 
Q 359 3472 976 4111 
Q 1594 4750 2688 4750 
Q 3144 4750 3555 4637 
Q 3966 4525 4313 4306 
L 4313 3634 
Q 3963 3931 3569 4081 
Q 3175 4231 2741 4231 
Q 1884 4231 1454 3753 
Q 1025 3275 1025 2328 
Q 1025 1384 1454 906 
Q 1884 428 2741 428 
Q 3075 428 3337 486 
Q 3600 544 3809 666 
z
" transform="scale(0.015625)"/>
       <path id="DejaVuSans-70" d="M 1159 525 
L 1159 -1331 
L 581 -1331 
L 581 3500 
L 1159 3500 
L 1159 2969 
Q 1341 3281 1617 3432 
Q 1894 3584 2278 3584 
Q 2916 3584 3314 3078 
Q 3713 2572 3713 1747 
Q 3713 922 3314 415 
Q 2916 -91 2278 -91 
Q 1894 -91 1617 61 
Q 1341 213 1159 525 
z
M 3116 1747 
Q 3116 2381 2855 2742 
Q 2594 3103 2138 3103 
Q 1681 3103 1420 2742 
Q 1159 2381 1159 1747 
Q 1159 1113 1420 752 
Q 1681 391 2138 391 
Q 2594 391 2855 752 
Q 3116 1113 3116 1747 
z
" transform="scale(0.015625)"/>
      </defs>
      <use xlink:href="#DejaVuSans-50"/>
      <use xlink:href="#DejaVuSans-65" x="56.677734"/>
      <use xlink:href="#DejaVuSans-72" x="118.201172"/>
      <use xlink:href="#DejaVuSans-63" x="157.064453"/>
      <use xlink:href="#DejaVuSans-65" x="212.044922"/>
      <use xlink:href="#DejaVuSans-6e" x="273.568359"/>
      <use xlink:href="#DejaVuSans-74" x="336.947266"/>
      <use xlink:href="#DejaVuSans-47" x="376.15625"/>
      <use xlink:href="#DejaVuSans-70" x="453.646484"/>
      <use xlink:href="#DejaVuSans-41" x="517.123047"/>
     </g>
    </g>
   </g>
   <g id="patch_3">
    <path d="M 103.75984 190.702734 
L 255.23991 190.702734 
L 255.23991 155.667758 
L 103.75984 155.667758 
L 103.75984 190.702734 
z
" clip-path="url(#p9428f9e53b)" style="fill: #ecf2ec; stroke: #262626; stroke-width: 1.5; stroke-linejoin: miter"/>
   </g>
   <g id="patch_4">
    <path d="M 258.33134 160.350977 
L 409.81141 160.350977 
L 409.81141 115.11024 
L 258.33134 115.11024 
L 258.33134 160.350977 
z
" clip-path="url(#p9428f9e53b)" style="fill: #107010; stroke: #262626; stroke-width: 1.5; stroke-linejoin: miter"/>
   </g>
   <g id="patch_5">
    <path d="M 256.785625 303.64 
L 256.785625 303.64 
L 256.785625 303.64 
L 256.785625 303.64 
z
" clip-path="url(#p9428f9e53b)" style="fill: #ecf2ec; stroke: #262626; stroke-width: 0.75; stroke-linejoin: miter"/>
   </g>
   <g id="patch_6">
    <path d="M 256.785625 303.64 
L 256.785625 303.64 
L 256.785625 303.64 
L 256.785625 303.64 
z
" clip-path="url(#p9428f9e53b)" style="fill: #107010; stroke: #262626; stroke-width: 0.75; stroke-linejoin: miter"/>
   </g>
   <g id="PathCollection_1"/>
   <g id="PathCollection_2"/>
   <g id="line2d_7">
    <path d="M 179.499875 190.702734 
L 179.499875 242.248593 
" clip-path="url(#p9428f9e53b)" style="fill: none; stroke: #262626; stroke-width: 1.5; stroke-linecap: round"/>
   </g>
   <g id="line2d_8">
    <path d="M 179.499875 155.667758 
L 179.499875 118.601739 
" clip-path="url(#p9428f9e53b)" style="fill: none; stroke: #262626; stroke-width: 1.5; stroke-linecap: round"/>
   </g>
   <g id="line2d_9">
    <path d="M 141.629857 242.248593 
L 217.369892 242.248593 
" clip-path="url(#p9428f9e53b)" style="fill: none; stroke: #262626; stroke-width: 1.5; stroke-linecap: round"/>
   </g>
   <g id="line2d_10">
    <path d="M 141.629857 118.601739 
L 217.369892 118.601739 
" clip-path="url(#p9428f9e53b)" style="fill: none; stroke: #262626; stroke-width: 1.5; stroke-linecap: round"/>
   </g>
   <g id="line2d_11">
    <defs>
     <path id="m057492c666" d="M -0 1.414214 
L 0.848528 0 
L 0 -1.414214 
L -0.848528 -0 
z
" style="stroke: #262626; stroke-linejoin: miter"/>
    </defs>
    <g clip-path="url(#p9428f9e53b)">
     <use xlink:href="#m057492c666" x="179.499875" y="272.069651" style="fill: #262626; stroke: #262626; stroke-linejoin: miter"/>
    </g>
   </g>
   <g id="line2d_12">
    <path d="M 334.071375 160.350977 
L 334.071375 212.302592 
" clip-path="url(#p9428f9e53b)" style="fill: none; stroke: #262626; stroke-width: 1.5; stroke-linecap: round"/>
   </g>
   <g id="line2d_13">
    <path d="M 334.071375 115.11024 
L 334.071375 57.119238 
" clip-path="url(#p9428f9e53b)" style="fill: none; stroke: #262626; stroke-width: 1.5; stroke-linecap: round"/>
   </g>
   <g id="line2d_14">
    <path d="M 296.201357 212.302592 
L 371.941393 212.302592 
" clip-path="url(#p9428f9e53b)" style="fill: none; stroke: #262626; stroke-width: 1.5; stroke-linecap: round"/>
   </g>
   <g id="line2d_15">
    <path d="M 296.201357 57.119238 
L 371.941393 57.119238 
" clip-path="url(#p9428f9e53b)" style="fill: none; stroke: #262626; stroke-width: 1.5; stroke-linecap: round"/>
   </g>
   <g id="line2d_16">
    <g clip-path="url(#p9428f9e53b)">
     <use xlink:href="#m057492c666" x="334.071375" y="37.421818" style="fill: #262626; stroke: #262626; stroke-linejoin: miter"/>
    </g>
   </g>
   <g id="line2d_17">
    <path d="M 103.75984 173.717069 
L 255.23991 173.717069 
" clip-path="url(#p9428f9e53b)" style="fill: none; stroke: #262626; stroke-width: 1.5; stroke-linecap: round"/>
   </g>
   <g id="line2d_18">
    <path d="M 258.33134 136.694783 
L 409.81141 136.694783 
" clip-path="url(#p9428f9e53b)" style="fill: none; stroke: #262626; stroke-width: 1.5; stroke-linecap: round"/>
   </g>
   <g id="patch_7">
    <path d="M 63.57125 303.64 
L 63.57125 10.8 
" style="fill: none; stroke: #cccccc; stroke-width: 0.8; stroke-linejoin: miter; stroke-linecap: square"/>
   </g>
   <g id="patch_8">
    <path d="M 450 303.64 
L 450 10.8 
" style="fill: none; stroke: #cccccc; stroke-width: 0.8; stroke-linejoin: miter; stroke-linecap: square"/>
   </g>
   <g id="patch_9">
    <path d="M 63.57125 303.64 
L 450 303.64 
" style="fill: none; stroke: #cccccc; stroke-width: 0.8; stroke-linejoin: miter; stroke-linecap: square"/>
   </g>
   <g id="patch_10">
    <path d="M 63.57125 10.8 
L 450 10.8 
" style="fill: none; stroke: #cccccc; stroke-width: 0.8; stroke-linejoin: miter; stroke-linecap: square"/>
   </g>
   <g id="PathCollection_3">
    <defs>
     <path id="C0_0_e028921a23" d="M 0 1 
C 0.265203 1 0.51958 0.894634 0.707107 0.707107 
C 0.894634 0.51958 1 0.265203 1 -0 
C 1 -0.265203 0.894634 -0.51958 0.707107 -0.707107 
C 0.51958 -0.894634 0.265203 -1 0 -1 
C -0.265203 -1 -0.51958 -0.894634 -0.707107 -0.707107 
C -0.894634 -0.51958 -1 -0.265203 -1 0 
C -1 0.265203 -0.894634 0.51958 -0.707107 0.707107 
C -0.51958 0.894634 -0.265203 1 0 1 
z
"/>
    </defs>
    <g clip-path="url(#p9428f9e53b)">
     <use xlink:href="#C0_0_e028921a23" x="184.652086" y="212.206429" style="fill: #262626"/>
    </g>
    <g clip-path="url(#p9428f9e53b)">
     <use xlink:href="#C0_0_e028921a23" x="165.711012" y="154.63496" style="fill: #262626"/>
    </g>
    <g clip-path="url(#p9428f9e53b)">
     <use xlink:href="#C0_0_e028921a23" x="169.771623" y="215.015212" style="fill: #262626"/>
    </g>
    <g clip-path="url(#p9428f9e53b)">
     <use xlink:href="#C0_0_e028921a23" x="164.519531" y="196.433062" style="fill: #262626"/>
    </g>
    <g clip-path="url(#p9428f9e53b)">
     <use xlink:href="#C0_0_e028921a23" x="181.218384" y="216.936823" style="fill: #262626"/>
    </g>
    <g clip-path="url(#p9428f9e53b)">
     <use xlink:href="#C0_0_e028921a23" x="197.604457" y="176.208906" style="fill: #262626"/>
    </g>
    <g clip-path="url(#p9428f9e53b)">
     <use xlink:href="#C0_0_e028921a23" x="171.991775" y="133.656316" style="fill: #262626"/>
    </g>
    <g clip-path="url(#p9428f9e53b)">
     <use xlink:href="#C0_0_e028921a23" x="176.891363" y="154.185597" style="fill: #262626"/>
    </g>
    <g clip-path="url(#p9428f9e53b)">
     <use xlink:href="#C0_0_e028921a23" x="186.155571" y="173.35581" style="fill: #262626"/>
    </g>
    <g clip-path="url(#p9428f9e53b)">
     <use xlink:href="#C0_0_e028921a23" x="162.449452" y="165.870788" style="fill: #262626"/>
    </g>
    <g clip-path="url(#p9428f9e53b)">
     <use xlink:href="#C0_0_e028921a23" x="168.500172" y="165.051201" style="fill: #262626"/>
    </g>
    <g clip-path="url(#p9428f9e53b)">
     <use xlink:href="#C0_0_e028921a23" x="198.773129" y="163.273873" style="fill: #262626"/>
    </g>
    <g clip-path="url(#p9428f9e53b)">
     <use xlink:href="#C0_0_e028921a23" x="191.222917" y="242.248593" style="fill: #262626"/>
    </g>
    <g clip-path="url(#p9428f9e53b)">
     <use xlink:href="#C0_0_e028921a23" x="191.544158" y="149.163803" style="fill: #262626"/>
    </g>
    <g clip-path="url(#p9428f9e53b)">
     <use xlink:href="#C0_0_e028921a23" x="170.646466" y="180.823555" style="fill: #262626"/>
    </g>
    <g clip-path="url(#p9428f9e53b)">
     <use xlink:href="#C0_0_e028921a23" x="165.109099" y="187.817605" style="fill: #262626"/>
    </g>
    <g clip-path="url(#p9428f9e53b)">
     <use xlink:href="#C0_0_e028921a23" x="165.164159" y="189.899569" style="fill: #262626"/>
    </g>
    <g clip-path="url(#p9428f9e53b)">
     <use xlink:href="#C0_0_e028921a23" x="168.036883" y="155.933535" style="fill: #262626"/>
    </g>
    <g clip-path="url(#p9428f9e53b)">
     <use xlink:href="#C0_0_e028921a23" x="188.17515" y="178.62703" style="fill: #262626"/>
    </g>
    <g clip-path="url(#p9428f9e53b)">
     <use xlink:href="#C0_0_e028921a23" x="178.350019" y="170.055988" style="fill: #262626"/>
    </g>
    <g clip-path="url(#p9428f9e53b)">
     <use xlink:href="#C0_0_e028921a23" x="187.683241" y="163.045736" style="fill: #262626"/>
    </g>
    <g clip-path="url(#p9428f9e53b)">
     <use xlink:href="#C0_0_e028921a23" x="171.242885" y="205.871747" style="fill: #262626"/>
    </g>
    <g clip-path="url(#p9428f9e53b)">
     <use xlink:href="#C0_0_e028921a23" x="172.422811" y="142.215987" style="fill: #262626"/>
    </g>
    <g clip-path="url(#p9428f9e53b)">
     <use xlink:href="#C0_0_e028921a23" x="197.475453" y="141.652585" style="fill: #262626"/>
    </g>
    <g clip-path="url(#p9428f9e53b)">
     <use xlink:href="#C0_0_e028921a23" x="167.473948" y="161.806356" style="fill: #262626"/>
    </g>
    <g clip-path="url(#p9428f9e53b)">
     <use xlink:href="#C0_0_e028921a23" x="166.351555" y="178.570191" style="fill: #262626"/>
    </g>
    <g clip-path="url(#p9428f9e53b)">
     <use xlink:href="#C0_0_e028921a23" x="183.0759" y="202.417398" style="fill: #262626"/>
    </g>
    <g clip-path="url(#p9428f9e53b)">
     <use xlink:href="#C0_0_e028921a23" x="192.620601" y="173.983102" style="fill: #262626"/>
    </g>
    <g clip-path="url(#p9428f9e53b)">
     <use xlink:href="#C0_0_e028921a23" x="171.902381" y="135.264928" style="fill: #262626"/>
    </g>
    <g clip-path="url(#p9428f9e53b)">
     <use xlink:href="#C0_0_e028921a23" x="184.480468" y="190.37507" style="fill: #262626"/>
    </g>
    <g clip-path="url(#p9428f9e53b)">
     <use xlink:href="#C0_0_e028921a23" x="163.618171" y="201.337078" style="fill: #262626"/>
    </g>
    <g clip-path="url(#p9428f9e53b)">
     <use xlink:href="#C0_0_e028921a23" x="180.751633" y="159.759161" style="fill: #262626"/>
    </g>
    <g clip-path="url(#p9428f9e53b)">
     <use xlink:href="#C0_0_e028921a23" x="189.726535" y="191.736912" style="fill: #262626"/>
    </g>
    <g clip-path="url(#p9428f9e53b)">
     <use xlink:href="#C0_0_e028921a23" x="180.573697" y="149.750539" style="fill: #262626"/>
    </g>
    <g clip-path="url(#p9428f9e53b)">
     <use xlink:href="#C0_0_e028921a23" x="164.220898" y="142.680909" style="fill: #262626"/>
    </g>
    <g clip-path="url(#p9428f9e53b)">
     <use xlink:href="#C0_0_e028921a23" x="176.446445" y="196.3444" style="fill: #262626"/>
    </g>
    <g clip-path="url(#p9428f9e53b)">
     <use xlink:href="#C0_0_e028921a23" x="164.942136" y="211.60585" style="fill: #262626"/>
    </g>
    <g clip-path="url(#p9428f9e53b)">
     <use xlink:href="#C0_0_e028921a23" x="177.079359" y="189.561311" style="fill: #262626"/>
    </g>
    <g clip-path="url(#p9428f9e53b)">
     <use xlink:href="#C0_0_e028921a23" x="190.47923" y="186.068014" style="fill: #262626"/>
    </g>
    <g clip-path="url(#p9428f9e53b)">
     <use xlink:href="#C0_0_e028921a23" x="166.053174" y="181.189777" style="fill: #262626"/>
    </g>
    <g clip-path="url(#p9428f9e53b)">
     <use xlink:href="#C0_0_e028921a23" x="160.183655" y="190.593633" style="fill: #262626"/>
    </g>
    <g clip-path="url(#p9428f9e53b)">
     <use xlink:href="#C0_0_e028921a23" x="198.305129" y="159.32369" style="fill: #262626"/>
    </g>
    <g clip-path="url(#p9428f9e53b)">
     <use xlink:href="#C0_0_e028921a23" x="195.904699" y="272.069651" style="fill: #262626"/>
    </g>
    <g clip-path="url(#p9428f9e53b)">
     <use xlink:href="#C0_0_e028921a23" x="193.568201" y="187.351157" style="fill: #262626"/>
    </g>
    <g clip-path="url(#p9428f9e53b)">
     <use xlink:href="#C0_0_e028921a23" x="166.395664" y="210.340875" style="fill: #262626"/>
    </g>
    <g clip-path="url(#p9428f9e53b)">
     <use xlink:href="#C0_0_e028921a23" x="165.035203" y="163.016155" style="fill: #262626"/>
    </g>
    <g clip-path="url(#p9428f9e53b)">
     <use xlink:href="#C0_0_e028921a23" x="176.23192" y="187.752527" style="fill: #262626"/>
    </g>
    <g clip-path="url(#p9428f9e53b)">
     <use xlink:href="#C0_0_e028921a23" x="184.990511" y="191.030038" style="fill: #262626"/>
    </g>
    <g clip-path="url(#p9428f9e53b)">
     <use xlink:href="#C0_0_e028921a23" x="174.336693" y="149.021898" style="fill: #262626"/>
    </g>
    <g clip-path="url(#p9428f9e53b)">
     <use xlink:href="#C0_0_e028921a23" x="170.402952" y="136.930764" style="fill: #262626"/>
    </g>
    <g clip-path="url(#p9428f9e53b)">
     <use xlink:href="#C0_0_e028921a23" x="182.166958" y="146.881345" style="fill: #262626"/>
    </g>
    <g clip-path="url(#p9428f9e53b)">
     <use xlink:href="#C0_0_e028921a23" x="166.123242" y="190.43924" style="fill: #262626"/>
    </g>
    <g clip-path="url(#p9428f9e53b)">
     <use xlink:href="#C0_0_e028921a23" x="192.257873" y="221.161224" style="fill: #262626"/>
    </g>
    <g clip-path="url(#p9428f9e53b)">
     <use xlink:href="#C0_0_e028921a23" x="163.100247" y="173.836918" style="fill: #262626"/>
    </g>
    <g clip-path="url(#p9428f9e53b)">
     <use xlink:href="#C0_0_e028921a23" x="164.304696" y="181.974252" style="fill: #262626"/>
    </g>
    <g clip-path="url(#p9428f9e53b)">
     <use xlink:href="#C0_0_e028921a23" x="177.083791" y="124.838949" style="fill: #262626"/>
    </g>
    <g clip-path="url(#p9428f9e53b)">
     <use xlink:href="#C0_0_e028921a23" x="160.651357" y="195.42232" style="fill: #262626"/>
    </g>
    <g clip-path="url(#p9428f9e53b)">
     <use xlink:href="#C0_0_e028921a23" x="183.104178" y="166.82737" style="fill: #262626"/>
    </g>
    <g clip-path="url(#p9428f9e53b)">
     <use xlink:href="#C0_0_e028921a23" x="162.265836" y="171.710859" style="fill: #262626"/>
    </g>
    <g clip-path="url(#p9428f9e53b)">
     <use xlink:href="#C0_0_e028921a23" x="186.338261" y="198.342353" style="fill: #262626"/>
    </g>
    <g clip-path="url(#p9428f9e53b)">
     <use xlink:href="#C0_0_e028921a23" x="179.821509" y="168.709102" style="fill: #262626"/>
    </g>
    <g clip-path="url(#p9428f9e53b)">
     <use xlink:href="#C0_0_e028921a23" x="170.034569" y="198.103175" style="fill: #262626"/>
    </g>
    <g clip-path="url(#p9428f9e53b)">
     <use xlink:href="#C0_0_e028921a23" x="171.04457" y="180.70096" style="fill: #262626"/>
    </g>
    <g clip-path="url(#p9428f9e53b)">
     <use xlink:href="#C0_0_e028921a23" x="185.776266" y="181.40281" style="fill: #262626"/>
    </g>
    <g clip-path="url(#p9428f9e53b)">
     <use xlink:href="#C0_0_e028921a23" x="179.726634" y="160.15863" style="fill: #262626"/>
    </g>
    <g clip-path="url(#p9428f9e53b)">
     <use xlink:href="#C0_0_e028921a23" x="188.538514" y="177.782545" style="fill: #262626"/>
    </g>
    <g clip-path="url(#p9428f9e53b)">
     <use xlink:href="#C0_0_e028921a23" x="198.098423" y="159.067936" style="fill: #262626"/>
    </g>
    <g clip-path="url(#p9428f9e53b)">
     <use xlink:href="#C0_0_e028921a23" x="179.073519" y="223.333247" style="fill: #262626"/>
    </g>
    <g clip-path="url(#p9428f9e53b)">
     <use xlink:href="#C0_0_e028921a23" x="186.914202" y="172.322476" style="fill: #262626"/>
    </g>
    <g clip-path="url(#p9428f9e53b)">
     <use xlink:href="#C0_0_e028921a23" x="187.52551" y="208.844555" style="fill: #262626"/>
    </g>
    <g clip-path="url(#p9428f9e53b)">
     <use xlink:href="#C0_0_e028921a23" x="191.265084" y="131.230193" style="fill: #262626"/>
    </g>
    <g clip-path="url(#p9428f9e53b)">
     <use xlink:href="#C0_0_e028921a23" x="161.940539" y="144.449535" style="fill: #262626"/>
    </g>
    <g clip-path="url(#p9428f9e53b)">
     <use xlink:href="#C0_0_e028921a23" x="161.769426" y="142.892301" style="fill: #262626"/>
    </g>
    <g clip-path="url(#p9428f9e53b)">
     <use xlink:href="#C0_0_e028921a23" x="179.967346" y="156.083356" style="fill: #262626"/>
    </g>
    <g clip-path="url(#p9428f9e53b)">
     <use xlink:href="#C0_0_e028921a23" x="177.884828" y="159.270534" style="fill: #262626"/>
    </g>
    <g clip-path="url(#p9428f9e53b)">
     <use xlink:href="#C0_0_e028921a23" x="180.070629" y="133.318527" style="fill: #262626"/>
    </g>
    <g clip-path="url(#p9428f9e53b)">
     <use xlink:href="#C0_0_e028921a23" x="173.329284" y="157.759795" style="fill: #262626"/>
    </g>
    <g clip-path="url(#p9428f9e53b)">
     <use xlink:href="#C0_0_e028921a23" x="160.474289" y="165.178451" style="fill: #262626"/>
    </g>
    <g clip-path="url(#p9428f9e53b)">
     <use xlink:href="#C0_0_e028921a23" x="191.039005" y="201.841645" style="fill: #262626"/>
    </g>
    <g clip-path="url(#p9428f9e53b)">
     <use xlink:href="#C0_0_e028921a23" x="166.100215" y="226.64869" style="fill: #262626"/>
    </g>
    <g clip-path="url(#p9428f9e53b)">
     <use xlink:href="#C0_0_e028921a23" x="179.310319" y="135.964288" style="fill: #262626"/>
    </g>
    <g clip-path="url(#p9428f9e53b)">
     <use xlink:href="#C0_0_e028921a23" x="168.688491" y="213.989599" style="fill: #262626"/>
    </g>
    <g clip-path="url(#p9428f9e53b)">
     <use xlink:href="#C0_0_e028921a23" x="174.893081" y="152.966181" style="fill: #262626"/>
    </g>
    <g clip-path="url(#p9428f9e53b)">
     <use xlink:href="#C0_0_e028921a23" x="161.162654" y="118.601739" style="fill: #262626"/>
    </g>
    <g clip-path="url(#p9428f9e53b)">
     <use xlink:href="#C0_0_e028921a23" x="168.427777" y="159.725585" style="fill: #262626"/>
    </g>
    <g clip-path="url(#p9428f9e53b)">
     <use xlink:href="#C0_0_e028921a23" x="166.918594" y="168.506212" style="fill: #262626"/>
    </g>
    <g clip-path="url(#p9428f9e53b)">
     <use xlink:href="#C0_0_e028921a23" x="176.264079" y="157.636503" style="fill: #262626"/>
    </g>
    <g clip-path="url(#p9428f9e53b)">
     <use xlink:href="#C0_0_e028921a23" x="164.357427" y="154.044236" style="fill: #262626"/>
    </g>
    <g clip-path="url(#p9428f9e53b)">
     <use xlink:href="#C0_0_e028921a23" x="198.494985" y="220.321495" style="fill: #262626"/>
    </g>
    <g clip-path="url(#p9428f9e53b)">
     <use xlink:href="#C0_0_e028921a23" x="161.952887" y="176.163631" style="fill: #262626"/>
    </g>
    <g clip-path="url(#p9428f9e53b)">
     <use xlink:href="#C0_0_e028921a23" x="198.273032" y="203.769086" style="fill: #262626"/>
    </g>
    <g clip-path="url(#p9428f9e53b)">
     <use xlink:href="#C0_0_e028921a23" x="164.824858" y="184.294984" style="fill: #262626"/>
    </g>
    <g clip-path="url(#p9428f9e53b)">
     <use xlink:href="#C0_0_e028921a23" x="172.816208" y="189.062124" style="fill: #262626"/>
    </g>
    <g clip-path="url(#p9428f9e53b)">
     <use xlink:href="#C0_0_e028921a23" x="168.173761" y="137.237169" style="fill: #262626"/>
    </g>
    <g clip-path="url(#p9428f9e53b)">
     <use xlink:href="#C0_0_e028921a23" x="171.259505" y="197.484793" style="fill: #262626"/>
    </g>
    <g clip-path="url(#p9428f9e53b)">
     <use xlink:href="#C0_0_e028921a23" x="172.240087" y="192.133224" style="fill: #262626"/>
    </g>
    <g clip-path="url(#p9428f9e53b)">
     <use xlink:href="#C0_0_e028921a23" x="190.755434" y="122.833627" style="fill: #262626"/>
    </g>
    <g clip-path="url(#p9428f9e53b)">
     <use xlink:href="#C0_0_e028921a23" x="195.146579" y="176.983275" style="fill: #262626"/>
    </g>
    <g clip-path="url(#p9428f9e53b)">
     <use xlink:href="#C0_0_e028921a23" x="170.225959" y="182.505339" style="fill: #262626"/>
    </g>
    <g clip-path="url(#p9428f9e53b)">
     <use xlink:href="#C0_0_e028921a23" x="172.753504" y="157.253196" style="fill: #262626"/>
    </g>
    <g clip-path="url(#p9428f9e53b)">
     <use xlink:href="#C0_0_e028921a23" x="167.654332" y="188.424716" style="fill: #262626"/>
    </g>
    <g clip-path="url(#p9428f9e53b)">
     <use xlink:href="#C0_0_e028921a23" x="160.799012" y="135.584248" style="fill: #262626"/>
    </g>
    <g clip-path="url(#p9428f9e53b)">
     <use xlink:href="#C0_0_e028921a23" x="181.937059" y="175.427946" style="fill: #262626"/>
    </g>
    <g clip-path="url(#p9428f9e53b)">
     <use xlink:href="#C0_0_e028921a23" x="173.145774" y="168.188635" style="fill: #262626"/>
    </g>
    <g clip-path="url(#p9428f9e53b)">
     <use xlink:href="#C0_0_e028921a23" x="176.795274" y="173.59722" style="fill: #262626"/>
    </g>
    <g clip-path="url(#p9428f9e53b)">
     <use xlink:href="#C0_0_e028921a23" x="170.437878" y="154.870426" style="fill: #262626"/>
    </g>
    <g clip-path="url(#p9428f9e53b)">
     <use xlink:href="#C0_0_e028921a23" x="187.088354" y="136.929675" style="fill: #262626"/>
    </g>
    <g clip-path="url(#p9428f9e53b)">
     <use xlink:href="#C0_0_e028921a23" x="162.011173" y="135.33011" style="fill: #262626"/>
    </g>
   </g>
   <g id="PathCollection_4">
    <defs>
     <path id="C1_0_a965e1b149" d="M 0 1 
C 0.265203 1 0.51958 0.894634 0.707107 0.707107 
C 0.894634 0.51958 1 0.265203 1 -0 
C 1 -0.265203 0.894634 -0.51958 0.707107 -0.707107 
C 0.51958 -0.894634 0.265203 -1 0 -1 
C -0.265203 -1 -0.51958 -0.894634 -0.707107 -0.707107 
C -0.894634 -0.51958 -1 -0.265203 -1 0 
C -1 0.265203 -0.894634 0.51958 -0.707107 0.707107 
C -0.51958 0.894634 -0.265203 1 0 1 
z
"/>
    </defs>
    <g clip-path="url(#p9428f9e53b)">
     <use xlink:href="#C1_0_a965e1b149" x="326.704353" y="116.538954"/>
    </g>
    <g clip-path="url(#p9428f9e53b)">
     <use xlink:href="#C1_0_a965e1b149" x="337.401488" y="109.906732"/>
    </g>
    <g clip-path="url(#p9428f9e53b)">
     <use xlink:href="#C1_0_a965e1b149" x="351.456419" y="115.25571"/>
    </g>
    <g clip-path="url(#p9428f9e53b)">
     <use xlink:href="#C1_0_a965e1b149" x="328.460795" y="37.421818"/>
    </g>
    <g clip-path="url(#p9428f9e53b)">
     <use xlink:href="#C1_0_a965e1b149" x="350.16538" y="163.453737"/>
    </g>
    <g clip-path="url(#p9428f9e53b)">
     <use xlink:href="#C1_0_a965e1b149" x="351.347881" y="160.268904"/>
    </g>
    <g clip-path="url(#p9428f9e53b)">
     <use xlink:href="#C1_0_a965e1b149" x="315.632161" y="186.831885"/>
    </g>
    <g clip-path="url(#p9428f9e53b)">
     <use xlink:href="#C1_0_a965e1b149" x="326.072168" y="93.195376"/>
    </g>
    <g clip-path="url(#p9428f9e53b)">
     <use xlink:href="#C1_0_a965e1b149" x="341.083826" y="96.092358"/>
    </g>
    <g clip-path="url(#p9428f9e53b)">
     <use xlink:href="#C1_0_a965e1b149" x="322.484859" y="121.274819"/>
    </g>
    <g clip-path="url(#p9428f9e53b)">
     <use xlink:href="#C1_0_a965e1b149" x="326.020517" y="69.786976"/>
    </g>
    <g clip-path="url(#p9428f9e53b)">
     <use xlink:href="#C1_0_a965e1b149" x="345.643387" y="111.945"/>
    </g>
    <g clip-path="url(#p9428f9e53b)">
     <use xlink:href="#C1_0_a965e1b149" x="325.389862" y="122.970479"/>
    </g>
    <g clip-path="url(#p9428f9e53b)">
     <use xlink:href="#C1_0_a965e1b149" x="342.403565" y="114.556759"/>
    </g>
    <g clip-path="url(#p9428f9e53b)">
     <use xlink:href="#C1_0_a965e1b149" x="329.326322" y="136.543283"/>
    </g>
    <g clip-path="url(#p9428f9e53b)">
     <use xlink:href="#C1_0_a965e1b149" x="329.547652" y="122.727468"/>
    </g>
    <g clip-path="url(#p9428f9e53b)">
     <use xlink:href="#C1_0_a965e1b149" x="352.576797" y="130.042792"/>
    </g>
    <g clip-path="url(#p9428f9e53b)">
     <use xlink:href="#C1_0_a965e1b149" x="338.32941" y="135.515473"/>
    </g>
    <g clip-path="url(#p9428f9e53b)">
     <use xlink:href="#C1_0_a965e1b149" x="317.358717" y="93.06591"/>
    </g>
    <g clip-path="url(#p9428f9e53b)">
     <use xlink:href="#C1_0_a965e1b149" x="333.190166" y="136.558744"/>
    </g>
    <g clip-path="url(#p9428f9e53b)">
     <use xlink:href="#C1_0_a965e1b149" x="319.842991" y="144.359358"/>
    </g>
    <g clip-path="url(#p9428f9e53b)">
     <use xlink:href="#C1_0_a965e1b149" x="346.288779" y="94.132757"/>
    </g>
    <g clip-path="url(#p9428f9e53b)">
     <use xlink:href="#C1_0_a965e1b149" x="351.685392" y="176.596877"/>
    </g>
    <g clip-path="url(#p9428f9e53b)">
     <use xlink:href="#C1_0_a965e1b149" x="323.024586" y="142.969899"/>
    </g>
    <g clip-path="url(#p9428f9e53b)">
     <use xlink:href="#C1_0_a965e1b149" x="321.273838" y="201.680129"/>
    </g>
    <g clip-path="url(#p9428f9e53b)">
     <use xlink:href="#C1_0_a965e1b149" x="347.734689" y="156.114604"/>
    </g>
    <g clip-path="url(#p9428f9e53b)">
     <use xlink:href="#C1_0_a965e1b149" x="346.113098" y="120.157484"/>
    </g>
    <g clip-path="url(#p9428f9e53b)">
     <use xlink:href="#C1_0_a965e1b149" x="334.585504" y="109.127794"/>
    </g>
    <g clip-path="url(#p9428f9e53b)">
     <use xlink:href="#C1_0_a965e1b149" x="326.152413" y="143.590399"/>
    </g>
    <g clip-path="url(#p9428f9e53b)">
     <use xlink:href="#C1_0_a965e1b149" x="339.578118" y="161.415781"/>
    </g>
    <g clip-path="url(#p9428f9e53b)">
     <use xlink:href="#C1_0_a965e1b149" x="352.127414" y="159.175566"/>
    </g>
    <g clip-path="url(#p9428f9e53b)">
     <use xlink:href="#C1_0_a965e1b149" x="352.712097" y="136.830821"/>
    </g>
    <g clip-path="url(#p9428f9e53b)">
     <use xlink:href="#C1_0_a965e1b149" x="329.129476" y="155.96533"/>
    </g>
    <g clip-path="url(#p9428f9e53b)">
     <use xlink:href="#C1_0_a965e1b149" x="353.073221" y="189.196342"/>
    </g>
    <g clip-path="url(#p9428f9e53b)">
     <use xlink:href="#C1_0_a965e1b149" x="336.637812" y="127.617097"/>
    </g>
    <g clip-path="url(#p9428f9e53b)">
     <use xlink:href="#C1_0_a965e1b149" x="340.730273" y="174.822114"/>
    </g>
    <g clip-path="url(#p9428f9e53b)">
     <use xlink:href="#C1_0_a965e1b149" x="315.474107" y="96.931423"/>
    </g>
    <g clip-path="url(#p9428f9e53b)">
     <use xlink:href="#C1_0_a965e1b149" x="318.677458" y="146.70009"/>
    </g>
    <g clip-path="url(#p9428f9e53b)">
     <use xlink:href="#C1_0_a965e1b149" x="350.194406" y="152.165147"/>
    </g>
    <g clip-path="url(#p9428f9e53b)">
     <use xlink:href="#C1_0_a965e1b149" x="319.006074" y="114.67383"/>
    </g>
    <g clip-path="url(#p9428f9e53b)">
     <use xlink:href="#C1_0_a965e1b149" x="346.80802" y="128.64795"/>
    </g>
    <g clip-path="url(#p9428f9e53b)">
     <use xlink:href="#C1_0_a965e1b149" x="335.136462" y="132.188453"/>
    </g>
    <g clip-path="url(#p9428f9e53b)">
     <use xlink:href="#C1_0_a965e1b149" x="347.156204" y="170.477568"/>
    </g>
    <g clip-path="url(#p9428f9e53b)">
     <use xlink:href="#C1_0_a965e1b149" x="329.695271" y="177.827088"/>
    </g>
    <g clip-path="url(#p9428f9e53b)">
     <use xlink:href="#C1_0_a965e1b149" x="321.923065" y="57.119238"/>
    </g>
    <g clip-path="url(#p9428f9e53b)">
     <use xlink:href="#C1_0_a965e1b149" x="351.536891" y="182.726773"/>
    </g>
    <g clip-path="url(#p9428f9e53b)">
     <use xlink:href="#C1_0_a965e1b149" x="327.26642" y="76.733327"/>
    </g>
    <g clip-path="url(#p9428f9e53b)">
     <use xlink:href="#C1_0_a965e1b149" x="338.77262" y="130.380443"/>
    </g>
    <g clip-path="url(#p9428f9e53b)">
     <use xlink:href="#C1_0_a965e1b149" x="346.32924" y="202.966867"/>
    </g>
    <g clip-path="url(#p9428f9e53b)">
     <use xlink:href="#C1_0_a965e1b149" x="337.909411" y="161.911935"/>
    </g>
    <g clip-path="url(#p9428f9e53b)">
     <use xlink:href="#C1_0_a965e1b149" x="347.020183" y="131.853321"/>
    </g>
    <g clip-path="url(#p9428f9e53b)">
     <use xlink:href="#C1_0_a965e1b149" x="342.203615" y="145.09954"/>
    </g>
    <g clip-path="url(#p9428f9e53b)">
     <use xlink:href="#C1_0_a965e1b149" x="334.373205" y="143.025881"/>
    </g>
    <g clip-path="url(#p9428f9e53b)">
     <use xlink:href="#C1_0_a965e1b149" x="338.406898" y="105.56498"/>
    </g>
    <g clip-path="url(#p9428f9e53b)">
     <use xlink:href="#C1_0_a965e1b149" x="348.090081" y="151.7196"/>
    </g>
    <g clip-path="url(#p9428f9e53b)">
     <use xlink:href="#C1_0_a965e1b149" x="344.586364" y="162.84487"/>
    </g>
    <g clip-path="url(#p9428f9e53b)">
     <use xlink:href="#C1_0_a965e1b149" x="327.258264" y="119.244338"/>
    </g>
    <g clip-path="url(#p9428f9e53b)">
     <use xlink:href="#C1_0_a965e1b149" x="325.82092" y="156.622033"/>
    </g>
    <g clip-path="url(#p9428f9e53b)">
     <use xlink:href="#C1_0_a965e1b149" x="346.945958" y="154.702847"/>
    </g>
    <g clip-path="url(#p9428f9e53b)">
     <use xlink:href="#C1_0_a965e1b149" x="349.055451" y="62.154086"/>
    </g>
    <g clip-path="url(#p9428f9e53b)">
     <use xlink:href="#C1_0_a965e1b149" x="351.819949" y="152.494352"/>
    </g>
    <g clip-path="url(#p9428f9e53b)">
     <use xlink:href="#C1_0_a965e1b149" x="339.94682" y="160.597195"/>
    </g>
    <g clip-path="url(#p9428f9e53b)">
     <use xlink:href="#C1_0_a965e1b149" x="319.146586" y="212.302592"/>
    </g>
    <g clip-path="url(#p9428f9e53b)">
     <use xlink:href="#C1_0_a965e1b149" x="334.614082" y="172.584611"/>
    </g>
   </g>
   <g id="text_10">
    <!-- 108 -->
    <g style="fill: #262626" transform="translate(198.821312 -570.237197)scale(0.1 -0.1)">
     <defs>
      <path id="DejaVuSans-38" d="M 2034 2216 
Q 1584 2216 1326 1975 
Q 1069 1734 1069 1313 
Q 1069 891 1326 650 
Q 1584 409 2034 409 
Q 2484 409 2743 651 
Q 3003 894 3003 1313 
Q 3003 1734 2745 1975 
Q 2488 2216 2034 2216 
z
M 1403 2484 
Q 997 2584 770 2862 
Q 544 3141 544 3541 
Q 544 4100 942 4425 
Q 1341 4750 2034 4750 
Q 2731 4750 3128 4425 
Q 3525 4100 3525 3541 
Q 3525 3141 3298 2862 
Q 3072 2584 2669 2484 
Q 3125 2378 3379 2068 
Q 3634 1759 3634 1313 
Q 3634 634 3220 271 
Q 2806 -91 2034 -91 
Q 1263 -91 848 271 
Q 434 634 434 1313 
Q 434 1759 690 2068 
Q 947 2378 1403 2484 
z
M 1172 3481 
Q 1172 3119 1398 2916 
Q 1625 2713 2034 2713 
Q 2441 2713 2670 2916 
Q 2900 3119 2900 3481 
Q 2900 3844 2670 4047 
Q 2441 4250 2034 4250 
Q 1625 4250 1398 4047 
Q 1172 3844 1172 3481 
z
" transform="scale(0.015625)"/>
     </defs>
     <use xlink:href="#DejaVuSans-31"/>
     <use xlink:href="#DejaVuSans-30" x="63.623047"/>
     <use xlink:href="#DejaVuSans-38" x="127.246094"/>
    </g>
   </g>
   <g id="text_11">
    <!-- p=7.293256686617778e-13 -->
    <g style="fill: #262626" transform="translate(141.944437 92.120611)scale(0.08 -0.08)">
     <defs>
      <path id="DejaVuSans-3d" d="M 678 2906 
L 4684 2906 
L 4684 2381 
L 678 2381 
L 678 2906 
z
M 678 1631 
L 4684 1631 
L 4684 1100 
L 678 1100 
L 678 1631 
z
" transform="scale(0.015625)"/>
      <path id="DejaVuSans-37" d="M 525 4666 
L 3525 4666 
L 3525 4397 
L 1831 0 
L 1172 0 
L 2766 4134 
L 525 4134 
L 525 4666 
z
" transform="scale(0.015625)"/>
      <path id="DejaVuSans-39" d="M 703 97 
L 703 672 
Q 941 559 1184 500 
Q 1428 441 1663 441 
Q 2288 441 2617 861 
Q 2947 1281 2994 2138 
Q 2813 1869 2534 1725 
Q 2256 1581 1919 1581 
Q 1219 1581 811 2004 
Q 403 2428 403 3163 
Q 403 3881 828 4315 
Q 1253 4750 1959 4750 
Q 2769 4750 3195 4129 
Q 3622 3509 3622 2328 
Q 3622 1225 3098 567 
Q 2575 -91 1691 -91 
Q 1453 -91 1209 -44 
Q 966 3 703 97 
z
M 1959 2075 
Q 2384 2075 2632 2365 
Q 2881 2656 2881 3163 
Q 2881 3666 2632 3958 
Q 2384 4250 1959 4250 
Q 1534 4250 1286 3958 
Q 1038 3666 1038 3163 
Q 1038 2656 1286 2365 
Q 1534 2075 1959 2075 
z
" transform="scale(0.015625)"/>
      <path id="DejaVuSans-36" d="M 2113 2584 
Q 1688 2584 1439 2293 
Q 1191 2003 1191 1497 
Q 1191 994 1439 701 
Q 1688 409 2113 409 
Q 2538 409 2786 701 
Q 3034 994 3034 1497 
Q 3034 2003 2786 2293 
Q 2538 2584 2113 2584 
z
M 3366 4563 
L 3366 3988 
Q 3128 4100 2886 4159 
Q 2644 4219 2406 4219 
Q 1781 4219 1451 3797 
Q 1122 3375 1075 2522 
Q 1259 2794 1537 2939 
Q 1816 3084 2150 3084 
Q 2853 3084 3261 2657 
Q 3669 2231 3669 1497 
Q 3669 778 3244 343 
Q 2819 -91 2113 -91 
Q 1303 -91 875 529 
Q 447 1150 447 2328 
Q 447 3434 972 4092 
Q 1497 4750 2381 4750 
Q 2619 4750 2861 4703 
Q 3103 4656 3366 4563 
z
" transform="scale(0.015625)"/>
      <path id="DejaVuSans-2d" d="M 313 2009 
L 1997 2009 
L 1997 1497 
L 313 1497 
L 313 2009 
z
" transform="scale(0.015625)"/>
     </defs>
     <use xlink:href="#DejaVuSans-70"/>
     <use xlink:href="#DejaVuSans-3d" x="63.476562"/>
     <use xlink:href="#DejaVuSans-37" x="147.265625"/>
     <use xlink:href="#DejaVuSans-2e" x="210.888672"/>
     <use xlink:href="#DejaVuSans-32" x="242.675781"/>
     <use xlink:href="#DejaVuSans-39" x="306.298828"/>
     <use xlink:href="#DejaVuSans-33" x="369.921875"/>
     <use xlink:href="#DejaVuSans-32" x="433.544922"/>
     <use xlink:href="#DejaVuSans-35" x="497.167969"/>
     <use xlink:href="#DejaVuSans-36" x="560.791016"/>
     <use xlink:href="#DejaVuSans-36" x="624.414062"/>
     <use xlink:href="#DejaVuSans-38" x="688.037109"/>
     <use xlink:href="#DejaVuSans-36" x="751.660156"/>
     <use xlink:href="#DejaVuSans-36" x="815.283203"/>
     <use xlink:href="#DejaVuSans-31" x="878.90625"/>
     <use xlink:href="#DejaVuSans-37" x="942.529297"/>
     <use xlink:href="#DejaVuSans-37" x="1006.152344"/>
     <use xlink:href="#DejaVuSans-37" x="1069.775391"/>
     <use xlink:href="#DejaVuSans-38" x="1133.398438"/>
     <use xlink:href="#DejaVuSans-65" x="1197.021484"/>
     <use xlink:href="#DejaVuSans-2d" x="1258.544922"/>
     <use xlink:href="#DejaVuSans-31" x="1294.628906"/>
     <use xlink:href="#DejaVuSans-33" x="1358.251953"/>
    </g>
   </g>
   <g id="text_12">
    <!-- 64 -->
    <g style="fill: #262626" transform="translate(314.749937 -570.237197)scale(0.1 -0.1)">
     <use xlink:href="#DejaVuSans-36"/>
     <use xlink:href="#DejaVuSans-34" x="63.623047"/>
    </g>
   </g>
   <g id="legend_1">
    <g id="patch_11">
     <path d="M 377.728125 27.398438 
L 397.728125 27.398438 
L 397.728125 20.398438 
L 377.728125 20.398438 
z
" style="fill: #ecf2ec; stroke: #262626; stroke-width: 0.75; stroke-linejoin: miter"/>
    </g>
    <g id="text_13">
     <!-- Mutant -->
     <g style="fill: #262626" transform="translate(405.728125 27.398438)scale(0.1 -0.1)">
      <defs>
       <path id="DejaVuSans-4d" d="M 628 4666 
L 1569 4666 
L 2759 1491 
L 3956 4666 
L 4897 4666 
L 4897 0 
L 4281 0 
L 4281 4097 
L 3078 897 
L 2444 897 
L 1241 4097 
L 1241 0 
L 628 0 
L 628 4666 
z
" transform="scale(0.015625)"/>
       <path id="DejaVuSans-61" d="M 2194 1759 
Q 1497 1759 1228 1600 
Q 959 1441 959 1056 
Q 959 750 1161 570 
Q 1363 391 1709 391 
Q 2188 391 2477 730 
Q 2766 1069 2766 1631 
L 2766 1759 
L 2194 1759 
z
M 3341 1997 
L 3341 0 
L 2766 0 
L 2766 531 
Q 2569 213 2275 61 
Q 1981 -91 1556 -91 
Q 1019 -91 701 211 
Q 384 513 384 1019 
Q 384 1609 779 1909 
Q 1175 2209 1959 2209 
L 2766 2209 
L 2766 2266 
Q 2766 2663 2505 2880 
Q 2244 3097 1772 3097 
Q 1472 3097 1187 3025 
Q 903 2953 641 2809 
L 641 3341 
Q 956 3463 1253 3523 
Q 1550 3584 1831 3584 
Q 2591 3584 2966 3190 
Q 3341 2797 3341 1997 
z
" transform="scale(0.015625)"/>
      </defs>
      <use xlink:href="#DejaVuSans-4d"/>
      <use xlink:href="#DejaVuSans-75" x="86.279297"/>
      <use xlink:href="#DejaVuSans-74" x="149.658203"/>
      <use xlink:href="#DejaVuSans-61" x="188.867188"/>
      <use xlink:href="#DejaVuSans-6e" x="250.146484"/>
      <use xlink:href="#DejaVuSans-74" x="313.525391"/>
     </g>
    </g>
    <g id="patch_12">
     <path d="M 377.728125 42.076563 
L 397.728125 42.076563 
L 397.728125 35.076563 
L 377.728125 35.076563 
z
" style="fill: #107010; stroke: #262626; stroke-width: 0.75; stroke-linejoin: miter"/>
    </g>
    <g id="text_14">
     <!-- WT -->
     <g style="fill: #262626" transform="translate(405.728125 42.076563)scale(0.1 -0.1)">
      <defs>
       <path id="DejaVuSans-57" d="M 213 4666 
L 850 4666 
L 1831 722 
L 2809 4666 
L 3519 4666 
L 4500 722 
L 5478 4666 
L 6119 4666 
L 4947 0 
L 4153 0 
L 3169 4050 
L 2175 0 
L 1381 0 
L 213 4666 
z
" transform="scale(0.015625)"/>
       <path id="DejaVuSans-54" d="M -19 4666 
L 3928 4666 
L 3928 4134 
L 2272 4134 
L 2272 0 
L 1638 0 
L 1638 4134 
L -19 4134 
L -19 4666 
z
" transform="scale(0.015625)"/>
      </defs>
      <use xlink:href="#DejaVuSans-57"/>
      <use xlink:href="#DejaVuSans-54" x="98.876953"/>
     </g>
    </g>
   </g>
  </g>
 </g>
 <defs>
  <clipPath id="p9428f9e53b">
   <rect x="63.57125" y="10.8" width="386.42875" height="292.84"/>
  </clipPath>
 </defs>
</svg>
