<?xml version="1.0" encoding="utf-8" standalone="no"?>
<!DOCTYPE svg PUBLIC "-//W3C//DTD SVG 1.1//EN"
  "http://www.w3.org/Graphics/SVG/1.1/DTD/svg11.dtd">
<svg xmlns:xlink="http://www.w3.org/1999/xlink" width="460.8pt" height="345.6pt" viewBox="0 0 460.8 345.6" xmlns="http://www.w3.org/2000/svg" version="1.1">
 <metadata>
  <rdf:RDF xmlns:dc="http://purl.org/dc/elements/1.1/" xmlns:cc="http://creativecommons.org/ns#" xmlns:rdf="http://www.w3.org/1999/02/22-rdf-syntax-ns#">
   <cc:Work>
    <dc:type rdf:resource="http://purl.org/dc/dcmitype/StillImage"/>
    <dc:date>2024-02-03T13:08:29.096709</dc:date>
    <dc:format>image/svg+xml</dc:format>
    <dc:creator>
     <cc:Agent>
      <dc:title>Matplotlib v3.5.3, https://matplotlib.org/</dc:title>
     </cc:Agent>
    </dc:creator>
   </cc:Work>
  </rdf:RDF>
 </metadata>
 <defs>
  <style type="text/css">*{stroke-linejoin: round; stroke-linecap: butt}</style>
 </defs>
 <g id="figure_1">
  <g id="patch_1">
   <path d="M 0 345.6 
L 460.8 345.6 
L 460.8 0 
L 0 0 
z
" style="fill: #ffffff"/>
  </g>
  <g id="axes_1">
   <g id="patch_2">
    <path d="M 47.82125 303.64 
L 450 303.64 
L 450 46.673817 
L 47.82125 46.673817 
z
" style="fill: #ffffff"/>
   </g>
   <g id="PathCollection_1">
    <defs>
     <path id="mb59efe2590" d="M 0 3 
C 0.795609 3 1.55874 2.683901 2.12132 2.12132 
C 2.683901 1.55874 3 0.795609 3 0 
C 3 -0.795609 2.683901 -1.55874 2.12132 -2.12132 
C 1.55874 -2.683901 0.795609 -3 0 -3 
C -0.795609 -3 -1.55874 -2.683901 -2.12132 -2.12132 
C -2.683901 -1.55874 -3 -0.795609 -3 0 
C -3 0.795609 -2.683901 1.55874 -2.12132 2.12132 
C -1.55874 2.683901 -0.795609 3 0 3 
z
" style="stroke: #1f77b4"/>
    </defs>
    <g clip-path="url(#pd2eb2e3ce6)">
     <use xlink:href="#mb59efe2590" x="105.850477" y="194.693987" style="fill: #1f77b4; stroke: #1f77b4"/>
     <use xlink:href="#mb59efe2590" x="106.08649" y="233.486085" style="fill: #1f77b4; stroke: #1f77b4"/>
     <use xlink:href="#mb59efe2590" x="246.326861" y="179.298073" style="fill: #1f77b4; stroke: #1f77b4"/>
     <use xlink:href="#mb59efe2590" x="113.857587" y="197.048214" style="fill: #1f77b4; stroke: #1f77b4"/>
     <use xlink:href="#mb59efe2590" x="240.934873" y="176.245235" style="fill: #1f77b4; stroke: #1f77b4"/>
     <use xlink:href="#mb59efe2590" x="273.714264" y="211.60472" style="fill: #1f77b4; stroke: #1f77b4"/>
     <use xlink:href="#mb59efe2590" x="290.139444" y="201.59333" style="fill: #1f77b4; stroke: #1f77b4"/>
     <use xlink:href="#mb59efe2590" x="255.777281" y="184.939044" style="fill: #1f77b4; stroke: #1f77b4"/>
     <use xlink:href="#mb59efe2590" x="252.769354" y="166.835653" style="fill: #1f77b4; stroke: #1f77b4"/>
     <use xlink:href="#mb59efe2590" x="143.12154" y="220.450116" style="fill: #1f77b4; stroke: #1f77b4"/>
     <use xlink:href="#mb59efe2590" x="290.81695" y="279.699394" style="fill: #1f77b4; stroke: #1f77b4"/>
     <use xlink:href="#mb59efe2590" x="260.448027" y="210.548149" style="fill: #1f77b4; stroke: #1f77b4"/>
     <use xlink:href="#mb59efe2590" x="263.510418" y="217.363478" style="fill: #1f77b4; stroke: #1f77b4"/>
     <use xlink:href="#mb59efe2590" x="275.689841" y="204.480905" style="fill: #1f77b4; stroke: #1f77b4"/>
     <use xlink:href="#mb59efe2590" x="268.908183" y="185.215172" style="fill: #1f77b4; stroke: #1f77b4"/>
     <use xlink:href="#mb59efe2590" x="66.102102" y="241.774585" style="fill: #1f77b4; stroke: #1f77b4"/>
     <use xlink:href="#mb59efe2590" x="300.852451" y="203.120319" style="fill: #1f77b4; stroke: #1f77b4"/>
     <use xlink:href="#mb59efe2590" x="264.592282" y="181.368499" style="fill: #1f77b4; stroke: #1f77b4"/>
     <use xlink:href="#mb59efe2590" x="158.785867" y="273.027717" style="fill: #1f77b4; stroke: #1f77b4"/>
     <use xlink:href="#mb59efe2590" x="256.829437" y="192.584829" style="fill: #1f77b4; stroke: #1f77b4"/>
     <use xlink:href="#mb59efe2590" x="287.470682" y="227.671511" style="fill: #1f77b4; stroke: #1f77b4"/>
     <use xlink:href="#mb59efe2590" x="210.256492" y="196.666991" style="fill: #1f77b4; stroke: #1f77b4"/>
     <use xlink:href="#mb59efe2590" x="166.08989" y="267.278967" style="fill: #1f77b4; stroke: #1f77b4"/>
     <use xlink:href="#mb59efe2590" x="179.193559" y="247.19391" style="fill: #1f77b4; stroke: #1f77b4"/>
     <use xlink:href="#mb59efe2590" x="290.344924" y="179.514394" style="fill: #1f77b4; stroke: #1f77b4"/>
     <use xlink:href="#mb59efe2590" x="285.209579" y="158.701972" style="fill: #1f77b4; stroke: #1f77b4"/>
     <use xlink:href="#mb59efe2590" x="269.357102" y="199.229574" style="fill: #1f77b4; stroke: #1f77b4"/>
     <use xlink:href="#mb59efe2590" x="341.514344" y="279.803254" style="fill: #1f77b4; stroke: #1f77b4"/>
     <use xlink:href="#mb59efe2590" x="303.472524" y="195.439951" style="fill: #1f77b4; stroke: #1f77b4"/>
     <use xlink:href="#mb59efe2590" x="270.467023" y="161.637502" style="fill: #1f77b4; stroke: #1f77b4"/>
     <use xlink:href="#mb59efe2590" x="294.260593" y="189.552554" style="fill: #1f77b4; stroke: #1f77b4"/>
     <use xlink:href="#mb59efe2590" x="279.945501" y="248.74786" style="fill: #1f77b4; stroke: #1f77b4"/>
     <use xlink:href="#mb59efe2590" x="262.948443" y="148.225458" style="fill: #1f77b4; stroke: #1f77b4"/>
     <use xlink:href="#mb59efe2590" x="154.841315" y="236.668998" style="fill: #1f77b4; stroke: #1f77b4"/>
     <use xlink:href="#mb59efe2590" x="192.280724" y="270.228049" style="fill: #1f77b4; stroke: #1f77b4"/>
     <use xlink:href="#mb59efe2590" x="245.818525" y="237.828016" style="fill: #1f77b4; stroke: #1f77b4"/>
     <use xlink:href="#mb59efe2590" x="204.854602" y="250.98369" style="fill: #1f77b4; stroke: #1f77b4"/>
     <use xlink:href="#mb59efe2590" x="330.579353" y="207.27616" style="fill: #1f77b4; stroke: #1f77b4"/>
     <use xlink:href="#mb59efe2590" x="263.151447" y="185.055455" style="fill: #1f77b4; stroke: #1f77b4"/>
     <use xlink:href="#mb59efe2590" x="187.161884" y="220.16336" style="fill: #1f77b4; stroke: #1f77b4"/>
     <use xlink:href="#mb59efe2590" x="183.209905" y="193.940763" style="fill: #1f77b4; stroke: #1f77b4"/>
     <use xlink:href="#mb59efe2590" x="128.574561" y="222.152204" style="fill: #1f77b4; stroke: #1f77b4"/>
     <use xlink:href="#mb59efe2590" x="282.554021" y="211.838336" style="fill: #1f77b4; stroke: #1f77b4"/>
     <use xlink:href="#mb59efe2590" x="210.836622" y="158.863847" style="fill: #1f77b4; stroke: #1f77b4"/>
     <use xlink:href="#mb59efe2590" x="291.602559" y="190.015158" style="fill: #1f77b4; stroke: #1f77b4"/>
     <use xlink:href="#mb59efe2590" x="288.938749" y="284.12911" style="fill: #1f77b4; stroke: #1f77b4"/>
     <use xlink:href="#mb59efe2590" x="189.662301" y="247.717895" style="fill: #1f77b4; stroke: #1f77b4"/>
     <use xlink:href="#mb59efe2590" x="184.768746" y="202.60306" style="fill: #1f77b4; stroke: #1f77b4"/>
     <use xlink:href="#mb59efe2590" x="255.478551" y="187.843474" style="fill: #1f77b4; stroke: #1f77b4"/>
     <use xlink:href="#mb59efe2590" x="272.376582" y="269.92966" style="fill: #1f77b4; stroke: #1f77b4"/>
     <use xlink:href="#mb59efe2590" x="292.757867" y="223.8327" style="fill: #1f77b4; stroke: #1f77b4"/>
     <use xlink:href="#mb59efe2590" x="299.508993" y="276.818995" style="fill: #1f77b4; stroke: #1f77b4"/>
     <use xlink:href="#mb59efe2590" x="136.927439" y="282.839718" style="fill: #1f77b4; stroke: #1f77b4"/>
     <use xlink:href="#mb59efe2590" x="303.810039" y="217.873797" style="fill: #1f77b4; stroke: #1f77b4"/>
     <use xlink:href="#mb59efe2590" x="318.765503" y="213.141802" style="fill: #1f77b4; stroke: #1f77b4"/>
     <use xlink:href="#mb59efe2590" x="283.216673" y="279.633128" style="fill: #1f77b4; stroke: #1f77b4"/>
     <use xlink:href="#mb59efe2590" x="292.118322" y="176.910792" style="fill: #1f77b4; stroke: #1f77b4"/>
     <use xlink:href="#mb59efe2590" x="266.048795" y="187.523526" style="fill: #1f77b4; stroke: #1f77b4"/>
     <use xlink:href="#mb59efe2590" x="183.366697" y="197.507251" style="fill: #1f77b4; stroke: #1f77b4"/>
     <use xlink:href="#mb59efe2590" x="211.400247" y="229.589489" style="fill: #1f77b4; stroke: #1f77b4"/>
     <use xlink:href="#mb59efe2590" x="196.388669" y="215.252826" style="fill: #1f77b4; stroke: #1f77b4"/>
     <use xlink:href="#mb59efe2590" x="256.025672" y="180.793176" style="fill: #1f77b4; stroke: #1f77b4"/>
     <use xlink:href="#mb59efe2590" x="188.979019" y="279.674494" style="fill: #1f77b4; stroke: #1f77b4"/>
     <use xlink:href="#mb59efe2590" x="309.046061" y="239.863032" style="fill: #1f77b4; stroke: #1f77b4"/>
     <use xlink:href="#mb59efe2590" x="293.772063" y="186.617272" style="fill: #1f77b4; stroke: #1f77b4"/>
     <use xlink:href="#mb59efe2590" x="162.944976" y="244.156838" style="fill: #1f77b4; stroke: #1f77b4"/>
     <use xlink:href="#mb59efe2590" x="276.214681" y="228.030753" style="fill: #1f77b4; stroke: #1f77b4"/>
     <use xlink:href="#mb59efe2590" x="263.259551" y="288.611278" style="fill: #1f77b4; stroke: #1f77b4"/>
     <use xlink:href="#mb59efe2590" x="327.520262" y="279.8396" style="fill: #1f77b4; stroke: #1f77b4"/>
     <use xlink:href="#mb59efe2590" x="291.84765" y="221.282882" style="fill: #1f77b4; stroke: #1f77b4"/>
     <use xlink:href="#mb59efe2590" x="205.806081" y="202.824297" style="fill: #1f77b4; stroke: #1f77b4"/>
     <use xlink:href="#mb59efe2590" x="312.519412" y="168.101893" style="fill: #1f77b4; stroke: #1f77b4"/>
     <use xlink:href="#mb59efe2590" x="323.98667" y="177.271881" style="fill: #1f77b4; stroke: #1f77b4"/>
     <use xlink:href="#mb59efe2590" x="290.569384" y="218.262039" style="fill: #1f77b4; stroke: #1f77b4"/>
     <use xlink:href="#mb59efe2590" x="220.328303" y="190.438711" style="fill: #1f77b4; stroke: #1f77b4"/>
     <use xlink:href="#mb59efe2590" x="315.105652" y="281.547014" style="fill: #1f77b4; stroke: #1f77b4"/>
     <use xlink:href="#mb59efe2590" x="330.912742" y="192.261773" style="fill: #1f77b4; stroke: #1f77b4"/>
     <use xlink:href="#mb59efe2590" x="298.649938" y="218.286556" style="fill: #1f77b4; stroke: #1f77b4"/>
     <use xlink:href="#mb59efe2590" x="232.578695" y="227.795843" style="fill: #1f77b4; stroke: #1f77b4"/>
     <use xlink:href="#mb59efe2590" x="340.355735" y="247.419922" style="fill: #1f77b4; stroke: #1f77b4"/>
     <use xlink:href="#mb59efe2590" x="339.358044" y="261.567366" style="fill: #1f77b4; stroke: #1f77b4"/>
     <use xlink:href="#mb59efe2590" x="334.227651" y="188.590169" style="fill: #1f77b4; stroke: #1f77b4"/>
     <use xlink:href="#mb59efe2590" x="290.144395" y="206.287316" style="fill: #1f77b4; stroke: #1f77b4"/>
     <use xlink:href="#mb59efe2590" x="271.479568" y="198.416814" style="fill: #1f77b4; stroke: #1f77b4"/>
     <use xlink:href="#mb59efe2590" x="160.547712" y="207.585384" style="fill: #1f77b4; stroke: #1f77b4"/>
     <use xlink:href="#mb59efe2590" x="283.960196" y="202.183759" style="fill: #1f77b4; stroke: #1f77b4"/>
     <use xlink:href="#mb59efe2590" x="332.38741" y="258.139183" style="fill: #1f77b4; stroke: #1f77b4"/>
     <use xlink:href="#mb59efe2590" x="172.930964" y="261.33558" style="fill: #1f77b4; stroke: #1f77b4"/>
     <use xlink:href="#mb59efe2590" x="289.886927" y="181.047355" style="fill: #1f77b4; stroke: #1f77b4"/>
     <use xlink:href="#mb59efe2590" x="309.357994" y="252.494476" style="fill: #1f77b4; stroke: #1f77b4"/>
     <use xlink:href="#mb59efe2590" x="329.768987" y="172.432217" style="fill: #1f77b4; stroke: #1f77b4"/>
     <use xlink:href="#mb59efe2590" x="305.137819" y="179.518491" style="fill: #1f77b4; stroke: #1f77b4"/>
     <use xlink:href="#mb59efe2590" x="303.562473" y="223.993207" style="fill: #1f77b4; stroke: #1f77b4"/>
     <use xlink:href="#mb59efe2590" x="135.791936" y="206.484656" style="fill: #1f77b4; stroke: #1f77b4"/>
     <use xlink:href="#mb59efe2590" x="324.938149" y="204.146625" style="fill: #1f77b4; stroke: #1f77b4"/>
     <use xlink:href="#mb59efe2590" x="354.216131" y="242.749837" style="fill: #1f77b4; stroke: #1f77b4"/>
     <use xlink:href="#mb59efe2590" x="326.964889" y="216.643994" style="fill: #1f77b4; stroke: #1f77b4"/>
     <use xlink:href="#mb59efe2590" x="217.435907" y="256.031271" style="fill: #1f77b4; stroke: #1f77b4"/>
     <use xlink:href="#mb59efe2590" x="291.41936" y="198.991133" style="fill: #1f77b4; stroke: #1f77b4"/>
     <use xlink:href="#mb59efe2590" x="344.683189" y="284.867068" style="fill: #1f77b4; stroke: #1f77b4"/>
     <use xlink:href="#mb59efe2590" x="359.802045" y="259.63633" style="fill: #1f77b4; stroke: #1f77b4"/>
     <use xlink:href="#mb59efe2590" x="124.979903" y="219.226097" style="fill: #1f77b4; stroke: #1f77b4"/>
     <use xlink:href="#mb59efe2590" x="243.524414" y="201.402998" style="fill: #1f77b4; stroke: #1f77b4"/>
     <use xlink:href="#mb59efe2590" x="327.896562" y="271.490577" style="fill: #1f77b4; stroke: #1f77b4"/>
     <use xlink:href="#mb59efe2590" x="358.43053" y="206.97165" style="fill: #1f77b4; stroke: #1f77b4"/>
     <use xlink:href="#mb59efe2590" x="431.719148" y="180.951675" style="fill: #1f77b4; stroke: #1f77b4"/>
     <use xlink:href="#mb59efe2590" x="362.191883" y="202.636371" style="fill: #1f77b4; stroke: #1f77b4"/>
     <use xlink:href="#mb59efe2590" x="256.316975" y="260.362418" style="fill: #1f77b4; stroke: #1f77b4"/>
     <use xlink:href="#mb59efe2590" x="309.226784" y="207.261223" style="fill: #1f77b4; stroke: #1f77b4"/>
     <use xlink:href="#mb59efe2590" x="372.171269" y="286.182721" style="fill: #1f77b4; stroke: #1f77b4"/>
     <use xlink:href="#mb59efe2590" x="363.943" y="179.855906" style="fill: #1f77b4; stroke: #1f77b4"/>
     <use xlink:href="#mb59efe2590" x="409.316074" y="284.537443" style="fill: #1f77b4; stroke: #1f77b4"/>
     <use xlink:href="#mb59efe2590" x="359.285458" y="202.667156" style="fill: #1f77b4; stroke: #1f77b4"/>
    </g>
   </g>
   <g id="matplotlib.axis_1">
    <g id="xtick_1">
     <g id="line2d_1">
      <defs>
       <path id="m742fefe611" d="M 0 0 
L 0 3.5 
" style="stroke: #000000; stroke-width: 0.8"/>
      </defs>
      <g>
       <use xlink:href="#m742fefe611" x="123.297279" y="303.64" style="stroke: #000000; stroke-width: 0.8"/>
      </g>
     </g>
     <g id="text_1">
      <!-- −30 -->
      <g transform="translate(112.744935 318.238437)scale(0.1 -0.1)">
       <defs>
        <path id="DejaVuSans-2212" d="M 678 2272 
L 4684 2272 
L 4684 1741 
L 678 1741 
L 678 2272 
z
" transform="scale(0.015625)"/>
        <path id="DejaVuSans-33" d="M 2597 2516 
Q 3050 2419 3304 2112 
Q 3559 1806 3559 1356 
Q 3559 666 3084 287 
Q 2609 -91 1734 -91 
Q 1441 -91 1130 -33 
Q 819 25 488 141 
L 488 750 
Q 750 597 1062 519 
Q 1375 441 1716 441 
Q 2309 441 2620 675 
Q 2931 909 2931 1356 
Q 2931 1769 2642 2001 
Q 2353 2234 1838 2234 
L 1294 2234 
L 1294 2753 
L 1863 2753 
Q 2328 2753 2575 2939 
Q 2822 3125 2822 3475 
Q 2822 3834 2567 4026 
Q 2313 4219 1838 4219 
Q 1578 4219 1281 4162 
Q 984 4106 628 3988 
L 628 4550 
Q 988 4650 1302 4700 
Q 1616 4750 1894 4750 
Q 2613 4750 3031 4423 
Q 3450 4097 3450 3541 
Q 3450 3153 3228 2886 
Q 3006 2619 2597 2516 
z
" transform="scale(0.015625)"/>
        <path id="DejaVuSans-30" d="M 2034 4250 
Q 1547 4250 1301 3770 
Q 1056 3291 1056 2328 
Q 1056 1369 1301 889 
Q 1547 409 2034 409 
Q 2525 409 2770 889 
Q 3016 1369 3016 2328 
Q 3016 3291 2770 3770 
Q 2525 4250 2034 4250 
z
M 2034 4750 
Q 2819 4750 3233 4129 
Q 3647 3509 3647 2328 
Q 3647 1150 3233 529 
Q 2819 -91 2034 -91 
Q 1250 -91 836 529 
Q 422 1150 422 2328 
Q 422 3509 836 4129 
Q 1250 4750 2034 4750 
z
" transform="scale(0.015625)"/>
       </defs>
       <use xlink:href="#DejaVuSans-2212"/>
       <use xlink:href="#DejaVuSans-33" x="83.789062"/>
       <use xlink:href="#DejaVuSans-30" x="147.412109"/>
      </g>
     </g>
    </g>
    <g id="xtick_2">
     <g id="line2d_2">
      <g>
       <use xlink:href="#m742fefe611" x="205.819284" y="303.64" style="stroke: #000000; stroke-width: 0.8"/>
      </g>
     </g>
     <g id="text_2">
      <!-- −20 -->
      <g transform="translate(195.266941 318.238437)scale(0.1 -0.1)">
       <defs>
        <path id="DejaVuSans-32" d="M 1228 531 
L 3431 531 
L 3431 0 
L 469 0 
L 469 531 
Q 828 903 1448 1529 
Q 2069 2156 2228 2338 
Q 2531 2678 2651 2914 
Q 2772 3150 2772 3378 
Q 2772 3750 2511 3984 
Q 2250 4219 1831 4219 
Q 1534 4219 1204 4116 
Q 875 4013 500 3803 
L 500 4441 
Q 881 4594 1212 4672 
Q 1544 4750 1819 4750 
Q 2544 4750 2975 4387 
Q 3406 4025 3406 3419 
Q 3406 3131 3298 2873 
Q 3191 2616 2906 2266 
Q 2828 2175 2409 1742 
Q 1991 1309 1228 531 
z
" transform="scale(0.015625)"/>
       </defs>
       <use xlink:href="#DejaVuSans-2212"/>
       <use xlink:href="#DejaVuSans-32" x="83.789062"/>
       <use xlink:href="#DejaVuSans-30" x="147.412109"/>
      </g>
     </g>
    </g>
    <g id="xtick_3">
     <g id="line2d_3">
      <g>
       <use xlink:href="#m742fefe611" x="288.34129" y="303.64" style="stroke: #000000; stroke-width: 0.8"/>
      </g>
     </g>
     <g id="text_3">
      <!-- −10 -->
      <g transform="translate(277.788946 318.238437)scale(0.1 -0.1)">
       <defs>
        <path id="DejaVuSans-31" d="M 794 531 
L 1825 531 
L 1825 4091 
L 703 3866 
L 703 4441 
L 1819 4666 
L 2450 4666 
L 2450 531 
L 3481 531 
L 3481 0 
L 794 0 
L 794 531 
z
" transform="scale(0.015625)"/>
       </defs>
       <use xlink:href="#DejaVuSans-2212"/>
       <use xlink:href="#DejaVuSans-31" x="83.789062"/>
       <use xlink:href="#DejaVuSans-30" x="147.412109"/>
      </g>
     </g>
    </g>
    <g id="xtick_4">
     <g id="line2d_4">
      <g>
       <use xlink:href="#m742fefe611" x="370.863295" y="303.64" style="stroke: #000000; stroke-width: 0.8"/>
      </g>
     </g>
     <g id="text_4">
      <!-- 0 -->
      <g transform="translate(367.682045 318.238437)scale(0.1 -0.1)">
       <use xlink:href="#DejaVuSans-30"/>
      </g>
     </g>
    </g>
    <g id="text_5">
     <!-- HBONDDiff -->
     <g transform="translate(221.521562 331.916562)scale(0.1 -0.1)">
      <defs>
       <path id="DejaVuSans-48" d="M 628 4666 
L 1259 4666 
L 1259 2753 
L 3553 2753 
L 3553 4666 
L 4184 4666 
L 4184 0 
L 3553 0 
L 3553 2222 
L 1259 2222 
L 1259 0 
L 628 0 
L 628 4666 
z
" transform="scale(0.015625)"/>
       <path id="DejaVuSans-42" d="M 1259 2228 
L 1259 519 
L 2272 519 
Q 2781 519 3026 730 
Q 3272 941 3272 1375 
Q 3272 1813 3026 2020 
Q 2781 2228 2272 2228 
L 1259 2228 
z
M 1259 4147 
L 1259 2741 
L 2194 2741 
Q 2656 2741 2882 2914 
Q 3109 3088 3109 3444 
Q 3109 3797 2882 3972 
Q 2656 4147 2194 4147 
L 1259 4147 
z
M 628 4666 
L 2241 4666 
Q 2963 4666 3353 4366 
Q 3744 4066 3744 3513 
Q 3744 3084 3544 2831 
Q 3344 2578 2956 2516 
Q 3422 2416 3680 2098 
Q 3938 1781 3938 1306 
Q 3938 681 3513 340 
Q 3088 0 2303 0 
L 628 0 
L 628 4666 
z
" transform="scale(0.015625)"/>
       <path id="DejaVuSans-4f" d="M 2522 4238 
Q 1834 4238 1429 3725 
Q 1025 3213 1025 2328 
Q 1025 1447 1429 934 
Q 1834 422 2522 422 
Q 3209 422 3611 934 
Q 4013 1447 4013 2328 
Q 4013 3213 3611 3725 
Q 3209 4238 2522 4238 
z
M 2522 4750 
Q 3503 4750 4090 4092 
Q 4678 3434 4678 2328 
Q 4678 1225 4090 567 
Q 3503 -91 2522 -91 
Q 1538 -91 948 565 
Q 359 1222 359 2328 
Q 359 3434 948 4092 
Q 1538 4750 2522 4750 
z
" transform="scale(0.015625)"/>
       <path id="DejaVuSans-4e" d="M 628 4666 
L 1478 4666 
L 3547 763 
L 3547 4666 
L 4159 4666 
L 4159 0 
L 3309 0 
L 1241 3903 
L 1241 0 
L 628 0 
L 628 4666 
z
" transform="scale(0.015625)"/>
       <path id="DejaVuSans-44" d="M 1259 4147 
L 1259 519 
L 2022 519 
Q 2988 519 3436 956 
Q 3884 1394 3884 2338 
Q 3884 3275 3436 3711 
Q 2988 4147 2022 4147 
L 1259 4147 
z
M 628 4666 
L 1925 4666 
Q 3281 4666 3915 4102 
Q 4550 3538 4550 2338 
Q 4550 1131 3912 565 
Q 3275 0 1925 0 
L 628 0 
L 628 4666 
z
" transform="scale(0.015625)"/>
       <path id="DejaVuSans-69" d="M 603 3500 
L 1178 3500 
L 1178 0 
L 603 0 
L 603 3500 
z
M 603 4863 
L 1178 4863 
L 1178 4134 
L 603 4134 
L 603 4863 
z
" transform="scale(0.015625)"/>
       <path id="DejaVuSans-66" d="M 2375 4863 
L 2375 4384 
L 1825 4384 
Q 1516 4384 1395 4259 
Q 1275 4134 1275 3809 
L 1275 3500 
L 2222 3500 
L 2222 3053 
L 1275 3053 
L 1275 0 
L 697 0 
L 697 3053 
L 147 3053 
L 147 3500 
L 697 3500 
L 697 3744 
Q 697 4328 969 4595 
Q 1241 4863 1831 4863 
L 2375 4863 
z
" transform="scale(0.015625)"/>
      </defs>
      <use xlink:href="#DejaVuSans-48"/>
      <use xlink:href="#DejaVuSans-42" x="75.195312"/>
      <use xlink:href="#DejaVuSans-4f" x="142.048828"/>
      <use xlink:href="#DejaVuSans-4e" x="220.759766"/>
      <use xlink:href="#DejaVuSans-44" x="295.564453"/>
      <use xlink:href="#DejaVuSans-44" x="372.566406"/>
      <use xlink:href="#DejaVuSans-69" x="449.568359"/>
      <use xlink:href="#DejaVuSans-66" x="477.351562"/>
      <use xlink:href="#DejaVuSans-66" x="512.556641"/>
     </g>
    </g>
   </g>
   <g id="matplotlib.axis_2">
    <g id="ytick_1">
     <g id="line2d_5">
      <defs>
       <path id="mdc9f1d4475" d="M 0 0 
L -3.5 0 
" style="stroke: #000000; stroke-width: 0.8"/>
      </defs>
      <g>
       <use xlink:href="#mdc9f1d4475" x="47.82125" y="303.64" style="stroke: #000000; stroke-width: 0.8"/>
      </g>
     </g>
     <g id="text_6">
      <!-- 0.0 -->
      <g transform="translate(24.918125 307.439219)scale(0.1 -0.1)">
       <defs>
        <path id="DejaVuSans-2e" d="M 684 794 
L 1344 794 
L 1344 0 
L 684 0 
L 684 794 
z
" transform="scale(0.015625)"/>
       </defs>
       <use xlink:href="#DejaVuSans-30"/>
       <use xlink:href="#DejaVuSans-2e" x="63.623047"/>
       <use xlink:href="#DejaVuSans-30" x="95.410156"/>
      </g>
     </g>
    </g>
    <g id="ytick_2">
     <g id="line2d_6">
      <g>
       <use xlink:href="#mdc9f1d4475" x="47.82125" y="260.374691" style="stroke: #000000; stroke-width: 0.8"/>
      </g>
     </g>
     <g id="text_7">
      <!-- 0.5 -->
      <g transform="translate(24.918125 264.17391)scale(0.1 -0.1)">
       <defs>
        <path id="DejaVuSans-35" d="M 691 4666 
L 3169 4666 
L 3169 4134 
L 1269 4134 
L 1269 2991 
Q 1406 3038 1543 3061 
Q 1681 3084 1819 3084 
Q 2600 3084 3056 2656 
Q 3513 2228 3513 1497 
Q 3513 744 3044 326 
Q 2575 -91 1722 -91 
Q 1428 -91 1123 -41 
Q 819 9 494 109 
L 494 744 
Q 775 591 1075 516 
Q 1375 441 1709 441 
Q 2250 441 2565 725 
Q 2881 1009 2881 1497 
Q 2881 1984 2565 2268 
Q 2250 2553 1709 2553 
Q 1456 2553 1204 2497 
Q 953 2441 691 2322 
L 691 4666 
z
" transform="scale(0.015625)"/>
       </defs>
       <use xlink:href="#DejaVuSans-30"/>
       <use xlink:href="#DejaVuSans-2e" x="63.623047"/>
       <use xlink:href="#DejaVuSans-35" x="95.410156"/>
      </g>
     </g>
    </g>
    <g id="ytick_3">
     <g id="line2d_7">
      <g>
       <use xlink:href="#mdc9f1d4475" x="47.82125" y="217.109383" style="stroke: #000000; stroke-width: 0.8"/>
      </g>
     </g>
     <g id="text_8">
      <!-- 1.0 -->
      <g transform="translate(24.918125 220.908601)scale(0.1 -0.1)">
       <use xlink:href="#DejaVuSans-31"/>
       <use xlink:href="#DejaVuSans-2e" x="63.623047"/>
       <use xlink:href="#DejaVuSans-30" x="95.410156"/>
      </g>
     </g>
    </g>
    <g id="ytick_4">
     <g id="line2d_8">
      <g>
       <use xlink:href="#mdc9f1d4475" x="47.82125" y="173.844074" style="stroke: #000000; stroke-width: 0.8"/>
      </g>
     </g>
     <g id="text_9">
      <!-- 1.5 -->
      <g transform="translate(24.918125 177.643293)scale(0.1 -0.1)">
       <use xlink:href="#DejaVuSans-31"/>
       <use xlink:href="#DejaVuSans-2e" x="63.623047"/>
       <use xlink:href="#DejaVuSans-35" x="95.410156"/>
      </g>
     </g>
    </g>
    <g id="ytick_5">
     <g id="line2d_9">
      <g>
       <use xlink:href="#mdc9f1d4475" x="47.82125" y="130.578765" style="stroke: #000000; stroke-width: 0.8"/>
      </g>
     </g>
     <g id="text_10">
      <!-- 2.0 -->
      <g transform="translate(24.918125 134.377984)scale(0.1 -0.1)">
       <use xlink:href="#DejaVuSans-32"/>
       <use xlink:href="#DejaVuSans-2e" x="63.623047"/>
       <use xlink:href="#DejaVuSans-30" x="95.410156"/>
      </g>
     </g>
    </g>
    <g id="ytick_6">
     <g id="line2d_10">
      <g>
       <use xlink:href="#mdc9f1d4475" x="47.82125" y="87.313457" style="stroke: #000000; stroke-width: 0.8"/>
      </g>
     </g>
     <g id="text_11">
      <!-- 2.5 -->
      <g transform="translate(24.918125 91.112676)scale(0.1 -0.1)">
       <use xlink:href="#DejaVuSans-32"/>
       <use xlink:href="#DejaVuSans-2e" x="63.623047"/>
       <use xlink:href="#DejaVuSans-35" x="95.410156"/>
      </g>
     </g>
    </g>
    <g id="text_12">
     <!-- PercentGpA_transformed -->
     <g transform="translate(18.560313 237.69519)rotate(-90)scale(0.1 -0.1)">
      <defs>
       <path id="DejaVuSans-50" d="M 1259 4147 
L 1259 2394 
L 2053 2394 
Q 2494 2394 2734 2622 
Q 2975 2850 2975 3272 
Q 2975 3691 2734 3919 
Q 2494 4147 2053 4147 
L 1259 4147 
z
M 628 4666 
L 2053 4666 
Q 2838 4666 3239 4311 
Q 3641 3956 3641 3272 
Q 3641 2581 3239 2228 
Q 2838 1875 2053 1875 
L 1259 1875 
L 1259 0 
L 628 0 
L 628 4666 
z
" transform="scale(0.015625)"/>
       <path id="DejaVuSans-65" d="M 3597 1894 
L 3597 1613 
L 953 1613 
Q 991 1019 1311 708 
Q 1631 397 2203 397 
Q 2534 397 2845 478 
Q 3156 559 3463 722 
L 3463 178 
Q 3153 47 2828 -22 
Q 2503 -91 2169 -91 
Q 1331 -91 842 396 
Q 353 884 353 1716 
Q 353 2575 817 3079 
Q 1281 3584 2069 3584 
Q 2775 3584 3186 3129 
Q 3597 2675 3597 1894 
z
M 3022 2063 
Q 3016 2534 2758 2815 
Q 2500 3097 2075 3097 
Q 1594 3097 1305 2825 
Q 1016 2553 972 2059 
L 3022 2063 
z
" transform="scale(0.015625)"/>
       <path id="DejaVuSans-72" d="M 2631 2963 
Q 2534 3019 2420 3045 
Q 2306 3072 2169 3072 
Q 1681 3072 1420 2755 
Q 1159 2438 1159 1844 
L 1159 0 
L 581 0 
L 581 3500 
L 1159 3500 
L 1159 2956 
Q 1341 3275 1631 3429 
Q 1922 3584 2338 3584 
Q 2397 3584 2469 3576 
Q 2541 3569 2628 3553 
L 2631 2963 
z
" transform="scale(0.015625)"/>
       <path id="DejaVuSans-63" d="M 3122 3366 
L 3122 2828 
Q 2878 2963 2633 3030 
Q 2388 3097 2138 3097 
Q 1578 3097 1268 2742 
Q 959 2388 959 1747 
Q 959 1106 1268 751 
Q 1578 397 2138 397 
Q 2388 397 2633 464 
Q 2878 531 3122 666 
L 3122 134 
Q 2881 22 2623 -34 
Q 2366 -91 2075 -91 
Q 1284 -91 818 406 
Q 353 903 353 1747 
Q 353 2603 823 3093 
Q 1294 3584 2113 3584 
Q 2378 3584 2631 3529 
Q 2884 3475 3122 3366 
z
" transform="scale(0.015625)"/>
       <path id="DejaVuSans-6e" d="M 3513 2113 
L 3513 0 
L 2938 0 
L 2938 2094 
Q 2938 2591 2744 2837 
Q 2550 3084 2163 3084 
Q 1697 3084 1428 2787 
Q 1159 2491 1159 1978 
L 1159 0 
L 581 0 
L 581 3500 
L 1159 3500 
L 1159 2956 
Q 1366 3272 1645 3428 
Q 1925 3584 2291 3584 
Q 2894 3584 3203 3211 
Q 3513 2838 3513 2113 
z
" transform="scale(0.015625)"/>
       <path id="DejaVuSans-74" d="M 1172 4494 
L 1172 3500 
L 2356 3500 
L 2356 3053 
L 1172 3053 
L 1172 1153 
Q 1172 725 1289 603 
Q 1406 481 1766 481 
L 2356 481 
L 2356 0 
L 1766 0 
Q 1100 0 847 248 
Q 594 497 594 1153 
L 594 3053 
L 172 3053 
L 172 3500 
L 594 3500 
L 594 4494 
L 1172 4494 
z
" transform="scale(0.015625)"/>
       <path id="DejaVuSans-47" d="M 3809 666 
L 3809 1919 
L 2778 1919 
L 2778 2438 
L 4434 2438 
L 4434 434 
Q 4069 175 3628 42 
Q 3188 -91 2688 -91 
Q 1594 -91 976 548 
Q 359 1188 359 2328 
Q 359 3472 976 4111 
Q 1594 4750 2688 4750 
Q 3144 4750 3555 4637 
Q 3966 4525 4313 4306 
L 4313 3634 
Q 3963 3931 3569 4081 
Q 3175 4231 2741 4231 
Q 1884 4231 1454 3753 
Q 1025 3275 1025 2328 
Q 1025 1384 1454 906 
Q 1884 428 2741 428 
Q 3075 428 3337 486 
Q 3600 544 3809 666 
z
" transform="scale(0.015625)"/>
       <path id="DejaVuSans-70" d="M 1159 525 
L 1159 -1331 
L 581 -1331 
L 581 3500 
L 1159 3500 
L 1159 2969 
Q 1341 3281 1617 3432 
Q 1894 3584 2278 3584 
Q 2916 3584 3314 3078 
Q 3713 2572 3713 1747 
Q 3713 922 3314 415 
Q 2916 -91 2278 -91 
Q 1894 -91 1617 61 
Q 1341 213 1159 525 
z
M 3116 1747 
Q 3116 2381 2855 2742 
Q 2594 3103 2138 3103 
Q 1681 3103 1420 2742 
Q 1159 2381 1159 1747 
Q 1159 1113 1420 752 
Q 1681 391 2138 391 
Q 2594 391 2855 752 
Q 3116 1113 3116 1747 
z
" transform="scale(0.015625)"/>
       <path id="DejaVuSans-41" d="M 2188 4044 
L 1331 1722 
L 3047 1722 
L 2188 4044 
z
M 1831 4666 
L 2547 4666 
L 4325 0 
L 3669 0 
L 3244 1197 
L 1141 1197 
L 716 0 
L 50 0 
L 1831 4666 
z
" transform="scale(0.015625)"/>
       <path id="DejaVuSans-5f" d="M 3263 -1063 
L 3263 -1509 
L -63 -1509 
L -63 -1063 
L 3263 -1063 
z
" transform="scale(0.015625)"/>
       <path id="DejaVuSans-61" d="M 2194 1759 
Q 1497 1759 1228 1600 
Q 959 1441 959 1056 
Q 959 750 1161 570 
Q 1363 391 1709 391 
Q 2188 391 2477 730 
Q 2766 1069 2766 1631 
L 2766 1759 
L 2194 1759 
z
M 3341 1997 
L 3341 0 
L 2766 0 
L 2766 531 
Q 2569 213 2275 61 
Q 1981 -91 1556 -91 
Q 1019 -91 701 211 
Q 384 513 384 1019 
Q 384 1609 779 1909 
Q 1175 2209 1959 2209 
L 2766 2209 
L 2766 2266 
Q 2766 2663 2505 2880 
Q 2244 3097 1772 3097 
Q 1472 3097 1187 3025 
Q 903 2953 641 2809 
L 641 3341 
Q 956 3463 1253 3523 
Q 1550 3584 1831 3584 
Q 2591 3584 2966 3190 
Q 3341 2797 3341 1997 
z
" transform="scale(0.015625)"/>
       <path id="DejaVuSans-73" d="M 2834 3397 
L 2834 2853 
Q 2591 2978 2328 3040 
Q 2066 3103 1784 3103 
Q 1356 3103 1142 2972 
Q 928 2841 928 2578 
Q 928 2378 1081 2264 
Q 1234 2150 1697 2047 
L 1894 2003 
Q 2506 1872 2764 1633 
Q 3022 1394 3022 966 
Q 3022 478 2636 193 
Q 2250 -91 1575 -91 
Q 1294 -91 989 -36 
Q 684 19 347 128 
L 347 722 
Q 666 556 975 473 
Q 1284 391 1588 391 
Q 1994 391 2212 530 
Q 2431 669 2431 922 
Q 2431 1156 2273 1281 
Q 2116 1406 1581 1522 
L 1381 1569 
Q 847 1681 609 1914 
Q 372 2147 372 2553 
Q 372 3047 722 3315 
Q 1072 3584 1716 3584 
Q 2034 3584 2315 3537 
Q 2597 3491 2834 3397 
z
" transform="scale(0.015625)"/>
       <path id="DejaVuSans-6f" d="M 1959 3097 
Q 1497 3097 1228 2736 
Q 959 2375 959 1747 
Q 959 1119 1226 758 
Q 1494 397 1959 397 
Q 2419 397 2687 759 
Q 2956 1122 2956 1747 
Q 2956 2369 2687 2733 
Q 2419 3097 1959 3097 
z
M 1959 3584 
Q 2709 3584 3137 3096 
Q 3566 2609 3566 1747 
Q 3566 888 3137 398 
Q 2709 -91 1959 -91 
Q 1206 -91 779 398 
Q 353 888 353 1747 
Q 353 2609 779 3096 
Q 1206 3584 1959 3584 
z
" transform="scale(0.015625)"/>
       <path id="DejaVuSans-6d" d="M 3328 2828 
Q 3544 3216 3844 3400 
Q 4144 3584 4550 3584 
Q 5097 3584 5394 3201 
Q 5691 2819 5691 2113 
L 5691 0 
L 5113 0 
L 5113 2094 
Q 5113 2597 4934 2840 
Q 4756 3084 4391 3084 
Q 3944 3084 3684 2787 
Q 3425 2491 3425 1978 
L 3425 0 
L 2847 0 
L 2847 2094 
Q 2847 2600 2669 2842 
Q 2491 3084 2119 3084 
Q 1678 3084 1418 2786 
Q 1159 2488 1159 1978 
L 1159 0 
L 581 0 
L 581 3500 
L 1159 3500 
L 1159 2956 
Q 1356 3278 1631 3431 
Q 1906 3584 2284 3584 
Q 2666 3584 2933 3390 
Q 3200 3197 3328 2828 
z
" transform="scale(0.015625)"/>
       <path id="DejaVuSans-64" d="M 2906 2969 
L 2906 4863 
L 3481 4863 
L 3481 0 
L 2906 0 
L 2906 525 
Q 2725 213 2448 61 
Q 2172 -91 1784 -91 
Q 1150 -91 751 415 
Q 353 922 353 1747 
Q 353 2572 751 3078 
Q 1150 3584 1784 3584 
Q 2172 3584 2448 3432 
Q 2725 3281 2906 2969 
z
M 947 1747 
Q 947 1113 1208 752 
Q 1469 391 1925 391 
Q 2381 391 2643 752 
Q 2906 1113 2906 1747 
Q 2906 2381 2643 2742 
Q 2381 3103 1925 3103 
Q 1469 3103 1208 2742 
Q 947 2381 947 1747 
z
" transform="scale(0.015625)"/>
      </defs>
      <use xlink:href="#DejaVuSans-50"/>
      <use xlink:href="#DejaVuSans-65" x="56.677734"/>
      <use xlink:href="#DejaVuSans-72" x="118.201172"/>
      <use xlink:href="#DejaVuSans-63" x="157.064453"/>
      <use xlink:href="#DejaVuSans-65" x="212.044922"/>
      <use xlink:href="#DejaVuSans-6e" x="273.568359"/>
      <use xlink:href="#DejaVuSans-74" x="336.947266"/>
      <use xlink:href="#DejaVuSans-47" x="376.15625"/>
      <use xlink:href="#DejaVuSans-70" x="453.646484"/>
      <use xlink:href="#DejaVuSans-41" x="517.123047"/>
      <use xlink:href="#DejaVuSans-5f" x="585.53125"/>
      <use xlink:href="#DejaVuSans-74" x="635.53125"/>
      <use xlink:href="#DejaVuSans-72" x="674.740234"/>
      <use xlink:href="#DejaVuSans-61" x="715.853516"/>
      <use xlink:href="#DejaVuSans-6e" x="777.132812"/>
      <use xlink:href="#DejaVuSans-73" x="840.511719"/>
      <use xlink:href="#DejaVuSans-66" x="892.611328"/>
      <use xlink:href="#DejaVuSans-6f" x="927.816406"/>
      <use xlink:href="#DejaVuSans-72" x="988.998047"/>
      <use xlink:href="#DejaVuSans-6d" x="1028.361328"/>
      <use xlink:href="#DejaVuSans-65" x="1125.773438"/>
      <use xlink:href="#DejaVuSans-64" x="1187.296875"/>
     </g>
    </g>
   </g>
   <g id="LineCollection_1">
    <path d="M 105.850477 201.439659 
L 105.850477 187.948316 
" clip-path="url(#pd2eb2e3ce6)" style="fill: none; stroke: #d3d3d3; stroke-width: 3"/>
    <path d="M 106.08649 237.574112 
L 106.08649 229.398058 
" clip-path="url(#pd2eb2e3ce6)" style="fill: none; stroke: #d3d3d3; stroke-width: 3"/>
    <path d="M 246.326861 192.743922 
L 246.326861 165.852224 
" clip-path="url(#pd2eb2e3ce6)" style="fill: none; stroke: #d3d3d3; stroke-width: 3"/>
    <path d="M 113.857587 203.154928 
L 113.857587 190.9415 
" clip-path="url(#pd2eb2e3ce6)" style="fill: none; stroke: #d3d3d3; stroke-width: 3"/>
    <path d="M 240.934873 187.733821 
L 240.934873 164.756649 
" clip-path="url(#pd2eb2e3ce6)" style="fill: none; stroke: #d3d3d3; stroke-width: 3"/>
    <path d="M 273.714264 231.600196 
L 273.714264 191.609243 
" clip-path="url(#pd2eb2e3ce6)" style="fill: none; stroke: #d3d3d3; stroke-width: 3"/>
    <path d="M 290.139444 218.826394 
L 290.139444 184.360267 
" clip-path="url(#pd2eb2e3ce6)" style="fill: none; stroke: #d3d3d3; stroke-width: 3"/>
    <path d="M 255.777281 192.255275 
L 255.777281 177.622813 
" clip-path="url(#pd2eb2e3ce6)" style="fill: none; stroke: #d3d3d3; stroke-width: 3"/>
    <path d="M 252.769354 184.046901 
L 252.769354 149.624404 
" clip-path="url(#pd2eb2e3ce6)" style="fill: none; stroke: #d3d3d3; stroke-width: 3"/>
    <path d="M 143.12154 226.335012 
L 143.12154 214.565221 
" clip-path="url(#pd2eb2e3ce6)" style="fill: none; stroke: #d3d3d3; stroke-width: 3"/>
    <path d="M 290.81695 282.410004 
L 290.81695 276.988783 
" clip-path="url(#pd2eb2e3ce6)" style="fill: none; stroke: #d3d3d3; stroke-width: 3"/>
    <path d="M 260.448027 218.866859 
L 260.448027 202.22944 
" clip-path="url(#pd2eb2e3ce6)" style="fill: none; stroke: #d3d3d3; stroke-width: 3"/>
    <path d="M 263.510418 223.31258 
L 263.510418 211.414375 
" clip-path="url(#pd2eb2e3ce6)" style="fill: none; stroke: #d3d3d3; stroke-width: 3"/>
    <path d="M 275.689841 234.900182 
L 275.689841 174.061627 
" clip-path="url(#pd2eb2e3ce6)" style="fill: none; stroke: #d3d3d3; stroke-width: 3"/>
    <path d="M 268.908183 199.952741 
L 268.908183 170.477603 
" clip-path="url(#pd2eb2e3ce6)" style="fill: none; stroke: #d3d3d3; stroke-width: 3"/>
    <path d="M 66.102102 247.994628 
L 66.102102 235.554542 
" clip-path="url(#pd2eb2e3ce6)" style="fill: none; stroke: #d3d3d3; stroke-width: 3"/>
    <path d="M 300.852451 286.193067 
L 300.852451 120.047571 
" clip-path="url(#pd2eb2e3ce6)" style="fill: none; stroke: #d3d3d3; stroke-width: 3"/>
    <path d="M 264.592282 197.243337 
L 264.592282 165.493661 
" clip-path="url(#pd2eb2e3ce6)" style="fill: none; stroke: #d3d3d3; stroke-width: 3"/>
    <path d="M 158.785867 278.233223 
L 158.785867 267.82221 
" clip-path="url(#pd2eb2e3ce6)" style="fill: none; stroke: #d3d3d3; stroke-width: 3"/>
    <path d="M 256.829437 210.471714 
L 256.829437 174.697945 
" clip-path="url(#pd2eb2e3ce6)" style="fill: none; stroke: #d3d3d3; stroke-width: 3"/>
    <path d="M 287.470682 259.966861 
L 287.470682 195.376161 
" clip-path="url(#pd2eb2e3ce6)" style="fill: none; stroke: #d3d3d3; stroke-width: 3"/>
    <path d="M 210.256492 204.329212 
L 210.256492 189.00477 
" clip-path="url(#pd2eb2e3ce6)" style="fill: none; stroke: #d3d3d3; stroke-width: 3"/>
    <path d="M 166.08989 272.451579 
L 166.08989 262.106355 
" clip-path="url(#pd2eb2e3ce6)" style="fill: none; stroke: #d3d3d3; stroke-width: 3"/>
    <path d="M 179.193559 250.471052 
L 179.193559 243.916768 
" clip-path="url(#pd2eb2e3ce6)" style="fill: none; stroke: #d3d3d3; stroke-width: 3"/>
    <path d="M 290.344924 209.990679 
L 290.344924 149.038109 
" clip-path="url(#pd2eb2e3ce6)" style="fill: none; stroke: #d3d3d3; stroke-width: 3"/>
    <path d="M 285.209579 249.88814 
L 285.209579 67.515805 
" clip-path="url(#pd2eb2e3ce6)" style="fill: none; stroke: #d3d3d3; stroke-width: 3"/>
    <path d="M 269.357102 208.348889 
L 269.357102 190.11026 
" clip-path="url(#pd2eb2e3ce6)" style="fill: none; stroke: #d3d3d3; stroke-width: 3"/>
    <path d="M 341.514344 282.419643 
L 341.514344 277.186865 
" clip-path="url(#pd2eb2e3ce6)" style="fill: none; stroke: #d3d3d3; stroke-width: 3"/>
    <path d="M 303.472524 206.093043 
L 303.472524 184.786858 
" clip-path="url(#pd2eb2e3ce6)" style="fill: none; stroke: #d3d3d3; stroke-width: 3"/>
    <path d="M 270.467023 183.165388 
L 270.467023 140.109616 
" clip-path="url(#pd2eb2e3ce6)" style="fill: none; stroke: #d3d3d3; stroke-width: 3"/>
    <path d="M 294.260593 192.297672 
L 294.260593 186.807435 
" clip-path="url(#pd2eb2e3ce6)" style="fill: none; stroke: #d3d3d3; stroke-width: 3"/>
    <path d="M 279.945501 254.318436 
L 279.945501 243.177284 
" clip-path="url(#pd2eb2e3ce6)" style="fill: none; stroke: #d3d3d3; stroke-width: 3"/>
    <path d="M 262.948443 237.931193 
L 262.948443 58.519723 
" clip-path="url(#pd2eb2e3ce6)" style="fill: none; stroke: #d3d3d3; stroke-width: 3"/>
    <path d="M 154.841315 242.574253 
L 154.841315 230.763743 
" clip-path="url(#pd2eb2e3ce6)" style="fill: none; stroke: #d3d3d3; stroke-width: 3"/>
    <path d="M 192.280724 274.517418 
L 192.280724 265.93868 
" clip-path="url(#pd2eb2e3ce6)" style="fill: none; stroke: #d3d3d3; stroke-width: 3"/>
    <path d="M 245.818525 252.996019 
L 245.818525 222.660014 
" clip-path="url(#pd2eb2e3ce6)" style="fill: none; stroke: #d3d3d3; stroke-width: 3"/>
    <path d="M 204.854602 258.745952 
L 204.854602 243.221427 
" clip-path="url(#pd2eb2e3ce6)" style="fill: none; stroke: #d3d3d3; stroke-width: 3"/>
    <path d="M 330.579353 216.452977 
L 330.579353 198.099343 
" clip-path="url(#pd2eb2e3ce6)" style="fill: none; stroke: #d3d3d3; stroke-width: 3"/>
    <path d="M 263.151447 195.638729 
L 263.151447 174.472182 
" clip-path="url(#pd2eb2e3ce6)" style="fill: none; stroke: #d3d3d3; stroke-width: 3"/>
    <path d="M 187.161884 230.552024 
L 187.161884 209.774696 
" clip-path="url(#pd2eb2e3ce6)" style="fill: none; stroke: #d3d3d3; stroke-width: 3"/>
    <path d="M 183.209905 203.747089 
L 183.209905 184.134438 
" clip-path="url(#pd2eb2e3ce6)" style="fill: none; stroke: #d3d3d3; stroke-width: 3"/>
    <path d="M 128.574561 263.024315 
L 128.574561 181.280093 
" clip-path="url(#pd2eb2e3ce6)" style="fill: none; stroke: #d3d3d3; stroke-width: 3"/>
    <path d="M 282.554021 217.489699 
L 282.554021 206.186972 
" clip-path="url(#pd2eb2e3ce6)" style="fill: none; stroke: #d3d3d3; stroke-width: 3"/>
    <path d="M 210.836622 241.946547 
L 210.836622 75.781147 
" clip-path="url(#pd2eb2e3ce6)" style="fill: none; stroke: #d3d3d3; stroke-width: 3"/>
    <path d="M 291.602559 206.562664 
L 291.602559 173.467653 
" clip-path="url(#pd2eb2e3ce6)" style="fill: none; stroke: #d3d3d3; stroke-width: 3"/>
    <path d="M 288.938749 287.419764 
L 288.938749 280.838455 
" clip-path="url(#pd2eb2e3ce6)" style="fill: none; stroke: #d3d3d3; stroke-width: 3"/>
    <path d="M 189.662301 251.936918 
L 189.662301 243.498871 
" clip-path="url(#pd2eb2e3ce6)" style="fill: none; stroke: #d3d3d3; stroke-width: 3"/>
    <path d="M 184.768746 213.942678 
L 184.768746 191.263442 
" clip-path="url(#pd2eb2e3ce6)" style="fill: none; stroke: #d3d3d3; stroke-width: 3"/>
    <path d="M 255.478551 203.597673 
L 255.478551 172.089275 
" clip-path="url(#pd2eb2e3ce6)" style="fill: none; stroke: #d3d3d3; stroke-width: 3"/>
    <path d="M 272.376582 275.923794 
L 272.376582 263.935525 
" clip-path="url(#pd2eb2e3ce6)" style="fill: none; stroke: #d3d3d3; stroke-width: 3"/>
    <path d="M 292.757867 231.810837 
L 292.757867 215.854564 
" clip-path="url(#pd2eb2e3ce6)" style="fill: none; stroke: #d3d3d3; stroke-width: 3"/>
    <path d="M 299.508993 280.749682 
L 299.508993 272.888309 
" clip-path="url(#pd2eb2e3ce6)" style="fill: none; stroke: #d3d3d3; stroke-width: 3"/>
    <path d="M 136.927439 289.318068 
L 136.927439 276.361367 
" clip-path="url(#pd2eb2e3ce6)" style="fill: none; stroke: #d3d3d3; stroke-width: 3"/>
    <path d="M 303.810039 224.264372 
L 303.810039 211.483222 
" clip-path="url(#pd2eb2e3ce6)" style="fill: none; stroke: #d3d3d3; stroke-width: 3"/>
    <path d="M 318.765503 220.063743 
L 318.765503 206.219861 
" clip-path="url(#pd2eb2e3ce6)" style="fill: none; stroke: #d3d3d3; stroke-width: 3"/>
    <path d="M 283.216673 284.874056 
L 283.216673 274.3922 
" clip-path="url(#pd2eb2e3ce6)" style="fill: none; stroke: #d3d3d3; stroke-width: 3"/>
    <path d="M 292.118322 192.880258 
L 292.118322 160.941326 
" clip-path="url(#pd2eb2e3ce6)" style="fill: none; stroke: #d3d3d3; stroke-width: 3"/>
    <path d="M 266.048795 197.621827 
L 266.048795 177.425224 
" clip-path="url(#pd2eb2e3ce6)" style="fill: none; stroke: #d3d3d3; stroke-width: 3"/>
    <path d="M 183.366697 203.681545 
L 183.366697 191.332957 
" clip-path="url(#pd2eb2e3ce6)" style="fill: none; stroke: #d3d3d3; stroke-width: 3"/>
    <path d="M 211.400247 234.647452 
L 211.400247 224.531526 
" clip-path="url(#pd2eb2e3ce6)" style="fill: none; stroke: #d3d3d3; stroke-width: 3"/>
    <path d="M 196.388669 220.520296 
L 196.388669 209.985356 
" clip-path="url(#pd2eb2e3ce6)" style="fill: none; stroke: #d3d3d3; stroke-width: 3"/>
    <path d="M 256.025672 195.096805 
L 256.025672 166.489547 
" clip-path="url(#pd2eb2e3ce6)" style="fill: none; stroke: #d3d3d3; stroke-width: 3"/>
    <path d="M 188.979019 283.198061 
L 188.979019 276.150928 
" clip-path="url(#pd2eb2e3ce6)" style="fill: none; stroke: #d3d3d3; stroke-width: 3"/>
    <path d="M 309.046061 252.03024 
L 309.046061 227.695824 
" clip-path="url(#pd2eb2e3ce6)" style="fill: none; stroke: #d3d3d3; stroke-width: 3"/>
    <path d="M 293.772063 200.856521 
L 293.772063 172.378022 
" clip-path="url(#pd2eb2e3ce6)" style="fill: none; stroke: #d3d3d3; stroke-width: 3"/>
    <path d="M 162.944976 245.142622 
L 162.944976 243.171054 
" clip-path="url(#pd2eb2e3ce6)" style="fill: none; stroke: #d3d3d3; stroke-width: 3"/>
    <path d="M 276.214681 250.362465 
L 276.214681 205.699041 
" clip-path="url(#pd2eb2e3ce6)" style="fill: none; stroke: #d3d3d3; stroke-width: 3"/>
    <path d="M 263.259551 293.384789 
L 263.259551 283.837767 
" clip-path="url(#pd2eb2e3ce6)" style="fill: none; stroke: #d3d3d3; stroke-width: 3"/>
    <path d="M 327.520262 286.475737 
L 327.520262 273.203463 
" clip-path="url(#pd2eb2e3ce6)" style="fill: none; stroke: #d3d3d3; stroke-width: 3"/>
    <path d="M 291.84765 227.166353 
L 291.84765 215.39941 
" clip-path="url(#pd2eb2e3ce6)" style="fill: none; stroke: #d3d3d3; stroke-width: 3"/>
    <path d="M 205.806081 210.093535 
L 205.806081 195.555058 
" clip-path="url(#pd2eb2e3ce6)" style="fill: none; stroke: #d3d3d3; stroke-width: 3"/>
    <path d="M 312.519412 176.766335 
L 312.519412 159.43745 
" clip-path="url(#pd2eb2e3ce6)" style="fill: none; stroke: #d3d3d3; stroke-width: 3"/>
    <path d="M 323.98667 196.014208 
L 323.98667 158.529554 
" clip-path="url(#pd2eb2e3ce6)" style="fill: none; stroke: #d3d3d3; stroke-width: 3"/>
    <path d="M 290.569384 224.476294 
L 290.569384 212.047784 
" clip-path="url(#pd2eb2e3ce6)" style="fill: none; stroke: #d3d3d3; stroke-width: 3"/>
    <path d="M 220.328303 197.435243 
L 220.328303 183.442179 
" clip-path="url(#pd2eb2e3ce6)" style="fill: none; stroke: #d3d3d3; stroke-width: 3"/>
    <path d="M 315.105652 284.783512 
L 315.105652 278.310516 
" clip-path="url(#pd2eb2e3ce6)" style="fill: none; stroke: #d3d3d3; stroke-width: 3"/>
    <path d="M 330.912742 208.969954 
L 330.912742 175.553593 
" clip-path="url(#pd2eb2e3ce6)" style="fill: none; stroke: #d3d3d3; stroke-width: 3"/>
    <path d="M 298.649938 229.971573 
L 298.649938 206.601539 
" clip-path="url(#pd2eb2e3ce6)" style="fill: none; stroke: #d3d3d3; stroke-width: 3"/>
    <path d="M 232.578695 233.645359 
L 232.578695 221.946327 
" clip-path="url(#pd2eb2e3ce6)" style="fill: none; stroke: #d3d3d3; stroke-width: 3"/>
    <path d="M 340.355735 250.322344 
L 340.355735 244.5175 
" clip-path="url(#pd2eb2e3ce6)" style="fill: none; stroke: #d3d3d3; stroke-width: 3"/>
    <path d="M 339.358044 267.650451 
L 339.358044 255.484282 
" clip-path="url(#pd2eb2e3ce6)" style="fill: none; stroke: #d3d3d3; stroke-width: 3"/>
    <path d="M 334.227651 192.175708 
L 334.227651 185.004631 
" clip-path="url(#pd2eb2e3ce6)" style="fill: none; stroke: #d3d3d3; stroke-width: 3"/>
    <path d="M 290.144395 214.671442 
L 290.144395 197.903189 
" clip-path="url(#pd2eb2e3ce6)" style="fill: none; stroke: #d3d3d3; stroke-width: 3"/>
    <path d="M 271.479568 213.618141 
L 271.479568 183.215486 
" clip-path="url(#pd2eb2e3ce6)" style="fill: none; stroke: #d3d3d3; stroke-width: 3"/>
    <path d="M 160.547712 218.581751 
L 160.547712 196.589018 
" clip-path="url(#pd2eb2e3ce6)" style="fill: none; stroke: #d3d3d3; stroke-width: 3"/>
    <path d="M 283.960196 222.647321 
L 283.960196 181.720197 
" clip-path="url(#pd2eb2e3ce6)" style="fill: none; stroke: #d3d3d3; stroke-width: 3"/>
    <path d="M 332.38741 263.860003 
L 332.38741 252.418362 
" clip-path="url(#pd2eb2e3ce6)" style="fill: none; stroke: #d3d3d3; stroke-width: 3"/>
    <path d="M 172.930964 266.429597 
L 172.930964 256.241562 
" clip-path="url(#pd2eb2e3ce6)" style="fill: none; stroke: #d3d3d3; stroke-width: 3"/>
    <path d="M 289.886927 191.415951 
L 289.886927 170.678758 
" clip-path="url(#pd2eb2e3ce6)" style="fill: none; stroke: #d3d3d3; stroke-width: 3"/>
    <path d="M 309.357994 256.674986 
L 309.357994 248.313967 
" clip-path="url(#pd2eb2e3ce6)" style="fill: none; stroke: #d3d3d3; stroke-width: 3"/>
    <path d="M 329.768987 179.764085 
L 329.768987 165.100349 
" clip-path="url(#pd2eb2e3ce6)" style="fill: none; stroke: #d3d3d3; stroke-width: 3"/>
    <path d="M 305.137819 215.084546 
L 305.137819 143.952435 
" clip-path="url(#pd2eb2e3ce6)" style="fill: none; stroke: #d3d3d3; stroke-width: 3"/>
    <path d="M 303.562473 230.171808 
L 303.562473 217.814607 
" clip-path="url(#pd2eb2e3ce6)" style="fill: none; stroke: #d3d3d3; stroke-width: 3"/>
    <path d="M 135.791936 214.266887 
L 135.791936 198.702426 
" clip-path="url(#pd2eb2e3ce6)" style="fill: none; stroke: #d3d3d3; stroke-width: 3"/>
    <path d="M 324.938149 211.195419 
L 324.938149 197.097831 
" clip-path="url(#pd2eb2e3ce6)" style="fill: none; stroke: #d3d3d3; stroke-width: 3"/>
    <path d="M 354.216131 248.117271 
L 354.216131 237.382402 
" clip-path="url(#pd2eb2e3ce6)" style="fill: none; stroke: #d3d3d3; stroke-width: 3"/>
    <path d="M 326.964889 225.732397 
L 326.964889 207.555591 
" clip-path="url(#pd2eb2e3ce6)" style="fill: none; stroke: #d3d3d3; stroke-width: 3"/>
    <path d="M 217.435907 262.139485 
L 217.435907 249.923057 
" clip-path="url(#pd2eb2e3ce6)" style="fill: none; stroke: #d3d3d3; stroke-width: 3"/>
    <path d="M 291.41936 205.12453 
L 291.41936 192.857736 
" clip-path="url(#pd2eb2e3ce6)" style="fill: none; stroke: #d3d3d3; stroke-width: 3"/>
    <path d="M 344.683189 289.513589 
L 344.683189 280.220546 
" clip-path="url(#pd2eb2e3ce6)" style="fill: none; stroke: #d3d3d3; stroke-width: 3"/>
    <path d="M 359.802045 263.169892 
L 359.802045 256.102767 
" clip-path="url(#pd2eb2e3ce6)" style="fill: none; stroke: #d3d3d3; stroke-width: 3"/>
    <path d="M 124.979903 224.038764 
L 124.979903 214.41343 
" clip-path="url(#pd2eb2e3ce6)" style="fill: none; stroke: #d3d3d3; stroke-width: 3"/>
    <path d="M 243.524414 219.542386 
L 243.524414 183.263609 
" clip-path="url(#pd2eb2e3ce6)" style="fill: none; stroke: #d3d3d3; stroke-width: 3"/>
    <path d="M 327.896562 275.691173 
L 327.896562 267.289981 
" clip-path="url(#pd2eb2e3ce6)" style="fill: none; stroke: #d3d3d3; stroke-width: 3"/>
    <path d="M 358.43053 225.12536 
L 358.43053 188.817941 
" clip-path="url(#pd2eb2e3ce6)" style="fill: none; stroke: #d3d3d3; stroke-width: 3"/>
    <path d="M 431.719148 189.564935 
L 431.719148 172.338415 
" clip-path="url(#pd2eb2e3ce6)" style="fill: none; stroke: #d3d3d3; stroke-width: 3"/>
    <path d="M 362.191883 214.348312 
L 362.191883 190.924431 
" clip-path="url(#pd2eb2e3ce6)" style="fill: none; stroke: #d3d3d3; stroke-width: 3"/>
    <path d="M 256.316975 262.457019 
L 256.316975 258.267818 
" clip-path="url(#pd2eb2e3ce6)" style="fill: none; stroke: #d3d3d3; stroke-width: 3"/>
    <path d="M 309.226784 211.504572 
L 309.226784 203.017873 
" clip-path="url(#pd2eb2e3ce6)" style="fill: none; stroke: #d3d3d3; stroke-width: 3"/>
    <path d="M 372.171269 295.437841 
L 372.171269 276.9276 
" clip-path="url(#pd2eb2e3ce6)" style="fill: none; stroke: #d3d3d3; stroke-width: 3"/>
    <path d="M 363.943 194.472764 
L 363.943 165.239048 
" clip-path="url(#pd2eb2e3ce6)" style="fill: none; stroke: #d3d3d3; stroke-width: 3"/>
    <path d="M 409.316074 291.575337 
L 409.316074 277.499549 
" clip-path="url(#pd2eb2e3ce6)" style="fill: none; stroke: #d3d3d3; stroke-width: 3"/>
    <path d="M 359.285458 212.468544 
L 359.285458 192.865769 
" clip-path="url(#pd2eb2e3ce6)" style="fill: none; stroke: #d3d3d3; stroke-width: 3"/>
   </g>
   <g id="line2d_11">
    <path d="M 105.850477 221.307492 
L 106.08649 221.30438 
L 246.326861 219.454963 
L 113.857587 221.201899 
L 240.934873 219.52607 
L 273.714264 219.093792 
L 290.139444 218.877185 
L 255.777281 219.330336 
L 252.769354 219.370003 
L 143.12154 220.815981 
L 290.81695 218.868251 
L 260.448027 219.26874 
L 263.510418 219.228355 
L 275.689841 219.067739 
L 268.908183 219.157172 
L 66.102102 221.831673 
L 300.852451 218.735908 
L 264.592282 219.214088 
L 158.785867 220.609408 
L 256.829437 219.31646 
L 287.470682 218.91238 
L 210.256492 219.93064 
L 166.08989 220.513086 
L 179.193559 220.340282 
L 290.344924 218.874476 
L 285.209579 218.942198 
L 269.357102 219.151252 
L 341.514344 218.19968 
L 303.472524 218.701356 
L 270.467023 219.136615 
L 294.260593 218.822838 
L 279.945501 219.011618 
L 262.948443 219.235766 
L 154.841315 220.661427 
L 192.280724 220.167695 
L 245.818525 219.461667 
L 204.854602 220.001877 
L 330.579353 218.343885 
L 263.151447 219.233089 
L 187.161884 220.2352 
L 183.209905 220.287316 
L 128.574561 221.007819 
L 282.554021 218.977218 
L 210.836622 219.92299 
L 291.602559 218.857891 
L 288.938749 218.89302 
L 189.662301 220.202226 
L 184.768746 220.266759 
L 255.478551 219.334275 
L 272.376582 219.111433 
L 292.757867 218.842655 
L 299.508993 218.753625 
L 136.927439 220.897666 
L 303.810039 218.696905 
L 318.765503 218.49968 
L 283.216673 218.968479 
L 292.118322 218.851089 
L 266.048795 219.19488 
L 183.366697 220.285249 
L 211.400247 219.915557 
L 196.388669 220.113522 
L 256.025672 219.32706 
L 188.979019 220.211236 
L 309.046061 218.627855 
L 293.772063 218.82928 
L 162.944976 220.55456 
L 276.214681 219.060818 
L 263.259551 219.231663 
L 327.520262 218.384227 
L 291.84765 218.854658 
L 205.806081 219.98933 
L 312.519412 218.58205 
L 323.98667 218.430826 
L 290.569384 218.871516 
L 220.328303 219.797818 
L 315.105652 218.547944 
L 330.912742 218.339488 
L 298.649938 218.764953 
L 232.578695 219.636267 
L 340.355735 218.214959 
L 339.358044 218.228116 
L 334.227651 218.295773 
L 290.144395 218.87712 
L 271.479568 219.123262 
L 160.547712 220.586174 
L 283.960196 218.958674 
L 332.38741 218.320041 
L 172.930964 220.42287 
L 289.886927 218.880515 
L 309.357994 218.623741 
L 329.768987 218.354572 
L 305.137819 218.679395 
L 303.562473 218.700169 
L 135.791936 220.91264 
L 324.938149 218.418278 
L 354.216131 218.032175 
L 326.964889 218.391551 
L 217.435907 219.835962 
L 291.41936 218.860306 
L 344.683189 218.157891 
L 359.802045 217.958511 
L 124.979903 221.055223 
L 243.524414 219.49192 
L 327.896562 218.379264 
L 358.43053 217.976598 
L 431.719148 217.010106 
L 362.191883 217.926995 
L 256.316975 219.323218 
L 309.226784 218.625471 
L 372.171269 217.795392 
L 363.943 217.903902 
L 409.316074 217.305546 
L 359.285458 217.965324 
" clip-path="url(#pd2eb2e3ce6)" style="fill: none; stroke: #1f77b4; stroke-width: 1.5; stroke-linecap: square"/>
   </g>
   <g id="line2d_12">
    <defs>
     <path id="m74ae1308c3" d="M 0 3 
C 0.795609 3 1.55874 2.683901 2.12132 2.12132 
C 2.683901 1.55874 3 0.795609 3 0 
C 3 -0.795609 2.683901 -1.55874 2.12132 -2.12132 
C 1.55874 -2.683901 0.795609 -3 0 -3 
C -0.795609 -3 -1.55874 -2.683901 -2.12132 -2.12132 
C -2.683901 -1.55874 -3 -0.795609 -3 0 
C -3 0.795609 -2.683901 1.55874 -2.12132 2.12132 
C -1.55874 2.683901 -0.795609 3 0 3 
z
" style="stroke: #000000"/>
    </defs>
    <g clip-path="url(#pd2eb2e3ce6)">
     <use xlink:href="#m74ae1308c3" x="105.850477" y="194.693987" style="stroke: #000000"/>
     <use xlink:href="#m74ae1308c3" x="106.08649" y="233.486085" style="stroke: #000000"/>
     <use xlink:href="#m74ae1308c3" x="246.326861" y="179.298073" style="stroke: #000000"/>
     <use xlink:href="#m74ae1308c3" x="113.857587" y="197.048214" style="stroke: #000000"/>
     <use xlink:href="#m74ae1308c3" x="240.934873" y="176.245235" style="stroke: #000000"/>
     <use xlink:href="#m74ae1308c3" x="273.714264" y="211.60472" style="stroke: #000000"/>
     <use xlink:href="#m74ae1308c3" x="290.139444" y="201.59333" style="stroke: #000000"/>
     <use xlink:href="#m74ae1308c3" x="255.777281" y="184.939044" style="stroke: #000000"/>
     <use xlink:href="#m74ae1308c3" x="252.769354" y="166.835653" style="stroke: #000000"/>
     <use xlink:href="#m74ae1308c3" x="143.12154" y="220.450116" style="stroke: #000000"/>
     <use xlink:href="#m74ae1308c3" x="290.81695" y="279.699394" style="stroke: #000000"/>
     <use xlink:href="#m74ae1308c3" x="260.448027" y="210.548149" style="stroke: #000000"/>
     <use xlink:href="#m74ae1308c3" x="263.510418" y="217.363478" style="stroke: #000000"/>
     <use xlink:href="#m74ae1308c3" x="275.689841" y="204.480905" style="stroke: #000000"/>
     <use xlink:href="#m74ae1308c3" x="268.908183" y="185.215172" style="stroke: #000000"/>
     <use xlink:href="#m74ae1308c3" x="66.102102" y="241.774585" style="stroke: #000000"/>
     <use xlink:href="#m74ae1308c3" x="300.852451" y="203.120319" style="stroke: #000000"/>
     <use xlink:href="#m74ae1308c3" x="264.592282" y="181.368499" style="stroke: #000000"/>
     <use xlink:href="#m74ae1308c3" x="158.785867" y="273.027717" style="stroke: #000000"/>
     <use xlink:href="#m74ae1308c3" x="256.829437" y="192.584829" style="stroke: #000000"/>
     <use xlink:href="#m74ae1308c3" x="287.470682" y="227.671511" style="stroke: #000000"/>
     <use xlink:href="#m74ae1308c3" x="210.256492" y="196.666991" style="stroke: #000000"/>
     <use xlink:href="#m74ae1308c3" x="166.08989" y="267.278967" style="stroke: #000000"/>
     <use xlink:href="#m74ae1308c3" x="179.193559" y="247.19391" style="stroke: #000000"/>
     <use xlink:href="#m74ae1308c3" x="290.344924" y="179.514394" style="stroke: #000000"/>
     <use xlink:href="#m74ae1308c3" x="285.209579" y="158.701972" style="stroke: #000000"/>
     <use xlink:href="#m74ae1308c3" x="269.357102" y="199.229574" style="stroke: #000000"/>
     <use xlink:href="#m74ae1308c3" x="341.514344" y="279.803254" style="stroke: #000000"/>
     <use xlink:href="#m74ae1308c3" x="303.472524" y="195.439951" style="stroke: #000000"/>
     <use xlink:href="#m74ae1308c3" x="270.467023" y="161.637502" style="stroke: #000000"/>
     <use xlink:href="#m74ae1308c3" x="294.260593" y="189.552554" style="stroke: #000000"/>
     <use xlink:href="#m74ae1308c3" x="279.945501" y="248.74786" style="stroke: #000000"/>
     <use xlink:href="#m74ae1308c3" x="262.948443" y="148.225458" style="stroke: #000000"/>
     <use xlink:href="#m74ae1308c3" x="154.841315" y="236.668998" style="stroke: #000000"/>
     <use xlink:href="#m74ae1308c3" x="192.280724" y="270.228049" style="stroke: #000000"/>
     <use xlink:href="#m74ae1308c3" x="245.818525" y="237.828016" style="stroke: #000000"/>
     <use xlink:href="#m74ae1308c3" x="204.854602" y="250.98369" style="stroke: #000000"/>
     <use xlink:href="#m74ae1308c3" x="330.579353" y="207.27616" style="stroke: #000000"/>
     <use xlink:href="#m74ae1308c3" x="263.151447" y="185.055455" style="stroke: #000000"/>
     <use xlink:href="#m74ae1308c3" x="187.161884" y="220.16336" style="stroke: #000000"/>
     <use xlink:href="#m74ae1308c3" x="183.209905" y="193.940763" style="stroke: #000000"/>
     <use xlink:href="#m74ae1308c3" x="128.574561" y="222.152204" style="stroke: #000000"/>
     <use xlink:href="#m74ae1308c3" x="282.554021" y="211.838336" style="stroke: #000000"/>
     <use xlink:href="#m74ae1308c3" x="210.836622" y="158.863847" style="stroke: #000000"/>
     <use xlink:href="#m74ae1308c3" x="291.602559" y="190.015158" style="stroke: #000000"/>
     <use xlink:href="#m74ae1308c3" x="288.938749" y="284.12911" style="stroke: #000000"/>
     <use xlink:href="#m74ae1308c3" x="189.662301" y="247.717895" style="stroke: #000000"/>
     <use xlink:href="#m74ae1308c3" x="184.768746" y="202.60306" style="stroke: #000000"/>
     <use xlink:href="#m74ae1308c3" x="255.478551" y="187.843474" style="stroke: #000000"/>
     <use xlink:href="#m74ae1308c3" x="272.376582" y="269.92966" style="stroke: #000000"/>
     <use xlink:href="#m74ae1308c3" x="292.757867" y="223.8327" style="stroke: #000000"/>
     <use xlink:href="#m74ae1308c3" x="299.508993" y="276.818995" style="stroke: #000000"/>
     <use xlink:href="#m74ae1308c3" x="136.927439" y="282.839718" style="stroke: #000000"/>
     <use xlink:href="#m74ae1308c3" x="303.810039" y="217.873797" style="stroke: #000000"/>
     <use xlink:href="#m74ae1308c3" x="318.765503" y="213.141802" style="stroke: #000000"/>
     <use xlink:href="#m74ae1308c3" x="283.216673" y="279.633128" style="stroke: #000000"/>
     <use xlink:href="#m74ae1308c3" x="292.118322" y="176.910792" style="stroke: #000000"/>
     <use xlink:href="#m74ae1308c3" x="266.048795" y="187.523526" style="stroke: #000000"/>
     <use xlink:href="#m74ae1308c3" x="183.366697" y="197.507251" style="stroke: #000000"/>
     <use xlink:href="#m74ae1308c3" x="211.400247" y="229.589489" style="stroke: #000000"/>
     <use xlink:href="#m74ae1308c3" x="196.388669" y="215.252826" style="stroke: #000000"/>
     <use xlink:href="#m74ae1308c3" x="256.025672" y="180.793176" style="stroke: #000000"/>
     <use xlink:href="#m74ae1308c3" x="188.979019" y="279.674494" style="stroke: #000000"/>
     <use xlink:href="#m74ae1308c3" x="309.046061" y="239.863032" style="stroke: #000000"/>
     <use xlink:href="#m74ae1308c3" x="293.772063" y="186.617272" style="stroke: #000000"/>
     <use xlink:href="#m74ae1308c3" x="162.944976" y="244.156838" style="stroke: #000000"/>
     <use xlink:href="#m74ae1308c3" x="276.214681" y="228.030753" style="stroke: #000000"/>
     <use xlink:href="#m74ae1308c3" x="263.259551" y="288.611278" style="stroke: #000000"/>
     <use xlink:href="#m74ae1308c3" x="327.520262" y="279.8396" style="stroke: #000000"/>
     <use xlink:href="#m74ae1308c3" x="291.84765" y="221.282882" style="stroke: #000000"/>
     <use xlink:href="#m74ae1308c3" x="205.806081" y="202.824297" style="stroke: #000000"/>
     <use xlink:href="#m74ae1308c3" x="312.519412" y="168.101893" style="stroke: #000000"/>
     <use xlink:href="#m74ae1308c3" x="323.98667" y="177.271881" style="stroke: #000000"/>
     <use xlink:href="#m74ae1308c3" x="290.569384" y="218.262039" style="stroke: #000000"/>
     <use xlink:href="#m74ae1308c3" x="220.328303" y="190.438711" style="stroke: #000000"/>
     <use xlink:href="#m74ae1308c3" x="315.105652" y="281.547014" style="stroke: #000000"/>
     <use xlink:href="#m74ae1308c3" x="330.912742" y="192.261773" style="stroke: #000000"/>
     <use xlink:href="#m74ae1308c3" x="298.649938" y="218.286556" style="stroke: #000000"/>
     <use xlink:href="#m74ae1308c3" x="232.578695" y="227.795843" style="stroke: #000000"/>
     <use xlink:href="#m74ae1308c3" x="340.355735" y="247.419922" style="stroke: #000000"/>
     <use xlink:href="#m74ae1308c3" x="339.358044" y="261.567366" style="stroke: #000000"/>
     <use xlink:href="#m74ae1308c3" x="334.227651" y="188.590169" style="stroke: #000000"/>
     <use xlink:href="#m74ae1308c3" x="290.144395" y="206.287316" style="stroke: #000000"/>
     <use xlink:href="#m74ae1308c3" x="271.479568" y="198.416814" style="stroke: #000000"/>
     <use xlink:href="#m74ae1308c3" x="160.547712" y="207.585384" style="stroke: #000000"/>
     <use xlink:href="#m74ae1308c3" x="283.960196" y="202.183759" style="stroke: #000000"/>
     <use xlink:href="#m74ae1308c3" x="332.38741" y="258.139183" style="stroke: #000000"/>
     <use xlink:href="#m74ae1308c3" x="172.930964" y="261.33558" style="stroke: #000000"/>
     <use xlink:href="#m74ae1308c3" x="289.886927" y="181.047355" style="stroke: #000000"/>
     <use xlink:href="#m74ae1308c3" x="309.357994" y="252.494476" style="stroke: #000000"/>
     <use xlink:href="#m74ae1308c3" x="329.768987" y="172.432217" style="stroke: #000000"/>
     <use xlink:href="#m74ae1308c3" x="305.137819" y="179.518491" style="stroke: #000000"/>
     <use xlink:href="#m74ae1308c3" x="303.562473" y="223.993207" style="stroke: #000000"/>
     <use xlink:href="#m74ae1308c3" x="135.791936" y="206.484656" style="stroke: #000000"/>
     <use xlink:href="#m74ae1308c3" x="324.938149" y="204.146625" style="stroke: #000000"/>
     <use xlink:href="#m74ae1308c3" x="354.216131" y="242.749837" style="stroke: #000000"/>
     <use xlink:href="#m74ae1308c3" x="326.964889" y="216.643994" style="stroke: #000000"/>
     <use xlink:href="#m74ae1308c3" x="217.435907" y="256.031271" style="stroke: #000000"/>
     <use xlink:href="#m74ae1308c3" x="291.41936" y="198.991133" style="stroke: #000000"/>
     <use xlink:href="#m74ae1308c3" x="344.683189" y="284.867068" style="stroke: #000000"/>
     <use xlink:href="#m74ae1308c3" x="359.802045" y="259.63633" style="stroke: #000000"/>
     <use xlink:href="#m74ae1308c3" x="124.979903" y="219.226097" style="stroke: #000000"/>
     <use xlink:href="#m74ae1308c3" x="243.524414" y="201.402998" style="stroke: #000000"/>
     <use xlink:href="#m74ae1308c3" x="327.896562" y="271.490577" style="stroke: #000000"/>
     <use xlink:href="#m74ae1308c3" x="358.43053" y="206.97165" style="stroke: #000000"/>
     <use xlink:href="#m74ae1308c3" x="431.719148" y="180.951675" style="stroke: #000000"/>
     <use xlink:href="#m74ae1308c3" x="362.191883" y="202.636371" style="stroke: #000000"/>
     <use xlink:href="#m74ae1308c3" x="256.316975" y="260.362418" style="stroke: #000000"/>
     <use xlink:href="#m74ae1308c3" x="309.226784" y="207.261223" style="stroke: #000000"/>
     <use xlink:href="#m74ae1308c3" x="372.171269" y="286.182721" style="stroke: #000000"/>
     <use xlink:href="#m74ae1308c3" x="363.943" y="179.855906" style="stroke: #000000"/>
     <use xlink:href="#m74ae1308c3" x="409.316074" y="284.537443" style="stroke: #000000"/>
     <use xlink:href="#m74ae1308c3" x="359.285458" y="202.667156" style="stroke: #000000"/>
    </g>
   </g>
   <g id="patch_3">
    <path d="M 47.82125 303.64 
L 47.82125 46.673817 
" style="fill: none; stroke: #000000; stroke-width: 0.8; stroke-linejoin: miter; stroke-linecap: square"/>
   </g>
   <g id="patch_4">
    <path d="M 450 303.64 
L 450 46.673817 
" style="fill: none; stroke: #000000; stroke-width: 0.8; stroke-linejoin: miter; stroke-linecap: square"/>
   </g>
   <g id="patch_5">
    <path d="M 47.82125 303.64 
L 450 303.64 
" style="fill: none; stroke: #000000; stroke-width: 0.8; stroke-linejoin: miter; stroke-linecap: square"/>
   </g>
   <g id="patch_6">
    <path d="M 47.82125 46.673817 
L 450 46.673817 
" style="fill: none; stroke: #000000; stroke-width: 0.8; stroke-linejoin: miter; stroke-linecap: square"/>
   </g>
   <g id="text_13">
    <!-- y = 0.00x + 0.99 -->
    <g transform="translate(45.118813 18.597251)scale(0.1 -0.1)">
     <defs>
      <path id="DejaVuSans-79" d="M 2059 -325 
Q 1816 -950 1584 -1140 
Q 1353 -1331 966 -1331 
L 506 -1331 
L 506 -850 
L 844 -850 
Q 1081 -850 1212 -737 
Q 1344 -625 1503 -206 
L 1606 56 
L 191 3500 
L 800 3500 
L 1894 763 
L 2988 3500 
L 3597 3500 
L 2059 -325 
z
" transform="scale(0.015625)"/>
      <path id="DejaVuSans-20" transform="scale(0.015625)"/>
      <path id="DejaVuSans-3d" d="M 678 2906 
L 4684 2906 
L 4684 2381 
L 678 2381 
L 678 2906 
z
M 678 1631 
L 4684 1631 
L 4684 1100 
L 678 1100 
L 678 1631 
z
" transform="scale(0.015625)"/>
      <path id="DejaVuSans-78" d="M 3513 3500 
L 2247 1797 
L 3578 0 
L 2900 0 
L 1881 1375 
L 863 0 
L 184 0 
L 1544 1831 
L 300 3500 
L 978 3500 
L 1906 2253 
L 2834 3500 
L 3513 3500 
z
" transform="scale(0.015625)"/>
      <path id="DejaVuSans-2b" d="M 2944 4013 
L 2944 2272 
L 4684 2272 
L 4684 1741 
L 2944 1741 
L 2944 0 
L 2419 0 
L 2419 1741 
L 678 1741 
L 678 2272 
L 2419 2272 
L 2419 4013 
L 2944 4013 
z
" transform="scale(0.015625)"/>
      <path id="DejaVuSans-39" d="M 703 97 
L 703 672 
Q 941 559 1184 500 
Q 1428 441 1663 441 
Q 2288 441 2617 861 
Q 2947 1281 2994 2138 
Q 2813 1869 2534 1725 
Q 2256 1581 1919 1581 
Q 1219 1581 811 2004 
Q 403 2428 403 3163 
Q 403 3881 828 4315 
Q 1253 4750 1959 4750 
Q 2769 4750 3195 4129 
Q 3622 3509 3622 2328 
Q 3622 1225 3098 567 
Q 2575 -91 1691 -91 
Q 1453 -91 1209 -44 
Q 966 3 703 97 
z
M 1959 2075 
Q 2384 2075 2632 2365 
Q 2881 2656 2881 3163 
Q 2881 3666 2632 3958 
Q 2384 4250 1959 4250 
Q 1534 4250 1286 3958 
Q 1038 3666 1038 3163 
Q 1038 2656 1286 2365 
Q 1534 2075 1959 2075 
z
" transform="scale(0.015625)"/>
     </defs>
     <use xlink:href="#DejaVuSans-79"/>
     <use xlink:href="#DejaVuSans-20" x="59.179688"/>
     <use xlink:href="#DejaVuSans-3d" x="90.966797"/>
     <use xlink:href="#DejaVuSans-20" x="174.755859"/>
     <use xlink:href="#DejaVuSans-30" x="206.542969"/>
     <use xlink:href="#DejaVuSans-2e" x="270.166016"/>
     <use xlink:href="#DejaVuSans-30" x="301.953125"/>
     <use xlink:href="#DejaVuSans-30" x="365.576172"/>
     <use xlink:href="#DejaVuSans-78" x="429.199219"/>
     <use xlink:href="#DejaVuSans-20" x="488.378906"/>
     <use xlink:href="#DejaVuSans-2b" x="520.166016"/>
     <use xlink:href="#DejaVuSans-20" x="603.955078"/>
     <use xlink:href="#DejaVuSans-30" x="635.742188"/>
     <use xlink:href="#DejaVuSans-2e" x="699.365234"/>
     <use xlink:href="#DejaVuSans-39" x="731.152344"/>
     <use xlink:href="#DejaVuSans-39" x="794.775391"/>
    </g>
   </g>
   <g id="text_14">
    <!-- r^2 = 0.00 -->
    <g transform="translate(60.111781 26.306236)scale(0.1 -0.1)">
     <defs>
      <path id="DejaVuSans-5e" d="M 2988 4666 
L 4684 2925 
L 4056 2925 
L 2681 4159 
L 1306 2925 
L 678 2925 
L 2375 4666 
L 2988 4666 
z
" transform="scale(0.015625)"/>
     </defs>
     <use xlink:href="#DejaVuSans-72"/>
     <use xlink:href="#DejaVuSans-5e" x="41.113281"/>
     <use xlink:href="#DejaVuSans-32" x="124.902344"/>
     <use xlink:href="#DejaVuSans-20" x="188.525391"/>
     <use xlink:href="#DejaVuSans-3d" x="220.3125"/>
     <use xlink:href="#DejaVuSans-20" x="304.101562"/>
     <use xlink:href="#DejaVuSans-30" x="335.888672"/>
     <use xlink:href="#DejaVuSans-2e" x="399.511719"/>
     <use xlink:href="#DejaVuSans-30" x="431.298828"/>
     <use xlink:href="#DejaVuSans-30" x="494.921875"/>
    </g>
   </g>
   <g id="text_15">
    <!-- n = 113 -->
    <g transform="translate(67.958656 34.015221)scale(0.1 -0.1)">
     <use xlink:href="#DejaVuSans-6e"/>
     <use xlink:href="#DejaVuSans-20" x="63.378906"/>
     <use xlink:href="#DejaVuSans-3d" x="95.166016"/>
     <use xlink:href="#DejaVuSans-20" x="178.955078"/>
     <use xlink:href="#DejaVuSans-31" x="210.742188"/>
     <use xlink:href="#DejaVuSans-31" x="274.365234"/>
     <use xlink:href="#DejaVuSans-33" x="337.988281"/>
    </g>
   </g>
   <g id="text_16">
    <!-- HBONDDiff vs PercentGpA_transformed -->
    <g transform="translate(130.507187 40.673817)scale(0.12 -0.12)">
     <defs>
      <path id="DejaVuSans-76" d="M 191 3500 
L 800 3500 
L 1894 563 
L 2988 3500 
L 3597 3500 
L 2284 0 
L 1503 0 
L 191 3500 
z
" transform="scale(0.015625)"/>
     </defs>
     <use xlink:href="#DejaVuSans-48"/>
     <use xlink:href="#DejaVuSans-42" x="75.195312"/>
     <use xlink:href="#DejaVuSans-4f" x="142.048828"/>
     <use xlink:href="#DejaVuSans-4e" x="220.759766"/>
     <use xlink:href="#DejaVuSans-44" x="295.564453"/>
     <use xlink:href="#DejaVuSans-44" x="372.566406"/>
     <use xlink:href="#DejaVuSans-69" x="449.568359"/>
     <use xlink:href="#DejaVuSans-66" x="477.351562"/>
     <use xlink:href="#DejaVuSans-66" x="512.556641"/>
     <use xlink:href="#DejaVuSans-20" x="547.761719"/>
     <use xlink:href="#DejaVuSans-76" x="579.548828"/>
     <use xlink:href="#DejaVuSans-73" x="638.728516"/>
     <use xlink:href="#DejaVuSans-20" x="690.828125"/>
     <use xlink:href="#DejaVuSans-50" x="722.615234"/>
     <use xlink:href="#DejaVuSans-65" x="779.292969"/>
     <use xlink:href="#DejaVuSans-72" x="840.816406"/>
     <use xlink:href="#DejaVuSans-63" x="879.679688"/>
     <use xlink:href="#DejaVuSans-65" x="934.660156"/>
     <use xlink:href="#DejaVuSans-6e" x="996.183594"/>
     <use xlink:href="#DejaVuSans-74" x="1059.5625"/>
     <use xlink:href="#DejaVuSans-47" x="1098.771484"/>
     <use xlink:href="#DejaVuSans-70" x="1176.261719"/>
     <use xlink:href="#DejaVuSans-41" x="1239.738281"/>
     <use xlink:href="#DejaVuSans-5f" x="1308.146484"/>
     <use xlink:href="#DejaVuSans-74" x="1358.146484"/>
     <use xlink:href="#DejaVuSans-72" x="1397.355469"/>
     <use xlink:href="#DejaVuSans-61" x="1438.46875"/>
     <use xlink:href="#DejaVuSans-6e" x="1499.748047"/>
     <use xlink:href="#DejaVuSans-73" x="1563.126953"/>
     <use xlink:href="#DejaVuSans-66" x="1615.226562"/>
     <use xlink:href="#DejaVuSans-6f" x="1650.431641"/>
     <use xlink:href="#DejaVuSans-72" x="1711.613281"/>
     <use xlink:href="#DejaVuSans-6d" x="1750.976562"/>
     <use xlink:href="#DejaVuSans-65" x="1848.388672"/>
     <use xlink:href="#DejaVuSans-64" x="1909.912109"/>
    </g>
   </g>
  </g>
 </g>
 <defs>
  <clipPath id="pd2eb2e3ce6">
   <rect x="47.82125" y="46.673817" width="402.17875" height="256.966183"/>
  </clipPath>
 </defs>
</svg>
