<?xml version="1.0" encoding="utf-8" standalone="no"?>
<!DOCTYPE svg PUBLIC "-//W3C//DTD SVG 1.1//EN"
  "http://www.w3.org/Graphics/SVG/1.1/DTD/svg11.dtd">
<svg xmlns:xlink="http://www.w3.org/1999/xlink" width="460.8pt" height="345.6pt" viewBox="0 0 460.8 345.6" xmlns="http://www.w3.org/2000/svg" version="1.1">
 <metadata>
  <rdf:RDF xmlns:dc="http://purl.org/dc/elements/1.1/" xmlns:cc="http://creativecommons.org/ns#" xmlns:rdf="http://www.w3.org/1999/02/22-rdf-syntax-ns#">
   <cc:Work>
    <dc:type rdf:resource="http://purl.org/dc/dcmitype/StillImage"/>
    <dc:date>2024-02-03T13:11:18.611636</dc:date>
    <dc:format>image/svg+xml</dc:format>
    <dc:creator>
     <cc:Agent>
      <dc:title>Matplotlib v3.5.3, https://matplotlib.org/</dc:title>
     </cc:Agent>
    </dc:creator>
   </cc:Work>
  </rdf:RDF>
 </metadata>
 <defs>
  <style type="text/css">*{stroke-linejoin: round; stroke-linecap: butt}</style>
 </defs>
 <g id="figure_1">
  <g id="patch_1">
   <path d="M 0 345.6 
L 460.8 345.6 
L 460.8 0 
L 0 0 
z
" style="fill: #ffffff"/>
  </g>
  <g id="axes_1">
   <g id="patch_2">
    <path d="M 47.82125 303.64 
L 450 303.64 
L 450 46.691522 
L 47.82125 46.691522 
z
" style="fill: #ffffff"/>
   </g>
   <g id="PathCollection_1">
    <defs>
     <path id="m9c80e3d7d9" d="M 0 3 
C 0.795609 3 1.55874 2.683901 2.12132 2.12132 
C 2.683901 1.55874 3 0.795609 3 0 
C 3 -0.795609 2.683901 -1.55874 2.12132 -2.12132 
C 1.55874 -2.683901 0.795609 -3 0 -3 
C -0.795609 -3 -1.55874 -2.683901 -2.12132 -2.12132 
C -2.683901 -1.55874 -3 -0.795609 -3 0 
C -3 0.795609 -2.683901 1.55874 -2.12132 2.12132 
C -1.55874 2.683901 -0.795609 3 0 3 
z
" style="stroke: #1f77b4"/>
    </defs>
    <g clip-path="url(#p7c40dd1272)">
     <use xlink:href="#m9c80e3d7d9" x="166.957516" y="215.561027" style="fill: #1f77b4; stroke: #1f77b4"/>
     <use xlink:href="#m9c80e3d7d9" x="169.200544" y="246.923057" style="fill: #1f77b4; stroke: #1f77b4"/>
     <use xlink:href="#m9c80e3d7d9" x="106.645239" y="203.113979" style="fill: #1f77b4; stroke: #1f77b4"/>
     <use xlink:href="#m9c80e3d7d9" x="221.016572" y="217.464336" style="fill: #1f77b4; stroke: #1f77b4"/>
     <use xlink:href="#m9c80e3d7d9" x="79.753157" y="200.645868" style="fill: #1f77b4; stroke: #1f77b4"/>
     <use xlink:href="#m9c80e3d7d9" x="66.102102" y="221.1389" style="fill: #1f77b4; stroke: #1f77b4"/>
     <use xlink:href="#m9c80e3d7d9" x="82.280318" y="207.674503" style="fill: #1f77b4; stroke: #1f77b4"/>
     <use xlink:href="#m9c80e3d7d9" x="121.230697" y="193.038555" style="fill: #1f77b4; stroke: #1f77b4"/>
     <use xlink:href="#m9c80e3d7d9" x="236.353941" y="236.383941" style="fill: #1f77b4; stroke: #1f77b4"/>
     <use xlink:href="#m9c80e3d7d9" x="136.533416" y="284.284872" style="fill: #1f77b4; stroke: #1f77b4"/>
     <use xlink:href="#m9c80e3d7d9" x="219.330259" y="249.890927" style="fill: #1f77b4; stroke: #1f77b4"/>
     <use xlink:href="#m9c80e3d7d9" x="142.66767" y="228.378553" style="fill: #1f77b4; stroke: #1f77b4"/>
     <use xlink:href="#m9c80e3d7d9" x="191.321283" y="233.888503" style="fill: #1f77b4; stroke: #1f77b4"/>
     <use xlink:href="#m9c80e3d7d9" x="140.898196" y="223.473401" style="fill: #1f77b4; stroke: #1f77b4"/>
     <use xlink:href="#m9c80e3d7d9" x="163.448598" y="207.897742" style="fill: #1f77b4; stroke: #1f77b4"/>
     <use xlink:href="#m9c80e3d7d9" x="323.909423" y="253.624014" style="fill: #1f77b4; stroke: #1f77b4"/>
     <use xlink:href="#m9c80e3d7d9" x="172.148128" y="222.373417" style="fill: #1f77b4; stroke: #1f77b4"/>
     <use xlink:href="#m9c80e3d7d9" x="121.875192" y="204.787844" style="fill: #1f77b4; stroke: #1f77b4"/>
     <use xlink:href="#m9c80e3d7d9" x="176.257651" y="278.891059" style="fill: #1f77b4; stroke: #1f77b4"/>
     <use xlink:href="#m9c80e3d7d9" x="220.015179" y="213.855848" style="fill: #1f77b4; stroke: #1f77b4"/>
     <use xlink:href="#m9c80e3d7d9" x="125.295175" y="242.222181" style="fill: #1f77b4; stroke: #1f77b4"/>
     <use xlink:href="#m9c80e3d7d9" x="190.885844" y="217.15613" style="fill: #1f77b4; stroke: #1f77b4"/>
     <use xlink:href="#m9c80e3d7d9" x="270.177234" y="274.2434" style="fill: #1f77b4; stroke: #1f77b4"/>
     <use xlink:href="#m9c80e3d7d9" x="173.118336" y="203.288866" style="fill: #1f77b4; stroke: #1f77b4"/>
     <use xlink:href="#m9c80e3d7d9" x="135.797675" y="186.462764" style="fill: #1f77b4; stroke: #1f77b4"/>
     <use xlink:href="#m9c80e3d7d9" x="154.669372" y="219.227888" style="fill: #1f77b4; stroke: #1f77b4"/>
     <use xlink:href="#m9c80e3d7d9" x="120.265109" y="284.36884" style="fill: #1f77b4; stroke: #1f77b4"/>
     <use xlink:href="#m9c80e3d7d9" x="115.194618" y="216.164112" style="fill: #1f77b4; stroke: #1f77b4"/>
     <use xlink:href="#m9c80e3d7d9" x="180.055322" y="188.836036" style="fill: #1f77b4; stroke: #1f77b4"/>
     <use xlink:href="#m9c80e3d7d9" x="134.672696" y="211.404361" style="fill: #1f77b4; stroke: #1f77b4"/>
     <use xlink:href="#m9c80e3d7d9" x="171.344242" y="259.261659" style="fill: #1f77b4; stroke: #1f77b4"/>
     <use xlink:href="#m9c80e3d7d9" x="190.37764" y="177.992876" style="fill: #1f77b4; stroke: #1f77b4"/>
     <use xlink:href="#m9c80e3d7d9" x="282.65018" y="243.662212" style="fill: #1f77b4; stroke: #1f77b4"/>
     <use xlink:href="#m9c80e3d7d9" x="186.540699" y="250.433354" style="fill: #1f77b4; stroke: #1f77b4"/>
     <use xlink:href="#m9c80e3d7d9" x="257.602648" y="261.069248" style="fill: #1f77b4; stroke: #1f77b4"/>
     <use xlink:href="#m9c80e3d7d9" x="101.831161" y="225.733266" style="fill: #1f77b4; stroke: #1f77b4"/>
     <use xlink:href="#m9c80e3d7d9" x="173.799791" y="207.768617" style="fill: #1f77b4; stroke: #1f77b4"/>
     <use xlink:href="#m9c80e3d7d9" x="249.671199" y="236.152108" style="fill: #1f77b4; stroke: #1f77b4"/>
     <use xlink:href="#m9c80e3d7d9" x="254.508378" y="237.760018" style="fill: #1f77b4; stroke: #1f77b4"/>
     <use xlink:href="#m9c80e3d7d9" x="157.106442" y="229.421623" style="fill: #1f77b4; stroke: #1f77b4"/>
     <use xlink:href="#m9c80e3d7d9" x="250.009616" y="186.593634" style="fill: #1f77b4; stroke: #1f77b4"/>
     <use xlink:href="#m9c80e3d7d9" x="153.205975" y="211.778361" style="fill: #1f77b4; stroke: #1f77b4"/>
     <use xlink:href="#m9c80e3d7d9" x="172.625147" y="287.86614" style="fill: #1f77b4; stroke: #1f77b4"/>
     <use xlink:href="#m9c80e3d7d9" x="336.54869" y="258.428969" style="fill: #1f77b4; stroke: #1f77b4"/>
     <use xlink:href="#m9c80e3d7d9" x="259.146895" y="221.955231" style="fill: #1f77b4; stroke: #1f77b4"/>
     <use xlink:href="#m9c80e3d7d9" x="181.340847" y="210.022631" style="fill: #1f77b4; stroke: #1f77b4"/>
     <use xlink:href="#m9c80e3d7d9" x="229.631787" y="239.118639" style="fill: #1f77b4; stroke: #1f77b4"/>
     <use xlink:href="#m9c80e3d7d9" x="203.244444" y="281.956173" style="fill: #1f77b4; stroke: #1f77b4"/>
     <use xlink:href="#m9c80e3d7d9" x="226.283415" y="234.301078" style="fill: #1f77b4; stroke: #1f77b4"/>
     <use xlink:href="#m9c80e3d7d9" x="198.109273" y="230.475429" style="fill: #1f77b4; stroke: #1f77b4"/>
     <use xlink:href="#m9c80e3d7d9" x="307.730052" y="224.502818" style="fill: #1f77b4; stroke: #1f77b4"/>
     <use xlink:href="#m9c80e3d7d9" x="232.50314" y="216.918194" style="fill: #1f77b4; stroke: #1f77b4"/>
     <use xlink:href="#m9c80e3d7d9" x="199.05638" y="201.183947" style="fill: #1f77b4; stroke: #1f77b4"/>
     <use xlink:href="#m9c80e3d7d9" x="247.95832" y="209.763964" style="fill: #1f77b4; stroke: #1f77b4"/>
     <use xlink:href="#m9c80e3d7d9" x="281.086297" y="217.835451" style="fill: #1f77b4; stroke: #1f77b4"/>
     <use xlink:href="#m9c80e3d7d9" x="325.008992" y="243.772798" style="fill: #1f77b4; stroke: #1f77b4"/>
     <use xlink:href="#m9c80e3d7d9" x="278.851354" y="232.182117" style="fill: #1f77b4; stroke: #1f77b4"/>
     <use xlink:href="#m9c80e3d7d9" x="263.218303" y="204.322716" style="fill: #1f77b4; stroke: #1f77b4"/>
     <use xlink:href="#m9c80e3d7d9" x="252.729663" y="279.365974" style="fill: #1f77b4; stroke: #1f77b4"/>
     <use xlink:href="#m9c80e3d7d9" x="214.889248" y="252.078592" style="fill: #1f77b4; stroke: #1f77b4"/>
     <use xlink:href="#m9c80e3d7d9" x="191.964623" y="209.03129" style="fill: #1f77b4; stroke: #1f77b4"/>
     <use xlink:href="#m9c80e3d7d9" x="219.617856" y="255.549981" style="fill: #1f77b4; stroke: #1f77b4"/>
     <use xlink:href="#m9c80e3d7d9" x="206.000296" y="242.512616" style="fill: #1f77b4; stroke: #1f77b4"/>
     <use xlink:href="#m9c80e3d7d9" x="168.342372" y="291.489813" style="fill: #1f77b4; stroke: #1f77b4"/>
     <use xlink:href="#m9c80e3d7d9" x="262.23308" y="284.398224" style="fill: #1f77b4; stroke: #1f77b4"/>
     <use xlink:href="#m9c80e3d7d9" x="270.285805" y="237.057202" style="fill: #1f77b4; stroke: #1f77b4"/>
     <use xlink:href="#m9c80e3d7d9" x="264.634344" y="222.134093" style="fill: #1f77b4; stroke: #1f77b4"/>
     <use xlink:href="#m9c80e3d7d9" x="187.406956" y="194.062265" style="fill: #1f77b4; stroke: #1f77b4"/>
     <use xlink:href="#m9c80e3d7d9" x="268.663017" y="243.616032" style="fill: #1f77b4; stroke: #1f77b4"/>
     <use xlink:href="#m9c80e3d7d9" x="169.648688" y="201.475875" style="fill: #1f77b4; stroke: #1f77b4"/>
     <use xlink:href="#m9c80e3d7d9" x="220.432138" y="234.614958" style="fill: #1f77b4; stroke: #1f77b4"/>
     <use xlink:href="#m9c80e3d7d9" x="193.210878" y="154.029359" style="fill: #1f77b4; stroke: #1f77b4"/>
     <use xlink:href="#m9c80e3d7d9" x="272.471083" y="285.778607" style="fill: #1f77b4; stroke: #1f77b4"/>
     <use xlink:href="#m9c80e3d7d9" x="151.710238" y="213.594669" style="fill: #1f77b4; stroke: #1f77b4"/>
     <use xlink:href="#m9c80e3d7d9" x="414.555709" y="259.198502" style="fill: #1f77b4; stroke: #1f77b4"/>
     <use xlink:href="#m9c80e3d7d9" x="220.281986" y="234.634779" style="fill: #1f77b4; stroke: #1f77b4"/>
     <use xlink:href="#m9c80e3d7d9" x="178.791742" y="279.477539" style="fill: #1f77b4; stroke: #1f77b4"/>
     <use xlink:href="#m9c80e3d7d9" x="221.721128" y="210.626308" style="fill: #1f77b4; stroke: #1f77b4"/>
     <use xlink:href="#m9c80e3d7d9" x="256.887697" y="276.690417" style="fill: #1f77b4; stroke: #1f77b4"/>
     <use xlink:href="#m9c80e3d7d9" x="232.634811" y="218.5708" style="fill: #1f77b4; stroke: #1f77b4"/>
     <use xlink:href="#m9c80e3d7d9" x="290.611659" y="225.983263" style="fill: #1f77b4; stroke: #1f77b4"/>
     <use xlink:href="#m9c80e3d7d9" x="210.086719" y="221.616241" style="fill: #1f77b4; stroke: #1f77b4"/>
     <use xlink:href="#m9c80e3d7d9" x="268.825873" y="217.36433" style="fill: #1f77b4; stroke: #1f77b4"/>
     <use xlink:href="#m9c80e3d7d9" x="248.920443" y="283.111863" style="fill: #1f77b4; stroke: #1f77b4"/>
     <use xlink:href="#m9c80e3d7d9" x="199.332427" y="204.528211" style="fill: #1f77b4; stroke: #1f77b4"/>
     <use xlink:href="#m9c80e3d7d9" x="255.103207" y="203.292178" style="fill: #1f77b4; stroke: #1f77b4"/>
     <use xlink:href="#m9c80e3d7d9" x="329.437297" y="239.248403" style="fill: #1f77b4; stroke: #1f77b4"/>
     <use xlink:href="#m9c80e3d7d9" x="196.017551" y="254.412471" style="fill: #1f77b4; stroke: #1f77b4"/>
     <use xlink:href="#m9c80e3d7d9" x="265.601087" y="288.985182" style="fill: #1f77b4; stroke: #1f77b4"/>
     <use xlink:href="#m9c80e3d7d9" x="431.719148" y="235.394364" style="fill: #1f77b4; stroke: #1f77b4"/>
     <use xlink:href="#m9c80e3d7d9" x="384.989781" y="220.985023" style="fill: #1f77b4; stroke: #1f77b4"/>
     <use xlink:href="#m9c80e3d7d9" x="293.790245" y="225.487081" style="fill: #1f77b4; stroke: #1f77b4"/>
     <use xlink:href="#m9c80e3d7d9" x="327.822594" y="268.651616" style="fill: #1f77b4; stroke: #1f77b4"/>
     <use xlink:href="#m9c80e3d7d9" x="251.66821" y="225.72119" style="fill: #1f77b4; stroke: #1f77b4"/>
     <use xlink:href="#m9c80e3d7d9" x="285.782565" y="203.564967" style="fill: #1f77b4; stroke: #1f77b4"/>
     <use xlink:href="#m9c80e3d7d9" x="291.822109" y="288.196263" style="fill: #1f77b4; stroke: #1f77b4"/>
     <use xlink:href="#m9c80e3d7d9" x="362.702721" y="213.748763" style="fill: #1f77b4; stroke: #1f77b4"/>
     <use xlink:href="#m9c80e3d7d9" x="249.89296" y="222.00705" style="fill: #1f77b4; stroke: #1f77b4"/>
    </g>
   </g>
   <g id="matplotlib.axis_1">
    <g id="xtick_1">
     <g id="line2d_1">
      <defs>
       <path id="mae6be488f5" d="M 0 0 
L 0 3.5 
" style="stroke: #000000; stroke-width: 0.8"/>
      </defs>
      <g>
       <use xlink:href="#mae6be488f5" x="83.296726" y="303.64" style="stroke: #000000; stroke-width: 0.8"/>
      </g>
     </g>
     <g id="text_1">
      <!-- −50 -->
      <g transform="translate(72.744382 318.238437)scale(0.1 -0.1)">
       <defs>
        <path id="DejaVuSans-2212" d="M 678 2272 
L 4684 2272 
L 4684 1741 
L 678 1741 
L 678 2272 
z
" transform="scale(0.015625)"/>
        <path id="DejaVuSans-35" d="M 691 4666 
L 3169 4666 
L 3169 4134 
L 1269 4134 
L 1269 2991 
Q 1406 3038 1543 3061 
Q 1681 3084 1819 3084 
Q 2600 3084 3056 2656 
Q 3513 2228 3513 1497 
Q 3513 744 3044 326 
Q 2575 -91 1722 -91 
Q 1428 -91 1123 -41 
Q 819 9 494 109 
L 494 744 
Q 775 591 1075 516 
Q 1375 441 1709 441 
Q 2250 441 2565 725 
Q 2881 1009 2881 1497 
Q 2881 1984 2565 2268 
Q 2250 2553 1709 2553 
Q 1456 2553 1204 2497 
Q 953 2441 691 2322 
L 691 4666 
z
" transform="scale(0.015625)"/>
        <path id="DejaVuSans-30" d="M 2034 4250 
Q 1547 4250 1301 3770 
Q 1056 3291 1056 2328 
Q 1056 1369 1301 889 
Q 1547 409 2034 409 
Q 2525 409 2770 889 
Q 3016 1369 3016 2328 
Q 3016 3291 2770 3770 
Q 2525 4250 2034 4250 
z
M 2034 4750 
Q 2819 4750 3233 4129 
Q 3647 3509 3647 2328 
Q 3647 1150 3233 529 
Q 2819 -91 2034 -91 
Q 1250 -91 836 529 
Q 422 1150 422 2328 
Q 422 3509 836 4129 
Q 1250 4750 2034 4750 
z
" transform="scale(0.015625)"/>
       </defs>
       <use xlink:href="#DejaVuSans-2212"/>
       <use xlink:href="#DejaVuSans-35" x="83.789062"/>
       <use xlink:href="#DejaVuSans-30" x="147.412109"/>
      </g>
     </g>
    </g>
    <g id="xtick_2">
     <g id="line2d_2">
      <g>
       <use xlink:href="#mae6be488f5" x="141.047192" y="303.64" style="stroke: #000000; stroke-width: 0.8"/>
      </g>
     </g>
     <g id="text_2">
      <!-- −45 -->
      <g transform="translate(130.494848 318.238437)scale(0.1 -0.1)">
       <defs>
        <path id="DejaVuSans-34" d="M 2419 4116 
L 825 1625 
L 2419 1625 
L 2419 4116 
z
M 2253 4666 
L 3047 4666 
L 3047 1625 
L 3713 1625 
L 3713 1100 
L 3047 1100 
L 3047 0 
L 2419 0 
L 2419 1100 
L 313 1100 
L 313 1709 
L 2253 4666 
z
" transform="scale(0.015625)"/>
       </defs>
       <use xlink:href="#DejaVuSans-2212"/>
       <use xlink:href="#DejaVuSans-34" x="83.789062"/>
       <use xlink:href="#DejaVuSans-35" x="147.412109"/>
      </g>
     </g>
    </g>
    <g id="xtick_3">
     <g id="line2d_3">
      <g>
       <use xlink:href="#mae6be488f5" x="198.797658" y="303.64" style="stroke: #000000; stroke-width: 0.8"/>
      </g>
     </g>
     <g id="text_3">
      <!-- −40 -->
      <g transform="translate(188.245314 318.238437)scale(0.1 -0.1)">
       <use xlink:href="#DejaVuSans-2212"/>
       <use xlink:href="#DejaVuSans-34" x="83.789062"/>
       <use xlink:href="#DejaVuSans-30" x="147.412109"/>
      </g>
     </g>
    </g>
    <g id="xtick_4">
     <g id="line2d_4">
      <g>
       <use xlink:href="#mae6be488f5" x="256.548124" y="303.64" style="stroke: #000000; stroke-width: 0.8"/>
      </g>
     </g>
     <g id="text_4">
      <!-- −35 -->
      <g transform="translate(245.99578 318.238437)scale(0.1 -0.1)">
       <defs>
        <path id="DejaVuSans-33" d="M 2597 2516 
Q 3050 2419 3304 2112 
Q 3559 1806 3559 1356 
Q 3559 666 3084 287 
Q 2609 -91 1734 -91 
Q 1441 -91 1130 -33 
Q 819 25 488 141 
L 488 750 
Q 750 597 1062 519 
Q 1375 441 1716 441 
Q 2309 441 2620 675 
Q 2931 909 2931 1356 
Q 2931 1769 2642 2001 
Q 2353 2234 1838 2234 
L 1294 2234 
L 1294 2753 
L 1863 2753 
Q 2328 2753 2575 2939 
Q 2822 3125 2822 3475 
Q 2822 3834 2567 4026 
Q 2313 4219 1838 4219 
Q 1578 4219 1281 4162 
Q 984 4106 628 3988 
L 628 4550 
Q 988 4650 1302 4700 
Q 1616 4750 1894 4750 
Q 2613 4750 3031 4423 
Q 3450 4097 3450 3541 
Q 3450 3153 3228 2886 
Q 3006 2619 2597 2516 
z
" transform="scale(0.015625)"/>
       </defs>
       <use xlink:href="#DejaVuSans-2212"/>
       <use xlink:href="#DejaVuSans-33" x="83.789062"/>
       <use xlink:href="#DejaVuSans-35" x="147.412109"/>
      </g>
     </g>
    </g>
    <g id="xtick_5">
     <g id="line2d_5">
      <g>
       <use xlink:href="#mae6be488f5" x="314.29859" y="303.64" style="stroke: #000000; stroke-width: 0.8"/>
      </g>
     </g>
     <g id="text_5">
      <!-- −30 -->
      <g transform="translate(303.746246 318.238437)scale(0.1 -0.1)">
       <use xlink:href="#DejaVuSans-2212"/>
       <use xlink:href="#DejaVuSans-33" x="83.789062"/>
       <use xlink:href="#DejaVuSans-30" x="147.412109"/>
      </g>
     </g>
    </g>
    <g id="xtick_6">
     <g id="line2d_6">
      <g>
       <use xlink:href="#mae6be488f5" x="372.049056" y="303.64" style="stroke: #000000; stroke-width: 0.8"/>
      </g>
     </g>
     <g id="text_6">
      <!-- −25 -->
      <g transform="translate(361.496712 318.238437)scale(0.1 -0.1)">
       <defs>
        <path id="DejaVuSans-32" d="M 1228 531 
L 3431 531 
L 3431 0 
L 469 0 
L 469 531 
Q 828 903 1448 1529 
Q 2069 2156 2228 2338 
Q 2531 2678 2651 2914 
Q 2772 3150 2772 3378 
Q 2772 3750 2511 3984 
Q 2250 4219 1831 4219 
Q 1534 4219 1204 4116 
Q 875 4013 500 3803 
L 500 4441 
Q 881 4594 1212 4672 
Q 1544 4750 1819 4750 
Q 2544 4750 2975 4387 
Q 3406 4025 3406 3419 
Q 3406 3131 3298 2873 
Q 3191 2616 2906 2266 
Q 2828 2175 2409 1742 
Q 1991 1309 1228 531 
z
" transform="scale(0.015625)"/>
       </defs>
       <use xlink:href="#DejaVuSans-2212"/>
       <use xlink:href="#DejaVuSans-32" x="83.789062"/>
       <use xlink:href="#DejaVuSans-35" x="147.412109"/>
      </g>
     </g>
    </g>
    <g id="xtick_7">
     <g id="line2d_7">
      <g>
       <use xlink:href="#mae6be488f5" x="429.799522" y="303.64" style="stroke: #000000; stroke-width: 0.8"/>
      </g>
     </g>
     <g id="text_7">
      <!-- −20 -->
      <g transform="translate(419.247178 318.238437)scale(0.1 -0.1)">
       <use xlink:href="#DejaVuSans-2212"/>
       <use xlink:href="#DejaVuSans-32" x="83.789062"/>
       <use xlink:href="#DejaVuSans-30" x="147.412109"/>
      </g>
     </g>
    </g>
    <g id="text_8">
     <!-- VDWDiff -->
     <g transform="translate(227.937187 331.916562)scale(0.1 -0.1)">
      <defs>
       <path id="DejaVuSans-56" d="M 1831 0 
L 50 4666 
L 709 4666 
L 2188 738 
L 3669 4666 
L 4325 4666 
L 2547 0 
L 1831 0 
z
" transform="scale(0.015625)"/>
       <path id="DejaVuSans-44" d="M 1259 4147 
L 1259 519 
L 2022 519 
Q 2988 519 3436 956 
Q 3884 1394 3884 2338 
Q 3884 3275 3436 3711 
Q 2988 4147 2022 4147 
L 1259 4147 
z
M 628 4666 
L 1925 4666 
Q 3281 4666 3915 4102 
Q 4550 3538 4550 2338 
Q 4550 1131 3912 565 
Q 3275 0 1925 0 
L 628 0 
L 628 4666 
z
" transform="scale(0.015625)"/>
       <path id="DejaVuSans-57" d="M 213 4666 
L 850 4666 
L 1831 722 
L 2809 4666 
L 3519 4666 
L 4500 722 
L 5478 4666 
L 6119 4666 
L 4947 0 
L 4153 0 
L 3169 4050 
L 2175 0 
L 1381 0 
L 213 4666 
z
" transform="scale(0.015625)"/>
       <path id="DejaVuSans-69" d="M 603 3500 
L 1178 3500 
L 1178 0 
L 603 0 
L 603 3500 
z
M 603 4863 
L 1178 4863 
L 1178 4134 
L 603 4134 
L 603 4863 
z
" transform="scale(0.015625)"/>
       <path id="DejaVuSans-66" d="M 2375 4863 
L 2375 4384 
L 1825 4384 
Q 1516 4384 1395 4259 
Q 1275 4134 1275 3809 
L 1275 3500 
L 2222 3500 
L 2222 3053 
L 1275 3053 
L 1275 0 
L 697 0 
L 697 3053 
L 147 3053 
L 147 3500 
L 697 3500 
L 697 3744 
Q 697 4328 969 4595 
Q 1241 4863 1831 4863 
L 2375 4863 
z
" transform="scale(0.015625)"/>
      </defs>
      <use xlink:href="#DejaVuSans-56"/>
      <use xlink:href="#DejaVuSans-44" x="68.408203"/>
      <use xlink:href="#DejaVuSans-57" x="145.410156"/>
      <use xlink:href="#DejaVuSans-44" x="244.287109"/>
      <use xlink:href="#DejaVuSans-69" x="321.289062"/>
      <use xlink:href="#DejaVuSans-66" x="349.072266"/>
      <use xlink:href="#DejaVuSans-66" x="384.277344"/>
     </g>
    </g>
   </g>
   <g id="matplotlib.axis_2">
    <g id="ytick_1">
     <g id="line2d_8">
      <defs>
       <path id="m3e36cfc078" d="M 0 0 
L -3.5 0 
" style="stroke: #000000; stroke-width: 0.8"/>
      </defs>
      <g>
       <use xlink:href="#m3e36cfc078" x="47.82125" y="303.64" style="stroke: #000000; stroke-width: 0.8"/>
      </g>
     </g>
     <g id="text_9">
      <!-- 0.0 -->
      <g transform="translate(24.918125 307.439219)scale(0.1 -0.1)">
       <defs>
        <path id="DejaVuSans-2e" d="M 684 794 
L 1344 794 
L 1344 0 
L 684 0 
L 684 794 
z
" transform="scale(0.015625)"/>
       </defs>
       <use xlink:href="#DejaVuSans-30"/>
       <use xlink:href="#DejaVuSans-2e" x="63.623047"/>
       <use xlink:href="#DejaVuSans-30" x="95.410156"/>
      </g>
     </g>
    </g>
    <g id="ytick_2">
     <g id="line2d_9">
      <g>
       <use xlink:href="#m3e36cfc078" x="47.82125" y="260.644696" style="stroke: #000000; stroke-width: 0.8"/>
      </g>
     </g>
     <g id="text_10">
      <!-- 0.5 -->
      <g transform="translate(24.918125 264.443915)scale(0.1 -0.1)">
       <use xlink:href="#DejaVuSans-30"/>
       <use xlink:href="#DejaVuSans-2e" x="63.623047"/>
       <use xlink:href="#DejaVuSans-35" x="95.410156"/>
      </g>
     </g>
    </g>
    <g id="ytick_3">
     <g id="line2d_10">
      <g>
       <use xlink:href="#m3e36cfc078" x="47.82125" y="217.649392" style="stroke: #000000; stroke-width: 0.8"/>
      </g>
     </g>
     <g id="text_11">
      <!-- 1.0 -->
      <g transform="translate(24.918125 221.448611)scale(0.1 -0.1)">
       <defs>
        <path id="DejaVuSans-31" d="M 794 531 
L 1825 531 
L 1825 4091 
L 703 3866 
L 703 4441 
L 1819 4666 
L 2450 4666 
L 2450 531 
L 3481 531 
L 3481 0 
L 794 0 
L 794 531 
z
" transform="scale(0.015625)"/>
       </defs>
       <use xlink:href="#DejaVuSans-31"/>
       <use xlink:href="#DejaVuSans-2e" x="63.623047"/>
       <use xlink:href="#DejaVuSans-30" x="95.410156"/>
      </g>
     </g>
    </g>
    <g id="ytick_4">
     <g id="line2d_11">
      <g>
       <use xlink:href="#m3e36cfc078" x="47.82125" y="174.654089" style="stroke: #000000; stroke-width: 0.8"/>
      </g>
     </g>
     <g id="text_12">
      <!-- 1.5 -->
      <g transform="translate(24.918125 178.453307)scale(0.1 -0.1)">
       <use xlink:href="#DejaVuSans-31"/>
       <use xlink:href="#DejaVuSans-2e" x="63.623047"/>
       <use xlink:href="#DejaVuSans-35" x="95.410156"/>
      </g>
     </g>
    </g>
    <g id="ytick_5">
     <g id="line2d_12">
      <g>
       <use xlink:href="#m3e36cfc078" x="47.82125" y="131.658785" style="stroke: #000000; stroke-width: 0.8"/>
      </g>
     </g>
     <g id="text_13">
      <!-- 2.0 -->
      <g transform="translate(24.918125 135.458003)scale(0.1 -0.1)">
       <use xlink:href="#DejaVuSans-32"/>
       <use xlink:href="#DejaVuSans-2e" x="63.623047"/>
       <use xlink:href="#DejaVuSans-30" x="95.410156"/>
      </g>
     </g>
    </g>
    <g id="ytick_6">
     <g id="line2d_13">
      <g>
       <use xlink:href="#m3e36cfc078" x="47.82125" y="88.663481" style="stroke: #000000; stroke-width: 0.8"/>
      </g>
     </g>
     <g id="text_14">
      <!-- 2.5 -->
      <g transform="translate(24.918125 92.4627)scale(0.1 -0.1)">
       <use xlink:href="#DejaVuSans-32"/>
       <use xlink:href="#DejaVuSans-2e" x="63.623047"/>
       <use xlink:href="#DejaVuSans-35" x="95.410156"/>
      </g>
     </g>
    </g>
    <g id="text_15">
     <!-- PercentGpA_transformed -->
     <g transform="translate(18.560313 237.704042)rotate(-90)scale(0.1 -0.1)">
      <defs>
       <path id="DejaVuSans-50" d="M 1259 4147 
L 1259 2394 
L 2053 2394 
Q 2494 2394 2734 2622 
Q 2975 2850 2975 3272 
Q 2975 3691 2734 3919 
Q 2494 4147 2053 4147 
L 1259 4147 
z
M 628 4666 
L 2053 4666 
Q 2838 4666 3239 4311 
Q 3641 3956 3641 3272 
Q 3641 2581 3239 2228 
Q 2838 1875 2053 1875 
L 1259 1875 
L 1259 0 
L 628 0 
L 628 4666 
z
" transform="scale(0.015625)"/>
       <path id="DejaVuSans-65" d="M 3597 1894 
L 3597 1613 
L 953 1613 
Q 991 1019 1311 708 
Q 1631 397 2203 397 
Q 2534 397 2845 478 
Q 3156 559 3463 722 
L 3463 178 
Q 3153 47 2828 -22 
Q 2503 -91 2169 -91 
Q 1331 -91 842 396 
Q 353 884 353 1716 
Q 353 2575 817 3079 
Q 1281 3584 2069 3584 
Q 2775 3584 3186 3129 
Q 3597 2675 3597 1894 
z
M 3022 2063 
Q 3016 2534 2758 2815 
Q 2500 3097 2075 3097 
Q 1594 3097 1305 2825 
Q 1016 2553 972 2059 
L 3022 2063 
z
" transform="scale(0.015625)"/>
       <path id="DejaVuSans-72" d="M 2631 2963 
Q 2534 3019 2420 3045 
Q 2306 3072 2169 3072 
Q 1681 3072 1420 2755 
Q 1159 2438 1159 1844 
L 1159 0 
L 581 0 
L 581 3500 
L 1159 3500 
L 1159 2956 
Q 1341 3275 1631 3429 
Q 1922 3584 2338 3584 
Q 2397 3584 2469 3576 
Q 2541 3569 2628 3553 
L 2631 2963 
z
" transform="scale(0.015625)"/>
       <path id="DejaVuSans-63" d="M 3122 3366 
L 3122 2828 
Q 2878 2963 2633 3030 
Q 2388 3097 2138 3097 
Q 1578 3097 1268 2742 
Q 959 2388 959 1747 
Q 959 1106 1268 751 
Q 1578 397 2138 397 
Q 2388 397 2633 464 
Q 2878 531 3122 666 
L 3122 134 
Q 2881 22 2623 -34 
Q 2366 -91 2075 -91 
Q 1284 -91 818 406 
Q 353 903 353 1747 
Q 353 2603 823 3093 
Q 1294 3584 2113 3584 
Q 2378 3584 2631 3529 
Q 2884 3475 3122 3366 
z
" transform="scale(0.015625)"/>
       <path id="DejaVuSans-6e" d="M 3513 2113 
L 3513 0 
L 2938 0 
L 2938 2094 
Q 2938 2591 2744 2837 
Q 2550 3084 2163 3084 
Q 1697 3084 1428 2787 
Q 1159 2491 1159 1978 
L 1159 0 
L 581 0 
L 581 3500 
L 1159 3500 
L 1159 2956 
Q 1366 3272 1645 3428 
Q 1925 3584 2291 3584 
Q 2894 3584 3203 3211 
Q 3513 2838 3513 2113 
z
" transform="scale(0.015625)"/>
       <path id="DejaVuSans-74" d="M 1172 4494 
L 1172 3500 
L 2356 3500 
L 2356 3053 
L 1172 3053 
L 1172 1153 
Q 1172 725 1289 603 
Q 1406 481 1766 481 
L 2356 481 
L 2356 0 
L 1766 0 
Q 1100 0 847 248 
Q 594 497 594 1153 
L 594 3053 
L 172 3053 
L 172 3500 
L 594 3500 
L 594 4494 
L 1172 4494 
z
" transform="scale(0.015625)"/>
       <path id="DejaVuSans-47" d="M 3809 666 
L 3809 1919 
L 2778 1919 
L 2778 2438 
L 4434 2438 
L 4434 434 
Q 4069 175 3628 42 
Q 3188 -91 2688 -91 
Q 1594 -91 976 548 
Q 359 1188 359 2328 
Q 359 3472 976 4111 
Q 1594 4750 2688 4750 
Q 3144 4750 3555 4637 
Q 3966 4525 4313 4306 
L 4313 3634 
Q 3963 3931 3569 4081 
Q 3175 4231 2741 4231 
Q 1884 4231 1454 3753 
Q 1025 3275 1025 2328 
Q 1025 1384 1454 906 
Q 1884 428 2741 428 
Q 3075 428 3337 486 
Q 3600 544 3809 666 
z
" transform="scale(0.015625)"/>
       <path id="DejaVuSans-70" d="M 1159 525 
L 1159 -1331 
L 581 -1331 
L 581 3500 
L 1159 3500 
L 1159 2969 
Q 1341 3281 1617 3432 
Q 1894 3584 2278 3584 
Q 2916 3584 3314 3078 
Q 3713 2572 3713 1747 
Q 3713 922 3314 415 
Q 2916 -91 2278 -91 
Q 1894 -91 1617 61 
Q 1341 213 1159 525 
z
M 3116 1747 
Q 3116 2381 2855 2742 
Q 2594 3103 2138 3103 
Q 1681 3103 1420 2742 
Q 1159 2381 1159 1747 
Q 1159 1113 1420 752 
Q 1681 391 2138 391 
Q 2594 391 2855 752 
Q 3116 1113 3116 1747 
z
" transform="scale(0.015625)"/>
       <path id="DejaVuSans-41" d="M 2188 4044 
L 1331 1722 
L 3047 1722 
L 2188 4044 
z
M 1831 4666 
L 2547 4666 
L 4325 0 
L 3669 0 
L 3244 1197 
L 1141 1197 
L 716 0 
L 50 0 
L 1831 4666 
z
" transform="scale(0.015625)"/>
       <path id="DejaVuSans-5f" d="M 3263 -1063 
L 3263 -1509 
L -63 -1509 
L -63 -1063 
L 3263 -1063 
z
" transform="scale(0.015625)"/>
       <path id="DejaVuSans-61" d="M 2194 1759 
Q 1497 1759 1228 1600 
Q 959 1441 959 1056 
Q 959 750 1161 570 
Q 1363 391 1709 391 
Q 2188 391 2477 730 
Q 2766 1069 2766 1631 
L 2766 1759 
L 2194 1759 
z
M 3341 1997 
L 3341 0 
L 2766 0 
L 2766 531 
Q 2569 213 2275 61 
Q 1981 -91 1556 -91 
Q 1019 -91 701 211 
Q 384 513 384 1019 
Q 384 1609 779 1909 
Q 1175 2209 1959 2209 
L 2766 2209 
L 2766 2266 
Q 2766 2663 2505 2880 
Q 2244 3097 1772 3097 
Q 1472 3097 1187 3025 
Q 903 2953 641 2809 
L 641 3341 
Q 956 3463 1253 3523 
Q 1550 3584 1831 3584 
Q 2591 3584 2966 3190 
Q 3341 2797 3341 1997 
z
" transform="scale(0.015625)"/>
       <path id="DejaVuSans-73" d="M 2834 3397 
L 2834 2853 
Q 2591 2978 2328 3040 
Q 2066 3103 1784 3103 
Q 1356 3103 1142 2972 
Q 928 2841 928 2578 
Q 928 2378 1081 2264 
Q 1234 2150 1697 2047 
L 1894 2003 
Q 2506 1872 2764 1633 
Q 3022 1394 3022 966 
Q 3022 478 2636 193 
Q 2250 -91 1575 -91 
Q 1294 -91 989 -36 
Q 684 19 347 128 
L 347 722 
Q 666 556 975 473 
Q 1284 391 1588 391 
Q 1994 391 2212 530 
Q 2431 669 2431 922 
Q 2431 1156 2273 1281 
Q 2116 1406 1581 1522 
L 1381 1569 
Q 847 1681 609 1914 
Q 372 2147 372 2553 
Q 372 3047 722 3315 
Q 1072 3584 1716 3584 
Q 2034 3584 2315 3537 
Q 2597 3491 2834 3397 
z
" transform="scale(0.015625)"/>
       <path id="DejaVuSans-6f" d="M 1959 3097 
Q 1497 3097 1228 2736 
Q 959 2375 959 1747 
Q 959 1119 1226 758 
Q 1494 397 1959 397 
Q 2419 397 2687 759 
Q 2956 1122 2956 1747 
Q 2956 2369 2687 2733 
Q 2419 3097 1959 3097 
z
M 1959 3584 
Q 2709 3584 3137 3096 
Q 3566 2609 3566 1747 
Q 3566 888 3137 398 
Q 2709 -91 1959 -91 
Q 1206 -91 779 398 
Q 353 888 353 1747 
Q 353 2609 779 3096 
Q 1206 3584 1959 3584 
z
" transform="scale(0.015625)"/>
       <path id="DejaVuSans-6d" d="M 3328 2828 
Q 3544 3216 3844 3400 
Q 4144 3584 4550 3584 
Q 5097 3584 5394 3201 
Q 5691 2819 5691 2113 
L 5691 0 
L 5113 0 
L 5113 2094 
Q 5113 2597 4934 2840 
Q 4756 3084 4391 3084 
Q 3944 3084 3684 2787 
Q 3425 2491 3425 1978 
L 3425 0 
L 2847 0 
L 2847 2094 
Q 2847 2600 2669 2842 
Q 2491 3084 2119 3084 
Q 1678 3084 1418 2786 
Q 1159 2488 1159 1978 
L 1159 0 
L 581 0 
L 581 3500 
L 1159 3500 
L 1159 2956 
Q 1356 3278 1631 3431 
Q 1906 3584 2284 3584 
Q 2666 3584 2933 3390 
Q 3200 3197 3328 2828 
z
" transform="scale(0.015625)"/>
       <path id="DejaVuSans-64" d="M 2906 2969 
L 2906 4863 
L 3481 4863 
L 3481 0 
L 2906 0 
L 2906 525 
Q 2725 213 2448 61 
Q 2172 -91 1784 -91 
Q 1150 -91 751 415 
Q 353 922 353 1747 
Q 353 2572 751 3078 
Q 1150 3584 1784 3584 
Q 2172 3584 2448 3432 
Q 2725 3281 2906 2969 
z
M 947 1747 
Q 947 1113 1208 752 
Q 1469 391 1925 391 
Q 2381 391 2643 752 
Q 2906 1113 2906 1747 
Q 2906 2381 2643 2742 
Q 2381 3103 1925 3103 
Q 1469 3103 1208 2742 
Q 947 2381 947 1747 
z
" transform="scale(0.015625)"/>
      </defs>
      <use xlink:href="#DejaVuSans-50"/>
      <use xlink:href="#DejaVuSans-65" x="56.677734"/>
      <use xlink:href="#DejaVuSans-72" x="118.201172"/>
      <use xlink:href="#DejaVuSans-63" x="157.064453"/>
      <use xlink:href="#DejaVuSans-65" x="212.044922"/>
      <use xlink:href="#DejaVuSans-6e" x="273.568359"/>
      <use xlink:href="#DejaVuSans-74" x="336.947266"/>
      <use xlink:href="#DejaVuSans-47" x="376.15625"/>
      <use xlink:href="#DejaVuSans-70" x="453.646484"/>
      <use xlink:href="#DejaVuSans-41" x="517.123047"/>
      <use xlink:href="#DejaVuSans-5f" x="585.53125"/>
      <use xlink:href="#DejaVuSans-74" x="635.53125"/>
      <use xlink:href="#DejaVuSans-72" x="674.740234"/>
      <use xlink:href="#DejaVuSans-61" x="715.853516"/>
      <use xlink:href="#DejaVuSans-6e" x="777.132812"/>
      <use xlink:href="#DejaVuSans-73" x="840.511719"/>
      <use xlink:href="#DejaVuSans-66" x="892.611328"/>
      <use xlink:href="#DejaVuSans-6f" x="927.816406"/>
      <use xlink:href="#DejaVuSans-72" x="988.998047"/>
      <use xlink:href="#DejaVuSans-6d" x="1028.361328"/>
      <use xlink:href="#DejaVuSans-65" x="1125.773438"/>
      <use xlink:href="#DejaVuSans-64" x="1187.296875"/>
     </g>
    </g>
   </g>
   <g id="LineCollection_1">
    <path d="M 166.957516 222.264601 
L 166.957516 208.857453 
" clip-path="url(#p7c40dd1272)" style="fill: none; stroke: #d3d3d3; stroke-width: 3"/>
    <path d="M 169.200544 250.985572 
L 169.200544 242.860542 
" clip-path="url(#p7c40dd1272)" style="fill: none; stroke: #d3d3d3; stroke-width: 3"/>
    <path d="M 106.645239 216.475917 
L 106.645239 189.752041 
" clip-path="url(#p7c40dd1272)" style="fill: none; stroke: #d3d3d3; stroke-width: 3"/>
    <path d="M 221.016572 223.532939 
L 221.016572 211.395732 
" clip-path="url(#p7c40dd1272)" style="fill: none; stroke: #d3d3d3; stroke-width: 3"/>
    <path d="M 79.753157 212.062757 
L 79.753157 189.228979 
" clip-path="url(#p7c40dd1272)" style="fill: none; stroke: #d3d3d3; stroke-width: 3"/>
    <path d="M 66.102102 238.264418 
L 66.102102 204.013383 
" clip-path="url(#p7c40dd1272)" style="fill: none; stroke: #d3d3d3; stroke-width: 3"/>
    <path d="M 82.280318 214.945075 
L 82.280318 200.40393 
" clip-path="url(#p7c40dd1272)" style="fill: none; stroke: #d3d3d3; stroke-width: 3"/>
    <path d="M 121.230697 210.142394 
L 121.230697 175.934716 
" clip-path="url(#p7c40dd1272)" style="fill: none; stroke: #d3d3d3; stroke-width: 3"/>
    <path d="M 236.353941 242.23211 
L 236.353941 230.535771 
" clip-path="url(#p7c40dd1272)" style="fill: none; stroke: #d3d3d3; stroke-width: 3"/>
    <path d="M 136.533416 286.978566 
L 136.533416 281.591178 
" clip-path="url(#p7c40dd1272)" style="fill: none; stroke: #d3d3d3; stroke-width: 3"/>
    <path d="M 219.330259 258.950431 
L 219.330259 240.831424 
" clip-path="url(#p7c40dd1272)" style="fill: none; stroke: #d3d3d3; stroke-width: 3"/>
    <path d="M 142.66767 236.645348 
L 142.66767 220.111757 
" clip-path="url(#p7c40dd1272)" style="fill: none; stroke: #d3d3d3; stroke-width: 3"/>
    <path d="M 191.321283 239.800479 
L 191.321283 227.976527 
" clip-path="url(#p7c40dd1272)" style="fill: none; stroke: #d3d3d3; stroke-width: 3"/>
    <path d="M 140.898196 253.702842 
L 140.898196 193.243961 
" clip-path="url(#p7c40dd1272)" style="fill: none; stroke: #d3d3d3; stroke-width: 3"/>
    <path d="M 163.448598 222.543339 
L 163.448598 193.252146 
" clip-path="url(#p7c40dd1272)" style="fill: none; stroke: #d3d3d3; stroke-width: 3"/>
    <path d="M 323.909423 259.80524 
L 323.909423 247.442788 
" clip-path="url(#p7c40dd1272)" style="fill: none; stroke: #d3d3d3; stroke-width: 3"/>
    <path d="M 172.148128 304.927734 
L 172.148128 139.819099 
" clip-path="url(#p7c40dd1272)" style="fill: none; stroke: #d3d3d3; stroke-width: 3"/>
    <path d="M 121.875192 220.563612 
L 121.875192 189.012076 
" clip-path="url(#p7c40dd1272)" style="fill: none; stroke: #d3d3d3; stroke-width: 3"/>
    <path d="M 176.257651 284.064079 
L 176.257651 273.718038 
" clip-path="url(#p7c40dd1272)" style="fill: none; stroke: #d3d3d3; stroke-width: 3"/>
    <path d="M 220.015179 231.631106 
L 220.015179 196.08059 
" clip-path="url(#p7c40dd1272)" style="fill: none; stroke: #d3d3d3; stroke-width: 3"/>
    <path d="M 125.295175 274.315987 
L 125.295175 210.128376 
" clip-path="url(#p7c40dd1272)" style="fill: none; stroke: #d3d3d3; stroke-width: 3"/>
    <path d="M 190.885844 224.770534 
L 190.885844 209.541727 
" clip-path="url(#p7c40dd1272)" style="fill: none; stroke: #d3d3d3; stroke-width: 3"/>
    <path d="M 270.177234 279.383731 
L 270.177234 269.103068 
" clip-path="url(#p7c40dd1272)" style="fill: none; stroke: #d3d3d3; stroke-width: 3"/>
    <path d="M 173.118336 233.574959 
L 173.118336 173.002774 
" clip-path="url(#p7c40dd1272)" style="fill: none; stroke: #d3d3d3; stroke-width: 3"/>
    <path d="M 135.797675 277.079868 
L 135.797675 95.84566 
" clip-path="url(#p7c40dd1272)" style="fill: none; stroke: #d3d3d3; stroke-width: 3"/>
    <path d="M 154.669372 228.290291 
L 154.669372 210.165484 
" clip-path="url(#p7c40dd1272)" style="fill: none; stroke: #d3d3d3; stroke-width: 3"/>
    <path d="M 120.265109 286.9689 
L 120.265109 281.768779 
" clip-path="url(#p7c40dd1272)" style="fill: none; stroke: #d3d3d3; stroke-width: 3"/>
    <path d="M 115.194618 226.750721 
L 115.194618 205.577502 
" clip-path="url(#p7c40dd1272)" style="fill: none; stroke: #d3d3d3; stroke-width: 3"/>
    <path d="M 180.055322 210.229573 
L 180.055322 167.442498 
" clip-path="url(#p7c40dd1272)" style="fill: none; stroke: #d3d3d3; stroke-width: 3"/>
    <path d="M 134.672696 214.132349 
L 134.672696 208.676374 
" clip-path="url(#p7c40dd1272)" style="fill: none; stroke: #d3d3d3; stroke-width: 3"/>
    <path d="M 171.344242 264.797471 
L 171.344242 253.725847 
" clip-path="url(#p7c40dd1272)" style="fill: none; stroke: #d3d3d3; stroke-width: 3"/>
    <path d="M 190.37764 267.138786 
L 190.37764 88.846965 
" clip-path="url(#p7c40dd1272)" style="fill: none; stroke: #d3d3d3; stroke-width: 3"/>
    <path d="M 282.65018 260.362205 
L 282.65018 226.962219 
" clip-path="url(#p7c40dd1272)" style="fill: none; stroke: #d3d3d3; stroke-width: 3"/>
    <path d="M 186.540699 265.506698 
L 186.540699 235.360011 
" clip-path="url(#p7c40dd1272)" style="fill: none; stroke: #d3d3d3; stroke-width: 3"/>
    <path d="M 257.602648 268.783068 
L 257.602648 253.355427 
" clip-path="url(#p7c40dd1272)" style="fill: none; stroke: #d3d3d3; stroke-width: 3"/>
    <path d="M 101.831161 234.852814 
L 101.831161 216.613718 
" clip-path="url(#p7c40dd1272)" style="fill: none; stroke: #d3d3d3; stroke-width: 3"/>
    <path d="M 173.799791 218.285844 
L 173.799791 197.251391 
" clip-path="url(#p7c40dd1272)" style="fill: none; stroke: #d3d3d3; stroke-width: 3"/>
    <path d="M 249.671199 246.47594 
L 249.671199 225.828276 
" clip-path="url(#p7c40dd1272)" style="fill: none; stroke: #d3d3d3; stroke-width: 3"/>
    <path d="M 254.508378 278.37706 
L 254.508378 197.142976 
" clip-path="url(#p7c40dd1272)" style="fill: none; stroke: #d3d3d3; stroke-width: 3"/>
    <path d="M 157.106442 235.037718 
L 157.106442 223.805528 
" clip-path="url(#p7c40dd1272)" style="fill: none; stroke: #d3d3d3; stroke-width: 3"/>
    <path d="M 250.009616 269.157842 
L 250.009616 104.029426 
" clip-path="url(#p7c40dd1272)" style="fill: none; stroke: #d3d3d3; stroke-width: 3"/>
    <path d="M 153.205975 228.222598 
L 153.205975 195.334123 
" clip-path="url(#p7c40dd1272)" style="fill: none; stroke: #d3d3d3; stroke-width: 3"/>
    <path d="M 172.625147 291.136258 
L 172.625147 284.596021 
" clip-path="url(#p7c40dd1272)" style="fill: none; stroke: #d3d3d3; stroke-width: 3"/>
    <path d="M 336.54869 262.621662 
L 336.54869 254.236275 
" clip-path="url(#p7c40dd1272)" style="fill: none; stroke: #d3d3d3; stroke-width: 3"/>
    <path d="M 259.146895 233.224082 
L 259.146895 210.68638 
" clip-path="url(#p7c40dd1272)" style="fill: none; stroke: #d3d3d3; stroke-width: 3"/>
    <path d="M 181.340847 225.678513 
L 181.340847 194.366749 
" clip-path="url(#p7c40dd1272)" style="fill: none; stroke: #d3d3d3; stroke-width: 3"/>
    <path d="M 229.631787 247.046987 
L 229.631787 231.190292 
" clip-path="url(#p7c40dd1272)" style="fill: none; stroke: #d3d3d3; stroke-width: 3"/>
    <path d="M 203.244444 285.862329 
L 203.244444 278.050016 
" clip-path="url(#p7c40dd1272)" style="fill: none; stroke: #d3d3d3; stroke-width: 3"/>
    <path d="M 226.283415 240.651772 
L 226.283415 227.950385 
" clip-path="url(#p7c40dd1272)" style="fill: none; stroke: #d3d3d3; stroke-width: 3"/>
    <path d="M 198.109273 237.354172 
L 198.109273 223.596685 
" clip-path="url(#p7c40dd1272)" style="fill: none; stroke: #d3d3d3; stroke-width: 3"/>
    <path d="M 307.730052 231.490954 
L 307.730052 217.514683 
" clip-path="url(#p7c40dd1272)" style="fill: none; stroke: #d3d3d3; stroke-width: 3"/>
    <path d="M 232.50314 234.620772 
L 232.50314 199.215615 
" clip-path="url(#p7c40dd1272)" style="fill: none; stroke: #d3d3d3; stroke-width: 3"/>
    <path d="M 199.05638 217.053753 
L 199.05638 185.314141 
" clip-path="url(#p7c40dd1272)" style="fill: none; stroke: #d3d3d3; stroke-width: 3"/>
    <path d="M 247.95832 219.799245 
L 247.95832 199.728683 
" clip-path="url(#p7c40dd1272)" style="fill: none; stroke: #d3d3d3; stroke-width: 3"/>
    <path d="M 281.086297 223.971213 
L 281.086297 211.699688 
" clip-path="url(#p7c40dd1272)" style="fill: none; stroke: #d3d3d3; stroke-width: 3"/>
    <path d="M 325.008992 248.799196 
L 325.008992 238.7464 
" clip-path="url(#p7c40dd1272)" style="fill: none; stroke: #d3d3d3; stroke-width: 3"/>
    <path d="M 278.851354 237.416714 
L 278.851354 226.947519 
" clip-path="url(#p7c40dd1272)" style="fill: none; stroke: #d3d3d3; stroke-width: 3"/>
    <path d="M 263.218303 218.53708 
L 263.218303 190.108351 
" clip-path="url(#p7c40dd1272)" style="fill: none; stroke: #d3d3d3; stroke-width: 3"/>
    <path d="M 252.729663 291.544083 
L 252.729663 267.187864 
" clip-path="url(#p7c40dd1272)" style="fill: none; stroke: #d3d3d3; stroke-width: 3"/>
    <path d="M 214.889248 264.169869 
L 214.889248 239.987315 
" clip-path="url(#p7c40dd1272)" style="fill: none; stroke: #d3d3d3; stroke-width: 3"/>
    <path d="M 191.964623 223.181677 
L 191.964623 194.880903 
" clip-path="url(#p7c40dd1272)" style="fill: none; stroke: #d3d3d3; stroke-width: 3"/>
    <path d="M 219.617856 256.529613 
L 219.617856 254.570349 
" clip-path="url(#p7c40dd1272)" style="fill: none; stroke: #d3d3d3; stroke-width: 3"/>
    <path d="M 206.000296 264.704962 
L 206.000296 220.320269 
" clip-path="url(#p7c40dd1272)" style="fill: none; stroke: #d3d3d3; stroke-width: 3"/>
    <path d="M 168.342372 296.233534 
L 168.342372 286.746092 
" clip-path="url(#p7c40dd1272)" style="fill: none; stroke: #d3d3d3; stroke-width: 3"/>
    <path d="M 262.23308 290.992947 
L 262.23308 277.803501 
" clip-path="url(#p7c40dd1272)" style="fill: none; stroke: #d3d3d3; stroke-width: 3"/>
    <path d="M 270.285805 242.903956 
L 270.285805 231.210447 
" clip-path="url(#p7c40dd1272)" style="fill: none; stroke: #d3d3d3; stroke-width: 3"/>
    <path d="M 264.634344 229.357966 
L 264.634344 214.910219 
" clip-path="url(#p7c40dd1272)" style="fill: none; stroke: #d3d3d3; stroke-width: 3"/>
    <path d="M 187.406956 202.672636 
L 187.406956 185.451895 
" clip-path="url(#p7c40dd1272)" style="fill: none; stroke: #d3d3d3; stroke-width: 3"/>
    <path d="M 268.663017 244.640909 
L 268.663017 242.591154 
" clip-path="url(#p7c40dd1272)" style="fill: none; stroke: #d3d3d3; stroke-width: 3"/>
    <path d="M 169.648688 220.101237 
L 169.648688 182.850513 
" clip-path="url(#p7c40dd1272)" style="fill: none; stroke: #d3d3d3; stroke-width: 3"/>
    <path d="M 220.432138 240.790432 
L 220.432138 228.439484 
" clip-path="url(#p7c40dd1272)" style="fill: none; stroke: #d3d3d3; stroke-width: 3"/>
    <path d="M 193.210878 249.070233 
L 193.210878 58.988484 
" clip-path="url(#p7c40dd1272)" style="fill: none; stroke: #d3d3d3; stroke-width: 3"/>
    <path d="M 272.471083 288.994907 
L 272.471083 282.562307 
" clip-path="url(#p7c40dd1272)" style="fill: none; stroke: #d3d3d3; stroke-width: 3"/>
    <path d="M 151.710238 230.198579 
L 151.710238 196.990758 
" clip-path="url(#p7c40dd1272)" style="fill: none; stroke: #d3d3d3; stroke-width: 3"/>
    <path d="M 414.555709 280.569256 
L 414.555709 237.827747 
" clip-path="url(#p7c40dd1272)" style="fill: none; stroke: #d3d3d3; stroke-width: 3"/>
    <path d="M 220.281986 246.246873 
L 220.281986 223.022684 
" clip-path="url(#p7c40dd1272)" style="fill: none; stroke: #d3d3d3; stroke-width: 3"/>
    <path d="M 178.791742 283.21849 
L 178.791742 275.736587 
" clip-path="url(#p7c40dd1272)" style="fill: none; stroke: #d3d3d3; stroke-width: 3"/>
    <path d="M 221.721128 214.18947 
L 221.721128 207.063145 
" clip-path="url(#p7c40dd1272)" style="fill: none; stroke: #d3d3d3; stroke-width: 3"/>
    <path d="M 256.887697 281.408988 
L 256.887697 271.971845 
" clip-path="url(#p7c40dd1272)" style="fill: none; stroke: #d3d3d3; stroke-width: 3"/>
    <path d="M 232.634811 233.67726 
L 232.634811 203.464339 
" clip-path="url(#p7c40dd1272)" style="fill: none; stroke: #d3d3d3; stroke-width: 3"/>
    <path d="M 290.611659 236.911004 
L 290.611659 215.055521 
" clip-path="url(#p7c40dd1272)" style="fill: none; stroke: #d3d3d3; stroke-width: 3"/>
    <path d="M 210.086719 241.952097 
L 210.086719 201.280385 
" clip-path="url(#p7c40dd1272)" style="fill: none; stroke: #d3d3d3; stroke-width: 3"/>
    <path d="M 268.825873 224.771124 
L 268.825873 209.957535 
" clip-path="url(#p7c40dd1272)" style="fill: none; stroke: #d3d3d3; stroke-width: 3"/>
    <path d="M 248.920443 296.220474 
L 248.920443 270.003252 
" clip-path="url(#p7c40dd1272)" style="fill: none; stroke: #d3d3d3; stroke-width: 3"/>
    <path d="M 199.332427 214.8321 
L 199.332427 194.224321 
" clip-path="url(#p7c40dd1272)" style="fill: none; stroke: #d3d3d3; stroke-width: 3"/>
    <path d="M 255.103207 238.636278 
L 255.103207 167.948079 
" clip-path="url(#p7c40dd1272)" style="fill: none; stroke: #d3d3d3; stroke-width: 3"/>
    <path d="M 329.437297 245.388446 
L 329.437297 233.108361 
" clip-path="url(#p7c40dd1272)" style="fill: none; stroke: #d3d3d3; stroke-width: 3"/>
    <path d="M 196.017551 259.746409 
L 196.017551 249.078532 
" clip-path="url(#p7c40dd1272)" style="fill: none; stroke: #d3d3d3; stroke-width: 3"/>
    <path d="M 265.601087 291.264299 
L 265.601087 286.706065 
" clip-path="url(#p7c40dd1272)" style="fill: none; stroke: #d3d3d3; stroke-width: 3"/>
    <path d="M 431.719148 240.176997 
L 431.719148 230.611731 
" clip-path="url(#p7c40dd1272)" style="fill: none; stroke: #d3d3d3; stroke-width: 3"/>
    <path d="M 384.989781 239.01121 
L 384.989781 202.958837 
" clip-path="url(#p7c40dd1272)" style="fill: none; stroke: #d3d3d3; stroke-width: 3"/>
    <path d="M 293.790245 243.527499 
L 293.790245 207.446663 
" clip-path="url(#p7c40dd1272)" style="fill: none; stroke: #d3d3d3; stroke-width: 3"/>
    <path d="M 327.822594 270.733144 
L 327.822594 266.570087 
" clip-path="url(#p7c40dd1272)" style="fill: none; stroke: #d3d3d3; stroke-width: 3"/>
    <path d="M 251.66821 229.938058 
L 251.66821 221.504321 
" clip-path="url(#p7c40dd1272)" style="fill: none; stroke: #d3d3d3; stroke-width: 3"/>
    <path d="M 285.782565 218.090605 
L 285.782565 189.039328 
" clip-path="url(#p7c40dd1272)" style="fill: none; stroke: #d3d3d3; stroke-width: 3"/>
    <path d="M 291.822109 295.190235 
L 291.822109 281.20229 
" clip-path="url(#p7c40dd1272)" style="fill: none; stroke: #d3d3d3; stroke-width: 3"/>
    <path d="M 362.702721 227.369885 
L 362.702721 200.127641 
" clip-path="url(#p7c40dd1272)" style="fill: none; stroke: #d3d3d3; stroke-width: 3"/>
    <path d="M 249.89296 231.747271 
L 249.89296 212.26683 
" clip-path="url(#p7c40dd1272)" style="fill: none; stroke: #d3d3d3; stroke-width: 3"/>
   </g>
   <g id="line2d_14">
    <path d="M 166.957516 227.199818 
L 169.200544 227.415485 
L 106.645239 221.400798 
L 221.016572 232.397592 
L 79.753157 218.815127 
L 66.102102 217.502579 
L 82.280318 219.058113 
L 121.230697 222.803189 
L 236.353941 233.872278 
L 136.533416 224.274544 
L 219.330259 232.235453 
L 142.66767 224.864352 
L 191.321283 229.542392 
L 140.898196 224.694217 
L 163.448598 226.862436 
L 323.909423 242.29073 
L 172.148128 227.698895 
L 121.875192 222.865157 
L 176.257651 228.094025 
L 220.015179 232.301308 
L 125.295175 223.193988 
L 190.885844 229.500525 
L 270.177234 237.124385 
L 173.118336 227.79218 
L 135.797675 224.203802 
L 154.669372 226.018314 
L 120.265109 222.710347 
L 115.194618 222.22282 
L 180.055322 228.459171 
L 134.672696 224.095636 
L 171.344242 227.621601 
L 190.37764 229.451661 
L 282.65018 238.323658 
L 186.540699 229.08274 
L 257.602648 235.91534 
L 101.831161 220.937925 
L 173.799791 227.857702 
L 249.671199 235.152732 
L 254.508378 235.617826 
L 157.106442 226.252638 
L 250.009616 235.18527 
L 153.205975 225.877609 
L 172.625147 227.74476 
L 336.54869 243.505995 
L 259.146895 236.063819 
L 181.340847 228.582774 
L 229.631787 233.225944 
L 203.244444 230.688803 
L 226.283415 232.903998 
L 198.109273 230.195057 
L 307.730052 240.735085 
L 232.50314 233.502024 
L 199.05638 230.286121 
L 247.95832 234.988038 
L 281.086297 238.17329 
L 325.008992 242.396454 
L 278.851354 237.958401 
L 263.218303 236.455284 
L 252.729663 235.446803 
L 214.889248 231.80845 
L 191.964623 229.604249 
L 219.617856 232.263105 
L 206.000296 230.953778 
L 168.342372 227.332972 
L 262.23308 236.360555 
L 270.285805 237.134824 
L 264.634344 236.591437 
L 187.406956 229.16603 
L 268.663017 236.978793 
L 169.648688 227.458574 
L 220.432138 232.341398 
L 193.210878 229.724077 
L 272.471083 237.344938 
L 151.710238 225.733794 
L 414.555709 251.006363 
L 220.281986 232.326961 
L 178.791742 228.337678 
L 221.721128 232.465335 
L 256.887697 235.846597 
L 232.634811 233.514684 
L 290.611659 239.089153 
L 210.086719 231.346687 
L 268.825873 236.994452 
L 248.920443 235.080546 
L 199.332427 230.312663 
L 255.103207 235.675019 
L 329.437297 242.822235 
L 196.017551 229.993938 
L 265.601087 236.684389 
L 431.719148 252.656626 
L 384.989781 248.163601 
L 293.790245 239.394774 
L 327.822594 242.666981 
L 251.66821 235.344744 
L 285.782565 238.624836 
L 291.822109 239.205538 
L 362.702721 246.020702 
L 249.89296 235.174054 
" clip-path="url(#p7c40dd1272)" style="fill: none; stroke: #1f77b4; stroke-width: 1.5; stroke-linecap: square"/>
   </g>
   <g id="line2d_15">
    <defs>
     <path id="m8e905b1c8e" d="M 0 3 
C 0.795609 3 1.55874 2.683901 2.12132 2.12132 
C 2.683901 1.55874 3 0.795609 3 0 
C 3 -0.795609 2.683901 -1.55874 2.12132 -2.12132 
C 1.55874 -2.683901 0.795609 -3 0 -3 
C -0.795609 -3 -1.55874 -2.683901 -2.12132 -2.12132 
C -2.683901 -1.55874 -3 -0.795609 -3 0 
C -3 0.795609 -2.683901 1.55874 -2.12132 2.12132 
C -1.55874 2.683901 -0.795609 3 0 3 
z
" style="stroke: #000000"/>
    </defs>
    <g clip-path="url(#p7c40dd1272)">
     <use xlink:href="#m8e905b1c8e" x="166.957516" y="215.561027" style="stroke: #000000"/>
     <use xlink:href="#m8e905b1c8e" x="169.200544" y="246.923057" style="stroke: #000000"/>
     <use xlink:href="#m8e905b1c8e" x="106.645239" y="203.113979" style="stroke: #000000"/>
     <use xlink:href="#m8e905b1c8e" x="221.016572" y="217.464336" style="stroke: #000000"/>
     <use xlink:href="#m8e905b1c8e" x="79.753157" y="200.645868" style="stroke: #000000"/>
     <use xlink:href="#m8e905b1c8e" x="66.102102" y="221.1389" style="stroke: #000000"/>
     <use xlink:href="#m8e905b1c8e" x="82.280318" y="207.674503" style="stroke: #000000"/>
     <use xlink:href="#m8e905b1c8e" x="121.230697" y="193.038555" style="stroke: #000000"/>
     <use xlink:href="#m8e905b1c8e" x="236.353941" y="236.383941" style="stroke: #000000"/>
     <use xlink:href="#m8e905b1c8e" x="136.533416" y="284.284872" style="stroke: #000000"/>
     <use xlink:href="#m8e905b1c8e" x="219.330259" y="249.890927" style="stroke: #000000"/>
     <use xlink:href="#m8e905b1c8e" x="142.66767" y="228.378553" style="stroke: #000000"/>
     <use xlink:href="#m8e905b1c8e" x="191.321283" y="233.888503" style="stroke: #000000"/>
     <use xlink:href="#m8e905b1c8e" x="140.898196" y="223.473401" style="stroke: #000000"/>
     <use xlink:href="#m8e905b1c8e" x="163.448598" y="207.897742" style="stroke: #000000"/>
     <use xlink:href="#m8e905b1c8e" x="323.909423" y="253.624014" style="stroke: #000000"/>
     <use xlink:href="#m8e905b1c8e" x="172.148128" y="222.373417" style="stroke: #000000"/>
     <use xlink:href="#m8e905b1c8e" x="121.875192" y="204.787844" style="stroke: #000000"/>
     <use xlink:href="#m8e905b1c8e" x="176.257651" y="278.891059" style="stroke: #000000"/>
     <use xlink:href="#m8e905b1c8e" x="220.015179" y="213.855848" style="stroke: #000000"/>
     <use xlink:href="#m8e905b1c8e" x="125.295175" y="242.222181" style="stroke: #000000"/>
     <use xlink:href="#m8e905b1c8e" x="190.885844" y="217.15613" style="stroke: #000000"/>
     <use xlink:href="#m8e905b1c8e" x="270.177234" y="274.2434" style="stroke: #000000"/>
     <use xlink:href="#m8e905b1c8e" x="173.118336" y="203.288866" style="stroke: #000000"/>
     <use xlink:href="#m8e905b1c8e" x="135.797675" y="186.462764" style="stroke: #000000"/>
     <use xlink:href="#m8e905b1c8e" x="154.669372" y="219.227888" style="stroke: #000000"/>
     <use xlink:href="#m8e905b1c8e" x="120.265109" y="284.36884" style="stroke: #000000"/>
     <use xlink:href="#m8e905b1c8e" x="115.194618" y="216.164112" style="stroke: #000000"/>
     <use xlink:href="#m8e905b1c8e" x="180.055322" y="188.836036" style="stroke: #000000"/>
     <use xlink:href="#m8e905b1c8e" x="134.672696" y="211.404361" style="stroke: #000000"/>
     <use xlink:href="#m8e905b1c8e" x="171.344242" y="259.261659" style="stroke: #000000"/>
     <use xlink:href="#m8e905b1c8e" x="190.37764" y="177.992876" style="stroke: #000000"/>
     <use xlink:href="#m8e905b1c8e" x="282.65018" y="243.662212" style="stroke: #000000"/>
     <use xlink:href="#m8e905b1c8e" x="186.540699" y="250.433354" style="stroke: #000000"/>
     <use xlink:href="#m8e905b1c8e" x="257.602648" y="261.069248" style="stroke: #000000"/>
     <use xlink:href="#m8e905b1c8e" x="101.831161" y="225.733266" style="stroke: #000000"/>
     <use xlink:href="#m8e905b1c8e" x="173.799791" y="207.768617" style="stroke: #000000"/>
     <use xlink:href="#m8e905b1c8e" x="249.671199" y="236.152108" style="stroke: #000000"/>
     <use xlink:href="#m8e905b1c8e" x="254.508378" y="237.760018" style="stroke: #000000"/>
     <use xlink:href="#m8e905b1c8e" x="157.106442" y="229.421623" style="stroke: #000000"/>
     <use xlink:href="#m8e905b1c8e" x="250.009616" y="186.593634" style="stroke: #000000"/>
     <use xlink:href="#m8e905b1c8e" x="153.205975" y="211.778361" style="stroke: #000000"/>
     <use xlink:href="#m8e905b1c8e" x="172.625147" y="287.86614" style="stroke: #000000"/>
     <use xlink:href="#m8e905b1c8e" x="336.54869" y="258.428969" style="stroke: #000000"/>
     <use xlink:href="#m8e905b1c8e" x="259.146895" y="221.955231" style="stroke: #000000"/>
     <use xlink:href="#m8e905b1c8e" x="181.340847" y="210.022631" style="stroke: #000000"/>
     <use xlink:href="#m8e905b1c8e" x="229.631787" y="239.118639" style="stroke: #000000"/>
     <use xlink:href="#m8e905b1c8e" x="203.244444" y="281.956173" style="stroke: #000000"/>
     <use xlink:href="#m8e905b1c8e" x="226.283415" y="234.301078" style="stroke: #000000"/>
     <use xlink:href="#m8e905b1c8e" x="198.109273" y="230.475429" style="stroke: #000000"/>
     <use xlink:href="#m8e905b1c8e" x="307.730052" y="224.502818" style="stroke: #000000"/>
     <use xlink:href="#m8e905b1c8e" x="232.50314" y="216.918194" style="stroke: #000000"/>
     <use xlink:href="#m8e905b1c8e" x="199.05638" y="201.183947" style="stroke: #000000"/>
     <use xlink:href="#m8e905b1c8e" x="247.95832" y="209.763964" style="stroke: #000000"/>
     <use xlink:href="#m8e905b1c8e" x="281.086297" y="217.835451" style="stroke: #000000"/>
     <use xlink:href="#m8e905b1c8e" x="325.008992" y="243.772798" style="stroke: #000000"/>
     <use xlink:href="#m8e905b1c8e" x="278.851354" y="232.182117" style="stroke: #000000"/>
     <use xlink:href="#m8e905b1c8e" x="263.218303" y="204.322716" style="stroke: #000000"/>
     <use xlink:href="#m8e905b1c8e" x="252.729663" y="279.365974" style="stroke: #000000"/>
     <use xlink:href="#m8e905b1c8e" x="214.889248" y="252.078592" style="stroke: #000000"/>
     <use xlink:href="#m8e905b1c8e" x="191.964623" y="209.03129" style="stroke: #000000"/>
     <use xlink:href="#m8e905b1c8e" x="219.617856" y="255.549981" style="stroke: #000000"/>
     <use xlink:href="#m8e905b1c8e" x="206.000296" y="242.512616" style="stroke: #000000"/>
     <use xlink:href="#m8e905b1c8e" x="168.342372" y="291.489813" style="stroke: #000000"/>
     <use xlink:href="#m8e905b1c8e" x="262.23308" y="284.398224" style="stroke: #000000"/>
     <use xlink:href="#m8e905b1c8e" x="270.285805" y="237.057202" style="stroke: #000000"/>
     <use xlink:href="#m8e905b1c8e" x="264.634344" y="222.134093" style="stroke: #000000"/>
     <use xlink:href="#m8e905b1c8e" x="187.406956" y="194.062265" style="stroke: #000000"/>
     <use xlink:href="#m8e905b1c8e" x="268.663017" y="243.616032" style="stroke: #000000"/>
     <use xlink:href="#m8e905b1c8e" x="169.648688" y="201.475875" style="stroke: #000000"/>
     <use xlink:href="#m8e905b1c8e" x="220.432138" y="234.614958" style="stroke: #000000"/>
     <use xlink:href="#m8e905b1c8e" x="193.210878" y="154.029359" style="stroke: #000000"/>
     <use xlink:href="#m8e905b1c8e" x="272.471083" y="285.778607" style="stroke: #000000"/>
     <use xlink:href="#m8e905b1c8e" x="151.710238" y="213.594669" style="stroke: #000000"/>
     <use xlink:href="#m8e905b1c8e" x="414.555709" y="259.198502" style="stroke: #000000"/>
     <use xlink:href="#m8e905b1c8e" x="220.281986" y="234.634779" style="stroke: #000000"/>
     <use xlink:href="#m8e905b1c8e" x="178.791742" y="279.477539" style="stroke: #000000"/>
     <use xlink:href="#m8e905b1c8e" x="221.721128" y="210.626308" style="stroke: #000000"/>
     <use xlink:href="#m8e905b1c8e" x="256.887697" y="276.690417" style="stroke: #000000"/>
     <use xlink:href="#m8e905b1c8e" x="232.634811" y="218.5708" style="stroke: #000000"/>
     <use xlink:href="#m8e905b1c8e" x="290.611659" y="225.983263" style="stroke: #000000"/>
     <use xlink:href="#m8e905b1c8e" x="210.086719" y="221.616241" style="stroke: #000000"/>
     <use xlink:href="#m8e905b1c8e" x="268.825873" y="217.36433" style="stroke: #000000"/>
     <use xlink:href="#m8e905b1c8e" x="248.920443" y="283.111863" style="stroke: #000000"/>
     <use xlink:href="#m8e905b1c8e" x="199.332427" y="204.528211" style="stroke: #000000"/>
     <use xlink:href="#m8e905b1c8e" x="255.103207" y="203.292178" style="stroke: #000000"/>
     <use xlink:href="#m8e905b1c8e" x="329.437297" y="239.248403" style="stroke: #000000"/>
     <use xlink:href="#m8e905b1c8e" x="196.017551" y="254.412471" style="stroke: #000000"/>
     <use xlink:href="#m8e905b1c8e" x="265.601087" y="288.985182" style="stroke: #000000"/>
     <use xlink:href="#m8e905b1c8e" x="431.719148" y="235.394364" style="stroke: #000000"/>
     <use xlink:href="#m8e905b1c8e" x="384.989781" y="220.985023" style="stroke: #000000"/>
     <use xlink:href="#m8e905b1c8e" x="293.790245" y="225.487081" style="stroke: #000000"/>
     <use xlink:href="#m8e905b1c8e" x="327.822594" y="268.651616" style="stroke: #000000"/>
     <use xlink:href="#m8e905b1c8e" x="251.66821" y="225.72119" style="stroke: #000000"/>
     <use xlink:href="#m8e905b1c8e" x="285.782565" y="203.564967" style="stroke: #000000"/>
     <use xlink:href="#m8e905b1c8e" x="291.822109" y="288.196263" style="stroke: #000000"/>
     <use xlink:href="#m8e905b1c8e" x="362.702721" y="213.748763" style="stroke: #000000"/>
     <use xlink:href="#m8e905b1c8e" x="249.89296" y="222.00705" style="stroke: #000000"/>
    </g>
   </g>
   <g id="patch_3">
    <path d="M 47.82125 303.64 
L 47.82125 46.691522 
" style="fill: none; stroke: #000000; stroke-width: 0.8; stroke-linejoin: miter; stroke-linecap: square"/>
   </g>
   <g id="patch_4">
    <path d="M 450 303.64 
L 450 46.691522 
" style="fill: none; stroke: #000000; stroke-width: 0.8; stroke-linejoin: miter; stroke-linecap: square"/>
   </g>
   <g id="patch_5">
    <path d="M 47.82125 303.64 
L 450 303.64 
" style="fill: none; stroke: #000000; stroke-width: 0.8; stroke-linejoin: miter; stroke-linecap: square"/>
   </g>
   <g id="patch_6">
    <path d="M 47.82125 46.691522 
L 450 46.691522 
" style="fill: none; stroke: #000000; stroke-width: 0.8; stroke-linejoin: miter; stroke-linecap: square"/>
   </g>
   <g id="text_16">
    <!-- y = -0.01x + 0.34 -->
    <g transform="translate(43.314906 18.617079)scale(0.1 -0.1)">
     <defs>
      <path id="DejaVuSans-79" d="M 2059 -325 
Q 1816 -950 1584 -1140 
Q 1353 -1331 966 -1331 
L 506 -1331 
L 506 -850 
L 844 -850 
Q 1081 -850 1212 -737 
Q 1344 -625 1503 -206 
L 1606 56 
L 191 3500 
L 800 3500 
L 1894 763 
L 2988 3500 
L 3597 3500 
L 2059 -325 
z
" transform="scale(0.015625)"/>
      <path id="DejaVuSans-20" transform="scale(0.015625)"/>
      <path id="DejaVuSans-3d" d="M 678 2906 
L 4684 2906 
L 4684 2381 
L 678 2381 
L 678 2906 
z
M 678 1631 
L 4684 1631 
L 4684 1100 
L 678 1100 
L 678 1631 
z
" transform="scale(0.015625)"/>
      <path id="DejaVuSans-2d" d="M 313 2009 
L 1997 2009 
L 1997 1497 
L 313 1497 
L 313 2009 
z
" transform="scale(0.015625)"/>
      <path id="DejaVuSans-78" d="M 3513 3500 
L 2247 1797 
L 3578 0 
L 2900 0 
L 1881 1375 
L 863 0 
L 184 0 
L 1544 1831 
L 300 3500 
L 978 3500 
L 1906 2253 
L 2834 3500 
L 3513 3500 
z
" transform="scale(0.015625)"/>
      <path id="DejaVuSans-2b" d="M 2944 4013 
L 2944 2272 
L 4684 2272 
L 4684 1741 
L 2944 1741 
L 2944 0 
L 2419 0 
L 2419 1741 
L 678 1741 
L 678 2272 
L 2419 2272 
L 2419 4013 
L 2944 4013 
z
" transform="scale(0.015625)"/>
     </defs>
     <use xlink:href="#DejaVuSans-79"/>
     <use xlink:href="#DejaVuSans-20" x="59.179688"/>
     <use xlink:href="#DejaVuSans-3d" x="90.966797"/>
     <use xlink:href="#DejaVuSans-20" x="174.755859"/>
     <use xlink:href="#DejaVuSans-2d" x="206.542969"/>
     <use xlink:href="#DejaVuSans-30" x="242.626953"/>
     <use xlink:href="#DejaVuSans-2e" x="306.25"/>
     <use xlink:href="#DejaVuSans-30" x="338.037109"/>
     <use xlink:href="#DejaVuSans-31" x="401.660156"/>
     <use xlink:href="#DejaVuSans-78" x="465.283203"/>
     <use xlink:href="#DejaVuSans-20" x="524.462891"/>
     <use xlink:href="#DejaVuSans-2b" x="556.25"/>
     <use xlink:href="#DejaVuSans-20" x="640.039062"/>
     <use xlink:href="#DejaVuSans-30" x="671.826172"/>
     <use xlink:href="#DejaVuSans-2e" x="735.449219"/>
     <use xlink:href="#DejaVuSans-33" x="767.236328"/>
     <use xlink:href="#DejaVuSans-34" x="830.859375"/>
    </g>
   </g>
   <g id="text_17">
    <!-- r^2 = 0.05 -->
    <g transform="translate(60.111781 26.325533)scale(0.1 -0.1)">
     <defs>
      <path id="DejaVuSans-5e" d="M 2988 4666 
L 4684 2925 
L 4056 2925 
L 2681 4159 
L 1306 2925 
L 678 2925 
L 2375 4666 
L 2988 4666 
z
" transform="scale(0.015625)"/>
     </defs>
     <use xlink:href="#DejaVuSans-72"/>
     <use xlink:href="#DejaVuSans-5e" x="41.113281"/>
     <use xlink:href="#DejaVuSans-32" x="124.902344"/>
     <use xlink:href="#DejaVuSans-20" x="188.525391"/>
     <use xlink:href="#DejaVuSans-3d" x="220.3125"/>
     <use xlink:href="#DejaVuSans-20" x="304.101562"/>
     <use xlink:href="#DejaVuSans-30" x="335.888672"/>
     <use xlink:href="#DejaVuSans-2e" x="399.511719"/>
     <use xlink:href="#DejaVuSans-30" x="431.298828"/>
     <use xlink:href="#DejaVuSans-35" x="494.921875"/>
    </g>
   </g>
   <g id="text_18">
    <!-- n = 98 -->
    <g transform="translate(71.139906 34.033988)scale(0.1 -0.1)">
     <defs>
      <path id="DejaVuSans-39" d="M 703 97 
L 703 672 
Q 941 559 1184 500 
Q 1428 441 1663 441 
Q 2288 441 2617 861 
Q 2947 1281 2994 2138 
Q 2813 1869 2534 1725 
Q 2256 1581 1919 1581 
Q 1219 1581 811 2004 
Q 403 2428 403 3163 
Q 403 3881 828 4315 
Q 1253 4750 1959 4750 
Q 2769 4750 3195 4129 
Q 3622 3509 3622 2328 
Q 3622 1225 3098 567 
Q 2575 -91 1691 -91 
Q 1453 -91 1209 -44 
Q 966 3 703 97 
z
M 1959 2075 
Q 2384 2075 2632 2365 
Q 2881 2656 2881 3163 
Q 2881 3666 2632 3958 
Q 2384 4250 1959 4250 
Q 1534 4250 1286 3958 
Q 1038 3666 1038 3163 
Q 1038 2656 1286 2365 
Q 1534 2075 1959 2075 
z
" transform="scale(0.015625)"/>
      <path id="DejaVuSans-38" d="M 2034 2216 
Q 1584 2216 1326 1975 
Q 1069 1734 1069 1313 
Q 1069 891 1326 650 
Q 1584 409 2034 409 
Q 2484 409 2743 651 
Q 3003 894 3003 1313 
Q 3003 1734 2745 1975 
Q 2488 2216 2034 2216 
z
M 1403 2484 
Q 997 2584 770 2862 
Q 544 3141 544 3541 
Q 544 4100 942 4425 
Q 1341 4750 2034 4750 
Q 2731 4750 3128 4425 
Q 3525 4100 3525 3541 
Q 3525 3141 3298 2862 
Q 3072 2584 2669 2484 
Q 3125 2378 3379 2068 
Q 3634 1759 3634 1313 
Q 3634 634 3220 271 
Q 2806 -91 2034 -91 
Q 1263 -91 848 271 
Q 434 634 434 1313 
Q 434 1759 690 2068 
Q 947 2378 1403 2484 
z
M 1172 3481 
Q 1172 3119 1398 2916 
Q 1625 2713 2034 2713 
Q 2441 2713 2670 2916 
Q 2900 3119 2900 3481 
Q 2900 3844 2670 4047 
Q 2441 4250 2034 4250 
Q 1625 4250 1398 4047 
Q 1172 3844 1172 3481 
z
" transform="scale(0.015625)"/>
     </defs>
     <use xlink:href="#DejaVuSans-6e"/>
     <use xlink:href="#DejaVuSans-20" x="63.378906"/>
     <use xlink:href="#DejaVuSans-3d" x="95.166016"/>
     <use xlink:href="#DejaVuSans-20" x="178.955078"/>
     <use xlink:href="#DejaVuSans-39" x="210.742188"/>
     <use xlink:href="#DejaVuSans-38" x="274.365234"/>
    </g>
   </g>
   <g id="text_19">
    <!-- VDWDiff vs PercentGpA_transformed -->
    <g transform="translate(138.205938 40.691522)scale(0.12 -0.12)">
     <defs>
      <path id="DejaVuSans-76" d="M 191 3500 
L 800 3500 
L 1894 563 
L 2988 3500 
L 3597 3500 
L 2284 0 
L 1503 0 
L 191 3500 
z
" transform="scale(0.015625)"/>
     </defs>
     <use xlink:href="#DejaVuSans-56"/>
     <use xlink:href="#DejaVuSans-44" x="68.408203"/>
     <use xlink:href="#DejaVuSans-57" x="145.410156"/>
     <use xlink:href="#DejaVuSans-44" x="244.287109"/>
     <use xlink:href="#DejaVuSans-69" x="321.289062"/>
     <use xlink:href="#DejaVuSans-66" x="349.072266"/>
     <use xlink:href="#DejaVuSans-66" x="384.277344"/>
     <use xlink:href="#DejaVuSans-20" x="419.482422"/>
     <use xlink:href="#DejaVuSans-76" x="451.269531"/>
     <use xlink:href="#DejaVuSans-73" x="510.449219"/>
     <use xlink:href="#DejaVuSans-20" x="562.548828"/>
     <use xlink:href="#DejaVuSans-50" x="594.335938"/>
     <use xlink:href="#DejaVuSans-65" x="651.013672"/>
     <use xlink:href="#DejaVuSans-72" x="712.537109"/>
     <use xlink:href="#DejaVuSans-63" x="751.400391"/>
     <use xlink:href="#DejaVuSans-65" x="806.380859"/>
     <use xlink:href="#DejaVuSans-6e" x="867.904297"/>
     <use xlink:href="#DejaVuSans-74" x="931.283203"/>
     <use xlink:href="#DejaVuSans-47" x="970.492188"/>
     <use xlink:href="#DejaVuSans-70" x="1047.982422"/>
     <use xlink:href="#DejaVuSans-41" x="1111.458984"/>
     <use xlink:href="#DejaVuSans-5f" x="1179.867188"/>
     <use xlink:href="#DejaVuSans-74" x="1229.867188"/>
     <use xlink:href="#DejaVuSans-72" x="1269.076172"/>
     <use xlink:href="#DejaVuSans-61" x="1310.189453"/>
     <use xlink:href="#DejaVuSans-6e" x="1371.46875"/>
     <use xlink:href="#DejaVuSans-73" x="1434.847656"/>
     <use xlink:href="#DejaVuSans-66" x="1486.947266"/>
     <use xlink:href="#DejaVuSans-6f" x="1522.152344"/>
     <use xlink:href="#DejaVuSans-72" x="1583.333984"/>
     <use xlink:href="#DejaVuSans-6d" x="1622.697266"/>
     <use xlink:href="#DejaVuSans-65" x="1720.109375"/>
     <use xlink:href="#DejaVuSans-64" x="1781.632812"/>
    </g>
   </g>
  </g>
 </g>
 <defs>
  <clipPath id="p7c40dd1272">
   <rect x="47.82125" y="46.691522" width="402.17875" height="256.948478"/>
  </clipPath>
 </defs>
</svg>
