<?xml version="1.0" encoding="utf-8" standalone="no"?>
<!DOCTYPE svg PUBLIC "-//W3C//DTD SVG 1.1//EN"
  "http://www.w3.org/Graphics/SVG/1.1/DTD/svg11.dtd">
<svg xmlns:xlink="http://www.w3.org/1999/xlink" width="460.8pt" height="345.6pt" viewBox="0 0 460.8 345.6" xmlns="http://www.w3.org/2000/svg" version="1.1">
 <metadata>
  <rdf:RDF xmlns:dc="http://purl.org/dc/elements/1.1/" xmlns:cc="http://creativecommons.org/ns#" xmlns:rdf="http://www.w3.org/1999/02/22-rdf-syntax-ns#">
   <cc:Work>
    <dc:type rdf:resource="http://purl.org/dc/dcmitype/StillImage"/>
    <dc:date>2024-06-14T16:06:18.590539</dc:date>
    <dc:format>image/svg+xml</dc:format>
    <dc:creator>
     <cc:Agent>
      <dc:title>Matplotlib v3.5.3, https://matplotlib.org/</dc:title>
     </cc:Agent>
    </dc:creator>
   </cc:Work>
  </rdf:RDF>
 </metadata>
 <defs>
  <style type="text/css">*{stroke-linejoin: round; stroke-linecap: butt}</style>
 </defs>
 <g id="figure_1">
  <g id="patch_1">
   <path d="M 0 345.6 
L 460.8 345.6 
L 460.8 0 
L 0 0 
z
" style="fill: #ffffff"/>
  </g>
  <g id="axes_1">
   <g id="patch_2">
    <path d="M 65.54 303.64 
L 450 303.64 
L 450 16.560901 
L 65.54 16.560901 
z
" style="fill: #ffffff"/>
   </g>
   <g id="matplotlib.axis_1">
    <g id="xtick_1">
     <g id="text_1">
      <!-- L -->
      <g style="fill: #262626" transform="translate(254.984062 318.238437)scale(0.1 -0.1)">
       <defs>
        <path id="DejaVuSans-4c" d="M 628 4666 
L 1259 4666 
L 1259 531 
L 3531 531 
L 3531 0 
L 628 0 
L 628 4666 
z
" transform="scale(0.015625)"/>
       </defs>
       <use xlink:href="#DejaVuSans-4c"/>
      </g>
     </g>
    </g>
    <g id="text_2">
     <!-- Sample -->
     <g style="fill: #262626" transform="translate(239.021562 331.916562)scale(0.1 -0.1)">
      <defs>
       <path id="DejaVuSans-53" d="M 3425 4513 
L 3425 3897 
Q 3066 4069 2747 4153 
Q 2428 4238 2131 4238 
Q 1616 4238 1336 4038 
Q 1056 3838 1056 3469 
Q 1056 3159 1242 3001 
Q 1428 2844 1947 2747 
L 2328 2669 
Q 3034 2534 3370 2195 
Q 3706 1856 3706 1288 
Q 3706 609 3251 259 
Q 2797 -91 1919 -91 
Q 1588 -91 1214 -16 
Q 841 59 441 206 
L 441 856 
Q 825 641 1194 531 
Q 1563 422 1919 422 
Q 2459 422 2753 634 
Q 3047 847 3047 1241 
Q 3047 1584 2836 1778 
Q 2625 1972 2144 2069 
L 1759 2144 
Q 1053 2284 737 2584 
Q 422 2884 422 3419 
Q 422 4038 858 4394 
Q 1294 4750 2059 4750 
Q 2388 4750 2728 4690 
Q 3069 4631 3425 4513 
z
" transform="scale(0.015625)"/>
       <path id="DejaVuSans-61" d="M 2194 1759 
Q 1497 1759 1228 1600 
Q 959 1441 959 1056 
Q 959 750 1161 570 
Q 1363 391 1709 391 
Q 2188 391 2477 730 
Q 2766 1069 2766 1631 
L 2766 1759 
L 2194 1759 
z
M 3341 1997 
L 3341 0 
L 2766 0 
L 2766 531 
Q 2569 213 2275 61 
Q 1981 -91 1556 -91 
Q 1019 -91 701 211 
Q 384 513 384 1019 
Q 384 1609 779 1909 
Q 1175 2209 1959 2209 
L 2766 2209 
L 2766 2266 
Q 2766 2663 2505 2880 
Q 2244 3097 1772 3097 
Q 1472 3097 1187 3025 
Q 903 2953 641 2809 
L 641 3341 
Q 956 3463 1253 3523 
Q 1550 3584 1831 3584 
Q 2591 3584 2966 3190 
Q 3341 2797 3341 1997 
z
" transform="scale(0.015625)"/>
       <path id="DejaVuSans-6d" d="M 3328 2828 
Q 3544 3216 3844 3400 
Q 4144 3584 4550 3584 
Q 5097 3584 5394 3201 
Q 5691 2819 5691 2113 
L 5691 0 
L 5113 0 
L 5113 2094 
Q 5113 2597 4934 2840 
Q 4756 3084 4391 3084 
Q 3944 3084 3684 2787 
Q 3425 2491 3425 1978 
L 3425 0 
L 2847 0 
L 2847 2094 
Q 2847 2600 2669 2842 
Q 2491 3084 2119 3084 
Q 1678 3084 1418 2786 
Q 1159 2488 1159 1978 
L 1159 0 
L 581 0 
L 581 3500 
L 1159 3500 
L 1159 2956 
Q 1356 3278 1631 3431 
Q 1906 3584 2284 3584 
Q 2666 3584 2933 3390 
Q 3200 3197 3328 2828 
z
" transform="scale(0.015625)"/>
       <path id="DejaVuSans-70" d="M 1159 525 
L 1159 -1331 
L 581 -1331 
L 581 3500 
L 1159 3500 
L 1159 2969 
Q 1341 3281 1617 3432 
Q 1894 3584 2278 3584 
Q 2916 3584 3314 3078 
Q 3713 2572 3713 1747 
Q 3713 922 3314 415 
Q 2916 -91 2278 -91 
Q 1894 -91 1617 61 
Q 1341 213 1159 525 
z
M 3116 1747 
Q 3116 2381 2855 2742 
Q 2594 3103 2138 3103 
Q 1681 3103 1420 2742 
Q 1159 2381 1159 1747 
Q 1159 1113 1420 752 
Q 1681 391 2138 391 
Q 2594 391 2855 752 
Q 3116 1113 3116 1747 
z
" transform="scale(0.015625)"/>
       <path id="DejaVuSans-6c" d="M 603 4863 
L 1178 4863 
L 1178 0 
L 603 0 
L 603 4863 
z
" transform="scale(0.015625)"/>
       <path id="DejaVuSans-65" d="M 3597 1894 
L 3597 1613 
L 953 1613 
Q 991 1019 1311 708 
Q 1631 397 2203 397 
Q 2534 397 2845 478 
Q 3156 559 3463 722 
L 3463 178 
Q 3153 47 2828 -22 
Q 2503 -91 2169 -91 
Q 1331 -91 842 396 
Q 353 884 353 1716 
Q 353 2575 817 3079 
Q 1281 3584 2069 3584 
Q 2775 3584 3186 3129 
Q 3597 2675 3597 1894 
z
M 3022 2063 
Q 3016 2534 2758 2815 
Q 2500 3097 2075 3097 
Q 1594 3097 1305 2825 
Q 1016 2553 972 2059 
L 3022 2063 
z
" transform="scale(0.015625)"/>
      </defs>
      <use xlink:href="#DejaVuSans-53"/>
      <use xlink:href="#DejaVuSans-61" x="63.476562"/>
      <use xlink:href="#DejaVuSans-6d" x="124.755859"/>
      <use xlink:href="#DejaVuSans-70" x="222.167969"/>
      <use xlink:href="#DejaVuSans-6c" x="285.644531"/>
      <use xlink:href="#DejaVuSans-65" x="313.427734"/>
     </g>
    </g>
   </g>
   <g id="matplotlib.axis_2">
    <g id="ytick_1">
     <g id="line2d_1">
      <path d="M 65.54 273.702255 
L 450 273.702255 
" clip-path="url(#p1b97258ba9)" style="fill: none; stroke: #cccccc; stroke-width: 0.8; stroke-linecap: round"/>
     </g>
     <g id="text_3">
      <!-- −8000 -->
      <g style="fill: #262626" transform="translate(24.710313 277.501474)scale(0.1 -0.1)">
       <defs>
        <path id="DejaVuSans-2212" d="M 678 2272 
L 4684 2272 
L 4684 1741 
L 678 1741 
L 678 2272 
z
" transform="scale(0.015625)"/>
        <path id="DejaVuSans-38" d="M 2034 2216 
Q 1584 2216 1326 1975 
Q 1069 1734 1069 1313 
Q 1069 891 1326 650 
Q 1584 409 2034 409 
Q 2484 409 2743 651 
Q 3003 894 3003 1313 
Q 3003 1734 2745 1975 
Q 2488 2216 2034 2216 
z
M 1403 2484 
Q 997 2584 770 2862 
Q 544 3141 544 3541 
Q 544 4100 942 4425 
Q 1341 4750 2034 4750 
Q 2731 4750 3128 4425 
Q 3525 4100 3525 3541 
Q 3525 3141 3298 2862 
Q 3072 2584 2669 2484 
Q 3125 2378 3379 2068 
Q 3634 1759 3634 1313 
Q 3634 634 3220 271 
Q 2806 -91 2034 -91 
Q 1263 -91 848 271 
Q 434 634 434 1313 
Q 434 1759 690 2068 
Q 947 2378 1403 2484 
z
M 1172 3481 
Q 1172 3119 1398 2916 
Q 1625 2713 2034 2713 
Q 2441 2713 2670 2916 
Q 2900 3119 2900 3481 
Q 2900 3844 2670 4047 
Q 2441 4250 2034 4250 
Q 1625 4250 1398 4047 
Q 1172 3844 1172 3481 
z
" transform="scale(0.015625)"/>
        <path id="DejaVuSans-30" d="M 2034 4250 
Q 1547 4250 1301 3770 
Q 1056 3291 1056 2328 
Q 1056 1369 1301 889 
Q 1547 409 2034 409 
Q 2525 409 2770 889 
Q 3016 1369 3016 2328 
Q 3016 3291 2770 3770 
Q 2525 4250 2034 4250 
z
M 2034 4750 
Q 2819 4750 3233 4129 
Q 3647 3509 3647 2328 
Q 3647 1150 3233 529 
Q 2819 -91 2034 -91 
Q 1250 -91 836 529 
Q 422 1150 422 2328 
Q 422 3509 836 4129 
Q 1250 4750 2034 4750 
z
" transform="scale(0.015625)"/>
       </defs>
       <use xlink:href="#DejaVuSans-2212"/>
       <use xlink:href="#DejaVuSans-38" x="83.789062"/>
       <use xlink:href="#DejaVuSans-30" x="147.412109"/>
       <use xlink:href="#DejaVuSans-30" x="211.035156"/>
       <use xlink:href="#DejaVuSans-30" x="274.658203"/>
      </g>
     </g>
    </g>
    <g id="ytick_2">
     <g id="line2d_2">
      <path d="M 65.54 237.680859 
L 450 237.680859 
" clip-path="url(#p1b97258ba9)" style="fill: none; stroke: #cccccc; stroke-width: 0.8; stroke-linecap: round"/>
     </g>
     <g id="text_4">
      <!-- −6000 -->
      <g style="fill: #262626" transform="translate(24.710313 241.480078)scale(0.1 -0.1)">
       <defs>
        <path id="DejaVuSans-36" d="M 2113 2584 
Q 1688 2584 1439 2293 
Q 1191 2003 1191 1497 
Q 1191 994 1439 701 
Q 1688 409 2113 409 
Q 2538 409 2786 701 
Q 3034 994 3034 1497 
Q 3034 2003 2786 2293 
Q 2538 2584 2113 2584 
z
M 3366 4563 
L 3366 3988 
Q 3128 4100 2886 4159 
Q 2644 4219 2406 4219 
Q 1781 4219 1451 3797 
Q 1122 3375 1075 2522 
Q 1259 2794 1537 2939 
Q 1816 3084 2150 3084 
Q 2853 3084 3261 2657 
Q 3669 2231 3669 1497 
Q 3669 778 3244 343 
Q 2819 -91 2113 -91 
Q 1303 -91 875 529 
Q 447 1150 447 2328 
Q 447 3434 972 4092 
Q 1497 4750 2381 4750 
Q 2619 4750 2861 4703 
Q 3103 4656 3366 4563 
z
" transform="scale(0.015625)"/>
       </defs>
       <use xlink:href="#DejaVuSans-2212"/>
       <use xlink:href="#DejaVuSans-36" x="83.789062"/>
       <use xlink:href="#DejaVuSans-30" x="147.412109"/>
       <use xlink:href="#DejaVuSans-30" x="211.035156"/>
       <use xlink:href="#DejaVuSans-30" x="274.658203"/>
      </g>
     </g>
    </g>
    <g id="ytick_3">
     <g id="line2d_3">
      <path d="M 65.54 201.659463 
L 450 201.659463 
" clip-path="url(#p1b97258ba9)" style="fill: none; stroke: #cccccc; stroke-width: 0.8; stroke-linecap: round"/>
     </g>
     <g id="text_5">
      <!-- −4000 -->
      <g style="fill: #262626" transform="translate(24.710313 205.458682)scale(0.1 -0.1)">
       <defs>
        <path id="DejaVuSans-34" d="M 2419 4116 
L 825 1625 
L 2419 1625 
L 2419 4116 
z
M 2253 4666 
L 3047 4666 
L 3047 1625 
L 3713 1625 
L 3713 1100 
L 3047 1100 
L 3047 0 
L 2419 0 
L 2419 1100 
L 313 1100 
L 313 1709 
L 2253 4666 
z
" transform="scale(0.015625)"/>
       </defs>
       <use xlink:href="#DejaVuSans-2212"/>
       <use xlink:href="#DejaVuSans-34" x="83.789062"/>
       <use xlink:href="#DejaVuSans-30" x="147.412109"/>
       <use xlink:href="#DejaVuSans-30" x="211.035156"/>
       <use xlink:href="#DejaVuSans-30" x="274.658203"/>
      </g>
     </g>
    </g>
    <g id="ytick_4">
     <g id="line2d_4">
      <path d="M 65.54 165.638068 
L 450 165.638068 
" clip-path="url(#p1b97258ba9)" style="fill: none; stroke: #cccccc; stroke-width: 0.8; stroke-linecap: round"/>
     </g>
     <g id="text_6">
      <!-- −2000 -->
      <g style="fill: #262626" transform="translate(24.710313 169.437286)scale(0.1 -0.1)">
       <defs>
        <path id="DejaVuSans-32" d="M 1228 531 
L 3431 531 
L 3431 0 
L 469 0 
L 469 531 
Q 828 903 1448 1529 
Q 2069 2156 2228 2338 
Q 2531 2678 2651 2914 
Q 2772 3150 2772 3378 
Q 2772 3750 2511 3984 
Q 2250 4219 1831 4219 
Q 1534 4219 1204 4116 
Q 875 4013 500 3803 
L 500 4441 
Q 881 4594 1212 4672 
Q 1544 4750 1819 4750 
Q 2544 4750 2975 4387 
Q 3406 4025 3406 3419 
Q 3406 3131 3298 2873 
Q 3191 2616 2906 2266 
Q 2828 2175 2409 1742 
Q 1991 1309 1228 531 
z
" transform="scale(0.015625)"/>
       </defs>
       <use xlink:href="#DejaVuSans-2212"/>
       <use xlink:href="#DejaVuSans-32" x="83.789062"/>
       <use xlink:href="#DejaVuSans-30" x="147.412109"/>
       <use xlink:href="#DejaVuSans-30" x="211.035156"/>
       <use xlink:href="#DejaVuSans-30" x="274.658203"/>
      </g>
     </g>
    </g>
    <g id="ytick_5">
     <g id="line2d_5">
      <path d="M 65.54 129.616672 
L 450 129.616672 
" clip-path="url(#p1b97258ba9)" style="fill: none; stroke: #cccccc; stroke-width: 0.8; stroke-linecap: round"/>
     </g>
     <g id="text_7">
      <!-- 0 -->
      <g style="fill: #262626" transform="translate(52.1775 133.41589)scale(0.1 -0.1)">
       <use xlink:href="#DejaVuSans-30"/>
      </g>
     </g>
    </g>
    <g id="ytick_6">
     <g id="line2d_6">
      <path d="M 65.54 93.595276 
L 450 93.595276 
" clip-path="url(#p1b97258ba9)" style="fill: none; stroke: #cccccc; stroke-width: 0.8; stroke-linecap: round"/>
     </g>
     <g id="text_8">
      <!-- 2000 -->
      <g style="fill: #262626" transform="translate(33.09 97.394495)scale(0.1 -0.1)">
       <use xlink:href="#DejaVuSans-32"/>
       <use xlink:href="#DejaVuSans-30" x="63.623047"/>
       <use xlink:href="#DejaVuSans-30" x="127.246094"/>
       <use xlink:href="#DejaVuSans-30" x="190.869141"/>
      </g>
     </g>
    </g>
    <g id="ytick_7">
     <g id="line2d_7">
      <path d="M 65.54 57.57388 
L 450 57.57388 
" clip-path="url(#p1b97258ba9)" style="fill: none; stroke: #cccccc; stroke-width: 0.8; stroke-linecap: round"/>
     </g>
     <g id="text_9">
      <!-- 4000 -->
      <g style="fill: #262626" transform="translate(33.09 61.373099)scale(0.1 -0.1)">
       <use xlink:href="#DejaVuSans-34"/>
       <use xlink:href="#DejaVuSans-30" x="63.623047"/>
       <use xlink:href="#DejaVuSans-30" x="127.246094"/>
       <use xlink:href="#DejaVuSans-30" x="190.869141"/>
      </g>
     </g>
    </g>
    <g id="ytick_8">
     <g id="line2d_8">
      <path d="M 65.54 21.552484 
L 450 21.552484 
" clip-path="url(#p1b97258ba9)" style="fill: none; stroke: #cccccc; stroke-width: 0.8; stroke-linecap: round"/>
     </g>
     <g id="text_10">
      <!-- 6000 -->
      <g style="fill: #262626" transform="translate(33.09 25.351703)scale(0.1 -0.1)">
       <use xlink:href="#DejaVuSans-36"/>
       <use xlink:href="#DejaVuSans-30" x="63.623047"/>
       <use xlink:href="#DejaVuSans-30" x="127.246094"/>
       <use xlink:href="#DejaVuSans-30" x="190.869141"/>
      </g>
     </g>
    </g>
    <g id="text_11">
     <!-- Delta Fluorescence -->
     <g style="fill: #262626" transform="translate(18.630625 207.966857)rotate(-90)scale(0.1 -0.1)">
      <defs>
       <path id="DejaVuSans-44" d="M 1259 4147 
L 1259 519 
L 2022 519 
Q 2988 519 3436 956 
Q 3884 1394 3884 2338 
Q 3884 3275 3436 3711 
Q 2988 4147 2022 4147 
L 1259 4147 
z
M 628 4666 
L 1925 4666 
Q 3281 4666 3915 4102 
Q 4550 3538 4550 2338 
Q 4550 1131 3912 565 
Q 3275 0 1925 0 
L 628 0 
L 628 4666 
z
" transform="scale(0.015625)"/>
       <path id="DejaVuSans-74" d="M 1172 4494 
L 1172 3500 
L 2356 3500 
L 2356 3053 
L 1172 3053 
L 1172 1153 
Q 1172 725 1289 603 
Q 1406 481 1766 481 
L 2356 481 
L 2356 0 
L 1766 0 
Q 1100 0 847 248 
Q 594 497 594 1153 
L 594 3053 
L 172 3053 
L 172 3500 
L 594 3500 
L 594 4494 
L 1172 4494 
z
" transform="scale(0.015625)"/>
       <path id="DejaVuSans-20" transform="scale(0.015625)"/>
       <path id="DejaVuSans-46" d="M 628 4666 
L 3309 4666 
L 3309 4134 
L 1259 4134 
L 1259 2759 
L 3109 2759 
L 3109 2228 
L 1259 2228 
L 1259 0 
L 628 0 
L 628 4666 
z
" transform="scale(0.015625)"/>
       <path id="DejaVuSans-75" d="M 544 1381 
L 544 3500 
L 1119 3500 
L 1119 1403 
Q 1119 906 1312 657 
Q 1506 409 1894 409 
Q 2359 409 2629 706 
Q 2900 1003 2900 1516 
L 2900 3500 
L 3475 3500 
L 3475 0 
L 2900 0 
L 2900 538 
Q 2691 219 2414 64 
Q 2138 -91 1772 -91 
Q 1169 -91 856 284 
Q 544 659 544 1381 
z
M 1991 3584 
L 1991 3584 
z
" transform="scale(0.015625)"/>
       <path id="DejaVuSans-6f" d="M 1959 3097 
Q 1497 3097 1228 2736 
Q 959 2375 959 1747 
Q 959 1119 1226 758 
Q 1494 397 1959 397 
Q 2419 397 2687 759 
Q 2956 1122 2956 1747 
Q 2956 2369 2687 2733 
Q 2419 3097 1959 3097 
z
M 1959 3584 
Q 2709 3584 3137 3096 
Q 3566 2609 3566 1747 
Q 3566 888 3137 398 
Q 2709 -91 1959 -91 
Q 1206 -91 779 398 
Q 353 888 353 1747 
Q 353 2609 779 3096 
Q 1206 3584 1959 3584 
z
" transform="scale(0.015625)"/>
       <path id="DejaVuSans-72" d="M 2631 2963 
Q 2534 3019 2420 3045 
Q 2306 3072 2169 3072 
Q 1681 3072 1420 2755 
Q 1159 2438 1159 1844 
L 1159 0 
L 581 0 
L 581 3500 
L 1159 3500 
L 1159 2956 
Q 1341 3275 1631 3429 
Q 1922 3584 2338 3584 
Q 2397 3584 2469 3576 
Q 2541 3569 2628 3553 
L 2631 2963 
z
" transform="scale(0.015625)"/>
       <path id="DejaVuSans-73" d="M 2834 3397 
L 2834 2853 
Q 2591 2978 2328 3040 
Q 2066 3103 1784 3103 
Q 1356 3103 1142 2972 
Q 928 2841 928 2578 
Q 928 2378 1081 2264 
Q 1234 2150 1697 2047 
L 1894 2003 
Q 2506 1872 2764 1633 
Q 3022 1394 3022 966 
Q 3022 478 2636 193 
Q 2250 -91 1575 -91 
Q 1294 -91 989 -36 
Q 684 19 347 128 
L 347 722 
Q 666 556 975 473 
Q 1284 391 1588 391 
Q 1994 391 2212 530 
Q 2431 669 2431 922 
Q 2431 1156 2273 1281 
Q 2116 1406 1581 1522 
L 1381 1569 
Q 847 1681 609 1914 
Q 372 2147 372 2553 
Q 372 3047 722 3315 
Q 1072 3584 1716 3584 
Q 2034 3584 2315 3537 
Q 2597 3491 2834 3397 
z
" transform="scale(0.015625)"/>
       <path id="DejaVuSans-63" d="M 3122 3366 
L 3122 2828 
Q 2878 2963 2633 3030 
Q 2388 3097 2138 3097 
Q 1578 3097 1268 2742 
Q 959 2388 959 1747 
Q 959 1106 1268 751 
Q 1578 397 2138 397 
Q 2388 397 2633 464 
Q 2878 531 3122 666 
L 3122 134 
Q 2881 22 2623 -34 
Q 2366 -91 2075 -91 
Q 1284 -91 818 406 
Q 353 903 353 1747 
Q 353 2603 823 3093 
Q 1294 3584 2113 3584 
Q 2378 3584 2631 3529 
Q 2884 3475 3122 3366 
z
" transform="scale(0.015625)"/>
       <path id="DejaVuSans-6e" d="M 3513 2113 
L 3513 0 
L 2938 0 
L 2938 2094 
Q 2938 2591 2744 2837 
Q 2550 3084 2163 3084 
Q 1697 3084 1428 2787 
Q 1159 2491 1159 1978 
L 1159 0 
L 581 0 
L 581 3500 
L 1159 3500 
L 1159 2956 
Q 1366 3272 1645 3428 
Q 1925 3584 2291 3584 
Q 2894 3584 3203 3211 
Q 3513 2838 3513 2113 
z
" transform="scale(0.015625)"/>
      </defs>
      <use xlink:href="#DejaVuSans-44"/>
      <use xlink:href="#DejaVuSans-65" x="77.001953"/>
      <use xlink:href="#DejaVuSans-6c" x="138.525391"/>
      <use xlink:href="#DejaVuSans-74" x="166.308594"/>
      <use xlink:href="#DejaVuSans-61" x="205.517578"/>
      <use xlink:href="#DejaVuSans-20" x="266.796875"/>
      <use xlink:href="#DejaVuSans-46" x="298.583984"/>
      <use xlink:href="#DejaVuSans-6c" x="356.103516"/>
      <use xlink:href="#DejaVuSans-75" x="383.886719"/>
      <use xlink:href="#DejaVuSans-6f" x="447.265625"/>
      <use xlink:href="#DejaVuSans-72" x="508.447266"/>
      <use xlink:href="#DejaVuSans-65" x="547.310547"/>
      <use xlink:href="#DejaVuSans-73" x="608.833984"/>
      <use xlink:href="#DejaVuSans-63" x="660.933594"/>
      <use xlink:href="#DejaVuSans-65" x="715.914062"/>
      <use xlink:href="#DejaVuSans-6e" x="777.4375"/>
      <use xlink:href="#DejaVuSans-63" x="840.816406"/>
      <use xlink:href="#DejaVuSans-65" x="895.796875"/>
     </g>
    </g>
   </g>
   <g id="patch_3">
    <path d="M 105.52384 161.286934 
L 256.23216 161.286934 
L 256.23216 121.888262 
L 105.52384 121.888262 
L 105.52384 161.286934 
z
" clip-path="url(#p1b97258ba9)" style="fill: #ecf2ec; stroke: #262626; stroke-width: 1.5; stroke-linejoin: miter"/>
   </g>
   <g id="patch_4">
    <path d="M 259.30784 125.636444 
L 410.01616 125.636444 
L 410.01616 75.719264 
L 259.30784 75.719264 
L 259.30784 125.636444 
z
" clip-path="url(#p1b97258ba9)" style="fill: #107010; stroke: #262626; stroke-width: 1.5; stroke-linejoin: miter"/>
   </g>
   <g id="patch_5">
    <path d="M 257.77 129.616672 
L 257.77 129.616672 
L 257.77 129.616672 
L 257.77 129.616672 
z
" clip-path="url(#p1b97258ba9)" style="fill: #ecf2ec; stroke: #262626; stroke-width: 0.75; stroke-linejoin: miter"/>
   </g>
   <g id="patch_6">
    <path d="M 257.77 129.616672 
L 257.77 129.616672 
L 257.77 129.616672 
L 257.77 129.616672 
z
" clip-path="url(#p1b97258ba9)" style="fill: #107010; stroke: #262626; stroke-width: 0.75; stroke-linejoin: miter"/>
   </g>
   <g id="PathCollection_1"/>
   <g id="PathCollection_2"/>
   <g id="line2d_9">
    <path d="M 180.878 161.286934 
L 180.878 185.863245 
" clip-path="url(#p1b97258ba9)" style="fill: none; stroke: #262626; stroke-width: 1.5; stroke-linecap: round"/>
   </g>
   <g id="line2d_10">
    <path d="M 180.878 121.888262 
L 180.878 65.747015 
" clip-path="url(#p1b97258ba9)" style="fill: none; stroke: #262626; stroke-width: 1.5; stroke-linecap: round"/>
   </g>
   <g id="line2d_11">
    <path d="M 143.20092 185.863245 
L 218.55508 185.863245 
" clip-path="url(#p1b97258ba9)" style="fill: none; stroke: #262626; stroke-width: 1.5; stroke-linecap: round"/>
   </g>
   <g id="line2d_12">
    <path d="M 143.20092 65.747015 
L 218.55508 65.747015 
" clip-path="url(#p1b97258ba9)" style="fill: none; stroke: #262626; stroke-width: 1.5; stroke-linecap: round"/>
   </g>
   <g id="line2d_13">
    <defs>
     <path id="m98f2637488" d="M -0 1.414214 
L 0.848528 0 
L 0 -1.414214 
L -0.848528 -0 
z
" style="stroke: #262626; stroke-linejoin: miter"/>
    </defs>
    <g clip-path="url(#p1b97258ba9)">
     <use xlink:href="#m98f2637488" x="180.878" y="303.64" style="fill: #262626; stroke: #262626; stroke-linejoin: miter"/>
    </g>
   </g>
   <g id="line2d_14">
    <path d="M 334.662 125.636444 
L 334.662 169.773767 
" clip-path="url(#p1b97258ba9)" style="fill: none; stroke: #262626; stroke-width: 1.5; stroke-linecap: round"/>
   </g>
   <g id="line2d_15">
    <path d="M 334.662 75.719264 
L 334.662 16.560901 
" clip-path="url(#p1b97258ba9)" style="fill: none; stroke: #262626; stroke-width: 1.5; stroke-linecap: round"/>
   </g>
   <g id="line2d_16">
    <path d="M 296.98492 169.773767 
L 372.33908 169.773767 
" clip-path="url(#p1b97258ba9)" style="fill: none; stroke: #262626; stroke-width: 1.5; stroke-linecap: round"/>
   </g>
   <g id="line2d_17">
    <path d="M 296.98492 16.560901 
L 372.33908 16.560901 
" clip-path="url(#p1b97258ba9)" style="fill: none; stroke: #262626; stroke-width: 1.5; stroke-linecap: round"/>
   </g>
   <g id="line2d_18"/>
   <g id="line2d_19">
    <path d="M 105.52384 151.597999 
L 256.23216 151.597999 
" clip-path="url(#p1b97258ba9)" style="fill: none; stroke: #262626; stroke-width: 1.5; stroke-linecap: round"/>
   </g>
   <g id="line2d_20">
    <path d="M 259.30784 106.003079 
L 410.01616 106.003079 
" clip-path="url(#p1b97258ba9)" style="fill: none; stroke: #262626; stroke-width: 1.5; stroke-linecap: round"/>
   </g>
   <g id="patch_7">
    <path d="M 65.54 303.64 
L 65.54 16.560901 
" style="fill: none; stroke: #cccccc; stroke-width: 0.8; stroke-linejoin: miter; stroke-linecap: square"/>
   </g>
   <g id="patch_8">
    <path d="M 450 303.64 
L 450 16.560901 
" style="fill: none; stroke: #cccccc; stroke-width: 0.8; stroke-linejoin: miter; stroke-linecap: square"/>
   </g>
   <g id="patch_9">
    <path d="M 65.54 303.64 
L 450 303.64 
" style="fill: none; stroke: #cccccc; stroke-width: 0.8; stroke-linejoin: miter; stroke-linecap: square"/>
   </g>
   <g id="patch_10">
    <path d="M 65.54 16.560901 
L 450 16.560901 
" style="fill: none; stroke: #cccccc; stroke-width: 0.8; stroke-linejoin: miter; stroke-linecap: square"/>
   </g>
   <g id="PathCollection_3">
    <defs>
     <path id="C0_0_cd535fa0fa" d="M 0 1 
C 0.265203 1 0.51958 0.894634 0.707107 0.707107 
C 0.894634 0.51958 1 0.265203 1 -0 
C 1 -0.265203 0.894634 -0.51958 0.707107 -0.707107 
C 0.51958 -0.894634 0.265203 -1 0 -1 
C -0.265203 -1 -0.51958 -0.894634 -0.707107 -0.707107 
C -0.894634 -0.51958 -1 -0.265203 -1 0 
C -1 0.265203 -0.894634 0.51958 -0.707107 0.707107 
C -0.51958 0.894634 -0.265203 1 0 1 
z
"/>
    </defs>
    <g clip-path="url(#p1b97258ba9)">
     <use xlink:href="#C0_0_cd535fa0fa" x="196.842447" y="303.64" style="fill: #262626"/>
    </g>
    <g clip-path="url(#p1b97258ba9)">
     <use xlink:href="#C0_0_cd535fa0fa" x="192.765902" y="113.530528" style="fill: #262626"/>
    </g>
    <g clip-path="url(#p1b97258ba9)">
     <use xlink:href="#C0_0_cd535fa0fa" x="183.488867" y="138.364616" style="fill: #262626"/>
    </g>
    <g clip-path="url(#p1b97258ba9)">
     <use xlink:href="#C0_0_cd535fa0fa" x="198.206316" y="144.229882" style="fill: #262626"/>
    </g>
    <g clip-path="url(#p1b97258ba9)">
     <use xlink:href="#C0_0_cd535fa0fa" x="186.856527" y="161.640782" style="fill: #262626"/>
    </g>
    <g clip-path="url(#p1b97258ba9)">
     <use xlink:href="#C0_0_cd535fa0fa" x="180.440523" y="143.557161" style="fill: #262626"/>
    </g>
    <g clip-path="url(#p1b97258ba9)">
     <use xlink:href="#C0_0_cd535fa0fa" x="162.329361" y="161.286934" style="fill: #262626"/>
    </g>
    <g clip-path="url(#p1b97258ba9)">
     <use xlink:href="#C0_0_cd535fa0fa" x="178.089529" y="171.352999" style="fill: #262626"/>
    </g>
    <g clip-path="url(#p1b97258ba9)">
     <use xlink:href="#C0_0_cd535fa0fa" x="197.734617" y="164.664199" style="fill: #262626"/>
    </g>
    <g clip-path="url(#p1b97258ba9)">
     <use xlink:href="#C0_0_cd535fa0fa" x="188.495865" y="143.165237" style="fill: #262626"/>
    </g>
    <g clip-path="url(#p1b97258ba9)">
     <use xlink:href="#C0_0_cd535fa0fa" x="196.009868" y="82.739309" style="fill: #262626"/>
    </g>
    <g clip-path="url(#p1b97258ba9)">
     <use xlink:href="#C0_0_cd535fa0fa" x="191.691551" y="121.888262" style="fill: #262626"/>
    </g>
    <g clip-path="url(#p1b97258ba9)">
     <use xlink:href="#C0_0_cd535fa0fa" x="186.972046" y="156.041651" style="fill: #262626"/>
    </g>
    <g clip-path="url(#p1b97258ba9)">
     <use xlink:href="#C0_0_cd535fa0fa" x="168.99367" y="165.017834" style="fill: #262626"/>
    </g>
    <g clip-path="url(#p1b97258ba9)">
     <use xlink:href="#C0_0_cd535fa0fa" x="176.230217" y="151.597999" style="fill: #262626"/>
    </g>
    <g clip-path="url(#p1b97258ba9)">
     <use xlink:href="#C0_0_cd535fa0fa" x="195.715212" y="118.372628" style="fill: #262626"/>
    </g>
    <g clip-path="url(#p1b97258ba9)">
     <use xlink:href="#C0_0_cd535fa0fa" x="179.790614" y="138.325938" style="fill: #262626"/>
    </g>
    <g clip-path="url(#p1b97258ba9)">
     <use xlink:href="#C0_0_cd535fa0fa" x="181.672861" y="154.05573" style="fill: #262626"/>
    </g>
    <g clip-path="url(#p1b97258ba9)">
     <use xlink:href="#C0_0_cd535fa0fa" x="195.669394" y="154.340644" style="fill: #262626"/>
    </g>
    <g clip-path="url(#p1b97258ba9)">
     <use xlink:href="#C0_0_cd535fa0fa" x="164.845354" y="79.301598" style="fill: #262626"/>
    </g>
    <g clip-path="url(#p1b97258ba9)">
     <use xlink:href="#C0_0_cd535fa0fa" x="196.169978" y="154.190351" style="fill: #262626"/>
    </g>
    <g clip-path="url(#p1b97258ba9)">
     <use xlink:href="#C0_0_cd535fa0fa" x="174.411265" y="113.477892" style="fill: #262626"/>
    </g>
    <g clip-path="url(#p1b97258ba9)">
     <use xlink:href="#C0_0_cd535fa0fa" x="199.132262" y="117.833214" style="fill: #262626"/>
    </g>
    <g clip-path="url(#p1b97258ba9)">
     <use xlink:href="#C0_0_cd535fa0fa" x="185.627312" y="101.94825" style="fill: #262626"/>
    </g>
    <g clip-path="url(#p1b97258ba9)">
     <use xlink:href="#C0_0_cd535fa0fa" x="165.272882" y="176.714652" style="fill: #262626"/>
    </g>
    <g clip-path="url(#p1b97258ba9)">
     <use xlink:href="#C0_0_cd535fa0fa" x="166.927719" y="65.747015" style="fill: #262626"/>
    </g>
    <g clip-path="url(#p1b97258ba9)">
     <use xlink:href="#C0_0_cd535fa0fa" x="189.742045" y="142.423052" style="fill: #262626"/>
    </g>
    <g clip-path="url(#p1b97258ba9)">
     <use xlink:href="#C0_0_cd535fa0fa" x="168.397455" y="137.43321" style="fill: #262626"/>
    </g>
    <g clip-path="url(#p1b97258ba9)">
     <use xlink:href="#C0_0_cd535fa0fa" x="193.042997" y="159.529158" style="fill: #262626"/>
    </g>
    <g clip-path="url(#p1b97258ba9)">
     <use xlink:href="#C0_0_cd535fa0fa" x="197.552607" y="136.764563" style="fill: #262626"/>
    </g>
    <g clip-path="url(#p1b97258ba9)">
     <use xlink:href="#C0_0_cd535fa0fa" x="179.876161" y="132.250879" style="fill: #262626"/>
    </g>
    <g clip-path="url(#p1b97258ba9)">
     <use xlink:href="#C0_0_cd535fa0fa" x="168.777572" y="165.842291" style="fill: #262626"/>
    </g>
    <g clip-path="url(#p1b97258ba9)">
     <use xlink:href="#C0_0_cd535fa0fa" x="176.712776" y="158.287038" style="fill: #262626"/>
    </g>
    <g clip-path="url(#p1b97258ba9)">
     <use xlink:href="#C0_0_cd535fa0fa" x="186.343954" y="169.253686" style="fill: #262626"/>
    </g>
    <g clip-path="url(#p1b97258ba9)">
     <use xlink:href="#C0_0_cd535fa0fa" x="179.985877" y="153.639723" style="fill: #262626"/>
    </g>
    <g clip-path="url(#p1b97258ba9)">
     <use xlink:href="#C0_0_cd535fa0fa" x="176.999649" y="156.684341" style="fill: #262626"/>
    </g>
    <g clip-path="url(#p1b97258ba9)">
     <use xlink:href="#C0_0_cd535fa0fa" x="166.294047" y="153.522279" style="fill: #262626"/>
    </g>
    <g clip-path="url(#p1b97258ba9)">
     <use xlink:href="#C0_0_cd535fa0fa" x="181.257631" y="159.648055" style="fill: #262626"/>
    </g>
    <g clip-path="url(#p1b97258ba9)">
     <use xlink:href="#C0_0_cd535fa0fa" x="199.872539" y="176.915972" style="fill: #262626"/>
    </g>
    <g clip-path="url(#p1b97258ba9)">
     <use xlink:href="#C0_0_cd535fa0fa" x="174.436479" y="163.260459" style="fill: #262626"/>
    </g>
    <g clip-path="url(#p1b97258ba9)">
     <use xlink:href="#C0_0_cd535fa0fa" x="190.489418" y="147.962775" style="fill: #262626"/>
    </g>
    <g clip-path="url(#p1b97258ba9)">
     <use xlink:href="#C0_0_cd535fa0fa" x="192.47549" y="104.307214" style="fill: #262626"/>
    </g>
    <g clip-path="url(#p1b97258ba9)">
     <use xlink:href="#C0_0_cd535fa0fa" x="190.6754" y="159.643861" style="fill: #262626"/>
    </g>
    <g clip-path="url(#p1b97258ba9)">
     <use xlink:href="#C0_0_cd535fa0fa" x="179.860774" y="154.110285" style="fill: #262626"/>
    </g>
    <g clip-path="url(#p1b97258ba9)">
     <use xlink:href="#C0_0_cd535fa0fa" x="162.042008" y="176.848905" style="fill: #262626"/>
    </g>
    <g clip-path="url(#p1b97258ba9)">
     <use xlink:href="#C0_0_cd535fa0fa" x="170.618228" y="84.532981" style="fill: #262626"/>
    </g>
    <g clip-path="url(#p1b97258ba9)">
     <use xlink:href="#C0_0_cd535fa0fa" x="180.896544" y="180.219935" style="fill: #262626"/>
    </g>
    <g clip-path="url(#p1b97258ba9)">
     <use xlink:href="#C0_0_cd535fa0fa" x="178.294604" y="142.800181" style="fill: #262626"/>
    </g>
    <g clip-path="url(#p1b97258ba9)">
     <use xlink:href="#C0_0_cd535fa0fa" x="170.834567" y="128.64606" style="fill: #262626"/>
    </g>
    <g clip-path="url(#p1b97258ba9)">
     <use xlink:href="#C0_0_cd535fa0fa" x="194.170757" y="112.496068" style="fill: #262626"/>
    </g>
    <g clip-path="url(#p1b97258ba9)">
     <use xlink:href="#C0_0_cd535fa0fa" x="198.778173" y="74.412021" style="fill: #262626"/>
    </g>
    <g clip-path="url(#p1b97258ba9)">
     <use xlink:href="#C0_0_cd535fa0fa" x="167.731438" y="72.435978" style="fill: #262626"/>
    </g>
    <g clip-path="url(#p1b97258ba9)">
     <use xlink:href="#C0_0_cd535fa0fa" x="173.503001" y="185.863245" style="fill: #262626"/>
    </g>
   </g>
   <g id="PathCollection_4">
    <defs>
     <path id="C1_0_2fc4b6fa83" d="M 0 1 
C 0.265203 1 0.51958 0.894634 0.707107 0.707107 
C 0.894634 0.51958 1 0.265203 1 -0 
C 1 -0.265203 0.894634 -0.51958 0.707107 -0.707107 
C 0.51958 -0.894634 0.265203 -1 0 -1 
C -0.265203 -1 -0.51958 -0.894634 -0.707107 -0.707107 
C -0.894634 -0.51958 -1 -0.265203 -1 0 
C -1 0.265203 -0.894634 0.51958 -0.707107 0.707107 
C -0.51958 0.894634 -0.265203 1 0 1 
z
"/>
    </defs>
    <g clip-path="url(#p1b97258ba9)">
     <use xlink:href="#C1_0_2fc4b6fa83" x="331.616658" y="122.532265"/>
    </g>
    <g clip-path="url(#p1b97258ba9)">
     <use xlink:href="#C1_0_2fc4b6fa83" x="352.111702" y="112.552212"/>
    </g>
    <g clip-path="url(#p1b97258ba9)">
     <use xlink:href="#C1_0_2fc4b6fa83" x="344.99295" y="100.651048"/>
    </g>
    <g clip-path="url(#p1b97258ba9)">
     <use xlink:href="#C1_0_2fc4b6fa83" x="333.466956" y="114.50146"/>
    </g>
    <g clip-path="url(#p1b97258ba9)">
     <use xlink:href="#C1_0_2fc4b6fa83" x="315.470292" y="75.719264"/>
    </g>
    <g clip-path="url(#p1b97258ba9)">
     <use xlink:href="#C1_0_2fc4b6fa83" x="326.656829" y="140.381372"/>
    </g>
    <g clip-path="url(#p1b97258ba9)">
     <use xlink:href="#C1_0_2fc4b6fa83" x="328.250405" y="82.56464"/>
    </g>
    <g clip-path="url(#p1b97258ba9)">
     <use xlink:href="#C1_0_2fc4b6fa83" x="327.397614" y="55.449806"/>
    </g>
    <g clip-path="url(#p1b97258ba9)">
     <use xlink:href="#C1_0_2fc4b6fa83" x="335.981182" y="169.102187"/>
    </g>
    <g clip-path="url(#p1b97258ba9)">
     <use xlink:href="#C1_0_2fc4b6fa83" x="343.686204" y="140.23534"/>
    </g>
    <g clip-path="url(#p1b97258ba9)">
     <use xlink:href="#C1_0_2fc4b6fa83" x="338.125088" y="96.257826"/>
    </g>
    <g clip-path="url(#p1b97258ba9)">
     <use xlink:href="#C1_0_2fc4b6fa83" x="349.922667" y="53.529392"/>
    </g>
    <g clip-path="url(#p1b97258ba9)">
     <use xlink:href="#C1_0_2fc4b6fa83" x="325.381855" y="34.94418"/>
    </g>
    <g clip-path="url(#p1b97258ba9)">
     <use xlink:href="#C1_0_2fc4b6fa83" x="333.188003" y="106.003079"/>
    </g>
    <g clip-path="url(#p1b97258ba9)">
     <use xlink:href="#C1_0_2fc4b6fa83" x="320.424848" y="107.588003"/>
    </g>
    <g clip-path="url(#p1b97258ba9)">
     <use xlink:href="#C1_0_2fc4b6fa83" x="350.063746" y="103.88471"/>
    </g>
    <g clip-path="url(#p1b97258ba9)">
     <use xlink:href="#C1_0_2fc4b6fa83" x="329.110731" y="94.651973"/>
    </g>
    <g clip-path="url(#p1b97258ba9)">
     <use xlink:href="#C1_0_2fc4b6fa83" x="323.783293" y="132.701571"/>
    </g>
    <g clip-path="url(#p1b97258ba9)">
     <use xlink:href="#C1_0_2fc4b6fa83" x="334.773306" y="102.974068"/>
    </g>
    <g clip-path="url(#p1b97258ba9)">
     <use xlink:href="#C1_0_2fc4b6fa83" x="353.712394" y="45.478842"/>
    </g>
    <g clip-path="url(#p1b97258ba9)">
     <use xlink:href="#C1_0_2fc4b6fa83" x="327.016614" y="34.374986"/>
    </g>
    <g clip-path="url(#p1b97258ba9)">
     <use xlink:href="#C1_0_2fc4b6fa83" x="327.35452" y="41.931083"/>
    </g>
    <g clip-path="url(#p1b97258ba9)">
     <use xlink:href="#C1_0_2fc4b6fa83" x="318.612434" y="52.630181"/>
    </g>
    <g clip-path="url(#p1b97258ba9)">
     <use xlink:href="#C1_0_2fc4b6fa83" x="338.878192" y="16.560901"/>
    </g>
    <g clip-path="url(#p1b97258ba9)">
     <use xlink:href="#C1_0_2fc4b6fa83" x="333.439177" y="64.375677"/>
    </g>
    <g clip-path="url(#p1b97258ba9)">
     <use xlink:href="#C1_0_2fc4b6fa83" x="338.641251" y="122.426555"/>
    </g>
    <g clip-path="url(#p1b97258ba9)">
     <use xlink:href="#C1_0_2fc4b6fa83" x="322.566912" y="89.518805"/>
    </g>
    <g clip-path="url(#p1b97258ba9)">
     <use xlink:href="#C1_0_2fc4b6fa83" x="317.163394" y="127.717528"/>
    </g>
    <g clip-path="url(#p1b97258ba9)">
     <use xlink:href="#C1_0_2fc4b6fa83" x="353.492686" y="133.529176"/>
    </g>
    <g clip-path="url(#p1b97258ba9)">
     <use xlink:href="#C1_0_2fc4b6fa83" x="324.201606" y="169.773767"/>
    </g>
    <g clip-path="url(#p1b97258ba9)">
     <use xlink:href="#C1_0_2fc4b6fa83" x="319.116522" y="126.463128"/>
    </g>
    <g clip-path="url(#p1b97258ba9)">
     <use xlink:href="#C1_0_2fc4b6fa83" x="330.119456" y="110.2367"/>
    </g>
    <g clip-path="url(#p1b97258ba9)">
     <use xlink:href="#C1_0_2fc4b6fa83" x="331.093664" y="154.788435"/>
    </g>
    <g clip-path="url(#p1b97258ba9)">
     <use xlink:href="#C1_0_2fc4b6fa83" x="317.682593" y="120.741935"/>
    </g>
    <g clip-path="url(#p1b97258ba9)">
     <use xlink:href="#C1_0_2fc4b6fa83" x="327.098477" y="111.271561"/>
    </g>
    <g clip-path="url(#p1b97258ba9)">
     <use xlink:href="#C1_0_2fc4b6fa83" x="351.66153" y="104.926109"/>
    </g>
    <g clip-path="url(#p1b97258ba9)">
     <use xlink:href="#C1_0_2fc4b6fa83" x="338.272113" y="154.797029"/>
    </g>
    <g clip-path="url(#p1b97258ba9)">
     <use xlink:href="#C1_0_2fc4b6fa83" x="330.191095" y="154.224132"/>
    </g>
    <g clip-path="url(#p1b97258ba9)">
     <use xlink:href="#C1_0_2fc4b6fa83" x="340.817578" y="125.636444"/>
    </g>
    <g clip-path="url(#p1b97258ba9)">
     <use xlink:href="#C1_0_2fc4b6fa83" x="332.011634" y="122.033854"/>
    </g>
    <g clip-path="url(#p1b97258ba9)">
     <use xlink:href="#C1_0_2fc4b6fa83" x="322.332957" y="102.284102"/>
    </g>
    <g clip-path="url(#p1b97258ba9)">
     <use xlink:href="#C1_0_2fc4b6fa83" x="338.607165" y="126.306452"/>
    </g>
    <g clip-path="url(#p1b97258ba9)">
     <use xlink:href="#C1_0_2fc4b6fa83" x="336.61873" y="73.031801"/>
    </g>
    <g clip-path="url(#p1b97258ba9)">
     <use xlink:href="#C1_0_2fc4b6fa83" x="320.981233" y="106.622047"/>
    </g>
    <g clip-path="url(#p1b97258ba9)">
     <use xlink:href="#C1_0_2fc4b6fa83" x="353.227234" y="102.180724"/>
    </g>
    <g clip-path="url(#p1b97258ba9)">
     <use xlink:href="#C1_0_2fc4b6fa83" x="339.466458" y="100.662157"/>
    </g>
    <g clip-path="url(#p1b97258ba9)">
     <use xlink:href="#C1_0_2fc4b6fa83" x="338.102923" y="130.437535"/>
    </g>
    <g clip-path="url(#p1b97258ba9)">
     <use xlink:href="#C1_0_2fc4b6fa83" x="326.297474" y="119.443504"/>
    </g>
    <g clip-path="url(#p1b97258ba9)">
     <use xlink:href="#C1_0_2fc4b6fa83" x="333.625532" y="93.045657"/>
    </g>
    <g clip-path="url(#p1b97258ba9)">
     <use xlink:href="#C1_0_2fc4b6fa83" x="347.704673" y="114.734446"/>
    </g>
    <g clip-path="url(#p1b97258ba9)">
     <use xlink:href="#C1_0_2fc4b6fa83" x="334.214857" y="47.911134"/>
    </g>
    <g clip-path="url(#p1b97258ba9)">
     <use xlink:href="#C1_0_2fc4b6fa83" x="343.663124" y="71.484328"/>
    </g>
    <g clip-path="url(#p1b97258ba9)">
     <use xlink:href="#C1_0_2fc4b6fa83" x="352.734601" y="56.847209"/>
    </g>
    <g clip-path="url(#p1b97258ba9)">
     <use xlink:href="#C1_0_2fc4b6fa83" x="342.313547" y="43.753439"/>
    </g>
    <g clip-path="url(#p1b97258ba9)">
     <use xlink:href="#C1_0_2fc4b6fa83" x="335.126698" y="141.307917"/>
    </g>
    <g clip-path="url(#p1b97258ba9)">
     <use xlink:href="#C1_0_2fc4b6fa83" x="329.732598" y="108.783437"/>
    </g>
    <g clip-path="url(#p1b97258ba9)">
     <use xlink:href="#C1_0_2fc4b6fa83" x="339.526579" y="96.738112"/>
    </g>
   </g>
   <g id="text_12">
    <!-- 53 -->
    <g style="fill: #262626" transform="translate(200.101 129.586954)scale(0.1 -0.1)">
     <defs>
      <path id="DejaVuSans-35" d="M 691 4666 
L 3169 4666 
L 3169 4134 
L 1269 4134 
L 1269 2991 
Q 1406 3038 1543 3061 
Q 1681 3084 1819 3084 
Q 2600 3084 3056 2656 
Q 3513 2228 3513 1497 
Q 3513 744 3044 326 
Q 2575 -91 1722 -91 
Q 1428 -91 1123 -41 
Q 819 9 494 109 
L 494 744 
Q 775 591 1075 516 
Q 1375 441 1709 441 
Q 2250 441 2565 725 
Q 2881 1009 2881 1497 
Q 2881 1984 2565 2268 
Q 2250 2553 1709 2553 
Q 1456 2553 1204 2497 
Q 953 2441 691 2322 
L 691 4666 
z
" transform="scale(0.015625)"/>
      <path id="DejaVuSans-33" d="M 2597 2516 
Q 3050 2419 3304 2112 
Q 3559 1806 3559 1356 
Q 3559 666 3084 287 
Q 2609 -91 1734 -91 
Q 1441 -91 1130 -33 
Q 819 25 488 141 
L 488 750 
Q 750 597 1062 519 
Q 1375 441 1716 441 
Q 2309 441 2620 675 
Q 2931 909 2931 1356 
Q 2931 1769 2642 2001 
Q 2353 2234 1838 2234 
L 1294 2234 
L 1294 2753 
L 1863 2753 
Q 2328 2753 2575 2939 
Q 2822 3125 2822 3475 
Q 2822 3834 2567 4026 
Q 2313 4219 1838 4219 
Q 1578 4219 1281 4162 
Q 984 4106 628 3988 
L 628 4550 
Q 988 4650 1302 4700 
Q 1616 4750 1894 4750 
Q 2613 4750 3031 4423 
Q 3450 4097 3450 3541 
Q 3450 3153 3228 2886 
Q 3006 2619 2597 2516 
z
" transform="scale(0.015625)"/>
     </defs>
     <use xlink:href="#DejaVuSans-35"/>
     <use xlink:href="#DejaVuSans-33" x="63.623047"/>
    </g>
   </g>
   <g id="text_13">
    <!-- p=nan -->
    <g style="fill: #262626" transform="translate(186.6885 65.746114)scale(0.08 -0.08)">
     <defs>
      <path id="DejaVuSans-3d" d="M 678 2906 
L 4684 2906 
L 4684 2381 
L 678 2381 
L 678 2906 
z
M 678 1631 
L 4684 1631 
L 4684 1100 
L 678 1100 
L 678 1631 
z
" transform="scale(0.015625)"/>
     </defs>
     <use xlink:href="#DejaVuSans-70"/>
     <use xlink:href="#DejaVuSans-3d" x="63.476562"/>
     <use xlink:href="#DejaVuSans-6e" x="147.265625"/>
     <use xlink:href="#DejaVuSans-61" x="210.644531"/>
     <use xlink:href="#DejaVuSans-6e" x="271.923828"/>
    </g>
   </g>
   <g id="text_14">
    <!-- 57 -->
    <g style="fill: #262626" transform="translate(315.439 129.586954)scale(0.1 -0.1)">
     <defs>
      <path id="DejaVuSans-37" d="M 525 4666 
L 3525 4666 
L 3525 4397 
L 1831 0 
L 1172 0 
L 2766 4134 
L 525 4134 
L 525 4666 
z
" transform="scale(0.015625)"/>
     </defs>
     <use xlink:href="#DejaVuSans-35"/>
     <use xlink:href="#DejaVuSans-37" x="63.623047"/>
    </g>
   </g>
   <g id="text_15">
    <!-- p=nan -->
    <g style="fill: #262626" transform="translate(302.0265 16.56)scale(0.08 -0.08)">
     <use xlink:href="#DejaVuSans-70"/>
     <use xlink:href="#DejaVuSans-3d" x="63.476562"/>
     <use xlink:href="#DejaVuSans-6e" x="147.265625"/>
     <use xlink:href="#DejaVuSans-61" x="210.644531"/>
     <use xlink:href="#DejaVuSans-6e" x="271.923828"/>
    </g>
   </g>
   <g id="legend_1">
    <g id="patch_11">
     <path d="M 387.048438 33.159338 
L 407.048438 33.159338 
L 407.048438 26.159338 
L 387.048438 26.159338 
z
" style="fill: #ecf2ec; stroke: #262626; stroke-width: 0.75; stroke-linejoin: miter"/>
    </g>
    <g id="text_16">
     <!-- void -->
     <g style="fill: #262626" transform="translate(415.048438 33.159338)scale(0.1 -0.1)">
      <defs>
       <path id="DejaVuSans-76" d="M 191 3500 
L 800 3500 
L 1894 563 
L 2988 3500 
L 3597 3500 
L 2284 0 
L 1503 0 
L 191 3500 
z
" transform="scale(0.015625)"/>
       <path id="DejaVuSans-69" d="M 603 3500 
L 1178 3500 
L 1178 0 
L 603 0 
L 603 3500 
z
M 603 4863 
L 1178 4863 
L 1178 4134 
L 603 4134 
L 603 4863 
z
" transform="scale(0.015625)"/>
       <path id="DejaVuSans-64" d="M 2906 2969 
L 2906 4863 
L 3481 4863 
L 3481 0 
L 2906 0 
L 2906 525 
Q 2725 213 2448 61 
Q 2172 -91 1784 -91 
Q 1150 -91 751 415 
Q 353 922 353 1747 
Q 353 2572 751 3078 
Q 1150 3584 1784 3584 
Q 2172 3584 2448 3432 
Q 2725 3281 2906 2969 
z
M 947 1747 
Q 947 1113 1208 752 
Q 1469 391 1925 391 
Q 2381 391 2643 752 
Q 2906 1113 2906 1747 
Q 2906 2381 2643 2742 
Q 2381 3103 1925 3103 
Q 1469 3103 1208 2742 
Q 947 2381 947 1747 
z
" transform="scale(0.015625)"/>
      </defs>
      <use xlink:href="#DejaVuSans-76"/>
      <use xlink:href="#DejaVuSans-6f" x="59.179688"/>
      <use xlink:href="#DejaVuSans-69" x="120.361328"/>
      <use xlink:href="#DejaVuSans-64" x="148.144531"/>
     </g>
    </g>
    <g id="patch_12">
     <path d="M 387.048438 47.837463 
L 407.048438 47.837463 
L 407.048438 40.837463 
L 387.048438 40.837463 
z
" style="fill: #107010; stroke: #262626; stroke-width: 0.75; stroke-linejoin: miter"/>
    </g>
    <g id="text_17">
     <!-- clash -->
     <g style="fill: #262626" transform="translate(415.048438 47.837463)scale(0.1 -0.1)">
      <defs>
       <path id="DejaVuSans-68" d="M 3513 2113 
L 3513 0 
L 2938 0 
L 2938 2094 
Q 2938 2591 2744 2837 
Q 2550 3084 2163 3084 
Q 1697 3084 1428 2787 
Q 1159 2491 1159 1978 
L 1159 0 
L 581 0 
L 581 4863 
L 1159 4863 
L 1159 2956 
Q 1366 3272 1645 3428 
Q 1925 3584 2291 3584 
Q 2894 3584 3203 3211 
Q 3513 2838 3513 2113 
z
" transform="scale(0.015625)"/>
      </defs>
      <use xlink:href="#DejaVuSans-63"/>
      <use xlink:href="#DejaVuSans-6c" x="54.980469"/>
      <use xlink:href="#DejaVuSans-61" x="82.763672"/>
      <use xlink:href="#DejaVuSans-73" x="144.042969"/>
      <use xlink:href="#DejaVuSans-68" x="196.142578"/>
     </g>
    </g>
   </g>
  </g>
 </g>
 <defs>
  <clipPath id="p1b97258ba9">
   <rect x="65.54" y="16.560901" width="384.46" height="287.079099"/>
  </clipPath>
 </defs>
</svg>
