<?xml version="1.0" encoding="utf-8" standalone="no"?>
<!DOCTYPE svg PUBLIC "-//W3C//DTD SVG 1.1//EN"
  "http://www.w3.org/Graphics/SVG/1.1/DTD/svg11.dtd">
<svg xmlns:xlink="http://www.w3.org/1999/xlink" width="460.8pt" height="345.6pt" viewBox="0 0 460.8 345.6" xmlns="http://www.w3.org/2000/svg" version="1.1">
 <metadata>
  <rdf:RDF xmlns:dc="http://purl.org/dc/elements/1.1/" xmlns:cc="http://creativecommons.org/ns#" xmlns:rdf="http://www.w3.org/1999/02/22-rdf-syntax-ns#">
   <cc:Work>
    <dc:type rdf:resource="http://purl.org/dc/dcmitype/StillImage"/>
    <dc:date>2024-06-12T17:53:17.180233</dc:date>
    <dc:format>image/svg+xml</dc:format>
    <dc:creator>
     <cc:Agent>
      <dc:title>Matplotlib v3.5.3, https://matplotlib.org/</dc:title>
     </cc:Agent>
    </dc:creator>
   </cc:Work>
  </rdf:RDF>
 </metadata>
 <defs>
  <style type="text/css">*{stroke-linejoin: round; stroke-linecap: butt}</style>
 </defs>
 <g id="figure_1">
  <g id="patch_1">
   <path d="M 0 345.6 
L 460.8 345.6 
L 460.8 0 
L 0 0 
z
" style="fill: #ffffff"/>
  </g>
  <g id="axes_1">
   <g id="patch_2">
    <path d="M 65.45 303.64 
L 450 303.64 
L 450 16.560365 
L 65.45 16.560365 
z
" style="fill: #ffffff"/>
   </g>
   <g id="matplotlib.axis_1">
    <g id="xtick_1">
     <g id="text_1">
      <!-- G -->
      <g style="fill: #262626" transform="translate(253.850781 318.238437)scale(0.1 -0.1)">
       <defs>
        <path id="DejaVuSans-47" d="M 3809 666 
L 3809 1919 
L 2778 1919 
L 2778 2438 
L 4434 2438 
L 4434 434 
Q 4069 175 3628 42 
Q 3188 -91 2688 -91 
Q 1594 -91 976 548 
Q 359 1188 359 2328 
Q 359 3472 976 4111 
Q 1594 4750 2688 4750 
Q 3144 4750 3555 4637 
Q 3966 4525 4313 4306 
L 4313 3634 
Q 3963 3931 3569 4081 
Q 3175 4231 2741 4231 
Q 1884 4231 1454 3753 
Q 1025 3275 1025 2328 
Q 1025 1384 1454 906 
Q 1884 428 2741 428 
Q 3075 428 3337 486 
Q 3600 544 3809 666 
z
" transform="scale(0.015625)"/>
       </defs>
       <use xlink:href="#DejaVuSans-47"/>
      </g>
     </g>
    </g>
    <g id="text_2">
     <!-- Sample -->
     <g style="fill: #262626" transform="translate(238.976563 331.916562)scale(0.1 -0.1)">
      <defs>
       <path id="DejaVuSans-53" d="M 3425 4513 
L 3425 3897 
Q 3066 4069 2747 4153 
Q 2428 4238 2131 4238 
Q 1616 4238 1336 4038 
Q 1056 3838 1056 3469 
Q 1056 3159 1242 3001 
Q 1428 2844 1947 2747 
L 2328 2669 
Q 3034 2534 3370 2195 
Q 3706 1856 3706 1288 
Q 3706 609 3251 259 
Q 2797 -91 1919 -91 
Q 1588 -91 1214 -16 
Q 841 59 441 206 
L 441 856 
Q 825 641 1194 531 
Q 1563 422 1919 422 
Q 2459 422 2753 634 
Q 3047 847 3047 1241 
Q 3047 1584 2836 1778 
Q 2625 1972 2144 2069 
L 1759 2144 
Q 1053 2284 737 2584 
Q 422 2884 422 3419 
Q 422 4038 858 4394 
Q 1294 4750 2059 4750 
Q 2388 4750 2728 4690 
Q 3069 4631 3425 4513 
z
" transform="scale(0.015625)"/>
       <path id="DejaVuSans-61" d="M 2194 1759 
Q 1497 1759 1228 1600 
Q 959 1441 959 1056 
Q 959 750 1161 570 
Q 1363 391 1709 391 
Q 2188 391 2477 730 
Q 2766 1069 2766 1631 
L 2766 1759 
L 2194 1759 
z
M 3341 1997 
L 3341 0 
L 2766 0 
L 2766 531 
Q 2569 213 2275 61 
Q 1981 -91 1556 -91 
Q 1019 -91 701 211 
Q 384 513 384 1019 
Q 384 1609 779 1909 
Q 1175 2209 1959 2209 
L 2766 2209 
L 2766 2266 
Q 2766 2663 2505 2880 
Q 2244 3097 1772 3097 
Q 1472 3097 1187 3025 
Q 903 2953 641 2809 
L 641 3341 
Q 956 3463 1253 3523 
Q 1550 3584 1831 3584 
Q 2591 3584 2966 3190 
Q 3341 2797 3341 1997 
z
" transform="scale(0.015625)"/>
       <path id="DejaVuSans-6d" d="M 3328 2828 
Q 3544 3216 3844 3400 
Q 4144 3584 4550 3584 
Q 5097 3584 5394 3201 
Q 5691 2819 5691 2113 
L 5691 0 
L 5113 0 
L 5113 2094 
Q 5113 2597 4934 2840 
Q 4756 3084 4391 3084 
Q 3944 3084 3684 2787 
Q 3425 2491 3425 1978 
L 3425 0 
L 2847 0 
L 2847 2094 
Q 2847 2600 2669 2842 
Q 2491 3084 2119 3084 
Q 1678 3084 1418 2786 
Q 1159 2488 1159 1978 
L 1159 0 
L 581 0 
L 581 3500 
L 1159 3500 
L 1159 2956 
Q 1356 3278 1631 3431 
Q 1906 3584 2284 3584 
Q 2666 3584 2933 3390 
Q 3200 3197 3328 2828 
z
" transform="scale(0.015625)"/>
       <path id="DejaVuSans-70" d="M 1159 525 
L 1159 -1331 
L 581 -1331 
L 581 3500 
L 1159 3500 
L 1159 2969 
Q 1341 3281 1617 3432 
Q 1894 3584 2278 3584 
Q 2916 3584 3314 3078 
Q 3713 2572 3713 1747 
Q 3713 922 3314 415 
Q 2916 -91 2278 -91 
Q 1894 -91 1617 61 
Q 1341 213 1159 525 
z
M 3116 1747 
Q 3116 2381 2855 2742 
Q 2594 3103 2138 3103 
Q 1681 3103 1420 2742 
Q 1159 2381 1159 1747 
Q 1159 1113 1420 752 
Q 1681 391 2138 391 
Q 2594 391 2855 752 
Q 3116 1113 3116 1747 
z
" transform="scale(0.015625)"/>
       <path id="DejaVuSans-6c" d="M 603 4863 
L 1178 4863 
L 1178 0 
L 603 0 
L 603 4863 
z
" transform="scale(0.015625)"/>
       <path id="DejaVuSans-65" d="M 3597 1894 
L 3597 1613 
L 953 1613 
Q 991 1019 1311 708 
Q 1631 397 2203 397 
Q 2534 397 2845 478 
Q 3156 559 3463 722 
L 3463 178 
Q 3153 47 2828 -22 
Q 2503 -91 2169 -91 
Q 1331 -91 842 396 
Q 353 884 353 1716 
Q 353 2575 817 3079 
Q 1281 3584 2069 3584 
Q 2775 3584 3186 3129 
Q 3597 2675 3597 1894 
z
M 3022 2063 
Q 3016 2534 2758 2815 
Q 2500 3097 2075 3097 
Q 1594 3097 1305 2825 
Q 1016 2553 972 2059 
L 3022 2063 
z
" transform="scale(0.015625)"/>
      </defs>
      <use xlink:href="#DejaVuSans-53"/>
      <use xlink:href="#DejaVuSans-61" x="63.476562"/>
      <use xlink:href="#DejaVuSans-6d" x="124.755859"/>
      <use xlink:href="#DejaVuSans-70" x="222.167969"/>
      <use xlink:href="#DejaVuSans-6c" x="285.644531"/>
      <use xlink:href="#DejaVuSans-65" x="313.427734"/>
     </g>
    </g>
   </g>
   <g id="matplotlib.axis_2">
    <g id="ytick_1">
     <g id="line2d_1">
      <path d="M 65.45 277.204689 
L 450 277.204689 
" clip-path="url(#pe66b27667b)" style="fill: none; stroke: #cccccc; stroke-width: 0.8; stroke-linecap: round"/>
     </g>
     <g id="text_3">
      <!-- −5000 -->
      <g style="fill: #262626" transform="translate(24.620313 281.003908)scale(0.1 -0.1)">
       <defs>
        <path id="DejaVuSans-2212" d="M 678 2272 
L 4684 2272 
L 4684 1741 
L 678 1741 
L 678 2272 
z
" transform="scale(0.015625)"/>
        <path id="DejaVuSans-35" d="M 691 4666 
L 3169 4666 
L 3169 4134 
L 1269 4134 
L 1269 2991 
Q 1406 3038 1543 3061 
Q 1681 3084 1819 3084 
Q 2600 3084 3056 2656 
Q 3513 2228 3513 1497 
Q 3513 744 3044 326 
Q 2575 -91 1722 -91 
Q 1428 -91 1123 -41 
Q 819 9 494 109 
L 494 744 
Q 775 591 1075 516 
Q 1375 441 1709 441 
Q 2250 441 2565 725 
Q 2881 1009 2881 1497 
Q 2881 1984 2565 2268 
Q 2250 2553 1709 2553 
Q 1456 2553 1204 2497 
Q 953 2441 691 2322 
L 691 4666 
z
" transform="scale(0.015625)"/>
        <path id="DejaVuSans-30" d="M 2034 4250 
Q 1547 4250 1301 3770 
Q 1056 3291 1056 2328 
Q 1056 1369 1301 889 
Q 1547 409 2034 409 
Q 2525 409 2770 889 
Q 3016 1369 3016 2328 
Q 3016 3291 2770 3770 
Q 2525 4250 2034 4250 
z
M 2034 4750 
Q 2819 4750 3233 4129 
Q 3647 3509 3647 2328 
Q 3647 1150 3233 529 
Q 2819 -91 2034 -91 
Q 1250 -91 836 529 
Q 422 1150 422 2328 
Q 422 3509 836 4129 
Q 1250 4750 2034 4750 
z
" transform="scale(0.015625)"/>
       </defs>
       <use xlink:href="#DejaVuSans-2212"/>
       <use xlink:href="#DejaVuSans-35" x="83.789062"/>
       <use xlink:href="#DejaVuSans-30" x="147.412109"/>
       <use xlink:href="#DejaVuSans-30" x="211.035156"/>
       <use xlink:href="#DejaVuSans-30" x="274.658203"/>
      </g>
     </g>
    </g>
    <g id="ytick_2">
     <g id="line2d_2">
      <path d="M 65.45 237.850907 
L 450 237.850907 
" clip-path="url(#pe66b27667b)" style="fill: none; stroke: #cccccc; stroke-width: 0.8; stroke-linecap: round"/>
     </g>
     <g id="text_4">
      <!-- 0 -->
      <g style="fill: #262626" transform="translate(52.0875 241.650126)scale(0.1 -0.1)">
       <use xlink:href="#DejaVuSans-30"/>
      </g>
     </g>
    </g>
    <g id="ytick_3">
     <g id="line2d_3">
      <path d="M 65.45 198.497125 
L 450 198.497125 
" clip-path="url(#pe66b27667b)" style="fill: none; stroke: #cccccc; stroke-width: 0.8; stroke-linecap: round"/>
     </g>
     <g id="text_5">
      <!-- 5000 -->
      <g style="fill: #262626" transform="translate(33 202.296344)scale(0.1 -0.1)">
       <use xlink:href="#DejaVuSans-35"/>
       <use xlink:href="#DejaVuSans-30" x="63.623047"/>
       <use xlink:href="#DejaVuSans-30" x="127.246094"/>
       <use xlink:href="#DejaVuSans-30" x="190.869141"/>
      </g>
     </g>
    </g>
    <g id="ytick_4">
     <g id="line2d_4">
      <path d="M 65.45 159.143343 
L 450 159.143343 
" clip-path="url(#pe66b27667b)" style="fill: none; stroke: #cccccc; stroke-width: 0.8; stroke-linecap: round"/>
     </g>
     <g id="text_6">
      <!-- 10000 -->
      <g style="fill: #262626" transform="translate(26.6375 162.942562)scale(0.1 -0.1)">
       <defs>
        <path id="DejaVuSans-31" d="M 794 531 
L 1825 531 
L 1825 4091 
L 703 3866 
L 703 4441 
L 1819 4666 
L 2450 4666 
L 2450 531 
L 3481 531 
L 3481 0 
L 794 0 
L 794 531 
z
" transform="scale(0.015625)"/>
       </defs>
       <use xlink:href="#DejaVuSans-31"/>
       <use xlink:href="#DejaVuSans-30" x="63.623047"/>
       <use xlink:href="#DejaVuSans-30" x="127.246094"/>
       <use xlink:href="#DejaVuSans-30" x="190.869141"/>
       <use xlink:href="#DejaVuSans-30" x="254.492188"/>
      </g>
     </g>
    </g>
    <g id="ytick_5">
     <g id="line2d_5">
      <path d="M 65.45 119.789561 
L 450 119.789561 
" clip-path="url(#pe66b27667b)" style="fill: none; stroke: #cccccc; stroke-width: 0.8; stroke-linecap: round"/>
     </g>
     <g id="text_7">
      <!-- 15000 -->
      <g style="fill: #262626" transform="translate(26.6375 123.58878)scale(0.1 -0.1)">
       <use xlink:href="#DejaVuSans-31"/>
       <use xlink:href="#DejaVuSans-35" x="63.623047"/>
       <use xlink:href="#DejaVuSans-30" x="127.246094"/>
       <use xlink:href="#DejaVuSans-30" x="190.869141"/>
       <use xlink:href="#DejaVuSans-30" x="254.492188"/>
      </g>
     </g>
    </g>
    <g id="ytick_6">
     <g id="line2d_6">
      <path d="M 65.45 80.435779 
L 450 80.435779 
" clip-path="url(#pe66b27667b)" style="fill: none; stroke: #cccccc; stroke-width: 0.8; stroke-linecap: round"/>
     </g>
     <g id="text_8">
      <!-- 20000 -->
      <g style="fill: #262626" transform="translate(26.6375 84.234998)scale(0.1 -0.1)">
       <defs>
        <path id="DejaVuSans-32" d="M 1228 531 
L 3431 531 
L 3431 0 
L 469 0 
L 469 531 
Q 828 903 1448 1529 
Q 2069 2156 2228 2338 
Q 2531 2678 2651 2914 
Q 2772 3150 2772 3378 
Q 2772 3750 2511 3984 
Q 2250 4219 1831 4219 
Q 1534 4219 1204 4116 
Q 875 4013 500 3803 
L 500 4441 
Q 881 4594 1212 4672 
Q 1544 4750 1819 4750 
Q 2544 4750 2975 4387 
Q 3406 4025 3406 3419 
Q 3406 3131 3298 2873 
Q 3191 2616 2906 2266 
Q 2828 2175 2409 1742 
Q 1991 1309 1228 531 
z
" transform="scale(0.015625)"/>
       </defs>
       <use xlink:href="#DejaVuSans-32"/>
       <use xlink:href="#DejaVuSans-30" x="63.623047"/>
       <use xlink:href="#DejaVuSans-30" x="127.246094"/>
       <use xlink:href="#DejaVuSans-30" x="190.869141"/>
       <use xlink:href="#DejaVuSans-30" x="254.492188"/>
      </g>
     </g>
    </g>
    <g id="ytick_7">
     <g id="line2d_7">
      <path d="M 65.45 41.081997 
L 450 41.081997 
" clip-path="url(#pe66b27667b)" style="fill: none; stroke: #cccccc; stroke-width: 0.8; stroke-linecap: round"/>
     </g>
     <g id="text_9">
      <!-- 25000 -->
      <g style="fill: #262626" transform="translate(26.6375 44.881216)scale(0.1 -0.1)">
       <use xlink:href="#DejaVuSans-32"/>
       <use xlink:href="#DejaVuSans-35" x="63.623047"/>
       <use xlink:href="#DejaVuSans-30" x="127.246094"/>
       <use xlink:href="#DejaVuSans-30" x="190.869141"/>
       <use xlink:href="#DejaVuSans-30" x="254.492188"/>
      </g>
     </g>
    </g>
    <g id="text_10">
     <!-- Delta Fluorescence -->
     <g style="fill: #262626" transform="translate(18.540625 207.966589)rotate(-90)scale(0.1 -0.1)">
      <defs>
       <path id="DejaVuSans-44" d="M 1259 4147 
L 1259 519 
L 2022 519 
Q 2988 519 3436 956 
Q 3884 1394 3884 2338 
Q 3884 3275 3436 3711 
Q 2988 4147 2022 4147 
L 1259 4147 
z
M 628 4666 
L 1925 4666 
Q 3281 4666 3915 4102 
Q 4550 3538 4550 2338 
Q 4550 1131 3912 565 
Q 3275 0 1925 0 
L 628 0 
L 628 4666 
z
" transform="scale(0.015625)"/>
       <path id="DejaVuSans-74" d="M 1172 4494 
L 1172 3500 
L 2356 3500 
L 2356 3053 
L 1172 3053 
L 1172 1153 
Q 1172 725 1289 603 
Q 1406 481 1766 481 
L 2356 481 
L 2356 0 
L 1766 0 
Q 1100 0 847 248 
Q 594 497 594 1153 
L 594 3053 
L 172 3053 
L 172 3500 
L 594 3500 
L 594 4494 
L 1172 4494 
z
" transform="scale(0.015625)"/>
       <path id="DejaVuSans-20" transform="scale(0.015625)"/>
       <path id="DejaVuSans-46" d="M 628 4666 
L 3309 4666 
L 3309 4134 
L 1259 4134 
L 1259 2759 
L 3109 2759 
L 3109 2228 
L 1259 2228 
L 1259 0 
L 628 0 
L 628 4666 
z
" transform="scale(0.015625)"/>
       <path id="DejaVuSans-75" d="M 544 1381 
L 544 3500 
L 1119 3500 
L 1119 1403 
Q 1119 906 1312 657 
Q 1506 409 1894 409 
Q 2359 409 2629 706 
Q 2900 1003 2900 1516 
L 2900 3500 
L 3475 3500 
L 3475 0 
L 2900 0 
L 2900 538 
Q 2691 219 2414 64 
Q 2138 -91 1772 -91 
Q 1169 -91 856 284 
Q 544 659 544 1381 
z
M 1991 3584 
L 1991 3584 
z
" transform="scale(0.015625)"/>
       <path id="DejaVuSans-6f" d="M 1959 3097 
Q 1497 3097 1228 2736 
Q 959 2375 959 1747 
Q 959 1119 1226 758 
Q 1494 397 1959 397 
Q 2419 397 2687 759 
Q 2956 1122 2956 1747 
Q 2956 2369 2687 2733 
Q 2419 3097 1959 3097 
z
M 1959 3584 
Q 2709 3584 3137 3096 
Q 3566 2609 3566 1747 
Q 3566 888 3137 398 
Q 2709 -91 1959 -91 
Q 1206 -91 779 398 
Q 353 888 353 1747 
Q 353 2609 779 3096 
Q 1206 3584 1959 3584 
z
" transform="scale(0.015625)"/>
       <path id="DejaVuSans-72" d="M 2631 2963 
Q 2534 3019 2420 3045 
Q 2306 3072 2169 3072 
Q 1681 3072 1420 2755 
Q 1159 2438 1159 1844 
L 1159 0 
L 581 0 
L 581 3500 
L 1159 3500 
L 1159 2956 
Q 1341 3275 1631 3429 
Q 1922 3584 2338 3584 
Q 2397 3584 2469 3576 
Q 2541 3569 2628 3553 
L 2631 2963 
z
" transform="scale(0.015625)"/>
       <path id="DejaVuSans-73" d="M 2834 3397 
L 2834 2853 
Q 2591 2978 2328 3040 
Q 2066 3103 1784 3103 
Q 1356 3103 1142 2972 
Q 928 2841 928 2578 
Q 928 2378 1081 2264 
Q 1234 2150 1697 2047 
L 1894 2003 
Q 2506 1872 2764 1633 
Q 3022 1394 3022 966 
Q 3022 478 2636 193 
Q 2250 -91 1575 -91 
Q 1294 -91 989 -36 
Q 684 19 347 128 
L 347 722 
Q 666 556 975 473 
Q 1284 391 1588 391 
Q 1994 391 2212 530 
Q 2431 669 2431 922 
Q 2431 1156 2273 1281 
Q 2116 1406 1581 1522 
L 1381 1569 
Q 847 1681 609 1914 
Q 372 2147 372 2553 
Q 372 3047 722 3315 
Q 1072 3584 1716 3584 
Q 2034 3584 2315 3537 
Q 2597 3491 2834 3397 
z
" transform="scale(0.015625)"/>
       <path id="DejaVuSans-63" d="M 3122 3366 
L 3122 2828 
Q 2878 2963 2633 3030 
Q 2388 3097 2138 3097 
Q 1578 3097 1268 2742 
Q 959 2388 959 1747 
Q 959 1106 1268 751 
Q 1578 397 2138 397 
Q 2388 397 2633 464 
Q 2878 531 3122 666 
L 3122 134 
Q 2881 22 2623 -34 
Q 2366 -91 2075 -91 
Q 1284 -91 818 406 
Q 353 903 353 1747 
Q 353 2603 823 3093 
Q 1294 3584 2113 3584 
Q 2378 3584 2631 3529 
Q 2884 3475 3122 3366 
z
" transform="scale(0.015625)"/>
       <path id="DejaVuSans-6e" d="M 3513 2113 
L 3513 0 
L 2938 0 
L 2938 2094 
Q 2938 2591 2744 2837 
Q 2550 3084 2163 3084 
Q 1697 3084 1428 2787 
Q 1159 2491 1159 1978 
L 1159 0 
L 581 0 
L 581 3500 
L 1159 3500 
L 1159 2956 
Q 1366 3272 1645 3428 
Q 1925 3584 2291 3584 
Q 2894 3584 3203 3211 
Q 3513 2838 3513 2113 
z
" transform="scale(0.015625)"/>
      </defs>
      <use xlink:href="#DejaVuSans-44"/>
      <use xlink:href="#DejaVuSans-65" x="77.001953"/>
      <use xlink:href="#DejaVuSans-6c" x="138.525391"/>
      <use xlink:href="#DejaVuSans-74" x="166.308594"/>
      <use xlink:href="#DejaVuSans-61" x="205.517578"/>
      <use xlink:href="#DejaVuSans-20" x="266.796875"/>
      <use xlink:href="#DejaVuSans-46" x="298.583984"/>
      <use xlink:href="#DejaVuSans-6c" x="356.103516"/>
      <use xlink:href="#DejaVuSans-75" x="383.886719"/>
      <use xlink:href="#DejaVuSans-6f" x="447.265625"/>
      <use xlink:href="#DejaVuSans-72" x="508.447266"/>
      <use xlink:href="#DejaVuSans-65" x="547.310547"/>
      <use xlink:href="#DejaVuSans-73" x="608.833984"/>
      <use xlink:href="#DejaVuSans-63" x="660.933594"/>
      <use xlink:href="#DejaVuSans-65" x="715.914062"/>
      <use xlink:href="#DejaVuSans-6e" x="777.4375"/>
      <use xlink:href="#DejaVuSans-63" x="840.816406"/>
      <use xlink:href="#DejaVuSans-65" x="895.796875"/>
     </g>
    </g>
   </g>
   <g id="patch_3">
    <path d="M 105.4432 152.591945 
L 256.1868 152.591945 
L 256.1868 87.440459 
L 105.4432 87.440459 
L 105.4432 152.591945 
z
" clip-path="url(#pe66b27667b)" style="fill: #ecf2ec; stroke: #262626; stroke-width: 1.5; stroke-linejoin: miter"/>
   </g>
   <g id="patch_4">
    <path d="M 259.2632 243.134021 
L 410.0068 243.134021 
L 410.0068 193.141914 
L 259.2632 193.141914 
L 259.2632 243.134021 
z
" clip-path="url(#pe66b27667b)" style="fill: #107010; stroke: #262626; stroke-width: 1.5; stroke-linejoin: miter"/>
   </g>
   <g id="patch_5">
    <path d="M 257.725 237.850907 
L 257.725 237.850907 
L 257.725 237.850907 
L 257.725 237.850907 
z
" clip-path="url(#pe66b27667b)" style="fill: #ecf2ec; stroke: #262626; stroke-width: 0.75; stroke-linejoin: miter"/>
   </g>
   <g id="patch_6">
    <path d="M 257.725 237.850907 
L 257.725 237.850907 
L 257.725 237.850907 
L 257.725 237.850907 
z
" clip-path="url(#pe66b27667b)" style="fill: #107010; stroke: #262626; stroke-width: 0.75; stroke-linejoin: miter"/>
   </g>
   <g id="PathCollection_1"/>
   <g id="PathCollection_2"/>
   <g id="line2d_8">
    <path d="M 180.815 152.591945 
L 180.815 202.941855 
" clip-path="url(#pe66b27667b)" style="fill: none; stroke: #262626; stroke-width: 1.5; stroke-linecap: round"/>
   </g>
   <g id="line2d_9">
    <path d="M 180.815 87.440459 
L 180.815 16.560365 
" clip-path="url(#pe66b27667b)" style="fill: none; stroke: #262626; stroke-width: 1.5; stroke-linecap: round"/>
   </g>
   <g id="line2d_10">
    <path d="M 143.1291 202.941855 
L 218.5009 202.941855 
" clip-path="url(#pe66b27667b)" style="fill: none; stroke: #262626; stroke-width: 1.5; stroke-linecap: round"/>
   </g>
   <g id="line2d_11">
    <path d="M 143.1291 16.560365 
L 218.5009 16.560365 
" clip-path="url(#pe66b27667b)" style="fill: none; stroke: #262626; stroke-width: 1.5; stroke-linecap: round"/>
   </g>
   <g id="line2d_12">
    <defs>
     <path id="m1c17fae593" d="M -0 1.414214 
L 0.848528 0 
L 0 -1.414214 
L -0.848528 -0 
z
" style="stroke: #262626; stroke-linejoin: miter"/>
    </defs>
    <g clip-path="url(#pe66b27667b)">
     <use xlink:href="#m1c17fae593" x="180.815" y="303.64" style="fill: #262626; stroke: #262626; stroke-linejoin: miter"/>
    </g>
   </g>
   <g id="line2d_13">
    <path d="M 334.635 243.134021 
L 334.635 301.978675 
" clip-path="url(#pe66b27667b)" style="fill: none; stroke: #262626; stroke-width: 1.5; stroke-linecap: round"/>
   </g>
   <g id="line2d_14">
    <path d="M 334.635 193.141914 
L 334.635 140.210486 
" clip-path="url(#pe66b27667b)" style="fill: none; stroke: #262626; stroke-width: 1.5; stroke-linecap: round"/>
   </g>
   <g id="line2d_15">
    <path d="M 296.9491 301.978675 
L 372.3209 301.978675 
" clip-path="url(#pe66b27667b)" style="fill: none; stroke: #262626; stroke-width: 1.5; stroke-linecap: round"/>
   </g>
   <g id="line2d_16">
    <path d="M 296.9491 140.210486 
L 372.3209 140.210486 
" clip-path="url(#pe66b27667b)" style="fill: none; stroke: #262626; stroke-width: 1.5; stroke-linecap: round"/>
   </g>
   <g id="line2d_17">
    <g clip-path="url(#pe66b27667b)">
     <use xlink:href="#m1c17fae593" x="334.635" y="71.004028" style="fill: #262626; stroke: #262626; stroke-linejoin: miter"/>
     <use xlink:href="#m1c17fae593" x="334.635" y="98.330107" style="fill: #262626; stroke: #262626; stroke-linejoin: miter"/>
    </g>
   </g>
   <g id="line2d_18">
    <path d="M 105.4432 118.520776 
L 256.1868 118.520776 
" clip-path="url(#pe66b27667b)" style="fill: none; stroke: #262626; stroke-width: 1.5; stroke-linecap: round"/>
   </g>
   <g id="line2d_19">
    <path d="M 259.2632 221.226291 
L 410.0068 221.226291 
" clip-path="url(#pe66b27667b)" style="fill: none; stroke: #262626; stroke-width: 1.5; stroke-linecap: round"/>
   </g>
   <g id="patch_7">
    <path d="M 65.45 303.64 
L 65.45 16.560365 
" style="fill: none; stroke: #cccccc; stroke-width: 0.8; stroke-linejoin: miter; stroke-linecap: square"/>
   </g>
   <g id="patch_8">
    <path d="M 450 303.64 
L 450 16.560365 
" style="fill: none; stroke: #cccccc; stroke-width: 0.8; stroke-linejoin: miter; stroke-linecap: square"/>
   </g>
   <g id="patch_9">
    <path d="M 65.45 303.64 
L 450 303.64 
" style="fill: none; stroke: #cccccc; stroke-width: 0.8; stroke-linejoin: miter; stroke-linecap: square"/>
   </g>
   <g id="patch_10">
    <path d="M 65.45 16.560365 
L 450 16.560365 
" style="fill: none; stroke: #cccccc; stroke-width: 0.8; stroke-linejoin: miter; stroke-linecap: square"/>
   </g>
   <g id="PathCollection_3">
    <defs>
     <path id="C0_0_de9175cb74" d="M 0 1 
C 0.265203 1 0.51958 0.894634 0.707107 0.707107 
C 0.894634 0.51958 1 0.265203 1 -0 
C 1 -0.265203 0.894634 -0.51958 0.707107 -0.707107 
C 0.51958 -0.894634 0.265203 -1 0 -1 
C -0.265203 -1 -0.51958 -0.894634 -0.707107 -0.707107 
C -0.894634 -0.51958 -1 -0.265203 -1 0 
C -1 0.265203 -0.894634 0.51958 -0.707107 0.707107 
C -0.51958 0.894634 -0.265203 1 0 1 
z
"/>
    </defs>
    <g clip-path="url(#pe66b27667b)">
     <use xlink:href="#C0_0_de9175cb74" x="186.560965" y="119.801374" style="fill: #262626"/>
    </g>
    <g clip-path="url(#pe66b27667b)">
     <use xlink:href="#C0_0_de9175cb74" x="170.668658" y="100.584777" style="fill: #262626"/>
    </g>
    <g clip-path="url(#pe66b27667b)">
     <use xlink:href="#C0_0_de9175cb74" x="187.487808" y="63.741061" style="fill: #262626"/>
    </g>
    <g clip-path="url(#pe66b27667b)">
     <use xlink:href="#C0_0_de9175cb74" x="199.790558" y="97.743643" style="fill: #262626"/>
    </g>
    <g clip-path="url(#pe66b27667b)">
     <use xlink:href="#C0_0_de9175cb74" x="164.930016" y="109.067273" style="fill: #262626"/>
    </g>
    <g clip-path="url(#pe66b27667b)">
     <use xlink:href="#C0_0_de9175cb74" x="197.894528" y="187.300776" style="fill: #262626"/>
    </g>
    <g clip-path="url(#pe66b27667b)">
     <use xlink:href="#C0_0_de9175cb74" x="177.748228" y="182.095719" style="fill: #262626"/>
    </g>
    <g clip-path="url(#pe66b27667b)">
     <use xlink:href="#C0_0_de9175cb74" x="183.073975" y="97.029275" style="fill: #262626"/>
    </g>
    <g clip-path="url(#pe66b27667b)">
     <use xlink:href="#C0_0_de9175cb74" x="179.142638" y="179.340179" style="fill: #262626"/>
    </g>
    <g clip-path="url(#pe66b27667b)">
     <use xlink:href="#C0_0_de9175cb74" x="179.397309" y="135.228497" style="fill: #262626"/>
    </g>
    <g clip-path="url(#pe66b27667b)">
     <use xlink:href="#C0_0_de9175cb74" x="172.399721" y="136.005123" style="fill: #262626"/>
    </g>
    <g clip-path="url(#pe66b27667b)">
     <use xlink:href="#C0_0_de9175cb74" x="174.334859" y="148.638198" style="fill: #262626"/>
    </g>
    <g clip-path="url(#pe66b27667b)">
     <use xlink:href="#C0_0_de9175cb74" x="171.006355" y="202.941855" style="fill: #262626"/>
    </g>
    <g clip-path="url(#pe66b27667b)">
     <use xlink:href="#C0_0_de9175cb74" x="182.502029" y="99.948236" style="fill: #262626"/>
    </g>
    <g clip-path="url(#pe66b27667b)">
     <use xlink:href="#C0_0_de9175cb74" x="175.303084" y="37.274628" style="fill: #262626"/>
    </g>
    <g clip-path="url(#pe66b27667b)">
     <use xlink:href="#C0_0_de9175cb74" x="178.505201" y="118.020696" style="fill: #262626"/>
    </g>
    <g clip-path="url(#pe66b27667b)">
     <use xlink:href="#C0_0_de9175cb74" x="172.155066" y="103.492703" style="fill: #262626"/>
    </g>
    <g clip-path="url(#pe66b27667b)">
     <use xlink:href="#C0_0_de9175cb74" x="180.222518" y="135.39278" style="fill: #262626"/>
    </g>
    <g clip-path="url(#pe66b27667b)">
     <use xlink:href="#C0_0_de9175cb74" x="166.369531" y="122.69574" style="fill: #262626"/>
    </g>
    <g clip-path="url(#pe66b27667b)">
     <use xlink:href="#C0_0_de9175cb74" x="167.075002" y="86.136384" style="fill: #262626"/>
    </g>
    <g clip-path="url(#pe66b27667b)">
     <use xlink:href="#C0_0_de9175cb74" x="165.132186" y="115.084148" style="fill: #262626"/>
    </g>
    <g clip-path="url(#pe66b27667b)">
     <use xlink:href="#C0_0_de9175cb74" x="178.584248" y="68.19738" style="fill: #262626"/>
    </g>
    <g clip-path="url(#pe66b27667b)">
     <use xlink:href="#C0_0_de9175cb74" x="169.693771" y="144.821392" style="fill: #262626"/>
    </g>
    <g clip-path="url(#pe66b27667b)">
     <use xlink:href="#C0_0_de9175cb74" x="176.454136" y="136.974158" style="fill: #262626"/>
    </g>
    <g clip-path="url(#pe66b27667b)">
     <use xlink:href="#C0_0_de9175cb74" x="174.327652" y="194.376607" style="fill: #262626"/>
    </g>
    <g clip-path="url(#pe66b27667b)">
     <use xlink:href="#C0_0_de9175cb74" x="170.831191" y="78.067917" style="fill: #262626"/>
    </g>
    <g clip-path="url(#pe66b27667b)">
     <use xlink:href="#C0_0_de9175cb74" x="172.098439" y="75.239287" style="fill: #262626"/>
    </g>
    <g clip-path="url(#pe66b27667b)">
     <use xlink:href="#C0_0_de9175cb74" x="173.545087" y="40.417841" style="fill: #262626"/>
    </g>
    <g clip-path="url(#pe66b27667b)">
     <use xlink:href="#C0_0_de9175cb74" x="190.750021" y="118.520776" style="fill: #262626"/>
    </g>
    <g clip-path="url(#pe66b27667b)">
     <use xlink:href="#C0_0_de9175cb74" x="163.710056" y="81.144548" style="fill: #262626"/>
    </g>
    <g clip-path="url(#pe66b27667b)">
     <use xlink:href="#C0_0_de9175cb74" x="176.780748" y="16.560365" style="fill: #262626"/>
    </g>
    <g clip-path="url(#pe66b27667b)">
     <use xlink:href="#C0_0_de9175cb74" x="179.974932" y="48.257978" style="fill: #262626"/>
    </g>
    <g clip-path="url(#pe66b27667b)">
     <use xlink:href="#C0_0_de9175cb74" x="187.63143" y="133.373947" style="fill: #262626"/>
    </g>
    <g clip-path="url(#pe66b27667b)">
     <use xlink:href="#C0_0_de9175cb74" x="180.346419" y="123.440121" style="fill: #262626"/>
    </g>
    <g clip-path="url(#pe66b27667b)">
     <use xlink:href="#C0_0_de9175cb74" x="195.844266" y="123.402388" style="fill: #262626"/>
    </g>
    <g clip-path="url(#pe66b27667b)">
     <use xlink:href="#C0_0_de9175cb74" x="162.442639" y="105.282384" style="fill: #262626"/>
    </g>
    <g clip-path="url(#pe66b27667b)">
     <use xlink:href="#C0_0_de9175cb74" x="177.989082" y="152.591945" style="fill: #262626"/>
    </g>
    <g clip-path="url(#pe66b27667b)">
     <use xlink:href="#C0_0_de9175cb74" x="195.279283" y="168.238203" style="fill: #262626"/>
    </g>
    <g clip-path="url(#pe66b27667b)">
     <use xlink:href="#C0_0_de9175cb74" x="187.477981" y="303.64" style="fill: #262626"/>
    </g>
    <g clip-path="url(#pe66b27667b)">
     <use xlink:href="#C0_0_de9175cb74" x="192.719561" y="188.609952" style="fill: #262626"/>
    </g>
    <g clip-path="url(#pe66b27667b)">
     <use xlink:href="#C0_0_de9175cb74" x="199.456248" y="154.571433" style="fill: #262626"/>
    </g>
    <g clip-path="url(#pe66b27667b)">
     <use xlink:href="#C0_0_de9175cb74" x="188.441364" y="155.282788" style="fill: #262626"/>
    </g>
    <g clip-path="url(#pe66b27667b)">
     <use xlink:href="#C0_0_de9175cb74" x="171.136163" y="189.60954" style="fill: #262626"/>
    </g>
    <g clip-path="url(#pe66b27667b)">
     <use xlink:href="#C0_0_de9175cb74" x="169.022256" y="166.978409" style="fill: #262626"/>
    </g>
    <g clip-path="url(#pe66b27667b)">
     <use xlink:href="#C0_0_de9175cb74" x="184.8223" y="174.540917" style="fill: #262626"/>
    </g>
    <g clip-path="url(#pe66b27667b)">
     <use xlink:href="#C0_0_de9175cb74" x="187.702039" y="191.19734" style="fill: #262626"/>
    </g>
    <g clip-path="url(#pe66b27667b)">
     <use xlink:href="#C0_0_de9175cb74" x="183.405856" y="95.176454" style="fill: #262626"/>
    </g>
    <g clip-path="url(#pe66b27667b)">
     <use xlink:href="#C0_0_de9175cb74" x="194.69359" y="99.861409" style="fill: #262626"/>
    </g>
    <g clip-path="url(#pe66b27667b)">
     <use xlink:href="#C0_0_de9175cb74" x="184.280907" y="137.329717" style="fill: #262626"/>
    </g>
    <g clip-path="url(#pe66b27667b)">
     <use xlink:href="#C0_0_de9175cb74" x="173.788174" y="178.213634" style="fill: #262626"/>
    </g>
    <g clip-path="url(#pe66b27667b)">
     <use xlink:href="#C0_0_de9175cb74" x="163.339319" y="124.384723" style="fill: #262626"/>
    </g>
    <g clip-path="url(#pe66b27667b)">
     <use xlink:href="#C0_0_de9175cb74" x="193.721328" y="146.324384" style="fill: #262626"/>
    </g>
    <g clip-path="url(#pe66b27667b)">
     <use xlink:href="#C0_0_de9175cb74" x="161.758875" y="99.232832" style="fill: #262626"/>
    </g>
    <g clip-path="url(#pe66b27667b)">
     <use xlink:href="#C0_0_de9175cb74" x="170.89747" y="126.416571" style="fill: #262626"/>
    </g>
    <g clip-path="url(#pe66b27667b)">
     <use xlink:href="#C0_0_de9175cb74" x="178.451142" y="85.609994" style="fill: #262626"/>
    </g>
    <g clip-path="url(#pe66b27667b)">
     <use xlink:href="#C0_0_de9175cb74" x="197.862611" y="85.370287" style="fill: #262626"/>
    </g>
    <g clip-path="url(#pe66b27667b)">
     <use xlink:href="#C0_0_de9175cb74" x="177.103138" y="73.755314" style="fill: #262626"/>
    </g>
    <g clip-path="url(#pe66b27667b)">
     <use xlink:href="#C0_0_de9175cb74" x="163.310587" y="87.569221" style="fill: #262626"/>
    </g>
    <g clip-path="url(#pe66b27667b)">
     <use xlink:href="#C0_0_de9175cb74" x="165.326298" y="75.379681" style="fill: #262626"/>
    </g>
    <g clip-path="url(#pe66b27667b)">
     <use xlink:href="#C0_0_de9175cb74" x="173.570873" y="62.607609" style="fill: #262626"/>
    </g>
    <g clip-path="url(#pe66b27667b)">
     <use xlink:href="#C0_0_de9175cb74" x="197.549005" y="87.440459" style="fill: #262626"/>
    </g>
    <g clip-path="url(#pe66b27667b)">
     <use xlink:href="#C0_0_de9175cb74" x="168.341025" y="94.160561" style="fill: #262626"/>
    </g>
    <g clip-path="url(#pe66b27667b)">
     <use xlink:href="#C0_0_de9175cb74" x="170.49751" y="54.122717" style="fill: #262626"/>
    </g>
    <g clip-path="url(#pe66b27667b)">
     <use xlink:href="#C0_0_de9175cb74" x="193.746943" y="89.873502" style="fill: #262626"/>
    </g>
    <g clip-path="url(#pe66b27667b)">
     <use xlink:href="#C0_0_de9175cb74" x="182.522103" y="184.71264" style="fill: #262626"/>
    </g>
   </g>
   <g id="PathCollection_4">
    <defs>
     <path id="C1_0_e0f40682b0" d="M 0 1 
C 0.265203 1 0.51958 0.894634 0.707107 0.707107 
C 0.894634 0.51958 1 0.265203 1 -0 
C 1 -0.265203 0.894634 -0.51958 0.707107 -0.707107 
C 0.51958 -0.894634 0.265203 -1 0 -1 
C -0.265203 -1 -0.51958 -0.894634 -0.707107 -0.707107 
C -0.894634 -0.51958 -1 -0.265203 -1 0 
C -1 0.265203 -0.894634 0.51958 -0.707107 0.707107 
C -0.51958 0.894634 -0.265203 1 0 1 
z
"/>
    </defs>
    <g clip-path="url(#pe66b27667b)">
     <use xlink:href="#C1_0_e0f40682b0" x="333.523645" y="220.329646"/>
    </g>
    <g clip-path="url(#pe66b27667b)">
     <use xlink:href="#C1_0_e0f40682b0" x="344.047324" y="266.837912"/>
    </g>
    <g clip-path="url(#pe66b27667b)">
     <use xlink:href="#C1_0_e0f40682b0" x="337.580715" y="142.427055"/>
    </g>
    <g clip-path="url(#pe66b27667b)">
     <use xlink:href="#C1_0_e0f40682b0" x="322.176383" y="276.964716"/>
    </g>
    <g clip-path="url(#pe66b27667b)">
     <use xlink:href="#C1_0_e0f40682b0" x="319.88507" y="199.364682"/>
    </g>
    <g clip-path="url(#pe66b27667b)">
     <use xlink:href="#C1_0_e0f40682b0" x="352.033969" y="143.594338"/>
    </g>
    <g clip-path="url(#pe66b27667b)">
     <use xlink:href="#C1_0_e0f40682b0" x="325.874231" y="301.978675"/>
    </g>
    <g clip-path="url(#pe66b27667b)">
     <use xlink:href="#C1_0_e0f40682b0" x="352.795474" y="211.109065"/>
    </g>
    <g clip-path="url(#pe66b27667b)">
     <use xlink:href="#C1_0_e0f40682b0" x="323.236718" y="296.630473"/>
    </g>
    <g clip-path="url(#pe66b27667b)">
     <use xlink:href="#C1_0_e0f40682b0" x="337.719522" y="229.403351"/>
    </g>
    <g clip-path="url(#pe66b27667b)">
     <use xlink:href="#C1_0_e0f40682b0" x="324.987218" y="196.75855"/>
    </g>
    <g clip-path="url(#pe66b27667b)">
     <use xlink:href="#C1_0_e0f40682b0" x="329.949892" y="214.83199"/>
    </g>
    <g clip-path="url(#pe66b27667b)">
     <use xlink:href="#C1_0_e0f40682b0" x="339.154023" y="158.236717"/>
    </g>
    <g clip-path="url(#pe66b27667b)">
     <use xlink:href="#C1_0_e0f40682b0" x="340.818061" y="198.936637"/>
    </g>
    <g clip-path="url(#pe66b27667b)">
     <use xlink:href="#C1_0_e0f40682b0" x="353.305473" y="235.607268"/>
    </g>
    <g clip-path="url(#pe66b27667b)">
     <use xlink:href="#C1_0_e0f40682b0" x="324.622358" y="221.835844"/>
    </g>
    <g clip-path="url(#pe66b27667b)">
     <use xlink:href="#C1_0_e0f40682b0" x="317.682372" y="265.87143"/>
    </g>
    <g clip-path="url(#pe66b27667b)">
     <use xlink:href="#C1_0_e0f40682b0" x="329.987724" y="140.210486"/>
    </g>
    <g clip-path="url(#pe66b27667b)">
     <use xlink:href="#C1_0_e0f40682b0" x="344.345611" y="236.282978"/>
    </g>
    <g clip-path="url(#pe66b27667b)">
     <use xlink:href="#C1_0_e0f40682b0" x="323.058088" y="71.004028"/>
    </g>
    <g clip-path="url(#pe66b27667b)">
     <use xlink:href="#C1_0_e0f40682b0" x="333.370627" y="165.739848"/>
    </g>
    <g clip-path="url(#pe66b27667b)">
     <use xlink:href="#C1_0_e0f40682b0" x="326.352761" y="223.82798"/>
    </g>
    <g clip-path="url(#pe66b27667b)">
     <use xlink:href="#C1_0_e0f40682b0" x="319.166514" y="174.884903"/>
    </g>
    <g clip-path="url(#pe66b27667b)">
     <use xlink:href="#C1_0_e0f40682b0" x="330.923085" y="249.416391"/>
    </g>
    <g clip-path="url(#pe66b27667b)">
     <use xlink:href="#C1_0_e0f40682b0" x="342.595814" y="232.202532"/>
    </g>
    <g clip-path="url(#pe66b27667b)">
     <use xlink:href="#C1_0_e0f40682b0" x="320.878411" y="286.017066"/>
    </g>
    <g clip-path="url(#pe66b27667b)">
     <use xlink:href="#C1_0_e0f40682b0" x="343.401823" y="277.118277"/>
    </g>
    <g clip-path="url(#pe66b27667b)">
     <use xlink:href="#C1_0_e0f40682b0" x="320.988596" y="170.819262"/>
    </g>
    <g clip-path="url(#pe66b27667b)">
     <use xlink:href="#C1_0_e0f40682b0" x="344.261966" y="229.101723"/>
    </g>
    <g clip-path="url(#pe66b27667b)">
     <use xlink:href="#C1_0_e0f40682b0" x="318.397499" y="237.275341"/>
    </g>
    <g clip-path="url(#pe66b27667b)">
     <use xlink:href="#C1_0_e0f40682b0" x="315.914786" y="98.330107"/>
    </g>
    <g clip-path="url(#pe66b27667b)">
     <use xlink:href="#C1_0_e0f40682b0" x="342.215009" y="220.293374"/>
    </g>
    <g clip-path="url(#pe66b27667b)">
     <use xlink:href="#C1_0_e0f40682b0" x="344.820598" y="248.268142"/>
    </g>
    <g clip-path="url(#pe66b27667b)">
     <use xlink:href="#C1_0_e0f40682b0" x="340.62473" y="256.161857"/>
    </g>
    <g clip-path="url(#pe66b27667b)">
     <use xlink:href="#C1_0_e0f40682b0" x="352.585064" y="146.169591"/>
    </g>
    <g clip-path="url(#pe66b27667b)">
     <use xlink:href="#C1_0_e0f40682b0" x="323.119244" y="193.475975"/>
    </g>
    <g clip-path="url(#pe66b27667b)">
     <use xlink:href="#C1_0_e0f40682b0" x="318.136386" y="215.694455"/>
    </g>
    <g clip-path="url(#pe66b27667b)">
     <use xlink:href="#C1_0_e0f40682b0" x="348.605089" y="217.401359"/>
    </g>
    <g clip-path="url(#pe66b27667b)">
     <use xlink:href="#C1_0_e0f40682b0" x="331.277651" y="191.316279"/>
    </g>
    <g clip-path="url(#pe66b27667b)">
     <use xlink:href="#C1_0_e0f40682b0" x="351.428287" y="243.141301"/>
    </g>
    <g clip-path="url(#pe66b27667b)">
     <use xlink:href="#C1_0_e0f40682b0" x="339.916911" y="214.743087"/>
    </g>
    <g clip-path="url(#pe66b27667b)">
     <use xlink:href="#C1_0_e0f40682b0" x="328.897903" y="212.597728"/>
    </g>
    <g clip-path="url(#pe66b27667b)">
     <use xlink:href="#C1_0_e0f40682b0" x="319.91152" y="230.657411"/>
    </g>
    <g clip-path="url(#pe66b27667b)">
     <use xlink:href="#C1_0_e0f40682b0" x="350.547559" y="225.285107"/>
    </g>
    <g clip-path="url(#pe66b27667b)">
     <use xlink:href="#C1_0_e0f40682b0" x="336.708129" y="197.25429"/>
    </g>
    <g clip-path="url(#pe66b27667b)">
     <use xlink:href="#C1_0_e0f40682b0" x="332.965279" y="214.685368"/>
    </g>
    <g clip-path="url(#pe66b27667b)">
     <use xlink:href="#C1_0_e0f40682b0" x="328.943313" y="192.792624"/>
    </g>
    <g clip-path="url(#pe66b27667b)">
     <use xlink:href="#C1_0_e0f40682b0" x="340.654795" y="224.830703"/>
    </g>
    <g clip-path="url(#pe66b27667b)">
     <use xlink:href="#C1_0_e0f40682b0" x="316.46315" y="237.408415"/>
    </g>
    <g clip-path="url(#pe66b27667b)">
     <use xlink:href="#C1_0_e0f40682b0" x="328.864384" y="224.657998"/>
    </g>
    <g clip-path="url(#pe66b27667b)">
     <use xlink:href="#C1_0_e0f40682b0" x="337.539441" y="222.085031"/>
    </g>
    <g clip-path="url(#pe66b27667b)">
     <use xlink:href="#C1_0_e0f40682b0" x="321.139852" y="246.628393"/>
    </g>
    <g clip-path="url(#pe66b27667b)">
     <use xlink:href="#C1_0_e0f40682b0" x="335.51061" y="243.126741"/>
    </g>
    <g clip-path="url(#pe66b27667b)">
     <use xlink:href="#C1_0_e0f40682b0" x="338.771278" y="225.855231"/>
    </g>
    <g clip-path="url(#pe66b27667b)">
     <use xlink:href="#C1_0_e0f40682b0" x="346.467979" y="257.419795"/>
    </g>
    <g clip-path="url(#pe66b27667b)">
     <use xlink:href="#C1_0_e0f40682b0" x="350.891802" y="249.696932"/>
    </g>
    <g clip-path="url(#pe66b27667b)">
     <use xlink:href="#C1_0_e0f40682b0" x="327.209132" y="202.023063"/>
    </g>
    <g clip-path="url(#pe66b27667b)">
     <use xlink:href="#C1_0_e0f40682b0" x="324.903243" y="212.803247"/>
    </g>
    <g clip-path="url(#pe66b27667b)">
     <use xlink:href="#C1_0_e0f40682b0" x="325.374026" y="247.589232"/>
    </g>
    <g clip-path="url(#pe66b27667b)">
     <use xlink:href="#C1_0_e0f40682b0" x="336.248792" y="243.306449"/>
    </g>
    <g clip-path="url(#pe66b27667b)">
     <use xlink:href="#C1_0_e0f40682b0" x="338.446664" y="221.226291"/>
    </g>
    <g clip-path="url(#pe66b27667b)">
     <use xlink:href="#C1_0_e0f40682b0" x="333.788108" y="243.760791"/>
    </g>
    <g clip-path="url(#pe66b27667b)">
     <use xlink:href="#C1_0_e0f40682b0" x="329.159666" y="192.807853"/>
    </g>
    <g clip-path="url(#pe66b27667b)">
     <use xlink:href="#C1_0_e0f40682b0" x="353.291486" y="165.391463"/>
    </g>
    <g clip-path="url(#pe66b27667b)">
     <use xlink:href="#C1_0_e0f40682b0" x="328.001697" y="239.977737"/>
    </g>
    <g clip-path="url(#pe66b27667b)">
     <use xlink:href="#C1_0_e0f40682b0" x="347.55212" y="183.916282"/>
    </g>
    <g clip-path="url(#pe66b27667b)">
     <use xlink:href="#C1_0_e0f40682b0" x="325.209117" y="145.689397"/>
    </g>
    <g clip-path="url(#pe66b27667b)">
     <use xlink:href="#C1_0_e0f40682b0" x="334.237414" y="212.482863"/>
    </g>
    <g clip-path="url(#pe66b27667b)">
     <use xlink:href="#C1_0_e0f40682b0" x="327.269203" y="248.613105"/>
    </g>
    <g clip-path="url(#pe66b27667b)">
     <use xlink:href="#C1_0_e0f40682b0" x="347.583592" y="162.992891"/>
    </g>
    <g clip-path="url(#pe66b27667b)">
     <use xlink:href="#C1_0_e0f40682b0" x="352.104496" y="211.689969"/>
    </g>
    <g clip-path="url(#pe66b27667b)">
     <use xlink:href="#C1_0_e0f40682b0" x="322.205813" y="170.085585"/>
    </g>
    <g clip-path="url(#pe66b27667b)">
     <use xlink:href="#C1_0_e0f40682b0" x="350.023163" y="276.055189"/>
    </g>
    <g clip-path="url(#pe66b27667b)">
     <use xlink:href="#C1_0_e0f40682b0" x="338.467109" y="238.869381"/>
    </g>
    <g clip-path="url(#pe66b27667b)">
     <use xlink:href="#C1_0_e0f40682b0" x="337.84086" y="189.626659"/>
    </g>
   </g>
   <g id="text_11">
    <!-- 65 -->
    <g style="fill: #262626" transform="translate(200.0425 237.837921)scale(0.1 -0.1)">
     <defs>
      <path id="DejaVuSans-36" d="M 2113 2584 
Q 1688 2584 1439 2293 
Q 1191 2003 1191 1497 
Q 1191 994 1439 701 
Q 1688 409 2113 409 
Q 2538 409 2786 701 
Q 3034 994 3034 1497 
Q 3034 2003 2786 2293 
Q 2538 2584 2113 2584 
z
M 3366 4563 
L 3366 3988 
Q 3128 4100 2886 4159 
Q 2644 4219 2406 4219 
Q 1781 4219 1451 3797 
Q 1122 3375 1075 2522 
Q 1259 2794 1537 2939 
Q 1816 3084 2150 3084 
Q 2853 3084 3261 2657 
Q 3669 2231 3669 1497 
Q 3669 778 3244 343 
Q 2819 -91 2113 -91 
Q 1303 -91 875 529 
Q 447 1150 447 2328 
Q 447 3434 972 4092 
Q 1497 4750 2381 4750 
Q 2619 4750 2861 4703 
Q 3103 4656 3366 4563 
z
" transform="scale(0.015625)"/>
     </defs>
     <use xlink:href="#DejaVuSans-36"/>
     <use xlink:href="#DejaVuSans-35" x="63.623047"/>
    </g>
   </g>
   <g id="text_12">
    <!-- p=nan -->
    <g style="fill: #262626" transform="translate(186.63 16.559971)scale(0.08 -0.08)">
     <defs>
      <path id="DejaVuSans-3d" d="M 678 2906 
L 4684 2906 
L 4684 2381 
L 678 2381 
L 678 2906 
z
M 678 1631 
L 4684 1631 
L 4684 1100 
L 678 1100 
L 678 1631 
z
" transform="scale(0.015625)"/>
     </defs>
     <use xlink:href="#DejaVuSans-70"/>
     <use xlink:href="#DejaVuSans-3d" x="63.476562"/>
     <use xlink:href="#DejaVuSans-6e" x="147.265625"/>
     <use xlink:href="#DejaVuSans-61" x="210.644531"/>
     <use xlink:href="#DejaVuSans-6e" x="271.923828"/>
    </g>
   </g>
   <g id="text_13">
    <!-- 75 -->
    <g style="fill: #262626" transform="translate(315.4075 237.837921)scale(0.1 -0.1)">
     <defs>
      <path id="DejaVuSans-37" d="M 525 4666 
L 3525 4666 
L 3525 4397 
L 1831 0 
L 1172 0 
L 2766 4134 
L 525 4134 
L 525 4666 
z
" transform="scale(0.015625)"/>
     </defs>
     <use xlink:href="#DejaVuSans-37"/>
     <use xlink:href="#DejaVuSans-35" x="63.623047"/>
    </g>
   </g>
   <g id="text_14">
    <!-- p=nan -->
    <g style="fill: #262626" transform="translate(301.995 71.003635)scale(0.08 -0.08)">
     <use xlink:href="#DejaVuSans-70"/>
     <use xlink:href="#DejaVuSans-3d" x="63.476562"/>
     <use xlink:href="#DejaVuSans-6e" x="147.265625"/>
     <use xlink:href="#DejaVuSans-61" x="210.644531"/>
     <use xlink:href="#DejaVuSans-6e" x="271.923828"/>
    </g>
   </g>
   <g id="legend_1">
    <g id="patch_11">
     <path d="M 387.048438 33.158802 
L 407.048438 33.158802 
L 407.048438 26.158802 
L 387.048438 26.158802 
z
" style="fill: #ecf2ec; stroke: #262626; stroke-width: 0.75; stroke-linejoin: miter"/>
    </g>
    <g id="text_15">
     <!-- clash -->
     <g style="fill: #262626" transform="translate(415.048438 33.158802)scale(0.1 -0.1)">
      <defs>
       <path id="DejaVuSans-68" d="M 3513 2113 
L 3513 0 
L 2938 0 
L 2938 2094 
Q 2938 2591 2744 2837 
Q 2550 3084 2163 3084 
Q 1697 3084 1428 2787 
Q 1159 2491 1159 1978 
L 1159 0 
L 581 0 
L 581 4863 
L 1159 4863 
L 1159 2956 
Q 1366 3272 1645 3428 
Q 1925 3584 2291 3584 
Q 2894 3584 3203 3211 
Q 3513 2838 3513 2113 
z
" transform="scale(0.015625)"/>
      </defs>
      <use xlink:href="#DejaVuSans-63"/>
      <use xlink:href="#DejaVuSans-6c" x="54.980469"/>
      <use xlink:href="#DejaVuSans-61" x="82.763672"/>
      <use xlink:href="#DejaVuSans-73" x="144.042969"/>
      <use xlink:href="#DejaVuSans-68" x="196.142578"/>
     </g>
    </g>
    <g id="patch_12">
     <path d="M 387.048438 47.836927 
L 407.048438 47.836927 
L 407.048438 40.836927 
L 387.048438 40.836927 
z
" style="fill: #107010; stroke: #262626; stroke-width: 0.75; stroke-linejoin: miter"/>
    </g>
    <g id="text_16">
     <!-- void -->
     <g style="fill: #262626" transform="translate(415.048438 47.836927)scale(0.1 -0.1)">
      <defs>
       <path id="DejaVuSans-76" d="M 191 3500 
L 800 3500 
L 1894 563 
L 2988 3500 
L 3597 3500 
L 2284 0 
L 1503 0 
L 191 3500 
z
" transform="scale(0.015625)"/>
       <path id="DejaVuSans-69" d="M 603 3500 
L 1178 3500 
L 1178 0 
L 603 0 
L 603 3500 
z
M 603 4863 
L 1178 4863 
L 1178 4134 
L 603 4134 
L 603 4863 
z
" transform="scale(0.015625)"/>
       <path id="DejaVuSans-64" d="M 2906 2969 
L 2906 4863 
L 3481 4863 
L 3481 0 
L 2906 0 
L 2906 525 
Q 2725 213 2448 61 
Q 2172 -91 1784 -91 
Q 1150 -91 751 415 
Q 353 922 353 1747 
Q 353 2572 751 3078 
Q 1150 3584 1784 3584 
Q 2172 3584 2448 3432 
Q 2725 3281 2906 2969 
z
M 947 1747 
Q 947 1113 1208 752 
Q 1469 391 1925 391 
Q 2381 391 2643 752 
Q 2906 1113 2906 1747 
Q 2906 2381 2643 2742 
Q 2381 3103 1925 3103 
Q 1469 3103 1208 2742 
Q 947 2381 947 1747 
z
" transform="scale(0.015625)"/>
      </defs>
      <use xlink:href="#DejaVuSans-76"/>
      <use xlink:href="#DejaVuSans-6f" x="59.179688"/>
      <use xlink:href="#DejaVuSans-69" x="120.361328"/>
      <use xlink:href="#DejaVuSans-64" x="148.144531"/>
     </g>
    </g>
   </g>
  </g>
 </g>
 <defs>
  <clipPath id="pe66b27667b">
   <rect x="65.45" y="16.560365" width="384.55" height="287.079635"/>
  </clipPath>
 </defs>
</svg>
