<?xml version="1.0" encoding="utf-8" standalone="no"?>
<!DOCTYPE svg PUBLIC "-//W3C//DTD SVG 1.1//EN"
  "http://www.w3.org/Graphics/SVG/1.1/DTD/svg11.dtd">
<svg xmlns:xlink="http://www.w3.org/1999/xlink" width="460.8pt" height="345.6pt" viewBox="0 0 460.8 345.6" xmlns="http://www.w3.org/2000/svg" version="1.1">
 <metadata>
  <rdf:RDF xmlns:dc="http://purl.org/dc/elements/1.1/" xmlns:cc="http://creativecommons.org/ns#" xmlns:rdf="http://www.w3.org/1999/02/22-rdf-syntax-ns#">
   <cc:Work>
    <dc:type rdf:resource="http://purl.org/dc/dcmitype/StillImage"/>
    <dc:date>2024-06-12T17:54:25.330448</dc:date>
    <dc:format>image/svg+xml</dc:format>
    <dc:creator>
     <cc:Agent>
      <dc:title>Matplotlib v3.5.3, https://matplotlib.org/</dc:title>
     </cc:Agent>
    </dc:creator>
   </cc:Work>
  </rdf:RDF>
 </metadata>
 <defs>
  <style type="text/css">*{stroke-linejoin: round; stroke-linecap: butt}</style>
 </defs>
 <g id="figure_1">
  <g id="patch_1">
   <path d="M 0 345.6 
L 460.8 345.6 
L 460.8 0 
L 0 0 
z
" style="fill: #ffffff"/>
  </g>
  <g id="axes_1">
   <g id="patch_2">
    <path d="M 63.57125 303.64 
L 450 303.64 
L 450 10.8 
L 63.57125 10.8 
z
" style="fill: #ffffff"/>
   </g>
   <g id="matplotlib.axis_1">
    <g id="xtick_1">
     <g id="text_1">
      <!-- 8 -->
      <g style="fill: #262626" transform="translate(156.997187 318.238437)scale(0.1 -0.1)">
       <defs>
        <path id="DejaVuSans-38" d="M 2034 2216 
Q 1584 2216 1326 1975 
Q 1069 1734 1069 1313 
Q 1069 891 1326 650 
Q 1584 409 2034 409 
Q 2484 409 2743 651 
Q 3003 894 3003 1313 
Q 3003 1734 2745 1975 
Q 2488 2216 2034 2216 
z
M 1403 2484 
Q 997 2584 770 2862 
Q 544 3141 544 3541 
Q 544 4100 942 4425 
Q 1341 4750 2034 4750 
Q 2731 4750 3128 4425 
Q 3525 4100 3525 3541 
Q 3525 3141 3298 2862 
Q 3072 2584 2669 2484 
Q 3125 2378 3379 2068 
Q 3634 1759 3634 1313 
Q 3634 634 3220 271 
Q 2806 -91 2034 -91 
Q 1263 -91 848 271 
Q 434 634 434 1313 
Q 434 1759 690 2068 
Q 947 2378 1403 2484 
z
M 1172 3481 
Q 1172 3119 1398 2916 
Q 1625 2713 2034 2713 
Q 2441 2713 2670 2916 
Q 2900 3119 2900 3481 
Q 2900 3844 2670 4047 
Q 2441 4250 2034 4250 
Q 1625 4250 1398 4047 
Q 1172 3844 1172 3481 
z
" transform="scale(0.015625)"/>
       </defs>
       <use xlink:href="#DejaVuSans-38"/>
      </g>
     </g>
    </g>
    <g id="xtick_2">
     <g id="text_2">
      <!-- 12 -->
      <g style="fill: #262626" transform="translate(347.030312 318.238437)scale(0.1 -0.1)">
       <defs>
        <path id="DejaVuSans-31" d="M 794 531 
L 1825 531 
L 1825 4091 
L 703 3866 
L 703 4441 
L 1819 4666 
L 2450 4666 
L 2450 531 
L 3481 531 
L 3481 0 
L 794 0 
L 794 531 
z
" transform="scale(0.015625)"/>
        <path id="DejaVuSans-32" d="M 1228 531 
L 3431 531 
L 3431 0 
L 469 0 
L 469 531 
Q 828 903 1448 1529 
Q 2069 2156 2228 2338 
Q 2531 2678 2651 2914 
Q 2772 3150 2772 3378 
Q 2772 3750 2511 3984 
Q 2250 4219 1831 4219 
Q 1534 4219 1204 4116 
Q 875 4013 500 3803 
L 500 4441 
Q 881 4594 1212 4672 
Q 1544 4750 1819 4750 
Q 2544 4750 2975 4387 
Q 3406 4025 3406 3419 
Q 3406 3131 3298 2873 
Q 3191 2616 2906 2266 
Q 2828 2175 2409 1742 
Q 1991 1309 1228 531 
z
" transform="scale(0.015625)"/>
       </defs>
       <use xlink:href="#DejaVuSans-31"/>
       <use xlink:href="#DejaVuSans-32" x="63.623047"/>
      </g>
     </g>
    </g>
    <g id="text_3">
     <!-- Position -->
     <g style="fill: #262626" transform="translate(237.321562 331.916562)scale(0.1 -0.1)">
      <defs>
       <path id="DejaVuSans-50" d="M 1259 4147 
L 1259 2394 
L 2053 2394 
Q 2494 2394 2734 2622 
Q 2975 2850 2975 3272 
Q 2975 3691 2734 3919 
Q 2494 4147 2053 4147 
L 1259 4147 
z
M 628 4666 
L 2053 4666 
Q 2838 4666 3239 4311 
Q 3641 3956 3641 3272 
Q 3641 2581 3239 2228 
Q 2838 1875 2053 1875 
L 1259 1875 
L 1259 0 
L 628 0 
L 628 4666 
z
" transform="scale(0.015625)"/>
       <path id="DejaVuSans-6f" d="M 1959 3097 
Q 1497 3097 1228 2736 
Q 959 2375 959 1747 
Q 959 1119 1226 758 
Q 1494 397 1959 397 
Q 2419 397 2687 759 
Q 2956 1122 2956 1747 
Q 2956 2369 2687 2733 
Q 2419 3097 1959 3097 
z
M 1959 3584 
Q 2709 3584 3137 3096 
Q 3566 2609 3566 1747 
Q 3566 888 3137 398 
Q 2709 -91 1959 -91 
Q 1206 -91 779 398 
Q 353 888 353 1747 
Q 353 2609 779 3096 
Q 1206 3584 1959 3584 
z
" transform="scale(0.015625)"/>
       <path id="DejaVuSans-73" d="M 2834 3397 
L 2834 2853 
Q 2591 2978 2328 3040 
Q 2066 3103 1784 3103 
Q 1356 3103 1142 2972 
Q 928 2841 928 2578 
Q 928 2378 1081 2264 
Q 1234 2150 1697 2047 
L 1894 2003 
Q 2506 1872 2764 1633 
Q 3022 1394 3022 966 
Q 3022 478 2636 193 
Q 2250 -91 1575 -91 
Q 1294 -91 989 -36 
Q 684 19 347 128 
L 347 722 
Q 666 556 975 473 
Q 1284 391 1588 391 
Q 1994 391 2212 530 
Q 2431 669 2431 922 
Q 2431 1156 2273 1281 
Q 2116 1406 1581 1522 
L 1381 1569 
Q 847 1681 609 1914 
Q 372 2147 372 2553 
Q 372 3047 722 3315 
Q 1072 3584 1716 3584 
Q 2034 3584 2315 3537 
Q 2597 3491 2834 3397 
z
" transform="scale(0.015625)"/>
       <path id="DejaVuSans-69" d="M 603 3500 
L 1178 3500 
L 1178 0 
L 603 0 
L 603 3500 
z
M 603 4863 
L 1178 4863 
L 1178 4134 
L 603 4134 
L 603 4863 
z
" transform="scale(0.015625)"/>
       <path id="DejaVuSans-74" d="M 1172 4494 
L 1172 3500 
L 2356 3500 
L 2356 3053 
L 1172 3053 
L 1172 1153 
Q 1172 725 1289 603 
Q 1406 481 1766 481 
L 2356 481 
L 2356 0 
L 1766 0 
Q 1100 0 847 248 
Q 594 497 594 1153 
L 594 3053 
L 172 3053 
L 172 3500 
L 594 3500 
L 594 4494 
L 1172 4494 
z
" transform="scale(0.015625)"/>
       <path id="DejaVuSans-6e" d="M 3513 2113 
L 3513 0 
L 2938 0 
L 2938 2094 
Q 2938 2591 2744 2837 
Q 2550 3084 2163 3084 
Q 1697 3084 1428 2787 
Q 1159 2491 1159 1978 
L 1159 0 
L 581 0 
L 581 3500 
L 1159 3500 
L 1159 2956 
Q 1366 3272 1645 3428 
Q 1925 3584 2291 3584 
Q 2894 3584 3203 3211 
Q 3513 2838 3513 2113 
z
" transform="scale(0.015625)"/>
      </defs>
      <use xlink:href="#DejaVuSans-50"/>
      <use xlink:href="#DejaVuSans-6f" x="56.677734"/>
      <use xlink:href="#DejaVuSans-73" x="117.859375"/>
      <use xlink:href="#DejaVuSans-69" x="169.958984"/>
      <use xlink:href="#DejaVuSans-74" x="197.742188"/>
      <use xlink:href="#DejaVuSans-69" x="236.951172"/>
      <use xlink:href="#DejaVuSans-6f" x="264.734375"/>
      <use xlink:href="#DejaVuSans-6e" x="325.916016"/>
     </g>
    </g>
   </g>
   <g id="matplotlib.axis_2">
    <g id="ytick_1">
     <g id="line2d_1">
      <path d="M 63.57125 303.64 
L 450 303.64 
" clip-path="url(#p6a2d3970a5)" style="fill: none; stroke: #cccccc; stroke-width: 0.8; stroke-linecap: round"/>
     </g>
     <g id="text_4">
      <!-- 0 -->
      <g style="fill: #262626" transform="translate(50.20875 307.439219)scale(0.1 -0.1)">
       <defs>
        <path id="DejaVuSans-30" d="M 2034 4250 
Q 1547 4250 1301 3770 
Q 1056 3291 1056 2328 
Q 1056 1369 1301 889 
Q 1547 409 2034 409 
Q 2525 409 2770 889 
Q 3016 1369 3016 2328 
Q 3016 3291 2770 3770 
Q 2525 4250 2034 4250 
z
M 2034 4750 
Q 2819 4750 3233 4129 
Q 3647 3509 3647 2328 
Q 3647 1150 3233 529 
Q 2819 -91 2034 -91 
Q 1250 -91 836 529 
Q 422 1150 422 2328 
Q 422 3509 836 4129 
Q 1250 4750 2034 4750 
z
" transform="scale(0.015625)"/>
       </defs>
       <use xlink:href="#DejaVuSans-30"/>
      </g>
     </g>
    </g>
    <g id="ytick_2">
     <g id="line2d_2">
      <path d="M 63.57125 252.727147 
L 450 252.727147 
" clip-path="url(#p6a2d3970a5)" style="fill: none; stroke: #cccccc; stroke-width: 0.8; stroke-linecap: round"/>
     </g>
     <g id="text_5">
      <!-- 2000 -->
      <g style="fill: #262626" transform="translate(31.12125 256.526366)scale(0.1 -0.1)">
       <use xlink:href="#DejaVuSans-32"/>
       <use xlink:href="#DejaVuSans-30" x="63.623047"/>
       <use xlink:href="#DejaVuSans-30" x="127.246094"/>
       <use xlink:href="#DejaVuSans-30" x="190.869141"/>
      </g>
     </g>
    </g>
    <g id="ytick_3">
     <g id="line2d_3">
      <path d="M 63.57125 201.814294 
L 450 201.814294 
" clip-path="url(#p6a2d3970a5)" style="fill: none; stroke: #cccccc; stroke-width: 0.8; stroke-linecap: round"/>
     </g>
     <g id="text_6">
      <!-- 4000 -->
      <g style="fill: #262626" transform="translate(31.12125 205.613513)scale(0.1 -0.1)">
       <defs>
        <path id="DejaVuSans-34" d="M 2419 4116 
L 825 1625 
L 2419 1625 
L 2419 4116 
z
M 2253 4666 
L 3047 4666 
L 3047 1625 
L 3713 1625 
L 3713 1100 
L 3047 1100 
L 3047 0 
L 2419 0 
L 2419 1100 
L 313 1100 
L 313 1709 
L 2253 4666 
z
" transform="scale(0.015625)"/>
       </defs>
       <use xlink:href="#DejaVuSans-34"/>
       <use xlink:href="#DejaVuSans-30" x="63.623047"/>
       <use xlink:href="#DejaVuSans-30" x="127.246094"/>
       <use xlink:href="#DejaVuSans-30" x="190.869141"/>
      </g>
     </g>
    </g>
    <g id="ytick_4">
     <g id="line2d_4">
      <path d="M 63.57125 150.901441 
L 450 150.901441 
" clip-path="url(#p6a2d3970a5)" style="fill: none; stroke: #cccccc; stroke-width: 0.8; stroke-linecap: round"/>
     </g>
     <g id="text_7">
      <!-- 6000 -->
      <g style="fill: #262626" transform="translate(31.12125 154.70066)scale(0.1 -0.1)">
       <defs>
        <path id="DejaVuSans-36" d="M 2113 2584 
Q 1688 2584 1439 2293 
Q 1191 2003 1191 1497 
Q 1191 994 1439 701 
Q 1688 409 2113 409 
Q 2538 409 2786 701 
Q 3034 994 3034 1497 
Q 3034 2003 2786 2293 
Q 2538 2584 2113 2584 
z
M 3366 4563 
L 3366 3988 
Q 3128 4100 2886 4159 
Q 2644 4219 2406 4219 
Q 1781 4219 1451 3797 
Q 1122 3375 1075 2522 
Q 1259 2794 1537 2939 
Q 1816 3084 2150 3084 
Q 2853 3084 3261 2657 
Q 3669 2231 3669 1497 
Q 3669 778 3244 343 
Q 2819 -91 2113 -91 
Q 1303 -91 875 529 
Q 447 1150 447 2328 
Q 447 3434 972 4092 
Q 1497 4750 2381 4750 
Q 2619 4750 2861 4703 
Q 3103 4656 3366 4563 
z
" transform="scale(0.015625)"/>
       </defs>
       <use xlink:href="#DejaVuSans-36"/>
       <use xlink:href="#DejaVuSans-30" x="63.623047"/>
       <use xlink:href="#DejaVuSans-30" x="127.246094"/>
       <use xlink:href="#DejaVuSans-30" x="190.869141"/>
      </g>
     </g>
    </g>
    <g id="ytick_5">
     <g id="line2d_5">
      <path d="M 63.57125 99.988588 
L 450 99.988588 
" clip-path="url(#p6a2d3970a5)" style="fill: none; stroke: #cccccc; stroke-width: 0.8; stroke-linecap: round"/>
     </g>
     <g id="text_8">
      <!-- 8000 -->
      <g style="fill: #262626" transform="translate(31.12125 103.787807)scale(0.1 -0.1)">
       <use xlink:href="#DejaVuSans-38"/>
       <use xlink:href="#DejaVuSans-30" x="63.623047"/>
       <use xlink:href="#DejaVuSans-30" x="127.246094"/>
       <use xlink:href="#DejaVuSans-30" x="190.869141"/>
      </g>
     </g>
    </g>
    <g id="ytick_6">
     <g id="line2d_6">
      <path d="M 63.57125 49.075735 
L 450 49.075735 
" clip-path="url(#p6a2d3970a5)" style="fill: none; stroke: #cccccc; stroke-width: 0.8; stroke-linecap: round"/>
     </g>
     <g id="text_9">
      <!-- 10000 -->
      <g style="fill: #262626" transform="translate(24.75875 52.874954)scale(0.1 -0.1)">
       <use xlink:href="#DejaVuSans-31"/>
       <use xlink:href="#DejaVuSans-30" x="63.623047"/>
       <use xlink:href="#DejaVuSans-30" x="127.246094"/>
       <use xlink:href="#DejaVuSans-30" x="190.869141"/>
       <use xlink:href="#DejaVuSans-30" x="254.492188"/>
      </g>
     </g>
    </g>
    <g id="text_10">
     <!-- toxgreen_fluor -->
     <g style="fill: #262626" transform="translate(18.400938 193.414531)rotate(-90)scale(0.1 -0.1)">
      <defs>
       <path id="DejaVuSans-78" d="M 3513 3500 
L 2247 1797 
L 3578 0 
L 2900 0 
L 1881 1375 
L 863 0 
L 184 0 
L 1544 1831 
L 300 3500 
L 978 3500 
L 1906 2253 
L 2834 3500 
L 3513 3500 
z
" transform="scale(0.015625)"/>
       <path id="DejaVuSans-67" d="M 2906 1791 
Q 2906 2416 2648 2759 
Q 2391 3103 1925 3103 
Q 1463 3103 1205 2759 
Q 947 2416 947 1791 
Q 947 1169 1205 825 
Q 1463 481 1925 481 
Q 2391 481 2648 825 
Q 2906 1169 2906 1791 
z
M 3481 434 
Q 3481 -459 3084 -895 
Q 2688 -1331 1869 -1331 
Q 1566 -1331 1297 -1286 
Q 1028 -1241 775 -1147 
L 775 -588 
Q 1028 -725 1275 -790 
Q 1522 -856 1778 -856 
Q 2344 -856 2625 -561 
Q 2906 -266 2906 331 
L 2906 616 
Q 2728 306 2450 153 
Q 2172 0 1784 0 
Q 1141 0 747 490 
Q 353 981 353 1791 
Q 353 2603 747 3093 
Q 1141 3584 1784 3584 
Q 2172 3584 2450 3431 
Q 2728 3278 2906 2969 
L 2906 3500 
L 3481 3500 
L 3481 434 
z
" transform="scale(0.015625)"/>
       <path id="DejaVuSans-72" d="M 2631 2963 
Q 2534 3019 2420 3045 
Q 2306 3072 2169 3072 
Q 1681 3072 1420 2755 
Q 1159 2438 1159 1844 
L 1159 0 
L 581 0 
L 581 3500 
L 1159 3500 
L 1159 2956 
Q 1341 3275 1631 3429 
Q 1922 3584 2338 3584 
Q 2397 3584 2469 3576 
Q 2541 3569 2628 3553 
L 2631 2963 
z
" transform="scale(0.015625)"/>
       <path id="DejaVuSans-65" d="M 3597 1894 
L 3597 1613 
L 953 1613 
Q 991 1019 1311 708 
Q 1631 397 2203 397 
Q 2534 397 2845 478 
Q 3156 559 3463 722 
L 3463 178 
Q 3153 47 2828 -22 
Q 2503 -91 2169 -91 
Q 1331 -91 842 396 
Q 353 884 353 1716 
Q 353 2575 817 3079 
Q 1281 3584 2069 3584 
Q 2775 3584 3186 3129 
Q 3597 2675 3597 1894 
z
M 3022 2063 
Q 3016 2534 2758 2815 
Q 2500 3097 2075 3097 
Q 1594 3097 1305 2825 
Q 1016 2553 972 2059 
L 3022 2063 
z
" transform="scale(0.015625)"/>
       <path id="DejaVuSans-5f" d="M 3263 -1063 
L 3263 -1509 
L -63 -1509 
L -63 -1063 
L 3263 -1063 
z
" transform="scale(0.015625)"/>
       <path id="DejaVuSans-66" d="M 2375 4863 
L 2375 4384 
L 1825 4384 
Q 1516 4384 1395 4259 
Q 1275 4134 1275 3809 
L 1275 3500 
L 2222 3500 
L 2222 3053 
L 1275 3053 
L 1275 0 
L 697 0 
L 697 3053 
L 147 3053 
L 147 3500 
L 697 3500 
L 697 3744 
Q 697 4328 969 4595 
Q 1241 4863 1831 4863 
L 2375 4863 
z
" transform="scale(0.015625)"/>
       <path id="DejaVuSans-6c" d="M 603 4863 
L 1178 4863 
L 1178 0 
L 603 0 
L 603 4863 
z
" transform="scale(0.015625)"/>
       <path id="DejaVuSans-75" d="M 544 1381 
L 544 3500 
L 1119 3500 
L 1119 1403 
Q 1119 906 1312 657 
Q 1506 409 1894 409 
Q 2359 409 2629 706 
Q 2900 1003 2900 1516 
L 2900 3500 
L 3475 3500 
L 3475 0 
L 2900 0 
L 2900 538 
Q 2691 219 2414 64 
Q 2138 -91 1772 -91 
Q 1169 -91 856 284 
Q 544 659 544 1381 
z
M 1991 3584 
L 1991 3584 
z
" transform="scale(0.015625)"/>
      </defs>
      <use xlink:href="#DejaVuSans-74"/>
      <use xlink:href="#DejaVuSans-6f" x="39.208984"/>
      <use xlink:href="#DejaVuSans-78" x="97.265625"/>
      <use xlink:href="#DejaVuSans-67" x="156.445312"/>
      <use xlink:href="#DejaVuSans-72" x="219.921875"/>
      <use xlink:href="#DejaVuSans-65" x="258.785156"/>
      <use xlink:href="#DejaVuSans-65" x="320.308594"/>
      <use xlink:href="#DejaVuSans-6e" x="381.832031"/>
      <use xlink:href="#DejaVuSans-5f" x="445.210938"/>
      <use xlink:href="#DejaVuSans-66" x="495.210938"/>
      <use xlink:href="#DejaVuSans-6c" x="530.416016"/>
      <use xlink:href="#DejaVuSans-75" x="558.199219"/>
      <use xlink:href="#DejaVuSans-6f" x="621.578125"/>
      <use xlink:href="#DejaVuSans-72" x="682.759766"/>
     </g>
    </g>
   </g>
   <g id="patch_3">
    <path d="M 83.665545 212.241297 
L 159.40558 212.241297 
L 159.40558 173.539424 
L 83.665545 173.539424 
L 83.665545 212.241297 
z
" clip-path="url(#p6a2d3970a5)" style="fill: #ecf2ec; stroke: #262626; stroke-width: 1.5; stroke-linejoin: miter"/>
   </g>
   <g id="patch_4">
    <path d="M 160.951295 178.254155 
L 236.69133 178.254155 
L 236.69133 124.879424 
L 160.951295 124.879424 
L 160.951295 178.254155 
z
" clip-path="url(#p6a2d3970a5)" style="fill: #107010; stroke: #262626; stroke-width: 1.5; stroke-linejoin: miter"/>
   </g>
   <g id="patch_5">
    <path d="M 276.87992 201.314502 
L 352.619955 201.314502 
L 352.619955 169.456212 
L 276.87992 169.456212 
L 276.87992 201.314502 
z
" clip-path="url(#p6a2d3970a5)" style="fill: #ecf2ec; stroke: #262626; stroke-width: 1.5; stroke-linejoin: miter"/>
   </g>
   <g id="patch_6">
    <path d="M 354.16567 153.093689 
L 429.905705 153.093689 
L 429.905705 109.589356 
L 354.16567 109.589356 
L 354.16567 153.093689 
z
" clip-path="url(#p6a2d3970a5)" style="fill: #107010; stroke: #262626; stroke-width: 1.5; stroke-linejoin: miter"/>
   </g>
   <g id="patch_7">
    <path d="M 160.178438 303.64 
L 160.178438 303.64 
L 160.178438 303.64 
L 160.178438 303.64 
z
" clip-path="url(#p6a2d3970a5)" style="fill: #ecf2ec; stroke: #262626; stroke-width: 0.75; stroke-linejoin: miter"/>
   </g>
   <g id="patch_8">
    <path d="M 160.178438 303.64 
L 160.178438 303.64 
L 160.178438 303.64 
L 160.178438 303.64 
z
" clip-path="url(#p6a2d3970a5)" style="fill: #107010; stroke: #262626; stroke-width: 0.75; stroke-linejoin: miter"/>
   </g>
   <g id="PathCollection_1"/>
   <g id="PathCollection_2"/>
   <g id="line2d_7">
    <path d="M 121.535562 212.241297 
L 121.535562 268.83631 
" clip-path="url(#p6a2d3970a5)" style="fill: none; stroke: #262626; stroke-width: 1.5; stroke-linecap: round"/>
   </g>
   <g id="line2d_8">
    <path d="M 121.535562 173.539424 
L 121.535562 130.13744 
" clip-path="url(#p6a2d3970a5)" style="fill: none; stroke: #262626; stroke-width: 1.5; stroke-linecap: round"/>
   </g>
   <g id="line2d_9">
    <path d="M 102.600554 268.83631 
L 140.470571 268.83631 
" clip-path="url(#p6a2d3970a5)" style="fill: none; stroke: #262626; stroke-width: 1.5; stroke-linecap: round"/>
   </g>
   <g id="line2d_10">
    <path d="M 102.600554 130.13744 
L 140.470571 130.13744 
" clip-path="url(#p6a2d3970a5)" style="fill: none; stroke: #262626; stroke-width: 1.5; stroke-linecap: round"/>
   </g>
   <g id="line2d_11">
    <defs>
     <path id="mf63f227f62" d="M -0 1.414214 
L 0.848528 0 
L 0 -1.414214 
L -0.848528 -0 
z
" style="stroke: #262626; stroke-linejoin: miter"/>
    </defs>
    <g clip-path="url(#p6a2d3970a5)">
     <use xlink:href="#mf63f227f62" x="121.535562" y="90.97277" style="fill: #262626; stroke: #262626; stroke-linejoin: miter"/>
    </g>
   </g>
   <g id="line2d_12">
    <path d="M 198.821313 178.254155 
L 198.821313 202.948087 
" clip-path="url(#p6a2d3970a5)" style="fill: none; stroke: #262626; stroke-width: 1.5; stroke-linecap: round"/>
   </g>
   <g id="line2d_13">
    <path d="M 198.821313 124.879424 
L 198.821313 112.635715 
" clip-path="url(#p6a2d3970a5)" style="fill: none; stroke: #262626; stroke-width: 1.5; stroke-linecap: round"/>
   </g>
   <g id="line2d_14">
    <path d="M 179.886304 202.948087 
L 217.756321 202.948087 
" clip-path="url(#p6a2d3970a5)" style="fill: none; stroke: #262626; stroke-width: 1.5; stroke-linecap: round"/>
   </g>
   <g id="line2d_15">
    <path d="M 179.886304 112.635715 
L 217.756321 112.635715 
" clip-path="url(#p6a2d3970a5)" style="fill: none; stroke: #262626; stroke-width: 1.5; stroke-linecap: round"/>
   </g>
   <g id="line2d_16">
    <g clip-path="url(#p6a2d3970a5)">
     <use xlink:href="#mf63f227f62" x="198.821313" y="43.237364" style="fill: #262626; stroke: #262626; stroke-linejoin: miter"/>
    </g>
   </g>
   <g id="line2d_17">
    <path d="M 314.749937 201.314502 
L 314.749937 232.087544 
" clip-path="url(#p6a2d3970a5)" style="fill: none; stroke: #262626; stroke-width: 1.5; stroke-linecap: round"/>
   </g>
   <g id="line2d_18">
    <path d="M 314.749937 169.456212 
L 314.749937 152.858705 
" clip-path="url(#p6a2d3970a5)" style="fill: none; stroke: #262626; stroke-width: 1.5; stroke-linecap: round"/>
   </g>
   <g id="line2d_19">
    <path d="M 295.814929 232.087544 
L 333.684946 232.087544 
" clip-path="url(#p6a2d3970a5)" style="fill: none; stroke: #262626; stroke-width: 1.5; stroke-linecap: round"/>
   </g>
   <g id="line2d_20">
    <path d="M 295.814929 152.858705 
L 333.684946 152.858705 
" clip-path="url(#p6a2d3970a5)" style="fill: none; stroke: #262626; stroke-width: 1.5; stroke-linecap: round"/>
   </g>
   <g id="line2d_21">
    <g clip-path="url(#p6a2d3970a5)">
     <use xlink:href="#mf63f227f62" x="314.749937" y="91.130689" style="fill: #262626; stroke: #262626; stroke-linejoin: miter"/>
    </g>
   </g>
   <g id="line2d_22">
    <path d="M 392.035687 153.093689 
L 392.035687 180.973081 
" clip-path="url(#p6a2d3970a5)" style="fill: none; stroke: #262626; stroke-width: 1.5; stroke-linecap: round"/>
   </g>
   <g id="line2d_23">
    <path d="M 392.035687 109.589356 
L 392.035687 46.488943 
" clip-path="url(#p6a2d3970a5)" style="fill: none; stroke: #262626; stroke-width: 1.5; stroke-linecap: round"/>
   </g>
   <g id="line2d_24">
    <path d="M 373.100679 180.973081 
L 410.970696 180.973081 
" clip-path="url(#p6a2d3970a5)" style="fill: none; stroke: #262626; stroke-width: 1.5; stroke-linecap: round"/>
   </g>
   <g id="line2d_25">
    <path d="M 373.100679 46.488943 
L 410.970696 46.488943 
" clip-path="url(#p6a2d3970a5)" style="fill: none; stroke: #262626; stroke-width: 1.5; stroke-linecap: round"/>
   </g>
   <g id="line2d_26">
    <g clip-path="url(#p6a2d3970a5)">
     <use xlink:href="#mf63f227f62" x="392.035687" y="37.421818" style="fill: #262626; stroke: #262626; stroke-linejoin: miter"/>
    </g>
   </g>
   <g id="line2d_27">
    <path d="M 83.665545 189.869797 
L 159.40558 189.869797 
" clip-path="url(#p6a2d3970a5)" style="fill: none; stroke: #262626; stroke-width: 1.5; stroke-linecap: round"/>
   </g>
   <g id="line2d_28">
    <path d="M 160.951295 141.202911 
L 236.69133 141.202911 
" clip-path="url(#p6a2d3970a5)" style="fill: none; stroke: #262626; stroke-width: 1.5; stroke-linecap: round"/>
   </g>
   <g id="line2d_29">
    <path d="M 276.87992 183.253991 
L 352.619955 183.253991 
" clip-path="url(#p6a2d3970a5)" style="fill: none; stroke: #262626; stroke-width: 1.5; stroke-linecap: round"/>
   </g>
   <g id="line2d_30">
    <path d="M 354.16567 126.406152 
L 429.905705 126.406152 
" clip-path="url(#p6a2d3970a5)" style="fill: none; stroke: #262626; stroke-width: 1.5; stroke-linecap: round"/>
   </g>
   <g id="patch_9">
    <path d="M 63.57125 303.64 
L 63.57125 10.8 
" style="fill: none; stroke: #cccccc; stroke-width: 0.8; stroke-linejoin: miter; stroke-linecap: square"/>
   </g>
   <g id="patch_10">
    <path d="M 450 303.64 
L 450 10.8 
" style="fill: none; stroke: #cccccc; stroke-width: 0.8; stroke-linejoin: miter; stroke-linecap: square"/>
   </g>
   <g id="patch_11">
    <path d="M 63.57125 303.64 
L 450 303.64 
" style="fill: none; stroke: #cccccc; stroke-width: 0.8; stroke-linejoin: miter; stroke-linecap: square"/>
   </g>
   <g id="patch_12">
    <path d="M 63.57125 10.8 
L 450 10.8 
" style="fill: none; stroke: #cccccc; stroke-width: 0.8; stroke-linejoin: miter; stroke-linecap: square"/>
   </g>
   <g id="PathCollection_3">
    <defs>
     <path id="C0_0_65ae241ea3" d="M 0 1 
C 0.265203 1 0.51958 0.894634 0.707107 0.707107 
C 0.894634 0.51958 1 0.265203 1 -0 
C 1 -0.265203 0.894634 -0.51958 0.707107 -0.707107 
C 0.51958 -0.894634 0.265203 -1 0 -1 
C -0.265203 -1 -0.51958 -0.894634 -0.707107 -0.707107 
C -0.894634 -0.51958 -1 -0.265203 -1 0 
C -1 0.265203 -0.894634 0.51958 -0.707107 0.707107 
C -0.51958 0.894634 -0.265203 1 0 1 
z
"/>
    </defs>
    <g clip-path="url(#p6a2d3970a5)">
     <use xlink:href="#C0_0_65ae241ea3" x="115.792462" y="174.997169" style="fill: #262626"/>
    </g>
    <g clip-path="url(#p6a2d3970a5)">
     <use xlink:href="#C0_0_65ae241ea3" x="112.622845" y="211.788262" style="fill: #262626"/>
    </g>
    <g clip-path="url(#p6a2d3970a5)">
     <use xlink:href="#C0_0_65ae241ea3" x="124.155194" y="209.542969" style="fill: #262626"/>
    </g>
    <g clip-path="url(#p6a2d3970a5)">
     <use xlink:href="#C0_0_65ae241ea3" x="130.77714" y="200.785457" style="fill: #262626"/>
    </g>
    <g clip-path="url(#p6a2d3970a5)">
     <use xlink:href="#C0_0_65ae241ea3" x="120.90943" y="175.4412" style="fill: #262626"/>
    </g>
    <g clip-path="url(#p6a2d3970a5)">
     <use xlink:href="#C0_0_65ae241ea3" x="121.540958" y="178.762478" style="fill: #262626"/>
    </g>
    <g clip-path="url(#p6a2d3970a5)">
     <use xlink:href="#C0_0_65ae241ea3" x="124.101697" y="185.453247" style="fill: #262626"/>
    </g>
    <g clip-path="url(#p6a2d3970a5)">
     <use xlink:href="#C0_0_65ae241ea3" x="117.56332" y="235.758767" style="fill: #262626"/>
    </g>
    <g clip-path="url(#p6a2d3970a5)">
     <use xlink:href="#C0_0_65ae241ea3" x="123.007162" y="178.589258" style="fill: #262626"/>
    </g>
    <g clip-path="url(#p6a2d3970a5)">
     <use xlink:href="#C0_0_65ae241ea3" x="118.136514" y="231.981989" style="fill: #262626"/>
    </g>
    <g clip-path="url(#p6a2d3970a5)">
     <use xlink:href="#C0_0_65ae241ea3" x="120.110646" y="192.07784" style="fill: #262626"/>
    </g>
    <g clip-path="url(#p6a2d3970a5)">
     <use xlink:href="#C0_0_65ae241ea3" x="126.944387" y="130.13744" style="fill: #262626"/>
    </g>
    <g clip-path="url(#p6a2d3970a5)">
     <use xlink:href="#C0_0_65ae241ea3" x="127.498195" y="213.004375" style="fill: #262626"/>
    </g>
    <g clip-path="url(#p6a2d3970a5)">
     <use xlink:href="#C0_0_65ae241ea3" x="128.096878" y="160.012492" style="fill: #262626"/>
    </g>
    <g clip-path="url(#p6a2d3970a5)">
     <use xlink:href="#C0_0_65ae241ea3" x="121.683777" y="199.135888" style="fill: #262626"/>
    </g>
    <g clip-path="url(#p6a2d3970a5)">
     <use xlink:href="#C0_0_65ae241ea3" x="114.348434" y="166.476163" style="fill: #262626"/>
    </g>
    <g clip-path="url(#p6a2d3970a5)">
     <use xlink:href="#C0_0_65ae241ea3" x="124.17646" y="165.760914" style="fill: #262626"/>
    </g>
    <g clip-path="url(#p6a2d3970a5)">
     <use xlink:href="#C0_0_65ae241ea3" x="122.091896" y="188.880077" style="fill: #262626"/>
    </g>
    <g clip-path="url(#p6a2d3970a5)">
     <use xlink:href="#C0_0_65ae241ea3" x="117.049978" y="235.961068" style="fill: #262626"/>
    </g>
    <g clip-path="url(#p6a2d3970a5)">
     <use xlink:href="#C0_0_65ae241ea3" x="117.623021" y="268.83631" style="fill: #262626"/>
    </g>
    <g clip-path="url(#p6a2d3970a5)">
     <use xlink:href="#C0_0_65ae241ea3" x="120.751278" y="228.095032" style="fill: #262626"/>
    </g>
    <g clip-path="url(#p6a2d3970a5)">
     <use xlink:href="#C0_0_65ae241ea3" x="128.778451" y="212.713994" style="fill: #262626"/>
    </g>
    <g clip-path="url(#p6a2d3970a5)">
     <use xlink:href="#C0_0_65ae241ea3" x="124.968029" y="181.766953" style="fill: #262626"/>
    </g>
    <g clip-path="url(#p6a2d3970a5)">
     <use xlink:href="#C0_0_65ae241ea3" x="119.033653" y="212.392309" style="fill: #262626"/>
    </g>
    <g clip-path="url(#p6a2d3970a5)">
     <use xlink:href="#C0_0_65ae241ea3" x="120.481199" y="173.053509" style="fill: #262626"/>
    </g>
    <g clip-path="url(#p6a2d3970a5)">
     <use xlink:href="#C0_0_65ae241ea3" x="123.994998" y="170.099088" style="fill: #262626"/>
    </g>
    <g clip-path="url(#p6a2d3970a5)">
     <use xlink:href="#C0_0_65ae241ea3" x="122.902052" y="190.859517" style="fill: #262626"/>
    </g>
    <g clip-path="url(#p6a2d3970a5)">
     <use xlink:href="#C0_0_65ae241ea3" x="114.781676" y="180.276131" style="fill: #262626"/>
    </g>
    <g clip-path="url(#p6a2d3970a5)">
     <use xlink:href="#C0_0_65ae241ea3" x="120.301889" y="215.108469" style="fill: #262626"/>
    </g>
    <g clip-path="url(#p6a2d3970a5)">
     <use xlink:href="#C0_0_65ae241ea3" x="121.199796" y="90.97277" style="fill: #262626"/>
    </g>
    <g clip-path="url(#p6a2d3970a5)">
     <use xlink:href="#C0_0_65ae241ea3" x="130.23366" y="206.764527" style="fill: #262626"/>
    </g>
    <g clip-path="url(#p6a2d3970a5)">
     <use xlink:href="#C0_0_65ae241ea3" x="124.522728" y="160.704029" style="fill: #262626"/>
    </g>
    <g clip-path="url(#p6a2d3970a5)">
     <use xlink:href="#C0_0_65ae241ea3" x="130.553965" y="199.592751" style="fill: #262626"/>
    </g>
    <g clip-path="url(#p6a2d3970a5)">
     <use xlink:href="#C0_0_65ae241ea3" x="119.182727" y="168.883642" style="fill: #262626"/>
    </g>
   </g>
   <g id="PathCollection_4">
    <defs>
     <path id="C1_0_cccc38c252" d="M 0 1 
C 0.265203 1 0.51958 0.894634 0.707107 0.707107 
C 0.894634 0.51958 1 0.265203 1 -0 
C 1 -0.265203 0.894634 -0.51958 0.707107 -0.707107 
C 0.51958 -0.894634 0.265203 -1 0 -1 
C -0.265203 -1 -0.51958 -0.894634 -0.707107 -0.707107 
C -0.894634 -0.51958 -1 -0.265203 -1 0 
C -1 0.265203 -0.894634 0.51958 -0.707107 0.707107 
C -0.51958 0.894634 -0.265203 1 0 1 
z
"/>
    </defs>
    <g clip-path="url(#p6a2d3970a5)">
     <use xlink:href="#C1_0_cccc38c252" x="194.645793" y="170.51065"/>
    </g>
    <g clip-path="url(#p6a2d3970a5)">
     <use xlink:href="#C1_0_cccc38c252" x="202.496923" y="164.528552"/>
    </g>
    <g clip-path="url(#p6a2d3970a5)">
     <use xlink:href="#C1_0_cccc38c252" x="202.108424" y="123.493149"/>
    </g>
    <g clip-path="url(#p6a2d3970a5)">
     <use xlink:href="#C1_0_cccc38c252" x="192.668677" y="129.038247"/>
    </g>
    <g clip-path="url(#p6a2d3970a5)">
     <use xlink:href="#C1_0_cccc38c252" x="196.397102" y="180.835324"/>
    </g>
    <g clip-path="url(#p6a2d3970a5)">
     <use xlink:href="#C1_0_cccc38c252" x="201.423492" y="129.454232"/>
    </g>
    <g clip-path="url(#p6a2d3970a5)">
     <use xlink:href="#C1_0_cccc38c252" x="194.856294" y="140.840931"/>
    </g>
    <g clip-path="url(#p6a2d3970a5)">
     <use xlink:href="#C1_0_cccc38c252" x="192.239122" y="181.268223"/>
    </g>
    <g clip-path="url(#p6a2d3970a5)">
     <use xlink:href="#C1_0_cccc38c252" x="203.249406" y="112.635715"/>
    </g>
    <g clip-path="url(#p6a2d3970a5)">
     <use xlink:href="#C1_0_cccc38c252" x="207.182843" y="43.237364"/>
    </g>
    <g clip-path="url(#p6a2d3970a5)">
     <use xlink:href="#C1_0_cccc38c252" x="195.595479" y="192.656225"/>
    </g>
    <g clip-path="url(#p6a2d3970a5)">
     <use xlink:href="#C1_0_cccc38c252" x="203.63062" y="118.29666"/>
    </g>
    <g clip-path="url(#p6a2d3970a5)">
     <use xlink:href="#C1_0_cccc38c252" x="202.795821" y="202.948087"/>
    </g>
    <g clip-path="url(#p6a2d3970a5)">
     <use xlink:href="#C1_0_cccc38c252" x="192.89156" y="141.564891"/>
    </g>
   </g>
   <g id="PathCollection_5">
    <defs>
     <path id="C2_0_19c5d78e0e" d="M 0 1 
C 0.265203 1 0.51958 0.894634 0.707107 0.707107 
C 0.894634 0.51958 1 0.265203 1 -0 
C 1 -0.265203 0.894634 -0.51958 0.707107 -0.707107 
C 0.51958 -0.894634 0.265203 -1 0 -1 
C -0.265203 -1 -0.51958 -0.894634 -0.707107 -0.707107 
C -0.894634 -0.51958 -1 -0.265203 -1 0 
C -1 0.265203 -0.894634 0.51958 -0.707107 0.707107 
C -0.51958 0.894634 -0.265203 1 0 1 
z
"/>
    </defs>
    <g clip-path="url(#p6a2d3970a5)">
     <use xlink:href="#C2_0_19c5d78e0e" x="314.507144" y="152.858705" style="fill: #262626"/>
    </g>
    <g clip-path="url(#p6a2d3970a5)">
     <use xlink:href="#C2_0_19c5d78e0e" x="321.982643" y="165.823574" style="fill: #262626"/>
    </g>
    <g clip-path="url(#p6a2d3970a5)">
     <use xlink:href="#C2_0_19c5d78e0e" x="321.624225" y="227.05239" style="fill: #262626"/>
    </g>
    <g clip-path="url(#p6a2d3970a5)">
     <use xlink:href="#C2_0_19c5d78e0e" x="314.852425" y="178.250613" style="fill: #262626"/>
    </g>
    <g clip-path="url(#p6a2d3970a5)">
     <use xlink:href="#C2_0_19c5d78e0e" x="311.755499" y="224.704888" style="fill: #262626"/>
    </g>
    <g clip-path="url(#p6a2d3970a5)">
     <use xlink:href="#C2_0_19c5d78e0e" x="306.174923" y="197.428111" style="fill: #262626"/>
    </g>
    <g clip-path="url(#p6a2d3970a5)">
     <use xlink:href="#C2_0_19c5d78e0e" x="317.667893" y="163.157792" style="fill: #262626"/>
    </g>
    <g clip-path="url(#p6a2d3970a5)">
     <use xlink:href="#C2_0_19c5d78e0e" x="309.100689" y="169.243801" style="fill: #262626"/>
    </g>
    <g clip-path="url(#p6a2d3970a5)">
     <use xlink:href="#C2_0_19c5d78e0e" x="323.728716" y="214.86863" style="fill: #262626"/>
    </g>
    <g clip-path="url(#p6a2d3970a5)">
     <use xlink:href="#C2_0_19c5d78e0e" x="313.912786" y="229.850876" style="fill: #262626"/>
    </g>
    <g clip-path="url(#p6a2d3970a5)">
     <use xlink:href="#C2_0_19c5d78e0e" x="313.799351" y="167.832634" style="fill: #262626"/>
    </g>
    <g clip-path="url(#p6a2d3970a5)">
     <use xlink:href="#C2_0_19c5d78e0e" x="317.941612" y="91.130689" style="fill: #262626"/>
    </g>
    <g clip-path="url(#p6a2d3970a5)">
     <use xlink:href="#C2_0_19c5d78e0e" x="318.353907" y="175.95542" style="fill: #262626"/>
    </g>
    <g clip-path="url(#p6a2d3970a5)">
     <use xlink:href="#C2_0_19c5d78e0e" x="323.997586" y="212.874071" style="fill: #262626"/>
    </g>
    <g clip-path="url(#p6a2d3970a5)">
     <use xlink:href="#C2_0_19c5d78e0e" x="312.498486" y="201.606964" style="fill: #262626"/>
    </g>
    <g clip-path="url(#p6a2d3970a5)">
     <use xlink:href="#C2_0_19c5d78e0e" x="317.791493" y="200.437114" style="fill: #262626"/>
    </g>
    <g clip-path="url(#p6a2d3970a5)">
     <use xlink:href="#C2_0_19c5d78e0e" x="321.055574" y="158.19907" style="fill: #262626"/>
    </g>
    <g clip-path="url(#p6a2d3970a5)">
     <use xlink:href="#C2_0_19c5d78e0e" x="310.878239" y="177.327399" style="fill: #262626"/>
    </g>
    <g clip-path="url(#p6a2d3970a5)">
     <use xlink:href="#C2_0_19c5d78e0e" x="320.917157" y="164.01147" style="fill: #262626"/>
    </g>
    <g clip-path="url(#p6a2d3970a5)">
     <use xlink:href="#C2_0_19c5d78e0e" x="314.631401" y="184.4579" style="fill: #262626"/>
    </g>
    <g clip-path="url(#p6a2d3970a5)">
     <use xlink:href="#C2_0_19c5d78e0e" x="312.257516" y="195.864082" style="fill: #262626"/>
    </g>
    <g clip-path="url(#p6a2d3970a5)">
     <use xlink:href="#C2_0_19c5d78e0e" x="311.982235" y="162.296849" style="fill: #262626"/>
    </g>
    <g clip-path="url(#p6a2d3970a5)">
     <use xlink:href="#C2_0_19c5d78e0e" x="312.760326" y="170.093445" style="fill: #262626"/>
    </g>
    <g clip-path="url(#p6a2d3970a5)">
     <use xlink:href="#C2_0_19c5d78e0e" x="317.418362" y="173.757987" style="fill: #262626"/>
    </g>
    <g clip-path="url(#p6a2d3970a5)">
     <use xlink:href="#C2_0_19c5d78e0e" x="318.094797" y="232.087544" style="fill: #262626"/>
    </g>
    <g clip-path="url(#p6a2d3970a5)">
     <use xlink:href="#C2_0_19c5d78e0e" x="309.705607" y="171.990772" style="fill: #262626"/>
    </g>
    <g clip-path="url(#p6a2d3970a5)">
     <use xlink:href="#C2_0_19c5d78e0e" x="324.095729" y="186.149394" style="fill: #262626"/>
    </g>
    <g clip-path="url(#p6a2d3970a5)">
     <use xlink:href="#C2_0_19c5d78e0e" x="319.371509" y="182.050082" style="fill: #262626"/>
    </g>
    <g clip-path="url(#p6a2d3970a5)">
     <use xlink:href="#C2_0_19c5d78e0e" x="319.021122" y="184.656567" style="fill: #262626"/>
    </g>
    <g clip-path="url(#p6a2d3970a5)">
     <use xlink:href="#C2_0_19c5d78e0e" x="314.547041" y="213.121411" style="fill: #262626"/>
    </g>
    <g clip-path="url(#p6a2d3970a5)">
     <use xlink:href="#C2_0_19c5d78e0e" x="322.082019" y="185.839923" style="fill: #262626"/>
    </g>
    <g clip-path="url(#p6a2d3970a5)">
     <use xlink:href="#C2_0_19c5d78e0e" x="309.383492" y="180.859602" style="fill: #262626"/>
    </g>
    <g clip-path="url(#p6a2d3970a5)">
     <use xlink:href="#C2_0_19c5d78e0e" x="309.57025" y="202.025844" style="fill: #262626"/>
    </g>
    <g clip-path="url(#p6a2d3970a5)">
     <use xlink:href="#C2_0_19c5d78e0e" x="314.179503" y="193.666688" style="fill: #262626"/>
    </g>
   </g>
   <g id="PathCollection_6">
    <defs>
     <path id="C3_0_e107b14118" d="M 0 1 
C 0.265203 1 0.51958 0.894634 0.707107 0.707107 
C 0.894634 0.51958 1 0.265203 1 -0 
C 1 -0.265203 0.894634 -0.51958 0.707107 -0.707107 
C 0.51958 -0.894634 0.265203 -1 0 -1 
C -0.265203 -1 -0.51958 -0.894634 -0.707107 -0.707107 
C -0.894634 -0.51958 -1 -0.265203 -1 0 
C -1 0.265203 -0.894634 0.51958 -0.707107 0.707107 
C -0.51958 0.894634 -0.265203 1 0 1 
z
"/>
    </defs>
    <g clip-path="url(#p6a2d3970a5)">
     <use xlink:href="#C3_0_e107b14118" x="386.627158" y="149.096277"/>
    </g>
    <g clip-path="url(#p6a2d3970a5)">
     <use xlink:href="#C3_0_e107b14118" x="386.910809" y="132.314044"/>
    </g>
    <g clip-path="url(#p6a2d3970a5)">
     <use xlink:href="#C3_0_e107b14118" x="393.347746" y="126.406152"/>
    </g>
    <g clip-path="url(#p6a2d3970a5)">
     <use xlink:href="#C3_0_e107b14118" x="389.527766" y="46.488943"/>
    </g>
    <g clip-path="url(#p6a2d3970a5)">
     <use xlink:href="#C3_0_e107b14118" x="399.660519" y="95.320478"/>
    </g>
    <g clip-path="url(#p6a2d3970a5)">
     <use xlink:href="#C3_0_e107b14118" x="400.558031" y="114.864935"/>
    </g>
    <g clip-path="url(#p6a2d3970a5)">
     <use xlink:href="#C3_0_e107b14118" x="397.031692" y="37.421818"/>
    </g>
    <g clip-path="url(#p6a2d3970a5)">
     <use xlink:href="#C3_0_e107b14118" x="398.014104" y="180.935046"/>
    </g>
    <g clip-path="url(#p6a2d3970a5)">
     <use xlink:href="#C3_0_e107b14118" x="391.322568" y="76.129048"/>
    </g>
    <g clip-path="url(#p6a2d3970a5)">
     <use xlink:href="#C3_0_e107b14118" x="387.875759" y="156.839468"/>
    </g>
    <g clip-path="url(#p6a2d3970a5)">
     <use xlink:href="#C3_0_e107b14118" x="389.918556" y="119.429736"/>
    </g>
    <g clip-path="url(#p6a2d3970a5)">
     <use xlink:href="#C3_0_e107b14118" x="384.150127" y="136.651544"/>
    </g>
    <g clip-path="url(#p6a2d3970a5)">
     <use xlink:href="#C3_0_e107b14118" x="383.555701" y="109.589356"/>
    </g>
    <g clip-path="url(#p6a2d3970a5)">
     <use xlink:href="#C3_0_e107b14118" x="392.055627" y="180.973081"/>
    </g>
    <g clip-path="url(#p6a2d3970a5)">
     <use xlink:href="#C3_0_e107b14118" x="387.570955" y="119.746722"/>
    </g>
    <g clip-path="url(#p6a2d3970a5)">
     <use xlink:href="#C3_0_e107b14118" x="389.193083" y="153.093689"/>
    </g>
    <g clip-path="url(#p6a2d3970a5)">
     <use xlink:href="#C3_0_e107b14118" x="394.609498" y="168.783395"/>
    </g>
   </g>
   <g id="text_11">
    <!-- 34 -->
    <g style="fill: #262626" transform="translate(131.196281 303.597997)scale(0.1 -0.1)">
     <defs>
      <path id="DejaVuSans-33" d="M 2597 2516 
Q 3050 2419 3304 2112 
Q 3559 1806 3559 1356 
Q 3559 666 3084 287 
Q 2609 -91 1734 -91 
Q 1441 -91 1130 -33 
Q 819 25 488 141 
L 488 750 
Q 750 597 1062 519 
Q 1375 441 1716 441 
Q 2309 441 2620 675 
Q 2931 909 2931 1356 
Q 2931 1769 2642 2001 
Q 2353 2234 1838 2234 
L 1294 2234 
L 1294 2753 
L 1863 2753 
Q 2328 2753 2575 2939 
Q 2822 3125 2822 3475 
Q 2822 3834 2567 4026 
Q 2313 4219 1838 4219 
Q 1578 4219 1281 4162 
Q 984 4106 628 3988 
L 628 4550 
Q 988 4650 1302 4700 
Q 1616 4750 1894 4750 
Q 2613 4750 3031 4423 
Q 3450 4097 3450 3541 
Q 3450 3153 3228 2886 
Q 3006 2619 2597 2516 
z
" transform="scale(0.015625)"/>
     </defs>
     <use xlink:href="#DejaVuSans-33"/>
     <use xlink:href="#DejaVuSans-34" x="63.623047"/>
    </g>
   </g>
   <g id="text_12">
    <!-- p=0.00017867028813329863 -->
    <g style="fill: #262626" transform="translate(70.588781 90.971497)scale(0.08 -0.08)">
     <defs>
      <path id="DejaVuSans-70" d="M 1159 525 
L 1159 -1331 
L 581 -1331 
L 581 3500 
L 1159 3500 
L 1159 2969 
Q 1341 3281 1617 3432 
Q 1894 3584 2278 3584 
Q 2916 3584 3314 3078 
Q 3713 2572 3713 1747 
Q 3713 922 3314 415 
Q 2916 -91 2278 -91 
Q 1894 -91 1617 61 
Q 1341 213 1159 525 
z
M 3116 1747 
Q 3116 2381 2855 2742 
Q 2594 3103 2138 3103 
Q 1681 3103 1420 2742 
Q 1159 2381 1159 1747 
Q 1159 1113 1420 752 
Q 1681 391 2138 391 
Q 2594 391 2855 752 
Q 3116 1113 3116 1747 
z
" transform="scale(0.015625)"/>
      <path id="DejaVuSans-3d" d="M 678 2906 
L 4684 2906 
L 4684 2381 
L 678 2381 
L 678 2906 
z
M 678 1631 
L 4684 1631 
L 4684 1100 
L 678 1100 
L 678 1631 
z
" transform="scale(0.015625)"/>
      <path id="DejaVuSans-2e" d="M 684 794 
L 1344 794 
L 1344 0 
L 684 0 
L 684 794 
z
" transform="scale(0.015625)"/>
      <path id="DejaVuSans-37" d="M 525 4666 
L 3525 4666 
L 3525 4397 
L 1831 0 
L 1172 0 
L 2766 4134 
L 525 4134 
L 525 4666 
z
" transform="scale(0.015625)"/>
      <path id="DejaVuSans-39" d="M 703 97 
L 703 672 
Q 941 559 1184 500 
Q 1428 441 1663 441 
Q 2288 441 2617 861 
Q 2947 1281 2994 2138 
Q 2813 1869 2534 1725 
Q 2256 1581 1919 1581 
Q 1219 1581 811 2004 
Q 403 2428 403 3163 
Q 403 3881 828 4315 
Q 1253 4750 1959 4750 
Q 2769 4750 3195 4129 
Q 3622 3509 3622 2328 
Q 3622 1225 3098 567 
Q 2575 -91 1691 -91 
Q 1453 -91 1209 -44 
Q 966 3 703 97 
z
M 1959 2075 
Q 2384 2075 2632 2365 
Q 2881 2656 2881 3163 
Q 2881 3666 2632 3958 
Q 2384 4250 1959 4250 
Q 1534 4250 1286 3958 
Q 1038 3666 1038 3163 
Q 1038 2656 1286 2365 
Q 1534 2075 1959 2075 
z
" transform="scale(0.015625)"/>
     </defs>
     <use xlink:href="#DejaVuSans-70"/>
     <use xlink:href="#DejaVuSans-3d" x="63.476562"/>
     <use xlink:href="#DejaVuSans-30" x="147.265625"/>
     <use xlink:href="#DejaVuSans-2e" x="210.888672"/>
     <use xlink:href="#DejaVuSans-30" x="242.675781"/>
     <use xlink:href="#DejaVuSans-30" x="306.298828"/>
     <use xlink:href="#DejaVuSans-30" x="369.921875"/>
     <use xlink:href="#DejaVuSans-31" x="433.544922"/>
     <use xlink:href="#DejaVuSans-37" x="497.167969"/>
     <use xlink:href="#DejaVuSans-38" x="560.791016"/>
     <use xlink:href="#DejaVuSans-36" x="624.414062"/>
     <use xlink:href="#DejaVuSans-37" x="688.037109"/>
     <use xlink:href="#DejaVuSans-30" x="751.660156"/>
     <use xlink:href="#DejaVuSans-32" x="815.283203"/>
     <use xlink:href="#DejaVuSans-38" x="878.90625"/>
     <use xlink:href="#DejaVuSans-38" x="942.529297"/>
     <use xlink:href="#DejaVuSans-31" x="1006.152344"/>
     <use xlink:href="#DejaVuSans-33" x="1069.775391"/>
     <use xlink:href="#DejaVuSans-33" x="1133.398438"/>
     <use xlink:href="#DejaVuSans-32" x="1197.021484"/>
     <use xlink:href="#DejaVuSans-39" x="1260.644531"/>
     <use xlink:href="#DejaVuSans-38" x="1324.267578"/>
     <use xlink:href="#DejaVuSans-36" x="1387.890625"/>
     <use xlink:href="#DejaVuSans-33" x="1451.513672"/>
    </g>
   </g>
   <g id="text_13">
    <!-- 14 -->
    <g style="fill: #262626" transform="translate(189.160594 303.597997)scale(0.1 -0.1)">
     <use xlink:href="#DejaVuSans-31"/>
     <use xlink:href="#DejaVuSans-34" x="63.623047"/>
    </g>
   </g>
   <g id="text_14">
    <!-- 34 -->
    <g style="fill: #262626" transform="translate(324.410656 303.597997)scale(0.1 -0.1)">
     <use xlink:href="#DejaVuSans-33"/>
     <use xlink:href="#DejaVuSans-34" x="63.623047"/>
    </g>
   </g>
   <g id="text_15">
    <!-- p=8.993507667037183e-08 -->
    <g style="fill: #262626" transform="translate(267.533781 91.129416)scale(0.08 -0.08)">
     <defs>
      <path id="DejaVuSans-35" d="M 691 4666 
L 3169 4666 
L 3169 4134 
L 1269 4134 
L 1269 2991 
Q 1406 3038 1543 3061 
Q 1681 3084 1819 3084 
Q 2600 3084 3056 2656 
Q 3513 2228 3513 1497 
Q 3513 744 3044 326 
Q 2575 -91 1722 -91 
Q 1428 -91 1123 -41 
Q 819 9 494 109 
L 494 744 
Q 775 591 1075 516 
Q 1375 441 1709 441 
Q 2250 441 2565 725 
Q 2881 1009 2881 1497 
Q 2881 1984 2565 2268 
Q 2250 2553 1709 2553 
Q 1456 2553 1204 2497 
Q 953 2441 691 2322 
L 691 4666 
z
" transform="scale(0.015625)"/>
      <path id="DejaVuSans-2d" d="M 313 2009 
L 1997 2009 
L 1997 1497 
L 313 1497 
L 313 2009 
z
" transform="scale(0.015625)"/>
     </defs>
     <use xlink:href="#DejaVuSans-70"/>
     <use xlink:href="#DejaVuSans-3d" x="63.476562"/>
     <use xlink:href="#DejaVuSans-38" x="147.265625"/>
     <use xlink:href="#DejaVuSans-2e" x="210.888672"/>
     <use xlink:href="#DejaVuSans-39" x="242.675781"/>
     <use xlink:href="#DejaVuSans-39" x="306.298828"/>
     <use xlink:href="#DejaVuSans-33" x="369.921875"/>
     <use xlink:href="#DejaVuSans-35" x="433.544922"/>
     <use xlink:href="#DejaVuSans-30" x="497.167969"/>
     <use xlink:href="#DejaVuSans-37" x="560.791016"/>
     <use xlink:href="#DejaVuSans-36" x="624.414062"/>
     <use xlink:href="#DejaVuSans-36" x="688.037109"/>
     <use xlink:href="#DejaVuSans-37" x="751.660156"/>
     <use xlink:href="#DejaVuSans-30" x="815.283203"/>
     <use xlink:href="#DejaVuSans-33" x="878.90625"/>
     <use xlink:href="#DejaVuSans-37" x="942.529297"/>
     <use xlink:href="#DejaVuSans-31" x="1006.152344"/>
     <use xlink:href="#DejaVuSans-38" x="1069.775391"/>
     <use xlink:href="#DejaVuSans-33" x="1133.398438"/>
     <use xlink:href="#DejaVuSans-65" x="1197.021484"/>
     <use xlink:href="#DejaVuSans-2d" x="1258.544922"/>
     <use xlink:href="#DejaVuSans-30" x="1294.628906"/>
     <use xlink:href="#DejaVuSans-38" x="1358.251953"/>
    </g>
   </g>
   <g id="text_16">
    <!-- 17 -->
    <g style="fill: #262626" transform="translate(382.374969 303.597997)scale(0.1 -0.1)">
     <use xlink:href="#DejaVuSans-31"/>
     <use xlink:href="#DejaVuSans-37" x="63.623047"/>
    </g>
   </g>
   <g id="legend_1">
    <g id="patch_13">
     <path d="M 72.57125 27.398438 
L 92.57125 27.398438 
L 92.57125 20.398438 
L 72.57125 20.398438 
z
" style="fill: #ecf2ec; stroke: #262626; stroke-width: 0.75; stroke-linejoin: miter"/>
    </g>
    <g id="text_17">
     <!-- Mutant -->
     <g style="fill: #262626" transform="translate(100.57125 27.398438)scale(0.1 -0.1)">
      <defs>
       <path id="DejaVuSans-4d" d="M 628 4666 
L 1569 4666 
L 2759 1491 
L 3956 4666 
L 4897 4666 
L 4897 0 
L 4281 0 
L 4281 4097 
L 3078 897 
L 2444 897 
L 1241 4097 
L 1241 0 
L 628 0 
L 628 4666 
z
" transform="scale(0.015625)"/>
       <path id="DejaVuSans-61" d="M 2194 1759 
Q 1497 1759 1228 1600 
Q 959 1441 959 1056 
Q 959 750 1161 570 
Q 1363 391 1709 391 
Q 2188 391 2477 730 
Q 2766 1069 2766 1631 
L 2766 1759 
L 2194 1759 
z
M 3341 1997 
L 3341 0 
L 2766 0 
L 2766 531 
Q 2569 213 2275 61 
Q 1981 -91 1556 -91 
Q 1019 -91 701 211 
Q 384 513 384 1019 
Q 384 1609 779 1909 
Q 1175 2209 1959 2209 
L 2766 2209 
L 2766 2266 
Q 2766 2663 2505 2880 
Q 2244 3097 1772 3097 
Q 1472 3097 1187 3025 
Q 903 2953 641 2809 
L 641 3341 
Q 956 3463 1253 3523 
Q 1550 3584 1831 3584 
Q 2591 3584 2966 3190 
Q 3341 2797 3341 1997 
z
" transform="scale(0.015625)"/>
      </defs>
      <use xlink:href="#DejaVuSans-4d"/>
      <use xlink:href="#DejaVuSans-75" x="86.279297"/>
      <use xlink:href="#DejaVuSans-74" x="149.658203"/>
      <use xlink:href="#DejaVuSans-61" x="188.867188"/>
      <use xlink:href="#DejaVuSans-6e" x="250.146484"/>
      <use xlink:href="#DejaVuSans-74" x="313.525391"/>
     </g>
    </g>
    <g id="patch_14">
     <path d="M 72.57125 42.076563 
L 92.57125 42.076563 
L 92.57125 35.076563 
L 72.57125 35.076563 
z
" style="fill: #107010; stroke: #262626; stroke-width: 0.75; stroke-linejoin: miter"/>
    </g>
    <g id="text_18">
     <!-- WT -->
     <g style="fill: #262626" transform="translate(100.57125 42.076563)scale(0.1 -0.1)">
      <defs>
       <path id="DejaVuSans-57" d="M 213 4666 
L 850 4666 
L 1831 722 
L 2809 4666 
L 3519 4666 
L 4500 722 
L 5478 4666 
L 6119 4666 
L 4947 0 
L 4153 0 
L 3169 4050 
L 2175 0 
L 1381 0 
L 213 4666 
z
" transform="scale(0.015625)"/>
       <path id="DejaVuSans-54" d="M -19 4666 
L 3928 4666 
L 3928 4134 
L 2272 4134 
L 2272 0 
L 1638 0 
L 1638 4134 
L -19 4134 
L -19 4666 
z
" transform="scale(0.015625)"/>
      </defs>
      <use xlink:href="#DejaVuSans-57"/>
      <use xlink:href="#DejaVuSans-54" x="98.876953"/>
     </g>
    </g>
   </g>
  </g>
 </g>
 <defs>
  <clipPath id="p6a2d3970a5">
   <rect x="63.57125" y="10.8" width="386.42875" height="292.84"/>
  </clipPath>
 </defs>
</svg>
