<?xml version="1.0" encoding="utf-8" standalone="no"?>
<!DOCTYPE svg PUBLIC "-//W3C//DTD SVG 1.1//EN"
  "http://www.w3.org/Graphics/SVG/1.1/DTD/svg11.dtd">
<svg xmlns:xlink="http://www.w3.org/1999/xlink" width="460.8pt" height="345.6pt" viewBox="0 0 460.8 345.6" xmlns="http://www.w3.org/2000/svg" version="1.1">
 <metadata>
  <rdf:RDF xmlns:dc="http://purl.org/dc/elements/1.1/" xmlns:cc="http://creativecommons.org/ns#" xmlns:rdf="http://www.w3.org/1999/02/22-rdf-syntax-ns#">
   <cc:Work>
    <dc:type rdf:resource="http://purl.org/dc/dcmitype/StillImage"/>
    <dc:date>2024-06-12T17:54:26.159325</dc:date>
    <dc:format>image/svg+xml</dc:format>
    <dc:creator>
     <cc:Agent>
      <dc:title>Matplotlib v3.5.3, https://matplotlib.org/</dc:title>
     </cc:Agent>
    </dc:creator>
   </cc:Work>
  </rdf:RDF>
 </metadata>
 <defs>
  <style type="text/css">*{stroke-linejoin: round; stroke-linecap: butt}</style>
 </defs>
 <g id="figure_1">
  <g id="patch_1">
   <path d="M 0 345.6 
L 460.8 345.6 
L 460.8 0 
L 0 0 
z
" style="fill: #ffffff"/>
  </g>
  <g id="axes_1">
   <g id="patch_2">
    <path d="M 63.57125 303.64 
L 450 303.64 
L 450 10.8 
L 63.57125 10.8 
z
" style="fill: #ffffff"/>
   </g>
   <g id="matplotlib.axis_1">
    <g id="xtick_1">
     <g id="text_1">
      <!-- A -->
      <g style="fill: #262626" transform="translate(156.758125 318.238437)scale(0.1 -0.1)">
       <defs>
        <path id="DejaVuSans-41" d="M 2188 4044 
L 1331 1722 
L 3047 1722 
L 2188 4044 
z
M 1831 4666 
L 2547 4666 
L 4325 0 
L 3669 0 
L 3244 1197 
L 1141 1197 
L 716 0 
L 50 0 
L 1831 4666 
z
" transform="scale(0.015625)"/>
       </defs>
       <use xlink:href="#DejaVuSans-41"/>
      </g>
     </g>
    </g>
    <g id="xtick_2">
     <g id="text_2">
      <!-- T -->
      <g style="fill: #262626" transform="translate(350.338906 318.238437)scale(0.1 -0.1)">
       <defs>
        <path id="DejaVuSans-54" d="M -19 4666 
L 3928 4666 
L 3928 4134 
L 2272 4134 
L 2272 0 
L 1638 0 
L 1638 4134 
L -19 4134 
L -19 4666 
z
" transform="scale(0.015625)"/>
       </defs>
       <use xlink:href="#DejaVuSans-54"/>
      </g>
     </g>
    </g>
    <g id="text_3">
     <!-- WT_AA -->
     <g style="fill: #262626" transform="translate(239.309844 331.638437)scale(0.1 -0.1)">
      <defs>
       <path id="DejaVuSans-57" d="M 213 4666 
L 850 4666 
L 1831 722 
L 2809 4666 
L 3519 4666 
L 4500 722 
L 5478 4666 
L 6119 4666 
L 4947 0 
L 4153 0 
L 3169 4050 
L 2175 0 
L 1381 0 
L 213 4666 
z
" transform="scale(0.015625)"/>
       <path id="DejaVuSans-5f" d="M 3263 -1063 
L 3263 -1509 
L -63 -1509 
L -63 -1063 
L 3263 -1063 
z
" transform="scale(0.015625)"/>
      </defs>
      <use xlink:href="#DejaVuSans-57"/>
      <use xlink:href="#DejaVuSans-54" x="98.876953"/>
      <use xlink:href="#DejaVuSans-5f" x="159.960938"/>
      <use xlink:href="#DejaVuSans-41" x="209.960938"/>
      <use xlink:href="#DejaVuSans-41" x="281.119141"/>
     </g>
    </g>
   </g>
   <g id="matplotlib.axis_2">
    <g id="ytick_1">
     <g id="line2d_1">
      <path d="M 63.57125 303.64 
L 450 303.64 
" clip-path="url(#pa3a1e68f36)" style="fill: none; stroke: #cccccc; stroke-width: 0.8; stroke-linecap: round"/>
     </g>
     <g id="text_4">
      <!-- 0.0 -->
      <g style="fill: #262626" transform="translate(40.668125 307.439219)scale(0.1 -0.1)">
       <defs>
        <path id="DejaVuSans-30" d="M 2034 4250 
Q 1547 4250 1301 3770 
Q 1056 3291 1056 2328 
Q 1056 1369 1301 889 
Q 1547 409 2034 409 
Q 2525 409 2770 889 
Q 3016 1369 3016 2328 
Q 3016 3291 2770 3770 
Q 2525 4250 2034 4250 
z
M 2034 4750 
Q 2819 4750 3233 4129 
Q 3647 3509 3647 2328 
Q 3647 1150 3233 529 
Q 2819 -91 2034 -91 
Q 1250 -91 836 529 
Q 422 1150 422 2328 
Q 422 3509 836 4129 
Q 1250 4750 2034 4750 
z
" transform="scale(0.015625)"/>
        <path id="DejaVuSans-2e" d="M 684 794 
L 1344 794 
L 1344 0 
L 684 0 
L 684 794 
z
" transform="scale(0.015625)"/>
       </defs>
       <use xlink:href="#DejaVuSans-30"/>
       <use xlink:href="#DejaVuSans-2e" x="63.623047"/>
       <use xlink:href="#DejaVuSans-30" x="95.410156"/>
      </g>
     </g>
    </g>
    <g id="ytick_2">
     <g id="line2d_2">
      <path d="M 63.57125 245.253509 
L 450 245.253509 
" clip-path="url(#pa3a1e68f36)" style="fill: none; stroke: #cccccc; stroke-width: 0.8; stroke-linecap: round"/>
     </g>
     <g id="text_5">
      <!-- 0.1 -->
      <g style="fill: #262626" transform="translate(40.668125 249.052728)scale(0.1 -0.1)">
       <defs>
        <path id="DejaVuSans-31" d="M 794 531 
L 1825 531 
L 1825 4091 
L 703 3866 
L 703 4441 
L 1819 4666 
L 2450 4666 
L 2450 531 
L 3481 531 
L 3481 0 
L 794 0 
L 794 531 
z
" transform="scale(0.015625)"/>
       </defs>
       <use xlink:href="#DejaVuSans-30"/>
       <use xlink:href="#DejaVuSans-2e" x="63.623047"/>
       <use xlink:href="#DejaVuSans-31" x="95.410156"/>
      </g>
     </g>
    </g>
    <g id="ytick_3">
     <g id="line2d_3">
      <path d="M 63.57125 186.867019 
L 450 186.867019 
" clip-path="url(#pa3a1e68f36)" style="fill: none; stroke: #cccccc; stroke-width: 0.8; stroke-linecap: round"/>
     </g>
     <g id="text_6">
      <!-- 0.2 -->
      <g style="fill: #262626" transform="translate(40.668125 190.666237)scale(0.1 -0.1)">
       <defs>
        <path id="DejaVuSans-32" d="M 1228 531 
L 3431 531 
L 3431 0 
L 469 0 
L 469 531 
Q 828 903 1448 1529 
Q 2069 2156 2228 2338 
Q 2531 2678 2651 2914 
Q 2772 3150 2772 3378 
Q 2772 3750 2511 3984 
Q 2250 4219 1831 4219 
Q 1534 4219 1204 4116 
Q 875 4013 500 3803 
L 500 4441 
Q 881 4594 1212 4672 
Q 1544 4750 1819 4750 
Q 2544 4750 2975 4387 
Q 3406 4025 3406 3419 
Q 3406 3131 3298 2873 
Q 3191 2616 2906 2266 
Q 2828 2175 2409 1742 
Q 1991 1309 1228 531 
z
" transform="scale(0.015625)"/>
       </defs>
       <use xlink:href="#DejaVuSans-30"/>
       <use xlink:href="#DejaVuSans-2e" x="63.623047"/>
       <use xlink:href="#DejaVuSans-32" x="95.410156"/>
      </g>
     </g>
    </g>
    <g id="ytick_4">
     <g id="line2d_4">
      <path d="M 63.57125 128.480528 
L 450 128.480528 
" clip-path="url(#pa3a1e68f36)" style="fill: none; stroke: #cccccc; stroke-width: 0.8; stroke-linecap: round"/>
     </g>
     <g id="text_7">
      <!-- 0.3 -->
      <g style="fill: #262626" transform="translate(40.668125 132.279747)scale(0.1 -0.1)">
       <defs>
        <path id="DejaVuSans-33" d="M 2597 2516 
Q 3050 2419 3304 2112 
Q 3559 1806 3559 1356 
Q 3559 666 3084 287 
Q 2609 -91 1734 -91 
Q 1441 -91 1130 -33 
Q 819 25 488 141 
L 488 750 
Q 750 597 1062 519 
Q 1375 441 1716 441 
Q 2309 441 2620 675 
Q 2931 909 2931 1356 
Q 2931 1769 2642 2001 
Q 2353 2234 1838 2234 
L 1294 2234 
L 1294 2753 
L 1863 2753 
Q 2328 2753 2575 2939 
Q 2822 3125 2822 3475 
Q 2822 3834 2567 4026 
Q 2313 4219 1838 4219 
Q 1578 4219 1281 4162 
Q 984 4106 628 3988 
L 628 4550 
Q 988 4650 1302 4700 
Q 1616 4750 1894 4750 
Q 2613 4750 3031 4423 
Q 3450 4097 3450 3541 
Q 3450 3153 3228 2886 
Q 3006 2619 2597 2516 
z
" transform="scale(0.015625)"/>
       </defs>
       <use xlink:href="#DejaVuSans-30"/>
       <use xlink:href="#DejaVuSans-2e" x="63.623047"/>
       <use xlink:href="#DejaVuSans-33" x="95.410156"/>
      </g>
     </g>
    </g>
    <g id="ytick_5">
     <g id="line2d_5">
      <path d="M 63.57125 70.094037 
L 450 70.094037 
" clip-path="url(#pa3a1e68f36)" style="fill: none; stroke: #cccccc; stroke-width: 0.8; stroke-linecap: round"/>
     </g>
     <g id="text_8">
      <!-- 0.4 -->
      <g style="fill: #262626" transform="translate(40.668125 73.893256)scale(0.1 -0.1)">
       <defs>
        <path id="DejaVuSans-34" d="M 2419 4116 
L 825 1625 
L 2419 1625 
L 2419 4116 
z
M 2253 4666 
L 3047 4666 
L 3047 1625 
L 3713 1625 
L 3713 1100 
L 3047 1100 
L 3047 0 
L 2419 0 
L 2419 1100 
L 313 1100 
L 313 1709 
L 2253 4666 
z
" transform="scale(0.015625)"/>
       </defs>
       <use xlink:href="#DejaVuSans-30"/>
       <use xlink:href="#DejaVuSans-2e" x="63.623047"/>
       <use xlink:href="#DejaVuSans-34" x="95.410156"/>
      </g>
     </g>
    </g>
    <g id="ytick_6">
     <g id="line2d_6">
      <path d="M 63.57125 11.707547 
L 450 11.707547 
" clip-path="url(#pa3a1e68f36)" style="fill: none; stroke: #cccccc; stroke-width: 0.8; stroke-linecap: round"/>
     </g>
     <g id="text_9">
      <!-- 0.5 -->
      <g style="fill: #262626" transform="translate(40.668125 15.506765)scale(0.1 -0.1)">
       <defs>
        <path id="DejaVuSans-35" d="M 691 4666 
L 3169 4666 
L 3169 4134 
L 1269 4134 
L 1269 2991 
Q 1406 3038 1543 3061 
Q 1681 3084 1819 3084 
Q 2600 3084 3056 2656 
Q 3513 2228 3513 1497 
Q 3513 744 3044 326 
Q 2575 -91 1722 -91 
Q 1428 -91 1123 -41 
Q 819 9 494 109 
L 494 744 
Q 775 591 1075 516 
Q 1375 441 1709 441 
Q 2250 441 2565 725 
Q 2881 1009 2881 1497 
Q 2881 1984 2565 2268 
Q 2250 2553 1709 2553 
Q 1456 2553 1204 2497 
Q 953 2441 691 2322 
L 691 4666 
z
" transform="scale(0.015625)"/>
       </defs>
       <use xlink:href="#DejaVuSans-30"/>
       <use xlink:href="#DejaVuSans-2e" x="63.623047"/>
       <use xlink:href="#DejaVuSans-35" x="95.410156"/>
      </g>
     </g>
    </g>
    <g id="text_10">
     <!-- PercentGpA -->
     <g style="fill: #262626" transform="translate(34.588438 186.496563)rotate(-90)scale(0.1 -0.1)">
      <defs>
       <path id="DejaVuSans-50" d="M 1259 4147 
L 1259 2394 
L 2053 2394 
Q 2494 2394 2734 2622 
Q 2975 2850 2975 3272 
Q 2975 3691 2734 3919 
Q 2494 4147 2053 4147 
L 1259 4147 
z
M 628 4666 
L 2053 4666 
Q 2838 4666 3239 4311 
Q 3641 3956 3641 3272 
Q 3641 2581 3239 2228 
Q 2838 1875 2053 1875 
L 1259 1875 
L 1259 0 
L 628 0 
L 628 4666 
z
" transform="scale(0.015625)"/>
       <path id="DejaVuSans-65" d="M 3597 1894 
L 3597 1613 
L 953 1613 
Q 991 1019 1311 708 
Q 1631 397 2203 397 
Q 2534 397 2845 478 
Q 3156 559 3463 722 
L 3463 178 
Q 3153 47 2828 -22 
Q 2503 -91 2169 -91 
Q 1331 -91 842 396 
Q 353 884 353 1716 
Q 353 2575 817 3079 
Q 1281 3584 2069 3584 
Q 2775 3584 3186 3129 
Q 3597 2675 3597 1894 
z
M 3022 2063 
Q 3016 2534 2758 2815 
Q 2500 3097 2075 3097 
Q 1594 3097 1305 2825 
Q 1016 2553 972 2059 
L 3022 2063 
z
" transform="scale(0.015625)"/>
       <path id="DejaVuSans-72" d="M 2631 2963 
Q 2534 3019 2420 3045 
Q 2306 3072 2169 3072 
Q 1681 3072 1420 2755 
Q 1159 2438 1159 1844 
L 1159 0 
L 581 0 
L 581 3500 
L 1159 3500 
L 1159 2956 
Q 1341 3275 1631 3429 
Q 1922 3584 2338 3584 
Q 2397 3584 2469 3576 
Q 2541 3569 2628 3553 
L 2631 2963 
z
" transform="scale(0.015625)"/>
       <path id="DejaVuSans-63" d="M 3122 3366 
L 3122 2828 
Q 2878 2963 2633 3030 
Q 2388 3097 2138 3097 
Q 1578 3097 1268 2742 
Q 959 2388 959 1747 
Q 959 1106 1268 751 
Q 1578 397 2138 397 
Q 2388 397 2633 464 
Q 2878 531 3122 666 
L 3122 134 
Q 2881 22 2623 -34 
Q 2366 -91 2075 -91 
Q 1284 -91 818 406 
Q 353 903 353 1747 
Q 353 2603 823 3093 
Q 1294 3584 2113 3584 
Q 2378 3584 2631 3529 
Q 2884 3475 3122 3366 
z
" transform="scale(0.015625)"/>
       <path id="DejaVuSans-6e" d="M 3513 2113 
L 3513 0 
L 2938 0 
L 2938 2094 
Q 2938 2591 2744 2837 
Q 2550 3084 2163 3084 
Q 1697 3084 1428 2787 
Q 1159 2491 1159 1978 
L 1159 0 
L 581 0 
L 581 3500 
L 1159 3500 
L 1159 2956 
Q 1366 3272 1645 3428 
Q 1925 3584 2291 3584 
Q 2894 3584 3203 3211 
Q 3513 2838 3513 2113 
z
" transform="scale(0.015625)"/>
       <path id="DejaVuSans-74" d="M 1172 4494 
L 1172 3500 
L 2356 3500 
L 2356 3053 
L 1172 3053 
L 1172 1153 
Q 1172 725 1289 603 
Q 1406 481 1766 481 
L 2356 481 
L 2356 0 
L 1766 0 
Q 1100 0 847 248 
Q 594 497 594 1153 
L 594 3053 
L 172 3053 
L 172 3500 
L 594 3500 
L 594 4494 
L 1172 4494 
z
" transform="scale(0.015625)"/>
       <path id="DejaVuSans-47" d="M 3809 666 
L 3809 1919 
L 2778 1919 
L 2778 2438 
L 4434 2438 
L 4434 434 
Q 4069 175 3628 42 
Q 3188 -91 2688 -91 
Q 1594 -91 976 548 
Q 359 1188 359 2328 
Q 359 3472 976 4111 
Q 1594 4750 2688 4750 
Q 3144 4750 3555 4637 
Q 3966 4525 4313 4306 
L 4313 3634 
Q 3963 3931 3569 4081 
Q 3175 4231 2741 4231 
Q 1884 4231 1454 3753 
Q 1025 3275 1025 2328 
Q 1025 1384 1454 906 
Q 1884 428 2741 428 
Q 3075 428 3337 486 
Q 3600 544 3809 666 
z
" transform="scale(0.015625)"/>
       <path id="DejaVuSans-70" d="M 1159 525 
L 1159 -1331 
L 581 -1331 
L 581 3500 
L 1159 3500 
L 1159 2969 
Q 1341 3281 1617 3432 
Q 1894 3584 2278 3584 
Q 2916 3584 3314 3078 
Q 3713 2572 3713 1747 
Q 3713 922 3314 415 
Q 2916 -91 2278 -91 
Q 1894 -91 1617 61 
Q 1341 213 1159 525 
z
M 3116 1747 
Q 3116 2381 2855 2742 
Q 2594 3103 2138 3103 
Q 1681 3103 1420 2742 
Q 1159 2381 1159 1747 
Q 1159 1113 1420 752 
Q 1681 391 2138 391 
Q 2594 391 2855 752 
Q 3116 1113 3116 1747 
z
" transform="scale(0.015625)"/>
      </defs>
      <use xlink:href="#DejaVuSans-50"/>
      <use xlink:href="#DejaVuSans-65" x="56.677734"/>
      <use xlink:href="#DejaVuSans-72" x="118.201172"/>
      <use xlink:href="#DejaVuSans-63" x="157.064453"/>
      <use xlink:href="#DejaVuSans-65" x="212.044922"/>
      <use xlink:href="#DejaVuSans-6e" x="273.568359"/>
      <use xlink:href="#DejaVuSans-74" x="336.947266"/>
      <use xlink:href="#DejaVuSans-47" x="376.15625"/>
      <use xlink:href="#DejaVuSans-70" x="453.646484"/>
      <use xlink:href="#DejaVuSans-41" x="517.123047"/>
     </g>
    </g>
   </g>
   <g id="patch_3">
    <path d="M 83.665545 212.794032 
L 159.40558 212.794032 
L 159.40558 176.641409 
L 83.665545 176.641409 
L 83.665545 212.794032 
z
" clip-path="url(#pa3a1e68f36)" style="fill: #ecf2ec; stroke: #262626; stroke-width: 1.5; stroke-linejoin: miter"/>
   </g>
   <g id="patch_4">
    <path d="M 160.951295 161.898992 
L 236.69133 161.898992 
L 236.69133 119.508982 
L 160.951295 119.508982 
L 160.951295 161.898992 
z
" clip-path="url(#pa3a1e68f36)" style="fill: #107010; stroke: #262626; stroke-width: 1.5; stroke-linejoin: miter"/>
   </g>
   <g id="patch_5">
    <path d="M 276.87992 212.851358 
L 352.619955 212.851358 
L 352.619955 176.312646 
L 276.87992 176.312646 
L 276.87992 212.851358 
z
" clip-path="url(#pa3a1e68f36)" style="fill: #ecf2ec; stroke: #262626; stroke-width: 1.5; stroke-linejoin: miter"/>
   </g>
   <g id="patch_6">
    <path d="M 354.16567 170.468788 
L 429.905705 170.468788 
L 429.905705 127.249468 
L 354.16567 127.249468 
L 354.16567 170.468788 
z
" clip-path="url(#pa3a1e68f36)" style="fill: #107010; stroke: #262626; stroke-width: 1.5; stroke-linejoin: miter"/>
   </g>
   <g id="patch_7">
    <path d="M 160.178438 303.64 
L 160.178438 303.64 
L 160.178438 303.64 
L 160.178438 303.64 
z
" clip-path="url(#pa3a1e68f36)" style="fill: #ecf2ec; stroke: #262626; stroke-width: 0.75; stroke-linejoin: miter"/>
   </g>
   <g id="patch_8">
    <path d="M 160.178438 303.64 
L 160.178438 303.64 
L 160.178438 303.64 
L 160.178438 303.64 
z
" clip-path="url(#pa3a1e68f36)" style="fill: #107010; stroke: #262626; stroke-width: 0.75; stroke-linejoin: miter"/>
   </g>
   <g id="PathCollection_1"/>
   <g id="PathCollection_2"/>
   <g id="line2d_7">
    <path d="M 121.535562 212.794032 
L 121.535562 249.101123 
" clip-path="url(#pa3a1e68f36)" style="fill: none; stroke: #262626; stroke-width: 1.5; stroke-linecap: round"/>
   </g>
   <g id="line2d_8">
    <path d="M 121.535562 176.641409 
L 121.535562 159.618803 
" clip-path="url(#pa3a1e68f36)" style="fill: none; stroke: #262626; stroke-width: 1.5; stroke-linecap: round"/>
   </g>
   <g id="line2d_9">
    <path d="M 102.600554 249.101123 
L 140.470571 249.101123 
" clip-path="url(#pa3a1e68f36)" style="fill: none; stroke: #262626; stroke-width: 1.5; stroke-linecap: round"/>
   </g>
   <g id="line2d_10">
    <path d="M 102.600554 159.618803 
L 140.470571 159.618803 
" clip-path="url(#pa3a1e68f36)" style="fill: none; stroke: #262626; stroke-width: 1.5; stroke-linecap: round"/>
   </g>
   <g id="line2d_11"/>
   <g id="line2d_12">
    <path d="M 198.821313 161.898992 
L 198.821313 222.591315 
" clip-path="url(#pa3a1e68f36)" style="fill: none; stroke: #262626; stroke-width: 1.5; stroke-linecap: round"/>
   </g>
   <g id="line2d_13">
    <path d="M 198.821313 119.508982 
L 198.821313 76.129048 
" clip-path="url(#pa3a1e68f36)" style="fill: none; stroke: #262626; stroke-width: 1.5; stroke-linecap: round"/>
   </g>
   <g id="line2d_14">
    <path d="M 179.886304 222.591315 
L 217.756321 222.591315 
" clip-path="url(#pa3a1e68f36)" style="fill: none; stroke: #262626; stroke-width: 1.5; stroke-linecap: round"/>
   </g>
   <g id="line2d_15">
    <path d="M 179.886304 76.129048 
L 217.756321 76.129048 
" clip-path="url(#pa3a1e68f36)" style="fill: none; stroke: #262626; stroke-width: 1.5; stroke-linecap: round"/>
   </g>
   <g id="line2d_16">
    <defs>
     <path id="m4dc1ef2107" d="M -0 1.414214 
L 0.848528 0 
L 0 -1.414214 
L -0.848528 -0 
z
" style="stroke: #262626; stroke-linejoin: miter"/>
    </defs>
    <g clip-path="url(#pa3a1e68f36)">
     <use xlink:href="#m4dc1ef2107" x="198.821313" y="46.488943" style="fill: #262626; stroke: #262626; stroke-linejoin: miter"/>
     <use xlink:href="#m4dc1ef2107" x="198.821313" y="43.237364" style="fill: #262626; stroke: #262626; stroke-linejoin: miter"/>
    </g>
   </g>
   <g id="line2d_17">
    <path d="M 314.749937 212.851358 
L 314.749937 235.758767 
" clip-path="url(#pa3a1e68f36)" style="fill: none; stroke: #262626; stroke-width: 1.5; stroke-linecap: round"/>
   </g>
   <g id="line2d_18">
    <path d="M 314.749937 176.312646 
L 314.749937 130.848757 
" clip-path="url(#pa3a1e68f36)" style="fill: none; stroke: #262626; stroke-width: 1.5; stroke-linecap: round"/>
   </g>
   <g id="line2d_19">
    <path d="M 295.814929 235.758767 
L 333.684946 235.758767 
" clip-path="url(#pa3a1e68f36)" style="fill: none; stroke: #262626; stroke-width: 1.5; stroke-linecap: round"/>
   </g>
   <g id="line2d_20">
    <path d="M 295.814929 130.848757 
L 333.684946 130.848757 
" clip-path="url(#pa3a1e68f36)" style="fill: none; stroke: #262626; stroke-width: 1.5; stroke-linecap: round"/>
   </g>
   <g id="line2d_21">
    <g clip-path="url(#pa3a1e68f36)">
     <use xlink:href="#m4dc1ef2107" x="314.749937" y="268.83631" style="fill: #262626; stroke: #262626; stroke-linejoin: miter"/>
    </g>
   </g>
   <g id="line2d_22">
    <path d="M 392.035687 170.468788 
L 392.035687 202.948087 
" clip-path="url(#pa3a1e68f36)" style="fill: none; stroke: #262626; stroke-width: 1.5; stroke-linecap: round"/>
   </g>
   <g id="line2d_23">
    <path d="M 392.035687 127.249468 
L 392.035687 109.589356 
" clip-path="url(#pa3a1e68f36)" style="fill: none; stroke: #262626; stroke-width: 1.5; stroke-linecap: round"/>
   </g>
   <g id="line2d_24">
    <path d="M 373.100679 202.948087 
L 410.970696 202.948087 
" clip-path="url(#pa3a1e68f36)" style="fill: none; stroke: #262626; stroke-width: 1.5; stroke-linecap: round"/>
   </g>
   <g id="line2d_25">
    <path d="M 373.100679 109.589356 
L 410.970696 109.589356 
" clip-path="url(#pa3a1e68f36)" style="fill: none; stroke: #262626; stroke-width: 1.5; stroke-linecap: round"/>
   </g>
   <g id="line2d_26">
    <g clip-path="url(#pa3a1e68f36)">
     <use xlink:href="#m4dc1ef2107" x="392.035687" y="37.421818" style="fill: #262626; stroke: #262626; stroke-linejoin: miter"/>
    </g>
   </g>
   <g id="line2d_27">
    <path d="M 83.665545 195.858614 
L 159.40558 195.858614 
" clip-path="url(#pa3a1e68f36)" style="fill: none; stroke: #262626; stroke-width: 1.5; stroke-linecap: round"/>
   </g>
   <g id="line2d_28">
    <path d="M 160.951295 131.92146 
L 236.69133 131.92146 
" clip-path="url(#pa3a1e68f36)" style="fill: none; stroke: #262626; stroke-width: 1.5; stroke-linecap: round"/>
   </g>
   <g id="line2d_29">
    <path d="M 276.87992 198.510431 
L 352.619955 198.510431 
" clip-path="url(#pa3a1e68f36)" style="fill: none; stroke: #262626; stroke-width: 1.5; stroke-linecap: round"/>
   </g>
   <g id="line2d_30">
    <path d="M 354.16567 158.913678 
L 429.905705 158.913678 
" clip-path="url(#pa3a1e68f36)" style="fill: none; stroke: #262626; stroke-width: 1.5; stroke-linecap: round"/>
   </g>
   <g id="patch_9">
    <path d="M 63.57125 303.64 
L 63.57125 10.8 
" style="fill: none; stroke: #cccccc; stroke-width: 0.8; stroke-linejoin: miter; stroke-linecap: square"/>
   </g>
   <g id="patch_10">
    <path d="M 450 303.64 
L 450 10.8 
" style="fill: none; stroke: #cccccc; stroke-width: 0.8; stroke-linejoin: miter; stroke-linecap: square"/>
   </g>
   <g id="patch_11">
    <path d="M 63.57125 303.64 
L 450 303.64 
" style="fill: none; stroke: #cccccc; stroke-width: 0.8; stroke-linejoin: miter; stroke-linecap: square"/>
   </g>
   <g id="patch_12">
    <path d="M 63.57125 10.8 
L 450 10.8 
" style="fill: none; stroke: #cccccc; stroke-width: 0.8; stroke-linejoin: miter; stroke-linecap: square"/>
   </g>
   <g id="PathCollection_3">
    <defs>
     <path id="C0_0_9997f04066" d="M 0 1 
C 0.265203 1 0.51958 0.894634 0.707107 0.707107 
C 0.894634 0.51958 1 0.265203 1 -0 
C 1 -0.265203 0.894634 -0.51958 0.707107 -0.707107 
C 0.51958 -0.894634 0.265203 -1 0 -1 
C -0.265203 -1 -0.51958 -0.894634 -0.707107 -0.707107 
C -0.894634 -0.51958 -1 -0.265203 -1 0 
C -1 0.265203 -0.894634 0.51958 -0.707107 0.707107 
C -0.51958 0.894634 -0.265203 1 0 1 
z
"/>
    </defs>
    <g clip-path="url(#pa3a1e68f36)">
     <use xlink:href="#C0_0_9997f04066" x="112.667182" y="173.966226" style="fill: #262626"/>
    </g>
    <g clip-path="url(#pa3a1e68f36)">
     <use xlink:href="#C0_0_9997f04066" x="127.681658" y="202.025844" style="fill: #262626"/>
    </g>
    <g clip-path="url(#pa3a1e68f36)">
     <use xlink:href="#C0_0_9997f04066" x="126.668949" y="180.859602" style="fill: #262626"/>
    </g>
    <g clip-path="url(#pa3a1e68f36)">
     <use xlink:href="#C0_0_9997f04066" x="120.370889" y="166.476163" style="fill: #262626"/>
    </g>
    <g clip-path="url(#pa3a1e68f36)">
     <use xlink:href="#C0_0_9997f04066" x="123.498383" y="180.713032" style="fill: #262626"/>
    </g>
    <g clip-path="url(#pa3a1e68f36)">
     <use xlink:href="#C0_0_9997f04066" x="127.069196" y="187.558081" style="fill: #262626"/>
    </g>
    <g clip-path="url(#pa3a1e68f36)">
     <use xlink:href="#C0_0_9997f04066" x="126.923275" y="160.012492" style="fill: #262626"/>
    </g>
    <g clip-path="url(#pa3a1e68f36)">
     <use xlink:href="#C0_0_9997f04066" x="126.173986" y="208.056942" style="fill: #262626"/>
    </g>
    <g clip-path="url(#pa3a1e68f36)">
     <use xlink:href="#C0_0_9997f04066" x="115.566247" y="181.586618" style="fill: #262626"/>
    </g>
    <g clip-path="url(#pa3a1e68f36)">
     <use xlink:href="#C0_0_9997f04066" x="115.995981" y="248.287598" style="fill: #262626"/>
    </g>
    <g clip-path="url(#pa3a1e68f36)">
     <use xlink:href="#C0_0_9997f04066" x="119.62276" y="249.101123" style="fill: #262626"/>
    </g>
    <g clip-path="url(#pa3a1e68f36)">
     <use xlink:href="#C0_0_9997f04066" x="116.259838" y="202.710012" style="fill: #262626"/>
    </g>
    <g clip-path="url(#pa3a1e68f36)">
     <use xlink:href="#C0_0_9997f04066" x="125.554109" y="192.07784" style="fill: #262626"/>
    </g>
    <g clip-path="url(#pa3a1e68f36)">
     <use xlink:href="#C0_0_9997f04066" x="130.745162" y="213.199525" style="fill: #262626"/>
    </g>
    <g clip-path="url(#pa3a1e68f36)">
     <use xlink:href="#C0_0_9997f04066" x="119.222253" y="165.760914" style="fill: #262626"/>
    </g>
    <g clip-path="url(#pa3a1e68f36)">
     <use xlink:href="#C0_0_9997f04066" x="126.833271" y="238.58741" style="fill: #262626"/>
    </g>
    <g clip-path="url(#pa3a1e68f36)">
     <use xlink:href="#C0_0_9997f04066" x="129.057558" y="188.880077" style="fill: #262626"/>
    </g>
    <g clip-path="url(#pa3a1e68f36)">
     <use xlink:href="#C0_0_9997f04066" x="116.206213" y="159.618803" style="fill: #262626"/>
    </g>
    <g clip-path="url(#pa3a1e68f36)">
     <use xlink:href="#C0_0_9997f04066" x="123.826427" y="202.179987" style="fill: #262626"/>
    </g>
    <g clip-path="url(#pa3a1e68f36)">
     <use xlink:href="#C0_0_9997f04066" x="121.96917" y="174.396956" style="fill: #262626"/>
    </g>
    <g clip-path="url(#pa3a1e68f36)">
     <use xlink:href="#C0_0_9997f04066" x="120.923712" y="162.615907" style="fill: #262626"/>
    </g>
    <g clip-path="url(#pa3a1e68f36)">
     <use xlink:href="#C0_0_9997f04066" x="112.275433" y="196.798867" style="fill: #262626"/>
    </g>
    <g clip-path="url(#pa3a1e68f36)">
     <use xlink:href="#C0_0_9997f04066" x="119.280875" y="162.954252" style="fill: #262626"/>
    </g>
    <g clip-path="url(#pa3a1e68f36)">
     <use xlink:href="#C0_0_9997f04066" x="121.024425" y="190.0319" style="fill: #262626"/>
    </g>
    <g clip-path="url(#pa3a1e68f36)">
     <use xlink:href="#C0_0_9997f04066" x="119.94835" y="213.121411" style="fill: #262626"/>
    </g>
    <g clip-path="url(#pa3a1e68f36)">
     <use xlink:href="#C0_0_9997f04066" x="123.740016" y="179.496861" style="fill: #262626"/>
    </g>
    <g clip-path="url(#pa3a1e68f36)">
     <use xlink:href="#C0_0_9997f04066" x="121.495153" y="232.087544" style="fill: #262626"/>
    </g>
    <g clip-path="url(#pa3a1e68f36)">
     <use xlink:href="#C0_0_9997f04066" x="126.46174" y="195.864082" style="fill: #262626"/>
    </g>
    <g clip-path="url(#pa3a1e68f36)">
     <use xlink:href="#C0_0_9997f04066" x="129.429693" y="168.883642" style="fill: #262626"/>
    </g>
    <g clip-path="url(#pa3a1e68f36)">
     <use xlink:href="#C0_0_9997f04066" x="130.872915" y="175.95542" style="fill: #262626"/>
    </g>
    <g clip-path="url(#pa3a1e68f36)">
     <use xlink:href="#C0_0_9997f04066" x="128.79119" y="206.764527" style="fill: #262626"/>
    </g>
    <g clip-path="url(#pa3a1e68f36)">
     <use xlink:href="#C0_0_9997f04066" x="112.080171" y="167.832634" style="fill: #262626"/>
    </g>
    <g clip-path="url(#pa3a1e68f36)">
     <use xlink:href="#C0_0_9997f04066" x="114.924093" y="180.276131" style="fill: #262626"/>
    </g>
    <g clip-path="url(#pa3a1e68f36)">
     <use xlink:href="#C0_0_9997f04066" x="120.35941" y="229.850876" style="fill: #262626"/>
    </g>
    <g clip-path="url(#pa3a1e68f36)">
     <use xlink:href="#C0_0_9997f04066" x="115.199294" y="169.243801" style="fill: #262626"/>
    </g>
    <g clip-path="url(#pa3a1e68f36)">
     <use xlink:href="#C0_0_9997f04066" x="126.956132" y="170.099088" style="fill: #262626"/>
    </g>
    <g clip-path="url(#pa3a1e68f36)">
     <use xlink:href="#C0_0_9997f04066" x="114.93063" y="205.610826" style="fill: #262626"/>
    </g>
    <g clip-path="url(#pa3a1e68f36)">
     <use xlink:href="#C0_0_9997f04066" x="123.14839" y="214.86863" style="fill: #262626"/>
    </g>
    <g clip-path="url(#pa3a1e68f36)">
     <use xlink:href="#C0_0_9997f04066" x="126.453002" y="218.76347" style="fill: #262626"/>
    </g>
    <g clip-path="url(#pa3a1e68f36)">
     <use xlink:href="#C0_0_9997f04066" x="113.641854" y="181.766953" style="fill: #262626"/>
    </g>
    <g clip-path="url(#pa3a1e68f36)">
     <use xlink:href="#C0_0_9997f04066" x="130.524137" y="212.713994" style="fill: #262626"/>
    </g>
    <g clip-path="url(#pa3a1e68f36)">
     <use xlink:href="#C0_0_9997f04066" x="124.938433" y="212.874071" style="fill: #262626"/>
    </g>
    <g clip-path="url(#pa3a1e68f36)">
     <use xlink:href="#C0_0_9997f04066" x="123.765629" y="200.437114" style="fill: #262626"/>
    </g>
    <g clip-path="url(#pa3a1e68f36)">
     <use xlink:href="#C0_0_9997f04066" x="112.992346" y="204.807872" style="fill: #262626"/>
    </g>
    <g clip-path="url(#pa3a1e68f36)">
     <use xlink:href="#C0_0_9997f04066" x="112.892574" y="195.858614" style="fill: #262626"/>
    </g>
    <g clip-path="url(#pa3a1e68f36)">
     <use xlink:href="#C0_0_9997f04066" x="118.842457" y="177.327399" style="fill: #262626"/>
    </g>
    <g clip-path="url(#pa3a1e68f36)">
     <use xlink:href="#C0_0_9997f04066" x="130.943787" y="237.562707" style="fill: #262626"/>
    </g>
    <g clip-path="url(#pa3a1e68f36)">
     <use xlink:href="#C0_0_9997f04066" x="130.607501" y="216.688563" style="fill: #262626"/>
    </g>
    <g clip-path="url(#pa3a1e68f36)">
     <use xlink:href="#C0_0_9997f04066" x="118.732879" y="201.606964" style="fill: #262626"/>
    </g>
    <g clip-path="url(#pa3a1e68f36)">
     <use xlink:href="#C0_0_9997f04066" x="114.690321" y="193.666688" style="fill: #262626"/>
    </g>
    <g clip-path="url(#pa3a1e68f36)">
     <use xlink:href="#C0_0_9997f04066" x="116.006231" y="235.961068" style="fill: #262626"/>
    </g>
   </g>
   <g id="PathCollection_4">
    <defs>
     <path id="C1_0_83d432a861" d="M 0 1 
C 0.265203 1 0.51958 0.894634 0.707107 0.707107 
C 0.894634 0.51958 1 0.265203 1 -0 
C 1 -0.265203 0.894634 -0.51958 0.707107 -0.707107 
C 0.51958 -0.894634 0.265203 -1 0 -1 
C -0.265203 -1 -0.51958 -0.894634 -0.707107 -0.707107 
C -0.894634 -0.51958 -1 -0.265203 -1 0 
C -1 0.265203 -0.894634 0.51958 -0.707107 0.707107 
C -0.51958 0.894634 -0.265203 1 0 1 
z
"/>
    </defs>
    <g clip-path="url(#pa3a1e68f36)">
     <use xlink:href="#C1_0_83d432a861" x="201.722498" y="163.585499"/>
    </g>
    <g clip-path="url(#pa3a1e68f36)">
     <use xlink:href="#C1_0_83d432a861" x="196.668744" y="123.63536"/>
    </g>
    <g clip-path="url(#pa3a1e68f36)">
     <use xlink:href="#C1_0_83d432a861" x="205.752798" y="95.320478"/>
    </g>
    <g clip-path="url(#pa3a1e68f36)">
     <use xlink:href="#C1_0_83d432a861" x="205.377239" y="145.947177"/>
    </g>
    <g clip-path="url(#pa3a1e68f36)">
     <use xlink:href="#C1_0_83d432a861" x="196.856775" y="222.591315"/>
    </g>
    <g clip-path="url(#pa3a1e68f36)">
     <use xlink:href="#C1_0_83d432a861" x="194.477264" y="119.429736"/>
    </g>
    <g clip-path="url(#pa3a1e68f36)">
     <use xlink:href="#C1_0_83d432a861" x="189.946617" y="119.746722"/>
    </g>
    <g clip-path="url(#pa3a1e68f36)">
     <use xlink:href="#C1_0_83d432a861" x="193.29068" y="140.840931"/>
    </g>
    <g clip-path="url(#pa3a1e68f36)">
     <use xlink:href="#C1_0_83d432a861" x="207.653706" y="164.941704"/>
    </g>
    <g clip-path="url(#pa3a1e68f36)">
     <use xlink:href="#C1_0_83d432a861" x="203.233254" y="46.488943"/>
    </g>
    <g clip-path="url(#pa3a1e68f36)">
     <use xlink:href="#C1_0_83d432a861" x="203.415666" y="114.864935"/>
    </g>
    <g clip-path="url(#pa3a1e68f36)">
     <use xlink:href="#C1_0_83d432a861" x="202.778516" y="177.126678"/>
    </g>
    <g clip-path="url(#pa3a1e68f36)">
     <use xlink:href="#C1_0_83d432a861" x="201.78437" y="129.038247"/>
    </g>
    <g clip-path="url(#pa3a1e68f36)">
     <use xlink:href="#C1_0_83d432a861" x="192.704933" y="132.314044"/>
    </g>
    <g clip-path="url(#pa3a1e68f36)">
     <use xlink:href="#C1_0_83d432a861" x="191.330055" y="148.425053"/>
    </g>
    <g clip-path="url(#pa3a1e68f36)">
     <use xlink:href="#C1_0_83d432a861" x="206.626373" y="118.29666"/>
    </g>
    <g clip-path="url(#pa3a1e68f36)">
     <use xlink:href="#C1_0_83d432a861" x="206.916352" y="43.237364"/>
    </g>
    <g clip-path="url(#pa3a1e68f36)">
     <use xlink:href="#C1_0_83d432a861" x="197.406715" y="131.528876"/>
    </g>
    <g clip-path="url(#pa3a1e68f36)">
     <use xlink:href="#C1_0_83d432a861" x="195.88431" y="127.198596"/>
    </g>
    <g clip-path="url(#pa3a1e68f36)">
     <use xlink:href="#C1_0_83d432a861" x="208.31348" y="156.839468"/>
    </g>
    <g clip-path="url(#pa3a1e68f36)">
     <use xlink:href="#C1_0_83d432a861" x="201.324731" y="126.406152"/>
    </g>
    <g clip-path="url(#pa3a1e68f36)">
     <use xlink:href="#C1_0_83d432a861" x="208.305961" y="136.651544"/>
    </g>
    <g clip-path="url(#pa3a1e68f36)">
     <use xlink:href="#C1_0_83d432a861" x="191.49331" y="178.725365"/>
    </g>
    <g clip-path="url(#pa3a1e68f36)">
     <use xlink:href="#C1_0_83d432a861" x="189.358467" y="76.129048"/>
    </g>
    <g clip-path="url(#pa3a1e68f36)">
     <use xlink:href="#C1_0_83d432a861" x="198.044012" y="191.237703"/>
    </g>
    <g clip-path="url(#pa3a1e68f36)">
     <use xlink:href="#C1_0_83d432a861" x="204.847463" y="201.800358"/>
    </g>
   </g>
   <g id="PathCollection_5">
    <defs>
     <path id="C2_0_cb015c99a9" d="M 0 1 
C 0.265203 1 0.51958 0.894634 0.707107 0.707107 
C 0.894634 0.51958 1 0.265203 1 -0 
C 1 -0.265203 0.894634 -0.51958 0.707107 -0.707107 
C 0.51958 -0.894634 0.265203 -1 0 -1 
C -0.265203 -1 -0.51958 -0.894634 -0.707107 -0.707107 
C -0.894634 -0.51958 -1 -0.265203 -1 0 
C -1 0.265203 -0.894634 0.51958 -0.707107 0.707107 
C -0.51958 0.894634 -0.265203 1 0 1 
z
"/>
    </defs>
    <g clip-path="url(#pa3a1e68f36)">
     <use xlink:href="#C2_0_cb015c99a9" x="323.419202" y="202.842075" style="fill: #262626"/>
    </g>
    <g clip-path="url(#pa3a1e68f36)">
     <use xlink:href="#C2_0_cb015c99a9" x="318.124513" y="212.392309" style="fill: #262626"/>
    </g>
    <g clip-path="url(#pa3a1e68f36)">
     <use xlink:href="#C2_0_cb015c99a9" x="316.099141" y="227.05239" style="fill: #262626"/>
    </g>
    <g clip-path="url(#pa3a1e68f36)">
     <use xlink:href="#C2_0_cb015c99a9" x="316.652707" y="224.704888" style="fill: #262626"/>
    </g>
    <g clip-path="url(#pa3a1e68f36)">
     <use xlink:href="#C2_0_cb015c99a9" x="320.93638" y="204.199733" style="fill: #262626"/>
    </g>
    <g clip-path="url(#pa3a1e68f36)">
     <use xlink:href="#C2_0_cb015c99a9" x="314.100535" y="211.377448" style="fill: #262626"/>
    </g>
    <g clip-path="url(#pa3a1e68f36)">
     <use xlink:href="#C2_0_cb015c99a9" x="316.67194" y="173.053509" style="fill: #262626"/>
    </g>
    <g clip-path="url(#pa3a1e68f36)">
     <use xlink:href="#C2_0_cb015c99a9" x="309.779599" y="197.428111" style="fill: #262626"/>
    </g>
    <g clip-path="url(#pa3a1e68f36)">
     <use xlink:href="#C2_0_cb015c99a9" x="315.192695" y="215.108469" style="fill: #262626"/>
    </g>
    <g clip-path="url(#pa3a1e68f36)">
     <use xlink:href="#C2_0_cb015c99a9" x="318.810327" y="177.599553" style="fill: #262626"/>
    </g>
    <g clip-path="url(#pa3a1e68f36)">
     <use xlink:href="#C2_0_cb015c99a9" x="320.515826" y="190.859517" style="fill: #262626"/>
    </g>
    <g clip-path="url(#pa3a1e68f36)">
     <use xlink:href="#C2_0_cb015c99a9" x="305.717391" y="130.848757" style="fill: #262626"/>
    </g>
    <g clip-path="url(#pa3a1e68f36)">
     <use xlink:href="#C2_0_cb015c99a9" x="321.426551" y="184.4579" style="fill: #262626"/>
    </g>
    <g clip-path="url(#pa3a1e68f36)">
     <use xlink:href="#C2_0_cb015c99a9" x="308.301853" y="268.83631" style="fill: #262626"/>
    </g>
    <g clip-path="url(#pa3a1e68f36)">
     <use xlink:href="#C2_0_cb015c99a9" x="305.752756" y="211.788262" style="fill: #262626"/>
    </g>
    <g clip-path="url(#pa3a1e68f36)">
     <use xlink:href="#C2_0_cb015c99a9" x="308.677665" y="228.095032" style="fill: #262626"/>
    </g>
    <g clip-path="url(#pa3a1e68f36)">
     <use xlink:href="#C2_0_cb015c99a9" x="321.546365" y="175.4412" style="fill: #262626"/>
    </g>
    <g clip-path="url(#pa3a1e68f36)">
     <use xlink:href="#C2_0_cb015c99a9" x="308.381609" y="178.762478" style="fill: #262626"/>
    </g>
    <g clip-path="url(#pa3a1e68f36)">
     <use xlink:href="#C2_0_cb015c99a9" x="314.828746" y="165.823574" style="fill: #262626"/>
    </g>
    <g clip-path="url(#pa3a1e68f36)">
     <use xlink:href="#C2_0_cb015c99a9" x="319.396688" y="209.542969" style="fill: #262626"/>
    </g>
    <g clip-path="url(#pa3a1e68f36)">
     <use xlink:href="#C2_0_cb015c99a9" x="310.055473" y="199.592751" style="fill: #262626"/>
    </g>
    <g clip-path="url(#pa3a1e68f36)">
     <use xlink:href="#C2_0_cb015c99a9" x="306.48262" y="178.250613" style="fill: #262626"/>
    </g>
    <g clip-path="url(#pa3a1e68f36)">
     <use xlink:href="#C2_0_cb015c99a9" x="322.478626" y="160.542873" style="fill: #262626"/>
    </g>
    <g clip-path="url(#pa3a1e68f36)">
     <use xlink:href="#C2_0_cb015c99a9" x="316.562053" y="175.883678" style="fill: #262626"/>
    </g>
    <g clip-path="url(#pa3a1e68f36)">
     <use xlink:href="#C2_0_cb015c99a9" x="311.449631" y="174.997169" style="fill: #262626"/>
    </g>
    <g clip-path="url(#pa3a1e68f36)">
     <use xlink:href="#C2_0_cb015c99a9" x="322.079143" y="213.004375" style="fill: #262626"/>
    </g>
    <g clip-path="url(#pa3a1e68f36)">
     <use xlink:href="#C2_0_cb015c99a9" x="315.440444" y="231.981989" style="fill: #262626"/>
    </g>
    <g clip-path="url(#pa3a1e68f36)">
     <use xlink:href="#C2_0_cb015c99a9" x="310.530989" y="185.453247" style="fill: #262626"/>
    </g>
    <g clip-path="url(#pa3a1e68f36)">
     <use xlink:href="#C2_0_cb015c99a9" x="315.007524" y="235.758767" style="fill: #262626"/>
    </g>
    <g clip-path="url(#pa3a1e68f36)">
     <use xlink:href="#C2_0_cb015c99a9" x="312.943617" y="170.421941" style="fill: #262626"/>
    </g>
   </g>
   <g id="PathCollection_6">
    <defs>
     <path id="C3_0_f27d631f3e" d="M 0 1 
C 0.265203 1 0.51958 0.894634 0.707107 0.707107 
C 0.894634 0.51958 1 0.265203 1 -0 
C 1 -0.265203 0.894634 -0.51958 0.707107 -0.707107 
C 0.51958 -0.894634 0.265203 -1 0 -1 
C -0.265203 -1 -0.51958 -0.894634 -0.707107 -0.707107 
C -0.894634 -0.51958 -1 -0.265203 -1 0 
C -1 0.265203 -0.894634 0.51958 -0.707107 0.707107 
C -0.51958 0.894634 -0.265203 1 0 1 
z
"/>
    </defs>
    <g clip-path="url(#pa3a1e68f36)">
     <use xlink:href="#C3_0_f27d631f3e" x="382.908052" y="156.198386"/>
    </g>
    <g clip-path="url(#pa3a1e68f36)">
     <use xlink:href="#C3_0_f27d631f3e" x="388.076777" y="149.096277"/>
    </g>
    <g clip-path="url(#pa3a1e68f36)">
     <use xlink:href="#C3_0_f27d631f3e" x="386.935076" y="192.656225"/>
    </g>
    <g clip-path="url(#pa3a1e68f36)">
     <use xlink:href="#C3_0_f27d631f3e" x="397.168251" y="112.635715"/>
    </g>
    <g clip-path="url(#pa3a1e68f36)">
     <use xlink:href="#C3_0_f27d631f3e" x="398.256118" y="170.51065"/>
    </g>
    <g clip-path="url(#pa3a1e68f36)">
     <use xlink:href="#C3_0_f27d631f3e" x="391.469775" y="170.3432"/>
    </g>
    <g clip-path="url(#pa3a1e68f36)">
     <use xlink:href="#C3_0_f27d631f3e" x="400.564632" y="109.589356"/>
    </g>
    <g clip-path="url(#pa3a1e68f36)">
     <use xlink:href="#C3_0_f27d631f3e" x="398.974562" y="180.835324"/>
    </g>
    <g clip-path="url(#pa3a1e68f36)">
     <use xlink:href="#C3_0_f27d631f3e" x="383.740005" y="126.514546"/>
    </g>
    <g clip-path="url(#pa3a1e68f36)">
     <use xlink:href="#C3_0_f27d631f3e" x="399.733796" y="37.421818"/>
    </g>
    <g clip-path="url(#pa3a1e68f36)">
     <use xlink:href="#C3_0_f27d631f3e" x="396.261032" y="114.628896"/>
    </g>
    <g clip-path="url(#pa3a1e68f36)">
     <use xlink:href="#C3_0_f27d631f3e" x="394.751575" y="202.948087"/>
    </g>
    <g clip-path="url(#pa3a1e68f36)">
     <use xlink:href="#C3_0_f27d631f3e" x="383.566978" y="164.528552"/>
    </g>
    <g clip-path="url(#pa3a1e68f36)">
     <use xlink:href="#C3_0_f27d631f3e" x="395.589484" y="181.268223"/>
    </g>
    <g clip-path="url(#pa3a1e68f36)">
     <use xlink:href="#C3_0_f27d631f3e" x="390.807124" y="161.62897"/>
    </g>
    <g clip-path="url(#pa3a1e68f36)">
     <use xlink:href="#C3_0_f27d631f3e" x="393.795886" y="153.093689"/>
    </g>
    <g clip-path="url(#pa3a1e68f36)">
     <use xlink:href="#C3_0_f27d631f3e" x="386.037096" y="129.454232"/>
    </g>
    <g clip-path="url(#pa3a1e68f36)">
     <use xlink:href="#C3_0_f27d631f3e" x="396.968029" y="168.783395"/>
    </g>
   </g>
   <g id="text_11">
    <!-- 51 -->
    <g style="fill: #262626" transform="translate(131.196281 -659.737096)scale(0.1 -0.1)">
     <use xlink:href="#DejaVuSans-35"/>
     <use xlink:href="#DejaVuSans-31" x="63.623047"/>
    </g>
   </g>
   <g id="text_12">
    <!-- p=1.3879673264322738e-11 -->
    <g style="fill: #262626" transform="translate(71.774406 130.425557)scale(0.08 -0.08)">
     <defs>
      <path id="DejaVuSans-3d" d="M 678 2906 
L 4684 2906 
L 4684 2381 
L 678 2381 
L 678 2906 
z
M 678 1631 
L 4684 1631 
L 4684 1100 
L 678 1100 
L 678 1631 
z
" transform="scale(0.015625)"/>
      <path id="DejaVuSans-38" d="M 2034 2216 
Q 1584 2216 1326 1975 
Q 1069 1734 1069 1313 
Q 1069 891 1326 650 
Q 1584 409 2034 409 
Q 2484 409 2743 651 
Q 3003 894 3003 1313 
Q 3003 1734 2745 1975 
Q 2488 2216 2034 2216 
z
M 1403 2484 
Q 997 2584 770 2862 
Q 544 3141 544 3541 
Q 544 4100 942 4425 
Q 1341 4750 2034 4750 
Q 2731 4750 3128 4425 
Q 3525 4100 3525 3541 
Q 3525 3141 3298 2862 
Q 3072 2584 2669 2484 
Q 3125 2378 3379 2068 
Q 3634 1759 3634 1313 
Q 3634 634 3220 271 
Q 2806 -91 2034 -91 
Q 1263 -91 848 271 
Q 434 634 434 1313 
Q 434 1759 690 2068 
Q 947 2378 1403 2484 
z
M 1172 3481 
Q 1172 3119 1398 2916 
Q 1625 2713 2034 2713 
Q 2441 2713 2670 2916 
Q 2900 3119 2900 3481 
Q 2900 3844 2670 4047 
Q 2441 4250 2034 4250 
Q 1625 4250 1398 4047 
Q 1172 3844 1172 3481 
z
" transform="scale(0.015625)"/>
      <path id="DejaVuSans-37" d="M 525 4666 
L 3525 4666 
L 3525 4397 
L 1831 0 
L 1172 0 
L 2766 4134 
L 525 4134 
L 525 4666 
z
" transform="scale(0.015625)"/>
      <path id="DejaVuSans-39" d="M 703 97 
L 703 672 
Q 941 559 1184 500 
Q 1428 441 1663 441 
Q 2288 441 2617 861 
Q 2947 1281 2994 2138 
Q 2813 1869 2534 1725 
Q 2256 1581 1919 1581 
Q 1219 1581 811 2004 
Q 403 2428 403 3163 
Q 403 3881 828 4315 
Q 1253 4750 1959 4750 
Q 2769 4750 3195 4129 
Q 3622 3509 3622 2328 
Q 3622 1225 3098 567 
Q 2575 -91 1691 -91 
Q 1453 -91 1209 -44 
Q 966 3 703 97 
z
M 1959 2075 
Q 2384 2075 2632 2365 
Q 2881 2656 2881 3163 
Q 2881 3666 2632 3958 
Q 2384 4250 1959 4250 
Q 1534 4250 1286 3958 
Q 1038 3666 1038 3163 
Q 1038 2656 1286 2365 
Q 1534 2075 1959 2075 
z
" transform="scale(0.015625)"/>
      <path id="DejaVuSans-36" d="M 2113 2584 
Q 1688 2584 1439 2293 
Q 1191 2003 1191 1497 
Q 1191 994 1439 701 
Q 1688 409 2113 409 
Q 2538 409 2786 701 
Q 3034 994 3034 1497 
Q 3034 2003 2786 2293 
Q 2538 2584 2113 2584 
z
M 3366 4563 
L 3366 3988 
Q 3128 4100 2886 4159 
Q 2644 4219 2406 4219 
Q 1781 4219 1451 3797 
Q 1122 3375 1075 2522 
Q 1259 2794 1537 2939 
Q 1816 3084 2150 3084 
Q 2853 3084 3261 2657 
Q 3669 2231 3669 1497 
Q 3669 778 3244 343 
Q 2819 -91 2113 -91 
Q 1303 -91 875 529 
Q 447 1150 447 2328 
Q 447 3434 972 4092 
Q 1497 4750 2381 4750 
Q 2619 4750 2861 4703 
Q 3103 4656 3366 4563 
z
" transform="scale(0.015625)"/>
      <path id="DejaVuSans-2d" d="M 313 2009 
L 1997 2009 
L 1997 1497 
L 313 1497 
L 313 2009 
z
" transform="scale(0.015625)"/>
     </defs>
     <use xlink:href="#DejaVuSans-70"/>
     <use xlink:href="#DejaVuSans-3d" x="63.476562"/>
     <use xlink:href="#DejaVuSans-31" x="147.265625"/>
     <use xlink:href="#DejaVuSans-2e" x="210.888672"/>
     <use xlink:href="#DejaVuSans-33" x="242.675781"/>
     <use xlink:href="#DejaVuSans-38" x="306.298828"/>
     <use xlink:href="#DejaVuSans-37" x="369.921875"/>
     <use xlink:href="#DejaVuSans-39" x="433.544922"/>
     <use xlink:href="#DejaVuSans-36" x="497.167969"/>
     <use xlink:href="#DejaVuSans-37" x="560.791016"/>
     <use xlink:href="#DejaVuSans-33" x="624.414062"/>
     <use xlink:href="#DejaVuSans-32" x="688.037109"/>
     <use xlink:href="#DejaVuSans-36" x="751.660156"/>
     <use xlink:href="#DejaVuSans-34" x="815.283203"/>
     <use xlink:href="#DejaVuSans-33" x="878.90625"/>
     <use xlink:href="#DejaVuSans-32" x="942.529297"/>
     <use xlink:href="#DejaVuSans-32" x="1006.152344"/>
     <use xlink:href="#DejaVuSans-37" x="1069.775391"/>
     <use xlink:href="#DejaVuSans-33" x="1133.398438"/>
     <use xlink:href="#DejaVuSans-38" x="1197.021484"/>
     <use xlink:href="#DejaVuSans-65" x="1260.644531"/>
     <use xlink:href="#DejaVuSans-2d" x="1322.167969"/>
     <use xlink:href="#DejaVuSans-31" x="1358.251953"/>
     <use xlink:href="#DejaVuSans-31" x="1421.875"/>
    </g>
   </g>
   <g id="text_13">
    <!-- 26 -->
    <g style="fill: #262626" transform="translate(189.160594 -659.737096)scale(0.1 -0.1)">
     <use xlink:href="#DejaVuSans-32"/>
     <use xlink:href="#DejaVuSans-36" x="63.623047"/>
    </g>
   </g>
   <g id="text_14">
    <!-- 30 -->
    <g style="fill: #262626" transform="translate(324.410656 -659.737096)scale(0.1 -0.1)">
     <use xlink:href="#DejaVuSans-33"/>
     <use xlink:href="#DejaVuSans-30" x="63.623047"/>
    </g>
   </g>
   <g id="text_15">
    <!-- p=9.954158726602898e-06 -->
    <g style="fill: #262626" transform="translate(267.533781 101.655512)scale(0.08 -0.08)">
     <use xlink:href="#DejaVuSans-70"/>
     <use xlink:href="#DejaVuSans-3d" x="63.476562"/>
     <use xlink:href="#DejaVuSans-39" x="147.265625"/>
     <use xlink:href="#DejaVuSans-2e" x="210.888672"/>
     <use xlink:href="#DejaVuSans-39" x="242.675781"/>
     <use xlink:href="#DejaVuSans-35" x="306.298828"/>
     <use xlink:href="#DejaVuSans-34" x="369.921875"/>
     <use xlink:href="#DejaVuSans-31" x="433.544922"/>
     <use xlink:href="#DejaVuSans-35" x="497.167969"/>
     <use xlink:href="#DejaVuSans-38" x="560.791016"/>
     <use xlink:href="#DejaVuSans-37" x="624.414062"/>
     <use xlink:href="#DejaVuSans-32" x="688.037109"/>
     <use xlink:href="#DejaVuSans-36" x="751.660156"/>
     <use xlink:href="#DejaVuSans-36" x="815.283203"/>
     <use xlink:href="#DejaVuSans-30" x="878.90625"/>
     <use xlink:href="#DejaVuSans-32" x="942.529297"/>
     <use xlink:href="#DejaVuSans-38" x="1006.152344"/>
     <use xlink:href="#DejaVuSans-39" x="1069.775391"/>
     <use xlink:href="#DejaVuSans-38" x="1133.398438"/>
     <use xlink:href="#DejaVuSans-65" x="1197.021484"/>
     <use xlink:href="#DejaVuSans-2d" x="1258.544922"/>
     <use xlink:href="#DejaVuSans-30" x="1294.628906"/>
     <use xlink:href="#DejaVuSans-36" x="1358.251953"/>
    </g>
   </g>
   <g id="text_16">
    <!-- 18 -->
    <g style="fill: #262626" transform="translate(382.374969 -659.737096)scale(0.1 -0.1)">
     <use xlink:href="#DejaVuSans-31"/>
     <use xlink:href="#DejaVuSans-38" x="63.623047"/>
    </g>
   </g>
   <g id="legend_1">
    <g id="patch_13">
     <path d="M 72.57125 27.398438 
L 92.57125 27.398438 
L 92.57125 20.398438 
L 72.57125 20.398438 
z
" style="fill: #ecf2ec; stroke: #262626; stroke-width: 0.75; stroke-linejoin: miter"/>
    </g>
    <g id="text_17">
     <!-- Mutant -->
     <g style="fill: #262626" transform="translate(100.57125 27.398438)scale(0.1 -0.1)">
      <defs>
       <path id="DejaVuSans-4d" d="M 628 4666 
L 1569 4666 
L 2759 1491 
L 3956 4666 
L 4897 4666 
L 4897 0 
L 4281 0 
L 4281 4097 
L 3078 897 
L 2444 897 
L 1241 4097 
L 1241 0 
L 628 0 
L 628 4666 
z
" transform="scale(0.015625)"/>
       <path id="DejaVuSans-75" d="M 544 1381 
L 544 3500 
L 1119 3500 
L 1119 1403 
Q 1119 906 1312 657 
Q 1506 409 1894 409 
Q 2359 409 2629 706 
Q 2900 1003 2900 1516 
L 2900 3500 
L 3475 3500 
L 3475 0 
L 2900 0 
L 2900 538 
Q 2691 219 2414 64 
Q 2138 -91 1772 -91 
Q 1169 -91 856 284 
Q 544 659 544 1381 
z
M 1991 3584 
L 1991 3584 
z
" transform="scale(0.015625)"/>
       <path id="DejaVuSans-61" d="M 2194 1759 
Q 1497 1759 1228 1600 
Q 959 1441 959 1056 
Q 959 750 1161 570 
Q 1363 391 1709 391 
Q 2188 391 2477 730 
Q 2766 1069 2766 1631 
L 2766 1759 
L 2194 1759 
z
M 3341 1997 
L 3341 0 
L 2766 0 
L 2766 531 
Q 2569 213 2275 61 
Q 1981 -91 1556 -91 
Q 1019 -91 701 211 
Q 384 513 384 1019 
Q 384 1609 779 1909 
Q 1175 2209 1959 2209 
L 2766 2209 
L 2766 2266 
Q 2766 2663 2505 2880 
Q 2244 3097 1772 3097 
Q 1472 3097 1187 3025 
Q 903 2953 641 2809 
L 641 3341 
Q 956 3463 1253 3523 
Q 1550 3584 1831 3584 
Q 2591 3584 2966 3190 
Q 3341 2797 3341 1997 
z
" transform="scale(0.015625)"/>
      </defs>
      <use xlink:href="#DejaVuSans-4d"/>
      <use xlink:href="#DejaVuSans-75" x="86.279297"/>
      <use xlink:href="#DejaVuSans-74" x="149.658203"/>
      <use xlink:href="#DejaVuSans-61" x="188.867188"/>
      <use xlink:href="#DejaVuSans-6e" x="250.146484"/>
      <use xlink:href="#DejaVuSans-74" x="313.525391"/>
     </g>
    </g>
    <g id="patch_14">
     <path d="M 72.57125 42.076563 
L 92.57125 42.076563 
L 92.57125 35.076563 
L 72.57125 35.076563 
z
" style="fill: #107010; stroke: #262626; stroke-width: 0.75; stroke-linejoin: miter"/>
    </g>
    <g id="text_18">
     <!-- WT -->
     <g style="fill: #262626" transform="translate(100.57125 42.076563)scale(0.1 -0.1)">
      <use xlink:href="#DejaVuSans-57"/>
      <use xlink:href="#DejaVuSans-54" x="98.876953"/>
     </g>
    </g>
   </g>
  </g>
 </g>
 <defs>
  <clipPath id="pa3a1e68f36">
   <rect x="63.57125" y="10.8" width="386.42875" height="292.84"/>
  </clipPath>
 </defs>
</svg>
