<?xml version="1.0" encoding="utf-8" standalone="no"?>
<!DOCTYPE svg PUBLIC "-//W3C//DTD SVG 1.1//EN"
  "http://www.w3.org/Graphics/SVG/1.1/DTD/svg11.dtd">
<svg xmlns:xlink="http://www.w3.org/1999/xlink" width="460.8pt" height="345.6pt" viewBox="0 0 460.8 345.6" xmlns="http://www.w3.org/2000/svg" version="1.1">
 <metadata>
  <rdf:RDF xmlns:dc="http://purl.org/dc/elements/1.1/" xmlns:cc="http://creativecommons.org/ns#" xmlns:rdf="http://www.w3.org/1999/02/22-rdf-syntax-ns#">
   <cc:Work>
    <dc:type rdf:resource="http://purl.org/dc/dcmitype/StillImage"/>
    <dc:date>2024-02-15T22:04:41.471256</dc:date>
    <dc:format>image/svg+xml</dc:format>
    <dc:creator>
     <cc:Agent>
      <dc:title>Matplotlib v3.5.3, https://matplotlib.org/</dc:title>
     </cc:Agent>
    </dc:creator>
   </cc:Work>
  </rdf:RDF>
 </metadata>
 <defs>
  <style type="text/css">*{stroke-linejoin: round; stroke-linecap: butt}</style>
 </defs>
 <g id="figure_1">
  <g id="patch_1">
   <path d="M 0 345.6 
L 460.8 345.6 
L 460.8 0 
L 0 0 
z
" style="fill: #ffffff"/>
  </g>
  <g id="axes_1">
   <g id="patch_2">
    <path d="M 47.82125 303.64 
L 401.26 303.64 
L 401.26 47.77344 
L 47.82125 47.77344 
z
" style="fill: #ffffff"/>
   </g>
   <g id="PathCollection_1">
    <defs>
     <path id="m26198de75d" d="M 0 3 
C 0.795609 3 1.55874 2.683901 2.12132 2.12132 
C 2.683901 1.55874 3 0.795609 3 0 
C 3 -0.795609 2.683901 -1.55874 2.12132 -2.12132 
C 1.55874 -2.683901 0.795609 -3 0 -3 
C -0.795609 -3 -1.55874 -2.683901 -2.12132 -2.12132 
C -2.683901 -1.55874 -3 -0.795609 -3 0 
C -3 0.795609 -2.683901 1.55874 -2.12132 2.12132 
C -1.55874 2.683901 -0.795609 3 0 3 
z
" style="stroke: #3cb371"/>
    </defs>
    <g clip-path="url(#p708062f030)">
     <use xlink:href="#m26198de75d" x="179.588526" y="175.533292" style="fill: #3cb371; stroke: #3cb371"/>
     <use xlink:href="#m26198de75d" x="188.529307" y="184.545597" style="fill: #3cb371; stroke: #3cb371"/>
     <use xlink:href="#m26198de75d" x="194.669932" y="62.218703" style="fill: #3cb371; stroke: #3cb371"/>
     <use xlink:href="#m26198de75d" x="200.687103" y="158.534951" style="fill: #3cb371; stroke: #3cb371"/>
     <use xlink:href="#m26198de75d" x="225.890119" y="213.632484" style="fill: #3cb371; stroke: #3cb371"/>
     <use xlink:href="#m26198de75d" x="227.493416" y="298.8848" style="fill: #3cb371; stroke: #3cb371"/>
     <use xlink:href="#m26198de75d" x="228.450584" y="210.613895" style="fill: #3cb371; stroke: #3cb371"/>
     <use xlink:href="#m26198de75d" x="230.586976" y="260.744707" style="fill: #3cb371; stroke: #3cb371"/>
     <use xlink:href="#m26198de75d" x="232.829988" y="182.592809" style="fill: #3cb371; stroke: #3cb371"/>
     <use xlink:href="#m26198de75d" x="253.222313" y="208.656524" style="fill: #3cb371; stroke: #3cb371"/>
     <use xlink:href="#m26198de75d" x="254.339811" y="286.97302" style="fill: #3cb371; stroke: #3cb371"/>
     <use xlink:href="#m26198de75d" x="259.102402" y="161.433301" style="fill: #3cb371; stroke: #3cb371"/>
     <use xlink:href="#m26198de75d" x="272.809784" y="189.364648" style="fill: #3cb371; stroke: #3cb371"/>
     <use xlink:href="#m26198de75d" x="295.243908" y="187.460675" style="fill: #3cb371; stroke: #3cb371"/>
     <use xlink:href="#m26198de75d" x="297.680116" y="227.413543" style="fill: #3cb371; stroke: #3cb371"/>
     <use xlink:href="#m26198de75d" x="316.729682" y="231.057311" style="fill: #3cb371; stroke: #3cb371"/>
     <use xlink:href="#m26198de75d" x="63.886648" y="151.056744" style="fill: #3cb371; stroke: #3cb371"/>
     <use xlink:href="#m26198de75d" x="99.899889" y="164.176528" style="fill: #3cb371; stroke: #3cb371"/>
     <use xlink:href="#m26198de75d" x="104.402747" y="165.359189" style="fill: #3cb371; stroke: #3cb371"/>
     <use xlink:href="#m26198de75d" x="130.206999" y="160.40586" style="fill: #3cb371; stroke: #3cb371"/>
     <use xlink:href="#m26198de75d" x="133.420807" y="185.60979" style="fill: #3cb371; stroke: #3cb371"/>
     <use xlink:href="#m26198de75d" x="153.733769" y="157.580375" style="fill: #3cb371; stroke: #3cb371"/>
     <use xlink:href="#m26198de75d" x="159.878402" y="167.975182" style="fill: #3cb371; stroke: #3cb371"/>
     <use xlink:href="#m26198de75d" x="163.017657" y="183.480873" style="fill: #3cb371; stroke: #3cb371"/>
     <use xlink:href="#m26198de75d" x="168.882514" y="161.906696" style="fill: #3cb371; stroke: #3cb371"/>
     <use xlink:href="#m26198de75d" x="175.397509" y="195.066445" style="fill: #3cb371; stroke: #3cb371"/>
     <use xlink:href="#m26198de75d" x="179.259048" y="172.868558" style="fill: #3cb371; stroke: #3cb371"/>
     <use xlink:href="#m26198de75d" x="182.924183" y="181.530148" style="fill: #3cb371; stroke: #3cb371"/>
     <use xlink:href="#m26198de75d" x="194.306786" y="134.577781" style="fill: #3cb371; stroke: #3cb371"/>
     <use xlink:href="#m26198de75d" x="197.191116" y="157.522014" style="fill: #3cb371; stroke: #3cb371"/>
     <use xlink:href="#m26198de75d" x="197.484519" y="186.960929" style="fill: #3cb371; stroke: #3cb371"/>
     <use xlink:href="#m26198de75d" x="198.729478" y="233.518659" style="fill: #3cb371; stroke: #3cb371"/>
     <use xlink:href="#m26198de75d" x="199.415689" y="177.030701" style="fill: #3cb371; stroke: #3cb371"/>
     <use xlink:href="#m26198de75d" x="199.931149" y="170.655659" style="fill: #3cb371; stroke: #3cb371"/>
     <use xlink:href="#m26198de75d" x="202.189392" y="239.347179" style="fill: #3cb371; stroke: #3cb371"/>
     <use xlink:href="#m26198de75d" x="205.665338" y="191.925396" style="fill: #3cb371; stroke: #3cb371"/>
     <use xlink:href="#m26198de75d" x="224.156155" y="156.885834" style="fill: #3cb371; stroke: #3cb371"/>
     <use xlink:href="#m26198de75d" x="228.489864" y="177.055119" style="fill: #3cb371; stroke: #3cb371"/>
     <use xlink:href="#m26198de75d" x="230.934891" y="279.534253" style="fill: #3cb371; stroke: #3cb371"/>
     <use xlink:href="#m26198de75d" x="237.911635" y="259.487907" style="fill: #3cb371; stroke: #3cb371"/>
     <use xlink:href="#m26198de75d" x="240.931444" y="274.882959" style="fill: #3cb371; stroke: #3cb371"/>
     <use xlink:href="#m26198de75d" x="243.442206" y="257.112018" style="fill: #3cb371; stroke: #3cb371"/>
     <use xlink:href="#m26198de75d" x="245.558557" y="176.428438" style="fill: #3cb371; stroke: #3cb371"/>
     <use xlink:href="#m26198de75d" x="251.169292" y="178.501558" style="fill: #3cb371; stroke: #3cb371"/>
     <use xlink:href="#m26198de75d" x="270.132279" y="260.457918" style="fill: #3cb371; stroke: #3cb371"/>
     <use xlink:href="#m26198de75d" x="274.668806" y="277.068664" style="fill: #3cb371; stroke: #3cb371"/>
     <use xlink:href="#m26198de75d" x="288.170164" y="244.048585" style="fill: #3cb371; stroke: #3cb371"/>
     <use xlink:href="#m26198de75d" x="291.317435" y="250.847729" style="fill: #3cb371; stroke: #3cb371"/>
     <use xlink:href="#m26198de75d" x="301.949695" y="228.675823" style="fill: #3cb371; stroke: #3cb371"/>
     <use xlink:href="#m26198de75d" x="308.402962" y="232.75851" style="fill: #3cb371; stroke: #3cb371"/>
     <use xlink:href="#m26198de75d" x="314.061796" y="215.972431" style="fill: #3cb371; stroke: #3cb371"/>
     <use xlink:href="#m26198de75d" x="316.608633" y="171.73162" style="fill: #3cb371; stroke: #3cb371"/>
     <use xlink:href="#m26198de75d" x="330.449088" y="271.602027" style="fill: #3cb371; stroke: #3cb371"/>
     <use xlink:href="#m26198de75d" x="330.589376" y="265.51263" style="fill: #3cb371; stroke: #3cb371"/>
     <use xlink:href="#m26198de75d" x="385.194602" y="277.296139" style="fill: #3cb371; stroke: #3cb371"/>
    </g>
   </g>
   <g id="matplotlib.axis_1">
    <g id="xtick_1">
     <g id="line2d_1">
      <defs>
       <path id="mb08a591d90" d="M 0 0 
L 0 3.5 
" style="stroke: #000000; stroke-width: 0.8"/>
      </defs>
      <g>
       <use xlink:href="#mb08a591d90" x="71.019713" y="303.64" style="stroke: #000000; stroke-width: 0.8"/>
      </g>
     </g>
     <g id="text_1">
      <!-- −45 -->
      <g transform="translate(60.467369 318.238437)scale(0.1 -0.1)">
       <defs>
        <path id="DejaVuSans-2212" d="M 678 2272 
L 4684 2272 
L 4684 1741 
L 678 1741 
L 678 2272 
z
" transform="scale(0.015625)"/>
        <path id="DejaVuSans-34" d="M 2419 4116 
L 825 1625 
L 2419 1625 
L 2419 4116 
z
M 2253 4666 
L 3047 4666 
L 3047 1625 
L 3713 1625 
L 3713 1100 
L 3047 1100 
L 3047 0 
L 2419 0 
L 2419 1100 
L 313 1100 
L 313 1709 
L 2253 4666 
z
" transform="scale(0.015625)"/>
        <path id="DejaVuSans-35" d="M 691 4666 
L 3169 4666 
L 3169 4134 
L 1269 4134 
L 1269 2991 
Q 1406 3038 1543 3061 
Q 1681 3084 1819 3084 
Q 2600 3084 3056 2656 
Q 3513 2228 3513 1497 
Q 3513 744 3044 326 
Q 2575 -91 1722 -91 
Q 1428 -91 1123 -41 
Q 819 9 494 109 
L 494 744 
Q 775 591 1075 516 
Q 1375 441 1709 441 
Q 2250 441 2565 725 
Q 2881 1009 2881 1497 
Q 2881 1984 2565 2268 
Q 2250 2553 1709 2553 
Q 1456 2553 1204 2497 
Q 953 2441 691 2322 
L 691 4666 
z
" transform="scale(0.015625)"/>
       </defs>
       <use xlink:href="#DejaVuSans-2212"/>
       <use xlink:href="#DejaVuSans-34" x="83.789062"/>
       <use xlink:href="#DejaVuSans-35" x="147.412109"/>
      </g>
     </g>
    </g>
    <g id="xtick_2">
     <g id="line2d_2">
      <g>
       <use xlink:href="#mb08a591d90" x="111.102121" y="303.64" style="stroke: #000000; stroke-width: 0.8"/>
      </g>
     </g>
     <g id="text_2">
      <!-- −40 -->
      <g transform="translate(100.549777 318.238437)scale(0.1 -0.1)">
       <defs>
        <path id="DejaVuSans-30" d="M 2034 4250 
Q 1547 4250 1301 3770 
Q 1056 3291 1056 2328 
Q 1056 1369 1301 889 
Q 1547 409 2034 409 
Q 2525 409 2770 889 
Q 3016 1369 3016 2328 
Q 3016 3291 2770 3770 
Q 2525 4250 2034 4250 
z
M 2034 4750 
Q 2819 4750 3233 4129 
Q 3647 3509 3647 2328 
Q 3647 1150 3233 529 
Q 2819 -91 2034 -91 
Q 1250 -91 836 529 
Q 422 1150 422 2328 
Q 422 3509 836 4129 
Q 1250 4750 2034 4750 
z
" transform="scale(0.015625)"/>
       </defs>
       <use xlink:href="#DejaVuSans-2212"/>
       <use xlink:href="#DejaVuSans-34" x="83.789062"/>
       <use xlink:href="#DejaVuSans-30" x="147.412109"/>
      </g>
     </g>
    </g>
    <g id="xtick_3">
     <g id="line2d_3">
      <g>
       <use xlink:href="#mb08a591d90" x="151.184528" y="303.64" style="stroke: #000000; stroke-width: 0.8"/>
      </g>
     </g>
     <g id="text_3">
      <!-- −35 -->
      <g transform="translate(140.632184 318.238437)scale(0.1 -0.1)">
       <defs>
        <path id="DejaVuSans-33" d="M 2597 2516 
Q 3050 2419 3304 2112 
Q 3559 1806 3559 1356 
Q 3559 666 3084 287 
Q 2609 -91 1734 -91 
Q 1441 -91 1130 -33 
Q 819 25 488 141 
L 488 750 
Q 750 597 1062 519 
Q 1375 441 1716 441 
Q 2309 441 2620 675 
Q 2931 909 2931 1356 
Q 2931 1769 2642 2001 
Q 2353 2234 1838 2234 
L 1294 2234 
L 1294 2753 
L 1863 2753 
Q 2328 2753 2575 2939 
Q 2822 3125 2822 3475 
Q 2822 3834 2567 4026 
Q 2313 4219 1838 4219 
Q 1578 4219 1281 4162 
Q 984 4106 628 3988 
L 628 4550 
Q 988 4650 1302 4700 
Q 1616 4750 1894 4750 
Q 2613 4750 3031 4423 
Q 3450 4097 3450 3541 
Q 3450 3153 3228 2886 
Q 3006 2619 2597 2516 
z
" transform="scale(0.015625)"/>
       </defs>
       <use xlink:href="#DejaVuSans-2212"/>
       <use xlink:href="#DejaVuSans-33" x="83.789062"/>
       <use xlink:href="#DejaVuSans-35" x="147.412109"/>
      </g>
     </g>
    </g>
    <g id="xtick_4">
     <g id="line2d_4">
      <g>
       <use xlink:href="#mb08a591d90" x="191.266936" y="303.64" style="stroke: #000000; stroke-width: 0.8"/>
      </g>
     </g>
     <g id="text_4">
      <!-- −30 -->
      <g transform="translate(180.714592 318.238437)scale(0.1 -0.1)">
       <use xlink:href="#DejaVuSans-2212"/>
       <use xlink:href="#DejaVuSans-33" x="83.789062"/>
       <use xlink:href="#DejaVuSans-30" x="147.412109"/>
      </g>
     </g>
    </g>
    <g id="xtick_5">
     <g id="line2d_5">
      <g>
       <use xlink:href="#mb08a591d90" x="231.349343" y="303.64" style="stroke: #000000; stroke-width: 0.8"/>
      </g>
     </g>
     <g id="text_5">
      <!-- −25 -->
      <g transform="translate(220.797 318.238437)scale(0.1 -0.1)">
       <defs>
        <path id="DejaVuSans-32" d="M 1228 531 
L 3431 531 
L 3431 0 
L 469 0 
L 469 531 
Q 828 903 1448 1529 
Q 2069 2156 2228 2338 
Q 2531 2678 2651 2914 
Q 2772 3150 2772 3378 
Q 2772 3750 2511 3984 
Q 2250 4219 1831 4219 
Q 1534 4219 1204 4116 
Q 875 4013 500 3803 
L 500 4441 
Q 881 4594 1212 4672 
Q 1544 4750 1819 4750 
Q 2544 4750 2975 4387 
Q 3406 4025 3406 3419 
Q 3406 3131 3298 2873 
Q 3191 2616 2906 2266 
Q 2828 2175 2409 1742 
Q 1991 1309 1228 531 
z
" transform="scale(0.015625)"/>
       </defs>
       <use xlink:href="#DejaVuSans-2212"/>
       <use xlink:href="#DejaVuSans-32" x="83.789062"/>
       <use xlink:href="#DejaVuSans-35" x="147.412109"/>
      </g>
     </g>
    </g>
    <g id="xtick_6">
     <g id="line2d_6">
      <g>
       <use xlink:href="#mb08a591d90" x="271.431751" y="303.64" style="stroke: #000000; stroke-width: 0.8"/>
      </g>
     </g>
     <g id="text_6">
      <!-- −20 -->
      <g transform="translate(260.879407 318.238437)scale(0.1 -0.1)">
       <use xlink:href="#DejaVuSans-2212"/>
       <use xlink:href="#DejaVuSans-32" x="83.789062"/>
       <use xlink:href="#DejaVuSans-30" x="147.412109"/>
      </g>
     </g>
    </g>
    <g id="xtick_7">
     <g id="line2d_7">
      <g>
       <use xlink:href="#mb08a591d90" x="311.514159" y="303.64" style="stroke: #000000; stroke-width: 0.8"/>
      </g>
     </g>
     <g id="text_7">
      <!-- −15 -->
      <g transform="translate(300.961815 318.238437)scale(0.1 -0.1)">
       <defs>
        <path id="DejaVuSans-31" d="M 794 531 
L 1825 531 
L 1825 4091 
L 703 3866 
L 703 4441 
L 1819 4666 
L 2450 4666 
L 2450 531 
L 3481 531 
L 3481 0 
L 794 0 
L 794 531 
z
" transform="scale(0.015625)"/>
       </defs>
       <use xlink:href="#DejaVuSans-2212"/>
       <use xlink:href="#DejaVuSans-31" x="83.789062"/>
       <use xlink:href="#DejaVuSans-35" x="147.412109"/>
      </g>
     </g>
    </g>
    <g id="xtick_8">
     <g id="line2d_8">
      <g>
       <use xlink:href="#mb08a591d90" x="351.596566" y="303.64" style="stroke: #000000; stroke-width: 0.8"/>
      </g>
     </g>
     <g id="text_8">
      <!-- −10 -->
      <g transform="translate(341.044222 318.238437)scale(0.1 -0.1)">
       <use xlink:href="#DejaVuSans-2212"/>
       <use xlink:href="#DejaVuSans-31" x="83.789062"/>
       <use xlink:href="#DejaVuSans-30" x="147.412109"/>
      </g>
     </g>
    </g>
    <g id="xtick_9">
     <g id="line2d_9">
      <g>
       <use xlink:href="#mb08a591d90" x="391.678974" y="303.64" style="stroke: #000000; stroke-width: 0.8"/>
      </g>
     </g>
     <g id="text_9">
      <!-- −5 -->
      <g transform="translate(384.30788 318.238437)scale(0.1 -0.1)">
       <use xlink:href="#DejaVuSans-2212"/>
       <use xlink:href="#DejaVuSans-35" x="83.789062"/>
      </g>
     </g>
    </g>
    <g id="text_10">
     <!-- Total -->
     <g transform="translate(212.864062 331.916562)scale(0.1 -0.1)">
      <defs>
       <path id="DejaVuSans-54" d="M -19 4666 
L 3928 4666 
L 3928 4134 
L 2272 4134 
L 2272 0 
L 1638 0 
L 1638 4134 
L -19 4134 
L -19 4666 
z
" transform="scale(0.015625)"/>
       <path id="DejaVuSans-6f" d="M 1959 3097 
Q 1497 3097 1228 2736 
Q 959 2375 959 1747 
Q 959 1119 1226 758 
Q 1494 397 1959 397 
Q 2419 397 2687 759 
Q 2956 1122 2956 1747 
Q 2956 2369 2687 2733 
Q 2419 3097 1959 3097 
z
M 1959 3584 
Q 2709 3584 3137 3096 
Q 3566 2609 3566 1747 
Q 3566 888 3137 398 
Q 2709 -91 1959 -91 
Q 1206 -91 779 398 
Q 353 888 353 1747 
Q 353 2609 779 3096 
Q 1206 3584 1959 3584 
z
" transform="scale(0.015625)"/>
       <path id="DejaVuSans-74" d="M 1172 4494 
L 1172 3500 
L 2356 3500 
L 2356 3053 
L 1172 3053 
L 1172 1153 
Q 1172 725 1289 603 
Q 1406 481 1766 481 
L 2356 481 
L 2356 0 
L 1766 0 
Q 1100 0 847 248 
Q 594 497 594 1153 
L 594 3053 
L 172 3053 
L 172 3500 
L 594 3500 
L 594 4494 
L 1172 4494 
z
" transform="scale(0.015625)"/>
       <path id="DejaVuSans-61" d="M 2194 1759 
Q 1497 1759 1228 1600 
Q 959 1441 959 1056 
Q 959 750 1161 570 
Q 1363 391 1709 391 
Q 2188 391 2477 730 
Q 2766 1069 2766 1631 
L 2766 1759 
L 2194 1759 
z
M 3341 1997 
L 3341 0 
L 2766 0 
L 2766 531 
Q 2569 213 2275 61 
Q 1981 -91 1556 -91 
Q 1019 -91 701 211 
Q 384 513 384 1019 
Q 384 1609 779 1909 
Q 1175 2209 1959 2209 
L 2766 2209 
L 2766 2266 
Q 2766 2663 2505 2880 
Q 2244 3097 1772 3097 
Q 1472 3097 1187 3025 
Q 903 2953 641 2809 
L 641 3341 
Q 956 3463 1253 3523 
Q 1550 3584 1831 3584 
Q 2591 3584 2966 3190 
Q 3341 2797 3341 1997 
z
" transform="scale(0.015625)"/>
       <path id="DejaVuSans-6c" d="M 603 4863 
L 1178 4863 
L 1178 0 
L 603 0 
L 603 4863 
z
" transform="scale(0.015625)"/>
      </defs>
      <use xlink:href="#DejaVuSans-54"/>
      <use xlink:href="#DejaVuSans-6f" x="44.083984"/>
      <use xlink:href="#DejaVuSans-74" x="105.265625"/>
      <use xlink:href="#DejaVuSans-61" x="144.474609"/>
      <use xlink:href="#DejaVuSans-6c" x="205.753906"/>
     </g>
    </g>
   </g>
   <g id="matplotlib.axis_2">
    <g id="ytick_1">
     <g id="line2d_10">
      <defs>
       <path id="m51e5e25116" d="M 0 0 
L -3.5 0 
" style="stroke: #000000; stroke-width: 0.8"/>
      </defs>
      <g>
       <use xlink:href="#m51e5e25116" x="47.82125" y="303.64" style="stroke: #000000; stroke-width: 0.8"/>
      </g>
     </g>
     <g id="text_11">
      <!-- 0.0 -->
      <g transform="translate(24.918125 307.439219)scale(0.1 -0.1)">
       <defs>
        <path id="DejaVuSans-2e" d="M 684 794 
L 1344 794 
L 1344 0 
L 684 0 
L 684 794 
z
" transform="scale(0.015625)"/>
       </defs>
       <use xlink:href="#DejaVuSans-30"/>
       <use xlink:href="#DejaVuSans-2e" x="63.623047"/>
       <use xlink:href="#DejaVuSans-30" x="95.410156"/>
      </g>
     </g>
    </g>
    <g id="ytick_2">
     <g id="line2d_11">
      <g>
       <use xlink:href="#m51e5e25116" x="47.82125" y="250.23917" style="stroke: #000000; stroke-width: 0.8"/>
      </g>
     </g>
     <g id="text_12">
      <!-- 0.5 -->
      <g transform="translate(24.918125 254.038389)scale(0.1 -0.1)">
       <use xlink:href="#DejaVuSans-30"/>
       <use xlink:href="#DejaVuSans-2e" x="63.623047"/>
       <use xlink:href="#DejaVuSans-35" x="95.410156"/>
      </g>
     </g>
    </g>
    <g id="ytick_3">
     <g id="line2d_12">
      <g>
       <use xlink:href="#m51e5e25116" x="47.82125" y="196.83834" style="stroke: #000000; stroke-width: 0.8"/>
      </g>
     </g>
     <g id="text_13">
      <!-- 1.0 -->
      <g transform="translate(24.918125 200.637558)scale(0.1 -0.1)">
       <use xlink:href="#DejaVuSans-31"/>
       <use xlink:href="#DejaVuSans-2e" x="63.623047"/>
       <use xlink:href="#DejaVuSans-30" x="95.410156"/>
      </g>
     </g>
    </g>
    <g id="ytick_4">
     <g id="line2d_13">
      <g>
       <use xlink:href="#m51e5e25116" x="47.82125" y="143.43751" style="stroke: #000000; stroke-width: 0.8"/>
      </g>
     </g>
     <g id="text_14">
      <!-- 1.5 -->
      <g transform="translate(24.918125 147.236728)scale(0.1 -0.1)">
       <use xlink:href="#DejaVuSans-31"/>
       <use xlink:href="#DejaVuSans-2e" x="63.623047"/>
       <use xlink:href="#DejaVuSans-35" x="95.410156"/>
      </g>
     </g>
    </g>
    <g id="ytick_5">
     <g id="line2d_14">
      <g>
       <use xlink:href="#m51e5e25116" x="47.82125" y="90.036679" style="stroke: #000000; stroke-width: 0.8"/>
      </g>
     </g>
     <g id="text_15">
      <!-- 2.0 -->
      <g transform="translate(24.918125 93.835898)scale(0.1 -0.1)">
       <use xlink:href="#DejaVuSans-32"/>
       <use xlink:href="#DejaVuSans-2e" x="63.623047"/>
       <use xlink:href="#DejaVuSans-30" x="95.410156"/>
      </g>
     </g>
    </g>
    <g id="text_16">
     <!-- PercentGpA_transformed -->
     <g transform="translate(18.560313 238.245001)rotate(-90)scale(0.1 -0.1)">
      <defs>
       <path id="DejaVuSans-50" d="M 1259 4147 
L 1259 2394 
L 2053 2394 
Q 2494 2394 2734 2622 
Q 2975 2850 2975 3272 
Q 2975 3691 2734 3919 
Q 2494 4147 2053 4147 
L 1259 4147 
z
M 628 4666 
L 2053 4666 
Q 2838 4666 3239 4311 
Q 3641 3956 3641 3272 
Q 3641 2581 3239 2228 
Q 2838 1875 2053 1875 
L 1259 1875 
L 1259 0 
L 628 0 
L 628 4666 
z
" transform="scale(0.015625)"/>
       <path id="DejaVuSans-65" d="M 3597 1894 
L 3597 1613 
L 953 1613 
Q 991 1019 1311 708 
Q 1631 397 2203 397 
Q 2534 397 2845 478 
Q 3156 559 3463 722 
L 3463 178 
Q 3153 47 2828 -22 
Q 2503 -91 2169 -91 
Q 1331 -91 842 396 
Q 353 884 353 1716 
Q 353 2575 817 3079 
Q 1281 3584 2069 3584 
Q 2775 3584 3186 3129 
Q 3597 2675 3597 1894 
z
M 3022 2063 
Q 3016 2534 2758 2815 
Q 2500 3097 2075 3097 
Q 1594 3097 1305 2825 
Q 1016 2553 972 2059 
L 3022 2063 
z
" transform="scale(0.015625)"/>
       <path id="DejaVuSans-72" d="M 2631 2963 
Q 2534 3019 2420 3045 
Q 2306 3072 2169 3072 
Q 1681 3072 1420 2755 
Q 1159 2438 1159 1844 
L 1159 0 
L 581 0 
L 581 3500 
L 1159 3500 
L 1159 2956 
Q 1341 3275 1631 3429 
Q 1922 3584 2338 3584 
Q 2397 3584 2469 3576 
Q 2541 3569 2628 3553 
L 2631 2963 
z
" transform="scale(0.015625)"/>
       <path id="DejaVuSans-63" d="M 3122 3366 
L 3122 2828 
Q 2878 2963 2633 3030 
Q 2388 3097 2138 3097 
Q 1578 3097 1268 2742 
Q 959 2388 959 1747 
Q 959 1106 1268 751 
Q 1578 397 2138 397 
Q 2388 397 2633 464 
Q 2878 531 3122 666 
L 3122 134 
Q 2881 22 2623 -34 
Q 2366 -91 2075 -91 
Q 1284 -91 818 406 
Q 353 903 353 1747 
Q 353 2603 823 3093 
Q 1294 3584 2113 3584 
Q 2378 3584 2631 3529 
Q 2884 3475 3122 3366 
z
" transform="scale(0.015625)"/>
       <path id="DejaVuSans-6e" d="M 3513 2113 
L 3513 0 
L 2938 0 
L 2938 2094 
Q 2938 2591 2744 2837 
Q 2550 3084 2163 3084 
Q 1697 3084 1428 2787 
Q 1159 2491 1159 1978 
L 1159 0 
L 581 0 
L 581 3500 
L 1159 3500 
L 1159 2956 
Q 1366 3272 1645 3428 
Q 1925 3584 2291 3584 
Q 2894 3584 3203 3211 
Q 3513 2838 3513 2113 
z
" transform="scale(0.015625)"/>
       <path id="DejaVuSans-47" d="M 3809 666 
L 3809 1919 
L 2778 1919 
L 2778 2438 
L 4434 2438 
L 4434 434 
Q 4069 175 3628 42 
Q 3188 -91 2688 -91 
Q 1594 -91 976 548 
Q 359 1188 359 2328 
Q 359 3472 976 4111 
Q 1594 4750 2688 4750 
Q 3144 4750 3555 4637 
Q 3966 4525 4313 4306 
L 4313 3634 
Q 3963 3931 3569 4081 
Q 3175 4231 2741 4231 
Q 1884 4231 1454 3753 
Q 1025 3275 1025 2328 
Q 1025 1384 1454 906 
Q 1884 428 2741 428 
Q 3075 428 3337 486 
Q 3600 544 3809 666 
z
" transform="scale(0.015625)"/>
       <path id="DejaVuSans-70" d="M 1159 525 
L 1159 -1331 
L 581 -1331 
L 581 3500 
L 1159 3500 
L 1159 2969 
Q 1341 3281 1617 3432 
Q 1894 3584 2278 3584 
Q 2916 3584 3314 3078 
Q 3713 2572 3713 1747 
Q 3713 922 3314 415 
Q 2916 -91 2278 -91 
Q 1894 -91 1617 61 
Q 1341 213 1159 525 
z
M 3116 1747 
Q 3116 2381 2855 2742 
Q 2594 3103 2138 3103 
Q 1681 3103 1420 2742 
Q 1159 2381 1159 1747 
Q 1159 1113 1420 752 
Q 1681 391 2138 391 
Q 2594 391 2855 752 
Q 3116 1113 3116 1747 
z
" transform="scale(0.015625)"/>
       <path id="DejaVuSans-41" d="M 2188 4044 
L 1331 1722 
L 3047 1722 
L 2188 4044 
z
M 1831 4666 
L 2547 4666 
L 4325 0 
L 3669 0 
L 3244 1197 
L 1141 1197 
L 716 0 
L 50 0 
L 1831 4666 
z
" transform="scale(0.015625)"/>
       <path id="DejaVuSans-5f" d="M 3263 -1063 
L 3263 -1509 
L -63 -1509 
L -63 -1063 
L 3263 -1063 
z
" transform="scale(0.015625)"/>
       <path id="DejaVuSans-73" d="M 2834 3397 
L 2834 2853 
Q 2591 2978 2328 3040 
Q 2066 3103 1784 3103 
Q 1356 3103 1142 2972 
Q 928 2841 928 2578 
Q 928 2378 1081 2264 
Q 1234 2150 1697 2047 
L 1894 2003 
Q 2506 1872 2764 1633 
Q 3022 1394 3022 966 
Q 3022 478 2636 193 
Q 2250 -91 1575 -91 
Q 1294 -91 989 -36 
Q 684 19 347 128 
L 347 722 
Q 666 556 975 473 
Q 1284 391 1588 391 
Q 1994 391 2212 530 
Q 2431 669 2431 922 
Q 2431 1156 2273 1281 
Q 2116 1406 1581 1522 
L 1381 1569 
Q 847 1681 609 1914 
Q 372 2147 372 2553 
Q 372 3047 722 3315 
Q 1072 3584 1716 3584 
Q 2034 3584 2315 3537 
Q 2597 3491 2834 3397 
z
" transform="scale(0.015625)"/>
       <path id="DejaVuSans-66" d="M 2375 4863 
L 2375 4384 
L 1825 4384 
Q 1516 4384 1395 4259 
Q 1275 4134 1275 3809 
L 1275 3500 
L 2222 3500 
L 2222 3053 
L 1275 3053 
L 1275 0 
L 697 0 
L 697 3053 
L 147 3053 
L 147 3500 
L 697 3500 
L 697 3744 
Q 697 4328 969 4595 
Q 1241 4863 1831 4863 
L 2375 4863 
z
" transform="scale(0.015625)"/>
       <path id="DejaVuSans-6d" d="M 3328 2828 
Q 3544 3216 3844 3400 
Q 4144 3584 4550 3584 
Q 5097 3584 5394 3201 
Q 5691 2819 5691 2113 
L 5691 0 
L 5113 0 
L 5113 2094 
Q 5113 2597 4934 2840 
Q 4756 3084 4391 3084 
Q 3944 3084 3684 2787 
Q 3425 2491 3425 1978 
L 3425 0 
L 2847 0 
L 2847 2094 
Q 2847 2600 2669 2842 
Q 2491 3084 2119 3084 
Q 1678 3084 1418 2786 
Q 1159 2488 1159 1978 
L 1159 0 
L 581 0 
L 581 3500 
L 1159 3500 
L 1159 2956 
Q 1356 3278 1631 3431 
Q 1906 3584 2284 3584 
Q 2666 3584 2933 3390 
Q 3200 3197 3328 2828 
z
" transform="scale(0.015625)"/>
       <path id="DejaVuSans-64" d="M 2906 2969 
L 2906 4863 
L 3481 4863 
L 3481 0 
L 2906 0 
L 2906 525 
Q 2725 213 2448 61 
Q 2172 -91 1784 -91 
Q 1150 -91 751 415 
Q 353 922 353 1747 
Q 353 2572 751 3078 
Q 1150 3584 1784 3584 
Q 2172 3584 2448 3432 
Q 2725 3281 2906 2969 
z
M 947 1747 
Q 947 1113 1208 752 
Q 1469 391 1925 391 
Q 2381 391 2643 752 
Q 2906 1113 2906 1747 
Q 2906 2381 2643 2742 
Q 2381 3103 1925 3103 
Q 1469 3103 1208 2742 
Q 947 2381 947 1747 
z
" transform="scale(0.015625)"/>
      </defs>
      <use xlink:href="#DejaVuSans-50"/>
      <use xlink:href="#DejaVuSans-65" x="56.677734"/>
      <use xlink:href="#DejaVuSans-72" x="118.201172"/>
      <use xlink:href="#DejaVuSans-63" x="157.064453"/>
      <use xlink:href="#DejaVuSans-65" x="212.044922"/>
      <use xlink:href="#DejaVuSans-6e" x="273.568359"/>
      <use xlink:href="#DejaVuSans-74" x="336.947266"/>
      <use xlink:href="#DejaVuSans-47" x="376.15625"/>
      <use xlink:href="#DejaVuSans-70" x="453.646484"/>
      <use xlink:href="#DejaVuSans-41" x="517.123047"/>
      <use xlink:href="#DejaVuSans-5f" x="585.53125"/>
      <use xlink:href="#DejaVuSans-74" x="635.53125"/>
      <use xlink:href="#DejaVuSans-72" x="674.740234"/>
      <use xlink:href="#DejaVuSans-61" x="715.853516"/>
      <use xlink:href="#DejaVuSans-6e" x="777.132812"/>
      <use xlink:href="#DejaVuSans-73" x="840.511719"/>
      <use xlink:href="#DejaVuSans-66" x="892.611328"/>
      <use xlink:href="#DejaVuSans-6f" x="927.816406"/>
      <use xlink:href="#DejaVuSans-72" x="988.998047"/>
      <use xlink:href="#DejaVuSans-6d" x="1028.361328"/>
      <use xlink:href="#DejaVuSans-65" x="1125.773438"/>
      <use xlink:href="#DejaVuSans-64" x="1187.296875"/>
     </g>
    </g>
   </g>
   <g id="LineCollection_1">
    <path d="M 179.588526 175.578992 
L 179.588526 175.487592 
" clip-path="url(#p708062f030)" style="fill: none; stroke: #d3d3d3; stroke-width: 3"/>
    <path d="M 188.529307 184.613457 
L 188.529307 184.477737 
" clip-path="url(#p708062f030)" style="fill: none; stroke: #d3d3d3; stroke-width: 3"/>
    <path d="M 194.669932 64.69845 
L 194.669932 59.738955 
" clip-path="url(#p708062f030)" style="fill: none; stroke: #d3d3d3; stroke-width: 3"/>
    <path d="M 200.687103 158.588688 
L 200.687103 158.481213 
" clip-path="url(#p708062f030)" style="fill: none; stroke: #d3d3d3; stroke-width: 3"/>
    <path d="M 225.890119 213.702015 
L 225.890119 213.562953 
" clip-path="url(#p708062f030)" style="fill: none; stroke: #d3d3d3; stroke-width: 3"/>
    <path d="M 227.493416 299.049264 
L 227.493416 298.720335 
" clip-path="url(#p708062f030)" style="fill: none; stroke: #d3d3d3; stroke-width: 3"/>
    <path d="M 228.450584 210.686937 
L 228.450584 210.540854 
" clip-path="url(#p708062f030)" style="fill: none; stroke: #d3d3d3; stroke-width: 3"/>
    <path d="M 230.586976 260.975166 
L 230.586976 260.514248 
" clip-path="url(#p708062f030)" style="fill: none; stroke: #d3d3d3; stroke-width: 3"/>
    <path d="M 232.829988 182.673193 
L 232.829988 182.512426 
" clip-path="url(#p708062f030)" style="fill: none; stroke: #d3d3d3; stroke-width: 3"/>
    <path d="M 253.222313 208.69987 
L 253.222313 208.613178 
" clip-path="url(#p708062f030)" style="fill: none; stroke: #d3d3d3; stroke-width: 3"/>
    <path d="M 254.339811 287.190204 
L 254.339811 286.755837 
" clip-path="url(#p708062f030)" style="fill: none; stroke: #d3d3d3; stroke-width: 3"/>
    <path d="M 259.102402 161.550532 
L 259.102402 161.316071 
" clip-path="url(#p708062f030)" style="fill: none; stroke: #d3d3d3; stroke-width: 3"/>
    <path d="M 272.809784 189.546378 
L 272.809784 189.182918 
" clip-path="url(#p708062f030)" style="fill: none; stroke: #d3d3d3; stroke-width: 3"/>
    <path d="M 295.243908 188.105963 
L 295.243908 186.815388 
" clip-path="url(#p708062f030)" style="fill: none; stroke: #d3d3d3; stroke-width: 3"/>
    <path d="M 297.680116 227.545014 
L 297.680116 227.282072 
" clip-path="url(#p708062f030)" style="fill: none; stroke: #d3d3d3; stroke-width: 3"/>
    <path d="M 316.729682 231.288215 
L 316.729682 230.826407 
" clip-path="url(#p708062f030)" style="fill: none; stroke: #d3d3d3; stroke-width: 3"/>
    <path d="M 63.886648 151.399268 
L 63.886648 150.714219 
" clip-path="url(#p708062f030)" style="fill: none; stroke: #d3d3d3; stroke-width: 3"/>
    <path d="M 99.899889 164.341303 
L 99.899889 164.011753 
" clip-path="url(#p708062f030)" style="fill: none; stroke: #d3d3d3; stroke-width: 3"/>
    <path d="M 104.402747 165.528901 
L 104.402747 165.189478 
" clip-path="url(#p708062f030)" style="fill: none; stroke: #d3d3d3; stroke-width: 3"/>
    <path d="M 130.206999 160.566526 
L 130.206999 160.245195 
" clip-path="url(#p708062f030)" style="fill: none; stroke: #d3d3d3; stroke-width: 3"/>
    <path d="M 133.420807 185.673104 
L 133.420807 185.546476 
" clip-path="url(#p708062f030)" style="fill: none; stroke: #d3d3d3; stroke-width: 3"/>
    <path d="M 153.733769 157.742401 
L 153.733769 157.41835 
" clip-path="url(#p708062f030)" style="fill: none; stroke: #d3d3d3; stroke-width: 3"/>
    <path d="M 159.878402 168.168226 
L 159.878402 167.782137 
" clip-path="url(#p708062f030)" style="fill: none; stroke: #d3d3d3; stroke-width: 3"/>
    <path d="M 163.017657 183.601316 
L 163.017657 183.36043 
" clip-path="url(#p708062f030)" style="fill: none; stroke: #d3d3d3; stroke-width: 3"/>
    <path d="M 168.882514 162.031707 
L 168.882514 161.781684 
" clip-path="url(#p708062f030)" style="fill: none; stroke: #d3d3d3; stroke-width: 3"/>
    <path d="M 175.397509 195.143648 
L 175.397509 194.989243 
" clip-path="url(#p708062f030)" style="fill: none; stroke: #d3d3d3; stroke-width: 3"/>
    <path d="M 179.259048 172.990971 
L 179.259048 172.746144 
" clip-path="url(#p708062f030)" style="fill: none; stroke: #d3d3d3; stroke-width: 3"/>
    <path d="M 182.924183 181.594804 
L 182.924183 181.465492 
" clip-path="url(#p708062f030)" style="fill: none; stroke: #d3d3d3; stroke-width: 3"/>
    <path d="M 194.306786 135.02486 
L 194.306786 134.130702 
" clip-path="url(#p708062f030)" style="fill: none; stroke: #d3d3d3; stroke-width: 3"/>
    <path d="M 197.191116 157.59358 
L 197.191116 157.450447 
" clip-path="url(#p708062f030)" style="fill: none; stroke: #d3d3d3; stroke-width: 3"/>
    <path d="M 197.484519 187.366299 
L 197.484519 186.555558 
" clip-path="url(#p708062f030)" style="fill: none; stroke: #d3d3d3; stroke-width: 3"/>
    <path d="M 198.729478 233.631812 
L 198.729478 233.405506 
" clip-path="url(#p708062f030)" style="fill: none; stroke: #d3d3d3; stroke-width: 3"/>
    <path d="M 199.415689 177.100963 
L 199.415689 176.960438 
" clip-path="url(#p708062f030)" style="fill: none; stroke: #d3d3d3; stroke-width: 3"/>
    <path d="M 199.931149 170.829606 
L 199.931149 170.481712 
" clip-path="url(#p708062f030)" style="fill: none; stroke: #d3d3d3; stroke-width: 3"/>
    <path d="M 202.189392 239.401317 
L 202.189392 239.29304 
" clip-path="url(#p708062f030)" style="fill: none; stroke: #d3d3d3; stroke-width: 3"/>
    <path d="M 205.665338 192.189914 
L 205.665338 191.660877 
" clip-path="url(#p708062f030)" style="fill: none; stroke: #d3d3d3; stroke-width: 3"/>
    <path d="M 224.156155 156.947257 
L 224.156155 156.824412 
" clip-path="url(#p708062f030)" style="fill: none; stroke: #d3d3d3; stroke-width: 3"/>
    <path d="M 228.489864 177.476777 
L 228.489864 176.633461 
" clip-path="url(#p708062f030)" style="fill: none; stroke: #d3d3d3; stroke-width: 3"/>
    <path d="M 230.934891 279.608615 
L 230.934891 279.45989 
" clip-path="url(#p708062f030)" style="fill: none; stroke: #d3d3d3; stroke-width: 3"/>
    <path d="M 237.911635 259.558732 
L 237.911635 259.417083 
" clip-path="url(#p708062f030)" style="fill: none; stroke: #d3d3d3; stroke-width: 3"/>
    <path d="M 240.931444 275.069453 
L 240.931444 274.696464 
" clip-path="url(#p708062f030)" style="fill: none; stroke: #d3d3d3; stroke-width: 3"/>
    <path d="M 243.442206 257.199922 
L 243.442206 257.024113 
" clip-path="url(#p708062f030)" style="fill: none; stroke: #d3d3d3; stroke-width: 3"/>
    <path d="M 245.558557 176.443763 
L 245.558557 176.413113 
" clip-path="url(#p708062f030)" style="fill: none; stroke: #d3d3d3; stroke-width: 3"/>
    <path d="M 251.169292 178.729496 
L 251.169292 178.273621 
" clip-path="url(#p708062f030)" style="fill: none; stroke: #d3d3d3; stroke-width: 3"/>
    <path d="M 270.132279 260.570296 
L 270.132279 260.345541 
" clip-path="url(#p708062f030)" style="fill: none; stroke: #d3d3d3; stroke-width: 3"/>
    <path d="M 274.668806 277.079546 
L 274.668806 277.057783 
" clip-path="url(#p708062f030)" style="fill: none; stroke: #d3d3d3; stroke-width: 3"/>
    <path d="M 288.170164 244.210696 
L 288.170164 243.886474 
" clip-path="url(#p708062f030)" style="fill: none; stroke: #d3d3d3; stroke-width: 3"/>
    <path d="M 291.317435 250.927089 
L 291.317435 250.768369 
" clip-path="url(#p708062f030)" style="fill: none; stroke: #d3d3d3; stroke-width: 3"/>
    <path d="M 301.949695 228.849972 
L 301.949695 228.501674 
" clip-path="url(#p708062f030)" style="fill: none; stroke: #d3d3d3; stroke-width: 3"/>
    <path d="M 308.402962 232.823123 
L 308.402962 232.693897 
" clip-path="url(#p708062f030)" style="fill: none; stroke: #d3d3d3; stroke-width: 3"/>
    <path d="M 314.061796 216.075004 
L 314.061796 215.869857 
" clip-path="url(#p708062f030)" style="fill: none; stroke: #d3d3d3; stroke-width: 3"/>
    <path d="M 316.608633 171.837135 
L 316.608633 171.626104 
" clip-path="url(#p708062f030)" style="fill: none; stroke: #d3d3d3; stroke-width: 3"/>
    <path d="M 330.449088 271.649021 
L 330.449088 271.555033 
" clip-path="url(#p708062f030)" style="fill: none; stroke: #d3d3d3; stroke-width: 3"/>
    <path d="M 330.589376 265.585681 
L 330.589376 265.439578 
" clip-path="url(#p708062f030)" style="fill: none; stroke: #d3d3d3; stroke-width: 3"/>
    <path d="M 385.194602 277.443051 
L 385.194602 277.149227 
" clip-path="url(#p708062f030)" style="fill: none; stroke: #d3d3d3; stroke-width: 3"/>
   </g>
   <g id="line2d_15">
    <path d="M 179.588526 184.424503 
L 188.529307 188.16885 
L 194.669932 190.740508 
L 200.687103 193.260464 
L 225.890119 203.815341 
L 227.493416 204.486792 
L 228.450584 204.887648 
L 230.586976 205.782357 
L 232.829988 206.721717 
L 253.222313 215.261904 
L 254.339811 215.729906 
L 259.102402 217.724451 
L 272.809784 223.465023 
L 295.243908 232.860303 
L 297.680116 233.880573 
L 316.729682 241.85842 
L 63.886648 135.96923 
L 99.899889 151.051366 
L 104.402747 152.937136 
L 130.206999 163.743807 
L 133.420807 165.089731 
L 153.733769 173.596681 
L 159.878402 176.170018 
L 163.017657 177.484719 
L 168.882514 179.940888 
L 175.397509 182.669329 
L 179.259048 184.286519 
L 182.924183 185.821457 
L 194.306786 190.588424 
L 197.191116 191.796365 
L 197.484519 191.91924 
L 198.729478 192.440622 
L 199.415689 192.728003 
L 199.931149 192.943875 
L 202.189392 193.889614 
L 205.665338 195.34532 
L 224.156155 203.089166 
L 228.489864 204.904099 
L 230.934891 205.928062 
L 237.911635 208.849881 
L 240.931444 210.11456 
L 243.442206 211.166052 
L 245.558557 212.052368 
L 251.169292 214.402111 
L 270.132279 222.343699 
L 274.668806 224.243571 
L 288.170164 229.897861 
L 291.317435 231.215919 
L 301.949695 235.668648 
L 308.402962 238.371239 
L 314.061796 240.741125 
L 316.608633 241.807726 
L 330.449088 247.604028 
L 330.589376 247.66278 
L 385.194602 270.53113 
" clip-path="url(#p708062f030)" style="fill: none; stroke: #1f77b4; stroke-width: 1.5; stroke-linecap: square"/>
   </g>
   <g id="line2d_16">
    <g clip-path="url(#p708062f030)">
     <use xlink:href="#m26198de75d" x="179.588526" y="175.533292" style="fill: #3cb371; stroke: #3cb371"/>
     <use xlink:href="#m26198de75d" x="188.529307" y="184.545597" style="fill: #3cb371; stroke: #3cb371"/>
     <use xlink:href="#m26198de75d" x="194.669932" y="62.218703" style="fill: #3cb371; stroke: #3cb371"/>
     <use xlink:href="#m26198de75d" x="200.687103" y="158.534951" style="fill: #3cb371; stroke: #3cb371"/>
     <use xlink:href="#m26198de75d" x="225.890119" y="213.632484" style="fill: #3cb371; stroke: #3cb371"/>
     <use xlink:href="#m26198de75d" x="227.493416" y="298.8848" style="fill: #3cb371; stroke: #3cb371"/>
     <use xlink:href="#m26198de75d" x="228.450584" y="210.613895" style="fill: #3cb371; stroke: #3cb371"/>
     <use xlink:href="#m26198de75d" x="230.586976" y="260.744707" style="fill: #3cb371; stroke: #3cb371"/>
     <use xlink:href="#m26198de75d" x="232.829988" y="182.592809" style="fill: #3cb371; stroke: #3cb371"/>
     <use xlink:href="#m26198de75d" x="253.222313" y="208.656524" style="fill: #3cb371; stroke: #3cb371"/>
     <use xlink:href="#m26198de75d" x="254.339811" y="286.97302" style="fill: #3cb371; stroke: #3cb371"/>
     <use xlink:href="#m26198de75d" x="259.102402" y="161.433301" style="fill: #3cb371; stroke: #3cb371"/>
     <use xlink:href="#m26198de75d" x="272.809784" y="189.364648" style="fill: #3cb371; stroke: #3cb371"/>
     <use xlink:href="#m26198de75d" x="295.243908" y="187.460675" style="fill: #3cb371; stroke: #3cb371"/>
     <use xlink:href="#m26198de75d" x="297.680116" y="227.413543" style="fill: #3cb371; stroke: #3cb371"/>
     <use xlink:href="#m26198de75d" x="316.729682" y="231.057311" style="fill: #3cb371; stroke: #3cb371"/>
     <use xlink:href="#m26198de75d" x="63.886648" y="151.056744" style="fill: #3cb371; stroke: #3cb371"/>
     <use xlink:href="#m26198de75d" x="99.899889" y="164.176528" style="fill: #3cb371; stroke: #3cb371"/>
     <use xlink:href="#m26198de75d" x="104.402747" y="165.359189" style="fill: #3cb371; stroke: #3cb371"/>
     <use xlink:href="#m26198de75d" x="130.206999" y="160.40586" style="fill: #3cb371; stroke: #3cb371"/>
     <use xlink:href="#m26198de75d" x="133.420807" y="185.60979" style="fill: #3cb371; stroke: #3cb371"/>
     <use xlink:href="#m26198de75d" x="153.733769" y="157.580375" style="fill: #3cb371; stroke: #3cb371"/>
     <use xlink:href="#m26198de75d" x="159.878402" y="167.975182" style="fill: #3cb371; stroke: #3cb371"/>
     <use xlink:href="#m26198de75d" x="163.017657" y="183.480873" style="fill: #3cb371; stroke: #3cb371"/>
     <use xlink:href="#m26198de75d" x="168.882514" y="161.906696" style="fill: #3cb371; stroke: #3cb371"/>
     <use xlink:href="#m26198de75d" x="175.397509" y="195.066445" style="fill: #3cb371; stroke: #3cb371"/>
     <use xlink:href="#m26198de75d" x="179.259048" y="172.868558" style="fill: #3cb371; stroke: #3cb371"/>
     <use xlink:href="#m26198de75d" x="182.924183" y="181.530148" style="fill: #3cb371; stroke: #3cb371"/>
     <use xlink:href="#m26198de75d" x="194.306786" y="134.577781" style="fill: #3cb371; stroke: #3cb371"/>
     <use xlink:href="#m26198de75d" x="197.191116" y="157.522014" style="fill: #3cb371; stroke: #3cb371"/>
     <use xlink:href="#m26198de75d" x="197.484519" y="186.960929" style="fill: #3cb371; stroke: #3cb371"/>
     <use xlink:href="#m26198de75d" x="198.729478" y="233.518659" style="fill: #3cb371; stroke: #3cb371"/>
     <use xlink:href="#m26198de75d" x="199.415689" y="177.030701" style="fill: #3cb371; stroke: #3cb371"/>
     <use xlink:href="#m26198de75d" x="199.931149" y="170.655659" style="fill: #3cb371; stroke: #3cb371"/>
     <use xlink:href="#m26198de75d" x="202.189392" y="239.347179" style="fill: #3cb371; stroke: #3cb371"/>
     <use xlink:href="#m26198de75d" x="205.665338" y="191.925396" style="fill: #3cb371; stroke: #3cb371"/>
     <use xlink:href="#m26198de75d" x="224.156155" y="156.885834" style="fill: #3cb371; stroke: #3cb371"/>
     <use xlink:href="#m26198de75d" x="228.489864" y="177.055119" style="fill: #3cb371; stroke: #3cb371"/>
     <use xlink:href="#m26198de75d" x="230.934891" y="279.534253" style="fill: #3cb371; stroke: #3cb371"/>
     <use xlink:href="#m26198de75d" x="237.911635" y="259.487907" style="fill: #3cb371; stroke: #3cb371"/>
     <use xlink:href="#m26198de75d" x="240.931444" y="274.882959" style="fill: #3cb371; stroke: #3cb371"/>
     <use xlink:href="#m26198de75d" x="243.442206" y="257.112018" style="fill: #3cb371; stroke: #3cb371"/>
     <use xlink:href="#m26198de75d" x="245.558557" y="176.428438" style="fill: #3cb371; stroke: #3cb371"/>
     <use xlink:href="#m26198de75d" x="251.169292" y="178.501558" style="fill: #3cb371; stroke: #3cb371"/>
     <use xlink:href="#m26198de75d" x="270.132279" y="260.457918" style="fill: #3cb371; stroke: #3cb371"/>
     <use xlink:href="#m26198de75d" x="274.668806" y="277.068664" style="fill: #3cb371; stroke: #3cb371"/>
     <use xlink:href="#m26198de75d" x="288.170164" y="244.048585" style="fill: #3cb371; stroke: #3cb371"/>
     <use xlink:href="#m26198de75d" x="291.317435" y="250.847729" style="fill: #3cb371; stroke: #3cb371"/>
     <use xlink:href="#m26198de75d" x="301.949695" y="228.675823" style="fill: #3cb371; stroke: #3cb371"/>
     <use xlink:href="#m26198de75d" x="308.402962" y="232.75851" style="fill: #3cb371; stroke: #3cb371"/>
     <use xlink:href="#m26198de75d" x="314.061796" y="215.972431" style="fill: #3cb371; stroke: #3cb371"/>
     <use xlink:href="#m26198de75d" x="316.608633" y="171.73162" style="fill: #3cb371; stroke: #3cb371"/>
     <use xlink:href="#m26198de75d" x="330.449088" y="271.602027" style="fill: #3cb371; stroke: #3cb371"/>
     <use xlink:href="#m26198de75d" x="330.589376" y="265.51263" style="fill: #3cb371; stroke: #3cb371"/>
     <use xlink:href="#m26198de75d" x="385.194602" y="277.296139" style="fill: #3cb371; stroke: #3cb371"/>
    </g>
   </g>
   <g id="patch_3">
    <path d="M 47.82125 303.64 
L 47.82125 47.77344 
" style="fill: none; stroke: #000000; stroke-width: 0.8; stroke-linejoin: miter; stroke-linecap: square"/>
   </g>
   <g id="patch_4">
    <path d="M 401.26 303.64 
L 401.26 47.77344 
" style="fill: none; stroke: #000000; stroke-width: 0.8; stroke-linejoin: miter; stroke-linecap: square"/>
   </g>
   <g id="patch_5">
    <path d="M 47.82125 303.64 
L 401.26 303.64 
" style="fill: none; stroke: #000000; stroke-width: 0.8; stroke-linejoin: miter; stroke-linecap: square"/>
   </g>
   <g id="patch_6">
    <path d="M 47.82125 47.77344 
L 401.26 47.77344 
" style="fill: none; stroke: #000000; stroke-width: 0.8; stroke-linejoin: miter; stroke-linecap: square"/>
   </g>
   <g id="text_17">
    <!-- y = -0.03x + 0.13 -->
    <g transform="translate(38.440906 19.828828)scale(0.1 -0.1)">
     <defs>
      <path id="DejaVuSans-79" d="M 2059 -325 
Q 1816 -950 1584 -1140 
Q 1353 -1331 966 -1331 
L 506 -1331 
L 506 -850 
L 844 -850 
Q 1081 -850 1212 -737 
Q 1344 -625 1503 -206 
L 1606 56 
L 191 3500 
L 800 3500 
L 1894 763 
L 2988 3500 
L 3597 3500 
L 2059 -325 
z
" transform="scale(0.015625)"/>
      <path id="DejaVuSans-20" transform="scale(0.015625)"/>
      <path id="DejaVuSans-3d" d="M 678 2906 
L 4684 2906 
L 4684 2381 
L 678 2381 
L 678 2906 
z
M 678 1631 
L 4684 1631 
L 4684 1100 
L 678 1100 
L 678 1631 
z
" transform="scale(0.015625)"/>
      <path id="DejaVuSans-2d" d="M 313 2009 
L 1997 2009 
L 1997 1497 
L 313 1497 
L 313 2009 
z
" transform="scale(0.015625)"/>
      <path id="DejaVuSans-78" d="M 3513 3500 
L 2247 1797 
L 3578 0 
L 2900 0 
L 1881 1375 
L 863 0 
L 184 0 
L 1544 1831 
L 300 3500 
L 978 3500 
L 1906 2253 
L 2834 3500 
L 3513 3500 
z
" transform="scale(0.015625)"/>
      <path id="DejaVuSans-2b" d="M 2944 4013 
L 2944 2272 
L 4684 2272 
L 4684 1741 
L 2944 1741 
L 2944 0 
L 2419 0 
L 2419 1741 
L 678 1741 
L 678 2272 
L 2419 2272 
L 2419 4013 
L 2944 4013 
z
" transform="scale(0.015625)"/>
     </defs>
     <use xlink:href="#DejaVuSans-79"/>
     <use xlink:href="#DejaVuSans-20" x="59.179688"/>
     <use xlink:href="#DejaVuSans-3d" x="90.966797"/>
     <use xlink:href="#DejaVuSans-20" x="174.755859"/>
     <use xlink:href="#DejaVuSans-2d" x="206.542969"/>
     <use xlink:href="#DejaVuSans-30" x="242.626953"/>
     <use xlink:href="#DejaVuSans-2e" x="306.25"/>
     <use xlink:href="#DejaVuSans-30" x="338.037109"/>
     <use xlink:href="#DejaVuSans-33" x="401.660156"/>
     <use xlink:href="#DejaVuSans-78" x="465.283203"/>
     <use xlink:href="#DejaVuSans-20" x="524.462891"/>
     <use xlink:href="#DejaVuSans-2b" x="556.25"/>
     <use xlink:href="#DejaVuSans-20" x="640.039062"/>
     <use xlink:href="#DejaVuSans-30" x="671.826172"/>
     <use xlink:href="#DejaVuSans-2e" x="735.449219"/>
     <use xlink:href="#DejaVuSans-31" x="767.236328"/>
     <use xlink:href="#DejaVuSans-33" x="830.859375"/>
    </g>
   </g>
   <g id="text_18">
    <!-- r^2 = 0.32 -->
    <g transform="translate(55.237781 27.504825)scale(0.1 -0.1)">
     <defs>
      <path id="DejaVuSans-5e" d="M 2988 4666 
L 4684 2925 
L 4056 2925 
L 2681 4159 
L 1306 2925 
L 678 2925 
L 2375 4666 
L 2988 4666 
z
" transform="scale(0.015625)"/>
     </defs>
     <use xlink:href="#DejaVuSans-72"/>
     <use xlink:href="#DejaVuSans-5e" x="41.113281"/>
     <use xlink:href="#DejaVuSans-32" x="124.902344"/>
     <use xlink:href="#DejaVuSans-20" x="188.525391"/>
     <use xlink:href="#DejaVuSans-3d" x="220.3125"/>
     <use xlink:href="#DejaVuSans-20" x="304.101562"/>
     <use xlink:href="#DejaVuSans-30" x="335.888672"/>
     <use xlink:href="#DejaVuSans-2e" x="399.511719"/>
     <use xlink:href="#DejaVuSans-33" x="431.298828"/>
     <use xlink:href="#DejaVuSans-32" x="494.921875"/>
    </g>
   </g>
   <g id="text_19">
    <!-- n = 55 -->
    <g transform="translate(66.265906 35.180821)scale(0.1 -0.1)">
     <use xlink:href="#DejaVuSans-6e"/>
     <use xlink:href="#DejaVuSans-20" x="63.378906"/>
     <use xlink:href="#DejaVuSans-3d" x="95.166016"/>
     <use xlink:href="#DejaVuSans-20" x="178.955078"/>
     <use xlink:href="#DejaVuSans-35" x="210.742188"/>
     <use xlink:href="#DejaVuSans-35" x="274.365234"/>
    </g>
   </g>
   <g id="text_20">
    <!-- Total vs PercentGpA_transformed -->
    <g transform="translate(124.992187 41.77344)scale(0.12 -0.12)">
     <defs>
      <path id="DejaVuSans-76" d="M 191 3500 
L 800 3500 
L 1894 563 
L 2988 3500 
L 3597 3500 
L 2284 0 
L 1503 0 
L 191 3500 
z
" transform="scale(0.015625)"/>
     </defs>
     <use xlink:href="#DejaVuSans-54"/>
     <use xlink:href="#DejaVuSans-6f" x="44.083984"/>
     <use xlink:href="#DejaVuSans-74" x="105.265625"/>
     <use xlink:href="#DejaVuSans-61" x="144.474609"/>
     <use xlink:href="#DejaVuSans-6c" x="205.753906"/>
     <use xlink:href="#DejaVuSans-20" x="233.537109"/>
     <use xlink:href="#DejaVuSans-76" x="265.324219"/>
     <use xlink:href="#DejaVuSans-73" x="324.503906"/>
     <use xlink:href="#DejaVuSans-20" x="376.603516"/>
     <use xlink:href="#DejaVuSans-50" x="408.390625"/>
     <use xlink:href="#DejaVuSans-65" x="465.068359"/>
     <use xlink:href="#DejaVuSans-72" x="526.591797"/>
     <use xlink:href="#DejaVuSans-63" x="565.455078"/>
     <use xlink:href="#DejaVuSans-65" x="620.435547"/>
     <use xlink:href="#DejaVuSans-6e" x="681.958984"/>
     <use xlink:href="#DejaVuSans-74" x="745.337891"/>
     <use xlink:href="#DejaVuSans-47" x="784.546875"/>
     <use xlink:href="#DejaVuSans-70" x="862.037109"/>
     <use xlink:href="#DejaVuSans-41" x="925.513672"/>
     <use xlink:href="#DejaVuSans-5f" x="993.921875"/>
     <use xlink:href="#DejaVuSans-74" x="1043.921875"/>
     <use xlink:href="#DejaVuSans-72" x="1083.130859"/>
     <use xlink:href="#DejaVuSans-61" x="1124.244141"/>
     <use xlink:href="#DejaVuSans-6e" x="1185.523438"/>
     <use xlink:href="#DejaVuSans-73" x="1248.902344"/>
     <use xlink:href="#DejaVuSans-66" x="1301.001953"/>
     <use xlink:href="#DejaVuSans-6f" x="1336.207031"/>
     <use xlink:href="#DejaVuSans-72" x="1397.388672"/>
     <use xlink:href="#DejaVuSans-6d" x="1436.751953"/>
     <use xlink:href="#DejaVuSans-65" x="1534.164062"/>
     <use xlink:href="#DejaVuSans-64" x="1595.6875"/>
    </g>
   </g>
   <g id="legend_1">
    <g id="patch_7">
     <path d="M 408.26 70.451565 
L 447.96 70.451565 
Q 449.96 70.451565 449.96 68.451565 
L 449.96 54.77344 
Q 449.96 52.77344 447.96 52.77344 
L 408.26 52.77344 
Q 406.26 52.77344 406.26 54.77344 
L 406.26 68.451565 
Q 406.26 70.451565 408.26 70.451565 
z
" style="fill: #ffffff; opacity: 0.8; stroke: #cccccc; stroke-linejoin: miter"/>
    </g>
    <g id="PathCollection_2">
     <g>
      <use xlink:href="#m26198de75d" x="420.26" y="61.746878" style="fill: #3cb371; stroke: #3cb371"/>
     </g>
    </g>
    <g id="text_21">
     <!-- D -->
     <g transform="translate(438.26 64.371878)scale(0.1 -0.1)">
      <defs>
       <path id="DejaVuSans-44" d="M 1259 4147 
L 1259 519 
L 2022 519 
Q 2988 519 3436 956 
Q 3884 1394 3884 2338 
Q 3884 3275 3436 3711 
Q 2988 4147 2022 4147 
L 1259 4147 
z
M 628 4666 
L 1925 4666 
Q 3281 4666 3915 4102 
Q 4550 3538 4550 2338 
Q 4550 1131 3912 565 
Q 3275 0 1925 0 
L 628 0 
L 628 4666 
z
" transform="scale(0.015625)"/>
      </defs>
      <use xlink:href="#DejaVuSans-44"/>
     </g>
    </g>
   </g>
  </g>
 </g>
 <defs>
  <clipPath id="p708062f030">
   <rect x="47.82125" y="47.77344" width="353.43875" height="255.86656"/>
  </clipPath>
 </defs>
</svg>
