<?xml version="1.0" encoding="utf-8" standalone="no"?>
<!DOCTYPE svg PUBLIC "-//W3C//DTD SVG 1.1//EN"
  "http://www.w3.org/Graphics/SVG/1.1/DTD/svg11.dtd">
<svg xmlns:xlink="http://www.w3.org/1999/xlink" width="460.8pt" height="345.6pt" viewBox="0 0 460.8 345.6" xmlns="http://www.w3.org/2000/svg" version="1.1">
 <metadata>
  <rdf:RDF xmlns:dc="http://purl.org/dc/elements/1.1/" xmlns:cc="http://creativecommons.org/ns#" xmlns:rdf="http://www.w3.org/1999/02/22-rdf-syntax-ns#">
   <cc:Work>
    <dc:type rdf:resource="http://purl.org/dc/dcmitype/StillImage"/>
    <dc:date>2024-02-15T22:04:42.122216</dc:date>
    <dc:format>image/svg+xml</dc:format>
    <dc:creator>
     <cc:Agent>
      <dc:title>Matplotlib v3.5.3, https://matplotlib.org/</dc:title>
     </cc:Agent>
    </dc:creator>
   </cc:Work>
  </rdf:RDF>
 </metadata>
 <defs>
  <style type="text/css">*{stroke-linejoin: round; stroke-linecap: butt}</style>
 </defs>
 <g id="figure_1">
  <g id="patch_1">
   <path d="M 0 345.6 
L 460.8 345.6 
L 460.8 0 
L 0 0 
z
" style="fill: #ffffff"/>
  </g>
  <g id="axes_1">
   <g id="patch_2">
    <path d="M 47.82125 303.64 
L 450 303.64 
L 450 46.675942 
L 47.82125 46.675942 
z
" style="fill: #ffffff"/>
   </g>
   <g id="PathCollection_1">
    <defs>
     <path id="m5228a6f45e" d="M 0 3 
C 0.795609 3 1.55874 2.683901 2.12132 2.12132 
C 2.683901 1.55874 3 0.795609 3 0 
C 3 -0.795609 2.683901 -1.55874 2.12132 -2.12132 
C 1.55874 -2.683901 0.795609 -3 0 -3 
C -0.795609 -3 -1.55874 -2.683901 -2.12132 -2.12132 
C -2.683901 -1.55874 -3 -0.795609 -3 0 
C -3 0.795609 -2.683901 1.55874 -2.12132 2.12132 
C -1.55874 2.683901 -0.795609 3 0 3 
z
" style="stroke: #1f77b4"/>
    </defs>
    <g clip-path="url(#pcea675c574)">
     <use xlink:href="#m5228a6f45e" x="244.329588" y="174.983799" style="fill: #1f77b4; stroke: #1f77b4"/>
     <use xlink:href="#m5228a6f45e" x="268.421933" y="184.034761" style="fill: #1f77b4; stroke: #1f77b4"/>
     <use xlink:href="#m5228a6f45e" x="165.055298" y="61.183165" style="fill: #1f77b4; stroke: #1f77b4"/>
     <use xlink:href="#m5228a6f45e" x="200.795768" y="157.912546" style="fill: #1f77b4; stroke: #1f77b4"/>
     <use xlink:href="#m5228a6f45e" x="251.997238" y="213.246412" style="fill: #1f77b4; stroke: #1f77b4"/>
     <use xlink:href="#m5228a6f45e" x="225.209344" y="298.864403" style="fill: #1f77b4; stroke: #1f77b4"/>
     <use xlink:href="#m5228a6f45e" x="298.561805" y="210.214875" style="fill: #1f77b4; stroke: #1f77b4"/>
     <use xlink:href="#m5228a6f45e" x="175.69783" y="260.560714" style="fill: #1f77b4; stroke: #1f77b4"/>
     <use xlink:href="#m5228a6f45e" x="144.454598" y="182.073597" style="fill: #1f77b4; stroke: #1f77b4"/>
     <use xlink:href="#m5228a6f45e" x="298.226607" y="208.249108" style="fill: #1f77b4; stroke: #1f77b4"/>
     <use xlink:href="#m5228a6f45e" x="305.60096" y="286.90153" style="fill: #1f77b4; stroke: #1f77b4"/>
     <use xlink:href="#m5228a6f45e" x="248.715093" y="160.823329" style="fill: #1f77b4; stroke: #1f77b4"/>
     <use xlink:href="#m5228a6f45e" x="278.533734" y="188.874482" style="fill: #1f77b4; stroke: #1f77b4"/>
     <use xlink:href="#m5228a6f45e" x="417.87827" y="186.962343" style="fill: #1f77b4; stroke: #1f77b4"/>
     <use xlink:href="#m5228a6f45e" x="145.069127" y="227.086582" style="fill: #1f77b4; stroke: #1f77b4"/>
     <use xlink:href="#m5228a6f45e" x="431.719148" y="230.745979" style="fill: #1f77b4; stroke: #1f77b4"/>
     <use xlink:href="#m5228a6f45e" x="124.41256" y="150.402263" style="fill: #1f77b4; stroke: #1f77b4"/>
     <use xlink:href="#m5228a6f45e" x="125.976817" y="163.578322" style="fill: #1f77b4; stroke: #1f77b4"/>
     <use xlink:href="#m5228a6f45e" x="104.230857" y="164.766056" style="fill: #1f77b4; stroke: #1f77b4"/>
     <use xlink:href="#m5228a6f45e" x="183.840344" y="159.791481" style="fill: #1f77b4; stroke: #1f77b4"/>
     <use xlink:href="#m5228a6f45e" x="184.538673" y="185.103519" style="fill: #1f77b4; stroke: #1f77b4"/>
     <use xlink:href="#m5228a6f45e" x="117.010274" y="156.953876" style="fill: #1f77b4; stroke: #1f77b4"/>
     <use xlink:href="#m5228a6f45e" x="160.376495" y="167.393269" style="fill: #1f77b4; stroke: #1f77b4"/>
     <use xlink:href="#m5228a6f45e" x="192.010791" y="182.96547" style="fill: #1f77b4; stroke: #1f77b4"/>
     <use xlink:href="#m5228a6f45e" x="172.178252" y="161.298754" style="fill: #1f77b4; stroke: #1f77b4"/>
     <use xlink:href="#m5228a6f45e" x="127.708672" y="194.600737" style="fill: #1f77b4; stroke: #1f77b4"/>
     <use xlink:href="#m5228a6f45e" x="190.935365" y="172.307635" style="fill: #1f77b4; stroke: #1f77b4"/>
     <use xlink:href="#m5228a6f45e" x="130.418188" y="181.006377" style="fill: #1f77b4; stroke: #1f77b4"/>
     <use xlink:href="#m5228a6f45e" x="151.842917" y="133.852616" style="fill: #1f77b4; stroke: #1f77b4"/>
     <use xlink:href="#m5228a6f45e" x="88.867622" y="156.895264" style="fill: #1f77b4; stroke: #1f77b4"/>
     <use xlink:href="#m5228a6f45e" x="165.516195" y="186.460453" style="fill: #1f77b4; stroke: #1f77b4"/>
     <use xlink:href="#m5228a6f45e" x="84.244685" y="233.217885" style="fill: #1f77b4; stroke: #1f77b4"/>
     <use xlink:href="#m5228a6f45e" x="162.415615" y="176.487631" style="fill: #1f77b4; stroke: #1f77b4"/>
     <use xlink:href="#m5228a6f45e" x="176.102861" y="170.085244" style="fill: #1f77b4; stroke: #1f77b4"/>
     <use xlink:href="#m5228a6f45e" x="112.932034" y="239.071405" style="fill: #1f77b4; stroke: #1f77b4"/>
     <use xlink:href="#m5228a6f45e" x="194.063878" y="191.446214" style="fill: #1f77b4; stroke: #1f77b4"/>
     <use xlink:href="#m5228a6f45e" x="78.644088" y="156.256356" style="fill: #1f77b4; stroke: #1f77b4"/>
     <use xlink:href="#m5228a6f45e" x="116.758876" y="176.512153" style="fill: #1f77b4; stroke: #1f77b4"/>
     <use xlink:href="#m5228a6f45e" x="133.7981" y="279.430855" style="fill: #1f77b4; stroke: #1f77b4"/>
     <use xlink:href="#m5228a6f45e" x="66.102102" y="259.298524" style="fill: #1f77b4; stroke: #1f77b4"/>
     <use xlink:href="#m5228a6f45e" x="96.46544" y="274.75961" style="fill: #1f77b4; stroke: #1f77b4"/>
     <use xlink:href="#m5228a6f45e" x="84.677649" y="256.912443" style="fill: #1f77b4; stroke: #1f77b4"/>
     <use xlink:href="#m5228a6f45e" x="196.689595" y="175.882784" style="fill: #1f77b4; stroke: #1f77b4"/>
     <use xlink:href="#m5228a6f45e" x="134.258997" y="177.964797" style="fill: #1f77b4; stroke: #1f77b4"/>
     <use xlink:href="#m5228a6f45e" x="166.284357" y="260.272696" style="fill: #1f77b4; stroke: #1f77b4"/>
     <use xlink:href="#m5228a6f45e" x="140.236692" y="276.954691" style="fill: #1f77b4; stroke: #1f77b4"/>
     <use xlink:href="#m5228a6f45e" x="154.468633" y="243.792977" style="fill: #1f77b4; stroke: #1f77b4"/>
     <use xlink:href="#m5228a6f45e" x="131.940545" y="250.621285" style="fill: #1f77b4; stroke: #1f77b4"/>
     <use xlink:href="#m5228a6f45e" x="156.56362" y="228.354276" style="fill: #1f77b4; stroke: #1f77b4"/>
     <use xlink:href="#m5228a6f45e" x="83.518423" y="232.454475" style="fill: #1f77b4; stroke: #1f77b4"/>
     <use xlink:href="#m5228a6f45e" x="142.876375" y="215.596395" style="fill: #1f77b4; stroke: #1f77b4"/>
     <use xlink:href="#m5228a6f45e" x="169.650302" y="171.16582" style="fill: #1f77b4; stroke: #1f77b4"/>
     <use xlink:href="#m5228a6f45e" x="87.917895" y="271.464605" style="fill: #1f77b4; stroke: #1f77b4"/>
     <use xlink:href="#m5228a6f45e" x="146.814949" y="265.349089" style="fill: #1f77b4; stroke: #1f77b4"/>
     <use xlink:href="#m5228a6f45e" x="94.621852" y="277.183141" style="fill: #1f77b4; stroke: #1f77b4"/>
    </g>
   </g>
   <g id="matplotlib.axis_1">
    <g id="xtick_1">
     <g id="line2d_1">
      <defs>
       <path id="m232cfa853b" d="M 0 0 
L 0 3.5 
" style="stroke: #000000; stroke-width: 0.8"/>
      </defs>
      <g>
       <use xlink:href="#m232cfa853b" x="61.632798" y="303.64" style="stroke: #000000; stroke-width: 0.8"/>
      </g>
     </g>
     <g id="text_1">
      <!-- 15 -->
      <g transform="translate(55.270298 318.238437)scale(0.1 -0.1)">
       <defs>
        <path id="DejaVuSans-31" d="M 794 531 
L 1825 531 
L 1825 4091 
L 703 3866 
L 703 4441 
L 1819 4666 
L 2450 4666 
L 2450 531 
L 3481 531 
L 3481 0 
L 794 0 
L 794 531 
z
" transform="scale(0.015625)"/>
        <path id="DejaVuSans-35" d="M 691 4666 
L 3169 4666 
L 3169 4134 
L 1269 4134 
L 1269 2991 
Q 1406 3038 1543 3061 
Q 1681 3084 1819 3084 
Q 2600 3084 3056 2656 
Q 3513 2228 3513 1497 
Q 3513 744 3044 326 
Q 2575 -91 1722 -91 
Q 1428 -91 1123 -41 
Q 819 9 494 109 
L 494 744 
Q 775 591 1075 516 
Q 1375 441 1709 441 
Q 2250 441 2565 725 
Q 2881 1009 2881 1497 
Q 2881 1984 2565 2268 
Q 2250 2553 1709 2553 
Q 1456 2553 1204 2497 
Q 953 2441 691 2322 
L 691 4666 
z
" transform="scale(0.015625)"/>
       </defs>
       <use xlink:href="#DejaVuSans-31"/>
       <use xlink:href="#DejaVuSans-35" x="63.623047"/>
      </g>
     </g>
    </g>
    <g id="xtick_2">
     <g id="line2d_2">
      <g>
       <use xlink:href="#m232cfa853b" x="131.465681" y="303.64" style="stroke: #000000; stroke-width: 0.8"/>
      </g>
     </g>
     <g id="text_2">
      <!-- 20 -->
      <g transform="translate(125.103181 318.238437)scale(0.1 -0.1)">
       <defs>
        <path id="DejaVuSans-32" d="M 1228 531 
L 3431 531 
L 3431 0 
L 469 0 
L 469 531 
Q 828 903 1448 1529 
Q 2069 2156 2228 2338 
Q 2531 2678 2651 2914 
Q 2772 3150 2772 3378 
Q 2772 3750 2511 3984 
Q 2250 4219 1831 4219 
Q 1534 4219 1204 4116 
Q 875 4013 500 3803 
L 500 4441 
Q 881 4594 1212 4672 
Q 1544 4750 1819 4750 
Q 2544 4750 2975 4387 
Q 3406 4025 3406 3419 
Q 3406 3131 3298 2873 
Q 3191 2616 2906 2266 
Q 2828 2175 2409 1742 
Q 1991 1309 1228 531 
z
" transform="scale(0.015625)"/>
        <path id="DejaVuSans-30" d="M 2034 4250 
Q 1547 4250 1301 3770 
Q 1056 3291 1056 2328 
Q 1056 1369 1301 889 
Q 1547 409 2034 409 
Q 2525 409 2770 889 
Q 3016 1369 3016 2328 
Q 3016 3291 2770 3770 
Q 2525 4250 2034 4250 
z
M 2034 4750 
Q 2819 4750 3233 4129 
Q 3647 3509 3647 2328 
Q 3647 1150 3233 529 
Q 2819 -91 2034 -91 
Q 1250 -91 836 529 
Q 422 1150 422 2328 
Q 422 3509 836 4129 
Q 1250 4750 2034 4750 
z
" transform="scale(0.015625)"/>
       </defs>
       <use xlink:href="#DejaVuSans-32"/>
       <use xlink:href="#DejaVuSans-30" x="63.623047"/>
      </g>
     </g>
    </g>
    <g id="xtick_3">
     <g id="line2d_3">
      <g>
       <use xlink:href="#m232cfa853b" x="201.298565" y="303.64" style="stroke: #000000; stroke-width: 0.8"/>
      </g>
     </g>
     <g id="text_3">
      <!-- 25 -->
      <g transform="translate(194.936065 318.238437)scale(0.1 -0.1)">
       <use xlink:href="#DejaVuSans-32"/>
       <use xlink:href="#DejaVuSans-35" x="63.623047"/>
      </g>
     </g>
    </g>
    <g id="xtick_4">
     <g id="line2d_4">
      <g>
       <use xlink:href="#m232cfa853b" x="271.131449" y="303.64" style="stroke: #000000; stroke-width: 0.8"/>
      </g>
     </g>
     <g id="text_4">
      <!-- 30 -->
      <g transform="translate(264.768949 318.238437)scale(0.1 -0.1)">
       <defs>
        <path id="DejaVuSans-33" d="M 2597 2516 
Q 3050 2419 3304 2112 
Q 3559 1806 3559 1356 
Q 3559 666 3084 287 
Q 2609 -91 1734 -91 
Q 1441 -91 1130 -33 
Q 819 25 488 141 
L 488 750 
Q 750 597 1062 519 
Q 1375 441 1716 441 
Q 2309 441 2620 675 
Q 2931 909 2931 1356 
Q 2931 1769 2642 2001 
Q 2353 2234 1838 2234 
L 1294 2234 
L 1294 2753 
L 1863 2753 
Q 2328 2753 2575 2939 
Q 2822 3125 2822 3475 
Q 2822 3834 2567 4026 
Q 2313 4219 1838 4219 
Q 1578 4219 1281 4162 
Q 984 4106 628 3988 
L 628 4550 
Q 988 4650 1302 4700 
Q 1616 4750 1894 4750 
Q 2613 4750 3031 4423 
Q 3450 4097 3450 3541 
Q 3450 3153 3228 2886 
Q 3006 2619 2597 2516 
z
" transform="scale(0.015625)"/>
       </defs>
       <use xlink:href="#DejaVuSans-33"/>
       <use xlink:href="#DejaVuSans-30" x="63.623047"/>
      </g>
     </g>
    </g>
    <g id="xtick_5">
     <g id="line2d_5">
      <g>
       <use xlink:href="#m232cfa853b" x="340.964332" y="303.64" style="stroke: #000000; stroke-width: 0.8"/>
      </g>
     </g>
     <g id="text_5">
      <!-- 35 -->
      <g transform="translate(334.601832 318.238437)scale(0.1 -0.1)">
       <use xlink:href="#DejaVuSans-33"/>
       <use xlink:href="#DejaVuSans-35" x="63.623047"/>
      </g>
     </g>
    </g>
    <g id="xtick_6">
     <g id="line2d_6">
      <g>
       <use xlink:href="#m232cfa853b" x="410.797216" y="303.64" style="stroke: #000000; stroke-width: 0.8"/>
      </g>
     </g>
     <g id="text_6">
      <!-- 40 -->
      <g transform="translate(404.434716 318.238437)scale(0.1 -0.1)">
       <defs>
        <path id="DejaVuSans-34" d="M 2419 4116 
L 825 1625 
L 2419 1625 
L 2419 4116 
z
M 2253 4666 
L 3047 4666 
L 3047 1625 
L 3713 1625 
L 3713 1100 
L 3047 1100 
L 3047 0 
L 2419 0 
L 2419 1100 
L 313 1100 
L 313 1709 
L 2253 4666 
z
" transform="scale(0.015625)"/>
       </defs>
       <use xlink:href="#DejaVuSans-34"/>
       <use xlink:href="#DejaVuSans-30" x="63.623047"/>
      </g>
     </g>
    </g>
    <g id="text_7">
     <!-- IMM1Diff -->
     <g transform="translate(226.866875 331.916562)scale(0.1 -0.1)">
      <defs>
       <path id="DejaVuSans-49" d="M 628 4666 
L 1259 4666 
L 1259 0 
L 628 0 
L 628 4666 
z
" transform="scale(0.015625)"/>
       <path id="DejaVuSans-4d" d="M 628 4666 
L 1569 4666 
L 2759 1491 
L 3956 4666 
L 4897 4666 
L 4897 0 
L 4281 0 
L 4281 4097 
L 3078 897 
L 2444 897 
L 1241 4097 
L 1241 0 
L 628 0 
L 628 4666 
z
" transform="scale(0.015625)"/>
       <path id="DejaVuSans-44" d="M 1259 4147 
L 1259 519 
L 2022 519 
Q 2988 519 3436 956 
Q 3884 1394 3884 2338 
Q 3884 3275 3436 3711 
Q 2988 4147 2022 4147 
L 1259 4147 
z
M 628 4666 
L 1925 4666 
Q 3281 4666 3915 4102 
Q 4550 3538 4550 2338 
Q 4550 1131 3912 565 
Q 3275 0 1925 0 
L 628 0 
L 628 4666 
z
" transform="scale(0.015625)"/>
       <path id="DejaVuSans-69" d="M 603 3500 
L 1178 3500 
L 1178 0 
L 603 0 
L 603 3500 
z
M 603 4863 
L 1178 4863 
L 1178 4134 
L 603 4134 
L 603 4863 
z
" transform="scale(0.015625)"/>
       <path id="DejaVuSans-66" d="M 2375 4863 
L 2375 4384 
L 1825 4384 
Q 1516 4384 1395 4259 
Q 1275 4134 1275 3809 
L 1275 3500 
L 2222 3500 
L 2222 3053 
L 1275 3053 
L 1275 0 
L 697 0 
L 697 3053 
L 147 3053 
L 147 3500 
L 697 3500 
L 697 3744 
Q 697 4328 969 4595 
Q 1241 4863 1831 4863 
L 2375 4863 
z
" transform="scale(0.015625)"/>
      </defs>
      <use xlink:href="#DejaVuSans-49"/>
      <use xlink:href="#DejaVuSans-4d" x="29.492188"/>
      <use xlink:href="#DejaVuSans-4d" x="115.771484"/>
      <use xlink:href="#DejaVuSans-31" x="202.050781"/>
      <use xlink:href="#DejaVuSans-44" x="265.673828"/>
      <use xlink:href="#DejaVuSans-69" x="342.675781"/>
      <use xlink:href="#DejaVuSans-66" x="370.458984"/>
      <use xlink:href="#DejaVuSans-66" x="405.664062"/>
     </g>
    </g>
   </g>
   <g id="matplotlib.axis_2">
    <g id="ytick_1">
     <g id="line2d_7">
      <defs>
       <path id="m9d79f7842e" d="M 0 0 
L -3.5 0 
" style="stroke: #000000; stroke-width: 0.8"/>
      </defs>
      <g>
       <use xlink:href="#m9d79f7842e" x="47.82125" y="303.64" style="stroke: #000000; stroke-width: 0.8"/>
      </g>
     </g>
     <g id="text_8">
      <!-- 0.0 -->
      <g transform="translate(24.918125 307.439219)scale(0.1 -0.1)">
       <defs>
        <path id="DejaVuSans-2e" d="M 684 794 
L 1344 794 
L 1344 0 
L 684 0 
L 684 794 
z
" transform="scale(0.015625)"/>
       </defs>
       <use xlink:href="#DejaVuSans-30"/>
       <use xlink:href="#DejaVuSans-2e" x="63.623047"/>
       <use xlink:href="#DejaVuSans-30" x="95.410156"/>
      </g>
     </g>
    </g>
    <g id="ytick_2">
     <g id="line2d_8">
      <g>
       <use xlink:href="#m9d79f7842e" x="47.82125" y="250.010116" style="stroke: #000000; stroke-width: 0.8"/>
      </g>
     </g>
     <g id="text_9">
      <!-- 0.5 -->
      <g transform="translate(24.918125 253.809334)scale(0.1 -0.1)">
       <use xlink:href="#DejaVuSans-30"/>
       <use xlink:href="#DejaVuSans-2e" x="63.623047"/>
       <use xlink:href="#DejaVuSans-35" x="95.410156"/>
      </g>
     </g>
    </g>
    <g id="ytick_3">
     <g id="line2d_9">
      <g>
       <use xlink:href="#m9d79f7842e" x="47.82125" y="196.380231" style="stroke: #000000; stroke-width: 0.8"/>
      </g>
     </g>
     <g id="text_10">
      <!-- 1.0 -->
      <g transform="translate(24.918125 200.17945)scale(0.1 -0.1)">
       <use xlink:href="#DejaVuSans-31"/>
       <use xlink:href="#DejaVuSans-2e" x="63.623047"/>
       <use xlink:href="#DejaVuSans-30" x="95.410156"/>
      </g>
     </g>
    </g>
    <g id="ytick_4">
     <g id="line2d_10">
      <g>
       <use xlink:href="#m9d79f7842e" x="47.82125" y="142.750347" style="stroke: #000000; stroke-width: 0.8"/>
      </g>
     </g>
     <g id="text_11">
      <!-- 1.5 -->
      <g transform="translate(24.918125 146.549566)scale(0.1 -0.1)">
       <use xlink:href="#DejaVuSans-31"/>
       <use xlink:href="#DejaVuSans-2e" x="63.623047"/>
       <use xlink:href="#DejaVuSans-35" x="95.410156"/>
      </g>
     </g>
    </g>
    <g id="ytick_5">
     <g id="line2d_11">
      <g>
       <use xlink:href="#m9d79f7842e" x="47.82125" y="89.120463" style="stroke: #000000; stroke-width: 0.8"/>
      </g>
     </g>
     <g id="text_12">
      <!-- 2.0 -->
      <g transform="translate(24.918125 92.919681)scale(0.1 -0.1)">
       <use xlink:href="#DejaVuSans-32"/>
       <use xlink:href="#DejaVuSans-2e" x="63.623047"/>
       <use xlink:href="#DejaVuSans-30" x="95.410156"/>
      </g>
     </g>
    </g>
    <g id="text_13">
     <!-- PercentGpA_transformed -->
     <g transform="translate(18.560313 237.696252)rotate(-90)scale(0.1 -0.1)">
      <defs>
       <path id="DejaVuSans-50" d="M 1259 4147 
L 1259 2394 
L 2053 2394 
Q 2494 2394 2734 2622 
Q 2975 2850 2975 3272 
Q 2975 3691 2734 3919 
Q 2494 4147 2053 4147 
L 1259 4147 
z
M 628 4666 
L 2053 4666 
Q 2838 4666 3239 4311 
Q 3641 3956 3641 3272 
Q 3641 2581 3239 2228 
Q 2838 1875 2053 1875 
L 1259 1875 
L 1259 0 
L 628 0 
L 628 4666 
z
" transform="scale(0.015625)"/>
       <path id="DejaVuSans-65" d="M 3597 1894 
L 3597 1613 
L 953 1613 
Q 991 1019 1311 708 
Q 1631 397 2203 397 
Q 2534 397 2845 478 
Q 3156 559 3463 722 
L 3463 178 
Q 3153 47 2828 -22 
Q 2503 -91 2169 -91 
Q 1331 -91 842 396 
Q 353 884 353 1716 
Q 353 2575 817 3079 
Q 1281 3584 2069 3584 
Q 2775 3584 3186 3129 
Q 3597 2675 3597 1894 
z
M 3022 2063 
Q 3016 2534 2758 2815 
Q 2500 3097 2075 3097 
Q 1594 3097 1305 2825 
Q 1016 2553 972 2059 
L 3022 2063 
z
" transform="scale(0.015625)"/>
       <path id="DejaVuSans-72" d="M 2631 2963 
Q 2534 3019 2420 3045 
Q 2306 3072 2169 3072 
Q 1681 3072 1420 2755 
Q 1159 2438 1159 1844 
L 1159 0 
L 581 0 
L 581 3500 
L 1159 3500 
L 1159 2956 
Q 1341 3275 1631 3429 
Q 1922 3584 2338 3584 
Q 2397 3584 2469 3576 
Q 2541 3569 2628 3553 
L 2631 2963 
z
" transform="scale(0.015625)"/>
       <path id="DejaVuSans-63" d="M 3122 3366 
L 3122 2828 
Q 2878 2963 2633 3030 
Q 2388 3097 2138 3097 
Q 1578 3097 1268 2742 
Q 959 2388 959 1747 
Q 959 1106 1268 751 
Q 1578 397 2138 397 
Q 2388 397 2633 464 
Q 2878 531 3122 666 
L 3122 134 
Q 2881 22 2623 -34 
Q 2366 -91 2075 -91 
Q 1284 -91 818 406 
Q 353 903 353 1747 
Q 353 2603 823 3093 
Q 1294 3584 2113 3584 
Q 2378 3584 2631 3529 
Q 2884 3475 3122 3366 
z
" transform="scale(0.015625)"/>
       <path id="DejaVuSans-6e" d="M 3513 2113 
L 3513 0 
L 2938 0 
L 2938 2094 
Q 2938 2591 2744 2837 
Q 2550 3084 2163 3084 
Q 1697 3084 1428 2787 
Q 1159 2491 1159 1978 
L 1159 0 
L 581 0 
L 581 3500 
L 1159 3500 
L 1159 2956 
Q 1366 3272 1645 3428 
Q 1925 3584 2291 3584 
Q 2894 3584 3203 3211 
Q 3513 2838 3513 2113 
z
" transform="scale(0.015625)"/>
       <path id="DejaVuSans-74" d="M 1172 4494 
L 1172 3500 
L 2356 3500 
L 2356 3053 
L 1172 3053 
L 1172 1153 
Q 1172 725 1289 603 
Q 1406 481 1766 481 
L 2356 481 
L 2356 0 
L 1766 0 
Q 1100 0 847 248 
Q 594 497 594 1153 
L 594 3053 
L 172 3053 
L 172 3500 
L 594 3500 
L 594 4494 
L 1172 4494 
z
" transform="scale(0.015625)"/>
       <path id="DejaVuSans-47" d="M 3809 666 
L 3809 1919 
L 2778 1919 
L 2778 2438 
L 4434 2438 
L 4434 434 
Q 4069 175 3628 42 
Q 3188 -91 2688 -91 
Q 1594 -91 976 548 
Q 359 1188 359 2328 
Q 359 3472 976 4111 
Q 1594 4750 2688 4750 
Q 3144 4750 3555 4637 
Q 3966 4525 4313 4306 
L 4313 3634 
Q 3963 3931 3569 4081 
Q 3175 4231 2741 4231 
Q 1884 4231 1454 3753 
Q 1025 3275 1025 2328 
Q 1025 1384 1454 906 
Q 1884 428 2741 428 
Q 3075 428 3337 486 
Q 3600 544 3809 666 
z
" transform="scale(0.015625)"/>
       <path id="DejaVuSans-70" d="M 1159 525 
L 1159 -1331 
L 581 -1331 
L 581 3500 
L 1159 3500 
L 1159 2969 
Q 1341 3281 1617 3432 
Q 1894 3584 2278 3584 
Q 2916 3584 3314 3078 
Q 3713 2572 3713 1747 
Q 3713 922 3314 415 
Q 2916 -91 2278 -91 
Q 1894 -91 1617 61 
Q 1341 213 1159 525 
z
M 3116 1747 
Q 3116 2381 2855 2742 
Q 2594 3103 2138 3103 
Q 1681 3103 1420 2742 
Q 1159 2381 1159 1747 
Q 1159 1113 1420 752 
Q 1681 391 2138 391 
Q 2594 391 2855 752 
Q 3116 1113 3116 1747 
z
" transform="scale(0.015625)"/>
       <path id="DejaVuSans-41" d="M 2188 4044 
L 1331 1722 
L 3047 1722 
L 2188 4044 
z
M 1831 4666 
L 2547 4666 
L 4325 0 
L 3669 0 
L 3244 1197 
L 1141 1197 
L 716 0 
L 50 0 
L 1831 4666 
z
" transform="scale(0.015625)"/>
       <path id="DejaVuSans-5f" d="M 3263 -1063 
L 3263 -1509 
L -63 -1509 
L -63 -1063 
L 3263 -1063 
z
" transform="scale(0.015625)"/>
       <path id="DejaVuSans-61" d="M 2194 1759 
Q 1497 1759 1228 1600 
Q 959 1441 959 1056 
Q 959 750 1161 570 
Q 1363 391 1709 391 
Q 2188 391 2477 730 
Q 2766 1069 2766 1631 
L 2766 1759 
L 2194 1759 
z
M 3341 1997 
L 3341 0 
L 2766 0 
L 2766 531 
Q 2569 213 2275 61 
Q 1981 -91 1556 -91 
Q 1019 -91 701 211 
Q 384 513 384 1019 
Q 384 1609 779 1909 
Q 1175 2209 1959 2209 
L 2766 2209 
L 2766 2266 
Q 2766 2663 2505 2880 
Q 2244 3097 1772 3097 
Q 1472 3097 1187 3025 
Q 903 2953 641 2809 
L 641 3341 
Q 956 3463 1253 3523 
Q 1550 3584 1831 3584 
Q 2591 3584 2966 3190 
Q 3341 2797 3341 1997 
z
" transform="scale(0.015625)"/>
       <path id="DejaVuSans-73" d="M 2834 3397 
L 2834 2853 
Q 2591 2978 2328 3040 
Q 2066 3103 1784 3103 
Q 1356 3103 1142 2972 
Q 928 2841 928 2578 
Q 928 2378 1081 2264 
Q 1234 2150 1697 2047 
L 1894 2003 
Q 2506 1872 2764 1633 
Q 3022 1394 3022 966 
Q 3022 478 2636 193 
Q 2250 -91 1575 -91 
Q 1294 -91 989 -36 
Q 684 19 347 128 
L 347 722 
Q 666 556 975 473 
Q 1284 391 1588 391 
Q 1994 391 2212 530 
Q 2431 669 2431 922 
Q 2431 1156 2273 1281 
Q 2116 1406 1581 1522 
L 1381 1569 
Q 847 1681 609 1914 
Q 372 2147 372 2553 
Q 372 3047 722 3315 
Q 1072 3584 1716 3584 
Q 2034 3584 2315 3537 
Q 2597 3491 2834 3397 
z
" transform="scale(0.015625)"/>
       <path id="DejaVuSans-6f" d="M 1959 3097 
Q 1497 3097 1228 2736 
Q 959 2375 959 1747 
Q 959 1119 1226 758 
Q 1494 397 1959 397 
Q 2419 397 2687 759 
Q 2956 1122 2956 1747 
Q 2956 2369 2687 2733 
Q 2419 3097 1959 3097 
z
M 1959 3584 
Q 2709 3584 3137 3096 
Q 3566 2609 3566 1747 
Q 3566 888 3137 398 
Q 2709 -91 1959 -91 
Q 1206 -91 779 398 
Q 353 888 353 1747 
Q 353 2609 779 3096 
Q 1206 3584 1959 3584 
z
" transform="scale(0.015625)"/>
       <path id="DejaVuSans-6d" d="M 3328 2828 
Q 3544 3216 3844 3400 
Q 4144 3584 4550 3584 
Q 5097 3584 5394 3201 
Q 5691 2819 5691 2113 
L 5691 0 
L 5113 0 
L 5113 2094 
Q 5113 2597 4934 2840 
Q 4756 3084 4391 3084 
Q 3944 3084 3684 2787 
Q 3425 2491 3425 1978 
L 3425 0 
L 2847 0 
L 2847 2094 
Q 2847 2600 2669 2842 
Q 2491 3084 2119 3084 
Q 1678 3084 1418 2786 
Q 1159 2488 1159 1978 
L 1159 0 
L 581 0 
L 581 3500 
L 1159 3500 
L 1159 2956 
Q 1356 3278 1631 3431 
Q 1906 3584 2284 3584 
Q 2666 3584 2933 3390 
Q 3200 3197 3328 2828 
z
" transform="scale(0.015625)"/>
       <path id="DejaVuSans-64" d="M 2906 2969 
L 2906 4863 
L 3481 4863 
L 3481 0 
L 2906 0 
L 2906 525 
Q 2725 213 2448 61 
Q 2172 -91 1784 -91 
Q 1150 -91 751 415 
Q 353 922 353 1747 
Q 353 2572 751 3078 
Q 1150 3584 1784 3584 
Q 2172 3584 2448 3432 
Q 2725 3281 2906 2969 
z
M 947 1747 
Q 947 1113 1208 752 
Q 1469 391 1925 391 
Q 2381 391 2643 752 
Q 2906 1113 2906 1747 
Q 2906 2381 2643 2742 
Q 2381 3103 1925 3103 
Q 1469 3103 1208 2742 
Q 947 2381 947 1747 
z
" transform="scale(0.015625)"/>
      </defs>
      <use xlink:href="#DejaVuSans-50"/>
      <use xlink:href="#DejaVuSans-65" x="56.677734"/>
      <use xlink:href="#DejaVuSans-72" x="118.201172"/>
      <use xlink:href="#DejaVuSans-63" x="157.064453"/>
      <use xlink:href="#DejaVuSans-65" x="212.044922"/>
      <use xlink:href="#DejaVuSans-6e" x="273.568359"/>
      <use xlink:href="#DejaVuSans-74" x="336.947266"/>
      <use xlink:href="#DejaVuSans-47" x="376.15625"/>
      <use xlink:href="#DejaVuSans-70" x="453.646484"/>
      <use xlink:href="#DejaVuSans-41" x="517.123047"/>
      <use xlink:href="#DejaVuSans-5f" x="585.53125"/>
      <use xlink:href="#DejaVuSans-74" x="635.53125"/>
      <use xlink:href="#DejaVuSans-72" x="674.740234"/>
      <use xlink:href="#DejaVuSans-61" x="715.853516"/>
      <use xlink:href="#DejaVuSans-6e" x="777.132812"/>
      <use xlink:href="#DejaVuSans-73" x="840.511719"/>
      <use xlink:href="#DejaVuSans-66" x="892.611328"/>
      <use xlink:href="#DejaVuSans-6f" x="927.816406"/>
      <use xlink:href="#DejaVuSans-72" x="988.998047"/>
      <use xlink:href="#DejaVuSans-6d" x="1028.361328"/>
      <use xlink:href="#DejaVuSans-65" x="1125.773438"/>
      <use xlink:href="#DejaVuSans-64" x="1187.296875"/>
     </g>
    </g>
   </g>
   <g id="LineCollection_1">
    <path d="M 244.329588 175.029695 
L 244.329588 174.937903 
" clip-path="url(#pcea675c574)" style="fill: none; stroke: #d3d3d3; stroke-width: 3"/>
    <path d="M 268.421933 184.102912 
L 268.421933 183.96661 
" clip-path="url(#pcea675c574)" style="fill: none; stroke: #d3d3d3; stroke-width: 3"/>
    <path d="M 165.055298 63.673549 
L 165.055298 58.692781 
" clip-path="url(#pcea675c574)" style="fill: none; stroke: #d3d3d3; stroke-width: 3"/>
    <path d="M 200.795768 157.966514 
L 200.795768 157.858578 
" clip-path="url(#pcea675c574)" style="fill: none; stroke: #d3d3d3; stroke-width: 3"/>
    <path d="M 251.997238 213.316241 
L 251.997238 213.176583 
" clip-path="url(#pcea675c574)" style="fill: none; stroke: #d3d3d3; stroke-width: 3"/>
    <path d="M 225.209344 299.029573 
L 225.209344 298.699233 
" clip-path="url(#pcea675c574)" style="fill: none; stroke: #d3d3d3; stroke-width: 3"/>
    <path d="M 298.561805 210.28823 
L 298.561805 210.14152 
" clip-path="url(#pcea675c574)" style="fill: none; stroke: #d3d3d3; stroke-width: 3"/>
    <path d="M 175.69783 260.792162 
L 175.69783 260.329267 
" clip-path="url(#pcea675c574)" style="fill: none; stroke: #d3d3d3; stroke-width: 3"/>
    <path d="M 144.454598 182.154325 
L 144.454598 181.992869 
" clip-path="url(#pcea675c574)" style="fill: none; stroke: #d3d3d3; stroke-width: 3"/>
    <path d="M 298.226607 208.29264 
L 298.226607 208.205575 
" clip-path="url(#pcea675c574)" style="fill: none; stroke: #d3d3d3; stroke-width: 3"/>
    <path d="M 305.60096 287.119645 
L 305.60096 286.683415 
" clip-path="url(#pcea675c574)" style="fill: none; stroke: #d3d3d3; stroke-width: 3"/>
    <path d="M 248.715093 160.941062 
L 248.715093 160.705596 
" clip-path="url(#pcea675c574)" style="fill: none; stroke: #d3d3d3; stroke-width: 3"/>
    <path d="M 278.533734 189.056992 
L 278.533734 188.691972 
" clip-path="url(#pcea675c574)" style="fill: none; stroke: #d3d3d3; stroke-width: 3"/>
    <path d="M 417.87827 187.610398 
L 417.87827 186.314288 
" clip-path="url(#pcea675c574)" style="fill: none; stroke: #d3d3d3; stroke-width: 3"/>
    <path d="M 145.069127 227.218617 
L 145.069127 226.954547 
" clip-path="url(#pcea675c574)" style="fill: none; stroke: #d3d3d3; stroke-width: 3"/>
    <path d="M 431.719148 230.977874 
L 431.719148 230.514085 
" clip-path="url(#pcea675c574)" style="fill: none; stroke: #d3d3d3; stroke-width: 3"/>
    <path d="M 124.41256 150.746256 
L 124.41256 150.058269 
" clip-path="url(#pcea675c574)" style="fill: none; stroke: #d3d3d3; stroke-width: 3"/>
    <path d="M 125.976817 163.743804 
L 125.976817 163.412841 
" clip-path="url(#pcea675c574)" style="fill: none; stroke: #d3d3d3; stroke-width: 3"/>
    <path d="M 104.230857 164.936495 
L 104.230857 164.595617 
" clip-path="url(#pcea675c574)" style="fill: none; stroke: #d3d3d3; stroke-width: 3"/>
    <path d="M 183.840344 159.952835 
L 183.840344 159.630126 
" clip-path="url(#pcea675c574)" style="fill: none; stroke: #d3d3d3; stroke-width: 3"/>
    <path d="M 184.538673 185.167104 
L 184.538673 185.039933 
" clip-path="url(#pcea675c574)" style="fill: none; stroke: #d3d3d3; stroke-width: 3"/>
    <path d="M 117.010274 157.116597 
L 117.010274 156.791156 
" clip-path="url(#pcea675c574)" style="fill: none; stroke: #d3d3d3; stroke-width: 3"/>
    <path d="M 160.376495 167.587142 
L 160.376495 167.199397 
" clip-path="url(#pcea675c574)" style="fill: none; stroke: #d3d3d3; stroke-width: 3"/>
    <path d="M 192.010791 183.086429 
L 192.010791 182.84451 
" clip-path="url(#pcea675c574)" style="fill: none; stroke: #d3d3d3; stroke-width: 3"/>
    <path d="M 172.178252 161.424302 
L 172.178252 161.173206 
" clip-path="url(#pcea675c574)" style="fill: none; stroke: #d3d3d3; stroke-width: 3"/>
    <path d="M 127.708672 194.67827 
L 127.708672 194.523203 
" clip-path="url(#pcea675c574)" style="fill: none; stroke: #d3d3d3; stroke-width: 3"/>
    <path d="M 190.935365 172.430573 
L 190.935365 172.184696 
" clip-path="url(#pcea675c574)" style="fill: none; stroke: #d3d3d3; stroke-width: 3"/>
    <path d="M 130.418188 181.071311 
L 130.418188 180.941444 
" clip-path="url(#pcea675c574)" style="fill: none; stroke: #d3d3d3; stroke-width: 3"/>
    <path d="M 151.842917 134.301612 
L 151.842917 133.40362 
" clip-path="url(#pcea675c574)" style="fill: none; stroke: #d3d3d3; stroke-width: 3"/>
    <path d="M 88.867622 156.967138 
L 88.867622 156.82339 
" clip-path="url(#pcea675c574)" style="fill: none; stroke: #d3d3d3; stroke-width: 3"/>
    <path d="M 165.516195 186.867562 
L 165.516195 186.053343 
" clip-path="url(#pcea675c574)" style="fill: none; stroke: #d3d3d3; stroke-width: 3"/>
    <path d="M 84.244685 233.331523 
L 84.244685 233.104246 
" clip-path="url(#pcea675c574)" style="fill: none; stroke: #d3d3d3; stroke-width: 3"/>
    <path d="M 162.415615 176.558195 
L 162.415615 176.417067 
" clip-path="url(#pcea675c574)" style="fill: none; stroke: #d3d3d3; stroke-width: 3"/>
    <path d="M 176.102861 170.259937 
L 176.102861 169.910551 
" clip-path="url(#pcea675c574)" style="fill: none; stroke: #d3d3d3; stroke-width: 3"/>
    <path d="M 112.932034 239.125776 
L 112.932034 239.017035 
" clip-path="url(#pcea675c574)" style="fill: none; stroke: #d3d3d3; stroke-width: 3"/>
    <path d="M 194.063878 191.711867 
L 194.063878 191.180561 
" clip-path="url(#pcea675c574)" style="fill: none; stroke: #d3d3d3; stroke-width: 3"/>
    <path d="M 78.644088 156.318042 
L 78.644088 156.19467 
" clip-path="url(#pcea675c574)" style="fill: none; stroke: #d3d3d3; stroke-width: 3"/>
    <path d="M 116.758876 176.93562 
L 116.758876 176.088687 
" clip-path="url(#pcea675c574)" style="fill: none; stroke: #d3d3d3; stroke-width: 3"/>
    <path d="M 133.7981 279.505537 
L 133.7981 279.356174 
" clip-path="url(#pcea675c574)" style="fill: none; stroke: #d3d3d3; stroke-width: 3"/>
    <path d="M 66.102102 259.369652 
L 66.102102 259.227396 
" clip-path="url(#pcea675c574)" style="fill: none; stroke: #d3d3d3; stroke-width: 3"/>
    <path d="M 96.46544 274.946904 
L 96.46544 274.572316 
" clip-path="url(#pcea675c574)" style="fill: none; stroke: #d3d3d3; stroke-width: 3"/>
    <path d="M 84.677649 257.000725 
L 84.677649 256.824162 
" clip-path="url(#pcea675c574)" style="fill: none; stroke: #d3d3d3; stroke-width: 3"/>
    <path d="M 196.689595 175.898175 
L 196.689595 175.867393 
" clip-path="url(#pcea675c574)" style="fill: none; stroke: #d3d3d3; stroke-width: 3"/>
    <path d="M 134.258997 178.193712 
L 134.258997 177.735882 
" clip-path="url(#pcea675c574)" style="fill: none; stroke: #d3d3d3; stroke-width: 3"/>
    <path d="M 166.284357 260.385555 
L 166.284357 260.159836 
" clip-path="url(#pcea675c574)" style="fill: none; stroke: #d3d3d3; stroke-width: 3"/>
    <path d="M 140.236692 276.965619 
L 140.236692 276.943763 
" clip-path="url(#pcea675c574)" style="fill: none; stroke: #d3d3d3; stroke-width: 3"/>
    <path d="M 154.468633 243.955784 
L 154.468633 243.630171 
" clip-path="url(#pcea675c574)" style="fill: none; stroke: #d3d3d3; stroke-width: 3"/>
    <path d="M 131.940545 250.700986 
L 131.940545 250.541585 
" clip-path="url(#pcea675c574)" style="fill: none; stroke: #d3d3d3; stroke-width: 3"/>
    <path d="M 156.56362 228.529172 
L 156.56362 228.179381 
" clip-path="url(#pcea675c574)" style="fill: none; stroke: #d3d3d3; stroke-width: 3"/>
    <path d="M 83.518423 232.519365 
L 83.518423 232.389585 
" clip-path="url(#pcea675c574)" style="fill: none; stroke: #d3d3d3; stroke-width: 3"/>
    <path d="M 142.876375 215.699408 
L 142.876375 215.493381 
" clip-path="url(#pcea675c574)" style="fill: none; stroke: #d3d3d3; stroke-width: 3"/>
    <path d="M 169.650302 171.271788 
L 169.650302 171.059852 
" clip-path="url(#pcea675c574)" style="fill: none; stroke: #d3d3d3; stroke-width: 3"/>
    <path d="M 87.917895 271.5118 
L 87.917895 271.41741 
" clip-path="url(#pcea675c574)" style="fill: none; stroke: #d3d3d3; stroke-width: 3"/>
    <path d="M 146.814949 265.422453 
L 146.814949 265.275724 
" clip-path="url(#pcea675c574)" style="fill: none; stroke: #d3d3d3; stroke-width: 3"/>
    <path d="M 94.621852 277.330683 
L 94.621852 277.035599 
" clip-path="url(#pcea675c574)" style="fill: none; stroke: #d3d3d3; stroke-width: 3"/>
   </g>
   <g id="line2d_12">
    <path d="M 244.329588 201.229999 
L 268.421933 200.370103 
L 165.055298 204.059433 
L 200.795768 202.783795 
L 251.997238 200.956328 
L 225.209344 201.912433 
L 298.561805 199.29436 
L 175.69783 203.679583 
L 144.454598 204.794707 
L 298.226607 199.306324 
L 305.60096 199.04312 
L 248.715093 201.073473 
L 278.533734 200.009196 
L 417.87827 195.035753 
L 145.069127 204.772773 
L 431.719148 194.541749 
L 124.41256 205.510041 
L 125.976817 205.45421 
L 104.230857 206.23036 
L 183.840344 203.388963 
L 184.538673 203.364038 
L 117.010274 205.774241 
L 160.376495 204.226427 
L 192.010791 203.097346 
L 172.178252 203.805202 
L 127.708672 205.392397 
L 190.935365 203.135729 
L 130.418188 205.29569 
L 151.842917 204.531005 
L 88.867622 206.7787 
L 165.516195 204.042983 
L 84.244685 206.9437 
L 162.415615 204.153647 
L 176.102861 203.665127 
L 112.932034 205.9198 
L 194.063878 203.024067 
L 78.644088 207.143595 
L 116.758876 205.783214 
L 133.7981 205.175055 
L 66.102102 207.59124 
L 96.46544 206.507521 
L 84.677649 206.928247 
L 196.689595 202.930351 
L 134.258997 205.158605 
L 166.284357 204.015566 
L 140.236692 204.945251 
L 154.468633 204.437289 
L 131.940545 205.241354 
L 156.56362 204.362515 
L 83.518423 206.969622 
L 142.876375 204.851036 
L 169.650302 203.895429 
L 87.917895 206.812597 
L 146.814949 204.710462 
L 94.621852 206.573322 
" clip-path="url(#pcea675c574)" style="fill: none; stroke: #1f77b4; stroke-width: 1.5; stroke-linecap: square"/>
   </g>
   <g id="line2d_13">
    <defs>
     <path id="mb5db69d128" d="M 0 3 
C 0.795609 3 1.55874 2.683901 2.12132 2.12132 
C 2.683901 1.55874 3 0.795609 3 0 
C 3 -0.795609 2.683901 -1.55874 2.12132 -2.12132 
C 1.55874 -2.683901 0.795609 -3 0 -3 
C -0.795609 -3 -1.55874 -2.683901 -2.12132 -2.12132 
C -2.683901 -1.55874 -3 -0.795609 -3 0 
C -3 0.795609 -2.683901 1.55874 -2.12132 2.12132 
C -1.55874 2.683901 -0.795609 3 0 3 
z
" style="stroke: #000000"/>
    </defs>
    <g clip-path="url(#pcea675c574)">
     <use xlink:href="#mb5db69d128" x="244.329588" y="174.983799" style="stroke: #000000"/>
     <use xlink:href="#mb5db69d128" x="268.421933" y="184.034761" style="stroke: #000000"/>
     <use xlink:href="#mb5db69d128" x="165.055298" y="61.183165" style="stroke: #000000"/>
     <use xlink:href="#mb5db69d128" x="200.795768" y="157.912546" style="stroke: #000000"/>
     <use xlink:href="#mb5db69d128" x="251.997238" y="213.246412" style="stroke: #000000"/>
     <use xlink:href="#mb5db69d128" x="225.209344" y="298.864403" style="stroke: #000000"/>
     <use xlink:href="#mb5db69d128" x="298.561805" y="210.214875" style="stroke: #000000"/>
     <use xlink:href="#mb5db69d128" x="175.69783" y="260.560714" style="stroke: #000000"/>
     <use xlink:href="#mb5db69d128" x="144.454598" y="182.073597" style="stroke: #000000"/>
     <use xlink:href="#mb5db69d128" x="298.226607" y="208.249108" style="stroke: #000000"/>
     <use xlink:href="#mb5db69d128" x="305.60096" y="286.90153" style="stroke: #000000"/>
     <use xlink:href="#mb5db69d128" x="248.715093" y="160.823329" style="stroke: #000000"/>
     <use xlink:href="#mb5db69d128" x="278.533734" y="188.874482" style="stroke: #000000"/>
     <use xlink:href="#mb5db69d128" x="417.87827" y="186.962343" style="stroke: #000000"/>
     <use xlink:href="#mb5db69d128" x="145.069127" y="227.086582" style="stroke: #000000"/>
     <use xlink:href="#mb5db69d128" x="431.719148" y="230.745979" style="stroke: #000000"/>
     <use xlink:href="#mb5db69d128" x="124.41256" y="150.402263" style="stroke: #000000"/>
     <use xlink:href="#mb5db69d128" x="125.976817" y="163.578322" style="stroke: #000000"/>
     <use xlink:href="#mb5db69d128" x="104.230857" y="164.766056" style="stroke: #000000"/>
     <use xlink:href="#mb5db69d128" x="183.840344" y="159.791481" style="stroke: #000000"/>
     <use xlink:href="#mb5db69d128" x="184.538673" y="185.103519" style="stroke: #000000"/>
     <use xlink:href="#mb5db69d128" x="117.010274" y="156.953876" style="stroke: #000000"/>
     <use xlink:href="#mb5db69d128" x="160.376495" y="167.393269" style="stroke: #000000"/>
     <use xlink:href="#mb5db69d128" x="192.010791" y="182.96547" style="stroke: #000000"/>
     <use xlink:href="#mb5db69d128" x="172.178252" y="161.298754" style="stroke: #000000"/>
     <use xlink:href="#mb5db69d128" x="127.708672" y="194.600737" style="stroke: #000000"/>
     <use xlink:href="#mb5db69d128" x="190.935365" y="172.307635" style="stroke: #000000"/>
     <use xlink:href="#mb5db69d128" x="130.418188" y="181.006377" style="stroke: #000000"/>
     <use xlink:href="#mb5db69d128" x="151.842917" y="133.852616" style="stroke: #000000"/>
     <use xlink:href="#mb5db69d128" x="88.867622" y="156.895264" style="stroke: #000000"/>
     <use xlink:href="#mb5db69d128" x="165.516195" y="186.460453" style="stroke: #000000"/>
     <use xlink:href="#mb5db69d128" x="84.244685" y="233.217885" style="stroke: #000000"/>
     <use xlink:href="#mb5db69d128" x="162.415615" y="176.487631" style="stroke: #000000"/>
     <use xlink:href="#mb5db69d128" x="176.102861" y="170.085244" style="stroke: #000000"/>
     <use xlink:href="#mb5db69d128" x="112.932034" y="239.071405" style="stroke: #000000"/>
     <use xlink:href="#mb5db69d128" x="194.063878" y="191.446214" style="stroke: #000000"/>
     <use xlink:href="#mb5db69d128" x="78.644088" y="156.256356" style="stroke: #000000"/>
     <use xlink:href="#mb5db69d128" x="116.758876" y="176.512153" style="stroke: #000000"/>
     <use xlink:href="#mb5db69d128" x="133.7981" y="279.430855" style="stroke: #000000"/>
     <use xlink:href="#mb5db69d128" x="66.102102" y="259.298524" style="stroke: #000000"/>
     <use xlink:href="#mb5db69d128" x="96.46544" y="274.75961" style="stroke: #000000"/>
     <use xlink:href="#mb5db69d128" x="84.677649" y="256.912443" style="stroke: #000000"/>
     <use xlink:href="#mb5db69d128" x="196.689595" y="175.882784" style="stroke: #000000"/>
     <use xlink:href="#mb5db69d128" x="134.258997" y="177.964797" style="stroke: #000000"/>
     <use xlink:href="#mb5db69d128" x="166.284357" y="260.272696" style="stroke: #000000"/>
     <use xlink:href="#mb5db69d128" x="140.236692" y="276.954691" style="stroke: #000000"/>
     <use xlink:href="#mb5db69d128" x="154.468633" y="243.792977" style="stroke: #000000"/>
     <use xlink:href="#mb5db69d128" x="131.940545" y="250.621285" style="stroke: #000000"/>
     <use xlink:href="#mb5db69d128" x="156.56362" y="228.354276" style="stroke: #000000"/>
     <use xlink:href="#mb5db69d128" x="83.518423" y="232.454475" style="stroke: #000000"/>
     <use xlink:href="#mb5db69d128" x="142.876375" y="215.596395" style="stroke: #000000"/>
     <use xlink:href="#mb5db69d128" x="169.650302" y="171.16582" style="stroke: #000000"/>
     <use xlink:href="#mb5db69d128" x="87.917895" y="271.464605" style="stroke: #000000"/>
     <use xlink:href="#mb5db69d128" x="146.814949" y="265.349089" style="stroke: #000000"/>
     <use xlink:href="#mb5db69d128" x="94.621852" y="277.183141" style="stroke: #000000"/>
    </g>
   </g>
   <g id="patch_3">
    <path d="M 47.82125 303.64 
L 47.82125 46.675942 
" style="fill: none; stroke: #000000; stroke-width: 0.8; stroke-linejoin: miter; stroke-linecap: square"/>
   </g>
   <g id="patch_4">
    <path d="M 450 303.64 
L 450 46.675942 
" style="fill: none; stroke: #000000; stroke-width: 0.8; stroke-linejoin: miter; stroke-linecap: square"/>
   </g>
   <g id="patch_5">
    <path d="M 47.82125 303.64 
L 450 303.64 
" style="fill: none; stroke: #000000; stroke-width: 0.8; stroke-linejoin: miter; stroke-linecap: square"/>
   </g>
   <g id="patch_6">
    <path d="M 47.82125 46.675942 
L 450 46.675942 
" style="fill: none; stroke: #000000; stroke-width: 0.8; stroke-linejoin: miter; stroke-linecap: square"/>
   </g>
   <g id="text_14">
    <!-- y = 0.00x + 0.82 -->
    <g transform="translate(45.118813 18.59963)scale(0.1 -0.1)">
     <defs>
      <path id="DejaVuSans-79" d="M 2059 -325 
Q 1816 -950 1584 -1140 
Q 1353 -1331 966 -1331 
L 506 -1331 
L 506 -850 
L 844 -850 
Q 1081 -850 1212 -737 
Q 1344 -625 1503 -206 
L 1606 56 
L 191 3500 
L 800 3500 
L 1894 763 
L 2988 3500 
L 3597 3500 
L 2059 -325 
z
" transform="scale(0.015625)"/>
      <path id="DejaVuSans-20" transform="scale(0.015625)"/>
      <path id="DejaVuSans-3d" d="M 678 2906 
L 4684 2906 
L 4684 2381 
L 678 2381 
L 678 2906 
z
M 678 1631 
L 4684 1631 
L 4684 1100 
L 678 1100 
L 678 1631 
z
" transform="scale(0.015625)"/>
      <path id="DejaVuSans-78" d="M 3513 3500 
L 2247 1797 
L 3578 0 
L 2900 0 
L 1881 1375 
L 863 0 
L 184 0 
L 1544 1831 
L 300 3500 
L 978 3500 
L 1906 2253 
L 2834 3500 
L 3513 3500 
z
" transform="scale(0.015625)"/>
      <path id="DejaVuSans-2b" d="M 2944 4013 
L 2944 2272 
L 4684 2272 
L 4684 1741 
L 2944 1741 
L 2944 0 
L 2419 0 
L 2419 1741 
L 678 1741 
L 678 2272 
L 2419 2272 
L 2419 4013 
L 2944 4013 
z
" transform="scale(0.015625)"/>
      <path id="DejaVuSans-38" d="M 2034 2216 
Q 1584 2216 1326 1975 
Q 1069 1734 1069 1313 
Q 1069 891 1326 650 
Q 1584 409 2034 409 
Q 2484 409 2743 651 
Q 3003 894 3003 1313 
Q 3003 1734 2745 1975 
Q 2488 2216 2034 2216 
z
M 1403 2484 
Q 997 2584 770 2862 
Q 544 3141 544 3541 
Q 544 4100 942 4425 
Q 1341 4750 2034 4750 
Q 2731 4750 3128 4425 
Q 3525 4100 3525 3541 
Q 3525 3141 3298 2862 
Q 3072 2584 2669 2484 
Q 3125 2378 3379 2068 
Q 3634 1759 3634 1313 
Q 3634 634 3220 271 
Q 2806 -91 2034 -91 
Q 1263 -91 848 271 
Q 434 634 434 1313 
Q 434 1759 690 2068 
Q 947 2378 1403 2484 
z
M 1172 3481 
Q 1172 3119 1398 2916 
Q 1625 2713 2034 2713 
Q 2441 2713 2670 2916 
Q 2900 3119 2900 3481 
Q 2900 3844 2670 4047 
Q 2441 4250 2034 4250 
Q 1625 4250 1398 4047 
Q 1172 3844 1172 3481 
z
" transform="scale(0.015625)"/>
     </defs>
     <use xlink:href="#DejaVuSans-79"/>
     <use xlink:href="#DejaVuSans-20" x="59.179688"/>
     <use xlink:href="#DejaVuSans-3d" x="90.966797"/>
     <use xlink:href="#DejaVuSans-20" x="174.755859"/>
     <use xlink:href="#DejaVuSans-30" x="206.542969"/>
     <use xlink:href="#DejaVuSans-2e" x="270.166016"/>
     <use xlink:href="#DejaVuSans-30" x="301.953125"/>
     <use xlink:href="#DejaVuSans-30" x="365.576172"/>
     <use xlink:href="#DejaVuSans-78" x="429.199219"/>
     <use xlink:href="#DejaVuSans-20" x="488.378906"/>
     <use xlink:href="#DejaVuSans-2b" x="520.166016"/>
     <use xlink:href="#DejaVuSans-20" x="603.955078"/>
     <use xlink:href="#DejaVuSans-30" x="635.742188"/>
     <use xlink:href="#DejaVuSans-2e" x="699.365234"/>
     <use xlink:href="#DejaVuSans-38" x="731.152344"/>
     <use xlink:href="#DejaVuSans-32" x="794.775391"/>
    </g>
   </g>
   <g id="text_15">
    <!-- r^2 = 0.00 -->
    <g transform="translate(60.111781 26.308552)scale(0.1 -0.1)">
     <defs>
      <path id="DejaVuSans-5e" d="M 2988 4666 
L 4684 2925 
L 4056 2925 
L 2681 4159 
L 1306 2925 
L 678 2925 
L 2375 4666 
L 2988 4666 
z
" transform="scale(0.015625)"/>
     </defs>
     <use xlink:href="#DejaVuSans-72"/>
     <use xlink:href="#DejaVuSans-5e" x="41.113281"/>
     <use xlink:href="#DejaVuSans-32" x="124.902344"/>
     <use xlink:href="#DejaVuSans-20" x="188.525391"/>
     <use xlink:href="#DejaVuSans-3d" x="220.3125"/>
     <use xlink:href="#DejaVuSans-20" x="304.101562"/>
     <use xlink:href="#DejaVuSans-30" x="335.888672"/>
     <use xlink:href="#DejaVuSans-2e" x="399.511719"/>
     <use xlink:href="#DejaVuSans-30" x="431.298828"/>
     <use xlink:href="#DejaVuSans-30" x="494.921875"/>
    </g>
   </g>
   <g id="text_16">
    <!-- n = 55 -->
    <g transform="translate(71.139906 34.017473)scale(0.1 -0.1)">
     <use xlink:href="#DejaVuSans-6e"/>
     <use xlink:href="#DejaVuSans-20" x="63.378906"/>
     <use xlink:href="#DejaVuSans-3d" x="95.166016"/>
     <use xlink:href="#DejaVuSans-20" x="178.955078"/>
     <use xlink:href="#DejaVuSans-35" x="210.742188"/>
     <use xlink:href="#DejaVuSans-35" x="274.365234"/>
    </g>
   </g>
   <g id="text_17">
    <!-- IMM1Diff vs PercentGpA_transformed -->
    <g transform="translate(136.921562 40.675942)scale(0.12 -0.12)">
     <defs>
      <path id="DejaVuSans-76" d="M 191 3500 
L 800 3500 
L 1894 563 
L 2988 3500 
L 3597 3500 
L 2284 0 
L 1503 0 
L 191 3500 
z
" transform="scale(0.015625)"/>
     </defs>
     <use xlink:href="#DejaVuSans-49"/>
     <use xlink:href="#DejaVuSans-4d" x="29.492188"/>
     <use xlink:href="#DejaVuSans-4d" x="115.771484"/>
     <use xlink:href="#DejaVuSans-31" x="202.050781"/>
     <use xlink:href="#DejaVuSans-44" x="265.673828"/>
     <use xlink:href="#DejaVuSans-69" x="342.675781"/>
     <use xlink:href="#DejaVuSans-66" x="370.458984"/>
     <use xlink:href="#DejaVuSans-66" x="405.664062"/>
     <use xlink:href="#DejaVuSans-20" x="440.869141"/>
     <use xlink:href="#DejaVuSans-76" x="472.65625"/>
     <use xlink:href="#DejaVuSans-73" x="531.835938"/>
     <use xlink:href="#DejaVuSans-20" x="583.935547"/>
     <use xlink:href="#DejaVuSans-50" x="615.722656"/>
     <use xlink:href="#DejaVuSans-65" x="672.400391"/>
     <use xlink:href="#DejaVuSans-72" x="733.923828"/>
     <use xlink:href="#DejaVuSans-63" x="772.787109"/>
     <use xlink:href="#DejaVuSans-65" x="827.767578"/>
     <use xlink:href="#DejaVuSans-6e" x="889.291016"/>
     <use xlink:href="#DejaVuSans-74" x="952.669922"/>
     <use xlink:href="#DejaVuSans-47" x="991.878906"/>
     <use xlink:href="#DejaVuSans-70" x="1069.369141"/>
     <use xlink:href="#DejaVuSans-41" x="1132.845703"/>
     <use xlink:href="#DejaVuSans-5f" x="1201.253906"/>
     <use xlink:href="#DejaVuSans-74" x="1251.253906"/>
     <use xlink:href="#DejaVuSans-72" x="1290.462891"/>
     <use xlink:href="#DejaVuSans-61" x="1331.576172"/>
     <use xlink:href="#DejaVuSans-6e" x="1392.855469"/>
     <use xlink:href="#DejaVuSans-73" x="1456.234375"/>
     <use xlink:href="#DejaVuSans-66" x="1508.333984"/>
     <use xlink:href="#DejaVuSans-6f" x="1543.539062"/>
     <use xlink:href="#DejaVuSans-72" x="1604.720703"/>
     <use xlink:href="#DejaVuSans-6d" x="1644.083984"/>
     <use xlink:href="#DejaVuSans-65" x="1741.496094"/>
     <use xlink:href="#DejaVuSans-64" x="1803.019531"/>
    </g>
   </g>
  </g>
 </g>
 <defs>
  <clipPath id="pcea675c574">
   <rect x="47.82125" y="46.675942" width="402.17875" height="256.964058"/>
  </clipPath>
 </defs>
</svg>
