<?xml version="1.0" encoding="utf-8" standalone="no"?>
<!DOCTYPE svg PUBLIC "-//W3C//DTD SVG 1.1//EN"
  "http://www.w3.org/Graphics/SVG/1.1/DTD/svg11.dtd">
<svg xmlns:xlink="http://www.w3.org/1999/xlink" width="460.8pt" height="345.6pt" viewBox="0 0 460.8 345.6" xmlns="http://www.w3.org/2000/svg" version="1.1">
 <metadata>
  <rdf:RDF xmlns:dc="http://purl.org/dc/elements/1.1/" xmlns:cc="http://creativecommons.org/ns#" xmlns:rdf="http://www.w3.org/1999/02/22-rdf-syntax-ns#">
   <cc:Work>
    <dc:type rdf:resource="http://purl.org/dc/dcmitype/StillImage"/>
    <dc:date>2024-02-03T13:05:55.242101</dc:date>
    <dc:format>image/svg+xml</dc:format>
    <dc:creator>
     <cc:Agent>
      <dc:title>Matplotlib v3.5.3, https://matplotlib.org/</dc:title>
     </cc:Agent>
    </dc:creator>
   </cc:Work>
  </rdf:RDF>
 </metadata>
 <defs>
  <style type="text/css">*{stroke-linejoin: round; stroke-linecap: butt}</style>
 </defs>
 <g id="figure_1">
  <g id="patch_1">
   <path d="M 0 345.6 
L 460.8 345.6 
L 460.8 0 
L 0 0 
z
" style="fill: #ffffff"/>
  </g>
  <g id="axes_1">
   <g id="patch_2">
    <path d="M 47.82125 303.64 
L 450 303.64 
L 450 46.675714 
L 47.82125 46.675714 
z
" style="fill: #ffffff"/>
   </g>
   <g id="PathCollection_1">
    <defs>
     <path id="m3abeaf7748" d="M 0 3 
C 0.795609 3 1.55874 2.683901 2.12132 2.12132 
C 2.683901 1.55874 3 0.795609 3 0 
C 3 -0.795609 2.683901 -1.55874 2.12132 -2.12132 
C 1.55874 -2.683901 0.795609 -3 0 -3 
C -0.795609 -3 -1.55874 -2.683901 -2.12132 -2.12132 
C -2.683901 -1.55874 -3 -0.795609 -3 0 
C -3 0.795609 -2.683901 1.55874 -2.12132 2.12132 
C -1.55874 2.683901 -0.795609 3 0 3 
z
" style="stroke: #1f77b4"/>
    </defs>
    <g clip-path="url(#pd466cea02c)">
     <use xlink:href="#m3abeaf7748" x="394.911127" y="199.861846" style="fill: #1f77b4; stroke: #1f77b4"/>
     <use xlink:href="#m3abeaf7748" x="241.496437" y="226.902492" style="fill: #1f77b4; stroke: #1f77b4"/>
     <use xlink:href="#m3abeaf7748" x="315.769781" y="209.104284" style="fill: #1f77b4; stroke: #1f77b4"/>
     <use xlink:href="#m3abeaf7748" x="378.966817" y="211.910456" style="fill: #1f77b4; stroke: #1f77b4"/>
     <use xlink:href="#m3abeaf7748" x="206.380603" y="197.572336" style="fill: #1f77b4; stroke: #1f77b4"/>
     <use xlink:href="#m3abeaf7748" x="213.986546" y="218.630575" style="fill: #1f77b4; stroke: #1f77b4"/>
     <use xlink:href="#m3abeaf7748" x="209.56136" y="181.871913" style="fill: #1f77b4; stroke: #1f77b4"/>
     <use xlink:href="#m3abeaf7748" x="186.769229" y="228.932968" style="fill: #1f77b4; stroke: #1f77b4"/>
     <use xlink:href="#m3abeaf7748" x="256.815073" y="165.240059" style="fill: #1f77b4; stroke: #1f77b4"/>
     <use xlink:href="#m3abeaf7748" x="236.473252" y="229.75216" style="fill: #1f77b4; stroke: #1f77b4"/>
     <use xlink:href="#m3abeaf7748" x="313.548787" y="196.099221" style="fill: #1f77b4; stroke: #1f77b4"/>
     <use xlink:href="#m3abeaf7748" x="235.586634" y="166.845979" style="fill: #1f77b4; stroke: #1f77b4"/>
     <use xlink:href="#m3abeaf7748" x="205.602711" y="205.733495" style="fill: #1f77b4; stroke: #1f77b4"/>
     <use xlink:href="#m3abeaf7748" x="330.783982" y="204.467128" style="fill: #1f77b4; stroke: #1f77b4"/>
     <use xlink:href="#m3abeaf7748" x="319.242124" y="209.929962" style="fill: #1f77b4; stroke: #1f77b4"/>
     <use xlink:href="#m3abeaf7748" x="393.837696" y="203.826461" style="fill: #1f77b4; stroke: #1f77b4"/>
     <use xlink:href="#m3abeaf7748" x="325.177626" y="190.60891" style="fill: #1f77b4; stroke: #1f77b4"/>
     <use xlink:href="#m3abeaf7748" x="132.795203" y="195.302492" style="fill: #1f77b4; stroke: #1f77b4"/>
     <use xlink:href="#m3abeaf7748" x="391.934975" y="235.775152" style="fill: #1f77b4; stroke: #1f77b4"/>
     <use xlink:href="#m3abeaf7748" x="393.779379" y="238.660227" style="fill: #1f77b4; stroke: #1f77b4"/>
     <use xlink:href="#m3abeaf7748" x="427.037959" y="180.038461" style="fill: #1f77b4; stroke: #1f77b4"/>
     <use xlink:href="#m3abeaf7748" x="335.441449" y="207.257642" style="fill: #1f77b4; stroke: #1f77b4"/>
     <use xlink:href="#m3abeaf7748" x="331.981955" y="209.436133" style="fill: #1f77b4; stroke: #1f77b4"/>
     <use xlink:href="#m3abeaf7748" x="314.973109" y="232.50945" style="fill: #1f77b4; stroke: #1f77b4"/>
     <use xlink:href="#m3abeaf7748" x="392.818628" y="140.499864" style="fill: #1f77b4; stroke: #1f77b4"/>
     <use xlink:href="#m3abeaf7748" x="331.726941" y="204.414326" style="fill: #1f77b4; stroke: #1f77b4"/>
     <use xlink:href="#m3abeaf7748" x="377.951703" y="226.709385" style="fill: #1f77b4; stroke: #1f77b4"/>
     <use xlink:href="#m3abeaf7748" x="391.064171" y="237.875909" style="fill: #1f77b4; stroke: #1f77b4"/>
     <use xlink:href="#m3abeaf7748" x="285.705796" y="245.103768" style="fill: #1f77b4; stroke: #1f77b4"/>
     <use xlink:href="#m3abeaf7748" x="319.833203" y="185.675332" style="fill: #1f77b4; stroke: #1f77b4"/>
     <use xlink:href="#m3abeaf7748" x="394.540467" y="239.020198" style="fill: #1f77b4; stroke: #1f77b4"/>
     <use xlink:href="#m3abeaf7748" x="372.233654" y="239.989089" style="fill: #1f77b4; stroke: #1f77b4"/>
     <use xlink:href="#m3abeaf7748" x="417.568832" y="216.374944" style="fill: #1f77b4; stroke: #1f77b4"/>
     <use xlink:href="#m3abeaf7748" x="393.764552" y="238.293451" style="fill: #1f77b4; stroke: #1f77b4"/>
     <use xlink:href="#m3abeaf7748" x="357.954843" y="181.034565" style="fill: #1f77b4; stroke: #1f77b4"/>
     <use xlink:href="#m3abeaf7748" x="219.566214" y="227.053355" style="fill: #1f77b4; stroke: #1f77b4"/>
     <use xlink:href="#m3abeaf7748" x="383.182456" y="251.403619" style="fill: #1f77b4; stroke: #1f77b4"/>
     <use xlink:href="#m3abeaf7748" x="393.004452" y="223.910019" style="fill: #1f77b4; stroke: #1f77b4"/>
     <use xlink:href="#m3abeaf7748" x="254.587159" y="208.330747" style="fill: #1f77b4; stroke: #1f77b4"/>
     <use xlink:href="#m3abeaf7748" x="387.116395" y="251.678294" style="fill: #1f77b4; stroke: #1f77b4"/>
     <use xlink:href="#m3abeaf7748" x="329.31518" y="130.401612" style="fill: #1f77b4; stroke: #1f77b4"/>
     <use xlink:href="#m3abeaf7748" x="152.017136" y="184.932683" style="fill: #1f77b4; stroke: #1f77b4"/>
     <use xlink:href="#m3abeaf7748" x="296.260216" y="241.850952" style="fill: #1f77b4; stroke: #1f77b4"/>
     <use xlink:href="#m3abeaf7748" x="395.00997" y="223.681182" style="fill: #1f77b4; stroke: #1f77b4"/>
     <use xlink:href="#m3abeaf7748" x="312.187723" y="227.379467" style="fill: #1f77b4; stroke: #1f77b4"/>
     <use xlink:href="#m3abeaf7748" x="431.719148" y="233.330148" style="fill: #1f77b4; stroke: #1f77b4"/>
     <use xlink:href="#m3abeaf7748" x="192.633565" y="250.522967" style="fill: #1f77b4; stroke: #1f77b4"/>
     <use xlink:href="#m3abeaf7748" x="395.571396" y="223.818774" style="fill: #1f77b4; stroke: #1f77b4"/>
     <use xlink:href="#m3abeaf7748" x="288.504032" y="233.046415" style="fill: #1f77b4; stroke: #1f77b4"/>
     <use xlink:href="#m3abeaf7748" x="395.634656" y="221.699772" style="fill: #1f77b4; stroke: #1f77b4"/>
     <use xlink:href="#m3abeaf7748" x="286.349262" y="181.958005" style="fill: #1f77b4; stroke: #1f77b4"/>
     <use xlink:href="#m3abeaf7748" x="132.744793" y="193.474555" style="fill: #1f77b4; stroke: #1f77b4"/>
     <use xlink:href="#m3abeaf7748" x="394.183645" y="191.525486" style="fill: #1f77b4; stroke: #1f77b4"/>
     <use xlink:href="#m3abeaf7748" x="393.002475" y="192.020299" style="fill: #1f77b4; stroke: #1f77b4"/>
     <use xlink:href="#m3abeaf7748" x="225.937613" y="182.286537" style="fill: #1f77b4; stroke: #1f77b4"/>
     <use xlink:href="#m3abeaf7748" x="393.397846" y="217.197696" style="fill: #1f77b4; stroke: #1f77b4"/>
     <use xlink:href="#m3abeaf7748" x="273.143881" y="113.529282" style="fill: #1f77b4; stroke: #1f77b4"/>
     <use xlink:href="#m3abeaf7748" x="393.493723" y="268.459783" style="fill: #1f77b4; stroke: #1f77b4"/>
     <use xlink:href="#m3abeaf7748" x="377.891409" y="231.677423" style="fill: #1f77b4; stroke: #1f77b4"/>
     <use xlink:href="#m3abeaf7748" x="322.22915" y="225.444959" style="fill: #1f77b4; stroke: #1f77b4"/>
     <use xlink:href="#m3abeaf7748" x="372.122951" y="193.479218" style="fill: #1f77b4; stroke: #1f77b4"/>
     <use xlink:href="#m3abeaf7748" x="396.986823" y="220.73215" style="fill: #1f77b4; stroke: #1f77b4"/>
     <use xlink:href="#m3abeaf7748" x="232.65496" y="226.378359" style="fill: #1f77b4; stroke: #1f77b4"/>
     <use xlink:href="#m3abeaf7748" x="393.760599" y="217.186348" style="fill: #1f77b4; stroke: #1f77b4"/>
     <use xlink:href="#m3abeaf7748" x="364.566429" y="226.491114" style="fill: #1f77b4; stroke: #1f77b4"/>
     <use xlink:href="#m3abeaf7748" x="264.263856" y="245.853505" style="fill: #1f77b4; stroke: #1f77b4"/>
     <use xlink:href="#m3abeaf7748" x="394.379354" y="221.597316" style="fill: #1f77b4; stroke: #1f77b4"/>
     <use xlink:href="#m3abeaf7748" x="355.477846" y="219.891547" style="fill: #1f77b4; stroke: #1f77b4"/>
     <use xlink:href="#m3abeaf7748" x="66.102102" y="188.954144" style="fill: #1f77b4; stroke: #1f77b4"/>
     <use xlink:href="#m3abeaf7748" x="141.356955" y="176.638148" style="fill: #1f77b4; stroke: #1f77b4"/>
     <use xlink:href="#m3abeaf7748" x="393.871302" y="250.405884" style="fill: #1f77b4; stroke: #1f77b4"/>
     <use xlink:href="#m3abeaf7748" x="323.254148" y="238.017459" style="fill: #1f77b4; stroke: #1f77b4"/>
     <use xlink:href="#m3abeaf7748" x="356.631339" y="219.657598" style="fill: #1f77b4; stroke: #1f77b4"/>
     <use xlink:href="#m3abeaf7748" x="393.774437" y="216.409176" style="fill: #1f77b4; stroke: #1f77b4"/>
     <use xlink:href="#m3abeaf7748" x="289.901667" y="177.362582" style="fill: #1f77b4; stroke: #1f77b4"/>
     <use xlink:href="#m3abeaf7748" x="394.451509" y="210.562372" style="fill: #1f77b4; stroke: #1f77b4"/>
     <use xlink:href="#m3abeaf7748" x="392.688156" y="248.203009" style="fill: #1f77b4; stroke: #1f77b4"/>
     <use xlink:href="#m3abeaf7748" x="286.066572" y="224.12934" style="fill: #1f77b4; stroke: #1f77b4"/>
     <use xlink:href="#m3abeaf7748" x="301.279446" y="195.06103" style="fill: #1f77b4; stroke: #1f77b4"/>
     <use xlink:href="#m3abeaf7748" x="293.066609" y="243.256899" style="fill: #1f77b4; stroke: #1f77b4"/>
     <use xlink:href="#m3abeaf7748" x="393.805078" y="250.394857" style="fill: #1f77b4; stroke: #1f77b4"/>
     <use xlink:href="#m3abeaf7748" x="394.447555" y="202.93842" style="fill: #1f77b4; stroke: #1f77b4"/>
     <use xlink:href="#m3abeaf7748" x="429.693861" y="242.847555" style="fill: #1f77b4; stroke: #1f77b4"/>
     <use xlink:href="#m3abeaf7748" x="394.331909" y="248.725277" style="fill: #1f77b4; stroke: #1f77b4"/>
     <use xlink:href="#m3abeaf7748" x="318.689594" y="211.085581" style="fill: #1f77b4; stroke: #1f77b4"/>
     <use xlink:href="#m3abeaf7748" x="255.151551" y="240.944272" style="fill: #1f77b4; stroke: #1f77b4"/>
     <use xlink:href="#m3abeaf7748" x="366.495838" y="250.823303" style="fill: #1f77b4; stroke: #1f77b4"/>
     <use xlink:href="#m3abeaf7748" x="199.4715" y="250.513098" style="fill: #1f77b4; stroke: #1f77b4"/>
     <use xlink:href="#m3abeaf7748" x="393.060793" y="235.209875" style="fill: #1f77b4; stroke: #1f77b4"/>
     <use xlink:href="#m3abeaf7748" x="325.630326" y="235.191416" style="fill: #1f77b4; stroke: #1f77b4"/>
     <use xlink:href="#m3abeaf7748" x="319.548536" y="199.290661" style="fill: #1f77b4; stroke: #1f77b4"/>
     <use xlink:href="#m3abeaf7748" x="392.582394" y="182.160197" style="fill: #1f77b4; stroke: #1f77b4"/>
     <use xlink:href="#m3abeaf7748" x="226.279608" y="197.224742" style="fill: #1f77b4; stroke: #1f77b4"/>
     <use xlink:href="#m3abeaf7748" x="316.082124" y="224.962928" style="fill: #1f77b4; stroke: #1f77b4"/>
     <use xlink:href="#m3abeaf7748" x="345.136926" y="205.607363" style="fill: #1f77b4; stroke: #1f77b4"/>
     <use xlink:href="#m3abeaf7748" x="392.103007" y="197.908928" style="fill: #1f77b4; stroke: #1f77b4"/>
     <use xlink:href="#m3abeaf7748" x="400.39393" y="243.590029" style="fill: #1f77b4; stroke: #1f77b4"/>
     <use xlink:href="#m3abeaf7748" x="330.14447" y="225.506687" style="fill: #1f77b4; stroke: #1f77b4"/>
     <use xlink:href="#m3abeaf7748" x="287.987085" y="236.558323" style="fill: #1f77b4; stroke: #1f77b4"/>
     <use xlink:href="#m3abeaf7748" x="414.596633" y="217.245256" style="fill: #1f77b4; stroke: #1f77b4"/>
     <use xlink:href="#m3abeaf7748" x="318.915943" y="228.516103" style="fill: #1f77b4; stroke: #1f77b4"/>
     <use xlink:href="#m3abeaf7748" x="430.130746" y="247.745192" style="fill: #1f77b4; stroke: #1f77b4"/>
     <use xlink:href="#m3abeaf7748" x="271.504082" y="209.49106" style="fill: #1f77b4; stroke: #1f77b4"/>
     <use xlink:href="#m3abeaf7748" x="300.164501" y="204.739687" style="fill: #1f77b4; stroke: #1f77b4"/>
     <use xlink:href="#m3abeaf7748" x="297.700353" y="240.927613" style="fill: #1f77b4; stroke: #1f77b4"/>
     <use xlink:href="#m3abeaf7748" x="395.240273" y="202.386389" style="fill: #1f77b4; stroke: #1f77b4"/>
     <use xlink:href="#m3abeaf7748" x="404.830977" y="218.084704" style="fill: #1f77b4; stroke: #1f77b4"/>
     <use xlink:href="#m3abeaf7748" x="259.931582" y="231.314058" style="fill: #1f77b4; stroke: #1f77b4"/>
     <use xlink:href="#m3abeaf7748" x="208.63125" y="221.43695" style="fill: #1f77b4; stroke: #1f77b4"/>
     <use xlink:href="#m3abeaf7748" x="271.803575" y="250.335062" style="fill: #1f77b4; stroke: #1f77b4"/>
     <use xlink:href="#m3abeaf7748" x="393.86043" y="197.461422" style="fill: #1f77b4; stroke: #1f77b4"/>
     <use xlink:href="#m3abeaf7748" x="309.922249" y="229.273781" style="fill: #1f77b4; stroke: #1f77b4"/>
     <use xlink:href="#m3abeaf7748" x="393.01236" y="228.032443" style="fill: #1f77b4; stroke: #1f77b4"/>
    </g>
   </g>
   <g id="matplotlib.axis_1">
    <g id="xtick_1">
     <g id="line2d_1">
      <defs>
       <path id="m3ddcb51945" d="M 0 0 
L 0 3.5 
" style="stroke: #000000; stroke-width: 0.8"/>
      </defs>
      <g>
       <use xlink:href="#m3ddcb51945" x="96.709722" y="303.64" style="stroke: #000000; stroke-width: 0.8"/>
      </g>
     </g>
     <g id="text_1">
      <!-- −30 -->
      <g transform="translate(86.157379 318.238437)scale(0.1 -0.1)">
       <defs>
        <path id="DejaVuSans-2212" d="M 678 2272 
L 4684 2272 
L 4684 1741 
L 678 1741 
L 678 2272 
z
" transform="scale(0.015625)"/>
        <path id="DejaVuSans-33" d="M 2597 2516 
Q 3050 2419 3304 2112 
Q 3559 1806 3559 1356 
Q 3559 666 3084 287 
Q 2609 -91 1734 -91 
Q 1441 -91 1130 -33 
Q 819 25 488 141 
L 488 750 
Q 750 597 1062 519 
Q 1375 441 1716 441 
Q 2309 441 2620 675 
Q 2931 909 2931 1356 
Q 2931 1769 2642 2001 
Q 2353 2234 1838 2234 
L 1294 2234 
L 1294 2753 
L 1863 2753 
Q 2328 2753 2575 2939 
Q 2822 3125 2822 3475 
Q 2822 3834 2567 4026 
Q 2313 4219 1838 4219 
Q 1578 4219 1281 4162 
Q 984 4106 628 3988 
L 628 4550 
Q 988 4650 1302 4700 
Q 1616 4750 1894 4750 
Q 2613 4750 3031 4423 
Q 3450 4097 3450 3541 
Q 3450 3153 3228 2886 
Q 3006 2619 2597 2516 
z
" transform="scale(0.015625)"/>
        <path id="DejaVuSans-30" d="M 2034 4250 
Q 1547 4250 1301 3770 
Q 1056 3291 1056 2328 
Q 1056 1369 1301 889 
Q 1547 409 2034 409 
Q 2525 409 2770 889 
Q 3016 1369 3016 2328 
Q 3016 3291 2770 3770 
Q 2525 4250 2034 4250 
z
M 2034 4750 
Q 2819 4750 3233 4129 
Q 3647 3509 3647 2328 
Q 3647 1150 3233 529 
Q 2819 -91 2034 -91 
Q 1250 -91 836 529 
Q 422 1150 422 2328 
Q 422 3509 836 4129 
Q 1250 4750 2034 4750 
z
" transform="scale(0.015625)"/>
       </defs>
       <use xlink:href="#DejaVuSans-2212"/>
       <use xlink:href="#DejaVuSans-33" x="83.789062"/>
       <use xlink:href="#DejaVuSans-30" x="147.412109"/>
      </g>
     </g>
    </g>
    <g id="xtick_2">
     <g id="line2d_2">
      <g>
       <use xlink:href="#m3ddcb51945" x="146.131055" y="303.64" style="stroke: #000000; stroke-width: 0.8"/>
      </g>
     </g>
     <g id="text_2">
      <!-- −25 -->
      <g transform="translate(135.578712 318.238437)scale(0.1 -0.1)">
       <defs>
        <path id="DejaVuSans-32" d="M 1228 531 
L 3431 531 
L 3431 0 
L 469 0 
L 469 531 
Q 828 903 1448 1529 
Q 2069 2156 2228 2338 
Q 2531 2678 2651 2914 
Q 2772 3150 2772 3378 
Q 2772 3750 2511 3984 
Q 2250 4219 1831 4219 
Q 1534 4219 1204 4116 
Q 875 4013 500 3803 
L 500 4441 
Q 881 4594 1212 4672 
Q 1544 4750 1819 4750 
Q 2544 4750 2975 4387 
Q 3406 4025 3406 3419 
Q 3406 3131 3298 2873 
Q 3191 2616 2906 2266 
Q 2828 2175 2409 1742 
Q 1991 1309 1228 531 
z
" transform="scale(0.015625)"/>
        <path id="DejaVuSans-35" d="M 691 4666 
L 3169 4666 
L 3169 4134 
L 1269 4134 
L 1269 2991 
Q 1406 3038 1543 3061 
Q 1681 3084 1819 3084 
Q 2600 3084 3056 2656 
Q 3513 2228 3513 1497 
Q 3513 744 3044 326 
Q 2575 -91 1722 -91 
Q 1428 -91 1123 -41 
Q 819 9 494 109 
L 494 744 
Q 775 591 1075 516 
Q 1375 441 1709 441 
Q 2250 441 2565 725 
Q 2881 1009 2881 1497 
Q 2881 1984 2565 2268 
Q 2250 2553 1709 2553 
Q 1456 2553 1204 2497 
Q 953 2441 691 2322 
L 691 4666 
z
" transform="scale(0.015625)"/>
       </defs>
       <use xlink:href="#DejaVuSans-2212"/>
       <use xlink:href="#DejaVuSans-32" x="83.789062"/>
       <use xlink:href="#DejaVuSans-35" x="147.412109"/>
      </g>
     </g>
    </g>
    <g id="xtick_3">
     <g id="line2d_3">
      <g>
       <use xlink:href="#m3ddcb51945" x="195.552389" y="303.64" style="stroke: #000000; stroke-width: 0.8"/>
      </g>
     </g>
     <g id="text_3">
      <!-- −20 -->
      <g transform="translate(185.000045 318.238437)scale(0.1 -0.1)">
       <use xlink:href="#DejaVuSans-2212"/>
       <use xlink:href="#DejaVuSans-32" x="83.789062"/>
       <use xlink:href="#DejaVuSans-30" x="147.412109"/>
      </g>
     </g>
    </g>
    <g id="xtick_4">
     <g id="line2d_4">
      <g>
       <use xlink:href="#m3ddcb51945" x="244.973722" y="303.64" style="stroke: #000000; stroke-width: 0.8"/>
      </g>
     </g>
     <g id="text_4">
      <!-- −15 -->
      <g transform="translate(234.421378 318.238437)scale(0.1 -0.1)">
       <defs>
        <path id="DejaVuSans-31" d="M 794 531 
L 1825 531 
L 1825 4091 
L 703 3866 
L 703 4441 
L 1819 4666 
L 2450 4666 
L 2450 531 
L 3481 531 
L 3481 0 
L 794 0 
L 794 531 
z
" transform="scale(0.015625)"/>
       </defs>
       <use xlink:href="#DejaVuSans-2212"/>
       <use xlink:href="#DejaVuSans-31" x="83.789062"/>
       <use xlink:href="#DejaVuSans-35" x="147.412109"/>
      </g>
     </g>
    </g>
    <g id="xtick_5">
     <g id="line2d_5">
      <g>
       <use xlink:href="#m3ddcb51945" x="294.395055" y="303.64" style="stroke: #000000; stroke-width: 0.8"/>
      </g>
     </g>
     <g id="text_5">
      <!-- −10 -->
      <g transform="translate(283.842711 318.238437)scale(0.1 -0.1)">
       <use xlink:href="#DejaVuSans-2212"/>
       <use xlink:href="#DejaVuSans-31" x="83.789062"/>
       <use xlink:href="#DejaVuSans-30" x="147.412109"/>
      </g>
     </g>
    </g>
    <g id="xtick_6">
     <g id="line2d_6">
      <g>
       <use xlink:href="#m3ddcb51945" x="343.816388" y="303.64" style="stroke: #000000; stroke-width: 0.8"/>
      </g>
     </g>
     <g id="text_6">
      <!-- −5 -->
      <g transform="translate(336.445294 318.238437)scale(0.1 -0.1)">
       <use xlink:href="#DejaVuSans-2212"/>
       <use xlink:href="#DejaVuSans-35" x="83.789062"/>
      </g>
     </g>
    </g>
    <g id="xtick_7">
     <g id="line2d_7">
      <g>
       <use xlink:href="#m3ddcb51945" x="393.237721" y="303.64" style="stroke: #000000; stroke-width: 0.8"/>
      </g>
     </g>
     <g id="text_7">
      <!-- 0 -->
      <g transform="translate(390.056471 318.238437)scale(0.1 -0.1)">
       <use xlink:href="#DejaVuSans-30"/>
      </g>
     </g>
    </g>
    <g id="xtick_8">
     <g id="line2d_8">
      <g>
       <use xlink:href="#m3ddcb51945" x="442.659054" y="303.64" style="stroke: #000000; stroke-width: 0.8"/>
      </g>
     </g>
     <g id="text_8">
      <!-- 5 -->
      <g transform="translate(439.477804 318.238437)scale(0.1 -0.1)">
       <use xlink:href="#DejaVuSans-35"/>
      </g>
     </g>
    </g>
    <g id="text_9">
     <!-- HBONDDiff -->
     <g transform="translate(221.521562 331.916562)scale(0.1 -0.1)">
      <defs>
       <path id="DejaVuSans-48" d="M 628 4666 
L 1259 4666 
L 1259 2753 
L 3553 2753 
L 3553 4666 
L 4184 4666 
L 4184 0 
L 3553 0 
L 3553 2222 
L 1259 2222 
L 1259 0 
L 628 0 
L 628 4666 
z
" transform="scale(0.015625)"/>
       <path id="DejaVuSans-42" d="M 1259 2228 
L 1259 519 
L 2272 519 
Q 2781 519 3026 730 
Q 3272 941 3272 1375 
Q 3272 1813 3026 2020 
Q 2781 2228 2272 2228 
L 1259 2228 
z
M 1259 4147 
L 1259 2741 
L 2194 2741 
Q 2656 2741 2882 2914 
Q 3109 3088 3109 3444 
Q 3109 3797 2882 3972 
Q 2656 4147 2194 4147 
L 1259 4147 
z
M 628 4666 
L 2241 4666 
Q 2963 4666 3353 4366 
Q 3744 4066 3744 3513 
Q 3744 3084 3544 2831 
Q 3344 2578 2956 2516 
Q 3422 2416 3680 2098 
Q 3938 1781 3938 1306 
Q 3938 681 3513 340 
Q 3088 0 2303 0 
L 628 0 
L 628 4666 
z
" transform="scale(0.015625)"/>
       <path id="DejaVuSans-4f" d="M 2522 4238 
Q 1834 4238 1429 3725 
Q 1025 3213 1025 2328 
Q 1025 1447 1429 934 
Q 1834 422 2522 422 
Q 3209 422 3611 934 
Q 4013 1447 4013 2328 
Q 4013 3213 3611 3725 
Q 3209 4238 2522 4238 
z
M 2522 4750 
Q 3503 4750 4090 4092 
Q 4678 3434 4678 2328 
Q 4678 1225 4090 567 
Q 3503 -91 2522 -91 
Q 1538 -91 948 565 
Q 359 1222 359 2328 
Q 359 3434 948 4092 
Q 1538 4750 2522 4750 
z
" transform="scale(0.015625)"/>
       <path id="DejaVuSans-4e" d="M 628 4666 
L 1478 4666 
L 3547 763 
L 3547 4666 
L 4159 4666 
L 4159 0 
L 3309 0 
L 1241 3903 
L 1241 0 
L 628 0 
L 628 4666 
z
" transform="scale(0.015625)"/>
       <path id="DejaVuSans-44" d="M 1259 4147 
L 1259 519 
L 2022 519 
Q 2988 519 3436 956 
Q 3884 1394 3884 2338 
Q 3884 3275 3436 3711 
Q 2988 4147 2022 4147 
L 1259 4147 
z
M 628 4666 
L 1925 4666 
Q 3281 4666 3915 4102 
Q 4550 3538 4550 2338 
Q 4550 1131 3912 565 
Q 3275 0 1925 0 
L 628 0 
L 628 4666 
z
" transform="scale(0.015625)"/>
       <path id="DejaVuSans-69" d="M 603 3500 
L 1178 3500 
L 1178 0 
L 603 0 
L 603 3500 
z
M 603 4863 
L 1178 4863 
L 1178 4134 
L 603 4134 
L 603 4863 
z
" transform="scale(0.015625)"/>
       <path id="DejaVuSans-66" d="M 2375 4863 
L 2375 4384 
L 1825 4384 
Q 1516 4384 1395 4259 
Q 1275 4134 1275 3809 
L 1275 3500 
L 2222 3500 
L 2222 3053 
L 1275 3053 
L 1275 0 
L 697 0 
L 697 3053 
L 147 3053 
L 147 3500 
L 697 3500 
L 697 3744 
Q 697 4328 969 4595 
Q 1241 4863 1831 4863 
L 2375 4863 
z
" transform="scale(0.015625)"/>
      </defs>
      <use xlink:href="#DejaVuSans-48"/>
      <use xlink:href="#DejaVuSans-42" x="75.195312"/>
      <use xlink:href="#DejaVuSans-4f" x="142.048828"/>
      <use xlink:href="#DejaVuSans-4e" x="220.759766"/>
      <use xlink:href="#DejaVuSans-44" x="295.564453"/>
      <use xlink:href="#DejaVuSans-44" x="372.566406"/>
      <use xlink:href="#DejaVuSans-69" x="449.568359"/>
      <use xlink:href="#DejaVuSans-66" x="477.351562"/>
      <use xlink:href="#DejaVuSans-66" x="512.556641"/>
     </g>
    </g>
   </g>
   <g id="matplotlib.axis_2">
    <g id="ytick_1">
     <g id="line2d_9">
      <defs>
       <path id="me76a413f27" d="M 0 0 
L -3.5 0 
" style="stroke: #000000; stroke-width: 0.8"/>
      </defs>
      <g>
       <use xlink:href="#me76a413f27" x="47.82125" y="303.64" style="stroke: #000000; stroke-width: 0.8"/>
      </g>
     </g>
     <g id="text_10">
      <!-- 0.0 -->
      <g transform="translate(24.918125 307.439219)scale(0.1 -0.1)">
       <defs>
        <path id="DejaVuSans-2e" d="M 684 794 
L 1344 794 
L 1344 0 
L 684 0 
L 684 794 
z
" transform="scale(0.015625)"/>
       </defs>
       <use xlink:href="#DejaVuSans-30"/>
       <use xlink:href="#DejaVuSans-2e" x="63.623047"/>
       <use xlink:href="#DejaVuSans-30" x="95.410156"/>
      </g>
     </g>
    </g>
    <g id="ytick_2">
     <g id="line2d_10">
      <g>
       <use xlink:href="#me76a413f27" x="47.82125" y="260.265558" style="stroke: #000000; stroke-width: 0.8"/>
      </g>
     </g>
     <g id="text_11">
      <!-- 0.2 -->
      <g transform="translate(24.918125 264.064777)scale(0.1 -0.1)">
       <use xlink:href="#DejaVuSans-30"/>
       <use xlink:href="#DejaVuSans-2e" x="63.623047"/>
       <use xlink:href="#DejaVuSans-32" x="95.410156"/>
      </g>
     </g>
    </g>
    <g id="ytick_3">
     <g id="line2d_11">
      <g>
       <use xlink:href="#me76a413f27" x="47.82125" y="216.891117" style="stroke: #000000; stroke-width: 0.8"/>
      </g>
     </g>
     <g id="text_12">
      <!-- 0.4 -->
      <g transform="translate(24.918125 220.690336)scale(0.1 -0.1)">
       <defs>
        <path id="DejaVuSans-34" d="M 2419 4116 
L 825 1625 
L 2419 1625 
L 2419 4116 
z
M 2253 4666 
L 3047 4666 
L 3047 1625 
L 3713 1625 
L 3713 1100 
L 3047 1100 
L 3047 0 
L 2419 0 
L 2419 1100 
L 313 1100 
L 313 1709 
L 2253 4666 
z
" transform="scale(0.015625)"/>
       </defs>
       <use xlink:href="#DejaVuSans-30"/>
       <use xlink:href="#DejaVuSans-2e" x="63.623047"/>
       <use xlink:href="#DejaVuSans-34" x="95.410156"/>
      </g>
     </g>
    </g>
    <g id="ytick_4">
     <g id="line2d_12">
      <g>
       <use xlink:href="#me76a413f27" x="47.82125" y="173.516675" style="stroke: #000000; stroke-width: 0.8"/>
      </g>
     </g>
     <g id="text_13">
      <!-- 0.6 -->
      <g transform="translate(24.918125 177.315894)scale(0.1 -0.1)">
       <defs>
        <path id="DejaVuSans-36" d="M 2113 2584 
Q 1688 2584 1439 2293 
Q 1191 2003 1191 1497 
Q 1191 994 1439 701 
Q 1688 409 2113 409 
Q 2538 409 2786 701 
Q 3034 994 3034 1497 
Q 3034 2003 2786 2293 
Q 2538 2584 2113 2584 
z
M 3366 4563 
L 3366 3988 
Q 3128 4100 2886 4159 
Q 2644 4219 2406 4219 
Q 1781 4219 1451 3797 
Q 1122 3375 1075 2522 
Q 1259 2794 1537 2939 
Q 1816 3084 2150 3084 
Q 2853 3084 3261 2657 
Q 3669 2231 3669 1497 
Q 3669 778 3244 343 
Q 2819 -91 2113 -91 
Q 1303 -91 875 529 
Q 447 1150 447 2328 
Q 447 3434 972 4092 
Q 1497 4750 2381 4750 
Q 2619 4750 2861 4703 
Q 3103 4656 3366 4563 
z
" transform="scale(0.015625)"/>
       </defs>
       <use xlink:href="#DejaVuSans-30"/>
       <use xlink:href="#DejaVuSans-2e" x="63.623047"/>
       <use xlink:href="#DejaVuSans-36" x="95.410156"/>
      </g>
     </g>
    </g>
    <g id="ytick_5">
     <g id="line2d_13">
      <g>
       <use xlink:href="#me76a413f27" x="47.82125" y="130.142234" style="stroke: #000000; stroke-width: 0.8"/>
      </g>
     </g>
     <g id="text_14">
      <!-- 0.8 -->
      <g transform="translate(24.918125 133.941452)scale(0.1 -0.1)">
       <defs>
        <path id="DejaVuSans-38" d="M 2034 2216 
Q 1584 2216 1326 1975 
Q 1069 1734 1069 1313 
Q 1069 891 1326 650 
Q 1584 409 2034 409 
Q 2484 409 2743 651 
Q 3003 894 3003 1313 
Q 3003 1734 2745 1975 
Q 2488 2216 2034 2216 
z
M 1403 2484 
Q 997 2584 770 2862 
Q 544 3141 544 3541 
Q 544 4100 942 4425 
Q 1341 4750 2034 4750 
Q 2731 4750 3128 4425 
Q 3525 4100 3525 3541 
Q 3525 3141 3298 2862 
Q 3072 2584 2669 2484 
Q 3125 2378 3379 2068 
Q 3634 1759 3634 1313 
Q 3634 634 3220 271 
Q 2806 -91 2034 -91 
Q 1263 -91 848 271 
Q 434 634 434 1313 
Q 434 1759 690 2068 
Q 947 2378 1403 2484 
z
M 1172 3481 
Q 1172 3119 1398 2916 
Q 1625 2713 2034 2713 
Q 2441 2713 2670 2916 
Q 2900 3119 2900 3481 
Q 2900 3844 2670 4047 
Q 2441 4250 2034 4250 
Q 1625 4250 1398 4047 
Q 1172 3844 1172 3481 
z
" transform="scale(0.015625)"/>
       </defs>
       <use xlink:href="#DejaVuSans-30"/>
       <use xlink:href="#DejaVuSans-2e" x="63.623047"/>
       <use xlink:href="#DejaVuSans-38" x="95.410156"/>
      </g>
     </g>
    </g>
    <g id="ytick_6">
     <g id="line2d_14">
      <g>
       <use xlink:href="#me76a413f27" x="47.82125" y="86.767792" style="stroke: #000000; stroke-width: 0.8"/>
      </g>
     </g>
     <g id="text_15">
      <!-- 1.0 -->
      <g transform="translate(24.918125 90.567011)scale(0.1 -0.1)">
       <use xlink:href="#DejaVuSans-31"/>
       <use xlink:href="#DejaVuSans-2e" x="63.623047"/>
       <use xlink:href="#DejaVuSans-30" x="95.410156"/>
      </g>
     </g>
    </g>
    <g id="text_16">
     <!-- PercentGpA_transformed -->
     <g transform="translate(18.560313 237.696138)rotate(-90)scale(0.1 -0.1)">
      <defs>
       <path id="DejaVuSans-50" d="M 1259 4147 
L 1259 2394 
L 2053 2394 
Q 2494 2394 2734 2622 
Q 2975 2850 2975 3272 
Q 2975 3691 2734 3919 
Q 2494 4147 2053 4147 
L 1259 4147 
z
M 628 4666 
L 2053 4666 
Q 2838 4666 3239 4311 
Q 3641 3956 3641 3272 
Q 3641 2581 3239 2228 
Q 2838 1875 2053 1875 
L 1259 1875 
L 1259 0 
L 628 0 
L 628 4666 
z
" transform="scale(0.015625)"/>
       <path id="DejaVuSans-65" d="M 3597 1894 
L 3597 1613 
L 953 1613 
Q 991 1019 1311 708 
Q 1631 397 2203 397 
Q 2534 397 2845 478 
Q 3156 559 3463 722 
L 3463 178 
Q 3153 47 2828 -22 
Q 2503 -91 2169 -91 
Q 1331 -91 842 396 
Q 353 884 353 1716 
Q 353 2575 817 3079 
Q 1281 3584 2069 3584 
Q 2775 3584 3186 3129 
Q 3597 2675 3597 1894 
z
M 3022 2063 
Q 3016 2534 2758 2815 
Q 2500 3097 2075 3097 
Q 1594 3097 1305 2825 
Q 1016 2553 972 2059 
L 3022 2063 
z
" transform="scale(0.015625)"/>
       <path id="DejaVuSans-72" d="M 2631 2963 
Q 2534 3019 2420 3045 
Q 2306 3072 2169 3072 
Q 1681 3072 1420 2755 
Q 1159 2438 1159 1844 
L 1159 0 
L 581 0 
L 581 3500 
L 1159 3500 
L 1159 2956 
Q 1341 3275 1631 3429 
Q 1922 3584 2338 3584 
Q 2397 3584 2469 3576 
Q 2541 3569 2628 3553 
L 2631 2963 
z
" transform="scale(0.015625)"/>
       <path id="DejaVuSans-63" d="M 3122 3366 
L 3122 2828 
Q 2878 2963 2633 3030 
Q 2388 3097 2138 3097 
Q 1578 3097 1268 2742 
Q 959 2388 959 1747 
Q 959 1106 1268 751 
Q 1578 397 2138 397 
Q 2388 397 2633 464 
Q 2878 531 3122 666 
L 3122 134 
Q 2881 22 2623 -34 
Q 2366 -91 2075 -91 
Q 1284 -91 818 406 
Q 353 903 353 1747 
Q 353 2603 823 3093 
Q 1294 3584 2113 3584 
Q 2378 3584 2631 3529 
Q 2884 3475 3122 3366 
z
" transform="scale(0.015625)"/>
       <path id="DejaVuSans-6e" d="M 3513 2113 
L 3513 0 
L 2938 0 
L 2938 2094 
Q 2938 2591 2744 2837 
Q 2550 3084 2163 3084 
Q 1697 3084 1428 2787 
Q 1159 2491 1159 1978 
L 1159 0 
L 581 0 
L 581 3500 
L 1159 3500 
L 1159 2956 
Q 1366 3272 1645 3428 
Q 1925 3584 2291 3584 
Q 2894 3584 3203 3211 
Q 3513 2838 3513 2113 
z
" transform="scale(0.015625)"/>
       <path id="DejaVuSans-74" d="M 1172 4494 
L 1172 3500 
L 2356 3500 
L 2356 3053 
L 1172 3053 
L 1172 1153 
Q 1172 725 1289 603 
Q 1406 481 1766 481 
L 2356 481 
L 2356 0 
L 1766 0 
Q 1100 0 847 248 
Q 594 497 594 1153 
L 594 3053 
L 172 3053 
L 172 3500 
L 594 3500 
L 594 4494 
L 1172 4494 
z
" transform="scale(0.015625)"/>
       <path id="DejaVuSans-47" d="M 3809 666 
L 3809 1919 
L 2778 1919 
L 2778 2438 
L 4434 2438 
L 4434 434 
Q 4069 175 3628 42 
Q 3188 -91 2688 -91 
Q 1594 -91 976 548 
Q 359 1188 359 2328 
Q 359 3472 976 4111 
Q 1594 4750 2688 4750 
Q 3144 4750 3555 4637 
Q 3966 4525 4313 4306 
L 4313 3634 
Q 3963 3931 3569 4081 
Q 3175 4231 2741 4231 
Q 1884 4231 1454 3753 
Q 1025 3275 1025 2328 
Q 1025 1384 1454 906 
Q 1884 428 2741 428 
Q 3075 428 3337 486 
Q 3600 544 3809 666 
z
" transform="scale(0.015625)"/>
       <path id="DejaVuSans-70" d="M 1159 525 
L 1159 -1331 
L 581 -1331 
L 581 3500 
L 1159 3500 
L 1159 2969 
Q 1341 3281 1617 3432 
Q 1894 3584 2278 3584 
Q 2916 3584 3314 3078 
Q 3713 2572 3713 1747 
Q 3713 922 3314 415 
Q 2916 -91 2278 -91 
Q 1894 -91 1617 61 
Q 1341 213 1159 525 
z
M 3116 1747 
Q 3116 2381 2855 2742 
Q 2594 3103 2138 3103 
Q 1681 3103 1420 2742 
Q 1159 2381 1159 1747 
Q 1159 1113 1420 752 
Q 1681 391 2138 391 
Q 2594 391 2855 752 
Q 3116 1113 3116 1747 
z
" transform="scale(0.015625)"/>
       <path id="DejaVuSans-41" d="M 2188 4044 
L 1331 1722 
L 3047 1722 
L 2188 4044 
z
M 1831 4666 
L 2547 4666 
L 4325 0 
L 3669 0 
L 3244 1197 
L 1141 1197 
L 716 0 
L 50 0 
L 1831 4666 
z
" transform="scale(0.015625)"/>
       <path id="DejaVuSans-5f" d="M 3263 -1063 
L 3263 -1509 
L -63 -1509 
L -63 -1063 
L 3263 -1063 
z
" transform="scale(0.015625)"/>
       <path id="DejaVuSans-61" d="M 2194 1759 
Q 1497 1759 1228 1600 
Q 959 1441 959 1056 
Q 959 750 1161 570 
Q 1363 391 1709 391 
Q 2188 391 2477 730 
Q 2766 1069 2766 1631 
L 2766 1759 
L 2194 1759 
z
M 3341 1997 
L 3341 0 
L 2766 0 
L 2766 531 
Q 2569 213 2275 61 
Q 1981 -91 1556 -91 
Q 1019 -91 701 211 
Q 384 513 384 1019 
Q 384 1609 779 1909 
Q 1175 2209 1959 2209 
L 2766 2209 
L 2766 2266 
Q 2766 2663 2505 2880 
Q 2244 3097 1772 3097 
Q 1472 3097 1187 3025 
Q 903 2953 641 2809 
L 641 3341 
Q 956 3463 1253 3523 
Q 1550 3584 1831 3584 
Q 2591 3584 2966 3190 
Q 3341 2797 3341 1997 
z
" transform="scale(0.015625)"/>
       <path id="DejaVuSans-73" d="M 2834 3397 
L 2834 2853 
Q 2591 2978 2328 3040 
Q 2066 3103 1784 3103 
Q 1356 3103 1142 2972 
Q 928 2841 928 2578 
Q 928 2378 1081 2264 
Q 1234 2150 1697 2047 
L 1894 2003 
Q 2506 1872 2764 1633 
Q 3022 1394 3022 966 
Q 3022 478 2636 193 
Q 2250 -91 1575 -91 
Q 1294 -91 989 -36 
Q 684 19 347 128 
L 347 722 
Q 666 556 975 473 
Q 1284 391 1588 391 
Q 1994 391 2212 530 
Q 2431 669 2431 922 
Q 2431 1156 2273 1281 
Q 2116 1406 1581 1522 
L 1381 1569 
Q 847 1681 609 1914 
Q 372 2147 372 2553 
Q 372 3047 722 3315 
Q 1072 3584 1716 3584 
Q 2034 3584 2315 3537 
Q 2597 3491 2834 3397 
z
" transform="scale(0.015625)"/>
       <path id="DejaVuSans-6f" d="M 1959 3097 
Q 1497 3097 1228 2736 
Q 959 2375 959 1747 
Q 959 1119 1226 758 
Q 1494 397 1959 397 
Q 2419 397 2687 759 
Q 2956 1122 2956 1747 
Q 2956 2369 2687 2733 
Q 2419 3097 1959 3097 
z
M 1959 3584 
Q 2709 3584 3137 3096 
Q 3566 2609 3566 1747 
Q 3566 888 3137 398 
Q 2709 -91 1959 -91 
Q 1206 -91 779 398 
Q 353 888 353 1747 
Q 353 2609 779 3096 
Q 1206 3584 1959 3584 
z
" transform="scale(0.015625)"/>
       <path id="DejaVuSans-6d" d="M 3328 2828 
Q 3544 3216 3844 3400 
Q 4144 3584 4550 3584 
Q 5097 3584 5394 3201 
Q 5691 2819 5691 2113 
L 5691 0 
L 5113 0 
L 5113 2094 
Q 5113 2597 4934 2840 
Q 4756 3084 4391 3084 
Q 3944 3084 3684 2787 
Q 3425 2491 3425 1978 
L 3425 0 
L 2847 0 
L 2847 2094 
Q 2847 2600 2669 2842 
Q 2491 3084 2119 3084 
Q 1678 3084 1418 2786 
Q 1159 2488 1159 1978 
L 1159 0 
L 581 0 
L 581 3500 
L 1159 3500 
L 1159 2956 
Q 1356 3278 1631 3431 
Q 1906 3584 2284 3584 
Q 2666 3584 2933 3390 
Q 3200 3197 3328 2828 
z
" transform="scale(0.015625)"/>
       <path id="DejaVuSans-64" d="M 2906 2969 
L 2906 4863 
L 3481 4863 
L 3481 0 
L 2906 0 
L 2906 525 
Q 2725 213 2448 61 
Q 2172 -91 1784 -91 
Q 1150 -91 751 415 
Q 353 922 353 1747 
Q 353 2572 751 3078 
Q 1150 3584 1784 3584 
Q 2172 3584 2448 3432 
Q 2725 3281 2906 2969 
z
M 947 1747 
Q 947 1113 1208 752 
Q 1469 391 1925 391 
Q 2381 391 2643 752 
Q 2906 1113 2906 1747 
Q 2906 2381 2643 2742 
Q 2381 3103 1925 3103 
Q 1469 3103 1208 2742 
Q 947 2381 947 1747 
z
" transform="scale(0.015625)"/>
      </defs>
      <use xlink:href="#DejaVuSans-50"/>
      <use xlink:href="#DejaVuSans-65" x="56.677734"/>
      <use xlink:href="#DejaVuSans-72" x="118.201172"/>
      <use xlink:href="#DejaVuSans-63" x="157.064453"/>
      <use xlink:href="#DejaVuSans-65" x="212.044922"/>
      <use xlink:href="#DejaVuSans-6e" x="273.568359"/>
      <use xlink:href="#DejaVuSans-74" x="336.947266"/>
      <use xlink:href="#DejaVuSans-47" x="376.15625"/>
      <use xlink:href="#DejaVuSans-70" x="453.646484"/>
      <use xlink:href="#DejaVuSans-41" x="517.123047"/>
      <use xlink:href="#DejaVuSans-5f" x="585.53125"/>
      <use xlink:href="#DejaVuSans-74" x="635.53125"/>
      <use xlink:href="#DejaVuSans-72" x="674.740234"/>
      <use xlink:href="#DejaVuSans-61" x="715.853516"/>
      <use xlink:href="#DejaVuSans-6e" x="777.132812"/>
      <use xlink:href="#DejaVuSans-73" x="840.511719"/>
      <use xlink:href="#DejaVuSans-66" x="892.611328"/>
      <use xlink:href="#DejaVuSans-6f" x="927.816406"/>
      <use xlink:href="#DejaVuSans-72" x="988.998047"/>
      <use xlink:href="#DejaVuSans-6d" x="1028.361328"/>
      <use xlink:href="#DejaVuSans-65" x="1125.773438"/>
      <use xlink:href="#DejaVuSans-64" x="1187.296875"/>
     </g>
    </g>
   </g>
   <g id="LineCollection_1">
    <path d="M 394.911127 200.98634 
L 394.911127 198.737351 
" clip-path="url(#pd466cea02c)" style="fill: none; stroke: #d3d3d3; stroke-width: 3"/>
    <path d="M 241.496437 246.502166 
L 241.496437 207.302818 
" clip-path="url(#pd466cea02c)" style="fill: none; stroke: #d3d3d3; stroke-width: 3"/>
    <path d="M 315.769781 224.040132 
L 315.769781 194.168435 
" clip-path="url(#pd466cea02c)" style="fill: none; stroke: #d3d3d3; stroke-width: 3"/>
    <path d="M 378.966817 213.411387 
L 378.966817 210.409524 
" clip-path="url(#pd466cea02c)" style="fill: none; stroke: #d3d3d3; stroke-width: 3"/>
    <path d="M 206.380603 221.467481 
L 206.380603 173.677192 
" clip-path="url(#pd466cea02c)" style="fill: none; stroke: #d3d3d3; stroke-width: 3"/>
    <path d="M 213.986546 224.931895 
L 213.986546 212.329256 
" clip-path="url(#pd466cea02c)" style="fill: none; stroke: #d3d3d3; stroke-width: 3"/>
    <path d="M 209.56136 196.694192 
L 209.56136 167.049634 
" clip-path="url(#pd466cea02c)" style="fill: none; stroke: #d3d3d3; stroke-width: 3"/>
    <path d="M 186.769229 236.058475 
L 186.769229 221.807462 
" clip-path="url(#pd466cea02c)" style="fill: none; stroke: #d3d3d3; stroke-width: 3"/>
    <path d="M 256.815073 169.854753 
L 256.815073 160.625364 
" clip-path="url(#pd466cea02c)" style="fill: none; stroke: #d3d3d3; stroke-width: 3"/>
    <path d="M 236.473252 236.811215 
L 236.473252 222.693104 
" clip-path="url(#pd466cea02c)" style="fill: none; stroke: #d3d3d3; stroke-width: 3"/>
    <path d="M 313.548787 201.095 
L 313.548787 191.103442 
" clip-path="url(#pd466cea02c)" style="fill: none; stroke: #d3d3d3; stroke-width: 3"/>
    <path d="M 235.586634 172.644961 
L 235.586634 161.046996 
" clip-path="url(#pd466cea02c)" style="fill: none; stroke: #d3d3d3; stroke-width: 3"/>
    <path d="M 205.602711 220.295984 
L 205.602711 191.171006 
" clip-path="url(#pd466cea02c)" style="fill: none; stroke: #d3d3d3; stroke-width: 3"/>
    <path d="M 330.783982 210.677086 
L 330.783982 198.257169 
" clip-path="url(#pd466cea02c)" style="fill: none; stroke: #d3d3d3; stroke-width: 3"/>
    <path d="M 319.242124 221.523754 
L 319.242124 198.33617 
" clip-path="url(#pd466cea02c)" style="fill: none; stroke: #d3d3d3; stroke-width: 3"/>
    <path d="M 393.837696 243.244771 
L 393.837696 164.408152 
" clip-path="url(#pd466cea02c)" style="fill: none; stroke: #d3d3d3; stroke-width: 3"/>
    <path d="M 325.177626 203.893468 
L 325.177626 177.324352 
" clip-path="url(#pd466cea02c)" style="fill: none; stroke: #d3d3d3; stroke-width: 3"/>
    <path d="M 132.795203 204.41069 
L 132.795203 186.194294 
" clip-path="url(#pd466cea02c)" style="fill: none; stroke: #d3d3d3; stroke-width: 3"/>
    <path d="M 391.934975 261.84432 
L 391.934975 209.705983 
" clip-path="url(#pd466cea02c)" style="fill: none; stroke: #d3d3d3; stroke-width: 3"/>
    <path d="M 393.779379 250.929749 
L 393.779379 226.390705 
" clip-path="url(#pd466cea02c)" style="fill: none; stroke: #d3d3d3; stroke-width: 3"/>
    <path d="M 427.037959 196.824278 
L 427.037959 163.252644 
" clip-path="url(#pd466cea02c)" style="fill: none; stroke: #d3d3d3; stroke-width: 3"/>
    <path d="M 335.441449 212.813887 
L 335.441449 201.701396 
" clip-path="url(#pd466cea02c)" style="fill: none; stroke: #d3d3d3; stroke-width: 3"/>
    <path d="M 331.981955 224.238711 
L 331.981955 194.633556 
" clip-path="url(#pd466cea02c)" style="fill: none; stroke: #d3d3d3; stroke-width: 3"/>
    <path d="M 314.973109 241.137428 
L 314.973109 223.881472 
" clip-path="url(#pd466cea02c)" style="fill: none; stroke: #d3d3d3; stroke-width: 3"/>
    <path d="M 392.818628 161.651421 
L 392.818628 119.348308 
" clip-path="url(#pd466cea02c)" style="fill: none; stroke: #d3d3d3; stroke-width: 3"/>
    <path d="M 331.726941 215.391756 
L 331.726941 193.436896 
" clip-path="url(#pd466cea02c)" style="fill: none; stroke: #d3d3d3; stroke-width: 3"/>
    <path d="M 377.951703 250.882346 
L 377.951703 202.536423 
" clip-path="url(#pd466cea02c)" style="fill: none; stroke: #d3d3d3; stroke-width: 3"/>
    <path d="M 391.064171 248.515118 
L 391.064171 227.236701 
" clip-path="url(#pd466cea02c)" style="fill: none; stroke: #d3d3d3; stroke-width: 3"/>
    <path d="M 285.705796 267.034934 
L 285.705796 223.172603 
" clip-path="url(#pd466cea02c)" style="fill: none; stroke: #d3d3d3; stroke-width: 3"/>
    <path d="M 319.833203 199.374028 
L 319.833203 171.976635 
" clip-path="url(#pd466cea02c)" style="fill: none; stroke: #d3d3d3; stroke-width: 3"/>
    <path d="M 394.540467 247.27028 
L 394.540467 230.770116 
" clip-path="url(#pd466cea02c)" style="fill: none; stroke: #d3d3d3; stroke-width: 3"/>
    <path d="M 372.233654 255.494737 
L 372.233654 224.483441 
" clip-path="url(#pd466cea02c)" style="fill: none; stroke: #d3d3d3; stroke-width: 3"/>
    <path d="M 417.568832 240.951862 
L 417.568832 191.798026 
" clip-path="url(#pd466cea02c)" style="fill: none; stroke: #d3d3d3; stroke-width: 3"/>
    <path d="M 393.764552 254.275672 
L 393.764552 222.311229 
" clip-path="url(#pd466cea02c)" style="fill: none; stroke: #d3d3d3; stroke-width: 3"/>
    <path d="M 357.954843 196.913886 
L 357.954843 165.155244 
" clip-path="url(#pd466cea02c)" style="fill: none; stroke: #d3d3d3; stroke-width: 3"/>
    <path d="M 219.566214 241.293435 
L 219.566214 212.813275 
" clip-path="url(#pd466cea02c)" style="fill: none; stroke: #d3d3d3; stroke-width: 3"/>
    <path d="M 383.182456 275.78699 
L 383.182456 227.020247 
" clip-path="url(#pd466cea02c)" style="fill: none; stroke: #d3d3d3; stroke-width: 3"/>
    <path d="M 393.004452 231.048067 
L 393.004452 216.771972 
" clip-path="url(#pd466cea02c)" style="fill: none; stroke: #d3d3d3; stroke-width: 3"/>
    <path d="M 254.587159 229.137502 
L 254.587159 187.523991 
" clip-path="url(#pd466cea02c)" style="fill: none; stroke: #d3d3d3; stroke-width: 3"/>
    <path d="M 387.116395 272.046671 
L 387.116395 231.309917 
" clip-path="url(#pd466cea02c)" style="fill: none; stroke: #d3d3d3; stroke-width: 3"/>
    <path d="M 329.31518 139.330282 
L 329.31518 121.472943 
" clip-path="url(#pd466cea02c)" style="fill: none; stroke: #d3d3d3; stroke-width: 3"/>
    <path d="M 152.017136 197.795321 
L 152.017136 172.070046 
" clip-path="url(#pd466cea02c)" style="fill: none; stroke: #d3d3d3; stroke-width: 3"/>
    <path d="M 296.260216 256.083644 
L 296.260216 227.618259 
" clip-path="url(#pd466cea02c)" style="fill: none; stroke: #d3d3d3; stroke-width: 3"/>
    <path d="M 395.00997 236.173328 
L 395.00997 211.189036 
" clip-path="url(#pd466cea02c)" style="fill: none; stroke: #d3d3d3; stroke-width: 3"/>
    <path d="M 312.187723 241.641432 
L 312.187723 213.117503 
" clip-path="url(#pd466cea02c)" style="fill: none; stroke: #d3d3d3; stroke-width: 3"/>
    <path d="M 431.719148 235.679626 
L 431.719148 230.98067 
" clip-path="url(#pd466cea02c)" style="fill: none; stroke: #d3d3d3; stroke-width: 3"/>
    <path d="M 192.633565 268.266982 
L 192.633565 232.778953 
" clip-path="url(#pd466cea02c)" style="fill: none; stroke: #d3d3d3; stroke-width: 3"/>
    <path d="M 395.571396 234.956251 
L 395.571396 212.681297 
" clip-path="url(#pd466cea02c)" style="fill: none; stroke: #d3d3d3; stroke-width: 3"/>
    <path d="M 288.504032 258.188139 
L 288.504032 207.90469 
" clip-path="url(#pd466cea02c)" style="fill: none; stroke: #d3d3d3; stroke-width: 3"/>
    <path d="M 395.634656 235.584756 
L 395.634656 207.814789 
" clip-path="url(#pd466cea02c)" style="fill: none; stroke: #d3d3d3; stroke-width: 3"/>
    <path d="M 286.349262 198.876089 
L 286.349262 165.039921 
" clip-path="url(#pd466cea02c)" style="fill: none; stroke: #d3d3d3; stroke-width: 3"/>
    <path d="M 132.744793 213.909875 
L 132.744793 173.039236 
" clip-path="url(#pd466cea02c)" style="fill: none; stroke: #d3d3d3; stroke-width: 3"/>
    <path d="M 394.183645 203.51093 
L 394.183645 179.540043 
" clip-path="url(#pd466cea02c)" style="fill: none; stroke: #d3d3d3; stroke-width: 3"/>
    <path d="M 393.002475 203.315922 
L 393.002475 180.724677 
" clip-path="url(#pd466cea02c)" style="fill: none; stroke: #d3d3d3; stroke-width: 3"/>
    <path d="M 225.937613 196.118844 
L 225.937613 168.45423 
" clip-path="url(#pd466cea02c)" style="fill: none; stroke: #d3d3d3; stroke-width: 3"/>
    <path d="M 393.397846 237.544858 
L 393.397846 196.850534 
" clip-path="url(#pd466cea02c)" style="fill: none; stroke: #d3d3d3; stroke-width: 3"/>
    <path d="M 273.143881 167.174391 
L 273.143881 59.884173 
" clip-path="url(#pd466cea02c)" style="fill: none; stroke: #d3d3d3; stroke-width: 3"/>
    <path d="M 393.493723 280.887622 
L 393.493723 256.031944 
" clip-path="url(#pd466cea02c)" style="fill: none; stroke: #d3d3d3; stroke-width: 3"/>
    <path d="M 377.891409 248.577673 
L 377.891409 214.777173 
" clip-path="url(#pd466cea02c)" style="fill: none; stroke: #d3d3d3; stroke-width: 3"/>
    <path d="M 322.22915 243.310315 
L 322.22915 207.579602 
" clip-path="url(#pd466cea02c)" style="fill: none; stroke: #d3d3d3; stroke-width: 3"/>
    <path d="M 372.122951 204.082646 
L 372.122951 182.875791 
" clip-path="url(#pd466cea02c)" style="fill: none; stroke: #d3d3d3; stroke-width: 3"/>
    <path d="M 396.986823 232.992347 
L 396.986823 208.471954 
" clip-path="url(#pd466cea02c)" style="fill: none; stroke: #d3d3d3; stroke-width: 3"/>
    <path d="M 232.65496 243.54739 
L 232.65496 209.209329 
" clip-path="url(#pd466cea02c)" style="fill: none; stroke: #d3d3d3; stroke-width: 3"/>
    <path d="M 393.760599 227.061871 
L 393.760599 207.310825 
" clip-path="url(#pd466cea02c)" style="fill: none; stroke: #d3d3d3; stroke-width: 3"/>
    <path d="M 364.566429 238.76574 
L 364.566429 214.216488 
" clip-path="url(#pd466cea02c)" style="fill: none; stroke: #d3d3d3; stroke-width: 3"/>
    <path d="M 264.263856 262.310071 
L 264.263856 229.396939 
" clip-path="url(#pd466cea02c)" style="fill: none; stroke: #d3d3d3; stroke-width: 3"/>
    <path d="M 394.379354 242.044955 
L 394.379354 201.149677 
" clip-path="url(#pd466cea02c)" style="fill: none; stroke: #d3d3d3; stroke-width: 3"/>
    <path d="M 355.477846 240.410816 
L 355.477846 199.372277 
" clip-path="url(#pd466cea02c)" style="fill: none; stroke: #d3d3d3; stroke-width: 3"/>
    <path d="M 66.102102 202.803185 
L 66.102102 175.105103 
" clip-path="url(#pd466cea02c)" style="fill: none; stroke: #d3d3d3; stroke-width: 3"/>
    <path d="M 141.356955 228.331096 
L 141.356955 124.9452 
" clip-path="url(#pd466cea02c)" style="fill: none; stroke: #d3d3d3; stroke-width: 3"/>
    <path d="M 393.871302 271.155763 
L 393.871302 229.656006 
" clip-path="url(#pd466cea02c)" style="fill: none; stroke: #d3d3d3; stroke-width: 3"/>
    <path d="M 323.254148 283.84326 
L 323.254148 192.191657 
" clip-path="url(#pd466cea02c)" style="fill: none; stroke: #d3d3d3; stroke-width: 3"/>
    <path d="M 356.631339 230.153982 
L 356.631339 209.161213 
" clip-path="url(#pd466cea02c)" style="fill: none; stroke: #d3d3d3; stroke-width: 3"/>
    <path d="M 393.774437 245.50156 
L 393.774437 187.316793 
" clip-path="url(#pd466cea02c)" style="fill: none; stroke: #d3d3d3; stroke-width: 3"/>
    <path d="M 289.901667 191.307946 
L 289.901667 163.417218 
" clip-path="url(#pd466cea02c)" style="fill: none; stroke: #d3d3d3; stroke-width: 3"/>
    <path d="M 394.451509 221.906942 
L 394.451509 199.217802 
" clip-path="url(#pd466cea02c)" style="fill: none; stroke: #d3d3d3; stroke-width: 3"/>
    <path d="M 392.688156 256.748707 
L 392.688156 239.657311 
" clip-path="url(#pd466cea02c)" style="fill: none; stroke: #d3d3d3; stroke-width: 3"/>
    <path d="M 286.066572 251.307249 
L 286.066572 196.951431 
" clip-path="url(#pd466cea02c)" style="fill: none; stroke: #d3d3d3; stroke-width: 3"/>
    <path d="M 301.279446 207.717422 
L 301.279446 182.404637 
" clip-path="url(#pd466cea02c)" style="fill: none; stroke: #d3d3d3; stroke-width: 3"/>
    <path d="M 293.066609 266.312174 
L 293.066609 220.201624 
" clip-path="url(#pd466cea02c)" style="fill: none; stroke: #d3d3d3; stroke-width: 3"/>
    <path d="M 393.805078 275.688149 
L 393.805078 225.101565 
" clip-path="url(#pd466cea02c)" style="fill: none; stroke: #d3d3d3; stroke-width: 3"/>
    <path d="M 394.447555 204.95398 
L 394.447555 200.922859 
" clip-path="url(#pd466cea02c)" style="fill: none; stroke: #d3d3d3; stroke-width: 3"/>
    <path d="M 429.693861 262.893042 
L 429.693861 222.802068 
" clip-path="url(#pd466cea02c)" style="fill: none; stroke: #d3d3d3; stroke-width: 3"/>
    <path d="M 394.331909 264.053833 
L 394.331909 233.396721 
" clip-path="url(#pd466cea02c)" style="fill: none; stroke: #d3d3d3; stroke-width: 3"/>
    <path d="M 318.689594 222.908373 
L 318.689594 199.262789 
" clip-path="url(#pd466cea02c)" style="fill: none; stroke: #d3d3d3; stroke-width: 3"/>
    <path d="M 255.151551 260.761088 
L 255.151551 221.127455 
" clip-path="url(#pd466cea02c)" style="fill: none; stroke: #d3d3d3; stroke-width: 3"/>
    <path d="M 366.495838 324.053355 
L 366.495838 177.593251 
" clip-path="url(#pd466cea02c)" style="fill: none; stroke: #d3d3d3; stroke-width: 3"/>
    <path d="M 199.4715 267.227943 
L 199.4715 233.798253 
" clip-path="url(#pd466cea02c)" style="fill: none; stroke: #d3d3d3; stroke-width: 3"/>
    <path d="M 393.060793 249.43573 
L 393.060793 220.984021 
" clip-path="url(#pd466cea02c)" style="fill: none; stroke: #d3d3d3; stroke-width: 3"/>
    <path d="M 325.630326 244.91594 
L 325.630326 225.466892 
" clip-path="url(#pd466cea02c)" style="fill: none; stroke: #d3d3d3; stroke-width: 3"/>
    <path d="M 319.548536 209.086687 
L 319.548536 189.494634 
" clip-path="url(#pd466cea02c)" style="fill: none; stroke: #d3d3d3; stroke-width: 3"/>
    <path d="M 392.582394 207.738791 
L 392.582394 156.581602 
" clip-path="url(#pd466cea02c)" style="fill: none; stroke: #d3d3d3; stroke-width: 3"/>
    <path d="M 226.279608 207.031024 
L 226.279608 187.418461 
" clip-path="url(#pd466cea02c)" style="fill: none; stroke: #d3d3d3; stroke-width: 3"/>
    <path d="M 316.082124 264.968933 
L 316.082124 184.956923 
" clip-path="url(#pd466cea02c)" style="fill: none; stroke: #d3d3d3; stroke-width: 3"/>
    <path d="M 345.136926 220.813292 
L 345.136926 190.401433 
" clip-path="url(#pd466cea02c)" style="fill: none; stroke: #d3d3d3; stroke-width: 3"/>
    <path d="M 392.103007 212.270716 
L 392.103007 183.54714 
" clip-path="url(#pd466cea02c)" style="fill: none; stroke: #d3d3d3; stroke-width: 3"/>
    <path d="M 400.39393 259.238079 
L 400.39393 227.941979 
" clip-path="url(#pd466cea02c)" style="fill: none; stroke: #d3d3d3; stroke-width: 3"/>
    <path d="M 330.14447 240.699336 
L 330.14447 210.314038 
" clip-path="url(#pd466cea02c)" style="fill: none; stroke: #d3d3d3; stroke-width: 3"/>
    <path d="M 287.987085 251.245681 
L 287.987085 221.870966 
" clip-path="url(#pd466cea02c)" style="fill: none; stroke: #d3d3d3; stroke-width: 3"/>
    <path d="M 414.596633 226.84356 
L 414.596633 207.646952 
" clip-path="url(#pd466cea02c)" style="fill: none; stroke: #d3d3d3; stroke-width: 3"/>
    <path d="M 318.915943 256.895347 
L 318.915943 200.13686 
" clip-path="url(#pd466cea02c)" style="fill: none; stroke: #d3d3d3; stroke-width: 3"/>
    <path d="M 430.130746 264.463236 
L 430.130746 231.027149 
" clip-path="url(#pd466cea02c)" style="fill: none; stroke: #d3d3d3; stroke-width: 3"/>
    <path d="M 271.504082 222.422296 
L 271.504082 196.559824 
" clip-path="url(#pd466cea02c)" style="fill: none; stroke: #d3d3d3; stroke-width: 3"/>
    <path d="M 300.164501 213.748391 
L 300.164501 195.730983 
" clip-path="url(#pd466cea02c)" style="fill: none; stroke: #d3d3d3; stroke-width: 3"/>
    <path d="M 297.700353 262.396156 
L 297.700353 219.45907 
" clip-path="url(#pd466cea02c)" style="fill: none; stroke: #d3d3d3; stroke-width: 3"/>
    <path d="M 395.240273 211.515549 
L 395.240273 193.25723 
" clip-path="url(#pd466cea02c)" style="fill: none; stroke: #d3d3d3; stroke-width: 3"/>
    <path d="M 404.830977 232.449042 
L 404.830977 203.720367 
" clip-path="url(#pd466cea02c)" style="fill: none; stroke: #d3d3d3; stroke-width: 3"/>
    <path d="M 259.931582 244.24982 
L 259.931582 218.378297 
" clip-path="url(#pd466cea02c)" style="fill: none; stroke: #d3d3d3; stroke-width: 3"/>
    <path d="M 208.63125 242.517363 
L 208.63125 200.356536 
" clip-path="url(#pd466cea02c)" style="fill: none; stroke: #d3d3d3; stroke-width: 3"/>
    <path d="M 271.803575 271.399554 
L 271.803575 229.27057 
" clip-path="url(#pd466cea02c)" style="fill: none; stroke: #d3d3d3; stroke-width: 3"/>
    <path d="M 393.86043 209.309952 
L 393.86043 185.612892 
" clip-path="url(#pd466cea02c)" style="fill: none; stroke: #d3d3d3; stroke-width: 3"/>
    <path d="M 309.922249 251.962683 
L 309.922249 206.584878 
" clip-path="url(#pd466cea02c)" style="fill: none; stroke: #d3d3d3; stroke-width: 3"/>
    <path d="M 393.01236 240.372583 
L 393.01236 215.692302 
" clip-path="url(#pd466cea02c)" style="fill: none; stroke: #d3d3d3; stroke-width: 3"/>
   </g>
   <g id="line2d_15">
    <path d="M 394.911127 221.149405 
L 241.496437 209.735431 
L 315.769781 215.26133 
L 378.966817 219.963156 
L 206.380603 207.122831 
L 213.986546 207.688709 
L 209.56136 207.359478 
L 186.769229 205.663755 
L 256.815073 210.87513 
L 236.473252 209.361709 
L 313.548787 215.096089 
L 235.586634 209.295745 
L 205.602711 207.064956 
L 330.783982 216.378378 
L 319.242124 215.51967 
L 393.837696 221.069542 
L 325.177626 215.961268 
L 132.795203 201.648115 
L 391.934975 220.927981 
L 393.779379 221.065203 
L 427.037959 223.539625 
L 335.441449 216.724892 
L 331.981955 216.467507 
L 314.973109 215.202058 
L 392.818628 220.993724 
L 331.726941 216.448534 
L 377.951703 219.887632 
L 391.064171 220.863193 
L 285.705796 213.024585 
L 319.833203 215.563646 
L 394.540467 221.121828 
L 372.233654 219.462213 
L 417.568832 222.835126 
L 393.764552 221.0641 
L 357.954843 218.399876 
L 219.566214 208.103834 
L 383.182456 220.276798 
L 393.004452 221.007549 
L 254.587159 210.709374 
L 387.116395 220.569481 
L 329.31518 216.2691 
L 152.017136 203.078217 
L 296.260216 213.809828 
L 395.00997 221.156759 
L 312.187723 214.994826 
L 431.719148 223.887903 
L 192.633565 206.100059 
L 395.571396 221.198529 
L 288.504032 213.232772 
L 395.634656 221.203235 
L 286.349262 213.072458 
L 132.744793 201.644365 
L 394.183645 221.095281 
L 393.002475 221.007402 
L 225.937613 208.577863 
L 393.397846 221.036818 
L 273.143881 212.089985 
L 393.493723 221.043951 
L 377.891409 219.883147 
L 322.22915 215.741903 
L 372.122951 219.453976 
L 396.986823 221.303836 
L 232.65496 209.07763 
L 393.760599 221.063806 
L 364.566429 218.891775 
L 264.263856 211.429315 
L 394.379354 221.109841 
L 355.477846 218.215589 
L 66.102102 196.686183 
L 141.356955 202.285105 
L 393.871302 221.072043 
L 323.254148 215.818163 
L 356.631339 218.301408 
L 393.774437 221.064836 
L 289.901667 213.336755 
L 394.451509 221.11521 
L 392.688156 220.984017 
L 286.066572 213.051426 
L 301.279446 214.183256 
L 293.066609 213.572225 
L 393.805078 221.067115 
L 394.447555 221.114915 
L 429.693861 223.737222 
L 394.331909 221.106311 
L 318.689594 215.478562 
L 255.151551 210.751365 
L 366.495838 219.035322 
L 199.4715 206.608797 
L 393.060793 221.011741 
L 325.630326 215.994949 
L 319.548536 215.542467 
L 392.582394 220.976148 
L 226.279608 208.603307 
L 316.082124 215.284568 
L 345.136926 217.44623 
L 392.103007 220.940482 
L 400.39393 221.557323 
L 330.14447 216.330799 
L 287.987085 213.194311 
L 414.596633 222.613996 
L 318.915943 215.495402 
L 430.130746 223.769726 
L 271.504082 211.967984 
L 300.164501 214.100305 
L 297.700353 213.916973 
L 395.240273 221.173893 
L 404.830977 221.887437 
L 259.931582 211.106996 
L 208.63125 207.290278 
L 271.803575 211.990267 
L 393.86043 221.071234 
L 309.922249 214.826276 
L 393.01236 221.008138 
" clip-path="url(#pd466cea02c)" style="fill: none; stroke: #1f77b4; stroke-width: 1.5; stroke-linecap: square"/>
   </g>
   <g id="line2d_16">
    <defs>
     <path id="mbcba2a2084" d="M 0 3 
C 0.795609 3 1.55874 2.683901 2.12132 2.12132 
C 2.683901 1.55874 3 0.795609 3 0 
C 3 -0.795609 2.683901 -1.55874 2.12132 -2.12132 
C 1.55874 -2.683901 0.795609 -3 0 -3 
C -0.795609 -3 -1.55874 -2.683901 -2.12132 -2.12132 
C -2.683901 -1.55874 -3 -0.795609 -3 0 
C -3 0.795609 -2.683901 1.55874 -2.12132 2.12132 
C -1.55874 2.683901 -0.795609 3 0 3 
z
" style="stroke: #000000"/>
    </defs>
    <g clip-path="url(#pd466cea02c)">
     <use xlink:href="#mbcba2a2084" x="394.911127" y="199.861846" style="stroke: #000000"/>
     <use xlink:href="#mbcba2a2084" x="241.496437" y="226.902492" style="stroke: #000000"/>
     <use xlink:href="#mbcba2a2084" x="315.769781" y="209.104284" style="stroke: #000000"/>
     <use xlink:href="#mbcba2a2084" x="378.966817" y="211.910456" style="stroke: #000000"/>
     <use xlink:href="#mbcba2a2084" x="206.380603" y="197.572336" style="stroke: #000000"/>
     <use xlink:href="#mbcba2a2084" x="213.986546" y="218.630575" style="stroke: #000000"/>
     <use xlink:href="#mbcba2a2084" x="209.56136" y="181.871913" style="stroke: #000000"/>
     <use xlink:href="#mbcba2a2084" x="186.769229" y="228.932968" style="stroke: #000000"/>
     <use xlink:href="#mbcba2a2084" x="256.815073" y="165.240059" style="stroke: #000000"/>
     <use xlink:href="#mbcba2a2084" x="236.473252" y="229.75216" style="stroke: #000000"/>
     <use xlink:href="#mbcba2a2084" x="313.548787" y="196.099221" style="stroke: #000000"/>
     <use xlink:href="#mbcba2a2084" x="235.586634" y="166.845979" style="stroke: #000000"/>
     <use xlink:href="#mbcba2a2084" x="205.602711" y="205.733495" style="stroke: #000000"/>
     <use xlink:href="#mbcba2a2084" x="330.783982" y="204.467128" style="stroke: #000000"/>
     <use xlink:href="#mbcba2a2084" x="319.242124" y="209.929962" style="stroke: #000000"/>
     <use xlink:href="#mbcba2a2084" x="393.837696" y="203.826461" style="stroke: #000000"/>
     <use xlink:href="#mbcba2a2084" x="325.177626" y="190.60891" style="stroke: #000000"/>
     <use xlink:href="#mbcba2a2084" x="132.795203" y="195.302492" style="stroke: #000000"/>
     <use xlink:href="#mbcba2a2084" x="391.934975" y="235.775152" style="stroke: #000000"/>
     <use xlink:href="#mbcba2a2084" x="393.779379" y="238.660227" style="stroke: #000000"/>
     <use xlink:href="#mbcba2a2084" x="427.037959" y="180.038461" style="stroke: #000000"/>
     <use xlink:href="#mbcba2a2084" x="335.441449" y="207.257642" style="stroke: #000000"/>
     <use xlink:href="#mbcba2a2084" x="331.981955" y="209.436133" style="stroke: #000000"/>
     <use xlink:href="#mbcba2a2084" x="314.973109" y="232.50945" style="stroke: #000000"/>
     <use xlink:href="#mbcba2a2084" x="392.818628" y="140.499864" style="stroke: #000000"/>
     <use xlink:href="#mbcba2a2084" x="331.726941" y="204.414326" style="stroke: #000000"/>
     <use xlink:href="#mbcba2a2084" x="377.951703" y="226.709385" style="stroke: #000000"/>
     <use xlink:href="#mbcba2a2084" x="391.064171" y="237.875909" style="stroke: #000000"/>
     <use xlink:href="#mbcba2a2084" x="285.705796" y="245.103768" style="stroke: #000000"/>
     <use xlink:href="#mbcba2a2084" x="319.833203" y="185.675332" style="stroke: #000000"/>
     <use xlink:href="#mbcba2a2084" x="394.540467" y="239.020198" style="stroke: #000000"/>
     <use xlink:href="#mbcba2a2084" x="372.233654" y="239.989089" style="stroke: #000000"/>
     <use xlink:href="#mbcba2a2084" x="417.568832" y="216.374944" style="stroke: #000000"/>
     <use xlink:href="#mbcba2a2084" x="393.764552" y="238.293451" style="stroke: #000000"/>
     <use xlink:href="#mbcba2a2084" x="357.954843" y="181.034565" style="stroke: #000000"/>
     <use xlink:href="#mbcba2a2084" x="219.566214" y="227.053355" style="stroke: #000000"/>
     <use xlink:href="#mbcba2a2084" x="383.182456" y="251.403619" style="stroke: #000000"/>
     <use xlink:href="#mbcba2a2084" x="393.004452" y="223.910019" style="stroke: #000000"/>
     <use xlink:href="#mbcba2a2084" x="254.587159" y="208.330747" style="stroke: #000000"/>
     <use xlink:href="#mbcba2a2084" x="387.116395" y="251.678294" style="stroke: #000000"/>
     <use xlink:href="#mbcba2a2084" x="329.31518" y="130.401612" style="stroke: #000000"/>
     <use xlink:href="#mbcba2a2084" x="152.017136" y="184.932683" style="stroke: #000000"/>
     <use xlink:href="#mbcba2a2084" x="296.260216" y="241.850952" style="stroke: #000000"/>
     <use xlink:href="#mbcba2a2084" x="395.00997" y="223.681182" style="stroke: #000000"/>
     <use xlink:href="#mbcba2a2084" x="312.187723" y="227.379467" style="stroke: #000000"/>
     <use xlink:href="#mbcba2a2084" x="431.719148" y="233.330148" style="stroke: #000000"/>
     <use xlink:href="#mbcba2a2084" x="192.633565" y="250.522967" style="stroke: #000000"/>
     <use xlink:href="#mbcba2a2084" x="395.571396" y="223.818774" style="stroke: #000000"/>
     <use xlink:href="#mbcba2a2084" x="288.504032" y="233.046415" style="stroke: #000000"/>
     <use xlink:href="#mbcba2a2084" x="395.634656" y="221.699772" style="stroke: #000000"/>
     <use xlink:href="#mbcba2a2084" x="286.349262" y="181.958005" style="stroke: #000000"/>
     <use xlink:href="#mbcba2a2084" x="132.744793" y="193.474555" style="stroke: #000000"/>
     <use xlink:href="#mbcba2a2084" x="394.183645" y="191.525486" style="stroke: #000000"/>
     <use xlink:href="#mbcba2a2084" x="393.002475" y="192.020299" style="stroke: #000000"/>
     <use xlink:href="#mbcba2a2084" x="225.937613" y="182.286537" style="stroke: #000000"/>
     <use xlink:href="#mbcba2a2084" x="393.397846" y="217.197696" style="stroke: #000000"/>
     <use xlink:href="#mbcba2a2084" x="273.143881" y="113.529282" style="stroke: #000000"/>
     <use xlink:href="#mbcba2a2084" x="393.493723" y="268.459783" style="stroke: #000000"/>
     <use xlink:href="#mbcba2a2084" x="377.891409" y="231.677423" style="stroke: #000000"/>
     <use xlink:href="#mbcba2a2084" x="322.22915" y="225.444959" style="stroke: #000000"/>
     <use xlink:href="#mbcba2a2084" x="372.122951" y="193.479218" style="stroke: #000000"/>
     <use xlink:href="#mbcba2a2084" x="396.986823" y="220.73215" style="stroke: #000000"/>
     <use xlink:href="#mbcba2a2084" x="232.65496" y="226.378359" style="stroke: #000000"/>
     <use xlink:href="#mbcba2a2084" x="393.760599" y="217.186348" style="stroke: #000000"/>
     <use xlink:href="#mbcba2a2084" x="364.566429" y="226.491114" style="stroke: #000000"/>
     <use xlink:href="#mbcba2a2084" x="264.263856" y="245.853505" style="stroke: #000000"/>
     <use xlink:href="#mbcba2a2084" x="394.379354" y="221.597316" style="stroke: #000000"/>
     <use xlink:href="#mbcba2a2084" x="355.477846" y="219.891547" style="stroke: #000000"/>
     <use xlink:href="#mbcba2a2084" x="66.102102" y="188.954144" style="stroke: #000000"/>
     <use xlink:href="#mbcba2a2084" x="141.356955" y="176.638148" style="stroke: #000000"/>
     <use xlink:href="#mbcba2a2084" x="393.871302" y="250.405884" style="stroke: #000000"/>
     <use xlink:href="#mbcba2a2084" x="323.254148" y="238.017459" style="stroke: #000000"/>
     <use xlink:href="#mbcba2a2084" x="356.631339" y="219.657598" style="stroke: #000000"/>
     <use xlink:href="#mbcba2a2084" x="393.774437" y="216.409176" style="stroke: #000000"/>
     <use xlink:href="#mbcba2a2084" x="289.901667" y="177.362582" style="stroke: #000000"/>
     <use xlink:href="#mbcba2a2084" x="394.451509" y="210.562372" style="stroke: #000000"/>
     <use xlink:href="#mbcba2a2084" x="392.688156" y="248.203009" style="stroke: #000000"/>
     <use xlink:href="#mbcba2a2084" x="286.066572" y="224.12934" style="stroke: #000000"/>
     <use xlink:href="#mbcba2a2084" x="301.279446" y="195.06103" style="stroke: #000000"/>
     <use xlink:href="#mbcba2a2084" x="293.066609" y="243.256899" style="stroke: #000000"/>
     <use xlink:href="#mbcba2a2084" x="393.805078" y="250.394857" style="stroke: #000000"/>
     <use xlink:href="#mbcba2a2084" x="394.447555" y="202.93842" style="stroke: #000000"/>
     <use xlink:href="#mbcba2a2084" x="429.693861" y="242.847555" style="stroke: #000000"/>
     <use xlink:href="#mbcba2a2084" x="394.331909" y="248.725277" style="stroke: #000000"/>
     <use xlink:href="#mbcba2a2084" x="318.689594" y="211.085581" style="stroke: #000000"/>
     <use xlink:href="#mbcba2a2084" x="255.151551" y="240.944272" style="stroke: #000000"/>
     <use xlink:href="#mbcba2a2084" x="366.495838" y="250.823303" style="stroke: #000000"/>
     <use xlink:href="#mbcba2a2084" x="199.4715" y="250.513098" style="stroke: #000000"/>
     <use xlink:href="#mbcba2a2084" x="393.060793" y="235.209875" style="stroke: #000000"/>
     <use xlink:href="#mbcba2a2084" x="325.630326" y="235.191416" style="stroke: #000000"/>
     <use xlink:href="#mbcba2a2084" x="319.548536" y="199.290661" style="stroke: #000000"/>
     <use xlink:href="#mbcba2a2084" x="392.582394" y="182.160197" style="stroke: #000000"/>
     <use xlink:href="#mbcba2a2084" x="226.279608" y="197.224742" style="stroke: #000000"/>
     <use xlink:href="#mbcba2a2084" x="316.082124" y="224.962928" style="stroke: #000000"/>
     <use xlink:href="#mbcba2a2084" x="345.136926" y="205.607363" style="stroke: #000000"/>
     <use xlink:href="#mbcba2a2084" x="392.103007" y="197.908928" style="stroke: #000000"/>
     <use xlink:href="#mbcba2a2084" x="400.39393" y="243.590029" style="stroke: #000000"/>
     <use xlink:href="#mbcba2a2084" x="330.14447" y="225.506687" style="stroke: #000000"/>
     <use xlink:href="#mbcba2a2084" x="287.987085" y="236.558323" style="stroke: #000000"/>
     <use xlink:href="#mbcba2a2084" x="414.596633" y="217.245256" style="stroke: #000000"/>
     <use xlink:href="#mbcba2a2084" x="318.915943" y="228.516103" style="stroke: #000000"/>
     <use xlink:href="#mbcba2a2084" x="430.130746" y="247.745192" style="stroke: #000000"/>
     <use xlink:href="#mbcba2a2084" x="271.504082" y="209.49106" style="stroke: #000000"/>
     <use xlink:href="#mbcba2a2084" x="300.164501" y="204.739687" style="stroke: #000000"/>
     <use xlink:href="#mbcba2a2084" x="297.700353" y="240.927613" style="stroke: #000000"/>
     <use xlink:href="#mbcba2a2084" x="395.240273" y="202.386389" style="stroke: #000000"/>
     <use xlink:href="#mbcba2a2084" x="404.830977" y="218.084704" style="stroke: #000000"/>
     <use xlink:href="#mbcba2a2084" x="259.931582" y="231.314058" style="stroke: #000000"/>
     <use xlink:href="#mbcba2a2084" x="208.63125" y="221.43695" style="stroke: #000000"/>
     <use xlink:href="#mbcba2a2084" x="271.803575" y="250.335062" style="stroke: #000000"/>
     <use xlink:href="#mbcba2a2084" x="393.86043" y="197.461422" style="stroke: #000000"/>
     <use xlink:href="#mbcba2a2084" x="309.922249" y="229.273781" style="stroke: #000000"/>
     <use xlink:href="#mbcba2a2084" x="393.01236" y="228.032443" style="stroke: #000000"/>
    </g>
   </g>
   <g id="patch_3">
    <path d="M 47.82125 303.64 
L 47.82125 46.675714 
" style="fill: none; stroke: #000000; stroke-width: 0.8; stroke-linejoin: miter; stroke-linecap: square"/>
   </g>
   <g id="patch_4">
    <path d="M 450 303.64 
L 450 46.675714 
" style="fill: none; stroke: #000000; stroke-width: 0.8; stroke-linejoin: miter; stroke-linecap: square"/>
   </g>
   <g id="patch_5">
    <path d="M 47.82125 303.64 
L 450 303.64 
" style="fill: none; stroke: #000000; stroke-width: 0.8; stroke-linejoin: miter; stroke-linecap: square"/>
   </g>
   <g id="patch_6">
    <path d="M 47.82125 46.675714 
L 450 46.675714 
" style="fill: none; stroke: #000000; stroke-width: 0.8; stroke-linejoin: miter; stroke-linecap: square"/>
   </g>
   <g id="text_17">
    <!-- y = -0.00x + 0.38 -->
    <g transform="translate(43.314906 18.599375)scale(0.1 -0.1)">
     <defs>
      <path id="DejaVuSans-79" d="M 2059 -325 
Q 1816 -950 1584 -1140 
Q 1353 -1331 966 -1331 
L 506 -1331 
L 506 -850 
L 844 -850 
Q 1081 -850 1212 -737 
Q 1344 -625 1503 -206 
L 1606 56 
L 191 3500 
L 800 3500 
L 1894 763 
L 2988 3500 
L 3597 3500 
L 2059 -325 
z
" transform="scale(0.015625)"/>
      <path id="DejaVuSans-20" transform="scale(0.015625)"/>
      <path id="DejaVuSans-3d" d="M 678 2906 
L 4684 2906 
L 4684 2381 
L 678 2381 
L 678 2906 
z
M 678 1631 
L 4684 1631 
L 4684 1100 
L 678 1100 
L 678 1631 
z
" transform="scale(0.015625)"/>
      <path id="DejaVuSans-2d" d="M 313 2009 
L 1997 2009 
L 1997 1497 
L 313 1497 
L 313 2009 
z
" transform="scale(0.015625)"/>
      <path id="DejaVuSans-78" d="M 3513 3500 
L 2247 1797 
L 3578 0 
L 2900 0 
L 1881 1375 
L 863 0 
L 184 0 
L 1544 1831 
L 300 3500 
L 978 3500 
L 1906 2253 
L 2834 3500 
L 3513 3500 
z
" transform="scale(0.015625)"/>
      <path id="DejaVuSans-2b" d="M 2944 4013 
L 2944 2272 
L 4684 2272 
L 4684 1741 
L 2944 1741 
L 2944 0 
L 2419 0 
L 2419 1741 
L 678 1741 
L 678 2272 
L 2419 2272 
L 2419 4013 
L 2944 4013 
z
" transform="scale(0.015625)"/>
     </defs>
     <use xlink:href="#DejaVuSans-79"/>
     <use xlink:href="#DejaVuSans-20" x="59.179688"/>
     <use xlink:href="#DejaVuSans-3d" x="90.966797"/>
     <use xlink:href="#DejaVuSans-20" x="174.755859"/>
     <use xlink:href="#DejaVuSans-2d" x="206.542969"/>
     <use xlink:href="#DejaVuSans-30" x="242.626953"/>
     <use xlink:href="#DejaVuSans-2e" x="306.25"/>
     <use xlink:href="#DejaVuSans-30" x="338.037109"/>
     <use xlink:href="#DejaVuSans-30" x="401.660156"/>
     <use xlink:href="#DejaVuSans-78" x="465.283203"/>
     <use xlink:href="#DejaVuSans-20" x="524.462891"/>
     <use xlink:href="#DejaVuSans-2b" x="556.25"/>
     <use xlink:href="#DejaVuSans-20" x="640.039062"/>
     <use xlink:href="#DejaVuSans-30" x="671.826172"/>
     <use xlink:href="#DejaVuSans-2e" x="735.449219"/>
     <use xlink:href="#DejaVuSans-33" x="767.236328"/>
     <use xlink:href="#DejaVuSans-38" x="830.859375"/>
    </g>
   </g>
   <g id="text_18">
    <!-- r^2 = 0.05 -->
    <g transform="translate(60.111781 26.308304)scale(0.1 -0.1)">
     <defs>
      <path id="DejaVuSans-5e" d="M 2988 4666 
L 4684 2925 
L 4056 2925 
L 2681 4159 
L 1306 2925 
L 678 2925 
L 2375 4666 
L 2988 4666 
z
" transform="scale(0.015625)"/>
     </defs>
     <use xlink:href="#DejaVuSans-72"/>
     <use xlink:href="#DejaVuSans-5e" x="41.113281"/>
     <use xlink:href="#DejaVuSans-32" x="124.902344"/>
     <use xlink:href="#DejaVuSans-20" x="188.525391"/>
     <use xlink:href="#DejaVuSans-3d" x="220.3125"/>
     <use xlink:href="#DejaVuSans-20" x="304.101562"/>
     <use xlink:href="#DejaVuSans-30" x="335.888672"/>
     <use xlink:href="#DejaVuSans-2e" x="399.511719"/>
     <use xlink:href="#DejaVuSans-30" x="431.298828"/>
     <use xlink:href="#DejaVuSans-35" x="494.921875"/>
    </g>
   </g>
   <g id="text_19">
    <!-- n = 113 -->
    <g transform="translate(67.958656 34.017232)scale(0.1 -0.1)">
     <use xlink:href="#DejaVuSans-6e"/>
     <use xlink:href="#DejaVuSans-20" x="63.378906"/>
     <use xlink:href="#DejaVuSans-3d" x="95.166016"/>
     <use xlink:href="#DejaVuSans-20" x="178.955078"/>
     <use xlink:href="#DejaVuSans-31" x="210.742188"/>
     <use xlink:href="#DejaVuSans-31" x="274.365234"/>
     <use xlink:href="#DejaVuSans-33" x="337.988281"/>
    </g>
   </g>
   <g id="text_20">
    <!-- HBONDDiff vs PercentGpA_transformed -->
    <g transform="translate(130.507187 40.675714)scale(0.12 -0.12)">
     <defs>
      <path id="DejaVuSans-76" d="M 191 3500 
L 800 3500 
L 1894 563 
L 2988 3500 
L 3597 3500 
L 2284 0 
L 1503 0 
L 191 3500 
z
" transform="scale(0.015625)"/>
     </defs>
     <use xlink:href="#DejaVuSans-48"/>
     <use xlink:href="#DejaVuSans-42" x="75.195312"/>
     <use xlink:href="#DejaVuSans-4f" x="142.048828"/>
     <use xlink:href="#DejaVuSans-4e" x="220.759766"/>
     <use xlink:href="#DejaVuSans-44" x="295.564453"/>
     <use xlink:href="#DejaVuSans-44" x="372.566406"/>
     <use xlink:href="#DejaVuSans-69" x="449.568359"/>
     <use xlink:href="#DejaVuSans-66" x="477.351562"/>
     <use xlink:href="#DejaVuSans-66" x="512.556641"/>
     <use xlink:href="#DejaVuSans-20" x="547.761719"/>
     <use xlink:href="#DejaVuSans-76" x="579.548828"/>
     <use xlink:href="#DejaVuSans-73" x="638.728516"/>
     <use xlink:href="#DejaVuSans-20" x="690.828125"/>
     <use xlink:href="#DejaVuSans-50" x="722.615234"/>
     <use xlink:href="#DejaVuSans-65" x="779.292969"/>
     <use xlink:href="#DejaVuSans-72" x="840.816406"/>
     <use xlink:href="#DejaVuSans-63" x="879.679688"/>
     <use xlink:href="#DejaVuSans-65" x="934.660156"/>
     <use xlink:href="#DejaVuSans-6e" x="996.183594"/>
     <use xlink:href="#DejaVuSans-74" x="1059.5625"/>
     <use xlink:href="#DejaVuSans-47" x="1098.771484"/>
     <use xlink:href="#DejaVuSans-70" x="1176.261719"/>
     <use xlink:href="#DejaVuSans-41" x="1239.738281"/>
     <use xlink:href="#DejaVuSans-5f" x="1308.146484"/>
     <use xlink:href="#DejaVuSans-74" x="1358.146484"/>
     <use xlink:href="#DejaVuSans-72" x="1397.355469"/>
     <use xlink:href="#DejaVuSans-61" x="1438.46875"/>
     <use xlink:href="#DejaVuSans-6e" x="1499.748047"/>
     <use xlink:href="#DejaVuSans-73" x="1563.126953"/>
     <use xlink:href="#DejaVuSans-66" x="1615.226562"/>
     <use xlink:href="#DejaVuSans-6f" x="1650.431641"/>
     <use xlink:href="#DejaVuSans-72" x="1711.613281"/>
     <use xlink:href="#DejaVuSans-6d" x="1750.976562"/>
     <use xlink:href="#DejaVuSans-65" x="1848.388672"/>
     <use xlink:href="#DejaVuSans-64" x="1909.912109"/>
    </g>
   </g>
  </g>
 </g>
 <defs>
  <clipPath id="pd466cea02c">
   <rect x="47.82125" y="46.675714" width="402.17875" height="256.964286"/>
  </clipPath>
 </defs>
</svg>
