<?xml version="1.0" encoding="utf-8" standalone="no"?>
<!DOCTYPE svg PUBLIC "-//W3C//DTD SVG 1.1//EN"
  "http://www.w3.org/Graphics/SVG/1.1/DTD/svg11.dtd">
<svg xmlns:xlink="http://www.w3.org/1999/xlink" width="460.8pt" height="345.6pt" viewBox="0 0 460.8 345.6" xmlns="http://www.w3.org/2000/svg" version="1.1">
 <metadata>
  <rdf:RDF xmlns:dc="http://purl.org/dc/elements/1.1/" xmlns:cc="http://creativecommons.org/ns#" xmlns:rdf="http://www.w3.org/1999/02/22-rdf-syntax-ns#">
   <cc:Work>
    <dc:type rdf:resource="http://purl.org/dc/dcmitype/StillImage"/>
    <dc:date>2024-04-28T21:04:49.374610</dc:date>
    <dc:format>image/svg+xml</dc:format>
    <dc:creator>
     <cc:Agent>
      <dc:title>Matplotlib v3.5.3, https://matplotlib.org/</dc:title>
     </cc:Agent>
    </dc:creator>
   </cc:Work>
  </rdf:RDF>
 </metadata>
 <defs>
  <style type="text/css">*{stroke-linejoin: round; stroke-linecap: butt}</style>
 </defs>
 <g id="figure_1">
  <g id="patch_1">
   <path d="M 0 345.6 
L 460.8 345.6 
L 460.8 0 
L 0 0 
z
" style="fill: #ffffff"/>
  </g>
  <g id="axes_1">
   <g id="patch_2">
    <path d="M 57.6 307.584 
L 414.72 307.584 
L 414.72 41.472 
L 57.6 41.472 
z
" style="fill: #ffffff"/>
   </g>
   <g id="patch_3">
    <path d="M 73.832727 307.584 
L 82.548286 307.584 
L 82.548286 261.31993 
L 73.832727 261.31993 
z
" clip-path="url(#p209866ac82)" style="fill: #1f77b4"/>
   </g>
   <g id="patch_4">
    <path d="M 84.727175 307.584 
L 93.442733 307.584 
L 93.442733 236.103955 
L 84.727175 236.103955 
z
" clip-path="url(#p209866ac82)" style="fill: #1f77b4"/>
   </g>
   <g id="patch_5">
    <path d="M 95.621623 307.584 
L 104.337181 307.584 
L 104.337181 66.011486 
L 95.621623 66.011486 
z
" clip-path="url(#p209866ac82)" style="fill: #1f77b4"/>
   </g>
   <g id="patch_6">
    <path d="M 106.516071 307.584 
L 115.231629 307.584 
L 115.231629 275.207969 
L 106.516071 275.207969 
z
" clip-path="url(#p209866ac82)" style="fill: #1f77b4"/>
   </g>
   <g id="patch_7">
    <path d="M 117.410519 307.584 
L 126.126077 307.584 
L 126.126077 106.485199 
L 117.410519 106.485199 
z
" clip-path="url(#p209866ac82)" style="fill: #1f77b4"/>
   </g>
   <g id="patch_8">
    <path d="M 128.304966 307.584 
L 137.020525 307.584 
L 137.020525 194.081248 
L 128.304966 194.081248 
z
" clip-path="url(#p209866ac82)" style="fill: #1f77b4"/>
   </g>
   <g id="patch_9">
    <path d="M 139.199414 307.584 
L 147.914973 307.584 
L 147.914973 203.86313 
L 139.199414 203.86313 
z
" clip-path="url(#p209866ac82)" style="fill: #1f77b4"/>
   </g>
   <g id="patch_10">
    <path d="M 150.093862 307.584 
L 158.80942 307.584 
L 158.80942 221.539884 
L 150.093862 221.539884 
z
" clip-path="url(#p209866ac82)" style="fill: #1f77b4"/>
   </g>
   <g id="patch_11">
    <path d="M 160.98831 307.584 
L 169.703868 307.584 
L 169.703868 203.33994 
L 160.98831 203.33994 
z
" clip-path="url(#p209866ac82)" style="fill: #1f77b4"/>
   </g>
   <g id="patch_12">
    <path d="M 171.882758 307.584 
L 180.598316 307.584 
L 180.598316 209.685819 
L 171.882758 209.685819 
z
" clip-path="url(#p209866ac82)" style="fill: #1f77b4"/>
   </g>
   <g id="patch_13">
    <path d="M 182.777206 307.584 
L 191.492764 307.584 
L 191.492764 241.003714 
L 182.777206 241.003714 
z
" clip-path="url(#p209866ac82)" style="fill: #1f77b4"/>
   </g>
   <g id="patch_14">
    <path d="M 193.671653 307.584 
L 202.387212 307.584 
L 202.387212 222.348183 
L 193.671653 222.348183 
z
" clip-path="url(#p209866ac82)" style="fill: #1f77b4"/>
   </g>
   <g id="patch_15">
    <path d="M 204.566101 307.584 
L 213.28166 307.584 
L 213.28166 163.903789 
L 204.566101 163.903789 
z
" clip-path="url(#p209866ac82)" style="fill: #1f77b4"/>
   </g>
   <g id="patch_16">
    <path d="M 215.460549 307.584 
L 224.176107 307.584 
L 224.176107 208.521869 
L 215.460549 208.521869 
z
" clip-path="url(#p209866ac82)" style="fill: #1f77b4"/>
   </g>
   <g id="patch_17">
    <path d="M 226.354997 307.584 
L 235.070555 307.584 
L 235.070555 185.930659 
L 226.354997 185.930659 
z
" clip-path="url(#p209866ac82)" style="fill: #1f77b4"/>
   </g>
   <g id="patch_18">
    <path d="M 237.249445 307.584 
L 245.965003 307.584 
L 245.965003 260.993672 
L 237.249445 260.993672 
z
" clip-path="url(#p209866ac82)" style="fill: #1f77b4"/>
   </g>
   <g id="patch_19">
    <path d="M 248.143893 307.584 
L 256.859451 307.584 
L 256.859451 231.712689 
L 248.143893 231.712689 
z
" clip-path="url(#p209866ac82)" style="fill: #1f77b4"/>
   </g>
   <g id="patch_20">
    <path d="M 259.03834 307.584 
L 267.753899 307.584 
L 267.753899 265.499569 
L 259.03834 265.499569 
z
" clip-path="url(#p209866ac82)" style="fill: #1f77b4"/>
   </g>
   <g id="patch_21">
    <path d="M 269.932788 307.584 
L 278.648347 307.584 
L 278.648347 222.007228 
L 269.932788 222.007228 
z
" clip-path="url(#p209866ac82)" style="fill: #1f77b4"/>
   </g>
   <g id="patch_22">
    <path d="M 280.827236 307.584 
L 289.542794 307.584 
L 289.542794 258.533505 
L 280.827236 258.533505 
z
" clip-path="url(#p209866ac82)" style="fill: #1f77b4"/>
   </g>
   <g id="patch_23">
    <path d="M 291.721684 307.584 
L 300.437242 307.584 
L 300.437242 178.338531 
L 291.721684 178.338531 
z
" clip-path="url(#p209866ac82)" style="fill: #1f77b4"/>
   </g>
   <g id="patch_24">
    <path d="M 302.616132 307.584 
L 311.33169 307.584 
L 311.33169 186.806561 
L 302.616132 186.806561 
z
" clip-path="url(#p209866ac82)" style="fill: #1f77b4"/>
   </g>
   <g id="patch_25">
    <path d="M 313.51058 307.584 
L 322.226138 307.584 
L 322.226138 216.237446 
L 313.51058 216.237446 
z
" clip-path="url(#p209866ac82)" style="fill: #1f77b4"/>
   </g>
   <g id="patch_26">
    <path d="M 324.405027 307.584 
L 333.120586 307.584 
L 333.120586 211.073153 
L 324.405027 211.073153 
z
" clip-path="url(#p209866ac82)" style="fill: #1f77b4"/>
   </g>
   <g id="patch_27">
    <path d="M 335.299475 307.584 
L 344.015034 307.584 
L 344.015034 177.574322 
L 335.299475 177.574322 
z
" clip-path="url(#p209866ac82)" style="fill: #1f77b4"/>
   </g>
   <g id="patch_28">
    <path d="M 346.193923 307.584 
L 354.909481 307.584 
L 354.909481 256.699402 
L 346.193923 256.699402 
z
" clip-path="url(#p209866ac82)" style="fill: #1f77b4"/>
   </g>
   <g id="patch_29">
    <path d="M 357.088371 307.584 
L 365.803929 307.584 
L 365.803929 196.294516 
L 357.088371 196.294516 
z
" clip-path="url(#p209866ac82)" style="fill: #1f77b4"/>
   </g>
   <g id="patch_30">
    <path d="M 367.982819 307.584 
L 376.698377 307.584 
L 376.698377 227.37433 
L 367.982819 227.37433 
z
" clip-path="url(#p209866ac82)" style="fill: #1f77b4"/>
   </g>
   <g id="patch_31">
    <path d="M 378.877267 307.584 
L 387.592825 307.584 
L 387.592825 211.616917 
L 378.877267 211.616917 
z
" clip-path="url(#p209866ac82)" style="fill: #1f77b4"/>
   </g>
   <g id="patch_32">
    <path d="M 389.771714 307.584 
L 398.487273 307.584 
L 398.487273 286.732837 
L 389.771714 286.732837 
z
" clip-path="url(#p209866ac82)" style="fill: #1f77b4"/>
   </g>
   <g id="matplotlib.axis_1">
    <g id="xtick_1">
     <g id="line2d_1">
      <defs>
       <path id="mc0497adc4b" d="M 0 0 
L 0 3.5 
" style="stroke: #000000; stroke-width: 0.8"/>
      </defs>
      <g>
       <use xlink:href="#mc0497adc4b" x="78.190506" y="307.584" style="stroke: #000000; stroke-width: 0.8"/>
      </g>
     </g>
     <g id="text_1">
      <!-- 1G2 -->
      <g transform="translate(72.903226 334.433813)rotate(-45)scale(0.1 -0.1)">
       <defs>
        <path id="DejaVuSans-31" d="M 794 531 
L 1825 531 
L 1825 4091 
L 703 3866 
L 703 4441 
L 1819 4666 
L 2450 4666 
L 2450 531 
L 3481 531 
L 3481 0 
L 794 0 
L 794 531 
z
" transform="scale(0.015625)"/>
        <path id="DejaVuSans-47" d="M 3809 666 
L 3809 1919 
L 2778 1919 
L 2778 2438 
L 4434 2438 
L 4434 434 
Q 4069 175 3628 42 
Q 3188 -91 2688 -91 
Q 1594 -91 976 548 
Q 359 1188 359 2328 
Q 359 3472 976 4111 
Q 1594 4750 2688 4750 
Q 3144 4750 3555 4637 
Q 3966 4525 4313 4306 
L 4313 3634 
Q 3963 3931 3569 4081 
Q 3175 4231 2741 4231 
Q 1884 4231 1454 3753 
Q 1025 3275 1025 2328 
Q 1025 1384 1454 906 
Q 1884 428 2741 428 
Q 3075 428 3337 486 
Q 3600 544 3809 666 
z
" transform="scale(0.015625)"/>
        <path id="DejaVuSans-32" d="M 1228 531 
L 3431 531 
L 3431 0 
L 469 0 
L 469 531 
Q 828 903 1448 1529 
Q 2069 2156 2228 2338 
Q 2531 2678 2651 2914 
Q 2772 3150 2772 3378 
Q 2772 3750 2511 3984 
Q 2250 4219 1831 4219 
Q 1534 4219 1204 4116 
Q 875 4013 500 3803 
L 500 4441 
Q 881 4594 1212 4672 
Q 1544 4750 1819 4750 
Q 2544 4750 2975 4387 
Q 3406 4025 3406 3419 
Q 3406 3131 3298 2873 
Q 3191 2616 2906 2266 
Q 2828 2175 2409 1742 
Q 1991 1309 1228 531 
z
" transform="scale(0.015625)"/>
       </defs>
       <use xlink:href="#DejaVuSans-31"/>
       <use xlink:href="#DejaVuSans-47" x="63.623047"/>
       <use xlink:href="#DejaVuSans-32" x="141.113281"/>
      </g>
     </g>
    </g>
    <g id="xtick_2">
     <g id="line2d_2">
      <g>
       <use xlink:href="#mc0497adc4b" x="89.084954" y="307.584" style="stroke: #000000; stroke-width: 0.8"/>
      </g>
     </g>
     <g id="text_2">
      <!-- 2F12 -->
      <g transform="translate(82.254192 337.520776)rotate(-45)scale(0.1 -0.1)">
       <defs>
        <path id="DejaVuSans-46" d="M 628 4666 
L 3309 4666 
L 3309 4134 
L 1259 4134 
L 1259 2759 
L 3109 2759 
L 3109 2228 
L 1259 2228 
L 1259 0 
L 628 0 
L 628 4666 
z
" transform="scale(0.015625)"/>
       </defs>
       <use xlink:href="#DejaVuSans-32"/>
       <use xlink:href="#DejaVuSans-46" x="63.623047"/>
       <use xlink:href="#DejaVuSans-31" x="121.142578"/>
       <use xlink:href="#DejaVuSans-32" x="184.765625"/>
      </g>
     </g>
    </g>
    <g id="xtick_3">
     <g id="line2d_3">
      <g>
       <use xlink:href="#mc0497adc4b" x="99.979402" y="307.584" style="stroke: #000000; stroke-width: 0.8"/>
      </g>
     </g>
     <g id="text_3">
      <!-- 2H11 -->
      <g transform="translate(92.523293 338.771471)rotate(-45)scale(0.1 -0.1)">
       <defs>
        <path id="DejaVuSans-48" d="M 628 4666 
L 1259 4666 
L 1259 2753 
L 3553 2753 
L 3553 4666 
L 4184 4666 
L 4184 0 
L 3553 0 
L 3553 2222 
L 1259 2222 
L 1259 0 
L 628 0 
L 628 4666 
z
" transform="scale(0.015625)"/>
       </defs>
       <use xlink:href="#DejaVuSans-32"/>
       <use xlink:href="#DejaVuSans-48" x="63.623047"/>
       <use xlink:href="#DejaVuSans-31" x="138.818359"/>
       <use xlink:href="#DejaVuSans-31" x="202.441406"/>
      </g>
     </g>
    </g>
    <g id="xtick_4">
     <g id="line2d_4">
      <g>
       <use xlink:href="#mc0497adc4b" x="110.87385" y="307.584" style="stroke: #000000; stroke-width: 0.8"/>
      </g>
     </g>
     <g id="text_4">
      <!-- G83I -->
      <g transform="translate(104.543587 336.519778)rotate(-45)scale(0.1 -0.1)">
       <defs>
        <path id="DejaVuSans-38" d="M 2034 2216 
Q 1584 2216 1326 1975 
Q 1069 1734 1069 1313 
Q 1069 891 1326 650 
Q 1584 409 2034 409 
Q 2484 409 2743 651 
Q 3003 894 3003 1313 
Q 3003 1734 2745 1975 
Q 2488 2216 2034 2216 
z
M 1403 2484 
Q 997 2584 770 2862 
Q 544 3141 544 3541 
Q 544 4100 942 4425 
Q 1341 4750 2034 4750 
Q 2731 4750 3128 4425 
Q 3525 4100 3525 3541 
Q 3525 3141 3298 2862 
Q 3072 2584 2669 2484 
Q 3125 2378 3379 2068 
Q 3634 1759 3634 1313 
Q 3634 634 3220 271 
Q 2806 -91 2034 -91 
Q 1263 -91 848 271 
Q 434 634 434 1313 
Q 434 1759 690 2068 
Q 947 2378 1403 2484 
z
M 1172 3481 
Q 1172 3119 1398 2916 
Q 1625 2713 2034 2713 
Q 2441 2713 2670 2916 
Q 2900 3119 2900 3481 
Q 2900 3844 2670 4047 
Q 2441 4250 2034 4250 
Q 1625 4250 1398 4047 
Q 1172 3844 1172 3481 
z
" transform="scale(0.015625)"/>
        <path id="DejaVuSans-33" d="M 2597 2516 
Q 3050 2419 3304 2112 
Q 3559 1806 3559 1356 
Q 3559 666 3084 287 
Q 2609 -91 1734 -91 
Q 1441 -91 1130 -33 
Q 819 25 488 141 
L 488 750 
Q 750 597 1062 519 
Q 1375 441 1716 441 
Q 2309 441 2620 675 
Q 2931 909 2931 1356 
Q 2931 1769 2642 2001 
Q 2353 2234 1838 2234 
L 1294 2234 
L 1294 2753 
L 1863 2753 
Q 2328 2753 2575 2939 
Q 2822 3125 2822 3475 
Q 2822 3834 2567 4026 
Q 2313 4219 1838 4219 
Q 1578 4219 1281 4162 
Q 984 4106 628 3988 
L 628 4550 
Q 988 4650 1302 4700 
Q 1616 4750 1894 4750 
Q 2613 4750 3031 4423 
Q 3450 4097 3450 3541 
Q 3450 3153 3228 2886 
Q 3006 2619 2597 2516 
z
" transform="scale(0.015625)"/>
        <path id="DejaVuSans-49" d="M 628 4666 
L 1259 4666 
L 1259 0 
L 628 0 
L 628 4666 
z
" transform="scale(0.015625)"/>
       </defs>
       <use xlink:href="#DejaVuSans-47"/>
       <use xlink:href="#DejaVuSans-38" x="77.490234"/>
       <use xlink:href="#DejaVuSans-33" x="141.113281"/>
       <use xlink:href="#DejaVuSans-49" x="204.736328"/>
      </g>
     </g>
    </g>
    <g id="xtick_5">
     <g id="line2d_5">
      <g>
       <use xlink:href="#mc0497adc4b" x="121.768298" y="307.584" style="stroke: #000000; stroke-width: 0.8"/>
      </g>
     </g>
     <g id="text_5">
      <!-- Gpa -->
      <g transform="translate(116.568853 334.258141)rotate(-45)scale(0.1 -0.1)">
       <defs>
        <path id="DejaVuSans-70" d="M 1159 525 
L 1159 -1331 
L 581 -1331 
L 581 3500 
L 1159 3500 
L 1159 2969 
Q 1341 3281 1617 3432 
Q 1894 3584 2278 3584 
Q 2916 3584 3314 3078 
Q 3713 2572 3713 1747 
Q 3713 922 3314 415 
Q 2916 -91 2278 -91 
Q 1894 -91 1617 61 
Q 1341 213 1159 525 
z
M 3116 1747 
Q 3116 2381 2855 2742 
Q 2594 3103 2138 3103 
Q 1681 3103 1420 2742 
Q 1159 2381 1159 1747 
Q 1159 1113 1420 752 
Q 1681 391 2138 391 
Q 2594 391 2855 752 
Q 3116 1113 3116 1747 
z
" transform="scale(0.015625)"/>
        <path id="DejaVuSans-61" d="M 2194 1759 
Q 1497 1759 1228 1600 
Q 959 1441 959 1056 
Q 959 750 1161 570 
Q 1363 391 1709 391 
Q 2188 391 2477 730 
Q 2766 1069 2766 1631 
L 2766 1759 
L 2194 1759 
z
M 3341 1997 
L 3341 0 
L 2766 0 
L 2766 531 
Q 2569 213 2275 61 
Q 1981 -91 1556 -91 
Q 1019 -91 701 211 
Q 384 513 384 1019 
Q 384 1609 779 1909 
Q 1175 2209 1959 2209 
L 2766 2209 
L 2766 2266 
Q 2766 2663 2505 2880 
Q 2244 3097 1772 3097 
Q 1472 3097 1187 3025 
Q 903 2953 641 2809 
L 641 3341 
Q 956 3463 1253 3523 
Q 1550 3584 1831 3584 
Q 2591 3584 2966 3190 
Q 3341 2797 3341 1997 
z
" transform="scale(0.015625)"/>
       </defs>
       <use xlink:href="#DejaVuSans-47"/>
       <use xlink:href="#DejaVuSans-70" x="77.490234"/>
       <use xlink:href="#DejaVuSans-61" x="140.966797"/>
      </g>
     </g>
    </g>
    <g id="xtick_6">
     <g id="line2d_6">
      <g>
       <use xlink:href="#mc0497adc4b" x="132.662746" y="307.584" style="stroke: #000000; stroke-width: 0.8"/>
      </g>
     </g>
     <g id="text_6">
      <!-- LC3 -->
      <g transform="translate(127.925683 333.333378)rotate(-45)scale(0.1 -0.1)">
       <defs>
        <path id="DejaVuSans-4c" d="M 628 4666 
L 1259 4666 
L 1259 531 
L 3531 531 
L 3531 0 
L 628 0 
L 628 4666 
z
" transform="scale(0.015625)"/>
        <path id="DejaVuSans-43" d="M 4122 4306 
L 4122 3641 
Q 3803 3938 3442 4084 
Q 3081 4231 2675 4231 
Q 1875 4231 1450 3742 
Q 1025 3253 1025 2328 
Q 1025 1406 1450 917 
Q 1875 428 2675 428 
Q 3081 428 3442 575 
Q 3803 722 4122 1019 
L 4122 359 
Q 3791 134 3420 21 
Q 3050 -91 2638 -91 
Q 1578 -91 968 557 
Q 359 1206 359 2328 
Q 359 3453 968 4101 
Q 1578 4750 2638 4750 
Q 3056 4750 3426 4639 
Q 3797 4528 4122 4306 
z
" transform="scale(0.015625)"/>
       </defs>
       <use xlink:href="#DejaVuSans-4c"/>
       <use xlink:href="#DejaVuSans-43" x="55.712891"/>
       <use xlink:href="#DejaVuSans-33" x="125.537109"/>
      </g>
     </g>
    </g>
    <g id="xtick_7">
     <g id="line2d_7">
      <g>
       <use xlink:href="#mc0497adc4b" x="143.557193" y="307.584" style="stroke: #000000; stroke-width: 0.8"/>
      </g>
     </g>
     <g id="text_7">
      <!-- LD50 -->
      <g transform="translate(136.317083 338.339473)rotate(-45)scale(0.1 -0.1)">
       <defs>
        <path id="DejaVuSans-44" d="M 1259 4147 
L 1259 519 
L 2022 519 
Q 2988 519 3436 956 
Q 3884 1394 3884 2338 
Q 3884 3275 3436 3711 
Q 2988 4147 2022 4147 
L 1259 4147 
z
M 628 4666 
L 1925 4666 
Q 3281 4666 3915 4102 
Q 4550 3538 4550 2338 
Q 4550 1131 3912 565 
Q 3275 0 1925 0 
L 628 0 
L 628 4666 
z
" transform="scale(0.015625)"/>
        <path id="DejaVuSans-35" d="M 691 4666 
L 3169 4666 
L 3169 4134 
L 1269 4134 
L 1269 2991 
Q 1406 3038 1543 3061 
Q 1681 3084 1819 3084 
Q 2600 3084 3056 2656 
Q 3513 2228 3513 1497 
Q 3513 744 3044 326 
Q 2575 -91 1722 -91 
Q 1428 -91 1123 -41 
Q 819 9 494 109 
L 494 744 
Q 775 591 1075 516 
Q 1375 441 1709 441 
Q 2250 441 2565 725 
Q 2881 1009 2881 1497 
Q 2881 1984 2565 2268 
Q 2250 2553 1709 2553 
Q 1456 2553 1204 2497 
Q 953 2441 691 2322 
L 691 4666 
z
" transform="scale(0.015625)"/>
        <path id="DejaVuSans-30" d="M 2034 4250 
Q 1547 4250 1301 3770 
Q 1056 3291 1056 2328 
Q 1056 1369 1301 889 
Q 1547 409 2034 409 
Q 2525 409 2770 889 
Q 3016 1369 3016 2328 
Q 3016 3291 2770 3770 
Q 2525 4250 2034 4250 
z
M 2034 4750 
Q 2819 4750 3233 4129 
Q 3647 3509 3647 2328 
Q 3647 1150 3233 529 
Q 2819 -91 2034 -91 
Q 1250 -91 836 529 
Q 422 1150 422 2328 
Q 422 3509 836 4129 
Q 1250 4750 2034 4750 
z
" transform="scale(0.015625)"/>
       </defs>
       <use xlink:href="#DejaVuSans-4c"/>
       <use xlink:href="#DejaVuSans-44" x="55.712891"/>
       <use xlink:href="#DejaVuSans-35" x="132.714844"/>
       <use xlink:href="#DejaVuSans-30" x="196.337891"/>
      </g>
     </g>
    </g>
    <g id="xtick_8">
     <g id="line2d_8">
      <g>
       <use xlink:href="#mc0497adc4b" x="154.451641" y="307.584" style="stroke: #000000; stroke-width: 0.8"/>
      </g>
     </g>
     <g id="text_8">
      <!-- LD8 -->
      <g transform="translate(149.461014 333.840506)rotate(-45)scale(0.1 -0.1)">
       <use xlink:href="#DejaVuSans-4c"/>
       <use xlink:href="#DejaVuSans-44" x="55.712891"/>
       <use xlink:href="#DejaVuSans-38" x="132.714844"/>
      </g>
     </g>
    </g>
    <g id="xtick_9">
     <g id="line2d_9">
      <g>
       <use xlink:href="#mc0497adc4b" x="165.346089" y="307.584" style="stroke: #000000; stroke-width: 0.8"/>
      </g>
     </g>
     <g id="text_9">
      <!-- LWT11 -->
      <g transform="translate(155.49576 343.55991)rotate(-45)scale(0.1 -0.1)">
       <defs>
        <path id="DejaVuSans-57" d="M 213 4666 
L 850 4666 
L 1831 722 
L 2809 4666 
L 3519 4666 
L 4500 722 
L 5478 4666 
L 6119 4666 
L 4947 0 
L 4153 0 
L 3169 4050 
L 2175 0 
L 1381 0 
L 213 4666 
z
" transform="scale(0.015625)"/>
        <path id="DejaVuSans-54" d="M -19 4666 
L 3928 4666 
L 3928 4134 
L 2272 4134 
L 2272 0 
L 1638 0 
L 1638 4134 
L -19 4134 
L -19 4666 
z
" transform="scale(0.015625)"/>
       </defs>
       <use xlink:href="#DejaVuSans-4c"/>
       <use xlink:href="#DejaVuSans-57" x="46.587891"/>
       <use xlink:href="#DejaVuSans-54" x="145.464844"/>
       <use xlink:href="#DejaVuSans-31" x="206.548828"/>
       <use xlink:href="#DejaVuSans-31" x="270.171875"/>
      </g>
     </g>
    </g>
    <g id="xtick_10">
     <g id="line2d_10">
      <g>
       <use xlink:href="#mc0497adc4b" x="176.240537" y="307.584" style="stroke: #000000; stroke-width: 0.8"/>
      </g>
     </g>
     <g id="text_10">
      <!-- LWT12 -->
      <g transform="translate(166.390208 343.55991)rotate(-45)scale(0.1 -0.1)">
       <use xlink:href="#DejaVuSans-4c"/>
       <use xlink:href="#DejaVuSans-57" x="46.587891"/>
       <use xlink:href="#DejaVuSans-54" x="145.464844"/>
       <use xlink:href="#DejaVuSans-31" x="206.548828"/>
       <use xlink:href="#DejaVuSans-32" x="270.171875"/>
      </g>
     </g>
    </g>
    <g id="xtick_11">
     <g id="line2d_11">
      <g>
       <use xlink:href="#mc0497adc4b" x="187.134985" y="307.584" style="stroke: #000000; stroke-width: 0.8"/>
      </g>
     </g>
     <g id="text_11">
      <!-- M17 -->
      <g transform="translate(181.536688 335.055846)rotate(-45)scale(0.1 -0.1)">
       <defs>
        <path id="DejaVuSans-4d" d="M 628 4666 
L 1569 4666 
L 2759 1491 
L 3956 4666 
L 4897 4666 
L 4897 0 
L 4281 0 
L 4281 4097 
L 3078 897 
L 2444 897 
L 1241 4097 
L 1241 0 
L 628 0 
L 628 4666 
z
" transform="scale(0.015625)"/>
        <path id="DejaVuSans-37" d="M 525 4666 
L 3525 4666 
L 3525 4397 
L 1831 0 
L 1172 0 
L 2766 4134 
L 525 4134 
L 525 4666 
z
" transform="scale(0.015625)"/>
       </defs>
       <use xlink:href="#DejaVuSans-4d"/>
       <use xlink:href="#DejaVuSans-31" x="86.279297"/>
       <use xlink:href="#DejaVuSans-37" x="149.902344"/>
      </g>
     </g>
    </g>
    <g id="xtick_12">
     <g id="line2d_12">
      <g>
       <use xlink:href="#mc0497adc4b" x="198.029433" y="307.584" style="stroke: #000000; stroke-width: 0.8"/>
      </g>
     </g>
     <g id="text_12">
      <!-- M18 -->
      <g transform="translate(192.431136 335.055846)rotate(-45)scale(0.1 -0.1)">
       <use xlink:href="#DejaVuSans-4d"/>
       <use xlink:href="#DejaVuSans-31" x="86.279297"/>
       <use xlink:href="#DejaVuSans-38" x="149.902344"/>
      </g>
     </g>
    </g>
    <g id="xtick_13">
     <g id="line2d_13">
      <g>
       <use xlink:href="#mc0497adc4b" x="208.92388" y="307.584" style="stroke: #000000; stroke-width: 0.8"/>
      </g>
     </g>
     <g id="text_13">
      <!-- M27 -->
      <g transform="translate(203.325583 335.055846)rotate(-45)scale(0.1 -0.1)">
       <use xlink:href="#DejaVuSans-4d"/>
       <use xlink:href="#DejaVuSans-32" x="86.279297"/>
       <use xlink:href="#DejaVuSans-37" x="149.902344"/>
      </g>
     </g>
    </g>
    <g id="xtick_14">
     <g id="line2d_14">
      <g>
       <use xlink:href="#mc0497adc4b" x="219.818328" y="307.584" style="stroke: #000000; stroke-width: 0.8"/>
      </g>
     </g>
     <g id="text_14">
      <!-- M37 -->
      <g transform="translate(214.220031 335.055846)rotate(-45)scale(0.1 -0.1)">
       <use xlink:href="#DejaVuSans-4d"/>
       <use xlink:href="#DejaVuSans-33" x="86.279297"/>
       <use xlink:href="#DejaVuSans-37" x="149.902344"/>
      </g>
     </g>
    </g>
    <g id="xtick_15">
     <g id="line2d_15">
      <g>
       <use xlink:href="#mc0497adc4b" x="230.712776" y="307.584" style="stroke: #000000; stroke-width: 0.8"/>
      </g>
     </g>
     <g id="text_15">
      <!-- M39 -->
      <g transform="translate(225.114479 335.055846)rotate(-45)scale(0.1 -0.1)">
       <defs>
        <path id="DejaVuSans-39" d="M 703 97 
L 703 672 
Q 941 559 1184 500 
Q 1428 441 1663 441 
Q 2288 441 2617 861 
Q 2947 1281 2994 2138 
Q 2813 1869 2534 1725 
Q 2256 1581 1919 1581 
Q 1219 1581 811 2004 
Q 403 2428 403 3163 
Q 403 3881 828 4315 
Q 1253 4750 1959 4750 
Q 2769 4750 3195 4129 
Q 3622 3509 3622 2328 
Q 3622 1225 3098 567 
Q 2575 -91 1691 -91 
Q 1453 -91 1209 -44 
Q 966 3 703 97 
z
M 1959 2075 
Q 2384 2075 2632 2365 
Q 2881 2656 2881 3163 
Q 2881 3666 2632 3958 
Q 2384 4250 1959 4250 
Q 1534 4250 1286 3958 
Q 1038 3666 1038 3163 
Q 1038 2656 1286 2365 
Q 1534 2075 1959 2075 
z
" transform="scale(0.015625)"/>
       </defs>
       <use xlink:href="#DejaVuSans-4d"/>
       <use xlink:href="#DejaVuSans-33" x="86.279297"/>
       <use xlink:href="#DejaVuSans-39" x="149.902344"/>
      </g>
     </g>
    </g>
    <g id="xtick_16">
     <g id="line2d_16">
      <g>
       <use xlink:href="#mc0497adc4b" x="241.607224" y="307.584" style="stroke: #000000; stroke-width: 0.8"/>
      </g>
     </g>
     <g id="text_16">
      <!-- M40 -->
      <g transform="translate(236.008927 335.055846)rotate(-45)scale(0.1 -0.1)">
       <defs>
        <path id="DejaVuSans-34" d="M 2419 4116 
L 825 1625 
L 2419 1625 
L 2419 4116 
z
M 2253 4666 
L 3047 4666 
L 3047 1625 
L 3713 1625 
L 3713 1100 
L 3047 1100 
L 3047 0 
L 2419 0 
L 2419 1100 
L 313 1100 
L 313 1709 
L 2253 4666 
z
" transform="scale(0.015625)"/>
       </defs>
       <use xlink:href="#DejaVuSans-4d"/>
       <use xlink:href="#DejaVuSans-34" x="86.279297"/>
       <use xlink:href="#DejaVuSans-30" x="149.902344"/>
      </g>
     </g>
    </g>
    <g id="xtick_17">
     <g id="line2d_17">
      <g>
       <use xlink:href="#mc0497adc4b" x="252.501672" y="307.584" style="stroke: #000000; stroke-width: 0.8"/>
      </g>
     </g>
     <g id="text_17">
      <!-- RC11 -->
      <g transform="translate(245.205214 338.452168)rotate(-45)scale(0.1 -0.1)">
       <defs>
        <path id="DejaVuSans-52" d="M 2841 2188 
Q 3044 2119 3236 1894 
Q 3428 1669 3622 1275 
L 4263 0 
L 3584 0 
L 2988 1197 
Q 2756 1666 2539 1819 
Q 2322 1972 1947 1972 
L 1259 1972 
L 1259 0 
L 628 0 
L 628 4666 
L 2053 4666 
Q 2853 4666 3247 4331 
Q 3641 3997 3641 3322 
Q 3641 2881 3436 2590 
Q 3231 2300 2841 2188 
z
M 1259 4147 
L 1259 2491 
L 2053 2491 
Q 2509 2491 2742 2702 
Q 2975 2913 2975 3322 
Q 2975 3731 2742 3939 
Q 2509 4147 2053 4147 
L 1259 4147 
z
" transform="scale(0.015625)"/>
       </defs>
       <use xlink:href="#DejaVuSans-52"/>
       <use xlink:href="#DejaVuSans-43" x="64.482422"/>
       <use xlink:href="#DejaVuSans-31" x="134.306641"/>
       <use xlink:href="#DejaVuSans-31" x="197.929688"/>
      </g>
     </g>
    </g>
    <g id="xtick_18">
     <g id="line2d_18">
      <g>
       <use xlink:href="#mc0497adc4b" x="263.39612" y="307.584" style="stroke: #000000; stroke-width: 0.8"/>
      </g>
     </g>
     <g id="text_18">
      <!-- RC6 -->
      <g transform="translate(258.349145 333.953202)rotate(-45)scale(0.1 -0.1)">
       <defs>
        <path id="DejaVuSans-36" d="M 2113 2584 
Q 1688 2584 1439 2293 
Q 1191 2003 1191 1497 
Q 1191 994 1439 701 
Q 1688 409 2113 409 
Q 2538 409 2786 701 
Q 3034 994 3034 1497 
Q 3034 2003 2786 2293 
Q 2538 2584 2113 2584 
z
M 3366 4563 
L 3366 3988 
Q 3128 4100 2886 4159 
Q 2644 4219 2406 4219 
Q 1781 4219 1451 3797 
Q 1122 3375 1075 2522 
Q 1259 2794 1537 2939 
Q 1816 3084 2150 3084 
Q 2853 3084 3261 2657 
Q 3669 2231 3669 1497 
Q 3669 778 3244 343 
Q 2819 -91 2113 -91 
Q 1303 -91 875 529 
Q 447 1150 447 2328 
Q 447 3434 972 4092 
Q 1497 4750 2381 4750 
Q 2619 4750 2861 4703 
Q 3103 4656 3366 4563 
z
" transform="scale(0.015625)"/>
       </defs>
       <use xlink:href="#DejaVuSans-52"/>
       <use xlink:href="#DejaVuSans-43" x="64.482422"/>
       <use xlink:href="#DejaVuSans-36" x="134.306641"/>
      </g>
     </g>
    </g>
    <g id="xtick_19">
     <g id="line2d_19">
      <g>
       <use xlink:href="#mc0497adc4b" x="274.290567" y="307.584" style="stroke: #000000; stroke-width: 0.8"/>
      </g>
     </g>
     <g id="text_19">
      <!-- RC7 -->
      <g transform="translate(269.243593 333.953202)rotate(-45)scale(0.1 -0.1)">
       <use xlink:href="#DejaVuSans-52"/>
       <use xlink:href="#DejaVuSans-43" x="64.482422"/>
       <use xlink:href="#DejaVuSans-37" x="134.306641"/>
      </g>
     </g>
    </g>
    <g id="xtick_20">
     <g id="line2d_20">
      <g>
       <use xlink:href="#mc0497adc4b" x="285.185015" y="307.584" style="stroke: #000000; stroke-width: 0.8"/>
      </g>
     </g>
     <g id="text_20">
      <!-- RD2 -->
      <g transform="translate(279.7077 334.813883)rotate(-45)scale(0.1 -0.1)">
       <use xlink:href="#DejaVuSans-52"/>
       <use xlink:href="#DejaVuSans-44" x="69.482422"/>
       <use xlink:href="#DejaVuSans-32" x="146.484375"/>
      </g>
     </g>
    </g>
    <g id="xtick_21">
     <g id="line2d_21">
      <g>
       <use xlink:href="#mc0497adc4b" x="296.079463" y="307.584" style="stroke: #000000; stroke-width: 0.8"/>
      </g>
     </g>
     <g id="text_21">
      <!-- RD3 -->
      <g transform="translate(290.602148 334.813883)rotate(-45)scale(0.1 -0.1)">
       <use xlink:href="#DejaVuSans-52"/>
       <use xlink:href="#DejaVuSans-44" x="69.482422"/>
       <use xlink:href="#DejaVuSans-33" x="146.484375"/>
      </g>
     </g>
    </g>
    <g id="xtick_22">
     <g id="line2d_22">
      <g>
       <use xlink:href="#mc0497adc4b" x="306.973911" y="307.584" style="stroke: #000000; stroke-width: 0.8"/>
      </g>
     </g>
     <g id="text_22">
      <!-- RD36 -->
      <g transform="translate(299.247112 339.31285)rotate(-45)scale(0.1 -0.1)">
       <use xlink:href="#DejaVuSans-52"/>
       <use xlink:href="#DejaVuSans-44" x="69.482422"/>
       <use xlink:href="#DejaVuSans-33" x="146.484375"/>
       <use xlink:href="#DejaVuSans-36" x="210.107422"/>
      </g>
     </g>
    </g>
    <g id="xtick_23">
     <g id="line2d_23">
      <g>
       <use xlink:href="#mc0497adc4b" x="317.868359" y="307.584" style="stroke: #000000; stroke-width: 0.8"/>
      </g>
     </g>
     <g id="text_23">
      <!-- RD53 -->
      <g transform="translate(310.14156 339.31285)rotate(-45)scale(0.1 -0.1)">
       <use xlink:href="#DejaVuSans-52"/>
       <use xlink:href="#DejaVuSans-44" x="69.482422"/>
       <use xlink:href="#DejaVuSans-35" x="146.484375"/>
       <use xlink:href="#DejaVuSans-33" x="210.107422"/>
      </g>
     </g>
    </g>
    <g id="xtick_24">
     <g id="line2d_24">
      <g>
       <use xlink:href="#mc0497adc4b" x="328.762807" y="307.584" style="stroke: #000000; stroke-width: 0.8"/>
      </g>
     </g>
     <g id="text_24">
      <!-- RWT3 -->
      <g transform="translate(320.494077 340.396712)rotate(-45)scale(0.1 -0.1)">
       <use xlink:href="#DejaVuSans-52"/>
       <use xlink:href="#DejaVuSans-57" x="65.482422"/>
       <use xlink:href="#DejaVuSans-54" x="164.359375"/>
       <use xlink:href="#DejaVuSans-33" x="225.443359"/>
      </g>
     </g>
    </g>
    <g id="xtick_25">
     <g id="line2d_25">
      <g>
       <use xlink:href="#mc0497adc4b" x="339.657254" y="307.584" style="stroke: #000000; stroke-width: 0.8"/>
      </g>
     </g>
     <g id="text_25">
      <!-- RWT30 -->
      <g transform="translate(329.139041 344.895679)rotate(-45)scale(0.1 -0.1)">
       <use xlink:href="#DejaVuSans-52"/>
       <use xlink:href="#DejaVuSans-57" x="65.482422"/>
       <use xlink:href="#DejaVuSans-54" x="164.359375"/>
       <use xlink:href="#DejaVuSans-33" x="225.443359"/>
       <use xlink:href="#DejaVuSans-30" x="289.066406"/>
      </g>
     </g>
    </g>
    <g id="xtick_26">
     <g id="line2d_26">
      <g>
       <use xlink:href="#mc0497adc4b" x="350.551702" y="307.584" style="stroke: #000000; stroke-width: 0.8"/>
      </g>
     </g>
     <g id="text_26">
      <!-- RWT33 -->
      <g transform="translate(340.033489 344.895679)rotate(-45)scale(0.1 -0.1)">
       <use xlink:href="#DejaVuSans-52"/>
       <use xlink:href="#DejaVuSans-57" x="65.482422"/>
       <use xlink:href="#DejaVuSans-54" x="164.359375"/>
       <use xlink:href="#DejaVuSans-33" x="225.443359"/>
       <use xlink:href="#DejaVuSans-33" x="289.066406"/>
      </g>
     </g>
    </g>
    <g id="xtick_27">
     <g id="line2d_27">
      <g>
       <use xlink:href="#mc0497adc4b" x="361.44615" y="307.584" style="stroke: #000000; stroke-width: 0.8"/>
      </g>
     </g>
     <g id="text_27">
      <!-- RWT38 -->
      <g transform="translate(350.927937 344.895679)rotate(-45)scale(0.1 -0.1)">
       <use xlink:href="#DejaVuSans-52"/>
       <use xlink:href="#DejaVuSans-57" x="65.482422"/>
       <use xlink:href="#DejaVuSans-54" x="164.359375"/>
       <use xlink:href="#DejaVuSans-33" x="225.443359"/>
       <use xlink:href="#DejaVuSans-38" x="289.066406"/>
      </g>
     </g>
    </g>
    <g id="xtick_28">
     <g id="line2d_28">
      <g>
       <use xlink:href="#mc0497adc4b" x="372.340598" y="307.584" style="stroke: #000000; stroke-width: 0.8"/>
      </g>
     </g>
     <g id="text_28">
      <!-- YF3 -->
      <g transform="translate(367.849365 332.841718)rotate(-45)scale(0.1 -0.1)">
       <defs>
        <path id="DejaVuSans-59" d="M -13 4666 
L 666 4666 
L 1959 2747 
L 3244 4666 
L 3922 4666 
L 2272 2222 
L 2272 0 
L 1638 0 
L 1638 2222 
L -13 4666 
z
" transform="scale(0.015625)"/>
       </defs>
       <use xlink:href="#DejaVuSans-59"/>
       <use xlink:href="#DejaVuSans-46" x="61.083984"/>
       <use xlink:href="#DejaVuSans-33" x="118.603516"/>
      </g>
     </g>
    </g>
    <g id="xtick_29">
     <g id="line2d_29">
      <g>
       <use xlink:href="#mc0497adc4b" x="383.235046" y="307.584" style="stroke: #000000; stroke-width: 0.8"/>
      </g>
     </g>
     <g id="text_29">
      <!-- YF6 -->
      <g transform="translate(378.743813 332.841718)rotate(-45)scale(0.1 -0.1)">
       <use xlink:href="#DejaVuSans-59"/>
       <use xlink:href="#DejaVuSans-46" x="61.083984"/>
       <use xlink:href="#DejaVuSans-36" x="118.603516"/>
      </g>
     </g>
    </g>
    <g id="xtick_30">
     <g id="line2d_30">
      <g>
       <use xlink:href="#mc0497adc4b" x="394.129494" y="307.584" style="stroke: #000000; stroke-width: 0.8"/>
      </g>
     </g>
     <g id="text_30">
      <!-- YF7 -->
      <g transform="translate(389.638261 332.841718)rotate(-45)scale(0.1 -0.1)">
       <use xlink:href="#DejaVuSans-59"/>
       <use xlink:href="#DejaVuSans-46" x="61.083984"/>
       <use xlink:href="#DejaVuSans-37" x="118.603516"/>
      </g>
     </g>
    </g>
    <g id="text_31">
     <!-- Sample -->
     <g transform="translate(217.411563 357.964678)scale(0.1 -0.1)">
      <defs>
       <path id="DejaVuSans-53" d="M 3425 4513 
L 3425 3897 
Q 3066 4069 2747 4153 
Q 2428 4238 2131 4238 
Q 1616 4238 1336 4038 
Q 1056 3838 1056 3469 
Q 1056 3159 1242 3001 
Q 1428 2844 1947 2747 
L 2328 2669 
Q 3034 2534 3370 2195 
Q 3706 1856 3706 1288 
Q 3706 609 3251 259 
Q 2797 -91 1919 -91 
Q 1588 -91 1214 -16 
Q 841 59 441 206 
L 441 856 
Q 825 641 1194 531 
Q 1563 422 1919 422 
Q 2459 422 2753 634 
Q 3047 847 3047 1241 
Q 3047 1584 2836 1778 
Q 2625 1972 2144 2069 
L 1759 2144 
Q 1053 2284 737 2584 
Q 422 2884 422 3419 
Q 422 4038 858 4394 
Q 1294 4750 2059 4750 
Q 2388 4750 2728 4690 
Q 3069 4631 3425 4513 
z
" transform="scale(0.015625)"/>
       <path id="DejaVuSans-6d" d="M 3328 2828 
Q 3544 3216 3844 3400 
Q 4144 3584 4550 3584 
Q 5097 3584 5394 3201 
Q 5691 2819 5691 2113 
L 5691 0 
L 5113 0 
L 5113 2094 
Q 5113 2597 4934 2840 
Q 4756 3084 4391 3084 
Q 3944 3084 3684 2787 
Q 3425 2491 3425 1978 
L 3425 0 
L 2847 0 
L 2847 2094 
Q 2847 2600 2669 2842 
Q 2491 3084 2119 3084 
Q 1678 3084 1418 2786 
Q 1159 2488 1159 1978 
L 1159 0 
L 581 0 
L 581 3500 
L 1159 3500 
L 1159 2956 
Q 1356 3278 1631 3431 
Q 1906 3584 2284 3584 
Q 2666 3584 2933 3390 
Q 3200 3197 3328 2828 
z
" transform="scale(0.015625)"/>
       <path id="DejaVuSans-6c" d="M 603 4863 
L 1178 4863 
L 1178 0 
L 603 0 
L 603 4863 
z
" transform="scale(0.015625)"/>
       <path id="DejaVuSans-65" d="M 3597 1894 
L 3597 1613 
L 953 1613 
Q 991 1019 1311 708 
Q 1631 397 2203 397 
Q 2534 397 2845 478 
Q 3156 559 3463 722 
L 3463 178 
Q 3153 47 2828 -22 
Q 2503 -91 2169 -91 
Q 1331 -91 842 396 
Q 353 884 353 1716 
Q 353 2575 817 3079 
Q 1281 3584 2069 3584 
Q 2775 3584 3186 3129 
Q 3597 2675 3597 1894 
z
M 3022 2063 
Q 3016 2534 2758 2815 
Q 2500 3097 2075 3097 
Q 1594 3097 1305 2825 
Q 1016 2553 972 2059 
L 3022 2063 
z
" transform="scale(0.015625)"/>
      </defs>
      <use xlink:href="#DejaVuSans-53"/>
      <use xlink:href="#DejaVuSans-61" x="63.476562"/>
      <use xlink:href="#DejaVuSans-6d" x="124.755859"/>
      <use xlink:href="#DejaVuSans-70" x="222.167969"/>
      <use xlink:href="#DejaVuSans-6c" x="285.644531"/>
      <use xlink:href="#DejaVuSans-65" x="313.427734"/>
     </g>
    </g>
   </g>
   <g id="matplotlib.axis_2">
    <g id="ytick_1">
     <g id="line2d_31">
      <defs>
       <path id="m83fec2b0d4" d="M 0 0 
L -3.5 0 
" style="stroke: #000000; stroke-width: 0.8"/>
      </defs>
      <g>
       <use xlink:href="#m83fec2b0d4" x="57.6" y="307.584" style="stroke: #000000; stroke-width: 0.8"/>
      </g>
     </g>
     <g id="text_32">
      <!-- 0 -->
      <g transform="translate(44.2375 311.383219)scale(0.1 -0.1)">
       <use xlink:href="#DejaVuSans-30"/>
      </g>
     </g>
    </g>
    <g id="ytick_2">
     <g id="line2d_32">
      <g>
       <use xlink:href="#m83fec2b0d4" x="57.6" y="267.36424" style="stroke: #000000; stroke-width: 0.8"/>
      </g>
     </g>
     <g id="text_33">
      <!-- 20 -->
      <g transform="translate(37.875 271.163459)scale(0.1 -0.1)">
       <use xlink:href="#DejaVuSans-32"/>
       <use xlink:href="#DejaVuSans-30" x="63.623047"/>
      </g>
     </g>
    </g>
    <g id="ytick_3">
     <g id="line2d_33">
      <g>
       <use xlink:href="#m83fec2b0d4" x="57.6" y="227.14448" style="stroke: #000000; stroke-width: 0.8"/>
      </g>
     </g>
     <g id="text_34">
      <!-- 40 -->
      <g transform="translate(37.875 230.943698)scale(0.1 -0.1)">
       <use xlink:href="#DejaVuSans-34"/>
       <use xlink:href="#DejaVuSans-30" x="63.623047"/>
      </g>
     </g>
    </g>
    <g id="ytick_4">
     <g id="line2d_34">
      <g>
       <use xlink:href="#m83fec2b0d4" x="57.6" y="186.924719" style="stroke: #000000; stroke-width: 0.8"/>
      </g>
     </g>
     <g id="text_35">
      <!-- 60 -->
      <g transform="translate(37.875 190.723938)scale(0.1 -0.1)">
       <use xlink:href="#DejaVuSans-36"/>
       <use xlink:href="#DejaVuSans-30" x="63.623047"/>
      </g>
     </g>
    </g>
    <g id="ytick_5">
     <g id="line2d_35">
      <g>
       <use xlink:href="#m83fec2b0d4" x="57.6" y="146.704959" style="stroke: #000000; stroke-width: 0.8"/>
      </g>
     </g>
     <g id="text_36">
      <!-- 80 -->
      <g transform="translate(37.875 150.504178)scale(0.1 -0.1)">
       <use xlink:href="#DejaVuSans-38"/>
       <use xlink:href="#DejaVuSans-30" x="63.623047"/>
      </g>
     </g>
    </g>
    <g id="ytick_6">
     <g id="line2d_36">
      <g>
       <use xlink:href="#m83fec2b0d4" x="57.6" y="106.485199" style="stroke: #000000; stroke-width: 0.8"/>
      </g>
     </g>
     <g id="text_37">
      <!-- 100 -->
      <g transform="translate(31.5125 110.284418)scale(0.1 -0.1)">
       <use xlink:href="#DejaVuSans-31"/>
       <use xlink:href="#DejaVuSans-30" x="63.623047"/>
       <use xlink:href="#DejaVuSans-30" x="127.246094"/>
      </g>
     </g>
    </g>
    <g id="ytick_7">
     <g id="line2d_37">
      <g>
       <use xlink:href="#m83fec2b0d4" x="57.6" y="66.265439" style="stroke: #000000; stroke-width: 0.8"/>
      </g>
     </g>
     <g id="text_38">
      <!-- 120 -->
      <g transform="translate(31.5125 70.064658)scale(0.1 -0.1)">
       <use xlink:href="#DejaVuSans-31"/>
       <use xlink:href="#DejaVuSans-32" x="63.623047"/>
       <use xlink:href="#DejaVuSans-30" x="127.246094"/>
      </g>
     </g>
    </g>
    <g id="text_39">
     <!-- 512 -->
     <g transform="translate(25.432812 184.07175)rotate(-90)scale(0.1 -0.1)">
      <use xlink:href="#DejaVuSans-35"/>
      <use xlink:href="#DejaVuSans-31" x="63.623047"/>
      <use xlink:href="#DejaVuSans-32" x="127.246094"/>
     </g>
    </g>
   </g>
   <g id="LineCollection_1">
    <path d="M 78.190506 262.803818 
L 78.190506 259.836042 
" clip-path="url(#p209866ac82)" style="fill: none; stroke: #000000; stroke-width: 1.5"/>
    <path d="M 89.084954 238.109787 
L 89.084954 234.098122 
" clip-path="url(#p209866ac82)" style="fill: none; stroke: #000000; stroke-width: 1.5"/>
    <path d="M 99.979402 77.878972 
L 99.979402 54.144 
" clip-path="url(#p209866ac82)" style="fill: none; stroke: #000000; stroke-width: 1.5"/>
    <path d="M 110.87385 276.246972 
L 110.87385 274.168966 
" clip-path="url(#p209866ac82)" style="fill: none; stroke: #000000; stroke-width: 1.5"/>
    <path d="M 121.768298 126.212151 
L 121.768298 86.758247 
" clip-path="url(#p209866ac82)" style="fill: none; stroke: #000000; stroke-width: 1.5"/>
    <path d="M 132.662746 198.463959 
L 132.662746 189.698537 
" clip-path="url(#p209866ac82)" style="fill: none; stroke: #000000; stroke-width: 1.5"/>
    <path d="M 143.557193 204.378798 
L 143.557193 203.347461 
" clip-path="url(#p209866ac82)" style="fill: none; stroke: #000000; stroke-width: 1.5"/>
    <path d="M 154.451641 225.227886 
L 154.451641 217.851883 
" clip-path="url(#p209866ac82)" style="fill: none; stroke: #000000; stroke-width: 1.5"/>
    <path d="M 165.346089 205.224009 
L 165.346089 201.455872 
" clip-path="url(#p209866ac82)" style="fill: none; stroke: #000000; stroke-width: 1.5"/>
    <path d="M 176.240537 216.122254 
L 176.240537 203.249383 
" clip-path="url(#p209866ac82)" style="fill: none; stroke: #000000; stroke-width: 1.5"/>
    <path d="M 187.134985 246.559862 
L 187.134985 235.447565 
" clip-path="url(#p209866ac82)" style="fill: none; stroke: #000000; stroke-width: 1.5"/>
    <path d="M 198.029433 223.681463 
L 198.029433 221.014903 
" clip-path="url(#p209866ac82)" style="fill: none; stroke: #000000; stroke-width: 1.5"/>
    <path d="M 208.92388 166.005866 
L 208.92388 161.801712 
" clip-path="url(#p209866ac82)" style="fill: none; stroke: #000000; stroke-width: 1.5"/>
    <path d="M 219.818328 212.49613 
L 219.818328 204.547608 
" clip-path="url(#p209866ac82)" style="fill: none; stroke: #000000; stroke-width: 1.5"/>
    <path d="M 230.712776 187.72857 
L 230.712776 184.132749 
" clip-path="url(#p209866ac82)" style="fill: none; stroke: #000000; stroke-width: 1.5"/>
    <path d="M 241.607224 262.060074 
L 241.607224 259.927269 
" clip-path="url(#p209866ac82)" style="fill: none; stroke: #000000; stroke-width: 1.5"/>
    <path d="M 252.501672 232.794248 
L 252.501672 230.63113 
" clip-path="url(#p209866ac82)" style="fill: none; stroke: #000000; stroke-width: 1.5"/>
    <path d="M 263.39612 266.3161 
L 263.39612 264.683037 
" clip-path="url(#p209866ac82)" style="fill: none; stroke: #000000; stroke-width: 1.5"/>
    <path d="M 274.290567 226.179193 
L 274.290567 217.835262 
" clip-path="url(#p209866ac82)" style="fill: none; stroke: #000000; stroke-width: 1.5"/>
    <path d="M 285.185015 260.190016 
L 285.185015 256.876993 
" clip-path="url(#p209866ac82)" style="fill: none; stroke: #000000; stroke-width: 1.5"/>
    <path d="M 296.079463 181.132871 
L 296.079463 175.544191 
" clip-path="url(#p209866ac82)" style="fill: none; stroke: #000000; stroke-width: 1.5"/>
    <path d="M 306.973911 189.160639 
L 306.973911 184.452483 
" clip-path="url(#p209866ac82)" style="fill: none; stroke: #000000; stroke-width: 1.5"/>
    <path d="M 317.868359 219.168831 
L 317.868359 213.30606 
" clip-path="url(#p209866ac82)" style="fill: none; stroke: #000000; stroke-width: 1.5"/>
    <path d="M 328.762807 216.778043 
L 328.762807 205.368263 
" clip-path="url(#p209866ac82)" style="fill: none; stroke: #000000; stroke-width: 1.5"/>
    <path d="M 339.657254 178.384403 
L 339.657254 176.764241 
" clip-path="url(#p209866ac82)" style="fill: none; stroke: #000000; stroke-width: 1.5"/>
    <path d="M 350.551702 258.031515 
L 350.551702 255.367288 
" clip-path="url(#p209866ac82)" style="fill: none; stroke: #000000; stroke-width: 1.5"/>
    <path d="M 361.44615 198.562076 
L 361.44615 194.026956 
" clip-path="url(#p209866ac82)" style="fill: none; stroke: #000000; stroke-width: 1.5"/>
    <path d="M 372.340598 229.278003 
L 372.340598 225.470658 
" clip-path="url(#p209866ac82)" style="fill: none; stroke: #000000; stroke-width: 1.5"/>
    <path d="M 383.235046 212.839595 
L 383.235046 210.39424 
" clip-path="url(#p209866ac82)" style="fill: none; stroke: #000000; stroke-width: 1.5"/>
    <path d="M 394.129494 288.462021 
L 394.129494 285.003653 
" clip-path="url(#p209866ac82)" style="fill: none; stroke: #000000; stroke-width: 1.5"/>
   </g>
   <g id="patch_33">
    <path d="M 57.6 307.584 
L 57.6 41.472 
" style="fill: none; stroke: #000000; stroke-width: 0.8; stroke-linejoin: miter; stroke-linecap: square"/>
   </g>
   <g id="patch_34">
    <path d="M 414.72 307.584 
L 414.72 41.472 
" style="fill: none; stroke: #000000; stroke-width: 0.8; stroke-linejoin: miter; stroke-linecap: square"/>
   </g>
   <g id="patch_35">
    <path d="M 57.6 307.584 
L 414.72 307.584 
" style="fill: none; stroke: #000000; stroke-width: 0.8; stroke-linejoin: miter; stroke-linecap: square"/>
   </g>
   <g id="patch_36">
    <path d="M 57.6 41.472 
L 414.72 41.472 
" style="fill: none; stroke: #000000; stroke-width: 0.8; stroke-linejoin: miter; stroke-linecap: square"/>
   </g>
   <g id="text_40">
    <!-- Toxgreen data -->
    <g transform="translate(193.731562 35.472)scale(0.12 -0.12)">
     <defs>
      <path id="DejaVuSans-6f" d="M 1959 3097 
Q 1497 3097 1228 2736 
Q 959 2375 959 1747 
Q 959 1119 1226 758 
Q 1494 397 1959 397 
Q 2419 397 2687 759 
Q 2956 1122 2956 1747 
Q 2956 2369 2687 2733 
Q 2419 3097 1959 3097 
z
M 1959 3584 
Q 2709 3584 3137 3096 
Q 3566 2609 3566 1747 
Q 3566 888 3137 398 
Q 2709 -91 1959 -91 
Q 1206 -91 779 398 
Q 353 888 353 1747 
Q 353 2609 779 3096 
Q 1206 3584 1959 3584 
z
" transform="scale(0.015625)"/>
      <path id="DejaVuSans-78" d="M 3513 3500 
L 2247 1797 
L 3578 0 
L 2900 0 
L 1881 1375 
L 863 0 
L 184 0 
L 1544 1831 
L 300 3500 
L 978 3500 
L 1906 2253 
L 2834 3500 
L 3513 3500 
z
" transform="scale(0.015625)"/>
      <path id="DejaVuSans-67" d="M 2906 1791 
Q 2906 2416 2648 2759 
Q 2391 3103 1925 3103 
Q 1463 3103 1205 2759 
Q 947 2416 947 1791 
Q 947 1169 1205 825 
Q 1463 481 1925 481 
Q 2391 481 2648 825 
Q 2906 1169 2906 1791 
z
M 3481 434 
Q 3481 -459 3084 -895 
Q 2688 -1331 1869 -1331 
Q 1566 -1331 1297 -1286 
Q 1028 -1241 775 -1147 
L 775 -588 
Q 1028 -725 1275 -790 
Q 1522 -856 1778 -856 
Q 2344 -856 2625 -561 
Q 2906 -266 2906 331 
L 2906 616 
Q 2728 306 2450 153 
Q 2172 0 1784 0 
Q 1141 0 747 490 
Q 353 981 353 1791 
Q 353 2603 747 3093 
Q 1141 3584 1784 3584 
Q 2172 3584 2450 3431 
Q 2728 3278 2906 2969 
L 2906 3500 
L 3481 3500 
L 3481 434 
z
" transform="scale(0.015625)"/>
      <path id="DejaVuSans-72" d="M 2631 2963 
Q 2534 3019 2420 3045 
Q 2306 3072 2169 3072 
Q 1681 3072 1420 2755 
Q 1159 2438 1159 1844 
L 1159 0 
L 581 0 
L 581 3500 
L 1159 3500 
L 1159 2956 
Q 1341 3275 1631 3429 
Q 1922 3584 2338 3584 
Q 2397 3584 2469 3576 
Q 2541 3569 2628 3553 
L 2631 2963 
z
" transform="scale(0.015625)"/>
      <path id="DejaVuSans-6e" d="M 3513 2113 
L 3513 0 
L 2938 0 
L 2938 2094 
Q 2938 2591 2744 2837 
Q 2550 3084 2163 3084 
Q 1697 3084 1428 2787 
Q 1159 2491 1159 1978 
L 1159 0 
L 581 0 
L 581 3500 
L 1159 3500 
L 1159 2956 
Q 1366 3272 1645 3428 
Q 1925 3584 2291 3584 
Q 2894 3584 3203 3211 
Q 3513 2838 3513 2113 
z
" transform="scale(0.015625)"/>
      <path id="DejaVuSans-20" transform="scale(0.015625)"/>
      <path id="DejaVuSans-64" d="M 2906 2969 
L 2906 4863 
L 3481 4863 
L 3481 0 
L 2906 0 
L 2906 525 
Q 2725 213 2448 61 
Q 2172 -91 1784 -91 
Q 1150 -91 751 415 
Q 353 922 353 1747 
Q 353 2572 751 3078 
Q 1150 3584 1784 3584 
Q 2172 3584 2448 3432 
Q 2725 3281 2906 2969 
z
M 947 1747 
Q 947 1113 1208 752 
Q 1469 391 1925 391 
Q 2381 391 2643 752 
Q 2906 1113 2906 1747 
Q 2906 2381 2643 2742 
Q 2381 3103 1925 3103 
Q 1469 3103 1208 2742 
Q 947 2381 947 1747 
z
" transform="scale(0.015625)"/>
      <path id="DejaVuSans-74" d="M 1172 4494 
L 1172 3500 
L 2356 3500 
L 2356 3053 
L 1172 3053 
L 1172 1153 
Q 1172 725 1289 603 
Q 1406 481 1766 481 
L 2356 481 
L 2356 0 
L 1766 0 
Q 1100 0 847 248 
Q 594 497 594 1153 
L 594 3053 
L 172 3053 
L 172 3500 
L 594 3500 
L 594 4494 
L 1172 4494 
z
" transform="scale(0.015625)"/>
     </defs>
     <use xlink:href="#DejaVuSans-54"/>
     <use xlink:href="#DejaVuSans-6f" x="44.083984"/>
     <use xlink:href="#DejaVuSans-78" x="102.140625"/>
     <use xlink:href="#DejaVuSans-67" x="161.320312"/>
     <use xlink:href="#DejaVuSans-72" x="224.796875"/>
     <use xlink:href="#DejaVuSans-65" x="263.660156"/>
     <use xlink:href="#DejaVuSans-65" x="325.183594"/>
     <use xlink:href="#DejaVuSans-6e" x="386.707031"/>
     <use xlink:href="#DejaVuSans-20" x="450.085938"/>
     <use xlink:href="#DejaVuSans-64" x="481.873047"/>
     <use xlink:href="#DejaVuSans-61" x="545.349609"/>
     <use xlink:href="#DejaVuSans-74" x="606.628906"/>
     <use xlink:href="#DejaVuSans-61" x="645.837891"/>
    </g>
   </g>
  </g>
 </g>
 <defs>
  <clipPath id="p209866ac82">
   <rect x="57.6" y="41.472" width="357.12" height="266.112"/>
  </clipPath>
 </defs>
</svg>
