<?xml version="1.0" encoding="utf-8" standalone="no"?>
<!DOCTYPE svg PUBLIC "-//W3C//DTD SVG 1.1//EN"
  "http://www.w3.org/Graphics/SVG/1.1/DTD/svg11.dtd">
<svg xmlns:xlink="http://www.w3.org/1999/xlink" width="460.8pt" height="345.6pt" viewBox="0 0 460.8 345.6" xmlns="http://www.w3.org/2000/svg" version="1.1">
 <metadata>
  <rdf:RDF xmlns:dc="http://purl.org/dc/elements/1.1/" xmlns:cc="http://creativecommons.org/ns#" xmlns:rdf="http://www.w3.org/1999/02/22-rdf-syntax-ns#">
   <cc:Work>
    <dc:type rdf:resource="http://purl.org/dc/dcmitype/StillImage"/>
    <dc:date>2024-02-13T11:18:34.637048</dc:date>
    <dc:format>image/svg+xml</dc:format>
    <dc:creator>
     <cc:Agent>
      <dc:title>Matplotlib v3.7.1, https://matplotlib.org/</dc:title>
     </cc:Agent>
    </dc:creator>
   </cc:Work>
  </rdf:RDF>
 </metadata>
 <defs>
  <style type="text/css">*{stroke-linejoin: round; stroke-linecap: butt}</style>
 </defs>
 <g id="figure_1">
  <g id="patch_1">
   <path d="M 0 345.6 
L 460.8 345.6 
L 460.8 0 
L 0 0 
z
" style="fill: #ffffff"/>
  </g>
  <g id="axes_1">
   <g id="patch_2">
    <path d="M 47.72 303.64 
L 450 303.64 
L 450 81.890229 
L 47.72 81.890229 
z
" style="fill: #ffffff"/>
   </g>
   <g id="matplotlib.axis_1">
    <g id="xtick_1">
     <g id="text_1">
      <!-- A -->
      <g style="fill: #262626" transform="translate(144.869688 318.238437) scale(0.1 -0.1)">
       <defs>
        <path id="DejaVuSans-41" d="M 2188 4044 
L 1331 1722 
L 3047 1722 
L 2188 4044 
z
M 1831 4666 
L 2547 4666 
L 4325 0 
L 3669 0 
L 3244 1197 
L 1141 1197 
L 716 0 
L 50 0 
L 1831 4666 
z
" transform="scale(0.015625)"/>
       </defs>
       <use xlink:href="#DejaVuSans-41"/>
      </g>
     </g>
    </g>
    <g id="xtick_2">
     <g id="text_2">
      <!-- G -->
      <g style="fill: #262626" transform="translate(345.555781 318.238437) scale(0.1 -0.1)">
       <defs>
        <path id="DejaVuSans-47" d="M 3809 666 
L 3809 1919 
L 2778 1919 
L 2778 2438 
L 4434 2438 
L 4434 434 
Q 4069 175 3628 42 
Q 3188 -91 2688 -91 
Q 1594 -91 976 548 
Q 359 1188 359 2328 
Q 359 3472 976 4111 
Q 1594 4750 2688 4750 
Q 3144 4750 3555 4637 
Q 3966 4525 4313 4306 
L 4313 3634 
Q 3963 3931 3569 4081 
Q 3175 4231 2741 4231 
Q 1884 4231 1454 3753 
Q 1025 3275 1025 2328 
Q 1025 1384 1454 906 
Q 1884 428 2741 428 
Q 3075 428 3337 486 
Q 3600 544 3809 666 
z
" transform="scale(0.015625)"/>
       </defs>
       <use xlink:href="#DejaVuSans-47"/>
      </g>
     </g>
    </g>
    <g id="text_3">
     <!-- WT_AA -->
     <g style="fill: #262626" transform="translate(231.384219 331.638437) scale(0.1 -0.1)">
      <defs>
       <path id="DejaVuSans-57" d="M 213 4666 
L 850 4666 
L 1831 722 
L 2809 4666 
L 3519 4666 
L 4500 722 
L 5478 4666 
L 6119 4666 
L 4947 0 
L 4153 0 
L 3169 4050 
L 2175 0 
L 1381 0 
L 213 4666 
z
" transform="scale(0.015625)"/>
       <path id="DejaVuSans-54" d="M -19 4666 
L 3928 4666 
L 3928 4134 
L 2272 4134 
L 2272 0 
L 1638 0 
L 1638 4134 
L -19 4134 
L -19 4666 
z
" transform="scale(0.015625)"/>
       <path id="DejaVuSans-5f" d="M 3263 -1063 
L 3263 -1509 
L -63 -1509 
L -63 -1063 
L 3263 -1063 
z
" transform="scale(0.015625)"/>
      </defs>
      <use xlink:href="#DejaVuSans-57"/>
      <use xlink:href="#DejaVuSans-54" x="98.876953"/>
      <use xlink:href="#DejaVuSans-5f" x="159.960938"/>
      <use xlink:href="#DejaVuSans-41" x="209.960938"/>
      <use xlink:href="#DejaVuSans-41" x="281.119141"/>
     </g>
    </g>
   </g>
   <g id="matplotlib.axis_2">
    <g id="ytick_1">
     <g id="line2d_1">
      <path d="M 47.72 303.64 
L 450 303.64 
" clip-path="url(#p0c95acda13)" style="fill: none; stroke: #cccccc; stroke-width: 0.8; stroke-linecap: round"/>
     </g>
     <g id="text_4">
      <!-- 0.0 -->
      <g style="fill: #262626" transform="translate(24.816875 307.439219) scale(0.1 -0.1)">
       <defs>
        <path id="DejaVuSans-30" d="M 2034 4250 
Q 1547 4250 1301 3770 
Q 1056 3291 1056 2328 
Q 1056 1369 1301 889 
Q 1547 409 2034 409 
Q 2525 409 2770 889 
Q 3016 1369 3016 2328 
Q 3016 3291 2770 3770 
Q 2525 4250 2034 4250 
z
M 2034 4750 
Q 2819 4750 3233 4129 
Q 3647 3509 3647 2328 
Q 3647 1150 3233 529 
Q 2819 -91 2034 -91 
Q 1250 -91 836 529 
Q 422 1150 422 2328 
Q 422 3509 836 4129 
Q 1250 4750 2034 4750 
z
" transform="scale(0.015625)"/>
        <path id="DejaVuSans-2e" d="M 684 794 
L 1344 794 
L 1344 0 
L 684 0 
L 684 794 
z
" transform="scale(0.015625)"/>
       </defs>
       <use xlink:href="#DejaVuSans-30"/>
       <use xlink:href="#DejaVuSans-2e" x="63.623047"/>
       <use xlink:href="#DejaVuSans-30" x="95.410156"/>
      </g>
     </g>
    </g>
    <g id="ytick_2">
     <g id="line2d_2">
      <path d="M 47.72 270.963065 
L 450 270.963065 
" clip-path="url(#p0c95acda13)" style="fill: none; stroke: #cccccc; stroke-width: 0.8; stroke-linecap: round"/>
     </g>
     <g id="text_5">
      <!-- 0.2 -->
      <g style="fill: #262626" transform="translate(24.816875 274.762284) scale(0.1 -0.1)">
       <defs>
        <path id="DejaVuSans-32" d="M 1228 531 
L 3431 531 
L 3431 0 
L 469 0 
L 469 531 
Q 828 903 1448 1529 
Q 2069 2156 2228 2338 
Q 2531 2678 2651 2914 
Q 2772 3150 2772 3378 
Q 2772 3750 2511 3984 
Q 2250 4219 1831 4219 
Q 1534 4219 1204 4116 
Q 875 4013 500 3803 
L 500 4441 
Q 881 4594 1212 4672 
Q 1544 4750 1819 4750 
Q 2544 4750 2975 4387 
Q 3406 4025 3406 3419 
Q 3406 3131 3298 2873 
Q 3191 2616 2906 2266 
Q 2828 2175 2409 1742 
Q 1991 1309 1228 531 
z
" transform="scale(0.015625)"/>
       </defs>
       <use xlink:href="#DejaVuSans-30"/>
       <use xlink:href="#DejaVuSans-2e" x="63.623047"/>
       <use xlink:href="#DejaVuSans-32" x="95.410156"/>
      </g>
     </g>
    </g>
    <g id="ytick_3">
     <g id="line2d_3">
      <path d="M 47.72 238.286131 
L 450 238.286131 
" clip-path="url(#p0c95acda13)" style="fill: none; stroke: #cccccc; stroke-width: 0.8; stroke-linecap: round"/>
     </g>
     <g id="text_6">
      <!-- 0.4 -->
      <g style="fill: #262626" transform="translate(24.816875 242.085349) scale(0.1 -0.1)">
       <defs>
        <path id="DejaVuSans-34" d="M 2419 4116 
L 825 1625 
L 2419 1625 
L 2419 4116 
z
M 2253 4666 
L 3047 4666 
L 3047 1625 
L 3713 1625 
L 3713 1100 
L 3047 1100 
L 3047 0 
L 2419 0 
L 2419 1100 
L 313 1100 
L 313 1709 
L 2253 4666 
z
" transform="scale(0.015625)"/>
       </defs>
       <use xlink:href="#DejaVuSans-30"/>
       <use xlink:href="#DejaVuSans-2e" x="63.623047"/>
       <use xlink:href="#DejaVuSans-34" x="95.410156"/>
      </g>
     </g>
    </g>
    <g id="ytick_4">
     <g id="line2d_4">
      <path d="M 47.72 205.609196 
L 450 205.609196 
" clip-path="url(#p0c95acda13)" style="fill: none; stroke: #cccccc; stroke-width: 0.8; stroke-linecap: round"/>
     </g>
     <g id="text_7">
      <!-- 0.6 -->
      <g style="fill: #262626" transform="translate(24.816875 209.408415) scale(0.1 -0.1)">
       <defs>
        <path id="DejaVuSans-36" d="M 2113 2584 
Q 1688 2584 1439 2293 
Q 1191 2003 1191 1497 
Q 1191 994 1439 701 
Q 1688 409 2113 409 
Q 2538 409 2786 701 
Q 3034 994 3034 1497 
Q 3034 2003 2786 2293 
Q 2538 2584 2113 2584 
z
M 3366 4563 
L 3366 3988 
Q 3128 4100 2886 4159 
Q 2644 4219 2406 4219 
Q 1781 4219 1451 3797 
Q 1122 3375 1075 2522 
Q 1259 2794 1537 2939 
Q 1816 3084 2150 3084 
Q 2853 3084 3261 2657 
Q 3669 2231 3669 1497 
Q 3669 778 3244 343 
Q 2819 -91 2113 -91 
Q 1303 -91 875 529 
Q 447 1150 447 2328 
Q 447 3434 972 4092 
Q 1497 4750 2381 4750 
Q 2619 4750 2861 4703 
Q 3103 4656 3366 4563 
z
" transform="scale(0.015625)"/>
       </defs>
       <use xlink:href="#DejaVuSans-30"/>
       <use xlink:href="#DejaVuSans-2e" x="63.623047"/>
       <use xlink:href="#DejaVuSans-36" x="95.410156"/>
      </g>
     </g>
    </g>
    <g id="ytick_5">
     <g id="line2d_5">
      <path d="M 47.72 172.932261 
L 450 172.932261 
" clip-path="url(#p0c95acda13)" style="fill: none; stroke: #cccccc; stroke-width: 0.8; stroke-linecap: round"/>
     </g>
     <g id="text_8">
      <!-- 0.8 -->
      <g style="fill: #262626" transform="translate(24.816875 176.73148) scale(0.1 -0.1)">
       <defs>
        <path id="DejaVuSans-38" d="M 2034 2216 
Q 1584 2216 1326 1975 
Q 1069 1734 1069 1313 
Q 1069 891 1326 650 
Q 1584 409 2034 409 
Q 2484 409 2743 651 
Q 3003 894 3003 1313 
Q 3003 1734 2745 1975 
Q 2488 2216 2034 2216 
z
M 1403 2484 
Q 997 2584 770 2862 
Q 544 3141 544 3541 
Q 544 4100 942 4425 
Q 1341 4750 2034 4750 
Q 2731 4750 3128 4425 
Q 3525 4100 3525 3541 
Q 3525 3141 3298 2862 
Q 3072 2584 2669 2484 
Q 3125 2378 3379 2068 
Q 3634 1759 3634 1313 
Q 3634 634 3220 271 
Q 2806 -91 2034 -91 
Q 1263 -91 848 271 
Q 434 634 434 1313 
Q 434 1759 690 2068 
Q 947 2378 1403 2484 
z
M 1172 3481 
Q 1172 3119 1398 2916 
Q 1625 2713 2034 2713 
Q 2441 2713 2670 2916 
Q 2900 3119 2900 3481 
Q 2900 3844 2670 4047 
Q 2441 4250 2034 4250 
Q 1625 4250 1398 4047 
Q 1172 3844 1172 3481 
z
" transform="scale(0.015625)"/>
       </defs>
       <use xlink:href="#DejaVuSans-30"/>
       <use xlink:href="#DejaVuSans-2e" x="63.623047"/>
       <use xlink:href="#DejaVuSans-38" x="95.410156"/>
      </g>
     </g>
    </g>
    <g id="ytick_6">
     <g id="line2d_6">
      <path d="M 47.72 140.255327 
L 450 140.255327 
" clip-path="url(#p0c95acda13)" style="fill: none; stroke: #cccccc; stroke-width: 0.8; stroke-linecap: round"/>
     </g>
     <g id="text_9">
      <!-- 1.0 -->
      <g style="fill: #262626" transform="translate(24.816875 144.054545) scale(0.1 -0.1)">
       <defs>
        <path id="DejaVuSans-31" d="M 794 531 
L 1825 531 
L 1825 4091 
L 703 3866 
L 703 4441 
L 1819 4666 
L 2450 4666 
L 2450 531 
L 3481 531 
L 3481 0 
L 794 0 
L 794 531 
z
" transform="scale(0.015625)"/>
       </defs>
       <use xlink:href="#DejaVuSans-31"/>
       <use xlink:href="#DejaVuSans-2e" x="63.623047"/>
       <use xlink:href="#DejaVuSans-30" x="95.410156"/>
      </g>
     </g>
    </g>
    <g id="ytick_7">
     <g id="line2d_7">
      <path d="M 47.72 107.578392 
L 450 107.578392 
" clip-path="url(#p0c95acda13)" style="fill: none; stroke: #cccccc; stroke-width: 0.8; stroke-linecap: round"/>
     </g>
     <g id="text_10">
      <!-- 1.2 -->
      <g style="fill: #262626" transform="translate(24.816875 111.377611) scale(0.1 -0.1)">
       <use xlink:href="#DejaVuSans-31"/>
       <use xlink:href="#DejaVuSans-2e" x="63.623047"/>
       <use xlink:href="#DejaVuSans-32" x="95.410156"/>
      </g>
     </g>
    </g>
    <g id="text_11">
     <!-- PercentGpA -->
     <g style="fill: #262626" transform="translate(18.737188 222.041677) rotate(-90) scale(0.1 -0.1)">
      <defs>
       <path id="DejaVuSans-50" d="M 1259 4147 
L 1259 2394 
L 2053 2394 
Q 2494 2394 2734 2622 
Q 2975 2850 2975 3272 
Q 2975 3691 2734 3919 
Q 2494 4147 2053 4147 
L 1259 4147 
z
M 628 4666 
L 2053 4666 
Q 2838 4666 3239 4311 
Q 3641 3956 3641 3272 
Q 3641 2581 3239 2228 
Q 2838 1875 2053 1875 
L 1259 1875 
L 1259 0 
L 628 0 
L 628 4666 
z
" transform="scale(0.015625)"/>
       <path id="DejaVuSans-65" d="M 3597 1894 
L 3597 1613 
L 953 1613 
Q 991 1019 1311 708 
Q 1631 397 2203 397 
Q 2534 397 2845 478 
Q 3156 559 3463 722 
L 3463 178 
Q 3153 47 2828 -22 
Q 2503 -91 2169 -91 
Q 1331 -91 842 396 
Q 353 884 353 1716 
Q 353 2575 817 3079 
Q 1281 3584 2069 3584 
Q 2775 3584 3186 3129 
Q 3597 2675 3597 1894 
z
M 3022 2063 
Q 3016 2534 2758 2815 
Q 2500 3097 2075 3097 
Q 1594 3097 1305 2825 
Q 1016 2553 972 2059 
L 3022 2063 
z
" transform="scale(0.015625)"/>
       <path id="DejaVuSans-72" d="M 2631 2963 
Q 2534 3019 2420 3045 
Q 2306 3072 2169 3072 
Q 1681 3072 1420 2755 
Q 1159 2438 1159 1844 
L 1159 0 
L 581 0 
L 581 3500 
L 1159 3500 
L 1159 2956 
Q 1341 3275 1631 3429 
Q 1922 3584 2338 3584 
Q 2397 3584 2469 3576 
Q 2541 3569 2628 3553 
L 2631 2963 
z
" transform="scale(0.015625)"/>
       <path id="DejaVuSans-63" d="M 3122 3366 
L 3122 2828 
Q 2878 2963 2633 3030 
Q 2388 3097 2138 3097 
Q 1578 3097 1268 2742 
Q 959 2388 959 1747 
Q 959 1106 1268 751 
Q 1578 397 2138 397 
Q 2388 397 2633 464 
Q 2878 531 3122 666 
L 3122 134 
Q 2881 22 2623 -34 
Q 2366 -91 2075 -91 
Q 1284 -91 818 406 
Q 353 903 353 1747 
Q 353 2603 823 3093 
Q 1294 3584 2113 3584 
Q 2378 3584 2631 3529 
Q 2884 3475 3122 3366 
z
" transform="scale(0.015625)"/>
       <path id="DejaVuSans-6e" d="M 3513 2113 
L 3513 0 
L 2938 0 
L 2938 2094 
Q 2938 2591 2744 2837 
Q 2550 3084 2163 3084 
Q 1697 3084 1428 2787 
Q 1159 2491 1159 1978 
L 1159 0 
L 581 0 
L 581 3500 
L 1159 3500 
L 1159 2956 
Q 1366 3272 1645 3428 
Q 1925 3584 2291 3584 
Q 2894 3584 3203 3211 
Q 3513 2838 3513 2113 
z
" transform="scale(0.015625)"/>
       <path id="DejaVuSans-74" d="M 1172 4494 
L 1172 3500 
L 2356 3500 
L 2356 3053 
L 1172 3053 
L 1172 1153 
Q 1172 725 1289 603 
Q 1406 481 1766 481 
L 2356 481 
L 2356 0 
L 1766 0 
Q 1100 0 847 248 
Q 594 497 594 1153 
L 594 3053 
L 172 3053 
L 172 3500 
L 594 3500 
L 594 4494 
L 1172 4494 
z
" transform="scale(0.015625)"/>
       <path id="DejaVuSans-70" d="M 1159 525 
L 1159 -1331 
L 581 -1331 
L 581 3500 
L 1159 3500 
L 1159 2969 
Q 1341 3281 1617 3432 
Q 1894 3584 2278 3584 
Q 2916 3584 3314 3078 
Q 3713 2572 3713 1747 
Q 3713 922 3314 415 
Q 2916 -91 2278 -91 
Q 1894 -91 1617 61 
Q 1341 213 1159 525 
z
M 3116 1747 
Q 3116 2381 2855 2742 
Q 2594 3103 2138 3103 
Q 1681 3103 1420 2742 
Q 1159 2381 1159 1747 
Q 1159 1113 1420 752 
Q 1681 391 2138 391 
Q 2594 391 2855 752 
Q 3116 1113 3116 1747 
z
" transform="scale(0.015625)"/>
      </defs>
      <use xlink:href="#DejaVuSans-50"/>
      <use xlink:href="#DejaVuSans-65" x="56.677734"/>
      <use xlink:href="#DejaVuSans-72" x="118.201172"/>
      <use xlink:href="#DejaVuSans-63" x="157.064453"/>
      <use xlink:href="#DejaVuSans-65" x="212.044922"/>
      <use xlink:href="#DejaVuSans-6e" x="273.568359"/>
      <use xlink:href="#DejaVuSans-74" x="336.947266"/>
      <use xlink:href="#DejaVuSans-47" x="376.15625"/>
      <use xlink:href="#DejaVuSans-70" x="453.646484"/>
      <use xlink:href="#DejaVuSans-41" x="517.123047"/>
     </g>
    </g>
   </g>
   <g id="patch_3">
    <path d="M 68.63856 276.03606 
L 147.48544 276.03606 
L 147.48544 266.207555 
L 68.63856 266.207555 
L 68.63856 276.03606 
z
" clip-path="url(#p0c95acda13)" style="fill: #ecf2ec; stroke: #262626; stroke-width: 1.5; stroke-linejoin: miter"/>
   </g>
   <g id="patch_4">
    <path d="M 149.09456 267.212855 
L 227.94144 267.212855 
L 227.94144 246.227314 
L 149.09456 246.227314 
L 149.09456 267.212855 
z
" clip-path="url(#p0c95acda13)" style="fill: #107010; stroke: #262626; stroke-width: 1.5; stroke-linejoin: miter"/>
   </g>
   <g id="patch_5">
    <path d="M 269.77856 272.901492 
L 348.62544 272.901492 
L 348.62544 260.756355 
L 269.77856 260.756355 
L 269.77856 272.901492 
z
" clip-path="url(#p0c95acda13)" style="fill: #ecf2ec; stroke: #262626; stroke-width: 1.5; stroke-linejoin: miter"/>
   </g>
   <g id="patch_6">
    <path d="M 350.23456 254.486081 
L 429.08144 254.486081 
L 429.08144 148.561672 
L 350.23456 148.561672 
L 350.23456 254.486081 
z
" clip-path="url(#p0c95acda13)" style="fill: #107010; stroke: #262626; stroke-width: 1.5; stroke-linejoin: miter"/>
   </g>
   <g id="patch_7">
    <path d="M 148.29 303.64 
L 148.29 303.64 
L 148.29 303.64 
L 148.29 303.64 
z
" clip-path="url(#p0c95acda13)" style="fill: #ecf2ec; stroke: #262626; stroke-width: 0.75; stroke-linejoin: miter"/>
   </g>
   <g id="patch_8">
    <path d="M 148.29 303.64 
L 148.29 303.64 
L 148.29 303.64 
L 148.29 303.64 
z
" clip-path="url(#p0c95acda13)" style="fill: #107010; stroke: #262626; stroke-width: 0.75; stroke-linejoin: miter"/>
   </g>
   <g id="PathCollection_1"/>
   <g id="PathCollection_2"/>
   <g id="line2d_8">
    <path d="M 108.062 276.03606 
L 108.062 278.176344 
" clip-path="url(#p0c95acda13)" style="fill: none; stroke: #262626; stroke-width: 1.5; stroke-linecap: round"/>
   </g>
   <g id="line2d_9">
    <path d="M 108.062 266.207555 
L 108.062 253.293515 
" clip-path="url(#p0c95acda13)" style="fill: none; stroke: #262626; stroke-width: 1.5; stroke-linecap: round"/>
   </g>
   <g id="line2d_10">
    <path d="M 88.35028 278.176344 
L 127.77372 278.176344 
" clip-path="url(#p0c95acda13)" style="fill: none; stroke: #262626; stroke-width: 1.5; stroke-linecap: round"/>
   </g>
   <g id="line2d_11">
    <path d="M 88.35028 253.293515 
L 127.77372 253.293515 
" clip-path="url(#p0c95acda13)" style="fill: none; stroke: #262626; stroke-width: 1.5; stroke-linecap: round"/>
   </g>
   <g id="line2d_12"/>
   <g id="line2d_13">
    <path d="M 188.518 267.212855 
L 188.518 275.795417 
" clip-path="url(#p0c95acda13)" style="fill: none; stroke: #262626; stroke-width: 1.5; stroke-linecap: round"/>
   </g>
   <g id="line2d_14">
    <path d="M 188.518 246.227314 
L 188.518 237.161045 
" clip-path="url(#p0c95acda13)" style="fill: none; stroke: #262626; stroke-width: 1.5; stroke-linecap: round"/>
   </g>
   <g id="line2d_15">
    <path d="M 168.80628 275.795417 
L 208.22972 275.795417 
" clip-path="url(#p0c95acda13)" style="fill: none; stroke: #262626; stroke-width: 1.5; stroke-linecap: round"/>
   </g>
   <g id="line2d_16">
    <path d="M 168.80628 237.161045 
L 208.22972 237.161045 
" clip-path="url(#p0c95acda13)" style="fill: none; stroke: #262626; stroke-width: 1.5; stroke-linecap: round"/>
   </g>
   <g id="line2d_17"/>
   <g id="line2d_18">
    <path d="M 309.202 272.901492 
L 309.202 284.725558 
" clip-path="url(#p0c95acda13)" style="fill: none; stroke: #262626; stroke-width: 1.5; stroke-linecap: round"/>
   </g>
   <g id="line2d_19">
    <path d="M 309.202 260.756355 
L 309.202 244.36892 
" clip-path="url(#p0c95acda13)" style="fill: none; stroke: #262626; stroke-width: 1.5; stroke-linecap: round"/>
   </g>
   <g id="line2d_20">
    <path d="M 289.49028 284.725558 
L 328.91372 284.725558 
" clip-path="url(#p0c95acda13)" style="fill: none; stroke: #262626; stroke-width: 1.5; stroke-linecap: round"/>
   </g>
   <g id="line2d_21">
    <path d="M 289.49028 244.36892 
L 328.91372 244.36892 
" clip-path="url(#p0c95acda13)" style="fill: none; stroke: #262626; stroke-width: 1.5; stroke-linecap: round"/>
   </g>
   <g id="line2d_22">
    <defs>
     <path id="m2607ab1dff" d="M -0 1.414214 
L 0.848528 0 
L 0 -1.414214 
L -0.848528 -0 
z
" style="stroke: #262626; stroke-linejoin: miter"/>
    </defs>
    <g clip-path="url(#p0c95acda13)">
     <use xlink:href="#m2607ab1dff" x="309.202" y="241.9462" style="fill: #262626; stroke: #262626; stroke-linejoin: miter"/>
    </g>
   </g>
   <g id="line2d_23">
    <path d="M 389.658 254.486081 
L 389.658 280.554289 
" clip-path="url(#p0c95acda13)" style="fill: none; stroke: #262626; stroke-width: 1.5; stroke-linecap: round"/>
   </g>
   <g id="line2d_24">
    <path d="M 389.658 148.561672 
L 389.658 102.049299 
" clip-path="url(#p0c95acda13)" style="fill: none; stroke: #262626; stroke-width: 1.5; stroke-linecap: round"/>
   </g>
   <g id="line2d_25">
    <path d="M 369.94628 280.554289 
L 409.36972 280.554289 
" clip-path="url(#p0c95acda13)" style="fill: none; stroke: #262626; stroke-width: 1.5; stroke-linecap: round"/>
   </g>
   <g id="line2d_26">
    <path d="M 369.94628 102.049299 
L 409.36972 102.049299 
" clip-path="url(#p0c95acda13)" style="fill: none; stroke: #262626; stroke-width: 1.5; stroke-linecap: round"/>
   </g>
   <g id="line2d_27"/>
   <g id="line2d_28">
    <path d="M 68.63856 272.38082 
L 147.48544 272.38082 
" clip-path="url(#p0c95acda13)" style="fill: none; stroke: #262626; stroke-width: 1.5; stroke-linecap: round"/>
   </g>
   <g id="line2d_29">
    <path d="M 149.09456 253.748964 
L 227.94144 253.748964 
" clip-path="url(#p0c95acda13)" style="fill: none; stroke: #262626; stroke-width: 1.5; stroke-linecap: round"/>
   </g>
   <g id="line2d_30">
    <path d="M 269.77856 266.157417 
L 348.62544 266.157417 
" clip-path="url(#p0c95acda13)" style="fill: none; stroke: #262626; stroke-width: 1.5; stroke-linecap: round"/>
   </g>
   <g id="line2d_31">
    <path d="M 350.23456 227.389446 
L 429.08144 227.389446 
" clip-path="url(#p0c95acda13)" style="fill: none; stroke: #262626; stroke-width: 1.5; stroke-linecap: round"/>
   </g>
   <g id="patch_9">
    <path d="M 47.72 303.64 
L 47.72 81.890229 
" style="fill: none; stroke: #cccccc; stroke-width: 0.8; stroke-linejoin: miter; stroke-linecap: square"/>
   </g>
   <g id="patch_10">
    <path d="M 450 303.64 
L 450 81.890229 
" style="fill: none; stroke: #cccccc; stroke-width: 0.8; stroke-linejoin: miter; stroke-linecap: square"/>
   </g>
   <g id="patch_11">
    <path d="M 47.72 303.64 
L 450 303.64 
" style="fill: none; stroke: #cccccc; stroke-width: 0.8; stroke-linejoin: miter; stroke-linecap: square"/>
   </g>
   <g id="patch_12">
    <path d="M 47.72 81.890229 
L 450 81.890229 
" style="fill: none; stroke: #cccccc; stroke-width: 0.8; stroke-linejoin: miter; stroke-linecap: square"/>
   </g>
   <g id="PathCollection_3">
    <defs>
     <path id="C0_0_3fe3d52415" d="M 0 1 
C 0.265203 1 0.51958 0.894634 0.707107 0.707107 
C 0.894634 0.51958 1 0.265203 1 -0 
C 1 -0.265203 0.894634 -0.51958 0.707107 -0.707107 
C 0.51958 -0.894634 0.265203 -1 0 -1 
C -0.265203 -1 -0.51958 -0.894634 -0.707107 -0.707107 
C -0.894634 -0.51958 -1 -0.265203 -1 0 
C -1 0.265203 -0.894634 0.51958 -0.707107 0.707107 
C -0.51958 0.894634 -0.265203 1 0 1 
z
"/>
    </defs>
    <g clip-path="url(#p0c95acda13)">
     <use xlink:href="#C0_0_3fe3d52415" x="103.014033" y="265.481042" style="fill: #262626"/>
    </g>
    <g clip-path="url(#p0c95acda13)">
     <use xlink:href="#C0_0_3fe3d52415" x="108.431549" y="257.193875" style="fill: #262626"/>
    </g>
    <g clip-path="url(#p0c95acda13)">
     <use xlink:href="#C0_0_3fe3d52415" x="114.691193" y="268.387093" style="fill: #262626"/>
    </g>
    <g clip-path="url(#p0c95acda13)">
     <use xlink:href="#C0_0_3fe3d52415" x="112.195194" y="276.14723" style="fill: #262626"/>
    </g>
    <g clip-path="url(#p0c95acda13)">
     <use xlink:href="#C0_0_3fe3d52415" x="108.696582" y="273.271385" style="fill: #262626"/>
    </g>
    <g clip-path="url(#p0c95acda13)">
     <use xlink:href="#C0_0_3fe3d52415" x="100.711575" y="275.70255" style="fill: #262626"/>
    </g>
    <g clip-path="url(#p0c95acda13)">
     <use xlink:href="#C0_0_3fe3d52415" x="112.093401" y="276.627884" style="fill: #262626"/>
    </g>
    <g clip-path="url(#p0c95acda13)">
     <use xlink:href="#C0_0_3fe3d52415" x="101.037073" y="271.490255" style="fill: #262626"/>
    </g>
    <g clip-path="url(#p0c95acda13)">
     <use xlink:href="#C0_0_3fe3d52415" x="114.053727" y="253.293515" style="fill: #262626"/>
    </g>
    <g clip-path="url(#p0c95acda13)">
     <use xlink:href="#C0_0_3fe3d52415" x="112.971015" y="278.176344" style="fill: #262626"/>
    </g>
   </g>
   <g id="PathCollection_4">
    <defs>
     <path id="C1_0_8e303b4375" d="M 0 1 
C 0.265203 1 0.51958 0.894634 0.707107 0.707107 
C 0.894634 0.51958 1 0.265203 1 -0 
C 1 -0.265203 0.894634 -0.51958 0.707107 -0.707107 
C 0.51958 -0.894634 0.265203 -1 0 -1 
C -0.265203 -1 -0.51958 -0.894634 -0.707107 -0.707107 
C -0.894634 -0.51958 -1 -0.265203 -1 0 
C -1 0.265203 -0.894634 0.51958 -0.707107 0.707107 
C -0.51958 0.894634 -0.265203 1 0 1 
z
"/>
    </defs>
    <g clip-path="url(#p0c95acda13)">
     <use xlink:href="#C1_0_8e303b4375" x="194.695111" y="253.47776"/>
    </g>
    <g clip-path="url(#p0c95acda13)">
     <use xlink:href="#C1_0_8e303b4375" x="191.95205" y="264.834726"/>
    </g>
    <g clip-path="url(#p0c95acda13)">
     <use xlink:href="#C1_0_8e303b4375" x="192.576953" y="275.795417"/>
    </g>
    <g clip-path="url(#p0c95acda13)">
     <use xlink:href="#C1_0_8e303b4375" x="193.890109" y="269.590983"/>
    </g>
    <g clip-path="url(#p0c95acda13)">
     <use xlink:href="#C1_0_8e303b4375" x="191.278954" y="238.976868"/>
    </g>
    <g clip-path="url(#p0c95acda13)">
     <use xlink:href="#C1_0_8e303b4375" x="186.921783" y="237.161045"/>
    </g>
    <g clip-path="url(#p0c95acda13)">
     <use xlink:href="#C1_0_8e303b4375" x="182.204661" y="253.748964"/>
    </g>
   </g>
   <g id="PathCollection_5">
    <defs>
     <path id="C2_0_16bcd06ba4" d="M 0 1 
C 0.265203 1 0.51958 0.894634 0.707107 0.707107 
C 0.894634 0.51958 1 0.265203 1 -0 
C 1 -0.265203 0.894634 -0.51958 0.707107 -0.707107 
C 0.51958 -0.894634 0.265203 -1 0 -1 
C -0.265203 -1 -0.51958 -0.894634 -0.707107 -0.707107 
C -0.894634 -0.51958 -1 -0.265203 -1 0 
C -1 0.265203 -0.894634 0.51958 -0.707107 0.707107 
C -0.51958 0.894634 -0.265203 1 0 1 
z
"/>
    </defs>
    <g clip-path="url(#p0c95acda13)">
     <use xlink:href="#C2_0_16bcd06ba4" x="302.446892" y="273.162799" style="fill: #262626"/>
    </g>
    <g clip-path="url(#p0c95acda13)">
     <use xlink:href="#C2_0_16bcd06ba4" x="306.149474" y="260.611501" style="fill: #262626"/>
    </g>
    <g clip-path="url(#p0c95acda13)">
     <use xlink:href="#C2_0_16bcd06ba4" x="306.583338" y="266.326362" style="fill: #262626"/>
    </g>
    <g clip-path="url(#p0c95acda13)">
     <use xlink:href="#C2_0_16bcd06ba4" x="300.852239" y="271.952952" style="fill: #262626"/>
    </g>
    <g clip-path="url(#p0c95acda13)">
     <use xlink:href="#C2_0_16bcd06ba4" x="300.787382" y="272.485839" style="fill: #262626"/>
    </g>
    <g clip-path="url(#p0c95acda13)">
     <use xlink:href="#C2_0_16bcd06ba4" x="316.712681" y="280.106509" style="fill: #262626"/>
    </g>
    <g clip-path="url(#p0c95acda13)">
     <use xlink:href="#C2_0_16bcd06ba4" x="312.223341" y="277.040518" style="fill: #262626"/>
    </g>
    <g clip-path="url(#p0c95acda13)">
     <use xlink:href="#C2_0_16bcd06ba4" x="318.277937" y="265.136035" style="fill: #262626"/>
    </g>
    <g clip-path="url(#p0c95acda13)">
     <use xlink:href="#C2_0_16bcd06ba4" x="307.842214" y="248.085852" style="fill: #262626"/>
    </g>
    <g clip-path="url(#p0c95acda13)">
     <use xlink:href="#C2_0_16bcd06ba4" x="305.604642" y="275.876356" style="fill: #262626"/>
    </g>
    <g clip-path="url(#p0c95acda13)">
     <use xlink:href="#C2_0_16bcd06ba4" x="319.058" y="284.725558" style="fill: #262626"/>
    </g>
    <g clip-path="url(#p0c95acda13)">
     <use xlink:href="#C2_0_16bcd06ba4" x="303.117823" y="252.744406" style="fill: #262626"/>
    </g>
    <g clip-path="url(#p0c95acda13)">
     <use xlink:href="#C2_0_16bcd06ba4" x="301.106064" y="261.190917" style="fill: #262626"/>
    </g>
    <g clip-path="url(#p0c95acda13)">
     <use xlink:href="#C2_0_16bcd06ba4" x="307.933306" y="266.707377" style="fill: #262626"/>
    </g>
    <g clip-path="url(#p0c95acda13)">
     <use xlink:href="#C2_0_16bcd06ba4" x="300.740484" y="271.448789" style="fill: #262626"/>
    </g>
    <g clip-path="url(#p0c95acda13)">
     <use xlink:href="#C2_0_16bcd06ba4" x="313.529547" y="268.396892" style="fill: #262626"/>
    </g>
    <g clip-path="url(#p0c95acda13)">
     <use xlink:href="#C2_0_16bcd06ba4" x="313.177619" y="262.701261" style="fill: #262626"/>
    </g>
    <g clip-path="url(#p0c95acda13)">
     <use xlink:href="#C2_0_16bcd06ba4" x="318.463467" y="261.800573" style="fill: #262626"/>
    </g>
    <g clip-path="url(#p0c95acda13)">
     <use xlink:href="#C2_0_16bcd06ba4" x="305.861895" y="273.040043" style="fill: #262626"/>
    </g>
    <g clip-path="url(#p0c95acda13)">
     <use xlink:href="#C2_0_16bcd06ba4" x="306.190694" y="255.963633" style="fill: #262626"/>
    </g>
    <g clip-path="url(#p0c95acda13)">
     <use xlink:href="#C2_0_16bcd06ba4" x="304.00988" y="259.42748" style="fill: #262626"/>
    </g>
    <g clip-path="url(#p0c95acda13)">
     <use xlink:href="#C2_0_16bcd06ba4" x="317.228235" y="271.756695" style="fill: #262626"/>
    </g>
    <g clip-path="url(#p0c95acda13)">
     <use xlink:href="#C2_0_16bcd06ba4" x="300.980472" y="259.212271" style="fill: #262626"/>
    </g>
    <g clip-path="url(#p0c95acda13)">
     <use xlink:href="#C2_0_16bcd06ba4" x="301.982813" y="258.498566" style="fill: #262626"/>
    </g>
    <g clip-path="url(#p0c95acda13)">
     <use xlink:href="#C2_0_16bcd06ba4" x="313.392016" y="255.282807" style="fill: #262626"/>
    </g>
    <g clip-path="url(#p0c95acda13)">
     <use xlink:href="#C2_0_16bcd06ba4" x="314.724788" y="264.651795" style="fill: #262626"/>
    </g>
    <g clip-path="url(#p0c95acda13)">
     <use xlink:href="#C2_0_16bcd06ba4" x="300.578541" y="276.37884" style="fill: #262626"/>
    </g>
    <g clip-path="url(#p0c95acda13)">
     <use xlink:href="#C2_0_16bcd06ba4" x="304.755752" y="272.401709" style="fill: #262626"/>
    </g>
    <g clip-path="url(#p0c95acda13)">
     <use xlink:href="#C2_0_16bcd06ba4" x="317.040063" y="256.770025" style="fill: #262626"/>
    </g>
    <g clip-path="url(#p0c95acda13)">
     <use xlink:href="#C2_0_16bcd06ba4" x="310.101226" y="258.188559" style="fill: #262626"/>
    </g>
    <g clip-path="url(#p0c95acda13)">
     <use xlink:href="#C2_0_16bcd06ba4" x="319.19282" y="261.942943" style="fill: #262626"/>
    </g>
    <g clip-path="url(#p0c95acda13)">
     <use xlink:href="#C2_0_16bcd06ba4" x="313.155019" y="283.843499" style="fill: #262626"/>
    </g>
    <g clip-path="url(#p0c95acda13)">
     <use xlink:href="#C2_0_16bcd06ba4" x="302.898349" y="263.242471" style="fill: #262626"/>
    </g>
    <g clip-path="url(#p0c95acda13)">
     <use xlink:href="#C2_0_16bcd06ba4" x="312.044969" y="244.36892" style="fill: #262626"/>
    </g>
    <g clip-path="url(#p0c95acda13)">
     <use xlink:href="#C2_0_16bcd06ba4" x="316.368169" y="269.1747" style="fill: #262626"/>
    </g>
    <g clip-path="url(#p0c95acda13)">
     <use xlink:href="#C2_0_16bcd06ba4" x="302.042987" y="267.6733" style="fill: #262626"/>
    </g>
    <g clip-path="url(#p0c95acda13)">
     <use xlink:href="#C2_0_16bcd06ba4" x="301.946049" y="261.597436" style="fill: #262626"/>
    </g>
    <g clip-path="url(#p0c95acda13)">
     <use xlink:href="#C2_0_16bcd06ba4" x="312.441291" y="281.186877" style="fill: #262626"/>
    </g>
    <g clip-path="url(#p0c95acda13)">
     <use xlink:href="#C2_0_16bcd06ba4" x="310.232158" y="252.487169" style="fill: #262626"/>
    </g>
    <g clip-path="url(#p0c95acda13)">
     <use xlink:href="#C2_0_16bcd06ba4" x="309.814851" y="263.249538" style="fill: #262626"/>
    </g>
    <g clip-path="url(#p0c95acda13)">
     <use xlink:href="#C2_0_16bcd06ba4" x="304.070761" y="267.183381" style="fill: #262626"/>
    </g>
    <g clip-path="url(#p0c95acda13)">
     <use xlink:href="#C2_0_16bcd06ba4" x="317.300767" y="267.857023" style="fill: #262626"/>
    </g>
    <g clip-path="url(#p0c95acda13)">
     <use xlink:href="#C2_0_16bcd06ba4" x="315.324336" y="275.081295" style="fill: #262626"/>
    </g>
    <g clip-path="url(#p0c95acda13)">
     <use xlink:href="#C2_0_16bcd06ba4" x="312.40682" y="241.9462" style="fill: #262626"/>
    </g>
    <g clip-path="url(#p0c95acda13)">
     <use xlink:href="#C2_0_16bcd06ba4" x="303.171992" y="275.354597" style="fill: #262626"/>
    </g>
    <g clip-path="url(#p0c95acda13)">
     <use xlink:href="#C2_0_16bcd06ba4" x="308.884585" y="275.219116" style="fill: #262626"/>
    </g>
    <g clip-path="url(#p0c95acda13)">
     <use xlink:href="#C2_0_16bcd06ba4" x="302.618409" y="265.988473" style="fill: #262626"/>
    </g>
    <g clip-path="url(#p0c95acda13)">
     <use xlink:href="#C2_0_16bcd06ba4" x="317.469034" y="261.652953" style="fill: #262626"/>
    </g>
    <g clip-path="url(#p0c95acda13)">
     <use xlink:href="#C2_0_16bcd06ba4" x="301.105444" y="277.391452" style="fill: #262626"/>
    </g>
    <g clip-path="url(#p0c95acda13)">
     <use xlink:href="#C2_0_16bcd06ba4" x="307.630699" y="265.461754" style="fill: #262626"/>
    </g>
   </g>
   <g id="PathCollection_6">
    <defs>
     <path id="C3_0_2731042451" d="M 0 1 
C 0.265203 1 0.51958 0.894634 0.707107 0.707107 
C 0.894634 0.51958 1 0.265203 1 -0 
C 1 -0.265203 0.894634 -0.51958 0.707107 -0.707107 
C 0.51958 -0.894634 0.265203 -1 0 -1 
C -0.265203 -1 -0.51958 -0.894634 -0.707107 -0.707107 
C -0.894634 -0.51958 -1 -0.265203 -1 0 
C -1 0.265203 -0.894634 0.51958 -0.707107 0.707107 
C -0.51958 0.894634 -0.265203 1 0 1 
z
"/>
    </defs>
    <g clip-path="url(#p0c95acda13)">
     <use xlink:href="#C3_0_2731042451" x="386.231526" y="232.297079"/>
    </g>
    <g clip-path="url(#p0c95acda13)">
     <use xlink:href="#C3_0_2731042451" x="391.667356" y="257.308752"/>
    </g>
    <g clip-path="url(#p0c95acda13)">
     <use xlink:href="#C3_0_2731042451" x="388.248416" y="246.142577"/>
    </g>
    <g clip-path="url(#p0c95acda13)">
     <use xlink:href="#C3_0_2731042451" x="392.960836" y="222.481814"/>
    </g>
    <g clip-path="url(#p0c95acda13)">
     <use xlink:href="#C3_0_2731042451" x="396.283367" y="280.554289"/>
    </g>
    <g clip-path="url(#p0c95acda13)">
     <use xlink:href="#C3_0_2731042451" x="380.315728" y="275.635309"/>
    </g>
    <g clip-path="url(#p0c95acda13)">
     <use xlink:href="#C3_0_2731042451" x="396.261701" y="269.200868"/>
    </g>
    <g clip-path="url(#p0c95acda13)">
     <use xlink:href="#C3_0_2731042451" x="385.837057" y="205.671814"/>
    </g>
    <g clip-path="url(#p0c95acda13)">
     <use xlink:href="#C3_0_2731042451" x="393.246336" y="154.39909"/>
    </g>
    <g clip-path="url(#p0c95acda13)">
     <use xlink:href="#C3_0_2731042451" x="387.643982" y="136.382084"/>
    </g>
    <g clip-path="url(#p0c95acda13)">
     <use xlink:href="#C3_0_2731042451" x="386.677272" y="186.814963"/>
    </g>
    <g clip-path="url(#p0c95acda13)">
     <use xlink:href="#C3_0_2731042451" x="396.649231" y="240.593214"/>
    </g>
    <g clip-path="url(#p0c95acda13)">
     <use xlink:href="#C3_0_2731042451" x="392.165622" y="241.103517"/>
    </g>
    <g clip-path="url(#p0c95acda13)">
     <use xlink:href="#C3_0_2731042451" x="389.997846" y="266.86469"/>
    </g>
    <g clip-path="url(#p0c95acda13)">
     <use xlink:href="#C3_0_2731042451" x="383.997884" y="120.312561"/>
    </g>
    <g clip-path="url(#p0c95acda13)">
     <use xlink:href="#C3_0_2731042451" x="397.651016" y="147.917521"/>
    </g>
    <g clip-path="url(#p0c95acda13)">
     <use xlink:href="#C3_0_2731042451" x="380.602401" y="128.389584"/>
    </g>
    <g clip-path="url(#p0c95acda13)">
     <use xlink:href="#C3_0_2731042451" x="395.556924" y="121.375772"/>
    </g>
    <g clip-path="url(#p0c95acda13)">
     <use xlink:href="#C3_0_2731042451" x="387.531797" y="135.13034"/>
    </g>
    <g clip-path="url(#p0c95acda13)">
     <use xlink:href="#C3_0_2731042451" x="393.158055" y="148.776389"/>
    </g>
    <g clip-path="url(#p0c95acda13)">
     <use xlink:href="#C3_0_2731042451" x="391.504638" y="154.095954"/>
    </g>
    <g clip-path="url(#p0c95acda13)">
     <use xlink:href="#C3_0_2731042451" x="390.55662" y="248.831403"/>
    </g>
    <g clip-path="url(#p0c95acda13)">
     <use xlink:href="#C3_0_2731042451" x="393.227198" y="265.168207"/>
    </g>
    <g clip-path="url(#p0c95acda13)">
     <use xlink:href="#C3_0_2731042451" x="390.829814" y="254.255077"/>
    </g>
    <g clip-path="url(#p0c95acda13)">
     <use xlink:href="#C3_0_2731042451" x="391.866767" y="255.179091"/>
    </g>
    <g clip-path="url(#p0c95acda13)">
     <use xlink:href="#C3_0_2731042451" x="391.075339" y="252.567949"/>
    </g>
    <g clip-path="url(#p0c95acda13)">
     <use xlink:href="#C3_0_2731042451" x="383.353731" y="177.130733"/>
    </g>
    <g clip-path="url(#p0c95acda13)">
     <use xlink:href="#C3_0_2731042451" x="391.467056" y="102.049299"/>
    </g>
   </g>
   <g id="text_12">
    <!-- 10 -->
    <g style="fill: #262626" transform="translate(118.119 34.055289) scale(0.1 -0.1)">
     <use xlink:href="#DejaVuSans-31"/>
     <use xlink:href="#DejaVuSans-30" x="63.623047"/>
    </g>
   </g>
   <g id="text_13">
    <!-- p=0.03195109311437915 -->
    <g style="fill: #262626" transform="translate(65.1465 245.124281) scale(0.08 -0.08)">
     <defs>
      <path id="DejaVuSans-3d" d="M 678 2906 
L 4684 2906 
L 4684 2381 
L 678 2381 
L 678 2906 
z
M 678 1631 
L 4684 1631 
L 4684 1100 
L 678 1100 
L 678 1631 
z
" transform="scale(0.015625)"/>
      <path id="DejaVuSans-33" d="M 2597 2516 
Q 3050 2419 3304 2112 
Q 3559 1806 3559 1356 
Q 3559 666 3084 287 
Q 2609 -91 1734 -91 
Q 1441 -91 1130 -33 
Q 819 25 488 141 
L 488 750 
Q 750 597 1062 519 
Q 1375 441 1716 441 
Q 2309 441 2620 675 
Q 2931 909 2931 1356 
Q 2931 1769 2642 2001 
Q 2353 2234 1838 2234 
L 1294 2234 
L 1294 2753 
L 1863 2753 
Q 2328 2753 2575 2939 
Q 2822 3125 2822 3475 
Q 2822 3834 2567 4026 
Q 2313 4219 1838 4219 
Q 1578 4219 1281 4162 
Q 984 4106 628 3988 
L 628 4550 
Q 988 4650 1302 4700 
Q 1616 4750 1894 4750 
Q 2613 4750 3031 4423 
Q 3450 4097 3450 3541 
Q 3450 3153 3228 2886 
Q 3006 2619 2597 2516 
z
" transform="scale(0.015625)"/>
      <path id="DejaVuSans-39" d="M 703 97 
L 703 672 
Q 941 559 1184 500 
Q 1428 441 1663 441 
Q 2288 441 2617 861 
Q 2947 1281 2994 2138 
Q 2813 1869 2534 1725 
Q 2256 1581 1919 1581 
Q 1219 1581 811 2004 
Q 403 2428 403 3163 
Q 403 3881 828 4315 
Q 1253 4750 1959 4750 
Q 2769 4750 3195 4129 
Q 3622 3509 3622 2328 
Q 3622 1225 3098 567 
Q 2575 -91 1691 -91 
Q 1453 -91 1209 -44 
Q 966 3 703 97 
z
M 1959 2075 
Q 2384 2075 2632 2365 
Q 2881 2656 2881 3163 
Q 2881 3666 2632 3958 
Q 2384 4250 1959 4250 
Q 1534 4250 1286 3958 
Q 1038 3666 1038 3163 
Q 1038 2656 1286 2365 
Q 1534 2075 1959 2075 
z
" transform="scale(0.015625)"/>
      <path id="DejaVuSans-35" d="M 691 4666 
L 3169 4666 
L 3169 4134 
L 1269 4134 
L 1269 2991 
Q 1406 3038 1543 3061 
Q 1681 3084 1819 3084 
Q 2600 3084 3056 2656 
Q 3513 2228 3513 1497 
Q 3513 744 3044 326 
Q 2575 -91 1722 -91 
Q 1428 -91 1123 -41 
Q 819 9 494 109 
L 494 744 
Q 775 591 1075 516 
Q 1375 441 1709 441 
Q 2250 441 2565 725 
Q 2881 1009 2881 1497 
Q 2881 1984 2565 2268 
Q 2250 2553 1709 2553 
Q 1456 2553 1204 2497 
Q 953 2441 691 2322 
L 691 4666 
z
" transform="scale(0.015625)"/>
      <path id="DejaVuSans-37" d="M 525 4666 
L 3525 4666 
L 3525 4397 
L 1831 0 
L 1172 0 
L 2766 4134 
L 525 4134 
L 525 4666 
z
" transform="scale(0.015625)"/>
     </defs>
     <use xlink:href="#DejaVuSans-70"/>
     <use xlink:href="#DejaVuSans-3d" x="63.476562"/>
     <use xlink:href="#DejaVuSans-30" x="147.265625"/>
     <use xlink:href="#DejaVuSans-2e" x="210.888672"/>
     <use xlink:href="#DejaVuSans-30" x="242.675781"/>
     <use xlink:href="#DejaVuSans-33" x="306.298828"/>
     <use xlink:href="#DejaVuSans-31" x="369.921875"/>
     <use xlink:href="#DejaVuSans-39" x="433.544922"/>
     <use xlink:href="#DejaVuSans-35" x="497.167969"/>
     <use xlink:href="#DejaVuSans-31" x="560.791016"/>
     <use xlink:href="#DejaVuSans-30" x="624.414062"/>
     <use xlink:href="#DejaVuSans-39" x="688.037109"/>
     <use xlink:href="#DejaVuSans-33" x="751.660156"/>
     <use xlink:href="#DejaVuSans-31" x="815.283203"/>
     <use xlink:href="#DejaVuSans-31" x="878.90625"/>
     <use xlink:href="#DejaVuSans-34" x="942.529297"/>
     <use xlink:href="#DejaVuSans-33" x="1006.152344"/>
     <use xlink:href="#DejaVuSans-37" x="1069.775391"/>
     <use xlink:href="#DejaVuSans-39" x="1133.398438"/>
     <use xlink:href="#DejaVuSans-31" x="1197.021484"/>
     <use xlink:href="#DejaVuSans-35" x="1260.644531"/>
    </g>
   </g>
   <g id="text_14">
    <!-- 7 -->
    <g style="fill: #262626" transform="translate(178.461 34.055289) scale(0.1 -0.1)">
     <use xlink:href="#DejaVuSans-37"/>
    </g>
   </g>
   <g id="text_15">
    <!-- 50 -->
    <g style="fill: #262626" transform="translate(319.259 34.055289) scale(0.1 -0.1)">
     <use xlink:href="#DejaVuSans-35"/>
     <use xlink:href="#DejaVuSans-30" x="63.623047"/>
    </g>
   </g>
   <g id="text_16">
    <!-- p=2.3199200695884667e-10 -->
    <g style="fill: #262626" transform="translate(259.837125 233.776966) scale(0.08 -0.08)">
     <defs>
      <path id="DejaVuSans-2d" d="M 313 2009 
L 1997 2009 
L 1997 1497 
L 313 1497 
L 313 2009 
z
" transform="scale(0.015625)"/>
     </defs>
     <use xlink:href="#DejaVuSans-70"/>
     <use xlink:href="#DejaVuSans-3d" x="63.476562"/>
     <use xlink:href="#DejaVuSans-32" x="147.265625"/>
     <use xlink:href="#DejaVuSans-2e" x="210.888672"/>
     <use xlink:href="#DejaVuSans-33" x="242.675781"/>
     <use xlink:href="#DejaVuSans-31" x="306.298828"/>
     <use xlink:href="#DejaVuSans-39" x="369.921875"/>
     <use xlink:href="#DejaVuSans-39" x="433.544922"/>
     <use xlink:href="#DejaVuSans-32" x="497.167969"/>
     <use xlink:href="#DejaVuSans-30" x="560.791016"/>
     <use xlink:href="#DejaVuSans-30" x="624.414062"/>
     <use xlink:href="#DejaVuSans-36" x="688.037109"/>
     <use xlink:href="#DejaVuSans-39" x="751.660156"/>
     <use xlink:href="#DejaVuSans-35" x="815.283203"/>
     <use xlink:href="#DejaVuSans-38" x="878.90625"/>
     <use xlink:href="#DejaVuSans-38" x="942.529297"/>
     <use xlink:href="#DejaVuSans-34" x="1006.152344"/>
     <use xlink:href="#DejaVuSans-36" x="1069.775391"/>
     <use xlink:href="#DejaVuSans-36" x="1133.398438"/>
     <use xlink:href="#DejaVuSans-37" x="1197.021484"/>
     <use xlink:href="#DejaVuSans-65" x="1260.644531"/>
     <use xlink:href="#DejaVuSans-2d" x="1322.167969"/>
     <use xlink:href="#DejaVuSans-31" x="1358.251953"/>
     <use xlink:href="#DejaVuSans-30" x="1421.875"/>
    </g>
   </g>
   <g id="text_17">
    <!-- 28 -->
    <g style="fill: #262626" transform="translate(379.601 34.055289) scale(0.1 -0.1)">
     <use xlink:href="#DejaVuSans-32"/>
     <use xlink:href="#DejaVuSans-38" x="63.623047"/>
    </g>
   </g>
   <g id="legend_1">
    <g id="patch_13">
     <path d="M 56.72 98.488666 
L 76.72 98.488666 
L 76.72 91.488666 
L 56.72 91.488666 
z
" style="fill: #ecf2ec; stroke: #262626; stroke-width: 0.75; stroke-linejoin: miter"/>
    </g>
    <g id="text_18">
     <!-- Mutant -->
     <g style="fill: #262626" transform="translate(84.72 98.488666) scale(0.1 -0.1)">
      <defs>
       <path id="DejaVuSans-4d" d="M 628 4666 
L 1569 4666 
L 2759 1491 
L 3956 4666 
L 4897 4666 
L 4897 0 
L 4281 0 
L 4281 4097 
L 3078 897 
L 2444 897 
L 1241 4097 
L 1241 0 
L 628 0 
L 628 4666 
z
" transform="scale(0.015625)"/>
       <path id="DejaVuSans-75" d="M 544 1381 
L 544 3500 
L 1119 3500 
L 1119 1403 
Q 1119 906 1312 657 
Q 1506 409 1894 409 
Q 2359 409 2629 706 
Q 2900 1003 2900 1516 
L 2900 3500 
L 3475 3500 
L 3475 0 
L 2900 0 
L 2900 538 
Q 2691 219 2414 64 
Q 2138 -91 1772 -91 
Q 1169 -91 856 284 
Q 544 659 544 1381 
z
M 1991 3584 
L 1991 3584 
z
" transform="scale(0.015625)"/>
       <path id="DejaVuSans-61" d="M 2194 1759 
Q 1497 1759 1228 1600 
Q 959 1441 959 1056 
Q 959 750 1161 570 
Q 1363 391 1709 391 
Q 2188 391 2477 730 
Q 2766 1069 2766 1631 
L 2766 1759 
L 2194 1759 
z
M 3341 1997 
L 3341 0 
L 2766 0 
L 2766 531 
Q 2569 213 2275 61 
Q 1981 -91 1556 -91 
Q 1019 -91 701 211 
Q 384 513 384 1019 
Q 384 1609 779 1909 
Q 1175 2209 1959 2209 
L 2766 2209 
L 2766 2266 
Q 2766 2663 2505 2880 
Q 2244 3097 1772 3097 
Q 1472 3097 1187 3025 
Q 903 2953 641 2809 
L 641 3341 
Q 956 3463 1253 3523 
Q 1550 3584 1831 3584 
Q 2591 3584 2966 3190 
Q 3341 2797 3341 1997 
z
" transform="scale(0.015625)"/>
      </defs>
      <use xlink:href="#DejaVuSans-4d"/>
      <use xlink:href="#DejaVuSans-75" x="86.279297"/>
      <use xlink:href="#DejaVuSans-74" x="149.658203"/>
      <use xlink:href="#DejaVuSans-61" x="188.867188"/>
      <use xlink:href="#DejaVuSans-6e" x="250.146484"/>
      <use xlink:href="#DejaVuSans-74" x="313.525391"/>
     </g>
    </g>
    <g id="patch_14">
     <path d="M 56.72 113.166791 
L 76.72 113.166791 
L 76.72 106.166791 
L 56.72 106.166791 
z
" style="fill: #107010; stroke: #262626; stroke-width: 0.75; stroke-linejoin: miter"/>
    </g>
    <g id="text_19">
     <!-- WT -->
     <g style="fill: #262626" transform="translate(84.72 113.166791) scale(0.1 -0.1)">
      <use xlink:href="#DejaVuSans-57"/>
      <use xlink:href="#DejaVuSans-54" x="98.876953"/>
     </g>
    </g>
   </g>
  </g>
 </g>
 <defs>
  <clipPath id="p0c95acda13">
   <rect x="47.72" y="81.890229" width="402.28" height="221.749771"/>
  </clipPath>
 </defs>
</svg>
