<?xml version="1.0" encoding="utf-8" standalone="no"?>
<!DOCTYPE svg PUBLIC "-//W3C//DTD SVG 1.1//EN"
  "http://www.w3.org/Graphics/SVG/1.1/DTD/svg11.dtd">
<svg xmlns:xlink="http://www.w3.org/1999/xlink" width="460.8pt" height="345.6pt" viewBox="0 0 460.8 345.6" xmlns="http://www.w3.org/2000/svg" version="1.1">
 <metadata>
  <rdf:RDF xmlns:dc="http://purl.org/dc/elements/1.1/" xmlns:cc="http://creativecommons.org/ns#" xmlns:rdf="http://www.w3.org/1999/02/22-rdf-syntax-ns#">
   <cc:Work>
    <dc:type rdf:resource="http://purl.org/dc/dcmitype/StillImage"/>
    <dc:date>2024-02-11T12:13:05.404114</dc:date>
    <dc:format>image/svg+xml</dc:format>
    <dc:creator>
     <cc:Agent>
      <dc:title>Matplotlib v3.5.3, https://matplotlib.org/</dc:title>
     </cc:Agent>
    </dc:creator>
   </cc:Work>
  </rdf:RDF>
 </metadata>
 <defs>
  <style type="text/css">*{stroke-linejoin: round; stroke-linecap: butt}</style>
 </defs>
 <g id="figure_1">
  <g id="patch_1">
   <path d="M 0 345.6 
L 460.8 345.6 
L 460.8 0 
L 0 0 
z
" style="fill: #ffffff"/>
  </g>
  <g id="axes_1">
   <g id="patch_2">
    <path d="M 65.45 303.64 
L 450 303.64 
L 450 16.561286 
L 65.45 16.561286 
z
" style="fill: #ffffff"/>
   </g>
   <g id="matplotlib.axis_1">
    <g id="xtick_1">
     <g id="text_1">
      <!-- R -->
      <g style="fill: #262626" transform="translate(254.250781 318.238437)scale(0.1 -0.1)">
       <defs>
        <path id="DejaVuSans-52" d="M 2841 2188 
Q 3044 2119 3236 1894 
Q 3428 1669 3622 1275 
L 4263 0 
L 3584 0 
L 2988 1197 
Q 2756 1666 2539 1819 
Q 2322 1972 1947 1972 
L 1259 1972 
L 1259 0 
L 628 0 
L 628 4666 
L 2053 4666 
Q 2853 4666 3247 4331 
Q 3641 3997 3641 3322 
Q 3641 2881 3436 2590 
Q 3231 2300 2841 2188 
z
M 1259 4147 
L 1259 2491 
L 2053 2491 
Q 2509 2491 2742 2702 
Q 2975 2913 2975 3322 
Q 2975 3731 2742 3939 
Q 2509 4147 2053 4147 
L 1259 4147 
z
" transform="scale(0.015625)"/>
       </defs>
       <use xlink:href="#DejaVuSans-52"/>
      </g>
     </g>
    </g>
    <g id="text_2">
     <!-- Sample -->
     <g style="fill: #262626" transform="translate(238.976563 331.916562)scale(0.1 -0.1)">
      <defs>
       <path id="DejaVuSans-53" d="M 3425 4513 
L 3425 3897 
Q 3066 4069 2747 4153 
Q 2428 4238 2131 4238 
Q 1616 4238 1336 4038 
Q 1056 3838 1056 3469 
Q 1056 3159 1242 3001 
Q 1428 2844 1947 2747 
L 2328 2669 
Q 3034 2534 3370 2195 
Q 3706 1856 3706 1288 
Q 3706 609 3251 259 
Q 2797 -91 1919 -91 
Q 1588 -91 1214 -16 
Q 841 59 441 206 
L 441 856 
Q 825 641 1194 531 
Q 1563 422 1919 422 
Q 2459 422 2753 634 
Q 3047 847 3047 1241 
Q 3047 1584 2836 1778 
Q 2625 1972 2144 2069 
L 1759 2144 
Q 1053 2284 737 2584 
Q 422 2884 422 3419 
Q 422 4038 858 4394 
Q 1294 4750 2059 4750 
Q 2388 4750 2728 4690 
Q 3069 4631 3425 4513 
z
" transform="scale(0.015625)"/>
       <path id="DejaVuSans-61" d="M 2194 1759 
Q 1497 1759 1228 1600 
Q 959 1441 959 1056 
Q 959 750 1161 570 
Q 1363 391 1709 391 
Q 2188 391 2477 730 
Q 2766 1069 2766 1631 
L 2766 1759 
L 2194 1759 
z
M 3341 1997 
L 3341 0 
L 2766 0 
L 2766 531 
Q 2569 213 2275 61 
Q 1981 -91 1556 -91 
Q 1019 -91 701 211 
Q 384 513 384 1019 
Q 384 1609 779 1909 
Q 1175 2209 1959 2209 
L 2766 2209 
L 2766 2266 
Q 2766 2663 2505 2880 
Q 2244 3097 1772 3097 
Q 1472 3097 1187 3025 
Q 903 2953 641 2809 
L 641 3341 
Q 956 3463 1253 3523 
Q 1550 3584 1831 3584 
Q 2591 3584 2966 3190 
Q 3341 2797 3341 1997 
z
" transform="scale(0.015625)"/>
       <path id="DejaVuSans-6d" d="M 3328 2828 
Q 3544 3216 3844 3400 
Q 4144 3584 4550 3584 
Q 5097 3584 5394 3201 
Q 5691 2819 5691 2113 
L 5691 0 
L 5113 0 
L 5113 2094 
Q 5113 2597 4934 2840 
Q 4756 3084 4391 3084 
Q 3944 3084 3684 2787 
Q 3425 2491 3425 1978 
L 3425 0 
L 2847 0 
L 2847 2094 
Q 2847 2600 2669 2842 
Q 2491 3084 2119 3084 
Q 1678 3084 1418 2786 
Q 1159 2488 1159 1978 
L 1159 0 
L 581 0 
L 581 3500 
L 1159 3500 
L 1159 2956 
Q 1356 3278 1631 3431 
Q 1906 3584 2284 3584 
Q 2666 3584 2933 3390 
Q 3200 3197 3328 2828 
z
" transform="scale(0.015625)"/>
       <path id="DejaVuSans-70" d="M 1159 525 
L 1159 -1331 
L 581 -1331 
L 581 3500 
L 1159 3500 
L 1159 2969 
Q 1341 3281 1617 3432 
Q 1894 3584 2278 3584 
Q 2916 3584 3314 3078 
Q 3713 2572 3713 1747 
Q 3713 922 3314 415 
Q 2916 -91 2278 -91 
Q 1894 -91 1617 61 
Q 1341 213 1159 525 
z
M 3116 1747 
Q 3116 2381 2855 2742 
Q 2594 3103 2138 3103 
Q 1681 3103 1420 2742 
Q 1159 2381 1159 1747 
Q 1159 1113 1420 752 
Q 1681 391 2138 391 
Q 2594 391 2855 752 
Q 3116 1113 3116 1747 
z
" transform="scale(0.015625)"/>
       <path id="DejaVuSans-6c" d="M 603 4863 
L 1178 4863 
L 1178 0 
L 603 0 
L 603 4863 
z
" transform="scale(0.015625)"/>
       <path id="DejaVuSans-65" d="M 3597 1894 
L 3597 1613 
L 953 1613 
Q 991 1019 1311 708 
Q 1631 397 2203 397 
Q 2534 397 2845 478 
Q 3156 559 3463 722 
L 3463 178 
Q 3153 47 2828 -22 
Q 2503 -91 2169 -91 
Q 1331 -91 842 396 
Q 353 884 353 1716 
Q 353 2575 817 3079 
Q 1281 3584 2069 3584 
Q 2775 3584 3186 3129 
Q 3597 2675 3597 1894 
z
M 3022 2063 
Q 3016 2534 2758 2815 
Q 2500 3097 2075 3097 
Q 1594 3097 1305 2825 
Q 1016 2553 972 2059 
L 3022 2063 
z
" transform="scale(0.015625)"/>
      </defs>
      <use xlink:href="#DejaVuSans-53"/>
      <use xlink:href="#DejaVuSans-61" x="63.476562"/>
      <use xlink:href="#DejaVuSans-6d" x="124.755859"/>
      <use xlink:href="#DejaVuSans-70" x="222.167969"/>
      <use xlink:href="#DejaVuSans-6c" x="285.644531"/>
      <use xlink:href="#DejaVuSans-65" x="313.427734"/>
     </g>
    </g>
   </g>
   <g id="matplotlib.axis_2">
    <g id="ytick_1">
     <g id="line2d_1">
      <path d="M 65.45 253.483258 
L 450 253.483258 
" clip-path="url(#p9a979aec8f)" style="fill: none; stroke: #cccccc; stroke-width: 0.8; stroke-linecap: round"/>
     </g>
     <g id="text_3">
      <!-- −4000 -->
      <g style="fill: #262626" transform="translate(24.620313 257.282477)scale(0.1 -0.1)">
       <defs>
        <path id="DejaVuSans-2212" d="M 678 2272 
L 4684 2272 
L 4684 1741 
L 678 1741 
L 678 2272 
z
" transform="scale(0.015625)"/>
        <path id="DejaVuSans-34" d="M 2419 4116 
L 825 1625 
L 2419 1625 
L 2419 4116 
z
M 2253 4666 
L 3047 4666 
L 3047 1625 
L 3713 1625 
L 3713 1100 
L 3047 1100 
L 3047 0 
L 2419 0 
L 2419 1100 
L 313 1100 
L 313 1709 
L 2253 4666 
z
" transform="scale(0.015625)"/>
        <path id="DejaVuSans-30" d="M 2034 4250 
Q 1547 4250 1301 3770 
Q 1056 3291 1056 2328 
Q 1056 1369 1301 889 
Q 1547 409 2034 409 
Q 2525 409 2770 889 
Q 3016 1369 3016 2328 
Q 3016 3291 2770 3770 
Q 2525 4250 2034 4250 
z
M 2034 4750 
Q 2819 4750 3233 4129 
Q 3647 3509 3647 2328 
Q 3647 1150 3233 529 
Q 2819 -91 2034 -91 
Q 1250 -91 836 529 
Q 422 1150 422 2328 
Q 422 3509 836 4129 
Q 1250 4750 2034 4750 
z
" transform="scale(0.015625)"/>
       </defs>
       <use xlink:href="#DejaVuSans-2212"/>
       <use xlink:href="#DejaVuSans-34" x="83.789062"/>
       <use xlink:href="#DejaVuSans-30" x="147.412109"/>
       <use xlink:href="#DejaVuSans-30" x="211.035156"/>
       <use xlink:href="#DejaVuSans-30" x="274.658203"/>
      </g>
     </g>
    </g>
    <g id="ytick_2">
     <g id="line2d_2">
      <path d="M 65.45 202.054162 
L 450 202.054162 
" clip-path="url(#p9a979aec8f)" style="fill: none; stroke: #cccccc; stroke-width: 0.8; stroke-linecap: round"/>
     </g>
     <g id="text_4">
      <!-- −2000 -->
      <g style="fill: #262626" transform="translate(24.620313 205.853381)scale(0.1 -0.1)">
       <defs>
        <path id="DejaVuSans-32" d="M 1228 531 
L 3431 531 
L 3431 0 
L 469 0 
L 469 531 
Q 828 903 1448 1529 
Q 2069 2156 2228 2338 
Q 2531 2678 2651 2914 
Q 2772 3150 2772 3378 
Q 2772 3750 2511 3984 
Q 2250 4219 1831 4219 
Q 1534 4219 1204 4116 
Q 875 4013 500 3803 
L 500 4441 
Q 881 4594 1212 4672 
Q 1544 4750 1819 4750 
Q 2544 4750 2975 4387 
Q 3406 4025 3406 3419 
Q 3406 3131 3298 2873 
Q 3191 2616 2906 2266 
Q 2828 2175 2409 1742 
Q 1991 1309 1228 531 
z
" transform="scale(0.015625)"/>
       </defs>
       <use xlink:href="#DejaVuSans-2212"/>
       <use xlink:href="#DejaVuSans-32" x="83.789062"/>
       <use xlink:href="#DejaVuSans-30" x="147.412109"/>
       <use xlink:href="#DejaVuSans-30" x="211.035156"/>
       <use xlink:href="#DejaVuSans-30" x="274.658203"/>
      </g>
     </g>
    </g>
    <g id="ytick_3">
     <g id="line2d_3">
      <path d="M 65.45 150.625067 
L 450 150.625067 
" clip-path="url(#p9a979aec8f)" style="fill: none; stroke: #cccccc; stroke-width: 0.8; stroke-linecap: round"/>
     </g>
     <g id="text_5">
      <!-- 0 -->
      <g style="fill: #262626" transform="translate(52.0875 154.424286)scale(0.1 -0.1)">
       <use xlink:href="#DejaVuSans-30"/>
      </g>
     </g>
    </g>
    <g id="ytick_4">
     <g id="line2d_4">
      <path d="M 65.45 99.195971 
L 450 99.195971 
" clip-path="url(#p9a979aec8f)" style="fill: none; stroke: #cccccc; stroke-width: 0.8; stroke-linecap: round"/>
     </g>
     <g id="text_6">
      <!-- 2000 -->
      <g style="fill: #262626" transform="translate(33 102.99519)scale(0.1 -0.1)">
       <use xlink:href="#DejaVuSans-32"/>
       <use xlink:href="#DejaVuSans-30" x="63.623047"/>
       <use xlink:href="#DejaVuSans-30" x="127.246094"/>
       <use xlink:href="#DejaVuSans-30" x="190.869141"/>
      </g>
     </g>
    </g>
    <g id="ytick_5">
     <g id="line2d_5">
      <path d="M 65.45 47.766876 
L 450 47.766876 
" clip-path="url(#p9a979aec8f)" style="fill: none; stroke: #cccccc; stroke-width: 0.8; stroke-linecap: round"/>
     </g>
     <g id="text_7">
      <!-- 4000 -->
      <g style="fill: #262626" transform="translate(33 51.566095)scale(0.1 -0.1)">
       <use xlink:href="#DejaVuSans-34"/>
       <use xlink:href="#DejaVuSans-30" x="63.623047"/>
       <use xlink:href="#DejaVuSans-30" x="127.246094"/>
       <use xlink:href="#DejaVuSans-30" x="190.869141"/>
      </g>
     </g>
    </g>
    <g id="text_8">
     <!-- Delta Fluorescence -->
     <g style="fill: #262626" transform="translate(18.540625 207.967049)rotate(-90)scale(0.1 -0.1)">
      <defs>
       <path id="DejaVuSans-44" d="M 1259 4147 
L 1259 519 
L 2022 519 
Q 2988 519 3436 956 
Q 3884 1394 3884 2338 
Q 3884 3275 3436 3711 
Q 2988 4147 2022 4147 
L 1259 4147 
z
M 628 4666 
L 1925 4666 
Q 3281 4666 3915 4102 
Q 4550 3538 4550 2338 
Q 4550 1131 3912 565 
Q 3275 0 1925 0 
L 628 0 
L 628 4666 
z
" transform="scale(0.015625)"/>
       <path id="DejaVuSans-74" d="M 1172 4494 
L 1172 3500 
L 2356 3500 
L 2356 3053 
L 1172 3053 
L 1172 1153 
Q 1172 725 1289 603 
Q 1406 481 1766 481 
L 2356 481 
L 2356 0 
L 1766 0 
Q 1100 0 847 248 
Q 594 497 594 1153 
L 594 3053 
L 172 3053 
L 172 3500 
L 594 3500 
L 594 4494 
L 1172 4494 
z
" transform="scale(0.015625)"/>
       <path id="DejaVuSans-20" transform="scale(0.015625)"/>
       <path id="DejaVuSans-46" d="M 628 4666 
L 3309 4666 
L 3309 4134 
L 1259 4134 
L 1259 2759 
L 3109 2759 
L 3109 2228 
L 1259 2228 
L 1259 0 
L 628 0 
L 628 4666 
z
" transform="scale(0.015625)"/>
       <path id="DejaVuSans-75" d="M 544 1381 
L 544 3500 
L 1119 3500 
L 1119 1403 
Q 1119 906 1312 657 
Q 1506 409 1894 409 
Q 2359 409 2629 706 
Q 2900 1003 2900 1516 
L 2900 3500 
L 3475 3500 
L 3475 0 
L 2900 0 
L 2900 538 
Q 2691 219 2414 64 
Q 2138 -91 1772 -91 
Q 1169 -91 856 284 
Q 544 659 544 1381 
z
M 1991 3584 
L 1991 3584 
z
" transform="scale(0.015625)"/>
       <path id="DejaVuSans-6f" d="M 1959 3097 
Q 1497 3097 1228 2736 
Q 959 2375 959 1747 
Q 959 1119 1226 758 
Q 1494 397 1959 397 
Q 2419 397 2687 759 
Q 2956 1122 2956 1747 
Q 2956 2369 2687 2733 
Q 2419 3097 1959 3097 
z
M 1959 3584 
Q 2709 3584 3137 3096 
Q 3566 2609 3566 1747 
Q 3566 888 3137 398 
Q 2709 -91 1959 -91 
Q 1206 -91 779 398 
Q 353 888 353 1747 
Q 353 2609 779 3096 
Q 1206 3584 1959 3584 
z
" transform="scale(0.015625)"/>
       <path id="DejaVuSans-72" d="M 2631 2963 
Q 2534 3019 2420 3045 
Q 2306 3072 2169 3072 
Q 1681 3072 1420 2755 
Q 1159 2438 1159 1844 
L 1159 0 
L 581 0 
L 581 3500 
L 1159 3500 
L 1159 2956 
Q 1341 3275 1631 3429 
Q 1922 3584 2338 3584 
Q 2397 3584 2469 3576 
Q 2541 3569 2628 3553 
L 2631 2963 
z
" transform="scale(0.015625)"/>
       <path id="DejaVuSans-73" d="M 2834 3397 
L 2834 2853 
Q 2591 2978 2328 3040 
Q 2066 3103 1784 3103 
Q 1356 3103 1142 2972 
Q 928 2841 928 2578 
Q 928 2378 1081 2264 
Q 1234 2150 1697 2047 
L 1894 2003 
Q 2506 1872 2764 1633 
Q 3022 1394 3022 966 
Q 3022 478 2636 193 
Q 2250 -91 1575 -91 
Q 1294 -91 989 -36 
Q 684 19 347 128 
L 347 722 
Q 666 556 975 473 
Q 1284 391 1588 391 
Q 1994 391 2212 530 
Q 2431 669 2431 922 
Q 2431 1156 2273 1281 
Q 2116 1406 1581 1522 
L 1381 1569 
Q 847 1681 609 1914 
Q 372 2147 372 2553 
Q 372 3047 722 3315 
Q 1072 3584 1716 3584 
Q 2034 3584 2315 3537 
Q 2597 3491 2834 3397 
z
" transform="scale(0.015625)"/>
       <path id="DejaVuSans-63" d="M 3122 3366 
L 3122 2828 
Q 2878 2963 2633 3030 
Q 2388 3097 2138 3097 
Q 1578 3097 1268 2742 
Q 959 2388 959 1747 
Q 959 1106 1268 751 
Q 1578 397 2138 397 
Q 2388 397 2633 464 
Q 2878 531 3122 666 
L 3122 134 
Q 2881 22 2623 -34 
Q 2366 -91 2075 -91 
Q 1284 -91 818 406 
Q 353 903 353 1747 
Q 353 2603 823 3093 
Q 1294 3584 2113 3584 
Q 2378 3584 2631 3529 
Q 2884 3475 3122 3366 
z
" transform="scale(0.015625)"/>
       <path id="DejaVuSans-6e" d="M 3513 2113 
L 3513 0 
L 2938 0 
L 2938 2094 
Q 2938 2591 2744 2837 
Q 2550 3084 2163 3084 
Q 1697 3084 1428 2787 
Q 1159 2491 1159 1978 
L 1159 0 
L 581 0 
L 581 3500 
L 1159 3500 
L 1159 2956 
Q 1366 3272 1645 3428 
Q 1925 3584 2291 3584 
Q 2894 3584 3203 3211 
Q 3513 2838 3513 2113 
z
" transform="scale(0.015625)"/>
      </defs>
      <use xlink:href="#DejaVuSans-44"/>
      <use xlink:href="#DejaVuSans-65" x="77.001953"/>
      <use xlink:href="#DejaVuSans-6c" x="138.525391"/>
      <use xlink:href="#DejaVuSans-74" x="166.308594"/>
      <use xlink:href="#DejaVuSans-61" x="205.517578"/>
      <use xlink:href="#DejaVuSans-20" x="266.796875"/>
      <use xlink:href="#DejaVuSans-46" x="298.583984"/>
      <use xlink:href="#DejaVuSans-6c" x="356.103516"/>
      <use xlink:href="#DejaVuSans-75" x="383.886719"/>
      <use xlink:href="#DejaVuSans-6f" x="447.265625"/>
      <use xlink:href="#DejaVuSans-72" x="508.447266"/>
      <use xlink:href="#DejaVuSans-65" x="547.310547"/>
      <use xlink:href="#DejaVuSans-73" x="608.833984"/>
      <use xlink:href="#DejaVuSans-63" x="660.933594"/>
      <use xlink:href="#DejaVuSans-65" x="715.914062"/>
      <use xlink:href="#DejaVuSans-6e" x="777.4375"/>
      <use xlink:href="#DejaVuSans-63" x="840.816406"/>
      <use xlink:href="#DejaVuSans-65" x="895.796875"/>
     </g>
    </g>
   </g>
   <g id="patch_3">
    <path d="M 105.4432 185.647154 
L 256.1868 185.647154 
L 256.1868 146.771846 
L 105.4432 146.771846 
L 105.4432 185.647154 
z
" clip-path="url(#p9a979aec8f)" style="fill: #ecf2ec; stroke: #262626; stroke-width: 1.5; stroke-linejoin: miter"/>
   </g>
   <g id="patch_4">
    <path d="M 259.2632 131.790298 
L 410.0068 131.790298 
L 410.0068 99.415159 
L 259.2632 99.415159 
L 259.2632 131.790298 
z
" clip-path="url(#p9a979aec8f)" style="fill: #107010; stroke: #262626; stroke-width: 1.5; stroke-linejoin: miter"/>
   </g>
   <g id="patch_5">
    <path d="M 257.725 150.625067 
L 257.725 150.625067 
L 257.725 150.625067 
L 257.725 150.625067 
z
" clip-path="url(#p9a979aec8f)" style="fill: #ecf2ec; stroke: #262626; stroke-width: 0.75; stroke-linejoin: miter"/>
   </g>
   <g id="patch_6">
    <path d="M 257.725 150.625067 
L 257.725 150.625067 
L 257.725 150.625067 
L 257.725 150.625067 
z
" clip-path="url(#p9a979aec8f)" style="fill: #107010; stroke: #262626; stroke-width: 0.75; stroke-linejoin: miter"/>
   </g>
   <g id="PathCollection_1"/>
   <g id="PathCollection_2"/>
   <g id="line2d_6">
    <path d="M 180.815 185.647154 
L 180.815 240.623526 
" clip-path="url(#p9a979aec8f)" style="fill: none; stroke: #262626; stroke-width: 1.5; stroke-linecap: round"/>
   </g>
   <g id="line2d_7">
    <path d="M 180.815 146.771846 
L 180.815 90.66312 
" clip-path="url(#p9a979aec8f)" style="fill: none; stroke: #262626; stroke-width: 1.5; stroke-linecap: round"/>
   </g>
   <g id="line2d_8">
    <path d="M 143.1291 240.623526 
L 218.5009 240.623526 
" clip-path="url(#p9a979aec8f)" style="fill: none; stroke: #262626; stroke-width: 1.5; stroke-linecap: round"/>
   </g>
   <g id="line2d_9">
    <path d="M 143.1291 90.66312 
L 218.5009 90.66312 
" clip-path="url(#p9a979aec8f)" style="fill: none; stroke: #262626; stroke-width: 1.5; stroke-linecap: round"/>
   </g>
   <g id="line2d_10">
    <defs>
     <path id="m44a0238a7b" d="M -0 1.414214 
L 0.848528 0 
L 0 -1.414214 
L -0.848528 -0 
z
" style="stroke: #262626; stroke-linejoin: miter"/>
    </defs>
    <g clip-path="url(#p9a979aec8f)">
     <use xlink:href="#m44a0238a7b" x="180.815" y="303.64" style="fill: #262626; stroke: #262626; stroke-linejoin: miter"/>
     <use xlink:href="#m44a0238a7b" x="180.815" y="261.402627" style="fill: #262626; stroke: #262626; stroke-linejoin: miter"/>
     <use xlink:href="#m44a0238a7b" x="180.815" y="245.420904" style="fill: #262626; stroke: #262626; stroke-linejoin: miter"/>
     <use xlink:href="#m44a0238a7b" x="180.815" y="85.35622" style="fill: #262626; stroke: #262626; stroke-linejoin: miter"/>
    </g>
   </g>
   <g id="line2d_11">
    <path d="M 334.635 131.790298 
L 334.635 173.987369 
" clip-path="url(#p9a979aec8f)" style="fill: none; stroke: #262626; stroke-width: 1.5; stroke-linecap: round"/>
   </g>
   <g id="line2d_12">
    <path d="M 334.635 99.415159 
L 334.635 58.13175 
" clip-path="url(#p9a979aec8f)" style="fill: none; stroke: #262626; stroke-width: 1.5; stroke-linecap: round"/>
   </g>
   <g id="line2d_13">
    <path d="M 296.9491 173.987369 
L 372.3209 173.987369 
" clip-path="url(#p9a979aec8f)" style="fill: none; stroke: #262626; stroke-width: 1.5; stroke-linecap: round"/>
   </g>
   <g id="line2d_14">
    <path d="M 296.9491 58.13175 
L 372.3209 58.13175 
" clip-path="url(#p9a979aec8f)" style="fill: none; stroke: #262626; stroke-width: 1.5; stroke-linecap: round"/>
   </g>
   <g id="line2d_15">
    <g clip-path="url(#p9a979aec8f)">
     <use xlink:href="#m44a0238a7b" x="334.635" y="16.561286" style="fill: #262626; stroke: #262626; stroke-linejoin: miter"/>
     <use xlink:href="#m44a0238a7b" x="334.635" y="31.767573" style="fill: #262626; stroke: #262626; stroke-linejoin: miter"/>
     <use xlink:href="#m44a0238a7b" x="334.635" y="26.092808" style="fill: #262626; stroke: #262626; stroke-linejoin: miter"/>
    </g>
   </g>
   <g id="line2d_16">
    <path d="M 105.4432 167.841849 
L 256.1868 167.841849 
" clip-path="url(#p9a979aec8f)" style="fill: none; stroke: #262626; stroke-width: 1.5; stroke-linecap: round"/>
   </g>
   <g id="line2d_17">
    <path d="M 259.2632 113.610268 
L 410.0068 113.610268 
" clip-path="url(#p9a979aec8f)" style="fill: none; stroke: #262626; stroke-width: 1.5; stroke-linecap: round"/>
   </g>
   <g id="patch_7">
    <path d="M 65.45 303.64 
L 65.45 16.561286 
" style="fill: none; stroke: #cccccc; stroke-width: 0.8; stroke-linejoin: miter; stroke-linecap: square"/>
   </g>
   <g id="patch_8">
    <path d="M 450 303.64 
L 450 16.561286 
" style="fill: none; stroke: #cccccc; stroke-width: 0.8; stroke-linejoin: miter; stroke-linecap: square"/>
   </g>
   <g id="patch_9">
    <path d="M 65.45 303.64 
L 450 303.64 
" style="fill: none; stroke: #cccccc; stroke-width: 0.8; stroke-linejoin: miter; stroke-linecap: square"/>
   </g>
   <g id="patch_10">
    <path d="M 65.45 16.561286 
L 450 16.561286 
" style="fill: none; stroke: #cccccc; stroke-width: 0.8; stroke-linejoin: miter; stroke-linecap: square"/>
   </g>
   <g id="PathCollection_3">
    <defs>
     <path id="C0_0_4399d08332" d="M 0 1 
C 0.265203 1 0.51958 0.894634 0.707107 0.707107 
C 0.894634 0.51958 1 0.265203 1 -0 
C 1 -0.265203 0.894634 -0.51958 0.707107 -0.707107 
C 0.51958 -0.894634 0.265203 -1 0 -1 
C -0.265203 -1 -0.51958 -0.894634 -0.707107 -0.707107 
C -0.894634 -0.51958 -1 -0.265203 -1 0 
C -1 0.265203 -0.894634 0.51958 -0.707107 0.707107 
C -0.51958 0.894634 -0.265203 1 0 1 
z
"/>
    </defs>
    <g clip-path="url(#p9a979aec8f)">
     <use xlink:href="#C0_0_4399d08332" x="176.334839" y="167.074811" style="fill: #262626"/>
    </g>
    <g clip-path="url(#p9a979aec8f)">
     <use xlink:href="#C0_0_4399d08332" x="179.447356" y="222.672271" style="fill: #262626"/>
    </g>
    <g clip-path="url(#p9a979aec8f)">
     <use xlink:href="#C0_0_4399d08332" x="185.043936" y="112.440795" style="fill: #262626"/>
    </g>
    <g clip-path="url(#p9a979aec8f)">
     <use xlink:href="#C0_0_4399d08332" x="171.801105" y="158.773484" style="fill: #262626"/>
    </g>
    <g clip-path="url(#p9a979aec8f)">
     <use xlink:href="#C0_0_4399d08332" x="179.733155" y="240.623526" style="fill: #262626"/>
    </g>
    <g clip-path="url(#p9a979aec8f)">
     <use xlink:href="#C0_0_4399d08332" x="171.689179" y="187.058693" style="fill: #262626"/>
    </g>
    <g clip-path="url(#p9a979aec8f)">
     <use xlink:href="#C0_0_4399d08332" x="172.052971" y="85.35622" style="fill: #262626"/>
    </g>
    <g clip-path="url(#p9a979aec8f)">
     <use xlink:href="#C0_0_4399d08332" x="187.299696" y="165.747653" style="fill: #262626"/>
    </g>
    <g clip-path="url(#p9a979aec8f)">
     <use xlink:href="#C0_0_4399d08332" x="198.6893" y="185.180503" style="fill: #262626"/>
    </g>
    <g clip-path="url(#p9a979aec8f)">
     <use xlink:href="#C0_0_4399d08332" x="162.838129" y="240.283277" style="fill: #262626"/>
    </g>
    <g clip-path="url(#p9a979aec8f)">
     <use xlink:href="#C0_0_4399d08332" x="171.614141" y="233.285045" style="fill: #262626"/>
    </g>
    <g clip-path="url(#p9a979aec8f)">
     <use xlink:href="#C0_0_4399d08332" x="194.035683" y="177.047959" style="fill: #262626"/>
    </g>
    <g clip-path="url(#p9a979aec8f)">
     <use xlink:href="#C0_0_4399d08332" x="187.3256" y="172.382412" style="fill: #262626"/>
    </g>
    <g clip-path="url(#p9a979aec8f)">
     <use xlink:href="#C0_0_4399d08332" x="175.787594" y="170.191359" style="fill: #262626"/>
    </g>
    <g clip-path="url(#p9a979aec8f)">
     <use xlink:href="#C0_0_4399d08332" x="188.533323" y="146.771846" style="fill: #262626"/>
    </g>
    <g clip-path="url(#p9a979aec8f)">
     <use xlink:href="#C0_0_4399d08332" x="161.907305" y="169.80428" style="fill: #262626"/>
    </g>
    <g clip-path="url(#p9a979aec8f)">
     <use xlink:href="#C0_0_4399d08332" x="165.195379" y="131.394654" style="fill: #262626"/>
    </g>
    <g clip-path="url(#p9a979aec8f)">
     <use xlink:href="#C0_0_4399d08332" x="194.584782" y="169.599898" style="fill: #262626"/>
    </g>
    <g clip-path="url(#p9a979aec8f)">
     <use xlink:href="#C0_0_4399d08332" x="189.138484" y="180.866563" style="fill: #262626"/>
    </g>
    <g clip-path="url(#p9a979aec8f)">
     <use xlink:href="#C0_0_4399d08332" x="192.076972" y="142.413382" style="fill: #262626"/>
    </g>
    <g clip-path="url(#p9a979aec8f)">
     <use xlink:href="#C0_0_4399d08332" x="165.800252" y="92.608763" style="fill: #262626"/>
    </g>
    <g clip-path="url(#p9a979aec8f)">
     <use xlink:href="#C0_0_4399d08332" x="167.887556" y="158.771868" style="fill: #262626"/>
    </g>
    <g clip-path="url(#p9a979aec8f)">
     <use xlink:href="#C0_0_4399d08332" x="193.097994" y="303.64" style="fill: #262626"/>
    </g>
    <g clip-path="url(#p9a979aec8f)">
     <use xlink:href="#C0_0_4399d08332" x="191.288009" y="153.809505" style="fill: #262626"/>
    </g>
    <g clip-path="url(#p9a979aec8f)">
     <use xlink:href="#C0_0_4399d08332" x="179.077682" y="187.218213" style="fill: #262626"/>
    </g>
    <g clip-path="url(#p9a979aec8f)">
     <use xlink:href="#C0_0_4399d08332" x="187.428797" y="169.47666" style="fill: #262626"/>
    </g>
    <g clip-path="url(#p9a979aec8f)">
     <use xlink:href="#C0_0_4399d08332" x="196.481933" y="261.402627" style="fill: #262626"/>
    </g>
    <g clip-path="url(#p9a979aec8f)">
     <use xlink:href="#C0_0_4399d08332" x="191.233684" y="192.198508" style="fill: #262626"/>
    </g>
    <g clip-path="url(#p9a979aec8f)">
     <use xlink:href="#C0_0_4399d08332" x="163.142115" y="176.009399" style="fill: #262626"/>
    </g>
    <g clip-path="url(#p9a979aec8f)">
     <use xlink:href="#C0_0_4399d08332" x="178.683036" y="130.462942" style="fill: #262626"/>
    </g>
    <g clip-path="url(#p9a979aec8f)">
     <use xlink:href="#C0_0_4399d08332" x="191.263519" y="169.007848" style="fill: #262626"/>
    </g>
    <g clip-path="url(#p9a979aec8f)">
     <use xlink:href="#C0_0_4399d08332" x="193.414206" y="180.726648" style="fill: #262626"/>
    </g>
    <g clip-path="url(#p9a979aec8f)">
     <use xlink:href="#C0_0_4399d08332" x="177.318233" y="125.821749" style="fill: #262626"/>
    </g>
    <g clip-path="url(#p9a979aec8f)">
     <use xlink:href="#C0_0_4399d08332" x="182.618296" y="156.32425" style="fill: #262626"/>
    </g>
    <g clip-path="url(#p9a979aec8f)">
     <use xlink:href="#C0_0_4399d08332" x="192.856553" y="123.654738" style="fill: #262626"/>
    </g>
    <g clip-path="url(#p9a979aec8f)">
     <use xlink:href="#C0_0_4399d08332" x="168.7055" y="152.821794" style="fill: #262626"/>
    </g>
    <g clip-path="url(#p9a979aec8f)">
     <use xlink:href="#C0_0_4399d08332" x="166.733752" y="187.377758" style="fill: #262626"/>
    </g>
    <g clip-path="url(#p9a979aec8f)">
     <use xlink:href="#C0_0_4399d08332" x="175.575021" y="139.443522" style="fill: #262626"/>
    </g>
    <g clip-path="url(#p9a979aec8f)">
     <use xlink:href="#C0_0_4399d08332" x="163.28404" y="180.366425" style="fill: #262626"/>
    </g>
    <g clip-path="url(#p9a979aec8f)">
     <use xlink:href="#C0_0_4399d08332" x="192.544703" y="188.19289" style="fill: #262626"/>
    </g>
    <g clip-path="url(#p9a979aec8f)">
     <use xlink:href="#C0_0_4399d08332" x="181.624194" y="132.399269" style="fill: #262626"/>
    </g>
    <g clip-path="url(#p9a979aec8f)">
     <use xlink:href="#C0_0_4399d08332" x="165.097264" y="107.297366" style="fill: #262626"/>
    </g>
    <g clip-path="url(#p9a979aec8f)">
     <use xlink:href="#C0_0_4399d08332" x="199.728584" y="169.279391" style="fill: #262626"/>
    </g>
    <g clip-path="url(#p9a979aec8f)">
     <use xlink:href="#C0_0_4399d08332" x="162.579083" y="168.640468" style="fill: #262626"/>
    </g>
    <g clip-path="url(#p9a979aec8f)">
     <use xlink:href="#C0_0_4399d08332" x="196.168677" y="159.043887" style="fill: #262626"/>
    </g>
    <g clip-path="url(#p9a979aec8f)">
     <use xlink:href="#C0_0_4399d08332" x="172.951537" y="128.437459" style="fill: #262626"/>
    </g>
    <g clip-path="url(#p9a979aec8f)">
     <use xlink:href="#C0_0_4399d08332" x="167.487789" y="187.558931" style="fill: #262626"/>
    </g>
    <g clip-path="url(#p9a979aec8f)">
     <use xlink:href="#C0_0_4399d08332" x="179.903691" y="245.420904" style="fill: #262626"/>
    </g>
    <g clip-path="url(#p9a979aec8f)">
     <use xlink:href="#C0_0_4399d08332" x="179.385577" y="165.952617" style="fill: #262626"/>
    </g>
    <g clip-path="url(#p9a979aec8f)">
     <use xlink:href="#C0_0_4399d08332" x="165.894236" y="176.54331" style="fill: #262626"/>
    </g>
    <g clip-path="url(#p9a979aec8f)">
     <use xlink:href="#C0_0_4399d08332" x="186.938431" y="121.867679" style="fill: #262626"/>
    </g>
    <g clip-path="url(#p9a979aec8f)">
     <use xlink:href="#C0_0_4399d08332" x="190.908114" y="173.059989" style="fill: #262626"/>
    </g>
    <g clip-path="url(#p9a979aec8f)">
     <use xlink:href="#C0_0_4399d08332" x="169.8036" y="163.392543" style="fill: #262626"/>
    </g>
    <g clip-path="url(#p9a979aec8f)">
     <use xlink:href="#C0_0_4399d08332" x="185.351016" y="199.105499" style="fill: #262626"/>
    </g>
    <g clip-path="url(#p9a979aec8f)">
     <use xlink:href="#C0_0_4399d08332" x="183.946384" y="153.738542" style="fill: #262626"/>
    </g>
    <g clip-path="url(#p9a979aec8f)">
     <use xlink:href="#C0_0_4399d08332" x="178.443748" y="111.39381" style="fill: #262626"/>
    </g>
    <g clip-path="url(#p9a979aec8f)">
     <use xlink:href="#C0_0_4399d08332" x="181.179909" y="127.832381" style="fill: #262626"/>
    </g>
    <g clip-path="url(#p9a979aec8f)">
     <use xlink:href="#C0_0_4399d08332" x="187.946108" y="239.807586" style="fill: #262626"/>
    </g>
    <g clip-path="url(#p9a979aec8f)">
     <use xlink:href="#C0_0_4399d08332" x="170.059797" y="167.841849" style="fill: #262626"/>
    </g>
    <g clip-path="url(#p9a979aec8f)">
     <use xlink:href="#C0_0_4399d08332" x="179.172072" y="181.378842" style="fill: #262626"/>
    </g>
    <g clip-path="url(#p9a979aec8f)">
     <use xlink:href="#C0_0_4399d08332" x="192.813382" y="125.489605" style="fill: #262626"/>
    </g>
    <g clip-path="url(#p9a979aec8f)">
     <use xlink:href="#C0_0_4399d08332" x="197.501906" y="219.717953" style="fill: #262626"/>
    </g>
    <g clip-path="url(#p9a979aec8f)">
     <use xlink:href="#C0_0_4399d08332" x="188.69532" y="93.510505" style="fill: #262626"/>
    </g>
    <g clip-path="url(#p9a979aec8f)">
     <use xlink:href="#C0_0_4399d08332" x="192.829146" y="162.612807" style="fill: #262626"/>
    </g>
    <g clip-path="url(#p9a979aec8f)">
     <use xlink:href="#C0_0_4399d08332" x="185.165437" y="209.873194" style="fill: #262626"/>
    </g>
    <g clip-path="url(#p9a979aec8f)">
     <use xlink:href="#C0_0_4399d08332" x="183.557272" y="192.513024" style="fill: #262626"/>
    </g>
    <g clip-path="url(#p9a979aec8f)">
     <use xlink:href="#C0_0_4399d08332" x="196.182592" y="157.583961" style="fill: #262626"/>
    </g>
    <g clip-path="url(#p9a979aec8f)">
     <use xlink:href="#C0_0_4399d08332" x="167.049433" y="183.778951" style="fill: #262626"/>
    </g>
    <g clip-path="url(#p9a979aec8f)">
     <use xlink:href="#C0_0_4399d08332" x="181.825536" y="185.549531" style="fill: #262626"/>
    </g>
    <g clip-path="url(#p9a979aec8f)">
     <use xlink:href="#C0_0_4399d08332" x="178.538155" y="182.504272" style="fill: #262626"/>
    </g>
    <g clip-path="url(#p9a979aec8f)">
     <use xlink:href="#C0_0_4399d08332" x="166.175646" y="92.681557" style="fill: #262626"/>
    </g>
    <g clip-path="url(#p9a979aec8f)">
     <use xlink:href="#C0_0_4399d08332" x="167.781891" y="90.66312" style="fill: #262626"/>
    </g>
    <g clip-path="url(#p9a979aec8f)">
     <use xlink:href="#C0_0_4399d08332" x="187.006934" y="212.005681" style="fill: #262626"/>
    </g>
    <g clip-path="url(#p9a979aec8f)">
     <use xlink:href="#C0_0_4399d08332" x="182.012896" y="157.504471" style="fill: #262626"/>
    </g>
    <g clip-path="url(#p9a979aec8f)">
     <use xlink:href="#C0_0_4399d08332" x="197.689676" y="155.9296" style="fill: #262626"/>
    </g>
    <g clip-path="url(#p9a979aec8f)">
     <use xlink:href="#C0_0_4399d08332" x="164.205344" y="176.782685" style="fill: #262626"/>
    </g>
    <g clip-path="url(#p9a979aec8f)">
     <use xlink:href="#C0_0_4399d08332" x="166.698152" y="148.095291" style="fill: #262626"/>
    </g>
    <g clip-path="url(#p9a979aec8f)">
     <use xlink:href="#C0_0_4399d08332" x="182.494508" y="179.620497" style="fill: #262626"/>
    </g>
    <g clip-path="url(#p9a979aec8f)">
     <use xlink:href="#C0_0_4399d08332" x="187.012609" y="114.527052" style="fill: #262626"/>
    </g>
    <g clip-path="url(#p9a979aec8f)">
     <use xlink:href="#C0_0_4399d08332" x="188.272844" y="161.013761" style="fill: #262626"/>
    </g>
    <g clip-path="url(#p9a979aec8f)">
     <use xlink:href="#C0_0_4399d08332" x="180.94215" y="114.221852" style="fill: #262626"/>
    </g>
    <g clip-path="url(#p9a979aec8f)">
     <use xlink:href="#C0_0_4399d08332" x="197.459787" y="156.486692" style="fill: #262626"/>
    </g>
    <g clip-path="url(#p9a979aec8f)">
     <use xlink:href="#C0_0_4399d08332" x="184.031017" y="212.215303" style="fill: #262626"/>
    </g>
    <g clip-path="url(#p9a979aec8f)">
     <use xlink:href="#C0_0_4399d08332" x="173.270772" y="154.517199" style="fill: #262626"/>
    </g>
    <g clip-path="url(#p9a979aec8f)">
     <use xlink:href="#C0_0_4399d08332" x="169.322828" y="153.100044" style="fill: #262626"/>
    </g>
    <g clip-path="url(#p9a979aec8f)">
     <use xlink:href="#C0_0_4399d08332" x="191.812463" y="155.685388" style="fill: #262626"/>
    </g>
    <g clip-path="url(#p9a979aec8f)">
     <use xlink:href="#C0_0_4399d08332" x="164.041788" y="134.95927" style="fill: #262626"/>
    </g>
    <g clip-path="url(#p9a979aec8f)">
     <use xlink:href="#C0_0_4399d08332" x="191.738529" y="185.647154" style="fill: #262626"/>
    </g>
    <g clip-path="url(#p9a979aec8f)">
     <use xlink:href="#C0_0_4399d08332" x="168.398214" y="196.368838" style="fill: #262626"/>
    </g>
    <g clip-path="url(#p9a979aec8f)">
     <use xlink:href="#C0_0_4399d08332" x="198.954555" y="137.45617" style="fill: #262626"/>
    </g>
    <g clip-path="url(#p9a979aec8f)">
     <use xlink:href="#C0_0_4399d08332" x="167.848435" y="198.316693" style="fill: #262626"/>
    </g>
    <g clip-path="url(#p9a979aec8f)">
     <use xlink:href="#C0_0_4399d08332" x="176.124655" y="116.682832" style="fill: #262626"/>
    </g>
    <g clip-path="url(#p9a979aec8f)">
     <use xlink:href="#C0_0_4399d08332" x="183.349419" y="169.177337" style="fill: #262626"/>
    </g>
    <g clip-path="url(#p9a979aec8f)">
     <use xlink:href="#C0_0_4399d08332" x="198.25658" y="236.150856" style="fill: #262626"/>
    </g>
    <g clip-path="url(#p9a979aec8f)">
     <use xlink:href="#C0_0_4399d08332" x="172.20376" y="158.231135" style="fill: #262626"/>
    </g>
    <g clip-path="url(#p9a979aec8f)">
     <use xlink:href="#C0_0_4399d08332" x="182.455" y="165.132621" style="fill: #262626"/>
    </g>
    <g clip-path="url(#p9a979aec8f)">
     <use xlink:href="#C0_0_4399d08332" x="186.69973" y="192.832969" style="fill: #262626"/>
    </g>
   </g>
   <g id="PathCollection_4">
    <defs>
     <path id="C1_0_a3f9f00aa7" d="M 0 1 
C 0.265203 1 0.51958 0.894634 0.707107 0.707107 
C 0.894634 0.51958 1 0.265203 1 -0 
C 1 -0.265203 0.894634 -0.51958 0.707107 -0.707107 
C 0.51958 -0.894634 0.265203 -1 0 -1 
C -0.265203 -1 -0.51958 -0.894634 -0.707107 -0.707107 
C -0.894634 -0.51958 -1 -0.265203 -1 0 
C -1 0.265203 -0.894634 0.51958 -0.707107 0.707107 
C -0.51958 0.894634 -0.265203 1 0 1 
z
"/>
    </defs>
    <g clip-path="url(#p9a979aec8f)">
     <use xlink:href="#C1_0_a3f9f00aa7" x="318.740686" y="154.108758"/>
    </g>
    <g clip-path="url(#p9a979aec8f)">
     <use xlink:href="#C1_0_a3f9f00aa7" x="318.609876" y="122.701474"/>
    </g>
    <g clip-path="url(#p9a979aec8f)">
     <use xlink:href="#C1_0_a3f9f00aa7" x="327.981034" y="119.214566"/>
    </g>
    <g clip-path="url(#p9a979aec8f)">
     <use xlink:href="#C1_0_a3f9f00aa7" x="326.558611" y="101.281317"/>
    </g>
    <g clip-path="url(#p9a979aec8f)">
     <use xlink:href="#C1_0_a3f9f00aa7" x="326.286348" y="100.965936"/>
    </g>
    <g clip-path="url(#p9a979aec8f)">
     <use xlink:href="#C1_0_a3f9f00aa7" x="336.647807" y="95.879385"/>
    </g>
    <g clip-path="url(#p9a979aec8f)">
     <use xlink:href="#C1_0_a3f9f00aa7" x="325.414506" y="112.548857"/>
    </g>
    <g clip-path="url(#p9a979aec8f)">
     <use xlink:href="#C1_0_a3f9f00aa7" x="336.015715" y="104.160722"/>
    </g>
    <g clip-path="url(#p9a979aec8f)">
     <use xlink:href="#C1_0_a3f9f00aa7" x="325.727942" y="67.375667"/>
    </g>
    <g clip-path="url(#p9a979aec8f)">
     <use xlink:href="#C1_0_a3f9f00aa7" x="351.619216" y="103.586139"/>
    </g>
    <g clip-path="url(#p9a979aec8f)">
     <use xlink:href="#C1_0_a3f9f00aa7" x="343.528676" y="161.060526"/>
    </g>
    <g clip-path="url(#p9a979aec8f)">
     <use xlink:href="#C1_0_a3f9f00aa7" x="344.227734" y="82.089482"/>
    </g>
    <g clip-path="url(#p9a979aec8f)">
     <use xlink:href="#C1_0_a3f9f00aa7" x="348.094231" y="95.541341"/>
    </g>
    <g clip-path="url(#p9a979aec8f)">
     <use xlink:href="#C1_0_a3f9f00aa7" x="333.493151" y="116.44169"/>
    </g>
    <g clip-path="url(#p9a979aec8f)">
     <use xlink:href="#C1_0_a3f9f00aa7" x="330.155629" y="102.610862"/>
    </g>
    <g clip-path="url(#p9a979aec8f)">
     <use xlink:href="#C1_0_a3f9f00aa7" x="321.65031" y="139.760626"/>
    </g>
    <g clip-path="url(#p9a979aec8f)">
     <use xlink:href="#C1_0_a3f9f00aa7" x="323.145659" y="173.987369"/>
    </g>
    <g clip-path="url(#p9a979aec8f)">
     <use xlink:href="#C1_0_a3f9f00aa7" x="338.229741" y="153.983345"/>
    </g>
    <g clip-path="url(#p9a979aec8f)">
     <use xlink:href="#C1_0_a3f9f00aa7" x="340.625502" y="143.348693"/>
    </g>
    <g clip-path="url(#p9a979aec8f)">
     <use xlink:href="#C1_0_a3f9f00aa7" x="320.048294" y="97.864383"/>
    </g>
    <g clip-path="url(#p9a979aec8f)">
     <use xlink:href="#C1_0_a3f9f00aa7" x="331.542078" y="127.731252"/>
    </g>
    <g clip-path="url(#p9a979aec8f)">
     <use xlink:href="#C1_0_a3f9f00aa7" x="322.842328" y="16.561286"/>
    </g>
    <g clip-path="url(#p9a979aec8f)">
     <use xlink:href="#C1_0_a3f9f00aa7" x="342.611601" y="140.748881"/>
    </g>
    <g clip-path="url(#p9a979aec8f)">
     <use xlink:href="#C1_0_a3f9f00aa7" x="341.332802" y="103.420206"/>
    </g>
    <g clip-path="url(#p9a979aec8f)">
     <use xlink:href="#C1_0_a3f9f00aa7" x="327.113922" y="62.428092"/>
    </g>
    <g clip-path="url(#p9a979aec8f)">
     <use xlink:href="#C1_0_a3f9f00aa7" x="329.871131" y="118.215042"/>
    </g>
    <g clip-path="url(#p9a979aec8f)">
     <use xlink:href="#C1_0_a3f9f00aa7" x="316.42207" y="128.951591"/>
    </g>
    <g clip-path="url(#p9a979aec8f)">
     <use xlink:href="#C1_0_a3f9f00aa7" x="348.372902" y="142.5724"/>
    </g>
    <g clip-path="url(#p9a979aec8f)">
     <use xlink:href="#C1_0_a3f9f00aa7" x="325.035427" y="147.521257"/>
    </g>
    <g clip-path="url(#p9a979aec8f)">
     <use xlink:href="#C1_0_a3f9f00aa7" x="352.758126" y="125.675017"/>
    </g>
    <g clip-path="url(#p9a979aec8f)">
     <use xlink:href="#C1_0_a3f9f00aa7" x="319.903831" y="136.526667"/>
    </g>
    <g clip-path="url(#p9a979aec8f)">
     <use xlink:href="#C1_0_a3f9f00aa7" x="351.030841" y="130.547128"/>
    </g>
    <g clip-path="url(#p9a979aec8f)">
     <use xlink:href="#C1_0_a3f9f00aa7" x="353.472329" y="89.501783"/>
    </g>
    <g clip-path="url(#p9a979aec8f)">
     <use xlink:href="#C1_0_a3f9f00aa7" x="316.791433" y="160.524767"/>
    </g>
    <g clip-path="url(#p9a979aec8f)">
     <use xlink:href="#C1_0_a3f9f00aa7" x="350.041168" y="106.249024"/>
    </g>
    <g clip-path="url(#p9a979aec8f)">
     <use xlink:href="#C1_0_a3f9f00aa7" x="317.217989" y="140.751944"/>
    </g>
    <g clip-path="url(#p9a979aec8f)">
     <use xlink:href="#C1_0_a3f9f00aa7" x="334.871722" y="113.750725"/>
    </g>
    <g clip-path="url(#p9a979aec8f)">
     <use xlink:href="#C1_0_a3f9f00aa7" x="328.433183" y="58.13175"/>
    </g>
    <g clip-path="url(#p9a979aec8f)">
     <use xlink:href="#C1_0_a3f9f00aa7" x="335.546378" y="121.941369"/>
    </g>
    <g clip-path="url(#p9a979aec8f)">
     <use xlink:href="#C1_0_a3f9f00aa7" x="328.299425" y="115.297225"/>
    </g>
    <g clip-path="url(#p9a979aec8f)">
     <use xlink:href="#C1_0_a3f9f00aa7" x="337.947371" y="141.695255"/>
    </g>
    <g clip-path="url(#p9a979aec8f)">
     <use xlink:href="#C1_0_a3f9f00aa7" x="336.277719" y="141.52662"/>
    </g>
    <g clip-path="url(#p9a979aec8f)">
     <use xlink:href="#C1_0_a3f9f00aa7" x="332.614632" y="139.129868"/>
    </g>
    <g clip-path="url(#p9a979aec8f)">
     <use xlink:href="#C1_0_a3f9f00aa7" x="338.997727" y="132.233099"/>
    </g>
    <g clip-path="url(#p9a979aec8f)">
     <use xlink:href="#C1_0_a3f9f00aa7" x="353.09225" y="88.749178"/>
    </g>
    <g clip-path="url(#p9a979aec8f)">
     <use xlink:href="#C1_0_a3f9f00aa7" x="324.077463" y="108.994072"/>
    </g>
    <g clip-path="url(#p9a979aec8f)">
     <use xlink:href="#C1_0_a3f9f00aa7" x="345.049418" y="110.246166"/>
    </g>
    <g clip-path="url(#p9a979aec8f)">
     <use xlink:href="#C1_0_a3f9f00aa7" x="327.508418" y="109.944875"/>
    </g>
    <g clip-path="url(#p9a979aec8f)">
     <use xlink:href="#C1_0_a3f9f00aa7" x="328.36533" y="89.481906"/>
    </g>
    <g clip-path="url(#p9a979aec8f)">
     <use xlink:href="#C1_0_a3f9f00aa7" x="319.616872" y="73.672537"/>
    </g>
    <g clip-path="url(#p9a979aec8f)">
     <use xlink:href="#C1_0_a3f9f00aa7" x="347.746564" y="114.268065"/>
    </g>
    <g clip-path="url(#p9a979aec8f)">
     <use xlink:href="#C1_0_a3f9f00aa7" x="331.56369" y="77.069185"/>
    </g>
    <g clip-path="url(#p9a979aec8f)">
     <use xlink:href="#C1_0_a3f9f00aa7" x="340.947144" y="90.804021"/>
    </g>
    <g clip-path="url(#p9a979aec8f)">
     <use xlink:href="#C1_0_a3f9f00aa7" x="329.038545" y="119.552188"/>
    </g>
    <g clip-path="url(#p9a979aec8f)">
     <use xlink:href="#C1_0_a3f9f00aa7" x="335.976128" y="87.645507"/>
    </g>
    <g clip-path="url(#p9a979aec8f)">
     <use xlink:href="#C1_0_a3f9f00aa7" x="333.002647" y="101.88098"/>
    </g>
    <g clip-path="url(#p9a979aec8f)">
     <use xlink:href="#C1_0_a3f9f00aa7" x="318.774769" y="115.97977"/>
    </g>
    <g clip-path="url(#p9a979aec8f)">
     <use xlink:href="#C1_0_a3f9f00aa7" x="333.238525" y="31.767573"/>
    </g>
    <g clip-path="url(#p9a979aec8f)">
     <use xlink:href="#C1_0_a3f9f00aa7" x="324.783899" y="109.53677"/>
    </g>
    <g clip-path="url(#p9a979aec8f)">
     <use xlink:href="#C1_0_a3f9f00aa7" x="328.557608" y="147.585591"/>
    </g>
    <g clip-path="url(#p9a979aec8f)">
     <use xlink:href="#C1_0_a3f9f00aa7" x="316.834817" y="113.009198"/>
    </g>
    <g clip-path="url(#p9a979aec8f)">
     <use xlink:href="#C1_0_a3f9f00aa7" x="341.55801" y="83.750142"/>
    </g>
    <g clip-path="url(#p9a979aec8f)">
     <use xlink:href="#C1_0_a3f9f00aa7" x="334.154662" y="131.347497"/>
    </g>
    <g clip-path="url(#p9a979aec8f)">
     <use xlink:href="#C1_0_a3f9f00aa7" x="323.418855" y="118.890187"/>
    </g>
    <g clip-path="url(#p9a979aec8f)">
     <use xlink:href="#C1_0_a3f9f00aa7" x="350.393174" y="102.710542"/>
    </g>
    <g clip-path="url(#p9a979aec8f)">
     <use xlink:href="#C1_0_a3f9f00aa7" x="329.741872" y="113.610268"/>
    </g>
    <g clip-path="url(#p9a979aec8f)">
     <use xlink:href="#C1_0_a3f9f00aa7" x="317.918166" y="159.9158"/>
    </g>
    <g clip-path="url(#p9a979aec8f)">
     <use xlink:href="#C1_0_a3f9f00aa7" x="331.643282" y="136.9173"/>
    </g>
    <g clip-path="url(#p9a979aec8f)">
     <use xlink:href="#C1_0_a3f9f00aa7" x="316.664787" y="105.702695"/>
    </g>
    <g clip-path="url(#p9a979aec8f)">
     <use xlink:href="#C1_0_a3f9f00aa7" x="328.98403" y="116.260064"/>
    </g>
    <g clip-path="url(#p9a979aec8f)">
     <use xlink:href="#C1_0_a3f9f00aa7" x="343.875984" y="108.44128"/>
    </g>
    <g clip-path="url(#p9a979aec8f)">
     <use xlink:href="#C1_0_a3f9f00aa7" x="341.837926" y="26.092808"/>
    </g>
    <g clip-path="url(#p9a979aec8f)">
     <use xlink:href="#C1_0_a3f9f00aa7" x="320.28412" y="76.315993"/>
    </g>
    <g clip-path="url(#p9a979aec8f)">
     <use xlink:href="#C1_0_a3f9f00aa7" x="323.935223" y="103.824103"/>
    </g>
    <g clip-path="url(#p9a979aec8f)">
     <use xlink:href="#C1_0_a3f9f00aa7" x="333.430204" y="121.175114"/>
    </g>
   </g>
   <g id="text_9">
    <!-- 97 -->
    <g style="fill: #262626" transform="translate(200.0425 150.582638)scale(0.1 -0.1)">
     <defs>
      <path id="DejaVuSans-39" d="M 703 97 
L 703 672 
Q 941 559 1184 500 
Q 1428 441 1663 441 
Q 2288 441 2617 861 
Q 2947 1281 2994 2138 
Q 2813 1869 2534 1725 
Q 2256 1581 1919 1581 
Q 1219 1581 811 2004 
Q 403 2428 403 3163 
Q 403 3881 828 4315 
Q 1253 4750 1959 4750 
Q 2769 4750 3195 4129 
Q 3622 3509 3622 2328 
Q 3622 1225 3098 567 
Q 2575 -91 1691 -91 
Q 1453 -91 1209 -44 
Q 966 3 703 97 
z
M 1959 2075 
Q 2384 2075 2632 2365 
Q 2881 2656 2881 3163 
Q 2881 3666 2632 3958 
Q 2384 4250 1959 4250 
Q 1534 4250 1286 3958 
Q 1038 3666 1038 3163 
Q 1038 2656 1286 2365 
Q 1534 2075 1959 2075 
z
" transform="scale(0.015625)"/>
      <path id="DejaVuSans-37" d="M 525 4666 
L 3525 4666 
L 3525 4397 
L 1831 0 
L 1172 0 
L 2766 4134 
L 525 4134 
L 525 4666 
z
" transform="scale(0.015625)"/>
     </defs>
     <use xlink:href="#DejaVuSans-39"/>
     <use xlink:href="#DejaVuSans-37" x="63.623047"/>
    </g>
   </g>
   <g id="text_10">
    <!-- p=nan -->
    <g style="fill: #262626" transform="translate(186.63 85.354935)scale(0.08 -0.08)">
     <defs>
      <path id="DejaVuSans-3d" d="M 678 2906 
L 4684 2906 
L 4684 2381 
L 678 2381 
L 678 2906 
z
M 678 1631 
L 4684 1631 
L 4684 1100 
L 678 1100 
L 678 1631 
z
" transform="scale(0.015625)"/>
     </defs>
     <use xlink:href="#DejaVuSans-70"/>
     <use xlink:href="#DejaVuSans-3d" x="63.476562"/>
     <use xlink:href="#DejaVuSans-6e" x="147.265625"/>
     <use xlink:href="#DejaVuSans-61" x="210.644531"/>
     <use xlink:href="#DejaVuSans-6e" x="271.923828"/>
    </g>
   </g>
   <g id="text_11">
    <!-- 75 -->
    <g style="fill: #262626" transform="translate(315.4075 150.582638)scale(0.1 -0.1)">
     <defs>
      <path id="DejaVuSans-35" d="M 691 4666 
L 3169 4666 
L 3169 4134 
L 1269 4134 
L 1269 2991 
Q 1406 3038 1543 3061 
Q 1681 3084 1819 3084 
Q 2600 3084 3056 2656 
Q 3513 2228 3513 1497 
Q 3513 744 3044 326 
Q 2575 -91 1722 -91 
Q 1428 -91 1123 -41 
Q 819 9 494 109 
L 494 744 
Q 775 591 1075 516 
Q 1375 441 1709 441 
Q 2250 441 2565 725 
Q 2881 1009 2881 1497 
Q 2881 1984 2565 2268 
Q 2250 2553 1709 2553 
Q 1456 2553 1204 2497 
Q 953 2441 691 2322 
L 691 4666 
z
" transform="scale(0.015625)"/>
     </defs>
     <use xlink:href="#DejaVuSans-37"/>
     <use xlink:href="#DejaVuSans-35" x="63.623047"/>
    </g>
   </g>
   <g id="text_12">
    <!-- p=nan -->
    <g style="fill: #262626" transform="translate(301.995 16.56)scale(0.08 -0.08)">
     <use xlink:href="#DejaVuSans-70"/>
     <use xlink:href="#DejaVuSans-3d" x="63.476562"/>
     <use xlink:href="#DejaVuSans-6e" x="147.265625"/>
     <use xlink:href="#DejaVuSans-61" x="210.644531"/>
     <use xlink:href="#DejaVuSans-6e" x="271.923828"/>
    </g>
   </g>
   <g id="legend_1">
    <g id="patch_11">
     <path d="M 387.048437 33.159723 
L 407.048437 33.159723 
L 407.048437 26.159723 
L 387.048437 26.159723 
z
" style="fill: #ecf2ec; stroke: #262626; stroke-width: 0.75; stroke-linejoin: miter"/>
    </g>
    <g id="text_13">
     <!-- void -->
     <g style="fill: #262626" transform="translate(415.048437 33.159723)scale(0.1 -0.1)">
      <defs>
       <path id="DejaVuSans-76" d="M 191 3500 
L 800 3500 
L 1894 563 
L 2988 3500 
L 3597 3500 
L 2284 0 
L 1503 0 
L 191 3500 
z
" transform="scale(0.015625)"/>
       <path id="DejaVuSans-69" d="M 603 3500 
L 1178 3500 
L 1178 0 
L 603 0 
L 603 3500 
z
M 603 4863 
L 1178 4863 
L 1178 4134 
L 603 4134 
L 603 4863 
z
" transform="scale(0.015625)"/>
       <path id="DejaVuSans-64" d="M 2906 2969 
L 2906 4863 
L 3481 4863 
L 3481 0 
L 2906 0 
L 2906 525 
Q 2725 213 2448 61 
Q 2172 -91 1784 -91 
Q 1150 -91 751 415 
Q 353 922 353 1747 
Q 353 2572 751 3078 
Q 1150 3584 1784 3584 
Q 2172 3584 2448 3432 
Q 2725 3281 2906 2969 
z
M 947 1747 
Q 947 1113 1208 752 
Q 1469 391 1925 391 
Q 2381 391 2643 752 
Q 2906 1113 2906 1747 
Q 2906 2381 2643 2742 
Q 2381 3103 1925 3103 
Q 1469 3103 1208 2742 
Q 947 2381 947 1747 
z
" transform="scale(0.015625)"/>
      </defs>
      <use xlink:href="#DejaVuSans-76"/>
      <use xlink:href="#DejaVuSans-6f" x="59.179688"/>
      <use xlink:href="#DejaVuSans-69" x="120.361328"/>
      <use xlink:href="#DejaVuSans-64" x="148.144531"/>
     </g>
    </g>
    <g id="patch_12">
     <path d="M 387.048437 47.837848 
L 407.048437 47.837848 
L 407.048437 40.837848 
L 387.048437 40.837848 
z
" style="fill: #107010; stroke: #262626; stroke-width: 0.75; stroke-linejoin: miter"/>
    </g>
    <g id="text_14">
     <!-- clash -->
     <g style="fill: #262626" transform="translate(415.048437 47.837848)scale(0.1 -0.1)">
      <defs>
       <path id="DejaVuSans-68" d="M 3513 2113 
L 3513 0 
L 2938 0 
L 2938 2094 
Q 2938 2591 2744 2837 
Q 2550 3084 2163 3084 
Q 1697 3084 1428 2787 
Q 1159 2491 1159 1978 
L 1159 0 
L 581 0 
L 581 4863 
L 1159 4863 
L 1159 2956 
Q 1366 3272 1645 3428 
Q 1925 3584 2291 3584 
Q 2894 3584 3203 3211 
Q 3513 2838 3513 2113 
z
" transform="scale(0.015625)"/>
      </defs>
      <use xlink:href="#DejaVuSans-63"/>
      <use xlink:href="#DejaVuSans-6c" x="54.980469"/>
      <use xlink:href="#DejaVuSans-61" x="82.763672"/>
      <use xlink:href="#DejaVuSans-73" x="144.042969"/>
      <use xlink:href="#DejaVuSans-68" x="196.142578"/>
     </g>
    </g>
   </g>
  </g>
 </g>
 <defs>
  <clipPath id="p9a979aec8f">
   <rect x="65.45" y="16.561286" width="384.55" height="287.078714"/>
  </clipPath>
 </defs>
</svg>
