<?xml version="1.0" encoding="utf-8" standalone="no"?>
<!DOCTYPE svg PUBLIC "-//W3C//DTD SVG 1.1//EN"
  "http://www.w3.org/Graphics/SVG/1.1/DTD/svg11.dtd">
<svg xmlns:xlink="http://www.w3.org/1999/xlink" width="460.8pt" height="345.6pt" viewBox="0 0 460.8 345.6" xmlns="http://www.w3.org/2000/svg" version="1.1">
 <metadata>
  <rdf:RDF xmlns:dc="http://purl.org/dc/elements/1.1/" xmlns:cc="http://creativecommons.org/ns#" xmlns:rdf="http://www.w3.org/1999/02/22-rdf-syntax-ns#">
   <cc:Work>
    <dc:type rdf:resource="http://purl.org/dc/dcmitype/StillImage"/>
    <dc:date>2024-02-03T13:11:05.387177</dc:date>
    <dc:format>image/svg+xml</dc:format>
    <dc:creator>
     <cc:Agent>
      <dc:title>Matplotlib v3.5.3, https://matplotlib.org/</dc:title>
     </cc:Agent>
    </dc:creator>
   </cc:Work>
  </rdf:RDF>
 </metadata>
 <defs>
  <style type="text/css">*{stroke-linejoin: round; stroke-linecap: butt}</style>
 </defs>
 <g id="figure_1">
  <g id="patch_1">
   <path d="M 0 345.6 
L 460.8 345.6 
L 460.8 0 
L 0 0 
z
" style="fill: #ffffff"/>
  </g>
  <g id="axes_1">
   <g id="patch_2">
    <path d="M 47.82125 303.64 
L 450 303.64 
L 450 46.675714 
L 47.82125 46.675714 
z
" style="fill: #ffffff"/>
   </g>
   <g id="PathCollection_1">
    <defs>
     <path id="m40620e1f27" d="M 0 3 
C 0.795609 3 1.55874 2.683901 2.12132 2.12132 
C 2.683901 1.55874 3 0.795609 3 0 
C 3 -0.795609 2.683901 -1.55874 2.12132 -2.12132 
C 1.55874 -2.683901 0.795609 -3 0 -3 
C -0.795609 -3 -1.55874 -2.683901 -2.12132 -2.12132 
C -2.683901 -1.55874 -3 -0.795609 -3 0 
C -3 0.795609 -2.683901 1.55874 -2.12132 2.12132 
C -1.55874 2.683901 -0.795609 3 0 3 
z
" style="stroke: #1f77b4"/>
    </defs>
    <g clip-path="url(#pbdeba3f461)">
     <use xlink:href="#m40620e1f27" x="188.698208" y="201.588764" style="fill: #1f77b4; stroke: #1f77b4"/>
     <use xlink:href="#m40620e1f27" x="73.593887" y="186.482863" style="fill: #1f77b4; stroke: #1f77b4"/>
     <use xlink:href="#m40620e1f27" x="162.077698" y="170.480802" style="fill: #1f77b4; stroke: #1f77b4"/>
     <use xlink:href="#m40620e1f27" x="258.026378" y="208.222473" style="fill: #1f77b4; stroke: #1f77b4"/>
     <use xlink:href="#m40620e1f27" x="222.640031" y="207.606066" style="fill: #1f77b4; stroke: #1f77b4"/>
     <use xlink:href="#m40620e1f27" x="107.311405" y="194.889019" style="fill: #1f77b4; stroke: #1f77b4"/>
     <use xlink:href="#m40620e1f27" x="183.530222" y="199.404871" style="fill: #1f77b4; stroke: #1f77b4"/>
     <use xlink:href="#m40620e1f27" x="131.240256" y="184.718838" style="fill: #1f77b4; stroke: #1f77b4"/>
     <use xlink:href="#m40620e1f27" x="66.102102" y="213.003319" style="fill: #1f77b4; stroke: #1f77b4"/>
     <use xlink:href="#m40620e1f27" x="160.130731" y="235.202926" style="fill: #1f77b4; stroke: #1f77b4"/>
     <use xlink:href="#m40620e1f27" x="188.061182" y="146.677436" style="fill: #1f77b4; stroke: #1f77b4"/>
     <use xlink:href="#m40620e1f27" x="307.517019" y="208.171671" style="fill: #1f77b4; stroke: #1f77b4"/>
     <use xlink:href="#m40620e1f27" x="206.678492" y="229.62249" style="fill: #1f77b4; stroke: #1f77b4"/>
     <use xlink:href="#m40620e1f27" x="386.795355" y="240.366175" style="fill: #1f77b4; stroke: #1f77b4"/>
     <use xlink:href="#m40620e1f27" x="68.62329" y="247.32034" style="fill: #1f77b4; stroke: #1f77b4"/>
     <use xlink:href="#m40620e1f27" x="219.212651" y="219.67938" style="fill: #1f77b4; stroke: #1f77b4"/>
     <use xlink:href="#m40620e1f27" x="175.473189" y="240.767906" style="fill: #1f77b4; stroke: #1f77b4"/>
     <use xlink:href="#m40620e1f27" x="141.369867" y="185.677223" style="fill: #1f77b4; stroke: #1f77b4"/>
     <use xlink:href="#m40620e1f27" x="407.574964" y="229.953435" style="fill: #1f77b4; stroke: #1f77b4"/>
     <use xlink:href="#m40620e1f27" x="252.329032" y="253.64591" style="fill: #1f77b4; stroke: #1f77b4"/>
     <use xlink:href="#m40620e1f27" x="161.153562" y="189.427733" style="fill: #1f77b4; stroke: #1f77b4"/>
     <use xlink:href="#m40620e1f27" x="132.451502" y="230.267199" style="fill: #1f77b4; stroke: #1f77b4"/>
     <use xlink:href="#m40620e1f27" x="255.693606" y="235.992547" style="fill: #1f77b4; stroke: #1f77b4"/>
     <use xlink:href="#m40620e1f27" x="182.902168" y="226.841337" style="fill: #1f77b4; stroke: #1f77b4"/>
     <use xlink:href="#m40620e1f27" x="77.093044" y="235.719558" style="fill: #1f77b4; stroke: #1f77b4"/>
     <use xlink:href="#m40620e1f27" x="120.15062" y="224.802575" style="fill: #1f77b4; stroke: #1f77b4"/>
     <use xlink:href="#m40620e1f27" x="216.79913" y="186.565695" style="fill: #1f77b4; stroke: #1f77b4"/>
     <use xlink:href="#m40620e1f27" x="314.048778" y="197.646153" style="fill: #1f77b4; stroke: #1f77b4"/>
     <use xlink:href="#m40620e1f27" x="358.658544" y="196.246964" style="fill: #1f77b4; stroke: #1f77b4"/>
     <use xlink:href="#m40620e1f27" x="188.70718" y="186.881787" style="fill: #1f77b4; stroke: #1f77b4"/>
     <use xlink:href="#m40620e1f27" x="290.326288" y="220.470977" style="fill: #1f77b4; stroke: #1f77b4"/>
     <use xlink:href="#m40620e1f27" x="162.858279" y="120.728139" style="fill: #1f77b4; stroke: #1f77b4"/>
     <use xlink:href="#m40620e1f27" x="206.238854" y="234.402405" style="fill: #1f77b4; stroke: #1f77b4"/>
     <use xlink:href="#m40620e1f27" x="161.458617" y="223.871594" style="fill: #1f77b4; stroke: #1f77b4"/>
     <use xlink:href="#m40620e1f27" x="187.244712" y="229.412484" style="fill: #1f77b4; stroke: #1f77b4"/>
     <use xlink:href="#m40620e1f27" x="369.487986" y="224.703998" style="fill: #1f77b4; stroke: #1f77b4"/>
     <use xlink:href="#m40620e1f27" x="290.272455" y="193.296914" style="fill: #1f77b4; stroke: #1f77b4"/>
     <use xlink:href="#m40620e1f27" x="217.202879" y="181.447284" style="fill: #1f77b4; stroke: #1f77b4"/>
     <use xlink:href="#m40620e1f27" x="274.85822" y="252.421682" style="fill: #1f77b4; stroke: #1f77b4"/>
     <use xlink:href="#m40620e1f27" x="280.995203" y="240.502365" style="fill: #1f77b4; stroke: #1f77b4"/>
     <use xlink:href="#m40620e1f27" x="431.719148" y="219.712316" style="fill: #1f77b4; stroke: #1f77b4"/>
     <use xlink:href="#m40620e1f27" x="276.751354" y="245.149562" style="fill: #1f77b4; stroke: #1f77b4"/>
     <use xlink:href="#m40620e1f27" x="288.567738" y="250.804714" style="fill: #1f77b4; stroke: #1f77b4"/>
     <use xlink:href="#m40620e1f27" x="214.295887" y="214.590307" style="fill: #1f77b4; stroke: #1f77b4"/>
     <use xlink:href="#m40620e1f27" x="247.914711" y="252.823295" style="fill: #1f77b4; stroke: #1f77b4"/>
     <use xlink:href="#m40620e1f27" x="353.777669" y="237.801095" style="fill: #1f77b4; stroke: #1f77b4"/>
     <use xlink:href="#m40620e1f27" x="186.356464" y="203.242021" style="fill: #1f77b4; stroke: #1f77b4"/>
     <use xlink:href="#m40620e1f27" x="212.259198" y="186.760231" style="fill: #1f77b4; stroke: #1f77b4"/>
     <use xlink:href="#m40620e1f27" x="188.312404" y="201.91261" style="fill: #1f77b4; stroke: #1f77b4"/>
     <use xlink:href="#m40620e1f27" x="240.934341" y="245.863921" style="fill: #1f77b4; stroke: #1f77b4"/>
     <use xlink:href="#m40620e1f27" x="315.547135" y="228.465334" style="fill: #1f77b4; stroke: #1f77b4"/>
     <use xlink:href="#m40620e1f27" x="152.728669" y="239.098482" style="fill: #1f77b4; stroke: #1f77b4"/>
     <use xlink:href="#m40620e1f27" x="274.113528" y="213.056166" style="fill: #1f77b4; stroke: #1f77b4"/>
     <use xlink:href="#m40620e1f27" x="228.041294" y="208.484711" style="fill: #1f77b4; stroke: #1f77b4"/>
     <use xlink:href="#m40620e1f27" x="116.992406" y="224.549704" style="fill: #1f77b4; stroke: #1f77b4"/>
     <use xlink:href="#m40620e1f27" x="171.498506" y="252.353542" style="fill: #1f77b4; stroke: #1f77b4"/>
     <use xlink:href="#m40620e1f27" x="240.189649" y="232.089781" style="fill: #1f77b4; stroke: #1f77b4"/>
     <use xlink:href="#m40620e1f27" x="281.937284" y="230.895448" style="fill: #1f77b4; stroke: #1f77b4"/>
    </g>
   </g>
   <g id="matplotlib.axis_1">
    <g id="xtick_1">
     <g id="line2d_1">
      <defs>
       <path id="mb0a0e9a8d9" d="M 0 0 
L 0 3.5 
" style="stroke: #000000; stroke-width: 0.8"/>
      </defs>
      <g>
       <use xlink:href="#mb0a0e9a8d9" x="50.589173" y="303.64" style="stroke: #000000; stroke-width: 0.8"/>
      </g>
     </g>
     <g id="text_1">
      <!-- −800 -->
      <g transform="translate(36.855579 318.238437)scale(0.1 -0.1)">
       <defs>
        <path id="DejaVuSans-2212" d="M 678 2272 
L 4684 2272 
L 4684 1741 
L 678 1741 
L 678 2272 
z
" transform="scale(0.015625)"/>
        <path id="DejaVuSans-38" d="M 2034 2216 
Q 1584 2216 1326 1975 
Q 1069 1734 1069 1313 
Q 1069 891 1326 650 
Q 1584 409 2034 409 
Q 2484 409 2743 651 
Q 3003 894 3003 1313 
Q 3003 1734 2745 1975 
Q 2488 2216 2034 2216 
z
M 1403 2484 
Q 997 2584 770 2862 
Q 544 3141 544 3541 
Q 544 4100 942 4425 
Q 1341 4750 2034 4750 
Q 2731 4750 3128 4425 
Q 3525 4100 3525 3541 
Q 3525 3141 3298 2862 
Q 3072 2584 2669 2484 
Q 3125 2378 3379 2068 
Q 3634 1759 3634 1313 
Q 3634 634 3220 271 
Q 2806 -91 2034 -91 
Q 1263 -91 848 271 
Q 434 634 434 1313 
Q 434 1759 690 2068 
Q 947 2378 1403 2484 
z
M 1172 3481 
Q 1172 3119 1398 2916 
Q 1625 2713 2034 2713 
Q 2441 2713 2670 2916 
Q 2900 3119 2900 3481 
Q 2900 3844 2670 4047 
Q 2441 4250 2034 4250 
Q 1625 4250 1398 4047 
Q 1172 3844 1172 3481 
z
" transform="scale(0.015625)"/>
        <path id="DejaVuSans-30" d="M 2034 4250 
Q 1547 4250 1301 3770 
Q 1056 3291 1056 2328 
Q 1056 1369 1301 889 
Q 1547 409 2034 409 
Q 2525 409 2770 889 
Q 3016 1369 3016 2328 
Q 3016 3291 2770 3770 
Q 2525 4250 2034 4250 
z
M 2034 4750 
Q 2819 4750 3233 4129 
Q 3647 3509 3647 2328 
Q 3647 1150 3233 529 
Q 2819 -91 2034 -91 
Q 1250 -91 836 529 
Q 422 1150 422 2328 
Q 422 3509 836 4129 
Q 1250 4750 2034 4750 
z
" transform="scale(0.015625)"/>
       </defs>
       <use xlink:href="#DejaVuSans-2212"/>
       <use xlink:href="#DejaVuSans-38" x="83.789062"/>
       <use xlink:href="#DejaVuSans-30" x="147.412109"/>
       <use xlink:href="#DejaVuSans-30" x="211.035156"/>
      </g>
     </g>
    </g>
    <g id="xtick_2">
     <g id="line2d_2">
      <g>
       <use xlink:href="#mb0a0e9a8d9" x="95.45016" y="303.64" style="stroke: #000000; stroke-width: 0.8"/>
      </g>
     </g>
     <g id="text_2">
      <!-- −750 -->
      <g transform="translate(81.716566 318.238437)scale(0.1 -0.1)">
       <defs>
        <path id="DejaVuSans-37" d="M 525 4666 
L 3525 4666 
L 3525 4397 
L 1831 0 
L 1172 0 
L 2766 4134 
L 525 4134 
L 525 4666 
z
" transform="scale(0.015625)"/>
        <path id="DejaVuSans-35" d="M 691 4666 
L 3169 4666 
L 3169 4134 
L 1269 4134 
L 1269 2991 
Q 1406 3038 1543 3061 
Q 1681 3084 1819 3084 
Q 2600 3084 3056 2656 
Q 3513 2228 3513 1497 
Q 3513 744 3044 326 
Q 2575 -91 1722 -91 
Q 1428 -91 1123 -41 
Q 819 9 494 109 
L 494 744 
Q 775 591 1075 516 
Q 1375 441 1709 441 
Q 2250 441 2565 725 
Q 2881 1009 2881 1497 
Q 2881 1984 2565 2268 
Q 2250 2553 1709 2553 
Q 1456 2553 1204 2497 
Q 953 2441 691 2322 
L 691 4666 
z
" transform="scale(0.015625)"/>
       </defs>
       <use xlink:href="#DejaVuSans-2212"/>
       <use xlink:href="#DejaVuSans-37" x="83.789062"/>
       <use xlink:href="#DejaVuSans-35" x="147.412109"/>
       <use xlink:href="#DejaVuSans-30" x="211.035156"/>
      </g>
     </g>
    </g>
    <g id="xtick_3">
     <g id="line2d_3">
      <g>
       <use xlink:href="#mb0a0e9a8d9" x="140.311147" y="303.64" style="stroke: #000000; stroke-width: 0.8"/>
      </g>
     </g>
     <g id="text_3">
      <!-- −700 -->
      <g transform="translate(126.577554 318.238437)scale(0.1 -0.1)">
       <use xlink:href="#DejaVuSans-2212"/>
       <use xlink:href="#DejaVuSans-37" x="83.789062"/>
       <use xlink:href="#DejaVuSans-30" x="147.412109"/>
       <use xlink:href="#DejaVuSans-30" x="211.035156"/>
      </g>
     </g>
    </g>
    <g id="xtick_4">
     <g id="line2d_4">
      <g>
       <use xlink:href="#mb0a0e9a8d9" x="185.172134" y="303.64" style="stroke: #000000; stroke-width: 0.8"/>
      </g>
     </g>
     <g id="text_4">
      <!-- −650 -->
      <g transform="translate(171.438541 318.238437)scale(0.1 -0.1)">
       <defs>
        <path id="DejaVuSans-36" d="M 2113 2584 
Q 1688 2584 1439 2293 
Q 1191 2003 1191 1497 
Q 1191 994 1439 701 
Q 1688 409 2113 409 
Q 2538 409 2786 701 
Q 3034 994 3034 1497 
Q 3034 2003 2786 2293 
Q 2538 2584 2113 2584 
z
M 3366 4563 
L 3366 3988 
Q 3128 4100 2886 4159 
Q 2644 4219 2406 4219 
Q 1781 4219 1451 3797 
Q 1122 3375 1075 2522 
Q 1259 2794 1537 2939 
Q 1816 3084 2150 3084 
Q 2853 3084 3261 2657 
Q 3669 2231 3669 1497 
Q 3669 778 3244 343 
Q 2819 -91 2113 -91 
Q 1303 -91 875 529 
Q 447 1150 447 2328 
Q 447 3434 972 4092 
Q 1497 4750 2381 4750 
Q 2619 4750 2861 4703 
Q 3103 4656 3366 4563 
z
" transform="scale(0.015625)"/>
       </defs>
       <use xlink:href="#DejaVuSans-2212"/>
       <use xlink:href="#DejaVuSans-36" x="83.789062"/>
       <use xlink:href="#DejaVuSans-35" x="147.412109"/>
       <use xlink:href="#DejaVuSans-30" x="211.035156"/>
      </g>
     </g>
    </g>
    <g id="xtick_5">
     <g id="line2d_5">
      <g>
       <use xlink:href="#mb0a0e9a8d9" x="230.033122" y="303.64" style="stroke: #000000; stroke-width: 0.8"/>
      </g>
     </g>
     <g id="text_5">
      <!-- −600 -->
      <g transform="translate(216.299528 318.238437)scale(0.1 -0.1)">
       <use xlink:href="#DejaVuSans-2212"/>
       <use xlink:href="#DejaVuSans-36" x="83.789062"/>
       <use xlink:href="#DejaVuSans-30" x="147.412109"/>
       <use xlink:href="#DejaVuSans-30" x="211.035156"/>
      </g>
     </g>
    </g>
    <g id="xtick_6">
     <g id="line2d_6">
      <g>
       <use xlink:href="#mb0a0e9a8d9" x="274.894109" y="303.64" style="stroke: #000000; stroke-width: 0.8"/>
      </g>
     </g>
     <g id="text_6">
      <!-- −550 -->
      <g transform="translate(261.160515 318.238437)scale(0.1 -0.1)">
       <use xlink:href="#DejaVuSans-2212"/>
       <use xlink:href="#DejaVuSans-35" x="83.789062"/>
       <use xlink:href="#DejaVuSans-35" x="147.412109"/>
       <use xlink:href="#DejaVuSans-30" x="211.035156"/>
      </g>
     </g>
    </g>
    <g id="xtick_7">
     <g id="line2d_7">
      <g>
       <use xlink:href="#mb0a0e9a8d9" x="319.755096" y="303.64" style="stroke: #000000; stroke-width: 0.8"/>
      </g>
     </g>
     <g id="text_7">
      <!-- −500 -->
      <g transform="translate(306.021502 318.238437)scale(0.1 -0.1)">
       <use xlink:href="#DejaVuSans-2212"/>
       <use xlink:href="#DejaVuSans-35" x="83.789062"/>
       <use xlink:href="#DejaVuSans-30" x="147.412109"/>
       <use xlink:href="#DejaVuSans-30" x="211.035156"/>
      </g>
     </g>
    </g>
    <g id="xtick_8">
     <g id="line2d_8">
      <g>
       <use xlink:href="#mb0a0e9a8d9" x="364.616083" y="303.64" style="stroke: #000000; stroke-width: 0.8"/>
      </g>
     </g>
     <g id="text_8">
      <!-- −450 -->
      <g transform="translate(350.882489 318.238437)scale(0.1 -0.1)">
       <defs>
        <path id="DejaVuSans-34" d="M 2419 4116 
L 825 1625 
L 2419 1625 
L 2419 4116 
z
M 2253 4666 
L 3047 4666 
L 3047 1625 
L 3713 1625 
L 3713 1100 
L 3047 1100 
L 3047 0 
L 2419 0 
L 2419 1100 
L 313 1100 
L 313 1709 
L 2253 4666 
z
" transform="scale(0.015625)"/>
       </defs>
       <use xlink:href="#DejaVuSans-2212"/>
       <use xlink:href="#DejaVuSans-34" x="83.789062"/>
       <use xlink:href="#DejaVuSans-35" x="147.412109"/>
       <use xlink:href="#DejaVuSans-30" x="211.035156"/>
      </g>
     </g>
    </g>
    <g id="xtick_9">
     <g id="line2d_9">
      <g>
       <use xlink:href="#mb0a0e9a8d9" x="409.47707" y="303.64" style="stroke: #000000; stroke-width: 0.8"/>
      </g>
     </g>
     <g id="text_9">
      <!-- −400 -->
      <g transform="translate(395.743477 318.238437)scale(0.1 -0.1)">
       <use xlink:href="#DejaVuSans-2212"/>
       <use xlink:href="#DejaVuSans-34" x="83.789062"/>
       <use xlink:href="#DejaVuSans-30" x="147.412109"/>
       <use xlink:href="#DejaVuSans-30" x="211.035156"/>
      </g>
     </g>
    </g>
    <g id="text_10">
     <!-- SasaDiff -->
     <g transform="translate(228.244219 331.916562)scale(0.1 -0.1)">
      <defs>
       <path id="DejaVuSans-53" d="M 3425 4513 
L 3425 3897 
Q 3066 4069 2747 4153 
Q 2428 4238 2131 4238 
Q 1616 4238 1336 4038 
Q 1056 3838 1056 3469 
Q 1056 3159 1242 3001 
Q 1428 2844 1947 2747 
L 2328 2669 
Q 3034 2534 3370 2195 
Q 3706 1856 3706 1288 
Q 3706 609 3251 259 
Q 2797 -91 1919 -91 
Q 1588 -91 1214 -16 
Q 841 59 441 206 
L 441 856 
Q 825 641 1194 531 
Q 1563 422 1919 422 
Q 2459 422 2753 634 
Q 3047 847 3047 1241 
Q 3047 1584 2836 1778 
Q 2625 1972 2144 2069 
L 1759 2144 
Q 1053 2284 737 2584 
Q 422 2884 422 3419 
Q 422 4038 858 4394 
Q 1294 4750 2059 4750 
Q 2388 4750 2728 4690 
Q 3069 4631 3425 4513 
z
" transform="scale(0.015625)"/>
       <path id="DejaVuSans-61" d="M 2194 1759 
Q 1497 1759 1228 1600 
Q 959 1441 959 1056 
Q 959 750 1161 570 
Q 1363 391 1709 391 
Q 2188 391 2477 730 
Q 2766 1069 2766 1631 
L 2766 1759 
L 2194 1759 
z
M 3341 1997 
L 3341 0 
L 2766 0 
L 2766 531 
Q 2569 213 2275 61 
Q 1981 -91 1556 -91 
Q 1019 -91 701 211 
Q 384 513 384 1019 
Q 384 1609 779 1909 
Q 1175 2209 1959 2209 
L 2766 2209 
L 2766 2266 
Q 2766 2663 2505 2880 
Q 2244 3097 1772 3097 
Q 1472 3097 1187 3025 
Q 903 2953 641 2809 
L 641 3341 
Q 956 3463 1253 3523 
Q 1550 3584 1831 3584 
Q 2591 3584 2966 3190 
Q 3341 2797 3341 1997 
z
" transform="scale(0.015625)"/>
       <path id="DejaVuSans-73" d="M 2834 3397 
L 2834 2853 
Q 2591 2978 2328 3040 
Q 2066 3103 1784 3103 
Q 1356 3103 1142 2972 
Q 928 2841 928 2578 
Q 928 2378 1081 2264 
Q 1234 2150 1697 2047 
L 1894 2003 
Q 2506 1872 2764 1633 
Q 3022 1394 3022 966 
Q 3022 478 2636 193 
Q 2250 -91 1575 -91 
Q 1294 -91 989 -36 
Q 684 19 347 128 
L 347 722 
Q 666 556 975 473 
Q 1284 391 1588 391 
Q 1994 391 2212 530 
Q 2431 669 2431 922 
Q 2431 1156 2273 1281 
Q 2116 1406 1581 1522 
L 1381 1569 
Q 847 1681 609 1914 
Q 372 2147 372 2553 
Q 372 3047 722 3315 
Q 1072 3584 1716 3584 
Q 2034 3584 2315 3537 
Q 2597 3491 2834 3397 
z
" transform="scale(0.015625)"/>
       <path id="DejaVuSans-44" d="M 1259 4147 
L 1259 519 
L 2022 519 
Q 2988 519 3436 956 
Q 3884 1394 3884 2338 
Q 3884 3275 3436 3711 
Q 2988 4147 2022 4147 
L 1259 4147 
z
M 628 4666 
L 1925 4666 
Q 3281 4666 3915 4102 
Q 4550 3538 4550 2338 
Q 4550 1131 3912 565 
Q 3275 0 1925 0 
L 628 0 
L 628 4666 
z
" transform="scale(0.015625)"/>
       <path id="DejaVuSans-69" d="M 603 3500 
L 1178 3500 
L 1178 0 
L 603 0 
L 603 3500 
z
M 603 4863 
L 1178 4863 
L 1178 4134 
L 603 4134 
L 603 4863 
z
" transform="scale(0.015625)"/>
       <path id="DejaVuSans-66" d="M 2375 4863 
L 2375 4384 
L 1825 4384 
Q 1516 4384 1395 4259 
Q 1275 4134 1275 3809 
L 1275 3500 
L 2222 3500 
L 2222 3053 
L 1275 3053 
L 1275 0 
L 697 0 
L 697 3053 
L 147 3053 
L 147 3500 
L 697 3500 
L 697 3744 
Q 697 4328 969 4595 
Q 1241 4863 1831 4863 
L 2375 4863 
z
" transform="scale(0.015625)"/>
      </defs>
      <use xlink:href="#DejaVuSans-53"/>
      <use xlink:href="#DejaVuSans-61" x="63.476562"/>
      <use xlink:href="#DejaVuSans-73" x="124.755859"/>
      <use xlink:href="#DejaVuSans-61" x="176.855469"/>
      <use xlink:href="#DejaVuSans-44" x="238.134766"/>
      <use xlink:href="#DejaVuSans-69" x="315.136719"/>
      <use xlink:href="#DejaVuSans-66" x="342.919922"/>
      <use xlink:href="#DejaVuSans-66" x="378.125"/>
     </g>
    </g>
   </g>
   <g id="matplotlib.axis_2">
    <g id="ytick_1">
     <g id="line2d_10">
      <defs>
       <path id="ma08d72c77e" d="M 0 0 
L -3.5 0 
" style="stroke: #000000; stroke-width: 0.8"/>
      </defs>
      <g>
       <use xlink:href="#ma08d72c77e" x="47.82125" y="303.64" style="stroke: #000000; stroke-width: 0.8"/>
      </g>
     </g>
     <g id="text_11">
      <!-- 0.0 -->
      <g transform="translate(24.918125 307.439219)scale(0.1 -0.1)">
       <defs>
        <path id="DejaVuSans-2e" d="M 684 794 
L 1344 794 
L 1344 0 
L 684 0 
L 684 794 
z
" transform="scale(0.015625)"/>
       </defs>
       <use xlink:href="#DejaVuSans-30"/>
       <use xlink:href="#DejaVuSans-2e" x="63.623047"/>
       <use xlink:href="#DejaVuSans-30" x="95.410156"/>
      </g>
     </g>
    </g>
    <g id="ytick_2">
     <g id="line2d_11">
      <g>
       <use xlink:href="#ma08d72c77e" x="47.82125" y="254.872536" style="stroke: #000000; stroke-width: 0.8"/>
      </g>
     </g>
     <g id="text_12">
      <!-- 0.2 -->
      <g transform="translate(24.918125 258.671755)scale(0.1 -0.1)">
       <defs>
        <path id="DejaVuSans-32" d="M 1228 531 
L 3431 531 
L 3431 0 
L 469 0 
L 469 531 
Q 828 903 1448 1529 
Q 2069 2156 2228 2338 
Q 2531 2678 2651 2914 
Q 2772 3150 2772 3378 
Q 2772 3750 2511 3984 
Q 2250 4219 1831 4219 
Q 1534 4219 1204 4116 
Q 875 4013 500 3803 
L 500 4441 
Q 881 4594 1212 4672 
Q 1544 4750 1819 4750 
Q 2544 4750 2975 4387 
Q 3406 4025 3406 3419 
Q 3406 3131 3298 2873 
Q 3191 2616 2906 2266 
Q 2828 2175 2409 1742 
Q 1991 1309 1228 531 
z
" transform="scale(0.015625)"/>
       </defs>
       <use xlink:href="#DejaVuSans-30"/>
       <use xlink:href="#DejaVuSans-2e" x="63.623047"/>
       <use xlink:href="#DejaVuSans-32" x="95.410156"/>
      </g>
     </g>
    </g>
    <g id="ytick_3">
     <g id="line2d_12">
      <g>
       <use xlink:href="#ma08d72c77e" x="47.82125" y="206.105072" style="stroke: #000000; stroke-width: 0.8"/>
      </g>
     </g>
     <g id="text_13">
      <!-- 0.4 -->
      <g transform="translate(24.918125 209.90429)scale(0.1 -0.1)">
       <use xlink:href="#DejaVuSans-30"/>
       <use xlink:href="#DejaVuSans-2e" x="63.623047"/>
       <use xlink:href="#DejaVuSans-34" x="95.410156"/>
      </g>
     </g>
    </g>
    <g id="ytick_4">
     <g id="line2d_13">
      <g>
       <use xlink:href="#ma08d72c77e" x="47.82125" y="157.337607" style="stroke: #000000; stroke-width: 0.8"/>
      </g>
     </g>
     <g id="text_14">
      <!-- 0.6 -->
      <g transform="translate(24.918125 161.136826)scale(0.1 -0.1)">
       <use xlink:href="#DejaVuSans-30"/>
       <use xlink:href="#DejaVuSans-2e" x="63.623047"/>
       <use xlink:href="#DejaVuSans-36" x="95.410156"/>
      </g>
     </g>
    </g>
    <g id="ytick_5">
     <g id="line2d_14">
      <g>
       <use xlink:href="#ma08d72c77e" x="47.82125" y="108.570143" style="stroke: #000000; stroke-width: 0.8"/>
      </g>
     </g>
     <g id="text_15">
      <!-- 0.8 -->
      <g transform="translate(24.918125 112.369362)scale(0.1 -0.1)">
       <use xlink:href="#DejaVuSans-30"/>
       <use xlink:href="#DejaVuSans-2e" x="63.623047"/>
       <use xlink:href="#DejaVuSans-38" x="95.410156"/>
      </g>
     </g>
    </g>
    <g id="ytick_6">
     <g id="line2d_15">
      <g>
       <use xlink:href="#ma08d72c77e" x="47.82125" y="59.802679" style="stroke: #000000; stroke-width: 0.8"/>
      </g>
     </g>
     <g id="text_16">
      <!-- 1.0 -->
      <g transform="translate(24.918125 63.601898)scale(0.1 -0.1)">
       <defs>
        <path id="DejaVuSans-31" d="M 794 531 
L 1825 531 
L 1825 4091 
L 703 3866 
L 703 4441 
L 1819 4666 
L 2450 4666 
L 2450 531 
L 3481 531 
L 3481 0 
L 794 0 
L 794 531 
z
" transform="scale(0.015625)"/>
       </defs>
       <use xlink:href="#DejaVuSans-31"/>
       <use xlink:href="#DejaVuSans-2e" x="63.623047"/>
       <use xlink:href="#DejaVuSans-30" x="95.410156"/>
      </g>
     </g>
    </g>
    <g id="text_17">
     <!-- PercentGpA_transformed -->
     <g transform="translate(18.560313 237.696138)rotate(-90)scale(0.1 -0.1)">
      <defs>
       <path id="DejaVuSans-50" d="M 1259 4147 
L 1259 2394 
L 2053 2394 
Q 2494 2394 2734 2622 
Q 2975 2850 2975 3272 
Q 2975 3691 2734 3919 
Q 2494 4147 2053 4147 
L 1259 4147 
z
M 628 4666 
L 2053 4666 
Q 2838 4666 3239 4311 
Q 3641 3956 3641 3272 
Q 3641 2581 3239 2228 
Q 2838 1875 2053 1875 
L 1259 1875 
L 1259 0 
L 628 0 
L 628 4666 
z
" transform="scale(0.015625)"/>
       <path id="DejaVuSans-65" d="M 3597 1894 
L 3597 1613 
L 953 1613 
Q 991 1019 1311 708 
Q 1631 397 2203 397 
Q 2534 397 2845 478 
Q 3156 559 3463 722 
L 3463 178 
Q 3153 47 2828 -22 
Q 2503 -91 2169 -91 
Q 1331 -91 842 396 
Q 353 884 353 1716 
Q 353 2575 817 3079 
Q 1281 3584 2069 3584 
Q 2775 3584 3186 3129 
Q 3597 2675 3597 1894 
z
M 3022 2063 
Q 3016 2534 2758 2815 
Q 2500 3097 2075 3097 
Q 1594 3097 1305 2825 
Q 1016 2553 972 2059 
L 3022 2063 
z
" transform="scale(0.015625)"/>
       <path id="DejaVuSans-72" d="M 2631 2963 
Q 2534 3019 2420 3045 
Q 2306 3072 2169 3072 
Q 1681 3072 1420 2755 
Q 1159 2438 1159 1844 
L 1159 0 
L 581 0 
L 581 3500 
L 1159 3500 
L 1159 2956 
Q 1341 3275 1631 3429 
Q 1922 3584 2338 3584 
Q 2397 3584 2469 3576 
Q 2541 3569 2628 3553 
L 2631 2963 
z
" transform="scale(0.015625)"/>
       <path id="DejaVuSans-63" d="M 3122 3366 
L 3122 2828 
Q 2878 2963 2633 3030 
Q 2388 3097 2138 3097 
Q 1578 3097 1268 2742 
Q 959 2388 959 1747 
Q 959 1106 1268 751 
Q 1578 397 2138 397 
Q 2388 397 2633 464 
Q 2878 531 3122 666 
L 3122 134 
Q 2881 22 2623 -34 
Q 2366 -91 2075 -91 
Q 1284 -91 818 406 
Q 353 903 353 1747 
Q 353 2603 823 3093 
Q 1294 3584 2113 3584 
Q 2378 3584 2631 3529 
Q 2884 3475 3122 3366 
z
" transform="scale(0.015625)"/>
       <path id="DejaVuSans-6e" d="M 3513 2113 
L 3513 0 
L 2938 0 
L 2938 2094 
Q 2938 2591 2744 2837 
Q 2550 3084 2163 3084 
Q 1697 3084 1428 2787 
Q 1159 2491 1159 1978 
L 1159 0 
L 581 0 
L 581 3500 
L 1159 3500 
L 1159 2956 
Q 1366 3272 1645 3428 
Q 1925 3584 2291 3584 
Q 2894 3584 3203 3211 
Q 3513 2838 3513 2113 
z
" transform="scale(0.015625)"/>
       <path id="DejaVuSans-74" d="M 1172 4494 
L 1172 3500 
L 2356 3500 
L 2356 3053 
L 1172 3053 
L 1172 1153 
Q 1172 725 1289 603 
Q 1406 481 1766 481 
L 2356 481 
L 2356 0 
L 1766 0 
Q 1100 0 847 248 
Q 594 497 594 1153 
L 594 3053 
L 172 3053 
L 172 3500 
L 594 3500 
L 594 4494 
L 1172 4494 
z
" transform="scale(0.015625)"/>
       <path id="DejaVuSans-47" d="M 3809 666 
L 3809 1919 
L 2778 1919 
L 2778 2438 
L 4434 2438 
L 4434 434 
Q 4069 175 3628 42 
Q 3188 -91 2688 -91 
Q 1594 -91 976 548 
Q 359 1188 359 2328 
Q 359 3472 976 4111 
Q 1594 4750 2688 4750 
Q 3144 4750 3555 4637 
Q 3966 4525 4313 4306 
L 4313 3634 
Q 3963 3931 3569 4081 
Q 3175 4231 2741 4231 
Q 1884 4231 1454 3753 
Q 1025 3275 1025 2328 
Q 1025 1384 1454 906 
Q 1884 428 2741 428 
Q 3075 428 3337 486 
Q 3600 544 3809 666 
z
" transform="scale(0.015625)"/>
       <path id="DejaVuSans-70" d="M 1159 525 
L 1159 -1331 
L 581 -1331 
L 581 3500 
L 1159 3500 
L 1159 2969 
Q 1341 3281 1617 3432 
Q 1894 3584 2278 3584 
Q 2916 3584 3314 3078 
Q 3713 2572 3713 1747 
Q 3713 922 3314 415 
Q 2916 -91 2278 -91 
Q 1894 -91 1617 61 
Q 1341 213 1159 525 
z
M 3116 1747 
Q 3116 2381 2855 2742 
Q 2594 3103 2138 3103 
Q 1681 3103 1420 2742 
Q 1159 2381 1159 1747 
Q 1159 1113 1420 752 
Q 1681 391 2138 391 
Q 2594 391 2855 752 
Q 3116 1113 3116 1747 
z
" transform="scale(0.015625)"/>
       <path id="DejaVuSans-41" d="M 2188 4044 
L 1331 1722 
L 3047 1722 
L 2188 4044 
z
M 1831 4666 
L 2547 4666 
L 4325 0 
L 3669 0 
L 3244 1197 
L 1141 1197 
L 716 0 
L 50 0 
L 1831 4666 
z
" transform="scale(0.015625)"/>
       <path id="DejaVuSans-5f" d="M 3263 -1063 
L 3263 -1509 
L -63 -1509 
L -63 -1063 
L 3263 -1063 
z
" transform="scale(0.015625)"/>
       <path id="DejaVuSans-6f" d="M 1959 3097 
Q 1497 3097 1228 2736 
Q 959 2375 959 1747 
Q 959 1119 1226 758 
Q 1494 397 1959 397 
Q 2419 397 2687 759 
Q 2956 1122 2956 1747 
Q 2956 2369 2687 2733 
Q 2419 3097 1959 3097 
z
M 1959 3584 
Q 2709 3584 3137 3096 
Q 3566 2609 3566 1747 
Q 3566 888 3137 398 
Q 2709 -91 1959 -91 
Q 1206 -91 779 398 
Q 353 888 353 1747 
Q 353 2609 779 3096 
Q 1206 3584 1959 3584 
z
" transform="scale(0.015625)"/>
       <path id="DejaVuSans-6d" d="M 3328 2828 
Q 3544 3216 3844 3400 
Q 4144 3584 4550 3584 
Q 5097 3584 5394 3201 
Q 5691 2819 5691 2113 
L 5691 0 
L 5113 0 
L 5113 2094 
Q 5113 2597 4934 2840 
Q 4756 3084 4391 3084 
Q 3944 3084 3684 2787 
Q 3425 2491 3425 1978 
L 3425 0 
L 2847 0 
L 2847 2094 
Q 2847 2600 2669 2842 
Q 2491 3084 2119 3084 
Q 1678 3084 1418 2786 
Q 1159 2488 1159 1978 
L 1159 0 
L 581 0 
L 581 3500 
L 1159 3500 
L 1159 2956 
Q 1356 3278 1631 3431 
Q 1906 3584 2284 3584 
Q 2666 3584 2933 3390 
Q 3200 3197 3328 2828 
z
" transform="scale(0.015625)"/>
       <path id="DejaVuSans-64" d="M 2906 2969 
L 2906 4863 
L 3481 4863 
L 3481 0 
L 2906 0 
L 2906 525 
Q 2725 213 2448 61 
Q 2172 -91 1784 -91 
Q 1150 -91 751 415 
Q 353 922 353 1747 
Q 353 2572 751 3078 
Q 1150 3584 1784 3584 
Q 2172 3584 2448 3432 
Q 2725 3281 2906 2969 
z
M 947 1747 
Q 947 1113 1208 752 
Q 1469 391 1925 391 
Q 2381 391 2643 752 
Q 2906 1113 2906 1747 
Q 2906 2381 2643 2742 
Q 2381 3103 1925 3103 
Q 1469 3103 1208 2742 
Q 947 2381 947 1747 
z
" transform="scale(0.015625)"/>
      </defs>
      <use xlink:href="#DejaVuSans-50"/>
      <use xlink:href="#DejaVuSans-65" x="56.677734"/>
      <use xlink:href="#DejaVuSans-72" x="118.201172"/>
      <use xlink:href="#DejaVuSans-63" x="157.064453"/>
      <use xlink:href="#DejaVuSans-65" x="212.044922"/>
      <use xlink:href="#DejaVuSans-6e" x="273.568359"/>
      <use xlink:href="#DejaVuSans-74" x="336.947266"/>
      <use xlink:href="#DejaVuSans-47" x="376.15625"/>
      <use xlink:href="#DejaVuSans-70" x="453.646484"/>
      <use xlink:href="#DejaVuSans-41" x="517.123047"/>
      <use xlink:href="#DejaVuSans-5f" x="585.53125"/>
      <use xlink:href="#DejaVuSans-74" x="635.53125"/>
      <use xlink:href="#DejaVuSans-72" x="674.740234"/>
      <use xlink:href="#DejaVuSans-61" x="715.853516"/>
      <use xlink:href="#DejaVuSans-6e" x="777.132812"/>
      <use xlink:href="#DejaVuSans-73" x="840.511719"/>
      <use xlink:href="#DejaVuSans-66" x="892.611328"/>
      <use xlink:href="#DejaVuSans-6f" x="927.816406"/>
      <use xlink:href="#DejaVuSans-72" x="988.998047"/>
      <use xlink:href="#DejaVuSans-6d" x="1028.361328"/>
      <use xlink:href="#DejaVuSans-65" x="1125.773438"/>
      <use xlink:href="#DejaVuSans-64" x="1187.296875"/>
     </g>
    </g>
   </g>
   <g id="LineCollection_1">
    <path d="M 188.698208 228.454945 
L 188.698208 174.722583 
" clip-path="url(#pbdeba3f461)" style="fill: none; stroke: #d3d3d3; stroke-width: 3"/>
    <path d="M 73.593887 203.148092 
L 73.593887 169.817635 
" clip-path="url(#pbdeba3f461)" style="fill: none; stroke: #d3d3d3; stroke-width: 3"/>
    <path d="M 162.077698 175.669271 
L 162.077698 165.292332 
" clip-path="url(#pbdeba3f461)" style="fill: none; stroke: #d3d3d3; stroke-width: 3"/>
    <path d="M 258.026378 215.204555 
L 258.026378 201.240391 
" clip-path="url(#pbdeba3f461)" style="fill: none; stroke: #d3d3d3; stroke-width: 3"/>
    <path d="M 222.640031 251.925507 
L 222.640031 163.286626 
" clip-path="url(#pbdeba3f461)" style="fill: none; stroke: #d3d3d3; stroke-width: 3"/>
    <path d="M 107.311405 209.825331 
L 107.311405 179.952707 
" clip-path="url(#pbdeba3f461)" style="fill: none; stroke: #d3d3d3; stroke-width: 3"/>
    <path d="M 183.530222 209.64555 
L 183.530222 189.164193 
" clip-path="url(#pbdeba3f461)" style="fill: none; stroke: #d3d3d3; stroke-width: 3"/>
    <path d="M 131.240256 203.591744 
L 131.240256 165.845933 
" clip-path="url(#pbdeba3f461)" style="fill: none; stroke: #d3d3d3; stroke-width: 3"/>
    <path d="M 66.102102 229.646396 
L 66.102102 196.360242 
" clip-path="url(#pbdeba3f461)" style="fill: none; stroke: #d3d3d3; stroke-width: 3"/>
    <path d="M 160.130731 244.903676 
L 160.130731 225.502176 
" clip-path="url(#pbdeba3f461)" style="fill: none; stroke: #d3d3d3; stroke-width: 3"/>
    <path d="M 188.061182 170.458901 
L 188.061182 122.895971 
" clip-path="url(#pbdeba3f461)" style="fill: none; stroke: #d3d3d3; stroke-width: 3"/>
    <path d="M 307.517019 220.513995 
L 307.517019 195.829347 
" clip-path="url(#pbdeba3f461)" style="fill: none; stroke: #d3d3d3; stroke-width: 3"/>
    <path d="M 206.678492 256.801031 
L 206.678492 202.443949 
" clip-path="url(#pbdeba3f461)" style="fill: none; stroke: #d3d3d3; stroke-width: 3"/>
    <path d="M 386.795355 252.328225 
L 386.795355 228.404126 
" clip-path="url(#pbdeba3f461)" style="fill: none; stroke: #d3d3d3; stroke-width: 3"/>
    <path d="M 68.62329 271.978348 
L 68.62329 222.662332 
" clip-path="url(#pbdeba3f461)" style="fill: none; stroke: #d3d3d3; stroke-width: 3"/>
    <path d="M 219.212651 247.312104 
L 219.212651 192.046656 
" clip-path="url(#pbdeba3f461)" style="fill: none; stroke: #d3d3d3; stroke-width: 3"/>
    <path d="M 175.473189 258.7373 
L 175.473189 222.798513 
" clip-path="url(#pbdeba3f461)" style="fill: none; stroke: #d3d3d3; stroke-width: 3"/>
    <path d="M 141.369867 203.530922 
L 141.369867 167.823524 
" clip-path="url(#pbdeba3f461)" style="fill: none; stroke: #d3d3d3; stroke-width: 3"/>
    <path d="M 407.574964 245.964076 
L 407.574964 213.942794 
" clip-path="url(#pbdeba3f461)" style="fill: none; stroke: #d3d3d3; stroke-width: 3"/>
    <path d="M 252.329032 276.546818 
L 252.329032 230.745002 
" clip-path="url(#pbdeba3f461)" style="fill: none; stroke: #d3d3d3; stroke-width: 3"/>
    <path d="M 161.153562 203.889665 
L 161.153562 174.965801 
" clip-path="url(#pbdeba3f461)" style="fill: none; stroke: #d3d3d3; stroke-width: 3"/>
    <path d="M 132.451502 246.302445 
L 132.451502 214.231953 
" clip-path="url(#pbdeba3f461)" style="fill: none; stroke: #d3d3d3; stroke-width: 3"/>
    <path d="M 255.693606 238.63415 
L 255.693606 233.350944 
" clip-path="url(#pbdeba3f461)" style="fill: none; stroke: #d3d3d3; stroke-width: 3"/>
    <path d="M 182.902168 239.363608 
L 182.902168 214.319066 
" clip-path="url(#pbdeba3f461)" style="fill: none; stroke: #d3d3d3; stroke-width: 3"/>
    <path d="M 77.093044 263.987314 
L 77.093044 207.451801 
" clip-path="url(#pbdeba3f461)" style="fill: none; stroke: #d3d3d3; stroke-width: 3"/>
    <path d="M 120.15062 240.413967 
L 120.15062 209.191182 
" clip-path="url(#pbdeba3f461)" style="fill: none; stroke: #d3d3d3; stroke-width: 3"/>
    <path d="M 216.79913 205.587313 
L 216.79913 167.544077 
" clip-path="url(#pbdeba3f461)" style="fill: none; stroke: #d3d3d3; stroke-width: 3"/>
    <path d="M 314.048778 220.622327 
L 314.048778 174.669978 
" clip-path="url(#pbdeba3f461)" style="fill: none; stroke: #d3d3d3; stroke-width: 3"/>
    <path d="M 358.658544 208.947044 
L 358.658544 183.546884 
" clip-path="url(#pbdeba3f461)" style="fill: none; stroke: #d3d3d3; stroke-width: 3"/>
    <path d="M 188.70718 202.433954 
L 188.70718 171.32962 
" clip-path="url(#pbdeba3f461)" style="fill: none; stroke: #d3d3d3; stroke-width: 3"/>
    <path d="M 290.326288 243.348032 
L 290.326288 197.593922 
" clip-path="url(#pbdeba3f461)" style="fill: none; stroke: #d3d3d3; stroke-width: 3"/>
    <path d="M 162.858279 181.043289 
L 162.858279 60.41299 
" clip-path="url(#pbdeba3f461)" style="fill: none; stroke: #d3d3d3; stroke-width: 3"/>
    <path d="M 206.238854 253.403972 
L 206.238854 215.400838 
" clip-path="url(#pbdeba3f461)" style="fill: none; stroke: #d3d3d3; stroke-width: 3"/>
    <path d="M 161.458617 237.656179 
L 161.458617 210.087008 
" clip-path="url(#pbdeba3f461)" style="fill: none; stroke: #d3d3d3; stroke-width: 3"/>
    <path d="M 187.244712 243.213293 
L 187.244712 215.611676 
" clip-path="url(#pbdeba3f461)" style="fill: none; stroke: #d3d3d3; stroke-width: 3"/>
    <path d="M 369.487986 247.694023 
L 369.487986 201.713973 
" clip-path="url(#pbdeba3f461)" style="fill: none; stroke: #d3d3d3; stroke-width: 3"/>
    <path d="M 290.272455 208.867895 
L 290.272455 177.725933 
" clip-path="url(#pbdeba3f461)" style="fill: none; stroke: #d3d3d3; stroke-width: 3"/>
    <path d="M 217.202879 239.567547 
L 217.202879 123.32702 
" clip-path="url(#pbdeba3f461)" style="fill: none; stroke: #d3d3d3; stroke-width: 3"/>
    <path d="M 274.85822 275.751527 
L 274.85822 229.091838 
" clip-path="url(#pbdeba3f461)" style="fill: none; stroke: #d3d3d3; stroke-width: 3"/>
    <path d="M 280.995203 292.025983 
L 280.995203 188.978747 
" clip-path="url(#pbdeba3f461)" style="fill: none; stroke: #d3d3d3; stroke-width: 3"/>
    <path d="M 431.719148 252.421943 
L 431.719148 187.002689 
" clip-path="url(#pbdeba3f461)" style="fill: none; stroke: #d3d3d3; stroke-width: 3"/>
    <path d="M 276.751354 267.687433 
L 276.751354 222.611691 
" clip-path="url(#pbdeba3f461)" style="fill: none; stroke: #d3d3d3; stroke-width: 3"/>
    <path d="M 288.567738 268.039167 
L 288.567738 233.57026 
" clip-path="url(#pbdeba3f461)" style="fill: none; stroke: #d3d3d3; stroke-width: 3"/>
    <path d="M 214.295887 227.883103 
L 214.295887 201.297511 
" clip-path="url(#pbdeba3f461)" style="fill: none; stroke: #d3d3d3; stroke-width: 3"/>
    <path d="M 247.914711 335.158509 
L 247.914711 170.488081 
" clip-path="url(#pbdeba3f461)" style="fill: none; stroke: #d3d3d3; stroke-width: 3"/>
    <path d="M 353.777669 253.795742 
L 353.777669 221.806449 
" clip-path="url(#pbdeba3f461)" style="fill: none; stroke: #d3d3d3; stroke-width: 3"/>
    <path d="M 186.356464 214.256051 
L 186.356464 192.227992 
" clip-path="url(#pbdeba3f461)" style="fill: none; stroke: #d3d3d3; stroke-width: 3"/>
    <path d="M 212.259198 215.519176 
L 212.259198 158.001286 
" clip-path="url(#pbdeba3f461)" style="fill: none; stroke: #d3d3d3; stroke-width: 3"/>
    <path d="M 188.312404 218.060092 
L 188.312404 185.765129 
" clip-path="url(#pbdeba3f461)" style="fill: none; stroke: #d3d3d3; stroke-width: 3"/>
    <path d="M 240.934341 263.457593 
L 240.934341 228.270248 
" clip-path="url(#pbdeba3f461)" style="fill: none; stroke: #d3d3d3; stroke-width: 3"/>
    <path d="M 315.547135 245.546983 
L 315.547135 211.383686 
" clip-path="url(#pbdeba3f461)" style="fill: none; stroke: #d3d3d3; stroke-width: 3"/>
    <path d="M 152.728669 255.612013 
L 152.728669 222.584952 
" clip-path="url(#pbdeba3f461)" style="fill: none; stroke: #d3d3d3; stroke-width: 3"/>
    <path d="M 274.113528 227.595225 
L 274.113528 198.517106 
" clip-path="url(#pbdeba3f461)" style="fill: none; stroke: #d3d3d3; stroke-width: 3"/>
    <path d="M 228.041294 218.613525 
L 228.041294 198.355897 
" clip-path="url(#pbdeba3f461)" style="fill: none; stroke: #d3d3d3; stroke-width: 3"/>
    <path d="M 116.992406 248.251181 
L 116.992406 200.848228 
" clip-path="url(#pbdeba3f461)" style="fill: none; stroke: #d3d3d3; stroke-width: 3"/>
    <path d="M 171.498506 276.037117 
L 171.498506 228.669966 
" clip-path="url(#pbdeba3f461)" style="fill: none; stroke: #d3d3d3; stroke-width: 3"/>
    <path d="M 240.189649 257.59974 
L 240.189649 206.579822 
" clip-path="url(#pbdeba3f461)" style="fill: none; stroke: #d3d3d3; stroke-width: 3"/>
    <path d="M 281.937284 244.769918 
L 281.937284 217.020978 
" clip-path="url(#pbdeba3f461)" style="fill: none; stroke: #d3d3d3; stroke-width: 3"/>
   </g>
   <g id="line2d_16">
    <path d="M 188.698208 213.755709 
L 73.593887 205.909309 
L 162.077698 211.941049 
L 258.026378 218.481653 
L 222.640031 216.069446 
L 107.311405 208.207755 
L 183.530222 213.403419 
L 131.240256 209.838931 
L 66.102102 205.398611 
L 160.130731 211.808329 
L 188.061182 213.712284 
L 307.517019 221.855318 
L 206.678492 214.981384 
L 386.795355 227.259542 
L 68.62329 205.570474 
L 219.212651 215.835809 
L 175.473189 212.854189 
L 141.369867 210.529443 
L 407.574964 228.67604 
L 252.329032 218.093278 
L 161.153562 211.878053 
L 132.451502 209.921499 
L 255.693606 218.322633 
L 182.902168 213.360606 
L 77.093044 206.147838 
L 120.15062 209.082976 
L 216.79913 215.671285 
L 314.048778 222.300573 
L 358.658544 225.341519 
L 188.70718 213.756321 
L 290.326288 220.683464 
L 162.858279 211.99426 
L 206.238854 214.951415 
L 161.458617 211.898848 
L 187.244712 213.656627 
L 369.487986 226.079738 
L 290.272455 220.679795 
L 217.202879 215.698808 
L 274.85822 219.629041 
L 280.995203 220.047386 
L 431.719148 230.321895 
L 276.751354 219.758092 
L 288.567738 220.563588 
L 214.295887 215.500645 
L 247.914711 217.792364 
L 353.777669 225.008801 
L 186.356464 213.596078 
L 212.259198 215.361808 
L 188.312404 213.72941 
L 240.934341 217.316528 
L 315.547135 222.402712 
L 152.728669 211.303747 
L 274.113528 219.578277 
L 228.041294 216.437638 
L 116.992406 208.867687 
L 171.498506 212.583244 
L 240.189649 217.265764 
L 281.937284 220.111605 
" clip-path="url(#pbdeba3f461)" style="fill: none; stroke: #1f77b4; stroke-width: 1.5; stroke-linecap: square"/>
   </g>
   <g id="line2d_17">
    <defs>
     <path id="mb340c940fd" d="M 0 3 
C 0.795609 3 1.55874 2.683901 2.12132 2.12132 
C 2.683901 1.55874 3 0.795609 3 0 
C 3 -0.795609 2.683901 -1.55874 2.12132 -2.12132 
C 1.55874 -2.683901 0.795609 -3 0 -3 
C -0.795609 -3 -1.55874 -2.683901 -2.12132 -2.12132 
C -2.683901 -1.55874 -3 -0.795609 -3 0 
C -3 0.795609 -2.683901 1.55874 -2.12132 2.12132 
C -1.55874 2.683901 -0.795609 3 0 3 
z
" style="stroke: #000000"/>
    </defs>
    <g clip-path="url(#pbdeba3f461)">
     <use xlink:href="#mb340c940fd" x="188.698208" y="201.588764" style="stroke: #000000"/>
     <use xlink:href="#mb340c940fd" x="73.593887" y="186.482863" style="stroke: #000000"/>
     <use xlink:href="#mb340c940fd" x="162.077698" y="170.480802" style="stroke: #000000"/>
     <use xlink:href="#mb340c940fd" x="258.026378" y="208.222473" style="stroke: #000000"/>
     <use xlink:href="#mb340c940fd" x="222.640031" y="207.606066" style="stroke: #000000"/>
     <use xlink:href="#mb340c940fd" x="107.311405" y="194.889019" style="stroke: #000000"/>
     <use xlink:href="#mb340c940fd" x="183.530222" y="199.404871" style="stroke: #000000"/>
     <use xlink:href="#mb340c940fd" x="131.240256" y="184.718838" style="stroke: #000000"/>
     <use xlink:href="#mb340c940fd" x="66.102102" y="213.003319" style="stroke: #000000"/>
     <use xlink:href="#mb340c940fd" x="160.130731" y="235.202926" style="stroke: #000000"/>
     <use xlink:href="#mb340c940fd" x="188.061182" y="146.677436" style="stroke: #000000"/>
     <use xlink:href="#mb340c940fd" x="307.517019" y="208.171671" style="stroke: #000000"/>
     <use xlink:href="#mb340c940fd" x="206.678492" y="229.62249" style="stroke: #000000"/>
     <use xlink:href="#mb340c940fd" x="386.795355" y="240.366175" style="stroke: #000000"/>
     <use xlink:href="#mb340c940fd" x="68.62329" y="247.32034" style="stroke: #000000"/>
     <use xlink:href="#mb340c940fd" x="219.212651" y="219.67938" style="stroke: #000000"/>
     <use xlink:href="#mb340c940fd" x="175.473189" y="240.767906" style="stroke: #000000"/>
     <use xlink:href="#mb340c940fd" x="141.369867" y="185.677223" style="stroke: #000000"/>
     <use xlink:href="#mb340c940fd" x="407.574964" y="229.953435" style="stroke: #000000"/>
     <use xlink:href="#mb340c940fd" x="252.329032" y="253.64591" style="stroke: #000000"/>
     <use xlink:href="#mb340c940fd" x="161.153562" y="189.427733" style="stroke: #000000"/>
     <use xlink:href="#mb340c940fd" x="132.451502" y="230.267199" style="stroke: #000000"/>
     <use xlink:href="#mb340c940fd" x="255.693606" y="235.992547" style="stroke: #000000"/>
     <use xlink:href="#mb340c940fd" x="182.902168" y="226.841337" style="stroke: #000000"/>
     <use xlink:href="#mb340c940fd" x="77.093044" y="235.719558" style="stroke: #000000"/>
     <use xlink:href="#mb340c940fd" x="120.15062" y="224.802575" style="stroke: #000000"/>
     <use xlink:href="#mb340c940fd" x="216.79913" y="186.565695" style="stroke: #000000"/>
     <use xlink:href="#mb340c940fd" x="314.048778" y="197.646153" style="stroke: #000000"/>
     <use xlink:href="#mb340c940fd" x="358.658544" y="196.246964" style="stroke: #000000"/>
     <use xlink:href="#mb340c940fd" x="188.70718" y="186.881787" style="stroke: #000000"/>
     <use xlink:href="#mb340c940fd" x="290.326288" y="220.470977" style="stroke: #000000"/>
     <use xlink:href="#mb340c940fd" x="162.858279" y="120.728139" style="stroke: #000000"/>
     <use xlink:href="#mb340c940fd" x="206.238854" y="234.402405" style="stroke: #000000"/>
     <use xlink:href="#mb340c940fd" x="161.458617" y="223.871594" style="stroke: #000000"/>
     <use xlink:href="#mb340c940fd" x="187.244712" y="229.412484" style="stroke: #000000"/>
     <use xlink:href="#mb340c940fd" x="369.487986" y="224.703998" style="stroke: #000000"/>
     <use xlink:href="#mb340c940fd" x="290.272455" y="193.296914" style="stroke: #000000"/>
     <use xlink:href="#mb340c940fd" x="217.202879" y="181.447284" style="stroke: #000000"/>
     <use xlink:href="#mb340c940fd" x="274.85822" y="252.421682" style="stroke: #000000"/>
     <use xlink:href="#mb340c940fd" x="280.995203" y="240.502365" style="stroke: #000000"/>
     <use xlink:href="#mb340c940fd" x="431.719148" y="219.712316" style="stroke: #000000"/>
     <use xlink:href="#mb340c940fd" x="276.751354" y="245.149562" style="stroke: #000000"/>
     <use xlink:href="#mb340c940fd" x="288.567738" y="250.804714" style="stroke: #000000"/>
     <use xlink:href="#mb340c940fd" x="214.295887" y="214.590307" style="stroke: #000000"/>
     <use xlink:href="#mb340c940fd" x="247.914711" y="252.823295" style="stroke: #000000"/>
     <use xlink:href="#mb340c940fd" x="353.777669" y="237.801095" style="stroke: #000000"/>
     <use xlink:href="#mb340c940fd" x="186.356464" y="203.242021" style="stroke: #000000"/>
     <use xlink:href="#mb340c940fd" x="212.259198" y="186.760231" style="stroke: #000000"/>
     <use xlink:href="#mb340c940fd" x="188.312404" y="201.91261" style="stroke: #000000"/>
     <use xlink:href="#mb340c940fd" x="240.934341" y="245.863921" style="stroke: #000000"/>
     <use xlink:href="#mb340c940fd" x="315.547135" y="228.465334" style="stroke: #000000"/>
     <use xlink:href="#mb340c940fd" x="152.728669" y="239.098482" style="stroke: #000000"/>
     <use xlink:href="#mb340c940fd" x="274.113528" y="213.056166" style="stroke: #000000"/>
     <use xlink:href="#mb340c940fd" x="228.041294" y="208.484711" style="stroke: #000000"/>
     <use xlink:href="#mb340c940fd" x="116.992406" y="224.549704" style="stroke: #000000"/>
     <use xlink:href="#mb340c940fd" x="171.498506" y="252.353542" style="stroke: #000000"/>
     <use xlink:href="#mb340c940fd" x="240.189649" y="232.089781" style="stroke: #000000"/>
     <use xlink:href="#mb340c940fd" x="281.937284" y="230.895448" style="stroke: #000000"/>
    </g>
   </g>
   <g id="patch_3">
    <path d="M 47.82125 303.64 
L 47.82125 46.675714 
" style="fill: none; stroke: #000000; stroke-width: 0.8; stroke-linejoin: miter; stroke-linecap: square"/>
   </g>
   <g id="patch_4">
    <path d="M 450 303.64 
L 450 46.675714 
" style="fill: none; stroke: #000000; stroke-width: 0.8; stroke-linejoin: miter; stroke-linecap: square"/>
   </g>
   <g id="patch_5">
    <path d="M 47.82125 303.64 
L 450 303.64 
" style="fill: none; stroke: #000000; stroke-width: 0.8; stroke-linejoin: miter; stroke-linecap: square"/>
   </g>
   <g id="patch_6">
    <path d="M 47.82125 46.675714 
L 450 46.675714 
" style="fill: none; stroke: #000000; stroke-width: 0.8; stroke-linejoin: miter; stroke-linecap: square"/>
   </g>
   <g id="text_18">
    <!-- y = -0.00x + 0.21 -->
    <g transform="translate(43.314906 18.599375)scale(0.1 -0.1)">
     <defs>
      <path id="DejaVuSans-79" d="M 2059 -325 
Q 1816 -950 1584 -1140 
Q 1353 -1331 966 -1331 
L 506 -1331 
L 506 -850 
L 844 -850 
Q 1081 -850 1212 -737 
Q 1344 -625 1503 -206 
L 1606 56 
L 191 3500 
L 800 3500 
L 1894 763 
L 2988 3500 
L 3597 3500 
L 2059 -325 
z
" transform="scale(0.015625)"/>
      <path id="DejaVuSans-20" transform="scale(0.015625)"/>
      <path id="DejaVuSans-3d" d="M 678 2906 
L 4684 2906 
L 4684 2381 
L 678 2381 
L 678 2906 
z
M 678 1631 
L 4684 1631 
L 4684 1100 
L 678 1100 
L 678 1631 
z
" transform="scale(0.015625)"/>
      <path id="DejaVuSans-2d" d="M 313 2009 
L 1997 2009 
L 1997 1497 
L 313 1497 
L 313 2009 
z
" transform="scale(0.015625)"/>
      <path id="DejaVuSans-78" d="M 3513 3500 
L 2247 1797 
L 3578 0 
L 2900 0 
L 1881 1375 
L 863 0 
L 184 0 
L 1544 1831 
L 300 3500 
L 978 3500 
L 1906 2253 
L 2834 3500 
L 3513 3500 
z
" transform="scale(0.015625)"/>
      <path id="DejaVuSans-2b" d="M 2944 4013 
L 2944 2272 
L 4684 2272 
L 4684 1741 
L 2944 1741 
L 2944 0 
L 2419 0 
L 2419 1741 
L 678 1741 
L 678 2272 
L 2419 2272 
L 2419 4013 
L 2944 4013 
z
" transform="scale(0.015625)"/>
     </defs>
     <use xlink:href="#DejaVuSans-79"/>
     <use xlink:href="#DejaVuSans-20" x="59.179688"/>
     <use xlink:href="#DejaVuSans-3d" x="90.966797"/>
     <use xlink:href="#DejaVuSans-20" x="174.755859"/>
     <use xlink:href="#DejaVuSans-2d" x="206.542969"/>
     <use xlink:href="#DejaVuSans-30" x="242.626953"/>
     <use xlink:href="#DejaVuSans-2e" x="306.25"/>
     <use xlink:href="#DejaVuSans-30" x="338.037109"/>
     <use xlink:href="#DejaVuSans-30" x="401.660156"/>
     <use xlink:href="#DejaVuSans-78" x="465.283203"/>
     <use xlink:href="#DejaVuSans-20" x="524.462891"/>
     <use xlink:href="#DejaVuSans-2b" x="556.25"/>
     <use xlink:href="#DejaVuSans-20" x="640.039062"/>
     <use xlink:href="#DejaVuSans-30" x="671.826172"/>
     <use xlink:href="#DejaVuSans-2e" x="735.449219"/>
     <use xlink:href="#DejaVuSans-32" x="767.236328"/>
     <use xlink:href="#DejaVuSans-31" x="830.859375"/>
    </g>
   </g>
   <g id="text_19">
    <!-- r^2 = 0.05 -->
    <g transform="translate(60.111781 26.308304)scale(0.1 -0.1)">
     <defs>
      <path id="DejaVuSans-5e" d="M 2988 4666 
L 4684 2925 
L 4056 2925 
L 2681 4159 
L 1306 2925 
L 678 2925 
L 2375 4666 
L 2988 4666 
z
" transform="scale(0.015625)"/>
     </defs>
     <use xlink:href="#DejaVuSans-72"/>
     <use xlink:href="#DejaVuSans-5e" x="41.113281"/>
     <use xlink:href="#DejaVuSans-32" x="124.902344"/>
     <use xlink:href="#DejaVuSans-20" x="188.525391"/>
     <use xlink:href="#DejaVuSans-3d" x="220.3125"/>
     <use xlink:href="#DejaVuSans-20" x="304.101562"/>
     <use xlink:href="#DejaVuSans-30" x="335.888672"/>
     <use xlink:href="#DejaVuSans-2e" x="399.511719"/>
     <use xlink:href="#DejaVuSans-30" x="431.298828"/>
     <use xlink:href="#DejaVuSans-35" x="494.921875"/>
    </g>
   </g>
   <g id="text_20">
    <!-- n = 58 -->
    <g transform="translate(71.139906 34.017232)scale(0.1 -0.1)">
     <use xlink:href="#DejaVuSans-6e"/>
     <use xlink:href="#DejaVuSans-20" x="63.378906"/>
     <use xlink:href="#DejaVuSans-3d" x="95.166016"/>
     <use xlink:href="#DejaVuSans-20" x="178.955078"/>
     <use xlink:href="#DejaVuSans-35" x="210.742188"/>
     <use xlink:href="#DejaVuSans-38" x="274.365234"/>
    </g>
   </g>
   <g id="text_21">
    <!-- SasaDiff vs PercentGpA_transformed -->
    <g transform="translate(138.574375 40.675714)scale(0.12 -0.12)">
     <defs>
      <path id="DejaVuSans-76" d="M 191 3500 
L 800 3500 
L 1894 563 
L 2988 3500 
L 3597 3500 
L 2284 0 
L 1503 0 
L 191 3500 
z
" transform="scale(0.015625)"/>
     </defs>
     <use xlink:href="#DejaVuSans-53"/>
     <use xlink:href="#DejaVuSans-61" x="63.476562"/>
     <use xlink:href="#DejaVuSans-73" x="124.755859"/>
     <use xlink:href="#DejaVuSans-61" x="176.855469"/>
     <use xlink:href="#DejaVuSans-44" x="238.134766"/>
     <use xlink:href="#DejaVuSans-69" x="315.136719"/>
     <use xlink:href="#DejaVuSans-66" x="342.919922"/>
     <use xlink:href="#DejaVuSans-66" x="378.125"/>
     <use xlink:href="#DejaVuSans-20" x="413.330078"/>
     <use xlink:href="#DejaVuSans-76" x="445.117188"/>
     <use xlink:href="#DejaVuSans-73" x="504.296875"/>
     <use xlink:href="#DejaVuSans-20" x="556.396484"/>
     <use xlink:href="#DejaVuSans-50" x="588.183594"/>
     <use xlink:href="#DejaVuSans-65" x="644.861328"/>
     <use xlink:href="#DejaVuSans-72" x="706.384766"/>
     <use xlink:href="#DejaVuSans-63" x="745.248047"/>
     <use xlink:href="#DejaVuSans-65" x="800.228516"/>
     <use xlink:href="#DejaVuSans-6e" x="861.751953"/>
     <use xlink:href="#DejaVuSans-74" x="925.130859"/>
     <use xlink:href="#DejaVuSans-47" x="964.339844"/>
     <use xlink:href="#DejaVuSans-70" x="1041.830078"/>
     <use xlink:href="#DejaVuSans-41" x="1105.306641"/>
     <use xlink:href="#DejaVuSans-5f" x="1173.714844"/>
     <use xlink:href="#DejaVuSans-74" x="1223.714844"/>
     <use xlink:href="#DejaVuSans-72" x="1262.923828"/>
     <use xlink:href="#DejaVuSans-61" x="1304.037109"/>
     <use xlink:href="#DejaVuSans-6e" x="1365.316406"/>
     <use xlink:href="#DejaVuSans-73" x="1428.695312"/>
     <use xlink:href="#DejaVuSans-66" x="1480.794922"/>
     <use xlink:href="#DejaVuSans-6f" x="1516"/>
     <use xlink:href="#DejaVuSans-72" x="1577.181641"/>
     <use xlink:href="#DejaVuSans-6d" x="1616.544922"/>
     <use xlink:href="#DejaVuSans-65" x="1713.957031"/>
     <use xlink:href="#DejaVuSans-64" x="1775.480469"/>
    </g>
   </g>
  </g>
 </g>
 <defs>
  <clipPath id="pbdeba3f461">
   <rect x="47.82125" y="46.675714" width="402.17875" height="256.964286"/>
  </clipPath>
 </defs>
</svg>
