<?xml version="1.0" encoding="utf-8" standalone="no"?>
<!DOCTYPE svg PUBLIC "-//W3C//DTD SVG 1.1//EN"
  "http://www.w3.org/Graphics/SVG/1.1/DTD/svg11.dtd">
<svg xmlns:xlink="http://www.w3.org/1999/xlink" width="460.8pt" height="345.6pt" viewBox="0 0 460.8 345.6" xmlns="http://www.w3.org/2000/svg" version="1.1">
 <metadata>
  <rdf:RDF xmlns:dc="http://purl.org/dc/elements/1.1/" xmlns:cc="http://creativecommons.org/ns#" xmlns:rdf="http://www.w3.org/1999/02/22-rdf-syntax-ns#">
   <cc:Work>
    <dc:type rdf:resource="http://purl.org/dc/dcmitype/StillImage"/>
    <dc:date>2024-02-03T13:06:30.316482</dc:date>
    <dc:format>image/svg+xml</dc:format>
    <dc:creator>
     <cc:Agent>
      <dc:title>Matplotlib v3.5.3, https://matplotlib.org/</dc:title>
     </cc:Agent>
    </dc:creator>
   </cc:Work>
  </rdf:RDF>
 </metadata>
 <defs>
  <style type="text/css">*{stroke-linejoin: round; stroke-linecap: butt}</style>
 </defs>
 <g id="figure_1">
  <g id="patch_1">
   <path d="M 0 345.6 
L 460.8 345.6 
L 460.8 0 
L 0 0 
z
" style="fill: #ffffff"/>
  </g>
  <g id="axes_1">
   <g id="patch_2">
    <path d="M 47.82125 303.64 
L 401.26 303.64 
L 401.26 46.675714 
L 47.82125 46.675714 
z
" style="fill: #ffffff"/>
   </g>
   <g id="PathCollection_1">
    <defs>
     <path id="m089d5528cf" d="M 0 3 
C 0.795609 3 1.55874 2.683901 2.12132 2.12132 
C 2.683901 1.55874 3 0.795609 3 0 
C 3 -0.795609 2.683901 -1.55874 2.12132 -2.12132 
C 1.55874 -2.683901 0.795609 -3 0 -3 
C -0.795609 -3 -1.55874 -2.683901 -2.12132 -2.12132 
C -2.683901 -1.55874 -3 -0.795609 -3 0 
C -3 0.795609 -2.683901 1.55874 -2.12132 2.12132 
C -1.55874 2.683901 -0.795609 3 0 3 
z
" style="stroke: #3cb371"/>
    </defs>
    <g clip-path="url(#p951b6fff4b)">
     <use xlink:href="#m089d5528cf" x="63.886648" y="196.984218" style="fill: #3cb371; stroke: #3cb371"/>
     <use xlink:href="#m089d5528cf" x="87.08279" y="184.867777" style="fill: #3cb371; stroke: #3cb371"/>
     <use xlink:href="#m089d5528cf" x="138.603382" y="185.144071" style="fill: #3cb371; stroke: #3cb371"/>
     <use xlink:href="#m089d5528cf" x="141.519148" y="203.059968" style="fill: #3cb371; stroke: #3cb371"/>
     <use xlink:href="#m089d5528cf" x="147.412399" y="281.060853" style="fill: #3cb371; stroke: #3cb371"/>
     <use xlink:href="#m089d5528cf" x="169.811802" y="148.132149" style="fill: #3cb371; stroke: #3cb371"/>
     <use xlink:href="#m089d5528cf" x="190.386748" y="193.874901" style="fill: #3cb371; stroke: #3cb371"/>
     <use xlink:href="#m089d5528cf" x="195.61605" y="211.783219" style="fill: #3cb371; stroke: #3cb371"/>
     <use xlink:href="#m089d5528cf" x="198.602886" y="202.542399" style="fill: #3cb371; stroke: #3cb371"/>
     <use xlink:href="#m089d5528cf" x="201.095034" y="276.802892" style="fill: #3cb371; stroke: #3cb371"/>
     <use xlink:href="#m089d5528cf" x="233.448065" y="239.824741" style="fill: #3cb371; stroke: #3cb371"/>
     <use xlink:href="#m089d5528cf" x="234.358891" y="186.547013" style="fill: #3cb371; stroke: #3cb371"/>
     <use xlink:href="#m089d5528cf" x="236.955775" y="279.825311" style="fill: #3cb371; stroke: #3cb371"/>
     <use xlink:href="#m089d5528cf" x="247.738872" y="218.210779" style="fill: #3cb371; stroke: #3cb371"/>
     <use xlink:href="#m089d5528cf" x="276.518734" y="207.527714" style="fill: #3cb371; stroke: #3cb371"/>
     <use xlink:href="#m089d5528cf" x="280.110606" y="196.860445" style="fill: #3cb371; stroke: #3cb371"/>
     <use xlink:href="#m089d5528cf" x="281.546981" y="278.233239" style="fill: #3cb371; stroke: #3cb371"/>
     <use xlink:href="#m089d5528cf" x="319.469705" y="285.502385" style="fill: #3cb371; stroke: #3cb371"/>
     <use xlink:href="#m089d5528cf" x="323.580579" y="201.341616" style="fill: #3cb371; stroke: #3cb371"/>
     <use xlink:href="#m089d5528cf" x="70.586924" y="165.81975" style="fill: #3cb371; stroke: #3cb371"/>
     <use xlink:href="#m089d5528cf" x="149.785784" y="197.99607" style="fill: #3cb371; stroke: #3cb371"/>
     <use xlink:href="#m089d5528cf" x="162.138045" y="172.668377" style="fill: #3cb371; stroke: #3cb371"/>
     <use xlink:href="#m089d5528cf" x="198.648708" y="188.177445" style="fill: #3cb371; stroke: #3cb371"/>
     <use xlink:href="#m089d5528cf" x="199.216338" y="171.24946" style="fill: #3cb371; stroke: #3cb371"/>
     <use xlink:href="#m089d5528cf" x="204.491462" y="190.815604" style="fill: #3cb371; stroke: #3cb371"/>
     <use xlink:href="#m089d5528cf" x="218.559705" y="184.222785" style="fill: #3cb371; stroke: #3cb371"/>
     <use xlink:href="#m089d5528cf" x="229.010827" y="266.012799" style="fill: #3cb371; stroke: #3cb371"/>
     <use xlink:href="#m089d5528cf" x="259.327124" y="216.79447" style="fill: #3cb371; stroke: #3cb371"/>
     <use xlink:href="#m089d5528cf" x="262.391577" y="281.206777" style="fill: #3cb371; stroke: #3cb371"/>
     <use xlink:href="#m089d5528cf" x="268.26706" y="254.5655" style="fill: #3cb371; stroke: #3cb371"/>
     <use xlink:href="#m089d5528cf" x="282.628937" y="196.269109" style="fill: #3cb371; stroke: #3cb371"/>
     <use xlink:href="#m089d5528cf" x="284.341178" y="235.722664" style="fill: #3cb371; stroke: #3cb371"/>
     <use xlink:href="#m089d5528cf" x="294.034837" y="269.158607" style="fill: #3cb371; stroke: #3cb371"/>
     <use xlink:href="#m089d5528cf" x="298.470205" y="230.119976" style="fill: #3cb371; stroke: #3cb371"/>
    </g>
   </g>
   <g id="PathCollection_2">
    <defs>
     <path id="mf938e34729" d="M 0 3 
C 0.795609 3 1.55874 2.683901 2.12132 2.12132 
C 2.683901 1.55874 3 0.795609 3 0 
C 3 -0.795609 2.683901 -1.55874 2.12132 -2.12132 
C 1.55874 -2.683901 0.795609 -3 0 -3 
C -0.795609 -3 -1.55874 -2.683901 -2.12132 -2.12132 
C -2.683901 -1.55874 -3 -0.795609 -3 0 
C -3 0.795609 -2.683901 1.55874 -2.12132 2.12132 
C -1.55874 2.683901 -0.795609 3 0 3 
z
" style="stroke: #ffdead"/>
    </defs>
    <g clip-path="url(#p951b6fff4b)">
     <use xlink:href="#mf938e34729" x="243.237109" y="267.491859" style="fill: #ffdead; stroke: #ffdead"/>
     <use xlink:href="#mf938e34729" x="316.783048" y="275.413147" style="fill: #ffdead; stroke: #ffdead"/>
     <use xlink:href="#mf938e34729" x="377.471283" y="247.039383" style="fill: #ffdead; stroke: #ffdead"/>
     <use xlink:href="#mf938e34729" x="133.482557" y="274.423891" style="fill: #ffdead; stroke: #ffdead"/>
     <use xlink:href="#mf938e34729" x="152.108671" y="259.15732" style="fill: #ffdead; stroke: #ffdead"/>
     <use xlink:href="#mf938e34729" x="190.871151" y="259.959018" style="fill: #ffdead; stroke: #ffdead"/>
     <use xlink:href="#mf938e34729" x="286.722044" y="260.736801" style="fill: #ffdead; stroke: #ffdead"/>
    </g>
   </g>
   <g id="PathCollection_3">
    <defs>
     <path id="mc99002b11f" d="M 0 3 
C 0.795609 3 1.55874 2.683901 2.12132 2.12132 
C 2.683901 1.55874 3 0.795609 3 0 
C 3 -0.795609 2.683901 -1.55874 2.12132 -2.12132 
C 1.55874 -2.683901 0.795609 -3 0 -3 
C -0.795609 -3 -1.55874 -2.683901 -2.12132 -2.12132 
C -2.683901 -1.55874 -3 -0.795609 -3 0 
C -3 0.795609 -2.683901 1.55874 -2.12132 2.12132 
C -1.55874 2.683901 -0.795609 3 0 3 
z
" style="stroke: #483d8b"/>
    </defs>
    <g clip-path="url(#p951b6fff4b)">
     <use xlink:href="#mc99002b11f" x="267.027065" y="261.294275" style="fill: #483d8b; stroke: #483d8b"/>
     <use xlink:href="#mc99002b11f" x="268.286698" y="269.701422" style="fill: #483d8b; stroke: #483d8b"/>
     <use xlink:href="#mc99002b11f" x="305.253709" y="277.697922" style="fill: #483d8b; stroke: #483d8b"/>
     <use xlink:href="#mc99002b11f" x="318.149287" y="266.030696" style="fill: #483d8b; stroke: #483d8b"/>
     <use xlink:href="#mc99002b11f" x="319.311666" y="282.151004" style="fill: #483d8b; stroke: #483d8b"/>
     <use xlink:href="#mc99002b11f" x="337.747947" y="278.971765" style="fill: #483d8b; stroke: #483d8b"/>
     <use xlink:href="#mc99002b11f" x="338.19962" y="271.717791" style="fill: #483d8b; stroke: #483d8b"/>
     <use xlink:href="#mc99002b11f" x="356.65984" y="272.432225" style="fill: #483d8b; stroke: #483d8b"/>
     <use xlink:href="#mc99002b11f" x="356.788048" y="280.569717" style="fill: #483d8b; stroke: #483d8b"/>
     <use xlink:href="#mc99002b11f" x="356.983866" y="270.885843" style="fill: #483d8b; stroke: #483d8b"/>
     <use xlink:href="#mc99002b11f" x="368.31402" y="266.509386" style="fill: #483d8b; stroke: #483d8b"/>
     <use xlink:href="#mc99002b11f" x="371.139545" y="282.429981" style="fill: #483d8b; stroke: #483d8b"/>
     <use xlink:href="#mc99002b11f" x="376.337426" y="279.666062" style="fill: #483d8b; stroke: #483d8b"/>
     <use xlink:href="#mc99002b11f" x="376.729997" y="276.858773" style="fill: #483d8b; stroke: #483d8b"/>
     <use xlink:href="#mc99002b11f" x="385.187682" y="273.210977" style="fill: #483d8b; stroke: #483d8b"/>
     <use xlink:href="#mc99002b11f" x="385.194602" y="270.190818" style="fill: #483d8b; stroke: #483d8b"/>
     <use xlink:href="#mc99002b11f" x="284.950889" y="277.736693" style="fill: #483d8b; stroke: #483d8b"/>
     <use xlink:href="#mc99002b11f" x="309.524493" y="249.366204" style="fill: #483d8b; stroke: #483d8b"/>
     <use xlink:href="#mc99002b11f" x="323.228031" y="262.960802" style="fill: #483d8b; stroke: #483d8b"/>
     <use xlink:href="#mc99002b11f" x="327.510037" y="266.629136" style="fill: #483d8b; stroke: #483d8b"/>
     <use xlink:href="#mc99002b11f" x="327.746627" y="243.571064" style="fill: #483d8b; stroke: #483d8b"/>
     <use xlink:href="#mc99002b11f" x="340.318646" y="270.427863" style="fill: #483d8b; stroke: #483d8b"/>
     <use xlink:href="#mc99002b11f" x="346.635048" y="246.936135" style="fill: #483d8b; stroke: #483d8b"/>
     <use xlink:href="#mc99002b11f" x="356.260722" y="263.990034" style="fill: #483d8b; stroke: #483d8b"/>
     <use xlink:href="#mc99002b11f" x="359.681557" y="286.190873" style="fill: #483d8b; stroke: #483d8b"/>
     <use xlink:href="#mc99002b11f" x="365.158952" y="277.240499" style="fill: #483d8b; stroke: #483d8b"/>
     <use xlink:href="#mc99002b11f" x="385.107541" y="212.925292" style="fill: #483d8b; stroke: #483d8b"/>
    </g>
   </g>
   <g id="matplotlib.axis_1">
    <g id="xtick_1">
     <g id="line2d_1">
      <defs>
       <path id="m87bc9c962c" d="M 0 0 
L 0 3.5 
" style="stroke: #000000; stroke-width: 0.8"/>
      </defs>
      <g>
       <use xlink:href="#m87bc9c962c" x="61.713383" y="303.64" style="stroke: #000000; stroke-width: 0.8"/>
      </g>
     </g>
     <g id="text_1">
      <!-- −40 -->
      <g transform="translate(51.161039 318.238437)scale(0.1 -0.1)">
       <defs>
        <path id="DejaVuSans-2212" d="M 678 2272 
L 4684 2272 
L 4684 1741 
L 678 1741 
L 678 2272 
z
" transform="scale(0.015625)"/>
        <path id="DejaVuSans-34" d="M 2419 4116 
L 825 1625 
L 2419 1625 
L 2419 4116 
z
M 2253 4666 
L 3047 4666 
L 3047 1625 
L 3713 1625 
L 3713 1100 
L 3047 1100 
L 3047 0 
L 2419 0 
L 2419 1100 
L 313 1100 
L 313 1709 
L 2253 4666 
z
" transform="scale(0.015625)"/>
        <path id="DejaVuSans-30" d="M 2034 4250 
Q 1547 4250 1301 3770 
Q 1056 3291 1056 2328 
Q 1056 1369 1301 889 
Q 1547 409 2034 409 
Q 2525 409 2770 889 
Q 3016 1369 3016 2328 
Q 3016 3291 2770 3770 
Q 2525 4250 2034 4250 
z
M 2034 4750 
Q 2819 4750 3233 4129 
Q 3647 3509 3647 2328 
Q 3647 1150 3233 529 
Q 2819 -91 2034 -91 
Q 1250 -91 836 529 
Q 422 1150 422 2328 
Q 422 3509 836 4129 
Q 1250 4750 2034 4750 
z
" transform="scale(0.015625)"/>
       </defs>
       <use xlink:href="#DejaVuSans-2212"/>
       <use xlink:href="#DejaVuSans-34" x="83.789062"/>
       <use xlink:href="#DejaVuSans-30" x="147.412109"/>
      </g>
     </g>
    </g>
    <g id="xtick_2">
     <g id="line2d_2">
      <g>
       <use xlink:href="#m87bc9c962c" x="108.470373" y="303.64" style="stroke: #000000; stroke-width: 0.8"/>
      </g>
     </g>
     <g id="text_2">
      <!-- −35 -->
      <g transform="translate(97.918029 318.238437)scale(0.1 -0.1)">
       <defs>
        <path id="DejaVuSans-33" d="M 2597 2516 
Q 3050 2419 3304 2112 
Q 3559 1806 3559 1356 
Q 3559 666 3084 287 
Q 2609 -91 1734 -91 
Q 1441 -91 1130 -33 
Q 819 25 488 141 
L 488 750 
Q 750 597 1062 519 
Q 1375 441 1716 441 
Q 2309 441 2620 675 
Q 2931 909 2931 1356 
Q 2931 1769 2642 2001 
Q 2353 2234 1838 2234 
L 1294 2234 
L 1294 2753 
L 1863 2753 
Q 2328 2753 2575 2939 
Q 2822 3125 2822 3475 
Q 2822 3834 2567 4026 
Q 2313 4219 1838 4219 
Q 1578 4219 1281 4162 
Q 984 4106 628 3988 
L 628 4550 
Q 988 4650 1302 4700 
Q 1616 4750 1894 4750 
Q 2613 4750 3031 4423 
Q 3450 4097 3450 3541 
Q 3450 3153 3228 2886 
Q 3006 2619 2597 2516 
z
" transform="scale(0.015625)"/>
        <path id="DejaVuSans-35" d="M 691 4666 
L 3169 4666 
L 3169 4134 
L 1269 4134 
L 1269 2991 
Q 1406 3038 1543 3061 
Q 1681 3084 1819 3084 
Q 2600 3084 3056 2656 
Q 3513 2228 3513 1497 
Q 3513 744 3044 326 
Q 2575 -91 1722 -91 
Q 1428 -91 1123 -41 
Q 819 9 494 109 
L 494 744 
Q 775 591 1075 516 
Q 1375 441 1709 441 
Q 2250 441 2565 725 
Q 2881 1009 2881 1497 
Q 2881 1984 2565 2268 
Q 2250 2553 1709 2553 
Q 1456 2553 1204 2497 
Q 953 2441 691 2322 
L 691 4666 
z
" transform="scale(0.015625)"/>
       </defs>
       <use xlink:href="#DejaVuSans-2212"/>
       <use xlink:href="#DejaVuSans-33" x="83.789062"/>
       <use xlink:href="#DejaVuSans-35" x="147.412109"/>
      </g>
     </g>
    </g>
    <g id="xtick_3">
     <g id="line2d_3">
      <g>
       <use xlink:href="#m87bc9c962c" x="155.227362" y="303.64" style="stroke: #000000; stroke-width: 0.8"/>
      </g>
     </g>
     <g id="text_3">
      <!-- −30 -->
      <g transform="translate(144.675018 318.238437)scale(0.1 -0.1)">
       <use xlink:href="#DejaVuSans-2212"/>
       <use xlink:href="#DejaVuSans-33" x="83.789062"/>
       <use xlink:href="#DejaVuSans-30" x="147.412109"/>
      </g>
     </g>
    </g>
    <g id="xtick_4">
     <g id="line2d_4">
      <g>
       <use xlink:href="#m87bc9c962c" x="201.984352" y="303.64" style="stroke: #000000; stroke-width: 0.8"/>
      </g>
     </g>
     <g id="text_4">
      <!-- −25 -->
      <g transform="translate(191.432008 318.238437)scale(0.1 -0.1)">
       <defs>
        <path id="DejaVuSans-32" d="M 1228 531 
L 3431 531 
L 3431 0 
L 469 0 
L 469 531 
Q 828 903 1448 1529 
Q 2069 2156 2228 2338 
Q 2531 2678 2651 2914 
Q 2772 3150 2772 3378 
Q 2772 3750 2511 3984 
Q 2250 4219 1831 4219 
Q 1534 4219 1204 4116 
Q 875 4013 500 3803 
L 500 4441 
Q 881 4594 1212 4672 
Q 1544 4750 1819 4750 
Q 2544 4750 2975 4387 
Q 3406 4025 3406 3419 
Q 3406 3131 3298 2873 
Q 3191 2616 2906 2266 
Q 2828 2175 2409 1742 
Q 1991 1309 1228 531 
z
" transform="scale(0.015625)"/>
       </defs>
       <use xlink:href="#DejaVuSans-2212"/>
       <use xlink:href="#DejaVuSans-32" x="83.789062"/>
       <use xlink:href="#DejaVuSans-35" x="147.412109"/>
      </g>
     </g>
    </g>
    <g id="xtick_5">
     <g id="line2d_5">
      <g>
       <use xlink:href="#m87bc9c962c" x="248.741341" y="303.64" style="stroke: #000000; stroke-width: 0.8"/>
      </g>
     </g>
     <g id="text_5">
      <!-- −20 -->
      <g transform="translate(238.188998 318.238437)scale(0.1 -0.1)">
       <use xlink:href="#DejaVuSans-2212"/>
       <use xlink:href="#DejaVuSans-32" x="83.789062"/>
       <use xlink:href="#DejaVuSans-30" x="147.412109"/>
      </g>
     </g>
    </g>
    <g id="xtick_6">
     <g id="line2d_6">
      <g>
       <use xlink:href="#m87bc9c962c" x="295.498331" y="303.64" style="stroke: #000000; stroke-width: 0.8"/>
      </g>
     </g>
     <g id="text_6">
      <!-- −15 -->
      <g transform="translate(284.945987 318.238437)scale(0.1 -0.1)">
       <defs>
        <path id="DejaVuSans-31" d="M 794 531 
L 1825 531 
L 1825 4091 
L 703 3866 
L 703 4441 
L 1819 4666 
L 2450 4666 
L 2450 531 
L 3481 531 
L 3481 0 
L 794 0 
L 794 531 
z
" transform="scale(0.015625)"/>
       </defs>
       <use xlink:href="#DejaVuSans-2212"/>
       <use xlink:href="#DejaVuSans-31" x="83.789062"/>
       <use xlink:href="#DejaVuSans-35" x="147.412109"/>
      </g>
     </g>
    </g>
    <g id="xtick_7">
     <g id="line2d_7">
      <g>
       <use xlink:href="#m87bc9c962c" x="342.255321" y="303.64" style="stroke: #000000; stroke-width: 0.8"/>
      </g>
     </g>
     <g id="text_7">
      <!-- −10 -->
      <g transform="translate(331.702977 318.238437)scale(0.1 -0.1)">
       <use xlink:href="#DejaVuSans-2212"/>
       <use xlink:href="#DejaVuSans-31" x="83.789062"/>
       <use xlink:href="#DejaVuSans-30" x="147.412109"/>
      </g>
     </g>
    </g>
    <g id="xtick_8">
     <g id="line2d_8">
      <g>
       <use xlink:href="#m87bc9c962c" x="389.01231" y="303.64" style="stroke: #000000; stroke-width: 0.8"/>
      </g>
     </g>
     <g id="text_8">
      <!-- −5 -->
      <g transform="translate(381.641217 318.238437)scale(0.1 -0.1)">
       <use xlink:href="#DejaVuSans-2212"/>
       <use xlink:href="#DejaVuSans-35" x="83.789062"/>
      </g>
     </g>
    </g>
    <g id="text_9">
     <!-- Total -->
     <g transform="translate(212.864062 331.916562)scale(0.1 -0.1)">
      <defs>
       <path id="DejaVuSans-54" d="M -19 4666 
L 3928 4666 
L 3928 4134 
L 2272 4134 
L 2272 0 
L 1638 0 
L 1638 4134 
L -19 4134 
L -19 4666 
z
" transform="scale(0.015625)"/>
       <path id="DejaVuSans-6f" d="M 1959 3097 
Q 1497 3097 1228 2736 
Q 959 2375 959 1747 
Q 959 1119 1226 758 
Q 1494 397 1959 397 
Q 2419 397 2687 759 
Q 2956 1122 2956 1747 
Q 2956 2369 2687 2733 
Q 2419 3097 1959 3097 
z
M 1959 3584 
Q 2709 3584 3137 3096 
Q 3566 2609 3566 1747 
Q 3566 888 3137 398 
Q 2709 -91 1959 -91 
Q 1206 -91 779 398 
Q 353 888 353 1747 
Q 353 2609 779 3096 
Q 1206 3584 1959 3584 
z
" transform="scale(0.015625)"/>
       <path id="DejaVuSans-74" d="M 1172 4494 
L 1172 3500 
L 2356 3500 
L 2356 3053 
L 1172 3053 
L 1172 1153 
Q 1172 725 1289 603 
Q 1406 481 1766 481 
L 2356 481 
L 2356 0 
L 1766 0 
Q 1100 0 847 248 
Q 594 497 594 1153 
L 594 3053 
L 172 3053 
L 172 3500 
L 594 3500 
L 594 4494 
L 1172 4494 
z
" transform="scale(0.015625)"/>
       <path id="DejaVuSans-61" d="M 2194 1759 
Q 1497 1759 1228 1600 
Q 959 1441 959 1056 
Q 959 750 1161 570 
Q 1363 391 1709 391 
Q 2188 391 2477 730 
Q 2766 1069 2766 1631 
L 2766 1759 
L 2194 1759 
z
M 3341 1997 
L 3341 0 
L 2766 0 
L 2766 531 
Q 2569 213 2275 61 
Q 1981 -91 1556 -91 
Q 1019 -91 701 211 
Q 384 513 384 1019 
Q 384 1609 779 1909 
Q 1175 2209 1959 2209 
L 2766 2209 
L 2766 2266 
Q 2766 2663 2505 2880 
Q 2244 3097 1772 3097 
Q 1472 3097 1187 3025 
Q 903 2953 641 2809 
L 641 3341 
Q 956 3463 1253 3523 
Q 1550 3584 1831 3584 
Q 2591 3584 2966 3190 
Q 3341 2797 3341 1997 
z
" transform="scale(0.015625)"/>
       <path id="DejaVuSans-6c" d="M 603 4863 
L 1178 4863 
L 1178 0 
L 603 0 
L 603 4863 
z
" transform="scale(0.015625)"/>
      </defs>
      <use xlink:href="#DejaVuSans-54"/>
      <use xlink:href="#DejaVuSans-6f" x="44.083984"/>
      <use xlink:href="#DejaVuSans-74" x="105.265625"/>
      <use xlink:href="#DejaVuSans-61" x="144.474609"/>
      <use xlink:href="#DejaVuSans-6c" x="205.753906"/>
     </g>
    </g>
   </g>
   <g id="matplotlib.axis_2">
    <g id="ytick_1">
     <g id="line2d_9">
      <defs>
       <path id="mc63aa6b14b" d="M 0 0 
L -3.5 0 
" style="stroke: #000000; stroke-width: 0.8"/>
      </defs>
      <g>
       <use xlink:href="#mc63aa6b14b" x="47.82125" y="303.64" style="stroke: #000000; stroke-width: 0.8"/>
      </g>
     </g>
     <g id="text_10">
      <!-- 0.0 -->
      <g transform="translate(24.918125 307.439219)scale(0.1 -0.1)">
       <defs>
        <path id="DejaVuSans-2e" d="M 684 794 
L 1344 794 
L 1344 0 
L 684 0 
L 684 794 
z
" transform="scale(0.015625)"/>
       </defs>
       <use xlink:href="#DejaVuSans-30"/>
       <use xlink:href="#DejaVuSans-2e" x="63.623047"/>
       <use xlink:href="#DejaVuSans-30" x="95.410156"/>
      </g>
     </g>
    </g>
    <g id="ytick_2">
     <g id="line2d_10">
      <g>
       <use xlink:href="#mc63aa6b14b" x="47.82125" y="260.348715" style="stroke: #000000; stroke-width: 0.8"/>
      </g>
     </g>
     <g id="text_11">
      <!-- 0.5 -->
      <g transform="translate(24.918125 264.147934)scale(0.1 -0.1)">
       <use xlink:href="#DejaVuSans-30"/>
       <use xlink:href="#DejaVuSans-2e" x="63.623047"/>
       <use xlink:href="#DejaVuSans-35" x="95.410156"/>
      </g>
     </g>
    </g>
    <g id="ytick_3">
     <g id="line2d_11">
      <g>
       <use xlink:href="#mc63aa6b14b" x="47.82125" y="217.057431" style="stroke: #000000; stroke-width: 0.8"/>
      </g>
     </g>
     <g id="text_12">
      <!-- 1.0 -->
      <g transform="translate(24.918125 220.85665)scale(0.1 -0.1)">
       <use xlink:href="#DejaVuSans-31"/>
       <use xlink:href="#DejaVuSans-2e" x="63.623047"/>
       <use xlink:href="#DejaVuSans-30" x="95.410156"/>
      </g>
     </g>
    </g>
    <g id="ytick_4">
     <g id="line2d_12">
      <g>
       <use xlink:href="#mc63aa6b14b" x="47.82125" y="173.766146" style="stroke: #000000; stroke-width: 0.8"/>
      </g>
     </g>
     <g id="text_13">
      <!-- 1.5 -->
      <g transform="translate(24.918125 177.565365)scale(0.1 -0.1)">
       <use xlink:href="#DejaVuSans-31"/>
       <use xlink:href="#DejaVuSans-2e" x="63.623047"/>
       <use xlink:href="#DejaVuSans-35" x="95.410156"/>
      </g>
     </g>
    </g>
    <g id="ytick_5">
     <g id="line2d_13">
      <g>
       <use xlink:href="#mc63aa6b14b" x="47.82125" y="130.474862" style="stroke: #000000; stroke-width: 0.8"/>
      </g>
     </g>
     <g id="text_14">
      <!-- 2.0 -->
      <g transform="translate(24.918125 134.274081)scale(0.1 -0.1)">
       <use xlink:href="#DejaVuSans-32"/>
       <use xlink:href="#DejaVuSans-2e" x="63.623047"/>
       <use xlink:href="#DejaVuSans-30" x="95.410156"/>
      </g>
     </g>
    </g>
    <g id="ytick_6">
     <g id="line2d_14">
      <g>
       <use xlink:href="#mc63aa6b14b" x="47.82125" y="87.183577" style="stroke: #000000; stroke-width: 0.8"/>
      </g>
     </g>
     <g id="text_15">
      <!-- 2.5 -->
      <g transform="translate(24.918125 90.982796)scale(0.1 -0.1)">
       <use xlink:href="#DejaVuSans-32"/>
       <use xlink:href="#DejaVuSans-2e" x="63.623047"/>
       <use xlink:href="#DejaVuSans-35" x="95.410156"/>
      </g>
     </g>
    </g>
    <g id="text_16">
     <!-- PercentGpA_transformed -->
     <g transform="translate(18.560313 237.696138)rotate(-90)scale(0.1 -0.1)">
      <defs>
       <path id="DejaVuSans-50" d="M 1259 4147 
L 1259 2394 
L 2053 2394 
Q 2494 2394 2734 2622 
Q 2975 2850 2975 3272 
Q 2975 3691 2734 3919 
Q 2494 4147 2053 4147 
L 1259 4147 
z
M 628 4666 
L 2053 4666 
Q 2838 4666 3239 4311 
Q 3641 3956 3641 3272 
Q 3641 2581 3239 2228 
Q 2838 1875 2053 1875 
L 1259 1875 
L 1259 0 
L 628 0 
L 628 4666 
z
" transform="scale(0.015625)"/>
       <path id="DejaVuSans-65" d="M 3597 1894 
L 3597 1613 
L 953 1613 
Q 991 1019 1311 708 
Q 1631 397 2203 397 
Q 2534 397 2845 478 
Q 3156 559 3463 722 
L 3463 178 
Q 3153 47 2828 -22 
Q 2503 -91 2169 -91 
Q 1331 -91 842 396 
Q 353 884 353 1716 
Q 353 2575 817 3079 
Q 1281 3584 2069 3584 
Q 2775 3584 3186 3129 
Q 3597 2675 3597 1894 
z
M 3022 2063 
Q 3016 2534 2758 2815 
Q 2500 3097 2075 3097 
Q 1594 3097 1305 2825 
Q 1016 2553 972 2059 
L 3022 2063 
z
" transform="scale(0.015625)"/>
       <path id="DejaVuSans-72" d="M 2631 2963 
Q 2534 3019 2420 3045 
Q 2306 3072 2169 3072 
Q 1681 3072 1420 2755 
Q 1159 2438 1159 1844 
L 1159 0 
L 581 0 
L 581 3500 
L 1159 3500 
L 1159 2956 
Q 1341 3275 1631 3429 
Q 1922 3584 2338 3584 
Q 2397 3584 2469 3576 
Q 2541 3569 2628 3553 
L 2631 2963 
z
" transform="scale(0.015625)"/>
       <path id="DejaVuSans-63" d="M 3122 3366 
L 3122 2828 
Q 2878 2963 2633 3030 
Q 2388 3097 2138 3097 
Q 1578 3097 1268 2742 
Q 959 2388 959 1747 
Q 959 1106 1268 751 
Q 1578 397 2138 397 
Q 2388 397 2633 464 
Q 2878 531 3122 666 
L 3122 134 
Q 2881 22 2623 -34 
Q 2366 -91 2075 -91 
Q 1284 -91 818 406 
Q 353 903 353 1747 
Q 353 2603 823 3093 
Q 1294 3584 2113 3584 
Q 2378 3584 2631 3529 
Q 2884 3475 3122 3366 
z
" transform="scale(0.015625)"/>
       <path id="DejaVuSans-6e" d="M 3513 2113 
L 3513 0 
L 2938 0 
L 2938 2094 
Q 2938 2591 2744 2837 
Q 2550 3084 2163 3084 
Q 1697 3084 1428 2787 
Q 1159 2491 1159 1978 
L 1159 0 
L 581 0 
L 581 3500 
L 1159 3500 
L 1159 2956 
Q 1366 3272 1645 3428 
Q 1925 3584 2291 3584 
Q 2894 3584 3203 3211 
Q 3513 2838 3513 2113 
z
" transform="scale(0.015625)"/>
       <path id="DejaVuSans-47" d="M 3809 666 
L 3809 1919 
L 2778 1919 
L 2778 2438 
L 4434 2438 
L 4434 434 
Q 4069 175 3628 42 
Q 3188 -91 2688 -91 
Q 1594 -91 976 548 
Q 359 1188 359 2328 
Q 359 3472 976 4111 
Q 1594 4750 2688 4750 
Q 3144 4750 3555 4637 
Q 3966 4525 4313 4306 
L 4313 3634 
Q 3963 3931 3569 4081 
Q 3175 4231 2741 4231 
Q 1884 4231 1454 3753 
Q 1025 3275 1025 2328 
Q 1025 1384 1454 906 
Q 1884 428 2741 428 
Q 3075 428 3337 486 
Q 3600 544 3809 666 
z
" transform="scale(0.015625)"/>
       <path id="DejaVuSans-70" d="M 1159 525 
L 1159 -1331 
L 581 -1331 
L 581 3500 
L 1159 3500 
L 1159 2969 
Q 1341 3281 1617 3432 
Q 1894 3584 2278 3584 
Q 2916 3584 3314 3078 
Q 3713 2572 3713 1747 
Q 3713 922 3314 415 
Q 2916 -91 2278 -91 
Q 1894 -91 1617 61 
Q 1341 213 1159 525 
z
M 3116 1747 
Q 3116 2381 2855 2742 
Q 2594 3103 2138 3103 
Q 1681 3103 1420 2742 
Q 1159 2381 1159 1747 
Q 1159 1113 1420 752 
Q 1681 391 2138 391 
Q 2594 391 2855 752 
Q 3116 1113 3116 1747 
z
" transform="scale(0.015625)"/>
       <path id="DejaVuSans-41" d="M 2188 4044 
L 1331 1722 
L 3047 1722 
L 2188 4044 
z
M 1831 4666 
L 2547 4666 
L 4325 0 
L 3669 0 
L 3244 1197 
L 1141 1197 
L 716 0 
L 50 0 
L 1831 4666 
z
" transform="scale(0.015625)"/>
       <path id="DejaVuSans-5f" d="M 3263 -1063 
L 3263 -1509 
L -63 -1509 
L -63 -1063 
L 3263 -1063 
z
" transform="scale(0.015625)"/>
       <path id="DejaVuSans-73" d="M 2834 3397 
L 2834 2853 
Q 2591 2978 2328 3040 
Q 2066 3103 1784 3103 
Q 1356 3103 1142 2972 
Q 928 2841 928 2578 
Q 928 2378 1081 2264 
Q 1234 2150 1697 2047 
L 1894 2003 
Q 2506 1872 2764 1633 
Q 3022 1394 3022 966 
Q 3022 478 2636 193 
Q 2250 -91 1575 -91 
Q 1294 -91 989 -36 
Q 684 19 347 128 
L 347 722 
Q 666 556 975 473 
Q 1284 391 1588 391 
Q 1994 391 2212 530 
Q 2431 669 2431 922 
Q 2431 1156 2273 1281 
Q 2116 1406 1581 1522 
L 1381 1569 
Q 847 1681 609 1914 
Q 372 2147 372 2553 
Q 372 3047 722 3315 
Q 1072 3584 1716 3584 
Q 2034 3584 2315 3537 
Q 2597 3491 2834 3397 
z
" transform="scale(0.015625)"/>
       <path id="DejaVuSans-66" d="M 2375 4863 
L 2375 4384 
L 1825 4384 
Q 1516 4384 1395 4259 
Q 1275 4134 1275 3809 
L 1275 3500 
L 2222 3500 
L 2222 3053 
L 1275 3053 
L 1275 0 
L 697 0 
L 697 3053 
L 147 3053 
L 147 3500 
L 697 3500 
L 697 3744 
Q 697 4328 969 4595 
Q 1241 4863 1831 4863 
L 2375 4863 
z
" transform="scale(0.015625)"/>
       <path id="DejaVuSans-6d" d="M 3328 2828 
Q 3544 3216 3844 3400 
Q 4144 3584 4550 3584 
Q 5097 3584 5394 3201 
Q 5691 2819 5691 2113 
L 5691 0 
L 5113 0 
L 5113 2094 
Q 5113 2597 4934 2840 
Q 4756 3084 4391 3084 
Q 3944 3084 3684 2787 
Q 3425 2491 3425 1978 
L 3425 0 
L 2847 0 
L 2847 2094 
Q 2847 2600 2669 2842 
Q 2491 3084 2119 3084 
Q 1678 3084 1418 2786 
Q 1159 2488 1159 1978 
L 1159 0 
L 581 0 
L 581 3500 
L 1159 3500 
L 1159 2956 
Q 1356 3278 1631 3431 
Q 1906 3584 2284 3584 
Q 2666 3584 2933 3390 
Q 3200 3197 3328 2828 
z
" transform="scale(0.015625)"/>
       <path id="DejaVuSans-64" d="M 2906 2969 
L 2906 4863 
L 3481 4863 
L 3481 0 
L 2906 0 
L 2906 525 
Q 2725 213 2448 61 
Q 2172 -91 1784 -91 
Q 1150 -91 751 415 
Q 353 922 353 1747 
Q 353 2572 751 3078 
Q 1150 3584 1784 3584 
Q 2172 3584 2448 3432 
Q 2725 3281 2906 2969 
z
M 947 1747 
Q 947 1113 1208 752 
Q 1469 391 1925 391 
Q 2381 391 2643 752 
Q 2906 1113 2906 1747 
Q 2906 2381 2643 2742 
Q 2381 3103 1925 3103 
Q 1469 3103 1208 2742 
Q 947 2381 947 1747 
z
" transform="scale(0.015625)"/>
      </defs>
      <use xlink:href="#DejaVuSans-50"/>
      <use xlink:href="#DejaVuSans-65" x="56.677734"/>
      <use xlink:href="#DejaVuSans-72" x="118.201172"/>
      <use xlink:href="#DejaVuSans-63" x="157.064453"/>
      <use xlink:href="#DejaVuSans-65" x="212.044922"/>
      <use xlink:href="#DejaVuSans-6e" x="273.568359"/>
      <use xlink:href="#DejaVuSans-74" x="336.947266"/>
      <use xlink:href="#DejaVuSans-47" x="376.15625"/>
      <use xlink:href="#DejaVuSans-70" x="453.646484"/>
      <use xlink:href="#DejaVuSans-41" x="517.123047"/>
      <use xlink:href="#DejaVuSans-5f" x="585.53125"/>
      <use xlink:href="#DejaVuSans-74" x="635.53125"/>
      <use xlink:href="#DejaVuSans-72" x="674.740234"/>
      <use xlink:href="#DejaVuSans-61" x="715.853516"/>
      <use xlink:href="#DejaVuSans-6e" x="777.132812"/>
      <use xlink:href="#DejaVuSans-73" x="840.511719"/>
      <use xlink:href="#DejaVuSans-66" x="892.611328"/>
      <use xlink:href="#DejaVuSans-6f" x="927.816406"/>
      <use xlink:href="#DejaVuSans-72" x="988.998047"/>
      <use xlink:href="#DejaVuSans-6d" x="1028.361328"/>
      <use xlink:href="#DejaVuSans-65" x="1125.773438"/>
      <use xlink:href="#DejaVuSans-64" x="1187.296875"/>
     </g>
    </g>
   </g>
   <g id="LineCollection_1">
    <path d="M 63.886648 203.094598 
L 63.886648 190.873838 
" clip-path="url(#p951b6fff4b)" style="fill: none; stroke: #d3d3d3; stroke-width: 3"/>
    <path d="M 87.08279 192.188401 
L 87.08279 177.547154 
" clip-path="url(#p951b6fff4b)" style="fill: none; stroke: #d3d3d3; stroke-width: 3"/>
    <path d="M 138.603382 199.890489 
L 138.603382 170.397654 
" clip-path="url(#p951b6fff4b)" style="fill: none; stroke: #d3d3d3; stroke-width: 3"/>
    <path d="M 141.519148 286.182592 
L 141.519148 119.937345 
" clip-path="url(#p951b6fff4b)" style="fill: none; stroke: #d3d3d3; stroke-width: 3"/>
    <path d="M 147.412399 287.808331 
L 147.412399 274.313376 
" clip-path="url(#p951b6fff4b)" style="fill: none; stroke: #d3d3d3; stroke-width: 3"/>
    <path d="M 169.811802 237.891743 
L 169.811802 58.372556 
" clip-path="url(#p951b6fff4b)" style="fill: none; stroke: #d3d3d3; stroke-width: 3"/>
    <path d="M 190.386748 203.687114 
L 190.386748 184.062689 
" clip-path="url(#p951b6fff4b)" style="fill: none; stroke: #d3d3d3; stroke-width: 3"/>
    <path d="M 195.61605 217.437976 
L 195.61605 206.128463 
" clip-path="url(#p951b6fff4b)" style="fill: none; stroke: #d3d3d3; stroke-width: 3"/>
    <path d="M 198.602886 213.888825 
L 198.602886 191.195973 
" clip-path="url(#p951b6fff4b)" style="fill: none; stroke: #d3d3d3; stroke-width: 3"/>
    <path d="M 201.095034 280.735939 
L 201.095034 272.869846 
" clip-path="url(#p951b6fff4b)" style="fill: none; stroke: #d3d3d3; stroke-width: 3"/>
    <path d="M 233.448065 251.999255 
L 233.448065 227.650228 
" clip-path="url(#p951b6fff4b)" style="fill: none; stroke: #d3d3d3; stroke-width: 3"/>
    <path d="M 234.358891 200.794811 
L 234.358891 172.299214 
" clip-path="url(#p951b6fff4b)" style="fill: none; stroke: #d3d3d3; stroke-width: 3"/>
    <path d="M 236.955775 286.465432 
L 236.955775 273.18519 
" clip-path="url(#p951b6fff4b)" style="fill: none; stroke: #d3d3d3; stroke-width: 3"/>
    <path d="M 247.738872 224.428765 
L 247.738872 211.992793 
" clip-path="url(#p951b6fff4b)" style="fill: none; stroke: #d3d3d3; stroke-width: 3"/>
    <path d="M 276.518734 218.530683 
L 276.518734 196.524746 
" clip-path="url(#p951b6fff4b)" style="fill: none; stroke: #d3d3d3; stroke-width: 3"/>
    <path d="M 280.110606 204.318228 
L 280.110606 189.402662 
" clip-path="url(#p951b6fff4b)" style="fill: none; stroke: #d3d3d3; stroke-width: 3"/>
    <path d="M 281.546981 291.43209 
L 281.546981 265.034388 
" clip-path="url(#p951b6fff4b)" style="fill: none; stroke: #d3d3d3; stroke-width: 3"/>
    <path d="M 319.469705 287.797191 
L 319.469705 283.207578 
" clip-path="url(#p951b6fff4b)" style="fill: none; stroke: #d3d3d3; stroke-width: 3"/>
    <path d="M 323.580579 219.491895 
L 323.580579 183.191337 
" clip-path="url(#p951b6fff4b)" style="fill: none; stroke: #d3d3d3; stroke-width: 3"/>
    <path d="M 70.586924 192.315317 
L 70.586924 139.324182 
" clip-path="url(#p951b6fff4b)" style="fill: none; stroke: #d3d3d3; stroke-width: 3"/>
    <path d="M 149.785784 214.567608 
L 149.785784 181.424533 
" clip-path="url(#p951b6fff4b)" style="fill: none; stroke: #d3d3d3; stroke-width: 3"/>
    <path d="M 162.138045 180.988361 
L 162.138045 164.348393 
" clip-path="url(#p951b6fff4b)" style="fill: none; stroke: #d3d3d3; stroke-width: 3"/>
    <path d="M 198.648708 196.277486 
L 198.648708 180.077404 
" clip-path="url(#p951b6fff4b)" style="fill: none; stroke: #d3d3d3; stroke-width: 3"/>
    <path d="M 199.216338 185.916452 
L 199.216338 156.582468 
" clip-path="url(#p951b6fff4b)" style="fill: none; stroke: #d3d3d3; stroke-width: 3"/>
    <path d="M 204.491462 208.925255 
L 204.491462 172.705953 
" clip-path="url(#p951b6fff4b)" style="fill: none; stroke: #d3d3d3; stroke-width: 3"/>
    <path d="M 218.559705 192.3219 
L 218.559705 176.123669 
" clip-path="url(#p951b6fff4b)" style="fill: none; stroke: #d3d3d3; stroke-width: 3"/>
    <path d="M 229.010827 270.183513 
L 229.010827 261.842085 
" clip-path="url(#p951b6fff4b)" style="fill: none; stroke: #d3d3d3; stroke-width: 3"/>
    <path d="M 259.327124 225.227265 
L 259.327124 208.361675 
" clip-path="url(#p951b6fff4b)" style="fill: none; stroke: #d3d3d3; stroke-width: 3"/>
    <path d="M 262.391577 285.739074 
L 262.391577 276.674481 
" clip-path="url(#p951b6fff4b)" style="fill: none; stroke: #d3d3d3; stroke-width: 3"/>
    <path d="M 268.26706 255.961044 
L 268.26706 253.169956 
" clip-path="url(#p951b6fff4b)" style="fill: none; stroke: #d3d3d3; stroke-width: 3"/>
    <path d="M 282.628937 212.759077 
L 282.628937 179.779142 
" clip-path="url(#p951b6fff4b)" style="fill: none; stroke: #d3d3d3; stroke-width: 3"/>
    <path d="M 284.341178 240.111366 
L 284.341178 231.333962 
" clip-path="url(#p951b6fff4b)" style="fill: none; stroke: #d3d3d3; stroke-width: 3"/>
    <path d="M 294.034837 270.413392 
L 294.034837 267.903822 
" clip-path="url(#p951b6fff4b)" style="fill: none; stroke: #d3d3d3; stroke-width: 3"/>
    <path d="M 298.470205 230.531109 
L 298.470205 229.708843 
" clip-path="url(#p951b6fff4b)" style="fill: none; stroke: #d3d3d3; stroke-width: 3"/>
   </g>
   <g id="LineCollection_2">
    <path d="M 243.237109 272.987152 
L 243.237109 261.996567 
" clip-path="url(#p951b6fff4b)" style="fill: none; stroke: #d3d3d3; stroke-width: 3"/>
    <path d="M 316.783048 283.064674 
L 316.783048 267.76162 
" clip-path="url(#p951b6fff4b)" style="fill: none; stroke: #d3d3d3; stroke-width: 3"/>
    <path d="M 377.471283 256.376858 
L 377.471283 237.701908 
" clip-path="url(#p951b6fff4b)" style="fill: none; stroke: #d3d3d3; stroke-width: 3"/>
    <path d="M 133.482557 279.328773 
L 133.482557 269.519009 
" clip-path="url(#p951b6fff4b)" style="fill: none; stroke: #d3d3d3; stroke-width: 3"/>
    <path d="M 152.108671 272.844173 
L 152.108671 245.470467 
" clip-path="url(#p951b6fff4b)" style="fill: none; stroke: #d3d3d3; stroke-width: 3"/>
    <path d="M 190.871151 266.220548 
L 190.871151 253.697488 
" clip-path="url(#p951b6fff4b)" style="fill: none; stroke: #d3d3d3; stroke-width: 3"/>
    <path d="M 286.722044 273.559212 
L 286.722044 247.91439 
" clip-path="url(#p951b6fff4b)" style="fill: none; stroke: #d3d3d3; stroke-width: 3"/>
   </g>
   <g id="LineCollection_3">
    <path d="M 267.027065 270.834008 
L 267.027065 251.754542 
" clip-path="url(#p951b6fff4b)" style="fill: none; stroke: #d3d3d3; stroke-width: 3"/>
    <path d="M 268.286698 272.217117 
L 268.286698 267.185726 
" clip-path="url(#p951b6fff4b)" style="fill: none; stroke: #d3d3d3; stroke-width: 3"/>
    <path d="M 305.253709 282.596322 
L 305.253709 272.799523 
" clip-path="url(#p951b6fff4b)" style="fill: none; stroke: #d3d3d3; stroke-width: 3"/>
    <path d="M 318.149287 271.940375 
L 318.149287 260.121017 
" clip-path="url(#p951b6fff4b)" style="fill: none; stroke: #d3d3d3; stroke-width: 3"/>
    <path d="M 319.311666 288.568619 
L 319.311666 275.733389 
" clip-path="url(#p951b6fff4b)" style="fill: none; stroke: #d3d3d3; stroke-width: 3"/>
    <path d="M 337.747947 284.653928 
L 337.747947 273.289603 
" clip-path="url(#p951b6fff4b)" style="fill: none; stroke: #d3d3d3; stroke-width: 3"/>
    <path d="M 338.19962 276.70507 
L 338.19962 266.730513 
" clip-path="url(#p951b6fff4b)" style="fill: none; stroke: #d3d3d3; stroke-width: 3"/>
    <path d="M 356.65984 291.901667 
L 356.65984 252.962782 
" clip-path="url(#p951b6fff4b)" style="fill: none; stroke: #d3d3d3; stroke-width: 3"/>
    <path d="M 356.788048 287.139723 
L 356.788048 273.999711 
" clip-path="url(#p951b6fff4b)" style="fill: none; stroke: #d3d3d3; stroke-width: 3"/>
    <path d="M 356.983866 279.049218 
L 356.983866 262.722468 
" clip-path="url(#p951b6fff4b)" style="fill: none; stroke: #d3d3d3; stroke-width: 3"/>
    <path d="M 368.31402 271.047769 
L 368.31402 261.971004 
" clip-path="url(#p951b6fff4b)" style="fill: none; stroke: #d3d3d3; stroke-width: 3"/>
    <path d="M 371.139545 289.103101 
L 371.139545 275.756861 
" clip-path="url(#p951b6fff4b)" style="fill: none; stroke: #d3d3d3; stroke-width: 3"/>
    <path d="M 376.337426 285.913282 
L 376.337426 273.418843 
" clip-path="url(#p951b6fff4b)" style="fill: none; stroke: #d3d3d3; stroke-width: 3"/>
    <path d="M 376.729997 282.722452 
L 376.729997 270.995093 
" clip-path="url(#p951b6fff4b)" style="fill: none; stroke: #d3d3d3; stroke-width: 3"/>
    <path d="M 385.187682 279.297175 
L 385.187682 267.124778 
" clip-path="url(#p951b6fff4b)" style="fill: none; stroke: #d3d3d3; stroke-width: 3"/>
    <path d="M 385.194602 277.315301 
L 385.194602 263.066336 
" clip-path="url(#p951b6fff4b)" style="fill: none; stroke: #d3d3d3; stroke-width: 3"/>
    <path d="M 284.950889 282.261978 
L 284.950889 273.211409 
" clip-path="url(#p951b6fff4b)" style="fill: none; stroke: #d3d3d3; stroke-width: 3"/>
    <path d="M 309.524493 250.625994 
L 309.524493 248.106414 
" clip-path="url(#p951b6fff4b)" style="fill: none; stroke: #d3d3d3; stroke-width: 3"/>
    <path d="M 323.228031 266.122632 
L 323.228031 259.798971 
" clip-path="url(#p951b6fff4b)" style="fill: none; stroke: #d3d3d3; stroke-width: 3"/>
    <path d="M 327.510037 269.325445 
L 327.510037 263.932827 
" clip-path="url(#p951b6fff4b)" style="fill: none; stroke: #d3d3d3; stroke-width: 3"/>
    <path d="M 327.746627 249.927519 
L 327.746627 237.214609 
" clip-path="url(#p951b6fff4b)" style="fill: none; stroke: #d3d3d3; stroke-width: 3"/>
    <path d="M 340.318646 275.808982 
L 340.318646 265.046743 
" clip-path="url(#p951b6fff4b)" style="fill: none; stroke: #d3d3d3; stroke-width: 3"/>
    <path d="M 346.635048 251.853284 
L 346.635048 242.018986 
" clip-path="url(#p951b6fff4b)" style="fill: none; stroke: #d3d3d3; stroke-width: 3"/>
    <path d="M 356.260722 269.389552 
L 356.260722 258.590516 
" clip-path="url(#p951b6fff4b)" style="fill: none; stroke: #d3d3d3; stroke-width: 3"/>
    <path d="M 359.681557 292.309398 
L 359.681557 280.072348 
" clip-path="url(#p951b6fff4b)" style="fill: none; stroke: #d3d3d3; stroke-width: 3"/>
    <path d="M 365.158952 279.987415 
L 365.158952 274.493584 
" clip-path="url(#p951b6fff4b)" style="fill: none; stroke: #d3d3d3; stroke-width: 3"/>
    <path d="M 385.107541 217.208186 
L 385.107541 208.642399 
" clip-path="url(#p951b6fff4b)" style="fill: none; stroke: #d3d3d3; stroke-width: 3"/>
   </g>
   <g id="line2d_15">
    <path d="M 63.886648 186.080401 
L 87.08279 192.459541 
L 138.603382 206.628151 
L 141.519148 207.430012 
L 147.412399 209.050707 
L 169.811802 215.210737 
L 190.386748 220.869025 
L 195.61605 222.307129 
L 198.602886 223.128534 
L 201.095034 223.813897 
L 233.448065 232.711261 
L 234.358891 232.961746 
L 236.955775 233.675911 
L 247.738872 236.641356 
L 276.518734 244.556068 
L 280.110606 245.543864 
L 281.546981 245.938879 
L 319.469705 256.367957 
L 323.580579 257.498483 
L 243.237109 235.403332 
L 316.783048 255.629103 
L 377.471283 272.318894 
L 267.027065 241.945777 
L 268.286698 242.292187 
L 305.253709 252.458435 
L 318.149287 256.004831 
L 319.311666 256.324495 
L 337.747947 261.394632 
L 338.19962 261.518846 
L 356.65984 266.595567 
L 356.788048 266.630825 
L 356.983866 266.684677 
L 368.31402 269.800567 
L 371.139545 270.577611 
L 376.337426 272.007073 
L 376.729997 272.115034 
L 385.187682 274.440971 
L 385.194602 274.442874 
L 70.586924 187.923035 
L 149.785784 209.703408 
L 162.138045 213.100387 
L 198.648708 223.141136 
L 199.216338 223.297239 
L 204.491462 224.747944 
L 218.559705 228.616832 
L 229.010827 231.490982 
L 259.327124 239.828226 
L 262.391577 240.670977 
L 268.26706 242.286786 
L 282.628937 246.236427 
L 284.341178 246.707308 
L 294.034837 249.373148 
L 298.470205 250.592913 
L 133.482557 205.219879 
L 152.108671 210.342222 
L 190.871151 221.00224 
L 286.722044 247.362067 
L 284.950889 246.874984 
L 309.524493 253.632938 
L 323.228031 257.40153 
L 327.510037 258.579118 
L 327.746627 258.644183 
L 340.318646 262.101597 
L 346.635048 263.838662 
L 356.260722 266.485806 
L 359.681557 267.426565 
L 365.158952 268.932896 
L 385.107541 274.418931 
" clip-path="url(#p951b6fff4b)" style="fill: none; stroke: #1f77b4; stroke-width: 1.5; stroke-linecap: square"/>
   </g>
   <g id="line2d_16">
    <g clip-path="url(#p951b6fff4b)">
     <use xlink:href="#m089d5528cf" x="63.886648" y="196.984218" style="fill: #3cb371; stroke: #3cb371"/>
     <use xlink:href="#m089d5528cf" x="87.08279" y="184.867777" style="fill: #3cb371; stroke: #3cb371"/>
     <use xlink:href="#m089d5528cf" x="138.603382" y="185.144071" style="fill: #3cb371; stroke: #3cb371"/>
     <use xlink:href="#m089d5528cf" x="141.519148" y="203.059968" style="fill: #3cb371; stroke: #3cb371"/>
     <use xlink:href="#m089d5528cf" x="147.412399" y="281.060853" style="fill: #3cb371; stroke: #3cb371"/>
     <use xlink:href="#m089d5528cf" x="169.811802" y="148.132149" style="fill: #3cb371; stroke: #3cb371"/>
     <use xlink:href="#m089d5528cf" x="190.386748" y="193.874901" style="fill: #3cb371; stroke: #3cb371"/>
     <use xlink:href="#m089d5528cf" x="195.61605" y="211.783219" style="fill: #3cb371; stroke: #3cb371"/>
     <use xlink:href="#m089d5528cf" x="198.602886" y="202.542399" style="fill: #3cb371; stroke: #3cb371"/>
     <use xlink:href="#m089d5528cf" x="201.095034" y="276.802892" style="fill: #3cb371; stroke: #3cb371"/>
     <use xlink:href="#m089d5528cf" x="233.448065" y="239.824741" style="fill: #3cb371; stroke: #3cb371"/>
     <use xlink:href="#m089d5528cf" x="234.358891" y="186.547013" style="fill: #3cb371; stroke: #3cb371"/>
     <use xlink:href="#m089d5528cf" x="236.955775" y="279.825311" style="fill: #3cb371; stroke: #3cb371"/>
     <use xlink:href="#m089d5528cf" x="247.738872" y="218.210779" style="fill: #3cb371; stroke: #3cb371"/>
     <use xlink:href="#m089d5528cf" x="276.518734" y="207.527714" style="fill: #3cb371; stroke: #3cb371"/>
     <use xlink:href="#m089d5528cf" x="280.110606" y="196.860445" style="fill: #3cb371; stroke: #3cb371"/>
     <use xlink:href="#m089d5528cf" x="281.546981" y="278.233239" style="fill: #3cb371; stroke: #3cb371"/>
     <use xlink:href="#m089d5528cf" x="319.469705" y="285.502385" style="fill: #3cb371; stroke: #3cb371"/>
     <use xlink:href="#m089d5528cf" x="323.580579" y="201.341616" style="fill: #3cb371; stroke: #3cb371"/>
     <use xlink:href="#m089d5528cf" x="70.586924" y="165.81975" style="fill: #3cb371; stroke: #3cb371"/>
     <use xlink:href="#m089d5528cf" x="149.785784" y="197.99607" style="fill: #3cb371; stroke: #3cb371"/>
     <use xlink:href="#m089d5528cf" x="162.138045" y="172.668377" style="fill: #3cb371; stroke: #3cb371"/>
     <use xlink:href="#m089d5528cf" x="198.648708" y="188.177445" style="fill: #3cb371; stroke: #3cb371"/>
     <use xlink:href="#m089d5528cf" x="199.216338" y="171.24946" style="fill: #3cb371; stroke: #3cb371"/>
     <use xlink:href="#m089d5528cf" x="204.491462" y="190.815604" style="fill: #3cb371; stroke: #3cb371"/>
     <use xlink:href="#m089d5528cf" x="218.559705" y="184.222785" style="fill: #3cb371; stroke: #3cb371"/>
     <use xlink:href="#m089d5528cf" x="229.010827" y="266.012799" style="fill: #3cb371; stroke: #3cb371"/>
     <use xlink:href="#m089d5528cf" x="259.327124" y="216.79447" style="fill: #3cb371; stroke: #3cb371"/>
     <use xlink:href="#m089d5528cf" x="262.391577" y="281.206777" style="fill: #3cb371; stroke: #3cb371"/>
     <use xlink:href="#m089d5528cf" x="268.26706" y="254.5655" style="fill: #3cb371; stroke: #3cb371"/>
     <use xlink:href="#m089d5528cf" x="282.628937" y="196.269109" style="fill: #3cb371; stroke: #3cb371"/>
     <use xlink:href="#m089d5528cf" x="284.341178" y="235.722664" style="fill: #3cb371; stroke: #3cb371"/>
     <use xlink:href="#m089d5528cf" x="294.034837" y="269.158607" style="fill: #3cb371; stroke: #3cb371"/>
     <use xlink:href="#m089d5528cf" x="298.470205" y="230.119976" style="fill: #3cb371; stroke: #3cb371"/>
    </g>
   </g>
   <g id="line2d_17">
    <g clip-path="url(#p951b6fff4b)">
     <use xlink:href="#mf938e34729" x="243.237109" y="267.491859" style="fill: #ffdead; stroke: #ffdead"/>
     <use xlink:href="#mf938e34729" x="316.783048" y="275.413147" style="fill: #ffdead; stroke: #ffdead"/>
     <use xlink:href="#mf938e34729" x="377.471283" y="247.039383" style="fill: #ffdead; stroke: #ffdead"/>
     <use xlink:href="#mf938e34729" x="133.482557" y="274.423891" style="fill: #ffdead; stroke: #ffdead"/>
     <use xlink:href="#mf938e34729" x="152.108671" y="259.15732" style="fill: #ffdead; stroke: #ffdead"/>
     <use xlink:href="#mf938e34729" x="190.871151" y="259.959018" style="fill: #ffdead; stroke: #ffdead"/>
     <use xlink:href="#mf938e34729" x="286.722044" y="260.736801" style="fill: #ffdead; stroke: #ffdead"/>
    </g>
   </g>
   <g id="line2d_18">
    <g clip-path="url(#p951b6fff4b)">
     <use xlink:href="#mc99002b11f" x="267.027065" y="261.294275" style="fill: #483d8b; stroke: #483d8b"/>
     <use xlink:href="#mc99002b11f" x="268.286698" y="269.701422" style="fill: #483d8b; stroke: #483d8b"/>
     <use xlink:href="#mc99002b11f" x="305.253709" y="277.697922" style="fill: #483d8b; stroke: #483d8b"/>
     <use xlink:href="#mc99002b11f" x="318.149287" y="266.030696" style="fill: #483d8b; stroke: #483d8b"/>
     <use xlink:href="#mc99002b11f" x="319.311666" y="282.151004" style="fill: #483d8b; stroke: #483d8b"/>
     <use xlink:href="#mc99002b11f" x="337.747947" y="278.971765" style="fill: #483d8b; stroke: #483d8b"/>
     <use xlink:href="#mc99002b11f" x="338.19962" y="271.717791" style="fill: #483d8b; stroke: #483d8b"/>
     <use xlink:href="#mc99002b11f" x="356.65984" y="272.432225" style="fill: #483d8b; stroke: #483d8b"/>
     <use xlink:href="#mc99002b11f" x="356.788048" y="280.569717" style="fill: #483d8b; stroke: #483d8b"/>
     <use xlink:href="#mc99002b11f" x="356.983866" y="270.885843" style="fill: #483d8b; stroke: #483d8b"/>
     <use xlink:href="#mc99002b11f" x="368.31402" y="266.509386" style="fill: #483d8b; stroke: #483d8b"/>
     <use xlink:href="#mc99002b11f" x="371.139545" y="282.429981" style="fill: #483d8b; stroke: #483d8b"/>
     <use xlink:href="#mc99002b11f" x="376.337426" y="279.666062" style="fill: #483d8b; stroke: #483d8b"/>
     <use xlink:href="#mc99002b11f" x="376.729997" y="276.858773" style="fill: #483d8b; stroke: #483d8b"/>
     <use xlink:href="#mc99002b11f" x="385.187682" y="273.210977" style="fill: #483d8b; stroke: #483d8b"/>
     <use xlink:href="#mc99002b11f" x="385.194602" y="270.190818" style="fill: #483d8b; stroke: #483d8b"/>
     <use xlink:href="#mc99002b11f" x="284.950889" y="277.736693" style="fill: #483d8b; stroke: #483d8b"/>
     <use xlink:href="#mc99002b11f" x="309.524493" y="249.366204" style="fill: #483d8b; stroke: #483d8b"/>
     <use xlink:href="#mc99002b11f" x="323.228031" y="262.960802" style="fill: #483d8b; stroke: #483d8b"/>
     <use xlink:href="#mc99002b11f" x="327.510037" y="266.629136" style="fill: #483d8b; stroke: #483d8b"/>
     <use xlink:href="#mc99002b11f" x="327.746627" y="243.571064" style="fill: #483d8b; stroke: #483d8b"/>
     <use xlink:href="#mc99002b11f" x="340.318646" y="270.427863" style="fill: #483d8b; stroke: #483d8b"/>
     <use xlink:href="#mc99002b11f" x="346.635048" y="246.936135" style="fill: #483d8b; stroke: #483d8b"/>
     <use xlink:href="#mc99002b11f" x="356.260722" y="263.990034" style="fill: #483d8b; stroke: #483d8b"/>
     <use xlink:href="#mc99002b11f" x="359.681557" y="286.190873" style="fill: #483d8b; stroke: #483d8b"/>
     <use xlink:href="#mc99002b11f" x="365.158952" y="277.240499" style="fill: #483d8b; stroke: #483d8b"/>
     <use xlink:href="#mc99002b11f" x="385.107541" y="212.925292" style="fill: #483d8b; stroke: #483d8b"/>
    </g>
   </g>
   <g id="patch_3">
    <path d="M 47.82125 303.64 
L 47.82125 46.675714 
" style="fill: none; stroke: #000000; stroke-width: 0.8; stroke-linejoin: miter; stroke-linecap: square"/>
   </g>
   <g id="patch_4">
    <path d="M 401.26 303.64 
L 401.26 46.675714 
" style="fill: none; stroke: #000000; stroke-width: 0.8; stroke-linejoin: miter; stroke-linecap: square"/>
   </g>
   <g id="patch_5">
    <path d="M 47.82125 303.64 
L 401.26 303.64 
" style="fill: none; stroke: #000000; stroke-width: 0.8; stroke-linejoin: miter; stroke-linecap: square"/>
   </g>
   <g id="patch_6">
    <path d="M 47.82125 46.675714 
L 401.26 46.675714 
" style="fill: none; stroke: #000000; stroke-width: 0.8; stroke-linejoin: miter; stroke-linecap: square"/>
   </g>
   <g id="text_17">
    <!-- y = -0.03x + 0.18 -->
    <g transform="translate(38.440906 18.599375)scale(0.1 -0.1)">
     <defs>
      <path id="DejaVuSans-79" d="M 2059 -325 
Q 1816 -950 1584 -1140 
Q 1353 -1331 966 -1331 
L 506 -1331 
L 506 -850 
L 844 -850 
Q 1081 -850 1212 -737 
Q 1344 -625 1503 -206 
L 1606 56 
L 191 3500 
L 800 3500 
L 1894 763 
L 2988 3500 
L 3597 3500 
L 2059 -325 
z
" transform="scale(0.015625)"/>
      <path id="DejaVuSans-20" transform="scale(0.015625)"/>
      <path id="DejaVuSans-3d" d="M 678 2906 
L 4684 2906 
L 4684 2381 
L 678 2381 
L 678 2906 
z
M 678 1631 
L 4684 1631 
L 4684 1100 
L 678 1100 
L 678 1631 
z
" transform="scale(0.015625)"/>
      <path id="DejaVuSans-2d" d="M 313 2009 
L 1997 2009 
L 1997 1497 
L 313 1497 
L 313 2009 
z
" transform="scale(0.015625)"/>
      <path id="DejaVuSans-78" d="M 3513 3500 
L 2247 1797 
L 3578 0 
L 2900 0 
L 1881 1375 
L 863 0 
L 184 0 
L 1544 1831 
L 300 3500 
L 978 3500 
L 1906 2253 
L 2834 3500 
L 3513 3500 
z
" transform="scale(0.015625)"/>
      <path id="DejaVuSans-2b" d="M 2944 4013 
L 2944 2272 
L 4684 2272 
L 4684 1741 
L 2944 1741 
L 2944 0 
L 2419 0 
L 2419 1741 
L 678 1741 
L 678 2272 
L 2419 2272 
L 2419 4013 
L 2944 4013 
z
" transform="scale(0.015625)"/>
      <path id="DejaVuSans-38" d="M 2034 2216 
Q 1584 2216 1326 1975 
Q 1069 1734 1069 1313 
Q 1069 891 1326 650 
Q 1584 409 2034 409 
Q 2484 409 2743 651 
Q 3003 894 3003 1313 
Q 3003 1734 2745 1975 
Q 2488 2216 2034 2216 
z
M 1403 2484 
Q 997 2584 770 2862 
Q 544 3141 544 3541 
Q 544 4100 942 4425 
Q 1341 4750 2034 4750 
Q 2731 4750 3128 4425 
Q 3525 4100 3525 3541 
Q 3525 3141 3298 2862 
Q 3072 2584 2669 2484 
Q 3125 2378 3379 2068 
Q 3634 1759 3634 1313 
Q 3634 634 3220 271 
Q 2806 -91 2034 -91 
Q 1263 -91 848 271 
Q 434 634 434 1313 
Q 434 1759 690 2068 
Q 947 2378 1403 2484 
z
M 1172 3481 
Q 1172 3119 1398 2916 
Q 1625 2713 2034 2713 
Q 2441 2713 2670 2916 
Q 2900 3119 2900 3481 
Q 2900 3844 2670 4047 
Q 2441 4250 2034 4250 
Q 1625 4250 1398 4047 
Q 1172 3844 1172 3481 
z
" transform="scale(0.015625)"/>
     </defs>
     <use xlink:href="#DejaVuSans-79"/>
     <use xlink:href="#DejaVuSans-20" x="59.179688"/>
     <use xlink:href="#DejaVuSans-3d" x="90.966797"/>
     <use xlink:href="#DejaVuSans-20" x="174.755859"/>
     <use xlink:href="#DejaVuSans-2d" x="206.542969"/>
     <use xlink:href="#DejaVuSans-30" x="242.626953"/>
     <use xlink:href="#DejaVuSans-2e" x="306.25"/>
     <use xlink:href="#DejaVuSans-30" x="338.037109"/>
     <use xlink:href="#DejaVuSans-33" x="401.660156"/>
     <use xlink:href="#DejaVuSans-78" x="465.283203"/>
     <use xlink:href="#DejaVuSans-20" x="524.462891"/>
     <use xlink:href="#DejaVuSans-2b" x="556.25"/>
     <use xlink:href="#DejaVuSans-20" x="640.039062"/>
     <use xlink:href="#DejaVuSans-30" x="671.826172"/>
     <use xlink:href="#DejaVuSans-2e" x="735.449219"/>
     <use xlink:href="#DejaVuSans-31" x="767.236328"/>
     <use xlink:href="#DejaVuSans-38" x="830.859375"/>
    </g>
   </g>
   <g id="text_18">
    <!-- r^2 = 0.36 -->
    <g transform="translate(55.237781 26.308304)scale(0.1 -0.1)">
     <defs>
      <path id="DejaVuSans-5e" d="M 2988 4666 
L 4684 2925 
L 4056 2925 
L 2681 4159 
L 1306 2925 
L 678 2925 
L 2375 4666 
L 2988 4666 
z
" transform="scale(0.015625)"/>
      <path id="DejaVuSans-36" d="M 2113 2584 
Q 1688 2584 1439 2293 
Q 1191 2003 1191 1497 
Q 1191 994 1439 701 
Q 1688 409 2113 409 
Q 2538 409 2786 701 
Q 3034 994 3034 1497 
Q 3034 2003 2786 2293 
Q 2538 2584 2113 2584 
z
M 3366 4563 
L 3366 3988 
Q 3128 4100 2886 4159 
Q 2644 4219 2406 4219 
Q 1781 4219 1451 3797 
Q 1122 3375 1075 2522 
Q 1259 2794 1537 2939 
Q 1816 3084 2150 3084 
Q 2853 3084 3261 2657 
Q 3669 2231 3669 1497 
Q 3669 778 3244 343 
Q 2819 -91 2113 -91 
Q 1303 -91 875 529 
Q 447 1150 447 2328 
Q 447 3434 972 4092 
Q 1497 4750 2381 4750 
Q 2619 4750 2861 4703 
Q 3103 4656 3366 4563 
z
" transform="scale(0.015625)"/>
     </defs>
     <use xlink:href="#DejaVuSans-72"/>
     <use xlink:href="#DejaVuSans-5e" x="41.113281"/>
     <use xlink:href="#DejaVuSans-32" x="124.902344"/>
     <use xlink:href="#DejaVuSans-20" x="188.525391"/>
     <use xlink:href="#DejaVuSans-3d" x="220.3125"/>
     <use xlink:href="#DejaVuSans-20" x="304.101562"/>
     <use xlink:href="#DejaVuSans-30" x="335.888672"/>
     <use xlink:href="#DejaVuSans-2e" x="399.511719"/>
     <use xlink:href="#DejaVuSans-33" x="431.298828"/>
     <use xlink:href="#DejaVuSans-36" x="494.921875"/>
    </g>
   </g>
   <g id="text_19">
    <!-- n = 68 -->
    <g transform="translate(66.265906 34.017232)scale(0.1 -0.1)">
     <use xlink:href="#DejaVuSans-6e"/>
     <use xlink:href="#DejaVuSans-20" x="63.378906"/>
     <use xlink:href="#DejaVuSans-3d" x="95.166016"/>
     <use xlink:href="#DejaVuSans-20" x="178.955078"/>
     <use xlink:href="#DejaVuSans-36" x="210.742188"/>
     <use xlink:href="#DejaVuSans-38" x="274.365234"/>
    </g>
   </g>
   <g id="text_20">
    <!-- Total vs PercentGpA_transformed -->
    <g transform="translate(124.992187 40.675714)scale(0.12 -0.12)">
     <defs>
      <path id="DejaVuSans-76" d="M 191 3500 
L 800 3500 
L 1894 563 
L 2988 3500 
L 3597 3500 
L 2284 0 
L 1503 0 
L 191 3500 
z
" transform="scale(0.015625)"/>
     </defs>
     <use xlink:href="#DejaVuSans-54"/>
     <use xlink:href="#DejaVuSans-6f" x="44.083984"/>
     <use xlink:href="#DejaVuSans-74" x="105.265625"/>
     <use xlink:href="#DejaVuSans-61" x="144.474609"/>
     <use xlink:href="#DejaVuSans-6c" x="205.753906"/>
     <use xlink:href="#DejaVuSans-20" x="233.537109"/>
     <use xlink:href="#DejaVuSans-76" x="265.324219"/>
     <use xlink:href="#DejaVuSans-73" x="324.503906"/>
     <use xlink:href="#DejaVuSans-20" x="376.603516"/>
     <use xlink:href="#DejaVuSans-50" x="408.390625"/>
     <use xlink:href="#DejaVuSans-65" x="465.068359"/>
     <use xlink:href="#DejaVuSans-72" x="526.591797"/>
     <use xlink:href="#DejaVuSans-63" x="565.455078"/>
     <use xlink:href="#DejaVuSans-65" x="620.435547"/>
     <use xlink:href="#DejaVuSans-6e" x="681.958984"/>
     <use xlink:href="#DejaVuSans-74" x="745.337891"/>
     <use xlink:href="#DejaVuSans-47" x="784.546875"/>
     <use xlink:href="#DejaVuSans-70" x="862.037109"/>
     <use xlink:href="#DejaVuSans-41" x="925.513672"/>
     <use xlink:href="#DejaVuSans-5f" x="993.921875"/>
     <use xlink:href="#DejaVuSans-74" x="1043.921875"/>
     <use xlink:href="#DejaVuSans-72" x="1083.130859"/>
     <use xlink:href="#DejaVuSans-61" x="1124.244141"/>
     <use xlink:href="#DejaVuSans-6e" x="1185.523438"/>
     <use xlink:href="#DejaVuSans-73" x="1248.902344"/>
     <use xlink:href="#DejaVuSans-66" x="1301.001953"/>
     <use xlink:href="#DejaVuSans-6f" x="1336.207031"/>
     <use xlink:href="#DejaVuSans-72" x="1397.388672"/>
     <use xlink:href="#DejaVuSans-6d" x="1436.751953"/>
     <use xlink:href="#DejaVuSans-65" x="1534.164062"/>
     <use xlink:href="#DejaVuSans-64" x="1595.6875"/>
    </g>
   </g>
   <g id="legend_1">
    <g id="patch_7">
     <path d="M 408.26 98.710089 
L 448.008438 98.710089 
Q 450.008438 98.710089 450.008438 96.710089 
L 450.008438 53.675714 
Q 450.008438 51.675714 448.008438 51.675714 
L 408.26 51.675714 
Q 406.26 51.675714 406.26 53.675714 
L 406.26 96.710089 
Q 406.26 98.710089 408.26 98.710089 
z
" style="fill: #ffffff; opacity: 0.8; stroke: #cccccc; stroke-linejoin: miter"/>
    </g>
    <g id="PathCollection_4">
     <g>
      <use xlink:href="#m089d5528cf" x="420.26" y="60.649152" style="fill: #3cb371; stroke: #3cb371"/>
     </g>
    </g>
    <g id="text_21">
     <!-- G -->
     <g transform="translate(438.26 63.274152)scale(0.1 -0.1)">
      <use xlink:href="#DejaVuSans-47"/>
     </g>
    </g>
    <g id="PathCollection_5">
     <g>
      <use xlink:href="#mf938e34729" x="420.26" y="75.327277" style="fill: #ffdead; stroke: #ffdead"/>
     </g>
    </g>
    <g id="text_22">
     <!-- L -->
     <g transform="translate(438.26 77.952277)scale(0.1 -0.1)">
      <defs>
       <path id="DejaVuSans-4c" d="M 628 4666 
L 1259 4666 
L 1259 531 
L 3531 531 
L 3531 0 
L 628 0 
L 628 4666 
z
" transform="scale(0.015625)"/>
      </defs>
      <use xlink:href="#DejaVuSans-4c"/>
     </g>
    </g>
    <g id="PathCollection_6">
     <g>
      <use xlink:href="#mc99002b11f" x="420.26" y="90.005402" style="fill: #483d8b; stroke: #483d8b"/>
     </g>
    </g>
    <g id="text_23">
     <!-- R -->
     <g transform="translate(438.26 92.630402)scale(0.1 -0.1)">
      <defs>
       <path id="DejaVuSans-52" d="M 2841 2188 
Q 3044 2119 3236 1894 
Q 3428 1669 3622 1275 
L 4263 0 
L 3584 0 
L 2988 1197 
Q 2756 1666 2539 1819 
Q 2322 1972 1947 1972 
L 1259 1972 
L 1259 0 
L 628 0 
L 628 4666 
L 2053 4666 
Q 2853 4666 3247 4331 
Q 3641 3997 3641 3322 
Q 3641 2881 3436 2590 
Q 3231 2300 2841 2188 
z
M 1259 4147 
L 1259 2491 
L 2053 2491 
Q 2509 2491 2742 2702 
Q 2975 2913 2975 3322 
Q 2975 3731 2742 3939 
Q 2509 4147 2053 4147 
L 1259 4147 
z
" transform="scale(0.015625)"/>
      </defs>
      <use xlink:href="#DejaVuSans-52"/>
     </g>
    </g>
   </g>
  </g>
 </g>
 <defs>
  <clipPath id="p951b6fff4b">
   <rect x="47.82125" y="46.675714" width="353.43875" height="256.964286"/>
  </clipPath>
 </defs>
</svg>
