<?xml version="1.0" encoding="utf-8" standalone="no"?>
<!DOCTYPE svg PUBLIC "-//W3C//DTD SVG 1.1//EN"
  "http://www.w3.org/Graphics/SVG/1.1/DTD/svg11.dtd">
<svg xmlns:xlink="http://www.w3.org/1999/xlink" width="460.8pt" height="345.6pt" viewBox="0 0 460.8 345.6" xmlns="http://www.w3.org/2000/svg" version="1.1">
 <metadata>
  <rdf:RDF xmlns:dc="http://purl.org/dc/elements/1.1/" xmlns:cc="http://creativecommons.org/ns#" xmlns:rdf="http://www.w3.org/1999/02/22-rdf-syntax-ns#">
   <cc:Work>
    <dc:type rdf:resource="http://purl.org/dc/dcmitype/StillImage"/>
    <dc:date>2024-02-03T13:06:30.955636</dc:date>
    <dc:format>image/svg+xml</dc:format>
    <dc:creator>
     <cc:Agent>
      <dc:title>Matplotlib v3.5.3, https://matplotlib.org/</dc:title>
     </cc:Agent>
    </dc:creator>
   </cc:Work>
  </rdf:RDF>
 </metadata>
 <defs>
  <style type="text/css">*{stroke-linejoin: round; stroke-linecap: butt}</style>
 </defs>
 <g id="figure_1">
  <g id="patch_1">
   <path d="M 0 345.6 
L 460.8 345.6 
L 460.8 0 
L 0 0 
z
" style="fill: #ffffff"/>
  </g>
  <g id="axes_1">
   <g id="patch_2">
    <path d="M 47.82125 303.64 
L 401.26 303.64 
L 401.26 46.675714 
L 47.82125 46.675714 
z
" style="fill: #ffffff"/>
   </g>
   <g id="PathCollection_1">
    <defs>
     <path id="m2348a6f9e5" d="M 0 3 
C 0.795609 3 1.55874 2.683901 2.12132 2.12132 
C 2.683901 1.55874 3 0.795609 3 0 
C 3 -0.795609 2.683901 -1.55874 2.12132 -2.12132 
C 1.55874 -2.683901 0.795609 -3 0 -3 
C -0.795609 -3 -1.55874 -2.683901 -2.12132 -2.12132 
C -2.683901 -1.55874 -3 -0.795609 -3 0 
C -3 0.795609 -2.683901 1.55874 -2.12132 2.12132 
C -1.55874 2.683901 -0.795609 3 0 3 
z
" style="stroke: #3cb371"/>
    </defs>
    <g clip-path="url(#p34ab1a9ecc)">
     <use xlink:href="#m2348a6f9e5" x="287.231078" y="196.984218" style="fill: #3cb371; stroke: #3cb371"/>
     <use xlink:href="#m2348a6f9e5" x="263.260808" y="184.867777" style="fill: #3cb371; stroke: #3cb371"/>
     <use xlink:href="#m2348a6f9e5" x="235.710505" y="185.144071" style="fill: #3cb371; stroke: #3cb371"/>
     <use xlink:href="#m2348a6f9e5" x="197.490995" y="203.059968" style="fill: #3cb371; stroke: #3cb371"/>
     <use xlink:href="#m2348a6f9e5" x="201.416625" y="281.060853" style="fill: #3cb371; stroke: #3cb371"/>
     <use xlink:href="#m2348a6f9e5" x="251.023121" y="148.132149" style="fill: #3cb371; stroke: #3cb371"/>
     <use xlink:href="#m2348a6f9e5" x="318.698149" y="193.874901" style="fill: #3cb371; stroke: #3cb371"/>
     <use xlink:href="#m2348a6f9e5" x="279.946951" y="211.783219" style="fill: #3cb371; stroke: #3cb371"/>
     <use xlink:href="#m2348a6f9e5" x="309.491084" y="202.542399" style="fill: #3cb371; stroke: #3cb371"/>
     <use xlink:href="#m2348a6f9e5" x="231.536754" y="276.802892" style="fill: #3cb371; stroke: #3cb371"/>
     <use xlink:href="#m2348a6f9e5" x="243.012354" y="239.824741" style="fill: #3cb371; stroke: #3cb371"/>
     <use xlink:href="#m2348a6f9e5" x="277.864506" y="186.547013" style="fill: #3cb371; stroke: #3cb371"/>
     <use xlink:href="#m2348a6f9e5" x="190.180284" y="279.825311" style="fill: #3cb371; stroke: #3cb371"/>
     <use xlink:href="#m2348a6f9e5" x="272.14886" y="218.210779" style="fill: #3cb371; stroke: #3cb371"/>
     <use xlink:href="#m2348a6f9e5" x="385.194602" y="207.527714" style="fill: #3cb371; stroke: #3cb371"/>
     <use xlink:href="#m2348a6f9e5" x="260.035234" y="196.860445" style="fill: #3cb371; stroke: #3cb371"/>
     <use xlink:href="#m2348a6f9e5" x="211.181963" y="278.233239" style="fill: #3cb371; stroke: #3cb371"/>
     <use xlink:href="#m2348a6f9e5" x="230.207534" y="285.502385" style="fill: #3cb371; stroke: #3cb371"/>
     <use xlink:href="#m2348a6f9e5" x="268.28526" y="201.341616" style="fill: #3cb371; stroke: #3cb371"/>
     <use xlink:href="#m2348a6f9e5" x="191.686734" y="165.81975" style="fill: #3cb371; stroke: #3cb371"/>
     <use xlink:href="#m2348a6f9e5" x="201.531824" y="197.99607" style="fill: #3cb371; stroke: #3cb371"/>
     <use xlink:href="#m2348a6f9e5" x="176.445009" y="172.668377" style="fill: #3cb371; stroke: #3cb371"/>
     <use xlink:href="#m2348a6f9e5" x="194.14136" y="188.177445" style="fill: #3cb371; stroke: #3cb371"/>
     <use xlink:href="#m2348a6f9e5" x="233.734398" y="171.24946" style="fill: #3cb371; stroke: #3cb371"/>
     <use xlink:href="#m2348a6f9e5" x="209.764128" y="190.815604" style="fill: #3cb371; stroke: #3cb371"/>
     <use xlink:href="#m2348a6f9e5" x="244.85554" y="184.222785" style="fill: #3cb371; stroke: #3cb371"/>
     <use xlink:href="#m2348a6f9e5" x="230.42907" y="266.012799" style="fill: #3cb371; stroke: #3cb371"/>
     <use xlink:href="#m2348a6f9e5" x="229.658123" y="216.79447" style="fill: #3cb371; stroke: #3cb371"/>
     <use xlink:href="#m2348a6f9e5" x="208.514661" y="281.206777" style="fill: #3cb371; stroke: #3cb371"/>
     <use xlink:href="#m2348a6f9e5" x="218.067323" y="254.5655" style="fill: #3cb371; stroke: #3cb371"/>
     <use xlink:href="#m2348a6f9e5" x="205.085273" y="196.269109" style="fill: #3cb371; stroke: #3cb371"/>
     <use xlink:href="#m2348a6f9e5" x="219.396543" y="235.722664" style="fill: #3cb371; stroke: #3cb371"/>
     <use xlink:href="#m2348a6f9e5" x="202.081235" y="269.158607" style="fill: #3cb371; stroke: #3cb371"/>
     <use xlink:href="#m2348a6f9e5" x="210.712305" y="230.119976" style="fill: #3cb371; stroke: #3cb371"/>
    </g>
   </g>
   <g id="PathCollection_2">
    <defs>
     <path id="m7c8e0890e9" d="M 0 3 
C 0.795609 3 1.55874 2.683901 2.12132 2.12132 
C 2.683901 1.55874 3 0.795609 3 0 
C 3 -0.795609 2.683901 -1.55874 2.12132 -2.12132 
C 1.55874 -2.683901 0.795609 -3 0 -3 
C -0.795609 -3 -1.55874 -2.683901 -2.12132 -2.12132 
C -2.683901 -1.55874 -3 -0.795609 -3 0 
C -3 0.795609 -2.683901 1.55874 -2.12132 2.12132 
C -1.55874 2.683901 -0.795609 3 0 3 
z
" style="stroke: #ffdead"/>
    </defs>
    <g clip-path="url(#p34ab1a9ecc)">
     <use xlink:href="#m7c8e0890e9" x="132.864312" y="267.491859" style="fill: #ffdead; stroke: #ffdead"/>
     <use xlink:href="#m7c8e0890e9" x="160.62729" y="275.413147" style="fill: #ffdead; stroke: #ffdead"/>
     <use xlink:href="#m7c8e0890e9" x="178.110965" y="247.039383" style="fill: #ffdead; stroke: #ffdead"/>
     <use xlink:href="#m7c8e0890e9" x="63.886648" y="274.423891" style="fill: #ffdead; stroke: #ffdead"/>
     <use xlink:href="#m7c8e0890e9" x="98.348895" y="259.15732" style="fill: #ffdead; stroke: #ffdead"/>
     <use xlink:href="#m7c8e0890e9" x="73.510202" y="259.959018" style="fill: #ffdead; stroke: #ffdead"/>
     <use xlink:href="#m7c8e0890e9" x="158.216971" y="260.736801" style="fill: #ffdead; stroke: #ffdead"/>
    </g>
   </g>
   <g id="PathCollection_3">
    <defs>
     <path id="m2895d64de8" d="M 0 3 
C 0.795609 3 1.55874 2.683901 2.12132 2.12132 
C 2.683901 1.55874 3 0.795609 3 0 
C 3 -0.795609 2.683901 -1.55874 2.12132 -2.12132 
C 1.55874 -2.683901 0.795609 -3 0 -3 
C -0.795609 -3 -1.55874 -2.683901 -2.12132 -2.12132 
C -2.683901 -1.55874 -3 -0.795609 -3 0 
C -3 0.795609 -2.683901 1.55874 -2.12132 2.12132 
C -1.55874 2.683901 -0.795609 3 0 3 
z
" style="stroke: #483d8b"/>
    </defs>
    <g clip-path="url(#p34ab1a9ecc)">
     <use xlink:href="#m2895d64de8" x="248.550772" y="261.294275" style="fill: #483d8b; stroke: #483d8b"/>
     <use xlink:href="#m2895d64de8" x="240.584312" y="269.701422" style="fill: #483d8b; stroke: #483d8b"/>
     <use xlink:href="#m2895d64de8" x="183.835473" y="277.697922" style="fill: #483d8b; stroke: #483d8b"/>
     <use xlink:href="#m2895d64de8" x="294.302529" y="266.030696" style="fill: #483d8b; stroke: #483d8b"/>
     <use xlink:href="#m2895d64de8" x="288.843865" y="282.151004" style="fill: #483d8b; stroke: #483d8b"/>
     <use xlink:href="#m2895d64de8" x="295.046892" y="278.971765" style="fill: #483d8b; stroke: #483d8b"/>
     <use xlink:href="#m2895d64de8" x="199.14809" y="271.717791" style="fill: #483d8b; stroke: #483d8b"/>
     <use xlink:href="#m2895d64de8" x="317.91834" y="272.432225" style="fill: #483d8b; stroke: #483d8b"/>
     <use xlink:href="#m2895d64de8" x="314.852272" y="280.569717" style="fill: #483d8b; stroke: #483d8b"/>
     <use xlink:href="#m2895d64de8" x="198.040406" y="270.885843" style="fill: #483d8b; stroke: #483d8b"/>
     <use xlink:href="#m2895d64de8" x="223.029745" y="266.509386" style="fill: #483d8b; stroke: #483d8b"/>
     <use xlink:href="#m2895d64de8" x="331.875152" y="282.429981" style="fill: #483d8b; stroke: #483d8b"/>
     <use xlink:href="#m2895d64de8" x="227.40731" y="279.666062" style="fill: #483d8b; stroke: #483d8b"/>
     <use xlink:href="#m2895d64de8" x="301.843638" y="276.858773" style="fill: #483d8b; stroke: #483d8b"/>
     <use xlink:href="#m2895d64de8" x="244.120038" y="273.210977" style="fill: #483d8b; stroke: #483d8b"/>
     <use xlink:href="#m2895d64de8" x="209.3565" y="270.190818" style="fill: #483d8b; stroke: #483d8b"/>
     <use xlink:href="#m2895d64de8" x="140.449728" y="277.736693" style="fill: #483d8b; stroke: #483d8b"/>
     <use xlink:href="#m2895d64de8" x="191.465197" y="249.366204" style="fill: #483d8b; stroke: #483d8b"/>
     <use xlink:href="#m2895d64de8" x="175.780399" y="262.960802" style="fill: #483d8b; stroke: #483d8b"/>
     <use xlink:href="#m2895d64de8" x="186.609113" y="266.629136" style="fill: #483d8b; stroke: #483d8b"/>
     <use xlink:href="#m2895d64de8" x="211.740235" y="243.571064" style="fill: #483d8b; stroke: #483d8b"/>
     <use xlink:href="#m2895d64de8" x="192.165253" y="270.427863" style="fill: #483d8b; stroke: #483d8b"/>
     <use xlink:href="#m2895d64de8" x="203.906698" y="246.936135" style="fill: #483d8b; stroke: #483d8b"/>
     <use xlink:href="#m2895d64de8" x="206.130926" y="263.990034" style="fill: #483d8b; stroke: #483d8b"/>
     <use xlink:href="#m2895d64de8" x="201.558409" y="286.190873" style="fill: #483d8b; stroke: #483d8b"/>
     <use xlink:href="#m2895d64de8" x="195.665533" y="277.240499" style="fill: #483d8b; stroke: #483d8b"/>
     <use xlink:href="#m2895d64de8" x="206.051173" y="212.925292" style="fill: #483d8b; stroke: #483d8b"/>
    </g>
   </g>
   <g id="matplotlib.axis_1">
    <g id="xtick_1">
     <g id="line2d_1">
      <defs>
       <path id="m64e009de28" d="M 0 0 
L 0 3.5 
" style="stroke: #000000; stroke-width: 0.8"/>
      </defs>
      <g>
       <use xlink:href="#m64e009de28" x="70.550471" y="303.64" style="stroke: #000000; stroke-width: 0.8"/>
      </g>
     </g>
     <g id="text_1">
      <!-- 5 -->
      <g transform="translate(67.369221 318.238437)scale(0.1 -0.1)">
       <defs>
        <path id="DejaVuSans-35" d="M 691 4666 
L 3169 4666 
L 3169 4134 
L 1269 4134 
L 1269 2991 
Q 1406 3038 1543 3061 
Q 1681 3084 1819 3084 
Q 2600 3084 3056 2656 
Q 3513 2228 3513 1497 
Q 3513 744 3044 326 
Q 2575 -91 1722 -91 
Q 1428 -91 1123 -41 
Q 819 9 494 109 
L 494 744 
Q 775 591 1075 516 
Q 1375 441 1709 441 
Q 2250 441 2565 725 
Q 2881 1009 2881 1497 
Q 2881 1984 2565 2268 
Q 2250 2553 1709 2553 
Q 1456 2553 1204 2497 
Q 953 2441 691 2322 
L 691 4666 
z
" transform="scale(0.015625)"/>
       </defs>
       <use xlink:href="#DejaVuSans-35"/>
      </g>
     </g>
    </g>
    <g id="xtick_2">
     <g id="line2d_2">
      <g>
       <use xlink:href="#m64e009de28" x="114.857809" y="303.64" style="stroke: #000000; stroke-width: 0.8"/>
      </g>
     </g>
     <g id="text_2">
      <!-- 10 -->
      <g transform="translate(108.495309 318.238437)scale(0.1 -0.1)">
       <defs>
        <path id="DejaVuSans-31" d="M 794 531 
L 1825 531 
L 1825 4091 
L 703 3866 
L 703 4441 
L 1819 4666 
L 2450 4666 
L 2450 531 
L 3481 531 
L 3481 0 
L 794 0 
L 794 531 
z
" transform="scale(0.015625)"/>
        <path id="DejaVuSans-30" d="M 2034 4250 
Q 1547 4250 1301 3770 
Q 1056 3291 1056 2328 
Q 1056 1369 1301 889 
Q 1547 409 2034 409 
Q 2525 409 2770 889 
Q 3016 1369 3016 2328 
Q 3016 3291 2770 3770 
Q 2525 4250 2034 4250 
z
M 2034 4750 
Q 2819 4750 3233 4129 
Q 3647 3509 3647 2328 
Q 3647 1150 3233 529 
Q 2819 -91 2034 -91 
Q 1250 -91 836 529 
Q 422 1150 422 2328 
Q 422 3509 836 4129 
Q 1250 4750 2034 4750 
z
" transform="scale(0.015625)"/>
       </defs>
       <use xlink:href="#DejaVuSans-31"/>
       <use xlink:href="#DejaVuSans-30" x="63.623047"/>
      </g>
     </g>
    </g>
    <g id="xtick_3">
     <g id="line2d_3">
      <g>
       <use xlink:href="#m64e009de28" x="159.165148" y="303.64" style="stroke: #000000; stroke-width: 0.8"/>
      </g>
     </g>
     <g id="text_3">
      <!-- 15 -->
      <g transform="translate(152.802648 318.238437)scale(0.1 -0.1)">
       <use xlink:href="#DejaVuSans-31"/>
       <use xlink:href="#DejaVuSans-35" x="63.623047"/>
      </g>
     </g>
    </g>
    <g id="xtick_4">
     <g id="line2d_4">
      <g>
       <use xlink:href="#m64e009de28" x="203.472486" y="303.64" style="stroke: #000000; stroke-width: 0.8"/>
      </g>
     </g>
     <g id="text_4">
      <!-- 20 -->
      <g transform="translate(197.109986 318.238437)scale(0.1 -0.1)">
       <defs>
        <path id="DejaVuSans-32" d="M 1228 531 
L 3431 531 
L 3431 0 
L 469 0 
L 469 531 
Q 828 903 1448 1529 
Q 2069 2156 2228 2338 
Q 2531 2678 2651 2914 
Q 2772 3150 2772 3378 
Q 2772 3750 2511 3984 
Q 2250 4219 1831 4219 
Q 1534 4219 1204 4116 
Q 875 4013 500 3803 
L 500 4441 
Q 881 4594 1212 4672 
Q 1544 4750 1819 4750 
Q 2544 4750 2975 4387 
Q 3406 4025 3406 3419 
Q 3406 3131 3298 2873 
Q 3191 2616 2906 2266 
Q 2828 2175 2409 1742 
Q 1991 1309 1228 531 
z
" transform="scale(0.015625)"/>
       </defs>
       <use xlink:href="#DejaVuSans-32"/>
       <use xlink:href="#DejaVuSans-30" x="63.623047"/>
      </g>
     </g>
    </g>
    <g id="xtick_5">
     <g id="line2d_5">
      <g>
       <use xlink:href="#m64e009de28" x="247.779824" y="303.64" style="stroke: #000000; stroke-width: 0.8"/>
      </g>
     </g>
     <g id="text_5">
      <!-- 25 -->
      <g transform="translate(241.417324 318.238437)scale(0.1 -0.1)">
       <use xlink:href="#DejaVuSans-32"/>
       <use xlink:href="#DejaVuSans-35" x="63.623047"/>
      </g>
     </g>
    </g>
    <g id="xtick_6">
     <g id="line2d_6">
      <g>
       <use xlink:href="#m64e009de28" x="292.087162" y="303.64" style="stroke: #000000; stroke-width: 0.8"/>
      </g>
     </g>
     <g id="text_6">
      <!-- 30 -->
      <g transform="translate(285.724662 318.238437)scale(0.1 -0.1)">
       <defs>
        <path id="DejaVuSans-33" d="M 2597 2516 
Q 3050 2419 3304 2112 
Q 3559 1806 3559 1356 
Q 3559 666 3084 287 
Q 2609 -91 1734 -91 
Q 1441 -91 1130 -33 
Q 819 25 488 141 
L 488 750 
Q 750 597 1062 519 
Q 1375 441 1716 441 
Q 2309 441 2620 675 
Q 2931 909 2931 1356 
Q 2931 1769 2642 2001 
Q 2353 2234 1838 2234 
L 1294 2234 
L 1294 2753 
L 1863 2753 
Q 2328 2753 2575 2939 
Q 2822 3125 2822 3475 
Q 2822 3834 2567 4026 
Q 2313 4219 1838 4219 
Q 1578 4219 1281 4162 
Q 984 4106 628 3988 
L 628 4550 
Q 988 4650 1302 4700 
Q 1616 4750 1894 4750 
Q 2613 4750 3031 4423 
Q 3450 4097 3450 3541 
Q 3450 3153 3228 2886 
Q 3006 2619 2597 2516 
z
" transform="scale(0.015625)"/>
       </defs>
       <use xlink:href="#DejaVuSans-33"/>
       <use xlink:href="#DejaVuSans-30" x="63.623047"/>
      </g>
     </g>
    </g>
    <g id="xtick_7">
     <g id="line2d_7">
      <g>
       <use xlink:href="#m64e009de28" x="336.3945" y="303.64" style="stroke: #000000; stroke-width: 0.8"/>
      </g>
     </g>
     <g id="text_7">
      <!-- 35 -->
      <g transform="translate(330.032 318.238437)scale(0.1 -0.1)">
       <use xlink:href="#DejaVuSans-33"/>
       <use xlink:href="#DejaVuSans-35" x="63.623047"/>
      </g>
     </g>
    </g>
    <g id="xtick_8">
     <g id="line2d_8">
      <g>
       <use xlink:href="#m64e009de28" x="380.701838" y="303.64" style="stroke: #000000; stroke-width: 0.8"/>
      </g>
     </g>
     <g id="text_8">
      <!-- 40 -->
      <g transform="translate(374.339338 318.238437)scale(0.1 -0.1)">
       <defs>
        <path id="DejaVuSans-34" d="M 2419 4116 
L 825 1625 
L 2419 1625 
L 2419 4116 
z
M 2253 4666 
L 3047 4666 
L 3047 1625 
L 3713 1625 
L 3713 1100 
L 3047 1100 
L 3047 0 
L 2419 0 
L 2419 1100 
L 313 1100 
L 313 1709 
L 2253 4666 
z
" transform="scale(0.015625)"/>
       </defs>
       <use xlink:href="#DejaVuSans-34"/>
       <use xlink:href="#DejaVuSans-30" x="63.623047"/>
      </g>
     </g>
    </g>
    <g id="text_9">
     <!-- IMM1Diff -->
     <g transform="translate(202.496875 331.916562)scale(0.1 -0.1)">
      <defs>
       <path id="DejaVuSans-49" d="M 628 4666 
L 1259 4666 
L 1259 0 
L 628 0 
L 628 4666 
z
" transform="scale(0.015625)"/>
       <path id="DejaVuSans-4d" d="M 628 4666 
L 1569 4666 
L 2759 1491 
L 3956 4666 
L 4897 4666 
L 4897 0 
L 4281 0 
L 4281 4097 
L 3078 897 
L 2444 897 
L 1241 4097 
L 1241 0 
L 628 0 
L 628 4666 
z
" transform="scale(0.015625)"/>
       <path id="DejaVuSans-44" d="M 1259 4147 
L 1259 519 
L 2022 519 
Q 2988 519 3436 956 
Q 3884 1394 3884 2338 
Q 3884 3275 3436 3711 
Q 2988 4147 2022 4147 
L 1259 4147 
z
M 628 4666 
L 1925 4666 
Q 3281 4666 3915 4102 
Q 4550 3538 4550 2338 
Q 4550 1131 3912 565 
Q 3275 0 1925 0 
L 628 0 
L 628 4666 
z
" transform="scale(0.015625)"/>
       <path id="DejaVuSans-69" d="M 603 3500 
L 1178 3500 
L 1178 0 
L 603 0 
L 603 3500 
z
M 603 4863 
L 1178 4863 
L 1178 4134 
L 603 4134 
L 603 4863 
z
" transform="scale(0.015625)"/>
       <path id="DejaVuSans-66" d="M 2375 4863 
L 2375 4384 
L 1825 4384 
Q 1516 4384 1395 4259 
Q 1275 4134 1275 3809 
L 1275 3500 
L 2222 3500 
L 2222 3053 
L 1275 3053 
L 1275 0 
L 697 0 
L 697 3053 
L 147 3053 
L 147 3500 
L 697 3500 
L 697 3744 
Q 697 4328 969 4595 
Q 1241 4863 1831 4863 
L 2375 4863 
z
" transform="scale(0.015625)"/>
      </defs>
      <use xlink:href="#DejaVuSans-49"/>
      <use xlink:href="#DejaVuSans-4d" x="29.492188"/>
      <use xlink:href="#DejaVuSans-4d" x="115.771484"/>
      <use xlink:href="#DejaVuSans-31" x="202.050781"/>
      <use xlink:href="#DejaVuSans-44" x="265.673828"/>
      <use xlink:href="#DejaVuSans-69" x="342.675781"/>
      <use xlink:href="#DejaVuSans-66" x="370.458984"/>
      <use xlink:href="#DejaVuSans-66" x="405.664062"/>
     </g>
    </g>
   </g>
   <g id="matplotlib.axis_2">
    <g id="ytick_1">
     <g id="line2d_9">
      <defs>
       <path id="m194f1e9c25" d="M 0 0 
L -3.5 0 
" style="stroke: #000000; stroke-width: 0.8"/>
      </defs>
      <g>
       <use xlink:href="#m194f1e9c25" x="47.82125" y="303.64" style="stroke: #000000; stroke-width: 0.8"/>
      </g>
     </g>
     <g id="text_10">
      <!-- 0.0 -->
      <g transform="translate(24.918125 307.439219)scale(0.1 -0.1)">
       <defs>
        <path id="DejaVuSans-2e" d="M 684 794 
L 1344 794 
L 1344 0 
L 684 0 
L 684 794 
z
" transform="scale(0.015625)"/>
       </defs>
       <use xlink:href="#DejaVuSans-30"/>
       <use xlink:href="#DejaVuSans-2e" x="63.623047"/>
       <use xlink:href="#DejaVuSans-30" x="95.410156"/>
      </g>
     </g>
    </g>
    <g id="ytick_2">
     <g id="line2d_10">
      <g>
       <use xlink:href="#m194f1e9c25" x="47.82125" y="260.348715" style="stroke: #000000; stroke-width: 0.8"/>
      </g>
     </g>
     <g id="text_11">
      <!-- 0.5 -->
      <g transform="translate(24.918125 264.147934)scale(0.1 -0.1)">
       <use xlink:href="#DejaVuSans-30"/>
       <use xlink:href="#DejaVuSans-2e" x="63.623047"/>
       <use xlink:href="#DejaVuSans-35" x="95.410156"/>
      </g>
     </g>
    </g>
    <g id="ytick_3">
     <g id="line2d_11">
      <g>
       <use xlink:href="#m194f1e9c25" x="47.82125" y="217.057431" style="stroke: #000000; stroke-width: 0.8"/>
      </g>
     </g>
     <g id="text_12">
      <!-- 1.0 -->
      <g transform="translate(24.918125 220.85665)scale(0.1 -0.1)">
       <use xlink:href="#DejaVuSans-31"/>
       <use xlink:href="#DejaVuSans-2e" x="63.623047"/>
       <use xlink:href="#DejaVuSans-30" x="95.410156"/>
      </g>
     </g>
    </g>
    <g id="ytick_4">
     <g id="line2d_12">
      <g>
       <use xlink:href="#m194f1e9c25" x="47.82125" y="173.766146" style="stroke: #000000; stroke-width: 0.8"/>
      </g>
     </g>
     <g id="text_13">
      <!-- 1.5 -->
      <g transform="translate(24.918125 177.565365)scale(0.1 -0.1)">
       <use xlink:href="#DejaVuSans-31"/>
       <use xlink:href="#DejaVuSans-2e" x="63.623047"/>
       <use xlink:href="#DejaVuSans-35" x="95.410156"/>
      </g>
     </g>
    </g>
    <g id="ytick_5">
     <g id="line2d_13">
      <g>
       <use xlink:href="#m194f1e9c25" x="47.82125" y="130.474862" style="stroke: #000000; stroke-width: 0.8"/>
      </g>
     </g>
     <g id="text_14">
      <!-- 2.0 -->
      <g transform="translate(24.918125 134.274081)scale(0.1 -0.1)">
       <use xlink:href="#DejaVuSans-32"/>
       <use xlink:href="#DejaVuSans-2e" x="63.623047"/>
       <use xlink:href="#DejaVuSans-30" x="95.410156"/>
      </g>
     </g>
    </g>
    <g id="ytick_6">
     <g id="line2d_14">
      <g>
       <use xlink:href="#m194f1e9c25" x="47.82125" y="87.183577" style="stroke: #000000; stroke-width: 0.8"/>
      </g>
     </g>
     <g id="text_15">
      <!-- 2.5 -->
      <g transform="translate(24.918125 90.982796)scale(0.1 -0.1)">
       <use xlink:href="#DejaVuSans-32"/>
       <use xlink:href="#DejaVuSans-2e" x="63.623047"/>
       <use xlink:href="#DejaVuSans-35" x="95.410156"/>
      </g>
     </g>
    </g>
    <g id="text_16">
     <!-- PercentGpA_transformed -->
     <g transform="translate(18.560313 237.696138)rotate(-90)scale(0.1 -0.1)">
      <defs>
       <path id="DejaVuSans-50" d="M 1259 4147 
L 1259 2394 
L 2053 2394 
Q 2494 2394 2734 2622 
Q 2975 2850 2975 3272 
Q 2975 3691 2734 3919 
Q 2494 4147 2053 4147 
L 1259 4147 
z
M 628 4666 
L 2053 4666 
Q 2838 4666 3239 4311 
Q 3641 3956 3641 3272 
Q 3641 2581 3239 2228 
Q 2838 1875 2053 1875 
L 1259 1875 
L 1259 0 
L 628 0 
L 628 4666 
z
" transform="scale(0.015625)"/>
       <path id="DejaVuSans-65" d="M 3597 1894 
L 3597 1613 
L 953 1613 
Q 991 1019 1311 708 
Q 1631 397 2203 397 
Q 2534 397 2845 478 
Q 3156 559 3463 722 
L 3463 178 
Q 3153 47 2828 -22 
Q 2503 -91 2169 -91 
Q 1331 -91 842 396 
Q 353 884 353 1716 
Q 353 2575 817 3079 
Q 1281 3584 2069 3584 
Q 2775 3584 3186 3129 
Q 3597 2675 3597 1894 
z
M 3022 2063 
Q 3016 2534 2758 2815 
Q 2500 3097 2075 3097 
Q 1594 3097 1305 2825 
Q 1016 2553 972 2059 
L 3022 2063 
z
" transform="scale(0.015625)"/>
       <path id="DejaVuSans-72" d="M 2631 2963 
Q 2534 3019 2420 3045 
Q 2306 3072 2169 3072 
Q 1681 3072 1420 2755 
Q 1159 2438 1159 1844 
L 1159 0 
L 581 0 
L 581 3500 
L 1159 3500 
L 1159 2956 
Q 1341 3275 1631 3429 
Q 1922 3584 2338 3584 
Q 2397 3584 2469 3576 
Q 2541 3569 2628 3553 
L 2631 2963 
z
" transform="scale(0.015625)"/>
       <path id="DejaVuSans-63" d="M 3122 3366 
L 3122 2828 
Q 2878 2963 2633 3030 
Q 2388 3097 2138 3097 
Q 1578 3097 1268 2742 
Q 959 2388 959 1747 
Q 959 1106 1268 751 
Q 1578 397 2138 397 
Q 2388 397 2633 464 
Q 2878 531 3122 666 
L 3122 134 
Q 2881 22 2623 -34 
Q 2366 -91 2075 -91 
Q 1284 -91 818 406 
Q 353 903 353 1747 
Q 353 2603 823 3093 
Q 1294 3584 2113 3584 
Q 2378 3584 2631 3529 
Q 2884 3475 3122 3366 
z
" transform="scale(0.015625)"/>
       <path id="DejaVuSans-6e" d="M 3513 2113 
L 3513 0 
L 2938 0 
L 2938 2094 
Q 2938 2591 2744 2837 
Q 2550 3084 2163 3084 
Q 1697 3084 1428 2787 
Q 1159 2491 1159 1978 
L 1159 0 
L 581 0 
L 581 3500 
L 1159 3500 
L 1159 2956 
Q 1366 3272 1645 3428 
Q 1925 3584 2291 3584 
Q 2894 3584 3203 3211 
Q 3513 2838 3513 2113 
z
" transform="scale(0.015625)"/>
       <path id="DejaVuSans-74" d="M 1172 4494 
L 1172 3500 
L 2356 3500 
L 2356 3053 
L 1172 3053 
L 1172 1153 
Q 1172 725 1289 603 
Q 1406 481 1766 481 
L 2356 481 
L 2356 0 
L 1766 0 
Q 1100 0 847 248 
Q 594 497 594 1153 
L 594 3053 
L 172 3053 
L 172 3500 
L 594 3500 
L 594 4494 
L 1172 4494 
z
" transform="scale(0.015625)"/>
       <path id="DejaVuSans-47" d="M 3809 666 
L 3809 1919 
L 2778 1919 
L 2778 2438 
L 4434 2438 
L 4434 434 
Q 4069 175 3628 42 
Q 3188 -91 2688 -91 
Q 1594 -91 976 548 
Q 359 1188 359 2328 
Q 359 3472 976 4111 
Q 1594 4750 2688 4750 
Q 3144 4750 3555 4637 
Q 3966 4525 4313 4306 
L 4313 3634 
Q 3963 3931 3569 4081 
Q 3175 4231 2741 4231 
Q 1884 4231 1454 3753 
Q 1025 3275 1025 2328 
Q 1025 1384 1454 906 
Q 1884 428 2741 428 
Q 3075 428 3337 486 
Q 3600 544 3809 666 
z
" transform="scale(0.015625)"/>
       <path id="DejaVuSans-70" d="M 1159 525 
L 1159 -1331 
L 581 -1331 
L 581 3500 
L 1159 3500 
L 1159 2969 
Q 1341 3281 1617 3432 
Q 1894 3584 2278 3584 
Q 2916 3584 3314 3078 
Q 3713 2572 3713 1747 
Q 3713 922 3314 415 
Q 2916 -91 2278 -91 
Q 1894 -91 1617 61 
Q 1341 213 1159 525 
z
M 3116 1747 
Q 3116 2381 2855 2742 
Q 2594 3103 2138 3103 
Q 1681 3103 1420 2742 
Q 1159 2381 1159 1747 
Q 1159 1113 1420 752 
Q 1681 391 2138 391 
Q 2594 391 2855 752 
Q 3116 1113 3116 1747 
z
" transform="scale(0.015625)"/>
       <path id="DejaVuSans-41" d="M 2188 4044 
L 1331 1722 
L 3047 1722 
L 2188 4044 
z
M 1831 4666 
L 2547 4666 
L 4325 0 
L 3669 0 
L 3244 1197 
L 1141 1197 
L 716 0 
L 50 0 
L 1831 4666 
z
" transform="scale(0.015625)"/>
       <path id="DejaVuSans-5f" d="M 3263 -1063 
L 3263 -1509 
L -63 -1509 
L -63 -1063 
L 3263 -1063 
z
" transform="scale(0.015625)"/>
       <path id="DejaVuSans-61" d="M 2194 1759 
Q 1497 1759 1228 1600 
Q 959 1441 959 1056 
Q 959 750 1161 570 
Q 1363 391 1709 391 
Q 2188 391 2477 730 
Q 2766 1069 2766 1631 
L 2766 1759 
L 2194 1759 
z
M 3341 1997 
L 3341 0 
L 2766 0 
L 2766 531 
Q 2569 213 2275 61 
Q 1981 -91 1556 -91 
Q 1019 -91 701 211 
Q 384 513 384 1019 
Q 384 1609 779 1909 
Q 1175 2209 1959 2209 
L 2766 2209 
L 2766 2266 
Q 2766 2663 2505 2880 
Q 2244 3097 1772 3097 
Q 1472 3097 1187 3025 
Q 903 2953 641 2809 
L 641 3341 
Q 956 3463 1253 3523 
Q 1550 3584 1831 3584 
Q 2591 3584 2966 3190 
Q 3341 2797 3341 1997 
z
" transform="scale(0.015625)"/>
       <path id="DejaVuSans-73" d="M 2834 3397 
L 2834 2853 
Q 2591 2978 2328 3040 
Q 2066 3103 1784 3103 
Q 1356 3103 1142 2972 
Q 928 2841 928 2578 
Q 928 2378 1081 2264 
Q 1234 2150 1697 2047 
L 1894 2003 
Q 2506 1872 2764 1633 
Q 3022 1394 3022 966 
Q 3022 478 2636 193 
Q 2250 -91 1575 -91 
Q 1294 -91 989 -36 
Q 684 19 347 128 
L 347 722 
Q 666 556 975 473 
Q 1284 391 1588 391 
Q 1994 391 2212 530 
Q 2431 669 2431 922 
Q 2431 1156 2273 1281 
Q 2116 1406 1581 1522 
L 1381 1569 
Q 847 1681 609 1914 
Q 372 2147 372 2553 
Q 372 3047 722 3315 
Q 1072 3584 1716 3584 
Q 2034 3584 2315 3537 
Q 2597 3491 2834 3397 
z
" transform="scale(0.015625)"/>
       <path id="DejaVuSans-6f" d="M 1959 3097 
Q 1497 3097 1228 2736 
Q 959 2375 959 1747 
Q 959 1119 1226 758 
Q 1494 397 1959 397 
Q 2419 397 2687 759 
Q 2956 1122 2956 1747 
Q 2956 2369 2687 2733 
Q 2419 3097 1959 3097 
z
M 1959 3584 
Q 2709 3584 3137 3096 
Q 3566 2609 3566 1747 
Q 3566 888 3137 398 
Q 2709 -91 1959 -91 
Q 1206 -91 779 398 
Q 353 888 353 1747 
Q 353 2609 779 3096 
Q 1206 3584 1959 3584 
z
" transform="scale(0.015625)"/>
       <path id="DejaVuSans-6d" d="M 3328 2828 
Q 3544 3216 3844 3400 
Q 4144 3584 4550 3584 
Q 5097 3584 5394 3201 
Q 5691 2819 5691 2113 
L 5691 0 
L 5113 0 
L 5113 2094 
Q 5113 2597 4934 2840 
Q 4756 3084 4391 3084 
Q 3944 3084 3684 2787 
Q 3425 2491 3425 1978 
L 3425 0 
L 2847 0 
L 2847 2094 
Q 2847 2600 2669 2842 
Q 2491 3084 2119 3084 
Q 1678 3084 1418 2786 
Q 1159 2488 1159 1978 
L 1159 0 
L 581 0 
L 581 3500 
L 1159 3500 
L 1159 2956 
Q 1356 3278 1631 3431 
Q 1906 3584 2284 3584 
Q 2666 3584 2933 3390 
Q 3200 3197 3328 2828 
z
" transform="scale(0.015625)"/>
       <path id="DejaVuSans-64" d="M 2906 2969 
L 2906 4863 
L 3481 4863 
L 3481 0 
L 2906 0 
L 2906 525 
Q 2725 213 2448 61 
Q 2172 -91 1784 -91 
Q 1150 -91 751 415 
Q 353 922 353 1747 
Q 353 2572 751 3078 
Q 1150 3584 1784 3584 
Q 2172 3584 2448 3432 
Q 2725 3281 2906 2969 
z
M 947 1747 
Q 947 1113 1208 752 
Q 1469 391 1925 391 
Q 2381 391 2643 752 
Q 2906 1113 2906 1747 
Q 2906 2381 2643 2742 
Q 2381 3103 1925 3103 
Q 1469 3103 1208 2742 
Q 947 2381 947 1747 
z
" transform="scale(0.015625)"/>
      </defs>
      <use xlink:href="#DejaVuSans-50"/>
      <use xlink:href="#DejaVuSans-65" x="56.677734"/>
      <use xlink:href="#DejaVuSans-72" x="118.201172"/>
      <use xlink:href="#DejaVuSans-63" x="157.064453"/>
      <use xlink:href="#DejaVuSans-65" x="212.044922"/>
      <use xlink:href="#DejaVuSans-6e" x="273.568359"/>
      <use xlink:href="#DejaVuSans-74" x="336.947266"/>
      <use xlink:href="#DejaVuSans-47" x="376.15625"/>
      <use xlink:href="#DejaVuSans-70" x="453.646484"/>
      <use xlink:href="#DejaVuSans-41" x="517.123047"/>
      <use xlink:href="#DejaVuSans-5f" x="585.53125"/>
      <use xlink:href="#DejaVuSans-74" x="635.53125"/>
      <use xlink:href="#DejaVuSans-72" x="674.740234"/>
      <use xlink:href="#DejaVuSans-61" x="715.853516"/>
      <use xlink:href="#DejaVuSans-6e" x="777.132812"/>
      <use xlink:href="#DejaVuSans-73" x="840.511719"/>
      <use xlink:href="#DejaVuSans-66" x="892.611328"/>
      <use xlink:href="#DejaVuSans-6f" x="927.816406"/>
      <use xlink:href="#DejaVuSans-72" x="988.998047"/>
      <use xlink:href="#DejaVuSans-6d" x="1028.361328"/>
      <use xlink:href="#DejaVuSans-65" x="1125.773438"/>
      <use xlink:href="#DejaVuSans-64" x="1187.296875"/>
     </g>
    </g>
   </g>
   <g id="LineCollection_1">
    <path d="M 287.231078 203.094598 
L 287.231078 190.873838 
" clip-path="url(#p34ab1a9ecc)" style="fill: none; stroke: #d3d3d3; stroke-width: 3"/>
    <path d="M 263.260808 192.188401 
L 263.260808 177.547154 
" clip-path="url(#p34ab1a9ecc)" style="fill: none; stroke: #d3d3d3; stroke-width: 3"/>
    <path d="M 235.710505 199.890489 
L 235.710505 170.397654 
" clip-path="url(#p34ab1a9ecc)" style="fill: none; stroke: #d3d3d3; stroke-width: 3"/>
    <path d="M 197.490995 286.182592 
L 197.490995 119.937345 
" clip-path="url(#p34ab1a9ecc)" style="fill: none; stroke: #d3d3d3; stroke-width: 3"/>
    <path d="M 201.416625 287.808331 
L 201.416625 274.313376 
" clip-path="url(#p34ab1a9ecc)" style="fill: none; stroke: #d3d3d3; stroke-width: 3"/>
    <path d="M 251.023121 237.891743 
L 251.023121 58.372556 
" clip-path="url(#p34ab1a9ecc)" style="fill: none; stroke: #d3d3d3; stroke-width: 3"/>
    <path d="M 318.698149 203.687114 
L 318.698149 184.062689 
" clip-path="url(#p34ab1a9ecc)" style="fill: none; stroke: #d3d3d3; stroke-width: 3"/>
    <path d="M 279.946951 217.437976 
L 279.946951 206.128463 
" clip-path="url(#p34ab1a9ecc)" style="fill: none; stroke: #d3d3d3; stroke-width: 3"/>
    <path d="M 309.491084 213.888825 
L 309.491084 191.195973 
" clip-path="url(#p34ab1a9ecc)" style="fill: none; stroke: #d3d3d3; stroke-width: 3"/>
    <path d="M 231.536754 280.735939 
L 231.536754 272.869846 
" clip-path="url(#p34ab1a9ecc)" style="fill: none; stroke: #d3d3d3; stroke-width: 3"/>
    <path d="M 243.012354 251.999255 
L 243.012354 227.650228 
" clip-path="url(#p34ab1a9ecc)" style="fill: none; stroke: #d3d3d3; stroke-width: 3"/>
    <path d="M 277.864506 200.794811 
L 277.864506 172.299214 
" clip-path="url(#p34ab1a9ecc)" style="fill: none; stroke: #d3d3d3; stroke-width: 3"/>
    <path d="M 190.180284 286.465432 
L 190.180284 273.18519 
" clip-path="url(#p34ab1a9ecc)" style="fill: none; stroke: #d3d3d3; stroke-width: 3"/>
    <path d="M 272.14886 224.428765 
L 272.14886 211.992793 
" clip-path="url(#p34ab1a9ecc)" style="fill: none; stroke: #d3d3d3; stroke-width: 3"/>
    <path d="M 385.194602 218.530683 
L 385.194602 196.524746 
" clip-path="url(#p34ab1a9ecc)" style="fill: none; stroke: #d3d3d3; stroke-width: 3"/>
    <path d="M 260.035234 204.318228 
L 260.035234 189.402662 
" clip-path="url(#p34ab1a9ecc)" style="fill: none; stroke: #d3d3d3; stroke-width: 3"/>
    <path d="M 211.181963 291.43209 
L 211.181963 265.034388 
" clip-path="url(#p34ab1a9ecc)" style="fill: none; stroke: #d3d3d3; stroke-width: 3"/>
    <path d="M 230.207534 287.797191 
L 230.207534 283.207578 
" clip-path="url(#p34ab1a9ecc)" style="fill: none; stroke: #d3d3d3; stroke-width: 3"/>
    <path d="M 268.28526 219.491895 
L 268.28526 183.191337 
" clip-path="url(#p34ab1a9ecc)" style="fill: none; stroke: #d3d3d3; stroke-width: 3"/>
    <path d="M 191.686734 192.315317 
L 191.686734 139.324182 
" clip-path="url(#p34ab1a9ecc)" style="fill: none; stroke: #d3d3d3; stroke-width: 3"/>
    <path d="M 201.531824 214.567608 
L 201.531824 181.424533 
" clip-path="url(#p34ab1a9ecc)" style="fill: none; stroke: #d3d3d3; stroke-width: 3"/>
    <path d="M 176.445009 180.988361 
L 176.445009 164.348393 
" clip-path="url(#p34ab1a9ecc)" style="fill: none; stroke: #d3d3d3; stroke-width: 3"/>
    <path d="M 194.14136 196.277486 
L 194.14136 180.077404 
" clip-path="url(#p34ab1a9ecc)" style="fill: none; stroke: #d3d3d3; stroke-width: 3"/>
    <path d="M 233.734398 185.916452 
L 233.734398 156.582468 
" clip-path="url(#p34ab1a9ecc)" style="fill: none; stroke: #d3d3d3; stroke-width: 3"/>
    <path d="M 209.764128 208.925255 
L 209.764128 172.705953 
" clip-path="url(#p34ab1a9ecc)" style="fill: none; stroke: #d3d3d3; stroke-width: 3"/>
    <path d="M 244.85554 192.3219 
L 244.85554 176.123669 
" clip-path="url(#p34ab1a9ecc)" style="fill: none; stroke: #d3d3d3; stroke-width: 3"/>
    <path d="M 230.42907 270.183513 
L 230.42907 261.842085 
" clip-path="url(#p34ab1a9ecc)" style="fill: none; stroke: #d3d3d3; stroke-width: 3"/>
    <path d="M 229.658123 225.227265 
L 229.658123 208.361675 
" clip-path="url(#p34ab1a9ecc)" style="fill: none; stroke: #d3d3d3; stroke-width: 3"/>
    <path d="M 208.514661 285.739074 
L 208.514661 276.674481 
" clip-path="url(#p34ab1a9ecc)" style="fill: none; stroke: #d3d3d3; stroke-width: 3"/>
    <path d="M 218.067323 255.961044 
L 218.067323 253.169956 
" clip-path="url(#p34ab1a9ecc)" style="fill: none; stroke: #d3d3d3; stroke-width: 3"/>
    <path d="M 205.085273 212.759077 
L 205.085273 179.779142 
" clip-path="url(#p34ab1a9ecc)" style="fill: none; stroke: #d3d3d3; stroke-width: 3"/>
    <path d="M 219.396543 240.111366 
L 219.396543 231.333962 
" clip-path="url(#p34ab1a9ecc)" style="fill: none; stroke: #d3d3d3; stroke-width: 3"/>
    <path d="M 202.081235 270.413392 
L 202.081235 267.903822 
" clip-path="url(#p34ab1a9ecc)" style="fill: none; stroke: #d3d3d3; stroke-width: 3"/>
    <path d="M 210.712305 230.531109 
L 210.712305 229.708843 
" clip-path="url(#p34ab1a9ecc)" style="fill: none; stroke: #d3d3d3; stroke-width: 3"/>
   </g>
   <g id="LineCollection_2">
    <path d="M 132.864312 272.987152 
L 132.864312 261.996567 
" clip-path="url(#p34ab1a9ecc)" style="fill: none; stroke: #d3d3d3; stroke-width: 3"/>
    <path d="M 160.62729 283.064674 
L 160.62729 267.76162 
" clip-path="url(#p34ab1a9ecc)" style="fill: none; stroke: #d3d3d3; stroke-width: 3"/>
    <path d="M 178.110965 256.376858 
L 178.110965 237.701908 
" clip-path="url(#p34ab1a9ecc)" style="fill: none; stroke: #d3d3d3; stroke-width: 3"/>
    <path d="M 63.886648 279.328773 
L 63.886648 269.519009 
" clip-path="url(#p34ab1a9ecc)" style="fill: none; stroke: #d3d3d3; stroke-width: 3"/>
    <path d="M 98.348895 272.844173 
L 98.348895 245.470467 
" clip-path="url(#p34ab1a9ecc)" style="fill: none; stroke: #d3d3d3; stroke-width: 3"/>
    <path d="M 73.510202 266.220548 
L 73.510202 253.697488 
" clip-path="url(#p34ab1a9ecc)" style="fill: none; stroke: #d3d3d3; stroke-width: 3"/>
    <path d="M 158.216971 273.559212 
L 158.216971 247.91439 
" clip-path="url(#p34ab1a9ecc)" style="fill: none; stroke: #d3d3d3; stroke-width: 3"/>
   </g>
   <g id="LineCollection_3">
    <path d="M 248.550772 270.834008 
L 248.550772 251.754542 
" clip-path="url(#p34ab1a9ecc)" style="fill: none; stroke: #d3d3d3; stroke-width: 3"/>
    <path d="M 240.584312 272.217117 
L 240.584312 267.185726 
" clip-path="url(#p34ab1a9ecc)" style="fill: none; stroke: #d3d3d3; stroke-width: 3"/>
    <path d="M 183.835473 282.596322 
L 183.835473 272.799523 
" clip-path="url(#p34ab1a9ecc)" style="fill: none; stroke: #d3d3d3; stroke-width: 3"/>
    <path d="M 294.302529 271.940375 
L 294.302529 260.121017 
" clip-path="url(#p34ab1a9ecc)" style="fill: none; stroke: #d3d3d3; stroke-width: 3"/>
    <path d="M 288.843865 288.568619 
L 288.843865 275.733389 
" clip-path="url(#p34ab1a9ecc)" style="fill: none; stroke: #d3d3d3; stroke-width: 3"/>
    <path d="M 295.046892 284.653928 
L 295.046892 273.289603 
" clip-path="url(#p34ab1a9ecc)" style="fill: none; stroke: #d3d3d3; stroke-width: 3"/>
    <path d="M 199.14809 276.70507 
L 199.14809 266.730513 
" clip-path="url(#p34ab1a9ecc)" style="fill: none; stroke: #d3d3d3; stroke-width: 3"/>
    <path d="M 317.91834 291.901667 
L 317.91834 252.962782 
" clip-path="url(#p34ab1a9ecc)" style="fill: none; stroke: #d3d3d3; stroke-width: 3"/>
    <path d="M 314.852272 287.139723 
L 314.852272 273.999711 
" clip-path="url(#p34ab1a9ecc)" style="fill: none; stroke: #d3d3d3; stroke-width: 3"/>
    <path d="M 198.040406 279.049218 
L 198.040406 262.722468 
" clip-path="url(#p34ab1a9ecc)" style="fill: none; stroke: #d3d3d3; stroke-width: 3"/>
    <path d="M 223.029745 271.047769 
L 223.029745 261.971004 
" clip-path="url(#p34ab1a9ecc)" style="fill: none; stroke: #d3d3d3; stroke-width: 3"/>
    <path d="M 331.875152 289.103101 
L 331.875152 275.756861 
" clip-path="url(#p34ab1a9ecc)" style="fill: none; stroke: #d3d3d3; stroke-width: 3"/>
    <path d="M 227.40731 285.913282 
L 227.40731 273.418843 
" clip-path="url(#p34ab1a9ecc)" style="fill: none; stroke: #d3d3d3; stroke-width: 3"/>
    <path d="M 301.843638 282.722452 
L 301.843638 270.995093 
" clip-path="url(#p34ab1a9ecc)" style="fill: none; stroke: #d3d3d3; stroke-width: 3"/>
    <path d="M 244.120038 279.297175 
L 244.120038 267.124778 
" clip-path="url(#p34ab1a9ecc)" style="fill: none; stroke: #d3d3d3; stroke-width: 3"/>
    <path d="M 209.3565 277.315301 
L 209.3565 263.066336 
" clip-path="url(#p34ab1a9ecc)" style="fill: none; stroke: #d3d3d3; stroke-width: 3"/>
    <path d="M 140.449728 282.261978 
L 140.449728 273.211409 
" clip-path="url(#p34ab1a9ecc)" style="fill: none; stroke: #d3d3d3; stroke-width: 3"/>
    <path d="M 191.465197 250.625994 
L 191.465197 248.106414 
" clip-path="url(#p34ab1a9ecc)" style="fill: none; stroke: #d3d3d3; stroke-width: 3"/>
    <path d="M 175.780399 266.122632 
L 175.780399 259.798971 
" clip-path="url(#p34ab1a9ecc)" style="fill: none; stroke: #d3d3d3; stroke-width: 3"/>
    <path d="M 186.609113 269.325445 
L 186.609113 263.932827 
" clip-path="url(#p34ab1a9ecc)" style="fill: none; stroke: #d3d3d3; stroke-width: 3"/>
    <path d="M 211.740235 249.927519 
L 211.740235 237.214609 
" clip-path="url(#p34ab1a9ecc)" style="fill: none; stroke: #d3d3d3; stroke-width: 3"/>
    <path d="M 192.165253 275.808982 
L 192.165253 265.046743 
" clip-path="url(#p34ab1a9ecc)" style="fill: none; stroke: #d3d3d3; stroke-width: 3"/>
    <path d="M 203.906698 251.853284 
L 203.906698 242.018986 
" clip-path="url(#p34ab1a9ecc)" style="fill: none; stroke: #d3d3d3; stroke-width: 3"/>
    <path d="M 206.130926 269.389552 
L 206.130926 258.590516 
" clip-path="url(#p34ab1a9ecc)" style="fill: none; stroke: #d3d3d3; stroke-width: 3"/>
    <path d="M 201.558409 292.309398 
L 201.558409 280.072348 
" clip-path="url(#p34ab1a9ecc)" style="fill: none; stroke: #d3d3d3; stroke-width: 3"/>
    <path d="M 195.665533 279.987415 
L 195.665533 274.493584 
" clip-path="url(#p34ab1a9ecc)" style="fill: none; stroke: #d3d3d3; stroke-width: 3"/>
    <path d="M 206.051173 217.208186 
L 206.051173 208.642399 
" clip-path="url(#p34ab1a9ecc)" style="fill: none; stroke: #d3d3d3; stroke-width: 3"/>
   </g>
   <g id="line2d_15">
    <path d="M 287.231078 233.590133 
L 263.260808 236.884701 
L 235.710505 240.671323 
L 197.490995 245.924364 
L 201.416625 245.384809 
L 251.023121 238.566697 
L 318.698149 229.265174 
L 279.946951 234.591292 
L 309.491084 230.530629 
L 231.536754 241.24498 
L 243.012354 239.667728 
L 277.864506 234.877511 
L 190.180284 246.929176 
L 272.14886 235.663092 
L 385.194602 220.125639 
L 260.035234 237.328037 
L 211.181963 244.042623 
L 230.207534 241.427673 
L 268.28526 236.194121 
L 132.864312 254.80691 
L 160.62729 250.991057 
L 178.110965 248.588031 
L 248.550772 238.906506 
L 240.584312 240.001448 
L 183.835473 247.801232 
L 294.302529 232.618204 
L 288.843865 233.368465 
L 295.046892 232.515896 
L 199.14809 245.696606 
L 317.91834 229.372354 
L 314.852272 229.793767 
L 198.040406 245.84885 
L 223.029745 242.414217 
L 331.875152 227.454075 
L 227.40731 241.812547 
L 301.843638 231.581725 
L 244.120038 239.515484 
L 209.3565 244.293522 
L 191.686734 246.722124 
L 201.531824 245.368976 
L 176.445009 248.817007 
L 194.14136 246.384751 
L 233.734398 240.942927 
L 209.764128 244.237496 
L 244.85554 239.414394 
L 230.42907 241.397225 
L 229.658123 241.503187 
L 208.514661 244.409227 
L 218.067323 243.096272 
L 205.085273 244.880576 
L 219.396543 242.913579 
L 202.081235 245.293463 
L 210.712305 244.107175 
L 63.886648 264.287472 
L 98.348895 259.550845 
L 73.510202 262.964773 
L 158.216971 251.32234 
L 140.449728 253.76434 
L 191.465197 246.752573 
L 175.780399 248.908353 
L 186.609113 247.420012 
L 211.740235 243.965892 
L 192.165253 246.656355 
L 203.906698 245.042564 
L 206.130926 244.736857 
L 201.558409 245.365322 
L 195.665533 246.175262 
L 206.051173 244.747819 
" clip-path="url(#p34ab1a9ecc)" style="fill: none; stroke: #1f77b4; stroke-width: 1.5; stroke-linecap: square"/>
   </g>
   <g id="line2d_16">
    <g clip-path="url(#p34ab1a9ecc)">
     <use xlink:href="#m2348a6f9e5" x="287.231078" y="196.984218" style="fill: #3cb371; stroke: #3cb371"/>
     <use xlink:href="#m2348a6f9e5" x="263.260808" y="184.867777" style="fill: #3cb371; stroke: #3cb371"/>
     <use xlink:href="#m2348a6f9e5" x="235.710505" y="185.144071" style="fill: #3cb371; stroke: #3cb371"/>
     <use xlink:href="#m2348a6f9e5" x="197.490995" y="203.059968" style="fill: #3cb371; stroke: #3cb371"/>
     <use xlink:href="#m2348a6f9e5" x="201.416625" y="281.060853" style="fill: #3cb371; stroke: #3cb371"/>
     <use xlink:href="#m2348a6f9e5" x="251.023121" y="148.132149" style="fill: #3cb371; stroke: #3cb371"/>
     <use xlink:href="#m2348a6f9e5" x="318.698149" y="193.874901" style="fill: #3cb371; stroke: #3cb371"/>
     <use xlink:href="#m2348a6f9e5" x="279.946951" y="211.783219" style="fill: #3cb371; stroke: #3cb371"/>
     <use xlink:href="#m2348a6f9e5" x="309.491084" y="202.542399" style="fill: #3cb371; stroke: #3cb371"/>
     <use xlink:href="#m2348a6f9e5" x="231.536754" y="276.802892" style="fill: #3cb371; stroke: #3cb371"/>
     <use xlink:href="#m2348a6f9e5" x="243.012354" y="239.824741" style="fill: #3cb371; stroke: #3cb371"/>
     <use xlink:href="#m2348a6f9e5" x="277.864506" y="186.547013" style="fill: #3cb371; stroke: #3cb371"/>
     <use xlink:href="#m2348a6f9e5" x="190.180284" y="279.825311" style="fill: #3cb371; stroke: #3cb371"/>
     <use xlink:href="#m2348a6f9e5" x="272.14886" y="218.210779" style="fill: #3cb371; stroke: #3cb371"/>
     <use xlink:href="#m2348a6f9e5" x="385.194602" y="207.527714" style="fill: #3cb371; stroke: #3cb371"/>
     <use xlink:href="#m2348a6f9e5" x="260.035234" y="196.860445" style="fill: #3cb371; stroke: #3cb371"/>
     <use xlink:href="#m2348a6f9e5" x="211.181963" y="278.233239" style="fill: #3cb371; stroke: #3cb371"/>
     <use xlink:href="#m2348a6f9e5" x="230.207534" y="285.502385" style="fill: #3cb371; stroke: #3cb371"/>
     <use xlink:href="#m2348a6f9e5" x="268.28526" y="201.341616" style="fill: #3cb371; stroke: #3cb371"/>
     <use xlink:href="#m2348a6f9e5" x="191.686734" y="165.81975" style="fill: #3cb371; stroke: #3cb371"/>
     <use xlink:href="#m2348a6f9e5" x="201.531824" y="197.99607" style="fill: #3cb371; stroke: #3cb371"/>
     <use xlink:href="#m2348a6f9e5" x="176.445009" y="172.668377" style="fill: #3cb371; stroke: #3cb371"/>
     <use xlink:href="#m2348a6f9e5" x="194.14136" y="188.177445" style="fill: #3cb371; stroke: #3cb371"/>
     <use xlink:href="#m2348a6f9e5" x="233.734398" y="171.24946" style="fill: #3cb371; stroke: #3cb371"/>
     <use xlink:href="#m2348a6f9e5" x="209.764128" y="190.815604" style="fill: #3cb371; stroke: #3cb371"/>
     <use xlink:href="#m2348a6f9e5" x="244.85554" y="184.222785" style="fill: #3cb371; stroke: #3cb371"/>
     <use xlink:href="#m2348a6f9e5" x="230.42907" y="266.012799" style="fill: #3cb371; stroke: #3cb371"/>
     <use xlink:href="#m2348a6f9e5" x="229.658123" y="216.79447" style="fill: #3cb371; stroke: #3cb371"/>
     <use xlink:href="#m2348a6f9e5" x="208.514661" y="281.206777" style="fill: #3cb371; stroke: #3cb371"/>
     <use xlink:href="#m2348a6f9e5" x="218.067323" y="254.5655" style="fill: #3cb371; stroke: #3cb371"/>
     <use xlink:href="#m2348a6f9e5" x="205.085273" y="196.269109" style="fill: #3cb371; stroke: #3cb371"/>
     <use xlink:href="#m2348a6f9e5" x="219.396543" y="235.722664" style="fill: #3cb371; stroke: #3cb371"/>
     <use xlink:href="#m2348a6f9e5" x="202.081235" y="269.158607" style="fill: #3cb371; stroke: #3cb371"/>
     <use xlink:href="#m2348a6f9e5" x="210.712305" y="230.119976" style="fill: #3cb371; stroke: #3cb371"/>
    </g>
   </g>
   <g id="line2d_17">
    <g clip-path="url(#p34ab1a9ecc)">
     <use xlink:href="#m7c8e0890e9" x="132.864312" y="267.491859" style="fill: #ffdead; stroke: #ffdead"/>
     <use xlink:href="#m7c8e0890e9" x="160.62729" y="275.413147" style="fill: #ffdead; stroke: #ffdead"/>
     <use xlink:href="#m7c8e0890e9" x="178.110965" y="247.039383" style="fill: #ffdead; stroke: #ffdead"/>
     <use xlink:href="#m7c8e0890e9" x="63.886648" y="274.423891" style="fill: #ffdead; stroke: #ffdead"/>
     <use xlink:href="#m7c8e0890e9" x="98.348895" y="259.15732" style="fill: #ffdead; stroke: #ffdead"/>
     <use xlink:href="#m7c8e0890e9" x="73.510202" y="259.959018" style="fill: #ffdead; stroke: #ffdead"/>
     <use xlink:href="#m7c8e0890e9" x="158.216971" y="260.736801" style="fill: #ffdead; stroke: #ffdead"/>
    </g>
   </g>
   <g id="line2d_18">
    <g clip-path="url(#p34ab1a9ecc)">
     <use xlink:href="#m2895d64de8" x="248.550772" y="261.294275" style="fill: #483d8b; stroke: #483d8b"/>
     <use xlink:href="#m2895d64de8" x="240.584312" y="269.701422" style="fill: #483d8b; stroke: #483d8b"/>
     <use xlink:href="#m2895d64de8" x="183.835473" y="277.697922" style="fill: #483d8b; stroke: #483d8b"/>
     <use xlink:href="#m2895d64de8" x="294.302529" y="266.030696" style="fill: #483d8b; stroke: #483d8b"/>
     <use xlink:href="#m2895d64de8" x="288.843865" y="282.151004" style="fill: #483d8b; stroke: #483d8b"/>
     <use xlink:href="#m2895d64de8" x="295.046892" y="278.971765" style="fill: #483d8b; stroke: #483d8b"/>
     <use xlink:href="#m2895d64de8" x="199.14809" y="271.717791" style="fill: #483d8b; stroke: #483d8b"/>
     <use xlink:href="#m2895d64de8" x="317.91834" y="272.432225" style="fill: #483d8b; stroke: #483d8b"/>
     <use xlink:href="#m2895d64de8" x="314.852272" y="280.569717" style="fill: #483d8b; stroke: #483d8b"/>
     <use xlink:href="#m2895d64de8" x="198.040406" y="270.885843" style="fill: #483d8b; stroke: #483d8b"/>
     <use xlink:href="#m2895d64de8" x="223.029745" y="266.509386" style="fill: #483d8b; stroke: #483d8b"/>
     <use xlink:href="#m2895d64de8" x="331.875152" y="282.429981" style="fill: #483d8b; stroke: #483d8b"/>
     <use xlink:href="#m2895d64de8" x="227.40731" y="279.666062" style="fill: #483d8b; stroke: #483d8b"/>
     <use xlink:href="#m2895d64de8" x="301.843638" y="276.858773" style="fill: #483d8b; stroke: #483d8b"/>
     <use xlink:href="#m2895d64de8" x="244.120038" y="273.210977" style="fill: #483d8b; stroke: #483d8b"/>
     <use xlink:href="#m2895d64de8" x="209.3565" y="270.190818" style="fill: #483d8b; stroke: #483d8b"/>
     <use xlink:href="#m2895d64de8" x="140.449728" y="277.736693" style="fill: #483d8b; stroke: #483d8b"/>
     <use xlink:href="#m2895d64de8" x="191.465197" y="249.366204" style="fill: #483d8b; stroke: #483d8b"/>
     <use xlink:href="#m2895d64de8" x="175.780399" y="262.960802" style="fill: #483d8b; stroke: #483d8b"/>
     <use xlink:href="#m2895d64de8" x="186.609113" y="266.629136" style="fill: #483d8b; stroke: #483d8b"/>
     <use xlink:href="#m2895d64de8" x="211.740235" y="243.571064" style="fill: #483d8b; stroke: #483d8b"/>
     <use xlink:href="#m2895d64de8" x="192.165253" y="270.427863" style="fill: #483d8b; stroke: #483d8b"/>
     <use xlink:href="#m2895d64de8" x="203.906698" y="246.936135" style="fill: #483d8b; stroke: #483d8b"/>
     <use xlink:href="#m2895d64de8" x="206.130926" y="263.990034" style="fill: #483d8b; stroke: #483d8b"/>
     <use xlink:href="#m2895d64de8" x="201.558409" y="286.190873" style="fill: #483d8b; stroke: #483d8b"/>
     <use xlink:href="#m2895d64de8" x="195.665533" y="277.240499" style="fill: #483d8b; stroke: #483d8b"/>
     <use xlink:href="#m2895d64de8" x="206.051173" y="212.925292" style="fill: #483d8b; stroke: #483d8b"/>
    </g>
   </g>
   <g id="patch_3">
    <path d="M 47.82125 303.64 
L 47.82125 46.675714 
" style="fill: none; stroke: #000000; stroke-width: 0.8; stroke-linejoin: miter; stroke-linecap: square"/>
   </g>
   <g id="patch_4">
    <path d="M 401.26 303.64 
L 401.26 46.675714 
" style="fill: none; stroke: #000000; stroke-width: 0.8; stroke-linejoin: miter; stroke-linecap: square"/>
   </g>
   <g id="patch_5">
    <path d="M 47.82125 303.64 
L 401.26 303.64 
" style="fill: none; stroke: #000000; stroke-width: 0.8; stroke-linejoin: miter; stroke-linecap: square"/>
   </g>
   <g id="patch_6">
    <path d="M 47.82125 46.675714 
L 401.26 46.675714 
" style="fill: none; stroke: #000000; stroke-width: 0.8; stroke-linejoin: miter; stroke-linecap: square"/>
   </g>
   <g id="text_17">
    <!-- y = 0.01x + 0.39 -->
    <g transform="translate(40.244813 18.599375)scale(0.1 -0.1)">
     <defs>
      <path id="DejaVuSans-79" d="M 2059 -325 
Q 1816 -950 1584 -1140 
Q 1353 -1331 966 -1331 
L 506 -1331 
L 506 -850 
L 844 -850 
Q 1081 -850 1212 -737 
Q 1344 -625 1503 -206 
L 1606 56 
L 191 3500 
L 800 3500 
L 1894 763 
L 2988 3500 
L 3597 3500 
L 2059 -325 
z
" transform="scale(0.015625)"/>
      <path id="DejaVuSans-20" transform="scale(0.015625)"/>
      <path id="DejaVuSans-3d" d="M 678 2906 
L 4684 2906 
L 4684 2381 
L 678 2381 
L 678 2906 
z
M 678 1631 
L 4684 1631 
L 4684 1100 
L 678 1100 
L 678 1631 
z
" transform="scale(0.015625)"/>
      <path id="DejaVuSans-78" d="M 3513 3500 
L 2247 1797 
L 3578 0 
L 2900 0 
L 1881 1375 
L 863 0 
L 184 0 
L 1544 1831 
L 300 3500 
L 978 3500 
L 1906 2253 
L 2834 3500 
L 3513 3500 
z
" transform="scale(0.015625)"/>
      <path id="DejaVuSans-2b" d="M 2944 4013 
L 2944 2272 
L 4684 2272 
L 4684 1741 
L 2944 1741 
L 2944 0 
L 2419 0 
L 2419 1741 
L 678 1741 
L 678 2272 
L 2419 2272 
L 2419 4013 
L 2944 4013 
z
" transform="scale(0.015625)"/>
      <path id="DejaVuSans-39" d="M 703 97 
L 703 672 
Q 941 559 1184 500 
Q 1428 441 1663 441 
Q 2288 441 2617 861 
Q 2947 1281 2994 2138 
Q 2813 1869 2534 1725 
Q 2256 1581 1919 1581 
Q 1219 1581 811 2004 
Q 403 2428 403 3163 
Q 403 3881 828 4315 
Q 1253 4750 1959 4750 
Q 2769 4750 3195 4129 
Q 3622 3509 3622 2328 
Q 3622 1225 3098 567 
Q 2575 -91 1691 -91 
Q 1453 -91 1209 -44 
Q 966 3 703 97 
z
M 1959 2075 
Q 2384 2075 2632 2365 
Q 2881 2656 2881 3163 
Q 2881 3666 2632 3958 
Q 2384 4250 1959 4250 
Q 1534 4250 1286 3958 
Q 1038 3666 1038 3163 
Q 1038 2656 1286 2365 
Q 1534 2075 1959 2075 
z
" transform="scale(0.015625)"/>
     </defs>
     <use xlink:href="#DejaVuSans-79"/>
     <use xlink:href="#DejaVuSans-20" x="59.179688"/>
     <use xlink:href="#DejaVuSans-3d" x="90.966797"/>
     <use xlink:href="#DejaVuSans-20" x="174.755859"/>
     <use xlink:href="#DejaVuSans-30" x="206.542969"/>
     <use xlink:href="#DejaVuSans-2e" x="270.166016"/>
     <use xlink:href="#DejaVuSans-30" x="301.953125"/>
     <use xlink:href="#DejaVuSans-31" x="365.576172"/>
     <use xlink:href="#DejaVuSans-78" x="429.199219"/>
     <use xlink:href="#DejaVuSans-20" x="488.378906"/>
     <use xlink:href="#DejaVuSans-2b" x="520.166016"/>
     <use xlink:href="#DejaVuSans-20" x="603.955078"/>
     <use xlink:href="#DejaVuSans-30" x="635.742188"/>
     <use xlink:href="#DejaVuSans-2e" x="699.365234"/>
     <use xlink:href="#DejaVuSans-33" x="731.152344"/>
     <use xlink:href="#DejaVuSans-39" x="794.775391"/>
    </g>
   </g>
   <g id="text_18">
    <!-- r^2 = 0.04 -->
    <g transform="translate(55.237781 26.308304)scale(0.1 -0.1)">
     <defs>
      <path id="DejaVuSans-5e" d="M 2988 4666 
L 4684 2925 
L 4056 2925 
L 2681 4159 
L 1306 2925 
L 678 2925 
L 2375 4666 
L 2988 4666 
z
" transform="scale(0.015625)"/>
     </defs>
     <use xlink:href="#DejaVuSans-72"/>
     <use xlink:href="#DejaVuSans-5e" x="41.113281"/>
     <use xlink:href="#DejaVuSans-32" x="124.902344"/>
     <use xlink:href="#DejaVuSans-20" x="188.525391"/>
     <use xlink:href="#DejaVuSans-3d" x="220.3125"/>
     <use xlink:href="#DejaVuSans-20" x="304.101562"/>
     <use xlink:href="#DejaVuSans-30" x="335.888672"/>
     <use xlink:href="#DejaVuSans-2e" x="399.511719"/>
     <use xlink:href="#DejaVuSans-30" x="431.298828"/>
     <use xlink:href="#DejaVuSans-34" x="494.921875"/>
    </g>
   </g>
   <g id="text_19">
    <!-- n = 68 -->
    <g transform="translate(66.265906 34.017232)scale(0.1 -0.1)">
     <defs>
      <path id="DejaVuSans-36" d="M 2113 2584 
Q 1688 2584 1439 2293 
Q 1191 2003 1191 1497 
Q 1191 994 1439 701 
Q 1688 409 2113 409 
Q 2538 409 2786 701 
Q 3034 994 3034 1497 
Q 3034 2003 2786 2293 
Q 2538 2584 2113 2584 
z
M 3366 4563 
L 3366 3988 
Q 3128 4100 2886 4159 
Q 2644 4219 2406 4219 
Q 1781 4219 1451 3797 
Q 1122 3375 1075 2522 
Q 1259 2794 1537 2939 
Q 1816 3084 2150 3084 
Q 2853 3084 3261 2657 
Q 3669 2231 3669 1497 
Q 3669 778 3244 343 
Q 2819 -91 2113 -91 
Q 1303 -91 875 529 
Q 447 1150 447 2328 
Q 447 3434 972 4092 
Q 1497 4750 2381 4750 
Q 2619 4750 2861 4703 
Q 3103 4656 3366 4563 
z
" transform="scale(0.015625)"/>
      <path id="DejaVuSans-38" d="M 2034 2216 
Q 1584 2216 1326 1975 
Q 1069 1734 1069 1313 
Q 1069 891 1326 650 
Q 1584 409 2034 409 
Q 2484 409 2743 651 
Q 3003 894 3003 1313 
Q 3003 1734 2745 1975 
Q 2488 2216 2034 2216 
z
M 1403 2484 
Q 997 2584 770 2862 
Q 544 3141 544 3541 
Q 544 4100 942 4425 
Q 1341 4750 2034 4750 
Q 2731 4750 3128 4425 
Q 3525 4100 3525 3541 
Q 3525 3141 3298 2862 
Q 3072 2584 2669 2484 
Q 3125 2378 3379 2068 
Q 3634 1759 3634 1313 
Q 3634 634 3220 271 
Q 2806 -91 2034 -91 
Q 1263 -91 848 271 
Q 434 634 434 1313 
Q 434 1759 690 2068 
Q 947 2378 1403 2484 
z
M 1172 3481 
Q 1172 3119 1398 2916 
Q 1625 2713 2034 2713 
Q 2441 2713 2670 2916 
Q 2900 3119 2900 3481 
Q 2900 3844 2670 4047 
Q 2441 4250 2034 4250 
Q 1625 4250 1398 4047 
Q 1172 3844 1172 3481 
z
" transform="scale(0.015625)"/>
     </defs>
     <use xlink:href="#DejaVuSans-6e"/>
     <use xlink:href="#DejaVuSans-20" x="63.378906"/>
     <use xlink:href="#DejaVuSans-3d" x="95.166016"/>
     <use xlink:href="#DejaVuSans-20" x="178.955078"/>
     <use xlink:href="#DejaVuSans-36" x="210.742188"/>
     <use xlink:href="#DejaVuSans-38" x="274.365234"/>
    </g>
   </g>
   <g id="text_20">
    <!-- IMM1Diff vs PercentGpA_transformed -->
    <g transform="translate(112.551562 40.675714)scale(0.12 -0.12)">
     <defs>
      <path id="DejaVuSans-76" d="M 191 3500 
L 800 3500 
L 1894 563 
L 2988 3500 
L 3597 3500 
L 2284 0 
L 1503 0 
L 191 3500 
z
" transform="scale(0.015625)"/>
     </defs>
     <use xlink:href="#DejaVuSans-49"/>
     <use xlink:href="#DejaVuSans-4d" x="29.492188"/>
     <use xlink:href="#DejaVuSans-4d" x="115.771484"/>
     <use xlink:href="#DejaVuSans-31" x="202.050781"/>
     <use xlink:href="#DejaVuSans-44" x="265.673828"/>
     <use xlink:href="#DejaVuSans-69" x="342.675781"/>
     <use xlink:href="#DejaVuSans-66" x="370.458984"/>
     <use xlink:href="#DejaVuSans-66" x="405.664062"/>
     <use xlink:href="#DejaVuSans-20" x="440.869141"/>
     <use xlink:href="#DejaVuSans-76" x="472.65625"/>
     <use xlink:href="#DejaVuSans-73" x="531.835938"/>
     <use xlink:href="#DejaVuSans-20" x="583.935547"/>
     <use xlink:href="#DejaVuSans-50" x="615.722656"/>
     <use xlink:href="#DejaVuSans-65" x="672.400391"/>
     <use xlink:href="#DejaVuSans-72" x="733.923828"/>
     <use xlink:href="#DejaVuSans-63" x="772.787109"/>
     <use xlink:href="#DejaVuSans-65" x="827.767578"/>
     <use xlink:href="#DejaVuSans-6e" x="889.291016"/>
     <use xlink:href="#DejaVuSans-74" x="952.669922"/>
     <use xlink:href="#DejaVuSans-47" x="991.878906"/>
     <use xlink:href="#DejaVuSans-70" x="1069.369141"/>
     <use xlink:href="#DejaVuSans-41" x="1132.845703"/>
     <use xlink:href="#DejaVuSans-5f" x="1201.253906"/>
     <use xlink:href="#DejaVuSans-74" x="1251.253906"/>
     <use xlink:href="#DejaVuSans-72" x="1290.462891"/>
     <use xlink:href="#DejaVuSans-61" x="1331.576172"/>
     <use xlink:href="#DejaVuSans-6e" x="1392.855469"/>
     <use xlink:href="#DejaVuSans-73" x="1456.234375"/>
     <use xlink:href="#DejaVuSans-66" x="1508.333984"/>
     <use xlink:href="#DejaVuSans-6f" x="1543.539062"/>
     <use xlink:href="#DejaVuSans-72" x="1604.720703"/>
     <use xlink:href="#DejaVuSans-6d" x="1644.083984"/>
     <use xlink:href="#DejaVuSans-65" x="1741.496094"/>
     <use xlink:href="#DejaVuSans-64" x="1803.019531"/>
    </g>
   </g>
   <g id="legend_1">
    <g id="patch_7">
     <path d="M 408.26 98.710089 
L 448.008438 98.710089 
Q 450.008438 98.710089 450.008438 96.710089 
L 450.008438 53.675714 
Q 450.008438 51.675714 448.008438 51.675714 
L 408.26 51.675714 
Q 406.26 51.675714 406.26 53.675714 
L 406.26 96.710089 
Q 406.26 98.710089 408.26 98.710089 
z
" style="fill: #ffffff; opacity: 0.8; stroke: #cccccc; stroke-linejoin: miter"/>
    </g>
    <g id="PathCollection_4">
     <g>
      <use xlink:href="#m2348a6f9e5" x="420.26" y="60.649152" style="fill: #3cb371; stroke: #3cb371"/>
     </g>
    </g>
    <g id="text_21">
     <!-- G -->
     <g transform="translate(438.26 63.274152)scale(0.1 -0.1)">
      <use xlink:href="#DejaVuSans-47"/>
     </g>
    </g>
    <g id="PathCollection_5">
     <g>
      <use xlink:href="#m7c8e0890e9" x="420.26" y="75.327277" style="fill: #ffdead; stroke: #ffdead"/>
     </g>
    </g>
    <g id="text_22">
     <!-- L -->
     <g transform="translate(438.26 77.952277)scale(0.1 -0.1)">
      <defs>
       <path id="DejaVuSans-4c" d="M 628 4666 
L 1259 4666 
L 1259 531 
L 3531 531 
L 3531 0 
L 628 0 
L 628 4666 
z
" transform="scale(0.015625)"/>
      </defs>
      <use xlink:href="#DejaVuSans-4c"/>
     </g>
    </g>
    <g id="PathCollection_6">
     <g>
      <use xlink:href="#m2895d64de8" x="420.26" y="90.005402" style="fill: #483d8b; stroke: #483d8b"/>
     </g>
    </g>
    <g id="text_23">
     <!-- R -->
     <g transform="translate(438.26 92.630402)scale(0.1 -0.1)">
      <defs>
       <path id="DejaVuSans-52" d="M 2841 2188 
Q 3044 2119 3236 1894 
Q 3428 1669 3622 1275 
L 4263 0 
L 3584 0 
L 2988 1197 
Q 2756 1666 2539 1819 
Q 2322 1972 1947 1972 
L 1259 1972 
L 1259 0 
L 628 0 
L 628 4666 
L 2053 4666 
Q 2853 4666 3247 4331 
Q 3641 3997 3641 3322 
Q 3641 2881 3436 2590 
Q 3231 2300 2841 2188 
z
M 1259 4147 
L 1259 2491 
L 2053 2491 
Q 2509 2491 2742 2702 
Q 2975 2913 2975 3322 
Q 2975 3731 2742 3939 
Q 2509 4147 2053 4147 
L 1259 4147 
z
" transform="scale(0.015625)"/>
      </defs>
      <use xlink:href="#DejaVuSans-52"/>
     </g>
    </g>
   </g>
  </g>
 </g>
 <defs>
  <clipPath id="p34ab1a9ecc">
   <rect x="47.82125" y="46.675714" width="353.43875" height="256.964286"/>
  </clipPath>
 </defs>
</svg>
