<?xml version="1.0" encoding="utf-8" standalone="no"?>
<!DOCTYPE svg PUBLIC "-//W3C//DTD SVG 1.1//EN"
  "http://www.w3.org/Graphics/SVG/1.1/DTD/svg11.dtd">
<svg xmlns:xlink="http://www.w3.org/1999/xlink" width="460.8pt" height="345.6pt" viewBox="0 0 460.8 345.6" xmlns="http://www.w3.org/2000/svg" version="1.1">
 <metadata>
  <rdf:RDF xmlns:dc="http://purl.org/dc/elements/1.1/" xmlns:cc="http://creativecommons.org/ns#" xmlns:rdf="http://www.w3.org/1999/02/22-rdf-syntax-ns#">
   <cc:Work>
    <dc:type rdf:resource="http://purl.org/dc/dcmitype/StillImage"/>
    <dc:date>2024-02-15T15:55:29.657249</dc:date>
    <dc:format>image/svg+xml</dc:format>
    <dc:creator>
     <cc:Agent>
      <dc:title>Matplotlib v3.7.1, https://matplotlib.org/</dc:title>
     </cc:Agent>
    </dc:creator>
   </cc:Work>
  </rdf:RDF>
 </metadata>
 <defs>
  <style type="text/css">*{stroke-linejoin: round; stroke-linecap: butt}</style>
 </defs>
 <g id="figure_1">
  <g id="patch_1">
   <path d="M 0 345.6 
L 460.8 345.6 
L 460.8 0 
L 0 0 
z
" style="fill: #ffffff"/>
  </g>
  <g id="axes_1">
   <g id="patch_2">
    <path d="M 47.82125 303.64 
L 450 303.64 
L 450 46.543987 
L 47.82125 46.543987 
z
" style="fill: #ffffff"/>
   </g>
   <g id="PathCollection_1">
    <defs>
     <path id="m57d349ec04" d="M 0 3 
C 0.795609 3 1.55874 2.683901 2.12132 2.12132 
C 2.683901 1.55874 3 0.795609 3 0 
C 3 -0.795609 2.683901 -1.55874 2.12132 -2.12132 
C 1.55874 -2.683901 0.795609 -3 0 -3 
C -0.795609 -3 -1.55874 -2.683901 -2.12132 -2.12132 
C -2.683901 -1.55874 -3 -0.795609 -3 0 
C -3 0.795609 -2.683901 1.55874 -2.12132 2.12132 
C -1.55874 2.683901 -0.795609 3 0 3 
z
" style="stroke: #1f77b4"/>
    </defs>
    <g clip-path="url(#p04ebe9ebc7)">
     <use xlink:href="#m57d349ec04" x="197.75953" y="174.921099" style="fill: #1f77b4; stroke: #1f77b4"/>
     <use xlink:href="#m57d349ec04" x="207.933266" y="184.045802" style="fill: #1f77b4; stroke: #1f77b4"/>
     <use xlink:href="#m57d349ec04" x="214.920696" y="61.059229" style="fill: #1f77b4; stroke: #1f77b4"/>
     <use xlink:href="#m57d349ec04" x="221.767649" y="156.110516" style="fill: #1f77b4; stroke: #1f77b4"/>
     <use xlink:href="#m57d349ec04" x="250.446218" y="215.820535" style="fill: #1f77b4; stroke: #1f77b4"/>
     <use xlink:href="#m57d349ec04" x="253.359776" y="212.753294" style="fill: #1f77b4; stroke: #1f77b4"/>
     <use xlink:href="#m57d349ec04" x="255.790781" y="267.474313" style="fill: #1f77b4; stroke: #1f77b4"/>
     <use xlink:href="#m57d349ec04" x="258.343109" y="181.882313" style="fill: #1f77b4; stroke: #1f77b4"/>
     <use xlink:href="#m57d349ec04" x="281.547583" y="210.698952" style="fill: #1f77b4; stroke: #1f77b4"/>
     <use xlink:href="#m57d349ec04" x="282.819186" y="299.66855" style="fill: #1f77b4; stroke: #1f77b4"/>
     <use xlink:href="#m57d349ec04" x="288.238549" y="160.20197" style="fill: #1f77b4; stroke: #1f77b4"/>
     <use xlink:href="#m57d349ec04" x="303.83621" y="187.832059" style="fill: #1f77b4; stroke: #1f77b4"/>
     <use xlink:href="#m57d349ec04" x="329.36405" y="188.958441" style="fill: #1f77b4; stroke: #1f77b4"/>
     <use xlink:href="#m57d349ec04" x="332.136217" y="230.578425" style="fill: #1f77b4; stroke: #1f77b4"/>
     <use xlink:href="#m57d349ec04" x="353.81276" y="237.080277" style="fill: #1f77b4; stroke: #1f77b4"/>
     <use xlink:href="#m57d349ec04" x="66.102102" y="148.275048" style="fill: #1f77b4; stroke: #1f77b4"/>
     <use xlink:href="#m57d349ec04" x="107.081651" y="160.845804" style="fill: #1f77b4; stroke: #1f77b4"/>
     <use xlink:href="#m57d349ec04" x="112.205463" y="165.785063" style="fill: #1f77b4; stroke: #1f77b4"/>
     <use xlink:href="#m57d349ec04" x="141.56818" y="158.194132" style="fill: #1f77b4; stroke: #1f77b4"/>
     <use xlink:href="#m57d349ec04" x="145.225179" y="186.153583" style="fill: #1f77b4; stroke: #1f77b4"/>
     <use xlink:href="#m57d349ec04" x="168.339344" y="154.522727" style="fill: #1f77b4; stroke: #1f77b4"/>
     <use xlink:href="#m57d349ec04" x="175.331336" y="165.135959" style="fill: #1f77b4; stroke: #1f77b4"/>
     <use xlink:href="#m57d349ec04" x="178.903501" y="184.004424" style="fill: #1f77b4; stroke: #1f77b4"/>
     <use xlink:href="#m57d349ec04" x="185.577136" y="159.898614" style="fill: #1f77b4; stroke: #1f77b4"/>
     <use xlink:href="#m57d349ec04" x="192.990563" y="196.79896" style="fill: #1f77b4; stroke: #1f77b4"/>
     <use xlink:href="#m57d349ec04" x="197.384617" y="172.140744" style="fill: #1f77b4; stroke: #1f77b4"/>
     <use xlink:href="#m57d349ec04" x="201.555182" y="180.692836" style="fill: #1f77b4; stroke: #1f77b4"/>
     <use xlink:href="#m57d349ec04" x="214.507471" y="132.086342" style="fill: #1f77b4; stroke: #1f77b4"/>
     <use xlink:href="#m57d349ec04" x="217.789557" y="154.586504" style="fill: #1f77b4; stroke: #1f77b4"/>
     <use xlink:href="#m57d349ec04" x="218.123421" y="192.18985" style="fill: #1f77b4; stroke: #1f77b4"/>
     <use xlink:href="#m57d349ec04" x="219.540063" y="238.228252" style="fill: #1f77b4; stroke: #1f77b4"/>
     <use xlink:href="#m57d349ec04" x="220.320904" y="177.427398" style="fill: #1f77b4; stroke: #1f77b4"/>
     <use xlink:href="#m57d349ec04" x="220.907447" y="168.724108" style="fill: #1f77b4; stroke: #1f77b4"/>
     <use xlink:href="#m57d349ec04" x="227.432394" y="189.646291" style="fill: #1f77b4; stroke: #1f77b4"/>
     <use xlink:href="#m57d349ec04" x="248.473135" y="155.028435" style="fill: #1f77b4; stroke: #1f77b4"/>
     <use xlink:href="#m57d349ec04" x="253.404473" y="172.263047" style="fill: #1f77b4; stroke: #1f77b4"/>
     <use xlink:href="#m57d349ec04" x="267.561775" y="284.017378" style="fill: #1f77b4; stroke: #1f77b4"/>
     <use xlink:href="#m57d349ec04" x="270.418776" y="265.075013" style="fill: #1f77b4; stroke: #1f77b4"/>
     <use xlink:href="#m57d349ec04" x="272.826977" y="176.030607" style="fill: #1f77b4; stroke: #1f77b4"/>
     <use xlink:href="#m57d349ec04" x="279.211446" y="178.92537" style="fill: #1f77b4; stroke: #1f77b4"/>
     <use xlink:href="#m57d349ec04" x="300.789471" y="267.259962" style="fill: #1f77b4; stroke: #1f77b4"/>
     <use xlink:href="#m57d349ec04" x="305.951595" y="286.268896" style="fill: #1f77b4; stroke: #1f77b4"/>
     <use xlink:href="#m57d349ec04" x="321.314821" y="250.006647" style="fill: #1f77b4; stroke: #1f77b4"/>
     <use xlink:href="#m57d349ec04" x="324.896108" y="257.39218" style="fill: #1f77b4; stroke: #1f77b4"/>
     <use xlink:href="#m57d349ec04" x="336.99458" y="233.235782" style="fill: #1f77b4; stroke: #1f77b4"/>
     <use xlink:href="#m57d349ec04" x="344.337767" y="238.386075" style="fill: #1f77b4; stroke: #1f77b4"/>
     <use xlink:href="#m57d349ec04" x="350.776968" y="220.514647" style="fill: #1f77b4; stroke: #1f77b4"/>
     <use xlink:href="#m57d349ec04" x="353.675018" y="172.032835" style="fill: #1f77b4; stroke: #1f77b4"/>
     <use xlink:href="#m57d349ec04" x="369.424104" y="280.663489" style="fill: #1f77b4; stroke: #1f77b4"/>
     <use xlink:href="#m57d349ec04" x="369.583738" y="274.074468" style="fill: #1f77b4; stroke: #1f77b4"/>
     <use xlink:href="#m57d349ec04" x="431.719148" y="287.189023" style="fill: #1f77b4; stroke: #1f77b4"/>
    </g>
   </g>
   <g id="matplotlib.axis_1">
    <g id="xtick_1">
     <g id="line2d_1">
      <defs>
       <path id="m5184342779" d="M 0 0 
L 0 3.5 
" style="stroke: #000000; stroke-width: 0.8"/>
      </defs>
      <g>
       <use xlink:href="#m5184342779" x="74.218833" y="303.64" style="stroke: #000000; stroke-width: 0.8"/>
      </g>
     </g>
     <g id="text_1">
      <!-- −45 -->
      <g transform="translate(63.66649 318.238437) scale(0.1 -0.1)">
       <defs>
        <path id="DejaVuSans-2212" d="M 678 2272 
L 4684 2272 
L 4684 1741 
L 678 1741 
L 678 2272 
z
" transform="scale(0.015625)"/>
        <path id="DejaVuSans-34" d="M 2419 4116 
L 825 1625 
L 2419 1625 
L 2419 4116 
z
M 2253 4666 
L 3047 4666 
L 3047 1625 
L 3713 1625 
L 3713 1100 
L 3047 1100 
L 3047 0 
L 2419 0 
L 2419 1100 
L 313 1100 
L 313 1709 
L 2253 4666 
z
" transform="scale(0.015625)"/>
        <path id="DejaVuSans-35" d="M 691 4666 
L 3169 4666 
L 3169 4134 
L 1269 4134 
L 1269 2991 
Q 1406 3038 1543 3061 
Q 1681 3084 1819 3084 
Q 2600 3084 3056 2656 
Q 3513 2228 3513 1497 
Q 3513 744 3044 326 
Q 2575 -91 1722 -91 
Q 1428 -91 1123 -41 
Q 819 9 494 109 
L 494 744 
Q 775 591 1075 516 
Q 1375 441 1709 441 
Q 2250 441 2565 725 
Q 2881 1009 2881 1497 
Q 2881 1984 2565 2268 
Q 2250 2553 1709 2553 
Q 1456 2553 1204 2497 
Q 953 2441 691 2322 
L 691 4666 
z
" transform="scale(0.015625)"/>
       </defs>
       <use xlink:href="#DejaVuSans-2212"/>
       <use xlink:href="#DejaVuSans-34" x="83.789062"/>
       <use xlink:href="#DejaVuSans-35" x="147.412109"/>
      </g>
     </g>
    </g>
    <g id="xtick_2">
     <g id="line2d_2">
      <g>
       <use xlink:href="#m5184342779" x="119.828695" y="303.64" style="stroke: #000000; stroke-width: 0.8"/>
      </g>
     </g>
     <g id="text_2">
      <!-- −40 -->
      <g transform="translate(109.276351 318.238437) scale(0.1 -0.1)">
       <defs>
        <path id="DejaVuSans-30" d="M 2034 4250 
Q 1547 4250 1301 3770 
Q 1056 3291 1056 2328 
Q 1056 1369 1301 889 
Q 1547 409 2034 409 
Q 2525 409 2770 889 
Q 3016 1369 3016 2328 
Q 3016 3291 2770 3770 
Q 2525 4250 2034 4250 
z
M 2034 4750 
Q 2819 4750 3233 4129 
Q 3647 3509 3647 2328 
Q 3647 1150 3233 529 
Q 2819 -91 2034 -91 
Q 1250 -91 836 529 
Q 422 1150 422 2328 
Q 422 3509 836 4129 
Q 1250 4750 2034 4750 
z
" transform="scale(0.015625)"/>
       </defs>
       <use xlink:href="#DejaVuSans-2212"/>
       <use xlink:href="#DejaVuSans-34" x="83.789062"/>
       <use xlink:href="#DejaVuSans-30" x="147.412109"/>
      </g>
     </g>
    </g>
    <g id="xtick_3">
     <g id="line2d_3">
      <g>
       <use xlink:href="#m5184342779" x="165.438557" y="303.64" style="stroke: #000000; stroke-width: 0.8"/>
      </g>
     </g>
     <g id="text_3">
      <!-- −35 -->
      <g transform="translate(154.886213 318.238437) scale(0.1 -0.1)">
       <defs>
        <path id="DejaVuSans-33" d="M 2597 2516 
Q 3050 2419 3304 2112 
Q 3559 1806 3559 1356 
Q 3559 666 3084 287 
Q 2609 -91 1734 -91 
Q 1441 -91 1130 -33 
Q 819 25 488 141 
L 488 750 
Q 750 597 1062 519 
Q 1375 441 1716 441 
Q 2309 441 2620 675 
Q 2931 909 2931 1356 
Q 2931 1769 2642 2001 
Q 2353 2234 1838 2234 
L 1294 2234 
L 1294 2753 
L 1863 2753 
Q 2328 2753 2575 2939 
Q 2822 3125 2822 3475 
Q 2822 3834 2567 4026 
Q 2313 4219 1838 4219 
Q 1578 4219 1281 4162 
Q 984 4106 628 3988 
L 628 4550 
Q 988 4650 1302 4700 
Q 1616 4750 1894 4750 
Q 2613 4750 3031 4423 
Q 3450 4097 3450 3541 
Q 3450 3153 3228 2886 
Q 3006 2619 2597 2516 
z
" transform="scale(0.015625)"/>
       </defs>
       <use xlink:href="#DejaVuSans-2212"/>
       <use xlink:href="#DejaVuSans-33" x="83.789062"/>
       <use xlink:href="#DejaVuSans-35" x="147.412109"/>
      </g>
     </g>
    </g>
    <g id="xtick_4">
     <g id="line2d_4">
      <g>
       <use xlink:href="#m5184342779" x="211.048419" y="303.64" style="stroke: #000000; stroke-width: 0.8"/>
      </g>
     </g>
     <g id="text_4">
      <!-- −30 -->
      <g transform="translate(200.496075 318.238437) scale(0.1 -0.1)">
       <use xlink:href="#DejaVuSans-2212"/>
       <use xlink:href="#DejaVuSans-33" x="83.789062"/>
       <use xlink:href="#DejaVuSans-30" x="147.412109"/>
      </g>
     </g>
    </g>
    <g id="xtick_5">
     <g id="line2d_5">
      <g>
       <use xlink:href="#m5184342779" x="256.658281" y="303.64" style="stroke: #000000; stroke-width: 0.8"/>
      </g>
     </g>
     <g id="text_5">
      <!-- −25 -->
      <g transform="translate(246.105937 318.238437) scale(0.1 -0.1)">
       <defs>
        <path id="DejaVuSans-32" d="M 1228 531 
L 3431 531 
L 3431 0 
L 469 0 
L 469 531 
Q 828 903 1448 1529 
Q 2069 2156 2228 2338 
Q 2531 2678 2651 2914 
Q 2772 3150 2772 3378 
Q 2772 3750 2511 3984 
Q 2250 4219 1831 4219 
Q 1534 4219 1204 4116 
Q 875 4013 500 3803 
L 500 4441 
Q 881 4594 1212 4672 
Q 1544 4750 1819 4750 
Q 2544 4750 2975 4387 
Q 3406 4025 3406 3419 
Q 3406 3131 3298 2873 
Q 3191 2616 2906 2266 
Q 2828 2175 2409 1742 
Q 1991 1309 1228 531 
z
" transform="scale(0.015625)"/>
       </defs>
       <use xlink:href="#DejaVuSans-2212"/>
       <use xlink:href="#DejaVuSans-32" x="83.789062"/>
       <use xlink:href="#DejaVuSans-35" x="147.412109"/>
      </g>
     </g>
    </g>
    <g id="xtick_6">
     <g id="line2d_6">
      <g>
       <use xlink:href="#m5184342779" x="302.268143" y="303.64" style="stroke: #000000; stroke-width: 0.8"/>
      </g>
     </g>
     <g id="text_6">
      <!-- −20 -->
      <g transform="translate(291.715799 318.238437) scale(0.1 -0.1)">
       <use xlink:href="#DejaVuSans-2212"/>
       <use xlink:href="#DejaVuSans-32" x="83.789062"/>
       <use xlink:href="#DejaVuSans-30" x="147.412109"/>
      </g>
     </g>
    </g>
    <g id="xtick_7">
     <g id="line2d_7">
      <g>
       <use xlink:href="#m5184342779" x="347.878005" y="303.64" style="stroke: #000000; stroke-width: 0.8"/>
      </g>
     </g>
     <g id="text_7">
      <!-- −15 -->
      <g transform="translate(337.325661 318.238437) scale(0.1 -0.1)">
       <defs>
        <path id="DejaVuSans-31" d="M 794 531 
L 1825 531 
L 1825 4091 
L 703 3866 
L 703 4441 
L 1819 4666 
L 2450 4666 
L 2450 531 
L 3481 531 
L 3481 0 
L 794 0 
L 794 531 
z
" transform="scale(0.015625)"/>
       </defs>
       <use xlink:href="#DejaVuSans-2212"/>
       <use xlink:href="#DejaVuSans-31" x="83.789062"/>
       <use xlink:href="#DejaVuSans-35" x="147.412109"/>
      </g>
     </g>
    </g>
    <g id="xtick_8">
     <g id="line2d_8">
      <g>
       <use xlink:href="#m5184342779" x="393.487867" y="303.64" style="stroke: #000000; stroke-width: 0.8"/>
      </g>
     </g>
     <g id="text_8">
      <!-- −10 -->
      <g transform="translate(382.935523 318.238437) scale(0.1 -0.1)">
       <use xlink:href="#DejaVuSans-2212"/>
       <use xlink:href="#DejaVuSans-31" x="83.789062"/>
       <use xlink:href="#DejaVuSans-30" x="147.412109"/>
      </g>
     </g>
    </g>
    <g id="xtick_9">
     <g id="line2d_9">
      <g>
       <use xlink:href="#m5184342779" x="439.097729" y="303.64" style="stroke: #000000; stroke-width: 0.8"/>
      </g>
     </g>
     <g id="text_9">
      <!-- −5 -->
      <g transform="translate(431.726635 318.238437) scale(0.1 -0.1)">
       <use xlink:href="#DejaVuSans-2212"/>
       <use xlink:href="#DejaVuSans-35" x="83.789062"/>
      </g>
     </g>
    </g>
    <g id="text_10">
     <!-- Total -->
     <g transform="translate(237.234062 331.916562) scale(0.1 -0.1)">
      <defs>
       <path id="DejaVuSans-54" d="M -19 4666 
L 3928 4666 
L 3928 4134 
L 2272 4134 
L 2272 0 
L 1638 0 
L 1638 4134 
L -19 4134 
L -19 4666 
z
" transform="scale(0.015625)"/>
       <path id="DejaVuSans-6f" d="M 1959 3097 
Q 1497 3097 1228 2736 
Q 959 2375 959 1747 
Q 959 1119 1226 758 
Q 1494 397 1959 397 
Q 2419 397 2687 759 
Q 2956 1122 2956 1747 
Q 2956 2369 2687 2733 
Q 2419 3097 1959 3097 
z
M 1959 3584 
Q 2709 3584 3137 3096 
Q 3566 2609 3566 1747 
Q 3566 888 3137 398 
Q 2709 -91 1959 -91 
Q 1206 -91 779 398 
Q 353 888 353 1747 
Q 353 2609 779 3096 
Q 1206 3584 1959 3584 
z
" transform="scale(0.015625)"/>
       <path id="DejaVuSans-74" d="M 1172 4494 
L 1172 3500 
L 2356 3500 
L 2356 3053 
L 1172 3053 
L 1172 1153 
Q 1172 725 1289 603 
Q 1406 481 1766 481 
L 2356 481 
L 2356 0 
L 1766 0 
Q 1100 0 847 248 
Q 594 497 594 1153 
L 594 3053 
L 172 3053 
L 172 3500 
L 594 3500 
L 594 4494 
L 1172 4494 
z
" transform="scale(0.015625)"/>
       <path id="DejaVuSans-61" d="M 2194 1759 
Q 1497 1759 1228 1600 
Q 959 1441 959 1056 
Q 959 750 1161 570 
Q 1363 391 1709 391 
Q 2188 391 2477 730 
Q 2766 1069 2766 1631 
L 2766 1759 
L 2194 1759 
z
M 3341 1997 
L 3341 0 
L 2766 0 
L 2766 531 
Q 2569 213 2275 61 
Q 1981 -91 1556 -91 
Q 1019 -91 701 211 
Q 384 513 384 1019 
Q 384 1609 779 1909 
Q 1175 2209 1959 2209 
L 2766 2209 
L 2766 2266 
Q 2766 2663 2505 2880 
Q 2244 3097 1772 3097 
Q 1472 3097 1187 3025 
Q 903 2953 641 2809 
L 641 3341 
Q 956 3463 1253 3523 
Q 1550 3584 1831 3584 
Q 2591 3584 2966 3190 
Q 3341 2797 3341 1997 
z
" transform="scale(0.015625)"/>
       <path id="DejaVuSans-6c" d="M 603 4863 
L 1178 4863 
L 1178 0 
L 603 0 
L 603 4863 
z
" transform="scale(0.015625)"/>
      </defs>
      <use xlink:href="#DejaVuSans-54"/>
      <use xlink:href="#DejaVuSans-6f" x="44.083984"/>
      <use xlink:href="#DejaVuSans-74" x="105.265625"/>
      <use xlink:href="#DejaVuSans-61" x="144.474609"/>
      <use xlink:href="#DejaVuSans-6c" x="205.753906"/>
     </g>
    </g>
   </g>
   <g id="matplotlib.axis_2">
    <g id="ytick_1">
     <g id="line2d_10">
      <defs>
       <path id="m231464e0e9" d="M 0 0 
L -3.5 0 
" style="stroke: #000000; stroke-width: 0.8"/>
      </defs>
      <g>
       <use xlink:href="#m231464e0e9" x="47.82125" y="303.64" style="stroke: #000000; stroke-width: 0.8"/>
      </g>
     </g>
     <g id="text_11">
      <!-- 0.0 -->
      <g transform="translate(24.918125 307.439219) scale(0.1 -0.1)">
       <defs>
        <path id="DejaVuSans-2e" d="M 684 794 
L 1344 794 
L 1344 0 
L 684 0 
L 684 794 
z
" transform="scale(0.015625)"/>
       </defs>
       <use xlink:href="#DejaVuSans-30"/>
       <use xlink:href="#DejaVuSans-2e" x="63.623047"/>
       <use xlink:href="#DejaVuSans-30" x="95.410156"/>
      </g>
     </g>
    </g>
    <g id="ytick_2">
     <g id="line2d_11">
      <g>
       <use xlink:href="#m231464e0e9" x="47.82125" y="251.020626" style="stroke: #000000; stroke-width: 0.8"/>
      </g>
     </g>
     <g id="text_12">
      <!-- 0.5 -->
      <g transform="translate(24.918125 254.819845) scale(0.1 -0.1)">
       <use xlink:href="#DejaVuSans-30"/>
       <use xlink:href="#DejaVuSans-2e" x="63.623047"/>
       <use xlink:href="#DejaVuSans-35" x="95.410156"/>
      </g>
     </g>
    </g>
    <g id="ytick_3">
     <g id="line2d_12">
      <g>
       <use xlink:href="#m231464e0e9" x="47.82125" y="198.401252" style="stroke: #000000; stroke-width: 0.8"/>
      </g>
     </g>
     <g id="text_13">
      <!-- 1.0 -->
      <g transform="translate(24.918125 202.200471) scale(0.1 -0.1)">
       <use xlink:href="#DejaVuSans-31"/>
       <use xlink:href="#DejaVuSans-2e" x="63.623047"/>
       <use xlink:href="#DejaVuSans-30" x="95.410156"/>
      </g>
     </g>
    </g>
    <g id="ytick_4">
     <g id="line2d_13">
      <g>
       <use xlink:href="#m231464e0e9" x="47.82125" y="145.781878" style="stroke: #000000; stroke-width: 0.8"/>
      </g>
     </g>
     <g id="text_14">
      <!-- 1.5 -->
      <g transform="translate(24.918125 149.581097) scale(0.1 -0.1)">
       <use xlink:href="#DejaVuSans-31"/>
       <use xlink:href="#DejaVuSans-2e" x="63.623047"/>
       <use xlink:href="#DejaVuSans-35" x="95.410156"/>
      </g>
     </g>
    </g>
    <g id="ytick_5">
     <g id="line2d_14">
      <g>
       <use xlink:href="#m231464e0e9" x="47.82125" y="93.162504" style="stroke: #000000; stroke-width: 0.8"/>
      </g>
     </g>
     <g id="text_15">
      <!-- 2.0 -->
      <g transform="translate(24.918125 96.961723) scale(0.1 -0.1)">
       <use xlink:href="#DejaVuSans-32"/>
       <use xlink:href="#DejaVuSans-2e" x="63.623047"/>
       <use xlink:href="#DejaVuSans-30" x="95.410156"/>
      </g>
     </g>
    </g>
    <g id="text_16">
     <!-- PercentGpA_transformed -->
     <g transform="translate(18.560312 237.630275) rotate(-90) scale(0.1 -0.1)">
      <defs>
       <path id="DejaVuSans-50" d="M 1259 4147 
L 1259 2394 
L 2053 2394 
Q 2494 2394 2734 2622 
Q 2975 2850 2975 3272 
Q 2975 3691 2734 3919 
Q 2494 4147 2053 4147 
L 1259 4147 
z
M 628 4666 
L 2053 4666 
Q 2838 4666 3239 4311 
Q 3641 3956 3641 3272 
Q 3641 2581 3239 2228 
Q 2838 1875 2053 1875 
L 1259 1875 
L 1259 0 
L 628 0 
L 628 4666 
z
" transform="scale(0.015625)"/>
       <path id="DejaVuSans-65" d="M 3597 1894 
L 3597 1613 
L 953 1613 
Q 991 1019 1311 708 
Q 1631 397 2203 397 
Q 2534 397 2845 478 
Q 3156 559 3463 722 
L 3463 178 
Q 3153 47 2828 -22 
Q 2503 -91 2169 -91 
Q 1331 -91 842 396 
Q 353 884 353 1716 
Q 353 2575 817 3079 
Q 1281 3584 2069 3584 
Q 2775 3584 3186 3129 
Q 3597 2675 3597 1894 
z
M 3022 2063 
Q 3016 2534 2758 2815 
Q 2500 3097 2075 3097 
Q 1594 3097 1305 2825 
Q 1016 2553 972 2059 
L 3022 2063 
z
" transform="scale(0.015625)"/>
       <path id="DejaVuSans-72" d="M 2631 2963 
Q 2534 3019 2420 3045 
Q 2306 3072 2169 3072 
Q 1681 3072 1420 2755 
Q 1159 2438 1159 1844 
L 1159 0 
L 581 0 
L 581 3500 
L 1159 3500 
L 1159 2956 
Q 1341 3275 1631 3429 
Q 1922 3584 2338 3584 
Q 2397 3584 2469 3576 
Q 2541 3569 2628 3553 
L 2631 2963 
z
" transform="scale(0.015625)"/>
       <path id="DejaVuSans-63" d="M 3122 3366 
L 3122 2828 
Q 2878 2963 2633 3030 
Q 2388 3097 2138 3097 
Q 1578 3097 1268 2742 
Q 959 2388 959 1747 
Q 959 1106 1268 751 
Q 1578 397 2138 397 
Q 2388 397 2633 464 
Q 2878 531 3122 666 
L 3122 134 
Q 2881 22 2623 -34 
Q 2366 -91 2075 -91 
Q 1284 -91 818 406 
Q 353 903 353 1747 
Q 353 2603 823 3093 
Q 1294 3584 2113 3584 
Q 2378 3584 2631 3529 
Q 2884 3475 3122 3366 
z
" transform="scale(0.015625)"/>
       <path id="DejaVuSans-6e" d="M 3513 2113 
L 3513 0 
L 2938 0 
L 2938 2094 
Q 2938 2591 2744 2837 
Q 2550 3084 2163 3084 
Q 1697 3084 1428 2787 
Q 1159 2491 1159 1978 
L 1159 0 
L 581 0 
L 581 3500 
L 1159 3500 
L 1159 2956 
Q 1366 3272 1645 3428 
Q 1925 3584 2291 3584 
Q 2894 3584 3203 3211 
Q 3513 2838 3513 2113 
z
" transform="scale(0.015625)"/>
       <path id="DejaVuSans-47" d="M 3809 666 
L 3809 1919 
L 2778 1919 
L 2778 2438 
L 4434 2438 
L 4434 434 
Q 4069 175 3628 42 
Q 3188 -91 2688 -91 
Q 1594 -91 976 548 
Q 359 1188 359 2328 
Q 359 3472 976 4111 
Q 1594 4750 2688 4750 
Q 3144 4750 3555 4637 
Q 3966 4525 4313 4306 
L 4313 3634 
Q 3963 3931 3569 4081 
Q 3175 4231 2741 4231 
Q 1884 4231 1454 3753 
Q 1025 3275 1025 2328 
Q 1025 1384 1454 906 
Q 1884 428 2741 428 
Q 3075 428 3337 486 
Q 3600 544 3809 666 
z
" transform="scale(0.015625)"/>
       <path id="DejaVuSans-70" d="M 1159 525 
L 1159 -1331 
L 581 -1331 
L 581 3500 
L 1159 3500 
L 1159 2969 
Q 1341 3281 1617 3432 
Q 1894 3584 2278 3584 
Q 2916 3584 3314 3078 
Q 3713 2572 3713 1747 
Q 3713 922 3314 415 
Q 2916 -91 2278 -91 
Q 1894 -91 1617 61 
Q 1341 213 1159 525 
z
M 3116 1747 
Q 3116 2381 2855 2742 
Q 2594 3103 2138 3103 
Q 1681 3103 1420 2742 
Q 1159 2381 1159 1747 
Q 1159 1113 1420 752 
Q 1681 391 2138 391 
Q 2594 391 2855 752 
Q 3116 1113 3116 1747 
z
" transform="scale(0.015625)"/>
       <path id="DejaVuSans-41" d="M 2188 4044 
L 1331 1722 
L 3047 1722 
L 2188 4044 
z
M 1831 4666 
L 2547 4666 
L 4325 0 
L 3669 0 
L 3244 1197 
L 1141 1197 
L 716 0 
L 50 0 
L 1831 4666 
z
" transform="scale(0.015625)"/>
       <path id="DejaVuSans-5f" d="M 3263 -1063 
L 3263 -1509 
L -63 -1509 
L -63 -1063 
L 3263 -1063 
z
" transform="scale(0.015625)"/>
       <path id="DejaVuSans-73" d="M 2834 3397 
L 2834 2853 
Q 2591 2978 2328 3040 
Q 2066 3103 1784 3103 
Q 1356 3103 1142 2972 
Q 928 2841 928 2578 
Q 928 2378 1081 2264 
Q 1234 2150 1697 2047 
L 1894 2003 
Q 2506 1872 2764 1633 
Q 3022 1394 3022 966 
Q 3022 478 2636 193 
Q 2250 -91 1575 -91 
Q 1294 -91 989 -36 
Q 684 19 347 128 
L 347 722 
Q 666 556 975 473 
Q 1284 391 1588 391 
Q 1994 391 2212 530 
Q 2431 669 2431 922 
Q 2431 1156 2273 1281 
Q 2116 1406 1581 1522 
L 1381 1569 
Q 847 1681 609 1914 
Q 372 2147 372 2553 
Q 372 3047 722 3315 
Q 1072 3584 1716 3584 
Q 2034 3584 2315 3537 
Q 2597 3491 2834 3397 
z
" transform="scale(0.015625)"/>
       <path id="DejaVuSans-66" d="M 2375 4863 
L 2375 4384 
L 1825 4384 
Q 1516 4384 1395 4259 
Q 1275 4134 1275 3809 
L 1275 3500 
L 2222 3500 
L 2222 3053 
L 1275 3053 
L 1275 0 
L 697 0 
L 697 3053 
L 147 3053 
L 147 3500 
L 697 3500 
L 697 3744 
Q 697 4328 969 4595 
Q 1241 4863 1831 4863 
L 2375 4863 
z
" transform="scale(0.015625)"/>
       <path id="DejaVuSans-6d" d="M 3328 2828 
Q 3544 3216 3844 3400 
Q 4144 3584 4550 3584 
Q 5097 3584 5394 3201 
Q 5691 2819 5691 2113 
L 5691 0 
L 5113 0 
L 5113 2094 
Q 5113 2597 4934 2840 
Q 4756 3084 4391 3084 
Q 3944 3084 3684 2787 
Q 3425 2491 3425 1978 
L 3425 0 
L 2847 0 
L 2847 2094 
Q 2847 2600 2669 2842 
Q 2491 3084 2119 3084 
Q 1678 3084 1418 2786 
Q 1159 2488 1159 1978 
L 1159 0 
L 581 0 
L 581 3500 
L 1159 3500 
L 1159 2956 
Q 1356 3278 1631 3431 
Q 1906 3584 2284 3584 
Q 2666 3584 2933 3390 
Q 3200 3197 3328 2828 
z
" transform="scale(0.015625)"/>
       <path id="DejaVuSans-64" d="M 2906 2969 
L 2906 4863 
L 3481 4863 
L 3481 0 
L 2906 0 
L 2906 525 
Q 2725 213 2448 61 
Q 2172 -91 1784 -91 
Q 1150 -91 751 415 
Q 353 922 353 1747 
Q 353 2572 751 3078 
Q 1150 3584 1784 3584 
Q 2172 3584 2448 3432 
Q 2725 3281 2906 2969 
z
M 947 1747 
Q 947 1113 1208 752 
Q 1469 391 1925 391 
Q 2381 391 2643 752 
Q 2906 1113 2906 1747 
Q 2906 2381 2643 2742 
Q 2381 3103 1925 3103 
Q 1469 3103 1208 2742 
Q 947 2381 947 1747 
z
" transform="scale(0.015625)"/>
      </defs>
      <use xlink:href="#DejaVuSans-50"/>
      <use xlink:href="#DejaVuSans-65" x="56.677734"/>
      <use xlink:href="#DejaVuSans-72" x="118.201172"/>
      <use xlink:href="#DejaVuSans-63" x="157.064453"/>
      <use xlink:href="#DejaVuSans-65" x="212.044922"/>
      <use xlink:href="#DejaVuSans-6e" x="273.568359"/>
      <use xlink:href="#DejaVuSans-74" x="336.947266"/>
      <use xlink:href="#DejaVuSans-47" x="376.15625"/>
      <use xlink:href="#DejaVuSans-70" x="453.646484"/>
      <use xlink:href="#DejaVuSans-41" x="517.123047"/>
      <use xlink:href="#DejaVuSans-5f" x="585.53125"/>
      <use xlink:href="#DejaVuSans-74" x="635.53125"/>
      <use xlink:href="#DejaVuSans-72" x="674.740234"/>
      <use xlink:href="#DejaVuSans-61" x="715.853516"/>
      <use xlink:href="#DejaVuSans-6e" x="777.132812"/>
      <use xlink:href="#DejaVuSans-73" x="840.511719"/>
      <use xlink:href="#DejaVuSans-66" x="892.611328"/>
      <use xlink:href="#DejaVuSans-6f" x="927.816406"/>
      <use xlink:href="#DejaVuSans-72" x="988.998047"/>
      <use xlink:href="#DejaVuSans-6d" x="1028.361328"/>
      <use xlink:href="#DejaVuSans-65" x="1125.773438"/>
      <use xlink:href="#DejaVuSans-64" x="1187.296875"/>
     </g>
    </g>
   </g>
   <g id="LineCollection_1">
    <path d="M 197.75953 175.064704 
L 197.75953 174.777493 
" clip-path="url(#p04ebe9ebc7)" style="fill: none; stroke: #d3d3d3; stroke-width: 3"/>
    <path d="M 207.933266 184.234564 
L 207.933266 183.85704 
" clip-path="url(#p04ebe9ebc7)" style="fill: none; stroke: #d3d3d3; stroke-width: 3"/>
    <path d="M 214.920696 63.50369 
L 214.920696 58.614768 
" clip-path="url(#p04ebe9ebc7)" style="fill: none; stroke: #d3d3d3; stroke-width: 3"/>
    <path d="M 221.767649 156.285854 
L 221.767649 155.935179 
" clip-path="url(#p04ebe9ebc7)" style="fill: none; stroke: #d3d3d3; stroke-width: 3"/>
    <path d="M 250.446218 215.950023 
L 250.446218 215.691046 
" clip-path="url(#p04ebe9ebc7)" style="fill: none; stroke: #d3d3d3; stroke-width: 3"/>
    <path d="M 253.359776 212.866611 
L 253.359776 212.639978 
" clip-path="url(#p04ebe9ebc7)" style="fill: none; stroke: #d3d3d3; stroke-width: 3"/>
    <path d="M 255.790781 267.734576 
L 255.790781 267.21405 
" clip-path="url(#p04ebe9ebc7)" style="fill: none; stroke: #d3d3d3; stroke-width: 3"/>
    <path d="M 258.343109 182.085684 
L 258.343109 181.678941 
" clip-path="url(#p04ebe9ebc7)" style="fill: none; stroke: #d3d3d3; stroke-width: 3"/>
    <path d="M 281.547583 210.806132 
L 281.547583 210.591772 
" clip-path="url(#p04ebe9ebc7)" style="fill: none; stroke: #d3d3d3; stroke-width: 3"/>
    <path d="M 282.819186 300.030392 
L 282.819186 299.306708 
" clip-path="url(#p04ebe9ebc7)" style="fill: none; stroke: #d3d3d3; stroke-width: 3"/>
    <path d="M 288.238549 160.35079 
L 288.238549 160.05315 
" clip-path="url(#p04ebe9ebc7)" style="fill: none; stroke: #d3d3d3; stroke-width: 3"/>
    <path d="M 303.83621 188.148358 
L 303.83621 187.51576 
" clip-path="url(#p04ebe9ebc7)" style="fill: none; stroke: #d3d3d3; stroke-width: 3"/>
    <path d="M 329.36405 189.629427 
L 329.36405 188.287456 
" clip-path="url(#p04ebe9ebc7)" style="fill: none; stroke: #d3d3d3; stroke-width: 3"/>
    <path d="M 332.136217 230.722392 
L 332.136217 230.434459 
" clip-path="url(#p04ebe9ebc7)" style="fill: none; stroke: #d3d3d3; stroke-width: 3"/>
    <path d="M 353.81276 237.322629 
L 353.81276 236.837924 
" clip-path="url(#p04ebe9ebc7)" style="fill: none; stroke: #d3d3d3; stroke-width: 3"/>
    <path d="M 66.102102 148.695792 
L 66.102102 147.854304 
" clip-path="url(#p04ebe9ebc7)" style="fill: none; stroke: #d3d3d3; stroke-width: 3"/>
    <path d="M 107.081651 161.149985 
L 107.081651 160.541624 
" clip-path="url(#p04ebe9ebc7)" style="fill: none; stroke: #d3d3d3; stroke-width: 3"/>
    <path d="M 112.205463 165.858265 
L 112.205463 165.71186 
" clip-path="url(#p04ebe9ebc7)" style="fill: none; stroke: #d3d3d3; stroke-width: 3"/>
    <path d="M 141.56818 158.455885 
L 141.56818 157.932379 
" clip-path="url(#p04ebe9ebc7)" style="fill: none; stroke: #d3d3d3; stroke-width: 3"/>
    <path d="M 145.225179 186.248409 
L 145.225179 186.058757 
" clip-path="url(#p04ebe9ebc7)" style="fill: none; stroke: #d3d3d3; stroke-width: 3"/>
    <path d="M 168.339344 154.779389 
L 168.339344 154.266064 
" clip-path="url(#p04ebe9ebc7)" style="fill: none; stroke: #d3d3d3; stroke-width: 3"/>
    <path d="M 175.331336 165.486795 
L 175.331336 164.785123 
" clip-path="url(#p04ebe9ebc7)" style="fill: none; stroke: #d3d3d3; stroke-width: 3"/>
    <path d="M 178.903501 184.164093 
L 178.903501 183.844755 
" clip-path="url(#p04ebe9ebc7)" style="fill: none; stroke: #d3d3d3; stroke-width: 3"/>
    <path d="M 185.577136 160.125665 
L 185.577136 159.671563 
" clip-path="url(#p04ebe9ebc7)" style="fill: none; stroke: #d3d3d3; stroke-width: 3"/>
    <path d="M 192.990563 196.894112 
L 192.990563 196.703808 
" clip-path="url(#p04ebe9ebc7)" style="fill: none; stroke: #d3d3d3; stroke-width: 3"/>
    <path d="M 197.384617 172.332773 
L 197.384617 171.948714 
" clip-path="url(#p04ebe9ebc7)" style="fill: none; stroke: #d3d3d3; stroke-width: 3"/>
    <path d="M 201.555182 180.883899 
L 201.555182 180.501773 
" clip-path="url(#p04ebe9ebc7)" style="fill: none; stroke: #d3d3d3; stroke-width: 3"/>
    <path d="M 214.507471 132.526056 
L 214.507471 131.646628 
" clip-path="url(#p04ebe9ebc7)" style="fill: none; stroke: #d3d3d3; stroke-width: 3"/>
    <path d="M 217.789557 154.82195 
L 217.789557 154.351057 
" clip-path="url(#p04ebe9ebc7)" style="fill: none; stroke: #d3d3d3; stroke-width: 3"/>
    <path d="M 218.123421 192.552001 
L 218.123421 191.8277 
" clip-path="url(#p04ebe9ebc7)" style="fill: none; stroke: #d3d3d3; stroke-width: 3"/>
    <path d="M 219.540063 238.369561 
L 219.540063 238.086943 
" clip-path="url(#p04ebe9ebc7)" style="fill: none; stroke: #d3d3d3; stroke-width: 3"/>
    <path d="M 220.320904 177.470113 
L 220.320904 177.384683 
" clip-path="url(#p04ebe9ebc7)" style="fill: none; stroke: #d3d3d3; stroke-width: 3"/>
    <path d="M 220.907447 168.973089 
L 220.907447 168.475127 
" clip-path="url(#p04ebe9ebc7)" style="fill: none; stroke: #d3d3d3; stroke-width: 3"/>
    <path d="M 227.432394 190.044205 
L 227.432394 189.248376 
" clip-path="url(#p04ebe9ebc7)" style="fill: none; stroke: #d3d3d3; stroke-width: 3"/>
    <path d="M 248.473135 155.155655 
L 248.473135 154.901216 
" clip-path="url(#p04ebe9ebc7)" style="fill: none; stroke: #d3d3d3; stroke-width: 3"/>
    <path d="M 253.404473 172.89575 
L 253.404473 171.630345 
" clip-path="url(#p04ebe9ebc7)" style="fill: none; stroke: #d3d3d3; stroke-width: 3"/>
    <path d="M 267.561775 284.242538 
L 267.561775 283.792219 
" clip-path="url(#p04ebe9ebc7)" style="fill: none; stroke: #d3d3d3; stroke-width: 3"/>
    <path d="M 270.418776 265.206943 
L 270.418776 264.943083 
" clip-path="url(#p04ebe9ebc7)" style="fill: none; stroke: #d3d3d3; stroke-width: 3"/>
    <path d="M 272.826977 176.144973 
L 272.826977 175.916241 
" clip-path="url(#p04ebe9ebc7)" style="fill: none; stroke: #d3d3d3; stroke-width: 3"/>
    <path d="M 279.211446 179.176801 
L 279.211446 178.673939 
" clip-path="url(#p04ebe9ebc7)" style="fill: none; stroke: #d3d3d3; stroke-width: 3"/>
    <path d="M 300.789471 267.340677 
L 300.789471 267.179248 
" clip-path="url(#p04ebe9ebc7)" style="fill: none; stroke: #d3d3d3; stroke-width: 3"/>
    <path d="M 305.951595 286.359231 
L 305.951595 286.178561 
" clip-path="url(#p04ebe9ebc7)" style="fill: none; stroke: #d3d3d3; stroke-width: 3"/>
    <path d="M 321.314821 250.193835 
L 321.314821 249.819459 
" clip-path="url(#p04ebe9ebc7)" style="fill: none; stroke: #d3d3d3; stroke-width: 3"/>
    <path d="M 324.896108 257.493059 
L 324.896108 257.291301 
" clip-path="url(#p04ebe9ebc7)" style="fill: none; stroke: #d3d3d3; stroke-width: 3"/>
    <path d="M 336.99458 233.436715 
L 336.99458 233.034849 
" clip-path="url(#p04ebe9ebc7)" style="fill: none; stroke: #d3d3d3; stroke-width: 3"/>
    <path d="M 344.337767 238.453091 
L 344.337767 238.319059 
" clip-path="url(#p04ebe9ebc7)" style="fill: none; stroke: #d3d3d3; stroke-width: 3"/>
    <path d="M 350.776968 220.594416 
L 350.776968 220.434878 
" clip-path="url(#p04ebe9ebc7)" style="fill: none; stroke: #d3d3d3; stroke-width: 3"/>
    <path d="M 353.675018 172.05157 
L 353.675018 172.0141 
" clip-path="url(#p04ebe9ebc7)" style="fill: none; stroke: #d3d3d3; stroke-width: 3"/>
    <path d="M 369.424104 280.782649 
L 369.424104 280.54433 
" clip-path="url(#p04ebe9ebc7)" style="fill: none; stroke: #d3d3d3; stroke-width: 3"/>
    <path d="M 369.583738 274.202034 
L 369.583738 273.946902 
" clip-path="url(#p04ebe9ebc7)" style="fill: none; stroke: #d3d3d3; stroke-width: 3"/>
    <path d="M 431.719148 287.395882 
L 431.719148 286.982164 
" clip-path="url(#p04ebe9ebc7)" style="fill: none; stroke: #d3d3d3; stroke-width: 3"/>
   </g>
   <g id="line2d_15">
    <path d="M 197.75953 179.104809 
L 207.933266 183.22965 
L 214.920696 186.062635 
L 221.767649 188.838664 
L 250.446218 200.466106 
L 253.359776 201.647379 
L 255.790781 202.633006 
L 258.343109 203.667822 
L 281.547583 213.075847 
L 282.819186 213.591405 
L 288.238549 215.788633 
L 303.83621 222.11255 
L 329.36405 232.46256 
L 332.136217 233.586508 
L 353.81276 242.375048 
L 66.102102 125.725608 
L 107.081651 142.340361 
L 112.205463 144.41776 
L 141.56818 156.322583 
L 145.225179 157.805277 
L 168.339344 167.176686 
L 175.331336 170.01152 
L 178.903501 171.459819 
L 185.577136 174.165578 
L 192.990563 177.171279 
L 197.384617 178.952805 
L 201.555182 180.643719 
L 214.507471 185.895097 
L 217.789557 187.225786 
L 218.123421 187.361148 
L 219.540063 187.935511 
L 220.320904 188.252095 
L 220.907447 188.489903 
L 227.432394 191.135379 
L 248.473135 199.666139 
L 253.404473 201.665501 
L 267.561775 207.405439 
L 270.418776 208.563782 
L 272.826977 209.540163 
L 279.211446 212.128683 
L 300.789471 220.87728 
L 305.951595 222.970212 
L 321.314821 229.19908 
L 324.896108 230.651077 
L 336.99458 235.556283 
L 344.337767 238.533506 
L 350.776968 241.144216 
L 353.675018 242.319202 
L 369.424104 248.704513 
L 369.583738 248.769235 
L 431.719148 273.961422 
" clip-path="url(#p04ebe9ebc7)" style="fill: none; stroke: #1f77b4; stroke-width: 1.5; stroke-linecap: square"/>
   </g>
   <g id="line2d_16">
    <defs>
     <path id="m4173bb9b7f" d="M 0 3 
C 0.795609 3 1.55874 2.683901 2.12132 2.12132 
C 2.683901 1.55874 3 0.795609 3 0 
C 3 -0.795609 2.683901 -1.55874 2.12132 -2.12132 
C 1.55874 -2.683901 0.795609 -3 0 -3 
C -0.795609 -3 -1.55874 -2.683901 -2.12132 -2.12132 
C -2.683901 -1.55874 -3 -0.795609 -3 0 
C -3 0.795609 -2.683901 1.55874 -2.12132 2.12132 
C -1.55874 2.683901 -0.795609 3 0 3 
z
" style="stroke: #000000"/>
    </defs>
    <g clip-path="url(#p04ebe9ebc7)">
     <use xlink:href="#m4173bb9b7f" x="197.75953" y="174.921099" style="stroke: #000000"/>
     <use xlink:href="#m4173bb9b7f" x="207.933266" y="184.045802" style="stroke: #000000"/>
     <use xlink:href="#m4173bb9b7f" x="214.920696" y="61.059229" style="stroke: #000000"/>
     <use xlink:href="#m4173bb9b7f" x="221.767649" y="156.110516" style="stroke: #000000"/>
     <use xlink:href="#m4173bb9b7f" x="250.446218" y="215.820535" style="stroke: #000000"/>
     <use xlink:href="#m4173bb9b7f" x="253.359776" y="212.753294" style="stroke: #000000"/>
     <use xlink:href="#m4173bb9b7f" x="255.790781" y="267.474313" style="stroke: #000000"/>
     <use xlink:href="#m4173bb9b7f" x="258.343109" y="181.882313" style="stroke: #000000"/>
     <use xlink:href="#m4173bb9b7f" x="281.547583" y="210.698952" style="stroke: #000000"/>
     <use xlink:href="#m4173bb9b7f" x="282.819186" y="299.66855" style="stroke: #000000"/>
     <use xlink:href="#m4173bb9b7f" x="288.238549" y="160.20197" style="stroke: #000000"/>
     <use xlink:href="#m4173bb9b7f" x="303.83621" y="187.832059" style="stroke: #000000"/>
     <use xlink:href="#m4173bb9b7f" x="329.36405" y="188.958441" style="stroke: #000000"/>
     <use xlink:href="#m4173bb9b7f" x="332.136217" y="230.578425" style="stroke: #000000"/>
     <use xlink:href="#m4173bb9b7f" x="353.81276" y="237.080277" style="stroke: #000000"/>
     <use xlink:href="#m4173bb9b7f" x="66.102102" y="148.275048" style="stroke: #000000"/>
     <use xlink:href="#m4173bb9b7f" x="107.081651" y="160.845804" style="stroke: #000000"/>
     <use xlink:href="#m4173bb9b7f" x="112.205463" y="165.785063" style="stroke: #000000"/>
     <use xlink:href="#m4173bb9b7f" x="141.56818" y="158.194132" style="stroke: #000000"/>
     <use xlink:href="#m4173bb9b7f" x="145.225179" y="186.153583" style="stroke: #000000"/>
     <use xlink:href="#m4173bb9b7f" x="168.339344" y="154.522727" style="stroke: #000000"/>
     <use xlink:href="#m4173bb9b7f" x="175.331336" y="165.135959" style="stroke: #000000"/>
     <use xlink:href="#m4173bb9b7f" x="178.903501" y="184.004424" style="stroke: #000000"/>
     <use xlink:href="#m4173bb9b7f" x="185.577136" y="159.898614" style="stroke: #000000"/>
     <use xlink:href="#m4173bb9b7f" x="192.990563" y="196.79896" style="stroke: #000000"/>
     <use xlink:href="#m4173bb9b7f" x="197.384617" y="172.140744" style="stroke: #000000"/>
     <use xlink:href="#m4173bb9b7f" x="201.555182" y="180.692836" style="stroke: #000000"/>
     <use xlink:href="#m4173bb9b7f" x="214.507471" y="132.086342" style="stroke: #000000"/>
     <use xlink:href="#m4173bb9b7f" x="217.789557" y="154.586504" style="stroke: #000000"/>
     <use xlink:href="#m4173bb9b7f" x="218.123421" y="192.18985" style="stroke: #000000"/>
     <use xlink:href="#m4173bb9b7f" x="219.540063" y="238.228252" style="stroke: #000000"/>
     <use xlink:href="#m4173bb9b7f" x="220.320904" y="177.427398" style="stroke: #000000"/>
     <use xlink:href="#m4173bb9b7f" x="220.907447" y="168.724108" style="stroke: #000000"/>
     <use xlink:href="#m4173bb9b7f" x="227.432394" y="189.646291" style="stroke: #000000"/>
     <use xlink:href="#m4173bb9b7f" x="248.473135" y="155.028435" style="stroke: #000000"/>
     <use xlink:href="#m4173bb9b7f" x="253.404473" y="172.263047" style="stroke: #000000"/>
     <use xlink:href="#m4173bb9b7f" x="267.561775" y="284.017378" style="stroke: #000000"/>
     <use xlink:href="#m4173bb9b7f" x="270.418776" y="265.075013" style="stroke: #000000"/>
     <use xlink:href="#m4173bb9b7f" x="272.826977" y="176.030607" style="stroke: #000000"/>
     <use xlink:href="#m4173bb9b7f" x="279.211446" y="178.92537" style="stroke: #000000"/>
     <use xlink:href="#m4173bb9b7f" x="300.789471" y="267.259962" style="stroke: #000000"/>
     <use xlink:href="#m4173bb9b7f" x="305.951595" y="286.268896" style="stroke: #000000"/>
     <use xlink:href="#m4173bb9b7f" x="321.314821" y="250.006647" style="stroke: #000000"/>
     <use xlink:href="#m4173bb9b7f" x="324.896108" y="257.39218" style="stroke: #000000"/>
     <use xlink:href="#m4173bb9b7f" x="336.99458" y="233.235782" style="stroke: #000000"/>
     <use xlink:href="#m4173bb9b7f" x="344.337767" y="238.386075" style="stroke: #000000"/>
     <use xlink:href="#m4173bb9b7f" x="350.776968" y="220.514647" style="stroke: #000000"/>
     <use xlink:href="#m4173bb9b7f" x="353.675018" y="172.032835" style="stroke: #000000"/>
     <use xlink:href="#m4173bb9b7f" x="369.424104" y="280.663489" style="stroke: #000000"/>
     <use xlink:href="#m4173bb9b7f" x="369.583738" y="274.074468" style="stroke: #000000"/>
     <use xlink:href="#m4173bb9b7f" x="431.719148" y="287.189023" style="stroke: #000000"/>
    </g>
   </g>
   <g id="patch_3">
    <path d="M 47.82125 303.64 
L 47.82125 46.543987 
" style="fill: none; stroke: #000000; stroke-width: 0.8; stroke-linejoin: miter; stroke-linecap: square"/>
   </g>
   <g id="patch_4">
    <path d="M 450 303.64 
L 450 46.543987 
" style="fill: none; stroke: #000000; stroke-width: 0.8; stroke-linejoin: miter; stroke-linecap: square"/>
   </g>
   <g id="patch_5">
    <path d="M 47.82125 303.64 
L 450 303.64 
" style="fill: none; stroke: #000000; stroke-width: 0.8; stroke-linejoin: miter; stroke-linecap: square"/>
   </g>
   <g id="patch_6">
    <path d="M 47.82125 46.543987 
L 450 46.543987 
" style="fill: none; stroke: #000000; stroke-width: 0.8; stroke-linejoin: miter; stroke-linecap: square"/>
   </g>
   <g id="text_17">
    <!-- y = -0.04x + 0.08 -->
    <g transform="translate(43.314906 18.451841) scale(0.1 -0.1)">
     <defs>
      <path id="DejaVuSans-79" d="M 2059 -325 
Q 1816 -950 1584 -1140 
Q 1353 -1331 966 -1331 
L 506 -1331 
L 506 -850 
L 844 -850 
Q 1081 -850 1212 -737 
Q 1344 -625 1503 -206 
L 1606 56 
L 191 3500 
L 800 3500 
L 1894 763 
L 2988 3500 
L 3597 3500 
L 2059 -325 
z
" transform="scale(0.015625)"/>
      <path id="DejaVuSans-20" transform="scale(0.015625)"/>
      <path id="DejaVuSans-3d" d="M 678 2906 
L 4684 2906 
L 4684 2381 
L 678 2381 
L 678 2906 
z
M 678 1631 
L 4684 1631 
L 4684 1100 
L 678 1100 
L 678 1631 
z
" transform="scale(0.015625)"/>
      <path id="DejaVuSans-2d" d="M 313 2009 
L 1997 2009 
L 1997 1497 
L 313 1497 
L 313 2009 
z
" transform="scale(0.015625)"/>
      <path id="DejaVuSans-78" d="M 3513 3500 
L 2247 1797 
L 3578 0 
L 2900 0 
L 1881 1375 
L 863 0 
L 184 0 
L 1544 1831 
L 300 3500 
L 978 3500 
L 1906 2253 
L 2834 3500 
L 3513 3500 
z
" transform="scale(0.015625)"/>
      <path id="DejaVuSans-2b" d="M 2944 4013 
L 2944 2272 
L 4684 2272 
L 4684 1741 
L 2944 1741 
L 2944 0 
L 2419 0 
L 2419 1741 
L 678 1741 
L 678 2272 
L 2419 2272 
L 2419 4013 
L 2944 4013 
z
" transform="scale(0.015625)"/>
      <path id="DejaVuSans-38" d="M 2034 2216 
Q 1584 2216 1326 1975 
Q 1069 1734 1069 1313 
Q 1069 891 1326 650 
Q 1584 409 2034 409 
Q 2484 409 2743 651 
Q 3003 894 3003 1313 
Q 3003 1734 2745 1975 
Q 2488 2216 2034 2216 
z
M 1403 2484 
Q 997 2584 770 2862 
Q 544 3141 544 3541 
Q 544 4100 942 4425 
Q 1341 4750 2034 4750 
Q 2731 4750 3128 4425 
Q 3525 4100 3525 3541 
Q 3525 3141 3298 2862 
Q 3072 2584 2669 2484 
Q 3125 2378 3379 2068 
Q 3634 1759 3634 1313 
Q 3634 634 3220 271 
Q 2806 -91 2034 -91 
Q 1263 -91 848 271 
Q 434 634 434 1313 
Q 434 1759 690 2068 
Q 947 2378 1403 2484 
z
M 1172 3481 
Q 1172 3119 1398 2916 
Q 1625 2713 2034 2713 
Q 2441 2713 2670 2916 
Q 2900 3119 2900 3481 
Q 2900 3844 2670 4047 
Q 2441 4250 2034 4250 
Q 1625 4250 1398 4047 
Q 1172 3844 1172 3481 
z
" transform="scale(0.015625)"/>
     </defs>
     <use xlink:href="#DejaVuSans-79"/>
     <use xlink:href="#DejaVuSans-20" x="59.179688"/>
     <use xlink:href="#DejaVuSans-3d" x="90.966797"/>
     <use xlink:href="#DejaVuSans-20" x="174.755859"/>
     <use xlink:href="#DejaVuSans-2d" x="206.542969"/>
     <use xlink:href="#DejaVuSans-30" x="242.626953"/>
     <use xlink:href="#DejaVuSans-2e" x="306.25"/>
     <use xlink:href="#DejaVuSans-30" x="338.037109"/>
     <use xlink:href="#DejaVuSans-34" x="401.660156"/>
     <use xlink:href="#DejaVuSans-78" x="465.283203"/>
     <use xlink:href="#DejaVuSans-20" x="524.462891"/>
     <use xlink:href="#DejaVuSans-2b" x="556.25"/>
     <use xlink:href="#DejaVuSans-20" x="640.039062"/>
     <use xlink:href="#DejaVuSans-30" x="671.826172"/>
     <use xlink:href="#DejaVuSans-2e" x="735.449219"/>
     <use xlink:href="#DejaVuSans-30" x="767.236328"/>
     <use xlink:href="#DejaVuSans-38" x="830.859375"/>
    </g>
   </g>
   <g id="text_18">
    <!-- r^2 = 0.39 -->
    <g transform="translate(60.111781 26.164721) scale(0.1 -0.1)">
     <defs>
      <path id="DejaVuSans-5e" d="M 2988 4666 
L 4684 2925 
L 4056 2925 
L 2681 4159 
L 1306 2925 
L 678 2925 
L 2375 4666 
L 2988 4666 
z
" transform="scale(0.015625)"/>
      <path id="DejaVuSans-39" d="M 703 97 
L 703 672 
Q 941 559 1184 500 
Q 1428 441 1663 441 
Q 2288 441 2617 861 
Q 2947 1281 2994 2138 
Q 2813 1869 2534 1725 
Q 2256 1581 1919 1581 
Q 1219 1581 811 2004 
Q 403 2428 403 3163 
Q 403 3881 828 4315 
Q 1253 4750 1959 4750 
Q 2769 4750 3195 4129 
Q 3622 3509 3622 2328 
Q 3622 1225 3098 567 
Q 2575 -91 1691 -91 
Q 1453 -91 1209 -44 
Q 966 3 703 97 
z
M 1959 2075 
Q 2384 2075 2632 2365 
Q 2881 2656 2881 3163 
Q 2881 3666 2632 3958 
Q 2384 4250 1959 4250 
Q 1534 4250 1286 3958 
Q 1038 3666 1038 3163 
Q 1038 2656 1286 2365 
Q 1534 2075 1959 2075 
z
" transform="scale(0.015625)"/>
     </defs>
     <use xlink:href="#DejaVuSans-72"/>
     <use xlink:href="#DejaVuSans-5e" x="41.113281"/>
     <use xlink:href="#DejaVuSans-32" x="124.902344"/>
     <use xlink:href="#DejaVuSans-20" x="188.525391"/>
     <use xlink:href="#DejaVuSans-3d" x="220.3125"/>
     <use xlink:href="#DejaVuSans-20" x="304.101562"/>
     <use xlink:href="#DejaVuSans-30" x="335.888672"/>
     <use xlink:href="#DejaVuSans-2e" x="399.511719"/>
     <use xlink:href="#DejaVuSans-33" x="431.298828"/>
     <use xlink:href="#DejaVuSans-39" x="494.921875"/>
    </g>
   </g>
   <g id="text_19">
    <!-- n = 51 -->
    <g transform="translate(71.139906 33.877601) scale(0.1 -0.1)">
     <use xlink:href="#DejaVuSans-6e"/>
     <use xlink:href="#DejaVuSans-20" x="63.378906"/>
     <use xlink:href="#DejaVuSans-3d" x="95.166016"/>
     <use xlink:href="#DejaVuSans-20" x="178.955078"/>
     <use xlink:href="#DejaVuSans-35" x="210.742188"/>
     <use xlink:href="#DejaVuSans-31" x="274.365234"/>
    </g>
   </g>
   <g id="text_20">
    <!-- Total vs PercentGpA_transformed -->
    <g transform="translate(149.362188 40.543987) scale(0.12 -0.12)">
     <defs>
      <path id="DejaVuSans-76" d="M 191 3500 
L 800 3500 
L 1894 563 
L 2988 3500 
L 3597 3500 
L 2284 0 
L 1503 0 
L 191 3500 
z
" transform="scale(0.015625)"/>
     </defs>
     <use xlink:href="#DejaVuSans-54"/>
     <use xlink:href="#DejaVuSans-6f" x="44.083984"/>
     <use xlink:href="#DejaVuSans-74" x="105.265625"/>
     <use xlink:href="#DejaVuSans-61" x="144.474609"/>
     <use xlink:href="#DejaVuSans-6c" x="205.753906"/>
     <use xlink:href="#DejaVuSans-20" x="233.537109"/>
     <use xlink:href="#DejaVuSans-76" x="265.324219"/>
     <use xlink:href="#DejaVuSans-73" x="324.503906"/>
     <use xlink:href="#DejaVuSans-20" x="376.603516"/>
     <use xlink:href="#DejaVuSans-50" x="408.390625"/>
     <use xlink:href="#DejaVuSans-65" x="465.068359"/>
     <use xlink:href="#DejaVuSans-72" x="526.591797"/>
     <use xlink:href="#DejaVuSans-63" x="565.455078"/>
     <use xlink:href="#DejaVuSans-65" x="620.435547"/>
     <use xlink:href="#DejaVuSans-6e" x="681.958984"/>
     <use xlink:href="#DejaVuSans-74" x="745.337891"/>
     <use xlink:href="#DejaVuSans-47" x="784.546875"/>
     <use xlink:href="#DejaVuSans-70" x="862.037109"/>
     <use xlink:href="#DejaVuSans-41" x="925.513672"/>
     <use xlink:href="#DejaVuSans-5f" x="993.921875"/>
     <use xlink:href="#DejaVuSans-74" x="1043.921875"/>
     <use xlink:href="#DejaVuSans-72" x="1083.130859"/>
     <use xlink:href="#DejaVuSans-61" x="1124.244141"/>
     <use xlink:href="#DejaVuSans-6e" x="1185.523438"/>
     <use xlink:href="#DejaVuSans-73" x="1248.902344"/>
     <use xlink:href="#DejaVuSans-66" x="1301.001953"/>
     <use xlink:href="#DejaVuSans-6f" x="1336.207031"/>
     <use xlink:href="#DejaVuSans-72" x="1397.388672"/>
     <use xlink:href="#DejaVuSans-6d" x="1436.751953"/>
     <use xlink:href="#DejaVuSans-65" x="1534.164062"/>
     <use xlink:href="#DejaVuSans-64" x="1595.6875"/>
    </g>
   </g>
  </g>
 </g>
 <defs>
  <clipPath id="p04ebe9ebc7">
   <rect x="47.82125" y="46.543987" width="402.17875" height="257.096013"/>
  </clipPath>
 </defs>
</svg>
