<?xml version="1.0" encoding="utf-8" standalone="no"?>
<!DOCTYPE svg PUBLIC "-//W3C//DTD SVG 1.1//EN"
  "http://www.w3.org/Graphics/SVG/1.1/DTD/svg11.dtd">
<svg xmlns:xlink="http://www.w3.org/1999/xlink" width="460.8pt" height="345.6pt" viewBox="0 0 460.8 345.6" xmlns="http://www.w3.org/2000/svg" version="1.1">
 <metadata>
  <rdf:RDF xmlns:dc="http://purl.org/dc/elements/1.1/" xmlns:cc="http://creativecommons.org/ns#" xmlns:rdf="http://www.w3.org/1999/02/22-rdf-syntax-ns#">
   <cc:Work>
    <dc:type rdf:resource="http://purl.org/dc/dcmitype/StillImage"/>
    <dc:date>2024-02-15T23:16:50.681272</dc:date>
    <dc:format>image/svg+xml</dc:format>
    <dc:creator>
     <cc:Agent>
      <dc:title>Matplotlib v3.5.3, https://matplotlib.org/</dc:title>
     </cc:Agent>
    </dc:creator>
   </cc:Work>
  </rdf:RDF>
 </metadata>
 <defs>
  <style type="text/css">*{stroke-linejoin: round; stroke-linecap: butt}</style>
 </defs>
 <g id="figure_1">
  <g id="patch_1">
   <path d="M 0 345.6 
L 460.8 345.6 
L 460.8 0 
L 0 0 
z
" style="fill: #ffffff"/>
  </g>
  <g id="axes_1">
   <g id="patch_2">
    <path d="M 47.72 303.64 
L 450 303.64 
L 450 55.889685 
L 47.72 55.889685 
z
" style="fill: #ffffff"/>
   </g>
   <g id="matplotlib.axis_1">
    <g id="xtick_1">
     <g id="text_1">
      <!-- G -->
      <g style="fill: #262626" transform="translate(244.985781 318.238437)scale(0.1 -0.1)">
       <defs>
        <path id="DejaVuSans-47" d="M 3809 666 
L 3809 1919 
L 2778 1919 
L 2778 2438 
L 4434 2438 
L 4434 434 
Q 4069 175 3628 42 
Q 3188 -91 2688 -91 
Q 1594 -91 976 548 
Q 359 1188 359 2328 
Q 359 3472 976 4111 
Q 1594 4750 2688 4750 
Q 3144 4750 3555 4637 
Q 3966 4525 4313 4306 
L 4313 3634 
Q 3963 3931 3569 4081 
Q 3175 4231 2741 4231 
Q 1884 4231 1454 3753 
Q 1025 3275 1025 2328 
Q 1025 1384 1454 906 
Q 1884 428 2741 428 
Q 3075 428 3337 486 
Q 3600 544 3809 666 
z
" transform="scale(0.015625)"/>
       </defs>
       <use xlink:href="#DejaVuSans-47"/>
      </g>
     </g>
    </g>
    <g id="text_2">
     <!-- WT_AA -->
     <g style="fill: #262626" transform="translate(231.384219 331.638437)scale(0.1 -0.1)">
      <defs>
       <path id="DejaVuSans-57" d="M 213 4666 
L 850 4666 
L 1831 722 
L 2809 4666 
L 3519 4666 
L 4500 722 
L 5478 4666 
L 6119 4666 
L 4947 0 
L 4153 0 
L 3169 4050 
L 2175 0 
L 1381 0 
L 213 4666 
z
" transform="scale(0.015625)"/>
       <path id="DejaVuSans-54" d="M -19 4666 
L 3928 4666 
L 3928 4134 
L 2272 4134 
L 2272 0 
L 1638 0 
L 1638 4134 
L -19 4134 
L -19 4666 
z
" transform="scale(0.015625)"/>
       <path id="DejaVuSans-5f" d="M 3263 -1063 
L 3263 -1509 
L -63 -1509 
L -63 -1063 
L 3263 -1063 
z
" transform="scale(0.015625)"/>
       <path id="DejaVuSans-41" d="M 2188 4044 
L 1331 1722 
L 3047 1722 
L 2188 4044 
z
M 1831 4666 
L 2547 4666 
L 4325 0 
L 3669 0 
L 3244 1197 
L 1141 1197 
L 716 0 
L 50 0 
L 1831 4666 
z
" transform="scale(0.015625)"/>
      </defs>
      <use xlink:href="#DejaVuSans-57"/>
      <use xlink:href="#DejaVuSans-54" x="98.876953"/>
      <use xlink:href="#DejaVuSans-5f" x="159.960938"/>
      <use xlink:href="#DejaVuSans-41" x="209.960938"/>
      <use xlink:href="#DejaVuSans-41" x="281.119141"/>
     </g>
    </g>
   </g>
   <g id="matplotlib.axis_2">
    <g id="ytick_1">
     <g id="line2d_1">
      <path d="M 47.72 303.64 
L 450 303.64 
" clip-path="url(#p95ebefb90a)" style="fill: none; stroke: #cccccc; stroke-width: 0.8; stroke-linecap: round"/>
     </g>
     <g id="text_3">
      <!-- 0.0 -->
      <g style="fill: #262626" transform="translate(24.816875 307.439219)scale(0.1 -0.1)">
       <defs>
        <path id="DejaVuSans-30" d="M 2034 4250 
Q 1547 4250 1301 3770 
Q 1056 3291 1056 2328 
Q 1056 1369 1301 889 
Q 1547 409 2034 409 
Q 2525 409 2770 889 
Q 3016 1369 3016 2328 
Q 3016 3291 2770 3770 
Q 2525 4250 2034 4250 
z
M 2034 4750 
Q 2819 4750 3233 4129 
Q 3647 3509 3647 2328 
Q 3647 1150 3233 529 
Q 2819 -91 2034 -91 
Q 1250 -91 836 529 
Q 422 1150 422 2328 
Q 422 3509 836 4129 
Q 1250 4750 2034 4750 
z
" transform="scale(0.015625)"/>
        <path id="DejaVuSans-2e" d="M 684 794 
L 1344 794 
L 1344 0 
L 684 0 
L 684 794 
z
" transform="scale(0.015625)"/>
       </defs>
       <use xlink:href="#DejaVuSans-30"/>
       <use xlink:href="#DejaVuSans-2e" x="63.623047"/>
       <use xlink:href="#DejaVuSans-30" x="95.410156"/>
      </g>
     </g>
    </g>
    <g id="ytick_2">
     <g id="line2d_2">
      <path d="M 47.72 269.768809 
L 450 269.768809 
" clip-path="url(#p95ebefb90a)" style="fill: none; stroke: #cccccc; stroke-width: 0.8; stroke-linecap: round"/>
     </g>
     <g id="text_4">
      <!-- 0.2 -->
      <g style="fill: #262626" transform="translate(24.816875 273.568028)scale(0.1 -0.1)">
       <defs>
        <path id="DejaVuSans-32" d="M 1228 531 
L 3431 531 
L 3431 0 
L 469 0 
L 469 531 
Q 828 903 1448 1529 
Q 2069 2156 2228 2338 
Q 2531 2678 2651 2914 
Q 2772 3150 2772 3378 
Q 2772 3750 2511 3984 
Q 2250 4219 1831 4219 
Q 1534 4219 1204 4116 
Q 875 4013 500 3803 
L 500 4441 
Q 881 4594 1212 4672 
Q 1544 4750 1819 4750 
Q 2544 4750 2975 4387 
Q 3406 4025 3406 3419 
Q 3406 3131 3298 2873 
Q 3191 2616 2906 2266 
Q 2828 2175 2409 1742 
Q 1991 1309 1228 531 
z
" transform="scale(0.015625)"/>
       </defs>
       <use xlink:href="#DejaVuSans-30"/>
       <use xlink:href="#DejaVuSans-2e" x="63.623047"/>
       <use xlink:href="#DejaVuSans-32" x="95.410156"/>
      </g>
     </g>
    </g>
    <g id="ytick_3">
     <g id="line2d_3">
      <path d="M 47.72 235.897619 
L 450 235.897619 
" clip-path="url(#p95ebefb90a)" style="fill: none; stroke: #cccccc; stroke-width: 0.8; stroke-linecap: round"/>
     </g>
     <g id="text_5">
      <!-- 0.4 -->
      <g style="fill: #262626" transform="translate(24.816875 239.696837)scale(0.1 -0.1)">
       <defs>
        <path id="DejaVuSans-34" d="M 2419 4116 
L 825 1625 
L 2419 1625 
L 2419 4116 
z
M 2253 4666 
L 3047 4666 
L 3047 1625 
L 3713 1625 
L 3713 1100 
L 3047 1100 
L 3047 0 
L 2419 0 
L 2419 1100 
L 313 1100 
L 313 1709 
L 2253 4666 
z
" transform="scale(0.015625)"/>
       </defs>
       <use xlink:href="#DejaVuSans-30"/>
       <use xlink:href="#DejaVuSans-2e" x="63.623047"/>
       <use xlink:href="#DejaVuSans-34" x="95.410156"/>
      </g>
     </g>
    </g>
    <g id="ytick_4">
     <g id="line2d_4">
      <path d="M 47.72 202.026428 
L 450 202.026428 
" clip-path="url(#p95ebefb90a)" style="fill: none; stroke: #cccccc; stroke-width: 0.8; stroke-linecap: round"/>
     </g>
     <g id="text_6">
      <!-- 0.6 -->
      <g style="fill: #262626" transform="translate(24.816875 205.825647)scale(0.1 -0.1)">
       <defs>
        <path id="DejaVuSans-36" d="M 2113 2584 
Q 1688 2584 1439 2293 
Q 1191 2003 1191 1497 
Q 1191 994 1439 701 
Q 1688 409 2113 409 
Q 2538 409 2786 701 
Q 3034 994 3034 1497 
Q 3034 2003 2786 2293 
Q 2538 2584 2113 2584 
z
M 3366 4563 
L 3366 3988 
Q 3128 4100 2886 4159 
Q 2644 4219 2406 4219 
Q 1781 4219 1451 3797 
Q 1122 3375 1075 2522 
Q 1259 2794 1537 2939 
Q 1816 3084 2150 3084 
Q 2853 3084 3261 2657 
Q 3669 2231 3669 1497 
Q 3669 778 3244 343 
Q 2819 -91 2113 -91 
Q 1303 -91 875 529 
Q 447 1150 447 2328 
Q 447 3434 972 4092 
Q 1497 4750 2381 4750 
Q 2619 4750 2861 4703 
Q 3103 4656 3366 4563 
z
" transform="scale(0.015625)"/>
       </defs>
       <use xlink:href="#DejaVuSans-30"/>
       <use xlink:href="#DejaVuSans-2e" x="63.623047"/>
       <use xlink:href="#DejaVuSans-36" x="95.410156"/>
      </g>
     </g>
    </g>
    <g id="ytick_5">
     <g id="line2d_5">
      <path d="M 47.72 168.155237 
L 450 168.155237 
" clip-path="url(#p95ebefb90a)" style="fill: none; stroke: #cccccc; stroke-width: 0.8; stroke-linecap: round"/>
     </g>
     <g id="text_7">
      <!-- 0.8 -->
      <g style="fill: #262626" transform="translate(24.816875 171.954456)scale(0.1 -0.1)">
       <defs>
        <path id="DejaVuSans-38" d="M 2034 2216 
Q 1584 2216 1326 1975 
Q 1069 1734 1069 1313 
Q 1069 891 1326 650 
Q 1584 409 2034 409 
Q 2484 409 2743 651 
Q 3003 894 3003 1313 
Q 3003 1734 2745 1975 
Q 2488 2216 2034 2216 
z
M 1403 2484 
Q 997 2584 770 2862 
Q 544 3141 544 3541 
Q 544 4100 942 4425 
Q 1341 4750 2034 4750 
Q 2731 4750 3128 4425 
Q 3525 4100 3525 3541 
Q 3525 3141 3298 2862 
Q 3072 2584 2669 2484 
Q 3125 2378 3379 2068 
Q 3634 1759 3634 1313 
Q 3634 634 3220 271 
Q 2806 -91 2034 -91 
Q 1263 -91 848 271 
Q 434 634 434 1313 
Q 434 1759 690 2068 
Q 947 2378 1403 2484 
z
M 1172 3481 
Q 1172 3119 1398 2916 
Q 1625 2713 2034 2713 
Q 2441 2713 2670 2916 
Q 2900 3119 2900 3481 
Q 2900 3844 2670 4047 
Q 2441 4250 2034 4250 
Q 1625 4250 1398 4047 
Q 1172 3844 1172 3481 
z
" transform="scale(0.015625)"/>
       </defs>
       <use xlink:href="#DejaVuSans-30"/>
       <use xlink:href="#DejaVuSans-2e" x="63.623047"/>
       <use xlink:href="#DejaVuSans-38" x="95.410156"/>
      </g>
     </g>
    </g>
    <g id="ytick_6">
     <g id="line2d_6">
      <path d="M 47.72 134.284046 
L 450 134.284046 
" clip-path="url(#p95ebefb90a)" style="fill: none; stroke: #cccccc; stroke-width: 0.8; stroke-linecap: round"/>
     </g>
     <g id="text_8">
      <!-- 1.0 -->
      <g style="fill: #262626" transform="translate(24.816875 138.083265)scale(0.1 -0.1)">
       <defs>
        <path id="DejaVuSans-31" d="M 794 531 
L 1825 531 
L 1825 4091 
L 703 3866 
L 703 4441 
L 1819 4666 
L 2450 4666 
L 2450 531 
L 3481 531 
L 3481 0 
L 794 0 
L 794 531 
z
" transform="scale(0.015625)"/>
       </defs>
       <use xlink:href="#DejaVuSans-31"/>
       <use xlink:href="#DejaVuSans-2e" x="63.623047"/>
       <use xlink:href="#DejaVuSans-30" x="95.410156"/>
      </g>
     </g>
    </g>
    <g id="ytick_7">
     <g id="line2d_7">
      <path d="M 47.72 100.412856 
L 450 100.412856 
" clip-path="url(#p95ebefb90a)" style="fill: none; stroke: #cccccc; stroke-width: 0.8; stroke-linecap: round"/>
     </g>
     <g id="text_9">
      <!-- 1.2 -->
      <g style="fill: #262626" transform="translate(24.816875 104.212074)scale(0.1 -0.1)">
       <use xlink:href="#DejaVuSans-31"/>
       <use xlink:href="#DejaVuSans-2e" x="63.623047"/>
       <use xlink:href="#DejaVuSans-32" x="95.410156"/>
      </g>
     </g>
    </g>
    <g id="ytick_8">
     <g id="line2d_8">
      <path d="M 47.72 66.541665 
L 450 66.541665 
" clip-path="url(#p95ebefb90a)" style="fill: none; stroke: #cccccc; stroke-width: 0.8; stroke-linecap: round"/>
     </g>
     <g id="text_10">
      <!-- 1.4 -->
      <g style="fill: #262626" transform="translate(24.816875 70.340884)scale(0.1 -0.1)">
       <use xlink:href="#DejaVuSans-31"/>
       <use xlink:href="#DejaVuSans-2e" x="63.623047"/>
       <use xlink:href="#DejaVuSans-34" x="95.410156"/>
      </g>
     </g>
    </g>
    <g id="text_11">
     <!-- PercentGpA -->
     <g style="fill: #262626" transform="translate(18.737188 209.041405)rotate(-90)scale(0.1 -0.1)">
      <defs>
       <path id="DejaVuSans-50" d="M 1259 4147 
L 1259 2394 
L 2053 2394 
Q 2494 2394 2734 2622 
Q 2975 2850 2975 3272 
Q 2975 3691 2734 3919 
Q 2494 4147 2053 4147 
L 1259 4147 
z
M 628 4666 
L 2053 4666 
Q 2838 4666 3239 4311 
Q 3641 3956 3641 3272 
Q 3641 2581 3239 2228 
Q 2838 1875 2053 1875 
L 1259 1875 
L 1259 0 
L 628 0 
L 628 4666 
z
" transform="scale(0.015625)"/>
       <path id="DejaVuSans-65" d="M 3597 1894 
L 3597 1613 
L 953 1613 
Q 991 1019 1311 708 
Q 1631 397 2203 397 
Q 2534 397 2845 478 
Q 3156 559 3463 722 
L 3463 178 
Q 3153 47 2828 -22 
Q 2503 -91 2169 -91 
Q 1331 -91 842 396 
Q 353 884 353 1716 
Q 353 2575 817 3079 
Q 1281 3584 2069 3584 
Q 2775 3584 3186 3129 
Q 3597 2675 3597 1894 
z
M 3022 2063 
Q 3016 2534 2758 2815 
Q 2500 3097 2075 3097 
Q 1594 3097 1305 2825 
Q 1016 2553 972 2059 
L 3022 2063 
z
" transform="scale(0.015625)"/>
       <path id="DejaVuSans-72" d="M 2631 2963 
Q 2534 3019 2420 3045 
Q 2306 3072 2169 3072 
Q 1681 3072 1420 2755 
Q 1159 2438 1159 1844 
L 1159 0 
L 581 0 
L 581 3500 
L 1159 3500 
L 1159 2956 
Q 1341 3275 1631 3429 
Q 1922 3584 2338 3584 
Q 2397 3584 2469 3576 
Q 2541 3569 2628 3553 
L 2631 2963 
z
" transform="scale(0.015625)"/>
       <path id="DejaVuSans-63" d="M 3122 3366 
L 3122 2828 
Q 2878 2963 2633 3030 
Q 2388 3097 2138 3097 
Q 1578 3097 1268 2742 
Q 959 2388 959 1747 
Q 959 1106 1268 751 
Q 1578 397 2138 397 
Q 2388 397 2633 464 
Q 2878 531 3122 666 
L 3122 134 
Q 2881 22 2623 -34 
Q 2366 -91 2075 -91 
Q 1284 -91 818 406 
Q 353 903 353 1747 
Q 353 2603 823 3093 
Q 1294 3584 2113 3584 
Q 2378 3584 2631 3529 
Q 2884 3475 3122 3366 
z
" transform="scale(0.015625)"/>
       <path id="DejaVuSans-6e" d="M 3513 2113 
L 3513 0 
L 2938 0 
L 2938 2094 
Q 2938 2591 2744 2837 
Q 2550 3084 2163 3084 
Q 1697 3084 1428 2787 
Q 1159 2491 1159 1978 
L 1159 0 
L 581 0 
L 581 3500 
L 1159 3500 
L 1159 2956 
Q 1366 3272 1645 3428 
Q 1925 3584 2291 3584 
Q 2894 3584 3203 3211 
Q 3513 2838 3513 2113 
z
" transform="scale(0.015625)"/>
       <path id="DejaVuSans-74" d="M 1172 4494 
L 1172 3500 
L 2356 3500 
L 2356 3053 
L 1172 3053 
L 1172 1153 
Q 1172 725 1289 603 
Q 1406 481 1766 481 
L 2356 481 
L 2356 0 
L 1766 0 
Q 1100 0 847 248 
Q 594 497 594 1153 
L 594 3053 
L 172 3053 
L 172 3500 
L 594 3500 
L 594 4494 
L 1172 4494 
z
" transform="scale(0.015625)"/>
       <path id="DejaVuSans-70" d="M 1159 525 
L 1159 -1331 
L 581 -1331 
L 581 3500 
L 1159 3500 
L 1159 2969 
Q 1341 3281 1617 3432 
Q 1894 3584 2278 3584 
Q 2916 3584 3314 3078 
Q 3713 2572 3713 1747 
Q 3713 922 3314 415 
Q 2916 -91 2278 -91 
Q 1894 -91 1617 61 
Q 1341 213 1159 525 
z
M 3116 1747 
Q 3116 2381 2855 2742 
Q 2594 3103 2138 3103 
Q 1681 3103 1420 2742 
Q 1159 2381 1159 1747 
Q 1159 1113 1420 752 
Q 1681 391 2138 391 
Q 2594 391 2855 752 
Q 3116 1113 3116 1747 
z
" transform="scale(0.015625)"/>
      </defs>
      <use xlink:href="#DejaVuSans-50"/>
      <use xlink:href="#DejaVuSans-65" x="56.677734"/>
      <use xlink:href="#DejaVuSans-72" x="118.201172"/>
      <use xlink:href="#DejaVuSans-63" x="157.064453"/>
      <use xlink:href="#DejaVuSans-65" x="212.044922"/>
      <use xlink:href="#DejaVuSans-6e" x="273.568359"/>
      <use xlink:href="#DejaVuSans-74" x="336.947266"/>
      <use xlink:href="#DejaVuSans-47" x="376.15625"/>
      <use xlink:href="#DejaVuSans-70" x="453.646484"/>
      <use xlink:href="#DejaVuSans-41" x="517.123047"/>
     </g>
    </g>
   </g>
   <g id="patch_3">
    <path d="M 89.55712 269.185457 
L 247.25088 269.185457 
L 247.25088 250.078476 
L 89.55712 250.078476 
L 89.55712 269.185457 
z
" clip-path="url(#p95ebefb90a)" style="fill: #ecf2ec; stroke: #262626; stroke-width: 1.5; stroke-linejoin: miter"/>
   </g>
   <g id="patch_4">
    <path d="M 250.46912 253.6085 
L 408.16288 253.6085 
L 408.16288 142.158431 
L 250.46912 142.158431 
L 250.46912 253.6085 
z
" clip-path="url(#p95ebefb90a)" style="fill: #107010; stroke: #262626; stroke-width: 1.5; stroke-linejoin: miter"/>
   </g>
   <g id="patch_5">
    <path d="M 248.86 303.64 
L 248.86 303.64 
L 248.86 303.64 
L 248.86 303.64 
z
" clip-path="url(#p95ebefb90a)" style="fill: #ecf2ec; stroke: #262626; stroke-width: 0.75; stroke-linejoin: miter"/>
   </g>
   <g id="patch_6">
    <path d="M 248.86 303.64 
L 248.86 303.64 
L 248.86 303.64 
L 248.86 303.64 
z
" clip-path="url(#p95ebefb90a)" style="fill: #107010; stroke: #262626; stroke-width: 0.75; stroke-linejoin: miter"/>
   </g>
   <g id="PathCollection_1"/>
   <g id="PathCollection_2"/>
   <g id="line2d_9">
    <path d="M 168.404 269.185457 
L 168.404 282.127063 
" clip-path="url(#p95ebefb90a)" style="fill: none; stroke: #262626; stroke-width: 1.5; stroke-linecap: round"/>
   </g>
   <g id="line2d_10">
    <path d="M 168.404 250.078476 
L 168.404 221.479642 
" clip-path="url(#p95ebefb90a)" style="fill: none; stroke: #262626; stroke-width: 1.5; stroke-linecap: round"/>
   </g>
   <g id="line2d_11">
    <path d="M 128.98056 282.127063 
L 207.82744 282.127063 
" clip-path="url(#p95ebefb90a)" style="fill: none; stroke: #262626; stroke-width: 1.5; stroke-linecap: round"/>
   </g>
   <g id="line2d_12">
    <path d="M 128.98056 221.479642 
L 207.82744 221.479642 
" clip-path="url(#p95ebefb90a)" style="fill: none; stroke: #262626; stroke-width: 1.5; stroke-linecap: round"/>
   </g>
   <g id="line2d_13">
    <defs>
     <path id="m228251d62b" d="M -0 1.414214 
L 0.848528 0 
L 0 -1.414214 
L -0.848528 -0 
z
" style="stroke: #262626; stroke-linejoin: miter"/>
    </defs>
    <g clip-path="url(#p95ebefb90a)">
     <use xlink:href="#m228251d62b" x="168.404" y="162.67376" style="fill: #262626; stroke: #262626; stroke-linejoin: miter"/>
    </g>
   </g>
   <g id="line2d_14">
    <path d="M 329.316 253.6085 
L 329.316 277.888146 
" clip-path="url(#p95ebefb90a)" style="fill: none; stroke: #262626; stroke-width: 1.5; stroke-linecap: round"/>
   </g>
   <g id="line2d_15">
    <path d="M 329.316 142.158431 
L 329.316 78.412441 
" clip-path="url(#p95ebefb90a)" style="fill: none; stroke: #262626; stroke-width: 1.5; stroke-linecap: round"/>
   </g>
   <g id="line2d_16">
    <path d="M 289.89256 277.888146 
L 368.73944 277.888146 
" clip-path="url(#p95ebefb90a)" style="fill: none; stroke: #262626; stroke-width: 1.5; stroke-linecap: round"/>
   </g>
   <g id="line2d_17">
    <path d="M 289.89256 78.412441 
L 368.73944 78.412441 
" clip-path="url(#p95ebefb90a)" style="fill: none; stroke: #262626; stroke-width: 1.5; stroke-linecap: round"/>
   </g>
   <g id="line2d_18"/>
   <g id="line2d_19">
    <path d="M 89.55712 261.57888 
L 247.25088 261.57888 
" clip-path="url(#p95ebefb90a)" style="fill: none; stroke: #262626; stroke-width: 1.5; stroke-linecap: round"/>
   </g>
   <g id="line2d_20">
    <path d="M 250.46912 227.364324 
L 408.16288 227.364324 
" clip-path="url(#p95ebefb90a)" style="fill: none; stroke: #262626; stroke-width: 1.5; stroke-linecap: round"/>
   </g>
   <g id="patch_7">
    <path d="M 47.72 303.64 
L 47.72 55.889685 
" style="fill: none; stroke: #cccccc; stroke-width: 0.8; stroke-linejoin: miter; stroke-linecap: square"/>
   </g>
   <g id="patch_8">
    <path d="M 450 303.64 
L 450 55.889685 
" style="fill: none; stroke: #cccccc; stroke-width: 0.8; stroke-linejoin: miter; stroke-linecap: square"/>
   </g>
   <g id="patch_9">
    <path d="M 47.72 303.64 
L 450 303.64 
" style="fill: none; stroke: #cccccc; stroke-width: 0.8; stroke-linejoin: miter; stroke-linecap: square"/>
   </g>
   <g id="patch_10">
    <path d="M 47.72 55.889685 
L 450 55.889685 
" style="fill: none; stroke: #cccccc; stroke-width: 0.8; stroke-linejoin: miter; stroke-linecap: square"/>
   </g>
   <g id="PathCollection_3">
    <defs>
     <path id="C0_0_747a7ad24e" d="M 0 1 
C 0.265203 1 0.51958 0.894634 0.707107 0.707107 
C 0.894634 0.51958 1 0.265203 1 -0 
C 1 -0.265203 0.894634 -0.51958 0.707107 -0.707107 
C 0.51958 -0.894634 0.265203 -1 0 -1 
C -0.265203 -1 -0.51958 -0.894634 -0.707107 -0.707107 
C -0.894634 -0.51958 -1 -0.265203 -1 0 
C -1 0.265203 -0.894634 0.51958 -0.707107 0.707107 
C -0.51958 0.894634 -0.265203 1 0 1 
z
"/>
    </defs>
    <g clip-path="url(#p95ebefb90a)">
     <use xlink:href="#C0_0_747a7ad24e" x="159.750187" y="265.478114" style="fill: #262626"/>
    </g>
    <g clip-path="url(#p95ebefb90a)">
     <use xlink:href="#C0_0_747a7ad24e" x="187.035744" y="264.962991" style="fill: #262626"/>
    </g>
    <g clip-path="url(#p95ebefb90a)">
     <use xlink:href="#C0_0_747a7ad24e" x="151.967332" y="273.835199" style="fill: #262626"/>
    </g>
    <g clip-path="url(#p95ebefb90a)">
     <use xlink:href="#C0_0_747a7ad24e" x="149.704386" y="221.479642" style="fill: #262626"/>
    </g>
    <g clip-path="url(#p95ebefb90a)">
     <use xlink:href="#C0_0_747a7ad24e" x="158.057911" y="240.844308" style="fill: #262626"/>
    </g>
    <g clip-path="url(#p95ebefb90a)">
     <use xlink:href="#C0_0_747a7ad24e" x="163.573885" y="259.652603" style="fill: #262626"/>
    </g>
    <g clip-path="url(#p95ebefb90a)">
     <use xlink:href="#C0_0_747a7ad24e" x="152.149798" y="249.193429" style="fill: #262626"/>
    </g>
    <g clip-path="url(#p95ebefb90a)">
     <use xlink:href="#C0_0_747a7ad24e" x="153.150811" y="268.830029" style="fill: #262626"/>
    </g>
    <g clip-path="url(#p95ebefb90a)">
     <use xlink:href="#C0_0_747a7ad24e" x="185.62215" y="272.271121" style="fill: #262626"/>
    </g>
    <g clip-path="url(#p95ebefb90a)">
     <use xlink:href="#C0_0_747a7ad24e" x="175.48502" y="244.673707" style="fill: #262626"/>
    </g>
    <g clip-path="url(#p95ebefb90a)">
     <use xlink:href="#C0_0_747a7ad24e" x="182.816872" y="266.701707" style="fill: #262626"/>
    </g>
    <g clip-path="url(#p95ebefb90a)">
     <use xlink:href="#C0_0_747a7ad24e" x="181.134001" y="258.57257" style="fill: #262626"/>
    </g>
    <g clip-path="url(#p95ebefb90a)">
     <use xlink:href="#C0_0_747a7ad24e" x="148.407698" y="244.127172" style="fill: #262626"/>
    </g>
    <g clip-path="url(#p95ebefb90a)">
     <use xlink:href="#C0_0_747a7ad24e" x="182.350287" y="260.18361" style="fill: #262626"/>
    </g>
    <g clip-path="url(#p95ebefb90a)">
     <use xlink:href="#C0_0_747a7ad24e" x="154.792763" y="258.79794" style="fill: #262626"/>
    </g>
    <g clip-path="url(#p95ebefb90a)">
     <use xlink:href="#C0_0_747a7ad24e" x="155.473817" y="239.445332" style="fill: #262626"/>
    </g>
    <g clip-path="url(#p95ebefb90a)">
     <use xlink:href="#C0_0_747a7ad24e" x="180.974318" y="263.888274" style="fill: #262626"/>
    </g>
    <g clip-path="url(#p95ebefb90a)">
     <use xlink:href="#C0_0_747a7ad24e" x="174.360979" y="263.009518" style="fill: #262626"/>
    </g>
    <g clip-path="url(#p95ebefb90a)">
     <use xlink:href="#C0_0_747a7ad24e" x="157.576148" y="227.295315" style="fill: #262626"/>
    </g>
    <g clip-path="url(#p95ebefb90a)">
     <use xlink:href="#C0_0_747a7ad24e" x="187.677073" y="262.139257" style="fill: #262626"/>
    </g>
    <g clip-path="url(#p95ebefb90a)">
     <use xlink:href="#C0_0_747a7ad24e" x="175.814401" y="270.312475" style="fill: #262626"/>
    </g>
    <g clip-path="url(#p95ebefb90a)">
     <use xlink:href="#C0_0_747a7ad24e" x="187.564616" y="246.760886" style="fill: #262626"/>
    </g>
    <g clip-path="url(#p95ebefb90a)">
     <use xlink:href="#C0_0_747a7ad24e" x="171.120474" y="272.461632" style="fill: #262626"/>
    </g>
    <g clip-path="url(#p95ebefb90a)">
     <use xlink:href="#C0_0_747a7ad24e" x="158.419539" y="270.810008" style="fill: #262626"/>
    </g>
    <g clip-path="url(#p95ebefb90a)">
     <use xlink:href="#C0_0_747a7ad24e" x="179.838396" y="243.995021" style="fill: #262626"/>
    </g>
    <g clip-path="url(#p95ebefb90a)">
     <use xlink:href="#C0_0_747a7ad24e" x="171.35761" y="272.565045" style="fill: #262626"/>
    </g>
    <g clip-path="url(#p95ebefb90a)">
     <use xlink:href="#C0_0_747a7ad24e" x="148.339697" y="162.67376" style="fill: #262626"/>
    </g>
    <g clip-path="url(#p95ebefb90a)">
     <use xlink:href="#C0_0_747a7ad24e" x="161.656282" y="260.312958" style="fill: #262626"/>
    </g>
    <g clip-path="url(#p95ebefb90a)">
     <use xlink:href="#C0_0_747a7ad24e" x="175.834725" y="264.96177" style="fill: #262626"/>
    </g>
    <g clip-path="url(#p95ebefb90a)">
     <use xlink:href="#C0_0_747a7ad24e" x="164.44492" y="269.540885" style="fill: #262626"/>
    </g>
    <g clip-path="url(#p95ebefb90a)">
     <use xlink:href="#C0_0_747a7ad24e" x="169.018018" y="273.559129" style="fill: #262626"/>
    </g>
    <g clip-path="url(#p95ebefb90a)">
     <use xlink:href="#C0_0_747a7ad24e" x="150.438216" y="261.57888" style="fill: #262626"/>
    </g>
    <g clip-path="url(#p95ebefb90a)">
     <use xlink:href="#C0_0_747a7ad24e" x="166.027505" y="250.813436" style="fill: #262626"/>
    </g>
    <g clip-path="url(#p95ebefb90a)">
     <use xlink:href="#C0_0_747a7ad24e" x="178.026334" y="263.343117" style="fill: #262626"/>
    </g>
    <g clip-path="url(#p95ebefb90a)">
     <use xlink:href="#C0_0_747a7ad24e" x="175.00978" y="264.576093" style="fill: #262626"/>
    </g>
    <g clip-path="url(#p95ebefb90a)">
     <use xlink:href="#C0_0_747a7ad24e" x="170.702147" y="277.392366" style="fill: #262626"/>
    </g>
    <g clip-path="url(#p95ebefb90a)">
     <use xlink:href="#C0_0_747a7ad24e" x="153.664937" y="263.380957" style="fill: #262626"/>
    </g>
    <g clip-path="url(#p95ebefb90a)">
     <use xlink:href="#C0_0_747a7ad24e" x="160.342238" y="254.996806" style="fill: #262626"/>
    </g>
    <g clip-path="url(#p95ebefb90a)">
     <use xlink:href="#C0_0_747a7ad24e" x="157.643911" y="263.70308" style="fill: #262626"/>
    </g>
    <g clip-path="url(#p95ebefb90a)">
     <use xlink:href="#C0_0_747a7ad24e" x="149.532255" y="230.34887" style="fill: #262626"/>
    </g>
    <g clip-path="url(#p95ebefb90a)">
     <use xlink:href="#C0_0_747a7ad24e" x="167.3556" y="270.513299" style="fill: #262626"/>
    </g>
    <g clip-path="url(#p95ebefb90a)">
     <use xlink:href="#C0_0_747a7ad24e" x="177.584761" y="250.354896" style="fill: #262626"/>
    </g>
    <g clip-path="url(#p95ebefb90a)">
     <use xlink:href="#C0_0_747a7ad24e" x="185.65272" y="252.757437" style="fill: #262626"/>
    </g>
    <g clip-path="url(#p95ebefb90a)">
     <use xlink:href="#C0_0_747a7ad24e" x="171.633742" y="254.728957" style="fill: #262626"/>
    </g>
    <g clip-path="url(#p95ebefb90a)">
     <use xlink:href="#C0_0_747a7ad24e" x="178.135204" y="256.04401" style="fill: #262626"/>
    </g>
    <g clip-path="url(#p95ebefb90a)">
     <use xlink:href="#C0_0_747a7ad24e" x="163.004484" y="279.282334" style="fill: #262626"/>
    </g>
    <g clip-path="url(#p95ebefb90a)">
     <use xlink:href="#C0_0_747a7ad24e" x="174.662906" y="249.424998" style="fill: #262626"/>
    </g>
    <g clip-path="url(#p95ebefb90a)">
     <use xlink:href="#C0_0_747a7ad24e" x="183.364711" y="282.127063" style="fill: #262626"/>
    </g>
    <g clip-path="url(#p95ebefb90a)">
     <use xlink:href="#C0_0_747a7ad24e" x="164.205883" y="230.677443" style="fill: #262626"/>
    </g>
    <g clip-path="url(#p95ebefb90a)">
     <use xlink:href="#C0_0_747a7ad24e" x="168.173552" y="244.442106" style="fill: #262626"/>
    </g>
    <g clip-path="url(#p95ebefb90a)">
     <use xlink:href="#C0_0_747a7ad24e" x="180.176729" y="261.593921" style="fill: #262626"/>
    </g>
    <g clip-path="url(#p95ebefb90a)">
     <use xlink:href="#C0_0_747a7ad24e" x="176.112663" y="268.570296" style="fill: #262626"/>
    </g>
    <g clip-path="url(#p95ebefb90a)">
     <use xlink:href="#C0_0_747a7ad24e" x="186.909002" y="265.389195" style="fill: #262626"/>
    </g>
    <g clip-path="url(#p95ebefb90a)">
     <use xlink:href="#C0_0_747a7ad24e" x="162.483465" y="281.239262" style="fill: #262626"/>
    </g>
    <g clip-path="url(#p95ebefb90a)">
     <use xlink:href="#C0_0_747a7ad24e" x="164.45463" y="260.152311" style="fill: #262626"/>
    </g>
    <g clip-path="url(#p95ebefb90a)">
     <use xlink:href="#C0_0_747a7ad24e" x="183.39558" y="256.699035" style="fill: #262626"/>
    </g>
    <g clip-path="url(#p95ebefb90a)">
     <use xlink:href="#C0_0_747a7ad24e" x="164.610002" y="238.481228" style="fill: #262626"/>
    </g>
    <g clip-path="url(#p95ebefb90a)">
     <use xlink:href="#C0_0_747a7ad24e" x="167.859129" y="278.545436" style="fill: #262626"/>
    </g>
    <g clip-path="url(#p95ebefb90a)">
     <use xlink:href="#C0_0_747a7ad24e" x="181.893283" y="249.802056" style="fill: #262626"/>
    </g>
    <g clip-path="url(#p95ebefb90a)">
     <use xlink:href="#C0_0_747a7ad24e" x="179.081811" y="269.573068" style="fill: #262626"/>
    </g>
    <g clip-path="url(#p95ebefb90a)">
     <use xlink:href="#C0_0_747a7ad24e" x="162.739323" y="277.603418" style="fill: #262626"/>
    </g>
    <g clip-path="url(#p95ebefb90a)">
     <use xlink:href="#C0_0_747a7ad24e" x="184.702299" y="252.036748" style="fill: #262626"/>
    </g>
    <g clip-path="url(#p95ebefb90a)">
     <use xlink:href="#C0_0_747a7ad24e" x="163.545281" y="256.201386" style="fill: #262626"/>
    </g>
   </g>
   <g id="PathCollection_4">
    <defs>
     <path id="C1_0_bf9f2cc21e" d="M 0 1 
C 0.265203 1 0.51958 0.894634 0.707107 0.707107 
C 0.894634 0.51958 1 0.265203 1 -0 
C 1 -0.265203 0.894634 -0.51958 0.707107 -0.707107 
C 0.51958 -0.894634 0.265203 -1 0 -1 
C -0.265203 -1 -0.51958 -0.894634 -0.707107 -0.707107 
C -0.894634 -0.51958 -1 -0.265203 -1 0 
C -1 0.265203 -0.894634 0.51958 -0.707107 0.707107 
C -0.51958 0.894634 -0.265203 1 0 1 
z
"/>
    </defs>
    <g clip-path="url(#p95ebefb90a)">
     <use xlink:href="#C1_0_bf9f2cc21e" x="348.257874" y="263.83892"/>
    </g>
    <g clip-path="url(#p95ebefb90a)">
     <use xlink:href="#C1_0_bf9f2cc21e" x="329.447656" y="78.412441"/>
    </g>
    <g clip-path="url(#p95ebefb90a)">
     <use xlink:href="#C1_0_bf9f2cc21e" x="332.061782" y="254.0664"/>
    </g>
    <g clip-path="url(#p95ebefb90a)">
     <use xlink:href="#C1_0_bf9f2cc21e" x="329.836517" y="160.892742"/>
    </g>
    <g clip-path="url(#p95ebefb90a)">
     <use xlink:href="#C1_0_bf9f2cc21e" x="318.753352" y="221.144088"/>
    </g>
    <g clip-path="url(#p95ebefb90a)">
     <use xlink:href="#C1_0_bf9f2cc21e" x="335.032863" y="263.87915"/>
    </g>
    <g clip-path="url(#p95ebefb90a)">
     <use xlink:href="#C1_0_bf9f2cc21e" x="314.620671" y="257.123979"/>
    </g>
    <g clip-path="url(#p95ebefb90a)">
     <use xlink:href="#C1_0_bf9f2cc21e" x="325.495282" y="115.218922"/>
    </g>
    <g clip-path="url(#p95ebefb90a)">
     <use xlink:href="#C1_0_bf9f2cc21e" x="315.598626" y="78.412441"/>
    </g>
    <g clip-path="url(#p95ebefb90a)">
     <use xlink:href="#C1_0_bf9f2cc21e" x="316.203091" y="132.777604"/>
    </g>
    <g clip-path="url(#p95ebefb90a)">
     <use xlink:href="#C1_0_bf9f2cc21e" x="322.553182" y="228.438662"/>
    </g>
    <g clip-path="url(#p95ebefb90a)">
     <use xlink:href="#C1_0_bf9f2cc21e" x="310.491461" y="207.994522"/>
    </g>
    <g clip-path="url(#p95ebefb90a)">
     <use xlink:href="#C1_0_bf9f2cc21e" x="330.69673" y="250.219082"/>
    </g>
    <g clip-path="url(#p95ebefb90a)">
     <use xlink:href="#C1_0_bf9f2cc21e" x="329.647161" y="160.892742"/>
    </g>
    <g clip-path="url(#p95ebefb90a)">
     <use xlink:href="#C1_0_bf9f2cc21e" x="348.178823" y="237.004806"/>
    </g>
    <g clip-path="url(#p95ebefb90a)">
     <use xlink:href="#C1_0_bf9f2cc21e" x="340.604214" y="256.465223"/>
    </g>
    <g clip-path="url(#p95ebefb90a)">
     <use xlink:href="#C1_0_bf9f2cc21e" x="318.197679" y="277.888146"/>
    </g>
    <g clip-path="url(#p95ebefb90a)">
     <use xlink:href="#C1_0_bf9f2cc21e" x="309.929275" y="126.009944"/>
    </g>
    <g clip-path="url(#p95ebefb90a)">
     <use xlink:href="#C1_0_bf9f2cc21e" x="314.868976" y="142.158431"/>
    </g>
    <g clip-path="url(#p95ebefb90a)">
     <use xlink:href="#C1_0_bf9f2cc21e" x="318.913285" y="149.685323"/>
    </g>
    <g clip-path="url(#p95ebefb90a)">
     <use xlink:href="#C1_0_bf9f2cc21e" x="327.077986" y="257.123979"/>
    </g>
    <g clip-path="url(#p95ebefb90a)">
     <use xlink:href="#C1_0_bf9f2cc21e" x="337.536149" y="234.993501"/>
    </g>
    <g clip-path="url(#p95ebefb90a)">
     <use xlink:href="#C1_0_bf9f2cc21e" x="318.029052" y="250.953987"/>
    </g>
    <g clip-path="url(#p95ebefb90a)">
     <use xlink:href="#C1_0_bf9f2cc21e" x="317.559143" y="272.862346"/>
    </g>
    <g clip-path="url(#p95ebefb90a)">
     <use xlink:href="#C1_0_bf9f2cc21e" x="342.5981" y="237.577321"/>
    </g>
    <g clip-path="url(#p95ebefb90a)">
     <use xlink:href="#C1_0_bf9f2cc21e" x="311.371868" y="133.854586"/>
    </g>
    <g clip-path="url(#p95ebefb90a)">
     <use xlink:href="#C1_0_bf9f2cc21e" x="324.843385" y="228.438662"/>
    </g>
    <g clip-path="url(#p95ebefb90a)">
     <use xlink:href="#C1_0_bf9f2cc21e" x="342.722401" y="274.551315"/>
    </g>
    <g clip-path="url(#p95ebefb90a)">
     <use xlink:href="#C1_0_bf9f2cc21e" x="328.864478" y="266.268344"/>
    </g>
    <g clip-path="url(#p95ebefb90a)">
     <use xlink:href="#C1_0_bf9f2cc21e" x="320.37098" y="253.6085"/>
    </g>
    <g clip-path="url(#p95ebefb90a)">
     <use xlink:href="#C1_0_bf9f2cc21e" x="341.118349" y="272.862346"/>
    </g>
    <g clip-path="url(#p95ebefb90a)">
     <use xlink:href="#C1_0_bf9f2cc21e" x="341.547364" y="245.409737"/>
    </g>
    <g clip-path="url(#p95ebefb90a)">
     <use xlink:href="#C1_0_bf9f2cc21e" x="310.826256" y="212.76623"/>
    </g>
    <g clip-path="url(#p95ebefb90a)">
     <use xlink:href="#C1_0_bf9f2cc21e" x="311.863774" y="132.777604"/>
    </g>
    <g clip-path="url(#p95ebefb90a)">
     <use xlink:href="#C1_0_bf9f2cc21e" x="343.943576" y="172.0567"/>
    </g>
    <g clip-path="url(#p95ebefb90a)">
     <use xlink:href="#C1_0_bf9f2cc21e" x="310.441561" y="95.136377"/>
    </g>
    <g clip-path="url(#p95ebefb90a)">
     <use xlink:href="#C1_0_bf9f2cc21e" x="315.774041" y="113.812409"/>
    </g>
    <g clip-path="url(#p95ebefb90a)">
     <use xlink:href="#C1_0_bf9f2cc21e" x="318.371794" y="142.158431"/>
    </g>
    <g clip-path="url(#p95ebefb90a)">
     <use xlink:href="#C1_0_bf9f2cc21e" x="329.533292" y="266.268344"/>
    </g>
    <g clip-path="url(#p95ebefb90a)">
     <use xlink:href="#C1_0_bf9f2cc21e" x="311.68344" y="212.76623"/>
    </g>
    <g clip-path="url(#p95ebefb90a)">
     <use xlink:href="#C1_0_bf9f2cc21e" x="313.92404" y="235.348613"/>
    </g>
    <g clip-path="url(#p95ebefb90a)">
     <use xlink:href="#C1_0_bf9f2cc21e" x="345.660802" y="274.551315"/>
    </g>
    <g clip-path="url(#p95ebefb90a)">
     <use xlink:href="#C1_0_bf9f2cc21e" x="345.816075" y="132.777604"/>
    </g>
    <g clip-path="url(#p95ebefb90a)">
     <use xlink:href="#C1_0_bf9f2cc21e" x="328.167953" y="141.821097"/>
    </g>
    <g clip-path="url(#p95ebefb90a)">
     <use xlink:href="#C1_0_bf9f2cc21e" x="317.60887" y="274.551315"/>
    </g>
    <g clip-path="url(#p95ebefb90a)">
     <use xlink:href="#C1_0_bf9f2cc21e" x="344.652996" y="251.915608"/>
    </g>
    <g clip-path="url(#p95ebefb90a)">
     <use xlink:href="#C1_0_bf9f2cc21e" x="328.174808" y="263.87915"/>
    </g>
    <g clip-path="url(#p95ebefb90a)">
     <use xlink:href="#C1_0_bf9f2cc21e" x="343.361098" y="245.409737"/>
    </g>
    <g clip-path="url(#p95ebefb90a)">
     <use xlink:href="#C1_0_bf9f2cc21e" x="329.35501" y="220.107667"/>
    </g>
    <g clip-path="url(#p95ebefb90a)">
     <use xlink:href="#C1_0_bf9f2cc21e" x="323.366871" y="272.862346"/>
    </g>
    <g clip-path="url(#p95ebefb90a)">
     <use xlink:href="#C1_0_bf9f2cc21e" x="321.380731" y="250.953987"/>
    </g>
    <g clip-path="url(#p95ebefb90a)">
     <use xlink:href="#C1_0_bf9f2cc21e" x="346.967967" y="237.577321"/>
    </g>
    <g clip-path="url(#p95ebefb90a)">
     <use xlink:href="#C1_0_bf9f2cc21e" x="335.30579" y="95.144016"/>
    </g>
    <g clip-path="url(#p95ebefb90a)">
     <use xlink:href="#C1_0_bf9f2cc21e" x="319.489039" y="221.144088"/>
    </g>
    <g clip-path="url(#p95ebefb90a)">
     <use xlink:href="#C1_0_bf9f2cc21e" x="345.126531" y="234.993501"/>
    </g>
    <g clip-path="url(#p95ebefb90a)">
     <use xlink:href="#C1_0_bf9f2cc21e" x="347.349081" y="261.605309"/>
    </g>
    <g clip-path="url(#p95ebefb90a)">
     <use xlink:href="#C1_0_bf9f2cc21e" x="314.596962" y="95.144016"/>
    </g>
    <g clip-path="url(#p95ebefb90a)">
     <use xlink:href="#C1_0_bf9f2cc21e" x="334.863703" y="218.497192"/>
    </g>
    <g clip-path="url(#p95ebefb90a)">
     <use xlink:href="#C1_0_bf9f2cc21e" x="326.276817" y="207.994522"/>
    </g>
    <g clip-path="url(#p95ebefb90a)">
     <use xlink:href="#C1_0_bf9f2cc21e" x="348.387008" y="172.0567"/>
    </g>
    <g clip-path="url(#p95ebefb90a)">
     <use xlink:href="#C1_0_bf9f2cc21e" x="342.03088" y="119.005148"/>
    </g>
    <g clip-path="url(#p95ebefb90a)">
     <use xlink:href="#C1_0_bf9f2cc21e" x="327.292015" y="250.953987"/>
    </g>
    <g clip-path="url(#p95ebefb90a)">
     <use xlink:href="#C1_0_bf9f2cc21e" x="322.624822" y="238.475592"/>
    </g>
    <g clip-path="url(#p95ebefb90a)">
     <use xlink:href="#C1_0_bf9f2cc21e" x="333.723217" y="119.005148"/>
    </g>
    <g clip-path="url(#p95ebefb90a)">
     <use xlink:href="#C1_0_bf9f2cc21e" x="331.033567" y="221.228715"/>
    </g>
    <g clip-path="url(#p95ebefb90a)">
     <use xlink:href="#C1_0_bf9f2cc21e" x="314.573848" y="172.0567"/>
    </g>
    <g clip-path="url(#p95ebefb90a)">
     <use xlink:href="#C1_0_bf9f2cc21e" x="320.988737" y="256.351653"/>
    </g>
    <g clip-path="url(#p95ebefb90a)">
     <use xlink:href="#C1_0_bf9f2cc21e" x="314.760022" y="212.76623"/>
    </g>
    <g clip-path="url(#p95ebefb90a)">
     <use xlink:href="#C1_0_bf9f2cc21e" x="311.891715" y="253.6085"/>
    </g>
    <g clip-path="url(#p95ebefb90a)">
     <use xlink:href="#C1_0_bf9f2cc21e" x="313.17932" y="254.0664"/>
    </g>
    <g clip-path="url(#p95ebefb90a)">
     <use xlink:href="#C1_0_bf9f2cc21e" x="333.888284" y="257.710204"/>
    </g>
    <g clip-path="url(#p95ebefb90a)">
     <use xlink:href="#C1_0_bf9f2cc21e" x="340.861395" y="220.107667"/>
    </g>
    <g clip-path="url(#p95ebefb90a)">
     <use xlink:href="#C1_0_bf9f2cc21e" x="329.785243" y="162.557922"/>
    </g>
    <g clip-path="url(#p95ebefb90a)">
     <use xlink:href="#C1_0_bf9f2cc21e" x="319.367252" y="95.136377"/>
    </g>
    <g clip-path="url(#p95ebefb90a)">
     <use xlink:href="#C1_0_bf9f2cc21e" x="344.68336" y="126.009944"/>
    </g>
    <g clip-path="url(#p95ebefb90a)">
     <use xlink:href="#C1_0_bf9f2cc21e" x="340.068221" y="113.812409"/>
    </g>
    <g clip-path="url(#p95ebefb90a)">
     <use xlink:href="#C1_0_bf9f2cc21e" x="343.607068" y="149.685323"/>
    </g>
    <g clip-path="url(#p95ebefb90a)">
     <use xlink:href="#C1_0_bf9f2cc21e" x="317.233142" y="234.993501"/>
    </g>
    <g clip-path="url(#p95ebefb90a)">
     <use xlink:href="#C1_0_bf9f2cc21e" x="335.208019" y="227.364324"/>
    </g>
    <g clip-path="url(#p95ebefb90a)">
     <use xlink:href="#C1_0_bf9f2cc21e" x="342.159724" y="237.577321"/>
    </g>
    <g clip-path="url(#p95ebefb90a)">
     <use xlink:href="#C1_0_bf9f2cc21e" x="311.523714" y="126.009944"/>
    </g>
    <g clip-path="url(#p95ebefb90a)">
     <use xlink:href="#C1_0_bf9f2cc21e" x="347.763021" y="263.83892"/>
    </g>
    <g clip-path="url(#p95ebefb90a)">
     <use xlink:href="#C1_0_bf9f2cc21e" x="322.731779" y="119.005148"/>
    </g>
    <g clip-path="url(#p95ebefb90a)">
     <use xlink:href="#C1_0_bf9f2cc21e" x="320.143295" y="237.004806"/>
    </g>
    <g clip-path="url(#p95ebefb90a)">
     <use xlink:href="#C1_0_bf9f2cc21e" x="315.990302" y="257.710204"/>
    </g>
    <g clip-path="url(#p95ebefb90a)">
     <use xlink:href="#C1_0_bf9f2cc21e" x="311.625661" y="220.107667"/>
    </g>
    <g clip-path="url(#p95ebefb90a)">
     <use xlink:href="#C1_0_bf9f2cc21e" x="346.982156" y="251.915608"/>
    </g>
    <g clip-path="url(#p95ebefb90a)">
     <use xlink:href="#C1_0_bf9f2cc21e" x="328.452865" y="238.475592"/>
    </g>
    <g clip-path="url(#p95ebefb90a)">
     <use xlink:href="#C1_0_bf9f2cc21e" x="322.050624" y="218.497192"/>
    </g>
    <g clip-path="url(#p95ebefb90a)">
     <use xlink:href="#C1_0_bf9f2cc21e" x="317.382924" y="277.888146"/>
    </g>
    <g clip-path="url(#p95ebefb90a)">
     <use xlink:href="#C1_0_bf9f2cc21e" x="337.006883" y="141.821097"/>
    </g>
    <g clip-path="url(#p95ebefb90a)">
     <use xlink:href="#C1_0_bf9f2cc21e" x="345.856554" y="162.557922"/>
    </g>
    <g clip-path="url(#p95ebefb90a)">
     <use xlink:href="#C1_0_bf9f2cc21e" x="310.717973" y="233.468122"/>
    </g>
    <g clip-path="url(#p95ebefb90a)">
     <use xlink:href="#C1_0_bf9f2cc21e" x="340.570263" y="207.994522"/>
    </g>
    <g clip-path="url(#p95ebefb90a)">
     <use xlink:href="#C1_0_bf9f2cc21e" x="322.642426" y="95.144016"/>
    </g>
    <g clip-path="url(#p95ebefb90a)">
     <use xlink:href="#C1_0_bf9f2cc21e" x="311.633351" y="142.158431"/>
    </g>
    <g clip-path="url(#p95ebefb90a)">
     <use xlink:href="#C1_0_bf9f2cc21e" x="348.338523" y="115.218922"/>
    </g>
    <g clip-path="url(#p95ebefb90a)">
     <use xlink:href="#C1_0_bf9f2cc21e" x="334.062798" y="257.710204"/>
    </g>
    <g clip-path="url(#p95ebefb90a)">
     <use xlink:href="#C1_0_bf9f2cc21e" x="339.221189" y="237.004806"/>
    </g>
    <g clip-path="url(#p95ebefb90a)">
     <use xlink:href="#C1_0_bf9f2cc21e" x="340.131155" y="254.0664"/>
    </g>
    <g clip-path="url(#p95ebefb90a)">
     <use xlink:href="#C1_0_bf9f2cc21e" x="349.238183" y="115.218922"/>
    </g>
   </g>
   <g id="text_12">
    <!-- 63 -->
    <g style="fill: #262626" transform="translate(188.518 24.202677)scale(0.1 -0.1)">
     <defs>
      <path id="DejaVuSans-33" d="M 2597 2516 
Q 3050 2419 3304 2112 
Q 3559 1806 3559 1356 
Q 3559 666 3084 287 
Q 2609 -91 1734 -91 
Q 1441 -91 1130 -33 
Q 819 25 488 141 
L 488 750 
Q 750 597 1062 519 
Q 1375 441 1716 441 
Q 2309 441 2620 675 
Q 2931 909 2931 1356 
Q 2931 1769 2642 2001 
Q 2353 2234 1838 2234 
L 1294 2234 
L 1294 2753 
L 1863 2753 
Q 2328 2753 2575 2939 
Q 2822 3125 2822 3475 
Q 2822 3834 2567 4026 
Q 2313 4219 1838 4219 
Q 1578 4219 1281 4162 
Q 984 4106 628 3988 
L 628 4550 
Q 988 4650 1302 4700 
Q 1616 4750 1894 4750 
Q 2613 4750 3031 4423 
Q 3450 4097 3450 3541 
Q 3450 3153 3228 2886 
Q 3006 2619 2597 2516 
z
" transform="scale(0.015625)"/>
     </defs>
     <use xlink:href="#DejaVuSans-36"/>
     <use xlink:href="#DejaVuSans-33" x="63.623047"/>
    </g>
   </g>
   <g id="text_13">
    <!-- p=7.057404136103604e-11 -->
    <g style="fill: #262626" transform="translate(131.641125 154.205962)scale(0.08 -0.08)">
     <defs>
      <path id="DejaVuSans-3d" d="M 678 2906 
L 4684 2906 
L 4684 2381 
L 678 2381 
L 678 2906 
z
M 678 1631 
L 4684 1631 
L 4684 1100 
L 678 1100 
L 678 1631 
z
" transform="scale(0.015625)"/>
      <path id="DejaVuSans-37" d="M 525 4666 
L 3525 4666 
L 3525 4397 
L 1831 0 
L 1172 0 
L 2766 4134 
L 525 4134 
L 525 4666 
z
" transform="scale(0.015625)"/>
      <path id="DejaVuSans-35" d="M 691 4666 
L 3169 4666 
L 3169 4134 
L 1269 4134 
L 1269 2991 
Q 1406 3038 1543 3061 
Q 1681 3084 1819 3084 
Q 2600 3084 3056 2656 
Q 3513 2228 3513 1497 
Q 3513 744 3044 326 
Q 2575 -91 1722 -91 
Q 1428 -91 1123 -41 
Q 819 9 494 109 
L 494 744 
Q 775 591 1075 516 
Q 1375 441 1709 441 
Q 2250 441 2565 725 
Q 2881 1009 2881 1497 
Q 2881 1984 2565 2268 
Q 2250 2553 1709 2553 
Q 1456 2553 1204 2497 
Q 953 2441 691 2322 
L 691 4666 
z
" transform="scale(0.015625)"/>
      <path id="DejaVuSans-2d" d="M 313 2009 
L 1997 2009 
L 1997 1497 
L 313 1497 
L 313 2009 
z
" transform="scale(0.015625)"/>
     </defs>
     <use xlink:href="#DejaVuSans-70"/>
     <use xlink:href="#DejaVuSans-3d" x="63.476562"/>
     <use xlink:href="#DejaVuSans-37" x="147.265625"/>
     <use xlink:href="#DejaVuSans-2e" x="210.888672"/>
     <use xlink:href="#DejaVuSans-30" x="242.675781"/>
     <use xlink:href="#DejaVuSans-35" x="306.298828"/>
     <use xlink:href="#DejaVuSans-37" x="369.921875"/>
     <use xlink:href="#DejaVuSans-34" x="433.544922"/>
     <use xlink:href="#DejaVuSans-30" x="497.167969"/>
     <use xlink:href="#DejaVuSans-34" x="560.791016"/>
     <use xlink:href="#DejaVuSans-31" x="624.414062"/>
     <use xlink:href="#DejaVuSans-33" x="688.037109"/>
     <use xlink:href="#DejaVuSans-36" x="751.660156"/>
     <use xlink:href="#DejaVuSans-31" x="815.283203"/>
     <use xlink:href="#DejaVuSans-30" x="878.90625"/>
     <use xlink:href="#DejaVuSans-33" x="942.529297"/>
     <use xlink:href="#DejaVuSans-36" x="1006.152344"/>
     <use xlink:href="#DejaVuSans-30" x="1069.775391"/>
     <use xlink:href="#DejaVuSans-34" x="1133.398438"/>
     <use xlink:href="#DejaVuSans-65" x="1197.021484"/>
     <use xlink:href="#DejaVuSans-2d" x="1258.544922"/>
     <use xlink:href="#DejaVuSans-31" x="1294.628906"/>
     <use xlink:href="#DejaVuSans-31" x="1358.251953"/>
    </g>
   </g>
   <g id="text_14">
    <!-- 101 -->
    <g style="fill: #262626" transform="translate(309.202 24.202677)scale(0.1 -0.1)">
     <use xlink:href="#DejaVuSans-31"/>
     <use xlink:href="#DejaVuSans-30" x="63.623047"/>
     <use xlink:href="#DejaVuSans-31" x="127.246094"/>
    </g>
   </g>
   <g id="legend_1">
    <g id="patch_11">
     <path d="M 377.728125 72.488123 
L 397.728125 72.488123 
L 397.728125 65.488123 
L 377.728125 65.488123 
z
" style="fill: #ecf2ec; stroke: #262626; stroke-width: 0.75; stroke-linejoin: miter"/>
    </g>
    <g id="text_15">
     <!-- Mutant -->
     <g style="fill: #262626" transform="translate(405.728125 72.488123)scale(0.1 -0.1)">
      <defs>
       <path id="DejaVuSans-4d" d="M 628 4666 
L 1569 4666 
L 2759 1491 
L 3956 4666 
L 4897 4666 
L 4897 0 
L 4281 0 
L 4281 4097 
L 3078 897 
L 2444 897 
L 1241 4097 
L 1241 0 
L 628 0 
L 628 4666 
z
" transform="scale(0.015625)"/>
       <path id="DejaVuSans-75" d="M 544 1381 
L 544 3500 
L 1119 3500 
L 1119 1403 
Q 1119 906 1312 657 
Q 1506 409 1894 409 
Q 2359 409 2629 706 
Q 2900 1003 2900 1516 
L 2900 3500 
L 3475 3500 
L 3475 0 
L 2900 0 
L 2900 538 
Q 2691 219 2414 64 
Q 2138 -91 1772 -91 
Q 1169 -91 856 284 
Q 544 659 544 1381 
z
M 1991 3584 
L 1991 3584 
z
" transform="scale(0.015625)"/>
       <path id="DejaVuSans-61" d="M 2194 1759 
Q 1497 1759 1228 1600 
Q 959 1441 959 1056 
Q 959 750 1161 570 
Q 1363 391 1709 391 
Q 2188 391 2477 730 
Q 2766 1069 2766 1631 
L 2766 1759 
L 2194 1759 
z
M 3341 1997 
L 3341 0 
L 2766 0 
L 2766 531 
Q 2569 213 2275 61 
Q 1981 -91 1556 -91 
Q 1019 -91 701 211 
Q 384 513 384 1019 
Q 384 1609 779 1909 
Q 1175 2209 1959 2209 
L 2766 2209 
L 2766 2266 
Q 2766 2663 2505 2880 
Q 2244 3097 1772 3097 
Q 1472 3097 1187 3025 
Q 903 2953 641 2809 
L 641 3341 
Q 956 3463 1253 3523 
Q 1550 3584 1831 3584 
Q 2591 3584 2966 3190 
Q 3341 2797 3341 1997 
z
" transform="scale(0.015625)"/>
      </defs>
      <use xlink:href="#DejaVuSans-4d"/>
      <use xlink:href="#DejaVuSans-75" x="86.279297"/>
      <use xlink:href="#DejaVuSans-74" x="149.658203"/>
      <use xlink:href="#DejaVuSans-61" x="188.867188"/>
      <use xlink:href="#DejaVuSans-6e" x="250.146484"/>
      <use xlink:href="#DejaVuSans-74" x="313.525391"/>
     </g>
    </g>
    <g id="patch_12">
     <path d="M 377.728125 87.166248 
L 397.728125 87.166248 
L 397.728125 80.166248 
L 377.728125 80.166248 
z
" style="fill: #107010; stroke: #262626; stroke-width: 0.75; stroke-linejoin: miter"/>
    </g>
    <g id="text_16">
     <!-- WT -->
     <g style="fill: #262626" transform="translate(405.728125 87.166248)scale(0.1 -0.1)">
      <use xlink:href="#DejaVuSans-57"/>
      <use xlink:href="#DejaVuSans-54" x="98.876953"/>
     </g>
    </g>
   </g>
  </g>
 </g>
 <defs>
  <clipPath id="p95ebefb90a">
   <rect x="47.72" y="55.889685" width="402.28" height="247.750315"/>
  </clipPath>
 </defs>
</svg>
