<?xml version="1.0" encoding="utf-8" standalone="no"?>
<!DOCTYPE svg PUBLIC "-//W3C//DTD SVG 1.1//EN"
  "http://www.w3.org/Graphics/SVG/1.1/DTD/svg11.dtd">
<svg xmlns:xlink="http://www.w3.org/1999/xlink" width="460.8pt" height="345.6pt" viewBox="0 0 460.8 345.6" xmlns="http://www.w3.org/2000/svg" version="1.1">
 <metadata>
  <rdf:RDF xmlns:dc="http://purl.org/dc/elements/1.1/" xmlns:cc="http://creativecommons.org/ns#" xmlns:rdf="http://www.w3.org/1999/02/22-rdf-syntax-ns#">
   <cc:Work>
    <dc:type rdf:resource="http://purl.org/dc/dcmitype/StillImage"/>
    <dc:date>2024-02-20T13:05:33.152783</dc:date>
    <dc:format>image/svg+xml</dc:format>
    <dc:creator>
     <cc:Agent>
      <dc:title>Matplotlib v3.7.1, https://matplotlib.org/</dc:title>
     </cc:Agent>
    </dc:creator>
   </cc:Work>
  </rdf:RDF>
 </metadata>
 <defs>
  <style type="text/css">*{stroke-linejoin: round; stroke-linecap: butt}</style>
 </defs>
 <g id="figure_1">
  <g id="patch_1">
   <path d="M 0 345.6 
L 460.8 345.6 
L 460.8 0 
L 0 0 
z
" style="fill: #ffffff"/>
  </g>
  <g id="axes_1">
   <g id="patch_2">
    <path d="M 47.72 303.64 
L 450 303.64 
L 450 265.857437 
L 47.72 265.857437 
z
" style="fill: #ffffff"/>
   </g>
   <g id="matplotlib.axis_1">
    <g id="xtick_1">
     <g id="text_1">
      <!-- A -->
      <g style="fill: #262626" transform="translate(245.439687 318.238437) scale(0.1 -0.1)">
       <defs>
        <path id="DejaVuSans-41" d="M 2188 4044 
L 1331 1722 
L 3047 1722 
L 2188 4044 
z
M 1831 4666 
L 2547 4666 
L 4325 0 
L 3669 0 
L 3244 1197 
L 1141 1197 
L 716 0 
L 50 0 
L 1831 4666 
z
" transform="scale(0.015625)"/>
       </defs>
       <use xlink:href="#DejaVuSans-41"/>
      </g>
     </g>
    </g>
    <g id="text_2">
     <!-- mut_AA -->
     <g style="fill: #262626" transform="translate(229.382656 331.638437) scale(0.1 -0.1)">
      <defs>
       <path id="DejaVuSans-6d" d="M 3328 2828 
Q 3544 3216 3844 3400 
Q 4144 3584 4550 3584 
Q 5097 3584 5394 3201 
Q 5691 2819 5691 2113 
L 5691 0 
L 5113 0 
L 5113 2094 
Q 5113 2597 4934 2840 
Q 4756 3084 4391 3084 
Q 3944 3084 3684 2787 
Q 3425 2491 3425 1978 
L 3425 0 
L 2847 0 
L 2847 2094 
Q 2847 2600 2669 2842 
Q 2491 3084 2119 3084 
Q 1678 3084 1418 2786 
Q 1159 2488 1159 1978 
L 1159 0 
L 581 0 
L 581 3500 
L 1159 3500 
L 1159 2956 
Q 1356 3278 1631 3431 
Q 1906 3584 2284 3584 
Q 2666 3584 2933 3390 
Q 3200 3197 3328 2828 
z
" transform="scale(0.015625)"/>
       <path id="DejaVuSans-75" d="M 544 1381 
L 544 3500 
L 1119 3500 
L 1119 1403 
Q 1119 906 1312 657 
Q 1506 409 1894 409 
Q 2359 409 2629 706 
Q 2900 1003 2900 1516 
L 2900 3500 
L 3475 3500 
L 3475 0 
L 2900 0 
L 2900 538 
Q 2691 219 2414 64 
Q 2138 -91 1772 -91 
Q 1169 -91 856 284 
Q 544 659 544 1381 
z
M 1991 3584 
L 1991 3584 
z
" transform="scale(0.015625)"/>
       <path id="DejaVuSans-74" d="M 1172 4494 
L 1172 3500 
L 2356 3500 
L 2356 3053 
L 1172 3053 
L 1172 1153 
Q 1172 725 1289 603 
Q 1406 481 1766 481 
L 2356 481 
L 2356 0 
L 1766 0 
Q 1100 0 847 248 
Q 594 497 594 1153 
L 594 3053 
L 172 3053 
L 172 3500 
L 594 3500 
L 594 4494 
L 1172 4494 
z
" transform="scale(0.015625)"/>
       <path id="DejaVuSans-5f" d="M 3263 -1063 
L 3263 -1509 
L -63 -1509 
L -63 -1063 
L 3263 -1063 
z
" transform="scale(0.015625)"/>
      </defs>
      <use xlink:href="#DejaVuSans-6d"/>
      <use xlink:href="#DejaVuSans-75" x="97.412109"/>
      <use xlink:href="#DejaVuSans-74" x="160.791016"/>
      <use xlink:href="#DejaVuSans-5f" x="200"/>
      <use xlink:href="#DejaVuSans-41" x="250"/>
      <use xlink:href="#DejaVuSans-41" x="321.158203"/>
     </g>
    </g>
   </g>
   <g id="matplotlib.axis_2">
    <g id="ytick_1">
     <g id="line2d_1">
      <path d="M 47.72 303.64 
L 450 303.64 
" clip-path="url(#pf08fb4361b)" style="fill: none; stroke: #cccccc; stroke-width: 0.8; stroke-linecap: round"/>
     </g>
     <g id="text_3">
      <!-- 0.0 -->
      <g style="fill: #262626" transform="translate(24.816875 307.439219) scale(0.1 -0.1)">
       <defs>
        <path id="DejaVuSans-30" d="M 2034 4250 
Q 1547 4250 1301 3770 
Q 1056 3291 1056 2328 
Q 1056 1369 1301 889 
Q 1547 409 2034 409 
Q 2525 409 2770 889 
Q 3016 1369 3016 2328 
Q 3016 3291 2770 3770 
Q 2525 4250 2034 4250 
z
M 2034 4750 
Q 2819 4750 3233 4129 
Q 3647 3509 3647 2328 
Q 3647 1150 3233 529 
Q 2819 -91 2034 -91 
Q 1250 -91 836 529 
Q 422 1150 422 2328 
Q 422 3509 836 4129 
Q 1250 4750 2034 4750 
z
" transform="scale(0.015625)"/>
        <path id="DejaVuSans-2e" d="M 684 794 
L 1344 794 
L 1344 0 
L 684 0 
L 684 794 
z
" transform="scale(0.015625)"/>
       </defs>
       <use xlink:href="#DejaVuSans-30"/>
       <use xlink:href="#DejaVuSans-2e" x="63.623047"/>
       <use xlink:href="#DejaVuSans-30" x="95.410156"/>
      </g>
     </g>
    </g>
    <g id="ytick_2">
     <g id="line2d_2">
      <path d="M 47.72 282.444443 
L 450 282.444443 
" clip-path="url(#pf08fb4361b)" style="fill: none; stroke: #cccccc; stroke-width: 0.8; stroke-linecap: round"/>
     </g>
     <g id="text_4">
      <!-- 0.5 -->
      <g style="fill: #262626" transform="translate(24.816875 286.243662) scale(0.1 -0.1)">
       <defs>
        <path id="DejaVuSans-35" d="M 691 4666 
L 3169 4666 
L 3169 4134 
L 1269 4134 
L 1269 2991 
Q 1406 3038 1543 3061 
Q 1681 3084 1819 3084 
Q 2600 3084 3056 2656 
Q 3513 2228 3513 1497 
Q 3513 744 3044 326 
Q 2575 -91 1722 -91 
Q 1428 -91 1123 -41 
Q 819 9 494 109 
L 494 744 
Q 775 591 1075 516 
Q 1375 441 1709 441 
Q 2250 441 2565 725 
Q 2881 1009 2881 1497 
Q 2881 1984 2565 2268 
Q 2250 2553 1709 2553 
Q 1456 2553 1204 2497 
Q 953 2441 691 2322 
L 691 4666 
z
" transform="scale(0.015625)"/>
       </defs>
       <use xlink:href="#DejaVuSans-30"/>
       <use xlink:href="#DejaVuSans-2e" x="63.623047"/>
       <use xlink:href="#DejaVuSans-35" x="95.410156"/>
      </g>
     </g>
    </g>
    <g id="text_5">
     <!-- PercentGpA -->
     <g style="fill: #262626" transform="translate(18.737188 314.025281) rotate(-90) scale(0.1 -0.1)">
      <defs>
       <path id="DejaVuSans-50" d="M 1259 4147 
L 1259 2394 
L 2053 2394 
Q 2494 2394 2734 2622 
Q 2975 2850 2975 3272 
Q 2975 3691 2734 3919 
Q 2494 4147 2053 4147 
L 1259 4147 
z
M 628 4666 
L 2053 4666 
Q 2838 4666 3239 4311 
Q 3641 3956 3641 3272 
Q 3641 2581 3239 2228 
Q 2838 1875 2053 1875 
L 1259 1875 
L 1259 0 
L 628 0 
L 628 4666 
z
" transform="scale(0.015625)"/>
       <path id="DejaVuSans-65" d="M 3597 1894 
L 3597 1613 
L 953 1613 
Q 991 1019 1311 708 
Q 1631 397 2203 397 
Q 2534 397 2845 478 
Q 3156 559 3463 722 
L 3463 178 
Q 3153 47 2828 -22 
Q 2503 -91 2169 -91 
Q 1331 -91 842 396 
Q 353 884 353 1716 
Q 353 2575 817 3079 
Q 1281 3584 2069 3584 
Q 2775 3584 3186 3129 
Q 3597 2675 3597 1894 
z
M 3022 2063 
Q 3016 2534 2758 2815 
Q 2500 3097 2075 3097 
Q 1594 3097 1305 2825 
Q 1016 2553 972 2059 
L 3022 2063 
z
" transform="scale(0.015625)"/>
       <path id="DejaVuSans-72" d="M 2631 2963 
Q 2534 3019 2420 3045 
Q 2306 3072 2169 3072 
Q 1681 3072 1420 2755 
Q 1159 2438 1159 1844 
L 1159 0 
L 581 0 
L 581 3500 
L 1159 3500 
L 1159 2956 
Q 1341 3275 1631 3429 
Q 1922 3584 2338 3584 
Q 2397 3584 2469 3576 
Q 2541 3569 2628 3553 
L 2631 2963 
z
" transform="scale(0.015625)"/>
       <path id="DejaVuSans-63" d="M 3122 3366 
L 3122 2828 
Q 2878 2963 2633 3030 
Q 2388 3097 2138 3097 
Q 1578 3097 1268 2742 
Q 959 2388 959 1747 
Q 959 1106 1268 751 
Q 1578 397 2138 397 
Q 2388 397 2633 464 
Q 2878 531 3122 666 
L 3122 134 
Q 2881 22 2623 -34 
Q 2366 -91 2075 -91 
Q 1284 -91 818 406 
Q 353 903 353 1747 
Q 353 2603 823 3093 
Q 1294 3584 2113 3584 
Q 2378 3584 2631 3529 
Q 2884 3475 3122 3366 
z
" transform="scale(0.015625)"/>
       <path id="DejaVuSans-6e" d="M 3513 2113 
L 3513 0 
L 2938 0 
L 2938 2094 
Q 2938 2591 2744 2837 
Q 2550 3084 2163 3084 
Q 1697 3084 1428 2787 
Q 1159 2491 1159 1978 
L 1159 0 
L 581 0 
L 581 3500 
L 1159 3500 
L 1159 2956 
Q 1366 3272 1645 3428 
Q 1925 3584 2291 3584 
Q 2894 3584 3203 3211 
Q 3513 2838 3513 2113 
z
" transform="scale(0.015625)"/>
       <path id="DejaVuSans-47" d="M 3809 666 
L 3809 1919 
L 2778 1919 
L 2778 2438 
L 4434 2438 
L 4434 434 
Q 4069 175 3628 42 
Q 3188 -91 2688 -91 
Q 1594 -91 976 548 
Q 359 1188 359 2328 
Q 359 3472 976 4111 
Q 1594 4750 2688 4750 
Q 3144 4750 3555 4637 
Q 3966 4525 4313 4306 
L 4313 3634 
Q 3963 3931 3569 4081 
Q 3175 4231 2741 4231 
Q 1884 4231 1454 3753 
Q 1025 3275 1025 2328 
Q 1025 1384 1454 906 
Q 1884 428 2741 428 
Q 3075 428 3337 486 
Q 3600 544 3809 666 
z
" transform="scale(0.015625)"/>
       <path id="DejaVuSans-70" d="M 1159 525 
L 1159 -1331 
L 581 -1331 
L 581 3500 
L 1159 3500 
L 1159 2969 
Q 1341 3281 1617 3432 
Q 1894 3584 2278 3584 
Q 2916 3584 3314 3078 
Q 3713 2572 3713 1747 
Q 3713 922 3314 415 
Q 2916 -91 2278 -91 
Q 1894 -91 1617 61 
Q 1341 213 1159 525 
z
M 3116 1747 
Q 3116 2381 2855 2742 
Q 2594 3103 2138 3103 
Q 1681 3103 1420 2742 
Q 1159 2381 1159 1747 
Q 1159 1113 1420 752 
Q 1681 391 2138 391 
Q 2594 391 2855 752 
Q 3116 1113 3116 1747 
z
" transform="scale(0.015625)"/>
      </defs>
      <use xlink:href="#DejaVuSans-50"/>
      <use xlink:href="#DejaVuSans-65" x="56.677734"/>
      <use xlink:href="#DejaVuSans-72" x="118.201172"/>
      <use xlink:href="#DejaVuSans-63" x="157.064453"/>
      <use xlink:href="#DejaVuSans-65" x="212.044922"/>
      <use xlink:href="#DejaVuSans-6e" x="273.568359"/>
      <use xlink:href="#DejaVuSans-74" x="336.947266"/>
      <use xlink:href="#DejaVuSans-47" x="376.15625"/>
      <use xlink:href="#DejaVuSans-70" x="453.646484"/>
      <use xlink:href="#DejaVuSans-41" x="517.123047"/>
     </g>
    </g>
   </g>
   <g id="patch_3">
    <path d="M 89.55712 292.029625 
L 247.25088 292.029625 
L 247.25088 285.947157 
L 89.55712 285.947157 
L 89.55712 292.029625 
z
" clip-path="url(#pf08fb4361b)" style="fill: #ecf2ec; stroke: #262626; stroke-width: 1.5; stroke-linejoin: miter"/>
   </g>
   <g id="patch_4">
    <path d="M 250.46912 294.16032 
L 408.16288 294.16032 
L 408.16288 287.629919 
L 250.46912 287.629919 
L 250.46912 294.16032 
z
" clip-path="url(#pf08fb4361b)" style="fill: #107010; stroke: #262626; stroke-width: 1.5; stroke-linejoin: miter"/>
   </g>
   <g id="patch_5">
    <path d="M 248.86 303.64 
L 248.86 303.64 
L 248.86 303.64 
L 248.86 303.64 
z
" clip-path="url(#pf08fb4361b)" style="fill: #ecf2ec; stroke: #262626; stroke-width: 0.75; stroke-linejoin: miter"/>
   </g>
   <g id="patch_6">
    <path d="M 248.86 303.64 
L 248.86 303.64 
L 248.86 303.64 
L 248.86 303.64 
z
" clip-path="url(#pf08fb4361b)" style="fill: #107010; stroke: #262626; stroke-width: 0.75; stroke-linejoin: miter"/>
   </g>
   <g id="PathCollection_1"/>
   <g id="PathCollection_2"/>
   <g id="line2d_3">
    <path d="M 168.404 292.029625 
L 168.404 298.003908 
" clip-path="url(#pf08fb4361b)" style="fill: none; stroke: #262626; stroke-width: 1.5; stroke-linecap: round"/>
   </g>
   <g id="line2d_4">
    <path d="M 168.404 285.947157 
L 168.404 277.480123 
" clip-path="url(#pf08fb4361b)" style="fill: none; stroke: #262626; stroke-width: 1.5; stroke-linecap: round"/>
   </g>
   <g id="line2d_5">
    <path d="M 128.98056 298.003908 
L 207.82744 298.003908 
" clip-path="url(#pf08fb4361b)" style="fill: none; stroke: #262626; stroke-width: 1.5; stroke-linecap: round"/>
   </g>
   <g id="line2d_6">
    <path d="M 128.98056 277.480123 
L 207.82744 277.480123 
" clip-path="url(#pf08fb4361b)" style="fill: none; stroke: #262626; stroke-width: 1.5; stroke-linecap: round"/>
   </g>
   <g id="line2d_7">
    <defs>
     <path id="m1b5b3d97b5" d="M -0 1.414214 
L 0.848528 0 
L 0 -1.414214 
L -0.848528 -0 
z
" style="stroke: #262626; stroke-linejoin: miter"/>
    </defs>
    <g clip-path="url(#pf08fb4361b)">
     <use xlink:href="#m1b5b3d97b5" x="168.404" y="275.037318" style="fill: #262626; stroke: #262626; stroke-linejoin: miter"/>
     <use xlink:href="#m1b5b3d97b5" x="168.404" y="274.328217" style="fill: #262626; stroke: #262626; stroke-linejoin: miter"/>
     <use xlink:href="#m1b5b3d97b5" x="168.404" y="276.084033" style="fill: #262626; stroke: #262626; stroke-linejoin: miter"/>
     <use xlink:href="#m1b5b3d97b5" x="168.404" y="272.103109" style="fill: #262626; stroke: #262626; stroke-linejoin: miter"/>
     <use xlink:href="#m1b5b3d97b5" x="168.404" y="269.292216" style="fill: #262626; stroke: #262626; stroke-linejoin: miter"/>
     <use xlink:href="#m1b5b3d97b5" x="168.404" y="274.549811" style="fill: #262626; stroke: #262626; stroke-linejoin: miter"/>
    </g>
   </g>
   <g id="line2d_8">
    <path d="M 329.316 294.16032 
L 329.316 297.5239 
" clip-path="url(#pf08fb4361b)" style="fill: none; stroke: #262626; stroke-width: 1.5; stroke-linecap: round"/>
   </g>
   <g id="line2d_9">
    <path d="M 329.316 287.629919 
L 329.316 278.180314 
" clip-path="url(#pf08fb4361b)" style="fill: none; stroke: #262626; stroke-width: 1.5; stroke-linecap: round"/>
   </g>
   <g id="line2d_10">
    <path d="M 289.89256 297.5239 
L 368.73944 297.5239 
" clip-path="url(#pf08fb4361b)" style="fill: none; stroke: #262626; stroke-width: 1.5; stroke-linecap: round"/>
   </g>
   <g id="line2d_11">
    <path d="M 289.89256 278.180314 
L 368.73944 278.180314 
" clip-path="url(#pf08fb4361b)" style="fill: none; stroke: #262626; stroke-width: 1.5; stroke-linecap: round"/>
   </g>
   <g id="line2d_12"/>
   <g id="line2d_13">
    <path d="M 89.55712 289.479248 
L 247.25088 289.479248 
" clip-path="url(#pf08fb4361b)" style="fill: none; stroke: #262626; stroke-width: 1.5; stroke-linecap: round"/>
   </g>
   <g id="line2d_14">
    <path d="M 250.46912 292.060031 
L 408.16288 292.060031 
" clip-path="url(#pf08fb4361b)" style="fill: none; stroke: #262626; stroke-width: 1.5; stroke-linecap: round"/>
   </g>
   <g id="patch_7">
    <path d="M 47.72 303.64 
L 47.72 265.857437 
" style="fill: none; stroke: #cccccc; stroke-width: 0.8; stroke-linejoin: miter; stroke-linecap: square"/>
   </g>
   <g id="patch_8">
    <path d="M 450 303.64 
L 450 265.857437 
" style="fill: none; stroke: #cccccc; stroke-width: 0.8; stroke-linejoin: miter; stroke-linecap: square"/>
   </g>
   <g id="patch_9">
    <path d="M 47.72 303.64 
L 450 303.64 
" style="fill: none; stroke: #cccccc; stroke-width: 0.8; stroke-linejoin: miter; stroke-linecap: square"/>
   </g>
   <g id="patch_10">
    <path d="M 47.72 265.857437 
L 450 265.857437 
" style="fill: none; stroke: #cccccc; stroke-width: 0.8; stroke-linejoin: miter; stroke-linecap: square"/>
   </g>
   <g id="PathCollection_3">
    <defs>
     <path id="C0_0_b5ef4df8c7" d="M 0 1 
C 0.265203 1 0.51958 0.894634 0.707107 0.707107 
C 0.894634 0.51958 1 0.265203 1 -0 
C 1 -0.265203 0.894634 -0.51958 0.707107 -0.707107 
C 0.51958 -0.894634 0.265203 -1 0 -1 
C -0.265203 -1 -0.51958 -0.894634 -0.707107 -0.707107 
C -0.894634 -0.51958 -1 -0.265203 -1 0 
C -1 0.265203 -0.894634 0.51958 -0.707107 0.707107 
C -0.51958 0.894634 -0.265203 1 0 1 
z
"/>
    </defs>
    <g clip-path="url(#pf08fb4361b)">
     <use xlink:href="#C0_0_b5ef4df8c7" x="186.219563" y="286.596576" style="fill: #262626"/>
    </g>
    <g clip-path="url(#pf08fb4361b)">
     <use xlink:href="#C0_0_b5ef4df8c7" x="151.395821" y="275.037318" style="fill: #262626"/>
    </g>
    <g clip-path="url(#pf08fb4361b)">
     <use xlink:href="#C0_0_b5ef4df8c7" x="170.912709" y="291.654023" style="fill: #262626"/>
    </g>
    <g clip-path="url(#pf08fb4361b)">
     <use xlink:href="#C0_0_b5ef4df8c7" x="176.317804" y="293.559085" style="fill: #262626"/>
    </g>
    <g clip-path="url(#pf08fb4361b)">
     <use xlink:href="#C0_0_b5ef4df8c7" x="154.044326" y="294.75056" style="fill: #262626"/>
    </g>
    <g clip-path="url(#pf08fb4361b)">
     <use xlink:href="#C0_0_b5ef4df8c7" x="161.115577" y="295.20477" style="fill: #262626"/>
    </g>
    <g clip-path="url(#pf08fb4361b)">
     <use xlink:href="#C0_0_b5ef4df8c7" x="160.410335" y="289.776234" style="fill: #262626"/>
    </g>
    <g clip-path="url(#pf08fb4361b)">
     <use xlink:href="#C0_0_b5ef4df8c7" x="180.969694" y="288.33993" style="fill: #262626"/>
    </g>
    <g clip-path="url(#pf08fb4361b)">
     <use xlink:href="#C0_0_b5ef4df8c7" x="167.245211" y="283.778451" style="fill: #262626"/>
    </g>
    <g clip-path="url(#pf08fb4361b)">
     <use xlink:href="#C0_0_b5ef4df8c7" x="148.743829" y="278.033942" style="fill: #262626"/>
    </g>
    <g clip-path="url(#pf08fb4361b)">
     <use xlink:href="#C0_0_b5ef4df8c7" x="162.426069" y="288.244046" style="fill: #262626"/>
    </g>
    <g clip-path="url(#pf08fb4361b)">
     <use xlink:href="#C0_0_b5ef4df8c7" x="149.85986" y="290.73936" style="fill: #262626"/>
    </g>
    <g clip-path="url(#pf08fb4361b)">
     <use xlink:href="#C0_0_b5ef4df8c7" x="151.127497" y="289.281887" style="fill: #262626"/>
    </g>
    <g clip-path="url(#pf08fb4361b)">
     <use xlink:href="#C0_0_b5ef4df8c7" x="169.636587" y="279.694105" style="fill: #262626"/>
    </g>
    <g clip-path="url(#pf08fb4361b)">
     <use xlink:href="#C0_0_b5ef4df8c7" x="151.769911" y="287.074016" style="fill: #262626"/>
    </g>
    <g clip-path="url(#pf08fb4361b)">
     <use xlink:href="#C0_0_b5ef4df8c7" x="155.570072" y="280.606178" style="fill: #262626"/>
    </g>
    <g clip-path="url(#pf08fb4361b)">
     <use xlink:href="#C0_0_b5ef4df8c7" x="186.130376" y="293.274608" style="fill: #262626"/>
    </g>
    <g clip-path="url(#pf08fb4361b)">
     <use xlink:href="#C0_0_b5ef4df8c7" x="161.401225" y="291.004084" style="fill: #262626"/>
    </g>
    <g clip-path="url(#pf08fb4361b)">
     <use xlink:href="#C0_0_b5ef4df8c7" x="181.013065" y="291.368272" style="fill: #262626"/>
    </g>
    <g clip-path="url(#pf08fb4361b)">
     <use xlink:href="#C0_0_b5ef4df8c7" x="167.79521" y="292.929932" style="fill: #262626"/>
    </g>
    <g clip-path="url(#pf08fb4361b)">
     <use xlink:href="#C0_0_b5ef4df8c7" x="152.385242" y="291.337261" style="fill: #262626"/>
    </g>
    <g clip-path="url(#pf08fb4361b)">
     <use xlink:href="#C0_0_b5ef4df8c7" x="156.093456" y="293.731447" style="fill: #262626"/>
    </g>
    <g clip-path="url(#pf08fb4361b)">
     <use xlink:href="#C0_0_b5ef4df8c7" x="159.669376" y="292.055768" style="fill: #262626"/>
    </g>
    <g clip-path="url(#pf08fb4361b)">
     <use xlink:href="#C0_0_b5ef4df8c7" x="152.299631" y="292.881238" style="fill: #262626"/>
    </g>
    <g clip-path="url(#pf08fb4361b)">
     <use xlink:href="#C0_0_b5ef4df8c7" x="160.73725" y="284.831689" style="fill: #262626"/>
    </g>
    <g clip-path="url(#pf08fb4361b)">
     <use xlink:href="#C0_0_b5ef4df8c7" x="172.543628" y="297.162634" style="fill: #262626"/>
    </g>
    <g clip-path="url(#pf08fb4361b)">
     <use xlink:href="#C0_0_b5ef4df8c7" x="182.691516" y="285.51919" style="fill: #262626"/>
    </g>
    <g clip-path="url(#pf08fb4361b)">
     <use xlink:href="#C0_0_b5ef4df8c7" x="158.029924" y="287.719196" style="fill: #262626"/>
    </g>
    <g clip-path="url(#pf08fb4361b)">
     <use xlink:href="#C0_0_b5ef4df8c7" x="169.022694" y="289.555594" style="fill: #262626"/>
    </g>
    <g clip-path="url(#pf08fb4361b)">
     <use xlink:href="#C0_0_b5ef4df8c7" x="152.283188" y="288.340449" style="fill: #262626"/>
    </g>
    <g clip-path="url(#pf08fb4361b)">
     <use xlink:href="#C0_0_b5ef4df8c7" x="174.355894" y="289.234489" style="fill: #262626"/>
    </g>
    <g clip-path="url(#pf08fb4361b)">
     <use xlink:href="#C0_0_b5ef4df8c7" x="156.26677" y="288.158392" style="fill: #262626"/>
    </g>
    <g clip-path="url(#pf08fb4361b)">
     <use xlink:href="#C0_0_b5ef4df8c7" x="176.19735" y="292.320166" style="fill: #262626"/>
    </g>
    <g clip-path="url(#pf08fb4361b)">
     <use xlink:href="#C0_0_b5ef4df8c7" x="167.915433" y="286.470614" style="fill: #262626"/>
    </g>
    <g clip-path="url(#pf08fb4361b)">
     <use xlink:href="#C0_0_b5ef4df8c7" x="181.243131" y="287.981118" style="fill: #262626"/>
    </g>
    <g clip-path="url(#pf08fb4361b)">
     <use xlink:href="#C0_0_b5ef4df8c7" x="167.910465" y="286.614054" style="fill: #262626"/>
    </g>
    <g clip-path="url(#pf08fb4361b)">
     <use xlink:href="#C0_0_b5ef4df8c7" x="148.970619" y="293.69295" style="fill: #262626"/>
    </g>
    <g clip-path="url(#pf08fb4361b)">
     <use xlink:href="#C0_0_b5ef4df8c7" x="187.615428" y="282.614762" style="fill: #262626"/>
    </g>
    <g clip-path="url(#pf08fb4361b)">
     <use xlink:href="#C0_0_b5ef4df8c7" x="186.334672" y="274.328217" style="fill: #262626"/>
    </g>
    <g clip-path="url(#pf08fb4361b)">
     <use xlink:href="#C0_0_b5ef4df8c7" x="170.554531" y="276.084033" style="fill: #262626"/>
    </g>
    <g clip-path="url(#pf08fb4361b)">
     <use xlink:href="#C0_0_b5ef4df8c7" x="152.68615" y="272.103109" style="fill: #262626"/>
    </g>
    <g clip-path="url(#pf08fb4361b)">
     <use xlink:href="#C0_0_b5ef4df8c7" x="176.770095" y="293.606427" style="fill: #262626"/>
    </g>
    <g clip-path="url(#pf08fb4361b)">
     <use xlink:href="#C0_0_b5ef4df8c7" x="174.054675" y="282.857229" style="fill: #262626"/>
    </g>
    <g clip-path="url(#pf08fb4361b)">
     <use xlink:href="#C0_0_b5ef4df8c7" x="151.160613" y="292.590676" style="fill: #262626"/>
    </g>
    <g clip-path="url(#pf08fb4361b)">
     <use xlink:href="#C0_0_b5ef4df8c7" x="150.914323" y="287.940444" style="fill: #262626"/>
    </g>
    <g clip-path="url(#pf08fb4361b)">
     <use xlink:href="#C0_0_b5ef4df8c7" x="160.895562" y="290.424803" style="fill: #262626"/>
    </g>
    <g clip-path="url(#pf08fb4361b)">
     <use xlink:href="#C0_0_b5ef4df8c7" x="154.904918" y="288.071113" style="fill: #262626"/>
    </g>
    <g clip-path="url(#pf08fb4361b)">
     <use xlink:href="#C0_0_b5ef4df8c7" x="185.274591" y="291.674376" style="fill: #262626"/>
    </g>
    <g clip-path="url(#pf08fb4361b)">
     <use xlink:href="#C0_0_b5ef4df8c7" x="184.596229" y="280.226133" style="fill: #262626"/>
    </g>
    <g clip-path="url(#pf08fb4361b)">
     <use xlink:href="#C0_0_b5ef4df8c7" x="167.882956" y="294.634801" style="fill: #262626"/>
    </g>
    <g clip-path="url(#pf08fb4361b)">
     <use xlink:href="#C0_0_b5ef4df8c7" x="183.620459" y="290.612841" style="fill: #262626"/>
    </g>
    <g clip-path="url(#pf08fb4361b)">
     <use xlink:href="#C0_0_b5ef4df8c7" x="185.667447" y="289.908904" style="fill: #262626"/>
    </g>
    <g clip-path="url(#pf08fb4361b)">
     <use xlink:href="#C0_0_b5ef4df8c7" x="186.452363" y="293.745314" style="fill: #262626"/>
    </g>
    <g clip-path="url(#pf08fb4361b)">
     <use xlink:href="#C0_0_b5ef4df8c7" x="176.178308" y="269.292216" style="fill: #262626"/>
    </g>
    <g clip-path="url(#pf08fb4361b)">
     <use xlink:href="#C0_0_b5ef4df8c7" x="161.036485" y="284.098722" style="fill: #262626"/>
    </g>
    <g clip-path="url(#pf08fb4361b)">
     <use xlink:href="#C0_0_b5ef4df8c7" x="184.012871" y="290.370672" style="fill: #262626"/>
    </g>
    <g clip-path="url(#pf08fb4361b)">
     <use xlink:href="#C0_0_b5ef4df8c7" x="163.326063" y="277.480123" style="fill: #262626"/>
    </g>
    <g clip-path="url(#pf08fb4361b)">
     <use xlink:href="#C0_0_b5ef4df8c7" x="151.881314" y="291.951197" style="fill: #262626"/>
    </g>
    <g clip-path="url(#pf08fb4361b)">
     <use xlink:href="#C0_0_b5ef4df8c7" x="157.819386" y="282.614995" style="fill: #262626"/>
    </g>
    <g clip-path="url(#pf08fb4361b)">
     <use xlink:href="#C0_0_b5ef4df8c7" x="187.916538" y="285.813977" style="fill: #262626"/>
    </g>
    <g clip-path="url(#pf08fb4361b)">
     <use xlink:href="#C0_0_b5ef4df8c7" x="149.771819" y="289.606359" style="fill: #262626"/>
    </g>
    <g clip-path="url(#pf08fb4361b)">
     <use xlink:href="#C0_0_b5ef4df8c7" x="148.981767" y="290.810992" style="fill: #262626"/>
    </g>
    <g clip-path="url(#pf08fb4361b)">
     <use xlink:href="#C0_0_b5ef4df8c7" x="156.702156" y="291.617192" style="fill: #262626"/>
    </g>
    <g clip-path="url(#pf08fb4361b)">
     <use xlink:href="#C0_0_b5ef4df8c7" x="180.256997" y="284.133218" style="fill: #262626"/>
    </g>
    <g clip-path="url(#pf08fb4361b)">
     <use xlink:href="#C0_0_b5ef4df8c7" x="151.97783" y="283.226475" style="fill: #262626"/>
    </g>
    <g clip-path="url(#pf08fb4361b)">
     <use xlink:href="#C0_0_b5ef4df8c7" x="160.059036" y="290.038501" style="fill: #262626"/>
    </g>
    <g clip-path="url(#pf08fb4361b)">
     <use xlink:href="#C0_0_b5ef4df8c7" x="172.657839" y="283.793831" style="fill: #262626"/>
    </g>
    <g clip-path="url(#pf08fb4361b)">
     <use xlink:href="#C0_0_b5ef4df8c7" x="163.853284" y="289.922389" style="fill: #262626"/>
    </g>
    <g clip-path="url(#pf08fb4361b)">
     <use xlink:href="#C0_0_b5ef4df8c7" x="168.097631" y="293.023544" style="fill: #262626"/>
    </g>
    <g clip-path="url(#pf08fb4361b)">
     <use xlink:href="#C0_0_b5ef4df8c7" x="149.865623" y="274.549811" style="fill: #262626"/>
    </g>
    <g clip-path="url(#pf08fb4361b)">
     <use xlink:href="#C0_0_b5ef4df8c7" x="153.677215" y="294.095797" style="fill: #262626"/>
    </g>
    <g clip-path="url(#pf08fb4361b)">
     <use xlink:href="#C0_0_b5ef4df8c7" x="149.959428" y="285.288882" style="fill: #262626"/>
    </g>
    <g clip-path="url(#pf08fb4361b)">
     <use xlink:href="#C0_0_b5ef4df8c7" x="172.724072" y="287.222322" style="fill: #262626"/>
    </g>
    <g clip-path="url(#pf08fb4361b)">
     <use xlink:href="#C0_0_b5ef4df8c7" x="185.06114" y="283.668066" style="fill: #262626"/>
    </g>
    <g clip-path="url(#pf08fb4361b)">
     <use xlink:href="#C0_0_b5ef4df8c7" x="172.652307" y="288.123247" style="fill: #262626"/>
    </g>
    <g clip-path="url(#pf08fb4361b)">
     <use xlink:href="#C0_0_b5ef4df8c7" x="165.032167" y="288.159853" style="fill: #262626"/>
    </g>
    <g clip-path="url(#pf08fb4361b)">
     <use xlink:href="#C0_0_b5ef4df8c7" x="151.063131" y="298.003908" style="fill: #262626"/>
    </g>
    <g clip-path="url(#pf08fb4361b)">
     <use xlink:href="#C0_0_b5ef4df8c7" x="162.684086" y="296.247904" style="fill: #262626"/>
    </g>
    <g clip-path="url(#pf08fb4361b)">
     <use xlink:href="#C0_0_b5ef4df8c7" x="175.579264" y="294.574328" style="fill: #262626"/>
    </g>
    <g clip-path="url(#pf08fb4361b)">
     <use xlink:href="#C0_0_b5ef4df8c7" x="158.778639" y="287.187941" style="fill: #262626"/>
    </g>
    <g clip-path="url(#pf08fb4361b)">
     <use xlink:href="#C0_0_b5ef4df8c7" x="169.303752" y="287.394645" style="fill: #262626"/>
    </g>
    <g clip-path="url(#pf08fb4361b)">
     <use xlink:href="#C0_0_b5ef4df8c7" x="166.417756" y="289.767848" style="fill: #262626"/>
    </g>
    <g clip-path="url(#pf08fb4361b)">
     <use xlink:href="#C0_0_b5ef4df8c7" x="181.161327" y="290.691588" style="fill: #262626"/>
    </g>
    <g clip-path="url(#pf08fb4361b)">
     <use xlink:href="#C0_0_b5ef4df8c7" x="176.453815" y="290.165879" style="fill: #262626"/>
    </g>
    <g clip-path="url(#pf08fb4361b)">
     <use xlink:href="#C0_0_b5ef4df8c7" x="153.791055" y="292.630837" style="fill: #262626"/>
    </g>
    <g clip-path="url(#pf08fb4361b)">
     <use xlink:href="#C0_0_b5ef4df8c7" x="186.202232" y="288.613259" style="fill: #262626"/>
    </g>
    <g clip-path="url(#pf08fb4361b)">
     <use xlink:href="#C0_0_b5ef4df8c7" x="152.685319" y="290.02992" style="fill: #262626"/>
    </g>
    <g clip-path="url(#pf08fb4361b)">
     <use xlink:href="#C0_0_b5ef4df8c7" x="167.315862" y="289.402902" style="fill: #262626"/>
    </g>
    <g clip-path="url(#pf08fb4361b)">
     <use xlink:href="#C0_0_b5ef4df8c7" x="151.027817" y="296.789619" style="fill: #262626"/>
    </g>
    <g clip-path="url(#pf08fb4361b)">
     <use xlink:href="#C0_0_b5ef4df8c7" x="166.166367" y="293.004984" style="fill: #262626"/>
    </g>
    <g clip-path="url(#pf08fb4361b)">
     <use xlink:href="#C0_0_b5ef4df8c7" x="163.532724" y="286.346698" style="fill: #262626"/>
    </g>
    <g clip-path="url(#pf08fb4361b)">
     <use xlink:href="#C0_0_b5ef4df8c7" x="180.288115" y="286.651617" style="fill: #262626"/>
    </g>
    <g clip-path="url(#pf08fb4361b)">
     <use xlink:href="#C0_0_b5ef4df8c7" x="148.387476" y="292.744819" style="fill: #262626"/>
    </g>
    <g clip-path="url(#pf08fb4361b)">
     <use xlink:href="#C0_0_b5ef4df8c7" x="178.984087" y="290.301293" style="fill: #262626"/>
    </g>
   </g>
   <g id="PathCollection_4">
    <defs>
     <path id="C1_0_f215b10047" d="M 0 1 
C 0.265203 1 0.51958 0.894634 0.707107 0.707107 
C 0.894634 0.51958 1 0.265203 1 -0 
C 1 -0.265203 0.894634 -0.51958 0.707107 -0.707107 
C 0.51958 -0.894634 0.265203 -1 0 -1 
C -0.265203 -1 -0.51958 -0.894634 -0.707107 -0.707107 
C -0.894634 -0.51958 -1 -0.265203 -1 0 
C -1 0.265203 -0.894634 0.51958 -0.707107 0.707107 
C -0.51958 0.894634 -0.265203 1 0 1 
z
"/>
    </defs>
    <g clip-path="url(#pf08fb4361b)">
     <use xlink:href="#C1_0_f215b10047" x="328.953241" y="291.821305"/>
    </g>
    <g clip-path="url(#pf08fb4361b)">
     <use xlink:href="#C1_0_f215b10047" x="347.422432" y="286.67484"/>
    </g>
    <g clip-path="url(#pf08fb4361b)">
     <use xlink:href="#C1_0_f215b10047" x="316.814273" y="295.007475"/>
    </g>
    <g clip-path="url(#pf08fb4361b)">
     <use xlink:href="#C1_0_f215b10047" x="316.704248" y="295.550713"/>
    </g>
    <g clip-path="url(#pf08fb4361b)">
     <use xlink:href="#C1_0_f215b10047" x="317.367886" y="292.060593"/>
    </g>
    <g clip-path="url(#pf08fb4361b)">
     <use xlink:href="#C1_0_f215b10047" x="346.354118" y="278.180314"/>
    </g>
    <g clip-path="url(#pf08fb4361b)">
     <use xlink:href="#C1_0_f215b10047" x="314.3294" y="286.161341"/>
    </g>
    <g clip-path="url(#pf08fb4361b)">
     <use xlink:href="#C1_0_f215b10047" x="311.788496" y="287.535785"/>
    </g>
    <g clip-path="url(#pf08fb4361b)">
     <use xlink:href="#C1_0_f215b10047" x="339.555538" y="290.158221"/>
    </g>
    <g clip-path="url(#pf08fb4361b)">
     <use xlink:href="#C1_0_f215b10047" x="331.628218" y="292.060031"/>
    </g>
    <g clip-path="url(#pf08fb4361b)">
     <use xlink:href="#C1_0_f215b10047" x="345.483231" y="288.855606"/>
    </g>
    <g clip-path="url(#pf08fb4361b)">
     <use xlink:href="#C1_0_f215b10047" x="324.998008" y="292.09537"/>
    </g>
    <g clip-path="url(#pf08fb4361b)">
     <use xlink:href="#C1_0_f215b10047" x="318.253461" y="287.724053"/>
    </g>
    <g clip-path="url(#pf08fb4361b)">
     <use xlink:href="#C1_0_f215b10047" x="310.980245" y="290.195944"/>
    </g>
    <g clip-path="url(#pf08fb4361b)">
     <use xlink:href="#C1_0_f215b10047" x="330.991463" y="294.822604"/>
    </g>
    <g clip-path="url(#pf08fb4361b)">
     <use xlink:href="#C1_0_f215b10047" x="317.785663" y="290.020293"/>
    </g>
    <g clip-path="url(#pf08fb4361b)">
     <use xlink:href="#C1_0_f215b10047" x="314.573268" y="293.333421"/>
    </g>
    <g clip-path="url(#pf08fb4361b)">
     <use xlink:href="#C1_0_f215b10047" x="327.17771" y="294.156261"/>
    </g>
    <g clip-path="url(#pf08fb4361b)">
     <use xlink:href="#C1_0_f215b10047" x="315.46494" y="286.833763"/>
    </g>
    <g clip-path="url(#pf08fb4361b)">
     <use xlink:href="#C1_0_f215b10047" x="321.101044" y="293.449617"/>
    </g>
    <g clip-path="url(#pf08fb4361b)">
     <use xlink:href="#C1_0_f215b10047" x="326.283539" y="281.150142"/>
    </g>
    <g clip-path="url(#pf08fb4361b)">
     <use xlink:href="#C1_0_f215b10047" x="344.994995" y="295.542527"/>
    </g>
    <g clip-path="url(#pf08fb4361b)">
     <use xlink:href="#C1_0_f215b10047" x="309.311675" y="292.537343"/>
    </g>
    <g clip-path="url(#pf08fb4361b)">
     <use xlink:href="#C1_0_f215b10047" x="342.748907" y="286.082294"/>
    </g>
    <g clip-path="url(#pf08fb4361b)">
     <use xlink:href="#C1_0_f215b10047" x="342.651899" y="280.421695"/>
    </g>
    <g clip-path="url(#pf08fb4361b)">
     <use xlink:href="#C1_0_f215b10047" x="321.823791" y="290.016328"/>
    </g>
    <g clip-path="url(#pf08fb4361b)">
     <use xlink:href="#C1_0_f215b10047" x="323.340861" y="292.370596"/>
    </g>
    <g clip-path="url(#pf08fb4361b)">
     <use xlink:href="#C1_0_f215b10047" x="338.426167" y="296.702552"/>
    </g>
    <g clip-path="url(#pf08fb4361b)">
     <use xlink:href="#C1_0_f215b10047" x="346.452163" y="294.308455"/>
    </g>
    <g clip-path="url(#pf08fb4361b)">
     <use xlink:href="#C1_0_f215b10047" x="348.889493" y="286.297742"/>
    </g>
    <g clip-path="url(#pf08fb4361b)">
     <use xlink:href="#C1_0_f215b10047" x="345.127045" y="297.5239"/>
    </g>
    <g clip-path="url(#pf08fb4361b)">
     <use xlink:href="#C1_0_f215b10047" x="339.33826" y="294.164378"/>
    </g>
    <g clip-path="url(#pf08fb4361b)">
     <use xlink:href="#C1_0_f215b10047" x="325.494656" y="294.000596"/>
    </g>
    <g clip-path="url(#pf08fb4361b)">
     <use xlink:href="#C1_0_f215b10047" x="309.534582" y="296.681916"/>
    </g>
    <g clip-path="url(#pf08fb4361b)">
     <use xlink:href="#C1_0_f215b10047" x="347.188876" y="288.06116"/>
    </g>
   </g>
   <g id="text_6">
    <!-- 94 -->
    <g style="fill: #262626" transform="translate(188.518 233.694662) scale(0.1 -0.1)">
     <defs>
      <path id="DejaVuSans-39" d="M 703 97 
L 703 672 
Q 941 559 1184 500 
Q 1428 441 1663 441 
Q 2288 441 2617 861 
Q 2947 1281 2994 2138 
Q 2813 1869 2534 1725 
Q 2256 1581 1919 1581 
Q 1219 1581 811 2004 
Q 403 2428 403 3163 
Q 403 3881 828 4315 
Q 1253 4750 1959 4750 
Q 2769 4750 3195 4129 
Q 3622 3509 3622 2328 
Q 3622 1225 3098 567 
Q 2575 -91 1691 -91 
Q 1453 -91 1209 -44 
Q 966 3 703 97 
z
M 1959 2075 
Q 2384 2075 2632 2365 
Q 2881 2656 2881 3163 
Q 2881 3666 2632 3958 
Q 2384 4250 1959 4250 
Q 1534 4250 1286 3958 
Q 1038 3666 1038 3163 
Q 1038 2656 1286 2365 
Q 1534 2075 1959 2075 
z
" transform="scale(0.015625)"/>
      <path id="DejaVuSans-34" d="M 2419 4116 
L 825 1625 
L 2419 1625 
L 2419 4116 
z
M 2253 4666 
L 3047 4666 
L 3047 1625 
L 3713 1625 
L 3713 1100 
L 3047 1100 
L 3047 0 
L 2419 0 
L 2419 1100 
L 313 1100 
L 313 1709 
L 2253 4666 
z
" transform="scale(0.015625)"/>
     </defs>
     <use xlink:href="#DejaVuSans-39"/>
     <use xlink:href="#DejaVuSans-34" x="63.623047"/>
    </g>
   </g>
   <g id="text_7">
    <!-- p=0.024252162315963926 -->
    <g style="fill: #262626" transform="translate(133.0005 267.17266) scale(0.08 -0.08)">
     <defs>
      <path id="DejaVuSans-3d" d="M 678 2906 
L 4684 2906 
L 4684 2381 
L 678 2381 
L 678 2906 
z
M 678 1631 
L 4684 1631 
L 4684 1100 
L 678 1100 
L 678 1631 
z
" transform="scale(0.015625)"/>
      <path id="DejaVuSans-32" d="M 1228 531 
L 3431 531 
L 3431 0 
L 469 0 
L 469 531 
Q 828 903 1448 1529 
Q 2069 2156 2228 2338 
Q 2531 2678 2651 2914 
Q 2772 3150 2772 3378 
Q 2772 3750 2511 3984 
Q 2250 4219 1831 4219 
Q 1534 4219 1204 4116 
Q 875 4013 500 3803 
L 500 4441 
Q 881 4594 1212 4672 
Q 1544 4750 1819 4750 
Q 2544 4750 2975 4387 
Q 3406 4025 3406 3419 
Q 3406 3131 3298 2873 
Q 3191 2616 2906 2266 
Q 2828 2175 2409 1742 
Q 1991 1309 1228 531 
z
" transform="scale(0.015625)"/>
      <path id="DejaVuSans-31" d="M 794 531 
L 1825 531 
L 1825 4091 
L 703 3866 
L 703 4441 
L 1819 4666 
L 2450 4666 
L 2450 531 
L 3481 531 
L 3481 0 
L 794 0 
L 794 531 
z
" transform="scale(0.015625)"/>
      <path id="DejaVuSans-36" d="M 2113 2584 
Q 1688 2584 1439 2293 
Q 1191 2003 1191 1497 
Q 1191 994 1439 701 
Q 1688 409 2113 409 
Q 2538 409 2786 701 
Q 3034 994 3034 1497 
Q 3034 2003 2786 2293 
Q 2538 2584 2113 2584 
z
M 3366 4563 
L 3366 3988 
Q 3128 4100 2886 4159 
Q 2644 4219 2406 4219 
Q 1781 4219 1451 3797 
Q 1122 3375 1075 2522 
Q 1259 2794 1537 2939 
Q 1816 3084 2150 3084 
Q 2853 3084 3261 2657 
Q 3669 2231 3669 1497 
Q 3669 778 3244 343 
Q 2819 -91 2113 -91 
Q 1303 -91 875 529 
Q 447 1150 447 2328 
Q 447 3434 972 4092 
Q 1497 4750 2381 4750 
Q 2619 4750 2861 4703 
Q 3103 4656 3366 4563 
z
" transform="scale(0.015625)"/>
      <path id="DejaVuSans-33" d="M 2597 2516 
Q 3050 2419 3304 2112 
Q 3559 1806 3559 1356 
Q 3559 666 3084 287 
Q 2609 -91 1734 -91 
Q 1441 -91 1130 -33 
Q 819 25 488 141 
L 488 750 
Q 750 597 1062 519 
Q 1375 441 1716 441 
Q 2309 441 2620 675 
Q 2931 909 2931 1356 
Q 2931 1769 2642 2001 
Q 2353 2234 1838 2234 
L 1294 2234 
L 1294 2753 
L 1863 2753 
Q 2328 2753 2575 2939 
Q 2822 3125 2822 3475 
Q 2822 3834 2567 4026 
Q 2313 4219 1838 4219 
Q 1578 4219 1281 4162 
Q 984 4106 628 3988 
L 628 4550 
Q 988 4650 1302 4700 
Q 1616 4750 1894 4750 
Q 2613 4750 3031 4423 
Q 3450 4097 3450 3541 
Q 3450 3153 3228 2886 
Q 3006 2619 2597 2516 
z
" transform="scale(0.015625)"/>
     </defs>
     <use xlink:href="#DejaVuSans-70"/>
     <use xlink:href="#DejaVuSans-3d" x="63.476562"/>
     <use xlink:href="#DejaVuSans-30" x="147.265625"/>
     <use xlink:href="#DejaVuSans-2e" x="210.888672"/>
     <use xlink:href="#DejaVuSans-30" x="242.675781"/>
     <use xlink:href="#DejaVuSans-32" x="306.298828"/>
     <use xlink:href="#DejaVuSans-34" x="369.921875"/>
     <use xlink:href="#DejaVuSans-32" x="433.544922"/>
     <use xlink:href="#DejaVuSans-35" x="497.167969"/>
     <use xlink:href="#DejaVuSans-32" x="560.791016"/>
     <use xlink:href="#DejaVuSans-31" x="624.414062"/>
     <use xlink:href="#DejaVuSans-36" x="688.037109"/>
     <use xlink:href="#DejaVuSans-32" x="751.660156"/>
     <use xlink:href="#DejaVuSans-33" x="815.283203"/>
     <use xlink:href="#DejaVuSans-31" x="878.90625"/>
     <use xlink:href="#DejaVuSans-35" x="942.529297"/>
     <use xlink:href="#DejaVuSans-39" x="1006.152344"/>
     <use xlink:href="#DejaVuSans-36" x="1069.775391"/>
     <use xlink:href="#DejaVuSans-33" x="1133.398438"/>
     <use xlink:href="#DejaVuSans-39" x="1197.021484"/>
     <use xlink:href="#DejaVuSans-32" x="1260.644531"/>
     <use xlink:href="#DejaVuSans-36" x="1324.267578"/>
    </g>
   </g>
   <g id="text_8">
    <!-- 35 -->
    <g style="fill: #262626" transform="translate(309.202 233.694662) scale(0.1 -0.1)">
     <use xlink:href="#DejaVuSans-33"/>
     <use xlink:href="#DejaVuSans-35" x="63.623047"/>
    </g>
   </g>
   <g id="legend_1">
    <g id="patch_11">
     <path d="M 377.728125 282.455875 
L 397.728125 282.455875 
L 397.728125 275.455875 
L 377.728125 275.455875 
z
" style="fill: #ecf2ec; stroke: #262626; stroke-width: 0.75; stroke-linejoin: miter"/>
    </g>
    <g id="text_9">
     <!-- Mutant -->
     <g style="fill: #262626" transform="translate(405.728125 282.455875) scale(0.1 -0.1)">
      <defs>
       <path id="DejaVuSans-4d" d="M 628 4666 
L 1569 4666 
L 2759 1491 
L 3956 4666 
L 4897 4666 
L 4897 0 
L 4281 0 
L 4281 4097 
L 3078 897 
L 2444 897 
L 1241 4097 
L 1241 0 
L 628 0 
L 628 4666 
z
" transform="scale(0.015625)"/>
       <path id="DejaVuSans-61" d="M 2194 1759 
Q 1497 1759 1228 1600 
Q 959 1441 959 1056 
Q 959 750 1161 570 
Q 1363 391 1709 391 
Q 2188 391 2477 730 
Q 2766 1069 2766 1631 
L 2766 1759 
L 2194 1759 
z
M 3341 1997 
L 3341 0 
L 2766 0 
L 2766 531 
Q 2569 213 2275 61 
Q 1981 -91 1556 -91 
Q 1019 -91 701 211 
Q 384 513 384 1019 
Q 384 1609 779 1909 
Q 1175 2209 1959 2209 
L 2766 2209 
L 2766 2266 
Q 2766 2663 2505 2880 
Q 2244 3097 1772 3097 
Q 1472 3097 1187 3025 
Q 903 2953 641 2809 
L 641 3341 
Q 956 3463 1253 3523 
Q 1550 3584 1831 3584 
Q 2591 3584 2966 3190 
Q 3341 2797 3341 1997 
z
" transform="scale(0.015625)"/>
      </defs>
      <use xlink:href="#DejaVuSans-4d"/>
      <use xlink:href="#DejaVuSans-75" x="86.279297"/>
      <use xlink:href="#DejaVuSans-74" x="149.658203"/>
      <use xlink:href="#DejaVuSans-61" x="188.867188"/>
      <use xlink:href="#DejaVuSans-6e" x="250.146484"/>
      <use xlink:href="#DejaVuSans-74" x="313.525391"/>
     </g>
    </g>
    <g id="patch_12">
     <path d="M 377.728125 297.134 
L 397.728125 297.134 
L 397.728125 290.134 
L 377.728125 290.134 
z
" style="fill: #107010; stroke: #262626; stroke-width: 0.75; stroke-linejoin: miter"/>
    </g>
    <g id="text_10">
     <!-- WT -->
     <g style="fill: #262626" transform="translate(405.728125 297.134) scale(0.1 -0.1)">
      <defs>
       <path id="DejaVuSans-57" d="M 213 4666 
L 850 4666 
L 1831 722 
L 2809 4666 
L 3519 4666 
L 4500 722 
L 5478 4666 
L 6119 4666 
L 4947 0 
L 4153 0 
L 3169 4050 
L 2175 0 
L 1381 0 
L 213 4666 
z
" transform="scale(0.015625)"/>
       <path id="DejaVuSans-54" d="M -19 4666 
L 3928 4666 
L 3928 4134 
L 2272 4134 
L 2272 0 
L 1638 0 
L 1638 4134 
L -19 4134 
L -19 4666 
z
" transform="scale(0.015625)"/>
      </defs>
      <use xlink:href="#DejaVuSans-57"/>
      <use xlink:href="#DejaVuSans-54" x="98.876953"/>
     </g>
    </g>
   </g>
  </g>
 </g>
 <defs>
  <clipPath id="pf08fb4361b">
   <rect x="47.72" y="265.857437" width="402.28" height="37.782563"/>
  </clipPath>
 </defs>
</svg>
