<?xml version="1.0" encoding="utf-8" standalone="no"?>
<!DOCTYPE svg PUBLIC "-//W3C//DTD SVG 1.1//EN"
  "http://www.w3.org/Graphics/SVG/1.1/DTD/svg11.dtd">
<svg xmlns:xlink="http://www.w3.org/1999/xlink" width="460.8pt" height="345.6pt" viewBox="0 0 460.8 345.6" xmlns="http://www.w3.org/2000/svg" version="1.1">
 <metadata>
  <rdf:RDF xmlns:dc="http://purl.org/dc/elements/1.1/" xmlns:cc="http://creativecommons.org/ns#" xmlns:rdf="http://www.w3.org/1999/02/22-rdf-syntax-ns#">
   <cc:Work>
    <dc:type rdf:resource="http://purl.org/dc/dcmitype/StillImage"/>
    <dc:date>2024-02-20T13:12:51.544800</dc:date>
    <dc:format>image/svg+xml</dc:format>
    <dc:creator>
     <cc:Agent>
      <dc:title>Matplotlib v3.7.1, https://matplotlib.org/</dc:title>
     </cc:Agent>
    </dc:creator>
   </cc:Work>
  </rdf:RDF>
 </metadata>
 <defs>
  <style type="text/css">*{stroke-linejoin: round; stroke-linecap: butt}</style>
 </defs>
 <g id="figure_1">
  <g id="patch_1">
   <path d="M 0 345.6 
L 460.8 345.6 
L 460.8 0 
L 0 0 
z
" style="fill: #ffffff"/>
  </g>
  <g id="axes_1">
   <g id="patch_2">
    <path d="M 65.45 303.64 
L 450 303.64 
L 450 16.561286 
L 65.45 16.561286 
z
" style="fill: #ffffff"/>
   </g>
   <g id="matplotlib.axis_1">
    <g id="xtick_1">
     <g id="text_1">
      <!-- R -->
      <g style="fill: #262626" transform="translate(254.250781 318.238437) scale(0.1 -0.1)">
       <defs>
        <path id="DejaVuSans-52" d="M 2841 2188 
Q 3044 2119 3236 1894 
Q 3428 1669 3622 1275 
L 4263 0 
L 3584 0 
L 2988 1197 
Q 2756 1666 2539 1819 
Q 2322 1972 1947 1972 
L 1259 1972 
L 1259 0 
L 628 0 
L 628 4666 
L 2053 4666 
Q 2853 4666 3247 4331 
Q 3641 3997 3641 3322 
Q 3641 2881 3436 2590 
Q 3231 2300 2841 2188 
z
M 1259 4147 
L 1259 2491 
L 2053 2491 
Q 2509 2491 2742 2702 
Q 2975 2913 2975 3322 
Q 2975 3731 2742 3939 
Q 2509 4147 2053 4147 
L 1259 4147 
z
" transform="scale(0.015625)"/>
       </defs>
       <use xlink:href="#DejaVuSans-52"/>
      </g>
     </g>
    </g>
    <g id="text_2">
     <!-- Sample -->
     <g style="fill: #262626" transform="translate(238.976563 331.916562) scale(0.1 -0.1)">
      <defs>
       <path id="DejaVuSans-53" d="M 3425 4513 
L 3425 3897 
Q 3066 4069 2747 4153 
Q 2428 4238 2131 4238 
Q 1616 4238 1336 4038 
Q 1056 3838 1056 3469 
Q 1056 3159 1242 3001 
Q 1428 2844 1947 2747 
L 2328 2669 
Q 3034 2534 3370 2195 
Q 3706 1856 3706 1288 
Q 3706 609 3251 259 
Q 2797 -91 1919 -91 
Q 1588 -91 1214 -16 
Q 841 59 441 206 
L 441 856 
Q 825 641 1194 531 
Q 1563 422 1919 422 
Q 2459 422 2753 634 
Q 3047 847 3047 1241 
Q 3047 1584 2836 1778 
Q 2625 1972 2144 2069 
L 1759 2144 
Q 1053 2284 737 2584 
Q 422 2884 422 3419 
Q 422 4038 858 4394 
Q 1294 4750 2059 4750 
Q 2388 4750 2728 4690 
Q 3069 4631 3425 4513 
z
" transform="scale(0.015625)"/>
       <path id="DejaVuSans-61" d="M 2194 1759 
Q 1497 1759 1228 1600 
Q 959 1441 959 1056 
Q 959 750 1161 570 
Q 1363 391 1709 391 
Q 2188 391 2477 730 
Q 2766 1069 2766 1631 
L 2766 1759 
L 2194 1759 
z
M 3341 1997 
L 3341 0 
L 2766 0 
L 2766 531 
Q 2569 213 2275 61 
Q 1981 -91 1556 -91 
Q 1019 -91 701 211 
Q 384 513 384 1019 
Q 384 1609 779 1909 
Q 1175 2209 1959 2209 
L 2766 2209 
L 2766 2266 
Q 2766 2663 2505 2880 
Q 2244 3097 1772 3097 
Q 1472 3097 1187 3025 
Q 903 2953 641 2809 
L 641 3341 
Q 956 3463 1253 3523 
Q 1550 3584 1831 3584 
Q 2591 3584 2966 3190 
Q 3341 2797 3341 1997 
z
" transform="scale(0.015625)"/>
       <path id="DejaVuSans-6d" d="M 3328 2828 
Q 3544 3216 3844 3400 
Q 4144 3584 4550 3584 
Q 5097 3584 5394 3201 
Q 5691 2819 5691 2113 
L 5691 0 
L 5113 0 
L 5113 2094 
Q 5113 2597 4934 2840 
Q 4756 3084 4391 3084 
Q 3944 3084 3684 2787 
Q 3425 2491 3425 1978 
L 3425 0 
L 2847 0 
L 2847 2094 
Q 2847 2600 2669 2842 
Q 2491 3084 2119 3084 
Q 1678 3084 1418 2786 
Q 1159 2488 1159 1978 
L 1159 0 
L 581 0 
L 581 3500 
L 1159 3500 
L 1159 2956 
Q 1356 3278 1631 3431 
Q 1906 3584 2284 3584 
Q 2666 3584 2933 3390 
Q 3200 3197 3328 2828 
z
" transform="scale(0.015625)"/>
       <path id="DejaVuSans-70" d="M 1159 525 
L 1159 -1331 
L 581 -1331 
L 581 3500 
L 1159 3500 
L 1159 2969 
Q 1341 3281 1617 3432 
Q 1894 3584 2278 3584 
Q 2916 3584 3314 3078 
Q 3713 2572 3713 1747 
Q 3713 922 3314 415 
Q 2916 -91 2278 -91 
Q 1894 -91 1617 61 
Q 1341 213 1159 525 
z
M 3116 1747 
Q 3116 2381 2855 2742 
Q 2594 3103 2138 3103 
Q 1681 3103 1420 2742 
Q 1159 2381 1159 1747 
Q 1159 1113 1420 752 
Q 1681 391 2138 391 
Q 2594 391 2855 752 
Q 3116 1113 3116 1747 
z
" transform="scale(0.015625)"/>
       <path id="DejaVuSans-6c" d="M 603 4863 
L 1178 4863 
L 1178 0 
L 603 0 
L 603 4863 
z
" transform="scale(0.015625)"/>
       <path id="DejaVuSans-65" d="M 3597 1894 
L 3597 1613 
L 953 1613 
Q 991 1019 1311 708 
Q 1631 397 2203 397 
Q 2534 397 2845 478 
Q 3156 559 3463 722 
L 3463 178 
Q 3153 47 2828 -22 
Q 2503 -91 2169 -91 
Q 1331 -91 842 396 
Q 353 884 353 1716 
Q 353 2575 817 3079 
Q 1281 3584 2069 3584 
Q 2775 3584 3186 3129 
Q 3597 2675 3597 1894 
z
M 3022 2063 
Q 3016 2534 2758 2815 
Q 2500 3097 2075 3097 
Q 1594 3097 1305 2825 
Q 1016 2553 972 2059 
L 3022 2063 
z
" transform="scale(0.015625)"/>
      </defs>
      <use xlink:href="#DejaVuSans-53"/>
      <use xlink:href="#DejaVuSans-61" x="63.476562"/>
      <use xlink:href="#DejaVuSans-6d" x="124.755859"/>
      <use xlink:href="#DejaVuSans-70" x="222.167969"/>
      <use xlink:href="#DejaVuSans-6c" x="285.644531"/>
      <use xlink:href="#DejaVuSans-65" x="313.427734"/>
     </g>
    </g>
   </g>
   <g id="matplotlib.axis_2">
    <g id="ytick_1">
     <g id="line2d_1">
      <path d="M 65.45 253.483258 
L 450 253.483258 
" clip-path="url(#p540cee751e)" style="fill: none; stroke: #cccccc; stroke-width: 0.8; stroke-linecap: round"/>
     </g>
     <g id="text_3">
      <!-- −4000 -->
      <g style="fill: #262626" transform="translate(24.620313 257.282477) scale(0.1 -0.1)">
       <defs>
        <path id="DejaVuSans-2212" d="M 678 2272 
L 4684 2272 
L 4684 1741 
L 678 1741 
L 678 2272 
z
" transform="scale(0.015625)"/>
        <path id="DejaVuSans-34" d="M 2419 4116 
L 825 1625 
L 2419 1625 
L 2419 4116 
z
M 2253 4666 
L 3047 4666 
L 3047 1625 
L 3713 1625 
L 3713 1100 
L 3047 1100 
L 3047 0 
L 2419 0 
L 2419 1100 
L 313 1100 
L 313 1709 
L 2253 4666 
z
" transform="scale(0.015625)"/>
        <path id="DejaVuSans-30" d="M 2034 4250 
Q 1547 4250 1301 3770 
Q 1056 3291 1056 2328 
Q 1056 1369 1301 889 
Q 1547 409 2034 409 
Q 2525 409 2770 889 
Q 3016 1369 3016 2328 
Q 3016 3291 2770 3770 
Q 2525 4250 2034 4250 
z
M 2034 4750 
Q 2819 4750 3233 4129 
Q 3647 3509 3647 2328 
Q 3647 1150 3233 529 
Q 2819 -91 2034 -91 
Q 1250 -91 836 529 
Q 422 1150 422 2328 
Q 422 3509 836 4129 
Q 1250 4750 2034 4750 
z
" transform="scale(0.015625)"/>
       </defs>
       <use xlink:href="#DejaVuSans-2212"/>
       <use xlink:href="#DejaVuSans-34" x="83.789062"/>
       <use xlink:href="#DejaVuSans-30" x="147.412109"/>
       <use xlink:href="#DejaVuSans-30" x="211.035156"/>
       <use xlink:href="#DejaVuSans-30" x="274.658203"/>
      </g>
     </g>
    </g>
    <g id="ytick_2">
     <g id="line2d_2">
      <path d="M 65.45 202.054162 
L 450 202.054162 
" clip-path="url(#p540cee751e)" style="fill: none; stroke: #cccccc; stroke-width: 0.8; stroke-linecap: round"/>
     </g>
     <g id="text_4">
      <!-- −2000 -->
      <g style="fill: #262626" transform="translate(24.620313 205.853381) scale(0.1 -0.1)">
       <defs>
        <path id="DejaVuSans-32" d="M 1228 531 
L 3431 531 
L 3431 0 
L 469 0 
L 469 531 
Q 828 903 1448 1529 
Q 2069 2156 2228 2338 
Q 2531 2678 2651 2914 
Q 2772 3150 2772 3378 
Q 2772 3750 2511 3984 
Q 2250 4219 1831 4219 
Q 1534 4219 1204 4116 
Q 875 4013 500 3803 
L 500 4441 
Q 881 4594 1212 4672 
Q 1544 4750 1819 4750 
Q 2544 4750 2975 4387 
Q 3406 4025 3406 3419 
Q 3406 3131 3298 2873 
Q 3191 2616 2906 2266 
Q 2828 2175 2409 1742 
Q 1991 1309 1228 531 
z
" transform="scale(0.015625)"/>
       </defs>
       <use xlink:href="#DejaVuSans-2212"/>
       <use xlink:href="#DejaVuSans-32" x="83.789062"/>
       <use xlink:href="#DejaVuSans-30" x="147.412109"/>
       <use xlink:href="#DejaVuSans-30" x="211.035156"/>
       <use xlink:href="#DejaVuSans-30" x="274.658203"/>
      </g>
     </g>
    </g>
    <g id="ytick_3">
     <g id="line2d_3">
      <path d="M 65.45 150.625067 
L 450 150.625067 
" clip-path="url(#p540cee751e)" style="fill: none; stroke: #cccccc; stroke-width: 0.8; stroke-linecap: round"/>
     </g>
     <g id="text_5">
      <!-- 0 -->
      <g style="fill: #262626" transform="translate(52.0875 154.424286) scale(0.1 -0.1)">
       <use xlink:href="#DejaVuSans-30"/>
      </g>
     </g>
    </g>
    <g id="ytick_4">
     <g id="line2d_4">
      <path d="M 65.45 99.195971 
L 450 99.195971 
" clip-path="url(#p540cee751e)" style="fill: none; stroke: #cccccc; stroke-width: 0.8; stroke-linecap: round"/>
     </g>
     <g id="text_6">
      <!-- 2000 -->
      <g style="fill: #262626" transform="translate(33 102.99519) scale(0.1 -0.1)">
       <use xlink:href="#DejaVuSans-32"/>
       <use xlink:href="#DejaVuSans-30" x="63.623047"/>
       <use xlink:href="#DejaVuSans-30" x="127.246094"/>
       <use xlink:href="#DejaVuSans-30" x="190.869141"/>
      </g>
     </g>
    </g>
    <g id="ytick_5">
     <g id="line2d_5">
      <path d="M 65.45 47.766876 
L 450 47.766876 
" clip-path="url(#p540cee751e)" style="fill: none; stroke: #cccccc; stroke-width: 0.8; stroke-linecap: round"/>
     </g>
     <g id="text_7">
      <!-- 4000 -->
      <g style="fill: #262626" transform="translate(33 51.566095) scale(0.1 -0.1)">
       <use xlink:href="#DejaVuSans-34"/>
       <use xlink:href="#DejaVuSans-30" x="63.623047"/>
       <use xlink:href="#DejaVuSans-30" x="127.246094"/>
       <use xlink:href="#DejaVuSans-30" x="190.869141"/>
      </g>
     </g>
    </g>
    <g id="text_8">
     <!-- Delta Fluorescence -->
     <g style="fill: #262626" transform="translate(18.540625 207.967049) rotate(-90) scale(0.1 -0.1)">
      <defs>
       <path id="DejaVuSans-44" d="M 1259 4147 
L 1259 519 
L 2022 519 
Q 2988 519 3436 956 
Q 3884 1394 3884 2338 
Q 3884 3275 3436 3711 
Q 2988 4147 2022 4147 
L 1259 4147 
z
M 628 4666 
L 1925 4666 
Q 3281 4666 3915 4102 
Q 4550 3538 4550 2338 
Q 4550 1131 3912 565 
Q 3275 0 1925 0 
L 628 0 
L 628 4666 
z
" transform="scale(0.015625)"/>
       <path id="DejaVuSans-74" d="M 1172 4494 
L 1172 3500 
L 2356 3500 
L 2356 3053 
L 1172 3053 
L 1172 1153 
Q 1172 725 1289 603 
Q 1406 481 1766 481 
L 2356 481 
L 2356 0 
L 1766 0 
Q 1100 0 847 248 
Q 594 497 594 1153 
L 594 3053 
L 172 3053 
L 172 3500 
L 594 3500 
L 594 4494 
L 1172 4494 
z
" transform="scale(0.015625)"/>
       <path id="DejaVuSans-20" transform="scale(0.015625)"/>
       <path id="DejaVuSans-46" d="M 628 4666 
L 3309 4666 
L 3309 4134 
L 1259 4134 
L 1259 2759 
L 3109 2759 
L 3109 2228 
L 1259 2228 
L 1259 0 
L 628 0 
L 628 4666 
z
" transform="scale(0.015625)"/>
       <path id="DejaVuSans-75" d="M 544 1381 
L 544 3500 
L 1119 3500 
L 1119 1403 
Q 1119 906 1312 657 
Q 1506 409 1894 409 
Q 2359 409 2629 706 
Q 2900 1003 2900 1516 
L 2900 3500 
L 3475 3500 
L 3475 0 
L 2900 0 
L 2900 538 
Q 2691 219 2414 64 
Q 2138 -91 1772 -91 
Q 1169 -91 856 284 
Q 544 659 544 1381 
z
M 1991 3584 
L 1991 3584 
z
" transform="scale(0.015625)"/>
       <path id="DejaVuSans-6f" d="M 1959 3097 
Q 1497 3097 1228 2736 
Q 959 2375 959 1747 
Q 959 1119 1226 758 
Q 1494 397 1959 397 
Q 2419 397 2687 759 
Q 2956 1122 2956 1747 
Q 2956 2369 2687 2733 
Q 2419 3097 1959 3097 
z
M 1959 3584 
Q 2709 3584 3137 3096 
Q 3566 2609 3566 1747 
Q 3566 888 3137 398 
Q 2709 -91 1959 -91 
Q 1206 -91 779 398 
Q 353 888 353 1747 
Q 353 2609 779 3096 
Q 1206 3584 1959 3584 
z
" transform="scale(0.015625)"/>
       <path id="DejaVuSans-72" d="M 2631 2963 
Q 2534 3019 2420 3045 
Q 2306 3072 2169 3072 
Q 1681 3072 1420 2755 
Q 1159 2438 1159 1844 
L 1159 0 
L 581 0 
L 581 3500 
L 1159 3500 
L 1159 2956 
Q 1341 3275 1631 3429 
Q 1922 3584 2338 3584 
Q 2397 3584 2469 3576 
Q 2541 3569 2628 3553 
L 2631 2963 
z
" transform="scale(0.015625)"/>
       <path id="DejaVuSans-73" d="M 2834 3397 
L 2834 2853 
Q 2591 2978 2328 3040 
Q 2066 3103 1784 3103 
Q 1356 3103 1142 2972 
Q 928 2841 928 2578 
Q 928 2378 1081 2264 
Q 1234 2150 1697 2047 
L 1894 2003 
Q 2506 1872 2764 1633 
Q 3022 1394 3022 966 
Q 3022 478 2636 193 
Q 2250 -91 1575 -91 
Q 1294 -91 989 -36 
Q 684 19 347 128 
L 347 722 
Q 666 556 975 473 
Q 1284 391 1588 391 
Q 1994 391 2212 530 
Q 2431 669 2431 922 
Q 2431 1156 2273 1281 
Q 2116 1406 1581 1522 
L 1381 1569 
Q 847 1681 609 1914 
Q 372 2147 372 2553 
Q 372 3047 722 3315 
Q 1072 3584 1716 3584 
Q 2034 3584 2315 3537 
Q 2597 3491 2834 3397 
z
" transform="scale(0.015625)"/>
       <path id="DejaVuSans-63" d="M 3122 3366 
L 3122 2828 
Q 2878 2963 2633 3030 
Q 2388 3097 2138 3097 
Q 1578 3097 1268 2742 
Q 959 2388 959 1747 
Q 959 1106 1268 751 
Q 1578 397 2138 397 
Q 2388 397 2633 464 
Q 2878 531 3122 666 
L 3122 134 
Q 2881 22 2623 -34 
Q 2366 -91 2075 -91 
Q 1284 -91 818 406 
Q 353 903 353 1747 
Q 353 2603 823 3093 
Q 1294 3584 2113 3584 
Q 2378 3584 2631 3529 
Q 2884 3475 3122 3366 
z
" transform="scale(0.015625)"/>
       <path id="DejaVuSans-6e" d="M 3513 2113 
L 3513 0 
L 2938 0 
L 2938 2094 
Q 2938 2591 2744 2837 
Q 2550 3084 2163 3084 
Q 1697 3084 1428 2787 
Q 1159 2491 1159 1978 
L 1159 0 
L 581 0 
L 581 3500 
L 1159 3500 
L 1159 2956 
Q 1366 3272 1645 3428 
Q 1925 3584 2291 3584 
Q 2894 3584 3203 3211 
Q 3513 2838 3513 2113 
z
" transform="scale(0.015625)"/>
      </defs>
      <use xlink:href="#DejaVuSans-44"/>
      <use xlink:href="#DejaVuSans-65" x="77.001953"/>
      <use xlink:href="#DejaVuSans-6c" x="138.525391"/>
      <use xlink:href="#DejaVuSans-74" x="166.308594"/>
      <use xlink:href="#DejaVuSans-61" x="205.517578"/>
      <use xlink:href="#DejaVuSans-20" x="266.796875"/>
      <use xlink:href="#DejaVuSans-46" x="298.583984"/>
      <use xlink:href="#DejaVuSans-6c" x="356.103516"/>
      <use xlink:href="#DejaVuSans-75" x="383.886719"/>
      <use xlink:href="#DejaVuSans-6f" x="447.265625"/>
      <use xlink:href="#DejaVuSans-72" x="508.447266"/>
      <use xlink:href="#DejaVuSans-65" x="547.310547"/>
      <use xlink:href="#DejaVuSans-73" x="608.833984"/>
      <use xlink:href="#DejaVuSans-63" x="660.933594"/>
      <use xlink:href="#DejaVuSans-65" x="715.914062"/>
      <use xlink:href="#DejaVuSans-6e" x="777.4375"/>
      <use xlink:href="#DejaVuSans-63" x="840.816406"/>
      <use xlink:href="#DejaVuSans-65" x="895.796875"/>
     </g>
    </g>
   </g>
   <g id="patch_3">
    <path d="M 105.4432 186.705808 
L 256.1868 186.705808 
L 256.1868 150.803413 
L 105.4432 150.803413 
L 105.4432 186.705808 
z
" clip-path="url(#p540cee751e)" style="fill: #ecf2ec; stroke: #262626; stroke-width: 1.5; stroke-linejoin: miter"/>
   </g>
   <g id="patch_4">
    <path d="M 259.2632 129.74936 
L 410.0068 129.74936 
L 410.0068 90.490239 
L 259.2632 90.490239 
L 259.2632 129.74936 
z
" clip-path="url(#p540cee751e)" style="fill: #107010; stroke: #262626; stroke-width: 1.5; stroke-linejoin: miter"/>
   </g>
   <g id="patch_5">
    <path d="M 257.725 150.625067 
L 257.725 150.625067 
L 257.725 150.625067 
L 257.725 150.625067 
z
" clip-path="url(#p540cee751e)" style="fill: #ecf2ec; stroke: #262626; stroke-width: 0.75; stroke-linejoin: miter"/>
   </g>
   <g id="patch_6">
    <path d="M 257.725 150.625067 
L 257.725 150.625067 
L 257.725 150.625067 
L 257.725 150.625067 
z
" clip-path="url(#p540cee751e)" style="fill: #107010; stroke: #262626; stroke-width: 0.75; stroke-linejoin: miter"/>
   </g>
   <g id="PathCollection_1"/>
   <g id="PathCollection_2"/>
   <g id="line2d_6">
    <path d="M 180.815 186.705808 
L 180.815 239.807586 
" clip-path="url(#p540cee751e)" style="fill: none; stroke: #262626; stroke-width: 1.5; stroke-linecap: round"/>
   </g>
   <g id="line2d_7">
    <path d="M 180.815 150.803413 
L 180.815 107.297366 
" clip-path="url(#p540cee751e)" style="fill: none; stroke: #262626; stroke-width: 1.5; stroke-linecap: round"/>
   </g>
   <g id="line2d_8">
    <path d="M 143.1291 239.807586 
L 218.5009 239.807586 
" clip-path="url(#p540cee751e)" style="fill: none; stroke: #262626; stroke-width: 1.5; stroke-linecap: round"/>
   </g>
   <g id="line2d_9">
    <path d="M 143.1291 107.297366 
L 218.5009 107.297366 
" clip-path="url(#p540cee751e)" style="fill: none; stroke: #262626; stroke-width: 1.5; stroke-linecap: round"/>
   </g>
   <g id="line2d_10">
    <defs>
     <path id="m0561543549" d="M -0 1.414214 
L 0.848528 0 
L 0 -1.414214 
L -0.848528 -0 
z
" style="stroke: #262626; stroke-linejoin: miter"/>
    </defs>
    <g clip-path="url(#p540cee751e)">
     <use xlink:href="#m0561543549" x="180.815" y="240.623526" style="fill: #262626; stroke: #262626; stroke-linejoin: miter"/>
     <use xlink:href="#m0561543549" x="180.815" y="261.402627" style="fill: #262626; stroke: #262626; stroke-linejoin: miter"/>
     <use xlink:href="#m0561543549" x="180.815" y="303.64" style="fill: #262626; stroke: #262626; stroke-linejoin: miter"/>
     <use xlink:href="#m0561543549" x="180.815" y="245.420904" style="fill: #262626; stroke: #262626; stroke-linejoin: miter"/>
     <use xlink:href="#m0561543549" x="180.815" y="92.608763" style="fill: #262626; stroke: #262626; stroke-linejoin: miter"/>
     <use xlink:href="#m0561543549" x="180.815" y="90.66312" style="fill: #262626; stroke: #262626; stroke-linejoin: miter"/>
     <use xlink:href="#m0561543549" x="180.815" y="92.681557" style="fill: #262626; stroke: #262626; stroke-linejoin: miter"/>
    </g>
   </g>
   <g id="line2d_11">
    <path d="M 334.635 129.74936 
L 334.635 173.987369 
" clip-path="url(#p540cee751e)" style="fill: none; stroke: #262626; stroke-width: 1.5; stroke-linecap: round"/>
   </g>
   <g id="line2d_12">
    <path d="M 334.635 90.490239 
L 334.635 31.767573 
" clip-path="url(#p540cee751e)" style="fill: none; stroke: #262626; stroke-width: 1.5; stroke-linecap: round"/>
   </g>
   <g id="line2d_13">
    <path d="M 296.9491 173.987369 
L 372.3209 173.987369 
" clip-path="url(#p540cee751e)" style="fill: none; stroke: #262626; stroke-width: 1.5; stroke-linecap: round"/>
   </g>
   <g id="line2d_14">
    <path d="M 296.9491 31.767573 
L 372.3209 31.767573 
" clip-path="url(#p540cee751e)" style="fill: none; stroke: #262626; stroke-width: 1.5; stroke-linecap: round"/>
   </g>
   <g id="line2d_15">
    <g clip-path="url(#p540cee751e)">
     <use xlink:href="#m0561543549" x="334.635" y="16.561286" style="fill: #262626; stroke: #262626; stroke-linejoin: miter"/>
     <use xlink:href="#m0561543549" x="334.635" y="26.092808" style="fill: #262626; stroke: #262626; stroke-linejoin: miter"/>
    </g>
   </g>
   <g id="line2d_16">
    <path d="M 105.4432 169.538279 
L 256.1868 169.538279 
" clip-path="url(#p540cee751e)" style="fill: none; stroke: #262626; stroke-width: 1.5; stroke-linecap: round"/>
   </g>
   <g id="line2d_17">
    <path d="M 259.2632 113.009198 
L 410.0068 113.009198 
" clip-path="url(#p540cee751e)" style="fill: none; stroke: #262626; stroke-width: 1.5; stroke-linecap: round"/>
   </g>
   <g id="patch_7">
    <path d="M 65.45 303.64 
L 65.45 16.561286 
" style="fill: none; stroke: #cccccc; stroke-width: 0.8; stroke-linejoin: miter; stroke-linecap: square"/>
   </g>
   <g id="patch_8">
    <path d="M 450 303.64 
L 450 16.561286 
" style="fill: none; stroke: #cccccc; stroke-width: 0.8; stroke-linejoin: miter; stroke-linecap: square"/>
   </g>
   <g id="patch_9">
    <path d="M 65.45 303.64 
L 450 303.64 
" style="fill: none; stroke: #cccccc; stroke-width: 0.8; stroke-linejoin: miter; stroke-linecap: square"/>
   </g>
   <g id="patch_10">
    <path d="M 65.45 16.561286 
L 450 16.561286 
" style="fill: none; stroke: #cccccc; stroke-width: 0.8; stroke-linejoin: miter; stroke-linecap: square"/>
   </g>
   <g id="PathCollection_3">
    <defs>
     <path id="C0_0_29748c4ee6" d="M 0 1 
C 0.265203 1 0.51958 0.894634 0.707107 0.707107 
C 0.894634 0.51958 1 0.265203 1 -0 
C 1 -0.265203 0.894634 -0.51958 0.707107 -0.707107 
C 0.51958 -0.894634 0.265203 -1 0 -1 
C -0.265203 -1 -0.51958 -0.894634 -0.707107 -0.707107 
C -0.894634 -0.51958 -1 -0.265203 -1 0 
C -1 0.265203 -0.894634 0.51958 -0.707107 0.707107 
C -0.51958 0.894634 -0.265203 1 0 1 
z
"/>
    </defs>
    <g clip-path="url(#p540cee751e)">
     <use xlink:href="#C0_0_29748c4ee6" x="172.922075" y="167.074811" style="fill: #262626"/>
    </g>
    <g clip-path="url(#p540cee751e)">
     <use xlink:href="#C0_0_29748c4ee6" x="172.108355" y="187.218213" style="fill: #262626"/>
    </g>
    <g clip-path="url(#p540cee751e)">
     <use xlink:href="#C0_0_29748c4ee6" x="172.290201" y="177.047959" style="fill: #262626"/>
    </g>
    <g clip-path="url(#p540cee751e)">
     <use xlink:href="#C0_0_29748c4ee6" x="176.454313" y="187.058693" style="fill: #262626"/>
    </g>
    <g clip-path="url(#p540cee751e)">
     <use xlink:href="#C0_0_29748c4ee6" x="185.366362" y="240.623526" style="fill: #262626"/>
    </g>
    <g clip-path="url(#p540cee751e)">
     <use xlink:href="#C0_0_29748c4ee6" x="167.526107" y="162.612807" style="fill: #262626"/>
    </g>
    <g clip-path="url(#p540cee751e)">
     <use xlink:href="#C0_0_29748c4ee6" x="171.762372" y="185.180503" style="fill: #262626"/>
    </g>
    <g clip-path="url(#p540cee751e)">
     <use xlink:href="#C0_0_29748c4ee6" x="178.948396" y="169.599898" style="fill: #262626"/>
    </g>
    <g clip-path="url(#p540cee751e)">
     <use xlink:href="#C0_0_29748c4ee6" x="170.793824" y="180.866563" style="fill: #262626"/>
    </g>
    <g clip-path="url(#p540cee751e)">
     <use xlink:href="#C0_0_29748c4ee6" x="183.32649" y="92.608763" style="fill: #262626"/>
    </g>
    <g clip-path="url(#p540cee751e)">
     <use xlink:href="#C0_0_29748c4ee6" x="170.234082" y="169.80428" style="fill: #262626"/>
    </g>
    <g clip-path="url(#p540cee751e)">
     <use xlink:href="#C0_0_29748c4ee6" x="163.618392" y="155.685388" style="fill: #262626"/>
    </g>
    <g clip-path="url(#p540cee751e)">
     <use xlink:href="#C0_0_29748c4ee6" x="198.143017" y="152.821794" style="fill: #262626"/>
    </g>
    <g clip-path="url(#p540cee751e)">
     <use xlink:href="#C0_0_29748c4ee6" x="180.462755" y="187.377758" style="fill: #262626"/>
    </g>
    <g clip-path="url(#p540cee751e)">
     <use xlink:href="#C0_0_29748c4ee6" x="169.556902" y="176.54331" style="fill: #262626"/>
    </g>
    <g clip-path="url(#p540cee751e)">
     <use xlink:href="#C0_0_29748c4ee6" x="163.550022" y="156.32425" style="fill: #262626"/>
    </g>
    <g clip-path="url(#p540cee751e)">
     <use xlink:href="#C0_0_29748c4ee6" x="183.356863" y="153.100044" style="fill: #262626"/>
    </g>
    <g clip-path="url(#p540cee751e)">
     <use xlink:href="#C0_0_29748c4ee6" x="176.654848" y="130.462942" style="fill: #262626"/>
    </g>
    <g clip-path="url(#p540cee751e)">
     <use xlink:href="#C0_0_29748c4ee6" x="176.219638" y="169.47666" style="fill: #262626"/>
    </g>
    <g clip-path="url(#p540cee751e)">
     <use xlink:href="#C0_0_29748c4ee6" x="165.388673" y="150.380501" style="fill: #262626"/>
    </g>
    <g clip-path="url(#p540cee751e)">
     <use xlink:href="#C0_0_29748c4ee6" x="192.191513" y="261.402627" style="fill: #262626"/>
    </g>
    <g clip-path="url(#p540cee751e)">
     <use xlink:href="#C0_0_29748c4ee6" x="161.611724" y="192.198508" style="fill: #262626"/>
    </g>
    <g clip-path="url(#p540cee751e)">
     <use xlink:href="#C0_0_29748c4ee6" x="184.748348" y="180.726648" style="fill: #262626"/>
    </g>
    <g clip-path="url(#p540cee751e)">
     <use xlink:href="#C0_0_29748c4ee6" x="179.760536" y="209.873194" style="fill: #262626"/>
    </g>
    <g clip-path="url(#p540cee751e)">
     <use xlink:href="#C0_0_29748c4ee6" x="183.043482" y="192.513024" style="fill: #262626"/>
    </g>
    <g clip-path="url(#p540cee751e)">
     <use xlink:href="#C0_0_29748c4ee6" x="166.845267" y="146.771846" style="fill: #262626"/>
    </g>
    <g clip-path="url(#p540cee751e)">
     <use xlink:href="#C0_0_29748c4ee6" x="177.881333" y="303.64" style="fill: #262626"/>
    </g>
    <g clip-path="url(#p540cee751e)">
     <use xlink:href="#C0_0_29748c4ee6" x="189.843655" y="245.420904" style="fill: #262626"/>
    </g>
    <g clip-path="url(#p540cee751e)">
     <use xlink:href="#C0_0_29748c4ee6" x="195.485242" y="121.867679" style="fill: #262626"/>
    </g>
    <g clip-path="url(#p540cee751e)">
     <use xlink:href="#C0_0_29748c4ee6" x="184.727191" y="180.366425" style="fill: #262626"/>
    </g>
    <g clip-path="url(#p540cee751e)">
     <use xlink:href="#C0_0_29748c4ee6" x="178.760645" y="107.297366" style="fill: #262626"/>
    </g>
    <g clip-path="url(#p540cee751e)">
     <use xlink:href="#C0_0_29748c4ee6" x="177.939736" y="168.640468" style="fill: #262626"/>
    </g>
    <g clip-path="url(#p540cee751e)">
     <use xlink:href="#C0_0_29748c4ee6" x="167.270253" y="156.486692" style="fill: #262626"/>
    </g>
    <g clip-path="url(#p540cee751e)">
     <use xlink:href="#C0_0_29748c4ee6" x="182.71781" y="90.66312" style="fill: #262626"/>
    </g>
    <g clip-path="url(#p540cee751e)">
     <use xlink:href="#C0_0_29748c4ee6" x="178.991169" y="92.681557" style="fill: #262626"/>
    </g>
    <g clip-path="url(#p540cee751e)">
     <use xlink:href="#C0_0_29748c4ee6" x="177.291226" y="199.105499" style="fill: #262626"/>
    </g>
    <g clip-path="url(#p540cee751e)">
     <use xlink:href="#C0_0_29748c4ee6" x="179.150986" y="163.392543" style="fill: #262626"/>
    </g>
    <g clip-path="url(#p540cee751e)">
     <use xlink:href="#C0_0_29748c4ee6" x="192.178807" y="239.807586" style="fill: #262626"/>
    </g>
    <g clip-path="url(#p540cee751e)">
     <use xlink:href="#C0_0_29748c4ee6" x="171.228745" y="192.832969" style="fill: #262626"/>
    </g>
    <g clip-path="url(#p540cee751e)">
     <use xlink:href="#C0_0_29748c4ee6" x="178.773073" y="182.504272" style="fill: #262626"/>
    </g>
    <g clip-path="url(#p540cee751e)">
     <use xlink:href="#C0_0_29748c4ee6" x="182.062898" y="157.583961" style="fill: #262626"/>
    </g>
    <g clip-path="url(#p540cee751e)">
     <use xlink:href="#C0_0_29748c4ee6" x="198.917277" y="111.39381" style="fill: #262626"/>
    </g>
    <g clip-path="url(#p540cee751e)">
     <use xlink:href="#C0_0_29748c4ee6" x="166.13201" y="127.832381" style="fill: #262626"/>
    </g>
    <g clip-path="url(#p540cee751e)">
     <use xlink:href="#C0_0_29748c4ee6" x="169.066077" y="114.527052" style="fill: #262626"/>
    </g>
    <g clip-path="url(#p540cee751e)">
     <use xlink:href="#C0_0_29748c4ee6" x="188.492324" y="185.549531" style="fill: #262626"/>
    </g>
    <g clip-path="url(#p540cee751e)">
     <use xlink:href="#C0_0_29748c4ee6" x="198.453822" y="116.682832" style="fill: #262626"/>
    </g>
    <g clip-path="url(#p540cee751e)">
     <use xlink:href="#C0_0_29748c4ee6" x="170.62507" y="198.316693" style="fill: #262626"/>
    </g>
    <g clip-path="url(#p540cee751e)">
     <use xlink:href="#C0_0_29748c4ee6" x="174.943547" y="185.647154" style="fill: #262626"/>
    </g>
    <g clip-path="url(#p540cee751e)">
     <use xlink:href="#C0_0_29748c4ee6" x="164.561728" y="125.489605" style="fill: #262626"/>
    </g>
    <g clip-path="url(#p540cee751e)">
     <use xlink:href="#C0_0_29748c4ee6" x="167.936875" y="152.072149" style="fill: #262626"/>
    </g>
    <g clip-path="url(#p540cee751e)">
     <use xlink:href="#C0_0_29748c4ee6" x="189.156822" y="176.782685" style="fill: #262626"/>
    </g>
    <g clip-path="url(#p540cee751e)">
     <use xlink:href="#C0_0_29748c4ee6" x="184.476149" y="167.841849" style="fill: #262626"/>
    </g>
    <g clip-path="url(#p540cee751e)">
     <use xlink:href="#C0_0_29748c4ee6" x="187.402693" y="181.378842" style="fill: #262626"/>
    </g>
    <g clip-path="url(#p540cee751e)">
     <use xlink:href="#C0_0_29748c4ee6" x="181.527289" y="134.95927" style="fill: #262626"/>
    </g>
   </g>
   <g id="PathCollection_4">
    <defs>
     <path id="C1_0_659b356399" d="M 0 1 
C 0.265203 1 0.51958 0.894634 0.707107 0.707107 
C 0.894634 0.51958 1 0.265203 1 -0 
C 1 -0.265203 0.894634 -0.51958 0.707107 -0.707107 
C 0.51958 -0.894634 0.265203 -1 0 -1 
C -0.265203 -1 -0.51958 -0.894634 -0.707107 -0.707107 
C -0.894634 -0.51958 -1 -0.265203 -1 0 
C -1 0.265203 -0.894634 0.51958 -0.707107 0.707107 
C -0.51958 0.894634 -0.265203 1 0 1 
z
"/>
    </defs>
    <g clip-path="url(#p540cee751e)">
     <use xlink:href="#C1_0_659b356399" x="324.00969" y="116.44169"/>
    </g>
    <g clip-path="url(#p540cee751e)">
     <use xlink:href="#C1_0_659b356399" x="350.685994" y="128.951591"/>
    </g>
    <g clip-path="url(#p540cee751e)">
     <use xlink:href="#C1_0_659b356399" x="336.094479" y="112.548857"/>
    </g>
    <g clip-path="url(#p540cee751e)">
     <use xlink:href="#C1_0_659b356399" x="319.551351" y="105.702695"/>
    </g>
    <g clip-path="url(#p540cee751e)">
     <use xlink:href="#C1_0_659b356399" x="319.853378" y="90.176457"/>
    </g>
    <g clip-path="url(#p540cee751e)">
     <use xlink:href="#C1_0_659b356399" x="350.61597" y="77.069185"/>
    </g>
    <g clip-path="url(#p540cee751e)">
     <use xlink:href="#C1_0_659b356399" x="329.418273" y="31.767573"/>
    </g>
    <g clip-path="url(#p540cee751e)">
     <use xlink:href="#C1_0_659b356399" x="335.727182" y="102.710542"/>
    </g>
    <g clip-path="url(#p540cee751e)">
     <use xlink:href="#C1_0_659b356399" x="337.908748" y="161.060526"/>
    </g>
    <g clip-path="url(#p540cee751e)">
     <use xlink:href="#C1_0_659b356399" x="342.959108" y="173.987369"/>
    </g>
    <g clip-path="url(#p540cee751e)">
     <use xlink:href="#C1_0_659b356399" x="324.330726" y="156.001941"/>
    </g>
    <g clip-path="url(#p540cee751e)">
     <use xlink:href="#C1_0_659b356399" x="346.430815" y="16.561286"/>
    </g>
    <g clip-path="url(#p540cee751e)">
     <use xlink:href="#C1_0_659b356399" x="326.80061" y="58.13175"/>
    </g>
    <g clip-path="url(#p540cee751e)">
     <use xlink:href="#C1_0_659b356399" x="315.668336" y="130.547128"/>
    </g>
    <g clip-path="url(#p540cee751e)">
     <use xlink:href="#C1_0_659b356399" x="340.355771" y="109.53677"/>
    </g>
    <g clip-path="url(#p540cee751e)">
     <use xlink:href="#C1_0_659b356399" x="332.415014" y="121.175114"/>
    </g>
    <g clip-path="url(#p540cee751e)">
     <use xlink:href="#C1_0_659b356399" x="322.953916" y="98.868629"/>
    </g>
    <g clip-path="url(#p540cee751e)">
     <use xlink:href="#C1_0_659b356399" x="331.381198" y="113.610268"/>
    </g>
    <g clip-path="url(#p540cee751e)">
     <use xlink:href="#C1_0_659b356399" x="320.784492" y="121.661064"/>
    </g>
    <g clip-path="url(#p540cee751e)">
     <use xlink:href="#C1_0_659b356399" x="346.917751" y="108.994072"/>
    </g>
    <g clip-path="url(#p540cee751e)">
     <use xlink:href="#C1_0_659b356399" x="337.85593" y="132.233099"/>
    </g>
    <g clip-path="url(#p540cee751e)">
     <use xlink:href="#C1_0_659b356399" x="333.646892" y="88.749178"/>
    </g>
    <g clip-path="url(#p540cee751e)">
     <use xlink:href="#C1_0_659b356399" x="335.422542" y="140.751944"/>
    </g>
    <g clip-path="url(#p540cee751e)">
     <use xlink:href="#C1_0_659b356399" x="322.286643" y="121.941369"/>
    </g>
    <g clip-path="url(#p540cee751e)">
     <use xlink:href="#C1_0_659b356399" x="329.856781" y="160.524767"/>
    </g>
    <g clip-path="url(#p540cee751e)">
     <use xlink:href="#C1_0_659b356399" x="345.568734" y="106.249024"/>
    </g>
    <g clip-path="url(#p540cee751e)">
     <use xlink:href="#C1_0_659b356399" x="320.531712" y="73.672537"/>
    </g>
    <g clip-path="url(#p540cee751e)">
     <use xlink:href="#C1_0_659b356399" x="330.507533" y="114.268065"/>
    </g>
    <g clip-path="url(#p540cee751e)">
     <use xlink:href="#C1_0_659b356399" x="327.741638" y="90.804021"/>
    </g>
    <g clip-path="url(#p540cee751e)">
     <use xlink:href="#C1_0_659b356399" x="320.941463" y="119.552188"/>
    </g>
    <g clip-path="url(#p540cee751e)">
     <use xlink:href="#C1_0_659b356399" x="317.534258" y="103.824103"/>
    </g>
    <g clip-path="url(#p540cee751e)">
     <use xlink:href="#C1_0_659b356399" x="331.191064" y="89.481906"/>
    </g>
    <g clip-path="url(#p540cee751e)">
     <use xlink:href="#C1_0_659b356399" x="318.763703" y="116.260064"/>
    </g>
    <g clip-path="url(#p540cee751e)">
     <use xlink:href="#C1_0_659b356399" x="320.498099" y="26.092808"/>
    </g>
    <g clip-path="url(#p540cee751e)">
     <use xlink:href="#C1_0_659b356399" x="323.186082" y="76.315993"/>
    </g>
    <g clip-path="url(#p540cee751e)">
     <use xlink:href="#C1_0_659b356399" x="351.192912" y="131.347497"/>
    </g>
    <g clip-path="url(#p540cee751e)">
     <use xlink:href="#C1_0_659b356399" x="331.231398" y="89.501783"/>
    </g>
    <g clip-path="url(#p540cee751e)">
     <use xlink:href="#C1_0_659b356399" x="320.706207" y="115.297225"/>
    </g>
    <g clip-path="url(#p540cee751e)">
     <use xlink:href="#C1_0_659b356399" x="325.191008" y="141.695255"/>
    </g>
    <g clip-path="url(#p540cee751e)">
     <use xlink:href="#C1_0_659b356399" x="349.715461" y="110.246166"/>
    </g>
    <g clip-path="url(#p540cee751e)">
     <use xlink:href="#C1_0_659b356399" x="345.726696" y="136.9173"/>
    </g>
    <g clip-path="url(#p540cee751e)">
     <use xlink:href="#C1_0_659b356399" x="323.666781" y="113.009198"/>
    </g>
    <g clip-path="url(#p540cee751e)">
     <use xlink:href="#C1_0_659b356399" x="318.951932" y="140.748881"/>
    </g>
   </g>
   <g id="text_9">
    <!-- 54 -->
    <g style="fill: #262626" transform="translate(200.0425 150.582638) scale(0.1 -0.1)">
     <defs>
      <path id="DejaVuSans-35" d="M 691 4666 
L 3169 4666 
L 3169 4134 
L 1269 4134 
L 1269 2991 
Q 1406 3038 1543 3061 
Q 1681 3084 1819 3084 
Q 2600 3084 3056 2656 
Q 3513 2228 3513 1497 
Q 3513 744 3044 326 
Q 2575 -91 1722 -91 
Q 1428 -91 1123 -41 
Q 819 9 494 109 
L 494 744 
Q 775 591 1075 516 
Q 1375 441 1709 441 
Q 2250 441 2565 725 
Q 2881 1009 2881 1497 
Q 2881 1984 2565 2268 
Q 2250 2553 1709 2553 
Q 1456 2553 1204 2497 
Q 953 2441 691 2322 
L 691 4666 
z
" transform="scale(0.015625)"/>
     </defs>
     <use xlink:href="#DejaVuSans-35"/>
     <use xlink:href="#DejaVuSans-34" x="63.623047"/>
    </g>
   </g>
   <g id="text_10">
    <!-- p=nan -->
    <g style="fill: #262626" transform="translate(186.63 90.661834) scale(0.08 -0.08)">
     <defs>
      <path id="DejaVuSans-3d" d="M 678 2906 
L 4684 2906 
L 4684 2381 
L 678 2381 
L 678 2906 
z
M 678 1631 
L 4684 1631 
L 4684 1100 
L 678 1100 
L 678 1631 
z
" transform="scale(0.015625)"/>
     </defs>
     <use xlink:href="#DejaVuSans-70"/>
     <use xlink:href="#DejaVuSans-3d" x="63.476562"/>
     <use xlink:href="#DejaVuSans-6e" x="147.265625"/>
     <use xlink:href="#DejaVuSans-61" x="210.644531"/>
     <use xlink:href="#DejaVuSans-6e" x="271.923828"/>
    </g>
   </g>
   <g id="text_11">
    <!-- 43 -->
    <g style="fill: #262626" transform="translate(315.4075 150.582638) scale(0.1 -0.1)">
     <defs>
      <path id="DejaVuSans-33" d="M 2597 2516 
Q 3050 2419 3304 2112 
Q 3559 1806 3559 1356 
Q 3559 666 3084 287 
Q 2609 -91 1734 -91 
Q 1441 -91 1130 -33 
Q 819 25 488 141 
L 488 750 
Q 750 597 1062 519 
Q 1375 441 1716 441 
Q 2309 441 2620 675 
Q 2931 909 2931 1356 
Q 2931 1769 2642 2001 
Q 2353 2234 1838 2234 
L 1294 2234 
L 1294 2753 
L 1863 2753 
Q 2328 2753 2575 2939 
Q 2822 3125 2822 3475 
Q 2822 3834 2567 4026 
Q 2313 4219 1838 4219 
Q 1578 4219 1281 4162 
Q 984 4106 628 3988 
L 628 4550 
Q 988 4650 1302 4700 
Q 1616 4750 1894 4750 
Q 2613 4750 3031 4423 
Q 3450 4097 3450 3541 
Q 3450 3153 3228 2886 
Q 3006 2619 2597 2516 
z
" transform="scale(0.015625)"/>
     </defs>
     <use xlink:href="#DejaVuSans-34"/>
     <use xlink:href="#DejaVuSans-33" x="63.623047"/>
    </g>
   </g>
   <g id="text_12">
    <!-- p=nan -->
    <g style="fill: #262626" transform="translate(301.995 16.56) scale(0.08 -0.08)">
     <use xlink:href="#DejaVuSans-70"/>
     <use xlink:href="#DejaVuSans-3d" x="63.476562"/>
     <use xlink:href="#DejaVuSans-6e" x="147.265625"/>
     <use xlink:href="#DejaVuSans-61" x="210.644531"/>
     <use xlink:href="#DejaVuSans-6e" x="271.923828"/>
    </g>
   </g>
   <g id="legend_1">
    <g id="patch_11">
     <path d="M 387.048438 33.159723 
L 407.048438 33.159723 
L 407.048438 26.159723 
L 387.048438 26.159723 
z
" style="fill: #ecf2ec; stroke: #262626; stroke-width: 0.75; stroke-linejoin: miter"/>
    </g>
    <g id="text_13">
     <!-- void -->
     <g style="fill: #262626" transform="translate(415.048438 33.159723) scale(0.1 -0.1)">
      <defs>
       <path id="DejaVuSans-76" d="M 191 3500 
L 800 3500 
L 1894 563 
L 2988 3500 
L 3597 3500 
L 2284 0 
L 1503 0 
L 191 3500 
z
" transform="scale(0.015625)"/>
       <path id="DejaVuSans-69" d="M 603 3500 
L 1178 3500 
L 1178 0 
L 603 0 
L 603 3500 
z
M 603 4863 
L 1178 4863 
L 1178 4134 
L 603 4134 
L 603 4863 
z
" transform="scale(0.015625)"/>
       <path id="DejaVuSans-64" d="M 2906 2969 
L 2906 4863 
L 3481 4863 
L 3481 0 
L 2906 0 
L 2906 525 
Q 2725 213 2448 61 
Q 2172 -91 1784 -91 
Q 1150 -91 751 415 
Q 353 922 353 1747 
Q 353 2572 751 3078 
Q 1150 3584 1784 3584 
Q 2172 3584 2448 3432 
Q 2725 3281 2906 2969 
z
M 947 1747 
Q 947 1113 1208 752 
Q 1469 391 1925 391 
Q 2381 391 2643 752 
Q 2906 1113 2906 1747 
Q 2906 2381 2643 2742 
Q 2381 3103 1925 3103 
Q 1469 3103 1208 2742 
Q 947 2381 947 1747 
z
" transform="scale(0.015625)"/>
      </defs>
      <use xlink:href="#DejaVuSans-76"/>
      <use xlink:href="#DejaVuSans-6f" x="59.179688"/>
      <use xlink:href="#DejaVuSans-69" x="120.361328"/>
      <use xlink:href="#DejaVuSans-64" x="148.144531"/>
     </g>
    </g>
    <g id="patch_12">
     <path d="M 387.048438 47.837848 
L 407.048438 47.837848 
L 407.048438 40.837848 
L 387.048438 40.837848 
z
" style="fill: #107010; stroke: #262626; stroke-width: 0.75; stroke-linejoin: miter"/>
    </g>
    <g id="text_14">
     <!-- clash -->
     <g style="fill: #262626" transform="translate(415.048438 47.837848) scale(0.1 -0.1)">
      <defs>
       <path id="DejaVuSans-68" d="M 3513 2113 
L 3513 0 
L 2938 0 
L 2938 2094 
Q 2938 2591 2744 2837 
Q 2550 3084 2163 3084 
Q 1697 3084 1428 2787 
Q 1159 2491 1159 1978 
L 1159 0 
L 581 0 
L 581 4863 
L 1159 4863 
L 1159 2956 
Q 1366 3272 1645 3428 
Q 1925 3584 2291 3584 
Q 2894 3584 3203 3211 
Q 3513 2838 3513 2113 
z
" transform="scale(0.015625)"/>
      </defs>
      <use xlink:href="#DejaVuSans-63"/>
      <use xlink:href="#DejaVuSans-6c" x="54.980469"/>
      <use xlink:href="#DejaVuSans-61" x="82.763672"/>
      <use xlink:href="#DejaVuSans-73" x="144.042969"/>
      <use xlink:href="#DejaVuSans-68" x="196.142578"/>
     </g>
    </g>
   </g>
  </g>
 </g>
 <defs>
  <clipPath id="p540cee751e">
   <rect x="65.45" y="16.561286" width="384.55" height="287.078714"/>
  </clipPath>
 </defs>
</svg>
