<?xml version="1.0" encoding="utf-8" standalone="no"?>
<!DOCTYPE svg PUBLIC "-//W3C//DTD SVG 1.1//EN"
  "http://www.w3.org/Graphics/SVG/1.1/DTD/svg11.dtd">
<svg xmlns:xlink="http://www.w3.org/1999/xlink" width="460.8pt" height="345.6pt" viewBox="0 0 460.8 345.6" xmlns="http://www.w3.org/2000/svg" version="1.1">
 <metadata>
  <rdf:RDF xmlns:dc="http://purl.org/dc/elements/1.1/" xmlns:cc="http://creativecommons.org/ns#" xmlns:rdf="http://www.w3.org/1999/02/22-rdf-syntax-ns#">
   <cc:Work>
    <dc:type rdf:resource="http://purl.org/dc/dcmitype/StillImage"/>
    <dc:date>2023-12-16T14:40:56.729501</dc:date>
    <dc:format>image/svg+xml</dc:format>
    <dc:creator>
     <cc:Agent>
      <dc:title>Matplotlib v3.5.3, https://matplotlib.org/</dc:title>
     </cc:Agent>
    </dc:creator>
   </cc:Work>
  </rdf:RDF>
 </metadata>
 <defs>
  <style type="text/css">*{stroke-linejoin: round; stroke-linecap: butt}</style>
 </defs>
 <g id="figure_1">
  <g id="patch_1">
   <path d="M 0 345.6 
L 460.8 345.6 
L 460.8 0 
L 0 0 
z
" style="fill: #ffffff"/>
  </g>
  <g id="axes_1">
   <g id="patch_2">
    <path d="M 47.81 303.64 
L 450 303.64 
L 450 27.036 
L 47.81 27.036 
z
" style="fill: #ffffff"/>
   </g>
   <g id="matplotlib.axis_1">
    <g id="xtick_1">
     <g id="text_1">
      <!-- 8 -->
      <g style="fill: #262626" transform="translate(145.17625 318.238437)scale(0.1 -0.1)">
       <defs>
        <path id="DejaVuSans-38" d="M 2034 2216 
Q 1584 2216 1326 1975 
Q 1069 1734 1069 1313 
Q 1069 891 1326 650 
Q 1584 409 2034 409 
Q 2484 409 2743 651 
Q 3003 894 3003 1313 
Q 3003 1734 2745 1975 
Q 2488 2216 2034 2216 
z
M 1403 2484 
Q 997 2584 770 2862 
Q 544 3141 544 3541 
Q 544 4100 942 4425 
Q 1341 4750 2034 4750 
Q 2731 4750 3128 4425 
Q 3525 4100 3525 3541 
Q 3525 3141 3298 2862 
Q 3072 2584 2669 2484 
Q 3125 2378 3379 2068 
Q 3634 1759 3634 1313 
Q 3634 634 3220 271 
Q 2806 -91 2034 -91 
Q 1263 -91 848 271 
Q 434 634 434 1313 
Q 434 1759 690 2068 
Q 947 2378 1403 2484 
z
M 1172 3481 
Q 1172 3119 1398 2916 
Q 1625 2713 2034 2713 
Q 2441 2713 2670 2916 
Q 2900 3119 2900 3481 
Q 2900 3844 2670 4047 
Q 2441 4250 2034 4250 
Q 1625 4250 1398 4047 
Q 1172 3844 1172 3481 
z
" transform="scale(0.015625)"/>
       </defs>
       <use xlink:href="#DejaVuSans-38"/>
      </g>
     </g>
    </g>
    <g id="xtick_2">
     <g id="text_2">
      <!-- 12 -->
      <g style="fill: #262626" transform="translate(343.09 318.238437)scale(0.1 -0.1)">
       <defs>
        <path id="DejaVuSans-31" d="M 794 531 
L 1825 531 
L 1825 4091 
L 703 3866 
L 703 4441 
L 1819 4666 
L 2450 4666 
L 2450 531 
L 3481 531 
L 3481 0 
L 794 0 
L 794 531 
z
" transform="scale(0.015625)"/>
        <path id="DejaVuSans-32" d="M 1228 531 
L 3431 531 
L 3431 0 
L 469 0 
L 469 531 
Q 828 903 1448 1529 
Q 2069 2156 2228 2338 
Q 2531 2678 2651 2914 
Q 2772 3150 2772 3378 
Q 2772 3750 2511 3984 
Q 2250 4219 1831 4219 
Q 1534 4219 1204 4116 
Q 875 4013 500 3803 
L 500 4441 
Q 881 4594 1212 4672 
Q 1544 4750 1819 4750 
Q 2544 4750 2975 4387 
Q 3406 4025 3406 3419 
Q 3406 3131 3298 2873 
Q 3191 2616 2906 2266 
Q 2828 2175 2409 1742 
Q 1991 1309 1228 531 
z
" transform="scale(0.015625)"/>
       </defs>
       <use xlink:href="#DejaVuSans-31"/>
       <use xlink:href="#DejaVuSans-32" x="63.623047"/>
      </g>
     </g>
    </g>
    <g id="text_3">
     <!-- Position -->
     <g style="fill: #262626" transform="translate(229.440937 331.916562)scale(0.1 -0.1)">
      <defs>
       <path id="DejaVuSans-50" d="M 1259 4147 
L 1259 2394 
L 2053 2394 
Q 2494 2394 2734 2622 
Q 2975 2850 2975 3272 
Q 2975 3691 2734 3919 
Q 2494 4147 2053 4147 
L 1259 4147 
z
M 628 4666 
L 2053 4666 
Q 2838 4666 3239 4311 
Q 3641 3956 3641 3272 
Q 3641 2581 3239 2228 
Q 2838 1875 2053 1875 
L 1259 1875 
L 1259 0 
L 628 0 
L 628 4666 
z
" transform="scale(0.015625)"/>
       <path id="DejaVuSans-6f" d="M 1959 3097 
Q 1497 3097 1228 2736 
Q 959 2375 959 1747 
Q 959 1119 1226 758 
Q 1494 397 1959 397 
Q 2419 397 2687 759 
Q 2956 1122 2956 1747 
Q 2956 2369 2687 2733 
Q 2419 3097 1959 3097 
z
M 1959 3584 
Q 2709 3584 3137 3096 
Q 3566 2609 3566 1747 
Q 3566 888 3137 398 
Q 2709 -91 1959 -91 
Q 1206 -91 779 398 
Q 353 888 353 1747 
Q 353 2609 779 3096 
Q 1206 3584 1959 3584 
z
" transform="scale(0.015625)"/>
       <path id="DejaVuSans-73" d="M 2834 3397 
L 2834 2853 
Q 2591 2978 2328 3040 
Q 2066 3103 1784 3103 
Q 1356 3103 1142 2972 
Q 928 2841 928 2578 
Q 928 2378 1081 2264 
Q 1234 2150 1697 2047 
L 1894 2003 
Q 2506 1872 2764 1633 
Q 3022 1394 3022 966 
Q 3022 478 2636 193 
Q 2250 -91 1575 -91 
Q 1294 -91 989 -36 
Q 684 19 347 128 
L 347 722 
Q 666 556 975 473 
Q 1284 391 1588 391 
Q 1994 391 2212 530 
Q 2431 669 2431 922 
Q 2431 1156 2273 1281 
Q 2116 1406 1581 1522 
L 1381 1569 
Q 847 1681 609 1914 
Q 372 2147 372 2553 
Q 372 3047 722 3315 
Q 1072 3584 1716 3584 
Q 2034 3584 2315 3537 
Q 2597 3491 2834 3397 
z
" transform="scale(0.015625)"/>
       <path id="DejaVuSans-69" d="M 603 3500 
L 1178 3500 
L 1178 0 
L 603 0 
L 603 3500 
z
M 603 4863 
L 1178 4863 
L 1178 4134 
L 603 4134 
L 603 4863 
z
" transform="scale(0.015625)"/>
       <path id="DejaVuSans-74" d="M 1172 4494 
L 1172 3500 
L 2356 3500 
L 2356 3053 
L 1172 3053 
L 1172 1153 
Q 1172 725 1289 603 
Q 1406 481 1766 481 
L 2356 481 
L 2356 0 
L 1766 0 
Q 1100 0 847 248 
Q 594 497 594 1153 
L 594 3053 
L 172 3053 
L 172 3500 
L 594 3500 
L 594 4494 
L 1172 4494 
z
" transform="scale(0.015625)"/>
       <path id="DejaVuSans-6e" d="M 3513 2113 
L 3513 0 
L 2938 0 
L 2938 2094 
Q 2938 2591 2744 2837 
Q 2550 3084 2163 3084 
Q 1697 3084 1428 2787 
Q 1159 2491 1159 1978 
L 1159 0 
L 581 0 
L 581 3500 
L 1159 3500 
L 1159 2956 
Q 1366 3272 1645 3428 
Q 1925 3584 2291 3584 
Q 2894 3584 3203 3211 
Q 3513 2838 3513 2113 
z
" transform="scale(0.015625)"/>
      </defs>
      <use xlink:href="#DejaVuSans-50"/>
      <use xlink:href="#DejaVuSans-6f" x="56.677734"/>
      <use xlink:href="#DejaVuSans-73" x="117.859375"/>
      <use xlink:href="#DejaVuSans-69" x="169.958984"/>
      <use xlink:href="#DejaVuSans-74" x="197.742188"/>
      <use xlink:href="#DejaVuSans-69" x="236.951172"/>
      <use xlink:href="#DejaVuSans-6f" x="264.734375"/>
      <use xlink:href="#DejaVuSans-6e" x="325.916016"/>
     </g>
    </g>
   </g>
   <g id="matplotlib.axis_2">
    <g id="ytick_1">
     <g id="line2d_1">
      <path d="M 47.81 303.64 
L 450 303.64 
" clip-path="url(#pfac6c0c5d1)" style="fill: none; stroke: #cccccc; stroke-width: 0.8; stroke-linecap: round"/>
     </g>
     <g id="text_4">
      <!-- 0.0 -->
      <g style="fill: #262626" transform="translate(24.906875 307.439219)scale(0.1 -0.1)">
       <defs>
        <path id="DejaVuSans-30" d="M 2034 4250 
Q 1547 4250 1301 3770 
Q 1056 3291 1056 2328 
Q 1056 1369 1301 889 
Q 1547 409 2034 409 
Q 2525 409 2770 889 
Q 3016 1369 3016 2328 
Q 3016 3291 2770 3770 
Q 2525 4250 2034 4250 
z
M 2034 4750 
Q 2819 4750 3233 4129 
Q 3647 3509 3647 2328 
Q 3647 1150 3233 529 
Q 2819 -91 2034 -91 
Q 1250 -91 836 529 
Q 422 1150 422 2328 
Q 422 3509 836 4129 
Q 1250 4750 2034 4750 
z
" transform="scale(0.015625)"/>
        <path id="DejaVuSans-2e" d="M 684 794 
L 1344 794 
L 1344 0 
L 684 0 
L 684 794 
z
" transform="scale(0.015625)"/>
       </defs>
       <use xlink:href="#DejaVuSans-30"/>
       <use xlink:href="#DejaVuSans-2e" x="63.623047"/>
       <use xlink:href="#DejaVuSans-30" x="95.410156"/>
      </g>
     </g>
    </g>
    <g id="ytick_2">
     <g id="line2d_2">
      <path d="M 47.81 269.0645 
L 450 269.0645 
" clip-path="url(#pfac6c0c5d1)" style="fill: none; stroke: #cccccc; stroke-width: 0.8; stroke-linecap: round"/>
     </g>
     <g id="text_5">
      <!-- 0.2 -->
      <g style="fill: #262626" transform="translate(24.906875 272.863719)scale(0.1 -0.1)">
       <use xlink:href="#DejaVuSans-30"/>
       <use xlink:href="#DejaVuSans-2e" x="63.623047"/>
       <use xlink:href="#DejaVuSans-32" x="95.410156"/>
      </g>
     </g>
    </g>
    <g id="ytick_3">
     <g id="line2d_3">
      <path d="M 47.81 234.489 
L 450 234.489 
" clip-path="url(#pfac6c0c5d1)" style="fill: none; stroke: #cccccc; stroke-width: 0.8; stroke-linecap: round"/>
     </g>
     <g id="text_6">
      <!-- 0.4 -->
      <g style="fill: #262626" transform="translate(24.906875 238.288219)scale(0.1 -0.1)">
       <defs>
        <path id="DejaVuSans-34" d="M 2419 4116 
L 825 1625 
L 2419 1625 
L 2419 4116 
z
M 2253 4666 
L 3047 4666 
L 3047 1625 
L 3713 1625 
L 3713 1100 
L 3047 1100 
L 3047 0 
L 2419 0 
L 2419 1100 
L 313 1100 
L 313 1709 
L 2253 4666 
z
" transform="scale(0.015625)"/>
       </defs>
       <use xlink:href="#DejaVuSans-30"/>
       <use xlink:href="#DejaVuSans-2e" x="63.623047"/>
       <use xlink:href="#DejaVuSans-34" x="95.410156"/>
      </g>
     </g>
    </g>
    <g id="ytick_4">
     <g id="line2d_4">
      <path d="M 47.81 199.9135 
L 450 199.9135 
" clip-path="url(#pfac6c0c5d1)" style="fill: none; stroke: #cccccc; stroke-width: 0.8; stroke-linecap: round"/>
     </g>
     <g id="text_7">
      <!-- 0.6 -->
      <g style="fill: #262626" transform="translate(24.906875 203.712719)scale(0.1 -0.1)">
       <defs>
        <path id="DejaVuSans-36" d="M 2113 2584 
Q 1688 2584 1439 2293 
Q 1191 2003 1191 1497 
Q 1191 994 1439 701 
Q 1688 409 2113 409 
Q 2538 409 2786 701 
Q 3034 994 3034 1497 
Q 3034 2003 2786 2293 
Q 2538 2584 2113 2584 
z
M 3366 4563 
L 3366 3988 
Q 3128 4100 2886 4159 
Q 2644 4219 2406 4219 
Q 1781 4219 1451 3797 
Q 1122 3375 1075 2522 
Q 1259 2794 1537 2939 
Q 1816 3084 2150 3084 
Q 2853 3084 3261 2657 
Q 3669 2231 3669 1497 
Q 3669 778 3244 343 
Q 2819 -91 2113 -91 
Q 1303 -91 875 529 
Q 447 1150 447 2328 
Q 447 3434 972 4092 
Q 1497 4750 2381 4750 
Q 2619 4750 2861 4703 
Q 3103 4656 3366 4563 
z
" transform="scale(0.015625)"/>
       </defs>
       <use xlink:href="#DejaVuSans-30"/>
       <use xlink:href="#DejaVuSans-2e" x="63.623047"/>
       <use xlink:href="#DejaVuSans-36" x="95.410156"/>
      </g>
     </g>
    </g>
    <g id="ytick_5">
     <g id="line2d_5">
      <path d="M 47.81 165.338 
L 450 165.338 
" clip-path="url(#pfac6c0c5d1)" style="fill: none; stroke: #cccccc; stroke-width: 0.8; stroke-linecap: round"/>
     </g>
     <g id="text_8">
      <!-- 0.8 -->
      <g style="fill: #262626" transform="translate(24.906875 169.137219)scale(0.1 -0.1)">
       <use xlink:href="#DejaVuSans-30"/>
       <use xlink:href="#DejaVuSans-2e" x="63.623047"/>
       <use xlink:href="#DejaVuSans-38" x="95.410156"/>
      </g>
     </g>
    </g>
    <g id="ytick_6">
     <g id="line2d_6">
      <path d="M 47.81 130.7625 
L 450 130.7625 
" clip-path="url(#pfac6c0c5d1)" style="fill: none; stroke: #cccccc; stroke-width: 0.8; stroke-linecap: round"/>
     </g>
     <g id="text_9">
      <!-- 1.0 -->
      <g style="fill: #262626" transform="translate(24.906875 134.561719)scale(0.1 -0.1)">
       <use xlink:href="#DejaVuSans-31"/>
       <use xlink:href="#DejaVuSans-2e" x="63.623047"/>
       <use xlink:href="#DejaVuSans-30" x="95.410156"/>
      </g>
     </g>
    </g>
    <g id="ytick_7">
     <g id="line2d_7">
      <path d="M 47.81 96.187 
L 450 96.187 
" clip-path="url(#pfac6c0c5d1)" style="fill: none; stroke: #cccccc; stroke-width: 0.8; stroke-linecap: round"/>
     </g>
     <g id="text_10">
      <!-- 1.2 -->
      <g style="fill: #262626" transform="translate(24.906875 99.986219)scale(0.1 -0.1)">
       <use xlink:href="#DejaVuSans-31"/>
       <use xlink:href="#DejaVuSans-2e" x="63.623047"/>
       <use xlink:href="#DejaVuSans-32" x="95.410156"/>
      </g>
     </g>
    </g>
    <g id="ytick_8">
     <g id="line2d_8">
      <path d="M 47.81 61.6115 
L 450 61.6115 
" clip-path="url(#pfac6c0c5d1)" style="fill: none; stroke: #cccccc; stroke-width: 0.8; stroke-linecap: round"/>
     </g>
     <g id="text_11">
      <!-- 1.4 -->
      <g style="fill: #262626" transform="translate(24.906875 65.410719)scale(0.1 -0.1)">
       <use xlink:href="#DejaVuSans-31"/>
       <use xlink:href="#DejaVuSans-2e" x="63.623047"/>
       <use xlink:href="#DejaVuSans-34" x="95.410156"/>
      </g>
     </g>
    </g>
    <g id="ytick_9">
     <g id="line2d_9">
      <path d="M 47.81 27.036 
L 450 27.036 
" clip-path="url(#pfac6c0c5d1)" style="fill: none; stroke: #cccccc; stroke-width: 0.8; stroke-linecap: round"/>
     </g>
     <g id="text_12">
      <!-- 1.6 -->
      <g style="fill: #262626" transform="translate(24.906875 30.835219)scale(0.1 -0.1)">
       <use xlink:href="#DejaVuSans-31"/>
       <use xlink:href="#DejaVuSans-2e" x="63.623047"/>
       <use xlink:href="#DejaVuSans-36" x="95.410156"/>
      </g>
     </g>
    </g>
    <g id="text_13">
     <!-- PercentGpA -->
     <g style="fill: #262626" transform="translate(18.827187 194.614562)rotate(-90)scale(0.1 -0.1)">
      <defs>
       <path id="DejaVuSans-65" d="M 3597 1894 
L 3597 1613 
L 953 1613 
Q 991 1019 1311 708 
Q 1631 397 2203 397 
Q 2534 397 2845 478 
Q 3156 559 3463 722 
L 3463 178 
Q 3153 47 2828 -22 
Q 2503 -91 2169 -91 
Q 1331 -91 842 396 
Q 353 884 353 1716 
Q 353 2575 817 3079 
Q 1281 3584 2069 3584 
Q 2775 3584 3186 3129 
Q 3597 2675 3597 1894 
z
M 3022 2063 
Q 3016 2534 2758 2815 
Q 2500 3097 2075 3097 
Q 1594 3097 1305 2825 
Q 1016 2553 972 2059 
L 3022 2063 
z
" transform="scale(0.015625)"/>
       <path id="DejaVuSans-72" d="M 2631 2963 
Q 2534 3019 2420 3045 
Q 2306 3072 2169 3072 
Q 1681 3072 1420 2755 
Q 1159 2438 1159 1844 
L 1159 0 
L 581 0 
L 581 3500 
L 1159 3500 
L 1159 2956 
Q 1341 3275 1631 3429 
Q 1922 3584 2338 3584 
Q 2397 3584 2469 3576 
Q 2541 3569 2628 3553 
L 2631 2963 
z
" transform="scale(0.015625)"/>
       <path id="DejaVuSans-63" d="M 3122 3366 
L 3122 2828 
Q 2878 2963 2633 3030 
Q 2388 3097 2138 3097 
Q 1578 3097 1268 2742 
Q 959 2388 959 1747 
Q 959 1106 1268 751 
Q 1578 397 2138 397 
Q 2388 397 2633 464 
Q 2878 531 3122 666 
L 3122 134 
Q 2881 22 2623 -34 
Q 2366 -91 2075 -91 
Q 1284 -91 818 406 
Q 353 903 353 1747 
Q 353 2603 823 3093 
Q 1294 3584 2113 3584 
Q 2378 3584 2631 3529 
Q 2884 3475 3122 3366 
z
" transform="scale(0.015625)"/>
       <path id="DejaVuSans-47" d="M 3809 666 
L 3809 1919 
L 2778 1919 
L 2778 2438 
L 4434 2438 
L 4434 434 
Q 4069 175 3628 42 
Q 3188 -91 2688 -91 
Q 1594 -91 976 548 
Q 359 1188 359 2328 
Q 359 3472 976 4111 
Q 1594 4750 2688 4750 
Q 3144 4750 3555 4637 
Q 3966 4525 4313 4306 
L 4313 3634 
Q 3963 3931 3569 4081 
Q 3175 4231 2741 4231 
Q 1884 4231 1454 3753 
Q 1025 3275 1025 2328 
Q 1025 1384 1454 906 
Q 1884 428 2741 428 
Q 3075 428 3337 486 
Q 3600 544 3809 666 
z
" transform="scale(0.015625)"/>
       <path id="DejaVuSans-70" d="M 1159 525 
L 1159 -1331 
L 581 -1331 
L 581 3500 
L 1159 3500 
L 1159 2969 
Q 1341 3281 1617 3432 
Q 1894 3584 2278 3584 
Q 2916 3584 3314 3078 
Q 3713 2572 3713 1747 
Q 3713 922 3314 415 
Q 2916 -91 2278 -91 
Q 1894 -91 1617 61 
Q 1341 213 1159 525 
z
M 3116 1747 
Q 3116 2381 2855 2742 
Q 2594 3103 2138 3103 
Q 1681 3103 1420 2742 
Q 1159 2381 1159 1747 
Q 1159 1113 1420 752 
Q 1681 391 2138 391 
Q 2594 391 2855 752 
Q 3116 1113 3116 1747 
z
" transform="scale(0.015625)"/>
       <path id="DejaVuSans-41" d="M 2188 4044 
L 1331 1722 
L 3047 1722 
L 2188 4044 
z
M 1831 4666 
L 2547 4666 
L 4325 0 
L 3669 0 
L 3244 1197 
L 1141 1197 
L 716 0 
L 50 0 
L 1831 4666 
z
" transform="scale(0.015625)"/>
      </defs>
      <use xlink:href="#DejaVuSans-50"/>
      <use xlink:href="#DejaVuSans-65" x="56.677734"/>
      <use xlink:href="#DejaVuSans-72" x="118.201172"/>
      <use xlink:href="#DejaVuSans-63" x="157.064453"/>
      <use xlink:href="#DejaVuSans-65" x="212.044922"/>
      <use xlink:href="#DejaVuSans-6e" x="273.568359"/>
      <use xlink:href="#DejaVuSans-74" x="336.947266"/>
      <use xlink:href="#DejaVuSans-47" x="376.15625"/>
      <use xlink:href="#DejaVuSans-70" x="453.646484"/>
      <use xlink:href="#DejaVuSans-41" x="517.123047"/>
     </g>
    </g>
   </g>
   <g id="patch_3">
    <path d="M 68.72388 271.189403 
L 147.55312 271.189403 
L 147.55312 255.369512 
L 68.72388 255.369512 
L 68.72388 271.189403 
z
" clip-path="url(#pfac6c0c5d1)" style="fill: #ecf2ec; stroke: #262626; stroke-width: 1.5; stroke-linejoin: miter"/>
   </g>
   <g id="patch_4">
    <path d="M 149.16188 259.369667 
L 227.99112 259.369667 
L 227.99112 246.451207 
L 149.16188 246.451207 
L 149.16188 259.369667 
z
" clip-path="url(#pfac6c0c5d1)" style="fill: #107010; stroke: #262626; stroke-width: 1.5; stroke-linejoin: miter"/>
   </g>
   <g id="patch_5">
    <path d="M 269.81888 265.145803 
L 348.64812 265.145803 
L 348.64812 254.897968 
L 269.81888 254.897968 
L 269.81888 265.145803 
z
" clip-path="url(#pfac6c0c5d1)" style="fill: #ecf2ec; stroke: #262626; stroke-width: 1.5; stroke-linejoin: miter"/>
   </g>
   <g id="patch_6">
    <path d="M 350.25688 253.022119 
L 429.08612 253.022119 
L 429.08612 239.217462 
L 350.25688 239.217462 
L 350.25688 253.022119 
z
" clip-path="url(#pfac6c0c5d1)" style="fill: #107010; stroke: #262626; stroke-width: 1.5; stroke-linejoin: miter"/>
   </g>
   <g id="patch_7">
    <path d="M 148.3575 303.64 
L 148.3575 303.64 
L 148.3575 303.64 
L 148.3575 303.64 
z
" clip-path="url(#pfac6c0c5d1)" style="fill: #ecf2ec; stroke: #262626; stroke-width: 0.75; stroke-linejoin: miter"/>
   </g>
   <g id="patch_8">
    <path d="M 148.3575 303.64 
L 148.3575 303.64 
L 148.3575 303.64 
L 148.3575 303.64 
z
" clip-path="url(#pfac6c0c5d1)" style="fill: #107010; stroke: #262626; stroke-width: 0.75; stroke-linejoin: miter"/>
   </g>
   <g id="PathCollection_1"/>
   <g id="PathCollection_2"/>
   <g id="line2d_10">
    <path d="M 108.1385 271.189403 
L 108.1385 290.433673 
" clip-path="url(#pfac6c0c5d1)" style="fill: none; stroke: #262626; stroke-width: 1.5; stroke-linecap: round"/>
   </g>
   <g id="line2d_11">
    <path d="M 108.1385 255.369512 
L 108.1385 238.202402 
" clip-path="url(#pfac6c0c5d1)" style="fill: none; stroke: #262626; stroke-width: 1.5; stroke-linecap: round"/>
   </g>
   <g id="line2d_12">
    <path d="M 88.43119 290.433673 
L 127.84581 290.433673 
" clip-path="url(#pfac6c0c5d1)" style="fill: none; stroke: #262626; stroke-width: 1.5; stroke-linecap: round"/>
   </g>
   <g id="line2d_13">
    <path d="M 88.43119 238.202402 
L 127.84581 238.202402 
" clip-path="url(#pfac6c0c5d1)" style="fill: none; stroke: #262626; stroke-width: 1.5; stroke-linecap: round"/>
   </g>
   <g id="line2d_14">
    <defs>
     <path id="m79e1fd0ef5" d="M -0 1.414214 
L 0.848528 0 
L 0 -1.414214 
L -0.848528 -0 
z
" style="stroke: #262626; stroke-linejoin: miter"/>
    </defs>
    <g clip-path="url(#pfac6c0c5d1)">
     <use xlink:href="#m79e1fd0ef5" x="108.1385" y="223.422925" style="fill: #262626; stroke: #262626; stroke-linejoin: miter"/>
    </g>
   </g>
   <g id="line2d_15">
    <path d="M 188.5765 259.369667 
L 188.5765 275.263488 
" clip-path="url(#pfac6c0c5d1)" style="fill: none; stroke: #262626; stroke-width: 1.5; stroke-linecap: round"/>
   </g>
   <g id="line2d_16">
    <path d="M 188.5765 246.451207 
L 188.5765 245.149857 
" clip-path="url(#pfac6c0c5d1)" style="fill: none; stroke: #262626; stroke-width: 1.5; stroke-linecap: round"/>
   </g>
   <g id="line2d_17">
    <path d="M 168.86919 275.263488 
L 208.28381 275.263488 
" clip-path="url(#pfac6c0c5d1)" style="fill: none; stroke: #262626; stroke-width: 1.5; stroke-linecap: round"/>
   </g>
   <g id="line2d_18">
    <path d="M 168.86919 245.149857 
L 208.28381 245.149857 
" clip-path="url(#pfac6c0c5d1)" style="fill: none; stroke: #262626; stroke-width: 1.5; stroke-linecap: round"/>
   </g>
   <g id="line2d_19">
    <g clip-path="url(#pfac6c0c5d1)">
     <use xlink:href="#m79e1fd0ef5" x="188.5765" y="225.912494" style="fill: #262626; stroke: #262626; stroke-linejoin: miter"/>
    </g>
   </g>
   <g id="line2d_20">
    <path d="M 309.2335 265.145803 
L 309.2335 274.270084 
" clip-path="url(#pfac6c0c5d1)" style="fill: none; stroke: #262626; stroke-width: 1.5; stroke-linecap: round"/>
   </g>
   <g id="line2d_21">
    <path d="M 309.2335 254.897968 
L 309.2335 245.894841 
" clip-path="url(#pfac6c0c5d1)" style="fill: none; stroke: #262626; stroke-width: 1.5; stroke-linecap: round"/>
   </g>
   <g id="line2d_22">
    <path d="M 289.52619 274.270084 
L 328.94081 274.270084 
" clip-path="url(#pfac6c0c5d1)" style="fill: none; stroke: #262626; stroke-width: 1.5; stroke-linecap: round"/>
   </g>
   <g id="line2d_23">
    <path d="M 289.52619 245.894841 
L 328.94081 245.894841 
" clip-path="url(#pfac6c0c5d1)" style="fill: none; stroke: #262626; stroke-width: 1.5; stroke-linecap: round"/>
   </g>
   <g id="line2d_24">
    <g clip-path="url(#pfac6c0c5d1)">
     <use xlink:href="#m79e1fd0ef5" x="309.2335" y="221.174072" style="fill: #262626; stroke: #262626; stroke-linejoin: miter"/>
     <use xlink:href="#m79e1fd0ef5" x="309.2335" y="234.938385" style="fill: #262626; stroke: #262626; stroke-linejoin: miter"/>
     <use xlink:href="#m79e1fd0ef5" x="309.2335" y="238.448861" style="fill: #262626; stroke: #262626; stroke-linejoin: miter"/>
    </g>
   </g>
   <g id="line2d_25">
    <path d="M 389.6715 253.022119 
L 389.6715 259.734727 
" clip-path="url(#pfac6c0c5d1)" style="fill: none; stroke: #262626; stroke-width: 1.5; stroke-linecap: round"/>
   </g>
   <g id="line2d_26">
    <path d="M 389.6715 239.217462 
L 389.6715 220.201359 
" clip-path="url(#pfac6c0c5d1)" style="fill: none; stroke: #262626; stroke-width: 1.5; stroke-linecap: round"/>
   </g>
   <g id="line2d_27">
    <path d="M 369.96419 259.734727 
L 409.37881 259.734727 
" clip-path="url(#pfac6c0c5d1)" style="fill: none; stroke: #262626; stroke-width: 1.5; stroke-linecap: round"/>
   </g>
   <g id="line2d_28">
    <path d="M 369.96419 220.201359 
L 409.37881 220.201359 
" clip-path="url(#pfac6c0c5d1)" style="fill: none; stroke: #262626; stroke-width: 1.5; stroke-linecap: round"/>
   </g>
   <g id="line2d_29"/>
   <g id="line2d_30">
    <path d="M 68.72388 263.90078 
L 147.55312 263.90078 
" clip-path="url(#pfac6c0c5d1)" style="fill: none; stroke: #262626; stroke-width: 1.5; stroke-linecap: round"/>
   </g>
   <g id="line2d_31">
    <path d="M 149.16188 252.780316 
L 227.99112 252.780316 
" clip-path="url(#pfac6c0c5d1)" style="fill: none; stroke: #262626; stroke-width: 1.5; stroke-linecap: round"/>
   </g>
   <g id="line2d_32">
    <path d="M 269.81888 262.059576 
L 348.64812 262.059576 
" clip-path="url(#pfac6c0c5d1)" style="fill: none; stroke: #262626; stroke-width: 1.5; stroke-linecap: round"/>
   </g>
   <g id="line2d_33">
    <path d="M 350.25688 244.969345 
L 429.08612 244.969345 
" clip-path="url(#pfac6c0c5d1)" style="fill: none; stroke: #262626; stroke-width: 1.5; stroke-linecap: round"/>
   </g>
   <g id="patch_9">
    <path d="M 47.81 303.64 
L 47.81 27.036 
" style="fill: none; stroke: #cccccc; stroke-width: 0.8; stroke-linejoin: miter; stroke-linecap: square"/>
   </g>
   <g id="patch_10">
    <path d="M 450 303.64 
L 450 27.036 
" style="fill: none; stroke: #cccccc; stroke-width: 0.8; stroke-linejoin: miter; stroke-linecap: square"/>
   </g>
   <g id="patch_11">
    <path d="M 47.81 303.64 
L 450 303.64 
" style="fill: none; stroke: #cccccc; stroke-width: 0.8; stroke-linejoin: miter; stroke-linecap: square"/>
   </g>
   <g id="patch_12">
    <path d="M 47.81 27.036 
L 450 27.036 
" style="fill: none; stroke: #cccccc; stroke-width: 0.8; stroke-linejoin: miter; stroke-linecap: square"/>
   </g>
   <g id="PathCollection_3">
    <defs>
     <path id="C0_0_2f998b48c3" d="M 0 1 
C 0.265203 1 0.51958 0.894634 0.707107 0.707107 
C 0.894634 0.51958 1 0.265203 1 -0 
C 1 -0.265203 0.894634 -0.51958 0.707107 -0.707107 
C 0.51958 -0.894634 0.265203 -1 0 -1 
C -0.265203 -1 -0.51958 -0.894634 -0.707107 -0.707107 
C -0.894634 -0.51958 -1 -0.265203 -1 0 
C -1 0.265203 -0.894634 0.51958 -0.707107 0.707107 
C -0.51958 0.894634 -0.265203 1 0 1 
z
"/>
    </defs>
    <g clip-path="url(#pfac6c0c5d1)">
     <use xlink:href="#C0_0_2f998b48c3" x="106.472096" y="270.221668" style="fill: #262626"/>
    </g>
    <g clip-path="url(#pfac6c0c5d1)">
     <use xlink:href="#C0_0_2f998b48c3" x="113.274371" y="278.704358" style="fill: #262626"/>
    </g>
    <g clip-path="url(#pfac6c0c5d1)">
     <use xlink:href="#C0_0_2f998b48c3" x="104.640302" y="275.396304" style="fill: #262626"/>
    </g>
    <g clip-path="url(#pfac6c0c5d1)">
     <use xlink:href="#C0_0_2f998b48c3" x="113.115382" y="251.211631" style="fill: #262626"/>
    </g>
    <g clip-path="url(#pfac6c0c5d1)">
     <use xlink:href="#C0_0_2f998b48c3" x="100.309507" y="254.476481" style="fill: #262626"/>
    </g>
    <g clip-path="url(#pfac6c0c5d1)">
     <use xlink:href="#C0_0_2f998b48c3" x="99.253229" y="263.150159" style="fill: #262626"/>
    </g>
    <g clip-path="url(#pfac6c0c5d1)">
     <use xlink:href="#C0_0_2f998b48c3" x="103.085275" y="247.807055" style="fill: #262626"/>
    </g>
    <g clip-path="url(#pfac6c0c5d1)">
     <use xlink:href="#C0_0_2f998b48c3" x="109.775204" y="267.031428" style="fill: #262626"/>
    </g>
    <g clip-path="url(#pfac6c0c5d1)">
     <use xlink:href="#C0_0_2f998b48c3" x="112.079317" y="253.254059" style="fill: #262626"/>
    </g>
    <g clip-path="url(#pfac6c0c5d1)">
     <use xlink:href="#C0_0_2f998b48c3" x="106.329606" y="258.399217" style="fill: #262626"/>
    </g>
    <g clip-path="url(#pfac6c0c5d1)">
     <use xlink:href="#C0_0_2f998b48c3" x="98.377421" y="270.903393" style="fill: #262626"/>
    </g>
    <g clip-path="url(#pfac6c0c5d1)">
     <use xlink:href="#C0_0_2f998b48c3" x="99.337341" y="269.150018" style="fill: #262626"/>
    </g>
    <g clip-path="url(#pfac6c0c5d1)">
     <use xlink:href="#C0_0_2f998b48c3" x="98.850464" y="286.848967" style="fill: #262626"/>
    </g>
    <g clip-path="url(#pfac6c0c5d1)">
     <use xlink:href="#C0_0_2f998b48c3" x="115.153556" y="254.709062" style="fill: #262626"/>
    </g>
    <g clip-path="url(#pfac6c0c5d1)">
     <use xlink:href="#C0_0_2f998b48c3" x="107.097731" y="261.497203" style="fill: #262626"/>
    </g>
    <g clip-path="url(#pfac6c0c5d1)">
     <use xlink:href="#C0_0_2f998b48c3" x="115.909332" y="259.440501" style="fill: #262626"/>
    </g>
    <g clip-path="url(#pfac6c0c5d1)">
     <use xlink:href="#C0_0_2f998b48c3" x="116.762771" y="238.202402" style="fill: #262626"/>
    </g>
    <g clip-path="url(#pfac6c0c5d1)">
     <use xlink:href="#C0_0_2f998b48c3" x="103.31637" y="274.365698" style="fill: #262626"/>
    </g>
    <g clip-path="url(#pfac6c0c5d1)">
     <use xlink:href="#C0_0_2f998b48c3" x="103.925877" y="290.433673" style="fill: #262626"/>
    </g>
    <g clip-path="url(#pfac6c0c5d1)">
     <use xlink:href="#C0_0_2f998b48c3" x="116.663093" y="272.047435" style="fill: #262626"/>
    </g>
    <g clip-path="url(#pfac6c0c5d1)">
     <use xlink:href="#C0_0_2f998b48c3" x="116.92878" y="267.577767" style="fill: #262626"/>
    </g>
    <g clip-path="url(#pfac6c0c5d1)">
     <use xlink:href="#C0_0_2f998b48c3" x="99.883103" y="255.589662" style="fill: #262626"/>
    </g>
    <g clip-path="url(#pfac6c0c5d1)">
     <use xlink:href="#C0_0_2f998b48c3" x="98.878273" y="223.422925" style="fill: #262626"/>
    </g>
    <g clip-path="url(#pfac6c0c5d1)">
     <use xlink:href="#C0_0_2f998b48c3" x="111.805267" y="261.141952" style="fill: #262626"/>
    </g>
    <g clip-path="url(#pfac6c0c5d1)">
     <use xlink:href="#C0_0_2f998b48c3" x="103.61973" y="264.651401" style="fill: #262626"/>
    </g>
    <g clip-path="url(#pfac6c0c5d1)">
     <use xlink:href="#C0_0_2f998b48c3" x="106.761862" y="274.429716" style="fill: #262626"/>
    </g>
    <g clip-path="url(#pfac6c0c5d1)">
     <use xlink:href="#C0_0_2f998b48c3" x="116.096129" y="240.309618" style="fill: #262626"/>
    </g>
    <g clip-path="url(#pfac6c0c5d1)">
     <use xlink:href="#C0_0_2f998b48c3" x="114.410967" y="248.863937" style="fill: #262626"/>
    </g>
    <g clip-path="url(#pfac6c0c5d1)">
     <use xlink:href="#C0_0_2f998b48c3" x="113.09994" y="266.492929" style="fill: #262626"/>
    </g>
    <g clip-path="url(#pfac6c0c5d1)">
     <use xlink:href="#C0_0_2f998b48c3" x="117.931284" y="279.167874" style="fill: #262626"/>
    </g>
    <g clip-path="url(#pfac6c0c5d1)">
     <use xlink:href="#C0_0_2f998b48c3" x="112.703556" y="262.510038" style="fill: #262626"/>
    </g>
    <g clip-path="url(#pfac6c0c5d1)">
     <use xlink:href="#C0_0_2f998b48c3" x="100.061705" y="270.626023" style="fill: #262626"/>
    </g>
    <g clip-path="url(#pfac6c0c5d1)">
     <use xlink:href="#C0_0_2f998b48c3" x="104.115658" y="265.661275" style="fill: #262626"/>
    </g>
    <g clip-path="url(#pfac6c0c5d1)">
     <use xlink:href="#C0_0_2f998b48c3" x="102.726733" y="278.821554" style="fill: #262626"/>
    </g>
    <g clip-path="url(#pfac6c0c5d1)">
     <use xlink:href="#C0_0_2f998b48c3" x="104.662455" y="258.462938" style="fill: #262626"/>
    </g>
    <g clip-path="url(#pfac6c0c5d1)">
     <use xlink:href="#C0_0_2f998b48c3" x="100.74731" y="257.645094" style="fill: #262626"/>
    </g>
   </g>
   <g id="PathCollection_4">
    <defs>
     <path id="C1_0_fc057cd62d" d="M 0 1 
C 0.265203 1 0.51958 0.894634 0.707107 0.707107 
C 0.894634 0.51958 1 0.265203 1 -0 
C 1 -0.265203 0.894634 -0.51958 0.707107 -0.707107 
C 0.51958 -0.894634 0.265203 -1 0 -1 
C -0.265203 -1 -0.51958 -0.894634 -0.707107 -0.707107 
C -0.894634 -0.51958 -1 -0.265203 -1 0 
C -1 0.265203 -0.894634 0.51958 -0.707107 0.707107 
C -0.51958 0.894634 -0.265203 1 0 1 
z
"/>
    </defs>
    <g clip-path="url(#pfac6c0c5d1)">
     <use xlink:href="#C1_0_fc057cd62d" x="196.939839" y="246.091854"/>
    </g>
    <g clip-path="url(#pfac6c0c5d1)">
     <use xlink:href="#C1_0_fc057cd62d" x="181.716981" y="245.293995"/>
    </g>
    <g clip-path="url(#pfac6c0c5d1)">
     <use xlink:href="#C1_0_fc057cd62d" x="194.703306" y="225.912494"/>
    </g>
    <g clip-path="url(#pfac6c0c5d1)">
     <use xlink:href="#C1_0_fc057cd62d" x="196.320546" y="264.609398"/>
    </g>
    <g clip-path="url(#pfac6c0c5d1)">
     <use xlink:href="#C1_0_fc057cd62d" x="191.965114" y="265.805713"/>
    </g>
    <g clip-path="url(#pfac6c0c5d1)">
     <use xlink:href="#C1_0_fc057cd62d" x="188.569457" y="275.263488"/>
    </g>
    <g clip-path="url(#pfac6c0c5d1)">
     <use xlink:href="#C1_0_fc057cd62d" x="180.722147" y="247.529265"/>
    </g>
    <g clip-path="url(#pfac6c0c5d1)">
     <use xlink:href="#C1_0_fc057cd62d" x="186.486623" y="254.486238"/>
    </g>
    <g clip-path="url(#pfac6c0c5d1)">
     <use xlink:href="#C1_0_fc057cd62d" x="196.989819" y="251.430122"/>
    </g>
    <g clip-path="url(#pfac6c0c5d1)">
     <use xlink:href="#C1_0_fc057cd62d" x="186.484951" y="260.470452"/>
    </g>
    <g clip-path="url(#pfac6c0c5d1)">
     <use xlink:href="#C1_0_fc057cd62d" x="192.896837" y="256.067312"/>
    </g>
    <g clip-path="url(#pfac6c0c5d1)">
     <use xlink:href="#C1_0_fc057cd62d" x="185.641315" y="254.130509"/>
    </g>
    <g clip-path="url(#pfac6c0c5d1)">
     <use xlink:href="#C1_0_fc057cd62d" x="181.227514" y="247.826382"/>
    </g>
    <g clip-path="url(#pfac6c0c5d1)">
     <use xlink:href="#C1_0_fc057cd62d" x="182.617223" y="245.149857"/>
    </g>
   </g>
   <g id="PathCollection_5">
    <defs>
     <path id="C2_0_c2b22d1664" d="M 0 1 
C 0.265203 1 0.51958 0.894634 0.707107 0.707107 
C 0.894634 0.51958 1 0.265203 1 -0 
C 1 -0.265203 0.894634 -0.51958 0.707107 -0.707107 
C 0.51958 -0.894634 0.265203 -1 0 -1 
C -0.265203 -1 -0.51958 -0.894634 -0.707107 -0.707107 
C -0.894634 -0.51958 -1 -0.265203 -1 0 
C -1 0.265203 -0.894634 0.51958 -0.707107 0.707107 
C -0.51958 0.894634 -0.265203 1 0 1 
z
"/>
    </defs>
    <g clip-path="url(#pfac6c0c5d1)">
     <use xlink:href="#C2_0_c2b22d1664" x="308.347574" y="248.577557" style="fill: #262626"/>
    </g>
    <g clip-path="url(#pfac6c0c5d1)">
     <use xlink:href="#C2_0_c2b22d1664" x="314.207468" y="267.757557" style="fill: #262626"/>
    </g>
    <g clip-path="url(#pfac6c0c5d1)">
     <use xlink:href="#C2_0_c2b22d1664" x="302.149283" y="221.174072" style="fill: #262626"/>
    </g>
    <g clip-path="url(#pfac6c0c5d1)">
     <use xlink:href="#C2_0_c2b22d1664" x="310.682562" y="269.665351" style="fill: #262626"/>
    </g>
    <g clip-path="url(#pfac6c0c5d1)">
     <use xlink:href="#C2_0_c2b22d1664" x="303.935338" y="261.785343" style="fill: #262626"/>
    </g>
    <g clip-path="url(#pfac6c0c5d1)">
     <use xlink:href="#C2_0_c2b22d1664" x="305.837718" y="253.755809" style="fill: #262626"/>
    </g>
    <g clip-path="url(#pfac6c0c5d1)">
     <use xlink:href="#C2_0_c2b22d1664" x="316.310469" y="254.705418" style="fill: #262626"/>
    </g>
    <g clip-path="url(#pfac6c0c5d1)">
     <use xlink:href="#C2_0_c2b22d1664" x="319.134786" y="262.000744" style="fill: #262626"/>
    </g>
    <g clip-path="url(#pfac6c0c5d1)">
     <use xlink:href="#C2_0_c2b22d1664" x="317.850989" y="264.304915" style="fill: #262626"/>
    </g>
    <g clip-path="url(#pfac6c0c5d1)">
     <use xlink:href="#C2_0_c2b22d1664" x="309.722011" y="262.131361" style="fill: #262626"/>
    </g>
    <g clip-path="url(#pfac6c0c5d1)">
     <use xlink:href="#C2_0_c2b22d1664" x="304.218062" y="254.456269" style="fill: #262626"/>
    </g>
    <g clip-path="url(#pfac6c0c5d1)">
     <use xlink:href="#C2_0_c2b22d1664" x="311.884717" y="234.938385" style="fill: #262626"/>
    </g>
    <g clip-path="url(#pfac6c0c5d1)">
     <use xlink:href="#C2_0_c2b22d1664" x="317.672402" y="238.448861" style="fill: #262626"/>
    </g>
    <g clip-path="url(#pfac6c0c5d1)">
     <use xlink:href="#C2_0_c2b22d1664" x="311.759513" y="274.270084" style="fill: #262626"/>
    </g>
    <g clip-path="url(#pfac6c0c5d1)">
     <use xlink:href="#C2_0_c2b22d1664" x="307.553944" y="259.970588" style="fill: #262626"/>
    </g>
    <g clip-path="url(#pfac6c0c5d1)">
     <use xlink:href="#C2_0_c2b22d1664" x="299.466986" y="272.276205" style="fill: #262626"/>
    </g>
    <g clip-path="url(#pfac6c0c5d1)">
     <use xlink:href="#C2_0_c2b22d1664" x="301.835349" y="245.894841" style="fill: #262626"/>
    </g>
    <g clip-path="url(#pfac6c0c5d1)">
     <use xlink:href="#C2_0_c2b22d1664" x="310.216538" y="263.871934" style="fill: #262626"/>
    </g>
    <g clip-path="url(#pfac6c0c5d1)">
     <use xlink:href="#C2_0_c2b22d1664" x="316.512135" y="265.094836" style="fill: #262626"/>
    </g>
    <g clip-path="url(#pfac6c0c5d1)">
     <use xlink:href="#C2_0_c2b22d1664" x="307.273848" y="266.39614" style="fill: #262626"/>
    </g>
    <g clip-path="url(#pfac6c0c5d1)">
     <use xlink:href="#C2_0_c2b22d1664" x="316.946642" y="261.227575" style="fill: #262626"/>
    </g>
    <g clip-path="url(#pfac6c0c5d1)">
     <use xlink:href="#C2_0_c2b22d1664" x="307.52345" y="262.04013" style="fill: #262626"/>
    </g>
    <g clip-path="url(#pfac6c0c5d1)">
     <use xlink:href="#C2_0_c2b22d1664" x="309.014669" y="270.025309" style="fill: #262626"/>
    </g>
    <g clip-path="url(#pfac6c0c5d1)">
     <use xlink:href="#C2_0_c2b22d1664" x="309.505856" y="260.993802" style="fill: #262626"/>
    </g>
    <g clip-path="url(#pfac6c0c5d1)">
     <use xlink:href="#C2_0_c2b22d1664" x="299.510172" y="262.589865" style="fill: #262626"/>
    </g>
    <g clip-path="url(#pfac6c0c5d1)">
     <use xlink:href="#C2_0_c2b22d1664" x="300.817458" y="265.162792" style="fill: #262626"/>
    </g>
    <g clip-path="url(#pfac6c0c5d1)">
     <use xlink:href="#C2_0_c2b22d1664" x="314.651117" y="267.177325" style="fill: #262626"/>
    </g>
    <g clip-path="url(#pfac6c0c5d1)">
     <use xlink:href="#C2_0_c2b22d1664" x="308.641602" y="262.079021" style="fill: #262626"/>
    </g>
    <g clip-path="url(#pfac6c0c5d1)">
     <use xlink:href="#C2_0_c2b22d1664" x="312.109922" y="262.426356" style="fill: #262626"/>
    </g>
    <g clip-path="url(#pfac6c0c5d1)">
     <use xlink:href="#C2_0_c2b22d1664" x="303.096026" y="255.475615" style="fill: #262626"/>
    </g>
   </g>
   <g id="PathCollection_6">
    <defs>
     <path id="C3_0_42eca8372d" d="M 0 1 
C 0.265203 1 0.51958 0.894634 0.707107 0.707107 
C 0.894634 0.51958 1 0.265203 1 -0 
C 1 -0.265203 0.894634 -0.51958 0.707107 -0.707107 
C 0.51958 -0.894634 0.265203 -1 0 -1 
C -0.265203 -1 -0.51958 -0.894634 -0.707107 -0.707107 
C -0.894634 -0.51958 -1 -0.265203 -1 0 
C -1 0.265203 -0.894634 0.51958 -0.707107 0.707107 
C -0.51958 0.894634 -0.265203 1 0 1 
z
"/>
    </defs>
    <g clip-path="url(#pfac6c0c5d1)">
     <use xlink:href="#C3_0_42eca8372d" x="381.505394" y="253.672674"/>
    </g>
    <g clip-path="url(#pfac6c0c5d1)">
     <use xlink:href="#C3_0_42eca8372d" x="395.936511" y="245.11424"/>
    </g>
    <g clip-path="url(#pfac6c0c5d1)">
     <use xlink:href="#C3_0_42eca8372d" x="384.618079" y="239.677573"/>
    </g>
    <g clip-path="url(#pfac6c0c5d1)">
     <use xlink:href="#C3_0_42eca8372d" x="394.256308" y="256.689429"/>
    </g>
    <g clip-path="url(#pfac6c0c5d1)">
     <use xlink:href="#C3_0_42eca8372d" x="392.069423" y="242.606582"/>
    </g>
    <g clip-path="url(#pfac6c0c5d1)">
     <use xlink:href="#C3_0_42eca8372d" x="381.887289" y="257.293082"/>
    </g>
    <g clip-path="url(#pfac6c0c5d1)">
     <use xlink:href="#C3_0_42eca8372d" x="388.086989" y="239.064092"/>
    </g>
    <g clip-path="url(#pfac6c0c5d1)">
     <use xlink:href="#C3_0_42eca8372d" x="383.193082" y="258.546531"/>
    </g>
    <g clip-path="url(#pfac6c0c5d1)">
     <use xlink:href="#C3_0_42eca8372d" x="381.953815" y="250.009152"/>
    </g>
    <g clip-path="url(#pfac6c0c5d1)">
     <use xlink:href="#C3_0_42eca8372d" x="390.002723" y="235.207021"/>
    </g>
    <g clip-path="url(#pfac6c0c5d1)">
     <use xlink:href="#C3_0_42eca8372d" x="387.618466" y="238.956087"/>
    </g>
    <g clip-path="url(#pfac6c0c5d1)">
     <use xlink:href="#C3_0_42eca8372d" x="397.663122" y="242.490157"/>
    </g>
    <g clip-path="url(#pfac6c0c5d1)">
     <use xlink:href="#C3_0_42eca8372d" x="381.713261" y="222.507249"/>
    </g>
    <g clip-path="url(#pfac6c0c5d1)">
     <use xlink:href="#C3_0_42eca8372d" x="390.793279" y="250.399128"/>
    </g>
    <g clip-path="url(#pfac6c0c5d1)">
     <use xlink:href="#C3_0_42eca8372d" x="395.097885" y="259.734727"/>
    </g>
    <g clip-path="url(#pfac6c0c5d1)">
     <use xlink:href="#C3_0_42eca8372d" x="391.593774" y="220.201359"/>
    </g>
    <g clip-path="url(#pfac6c0c5d1)">
     <use xlink:href="#C3_0_42eca8372d" x="389.546459" y="251.070455"/>
    </g>
    <g clip-path="url(#pfac6c0c5d1)">
     <use xlink:href="#C3_0_42eca8372d" x="380.621502" y="238.272833"/>
    </g>
    <g clip-path="url(#pfac6c0c5d1)">
     <use xlink:href="#C3_0_42eca8372d" x="388.538639" y="247.885025"/>
    </g>
    <g clip-path="url(#pfac6c0c5d1)">
     <use xlink:href="#C3_0_42eca8372d" x="388.64825" y="242.249544"/>
    </g>
    <g clip-path="url(#pfac6c0c5d1)">
     <use xlink:href="#C3_0_42eca8372d" x="381.764259" y="255.370674"/>
    </g>
    <g clip-path="url(#pfac6c0c5d1)">
     <use xlink:href="#C3_0_42eca8372d" x="381.09327" y="244.824451"/>
    </g>
   </g>
   <g id="text_14">
    <!-- 36 -->
    <g style="fill: #262626" transform="translate(118.19325 18.392125)scale(0.1 -0.1)">
     <defs>
      <path id="DejaVuSans-33" d="M 2597 2516 
Q 3050 2419 3304 2112 
Q 3559 1806 3559 1356 
Q 3559 666 3084 287 
Q 2609 -91 1734 -91 
Q 1441 -91 1130 -33 
Q 819 25 488 141 
L 488 750 
Q 750 597 1062 519 
Q 1375 441 1716 441 
Q 2309 441 2620 675 
Q 2931 909 2931 1356 
Q 2931 1769 2642 2001 
Q 2353 2234 1838 2234 
L 1294 2234 
L 1294 2753 
L 1863 2753 
Q 2328 2753 2575 2939 
Q 2822 3125 2822 3475 
Q 2822 3834 2567 4026 
Q 2313 4219 1838 4219 
Q 1578 4219 1281 4162 
Q 984 4106 628 3988 
L 628 4550 
Q 988 4650 1302 4700 
Q 1616 4750 1894 4750 
Q 2613 4750 3031 4423 
Q 3450 4097 3450 3541 
Q 3450 3153 3228 2886 
Q 3006 2619 2597 2516 
z
" transform="scale(0.015625)"/>
     </defs>
     <use xlink:href="#DejaVuSans-33"/>
     <use xlink:href="#DejaVuSans-36" x="63.623047"/>
    </g>
   </g>
   <g id="text_15">
    <!-- p&lt;.05 -->
    <g style="fill: #262626" transform="translate(105.94075 214.77905)scale(0.08 -0.08)">
     <defs>
      <path id="DejaVuSans-3c" d="M 4684 3150 
L 1459 2003 
L 4684 863 
L 4684 294 
L 678 1747 
L 678 2266 
L 4684 3719 
L 4684 3150 
z
" transform="scale(0.015625)"/>
      <path id="DejaVuSans-35" d="M 691 4666 
L 3169 4666 
L 3169 4134 
L 1269 4134 
L 1269 2991 
Q 1406 3038 1543 3061 
Q 1681 3084 1819 3084 
Q 2600 3084 3056 2656 
Q 3513 2228 3513 1497 
Q 3513 744 3044 326 
Q 2575 -91 1722 -91 
Q 1428 -91 1123 -41 
Q 819 9 494 109 
L 494 744 
Q 775 591 1075 516 
Q 1375 441 1709 441 
Q 2250 441 2565 725 
Q 2881 1009 2881 1497 
Q 2881 1984 2565 2268 
Q 2250 2553 1709 2553 
Q 1456 2553 1204 2497 
Q 953 2441 691 2322 
L 691 4666 
z
" transform="scale(0.015625)"/>
     </defs>
     <use xlink:href="#DejaVuSans-70"/>
     <use xlink:href="#DejaVuSans-3c" x="63.476562"/>
     <use xlink:href="#DejaVuSans-2e" x="147.265625"/>
     <use xlink:href="#DejaVuSans-30" x="179.052734"/>
     <use xlink:href="#DejaVuSans-35" x="242.675781"/>
    </g>
   </g>
   <g id="text_16">
    <!-- 14 -->
    <g style="fill: #262626" transform="translate(178.52175 18.392125)scale(0.1 -0.1)">
     <use xlink:href="#DejaVuSans-31"/>
     <use xlink:href="#DejaVuSans-34" x="63.623047"/>
    </g>
   </g>
   <g id="text_17">
    <!-- 30 -->
    <g style="fill: #262626" transform="translate(319.28825 18.392125)scale(0.1 -0.1)">
     <use xlink:href="#DejaVuSans-33"/>
     <use xlink:href="#DejaVuSans-30" x="63.623047"/>
    </g>
   </g>
   <g id="text_18">
    <!-- p&lt;.005 -->
    <g style="fill: #262626" transform="translate(304.49075 212.530197)scale(0.08 -0.08)">
     <use xlink:href="#DejaVuSans-70"/>
     <use xlink:href="#DejaVuSans-3c" x="63.476562"/>
     <use xlink:href="#DejaVuSans-2e" x="147.265625"/>
     <use xlink:href="#DejaVuSans-30" x="179.052734"/>
     <use xlink:href="#DejaVuSans-30" x="242.675781"/>
     <use xlink:href="#DejaVuSans-35" x="306.298828"/>
    </g>
   </g>
   <g id="text_19">
    <!-- 22 -->
    <g style="fill: #262626" transform="translate(379.61675 18.392125)scale(0.1 -0.1)">
     <use xlink:href="#DejaVuSans-32"/>
     <use xlink:href="#DejaVuSans-32" x="63.623047"/>
    </g>
   </g>
   <g id="legend_1">
    <g id="patch_13">
     <path d="M 377.728125 43.634437 
L 397.728125 43.634437 
L 397.728125 36.634437 
L 377.728125 36.634437 
z
" style="fill: #ecf2ec; stroke: #262626; stroke-width: 0.75; stroke-linejoin: miter"/>
    </g>
    <g id="text_20">
     <!-- Mutant -->
     <g style="fill: #262626" transform="translate(405.728125 43.634437)scale(0.1 -0.1)">
      <defs>
       <path id="DejaVuSans-4d" d="M 628 4666 
L 1569 4666 
L 2759 1491 
L 3956 4666 
L 4897 4666 
L 4897 0 
L 4281 0 
L 4281 4097 
L 3078 897 
L 2444 897 
L 1241 4097 
L 1241 0 
L 628 0 
L 628 4666 
z
" transform="scale(0.015625)"/>
       <path id="DejaVuSans-75" d="M 544 1381 
L 544 3500 
L 1119 3500 
L 1119 1403 
Q 1119 906 1312 657 
Q 1506 409 1894 409 
Q 2359 409 2629 706 
Q 2900 1003 2900 1516 
L 2900 3500 
L 3475 3500 
L 3475 0 
L 2900 0 
L 2900 538 
Q 2691 219 2414 64 
Q 2138 -91 1772 -91 
Q 1169 -91 856 284 
Q 544 659 544 1381 
z
M 1991 3584 
L 1991 3584 
z
" transform="scale(0.015625)"/>
       <path id="DejaVuSans-61" d="M 2194 1759 
Q 1497 1759 1228 1600 
Q 959 1441 959 1056 
Q 959 750 1161 570 
Q 1363 391 1709 391 
Q 2188 391 2477 730 
Q 2766 1069 2766 1631 
L 2766 1759 
L 2194 1759 
z
M 3341 1997 
L 3341 0 
L 2766 0 
L 2766 531 
Q 2569 213 2275 61 
Q 1981 -91 1556 -91 
Q 1019 -91 701 211 
Q 384 513 384 1019 
Q 384 1609 779 1909 
Q 1175 2209 1959 2209 
L 2766 2209 
L 2766 2266 
Q 2766 2663 2505 2880 
Q 2244 3097 1772 3097 
Q 1472 3097 1187 3025 
Q 903 2953 641 2809 
L 641 3341 
Q 956 3463 1253 3523 
Q 1550 3584 1831 3584 
Q 2591 3584 2966 3190 
Q 3341 2797 3341 1997 
z
" transform="scale(0.015625)"/>
      </defs>
      <use xlink:href="#DejaVuSans-4d"/>
      <use xlink:href="#DejaVuSans-75" x="86.279297"/>
      <use xlink:href="#DejaVuSans-74" x="149.658203"/>
      <use xlink:href="#DejaVuSans-61" x="188.867188"/>
      <use xlink:href="#DejaVuSans-6e" x="250.146484"/>
      <use xlink:href="#DejaVuSans-74" x="313.525391"/>
     </g>
    </g>
    <g id="patch_14">
     <path d="M 377.728125 58.312562 
L 397.728125 58.312562 
L 397.728125 51.312562 
L 377.728125 51.312562 
z
" style="fill: #107010; stroke: #262626; stroke-width: 0.75; stroke-linejoin: miter"/>
    </g>
    <g id="text_21">
     <!-- WT -->
     <g style="fill: #262626" transform="translate(405.728125 58.312562)scale(0.1 -0.1)">
      <defs>
       <path id="DejaVuSans-57" d="M 213 4666 
L 850 4666 
L 1831 722 
L 2809 4666 
L 3519 4666 
L 4500 722 
L 5478 4666 
L 6119 4666 
L 4947 0 
L 4153 0 
L 3169 4050 
L 2175 0 
L 1381 0 
L 213 4666 
z
" transform="scale(0.015625)"/>
       <path id="DejaVuSans-54" d="M -19 4666 
L 3928 4666 
L 3928 4134 
L 2272 4134 
L 2272 0 
L 1638 0 
L 1638 4134 
L -19 4134 
L -19 4666 
z
" transform="scale(0.015625)"/>
      </defs>
      <use xlink:href="#DejaVuSans-57"/>
      <use xlink:href="#DejaVuSans-54" x="98.876953"/>
     </g>
    </g>
   </g>
  </g>
 </g>
 <defs>
  <clipPath id="pfac6c0c5d1">
   <rect x="47.81" y="27.036" width="402.19" height="276.604"/>
  </clipPath>
 </defs>
</svg>
