<?xml version="1.0" encoding="utf-8" standalone="no"?>
<!DOCTYPE svg PUBLIC "-//W3C//DTD SVG 1.1//EN"
  "http://www.w3.org/Graphics/SVG/1.1/DTD/svg11.dtd">
<svg xmlns:xlink="http://www.w3.org/1999/xlink" width="460.8pt" height="345.6pt" viewBox="0 0 460.8 345.6" xmlns="http://www.w3.org/2000/svg" version="1.1">
 <metadata>
  <rdf:RDF xmlns:dc="http://purl.org/dc/elements/1.1/" xmlns:cc="http://creativecommons.org/ns#" xmlns:rdf="http://www.w3.org/1999/02/22-rdf-syntax-ns#">
   <cc:Work>
    <dc:type rdf:resource="http://purl.org/dc/dcmitype/StillImage"/>
    <dc:date>2024-02-03T13:05:58.099127</dc:date>
    <dc:format>image/svg+xml</dc:format>
    <dc:creator>
     <cc:Agent>
      <dc:title>Matplotlib v3.5.3, https://matplotlib.org/</dc:title>
     </cc:Agent>
    </dc:creator>
   </cc:Work>
  </rdf:RDF>
 </metadata>
 <defs>
  <style type="text/css">*{stroke-linejoin: round; stroke-linecap: butt}</style>
 </defs>
 <g id="figure_1">
  <g id="patch_1">
   <path d="M 0 345.6 
L 460.8 345.6 
L 460.8 0 
L 0 0 
z
" style="fill: #ffffff"/>
  </g>
  <g id="axes_1">
   <g id="patch_2">
    <path d="M 47.82125 303.64 
L 450 303.64 
L 450 46.675714 
L 47.82125 46.675714 
z
" style="fill: #ffffff"/>
   </g>
   <g id="PathCollection_1">
    <defs>
     <path id="m9c26c8140c" d="M 0 3 
C 0.795609 3 1.55874 2.683901 2.12132 2.12132 
C 2.683901 1.55874 3 0.795609 3 0 
C 3 -0.795609 2.683901 -1.55874 2.12132 -2.12132 
C 1.55874 -2.683901 0.795609 -3 0 -3 
C -0.795609 -3 -1.55874 -2.683901 -2.12132 -2.12132 
C -2.683901 -1.55874 -3 -0.795609 -3 0 
C -3 0.795609 -2.683901 1.55874 -2.12132 2.12132 
C -1.55874 2.683901 -0.795609 3 0 3 
z
" style="stroke: #1f77b4"/>
    </defs>
    <g clip-path="url(#pbb6719c09e)">
     <use xlink:href="#m9c26c8140c" x="234.076477" y="211.452256" style="fill: #1f77b4; stroke: #1f77b4"/>
     <use xlink:href="#m9c26c8140c" x="152.09637" y="237.904437" style="fill: #1f77b4; stroke: #1f77b4"/>
     <use xlink:href="#m9c26c8140c" x="94.730366" y="205.040802" style="fill: #1f77b4; stroke: #1f77b4"/>
     <use xlink:href="#m9c26c8140c" x="272.229249" y="176.565231" style="fill: #1f77b4; stroke: #1f77b4"/>
     <use xlink:href="#m9c26c8140c" x="179.794078" y="192.089475" style="fill: #1f77b4; stroke: #1f77b4"/>
     <use xlink:href="#m9c26c8140c" x="92.887501" y="245.807099" style="fill: #1f77b4; stroke: #1f77b4"/>
     <use xlink:href="#m9c26c8140c" x="88.508417" y="208.74037" style="fill: #1f77b4; stroke: #1f77b4"/>
     <use xlink:href="#m9c26c8140c" x="99.145942" y="191.997781" style="fill: #1f77b4; stroke: #1f77b4"/>
     <use xlink:href="#m9c26c8140c" x="172.258404" y="223.41474" style="fill: #1f77b4; stroke: #1f77b4"/>
     <use xlink:href="#m9c26c8140c" x="217.837373" y="149.505995" style="fill: #1f77b4; stroke: #1f77b4"/>
     <use xlink:href="#m9c26c8140c" x="235.536172" y="174.551877" style="fill: #1f77b4; stroke: #1f77b4"/>
     <use xlink:href="#m9c26c8140c" x="66.102102" y="192.744624" style="fill: #1f77b4; stroke: #1f77b4"/>
     <use xlink:href="#m9c26c8140c" x="139.579487" y="227.775659" style="fill: #1f77b4; stroke: #1f77b4"/>
     <use xlink:href="#m9c26c8140c" x="187.658184" y="234.232784" style="fill: #1f77b4; stroke: #1f77b4"/>
     <use xlink:href="#m9c26c8140c" x="260.825383" y="232.223171" style="fill: #1f77b4; stroke: #1f77b4"/>
     <use xlink:href="#m9c26c8140c" x="103.397303" y="234.762536" style="fill: #1f77b4; stroke: #1f77b4"/>
     <use xlink:href="#m9c26c8140c" x="121.388041" y="177.883381" style="fill: #1f77b4; stroke: #1f77b4"/>
     <use xlink:href="#m9c26c8140c" x="147.023931" y="229.697583" style="fill: #1f77b4; stroke: #1f77b4"/>
     <use xlink:href="#m9c26c8140c" x="177.093643" y="181.717521" style="fill: #1f77b4; stroke: #1f77b4"/>
     <use xlink:href="#m9c26c8140c" x="198.076755" y="172.033501" style="fill: #1f77b4; stroke: #1f77b4"/>
     <use xlink:href="#m9c26c8140c" x="159.467828" y="216.62206" style="fill: #1f77b4; stroke: #1f77b4"/>
     <use xlink:href="#m9c26c8140c" x="141.00269" y="199.039058" style="fill: #1f77b4; stroke: #1f77b4"/>
     <use xlink:href="#m9c26c8140c" x="208.842004" y="157.219147" style="fill: #1f77b4; stroke: #1f77b4"/>
     <use xlink:href="#m9c26c8140c" x="177.458566" y="163.195478" style="fill: #1f77b4; stroke: #1f77b4"/>
     <use xlink:href="#m9c26c8140c" x="208.166895" y="200.068882" style="fill: #1f77b4; stroke: #1f77b4"/>
     <use xlink:href="#m9c26c8140c" x="163.518481" y="202.383688" style="fill: #1f77b4; stroke: #1f77b4"/>
     <use xlink:href="#m9c26c8140c" x="142.517123" y="224.211806" style="fill: #1f77b4; stroke: #1f77b4"/>
     <use xlink:href="#m9c26c8140c" x="125.803618" y="174.688716" style="fill: #1f77b4; stroke: #1f77b4"/>
     <use xlink:href="#m9c26c8140c" x="261.500492" y="237.522901" style="fill: #1f77b4; stroke: #1f77b4"/>
     <use xlink:href="#m9c26c8140c" x="166.857533" y="210.22348" style="fill: #1f77b4; stroke: #1f77b4"/>
     <use xlink:href="#m9c26c8140c" x="145.16282" y="198.374274" style="fill: #1f77b4; stroke: #1f77b4"/>
     <use xlink:href="#m9c26c8140c" x="269.656537" y="190.853685" style="fill: #1f77b4; stroke: #1f77b4"/>
     <use xlink:href="#m9c26c8140c" x="299.489048" y="244.144006" style="fill: #1f77b4; stroke: #1f77b4"/>
     <use xlink:href="#m9c26c8140c" x="176.43678" y="220.784876" style="fill: #1f77b4; stroke: #1f77b4"/>
     <use xlink:href="#m9c26c8140c" x="140.583027" y="258.320384" style="fill: #1f77b4; stroke: #1f77b4"/>
     <use xlink:href="#m9c26c8140c" x="167.459657" y="207.866838" style="fill: #1f77b4; stroke: #1f77b4"/>
     <use xlink:href="#m9c26c8140c" x="141.568321" y="247.064115" style="fill: #1f77b4; stroke: #1f77b4"/>
     <use xlink:href="#m9c26c8140c" x="219.205837" y="148.199371" style="fill: #1f77b4; stroke: #1f77b4"/>
     <use xlink:href="#m9c26c8140c" x="221.86978" y="225.264606" style="fill: #1f77b4; stroke: #1f77b4"/>
     <use xlink:href="#m9c26c8140c" x="220.95747" y="214.204843" style="fill: #1f77b4; stroke: #1f77b4"/>
     <use xlink:href="#m9c26c8140c" x="101.700408" y="143.979529" style="fill: #1f77b4; stroke: #1f77b4"/>
     <use xlink:href="#m9c26c8140c" x="178.863523" y="188.400536" style="fill: #1f77b4; stroke: #1f77b4"/>
     <use xlink:href="#m9c26c8140c" x="199.627681" y="253.871654" style="fill: #1f77b4; stroke: #1f77b4"/>
     <use xlink:href="#m9c26c8140c" x="160.872785" y="225.643538" style="fill: #1f77b4; stroke: #1f77b4"/>
     <use xlink:href="#m9c26c8140c" x="200.813683" y="132.507802" style="fill: #1f77b4; stroke: #1f77b4"/>
     <use xlink:href="#m9c26c8140c" x="178.900015" y="217.696818" style="fill: #1f77b4; stroke: #1f77b4"/>
     <use xlink:href="#m9c26c8140c" x="169.849907" y="149.42393" style="fill: #1f77b4; stroke: #1f77b4"/>
     <use xlink:href="#m9c26c8140c" x="203.860795" y="184.260041" style="fill: #1f77b4; stroke: #1f77b4"/>
     <use xlink:href="#m9c26c8140c" x="215.629584" y="210.29868" style="fill: #1f77b4; stroke: #1f77b4"/>
     <use xlink:href="#m9c26c8140c" x="203.076209" y="156.907179" style="fill: #1f77b4; stroke: #1f77b4"/>
     <use xlink:href="#m9c26c8140c" x="194.774196" y="220.911352" style="fill: #1f77b4; stroke: #1f77b4"/>
     <use xlink:href="#m9c26c8140c" x="431.719148" y="228.75753" style="fill: #1f77b4; stroke: #1f77b4"/>
     <use xlink:href="#m9c26c8140c" x="128.960208" y="230.416264" style="fill: #1f77b4; stroke: #1f77b4"/>
     <use xlink:href="#m9c26c8140c" x="149.487166" y="194.174137" style="fill: #1f77b4; stroke: #1f77b4"/>
     <use xlink:href="#m9c26c8140c" x="207.656002" y="201.037622" style="fill: #1f77b4; stroke: #1f77b4"/>
     <use xlink:href="#m9c26c8140c" x="259.146735" y="198.894636" style="fill: #1f77b4; stroke: #1f77b4"/>
     <use xlink:href="#m9c26c8140c" x="173.152467" y="237.810381" style="fill: #1f77b4; stroke: #1f77b4"/>
     <use xlink:href="#m9c26c8140c" x="176.017118" y="196.49163" style="fill: #1f77b4; stroke: #1f77b4"/>
     <use xlink:href="#m9c26c8140c" x="202.656547" y="231.344177" style="fill: #1f77b4; stroke: #1f77b4"/>
     <use xlink:href="#m9c26c8140c" x="212.710195" y="201.452419" style="fill: #1f77b4; stroke: #1f77b4"/>
     <use xlink:href="#m9c26c8140c" x="274.838453" y="220.526667" style="fill: #1f77b4; stroke: #1f77b4"/>
     <use xlink:href="#m9c26c8140c" x="282.629574" y="198.247789" style="fill: #1f77b4; stroke: #1f77b4"/>
     <use xlink:href="#m9c26c8140c" x="221.96101" y="185.481614" style="fill: #1f77b4; stroke: #1f77b4"/>
     <use xlink:href="#m9c26c8140c" x="198.240971" y="258.486824" style="fill: #1f77b4; stroke: #1f77b4"/>
     <use xlink:href="#m9c26c8140c" x="144.287003" y="201.799774" style="fill: #1f77b4; stroke: #1f77b4"/>
     <use xlink:href="#m9c26c8140c" x="159.376598" y="199.54148" style="fill: #1f77b4; stroke: #1f77b4"/>
     <use xlink:href="#m9c26c8140c" x="198.514663" y="218.683399" style="fill: #1f77b4; stroke: #1f77b4"/>
     <use xlink:href="#m9c26c8140c" x="161.511401" y="223.439945" style="fill: #1f77b4; stroke: #1f77b4"/>
     <use xlink:href="#m9c26c8140c" x="194.536995" y="184.928582" style="fill: #1f77b4; stroke: #1f77b4"/>
     <use xlink:href="#m9c26c8140c" x="297.062306" y="203.687373" style="fill: #1f77b4; stroke: #1f77b4"/>
     <use xlink:href="#m9c26c8140c" x="250.680505" y="210.165606" style="fill: #1f77b4; stroke: #1f77b4"/>
     <use xlink:href="#m9c26c8140c" x="186.107258" y="235.325905" style="fill: #1f77b4; stroke: #1f77b4"/>
     <use xlink:href="#m9c26c8140c" x="233.091183" y="230.960817" style="fill: #1f77b4; stroke: #1f77b4"/>
     <use xlink:href="#m9c26c8140c" x="193.953117" y="216.766862" style="fill: #1f77b4; stroke: #1f77b4"/>
     <use xlink:href="#m9c26c8140c" x="245.389111" y="230.012057" style="fill: #1f77b4; stroke: #1f77b4"/>
     <use xlink:href="#m9c26c8140c" x="215.428876" y="215.524683" style="fill: #1f77b4; stroke: #1f77b4"/>
     <use xlink:href="#m9c26c8140c" x="270.222169" y="227.07627" style="fill: #1f77b4; stroke: #1f77b4"/>
     <use xlink:href="#m9c26c8140c" x="144.049803" y="224.733751" style="fill: #1f77b4; stroke: #1f77b4"/>
     <use xlink:href="#m9c26c8140c" x="167.441411" y="116.930238" style="fill: #1f77b4; stroke: #1f77b4"/>
     <use xlink:href="#m9c26c8140c" x="157.661456" y="195.970983" style="fill: #1f77b4; stroke: #1f77b4"/>
     <use xlink:href="#m9c26c8140c" x="203.641841" y="173.367093" style="fill: #1f77b4; stroke: #1f77b4"/>
     <use xlink:href="#m9c26c8140c" x="241.721628" y="141.341879" style="fill: #1f77b4; stroke: #1f77b4"/>
     <use xlink:href="#m9c26c8140c" x="194.518749" y="210.608534" style="fill: #1f77b4; stroke: #1f77b4"/>
     <use xlink:href="#m9c26c8140c" x="249.585734" y="221.042414" style="fill: #1f77b4; stroke: #1f77b4"/>
     <use xlink:href="#m9c26c8140c" x="207.491786" y="68.897184" style="fill: #1f77b4; stroke: #1f77b4"/>
    </g>
   </g>
   <g id="matplotlib.axis_1">
    <g id="xtick_1">
     <g id="line2d_1">
      <defs>
       <path id="mdf8c101066" d="M 0 0 
L 0 3.5 
" style="stroke: #000000; stroke-width: 0.8"/>
      </defs>
      <g>
       <use xlink:href="#mdf8c101066" x="65.335763" y="303.64" style="stroke: #000000; stroke-width: 0.8"/>
      </g>
     </g>
     <g id="text_1">
      <!-- 12.5 -->
      <g transform="translate(54.20295 318.238437)scale(0.1 -0.1)">
       <defs>
        <path id="DejaVuSans-31" d="M 794 531 
L 1825 531 
L 1825 4091 
L 703 3866 
L 703 4441 
L 1819 4666 
L 2450 4666 
L 2450 531 
L 3481 531 
L 3481 0 
L 794 0 
L 794 531 
z
" transform="scale(0.015625)"/>
        <path id="DejaVuSans-32" d="M 1228 531 
L 3431 531 
L 3431 0 
L 469 0 
L 469 531 
Q 828 903 1448 1529 
Q 2069 2156 2228 2338 
Q 2531 2678 2651 2914 
Q 2772 3150 2772 3378 
Q 2772 3750 2511 3984 
Q 2250 4219 1831 4219 
Q 1534 4219 1204 4116 
Q 875 4013 500 3803 
L 500 4441 
Q 881 4594 1212 4672 
Q 1544 4750 1819 4750 
Q 2544 4750 2975 4387 
Q 3406 4025 3406 3419 
Q 3406 3131 3298 2873 
Q 3191 2616 2906 2266 
Q 2828 2175 2409 1742 
Q 1991 1309 1228 531 
z
" transform="scale(0.015625)"/>
        <path id="DejaVuSans-2e" d="M 684 794 
L 1344 794 
L 1344 0 
L 684 0 
L 684 794 
z
" transform="scale(0.015625)"/>
        <path id="DejaVuSans-35" d="M 691 4666 
L 3169 4666 
L 3169 4134 
L 1269 4134 
L 1269 2991 
Q 1406 3038 1543 3061 
Q 1681 3084 1819 3084 
Q 2600 3084 3056 2656 
Q 3513 2228 3513 1497 
Q 3513 744 3044 326 
Q 2575 -91 1722 -91 
Q 1428 -91 1123 -41 
Q 819 9 494 109 
L 494 744 
Q 775 591 1075 516 
Q 1375 441 1709 441 
Q 2250 441 2565 725 
Q 2881 1009 2881 1497 
Q 2881 1984 2565 2268 
Q 2250 2553 1709 2553 
Q 1456 2553 1204 2497 
Q 953 2441 691 2322 
L 691 4666 
z
" transform="scale(0.015625)"/>
       </defs>
       <use xlink:href="#DejaVuSans-31"/>
       <use xlink:href="#DejaVuSans-32" x="63.623047"/>
       <use xlink:href="#DejaVuSans-2e" x="127.246094"/>
       <use xlink:href="#DejaVuSans-35" x="159.033203"/>
      </g>
     </g>
    </g>
    <g id="xtick_2">
     <g id="line2d_2">
      <g>
       <use xlink:href="#mdf8c101066" x="110.951224" y="303.64" style="stroke: #000000; stroke-width: 0.8"/>
      </g>
     </g>
     <g id="text_2">
      <!-- 15.0 -->
      <g transform="translate(99.818411 318.238437)scale(0.1 -0.1)">
       <defs>
        <path id="DejaVuSans-30" d="M 2034 4250 
Q 1547 4250 1301 3770 
Q 1056 3291 1056 2328 
Q 1056 1369 1301 889 
Q 1547 409 2034 409 
Q 2525 409 2770 889 
Q 3016 1369 3016 2328 
Q 3016 3291 2770 3770 
Q 2525 4250 2034 4250 
z
M 2034 4750 
Q 2819 4750 3233 4129 
Q 3647 3509 3647 2328 
Q 3647 1150 3233 529 
Q 2819 -91 2034 -91 
Q 1250 -91 836 529 
Q 422 1150 422 2328 
Q 422 3509 836 4129 
Q 1250 4750 2034 4750 
z
" transform="scale(0.015625)"/>
       </defs>
       <use xlink:href="#DejaVuSans-31"/>
       <use xlink:href="#DejaVuSans-35" x="63.623047"/>
       <use xlink:href="#DejaVuSans-2e" x="127.246094"/>
       <use xlink:href="#DejaVuSans-30" x="159.033203"/>
      </g>
     </g>
    </g>
    <g id="xtick_3">
     <g id="line2d_3">
      <g>
       <use xlink:href="#mdf8c101066" x="156.566685" y="303.64" style="stroke: #000000; stroke-width: 0.8"/>
      </g>
     </g>
     <g id="text_3">
      <!-- 17.5 -->
      <g transform="translate(145.433873 318.238437)scale(0.1 -0.1)">
       <defs>
        <path id="DejaVuSans-37" d="M 525 4666 
L 3525 4666 
L 3525 4397 
L 1831 0 
L 1172 0 
L 2766 4134 
L 525 4134 
L 525 4666 
z
" transform="scale(0.015625)"/>
       </defs>
       <use xlink:href="#DejaVuSans-31"/>
       <use xlink:href="#DejaVuSans-37" x="63.623047"/>
       <use xlink:href="#DejaVuSans-2e" x="127.246094"/>
       <use xlink:href="#DejaVuSans-35" x="159.033203"/>
      </g>
     </g>
    </g>
    <g id="xtick_4">
     <g id="line2d_4">
      <g>
       <use xlink:href="#mdf8c101066" x="202.182146" y="303.64" style="stroke: #000000; stroke-width: 0.8"/>
      </g>
     </g>
     <g id="text_4">
      <!-- 20.0 -->
      <g transform="translate(191.049334 318.238437)scale(0.1 -0.1)">
       <use xlink:href="#DejaVuSans-32"/>
       <use xlink:href="#DejaVuSans-30" x="63.623047"/>
       <use xlink:href="#DejaVuSans-2e" x="127.246094"/>
       <use xlink:href="#DejaVuSans-30" x="159.033203"/>
      </g>
     </g>
    </g>
    <g id="xtick_5">
     <g id="line2d_5">
      <g>
       <use xlink:href="#mdf8c101066" x="247.797608" y="303.64" style="stroke: #000000; stroke-width: 0.8"/>
      </g>
     </g>
     <g id="text_5">
      <!-- 22.5 -->
      <g transform="translate(236.664795 318.238437)scale(0.1 -0.1)">
       <use xlink:href="#DejaVuSans-32"/>
       <use xlink:href="#DejaVuSans-32" x="63.623047"/>
       <use xlink:href="#DejaVuSans-2e" x="127.246094"/>
       <use xlink:href="#DejaVuSans-35" x="159.033203"/>
      </g>
     </g>
    </g>
    <g id="xtick_6">
     <g id="line2d_6">
      <g>
       <use xlink:href="#mdf8c101066" x="293.413069" y="303.64" style="stroke: #000000; stroke-width: 0.8"/>
      </g>
     </g>
     <g id="text_6">
      <!-- 25.0 -->
      <g transform="translate(282.280257 318.238437)scale(0.1 -0.1)">
       <use xlink:href="#DejaVuSans-32"/>
       <use xlink:href="#DejaVuSans-35" x="63.623047"/>
       <use xlink:href="#DejaVuSans-2e" x="127.246094"/>
       <use xlink:href="#DejaVuSans-30" x="159.033203"/>
      </g>
     </g>
    </g>
    <g id="xtick_7">
     <g id="line2d_7">
      <g>
       <use xlink:href="#mdf8c101066" x="339.02853" y="303.64" style="stroke: #000000; stroke-width: 0.8"/>
      </g>
     </g>
     <g id="text_7">
      <!-- 27.5 -->
      <g transform="translate(327.895718 318.238437)scale(0.1 -0.1)">
       <use xlink:href="#DejaVuSans-32"/>
       <use xlink:href="#DejaVuSans-37" x="63.623047"/>
       <use xlink:href="#DejaVuSans-2e" x="127.246094"/>
       <use xlink:href="#DejaVuSans-35" x="159.033203"/>
      </g>
     </g>
    </g>
    <g id="xtick_8">
     <g id="line2d_8">
      <g>
       <use xlink:href="#mdf8c101066" x="384.643992" y="303.64" style="stroke: #000000; stroke-width: 0.8"/>
      </g>
     </g>
     <g id="text_8">
      <!-- 30.0 -->
      <g transform="translate(373.511179 318.238437)scale(0.1 -0.1)">
       <defs>
        <path id="DejaVuSans-33" d="M 2597 2516 
Q 3050 2419 3304 2112 
Q 3559 1806 3559 1356 
Q 3559 666 3084 287 
Q 2609 -91 1734 -91 
Q 1441 -91 1130 -33 
Q 819 25 488 141 
L 488 750 
Q 750 597 1062 519 
Q 1375 441 1716 441 
Q 2309 441 2620 675 
Q 2931 909 2931 1356 
Q 2931 1769 2642 2001 
Q 2353 2234 1838 2234 
L 1294 2234 
L 1294 2753 
L 1863 2753 
Q 2328 2753 2575 2939 
Q 2822 3125 2822 3475 
Q 2822 3834 2567 4026 
Q 2313 4219 1838 4219 
Q 1578 4219 1281 4162 
Q 984 4106 628 3988 
L 628 4550 
Q 988 4650 1302 4700 
Q 1616 4750 1894 4750 
Q 2613 4750 3031 4423 
Q 3450 4097 3450 3541 
Q 3450 3153 3228 2886 
Q 3006 2619 2597 2516 
z
" transform="scale(0.015625)"/>
       </defs>
       <use xlink:href="#DejaVuSans-33"/>
       <use xlink:href="#DejaVuSans-30" x="63.623047"/>
       <use xlink:href="#DejaVuSans-2e" x="127.246094"/>
       <use xlink:href="#DejaVuSans-30" x="159.033203"/>
      </g>
     </g>
    </g>
    <g id="xtick_9">
     <g id="line2d_9">
      <g>
       <use xlink:href="#mdf8c101066" x="430.259453" y="303.64" style="stroke: #000000; stroke-width: 0.8"/>
      </g>
     </g>
     <g id="text_9">
      <!-- 32.5 -->
      <g transform="translate(419.12664 318.238437)scale(0.1 -0.1)">
       <use xlink:href="#DejaVuSans-33"/>
       <use xlink:href="#DejaVuSans-32" x="63.623047"/>
       <use xlink:href="#DejaVuSans-2e" x="127.246094"/>
       <use xlink:href="#DejaVuSans-35" x="159.033203"/>
      </g>
     </g>
    </g>
    <g id="text_10">
     <!-- IMM1Diff -->
     <g transform="translate(226.866875 331.916562)scale(0.1 -0.1)">
      <defs>
       <path id="DejaVuSans-49" d="M 628 4666 
L 1259 4666 
L 1259 0 
L 628 0 
L 628 4666 
z
" transform="scale(0.015625)"/>
       <path id="DejaVuSans-4d" d="M 628 4666 
L 1569 4666 
L 2759 1491 
L 3956 4666 
L 4897 4666 
L 4897 0 
L 4281 0 
L 4281 4097 
L 3078 897 
L 2444 897 
L 1241 4097 
L 1241 0 
L 628 0 
L 628 4666 
z
" transform="scale(0.015625)"/>
       <path id="DejaVuSans-44" d="M 1259 4147 
L 1259 519 
L 2022 519 
Q 2988 519 3436 956 
Q 3884 1394 3884 2338 
Q 3884 3275 3436 3711 
Q 2988 4147 2022 4147 
L 1259 4147 
z
M 628 4666 
L 1925 4666 
Q 3281 4666 3915 4102 
Q 4550 3538 4550 2338 
Q 4550 1131 3912 565 
Q 3275 0 1925 0 
L 628 0 
L 628 4666 
z
" transform="scale(0.015625)"/>
       <path id="DejaVuSans-69" d="M 603 3500 
L 1178 3500 
L 1178 0 
L 603 0 
L 603 3500 
z
M 603 4863 
L 1178 4863 
L 1178 4134 
L 603 4134 
L 603 4863 
z
" transform="scale(0.015625)"/>
       <path id="DejaVuSans-66" d="M 2375 4863 
L 2375 4384 
L 1825 4384 
Q 1516 4384 1395 4259 
Q 1275 4134 1275 3809 
L 1275 3500 
L 2222 3500 
L 2222 3053 
L 1275 3053 
L 1275 0 
L 697 0 
L 697 3053 
L 147 3053 
L 147 3500 
L 697 3500 
L 697 3744 
Q 697 4328 969 4595 
Q 1241 4863 1831 4863 
L 2375 4863 
z
" transform="scale(0.015625)"/>
      </defs>
      <use xlink:href="#DejaVuSans-49"/>
      <use xlink:href="#DejaVuSans-4d" x="29.492188"/>
      <use xlink:href="#DejaVuSans-4d" x="115.771484"/>
      <use xlink:href="#DejaVuSans-31" x="202.050781"/>
      <use xlink:href="#DejaVuSans-44" x="265.673828"/>
      <use xlink:href="#DejaVuSans-69" x="342.675781"/>
      <use xlink:href="#DejaVuSans-66" x="370.458984"/>
      <use xlink:href="#DejaVuSans-66" x="405.664062"/>
     </g>
    </g>
   </g>
   <g id="matplotlib.axis_2">
    <g id="ytick_1">
     <g id="line2d_10">
      <defs>
       <path id="m44c893fde3" d="M 0 0 
L -3.5 0 
" style="stroke: #000000; stroke-width: 0.8"/>
      </defs>
      <g>
       <use xlink:href="#m44c893fde3" x="47.82125" y="303.64" style="stroke: #000000; stroke-width: 0.8"/>
      </g>
     </g>
     <g id="text_11">
      <!-- 0.0 -->
      <g transform="translate(24.918125 307.439219)scale(0.1 -0.1)">
       <use xlink:href="#DejaVuSans-30"/>
       <use xlink:href="#DejaVuSans-2e" x="63.623047"/>
       <use xlink:href="#DejaVuSans-30" x="95.410156"/>
      </g>
     </g>
    </g>
    <g id="ytick_2">
     <g id="line2d_11">
      <g>
       <use xlink:href="#m44c893fde3" x="47.82125" y="258.829987" style="stroke: #000000; stroke-width: 0.8"/>
      </g>
     </g>
     <g id="text_12">
      <!-- 0.2 -->
      <g transform="translate(24.918125 262.629206)scale(0.1 -0.1)">
       <use xlink:href="#DejaVuSans-30"/>
       <use xlink:href="#DejaVuSans-2e" x="63.623047"/>
       <use xlink:href="#DejaVuSans-32" x="95.410156"/>
      </g>
     </g>
    </g>
    <g id="ytick_3">
     <g id="line2d_12">
      <g>
       <use xlink:href="#m44c893fde3" x="47.82125" y="214.019974" style="stroke: #000000; stroke-width: 0.8"/>
      </g>
     </g>
     <g id="text_13">
      <!-- 0.4 -->
      <g transform="translate(24.918125 217.819193)scale(0.1 -0.1)">
       <defs>
        <path id="DejaVuSans-34" d="M 2419 4116 
L 825 1625 
L 2419 1625 
L 2419 4116 
z
M 2253 4666 
L 3047 4666 
L 3047 1625 
L 3713 1625 
L 3713 1100 
L 3047 1100 
L 3047 0 
L 2419 0 
L 2419 1100 
L 313 1100 
L 313 1709 
L 2253 4666 
z
" transform="scale(0.015625)"/>
       </defs>
       <use xlink:href="#DejaVuSans-30"/>
       <use xlink:href="#DejaVuSans-2e" x="63.623047"/>
       <use xlink:href="#DejaVuSans-34" x="95.410156"/>
      </g>
     </g>
    </g>
    <g id="ytick_4">
     <g id="line2d_13">
      <g>
       <use xlink:href="#m44c893fde3" x="47.82125" y="169.209961" style="stroke: #000000; stroke-width: 0.8"/>
      </g>
     </g>
     <g id="text_14">
      <!-- 0.6 -->
      <g transform="translate(24.918125 173.00918)scale(0.1 -0.1)">
       <defs>
        <path id="DejaVuSans-36" d="M 2113 2584 
Q 1688 2584 1439 2293 
Q 1191 2003 1191 1497 
Q 1191 994 1439 701 
Q 1688 409 2113 409 
Q 2538 409 2786 701 
Q 3034 994 3034 1497 
Q 3034 2003 2786 2293 
Q 2538 2584 2113 2584 
z
M 3366 4563 
L 3366 3988 
Q 3128 4100 2886 4159 
Q 2644 4219 2406 4219 
Q 1781 4219 1451 3797 
Q 1122 3375 1075 2522 
Q 1259 2794 1537 2939 
Q 1816 3084 2150 3084 
Q 2853 3084 3261 2657 
Q 3669 2231 3669 1497 
Q 3669 778 3244 343 
Q 2819 -91 2113 -91 
Q 1303 -91 875 529 
Q 447 1150 447 2328 
Q 447 3434 972 4092 
Q 1497 4750 2381 4750 
Q 2619 4750 2861 4703 
Q 3103 4656 3366 4563 
z
" transform="scale(0.015625)"/>
       </defs>
       <use xlink:href="#DejaVuSans-30"/>
       <use xlink:href="#DejaVuSans-2e" x="63.623047"/>
       <use xlink:href="#DejaVuSans-36" x="95.410156"/>
      </g>
     </g>
    </g>
    <g id="ytick_5">
     <g id="line2d_14">
      <g>
       <use xlink:href="#m44c893fde3" x="47.82125" y="124.399948" style="stroke: #000000; stroke-width: 0.8"/>
      </g>
     </g>
     <g id="text_15">
      <!-- 0.8 -->
      <g transform="translate(24.918125 128.199167)scale(0.1 -0.1)">
       <defs>
        <path id="DejaVuSans-38" d="M 2034 2216 
Q 1584 2216 1326 1975 
Q 1069 1734 1069 1313 
Q 1069 891 1326 650 
Q 1584 409 2034 409 
Q 2484 409 2743 651 
Q 3003 894 3003 1313 
Q 3003 1734 2745 1975 
Q 2488 2216 2034 2216 
z
M 1403 2484 
Q 997 2584 770 2862 
Q 544 3141 544 3541 
Q 544 4100 942 4425 
Q 1341 4750 2034 4750 
Q 2731 4750 3128 4425 
Q 3525 4100 3525 3541 
Q 3525 3141 3298 2862 
Q 3072 2584 2669 2484 
Q 3125 2378 3379 2068 
Q 3634 1759 3634 1313 
Q 3634 634 3220 271 
Q 2806 -91 2034 -91 
Q 1263 -91 848 271 
Q 434 634 434 1313 
Q 434 1759 690 2068 
Q 947 2378 1403 2484 
z
M 1172 3481 
Q 1172 3119 1398 2916 
Q 1625 2713 2034 2713 
Q 2441 2713 2670 2916 
Q 2900 3119 2900 3481 
Q 2900 3844 2670 4047 
Q 2441 4250 2034 4250 
Q 1625 4250 1398 4047 
Q 1172 3844 1172 3481 
z
" transform="scale(0.015625)"/>
       </defs>
       <use xlink:href="#DejaVuSans-30"/>
       <use xlink:href="#DejaVuSans-2e" x="63.623047"/>
       <use xlink:href="#DejaVuSans-38" x="95.410156"/>
      </g>
     </g>
    </g>
    <g id="ytick_6">
     <g id="line2d_15">
      <g>
       <use xlink:href="#m44c893fde3" x="47.82125" y="79.589936" style="stroke: #000000; stroke-width: 0.8"/>
      </g>
     </g>
     <g id="text_16">
      <!-- 1.0 -->
      <g transform="translate(24.918125 83.389154)scale(0.1 -0.1)">
       <use xlink:href="#DejaVuSans-31"/>
       <use xlink:href="#DejaVuSans-2e" x="63.623047"/>
       <use xlink:href="#DejaVuSans-30" x="95.410156"/>
      </g>
     </g>
    </g>
    <g id="text_17">
     <!-- PercentGpA_transformed -->
     <g transform="translate(18.560313 237.696138)rotate(-90)scale(0.1 -0.1)">
      <defs>
       <path id="DejaVuSans-50" d="M 1259 4147 
L 1259 2394 
L 2053 2394 
Q 2494 2394 2734 2622 
Q 2975 2850 2975 3272 
Q 2975 3691 2734 3919 
Q 2494 4147 2053 4147 
L 1259 4147 
z
M 628 4666 
L 2053 4666 
Q 2838 4666 3239 4311 
Q 3641 3956 3641 3272 
Q 3641 2581 3239 2228 
Q 2838 1875 2053 1875 
L 1259 1875 
L 1259 0 
L 628 0 
L 628 4666 
z
" transform="scale(0.015625)"/>
       <path id="DejaVuSans-65" d="M 3597 1894 
L 3597 1613 
L 953 1613 
Q 991 1019 1311 708 
Q 1631 397 2203 397 
Q 2534 397 2845 478 
Q 3156 559 3463 722 
L 3463 178 
Q 3153 47 2828 -22 
Q 2503 -91 2169 -91 
Q 1331 -91 842 396 
Q 353 884 353 1716 
Q 353 2575 817 3079 
Q 1281 3584 2069 3584 
Q 2775 3584 3186 3129 
Q 3597 2675 3597 1894 
z
M 3022 2063 
Q 3016 2534 2758 2815 
Q 2500 3097 2075 3097 
Q 1594 3097 1305 2825 
Q 1016 2553 972 2059 
L 3022 2063 
z
" transform="scale(0.015625)"/>
       <path id="DejaVuSans-72" d="M 2631 2963 
Q 2534 3019 2420 3045 
Q 2306 3072 2169 3072 
Q 1681 3072 1420 2755 
Q 1159 2438 1159 1844 
L 1159 0 
L 581 0 
L 581 3500 
L 1159 3500 
L 1159 2956 
Q 1341 3275 1631 3429 
Q 1922 3584 2338 3584 
Q 2397 3584 2469 3576 
Q 2541 3569 2628 3553 
L 2631 2963 
z
" transform="scale(0.015625)"/>
       <path id="DejaVuSans-63" d="M 3122 3366 
L 3122 2828 
Q 2878 2963 2633 3030 
Q 2388 3097 2138 3097 
Q 1578 3097 1268 2742 
Q 959 2388 959 1747 
Q 959 1106 1268 751 
Q 1578 397 2138 397 
Q 2388 397 2633 464 
Q 2878 531 3122 666 
L 3122 134 
Q 2881 22 2623 -34 
Q 2366 -91 2075 -91 
Q 1284 -91 818 406 
Q 353 903 353 1747 
Q 353 2603 823 3093 
Q 1294 3584 2113 3584 
Q 2378 3584 2631 3529 
Q 2884 3475 3122 3366 
z
" transform="scale(0.015625)"/>
       <path id="DejaVuSans-6e" d="M 3513 2113 
L 3513 0 
L 2938 0 
L 2938 2094 
Q 2938 2591 2744 2837 
Q 2550 3084 2163 3084 
Q 1697 3084 1428 2787 
Q 1159 2491 1159 1978 
L 1159 0 
L 581 0 
L 581 3500 
L 1159 3500 
L 1159 2956 
Q 1366 3272 1645 3428 
Q 1925 3584 2291 3584 
Q 2894 3584 3203 3211 
Q 3513 2838 3513 2113 
z
" transform="scale(0.015625)"/>
       <path id="DejaVuSans-74" d="M 1172 4494 
L 1172 3500 
L 2356 3500 
L 2356 3053 
L 1172 3053 
L 1172 1153 
Q 1172 725 1289 603 
Q 1406 481 1766 481 
L 2356 481 
L 2356 0 
L 1766 0 
Q 1100 0 847 248 
Q 594 497 594 1153 
L 594 3053 
L 172 3053 
L 172 3500 
L 594 3500 
L 594 4494 
L 1172 4494 
z
" transform="scale(0.015625)"/>
       <path id="DejaVuSans-47" d="M 3809 666 
L 3809 1919 
L 2778 1919 
L 2778 2438 
L 4434 2438 
L 4434 434 
Q 4069 175 3628 42 
Q 3188 -91 2688 -91 
Q 1594 -91 976 548 
Q 359 1188 359 2328 
Q 359 3472 976 4111 
Q 1594 4750 2688 4750 
Q 3144 4750 3555 4637 
Q 3966 4525 4313 4306 
L 4313 3634 
Q 3963 3931 3569 4081 
Q 3175 4231 2741 4231 
Q 1884 4231 1454 3753 
Q 1025 3275 1025 2328 
Q 1025 1384 1454 906 
Q 1884 428 2741 428 
Q 3075 428 3337 486 
Q 3600 544 3809 666 
z
" transform="scale(0.015625)"/>
       <path id="DejaVuSans-70" d="M 1159 525 
L 1159 -1331 
L 581 -1331 
L 581 3500 
L 1159 3500 
L 1159 2969 
Q 1341 3281 1617 3432 
Q 1894 3584 2278 3584 
Q 2916 3584 3314 3078 
Q 3713 2572 3713 1747 
Q 3713 922 3314 415 
Q 2916 -91 2278 -91 
Q 1894 -91 1617 61 
Q 1341 213 1159 525 
z
M 3116 1747 
Q 3116 2381 2855 2742 
Q 2594 3103 2138 3103 
Q 1681 3103 1420 2742 
Q 1159 2381 1159 1747 
Q 1159 1113 1420 752 
Q 1681 391 2138 391 
Q 2594 391 2855 752 
Q 3116 1113 3116 1747 
z
" transform="scale(0.015625)"/>
       <path id="DejaVuSans-41" d="M 2188 4044 
L 1331 1722 
L 3047 1722 
L 2188 4044 
z
M 1831 4666 
L 2547 4666 
L 4325 0 
L 3669 0 
L 3244 1197 
L 1141 1197 
L 716 0 
L 50 0 
L 1831 4666 
z
" transform="scale(0.015625)"/>
       <path id="DejaVuSans-5f" d="M 3263 -1063 
L 3263 -1509 
L -63 -1509 
L -63 -1063 
L 3263 -1063 
z
" transform="scale(0.015625)"/>
       <path id="DejaVuSans-61" d="M 2194 1759 
Q 1497 1759 1228 1600 
Q 959 1441 959 1056 
Q 959 750 1161 570 
Q 1363 391 1709 391 
Q 2188 391 2477 730 
Q 2766 1069 2766 1631 
L 2766 1759 
L 2194 1759 
z
M 3341 1997 
L 3341 0 
L 2766 0 
L 2766 531 
Q 2569 213 2275 61 
Q 1981 -91 1556 -91 
Q 1019 -91 701 211 
Q 384 513 384 1019 
Q 384 1609 779 1909 
Q 1175 2209 1959 2209 
L 2766 2209 
L 2766 2266 
Q 2766 2663 2505 2880 
Q 2244 3097 1772 3097 
Q 1472 3097 1187 3025 
Q 903 2953 641 2809 
L 641 3341 
Q 956 3463 1253 3523 
Q 1550 3584 1831 3584 
Q 2591 3584 2966 3190 
Q 3341 2797 3341 1997 
z
" transform="scale(0.015625)"/>
       <path id="DejaVuSans-73" d="M 2834 3397 
L 2834 2853 
Q 2591 2978 2328 3040 
Q 2066 3103 1784 3103 
Q 1356 3103 1142 2972 
Q 928 2841 928 2578 
Q 928 2378 1081 2264 
Q 1234 2150 1697 2047 
L 1894 2003 
Q 2506 1872 2764 1633 
Q 3022 1394 3022 966 
Q 3022 478 2636 193 
Q 2250 -91 1575 -91 
Q 1294 -91 989 -36 
Q 684 19 347 128 
L 347 722 
Q 666 556 975 473 
Q 1284 391 1588 391 
Q 1994 391 2212 530 
Q 2431 669 2431 922 
Q 2431 1156 2273 1281 
Q 2116 1406 1581 1522 
L 1381 1569 
Q 847 1681 609 1914 
Q 372 2147 372 2553 
Q 372 3047 722 3315 
Q 1072 3584 1716 3584 
Q 2034 3584 2315 3537 
Q 2597 3491 2834 3397 
z
" transform="scale(0.015625)"/>
       <path id="DejaVuSans-6f" d="M 1959 3097 
Q 1497 3097 1228 2736 
Q 959 2375 959 1747 
Q 959 1119 1226 758 
Q 1494 397 1959 397 
Q 2419 397 2687 759 
Q 2956 1122 2956 1747 
Q 2956 2369 2687 2733 
Q 2419 3097 1959 3097 
z
M 1959 3584 
Q 2709 3584 3137 3096 
Q 3566 2609 3566 1747 
Q 3566 888 3137 398 
Q 2709 -91 1959 -91 
Q 1206 -91 779 398 
Q 353 888 353 1747 
Q 353 2609 779 3096 
Q 1206 3584 1959 3584 
z
" transform="scale(0.015625)"/>
       <path id="DejaVuSans-6d" d="M 3328 2828 
Q 3544 3216 3844 3400 
Q 4144 3584 4550 3584 
Q 5097 3584 5394 3201 
Q 5691 2819 5691 2113 
L 5691 0 
L 5113 0 
L 5113 2094 
Q 5113 2597 4934 2840 
Q 4756 3084 4391 3084 
Q 3944 3084 3684 2787 
Q 3425 2491 3425 1978 
L 3425 0 
L 2847 0 
L 2847 2094 
Q 2847 2600 2669 2842 
Q 2491 3084 2119 3084 
Q 1678 3084 1418 2786 
Q 1159 2488 1159 1978 
L 1159 0 
L 581 0 
L 581 3500 
L 1159 3500 
L 1159 2956 
Q 1356 3278 1631 3431 
Q 1906 3584 2284 3584 
Q 2666 3584 2933 3390 
Q 3200 3197 3328 2828 
z
" transform="scale(0.015625)"/>
       <path id="DejaVuSans-64" d="M 2906 2969 
L 2906 4863 
L 3481 4863 
L 3481 0 
L 2906 0 
L 2906 525 
Q 2725 213 2448 61 
Q 2172 -91 1784 -91 
Q 1150 -91 751 415 
Q 353 922 353 1747 
Q 353 2572 751 3078 
Q 1150 3584 1784 3584 
Q 2172 3584 2448 3432 
Q 2725 3281 2906 2969 
z
M 947 1747 
Q 947 1113 1208 752 
Q 1469 391 1925 391 
Q 2381 391 2643 752 
Q 2906 1113 2906 1747 
Q 2906 2381 2643 2742 
Q 2381 3103 1925 3103 
Q 1469 3103 1208 2742 
Q 947 2381 947 1747 
z
" transform="scale(0.015625)"/>
      </defs>
      <use xlink:href="#DejaVuSans-50"/>
      <use xlink:href="#DejaVuSans-65" x="56.677734"/>
      <use xlink:href="#DejaVuSans-72" x="118.201172"/>
      <use xlink:href="#DejaVuSans-63" x="157.064453"/>
      <use xlink:href="#DejaVuSans-65" x="212.044922"/>
      <use xlink:href="#DejaVuSans-6e" x="273.568359"/>
      <use xlink:href="#DejaVuSans-74" x="336.947266"/>
      <use xlink:href="#DejaVuSans-47" x="376.15625"/>
      <use xlink:href="#DejaVuSans-70" x="453.646484"/>
      <use xlink:href="#DejaVuSans-41" x="517.123047"/>
      <use xlink:href="#DejaVuSans-5f" x="585.53125"/>
      <use xlink:href="#DejaVuSans-74" x="635.53125"/>
      <use xlink:href="#DejaVuSans-72" x="674.740234"/>
      <use xlink:href="#DejaVuSans-61" x="715.853516"/>
      <use xlink:href="#DejaVuSans-6e" x="777.132812"/>
      <use xlink:href="#DejaVuSans-73" x="840.511719"/>
      <use xlink:href="#DejaVuSans-66" x="892.611328"/>
      <use xlink:href="#DejaVuSans-6f" x="927.816406"/>
      <use xlink:href="#DejaVuSans-72" x="988.998047"/>
      <use xlink:href="#DejaVuSans-6d" x="1028.361328"/>
      <use xlink:href="#DejaVuSans-65" x="1125.773438"/>
      <use xlink:href="#DejaVuSans-64" x="1187.296875"/>
     </g>
    </g>
   </g>
   <g id="LineCollection_1">
    <path d="M 234.076477 221.041762 
L 234.076477 201.86275 
" clip-path="url(#pbb6719c09e)" style="fill: none; stroke: #d3d3d3; stroke-width: 3"/>
    <path d="M 152.09637 261.021362 
L 152.09637 214.787512 
" clip-path="url(#pbb6719c09e)" style="fill: none; stroke: #d3d3d3; stroke-width: 3"/>
    <path d="M 94.730366 219.525899 
L 94.730366 190.555705 
" clip-path="url(#pbb6719c09e)" style="fill: none; stroke: #d3d3d3; stroke-width: 3"/>
    <path d="M 272.229249 202.836927 
L 272.229249 150.293535 
" clip-path="url(#pbb6719c09e)" style="fill: none; stroke: #d3d3d3; stroke-width: 3"/>
    <path d="M 179.794078 213.291387 
L 179.794078 170.887564 
" clip-path="url(#pbb6719c09e)" style="fill: none; stroke: #d3d3d3; stroke-width: 3"/>
    <path d="M 92.887501 273.487944 
L 92.887501 218.126254 
" clip-path="url(#pbb6719c09e)" style="fill: none; stroke: #d3d3d3; stroke-width: 3"/>
    <path d="M 88.508417 233.658146 
L 88.508417 183.822594 
" clip-path="url(#pbb6719c09e)" style="fill: none; stroke: #d3d3d3; stroke-width: 3"/>
    <path d="M 99.145942 201.608813 
L 99.145942 182.386749 
" clip-path="url(#pbb6719c09e)" style="fill: none; stroke: #d3d3d3; stroke-width: 3"/>
    <path d="M 172.258404 243.234328 
L 172.258404 203.595152 
" clip-path="url(#pbb6719c09e)" style="fill: none; stroke: #d3d3d3; stroke-width: 3"/>
    <path d="M 217.837373 205.677617 
L 217.837373 93.334372 
" clip-path="url(#pbb6719c09e)" style="fill: none; stroke: #d3d3d3; stroke-width: 3"/>
    <path d="M 235.536172 182.906136 
L 235.536172 166.197618 
" clip-path="url(#pbb6719c09e)" style="fill: none; stroke: #d3d3d3; stroke-width: 3"/>
    <path d="M 66.102102 201.905176 
L 66.102102 183.584072 
" clip-path="url(#pbb6719c09e)" style="fill: none; stroke: #d3d3d3; stroke-width: 3"/>
    <path d="M 139.579487 242.331291 
L 139.579487 213.220027 
" clip-path="url(#pbb6719c09e)" style="fill: none; stroke: #d3d3d3; stroke-width: 3"/>
    <path d="M 187.658184 257.344354 
L 187.658184 211.121213 
" clip-path="url(#pbb6719c09e)" style="fill: none; stroke: #d3d3d3; stroke-width: 3"/>
    <path d="M 260.825383 254.479998 
L 260.825383 209.966344 
" clip-path="url(#pbb6719c09e)" style="fill: none; stroke: #d3d3d3; stroke-width: 3"/>
    <path d="M 103.397303 263.169879 
L 103.397303 206.355194 
" clip-path="url(#pbb6719c09e)" style="fill: none; stroke: #d3d3d3; stroke-width: 3"/>
    <path d="M 121.388041 191.890205 
L 121.388041 163.876556 
" clip-path="url(#pbb6719c09e)" style="fill: none; stroke: #d3d3d3; stroke-width: 3"/>
    <path d="M 147.023931 262.58769 
L 147.023931 196.807477 
" clip-path="url(#pbb6719c09e)" style="fill: none; stroke: #d3d3d3; stroke-width: 3"/>
    <path d="M 177.093643 202.671716 
L 177.093643 160.763325 
" clip-path="url(#pbb6719c09e)" style="fill: none; stroke: #d3d3d3; stroke-width: 3"/>
    <path d="M 198.076755 181.660357 
L 198.076755 162.406646 
" clip-path="url(#pbb6719c09e)" style="fill: none; stroke: #d3d3d3; stroke-width: 3"/>
    <path d="M 159.467828 226.072914 
L 159.467828 207.171205 
" clip-path="url(#pbb6719c09e)" style="fill: none; stroke: #d3d3d3; stroke-width: 3"/>
    <path d="M 141.00269 217.026151 
L 141.00269 181.051965 
" clip-path="url(#pbb6719c09e)" style="fill: none; stroke: #d3d3d3; stroke-width: 3"/>
    <path d="M 208.842004 161.982619 
L 208.842004 152.455676 
" clip-path="url(#pbb6719c09e)" style="fill: none; stroke: #d3d3d3; stroke-width: 3"/>
    <path d="M 177.458566 166.455443 
L 177.458566 159.935514 
" clip-path="url(#pbb6719c09e)" style="fill: none; stroke: #d3d3d3; stroke-width: 3"/>
    <path d="M 208.166895 213.068715 
L 208.166895 187.069049 
" clip-path="url(#pbb6719c09e)" style="fill: none; stroke: #d3d3d3; stroke-width: 3"/>
    <path d="M 163.518481 222.18251 
L 163.518481 182.584865 
" clip-path="url(#pbb6719c09e)" style="fill: none; stroke: #d3d3d3; stroke-width: 3"/>
    <path d="M 142.517123 225.279936 
L 142.517123 223.143676 
" clip-path="url(#pbb6719c09e)" style="fill: none; stroke: #d3d3d3; stroke-width: 3"/>
    <path d="M 125.803618 178.822019 
L 125.803618 170.555414 
" clip-path="url(#pbb6719c09e)" style="fill: none; stroke: #d3d3d3; stroke-width: 3"/>
    <path d="M 261.500492 253.151616 
L 261.500492 221.894186 
" clip-path="url(#pbb6719c09e)" style="fill: none; stroke: #d3d3d3; stroke-width: 3"/>
    <path d="M 166.857533 222.811563 
L 166.857533 197.635398 
" clip-path="url(#pbb6719c09e)" style="fill: none; stroke: #d3d3d3; stroke-width: 3"/>
    <path d="M 145.16282 206.556156 
L 145.16282 190.192392 
" clip-path="url(#pbb6719c09e)" style="fill: none; stroke: #d3d3d3; stroke-width: 3"/>
    <path d="M 269.656537 201.764753 
L 269.656537 179.942618 
" clip-path="url(#pbb6719c09e)" style="fill: none; stroke: #d3d3d3; stroke-width: 3"/>
    <path d="M 299.489048 280.586498 
L 299.489048 207.701514 
" clip-path="url(#pbb6719c09e)" style="fill: none; stroke: #d3d3d3; stroke-width: 3"/>
    <path d="M 176.43678 222.277594 
L 176.43678 219.292157 
" clip-path="url(#pbb6719c09e)" style="fill: none; stroke: #d3d3d3; stroke-width: 3"/>
    <path d="M 140.583027 278.638802 
L 140.583027 238.001965 
" clip-path="url(#pbb6719c09e)" style="fill: none; stroke: #d3d3d3; stroke-width: 3"/>
    <path d="M 167.459657 214.844088 
L 167.459657 200.889588 
" clip-path="url(#pbb6719c09e)" style="fill: none; stroke: #d3d3d3; stroke-width: 3"/>
    <path d="M 141.568321 268.967669 
L 141.568321 225.160561 
" clip-path="url(#pbb6719c09e)" style="fill: none; stroke: #d3d3d3; stroke-width: 3"/>
    <path d="M 219.205837 164.647995 
L 219.205837 131.750747 
" clip-path="url(#pbb6719c09e)" style="fill: none; stroke: #d3d3d3; stroke-width: 3"/>
    <path d="M 221.86978 231.167561 
L 221.86978 219.361651 
" clip-path="url(#pbb6719c09e)" style="fill: none; stroke: #d3d3d3; stroke-width: 3"/>
    <path d="M 220.95747 229.89738 
L 220.95747 198.512306 
" clip-path="url(#pbb6719c09e)" style="fill: none; stroke: #d3d3d3; stroke-width: 3"/>
    <path d="M 101.700408 154.851834 
L 101.700408 133.107224 
" clip-path="url(#pbb6719c09e)" style="fill: none; stroke: #d3d3d3; stroke-width: 3"/>
    <path d="M 178.863523 205.018016 
L 178.863523 171.783057 
" clip-path="url(#pbb6719c09e)" style="fill: none; stroke: #d3d3d3; stroke-width: 3"/>
    <path d="M 199.627681 267.141454 
L 199.627681 240.601855 
" clip-path="url(#pbb6719c09e)" style="fill: none; stroke: #d3d3d3; stroke-width: 3"/>
    <path d="M 160.872785 234.565282 
L 160.872785 216.721793 
" clip-path="url(#pbb6719c09e)" style="fill: none; stroke: #d3d3d3; stroke-width: 3"/>
    <path d="M 200.813683 149.405602 
L 200.813683 115.610001 
" clip-path="url(#pbb6719c09e)" style="fill: none; stroke: #d3d3d3; stroke-width: 3"/>
    <path d="M 178.900015 231.621562 
L 178.900015 203.772073 
" clip-path="url(#pbb6719c09e)" style="fill: none; stroke: #d3d3d3; stroke-width: 3"/>
    <path d="M 169.849907 158.661655 
L 169.849907 140.186205 
" clip-path="url(#pbb6719c09e)" style="fill: none; stroke: #d3d3d3; stroke-width: 3"/>
    <path d="M 203.860795 194.730141 
L 203.860795 173.789941 
" clip-path="url(#pbb6719c09e)" style="fill: none; stroke: #d3d3d3; stroke-width: 3"/>
    <path d="M 215.629584 213.702558 
L 215.629584 206.894801 
" clip-path="url(#pbb6719c09e)" style="fill: none; stroke: #d3d3d3; stroke-width: 3"/>
    <path d="M 203.076209 169.631305 
L 203.076209 144.183054 
" clip-path="url(#pbb6719c09e)" style="fill: none; stroke: #d3d3d3; stroke-width: 3"/>
    <path d="M 194.774196 238.151711 
L 194.774196 203.670993 
" clip-path="url(#pbb6719c09e)" style="fill: none; stroke: #d3d3d3; stroke-width: 3"/>
    <path d="M 431.719148 246.621422 
L 431.719148 210.893637 
" clip-path="url(#pbb6719c09e)" style="fill: none; stroke: #d3d3d3; stroke-width: 3"/>
    <path d="M 128.960208 241.829013 
L 128.960208 219.003516 
" clip-path="url(#pbb6719c09e)" style="fill: none; stroke: #d3d3d3; stroke-width: 3"/>
    <path d="M 149.487166 198.954788 
L 149.487166 189.393486 
" clip-path="url(#pbb6719c09e)" style="fill: none; stroke: #d3d3d3; stroke-width: 3"/>
    <path d="M 207.656002 215.009976 
L 207.656002 187.065268 
" clip-path="url(#pbb6719c09e)" style="fill: none; stroke: #d3d3d3; stroke-width: 3"/>
    <path d="M 259.146735 206.503735 
L 259.146735 191.285537 
" clip-path="url(#pbb6719c09e)" style="fill: none; stroke: #d3d3d3; stroke-width: 3"/>
    <path d="M 173.152467 255.553912 
L 173.152467 220.066851 
" clip-path="url(#pbb6719c09e)" style="fill: none; stroke: #d3d3d3; stroke-width: 3"/>
    <path d="M 176.017118 206.030577 
L 176.017118 186.952683 
" clip-path="url(#pbb6719c09e)" style="fill: none; stroke: #d3d3d3; stroke-width: 3"/>
    <path d="M 202.656547 253.066821 
L 202.656547 209.621532 
" clip-path="url(#pbb6719c09e)" style="fill: none; stroke: #d3d3d3; stroke-width: 3"/>
    <path d="M 212.710195 207.645708 
L 212.710195 195.25913 
" clip-path="url(#pbb6719c09e)" style="fill: none; stroke: #d3d3d3; stroke-width: 3"/>
    <path d="M 274.838453 227.571239 
L 274.838453 213.482095 
" clip-path="url(#pbb6719c09e)" style="fill: none; stroke: #d3d3d3; stroke-width: 3"/>
    <path d="M 282.629574 204.67122 
L 282.629574 191.824358 
" clip-path="url(#pbb6719c09e)" style="fill: none; stroke: #d3d3d3; stroke-width: 3"/>
    <path d="M 221.96101 190.552183 
L 221.96101 180.411044 
" clip-path="url(#pbb6719c09e)" style="fill: none; stroke: #d3d3d3; stroke-width: 3"/>
    <path d="M 198.240971 274.319755 
L 198.240971 242.653892 
" clip-path="url(#pbb6719c09e)" style="fill: none; stroke: #d3d3d3; stroke-width: 3"/>
    <path d="M 144.287003 208.056632 
L 144.287003 195.542916 
" clip-path="url(#pbb6719c09e)" style="fill: none; stroke: #d3d3d3; stroke-width: 3"/>
    <path d="M 159.376598 213.833907 
L 159.376598 185.249054 
" clip-path="url(#pbb6719c09e)" style="fill: none; stroke: #d3d3d3; stroke-width: 3"/>
    <path d="M 198.514663 231.809537 
L 198.514663 205.55726 
" clip-path="url(#pbb6719c09e)" style="fill: none; stroke: #d3d3d3; stroke-width: 3"/>
    <path d="M 161.511401 235.16084 
L 161.511401 211.719049 
" clip-path="url(#pbb6719c09e)" style="fill: none; stroke: #d3d3d3; stroke-width: 3"/>
    <path d="M 194.536995 193.67633 
L 194.536995 176.180833 
" clip-path="url(#pbb6719c09e)" style="fill: none; stroke: #d3d3d3; stroke-width: 3"/>
    <path d="M 297.062306 219.296682 
L 297.062306 188.078064 
" clip-path="url(#pbb6719c09e)" style="fill: none; stroke: #d3d3d3; stroke-width: 3"/>
    <path d="M 250.680505 219.155181 
L 250.680505 201.17603 
" clip-path="url(#pbb6719c09e)" style="fill: none; stroke: #d3d3d3; stroke-width: 3"/>
    <path d="M 186.107258 242.43411 
L 186.107258 228.2177 
" clip-path="url(#pbb6719c09e)" style="fill: none; stroke: #d3d3d3; stroke-width: 3"/>
    <path d="M 233.091183 251.899435 
L 233.091183 210.0222 
" clip-path="url(#pbb6719c09e)" style="fill: none; stroke: #d3d3d3; stroke-width: 3"/>
    <path d="M 193.953117 228.619724 
L 193.953117 204.913999 
" clip-path="url(#pbb6719c09e)" style="fill: none; stroke: #d3d3d3; stroke-width: 3"/>
    <path d="M 245.389111 243.46555 
L 245.389111 216.558563 
" clip-path="url(#pbb6719c09e)" style="fill: none; stroke: #d3d3d3; stroke-width: 3"/>
    <path d="M 215.428876 232.22031 
L 215.428876 198.829055 
" clip-path="url(#pbb6719c09e)" style="fill: none; stroke: #d3d3d3; stroke-width: 3"/>
    <path d="M 270.222169 232.049742 
L 270.222169 222.102799 
" clip-path="url(#pbb6719c09e)" style="fill: none; stroke: #d3d3d3; stroke-width: 3"/>
    <path d="M 144.049803 242.316972 
L 144.049803 207.150529 
" clip-path="url(#pbb6719c09e)" style="fill: none; stroke: #d3d3d3; stroke-width: 3"/>
    <path d="M 167.441411 148.485361 
L 167.441411 85.375115 
" clip-path="url(#pbb6719c09e)" style="fill: none; stroke: #d3d3d3; stroke-width: 3"/>
    <path d="M 157.661456 205.112796 
L 157.661456 186.82917 
" clip-path="url(#pbb6719c09e)" style="fill: none; stroke: #d3d3d3; stroke-width: 3"/>
    <path d="M 203.641841 187.455652 
L 203.641841 159.278534 
" clip-path="url(#pbb6719c09e)" style="fill: none; stroke: #d3d3d3; stroke-width: 3"/>
    <path d="M 241.721628 175.26738 
L 241.721628 107.416378 
" clip-path="url(#pbb6719c09e)" style="fill: none; stroke: #d3d3d3; stroke-width: 3"/>
    <path d="M 194.518749 216.329447 
L 194.518749 204.88762 
" clip-path="url(#pbb6719c09e)" style="fill: none; stroke: #d3d3d3; stroke-width: 3"/>
    <path d="M 249.585734 236.15015 
L 249.585734 205.934679 
" clip-path="url(#pbb6719c09e)" style="fill: none; stroke: #d3d3d3; stroke-width: 3"/>
    <path d="M 207.491786 79.980045 
L 207.491786 57.814323 
" clip-path="url(#pbb6719c09e)" style="fill: none; stroke: #d3d3d3; stroke-width: 3"/>
   </g>
   <g id="line2d_16">
    <path d="M 234.076477 203.311709 
L 152.09637 202.789713 
L 94.730366 202.424443 
L 272.229249 203.554642 
L 179.794078 202.966074 
L 92.887501 202.412708 
L 88.508417 202.384825 
L 99.145942 202.452558 
L 172.258404 202.918092 
L 217.837373 203.208309 
L 235.536172 203.321004 
L 66.102102 202.242156 
L 139.579487 202.710013 
L 187.658184 203.016147 
L 260.825383 203.482029 
L 103.397303 202.479628 
L 121.388041 202.594182 
L 147.023931 202.757415 
L 177.093643 202.948879 
L 198.076755 203.082486 
L 159.467828 202.836649 
L 141.00269 202.719075 
L 208.842004 203.151033 
L 177.458566 202.951203 
L 208.166895 203.146734 
L 163.518481 202.862441 
L 142.517123 202.728718 
L 125.803618 202.622297 
L 261.500492 203.486328 
L 166.857533 202.883702 
L 145.16282 202.745564 
L 269.656537 203.538261 
L 299.489048 203.728215 
L 176.43678 202.944697 
L 140.583027 202.716403 
L 167.459657 202.887536 
L 141.568321 202.722677 
L 219.205837 203.217023 
L 221.86978 203.233985 
L 220.95747 203.228176 
L 101.700408 202.468823 
L 178.863523 202.960149 
L 199.627681 203.092362 
L 160.872785 202.845595 
L 200.813683 203.099913 
L 178.900015 202.960381 
L 169.849907 202.902756 
L 203.860795 203.119315 
L 215.629584 203.194251 
L 203.076209 203.11432 
L 194.774196 203.061458 
L 431.719148 204.570172 
L 128.960208 202.642396 
L 149.487166 202.773099 
L 207.656002 203.143481 
L 259.146735 203.471341 
L 173.152467 202.923784 
L 176.017118 202.942025 
L 202.656547 203.111647 
L 212.710195 203.175663 
L 274.838453 203.571256 
L 282.629574 203.620865 
L 221.96101 203.234566 
L 198.240971 203.083532 
L 144.287003 202.739988 
L 159.376598 202.836068 
L 198.514663 203.085275 
L 161.511401 202.849662 
L 194.536995 203.059947 
L 297.062306 203.712763 
L 250.680505 203.417433 
L 186.107258 203.006272 
L 233.091183 203.305436 
L 193.953117 203.05623 
L 245.389111 203.383741 
L 215.428876 203.192973 
L 270.222169 203.541862 
L 144.049803 202.738477 
L 167.441411 202.88742 
L 157.661456 202.825148 
L 203.641841 203.117921 
L 241.721628 203.360389 
L 194.518749 203.059831 
L 249.585734 203.410463 
L 207.491786 203.142435 
" clip-path="url(#pbb6719c09e)" style="fill: none; stroke: #1f77b4; stroke-width: 1.5; stroke-linecap: square"/>
   </g>
   <g id="line2d_17">
    <defs>
     <path id="m4d011882a6" d="M 0 3 
C 0.795609 3 1.55874 2.683901 2.12132 2.12132 
C 2.683901 1.55874 3 0.795609 3 0 
C 3 -0.795609 2.683901 -1.55874 2.12132 -2.12132 
C 1.55874 -2.683901 0.795609 -3 0 -3 
C -0.795609 -3 -1.55874 -2.683901 -2.12132 -2.12132 
C -2.683901 -1.55874 -3 -0.795609 -3 0 
C -3 0.795609 -2.683901 1.55874 -2.12132 2.12132 
C -1.55874 2.683901 -0.795609 3 0 3 
z
" style="stroke: #000000"/>
    </defs>
    <g clip-path="url(#pbb6719c09e)">
     <use xlink:href="#m4d011882a6" x="234.076477" y="211.452256" style="stroke: #000000"/>
     <use xlink:href="#m4d011882a6" x="152.09637" y="237.904437" style="stroke: #000000"/>
     <use xlink:href="#m4d011882a6" x="94.730366" y="205.040802" style="stroke: #000000"/>
     <use xlink:href="#m4d011882a6" x="272.229249" y="176.565231" style="stroke: #000000"/>
     <use xlink:href="#m4d011882a6" x="179.794078" y="192.089475" style="stroke: #000000"/>
     <use xlink:href="#m4d011882a6" x="92.887501" y="245.807099" style="stroke: #000000"/>
     <use xlink:href="#m4d011882a6" x="88.508417" y="208.74037" style="stroke: #000000"/>
     <use xlink:href="#m4d011882a6" x="99.145942" y="191.997781" style="stroke: #000000"/>
     <use xlink:href="#m4d011882a6" x="172.258404" y="223.41474" style="stroke: #000000"/>
     <use xlink:href="#m4d011882a6" x="217.837373" y="149.505995" style="stroke: #000000"/>
     <use xlink:href="#m4d011882a6" x="235.536172" y="174.551877" style="stroke: #000000"/>
     <use xlink:href="#m4d011882a6" x="66.102102" y="192.744624" style="stroke: #000000"/>
     <use xlink:href="#m4d011882a6" x="139.579487" y="227.775659" style="stroke: #000000"/>
     <use xlink:href="#m4d011882a6" x="187.658184" y="234.232784" style="stroke: #000000"/>
     <use xlink:href="#m4d011882a6" x="260.825383" y="232.223171" style="stroke: #000000"/>
     <use xlink:href="#m4d011882a6" x="103.397303" y="234.762536" style="stroke: #000000"/>
     <use xlink:href="#m4d011882a6" x="121.388041" y="177.883381" style="stroke: #000000"/>
     <use xlink:href="#m4d011882a6" x="147.023931" y="229.697583" style="stroke: #000000"/>
     <use xlink:href="#m4d011882a6" x="177.093643" y="181.717521" style="stroke: #000000"/>
     <use xlink:href="#m4d011882a6" x="198.076755" y="172.033501" style="stroke: #000000"/>
     <use xlink:href="#m4d011882a6" x="159.467828" y="216.62206" style="stroke: #000000"/>
     <use xlink:href="#m4d011882a6" x="141.00269" y="199.039058" style="stroke: #000000"/>
     <use xlink:href="#m4d011882a6" x="208.842004" y="157.219147" style="stroke: #000000"/>
     <use xlink:href="#m4d011882a6" x="177.458566" y="163.195478" style="stroke: #000000"/>
     <use xlink:href="#m4d011882a6" x="208.166895" y="200.068882" style="stroke: #000000"/>
     <use xlink:href="#m4d011882a6" x="163.518481" y="202.383688" style="stroke: #000000"/>
     <use xlink:href="#m4d011882a6" x="142.517123" y="224.211806" style="stroke: #000000"/>
     <use xlink:href="#m4d011882a6" x="125.803618" y="174.688716" style="stroke: #000000"/>
     <use xlink:href="#m4d011882a6" x="261.500492" y="237.522901" style="stroke: #000000"/>
     <use xlink:href="#m4d011882a6" x="166.857533" y="210.22348" style="stroke: #000000"/>
     <use xlink:href="#m4d011882a6" x="145.16282" y="198.374274" style="stroke: #000000"/>
     <use xlink:href="#m4d011882a6" x="269.656537" y="190.853685" style="stroke: #000000"/>
     <use xlink:href="#m4d011882a6" x="299.489048" y="244.144006" style="stroke: #000000"/>
     <use xlink:href="#m4d011882a6" x="176.43678" y="220.784876" style="stroke: #000000"/>
     <use xlink:href="#m4d011882a6" x="140.583027" y="258.320384" style="stroke: #000000"/>
     <use xlink:href="#m4d011882a6" x="167.459657" y="207.866838" style="stroke: #000000"/>
     <use xlink:href="#m4d011882a6" x="141.568321" y="247.064115" style="stroke: #000000"/>
     <use xlink:href="#m4d011882a6" x="219.205837" y="148.199371" style="stroke: #000000"/>
     <use xlink:href="#m4d011882a6" x="221.86978" y="225.264606" style="stroke: #000000"/>
     <use xlink:href="#m4d011882a6" x="220.95747" y="214.204843" style="stroke: #000000"/>
     <use xlink:href="#m4d011882a6" x="101.700408" y="143.979529" style="stroke: #000000"/>
     <use xlink:href="#m4d011882a6" x="178.863523" y="188.400536" style="stroke: #000000"/>
     <use xlink:href="#m4d011882a6" x="199.627681" y="253.871654" style="stroke: #000000"/>
     <use xlink:href="#m4d011882a6" x="160.872785" y="225.643538" style="stroke: #000000"/>
     <use xlink:href="#m4d011882a6" x="200.813683" y="132.507802" style="stroke: #000000"/>
     <use xlink:href="#m4d011882a6" x="178.900015" y="217.696818" style="stroke: #000000"/>
     <use xlink:href="#m4d011882a6" x="169.849907" y="149.42393" style="stroke: #000000"/>
     <use xlink:href="#m4d011882a6" x="203.860795" y="184.260041" style="stroke: #000000"/>
     <use xlink:href="#m4d011882a6" x="215.629584" y="210.29868" style="stroke: #000000"/>
     <use xlink:href="#m4d011882a6" x="203.076209" y="156.907179" style="stroke: #000000"/>
     <use xlink:href="#m4d011882a6" x="194.774196" y="220.911352" style="stroke: #000000"/>
     <use xlink:href="#m4d011882a6" x="431.719148" y="228.75753" style="stroke: #000000"/>
     <use xlink:href="#m4d011882a6" x="128.960208" y="230.416264" style="stroke: #000000"/>
     <use xlink:href="#m4d011882a6" x="149.487166" y="194.174137" style="stroke: #000000"/>
     <use xlink:href="#m4d011882a6" x="207.656002" y="201.037622" style="stroke: #000000"/>
     <use xlink:href="#m4d011882a6" x="259.146735" y="198.894636" style="stroke: #000000"/>
     <use xlink:href="#m4d011882a6" x="173.152467" y="237.810381" style="stroke: #000000"/>
     <use xlink:href="#m4d011882a6" x="176.017118" y="196.49163" style="stroke: #000000"/>
     <use xlink:href="#m4d011882a6" x="202.656547" y="231.344177" style="stroke: #000000"/>
     <use xlink:href="#m4d011882a6" x="212.710195" y="201.452419" style="stroke: #000000"/>
     <use xlink:href="#m4d011882a6" x="274.838453" y="220.526667" style="stroke: #000000"/>
     <use xlink:href="#m4d011882a6" x="282.629574" y="198.247789" style="stroke: #000000"/>
     <use xlink:href="#m4d011882a6" x="221.96101" y="185.481614" style="stroke: #000000"/>
     <use xlink:href="#m4d011882a6" x="198.240971" y="258.486824" style="stroke: #000000"/>
     <use xlink:href="#m4d011882a6" x="144.287003" y="201.799774" style="stroke: #000000"/>
     <use xlink:href="#m4d011882a6" x="159.376598" y="199.54148" style="stroke: #000000"/>
     <use xlink:href="#m4d011882a6" x="198.514663" y="218.683399" style="stroke: #000000"/>
     <use xlink:href="#m4d011882a6" x="161.511401" y="223.439945" style="stroke: #000000"/>
     <use xlink:href="#m4d011882a6" x="194.536995" y="184.928582" style="stroke: #000000"/>
     <use xlink:href="#m4d011882a6" x="297.062306" y="203.687373" style="stroke: #000000"/>
     <use xlink:href="#m4d011882a6" x="250.680505" y="210.165606" style="stroke: #000000"/>
     <use xlink:href="#m4d011882a6" x="186.107258" y="235.325905" style="stroke: #000000"/>
     <use xlink:href="#m4d011882a6" x="233.091183" y="230.960817" style="stroke: #000000"/>
     <use xlink:href="#m4d011882a6" x="193.953117" y="216.766862" style="stroke: #000000"/>
     <use xlink:href="#m4d011882a6" x="245.389111" y="230.012057" style="stroke: #000000"/>
     <use xlink:href="#m4d011882a6" x="215.428876" y="215.524683" style="stroke: #000000"/>
     <use xlink:href="#m4d011882a6" x="270.222169" y="227.07627" style="stroke: #000000"/>
     <use xlink:href="#m4d011882a6" x="144.049803" y="224.733751" style="stroke: #000000"/>
     <use xlink:href="#m4d011882a6" x="167.441411" y="116.930238" style="stroke: #000000"/>
     <use xlink:href="#m4d011882a6" x="157.661456" y="195.970983" style="stroke: #000000"/>
     <use xlink:href="#m4d011882a6" x="203.641841" y="173.367093" style="stroke: #000000"/>
     <use xlink:href="#m4d011882a6" x="241.721628" y="141.341879" style="stroke: #000000"/>
     <use xlink:href="#m4d011882a6" x="194.518749" y="210.608534" style="stroke: #000000"/>
     <use xlink:href="#m4d011882a6" x="249.585734" y="221.042414" style="stroke: #000000"/>
     <use xlink:href="#m4d011882a6" x="207.491786" y="68.897184" style="stroke: #000000"/>
    </g>
   </g>
   <g id="patch_3">
    <path d="M 47.82125 303.64 
L 47.82125 46.675714 
" style="fill: none; stroke: #000000; stroke-width: 0.8; stroke-linejoin: miter; stroke-linecap: square"/>
   </g>
   <g id="patch_4">
    <path d="M 450 303.64 
L 450 46.675714 
" style="fill: none; stroke: #000000; stroke-width: 0.8; stroke-linejoin: miter; stroke-linecap: square"/>
   </g>
   <g id="patch_5">
    <path d="M 47.82125 303.64 
L 450 303.64 
" style="fill: none; stroke: #000000; stroke-width: 0.8; stroke-linejoin: miter; stroke-linecap: square"/>
   </g>
   <g id="patch_6">
    <path d="M 47.82125 46.675714 
L 450 46.675714 
" style="fill: none; stroke: #000000; stroke-width: 0.8; stroke-linejoin: miter; stroke-linecap: square"/>
   </g>
   <g id="text_18">
    <!-- y = -0.00x + 0.46 -->
    <g transform="translate(43.314906 18.599375)scale(0.1 -0.1)">
     <defs>
      <path id="DejaVuSans-79" d="M 2059 -325 
Q 1816 -950 1584 -1140 
Q 1353 -1331 966 -1331 
L 506 -1331 
L 506 -850 
L 844 -850 
Q 1081 -850 1212 -737 
Q 1344 -625 1503 -206 
L 1606 56 
L 191 3500 
L 800 3500 
L 1894 763 
L 2988 3500 
L 3597 3500 
L 2059 -325 
z
" transform="scale(0.015625)"/>
      <path id="DejaVuSans-20" transform="scale(0.015625)"/>
      <path id="DejaVuSans-3d" d="M 678 2906 
L 4684 2906 
L 4684 2381 
L 678 2381 
L 678 2906 
z
M 678 1631 
L 4684 1631 
L 4684 1100 
L 678 1100 
L 678 1631 
z
" transform="scale(0.015625)"/>
      <path id="DejaVuSans-2d" d="M 313 2009 
L 1997 2009 
L 1997 1497 
L 313 1497 
L 313 2009 
z
" transform="scale(0.015625)"/>
      <path id="DejaVuSans-78" d="M 3513 3500 
L 2247 1797 
L 3578 0 
L 2900 0 
L 1881 1375 
L 863 0 
L 184 0 
L 1544 1831 
L 300 3500 
L 978 3500 
L 1906 2253 
L 2834 3500 
L 3513 3500 
z
" transform="scale(0.015625)"/>
      <path id="DejaVuSans-2b" d="M 2944 4013 
L 2944 2272 
L 4684 2272 
L 4684 1741 
L 2944 1741 
L 2944 0 
L 2419 0 
L 2419 1741 
L 678 1741 
L 678 2272 
L 2419 2272 
L 2419 4013 
L 2944 4013 
z
" transform="scale(0.015625)"/>
     </defs>
     <use xlink:href="#DejaVuSans-79"/>
     <use xlink:href="#DejaVuSans-20" x="59.179688"/>
     <use xlink:href="#DejaVuSans-3d" x="90.966797"/>
     <use xlink:href="#DejaVuSans-20" x="174.755859"/>
     <use xlink:href="#DejaVuSans-2d" x="206.542969"/>
     <use xlink:href="#DejaVuSans-30" x="242.626953"/>
     <use xlink:href="#DejaVuSans-2e" x="306.25"/>
     <use xlink:href="#DejaVuSans-30" x="338.037109"/>
     <use xlink:href="#DejaVuSans-30" x="401.660156"/>
     <use xlink:href="#DejaVuSans-78" x="465.283203"/>
     <use xlink:href="#DejaVuSans-20" x="524.462891"/>
     <use xlink:href="#DejaVuSans-2b" x="556.25"/>
     <use xlink:href="#DejaVuSans-20" x="640.039062"/>
     <use xlink:href="#DejaVuSans-30" x="671.826172"/>
     <use xlink:href="#DejaVuSans-2e" x="735.449219"/>
     <use xlink:href="#DejaVuSans-34" x="767.236328"/>
     <use xlink:href="#DejaVuSans-36" x="830.859375"/>
    </g>
   </g>
   <g id="text_19">
    <!-- r^2 = 0.00 -->
    <g transform="translate(60.111781 26.308304)scale(0.1 -0.1)">
     <defs>
      <path id="DejaVuSans-5e" d="M 2988 4666 
L 4684 2925 
L 4056 2925 
L 2681 4159 
L 1306 2925 
L 678 2925 
L 2375 4666 
L 2988 4666 
z
" transform="scale(0.015625)"/>
     </defs>
     <use xlink:href="#DejaVuSans-72"/>
     <use xlink:href="#DejaVuSans-5e" x="41.113281"/>
     <use xlink:href="#DejaVuSans-32" x="124.902344"/>
     <use xlink:href="#DejaVuSans-20" x="188.525391"/>
     <use xlink:href="#DejaVuSans-3d" x="220.3125"/>
     <use xlink:href="#DejaVuSans-20" x="304.101562"/>
     <use xlink:href="#DejaVuSans-30" x="335.888672"/>
     <use xlink:href="#DejaVuSans-2e" x="399.511719"/>
     <use xlink:href="#DejaVuSans-30" x="431.298828"/>
     <use xlink:href="#DejaVuSans-30" x="494.921875"/>
    </g>
   </g>
   <g id="text_20">
    <!-- n = 85 -->
    <g transform="translate(71.139906 34.017232)scale(0.1 -0.1)">
     <use xlink:href="#DejaVuSans-6e"/>
     <use xlink:href="#DejaVuSans-20" x="63.378906"/>
     <use xlink:href="#DejaVuSans-3d" x="95.166016"/>
     <use xlink:href="#DejaVuSans-20" x="178.955078"/>
     <use xlink:href="#DejaVuSans-38" x="210.742188"/>
     <use xlink:href="#DejaVuSans-35" x="274.365234"/>
    </g>
   </g>
   <g id="text_21">
    <!-- IMM1Diff vs PercentGpA_transformed -->
    <g transform="translate(136.921562 40.675714)scale(0.12 -0.12)">
     <defs>
      <path id="DejaVuSans-76" d="M 191 3500 
L 800 3500 
L 1894 563 
L 2988 3500 
L 3597 3500 
L 2284 0 
L 1503 0 
L 191 3500 
z
" transform="scale(0.015625)"/>
     </defs>
     <use xlink:href="#DejaVuSans-49"/>
     <use xlink:href="#DejaVuSans-4d" x="29.492188"/>
     <use xlink:href="#DejaVuSans-4d" x="115.771484"/>
     <use xlink:href="#DejaVuSans-31" x="202.050781"/>
     <use xlink:href="#DejaVuSans-44" x="265.673828"/>
     <use xlink:href="#DejaVuSans-69" x="342.675781"/>
     <use xlink:href="#DejaVuSans-66" x="370.458984"/>
     <use xlink:href="#DejaVuSans-66" x="405.664062"/>
     <use xlink:href="#DejaVuSans-20" x="440.869141"/>
     <use xlink:href="#DejaVuSans-76" x="472.65625"/>
     <use xlink:href="#DejaVuSans-73" x="531.835938"/>
     <use xlink:href="#DejaVuSans-20" x="583.935547"/>
     <use xlink:href="#DejaVuSans-50" x="615.722656"/>
     <use xlink:href="#DejaVuSans-65" x="672.400391"/>
     <use xlink:href="#DejaVuSans-72" x="733.923828"/>
     <use xlink:href="#DejaVuSans-63" x="772.787109"/>
     <use xlink:href="#DejaVuSans-65" x="827.767578"/>
     <use xlink:href="#DejaVuSans-6e" x="889.291016"/>
     <use xlink:href="#DejaVuSans-74" x="952.669922"/>
     <use xlink:href="#DejaVuSans-47" x="991.878906"/>
     <use xlink:href="#DejaVuSans-70" x="1069.369141"/>
     <use xlink:href="#DejaVuSans-41" x="1132.845703"/>
     <use xlink:href="#DejaVuSans-5f" x="1201.253906"/>
     <use xlink:href="#DejaVuSans-74" x="1251.253906"/>
     <use xlink:href="#DejaVuSans-72" x="1290.462891"/>
     <use xlink:href="#DejaVuSans-61" x="1331.576172"/>
     <use xlink:href="#DejaVuSans-6e" x="1392.855469"/>
     <use xlink:href="#DejaVuSans-73" x="1456.234375"/>
     <use xlink:href="#DejaVuSans-66" x="1508.333984"/>
     <use xlink:href="#DejaVuSans-6f" x="1543.539062"/>
     <use xlink:href="#DejaVuSans-72" x="1604.720703"/>
     <use xlink:href="#DejaVuSans-6d" x="1644.083984"/>
     <use xlink:href="#DejaVuSans-65" x="1741.496094"/>
     <use xlink:href="#DejaVuSans-64" x="1803.019531"/>
    </g>
   </g>
  </g>
 </g>
 <defs>
  <clipPath id="pbb6719c09e">
   <rect x="47.82125" y="46.675714" width="402.17875" height="256.964286"/>
  </clipPath>
 </defs>
</svg>
