<?xml version="1.0" encoding="utf-8" standalone="no"?>
<!DOCTYPE svg PUBLIC "-//W3C//DTD SVG 1.1//EN"
  "http://www.w3.org/Graphics/SVG/1.1/DTD/svg11.dtd">
<svg xmlns:xlink="http://www.w3.org/1999/xlink" width="460.8pt" height="345.6pt" viewBox="0 0 460.8 345.6" xmlns="http://www.w3.org/2000/svg" version="1.1">
 <metadata>
  <rdf:RDF xmlns:dc="http://purl.org/dc/elements/1.1/" xmlns:cc="http://creativecommons.org/ns#" xmlns:rdf="http://www.w3.org/1999/02/22-rdf-syntax-ns#">
   <cc:Work>
    <dc:type rdf:resource="http://purl.org/dc/dcmitype/StillImage"/>
    <dc:date>2024-06-12T17:55:48.371221</dc:date>
    <dc:format>image/svg+xml</dc:format>
    <dc:creator>
     <cc:Agent>
      <dc:title>Matplotlib v3.5.3, https://matplotlib.org/</dc:title>
     </cc:Agent>
    </dc:creator>
   </cc:Work>
  </rdf:RDF>
 </metadata>
 <defs>
  <style type="text/css">*{stroke-linejoin: round; stroke-linecap: butt}</style>
 </defs>
 <g id="figure_1">
  <g id="patch_1">
   <path d="M 0 345.6 
L 460.8 345.6 
L 460.8 0 
L 0 0 
z
" style="fill: #ffffff"/>
  </g>
  <g id="axes_1">
   <g id="patch_2">
    <path d="M 71.84 303.64 
L 450 303.64 
L 450 16.560772 
L 71.84 16.560772 
z
" style="fill: #ffffff"/>
   </g>
   <g id="matplotlib.axis_1">
    <g id="xtick_1">
     <g id="text_1">
      <!-- L -->
      <g style="fill: #262626" transform="translate(258.134063 318.238437)scale(0.1 -0.1)">
       <defs>
        <path id="DejaVuSans-4c" d="M 628 4666 
L 1259 4666 
L 1259 531 
L 3531 531 
L 3531 0 
L 628 0 
L 628 4666 
z
" transform="scale(0.015625)"/>
       </defs>
       <use xlink:href="#DejaVuSans-4c"/>
      </g>
     </g>
    </g>
    <g id="text_2">
     <!-- Sample -->
     <g style="fill: #262626" transform="translate(242.171563 331.916562)scale(0.1 -0.1)">
      <defs>
       <path id="DejaVuSans-53" d="M 3425 4513 
L 3425 3897 
Q 3066 4069 2747 4153 
Q 2428 4238 2131 4238 
Q 1616 4238 1336 4038 
Q 1056 3838 1056 3469 
Q 1056 3159 1242 3001 
Q 1428 2844 1947 2747 
L 2328 2669 
Q 3034 2534 3370 2195 
Q 3706 1856 3706 1288 
Q 3706 609 3251 259 
Q 2797 -91 1919 -91 
Q 1588 -91 1214 -16 
Q 841 59 441 206 
L 441 856 
Q 825 641 1194 531 
Q 1563 422 1919 422 
Q 2459 422 2753 634 
Q 3047 847 3047 1241 
Q 3047 1584 2836 1778 
Q 2625 1972 2144 2069 
L 1759 2144 
Q 1053 2284 737 2584 
Q 422 2884 422 3419 
Q 422 4038 858 4394 
Q 1294 4750 2059 4750 
Q 2388 4750 2728 4690 
Q 3069 4631 3425 4513 
z
" transform="scale(0.015625)"/>
       <path id="DejaVuSans-61" d="M 2194 1759 
Q 1497 1759 1228 1600 
Q 959 1441 959 1056 
Q 959 750 1161 570 
Q 1363 391 1709 391 
Q 2188 391 2477 730 
Q 2766 1069 2766 1631 
L 2766 1759 
L 2194 1759 
z
M 3341 1997 
L 3341 0 
L 2766 0 
L 2766 531 
Q 2569 213 2275 61 
Q 1981 -91 1556 -91 
Q 1019 -91 701 211 
Q 384 513 384 1019 
Q 384 1609 779 1909 
Q 1175 2209 1959 2209 
L 2766 2209 
L 2766 2266 
Q 2766 2663 2505 2880 
Q 2244 3097 1772 3097 
Q 1472 3097 1187 3025 
Q 903 2953 641 2809 
L 641 3341 
Q 956 3463 1253 3523 
Q 1550 3584 1831 3584 
Q 2591 3584 2966 3190 
Q 3341 2797 3341 1997 
z
" transform="scale(0.015625)"/>
       <path id="DejaVuSans-6d" d="M 3328 2828 
Q 3544 3216 3844 3400 
Q 4144 3584 4550 3584 
Q 5097 3584 5394 3201 
Q 5691 2819 5691 2113 
L 5691 0 
L 5113 0 
L 5113 2094 
Q 5113 2597 4934 2840 
Q 4756 3084 4391 3084 
Q 3944 3084 3684 2787 
Q 3425 2491 3425 1978 
L 3425 0 
L 2847 0 
L 2847 2094 
Q 2847 2600 2669 2842 
Q 2491 3084 2119 3084 
Q 1678 3084 1418 2786 
Q 1159 2488 1159 1978 
L 1159 0 
L 581 0 
L 581 3500 
L 1159 3500 
L 1159 2956 
Q 1356 3278 1631 3431 
Q 1906 3584 2284 3584 
Q 2666 3584 2933 3390 
Q 3200 3197 3328 2828 
z
" transform="scale(0.015625)"/>
       <path id="DejaVuSans-70" d="M 1159 525 
L 1159 -1331 
L 581 -1331 
L 581 3500 
L 1159 3500 
L 1159 2969 
Q 1341 3281 1617 3432 
Q 1894 3584 2278 3584 
Q 2916 3584 3314 3078 
Q 3713 2572 3713 1747 
Q 3713 922 3314 415 
Q 2916 -91 2278 -91 
Q 1894 -91 1617 61 
Q 1341 213 1159 525 
z
M 3116 1747 
Q 3116 2381 2855 2742 
Q 2594 3103 2138 3103 
Q 1681 3103 1420 2742 
Q 1159 2381 1159 1747 
Q 1159 1113 1420 752 
Q 1681 391 2138 391 
Q 2594 391 2855 752 
Q 3116 1113 3116 1747 
z
" transform="scale(0.015625)"/>
       <path id="DejaVuSans-6c" d="M 603 4863 
L 1178 4863 
L 1178 0 
L 603 0 
L 603 4863 
z
" transform="scale(0.015625)"/>
       <path id="DejaVuSans-65" d="M 3597 1894 
L 3597 1613 
L 953 1613 
Q 991 1019 1311 708 
Q 1631 397 2203 397 
Q 2534 397 2845 478 
Q 3156 559 3463 722 
L 3463 178 
Q 3153 47 2828 -22 
Q 2503 -91 2169 -91 
Q 1331 -91 842 396 
Q 353 884 353 1716 
Q 353 2575 817 3079 
Q 1281 3584 2069 3584 
Q 2775 3584 3186 3129 
Q 3597 2675 3597 1894 
z
M 3022 2063 
Q 3016 2534 2758 2815 
Q 2500 3097 2075 3097 
Q 1594 3097 1305 2825 
Q 1016 2553 972 2059 
L 3022 2063 
z
" transform="scale(0.015625)"/>
      </defs>
      <use xlink:href="#DejaVuSans-53"/>
      <use xlink:href="#DejaVuSans-61" x="63.476562"/>
      <use xlink:href="#DejaVuSans-6d" x="124.755859"/>
      <use xlink:href="#DejaVuSans-70" x="222.167969"/>
      <use xlink:href="#DejaVuSans-6c" x="285.644531"/>
      <use xlink:href="#DejaVuSans-65" x="313.427734"/>
     </g>
    </g>
   </g>
   <g id="matplotlib.axis_2">
    <g id="ytick_1">
     <g id="line2d_1">
      <path d="M 71.84 267.535255 
L 450 267.535255 
" clip-path="url(#pc40f7982d0)" style="fill: none; stroke: #cccccc; stroke-width: 0.8; stroke-linecap: round"/>
     </g>
     <g id="text_3">
      <!-- −10000 -->
      <g style="fill: #262626" transform="translate(24.647813 271.334474)scale(0.1 -0.1)">
       <defs>
        <path id="DejaVuSans-2212" d="M 678 2272 
L 4684 2272 
L 4684 1741 
L 678 1741 
L 678 2272 
z
" transform="scale(0.015625)"/>
        <path id="DejaVuSans-31" d="M 794 531 
L 1825 531 
L 1825 4091 
L 703 3866 
L 703 4441 
L 1819 4666 
L 2450 4666 
L 2450 531 
L 3481 531 
L 3481 0 
L 794 0 
L 794 531 
z
" transform="scale(0.015625)"/>
        <path id="DejaVuSans-30" d="M 2034 4250 
Q 1547 4250 1301 3770 
Q 1056 3291 1056 2328 
Q 1056 1369 1301 889 
Q 1547 409 2034 409 
Q 2525 409 2770 889 
Q 3016 1369 3016 2328 
Q 3016 3291 2770 3770 
Q 2525 4250 2034 4250 
z
M 2034 4750 
Q 2819 4750 3233 4129 
Q 3647 3509 3647 2328 
Q 3647 1150 3233 529 
Q 2819 -91 2034 -91 
Q 1250 -91 836 529 
Q 422 1150 422 2328 
Q 422 3509 836 4129 
Q 1250 4750 2034 4750 
z
" transform="scale(0.015625)"/>
       </defs>
       <use xlink:href="#DejaVuSans-2212"/>
       <use xlink:href="#DejaVuSans-31" x="83.789062"/>
       <use xlink:href="#DejaVuSans-30" x="147.412109"/>
       <use xlink:href="#DejaVuSans-30" x="211.035156"/>
       <use xlink:href="#DejaVuSans-30" x="274.658203"/>
       <use xlink:href="#DejaVuSans-30" x="338.28125"/>
      </g>
     </g>
    </g>
    <g id="ytick_2">
     <g id="line2d_2">
      <path d="M 71.84 228.948959 
L 450 228.948959 
" clip-path="url(#pc40f7982d0)" style="fill: none; stroke: #cccccc; stroke-width: 0.8; stroke-linecap: round"/>
     </g>
     <g id="text_4">
      <!-- −7500 -->
      <g style="fill: #262626" transform="translate(31.010313 232.748178)scale(0.1 -0.1)">
       <defs>
        <path id="DejaVuSans-37" d="M 525 4666 
L 3525 4666 
L 3525 4397 
L 1831 0 
L 1172 0 
L 2766 4134 
L 525 4134 
L 525 4666 
z
" transform="scale(0.015625)"/>
        <path id="DejaVuSans-35" d="M 691 4666 
L 3169 4666 
L 3169 4134 
L 1269 4134 
L 1269 2991 
Q 1406 3038 1543 3061 
Q 1681 3084 1819 3084 
Q 2600 3084 3056 2656 
Q 3513 2228 3513 1497 
Q 3513 744 3044 326 
Q 2575 -91 1722 -91 
Q 1428 -91 1123 -41 
Q 819 9 494 109 
L 494 744 
Q 775 591 1075 516 
Q 1375 441 1709 441 
Q 2250 441 2565 725 
Q 2881 1009 2881 1497 
Q 2881 1984 2565 2268 
Q 2250 2553 1709 2553 
Q 1456 2553 1204 2497 
Q 953 2441 691 2322 
L 691 4666 
z
" transform="scale(0.015625)"/>
       </defs>
       <use xlink:href="#DejaVuSans-2212"/>
       <use xlink:href="#DejaVuSans-37" x="83.789062"/>
       <use xlink:href="#DejaVuSans-35" x="147.412109"/>
       <use xlink:href="#DejaVuSans-30" x="211.035156"/>
       <use xlink:href="#DejaVuSans-30" x="274.658203"/>
      </g>
     </g>
    </g>
    <g id="ytick_3">
     <g id="line2d_3">
      <path d="M 71.84 190.362663 
L 450 190.362663 
" clip-path="url(#pc40f7982d0)" style="fill: none; stroke: #cccccc; stroke-width: 0.8; stroke-linecap: round"/>
     </g>
     <g id="text_5">
      <!-- −5000 -->
      <g style="fill: #262626" transform="translate(31.010313 194.161882)scale(0.1 -0.1)">
       <use xlink:href="#DejaVuSans-2212"/>
       <use xlink:href="#DejaVuSans-35" x="83.789062"/>
       <use xlink:href="#DejaVuSans-30" x="147.412109"/>
       <use xlink:href="#DejaVuSans-30" x="211.035156"/>
       <use xlink:href="#DejaVuSans-30" x="274.658203"/>
      </g>
     </g>
    </g>
    <g id="ytick_4">
     <g id="line2d_4">
      <path d="M 71.84 151.776367 
L 450 151.776367 
" clip-path="url(#pc40f7982d0)" style="fill: none; stroke: #cccccc; stroke-width: 0.8; stroke-linecap: round"/>
     </g>
     <g id="text_6">
      <!-- −2500 -->
      <g style="fill: #262626" transform="translate(31.010313 155.575586)scale(0.1 -0.1)">
       <defs>
        <path id="DejaVuSans-32" d="M 1228 531 
L 3431 531 
L 3431 0 
L 469 0 
L 469 531 
Q 828 903 1448 1529 
Q 2069 2156 2228 2338 
Q 2531 2678 2651 2914 
Q 2772 3150 2772 3378 
Q 2772 3750 2511 3984 
Q 2250 4219 1831 4219 
Q 1534 4219 1204 4116 
Q 875 4013 500 3803 
L 500 4441 
Q 881 4594 1212 4672 
Q 1544 4750 1819 4750 
Q 2544 4750 2975 4387 
Q 3406 4025 3406 3419 
Q 3406 3131 3298 2873 
Q 3191 2616 2906 2266 
Q 2828 2175 2409 1742 
Q 1991 1309 1228 531 
z
" transform="scale(0.015625)"/>
       </defs>
       <use xlink:href="#DejaVuSans-2212"/>
       <use xlink:href="#DejaVuSans-32" x="83.789062"/>
       <use xlink:href="#DejaVuSans-35" x="147.412109"/>
       <use xlink:href="#DejaVuSans-30" x="211.035156"/>
       <use xlink:href="#DejaVuSans-30" x="274.658203"/>
      </g>
     </g>
    </g>
    <g id="ytick_5">
     <g id="line2d_5">
      <path d="M 71.84 113.190071 
L 450 113.190071 
" clip-path="url(#pc40f7982d0)" style="fill: none; stroke: #cccccc; stroke-width: 0.8; stroke-linecap: round"/>
     </g>
     <g id="text_7">
      <!-- 0 -->
      <g style="fill: #262626" transform="translate(58.4775 116.98929)scale(0.1 -0.1)">
       <use xlink:href="#DejaVuSans-30"/>
      </g>
     </g>
    </g>
    <g id="ytick_6">
     <g id="line2d_6">
      <path d="M 71.84 74.603775 
L 450 74.603775 
" clip-path="url(#pc40f7982d0)" style="fill: none; stroke: #cccccc; stroke-width: 0.8; stroke-linecap: round"/>
     </g>
     <g id="text_8">
      <!-- 2500 -->
      <g style="fill: #262626" transform="translate(39.39 78.402994)scale(0.1 -0.1)">
       <use xlink:href="#DejaVuSans-32"/>
       <use xlink:href="#DejaVuSans-35" x="63.623047"/>
       <use xlink:href="#DejaVuSans-30" x="127.246094"/>
       <use xlink:href="#DejaVuSans-30" x="190.869141"/>
      </g>
     </g>
    </g>
    <g id="ytick_7">
     <g id="line2d_7">
      <path d="M 71.84 36.017479 
L 450 36.017479 
" clip-path="url(#pc40f7982d0)" style="fill: none; stroke: #cccccc; stroke-width: 0.8; stroke-linecap: round"/>
     </g>
     <g id="text_9">
      <!-- 5000 -->
      <g style="fill: #262626" transform="translate(39.39 39.816698)scale(0.1 -0.1)">
       <use xlink:href="#DejaVuSans-35"/>
       <use xlink:href="#DejaVuSans-30" x="63.623047"/>
       <use xlink:href="#DejaVuSans-30" x="127.246094"/>
       <use xlink:href="#DejaVuSans-30" x="190.869141"/>
      </g>
     </g>
    </g>
    <g id="text_10">
     <!-- Delta Fluorescence -->
     <g style="fill: #262626" transform="translate(18.568125 207.966792)rotate(-90)scale(0.1 -0.1)">
      <defs>
       <path id="DejaVuSans-44" d="M 1259 4147 
L 1259 519 
L 2022 519 
Q 2988 519 3436 956 
Q 3884 1394 3884 2338 
Q 3884 3275 3436 3711 
Q 2988 4147 2022 4147 
L 1259 4147 
z
M 628 4666 
L 1925 4666 
Q 3281 4666 3915 4102 
Q 4550 3538 4550 2338 
Q 4550 1131 3912 565 
Q 3275 0 1925 0 
L 628 0 
L 628 4666 
z
" transform="scale(0.015625)"/>
       <path id="DejaVuSans-74" d="M 1172 4494 
L 1172 3500 
L 2356 3500 
L 2356 3053 
L 1172 3053 
L 1172 1153 
Q 1172 725 1289 603 
Q 1406 481 1766 481 
L 2356 481 
L 2356 0 
L 1766 0 
Q 1100 0 847 248 
Q 594 497 594 1153 
L 594 3053 
L 172 3053 
L 172 3500 
L 594 3500 
L 594 4494 
L 1172 4494 
z
" transform="scale(0.015625)"/>
       <path id="DejaVuSans-20" transform="scale(0.015625)"/>
       <path id="DejaVuSans-46" d="M 628 4666 
L 3309 4666 
L 3309 4134 
L 1259 4134 
L 1259 2759 
L 3109 2759 
L 3109 2228 
L 1259 2228 
L 1259 0 
L 628 0 
L 628 4666 
z
" transform="scale(0.015625)"/>
       <path id="DejaVuSans-75" d="M 544 1381 
L 544 3500 
L 1119 3500 
L 1119 1403 
Q 1119 906 1312 657 
Q 1506 409 1894 409 
Q 2359 409 2629 706 
Q 2900 1003 2900 1516 
L 2900 3500 
L 3475 3500 
L 3475 0 
L 2900 0 
L 2900 538 
Q 2691 219 2414 64 
Q 2138 -91 1772 -91 
Q 1169 -91 856 284 
Q 544 659 544 1381 
z
M 1991 3584 
L 1991 3584 
z
" transform="scale(0.015625)"/>
       <path id="DejaVuSans-6f" d="M 1959 3097 
Q 1497 3097 1228 2736 
Q 959 2375 959 1747 
Q 959 1119 1226 758 
Q 1494 397 1959 397 
Q 2419 397 2687 759 
Q 2956 1122 2956 1747 
Q 2956 2369 2687 2733 
Q 2419 3097 1959 3097 
z
M 1959 3584 
Q 2709 3584 3137 3096 
Q 3566 2609 3566 1747 
Q 3566 888 3137 398 
Q 2709 -91 1959 -91 
Q 1206 -91 779 398 
Q 353 888 353 1747 
Q 353 2609 779 3096 
Q 1206 3584 1959 3584 
z
" transform="scale(0.015625)"/>
       <path id="DejaVuSans-72" d="M 2631 2963 
Q 2534 3019 2420 3045 
Q 2306 3072 2169 3072 
Q 1681 3072 1420 2755 
Q 1159 2438 1159 1844 
L 1159 0 
L 581 0 
L 581 3500 
L 1159 3500 
L 1159 2956 
Q 1341 3275 1631 3429 
Q 1922 3584 2338 3584 
Q 2397 3584 2469 3576 
Q 2541 3569 2628 3553 
L 2631 2963 
z
" transform="scale(0.015625)"/>
       <path id="DejaVuSans-73" d="M 2834 3397 
L 2834 2853 
Q 2591 2978 2328 3040 
Q 2066 3103 1784 3103 
Q 1356 3103 1142 2972 
Q 928 2841 928 2578 
Q 928 2378 1081 2264 
Q 1234 2150 1697 2047 
L 1894 2003 
Q 2506 1872 2764 1633 
Q 3022 1394 3022 966 
Q 3022 478 2636 193 
Q 2250 -91 1575 -91 
Q 1294 -91 989 -36 
Q 684 19 347 128 
L 347 722 
Q 666 556 975 473 
Q 1284 391 1588 391 
Q 1994 391 2212 530 
Q 2431 669 2431 922 
Q 2431 1156 2273 1281 
Q 2116 1406 1581 1522 
L 1381 1569 
Q 847 1681 609 1914 
Q 372 2147 372 2553 
Q 372 3047 722 3315 
Q 1072 3584 1716 3584 
Q 2034 3584 2315 3537 
Q 2597 3491 2834 3397 
z
" transform="scale(0.015625)"/>
       <path id="DejaVuSans-63" d="M 3122 3366 
L 3122 2828 
Q 2878 2963 2633 3030 
Q 2388 3097 2138 3097 
Q 1578 3097 1268 2742 
Q 959 2388 959 1747 
Q 959 1106 1268 751 
Q 1578 397 2138 397 
Q 2388 397 2633 464 
Q 2878 531 3122 666 
L 3122 134 
Q 2881 22 2623 -34 
Q 2366 -91 2075 -91 
Q 1284 -91 818 406 
Q 353 903 353 1747 
Q 353 2603 823 3093 
Q 1294 3584 2113 3584 
Q 2378 3584 2631 3529 
Q 2884 3475 3122 3366 
z
" transform="scale(0.015625)"/>
       <path id="DejaVuSans-6e" d="M 3513 2113 
L 3513 0 
L 2938 0 
L 2938 2094 
Q 2938 2591 2744 2837 
Q 2550 3084 2163 3084 
Q 1697 3084 1428 2787 
Q 1159 2491 1159 1978 
L 1159 0 
L 581 0 
L 581 3500 
L 1159 3500 
L 1159 2956 
Q 1366 3272 1645 3428 
Q 1925 3584 2291 3584 
Q 2894 3584 3203 3211 
Q 3513 2838 3513 2113 
z
" transform="scale(0.015625)"/>
      </defs>
      <use xlink:href="#DejaVuSans-44"/>
      <use xlink:href="#DejaVuSans-65" x="77.001953"/>
      <use xlink:href="#DejaVuSans-6c" x="138.525391"/>
      <use xlink:href="#DejaVuSans-74" x="166.308594"/>
      <use xlink:href="#DejaVuSans-61" x="205.517578"/>
      <use xlink:href="#DejaVuSans-20" x="266.796875"/>
      <use xlink:href="#DejaVuSans-46" x="298.583984"/>
      <use xlink:href="#DejaVuSans-6c" x="356.103516"/>
      <use xlink:href="#DejaVuSans-75" x="383.886719"/>
      <use xlink:href="#DejaVuSans-6f" x="447.265625"/>
      <use xlink:href="#DejaVuSans-72" x="508.447266"/>
      <use xlink:href="#DejaVuSans-65" x="547.310547"/>
      <use xlink:href="#DejaVuSans-73" x="608.833984"/>
      <use xlink:href="#DejaVuSans-63" x="660.933594"/>
      <use xlink:href="#DejaVuSans-65" x="715.914062"/>
      <use xlink:href="#DejaVuSans-6e" x="777.4375"/>
      <use xlink:href="#DejaVuSans-63" x="840.816406"/>
      <use xlink:href="#DejaVuSans-65" x="895.796875"/>
     </g>
    </g>
   </g>
   <g id="patch_3">
    <path d="M 111.16864 113.479451 
L 259.40736 113.479451 
L 259.40736 67.15708 
L 111.16864 67.15708 
L 111.16864 113.479451 
z
" clip-path="url(#pc40f7982d0)" style="fill: #ecf2ec; stroke: #262626; stroke-width: 1.5; stroke-linejoin: miter"/>
   </g>
   <g id="patch_4">
    <path d="M 262.43264 158.410937 
L 410.67136 158.410937 
L 410.67136 118.942779 
L 262.43264 118.942779 
L 262.43264 158.410937 
z
" clip-path="url(#pc40f7982d0)" style="fill: #107010; stroke: #262626; stroke-width: 1.5; stroke-linejoin: miter"/>
   </g>
   <g id="patch_5">
    <path d="M 260.92 113.190071 
L 260.92 113.190071 
L 260.92 113.190071 
L 260.92 113.190071 
z
" clip-path="url(#pc40f7982d0)" style="fill: #ecf2ec; stroke: #262626; stroke-width: 0.75; stroke-linejoin: miter"/>
   </g>
   <g id="patch_6">
    <path d="M 260.92 113.190071 
L 260.92 113.190071 
L 260.92 113.190071 
L 260.92 113.190071 
z
" clip-path="url(#pc40f7982d0)" style="fill: #107010; stroke: #262626; stroke-width: 0.75; stroke-linejoin: miter"/>
   </g>
   <g id="PathCollection_1"/>
   <g id="PathCollection_2"/>
   <g id="line2d_8">
    <path d="M 185.288 113.479451 
L 185.288 175.85935 
" clip-path="url(#pc40f7982d0)" style="fill: none; stroke: #262626; stroke-width: 1.5; stroke-linecap: round"/>
   </g>
   <g id="line2d_9">
    <path d="M 185.288 67.15708 
L 185.288 16.560772 
" clip-path="url(#pc40f7982d0)" style="fill: none; stroke: #262626; stroke-width: 1.5; stroke-linecap: round"/>
   </g>
   <g id="line2d_10">
    <path d="M 148.22832 175.85935 
L 222.34768 175.85935 
" clip-path="url(#pc40f7982d0)" style="fill: none; stroke: #262626; stroke-width: 1.5; stroke-linecap: round"/>
   </g>
   <g id="line2d_11">
    <path d="M 148.22832 16.560772 
L 222.34768 16.560772 
" clip-path="url(#pc40f7982d0)" style="fill: none; stroke: #262626; stroke-width: 1.5; stroke-linecap: round"/>
   </g>
   <g id="line2d_12"/>
   <g id="line2d_13">
    <path d="M 336.552 158.410937 
L 336.552 210.433523 
" clip-path="url(#pc40f7982d0)" style="fill: none; stroke: #262626; stroke-width: 1.5; stroke-linecap: round"/>
   </g>
   <g id="line2d_14">
    <path d="M 336.552 118.942779 
L 336.552 60.391189 
" clip-path="url(#pc40f7982d0)" style="fill: none; stroke: #262626; stroke-width: 1.5; stroke-linecap: round"/>
   </g>
   <g id="line2d_15">
    <path d="M 299.49232 210.433523 
L 373.61168 210.433523 
" clip-path="url(#pc40f7982d0)" style="fill: none; stroke: #262626; stroke-width: 1.5; stroke-linecap: round"/>
   </g>
   <g id="line2d_16">
    <path d="M 299.49232 60.391189 
L 373.61168 60.391189 
" clip-path="url(#pc40f7982d0)" style="fill: none; stroke: #262626; stroke-width: 1.5; stroke-linecap: round"/>
   </g>
   <g id="line2d_17">
    <defs>
     <path id="mc1a41130d4" d="M -0 1.414214 
L 0.848528 0 
L 0 -1.414214 
L -0.848528 -0 
z
" style="stroke: #262626; stroke-linejoin: miter"/>
    </defs>
    <g clip-path="url(#pc40f7982d0)">
     <use xlink:href="#mc1a41130d4" x="336.552" y="222.919475" style="fill: #262626; stroke: #262626; stroke-linejoin: miter"/>
     <use xlink:href="#mc1a41130d4" x="336.552" y="303.64" style="fill: #262626; stroke: #262626; stroke-linejoin: miter"/>
     <use xlink:href="#mc1a41130d4" x="336.552" y="262.321786" style="fill: #262626; stroke: #262626; stroke-linejoin: miter"/>
    </g>
   </g>
   <g id="line2d_18">
    <path d="M 111.16864 92.954074 
L 259.40736 92.954074 
" clip-path="url(#pc40f7982d0)" style="fill: none; stroke: #262626; stroke-width: 1.5; stroke-linecap: round"/>
   </g>
   <g id="line2d_19">
    <path d="M 262.43264 141.803024 
L 410.67136 141.803024 
" clip-path="url(#pc40f7982d0)" style="fill: none; stroke: #262626; stroke-width: 1.5; stroke-linecap: round"/>
   </g>
   <g id="patch_7">
    <path d="M 71.84 303.64 
L 71.84 16.560772 
" style="fill: none; stroke: #cccccc; stroke-width: 0.8; stroke-linejoin: miter; stroke-linecap: square"/>
   </g>
   <g id="patch_8">
    <path d="M 450 303.64 
L 450 16.560772 
" style="fill: none; stroke: #cccccc; stroke-width: 0.8; stroke-linejoin: miter; stroke-linecap: square"/>
   </g>
   <g id="patch_9">
    <path d="M 71.84 303.64 
L 450 303.64 
" style="fill: none; stroke: #cccccc; stroke-width: 0.8; stroke-linejoin: miter; stroke-linecap: square"/>
   </g>
   <g id="patch_10">
    <path d="M 71.84 16.560772 
L 450 16.560772 
" style="fill: none; stroke: #cccccc; stroke-width: 0.8; stroke-linejoin: miter; stroke-linecap: square"/>
   </g>
   <g id="PathCollection_3">
    <defs>
     <path id="C0_0_645a8ec521" d="M 0 1 
C 0.265203 1 0.51958 0.894634 0.707107 0.707107 
C 0.894634 0.51958 1 0.265203 1 -0 
C 1 -0.265203 0.894634 -0.51958 0.707107 -0.707107 
C 0.51958 -0.894634 0.265203 -1 0 -1 
C -0.265203 -1 -0.51958 -0.894634 -0.707107 -0.707107 
C -0.894634 -0.51958 -1 -0.265203 -1 0 
C -1 0.265203 -0.894634 0.51958 -0.707107 0.707107 
C -0.51958 0.894634 -0.265203 1 0 1 
z
"/>
    </defs>
    <g clip-path="url(#pc40f7982d0)">
     <use xlink:href="#C0_0_645a8ec521" x="194.627075" y="124.374193" style="fill: #262626"/>
    </g>
    <g clip-path="url(#pc40f7982d0)">
     <use xlink:href="#C0_0_645a8ec521" x="179.697228" y="65.423103" style="fill: #262626"/>
    </g>
    <g clip-path="url(#pc40f7982d0)">
     <use xlink:href="#C0_0_645a8ec521" x="193.387261" y="175.85935" style="fill: #262626"/>
    </g>
    <g clip-path="url(#pc40f7982d0)">
     <use xlink:href="#C0_0_645a8ec521" x="195.148358" y="130.230127" style="fill: #262626"/>
    </g>
    <g clip-path="url(#pc40f7982d0)">
     <use xlink:href="#C0_0_645a8ec521" x="197.384006" y="93.072817" style="fill: #262626"/>
    </g>
    <g clip-path="url(#pc40f7982d0)">
     <use xlink:href="#C0_0_645a8ec521" x="191.832282" y="113.479451" style="fill: #262626"/>
    </g>
    <g clip-path="url(#pc40f7982d0)">
     <use xlink:href="#C0_0_645a8ec521" x="201.33325" y="87.957436" style="fill: #262626"/>
    </g>
    <g clip-path="url(#pc40f7982d0)">
     <use xlink:href="#C0_0_645a8ec521" x="168.02349" y="114.221377" style="fill: #262626"/>
    </g>
    <g clip-path="url(#pc40f7982d0)">
     <use xlink:href="#C0_0_645a8ec521" x="196.714287" y="67.15708" style="fill: #262626"/>
    </g>
    <g clip-path="url(#pc40f7982d0)">
     <use xlink:href="#C0_0_645a8ec521" x="183.841441" y="83.226586" style="fill: #262626"/>
    </g>
    <g clip-path="url(#pc40f7982d0)">
     <use xlink:href="#C0_0_645a8ec521" x="184.457012" y="47.986017" style="fill: #262626"/>
    </g>
    <g clip-path="url(#pc40f7982d0)">
     <use xlink:href="#C0_0_645a8ec521" x="176.727772" y="32.059161" style="fill: #262626"/>
    </g>
    <g clip-path="url(#pc40f7982d0)">
     <use xlink:href="#C0_0_645a8ec521" x="195.791942" y="63.372749" style="fill: #262626"/>
    </g>
    <g clip-path="url(#pc40f7982d0)">
     <use xlink:href="#C0_0_645a8ec521" x="167.070686" y="126.753733" style="fill: #262626"/>
    </g>
    <g clip-path="url(#pc40f7982d0)">
     <use xlink:href="#C0_0_645a8ec521" x="188.59902" y="80.575082" style="fill: #262626"/>
    </g>
    <g clip-path="url(#pc40f7982d0)">
     <use xlink:href="#C0_0_645a8ec521" x="196.829867" y="58.5876" style="fill: #262626"/>
    </g>
    <g clip-path="url(#pc40f7982d0)">
     <use xlink:href="#C0_0_645a8ec521" x="180.20499" y="91.138708" style="fill: #262626"/>
    </g>
    <g clip-path="url(#pc40f7982d0)">
     <use xlink:href="#C0_0_645a8ec521" x="182.274036" y="50.829266" style="fill: #262626"/>
    </g>
    <g clip-path="url(#pc40f7982d0)">
     <use xlink:href="#C0_0_645a8ec521" x="202.009315" y="80.756536" style="fill: #262626"/>
    </g>
    <g clip-path="url(#pc40f7982d0)">
     <use xlink:href="#C0_0_645a8ec521" x="181.334754" y="134.799052" style="fill: #262626"/>
    </g>
    <g clip-path="url(#pc40f7982d0)">
     <use xlink:href="#C0_0_645a8ec521" x="173.687171" y="87.6594" style="fill: #262626"/>
    </g>
    <g clip-path="url(#pc40f7982d0)">
     <use xlink:href="#C0_0_645a8ec521" x="191.120802" y="52.008463" style="fill: #262626"/>
    </g>
    <g clip-path="url(#pc40f7982d0)">
     <use xlink:href="#C0_0_645a8ec521" x="192.409935" y="73.512422" style="fill: #262626"/>
    </g>
    <g clip-path="url(#pc40f7982d0)">
     <use xlink:href="#C0_0_645a8ec521" x="200.758333" y="94.312297" style="fill: #262626"/>
    </g>
    <g clip-path="url(#pc40f7982d0)">
     <use xlink:href="#C0_0_645a8ec521" x="184.646468" y="107.11899" style="fill: #262626"/>
    </g>
    <g clip-path="url(#pc40f7982d0)">
     <use xlink:href="#C0_0_645a8ec521" x="183.335197" y="88.367576" style="fill: #262626"/>
    </g>
    <g clip-path="url(#pc40f7982d0)">
     <use xlink:href="#C0_0_645a8ec521" x="180.036109" y="92.954074" style="fill: #262626"/>
    </g>
    <g clip-path="url(#pc40f7982d0)">
     <use xlink:href="#C0_0_645a8ec521" x="174.687496" y="93.495119" style="fill: #262626"/>
    </g>
    <g clip-path="url(#pc40f7982d0)">
     <use xlink:href="#C0_0_645a8ec521" x="179.801361" y="83.36193" style="fill: #262626"/>
    </g>
    <g clip-path="url(#pc40f7982d0)">
     <use xlink:href="#C0_0_645a8ec521" x="200.175129" y="41.086986" style="fill: #262626"/>
    </g>
    <g clip-path="url(#pc40f7982d0)">
     <use xlink:href="#C0_0_645a8ec521" x="189.832883" y="31.571382" style="fill: #262626"/>
    </g>
    <g clip-path="url(#pc40f7982d0)">
     <use xlink:href="#C0_0_645a8ec521" x="180.720047" y="98.566445" style="fill: #262626"/>
    </g>
    <g clip-path="url(#pc40f7982d0)">
     <use xlink:href="#C0_0_645a8ec521" x="178.307279" y="111.242678" style="fill: #262626"/>
    </g>
    <g clip-path="url(#pc40f7982d0)">
     <use xlink:href="#C0_0_645a8ec521" x="180.151071" y="72.868177" style="fill: #262626"/>
    </g>
    <g clip-path="url(#pc40f7982d0)">
     <use xlink:href="#C0_0_645a8ec521" x="168.812017" y="49.631742" style="fill: #262626"/>
    </g>
    <g clip-path="url(#pc40f7982d0)">
     <use xlink:href="#C0_0_645a8ec521" x="189.070904" y="148.371377" style="fill: #262626"/>
    </g>
    <g clip-path="url(#pc40f7982d0)">
     <use xlink:href="#C0_0_645a8ec521" x="170.686916" y="134.10485" style="fill: #262626"/>
    </g>
    <g clip-path="url(#pc40f7982d0)">
     <use xlink:href="#C0_0_645a8ec521" x="177.631341" y="97.468973" style="fill: #262626"/>
    </g>
    <g clip-path="url(#pc40f7982d0)">
     <use xlink:href="#C0_0_645a8ec521" x="169.634008" y="92.03115" style="fill: #262626"/>
    </g>
    <g clip-path="url(#pc40f7982d0)">
     <use xlink:href="#C0_0_645a8ec521" x="200.239176" y="134.768729" style="fill: #262626"/>
    </g>
    <g clip-path="url(#pc40f7982d0)">
     <use xlink:href="#C0_0_645a8ec521" x="175.790533" y="65.538977" style="fill: #262626"/>
    </g>
    <g clip-path="url(#pc40f7982d0)">
     <use xlink:href="#C0_0_645a8ec521" x="191.322006" y="134.277776" style="fill: #262626"/>
    </g>
    <g clip-path="url(#pc40f7982d0)">
     <use xlink:href="#C0_0_645a8ec521" x="169.762737" y="109.77916" style="fill: #262626"/>
    </g>
    <g clip-path="url(#pc40f7982d0)">
     <use xlink:href="#C0_0_645a8ec521" x="178.388565" y="106.69187" style="fill: #262626"/>
    </g>
    <g clip-path="url(#pc40f7982d0)">
     <use xlink:href="#C0_0_645a8ec521" x="201.11504" y="96.582135" style="fill: #262626"/>
    </g>
    <g clip-path="url(#pc40f7982d0)">
     <use xlink:href="#C0_0_645a8ec521" x="168.769608" y="124.675126" style="fill: #262626"/>
    </g>
    <g clip-path="url(#pc40f7982d0)">
     <use xlink:href="#C0_0_645a8ec521" x="180.15644" y="84.111636" style="fill: #262626"/>
    </g>
    <g clip-path="url(#pc40f7982d0)">
     <use xlink:href="#C0_0_645a8ec521" x="187.985378" y="145.246142" style="fill: #262626"/>
    </g>
    <g clip-path="url(#pc40f7982d0)">
     <use xlink:href="#C0_0_645a8ec521" x="177.76169" y="90.331007" style="fill: #262626"/>
    </g>
    <g clip-path="url(#pc40f7982d0)">
     <use xlink:href="#C0_0_645a8ec521" x="194.834974" y="105.584742" style="fill: #262626"/>
    </g>
    <g clip-path="url(#pc40f7982d0)">
     <use xlink:href="#C0_0_645a8ec521" x="172.123963" y="19.342383" style="fill: #262626"/>
    </g>
    <g clip-path="url(#pc40f7982d0)">
     <use xlink:href="#C0_0_645a8ec521" x="193.328517" y="16.560772" style="fill: #262626"/>
    </g>
    <g clip-path="url(#pc40f7982d0)">
     <use xlink:href="#C0_0_645a8ec521" x="177.85967" y="127.945257" style="fill: #262626"/>
    </g>
    <g clip-path="url(#pc40f7982d0)">
     <use xlink:href="#C0_0_645a8ec521" x="176.498741" y="72.080978" style="fill: #262626"/>
    </g>
    <g clip-path="url(#pc40f7982d0)">
     <use xlink:href="#C0_0_645a8ec521" x="173.376763" y="103.215256" style="fill: #262626"/>
    </g>
    <g clip-path="url(#pc40f7982d0)">
     <use xlink:href="#C0_0_645a8ec521" x="198.574218" y="142.529303" style="fill: #262626"/>
    </g>
    <g clip-path="url(#pc40f7982d0)">
     <use xlink:href="#C0_0_645a8ec521" x="178.692049" y="94.912005" style="fill: #262626"/>
    </g>
    <g clip-path="url(#pc40f7982d0)">
     <use xlink:href="#C0_0_645a8ec521" x="166.43985" y="34.73512" style="fill: #262626"/>
    </g>
    <g clip-path="url(#pc40f7982d0)">
     <use xlink:href="#C0_0_645a8ec521" x="178.275322" y="113.893522" style="fill: #262626"/>
    </g>
    <g clip-path="url(#pc40f7982d0)">
     <use xlink:href="#C0_0_645a8ec521" x="172.186827" y="104.472033" style="fill: #262626"/>
    </g>
    <g clip-path="url(#pc40f7982d0)">
     <use xlink:href="#C0_0_645a8ec521" x="175.949401" y="97.160284" style="fill: #262626"/>
    </g>
    <g clip-path="url(#pc40f7982d0)">
     <use xlink:href="#C0_0_645a8ec521" x="186.398566" y="147.155648" style="fill: #262626"/>
    </g>
    <g clip-path="url(#pc40f7982d0)">
     <use xlink:href="#C0_0_645a8ec521" x="191.836314" y="78.227464" style="fill: #262626"/>
    </g>
    <g clip-path="url(#pc40f7982d0)">
     <use xlink:href="#C0_0_645a8ec521" x="169.418949" y="101.72911" style="fill: #262626"/>
    </g>
    <g clip-path="url(#pc40f7982d0)">
     <use xlink:href="#C0_0_645a8ec521" x="191.816955" y="129.662437" style="fill: #262626"/>
    </g>
    <g clip-path="url(#pc40f7982d0)">
     <use xlink:href="#C0_0_645a8ec521" x="166.535571" y="76.348452" style="fill: #262626"/>
    </g>
    <g clip-path="url(#pc40f7982d0)">
     <use xlink:href="#C0_0_645a8ec521" x="193.355956" y="36.955444" style="fill: #262626"/>
    </g>
    <g clip-path="url(#pc40f7982d0)">
     <use xlink:href="#C0_0_645a8ec521" x="182.081813" y="134.984722" style="fill: #262626"/>
    </g>
    <g clip-path="url(#pc40f7982d0)">
     <use xlink:href="#C0_0_645a8ec521" x="188.667279" y="110.655791" style="fill: #262626"/>
    </g>
    <g clip-path="url(#pc40f7982d0)">
     <use xlink:href="#C0_0_645a8ec521" x="173.496478" y="81.85003" style="fill: #262626"/>
    </g>
    <g clip-path="url(#pc40f7982d0)">
     <use xlink:href="#C0_0_645a8ec521" x="202.615088" y="64.698878" style="fill: #262626"/>
    </g>
    <g clip-path="url(#pc40f7982d0)">
     <use xlink:href="#C0_0_645a8ec521" x="175.713523" y="57.280892" style="fill: #262626"/>
    </g>
    <g clip-path="url(#pc40f7982d0)">
     <use xlink:href="#C0_0_645a8ec521" x="179.659321" y="38.046685" style="fill: #262626"/>
    </g>
   </g>
   <g id="PathCollection_4">
    <defs>
     <path id="C1_0_692d96486a" d="M 0 1 
C 0.265203 1 0.51958 0.894634 0.707107 0.707107 
C 0.894634 0.51958 1 0.265203 1 -0 
C 1 -0.265203 0.894634 -0.51958 0.707107 -0.707107 
C 0.51958 -0.894634 0.265203 -1 0 -1 
C -0.265203 -1 -0.51958 -0.894634 -0.707107 -0.707107 
C -0.894634 -0.51958 -1 -0.265203 -1 0 
C -1 0.265203 -0.894634 0.51958 -0.707107 0.707107 
C -0.51958 0.894634 -0.265203 1 0 1 
z
"/>
    </defs>
    <g clip-path="url(#pc40f7982d0)">
     <use xlink:href="#C1_0_692d96486a" x="344.686469" y="222.919475"/>
    </g>
    <g clip-path="url(#pc40f7982d0)">
     <use xlink:href="#C1_0_692d96486a" x="354.488113" y="156.366311"/>
    </g>
    <g clip-path="url(#pc40f7982d0)">
     <use xlink:href="#C1_0_692d96486a" x="330.382298" y="156.595747"/>
    </g>
    <g clip-path="url(#pc40f7982d0)">
     <use xlink:href="#C1_0_692d96486a" x="321.725223" y="193.781918"/>
    </g>
    <g clip-path="url(#pc40f7982d0)">
     <use xlink:href="#C1_0_692d96486a" x="353.584897" y="182.691237"/>
    </g>
    <g clip-path="url(#pc40f7982d0)">
     <use xlink:href="#C1_0_692d96486a" x="345.167463" y="148.980252"/>
    </g>
    <g clip-path="url(#pc40f7982d0)">
     <use xlink:href="#C1_0_692d96486a" x="328.460193" y="110.398317"/>
    </g>
    <g clip-path="url(#pc40f7982d0)">
     <use xlink:href="#C1_0_692d96486a" x="326.221918" y="139.221084"/>
    </g>
    <g clip-path="url(#pc40f7982d0)">
     <use xlink:href="#C1_0_692d96486a" x="340.297843" y="146.734562"/>
    </g>
    <g clip-path="url(#pc40f7982d0)">
     <use xlink:href="#C1_0_692d96486a" x="327.696543" y="124.800703"/>
    </g>
    <g clip-path="url(#pc40f7982d0)">
     <use xlink:href="#C1_0_692d96486a" x="346.159858" y="73.017863"/>
    </g>
    <g clip-path="url(#pc40f7982d0)">
     <use xlink:href="#C1_0_692d96486a" x="319.93328" y="112.358292"/>
    </g>
    <g clip-path="url(#pc40f7982d0)">
     <use xlink:href="#C1_0_692d96486a" x="322.172988" y="98.518332"/>
    </g>
    <g clip-path="url(#pc40f7982d0)">
     <use xlink:href="#C1_0_692d96486a" x="341.482941" y="303.64"/>
    </g>
    <g clip-path="url(#pc40f7982d0)">
     <use xlink:href="#C1_0_692d96486a" x="342.259219" y="163.751057"/>
    </g>
    <g clip-path="url(#pc40f7982d0)">
     <use xlink:href="#C1_0_692d96486a" x="326.885734" y="139.344487"/>
    </g>
    <g clip-path="url(#pc40f7982d0)">
     <use xlink:href="#C1_0_692d96486a" x="342.355123" y="143.52759"/>
    </g>
    <g clip-path="url(#pc40f7982d0)">
     <use xlink:href="#C1_0_692d96486a" x="325.936049" y="141.803024"/>
    </g>
    <g clip-path="url(#pc40f7982d0)">
     <use xlink:href="#C1_0_692d96486a" x="337.8188" y="105.604944"/>
    </g>
    <g clip-path="url(#pc40f7982d0)">
     <use xlink:href="#C1_0_692d96486a" x="354.96304" y="124.164677"/>
    </g>
    <g clip-path="url(#pc40f7982d0)">
     <use xlink:href="#C1_0_692d96486a" x="343.476021" y="119.888562"/>
    </g>
    <g clip-path="url(#pc40f7982d0)">
     <use xlink:href="#C1_0_692d96486a" x="337.580958" y="153.551341"/>
    </g>
    <g clip-path="url(#pc40f7982d0)">
     <use xlink:href="#C1_0_692d96486a" x="353.376296" y="135.835325"/>
    </g>
    <g clip-path="url(#pc40f7982d0)">
     <use xlink:href="#C1_0_692d96486a" x="328.935606" y="99.404826"/>
    </g>
    <g clip-path="url(#pc40f7982d0)">
     <use xlink:href="#C1_0_692d96486a" x="329.734099" y="70.071868"/>
    </g>
    <g clip-path="url(#pc40f7982d0)">
     <use xlink:href="#C1_0_692d96486a" x="323.360953" y="168.380731"/>
    </g>
    <g clip-path="url(#pc40f7982d0)">
     <use xlink:href="#C1_0_692d96486a" x="330.195106" y="120.653598"/>
    </g>
    <g clip-path="url(#pc40f7982d0)">
     <use xlink:href="#C1_0_692d96486a" x="322.488126" y="99.359719"/>
    </g>
    <g clip-path="url(#pc40f7982d0)">
     <use xlink:href="#C1_0_692d96486a" x="335.826851" y="103.092073"/>
    </g>
    <g clip-path="url(#pc40f7982d0)">
     <use xlink:href="#C1_0_692d96486a" x="329.009314" y="104.952428"/>
    </g>
    <g clip-path="url(#pc40f7982d0)">
     <use xlink:href="#C1_0_692d96486a" x="331.879017" y="150.655981"/>
    </g>
    <g clip-path="url(#pc40f7982d0)">
     <use xlink:href="#C1_0_692d96486a" x="347.688994" y="147.822996"/>
    </g>
    <g clip-path="url(#pc40f7982d0)">
     <use xlink:href="#C1_0_692d96486a" x="351.636162" y="140.633579"/>
    </g>
    <g clip-path="url(#pc40f7982d0)">
     <use xlink:href="#C1_0_692d96486a" x="351.65709" y="125.136568"/>
    </g>
    <g clip-path="url(#pc40f7982d0)">
     <use xlink:href="#C1_0_692d96486a" x="319.860576" y="145.976063"/>
    </g>
    <g clip-path="url(#pc40f7982d0)">
     <use xlink:href="#C1_0_692d96486a" x="319.082035" y="149.887746"/>
    </g>
    <g clip-path="url(#pc40f7982d0)">
     <use xlink:href="#C1_0_692d96486a" x="329.374142" y="136.386088"/>
    </g>
    <g clip-path="url(#pc40f7982d0)">
     <use xlink:href="#C1_0_692d96486a" x="348.565169" y="133.676314"/>
    </g>
    <g clip-path="url(#pc40f7982d0)">
     <use xlink:href="#C1_0_692d96486a" x="320.55723" y="137.759541"/>
    </g>
    <g clip-path="url(#pc40f7982d0)">
     <use xlink:href="#C1_0_692d96486a" x="350.962291" y="153.723865"/>
    </g>
    <g clip-path="url(#pc40f7982d0)">
     <use xlink:href="#C1_0_692d96486a" x="319.92419" y="142.021584"/>
    </g>
    <g clip-path="url(#pc40f7982d0)">
     <use xlink:href="#C1_0_692d96486a" x="341.01654" y="262.321786"/>
    </g>
    <g clip-path="url(#pc40f7982d0)">
     <use xlink:href="#C1_0_692d96486a" x="325.061236" y="138.925883"/>
    </g>
    <g clip-path="url(#pc40f7982d0)">
     <use xlink:href="#C1_0_692d96486a" x="345.869206" y="123.79507"/>
    </g>
    <g clip-path="url(#pc40f7982d0)">
     <use xlink:href="#C1_0_692d96486a" x="321.350525" y="88.936912"/>
    </g>
    <g clip-path="url(#pc40f7982d0)">
     <use xlink:href="#C1_0_692d96486a" x="334.483047" y="138.34731"/>
    </g>
    <g clip-path="url(#pc40f7982d0)">
     <use xlink:href="#C1_0_692d96486a" x="321.320317" y="199.875581"/>
    </g>
    <g clip-path="url(#pc40f7982d0)">
     <use xlink:href="#C1_0_692d96486a" x="351.604234" y="181.48524"/>
    </g>
    <g clip-path="url(#pc40f7982d0)">
     <use xlink:href="#C1_0_692d96486a" x="333.132768" y="157.788569"/>
    </g>
    <g clip-path="url(#pc40f7982d0)">
     <use xlink:href="#C1_0_692d96486a" x="328.163575" y="164.548732"/>
    </g>
    <g clip-path="url(#pc40f7982d0)">
     <use xlink:href="#C1_0_692d96486a" x="345.24439" y="117.996996"/>
    </g>
    <g clip-path="url(#pc40f7982d0)">
     <use xlink:href="#C1_0_692d96486a" x="323.496339" y="103.667821"/>
    </g>
    <g clip-path="url(#pc40f7982d0)">
     <use xlink:href="#C1_0_692d96486a" x="328.910957" y="106.711483"/>
    </g>
    <g clip-path="url(#pc40f7982d0)">
     <use xlink:href="#C1_0_692d96486a" x="321.891426" y="153.666391"/>
    </g>
    <g clip-path="url(#pc40f7982d0)">
     <use xlink:href="#C1_0_692d96486a" x="349.323096" y="74.554974"/>
    </g>
    <g clip-path="url(#pc40f7982d0)">
     <use xlink:href="#C1_0_692d96486a" x="341.052993" y="114.040737"/>
    </g>
    <g clip-path="url(#pc40f7982d0)">
     <use xlink:href="#C1_0_692d96486a" x="328.900256" y="210.433523"/>
    </g>
    <g clip-path="url(#pc40f7982d0)">
     <use xlink:href="#C1_0_692d96486a" x="334.763554" y="159.789299"/>
    </g>
    <g clip-path="url(#pc40f7982d0)">
     <use xlink:href="#C1_0_692d96486a" x="329.852766" y="160.780767"/>
    </g>
    <g clip-path="url(#pc40f7982d0)">
     <use xlink:href="#C1_0_692d96486a" x="345.265654" y="181.08858"/>
    </g>
    <g clip-path="url(#pc40f7982d0)">
     <use xlink:href="#C1_0_692d96486a" x="343.922658" y="142.510061"/>
    </g>
    <g clip-path="url(#pc40f7982d0)">
     <use xlink:href="#C1_0_692d96486a" x="340.023162" y="140.255777"/>
    </g>
    <g clip-path="url(#pc40f7982d0)">
     <use xlink:href="#C1_0_692d96486a" x="344.119337" y="201.320011"/>
    </g>
    <g clip-path="url(#pc40f7982d0)">
     <use xlink:href="#C1_0_692d96486a" x="350.928262" y="74.555545"/>
    </g>
    <g clip-path="url(#pc40f7982d0)">
     <use xlink:href="#C1_0_692d96486a" x="345.615797" y="60.391189"/>
    </g>
    <g clip-path="url(#pc40f7982d0)">
     <use xlink:href="#C1_0_692d96486a" x="320.760071" y="159.033304"/>
    </g>
    <g clip-path="url(#pc40f7982d0)">
     <use xlink:href="#C1_0_692d96486a" x="342.838566" y="151.971749"/>
    </g>
    <g clip-path="url(#pc40f7982d0)">
     <use xlink:href="#C1_0_692d96486a" x="353.815666" y="161.391356"/>
    </g>
    <g clip-path="url(#pc40f7982d0)">
     <use xlink:href="#C1_0_692d96486a" x="350.600373" y="128.91202"/>
    </g>
    <g clip-path="url(#pc40f7982d0)">
     <use xlink:href="#C1_0_692d96486a" x="328.311772" y="165.285026"/>
    </g>
    <g clip-path="url(#pc40f7982d0)">
     <use xlink:href="#C1_0_692d96486a" x="336.425842" y="153.835943"/>
    </g>
   </g>
   <g id="text_11">
    <!-- 73 -->
    <g style="fill: #262626" transform="translate(204.196 113.164604)scale(0.1 -0.1)">
     <defs>
      <path id="DejaVuSans-33" d="M 2597 2516 
Q 3050 2419 3304 2112 
Q 3559 1806 3559 1356 
Q 3559 666 3084 287 
Q 2609 -91 1734 -91 
Q 1441 -91 1130 -33 
Q 819 25 488 141 
L 488 750 
Q 750 597 1062 519 
Q 1375 441 1716 441 
Q 2309 441 2620 675 
Q 2931 909 2931 1356 
Q 2931 1769 2642 2001 
Q 2353 2234 1838 2234 
L 1294 2234 
L 1294 2753 
L 1863 2753 
Q 2328 2753 2575 2939 
Q 2822 3125 2822 3475 
Q 2822 3834 2567 4026 
Q 2313 4219 1838 4219 
Q 1578 4219 1281 4162 
Q 984 4106 628 3988 
L 628 4550 
Q 988 4650 1302 4700 
Q 1616 4750 1894 4750 
Q 2613 4750 3031 4423 
Q 3450 4097 3450 3541 
Q 3450 3153 3228 2886 
Q 3006 2619 2597 2516 
z
" transform="scale(0.015625)"/>
     </defs>
     <use xlink:href="#DejaVuSans-37"/>
     <use xlink:href="#DejaVuSans-33" x="63.623047"/>
    </g>
   </g>
   <g id="text_12">
    <!-- p=nan -->
    <g style="fill: #262626" transform="translate(190.7835 16.56)scale(0.08 -0.08)">
     <defs>
      <path id="DejaVuSans-3d" d="M 678 2906 
L 4684 2906 
L 4684 2381 
L 678 2381 
L 678 2906 
z
M 678 1631 
L 4684 1631 
L 4684 1100 
L 678 1100 
L 678 1631 
z
" transform="scale(0.015625)"/>
     </defs>
     <use xlink:href="#DejaVuSans-70"/>
     <use xlink:href="#DejaVuSans-3d" x="63.476562"/>
     <use xlink:href="#DejaVuSans-6e" x="147.265625"/>
     <use xlink:href="#DejaVuSans-61" x="210.644531"/>
     <use xlink:href="#DejaVuSans-6e" x="271.923828"/>
    </g>
   </g>
   <g id="text_13">
    <!-- 71 -->
    <g style="fill: #262626" transform="translate(317.644 113.164604)scale(0.1 -0.1)">
     <use xlink:href="#DejaVuSans-37"/>
     <use xlink:href="#DejaVuSans-31" x="63.623047"/>
    </g>
   </g>
   <g id="text_14">
    <!-- p=nan -->
    <g style="fill: #262626" transform="translate(304.2315 60.390417)scale(0.08 -0.08)">
     <use xlink:href="#DejaVuSans-70"/>
     <use xlink:href="#DejaVuSans-3d" x="63.476562"/>
     <use xlink:href="#DejaVuSans-6e" x="147.265625"/>
     <use xlink:href="#DejaVuSans-61" x="210.644531"/>
     <use xlink:href="#DejaVuSans-6e" x="271.923828"/>
    </g>
   </g>
   <g id="legend_1">
    <g id="patch_11">
     <path d="M 387.048437 33.159209 
L 407.048437 33.159209 
L 407.048437 26.159209 
L 387.048437 26.159209 
z
" style="fill: #ecf2ec; stroke: #262626; stroke-width: 0.75; stroke-linejoin: miter"/>
    </g>
    <g id="text_15">
     <!-- clash -->
     <g style="fill: #262626" transform="translate(415.048437 33.159209)scale(0.1 -0.1)">
      <defs>
       <path id="DejaVuSans-68" d="M 3513 2113 
L 3513 0 
L 2938 0 
L 2938 2094 
Q 2938 2591 2744 2837 
Q 2550 3084 2163 3084 
Q 1697 3084 1428 2787 
Q 1159 2491 1159 1978 
L 1159 0 
L 581 0 
L 581 4863 
L 1159 4863 
L 1159 2956 
Q 1366 3272 1645 3428 
Q 1925 3584 2291 3584 
Q 2894 3584 3203 3211 
Q 3513 2838 3513 2113 
z
" transform="scale(0.015625)"/>
      </defs>
      <use xlink:href="#DejaVuSans-63"/>
      <use xlink:href="#DejaVuSans-6c" x="54.980469"/>
      <use xlink:href="#DejaVuSans-61" x="82.763672"/>
      <use xlink:href="#DejaVuSans-73" x="144.042969"/>
      <use xlink:href="#DejaVuSans-68" x="196.142578"/>
     </g>
    </g>
    <g id="patch_12">
     <path d="M 387.048437 47.837334 
L 407.048437 47.837334 
L 407.048437 40.837334 
L 387.048437 40.837334 
z
" style="fill: #107010; stroke: #262626; stroke-width: 0.75; stroke-linejoin: miter"/>
    </g>
    <g id="text_16">
     <!-- void -->
     <g style="fill: #262626" transform="translate(415.048437 47.837334)scale(0.1 -0.1)">
      <defs>
       <path id="DejaVuSans-76" d="M 191 3500 
L 800 3500 
L 1894 563 
L 2988 3500 
L 3597 3500 
L 2284 0 
L 1503 0 
L 191 3500 
z
" transform="scale(0.015625)"/>
       <path id="DejaVuSans-69" d="M 603 3500 
L 1178 3500 
L 1178 0 
L 603 0 
L 603 3500 
z
M 603 4863 
L 1178 4863 
L 1178 4134 
L 603 4134 
L 603 4863 
z
" transform="scale(0.015625)"/>
       <path id="DejaVuSans-64" d="M 2906 2969 
L 2906 4863 
L 3481 4863 
L 3481 0 
L 2906 0 
L 2906 525 
Q 2725 213 2448 61 
Q 2172 -91 1784 -91 
Q 1150 -91 751 415 
Q 353 922 353 1747 
Q 353 2572 751 3078 
Q 1150 3584 1784 3584 
Q 2172 3584 2448 3432 
Q 2725 3281 2906 2969 
z
M 947 1747 
Q 947 1113 1208 752 
Q 1469 391 1925 391 
Q 2381 391 2643 752 
Q 2906 1113 2906 1747 
Q 2906 2381 2643 2742 
Q 2381 3103 1925 3103 
Q 1469 3103 1208 2742 
Q 947 2381 947 1747 
z
" transform="scale(0.015625)"/>
      </defs>
      <use xlink:href="#DejaVuSans-76"/>
      <use xlink:href="#DejaVuSans-6f" x="59.179688"/>
      <use xlink:href="#DejaVuSans-69" x="120.361328"/>
      <use xlink:href="#DejaVuSans-64" x="148.144531"/>
     </g>
    </g>
   </g>
  </g>
 </g>
 <defs>
  <clipPath id="pc40f7982d0">
   <rect x="71.84" y="16.560772" width="378.16" height="287.079228"/>
  </clipPath>
 </defs>
</svg>
