<?xml version="1.0" encoding="utf-8" standalone="no"?>
<!DOCTYPE svg PUBLIC "-//W3C//DTD SVG 1.1//EN"
  "http://www.w3.org/Graphics/SVG/1.1/DTD/svg11.dtd">
<svg xmlns:xlink="http://www.w3.org/1999/xlink" width="460.8pt" height="345.6pt" viewBox="0 0 460.8 345.6" xmlns="http://www.w3.org/2000/svg" version="1.1">
 <metadata>
  <rdf:RDF xmlns:dc="http://purl.org/dc/elements/1.1/" xmlns:cc="http://creativecommons.org/ns#" xmlns:rdf="http://www.w3.org/1999/02/22-rdf-syntax-ns#">
   <cc:Work>
    <dc:type rdf:resource="http://purl.org/dc/dcmitype/StillImage"/>
    <dc:date>2024-06-12T17:52:27.111593</dc:date>
    <dc:format>image/svg+xml</dc:format>
    <dc:creator>
     <cc:Agent>
      <dc:title>Matplotlib v3.5.3, https://matplotlib.org/</dc:title>
     </cc:Agent>
    </dc:creator>
   </cc:Work>
  </rdf:RDF>
 </metadata>
 <defs>
  <style type="text/css">*{stroke-linejoin: round; stroke-linecap: butt}</style>
 </defs>
 <g id="figure_1">
  <g id="patch_1">
   <path d="M 0 345.6 
L 460.8 345.6 
L 460.8 0 
L 0 0 
z
" style="fill: #ffffff"/>
  </g>
  <g id="axes_1">
   <g id="patch_2">
    <path d="M 47.72 303.64 
L 450 303.64 
L 450 268.666434 
L 47.72 268.666434 
z
" style="fill: #ffffff"/>
   </g>
   <g id="matplotlib.axis_1">
    <g id="xtick_1">
     <g id="text_1">
      <!-- 12I -->
      <g style="fill: #262626" transform="translate(241.0225 318.238437)scale(0.1 -0.1)">
       <defs>
        <path id="DejaVuSans-31" d="M 794 531 
L 1825 531 
L 1825 4091 
L 703 3866 
L 703 4441 
L 1819 4666 
L 2450 4666 
L 2450 531 
L 3481 531 
L 3481 0 
L 794 0 
L 794 531 
z
" transform="scale(0.015625)"/>
        <path id="DejaVuSans-32" d="M 1228 531 
L 3431 531 
L 3431 0 
L 469 0 
L 469 531 
Q 828 903 1448 1529 
Q 2069 2156 2228 2338 
Q 2531 2678 2651 2914 
Q 2772 3150 2772 3378 
Q 2772 3750 2511 3984 
Q 2250 4219 1831 4219 
Q 1534 4219 1204 4116 
Q 875 4013 500 3803 
L 500 4441 
Q 881 4594 1212 4672 
Q 1544 4750 1819 4750 
Q 2544 4750 2975 4387 
Q 3406 4025 3406 3419 
Q 3406 3131 3298 2873 
Q 3191 2616 2906 2266 
Q 2828 2175 2409 1742 
Q 1991 1309 1228 531 
z
" transform="scale(0.015625)"/>
        <path id="DejaVuSans-49" d="M 628 4666 
L 1259 4666 
L 1259 0 
L 628 0 
L 628 4666 
z
" transform="scale(0.015625)"/>
       </defs>
       <use xlink:href="#DejaVuSans-31"/>
       <use xlink:href="#DejaVuSans-32" x="63.623047"/>
       <use xlink:href="#DejaVuSans-49" x="127.246094"/>
      </g>
     </g>
    </g>
    <g id="text_2">
     <!-- pos_mutAA -->
     <g style="fill: #262626" transform="translate(220.544375 331.638437)scale(0.1 -0.1)">
      <defs>
       <path id="DejaVuSans-70" d="M 1159 525 
L 1159 -1331 
L 581 -1331 
L 581 3500 
L 1159 3500 
L 1159 2969 
Q 1341 3281 1617 3432 
Q 1894 3584 2278 3584 
Q 2916 3584 3314 3078 
Q 3713 2572 3713 1747 
Q 3713 922 3314 415 
Q 2916 -91 2278 -91 
Q 1894 -91 1617 61 
Q 1341 213 1159 525 
z
M 3116 1747 
Q 3116 2381 2855 2742 
Q 2594 3103 2138 3103 
Q 1681 3103 1420 2742 
Q 1159 2381 1159 1747 
Q 1159 1113 1420 752 
Q 1681 391 2138 391 
Q 2594 391 2855 752 
Q 3116 1113 3116 1747 
z
" transform="scale(0.015625)"/>
       <path id="DejaVuSans-6f" d="M 1959 3097 
Q 1497 3097 1228 2736 
Q 959 2375 959 1747 
Q 959 1119 1226 758 
Q 1494 397 1959 397 
Q 2419 397 2687 759 
Q 2956 1122 2956 1747 
Q 2956 2369 2687 2733 
Q 2419 3097 1959 3097 
z
M 1959 3584 
Q 2709 3584 3137 3096 
Q 3566 2609 3566 1747 
Q 3566 888 3137 398 
Q 2709 -91 1959 -91 
Q 1206 -91 779 398 
Q 353 888 353 1747 
Q 353 2609 779 3096 
Q 1206 3584 1959 3584 
z
" transform="scale(0.015625)"/>
       <path id="DejaVuSans-73" d="M 2834 3397 
L 2834 2853 
Q 2591 2978 2328 3040 
Q 2066 3103 1784 3103 
Q 1356 3103 1142 2972 
Q 928 2841 928 2578 
Q 928 2378 1081 2264 
Q 1234 2150 1697 2047 
L 1894 2003 
Q 2506 1872 2764 1633 
Q 3022 1394 3022 966 
Q 3022 478 2636 193 
Q 2250 -91 1575 -91 
Q 1294 -91 989 -36 
Q 684 19 347 128 
L 347 722 
Q 666 556 975 473 
Q 1284 391 1588 391 
Q 1994 391 2212 530 
Q 2431 669 2431 922 
Q 2431 1156 2273 1281 
Q 2116 1406 1581 1522 
L 1381 1569 
Q 847 1681 609 1914 
Q 372 2147 372 2553 
Q 372 3047 722 3315 
Q 1072 3584 1716 3584 
Q 2034 3584 2315 3537 
Q 2597 3491 2834 3397 
z
" transform="scale(0.015625)"/>
       <path id="DejaVuSans-5f" d="M 3263 -1063 
L 3263 -1509 
L -63 -1509 
L -63 -1063 
L 3263 -1063 
z
" transform="scale(0.015625)"/>
       <path id="DejaVuSans-6d" d="M 3328 2828 
Q 3544 3216 3844 3400 
Q 4144 3584 4550 3584 
Q 5097 3584 5394 3201 
Q 5691 2819 5691 2113 
L 5691 0 
L 5113 0 
L 5113 2094 
Q 5113 2597 4934 2840 
Q 4756 3084 4391 3084 
Q 3944 3084 3684 2787 
Q 3425 2491 3425 1978 
L 3425 0 
L 2847 0 
L 2847 2094 
Q 2847 2600 2669 2842 
Q 2491 3084 2119 3084 
Q 1678 3084 1418 2786 
Q 1159 2488 1159 1978 
L 1159 0 
L 581 0 
L 581 3500 
L 1159 3500 
L 1159 2956 
Q 1356 3278 1631 3431 
Q 1906 3584 2284 3584 
Q 2666 3584 2933 3390 
Q 3200 3197 3328 2828 
z
" transform="scale(0.015625)"/>
       <path id="DejaVuSans-75" d="M 544 1381 
L 544 3500 
L 1119 3500 
L 1119 1403 
Q 1119 906 1312 657 
Q 1506 409 1894 409 
Q 2359 409 2629 706 
Q 2900 1003 2900 1516 
L 2900 3500 
L 3475 3500 
L 3475 0 
L 2900 0 
L 2900 538 
Q 2691 219 2414 64 
Q 2138 -91 1772 -91 
Q 1169 -91 856 284 
Q 544 659 544 1381 
z
M 1991 3584 
L 1991 3584 
z
" transform="scale(0.015625)"/>
       <path id="DejaVuSans-74" d="M 1172 4494 
L 1172 3500 
L 2356 3500 
L 2356 3053 
L 1172 3053 
L 1172 1153 
Q 1172 725 1289 603 
Q 1406 481 1766 481 
L 2356 481 
L 2356 0 
L 1766 0 
Q 1100 0 847 248 
Q 594 497 594 1153 
L 594 3053 
L 172 3053 
L 172 3500 
L 594 3500 
L 594 4494 
L 1172 4494 
z
" transform="scale(0.015625)"/>
       <path id="DejaVuSans-41" d="M 2188 4044 
L 1331 1722 
L 3047 1722 
L 2188 4044 
z
M 1831 4666 
L 2547 4666 
L 4325 0 
L 3669 0 
L 3244 1197 
L 1141 1197 
L 716 0 
L 50 0 
L 1831 4666 
z
" transform="scale(0.015625)"/>
      </defs>
      <use xlink:href="#DejaVuSans-70"/>
      <use xlink:href="#DejaVuSans-6f" x="63.476562"/>
      <use xlink:href="#DejaVuSans-73" x="124.658203"/>
      <use xlink:href="#DejaVuSans-5f" x="176.757812"/>
      <use xlink:href="#DejaVuSans-6d" x="226.757812"/>
      <use xlink:href="#DejaVuSans-75" x="324.169922"/>
      <use xlink:href="#DejaVuSans-74" x="387.548828"/>
      <use xlink:href="#DejaVuSans-41" x="426.757812"/>
      <use xlink:href="#DejaVuSans-41" x="497.916016"/>
     </g>
    </g>
   </g>
   <g id="matplotlib.axis_2">
    <g id="ytick_1">
     <g id="line2d_1">
      <path d="M 47.72 303.64 
L 450 303.64 
" clip-path="url(#p93ae1853fb)" style="fill: none; stroke: #cccccc; stroke-width: 0.8; stroke-linecap: round"/>
     </g>
     <g id="text_3">
      <!-- 0.0 -->
      <g style="fill: #262626" transform="translate(24.816875 307.439219)scale(0.1 -0.1)">
       <defs>
        <path id="DejaVuSans-30" d="M 2034 4250 
Q 1547 4250 1301 3770 
Q 1056 3291 1056 2328 
Q 1056 1369 1301 889 
Q 1547 409 2034 409 
Q 2525 409 2770 889 
Q 3016 1369 3016 2328 
Q 3016 3291 2770 3770 
Q 2525 4250 2034 4250 
z
M 2034 4750 
Q 2819 4750 3233 4129 
Q 3647 3509 3647 2328 
Q 3647 1150 3233 529 
Q 2819 -91 2034 -91 
Q 1250 -91 836 529 
Q 422 1150 422 2328 
Q 422 3509 836 4129 
Q 1250 4750 2034 4750 
z
" transform="scale(0.015625)"/>
        <path id="DejaVuSans-2e" d="M 684 794 
L 1344 794 
L 1344 0 
L 684 0 
L 684 794 
z
" transform="scale(0.015625)"/>
       </defs>
       <use xlink:href="#DejaVuSans-30"/>
       <use xlink:href="#DejaVuSans-2e" x="63.623047"/>
       <use xlink:href="#DejaVuSans-30" x="95.410156"/>
      </g>
     </g>
    </g>
    <g id="ytick_2">
     <g id="line2d_2">
      <path d="M 47.72 283.981232 
L 450 283.981232 
" clip-path="url(#p93ae1853fb)" style="fill: none; stroke: #cccccc; stroke-width: 0.8; stroke-linecap: round"/>
     </g>
     <g id="text_4">
      <!-- 0.5 -->
      <g style="fill: #262626" transform="translate(24.816875 287.780451)scale(0.1 -0.1)">
       <defs>
        <path id="DejaVuSans-35" d="M 691 4666 
L 3169 4666 
L 3169 4134 
L 1269 4134 
L 1269 2991 
Q 1406 3038 1543 3061 
Q 1681 3084 1819 3084 
Q 2600 3084 3056 2656 
Q 3513 2228 3513 1497 
Q 3513 744 3044 326 
Q 2575 -91 1722 -91 
Q 1428 -91 1123 -41 
Q 819 9 494 109 
L 494 744 
Q 775 591 1075 516 
Q 1375 441 1709 441 
Q 2250 441 2565 725 
Q 2881 1009 2881 1497 
Q 2881 1984 2565 2268 
Q 2250 2553 1709 2553 
Q 1456 2553 1204 2497 
Q 953 2441 691 2322 
L 691 4666 
z
" transform="scale(0.015625)"/>
       </defs>
       <use xlink:href="#DejaVuSans-30"/>
       <use xlink:href="#DejaVuSans-2e" x="63.623047"/>
       <use xlink:href="#DejaVuSans-35" x="95.410156"/>
      </g>
     </g>
    </g>
    <g id="text_5">
     <!-- PercentGpA -->
     <g style="fill: #262626" transform="translate(18.737188 315.42978)rotate(-90)scale(0.1 -0.1)">
      <defs>
       <path id="DejaVuSans-50" d="M 1259 4147 
L 1259 2394 
L 2053 2394 
Q 2494 2394 2734 2622 
Q 2975 2850 2975 3272 
Q 2975 3691 2734 3919 
Q 2494 4147 2053 4147 
L 1259 4147 
z
M 628 4666 
L 2053 4666 
Q 2838 4666 3239 4311 
Q 3641 3956 3641 3272 
Q 3641 2581 3239 2228 
Q 2838 1875 2053 1875 
L 1259 1875 
L 1259 0 
L 628 0 
L 628 4666 
z
" transform="scale(0.015625)"/>
       <path id="DejaVuSans-65" d="M 3597 1894 
L 3597 1613 
L 953 1613 
Q 991 1019 1311 708 
Q 1631 397 2203 397 
Q 2534 397 2845 478 
Q 3156 559 3463 722 
L 3463 178 
Q 3153 47 2828 -22 
Q 2503 -91 2169 -91 
Q 1331 -91 842 396 
Q 353 884 353 1716 
Q 353 2575 817 3079 
Q 1281 3584 2069 3584 
Q 2775 3584 3186 3129 
Q 3597 2675 3597 1894 
z
M 3022 2063 
Q 3016 2534 2758 2815 
Q 2500 3097 2075 3097 
Q 1594 3097 1305 2825 
Q 1016 2553 972 2059 
L 3022 2063 
z
" transform="scale(0.015625)"/>
       <path id="DejaVuSans-72" d="M 2631 2963 
Q 2534 3019 2420 3045 
Q 2306 3072 2169 3072 
Q 1681 3072 1420 2755 
Q 1159 2438 1159 1844 
L 1159 0 
L 581 0 
L 581 3500 
L 1159 3500 
L 1159 2956 
Q 1341 3275 1631 3429 
Q 1922 3584 2338 3584 
Q 2397 3584 2469 3576 
Q 2541 3569 2628 3553 
L 2631 2963 
z
" transform="scale(0.015625)"/>
       <path id="DejaVuSans-63" d="M 3122 3366 
L 3122 2828 
Q 2878 2963 2633 3030 
Q 2388 3097 2138 3097 
Q 1578 3097 1268 2742 
Q 959 2388 959 1747 
Q 959 1106 1268 751 
Q 1578 397 2138 397 
Q 2388 397 2633 464 
Q 2878 531 3122 666 
L 3122 134 
Q 2881 22 2623 -34 
Q 2366 -91 2075 -91 
Q 1284 -91 818 406 
Q 353 903 353 1747 
Q 353 2603 823 3093 
Q 1294 3584 2113 3584 
Q 2378 3584 2631 3529 
Q 2884 3475 3122 3366 
z
" transform="scale(0.015625)"/>
       <path id="DejaVuSans-6e" d="M 3513 2113 
L 3513 0 
L 2938 0 
L 2938 2094 
Q 2938 2591 2744 2837 
Q 2550 3084 2163 3084 
Q 1697 3084 1428 2787 
Q 1159 2491 1159 1978 
L 1159 0 
L 581 0 
L 581 3500 
L 1159 3500 
L 1159 2956 
Q 1366 3272 1645 3428 
Q 1925 3584 2291 3584 
Q 2894 3584 3203 3211 
Q 3513 2838 3513 2113 
z
" transform="scale(0.015625)"/>
       <path id="DejaVuSans-47" d="M 3809 666 
L 3809 1919 
L 2778 1919 
L 2778 2438 
L 4434 2438 
L 4434 434 
Q 4069 175 3628 42 
Q 3188 -91 2688 -91 
Q 1594 -91 976 548 
Q 359 1188 359 2328 
Q 359 3472 976 4111 
Q 1594 4750 2688 4750 
Q 3144 4750 3555 4637 
Q 3966 4525 4313 4306 
L 4313 3634 
Q 3963 3931 3569 4081 
Q 3175 4231 2741 4231 
Q 1884 4231 1454 3753 
Q 1025 3275 1025 2328 
Q 1025 1384 1454 906 
Q 1884 428 2741 428 
Q 3075 428 3337 486 
Q 3600 544 3809 666 
z
" transform="scale(0.015625)"/>
      </defs>
      <use xlink:href="#DejaVuSans-50"/>
      <use xlink:href="#DejaVuSans-65" x="56.677734"/>
      <use xlink:href="#DejaVuSans-72" x="118.201172"/>
      <use xlink:href="#DejaVuSans-63" x="157.064453"/>
      <use xlink:href="#DejaVuSans-65" x="212.044922"/>
      <use xlink:href="#DejaVuSans-6e" x="273.568359"/>
      <use xlink:href="#DejaVuSans-74" x="336.947266"/>
      <use xlink:href="#DejaVuSans-47" x="376.15625"/>
      <use xlink:href="#DejaVuSans-70" x="453.646484"/>
      <use xlink:href="#DejaVuSans-41" x="517.123047"/>
     </g>
    </g>
   </g>
   <g id="patch_3">
    <path d="M 89.55712 296.85044 
L 247.25088 296.85044 
L 247.25088 290.237896 
L 89.55712 290.237896 
L 89.55712 296.85044 
z
" clip-path="url(#p93ae1853fb)" style="fill: #ecf2ec; stroke: #262626; stroke-width: 1.5; stroke-linejoin: miter"/>
   </g>
   <g id="patch_4">
    <path d="M 250.46912 291.749261 
L 408.16288 291.749261 
L 408.16288 284.944241 
L 250.46912 284.944241 
L 250.46912 291.749261 
z
" clip-path="url(#p93ae1853fb)" style="fill: #107010; stroke: #262626; stroke-width: 1.5; stroke-linejoin: miter"/>
   </g>
   <g id="patch_5">
    <path d="M 248.86 303.64 
L 248.86 303.64 
L 248.86 303.64 
L 248.86 303.64 
z
" clip-path="url(#p93ae1853fb)" style="fill: #ecf2ec; stroke: #262626; stroke-width: 0.75; stroke-linejoin: miter"/>
   </g>
   <g id="patch_6">
    <path d="M 248.86 303.64 
L 248.86 303.64 
L 248.86 303.64 
L 248.86 303.64 
z
" clip-path="url(#p93ae1853fb)" style="fill: #107010; stroke: #262626; stroke-width: 0.75; stroke-linejoin: miter"/>
   </g>
   <g id="PathCollection_1"/>
   <g id="PathCollection_2"/>
   <g id="line2d_3">
    <path d="M 168.404 296.85044 
L 168.404 305.836238 
" clip-path="url(#p93ae1853fb)" style="fill: none; stroke: #262626; stroke-width: 1.5; stroke-linecap: round"/>
   </g>
   <g id="line2d_4">
    <path d="M 168.404 290.237896 
L 168.404 285.109313 
" clip-path="url(#p93ae1853fb)" style="fill: none; stroke: #262626; stroke-width: 1.5; stroke-linecap: round"/>
   </g>
   <g id="line2d_5">
    <path d="M 128.98056 305.836238 
L 207.82744 305.836238 
" clip-path="url(#p93ae1853fb)" style="fill: none; stroke: #262626; stroke-width: 1.5; stroke-linecap: round"/>
   </g>
   <g id="line2d_6">
    <path d="M 128.98056 285.109313 
L 207.82744 285.109313 
" clip-path="url(#p93ae1853fb)" style="fill: none; stroke: #262626; stroke-width: 1.5; stroke-linecap: round"/>
   </g>
   <g id="line2d_7"/>
   <g id="line2d_8">
    <path d="M 329.316 291.749261 
L 329.316 295.152258 
" clip-path="url(#p93ae1853fb)" style="fill: none; stroke: #262626; stroke-width: 1.5; stroke-linecap: round"/>
   </g>
   <g id="line2d_9">
    <path d="M 329.316 284.944241 
L 329.316 279.953696 
" clip-path="url(#p93ae1853fb)" style="fill: none; stroke: #262626; stroke-width: 1.5; stroke-linecap: round"/>
   </g>
   <g id="line2d_10">
    <path d="M 289.89256 295.152258 
L 368.73944 295.152258 
" clip-path="url(#p93ae1853fb)" style="fill: none; stroke: #262626; stroke-width: 1.5; stroke-linecap: round"/>
   </g>
   <g id="line2d_11">
    <path d="M 289.89256 279.953696 
L 368.73944 279.953696 
" clip-path="url(#p93ae1853fb)" style="fill: none; stroke: #262626; stroke-width: 1.5; stroke-linecap: round"/>
   </g>
   <g id="line2d_12">
    <defs>
     <path id="m6d7817b560" d="M -0 1.414214 
L 0.848528 0 
L 0 -1.414214 
L -0.848528 -0 
z
" style="stroke: #262626; stroke-linejoin: miter"/>
    </defs>
    <g clip-path="url(#p93ae1853fb)">
     <use xlink:href="#m6d7817b560" x="329.316" y="310.755758" style="fill: #262626; stroke: #262626; stroke-linejoin: miter"/>
     <use xlink:href="#m6d7817b560" x="329.316" y="271.845849" style="fill: #262626; stroke: #262626; stroke-linejoin: miter"/>
    </g>
   </g>
   <g id="line2d_13">
    <path d="M 89.55712 293.628694 
L 247.25088 293.628694 
" clip-path="url(#p93ae1853fb)" style="fill: none; stroke: #262626; stroke-width: 1.5; stroke-linecap: round"/>
   </g>
   <g id="line2d_14">
    <path d="M 250.46912 287.35532 
L 408.16288 287.35532 
" clip-path="url(#p93ae1853fb)" style="fill: none; stroke: #262626; stroke-width: 1.5; stroke-linecap: round"/>
   </g>
   <g id="patch_7">
    <path d="M 47.72 303.64 
L 47.72 268.666434 
" style="fill: none; stroke: #cccccc; stroke-width: 0.8; stroke-linejoin: miter; stroke-linecap: square"/>
   </g>
   <g id="patch_8">
    <path d="M 450 303.64 
L 450 268.666434 
" style="fill: none; stroke: #cccccc; stroke-width: 0.8; stroke-linejoin: miter; stroke-linecap: square"/>
   </g>
   <g id="patch_9">
    <path d="M 47.72 303.64 
L 450 303.64 
" style="fill: none; stroke: #cccccc; stroke-width: 0.8; stroke-linejoin: miter; stroke-linecap: square"/>
   </g>
   <g id="patch_10">
    <path d="M 47.72 268.666434 
L 450 268.666434 
" style="fill: none; stroke: #cccccc; stroke-width: 0.8; stroke-linejoin: miter; stroke-linecap: square"/>
   </g>
   <g id="PathCollection_3">
    <defs>
     <path id="C0_0_3c46dfdf33" d="M 0 1 
C 0.265203 1 0.51958 0.894634 0.707107 0.707107 
C 0.894634 0.51958 1 0.265203 1 -0 
C 1 -0.265203 0.894634 -0.51958 0.707107 -0.707107 
C 0.51958 -0.894634 0.265203 -1 0 -1 
C -0.265203 -1 -0.51958 -0.894634 -0.707107 -0.707107 
C -0.894634 -0.51958 -1 -0.265203 -1 0 
C -1 0.265203 -0.894634 0.51958 -0.707107 0.707107 
C -0.51958 0.894634 -0.265203 1 0 1 
z
"/>
    </defs>
    <g clip-path="url(#p93ae1853fb)">
     <use xlink:href="#C0_0_3c46dfdf33" x="151.560849" y="290.329588" style="fill: #262626"/>
    </g>
    <g clip-path="url(#p93ae1853fb)">
     <use xlink:href="#C0_0_3c46dfdf33" x="187.593698" y="305.836238" style="fill: #262626"/>
    </g>
    <g clip-path="url(#p93ae1853fb)">
     <use xlink:href="#C0_0_3c46dfdf33" x="157.978187" y="294.598533" style="fill: #262626"/>
    </g>
    <g clip-path="url(#p93ae1853fb)">
     <use xlink:href="#C0_0_3c46dfdf33" x="168.312315" y="299.289896" style="fill: #262626"/>
    </g>
    <g clip-path="url(#p93ae1853fb)">
     <use xlink:href="#C0_0_3c46dfdf33" x="177.571666" y="288.536523" style="fill: #262626"/>
    </g>
    <g clip-path="url(#p93ae1853fb)">
     <use xlink:href="#C0_0_3c46dfdf33" x="179.417095" y="285.888551" style="fill: #262626"/>
    </g>
    <g clip-path="url(#p93ae1853fb)">
     <use xlink:href="#C0_0_3c46dfdf33" x="153.578246" y="288.06909" style="fill: #262626"/>
    </g>
    <g clip-path="url(#p93ae1853fb)">
     <use xlink:href="#C0_0_3c46dfdf33" x="179.927222" y="289.96282" style="fill: #262626"/>
    </g>
    <g clip-path="url(#p93ae1853fb)">
     <use xlink:href="#C0_0_3c46dfdf33" x="170.274594" y="294.429275" style="fill: #262626"/>
    </g>
    <g clip-path="url(#p93ae1853fb)">
     <use xlink:href="#C0_0_3c46dfdf33" x="148.750374" y="296.023154" style="fill: #262626"/>
    </g>
    <g clip-path="url(#p93ae1853fb)">
     <use xlink:href="#C0_0_3c46dfdf33" x="183.542844" y="292.721322" style="fill: #262626"/>
    </g>
    <g clip-path="url(#p93ae1853fb)">
     <use xlink:href="#C0_0_3c46dfdf33" x="173.898179" y="296.72318" style="fill: #262626"/>
    </g>
    <g clip-path="url(#p93ae1853fb)">
     <use xlink:href="#C0_0_3c46dfdf33" x="168.088232" y="288.307309" style="fill: #262626"/>
    </g>
    <g clip-path="url(#p93ae1853fb)">
     <use xlink:href="#C0_0_3c46dfdf33" x="156.755679" y="294.396877" style="fill: #262626"/>
    </g>
    <g clip-path="url(#p93ae1853fb)">
     <use xlink:href="#C0_0_3c46dfdf33" x="150.59729" y="291.738434" style="fill: #262626"/>
    </g>
    <g clip-path="url(#p93ae1853fb)">
     <use xlink:href="#C0_0_3c46dfdf33" x="171.008642" y="293.969093" style="fill: #262626"/>
    </g>
    <g clip-path="url(#p93ae1853fb)">
     <use xlink:href="#C0_0_3c46dfdf33" x="183.860552" y="298.144109" style="fill: #262626"/>
    </g>
    <g clip-path="url(#p93ae1853fb)">
     <use xlink:href="#C0_0_3c46dfdf33" x="186.912619" y="292.89119" style="fill: #262626"/>
    </g>
    <g clip-path="url(#p93ae1853fb)">
     <use xlink:href="#C0_0_3c46dfdf33" x="164.129922" y="298.701398" style="fill: #262626"/>
    </g>
    <g clip-path="url(#p93ae1853fb)">
     <use xlink:href="#C0_0_3c46dfdf33" x="157.692744" y="287.34189" style="fill: #262626"/>
    </g>
    <g clip-path="url(#p93ae1853fb)">
     <use xlink:href="#C0_0_3c46dfdf33" x="165.184971" y="292.989801" style="fill: #262626"/>
    </g>
    <g clip-path="url(#p93ae1853fb)">
     <use xlink:href="#C0_0_3c46dfdf33" x="177.791258" y="292.808124" style="fill: #262626"/>
    </g>
    <g clip-path="url(#p93ae1853fb)">
     <use xlink:href="#C0_0_3c46dfdf33" x="172.619139" y="297.792372" style="fill: #262626"/>
    </g>
    <g clip-path="url(#p93ae1853fb)">
     <use xlink:href="#C0_0_3c46dfdf33" x="148.500993" y="295.703145" style="fill: #262626"/>
    </g>
    <g clip-path="url(#p93ae1853fb)">
     <use xlink:href="#C0_0_3c46dfdf33" x="182.875474" y="294.107099" style="fill: #262626"/>
    </g>
    <g clip-path="url(#p93ae1853fb)">
     <use xlink:href="#C0_0_3c46dfdf33" x="185.918093" y="297.232221" style="fill: #262626"/>
    </g>
    <g clip-path="url(#p93ae1853fb)">
     <use xlink:href="#C0_0_3c46dfdf33" x="183.605136" y="292.399321" style="fill: #262626"/>
    </g>
    <g clip-path="url(#p93ae1853fb)">
     <use xlink:href="#C0_0_3c46dfdf33" x="152.694933" y="297.245474" style="fill: #262626"/>
    </g>
    <g clip-path="url(#p93ae1853fb)">
     <use xlink:href="#C0_0_3c46dfdf33" x="149.756387" y="297.386676" style="fill: #262626"/>
    </g>
    <g clip-path="url(#p93ae1853fb)">
     <use xlink:href="#C0_0_3c46dfdf33" x="175.828419" y="301.938425" style="fill: #262626"/>
    </g>
    <g clip-path="url(#p93ae1853fb)">
     <use xlink:href="#C0_0_3c46dfdf33" x="188.497657" y="292.315734" style="fill: #262626"/>
    </g>
    <g clip-path="url(#p93ae1853fb)">
     <use xlink:href="#C0_0_3c46dfdf33" x="188.195425" y="286.128748" style="fill: #262626"/>
    </g>
    <g clip-path="url(#p93ae1853fb)">
     <use xlink:href="#C0_0_3c46dfdf33" x="180.915649" y="285.109313" style="fill: #262626"/>
    </g>
    <g clip-path="url(#p93ae1853fb)">
     <use xlink:href="#C0_0_3c46dfdf33" x="163.220387" y="289.632558" style="fill: #262626"/>
    </g>
    <g clip-path="url(#p93ae1853fb)">
     <use xlink:href="#C0_0_3c46dfdf33" x="175.193742" y="293.288294" style="fill: #262626"/>
    </g>
    <g clip-path="url(#p93ae1853fb)">
     <use xlink:href="#C0_0_3c46dfdf33" x="168.355537" y="296.277797" style="fill: #262626"/>
    </g>
   </g>
   <g id="PathCollection_4">
    <defs>
     <path id="C1_0_1d581c0ce7" d="M 0 1 
C 0.265203 1 0.51958 0.894634 0.707107 0.707107 
C 0.894634 0.51958 1 0.265203 1 -0 
C 1 -0.265203 0.894634 -0.51958 0.707107 -0.707107 
C 0.51958 -0.894634 0.265203 -1 0 -1 
C -0.265203 -1 -0.51958 -0.894634 -0.707107 -0.707107 
C -0.894634 -0.51958 -1 -0.265203 -1 0 
C -1 0.265203 -0.894634 0.51958 -0.707107 0.707107 
C -0.51958 0.894634 -0.265203 1 0 1 
z
"/>
    </defs>
    <g clip-path="url(#p93ae1853fb)">
     <use xlink:href="#C1_0_1d581c0ce7" x="324.308182" y="293.021473"/>
    </g>
    <g clip-path="url(#p93ae1853fb)">
     <use xlink:href="#C1_0_1d581c0ce7" x="331.759564" y="287.555147"/>
    </g>
    <g clip-path="url(#p93ae1853fb)">
     <use xlink:href="#C1_0_1d581c0ce7" x="311.248261" y="295.152258"/>
    </g>
    <g clip-path="url(#p93ae1853fb)">
     <use xlink:href="#C1_0_1d581c0ce7" x="341.75187" y="282.105144"/>
    </g>
    <g clip-path="url(#p93ae1853fb)">
     <use xlink:href="#C1_0_1d581c0ce7" x="348.959319" y="271.845849"/>
    </g>
    <g clip-path="url(#p93ae1853fb)">
     <use xlink:href="#C1_0_1d581c0ce7" x="319.74018" y="279.953696"/>
    </g>
    <g clip-path="url(#p93ae1853fb)">
     <use xlink:href="#C1_0_1d581c0ce7" x="345.075878" y="286.085503"/>
    </g>
    <g clip-path="url(#p93ae1853fb)">
     <use xlink:href="#C1_0_1d581c0ce7" x="323.955425" y="293.018555"/>
    </g>
    <g clip-path="url(#p93ae1853fb)">
     <use xlink:href="#C1_0_1d581c0ce7" x="333.72415" y="286.765925"/>
    </g>
    <g clip-path="url(#p93ae1853fb)">
     <use xlink:href="#C1_0_1d581c0ce7" x="310.224031" y="288.703426"/>
    </g>
    <g clip-path="url(#p93ae1853fb)">
     <use xlink:href="#C1_0_1d581c0ce7" x="337.220607" y="285.154842"/>
    </g>
    <g clip-path="url(#p93ae1853fb)">
     <use xlink:href="#C1_0_1d581c0ce7" x="332.737764" y="287.003864"/>
    </g>
    <g clip-path="url(#p93ae1853fb)">
     <use xlink:href="#C1_0_1d581c0ce7" x="348.909524" y="292.932416"/>
    </g>
    <g clip-path="url(#p93ae1853fb)">
     <use xlink:href="#C1_0_1d581c0ce7" x="330.630007" y="287.428636"/>
    </g>
    <g clip-path="url(#p93ae1853fb)">
     <use xlink:href="#C1_0_1d581c0ce7" x="329.821606" y="287.687855"/>
    </g>
    <g clip-path="url(#p93ae1853fb)">
     <use xlink:href="#C1_0_1d581c0ce7" x="327.98314" y="285.23239"/>
    </g>
    <g clip-path="url(#p93ae1853fb)">
     <use xlink:href="#C1_0_1d581c0ce7" x="341.210279" y="282.780775"/>
    </g>
    <g clip-path="url(#p93ae1853fb)">
     <use xlink:href="#C1_0_1d581c0ce7" x="333.554679" y="291.007793"/>
    </g>
    <g clip-path="url(#p93ae1853fb)">
     <use xlink:href="#C1_0_1d581c0ce7" x="347.162181" y="294.692912"/>
    </g>
    <g clip-path="url(#p93ae1853fb)">
     <use xlink:href="#C1_0_1d581c0ce7" x="333.853784" y="293.56262"/>
    </g>
    <g clip-path="url(#p93ae1853fb)">
     <use xlink:href="#C1_0_1d581c0ce7" x="337.575841" y="289.32248"/>
    </g>
    <g clip-path="url(#p93ae1853fb)">
     <use xlink:href="#C1_0_1d581c0ce7" x="342.458584" y="280.092171"/>
    </g>
    <g clip-path="url(#p93ae1853fb)">
     <use xlink:href="#C1_0_1d581c0ce7" x="335.454543" y="287.35532"/>
    </g>
    <g clip-path="url(#p93ae1853fb)">
     <use xlink:href="#C1_0_1d581c0ce7" x="334.111789" y="280.026275"/>
    </g>
    <g clip-path="url(#p93ae1853fb)">
     <use xlink:href="#C1_0_1d581c0ce7" x="314.6625" y="287.047542"/>
    </g>
    <g clip-path="url(#p93ae1853fb)">
     <use xlink:href="#C1_0_1d581c0ce7" x="328.432848" y="291.749261"/>
    </g>
    <g clip-path="url(#p93ae1853fb)">
     <use xlink:href="#C1_0_1d581c0ce7" x="338.4597" y="284.575315"/>
    </g>
    <g clip-path="url(#p93ae1853fb)">
     <use xlink:href="#C1_0_1d581c0ce7" x="316.759845" y="310.755758"/>
    </g>
    <g clip-path="url(#p93ae1853fb)">
     <use xlink:href="#C1_0_1d581c0ce7" x="316.305307" y="284.944241"/>
    </g>
   </g>
   <g id="text_6">
    <!-- 36 -->
    <g style="fill: #262626" transform="translate(188.518 238.766067)scale(0.1 -0.1)">
     <defs>
      <path id="DejaVuSans-33" d="M 2597 2516 
Q 3050 2419 3304 2112 
Q 3559 1806 3559 1356 
Q 3559 666 3084 287 
Q 2609 -91 1734 -91 
Q 1441 -91 1130 -33 
Q 819 25 488 141 
L 488 750 
Q 750 597 1062 519 
Q 1375 441 1716 441 
Q 2309 441 2620 675 
Q 2931 909 2931 1356 
Q 2931 1769 2642 2001 
Q 2353 2234 1838 2234 
L 1294 2234 
L 1294 2753 
L 1863 2753 
Q 2328 2753 2575 2939 
Q 2822 3125 2822 3475 
Q 2822 3834 2567 4026 
Q 2313 4219 1838 4219 
Q 1578 4219 1281 4162 
Q 984 4106 628 3988 
L 628 4550 
Q 988 4650 1302 4700 
Q 1616 4750 1894 4750 
Q 2613 4750 3031 4423 
Q 3450 4097 3450 3541 
Q 3450 3153 3228 2886 
Q 3006 2619 2597 2516 
z
" transform="scale(0.015625)"/>
      <path id="DejaVuSans-36" d="M 2113 2584 
Q 1688 2584 1439 2293 
Q 1191 2003 1191 1497 
Q 1191 994 1439 701 
Q 1688 409 2113 409 
Q 2538 409 2786 701 
Q 3034 994 3034 1497 
Q 3034 2003 2786 2293 
Q 2538 2584 2113 2584 
z
M 3366 4563 
L 3366 3988 
Q 3128 4100 2886 4159 
Q 2644 4219 2406 4219 
Q 1781 4219 1451 3797 
Q 1122 3375 1075 2522 
Q 1259 2794 1537 2939 
Q 1816 3084 2150 3084 
Q 2853 3084 3261 2657 
Q 3669 2231 3669 1497 
Q 3669 778 3244 343 
Q 2819 -91 2113 -91 
Q 1303 -91 875 529 
Q 447 1150 447 2328 
Q 447 3434 972 4092 
Q 1497 4750 2381 4750 
Q 2619 4750 2861 4703 
Q 3103 4656 3366 4563 
z
" transform="scale(0.015625)"/>
     </defs>
     <use xlink:href="#DejaVuSans-33"/>
     <use xlink:href="#DejaVuSans-36" x="63.623047"/>
    </g>
   </g>
   <g id="text_7">
    <!-- p=0.0001400056544061501 -->
    <g style="fill: #262626" transform="translate(130.4555 283.143436)scale(0.08 -0.08)">
     <defs>
      <path id="DejaVuSans-3d" d="M 678 2906 
L 4684 2906 
L 4684 2381 
L 678 2381 
L 678 2906 
z
M 678 1631 
L 4684 1631 
L 4684 1100 
L 678 1100 
L 678 1631 
z
" transform="scale(0.015625)"/>
      <path id="DejaVuSans-34" d="M 2419 4116 
L 825 1625 
L 2419 1625 
L 2419 4116 
z
M 2253 4666 
L 3047 4666 
L 3047 1625 
L 3713 1625 
L 3713 1100 
L 3047 1100 
L 3047 0 
L 2419 0 
L 2419 1100 
L 313 1100 
L 313 1709 
L 2253 4666 
z
" transform="scale(0.015625)"/>
     </defs>
     <use xlink:href="#DejaVuSans-70"/>
     <use xlink:href="#DejaVuSans-3d" x="63.476562"/>
     <use xlink:href="#DejaVuSans-30" x="147.265625"/>
     <use xlink:href="#DejaVuSans-2e" x="210.888672"/>
     <use xlink:href="#DejaVuSans-30" x="242.675781"/>
     <use xlink:href="#DejaVuSans-30" x="306.298828"/>
     <use xlink:href="#DejaVuSans-30" x="369.921875"/>
     <use xlink:href="#DejaVuSans-31" x="433.544922"/>
     <use xlink:href="#DejaVuSans-34" x="497.167969"/>
     <use xlink:href="#DejaVuSans-30" x="560.791016"/>
     <use xlink:href="#DejaVuSans-30" x="624.414062"/>
     <use xlink:href="#DejaVuSans-30" x="688.037109"/>
     <use xlink:href="#DejaVuSans-35" x="751.660156"/>
     <use xlink:href="#DejaVuSans-36" x="815.283203"/>
     <use xlink:href="#DejaVuSans-35" x="878.90625"/>
     <use xlink:href="#DejaVuSans-34" x="942.529297"/>
     <use xlink:href="#DejaVuSans-34" x="1006.152344"/>
     <use xlink:href="#DejaVuSans-30" x="1069.775391"/>
     <use xlink:href="#DejaVuSans-36" x="1133.398438"/>
     <use xlink:href="#DejaVuSans-31" x="1197.021484"/>
     <use xlink:href="#DejaVuSans-35" x="1260.644531"/>
     <use xlink:href="#DejaVuSans-30" x="1324.267578"/>
     <use xlink:href="#DejaVuSans-31" x="1387.890625"/>
    </g>
   </g>
   <g id="text_8">
    <!-- 29 -->
    <g style="fill: #262626" transform="translate(309.202 238.766067)scale(0.1 -0.1)">
     <defs>
      <path id="DejaVuSans-39" d="M 703 97 
L 703 672 
Q 941 559 1184 500 
Q 1428 441 1663 441 
Q 2288 441 2617 861 
Q 2947 1281 2994 2138 
Q 2813 1869 2534 1725 
Q 2256 1581 1919 1581 
Q 1219 1581 811 2004 
Q 403 2428 403 3163 
Q 403 3881 828 4315 
Q 1253 4750 1959 4750 
Q 2769 4750 3195 4129 
Q 3622 3509 3622 2328 
Q 3622 1225 3098 567 
Q 2575 -91 1691 -91 
Q 1453 -91 1209 -44 
Q 966 3 703 97 
z
M 1959 2075 
Q 2384 2075 2632 2365 
Q 2881 2656 2881 3163 
Q 2881 3666 2632 3958 
Q 2384 4250 1959 4250 
Q 1534 4250 1286 3958 
Q 1038 3666 1038 3163 
Q 1038 2656 1286 2365 
Q 1534 2075 1959 2075 
z
" transform="scale(0.015625)"/>
     </defs>
     <use xlink:href="#DejaVuSans-32"/>
     <use xlink:href="#DejaVuSans-39" x="63.623047"/>
    </g>
   </g>
   <g id="legend_1">
    <g id="patch_11">
     <path d="M 377.728125 285.264872 
L 397.728125 285.264872 
L 397.728125 278.264872 
L 377.728125 278.264872 
z
" style="fill: #ecf2ec; stroke: #262626; stroke-width: 0.75; stroke-linejoin: miter"/>
    </g>
    <g id="text_9">
     <!-- Mutant -->
     <g style="fill: #262626" transform="translate(405.728125 285.264872)scale(0.1 -0.1)">
      <defs>
       <path id="DejaVuSans-4d" d="M 628 4666 
L 1569 4666 
L 2759 1491 
L 3956 4666 
L 4897 4666 
L 4897 0 
L 4281 0 
L 4281 4097 
L 3078 897 
L 2444 897 
L 1241 4097 
L 1241 0 
L 628 0 
L 628 4666 
z
" transform="scale(0.015625)"/>
       <path id="DejaVuSans-61" d="M 2194 1759 
Q 1497 1759 1228 1600 
Q 959 1441 959 1056 
Q 959 750 1161 570 
Q 1363 391 1709 391 
Q 2188 391 2477 730 
Q 2766 1069 2766 1631 
L 2766 1759 
L 2194 1759 
z
M 3341 1997 
L 3341 0 
L 2766 0 
L 2766 531 
Q 2569 213 2275 61 
Q 1981 -91 1556 -91 
Q 1019 -91 701 211 
Q 384 513 384 1019 
Q 384 1609 779 1909 
Q 1175 2209 1959 2209 
L 2766 2209 
L 2766 2266 
Q 2766 2663 2505 2880 
Q 2244 3097 1772 3097 
Q 1472 3097 1187 3025 
Q 903 2953 641 2809 
L 641 3341 
Q 956 3463 1253 3523 
Q 1550 3584 1831 3584 
Q 2591 3584 2966 3190 
Q 3341 2797 3341 1997 
z
" transform="scale(0.015625)"/>
      </defs>
      <use xlink:href="#DejaVuSans-4d"/>
      <use xlink:href="#DejaVuSans-75" x="86.279297"/>
      <use xlink:href="#DejaVuSans-74" x="149.658203"/>
      <use xlink:href="#DejaVuSans-61" x="188.867188"/>
      <use xlink:href="#DejaVuSans-6e" x="250.146484"/>
      <use xlink:href="#DejaVuSans-74" x="313.525391"/>
     </g>
    </g>
    <g id="patch_12">
     <path d="M 377.728125 299.942997 
L 397.728125 299.942997 
L 397.728125 292.942997 
L 377.728125 292.942997 
z
" style="fill: #107010; stroke: #262626; stroke-width: 0.75; stroke-linejoin: miter"/>
    </g>
    <g id="text_10">
     <!-- WT -->
     <g style="fill: #262626" transform="translate(405.728125 299.942997)scale(0.1 -0.1)">
      <defs>
       <path id="DejaVuSans-57" d="M 213 4666 
L 850 4666 
L 1831 722 
L 2809 4666 
L 3519 4666 
L 4500 722 
L 5478 4666 
L 6119 4666 
L 4947 0 
L 4153 0 
L 3169 4050 
L 2175 0 
L 1381 0 
L 213 4666 
z
" transform="scale(0.015625)"/>
       <path id="DejaVuSans-54" d="M -19 4666 
L 3928 4666 
L 3928 4134 
L 2272 4134 
L 2272 0 
L 1638 0 
L 1638 4134 
L -19 4134 
L -19 4666 
z
" transform="scale(0.015625)"/>
      </defs>
      <use xlink:href="#DejaVuSans-57"/>
      <use xlink:href="#DejaVuSans-54" x="98.876953"/>
     </g>
    </g>
   </g>
  </g>
 </g>
 <defs>
  <clipPath id="p93ae1853fb">
   <rect x="47.72" y="268.666434" width="402.28" height="34.973566"/>
  </clipPath>
 </defs>
</svg>
