<?xml version="1.0" encoding="utf-8" standalone="no"?>
<!DOCTYPE svg PUBLIC "-//W3C//DTD SVG 1.1//EN"
  "http://www.w3.org/Graphics/SVG/1.1/DTD/svg11.dtd">
<svg xmlns:xlink="http://www.w3.org/1999/xlink" width="460.8pt" height="345.6pt" viewBox="0 0 460.8 345.6" xmlns="http://www.w3.org/2000/svg" version="1.1">
 <metadata>
  <rdf:RDF xmlns:dc="http://purl.org/dc/elements/1.1/" xmlns:cc="http://creativecommons.org/ns#" xmlns:rdf="http://www.w3.org/1999/02/22-rdf-syntax-ns#">
   <cc:Work>
    <dc:type rdf:resource="http://purl.org/dc/dcmitype/StillImage"/>
    <dc:date>2024-07-31T17:53:30.101046</dc:date>
    <dc:format>image/svg+xml</dc:format>
    <dc:creator>
     <cc:Agent>
      <dc:title>Matplotlib v3.5.3, https://matplotlib.org/</dc:title>
     </cc:Agent>
    </dc:creator>
   </cc:Work>
  </rdf:RDF>
 </metadata>
 <defs>
  <style type="text/css">*{stroke-linejoin: round; stroke-linecap: butt}</style>
 </defs>
 <g id="figure_1">
  <g id="patch_1">
   <path d="M 0 345.6 
L 460.8 345.6 
L 460.8 0 
L 0 0 
z
" style="fill: #ffffff"/>
  </g>
  <g id="axes_1">
   <g id="patch_2">
    <path d="M 45.83 303.53875 
L 450 303.53875 
L 450 266.886303 
L 45.83 266.886303 
z
" style="fill: #ffffff"/>
   </g>
   <g id="matplotlib.axis_1">
    <g id="xtick_1">
     <g id="text_1">
      <!-- A -->
      <g style="fill: #262626" transform="translate(244.579844 317.696562)scale(0.1 -0.1)">
       <defs>
        <path id="ArialMT-41" d="M -9 0 
L 1750 4581 
L 2403 4581 
L 4278 0 
L 3588 0 
L 3053 1388 
L 1138 1388 
L 634 0 
L -9 0 
z
M 1313 1881 
L 2866 1881 
L 2388 3150 
Q 2169 3728 2063 4100 
Q 1975 3659 1816 3225 
L 1313 1881 
z
" transform="scale(0.015625)"/>
       </defs>
       <use xlink:href="#ArialMT-41"/>
      </g>
     </g>
    </g>
    <g id="text_2">
     <!-- WT_AA -->
     <g style="fill: #262626" transform="translate(230.690781 330.841875)scale(0.1 -0.1)">
      <defs>
       <path id="ArialMT-57" d="M 1294 0 
L 78 4581 
L 700 4581 
L 1397 1578 
Q 1509 1106 1591 641 
Q 1766 1375 1797 1488 
L 2669 4581 
L 3400 4581 
L 4056 2263 
Q 4303 1400 4413 641 
Q 4500 1075 4641 1638 
L 5359 4581 
L 5969 4581 
L 4713 0 
L 4128 0 
L 3163 3491 
Q 3041 3928 3019 4028 
Q 2947 3713 2884 3491 
L 1913 0 
L 1294 0 
z
" transform="scale(0.015625)"/>
       <path id="ArialMT-54" d="M 1659 0 
L 1659 4041 
L 150 4041 
L 150 4581 
L 3781 4581 
L 3781 4041 
L 2266 4041 
L 2266 0 
L 1659 0 
z
" transform="scale(0.015625)"/>
       <path id="ArialMT-5f" d="M -97 -1272 
L -97 -866 
L 3631 -866 
L 3631 -1272 
L -97 -1272 
z
" transform="scale(0.015625)"/>
      </defs>
      <use xlink:href="#ArialMT-57"/>
      <use xlink:href="#ArialMT-54" x="94.384766"/>
      <use xlink:href="#ArialMT-5f" x="155.46875"/>
      <use xlink:href="#ArialMT-41" x="211.083984"/>
      <use xlink:href="#ArialMT-41" x="277.783203"/>
     </g>
    </g>
   </g>
   <g id="matplotlib.axis_2">
    <g id="ytick_1">
     <g id="line2d_1">
      <path d="M 45.83 303.53875 
L 450 303.53875 
" clip-path="url(#pcc98891e3c)" style="fill: none; stroke: #cccccc; stroke-width: 0.8; stroke-linecap: round"/>
     </g>
     <g id="text_3">
      <!-- 0.0 -->
      <g style="fill: #262626" transform="translate(24.93 307.117656)scale(0.1 -0.1)">
       <defs>
        <path id="ArialMT-30" d="M 266 2259 
Q 266 3072 433 3567 
Q 600 4063 929 4331 
Q 1259 4600 1759 4600 
Q 2128 4600 2406 4451 
Q 2684 4303 2865 4023 
Q 3047 3744 3150 3342 
Q 3253 2941 3253 2259 
Q 3253 1453 3087 958 
Q 2922 463 2592 192 
Q 2263 -78 1759 -78 
Q 1097 -78 719 397 
Q 266 969 266 2259 
z
M 844 2259 
Q 844 1131 1108 757 
Q 1372 384 1759 384 
Q 2147 384 2411 759 
Q 2675 1134 2675 2259 
Q 2675 3391 2411 3762 
Q 2147 4134 1753 4134 
Q 1366 4134 1134 3806 
Q 844 3388 844 2259 
z
" transform="scale(0.015625)"/>
        <path id="ArialMT-2e" d="M 581 0 
L 581 641 
L 1222 641 
L 1222 0 
L 581 0 
z
" transform="scale(0.015625)"/>
       </defs>
       <use xlink:href="#ArialMT-30"/>
       <use xlink:href="#ArialMT-2e" x="55.615234"/>
       <use xlink:href="#ArialMT-30" x="83.398438"/>
      </g>
     </g>
    </g>
    <g id="ytick_2">
     <g id="line2d_2">
      <path d="M 45.83 282.936277 
L 450 282.936277 
" clip-path="url(#pcc98891e3c)" style="fill: none; stroke: #cccccc; stroke-width: 0.8; stroke-linecap: round"/>
     </g>
     <g id="text_4">
      <!-- 0.5 -->
      <g style="fill: #262626" transform="translate(24.93 286.515183)scale(0.1 -0.1)">
       <defs>
        <path id="ArialMT-35" d="M 266 1200 
L 856 1250 
Q 922 819 1161 601 
Q 1400 384 1738 384 
Q 2144 384 2425 690 
Q 2706 997 2706 1503 
Q 2706 1984 2436 2262 
Q 2166 2541 1728 2541 
Q 1456 2541 1237 2417 
Q 1019 2294 894 2097 
L 366 2166 
L 809 4519 
L 3088 4519 
L 3088 3981 
L 1259 3981 
L 1013 2750 
Q 1425 3038 1878 3038 
Q 2478 3038 2890 2622 
Q 3303 2206 3303 1553 
Q 3303 931 2941 478 
Q 2500 -78 1738 -78 
Q 1113 -78 717 272 
Q 322 622 266 1200 
z
" transform="scale(0.015625)"/>
       </defs>
       <use xlink:href="#ArialMT-30"/>
       <use xlink:href="#ArialMT-2e" x="55.615234"/>
       <use xlink:href="#ArialMT-35" x="83.398438"/>
      </g>
     </g>
    </g>
    <g id="text_5">
     <!-- PercentGpA -->
     <g style="fill: #262626" transform="translate(18.9425 312.447683)rotate(-90)scale(0.1 -0.1)">
      <defs>
       <path id="ArialMT-50" d="M 494 0 
L 494 4581 
L 2222 4581 
Q 2678 4581 2919 4538 
Q 3256 4481 3484 4323 
Q 3713 4166 3852 3881 
Q 3991 3597 3991 3256 
Q 3991 2672 3619 2267 
Q 3247 1863 2275 1863 
L 1100 1863 
L 1100 0 
L 494 0 
z
M 1100 2403 
L 2284 2403 
Q 2872 2403 3119 2622 
Q 3366 2841 3366 3238 
Q 3366 3525 3220 3729 
Q 3075 3934 2838 4000 
Q 2684 4041 2272 4041 
L 1100 4041 
L 1100 2403 
z
" transform="scale(0.015625)"/>
       <path id="ArialMT-65" d="M 2694 1069 
L 3275 997 
Q 3138 488 2766 206 
Q 2394 -75 1816 -75 
Q 1088 -75 661 373 
Q 234 822 234 1631 
Q 234 2469 665 2931 
Q 1097 3394 1784 3394 
Q 2450 3394 2872 2941 
Q 3294 2488 3294 1666 
Q 3294 1616 3291 1516 
L 816 1516 
Q 847 969 1125 678 
Q 1403 388 1819 388 
Q 2128 388 2347 550 
Q 2566 713 2694 1069 
z
M 847 1978 
L 2700 1978 
Q 2663 2397 2488 2606 
Q 2219 2931 1791 2931 
Q 1403 2931 1139 2672 
Q 875 2413 847 1978 
z
" transform="scale(0.015625)"/>
       <path id="ArialMT-72" d="M 416 0 
L 416 3319 
L 922 3319 
L 922 2816 
Q 1116 3169 1280 3281 
Q 1444 3394 1641 3394 
Q 1925 3394 2219 3213 
L 2025 2691 
Q 1819 2813 1613 2813 
Q 1428 2813 1281 2702 
Q 1134 2591 1072 2394 
Q 978 2094 978 1738 
L 978 0 
L 416 0 
z
" transform="scale(0.015625)"/>
       <path id="ArialMT-63" d="M 2588 1216 
L 3141 1144 
Q 3050 572 2676 248 
Q 2303 -75 1759 -75 
Q 1078 -75 664 370 
Q 250 816 250 1647 
Q 250 2184 428 2587 
Q 606 2991 970 3192 
Q 1334 3394 1763 3394 
Q 2303 3394 2647 3120 
Q 2991 2847 3088 2344 
L 2541 2259 
Q 2463 2594 2264 2762 
Q 2066 2931 1784 2931 
Q 1359 2931 1093 2626 
Q 828 2322 828 1663 
Q 828 994 1084 691 
Q 1341 388 1753 388 
Q 2084 388 2306 591 
Q 2528 794 2588 1216 
z
" transform="scale(0.015625)"/>
       <path id="ArialMT-6e" d="M 422 0 
L 422 3319 
L 928 3319 
L 928 2847 
Q 1294 3394 1984 3394 
Q 2284 3394 2536 3286 
Q 2788 3178 2913 3003 
Q 3038 2828 3088 2588 
Q 3119 2431 3119 2041 
L 3119 0 
L 2556 0 
L 2556 2019 
Q 2556 2363 2490 2533 
Q 2425 2703 2258 2804 
Q 2091 2906 1866 2906 
Q 1506 2906 1245 2678 
Q 984 2450 984 1813 
L 984 0 
L 422 0 
z
" transform="scale(0.015625)"/>
       <path id="ArialMT-74" d="M 1650 503 
L 1731 6 
Q 1494 -44 1306 -44 
Q 1000 -44 831 53 
Q 663 150 594 308 
Q 525 466 525 972 
L 525 2881 
L 113 2881 
L 113 3319 
L 525 3319 
L 525 4141 
L 1084 4478 
L 1084 3319 
L 1650 3319 
L 1650 2881 
L 1084 2881 
L 1084 941 
Q 1084 700 1114 631 
Q 1144 563 1211 522 
Q 1278 481 1403 481 
Q 1497 481 1650 503 
z
" transform="scale(0.015625)"/>
       <path id="ArialMT-47" d="M 2638 1797 
L 2638 2334 
L 4578 2338 
L 4578 638 
Q 4131 281 3656 101 
Q 3181 -78 2681 -78 
Q 2006 -78 1454 211 
Q 903 500 622 1047 
Q 341 1594 341 2269 
Q 341 2938 620 3517 
Q 900 4097 1425 4378 
Q 1950 4659 2634 4659 
Q 3131 4659 3532 4498 
Q 3934 4338 4162 4050 
Q 4391 3763 4509 3300 
L 3963 3150 
Q 3859 3500 3706 3700 
Q 3553 3900 3268 4020 
Q 2984 4141 2638 4141 
Q 2222 4141 1919 4014 
Q 1616 3888 1430 3681 
Q 1244 3475 1141 3228 
Q 966 2803 966 2306 
Q 966 1694 1177 1281 
Q 1388 869 1791 669 
Q 2194 469 2647 469 
Q 3041 469 3416 620 
Q 3791 772 3984 944 
L 3984 1797 
L 2638 1797 
z
" transform="scale(0.015625)"/>
       <path id="ArialMT-70" d="M 422 -1272 
L 422 3319 
L 934 3319 
L 934 2888 
Q 1116 3141 1344 3267 
Q 1572 3394 1897 3394 
Q 2322 3394 2647 3175 
Q 2972 2956 3137 2557 
Q 3303 2159 3303 1684 
Q 3303 1175 3120 767 
Q 2938 359 2589 142 
Q 2241 -75 1856 -75 
Q 1575 -75 1351 44 
Q 1128 163 984 344 
L 984 -1272 
L 422 -1272 
z
M 931 1641 
Q 931 1000 1190 694 
Q 1450 388 1819 388 
Q 2194 388 2461 705 
Q 2728 1022 2728 1688 
Q 2728 2322 2467 2637 
Q 2206 2953 1844 2953 
Q 1484 2953 1207 2617 
Q 931 2281 931 1641 
z
" transform="scale(0.015625)"/>
      </defs>
      <use xlink:href="#ArialMT-50"/>
      <use xlink:href="#ArialMT-65" x="66.699219"/>
      <use xlink:href="#ArialMT-72" x="122.314453"/>
      <use xlink:href="#ArialMT-63" x="155.615234"/>
      <use xlink:href="#ArialMT-65" x="205.615234"/>
      <use xlink:href="#ArialMT-6e" x="261.230469"/>
      <use xlink:href="#ArialMT-74" x="316.845703"/>
      <use xlink:href="#ArialMT-47" x="344.628906"/>
      <use xlink:href="#ArialMT-70" x="422.412109"/>
      <use xlink:href="#ArialMT-41" x="478.027344"/>
     </g>
    </g>
   </g>
   <g id="patch_3">
    <path d="M 87.86368 293.709019 
L 246.29832 293.709019 
L 246.29832 287.710241 
L 87.86368 287.710241 
L 87.86368 293.709019 
z
" clip-path="url(#pcc98891e3c)" style="fill: #ecf2ec; stroke: #262626; stroke-width: 1.5; stroke-linejoin: miter"/>
   </g>
   <g id="patch_4">
    <path d="M 249.53168 290.484626 
L 407.96632 290.484626 
L 407.96632 284.820317 
L 249.53168 284.820317 
L 249.53168 290.484626 
z
" clip-path="url(#pcc98891e3c)" style="fill: #107010; stroke: #262626; stroke-width: 1.5; stroke-linejoin: miter"/>
   </g>
   <g id="patch_5">
    <path d="M 247.915 303.53875 
L 247.915 303.53875 
L 247.915 303.53875 
L 247.915 303.53875 
z
" clip-path="url(#pcc98891e3c)" style="fill: #ecf2ec; stroke: #262626; stroke-width: 0.75; stroke-linejoin: miter"/>
   </g>
   <g id="patch_6">
    <path d="M 247.915 303.53875 
L 247.915 303.53875 
L 247.915 303.53875 
L 247.915 303.53875 
z
" clip-path="url(#pcc98891e3c)" style="fill: #107010; stroke: #262626; stroke-width: 0.75; stroke-linejoin: miter"/>
   </g>
   <g id="PathCollection_1"/>
   <g id="PathCollection_2"/>
   <g id="line2d_3">
    <path d="M 167.081 293.709019 
L 167.081 299.094448 
" clip-path="url(#pcc98891e3c)" style="fill: none; stroke: #262626; stroke-width: 1.5; stroke-linecap: round"/>
   </g>
   <g id="line2d_4">
    <path d="M 167.081 287.710241 
L 167.081 279.082699 
" clip-path="url(#pcc98891e3c)" style="fill: none; stroke: #262626; stroke-width: 1.5; stroke-linecap: round"/>
   </g>
   <g id="line2d_5">
    <path d="M 127.47234 299.094448 
L 206.68966 299.094448 
" clip-path="url(#pcc98891e3c)" style="fill: none; stroke: #262626; stroke-width: 1.5; stroke-linecap: round"/>
   </g>
   <g id="line2d_6">
    <path d="M 127.47234 279.082699 
L 206.68966 279.082699 
" clip-path="url(#pcc98891e3c)" style="fill: none; stroke: #262626; stroke-width: 1.5; stroke-linecap: round"/>
   </g>
   <g id="line2d_7">
    <defs>
     <path id="m487ae4d55d" d="M -0 1.414214 
L 0.848528 0 
L 0 -1.414214 
L -0.848528 -0 
z
" style="stroke: #262626; stroke-linejoin: miter"/>
    </defs>
    <g clip-path="url(#pcc98891e3c)">
     <use xlink:href="#m487ae4d55d" x="167.081" y="274.051833" style="fill: #262626; stroke: #262626; stroke-linejoin: miter"/>
     <use xlink:href="#m487ae4d55d" x="167.081" y="272.932033" style="fill: #262626; stroke: #262626; stroke-linejoin: miter"/>
     <use xlink:href="#m487ae4d55d" x="167.081" y="275.293504" style="fill: #262626; stroke: #262626; stroke-linejoin: miter"/>
     <use xlink:href="#m487ae4d55d" x="167.081" y="275.329164" style="fill: #262626; stroke: #262626; stroke-linejoin: miter"/>
    </g>
   </g>
   <g id="line2d_8">
    <path d="M 328.749 290.484626 
L 328.749 295.667857 
" clip-path="url(#pcc98891e3c)" style="fill: none; stroke: #262626; stroke-width: 1.5; stroke-linecap: round"/>
   </g>
   <g id="line2d_9">
    <path d="M 328.749 284.820317 
L 328.749 276.365703 
" clip-path="url(#pcc98891e3c)" style="fill: none; stroke: #262626; stroke-width: 1.5; stroke-linecap: round"/>
   </g>
   <g id="line2d_10">
    <path d="M 289.14034 295.667857 
L 368.35766 295.667857 
" clip-path="url(#pcc98891e3c)" style="fill: none; stroke: #262626; stroke-width: 1.5; stroke-linecap: round"/>
   </g>
   <g id="line2d_11">
    <path d="M 289.14034 276.365703 
L 368.35766 276.365703 
" clip-path="url(#pcc98891e3c)" style="fill: none; stroke: #262626; stroke-width: 1.5; stroke-linecap: round"/>
   </g>
   <g id="line2d_12">
    <g clip-path="url(#pcc98891e3c)">
     <use xlink:href="#m487ae4d55d" x="328.749" y="270.218344" style="fill: #262626; stroke: #262626; stroke-linejoin: miter"/>
    </g>
   </g>
   <g id="line2d_13">
    <path d="M 87.86368 291.088369 
L 246.29832 291.088369 
" clip-path="url(#pcc98891e3c)" style="fill: none; stroke: #262626; stroke-width: 1.5; stroke-linecap: round"/>
   </g>
   <g id="line2d_14">
    <path d="M 249.53168 288.36619 
L 407.96632 288.36619 
" clip-path="url(#pcc98891e3c)" style="fill: none; stroke: #262626; stroke-width: 1.5; stroke-linecap: round"/>
   </g>
   <g id="patch_7">
    <path d="M 45.83 303.53875 
L 45.83 266.886303 
" style="fill: none; stroke: #cccccc; stroke-width: 0.8; stroke-linejoin: miter; stroke-linecap: square"/>
   </g>
   <g id="patch_8">
    <path d="M 450 303.53875 
L 450 266.886303 
" style="fill: none; stroke: #cccccc; stroke-width: 0.8; stroke-linejoin: miter; stroke-linecap: square"/>
   </g>
   <g id="patch_9">
    <path d="M 45.83 303.53875 
L 450 303.53875 
" style="fill: none; stroke: #cccccc; stroke-width: 0.8; stroke-linejoin: miter; stroke-linecap: square"/>
   </g>
   <g id="patch_10">
    <path d="M 45.83 266.886303 
L 450 266.886303 
" style="fill: none; stroke: #cccccc; stroke-width: 0.8; stroke-linejoin: miter; stroke-linecap: square"/>
   </g>
   <g id="PathCollection_3">
    <defs>
     <path id="C0_0_e88af28563" d="M 0 1 
C 0.265203 1 0.51958 0.894634 0.707107 0.707107 
C 0.894634 0.51958 1 0.265203 1 -0 
C 1 -0.265203 0.894634 -0.51958 0.707107 -0.707107 
C 0.51958 -0.894634 0.265203 -1 0 -1 
C -0.265203 -1 -0.51958 -0.894634 -0.707107 -0.707107 
C -0.894634 -0.51958 -1 -0.265203 -1 0 
C -1 0.265203 -0.894634 0.51958 -0.707107 0.707107 
C -0.51958 0.894634 -0.265203 1 0 1 
z
"/>
    </defs>
    <g clip-path="url(#pcc98891e3c)">
     <use xlink:href="#C0_0_e88af28563" x="169.32218" y="292.402453" style="fill: #262626"/>
    </g>
    <g clip-path="url(#pcc98891e3c)">
     <use xlink:href="#C0_0_e88af28563" x="150.727437" y="295.89345" style="fill: #262626"/>
    </g>
    <g clip-path="url(#pcc98891e3c)">
     <use xlink:href="#C0_0_e88af28563" x="162.728378" y="292.395002" style="fill: #262626"/>
    </g>
    <g clip-path="url(#pcc98891e3c)">
     <use xlink:href="#C0_0_e88af28563" x="181.540076" y="291.088369" style="fill: #262626"/>
    </g>
    <g clip-path="url(#pcc98891e3c)">
     <use xlink:href="#C0_0_e88af28563" x="157.643556" y="292.799018" style="fill: #262626"/>
    </g>
    <g clip-path="url(#pcc98891e3c)">
     <use xlink:href="#C0_0_e88af28563" x="179.372007" y="290.883269" style="fill: #262626"/>
    </g>
    <g clip-path="url(#pcc98891e3c)">
     <use xlink:href="#C0_0_e88af28563" x="149.491387" y="292.273951" style="fill: #262626"/>
    </g>
    <g clip-path="url(#pcc98891e3c)">
     <use xlink:href="#C0_0_e88af28563" x="147.09575" y="296.658447" style="fill: #262626"/>
    </g>
    <g clip-path="url(#pcc98891e3c)">
     <use xlink:href="#C0_0_e88af28563" x="147.00567" y="291.575161" style="fill: #262626"/>
    </g>
    <g clip-path="url(#pcc98891e3c)">
     <use xlink:href="#C0_0_e88af28563" x="169.314899" y="288.734751" style="fill: #262626"/>
    </g>
    <g clip-path="url(#pcc98891e3c)">
     <use xlink:href="#C0_0_e88af28563" x="165.861184" y="292.214432" style="fill: #262626"/>
    </g>
    <g clip-path="url(#pcc98891e3c)">
     <use xlink:href="#C0_0_e88af28563" x="184.960393" y="288.607804" style="fill: #262626"/>
    </g>
    <g clip-path="url(#pcc98891e3c)">
     <use xlink:href="#C0_0_e88af28563" x="183.781468" y="284.837048" style="fill: #262626"/>
    </g>
    <g clip-path="url(#pcc98891e3c)">
     <use xlink:href="#C0_0_e88af28563" x="165.680288" y="290.596829" style="fill: #262626"/>
    </g>
    <g clip-path="url(#pcc98891e3c)">
     <use xlink:href="#C0_0_e88af28563" x="179.530543" y="293.142397" style="fill: #262626"/>
    </g>
    <g clip-path="url(#pcc98891e3c)">
     <use xlink:href="#C0_0_e88af28563" x="165.09366" y="274.051833" style="fill: #262626"/>
    </g>
    <g clip-path="url(#pcc98891e3c)">
     <use xlink:href="#C0_0_e88af28563" x="164.304109" y="293.146272" style="fill: #262626"/>
    </g>
    <g clip-path="url(#pcc98891e3c)">
     <use xlink:href="#C0_0_e88af28563" x="162.413209" y="287.542569" style="fill: #262626"/>
    </g>
    <g clip-path="url(#pcc98891e3c)">
     <use xlink:href="#C0_0_e88af28563" x="167.255325" y="294.424904" style="fill: #262626"/>
    </g>
    <g clip-path="url(#pcc98891e3c)">
     <use xlink:href="#C0_0_e88af28563" x="148.328022" y="293.030661" style="fill: #262626"/>
    </g>
    <g clip-path="url(#pcc98891e3c)">
     <use xlink:href="#C0_0_e88af28563" x="181.024002" y="272.932033" style="fill: #262626"/>
    </g>
    <g clip-path="url(#pcc98891e3c)">
     <use xlink:href="#C0_0_e88af28563" x="185.823285" y="294.036207" style="fill: #262626"/>
    </g>
    <g clip-path="url(#pcc98891e3c)">
     <use xlink:href="#C0_0_e88af28563" x="168.213539" y="284.581888" style="fill: #262626"/>
    </g>
    <g clip-path="url(#pcc98891e3c)">
     <use xlink:href="#C0_0_e88af28563" x="165.498525" y="289.774982" style="fill: #262626"/>
    </g>
    <g clip-path="url(#pcc98891e3c)">
     <use xlink:href="#C0_0_e88af28563" x="172.86501" y="290.72292" style="fill: #262626"/>
    </g>
    <g clip-path="url(#pcc98891e3c)">
     <use xlink:href="#C0_0_e88af28563" x="174.783059" y="285.124115" style="fill: #262626"/>
    </g>
    <g clip-path="url(#pcc98891e3c)">
     <use xlink:href="#C0_0_e88af28563" x="186.352701" y="287.733" style="fill: #262626"/>
    </g>
    <g clip-path="url(#pcc98891e3c)">
     <use xlink:href="#C0_0_e88af28563" x="149.393132" y="280.757823" style="fill: #262626"/>
    </g>
    <g clip-path="url(#pcc98891e3c)">
     <use xlink:href="#C0_0_e88af28563" x="174.421461" y="295.481604" style="fill: #262626"/>
    </g>
    <g clip-path="url(#pcc98891e3c)">
     <use xlink:href="#C0_0_e88af28563" x="172.014513" y="294.056345" style="fill: #262626"/>
    </g>
    <g clip-path="url(#pcc98891e3c)">
     <use xlink:href="#C0_0_e88af28563" x="172.240494" y="286.297988" style="fill: #262626"/>
    </g>
    <g clip-path="url(#pcc98891e3c)">
     <use xlink:href="#C0_0_e88af28563" x="184.693184" y="291.04863" style="fill: #262626"/>
    </g>
    <g clip-path="url(#pcc98891e3c)">
     <use xlink:href="#C0_0_e88af28563" x="179.45257" y="294.741915" style="fill: #262626"/>
    </g>
    <g clip-path="url(#pcc98891e3c)">
     <use xlink:href="#C0_0_e88af28563" x="157.544524" y="285.035186" style="fill: #262626"/>
    </g>
    <g clip-path="url(#pcc98891e3c)">
     <use xlink:href="#C0_0_e88af28563" x="178.805575" y="289.869572" style="fill: #262626"/>
    </g>
    <g clip-path="url(#pcc98891e3c)">
     <use xlink:href="#C0_0_e88af28563" x="181.23471" y="284.206739" style="fill: #262626"/>
    </g>
    <g clip-path="url(#pcc98891e3c)">
     <use xlink:href="#C0_0_e88af28563" x="161.008958" y="275.293504" style="fill: #262626"/>
    </g>
    <g clip-path="url(#pcc98891e3c)">
     <use xlink:href="#C0_0_e88af28563" x="153.904335" y="287.426226" style="fill: #262626"/>
    </g>
    <g clip-path="url(#pcc98891e3c)">
     <use xlink:href="#C0_0_e88af28563" x="168.497852" y="286.950637" style="fill: #262626"/>
    </g>
    <g clip-path="url(#pcc98891e3c)">
     <use xlink:href="#C0_0_e88af28563" x="155.159171" y="292.907007" style="fill: #262626"/>
    </g>
    <g clip-path="url(#pcc98891e3c)">
     <use xlink:href="#C0_0_e88af28563" x="153.226501" y="289.91731" style="fill: #262626"/>
    </g>
    <g clip-path="url(#pcc98891e3c)">
     <use xlink:href="#C0_0_e88af28563" x="154.489144" y="295.378094" style="fill: #262626"/>
    </g>
    <g clip-path="url(#pcc98891e3c)">
     <use xlink:href="#C0_0_e88af28563" x="178.257901" y="295.706401" style="fill: #262626"/>
    </g>
    <g clip-path="url(#pcc98891e3c)">
     <use xlink:href="#C0_0_e88af28563" x="156.06071" y="293.896705" style="fill: #262626"/>
    </g>
    <g clip-path="url(#pcc98891e3c)">
     <use xlink:href="#C0_0_e88af28563" x="173.966565" y="297.314068" style="fill: #262626"/>
    </g>
    <g clip-path="url(#pcc98891e3c)">
     <use xlink:href="#C0_0_e88af28563" x="187.259772" y="288.48991" style="fill: #262626"/>
    </g>
    <g clip-path="url(#pcc98891e3c)">
     <use xlink:href="#C0_0_e88af28563" x="161.108422" y="293.658411" style="fill: #262626"/>
    </g>
    <g clip-path="url(#pcc98891e3c)">
     <use xlink:href="#C0_0_e88af28563" x="185.140279" y="293.548229" style="fill: #262626"/>
    </g>
    <g clip-path="url(#pcc98891e3c)">
     <use xlink:href="#C0_0_e88af28563" x="169.170976" y="293.403598" style="fill: #262626"/>
    </g>
    <g clip-path="url(#pcc98891e3c)">
     <use xlink:href="#C0_0_e88af28563" x="150.209068" y="293.193251" style="fill: #262626"/>
    </g>
    <g clip-path="url(#pcc98891e3c)">
     <use xlink:href="#C0_0_e88af28563" x="178.173939" y="287.145712" style="fill: #262626"/>
    </g>
    <g clip-path="url(#pcc98891e3c)">
     <use xlink:href="#C0_0_e88af28563" x="180.744975" y="297.93061" style="fill: #262626"/>
    </g>
    <g clip-path="url(#pcc98891e3c)">
     <use xlink:href="#C0_0_e88af28563" x="181.214937" y="284.11851" style="fill: #262626"/>
    </g>
    <g clip-path="url(#pcc98891e3c)">
     <use xlink:href="#C0_0_e88af28563" x="162.358064" y="285.48179" style="fill: #262626"/>
    </g>
    <g clip-path="url(#pcc98891e3c)">
     <use xlink:href="#C0_0_e88af28563" x="161.818994" y="279.082699" style="fill: #262626"/>
    </g>
    <g clip-path="url(#pcc98891e3c)">
     <use xlink:href="#C0_0_e88af28563" x="172.507637" y="287.062454" style="fill: #262626"/>
    </g>
    <g clip-path="url(#pcc98891e3c)">
     <use xlink:href="#C0_0_e88af28563" x="147.737018" y="293.709019" style="fill: #262626"/>
    </g>
    <g clip-path="url(#pcc98891e3c)">
     <use xlink:href="#C0_0_e88af28563" x="160.423426" y="275.329164" style="fill: #262626"/>
    </g>
    <g clip-path="url(#pcc98891e3c)">
     <use xlink:href="#C0_0_e88af28563" x="172.522495" y="293.391789" style="fill: #262626"/>
    </g>
    <g clip-path="url(#pcc98891e3c)">
     <use xlink:href="#C0_0_e88af28563" x="148.056552" y="290.386571" style="fill: #262626"/>
    </g>
    <g clip-path="url(#pcc98891e3c)">
     <use xlink:href="#C0_0_e88af28563" x="171.296566" y="291.155216" style="fill: #262626"/>
    </g>
    <g clip-path="url(#pcc98891e3c)">
     <use xlink:href="#C0_0_e88af28563" x="168.007576" y="282.412371" style="fill: #262626"/>
    </g>
    <g clip-path="url(#pcc98891e3c)">
     <use xlink:href="#C0_0_e88af28563" x="182.661532" y="289.618103" style="fill: #262626"/>
    </g>
    <g clip-path="url(#pcc98891e3c)">
     <use xlink:href="#C0_0_e88af28563" x="183.809856" y="282.892581" style="fill: #262626"/>
    </g>
    <g clip-path="url(#pcc98891e3c)">
     <use xlink:href="#C0_0_e88af28563" x="161.137038" y="290.302357" style="fill: #262626"/>
    </g>
    <g clip-path="url(#pcc98891e3c)">
     <use xlink:href="#C0_0_e88af28563" x="169.441064" y="284.692669" style="fill: #262626"/>
    </g>
    <g clip-path="url(#pcc98891e3c)">
     <use xlink:href="#C0_0_e88af28563" x="182.16431" y="292.377296" style="fill: #262626"/>
    </g>
    <g clip-path="url(#pcc98891e3c)">
     <use xlink:href="#C0_0_e88af28563" x="172.769242" y="290.820638" style="fill: #262626"/>
    </g>
    <g clip-path="url(#pcc98891e3c)">
     <use xlink:href="#C0_0_e88af28563" x="166.085867" y="296.002234" style="fill: #262626"/>
    </g>
    <g clip-path="url(#pcc98891e3c)">
     <use xlink:href="#C0_0_e88af28563" x="180.150815" y="294.950111" style="fill: #262626"/>
    </g>
    <g clip-path="url(#pcc98891e3c)">
     <use xlink:href="#C0_0_e88af28563" x="172.204751" y="292.380747" style="fill: #262626"/>
    </g>
    <g clip-path="url(#pcc98891e3c)">
     <use xlink:href="#C0_0_e88af28563" x="164.105959" y="287.829509" style="fill: #262626"/>
    </g>
    <g clip-path="url(#pcc98891e3c)">
     <use xlink:href="#C0_0_e88af28563" x="148.508032" y="289.766732" style="fill: #262626"/>
    </g>
    <g clip-path="url(#pcc98891e3c)">
     <use xlink:href="#C0_0_e88af28563" x="168.615742" y="287.148536" style="fill: #262626"/>
    </g>
    <g clip-path="url(#pcc98891e3c)">
     <use xlink:href="#C0_0_e88af28563" x="173.22858" y="289.744895" style="fill: #262626"/>
    </g>
    <g clip-path="url(#pcc98891e3c)">
     <use xlink:href="#C0_0_e88af28563" x="147.972998" y="291.937928" style="fill: #262626"/>
    </g>
    <g clip-path="url(#pcc98891e3c)">
     <use xlink:href="#C0_0_e88af28563" x="184.824558" y="294.055043" style="fill: #262626"/>
    </g>
    <g clip-path="url(#pcc98891e3c)">
     <use xlink:href="#C0_0_e88af28563" x="175.12649" y="295.61371" style="fill: #262626"/>
    </g>
    <g clip-path="url(#pcc98891e3c)">
     <use xlink:href="#C0_0_e88af28563" x="166.780589" y="287.710241" style="fill: #262626"/>
    </g>
    <g clip-path="url(#pcc98891e3c)">
     <use xlink:href="#C0_0_e88af28563" x="163.89167" y="289.776301" style="fill: #262626"/>
    </g>
    <g clip-path="url(#pcc98891e3c)">
     <use xlink:href="#C0_0_e88af28563" x="154.826071" y="291.67087" style="fill: #262626"/>
    </g>
    <g clip-path="url(#pcc98891e3c)">
     <use xlink:href="#C0_0_e88af28563" x="158.710773" y="291.985313" style="fill: #262626"/>
    </g>
    <g clip-path="url(#pcc98891e3c)">
     <use xlink:href="#C0_0_e88af28563" x="171.344533" y="293.752323" style="fill: #262626"/>
    </g>
    <g clip-path="url(#pcc98891e3c)">
     <use xlink:href="#C0_0_e88af28563" x="149.433042" y="296.632353" style="fill: #262626"/>
    </g>
    <g clip-path="url(#pcc98891e3c)">
     <use xlink:href="#C0_0_e88af28563" x="163.806508" y="289.814924" style="fill: #262626"/>
    </g>
    <g clip-path="url(#pcc98891e3c)">
     <use xlink:href="#C0_0_e88af28563" x="157.065081" y="292.546268" style="fill: #262626"/>
    </g>
    <g clip-path="url(#pcc98891e3c)">
     <use xlink:href="#C0_0_e88af28563" x="173.972451" y="294.088486" style="fill: #262626"/>
    </g>
    <g clip-path="url(#pcc98891e3c)">
     <use xlink:href="#C0_0_e88af28563" x="180.690469" y="294.063254" style="fill: #262626"/>
    </g>
    <g clip-path="url(#pcc98891e3c)">
     <use xlink:href="#C0_0_e88af28563" x="147.234131" y="288.16963" style="fill: #262626"/>
    </g>
    <g clip-path="url(#pcc98891e3c)">
     <use xlink:href="#C0_0_e88af28563" x="174.815441" y="299.094448" style="fill: #262626"/>
    </g>
    <g clip-path="url(#pcc98891e3c)">
     <use xlink:href="#C0_0_e88af28563" x="152.477454" y="298.766572" style="fill: #262626"/>
    </g>
    <g clip-path="url(#pcc98891e3c)">
     <use xlink:href="#C0_0_e88af28563" x="156.547687" y="293.733867" style="fill: #262626"/>
    </g>
    <g clip-path="url(#pcc98891e3c)">
     <use xlink:href="#C0_0_e88af28563" x="183.413588" y="288.675089" style="fill: #262626"/>
    </g>
   </g>
   <g id="PathCollection_4">
    <defs>
     <path id="C1_0_5e75fb3ed3" d="M 0 1 
C 0.265203 1 0.51958 0.894634 0.707107 0.707107 
C 0.894634 0.51958 1 0.265203 1 -0 
C 1 -0.265203 0.894634 -0.51958 0.707107 -0.707107 
C 0.51958 -0.894634 0.265203 -1 0 -1 
C -0.265203 -1 -0.51958 -0.894634 -0.707107 -0.707107 
C -0.894634 -0.51958 -1 -0.265203 -1 0 
C -1 0.265203 -0.894634 0.51958 -0.707107 0.707107 
C -0.51958 0.894634 -0.265203 1 0 1 
z
"/>
    </defs>
    <g clip-path="url(#pcc98891e3c)">
     <use xlink:href="#C1_0_5e75fb3ed3" x="323.840646" y="286.245191"/>
    </g>
    <g clip-path="url(#pcc98891e3c)">
     <use xlink:href="#C1_0_5e75fb3ed3" x="344.782567" y="285.191664"/>
    </g>
    <g clip-path="url(#pcc98891e3c)">
     <use xlink:href="#C1_0_5e75fb3ed3" x="340.935228" y="280.693026"/>
    </g>
    <g clip-path="url(#pcc98891e3c)">
     <use xlink:href="#C1_0_5e75fb3ed3" x="339.355367" y="284.737259"/>
    </g>
    <g clip-path="url(#pcc98891e3c)">
     <use xlink:href="#C1_0_5e75fb3ed3" x="348.792786" y="290.50143"/>
    </g>
    <g clip-path="url(#pcc98891e3c)">
     <use xlink:href="#C1_0_5e75fb3ed3" x="334.692151" y="290.434212"/>
    </g>
    <g clip-path="url(#pcc98891e3c)">
     <use xlink:href="#C1_0_5e75fb3ed3" x="309.260748" y="281.988781"/>
    </g>
    <g clip-path="url(#pcc98891e3c)">
     <use xlink:href="#C1_0_5e75fb3ed3" x="312.1455" y="285.854647"/>
    </g>
    <g clip-path="url(#pcc98891e3c)">
     <use xlink:href="#C1_0_5e75fb3ed3" x="335.932144" y="290.05433"/>
    </g>
    <g clip-path="url(#pcc98891e3c)">
     <use xlink:href="#C1_0_5e75fb3ed3" x="335.847161" y="290.231851"/>
    </g>
    <g clip-path="url(#pcc98891e3c)">
     <use xlink:href="#C1_0_5e75fb3ed3" x="338.248496" y="270.218344"/>
    </g>
    <g clip-path="url(#pcc98891e3c)">
     <use xlink:href="#C1_0_5e75fb3ed3" x="338.234003" y="280.970129"/>
    </g>
    <g clip-path="url(#pcc98891e3c)">
     <use xlink:href="#C1_0_5e75fb3ed3" x="334.276723" y="292.746762"/>
    </g>
    <g clip-path="url(#pcc98891e3c)">
     <use xlink:href="#C1_0_5e75fb3ed3" x="323.861464" y="281.010759"/>
    </g>
    <g clip-path="url(#pcc98891e3c)">
     <use xlink:href="#C1_0_5e75fb3ed3" x="320.656647" y="287.612096"/>
    </g>
    <g clip-path="url(#pcc98891e3c)">
     <use xlink:href="#C1_0_5e75fb3ed3" x="318.290238" y="293.520565"/>
    </g>
    <g clip-path="url(#pcc98891e3c)">
     <use xlink:href="#C1_0_5e75fb3ed3" x="331.939348" y="295.147777"/>
    </g>
    <g clip-path="url(#pcc98891e3c)">
     <use xlink:href="#C1_0_5e75fb3ed3" x="326.947533" y="291.797154"/>
    </g>
    <g clip-path="url(#pcc98891e3c)">
     <use xlink:href="#C1_0_5e75fb3ed3" x="331.011806" y="287.091108"/>
    </g>
    <g clip-path="url(#pcc98891e3c)">
     <use xlink:href="#C1_0_5e75fb3ed3" x="322.30251" y="288.39583"/>
    </g>
    <g clip-path="url(#pcc98891e3c)">
     <use xlink:href="#C1_0_5e75fb3ed3" x="344.346684" y="291.190321"/>
    </g>
    <g clip-path="url(#pcc98891e3c)">
     <use xlink:href="#C1_0_5e75fb3ed3" x="331.314021" y="288.533927"/>
    </g>
    <g clip-path="url(#pcc98891e3c)">
     <use xlink:href="#C1_0_5e75fb3ed3" x="309.832081" y="295.667857"/>
    </g>
    <g clip-path="url(#pcc98891e3c)">
     <use xlink:href="#C1_0_5e75fb3ed3" x="308.89569" y="295.136676"/>
    </g>
    <g clip-path="url(#pcc98891e3c)">
     <use xlink:href="#C1_0_5e75fb3ed3" x="311.21295" y="291.626123"/>
    </g>
    <g clip-path="url(#pcc98891e3c)">
     <use xlink:href="#C1_0_5e75fb3ed3" x="321.879837" y="286.681755"/>
    </g>
    <g clip-path="url(#pcc98891e3c)">
     <use xlink:href="#C1_0_5e75fb3ed3" x="344.082736" y="287.758004"/>
    </g>
    <g clip-path="url(#pcc98891e3c)">
     <use xlink:href="#C1_0_5e75fb3ed3" x="317.042445" y="283.216257"/>
    </g>
    <g clip-path="url(#pcc98891e3c)">
     <use xlink:href="#C1_0_5e75fb3ed3" x="339.975178" y="292.882782"/>
    </g>
    <g clip-path="url(#pcc98891e3c)">
     <use xlink:href="#C1_0_5e75fb3ed3" x="310.733625" y="286.149783"/>
    </g>
    <g clip-path="url(#pcc98891e3c)">
     <use xlink:href="#C1_0_5e75fb3ed3" x="324.079802" y="289.219614"/>
    </g>
    <g clip-path="url(#pcc98891e3c)">
     <use xlink:href="#C1_0_5e75fb3ed3" x="318.276771" y="288.336549"/>
    </g>
    <g clip-path="url(#pcc98891e3c)">
     <use xlink:href="#C1_0_5e75fb3ed3" x="321.711323" y="289.168046"/>
    </g>
    <g clip-path="url(#pcc98891e3c)">
     <use xlink:href="#C1_0_5e75fb3ed3" x="330.756735" y="280.648754"/>
    </g>
    <g clip-path="url(#pcc98891e3c)">
     <use xlink:href="#C1_0_5e75fb3ed3" x="329.711185" y="280.127166"/>
    </g>
    <g clip-path="url(#pcc98891e3c)">
     <use xlink:href="#C1_0_5e75fb3ed3" x="332.303934" y="289.34951"/>
    </g>
    <g clip-path="url(#pcc98891e3c)">
     <use xlink:href="#C1_0_5e75fb3ed3" x="319.240073" y="276.365703"/>
    </g>
    <g clip-path="url(#pcc98891e3c)">
     <use xlink:href="#C1_0_5e75fb3ed3" x="317.022059" y="294.875349"/>
    </g>
    <g clip-path="url(#pcc98891e3c)">
     <use xlink:href="#C1_0_5e75fb3ed3" x="340.723395" y="276.547074"/>
    </g>
    <g clip-path="url(#pcc98891e3c)">
     <use xlink:href="#C1_0_5e75fb3ed3" x="342.355715" y="290.04958"/>
    </g>
    <g clip-path="url(#pcc98891e3c)">
     <use xlink:href="#C1_0_5e75fb3ed3" x="314.376547" y="288.57097"/>
    </g>
    <g clip-path="url(#pcc98891e3c)">
     <use xlink:href="#C1_0_5e75fb3ed3" x="322.739374" y="279.238055"/>
    </g>
    <g clip-path="url(#pcc98891e3c)">
     <use xlink:href="#C1_0_5e75fb3ed3" x="337.865139" y="289.745795"/>
    </g>
    <g clip-path="url(#pcc98891e3c)">
     <use xlink:href="#C1_0_5e75fb3ed3" x="344.131392" y="293.500985"/>
    </g>
    <g clip-path="url(#pcc98891e3c)">
     <use xlink:href="#C1_0_5e75fb3ed3" x="318.275956" y="288.949062"/>
    </g>
    <g clip-path="url(#pcc98891e3c)">
     <use xlink:href="#C1_0_5e75fb3ed3" x="341.466228" y="282.725066"/>
    </g>
    <g clip-path="url(#pcc98891e3c)">
     <use xlink:href="#C1_0_5e75fb3ed3" x="345.551432" y="286.487866"/>
    </g>
    <g clip-path="url(#pcc98891e3c)">
     <use xlink:href="#C1_0_5e75fb3ed3" x="337.080355" y="288.266687"/>
    </g>
    <g clip-path="url(#pcc98891e3c)">
     <use xlink:href="#C1_0_5e75fb3ed3" x="336.613996" y="285.069491"/>
    </g>
    <g clip-path="url(#pcc98891e3c)">
     <use xlink:href="#C1_0_5e75fb3ed3" x="328.327756" y="293.871737"/>
    </g>
   </g>
   <g id="text_6">
    <!-- 93 -->
    <g style="fill: #262626" transform="translate(187.2895 235.55059)scale(0.1 -0.1)">
     <defs>
      <path id="ArialMT-39" d="M 350 1059 
L 891 1109 
Q 959 728 1153 556 
Q 1347 384 1650 384 
Q 1909 384 2104 503 
Q 2300 622 2425 820 
Q 2550 1019 2634 1356 
Q 2719 1694 2719 2044 
Q 2719 2081 2716 2156 
Q 2547 1888 2255 1720 
Q 1963 1553 1622 1553 
Q 1053 1553 659 1965 
Q 266 2378 266 3053 
Q 266 3750 677 4175 
Q 1088 4600 1706 4600 
Q 2153 4600 2523 4359 
Q 2894 4119 3086 3673 
Q 3278 3228 3278 2384 
Q 3278 1506 3087 986 
Q 2897 466 2520 194 
Q 2144 -78 1638 -78 
Q 1100 -78 759 220 
Q 419 519 350 1059 
z
M 2653 3081 
Q 2653 3566 2395 3850 
Q 2138 4134 1775 4134 
Q 1400 4134 1122 3828 
Q 844 3522 844 3034 
Q 844 2597 1108 2323 
Q 1372 2050 1759 2050 
Q 2150 2050 2401 2323 
Q 2653 2597 2653 3081 
z
" transform="scale(0.015625)"/>
      <path id="ArialMT-33" d="M 269 1209 
L 831 1284 
Q 928 806 1161 595 
Q 1394 384 1728 384 
Q 2125 384 2398 659 
Q 2672 934 2672 1341 
Q 2672 1728 2419 1979 
Q 2166 2231 1775 2231 
Q 1616 2231 1378 2169 
L 1441 2663 
Q 1497 2656 1531 2656 
Q 1891 2656 2178 2843 
Q 2466 3031 2466 3422 
Q 2466 3731 2256 3934 
Q 2047 4138 1716 4138 
Q 1388 4138 1169 3931 
Q 950 3725 888 3313 
L 325 3413 
Q 428 3978 793 4289 
Q 1159 4600 1703 4600 
Q 2078 4600 2393 4439 
Q 2709 4278 2876 4000 
Q 3044 3722 3044 3409 
Q 3044 3113 2884 2869 
Q 2725 2625 2413 2481 
Q 2819 2388 3044 2092 
Q 3269 1797 3269 1353 
Q 3269 753 2831 336 
Q 2394 -81 1725 -81 
Q 1122 -81 723 278 
Q 325 638 269 1209 
z
" transform="scale(0.015625)"/>
     </defs>
     <use xlink:href="#ArialMT-39"/>
     <use xlink:href="#ArialMT-33" x="55.615234"/>
    </g>
   </g>
   <g id="text_7">
    <!-- p=0.0022258420353611415 -->
    <g style="fill: #262626" transform="translate(137.425125 270.871786)scale(0.08 -0.08)">
     <defs>
      <path id="ArialMT-3d" d="M 3381 2694 
L 356 2694 
L 356 3219 
L 3381 3219 
L 3381 2694 
z
M 3381 1303 
L 356 1303 
L 356 1828 
L 3381 1828 
L 3381 1303 
z
" transform="scale(0.015625)"/>
      <path id="ArialMT-32" d="M 3222 541 
L 3222 0 
L 194 0 
Q 188 203 259 391 
Q 375 700 629 1000 
Q 884 1300 1366 1694 
Q 2113 2306 2375 2664 
Q 2638 3022 2638 3341 
Q 2638 3675 2398 3904 
Q 2159 4134 1775 4134 
Q 1369 4134 1125 3890 
Q 881 3647 878 3216 
L 300 3275 
Q 359 3922 746 4261 
Q 1134 4600 1788 4600 
Q 2447 4600 2831 4234 
Q 3216 3869 3216 3328 
Q 3216 3053 3103 2787 
Q 2991 2522 2730 2228 
Q 2469 1934 1863 1422 
Q 1356 997 1212 845 
Q 1069 694 975 541 
L 3222 541 
z
" transform="scale(0.015625)"/>
      <path id="ArialMT-38" d="M 1131 2484 
Q 781 2613 612 2850 
Q 444 3088 444 3419 
Q 444 3919 803 4259 
Q 1163 4600 1759 4600 
Q 2359 4600 2725 4251 
Q 3091 3903 3091 3403 
Q 3091 3084 2923 2848 
Q 2756 2613 2416 2484 
Q 2838 2347 3058 2040 
Q 3278 1734 3278 1309 
Q 3278 722 2862 322 
Q 2447 -78 1769 -78 
Q 1091 -78 675 323 
Q 259 725 259 1325 
Q 259 1772 486 2073 
Q 713 2375 1131 2484 
z
M 1019 3438 
Q 1019 3113 1228 2906 
Q 1438 2700 1772 2700 
Q 2097 2700 2305 2904 
Q 2513 3109 2513 3406 
Q 2513 3716 2298 3927 
Q 2084 4138 1766 4138 
Q 1444 4138 1231 3931 
Q 1019 3725 1019 3438 
z
M 838 1322 
Q 838 1081 952 856 
Q 1066 631 1291 507 
Q 1516 384 1775 384 
Q 2178 384 2440 643 
Q 2703 903 2703 1303 
Q 2703 1709 2433 1975 
Q 2163 2241 1756 2241 
Q 1359 2241 1098 1978 
Q 838 1716 838 1322 
z
" transform="scale(0.015625)"/>
      <path id="ArialMT-34" d="M 2069 0 
L 2069 1097 
L 81 1097 
L 81 1613 
L 2172 4581 
L 2631 4581 
L 2631 1613 
L 3250 1613 
L 3250 1097 
L 2631 1097 
L 2631 0 
L 2069 0 
z
M 2069 1613 
L 2069 3678 
L 634 1613 
L 2069 1613 
z
" transform="scale(0.015625)"/>
      <path id="ArialMT-36" d="M 3184 3459 
L 2625 3416 
Q 2550 3747 2413 3897 
Q 2184 4138 1850 4138 
Q 1581 4138 1378 3988 
Q 1113 3794 959 3422 
Q 806 3050 800 2363 
Q 1003 2672 1297 2822 
Q 1591 2972 1913 2972 
Q 2475 2972 2870 2558 
Q 3266 2144 3266 1488 
Q 3266 1056 3080 686 
Q 2894 316 2569 119 
Q 2244 -78 1831 -78 
Q 1128 -78 684 439 
Q 241 956 241 2144 
Q 241 3472 731 4075 
Q 1159 4600 1884 4600 
Q 2425 4600 2770 4297 
Q 3116 3994 3184 3459 
z
M 888 1484 
Q 888 1194 1011 928 
Q 1134 663 1356 523 
Q 1578 384 1822 384 
Q 2178 384 2434 671 
Q 2691 959 2691 1453 
Q 2691 1928 2437 2201 
Q 2184 2475 1800 2475 
Q 1419 2475 1153 2201 
Q 888 1928 888 1484 
z
" transform="scale(0.015625)"/>
      <path id="ArialMT-31" d="M 2384 0 
L 1822 0 
L 1822 3584 
Q 1619 3391 1289 3197 
Q 959 3003 697 2906 
L 697 3450 
Q 1169 3672 1522 3987 
Q 1875 4303 2022 4600 
L 2384 4600 
L 2384 0 
z
" transform="scale(0.015625)"/>
     </defs>
     <use xlink:href="#ArialMT-70"/>
     <use xlink:href="#ArialMT-3d" x="55.615234"/>
     <use xlink:href="#ArialMT-30" x="114.013672"/>
     <use xlink:href="#ArialMT-2e" x="169.628906"/>
     <use xlink:href="#ArialMT-30" x="197.412109"/>
     <use xlink:href="#ArialMT-30" x="253.027344"/>
     <use xlink:href="#ArialMT-32" x="308.642578"/>
     <use xlink:href="#ArialMT-32" x="364.257812"/>
     <use xlink:href="#ArialMT-32" x="419.873047"/>
     <use xlink:href="#ArialMT-35" x="475.488281"/>
     <use xlink:href="#ArialMT-38" x="531.103516"/>
     <use xlink:href="#ArialMT-34" x="586.71875"/>
     <use xlink:href="#ArialMT-32" x="642.333984"/>
     <use xlink:href="#ArialMT-30" x="697.949219"/>
     <use xlink:href="#ArialMT-33" x="753.564453"/>
     <use xlink:href="#ArialMT-35" x="809.179688"/>
     <use xlink:href="#ArialMT-33" x="864.794922"/>
     <use xlink:href="#ArialMT-36" x="920.410156"/>
     <use xlink:href="#ArialMT-31" x="976.025391"/>
     <use xlink:href="#ArialMT-31" x="1024.265625"/>
     <use xlink:href="#ArialMT-34" x="1079.880859"/>
     <use xlink:href="#ArialMT-31" x="1135.496094"/>
     <use xlink:href="#ArialMT-35" x="1191.111328"/>
    </g>
   </g>
   <g id="text_8">
    <!-- 50 -->
    <g style="fill: #262626" transform="translate(308.5405 235.55059)scale(0.1 -0.1)">
     <use xlink:href="#ArialMT-35"/>
     <use xlink:href="#ArialMT-30" x="55.615234"/>
    </g>
   </g>
   <g id="legend_1">
    <g id="patch_11">
     <path d="M 382.43125 283.044116 
L 402.43125 283.044116 
L 402.43125 276.044116 
L 382.43125 276.044116 
z
" style="fill: #ecf2ec; stroke: #262626; stroke-width: 0.75; stroke-linejoin: miter"/>
    </g>
    <g id="text_9">
     <!-- Mutant -->
     <g style="fill: #262626" transform="translate(410.43125 283.044116)scale(0.1 -0.1)">
      <defs>
       <path id="ArialMT-4d" d="M 475 0 
L 475 4581 
L 1388 4581 
L 2472 1338 
Q 2622 884 2691 659 
Q 2769 909 2934 1394 
L 4031 4581 
L 4847 4581 
L 4847 0 
L 4263 0 
L 4263 3834 
L 2931 0 
L 2384 0 
L 1059 3900 
L 1059 0 
L 475 0 
z
" transform="scale(0.015625)"/>
       <path id="ArialMT-75" d="M 2597 0 
L 2597 488 
Q 2209 -75 1544 -75 
Q 1250 -75 995 37 
Q 741 150 617 320 
Q 494 491 444 738 
Q 409 903 409 1263 
L 409 3319 
L 972 3319 
L 972 1478 
Q 972 1038 1006 884 
Q 1059 663 1231 536 
Q 1403 409 1656 409 
Q 1909 409 2131 539 
Q 2353 669 2445 892 
Q 2538 1116 2538 1541 
L 2538 3319 
L 3100 3319 
L 3100 0 
L 2597 0 
z
" transform="scale(0.015625)"/>
       <path id="ArialMT-61" d="M 2588 409 
Q 2275 144 1986 34 
Q 1697 -75 1366 -75 
Q 819 -75 525 192 
Q 231 459 231 875 
Q 231 1119 342 1320 
Q 453 1522 633 1644 
Q 813 1766 1038 1828 
Q 1203 1872 1538 1913 
Q 2219 1994 2541 2106 
Q 2544 2222 2544 2253 
Q 2544 2597 2384 2738 
Q 2169 2928 1744 2928 
Q 1347 2928 1158 2789 
Q 969 2650 878 2297 
L 328 2372 
Q 403 2725 575 2942 
Q 747 3159 1072 3276 
Q 1397 3394 1825 3394 
Q 2250 3394 2515 3294 
Q 2781 3194 2906 3042 
Q 3031 2891 3081 2659 
Q 3109 2516 3109 2141 
L 3109 1391 
Q 3109 606 3145 398 
Q 3181 191 3288 0 
L 2700 0 
Q 2613 175 2588 409 
z
M 2541 1666 
Q 2234 1541 1622 1453 
Q 1275 1403 1131 1340 
Q 988 1278 909 1158 
Q 831 1038 831 891 
Q 831 666 1001 516 
Q 1172 366 1500 366 
Q 1825 366 2078 508 
Q 2331 650 2450 897 
Q 2541 1088 2541 1459 
L 2541 1666 
z
" transform="scale(0.015625)"/>
      </defs>
      <use xlink:href="#ArialMT-4d"/>
      <use xlink:href="#ArialMT-75" x="83.300781"/>
      <use xlink:href="#ArialMT-74" x="138.916016"/>
      <use xlink:href="#ArialMT-61" x="166.699219"/>
      <use xlink:href="#ArialMT-6e" x="222.314453"/>
      <use xlink:href="#ArialMT-74" x="277.929688"/>
     </g>
    </g>
    <g id="patch_12">
     <path d="M 382.43125 297.189428 
L 402.43125 297.189428 
L 402.43125 290.189428 
L 382.43125 290.189428 
z
" style="fill: #107010; stroke: #262626; stroke-width: 0.75; stroke-linejoin: miter"/>
    </g>
    <g id="text_10">
     <!-- WT -->
     <g style="fill: #262626" transform="translate(410.43125 297.189428)scale(0.1 -0.1)">
      <use xlink:href="#ArialMT-57"/>
      <use xlink:href="#ArialMT-54" x="94.384766"/>
     </g>
    </g>
   </g>
  </g>
 </g>
 <defs>
  <clipPath id="pcc98891e3c">
   <rect x="45.83" y="266.886303" width="404.17" height="36.652447"/>
  </clipPath>
 </defs>
</svg>
