<?xml version="1.0" encoding="utf-8" standalone="no"?>
<!DOCTYPE svg PUBLIC "-//W3C//DTD SVG 1.1//EN"
  "http://www.w3.org/Graphics/SVG/1.1/DTD/svg11.dtd">
<svg xmlns:xlink="http://www.w3.org/1999/xlink" width="460.8pt" height="345.6pt" viewBox="0 0 460.8 345.6" xmlns="http://www.w3.org/2000/svg" version="1.1">
 <metadata>
  <rdf:RDF xmlns:dc="http://purl.org/dc/elements/1.1/" xmlns:cc="http://creativecommons.org/ns#" xmlns:rdf="http://www.w3.org/1999/02/22-rdf-syntax-ns#">
   <cc:Work>
    <dc:type rdf:resource="http://purl.org/dc/dcmitype/StillImage"/>
    <dc:date>2024-07-25T17:13:09.145458</dc:date>
    <dc:format>image/svg+xml</dc:format>
    <dc:creator>
     <cc:Agent>
      <dc:title>Matplotlib v3.5.3, https://matplotlib.org/</dc:title>
     </cc:Agent>
    </dc:creator>
   </cc:Work>
  </rdf:RDF>
 </metadata>
 <defs>
  <style type="text/css">*{stroke-linejoin: round; stroke-linecap: butt}</style>
 </defs>
 <g id="figure_1">
  <g id="patch_1">
   <path d="M 0 345.6 
L 460.8 345.6 
L 460.8 0 
L 0 0 
z
" style="fill: #ffffff"/>
  </g>
  <g id="axes_1">
   <g id="patch_2">
    <path d="M 59.88125 303.53875 
L 450 303.53875 
L 450 12.07545 
L 59.88125 12.07545 
z
" style="fill: #ffffff"/>
   </g>
   <g id="matplotlib.axis_1">
    <g id="xtick_1">
     <g id="text_1">
      <!-- I -->
      <g style="fill: #262626" transform="translate(253.551563 317.696562)scale(0.1 -0.1)">
       <defs>
        <path id="ArialMT-49" d="M 597 0 
L 597 4581 
L 1203 4581 
L 1203 0 
L 597 0 
z
" transform="scale(0.015625)"/>
       </defs>
       <use xlink:href="#ArialMT-49"/>
      </g>
     </g>
    </g>
    <g id="text_2">
     <!-- mut_AA -->
     <g style="fill: #262626" transform="translate(237.155469 330.841875)scale(0.1 -0.1)">
      <defs>
       <path id="ArialMT-6d" d="M 422 0 
L 422 3319 
L 925 3319 
L 925 2853 
Q 1081 3097 1340 3245 
Q 1600 3394 1931 3394 
Q 2300 3394 2536 3241 
Q 2772 3088 2869 2813 
Q 3263 3394 3894 3394 
Q 4388 3394 4653 3120 
Q 4919 2847 4919 2278 
L 4919 0 
L 4359 0 
L 4359 2091 
Q 4359 2428 4304 2576 
Q 4250 2725 4106 2815 
Q 3963 2906 3769 2906 
Q 3419 2906 3187 2673 
Q 2956 2441 2956 1928 
L 2956 0 
L 2394 0 
L 2394 2156 
Q 2394 2531 2256 2718 
Q 2119 2906 1806 2906 
Q 1569 2906 1367 2781 
Q 1166 2656 1075 2415 
Q 984 2175 984 1722 
L 984 0 
L 422 0 
z
" transform="scale(0.015625)"/>
       <path id="ArialMT-75" d="M 2597 0 
L 2597 488 
Q 2209 -75 1544 -75 
Q 1250 -75 995 37 
Q 741 150 617 320 
Q 494 491 444 738 
Q 409 903 409 1263 
L 409 3319 
L 972 3319 
L 972 1478 
Q 972 1038 1006 884 
Q 1059 663 1231 536 
Q 1403 409 1656 409 
Q 1909 409 2131 539 
Q 2353 669 2445 892 
Q 2538 1116 2538 1541 
L 2538 3319 
L 3100 3319 
L 3100 0 
L 2597 0 
z
" transform="scale(0.015625)"/>
       <path id="ArialMT-74" d="M 1650 503 
L 1731 6 
Q 1494 -44 1306 -44 
Q 1000 -44 831 53 
Q 663 150 594 308 
Q 525 466 525 972 
L 525 2881 
L 113 2881 
L 113 3319 
L 525 3319 
L 525 4141 
L 1084 4478 
L 1084 3319 
L 1650 3319 
L 1650 2881 
L 1084 2881 
L 1084 941 
Q 1084 700 1114 631 
Q 1144 563 1211 522 
Q 1278 481 1403 481 
Q 1497 481 1650 503 
z
" transform="scale(0.015625)"/>
       <path id="ArialMT-5f" d="M -97 -1272 
L -97 -866 
L 3631 -866 
L 3631 -1272 
L -97 -1272 
z
" transform="scale(0.015625)"/>
       <path id="ArialMT-41" d="M -9 0 
L 1750 4581 
L 2403 4581 
L 4278 0 
L 3588 0 
L 3053 1388 
L 1138 1388 
L 634 0 
L -9 0 
z
M 1313 1881 
L 2866 1881 
L 2388 3150 
Q 2169 3728 2063 4100 
Q 1975 3659 1816 3225 
L 1313 1881 
z
" transform="scale(0.015625)"/>
      </defs>
      <use xlink:href="#ArialMT-6d"/>
      <use xlink:href="#ArialMT-75" x="83.300781"/>
      <use xlink:href="#ArialMT-74" x="138.916016"/>
      <use xlink:href="#ArialMT-5f" x="166.699219"/>
      <use xlink:href="#ArialMT-41" x="222.314453"/>
      <use xlink:href="#ArialMT-41" x="289.013672"/>
     </g>
    </g>
   </g>
   <g id="matplotlib.axis_2">
    <g id="ytick_1">
     <g id="line2d_1">
      <path d="M 59.88125 303.53875 
L 450 303.53875 
" clip-path="url(#p3ab5510211)" style="fill: none; stroke: #cccccc; stroke-width: 0.8; stroke-linecap: round"/>
     </g>
     <g id="text_3">
      <!-- 0 -->
      <g style="fill: #262626" transform="translate(47.320313 307.117656)scale(0.1 -0.1)">
       <defs>
        <path id="ArialMT-30" d="M 266 2259 
Q 266 3072 433 3567 
Q 600 4063 929 4331 
Q 1259 4600 1759 4600 
Q 2128 4600 2406 4451 
Q 2684 4303 2865 4023 
Q 3047 3744 3150 3342 
Q 3253 2941 3253 2259 
Q 3253 1453 3087 958 
Q 2922 463 2592 192 
Q 2263 -78 1759 -78 
Q 1097 -78 719 397 
Q 266 969 266 2259 
z
M 844 2259 
Q 844 1131 1108 757 
Q 1372 384 1759 384 
Q 2147 384 2411 759 
Q 2675 1134 2675 2259 
Q 2675 3391 2411 3762 
Q 2147 4134 1753 4134 
Q 1366 4134 1134 3806 
Q 844 3388 844 2259 
z
" transform="scale(0.015625)"/>
       </defs>
       <use xlink:href="#ArialMT-30"/>
      </g>
     </g>
    </g>
    <g id="ytick_2">
     <g id="line2d_2">
      <path d="M 59.88125 262.284626 
L 450 262.284626 
" clip-path="url(#p3ab5510211)" style="fill: none; stroke: #cccccc; stroke-width: 0.8; stroke-linecap: round"/>
     </g>
     <g id="text_4">
      <!-- 2000 -->
      <g style="fill: #262626" transform="translate(30.6375 265.863533)scale(0.1 -0.1)">
       <defs>
        <path id="ArialMT-32" d="M 3222 541 
L 3222 0 
L 194 0 
Q 188 203 259 391 
Q 375 700 629 1000 
Q 884 1300 1366 1694 
Q 2113 2306 2375 2664 
Q 2638 3022 2638 3341 
Q 2638 3675 2398 3904 
Q 2159 4134 1775 4134 
Q 1369 4134 1125 3890 
Q 881 3647 878 3216 
L 300 3275 
Q 359 3922 746 4261 
Q 1134 4600 1788 4600 
Q 2447 4600 2831 4234 
Q 3216 3869 3216 3328 
Q 3216 3053 3103 2787 
Q 2991 2522 2730 2228 
Q 2469 1934 1863 1422 
Q 1356 997 1212 845 
Q 1069 694 975 541 
L 3222 541 
z
" transform="scale(0.015625)"/>
       </defs>
       <use xlink:href="#ArialMT-32"/>
       <use xlink:href="#ArialMT-30" x="55.615234"/>
       <use xlink:href="#ArialMT-30" x="111.230469"/>
       <use xlink:href="#ArialMT-30" x="166.845703"/>
      </g>
     </g>
    </g>
    <g id="ytick_3">
     <g id="line2d_3">
      <path d="M 59.88125 221.030503 
L 450 221.030503 
" clip-path="url(#p3ab5510211)" style="fill: none; stroke: #cccccc; stroke-width: 0.8; stroke-linecap: round"/>
     </g>
     <g id="text_5">
      <!-- 4000 -->
      <g style="fill: #262626" transform="translate(30.6375 224.609409)scale(0.1 -0.1)">
       <defs>
        <path id="ArialMT-34" d="M 2069 0 
L 2069 1097 
L 81 1097 
L 81 1613 
L 2172 4581 
L 2631 4581 
L 2631 1613 
L 3250 1613 
L 3250 1097 
L 2631 1097 
L 2631 0 
L 2069 0 
z
M 2069 1613 
L 2069 3678 
L 634 1613 
L 2069 1613 
z
" transform="scale(0.015625)"/>
       </defs>
       <use xlink:href="#ArialMT-34"/>
       <use xlink:href="#ArialMT-30" x="55.615234"/>
       <use xlink:href="#ArialMT-30" x="111.230469"/>
       <use xlink:href="#ArialMT-30" x="166.845703"/>
      </g>
     </g>
    </g>
    <g id="ytick_4">
     <g id="line2d_4">
      <path d="M 59.88125 179.776379 
L 450 179.776379 
" clip-path="url(#p3ab5510211)" style="fill: none; stroke: #cccccc; stroke-width: 0.8; stroke-linecap: round"/>
     </g>
     <g id="text_6">
      <!-- 6000 -->
      <g style="fill: #262626" transform="translate(30.6375 183.355285)scale(0.1 -0.1)">
       <defs>
        <path id="ArialMT-36" d="M 3184 3459 
L 2625 3416 
Q 2550 3747 2413 3897 
Q 2184 4138 1850 4138 
Q 1581 4138 1378 3988 
Q 1113 3794 959 3422 
Q 806 3050 800 2363 
Q 1003 2672 1297 2822 
Q 1591 2972 1913 2972 
Q 2475 2972 2870 2558 
Q 3266 2144 3266 1488 
Q 3266 1056 3080 686 
Q 2894 316 2569 119 
Q 2244 -78 1831 -78 
Q 1128 -78 684 439 
Q 241 956 241 2144 
Q 241 3472 731 4075 
Q 1159 4600 1884 4600 
Q 2425 4600 2770 4297 
Q 3116 3994 3184 3459 
z
M 888 1484 
Q 888 1194 1011 928 
Q 1134 663 1356 523 
Q 1578 384 1822 384 
Q 2178 384 2434 671 
Q 2691 959 2691 1453 
Q 2691 1928 2437 2201 
Q 2184 2475 1800 2475 
Q 1419 2475 1153 2201 
Q 888 1928 888 1484 
z
" transform="scale(0.015625)"/>
       </defs>
       <use xlink:href="#ArialMT-36"/>
       <use xlink:href="#ArialMT-30" x="55.615234"/>
       <use xlink:href="#ArialMT-30" x="111.230469"/>
       <use xlink:href="#ArialMT-30" x="166.845703"/>
      </g>
     </g>
    </g>
    <g id="ytick_5">
     <g id="line2d_5">
      <path d="M 59.88125 138.522255 
L 450 138.522255 
" clip-path="url(#p3ab5510211)" style="fill: none; stroke: #cccccc; stroke-width: 0.8; stroke-linecap: round"/>
     </g>
     <g id="text_7">
      <!-- 8000 -->
      <g style="fill: #262626" transform="translate(30.6375 142.101162)scale(0.1 -0.1)">
       <defs>
        <path id="ArialMT-38" d="M 1131 2484 
Q 781 2613 612 2850 
Q 444 3088 444 3419 
Q 444 3919 803 4259 
Q 1163 4600 1759 4600 
Q 2359 4600 2725 4251 
Q 3091 3903 3091 3403 
Q 3091 3084 2923 2848 
Q 2756 2613 2416 2484 
Q 2838 2347 3058 2040 
Q 3278 1734 3278 1309 
Q 3278 722 2862 322 
Q 2447 -78 1769 -78 
Q 1091 -78 675 323 
Q 259 725 259 1325 
Q 259 1772 486 2073 
Q 713 2375 1131 2484 
z
M 1019 3438 
Q 1019 3113 1228 2906 
Q 1438 2700 1772 2700 
Q 2097 2700 2305 2904 
Q 2513 3109 2513 3406 
Q 2513 3716 2298 3927 
Q 2084 4138 1766 4138 
Q 1444 4138 1231 3931 
Q 1019 3725 1019 3438 
z
M 838 1322 
Q 838 1081 952 856 
Q 1066 631 1291 507 
Q 1516 384 1775 384 
Q 2178 384 2440 643 
Q 2703 903 2703 1303 
Q 2703 1709 2433 1975 
Q 2163 2241 1756 2241 
Q 1359 2241 1098 1978 
Q 838 1716 838 1322 
z
" transform="scale(0.015625)"/>
       </defs>
       <use xlink:href="#ArialMT-38"/>
       <use xlink:href="#ArialMT-30" x="55.615234"/>
       <use xlink:href="#ArialMT-30" x="111.230469"/>
       <use xlink:href="#ArialMT-30" x="166.845703"/>
      </g>
     </g>
    </g>
    <g id="ytick_6">
     <g id="line2d_6">
      <path d="M 59.88125 97.268132 
L 450 97.268132 
" clip-path="url(#p3ab5510211)" style="fill: none; stroke: #cccccc; stroke-width: 0.8; stroke-linecap: round"/>
     </g>
     <g id="text_8">
      <!-- 10000 -->
      <g style="fill: #262626" transform="translate(25.076563 100.847038)scale(0.1 -0.1)">
       <defs>
        <path id="ArialMT-31" d="M 2384 0 
L 1822 0 
L 1822 3584 
Q 1619 3391 1289 3197 
Q 959 3003 697 2906 
L 697 3450 
Q 1169 3672 1522 3987 
Q 1875 4303 2022 4600 
L 2384 4600 
L 2384 0 
z
" transform="scale(0.015625)"/>
       </defs>
       <use xlink:href="#ArialMT-31"/>
       <use xlink:href="#ArialMT-30" x="55.615234"/>
       <use xlink:href="#ArialMT-30" x="111.230469"/>
       <use xlink:href="#ArialMT-30" x="166.845703"/>
       <use xlink:href="#ArialMT-30" x="222.460938"/>
      </g>
     </g>
    </g>
    <g id="ytick_7">
     <g id="line2d_7">
      <path d="M 59.88125 56.014008 
L 450 56.014008 
" clip-path="url(#p3ab5510211)" style="fill: none; stroke: #cccccc; stroke-width: 0.8; stroke-linecap: round"/>
     </g>
     <g id="text_9">
      <!-- 12000 -->
      <g style="fill: #262626" transform="translate(25.076563 59.592914)scale(0.1 -0.1)">
       <use xlink:href="#ArialMT-31"/>
       <use xlink:href="#ArialMT-32" x="55.615234"/>
       <use xlink:href="#ArialMT-30" x="111.230469"/>
       <use xlink:href="#ArialMT-30" x="166.845703"/>
       <use xlink:href="#ArialMT-30" x="222.460938"/>
      </g>
     </g>
    </g>
    <g id="ytick_8">
     <g id="line2d_8">
      <path d="M 59.88125 14.759884 
L 450 14.759884 
" clip-path="url(#p3ab5510211)" style="fill: none; stroke: #cccccc; stroke-width: 0.8; stroke-linecap: round"/>
     </g>
     <g id="text_10">
      <!-- 14000 -->
      <g style="fill: #262626" transform="translate(25.076563 18.338791)scale(0.1 -0.1)">
       <use xlink:href="#ArialMT-31"/>
       <use xlink:href="#ArialMT-34" x="55.615234"/>
       <use xlink:href="#ArialMT-30" x="111.230469"/>
       <use xlink:href="#ArialMT-30" x="166.845703"/>
       <use xlink:href="#ArialMT-30" x="222.460938"/>
      </g>
     </g>
    </g>
    <g id="text_11">
     <!-- toxgreen_fluor -->
     <g style="fill: #262626" transform="translate(18.971875 189.7696)rotate(-90)scale(0.1 -0.1)">
      <defs>
       <path id="ArialMT-6f" d="M 213 1659 
Q 213 2581 725 3025 
Q 1153 3394 1769 3394 
Q 2453 3394 2887 2945 
Q 3322 2497 3322 1706 
Q 3322 1066 3130 698 
Q 2938 331 2570 128 
Q 2203 -75 1769 -75 
Q 1072 -75 642 372 
Q 213 819 213 1659 
z
M 791 1659 
Q 791 1022 1069 705 
Q 1347 388 1769 388 
Q 2188 388 2466 706 
Q 2744 1025 2744 1678 
Q 2744 2294 2464 2611 
Q 2184 2928 1769 2928 
Q 1347 2928 1069 2612 
Q 791 2297 791 1659 
z
" transform="scale(0.015625)"/>
       <path id="ArialMT-78" d="M 47 0 
L 1259 1725 
L 138 3319 
L 841 3319 
L 1350 2541 
Q 1494 2319 1581 2169 
Q 1719 2375 1834 2534 
L 2394 3319 
L 3066 3319 
L 1919 1756 
L 3153 0 
L 2463 0 
L 1781 1031 
L 1600 1309 
L 728 0 
L 47 0 
z
" transform="scale(0.015625)"/>
       <path id="ArialMT-67" d="M 319 -275 
L 866 -356 
Q 900 -609 1056 -725 
Q 1266 -881 1628 -881 
Q 2019 -881 2231 -725 
Q 2444 -569 2519 -288 
Q 2563 -116 2559 434 
Q 2191 0 1641 0 
Q 956 0 581 494 
Q 206 988 206 1678 
Q 206 2153 378 2554 
Q 550 2956 876 3175 
Q 1203 3394 1644 3394 
Q 2231 3394 2613 2919 
L 2613 3319 
L 3131 3319 
L 3131 450 
Q 3131 -325 2973 -648 
Q 2816 -972 2473 -1159 
Q 2131 -1347 1631 -1347 
Q 1038 -1347 672 -1080 
Q 306 -813 319 -275 
z
M 784 1719 
Q 784 1066 1043 766 
Q 1303 466 1694 466 
Q 2081 466 2343 764 
Q 2606 1063 2606 1700 
Q 2606 2309 2336 2618 
Q 2066 2928 1684 2928 
Q 1309 2928 1046 2623 
Q 784 2319 784 1719 
z
" transform="scale(0.015625)"/>
       <path id="ArialMT-72" d="M 416 0 
L 416 3319 
L 922 3319 
L 922 2816 
Q 1116 3169 1280 3281 
Q 1444 3394 1641 3394 
Q 1925 3394 2219 3213 
L 2025 2691 
Q 1819 2813 1613 2813 
Q 1428 2813 1281 2702 
Q 1134 2591 1072 2394 
Q 978 2094 978 1738 
L 978 0 
L 416 0 
z
" transform="scale(0.015625)"/>
       <path id="ArialMT-65" d="M 2694 1069 
L 3275 997 
Q 3138 488 2766 206 
Q 2394 -75 1816 -75 
Q 1088 -75 661 373 
Q 234 822 234 1631 
Q 234 2469 665 2931 
Q 1097 3394 1784 3394 
Q 2450 3394 2872 2941 
Q 3294 2488 3294 1666 
Q 3294 1616 3291 1516 
L 816 1516 
Q 847 969 1125 678 
Q 1403 388 1819 388 
Q 2128 388 2347 550 
Q 2566 713 2694 1069 
z
M 847 1978 
L 2700 1978 
Q 2663 2397 2488 2606 
Q 2219 2931 1791 2931 
Q 1403 2931 1139 2672 
Q 875 2413 847 1978 
z
" transform="scale(0.015625)"/>
       <path id="ArialMT-6e" d="M 422 0 
L 422 3319 
L 928 3319 
L 928 2847 
Q 1294 3394 1984 3394 
Q 2284 3394 2536 3286 
Q 2788 3178 2913 3003 
Q 3038 2828 3088 2588 
Q 3119 2431 3119 2041 
L 3119 0 
L 2556 0 
L 2556 2019 
Q 2556 2363 2490 2533 
Q 2425 2703 2258 2804 
Q 2091 2906 1866 2906 
Q 1506 2906 1245 2678 
Q 984 2450 984 1813 
L 984 0 
L 422 0 
z
" transform="scale(0.015625)"/>
       <path id="ArialMT-66" d="M 556 0 
L 556 2881 
L 59 2881 
L 59 3319 
L 556 3319 
L 556 3672 
Q 556 4006 616 4169 
Q 697 4388 901 4523 
Q 1106 4659 1475 4659 
Q 1713 4659 2000 4603 
L 1916 4113 
Q 1741 4144 1584 4144 
Q 1328 4144 1222 4034 
Q 1116 3925 1116 3625 
L 1116 3319 
L 1763 3319 
L 1763 2881 
L 1116 2881 
L 1116 0 
L 556 0 
z
" transform="scale(0.015625)"/>
       <path id="ArialMT-6c" d="M 409 0 
L 409 4581 
L 972 4581 
L 972 0 
L 409 0 
z
" transform="scale(0.015625)"/>
      </defs>
      <use xlink:href="#ArialMT-74"/>
      <use xlink:href="#ArialMT-6f" x="27.783203"/>
      <use xlink:href="#ArialMT-78" x="83.398438"/>
      <use xlink:href="#ArialMT-67" x="133.398438"/>
      <use xlink:href="#ArialMT-72" x="189.013672"/>
      <use xlink:href="#ArialMT-65" x="222.314453"/>
      <use xlink:href="#ArialMT-65" x="277.929688"/>
      <use xlink:href="#ArialMT-6e" x="333.544922"/>
      <use xlink:href="#ArialMT-5f" x="389.160156"/>
      <use xlink:href="#ArialMT-66" x="444.775391"/>
      <use xlink:href="#ArialMT-6c" x="472.558594"/>
      <use xlink:href="#ArialMT-75" x="494.775391"/>
      <use xlink:href="#ArialMT-6f" x="550.390625"/>
      <use xlink:href="#ArialMT-72" x="606.005859"/>
     </g>
    </g>
   </g>
   <g id="patch_3">
    <path d="M 100.4536 210.327099 
L 253.38015 210.327099 
L 253.38015 157.101568 
L 100.4536 157.101568 
L 100.4536 210.327099 
z
" clip-path="url(#p3ab5510211)" style="fill: #ecf2ec; stroke: #262626; stroke-width: 1.5; stroke-linejoin: miter"/>
   </g>
   <g id="patch_4">
    <path d="M 256.5011 193.144279 
L 409.42765 193.144279 
L 409.42765 125.838891 
L 256.5011 125.838891 
L 256.5011 193.144279 
z
" clip-path="url(#p3ab5510211)" style="fill: #107010; stroke: #262626; stroke-width: 1.5; stroke-linejoin: miter"/>
   </g>
   <g id="patch_5">
    <path d="M 254.940625 303.53875 
L 254.940625 303.53875 
L 254.940625 303.53875 
L 254.940625 303.53875 
z
" clip-path="url(#p3ab5510211)" style="fill: #ecf2ec; stroke: #262626; stroke-width: 0.75; stroke-linejoin: miter"/>
   </g>
   <g id="patch_6">
    <path d="M 254.940625 303.53875 
L 254.940625 303.53875 
L 254.940625 303.53875 
L 254.940625 303.53875 
z
" clip-path="url(#p3ab5510211)" style="fill: #107010; stroke: #262626; stroke-width: 0.75; stroke-linejoin: miter"/>
   </g>
   <g id="PathCollection_1"/>
   <g id="PathCollection_2"/>
   <g id="line2d_9">
    <path d="M 176.916875 210.327099 
L 176.916875 253.854266 
" clip-path="url(#p3ab5510211)" style="fill: none; stroke: #262626; stroke-width: 1.5; stroke-linecap: round"/>
   </g>
   <g id="line2d_10">
    <path d="M 176.916875 157.101568 
L 176.916875 134.950084 
" clip-path="url(#p3ab5510211)" style="fill: none; stroke: #262626; stroke-width: 1.5; stroke-linecap: round"/>
   </g>
   <g id="line2d_11">
    <path d="M 138.685237 253.854266 
L 215.148513 253.854266 
" clip-path="url(#p3ab5510211)" style="fill: none; stroke: #262626; stroke-width: 1.5; stroke-linecap: round"/>
   </g>
   <g id="line2d_12">
    <path d="M 138.685237 134.950084 
L 215.148513 134.950084 
" clip-path="url(#p3ab5510211)" style="fill: none; stroke: #262626; stroke-width: 1.5; stroke-linecap: round"/>
   </g>
   <g id="line2d_13"/>
   <g id="line2d_14">
    <path d="M 332.964375 193.144279 
L 332.964375 226.037655 
" clip-path="url(#p3ab5510211)" style="fill: none; stroke: #262626; stroke-width: 1.5; stroke-linecap: round"/>
   </g>
   <g id="line2d_15">
    <path d="M 332.964375 125.838891 
L 332.964375 38.572114 
" clip-path="url(#p3ab5510211)" style="fill: none; stroke: #262626; stroke-width: 1.5; stroke-linecap: round"/>
   </g>
   <g id="line2d_16">
    <path d="M 294.732737 226.037655 
L 371.196013 226.037655 
" clip-path="url(#p3ab5510211)" style="fill: none; stroke: #262626; stroke-width: 1.5; stroke-linecap: round"/>
   </g>
   <g id="line2d_17">
    <path d="M 294.732737 38.572114 
L 371.196013 38.572114 
" clip-path="url(#p3ab5510211)" style="fill: none; stroke: #262626; stroke-width: 1.5; stroke-linecap: round"/>
   </g>
   <g id="line2d_18"/>
   <g id="line2d_19">
    <path d="M 100.4536 182.999509 
L 253.38015 182.999509 
" clip-path="url(#p3ab5510211)" style="fill: none; stroke: #262626; stroke-width: 1.5; stroke-linecap: round"/>
   </g>
   <g id="line2d_20">
    <path d="M 256.5011 167.667578 
L 409.42765 167.667578 
" clip-path="url(#p3ab5510211)" style="fill: none; stroke: #262626; stroke-width: 1.5; stroke-linecap: round"/>
   </g>
   <g id="patch_7">
    <path d="M 59.88125 303.53875 
L 59.88125 12.07545 
" style="fill: none; stroke: #cccccc; stroke-width: 0.8; stroke-linejoin: miter; stroke-linecap: square"/>
   </g>
   <g id="patch_8">
    <path d="M 450 303.53875 
L 450 12.07545 
" style="fill: none; stroke: #cccccc; stroke-width: 0.8; stroke-linejoin: miter; stroke-linecap: square"/>
   </g>
   <g id="patch_9">
    <path d="M 59.88125 303.53875 
L 450 303.53875 
" style="fill: none; stroke: #cccccc; stroke-width: 0.8; stroke-linejoin: miter; stroke-linecap: square"/>
   </g>
   <g id="patch_10">
    <path d="M 59.88125 12.07545 
L 450 12.07545 
" style="fill: none; stroke: #cccccc; stroke-width: 0.8; stroke-linejoin: miter; stroke-linecap: square"/>
   </g>
   <g id="PathCollection_3">
    <defs>
     <path id="C0_0_64bfbf835b" d="M 0 1 
C 0.265203 1 0.51958 0.894634 0.707107 0.707107 
C 0.894634 0.51958 1 0.265203 1 -0 
C 1 -0.265203 0.894634 -0.51958 0.707107 -0.707107 
C 0.51958 -0.894634 0.265203 -1 0 -1 
C -0.265203 -1 -0.51958 -0.894634 -0.707107 -0.707107 
C -0.894634 -0.51958 -1 -0.265203 -1 0 
C -1 0.265203 -0.894634 0.51958 -0.707107 0.707107 
C -0.51958 0.894634 -0.265203 1 0 1 
z
"/>
    </defs>
    <g clip-path="url(#p3ab5510211)">
     <use xlink:href="#C0_0_64bfbf835b" x="186.673206" y="149.591481" style="fill: #262626"/>
    </g>
    <g clip-path="url(#p3ab5510211)">
     <use xlink:href="#C0_0_64bfbf835b" x="195.693913" y="193.680209" style="fill: #262626"/>
    </g>
    <g clip-path="url(#p3ab5510211)">
     <use xlink:href="#C0_0_64bfbf835b" x="162.727137" y="141.30007" style="fill: #262626"/>
    </g>
    <g clip-path="url(#p3ab5510211)">
     <use xlink:href="#C0_0_64bfbf835b" x="189.21694" y="222.164028" style="fill: #262626"/>
    </g>
    <g clip-path="url(#p3ab5510211)">
     <use xlink:href="#C0_0_64bfbf835b" x="190.159275" y="214.89679" style="fill: #262626"/>
    </g>
    <g clip-path="url(#p3ab5510211)">
     <use xlink:href="#C0_0_64bfbf835b" x="178.846812" y="236.032664" style="fill: #262626"/>
    </g>
    <g clip-path="url(#p3ab5510211)">
     <use xlink:href="#C0_0_64bfbf835b" x="169.666843" y="147.85676" style="fill: #262626"/>
    </g>
    <g clip-path="url(#p3ab5510211)">
     <use xlink:href="#C0_0_64bfbf835b" x="167.008918" y="188.217017" style="fill: #262626"/>
    </g>
    <g clip-path="url(#p3ab5510211)">
     <use xlink:href="#C0_0_64bfbf835b" x="173.786614" y="210.023845" style="fill: #262626"/>
    </g>
    <g clip-path="url(#p3ab5510211)">
     <use xlink:href="#C0_0_64bfbf835b" x="162.6165" y="202.522066" style="fill: #262626"/>
    </g>
    <g clip-path="url(#p3ab5510211)">
     <use xlink:href="#C0_0_64bfbf835b" x="169.906407" y="180.997078" style="fill: #262626"/>
    </g>
    <g clip-path="url(#p3ab5510211)">
     <use xlink:href="#C0_0_64bfbf835b" x="166.416179" y="222.614949" style="fill: #262626"/>
    </g>
    <g clip-path="url(#p3ab5510211)">
     <use xlink:href="#C0_0_64bfbf835b" x="192.788226" y="145.556825" style="fill: #262626"/>
    </g>
    <g clip-path="url(#p3ab5510211)">
     <use xlink:href="#C0_0_64bfbf835b" x="175.683041" y="196.344762" style="fill: #262626"/>
    </g>
    <g clip-path="url(#p3ab5510211)">
     <use xlink:href="#C0_0_64bfbf835b" x="170.691483" y="148.772041" style="fill: #262626"/>
    </g>
    <g clip-path="url(#p3ab5510211)">
     <use xlink:href="#C0_0_64bfbf835b" x="190.43477" y="156.634162" style="fill: #262626"/>
    </g>
    <g clip-path="url(#p3ab5510211)">
     <use xlink:href="#C0_0_64bfbf835b" x="159.362172" y="211.417294" style="fill: #262626"/>
    </g>
    <g clip-path="url(#p3ab5510211)">
     <use xlink:href="#C0_0_64bfbf835b" x="160.398765" y="190.132261" style="fill: #262626"/>
    </g>
    <g clip-path="url(#p3ab5510211)">
     <use xlink:href="#C0_0_64bfbf835b" x="183.464266" y="231.459292" style="fill: #262626"/>
    </g>
    <g clip-path="url(#p3ab5510211)">
     <use xlink:href="#C0_0_64bfbf835b" x="180.748102" y="181.093287" style="fill: #262626"/>
    </g>
    <g clip-path="url(#p3ab5510211)">
     <use xlink:href="#C0_0_64bfbf835b" x="186.25481" y="152.803274" style="fill: #262626"/>
    </g>
    <g clip-path="url(#p3ab5510211)">
     <use xlink:href="#C0_0_64bfbf835b" x="168.156744" y="158.738964" style="fill: #262626"/>
    </g>
    <g clip-path="url(#p3ab5510211)">
     <use xlink:href="#C0_0_64bfbf835b" x="170.032179" y="206.20117" style="fill: #262626"/>
    </g>
    <g clip-path="url(#p3ab5510211)">
     <use xlink:href="#C0_0_64bfbf835b" x="175.181563" y="151.323329" style="fill: #262626"/>
    </g>
    <g clip-path="url(#p3ab5510211)">
     <use xlink:href="#C0_0_64bfbf835b" x="186.676451" y="188.873138" style="fill: #262626"/>
    </g>
    <g clip-path="url(#p3ab5510211)">
     <use xlink:href="#C0_0_64bfbf835b" x="185.414296" y="144.338575" style="fill: #262626"/>
    </g>
    <g clip-path="url(#p3ab5510211)">
     <use xlink:href="#C0_0_64bfbf835b" x="160.62279" y="162.827042" style="fill: #262626"/>
    </g>
    <g clip-path="url(#p3ab5510211)">
     <use xlink:href="#C0_0_64bfbf835b" x="179.622141" y="191.994589" style="fill: #262626"/>
    </g>
    <g clip-path="url(#p3ab5510211)">
     <use xlink:href="#C0_0_64bfbf835b" x="178.627808" y="146.914803" style="fill: #262626"/>
    </g>
    <g clip-path="url(#p3ab5510211)">
     <use xlink:href="#C0_0_64bfbf835b" x="179.624741" y="134.950084" style="fill: #262626"/>
    </g>
    <g clip-path="url(#p3ab5510211)">
     <use xlink:href="#C0_0_64bfbf835b" x="175.639325" y="177.88001" style="fill: #262626"/>
    </g>
    <g clip-path="url(#p3ab5510211)">
     <use xlink:href="#C0_0_64bfbf835b" x="191.960605" y="153.816181" style="fill: #262626"/>
    </g>
    <g clip-path="url(#p3ab5510211)">
     <use xlink:href="#C0_0_64bfbf835b" x="177.529107" y="210.251369" style="fill: #262626"/>
    </g>
    <g clip-path="url(#p3ab5510211)">
     <use xlink:href="#C0_0_64bfbf835b" x="195.409005" y="253.854266" style="fill: #262626"/>
    </g>
    <g clip-path="url(#p3ab5510211)">
     <use xlink:href="#C0_0_64bfbf835b" x="194.458002" y="142.91811" style="fill: #262626"/>
    </g>
    <g clip-path="url(#p3ab5510211)">
     <use xlink:href="#C0_0_64bfbf835b" x="162.739038" y="221.698051" style="fill: #262626"/>
    </g>
    <g clip-path="url(#p3ab5510211)">
     <use xlink:href="#C0_0_64bfbf835b" x="171.820107" y="212.355417" style="fill: #262626"/>
    </g>
    <g clip-path="url(#p3ab5510211)">
     <use xlink:href="#C0_0_64bfbf835b" x="186.800342" y="178.491767" style="fill: #262626"/>
    </g>
    <g clip-path="url(#p3ab5510211)">
     <use xlink:href="#C0_0_64bfbf835b" x="165.020898" y="211.823974" style="fill: #262626"/>
    </g>
    <g clip-path="url(#p3ab5510211)">
     <use xlink:href="#C0_0_64bfbf835b" x="179.619904" y="186.118917" style="fill: #262626"/>
    </g>
    <g clip-path="url(#p3ab5510211)">
     <use xlink:href="#C0_0_64bfbf835b" x="188.644987" y="155.945377" style="fill: #262626"/>
    </g>
    <g clip-path="url(#p3ab5510211)">
     <use xlink:href="#C0_0_64bfbf835b" x="160.494406" y="148.314338" style="fill: #262626"/>
    </g>
    <g clip-path="url(#p3ab5510211)">
     <use xlink:href="#C0_0_64bfbf835b" x="193.512668" y="212.790223" style="fill: #262626"/>
    </g>
    <g clip-path="url(#p3ab5510211)">
     <use xlink:href="#C0_0_64bfbf835b" x="166.101695" y="157.887791" style="fill: #262626"/>
    </g>
    <g clip-path="url(#p3ab5510211)">
     <use xlink:href="#C0_0_64bfbf835b" x="175.595641" y="200.07334" style="fill: #262626"/>
    </g>
    <g clip-path="url(#p3ab5510211)">
     <use xlink:href="#C0_0_64bfbf835b" x="196.08098" y="172.261484" style="fill: #262626"/>
    </g>
    <g clip-path="url(#p3ab5510211)">
     <use xlink:href="#C0_0_64bfbf835b" x="172.516521" y="242.664195" style="fill: #262626"/>
    </g>
    <g clip-path="url(#p3ab5510211)">
     <use xlink:href="#C0_0_64bfbf835b" x="193.423946" y="173.587178" style="fill: #262626"/>
    </g>
    <g clip-path="url(#p3ab5510211)">
     <use xlink:href="#C0_0_64bfbf835b" x="177.07871" y="168.825505" style="fill: #262626"/>
    </g>
    <g clip-path="url(#p3ab5510211)">
     <use xlink:href="#C0_0_64bfbf835b" x="184.984898" y="208.773309" style="fill: #262626"/>
    </g>
    <g clip-path="url(#p3ab5510211)">
     <use xlink:href="#C0_0_64bfbf835b" x="184.279564" y="253.081529" style="fill: #262626"/>
    </g>
    <g clip-path="url(#p3ab5510211)">
     <use xlink:href="#C0_0_64bfbf835b" x="175.428791" y="251.266367" style="fill: #262626"/>
    </g>
    <g clip-path="url(#p3ab5510211)">
     <use xlink:href="#C0_0_64bfbf835b" x="175.604703" y="176.795376" style="fill: #262626"/>
    </g>
    <g clip-path="url(#p3ab5510211)">
     <use xlink:href="#C0_0_64bfbf835b" x="192.062472" y="153.00712" style="fill: #262626"/>
    </g>
    <g clip-path="url(#p3ab5510211)">
     <use xlink:href="#C0_0_64bfbf835b" x="158.352452" y="247.410002" style="fill: #262626"/>
    </g>
    <g clip-path="url(#p3ab5510211)">
     <use xlink:href="#C0_0_64bfbf835b" x="190.458834" y="179.657868" style="fill: #262626"/>
    </g>
    <g clip-path="url(#p3ab5510211)">
     <use xlink:href="#C0_0_64bfbf835b" x="167.893476" y="192.091154" style="fill: #262626"/>
    </g>
    <g clip-path="url(#p3ab5510211)">
     <use xlink:href="#C0_0_64bfbf835b" x="176.52679" y="228.794426" style="fill: #262626"/>
    </g>
    <g clip-path="url(#p3ab5510211)">
     <use xlink:href="#C0_0_64bfbf835b" x="171.672984" y="187.330156" style="fill: #262626"/>
    </g>
    <g clip-path="url(#p3ab5510211)">
     <use xlink:href="#C0_0_64bfbf835b" x="169.948556" y="136.841704" style="fill: #262626"/>
    </g>
    <g clip-path="url(#p3ab5510211)">
     <use xlink:href="#C0_0_64bfbf835b" x="176.915322" y="217.19537" style="fill: #262626"/>
    </g>
    <g clip-path="url(#p3ab5510211)">
     <use xlink:href="#C0_0_64bfbf835b" x="172.691986" y="179.946149" style="fill: #262626"/>
    </g>
    <g clip-path="url(#p3ab5510211)">
     <use xlink:href="#C0_0_64bfbf835b" x="166.847311" y="153.099488" style="fill: #262626"/>
    </g>
    <g clip-path="url(#p3ab5510211)">
     <use xlink:href="#C0_0_64bfbf835b" x="180.264714" y="210.327099" style="fill: #262626"/>
    </g>
    <g clip-path="url(#p3ab5510211)">
     <use xlink:href="#C0_0_64bfbf835b" x="177.64519" y="222.308036" style="fill: #262626"/>
    </g>
    <g clip-path="url(#p3ab5510211)">
     <use xlink:href="#C0_0_64bfbf835b" x="165.270212" y="253.361767" style="fill: #262626"/>
    </g>
    <g clip-path="url(#p3ab5510211)">
     <use xlink:href="#C0_0_64bfbf835b" x="160.848699" y="191.773038" style="fill: #262626"/>
    </g>
    <g clip-path="url(#p3ab5510211)">
     <use xlink:href="#C0_0_64bfbf835b" x="191.478853" y="167.613076" style="fill: #262626"/>
    </g>
    <g clip-path="url(#p3ab5510211)">
     <use xlink:href="#C0_0_64bfbf835b" x="190.040622" y="217.072899" style="fill: #262626"/>
    </g>
    <g clip-path="url(#p3ab5510211)">
     <use xlink:href="#C0_0_64bfbf835b" x="188.93415" y="179.384732" style="fill: #262626"/>
    </g>
    <g clip-path="url(#p3ab5510211)">
     <use xlink:href="#C0_0_64bfbf835b" x="160.598588" y="181.305925" style="fill: #262626"/>
    </g>
    <g clip-path="url(#p3ab5510211)">
     <use xlink:href="#C0_0_64bfbf835b" x="184.433856" y="213.617302" style="fill: #262626"/>
    </g>
    <g clip-path="url(#p3ab5510211)">
     <use xlink:href="#C0_0_64bfbf835b" x="170.944803" y="140.806436" style="fill: #262626"/>
    </g>
    <g clip-path="url(#p3ab5510211)">
     <use xlink:href="#C0_0_64bfbf835b" x="194.020305" y="144.071842" style="fill: #262626"/>
    </g>
    <g clip-path="url(#p3ab5510211)">
     <use xlink:href="#C0_0_64bfbf835b" x="184.536284" y="184.332511" style="fill: #262626"/>
    </g>
    <g clip-path="url(#p3ab5510211)">
     <use xlink:href="#C0_0_64bfbf835b" x="187.48961" y="143.327959" style="fill: #262626"/>
    </g>
    <g clip-path="url(#p3ab5510211)">
     <use xlink:href="#C0_0_64bfbf835b" x="161.146019" y="189.605493" style="fill: #262626"/>
    </g>
    <g clip-path="url(#p3ab5510211)">
     <use xlink:href="#C0_0_64bfbf835b" x="173.109761" y="142.123735" style="fill: #262626"/>
    </g>
    <g clip-path="url(#p3ab5510211)">
     <use xlink:href="#C0_0_64bfbf835b" x="189.283934" y="205.121621" style="fill: #262626"/>
    </g>
    <g clip-path="url(#p3ab5510211)">
     <use xlink:href="#C0_0_64bfbf835b" x="195.205194" y="172.681576" style="fill: #262626"/>
    </g>
    <g clip-path="url(#p3ab5510211)">
     <use xlink:href="#C0_0_64bfbf835b" x="163.01556" y="204.025889" style="fill: #262626"/>
    </g>
    <g clip-path="url(#p3ab5510211)">
     <use xlink:href="#C0_0_64bfbf835b" x="189.10308" y="151.32024" style="fill: #262626"/>
    </g>
    <g clip-path="url(#p3ab5510211)">
     <use xlink:href="#C0_0_64bfbf835b" x="163.448108" y="240.224252" style="fill: #262626"/>
    </g>
    <g clip-path="url(#p3ab5510211)">
     <use xlink:href="#C0_0_64bfbf835b" x="162.51933" y="223.871646" style="fill: #262626"/>
    </g>
    <g clip-path="url(#p3ab5510211)">
     <use xlink:href="#C0_0_64bfbf835b" x="189.877483" y="182.999509" style="fill: #262626"/>
    </g>
    <g clip-path="url(#p3ab5510211)">
     <use xlink:href="#C0_0_64bfbf835b" x="176.930073" y="197.352327" style="fill: #262626"/>
    </g>
    <g clip-path="url(#p3ab5510211)">
     <use xlink:href="#C0_0_64bfbf835b" x="188.621555" y="163.306392" style="fill: #262626"/>
    </g>
    <g clip-path="url(#p3ab5510211)">
     <use xlink:href="#C0_0_64bfbf835b" x="183.258654" y="181.858478" style="fill: #262626"/>
    </g>
    <g clip-path="url(#p3ab5510211)">
     <use xlink:href="#C0_0_64bfbf835b" x="168.739643" y="143.689749" style="fill: #262626"/>
    </g>
    <g clip-path="url(#p3ab5510211)">
     <use xlink:href="#C0_0_64bfbf835b" x="188.77102" y="157.83576" style="fill: #262626"/>
    </g>
    <g clip-path="url(#p3ab5510211)">
     <use xlink:href="#C0_0_64bfbf835b" x="167.312505" y="204.257102" style="fill: #262626"/>
    </g>
    <g clip-path="url(#p3ab5510211)">
     <use xlink:href="#C0_0_64bfbf835b" x="186.498081" y="237.577692" style="fill: #262626"/>
    </g>
    <g clip-path="url(#p3ab5510211)">
     <use xlink:href="#C0_0_64bfbf835b" x="188.189411" y="166.718544" style="fill: #262626"/>
    </g>
    <g clip-path="url(#p3ab5510211)">
     <use xlink:href="#C0_0_64bfbf835b" x="178.466367" y="214.831052" style="fill: #262626"/>
    </g>
    <g clip-path="url(#p3ab5510211)">
     <use xlink:href="#C0_0_64bfbf835b" x="160.43006" y="192.387928" style="fill: #262626"/>
    </g>
    <g clip-path="url(#p3ab5510211)">
     <use xlink:href="#C0_0_64bfbf835b" x="169.892621" y="159.49492" style="fill: #262626"/>
    </g>
    <g clip-path="url(#p3ab5510211)">
     <use xlink:href="#C0_0_64bfbf835b" x="182.524789" y="192.009896" style="fill: #262626"/>
    </g>
    <g clip-path="url(#p3ab5510211)">
     <use xlink:href="#C0_0_64bfbf835b" x="165.839266" y="154.689246" style="fill: #262626"/>
    </g>
    <g clip-path="url(#p3ab5510211)">
     <use xlink:href="#C0_0_64bfbf835b" x="170.560586" y="177.221635" style="fill: #262626"/>
    </g>
    <g clip-path="url(#p3ab5510211)">
     <use xlink:href="#C0_0_64bfbf835b" x="189.960149" y="157.101568" style="fill: #262626"/>
    </g>
    <g clip-path="url(#p3ab5510211)">
     <use xlink:href="#C0_0_64bfbf835b" x="188.321495" y="181.260344" style="fill: #262626"/>
    </g>
   </g>
   <g id="PathCollection_4">
    <defs>
     <path id="C1_0_a5a2f13a30" d="M 0 1 
C 0.265203 1 0.51958 0.894634 0.707107 0.707107 
C 0.894634 0.51958 1 0.265203 1 -0 
C 1 -0.265203 0.894634 -0.51958 0.707107 -0.707107 
C 0.51958 -0.894634 0.265203 -1 0 -1 
C -0.265203 -1 -0.51958 -0.894634 -0.707107 -0.707107 
C -0.894634 -0.51958 -1 -0.265203 -1 0 
C -1 0.265203 -0.894634 0.51958 -0.707107 0.707107 
C -0.51958 0.894634 -0.265203 1 0 1 
z
"/>
    </defs>
    <g clip-path="url(#p3ab5510211)">
     <use xlink:href="#C1_0_a5a2f13a30" x="339.104848" y="103.713043"/>
    </g>
    <g clip-path="url(#p3ab5510211)">
     <use xlink:href="#C1_0_a5a2f13a30" x="319.808079" y="162.555684"/>
    </g>
    <g clip-path="url(#p3ab5510211)">
     <use xlink:href="#C1_0_a5a2f13a30" x="321.118748" y="111.400544"/>
    </g>
    <g clip-path="url(#p3ab5510211)">
     <use xlink:href="#C1_0_a5a2f13a30" x="331.088174" y="174.700681"/>
    </g>
    <g clip-path="url(#p3ab5510211)">
     <use xlink:href="#C1_0_a5a2f13a30" x="313.825277" y="204.716386"/>
    </g>
    <g clip-path="url(#p3ab5510211)">
     <use xlink:href="#C1_0_a5a2f13a30" x="348.080876" y="201.642746"/>
    </g>
    <g clip-path="url(#p3ab5510211)">
     <use xlink:href="#C1_0_a5a2f13a30" x="314.60497" y="181.830644"/>
    </g>
    <g clip-path="url(#p3ab5510211)">
     <use xlink:href="#C1_0_a5a2f13a30" x="316.414042" y="102.991994"/>
    </g>
    <g clip-path="url(#p3ab5510211)">
     <use xlink:href="#C1_0_a5a2f13a30" x="313.861869" y="157.823633"/>
    </g>
    <g clip-path="url(#p3ab5510211)">
     <use xlink:href="#C1_0_a5a2f13a30" x="335.015566" y="132.039627"/>
    </g>
    <g clip-path="url(#p3ab5510211)">
     <use xlink:href="#C1_0_a5a2f13a30" x="342.347682" y="193.2545"/>
    </g>
    <g clip-path="url(#p3ab5510211)">
     <use xlink:href="#C1_0_a5a2f13a30" x="329.597628" y="201.509971"/>
    </g>
    <g clip-path="url(#p3ab5510211)">
     <use xlink:href="#C1_0_a5a2f13a30" x="333.748533" y="168.420887"/>
    </g>
    <g clip-path="url(#p3ab5510211)">
     <use xlink:href="#C1_0_a5a2f13a30" x="336.048965" y="204.729568"/>
    </g>
    <g clip-path="url(#p3ab5510211)">
     <use xlink:href="#C1_0_a5a2f13a30" x="339.565226" y="131.310495"/>
    </g>
    <g clip-path="url(#p3ab5510211)">
     <use xlink:href="#C1_0_a5a2f13a30" x="342.771691" y="185.477941"/>
    </g>
    <g clip-path="url(#p3ab5510211)">
     <use xlink:href="#C1_0_a5a2f13a30" x="350.004636" y="210.963954"/>
    </g>
    <g clip-path="url(#p3ab5510211)">
     <use xlink:href="#C1_0_a5a2f13a30" x="344.405968" y="189.838602"/>
    </g>
    <g clip-path="url(#p3ab5510211)">
     <use xlink:href="#C1_0_a5a2f13a30" x="319.805604" y="178.206843"/>
    </g>
    <g clip-path="url(#p3ab5510211)">
     <use xlink:href="#C1_0_a5a2f13a30" x="332.302894" y="64.512433"/>
    </g>
    <g clip-path="url(#p3ab5510211)">
     <use xlink:href="#C1_0_a5a2f13a30" x="348.954014" y="149.838853"/>
    </g>
    <g clip-path="url(#p3ab5510211)">
     <use xlink:href="#C1_0_a5a2f13a30" x="341.300021" y="192.813619"/>
    </g>
    <g clip-path="url(#p3ab5510211)">
     <use xlink:href="#C1_0_a5a2f13a30" x="351.5477" y="165.438049"/>
    </g>
    <g clip-path="url(#p3ab5510211)">
     <use xlink:href="#C1_0_a5a2f13a30" x="329.078485" y="171.150127"/>
    </g>
    <g clip-path="url(#p3ab5510211)">
     <use xlink:href="#C1_0_a5a2f13a30" x="321.695263" y="204.846948"/>
    </g>
    <g clip-path="url(#p3ab5510211)">
     <use xlink:href="#C1_0_a5a2f13a30" x="342.853204" y="185.708228"/>
    </g>
    <g clip-path="url(#p3ab5510211)">
     <use xlink:href="#C1_0_a5a2f13a30" x="318.051043" y="193.335749"/>
    </g>
    <g clip-path="url(#p3ab5510211)">
     <use xlink:href="#C1_0_a5a2f13a30" x="340.375555" y="147.830716"/>
    </g>
    <g clip-path="url(#p3ab5510211)">
     <use xlink:href="#C1_0_a5a2f13a30" x="315.555679" y="193.886736"/>
    </g>
    <g clip-path="url(#p3ab5510211)">
     <use xlink:href="#C1_0_a5a2f13a30" x="327.385347" y="209.184216"/>
    </g>
    <g clip-path="url(#p3ab5510211)">
     <use xlink:href="#C1_0_a5a2f13a30" x="322.312353" y="121.578827"/>
    </g>
    <g clip-path="url(#p3ab5510211)">
     <use xlink:href="#C1_0_a5a2f13a30" x="342.529091" y="145.446572"/>
    </g>
    <g clip-path="url(#p3ab5510211)">
     <use xlink:href="#C1_0_a5a2f13a30" x="351.570408" y="38.572114"/>
    </g>
    <g clip-path="url(#p3ab5510211)">
     <use xlink:href="#C1_0_a5a2f13a30" x="347.685101" y="174.787129"/>
    </g>
    <g clip-path="url(#p3ab5510211)">
     <use xlink:href="#C1_0_a5a2f13a30" x="316.222919" y="149.407587"/>
    </g>
    <g clip-path="url(#p3ab5510211)">
     <use xlink:href="#C1_0_a5a2f13a30" x="325.848942" y="220.680886"/>
    </g>
    <g clip-path="url(#p3ab5510211)">
     <use xlink:href="#C1_0_a5a2f13a30" x="350.453221" y="226.037655"/>
    </g>
    <g clip-path="url(#p3ab5510211)">
     <use xlink:href="#C1_0_a5a2f13a30" x="318.092567" y="121.898901"/>
    </g>
    <g clip-path="url(#p3ab5510211)">
     <use xlink:href="#C1_0_a5a2f13a30" x="321.530528" y="117.930934"/>
    </g>
    <g clip-path="url(#p3ab5510211)">
     <use xlink:href="#C1_0_a5a2f13a30" x="326.844384" y="105.27245"/>
    </g>
    <g clip-path="url(#p3ab5510211)">
     <use xlink:href="#C1_0_a5a2f13a30" x="343.648235" y="166.928527"/>
    </g>
    <g clip-path="url(#p3ab5510211)">
     <use xlink:href="#C1_0_a5a2f13a30" x="323.756691" y="95.544287"/>
    </g>
    <g clip-path="url(#p3ab5510211)">
     <use xlink:href="#C1_0_a5a2f13a30" x="332.314377" y="166.839427"/>
    </g>
    <g clip-path="url(#p3ab5510211)">
     <use xlink:href="#C1_0_a5a2f13a30" x="346.207554" y="125.432829"/>
    </g>
    <g clip-path="url(#p3ab5510211)">
     <use xlink:href="#C1_0_a5a2f13a30" x="337.404646" y="172.615912"/>
    </g>
    <g clip-path="url(#p3ab5510211)">
     <use xlink:href="#C1_0_a5a2f13a30" x="344.715963" y="75.250832"/>
    </g>
    <g clip-path="url(#p3ab5510211)">
     <use xlink:href="#C1_0_a5a2f13a30" x="345.699153" y="106.710273"/>
    </g>
    <g clip-path="url(#p3ab5510211)">
     <use xlink:href="#C1_0_a5a2f13a30" x="343.351958" y="217.055255"/>
    </g>
    <g clip-path="url(#p3ab5510211)">
     <use xlink:href="#C1_0_a5a2f13a30" x="333.391193" y="127.05708"/>
    </g>
    <g clip-path="url(#p3ab5510211)">
     <use xlink:href="#C1_0_a5a2f13a30" x="319.785801" y="168.406629"/>
    </g>
   </g>
   <g id="text_12">
    <!-- 101 -->
    <g style="fill: #262626" transform="translate(196.422813 303.504715)scale(0.1 -0.1)">
     <use xlink:href="#ArialMT-31"/>
     <use xlink:href="#ArialMT-30" x="55.615234"/>
     <use xlink:href="#ArialMT-31" x="111.230469"/>
    </g>
   </g>
   <g id="text_13">
    <!-- p=1.6473240301152288e-05 -->
    <g style="fill: #262626" transform="translate(145.226563 134.949053)scale(0.08 -0.08)">
     <defs>
      <path id="ArialMT-70" d="M 422 -1272 
L 422 3319 
L 934 3319 
L 934 2888 
Q 1116 3141 1344 3267 
Q 1572 3394 1897 3394 
Q 2322 3394 2647 3175 
Q 2972 2956 3137 2557 
Q 3303 2159 3303 1684 
Q 3303 1175 3120 767 
Q 2938 359 2589 142 
Q 2241 -75 1856 -75 
Q 1575 -75 1351 44 
Q 1128 163 984 344 
L 984 -1272 
L 422 -1272 
z
M 931 1641 
Q 931 1000 1190 694 
Q 1450 388 1819 388 
Q 2194 388 2461 705 
Q 2728 1022 2728 1688 
Q 2728 2322 2467 2637 
Q 2206 2953 1844 2953 
Q 1484 2953 1207 2617 
Q 931 2281 931 1641 
z
" transform="scale(0.015625)"/>
      <path id="ArialMT-3d" d="M 3381 2694 
L 356 2694 
L 356 3219 
L 3381 3219 
L 3381 2694 
z
M 3381 1303 
L 356 1303 
L 356 1828 
L 3381 1828 
L 3381 1303 
z
" transform="scale(0.015625)"/>
      <path id="ArialMT-2e" d="M 581 0 
L 581 641 
L 1222 641 
L 1222 0 
L 581 0 
z
" transform="scale(0.015625)"/>
      <path id="ArialMT-37" d="M 303 3981 
L 303 4522 
L 3269 4522 
L 3269 4084 
Q 2831 3619 2401 2847 
Q 1972 2075 1738 1259 
Q 1569 684 1522 0 
L 944 0 
Q 953 541 1156 1306 
Q 1359 2072 1739 2783 
Q 2119 3494 2547 3981 
L 303 3981 
z
" transform="scale(0.015625)"/>
      <path id="ArialMT-33" d="M 269 1209 
L 831 1284 
Q 928 806 1161 595 
Q 1394 384 1728 384 
Q 2125 384 2398 659 
Q 2672 934 2672 1341 
Q 2672 1728 2419 1979 
Q 2166 2231 1775 2231 
Q 1616 2231 1378 2169 
L 1441 2663 
Q 1497 2656 1531 2656 
Q 1891 2656 2178 2843 
Q 2466 3031 2466 3422 
Q 2466 3731 2256 3934 
Q 2047 4138 1716 4138 
Q 1388 4138 1169 3931 
Q 950 3725 888 3313 
L 325 3413 
Q 428 3978 793 4289 
Q 1159 4600 1703 4600 
Q 2078 4600 2393 4439 
Q 2709 4278 2876 4000 
Q 3044 3722 3044 3409 
Q 3044 3113 2884 2869 
Q 2725 2625 2413 2481 
Q 2819 2388 3044 2092 
Q 3269 1797 3269 1353 
Q 3269 753 2831 336 
Q 2394 -81 1725 -81 
Q 1122 -81 723 278 
Q 325 638 269 1209 
z
" transform="scale(0.015625)"/>
      <path id="ArialMT-35" d="M 266 1200 
L 856 1250 
Q 922 819 1161 601 
Q 1400 384 1738 384 
Q 2144 384 2425 690 
Q 2706 997 2706 1503 
Q 2706 1984 2436 2262 
Q 2166 2541 1728 2541 
Q 1456 2541 1237 2417 
Q 1019 2294 894 2097 
L 366 2166 
L 809 4519 
L 3088 4519 
L 3088 3981 
L 1259 3981 
L 1013 2750 
Q 1425 3038 1878 3038 
Q 2478 3038 2890 2622 
Q 3303 2206 3303 1553 
Q 3303 931 2941 478 
Q 2500 -78 1738 -78 
Q 1113 -78 717 272 
Q 322 622 266 1200 
z
" transform="scale(0.015625)"/>
      <path id="ArialMT-2d" d="M 203 1375 
L 203 1941 
L 1931 1941 
L 1931 1375 
L 203 1375 
z
" transform="scale(0.015625)"/>
     </defs>
     <use xlink:href="#ArialMT-70"/>
     <use xlink:href="#ArialMT-3d" x="55.615234"/>
     <use xlink:href="#ArialMT-31" x="114.013672"/>
     <use xlink:href="#ArialMT-2e" x="169.628906"/>
     <use xlink:href="#ArialMT-36" x="197.412109"/>
     <use xlink:href="#ArialMT-34" x="253.027344"/>
     <use xlink:href="#ArialMT-37" x="308.642578"/>
     <use xlink:href="#ArialMT-33" x="364.257812"/>
     <use xlink:href="#ArialMT-32" x="419.873047"/>
     <use xlink:href="#ArialMT-34" x="475.488281"/>
     <use xlink:href="#ArialMT-30" x="531.103516"/>
     <use xlink:href="#ArialMT-33" x="586.71875"/>
     <use xlink:href="#ArialMT-30" x="642.333984"/>
     <use xlink:href="#ArialMT-31" x="697.949219"/>
     <use xlink:href="#ArialMT-31" x="746.189453"/>
     <use xlink:href="#ArialMT-35" x="801.804688"/>
     <use xlink:href="#ArialMT-32" x="857.419922"/>
     <use xlink:href="#ArialMT-32" x="913.035156"/>
     <use xlink:href="#ArialMT-38" x="968.650391"/>
     <use xlink:href="#ArialMT-38" x="1024.265625"/>
     <use xlink:href="#ArialMT-65" x="1079.880859"/>
     <use xlink:href="#ArialMT-2d" x="1135.496094"/>
     <use xlink:href="#ArialMT-30" x="1168.796875"/>
     <use xlink:href="#ArialMT-35" x="1224.412109"/>
    </g>
   </g>
   <g id="text_14">
    <!-- 50 -->
    <g style="fill: #262626" transform="translate(313.458438 303.504715)scale(0.1 -0.1)">
     <use xlink:href="#ArialMT-35"/>
     <use xlink:href="#ArialMT-30" x="55.615234"/>
    </g>
   </g>
   <g id="legend_1">
    <g id="patch_11">
     <path d="M 382.43125 28.233263 
L 402.43125 28.233263 
L 402.43125 21.233263 
L 382.43125 21.233263 
z
" style="fill: #ecf2ec; stroke: #262626; stroke-width: 0.75; stroke-linejoin: miter"/>
    </g>
    <g id="text_15">
     <!-- Mutant -->
     <g style="fill: #262626" transform="translate(410.43125 28.233263)scale(0.1 -0.1)">
      <defs>
       <path id="ArialMT-4d" d="M 475 0 
L 475 4581 
L 1388 4581 
L 2472 1338 
Q 2622 884 2691 659 
Q 2769 909 2934 1394 
L 4031 4581 
L 4847 4581 
L 4847 0 
L 4263 0 
L 4263 3834 
L 2931 0 
L 2384 0 
L 1059 3900 
L 1059 0 
L 475 0 
z
" transform="scale(0.015625)"/>
       <path id="ArialMT-61" d="M 2588 409 
Q 2275 144 1986 34 
Q 1697 -75 1366 -75 
Q 819 -75 525 192 
Q 231 459 231 875 
Q 231 1119 342 1320 
Q 453 1522 633 1644 
Q 813 1766 1038 1828 
Q 1203 1872 1538 1913 
Q 2219 1994 2541 2106 
Q 2544 2222 2544 2253 
Q 2544 2597 2384 2738 
Q 2169 2928 1744 2928 
Q 1347 2928 1158 2789 
Q 969 2650 878 2297 
L 328 2372 
Q 403 2725 575 2942 
Q 747 3159 1072 3276 
Q 1397 3394 1825 3394 
Q 2250 3394 2515 3294 
Q 2781 3194 2906 3042 
Q 3031 2891 3081 2659 
Q 3109 2516 3109 2141 
L 3109 1391 
Q 3109 606 3145 398 
Q 3181 191 3288 0 
L 2700 0 
Q 2613 175 2588 409 
z
M 2541 1666 
Q 2234 1541 1622 1453 
Q 1275 1403 1131 1340 
Q 988 1278 909 1158 
Q 831 1038 831 891 
Q 831 666 1001 516 
Q 1172 366 1500 366 
Q 1825 366 2078 508 
Q 2331 650 2450 897 
Q 2541 1088 2541 1459 
L 2541 1666 
z
" transform="scale(0.015625)"/>
      </defs>
      <use xlink:href="#ArialMT-4d"/>
      <use xlink:href="#ArialMT-75" x="83.300781"/>
      <use xlink:href="#ArialMT-74" x="138.916016"/>
      <use xlink:href="#ArialMT-61" x="166.699219"/>
      <use xlink:href="#ArialMT-6e" x="222.314453"/>
      <use xlink:href="#ArialMT-74" x="277.929688"/>
     </g>
    </g>
    <g id="patch_12">
     <path d="M 382.43125 42.378575 
L 402.43125 42.378575 
L 402.43125 35.378575 
L 382.43125 35.378575 
z
" style="fill: #107010; stroke: #262626; stroke-width: 0.75; stroke-linejoin: miter"/>
    </g>
    <g id="text_16">
     <!-- WT -->
     <g style="fill: #262626" transform="translate(410.43125 42.378575)scale(0.1 -0.1)">
      <defs>
       <path id="ArialMT-57" d="M 1294 0 
L 78 4581 
L 700 4581 
L 1397 1578 
Q 1509 1106 1591 641 
Q 1766 1375 1797 1488 
L 2669 4581 
L 3400 4581 
L 4056 2263 
Q 4303 1400 4413 641 
Q 4500 1075 4641 1638 
L 5359 4581 
L 5969 4581 
L 4713 0 
L 4128 0 
L 3163 3491 
Q 3041 3928 3019 4028 
Q 2947 3713 2884 3491 
L 1913 0 
L 1294 0 
z
" transform="scale(0.015625)"/>
       <path id="ArialMT-54" d="M 1659 0 
L 1659 4041 
L 150 4041 
L 150 4581 
L 3781 4581 
L 3781 4041 
L 2266 4041 
L 2266 0 
L 1659 0 
z
" transform="scale(0.015625)"/>
      </defs>
      <use xlink:href="#ArialMT-57"/>
      <use xlink:href="#ArialMT-54" x="94.384766"/>
     </g>
    </g>
   </g>
  </g>
 </g>
 <defs>
  <clipPath id="p3ab5510211">
   <rect x="59.88125" y="12.07545" width="390.11875" height="291.4633"/>
  </clipPath>
 </defs>
</svg>
