<?xml version="1.0" encoding="utf-8" standalone="no"?>
<!DOCTYPE svg PUBLIC "-//W3C//DTD SVG 1.1//EN"
  "http://www.w3.org/Graphics/SVG/1.1/DTD/svg11.dtd">
<svg xmlns:xlink="http://www.w3.org/1999/xlink" width="460.8pt" height="345.6pt" viewBox="0 0 460.8 345.6" xmlns="http://www.w3.org/2000/svg" version="1.1">
 <metadata>
  <rdf:RDF xmlns:dc="http://purl.org/dc/elements/1.1/" xmlns:cc="http://creativecommons.org/ns#" xmlns:rdf="http://www.w3.org/1999/02/22-rdf-syntax-ns#">
   <cc:Work>
    <dc:type rdf:resource="http://purl.org/dc/dcmitype/StillImage"/>
    <dc:date>2024-02-15T22:05:01.869035</dc:date>
    <dc:format>image/svg+xml</dc:format>
    <dc:creator>
     <cc:Agent>
      <dc:title>Matplotlib v3.5.3, https://matplotlib.org/</dc:title>
     </cc:Agent>
    </dc:creator>
   </cc:Work>
  </rdf:RDF>
 </metadata>
 <defs>
  <style type="text/css">*{stroke-linejoin: round; stroke-linecap: butt}</style>
 </defs>
 <g id="figure_1">
  <g id="patch_1">
   <path d="M 0 345.6 
L 460.8 345.6 
L 460.8 0 
L 0 0 
z
" style="fill: #ffffff"/>
  </g>
  <g id="axes_1">
   <g id="patch_2">
    <path d="M 47.82125 303.64 
L 450 303.64 
L 450 46.675714 
L 47.82125 46.675714 
z
" style="fill: #ffffff"/>
   </g>
   <g id="PathCollection_1">
    <defs>
     <path id="m169a69d920" d="M 0 3 
C 0.795609 3 1.55874 2.683901 2.12132 2.12132 
C 2.683901 1.55874 3 0.795609 3 0 
C 3 -0.795609 2.683901 -1.55874 2.12132 -2.12132 
C 1.55874 -2.683901 0.795609 -3 0 -3 
C -0.795609 -3 -1.55874 -2.683901 -2.12132 -2.12132 
C -2.683901 -1.55874 -3 -0.795609 -3 0 
C -3 0.795609 -2.683901 1.55874 -2.12132 2.12132 
C -1.55874 2.683901 -0.795609 3 0 3 
z
" style="stroke: #1f77b4"/>
    </defs>
    <g clip-path="url(#p2fba1f175b)">
     <use xlink:href="#m169a69d920" x="130.592691" y="193.637196" style="fill: #1f77b4; stroke: #1f77b4"/>
     <use xlink:href="#m169a69d920" x="164.871332" y="152.676876" style="fill: #1f77b4; stroke: #1f77b4"/>
     <use xlink:href="#m169a69d920" x="160.54821" y="221.009902" style="fill: #1f77b4; stroke: #1f77b4"/>
     <use xlink:href="#m169a69d920" x="66.102102" y="127.260828" style="fill: #1f77b4; stroke: #1f77b4"/>
     <use xlink:href="#m169a69d920" x="131.528908" y="183.196221" style="fill: #1f77b4; stroke: #1f77b4"/>
     <use xlink:href="#m169a69d920" x="132.520197" y="194.207386" style="fill: #1f77b4; stroke: #1f77b4"/>
     <use xlink:href="#m169a69d920" x="99.561554" y="180.785386" style="fill: #1f77b4; stroke: #1f77b4"/>
     <use xlink:href="#m169a69d920" x="157.631135" y="173.89414" style="fill: #1f77b4; stroke: #1f77b4"/>
     <use xlink:href="#m169a69d920" x="105.52994" y="216.513969" style="fill: #1f77b4; stroke: #1f77b4"/>
     <use xlink:href="#m169a69d920" x="205.589912" y="173.930338" style="fill: #1f77b4; stroke: #1f77b4"/>
     <use xlink:href="#m169a69d920" x="172.362794" y="221.398137" style="fill: #1f77b4; stroke: #1f77b4"/>
     <use xlink:href="#m169a69d920" x="149.798918" y="212.31045" style="fill: #1f77b4; stroke: #1f77b4"/>
     <use xlink:href="#m169a69d920" x="186.147909" y="144.376011" style="fill: #1f77b4; stroke: #1f77b4"/>
     <use xlink:href="#m169a69d920" x="101.896935" y="218.206352" style="fill: #1f77b4; stroke: #1f77b4"/>
     <use xlink:href="#m169a69d920" x="217.296073" y="174.42555" style="fill: #1f77b4; stroke: #1f77b4"/>
     <use xlink:href="#m169a69d920" x="192.732409" y="249.085568" style="fill: #1f77b4; stroke: #1f77b4"/>
     <use xlink:href="#m169a69d920" x="214.313601" y="217.008472" style="fill: #1f77b4; stroke: #1f77b4"/>
     <use xlink:href="#m169a69d920" x="236.732913" y="209.900138" style="fill: #1f77b4; stroke: #1f77b4"/>
     <use xlink:href="#m169a69d920" x="256.016585" y="257.308401" style="fill: #1f77b4; stroke: #1f77b4"/>
     <use xlink:href="#m169a69d920" x="188.405845" y="59.719478" style="fill: #1f77b4; stroke: #1f77b4"/>
     <use xlink:href="#m169a69d920" x="163.571986" y="202.483792" style="fill: #1f77b4; stroke: #1f77b4"/>
     <use xlink:href="#m169a69d920" x="265.838264" y="241.93037" style="fill: #1f77b4; stroke: #1f77b4"/>
     <use xlink:href="#m169a69d920" x="168.187676" y="277.196747" style="fill: #1f77b4; stroke: #1f77b4"/>
     <use xlink:href="#m169a69d920" x="271.710276" y="250.62352" style="fill: #1f77b4; stroke: #1f77b4"/>
     <use xlink:href="#m169a69d920" x="264.769531" y="275.130665" style="fill: #1f77b4; stroke: #1f77b4"/>
     <use xlink:href="#m169a69d920" x="320.224931" y="258.359376" style="fill: #1f77b4; stroke: #1f77b4"/>
     <use xlink:href="#m169a69d920" x="333.314767" y="124.138895" style="fill: #1f77b4; stroke: #1f77b4"/>
     <use xlink:href="#m169a69d920" x="330.552581" y="300.424574" style="fill: #1f77b4; stroke: #1f77b4"/>
     <use xlink:href="#m169a69d920" x="363.814119" y="92.354214" style="fill: #1f77b4; stroke: #1f77b4"/>
     <use xlink:href="#m169a69d920" x="395.072426" y="271.49376" style="fill: #1f77b4; stroke: #1f77b4"/>
     <use xlink:href="#m169a69d920" x="393.680147" y="282.53075" style="fill: #1f77b4; stroke: #1f77b4"/>
     <use xlink:href="#m169a69d920" x="427.685152" y="249.283191" style="fill: #1f77b4; stroke: #1f77b4"/>
     <use xlink:href="#m169a69d920" x="411.752243" y="250.359864" style="fill: #1f77b4; stroke: #1f77b4"/>
     <use xlink:href="#m169a69d920" x="431.719148" y="248.065718" style="fill: #1f77b4; stroke: #1f77b4"/>
    </g>
   </g>
   <g id="matplotlib.axis_1">
    <g id="xtick_1">
     <g id="line2d_1">
      <defs>
       <path id="m0ce34c127a" d="M 0 0 
L 0 3.5 
" style="stroke: #000000; stroke-width: 0.8"/>
      </defs>
      <g>
       <use xlink:href="#m0ce34c127a" x="128.974962" y="303.64" style="stroke: #000000; stroke-width: 0.8"/>
      </g>
     </g>
     <g id="text_1">
      <!-- −45 -->
      <g transform="translate(118.422618 318.238437)scale(0.1 -0.1)">
       <defs>
        <path id="DejaVuSans-2212" d="M 678 2272 
L 4684 2272 
L 4684 1741 
L 678 1741 
L 678 2272 
z
" transform="scale(0.015625)"/>
        <path id="DejaVuSans-34" d="M 2419 4116 
L 825 1625 
L 2419 1625 
L 2419 4116 
z
M 2253 4666 
L 3047 4666 
L 3047 1625 
L 3713 1625 
L 3713 1100 
L 3047 1100 
L 3047 0 
L 2419 0 
L 2419 1100 
L 313 1100 
L 313 1709 
L 2253 4666 
z
" transform="scale(0.015625)"/>
        <path id="DejaVuSans-35" d="M 691 4666 
L 3169 4666 
L 3169 4134 
L 1269 4134 
L 1269 2991 
Q 1406 3038 1543 3061 
Q 1681 3084 1819 3084 
Q 2600 3084 3056 2656 
Q 3513 2228 3513 1497 
Q 3513 744 3044 326 
Q 2575 -91 1722 -91 
Q 1428 -91 1123 -41 
Q 819 9 494 109 
L 494 744 
Q 775 591 1075 516 
Q 1375 441 1709 441 
Q 2250 441 2565 725 
Q 2881 1009 2881 1497 
Q 2881 1984 2565 2268 
Q 2250 2553 1709 2553 
Q 1456 2553 1204 2497 
Q 953 2441 691 2322 
L 691 4666 
z
" transform="scale(0.015625)"/>
       </defs>
       <use xlink:href="#DejaVuSans-2212"/>
       <use xlink:href="#DejaVuSans-34" x="83.789062"/>
       <use xlink:href="#DejaVuSans-35" x="147.412109"/>
      </g>
     </g>
    </g>
    <g id="xtick_2">
     <g id="line2d_2">
      <g>
       <use xlink:href="#m0ce34c127a" x="215.024369" y="303.64" style="stroke: #000000; stroke-width: 0.8"/>
      </g>
     </g>
     <g id="text_2">
      <!-- −40 -->
      <g transform="translate(204.472025 318.238437)scale(0.1 -0.1)">
       <defs>
        <path id="DejaVuSans-30" d="M 2034 4250 
Q 1547 4250 1301 3770 
Q 1056 3291 1056 2328 
Q 1056 1369 1301 889 
Q 1547 409 2034 409 
Q 2525 409 2770 889 
Q 3016 1369 3016 2328 
Q 3016 3291 2770 3770 
Q 2525 4250 2034 4250 
z
M 2034 4750 
Q 2819 4750 3233 4129 
Q 3647 3509 3647 2328 
Q 3647 1150 3233 529 
Q 2819 -91 2034 -91 
Q 1250 -91 836 529 
Q 422 1150 422 2328 
Q 422 3509 836 4129 
Q 1250 4750 2034 4750 
z
" transform="scale(0.015625)"/>
       </defs>
       <use xlink:href="#DejaVuSans-2212"/>
       <use xlink:href="#DejaVuSans-34" x="83.789062"/>
       <use xlink:href="#DejaVuSans-30" x="147.412109"/>
      </g>
     </g>
    </g>
    <g id="xtick_3">
     <g id="line2d_3">
      <g>
       <use xlink:href="#m0ce34c127a" x="301.073775" y="303.64" style="stroke: #000000; stroke-width: 0.8"/>
      </g>
     </g>
     <g id="text_3">
      <!-- −35 -->
      <g transform="translate(290.521432 318.238437)scale(0.1 -0.1)">
       <defs>
        <path id="DejaVuSans-33" d="M 2597 2516 
Q 3050 2419 3304 2112 
Q 3559 1806 3559 1356 
Q 3559 666 3084 287 
Q 2609 -91 1734 -91 
Q 1441 -91 1130 -33 
Q 819 25 488 141 
L 488 750 
Q 750 597 1062 519 
Q 1375 441 1716 441 
Q 2309 441 2620 675 
Q 2931 909 2931 1356 
Q 2931 1769 2642 2001 
Q 2353 2234 1838 2234 
L 1294 2234 
L 1294 2753 
L 1863 2753 
Q 2328 2753 2575 2939 
Q 2822 3125 2822 3475 
Q 2822 3834 2567 4026 
Q 2313 4219 1838 4219 
Q 1578 4219 1281 4162 
Q 984 4106 628 3988 
L 628 4550 
Q 988 4650 1302 4700 
Q 1616 4750 1894 4750 
Q 2613 4750 3031 4423 
Q 3450 4097 3450 3541 
Q 3450 3153 3228 2886 
Q 3006 2619 2597 2516 
z
" transform="scale(0.015625)"/>
       </defs>
       <use xlink:href="#DejaVuSans-2212"/>
       <use xlink:href="#DejaVuSans-33" x="83.789062"/>
       <use xlink:href="#DejaVuSans-35" x="147.412109"/>
      </g>
     </g>
    </g>
    <g id="xtick_4">
     <g id="line2d_4">
      <g>
       <use xlink:href="#m0ce34c127a" x="387.123182" y="303.64" style="stroke: #000000; stroke-width: 0.8"/>
      </g>
     </g>
     <g id="text_4">
      <!-- −30 -->
      <g transform="translate(376.570838 318.238437)scale(0.1 -0.1)">
       <use xlink:href="#DejaVuSans-2212"/>
       <use xlink:href="#DejaVuSans-33" x="83.789062"/>
       <use xlink:href="#DejaVuSans-30" x="147.412109"/>
      </g>
     </g>
    </g>
    <g id="text_5">
     <!-- VDWDiff -->
     <g transform="translate(227.937187 331.916562)scale(0.1 -0.1)">
      <defs>
       <path id="DejaVuSans-56" d="M 1831 0 
L 50 4666 
L 709 4666 
L 2188 738 
L 3669 4666 
L 4325 4666 
L 2547 0 
L 1831 0 
z
" transform="scale(0.015625)"/>
       <path id="DejaVuSans-44" d="M 1259 4147 
L 1259 519 
L 2022 519 
Q 2988 519 3436 956 
Q 3884 1394 3884 2338 
Q 3884 3275 3436 3711 
Q 2988 4147 2022 4147 
L 1259 4147 
z
M 628 4666 
L 1925 4666 
Q 3281 4666 3915 4102 
Q 4550 3538 4550 2338 
Q 4550 1131 3912 565 
Q 3275 0 1925 0 
L 628 0 
L 628 4666 
z
" transform="scale(0.015625)"/>
       <path id="DejaVuSans-57" d="M 213 4666 
L 850 4666 
L 1831 722 
L 2809 4666 
L 3519 4666 
L 4500 722 
L 5478 4666 
L 6119 4666 
L 4947 0 
L 4153 0 
L 3169 4050 
L 2175 0 
L 1381 0 
L 213 4666 
z
" transform="scale(0.015625)"/>
       <path id="DejaVuSans-69" d="M 603 3500 
L 1178 3500 
L 1178 0 
L 603 0 
L 603 3500 
z
M 603 4863 
L 1178 4863 
L 1178 4134 
L 603 4134 
L 603 4863 
z
" transform="scale(0.015625)"/>
       <path id="DejaVuSans-66" d="M 2375 4863 
L 2375 4384 
L 1825 4384 
Q 1516 4384 1395 4259 
Q 1275 4134 1275 3809 
L 1275 3500 
L 2222 3500 
L 2222 3053 
L 1275 3053 
L 1275 0 
L 697 0 
L 697 3053 
L 147 3053 
L 147 3500 
L 697 3500 
L 697 3744 
Q 697 4328 969 4595 
Q 1241 4863 1831 4863 
L 2375 4863 
z
" transform="scale(0.015625)"/>
      </defs>
      <use xlink:href="#DejaVuSans-56"/>
      <use xlink:href="#DejaVuSans-44" x="68.408203"/>
      <use xlink:href="#DejaVuSans-57" x="145.410156"/>
      <use xlink:href="#DejaVuSans-44" x="244.287109"/>
      <use xlink:href="#DejaVuSans-69" x="321.289062"/>
      <use xlink:href="#DejaVuSans-66" x="349.072266"/>
      <use xlink:href="#DejaVuSans-66" x="384.277344"/>
     </g>
    </g>
   </g>
   <g id="matplotlib.axis_2">
    <g id="ytick_1">
     <g id="line2d_5">
      <defs>
       <path id="m1a4f36a273" d="M 0 0 
L -3.5 0 
" style="stroke: #000000; stroke-width: 0.8"/>
      </defs>
      <g>
       <use xlink:href="#m1a4f36a273" x="47.82125" y="303.64" style="stroke: #000000; stroke-width: 0.8"/>
      </g>
     </g>
     <g id="text_6">
      <!-- 0.0 -->
      <g transform="translate(24.918125 307.439219)scale(0.1 -0.1)">
       <defs>
        <path id="DejaVuSans-2e" d="M 684 794 
L 1344 794 
L 1344 0 
L 684 0 
L 684 794 
z
" transform="scale(0.015625)"/>
       </defs>
       <use xlink:href="#DejaVuSans-30"/>
       <use xlink:href="#DejaVuSans-2e" x="63.623047"/>
       <use xlink:href="#DejaVuSans-30" x="95.410156"/>
      </g>
     </g>
    </g>
    <g id="ytick_2">
     <g id="line2d_6">
      <g>
       <use xlink:href="#m1a4f36a273" x="47.82125" y="247.991526" style="stroke: #000000; stroke-width: 0.8"/>
      </g>
     </g>
     <g id="text_7">
      <!-- 0.5 -->
      <g transform="translate(24.918125 251.790745)scale(0.1 -0.1)">
       <use xlink:href="#DejaVuSans-30"/>
       <use xlink:href="#DejaVuSans-2e" x="63.623047"/>
       <use xlink:href="#DejaVuSans-35" x="95.410156"/>
      </g>
     </g>
    </g>
    <g id="ytick_3">
     <g id="line2d_7">
      <g>
       <use xlink:href="#m1a4f36a273" x="47.82125" y="192.343053" style="stroke: #000000; stroke-width: 0.8"/>
      </g>
     </g>
     <g id="text_8">
      <!-- 1.0 -->
      <g transform="translate(24.918125 196.142271)scale(0.1 -0.1)">
       <defs>
        <path id="DejaVuSans-31" d="M 794 531 
L 1825 531 
L 1825 4091 
L 703 3866 
L 703 4441 
L 1819 4666 
L 2450 4666 
L 2450 531 
L 3481 531 
L 3481 0 
L 794 0 
L 794 531 
z
" transform="scale(0.015625)"/>
       </defs>
       <use xlink:href="#DejaVuSans-31"/>
       <use xlink:href="#DejaVuSans-2e" x="63.623047"/>
       <use xlink:href="#DejaVuSans-30" x="95.410156"/>
      </g>
     </g>
    </g>
    <g id="ytick_4">
     <g id="line2d_8">
      <g>
       <use xlink:href="#m1a4f36a273" x="47.82125" y="136.694579" style="stroke: #000000; stroke-width: 0.8"/>
      </g>
     </g>
     <g id="text_9">
      <!-- 1.5 -->
      <g transform="translate(24.918125 140.493798)scale(0.1 -0.1)">
       <use xlink:href="#DejaVuSans-31"/>
       <use xlink:href="#DejaVuSans-2e" x="63.623047"/>
       <use xlink:href="#DejaVuSans-35" x="95.410156"/>
      </g>
     </g>
    </g>
    <g id="ytick_5">
     <g id="line2d_9">
      <g>
       <use xlink:href="#m1a4f36a273" x="47.82125" y="81.046105" style="stroke: #000000; stroke-width: 0.8"/>
      </g>
     </g>
     <g id="text_10">
      <!-- 2.0 -->
      <g transform="translate(24.918125 84.845324)scale(0.1 -0.1)">
       <defs>
        <path id="DejaVuSans-32" d="M 1228 531 
L 3431 531 
L 3431 0 
L 469 0 
L 469 531 
Q 828 903 1448 1529 
Q 2069 2156 2228 2338 
Q 2531 2678 2651 2914 
Q 2772 3150 2772 3378 
Q 2772 3750 2511 3984 
Q 2250 4219 1831 4219 
Q 1534 4219 1204 4116 
Q 875 4013 500 3803 
L 500 4441 
Q 881 4594 1212 4672 
Q 1544 4750 1819 4750 
Q 2544 4750 2975 4387 
Q 3406 4025 3406 3419 
Q 3406 3131 3298 2873 
Q 3191 2616 2906 2266 
Q 2828 2175 2409 1742 
Q 1991 1309 1228 531 
z
" transform="scale(0.015625)"/>
       </defs>
       <use xlink:href="#DejaVuSans-32"/>
       <use xlink:href="#DejaVuSans-2e" x="63.623047"/>
       <use xlink:href="#DejaVuSans-30" x="95.410156"/>
      </g>
     </g>
    </g>
    <g id="text_11">
     <!-- PercentGpA_transformed -->
     <g transform="translate(18.560313 237.696138)rotate(-90)scale(0.1 -0.1)">
      <defs>
       <path id="DejaVuSans-50" d="M 1259 4147 
L 1259 2394 
L 2053 2394 
Q 2494 2394 2734 2622 
Q 2975 2850 2975 3272 
Q 2975 3691 2734 3919 
Q 2494 4147 2053 4147 
L 1259 4147 
z
M 628 4666 
L 2053 4666 
Q 2838 4666 3239 4311 
Q 3641 3956 3641 3272 
Q 3641 2581 3239 2228 
Q 2838 1875 2053 1875 
L 1259 1875 
L 1259 0 
L 628 0 
L 628 4666 
z
" transform="scale(0.015625)"/>
       <path id="DejaVuSans-65" d="M 3597 1894 
L 3597 1613 
L 953 1613 
Q 991 1019 1311 708 
Q 1631 397 2203 397 
Q 2534 397 2845 478 
Q 3156 559 3463 722 
L 3463 178 
Q 3153 47 2828 -22 
Q 2503 -91 2169 -91 
Q 1331 -91 842 396 
Q 353 884 353 1716 
Q 353 2575 817 3079 
Q 1281 3584 2069 3584 
Q 2775 3584 3186 3129 
Q 3597 2675 3597 1894 
z
M 3022 2063 
Q 3016 2534 2758 2815 
Q 2500 3097 2075 3097 
Q 1594 3097 1305 2825 
Q 1016 2553 972 2059 
L 3022 2063 
z
" transform="scale(0.015625)"/>
       <path id="DejaVuSans-72" d="M 2631 2963 
Q 2534 3019 2420 3045 
Q 2306 3072 2169 3072 
Q 1681 3072 1420 2755 
Q 1159 2438 1159 1844 
L 1159 0 
L 581 0 
L 581 3500 
L 1159 3500 
L 1159 2956 
Q 1341 3275 1631 3429 
Q 1922 3584 2338 3584 
Q 2397 3584 2469 3576 
Q 2541 3569 2628 3553 
L 2631 2963 
z
" transform="scale(0.015625)"/>
       <path id="DejaVuSans-63" d="M 3122 3366 
L 3122 2828 
Q 2878 2963 2633 3030 
Q 2388 3097 2138 3097 
Q 1578 3097 1268 2742 
Q 959 2388 959 1747 
Q 959 1106 1268 751 
Q 1578 397 2138 397 
Q 2388 397 2633 464 
Q 2878 531 3122 666 
L 3122 134 
Q 2881 22 2623 -34 
Q 2366 -91 2075 -91 
Q 1284 -91 818 406 
Q 353 903 353 1747 
Q 353 2603 823 3093 
Q 1294 3584 2113 3584 
Q 2378 3584 2631 3529 
Q 2884 3475 3122 3366 
z
" transform="scale(0.015625)"/>
       <path id="DejaVuSans-6e" d="M 3513 2113 
L 3513 0 
L 2938 0 
L 2938 2094 
Q 2938 2591 2744 2837 
Q 2550 3084 2163 3084 
Q 1697 3084 1428 2787 
Q 1159 2491 1159 1978 
L 1159 0 
L 581 0 
L 581 3500 
L 1159 3500 
L 1159 2956 
Q 1366 3272 1645 3428 
Q 1925 3584 2291 3584 
Q 2894 3584 3203 3211 
Q 3513 2838 3513 2113 
z
" transform="scale(0.015625)"/>
       <path id="DejaVuSans-74" d="M 1172 4494 
L 1172 3500 
L 2356 3500 
L 2356 3053 
L 1172 3053 
L 1172 1153 
Q 1172 725 1289 603 
Q 1406 481 1766 481 
L 2356 481 
L 2356 0 
L 1766 0 
Q 1100 0 847 248 
Q 594 497 594 1153 
L 594 3053 
L 172 3053 
L 172 3500 
L 594 3500 
L 594 4494 
L 1172 4494 
z
" transform="scale(0.015625)"/>
       <path id="DejaVuSans-47" d="M 3809 666 
L 3809 1919 
L 2778 1919 
L 2778 2438 
L 4434 2438 
L 4434 434 
Q 4069 175 3628 42 
Q 3188 -91 2688 -91 
Q 1594 -91 976 548 
Q 359 1188 359 2328 
Q 359 3472 976 4111 
Q 1594 4750 2688 4750 
Q 3144 4750 3555 4637 
Q 3966 4525 4313 4306 
L 4313 3634 
Q 3963 3931 3569 4081 
Q 3175 4231 2741 4231 
Q 1884 4231 1454 3753 
Q 1025 3275 1025 2328 
Q 1025 1384 1454 906 
Q 1884 428 2741 428 
Q 3075 428 3337 486 
Q 3600 544 3809 666 
z
" transform="scale(0.015625)"/>
       <path id="DejaVuSans-70" d="M 1159 525 
L 1159 -1331 
L 581 -1331 
L 581 3500 
L 1159 3500 
L 1159 2969 
Q 1341 3281 1617 3432 
Q 1894 3584 2278 3584 
Q 2916 3584 3314 3078 
Q 3713 2572 3713 1747 
Q 3713 922 3314 415 
Q 2916 -91 2278 -91 
Q 1894 -91 1617 61 
Q 1341 213 1159 525 
z
M 3116 1747 
Q 3116 2381 2855 2742 
Q 2594 3103 2138 3103 
Q 1681 3103 1420 2742 
Q 1159 2381 1159 1747 
Q 1159 1113 1420 752 
Q 1681 391 2138 391 
Q 2594 391 2855 752 
Q 3116 1113 3116 1747 
z
" transform="scale(0.015625)"/>
       <path id="DejaVuSans-41" d="M 2188 4044 
L 1331 1722 
L 3047 1722 
L 2188 4044 
z
M 1831 4666 
L 2547 4666 
L 4325 0 
L 3669 0 
L 3244 1197 
L 1141 1197 
L 716 0 
L 50 0 
L 1831 4666 
z
" transform="scale(0.015625)"/>
       <path id="DejaVuSans-5f" d="M 3263 -1063 
L 3263 -1509 
L -63 -1509 
L -63 -1063 
L 3263 -1063 
z
" transform="scale(0.015625)"/>
       <path id="DejaVuSans-61" d="M 2194 1759 
Q 1497 1759 1228 1600 
Q 959 1441 959 1056 
Q 959 750 1161 570 
Q 1363 391 1709 391 
Q 2188 391 2477 730 
Q 2766 1069 2766 1631 
L 2766 1759 
L 2194 1759 
z
M 3341 1997 
L 3341 0 
L 2766 0 
L 2766 531 
Q 2569 213 2275 61 
Q 1981 -91 1556 -91 
Q 1019 -91 701 211 
Q 384 513 384 1019 
Q 384 1609 779 1909 
Q 1175 2209 1959 2209 
L 2766 2209 
L 2766 2266 
Q 2766 2663 2505 2880 
Q 2244 3097 1772 3097 
Q 1472 3097 1187 3025 
Q 903 2953 641 2809 
L 641 3341 
Q 956 3463 1253 3523 
Q 1550 3584 1831 3584 
Q 2591 3584 2966 3190 
Q 3341 2797 3341 1997 
z
" transform="scale(0.015625)"/>
       <path id="DejaVuSans-73" d="M 2834 3397 
L 2834 2853 
Q 2591 2978 2328 3040 
Q 2066 3103 1784 3103 
Q 1356 3103 1142 2972 
Q 928 2841 928 2578 
Q 928 2378 1081 2264 
Q 1234 2150 1697 2047 
L 1894 2003 
Q 2506 1872 2764 1633 
Q 3022 1394 3022 966 
Q 3022 478 2636 193 
Q 2250 -91 1575 -91 
Q 1294 -91 989 -36 
Q 684 19 347 128 
L 347 722 
Q 666 556 975 473 
Q 1284 391 1588 391 
Q 1994 391 2212 530 
Q 2431 669 2431 922 
Q 2431 1156 2273 1281 
Q 2116 1406 1581 1522 
L 1381 1569 
Q 847 1681 609 1914 
Q 372 2147 372 2553 
Q 372 3047 722 3315 
Q 1072 3584 1716 3584 
Q 2034 3584 2315 3537 
Q 2597 3491 2834 3397 
z
" transform="scale(0.015625)"/>
       <path id="DejaVuSans-6f" d="M 1959 3097 
Q 1497 3097 1228 2736 
Q 959 2375 959 1747 
Q 959 1119 1226 758 
Q 1494 397 1959 397 
Q 2419 397 2687 759 
Q 2956 1122 2956 1747 
Q 2956 2369 2687 2733 
Q 2419 3097 1959 3097 
z
M 1959 3584 
Q 2709 3584 3137 3096 
Q 3566 2609 3566 1747 
Q 3566 888 3137 398 
Q 2709 -91 1959 -91 
Q 1206 -91 779 398 
Q 353 888 353 1747 
Q 353 2609 779 3096 
Q 1206 3584 1959 3584 
z
" transform="scale(0.015625)"/>
       <path id="DejaVuSans-6d" d="M 3328 2828 
Q 3544 3216 3844 3400 
Q 4144 3584 4550 3584 
Q 5097 3584 5394 3201 
Q 5691 2819 5691 2113 
L 5691 0 
L 5113 0 
L 5113 2094 
Q 5113 2597 4934 2840 
Q 4756 3084 4391 3084 
Q 3944 3084 3684 2787 
Q 3425 2491 3425 1978 
L 3425 0 
L 2847 0 
L 2847 2094 
Q 2847 2600 2669 2842 
Q 2491 3084 2119 3084 
Q 1678 3084 1418 2786 
Q 1159 2488 1159 1978 
L 1159 0 
L 581 0 
L 581 3500 
L 1159 3500 
L 1159 2956 
Q 1356 3278 1631 3431 
Q 1906 3584 2284 3584 
Q 2666 3584 2933 3390 
Q 3200 3197 3328 2828 
z
" transform="scale(0.015625)"/>
       <path id="DejaVuSans-64" d="M 2906 2969 
L 2906 4863 
L 3481 4863 
L 3481 0 
L 2906 0 
L 2906 525 
Q 2725 213 2448 61 
Q 2172 -91 1784 -91 
Q 1150 -91 751 415 
Q 353 922 353 1747 
Q 353 2572 751 3078 
Q 1150 3584 1784 3584 
Q 2172 3584 2448 3432 
Q 2725 3281 2906 2969 
z
M 947 1747 
Q 947 1113 1208 752 
Q 1469 391 1925 391 
Q 2381 391 2643 752 
Q 2906 1113 2906 1747 
Q 2906 2381 2643 2742 
Q 2381 3103 1925 3103 
Q 1469 3103 1208 2742 
Q 947 2381 947 1747 
z
" transform="scale(0.015625)"/>
      </defs>
      <use xlink:href="#DejaVuSans-50"/>
      <use xlink:href="#DejaVuSans-65" x="56.677734"/>
      <use xlink:href="#DejaVuSans-72" x="118.201172"/>
      <use xlink:href="#DejaVuSans-63" x="157.064453"/>
      <use xlink:href="#DejaVuSans-65" x="212.044922"/>
      <use xlink:href="#DejaVuSans-6e" x="273.568359"/>
      <use xlink:href="#DejaVuSans-74" x="336.947266"/>
      <use xlink:href="#DejaVuSans-47" x="376.15625"/>
      <use xlink:href="#DejaVuSans-70" x="453.646484"/>
      <use xlink:href="#DejaVuSans-41" x="517.123047"/>
      <use xlink:href="#DejaVuSans-5f" x="585.53125"/>
      <use xlink:href="#DejaVuSans-74" x="635.53125"/>
      <use xlink:href="#DejaVuSans-72" x="674.740234"/>
      <use xlink:href="#DejaVuSans-61" x="715.853516"/>
      <use xlink:href="#DejaVuSans-6e" x="777.132812"/>
      <use xlink:href="#DejaVuSans-73" x="840.511719"/>
      <use xlink:href="#DejaVuSans-66" x="892.611328"/>
      <use xlink:href="#DejaVuSans-6f" x="927.816406"/>
      <use xlink:href="#DejaVuSans-72" x="988.998047"/>
      <use xlink:href="#DejaVuSans-6d" x="1028.361328"/>
      <use xlink:href="#DejaVuSans-65" x="1125.773438"/>
      <use xlink:href="#DejaVuSans-64" x="1187.296875"/>
     </g>
    </g>
   </g>
   <g id="LineCollection_1">
    <path d="M 130.592691 193.656616 
L 130.592691 193.617777 
" clip-path="url(#p2fba1f175b)" style="fill: none; stroke: #d3d3d3; stroke-width: 3"/>
    <path d="M 164.871332 153.007054 
L 164.871332 152.346699 
" clip-path="url(#p2fba1f175b)" style="fill: none; stroke: #d3d3d3; stroke-width: 3"/>
    <path d="M 160.54821 221.176181 
L 160.54821 220.843623 
" clip-path="url(#p2fba1f175b)" style="fill: none; stroke: #d3d3d3; stroke-width: 3"/>
    <path d="M 66.102102 127.954409 
L 66.102102 126.567247 
" clip-path="url(#p2fba1f175b)" style="fill: none; stroke: #d3d3d3; stroke-width: 3"/>
    <path d="M 131.528908 183.951265 
L 131.528908 182.441178 
" clip-path="url(#p2fba1f175b)" style="fill: none; stroke: #d3d3d3; stroke-width: 3"/>
    <path d="M 132.520197 194.466392 
L 132.520197 193.94838 
" clip-path="url(#p2fba1f175b)" style="fill: none; stroke: #d3d3d3; stroke-width: 3"/>
    <path d="M 99.561554 180.968958 
L 99.561554 180.601813 
" clip-path="url(#p2fba1f175b)" style="fill: none; stroke: #d3d3d3; stroke-width: 3"/>
    <path d="M 157.631135 173.969987 
L 157.631135 173.818292 
" clip-path="url(#p2fba1f175b)" style="fill: none; stroke: #d3d3d3; stroke-width: 3"/>
    <path d="M 105.52994 216.934501 
L 105.52994 216.093438 
" clip-path="url(#p2fba1f175b)" style="fill: none; stroke: #d3d3d3; stroke-width: 3"/>
    <path d="M 205.589912 174.137204 
L 205.589912 173.723473 
" clip-path="url(#p2fba1f175b)" style="fill: none; stroke: #d3d3d3; stroke-width: 3"/>
    <path d="M 172.362794 221.451618 
L 172.362794 221.344656 
" clip-path="url(#p2fba1f175b)" style="fill: none; stroke: #d3d3d3; stroke-width: 3"/>
    <path d="M 149.798918 212.619747 
L 149.798918 212.001154 
" clip-path="url(#p2fba1f175b)" style="fill: none; stroke: #d3d3d3; stroke-width: 3"/>
    <path d="M 186.147909 144.866014 
L 186.147909 143.886008 
" clip-path="url(#p2fba1f175b)" style="fill: none; stroke: #d3d3d3; stroke-width: 3"/>
    <path d="M 101.896935 218.289717 
L 101.896935 218.122988 
" clip-path="url(#p2fba1f175b)" style="fill: none; stroke: #d3d3d3; stroke-width: 3"/>
    <path d="M 217.296073 174.578778 
L 217.296073 174.272322 
" clip-path="url(#p2fba1f175b)" style="fill: none; stroke: #d3d3d3; stroke-width: 3"/>
    <path d="M 192.732409 249.114723 
L 192.732409 249.056413 
" clip-path="url(#p2fba1f175b)" style="fill: none; stroke: #d3d3d3; stroke-width: 3"/>
    <path d="M 214.313601 217.120147 
L 214.313601 216.896798 
" clip-path="url(#p2fba1f175b)" style="fill: none; stroke: #d3d3d3; stroke-width: 3"/>
    <path d="M 236.732913 210.263014 
L 236.732913 209.537261 
" clip-path="url(#p2fba1f175b)" style="fill: none; stroke: #d3d3d3; stroke-width: 3"/>
    <path d="M 256.016585 257.423597 
L 256.016585 257.193205 
" clip-path="url(#p2fba1f175b)" style="fill: none; stroke: #d3d3d3; stroke-width: 3"/>
    <path d="M 188.405845 60.66171 
L 188.405845 58.777245 
" clip-path="url(#p2fba1f175b)" style="fill: none; stroke: #d3d3d3; stroke-width: 3"/>
    <path d="M 163.571986 202.690384 
L 163.571986 202.2772 
" clip-path="url(#p2fba1f175b)" style="fill: none; stroke: #d3d3d3; stroke-width: 3"/>
    <path d="M 265.838264 241.987197 
L 265.838264 241.873542 
" clip-path="url(#p2fba1f175b)" style="fill: none; stroke: #d3d3d3; stroke-width: 3"/>
    <path d="M 168.187676 277.283027 
L 168.187676 277.110467 
" clip-path="url(#p2fba1f175b)" style="fill: none; stroke: #d3d3d3; stroke-width: 3"/>
    <path d="M 271.710276 251.011905 
L 271.710276 250.235135 
" clip-path="url(#p2fba1f175b)" style="fill: none; stroke: #d3d3d3; stroke-width: 3"/>
    <path d="M 264.769531 275.279172 
L 264.769531 274.982157 
" clip-path="url(#p2fba1f175b)" style="fill: none; stroke: #d3d3d3; stroke-width: 3"/>
    <path d="M 320.224931 258.542574 
L 320.224931 258.176177 
" clip-path="url(#p2fba1f175b)" style="fill: none; stroke: #d3d3d3; stroke-width: 3"/>
    <path d="M 333.314767 124.243079 
L 333.314767 124.034712 
" clip-path="url(#p2fba1f175b)" style="fill: none; stroke: #d3d3d3; stroke-width: 3"/>
    <path d="M 330.552581 300.807861 
L 330.552581 300.041286 
" clip-path="url(#p2fba1f175b)" style="fill: none; stroke: #d3d3d3; stroke-width: 3"/>
    <path d="M 363.814119 93.346305 
L 363.814119 91.362123 
" clip-path="url(#p2fba1f175b)" style="fill: none; stroke: #d3d3d3; stroke-width: 3"/>
    <path d="M 395.072426 271.600531 
L 395.072426 271.386988 
" clip-path="url(#p2fba1f175b)" style="fill: none; stroke: #d3d3d3; stroke-width: 3"/>
    <path d="M 393.680147 282.623442 
L 393.680147 282.438057 
" clip-path="url(#p2fba1f175b)" style="fill: none; stroke: #d3d3d3; stroke-width: 3"/>
    <path d="M 427.685152 249.390899 
L 427.685152 249.175482 
" clip-path="url(#p2fba1f175b)" style="fill: none; stroke: #d3d3d3; stroke-width: 3"/>
    <path d="M 411.752243 250.486359 
L 411.752243 250.233369 
" clip-path="url(#p2fba1f175b)" style="fill: none; stroke: #d3d3d3; stroke-width: 3"/>
    <path d="M 431.719148 248.176316 
L 431.719148 247.95512 
" clip-path="url(#p2fba1f175b)" style="fill: none; stroke: #d3d3d3; stroke-width: 3"/>
   </g>
   <g id="line2d_10">
    <path d="M 130.592691 189.444051 
L 164.871332 196.195519 
L 160.54821 195.344044 
L 66.102102 176.742084 
L 131.528908 189.628447 
L 132.520197 189.82369 
L 99.561554 183.332206 
L 157.631135 194.769501 
L 105.52994 184.50773 
L 205.589912 204.215388 
L 172.362794 197.671026 
L 149.798918 193.22688 
L 186.147909 200.386121 
L 101.896935 183.792179 
L 217.296073 206.521015 
L 192.732409 201.682994 
L 214.313601 205.933592 
L 236.732913 210.349265 
L 256.016585 214.147348 
L 188.405845 200.830841 
L 163.571986 195.939602 
L 265.838264 216.08181 
L 168.187676 196.848701 
L 271.710276 217.238353 
L 264.769531 215.871314 
L 320.224931 226.793724 
L 333.314767 229.371878 
L 330.552581 228.827842 
L 363.814119 235.378984 
L 395.072426 241.535572 
L 393.680147 241.26135 
L 427.685152 247.958924 
L 411.752243 244.820803 
L 431.719148 248.753453 
" clip-path="url(#p2fba1f175b)" style="fill: none; stroke: #1f77b4; stroke-width: 1.5; stroke-linecap: square"/>
   </g>
   <g id="line2d_11">
    <defs>
     <path id="m9016d59544" d="M 0 3 
C 0.795609 3 1.55874 2.683901 2.12132 2.12132 
C 2.683901 1.55874 3 0.795609 3 0 
C 3 -0.795609 2.683901 -1.55874 2.12132 -2.12132 
C 1.55874 -2.683901 0.795609 -3 0 -3 
C -0.795609 -3 -1.55874 -2.683901 -2.12132 -2.12132 
C -2.683901 -1.55874 -3 -0.795609 -3 0 
C -3 0.795609 -2.683901 1.55874 -2.12132 2.12132 
C -1.55874 2.683901 -0.795609 3 0 3 
z
" style="stroke: #000000"/>
    </defs>
    <g clip-path="url(#p2fba1f175b)">
     <use xlink:href="#m9016d59544" x="130.592691" y="193.637196" style="stroke: #000000"/>
     <use xlink:href="#m9016d59544" x="164.871332" y="152.676876" style="stroke: #000000"/>
     <use xlink:href="#m9016d59544" x="160.54821" y="221.009902" style="stroke: #000000"/>
     <use xlink:href="#m9016d59544" x="66.102102" y="127.260828" style="stroke: #000000"/>
     <use xlink:href="#m9016d59544" x="131.528908" y="183.196221" style="stroke: #000000"/>
     <use xlink:href="#m9016d59544" x="132.520197" y="194.207386" style="stroke: #000000"/>
     <use xlink:href="#m9016d59544" x="99.561554" y="180.785386" style="stroke: #000000"/>
     <use xlink:href="#m9016d59544" x="157.631135" y="173.89414" style="stroke: #000000"/>
     <use xlink:href="#m9016d59544" x="105.52994" y="216.513969" style="stroke: #000000"/>
     <use xlink:href="#m9016d59544" x="205.589912" y="173.930338" style="stroke: #000000"/>
     <use xlink:href="#m9016d59544" x="172.362794" y="221.398137" style="stroke: #000000"/>
     <use xlink:href="#m9016d59544" x="149.798918" y="212.31045" style="stroke: #000000"/>
     <use xlink:href="#m9016d59544" x="186.147909" y="144.376011" style="stroke: #000000"/>
     <use xlink:href="#m9016d59544" x="101.896935" y="218.206352" style="stroke: #000000"/>
     <use xlink:href="#m9016d59544" x="217.296073" y="174.42555" style="stroke: #000000"/>
     <use xlink:href="#m9016d59544" x="192.732409" y="249.085568" style="stroke: #000000"/>
     <use xlink:href="#m9016d59544" x="214.313601" y="217.008472" style="stroke: #000000"/>
     <use xlink:href="#m9016d59544" x="236.732913" y="209.900138" style="stroke: #000000"/>
     <use xlink:href="#m9016d59544" x="256.016585" y="257.308401" style="stroke: #000000"/>
     <use xlink:href="#m9016d59544" x="188.405845" y="59.719478" style="stroke: #000000"/>
     <use xlink:href="#m9016d59544" x="163.571986" y="202.483792" style="stroke: #000000"/>
     <use xlink:href="#m9016d59544" x="265.838264" y="241.93037" style="stroke: #000000"/>
     <use xlink:href="#m9016d59544" x="168.187676" y="277.196747" style="stroke: #000000"/>
     <use xlink:href="#m9016d59544" x="271.710276" y="250.62352" style="stroke: #000000"/>
     <use xlink:href="#m9016d59544" x="264.769531" y="275.130665" style="stroke: #000000"/>
     <use xlink:href="#m9016d59544" x="320.224931" y="258.359376" style="stroke: #000000"/>
     <use xlink:href="#m9016d59544" x="333.314767" y="124.138895" style="stroke: #000000"/>
     <use xlink:href="#m9016d59544" x="330.552581" y="300.424574" style="stroke: #000000"/>
     <use xlink:href="#m9016d59544" x="363.814119" y="92.354214" style="stroke: #000000"/>
     <use xlink:href="#m9016d59544" x="395.072426" y="271.49376" style="stroke: #000000"/>
     <use xlink:href="#m9016d59544" x="393.680147" y="282.53075" style="stroke: #000000"/>
     <use xlink:href="#m9016d59544" x="427.685152" y="249.283191" style="stroke: #000000"/>
     <use xlink:href="#m9016d59544" x="411.752243" y="250.359864" style="stroke: #000000"/>
     <use xlink:href="#m9016d59544" x="431.719148" y="248.065718" style="stroke: #000000"/>
    </g>
   </g>
   <g id="patch_3">
    <path d="M 47.82125 303.64 
L 47.82125 46.675714 
" style="fill: none; stroke: #000000; stroke-width: 0.8; stroke-linejoin: miter; stroke-linecap: square"/>
   </g>
   <g id="patch_4">
    <path d="M 450 303.64 
L 450 46.675714 
" style="fill: none; stroke: #000000; stroke-width: 0.8; stroke-linejoin: miter; stroke-linecap: square"/>
   </g>
   <g id="patch_5">
    <path d="M 47.82125 303.64 
L 450 303.64 
" style="fill: none; stroke: #000000; stroke-width: 0.8; stroke-linejoin: miter; stroke-linecap: square"/>
   </g>
   <g id="patch_6">
    <path d="M 47.82125 46.675714 
L 450 46.675714 
" style="fill: none; stroke: #000000; stroke-width: 0.8; stroke-linejoin: miter; stroke-linecap: square"/>
   </g>
   <g id="text_12">
    <!-- y = -0.03x + -0.34 -->
    <g transform="translate(41.511 18.599375)scale(0.1 -0.1)">
     <defs>
      <path id="DejaVuSans-79" d="M 2059 -325 
Q 1816 -950 1584 -1140 
Q 1353 -1331 966 -1331 
L 506 -1331 
L 506 -850 
L 844 -850 
Q 1081 -850 1212 -737 
Q 1344 -625 1503 -206 
L 1606 56 
L 191 3500 
L 800 3500 
L 1894 763 
L 2988 3500 
L 3597 3500 
L 2059 -325 
z
" transform="scale(0.015625)"/>
      <path id="DejaVuSans-20" transform="scale(0.015625)"/>
      <path id="DejaVuSans-3d" d="M 678 2906 
L 4684 2906 
L 4684 2381 
L 678 2381 
L 678 2906 
z
M 678 1631 
L 4684 1631 
L 4684 1100 
L 678 1100 
L 678 1631 
z
" transform="scale(0.015625)"/>
      <path id="DejaVuSans-2d" d="M 313 2009 
L 1997 2009 
L 1997 1497 
L 313 1497 
L 313 2009 
z
" transform="scale(0.015625)"/>
      <path id="DejaVuSans-78" d="M 3513 3500 
L 2247 1797 
L 3578 0 
L 2900 0 
L 1881 1375 
L 863 0 
L 184 0 
L 1544 1831 
L 300 3500 
L 978 3500 
L 1906 2253 
L 2834 3500 
L 3513 3500 
z
" transform="scale(0.015625)"/>
      <path id="DejaVuSans-2b" d="M 2944 4013 
L 2944 2272 
L 4684 2272 
L 4684 1741 
L 2944 1741 
L 2944 0 
L 2419 0 
L 2419 1741 
L 678 1741 
L 678 2272 
L 2419 2272 
L 2419 4013 
L 2944 4013 
z
" transform="scale(0.015625)"/>
     </defs>
     <use xlink:href="#DejaVuSans-79"/>
     <use xlink:href="#DejaVuSans-20" x="59.179688"/>
     <use xlink:href="#DejaVuSans-3d" x="90.966797"/>
     <use xlink:href="#DejaVuSans-20" x="174.755859"/>
     <use xlink:href="#DejaVuSans-2d" x="206.542969"/>
     <use xlink:href="#DejaVuSans-30" x="242.626953"/>
     <use xlink:href="#DejaVuSans-2e" x="306.25"/>
     <use xlink:href="#DejaVuSans-30" x="338.037109"/>
     <use xlink:href="#DejaVuSans-33" x="401.660156"/>
     <use xlink:href="#DejaVuSans-78" x="465.283203"/>
     <use xlink:href="#DejaVuSans-20" x="524.462891"/>
     <use xlink:href="#DejaVuSans-2b" x="556.25"/>
     <use xlink:href="#DejaVuSans-20" x="640.039062"/>
     <use xlink:href="#DejaVuSans-2d" x="671.826172"/>
     <use xlink:href="#DejaVuSans-30" x="707.910156"/>
     <use xlink:href="#DejaVuSans-2e" x="771.533203"/>
     <use xlink:href="#DejaVuSans-33" x="803.320312"/>
     <use xlink:href="#DejaVuSans-34" x="866.943359"/>
    </g>
   </g>
   <g id="text_13">
    <!-- r^2 = 0.13 -->
    <g transform="translate(60.111781 26.308304)scale(0.1 -0.1)">
     <defs>
      <path id="DejaVuSans-5e" d="M 2988 4666 
L 4684 2925 
L 4056 2925 
L 2681 4159 
L 1306 2925 
L 678 2925 
L 2375 4666 
L 2988 4666 
z
" transform="scale(0.015625)"/>
     </defs>
     <use xlink:href="#DejaVuSans-72"/>
     <use xlink:href="#DejaVuSans-5e" x="41.113281"/>
     <use xlink:href="#DejaVuSans-32" x="124.902344"/>
     <use xlink:href="#DejaVuSans-20" x="188.525391"/>
     <use xlink:href="#DejaVuSans-3d" x="220.3125"/>
     <use xlink:href="#DejaVuSans-20" x="304.101562"/>
     <use xlink:href="#DejaVuSans-30" x="335.888672"/>
     <use xlink:href="#DejaVuSans-2e" x="399.511719"/>
     <use xlink:href="#DejaVuSans-31" x="431.298828"/>
     <use xlink:href="#DejaVuSans-33" x="494.921875"/>
    </g>
   </g>
   <g id="text_14">
    <!-- n = 34 -->
    <g transform="translate(71.139906 34.017232)scale(0.1 -0.1)">
     <use xlink:href="#DejaVuSans-6e"/>
     <use xlink:href="#DejaVuSans-20" x="63.378906"/>
     <use xlink:href="#DejaVuSans-3d" x="95.166016"/>
     <use xlink:href="#DejaVuSans-20" x="178.955078"/>
     <use xlink:href="#DejaVuSans-33" x="210.742188"/>
     <use xlink:href="#DejaVuSans-34" x="274.365234"/>
    </g>
   </g>
   <g id="text_15">
    <!-- VDWDiff vs PercentGpA_transformed -->
    <g transform="translate(138.205937 40.675714)scale(0.12 -0.12)">
     <defs>
      <path id="DejaVuSans-76" d="M 191 3500 
L 800 3500 
L 1894 563 
L 2988 3500 
L 3597 3500 
L 2284 0 
L 1503 0 
L 191 3500 
z
" transform="scale(0.015625)"/>
     </defs>
     <use xlink:href="#DejaVuSans-56"/>
     <use xlink:href="#DejaVuSans-44" x="68.408203"/>
     <use xlink:href="#DejaVuSans-57" x="145.410156"/>
     <use xlink:href="#DejaVuSans-44" x="244.287109"/>
     <use xlink:href="#DejaVuSans-69" x="321.289062"/>
     <use xlink:href="#DejaVuSans-66" x="349.072266"/>
     <use xlink:href="#DejaVuSans-66" x="384.277344"/>
     <use xlink:href="#DejaVuSans-20" x="419.482422"/>
     <use xlink:href="#DejaVuSans-76" x="451.269531"/>
     <use xlink:href="#DejaVuSans-73" x="510.449219"/>
     <use xlink:href="#DejaVuSans-20" x="562.548828"/>
     <use xlink:href="#DejaVuSans-50" x="594.335938"/>
     <use xlink:href="#DejaVuSans-65" x="651.013672"/>
     <use xlink:href="#DejaVuSans-72" x="712.537109"/>
     <use xlink:href="#DejaVuSans-63" x="751.400391"/>
     <use xlink:href="#DejaVuSans-65" x="806.380859"/>
     <use xlink:href="#DejaVuSans-6e" x="867.904297"/>
     <use xlink:href="#DejaVuSans-74" x="931.283203"/>
     <use xlink:href="#DejaVuSans-47" x="970.492188"/>
     <use xlink:href="#DejaVuSans-70" x="1047.982422"/>
     <use xlink:href="#DejaVuSans-41" x="1111.458984"/>
     <use xlink:href="#DejaVuSans-5f" x="1179.867188"/>
     <use xlink:href="#DejaVuSans-74" x="1229.867188"/>
     <use xlink:href="#DejaVuSans-72" x="1269.076172"/>
     <use xlink:href="#DejaVuSans-61" x="1310.189453"/>
     <use xlink:href="#DejaVuSans-6e" x="1371.46875"/>
     <use xlink:href="#DejaVuSans-73" x="1434.847656"/>
     <use xlink:href="#DejaVuSans-66" x="1486.947266"/>
     <use xlink:href="#DejaVuSans-6f" x="1522.152344"/>
     <use xlink:href="#DejaVuSans-72" x="1583.333984"/>
     <use xlink:href="#DejaVuSans-6d" x="1622.697266"/>
     <use xlink:href="#DejaVuSans-65" x="1720.109375"/>
     <use xlink:href="#DejaVuSans-64" x="1781.632812"/>
    </g>
   </g>
  </g>
 </g>
 <defs>
  <clipPath id="p2fba1f175b">
   <rect x="47.82125" y="46.675714" width="402.17875" height="256.964286"/>
  </clipPath>
 </defs>
</svg>
