<?xml version="1.0" encoding="utf-8" standalone="no"?>
<!DOCTYPE svg PUBLIC "-//W3C//DTD SVG 1.1//EN"
  "http://www.w3.org/Graphics/SVG/1.1/DTD/svg11.dtd">
<svg xmlns:xlink="http://www.w3.org/1999/xlink" width="460.8pt" height="345.6pt" viewBox="0 0 460.8 345.6" xmlns="http://www.w3.org/2000/svg" version="1.1">
 <metadata>
  <rdf:RDF xmlns:dc="http://purl.org/dc/elements/1.1/" xmlns:cc="http://creativecommons.org/ns#" xmlns:rdf="http://www.w3.org/1999/02/22-rdf-syntax-ns#">
   <cc:Work>
    <dc:type rdf:resource="http://purl.org/dc/dcmitype/StillImage"/>
    <dc:date>2023-12-16T14:37:50.571822</dc:date>
    <dc:format>image/svg+xml</dc:format>
    <dc:creator>
     <cc:Agent>
      <dc:title>Matplotlib v3.5.3, https://matplotlib.org/</dc:title>
     </cc:Agent>
    </dc:creator>
   </cc:Work>
  </rdf:RDF>
 </metadata>
 <defs>
  <style type="text/css">*{stroke-linejoin: round; stroke-linecap: butt}</style>
 </defs>
 <g id="figure_1">
  <g id="patch_1">
   <path d="M 0 345.6 
L 460.8 345.6 
L 460.8 0 
L 0 0 
z
" style="fill: #ffffff"/>
  </g>
  <g id="axes_1">
   <g id="patch_2">
    <path d="M 62.39 303.64 
L 450 303.64 
L 450 105.2064 
L 62.39 105.2064 
z
" style="fill: #ffffff"/>
   </g>
   <g id="matplotlib.axis_1">
    <g id="xtick_1">
     <g id="text_1">
      <!-- G -->
      <g style="fill: #262626" transform="translate(252.320781 318.238437)scale(0.1 -0.1)">
       <defs>
        <path id="DejaVuSans-47" d="M 3809 666 
L 3809 1919 
L 2778 1919 
L 2778 2438 
L 4434 2438 
L 4434 434 
Q 4069 175 3628 42 
Q 3188 -91 2688 -91 
Q 1594 -91 976 548 
Q 359 1188 359 2328 
Q 359 3472 976 4111 
Q 1594 4750 2688 4750 
Q 3144 4750 3555 4637 
Q 3966 4525 4313 4306 
L 4313 3634 
Q 3963 3931 3569 4081 
Q 3175 4231 2741 4231 
Q 1884 4231 1454 3753 
Q 1025 3275 1025 2328 
Q 1025 1384 1454 906 
Q 1884 428 2741 428 
Q 3075 428 3337 486 
Q 3600 544 3809 666 
z
" transform="scale(0.015625)"/>
       </defs>
       <use xlink:href="#DejaVuSans-47"/>
      </g>
     </g>
    </g>
    <g id="text_2">
     <!-- Sample -->
     <g style="fill: #262626" transform="translate(237.446563 331.916562)scale(0.1 -0.1)">
      <defs>
       <path id="DejaVuSans-53" d="M 3425 4513 
L 3425 3897 
Q 3066 4069 2747 4153 
Q 2428 4238 2131 4238 
Q 1616 4238 1336 4038 
Q 1056 3838 1056 3469 
Q 1056 3159 1242 3001 
Q 1428 2844 1947 2747 
L 2328 2669 
Q 3034 2534 3370 2195 
Q 3706 1856 3706 1288 
Q 3706 609 3251 259 
Q 2797 -91 1919 -91 
Q 1588 -91 1214 -16 
Q 841 59 441 206 
L 441 856 
Q 825 641 1194 531 
Q 1563 422 1919 422 
Q 2459 422 2753 634 
Q 3047 847 3047 1241 
Q 3047 1584 2836 1778 
Q 2625 1972 2144 2069 
L 1759 2144 
Q 1053 2284 737 2584 
Q 422 2884 422 3419 
Q 422 4038 858 4394 
Q 1294 4750 2059 4750 
Q 2388 4750 2728 4690 
Q 3069 4631 3425 4513 
z
" transform="scale(0.015625)"/>
       <path id="DejaVuSans-61" d="M 2194 1759 
Q 1497 1759 1228 1600 
Q 959 1441 959 1056 
Q 959 750 1161 570 
Q 1363 391 1709 391 
Q 2188 391 2477 730 
Q 2766 1069 2766 1631 
L 2766 1759 
L 2194 1759 
z
M 3341 1997 
L 3341 0 
L 2766 0 
L 2766 531 
Q 2569 213 2275 61 
Q 1981 -91 1556 -91 
Q 1019 -91 701 211 
Q 384 513 384 1019 
Q 384 1609 779 1909 
Q 1175 2209 1959 2209 
L 2766 2209 
L 2766 2266 
Q 2766 2663 2505 2880 
Q 2244 3097 1772 3097 
Q 1472 3097 1187 3025 
Q 903 2953 641 2809 
L 641 3341 
Q 956 3463 1253 3523 
Q 1550 3584 1831 3584 
Q 2591 3584 2966 3190 
Q 3341 2797 3341 1997 
z
" transform="scale(0.015625)"/>
       <path id="DejaVuSans-6d" d="M 3328 2828 
Q 3544 3216 3844 3400 
Q 4144 3584 4550 3584 
Q 5097 3584 5394 3201 
Q 5691 2819 5691 2113 
L 5691 0 
L 5113 0 
L 5113 2094 
Q 5113 2597 4934 2840 
Q 4756 3084 4391 3084 
Q 3944 3084 3684 2787 
Q 3425 2491 3425 1978 
L 3425 0 
L 2847 0 
L 2847 2094 
Q 2847 2600 2669 2842 
Q 2491 3084 2119 3084 
Q 1678 3084 1418 2786 
Q 1159 2488 1159 1978 
L 1159 0 
L 581 0 
L 581 3500 
L 1159 3500 
L 1159 2956 
Q 1356 3278 1631 3431 
Q 1906 3584 2284 3584 
Q 2666 3584 2933 3390 
Q 3200 3197 3328 2828 
z
" transform="scale(0.015625)"/>
       <path id="DejaVuSans-70" d="M 1159 525 
L 1159 -1331 
L 581 -1331 
L 581 3500 
L 1159 3500 
L 1159 2969 
Q 1341 3281 1617 3432 
Q 1894 3584 2278 3584 
Q 2916 3584 3314 3078 
Q 3713 2572 3713 1747 
Q 3713 922 3314 415 
Q 2916 -91 2278 -91 
Q 1894 -91 1617 61 
Q 1341 213 1159 525 
z
M 3116 1747 
Q 3116 2381 2855 2742 
Q 2594 3103 2138 3103 
Q 1681 3103 1420 2742 
Q 1159 2381 1159 1747 
Q 1159 1113 1420 752 
Q 1681 391 2138 391 
Q 2594 391 2855 752 
Q 3116 1113 3116 1747 
z
" transform="scale(0.015625)"/>
       <path id="DejaVuSans-6c" d="M 603 4863 
L 1178 4863 
L 1178 0 
L 603 0 
L 603 4863 
z
" transform="scale(0.015625)"/>
       <path id="DejaVuSans-65" d="M 3597 1894 
L 3597 1613 
L 953 1613 
Q 991 1019 1311 708 
Q 1631 397 2203 397 
Q 2534 397 2845 478 
Q 3156 559 3463 722 
L 3463 178 
Q 3153 47 2828 -22 
Q 2503 -91 2169 -91 
Q 1331 -91 842 396 
Q 353 884 353 1716 
Q 353 2575 817 3079 
Q 1281 3584 2069 3584 
Q 2775 3584 3186 3129 
Q 3597 2675 3597 1894 
z
M 3022 2063 
Q 3016 2534 2758 2815 
Q 2500 3097 2075 3097 
Q 1594 3097 1305 2825 
Q 1016 2553 972 2059 
L 3022 2063 
z
" transform="scale(0.015625)"/>
      </defs>
      <use xlink:href="#DejaVuSans-53"/>
      <use xlink:href="#DejaVuSans-61" x="63.476562"/>
      <use xlink:href="#DejaVuSans-6d" x="124.755859"/>
      <use xlink:href="#DejaVuSans-70" x="222.167969"/>
      <use xlink:href="#DejaVuSans-6c" x="285.644531"/>
      <use xlink:href="#DejaVuSans-65" x="313.427734"/>
     </g>
    </g>
   </g>
   <g id="matplotlib.axis_2">
    <g id="ytick_1">
     <g id="line2d_1">
      <path d="M 62.39 303.64 
L 450 303.64 
" clip-path="url(#pcbf48fc90c)" style="fill: none; stroke: #cccccc; stroke-width: 0.8; stroke-linecap: round"/>
     </g>
     <g id="text_3">
      <!-- −1.00 -->
      <g style="fill: #262626" transform="translate(24.744688 307.439219)scale(0.1 -0.1)">
       <defs>
        <path id="DejaVuSans-2212" d="M 678 2272 
L 4684 2272 
L 4684 1741 
L 678 1741 
L 678 2272 
z
" transform="scale(0.015625)"/>
        <path id="DejaVuSans-31" d="M 794 531 
L 1825 531 
L 1825 4091 
L 703 3866 
L 703 4441 
L 1819 4666 
L 2450 4666 
L 2450 531 
L 3481 531 
L 3481 0 
L 794 0 
L 794 531 
z
" transform="scale(0.015625)"/>
        <path id="DejaVuSans-2e" d="M 684 794 
L 1344 794 
L 1344 0 
L 684 0 
L 684 794 
z
" transform="scale(0.015625)"/>
        <path id="DejaVuSans-30" d="M 2034 4250 
Q 1547 4250 1301 3770 
Q 1056 3291 1056 2328 
Q 1056 1369 1301 889 
Q 1547 409 2034 409 
Q 2525 409 2770 889 
Q 3016 1369 3016 2328 
Q 3016 3291 2770 3770 
Q 2525 4250 2034 4250 
z
M 2034 4750 
Q 2819 4750 3233 4129 
Q 3647 3509 3647 2328 
Q 3647 1150 3233 529 
Q 2819 -91 2034 -91 
Q 1250 -91 836 529 
Q 422 1150 422 2328 
Q 422 3509 836 4129 
Q 1250 4750 2034 4750 
z
" transform="scale(0.015625)"/>
       </defs>
       <use xlink:href="#DejaVuSans-2212"/>
       <use xlink:href="#DejaVuSans-31" x="83.789062"/>
       <use xlink:href="#DejaVuSans-2e" x="147.412109"/>
       <use xlink:href="#DejaVuSans-30" x="179.199219"/>
       <use xlink:href="#DejaVuSans-30" x="242.822266"/>
      </g>
     </g>
    </g>
    <g id="ytick_2">
     <g id="line2d_2">
      <path d="M 62.39 278.8358 
L 450 278.8358 
" clip-path="url(#pcbf48fc90c)" style="fill: none; stroke: #cccccc; stroke-width: 0.8; stroke-linecap: round"/>
     </g>
     <g id="text_4">
      <!-- −0.75 -->
      <g style="fill: #262626" transform="translate(24.744688 282.635019)scale(0.1 -0.1)">
       <defs>
        <path id="DejaVuSans-37" d="M 525 4666 
L 3525 4666 
L 3525 4397 
L 1831 0 
L 1172 0 
L 2766 4134 
L 525 4134 
L 525 4666 
z
" transform="scale(0.015625)"/>
        <path id="DejaVuSans-35" d="M 691 4666 
L 3169 4666 
L 3169 4134 
L 1269 4134 
L 1269 2991 
Q 1406 3038 1543 3061 
Q 1681 3084 1819 3084 
Q 2600 3084 3056 2656 
Q 3513 2228 3513 1497 
Q 3513 744 3044 326 
Q 2575 -91 1722 -91 
Q 1428 -91 1123 -41 
Q 819 9 494 109 
L 494 744 
Q 775 591 1075 516 
Q 1375 441 1709 441 
Q 2250 441 2565 725 
Q 2881 1009 2881 1497 
Q 2881 1984 2565 2268 
Q 2250 2553 1709 2553 
Q 1456 2553 1204 2497 
Q 953 2441 691 2322 
L 691 4666 
z
" transform="scale(0.015625)"/>
       </defs>
       <use xlink:href="#DejaVuSans-2212"/>
       <use xlink:href="#DejaVuSans-30" x="83.789062"/>
       <use xlink:href="#DejaVuSans-2e" x="147.412109"/>
       <use xlink:href="#DejaVuSans-37" x="179.199219"/>
       <use xlink:href="#DejaVuSans-35" x="242.822266"/>
      </g>
     </g>
    </g>
    <g id="ytick_3">
     <g id="line2d_3">
      <path d="M 62.39 254.0316 
L 450 254.0316 
" clip-path="url(#pcbf48fc90c)" style="fill: none; stroke: #cccccc; stroke-width: 0.8; stroke-linecap: round"/>
     </g>
     <g id="text_5">
      <!-- −0.50 -->
      <g style="fill: #262626" transform="translate(24.744688 257.830819)scale(0.1 -0.1)">
       <use xlink:href="#DejaVuSans-2212"/>
       <use xlink:href="#DejaVuSans-30" x="83.789062"/>
       <use xlink:href="#DejaVuSans-2e" x="147.412109"/>
       <use xlink:href="#DejaVuSans-35" x="179.199219"/>
       <use xlink:href="#DejaVuSans-30" x="242.822266"/>
      </g>
     </g>
    </g>
    <g id="ytick_4">
     <g id="line2d_4">
      <path d="M 62.39 229.2274 
L 450 229.2274 
" clip-path="url(#pcbf48fc90c)" style="fill: none; stroke: #cccccc; stroke-width: 0.8; stroke-linecap: round"/>
     </g>
     <g id="text_6">
      <!-- −0.25 -->
      <g style="fill: #262626" transform="translate(24.744688 233.026619)scale(0.1 -0.1)">
       <defs>
        <path id="DejaVuSans-32" d="M 1228 531 
L 3431 531 
L 3431 0 
L 469 0 
L 469 531 
Q 828 903 1448 1529 
Q 2069 2156 2228 2338 
Q 2531 2678 2651 2914 
Q 2772 3150 2772 3378 
Q 2772 3750 2511 3984 
Q 2250 4219 1831 4219 
Q 1534 4219 1204 4116 
Q 875 4013 500 3803 
L 500 4441 
Q 881 4594 1212 4672 
Q 1544 4750 1819 4750 
Q 2544 4750 2975 4387 
Q 3406 4025 3406 3419 
Q 3406 3131 3298 2873 
Q 3191 2616 2906 2266 
Q 2828 2175 2409 1742 
Q 1991 1309 1228 531 
z
" transform="scale(0.015625)"/>
       </defs>
       <use xlink:href="#DejaVuSans-2212"/>
       <use xlink:href="#DejaVuSans-30" x="83.789062"/>
       <use xlink:href="#DejaVuSans-2e" x="147.412109"/>
       <use xlink:href="#DejaVuSans-32" x="179.199219"/>
       <use xlink:href="#DejaVuSans-35" x="242.822266"/>
      </g>
     </g>
    </g>
    <g id="ytick_5">
     <g id="line2d_5">
      <path d="M 62.39 204.4232 
L 450 204.4232 
" clip-path="url(#pcbf48fc90c)" style="fill: none; stroke: #cccccc; stroke-width: 0.8; stroke-linecap: round"/>
     </g>
     <g id="text_7">
      <!-- 0.00 -->
      <g style="fill: #262626" transform="translate(33.124375 208.222419)scale(0.1 -0.1)">
       <use xlink:href="#DejaVuSans-30"/>
       <use xlink:href="#DejaVuSans-2e" x="63.623047"/>
       <use xlink:href="#DejaVuSans-30" x="95.410156"/>
       <use xlink:href="#DejaVuSans-30" x="159.033203"/>
      </g>
     </g>
    </g>
    <g id="ytick_6">
     <g id="line2d_6">
      <path d="M 62.39 179.619 
L 450 179.619 
" clip-path="url(#pcbf48fc90c)" style="fill: none; stroke: #cccccc; stroke-width: 0.8; stroke-linecap: round"/>
     </g>
     <g id="text_8">
      <!-- 0.25 -->
      <g style="fill: #262626" transform="translate(33.124375 183.418219)scale(0.1 -0.1)">
       <use xlink:href="#DejaVuSans-30"/>
       <use xlink:href="#DejaVuSans-2e" x="63.623047"/>
       <use xlink:href="#DejaVuSans-32" x="95.410156"/>
       <use xlink:href="#DejaVuSans-35" x="159.033203"/>
      </g>
     </g>
    </g>
    <g id="ytick_7">
     <g id="line2d_7">
      <path d="M 62.39 154.8148 
L 450 154.8148 
" clip-path="url(#pcbf48fc90c)" style="fill: none; stroke: #cccccc; stroke-width: 0.8; stroke-linecap: round"/>
     </g>
     <g id="text_9">
      <!-- 0.50 -->
      <g style="fill: #262626" transform="translate(33.124375 158.614019)scale(0.1 -0.1)">
       <use xlink:href="#DejaVuSans-30"/>
       <use xlink:href="#DejaVuSans-2e" x="63.623047"/>
       <use xlink:href="#DejaVuSans-35" x="95.410156"/>
       <use xlink:href="#DejaVuSans-30" x="159.033203"/>
      </g>
     </g>
    </g>
    <g id="ytick_8">
     <g id="line2d_8">
      <path d="M 62.39 130.0106 
L 450 130.0106 
" clip-path="url(#pcbf48fc90c)" style="fill: none; stroke: #cccccc; stroke-width: 0.8; stroke-linecap: round"/>
     </g>
     <g id="text_10">
      <!-- 0.75 -->
      <g style="fill: #262626" transform="translate(33.124375 133.809819)scale(0.1 -0.1)">
       <use xlink:href="#DejaVuSans-30"/>
       <use xlink:href="#DejaVuSans-2e" x="63.623047"/>
       <use xlink:href="#DejaVuSans-37" x="95.410156"/>
       <use xlink:href="#DejaVuSans-35" x="159.033203"/>
      </g>
     </g>
    </g>
    <g id="ytick_9">
     <g id="line2d_9">
      <path d="M 62.39 105.2064 
L 450 105.2064 
" clip-path="url(#pcbf48fc90c)" style="fill: none; stroke: #cccccc; stroke-width: 0.8; stroke-linecap: round"/>
     </g>
     <g id="text_11">
      <!-- 1.00 -->
      <g style="fill: #262626" transform="translate(33.124375 109.005619)scale(0.1 -0.1)">
       <use xlink:href="#DejaVuSans-31"/>
       <use xlink:href="#DejaVuSans-2e" x="63.623047"/>
       <use xlink:href="#DejaVuSans-30" x="95.410156"/>
       <use xlink:href="#DejaVuSans-30" x="159.033203"/>
      </g>
     </g>
    </g>
    <g id="text_12">
     <!-- Delta Fluorescence -->
     <g style="fill: #262626" transform="translate(18.665 252.289606)rotate(-90)scale(0.1 -0.1)">
      <defs>
       <path id="DejaVuSans-44" d="M 1259 4147 
L 1259 519 
L 2022 519 
Q 2988 519 3436 956 
Q 3884 1394 3884 2338 
Q 3884 3275 3436 3711 
Q 2988 4147 2022 4147 
L 1259 4147 
z
M 628 4666 
L 1925 4666 
Q 3281 4666 3915 4102 
Q 4550 3538 4550 2338 
Q 4550 1131 3912 565 
Q 3275 0 1925 0 
L 628 0 
L 628 4666 
z
" transform="scale(0.015625)"/>
       <path id="DejaVuSans-74" d="M 1172 4494 
L 1172 3500 
L 2356 3500 
L 2356 3053 
L 1172 3053 
L 1172 1153 
Q 1172 725 1289 603 
Q 1406 481 1766 481 
L 2356 481 
L 2356 0 
L 1766 0 
Q 1100 0 847 248 
Q 594 497 594 1153 
L 594 3053 
L 172 3053 
L 172 3500 
L 594 3500 
L 594 4494 
L 1172 4494 
z
" transform="scale(0.015625)"/>
       <path id="DejaVuSans-20" transform="scale(0.015625)"/>
       <path id="DejaVuSans-46" d="M 628 4666 
L 3309 4666 
L 3309 4134 
L 1259 4134 
L 1259 2759 
L 3109 2759 
L 3109 2228 
L 1259 2228 
L 1259 0 
L 628 0 
L 628 4666 
z
" transform="scale(0.015625)"/>
       <path id="DejaVuSans-75" d="M 544 1381 
L 544 3500 
L 1119 3500 
L 1119 1403 
Q 1119 906 1312 657 
Q 1506 409 1894 409 
Q 2359 409 2629 706 
Q 2900 1003 2900 1516 
L 2900 3500 
L 3475 3500 
L 3475 0 
L 2900 0 
L 2900 538 
Q 2691 219 2414 64 
Q 2138 -91 1772 -91 
Q 1169 -91 856 284 
Q 544 659 544 1381 
z
M 1991 3584 
L 1991 3584 
z
" transform="scale(0.015625)"/>
       <path id="DejaVuSans-6f" d="M 1959 3097 
Q 1497 3097 1228 2736 
Q 959 2375 959 1747 
Q 959 1119 1226 758 
Q 1494 397 1959 397 
Q 2419 397 2687 759 
Q 2956 1122 2956 1747 
Q 2956 2369 2687 2733 
Q 2419 3097 1959 3097 
z
M 1959 3584 
Q 2709 3584 3137 3096 
Q 3566 2609 3566 1747 
Q 3566 888 3137 398 
Q 2709 -91 1959 -91 
Q 1206 -91 779 398 
Q 353 888 353 1747 
Q 353 2609 779 3096 
Q 1206 3584 1959 3584 
z
" transform="scale(0.015625)"/>
       <path id="DejaVuSans-72" d="M 2631 2963 
Q 2534 3019 2420 3045 
Q 2306 3072 2169 3072 
Q 1681 3072 1420 2755 
Q 1159 2438 1159 1844 
L 1159 0 
L 581 0 
L 581 3500 
L 1159 3500 
L 1159 2956 
Q 1341 3275 1631 3429 
Q 1922 3584 2338 3584 
Q 2397 3584 2469 3576 
Q 2541 3569 2628 3553 
L 2631 2963 
z
" transform="scale(0.015625)"/>
       <path id="DejaVuSans-73" d="M 2834 3397 
L 2834 2853 
Q 2591 2978 2328 3040 
Q 2066 3103 1784 3103 
Q 1356 3103 1142 2972 
Q 928 2841 928 2578 
Q 928 2378 1081 2264 
Q 1234 2150 1697 2047 
L 1894 2003 
Q 2506 1872 2764 1633 
Q 3022 1394 3022 966 
Q 3022 478 2636 193 
Q 2250 -91 1575 -91 
Q 1294 -91 989 -36 
Q 684 19 347 128 
L 347 722 
Q 666 556 975 473 
Q 1284 391 1588 391 
Q 1994 391 2212 530 
Q 2431 669 2431 922 
Q 2431 1156 2273 1281 
Q 2116 1406 1581 1522 
L 1381 1569 
Q 847 1681 609 1914 
Q 372 2147 372 2553 
Q 372 3047 722 3315 
Q 1072 3584 1716 3584 
Q 2034 3584 2315 3537 
Q 2597 3491 2834 3397 
z
" transform="scale(0.015625)"/>
       <path id="DejaVuSans-63" d="M 3122 3366 
L 3122 2828 
Q 2878 2963 2633 3030 
Q 2388 3097 2138 3097 
Q 1578 3097 1268 2742 
Q 959 2388 959 1747 
Q 959 1106 1268 751 
Q 1578 397 2138 397 
Q 2388 397 2633 464 
Q 2878 531 3122 666 
L 3122 134 
Q 2881 22 2623 -34 
Q 2366 -91 2075 -91 
Q 1284 -91 818 406 
Q 353 903 353 1747 
Q 353 2603 823 3093 
Q 1294 3584 2113 3584 
Q 2378 3584 2631 3529 
Q 2884 3475 3122 3366 
z
" transform="scale(0.015625)"/>
       <path id="DejaVuSans-6e" d="M 3513 2113 
L 3513 0 
L 2938 0 
L 2938 2094 
Q 2938 2591 2744 2837 
Q 2550 3084 2163 3084 
Q 1697 3084 1428 2787 
Q 1159 2491 1159 1978 
L 1159 0 
L 581 0 
L 581 3500 
L 1159 3500 
L 1159 2956 
Q 1366 3272 1645 3428 
Q 1925 3584 2291 3584 
Q 2894 3584 3203 3211 
Q 3513 2838 3513 2113 
z
" transform="scale(0.015625)"/>
      </defs>
      <use xlink:href="#DejaVuSans-44"/>
      <use xlink:href="#DejaVuSans-65" x="77.001953"/>
      <use xlink:href="#DejaVuSans-6c" x="138.525391"/>
      <use xlink:href="#DejaVuSans-74" x="166.308594"/>
      <use xlink:href="#DejaVuSans-61" x="205.517578"/>
      <use xlink:href="#DejaVuSans-20" x="266.796875"/>
      <use xlink:href="#DejaVuSans-46" x="298.583984"/>
      <use xlink:href="#DejaVuSans-6c" x="356.103516"/>
      <use xlink:href="#DejaVuSans-75" x="383.886719"/>
      <use xlink:href="#DejaVuSans-6f" x="447.265625"/>
      <use xlink:href="#DejaVuSans-72" x="508.447266"/>
      <use xlink:href="#DejaVuSans-65" x="547.310547"/>
      <use xlink:href="#DejaVuSans-73" x="608.833984"/>
      <use xlink:href="#DejaVuSans-63" x="660.933594"/>
      <use xlink:href="#DejaVuSans-65" x="715.914062"/>
      <use xlink:href="#DejaVuSans-6e" x="777.4375"/>
      <use xlink:href="#DejaVuSans-63" x="840.816406"/>
      <use xlink:href="#DejaVuSans-65" x="895.796875"/>
     </g>
    </g>
   </g>
   <g id="patch_3">
    <path d="M 102.70144 207.621582 
L 254.64456 207.621582 
L 254.64456 180.732909 
L 102.70144 180.732909 
L 102.70144 207.621582 
z
" clip-path="url(#pcbf48fc90c)" style="fill: #ecf2ec; stroke: #262626; stroke-width: 1.5; stroke-linejoin: miter"/>
   </g>
   <g id="patch_4">
    <path d="M 257.74544 138.371929 
L 409.68856 138.371929 
L 409.68856 112.099867 
L 257.74544 112.099867 
L 257.74544 138.371929 
z
" clip-path="url(#pcbf48fc90c)" style="fill: #107010; stroke: #262626; stroke-width: 1.5; stroke-linejoin: miter"/>
   </g>
   <g id="patch_5">
    <path d="M 256.195 204.4232 
L 256.195 204.4232 
L 256.195 204.4232 
L 256.195 204.4232 
z
" clip-path="url(#pcbf48fc90c)" style="fill: #ecf2ec; stroke: #262626; stroke-width: 0.75; stroke-linejoin: miter"/>
   </g>
   <g id="patch_6">
    <path d="M 256.195 204.4232 
L 256.195 204.4232 
L 256.195 204.4232 
L 256.195 204.4232 
z
" clip-path="url(#pcbf48fc90c)" style="fill: #107010; stroke: #262626; stroke-width: 0.75; stroke-linejoin: miter"/>
   </g>
   <g id="PathCollection_1"/>
   <g id="PathCollection_2"/>
   <g id="line2d_10">
    <path d="M 178.673 207.621582 
L 178.673 238.663991 
" clip-path="url(#pcbf48fc90c)" style="fill: none; stroke: #262626; stroke-width: 1.5; stroke-linecap: round"/>
   </g>
   <g id="line2d_11">
    <path d="M 178.673 180.732909 
L 178.673 142.035455 
" clip-path="url(#pcbf48fc90c)" style="fill: none; stroke: #262626; stroke-width: 1.5; stroke-linecap: round"/>
   </g>
   <g id="line2d_12">
    <path d="M 140.68722 238.663991 
L 216.65878 238.663991 
" clip-path="url(#pcbf48fc90c)" style="fill: none; stroke: #262626; stroke-width: 1.5; stroke-linecap: round"/>
   </g>
   <g id="line2d_13">
    <path d="M 140.68722 142.035455 
L 216.65878 142.035455 
" clip-path="url(#pcbf48fc90c)" style="fill: none; stroke: #262626; stroke-width: 1.5; stroke-linecap: round"/>
   </g>
   <g id="line2d_14">
    <defs>
     <path id="m000e840b8d" d="M -0 1.414214 
L 0.848528 0 
L 0 -1.414214 
L -0.848528 -0 
z
" style="stroke: #262626; stroke-linejoin: miter"/>
    </defs>
    <g clip-path="url(#pcbf48fc90c)">
     <use xlink:href="#m000e840b8d" x="178.673" y="109.045427" style="fill: #262626; stroke: #262626; stroke-linejoin: miter"/>
     <use xlink:href="#m000e840b8d" x="178.673" y="123.399351" style="fill: #262626; stroke: #262626; stroke-linejoin: miter"/>
     <use xlink:href="#m000e840b8d" x="178.673" y="132.335259" style="fill: #262626; stroke: #262626; stroke-linejoin: miter"/>
    </g>
   </g>
   <g id="line2d_15">
    <path d="M 333.717 138.371929 
L 333.717 174.006191 
" clip-path="url(#pcbf48fc90c)" style="fill: none; stroke: #262626; stroke-width: 1.5; stroke-linecap: round"/>
   </g>
   <g id="line2d_16">
    <path d="M 333.717 112.099867 
L 333.717 92.457117 
" clip-path="url(#pcbf48fc90c)" style="fill: none; stroke: #262626; stroke-width: 1.5; stroke-linecap: round"/>
   </g>
   <g id="line2d_17">
    <path d="M 295.73122 174.006191 
L 371.70278 174.006191 
" clip-path="url(#pcbf48fc90c)" style="fill: none; stroke: #262626; stroke-width: 1.5; stroke-linecap: round"/>
   </g>
   <g id="line2d_18">
    <path d="M 295.73122 92.457117 
L 371.70278 92.457117 
" clip-path="url(#pcbf48fc90c)" style="fill: none; stroke: #262626; stroke-width: 1.5; stroke-linecap: round"/>
   </g>
   <g id="line2d_19"/>
   <g id="line2d_20">
    <path d="M 102.70144 195.22678 
L 254.64456 195.22678 
" clip-path="url(#pcbf48fc90c)" style="fill: none; stroke: #262626; stroke-width: 1.5; stroke-linecap: round"/>
   </g>
   <g id="line2d_21">
    <path d="M 257.74544 121.723343 
L 409.68856 121.723343 
" clip-path="url(#pcbf48fc90c)" style="fill: none; stroke: #262626; stroke-width: 1.5; stroke-linecap: round"/>
   </g>
   <g id="patch_7">
    <path d="M 62.39 303.64 
L 62.39 105.2064 
" style="fill: none; stroke: #cccccc; stroke-width: 0.8; stroke-linejoin: miter; stroke-linecap: square"/>
   </g>
   <g id="patch_8">
    <path d="M 450 303.64 
L 450 105.2064 
" style="fill: none; stroke: #cccccc; stroke-width: 0.8; stroke-linejoin: miter; stroke-linecap: square"/>
   </g>
   <g id="patch_9">
    <path d="M 62.39 303.64 
L 450 303.64 
" style="fill: none; stroke: #cccccc; stroke-width: 0.8; stroke-linejoin: miter; stroke-linecap: square"/>
   </g>
   <g id="patch_10">
    <path d="M 62.39 105.2064 
L 450 105.2064 
" style="fill: none; stroke: #cccccc; stroke-width: 0.8; stroke-linejoin: miter; stroke-linecap: square"/>
   </g>
   <g id="PathCollection_3">
    <defs>
     <path id="C0_0_f73d737fbb" d="M 0 1 
C 0.265203 1 0.51958 0.894634 0.707107 0.707107 
C 0.894634 0.51958 1 0.265203 1 -0 
C 1 -0.265203 0.894634 -0.51958 0.707107 -0.707107 
C 0.51958 -0.894634 0.265203 -1 0 -1 
C -0.265203 -1 -0.51958 -0.894634 -0.707107 -0.707107 
C -0.894634 -0.51958 -1 -0.265203 -1 0 
C -1 0.265203 -0.894634 0.51958 -0.707107 0.707107 
C -0.51958 0.894634 -0.265203 1 0 1 
z
"/>
    </defs>
    <g clip-path="url(#pcbf48fc90c)">
     <use xlink:href="#C0_0_f73d737fbb" x="166.662841" y="202.706127" style="fill: #262626"/>
    </g>
    <g clip-path="url(#pcbf48fc90c)">
     <use xlink:href="#C0_0_f73d737fbb" x="175.175306" y="194.887719" style="fill: #262626"/>
    </g>
    <g clip-path="url(#pcbf48fc90c)">
     <use xlink:href="#C0_0_f73d737fbb" x="196.379742" y="207.245613" style="fill: #262626"/>
    </g>
    <g clip-path="url(#pcbf48fc90c)">
     <use xlink:href="#C0_0_f73d737fbb" x="185.724867" y="200.034157" style="fill: #262626"/>
    </g>
    <g clip-path="url(#pcbf48fc90c)">
     <use xlink:href="#C0_0_f73d737fbb" x="163.047694" y="205.387164" style="fill: #262626"/>
    </g>
    <g clip-path="url(#pcbf48fc90c)">
     <use xlink:href="#C0_0_f73d737fbb" x="190.806906" y="194.304316" style="fill: #262626"/>
    </g>
    <g clip-path="url(#pcbf48fc90c)">
     <use xlink:href="#C0_0_f73d737fbb" x="177.894298" y="198.819619" style="fill: #262626"/>
    </g>
    <g clip-path="url(#pcbf48fc90c)">
     <use xlink:href="#C0_0_f73d737fbb" x="181.035835" y="163.599023" style="fill: #262626"/>
    </g>
    <g clip-path="url(#pcbf48fc90c)">
     <use xlink:href="#C0_0_f73d737fbb" x="161.042752" y="182.729961" style="fill: #262626"/>
    </g>
    <g clip-path="url(#pcbf48fc90c)">
     <use xlink:href="#C0_0_f73d737fbb" x="164.074814" y="229.404713" style="fill: #262626"/>
    </g>
    <g clip-path="url(#pcbf48fc90c)">
     <use xlink:href="#C0_0_f73d737fbb" x="183.423015" y="189.561349" style="fill: #262626"/>
    </g>
    <g clip-path="url(#pcbf48fc90c)">
     <use xlink:href="#C0_0_f73d737fbb" x="191.709729" y="229.699249" style="fill: #262626"/>
    </g>
    <g clip-path="url(#pcbf48fc90c)">
     <use xlink:href="#C0_0_f73d737fbb" x="161.356895" y="190.546933" style="fill: #262626"/>
    </g>
    <g clip-path="url(#pcbf48fc90c)">
     <use xlink:href="#C0_0_f73d737fbb" x="182.37777" y="109.045427" style="fill: #262626"/>
    </g>
    <g clip-path="url(#pcbf48fc90c)">
     <use xlink:href="#C0_0_f73d737fbb" x="160.206397" y="165.754623" style="fill: #262626"/>
    </g>
    <g clip-path="url(#pcbf48fc90c)">
     <use xlink:href="#C0_0_f73d737fbb" x="179.293785" y="195.22678" style="fill: #262626"/>
    </g>
    <g clip-path="url(#pcbf48fc90c)">
     <use xlink:href="#C0_0_f73d737fbb" x="168.16467" y="204.5566" style="fill: #262626"/>
    </g>
    <g clip-path="url(#pcbf48fc90c)">
     <use xlink:href="#C0_0_f73d737fbb" x="181.127714" y="210.959418" style="fill: #262626"/>
    </g>
    <g clip-path="url(#pcbf48fc90c)">
     <use xlink:href="#C0_0_f73d737fbb" x="186.437056" y="238.663991" style="fill: #262626"/>
    </g>
    <g clip-path="url(#pcbf48fc90c)">
     <use xlink:href="#C0_0_f73d737fbb" x="174.427336" y="194.579857" style="fill: #262626"/>
    </g>
    <g clip-path="url(#pcbf48fc90c)">
     <use xlink:href="#C0_0_f73d737fbb" x="181.017881" y="157.450796" style="fill: #262626"/>
    </g>
    <g clip-path="url(#pcbf48fc90c)">
     <use xlink:href="#C0_0_f73d737fbb" x="187.079602" y="142.035455" style="fill: #262626"/>
    </g>
    <g clip-path="url(#pcbf48fc90c)">
     <use xlink:href="#C0_0_f73d737fbb" x="174.720696" y="202.586714" style="fill: #262626"/>
    </g>
    <g clip-path="url(#pcbf48fc90c)">
     <use xlink:href="#C0_0_f73d737fbb" x="182.202501" y="187.536736" style="fill: #262626"/>
    </g>
    <g clip-path="url(#pcbf48fc90c)">
     <use xlink:href="#C0_0_f73d737fbb" x="164.01679" y="210.547204" style="fill: #262626"/>
    </g>
    <g clip-path="url(#pcbf48fc90c)">
     <use xlink:href="#C0_0_f73d737fbb" x="170.170773" y="205.483775" style="fill: #262626"/>
    </g>
    <g clip-path="url(#pcbf48fc90c)">
     <use xlink:href="#C0_0_f73d737fbb" x="165.610479" y="195.378645" style="fill: #262626"/>
    </g>
    <g clip-path="url(#pcbf48fc90c)">
     <use xlink:href="#C0_0_f73d737fbb" x="193.661577" y="193.870904" style="fill: #262626"/>
    </g>
    <g clip-path="url(#pcbf48fc90c)">
     <use xlink:href="#C0_0_f73d737fbb" x="186.199111" y="202.477652" style="fill: #262626"/>
    </g>
    <g clip-path="url(#pcbf48fc90c)">
     <use xlink:href="#C0_0_f73d737fbb" x="174.004151" y="221.134901" style="fill: #262626"/>
    </g>
    <g clip-path="url(#pcbf48fc90c)">
     <use xlink:href="#C0_0_f73d737fbb" x="174.8774" y="169.063275" style="fill: #262626"/>
    </g>
    <g clip-path="url(#pcbf48fc90c)">
     <use xlink:href="#C0_0_f73d737fbb" x="176.968357" y="209.064704" style="fill: #262626"/>
    </g>
    <g clip-path="url(#pcbf48fc90c)">
     <use xlink:href="#C0_0_f73d737fbb" x="177.550672" y="207.997552" style="fill: #262626"/>
    </g>
    <g clip-path="url(#pcbf48fc90c)">
     <use xlink:href="#C0_0_f73d737fbb" x="170.150494" y="215.076551" style="fill: #262626"/>
    </g>
    <g clip-path="url(#pcbf48fc90c)">
     <use xlink:href="#C0_0_f73d737fbb" x="188.005099" y="160.959376" style="fill: #262626"/>
    </g>
    <g clip-path="url(#pcbf48fc90c)">
     <use xlink:href="#C0_0_f73d737fbb" x="187.651012" y="220.361488" style="fill: #262626"/>
    </g>
    <g clip-path="url(#pcbf48fc90c)">
     <use xlink:href="#C0_0_f73d737fbb" x="175.594364" y="195.860233" style="fill: #262626"/>
    </g>
    <g clip-path="url(#pcbf48fc90c)">
     <use xlink:href="#C0_0_f73d737fbb" x="164.609151" y="208.28717" style="fill: #262626"/>
    </g>
    <g clip-path="url(#pcbf48fc90c)">
     <use xlink:href="#C0_0_f73d737fbb" x="168.727762" y="199.802534" style="fill: #262626"/>
    </g>
    <g clip-path="url(#pcbf48fc90c)">
     <use xlink:href="#C0_0_f73d737fbb" x="161.606208" y="179.593729" style="fill: #262626"/>
    </g>
    <g clip-path="url(#pcbf48fc90c)">
     <use xlink:href="#C0_0_f73d737fbb" x="182.427761" y="123.399351" style="fill: #262626"/>
    </g>
    <g clip-path="url(#pcbf48fc90c)">
     <use xlink:href="#C0_0_f73d737fbb" x="169.370319" y="178.695113" style="fill: #262626"/>
    </g>
    <g clip-path="url(#pcbf48fc90c)">
     <use xlink:href="#C0_0_f73d737fbb" x="197.667205" y="229.669041" style="fill: #262626"/>
    </g>
    <g clip-path="url(#pcbf48fc90c)">
     <use xlink:href="#C0_0_f73d737fbb" x="187.433677" y="232.130121" style="fill: #262626"/>
    </g>
    <g clip-path="url(#pcbf48fc90c)">
     <use xlink:href="#C0_0_f73d737fbb" x="170.946197" y="149.722221" style="fill: #262626"/>
    </g>
    <g clip-path="url(#pcbf48fc90c)">
     <use xlink:href="#C0_0_f73d737fbb" x="180.144199" y="227.419009" style="fill: #262626"/>
    </g>
    <g clip-path="url(#pcbf48fc90c)">
     <use xlink:href="#C0_0_f73d737fbb" x="177.168374" y="196.223514" style="fill: #262626"/>
    </g>
    <g clip-path="url(#pcbf48fc90c)">
     <use xlink:href="#C0_0_f73d737fbb" x="195.485347" y="182.356182" style="fill: #262626"/>
    </g>
    <g clip-path="url(#pcbf48fc90c)">
     <use xlink:href="#C0_0_f73d737fbb" x="195.513973" y="191.078376" style="fill: #262626"/>
    </g>
    <g clip-path="url(#pcbf48fc90c)">
     <use xlink:href="#C0_0_f73d737fbb" x="160.000572" y="192.139359" style="fill: #262626"/>
    </g>
    <g clip-path="url(#pcbf48fc90c)">
     <use xlink:href="#C0_0_f73d737fbb" x="175.101392" y="232.582981" style="fill: #262626"/>
    </g>
    <g clip-path="url(#pcbf48fc90c)">
     <use xlink:href="#C0_0_f73d737fbb" x="164.744496" y="150.463385" style="fill: #262626"/>
    </g>
    <g clip-path="url(#pcbf48fc90c)">
     <use xlink:href="#C0_0_f73d737fbb" x="173.464304" y="202.730725" style="fill: #262626"/>
    </g>
    <g clip-path="url(#pcbf48fc90c)">
     <use xlink:href="#C0_0_f73d737fbb" x="168.144368" y="166.65579" style="fill: #262626"/>
    </g>
    <g clip-path="url(#pcbf48fc90c)">
     <use xlink:href="#C0_0_f73d737fbb" x="177.394273" y="194.641363" style="fill: #262626"/>
    </g>
    <g clip-path="url(#pcbf48fc90c)">
     <use xlink:href="#C0_0_f73d737fbb" x="196.499568" y="162.931334" style="fill: #262626"/>
    </g>
    <g clip-path="url(#pcbf48fc90c)">
     <use xlink:href="#C0_0_f73d737fbb" x="183.451567" y="132.335259" style="fill: #262626"/>
    </g>
    <g clip-path="url(#pcbf48fc90c)">
     <use xlink:href="#C0_0_f73d737fbb" x="172.74511" y="193.544935" style="fill: #262626"/>
    </g>
    <g clip-path="url(#pcbf48fc90c)">
     <use xlink:href="#C0_0_f73d737fbb" x="171.677371" y="181.87209" style="fill: #262626"/>
    </g>
   </g>
   <g id="PathCollection_4">
    <defs>
     <path id="C1_0_538078b1c9" d="M 0 1 
C 0.265203 1 0.51958 0.894634 0.707107 0.707107 
C 0.894634 0.51958 1 0.265203 1 -0 
C 1 -0.265203 0.894634 -0.51958 0.707107 -0.707107 
C 0.51958 -0.894634 0.265203 -1 0 -1 
C -0.265203 -1 -0.51958 -0.894634 -0.707107 -0.707107 
C -0.894634 -0.51958 -1 -0.265203 -1 0 
C -1 0.265203 -0.894634 0.51958 -0.707107 0.707107 
C -0.51958 0.894634 -0.265203 1 0 1 
z
"/>
    </defs>
    <g clip-path="url(#pcbf48fc90c)">
     <use xlink:href="#C1_0_538078b1c9" x="324.482958" y="153.065488"/>
    </g>
    <g clip-path="url(#pcbf48fc90c)">
     <use xlink:href="#C1_0_538078b1c9" x="348.886709" y="116.664515"/>
    </g>
    <g clip-path="url(#pcbf48fc90c)">
     <use xlink:href="#C1_0_538078b1c9" x="341.718499" y="125.546332"/>
    </g>
    <g clip-path="url(#pcbf48fc90c)">
     <use xlink:href="#C1_0_538078b1c9" x="341.944458" y="114.000855"/>
    </g>
    <g clip-path="url(#pcbf48fc90c)">
     <use xlink:href="#C1_0_538078b1c9" x="344.190364" y="161.785187"/>
    </g>
    <g clip-path="url(#pcbf48fc90c)">
     <use xlink:href="#C1_0_538078b1c9" x="331.585372" y="151.87615"/>
    </g>
    <g clip-path="url(#pcbf48fc90c)">
     <use xlink:href="#C1_0_538078b1c9" x="316.253084" y="135.863652"/>
    </g>
    <g clip-path="url(#pcbf48fc90c)">
     <use xlink:href="#C1_0_538078b1c9" x="335.685081" y="103.549008"/>
    </g>
    <g clip-path="url(#pcbf48fc90c)">
     <use xlink:href="#C1_0_538078b1c9" x="315.197751" y="119.772783"/>
    </g>
    <g clip-path="url(#pcbf48fc90c)">
     <use xlink:href="#C1_0_538078b1c9" x="340.835417" y="102.37453"/>
    </g>
    <g clip-path="url(#pcbf48fc90c)">
     <use xlink:href="#C1_0_538078b1c9" x="317.562433" y="141.255619"/>
    </g>
    <g clip-path="url(#pcbf48fc90c)">
     <use xlink:href="#C1_0_538078b1c9" x="326.74632" y="138.26072"/>
    </g>
    <g clip-path="url(#pcbf48fc90c)">
     <use xlink:href="#C1_0_538078b1c9" x="325.418486" y="162.4714"/>
    </g>
    <g clip-path="url(#pcbf48fc90c)">
     <use xlink:href="#C1_0_538078b1c9" x="343.690373" y="106.934876"/>
    </g>
    <g clip-path="url(#pcbf48fc90c)">
     <use xlink:href="#C1_0_538078b1c9" x="321.059333" y="107.268403"/>
    </g>
    <g clip-path="url(#pcbf48fc90c)">
     <use xlink:href="#C1_0_538078b1c9" x="328.140186" y="139.267412"/>
    </g>
    <g clip-path="url(#pcbf48fc90c)">
     <use xlink:href="#C1_0_538078b1c9" x="346.614865" y="144.270772"/>
    </g>
    <g clip-path="url(#pcbf48fc90c)">
     <use xlink:href="#C1_0_538078b1c9" x="348.624011" y="145.319465"/>
    </g>
    <g clip-path="url(#pcbf48fc90c)">
     <use xlink:href="#C1_0_538078b1c9" x="327.543433" y="133.014901"/>
    </g>
    <g clip-path="url(#pcbf48fc90c)">
     <use xlink:href="#C1_0_538078b1c9" x="322.090527" y="122.810681"/>
    </g>
    <g clip-path="url(#pcbf48fc90c)">
     <use xlink:href="#C1_0_538078b1c9" x="343.021514" y="109.529113"/>
    </g>
    <g clip-path="url(#pcbf48fc90c)">
     <use xlink:href="#C1_0_538078b1c9" x="330.185186" y="138.408999"/>
    </g>
    <g clip-path="url(#pcbf48fc90c)">
     <use xlink:href="#C1_0_538078b1c9" x="345.501592" y="99.028276"/>
    </g>
    <g clip-path="url(#pcbf48fc90c)">
     <use xlink:href="#C1_0_538078b1c9" x="318.434956" y="137.789561"/>
    </g>
    <g clip-path="url(#pcbf48fc90c)">
     <use xlink:href="#C1_0_538078b1c9" x="327.647036" y="123.932757"/>
    </g>
    <g clip-path="url(#pcbf48fc90c)">
     <use xlink:href="#C1_0_538078b1c9" x="338.190817" y="122.232708"/>
    </g>
    <g clip-path="url(#pcbf48fc90c)">
     <use xlink:href="#C1_0_538078b1c9" x="321.826582" y="140.220566"/>
    </g>
    <g clip-path="url(#pcbf48fc90c)">
     <use xlink:href="#C1_0_538078b1c9" x="324.038607" y="108.12221"/>
    </g>
    <g clip-path="url(#pcbf48fc90c)">
     <use xlink:href="#C1_0_538078b1c9" x="345.164018" y="122.27516"/>
    </g>
    <g clip-path="url(#pcbf48fc90c)">
     <use xlink:href="#C1_0_538078b1c9" x="334.876033" y="101.638787"/>
    </g>
    <g clip-path="url(#pcbf48fc90c)">
     <use xlink:href="#C1_0_538078b1c9" x="341.558256" y="121.213977"/>
    </g>
    <g clip-path="url(#pcbf48fc90c)">
     <use xlink:href="#C1_0_538078b1c9" x="352.863537" y="116.058368"/>
    </g>
    <g clip-path="url(#pcbf48fc90c)">
     <use xlink:href="#C1_0_538078b1c9" x="340.918025" y="138.582682"/>
    </g>
    <g clip-path="url(#pcbf48fc90c)">
     <use xlink:href="#C1_0_538078b1c9" x="333.385702" y="118.625736"/>
    </g>
    <g clip-path="url(#pcbf48fc90c)">
     <use xlink:href="#C1_0_538078b1c9" x="337.456856" y="110.508338"/>
    </g>
    <g clip-path="url(#pcbf48fc90c)">
     <use xlink:href="#C1_0_538078b1c9" x="314.41645" y="117.409012"/>
    </g>
    <g clip-path="url(#pcbf48fc90c)">
     <use xlink:href="#C1_0_538078b1c9" x="340.924044" y="99.20118"/>
    </g>
    <g clip-path="url(#pcbf48fc90c)">
     <use xlink:href="#C1_0_538078b1c9" x="326.265456" y="146.869834"/>
    </g>
    <g clip-path="url(#pcbf48fc90c)">
     <use xlink:href="#C1_0_538078b1c9" x="325.970874" y="120.536177"/>
    </g>
    <g clip-path="url(#pcbf48fc90c)">
     <use xlink:href="#C1_0_538078b1c9" x="347.872299" y="111.116025"/>
    </g>
    <g clip-path="url(#pcbf48fc90c)">
     <use xlink:href="#C1_0_538078b1c9" x="322.928289" y="112.221117"/>
    </g>
    <g clip-path="url(#pcbf48fc90c)">
     <use xlink:href="#C1_0_538078b1c9" x="343.289377" y="107.51504"/>
    </g>
    <g clip-path="url(#pcbf48fc90c)">
     <use xlink:href="#C1_0_538078b1c9" x="329.09947" y="118.330235"/>
    </g>
    <g clip-path="url(#pcbf48fc90c)">
     <use xlink:href="#C1_0_538078b1c9" x="315.355776" y="133.740972"/>
    </g>
    <g clip-path="url(#pcbf48fc90c)">
     <use xlink:href="#C1_0_538078b1c9" x="323.877526" y="142.274096"/>
    </g>
    <g clip-path="url(#pcbf48fc90c)">
     <use xlink:href="#C1_0_538078b1c9" x="339.899025" y="148.684689"/>
    </g>
    <g clip-path="url(#pcbf48fc90c)">
     <use xlink:href="#C1_0_538078b1c9" x="347.827285" y="92.457117"/>
    </g>
    <g clip-path="url(#pcbf48fc90c)">
     <use xlink:href="#C1_0_538078b1c9" x="335.82399" y="126.933966"/>
    </g>
    <g clip-path="url(#pcbf48fc90c)">
     <use xlink:href="#C1_0_538078b1c9" x="325.52299" y="118.671939"/>
    </g>
    <g clip-path="url(#pcbf48fc90c)">
     <use xlink:href="#C1_0_538078b1c9" x="323.378467" y="123.065839"/>
    </g>
    <g clip-path="url(#pcbf48fc90c)">
     <use xlink:href="#C1_0_538078b1c9" x="317.899599" y="114.611847"/>
    </g>
    <g clip-path="url(#pcbf48fc90c)">
     <use xlink:href="#C1_0_538078b1c9" x="327.521566" y="125.704829"/>
    </g>
    <g clip-path="url(#pcbf48fc90c)">
     <use xlink:href="#C1_0_538078b1c9" x="338.535279" y="134.350999"/>
    </g>
    <g clip-path="url(#pcbf48fc90c)">
     <use xlink:href="#C1_0_538078b1c9" x="316.262909" y="116.548931"/>
    </g>
    <g clip-path="url(#pcbf48fc90c)">
     <use xlink:href="#C1_0_538078b1c9" x="318.99782" y="121.115903"/>
    </g>
    <g clip-path="url(#pcbf48fc90c)">
     <use xlink:href="#C1_0_538078b1c9" x="330.314226" y="112.013777"/>
    </g>
    <g clip-path="url(#pcbf48fc90c)">
     <use xlink:href="#C1_0_538078b1c9" x="328.761962" y="111.705164"/>
    </g>
    <g clip-path="url(#pcbf48fc90c)">
     <use xlink:href="#C1_0_538078b1c9" x="348.486437" y="124.026476"/>
    </g>
    <g clip-path="url(#pcbf48fc90c)">
     <use xlink:href="#C1_0_538078b1c9" x="344.573302" y="145.901767"/>
    </g>
    <g clip-path="url(#pcbf48fc90c)">
     <use xlink:href="#C1_0_538078b1c9" x="329.6453" y="115.982125"/>
    </g>
    <g clip-path="url(#pcbf48fc90c)">
     <use xlink:href="#C1_0_538078b1c9" x="337.962714" y="112.05945"/>
    </g>
    <g clip-path="url(#pcbf48fc90c)">
     <use xlink:href="#C1_0_538078b1c9" x="323.178368" y="174.006191"/>
    </g>
   </g>
   <g id="text_13">
    <!-- 59 -->
    <g style="fill: #262626" transform="translate(198.0535 40.71548)scale(0.1 -0.1)">
     <defs>
      <path id="DejaVuSans-39" d="M 703 97 
L 703 672 
Q 941 559 1184 500 
Q 1428 441 1663 441 
Q 2288 441 2617 861 
Q 2947 1281 2994 2138 
Q 2813 1869 2534 1725 
Q 2256 1581 1919 1581 
Q 1219 1581 811 2004 
Q 403 2428 403 3163 
Q 403 3881 828 4315 
Q 1253 4750 1959 4750 
Q 2769 4750 3195 4129 
Q 3622 3509 3622 2328 
Q 3622 1225 3098 567 
Q 2575 -91 1691 -91 
Q 1453 -91 1209 -44 
Q 966 3 703 97 
z
M 1959 2075 
Q 2384 2075 2632 2365 
Q 2881 2656 2881 3163 
Q 2881 3666 2632 3958 
Q 2384 4250 1959 4250 
Q 1534 4250 1286 3958 
Q 1038 3666 1038 3163 
Q 1038 2656 1286 2365 
Q 1534 2075 1959 2075 
z
" transform="scale(0.015625)"/>
     </defs>
     <use xlink:href="#DejaVuSans-35"/>
     <use xlink:href="#DejaVuSans-39" x="63.623047"/>
    </g>
   </g>
   <g id="text_14">
    <!-- p=nan -->
    <g style="fill: #262626" transform="translate(184.641 104.084587)scale(0.08 -0.08)">
     <defs>
      <path id="DejaVuSans-3d" d="M 678 2906 
L 4684 2906 
L 4684 2381 
L 678 2381 
L 678 2906 
z
M 678 1631 
L 4684 1631 
L 4684 1100 
L 678 1100 
L 678 1631 
z
" transform="scale(0.015625)"/>
     </defs>
     <use xlink:href="#DejaVuSans-70"/>
     <use xlink:href="#DejaVuSans-3d" x="63.476562"/>
     <use xlink:href="#DejaVuSans-6e" x="147.265625"/>
     <use xlink:href="#DejaVuSans-61" x="210.644531"/>
     <use xlink:href="#DejaVuSans-6e" x="271.923828"/>
    </g>
   </g>
   <g id="text_15">
    <!-- 62 -->
    <g style="fill: #262626" transform="translate(314.3365 40.71548)scale(0.1 -0.1)">
     <defs>
      <path id="DejaVuSans-36" d="M 2113 2584 
Q 1688 2584 1439 2293 
Q 1191 2003 1191 1497 
Q 1191 994 1439 701 
Q 1688 409 2113 409 
Q 2538 409 2786 701 
Q 3034 994 3034 1497 
Q 3034 2003 2786 2293 
Q 2538 2584 2113 2584 
z
M 3366 4563 
L 3366 3988 
Q 3128 4100 2886 4159 
Q 2644 4219 2406 4219 
Q 1781 4219 1451 3797 
Q 1122 3375 1075 2522 
Q 1259 2794 1537 2939 
Q 1816 3084 2150 3084 
Q 2853 3084 3261 2657 
Q 3669 2231 3669 1497 
Q 3669 778 3244 343 
Q 2819 -91 2113 -91 
Q 1303 -91 875 529 
Q 447 1150 447 2328 
Q 447 3434 972 4092 
Q 1497 4750 2381 4750 
Q 2619 4750 2861 4703 
Q 3103 4656 3366 4563 
z
" transform="scale(0.015625)"/>
     </defs>
     <use xlink:href="#DejaVuSans-36"/>
     <use xlink:href="#DejaVuSans-32" x="63.623047"/>
    </g>
   </g>
   <g id="text_16">
    <!-- p=nan -->
    <g style="fill: #262626" transform="translate(300.924 87.496277)scale(0.08 -0.08)">
     <use xlink:href="#DejaVuSans-70"/>
     <use xlink:href="#DejaVuSans-3d" x="63.476562"/>
     <use xlink:href="#DejaVuSans-6e" x="147.265625"/>
     <use xlink:href="#DejaVuSans-61" x="210.644531"/>
     <use xlink:href="#DejaVuSans-6e" x="271.923828"/>
    </g>
   </g>
   <g id="legend_1">
    <g id="patch_11">
     <path d="M 71.39 121.804837 
L 91.39 121.804837 
L 91.39 114.804837 
L 71.39 114.804837 
z
" style="fill: #ecf2ec; stroke: #262626; stroke-width: 0.75; stroke-linejoin: miter"/>
    </g>
    <g id="text_17">
     <!-- void -->
     <g style="fill: #262626" transform="translate(99.39 121.804837)scale(0.1 -0.1)">
      <defs>
       <path id="DejaVuSans-76" d="M 191 3500 
L 800 3500 
L 1894 563 
L 2988 3500 
L 3597 3500 
L 2284 0 
L 1503 0 
L 191 3500 
z
" transform="scale(0.015625)"/>
       <path id="DejaVuSans-69" d="M 603 3500 
L 1178 3500 
L 1178 0 
L 603 0 
L 603 3500 
z
M 603 4863 
L 1178 4863 
L 1178 4134 
L 603 4134 
L 603 4863 
z
" transform="scale(0.015625)"/>
       <path id="DejaVuSans-64" d="M 2906 2969 
L 2906 4863 
L 3481 4863 
L 3481 0 
L 2906 0 
L 2906 525 
Q 2725 213 2448 61 
Q 2172 -91 1784 -91 
Q 1150 -91 751 415 
Q 353 922 353 1747 
Q 353 2572 751 3078 
Q 1150 3584 1784 3584 
Q 2172 3584 2448 3432 
Q 2725 3281 2906 2969 
z
M 947 1747 
Q 947 1113 1208 752 
Q 1469 391 1925 391 
Q 2381 391 2643 752 
Q 2906 1113 2906 1747 
Q 2906 2381 2643 2742 
Q 2381 3103 1925 3103 
Q 1469 3103 1208 2742 
Q 947 2381 947 1747 
z
" transform="scale(0.015625)"/>
      </defs>
      <use xlink:href="#DejaVuSans-76"/>
      <use xlink:href="#DejaVuSans-6f" x="59.179688"/>
      <use xlink:href="#DejaVuSans-69" x="120.361328"/>
      <use xlink:href="#DejaVuSans-64" x="148.144531"/>
     </g>
    </g>
    <g id="patch_12">
     <path d="M 71.39 136.482962 
L 91.39 136.482962 
L 91.39 129.482962 
L 71.39 129.482962 
z
" style="fill: #107010; stroke: #262626; stroke-width: 0.75; stroke-linejoin: miter"/>
    </g>
    <g id="text_18">
     <!-- clash -->
     <g style="fill: #262626" transform="translate(99.39 136.482962)scale(0.1 -0.1)">
      <defs>
       <path id="DejaVuSans-68" d="M 3513 2113 
L 3513 0 
L 2938 0 
L 2938 2094 
Q 2938 2591 2744 2837 
Q 2550 3084 2163 3084 
Q 1697 3084 1428 2787 
Q 1159 2491 1159 1978 
L 1159 0 
L 581 0 
L 581 4863 
L 1159 4863 
L 1159 2956 
Q 1366 3272 1645 3428 
Q 1925 3584 2291 3584 
Q 2894 3584 3203 3211 
Q 3513 2838 3513 2113 
z
" transform="scale(0.015625)"/>
      </defs>
      <use xlink:href="#DejaVuSans-63"/>
      <use xlink:href="#DejaVuSans-6c" x="54.980469"/>
      <use xlink:href="#DejaVuSans-61" x="82.763672"/>
      <use xlink:href="#DejaVuSans-73" x="144.042969"/>
      <use xlink:href="#DejaVuSans-68" x="196.142578"/>
     </g>
    </g>
   </g>
  </g>
 </g>
 <defs>
  <clipPath id="pcbf48fc90c">
   <rect x="62.39" y="105.2064" width="387.61" height="198.4336"/>
  </clipPath>
 </defs>
</svg>
