<?xml version="1.0" encoding="utf-8" standalone="no"?>
<!DOCTYPE svg PUBLIC "-//W3C//DTD SVG 1.1//EN"
  "http://www.w3.org/Graphics/SVG/1.1/DTD/svg11.dtd">
<svg xmlns:xlink="http://www.w3.org/1999/xlink" width="460.8pt" height="345.6pt" viewBox="0 0 460.8 345.6" xmlns="http://www.w3.org/2000/svg" version="1.1">
 <metadata>
  <rdf:RDF xmlns:dc="http://purl.org/dc/elements/1.1/" xmlns:cc="http://creativecommons.org/ns#" xmlns:rdf="http://www.w3.org/1999/02/22-rdf-syntax-ns#">
   <cc:Work>
    <dc:type rdf:resource="http://purl.org/dc/dcmitype/StillImage"/>
    <dc:date>2024-06-12T17:56:53.493654</dc:date>
    <dc:format>image/svg+xml</dc:format>
    <dc:creator>
     <cc:Agent>
      <dc:title>Matplotlib v3.5.3, https://matplotlib.org/</dc:title>
     </cc:Agent>
    </dc:creator>
   </cc:Work>
  </rdf:RDF>
 </metadata>
 <defs>
  <style type="text/css">*{stroke-linejoin: round; stroke-linecap: butt}</style>
 </defs>
 <g id="figure_1">
  <g id="patch_1">
   <path d="M 0 345.6 
L 460.8 345.6 
L 460.8 0 
L 0 0 
z
" style="fill: #ffffff"/>
  </g>
  <g id="axes_1">
   <g id="patch_2">
    <path d="M 63.57125 303.64 
L 450 303.64 
L 450 10.8 
L 63.57125 10.8 
z
" style="fill: #ffffff"/>
   </g>
   <g id="matplotlib.axis_1">
    <g id="xtick_1">
     <g id="text_1">
      <!-- I -->
      <g style="fill: #262626" transform="translate(255.310625 318.238437)scale(0.1 -0.1)">
       <defs>
        <path id="DejaVuSans-49" d="M 628 4666 
L 1259 4666 
L 1259 0 
L 628 0 
L 628 4666 
z
" transform="scale(0.015625)"/>
       </defs>
       <use xlink:href="#DejaVuSans-49"/>
      </g>
     </g>
    </g>
    <g id="text_2">
     <!-- mut_AA -->
     <g style="fill: #262626" transform="translate(237.308281 331.638437)scale(0.1 -0.1)">
      <defs>
       <path id="DejaVuSans-6d" d="M 3328 2828 
Q 3544 3216 3844 3400 
Q 4144 3584 4550 3584 
Q 5097 3584 5394 3201 
Q 5691 2819 5691 2113 
L 5691 0 
L 5113 0 
L 5113 2094 
Q 5113 2597 4934 2840 
Q 4756 3084 4391 3084 
Q 3944 3084 3684 2787 
Q 3425 2491 3425 1978 
L 3425 0 
L 2847 0 
L 2847 2094 
Q 2847 2600 2669 2842 
Q 2491 3084 2119 3084 
Q 1678 3084 1418 2786 
Q 1159 2488 1159 1978 
L 1159 0 
L 581 0 
L 581 3500 
L 1159 3500 
L 1159 2956 
Q 1356 3278 1631 3431 
Q 1906 3584 2284 3584 
Q 2666 3584 2933 3390 
Q 3200 3197 3328 2828 
z
" transform="scale(0.015625)"/>
       <path id="DejaVuSans-75" d="M 544 1381 
L 544 3500 
L 1119 3500 
L 1119 1403 
Q 1119 906 1312 657 
Q 1506 409 1894 409 
Q 2359 409 2629 706 
Q 2900 1003 2900 1516 
L 2900 3500 
L 3475 3500 
L 3475 0 
L 2900 0 
L 2900 538 
Q 2691 219 2414 64 
Q 2138 -91 1772 -91 
Q 1169 -91 856 284 
Q 544 659 544 1381 
z
M 1991 3584 
L 1991 3584 
z
" transform="scale(0.015625)"/>
       <path id="DejaVuSans-74" d="M 1172 4494 
L 1172 3500 
L 2356 3500 
L 2356 3053 
L 1172 3053 
L 1172 1153 
Q 1172 725 1289 603 
Q 1406 481 1766 481 
L 2356 481 
L 2356 0 
L 1766 0 
Q 1100 0 847 248 
Q 594 497 594 1153 
L 594 3053 
L 172 3053 
L 172 3500 
L 594 3500 
L 594 4494 
L 1172 4494 
z
" transform="scale(0.015625)"/>
       <path id="DejaVuSans-5f" d="M 3263 -1063 
L 3263 -1509 
L -63 -1509 
L -63 -1063 
L 3263 -1063 
z
" transform="scale(0.015625)"/>
       <path id="DejaVuSans-41" d="M 2188 4044 
L 1331 1722 
L 3047 1722 
L 2188 4044 
z
M 1831 4666 
L 2547 4666 
L 4325 0 
L 3669 0 
L 3244 1197 
L 1141 1197 
L 716 0 
L 50 0 
L 1831 4666 
z
" transform="scale(0.015625)"/>
      </defs>
      <use xlink:href="#DejaVuSans-6d"/>
      <use xlink:href="#DejaVuSans-75" x="97.412109"/>
      <use xlink:href="#DejaVuSans-74" x="160.791016"/>
      <use xlink:href="#DejaVuSans-5f" x="200"/>
      <use xlink:href="#DejaVuSans-41" x="250"/>
      <use xlink:href="#DejaVuSans-41" x="321.158203"/>
     </g>
    </g>
   </g>
   <g id="matplotlib.axis_2">
    <g id="ytick_1">
     <g id="line2d_1">
      <path d="M 63.57125 303.64 
L 450 303.64 
" clip-path="url(#pb6c5205c9b)" style="fill: none; stroke: #cccccc; stroke-width: 0.8; stroke-linecap: round"/>
     </g>
     <g id="text_3">
      <!-- 0.0 -->
      <g style="fill: #262626" transform="translate(40.668125 307.439219)scale(0.1 -0.1)">
       <defs>
        <path id="DejaVuSans-30" d="M 2034 4250 
Q 1547 4250 1301 3770 
Q 1056 3291 1056 2328 
Q 1056 1369 1301 889 
Q 1547 409 2034 409 
Q 2525 409 2770 889 
Q 3016 1369 3016 2328 
Q 3016 3291 2770 3770 
Q 2525 4250 2034 4250 
z
M 2034 4750 
Q 2819 4750 3233 4129 
Q 3647 3509 3647 2328 
Q 3647 1150 3233 529 
Q 2819 -91 2034 -91 
Q 1250 -91 836 529 
Q 422 1150 422 2328 
Q 422 3509 836 4129 
Q 1250 4750 2034 4750 
z
" transform="scale(0.015625)"/>
        <path id="DejaVuSans-2e" d="M 684 794 
L 1344 794 
L 1344 0 
L 684 0 
L 684 794 
z
" transform="scale(0.015625)"/>
       </defs>
       <use xlink:href="#DejaVuSans-30"/>
       <use xlink:href="#DejaVuSans-2e" x="63.623047"/>
       <use xlink:href="#DejaVuSans-30" x="95.410156"/>
      </g>
     </g>
    </g>
    <g id="ytick_2">
     <g id="line2d_2">
      <path d="M 63.57125 247.123811 
L 450 247.123811 
" clip-path="url(#pb6c5205c9b)" style="fill: none; stroke: #cccccc; stroke-width: 0.8; stroke-linecap: round"/>
     </g>
     <g id="text_4">
      <!-- 0.1 -->
      <g style="fill: #262626" transform="translate(40.668125 250.92303)scale(0.1 -0.1)">
       <defs>
        <path id="DejaVuSans-31" d="M 794 531 
L 1825 531 
L 1825 4091 
L 703 3866 
L 703 4441 
L 1819 4666 
L 2450 4666 
L 2450 531 
L 3481 531 
L 3481 0 
L 794 0 
L 794 531 
z
" transform="scale(0.015625)"/>
       </defs>
       <use xlink:href="#DejaVuSans-30"/>
       <use xlink:href="#DejaVuSans-2e" x="63.623047"/>
       <use xlink:href="#DejaVuSans-31" x="95.410156"/>
      </g>
     </g>
    </g>
    <g id="ytick_3">
     <g id="line2d_3">
      <path d="M 63.57125 190.607622 
L 450 190.607622 
" clip-path="url(#pb6c5205c9b)" style="fill: none; stroke: #cccccc; stroke-width: 0.8; stroke-linecap: round"/>
     </g>
     <g id="text_5">
      <!-- 0.2 -->
      <g style="fill: #262626" transform="translate(40.668125 194.40684)scale(0.1 -0.1)">
       <defs>
        <path id="DejaVuSans-32" d="M 1228 531 
L 3431 531 
L 3431 0 
L 469 0 
L 469 531 
Q 828 903 1448 1529 
Q 2069 2156 2228 2338 
Q 2531 2678 2651 2914 
Q 2772 3150 2772 3378 
Q 2772 3750 2511 3984 
Q 2250 4219 1831 4219 
Q 1534 4219 1204 4116 
Q 875 4013 500 3803 
L 500 4441 
Q 881 4594 1212 4672 
Q 1544 4750 1819 4750 
Q 2544 4750 2975 4387 
Q 3406 4025 3406 3419 
Q 3406 3131 3298 2873 
Q 3191 2616 2906 2266 
Q 2828 2175 2409 1742 
Q 1991 1309 1228 531 
z
" transform="scale(0.015625)"/>
       </defs>
       <use xlink:href="#DejaVuSans-30"/>
       <use xlink:href="#DejaVuSans-2e" x="63.623047"/>
       <use xlink:href="#DejaVuSans-32" x="95.410156"/>
      </g>
     </g>
    </g>
    <g id="ytick_4">
     <g id="line2d_4">
      <path d="M 63.57125 134.091433 
L 450 134.091433 
" clip-path="url(#pb6c5205c9b)" style="fill: none; stroke: #cccccc; stroke-width: 0.8; stroke-linecap: round"/>
     </g>
     <g id="text_6">
      <!-- 0.3 -->
      <g style="fill: #262626" transform="translate(40.668125 137.890651)scale(0.1 -0.1)">
       <defs>
        <path id="DejaVuSans-33" d="M 2597 2516 
Q 3050 2419 3304 2112 
Q 3559 1806 3559 1356 
Q 3559 666 3084 287 
Q 2609 -91 1734 -91 
Q 1441 -91 1130 -33 
Q 819 25 488 141 
L 488 750 
Q 750 597 1062 519 
Q 1375 441 1716 441 
Q 2309 441 2620 675 
Q 2931 909 2931 1356 
Q 2931 1769 2642 2001 
Q 2353 2234 1838 2234 
L 1294 2234 
L 1294 2753 
L 1863 2753 
Q 2328 2753 2575 2939 
Q 2822 3125 2822 3475 
Q 2822 3834 2567 4026 
Q 2313 4219 1838 4219 
Q 1578 4219 1281 4162 
Q 984 4106 628 3988 
L 628 4550 
Q 988 4650 1302 4700 
Q 1616 4750 1894 4750 
Q 2613 4750 3031 4423 
Q 3450 4097 3450 3541 
Q 3450 3153 3228 2886 
Q 3006 2619 2597 2516 
z
" transform="scale(0.015625)"/>
       </defs>
       <use xlink:href="#DejaVuSans-30"/>
       <use xlink:href="#DejaVuSans-2e" x="63.623047"/>
       <use xlink:href="#DejaVuSans-33" x="95.410156"/>
      </g>
     </g>
    </g>
    <g id="ytick_5">
     <g id="line2d_5">
      <path d="M 63.57125 77.575243 
L 450 77.575243 
" clip-path="url(#pb6c5205c9b)" style="fill: none; stroke: #cccccc; stroke-width: 0.8; stroke-linecap: round"/>
     </g>
     <g id="text_7">
      <!-- 0.4 -->
      <g style="fill: #262626" transform="translate(40.668125 81.374462)scale(0.1 -0.1)">
       <defs>
        <path id="DejaVuSans-34" d="M 2419 4116 
L 825 1625 
L 2419 1625 
L 2419 4116 
z
M 2253 4666 
L 3047 4666 
L 3047 1625 
L 3713 1625 
L 3713 1100 
L 3047 1100 
L 3047 0 
L 2419 0 
L 2419 1100 
L 313 1100 
L 313 1709 
L 2253 4666 
z
" transform="scale(0.015625)"/>
       </defs>
       <use xlink:href="#DejaVuSans-30"/>
       <use xlink:href="#DejaVuSans-2e" x="63.623047"/>
       <use xlink:href="#DejaVuSans-34" x="95.410156"/>
      </g>
     </g>
    </g>
    <g id="ytick_6">
     <g id="line2d_6">
      <path d="M 63.57125 21.059054 
L 450 21.059054 
" clip-path="url(#pb6c5205c9b)" style="fill: none; stroke: #cccccc; stroke-width: 0.8; stroke-linecap: round"/>
     </g>
     <g id="text_8">
      <!-- 0.5 -->
      <g style="fill: #262626" transform="translate(40.668125 24.858273)scale(0.1 -0.1)">
       <defs>
        <path id="DejaVuSans-35" d="M 691 4666 
L 3169 4666 
L 3169 4134 
L 1269 4134 
L 1269 2991 
Q 1406 3038 1543 3061 
Q 1681 3084 1819 3084 
Q 2600 3084 3056 2656 
Q 3513 2228 3513 1497 
Q 3513 744 3044 326 
Q 2575 -91 1722 -91 
Q 1428 -91 1123 -41 
Q 819 9 494 109 
L 494 744 
Q 775 591 1075 516 
Q 1375 441 1709 441 
Q 2250 441 2565 725 
Q 2881 1009 2881 1497 
Q 2881 1984 2565 2268 
Q 2250 2553 1709 2553 
Q 1456 2553 1204 2497 
Q 953 2441 691 2322 
L 691 4666 
z
" transform="scale(0.015625)"/>
       </defs>
       <use xlink:href="#DejaVuSans-30"/>
       <use xlink:href="#DejaVuSans-2e" x="63.623047"/>
       <use xlink:href="#DejaVuSans-35" x="95.410156"/>
      </g>
     </g>
    </g>
    <g id="text_9">
     <!-- PercentGpA -->
     <g style="fill: #262626" transform="translate(34.588438 186.496563)rotate(-90)scale(0.1 -0.1)">
      <defs>
       <path id="DejaVuSans-50" d="M 1259 4147 
L 1259 2394 
L 2053 2394 
Q 2494 2394 2734 2622 
Q 2975 2850 2975 3272 
Q 2975 3691 2734 3919 
Q 2494 4147 2053 4147 
L 1259 4147 
z
M 628 4666 
L 2053 4666 
Q 2838 4666 3239 4311 
Q 3641 3956 3641 3272 
Q 3641 2581 3239 2228 
Q 2838 1875 2053 1875 
L 1259 1875 
L 1259 0 
L 628 0 
L 628 4666 
z
" transform="scale(0.015625)"/>
       <path id="DejaVuSans-65" d="M 3597 1894 
L 3597 1613 
L 953 1613 
Q 991 1019 1311 708 
Q 1631 397 2203 397 
Q 2534 397 2845 478 
Q 3156 559 3463 722 
L 3463 178 
Q 3153 47 2828 -22 
Q 2503 -91 2169 -91 
Q 1331 -91 842 396 
Q 353 884 353 1716 
Q 353 2575 817 3079 
Q 1281 3584 2069 3584 
Q 2775 3584 3186 3129 
Q 3597 2675 3597 1894 
z
M 3022 2063 
Q 3016 2534 2758 2815 
Q 2500 3097 2075 3097 
Q 1594 3097 1305 2825 
Q 1016 2553 972 2059 
L 3022 2063 
z
" transform="scale(0.015625)"/>
       <path id="DejaVuSans-72" d="M 2631 2963 
Q 2534 3019 2420 3045 
Q 2306 3072 2169 3072 
Q 1681 3072 1420 2755 
Q 1159 2438 1159 1844 
L 1159 0 
L 581 0 
L 581 3500 
L 1159 3500 
L 1159 2956 
Q 1341 3275 1631 3429 
Q 1922 3584 2338 3584 
Q 2397 3584 2469 3576 
Q 2541 3569 2628 3553 
L 2631 2963 
z
" transform="scale(0.015625)"/>
       <path id="DejaVuSans-63" d="M 3122 3366 
L 3122 2828 
Q 2878 2963 2633 3030 
Q 2388 3097 2138 3097 
Q 1578 3097 1268 2742 
Q 959 2388 959 1747 
Q 959 1106 1268 751 
Q 1578 397 2138 397 
Q 2388 397 2633 464 
Q 2878 531 3122 666 
L 3122 134 
Q 2881 22 2623 -34 
Q 2366 -91 2075 -91 
Q 1284 -91 818 406 
Q 353 903 353 1747 
Q 353 2603 823 3093 
Q 1294 3584 2113 3584 
Q 2378 3584 2631 3529 
Q 2884 3475 3122 3366 
z
" transform="scale(0.015625)"/>
       <path id="DejaVuSans-6e" d="M 3513 2113 
L 3513 0 
L 2938 0 
L 2938 2094 
Q 2938 2591 2744 2837 
Q 2550 3084 2163 3084 
Q 1697 3084 1428 2787 
Q 1159 2491 1159 1978 
L 1159 0 
L 581 0 
L 581 3500 
L 1159 3500 
L 1159 2956 
Q 1366 3272 1645 3428 
Q 1925 3584 2291 3584 
Q 2894 3584 3203 3211 
Q 3513 2838 3513 2113 
z
" transform="scale(0.015625)"/>
       <path id="DejaVuSans-47" d="M 3809 666 
L 3809 1919 
L 2778 1919 
L 2778 2438 
L 4434 2438 
L 4434 434 
Q 4069 175 3628 42 
Q 3188 -91 2688 -91 
Q 1594 -91 976 548 
Q 359 1188 359 2328 
Q 359 3472 976 4111 
Q 1594 4750 2688 4750 
Q 3144 4750 3555 4637 
Q 3966 4525 4313 4306 
L 4313 3634 
Q 3963 3931 3569 4081 
Q 3175 4231 2741 4231 
Q 1884 4231 1454 3753 
Q 1025 3275 1025 2328 
Q 1025 1384 1454 906 
Q 1884 428 2741 428 
Q 3075 428 3337 486 
Q 3600 544 3809 666 
z
" transform="scale(0.015625)"/>
       <path id="DejaVuSans-70" d="M 1159 525 
L 1159 -1331 
L 581 -1331 
L 581 3500 
L 1159 3500 
L 1159 2969 
Q 1341 3281 1617 3432 
Q 1894 3584 2278 3584 
Q 2916 3584 3314 3078 
Q 3713 2572 3713 1747 
Q 3713 922 3314 415 
Q 2916 -91 2278 -91 
Q 1894 -91 1617 61 
Q 1341 213 1159 525 
z
M 3116 1747 
Q 3116 2381 2855 2742 
Q 2594 3103 2138 3103 
Q 1681 3103 1420 2742 
Q 1159 2381 1159 1747 
Q 1159 1113 1420 752 
Q 1681 391 2138 391 
Q 2594 391 2855 752 
Q 3116 1113 3116 1747 
z
" transform="scale(0.015625)"/>
      </defs>
      <use xlink:href="#DejaVuSans-50"/>
      <use xlink:href="#DejaVuSans-65" x="56.677734"/>
      <use xlink:href="#DejaVuSans-72" x="118.201172"/>
      <use xlink:href="#DejaVuSans-63" x="157.064453"/>
      <use xlink:href="#DejaVuSans-65" x="212.044922"/>
      <use xlink:href="#DejaVuSans-6e" x="273.568359"/>
      <use xlink:href="#DejaVuSans-74" x="336.947266"/>
      <use xlink:href="#DejaVuSans-47" x="376.15625"/>
      <use xlink:href="#DejaVuSans-70" x="453.646484"/>
      <use xlink:href="#DejaVuSans-41" x="517.123047"/>
     </g>
    </g>
   </g>
   <g id="patch_3">
    <path d="M 103.75984 235.677468 
L 255.23991 235.677468 
L 255.23991 173.304304 
L 103.75984 173.304304 
L 103.75984 235.677468 
z
" clip-path="url(#pb6c5205c9b)" style="fill: #ecf2ec; stroke: #262626; stroke-width: 1.5; stroke-linejoin: miter"/>
   </g>
   <g id="patch_4">
    <path d="M 258.33134 214.203744 
L 409.81141 214.203744 
L 409.81141 144.689004 
L 258.33134 144.689004 
L 258.33134 214.203744 
z
" clip-path="url(#pb6c5205c9b)" style="fill: #107010; stroke: #262626; stroke-width: 1.5; stroke-linejoin: miter"/>
   </g>
   <g id="patch_5">
    <path d="M 256.785625 303.64 
L 256.785625 303.64 
L 256.785625 303.64 
L 256.785625 303.64 
z
" clip-path="url(#pb6c5205c9b)" style="fill: #ecf2ec; stroke: #262626; stroke-width: 0.75; stroke-linejoin: miter"/>
   </g>
   <g id="patch_6">
    <path d="M 256.785625 303.64 
L 256.785625 303.64 
L 256.785625 303.64 
L 256.785625 303.64 
z
" clip-path="url(#pb6c5205c9b)" style="fill: #107010; stroke: #262626; stroke-width: 0.75; stroke-linejoin: miter"/>
   </g>
   <g id="PathCollection_1"/>
   <g id="PathCollection_2"/>
   <g id="line2d_7">
    <path d="M 179.499875 235.677468 
L 179.499875 326.556767 
" clip-path="url(#pb6c5205c9b)" style="fill: none; stroke: #262626; stroke-width: 1.5; stroke-linecap: round"/>
   </g>
   <g id="line2d_8">
    <path d="M 179.499875 173.304304 
L 179.499875 134.781586 
" clip-path="url(#pb6c5205c9b)" style="fill: none; stroke: #262626; stroke-width: 1.5; stroke-linecap: round"/>
   </g>
   <g id="line2d_9">
    <path d="M 141.629857 326.556767 
L 217.369892 326.556767 
" clip-path="url(#pb6c5205c9b)" style="fill: none; stroke: #262626; stroke-width: 1.5; stroke-linecap: round"/>
   </g>
   <g id="line2d_10">
    <path d="M 141.629857 134.781586 
L 217.369892 134.781586 
" clip-path="url(#pb6c5205c9b)" style="fill: none; stroke: #262626; stroke-width: 1.5; stroke-linecap: round"/>
   </g>
   <g id="line2d_11"/>
   <g id="line2d_12">
    <path d="M 334.071375 214.203744 
L 334.071375 281.942227 
" clip-path="url(#pb6c5205c9b)" style="fill: none; stroke: #262626; stroke-width: 1.5; stroke-linecap: round"/>
   </g>
   <g id="line2d_13">
    <path d="M 334.071375 144.689004 
L 334.071375 69.772201 
" clip-path="url(#pb6c5205c9b)" style="fill: none; stroke: #262626; stroke-width: 1.5; stroke-linecap: round"/>
   </g>
   <g id="line2d_14">
    <path d="M 296.201357 281.942227 
L 371.941393 281.942227 
" clip-path="url(#pb6c5205c9b)" style="fill: none; stroke: #262626; stroke-width: 1.5; stroke-linecap: round"/>
   </g>
   <g id="line2d_15">
    <path d="M 296.201357 69.772201 
L 371.941393 69.772201 
" clip-path="url(#pb6c5205c9b)" style="fill: none; stroke: #262626; stroke-width: 1.5; stroke-linecap: round"/>
   </g>
   <g id="line2d_16">
    <defs>
     <path id="m7fd9541a38" d="M -0 1.414214 
L 0.848528 0 
L 0 -1.414214 
L -0.848528 -0 
z
" style="stroke: #262626; stroke-linejoin: miter"/>
    </defs>
    <g clip-path="url(#pb6c5205c9b)">
     <use xlink:href="#m7fd9541a38" x="334.071375" y="405.924015" style="fill: #262626; stroke: #262626; stroke-linejoin: miter"/>
     <use xlink:href="#m7fd9541a38" x="334.071375" y="37.421818" style="fill: #262626; stroke: #262626; stroke-linejoin: miter"/>
    </g>
   </g>
   <g id="line2d_17">
    <path d="M 103.75984 197.813515 
L 255.23991 197.813515 
" clip-path="url(#pb6c5205c9b)" style="fill: none; stroke: #262626; stroke-width: 1.5; stroke-linecap: round"/>
   </g>
   <g id="line2d_18">
    <path d="M 258.33134 178.270636 
L 409.81141 178.270636 
" clip-path="url(#pb6c5205c9b)" style="fill: none; stroke: #262626; stroke-width: 1.5; stroke-linecap: round"/>
   </g>
   <g id="patch_7">
    <path d="M 63.57125 303.64 
L 63.57125 10.8 
" style="fill: none; stroke: #cccccc; stroke-width: 0.8; stroke-linejoin: miter; stroke-linecap: square"/>
   </g>
   <g id="patch_8">
    <path d="M 450 303.64 
L 450 10.8 
" style="fill: none; stroke: #cccccc; stroke-width: 0.8; stroke-linejoin: miter; stroke-linecap: square"/>
   </g>
   <g id="patch_9">
    <path d="M 63.57125 303.64 
L 450 303.64 
" style="fill: none; stroke: #cccccc; stroke-width: 0.8; stroke-linejoin: miter; stroke-linecap: square"/>
   </g>
   <g id="patch_10">
    <path d="M 63.57125 10.8 
L 450 10.8 
" style="fill: none; stroke: #cccccc; stroke-width: 0.8; stroke-linejoin: miter; stroke-linecap: square"/>
   </g>
   <g id="PathCollection_3">
    <defs>
     <path id="C0_0_df348bcb59" d="M 0 1 
C 0.265203 1 0.51958 0.894634 0.707107 0.707107 
C 0.894634 0.51958 1 0.265203 1 -0 
C 1 -0.265203 0.894634 -0.51958 0.707107 -0.707107 
C 0.51958 -0.894634 0.265203 -1 0 -1 
C -0.265203 -1 -0.51958 -0.894634 -0.707107 -0.707107 
C -0.894634 -0.51958 -1 -0.265203 -1 0 
C -1 0.265203 -0.894634 0.51958 -0.707107 0.707107 
C -0.51958 0.894634 -0.265203 1 0 1 
z
"/>
    </defs>
    <g clip-path="url(#pb6c5205c9b)">
     <use xlink:href="#C0_0_df348bcb59" x="189.888387" y="156.686407" style="fill: #262626"/>
    </g>
    <g clip-path="url(#pb6c5205c9b)">
     <use xlink:href="#C0_0_df348bcb59" x="170.35426" y="219.584469" style="fill: #262626"/>
    </g>
    <g clip-path="url(#pb6c5205c9b)">
     <use xlink:href="#C0_0_df348bcb59" x="193.773582" y="173.562665" style="fill: #262626"/>
    </g>
    <g clip-path="url(#pb6c5205c9b)">
     <use xlink:href="#C0_0_df348bcb59" x="197.460663" y="194.94114" style="fill: #262626"/>
    </g>
    <g clip-path="url(#pb6c5205c9b)">
     <use xlink:href="#C0_0_df348bcb59" x="179.457117" y="190.129685" style="fill: #262626"/>
    </g>
    <g clip-path="url(#pb6c5205c9b)">
     <use xlink:href="#C0_0_df348bcb59" x="191.590522" y="249.790418" style="fill: #262626"/>
    </g>
    <g clip-path="url(#pb6c5205c9b)">
     <use xlink:href="#C0_0_df348bcb59" x="167.258002" y="215.240746" style="fill: #262626"/>
    </g>
    <g clip-path="url(#pb6c5205c9b)">
     <use xlink:href="#C0_0_df348bcb59" x="190.386577" y="187.592979" style="fill: #262626"/>
    </g>
    <g clip-path="url(#pb6c5205c9b)">
     <use xlink:href="#C0_0_df348bcb59" x="162.317389" y="160.850102" style="fill: #262626"/>
    </g>
    <g clip-path="url(#pb6c5205c9b)">
     <use xlink:href="#C0_0_df348bcb59" x="189.013666" y="195.975323" style="fill: #262626"/>
    </g>
    <g clip-path="url(#pb6c5205c9b)">
     <use xlink:href="#C0_0_df348bcb59" x="161.549544" y="175.636017" style="fill: #262626"/>
    </g>
    <g clip-path="url(#pb6c5205c9b)">
     <use xlink:href="#C0_0_df348bcb59" x="188.215259" y="188.870767" style="fill: #262626"/>
    </g>
    <g clip-path="url(#pb6c5205c9b)">
     <use xlink:href="#C0_0_df348bcb59" x="164.470935" y="213.795122" style="fill: #262626"/>
    </g>
    <g clip-path="url(#pb6c5205c9b)">
     <use xlink:href="#C0_0_df348bcb59" x="198.703165" y="239.948694" style="fill: #262626"/>
    </g>
    <g clip-path="url(#pb6c5205c9b)">
     <use xlink:href="#C0_0_df348bcb59" x="170.2423" y="277.012196" style="fill: #262626"/>
    </g>
    <g clip-path="url(#pb6c5205c9b)">
     <use xlink:href="#C0_0_df348bcb59" x="174.476347" y="169.922583" style="fill: #262626"/>
    </g>
    <g clip-path="url(#pb6c5205c9b)">
     <use xlink:href="#C0_0_df348bcb59" x="184.294447" y="160.737908" style="fill: #262626"/>
    </g>
    <g clip-path="url(#pb6c5205c9b)">
     <use xlink:href="#C0_0_df348bcb59" x="189.713386" y="151.040776" style="fill: #262626"/>
    </g>
    <g clip-path="url(#pb6c5205c9b)">
     <use xlink:href="#C0_0_df348bcb59" x="196.116504" y="185.839294" style="fill: #262626"/>
    </g>
    <g clip-path="url(#pb6c5205c9b)">
     <use xlink:href="#C0_0_df348bcb59" x="166.082514" y="174.306904" style="fill: #262626"/>
    </g>
    <g clip-path="url(#pb6c5205c9b)">
     <use xlink:href="#C0_0_df348bcb59" x="180.702616" y="212.944596" style="fill: #262626"/>
    </g>
    <g clip-path="url(#pb6c5205c9b)">
     <use xlink:href="#C0_0_df348bcb59" x="178.627501" y="134.781586" style="fill: #262626"/>
    </g>
    <g clip-path="url(#pb6c5205c9b)">
     <use xlink:href="#C0_0_df348bcb59" x="180.039913" y="224.917711" style="fill: #262626"/>
    </g>
    <g clip-path="url(#pb6c5205c9b)">
     <use xlink:href="#C0_0_df348bcb59" x="164.711873" y="200.27009" style="fill: #262626"/>
    </g>
    <g clip-path="url(#pb6c5205c9b)">
     <use xlink:href="#C0_0_df348bcb59" x="165.523719" y="144.086981" style="fill: #262626"/>
    </g>
    <g clip-path="url(#pb6c5205c9b)">
     <use xlink:href="#C0_0_df348bcb59" x="163.112018" y="208.744787" style="fill: #262626"/>
    </g>
    <g clip-path="url(#pb6c5205c9b)">
     <use xlink:href="#C0_0_df348bcb59" x="180.824353" y="207.42034" style="fill: #262626"/>
    </g>
    <g clip-path="url(#pb6c5205c9b)">
     <use xlink:href="#C0_0_df348bcb59" x="190.020396" y="236.846871" style="fill: #262626"/>
    </g>
    <g clip-path="url(#pb6c5205c9b)">
     <use xlink:href="#C0_0_df348bcb59" x="185.333981" y="226.719446" style="fill: #262626"/>
    </g>
    <g clip-path="url(#pb6c5205c9b)">
     <use xlink:href="#C0_0_df348bcb59" x="189.7709" y="163.998967" style="fill: #262626"/>
    </g>
    <g clip-path="url(#pb6c5205c9b)">
     <use xlink:href="#C0_0_df348bcb59" x="196.592422" y="200.193429" style="fill: #262626"/>
    </g>
    <g clip-path="url(#pb6c5205c9b)">
     <use xlink:href="#C0_0_df348bcb59" x="163.889134" y="234.40243" style="fill: #262626"/>
    </g>
    <g clip-path="url(#pb6c5205c9b)">
     <use xlink:href="#C0_0_df348bcb59" x="198.016528" y="305.595317" style="fill: #262626"/>
    </g>
    <g clip-path="url(#pb6c5205c9b)">
     <use xlink:href="#C0_0_df348bcb59" x="168.142099" y="224.593057" style="fill: #262626"/>
    </g>
    <g clip-path="url(#pb6c5205c9b)">
     <use xlink:href="#C0_0_df348bcb59" x="161.037165" y="146.544016" style="fill: #262626"/>
    </g>
    <g clip-path="url(#pb6c5205c9b)">
     <use xlink:href="#C0_0_df348bcb59" x="186.119105" y="152.096845" style="fill: #262626"/>
    </g>
    <g clip-path="url(#pb6c5205c9b)">
     <use xlink:href="#C0_0_df348bcb59" x="194.49881" y="186.677092" style="fill: #262626"/>
    </g>
    <g clip-path="url(#pb6c5205c9b)">
     <use xlink:href="#C0_0_df348bcb59" x="189.742895" y="168.123233" style="fill: #262626"/>
    </g>
    <g clip-path="url(#pb6c5205c9b)">
     <use xlink:href="#C0_0_df348bcb59" x="164.029732" y="207.25971" style="fill: #262626"/>
    </g>
    <g clip-path="url(#pb6c5205c9b)">
     <use xlink:href="#C0_0_df348bcb59" x="198.259475" y="310.195271" style="fill: #262626"/>
    </g>
    <g clip-path="url(#pb6c5205c9b)">
     <use xlink:href="#C0_0_df348bcb59" x="195.197739" y="140.107897" style="fill: #262626"/>
    </g>
    <g clip-path="url(#pb6c5205c9b)">
     <use xlink:href="#C0_0_df348bcb59" x="164.403633" y="279.18106" style="fill: #262626"/>
    </g>
    <g clip-path="url(#pb6c5205c9b)">
     <use xlink:href="#C0_0_df348bcb59" x="196.515156" y="150.255913" style="fill: #262626"/>
    </g>
    <g clip-path="url(#pb6c5205c9b)">
     <use xlink:href="#C0_0_df348bcb59" x="169.75762" y="196.686723" style="fill: #262626"/>
    </g>
    <g clip-path="url(#pb6c5205c9b)">
     <use xlink:href="#C0_0_df348bcb59" x="174.686687" y="197.813515" style="fill: #262626"/>
    </g>
    <g clip-path="url(#pb6c5205c9b)">
     <use xlink:href="#C0_0_df348bcb59" x="160.428974" y="275.796831" style="fill: #262626"/>
    </g>
    <g clip-path="url(#pb6c5205c9b)">
     <use xlink:href="#C0_0_df348bcb59" x="167.240818" y="211.425798" style="fill: #262626"/>
    </g>
    <g clip-path="url(#pb6c5205c9b)">
     <use xlink:href="#C0_0_df348bcb59" x="178.299526" y="179.810597" style="fill: #262626"/>
    </g>
    <g clip-path="url(#pb6c5205c9b)">
     <use xlink:href="#C0_0_df348bcb59" x="185.642062" y="157.816336" style="fill: #262626"/>
    </g>
    <g clip-path="url(#pb6c5205c9b)">
     <use xlink:href="#C0_0_df348bcb59" x="182.192067" y="244.202407" style="fill: #262626"/>
    </g>
    <g clip-path="url(#pb6c5205c9b)">
     <use xlink:href="#C0_0_df348bcb59" x="196.258367" y="197.306466" style="fill: #262626"/>
    </g>
    <g clip-path="url(#pb6c5205c9b)">
     <use xlink:href="#C0_0_df348bcb59" x="167.535208" y="282.357186" style="fill: #262626"/>
    </g>
    <g clip-path="url(#pb6c5205c9b)">
     <use xlink:href="#C0_0_df348bcb59" x="197.716173" y="191.522104" style="fill: #262626"/>
    </g>
    <g clip-path="url(#pb6c5205c9b)">
     <use xlink:href="#C0_0_df348bcb59" x="164.083609" y="223.205706" style="fill: #262626"/>
    </g>
    <g clip-path="url(#pb6c5205c9b)">
     <use xlink:href="#C0_0_df348bcb59" x="196.366676" y="326.556767" style="fill: #262626"/>
    </g>
    <g clip-path="url(#pb6c5205c9b)">
     <use xlink:href="#C0_0_df348bcb59" x="185.235998" y="193.129186" style="fill: #262626"/>
    </g>
    <g clip-path="url(#pb6c5205c9b)">
     <use xlink:href="#C0_0_df348bcb59" x="186.199045" y="154.193764" style="fill: #262626"/>
    </g>
    <g clip-path="url(#pb6c5205c9b)">
     <use xlink:href="#C0_0_df348bcb59" x="168.449682" y="266.519907" style="fill: #262626"/>
    </g>
    <g clip-path="url(#pb6c5205c9b)">
     <use xlink:href="#C0_0_df348bcb59" x="186.853511" y="173.580517" style="fill: #262626"/>
    </g>
    <g clip-path="url(#pb6c5205c9b)">
     <use xlink:href="#C0_0_df348bcb59" x="194.529995" y="194.852829" style="fill: #262626"/>
    </g>
    <g clip-path="url(#pb6c5205c9b)">
     <use xlink:href="#C0_0_df348bcb59" x="184.359303" y="178.441748" style="fill: #262626"/>
    </g>
    <g clip-path="url(#pb6c5205c9b)">
     <use xlink:href="#C0_0_df348bcb59" x="176.325681" y="272.225753" style="fill: #262626"/>
    </g>
    <g clip-path="url(#pb6c5205c9b)">
     <use xlink:href="#C0_0_df348bcb59" x="169.57352" y="194.587501" style="fill: #262626"/>
    </g>
    <g clip-path="url(#pb6c5205c9b)">
     <use xlink:href="#C0_0_df348bcb59" x="166.375929" y="209.270629" style="fill: #262626"/>
    </g>
    <g clip-path="url(#pb6c5205c9b)">
     <use xlink:href="#C0_0_df348bcb59" x="162.371691" y="196.212473" style="fill: #262626"/>
    </g>
    <g clip-path="url(#pb6c5205c9b)">
     <use xlink:href="#C0_0_df348bcb59" x="172.478104" y="171.39091" style="fill: #262626"/>
    </g>
    <g clip-path="url(#pb6c5205c9b)">
     <use xlink:href="#C0_0_df348bcb59" x="179.571021" y="254.58862" style="fill: #262626"/>
    </g>
    <g clip-path="url(#pb6c5205c9b)">
     <use xlink:href="#C0_0_df348bcb59" x="194.123609" y="161.632835" style="fill: #262626"/>
    </g>
    <g clip-path="url(#pb6c5205c9b)">
     <use xlink:href="#C0_0_df348bcb59" x="172.618895" y="224.640431" style="fill: #262626"/>
    </g>
    <g clip-path="url(#pb6c5205c9b)">
     <use xlink:href="#C0_0_df348bcb59" x="181.144558" y="278.585033" style="fill: #262626"/>
    </g>
    <g clip-path="url(#pb6c5205c9b)">
     <use xlink:href="#C0_0_df348bcb59" x="178.356029" y="252.850911" style="fill: #262626"/>
    </g>
    <g clip-path="url(#pb6c5205c9b)">
     <use xlink:href="#C0_0_df348bcb59" x="183.744189" y="187.862607" style="fill: #262626"/>
    </g>
    <g clip-path="url(#pb6c5205c9b)">
     <use xlink:href="#C0_0_df348bcb59" x="190.660362" y="182.98371" style="fill: #262626"/>
    </g>
    <g clip-path="url(#pb6c5205c9b)">
     <use xlink:href="#C0_0_df348bcb59" x="164.863172" y="268.52956" style="fill: #262626"/>
    </g>
    <g clip-path="url(#pb6c5205c9b)">
     <use xlink:href="#C0_0_df348bcb59" x="166.575246" y="242.682509" style="fill: #262626"/>
    </g>
    <g clip-path="url(#pb6c5205c9b)">
     <use xlink:href="#C0_0_df348bcb59" x="184.268863" y="244.799262" style="fill: #262626"/>
    </g>
    <g clip-path="url(#pb6c5205c9b)">
     <use xlink:href="#C0_0_df348bcb59" x="192.503544" y="216.476832" style="fill: #262626"/>
    </g>
    <g clip-path="url(#pb6c5205c9b)">
     <use xlink:href="#C0_0_df348bcb59" x="173.289565" y="229.805736" style="fill: #262626"/>
    </g>
    <g clip-path="url(#pb6c5205c9b)">
     <use xlink:href="#C0_0_df348bcb59" x="181.855832" y="235.677468" style="fill: #262626"/>
    </g>
    <g clip-path="url(#pb6c5205c9b)">
     <use xlink:href="#C0_0_df348bcb59" x="173.623305" y="245.70039" style="fill: #262626"/>
    </g>
    <g clip-path="url(#pb6c5205c9b)">
     <use xlink:href="#C0_0_df348bcb59" x="191.625397" y="207.815618" style="fill: #262626"/>
    </g>
    <g clip-path="url(#pb6c5205c9b)">
     <use xlink:href="#C0_0_df348bcb59" x="190.815005" y="169.157446" style="fill: #262626"/>
    </g>
    <g clip-path="url(#pb6c5205c9b)">
     <use xlink:href="#C0_0_df348bcb59" x="182.798738" y="221.863015" style="fill: #262626"/>
    </g>
    <g clip-path="url(#pb6c5205c9b)">
     <use xlink:href="#C0_0_df348bcb59" x="181.256667" y="208.912723" style="fill: #262626"/>
    </g>
    <g clip-path="url(#pb6c5205c9b)">
     <use xlink:href="#C0_0_df348bcb59" x="197.844424" y="245.126061" style="fill: #262626"/>
    </g>
    <g clip-path="url(#pb6c5205c9b)">
     <use xlink:href="#C0_0_df348bcb59" x="197.015452" y="135.663144" style="fill: #262626"/>
    </g>
    <g clip-path="url(#pb6c5205c9b)">
     <use xlink:href="#C0_0_df348bcb59" x="177.256927" y="174.021359" style="fill: #262626"/>
    </g>
    <g clip-path="url(#pb6c5205c9b)">
     <use xlink:href="#C0_0_df348bcb59" x="160.400046" y="159.176186" style="fill: #262626"/>
    </g>
    <g clip-path="url(#pb6c5205c9b)">
     <use xlink:href="#C0_0_df348bcb59" x="173.733327" y="238.185404" style="fill: #262626"/>
    </g>
    <g clip-path="url(#pb6c5205c9b)">
     <use xlink:href="#C0_0_df348bcb59" x="174.186756" y="195.748704" style="fill: #262626"/>
    </g>
    <g clip-path="url(#pb6c5205c9b)">
     <use xlink:href="#C0_0_df348bcb59" x="189.191177" y="211.09889" style="fill: #262626"/>
    </g>
    <g clip-path="url(#pb6c5205c9b)">
     <use xlink:href="#C0_0_df348bcb59" x="163.701756" y="289.963427" style="fill: #262626"/>
    </g>
    <g clip-path="url(#pb6c5205c9b)">
     <use xlink:href="#C0_0_df348bcb59" x="184.257626" y="173.304304" style="fill: #262626"/>
    </g>
    <g clip-path="url(#pb6c5205c9b)">
     <use xlink:href="#C0_0_df348bcb59" x="161.636835" y="148.802634" style="fill: #262626"/>
    </g>
    <g clip-path="url(#pb6c5205c9b)">
     <use xlink:href="#C0_0_df348bcb59" x="186.927626" y="218.555421" style="fill: #262626"/>
    </g>
    <g clip-path="url(#pb6c5205c9b)">
     <use xlink:href="#C0_0_df348bcb59" x="161.139915" y="253.59938" style="fill: #262626"/>
    </g>
    <g clip-path="url(#pb6c5205c9b)">
     <use xlink:href="#C0_0_df348bcb59" x="193.428931" y="257.934444" style="fill: #262626"/>
    </g>
    <g clip-path="url(#pb6c5205c9b)">
     <use xlink:href="#C0_0_df348bcb59" x="168.384793" y="163.073044" style="fill: #262626"/>
    </g>
    <g clip-path="url(#pb6c5205c9b)">
     <use xlink:href="#C0_0_df348bcb59" x="178.218597" y="161.044915" style="fill: #262626"/>
    </g>
    <g clip-path="url(#pb6c5205c9b)">
     <use xlink:href="#C0_0_df348bcb59" x="163.255208" y="185.477641" style="fill: #262626"/>
    </g>
    <g clip-path="url(#pb6c5205c9b)">
     <use xlink:href="#C0_0_df348bcb59" x="160.214513" y="229.010958" style="fill: #262626"/>
    </g>
    <g clip-path="url(#pb6c5205c9b)">
     <use xlink:href="#C0_0_df348bcb59" x="174.7901" y="159.512366" style="fill: #262626"/>
    </g>
    <g clip-path="url(#pb6c5205c9b)">
     <use xlink:href="#C0_0_df348bcb59" x="186.866794" y="202.950581" style="fill: #262626"/>
    </g>
    <g clip-path="url(#pb6c5205c9b)">
     <use xlink:href="#C0_0_df348bcb59" x="194.892607" y="137.769899" style="fill: #262626"/>
    </g>
    <g clip-path="url(#pb6c5205c9b)">
     <use xlink:href="#C0_0_df348bcb59" x="171.112061" y="249.870627" style="fill: #262626"/>
    </g>
    <g clip-path="url(#pb6c5205c9b)">
     <use xlink:href="#C0_0_df348bcb59" x="190.028138" y="158.857669" style="fill: #262626"/>
    </g>
    <g clip-path="url(#pb6c5205c9b)">
     <use xlink:href="#C0_0_df348bcb59" x="175.365695" y="202.807762" style="fill: #262626"/>
    </g>
    <g clip-path="url(#pb6c5205c9b)">
     <use xlink:href="#C0_0_df348bcb59" x="165.714533" y="145.13014" style="fill: #262626"/>
    </g>
    <g clip-path="url(#pb6c5205c9b)">
     <use xlink:href="#C0_0_df348bcb59" x="188.056934" y="166.710745" style="fill: #262626"/>
    </g>
    <g clip-path="url(#pb6c5205c9b)">
     <use xlink:href="#C0_0_df348bcb59" x="167.715206" y="184.273895" style="fill: #262626"/>
    </g>
    <g clip-path="url(#pb6c5205c9b)">
     <use xlink:href="#C0_0_df348bcb59" x="162.122554" y="255.385773" style="fill: #262626"/>
    </g>
    <g clip-path="url(#pb6c5205c9b)">
     <use xlink:href="#C0_0_df348bcb59" x="161.009243" y="178.780069" style="fill: #262626"/>
    </g>
    <g clip-path="url(#pb6c5205c9b)">
     <use xlink:href="#C0_0_df348bcb59" x="192.379888" y="250.906931" style="fill: #262626"/>
    </g>
   </g>
   <g id="PathCollection_4">
    <defs>
     <path id="C1_0_4af96a0e8f" d="M 0 1 
C 0.265203 1 0.51958 0.894634 0.707107 0.707107 
C 0.894634 0.51958 1 0.265203 1 -0 
C 1 -0.265203 0.894634 -0.51958 0.707107 -0.707107 
C 0.51958 -0.894634 0.265203 -1 0 -1 
C -0.265203 -1 -0.51958 -0.894634 -0.707107 -0.707107 
C -0.894634 -0.51958 -1 -0.265203 -1 0 
C -1 0.265203 -0.894634 0.51958 -0.707107 0.707107 
C -0.51958 0.894634 -0.265203 1 0 1 
z
"/>
    </defs>
    <g clip-path="url(#pb6c5205c9b)">
     <use xlink:href="#C1_0_4af96a0e8f" x="316.119401" y="218.828057"/>
    </g>
    <g clip-path="url(#pb6c5205c9b)">
     <use xlink:href="#C1_0_4af96a0e8f" x="338.136416" y="172.038034"/>
    </g>
    <g clip-path="url(#pb6c5205c9b)">
     <use xlink:href="#C1_0_4af96a0e8f" x="347.611758" y="146.07217"/>
    </g>
    <g clip-path="url(#pb6c5205c9b)">
     <use xlink:href="#C1_0_4af96a0e8f" x="353.160232" y="213.262021"/>
    </g>
    <g clip-path="url(#pb6c5205c9b)">
     <use xlink:href="#C1_0_4af96a0e8f" x="337.564475" y="188.398203"/>
    </g>
    <g clip-path="url(#pb6c5205c9b)">
     <use xlink:href="#C1_0_4af96a0e8f" x="327.297072" y="123.899792"/>
    </g>
    <g clip-path="url(#pb6c5205c9b)">
     <use xlink:href="#C1_0_4af96a0e8f" x="346.747239" y="207.01522"/>
    </g>
    <g clip-path="url(#pb6c5205c9b)">
     <use xlink:href="#C1_0_4af96a0e8f" x="340.648906" y="88.937259"/>
    </g>
    <g clip-path="url(#pb6c5205c9b)">
     <use xlink:href="#C1_0_4af96a0e8f" x="331.642948" y="79.577841"/>
    </g>
    <g clip-path="url(#pb6c5205c9b)">
     <use xlink:href="#C1_0_4af96a0e8f" x="326.683017" y="144.227948"/>
    </g>
    <g clip-path="url(#pb6c5205c9b)">
     <use xlink:href="#C1_0_4af96a0e8f" x="330.060426" y="214.517652"/>
    </g>
    <g clip-path="url(#pb6c5205c9b)">
     <use xlink:href="#C1_0_4af96a0e8f" x="342.723771" y="107.340363"/>
    </g>
    <g clip-path="url(#pb6c5205c9b)">
     <use xlink:href="#C1_0_4af96a0e8f" x="345.301962" y="245.102795"/>
    </g>
    <g clip-path="url(#pb6c5205c9b)">
     <use xlink:href="#C1_0_4af96a0e8f" x="348.799448" y="95.941603"/>
    </g>
    <g clip-path="url(#pb6c5205c9b)">
     <use xlink:href="#C1_0_4af96a0e8f" x="326.176362" y="177.310211"/>
    </g>
    <g clip-path="url(#pb6c5205c9b)">
     <use xlink:href="#C1_0_4af96a0e8f" x="333.763138" y="69.772201"/>
    </g>
    <g clip-path="url(#pb6c5205c9b)">
     <use xlink:href="#C1_0_4af96a0e8f" x="318.255213" y="164.693982"/>
    </g>
    <g clip-path="url(#pb6c5205c9b)">
     <use xlink:href="#C1_0_4af96a0e8f" x="322.700715" y="275.727211"/>
    </g>
    <g clip-path="url(#pb6c5205c9b)">
     <use xlink:href="#C1_0_4af96a0e8f" x="347.97602" y="231.694262"/>
    </g>
    <g clip-path="url(#pb6c5205c9b)">
     <use xlink:href="#C1_0_4af96a0e8f" x="346.750597" y="252.984088"/>
    </g>
    <g clip-path="url(#pb6c5205c9b)">
     <use xlink:href="#C1_0_4af96a0e8f" x="329.088604" y="184.659038"/>
    </g>
    <g clip-path="url(#pb6c5205c9b)">
     <use xlink:href="#C1_0_4af96a0e8f" x="333.018261" y="142.59373"/>
    </g>
    <g clip-path="url(#pb6c5205c9b)">
     <use xlink:href="#C1_0_4af96a0e8f" x="340.071408" y="149.254876"/>
    </g>
    <g clip-path="url(#pb6c5205c9b)">
     <use xlink:href="#C1_0_4af96a0e8f" x="322.187702" y="124.402712"/>
    </g>
    <g clip-path="url(#pb6c5205c9b)">
     <use xlink:href="#C1_0_4af96a0e8f" x="344.643736" y="195.683809"/>
    </g>
    <g clip-path="url(#pb6c5205c9b)">
     <use xlink:href="#C1_0_4af96a0e8f" x="342.289711" y="175.769195"/>
    </g>
    <g clip-path="url(#pb6c5205c9b)">
     <use xlink:href="#C1_0_4af96a0e8f" x="334.903865" y="188.413575"/>
    </g>
    <g clip-path="url(#pb6c5205c9b)">
     <use xlink:href="#C1_0_4af96a0e8f" x="350.177217" y="138.681688"/>
    </g>
    <g clip-path="url(#pb6c5205c9b)">
     <use xlink:href="#C1_0_4af96a0e8f" x="341.027308" y="149.95589"/>
    </g>
    <g clip-path="url(#pb6c5205c9b)">
     <use xlink:href="#C1_0_4af96a0e8f" x="343.498203" y="257.378837"/>
    </g>
    <g clip-path="url(#pb6c5205c9b)">
     <use xlink:href="#C1_0_4af96a0e8f" x="320.660053" y="222.640165"/>
    </g>
    <g clip-path="url(#pb6c5205c9b)">
     <use xlink:href="#C1_0_4af96a0e8f" x="327.591656" y="70.613053"/>
    </g>
    <g clip-path="url(#pb6c5205c9b)">
     <use xlink:href="#C1_0_4af96a0e8f" x="336.003642" y="211.149367"/>
    </g>
    <g clip-path="url(#pb6c5205c9b)">
     <use xlink:href="#C1_0_4af96a0e8f" x="319.753714" y="186.085734"/>
    </g>
    <g clip-path="url(#pb6c5205c9b)">
     <use xlink:href="#C1_0_4af96a0e8f" x="322.18149" y="194.613588"/>
    </g>
    <g clip-path="url(#pb6c5205c9b)">
     <use xlink:href="#C1_0_4af96a0e8f" x="329.376064" y="153.496169"/>
    </g>
    <g clip-path="url(#pb6c5205c9b)">
     <use xlink:href="#C1_0_4af96a0e8f" x="347.018448" y="238.454132"/>
    </g>
    <g clip-path="url(#pb6c5205c9b)">
     <use xlink:href="#C1_0_4af96a0e8f" x="336.20947" y="165.96327"/>
    </g>
    <g clip-path="url(#pb6c5205c9b)">
     <use xlink:href="#C1_0_4af96a0e8f" x="320.004305" y="176.463437"/>
    </g>
    <g clip-path="url(#pb6c5205c9b)">
     <use xlink:href="#C1_0_4af96a0e8f" x="338.736637" y="149.262375"/>
    </g>
    <g clip-path="url(#pb6c5205c9b)">
     <use xlink:href="#C1_0_4af96a0e8f" x="316.076938" y="87.193261"/>
    </g>
    <g clip-path="url(#pb6c5205c9b)">
     <use xlink:href="#C1_0_4af96a0e8f" x="352.963549" y="281.942227"/>
    </g>
    <g clip-path="url(#pb6c5205c9b)">
     <use xlink:href="#C1_0_4af96a0e8f" x="350.436376" y="179.23106"/>
    </g>
    <g clip-path="url(#pb6c5205c9b)">
     <use xlink:href="#C1_0_4af96a0e8f" x="338.197734" y="175.126661"/>
    </g>
    <g clip-path="url(#pb6c5205c9b)">
     <use xlink:href="#C1_0_4af96a0e8f" x="320.932146" y="119.280649"/>
    </g>
    <g clip-path="url(#pb6c5205c9b)">
     <use xlink:href="#C1_0_4af96a0e8f" x="317.907741" y="37.421818"/>
    </g>
    <g clip-path="url(#pb6c5205c9b)">
     <use xlink:href="#C1_0_4af96a0e8f" x="319.730879" y="227.868933"/>
    </g>
    <g clip-path="url(#pb6c5205c9b)">
     <use xlink:href="#C1_0_4af96a0e8f" x="338.926252" y="220.643451"/>
    </g>
    <g clip-path="url(#pb6c5205c9b)">
     <use xlink:href="#C1_0_4af96a0e8f" x="345.273777" y="186.785767"/>
    </g>
    <g clip-path="url(#pb6c5205c9b)">
     <use xlink:href="#C1_0_4af96a0e8f" x="319.363542" y="175.031912"/>
    </g>
    <g clip-path="url(#pb6c5205c9b)">
     <use xlink:href="#C1_0_4af96a0e8f" x="331.228144" y="228.570426"/>
    </g>
    <g clip-path="url(#pb6c5205c9b)">
     <use xlink:href="#C1_0_4af96a0e8f" x="320.259287" y="405.924015"/>
    </g>
    <g clip-path="url(#pb6c5205c9b)">
     <use xlink:href="#C1_0_4af96a0e8f" x="321.811345" y="184.813874"/>
    </g>
    <g clip-path="url(#pb6c5205c9b)">
     <use xlink:href="#C1_0_4af96a0e8f" x="330.970736" y="202.787186"/>
    </g>
   </g>
   <g id="text_10">
    <!-- 113 -->
    <g style="fill: #262626" transform="translate(198.821312 -628.877121)scale(0.1 -0.1)">
     <use xlink:href="#DejaVuSans-31"/>
     <use xlink:href="#DejaVuSans-31" x="63.623047"/>
     <use xlink:href="#DejaVuSans-33" x="127.246094"/>
    </g>
   </g>
   <g id="text_11">
    <!-- p=0.0011118250000952334 -->
    <g style="fill: #262626" transform="translate(140.758812 106.523491)scale(0.08 -0.08)">
     <defs>
      <path id="DejaVuSans-3d" d="M 678 2906 
L 4684 2906 
L 4684 2381 
L 678 2381 
L 678 2906 
z
M 678 1631 
L 4684 1631 
L 4684 1100 
L 678 1100 
L 678 1631 
z
" transform="scale(0.015625)"/>
      <path id="DejaVuSans-38" d="M 2034 2216 
Q 1584 2216 1326 1975 
Q 1069 1734 1069 1313 
Q 1069 891 1326 650 
Q 1584 409 2034 409 
Q 2484 409 2743 651 
Q 3003 894 3003 1313 
Q 3003 1734 2745 1975 
Q 2488 2216 2034 2216 
z
M 1403 2484 
Q 997 2584 770 2862 
Q 544 3141 544 3541 
Q 544 4100 942 4425 
Q 1341 4750 2034 4750 
Q 2731 4750 3128 4425 
Q 3525 4100 3525 3541 
Q 3525 3141 3298 2862 
Q 3072 2584 2669 2484 
Q 3125 2378 3379 2068 
Q 3634 1759 3634 1313 
Q 3634 634 3220 271 
Q 2806 -91 2034 -91 
Q 1263 -91 848 271 
Q 434 634 434 1313 
Q 434 1759 690 2068 
Q 947 2378 1403 2484 
z
M 1172 3481 
Q 1172 3119 1398 2916 
Q 1625 2713 2034 2713 
Q 2441 2713 2670 2916 
Q 2900 3119 2900 3481 
Q 2900 3844 2670 4047 
Q 2441 4250 2034 4250 
Q 1625 4250 1398 4047 
Q 1172 3844 1172 3481 
z
" transform="scale(0.015625)"/>
      <path id="DejaVuSans-39" d="M 703 97 
L 703 672 
Q 941 559 1184 500 
Q 1428 441 1663 441 
Q 2288 441 2617 861 
Q 2947 1281 2994 2138 
Q 2813 1869 2534 1725 
Q 2256 1581 1919 1581 
Q 1219 1581 811 2004 
Q 403 2428 403 3163 
Q 403 3881 828 4315 
Q 1253 4750 1959 4750 
Q 2769 4750 3195 4129 
Q 3622 3509 3622 2328 
Q 3622 1225 3098 567 
Q 2575 -91 1691 -91 
Q 1453 -91 1209 -44 
Q 966 3 703 97 
z
M 1959 2075 
Q 2384 2075 2632 2365 
Q 2881 2656 2881 3163 
Q 2881 3666 2632 3958 
Q 2384 4250 1959 4250 
Q 1534 4250 1286 3958 
Q 1038 3666 1038 3163 
Q 1038 2656 1286 2365 
Q 1534 2075 1959 2075 
z
" transform="scale(0.015625)"/>
     </defs>
     <use xlink:href="#DejaVuSans-70"/>
     <use xlink:href="#DejaVuSans-3d" x="63.476562"/>
     <use xlink:href="#DejaVuSans-30" x="147.265625"/>
     <use xlink:href="#DejaVuSans-2e" x="210.888672"/>
     <use xlink:href="#DejaVuSans-30" x="242.675781"/>
     <use xlink:href="#DejaVuSans-30" x="306.298828"/>
     <use xlink:href="#DejaVuSans-31" x="369.921875"/>
     <use xlink:href="#DejaVuSans-31" x="433.544922"/>
     <use xlink:href="#DejaVuSans-31" x="497.167969"/>
     <use xlink:href="#DejaVuSans-31" x="560.791016"/>
     <use xlink:href="#DejaVuSans-38" x="624.414062"/>
     <use xlink:href="#DejaVuSans-32" x="688.037109"/>
     <use xlink:href="#DejaVuSans-35" x="751.660156"/>
     <use xlink:href="#DejaVuSans-30" x="815.283203"/>
     <use xlink:href="#DejaVuSans-30" x="878.90625"/>
     <use xlink:href="#DejaVuSans-30" x="942.529297"/>
     <use xlink:href="#DejaVuSans-30" x="1006.152344"/>
     <use xlink:href="#DejaVuSans-39" x="1069.775391"/>
     <use xlink:href="#DejaVuSans-35" x="1133.398438"/>
     <use xlink:href="#DejaVuSans-32" x="1197.021484"/>
     <use xlink:href="#DejaVuSans-33" x="1260.644531"/>
     <use xlink:href="#DejaVuSans-33" x="1324.267578"/>
     <use xlink:href="#DejaVuSans-34" x="1387.890625"/>
    </g>
   </g>
   <g id="text_12">
    <!-- 54 -->
    <g style="fill: #262626" transform="translate(314.749937 -628.877121)scale(0.1 -0.1)">
     <use xlink:href="#DejaVuSans-35"/>
     <use xlink:href="#DejaVuSans-34" x="63.623047"/>
    </g>
   </g>
   <g id="legend_1">
    <g id="patch_11">
     <path d="M 377.728125 27.398438 
L 397.728125 27.398438 
L 397.728125 20.398438 
L 377.728125 20.398438 
z
" style="fill: #ecf2ec; stroke: #262626; stroke-width: 0.75; stroke-linejoin: miter"/>
    </g>
    <g id="text_13">
     <!-- Mutant -->
     <g style="fill: #262626" transform="translate(405.728125 27.398438)scale(0.1 -0.1)">
      <defs>
       <path id="DejaVuSans-4d" d="M 628 4666 
L 1569 4666 
L 2759 1491 
L 3956 4666 
L 4897 4666 
L 4897 0 
L 4281 0 
L 4281 4097 
L 3078 897 
L 2444 897 
L 1241 4097 
L 1241 0 
L 628 0 
L 628 4666 
z
" transform="scale(0.015625)"/>
       <path id="DejaVuSans-61" d="M 2194 1759 
Q 1497 1759 1228 1600 
Q 959 1441 959 1056 
Q 959 750 1161 570 
Q 1363 391 1709 391 
Q 2188 391 2477 730 
Q 2766 1069 2766 1631 
L 2766 1759 
L 2194 1759 
z
M 3341 1997 
L 3341 0 
L 2766 0 
L 2766 531 
Q 2569 213 2275 61 
Q 1981 -91 1556 -91 
Q 1019 -91 701 211 
Q 384 513 384 1019 
Q 384 1609 779 1909 
Q 1175 2209 1959 2209 
L 2766 2209 
L 2766 2266 
Q 2766 2663 2505 2880 
Q 2244 3097 1772 3097 
Q 1472 3097 1187 3025 
Q 903 2953 641 2809 
L 641 3341 
Q 956 3463 1253 3523 
Q 1550 3584 1831 3584 
Q 2591 3584 2966 3190 
Q 3341 2797 3341 1997 
z
" transform="scale(0.015625)"/>
      </defs>
      <use xlink:href="#DejaVuSans-4d"/>
      <use xlink:href="#DejaVuSans-75" x="86.279297"/>
      <use xlink:href="#DejaVuSans-74" x="149.658203"/>
      <use xlink:href="#DejaVuSans-61" x="188.867188"/>
      <use xlink:href="#DejaVuSans-6e" x="250.146484"/>
      <use xlink:href="#DejaVuSans-74" x="313.525391"/>
     </g>
    </g>
    <g id="patch_12">
     <path d="M 377.728125 42.076563 
L 397.728125 42.076563 
L 397.728125 35.076563 
L 377.728125 35.076563 
z
" style="fill: #107010; stroke: #262626; stroke-width: 0.75; stroke-linejoin: miter"/>
    </g>
    <g id="text_14">
     <!-- WT -->
     <g style="fill: #262626" transform="translate(405.728125 42.076563)scale(0.1 -0.1)">
      <defs>
       <path id="DejaVuSans-57" d="M 213 4666 
L 850 4666 
L 1831 722 
L 2809 4666 
L 3519 4666 
L 4500 722 
L 5478 4666 
L 6119 4666 
L 4947 0 
L 4153 0 
L 3169 4050 
L 2175 0 
L 1381 0 
L 213 4666 
z
" transform="scale(0.015625)"/>
       <path id="DejaVuSans-54" d="M -19 4666 
L 3928 4666 
L 3928 4134 
L 2272 4134 
L 2272 0 
L 1638 0 
L 1638 4134 
L -19 4134 
L -19 4666 
z
" transform="scale(0.015625)"/>
      </defs>
      <use xlink:href="#DejaVuSans-57"/>
      <use xlink:href="#DejaVuSans-54" x="98.876953"/>
     </g>
    </g>
   </g>
  </g>
 </g>
 <defs>
  <clipPath id="pb6c5205c9b">
   <rect x="63.57125" y="10.8" width="386.42875" height="292.84"/>
  </clipPath>
 </defs>
</svg>
