<?xml version="1.0" encoding="utf-8" standalone="no"?>
<!DOCTYPE svg PUBLIC "-//W3C//DTD SVG 1.1//EN"
  "http://www.w3.org/Graphics/SVG/1.1/DTD/svg11.dtd">
<svg xmlns:xlink="http://www.w3.org/1999/xlink" width="460.8pt" height="345.6pt" viewBox="0 0 460.8 345.6" xmlns="http://www.w3.org/2000/svg" version="1.1">
 <metadata>
  <rdf:RDF xmlns:dc="http://purl.org/dc/elements/1.1/" xmlns:cc="http://creativecommons.org/ns#" xmlns:rdf="http://www.w3.org/1999/02/22-rdf-syntax-ns#">
   <cc:Work>
    <dc:type rdf:resource="http://purl.org/dc/dcmitype/StillImage"/>
    <dc:date>2024-02-11T12:13:34.090456</dc:date>
    <dc:format>image/svg+xml</dc:format>
    <dc:creator>
     <cc:Agent>
      <dc:title>Matplotlib v3.5.3, https://matplotlib.org/</dc:title>
     </cc:Agent>
    </dc:creator>
   </cc:Work>
  </rdf:RDF>
 </metadata>
 <defs>
  <style type="text/css">*{stroke-linejoin: round; stroke-linecap: butt}</style>
 </defs>
 <g id="figure_1">
  <g id="patch_1">
   <path d="M 0 345.6 
L 460.8 345.6 
L 460.8 0 
L 0 0 
z
" style="fill: #ffffff"/>
  </g>
  <g id="axes_1">
   <g id="patch_2">
    <path d="M 65.54 303.64 
L 450 303.64 
L 450 16.561 
L 65.54 16.561 
z
" style="fill: #ffffff"/>
   </g>
   <g id="matplotlib.axis_1">
    <g id="xtick_1">
     <g id="text_1">
      <!-- L -->
      <g style="fill: #262626" transform="translate(254.984062 318.238437)scale(0.1 -0.1)">
       <defs>
        <path id="DejaVuSans-4c" d="M 628 4666 
L 1259 4666 
L 1259 531 
L 3531 531 
L 3531 0 
L 628 0 
L 628 4666 
z
" transform="scale(0.015625)"/>
       </defs>
       <use xlink:href="#DejaVuSans-4c"/>
      </g>
     </g>
    </g>
    <g id="text_2">
     <!-- Sample -->
     <g style="fill: #262626" transform="translate(239.021562 331.916562)scale(0.1 -0.1)">
      <defs>
       <path id="DejaVuSans-53" d="M 3425 4513 
L 3425 3897 
Q 3066 4069 2747 4153 
Q 2428 4238 2131 4238 
Q 1616 4238 1336 4038 
Q 1056 3838 1056 3469 
Q 1056 3159 1242 3001 
Q 1428 2844 1947 2747 
L 2328 2669 
Q 3034 2534 3370 2195 
Q 3706 1856 3706 1288 
Q 3706 609 3251 259 
Q 2797 -91 1919 -91 
Q 1588 -91 1214 -16 
Q 841 59 441 206 
L 441 856 
Q 825 641 1194 531 
Q 1563 422 1919 422 
Q 2459 422 2753 634 
Q 3047 847 3047 1241 
Q 3047 1584 2836 1778 
Q 2625 1972 2144 2069 
L 1759 2144 
Q 1053 2284 737 2584 
Q 422 2884 422 3419 
Q 422 4038 858 4394 
Q 1294 4750 2059 4750 
Q 2388 4750 2728 4690 
Q 3069 4631 3425 4513 
z
" transform="scale(0.015625)"/>
       <path id="DejaVuSans-61" d="M 2194 1759 
Q 1497 1759 1228 1600 
Q 959 1441 959 1056 
Q 959 750 1161 570 
Q 1363 391 1709 391 
Q 2188 391 2477 730 
Q 2766 1069 2766 1631 
L 2766 1759 
L 2194 1759 
z
M 3341 1997 
L 3341 0 
L 2766 0 
L 2766 531 
Q 2569 213 2275 61 
Q 1981 -91 1556 -91 
Q 1019 -91 701 211 
Q 384 513 384 1019 
Q 384 1609 779 1909 
Q 1175 2209 1959 2209 
L 2766 2209 
L 2766 2266 
Q 2766 2663 2505 2880 
Q 2244 3097 1772 3097 
Q 1472 3097 1187 3025 
Q 903 2953 641 2809 
L 641 3341 
Q 956 3463 1253 3523 
Q 1550 3584 1831 3584 
Q 2591 3584 2966 3190 
Q 3341 2797 3341 1997 
z
" transform="scale(0.015625)"/>
       <path id="DejaVuSans-6d" d="M 3328 2828 
Q 3544 3216 3844 3400 
Q 4144 3584 4550 3584 
Q 5097 3584 5394 3201 
Q 5691 2819 5691 2113 
L 5691 0 
L 5113 0 
L 5113 2094 
Q 5113 2597 4934 2840 
Q 4756 3084 4391 3084 
Q 3944 3084 3684 2787 
Q 3425 2491 3425 1978 
L 3425 0 
L 2847 0 
L 2847 2094 
Q 2847 2600 2669 2842 
Q 2491 3084 2119 3084 
Q 1678 3084 1418 2786 
Q 1159 2488 1159 1978 
L 1159 0 
L 581 0 
L 581 3500 
L 1159 3500 
L 1159 2956 
Q 1356 3278 1631 3431 
Q 1906 3584 2284 3584 
Q 2666 3584 2933 3390 
Q 3200 3197 3328 2828 
z
" transform="scale(0.015625)"/>
       <path id="DejaVuSans-70" d="M 1159 525 
L 1159 -1331 
L 581 -1331 
L 581 3500 
L 1159 3500 
L 1159 2969 
Q 1341 3281 1617 3432 
Q 1894 3584 2278 3584 
Q 2916 3584 3314 3078 
Q 3713 2572 3713 1747 
Q 3713 922 3314 415 
Q 2916 -91 2278 -91 
Q 1894 -91 1617 61 
Q 1341 213 1159 525 
z
M 3116 1747 
Q 3116 2381 2855 2742 
Q 2594 3103 2138 3103 
Q 1681 3103 1420 2742 
Q 1159 2381 1159 1747 
Q 1159 1113 1420 752 
Q 1681 391 2138 391 
Q 2594 391 2855 752 
Q 3116 1113 3116 1747 
z
" transform="scale(0.015625)"/>
       <path id="DejaVuSans-6c" d="M 603 4863 
L 1178 4863 
L 1178 0 
L 603 0 
L 603 4863 
z
" transform="scale(0.015625)"/>
       <path id="DejaVuSans-65" d="M 3597 1894 
L 3597 1613 
L 953 1613 
Q 991 1019 1311 708 
Q 1631 397 2203 397 
Q 2534 397 2845 478 
Q 3156 559 3463 722 
L 3463 178 
Q 3153 47 2828 -22 
Q 2503 -91 2169 -91 
Q 1331 -91 842 396 
Q 353 884 353 1716 
Q 353 2575 817 3079 
Q 1281 3584 2069 3584 
Q 2775 3584 3186 3129 
Q 3597 2675 3597 1894 
z
M 3022 2063 
Q 3016 2534 2758 2815 
Q 2500 3097 2075 3097 
Q 1594 3097 1305 2825 
Q 1016 2553 972 2059 
L 3022 2063 
z
" transform="scale(0.015625)"/>
      </defs>
      <use xlink:href="#DejaVuSans-53"/>
      <use xlink:href="#DejaVuSans-61" x="63.476562"/>
      <use xlink:href="#DejaVuSans-6d" x="124.755859"/>
      <use xlink:href="#DejaVuSans-70" x="222.167969"/>
      <use xlink:href="#DejaVuSans-6c" x="285.644531"/>
      <use xlink:href="#DejaVuSans-65" x="313.427734"/>
     </g>
    </g>
   </g>
   <g id="matplotlib.axis_2">
    <g id="ytick_1">
     <g id="line2d_1">
      <path d="M 65.54 271.903954 
L 450 271.903954 
" clip-path="url(#p8b1048e07e)" style="fill: none; stroke: #cccccc; stroke-width: 0.8; stroke-linecap: round"/>
     </g>
     <g id="text_3">
      <!-- −8000 -->
      <g style="fill: #262626" transform="translate(24.710313 275.703173)scale(0.1 -0.1)">
       <defs>
        <path id="DejaVuSans-2212" d="M 678 2272 
L 4684 2272 
L 4684 1741 
L 678 1741 
L 678 2272 
z
" transform="scale(0.015625)"/>
        <path id="DejaVuSans-38" d="M 2034 2216 
Q 1584 2216 1326 1975 
Q 1069 1734 1069 1313 
Q 1069 891 1326 650 
Q 1584 409 2034 409 
Q 2484 409 2743 651 
Q 3003 894 3003 1313 
Q 3003 1734 2745 1975 
Q 2488 2216 2034 2216 
z
M 1403 2484 
Q 997 2584 770 2862 
Q 544 3141 544 3541 
Q 544 4100 942 4425 
Q 1341 4750 2034 4750 
Q 2731 4750 3128 4425 
Q 3525 4100 3525 3541 
Q 3525 3141 3298 2862 
Q 3072 2584 2669 2484 
Q 3125 2378 3379 2068 
Q 3634 1759 3634 1313 
Q 3634 634 3220 271 
Q 2806 -91 2034 -91 
Q 1263 -91 848 271 
Q 434 634 434 1313 
Q 434 1759 690 2068 
Q 947 2378 1403 2484 
z
M 1172 3481 
Q 1172 3119 1398 2916 
Q 1625 2713 2034 2713 
Q 2441 2713 2670 2916 
Q 2900 3119 2900 3481 
Q 2900 3844 2670 4047 
Q 2441 4250 2034 4250 
Q 1625 4250 1398 4047 
Q 1172 3844 1172 3481 
z
" transform="scale(0.015625)"/>
        <path id="DejaVuSans-30" d="M 2034 4250 
Q 1547 4250 1301 3770 
Q 1056 3291 1056 2328 
Q 1056 1369 1301 889 
Q 1547 409 2034 409 
Q 2525 409 2770 889 
Q 3016 1369 3016 2328 
Q 3016 3291 2770 3770 
Q 2525 4250 2034 4250 
z
M 2034 4750 
Q 2819 4750 3233 4129 
Q 3647 3509 3647 2328 
Q 3647 1150 3233 529 
Q 2819 -91 2034 -91 
Q 1250 -91 836 529 
Q 422 1150 422 2328 
Q 422 3509 836 4129 
Q 1250 4750 2034 4750 
z
" transform="scale(0.015625)"/>
       </defs>
       <use xlink:href="#DejaVuSans-2212"/>
       <use xlink:href="#DejaVuSans-38" x="83.789062"/>
       <use xlink:href="#DejaVuSans-30" x="147.412109"/>
       <use xlink:href="#DejaVuSans-30" x="211.035156"/>
       <use xlink:href="#DejaVuSans-30" x="274.658203"/>
      </g>
     </g>
    </g>
    <g id="ytick_2">
     <g id="line2d_2">
      <path d="M 65.54 231.904576 
L 450 231.904576 
" clip-path="url(#p8b1048e07e)" style="fill: none; stroke: #cccccc; stroke-width: 0.8; stroke-linecap: round"/>
     </g>
     <g id="text_4">
      <!-- −6000 -->
      <g style="fill: #262626" transform="translate(24.710313 235.703795)scale(0.1 -0.1)">
       <defs>
        <path id="DejaVuSans-36" d="M 2113 2584 
Q 1688 2584 1439 2293 
Q 1191 2003 1191 1497 
Q 1191 994 1439 701 
Q 1688 409 2113 409 
Q 2538 409 2786 701 
Q 3034 994 3034 1497 
Q 3034 2003 2786 2293 
Q 2538 2584 2113 2584 
z
M 3366 4563 
L 3366 3988 
Q 3128 4100 2886 4159 
Q 2644 4219 2406 4219 
Q 1781 4219 1451 3797 
Q 1122 3375 1075 2522 
Q 1259 2794 1537 2939 
Q 1816 3084 2150 3084 
Q 2853 3084 3261 2657 
Q 3669 2231 3669 1497 
Q 3669 778 3244 343 
Q 2819 -91 2113 -91 
Q 1303 -91 875 529 
Q 447 1150 447 2328 
Q 447 3434 972 4092 
Q 1497 4750 2381 4750 
Q 2619 4750 2861 4703 
Q 3103 4656 3366 4563 
z
" transform="scale(0.015625)"/>
       </defs>
       <use xlink:href="#DejaVuSans-2212"/>
       <use xlink:href="#DejaVuSans-36" x="83.789062"/>
       <use xlink:href="#DejaVuSans-30" x="147.412109"/>
       <use xlink:href="#DejaVuSans-30" x="211.035156"/>
       <use xlink:href="#DejaVuSans-30" x="274.658203"/>
      </g>
     </g>
    </g>
    <g id="ytick_3">
     <g id="line2d_3">
      <path d="M 65.54 191.905198 
L 450 191.905198 
" clip-path="url(#p8b1048e07e)" style="fill: none; stroke: #cccccc; stroke-width: 0.8; stroke-linecap: round"/>
     </g>
     <g id="text_5">
      <!-- −4000 -->
      <g style="fill: #262626" transform="translate(24.710313 195.704417)scale(0.1 -0.1)">
       <defs>
        <path id="DejaVuSans-34" d="M 2419 4116 
L 825 1625 
L 2419 1625 
L 2419 4116 
z
M 2253 4666 
L 3047 4666 
L 3047 1625 
L 3713 1625 
L 3713 1100 
L 3047 1100 
L 3047 0 
L 2419 0 
L 2419 1100 
L 313 1100 
L 313 1709 
L 2253 4666 
z
" transform="scale(0.015625)"/>
       </defs>
       <use xlink:href="#DejaVuSans-2212"/>
       <use xlink:href="#DejaVuSans-34" x="83.789062"/>
       <use xlink:href="#DejaVuSans-30" x="147.412109"/>
       <use xlink:href="#DejaVuSans-30" x="211.035156"/>
       <use xlink:href="#DejaVuSans-30" x="274.658203"/>
      </g>
     </g>
    </g>
    <g id="ytick_4">
     <g id="line2d_4">
      <path d="M 65.54 151.90582 
L 450 151.90582 
" clip-path="url(#p8b1048e07e)" style="fill: none; stroke: #cccccc; stroke-width: 0.8; stroke-linecap: round"/>
     </g>
     <g id="text_6">
      <!-- −2000 -->
      <g style="fill: #262626" transform="translate(24.710313 155.705039)scale(0.1 -0.1)">
       <defs>
        <path id="DejaVuSans-32" d="M 1228 531 
L 3431 531 
L 3431 0 
L 469 0 
L 469 531 
Q 828 903 1448 1529 
Q 2069 2156 2228 2338 
Q 2531 2678 2651 2914 
Q 2772 3150 2772 3378 
Q 2772 3750 2511 3984 
Q 2250 4219 1831 4219 
Q 1534 4219 1204 4116 
Q 875 4013 500 3803 
L 500 4441 
Q 881 4594 1212 4672 
Q 1544 4750 1819 4750 
Q 2544 4750 2975 4387 
Q 3406 4025 3406 3419 
Q 3406 3131 3298 2873 
Q 3191 2616 2906 2266 
Q 2828 2175 2409 1742 
Q 1991 1309 1228 531 
z
" transform="scale(0.015625)"/>
       </defs>
       <use xlink:href="#DejaVuSans-2212"/>
       <use xlink:href="#DejaVuSans-32" x="83.789062"/>
       <use xlink:href="#DejaVuSans-30" x="147.412109"/>
       <use xlink:href="#DejaVuSans-30" x="211.035156"/>
       <use xlink:href="#DejaVuSans-30" x="274.658203"/>
      </g>
     </g>
    </g>
    <g id="ytick_5">
     <g id="line2d_5">
      <path d="M 65.54 111.906442 
L 450 111.906442 
" clip-path="url(#p8b1048e07e)" style="fill: none; stroke: #cccccc; stroke-width: 0.8; stroke-linecap: round"/>
     </g>
     <g id="text_7">
      <!-- 0 -->
      <g style="fill: #262626" transform="translate(52.1775 115.705661)scale(0.1 -0.1)">
       <use xlink:href="#DejaVuSans-30"/>
      </g>
     </g>
    </g>
    <g id="ytick_6">
     <g id="line2d_6">
      <path d="M 65.54 71.907064 
L 450 71.907064 
" clip-path="url(#p8b1048e07e)" style="fill: none; stroke: #cccccc; stroke-width: 0.8; stroke-linecap: round"/>
     </g>
     <g id="text_8">
      <!-- 2000 -->
      <g style="fill: #262626" transform="translate(33.09 75.706283)scale(0.1 -0.1)">
       <use xlink:href="#DejaVuSans-32"/>
       <use xlink:href="#DejaVuSans-30" x="63.623047"/>
       <use xlink:href="#DejaVuSans-30" x="127.246094"/>
       <use xlink:href="#DejaVuSans-30" x="190.869141"/>
      </g>
     </g>
    </g>
    <g id="ytick_7">
     <g id="line2d_7">
      <path d="M 65.54 31.907686 
L 450 31.907686 
" clip-path="url(#p8b1048e07e)" style="fill: none; stroke: #cccccc; stroke-width: 0.8; stroke-linecap: round"/>
     </g>
     <g id="text_9">
      <!-- 4000 -->
      <g style="fill: #262626" transform="translate(33.09 35.706905)scale(0.1 -0.1)">
       <use xlink:href="#DejaVuSans-34"/>
       <use xlink:href="#DejaVuSans-30" x="63.623047"/>
       <use xlink:href="#DejaVuSans-30" x="127.246094"/>
       <use xlink:href="#DejaVuSans-30" x="190.869141"/>
      </g>
     </g>
    </g>
    <g id="text_10">
     <!-- Delta Fluorescence -->
     <g style="fill: #262626" transform="translate(18.630625 207.966906)rotate(-90)scale(0.1 -0.1)">
      <defs>
       <path id="DejaVuSans-44" d="M 1259 4147 
L 1259 519 
L 2022 519 
Q 2988 519 3436 956 
Q 3884 1394 3884 2338 
Q 3884 3275 3436 3711 
Q 2988 4147 2022 4147 
L 1259 4147 
z
M 628 4666 
L 1925 4666 
Q 3281 4666 3915 4102 
Q 4550 3538 4550 2338 
Q 4550 1131 3912 565 
Q 3275 0 1925 0 
L 628 0 
L 628 4666 
z
" transform="scale(0.015625)"/>
       <path id="DejaVuSans-74" d="M 1172 4494 
L 1172 3500 
L 2356 3500 
L 2356 3053 
L 1172 3053 
L 1172 1153 
Q 1172 725 1289 603 
Q 1406 481 1766 481 
L 2356 481 
L 2356 0 
L 1766 0 
Q 1100 0 847 248 
Q 594 497 594 1153 
L 594 3053 
L 172 3053 
L 172 3500 
L 594 3500 
L 594 4494 
L 1172 4494 
z
" transform="scale(0.015625)"/>
       <path id="DejaVuSans-20" transform="scale(0.015625)"/>
       <path id="DejaVuSans-46" d="M 628 4666 
L 3309 4666 
L 3309 4134 
L 1259 4134 
L 1259 2759 
L 3109 2759 
L 3109 2228 
L 1259 2228 
L 1259 0 
L 628 0 
L 628 4666 
z
" transform="scale(0.015625)"/>
       <path id="DejaVuSans-75" d="M 544 1381 
L 544 3500 
L 1119 3500 
L 1119 1403 
Q 1119 906 1312 657 
Q 1506 409 1894 409 
Q 2359 409 2629 706 
Q 2900 1003 2900 1516 
L 2900 3500 
L 3475 3500 
L 3475 0 
L 2900 0 
L 2900 538 
Q 2691 219 2414 64 
Q 2138 -91 1772 -91 
Q 1169 -91 856 284 
Q 544 659 544 1381 
z
M 1991 3584 
L 1991 3584 
z
" transform="scale(0.015625)"/>
       <path id="DejaVuSans-6f" d="M 1959 3097 
Q 1497 3097 1228 2736 
Q 959 2375 959 1747 
Q 959 1119 1226 758 
Q 1494 397 1959 397 
Q 2419 397 2687 759 
Q 2956 1122 2956 1747 
Q 2956 2369 2687 2733 
Q 2419 3097 1959 3097 
z
M 1959 3584 
Q 2709 3584 3137 3096 
Q 3566 2609 3566 1747 
Q 3566 888 3137 398 
Q 2709 -91 1959 -91 
Q 1206 -91 779 398 
Q 353 888 353 1747 
Q 353 2609 779 3096 
Q 1206 3584 1959 3584 
z
" transform="scale(0.015625)"/>
       <path id="DejaVuSans-72" d="M 2631 2963 
Q 2534 3019 2420 3045 
Q 2306 3072 2169 3072 
Q 1681 3072 1420 2755 
Q 1159 2438 1159 1844 
L 1159 0 
L 581 0 
L 581 3500 
L 1159 3500 
L 1159 2956 
Q 1341 3275 1631 3429 
Q 1922 3584 2338 3584 
Q 2397 3584 2469 3576 
Q 2541 3569 2628 3553 
L 2631 2963 
z
" transform="scale(0.015625)"/>
       <path id="DejaVuSans-73" d="M 2834 3397 
L 2834 2853 
Q 2591 2978 2328 3040 
Q 2066 3103 1784 3103 
Q 1356 3103 1142 2972 
Q 928 2841 928 2578 
Q 928 2378 1081 2264 
Q 1234 2150 1697 2047 
L 1894 2003 
Q 2506 1872 2764 1633 
Q 3022 1394 3022 966 
Q 3022 478 2636 193 
Q 2250 -91 1575 -91 
Q 1294 -91 989 -36 
Q 684 19 347 128 
L 347 722 
Q 666 556 975 473 
Q 1284 391 1588 391 
Q 1994 391 2212 530 
Q 2431 669 2431 922 
Q 2431 1156 2273 1281 
Q 2116 1406 1581 1522 
L 1381 1569 
Q 847 1681 609 1914 
Q 372 2147 372 2553 
Q 372 3047 722 3315 
Q 1072 3584 1716 3584 
Q 2034 3584 2315 3537 
Q 2597 3491 2834 3397 
z
" transform="scale(0.015625)"/>
       <path id="DejaVuSans-63" d="M 3122 3366 
L 3122 2828 
Q 2878 2963 2633 3030 
Q 2388 3097 2138 3097 
Q 1578 3097 1268 2742 
Q 959 2388 959 1747 
Q 959 1106 1268 751 
Q 1578 397 2138 397 
Q 2388 397 2633 464 
Q 2878 531 3122 666 
L 3122 134 
Q 2881 22 2623 -34 
Q 2366 -91 2075 -91 
Q 1284 -91 818 406 
Q 353 903 353 1747 
Q 353 2603 823 3093 
Q 1294 3584 2113 3584 
Q 2378 3584 2631 3529 
Q 2884 3475 3122 3366 
z
" transform="scale(0.015625)"/>
       <path id="DejaVuSans-6e" d="M 3513 2113 
L 3513 0 
L 2938 0 
L 2938 2094 
Q 2938 2591 2744 2837 
Q 2550 3084 2163 3084 
Q 1697 3084 1428 2787 
Q 1159 2491 1159 1978 
L 1159 0 
L 581 0 
L 581 3500 
L 1159 3500 
L 1159 2956 
Q 1366 3272 1645 3428 
Q 1925 3584 2291 3584 
Q 2894 3584 3203 3211 
Q 3513 2838 3513 2113 
z
" transform="scale(0.015625)"/>
      </defs>
      <use xlink:href="#DejaVuSans-44"/>
      <use xlink:href="#DejaVuSans-65" x="77.001953"/>
      <use xlink:href="#DejaVuSans-6c" x="138.525391"/>
      <use xlink:href="#DejaVuSans-74" x="166.308594"/>
      <use xlink:href="#DejaVuSans-61" x="205.517578"/>
      <use xlink:href="#DejaVuSans-20" x="266.796875"/>
      <use xlink:href="#DejaVuSans-46" x="298.583984"/>
      <use xlink:href="#DejaVuSans-6c" x="356.103516"/>
      <use xlink:href="#DejaVuSans-75" x="383.886719"/>
      <use xlink:href="#DejaVuSans-6f" x="447.265625"/>
      <use xlink:href="#DejaVuSans-72" x="508.447266"/>
      <use xlink:href="#DejaVuSans-65" x="547.310547"/>
      <use xlink:href="#DejaVuSans-73" x="608.833984"/>
      <use xlink:href="#DejaVuSans-63" x="660.933594"/>
      <use xlink:href="#DejaVuSans-65" x="715.914062"/>
      <use xlink:href="#DejaVuSans-6e" x="777.4375"/>
      <use xlink:href="#DejaVuSans-63" x="840.816406"/>
      <use xlink:href="#DejaVuSans-65" x="895.796875"/>
     </g>
    </g>
   </g>
   <g id="patch_3">
    <path d="M 105.52384 162.990532 
L 256.23216 162.990532 
L 256.23216 109.34427 
L 105.52384 109.34427 
L 105.52384 162.990532 
z
" clip-path="url(#p8b1048e07e)" style="fill: #ecf2ec; stroke: #262626; stroke-width: 1.5; stroke-linejoin: miter"/>
   </g>
   <g id="patch_4">
    <path d="M 259.30784 128.723928 
L 410.01616 128.723928 
L 410.01616 66.464665 
L 259.30784 66.464665 
L 259.30784 128.723928 
z
" clip-path="url(#p8b1048e07e)" style="fill: #107010; stroke: #262626; stroke-width: 1.5; stroke-linejoin: miter"/>
   </g>
   <g id="patch_5">
    <path d="M 257.77 111.906442 
L 257.77 111.906442 
L 257.77 111.906442 
L 257.77 111.906442 
z
" clip-path="url(#p8b1048e07e)" style="fill: #ecf2ec; stroke: #262626; stroke-width: 0.75; stroke-linejoin: miter"/>
   </g>
   <g id="patch_6">
    <path d="M 257.77 111.906442 
L 257.77 111.906442 
L 257.77 111.906442 
L 257.77 111.906442 
z
" clip-path="url(#p8b1048e07e)" style="fill: #107010; stroke: #262626; stroke-width: 0.75; stroke-linejoin: miter"/>
   </g>
   <g id="PathCollection_1"/>
   <g id="PathCollection_2"/>
   <g id="line2d_8">
    <path d="M 180.878 162.990532 
L 180.878 226.86221 
" clip-path="url(#p8b1048e07e)" style="fill: none; stroke: #262626; stroke-width: 1.5; stroke-linecap: round"/>
   </g>
   <g id="line2d_9">
    <path d="M 180.878 109.34427 
L 180.878 48.411063 
" clip-path="url(#p8b1048e07e)" style="fill: none; stroke: #262626; stroke-width: 1.5; stroke-linecap: round"/>
   </g>
   <g id="line2d_10">
    <path d="M 143.20092 226.86221 
L 218.55508 226.86221 
" clip-path="url(#p8b1048e07e)" style="fill: none; stroke: #262626; stroke-width: 1.5; stroke-linecap: round"/>
   </g>
   <g id="line2d_11">
    <path d="M 143.20092 48.411063 
L 218.55508 48.411063 
" clip-path="url(#p8b1048e07e)" style="fill: none; stroke: #262626; stroke-width: 1.5; stroke-linecap: round"/>
   </g>
   <g id="line2d_12">
    <defs>
     <path id="m966705c215" d="M -0 1.414214 
L 0.848528 0 
L 0 -1.414214 
L -0.848528 -0 
z
" style="stroke: #262626; stroke-linejoin: miter"/>
    </defs>
    <g clip-path="url(#p8b1048e07e)">
     <use xlink:href="#m966705c215" x="180.878" y="303.64" style="fill: #262626; stroke: #262626; stroke-linejoin: miter"/>
     <use xlink:href="#m966705c215" x="180.878" y="255.819572" style="fill: #262626; stroke: #262626; stroke-linejoin: miter"/>
     <use xlink:href="#m966705c215" x="180.878" y="16.595644" style="fill: #262626; stroke: #262626; stroke-linejoin: miter"/>
    </g>
   </g>
   <g id="line2d_13">
    <path d="M 334.662 128.723928 
L 334.662 176.157062 
" clip-path="url(#p8b1048e07e)" style="fill: none; stroke: #262626; stroke-width: 1.5; stroke-linecap: round"/>
   </g>
   <g id="line2d_14">
    <path d="M 334.662 66.464665 
L 334.662 16.561 
" clip-path="url(#p8b1048e07e)" style="fill: none; stroke: #262626; stroke-width: 1.5; stroke-linecap: round"/>
   </g>
   <g id="line2d_15">
    <path d="M 296.98492 176.157062 
L 372.33908 176.157062 
" clip-path="url(#p8b1048e07e)" style="fill: none; stroke: #262626; stroke-width: 1.5; stroke-linecap: round"/>
   </g>
   <g id="line2d_16">
    <path d="M 296.98492 16.561 
L 372.33908 16.561 
" clip-path="url(#p8b1048e07e)" style="fill: none; stroke: #262626; stroke-width: 1.5; stroke-linecap: round"/>
   </g>
   <g id="line2d_17"/>
   <g id="line2d_18">
    <path d="M 105.52384 135.269774 
L 256.23216 135.269774 
" clip-path="url(#p8b1048e07e)" style="fill: none; stroke: #262626; stroke-width: 1.5; stroke-linecap: round"/>
   </g>
   <g id="line2d_19">
    <path d="M 259.30784 97.576965 
L 410.01616 97.576965 
" clip-path="url(#p8b1048e07e)" style="fill: none; stroke: #262626; stroke-width: 1.5; stroke-linecap: round"/>
   </g>
   <g id="patch_7">
    <path d="M 65.54 303.64 
L 65.54 16.561 
" style="fill: none; stroke: #cccccc; stroke-width: 0.8; stroke-linejoin: miter; stroke-linecap: square"/>
   </g>
   <g id="patch_8">
    <path d="M 450 303.64 
L 450 16.561 
" style="fill: none; stroke: #cccccc; stroke-width: 0.8; stroke-linejoin: miter; stroke-linecap: square"/>
   </g>
   <g id="patch_9">
    <path d="M 65.54 303.64 
L 450 303.64 
" style="fill: none; stroke: #cccccc; stroke-width: 0.8; stroke-linejoin: miter; stroke-linecap: square"/>
   </g>
   <g id="patch_10">
    <path d="M 65.54 16.561 
L 450 16.561 
" style="fill: none; stroke: #cccccc; stroke-width: 0.8; stroke-linejoin: miter; stroke-linecap: square"/>
   </g>
   <g id="PathCollection_3">
    <defs>
     <path id="C0_0_25e3d5c603" d="M 0 1 
C 0.265203 1 0.51958 0.894634 0.707107 0.707107 
C 0.894634 0.51958 1 0.265203 1 -0 
C 1 -0.265203 0.894634 -0.51958 0.707107 -0.707107 
C 0.51958 -0.894634 0.265203 -1 0 -1 
C -0.265203 -1 -0.51958 -0.894634 -0.707107 -0.707107 
C -0.894634 -0.51958 -1 -0.265203 -1 0 
C -1 0.265203 -0.894634 0.51958 -0.707107 0.707107 
C -0.51958 0.894634 -0.265203 1 0 1 
z
"/>
    </defs>
    <g clip-path="url(#p8b1048e07e)">
     <use xlink:href="#C0_0_25e3d5c603" x="177.431053" y="90.977315" style="fill: #262626"/>
    </g>
    <g clip-path="url(#p8b1048e07e)">
     <use xlink:href="#C0_0_25e3d5c603" x="190.743451" y="116.652597" style="fill: #262626"/>
    </g>
    <g clip-path="url(#p8b1048e07e)">
     <use xlink:href="#C0_0_25e3d5c603" x="184.819969" y="138.452038" style="fill: #262626"/>
    </g>
    <g clip-path="url(#p8b1048e07e)">
     <use xlink:href="#C0_0_25e3d5c603" x="182.235677" y="174.996475" style="fill: #262626"/>
    </g>
    <g clip-path="url(#p8b1048e07e)">
     <use xlink:href="#C0_0_25e3d5c603" x="188.995546" y="102.126374" style="fill: #262626"/>
    </g>
    <g clip-path="url(#p8b1048e07e)">
     <use xlink:href="#C0_0_25e3d5c603" x="192.429853" y="149.788532" style="fill: #262626"/>
    </g>
    <g clip-path="url(#p8b1048e07e)">
     <use xlink:href="#C0_0_25e3d5c603" x="198.159446" y="110.358153" style="fill: #262626"/>
    </g>
    <g clip-path="url(#p8b1048e07e)">
     <use xlink:href="#C0_0_25e3d5c603" x="196.548161" y="122.317422" style="fill: #262626"/>
    </g>
    <g clip-path="url(#p8b1048e07e)">
     <use xlink:href="#C0_0_25e3d5c603" x="167.295146" y="109.484221" style="fill: #262626"/>
    </g>
    <g clip-path="url(#p8b1048e07e)">
     <use xlink:href="#C0_0_25e3d5c603" x="171.801001" y="138.582452" style="fill: #262626"/>
    </g>
    <g clip-path="url(#p8b1048e07e)">
     <use xlink:href="#C0_0_25e3d5c603" x="167.906299" y="303.64" style="fill: #262626"/>
    </g>
    <g clip-path="url(#p8b1048e07e)">
     <use xlink:href="#C0_0_25e3d5c603" x="179.260034" y="126.426286" style="fill: #262626"/>
    </g>
    <g clip-path="url(#p8b1048e07e)">
     <use xlink:href="#C0_0_25e3d5c603" x="179.429889" y="185.921765" style="fill: #262626"/>
    </g>
    <g clip-path="url(#p8b1048e07e)">
     <use xlink:href="#C0_0_25e3d5c603" x="167.369542" y="175.211809" style="fill: #262626"/>
    </g>
    <g clip-path="url(#p8b1048e07e)">
     <use xlink:href="#C0_0_25e3d5c603" x="171.521837" y="136.991015" style="fill: #262626"/>
    </g>
    <g clip-path="url(#p8b1048e07e)">
     <use xlink:href="#C0_0_25e3d5c603" x="163.476569" y="129.153628" style="fill: #262626"/>
    </g>
    <g clip-path="url(#p8b1048e07e)">
     <use xlink:href="#C0_0_25e3d5c603" x="165.595228" y="79.103408" style="fill: #262626"/>
    </g>
    <g clip-path="url(#p8b1048e07e)">
     <use xlink:href="#C0_0_25e3d5c603" x="187.413576" y="148.902855" style="fill: #262626"/>
    </g>
    <g clip-path="url(#p8b1048e07e)">
     <use xlink:href="#C0_0_25e3d5c603" x="185.930474" y="138.083867" style="fill: #262626"/>
    </g>
    <g clip-path="url(#p8b1048e07e)">
     <use xlink:href="#C0_0_25e3d5c603" x="174.190573" y="98.427948" style="fill: #262626"/>
    </g>
    <g clip-path="url(#p8b1048e07e)">
     <use xlink:href="#C0_0_25e3d5c603" x="180.808786" y="16.595644" style="fill: #262626"/>
    </g>
    <g clip-path="url(#p8b1048e07e)">
     <use xlink:href="#C0_0_25e3d5c603" x="195.055382" y="97.94132" style="fill: #262626"/>
    </g>
    <g clip-path="url(#p8b1048e07e)">
     <use xlink:href="#C0_0_25e3d5c603" x="187.486478" y="134.258183" style="fill: #262626"/>
    </g>
    <g clip-path="url(#p8b1048e07e)">
     <use xlink:href="#C0_0_25e3d5c603" x="177.207209" y="50.605329" style="fill: #262626"/>
    </g>
    <g clip-path="url(#p8b1048e07e)">
     <use xlink:href="#C0_0_25e3d5c603" x="164.196728" y="126.613991" style="fill: #262626"/>
    </g>
    <g clip-path="url(#p8b1048e07e)">
     <use xlink:href="#C0_0_25e3d5c603" x="193.840348" y="164.686599" style="fill: #262626"/>
    </g>
    <g clip-path="url(#p8b1048e07e)">
     <use xlink:href="#C0_0_25e3d5c603" x="185.211191" y="63.201394" style="fill: #262626"/>
    </g>
    <g clip-path="url(#p8b1048e07e)">
     <use xlink:href="#C0_0_25e3d5c603" x="164.264208" y="131.793479" style="fill: #262626"/>
    </g>
    <g clip-path="url(#p8b1048e07e)">
     <use xlink:href="#C0_0_25e3d5c603" x="163.115054" y="120.020945" style="fill: #262626"/>
    </g>
    <g clip-path="url(#p8b1048e07e)">
     <use xlink:href="#C0_0_25e3d5c603" x="167.787413" y="139.360778" style="fill: #262626"/>
    </g>
    <g clip-path="url(#p8b1048e07e)">
     <use xlink:href="#C0_0_25e3d5c603" x="185.314949" y="152.132597" style="fill: #262626"/>
    </g>
    <g clip-path="url(#p8b1048e07e)">
     <use xlink:href="#C0_0_25e3d5c603" x="187.797073" y="141.963299" style="fill: #262626"/>
    </g>
    <g clip-path="url(#p8b1048e07e)">
     <use xlink:href="#C0_0_25e3d5c603" x="190.455612" y="183.391675" style="fill: #262626"/>
    </g>
    <g clip-path="url(#p8b1048e07e)">
     <use xlink:href="#C0_0_25e3d5c603" x="190.953811" y="101.232296" style="fill: #262626"/>
    </g>
    <g clip-path="url(#p8b1048e07e)">
     <use xlink:href="#C0_0_25e3d5c603" x="199.58659" y="226.86221" style="fill: #262626"/>
    </g>
    <g clip-path="url(#p8b1048e07e)">
     <use xlink:href="#C0_0_25e3d5c603" x="169.828135" y="162.158837" style="fill: #262626"/>
    </g>
    <g clip-path="url(#p8b1048e07e)">
     <use xlink:href="#C0_0_25e3d5c603" x="170.096622" y="173.949756" style="fill: #262626"/>
    </g>
    <g clip-path="url(#p8b1048e07e)">
     <use xlink:href="#C0_0_25e3d5c603" x="175.054778" y="184.313081" style="fill: #262626"/>
    </g>
    <g clip-path="url(#p8b1048e07e)">
     <use xlink:href="#C0_0_25e3d5c603" x="165.668732" y="130.67066" style="fill: #262626"/>
    </g>
    <g clip-path="url(#p8b1048e07e)">
     <use xlink:href="#C0_0_25e3d5c603" x="179.35803" y="137.015243" style="fill: #262626"/>
    </g>
    <g clip-path="url(#p8b1048e07e)">
     <use xlink:href="#C0_0_25e3d5c603" x="175.115063" y="167.173368" style="fill: #262626"/>
    </g>
    <g clip-path="url(#p8b1048e07e)">
     <use xlink:href="#C0_0_25e3d5c603" x="172.169399" y="132.529104" style="fill: #262626"/>
    </g>
    <g clip-path="url(#p8b1048e07e)">
     <use xlink:href="#C0_0_25e3d5c603" x="172.692735" y="94.043843" style="fill: #262626"/>
    </g>
    <g clip-path="url(#p8b1048e07e)">
     <use xlink:href="#C0_0_25e3d5c603" x="187.177007" y="80.887901" style="fill: #262626"/>
    </g>
    <g clip-path="url(#p8b1048e07e)">
     <use xlink:href="#C0_0_25e3d5c603" x="186.904276" y="145.24965" style="fill: #262626"/>
    </g>
    <g clip-path="url(#p8b1048e07e)">
     <use xlink:href="#C0_0_25e3d5c603" x="181.267835" y="169.986829" style="fill: #262626"/>
    </g>
    <g clip-path="url(#p8b1048e07e)">
     <use xlink:href="#C0_0_25e3d5c603" x="189.803618" y="105.119004" style="fill: #262626"/>
    </g>
    <g clip-path="url(#p8b1048e07e)">
     <use xlink:href="#C0_0_25e3d5c603" x="194.649677" y="123.138205" style="fill: #262626"/>
    </g>
    <g clip-path="url(#p8b1048e07e)">
     <use xlink:href="#C0_0_25e3d5c603" x="167.78995" y="108.235019" style="fill: #262626"/>
    </g>
    <g clip-path="url(#p8b1048e07e)">
     <use xlink:href="#C0_0_25e3d5c603" x="199.015093" y="152.973282" style="fill: #262626"/>
    </g>
    <g clip-path="url(#p8b1048e07e)">
     <use xlink:href="#C0_0_25e3d5c603" x="163.954515" y="55.200405" style="fill: #262626"/>
    </g>
    <g clip-path="url(#p8b1048e07e)">
     <use xlink:href="#C0_0_25e3d5c603" x="188.875814" y="110.828642" style="fill: #262626"/>
    </g>
    <g clip-path="url(#p8b1048e07e)">
     <use xlink:href="#C0_0_25e3d5c603" x="171.346121" y="92.895144" style="fill: #262626"/>
    </g>
    <g clip-path="url(#p8b1048e07e)">
     <use xlink:href="#C0_0_25e3d5c603" x="172.585771" y="114.386816" style="fill: #262626"/>
    </g>
    <g clip-path="url(#p8b1048e07e)">
     <use xlink:href="#C0_0_25e3d5c603" x="168.278194" y="171.309034" style="fill: #262626"/>
    </g>
    <g clip-path="url(#p8b1048e07e)">
     <use xlink:href="#C0_0_25e3d5c603" x="183.399471" y="164.574415" style="fill: #262626"/>
    </g>
    <g clip-path="url(#p8b1048e07e)">
     <use xlink:href="#C0_0_25e3d5c603" x="186.224161" y="126.489214" style="fill: #262626"/>
    </g>
    <g clip-path="url(#p8b1048e07e)">
     <use xlink:href="#C0_0_25e3d5c603" x="162.579273" y="167.567307" style="fill: #262626"/>
    </g>
    <g clip-path="url(#p8b1048e07e)">
     <use xlink:href="#C0_0_25e3d5c603" x="172.698299" y="168.098019" style="fill: #262626"/>
    </g>
    <g clip-path="url(#p8b1048e07e)">
     <use xlink:href="#C0_0_25e3d5c603" x="165.273087" y="121.577506" style="fill: #262626"/>
    </g>
    <g clip-path="url(#p8b1048e07e)">
     <use xlink:href="#C0_0_25e3d5c603" x="172.768546" y="255.819572" style="fill: #262626"/>
    </g>
    <g clip-path="url(#p8b1048e07e)">
     <use xlink:href="#C0_0_25e3d5c603" x="181.32756" y="111.998176" style="fill: #262626"/>
    </g>
    <g clip-path="url(#p8b1048e07e)">
     <use xlink:href="#C0_0_25e3d5c603" x="197.213963" y="164.205635" style="fill: #262626"/>
    </g>
    <g clip-path="url(#p8b1048e07e)">
     <use xlink:href="#C0_0_25e3d5c603" x="165.506513" y="151.217092" style="fill: #262626"/>
    </g>
    <g clip-path="url(#p8b1048e07e)">
     <use xlink:href="#C0_0_25e3d5c603" x="178.284289" y="141.249634" style="fill: #262626"/>
    </g>
    <g clip-path="url(#p8b1048e07e)">
     <use xlink:href="#C0_0_25e3d5c603" x="173.424441" y="97.952051" style="fill: #262626"/>
    </g>
    <g clip-path="url(#p8b1048e07e)">
     <use xlink:href="#C0_0_25e3d5c603" x="178.257213" y="163.822227" style="fill: #262626"/>
    </g>
    <g clip-path="url(#p8b1048e07e)">
     <use xlink:href="#C0_0_25e3d5c603" x="163.421274" y="105.896068" style="fill: #262626"/>
    </g>
    <g clip-path="url(#p8b1048e07e)">
     <use xlink:href="#C0_0_25e3d5c603" x="166.873332" y="126.47773" style="fill: #262626"/>
    </g>
    <g clip-path="url(#p8b1048e07e)">
     <use xlink:href="#C0_0_25e3d5c603" x="171.366304" y="150.25193" style="fill: #262626"/>
    </g>
    <g clip-path="url(#p8b1048e07e)">
     <use xlink:href="#C0_0_25e3d5c603" x="174.072192" y="135.269774" style="fill: #262626"/>
    </g>
    <g clip-path="url(#p8b1048e07e)">
     <use xlink:href="#C0_0_25e3d5c603" x="198.150274" y="117.057548" style="fill: #262626"/>
    </g>
    <g clip-path="url(#p8b1048e07e)">
     <use xlink:href="#C0_0_25e3d5c603" x="173.622595" y="157.023019" style="fill: #262626"/>
    </g>
    <g clip-path="url(#p8b1048e07e)">
     <use xlink:href="#C0_0_25e3d5c603" x="172.166767" y="102.389173" style="fill: #262626"/>
    </g>
    <g clip-path="url(#p8b1048e07e)">
     <use xlink:href="#C0_0_25e3d5c603" x="173.0163" y="48.411063" style="fill: #262626"/>
    </g>
    <g clip-path="url(#p8b1048e07e)">
     <use xlink:href="#C0_0_25e3d5c603" x="181.767447" y="179.459145" style="fill: #262626"/>
    </g>
    <g clip-path="url(#p8b1048e07e)">
     <use xlink:href="#C0_0_25e3d5c603" x="192.092428" y="153.692516" style="fill: #262626"/>
    </g>
    <g clip-path="url(#p8b1048e07e)">
     <use xlink:href="#C0_0_25e3d5c603" x="185.448925" y="164.354713" style="fill: #262626"/>
    </g>
    <g clip-path="url(#p8b1048e07e)">
     <use xlink:href="#C0_0_25e3d5c603" x="164.272249" y="144.172891" style="fill: #262626"/>
    </g>
    <g clip-path="url(#p8b1048e07e)">
     <use xlink:href="#C0_0_25e3d5c603" x="162.19663" y="54.974088" style="fill: #262626"/>
    </g>
    <g clip-path="url(#p8b1048e07e)">
     <use xlink:href="#C0_0_25e3d5c603" x="165.393014" y="160.469885" style="fill: #262626"/>
    </g>
    <g clip-path="url(#p8b1048e07e)">
     <use xlink:href="#C0_0_25e3d5c603" x="193.458198" y="189.267515" style="fill: #262626"/>
    </g>
    <g clip-path="url(#p8b1048e07e)">
     <use xlink:href="#C0_0_25e3d5c603" x="185.544495" y="109.20432" style="fill: #262626"/>
    </g>
   </g>
   <g id="PathCollection_4">
    <defs>
     <path id="C1_0_0240a07ac5" d="M 0 1 
C 0.265203 1 0.51958 0.894634 0.707107 0.707107 
C 0.894634 0.51958 1 0.265203 1 -0 
C 1 -0.265203 0.894634 -0.51958 0.707107 -0.707107 
C 0.51958 -0.894634 0.265203 -1 0 -1 
C -0.265203 -1 -0.51958 -0.894634 -0.707107 -0.707107 
C -0.894634 -0.51958 -1 -0.265203 -1 0 
C -1 0.265203 -0.894634 0.51958 -0.707107 0.707107 
C -0.51958 0.894634 -0.265203 1 0 1 
z
"/>
    </defs>
    <g clip-path="url(#p8b1048e07e)">
     <use xlink:href="#C1_0_0240a07ac5" x="340.950495" y="54.328838"/>
    </g>
    <g clip-path="url(#p8b1048e07e)">
     <use xlink:href="#C1_0_0240a07ac5" x="335.845217" y="85.99383"/>
    </g>
    <g clip-path="url(#p8b1048e07e)">
     <use xlink:href="#C1_0_0240a07ac5" x="320.954515" y="121.570172"/>
    </g>
    <g clip-path="url(#p8b1048e07e)">
     <use xlink:href="#C1_0_0240a07ac5" x="353.622279" y="101.593419"/>
    </g>
    <g clip-path="url(#p8b1048e07e)">
     <use xlink:href="#C1_0_0240a07ac5" x="349.471028" y="79.742032"/>
    </g>
    <g clip-path="url(#p8b1048e07e)">
     <use xlink:href="#C1_0_0240a07ac5" x="345.645538" y="128.716181"/>
    </g>
    <g clip-path="url(#p8b1048e07e)">
     <use xlink:href="#C1_0_0240a07ac5" x="316.902349" y="92.957489"/>
    </g>
    <g clip-path="url(#p8b1048e07e)">
     <use xlink:href="#C1_0_0240a07ac5" x="333.076097" y="95.199115"/>
    </g>
    <g clip-path="url(#p8b1048e07e)">
     <use xlink:href="#C1_0_0240a07ac5" x="343.986612" y="144.345405"/>
    </g>
    <g clip-path="url(#p8b1048e07e)">
     <use xlink:href="#C1_0_0240a07ac5" x="342.894213" y="19.957327"/>
    </g>
    <g clip-path="url(#p8b1048e07e)">
     <use xlink:href="#C1_0_0240a07ac5" x="349.742545" y="64.582401"/>
    </g>
    <g clip-path="url(#p8b1048e07e)">
     <use xlink:href="#C1_0_0240a07ac5" x="330.097901" y="81.886088"/>
    </g>
    <g clip-path="url(#p8b1048e07e)">
     <use xlink:href="#C1_0_0240a07ac5" x="337.847541" y="99.773216"/>
    </g>
    <g clip-path="url(#p8b1048e07e)">
     <use xlink:href="#C1_0_0240a07ac5" x="345.967802" y="120.093533"/>
    </g>
    <g clip-path="url(#p8b1048e07e)">
     <use xlink:href="#C1_0_0240a07ac5" x="350.417878" y="22.133409"/>
    </g>
    <g clip-path="url(#p8b1048e07e)">
     <use xlink:href="#C1_0_0240a07ac5" x="349.248331" y="34.784654"/>
    </g>
    <g clip-path="url(#p8b1048e07e)">
     <use xlink:href="#C1_0_0240a07ac5" x="347.452831" y="169.393254"/>
    </g>
    <g clip-path="url(#p8b1048e07e)">
     <use xlink:href="#C1_0_0240a07ac5" x="332.651413" y="81.85764"/>
    </g>
    <g clip-path="url(#p8b1048e07e)">
     <use xlink:href="#C1_0_0240a07ac5" x="351.426326" y="144.038838"/>
    </g>
    <g clip-path="url(#p8b1048e07e)">
     <use xlink:href="#C1_0_0240a07ac5" x="317.177714" y="106.79792"/>
    </g>
    <g clip-path="url(#p8b1048e07e)">
     <use xlink:href="#C1_0_0240a07ac5" x="326.729987" y="155.062882"/>
    </g>
    <g clip-path="url(#p8b1048e07e)">
     <use xlink:href="#C1_0_0240a07ac5" x="325.449172" y="133.25095"/>
    </g>
    <g clip-path="url(#p8b1048e07e)">
     <use xlink:href="#C1_0_0240a07ac5" x="319.155488" y="31.100766"/>
    </g>
    <g clip-path="url(#p8b1048e07e)">
     <use xlink:href="#C1_0_0240a07ac5" x="342.105459" y="95.380714"/>
    </g>
    <g clip-path="url(#p8b1048e07e)">
     <use xlink:href="#C1_0_0240a07ac5" x="322.139172" y="132.744593"/>
    </g>
    <g clip-path="url(#p8b1048e07e)">
     <use xlink:href="#C1_0_0240a07ac5" x="333.181734" y="79.754369"/>
    </g>
    <g clip-path="url(#p8b1048e07e)">
     <use xlink:href="#C1_0_0240a07ac5" x="330.921006" y="60.92364"/>
    </g>
    <g clip-path="url(#p8b1048e07e)">
     <use xlink:href="#C1_0_0240a07ac5" x="349.959444" y="18.959682"/>
    </g>
    <g clip-path="url(#p8b1048e07e)">
     <use xlink:href="#C1_0_0240a07ac5" x="341.106038" y="156.498241"/>
    </g>
    <g clip-path="url(#p8b1048e07e)">
     <use xlink:href="#C1_0_0240a07ac5" x="320.073658" y="100.609812"/>
    </g>
    <g clip-path="url(#p8b1048e07e)">
     <use xlink:href="#C1_0_0240a07ac5" x="324.891312" y="73.255833"/>
    </g>
    <g clip-path="url(#p8b1048e07e)">
     <use xlink:href="#C1_0_0240a07ac5" x="325.833959" y="67.092087"/>
    </g>
    <g clip-path="url(#p8b1048e07e)">
     <use xlink:href="#C1_0_0240a07ac5" x="337.213497" y="128.747168"/>
    </g>
    <g clip-path="url(#p8b1048e07e)">
     <use xlink:href="#C1_0_0240a07ac5" x="341.473949" y="60.359491"/>
    </g>
    <g clip-path="url(#p8b1048e07e)">
     <use xlink:href="#C1_0_0240a07ac5" x="339.26607" y="21.177846"/>
    </g>
    <g clip-path="url(#p8b1048e07e)">
     <use xlink:href="#C1_0_0240a07ac5" x="317.881655" y="47.354318"/>
    </g>
    <g clip-path="url(#p8b1048e07e)">
     <use xlink:href="#C1_0_0240a07ac5" x="323.136662" y="148.642983"/>
    </g>
    <g clip-path="url(#p8b1048e07e)">
     <use xlink:href="#C1_0_0240a07ac5" x="327.242457" y="91.774322"/>
    </g>
    <g clip-path="url(#p8b1048e07e)">
     <use xlink:href="#C1_0_0240a07ac5" x="323.585376" y="112.817957"/>
    </g>
    <g clip-path="url(#p8b1048e07e)">
     <use xlink:href="#C1_0_0240a07ac5" x="348.236441" y="118.315696"/>
    </g>
    <g clip-path="url(#p8b1048e07e)">
     <use xlink:href="#C1_0_0240a07ac5" x="349.552893" y="115.594727"/>
    </g>
    <g clip-path="url(#p8b1048e07e)">
     <use xlink:href="#C1_0_0240a07ac5" x="332.455946" y="134.06794"/>
    </g>
    <g clip-path="url(#p8b1048e07e)">
     <use xlink:href="#C1_0_0240a07ac5" x="346.908043" y="116.251019"/>
    </g>
    <g clip-path="url(#p8b1048e07e)">
     <use xlink:href="#C1_0_0240a07ac5" x="351.612268" y="168.341619"/>
    </g>
    <g clip-path="url(#p8b1048e07e)">
     <use xlink:href="#C1_0_0240a07ac5" x="334.303463" y="108.622581"/>
    </g>
    <g clip-path="url(#p8b1048e07e)">
     <use xlink:href="#C1_0_0240a07ac5" x="342.409801" y="145.559835"/>
    </g>
    <g clip-path="url(#p8b1048e07e)">
     <use xlink:href="#C1_0_0240a07ac5" x="350.172234" y="129.053904"/>
    </g>
    <g clip-path="url(#p8b1048e07e)">
     <use xlink:href="#C1_0_0240a07ac5" x="327.708297" y="60.941847"/>
    </g>
    <g clip-path="url(#p8b1048e07e)">
     <use xlink:href="#C1_0_0240a07ac5" x="331.402746" y="75.609566"/>
    </g>
    <g clip-path="url(#p8b1048e07e)">
     <use xlink:href="#C1_0_0240a07ac5" x="321.011983" y="127.470696"/>
    </g>
    <g clip-path="url(#p8b1048e07e)">
     <use xlink:href="#C1_0_0240a07ac5" x="330.496907" y="100.957424"/>
    </g>
    <g clip-path="url(#p8b1048e07e)">
     <use xlink:href="#C1_0_0240a07ac5" x="340.530521" y="103.402839"/>
    </g>
    <g clip-path="url(#p8b1048e07e)">
     <use xlink:href="#C1_0_0240a07ac5" x="337.651815" y="16.561"/>
    </g>
    <g clip-path="url(#p8b1048e07e)">
     <use xlink:href="#C1_0_0240a07ac5" x="340.221894" y="88.905052"/>
    </g>
    <g clip-path="url(#p8b1048e07e)">
     <use xlink:href="#C1_0_0240a07ac5" x="315.439601" y="18.476947"/>
    </g>
    <g clip-path="url(#p8b1048e07e)">
     <use xlink:href="#C1_0_0240a07ac5" x="337.977487" y="123.944514"/>
    </g>
    <g clip-path="url(#p8b1048e07e)">
     <use xlink:href="#C1_0_0240a07ac5" x="322.356757" y="54.432795"/>
    </g>
    <g clip-path="url(#p8b1048e07e)">
     <use xlink:href="#C1_0_0240a07ac5" x="347.053192" y="69.285414"/>
    </g>
    <g clip-path="url(#p8b1048e07e)">
     <use xlink:href="#C1_0_0240a07ac5" x="334.273246" y="84.489205"/>
    </g>
    <g clip-path="url(#p8b1048e07e)">
     <use xlink:href="#C1_0_0240a07ac5" x="323.413151" y="26.297357"/>
    </g>
    <g clip-path="url(#p8b1048e07e)">
     <use xlink:href="#C1_0_0240a07ac5" x="333.326381" y="50.659958"/>
    </g>
    <g clip-path="url(#p8b1048e07e)">
     <use xlink:href="#C1_0_0240a07ac5" x="328.710339" y="136.843949"/>
    </g>
    <g clip-path="url(#p8b1048e07e)">
     <use xlink:href="#C1_0_0240a07ac5" x="329.599543" y="118.209039"/>
    </g>
    <g clip-path="url(#p8b1048e07e)">
     <use xlink:href="#C1_0_0240a07ac5" x="347.38471" y="176.157062"/>
    </g>
    <g clip-path="url(#p8b1048e07e)">
     <use xlink:href="#C1_0_0240a07ac5" x="339.071892" y="146.406682"/>
    </g>
    <g clip-path="url(#p8b1048e07e)">
     <use xlink:href="#C1_0_0240a07ac5" x="346.773661" y="143.579423"/>
    </g>
    <g clip-path="url(#p8b1048e07e)">
     <use xlink:href="#C1_0_0240a07ac5" x="328.319396" y="88.059951"/>
    </g>
    <g clip-path="url(#p8b1048e07e)">
     <use xlink:href="#C1_0_0240a07ac5" x="346.000966" y="91.53541"/>
    </g>
   </g>
   <g id="text_11">
    <!-- 83 -->
    <g style="fill: #262626" transform="translate(200.101 111.873443)scale(0.1 -0.1)">
     <defs>
      <path id="DejaVuSans-33" d="M 2597 2516 
Q 3050 2419 3304 2112 
Q 3559 1806 3559 1356 
Q 3559 666 3084 287 
Q 2609 -91 1734 -91 
Q 1441 -91 1130 -33 
Q 819 25 488 141 
L 488 750 
Q 750 597 1062 519 
Q 1375 441 1716 441 
Q 2309 441 2620 675 
Q 2931 909 2931 1356 
Q 2931 1769 2642 2001 
Q 2353 2234 1838 2234 
L 1294 2234 
L 1294 2753 
L 1863 2753 
Q 2328 2753 2575 2939 
Q 2822 3125 2822 3475 
Q 2822 3834 2567 4026 
Q 2313 4219 1838 4219 
Q 1578 4219 1281 4162 
Q 984 4106 628 3988 
L 628 4550 
Q 988 4650 1302 4700 
Q 1616 4750 1894 4750 
Q 2613 4750 3031 4423 
Q 3450 4097 3450 3541 
Q 3450 3153 3228 2886 
Q 3006 2619 2597 2516 
z
" transform="scale(0.015625)"/>
     </defs>
     <use xlink:href="#DejaVuSans-38"/>
     <use xlink:href="#DejaVuSans-33" x="63.623047"/>
    </g>
   </g>
   <g id="text_12">
    <!-- p=nan -->
    <g style="fill: #262626" transform="translate(186.6885 16.594644)scale(0.08 -0.08)">
     <defs>
      <path id="DejaVuSans-3d" d="M 678 2906 
L 4684 2906 
L 4684 2381 
L 678 2381 
L 678 2906 
z
M 678 1631 
L 4684 1631 
L 4684 1100 
L 678 1100 
L 678 1631 
z
" transform="scale(0.015625)"/>
     </defs>
     <use xlink:href="#DejaVuSans-70"/>
     <use xlink:href="#DejaVuSans-3d" x="63.476562"/>
     <use xlink:href="#DejaVuSans-6e" x="147.265625"/>
     <use xlink:href="#DejaVuSans-61" x="210.644531"/>
     <use xlink:href="#DejaVuSans-6e" x="271.923828"/>
    </g>
   </g>
   <g id="text_13">
    <!-- 68 -->
    <g style="fill: #262626" transform="translate(315.439 111.873443)scale(0.1 -0.1)">
     <use xlink:href="#DejaVuSans-36"/>
     <use xlink:href="#DejaVuSans-38" x="63.623047"/>
    </g>
   </g>
   <g id="text_14">
    <!-- p=nan -->
    <g style="fill: #262626" transform="translate(302.0265 16.56)scale(0.08 -0.08)">
     <use xlink:href="#DejaVuSans-70"/>
     <use xlink:href="#DejaVuSans-3d" x="63.476562"/>
     <use xlink:href="#DejaVuSans-6e" x="147.265625"/>
     <use xlink:href="#DejaVuSans-61" x="210.644531"/>
     <use xlink:href="#DejaVuSans-6e" x="271.923828"/>
    </g>
   </g>
   <g id="legend_1">
    <g id="patch_11">
     <path d="M 387.048438 33.159437 
L 407.048438 33.159437 
L 407.048438 26.159437 
L 387.048438 26.159437 
z
" style="fill: #ecf2ec; stroke: #262626; stroke-width: 0.75; stroke-linejoin: miter"/>
    </g>
    <g id="text_15">
     <!-- void -->
     <g style="fill: #262626" transform="translate(415.048438 33.159437)scale(0.1 -0.1)">
      <defs>
       <path id="DejaVuSans-76" d="M 191 3500 
L 800 3500 
L 1894 563 
L 2988 3500 
L 3597 3500 
L 2284 0 
L 1503 0 
L 191 3500 
z
" transform="scale(0.015625)"/>
       <path id="DejaVuSans-69" d="M 603 3500 
L 1178 3500 
L 1178 0 
L 603 0 
L 603 3500 
z
M 603 4863 
L 1178 4863 
L 1178 4134 
L 603 4134 
L 603 4863 
z
" transform="scale(0.015625)"/>
       <path id="DejaVuSans-64" d="M 2906 2969 
L 2906 4863 
L 3481 4863 
L 3481 0 
L 2906 0 
L 2906 525 
Q 2725 213 2448 61 
Q 2172 -91 1784 -91 
Q 1150 -91 751 415 
Q 353 922 353 1747 
Q 353 2572 751 3078 
Q 1150 3584 1784 3584 
Q 2172 3584 2448 3432 
Q 2725 3281 2906 2969 
z
M 947 1747 
Q 947 1113 1208 752 
Q 1469 391 1925 391 
Q 2381 391 2643 752 
Q 2906 1113 2906 1747 
Q 2906 2381 2643 2742 
Q 2381 3103 1925 3103 
Q 1469 3103 1208 2742 
Q 947 2381 947 1747 
z
" transform="scale(0.015625)"/>
      </defs>
      <use xlink:href="#DejaVuSans-76"/>
      <use xlink:href="#DejaVuSans-6f" x="59.179688"/>
      <use xlink:href="#DejaVuSans-69" x="120.361328"/>
      <use xlink:href="#DejaVuSans-64" x="148.144531"/>
     </g>
    </g>
    <g id="patch_12">
     <path d="M 387.048438 47.837562 
L 407.048438 47.837562 
L 407.048438 40.837562 
L 387.048438 40.837562 
z
" style="fill: #107010; stroke: #262626; stroke-width: 0.75; stroke-linejoin: miter"/>
    </g>
    <g id="text_16">
     <!-- clash -->
     <g style="fill: #262626" transform="translate(415.048438 47.837562)scale(0.1 -0.1)">
      <defs>
       <path id="DejaVuSans-68" d="M 3513 2113 
L 3513 0 
L 2938 0 
L 2938 2094 
Q 2938 2591 2744 2837 
Q 2550 3084 2163 3084 
Q 1697 3084 1428 2787 
Q 1159 2491 1159 1978 
L 1159 0 
L 581 0 
L 581 4863 
L 1159 4863 
L 1159 2956 
Q 1366 3272 1645 3428 
Q 1925 3584 2291 3584 
Q 2894 3584 3203 3211 
Q 3513 2838 3513 2113 
z
" transform="scale(0.015625)"/>
      </defs>
      <use xlink:href="#DejaVuSans-63"/>
      <use xlink:href="#DejaVuSans-6c" x="54.980469"/>
      <use xlink:href="#DejaVuSans-61" x="82.763672"/>
      <use xlink:href="#DejaVuSans-73" x="144.042969"/>
      <use xlink:href="#DejaVuSans-68" x="196.142578"/>
     </g>
    </g>
   </g>
  </g>
 </g>
 <defs>
  <clipPath id="p8b1048e07e">
   <rect x="65.54" y="16.561" width="384.46" height="287.079"/>
  </clipPath>
 </defs>
</svg>
