<?xml version="1.0" encoding="utf-8" standalone="no"?>
<!DOCTYPE svg PUBLIC "-//W3C//DTD SVG 1.1//EN"
  "http://www.w3.org/Graphics/SVG/1.1/DTD/svg11.dtd">
<svg xmlns:xlink="http://www.w3.org/1999/xlink" width="460.8pt" height="345.6pt" viewBox="0 0 460.8 345.6" xmlns="http://www.w3.org/2000/svg" version="1.1">
 <metadata>
  <rdf:RDF xmlns:dc="http://purl.org/dc/elements/1.1/" xmlns:cc="http://creativecommons.org/ns#" xmlns:rdf="http://www.w3.org/1999/02/22-rdf-syntax-ns#">
   <cc:Work>
    <dc:type rdf:resource="http://purl.org/dc/dcmitype/StillImage"/>
    <dc:date>2023-12-16T14:38:47.114582</dc:date>
    <dc:format>image/svg+xml</dc:format>
    <dc:creator>
     <cc:Agent>
      <dc:title>Matplotlib v3.5.3, https://matplotlib.org/</dc:title>
     </cc:Agent>
    </dc:creator>
   </cc:Work>
  </rdf:RDF>
 </metadata>
 <defs>
  <style type="text/css">*{stroke-linejoin: round; stroke-linecap: butt}</style>
 </defs>
 <g id="figure_1">
  <g id="patch_1">
   <path d="M 0 345.6 
L 460.8 345.6 
L 460.8 0 
L 0 0 
z
" style="fill: #ffffff"/>
  </g>
  <g id="axes_1">
   <g id="patch_2">
    <path d="M 47.81 303.64 
L 450 303.64 
L 450 27.363875 
L 47.81 27.363875 
z
" style="fill: #ffffff"/>
   </g>
   <g id="matplotlib.axis_1">
    <g id="xtick_1">
     <g id="text_1">
      <!-- A -->
      <g style="fill: #262626" transform="translate(111.421354 318.238437)scale(0.1 -0.1)">
       <defs>
        <path id="DejaVuSans-41" d="M 2188 4044 
L 1331 1722 
L 3047 1722 
L 2188 4044 
z
M 1831 4666 
L 2547 4666 
L 4325 0 
L 3669 0 
L 3244 1197 
L 1141 1197 
L 716 0 
L 50 0 
L 1831 4666 
z
" transform="scale(0.015625)"/>
       </defs>
       <use xlink:href="#DejaVuSans-41"/>
      </g>
     </g>
    </g>
    <g id="xtick_2">
     <g id="text_2">
      <!-- S -->
      <g style="fill: #262626" transform="translate(245.730781 318.238437)scale(0.1 -0.1)">
       <defs>
        <path id="DejaVuSans-53" d="M 3425 4513 
L 3425 3897 
Q 3066 4069 2747 4153 
Q 2428 4238 2131 4238 
Q 1616 4238 1336 4038 
Q 1056 3838 1056 3469 
Q 1056 3159 1242 3001 
Q 1428 2844 1947 2747 
L 2328 2669 
Q 3034 2534 3370 2195 
Q 3706 1856 3706 1288 
Q 3706 609 3251 259 
Q 2797 -91 1919 -91 
Q 1588 -91 1214 -16 
Q 841 59 441 206 
L 441 856 
Q 825 641 1194 531 
Q 1563 422 1919 422 
Q 2459 422 2753 634 
Q 3047 847 3047 1241 
Q 3047 1584 2836 1778 
Q 2625 1972 2144 2069 
L 1759 2144 
Q 1053 2284 737 2584 
Q 422 2884 422 3419 
Q 422 4038 858 4394 
Q 1294 4750 2059 4750 
Q 2388 4750 2728 4690 
Q 3069 4631 3425 4513 
z
" transform="scale(0.015625)"/>
       </defs>
       <use xlink:href="#DejaVuSans-53"/>
      </g>
     </g>
    </g>
    <g id="xtick_3">
     <g id="text_3">
      <!-- T -->
      <g style="fill: #262626" transform="translate(379.914427 318.238437)scale(0.1 -0.1)">
       <defs>
        <path id="DejaVuSans-54" d="M -19 4666 
L 3928 4666 
L 3928 4134 
L 2272 4134 
L 2272 0 
L 1638 0 
L 1638 4134 
L -19 4134 
L -19 4666 
z
" transform="scale(0.015625)"/>
       </defs>
       <use xlink:href="#DejaVuSans-54"/>
      </g>
     </g>
    </g>
    <g id="text_4">
     <!-- WT_AA -->
     <g style="fill: #262626" transform="translate(231.429219 331.638437)scale(0.1 -0.1)">
      <defs>
       <path id="DejaVuSans-57" d="M 213 4666 
L 850 4666 
L 1831 722 
L 2809 4666 
L 3519 4666 
L 4500 722 
L 5478 4666 
L 6119 4666 
L 4947 0 
L 4153 0 
L 3169 4050 
L 2175 0 
L 1381 0 
L 213 4666 
z
" transform="scale(0.015625)"/>
       <path id="DejaVuSans-5f" d="M 3263 -1063 
L 3263 -1509 
L -63 -1509 
L -63 -1063 
L 3263 -1063 
z
" transform="scale(0.015625)"/>
      </defs>
      <use xlink:href="#DejaVuSans-57"/>
      <use xlink:href="#DejaVuSans-54" x="98.876953"/>
      <use xlink:href="#DejaVuSans-5f" x="159.960938"/>
      <use xlink:href="#DejaVuSans-41" x="209.960938"/>
      <use xlink:href="#DejaVuSans-41" x="281.119141"/>
     </g>
    </g>
   </g>
   <g id="matplotlib.axis_2">
    <g id="ytick_1">
     <g id="line2d_1">
      <path d="M 47.81 303.64 
L 450 303.64 
" clip-path="url(#paa12e50cd3)" style="fill: none; stroke: #cccccc; stroke-width: 0.8; stroke-linecap: round"/>
     </g>
     <g id="text_5">
      <!-- 0.0 -->
      <g style="fill: #262626" transform="translate(24.906875 307.439219)scale(0.1 -0.1)">
       <defs>
        <path id="DejaVuSans-30" d="M 2034 4250 
Q 1547 4250 1301 3770 
Q 1056 3291 1056 2328 
Q 1056 1369 1301 889 
Q 1547 409 2034 409 
Q 2525 409 2770 889 
Q 3016 1369 3016 2328 
Q 3016 3291 2770 3770 
Q 2525 4250 2034 4250 
z
M 2034 4750 
Q 2819 4750 3233 4129 
Q 3647 3509 3647 2328 
Q 3647 1150 3233 529 
Q 2819 -91 2034 -91 
Q 1250 -91 836 529 
Q 422 1150 422 2328 
Q 422 3509 836 4129 
Q 1250 4750 2034 4750 
z
" transform="scale(0.015625)"/>
        <path id="DejaVuSans-2e" d="M 684 794 
L 1344 794 
L 1344 0 
L 684 0 
L 684 794 
z
" transform="scale(0.015625)"/>
       </defs>
       <use xlink:href="#DejaVuSans-30"/>
       <use xlink:href="#DejaVuSans-2e" x="63.623047"/>
       <use xlink:href="#DejaVuSans-30" x="95.410156"/>
      </g>
     </g>
    </g>
    <g id="ytick_2">
     <g id="line2d_2">
      <path d="M 47.81 269.105484 
L 450 269.105484 
" clip-path="url(#paa12e50cd3)" style="fill: none; stroke: #cccccc; stroke-width: 0.8; stroke-linecap: round"/>
     </g>
     <g id="text_6">
      <!-- 0.2 -->
      <g style="fill: #262626" transform="translate(24.906875 272.904703)scale(0.1 -0.1)">
       <defs>
        <path id="DejaVuSans-32" d="M 1228 531 
L 3431 531 
L 3431 0 
L 469 0 
L 469 531 
Q 828 903 1448 1529 
Q 2069 2156 2228 2338 
Q 2531 2678 2651 2914 
Q 2772 3150 2772 3378 
Q 2772 3750 2511 3984 
Q 2250 4219 1831 4219 
Q 1534 4219 1204 4116 
Q 875 4013 500 3803 
L 500 4441 
Q 881 4594 1212 4672 
Q 1544 4750 1819 4750 
Q 2544 4750 2975 4387 
Q 3406 4025 3406 3419 
Q 3406 3131 3298 2873 
Q 3191 2616 2906 2266 
Q 2828 2175 2409 1742 
Q 1991 1309 1228 531 
z
" transform="scale(0.015625)"/>
       </defs>
       <use xlink:href="#DejaVuSans-30"/>
       <use xlink:href="#DejaVuSans-2e" x="63.623047"/>
       <use xlink:href="#DejaVuSans-32" x="95.410156"/>
      </g>
     </g>
    </g>
    <g id="ytick_3">
     <g id="line2d_3">
      <path d="M 47.81 234.570969 
L 450 234.570969 
" clip-path="url(#paa12e50cd3)" style="fill: none; stroke: #cccccc; stroke-width: 0.8; stroke-linecap: round"/>
     </g>
     <g id="text_7">
      <!-- 0.4 -->
      <g style="fill: #262626" transform="translate(24.906875 238.370187)scale(0.1 -0.1)">
       <defs>
        <path id="DejaVuSans-34" d="M 2419 4116 
L 825 1625 
L 2419 1625 
L 2419 4116 
z
M 2253 4666 
L 3047 4666 
L 3047 1625 
L 3713 1625 
L 3713 1100 
L 3047 1100 
L 3047 0 
L 2419 0 
L 2419 1100 
L 313 1100 
L 313 1709 
L 2253 4666 
z
" transform="scale(0.015625)"/>
       </defs>
       <use xlink:href="#DejaVuSans-30"/>
       <use xlink:href="#DejaVuSans-2e" x="63.623047"/>
       <use xlink:href="#DejaVuSans-34" x="95.410156"/>
      </g>
     </g>
    </g>
    <g id="ytick_4">
     <g id="line2d_4">
      <path d="M 47.81 200.036453 
L 450 200.036453 
" clip-path="url(#paa12e50cd3)" style="fill: none; stroke: #cccccc; stroke-width: 0.8; stroke-linecap: round"/>
     </g>
     <g id="text_8">
      <!-- 0.6 -->
      <g style="fill: #262626" transform="translate(24.906875 203.835672)scale(0.1 -0.1)">
       <defs>
        <path id="DejaVuSans-36" d="M 2113 2584 
Q 1688 2584 1439 2293 
Q 1191 2003 1191 1497 
Q 1191 994 1439 701 
Q 1688 409 2113 409 
Q 2538 409 2786 701 
Q 3034 994 3034 1497 
Q 3034 2003 2786 2293 
Q 2538 2584 2113 2584 
z
M 3366 4563 
L 3366 3988 
Q 3128 4100 2886 4159 
Q 2644 4219 2406 4219 
Q 1781 4219 1451 3797 
Q 1122 3375 1075 2522 
Q 1259 2794 1537 2939 
Q 1816 3084 2150 3084 
Q 2853 3084 3261 2657 
Q 3669 2231 3669 1497 
Q 3669 778 3244 343 
Q 2819 -91 2113 -91 
Q 1303 -91 875 529 
Q 447 1150 447 2328 
Q 447 3434 972 4092 
Q 1497 4750 2381 4750 
Q 2619 4750 2861 4703 
Q 3103 4656 3366 4563 
z
" transform="scale(0.015625)"/>
       </defs>
       <use xlink:href="#DejaVuSans-30"/>
       <use xlink:href="#DejaVuSans-2e" x="63.623047"/>
       <use xlink:href="#DejaVuSans-36" x="95.410156"/>
      </g>
     </g>
    </g>
    <g id="ytick_5">
     <g id="line2d_5">
      <path d="M 47.81 165.501937 
L 450 165.501937 
" clip-path="url(#paa12e50cd3)" style="fill: none; stroke: #cccccc; stroke-width: 0.8; stroke-linecap: round"/>
     </g>
     <g id="text_9">
      <!-- 0.8 -->
      <g style="fill: #262626" transform="translate(24.906875 169.301156)scale(0.1 -0.1)">
       <defs>
        <path id="DejaVuSans-38" d="M 2034 2216 
Q 1584 2216 1326 1975 
Q 1069 1734 1069 1313 
Q 1069 891 1326 650 
Q 1584 409 2034 409 
Q 2484 409 2743 651 
Q 3003 894 3003 1313 
Q 3003 1734 2745 1975 
Q 2488 2216 2034 2216 
z
M 1403 2484 
Q 997 2584 770 2862 
Q 544 3141 544 3541 
Q 544 4100 942 4425 
Q 1341 4750 2034 4750 
Q 2731 4750 3128 4425 
Q 3525 4100 3525 3541 
Q 3525 3141 3298 2862 
Q 3072 2584 2669 2484 
Q 3125 2378 3379 2068 
Q 3634 1759 3634 1313 
Q 3634 634 3220 271 
Q 2806 -91 2034 -91 
Q 1263 -91 848 271 
Q 434 634 434 1313 
Q 434 1759 690 2068 
Q 947 2378 1403 2484 
z
M 1172 3481 
Q 1172 3119 1398 2916 
Q 1625 2713 2034 2713 
Q 2441 2713 2670 2916 
Q 2900 3119 2900 3481 
Q 2900 3844 2670 4047 
Q 2441 4250 2034 4250 
Q 1625 4250 1398 4047 
Q 1172 3844 1172 3481 
z
" transform="scale(0.015625)"/>
       </defs>
       <use xlink:href="#DejaVuSans-30"/>
       <use xlink:href="#DejaVuSans-2e" x="63.623047"/>
       <use xlink:href="#DejaVuSans-38" x="95.410156"/>
      </g>
     </g>
    </g>
    <g id="ytick_6">
     <g id="line2d_6">
      <path d="M 47.81 130.967422 
L 450 130.967422 
" clip-path="url(#paa12e50cd3)" style="fill: none; stroke: #cccccc; stroke-width: 0.8; stroke-linecap: round"/>
     </g>
     <g id="text_10">
      <!-- 1.0 -->
      <g style="fill: #262626" transform="translate(24.906875 134.766641)scale(0.1 -0.1)">
       <defs>
        <path id="DejaVuSans-31" d="M 794 531 
L 1825 531 
L 1825 4091 
L 703 3866 
L 703 4441 
L 1819 4666 
L 2450 4666 
L 2450 531 
L 3481 531 
L 3481 0 
L 794 0 
L 794 531 
z
" transform="scale(0.015625)"/>
       </defs>
       <use xlink:href="#DejaVuSans-31"/>
       <use xlink:href="#DejaVuSans-2e" x="63.623047"/>
       <use xlink:href="#DejaVuSans-30" x="95.410156"/>
      </g>
     </g>
    </g>
    <g id="ytick_7">
     <g id="line2d_7">
      <path d="M 47.81 96.432906 
L 450 96.432906 
" clip-path="url(#paa12e50cd3)" style="fill: none; stroke: #cccccc; stroke-width: 0.8; stroke-linecap: round"/>
     </g>
     <g id="text_11">
      <!-- 1.2 -->
      <g style="fill: #262626" transform="translate(24.906875 100.232125)scale(0.1 -0.1)">
       <use xlink:href="#DejaVuSans-31"/>
       <use xlink:href="#DejaVuSans-2e" x="63.623047"/>
       <use xlink:href="#DejaVuSans-32" x="95.410156"/>
      </g>
     </g>
    </g>
    <g id="ytick_8">
     <g id="line2d_8">
      <path d="M 47.81 61.898391 
L 450 61.898391 
" clip-path="url(#paa12e50cd3)" style="fill: none; stroke: #cccccc; stroke-width: 0.8; stroke-linecap: round"/>
     </g>
     <g id="text_12">
      <!-- 1.4 -->
      <g style="fill: #262626" transform="translate(24.906875 65.697609)scale(0.1 -0.1)">
       <use xlink:href="#DejaVuSans-31"/>
       <use xlink:href="#DejaVuSans-2e" x="63.623047"/>
       <use xlink:href="#DejaVuSans-34" x="95.410156"/>
      </g>
     </g>
    </g>
    <g id="ytick_9">
     <g id="line2d_9">
      <path d="M 47.81 27.363875 
L 450 27.363875 
" clip-path="url(#paa12e50cd3)" style="fill: none; stroke: #cccccc; stroke-width: 0.8; stroke-linecap: round"/>
     </g>
     <g id="text_13">
      <!-- 1.6 -->
      <g style="fill: #262626" transform="translate(24.906875 31.163094)scale(0.1 -0.1)">
       <use xlink:href="#DejaVuSans-31"/>
       <use xlink:href="#DejaVuSans-2e" x="63.623047"/>
       <use xlink:href="#DejaVuSans-36" x="95.410156"/>
      </g>
     </g>
    </g>
    <g id="text_14">
     <!-- PercentGpA -->
     <g style="fill: #262626" transform="translate(18.827187 194.7785)rotate(-90)scale(0.1 -0.1)">
      <defs>
       <path id="DejaVuSans-50" d="M 1259 4147 
L 1259 2394 
L 2053 2394 
Q 2494 2394 2734 2622 
Q 2975 2850 2975 3272 
Q 2975 3691 2734 3919 
Q 2494 4147 2053 4147 
L 1259 4147 
z
M 628 4666 
L 2053 4666 
Q 2838 4666 3239 4311 
Q 3641 3956 3641 3272 
Q 3641 2581 3239 2228 
Q 2838 1875 2053 1875 
L 1259 1875 
L 1259 0 
L 628 0 
L 628 4666 
z
" transform="scale(0.015625)"/>
       <path id="DejaVuSans-65" d="M 3597 1894 
L 3597 1613 
L 953 1613 
Q 991 1019 1311 708 
Q 1631 397 2203 397 
Q 2534 397 2845 478 
Q 3156 559 3463 722 
L 3463 178 
Q 3153 47 2828 -22 
Q 2503 -91 2169 -91 
Q 1331 -91 842 396 
Q 353 884 353 1716 
Q 353 2575 817 3079 
Q 1281 3584 2069 3584 
Q 2775 3584 3186 3129 
Q 3597 2675 3597 1894 
z
M 3022 2063 
Q 3016 2534 2758 2815 
Q 2500 3097 2075 3097 
Q 1594 3097 1305 2825 
Q 1016 2553 972 2059 
L 3022 2063 
z
" transform="scale(0.015625)"/>
       <path id="DejaVuSans-72" d="M 2631 2963 
Q 2534 3019 2420 3045 
Q 2306 3072 2169 3072 
Q 1681 3072 1420 2755 
Q 1159 2438 1159 1844 
L 1159 0 
L 581 0 
L 581 3500 
L 1159 3500 
L 1159 2956 
Q 1341 3275 1631 3429 
Q 1922 3584 2338 3584 
Q 2397 3584 2469 3576 
Q 2541 3569 2628 3553 
L 2631 2963 
z
" transform="scale(0.015625)"/>
       <path id="DejaVuSans-63" d="M 3122 3366 
L 3122 2828 
Q 2878 2963 2633 3030 
Q 2388 3097 2138 3097 
Q 1578 3097 1268 2742 
Q 959 2388 959 1747 
Q 959 1106 1268 751 
Q 1578 397 2138 397 
Q 2388 397 2633 464 
Q 2878 531 3122 666 
L 3122 134 
Q 2881 22 2623 -34 
Q 2366 -91 2075 -91 
Q 1284 -91 818 406 
Q 353 903 353 1747 
Q 353 2603 823 3093 
Q 1294 3584 2113 3584 
Q 2378 3584 2631 3529 
Q 2884 3475 3122 3366 
z
" transform="scale(0.015625)"/>
       <path id="DejaVuSans-6e" d="M 3513 2113 
L 3513 0 
L 2938 0 
L 2938 2094 
Q 2938 2591 2744 2837 
Q 2550 3084 2163 3084 
Q 1697 3084 1428 2787 
Q 1159 2491 1159 1978 
L 1159 0 
L 581 0 
L 581 3500 
L 1159 3500 
L 1159 2956 
Q 1366 3272 1645 3428 
Q 1925 3584 2291 3584 
Q 2894 3584 3203 3211 
Q 3513 2838 3513 2113 
z
" transform="scale(0.015625)"/>
       <path id="DejaVuSans-74" d="M 1172 4494 
L 1172 3500 
L 2356 3500 
L 2356 3053 
L 1172 3053 
L 1172 1153 
Q 1172 725 1289 603 
Q 1406 481 1766 481 
L 2356 481 
L 2356 0 
L 1766 0 
Q 1100 0 847 248 
Q 594 497 594 1153 
L 594 3053 
L 172 3053 
L 172 3500 
L 594 3500 
L 594 4494 
L 1172 4494 
z
" transform="scale(0.015625)"/>
       <path id="DejaVuSans-47" d="M 3809 666 
L 3809 1919 
L 2778 1919 
L 2778 2438 
L 4434 2438 
L 4434 434 
Q 4069 175 3628 42 
Q 3188 -91 2688 -91 
Q 1594 -91 976 548 
Q 359 1188 359 2328 
Q 359 3472 976 4111 
Q 1594 4750 2688 4750 
Q 3144 4750 3555 4637 
Q 3966 4525 4313 4306 
L 4313 3634 
Q 3963 3931 3569 4081 
Q 3175 4231 2741 4231 
Q 1884 4231 1454 3753 
Q 1025 3275 1025 2328 
Q 1025 1384 1454 906 
Q 1884 428 2741 428 
Q 3075 428 3337 486 
Q 3600 544 3809 666 
z
" transform="scale(0.015625)"/>
       <path id="DejaVuSans-70" d="M 1159 525 
L 1159 -1331 
L 581 -1331 
L 581 3500 
L 1159 3500 
L 1159 2969 
Q 1341 3281 1617 3432 
Q 1894 3584 2278 3584 
Q 2916 3584 3314 3078 
Q 3713 2572 3713 1747 
Q 3713 922 3314 415 
Q 2916 -91 2278 -91 
Q 1894 -91 1617 61 
Q 1341 213 1159 525 
z
M 3116 1747 
Q 3116 2381 2855 2742 
Q 2594 3103 2138 3103 
Q 1681 3103 1420 2742 
Q 1159 2381 1159 1747 
Q 1159 1113 1420 752 
Q 1681 391 2138 391 
Q 2594 391 2855 752 
Q 3116 1113 3116 1747 
z
" transform="scale(0.015625)"/>
      </defs>
      <use xlink:href="#DejaVuSans-50"/>
      <use xlink:href="#DejaVuSans-65" x="56.677734"/>
      <use xlink:href="#DejaVuSans-72" x="118.201172"/>
      <use xlink:href="#DejaVuSans-63" x="157.064453"/>
      <use xlink:href="#DejaVuSans-65" x="212.044922"/>
      <use xlink:href="#DejaVuSans-6e" x="273.568359"/>
      <use xlink:href="#DejaVuSans-74" x="336.947266"/>
      <use xlink:href="#DejaVuSans-47" x="376.15625"/>
      <use xlink:href="#DejaVuSans-70" x="453.646484"/>
      <use xlink:href="#DejaVuSans-41" x="517.123047"/>
     </g>
    </g>
   </g>
   <g id="patch_3">
    <path d="M 61.752587 274.660865 
L 114.305413 274.660865 
L 114.305413 265.873922 
L 61.752587 265.873922 
L 61.752587 274.660865 
z
" clip-path="url(#paa12e50cd3)" style="fill: #ecf2ec; stroke: #262626; stroke-width: 1.5; stroke-linejoin: miter"/>
   </g>
   <g id="patch_4">
    <path d="M 115.37792 264.655664 
L 167.930747 264.655664 
L 167.930747 247.892541 
L 115.37792 247.892541 
L 115.37792 264.655664 
z
" clip-path="url(#paa12e50cd3)" style="fill: #107010; stroke: #262626; stroke-width: 1.5; stroke-linejoin: miter"/>
   </g>
   <g id="patch_5">
    <path d="M 195.81592 271.916387 
L 248.368747 271.916387 
L 248.368747 261.865163 
L 195.81592 261.865163 
L 195.81592 271.916387 
z
" clip-path="url(#paa12e50cd3)" style="fill: #ecf2ec; stroke: #262626; stroke-width: 1.5; stroke-linejoin: miter"/>
   </g>
   <g id="patch_6">
    <path d="M 249.441253 257.561621 
L 301.99408 257.561621 
L 301.99408 250.170102 
L 249.441253 250.170102 
L 249.441253 257.561621 
z
" clip-path="url(#paa12e50cd3)" style="fill: #107010; stroke: #262626; stroke-width: 1.5; stroke-linejoin: miter"/>
   </g>
   <g id="patch_7">
    <path d="M 329.879253 273.561395 
L 382.43208 273.561395 
L 382.43208 263.280435 
L 329.879253 263.280435 
L 329.879253 273.561395 
z
" clip-path="url(#paa12e50cd3)" style="fill: #ecf2ec; stroke: #262626; stroke-width: 1.5; stroke-linejoin: miter"/>
   </g>
   <g id="patch_8">
    <path d="M 383.504587 260.23682 
L 436.057413 260.23682 
L 436.057413 245.500427 
L 383.504587 245.500427 
L 383.504587 260.23682 
z
" clip-path="url(#paa12e50cd3)" style="fill: #107010; stroke: #262626; stroke-width: 1.5; stroke-linejoin: miter"/>
   </g>
   <g id="patch_9">
    <path d="M 114.841667 303.64 
L 114.841667 303.64 
L 114.841667 303.64 
L 114.841667 303.64 
z
" clip-path="url(#paa12e50cd3)" style="fill: #ecf2ec; stroke: #262626; stroke-width: 0.75; stroke-linejoin: miter"/>
   </g>
   <g id="patch_10">
    <path d="M 114.841667 303.64 
L 114.841667 303.64 
L 114.841667 303.64 
L 114.841667 303.64 
z
" clip-path="url(#paa12e50cd3)" style="fill: #107010; stroke: #262626; stroke-width: 0.75; stroke-linejoin: miter"/>
   </g>
   <g id="PathCollection_1"/>
   <g id="PathCollection_2"/>
   <g id="line2d_10">
    <path d="M 88.029 274.660865 
L 88.029 286.86887 
" clip-path="url(#paa12e50cd3)" style="fill: none; stroke: #262626; stroke-width: 1.5; stroke-linecap: round"/>
   </g>
   <g id="line2d_11">
    <path d="M 88.029 265.873922 
L 88.029 261.049667 
" clip-path="url(#paa12e50cd3)" style="fill: none; stroke: #262626; stroke-width: 1.5; stroke-linecap: round"/>
   </g>
   <g id="line2d_12">
    <path d="M 74.890793 286.86887 
L 101.167207 286.86887 
" clip-path="url(#paa12e50cd3)" style="fill: none; stroke: #262626; stroke-width: 1.5; stroke-linecap: round"/>
   </g>
   <g id="line2d_13">
    <path d="M 74.890793 261.049667 
L 101.167207 261.049667 
" clip-path="url(#paa12e50cd3)" style="fill: none; stroke: #262626; stroke-width: 1.5; stroke-linecap: round"/>
   </g>
   <g id="line2d_14">
    <defs>
     <path id="md14608d2f2" d="M -0 1.414214 
L 0.848528 0 
L 0 -1.414214 
L -0.848528 -0 
z
" style="stroke: #262626; stroke-linejoin: miter"/>
    </defs>
    <g clip-path="url(#paa12e50cd3)">
     <use xlink:href="#md14608d2f2" x="88.029" y="290.449327" style="fill: #262626; stroke: #262626; stroke-linejoin: miter"/>
    </g>
   </g>
   <g id="line2d_15">
    <path d="M 141.654333 264.655664 
L 141.654333 271.299553 
" clip-path="url(#paa12e50cd3)" style="fill: none; stroke: #262626; stroke-width: 1.5; stroke-linecap: round"/>
   </g>
   <g id="line2d_16">
    <path d="M 141.654333 247.892541 
L 141.654333 239.753391 
" clip-path="url(#paa12e50cd3)" style="fill: none; stroke: #262626; stroke-width: 1.5; stroke-linecap: round"/>
   </g>
   <g id="line2d_17">
    <path d="M 128.516127 271.299553 
L 154.79254 271.299553 
" clip-path="url(#paa12e50cd3)" style="fill: none; stroke: #262626; stroke-width: 1.5; stroke-linecap: round"/>
   </g>
   <g id="line2d_18">
    <path d="M 128.516127 239.753391 
L 154.79254 239.753391 
" clip-path="url(#paa12e50cd3)" style="fill: none; stroke: #262626; stroke-width: 1.5; stroke-linecap: round"/>
   </g>
   <g id="line2d_19">
    <g clip-path="url(#paa12e50cd3)">
     <use xlink:href="#md14608d2f2" x="141.654333" y="222.60342" style="fill: #262626; stroke: #262626; stroke-linejoin: miter"/>
    </g>
   </g>
   <g id="line2d_20">
    <path d="M 222.092333 271.916387 
L 222.092333 284.405456 
" clip-path="url(#paa12e50cd3)" style="fill: none; stroke: #262626; stroke-width: 1.5; stroke-linecap: round"/>
   </g>
   <g id="line2d_21">
    <path d="M 222.092333 261.865163 
L 222.092333 260.555697 
" clip-path="url(#paa12e50cd3)" style="fill: none; stroke: #262626; stroke-width: 1.5; stroke-linecap: round"/>
   </g>
   <g id="line2d_22">
    <path d="M 208.954127 284.405456 
L 235.23054 284.405456 
" clip-path="url(#paa12e50cd3)" style="fill: none; stroke: #262626; stroke-width: 1.5; stroke-linecap: round"/>
   </g>
   <g id="line2d_23">
    <path d="M 208.954127 260.555697 
L 235.23054 260.555697 
" clip-path="url(#paa12e50cd3)" style="fill: none; stroke: #262626; stroke-width: 1.5; stroke-linecap: round"/>
   </g>
   <g id="line2d_24"/>
   <g id="line2d_25">
    <path d="M 275.717667 257.561621 
L 275.717667 258.567327 
" clip-path="url(#paa12e50cd3)" style="fill: none; stroke: #262626; stroke-width: 1.5; stroke-linecap: round"/>
   </g>
   <g id="line2d_26">
    <path d="M 275.717667 250.170102 
L 275.717667 250.072724 
" clip-path="url(#paa12e50cd3)" style="fill: none; stroke: #262626; stroke-width: 1.5; stroke-linecap: round"/>
   </g>
   <g id="line2d_27">
    <path d="M 262.57946 258.567327 
L 288.855873 258.567327 
" clip-path="url(#paa12e50cd3)" style="fill: none; stroke: #262626; stroke-width: 1.5; stroke-linecap: round"/>
   </g>
   <g id="line2d_28">
    <path d="M 262.57946 250.072724 
L 288.855873 250.072724 
" clip-path="url(#paa12e50cd3)" style="fill: none; stroke: #262626; stroke-width: 1.5; stroke-linecap: round"/>
   </g>
   <g id="line2d_29">
    <g clip-path="url(#paa12e50cd3)">
     <use xlink:href="#md14608d2f2" x="275.717667" y="281.185785" style="fill: #262626; stroke: #262626; stroke-linejoin: miter"/>
     <use xlink:href="#md14608d2f2" x="275.717667" y="220.300264" style="fill: #262626; stroke: #262626; stroke-linejoin: miter"/>
    </g>
   </g>
   <g id="line2d_30">
    <path d="M 356.155667 273.561395 
L 356.155667 278.850973 
" clip-path="url(#paa12e50cd3)" style="fill: none; stroke: #262626; stroke-width: 1.5; stroke-linecap: round"/>
   </g>
   <g id="line2d_31">
    <path d="M 356.155667 263.280435 
L 356.155667 251.260745 
" clip-path="url(#paa12e50cd3)" style="fill: none; stroke: #262626; stroke-width: 1.5; stroke-linecap: round"/>
   </g>
   <g id="line2d_32">
    <path d="M 343.01746 278.850973 
L 369.293873 278.850973 
" clip-path="url(#paa12e50cd3)" style="fill: none; stroke: #262626; stroke-width: 1.5; stroke-linecap: round"/>
   </g>
   <g id="line2d_33">
    <path d="M 343.01746 251.260745 
L 369.293873 251.260745 
" clip-path="url(#paa12e50cd3)" style="fill: none; stroke: #262626; stroke-width: 1.5; stroke-linecap: round"/>
   </g>
   <g id="line2d_34"/>
   <g id="line2d_35">
    <path d="M 409.781 260.23682 
L 409.781 274.927476 
" clip-path="url(#paa12e50cd3)" style="fill: none; stroke: #262626; stroke-width: 1.5; stroke-linecap: round"/>
   </g>
   <g id="line2d_36">
    <path d="M 409.781 245.500427 
L 409.781 244.894168 
" clip-path="url(#paa12e50cd3)" style="fill: none; stroke: #262626; stroke-width: 1.5; stroke-linecap: round"/>
   </g>
   <g id="line2d_37">
    <path d="M 396.642793 274.927476 
L 422.919207 274.927476 
" clip-path="url(#paa12e50cd3)" style="fill: none; stroke: #262626; stroke-width: 1.5; stroke-linecap: round"/>
   </g>
   <g id="line2d_38">
    <path d="M 396.642793 244.894168 
L 422.919207 244.894168 
" clip-path="url(#paa12e50cd3)" style="fill: none; stroke: #262626; stroke-width: 1.5; stroke-linecap: round"/>
   </g>
   <g id="line2d_39"/>
   <g id="line2d_40">
    <path d="M 61.752587 267.738234 
L 114.305413 267.738234 
" clip-path="url(#paa12e50cd3)" style="fill: none; stroke: #262626; stroke-width: 1.5; stroke-linecap: round"/>
   </g>
   <g id="line2d_41">
    <path d="M 115.37792 256.562347 
L 167.930747 256.562347 
" clip-path="url(#paa12e50cd3)" style="fill: none; stroke: #262626; stroke-width: 1.5; stroke-linecap: round"/>
   </g>
   <g id="line2d_42">
    <path d="M 195.81592 264.622495 
L 248.368747 264.622495 
" clip-path="url(#paa12e50cd3)" style="fill: none; stroke: #262626; stroke-width: 1.5; stroke-linecap: round"/>
   </g>
   <g id="line2d_43">
    <path d="M 249.441253 252.50337 
L 301.99408 252.50337 
" clip-path="url(#paa12e50cd3)" style="fill: none; stroke: #262626; stroke-width: 1.5; stroke-linecap: round"/>
   </g>
   <g id="line2d_44">
    <path d="M 329.879253 268.205724 
L 382.43208 268.205724 
" clip-path="url(#paa12e50cd3)" style="fill: none; stroke: #262626; stroke-width: 1.5; stroke-linecap: round"/>
   </g>
   <g id="line2d_45">
    <path d="M 383.504587 255.768608 
L 436.057413 255.768608 
" clip-path="url(#paa12e50cd3)" style="fill: none; stroke: #262626; stroke-width: 1.5; stroke-linecap: round"/>
   </g>
   <g id="patch_11">
    <path d="M 47.81 303.64 
L 47.81 27.363875 
" style="fill: none; stroke: #cccccc; stroke-width: 0.8; stroke-linejoin: miter; stroke-linecap: square"/>
   </g>
   <g id="patch_12">
    <path d="M 450 303.64 
L 450 27.363875 
" style="fill: none; stroke: #cccccc; stroke-width: 0.8; stroke-linejoin: miter; stroke-linecap: square"/>
   </g>
   <g id="patch_13">
    <path d="M 47.81 303.64 
L 450 303.64 
" style="fill: none; stroke: #cccccc; stroke-width: 0.8; stroke-linejoin: miter; stroke-linecap: square"/>
   </g>
   <g id="patch_14">
    <path d="M 47.81 27.363875 
L 450 27.363875 
" style="fill: none; stroke: #cccccc; stroke-width: 0.8; stroke-linejoin: miter; stroke-linecap: square"/>
   </g>
   <g id="PathCollection_3">
    <defs>
     <path id="C0_0_3a7f17bdd3" d="M 0 1 
C 0.265203 1 0.51958 0.894634 0.707107 0.707107 
C 0.894634 0.51958 1 0.265203 1 -0 
C 1 -0.265203 0.894634 -0.51958 0.707107 -0.707107 
C 0.51958 -0.894634 0.265203 -1 0 -1 
C -0.265203 -1 -0.51958 -0.894634 -0.707107 -0.707107 
C -0.894634 -0.51958 -1 -0.265203 -1 0 
C -1 0.265203 -0.894634 0.51958 -0.707107 0.707107 
C -0.51958 0.894634 -0.265203 1 0 1 
z
"/>
    </defs>
    <g clip-path="url(#paa12e50cd3)">
     <use xlink:href="#C0_0_3a7f17bdd3" x="87.998959" y="270.942197" style="fill: #262626"/>
    </g>
    <g clip-path="url(#paa12e50cd3)">
     <use xlink:href="#C0_0_3a7f17bdd3" x="82.321766" y="272.952598" style="fill: #262626"/>
    </g>
    <g clip-path="url(#paa12e50cd3)">
     <use xlink:href="#C0_0_3a7f17bdd3" x="94.502574" y="261.821421" style="fill: #262626"/>
    </g>
    <g clip-path="url(#paa12e50cd3)">
     <use xlink:href="#C0_0_3a7f17bdd3" x="89.627625" y="267.800091" style="fill: #262626"/>
    </g>
    <g clip-path="url(#paa12e50cd3)">
     <use xlink:href="#C0_0_3a7f17bdd3" x="81.910533" y="261.547157" style="fill: #262626"/>
    </g>
    <g clip-path="url(#paa12e50cd3)">
     <use xlink:href="#C0_0_3a7f17bdd3" x="91.599365" y="264.629625" style="fill: #262626"/>
    </g>
    <g clip-path="url(#paa12e50cd3)">
     <use xlink:href="#C0_0_3a7f17bdd3" x="86.065665" y="276.868287" style="fill: #262626"/>
    </g>
    <g clip-path="url(#paa12e50cd3)">
     <use xlink:href="#C0_0_3a7f17bdd3" x="92.425585" y="282.167358" style="fill: #262626"/>
    </g>
    <g clip-path="url(#paa12e50cd3)">
     <use xlink:href="#C0_0_3a7f17bdd3" x="89.915271" y="266.440288" style="fill: #262626"/>
    </g>
    <g clip-path="url(#paa12e50cd3)">
     <use xlink:href="#C0_0_3a7f17bdd3" x="85.602914" y="290.449327" style="fill: #262626"/>
    </g>
    <g clip-path="url(#paa12e50cd3)">
     <use xlink:href="#C0_0_3a7f17bdd3" x="82.804056" y="267.074823" style="fill: #262626"/>
    </g>
    <g clip-path="url(#paa12e50cd3)">
     <use xlink:href="#C0_0_3a7f17bdd3" x="86.940836" y="275.987526" style="fill: #262626"/>
    </g>
    <g clip-path="url(#paa12e50cd3)">
     <use xlink:href="#C0_0_3a7f17bdd3" x="89.24222" y="265.929798" style="fill: #262626"/>
    </g>
    <g clip-path="url(#paa12e50cd3)">
     <use xlink:href="#C0_0_3a7f17bdd3" x="93.478167" y="280.861373" style="fill: #262626"/>
    </g>
    <g clip-path="url(#paa12e50cd3)">
     <use xlink:href="#C0_0_3a7f17bdd3" x="90.330693" y="261.049667" style="fill: #262626"/>
    </g>
    <g clip-path="url(#paa12e50cd3)">
     <use xlink:href="#C0_0_3a7f17bdd3" x="84.560684" y="279.196882" style="fill: #262626"/>
    </g>
    <g clip-path="url(#paa12e50cd3)">
     <use xlink:href="#C0_0_3a7f17bdd3" x="91.126303" y="286.86887" style="fill: #262626"/>
    </g>
    <g clip-path="url(#paa12e50cd3)">
     <use xlink:href="#C0_0_3a7f17bdd3" x="91.415171" y="267.676377" style="fill: #262626"/>
    </g>
    <g clip-path="url(#paa12e50cd3)">
     <use xlink:href="#C0_0_3a7f17bdd3" x="90.940487" y="270.665157" style="fill: #262626"/>
    </g>
    <g clip-path="url(#paa12e50cd3)">
     <use xlink:href="#C0_0_3a7f17bdd3" x="93.140904" y="267.258864" style="fill: #262626"/>
    </g>
    <g clip-path="url(#paa12e50cd3)">
     <use xlink:href="#C0_0_3a7f17bdd3" x="84.936694" y="267.402473" style="fill: #262626"/>
    </g>
    <g clip-path="url(#paa12e50cd3)">
     <use xlink:href="#C0_0_3a7f17bdd3" x="94.373026" y="274.091265" style="fill: #262626"/>
    </g>
    <g clip-path="url(#paa12e50cd3)">
     <use xlink:href="#C0_0_3a7f17bdd3" x="86.448349" y="269.544144" style="fill: #262626"/>
    </g>
    <g clip-path="url(#paa12e50cd3)">
     <use xlink:href="#C0_0_3a7f17bdd3" x="85.220106" y="267.620514" style="fill: #262626"/>
    </g>
    <g clip-path="url(#paa12e50cd3)">
     <use xlink:href="#C0_0_3a7f17bdd3" x="86.598285" y="265.706293" style="fill: #262626"/>
    </g>
    <g clip-path="url(#paa12e50cd3)">
     <use xlink:href="#C0_0_3a7f17bdd3" x="82.779111" y="274.218645" style="fill: #262626"/>
    </g>
    <g clip-path="url(#paa12e50cd3)">
     <use xlink:href="#C0_0_3a7f17bdd3" x="88.189096" y="264.697617" style="fill: #262626"/>
    </g>
    <g clip-path="url(#paa12e50cd3)">
     <use xlink:href="#C0_0_3a7f17bdd3" x="85.776709" y="262.558792" style="fill: #262626"/>
    </g>
   </g>
   <g id="PathCollection_4">
    <defs>
     <path id="C1_0_9336fff110" d="M 0 1 
C 0.265203 1 0.51958 0.894634 0.707107 0.707107 
C 0.894634 0.51958 1 0.265203 1 -0 
C 1 -0.265203 0.894634 -0.51958 0.707107 -0.707107 
C 0.51958 -0.894634 0.265203 -1 0 -1 
C -0.265203 -1 -0.51958 -0.894634 -0.707107 -0.707107 
C -0.894634 -0.51958 -1 -0.265203 -1 0 
C -1 0.265203 -0.894634 0.51958 -0.707107 0.707107 
C -0.51958 0.894634 -0.265203 1 0 1 
z
"/>
    </defs>
    <g clip-path="url(#paa12e50cd3)">
     <use xlink:href="#C1_0_9336fff110" x="139.494242" y="256.123703"/>
    </g>
    <g clip-path="url(#paa12e50cd3)">
     <use xlink:href="#C1_0_9336fff110" x="147.728077" y="271.299553"/>
    </g>
    <g clip-path="url(#paa12e50cd3)">
     <use xlink:href="#C1_0_9336fff110" x="139.974506" y="256.562347"/>
    </g>
    <g clip-path="url(#paa12e50cd3)">
     <use xlink:href="#C1_0_9336fff110" x="136.777158" y="265.85056"/>
    </g>
    <g clip-path="url(#paa12e50cd3)">
     <use xlink:href="#C1_0_9336fff110" x="141.471486" y="247.595777"/>
    </g>
    <g clip-path="url(#paa12e50cd3)">
     <use xlink:href="#C1_0_9336fff110" x="139.362465" y="264.655664"/>
    </g>
    <g clip-path="url(#paa12e50cd3)">
     <use xlink:href="#C1_0_9336fff110" x="137.763107" y="247.951115"/>
    </g>
    <g clip-path="url(#paa12e50cd3)">
     <use xlink:href="#C1_0_9336fff110" x="136.914402" y="247.892541"/>
    </g>
    <g clip-path="url(#paa12e50cd3)">
     <use xlink:href="#C1_0_9336fff110" x="144.746646" y="239.753391"/>
    </g>
    <g clip-path="url(#paa12e50cd3)">
     <use xlink:href="#C1_0_9336fff110" x="143.207053" y="263.702538"/>
    </g>
    <g clip-path="url(#paa12e50cd3)">
     <use xlink:href="#C1_0_9336fff110" x="144.027969" y="222.60342"/>
    </g>
    <g clip-path="url(#paa12e50cd3)">
     <use xlink:href="#C1_0_9336fff110" x="140.598296" y="266.482416"/>
    </g>
    <g clip-path="url(#paa12e50cd3)">
     <use xlink:href="#C1_0_9336fff110" x="148.073162" y="261.918136"/>
    </g>
   </g>
   <g id="PathCollection_5">
    <defs>
     <path id="C2_0_05994f904c" d="M 0 1 
C 0.265203 1 0.51958 0.894634 0.707107 0.707107 
C 0.894634 0.51958 1 0.265203 1 -0 
C 1 -0.265203 0.894634 -0.51958 0.707107 -0.707107 
C 0.51958 -0.894634 0.265203 -1 0 -1 
C -0.265203 -1 -0.51958 -0.894634 -0.707107 -0.707107 
C -0.894634 -0.51958 -1 -0.265203 -1 0 
C -1 0.265203 -0.894634 0.51958 -0.707107 0.707107 
C -0.51958 0.894634 -0.265203 1 0 1 
z
"/>
    </defs>
    <g clip-path="url(#paa12e50cd3)">
     <use xlink:href="#C2_0_05994f904c" x="221.762535" y="260.555697" style="fill: #262626"/>
    </g>
    <g clip-path="url(#paa12e50cd3)">
     <use xlink:href="#C2_0_05994f904c" x="227.475724" y="284.405456" style="fill: #262626"/>
    </g>
    <g clip-path="url(#paa12e50cd3)">
     <use xlink:href="#C2_0_05994f904c" x="217.59354" y="262.089441" style="fill: #262626"/>
    </g>
    <g clip-path="url(#paa12e50cd3)">
     <use xlink:href="#C2_0_05994f904c" x="225.586793" y="271.06707" style="fill: #262626"/>
    </g>
    <g clip-path="url(#paa12e50cd3)">
     <use xlink:href="#C2_0_05994f904c" x="222.252186" y="261.192328" style="fill: #262626"/>
    </g>
    <g clip-path="url(#paa12e50cd3)">
     <use xlink:href="#C2_0_05994f904c" x="227.934137" y="263.266949" style="fill: #262626"/>
    </g>
    <g clip-path="url(#paa12e50cd3)">
     <use xlink:href="#C2_0_05994f904c" x="215.553083" y="265.450222" style="fill: #262626"/>
    </g>
    <g clip-path="url(#paa12e50cd3)">
     <use xlink:href="#C2_0_05994f904c" x="217.718411" y="274.488673" style="fill: #262626"/>
    </g>
    <g clip-path="url(#paa12e50cd3)">
     <use xlink:href="#C2_0_05994f904c" x="218.990969" y="267.767532" style="fill: #262626"/>
    </g>
    <g clip-path="url(#paa12e50cd3)">
     <use xlink:href="#C2_0_05994f904c" x="216.546681" y="274.464341" style="fill: #262626"/>
    </g>
    <g clip-path="url(#paa12e50cd3)">
     <use xlink:href="#C2_0_05994f904c" x="225.834805" y="261.044353" style="fill: #262626"/>
    </g>
    <g clip-path="url(#paa12e50cd3)">
     <use xlink:href="#C2_0_05994f904c" x="220.966177" y="263.794769" style="fill: #262626"/>
    </g>
   </g>
   <g id="PathCollection_6">
    <defs>
     <path id="C3_0_53275dca43" d="M 0 1 
C 0.265203 1 0.51958 0.894634 0.707107 0.707107 
C 0.894634 0.51958 1 0.265203 1 -0 
C 1 -0.265203 0.894634 -0.51958 0.707107 -0.707107 
C 0.51958 -0.894634 0.265203 -1 0 -1 
C -0.265203 -1 -0.51958 -0.894634 -0.707107 -0.707107 
C -0.894634 -0.51958 -1 -0.265203 -1 0 
C -1 0.265203 -0.894634 0.51958 -0.707107 0.707107 
C -0.51958 0.894634 -0.265203 1 0 1 
z
"/>
    </defs>
    <g clip-path="url(#paa12e50cd3)">
     <use xlink:href="#C3_0_53275dca43" x="280.997144" y="281.185785"/>
    </g>
    <g clip-path="url(#paa12e50cd3)">
     <use xlink:href="#C3_0_53275dca43" x="277.001255" y="250.462238"/>
    </g>
    <g clip-path="url(#paa12e50cd3)">
     <use xlink:href="#C3_0_53275dca43" x="275.312435" y="220.300264"/>
    </g>
    <g clip-path="url(#paa12e50cd3)">
     <use xlink:href="#C3_0_53275dca43" x="269.211256" y="250.072724"/>
    </g>
    <g clip-path="url(#paa12e50cd3)">
     <use xlink:href="#C3_0_53275dca43" x="270.355286" y="254.544502"/>
    </g>
    <g clip-path="url(#paa12e50cd3)">
     <use xlink:href="#C3_0_53275dca43" x="275.50024" y="258.567327"/>
    </g>
   </g>
   <g id="PathCollection_7">
    <defs>
     <path id="C4_0_a28973f999" d="M 0 1 
C 0.265203 1 0.51958 0.894634 0.707107 0.707107 
C 0.894634 0.51958 1 0.265203 1 -0 
C 1 -0.265203 0.894634 -0.51958 0.707107 -0.707107 
C 0.51958 -0.894634 0.265203 -1 0 -1 
C -0.265203 -1 -0.51958 -0.894634 -0.707107 -0.707107 
C -0.894634 -0.51958 -1 -0.265203 -1 0 
C -1 0.265203 -0.894634 0.51958 -0.707107 0.707107 
C -0.51958 0.894634 -0.265203 1 0 1 
z
"/>
    </defs>
    <g clip-path="url(#paa12e50cd3)">
     <use xlink:href="#C4_0_a28973f999" x="353.239206" y="269.190901" style="fill: #262626"/>
    </g>
    <g clip-path="url(#paa12e50cd3)">
     <use xlink:href="#C4_0_a28973f999" x="349.72528" y="265.696114" style="fill: #262626"/>
    </g>
    <g clip-path="url(#paa12e50cd3)">
     <use xlink:href="#C4_0_a28973f999" x="354.262262" y="275.483304" style="fill: #262626"/>
    </g>
    <g clip-path="url(#paa12e50cd3)">
     <use xlink:href="#C4_0_a28973f999" x="359.990314" y="274.053565" style="fill: #262626"/>
    </g>
    <g clip-path="url(#paa12e50cd3)">
     <use xlink:href="#C4_0_a28973f999" x="353.863686" y="251.260745" style="fill: #262626"/>
    </g>
    <g clip-path="url(#paa12e50cd3)">
     <use xlink:href="#C4_0_a28973f999" x="349.949059" y="262.128286" style="fill: #262626"/>
    </g>
    <g clip-path="url(#paa12e50cd3)">
     <use xlink:href="#C4_0_a28973f999" x="356.545134" y="272.084883" style="fill: #262626"/>
    </g>
    <g clip-path="url(#paa12e50cd3)">
     <use xlink:href="#C4_0_a28973f999" x="349.555518" y="278.850973" style="fill: #262626"/>
    </g>
    <g clip-path="url(#paa12e50cd3)">
     <use xlink:href="#C4_0_a28973f999" x="353.974859" y="261.213774" style="fill: #262626"/>
    </g>
    <g clip-path="url(#paa12e50cd3)">
     <use xlink:href="#C4_0_a28973f999" x="355.171066" y="262.475209" style="fill: #262626"/>
    </g>
    <g clip-path="url(#paa12e50cd3)">
     <use xlink:href="#C4_0_a28973f999" x="353.413049" y="278.733915" style="fill: #262626"/>
    </g>
    <g clip-path="url(#paa12e50cd3)">
     <use xlink:href="#C4_0_a28973f999" x="350.424588" y="267.220547" style="fill: #262626"/>
    </g>
    <g clip-path="url(#paa12e50cd3)">
     <use xlink:href="#C4_0_a28973f999" x="359.218225" y="270.897887" style="fill: #262626"/>
    </g>
    <g clip-path="url(#paa12e50cd3)">
     <use xlink:href="#C4_0_a28973f999" x="360.635236" y="266.536962" style="fill: #262626"/>
    </g>
   </g>
   <g id="PathCollection_8">
    <defs>
     <path id="C5_0_51d94f2020" d="M 0 1 
C 0.265203 1 0.51958 0.894634 0.707107 0.707107 
C 0.894634 0.51958 1 0.265203 1 -0 
C 1 -0.265203 0.894634 -0.51958 0.707107 -0.707107 
C 0.51958 -0.894634 0.265203 -1 0 -1 
C -0.265203 -1 -0.51958 -0.894634 -0.707107 -0.707107 
C -0.894634 -0.51958 -1 -0.265203 -1 0 
C -1 0.265203 -0.894634 0.51958 -0.707107 0.707107 
C -0.51958 0.894634 -0.265203 1 0 1 
z
"/>
    </defs>
    <g clip-path="url(#paa12e50cd3)">
     <use xlink:href="#C5_0_51d94f2020" x="413.006142" y="254.189196"/>
    </g>
    <g clip-path="url(#paa12e50cd3)">
     <use xlink:href="#C5_0_51d94f2020" x="404.662437" y="259.786771"/>
    </g>
    <g clip-path="url(#paa12e50cd3)">
     <use xlink:href="#C5_0_51d94f2020" x="406.755669" y="274.927476"/>
    </g>
    <g clip-path="url(#paa12e50cd3)">
     <use xlink:href="#C5_0_51d94f2020" x="410.955275" y="245.546185"/>
    </g>
    <g clip-path="url(#paa12e50cd3)">
     <use xlink:href="#C5_0_51d94f2020" x="404.097904" y="261.586966"/>
    </g>
    <g clip-path="url(#paa12e50cd3)">
     <use xlink:href="#C5_0_51d94f2020" x="414.922413" y="267.911909"/>
    </g>
    <g clip-path="url(#paa12e50cd3)">
     <use xlink:href="#C5_0_51d94f2020" x="412.68645" y="258.599983"/>
    </g>
    <g clip-path="url(#paa12e50cd3)">
     <use xlink:href="#C5_0_51d94f2020" x="414.537376" y="246.160069"/>
    </g>
    <g clip-path="url(#paa12e50cd3)">
     <use xlink:href="#C5_0_51d94f2020" x="407.343545" y="245.363156"/>
    </g>
    <g clip-path="url(#paa12e50cd3)">
     <use xlink:href="#C5_0_51d94f2020" x="404.929922" y="257.34802"/>
    </g>
    <g clip-path="url(#paa12e50cd3)">
     <use xlink:href="#C5_0_51d94f2020" x="409.56136" y="245.183614"/>
    </g>
    <g clip-path="url(#paa12e50cd3)">
     <use xlink:href="#C5_0_51d94f2020" x="405.702143" y="244.894168"/>
    </g>
   </g>
   <g id="text_15">
    <!-- 28 -->
    <g style="fill: #262626" transform="translate(94.732167 18.730246)scale(0.1 -0.1)">
     <use xlink:href="#DejaVuSans-32"/>
     <use xlink:href="#DejaVuSans-38" x="63.623047"/>
    </g>
   </g>
   <g id="text_16">
    <!-- p&lt;.005 -->
    <g style="fill: #262626" transform="translate(79.934667 252.416038)scale(0.08 -0.08)">
     <defs>
      <path id="DejaVuSans-3c" d="M 4684 3150 
L 1459 2003 
L 4684 863 
L 4684 294 
L 678 1747 
L 678 2266 
L 4684 3719 
L 4684 3150 
z
" transform="scale(0.015625)"/>
      <path id="DejaVuSans-35" d="M 691 4666 
L 3169 4666 
L 3169 4134 
L 1269 4134 
L 1269 2991 
Q 1406 3038 1543 3061 
Q 1681 3084 1819 3084 
Q 2600 3084 3056 2656 
Q 3513 2228 3513 1497 
Q 3513 744 3044 326 
Q 2575 -91 1722 -91 
Q 1428 -91 1123 -41 
Q 819 9 494 109 
L 494 744 
Q 775 591 1075 516 
Q 1375 441 1709 441 
Q 2250 441 2565 725 
Q 2881 1009 2881 1497 
Q 2881 1984 2565 2268 
Q 2250 2553 1709 2553 
Q 1456 2553 1204 2497 
Q 953 2441 691 2322 
L 691 4666 
z
" transform="scale(0.015625)"/>
     </defs>
     <use xlink:href="#DejaVuSans-70"/>
     <use xlink:href="#DejaVuSans-3c" x="63.476562"/>
     <use xlink:href="#DejaVuSans-2e" x="147.265625"/>
     <use xlink:href="#DejaVuSans-30" x="179.052734"/>
     <use xlink:href="#DejaVuSans-30" x="242.675781"/>
     <use xlink:href="#DejaVuSans-35" x="306.298828"/>
    </g>
   </g>
   <g id="text_17">
    <!-- 13 -->
    <g style="fill: #262626" transform="translate(134.951167 18.730246)scale(0.1 -0.1)">
     <defs>
      <path id="DejaVuSans-33" d="M 2597 2516 
Q 3050 2419 3304 2112 
Q 3559 1806 3559 1356 
Q 3559 666 3084 287 
Q 2609 -91 1734 -91 
Q 1441 -91 1130 -33 
Q 819 25 488 141 
L 488 750 
Q 750 597 1062 519 
Q 1375 441 1716 441 
Q 2309 441 2620 675 
Q 2931 909 2931 1356 
Q 2931 1769 2642 2001 
Q 2353 2234 1838 2234 
L 1294 2234 
L 1294 2753 
L 1863 2753 
Q 2328 2753 2575 2939 
Q 2822 3125 2822 3475 
Q 2822 3834 2567 4026 
Q 2313 4219 1838 4219 
Q 1578 4219 1281 4162 
Q 984 4106 628 3988 
L 628 4550 
Q 988 4650 1302 4700 
Q 1616 4750 1894 4750 
Q 2613 4750 3031 4423 
Q 3450 4097 3450 3541 
Q 3450 3153 3228 2886 
Q 3006 2619 2597 2516 
z
" transform="scale(0.015625)"/>
     </defs>
     <use xlink:href="#DejaVuSans-31"/>
     <use xlink:href="#DejaVuSans-33" x="63.623047"/>
    </g>
   </g>
   <g id="text_18">
    <!-- 12 -->
    <g style="fill: #262626" transform="translate(228.7955 18.730246)scale(0.1 -0.1)">
     <use xlink:href="#DejaVuSans-31"/>
     <use xlink:href="#DejaVuSans-32" x="63.623047"/>
    </g>
   </g>
   <g id="text_19">
    <!-- p&lt;.05 -->
    <g style="fill: #262626" transform="translate(216.543 251.922068)scale(0.08 -0.08)">
     <use xlink:href="#DejaVuSans-70"/>
     <use xlink:href="#DejaVuSans-3c" x="63.476562"/>
     <use xlink:href="#DejaVuSans-2e" x="147.265625"/>
     <use xlink:href="#DejaVuSans-30" x="179.052734"/>
     <use xlink:href="#DejaVuSans-35" x="242.675781"/>
    </g>
   </g>
   <g id="text_20">
    <!-- 6 -->
    <g style="fill: #262626" transform="translate(269.0145 18.730246)scale(0.1 -0.1)">
     <use xlink:href="#DejaVuSans-36"/>
    </g>
   </g>
   <g id="text_21">
    <!-- 14 -->
    <g style="fill: #262626" transform="translate(362.858833 18.730246)scale(0.1 -0.1)">
     <use xlink:href="#DejaVuSans-31"/>
     <use xlink:href="#DejaVuSans-34" x="63.623047"/>
    </g>
   </g>
   <g id="text_22">
    <!-- p&lt;.005 -->
    <g style="fill: #262626" transform="translate(348.061333 242.627116)scale(0.08 -0.08)">
     <use xlink:href="#DejaVuSans-70"/>
     <use xlink:href="#DejaVuSans-3c" x="63.476562"/>
     <use xlink:href="#DejaVuSans-2e" x="147.265625"/>
     <use xlink:href="#DejaVuSans-30" x="179.052734"/>
     <use xlink:href="#DejaVuSans-30" x="242.675781"/>
     <use xlink:href="#DejaVuSans-35" x="306.298828"/>
    </g>
   </g>
   <g id="text_23">
    <!-- 12 -->
    <g style="fill: #262626" transform="translate(403.077833 18.730246)scale(0.1 -0.1)">
     <use xlink:href="#DejaVuSans-31"/>
     <use xlink:href="#DejaVuSans-32" x="63.623047"/>
    </g>
   </g>
   <g id="legend_1">
    <g id="patch_15">
     <path d="M 377.728125 43.962312 
L 397.728125 43.962312 
L 397.728125 36.962312 
L 377.728125 36.962312 
z
" style="fill: #ecf2ec; stroke: #262626; stroke-width: 0.75; stroke-linejoin: miter"/>
    </g>
    <g id="text_24">
     <!-- Mutant -->
     <g style="fill: #262626" transform="translate(405.728125 43.962312)scale(0.1 -0.1)">
      <defs>
       <path id="DejaVuSans-4d" d="M 628 4666 
L 1569 4666 
L 2759 1491 
L 3956 4666 
L 4897 4666 
L 4897 0 
L 4281 0 
L 4281 4097 
L 3078 897 
L 2444 897 
L 1241 4097 
L 1241 0 
L 628 0 
L 628 4666 
z
" transform="scale(0.015625)"/>
       <path id="DejaVuSans-75" d="M 544 1381 
L 544 3500 
L 1119 3500 
L 1119 1403 
Q 1119 906 1312 657 
Q 1506 409 1894 409 
Q 2359 409 2629 706 
Q 2900 1003 2900 1516 
L 2900 3500 
L 3475 3500 
L 3475 0 
L 2900 0 
L 2900 538 
Q 2691 219 2414 64 
Q 2138 -91 1772 -91 
Q 1169 -91 856 284 
Q 544 659 544 1381 
z
M 1991 3584 
L 1991 3584 
z
" transform="scale(0.015625)"/>
       <path id="DejaVuSans-61" d="M 2194 1759 
Q 1497 1759 1228 1600 
Q 959 1441 959 1056 
Q 959 750 1161 570 
Q 1363 391 1709 391 
Q 2188 391 2477 730 
Q 2766 1069 2766 1631 
L 2766 1759 
L 2194 1759 
z
M 3341 1997 
L 3341 0 
L 2766 0 
L 2766 531 
Q 2569 213 2275 61 
Q 1981 -91 1556 -91 
Q 1019 -91 701 211 
Q 384 513 384 1019 
Q 384 1609 779 1909 
Q 1175 2209 1959 2209 
L 2766 2209 
L 2766 2266 
Q 2766 2663 2505 2880 
Q 2244 3097 1772 3097 
Q 1472 3097 1187 3025 
Q 903 2953 641 2809 
L 641 3341 
Q 956 3463 1253 3523 
Q 1550 3584 1831 3584 
Q 2591 3584 2966 3190 
Q 3341 2797 3341 1997 
z
" transform="scale(0.015625)"/>
      </defs>
      <use xlink:href="#DejaVuSans-4d"/>
      <use xlink:href="#DejaVuSans-75" x="86.279297"/>
      <use xlink:href="#DejaVuSans-74" x="149.658203"/>
      <use xlink:href="#DejaVuSans-61" x="188.867188"/>
      <use xlink:href="#DejaVuSans-6e" x="250.146484"/>
      <use xlink:href="#DejaVuSans-74" x="313.525391"/>
     </g>
    </g>
    <g id="patch_16">
     <path d="M 377.728125 58.640438 
L 397.728125 58.640438 
L 397.728125 51.640438 
L 377.728125 51.640438 
z
" style="fill: #107010; stroke: #262626; stroke-width: 0.75; stroke-linejoin: miter"/>
    </g>
    <g id="text_25">
     <!-- WT -->
     <g style="fill: #262626" transform="translate(405.728125 58.640438)scale(0.1 -0.1)">
      <use xlink:href="#DejaVuSans-57"/>
      <use xlink:href="#DejaVuSans-54" x="98.876953"/>
     </g>
    </g>
   </g>
  </g>
 </g>
 <defs>
  <clipPath id="paa12e50cd3">
   <rect x="47.81" y="27.363875" width="402.19" height="276.276125"/>
  </clipPath>
 </defs>
</svg>
