<?xml version="1.0" encoding="utf-8" standalone="no"?>
<!DOCTYPE svg PUBLIC "-//W3C//DTD SVG 1.1//EN"
  "http://www.w3.org/Graphics/SVG/1.1/DTD/svg11.dtd">
<svg xmlns:xlink="http://www.w3.org/1999/xlink" width="460.8pt" height="345.6pt" viewBox="0 0 460.8 345.6" xmlns="http://www.w3.org/2000/svg" version="1.1">
 <metadata>
  <rdf:RDF xmlns:dc="http://purl.org/dc/elements/1.1/" xmlns:cc="http://creativecommons.org/ns#" xmlns:rdf="http://www.w3.org/1999/02/22-rdf-syntax-ns#">
   <cc:Work>
    <dc:type rdf:resource="http://purl.org/dc/dcmitype/StillImage"/>
    <dc:date>2024-02-24T17:20:38.609631</dc:date>
    <dc:format>image/svg+xml</dc:format>
    <dc:creator>
     <cc:Agent>
      <dc:title>Matplotlib v3.5.3, https://matplotlib.org/</dc:title>
     </cc:Agent>
    </dc:creator>
   </cc:Work>
  </rdf:RDF>
 </metadata>
 <defs>
  <style type="text/css">*{stroke-linejoin: round; stroke-linecap: butt}</style>
 </defs>
 <g id="figure_1">
  <g id="patch_1">
   <path d="M 0 345.6 
L 460.8 345.6 
L 460.8 0 
L 0 0 
z
" style="fill: #ffffff"/>
  </g>
  <g id="axes_1">
   <g id="patch_2">
    <path d="M 47.82125 303.64 
L 450 303.64 
L 450 46.675687 
L 47.82125 46.675687 
z
" style="fill: #ffffff"/>
   </g>
   <g id="PathCollection_1">
    <defs>
     <path id="m3613e524ee" d="M 0 3 
C 0.795609 3 1.55874 2.683901 2.12132 2.12132 
C 2.683901 1.55874 3 0.795609 3 0 
C 3 -0.795609 2.683901 -1.55874 2.12132 -2.12132 
C 1.55874 -2.683901 0.795609 -3 0 -3 
C -0.795609 -3 -1.55874 -2.683901 -2.12132 -2.12132 
C -2.683901 -1.55874 -3 -0.795609 -3 0 
C -3 0.795609 -2.683901 1.55874 -2.12132 2.12132 
C -1.55874 2.683901 -0.795609 3 0 3 
z
" style="stroke: #1f77b4"/>
    </defs>
    <g clip-path="url(#p6966f7118e)">
     <use xlink:href="#m3613e524ee" x="146.952258" y="215.555599" style="fill: #1f77b4; stroke: #1f77b4"/>
     <use xlink:href="#m3613e524ee" x="206.637543" y="246.919562" style="fill: #1f77b4; stroke: #1f77b4"/>
     <use xlink:href="#m3613e524ee" x="83.23972" y="203.107784" style="fill: #1f77b4; stroke: #1f77b4"/>
     <use xlink:href="#m3613e524ee" x="201.860629" y="217.459025" style="fill: #1f77b4; stroke: #1f77b4"/>
     <use xlink:href="#m3613e524ee" x="150.57853" y="200.639521" style="fill: #1f77b4; stroke: #1f77b4"/>
     <use xlink:href="#m3613e524ee" x="194.146085" y="221.133816" style="fill: #1f77b4; stroke: #1f77b4"/>
     <use xlink:href="#m3613e524ee" x="124.784933" y="207.668589" style="fill: #1f77b4; stroke: #1f77b4"/>
     <use xlink:href="#m3613e524ee" x="223.722859" y="193.031739" style="fill: #1f77b4; stroke: #1f77b4"/>
     <use xlink:href="#m3613e524ee" x="265.398827" y="236.379796" style="fill: #1f77b4; stroke: #1f77b4"/>
     <use xlink:href="#m3613e524ee" x="214.613597" y="284.283679" style="fill: #1f77b4; stroke: #1f77b4"/>
     <use xlink:href="#m3613e524ee" x="223.409047" y="249.887615" style="fill: #1f77b4; stroke: #1f77b4"/>
     <use xlink:href="#m3613e524ee" x="262.042782" y="228.373915" style="fill: #1f77b4; stroke: #1f77b4"/>
     <use xlink:href="#m3613e524ee" x="268.301587" y="233.884205" style="fill: #1f77b4; stroke: #1f77b4"/>
     <use xlink:href="#m3613e524ee" x="157.499826" y="223.468461" style="fill: #1f77b4; stroke: #1f77b4"/>
     <use xlink:href="#m3613e524ee" x="257.719151" y="207.891842" style="fill: #1f77b4; stroke: #1f77b4"/>
     <use xlink:href="#m3613e524ee" x="149.750415" y="253.620932" style="fill: #1f77b4; stroke: #1f77b4"/>
     <use xlink:href="#m3613e524ee" x="189.97936" y="222.368408" style="fill: #1f77b4; stroke: #1f77b4"/>
     <use xlink:href="#m3613e524ee" x="238.576624" y="204.781752" style="fill: #1f77b4; stroke: #1f77b4"/>
     <use xlink:href="#m3613e524ee" x="109.530186" y="278.889534" style="fill: #1f77b4; stroke: #1f77b4"/>
     <use xlink:href="#m3613e524ee" x="273.034917" y="213.850315" style="fill: #1f77b4; stroke: #1f77b4"/>
     <use xlink:href="#m3613e524ee" x="211.606232" y="242.218396" style="fill: #1f77b4; stroke: #1f77b4"/>
     <use xlink:href="#m3613e524ee" x="328.396571" y="217.150801" style="fill: #1f77b4; stroke: #1f77b4"/>
     <use xlink:href="#m3613e524ee" x="269.739892" y="274.241588" style="fill: #1f77b4; stroke: #1f77b4"/>
     <use xlink:href="#m3613e524ee" x="196.639147" y="203.282682" style="fill: #1f77b4; stroke: #1f77b4"/>
     <use xlink:href="#m3613e524ee" x="122.187267" y="186.455543" style="fill: #1f77b4; stroke: #1f77b4"/>
     <use xlink:href="#m3613e524ee" x="68.612598" y="219.222686" style="fill: #1f77b4; stroke: #1f77b4"/>
     <use xlink:href="#m3613e524ee" x="283.530182" y="284.367652" style="fill: #1f77b4; stroke: #1f77b4"/>
     <use xlink:href="#m3613e524ee" x="156.64556" y="216.158721" style="fill: #1f77b4; stroke: #1f77b4"/>
     <use xlink:href="#m3613e524ee" x="236.127147" y="188.828961" style="fill: #1f77b4; stroke: #1f77b4"/>
     <use xlink:href="#m3613e524ee" x="183.860028" y="211.398677" style="fill: #1f77b4; stroke: #1f77b4"/>
     <use xlink:href="#m3613e524ee" x="135.524274" y="259.258924" style="fill: #1f77b4; stroke: #1f77b4"/>
     <use xlink:href="#m3613e524ee" x="316.567605" y="177.985133" style="fill: #1f77b4; stroke: #1f77b4"/>
     <use xlink:href="#m3613e524ee" x="171.473174" y="243.658516" style="fill: #1f77b4; stroke: #1f77b4"/>
     <use xlink:href="#m3613e524ee" x="183.607235" y="250.430075" style="fill: #1f77b4; stroke: #1f77b4"/>
     <use xlink:href="#m3613e524ee" x="258.059114" y="261.066624" style="fill: #1f77b4; stroke: #1f77b4"/>
     <use xlink:href="#m3613e524ee" x="142.820401" y="225.728465" style="fill: #1f77b4; stroke: #1f77b4"/>
     <use xlink:href="#m3613e524ee" x="262.618104" y="207.762709" style="fill: #1f77b4; stroke: #1f77b4"/>
     <use xlink:href="#m3613e524ee" x="377.961421" y="236.147949" style="fill: #1f77b4; stroke: #1f77b4"/>
     <use xlink:href="#m3613e524ee" x="237.033715" y="237.755958" style="fill: #1f77b4; stroke: #1f77b4"/>
     <use xlink:href="#m3613e524ee" x="223.705425" y="229.417049" style="fill: #1f77b4; stroke: #1f77b4"/>
     <use xlink:href="#m3613e524ee" x="331.09884" y="186.586421" style="fill: #1f77b4; stroke: #1f77b4"/>
     <use xlink:href="#m3613e524ee" x="66.102102" y="211.7727" style="fill: #1f77b4; stroke: #1f77b4"/>
     <use xlink:href="#m3613e524ee" x="372.338958" y="287.865168" style="fill: #1f77b4; stroke: #1f77b4"/>
     <use xlink:href="#m3613e524ee" x="185.882371" y="258.426183" style="fill: #1f77b4; stroke: #1f77b4"/>
     <use xlink:href="#m3613e524ee" x="337.967835" y="221.950197" style="fill: #1f77b4; stroke: #1f77b4"/>
     <use xlink:href="#m3613e524ee" x="312.793145" y="210.016862" style="fill: #1f77b4; stroke: #1f77b4"/>
     <use xlink:href="#m3613e524ee" x="233.782275" y="239.114663" style="fill: #1f77b4; stroke: #1f77b4"/>
     <use xlink:href="#m3613e524ee" x="238.454586" y="281.954836" style="fill: #1f77b4; stroke: #1f77b4"/>
     <use xlink:href="#m3613e524ee" x="281.586292" y="234.296805" style="fill: #1f77b4; stroke: #1f77b4"/>
     <use xlink:href="#m3613e524ee" x="261.301838" y="230.47092" style="fill: #1f77b4; stroke: #1f77b4"/>
     <use xlink:href="#m3613e524ee" x="342.866788" y="224.497942" style="fill: #1f77b4; stroke: #1f77b4"/>
     <use xlink:href="#m3613e524ee" x="304.886827" y="216.91285" style="fill: #1f77b4; stroke: #1f77b4"/>
     <use xlink:href="#m3613e524ee" x="167.68128" y="201.177633" style="fill: #1f77b4; stroke: #1f77b4"/>
     <use xlink:href="#m3613e524ee" x="153.385403" y="209.758179" style="fill: #1f77b4; stroke: #1f77b4"/>
     <use xlink:href="#m3613e524ee" x="270.629025" y="217.830163" style="fill: #1f77b4; stroke: #1f77b4"/>
     <use xlink:href="#m3613e524ee" x="219.041831" y="243.769109" style="fill: #1f77b4; stroke: #1f77b4"/>
     <use xlink:href="#m3613e524ee" x="324.308299" y="232.177713" style="fill: #1f77b4; stroke: #1f77b4"/>
     <use xlink:href="#m3613e524ee" x="264.291768" y="204.316595" style="fill: #1f77b4; stroke: #1f77b4"/>
     <use xlink:href="#m3613e524ee" x="363.752715" y="279.364478" style="fill: #1f77b4; stroke: #1f77b4"/>
     <use xlink:href="#m3613e524ee" x="250.344571" y="252.075414" style="fill: #1f77b4; stroke: #1f77b4"/>
     <use xlink:href="#m3613e524ee" x="144.415612" y="209.02546" style="fill: #1f77b4; stroke: #1f77b4"/>
     <use xlink:href="#m3613e524ee" x="265.581884" y="255.547017" style="fill: #1f77b4; stroke: #1f77b4"/>
     <use xlink:href="#m3613e524ee" x="186.928411" y="242.508849" style="fill: #1f77b4; stroke: #1f77b4"/>
     <use xlink:href="#m3613e524ee" x="353.152845" y="291.489065" style="fill: #1f77b4; stroke: #1f77b4"/>
     <use xlink:href="#m3613e524ee" x="351.435597" y="284.397038" style="fill: #1f77b4; stroke: #1f77b4"/>
     <use xlink:href="#m3613e524ee" x="301.400028" y="237.053098" style="fill: #1f77b4; stroke: #1f77b4"/>
     <use xlink:href="#m3613e524ee" x="240.006212" y="222.12907" style="fill: #1f77b4; stroke: #1f77b4"/>
     <use xlink:href="#m3613e524ee" x="205.983769" y="194.055513" style="fill: #1f77b4; stroke: #1f77b4"/>
     <use xlink:href="#m3613e524ee" x="232.065026" y="243.612333" style="fill: #1f77b4; stroke: #1f77b4"/>
     <use xlink:href="#m3613e524ee" x="198.940434" y="201.469579" style="fill: #1f77b4; stroke: #1f77b4"/>
     <use xlink:href="#m3613e524ee" x="231.324082" y="234.610704" style="fill: #1f77b4; stroke: #1f77b4"/>
     <use xlink:href="#m3613e524ee" x="176.30239" y="154.020139" style="fill: #1f77b4; stroke: #1f77b4"/>
     <use xlink:href="#m3613e524ee" x="360.344368" y="285.777506" style="fill: #1f77b4; stroke: #1f77b4"/>
     <use xlink:href="#m3613e524ee" x="145.801615" y="213.58912" style="fill: #1f77b4; stroke: #1f77b4"/>
     <use xlink:href="#m3613e524ee" x="191.574571" y="259.195763" style="fill: #1f77b4; stroke: #1f77b4"/>
     <use xlink:href="#m3613e524ee" x="179.344623" y="234.630526" style="fill: #1f77b4; stroke: #1f77b4"/>
     <use xlink:href="#m3613e524ee" x="255.348128" y="279.47605" style="fill: #1f77b4; stroke: #1f77b4"/>
     <use xlink:href="#m3613e524ee" x="270.873101" y="210.620576" style="fill: #1f77b4; stroke: #1f77b4"/>
     <use xlink:href="#m3613e524ee" x="388.203894" y="276.688756" style="fill: #1f77b4; stroke: #1f77b4"/>
     <use xlink:href="#m3613e524ee" x="266.837131" y="218.565557" style="fill: #1f77b4; stroke: #1f77b4"/>
     <use xlink:href="#m3613e524ee" x="277.114472" y="225.978477" style="fill: #1f77b4; stroke: #1f77b4"/>
     <use xlink:href="#m3613e524ee" x="206.99494" y="221.611186" style="fill: #1f77b4; stroke: #1f77b4"/>
     <use xlink:href="#m3613e524ee" x="205.887882" y="217.359013" style="fill: #1f77b4; stroke: #1f77b4"/>
     <use xlink:href="#m3613e524ee" x="153.559743" y="283.110598" style="fill: #1f77b4; stroke: #1f77b4"/>
     <use xlink:href="#m3613e524ee" x="230.391363" y="204.522103" style="fill: #1f77b4; stroke: #1f77b4"/>
     <use xlink:href="#m3613e524ee" x="283.076899" y="203.285994" style="fill: #1f77b4; stroke: #1f77b4"/>
     <use xlink:href="#m3613e524ee" x="431.719148" y="239.244435" style="fill: #1f77b4; stroke: #1f77b4"/>
     <use xlink:href="#m3613e524ee" x="394.349377" y="254.409437" style="fill: #1f77b4; stroke: #1f77b4"/>
     <use xlink:href="#m3613e524ee" x="387.689591" y="288.984279" style="fill: #1f77b4; stroke: #1f77b4"/>
     <use xlink:href="#m3613e524ee" x="311.145632" y="235.390159" style="fill: #1f77b4; stroke: #1f77b4"/>
     <use xlink:href="#m3613e524ee" x="299.85712" y="220.979929" style="fill: #1f77b4; stroke: #1f77b4"/>
     <use xlink:href="#m3613e524ee" x="301.905614" y="225.482265" style="fill: #1f77b4; stroke: #1f77b4"/>
     <use xlink:href="#m3613e524ee" x="244.42573" y="268.64946" style="fill: #1f77b4; stroke: #1f77b4"/>
     <use xlink:href="#m3613e524ee" x="297.878361" y="225.716388" style="fill: #1f77b4; stroke: #1f77b4"/>
     <use xlink:href="#m3613e524ee" x="213.698312" y="203.5588" style="fill: #1f77b4; stroke: #1f77b4"/>
     <use xlink:href="#m3613e524ee" x="295.027903" y="288.195311" style="fill: #1f77b4; stroke: #1f77b4"/>
     <use xlink:href="#m3613e524ee" x="304.503279" y="213.743224" style="fill: #1f77b4; stroke: #1f77b4"/>
     <use xlink:href="#m3613e524ee" x="323.096636" y="222.00202" style="fill: #1f77b4; stroke: #1f77b4"/>
    </g>
   </g>
   <g id="matplotlib.axis_1">
    <g id="xtick_1">
     <g id="line2d_1">
      <defs>
       <path id="md0dbc638e9" d="M 0 0 
L 0 3.5 
" style="stroke: #000000; stroke-width: 0.8"/>
      </defs>
      <g>
       <use xlink:href="#md0dbc638e9" x="108.50158" y="303.64" style="stroke: #000000; stroke-width: 0.8"/>
      </g>
     </g>
     <g id="text_1">
      <!-- −900 -->
      <g transform="translate(94.767987 318.238437)scale(0.1 -0.1)">
       <defs>
        <path id="DejaVuSans-2212" d="M 678 2272 
L 4684 2272 
L 4684 1741 
L 678 1741 
L 678 2272 
z
" transform="scale(0.015625)"/>
        <path id="DejaVuSans-39" d="M 703 97 
L 703 672 
Q 941 559 1184 500 
Q 1428 441 1663 441 
Q 2288 441 2617 861 
Q 2947 1281 2994 2138 
Q 2813 1869 2534 1725 
Q 2256 1581 1919 1581 
Q 1219 1581 811 2004 
Q 403 2428 403 3163 
Q 403 3881 828 4315 
Q 1253 4750 1959 4750 
Q 2769 4750 3195 4129 
Q 3622 3509 3622 2328 
Q 3622 1225 3098 567 
Q 2575 -91 1691 -91 
Q 1453 -91 1209 -44 
Q 966 3 703 97 
z
M 1959 2075 
Q 2384 2075 2632 2365 
Q 2881 2656 2881 3163 
Q 2881 3666 2632 3958 
Q 2384 4250 1959 4250 
Q 1534 4250 1286 3958 
Q 1038 3666 1038 3163 
Q 1038 2656 1286 2365 
Q 1534 2075 1959 2075 
z
" transform="scale(0.015625)"/>
        <path id="DejaVuSans-30" d="M 2034 4250 
Q 1547 4250 1301 3770 
Q 1056 3291 1056 2328 
Q 1056 1369 1301 889 
Q 1547 409 2034 409 
Q 2525 409 2770 889 
Q 3016 1369 3016 2328 
Q 3016 3291 2770 3770 
Q 2525 4250 2034 4250 
z
M 2034 4750 
Q 2819 4750 3233 4129 
Q 3647 3509 3647 2328 
Q 3647 1150 3233 529 
Q 2819 -91 2034 -91 
Q 1250 -91 836 529 
Q 422 1150 422 2328 
Q 422 3509 836 4129 
Q 1250 4750 2034 4750 
z
" transform="scale(0.015625)"/>
       </defs>
       <use xlink:href="#DejaVuSans-2212"/>
       <use xlink:href="#DejaVuSans-39" x="83.789062"/>
       <use xlink:href="#DejaVuSans-30" x="147.412109"/>
       <use xlink:href="#DejaVuSans-30" x="211.035156"/>
      </g>
     </g>
    </g>
    <g id="xtick_2">
     <g id="line2d_2">
      <g>
       <use xlink:href="#md0dbc638e9" x="195.67156" y="303.64" style="stroke: #000000; stroke-width: 0.8"/>
      </g>
     </g>
     <g id="text_2">
      <!-- −800 -->
      <g transform="translate(181.937966 318.238437)scale(0.1 -0.1)">
       <defs>
        <path id="DejaVuSans-38" d="M 2034 2216 
Q 1584 2216 1326 1975 
Q 1069 1734 1069 1313 
Q 1069 891 1326 650 
Q 1584 409 2034 409 
Q 2484 409 2743 651 
Q 3003 894 3003 1313 
Q 3003 1734 2745 1975 
Q 2488 2216 2034 2216 
z
M 1403 2484 
Q 997 2584 770 2862 
Q 544 3141 544 3541 
Q 544 4100 942 4425 
Q 1341 4750 2034 4750 
Q 2731 4750 3128 4425 
Q 3525 4100 3525 3541 
Q 3525 3141 3298 2862 
Q 3072 2584 2669 2484 
Q 3125 2378 3379 2068 
Q 3634 1759 3634 1313 
Q 3634 634 3220 271 
Q 2806 -91 2034 -91 
Q 1263 -91 848 271 
Q 434 634 434 1313 
Q 434 1759 690 2068 
Q 947 2378 1403 2484 
z
M 1172 3481 
Q 1172 3119 1398 2916 
Q 1625 2713 2034 2713 
Q 2441 2713 2670 2916 
Q 2900 3119 2900 3481 
Q 2900 3844 2670 4047 
Q 2441 4250 2034 4250 
Q 1625 4250 1398 4047 
Q 1172 3844 1172 3481 
z
" transform="scale(0.015625)"/>
       </defs>
       <use xlink:href="#DejaVuSans-2212"/>
       <use xlink:href="#DejaVuSans-38" x="83.789062"/>
       <use xlink:href="#DejaVuSans-30" x="147.412109"/>
       <use xlink:href="#DejaVuSans-30" x="211.035156"/>
      </g>
     </g>
    </g>
    <g id="xtick_3">
     <g id="line2d_3">
      <g>
       <use xlink:href="#md0dbc638e9" x="282.84154" y="303.64" style="stroke: #000000; stroke-width: 0.8"/>
      </g>
     </g>
     <g id="text_3">
      <!-- −700 -->
      <g transform="translate(269.107946 318.238437)scale(0.1 -0.1)">
       <defs>
        <path id="DejaVuSans-37" d="M 525 4666 
L 3525 4666 
L 3525 4397 
L 1831 0 
L 1172 0 
L 2766 4134 
L 525 4134 
L 525 4666 
z
" transform="scale(0.015625)"/>
       </defs>
       <use xlink:href="#DejaVuSans-2212"/>
       <use xlink:href="#DejaVuSans-37" x="83.789062"/>
       <use xlink:href="#DejaVuSans-30" x="147.412109"/>
       <use xlink:href="#DejaVuSans-30" x="211.035156"/>
      </g>
     </g>
    </g>
    <g id="xtick_4">
     <g id="line2d_4">
      <g>
       <use xlink:href="#md0dbc638e9" x="370.011519" y="303.64" style="stroke: #000000; stroke-width: 0.8"/>
      </g>
     </g>
     <g id="text_4">
      <!-- −600 -->
      <g transform="translate(356.277925 318.238437)scale(0.1 -0.1)">
       <defs>
        <path id="DejaVuSans-36" d="M 2113 2584 
Q 1688 2584 1439 2293 
Q 1191 2003 1191 1497 
Q 1191 994 1439 701 
Q 1688 409 2113 409 
Q 2538 409 2786 701 
Q 3034 994 3034 1497 
Q 3034 2003 2786 2293 
Q 2538 2584 2113 2584 
z
M 3366 4563 
L 3366 3988 
Q 3128 4100 2886 4159 
Q 2644 4219 2406 4219 
Q 1781 4219 1451 3797 
Q 1122 3375 1075 2522 
Q 1259 2794 1537 2939 
Q 1816 3084 2150 3084 
Q 2853 3084 3261 2657 
Q 3669 2231 3669 1497 
Q 3669 778 3244 343 
Q 2819 -91 2113 -91 
Q 1303 -91 875 529 
Q 447 1150 447 2328 
Q 447 3434 972 4092 
Q 1497 4750 2381 4750 
Q 2619 4750 2861 4703 
Q 3103 4656 3366 4563 
z
" transform="scale(0.015625)"/>
       </defs>
       <use xlink:href="#DejaVuSans-2212"/>
       <use xlink:href="#DejaVuSans-36" x="83.789062"/>
       <use xlink:href="#DejaVuSans-30" x="147.412109"/>
       <use xlink:href="#DejaVuSans-30" x="211.035156"/>
      </g>
     </g>
    </g>
    <g id="text_5">
     <!-- SasaDiff -->
     <g transform="translate(228.244219 331.916562)scale(0.1 -0.1)">
      <defs>
       <path id="DejaVuSans-53" d="M 3425 4513 
L 3425 3897 
Q 3066 4069 2747 4153 
Q 2428 4238 2131 4238 
Q 1616 4238 1336 4038 
Q 1056 3838 1056 3469 
Q 1056 3159 1242 3001 
Q 1428 2844 1947 2747 
L 2328 2669 
Q 3034 2534 3370 2195 
Q 3706 1856 3706 1288 
Q 3706 609 3251 259 
Q 2797 -91 1919 -91 
Q 1588 -91 1214 -16 
Q 841 59 441 206 
L 441 856 
Q 825 641 1194 531 
Q 1563 422 1919 422 
Q 2459 422 2753 634 
Q 3047 847 3047 1241 
Q 3047 1584 2836 1778 
Q 2625 1972 2144 2069 
L 1759 2144 
Q 1053 2284 737 2584 
Q 422 2884 422 3419 
Q 422 4038 858 4394 
Q 1294 4750 2059 4750 
Q 2388 4750 2728 4690 
Q 3069 4631 3425 4513 
z
" transform="scale(0.015625)"/>
       <path id="DejaVuSans-61" d="M 2194 1759 
Q 1497 1759 1228 1600 
Q 959 1441 959 1056 
Q 959 750 1161 570 
Q 1363 391 1709 391 
Q 2188 391 2477 730 
Q 2766 1069 2766 1631 
L 2766 1759 
L 2194 1759 
z
M 3341 1997 
L 3341 0 
L 2766 0 
L 2766 531 
Q 2569 213 2275 61 
Q 1981 -91 1556 -91 
Q 1019 -91 701 211 
Q 384 513 384 1019 
Q 384 1609 779 1909 
Q 1175 2209 1959 2209 
L 2766 2209 
L 2766 2266 
Q 2766 2663 2505 2880 
Q 2244 3097 1772 3097 
Q 1472 3097 1187 3025 
Q 903 2953 641 2809 
L 641 3341 
Q 956 3463 1253 3523 
Q 1550 3584 1831 3584 
Q 2591 3584 2966 3190 
Q 3341 2797 3341 1997 
z
" transform="scale(0.015625)"/>
       <path id="DejaVuSans-73" d="M 2834 3397 
L 2834 2853 
Q 2591 2978 2328 3040 
Q 2066 3103 1784 3103 
Q 1356 3103 1142 2972 
Q 928 2841 928 2578 
Q 928 2378 1081 2264 
Q 1234 2150 1697 2047 
L 1894 2003 
Q 2506 1872 2764 1633 
Q 3022 1394 3022 966 
Q 3022 478 2636 193 
Q 2250 -91 1575 -91 
Q 1294 -91 989 -36 
Q 684 19 347 128 
L 347 722 
Q 666 556 975 473 
Q 1284 391 1588 391 
Q 1994 391 2212 530 
Q 2431 669 2431 922 
Q 2431 1156 2273 1281 
Q 2116 1406 1581 1522 
L 1381 1569 
Q 847 1681 609 1914 
Q 372 2147 372 2553 
Q 372 3047 722 3315 
Q 1072 3584 1716 3584 
Q 2034 3584 2315 3537 
Q 2597 3491 2834 3397 
z
" transform="scale(0.015625)"/>
       <path id="DejaVuSans-44" d="M 1259 4147 
L 1259 519 
L 2022 519 
Q 2988 519 3436 956 
Q 3884 1394 3884 2338 
Q 3884 3275 3436 3711 
Q 2988 4147 2022 4147 
L 1259 4147 
z
M 628 4666 
L 1925 4666 
Q 3281 4666 3915 4102 
Q 4550 3538 4550 2338 
Q 4550 1131 3912 565 
Q 3275 0 1925 0 
L 628 0 
L 628 4666 
z
" transform="scale(0.015625)"/>
       <path id="DejaVuSans-69" d="M 603 3500 
L 1178 3500 
L 1178 0 
L 603 0 
L 603 3500 
z
M 603 4863 
L 1178 4863 
L 1178 4134 
L 603 4134 
L 603 4863 
z
" transform="scale(0.015625)"/>
       <path id="DejaVuSans-66" d="M 2375 4863 
L 2375 4384 
L 1825 4384 
Q 1516 4384 1395 4259 
Q 1275 4134 1275 3809 
L 1275 3500 
L 2222 3500 
L 2222 3053 
L 1275 3053 
L 1275 0 
L 697 0 
L 697 3053 
L 147 3053 
L 147 3500 
L 697 3500 
L 697 3744 
Q 697 4328 969 4595 
Q 1241 4863 1831 4863 
L 2375 4863 
z
" transform="scale(0.015625)"/>
      </defs>
      <use xlink:href="#DejaVuSans-53"/>
      <use xlink:href="#DejaVuSans-61" x="63.476562"/>
      <use xlink:href="#DejaVuSans-73" x="124.755859"/>
      <use xlink:href="#DejaVuSans-61" x="176.855469"/>
      <use xlink:href="#DejaVuSans-44" x="238.134766"/>
      <use xlink:href="#DejaVuSans-69" x="315.136719"/>
      <use xlink:href="#DejaVuSans-66" x="342.919922"/>
      <use xlink:href="#DejaVuSans-66" x="378.125"/>
     </g>
    </g>
   </g>
   <g id="matplotlib.axis_2">
    <g id="ytick_1">
     <g id="line2d_5">
      <defs>
       <path id="meb30978b11" d="M 0 0 
L -3.5 0 
" style="stroke: #000000; stroke-width: 0.8"/>
      </defs>
      <g>
       <use xlink:href="#meb30978b11" x="47.82125" y="303.64" style="stroke: #000000; stroke-width: 0.8"/>
      </g>
     </g>
     <g id="text_6">
      <!-- 0.0 -->
      <g transform="translate(24.918125 307.439219)scale(0.1 -0.1)">
       <defs>
        <path id="DejaVuSans-2e" d="M 684 794 
L 1344 794 
L 1344 0 
L 684 0 
L 684 794 
z
" transform="scale(0.015625)"/>
       </defs>
       <use xlink:href="#DejaVuSans-30"/>
       <use xlink:href="#DejaVuSans-2e" x="63.623047"/>
       <use xlink:href="#DejaVuSans-30" x="95.410156"/>
      </g>
     </g>
    </g>
    <g id="ytick_2">
     <g id="line2d_6">
      <g>
       <use xlink:href="#meb30978b11" x="47.82125" y="260.642047" style="stroke: #000000; stroke-width: 0.8"/>
      </g>
     </g>
     <g id="text_7">
      <!-- 0.5 -->
      <g transform="translate(24.918125 264.441265)scale(0.1 -0.1)">
       <defs>
        <path id="DejaVuSans-35" d="M 691 4666 
L 3169 4666 
L 3169 4134 
L 1269 4134 
L 1269 2991 
Q 1406 3038 1543 3061 
Q 1681 3084 1819 3084 
Q 2600 3084 3056 2656 
Q 3513 2228 3513 1497 
Q 3513 744 3044 326 
Q 2575 -91 1722 -91 
Q 1428 -91 1123 -41 
Q 819 9 494 109 
L 494 744 
Q 775 591 1075 516 
Q 1375 441 1709 441 
Q 2250 441 2565 725 
Q 2881 1009 2881 1497 
Q 2881 1984 2565 2268 
Q 2250 2553 1709 2553 
Q 1456 2553 1204 2497 
Q 953 2441 691 2322 
L 691 4666 
z
" transform="scale(0.015625)"/>
       </defs>
       <use xlink:href="#DejaVuSans-30"/>
       <use xlink:href="#DejaVuSans-2e" x="63.623047"/>
       <use xlink:href="#DejaVuSans-35" x="95.410156"/>
      </g>
     </g>
    </g>
    <g id="ytick_3">
     <g id="line2d_7">
      <g>
       <use xlink:href="#meb30978b11" x="47.82125" y="217.644093" style="stroke: #000000; stroke-width: 0.8"/>
      </g>
     </g>
     <g id="text_8">
      <!-- 1.0 -->
      <g transform="translate(24.918125 221.443312)scale(0.1 -0.1)">
       <defs>
        <path id="DejaVuSans-31" d="M 794 531 
L 1825 531 
L 1825 4091 
L 703 3866 
L 703 4441 
L 1819 4666 
L 2450 4666 
L 2450 531 
L 3481 531 
L 3481 0 
L 794 0 
L 794 531 
z
" transform="scale(0.015625)"/>
       </defs>
       <use xlink:href="#DejaVuSans-31"/>
       <use xlink:href="#DejaVuSans-2e" x="63.623047"/>
       <use xlink:href="#DejaVuSans-30" x="95.410156"/>
      </g>
     </g>
    </g>
    <g id="ytick_4">
     <g id="line2d_8">
      <g>
       <use xlink:href="#meb30978b11" x="47.82125" y="174.64614" style="stroke: #000000; stroke-width: 0.8"/>
      </g>
     </g>
     <g id="text_9">
      <!-- 1.5 -->
      <g transform="translate(24.918125 178.445358)scale(0.1 -0.1)">
       <use xlink:href="#DejaVuSans-31"/>
       <use xlink:href="#DejaVuSans-2e" x="63.623047"/>
       <use xlink:href="#DejaVuSans-35" x="95.410156"/>
      </g>
     </g>
    </g>
    <g id="ytick_5">
     <g id="line2d_9">
      <g>
       <use xlink:href="#meb30978b11" x="47.82125" y="131.648186" style="stroke: #000000; stroke-width: 0.8"/>
      </g>
     </g>
     <g id="text_10">
      <!-- 2.0 -->
      <g transform="translate(24.918125 135.447405)scale(0.1 -0.1)">
       <defs>
        <path id="DejaVuSans-32" d="M 1228 531 
L 3431 531 
L 3431 0 
L 469 0 
L 469 531 
Q 828 903 1448 1529 
Q 2069 2156 2228 2338 
Q 2531 2678 2651 2914 
Q 2772 3150 2772 3378 
Q 2772 3750 2511 3984 
Q 2250 4219 1831 4219 
Q 1534 4219 1204 4116 
Q 875 4013 500 3803 
L 500 4441 
Q 881 4594 1212 4672 
Q 1544 4750 1819 4750 
Q 2544 4750 2975 4387 
Q 3406 4025 3406 3419 
Q 3406 3131 3298 2873 
Q 3191 2616 2906 2266 
Q 2828 2175 2409 1742 
Q 1991 1309 1228 531 
z
" transform="scale(0.015625)"/>
       </defs>
       <use xlink:href="#DejaVuSans-32"/>
       <use xlink:href="#DejaVuSans-2e" x="63.623047"/>
       <use xlink:href="#DejaVuSans-30" x="95.410156"/>
      </g>
     </g>
    </g>
    <g id="ytick_6">
     <g id="line2d_10">
      <g>
       <use xlink:href="#meb30978b11" x="47.82125" y="88.650233" style="stroke: #000000; stroke-width: 0.8"/>
      </g>
     </g>
     <g id="text_11">
      <!-- 2.5 -->
      <g transform="translate(24.918125 92.449452)scale(0.1 -0.1)">
       <use xlink:href="#DejaVuSans-32"/>
       <use xlink:href="#DejaVuSans-2e" x="63.623047"/>
       <use xlink:href="#DejaVuSans-35" x="95.410156"/>
      </g>
     </g>
    </g>
    <g id="text_12">
     <!-- PercentGpA_transformed -->
     <g transform="translate(18.560313 237.696125)rotate(-90)scale(0.1 -0.1)">
      <defs>
       <path id="DejaVuSans-50" d="M 1259 4147 
L 1259 2394 
L 2053 2394 
Q 2494 2394 2734 2622 
Q 2975 2850 2975 3272 
Q 2975 3691 2734 3919 
Q 2494 4147 2053 4147 
L 1259 4147 
z
M 628 4666 
L 2053 4666 
Q 2838 4666 3239 4311 
Q 3641 3956 3641 3272 
Q 3641 2581 3239 2228 
Q 2838 1875 2053 1875 
L 1259 1875 
L 1259 0 
L 628 0 
L 628 4666 
z
" transform="scale(0.015625)"/>
       <path id="DejaVuSans-65" d="M 3597 1894 
L 3597 1613 
L 953 1613 
Q 991 1019 1311 708 
Q 1631 397 2203 397 
Q 2534 397 2845 478 
Q 3156 559 3463 722 
L 3463 178 
Q 3153 47 2828 -22 
Q 2503 -91 2169 -91 
Q 1331 -91 842 396 
Q 353 884 353 1716 
Q 353 2575 817 3079 
Q 1281 3584 2069 3584 
Q 2775 3584 3186 3129 
Q 3597 2675 3597 1894 
z
M 3022 2063 
Q 3016 2534 2758 2815 
Q 2500 3097 2075 3097 
Q 1594 3097 1305 2825 
Q 1016 2553 972 2059 
L 3022 2063 
z
" transform="scale(0.015625)"/>
       <path id="DejaVuSans-72" d="M 2631 2963 
Q 2534 3019 2420 3045 
Q 2306 3072 2169 3072 
Q 1681 3072 1420 2755 
Q 1159 2438 1159 1844 
L 1159 0 
L 581 0 
L 581 3500 
L 1159 3500 
L 1159 2956 
Q 1341 3275 1631 3429 
Q 1922 3584 2338 3584 
Q 2397 3584 2469 3576 
Q 2541 3569 2628 3553 
L 2631 2963 
z
" transform="scale(0.015625)"/>
       <path id="DejaVuSans-63" d="M 3122 3366 
L 3122 2828 
Q 2878 2963 2633 3030 
Q 2388 3097 2138 3097 
Q 1578 3097 1268 2742 
Q 959 2388 959 1747 
Q 959 1106 1268 751 
Q 1578 397 2138 397 
Q 2388 397 2633 464 
Q 2878 531 3122 666 
L 3122 134 
Q 2881 22 2623 -34 
Q 2366 -91 2075 -91 
Q 1284 -91 818 406 
Q 353 903 353 1747 
Q 353 2603 823 3093 
Q 1294 3584 2113 3584 
Q 2378 3584 2631 3529 
Q 2884 3475 3122 3366 
z
" transform="scale(0.015625)"/>
       <path id="DejaVuSans-6e" d="M 3513 2113 
L 3513 0 
L 2938 0 
L 2938 2094 
Q 2938 2591 2744 2837 
Q 2550 3084 2163 3084 
Q 1697 3084 1428 2787 
Q 1159 2491 1159 1978 
L 1159 0 
L 581 0 
L 581 3500 
L 1159 3500 
L 1159 2956 
Q 1366 3272 1645 3428 
Q 1925 3584 2291 3584 
Q 2894 3584 3203 3211 
Q 3513 2838 3513 2113 
z
" transform="scale(0.015625)"/>
       <path id="DejaVuSans-74" d="M 1172 4494 
L 1172 3500 
L 2356 3500 
L 2356 3053 
L 1172 3053 
L 1172 1153 
Q 1172 725 1289 603 
Q 1406 481 1766 481 
L 2356 481 
L 2356 0 
L 1766 0 
Q 1100 0 847 248 
Q 594 497 594 1153 
L 594 3053 
L 172 3053 
L 172 3500 
L 594 3500 
L 594 4494 
L 1172 4494 
z
" transform="scale(0.015625)"/>
       <path id="DejaVuSans-47" d="M 3809 666 
L 3809 1919 
L 2778 1919 
L 2778 2438 
L 4434 2438 
L 4434 434 
Q 4069 175 3628 42 
Q 3188 -91 2688 -91 
Q 1594 -91 976 548 
Q 359 1188 359 2328 
Q 359 3472 976 4111 
Q 1594 4750 2688 4750 
Q 3144 4750 3555 4637 
Q 3966 4525 4313 4306 
L 4313 3634 
Q 3963 3931 3569 4081 
Q 3175 4231 2741 4231 
Q 1884 4231 1454 3753 
Q 1025 3275 1025 2328 
Q 1025 1384 1454 906 
Q 1884 428 2741 428 
Q 3075 428 3337 486 
Q 3600 544 3809 666 
z
" transform="scale(0.015625)"/>
       <path id="DejaVuSans-70" d="M 1159 525 
L 1159 -1331 
L 581 -1331 
L 581 3500 
L 1159 3500 
L 1159 2969 
Q 1341 3281 1617 3432 
Q 1894 3584 2278 3584 
Q 2916 3584 3314 3078 
Q 3713 2572 3713 1747 
Q 3713 922 3314 415 
Q 2916 -91 2278 -91 
Q 1894 -91 1617 61 
Q 1341 213 1159 525 
z
M 3116 1747 
Q 3116 2381 2855 2742 
Q 2594 3103 2138 3103 
Q 1681 3103 1420 2742 
Q 1159 2381 1159 1747 
Q 1159 1113 1420 752 
Q 1681 391 2138 391 
Q 2594 391 2855 752 
Q 3116 1113 3116 1747 
z
" transform="scale(0.015625)"/>
       <path id="DejaVuSans-41" d="M 2188 4044 
L 1331 1722 
L 3047 1722 
L 2188 4044 
z
M 1831 4666 
L 2547 4666 
L 4325 0 
L 3669 0 
L 3244 1197 
L 1141 1197 
L 716 0 
L 50 0 
L 1831 4666 
z
" transform="scale(0.015625)"/>
       <path id="DejaVuSans-5f" d="M 3263 -1063 
L 3263 -1509 
L -63 -1509 
L -63 -1063 
L 3263 -1063 
z
" transform="scale(0.015625)"/>
       <path id="DejaVuSans-6f" d="M 1959 3097 
Q 1497 3097 1228 2736 
Q 959 2375 959 1747 
Q 959 1119 1226 758 
Q 1494 397 1959 397 
Q 2419 397 2687 759 
Q 2956 1122 2956 1747 
Q 2956 2369 2687 2733 
Q 2419 3097 1959 3097 
z
M 1959 3584 
Q 2709 3584 3137 3096 
Q 3566 2609 3566 1747 
Q 3566 888 3137 398 
Q 2709 -91 1959 -91 
Q 1206 -91 779 398 
Q 353 888 353 1747 
Q 353 2609 779 3096 
Q 1206 3584 1959 3584 
z
" transform="scale(0.015625)"/>
       <path id="DejaVuSans-6d" d="M 3328 2828 
Q 3544 3216 3844 3400 
Q 4144 3584 4550 3584 
Q 5097 3584 5394 3201 
Q 5691 2819 5691 2113 
L 5691 0 
L 5113 0 
L 5113 2094 
Q 5113 2597 4934 2840 
Q 4756 3084 4391 3084 
Q 3944 3084 3684 2787 
Q 3425 2491 3425 1978 
L 3425 0 
L 2847 0 
L 2847 2094 
Q 2847 2600 2669 2842 
Q 2491 3084 2119 3084 
Q 1678 3084 1418 2786 
Q 1159 2488 1159 1978 
L 1159 0 
L 581 0 
L 581 3500 
L 1159 3500 
L 1159 2956 
Q 1356 3278 1631 3431 
Q 1906 3584 2284 3584 
Q 2666 3584 2933 3390 
Q 3200 3197 3328 2828 
z
" transform="scale(0.015625)"/>
       <path id="DejaVuSans-64" d="M 2906 2969 
L 2906 4863 
L 3481 4863 
L 3481 0 
L 2906 0 
L 2906 525 
Q 2725 213 2448 61 
Q 2172 -91 1784 -91 
Q 1150 -91 751 415 
Q 353 922 353 1747 
Q 353 2572 751 3078 
Q 1150 3584 1784 3584 
Q 2172 3584 2448 3432 
Q 2725 3281 2906 2969 
z
M 947 1747 
Q 947 1113 1208 752 
Q 1469 391 1925 391 
Q 2381 391 2643 752 
Q 2906 1113 2906 1747 
Q 2906 2381 2643 2742 
Q 2381 3103 1925 3103 
Q 1469 3103 1208 2742 
Q 947 2381 947 1747 
z
" transform="scale(0.015625)"/>
      </defs>
      <use xlink:href="#DejaVuSans-50"/>
      <use xlink:href="#DejaVuSans-65" x="56.677734"/>
      <use xlink:href="#DejaVuSans-72" x="118.201172"/>
      <use xlink:href="#DejaVuSans-63" x="157.064453"/>
      <use xlink:href="#DejaVuSans-65" x="212.044922"/>
      <use xlink:href="#DejaVuSans-6e" x="273.568359"/>
      <use xlink:href="#DejaVuSans-74" x="336.947266"/>
      <use xlink:href="#DejaVuSans-47" x="376.15625"/>
      <use xlink:href="#DejaVuSans-70" x="453.646484"/>
      <use xlink:href="#DejaVuSans-41" x="517.123047"/>
      <use xlink:href="#DejaVuSans-5f" x="585.53125"/>
      <use xlink:href="#DejaVuSans-74" x="635.53125"/>
      <use xlink:href="#DejaVuSans-72" x="674.740234"/>
      <use xlink:href="#DejaVuSans-61" x="715.853516"/>
      <use xlink:href="#DejaVuSans-6e" x="777.132812"/>
      <use xlink:href="#DejaVuSans-73" x="840.511719"/>
      <use xlink:href="#DejaVuSans-66" x="892.611328"/>
      <use xlink:href="#DejaVuSans-6f" x="927.816406"/>
      <use xlink:href="#DejaVuSans-72" x="988.998047"/>
      <use xlink:href="#DejaVuSans-6d" x="1028.361328"/>
      <use xlink:href="#DejaVuSans-65" x="1125.773438"/>
      <use xlink:href="#DejaVuSans-64" x="1187.296875"/>
     </g>
    </g>
   </g>
   <g id="LineCollection_1">
    <path d="M 146.952258 222.259586 
L 146.952258 208.851612 
" clip-path="url(#p6966f7118e)" style="fill: none; stroke: #d3d3d3; stroke-width: 3"/>
    <path d="M 206.637543 250.982327 
L 206.637543 242.856797 
" clip-path="url(#p6966f7118e)" style="fill: none; stroke: #d3d3d3; stroke-width: 3"/>
    <path d="M 83.23972 216.470545 
L 83.23972 189.745022 
" clip-path="url(#p6966f7118e)" style="fill: none; stroke: #d3d3d3; stroke-width: 3"/>
    <path d="M 201.860629 223.528003 
L 201.860629 211.390047 
" clip-path="url(#p6966f7118e)" style="fill: none; stroke: #d3d3d3; stroke-width: 3"/>
    <path d="M 150.57853 212.057114 
L 150.57853 189.221928 
" clip-path="url(#p6966f7118e)" style="fill: none; stroke: #d3d3d3; stroke-width: 3"/>
    <path d="M 194.146085 238.260389 
L 194.146085 204.007244 
" clip-path="url(#p6966f7118e)" style="fill: none; stroke: #d3d3d3; stroke-width: 3"/>
    <path d="M 124.784933 214.939609 
L 124.784933 200.397568 
" clip-path="url(#p6966f7118e)" style="fill: none; stroke: #d3d3d3; stroke-width: 3"/>
    <path d="M 223.722859 210.136633 
L 223.722859 175.926846 
" clip-path="url(#p6966f7118e)" style="fill: none; stroke: #d3d3d3; stroke-width: 3"/>
    <path d="M 265.398827 242.228326 
L 265.398827 230.531266 
" clip-path="url(#p6966f7118e)" style="fill: none; stroke: #d3d3d3; stroke-width: 3"/>
    <path d="M 214.613597 286.977539 
L 214.613597 281.589819 
" clip-path="url(#p6966f7118e)" style="fill: none; stroke: #d3d3d3; stroke-width: 3"/>
    <path d="M 223.409047 258.947677 
L 223.409047 240.827554 
" clip-path="url(#p6966f7118e)" style="fill: none; stroke: #d3d3d3; stroke-width: 3"/>
    <path d="M 262.042782 236.641219 
L 262.042782 220.10661 
" clip-path="url(#p6966f7118e)" style="fill: none; stroke: #d3d3d3; stroke-width: 3"/>
    <path d="M 268.301587 239.796545 
L 268.301587 227.971864 
" clip-path="url(#p6966f7118e)" style="fill: none; stroke: #d3d3d3; stroke-width: 3"/>
    <path d="M 157.499826 253.699764 
L 157.499826 193.237158 
" clip-path="url(#p6966f7118e)" style="fill: none; stroke: #d3d3d3; stroke-width: 3"/>
    <path d="M 257.719151 222.538342 
L 257.719151 193.245343 
" clip-path="url(#p6966f7118e)" style="fill: none; stroke: #d3d3d3; stroke-width: 3"/>
    <path d="M 149.750415 259.802539 
L 149.750415 247.439325 
" clip-path="url(#p6966f7118e)" style="fill: none; stroke: #d3d3d3; stroke-width: 3"/>
    <path d="M 189.97936 304.927814 
L 189.97936 139.809003 
" clip-path="url(#p6966f7118e)" style="fill: none; stroke: #d3d3d3; stroke-width: 3"/>
    <path d="M 238.576624 220.558493 
L 238.576624 189.005012 
" clip-path="url(#p6966f7118e)" style="fill: none; stroke: #d3d3d3; stroke-width: 3"/>
    <path d="M 109.530186 284.062873 
L 109.530186 273.716194 
" clip-path="url(#p6966f7118e)" style="fill: none; stroke: #d3d3d3; stroke-width: 3"/>
    <path d="M 273.034917 231.626669 
L 273.034917 196.073962 
" clip-path="url(#p6966f7118e)" style="fill: none; stroke: #d3d3d3; stroke-width: 3"/>
    <path d="M 211.606232 274.31418 
L 211.606232 210.122613 
" clip-path="url(#p6966f7118e)" style="fill: none; stroke: #d3d3d3; stroke-width: 3"/>
    <path d="M 328.396571 224.765674 
L 328.396571 209.535928 
" clip-path="url(#p6966f7118e)" style="fill: none; stroke: #d3d3d3; stroke-width: 3"/>
    <path d="M 269.739892 279.382236 
L 269.739892 269.10094 
" clip-path="url(#p6966f7118e)" style="fill: none; stroke: #d3d3d3; stroke-width: 3"/>
    <path d="M 196.639147 233.570641 
L 196.639147 172.994723 
" clip-path="url(#p6966f7118e)" style="fill: none; stroke: #d3d3d3; stroke-width: 3"/>
    <path d="M 122.187267 277.078232 
L 122.187267 95.832855 
" clip-path="url(#p6966f7118e)" style="fill: none; stroke: #d3d3d3; stroke-width: 3"/>
    <path d="M 68.612598 228.285648 
L 68.612598 210.159723 
" clip-path="url(#p6966f7118e)" style="fill: none; stroke: #d3d3d3; stroke-width: 3"/>
    <path d="M 283.530182 286.967873 
L 283.530182 281.767431 
" clip-path="url(#p6966f7118e)" style="fill: none; stroke: #d3d3d3; stroke-width: 3"/>
    <path d="M 156.64556 226.745983 
L 156.64556 205.571459 
" clip-path="url(#p6966f7118e)" style="fill: none; stroke: #d3d3d3; stroke-width: 3"/>
    <path d="M 236.127147 210.223817 
L 236.127147 167.434105 
" clip-path="url(#p6966f7118e)" style="fill: none; stroke: #d3d3d3; stroke-width: 3"/>
    <path d="M 183.860028 214.126833 
L 183.860028 208.670522 
" clip-path="url(#p6966f7118e)" style="fill: none; stroke: #d3d3d3; stroke-width: 3"/>
    <path d="M 135.524274 264.795077 
L 135.524274 253.722771 
" clip-path="url(#p6966f7118e)" style="fill: none; stroke: #d3d3d3; stroke-width: 3"/>
    <path d="M 316.567605 267.136537 
L 316.567605 88.833729 
" clip-path="url(#p6966f7118e)" style="fill: none; stroke: #d3d3d3; stroke-width: 3"/>
    <path d="M 171.473174 260.359538 
L 171.473174 226.957494 
" clip-path="url(#p6966f7118e)" style="fill: none; stroke: #d3d3d3; stroke-width: 3"/>
    <path d="M 183.607235 265.504348 
L 183.607235 235.355803 
" clip-path="url(#p6966f7118e)" style="fill: none; stroke: #d3d3d3; stroke-width: 3"/>
    <path d="M 258.059114 268.78092 
L 258.059114 253.352328 
" clip-path="url(#p6966f7118e)" style="fill: none; stroke: #d3d3d3; stroke-width: 3"/>
    <path d="M 142.820401 234.848574 
L 142.820401 216.608355 
" clip-path="url(#p6966f7118e)" style="fill: none; stroke: #d3d3d3; stroke-width: 3"/>
    <path d="M 262.618104 218.280584 
L 262.618104 197.244835 
" clip-path="url(#p6966f7118e)" style="fill: none; stroke: #d3d3d3; stroke-width: 3"/>
    <path d="M 377.961421 246.472417 
L 377.961421 225.823481 
" clip-path="url(#p6966f7118e)" style="fill: none; stroke: #d3d3d3; stroke-width: 3"/>
    <path d="M 237.033715 278.375503 
L 237.033715 197.136413 
" clip-path="url(#p6966f7118e)" style="fill: none; stroke: #d3d3d3; stroke-width: 3"/>
    <path d="M 223.705425 235.03349 
L 223.705425 223.800608 
" clip-path="url(#p6966f7118e)" style="fill: none; stroke: #d3d3d3; stroke-width: 3"/>
    <path d="M 331.09884 269.155717 
L 331.09884 104.017125 
" clip-path="url(#p6966f7118e)" style="fill: none; stroke: #d3d3d3; stroke-width: 3"/>
    <path d="M 66.102102 228.21795 
L 66.102102 195.327449 
" clip-path="url(#p6966f7118e)" style="fill: none; stroke: #d3d3d3; stroke-width: 3"/>
    <path d="M 372.338958 291.135488 
L 372.338958 284.594847 
" clip-path="url(#p6966f7118e)" style="fill: none; stroke: #d3d3d3; stroke-width: 3"/>
    <path d="M 185.882371 262.619135 
L 185.882371 254.23323 
" clip-path="url(#p6966f7118e)" style="fill: none; stroke: #d3d3d3; stroke-width: 3"/>
    <path d="M 337.967835 233.219743 
L 337.967835 210.680652 
" clip-path="url(#p6966f7118e)" style="fill: none; stroke: #d3d3d3; stroke-width: 3"/>
    <path d="M 312.793145 225.673709 
L 312.793145 194.360015 
" clip-path="url(#p6966f7118e)" style="fill: none; stroke: #d3d3d3; stroke-width: 3"/>
    <path d="M 233.782275 247.0435 
L 233.782275 231.185827 
" clip-path="url(#p6966f7118e)" style="fill: none; stroke: #d3d3d3; stroke-width: 3"/>
    <path d="M 238.454586 285.861234 
L 238.454586 278.048439 
" clip-path="url(#p6966f7118e)" style="fill: none; stroke: #d3d3d3; stroke-width: 3"/>
    <path d="M 281.586292 240.64789 
L 281.586292 227.945721 
" clip-path="url(#p6966f7118e)" style="fill: none; stroke: #d3d3d3; stroke-width: 3"/>
    <path d="M 261.301838 237.350087 
L 261.301838 223.591752 
" clip-path="url(#p6966f7118e)" style="fill: none; stroke: #d3d3d3; stroke-width: 3"/>
    <path d="M 342.866788 231.486508 
L 342.866788 217.509375 
" clip-path="url(#p6966f7118e)" style="fill: none; stroke: #d3d3d3; stroke-width: 3"/>
    <path d="M 304.886827 234.616519 
L 304.886827 199.20918 
" clip-path="url(#p6966f7118e)" style="fill: none; stroke: #d3d3d3; stroke-width: 3"/>
    <path d="M 167.68128 217.048417 
L 167.68128 185.306849 
" clip-path="url(#p6966f7118e)" style="fill: none; stroke: #d3d3d3; stroke-width: 3"/>
    <path d="M 153.385403 219.794079 
L 153.385403 199.722279 
" clip-path="url(#p6966f7118e)" style="fill: none; stroke: #d3d3d3; stroke-width: 3"/>
    <path d="M 270.629025 223.966304 
L 270.629025 211.694022 
" clip-path="url(#p6966f7118e)" style="fill: none; stroke: #d3d3d3; stroke-width: 3"/>
    <path d="M 219.041831 248.795817 
L 219.041831 238.742401 
" clip-path="url(#p6966f7118e)" style="fill: none; stroke: #d3d3d3; stroke-width: 3"/>
    <path d="M 324.308299 237.412633 
L 324.308299 226.942793 
" clip-path="url(#p6966f7118e)" style="fill: none; stroke: #d3d3d3; stroke-width: 3"/>
    <path d="M 264.291768 218.531836 
L 264.291768 190.101355 
" clip-path="url(#p6966f7118e)" style="fill: none; stroke: #d3d3d3; stroke-width: 3"/>
    <path d="M 363.752715 291.543338 
L 363.752715 267.185617 
" clip-path="url(#p6966f7118e)" style="fill: none; stroke: #d3d3d3; stroke-width: 3"/>
    <path d="M 250.344571 264.167436 
L 250.344571 239.983393 
" clip-path="url(#p6966f7118e)" style="fill: none; stroke: #d3d3d3; stroke-width: 3"/>
    <path d="M 144.415612 223.176719 
L 144.415612 194.874201 
" clip-path="url(#p6966f7118e)" style="fill: none; stroke: #d3d3d3; stroke-width: 3"/>
    <path d="M 265.581884 256.52671 
L 265.581884 254.567325 
" clip-path="url(#p6966f7118e)" style="fill: none; stroke: #d3d3d3; stroke-width: 3"/>
    <path d="M 186.928411 264.702563 
L 186.928411 220.315134 
" clip-path="url(#p6966f7118e)" style="fill: none; stroke: #d3d3d3; stroke-width: 3"/>
    <path d="M 353.152845 296.233078 
L 353.152845 286.745051 
" clip-path="url(#p6966f7118e)" style="fill: none; stroke: #d3d3d3; stroke-width: 3"/>
    <path d="M 351.435597 290.992167 
L 351.435597 277.801909 
" clip-path="url(#p6966f7118e)" style="fill: none; stroke: #d3d3d3; stroke-width: 3"/>
    <path d="M 301.400028 242.900213 
L 301.400028 231.205984 
" clip-path="url(#p6966f7118e)" style="fill: none; stroke: #d3d3d3; stroke-width: 3"/>
    <path d="M 240.006212 229.353389 
L 240.006212 214.904751 
" clip-path="url(#p6966f7118e)" style="fill: none; stroke: #d3d3d3; stroke-width: 3"/>
    <path d="M 205.983769 202.666414 
L 205.983769 185.444611 
" clip-path="url(#p6966f7118e)" style="fill: none; stroke: #d3d3d3; stroke-width: 3"/>
    <path d="M 232.065026 244.637273 
L 232.065026 242.587392 
" clip-path="url(#p6966f7118e)" style="fill: none; stroke: #d3d3d3; stroke-width: 3"/>
    <path d="M 198.940434 220.096088 
L 198.940434 182.843069 
" clip-path="url(#p6966f7118e)" style="fill: none; stroke: #d3d3d3; stroke-width: 3"/>
    <path d="M 231.324082 240.786558 
L 231.324082 228.43485 
" clip-path="url(#p6966f7118e)" style="fill: none; stroke: #d3d3d3; stroke-width: 3"/>
    <path d="M 176.30239 249.06687 
L 176.30239 58.973407 
" clip-path="url(#p6966f7118e)" style="fill: none; stroke: #d3d3d3; stroke-width: 3"/>
    <path d="M 360.344368 288.994005 
L 360.344368 282.561008 
" clip-path="url(#p6966f7118e)" style="fill: none; stroke: #d3d3d3; stroke-width: 3"/>
    <path d="M 145.801615 230.194054 
L 145.801615 196.984186 
" clip-path="url(#p6966f7118e)" style="fill: none; stroke: #d3d3d3; stroke-width: 3"/>
    <path d="M 191.574571 280.567834 
L 191.574571 237.823691 
" clip-path="url(#p6966f7118e)" style="fill: none; stroke: #d3d3d3; stroke-width: 3"/>
    <path d="M 179.344623 246.243336 
L 179.344623 223.017716 
" clip-path="url(#p6966f7118e)" style="fill: none; stroke: #d3d3d3; stroke-width: 3"/>
    <path d="M 255.348128 283.217232 
L 255.348128 275.734867 
" clip-path="url(#p6966f7118e)" style="fill: none; stroke: #d3d3d3; stroke-width: 3"/>
    <path d="M 270.873101 214.183957 
L 270.873101 207.057194 
" clip-path="url(#p6966f7118e)" style="fill: none; stroke: #d3d3d3; stroke-width: 3"/>
    <path d="M 388.203894 281.407618 
L 388.203894 271.969893 
" clip-path="url(#p6966f7118e)" style="fill: none; stroke: #d3d3d3; stroke-width: 3"/>
    <path d="M 266.837131 233.672949 
L 266.837131 203.458166 
" clip-path="url(#p6966f7118e)" style="fill: none; stroke: #d3d3d3; stroke-width: 3"/>
    <path d="M 277.114472 236.906892 
L 277.114472 215.050062 
" clip-path="url(#p6966f7118e)" style="fill: none; stroke: #d3d3d3; stroke-width: 3"/>
    <path d="M 206.99494 241.948295 
L 206.99494 201.274077 
" clip-path="url(#p6966f7118e)" style="fill: none; stroke: #d3d3d3; stroke-width: 3"/>
    <path d="M 205.887882 224.766264 
L 205.887882 209.951762 
" clip-path="url(#p6966f7118e)" style="fill: none; stroke: #d3d3d3; stroke-width: 3"/>
    <path d="M 153.559743 296.220017 
L 153.559743 270.001179 
" clip-path="url(#p6966f7118e)" style="fill: none; stroke: #d3d3d3; stroke-width: 3"/>
    <path d="M 230.391363 214.826627 
L 230.391363 194.217578 
" clip-path="url(#p6966f7118e)" style="fill: none; stroke: #d3d3d3; stroke-width: 3"/>
    <path d="M 283.076899 238.632272 
L 283.076899 167.939717 
" clip-path="url(#p6966f7118e)" style="fill: none; stroke: #d3d3d3; stroke-width: 3"/>
    <path d="M 431.719148 245.384856 
L 431.719148 233.104015 
" clip-path="url(#p6966f7118e)" style="fill: none; stroke: #d3d3d3; stroke-width: 3"/>
    <path d="M 394.349377 259.743704 
L 394.349377 249.07517 
" clip-path="url(#p6966f7118e)" style="fill: none; stroke: #d3d3d3; stroke-width: 3"/>
    <path d="M 387.689591 291.263536 
L 387.689591 286.705022 
" clip-path="url(#p6966f7118e)" style="fill: none; stroke: #d3d3d3; stroke-width: 3"/>
    <path d="M 311.145632 240.173086 
L 311.145632 230.607231 
" clip-path="url(#p6966f7118e)" style="fill: none; stroke: #d3d3d3; stroke-width: 3"/>
    <path d="M 299.85712 239.007227 
L 299.85712 202.952632 
" clip-path="url(#p6966f7118e)" style="fill: none; stroke: #d3d3d3; stroke-width: 3"/>
    <path d="M 301.905614 243.523794 
L 301.905614 207.440735 
" clip-path="url(#p6966f7118e)" style="fill: none; stroke: #d3d3d3; stroke-width: 3"/>
    <path d="M 244.42573 270.731117 
L 244.42573 266.567803 
" clip-path="url(#p6966f7118e)" style="fill: none; stroke: #d3d3d3; stroke-width: 3"/>
    <path d="M 297.878361 229.933516 
L 297.878361 221.49926 
" clip-path="url(#p6966f7118e)" style="fill: none; stroke: #d3d3d3; stroke-width: 3"/>
    <path d="M 213.698312 218.085333 
L 213.698312 189.032266 
" clip-path="url(#p6966f7118e)" style="fill: none; stroke: #d3d3d3; stroke-width: 3"/>
    <path d="M 295.027903 295.189715 
L 295.027903 281.200907 
" clip-path="url(#p6966f7118e)" style="fill: none; stroke: #d3d3d3; stroke-width: 3"/>
    <path d="M 304.503279 227.365185 
L 304.503279 200.121262 
" clip-path="url(#p6966f7118e)" style="fill: none; stroke: #d3d3d3; stroke-width: 3"/>
    <path d="M 323.096636 231.74284 
L 323.096636 212.261199 
" clip-path="url(#p6966f7118e)" style="fill: none; stroke: #d3d3d3; stroke-width: 3"/>
   </g>
   <g id="line2d_11">
    <path d="M 146.952258 221.608199 
L 206.637543 228.240246 
L 83.23972 214.528657 
L 201.860629 227.70945 
L 150.57853 222.01114 
L 194.146085 226.852233 
L 124.784933 219.145034 
L 223.722859 230.138714 
L 265.398827 234.769621 
L 214.613597 229.126521 
L 223.409047 230.103844 
L 262.042782 234.396707 
L 268.301587 235.092166 
L 157.499826 222.780213 
L 257.719151 233.916278 
L 149.750415 221.919122 
L 189.97936 226.38924 
L 238.576624 231.789219 
L 109.530186 217.449973 
L 273.034917 235.61812 
L 211.606232 228.792352 
L 328.396571 241.769738 
L 269.739892 235.251986 
L 196.639147 227.129255 
L 122.187267 218.856389 
L 68.612598 212.903335 
L 283.530182 236.784321 
L 156.64556 222.685289 
L 236.127147 231.517041 
L 183.860028 225.709278 
L 135.524274 220.338357 
L 316.567605 240.455339 
L 171.473174 224.332889 
L 183.607235 225.681188 
L 258.059114 233.954054 
L 142.820401 221.14908 
L 262.618104 234.460635 
L 377.961421 247.277233 
L 237.033715 231.617776 
L 223.705425 230.136777 
L 331.09884 242.070006 
L 66.102102 212.624377 
L 372.338958 246.652482 
L 185.882371 225.933995 
L 337.967835 242.833267 
L 312.793145 240.035933 
L 233.782275 231.256486 
L 238.454586 231.775659 
L 281.586292 236.568322 
L 261.301838 234.314376 
L 342.866788 243.377624 
L 304.886827 239.157407 
L 167.68128 223.911545 
L 153.385403 222.323031 
L 270.629025 235.350784 
L 219.041831 229.618573 
L 324.308299 241.315461 
L 264.291768 234.646608 
L 363.752715 245.698404 
L 250.344571 233.096838 
L 144.415612 221.326335 
L 265.581884 234.789961 
L 186.928411 226.050227 
L 353.152845 244.520579 
L 351.435597 244.329764 
L 301.400028 238.769964 
L 240.006212 231.948071 
L 205.983769 228.167601 
L 232.065026 231.06567 
L 198.940434 227.384967 
L 231.324082 230.983339 
L 176.30239 224.869496 
L 360.344368 245.319679 
L 145.801615 221.480343 
L 191.574571 226.566495 
L 179.344623 225.20754 
L 255.348128 233.652818 
L 270.873101 235.377905 
L 388.203894 248.415345 
L 266.837131 234.929441 
L 277.114472 236.071427 
L 206.99494 228.279959 
L 205.887882 228.156946 
L 153.559743 222.342403 
L 230.391363 230.879698 
L 283.076899 236.733954 
L 431.719148 253.250627 
L 394.349377 249.098212 
L 387.689591 248.358197 
L 311.145632 239.852866 
L 299.85712 238.598521 
L 301.905614 238.826143 
L 244.42573 232.439154 
L 297.878361 238.378647 
L 213.698312 229.024817 
L 295.027903 238.061913 
L 304.503279 239.114788 
L 323.096636 241.180825 
" clip-path="url(#p6966f7118e)" style="fill: none; stroke: #1f77b4; stroke-width: 1.5; stroke-linecap: square"/>
   </g>
   <g id="line2d_12">
    <defs>
     <path id="mcbe239b9c7" d="M 0 3 
C 0.795609 3 1.55874 2.683901 2.12132 2.12132 
C 2.683901 1.55874 3 0.795609 3 0 
C 3 -0.795609 2.683901 -1.55874 2.12132 -2.12132 
C 1.55874 -2.683901 0.795609 -3 0 -3 
C -0.795609 -3 -1.55874 -2.683901 -2.12132 -2.12132 
C -2.683901 -1.55874 -3 -0.795609 -3 0 
C -3 0.795609 -2.683901 1.55874 -2.12132 2.12132 
C -1.55874 2.683901 -0.795609 3 0 3 
z
" style="stroke: #000000"/>
    </defs>
    <g clip-path="url(#p6966f7118e)">
     <use xlink:href="#mcbe239b9c7" x="146.952258" y="215.555599" style="stroke: #000000"/>
     <use xlink:href="#mcbe239b9c7" x="206.637543" y="246.919562" style="stroke: #000000"/>
     <use xlink:href="#mcbe239b9c7" x="83.23972" y="203.107784" style="stroke: #000000"/>
     <use xlink:href="#mcbe239b9c7" x="201.860629" y="217.459025" style="stroke: #000000"/>
     <use xlink:href="#mcbe239b9c7" x="150.57853" y="200.639521" style="stroke: #000000"/>
     <use xlink:href="#mcbe239b9c7" x="194.146085" y="221.133816" style="stroke: #000000"/>
     <use xlink:href="#mcbe239b9c7" x="124.784933" y="207.668589" style="stroke: #000000"/>
     <use xlink:href="#mcbe239b9c7" x="223.722859" y="193.031739" style="stroke: #000000"/>
     <use xlink:href="#mcbe239b9c7" x="265.398827" y="236.379796" style="stroke: #000000"/>
     <use xlink:href="#mcbe239b9c7" x="214.613597" y="284.283679" style="stroke: #000000"/>
     <use xlink:href="#mcbe239b9c7" x="223.409047" y="249.887615" style="stroke: #000000"/>
     <use xlink:href="#mcbe239b9c7" x="262.042782" y="228.373915" style="stroke: #000000"/>
     <use xlink:href="#mcbe239b9c7" x="268.301587" y="233.884205" style="stroke: #000000"/>
     <use xlink:href="#mcbe239b9c7" x="157.499826" y="223.468461" style="stroke: #000000"/>
     <use xlink:href="#mcbe239b9c7" x="257.719151" y="207.891842" style="stroke: #000000"/>
     <use xlink:href="#mcbe239b9c7" x="149.750415" y="253.620932" style="stroke: #000000"/>
     <use xlink:href="#mcbe239b9c7" x="189.97936" y="222.368408" style="stroke: #000000"/>
     <use xlink:href="#mcbe239b9c7" x="238.576624" y="204.781752" style="stroke: #000000"/>
     <use xlink:href="#mcbe239b9c7" x="109.530186" y="278.889534" style="stroke: #000000"/>
     <use xlink:href="#mcbe239b9c7" x="273.034917" y="213.850315" style="stroke: #000000"/>
     <use xlink:href="#mcbe239b9c7" x="211.606232" y="242.218396" style="stroke: #000000"/>
     <use xlink:href="#mcbe239b9c7" x="328.396571" y="217.150801" style="stroke: #000000"/>
     <use xlink:href="#mcbe239b9c7" x="269.739892" y="274.241588" style="stroke: #000000"/>
     <use xlink:href="#mcbe239b9c7" x="196.639147" y="203.282682" style="stroke: #000000"/>
     <use xlink:href="#mcbe239b9c7" x="122.187267" y="186.455543" style="stroke: #000000"/>
     <use xlink:href="#mcbe239b9c7" x="68.612598" y="219.222686" style="stroke: #000000"/>
     <use xlink:href="#mcbe239b9c7" x="283.530182" y="284.367652" style="stroke: #000000"/>
     <use xlink:href="#mcbe239b9c7" x="156.64556" y="216.158721" style="stroke: #000000"/>
     <use xlink:href="#mcbe239b9c7" x="236.127147" y="188.828961" style="stroke: #000000"/>
     <use xlink:href="#mcbe239b9c7" x="183.860028" y="211.398677" style="stroke: #000000"/>
     <use xlink:href="#mcbe239b9c7" x="135.524274" y="259.258924" style="stroke: #000000"/>
     <use xlink:href="#mcbe239b9c7" x="316.567605" y="177.985133" style="stroke: #000000"/>
     <use xlink:href="#mcbe239b9c7" x="171.473174" y="243.658516" style="stroke: #000000"/>
     <use xlink:href="#mcbe239b9c7" x="183.607235" y="250.430075" style="stroke: #000000"/>
     <use xlink:href="#mcbe239b9c7" x="258.059114" y="261.066624" style="stroke: #000000"/>
     <use xlink:href="#mcbe239b9c7" x="142.820401" y="225.728465" style="stroke: #000000"/>
     <use xlink:href="#mcbe239b9c7" x="262.618104" y="207.762709" style="stroke: #000000"/>
     <use xlink:href="#mcbe239b9c7" x="377.961421" y="236.147949" style="stroke: #000000"/>
     <use xlink:href="#mcbe239b9c7" x="237.033715" y="237.755958" style="stroke: #000000"/>
     <use xlink:href="#mcbe239b9c7" x="223.705425" y="229.417049" style="stroke: #000000"/>
     <use xlink:href="#mcbe239b9c7" x="331.09884" y="186.586421" style="stroke: #000000"/>
     <use xlink:href="#mcbe239b9c7" x="66.102102" y="211.7727" style="stroke: #000000"/>
     <use xlink:href="#mcbe239b9c7" x="372.338958" y="287.865168" style="stroke: #000000"/>
     <use xlink:href="#mcbe239b9c7" x="185.882371" y="258.426183" style="stroke: #000000"/>
     <use xlink:href="#mcbe239b9c7" x="337.967835" y="221.950197" style="stroke: #000000"/>
     <use xlink:href="#mcbe239b9c7" x="312.793145" y="210.016862" style="stroke: #000000"/>
     <use xlink:href="#mcbe239b9c7" x="233.782275" y="239.114663" style="stroke: #000000"/>
     <use xlink:href="#mcbe239b9c7" x="238.454586" y="281.954836" style="stroke: #000000"/>
     <use xlink:href="#mcbe239b9c7" x="281.586292" y="234.296805" style="stroke: #000000"/>
     <use xlink:href="#mcbe239b9c7" x="261.301838" y="230.47092" style="stroke: #000000"/>
     <use xlink:href="#mcbe239b9c7" x="342.866788" y="224.497942" style="stroke: #000000"/>
     <use xlink:href="#mcbe239b9c7" x="304.886827" y="216.91285" style="stroke: #000000"/>
     <use xlink:href="#mcbe239b9c7" x="167.68128" y="201.177633" style="stroke: #000000"/>
     <use xlink:href="#mcbe239b9c7" x="153.385403" y="209.758179" style="stroke: #000000"/>
     <use xlink:href="#mcbe239b9c7" x="270.629025" y="217.830163" style="stroke: #000000"/>
     <use xlink:href="#mcbe239b9c7" x="219.041831" y="243.769109" style="stroke: #000000"/>
     <use xlink:href="#mcbe239b9c7" x="324.308299" y="232.177713" style="stroke: #000000"/>
     <use xlink:href="#mcbe239b9c7" x="264.291768" y="204.316595" style="stroke: #000000"/>
     <use xlink:href="#mcbe239b9c7" x="363.752715" y="279.364478" style="stroke: #000000"/>
     <use xlink:href="#mcbe239b9c7" x="250.344571" y="252.075414" style="stroke: #000000"/>
     <use xlink:href="#mcbe239b9c7" x="144.415612" y="209.02546" style="stroke: #000000"/>
     <use xlink:href="#mcbe239b9c7" x="265.581884" y="255.547017" style="stroke: #000000"/>
     <use xlink:href="#mcbe239b9c7" x="186.928411" y="242.508849" style="stroke: #000000"/>
     <use xlink:href="#mcbe239b9c7" x="353.152845" y="291.489065" style="stroke: #000000"/>
     <use xlink:href="#mcbe239b9c7" x="351.435597" y="284.397038" style="stroke: #000000"/>
     <use xlink:href="#mcbe239b9c7" x="301.400028" y="237.053098" style="stroke: #000000"/>
     <use xlink:href="#mcbe239b9c7" x="240.006212" y="222.12907" style="stroke: #000000"/>
     <use xlink:href="#mcbe239b9c7" x="205.983769" y="194.055513" style="stroke: #000000"/>
     <use xlink:href="#mcbe239b9c7" x="232.065026" y="243.612333" style="stroke: #000000"/>
     <use xlink:href="#mcbe239b9c7" x="198.940434" y="201.469579" style="stroke: #000000"/>
     <use xlink:href="#mcbe239b9c7" x="231.324082" y="234.610704" style="stroke: #000000"/>
     <use xlink:href="#mcbe239b9c7" x="176.30239" y="154.020139" style="stroke: #000000"/>
     <use xlink:href="#mcbe239b9c7" x="360.344368" y="285.777506" style="stroke: #000000"/>
     <use xlink:href="#mcbe239b9c7" x="145.801615" y="213.58912" style="stroke: #000000"/>
     <use xlink:href="#mcbe239b9c7" x="191.574571" y="259.195763" style="stroke: #000000"/>
     <use xlink:href="#mcbe239b9c7" x="179.344623" y="234.630526" style="stroke: #000000"/>
     <use xlink:href="#mcbe239b9c7" x="255.348128" y="279.47605" style="stroke: #000000"/>
     <use xlink:href="#mcbe239b9c7" x="270.873101" y="210.620576" style="stroke: #000000"/>
     <use xlink:href="#mcbe239b9c7" x="388.203894" y="276.688756" style="stroke: #000000"/>
     <use xlink:href="#mcbe239b9c7" x="266.837131" y="218.565557" style="stroke: #000000"/>
     <use xlink:href="#mcbe239b9c7" x="277.114472" y="225.978477" style="stroke: #000000"/>
     <use xlink:href="#mcbe239b9c7" x="206.99494" y="221.611186" style="stroke: #000000"/>
     <use xlink:href="#mcbe239b9c7" x="205.887882" y="217.359013" style="stroke: #000000"/>
     <use xlink:href="#mcbe239b9c7" x="153.559743" y="283.110598" style="stroke: #000000"/>
     <use xlink:href="#mcbe239b9c7" x="230.391363" y="204.522103" style="stroke: #000000"/>
     <use xlink:href="#mcbe239b9c7" x="283.076899" y="203.285994" style="stroke: #000000"/>
     <use xlink:href="#mcbe239b9c7" x="431.719148" y="239.244435" style="stroke: #000000"/>
     <use xlink:href="#mcbe239b9c7" x="394.349377" y="254.409437" style="stroke: #000000"/>
     <use xlink:href="#mcbe239b9c7" x="387.689591" y="288.984279" style="stroke: #000000"/>
     <use xlink:href="#mcbe239b9c7" x="311.145632" y="235.390159" style="stroke: #000000"/>
     <use xlink:href="#mcbe239b9c7" x="299.85712" y="220.979929" style="stroke: #000000"/>
     <use xlink:href="#mcbe239b9c7" x="301.905614" y="225.482265" style="stroke: #000000"/>
     <use xlink:href="#mcbe239b9c7" x="244.42573" y="268.64946" style="stroke: #000000"/>
     <use xlink:href="#mcbe239b9c7" x="297.878361" y="225.716388" style="stroke: #000000"/>
     <use xlink:href="#mcbe239b9c7" x="213.698312" y="203.5588" style="stroke: #000000"/>
     <use xlink:href="#mcbe239b9c7" x="295.027903" y="288.195311" style="stroke: #000000"/>
     <use xlink:href="#mcbe239b9c7" x="304.503279" y="213.743224" style="stroke: #000000"/>
     <use xlink:href="#mcbe239b9c7" x="323.096636" y="222.00202" style="stroke: #000000"/>
    </g>
   </g>
   <g id="patch_3">
    <path d="M 47.82125 303.64 
L 47.82125 46.675687 
" style="fill: none; stroke: #000000; stroke-width: 0.8; stroke-linejoin: miter; stroke-linecap: square"/>
   </g>
   <g id="patch_4">
    <path d="M 450 303.64 
L 450 46.675687 
" style="fill: none; stroke: #000000; stroke-width: 0.8; stroke-linejoin: miter; stroke-linecap: square"/>
   </g>
   <g id="patch_5">
    <path d="M 47.82125 303.64 
L 450 303.64 
" style="fill: none; stroke: #000000; stroke-width: 0.8; stroke-linejoin: miter; stroke-linecap: square"/>
   </g>
   <g id="patch_6">
    <path d="M 47.82125 46.675687 
L 450 46.675687 
" style="fill: none; stroke: #000000; stroke-width: 0.8; stroke-linejoin: miter; stroke-linecap: square"/>
   </g>
   <g id="text_13">
    <!-- y = -0.00x + -0.01 -->
    <g transform="translate(41.511 18.599344)scale(0.1 -0.1)">
     <defs>
      <path id="DejaVuSans-79" d="M 2059 -325 
Q 1816 -950 1584 -1140 
Q 1353 -1331 966 -1331 
L 506 -1331 
L 506 -850 
L 844 -850 
Q 1081 -850 1212 -737 
Q 1344 -625 1503 -206 
L 1606 56 
L 191 3500 
L 800 3500 
L 1894 763 
L 2988 3500 
L 3597 3500 
L 2059 -325 
z
" transform="scale(0.015625)"/>
      <path id="DejaVuSans-20" transform="scale(0.015625)"/>
      <path id="DejaVuSans-3d" d="M 678 2906 
L 4684 2906 
L 4684 2381 
L 678 2381 
L 678 2906 
z
M 678 1631 
L 4684 1631 
L 4684 1100 
L 678 1100 
L 678 1631 
z
" transform="scale(0.015625)"/>
      <path id="DejaVuSans-2d" d="M 313 2009 
L 1997 2009 
L 1997 1497 
L 313 1497 
L 313 2009 
z
" transform="scale(0.015625)"/>
      <path id="DejaVuSans-78" d="M 3513 3500 
L 2247 1797 
L 3578 0 
L 2900 0 
L 1881 1375 
L 863 0 
L 184 0 
L 1544 1831 
L 300 3500 
L 978 3500 
L 1906 2253 
L 2834 3500 
L 3513 3500 
z
" transform="scale(0.015625)"/>
      <path id="DejaVuSans-2b" d="M 2944 4013 
L 2944 2272 
L 4684 2272 
L 4684 1741 
L 2944 1741 
L 2944 0 
L 2419 0 
L 2419 1741 
L 678 1741 
L 678 2272 
L 2419 2272 
L 2419 4013 
L 2944 4013 
z
" transform="scale(0.015625)"/>
     </defs>
     <use xlink:href="#DejaVuSans-79"/>
     <use xlink:href="#DejaVuSans-20" x="59.179688"/>
     <use xlink:href="#DejaVuSans-3d" x="90.966797"/>
     <use xlink:href="#DejaVuSans-20" x="174.755859"/>
     <use xlink:href="#DejaVuSans-2d" x="206.542969"/>
     <use xlink:href="#DejaVuSans-30" x="242.626953"/>
     <use xlink:href="#DejaVuSans-2e" x="306.25"/>
     <use xlink:href="#DejaVuSans-30" x="338.037109"/>
     <use xlink:href="#DejaVuSans-30" x="401.660156"/>
     <use xlink:href="#DejaVuSans-78" x="465.283203"/>
     <use xlink:href="#DejaVuSans-20" x="524.462891"/>
     <use xlink:href="#DejaVuSans-2b" x="556.25"/>
     <use xlink:href="#DejaVuSans-20" x="640.039062"/>
     <use xlink:href="#DejaVuSans-2d" x="671.826172"/>
     <use xlink:href="#DejaVuSans-30" x="707.910156"/>
     <use xlink:href="#DejaVuSans-2e" x="771.533203"/>
     <use xlink:href="#DejaVuSans-30" x="803.320312"/>
     <use xlink:href="#DejaVuSans-31" x="866.943359"/>
    </g>
   </g>
   <g id="text_14">
    <!-- r^2 = 0.09 -->
    <g transform="translate(60.111781 26.308274)scale(0.1 -0.1)">
     <defs>
      <path id="DejaVuSans-5e" d="M 2988 4666 
L 4684 2925 
L 4056 2925 
L 2681 4159 
L 1306 2925 
L 678 2925 
L 2375 4666 
L 2988 4666 
z
" transform="scale(0.015625)"/>
     </defs>
     <use xlink:href="#DejaVuSans-72"/>
     <use xlink:href="#DejaVuSans-5e" x="41.113281"/>
     <use xlink:href="#DejaVuSans-32" x="124.902344"/>
     <use xlink:href="#DejaVuSans-20" x="188.525391"/>
     <use xlink:href="#DejaVuSans-3d" x="220.3125"/>
     <use xlink:href="#DejaVuSans-20" x="304.101562"/>
     <use xlink:href="#DejaVuSans-30" x="335.888672"/>
     <use xlink:href="#DejaVuSans-2e" x="399.511719"/>
     <use xlink:href="#DejaVuSans-30" x="431.298828"/>
     <use xlink:href="#DejaVuSans-39" x="494.921875"/>
    </g>
   </g>
   <g id="text_15">
    <!-- n = 98 -->
    <g transform="translate(71.139906 34.017203)scale(0.1 -0.1)">
     <use xlink:href="#DejaVuSans-6e"/>
     <use xlink:href="#DejaVuSans-20" x="63.378906"/>
     <use xlink:href="#DejaVuSans-3d" x="95.166016"/>
     <use xlink:href="#DejaVuSans-20" x="178.955078"/>
     <use xlink:href="#DejaVuSans-39" x="210.742188"/>
     <use xlink:href="#DejaVuSans-38" x="274.365234"/>
    </g>
   </g>
   <g id="text_16">
    <!-- SasaDiff vs PercentGpA_transformed -->
    <g transform="translate(138.574375 40.675687)scale(0.12 -0.12)">
     <defs>
      <path id="DejaVuSans-76" d="M 191 3500 
L 800 3500 
L 1894 563 
L 2988 3500 
L 3597 3500 
L 2284 0 
L 1503 0 
L 191 3500 
z
" transform="scale(0.015625)"/>
     </defs>
     <use xlink:href="#DejaVuSans-53"/>
     <use xlink:href="#DejaVuSans-61" x="63.476562"/>
     <use xlink:href="#DejaVuSans-73" x="124.755859"/>
     <use xlink:href="#DejaVuSans-61" x="176.855469"/>
     <use xlink:href="#DejaVuSans-44" x="238.134766"/>
     <use xlink:href="#DejaVuSans-69" x="315.136719"/>
     <use xlink:href="#DejaVuSans-66" x="342.919922"/>
     <use xlink:href="#DejaVuSans-66" x="378.125"/>
     <use xlink:href="#DejaVuSans-20" x="413.330078"/>
     <use xlink:href="#DejaVuSans-76" x="445.117188"/>
     <use xlink:href="#DejaVuSans-73" x="504.296875"/>
     <use xlink:href="#DejaVuSans-20" x="556.396484"/>
     <use xlink:href="#DejaVuSans-50" x="588.183594"/>
     <use xlink:href="#DejaVuSans-65" x="644.861328"/>
     <use xlink:href="#DejaVuSans-72" x="706.384766"/>
     <use xlink:href="#DejaVuSans-63" x="745.248047"/>
     <use xlink:href="#DejaVuSans-65" x="800.228516"/>
     <use xlink:href="#DejaVuSans-6e" x="861.751953"/>
     <use xlink:href="#DejaVuSans-74" x="925.130859"/>
     <use xlink:href="#DejaVuSans-47" x="964.339844"/>
     <use xlink:href="#DejaVuSans-70" x="1041.830078"/>
     <use xlink:href="#DejaVuSans-41" x="1105.306641"/>
     <use xlink:href="#DejaVuSans-5f" x="1173.714844"/>
     <use xlink:href="#DejaVuSans-74" x="1223.714844"/>
     <use xlink:href="#DejaVuSans-72" x="1262.923828"/>
     <use xlink:href="#DejaVuSans-61" x="1304.037109"/>
     <use xlink:href="#DejaVuSans-6e" x="1365.316406"/>
     <use xlink:href="#DejaVuSans-73" x="1428.695312"/>
     <use xlink:href="#DejaVuSans-66" x="1480.794922"/>
     <use xlink:href="#DejaVuSans-6f" x="1516"/>
     <use xlink:href="#DejaVuSans-72" x="1577.181641"/>
     <use xlink:href="#DejaVuSans-6d" x="1616.544922"/>
     <use xlink:href="#DejaVuSans-65" x="1713.957031"/>
     <use xlink:href="#DejaVuSans-64" x="1775.480469"/>
    </g>
   </g>
  </g>
 </g>
 <defs>
  <clipPath id="p6966f7118e">
   <rect x="47.82125" y="46.675687" width="402.17875" height="256.964313"/>
  </clipPath>
 </defs>
</svg>
