<?xml version="1.0" encoding="utf-8" standalone="no"?>
<!DOCTYPE svg PUBLIC "-//W3C//DTD SVG 1.1//EN"
  "http://www.w3.org/Graphics/SVG/1.1/DTD/svg11.dtd">
<svg xmlns:xlink="http://www.w3.org/1999/xlink" width="460.8pt" height="345.6pt" viewBox="0 0 460.8 345.6" xmlns="http://www.w3.org/2000/svg" version="1.1">
 <metadata>
  <rdf:RDF xmlns:dc="http://purl.org/dc/elements/1.1/" xmlns:cc="http://creativecommons.org/ns#" xmlns:rdf="http://www.w3.org/1999/02/22-rdf-syntax-ns#">
   <cc:Work>
    <dc:type rdf:resource="http://purl.org/dc/dcmitype/StillImage"/>
    <dc:date>2024-02-24T17:20:37.933393</dc:date>
    <dc:format>image/svg+xml</dc:format>
    <dc:creator>
     <cc:Agent>
      <dc:title>Matplotlib v3.5.3, https://matplotlib.org/</dc:title>
     </cc:Agent>
    </dc:creator>
   </cc:Work>
  </rdf:RDF>
 </metadata>
 <defs>
  <style type="text/css">*{stroke-linejoin: round; stroke-linecap: butt}</style>
 </defs>
 <g id="figure_1">
  <g id="patch_1">
   <path d="M 0 345.6 
L 460.8 345.6 
L 460.8 0 
L 0 0 
z
" style="fill: #ffffff"/>
  </g>
  <g id="axes_1">
   <g id="patch_2">
    <path d="M 47.82125 303.64 
L 450 303.64 
L 450 46.543987 
L 47.82125 46.543987 
z
" style="fill: #ffffff"/>
   </g>
   <g id="PathCollection_1">
    <defs>
     <path id="md4447de5e0" d="M 0 3 
C 0.795609 3 1.55874 2.683901 2.12132 2.12132 
C 2.683901 1.55874 3 0.795609 3 0 
C 3 -0.795609 2.683901 -1.55874 2.12132 -2.12132 
C 1.55874 -2.683901 0.795609 -3 0 -3 
C -0.795609 -3 -1.55874 -2.683901 -2.12132 -2.12132 
C -2.683901 -1.55874 -3 -0.795609 -3 0 
C -3 0.795609 -2.683901 1.55874 -2.12132 2.12132 
C -1.55874 2.683901 -0.795609 3 0 3 
z
" style="stroke: #1f77b4"/>
    </defs>
    <g clip-path="url(#pa9d0470449)">
     <use xlink:href="#md4447de5e0" x="66.102102" y="215.510454" style="fill: #1f77b4; stroke: #1f77b4"/>
     <use xlink:href="#md4447de5e0" x="81.811813" y="246.890492" style="fill: #1f77b4; stroke: #1f77b4"/>
     <use xlink:href="#md4447de5e0" x="131.97396" y="203.056259" style="fill: #1f77b4; stroke: #1f77b4"/>
     <use xlink:href="#md4447de5e0" x="134.146384" y="217.414855" style="fill: #1f77b4; stroke: #1f77b4"/>
     <use xlink:href="#md4447de5e0" x="139.343969" y="200.586731" style="fill: #1f77b4; stroke: #1f77b4"/>
     <use xlink:href="#md4447de5e0" x="147.501253" y="221.09153" style="fill: #1f77b4; stroke: #1f77b4"/>
     <use xlink:href="#md4447de5e0" x="155.796441" y="207.619401" style="fill: #1f77b4; stroke: #1f77b4"/>
     <use xlink:href="#md4447de5e0" x="166.667292" y="192.97505" style="fill: #1f77b4; stroke: #1f77b4"/>
     <use xlink:href="#md4447de5e0" x="177.691758" y="236.345324" style="fill: #1f77b4; stroke: #1f77b4"/>
     <use xlink:href="#md4447de5e0" x="184.674239" y="284.273759" style="fill: #1f77b4; stroke: #1f77b4"/>
     <use xlink:href="#md4447de5e0" x="186.375346" y="249.860066" style="fill: #1f77b4; stroke: #1f77b4"/>
     <use xlink:href="#md4447de5e0" x="188.008374" y="228.335339" style="fill: #1f77b4; stroke: #1f77b4"/>
     <use xlink:href="#md4447de5e0" x="190.883411" y="233.848453" style="fill: #1f77b4; stroke: #1f77b4"/>
     <use xlink:href="#md4447de5e0" x="198.907155" y="223.427371" style="fill: #1f77b4; stroke: #1f77b4"/>
     <use xlink:href="#md4447de5e0" x="203.883046" y="207.842769" style="fill: #1f77b4; stroke: #1f77b4"/>
     <use xlink:href="#md4447de5e0" x="205.811956" y="253.595296" style="fill: #1f77b4; stroke: #1f77b4"/>
     <use xlink:href="#md4447de5e0" x="206.604468" y="222.326755" style="fill: #1f77b4; stroke: #1f77b4"/>
     <use xlink:href="#md4447de5e0" x="206.683894" y="204.731085" style="fill: #1f77b4; stroke: #1f77b4"/>
     <use xlink:href="#md4447de5e0" x="210.477127" y="278.876848" style="fill: #1f77b4; stroke: #1f77b4"/>
     <use xlink:href="#md4447de5e0" x="212.742069" y="213.804296" style="fill: #1f77b4; stroke: #1f77b4"/>
     <use xlink:href="#md4447de5e0" x="212.935833" y="242.186916" style="fill: #1f77b4; stroke: #1f77b4"/>
     <use xlink:href="#md4447de5e0" x="216.418346" y="217.106473" style="fill: #1f77b4; stroke: #1f77b4"/>
     <use xlink:href="#md4447de5e0" x="217.148888" y="274.226521" style="fill: #1f77b4; stroke: #1f77b4"/>
     <use xlink:href="#md4447de5e0" x="223.104072" y="203.231247" style="fill: #1f77b4; stroke: #1f77b4"/>
     <use xlink:href="#md4447de5e0" x="223.60681" y="186.395484" style="fill: #1f77b4; stroke: #1f77b4"/>
     <use xlink:href="#md4447de5e0" x="224.282365" y="219.17942" style="fill: #1f77b4; stroke: #1f77b4"/>
     <use xlink:href="#md4447de5e0" x="227.039573" y="284.357774" style="fill: #1f77b4; stroke: #1f77b4"/>
     <use xlink:href="#md4447de5e0" x="229.0514" y="216.113885" style="fill: #1f77b4; stroke: #1f77b4"/>
     <use xlink:href="#md4447de5e0" x="229.655385" y="188.770118" style="fill: #1f77b4; stroke: #1f77b4"/>
     <use xlink:href="#md4447de5e0" x="229.891916" y="211.351401" style="fill: #1f77b4; stroke: #1f77b4"/>
     <use xlink:href="#md4447de5e0" x="231.152254" y="259.236178" style="fill: #1f77b4; stroke: #1f77b4"/>
     <use xlink:href="#md4447de5e0" x="233.01134" y="177.920732" style="fill: #1f77b4; stroke: #1f77b4"/>
     <use xlink:href="#md4447de5e0" x="237.635488" y="243.627774" style="fill: #1f77b4; stroke: #1f77b4"/>
     <use xlink:href="#md4447de5e0" x="238.805054" y="250.402804" style="fill: #1f77b4; stroke: #1f77b4"/>
     <use xlink:href="#md4447de5e0" x="245.551004" y="261.044804" style="fill: #1f77b4; stroke: #1f77b4"/>
     <use xlink:href="#md4447de5e0" x="246.038032" y="225.688534" style="fill: #1f77b4; stroke: #1f77b4"/>
     <use xlink:href="#md4447de5e0" x="247.863078" y="207.71357" style="fill: #1f77b4; stroke: #1f77b4"/>
     <use xlink:href="#md4447de5e0" x="249.820791" y="236.113358" style="fill: #1f77b4; stroke: #1f77b4"/>
     <use xlink:href="#md4447de5e0" x="254.114145" y="237.722191" style="fill: #1f77b4; stroke: #1f77b4"/>
     <use xlink:href="#md4447de5e0" x="257.095664" y="229.379008" style="fill: #1f77b4; stroke: #1f77b4"/>
     <use xlink:href="#md4447de5e0" x="257.699649" y="186.526429" style="fill: #1f77b4; stroke: #1f77b4"/>
     <use xlink:href="#md4447de5e0" x="258.694653" y="211.725616" style="fill: #1f77b4; stroke: #1f77b4"/>
     <use xlink:href="#md4447de5e0" x="258.841285" y="287.857083" style="fill: #1f77b4; stroke: #1f77b4"/>
     <use xlink:href="#md4447de5e0" x="259.322203" y="258.403009" style="fill: #1f77b4; stroke: #1f77b4"/>
     <use xlink:href="#md4447de5e0" x="259.88342" y="221.908329" style="fill: #1f77b4; stroke: #1f77b4"/>
     <use xlink:href="#md4447de5e0" x="260.520572" y="209.968878" style="fill: #1f77b4; stroke: #1f77b4"/>
     <use xlink:href="#md4447de5e0" x="261.471935" y="239.081593" style="fill: #1f77b4; stroke: #1f77b4"/>
     <use xlink:href="#md4447de5e0" x="262.209459" y="281.943722" style="fill: #1f77b4; stroke: #1f77b4"/>
     <use xlink:href="#md4447de5e0" x="264.651582" y="234.261265" style="fill: #1f77b4; stroke: #1f77b4"/>
     <use xlink:href="#md4447de5e0" x="271.115614" y="230.433419" style="fill: #1f77b4; stroke: #1f77b4"/>
     <use xlink:href="#md4447de5e0" x="275.111339" y="224.45738" style="fill: #1f77b4; stroke: #1f77b4"/>
     <use xlink:href="#md4447de5e0" x="280.975751" y="216.8684" style="fill: #1f77b4; stroke: #1f77b4"/>
     <use xlink:href="#md4447de5e0" x="284.780331" y="201.125119" style="fill: #1f77b4; stroke: #1f77b4"/>
     <use xlink:href="#md4447de5e0" x="284.851028" y="209.710063" style="fill: #1f77b4; stroke: #1f77b4"/>
     <use xlink:href="#md4447de5e0" x="284.877213" y="217.786184" style="fill: #1f77b4; stroke: #1f77b4"/>
     <use xlink:href="#md4447de5e0" x="285.112871" y="243.738424" style="fill: #1f77b4; stroke: #1f77b4"/>
     <use xlink:href="#md4447de5e0" x="286.854128" y="232.141087" style="fill: #1f77b4; stroke: #1f77b4"/>
     <use xlink:href="#md4447de5e0" x="286.892531" y="204.26569" style="fill: #1f77b4; stroke: #1f77b4"/>
     <use xlink:href="#md4447de5e0" x="290.31482" y="279.352036" style="fill: #1f77b4; stroke: #1f77b4"/>
     <use xlink:href="#md4447de5e0" x="292.406073" y="252.048987" style="fill: #1f77b4; stroke: #1f77b4"/>
     <use xlink:href="#md4447de5e0" x="293.25619" y="208.976968" style="fill: #1f77b4; stroke: #1f77b4"/>
     <use xlink:href="#md4447de5e0" x="293.488358" y="255.522369" style="fill: #1f77b4; stroke: #1f77b4"/>
     <use xlink:href="#md4447de5e0" x="294.705055" y="242.477518" style="fill: #1f77b4; stroke: #1f77b4"/>
     <use xlink:href="#md4447de5e0" x="295.075127" y="291.482837" style="fill: #1f77b4; stroke: #1f77b4"/>
     <use xlink:href="#md4447de5e0" x="295.679984" y="284.387176" style="fill: #1f77b4; stroke: #1f77b4"/>
     <use xlink:href="#md4447de5e0" x="295.802178" y="237.018971" style="fill: #1f77b4; stroke: #1f77b4"/>
     <use xlink:href="#md4447de5e0" x="300.158373" y="222.087294" style="fill: #1f77b4; stroke: #1f77b4"/>
     <use xlink:href="#md4447de5e0" x="301.179561" y="193.999348" style="fill: #1f77b4; stroke: #1f77b4"/>
     <use xlink:href="#md4447de5e0" x="302.482667" y="243.581567" style="fill: #1f77b4; stroke: #1f77b4"/>
     <use xlink:href="#md4447de5e0" x="302.939147" y="201.417214" style="fill: #1f77b4; stroke: #1f77b4"/>
     <use xlink:href="#md4447de5e0" x="305.744359" y="234.575325" style="fill: #1f77b4; stroke: #1f77b4"/>
     <use xlink:href="#md4447de5e0" x="307.085868" y="153.943455" style="fill: #1f77b4; stroke: #1f77b4"/>
     <use xlink:href="#md4447de5e0" x="310.295191" y="285.768351" style="fill: #1f77b4; stroke: #1f77b4"/>
     <use xlink:href="#md4447de5e0" x="311.118251" y="213.542967" style="fill: #1f77b4; stroke: #1f77b4"/>
     <use xlink:href="#md4447de5e0" x="313.393667" y="259.172984" style="fill: #1f77b4; stroke: #1f77b4"/>
     <use xlink:href="#md4447de5e0" x="314.178323" y="234.595157" style="fill: #1f77b4; stroke: #1f77b4"/>
     <use xlink:href="#md4447de5e0" x="315.950128" y="279.463665" style="fill: #1f77b4; stroke: #1f77b4"/>
     <use xlink:href="#md4447de5e0" x="325.857397" y="210.572901" style="fill: #1f77b4; stroke: #1f77b4"/>
     <use xlink:href="#md4447de5e0" x="330.91795" y="276.674943" style="fill: #1f77b4; stroke: #1f77b4"/>
     <use xlink:href="#md4447de5e0" x="332.427912" y="218.521955" style="fill: #1f77b4; stroke: #1f77b4"/>
     <use xlink:href="#md4447de5e0" x="332.605965" y="225.938674" style="fill: #1f77b4; stroke: #1f77b4"/>
     <use xlink:href="#md4447de5e0" x="334.937241" y="221.569145" style="fill: #1f77b4; stroke: #1f77b4"/>
     <use xlink:href="#md4447de5e0" x="335.958429" y="217.314792" style="fill: #1f77b4; stroke: #1f77b4"/>
     <use xlink:href="#md4447de5e0" x="337.299065" y="283.100076" style="fill: #1f77b4; stroke: #1f77b4"/>
     <use xlink:href="#md4447de5e0" x="337.846317" y="204.471303" style="fill: #1f77b4; stroke: #1f77b4"/>
     <use xlink:href="#md4447de5e0" x="348.007574" y="203.234561" style="fill: #1f77b4; stroke: #1f77b4"/>
     <use xlink:href="#md4447de5e0" x="357.019339" y="239.211431" style="fill: #1f77b4; stroke: #1f77b4"/>
     <use xlink:href="#md4447de5e0" x="359.048622" y="254.384205" style="fill: #1f77b4; stroke: #1f77b4"/>
     <use xlink:href="#md4447de5e0" x="372.694137" y="288.976768" style="fill: #1f77b4; stroke: #1f77b4"/>
     <use xlink:href="#md4447de5e0" x="374.304472" y="235.355179" style="fill: #1f77b4; stroke: #1f77b4"/>
     <use xlink:href="#md4447de5e0" x="376.53101" y="220.937564" style="fill: #1f77b4; stroke: #1f77b4"/>
     <use xlink:href="#md4447de5e0" x="387.695998" y="225.442207" style="fill: #1f77b4; stroke: #1f77b4"/>
     <use xlink:href="#md4447de5e0" x="398.521027" y="268.631526" style="fill: #1f77b4; stroke: #1f77b4"/>
     <use xlink:href="#md4447de5e0" x="400.580684" y="225.67645" style="fill: #1f77b4; stroke: #1f77b4"/>
     <use xlink:href="#md4447de5e0" x="417.602665" y="203.507506" style="fill: #1f77b4; stroke: #1f77b4"/>
     <use xlink:href="#md4447de5e0" x="419.285705" y="288.187395" style="fill: #1f77b4; stroke: #1f77b4"/>
     <use xlink:href="#md4447de5e0" x="427.949481" y="213.697149" style="fill: #1f77b4; stroke: #1f77b4"/>
     <use xlink:href="#md4447de5e0" x="431.719148" y="221.960179" style="fill: #1f77b4; stroke: #1f77b4"/>
    </g>
   </g>
   <g id="matplotlib.axis_1">
    <g id="xtick_1">
     <g id="line2d_1">
      <defs>
       <path id="m3e53a8f7b7" d="M 0 0 
L 0 3.5 
" style="stroke: #000000; stroke-width: 0.8"/>
      </defs>
      <g>
       <use xlink:href="#m3e53a8f7b7" x="132.117974" y="303.64" style="stroke: #000000; stroke-width: 0.8"/>
      </g>
     </g>
     <g id="text_1">
      <!-- −40 -->
      <g transform="translate(121.56563 318.238437)scale(0.1 -0.1)">
       <defs>
        <path id="DejaVuSans-2212" d="M 678 2272 
L 4684 2272 
L 4684 1741 
L 678 1741 
L 678 2272 
z
" transform="scale(0.015625)"/>
        <path id="DejaVuSans-34" d="M 2419 4116 
L 825 1625 
L 2419 1625 
L 2419 4116 
z
M 2253 4666 
L 3047 4666 
L 3047 1625 
L 3713 1625 
L 3713 1100 
L 3047 1100 
L 3047 0 
L 2419 0 
L 2419 1100 
L 313 1100 
L 313 1709 
L 2253 4666 
z
" transform="scale(0.015625)"/>
        <path id="DejaVuSans-30" d="M 2034 4250 
Q 1547 4250 1301 3770 
Q 1056 3291 1056 2328 
Q 1056 1369 1301 889 
Q 1547 409 2034 409 
Q 2525 409 2770 889 
Q 3016 1369 3016 2328 
Q 3016 3291 2770 3770 
Q 2525 4250 2034 4250 
z
M 2034 4750 
Q 2819 4750 3233 4129 
Q 3647 3509 3647 2328 
Q 3647 1150 3233 529 
Q 2819 -91 2034 -91 
Q 1250 -91 836 529 
Q 422 1150 422 2328 
Q 422 3509 836 4129 
Q 1250 4750 2034 4750 
z
" transform="scale(0.015625)"/>
       </defs>
       <use xlink:href="#DejaVuSans-2212"/>
       <use xlink:href="#DejaVuSans-34" x="83.789062"/>
       <use xlink:href="#DejaVuSans-30" x="147.412109"/>
      </g>
     </g>
    </g>
    <g id="xtick_2">
     <g id="line2d_2">
      <g>
       <use xlink:href="#m3e53a8f7b7" x="219.398992" y="303.64" style="stroke: #000000; stroke-width: 0.8"/>
      </g>
     </g>
     <g id="text_2">
      <!-- −30 -->
      <g transform="translate(208.846649 318.238437)scale(0.1 -0.1)">
       <defs>
        <path id="DejaVuSans-33" d="M 2597 2516 
Q 3050 2419 3304 2112 
Q 3559 1806 3559 1356 
Q 3559 666 3084 287 
Q 2609 -91 1734 -91 
Q 1441 -91 1130 -33 
Q 819 25 488 141 
L 488 750 
Q 750 597 1062 519 
Q 1375 441 1716 441 
Q 2309 441 2620 675 
Q 2931 909 2931 1356 
Q 2931 1769 2642 2001 
Q 2353 2234 1838 2234 
L 1294 2234 
L 1294 2753 
L 1863 2753 
Q 2328 2753 2575 2939 
Q 2822 3125 2822 3475 
Q 2822 3834 2567 4026 
Q 2313 4219 1838 4219 
Q 1578 4219 1281 4162 
Q 984 4106 628 3988 
L 628 4550 
Q 988 4650 1302 4700 
Q 1616 4750 1894 4750 
Q 2613 4750 3031 4423 
Q 3450 4097 3450 3541 
Q 3450 3153 3228 2886 
Q 3006 2619 2597 2516 
z
" transform="scale(0.015625)"/>
       </defs>
       <use xlink:href="#DejaVuSans-2212"/>
       <use xlink:href="#DejaVuSans-33" x="83.789062"/>
       <use xlink:href="#DejaVuSans-30" x="147.412109"/>
      </g>
     </g>
    </g>
    <g id="xtick_3">
     <g id="line2d_3">
      <g>
       <use xlink:href="#m3e53a8f7b7" x="306.680011" y="303.64" style="stroke: #000000; stroke-width: 0.8"/>
      </g>
     </g>
     <g id="text_3">
      <!-- −20 -->
      <g transform="translate(296.127667 318.238437)scale(0.1 -0.1)">
       <defs>
        <path id="DejaVuSans-32" d="M 1228 531 
L 3431 531 
L 3431 0 
L 469 0 
L 469 531 
Q 828 903 1448 1529 
Q 2069 2156 2228 2338 
Q 2531 2678 2651 2914 
Q 2772 3150 2772 3378 
Q 2772 3750 2511 3984 
Q 2250 4219 1831 4219 
Q 1534 4219 1204 4116 
Q 875 4013 500 3803 
L 500 4441 
Q 881 4594 1212 4672 
Q 1544 4750 1819 4750 
Q 2544 4750 2975 4387 
Q 3406 4025 3406 3419 
Q 3406 3131 3298 2873 
Q 3191 2616 2906 2266 
Q 2828 2175 2409 1742 
Q 1991 1309 1228 531 
z
" transform="scale(0.015625)"/>
       </defs>
       <use xlink:href="#DejaVuSans-2212"/>
       <use xlink:href="#DejaVuSans-32" x="83.789062"/>
       <use xlink:href="#DejaVuSans-30" x="147.412109"/>
      </g>
     </g>
    </g>
    <g id="xtick_4">
     <g id="line2d_4">
      <g>
       <use xlink:href="#m3e53a8f7b7" x="393.96103" y="303.64" style="stroke: #000000; stroke-width: 0.8"/>
      </g>
     </g>
     <g id="text_4">
      <!-- −10 -->
      <g transform="translate(383.408686 318.238437)scale(0.1 -0.1)">
       <defs>
        <path id="DejaVuSans-31" d="M 794 531 
L 1825 531 
L 1825 4091 
L 703 3866 
L 703 4441 
L 1819 4666 
L 2450 4666 
L 2450 531 
L 3481 531 
L 3481 0 
L 794 0 
L 794 531 
z
" transform="scale(0.015625)"/>
       </defs>
       <use xlink:href="#DejaVuSans-2212"/>
       <use xlink:href="#DejaVuSans-31" x="83.789062"/>
       <use xlink:href="#DejaVuSans-30" x="147.412109"/>
      </g>
     </g>
    </g>
    <g id="text_5">
     <!-- Total -->
     <g transform="translate(237.234062 331.916562)scale(0.1 -0.1)">
      <defs>
       <path id="DejaVuSans-54" d="M -19 4666 
L 3928 4666 
L 3928 4134 
L 2272 4134 
L 2272 0 
L 1638 0 
L 1638 4134 
L -19 4134 
L -19 4666 
z
" transform="scale(0.015625)"/>
       <path id="DejaVuSans-6f" d="M 1959 3097 
Q 1497 3097 1228 2736 
Q 959 2375 959 1747 
Q 959 1119 1226 758 
Q 1494 397 1959 397 
Q 2419 397 2687 759 
Q 2956 1122 2956 1747 
Q 2956 2369 2687 2733 
Q 2419 3097 1959 3097 
z
M 1959 3584 
Q 2709 3584 3137 3096 
Q 3566 2609 3566 1747 
Q 3566 888 3137 398 
Q 2709 -91 1959 -91 
Q 1206 -91 779 398 
Q 353 888 353 1747 
Q 353 2609 779 3096 
Q 1206 3584 1959 3584 
z
" transform="scale(0.015625)"/>
       <path id="DejaVuSans-74" d="M 1172 4494 
L 1172 3500 
L 2356 3500 
L 2356 3053 
L 1172 3053 
L 1172 1153 
Q 1172 725 1289 603 
Q 1406 481 1766 481 
L 2356 481 
L 2356 0 
L 1766 0 
Q 1100 0 847 248 
Q 594 497 594 1153 
L 594 3053 
L 172 3053 
L 172 3500 
L 594 3500 
L 594 4494 
L 1172 4494 
z
" transform="scale(0.015625)"/>
       <path id="DejaVuSans-61" d="M 2194 1759 
Q 1497 1759 1228 1600 
Q 959 1441 959 1056 
Q 959 750 1161 570 
Q 1363 391 1709 391 
Q 2188 391 2477 730 
Q 2766 1069 2766 1631 
L 2766 1759 
L 2194 1759 
z
M 3341 1997 
L 3341 0 
L 2766 0 
L 2766 531 
Q 2569 213 2275 61 
Q 1981 -91 1556 -91 
Q 1019 -91 701 211 
Q 384 513 384 1019 
Q 384 1609 779 1909 
Q 1175 2209 1959 2209 
L 2766 2209 
L 2766 2266 
Q 2766 2663 2505 2880 
Q 2244 3097 1772 3097 
Q 1472 3097 1187 3025 
Q 903 2953 641 2809 
L 641 3341 
Q 956 3463 1253 3523 
Q 1550 3584 1831 3584 
Q 2591 3584 2966 3190 
Q 3341 2797 3341 1997 
z
" transform="scale(0.015625)"/>
       <path id="DejaVuSans-6c" d="M 603 4863 
L 1178 4863 
L 1178 0 
L 603 0 
L 603 4863 
z
" transform="scale(0.015625)"/>
      </defs>
      <use xlink:href="#DejaVuSans-54"/>
      <use xlink:href="#DejaVuSans-6f" x="44.083984"/>
      <use xlink:href="#DejaVuSans-74" x="105.265625"/>
      <use xlink:href="#DejaVuSans-61" x="144.474609"/>
      <use xlink:href="#DejaVuSans-6c" x="205.753906"/>
     </g>
    </g>
   </g>
   <g id="matplotlib.axis_2">
    <g id="ytick_1">
     <g id="line2d_5">
      <defs>
       <path id="m64842951db" d="M 0 0 
L -3.5 0 
" style="stroke: #000000; stroke-width: 0.8"/>
      </defs>
      <g>
       <use xlink:href="#m64842951db" x="47.82125" y="303.64" style="stroke: #000000; stroke-width: 0.8"/>
      </g>
     </g>
     <g id="text_6">
      <!-- 0.0 -->
      <g transform="translate(24.918125 307.439219)scale(0.1 -0.1)">
       <defs>
        <path id="DejaVuSans-2e" d="M 684 794 
L 1344 794 
L 1344 0 
L 684 0 
L 684 794 
z
" transform="scale(0.015625)"/>
       </defs>
       <use xlink:href="#DejaVuSans-30"/>
       <use xlink:href="#DejaVuSans-2e" x="63.623047"/>
       <use xlink:href="#DejaVuSans-30" x="95.410156"/>
      </g>
     </g>
    </g>
    <g id="ytick_2">
     <g id="line2d_6">
      <g>
       <use xlink:href="#m64842951db" x="47.82125" y="260.620009" style="stroke: #000000; stroke-width: 0.8"/>
      </g>
     </g>
     <g id="text_7">
      <!-- 0.5 -->
      <g transform="translate(24.918125 264.419228)scale(0.1 -0.1)">
       <defs>
        <path id="DejaVuSans-35" d="M 691 4666 
L 3169 4666 
L 3169 4134 
L 1269 4134 
L 1269 2991 
Q 1406 3038 1543 3061 
Q 1681 3084 1819 3084 
Q 2600 3084 3056 2656 
Q 3513 2228 3513 1497 
Q 3513 744 3044 326 
Q 2575 -91 1722 -91 
Q 1428 -91 1123 -41 
Q 819 9 494 109 
L 494 744 
Q 775 591 1075 516 
Q 1375 441 1709 441 
Q 2250 441 2565 725 
Q 2881 1009 2881 1497 
Q 2881 1984 2565 2268 
Q 2250 2553 1709 2553 
Q 1456 2553 1204 2497 
Q 953 2441 691 2322 
L 691 4666 
z
" transform="scale(0.015625)"/>
       </defs>
       <use xlink:href="#DejaVuSans-30"/>
       <use xlink:href="#DejaVuSans-2e" x="63.623047"/>
       <use xlink:href="#DejaVuSans-35" x="95.410156"/>
      </g>
     </g>
    </g>
    <g id="ytick_3">
     <g id="line2d_7">
      <g>
       <use xlink:href="#m64842951db" x="47.82125" y="217.600018" style="stroke: #000000; stroke-width: 0.8"/>
      </g>
     </g>
     <g id="text_8">
      <!-- 1.0 -->
      <g transform="translate(24.918125 221.399237)scale(0.1 -0.1)">
       <use xlink:href="#DejaVuSans-31"/>
       <use xlink:href="#DejaVuSans-2e" x="63.623047"/>
       <use xlink:href="#DejaVuSans-30" x="95.410156"/>
      </g>
     </g>
    </g>
    <g id="ytick_4">
     <g id="line2d_8">
      <g>
       <use xlink:href="#m64842951db" x="47.82125" y="174.580028" style="stroke: #000000; stroke-width: 0.8"/>
      </g>
     </g>
     <g id="text_9">
      <!-- 1.5 -->
      <g transform="translate(24.918125 178.379246)scale(0.1 -0.1)">
       <use xlink:href="#DejaVuSans-31"/>
       <use xlink:href="#DejaVuSans-2e" x="63.623047"/>
       <use xlink:href="#DejaVuSans-35" x="95.410156"/>
      </g>
     </g>
    </g>
    <g id="ytick_5">
     <g id="line2d_9">
      <g>
       <use xlink:href="#m64842951db" x="47.82125" y="131.560037" style="stroke: #000000; stroke-width: 0.8"/>
      </g>
     </g>
     <g id="text_10">
      <!-- 2.0 -->
      <g transform="translate(24.918125 135.359256)scale(0.1 -0.1)">
       <use xlink:href="#DejaVuSans-32"/>
       <use xlink:href="#DejaVuSans-2e" x="63.623047"/>
       <use xlink:href="#DejaVuSans-30" x="95.410156"/>
      </g>
     </g>
    </g>
    <g id="ytick_6">
     <g id="line2d_10">
      <g>
       <use xlink:href="#m64842951db" x="47.82125" y="88.540046" style="stroke: #000000; stroke-width: 0.8"/>
      </g>
     </g>
     <g id="text_11">
      <!-- 2.5 -->
      <g transform="translate(24.918125 92.339265)scale(0.1 -0.1)">
       <use xlink:href="#DejaVuSans-32"/>
       <use xlink:href="#DejaVuSans-2e" x="63.623047"/>
       <use xlink:href="#DejaVuSans-35" x="95.410156"/>
      </g>
     </g>
    </g>
    <g id="text_12">
     <!-- PercentGpA_transformed -->
     <g transform="translate(18.560312 237.630275)rotate(-90)scale(0.1 -0.1)">
      <defs>
       <path id="DejaVuSans-50" d="M 1259 4147 
L 1259 2394 
L 2053 2394 
Q 2494 2394 2734 2622 
Q 2975 2850 2975 3272 
Q 2975 3691 2734 3919 
Q 2494 4147 2053 4147 
L 1259 4147 
z
M 628 4666 
L 2053 4666 
Q 2838 4666 3239 4311 
Q 3641 3956 3641 3272 
Q 3641 2581 3239 2228 
Q 2838 1875 2053 1875 
L 1259 1875 
L 1259 0 
L 628 0 
L 628 4666 
z
" transform="scale(0.015625)"/>
       <path id="DejaVuSans-65" d="M 3597 1894 
L 3597 1613 
L 953 1613 
Q 991 1019 1311 708 
Q 1631 397 2203 397 
Q 2534 397 2845 478 
Q 3156 559 3463 722 
L 3463 178 
Q 3153 47 2828 -22 
Q 2503 -91 2169 -91 
Q 1331 -91 842 396 
Q 353 884 353 1716 
Q 353 2575 817 3079 
Q 1281 3584 2069 3584 
Q 2775 3584 3186 3129 
Q 3597 2675 3597 1894 
z
M 3022 2063 
Q 3016 2534 2758 2815 
Q 2500 3097 2075 3097 
Q 1594 3097 1305 2825 
Q 1016 2553 972 2059 
L 3022 2063 
z
" transform="scale(0.015625)"/>
       <path id="DejaVuSans-72" d="M 2631 2963 
Q 2534 3019 2420 3045 
Q 2306 3072 2169 3072 
Q 1681 3072 1420 2755 
Q 1159 2438 1159 1844 
L 1159 0 
L 581 0 
L 581 3500 
L 1159 3500 
L 1159 2956 
Q 1341 3275 1631 3429 
Q 1922 3584 2338 3584 
Q 2397 3584 2469 3576 
Q 2541 3569 2628 3553 
L 2631 2963 
z
" transform="scale(0.015625)"/>
       <path id="DejaVuSans-63" d="M 3122 3366 
L 3122 2828 
Q 2878 2963 2633 3030 
Q 2388 3097 2138 3097 
Q 1578 3097 1268 2742 
Q 959 2388 959 1747 
Q 959 1106 1268 751 
Q 1578 397 2138 397 
Q 2388 397 2633 464 
Q 2878 531 3122 666 
L 3122 134 
Q 2881 22 2623 -34 
Q 2366 -91 2075 -91 
Q 1284 -91 818 406 
Q 353 903 353 1747 
Q 353 2603 823 3093 
Q 1294 3584 2113 3584 
Q 2378 3584 2631 3529 
Q 2884 3475 3122 3366 
z
" transform="scale(0.015625)"/>
       <path id="DejaVuSans-6e" d="M 3513 2113 
L 3513 0 
L 2938 0 
L 2938 2094 
Q 2938 2591 2744 2837 
Q 2550 3084 2163 3084 
Q 1697 3084 1428 2787 
Q 1159 2491 1159 1978 
L 1159 0 
L 581 0 
L 581 3500 
L 1159 3500 
L 1159 2956 
Q 1366 3272 1645 3428 
Q 1925 3584 2291 3584 
Q 2894 3584 3203 3211 
Q 3513 2838 3513 2113 
z
" transform="scale(0.015625)"/>
       <path id="DejaVuSans-47" d="M 3809 666 
L 3809 1919 
L 2778 1919 
L 2778 2438 
L 4434 2438 
L 4434 434 
Q 4069 175 3628 42 
Q 3188 -91 2688 -91 
Q 1594 -91 976 548 
Q 359 1188 359 2328 
Q 359 3472 976 4111 
Q 1594 4750 2688 4750 
Q 3144 4750 3555 4637 
Q 3966 4525 4313 4306 
L 4313 3634 
Q 3963 3931 3569 4081 
Q 3175 4231 2741 4231 
Q 1884 4231 1454 3753 
Q 1025 3275 1025 2328 
Q 1025 1384 1454 906 
Q 1884 428 2741 428 
Q 3075 428 3337 486 
Q 3600 544 3809 666 
z
" transform="scale(0.015625)"/>
       <path id="DejaVuSans-70" d="M 1159 525 
L 1159 -1331 
L 581 -1331 
L 581 3500 
L 1159 3500 
L 1159 2969 
Q 1341 3281 1617 3432 
Q 1894 3584 2278 3584 
Q 2916 3584 3314 3078 
Q 3713 2572 3713 1747 
Q 3713 922 3314 415 
Q 2916 -91 2278 -91 
Q 1894 -91 1617 61 
Q 1341 213 1159 525 
z
M 3116 1747 
Q 3116 2381 2855 2742 
Q 2594 3103 2138 3103 
Q 1681 3103 1420 2742 
Q 1159 2381 1159 1747 
Q 1159 1113 1420 752 
Q 1681 391 2138 391 
Q 2594 391 2855 752 
Q 3116 1113 3116 1747 
z
" transform="scale(0.015625)"/>
       <path id="DejaVuSans-41" d="M 2188 4044 
L 1331 1722 
L 3047 1722 
L 2188 4044 
z
M 1831 4666 
L 2547 4666 
L 4325 0 
L 3669 0 
L 3244 1197 
L 1141 1197 
L 716 0 
L 50 0 
L 1831 4666 
z
" transform="scale(0.015625)"/>
       <path id="DejaVuSans-5f" d="M 3263 -1063 
L 3263 -1509 
L -63 -1509 
L -63 -1063 
L 3263 -1063 
z
" transform="scale(0.015625)"/>
       <path id="DejaVuSans-73" d="M 2834 3397 
L 2834 2853 
Q 2591 2978 2328 3040 
Q 2066 3103 1784 3103 
Q 1356 3103 1142 2972 
Q 928 2841 928 2578 
Q 928 2378 1081 2264 
Q 1234 2150 1697 2047 
L 1894 2003 
Q 2506 1872 2764 1633 
Q 3022 1394 3022 966 
Q 3022 478 2636 193 
Q 2250 -91 1575 -91 
Q 1294 -91 989 -36 
Q 684 19 347 128 
L 347 722 
Q 666 556 975 473 
Q 1284 391 1588 391 
Q 1994 391 2212 530 
Q 2431 669 2431 922 
Q 2431 1156 2273 1281 
Q 2116 1406 1581 1522 
L 1381 1569 
Q 847 1681 609 1914 
Q 372 2147 372 2553 
Q 372 3047 722 3315 
Q 1072 3584 1716 3584 
Q 2034 3584 2315 3537 
Q 2597 3491 2834 3397 
z
" transform="scale(0.015625)"/>
       <path id="DejaVuSans-66" d="M 2375 4863 
L 2375 4384 
L 1825 4384 
Q 1516 4384 1395 4259 
Q 1275 4134 1275 3809 
L 1275 3500 
L 2222 3500 
L 2222 3053 
L 1275 3053 
L 1275 0 
L 697 0 
L 697 3053 
L 147 3053 
L 147 3500 
L 697 3500 
L 697 3744 
Q 697 4328 969 4595 
Q 1241 4863 1831 4863 
L 2375 4863 
z
" transform="scale(0.015625)"/>
       <path id="DejaVuSans-6d" d="M 3328 2828 
Q 3544 3216 3844 3400 
Q 4144 3584 4550 3584 
Q 5097 3584 5394 3201 
Q 5691 2819 5691 2113 
L 5691 0 
L 5113 0 
L 5113 2094 
Q 5113 2597 4934 2840 
Q 4756 3084 4391 3084 
Q 3944 3084 3684 2787 
Q 3425 2491 3425 1978 
L 3425 0 
L 2847 0 
L 2847 2094 
Q 2847 2600 2669 2842 
Q 2491 3084 2119 3084 
Q 1678 3084 1418 2786 
Q 1159 2488 1159 1978 
L 1159 0 
L 581 0 
L 581 3500 
L 1159 3500 
L 1159 2956 
Q 1356 3278 1631 3431 
Q 1906 3584 2284 3584 
Q 2666 3584 2933 3390 
Q 3200 3197 3328 2828 
z
" transform="scale(0.015625)"/>
       <path id="DejaVuSans-64" d="M 2906 2969 
L 2906 4863 
L 3481 4863 
L 3481 0 
L 2906 0 
L 2906 525 
Q 2725 213 2448 61 
Q 2172 -91 1784 -91 
Q 1150 -91 751 415 
Q 353 922 353 1747 
Q 353 2572 751 3078 
Q 1150 3584 1784 3584 
Q 2172 3584 2448 3432 
Q 2725 3281 2906 2969 
z
M 947 1747 
Q 947 1113 1208 752 
Q 1469 391 1925 391 
Q 2381 391 2643 752 
Q 2906 1113 2906 1747 
Q 2906 2381 2643 2742 
Q 2381 3103 1925 3103 
Q 1469 3103 1208 2742 
Q 947 2381 947 1747 
z
" transform="scale(0.015625)"/>
      </defs>
      <use xlink:href="#DejaVuSans-50"/>
      <use xlink:href="#DejaVuSans-65" x="56.677734"/>
      <use xlink:href="#DejaVuSans-72" x="118.201172"/>
      <use xlink:href="#DejaVuSans-63" x="157.064453"/>
      <use xlink:href="#DejaVuSans-65" x="212.044922"/>
      <use xlink:href="#DejaVuSans-6e" x="273.568359"/>
      <use xlink:href="#DejaVuSans-74" x="336.947266"/>
      <use xlink:href="#DejaVuSans-47" x="376.15625"/>
      <use xlink:href="#DejaVuSans-70" x="453.646484"/>
      <use xlink:href="#DejaVuSans-41" x="517.123047"/>
      <use xlink:href="#DejaVuSans-5f" x="585.53125"/>
      <use xlink:href="#DejaVuSans-74" x="635.53125"/>
      <use xlink:href="#DejaVuSans-72" x="674.740234"/>
      <use xlink:href="#DejaVuSans-61" x="715.853516"/>
      <use xlink:href="#DejaVuSans-6e" x="777.132812"/>
      <use xlink:href="#DejaVuSans-73" x="840.511719"/>
      <use xlink:href="#DejaVuSans-66" x="892.611328"/>
      <use xlink:href="#DejaVuSans-6f" x="927.816406"/>
      <use xlink:href="#DejaVuSans-72" x="988.998047"/>
      <use xlink:href="#DejaVuSans-6d" x="1028.361328"/>
      <use xlink:href="#DejaVuSans-65" x="1125.773438"/>
      <use xlink:href="#DejaVuSans-64" x="1187.296875"/>
     </g>
    </g>
   </g>
   <g id="LineCollection_1">
    <path d="M 66.102102 222.217877 
L 66.102102 208.803031 
" clip-path="url(#pa9d0470449)" style="fill: none; stroke: #d3d3d3; stroke-width: 3"/>
    <path d="M 81.811813 250.955339 
L 81.811813 242.825644 
" clip-path="url(#pa9d0470449)" style="fill: none; stroke: #d3d3d3; stroke-width: 3"/>
    <path d="M 131.97396 216.425869 
L 131.97396 189.686649 
" clip-path="url(#pa9d0470449)" style="fill: none; stroke: #d3d3d3; stroke-width: 3"/>
    <path d="M 134.146384 223.486944 
L 134.146384 211.342767 
" clip-path="url(#pa9d0470449)" style="fill: none; stroke: #d3d3d3; stroke-width: 3"/>
    <path d="M 139.343969 212.010175 
L 139.343969 189.163286 
" clip-path="url(#pa9d0470449)" style="fill: none; stroke: #d3d3d3; stroke-width: 3"/>
    <path d="M 147.501253 238.22688 
L 147.501253 203.95618 
" clip-path="url(#pa9d0470449)" style="fill: none; stroke: #d3d3d3; stroke-width: 3"/>
    <path d="M 155.796441 214.894148 
L 155.796441 200.344654 
" clip-path="url(#pa9d0470449)" style="fill: none; stroke: #d3d3d3; stroke-width: 3"/>
    <path d="M 166.667292 210.08871 
L 166.667292 175.861391 
" clip-path="url(#pa9d0470449)" style="fill: none; stroke: #d3d3d3; stroke-width: 3"/>
    <path d="M 177.691758 242.196851 
L 177.691758 230.493796 
" clip-path="url(#pa9d0470449)" style="fill: none; stroke: #d3d3d3; stroke-width: 3"/>
    <path d="M 184.674239 286.969 
L 184.674239 281.578518 
" clip-path="url(#pa9d0470449)" style="fill: none; stroke: #d3d3d3; stroke-width: 3"/>
    <path d="M 186.375346 258.924771 
L 186.375346 240.795361 
" clip-path="url(#pa9d0470449)" style="fill: none; stroke: #d3d3d3; stroke-width: 3"/>
    <path d="M 188.008374 236.606881 
L 188.008374 220.063797 
" clip-path="url(#pa9d0470449)" style="fill: none; stroke: #d3d3d3; stroke-width: 3"/>
    <path d="M 190.883411 239.763824 
L 190.883411 227.933083 
" clip-path="url(#pa9d0470449)" style="fill: none; stroke: #d3d3d3; stroke-width: 3"/>
    <path d="M 198.907155 253.674169 
L 198.907155 193.180574 
" clip-path="url(#pa9d0470449)" style="fill: none; stroke: #d3d3d3; stroke-width: 3"/>
    <path d="M 203.883046 222.496775 
L 203.883046 193.188763 
" clip-path="url(#pa9d0470449)" style="fill: none; stroke: #d3d3d3; stroke-width: 3"/>
    <path d="M 205.811956 259.780071 
L 205.811956 247.410521 
" clip-path="url(#pa9d0470449)" style="fill: none; stroke: #d3d3d3; stroke-width: 3"/>
    <path d="M 206.604468 304.928474 
L 206.604468 139.725036 
" clip-path="url(#pa9d0470449)" style="fill: none; stroke: #d3d3d3; stroke-width: 3"/>
    <path d="M 206.683894 220.515911 
L 206.683894 188.946259 
" clip-path="url(#pa9d0470449)" style="fill: none; stroke: #d3d3d3; stroke-width: 3"/>
    <path d="M 210.477127 284.052839 
L 210.477127 273.700857 
" clip-path="url(#pa9d0470449)" style="fill: none; stroke: #d3d3d3; stroke-width: 3"/>
    <path d="M 212.742069 231.58976 
L 212.742069 196.018832 
" clip-path="url(#pa9d0470449)" style="fill: none; stroke: #d3d3d3; stroke-width: 3"/>
    <path d="M 212.935833 274.299149 
L 212.935833 210.074684 
" clip-path="url(#pa9d0470449)" style="fill: none; stroke: #d3d3d3; stroke-width: 3"/>
    <path d="M 216.418346 224.725249 
L 216.418346 209.487698 
" clip-path="url(#pa9d0470449)" style="fill: none; stroke: #d3d3d3; stroke-width: 3"/>
    <path d="M 217.148888 279.369803 
L 217.148888 269.083238 
" clip-path="url(#pa9d0470449)" style="fill: none; stroke: #d3d3d3; stroke-width: 3"/>
    <path d="M 223.104072 233.534729 
L 223.104072 172.927765 
" clip-path="url(#pa9d0470449)" style="fill: none; stroke: #d3d3d3; stroke-width: 3"/>
    <path d="M 223.60681 277.064618 
L 223.60681 95.726349 
" clip-path="url(#pa9d0470449)" style="fill: none; stroke: #d3d3d3; stroke-width: 3"/>
    <path d="M 224.282365 228.247027 
L 224.282365 210.111813 
" clip-path="url(#pa9d0470449)" style="fill: none; stroke: #d3d3d3; stroke-width: 3"/>
    <path d="M 227.039573 286.959328 
L 227.039573 281.756221 
" clip-path="url(#pa9d0470449)" style="fill: none; stroke: #d3d3d3; stroke-width: 3"/>
    <path d="M 229.0514 226.706573 
L 229.0514 205.521197 
" clip-path="url(#pa9d0470449)" style="fill: none; stroke: #d3d3d3; stroke-width: 3"/>
    <path d="M 229.655385 210.175939 
L 229.655385 167.364296 
" clip-path="url(#pa9d0470449)" style="fill: none; stroke: #d3d3d3; stroke-width: 3"/>
    <path d="M 229.891916 214.080955 
L 229.891916 208.621848 
" clip-path="url(#pa9d0470449)" style="fill: none; stroke: #d3d3d3; stroke-width: 3"/>
    <path d="M 231.152254 264.775168 
L 231.152254 253.697187 
" clip-path="url(#pa9d0470449)" style="fill: none; stroke: #d3d3d3; stroke-width: 3"/>
    <path d="M 233.01134 267.117828 
L 233.01134 88.723636 
" clip-path="url(#pa9d0470449)" style="fill: none; stroke: #d3d3d3; stroke-width: 3"/>
    <path d="M 237.635488 260.337356 
L 237.635488 226.918193 
" clip-path="url(#pa9d0470449)" style="fill: none; stroke: #d3d3d3; stroke-width: 3"/>
    <path d="M 238.805054 265.484803 
L 238.805054 235.320806 
" clip-path="url(#pa9d0470449)" style="fill: none; stroke: #d3d3d3; stroke-width: 3"/>
    <path d="M 245.551004 268.763054 
L 245.551004 253.326555 
" clip-path="url(#pa9d0470449)" style="fill: none; stroke: #d3d3d3; stroke-width: 3"/>
    <path d="M 246.038032 234.813317 
L 246.038032 216.56375 
" clip-path="url(#pa9d0470449)" style="fill: none; stroke: #d3d3d3; stroke-width: 3"/>
    <path d="M 247.863078 218.236835 
L 247.863078 197.190305 
" clip-path="url(#pa9d0470449)" style="fill: none; stroke: #d3d3d3; stroke-width: 3"/>
    <path d="M 249.820791 246.443118 
L 249.820791 225.783598 
" clip-path="url(#pa9d0470449)" style="fill: none; stroke: #d3d3d3; stroke-width: 3"/>
    <path d="M 254.114145 278.362554 
L 254.114145 197.081828 
" clip-path="url(#pa9d0470449)" style="fill: none; stroke: #d3d3d3; stroke-width: 3"/>
    <path d="M 257.095664 234.998328 
L 257.095664 223.759688 
" clip-path="url(#pa9d0470449)" style="fill: none; stroke: #d3d3d3; stroke-width: 3"/>
    <path d="M 257.699649 269.138043 
L 257.699649 103.914814 
" clip-path="url(#pa9d0470449)" style="fill: none; stroke: #d3d3d3; stroke-width: 3"/>
    <path d="M 258.694653 228.179295 
L 258.694653 195.271936 
" clip-path="url(#pa9d0470449)" style="fill: none; stroke: #d3d3d3; stroke-width: 3"/>
    <path d="M 258.841285 291.129079 
L 258.841285 284.585086 
" clip-path="url(#pa9d0470449)" style="fill: none; stroke: #d3d3d3; stroke-width: 3"/>
    <path d="M 259.322203 262.598111 
L 259.322203 254.207908 
" clip-path="url(#pa9d0470449)" style="fill: none; stroke: #d3d3d3; stroke-width: 3"/>
    <path d="M 259.88342 233.183651 
L 259.88342 210.633008 
" clip-path="url(#pa9d0470449)" style="fill: none; stroke: #d3d3d3; stroke-width: 3"/>
    <path d="M 260.520572 225.63375 
L 260.520572 194.304006 
" clip-path="url(#pa9d0470449)" style="fill: none; stroke: #d3d3d3; stroke-width: 3"/>
    <path d="M 261.471935 247.014493 
L 261.471935 231.148693 
" clip-path="url(#pa9d0470449)" style="fill: none; stroke: #d3d3d3; stroke-width: 3"/>
    <path d="M 262.209459 285.852122 
L 262.209459 278.035323 
" clip-path="url(#pa9d0470449)" style="fill: none; stroke: #d3d3d3; stroke-width: 3"/>
    <path d="M 264.651582 240.615605 
L 264.651582 227.906926 
" clip-path="url(#pa9d0470449)" style="fill: none; stroke: #d3d3d3; stroke-width: 3"/>
    <path d="M 271.115614 237.316112 
L 271.115614 223.550726 
" clip-path="url(#pa9d0470449)" style="fill: none; stroke: #d3d3d3; stroke-width: 3"/>
    <path d="M 275.111339 231.449528 
L 275.111339 217.465232 
" clip-path="url(#pa9d0470449)" style="fill: none; stroke: #d3d3d3; stroke-width: 3"/>
    <path d="M 280.975751 234.581143 
L 280.975751 199.155657 
" clip-path="url(#pa9d0470449)" style="fill: none; stroke: #d3d3d3; stroke-width: 3"/>
    <path d="M 284.780331 217.004037 
L 284.780331 185.246201 
" clip-path="url(#pa9d0470449)" style="fill: none; stroke: #d3d3d3; stroke-width: 3"/>
    <path d="M 284.851028 219.751106 
L 284.851028 199.669019 
" clip-path="url(#pa9d0470449)" style="fill: none; stroke: #d3d3d3; stroke-width: 3"/>
    <path d="M 284.877213 223.925469 
L 284.877213 211.646898 
" clip-path="url(#pa9d0470449)" style="fill: none; stroke: #d3d3d3; stroke-width: 3"/>
    <path d="M 285.112871 248.767708 
L 285.112871 238.709139 
" clip-path="url(#pa9d0470449)" style="fill: none; stroke: #d3d3d3; stroke-width: 3"/>
    <path d="M 286.854128 237.37869 
L 286.854128 226.903484 
" clip-path="url(#pa9d0470449)" style="fill: none; stroke: #d3d3d3; stroke-width: 3"/>
    <path d="M 286.892531 218.488216 
L 286.892531 190.043164 
" clip-path="url(#pa9d0470449)" style="fill: none; stroke: #d3d3d3; stroke-width: 3"/>
    <path d="M 290.31482 291.537138 
L 290.31482 267.166934 
" clip-path="url(#pa9d0470449)" style="fill: none; stroke: #d3d3d3; stroke-width: 3"/>
    <path d="M 292.406073 264.147206 
L 292.406073 239.950767 
" clip-path="url(#pa9d0470449)" style="fill: none; stroke: #d3d3d3; stroke-width: 3"/>
    <path d="M 293.25619 223.13548 
L 293.25619 194.818456 
" clip-path="url(#pa9d0470449)" style="fill: none; stroke: #d3d3d3; stroke-width: 3"/>
    <path d="M 293.488358 256.502563 
L 293.488358 254.542175 
" clip-path="url(#pa9d0470449)" style="fill: none; stroke: #d3d3d3; stroke-width: 3"/>
    <path d="M 294.705055 264.682607 
L 294.705055 220.272428 
" clip-path="url(#pa9d0470449)" style="fill: none; stroke: #d3d3d3; stroke-width: 3"/>
    <path d="M 295.075127 296.229282 
L 295.075127 286.736392 
" clip-path="url(#pa9d0470449)" style="fill: none; stroke: #d3d3d3; stroke-width: 3"/>
    <path d="M 295.679984 290.985685 
L 295.679984 277.788666 
" clip-path="url(#pa9d0470449)" style="fill: none; stroke: #d3d3d3; stroke-width: 3"/>
    <path d="M 295.802178 242.869083 
L 295.802178 231.16886 
" clip-path="url(#pa9d0470449)" style="fill: none; stroke: #d3d3d3; stroke-width: 3"/>
    <path d="M 300.158373 229.315315 
L 300.158373 214.859273 
" clip-path="url(#pa9d0470449)" style="fill: none; stroke: #d3d3d3; stroke-width: 3"/>
    <path d="M 301.179561 202.614663 
L 301.179561 185.384034 
" clip-path="url(#pa9d0470449)" style="fill: none; stroke: #d3d3d3; stroke-width: 3"/>
    <path d="M 302.482667 244.607033 
L 302.482667 242.556101 
" clip-path="url(#pa9d0470449)" style="fill: none; stroke: #d3d3d3; stroke-width: 3"/>
    <path d="M 302.939147 220.05327 
L 302.939147 182.781158 
" clip-path="url(#pa9d0470449)" style="fill: none; stroke: #d3d3d3; stroke-width: 3"/>
    <path d="M 305.744359 240.754345 
L 305.744359 228.396305 
" clip-path="url(#pa9d0470449)" style="fill: none; stroke: #d3d3d3; stroke-width: 3"/>
    <path d="M 307.085868 249.0389 
L 307.085868 58.84801 
" clip-path="url(#pa9d0470449)" style="fill: none; stroke: #d3d3d3; stroke-width: 3"/>
    <path d="M 310.295191 288.986498 
L 310.295191 282.550205 
" clip-path="url(#pa9d0470449)" style="fill: none; stroke: #d3d3d3; stroke-width: 3"/>
    <path d="M 311.118251 230.156411 
L 311.118251 196.929523 
" clip-path="url(#pa9d0470449)" style="fill: none; stroke: #d3d3d3; stroke-width: 3"/>
    <path d="M 313.393667 280.556009 
L 313.393667 237.789959 
" clip-path="url(#pa9d0470449)" style="fill: none; stroke: #d3d3d3; stroke-width: 3"/>
    <path d="M 314.178323 246.213919 
L 314.178323 222.976395 
" clip-path="url(#pa9d0470449)" style="fill: none; stroke: #d3d3d3; stroke-width: 3"/>
    <path d="M 315.950128 283.206765 
L 315.950128 275.720565 
" clip-path="url(#pa9d0470449)" style="fill: none; stroke: #d3d3d3; stroke-width: 3"/>
    <path d="M 325.857397 214.138109 
L 325.857397 207.007693 
" clip-path="url(#pa9d0470449)" style="fill: none; stroke: #d3d3d3; stroke-width: 3"/>
    <path d="M 330.91795 281.396224 
L 330.91795 271.953662 
" clip-path="url(#pa9d0470449)" style="fill: none; stroke: #d3d3d3; stroke-width: 3"/>
    <path d="M 332.427912 233.637089 
L 332.427912 203.40682 
" clip-path="url(#pa9d0470449)" style="fill: none; stroke: #d3d3d3; stroke-width: 3"/>
    <path d="M 332.605965 236.87269 
L 332.605965 215.004658 
" clip-path="url(#pa9d0470449)" style="fill: none; stroke: #d3d3d3; stroke-width: 3"/>
    <path d="M 334.937241 241.916677 
L 334.937241 201.221612 
" clip-path="url(#pa9d0470449)" style="fill: none; stroke: #d3d3d3; stroke-width: 3"/>
    <path d="M 335.958429 224.72584 
L 335.958429 209.903745 
" clip-path="url(#pa9d0470449)" style="fill: none; stroke: #d3d3d3; stroke-width: 3"/>
    <path d="M 337.299065 296.216214 
L 337.299065 269.983938 
" clip-path="url(#pa9d0470449)" style="fill: none; stroke: #d3d3d3; stroke-width: 3"/>
    <path d="M 337.846317 214.781108 
L 337.846317 194.161497 
" clip-path="url(#pa9d0470449)" style="fill: none; stroke: #d3d3d3; stroke-width: 3"/>
    <path d="M 348.007574 238.598954 
L 348.007574 167.870168 
" clip-path="url(#pa9d0470449)" style="fill: none; stroke: #d3d3d3; stroke-width: 3"/>
    <path d="M 357.019339 245.354999 
L 357.019339 233.067864 
" clip-path="url(#pa9d0470449)" style="fill: none; stroke: #d3d3d3; stroke-width: 3"/>
    <path d="M 359.048622 259.721206 
L 359.048622 249.047204 
" clip-path="url(#pa9d0470449)" style="fill: none; stroke: #d3d3d3; stroke-width: 3"/>
    <path d="M 372.694137 291.257193 
L 372.694137 286.696342 
" clip-path="url(#pa9d0470449)" style="fill: none; stroke: #d3d3d3; stroke-width: 3"/>
    <path d="M 374.304472 240.140558 
L 374.304472 230.5698 
" clip-path="url(#pa9d0470449)" style="fill: none; stroke: #d3d3d3; stroke-width: 3"/>
    <path d="M 376.53101 238.974101 
L 376.53101 202.901028 
" clip-path="url(#pa9d0470449)" style="fill: none; stroke: #d3d3d3; stroke-width: 3"/>
    <path d="M 387.695998 243.492983 
L 387.695998 207.391431 
" clip-path="url(#pa9d0470449)" style="fill: none; stroke: #d3d3d3; stroke-width: 3"/>
    <path d="M 398.521027 270.71425 
L 398.521027 266.548803 
" clip-path="url(#pa9d0470449)" style="fill: none; stroke: #d3d3d3; stroke-width: 3"/>
    <path d="M 400.580684 229.89574 
L 400.580684 221.457161 
" clip-path="url(#pa9d0470449)" style="fill: none; stroke: #d3d3d3; stroke-width: 3"/>
    <path d="M 417.602665 218.041485 
L 417.602665 188.973527 
" clip-path="url(#pa9d0470449)" style="fill: none; stroke: #d3d3d3; stroke-width: 3"/>
    <path d="M 419.285705 295.185384 
L 419.285705 281.189407 
" clip-path="url(#pa9d0470449)" style="fill: none; stroke: #d3d3d3; stroke-width: 3"/>
    <path d="M 427.949481 227.326093 
L 427.949481 200.068206 
" clip-path="url(#pa9d0470449)" style="fill: none; stroke: #d3d3d3; stroke-width: 3"/>
    <path d="M 431.719148 231.705992 
L 431.719148 212.214366 
" clip-path="url(#pa9d0470449)" style="fill: none; stroke: #d3d3d3; stroke-width: 3"/>
   </g>
   <g id="line2d_11">
    <path d="M 66.102102 221.028294 
L 81.811813 221.883766 
L 131.97396 224.615344 
L 134.146384 224.733644 
L 139.343969 225.016678 
L 147.501253 225.460883 
L 155.796441 225.912597 
L 166.667292 226.504569 
L 177.691758 227.104906 
L 184.674239 227.485137 
L 186.375346 227.57777 
L 188.008374 227.666697 
L 190.883411 227.823257 
L 198.907155 228.26019 
L 203.883046 228.531152 
L 205.811956 228.636191 
L 206.604468 228.679347 
L 206.683894 228.683672 
L 210.477127 228.890232 
L 212.742069 229.01357 
L 212.935833 229.024121 
L 216.418346 229.213761 
L 217.148888 229.253543 
L 223.104072 229.577832 
L 223.60681 229.605209 
L 224.282365 229.641996 
L 227.039573 229.79214 
L 229.0514 229.901694 
L 229.655385 229.934584 
L 229.891916 229.947464 
L 231.152254 230.016096 
L 233.01134 230.117332 
L 237.635488 230.36914 
L 238.805054 230.432829 
L 245.551004 230.800179 
L 246.038032 230.826701 
L 247.863078 230.926083 
L 249.820791 231.032691 
L 254.114145 231.266485 
L 257.095664 231.428844 
L 257.699649 231.461734 
L 258.694653 231.515916 
L 258.841285 231.523901 
L 259.322203 231.55009 
L 259.88342 231.580651 
L 260.520572 231.615347 
L 261.471935 231.667153 
L 262.209459 231.707315 
L 264.651582 231.840301 
L 271.115614 232.1923 
L 275.111339 232.409887 
L 280.975751 232.729233 
L 284.780331 232.936411 
L 284.851028 232.940261 
L 284.877213 232.941687 
L 285.112871 232.95452 
L 286.854128 233.04934 
L 286.892531 233.051431 
L 290.31482 233.237792 
L 292.406073 233.351671 
L 293.25619 233.397964 
L 293.488358 233.410607 
L 294.705055 233.476862 
L 295.075127 233.497014 
L 295.679984 233.529952 
L 295.802178 233.536606 
L 300.158373 233.773822 
L 301.179561 233.829431 
L 302.482667 233.900392 
L 302.939147 233.925249 
L 305.744359 234.078007 
L 307.085868 234.151059 
L 310.295191 234.325823 
L 311.118251 234.370642 
L 313.393667 234.49455 
L 314.178323 234.537278 
L 315.950128 234.633762 
L 325.857397 235.173262 
L 330.91795 235.448834 
L 332.427912 235.531059 
L 332.605965 235.540755 
L 334.937241 235.667705 
L 335.958429 235.723313 
L 337.299065 235.796318 
L 337.846317 235.826118 
L 348.007574 236.379449 
L 357.019339 236.870185 
L 359.048622 236.980689 
L 372.694137 237.723756 
L 374.304472 237.811446 
L 376.53101 237.932692 
L 387.695998 238.540682 
L 398.521027 239.130158 
L 400.580684 239.242317 
L 417.602665 240.169248 
L 419.285705 240.260898 
L 427.949481 240.732684 
L 431.719148 240.937961 
" clip-path="url(#pa9d0470449)" style="fill: none; stroke: #1f77b4; stroke-width: 1.5; stroke-linecap: square"/>
   </g>
   <g id="line2d_12">
    <defs>
     <path id="m7aac3ce6d8" d="M 0 3 
C 0.795609 3 1.55874 2.683901 2.12132 2.12132 
C 2.683901 1.55874 3 0.795609 3 0 
C 3 -0.795609 2.683901 -1.55874 2.12132 -2.12132 
C 1.55874 -2.683901 0.795609 -3 0 -3 
C -0.795609 -3 -1.55874 -2.683901 -2.12132 -2.12132 
C -2.683901 -1.55874 -3 -0.795609 -3 0 
C -3 0.795609 -2.683901 1.55874 -2.12132 2.12132 
C -1.55874 2.683901 -0.795609 3 0 3 
z
" style="stroke: #000000"/>
    </defs>
    <g clip-path="url(#pa9d0470449)">
     <use xlink:href="#m7aac3ce6d8" x="66.102102" y="215.510454" style="stroke: #000000"/>
     <use xlink:href="#m7aac3ce6d8" x="81.811813" y="246.890492" style="stroke: #000000"/>
     <use xlink:href="#m7aac3ce6d8" x="131.97396" y="203.056259" style="stroke: #000000"/>
     <use xlink:href="#m7aac3ce6d8" x="134.146384" y="217.414855" style="stroke: #000000"/>
     <use xlink:href="#m7aac3ce6d8" x="139.343969" y="200.586731" style="stroke: #000000"/>
     <use xlink:href="#m7aac3ce6d8" x="147.501253" y="221.09153" style="stroke: #000000"/>
     <use xlink:href="#m7aac3ce6d8" x="155.796441" y="207.619401" style="stroke: #000000"/>
     <use xlink:href="#m7aac3ce6d8" x="166.667292" y="192.97505" style="stroke: #000000"/>
     <use xlink:href="#m7aac3ce6d8" x="177.691758" y="236.345324" style="stroke: #000000"/>
     <use xlink:href="#m7aac3ce6d8" x="184.674239" y="284.273759" style="stroke: #000000"/>
     <use xlink:href="#m7aac3ce6d8" x="186.375346" y="249.860066" style="stroke: #000000"/>
     <use xlink:href="#m7aac3ce6d8" x="188.008374" y="228.335339" style="stroke: #000000"/>
     <use xlink:href="#m7aac3ce6d8" x="190.883411" y="233.848453" style="stroke: #000000"/>
     <use xlink:href="#m7aac3ce6d8" x="198.907155" y="223.427371" style="stroke: #000000"/>
     <use xlink:href="#m7aac3ce6d8" x="203.883046" y="207.842769" style="stroke: #000000"/>
     <use xlink:href="#m7aac3ce6d8" x="205.811956" y="253.595296" style="stroke: #000000"/>
     <use xlink:href="#m7aac3ce6d8" x="206.604468" y="222.326755" style="stroke: #000000"/>
     <use xlink:href="#m7aac3ce6d8" x="206.683894" y="204.731085" style="stroke: #000000"/>
     <use xlink:href="#m7aac3ce6d8" x="210.477127" y="278.876848" style="stroke: #000000"/>
     <use xlink:href="#m7aac3ce6d8" x="212.742069" y="213.804296" style="stroke: #000000"/>
     <use xlink:href="#m7aac3ce6d8" x="212.935833" y="242.186916" style="stroke: #000000"/>
     <use xlink:href="#m7aac3ce6d8" x="216.418346" y="217.106473" style="stroke: #000000"/>
     <use xlink:href="#m7aac3ce6d8" x="217.148888" y="274.226521" style="stroke: #000000"/>
     <use xlink:href="#m7aac3ce6d8" x="223.104072" y="203.231247" style="stroke: #000000"/>
     <use xlink:href="#m7aac3ce6d8" x="223.60681" y="186.395484" style="stroke: #000000"/>
     <use xlink:href="#m7aac3ce6d8" x="224.282365" y="219.17942" style="stroke: #000000"/>
     <use xlink:href="#m7aac3ce6d8" x="227.039573" y="284.357774" style="stroke: #000000"/>
     <use xlink:href="#m7aac3ce6d8" x="229.0514" y="216.113885" style="stroke: #000000"/>
     <use xlink:href="#m7aac3ce6d8" x="229.655385" y="188.770118" style="stroke: #000000"/>
     <use xlink:href="#m7aac3ce6d8" x="229.891916" y="211.351401" style="stroke: #000000"/>
     <use xlink:href="#m7aac3ce6d8" x="231.152254" y="259.236178" style="stroke: #000000"/>
     <use xlink:href="#m7aac3ce6d8" x="233.01134" y="177.920732" style="stroke: #000000"/>
     <use xlink:href="#m7aac3ce6d8" x="237.635488" y="243.627774" style="stroke: #000000"/>
     <use xlink:href="#m7aac3ce6d8" x="238.805054" y="250.402804" style="stroke: #000000"/>
     <use xlink:href="#m7aac3ce6d8" x="245.551004" y="261.044804" style="stroke: #000000"/>
     <use xlink:href="#m7aac3ce6d8" x="246.038032" y="225.688534" style="stroke: #000000"/>
     <use xlink:href="#m7aac3ce6d8" x="247.863078" y="207.71357" style="stroke: #000000"/>
     <use xlink:href="#m7aac3ce6d8" x="249.820791" y="236.113358" style="stroke: #000000"/>
     <use xlink:href="#m7aac3ce6d8" x="254.114145" y="237.722191" style="stroke: #000000"/>
     <use xlink:href="#m7aac3ce6d8" x="257.095664" y="229.379008" style="stroke: #000000"/>
     <use xlink:href="#m7aac3ce6d8" x="257.699649" y="186.526429" style="stroke: #000000"/>
     <use xlink:href="#m7aac3ce6d8" x="258.694653" y="211.725616" style="stroke: #000000"/>
     <use xlink:href="#m7aac3ce6d8" x="258.841285" y="287.857083" style="stroke: #000000"/>
     <use xlink:href="#m7aac3ce6d8" x="259.322203" y="258.403009" style="stroke: #000000"/>
     <use xlink:href="#m7aac3ce6d8" x="259.88342" y="221.908329" style="stroke: #000000"/>
     <use xlink:href="#m7aac3ce6d8" x="260.520572" y="209.968878" style="stroke: #000000"/>
     <use xlink:href="#m7aac3ce6d8" x="261.471935" y="239.081593" style="stroke: #000000"/>
     <use xlink:href="#m7aac3ce6d8" x="262.209459" y="281.943722" style="stroke: #000000"/>
     <use xlink:href="#m7aac3ce6d8" x="264.651582" y="234.261265" style="stroke: #000000"/>
     <use xlink:href="#m7aac3ce6d8" x="271.115614" y="230.433419" style="stroke: #000000"/>
     <use xlink:href="#m7aac3ce6d8" x="275.111339" y="224.45738" style="stroke: #000000"/>
     <use xlink:href="#m7aac3ce6d8" x="280.975751" y="216.8684" style="stroke: #000000"/>
     <use xlink:href="#m7aac3ce6d8" x="284.780331" y="201.125119" style="stroke: #000000"/>
     <use xlink:href="#m7aac3ce6d8" x="284.851028" y="209.710063" style="stroke: #000000"/>
     <use xlink:href="#m7aac3ce6d8" x="284.877213" y="217.786184" style="stroke: #000000"/>
     <use xlink:href="#m7aac3ce6d8" x="285.112871" y="243.738424" style="stroke: #000000"/>
     <use xlink:href="#m7aac3ce6d8" x="286.854128" y="232.141087" style="stroke: #000000"/>
     <use xlink:href="#m7aac3ce6d8" x="286.892531" y="204.26569" style="stroke: #000000"/>
     <use xlink:href="#m7aac3ce6d8" x="290.31482" y="279.352036" style="stroke: #000000"/>
     <use xlink:href="#m7aac3ce6d8" x="292.406073" y="252.048987" style="stroke: #000000"/>
     <use xlink:href="#m7aac3ce6d8" x="293.25619" y="208.976968" style="stroke: #000000"/>
     <use xlink:href="#m7aac3ce6d8" x="293.488358" y="255.522369" style="stroke: #000000"/>
     <use xlink:href="#m7aac3ce6d8" x="294.705055" y="242.477518" style="stroke: #000000"/>
     <use xlink:href="#m7aac3ce6d8" x="295.075127" y="291.482837" style="stroke: #000000"/>
     <use xlink:href="#m7aac3ce6d8" x="295.679984" y="284.387176" style="stroke: #000000"/>
     <use xlink:href="#m7aac3ce6d8" x="295.802178" y="237.018971" style="stroke: #000000"/>
     <use xlink:href="#m7aac3ce6d8" x="300.158373" y="222.087294" style="stroke: #000000"/>
     <use xlink:href="#m7aac3ce6d8" x="301.179561" y="193.999348" style="stroke: #000000"/>
     <use xlink:href="#m7aac3ce6d8" x="302.482667" y="243.581567" style="stroke: #000000"/>
     <use xlink:href="#m7aac3ce6d8" x="302.939147" y="201.417214" style="stroke: #000000"/>
     <use xlink:href="#m7aac3ce6d8" x="305.744359" y="234.575325" style="stroke: #000000"/>
     <use xlink:href="#m7aac3ce6d8" x="307.085868" y="153.943455" style="stroke: #000000"/>
     <use xlink:href="#m7aac3ce6d8" x="310.295191" y="285.768351" style="stroke: #000000"/>
     <use xlink:href="#m7aac3ce6d8" x="311.118251" y="213.542967" style="stroke: #000000"/>
     <use xlink:href="#m7aac3ce6d8" x="313.393667" y="259.172984" style="stroke: #000000"/>
     <use xlink:href="#m7aac3ce6d8" x="314.178323" y="234.595157" style="stroke: #000000"/>
     <use xlink:href="#m7aac3ce6d8" x="315.950128" y="279.463665" style="stroke: #000000"/>
     <use xlink:href="#m7aac3ce6d8" x="325.857397" y="210.572901" style="stroke: #000000"/>
     <use xlink:href="#m7aac3ce6d8" x="330.91795" y="276.674943" style="stroke: #000000"/>
     <use xlink:href="#m7aac3ce6d8" x="332.427912" y="218.521955" style="stroke: #000000"/>
     <use xlink:href="#m7aac3ce6d8" x="332.605965" y="225.938674" style="stroke: #000000"/>
     <use xlink:href="#m7aac3ce6d8" x="334.937241" y="221.569145" style="stroke: #000000"/>
     <use xlink:href="#m7aac3ce6d8" x="335.958429" y="217.314792" style="stroke: #000000"/>
     <use xlink:href="#m7aac3ce6d8" x="337.299065" y="283.100076" style="stroke: #000000"/>
     <use xlink:href="#m7aac3ce6d8" x="337.846317" y="204.471303" style="stroke: #000000"/>
     <use xlink:href="#m7aac3ce6d8" x="348.007574" y="203.234561" style="stroke: #000000"/>
     <use xlink:href="#m7aac3ce6d8" x="357.019339" y="239.211431" style="stroke: #000000"/>
     <use xlink:href="#m7aac3ce6d8" x="359.048622" y="254.384205" style="stroke: #000000"/>
     <use xlink:href="#m7aac3ce6d8" x="372.694137" y="288.976768" style="stroke: #000000"/>
     <use xlink:href="#m7aac3ce6d8" x="374.304472" y="235.355179" style="stroke: #000000"/>
     <use xlink:href="#m7aac3ce6d8" x="376.53101" y="220.937564" style="stroke: #000000"/>
     <use xlink:href="#m7aac3ce6d8" x="387.695998" y="225.442207" style="stroke: #000000"/>
     <use xlink:href="#m7aac3ce6d8" x="398.521027" y="268.631526" style="stroke: #000000"/>
     <use xlink:href="#m7aac3ce6d8" x="400.580684" y="225.67645" style="stroke: #000000"/>
     <use xlink:href="#m7aac3ce6d8" x="417.602665" y="203.507506" style="stroke: #000000"/>
     <use xlink:href="#m7aac3ce6d8" x="419.285705" y="288.187395" style="stroke: #000000"/>
     <use xlink:href="#m7aac3ce6d8" x="427.949481" y="213.697149" style="stroke: #000000"/>
     <use xlink:href="#m7aac3ce6d8" x="431.719148" y="221.960179" style="stroke: #000000"/>
    </g>
   </g>
   <g id="patch_3">
    <path d="M 47.82125 303.64 
L 47.82125 46.543987 
" style="fill: none; stroke: #000000; stroke-width: 0.8; stroke-linejoin: miter; stroke-linecap: square"/>
   </g>
   <g id="patch_4">
    <path d="M 450 303.64 
L 450 46.543987 
" style="fill: none; stroke: #000000; stroke-width: 0.8; stroke-linejoin: miter; stroke-linecap: square"/>
   </g>
   <g id="patch_5">
    <path d="M 47.82125 303.64 
L 450 303.64 
" style="fill: none; stroke: #000000; stroke-width: 0.8; stroke-linejoin: miter; stroke-linecap: square"/>
   </g>
   <g id="patch_6">
    <path d="M 47.82125 46.543987 
L 450 46.543987 
" style="fill: none; stroke: #000000; stroke-width: 0.8; stroke-linejoin: miter; stroke-linecap: square"/>
   </g>
   <g id="text_13">
    <!-- y = -0.01x + 0.70 -->
    <g transform="translate(43.314906 18.451841)scale(0.1 -0.1)">
     <defs>
      <path id="DejaVuSans-79" d="M 2059 -325 
Q 1816 -950 1584 -1140 
Q 1353 -1331 966 -1331 
L 506 -1331 
L 506 -850 
L 844 -850 
Q 1081 -850 1212 -737 
Q 1344 -625 1503 -206 
L 1606 56 
L 191 3500 
L 800 3500 
L 1894 763 
L 2988 3500 
L 3597 3500 
L 2059 -325 
z
" transform="scale(0.015625)"/>
      <path id="DejaVuSans-20" transform="scale(0.015625)"/>
      <path id="DejaVuSans-3d" d="M 678 2906 
L 4684 2906 
L 4684 2381 
L 678 2381 
L 678 2906 
z
M 678 1631 
L 4684 1631 
L 4684 1100 
L 678 1100 
L 678 1631 
z
" transform="scale(0.015625)"/>
      <path id="DejaVuSans-2d" d="M 313 2009 
L 1997 2009 
L 1997 1497 
L 313 1497 
L 313 2009 
z
" transform="scale(0.015625)"/>
      <path id="DejaVuSans-78" d="M 3513 3500 
L 2247 1797 
L 3578 0 
L 2900 0 
L 1881 1375 
L 863 0 
L 184 0 
L 1544 1831 
L 300 3500 
L 978 3500 
L 1906 2253 
L 2834 3500 
L 3513 3500 
z
" transform="scale(0.015625)"/>
      <path id="DejaVuSans-2b" d="M 2944 4013 
L 2944 2272 
L 4684 2272 
L 4684 1741 
L 2944 1741 
L 2944 0 
L 2419 0 
L 2419 1741 
L 678 1741 
L 678 2272 
L 2419 2272 
L 2419 4013 
L 2944 4013 
z
" transform="scale(0.015625)"/>
      <path id="DejaVuSans-37" d="M 525 4666 
L 3525 4666 
L 3525 4397 
L 1831 0 
L 1172 0 
L 2766 4134 
L 525 4134 
L 525 4666 
z
" transform="scale(0.015625)"/>
     </defs>
     <use xlink:href="#DejaVuSans-79"/>
     <use xlink:href="#DejaVuSans-20" x="59.179688"/>
     <use xlink:href="#DejaVuSans-3d" x="90.966797"/>
     <use xlink:href="#DejaVuSans-20" x="174.755859"/>
     <use xlink:href="#DejaVuSans-2d" x="206.542969"/>
     <use xlink:href="#DejaVuSans-30" x="242.626953"/>
     <use xlink:href="#DejaVuSans-2e" x="306.25"/>
     <use xlink:href="#DejaVuSans-30" x="338.037109"/>
     <use xlink:href="#DejaVuSans-31" x="401.660156"/>
     <use xlink:href="#DejaVuSans-78" x="465.283203"/>
     <use xlink:href="#DejaVuSans-20" x="524.462891"/>
     <use xlink:href="#DejaVuSans-2b" x="556.25"/>
     <use xlink:href="#DejaVuSans-20" x="640.039062"/>
     <use xlink:href="#DejaVuSans-30" x="671.826172"/>
     <use xlink:href="#DejaVuSans-2e" x="735.449219"/>
     <use xlink:href="#DejaVuSans-37" x="767.236328"/>
     <use xlink:href="#DejaVuSans-30" x="830.859375"/>
    </g>
   </g>
   <g id="text_14">
    <!-- r^2 = 0.02 -->
    <g transform="translate(60.111781 26.164721)scale(0.1 -0.1)">
     <defs>
      <path id="DejaVuSans-5e" d="M 2988 4666 
L 4684 2925 
L 4056 2925 
L 2681 4159 
L 1306 2925 
L 678 2925 
L 2375 4666 
L 2988 4666 
z
" transform="scale(0.015625)"/>
     </defs>
     <use xlink:href="#DejaVuSans-72"/>
     <use xlink:href="#DejaVuSans-5e" x="41.113281"/>
     <use xlink:href="#DejaVuSans-32" x="124.902344"/>
     <use xlink:href="#DejaVuSans-20" x="188.525391"/>
     <use xlink:href="#DejaVuSans-3d" x="220.3125"/>
     <use xlink:href="#DejaVuSans-20" x="304.101562"/>
     <use xlink:href="#DejaVuSans-30" x="335.888672"/>
     <use xlink:href="#DejaVuSans-2e" x="399.511719"/>
     <use xlink:href="#DejaVuSans-30" x="431.298828"/>
     <use xlink:href="#DejaVuSans-32" x="494.921875"/>
    </g>
   </g>
   <g id="text_15">
    <!-- n = 98 -->
    <g transform="translate(71.139906 33.877601)scale(0.1 -0.1)">
     <defs>
      <path id="DejaVuSans-39" d="M 703 97 
L 703 672 
Q 941 559 1184 500 
Q 1428 441 1663 441 
Q 2288 441 2617 861 
Q 2947 1281 2994 2138 
Q 2813 1869 2534 1725 
Q 2256 1581 1919 1581 
Q 1219 1581 811 2004 
Q 403 2428 403 3163 
Q 403 3881 828 4315 
Q 1253 4750 1959 4750 
Q 2769 4750 3195 4129 
Q 3622 3509 3622 2328 
Q 3622 1225 3098 567 
Q 2575 -91 1691 -91 
Q 1453 -91 1209 -44 
Q 966 3 703 97 
z
M 1959 2075 
Q 2384 2075 2632 2365 
Q 2881 2656 2881 3163 
Q 2881 3666 2632 3958 
Q 2384 4250 1959 4250 
Q 1534 4250 1286 3958 
Q 1038 3666 1038 3163 
Q 1038 2656 1286 2365 
Q 1534 2075 1959 2075 
z
" transform="scale(0.015625)"/>
      <path id="DejaVuSans-38" d="M 2034 2216 
Q 1584 2216 1326 1975 
Q 1069 1734 1069 1313 
Q 1069 891 1326 650 
Q 1584 409 2034 409 
Q 2484 409 2743 651 
Q 3003 894 3003 1313 
Q 3003 1734 2745 1975 
Q 2488 2216 2034 2216 
z
M 1403 2484 
Q 997 2584 770 2862 
Q 544 3141 544 3541 
Q 544 4100 942 4425 
Q 1341 4750 2034 4750 
Q 2731 4750 3128 4425 
Q 3525 4100 3525 3541 
Q 3525 3141 3298 2862 
Q 3072 2584 2669 2484 
Q 3125 2378 3379 2068 
Q 3634 1759 3634 1313 
Q 3634 634 3220 271 
Q 2806 -91 2034 -91 
Q 1263 -91 848 271 
Q 434 634 434 1313 
Q 434 1759 690 2068 
Q 947 2378 1403 2484 
z
M 1172 3481 
Q 1172 3119 1398 2916 
Q 1625 2713 2034 2713 
Q 2441 2713 2670 2916 
Q 2900 3119 2900 3481 
Q 2900 3844 2670 4047 
Q 2441 4250 2034 4250 
Q 1625 4250 1398 4047 
Q 1172 3844 1172 3481 
z
" transform="scale(0.015625)"/>
     </defs>
     <use xlink:href="#DejaVuSans-6e"/>
     <use xlink:href="#DejaVuSans-20" x="63.378906"/>
     <use xlink:href="#DejaVuSans-3d" x="95.166016"/>
     <use xlink:href="#DejaVuSans-20" x="178.955078"/>
     <use xlink:href="#DejaVuSans-39" x="210.742188"/>
     <use xlink:href="#DejaVuSans-38" x="274.365234"/>
    </g>
   </g>
   <g id="text_16">
    <!-- Total vs PercentGpA_transformed -->
    <g transform="translate(149.362188 40.543987)scale(0.12 -0.12)">
     <defs>
      <path id="DejaVuSans-76" d="M 191 3500 
L 800 3500 
L 1894 563 
L 2988 3500 
L 3597 3500 
L 2284 0 
L 1503 0 
L 191 3500 
z
" transform="scale(0.015625)"/>
     </defs>
     <use xlink:href="#DejaVuSans-54"/>
     <use xlink:href="#DejaVuSans-6f" x="44.083984"/>
     <use xlink:href="#DejaVuSans-74" x="105.265625"/>
     <use xlink:href="#DejaVuSans-61" x="144.474609"/>
     <use xlink:href="#DejaVuSans-6c" x="205.753906"/>
     <use xlink:href="#DejaVuSans-20" x="233.537109"/>
     <use xlink:href="#DejaVuSans-76" x="265.324219"/>
     <use xlink:href="#DejaVuSans-73" x="324.503906"/>
     <use xlink:href="#DejaVuSans-20" x="376.603516"/>
     <use xlink:href="#DejaVuSans-50" x="408.390625"/>
     <use xlink:href="#DejaVuSans-65" x="465.068359"/>
     <use xlink:href="#DejaVuSans-72" x="526.591797"/>
     <use xlink:href="#DejaVuSans-63" x="565.455078"/>
     <use xlink:href="#DejaVuSans-65" x="620.435547"/>
     <use xlink:href="#DejaVuSans-6e" x="681.958984"/>
     <use xlink:href="#DejaVuSans-74" x="745.337891"/>
     <use xlink:href="#DejaVuSans-47" x="784.546875"/>
     <use xlink:href="#DejaVuSans-70" x="862.037109"/>
     <use xlink:href="#DejaVuSans-41" x="925.513672"/>
     <use xlink:href="#DejaVuSans-5f" x="993.921875"/>
     <use xlink:href="#DejaVuSans-74" x="1043.921875"/>
     <use xlink:href="#DejaVuSans-72" x="1083.130859"/>
     <use xlink:href="#DejaVuSans-61" x="1124.244141"/>
     <use xlink:href="#DejaVuSans-6e" x="1185.523438"/>
     <use xlink:href="#DejaVuSans-73" x="1248.902344"/>
     <use xlink:href="#DejaVuSans-66" x="1301.001953"/>
     <use xlink:href="#DejaVuSans-6f" x="1336.207031"/>
     <use xlink:href="#DejaVuSans-72" x="1397.388672"/>
     <use xlink:href="#DejaVuSans-6d" x="1436.751953"/>
     <use xlink:href="#DejaVuSans-65" x="1534.164062"/>
     <use xlink:href="#DejaVuSans-64" x="1595.6875"/>
    </g>
   </g>
  </g>
 </g>
 <defs>
  <clipPath id="pa9d0470449">
   <rect x="47.82125" y="46.543987" width="402.17875" height="257.096013"/>
  </clipPath>
 </defs>
</svg>
