<?xml version="1.0" encoding="utf-8" standalone="no"?>
<!DOCTYPE svg PUBLIC "-//W3C//DTD SVG 1.1//EN"
  "http://www.w3.org/Graphics/SVG/1.1/DTD/svg11.dtd">
<svg xmlns:xlink="http://www.w3.org/1999/xlink" width="460.8pt" height="345.6pt" viewBox="0 0 460.8 345.6" xmlns="http://www.w3.org/2000/svg" version="1.1">
 <metadata>
  <rdf:RDF xmlns:dc="http://purl.org/dc/elements/1.1/" xmlns:cc="http://creativecommons.org/ns#" xmlns:rdf="http://www.w3.org/1999/02/22-rdf-syntax-ns#">
   <cc:Work>
    <dc:type rdf:resource="http://purl.org/dc/dcmitype/StillImage"/>
    <dc:date>2024-02-20T13:07:05.507936</dc:date>
    <dc:format>image/svg+xml</dc:format>
    <dc:creator>
     <cc:Agent>
      <dc:title>Matplotlib v3.7.1, https://matplotlib.org/</dc:title>
     </cc:Agent>
    </dc:creator>
   </cc:Work>
  </rdf:RDF>
 </metadata>
 <defs>
  <style type="text/css">*{stroke-linejoin: round; stroke-linecap: butt}</style>
 </defs>
 <g id="figure_1">
  <g id="patch_1">
   <path d="M 0 345.6 
L 460.8 345.6 
L 460.8 0 
L 0 0 
z
" style="fill: #ffffff"/>
  </g>
  <g id="axes_1">
   <g id="patch_2">
    <path d="M 47.72 303.64 
L 450 303.64 
L 450 268.002909 
L 47.72 268.002909 
z
" style="fill: #ffffff"/>
   </g>
   <g id="matplotlib.axis_1">
    <g id="xtick_1">
     <g id="text_1">
      <!-- AI -->
      <g style="fill: #262626" transform="translate(143.394688 318.238437) scale(0.1 -0.1)">
       <defs>
        <path id="DejaVuSans-41" d="M 2188 4044 
L 1331 1722 
L 3047 1722 
L 2188 4044 
z
M 1831 4666 
L 2547 4666 
L 4325 0 
L 3669 0 
L 3244 1197 
L 1141 1197 
L 716 0 
L 50 0 
L 1831 4666 
z
" transform="scale(0.015625)"/>
        <path id="DejaVuSans-49" d="M 628 4666 
L 1259 4666 
L 1259 0 
L 628 0 
L 628 4666 
z
" transform="scale(0.015625)"/>
       </defs>
       <use xlink:href="#DejaVuSans-41"/>
       <use xlink:href="#DejaVuSans-49" x="68.408203"/>
      </g>
     </g>
    </g>
    <g id="xtick_2">
     <g id="text_2">
      <!-- FA -->
      <g style="fill: #262626" transform="translate(343.590156 318.238437) scale(0.1 -0.1)">
       <defs>
        <path id="DejaVuSans-46" d="M 628 4666 
L 3309 4666 
L 3309 4134 
L 1259 4134 
L 1259 2759 
L 3109 2759 
L 3109 2228 
L 1259 2228 
L 1259 0 
L 628 0 
L 628 4666 
z
" transform="scale(0.015625)"/>
       </defs>
       <use xlink:href="#DejaVuSans-46"/>
       <use xlink:href="#DejaVuSans-41" x="48.394531"/>
      </g>
     </g>
    </g>
    <g id="text_3">
     <!-- WT_MUT -->
     <g style="fill: #262626" transform="translate(227.335 331.638437) scale(0.1 -0.1)">
      <defs>
       <path id="DejaVuSans-57" d="M 213 4666 
L 850 4666 
L 1831 722 
L 2809 4666 
L 3519 4666 
L 4500 722 
L 5478 4666 
L 6119 4666 
L 4947 0 
L 4153 0 
L 3169 4050 
L 2175 0 
L 1381 0 
L 213 4666 
z
" transform="scale(0.015625)"/>
       <path id="DejaVuSans-54" d="M -19 4666 
L 3928 4666 
L 3928 4134 
L 2272 4134 
L 2272 0 
L 1638 0 
L 1638 4134 
L -19 4134 
L -19 4666 
z
" transform="scale(0.015625)"/>
       <path id="DejaVuSans-5f" d="M 3263 -1063 
L 3263 -1509 
L -63 -1509 
L -63 -1063 
L 3263 -1063 
z
" transform="scale(0.015625)"/>
       <path id="DejaVuSans-4d" d="M 628 4666 
L 1569 4666 
L 2759 1491 
L 3956 4666 
L 4897 4666 
L 4897 0 
L 4281 0 
L 4281 4097 
L 3078 897 
L 2444 897 
L 1241 4097 
L 1241 0 
L 628 0 
L 628 4666 
z
" transform="scale(0.015625)"/>
       <path id="DejaVuSans-55" d="M 556 4666 
L 1191 4666 
L 1191 1831 
Q 1191 1081 1462 751 
Q 1734 422 2344 422 
Q 2950 422 3222 751 
Q 3494 1081 3494 1831 
L 3494 4666 
L 4128 4666 
L 4128 1753 
Q 4128 841 3676 375 
Q 3225 -91 2344 -91 
Q 1459 -91 1007 375 
Q 556 841 556 1753 
L 556 4666 
z
" transform="scale(0.015625)"/>
      </defs>
      <use xlink:href="#DejaVuSans-57"/>
      <use xlink:href="#DejaVuSans-54" x="98.876953"/>
      <use xlink:href="#DejaVuSans-5f" x="159.960938"/>
      <use xlink:href="#DejaVuSans-4d" x="209.960938"/>
      <use xlink:href="#DejaVuSans-55" x="296.240234"/>
      <use xlink:href="#DejaVuSans-54" x="369.433594"/>
     </g>
    </g>
   </g>
   <g id="matplotlib.axis_2">
    <g id="ytick_1">
     <g id="line2d_1">
      <path d="M 47.72 303.64 
L 450 303.64 
" clip-path="url(#p76d634194d)" style="fill: none; stroke: #cccccc; stroke-width: 0.8; stroke-linecap: round"/>
     </g>
     <g id="text_4">
      <!-- 0.0 -->
      <g style="fill: #262626" transform="translate(24.816875 307.439219) scale(0.1 -0.1)">
       <defs>
        <path id="DejaVuSans-30" d="M 2034 4250 
Q 1547 4250 1301 3770 
Q 1056 3291 1056 2328 
Q 1056 1369 1301 889 
Q 1547 409 2034 409 
Q 2525 409 2770 889 
Q 3016 1369 3016 2328 
Q 3016 3291 2770 3770 
Q 2525 4250 2034 4250 
z
M 2034 4750 
Q 2819 4750 3233 4129 
Q 3647 3509 3647 2328 
Q 3647 1150 3233 529 
Q 2819 -91 2034 -91 
Q 1250 -91 836 529 
Q 422 1150 422 2328 
Q 422 3509 836 4129 
Q 1250 4750 2034 4750 
z
" transform="scale(0.015625)"/>
        <path id="DejaVuSans-2e" d="M 684 794 
L 1344 794 
L 1344 0 
L 684 0 
L 684 794 
z
" transform="scale(0.015625)"/>
       </defs>
       <use xlink:href="#DejaVuSans-30"/>
       <use xlink:href="#DejaVuSans-2e" x="63.623047"/>
       <use xlink:href="#DejaVuSans-30" x="95.410156"/>
      </g>
     </g>
    </g>
    <g id="ytick_2">
     <g id="line2d_2">
      <path d="M 47.72 283.648027 
L 450 283.648027 
" clip-path="url(#p76d634194d)" style="fill: none; stroke: #cccccc; stroke-width: 0.8; stroke-linecap: round"/>
     </g>
     <g id="text_5">
      <!-- 0.5 -->
      <g style="fill: #262626" transform="translate(24.816875 287.447245) scale(0.1 -0.1)">
       <defs>
        <path id="DejaVuSans-35" d="M 691 4666 
L 3169 4666 
L 3169 4134 
L 1269 4134 
L 1269 2991 
Q 1406 3038 1543 3061 
Q 1681 3084 1819 3084 
Q 2600 3084 3056 2656 
Q 3513 2228 3513 1497 
Q 3513 744 3044 326 
Q 2575 -91 1722 -91 
Q 1428 -91 1123 -41 
Q 819 9 494 109 
L 494 744 
Q 775 591 1075 516 
Q 1375 441 1709 441 
Q 2250 441 2565 725 
Q 2881 1009 2881 1497 
Q 2881 1984 2565 2268 
Q 2250 2553 1709 2553 
Q 1456 2553 1204 2497 
Q 953 2441 691 2322 
L 691 4666 
z
" transform="scale(0.015625)"/>
       </defs>
       <use xlink:href="#DejaVuSans-30"/>
       <use xlink:href="#DejaVuSans-2e" x="63.623047"/>
       <use xlink:href="#DejaVuSans-35" x="95.410156"/>
      </g>
     </g>
    </g>
    <g id="text_6">
     <!-- PercentGpA -->
     <g style="fill: #262626" transform="translate(18.737188 315.098017) rotate(-90) scale(0.1 -0.1)">
      <defs>
       <path id="DejaVuSans-50" d="M 1259 4147 
L 1259 2394 
L 2053 2394 
Q 2494 2394 2734 2622 
Q 2975 2850 2975 3272 
Q 2975 3691 2734 3919 
Q 2494 4147 2053 4147 
L 1259 4147 
z
M 628 4666 
L 2053 4666 
Q 2838 4666 3239 4311 
Q 3641 3956 3641 3272 
Q 3641 2581 3239 2228 
Q 2838 1875 2053 1875 
L 1259 1875 
L 1259 0 
L 628 0 
L 628 4666 
z
" transform="scale(0.015625)"/>
       <path id="DejaVuSans-65" d="M 3597 1894 
L 3597 1613 
L 953 1613 
Q 991 1019 1311 708 
Q 1631 397 2203 397 
Q 2534 397 2845 478 
Q 3156 559 3463 722 
L 3463 178 
Q 3153 47 2828 -22 
Q 2503 -91 2169 -91 
Q 1331 -91 842 396 
Q 353 884 353 1716 
Q 353 2575 817 3079 
Q 1281 3584 2069 3584 
Q 2775 3584 3186 3129 
Q 3597 2675 3597 1894 
z
M 3022 2063 
Q 3016 2534 2758 2815 
Q 2500 3097 2075 3097 
Q 1594 3097 1305 2825 
Q 1016 2553 972 2059 
L 3022 2063 
z
" transform="scale(0.015625)"/>
       <path id="DejaVuSans-72" d="M 2631 2963 
Q 2534 3019 2420 3045 
Q 2306 3072 2169 3072 
Q 1681 3072 1420 2755 
Q 1159 2438 1159 1844 
L 1159 0 
L 581 0 
L 581 3500 
L 1159 3500 
L 1159 2956 
Q 1341 3275 1631 3429 
Q 1922 3584 2338 3584 
Q 2397 3584 2469 3576 
Q 2541 3569 2628 3553 
L 2631 2963 
z
" transform="scale(0.015625)"/>
       <path id="DejaVuSans-63" d="M 3122 3366 
L 3122 2828 
Q 2878 2963 2633 3030 
Q 2388 3097 2138 3097 
Q 1578 3097 1268 2742 
Q 959 2388 959 1747 
Q 959 1106 1268 751 
Q 1578 397 2138 397 
Q 2388 397 2633 464 
Q 2878 531 3122 666 
L 3122 134 
Q 2881 22 2623 -34 
Q 2366 -91 2075 -91 
Q 1284 -91 818 406 
Q 353 903 353 1747 
Q 353 2603 823 3093 
Q 1294 3584 2113 3584 
Q 2378 3584 2631 3529 
Q 2884 3475 3122 3366 
z
" transform="scale(0.015625)"/>
       <path id="DejaVuSans-6e" d="M 3513 2113 
L 3513 0 
L 2938 0 
L 2938 2094 
Q 2938 2591 2744 2837 
Q 2550 3084 2163 3084 
Q 1697 3084 1428 2787 
Q 1159 2491 1159 1978 
L 1159 0 
L 581 0 
L 581 3500 
L 1159 3500 
L 1159 2956 
Q 1366 3272 1645 3428 
Q 1925 3584 2291 3584 
Q 2894 3584 3203 3211 
Q 3513 2838 3513 2113 
z
" transform="scale(0.015625)"/>
       <path id="DejaVuSans-74" d="M 1172 4494 
L 1172 3500 
L 2356 3500 
L 2356 3053 
L 1172 3053 
L 1172 1153 
Q 1172 725 1289 603 
Q 1406 481 1766 481 
L 2356 481 
L 2356 0 
L 1766 0 
Q 1100 0 847 248 
Q 594 497 594 1153 
L 594 3053 
L 172 3053 
L 172 3500 
L 594 3500 
L 594 4494 
L 1172 4494 
z
" transform="scale(0.015625)"/>
       <path id="DejaVuSans-47" d="M 3809 666 
L 3809 1919 
L 2778 1919 
L 2778 2438 
L 4434 2438 
L 4434 434 
Q 4069 175 3628 42 
Q 3188 -91 2688 -91 
Q 1594 -91 976 548 
Q 359 1188 359 2328 
Q 359 3472 976 4111 
Q 1594 4750 2688 4750 
Q 3144 4750 3555 4637 
Q 3966 4525 4313 4306 
L 4313 3634 
Q 3963 3931 3569 4081 
Q 3175 4231 2741 4231 
Q 1884 4231 1454 3753 
Q 1025 3275 1025 2328 
Q 1025 1384 1454 906 
Q 1884 428 2741 428 
Q 3075 428 3337 486 
Q 3600 544 3809 666 
z
" transform="scale(0.015625)"/>
       <path id="DejaVuSans-70" d="M 1159 525 
L 1159 -1331 
L 581 -1331 
L 581 3500 
L 1159 3500 
L 1159 2969 
Q 1341 3281 1617 3432 
Q 1894 3584 2278 3584 
Q 2916 3584 3314 3078 
Q 3713 2572 3713 1747 
Q 3713 922 3314 415 
Q 2916 -91 2278 -91 
Q 1894 -91 1617 61 
Q 1341 213 1159 525 
z
M 3116 1747 
Q 3116 2381 2855 2742 
Q 2594 3103 2138 3103 
Q 1681 3103 1420 2742 
Q 1159 2381 1159 1747 
Q 1159 1113 1420 752 
Q 1681 391 2138 391 
Q 2594 391 2855 752 
Q 3116 1113 3116 1747 
z
" transform="scale(0.015625)"/>
      </defs>
      <use xlink:href="#DejaVuSans-50"/>
      <use xlink:href="#DejaVuSans-65" x="56.677734"/>
      <use xlink:href="#DejaVuSans-72" x="118.201172"/>
      <use xlink:href="#DejaVuSans-63" x="157.064453"/>
      <use xlink:href="#DejaVuSans-65" x="212.044922"/>
      <use xlink:href="#DejaVuSans-6e" x="273.568359"/>
      <use xlink:href="#DejaVuSans-74" x="336.947266"/>
      <use xlink:href="#DejaVuSans-47" x="376.15625"/>
      <use xlink:href="#DejaVuSans-70" x="453.646484"/>
      <use xlink:href="#DejaVuSans-41" x="517.123047"/>
     </g>
    </g>
   </g>
   <g id="patch_3">
    <path d="M 68.63856 295.293069 
L 147.48544 295.293069 
L 147.48544 291.96799 
L 68.63856 291.96799 
L 68.63856 295.293069 
z
" clip-path="url(#p76d634194d)" style="fill: #ecf2ec; stroke: #262626; stroke-width: 1.5; stroke-linejoin: miter"/>
   </g>
   <g id="patch_4">
    <path d="M 149.09456 292.711507 
L 227.94144 292.711507 
L 227.94144 288.32933 
L 149.09456 288.32933 
L 149.09456 292.711507 
z
" clip-path="url(#p76d634194d)" style="fill: #107010; stroke: #262626; stroke-width: 1.5; stroke-linejoin: miter"/>
   </g>
   <g id="patch_5">
    <path d="M 269.77856 290.810858 
L 348.62544 290.810858 
L 348.62544 284.906284 
L 269.77856 284.906284 
L 269.77856 290.810858 
z
" clip-path="url(#p76d634194d)" style="fill: #ecf2ec; stroke: #262626; stroke-width: 1.5; stroke-linejoin: miter"/>
   </g>
   <g id="patch_6">
    <path d="M 350.23456 293.709938 
L 429.08144 293.709938 
L 429.08144 287.638201 
L 350.23456 287.638201 
L 350.23456 293.709938 
z
" clip-path="url(#p76d634194d)" style="fill: #107010; stroke: #262626; stroke-width: 1.5; stroke-linejoin: miter"/>
   </g>
   <g id="patch_7">
    <path d="M 148.29 303.64 
L 148.29 303.64 
L 148.29 303.64 
L 148.29 303.64 
z
" clip-path="url(#p76d634194d)" style="fill: #ecf2ec; stroke: #262626; stroke-width: 0.75; stroke-linejoin: miter"/>
   </g>
   <g id="patch_8">
    <path d="M 148.29 303.64 
L 148.29 303.64 
L 148.29 303.64 
L 148.29 303.64 
z
" clip-path="url(#p76d634194d)" style="fill: #107010; stroke: #262626; stroke-width: 0.75; stroke-linejoin: miter"/>
   </g>
   <g id="PathCollection_1"/>
   <g id="PathCollection_2"/>
   <g id="line2d_3">
    <path d="M 108.062 295.293069 
L 108.062 298.198042 
" clip-path="url(#p76d634194d)" style="fill: none; stroke: #262626; stroke-width: 1.5; stroke-linecap: round"/>
   </g>
   <g id="line2d_4">
    <path d="M 108.062 291.96799 
L 108.062 289.037093 
" clip-path="url(#p76d634194d)" style="fill: none; stroke: #262626; stroke-width: 1.5; stroke-linecap: round"/>
   </g>
   <g id="line2d_5">
    <path d="M 88.35028 298.198042 
L 127.77372 298.198042 
" clip-path="url(#p76d634194d)" style="fill: none; stroke: #262626; stroke-width: 1.5; stroke-linecap: round"/>
   </g>
   <g id="line2d_6">
    <path d="M 88.35028 289.037093 
L 127.77372 289.037093 
" clip-path="url(#p76d634194d)" style="fill: none; stroke: #262626; stroke-width: 1.5; stroke-linecap: round"/>
   </g>
   <g id="line2d_7">
    <defs>
     <path id="mb5129cf5da" d="M -0 1.414214 
L 0.848528 0 
L 0 -1.414214 
L -0.848528 -0 
z
" style="stroke: #262626; stroke-linejoin: miter"/>
    </defs>
    <g clip-path="url(#p76d634194d)">
     <use xlink:href="#mb5129cf5da" x="108.062" y="285.492473" style="fill: #262626; stroke: #262626; stroke-linejoin: miter"/>
     <use xlink:href="#mb5129cf5da" x="108.062" y="285.771034" style="fill: #262626; stroke: #262626; stroke-linejoin: miter"/>
     <use xlink:href="#mb5129cf5da" x="108.062" y="283.605625" style="fill: #262626; stroke: #262626; stroke-linejoin: miter"/>
     <use xlink:href="#mb5129cf5da" x="108.062" y="279.908639" style="fill: #262626; stroke: #262626; stroke-linejoin: miter"/>
     <use xlink:href="#mb5129cf5da" x="108.062" y="285.244874" style="fill: #262626; stroke: #262626; stroke-linejoin: miter"/>
    </g>
   </g>
   <g id="line2d_8">
    <path d="M 188.518 292.711507 
L 188.518 297.768179 
" clip-path="url(#p76d634194d)" style="fill: none; stroke: #262626; stroke-width: 1.5; stroke-linecap: round"/>
   </g>
   <g id="line2d_9">
    <path d="M 188.518 288.32933 
L 188.518 282.728607 
" clip-path="url(#p76d634194d)" style="fill: none; stroke: #262626; stroke-width: 1.5; stroke-linecap: round"/>
   </g>
   <g id="line2d_10">
    <path d="M 168.80628 297.768179 
L 208.22972 297.768179 
" clip-path="url(#p76d634194d)" style="fill: none; stroke: #262626; stroke-width: 1.5; stroke-linecap: round"/>
   </g>
   <g id="line2d_11">
    <path d="M 168.80628 282.728607 
L 208.22972 282.728607 
" clip-path="url(#p76d634194d)" style="fill: none; stroke: #262626; stroke-width: 1.5; stroke-linecap: round"/>
   </g>
   <g id="line2d_12">
    <g clip-path="url(#p76d634194d)">
     <use xlink:href="#mb5129cf5da" x="188.518" y="277.018638" style="fill: #262626; stroke: #262626; stroke-linejoin: miter"/>
    </g>
   </g>
   <g id="line2d_13">
    <path d="M 309.202 290.810858 
L 309.202 298.323951 
" clip-path="url(#p76d634194d)" style="fill: none; stroke: #262626; stroke-width: 1.5; stroke-linecap: round"/>
   </g>
   <g id="line2d_14">
    <path d="M 309.202 284.906284 
L 309.202 276.107172 
" clip-path="url(#p76d634194d)" style="fill: none; stroke: #262626; stroke-width: 1.5; stroke-linecap: round"/>
   </g>
   <g id="line2d_15">
    <path d="M 289.49028 298.323951 
L 328.91372 298.323951 
" clip-path="url(#p76d634194d)" style="fill: none; stroke: #262626; stroke-width: 1.5; stroke-linecap: round"/>
   </g>
   <g id="line2d_16">
    <path d="M 289.49028 276.107172 
L 328.91372 276.107172 
" clip-path="url(#p76d634194d)" style="fill: none; stroke: #262626; stroke-width: 1.5; stroke-linecap: round"/>
   </g>
   <g id="line2d_17">
    <g clip-path="url(#p76d634194d)">
     <use xlink:href="#mb5129cf5da" x="309.202" y="271.242645" style="fill: #262626; stroke: #262626; stroke-linejoin: miter"/>
    </g>
   </g>
   <g id="line2d_18">
    <path d="M 389.658 293.709938 
L 389.658 297.096493 
" clip-path="url(#p76d634194d)" style="fill: none; stroke: #262626; stroke-width: 1.5; stroke-linecap: round"/>
   </g>
   <g id="line2d_19">
    <path d="M 389.658 287.638201 
L 389.658 283.030863 
" clip-path="url(#p76d634194d)" style="fill: none; stroke: #262626; stroke-width: 1.5; stroke-linecap: round"/>
   </g>
   <g id="line2d_20">
    <path d="M 369.94628 297.096493 
L 409.36972 297.096493 
" clip-path="url(#p76d634194d)" style="fill: none; stroke: #262626; stroke-width: 1.5; stroke-linecap: round"/>
   </g>
   <g id="line2d_21">
    <path d="M 369.94628 283.030863 
L 409.36972 283.030863 
" clip-path="url(#p76d634194d)" style="fill: none; stroke: #262626; stroke-width: 1.5; stroke-linecap: round"/>
   </g>
   <g id="line2d_22"/>
   <g id="line2d_23">
    <path d="M 68.63856 293.218511 
L 147.48544 293.218511 
" clip-path="url(#p76d634194d)" style="fill: none; stroke: #262626; stroke-width: 1.5; stroke-linecap: round"/>
   </g>
   <g id="line2d_24">
    <path d="M 149.09456 291.168067 
L 227.94144 291.168067 
" clip-path="url(#p76d634194d)" style="fill: none; stroke: #262626; stroke-width: 1.5; stroke-linecap: round"/>
   </g>
   <g id="line2d_25">
    <path d="M 269.77856 288.614606 
L 348.62544 288.614606 
" clip-path="url(#p76d634194d)" style="fill: none; stroke: #262626; stroke-width: 1.5; stroke-linecap: round"/>
   </g>
   <g id="line2d_26">
    <path d="M 350.23456 290.789945 
L 429.08144 290.789945 
" clip-path="url(#p76d634194d)" style="fill: none; stroke: #262626; stroke-width: 1.5; stroke-linecap: round"/>
   </g>
   <g id="patch_9">
    <path d="M 47.72 303.64 
L 47.72 268.002909 
" style="fill: none; stroke: #cccccc; stroke-width: 0.8; stroke-linejoin: miter; stroke-linecap: square"/>
   </g>
   <g id="patch_10">
    <path d="M 450 303.64 
L 450 268.002909 
" style="fill: none; stroke: #cccccc; stroke-width: 0.8; stroke-linejoin: miter; stroke-linecap: square"/>
   </g>
   <g id="patch_11">
    <path d="M 47.72 303.64 
L 450 303.64 
" style="fill: none; stroke: #cccccc; stroke-width: 0.8; stroke-linejoin: miter; stroke-linecap: square"/>
   </g>
   <g id="patch_12">
    <path d="M 47.72 268.002909 
L 450 268.002909 
" style="fill: none; stroke: #cccccc; stroke-width: 0.8; stroke-linejoin: miter; stroke-linecap: square"/>
   </g>
   <g id="PathCollection_3">
    <defs>
     <path id="C0_0_d182148b88" d="M 0 1 
C 0.265203 1 0.51958 0.894634 0.707107 0.707107 
C 0.894634 0.51958 1 0.265203 1 -0 
C 1 -0.265203 0.894634 -0.51958 0.707107 -0.707107 
C 0.51958 -0.894634 0.265203 -1 0 -1 
C -0.265203 -1 -0.51958 -0.894634 -0.707107 -0.707107 
C -0.894634 -0.51958 -1 -0.265203 -1 0 
C -1 0.265203 -0.894634 0.51958 -0.707107 0.707107 
C -0.51958 0.894634 -0.265203 1 0 1 
z
"/>
    </defs>
    <g clip-path="url(#p76d634194d)">
     <use xlink:href="#C0_0_d182148b88" x="98.871383" y="291.905059" style="fill: #262626"/>
    </g>
    <g clip-path="url(#p76d634194d)">
     <use xlink:href="#C0_0_d182148b88" x="105.835226" y="294.143568" style="fill: #262626"/>
    </g>
    <g clip-path="url(#p76d634194d)">
     <use xlink:href="#C0_0_d182148b88" x="114.806276" y="294.796218" style="fill: #262626"/>
    </g>
    <g clip-path="url(#p76d634194d)">
     <use xlink:href="#C0_0_d182148b88" x="102.701002" y="285.492473" style="fill: #262626"/>
    </g>
    <g clip-path="url(#p76d634194d)">
     <use xlink:href="#C0_0_d182148b88" x="101.334824" y="295.821606" style="fill: #262626"/>
    </g>
    <g clip-path="url(#p76d634194d)">
     <use xlink:href="#C0_0_d182148b88" x="99.315703" y="295.305862" style="fill: #262626"/>
    </g>
    <g clip-path="url(#p76d634194d)">
     <use xlink:href="#C0_0_d182148b88" x="104.334406" y="292.651248" style="fill: #262626"/>
    </g>
    <g clip-path="url(#p76d634194d)">
     <use xlink:href="#C0_0_d182148b88" x="116.342735" y="292.788417" style="fill: #262626"/>
    </g>
    <g clip-path="url(#p76d634194d)">
     <use xlink:href="#C0_0_d182148b88" x="98.166688" y="285.771034" style="fill: #262626"/>
    </g>
    <g clip-path="url(#p76d634194d)">
     <use xlink:href="#C0_0_d182148b88" x="114.734265" y="296.221248" style="fill: #262626"/>
    </g>
    <g clip-path="url(#p76d634194d)">
     <use xlink:href="#C0_0_d182148b88" x="106.572088" y="293.218511" style="fill: #262626"/>
    </g>
    <g clip-path="url(#p76d634194d)">
     <use xlink:href="#C0_0_d182148b88" x="111.557603" y="296.006931" style="fill: #262626"/>
    </g>
    <g clip-path="url(#p76d634194d)">
     <use xlink:href="#C0_0_d182148b88" x="110.01708" y="294.445285" style="fill: #262626"/>
    </g>
    <g clip-path="url(#p76d634194d)">
     <use xlink:href="#C0_0_d182148b88" x="113.378017" y="296.963577" style="fill: #262626"/>
    </g>
    <g clip-path="url(#p76d634194d)">
     <use xlink:href="#C0_0_d182148b88" x="99.63118" y="295.103836" style="fill: #262626"/>
    </g>
    <g clip-path="url(#p76d634194d)">
     <use xlink:href="#C0_0_d182148b88" x="103.979812" y="289.472354" style="fill: #262626"/>
    </g>
    <g clip-path="url(#p76d634194d)">
     <use xlink:href="#C0_0_d182148b88" x="103.744308" y="296.938256" style="fill: #262626"/>
    </g>
    <g clip-path="url(#p76d634194d)">
     <use xlink:href="#C0_0_d182148b88" x="115.827561" y="293.44329" style="fill: #262626"/>
    </g>
    <g clip-path="url(#p76d634194d)">
     <use xlink:href="#C0_0_d182148b88" x="117.937444" y="292.833697" style="fill: #262626"/>
    </g>
    <g clip-path="url(#p76d634194d)">
     <use xlink:href="#C0_0_d182148b88" x="116.532524" y="292.912527" style="fill: #262626"/>
    </g>
    <g clip-path="url(#p76d634194d)">
     <use xlink:href="#C0_0_d182148b88" x="102.923848" y="293.24336" style="fill: #262626"/>
    </g>
    <g clip-path="url(#p76d634194d)">
     <use xlink:href="#C0_0_d182148b88" x="110.905321" y="297.13709" style="fill: #262626"/>
    </g>
    <g clip-path="url(#p76d634194d)">
     <use xlink:href="#C0_0_d182148b88" x="112.845088" y="292.294066" style="fill: #262626"/>
    </g>
    <g clip-path="url(#p76d634194d)">
     <use xlink:href="#C0_0_d182148b88" x="106.694908" y="292.903775" style="fill: #262626"/>
    </g>
    <g clip-path="url(#p76d634194d)">
     <use xlink:href="#C0_0_d182148b88" x="104.813121" y="292.973251" style="fill: #262626"/>
    </g>
    <g clip-path="url(#p76d634194d)">
     <use xlink:href="#C0_0_d182148b88" x="117.70978" y="292.03092" style="fill: #262626"/>
    </g>
    <g clip-path="url(#p76d634194d)">
     <use xlink:href="#C0_0_d182148b88" x="101.045594" y="292.428918" style="fill: #262626"/>
    </g>
    <g clip-path="url(#p76d634194d)">
     <use xlink:href="#C0_0_d182148b88" x="107.402973" y="298.047605" style="fill: #262626"/>
    </g>
    <g clip-path="url(#p76d634194d)">
     <use xlink:href="#C0_0_d182148b88" x="111.658963" y="297.59977" style="fill: #262626"/>
    </g>
    <g clip-path="url(#p76d634194d)">
     <use xlink:href="#C0_0_d182148b88" x="103.004197" y="289.216784" style="fill: #262626"/>
    </g>
    <g clip-path="url(#p76d634194d)">
     <use xlink:href="#C0_0_d182148b88" x="106.313039" y="294.438581" style="fill: #262626"/>
    </g>
    <g clip-path="url(#p76d634194d)">
     <use xlink:href="#C0_0_d182148b88" x="109.983544" y="289.037093" style="fill: #262626"/>
    </g>
    <g clip-path="url(#p76d634194d)">
     <use xlink:href="#C0_0_d182148b88" x="109.640812" y="295.280276" style="fill: #262626"/>
    </g>
    <g clip-path="url(#p76d634194d)">
     <use xlink:href="#C0_0_d182148b88" x="104.091326" y="291.558553" style="fill: #262626"/>
    </g>
    <g clip-path="url(#p76d634194d)">
     <use xlink:href="#C0_0_d182148b88" x="105.067324" y="283.605625" style="fill: #262626"/>
    </g>
    <g clip-path="url(#p76d634194d)">
     <use xlink:href="#C0_0_d182148b88" x="101.261013" y="290.254889" style="fill: #262626"/>
    </g>
    <g clip-path="url(#p76d634194d)">
     <use xlink:href="#C0_0_d182148b88" x="109.68674" y="295.400949" style="fill: #262626"/>
    </g>
    <g clip-path="url(#p76d634194d)">
     <use xlink:href="#C0_0_d182148b88" x="109.43214" y="292.812634" style="fill: #262626"/>
    </g>
    <g clip-path="url(#p76d634194d)">
     <use xlink:href="#C0_0_d182148b88" x="108.251904" y="290.422195" style="fill: #262626"/>
    </g>
    <g clip-path="url(#p76d634194d)">
     <use xlink:href="#C0_0_d182148b88" x="114.418932" y="296.326809" style="fill: #262626"/>
    </g>
    <g clip-path="url(#p76d634194d)">
     <use xlink:href="#C0_0_d182148b88" x="104.821175" y="292.826467" style="fill: #262626"/>
    </g>
    <g clip-path="url(#p76d634194d)">
     <use xlink:href="#C0_0_d182148b88" x="113.381932" y="294.052438" style="fill: #262626"/>
    </g>
    <g clip-path="url(#p76d634194d)">
     <use xlink:href="#C0_0_d182148b88" x="112.48711" y="293.551715" style="fill: #262626"/>
    </g>
    <g clip-path="url(#p76d634194d)">
     <use xlink:href="#C0_0_d182148b88" x="98.023386" y="298.198042" style="fill: #262626"/>
    </g>
    <g clip-path="url(#p76d634194d)">
     <use xlink:href="#C0_0_d182148b88" x="109.448227" y="279.908639" style="fill: #262626"/>
    </g>
    <g clip-path="url(#p76d634194d)">
     <use xlink:href="#C0_0_d182148b88" x="103.959736" y="293.805177" style="fill: #262626"/>
    </g>
    <g clip-path="url(#p76d634194d)">
     <use xlink:href="#C0_0_d182148b88" x="113.002131" y="285.244874" style="fill: #262626"/>
    </g>
   </g>
   <g id="PathCollection_4">
    <defs>
     <path id="C1_0_3fef87cc3a" d="M 0 1 
C 0.265203 1 0.51958 0.894634 0.707107 0.707107 
C 0.894634 0.51958 1 0.265203 1 -0 
C 1 -0.265203 0.894634 -0.51958 0.707107 -0.707107 
C 0.51958 -0.894634 0.265203 -1 0 -1 
C -0.265203 -1 -0.51958 -0.894634 -0.707107 -0.707107 
C -0.894634 -0.51958 -1 -0.265203 -1 0 
C -1 0.265203 -0.894634 0.51958 -0.707107 0.707107 
C -0.51958 0.894634 -0.265203 1 0 1 
z
"/>
    </defs>
    <g clip-path="url(#p76d634194d)">
     <use xlink:href="#C1_0_3fef87cc3a" x="181.022681" y="289.745174"/>
    </g>
    <g clip-path="url(#p76d634194d)">
     <use xlink:href="#C1_0_3fef87cc3a" x="182.95894" y="288.9458"/>
    </g>
    <g clip-path="url(#p76d634194d)">
     <use xlink:href="#C1_0_3fef87cc3a" x="191.227842" y="292.718126"/>
    </g>
    <g clip-path="url(#p76d634194d)">
     <use xlink:href="#C1_0_3fef87cc3a" x="191.30105" y="297.768179"/>
    </g>
    <g clip-path="url(#p76d634194d)">
     <use xlink:href="#C1_0_3fef87cc3a" x="193.783004" y="292.080372"/>
    </g>
    <g clip-path="url(#p76d634194d)">
     <use xlink:href="#C1_0_3fef87cc3a" x="196.056428" y="286.479918"/>
    </g>
    <g clip-path="url(#p76d634194d)">
     <use xlink:href="#C1_0_3fef87cc3a" x="189.495682" y="294.593425"/>
    </g>
    <g clip-path="url(#p76d634194d)">
     <use xlink:href="#C1_0_3fef87cc3a" x="198.479937" y="277.018638"/>
    </g>
    <g clip-path="url(#p76d634194d)">
     <use xlink:href="#C1_0_3fef87cc3a" x="194.206907" y="292.547757"/>
    </g>
    <g clip-path="url(#p76d634194d)">
     <use xlink:href="#C1_0_3fef87cc3a" x="181.590426" y="292.709301"/>
    </g>
    <g clip-path="url(#p76d634194d)">
     <use xlink:href="#C1_0_3fef87cc3a" x="179.503067" y="290.255763"/>
    </g>
    <g clip-path="url(#p76d634194d)">
     <use xlink:href="#C1_0_3fef87cc3a" x="191.833507" y="282.728607"/>
    </g>
   </g>
   <g id="PathCollection_5">
    <defs>
     <path id="C2_0_e20c0ac531" d="M 0 1 
C 0.265203 1 0.51958 0.894634 0.707107 0.707107 
C 0.894634 0.51958 1 0.265203 1 -0 
C 1 -0.265203 0.894634 -0.51958 0.707107 -0.707107 
C 0.51958 -0.894634 0.265203 -1 0 -1 
C -0.265203 -1 -0.51958 -0.894634 -0.707107 -0.707107 
C -0.894634 -0.51958 -1 -0.265203 -1 0 
C -1 0.265203 -0.894634 0.51958 -0.707107 0.707107 
C -0.51958 0.894634 -0.265203 1 0 1 
z
"/>
    </defs>
    <g clip-path="url(#p76d634194d)">
     <use xlink:href="#C2_0_e20c0ac531" x="300.15756" y="294.131527" style="fill: #262626"/>
    </g>
    <g clip-path="url(#p76d634194d)">
     <use xlink:href="#C2_0_e20c0ac531" x="308.728283" y="286.073532" style="fill: #262626"/>
    </g>
    <g clip-path="url(#p76d634194d)">
     <use xlink:href="#C2_0_e20c0ac531" x="305.372236" y="281.053866" style="fill: #262626"/>
    </g>
    <g clip-path="url(#p76d634194d)">
     <use xlink:href="#C2_0_e20c0ac531" x="315.664772" y="292.334644" style="fill: #262626"/>
    </g>
    <g clip-path="url(#p76d634194d)">
     <use xlink:href="#C2_0_e20c0ac531" x="302.983566" y="289.144811" style="fill: #262626"/>
    </g>
    <g clip-path="url(#p76d634194d)">
     <use xlink:href="#C2_0_e20c0ac531" x="305.343699" y="290.931004" style="fill: #262626"/>
    </g>
    <g clip-path="url(#p76d634194d)">
     <use xlink:href="#C2_0_e20c0ac531" x="304.029436" y="284.385652" style="fill: #262626"/>
    </g>
    <g clip-path="url(#p76d634194d)">
     <use xlink:href="#C2_0_e20c0ac531" x="312.019303" y="287.010983" style="fill: #262626"/>
    </g>
    <g clip-path="url(#p76d634194d)">
     <use xlink:href="#C2_0_e20c0ac531" x="300.519467" y="271.242645" style="fill: #262626"/>
    </g>
    <g clip-path="url(#p76d634194d)">
     <use xlink:href="#C2_0_e20c0ac531" x="318.003162" y="285.208368" style="fill: #262626"/>
    </g>
    <g clip-path="url(#p76d634194d)">
     <use xlink:href="#C2_0_e20c0ac531" x="309.110535" y="284.553346" style="fill: #262626"/>
    </g>
    <g clip-path="url(#p76d634194d)">
     <use xlink:href="#C2_0_e20c0ac531" x="309.760671" y="291.42686" style="fill: #262626"/>
    </g>
    <g clip-path="url(#p76d634194d)">
     <use xlink:href="#C2_0_e20c0ac531" x="304.074274" y="289.038889" style="fill: #262626"/>
    </g>
    <g clip-path="url(#p76d634194d)">
     <use xlink:href="#C2_0_e20c0ac531" x="301.258475" y="290.802764" style="fill: #262626"/>
    </g>
    <g clip-path="url(#p76d634194d)">
     <use xlink:href="#C2_0_e20c0ac531" x="316.249579" y="292.713575" style="fill: #262626"/>
    </g>
    <g clip-path="url(#p76d634194d)">
     <use xlink:href="#C2_0_e20c0ac531" x="315.924337" y="280.512756" style="fill: #262626"/>
    </g>
    <g clip-path="url(#p76d634194d)">
     <use xlink:href="#C2_0_e20c0ac531" x="313.400265" y="286.801068" style="fill: #262626"/>
    </g>
    <g clip-path="url(#p76d634194d)">
     <use xlink:href="#C2_0_e20c0ac531" x="318.070263" y="289.209229" style="fill: #262626"/>
    </g>
    <g clip-path="url(#p76d634194d)">
     <use xlink:href="#C2_0_e20c0ac531" x="318.502548" y="289.93216" style="fill: #262626"/>
    </g>
    <g clip-path="url(#p76d634194d)">
     <use xlink:href="#C2_0_e20c0ac531" x="301.354074" y="281.998179" style="fill: #262626"/>
    </g>
    <g clip-path="url(#p76d634194d)">
     <use xlink:href="#C2_0_e20c0ac531" x="317.962607" y="291.352585" style="fill: #262626"/>
    </g>
    <g clip-path="url(#p76d634194d)">
     <use xlink:href="#C2_0_e20c0ac531" x="311.746844" y="282.195972" style="fill: #262626"/>
    </g>
    <g clip-path="url(#p76d634194d)">
     <use xlink:href="#C2_0_e20c0ac531" x="302.303863" y="292.299904" style="fill: #262626"/>
    </g>
    <g clip-path="url(#p76d634194d)">
     <use xlink:href="#C2_0_e20c0ac531" x="308.328128" y="286.330945" style="fill: #262626"/>
    </g>
    <g clip-path="url(#p76d634194d)">
     <use xlink:href="#C2_0_e20c0ac531" x="304.767039" y="284.92079" style="fill: #262626"/>
    </g>
    <g clip-path="url(#p76d634194d)">
     <use xlink:href="#C2_0_e20c0ac531" x="300.368002" y="290.70134" style="fill: #262626"/>
    </g>
    <g clip-path="url(#p76d634194d)">
     <use xlink:href="#C2_0_e20c0ac531" x="314.361564" y="286.548175" style="fill: #262626"/>
    </g>
    <g clip-path="url(#p76d634194d)">
     <use xlink:href="#C2_0_e20c0ac531" x="301.891239" y="276.201689" style="fill: #262626"/>
    </g>
    <g clip-path="url(#p76d634194d)">
     <use xlink:href="#C2_0_e20c0ac531" x="318.806433" y="279.790648" style="fill: #262626"/>
    </g>
    <g clip-path="url(#p76d634194d)">
     <use xlink:href="#C2_0_e20c0ac531" x="305.339614" y="290.810858" style="fill: #262626"/>
    </g>
    <g clip-path="url(#p76d634194d)">
     <use xlink:href="#C2_0_e20c0ac531" x="303.706898" y="288.154595" style="fill: #262626"/>
    </g>
    <g clip-path="url(#p76d634194d)">
     <use xlink:href="#C2_0_e20c0ac531" x="307.275833" y="287.445573" style="fill: #262626"/>
    </g>
    <g clip-path="url(#p76d634194d)">
     <use xlink:href="#C2_0_e20c0ac531" x="310.351341" y="288.122166" style="fill: #262626"/>
    </g>
    <g clip-path="url(#p76d634194d)">
     <use xlink:href="#C2_0_e20c0ac531" x="303.213008" y="288.614606" style="fill: #262626"/>
    </g>
    <g clip-path="url(#p76d634194d)">
     <use xlink:href="#C2_0_e20c0ac531" x="299.839923" y="298.323951" style="fill: #262626"/>
    </g>
    <g clip-path="url(#p76d634194d)">
     <use xlink:href="#C2_0_e20c0ac531" x="315.880816" y="295.089119" style="fill: #262626"/>
    </g>
    <g clip-path="url(#p76d634194d)">
     <use xlink:href="#C2_0_e20c0ac531" x="311.862437" y="290.563484" style="fill: #262626"/>
    </g>
    <g clip-path="url(#p76d634194d)">
     <use xlink:href="#C2_0_e20c0ac531" x="310.149195" y="295.683762" style="fill: #262626"/>
    </g>
    <g clip-path="url(#p76d634194d)">
     <use xlink:href="#C2_0_e20c0ac531" x="302.894318" y="290.403255" style="fill: #262626"/>
    </g>
    <g clip-path="url(#p76d634194d)">
     <use xlink:href="#C2_0_e20c0ac531" x="305.219126" y="288.955188" style="fill: #262626"/>
    </g>
    <g clip-path="url(#p76d634194d)">
     <use xlink:href="#C2_0_e20c0ac531" x="304.304771" y="284.802167" style="fill: #262626"/>
    </g>
    <g clip-path="url(#p76d634194d)">
     <use xlink:href="#C2_0_e20c0ac531" x="317.970233" y="290.185052" style="fill: #262626"/>
    </g>
    <g clip-path="url(#p76d634194d)">
     <use xlink:href="#C2_0_e20c0ac531" x="311.081556" y="291.077767" style="fill: #262626"/>
    </g>
    <g clip-path="url(#p76d634194d)">
     <use xlink:href="#C2_0_e20c0ac531" x="310.260992" y="276.107172" style="fill: #262626"/>
    </g>
    <g clip-path="url(#p76d634194d)">
     <use xlink:href="#C2_0_e20c0ac531" x="315.983253" y="289.004361" style="fill: #262626"/>
    </g>
    <g clip-path="url(#p76d634194d)">
     <use xlink:href="#C2_0_e20c0ac531" x="314.838923" y="283.808674" style="fill: #262626"/>
    </g>
    <g clip-path="url(#p76d634194d)">
     <use xlink:href="#C2_0_e20c0ac531" x="313.275251" y="284.906284" style="fill: #262626"/>
    </g>
    <g clip-path="url(#p76d634194d)">
     <use xlink:href="#C2_0_e20c0ac531" x="301.314869" y="287.418589" style="fill: #262626"/>
    </g>
    <g clip-path="url(#p76d634194d)">
     <use xlink:href="#C2_0_e20c0ac531" x="300.58417" y="291.058728" style="fill: #262626"/>
    </g>
   </g>
   <g id="PathCollection_6">
    <defs>
     <path id="C3_0_918cc736f7" d="M 0 1 
C 0.265203 1 0.51958 0.894634 0.707107 0.707107 
C 0.894634 0.51958 1 0.265203 1 -0 
C 1 -0.265203 0.894634 -0.51958 0.707107 -0.707107 
C 0.51958 -0.894634 0.265203 -1 0 -1 
C -0.265203 -1 -0.51958 -0.894634 -0.707107 -0.707107 
C -0.894634 -0.51958 -1 -0.265203 -1 0 
C -1 0.265203 -0.894634 0.51958 -0.707107 0.707107 
C -0.51958 0.894634 -0.265203 1 0 1 
z
"/>
    </defs>
    <g clip-path="url(#p76d634194d)">
     <use xlink:href="#C3_0_918cc736f7" x="383.925166" y="293.167804"/>
    </g>
    <g clip-path="url(#p76d634194d)">
     <use xlink:href="#C3_0_918cc736f7" x="388.18784" y="294.547967"/>
    </g>
    <g clip-path="url(#p76d634194d)">
     <use xlink:href="#C3_0_918cc736f7" x="380.79418" y="287.282517"/>
    </g>
    <g clip-path="url(#p76d634194d)">
     <use xlink:href="#C3_0_918cc736f7" x="381.49888" y="297.096493"/>
    </g>
    <g clip-path="url(#p76d634194d)">
     <use xlink:href="#C3_0_918cc736f7" x="399.393936" y="283.030863"/>
    </g>
    <g clip-path="url(#p76d634194d)">
     <use xlink:href="#C3_0_918cc736f7" x="385.748365" y="289.567935"/>
    </g>
    <g clip-path="url(#p76d634194d)">
     <use xlink:href="#C3_0_918cc736f7" x="380.994349" y="297.077028"/>
    </g>
    <g clip-path="url(#p76d634194d)">
     <use xlink:href="#C3_0_918cc736f7" x="384.894898" y="290.789945"/>
    </g>
    <g clip-path="url(#p76d634194d)">
     <use xlink:href="#C3_0_918cc736f7" x="397.230503" y="290.550545"/>
    </g>
    <g clip-path="url(#p76d634194d)">
     <use xlink:href="#C3_0_918cc736f7" x="390.083818" y="293.709938"/>
    </g>
    <g clip-path="url(#p76d634194d)">
     <use xlink:href="#C3_0_918cc736f7" x="396.718199" y="286.730077"/>
    </g>
    <g clip-path="url(#p76d634194d)">
     <use xlink:href="#C3_0_918cc736f7" x="395.219551" y="287.153862"/>
    </g>
    <g clip-path="url(#p76d634194d)">
     <use xlink:href="#C3_0_918cc736f7" x="381.993862" y="295.323297"/>
    </g>
    <g clip-path="url(#p76d634194d)">
     <use xlink:href="#C3_0_918cc736f7" x="383.297613" y="287.67974"/>
    </g>
    <g clip-path="url(#p76d634194d)">
     <use xlink:href="#C3_0_918cc736f7" x="396.049805" y="290.959361"/>
    </g>
    <g clip-path="url(#p76d634194d)">
     <use xlink:href="#C3_0_918cc736f7" x="381.289283" y="287.638201"/>
    </g>
    <g clip-path="url(#p76d634194d)">
     <use xlink:href="#C3_0_918cc736f7" x="392.829288" y="290.793684"/>
    </g>
   </g>
   <g id="text_7">
    <!-- 47 -->
    <g style="fill: #262626" transform="translate(118.119 237.666488) scale(0.1 -0.1)">
     <defs>
      <path id="DejaVuSans-34" d="M 2419 4116 
L 825 1625 
L 2419 1625 
L 2419 4116 
z
M 2253 4666 
L 3047 4666 
L 3047 1625 
L 3713 1625 
L 3713 1100 
L 3047 1100 
L 3047 0 
L 2419 0 
L 2419 1100 
L 313 1100 
L 313 1709 
L 2253 4666 
z
" transform="scale(0.015625)"/>
      <path id="DejaVuSans-37" d="M 525 4666 
L 3525 4666 
L 3525 4397 
L 1831 0 
L 1172 0 
L 2766 4134 
L 525 4134 
L 525 4666 
z
" transform="scale(0.015625)"/>
     </defs>
     <use xlink:href="#DejaVuSans-34"/>
     <use xlink:href="#DejaVuSans-37" x="63.623047"/>
    </g>
   </g>
   <g id="text_8">
    <!-- p=0.03345676449670129 -->
    <g style="fill: #262626" transform="translate(65.1465 277.909442) scale(0.08 -0.08)">
     <defs>
      <path id="DejaVuSans-3d" d="M 678 2906 
L 4684 2906 
L 4684 2381 
L 678 2381 
L 678 2906 
z
M 678 1631 
L 4684 1631 
L 4684 1100 
L 678 1100 
L 678 1631 
z
" transform="scale(0.015625)"/>
      <path id="DejaVuSans-33" d="M 2597 2516 
Q 3050 2419 3304 2112 
Q 3559 1806 3559 1356 
Q 3559 666 3084 287 
Q 2609 -91 1734 -91 
Q 1441 -91 1130 -33 
Q 819 25 488 141 
L 488 750 
Q 750 597 1062 519 
Q 1375 441 1716 441 
Q 2309 441 2620 675 
Q 2931 909 2931 1356 
Q 2931 1769 2642 2001 
Q 2353 2234 1838 2234 
L 1294 2234 
L 1294 2753 
L 1863 2753 
Q 2328 2753 2575 2939 
Q 2822 3125 2822 3475 
Q 2822 3834 2567 4026 
Q 2313 4219 1838 4219 
Q 1578 4219 1281 4162 
Q 984 4106 628 3988 
L 628 4550 
Q 988 4650 1302 4700 
Q 1616 4750 1894 4750 
Q 2613 4750 3031 4423 
Q 3450 4097 3450 3541 
Q 3450 3153 3228 2886 
Q 3006 2619 2597 2516 
z
" transform="scale(0.015625)"/>
      <path id="DejaVuSans-36" d="M 2113 2584 
Q 1688 2584 1439 2293 
Q 1191 2003 1191 1497 
Q 1191 994 1439 701 
Q 1688 409 2113 409 
Q 2538 409 2786 701 
Q 3034 994 3034 1497 
Q 3034 2003 2786 2293 
Q 2538 2584 2113 2584 
z
M 3366 4563 
L 3366 3988 
Q 3128 4100 2886 4159 
Q 2644 4219 2406 4219 
Q 1781 4219 1451 3797 
Q 1122 3375 1075 2522 
Q 1259 2794 1537 2939 
Q 1816 3084 2150 3084 
Q 2853 3084 3261 2657 
Q 3669 2231 3669 1497 
Q 3669 778 3244 343 
Q 2819 -91 2113 -91 
Q 1303 -91 875 529 
Q 447 1150 447 2328 
Q 447 3434 972 4092 
Q 1497 4750 2381 4750 
Q 2619 4750 2861 4703 
Q 3103 4656 3366 4563 
z
" transform="scale(0.015625)"/>
      <path id="DejaVuSans-39" d="M 703 97 
L 703 672 
Q 941 559 1184 500 
Q 1428 441 1663 441 
Q 2288 441 2617 861 
Q 2947 1281 2994 2138 
Q 2813 1869 2534 1725 
Q 2256 1581 1919 1581 
Q 1219 1581 811 2004 
Q 403 2428 403 3163 
Q 403 3881 828 4315 
Q 1253 4750 1959 4750 
Q 2769 4750 3195 4129 
Q 3622 3509 3622 2328 
Q 3622 1225 3098 567 
Q 2575 -91 1691 -91 
Q 1453 -91 1209 -44 
Q 966 3 703 97 
z
M 1959 2075 
Q 2384 2075 2632 2365 
Q 2881 2656 2881 3163 
Q 2881 3666 2632 3958 
Q 2384 4250 1959 4250 
Q 1534 4250 1286 3958 
Q 1038 3666 1038 3163 
Q 1038 2656 1286 2365 
Q 1534 2075 1959 2075 
z
" transform="scale(0.015625)"/>
      <path id="DejaVuSans-31" d="M 794 531 
L 1825 531 
L 1825 4091 
L 703 3866 
L 703 4441 
L 1819 4666 
L 2450 4666 
L 2450 531 
L 3481 531 
L 3481 0 
L 794 0 
L 794 531 
z
" transform="scale(0.015625)"/>
      <path id="DejaVuSans-32" d="M 1228 531 
L 3431 531 
L 3431 0 
L 469 0 
L 469 531 
Q 828 903 1448 1529 
Q 2069 2156 2228 2338 
Q 2531 2678 2651 2914 
Q 2772 3150 2772 3378 
Q 2772 3750 2511 3984 
Q 2250 4219 1831 4219 
Q 1534 4219 1204 4116 
Q 875 4013 500 3803 
L 500 4441 
Q 881 4594 1212 4672 
Q 1544 4750 1819 4750 
Q 2544 4750 2975 4387 
Q 3406 4025 3406 3419 
Q 3406 3131 3298 2873 
Q 3191 2616 2906 2266 
Q 2828 2175 2409 1742 
Q 1991 1309 1228 531 
z
" transform="scale(0.015625)"/>
     </defs>
     <use xlink:href="#DejaVuSans-70"/>
     <use xlink:href="#DejaVuSans-3d" x="63.476562"/>
     <use xlink:href="#DejaVuSans-30" x="147.265625"/>
     <use xlink:href="#DejaVuSans-2e" x="210.888672"/>
     <use xlink:href="#DejaVuSans-30" x="242.675781"/>
     <use xlink:href="#DejaVuSans-33" x="306.298828"/>
     <use xlink:href="#DejaVuSans-33" x="369.921875"/>
     <use xlink:href="#DejaVuSans-34" x="433.544922"/>
     <use xlink:href="#DejaVuSans-35" x="497.167969"/>
     <use xlink:href="#DejaVuSans-36" x="560.791016"/>
     <use xlink:href="#DejaVuSans-37" x="624.414062"/>
     <use xlink:href="#DejaVuSans-36" x="688.037109"/>
     <use xlink:href="#DejaVuSans-34" x="751.660156"/>
     <use xlink:href="#DejaVuSans-34" x="815.283203"/>
     <use xlink:href="#DejaVuSans-39" x="878.90625"/>
     <use xlink:href="#DejaVuSans-36" x="942.529297"/>
     <use xlink:href="#DejaVuSans-37" x="1006.152344"/>
     <use xlink:href="#DejaVuSans-30" x="1069.775391"/>
     <use xlink:href="#DejaVuSans-31" x="1133.398438"/>
     <use xlink:href="#DejaVuSans-32" x="1197.021484"/>
     <use xlink:href="#DejaVuSans-39" x="1260.644531"/>
    </g>
   </g>
   <g id="text_9">
    <!-- 12 -->
    <g style="fill: #262626" transform="translate(178.461 237.666488) scale(0.1 -0.1)">
     <use xlink:href="#DejaVuSans-31"/>
     <use xlink:href="#DejaVuSans-32" x="63.623047"/>
    </g>
   </g>
   <g id="text_10">
    <!-- 49 -->
    <g style="fill: #262626" transform="translate(319.259 237.666488) scale(0.1 -0.1)">
     <use xlink:href="#DejaVuSans-34"/>
     <use xlink:href="#DejaVuSans-39" x="63.623047"/>
    </g>
   </g>
   <g id="text_11">
    <!-- p=0.02273417482861452 -->
    <g style="fill: #262626" transform="translate(266.2865 269.243448) scale(0.08 -0.08)">
     <defs>
      <path id="DejaVuSans-38" d="M 2034 2216 
Q 1584 2216 1326 1975 
Q 1069 1734 1069 1313 
Q 1069 891 1326 650 
Q 1584 409 2034 409 
Q 2484 409 2743 651 
Q 3003 894 3003 1313 
Q 3003 1734 2745 1975 
Q 2488 2216 2034 2216 
z
M 1403 2484 
Q 997 2584 770 2862 
Q 544 3141 544 3541 
Q 544 4100 942 4425 
Q 1341 4750 2034 4750 
Q 2731 4750 3128 4425 
Q 3525 4100 3525 3541 
Q 3525 3141 3298 2862 
Q 3072 2584 2669 2484 
Q 3125 2378 3379 2068 
Q 3634 1759 3634 1313 
Q 3634 634 3220 271 
Q 2806 -91 2034 -91 
Q 1263 -91 848 271 
Q 434 634 434 1313 
Q 434 1759 690 2068 
Q 947 2378 1403 2484 
z
M 1172 3481 
Q 1172 3119 1398 2916 
Q 1625 2713 2034 2713 
Q 2441 2713 2670 2916 
Q 2900 3119 2900 3481 
Q 2900 3844 2670 4047 
Q 2441 4250 2034 4250 
Q 1625 4250 1398 4047 
Q 1172 3844 1172 3481 
z
" transform="scale(0.015625)"/>
     </defs>
     <use xlink:href="#DejaVuSans-70"/>
     <use xlink:href="#DejaVuSans-3d" x="63.476562"/>
     <use xlink:href="#DejaVuSans-30" x="147.265625"/>
     <use xlink:href="#DejaVuSans-2e" x="210.888672"/>
     <use xlink:href="#DejaVuSans-30" x="242.675781"/>
     <use xlink:href="#DejaVuSans-32" x="306.298828"/>
     <use xlink:href="#DejaVuSans-32" x="369.921875"/>
     <use xlink:href="#DejaVuSans-37" x="433.544922"/>
     <use xlink:href="#DejaVuSans-33" x="497.167969"/>
     <use xlink:href="#DejaVuSans-34" x="560.791016"/>
     <use xlink:href="#DejaVuSans-31" x="624.414062"/>
     <use xlink:href="#DejaVuSans-37" x="688.037109"/>
     <use xlink:href="#DejaVuSans-34" x="751.660156"/>
     <use xlink:href="#DejaVuSans-38" x="815.283203"/>
     <use xlink:href="#DejaVuSans-32" x="878.90625"/>
     <use xlink:href="#DejaVuSans-38" x="942.529297"/>
     <use xlink:href="#DejaVuSans-36" x="1006.152344"/>
     <use xlink:href="#DejaVuSans-31" x="1069.775391"/>
     <use xlink:href="#DejaVuSans-34" x="1133.398438"/>
     <use xlink:href="#DejaVuSans-35" x="1197.021484"/>
     <use xlink:href="#DejaVuSans-32" x="1260.644531"/>
    </g>
   </g>
   <g id="text_12">
    <!-- 17 -->
    <g style="fill: #262626" transform="translate(379.601 237.666488) scale(0.1 -0.1)">
     <use xlink:href="#DejaVuSans-31"/>
     <use xlink:href="#DejaVuSans-37" x="63.623047"/>
    </g>
   </g>
   <g id="legend_1">
    <g id="patch_13">
     <path d="M 217.224062 277.882187 
L 237.224062 277.882187 
L 237.224062 270.882187 
L 217.224062 270.882187 
z
" style="fill: #ecf2ec; stroke: #262626; stroke-width: 0.75; stroke-linejoin: miter"/>
    </g>
    <g id="text_13">
     <!-- Mutant -->
     <g style="fill: #262626" transform="translate(245.224062 277.882187) scale(0.1 -0.1)">
      <defs>
       <path id="DejaVuSans-75" d="M 544 1381 
L 544 3500 
L 1119 3500 
L 1119 1403 
Q 1119 906 1312 657 
Q 1506 409 1894 409 
Q 2359 409 2629 706 
Q 2900 1003 2900 1516 
L 2900 3500 
L 3475 3500 
L 3475 0 
L 2900 0 
L 2900 538 
Q 2691 219 2414 64 
Q 2138 -91 1772 -91 
Q 1169 -91 856 284 
Q 544 659 544 1381 
z
M 1991 3584 
L 1991 3584 
z
" transform="scale(0.015625)"/>
       <path id="DejaVuSans-61" d="M 2194 1759 
Q 1497 1759 1228 1600 
Q 959 1441 959 1056 
Q 959 750 1161 570 
Q 1363 391 1709 391 
Q 2188 391 2477 730 
Q 2766 1069 2766 1631 
L 2766 1759 
L 2194 1759 
z
M 3341 1997 
L 3341 0 
L 2766 0 
L 2766 531 
Q 2569 213 2275 61 
Q 1981 -91 1556 -91 
Q 1019 -91 701 211 
Q 384 513 384 1019 
Q 384 1609 779 1909 
Q 1175 2209 1959 2209 
L 2766 2209 
L 2766 2266 
Q 2766 2663 2505 2880 
Q 2244 3097 1772 3097 
Q 1472 3097 1187 3025 
Q 903 2953 641 2809 
L 641 3341 
Q 956 3463 1253 3523 
Q 1550 3584 1831 3584 
Q 2591 3584 2966 3190 
Q 3341 2797 3341 1997 
z
" transform="scale(0.015625)"/>
      </defs>
      <use xlink:href="#DejaVuSans-4d"/>
      <use xlink:href="#DejaVuSans-75" x="86.279297"/>
      <use xlink:href="#DejaVuSans-74" x="149.658203"/>
      <use xlink:href="#DejaVuSans-61" x="188.867188"/>
      <use xlink:href="#DejaVuSans-6e" x="250.146484"/>
      <use xlink:href="#DejaVuSans-74" x="313.525391"/>
     </g>
    </g>
    <g id="patch_14">
     <path d="M 217.224062 292.560312 
L 237.224062 292.560312 
L 237.224062 285.560312 
L 217.224062 285.560312 
z
" style="fill: #107010; stroke: #262626; stroke-width: 0.75; stroke-linejoin: miter"/>
    </g>
    <g id="text_14">
     <!-- WT -->
     <g style="fill: #262626" transform="translate(245.224062 292.560312) scale(0.1 -0.1)">
      <use xlink:href="#DejaVuSans-57"/>
      <use xlink:href="#DejaVuSans-54" x="98.876953"/>
     </g>
    </g>
   </g>
  </g>
 </g>
 <defs>
  <clipPath id="p76d634194d">
   <rect x="47.72" y="268.002909" width="402.28" height="35.637091"/>
  </clipPath>
 </defs>
</svg>
