<?xml version="1.0" encoding="utf-8" standalone="no"?>
<!DOCTYPE svg PUBLIC "-//W3C//DTD SVG 1.1//EN"
  "http://www.w3.org/Graphics/SVG/1.1/DTD/svg11.dtd">
<svg xmlns:xlink="http://www.w3.org/1999/xlink" width="460.8pt" height="345.6pt" viewBox="0 0 460.8 345.6" xmlns="http://www.w3.org/2000/svg" version="1.1">
 <metadata>
  <rdf:RDF xmlns:dc="http://purl.org/dc/elements/1.1/" xmlns:cc="http://creativecommons.org/ns#" xmlns:rdf="http://www.w3.org/1999/02/22-rdf-syntax-ns#">
   <cc:Work>
    <dc:type rdf:resource="http://purl.org/dc/dcmitype/StillImage"/>
    <dc:date>2024-02-03T13:11:21.120294</dc:date>
    <dc:format>image/svg+xml</dc:format>
    <dc:creator>
     <cc:Agent>
      <dc:title>Matplotlib v3.5.3, https://matplotlib.org/</dc:title>
     </cc:Agent>
    </dc:creator>
   </cc:Work>
  </rdf:RDF>
 </metadata>
 <defs>
  <style type="text/css">*{stroke-linejoin: round; stroke-linecap: butt}</style>
 </defs>
 <g id="figure_1">
  <g id="patch_1">
   <path d="M 0 345.6 
L 460.8 345.6 
L 460.8 0 
L 0 0 
z
" style="fill: #ffffff"/>
  </g>
  <g id="axes_1">
   <g id="patch_2">
    <path d="M 47.82125 303.64 
L 450 303.64 
L 450 46.675714 
L 47.82125 46.675714 
z
" style="fill: #ffffff"/>
   </g>
   <g id="PathCollection_1">
    <defs>
     <path id="m94ab37afc1" d="M 0 3 
C 0.795609 3 1.55874 2.683901 2.12132 2.12132 
C 2.683901 1.55874 3 0.795609 3 0 
C 3 -0.795609 2.683901 -1.55874 2.12132 -2.12132 
C 1.55874 -2.683901 0.795609 -3 0 -3 
C -0.795609 -3 -1.55874 -2.683901 -2.12132 -2.12132 
C -2.683901 -1.55874 -3 -0.795609 -3 0 
C -3 0.795609 -2.683901 1.55874 -2.12132 2.12132 
C -1.55874 2.683901 -0.795609 3 0 3 
z
" style="stroke: #1f77b4"/>
    </defs>
    <g clip-path="url(#p31cd239903)">
     <use xlink:href="#m94ab37afc1" x="73.745327" y="192.827325" style="fill: #1f77b4; stroke: #1f77b4"/>
     <use xlink:href="#m94ab37afc1" x="130.092997" y="192.882426" style="fill: #1f77b4; stroke: #1f77b4"/>
     <use xlink:href="#m94ab37afc1" x="130.921109" y="134.185097" style="fill: #1f77b4; stroke: #1f77b4"/>
     <use xlink:href="#m94ab37afc1" x="141.847264" y="173.753898" style="fill: #1f77b4; stroke: #1f77b4"/>
     <use xlink:href="#m94ab37afc1" x="82.118274" y="206.355828" style="fill: #1f77b4; stroke: #1f77b4"/>
     <use xlink:href="#m94ab37afc1" x="106.853396" y="165.474095" style="fill: #1f77b4; stroke: #1f77b4"/>
     <use xlink:href="#m94ab37afc1" x="146.692947" y="189.236097" style="fill: #1f77b4; stroke: #1f77b4"/>
     <use xlink:href="#m94ab37afc1" x="116.515246" y="188.143382" style="fill: #1f77b4; stroke: #1f77b4"/>
     <use xlink:href="#m94ab37afc1" x="74.768578" y="198.406645" style="fill: #1f77b4; stroke: #1f77b4"/>
     <use xlink:href="#m94ab37afc1" x="171.857703" y="176.798662" style="fill: #1f77b4; stroke: #1f77b4"/>
     <use xlink:href="#m94ab37afc1" x="123.810827" y="190.408478" style="fill: #1f77b4; stroke: #1f77b4"/>
     <use xlink:href="#m94ab37afc1" x="80.391538" y="197.884139" style="fill: #1f77b4; stroke: #1f77b4"/>
     <use xlink:href="#m94ab37afc1" x="226.286778" y="196.337994" style="fill: #1f77b4; stroke: #1f77b4"/>
     <use xlink:href="#m94ab37afc1" x="92.580358" y="208.043844" style="fill: #1f77b4; stroke: #1f77b4"/>
     <use xlink:href="#m94ab37afc1" x="176.459052" y="195.443239" style="fill: #1f77b4; stroke: #1f77b4"/>
     <use xlink:href="#m94ab37afc1" x="188.370742" y="178.032957" style="fill: #1f77b4; stroke: #1f77b4"/>
     <use xlink:href="#m94ab37afc1" x="66.102102" y="131.432058" style="fill: #1f77b4; stroke: #1f77b4"/>
     <use xlink:href="#m94ab37afc1" x="111.69416" y="202.217484" style="fill: #1f77b4; stroke: #1f77b4"/>
     <use xlink:href="#m94ab37afc1" x="147.370195" y="211.970387" style="fill: #1f77b4; stroke: #1f77b4"/>
     <use xlink:href="#m94ab37afc1" x="193.455839" y="184.306747" style="fill: #1f77b4; stroke: #1f77b4"/>
     <use xlink:href="#m94ab37afc1" x="180.142099" y="204.077866" style="fill: #1f77b4; stroke: #1f77b4"/>
     <use xlink:href="#m94ab37afc1" x="191.550363" y="189.553133" style="fill: #1f77b4; stroke: #1f77b4"/>
     <use xlink:href="#m94ab37afc1" x="158.166803" y="180.208257" style="fill: #1f77b4; stroke: #1f77b4"/>
     <use xlink:href="#m94ab37afc1" x="93.474063" y="216.099712" style="fill: #1f77b4; stroke: #1f77b4"/>
     <use xlink:href="#m94ab37afc1" x="179.402538" y="191.750184" style="fill: #1f77b4; stroke: #1f77b4"/>
     <use xlink:href="#m94ab37afc1" x="161.38906" y="191.875352" style="fill: #1f77b4; stroke: #1f77b4"/>
     <use xlink:href="#m94ab37afc1" x="168.786311" y="175.340833" style="fill: #1f77b4; stroke: #1f77b4"/>
     <use xlink:href="#m94ab37afc1" x="236.101131" y="268.036059" style="fill: #1f77b4; stroke: #1f77b4"/>
     <use xlink:href="#m94ab37afc1" x="163.394566" y="208.02753" style="fill: #1f77b4; stroke: #1f77b4"/>
     <use xlink:href="#m94ab37afc1" x="214.197987" y="209.349156" style="fill: #1f77b4; stroke: #1f77b4"/>
     <use xlink:href="#m94ab37afc1" x="154.524752" y="272.448642" style="fill: #1f77b4; stroke: #1f77b4"/>
     <use xlink:href="#m94ab37afc1" x="178.979463" y="150.036729" style="fill: #1f77b4; stroke: #1f77b4"/>
     <use xlink:href="#m94ab37afc1" x="218.800976" y="158.982855" style="fill: #1f77b4; stroke: #1f77b4"/>
     <use xlink:href="#m94ab37afc1" x="130.81944" y="188.747088" style="fill: #1f77b4; stroke: #1f77b4"/>
     <use xlink:href="#m94ab37afc1" x="209.572041" y="179.885895" style="fill: #1f77b4; stroke: #1f77b4"/>
     <use xlink:href="#m94ab37afc1" x="216.334679" y="194.824487" style="fill: #1f77b4; stroke: #1f77b4"/>
     <use xlink:href="#m94ab37afc1" x="171.723237" y="178.871026" style="fill: #1f77b4; stroke: #1f77b4"/>
     <use xlink:href="#m94ab37afc1" x="188.165764" y="197.31077" style="fill: #1f77b4; stroke: #1f77b4"/>
     <use xlink:href="#m94ab37afc1" x="210.895379" y="263.944081" style="fill: #1f77b4; stroke: #1f77b4"/>
     <use xlink:href="#m94ab37afc1" x="164.606396" y="190.605458" style="fill: #1f77b4; stroke: #1f77b4"/>
     <use xlink:href="#m94ab37afc1" x="235.112317" y="199.676785" style="fill: #1f77b4; stroke: #1f77b4"/>
     <use xlink:href="#m94ab37afc1" x="296.782859" y="199.677067" style="fill: #1f77b4; stroke: #1f77b4"/>
     <use xlink:href="#m94ab37afc1" x="130.576746" y="191.097492" style="fill: #1f77b4; stroke: #1f77b4"/>
     <use xlink:href="#m94ab37afc1" x="192.053789" y="150.765918" style="fill: #1f77b4; stroke: #1f77b4"/>
     <use xlink:href="#m94ab37afc1" x="146.302669" y="201.708904" style="fill: #1f77b4; stroke: #1f77b4"/>
     <use xlink:href="#m94ab37afc1" x="224.876528" y="182.593901" style="fill: #1f77b4; stroke: #1f77b4"/>
     <use xlink:href="#m94ab37afc1" x="179.323827" y="268.178952" style="fill: #1f77b4; stroke: #1f77b4"/>
     <use xlink:href="#m94ab37afc1" x="241.26658" y="174.580869" style="fill: #1f77b4; stroke: #1f77b4"/>
     <use xlink:href="#m94ab37afc1" x="258.545417" y="248.131892" style="fill: #1f77b4; stroke: #1f77b4"/>
     <use xlink:href="#m94ab37afc1" x="281.591519" y="286.448257" style="fill: #1f77b4; stroke: #1f77b4"/>
     <use xlink:href="#m94ab37afc1" x="188.647872" y="165.294583" style="fill: #1f77b4; stroke: #1f77b4"/>
     <use xlink:href="#m94ab37afc1" x="150.174296" y="260.623013" style="fill: #1f77b4; stroke: #1f77b4"/>
     <use xlink:href="#m94ab37afc1" x="244.001809" y="231.329843" style="fill: #1f77b4; stroke: #1f77b4"/>
     <use xlink:href="#m94ab37afc1" x="431.719148" y="261.425467" style="fill: #1f77b4; stroke: #1f77b4"/>
     <use xlink:href="#m94ab37afc1" x="239.154486" y="276.604951" style="fill: #1f77b4; stroke: #1f77b4"/>
     <use xlink:href="#m94ab37afc1" x="200.810455" y="221.794064" style="fill: #1f77b4; stroke: #1f77b4"/>
     <use xlink:href="#m94ab37afc1" x="296.910766" y="282.498231" style="fill: #1f77b4; stroke: #1f77b4"/>
     <use xlink:href="#m94ab37afc1" x="320.722666" y="213.236097" style="fill: #1f77b4; stroke: #1f77b4"/>
     <use xlink:href="#m94ab37afc1" x="294.824908" y="173.209984" style="fill: #1f77b4; stroke: #1f77b4"/>
     <use xlink:href="#m94ab37afc1" x="102.771871" y="225.549163" style="fill: #1f77b4; stroke: #1f77b4"/>
     <use xlink:href="#m94ab37afc1" x="170.145726" y="257.390661" style="fill: #1f77b4; stroke: #1f77b4"/>
     <use xlink:href="#m94ab37afc1" x="150.815467" y="256.020859" style="fill: #1f77b4; stroke: #1f77b4"/>
     <use xlink:href="#m94ab37afc1" x="209.078453" y="268.343024" style="fill: #1f77b4; stroke: #1f77b4"/>
     <use xlink:href="#m94ab37afc1" x="149.724984" y="202.450324" style="fill: #1f77b4; stroke: #1f77b4"/>
     <use xlink:href="#m94ab37afc1" x="297.766754" y="239.632584" style="fill: #1f77b4; stroke: #1f77b4"/>
     <use xlink:href="#m94ab37afc1" x="216.590492" y="271.14366" style="fill: #1f77b4; stroke: #1f77b4"/>
     <use xlink:href="#m94ab37afc1" x="224.801096" y="264.936337" style="fill: #1f77b4; stroke: #1f77b4"/>
     <use xlink:href="#m94ab37afc1" x="235.35829" y="234.352436" style="fill: #1f77b4; stroke: #1f77b4"/>
     <use xlink:href="#m94ab37afc1" x="301.603945" y="271.767778" style="fill: #1f77b4; stroke: #1f77b4"/>
     <use xlink:href="#m94ab37afc1" x="287.317789" y="238.506204" style="fill: #1f77b4; stroke: #1f77b4"/>
     <use xlink:href="#m94ab37afc1" x="260.810016" y="205.785484" style="fill: #1f77b4; stroke: #1f77b4"/>
     <use xlink:href="#m94ab37afc1" x="224.199281" y="270.214945" style="fill: #1f77b4; stroke: #1f77b4"/>
     <use xlink:href="#m94ab37afc1" x="261.33312" y="253.780155" style="fill: #1f77b4; stroke: #1f77b4"/>
     <use xlink:href="#m94ab37afc1" x="242.075014" y="264.79574" style="fill: #1f77b4; stroke: #1f77b4"/>
     <use xlink:href="#m94ab37afc1" x="226.150672" y="277.022335" style="fill: #1f77b4; stroke: #1f77b4"/>
     <use xlink:href="#m94ab37afc1" x="211.433242" y="274.919963" style="fill: #1f77b4; stroke: #1f77b4"/>
     <use xlink:href="#m94ab37afc1" x="297.727398" y="272.846005" style="fill: #1f77b4; stroke: #1f77b4"/>
     <use xlink:href="#m94ab37afc1" x="240.98617" y="261.869268" style="fill: #1f77b4; stroke: #1f77b4"/>
     <use xlink:href="#m94ab37afc1" x="280.010728" y="219.195799" style="fill: #1f77b4; stroke: #1f77b4"/>
     <use xlink:href="#m94ab37afc1" x="255.552737" y="207.817561" style="fill: #1f77b4; stroke: #1f77b4"/>
    </g>
   </g>
   <g id="matplotlib.axis_1">
    <g id="xtick_1">
     <g id="line2d_1">
      <defs>
       <path id="m0592e56a75" d="M 0 0 
L 0 3.5 
" style="stroke: #000000; stroke-width: 0.8"/>
      </defs>
      <g>
       <use xlink:href="#m0592e56a75" x="48.524817" y="303.64" style="stroke: #000000; stroke-width: 0.8"/>
      </g>
     </g>
     <g id="text_1">
      <!-- −15 -->
      <g transform="translate(37.972473 318.238437)scale(0.1 -0.1)">
       <defs>
        <path id="DejaVuSans-2212" d="M 678 2272 
L 4684 2272 
L 4684 1741 
L 678 1741 
L 678 2272 
z
" transform="scale(0.015625)"/>
        <path id="DejaVuSans-31" d="M 794 531 
L 1825 531 
L 1825 4091 
L 703 3866 
L 703 4441 
L 1819 4666 
L 2450 4666 
L 2450 531 
L 3481 531 
L 3481 0 
L 794 0 
L 794 531 
z
" transform="scale(0.015625)"/>
        <path id="DejaVuSans-35" d="M 691 4666 
L 3169 4666 
L 3169 4134 
L 1269 4134 
L 1269 2991 
Q 1406 3038 1543 3061 
Q 1681 3084 1819 3084 
Q 2600 3084 3056 2656 
Q 3513 2228 3513 1497 
Q 3513 744 3044 326 
Q 2575 -91 1722 -91 
Q 1428 -91 1123 -41 
Q 819 9 494 109 
L 494 744 
Q 775 591 1075 516 
Q 1375 441 1709 441 
Q 2250 441 2565 725 
Q 2881 1009 2881 1497 
Q 2881 1984 2565 2268 
Q 2250 2553 1709 2553 
Q 1456 2553 1204 2497 
Q 953 2441 691 2322 
L 691 4666 
z
" transform="scale(0.015625)"/>
       </defs>
       <use xlink:href="#DejaVuSans-2212"/>
       <use xlink:href="#DejaVuSans-31" x="83.789062"/>
       <use xlink:href="#DejaVuSans-35" x="147.412109"/>
      </g>
     </g>
    </g>
    <g id="xtick_2">
     <g id="line2d_2">
      <g>
       <use xlink:href="#m0592e56a75" x="130.516072" y="303.64" style="stroke: #000000; stroke-width: 0.8"/>
      </g>
     </g>
     <g id="text_2">
      <!-- −10 -->
      <g transform="translate(119.963729 318.238437)scale(0.1 -0.1)">
       <defs>
        <path id="DejaVuSans-30" d="M 2034 4250 
Q 1547 4250 1301 3770 
Q 1056 3291 1056 2328 
Q 1056 1369 1301 889 
Q 1547 409 2034 409 
Q 2525 409 2770 889 
Q 3016 1369 3016 2328 
Q 3016 3291 2770 3770 
Q 2525 4250 2034 4250 
z
M 2034 4750 
Q 2819 4750 3233 4129 
Q 3647 3509 3647 2328 
Q 3647 1150 3233 529 
Q 2819 -91 2034 -91 
Q 1250 -91 836 529 
Q 422 1150 422 2328 
Q 422 3509 836 4129 
Q 1250 4750 2034 4750 
z
" transform="scale(0.015625)"/>
       </defs>
       <use xlink:href="#DejaVuSans-2212"/>
       <use xlink:href="#DejaVuSans-31" x="83.789062"/>
       <use xlink:href="#DejaVuSans-30" x="147.412109"/>
      </g>
     </g>
    </g>
    <g id="xtick_3">
     <g id="line2d_3">
      <g>
       <use xlink:href="#m0592e56a75" x="212.507328" y="303.64" style="stroke: #000000; stroke-width: 0.8"/>
      </g>
     </g>
     <g id="text_3">
      <!-- −5 -->
      <g transform="translate(205.136234 318.238437)scale(0.1 -0.1)">
       <use xlink:href="#DejaVuSans-2212"/>
       <use xlink:href="#DejaVuSans-35" x="83.789062"/>
      </g>
     </g>
    </g>
    <g id="xtick_4">
     <g id="line2d_4">
      <g>
       <use xlink:href="#m0592e56a75" x="294.498583" y="303.64" style="stroke: #000000; stroke-width: 0.8"/>
      </g>
     </g>
     <g id="text_4">
      <!-- 0 -->
      <g transform="translate(291.317333 318.238437)scale(0.1 -0.1)">
       <use xlink:href="#DejaVuSans-30"/>
      </g>
     </g>
    </g>
    <g id="xtick_5">
     <g id="line2d_5">
      <g>
       <use xlink:href="#m0592e56a75" x="376.489838" y="303.64" style="stroke: #000000; stroke-width: 0.8"/>
      </g>
     </g>
     <g id="text_5">
      <!-- 5 -->
      <g transform="translate(373.308588 318.238437)scale(0.1 -0.1)">
       <use xlink:href="#DejaVuSans-35"/>
      </g>
     </g>
    </g>
    <g id="text_6">
     <!-- HBONDDiff -->
     <g transform="translate(221.521562 331.916562)scale(0.1 -0.1)">
      <defs>
       <path id="DejaVuSans-48" d="M 628 4666 
L 1259 4666 
L 1259 2753 
L 3553 2753 
L 3553 4666 
L 4184 4666 
L 4184 0 
L 3553 0 
L 3553 2222 
L 1259 2222 
L 1259 0 
L 628 0 
L 628 4666 
z
" transform="scale(0.015625)"/>
       <path id="DejaVuSans-42" d="M 1259 2228 
L 1259 519 
L 2272 519 
Q 2781 519 3026 730 
Q 3272 941 3272 1375 
Q 3272 1813 3026 2020 
Q 2781 2228 2272 2228 
L 1259 2228 
z
M 1259 4147 
L 1259 2741 
L 2194 2741 
Q 2656 2741 2882 2914 
Q 3109 3088 3109 3444 
Q 3109 3797 2882 3972 
Q 2656 4147 2194 4147 
L 1259 4147 
z
M 628 4666 
L 2241 4666 
Q 2963 4666 3353 4366 
Q 3744 4066 3744 3513 
Q 3744 3084 3544 2831 
Q 3344 2578 2956 2516 
Q 3422 2416 3680 2098 
Q 3938 1781 3938 1306 
Q 3938 681 3513 340 
Q 3088 0 2303 0 
L 628 0 
L 628 4666 
z
" transform="scale(0.015625)"/>
       <path id="DejaVuSans-4f" d="M 2522 4238 
Q 1834 4238 1429 3725 
Q 1025 3213 1025 2328 
Q 1025 1447 1429 934 
Q 1834 422 2522 422 
Q 3209 422 3611 934 
Q 4013 1447 4013 2328 
Q 4013 3213 3611 3725 
Q 3209 4238 2522 4238 
z
M 2522 4750 
Q 3503 4750 4090 4092 
Q 4678 3434 4678 2328 
Q 4678 1225 4090 567 
Q 3503 -91 2522 -91 
Q 1538 -91 948 565 
Q 359 1222 359 2328 
Q 359 3434 948 4092 
Q 1538 4750 2522 4750 
z
" transform="scale(0.015625)"/>
       <path id="DejaVuSans-4e" d="M 628 4666 
L 1478 4666 
L 3547 763 
L 3547 4666 
L 4159 4666 
L 4159 0 
L 3309 0 
L 1241 3903 
L 1241 0 
L 628 0 
L 628 4666 
z
" transform="scale(0.015625)"/>
       <path id="DejaVuSans-44" d="M 1259 4147 
L 1259 519 
L 2022 519 
Q 2988 519 3436 956 
Q 3884 1394 3884 2338 
Q 3884 3275 3436 3711 
Q 2988 4147 2022 4147 
L 1259 4147 
z
M 628 4666 
L 1925 4666 
Q 3281 4666 3915 4102 
Q 4550 3538 4550 2338 
Q 4550 1131 3912 565 
Q 3275 0 1925 0 
L 628 0 
L 628 4666 
z
" transform="scale(0.015625)"/>
       <path id="DejaVuSans-69" d="M 603 3500 
L 1178 3500 
L 1178 0 
L 603 0 
L 603 3500 
z
M 603 4863 
L 1178 4863 
L 1178 4134 
L 603 4134 
L 603 4863 
z
" transform="scale(0.015625)"/>
       <path id="DejaVuSans-66" d="M 2375 4863 
L 2375 4384 
L 1825 4384 
Q 1516 4384 1395 4259 
Q 1275 4134 1275 3809 
L 1275 3500 
L 2222 3500 
L 2222 3053 
L 1275 3053 
L 1275 0 
L 697 0 
L 697 3053 
L 147 3053 
L 147 3500 
L 697 3500 
L 697 3744 
Q 697 4328 969 4595 
Q 1241 4863 1831 4863 
L 2375 4863 
z
" transform="scale(0.015625)"/>
      </defs>
      <use xlink:href="#DejaVuSans-48"/>
      <use xlink:href="#DejaVuSans-42" x="75.195312"/>
      <use xlink:href="#DejaVuSans-4f" x="142.048828"/>
      <use xlink:href="#DejaVuSans-4e" x="220.759766"/>
      <use xlink:href="#DejaVuSans-44" x="295.564453"/>
      <use xlink:href="#DejaVuSans-44" x="372.566406"/>
      <use xlink:href="#DejaVuSans-69" x="449.568359"/>
      <use xlink:href="#DejaVuSans-66" x="477.351562"/>
      <use xlink:href="#DejaVuSans-66" x="512.556641"/>
     </g>
    </g>
   </g>
   <g id="matplotlib.axis_2">
    <g id="ytick_1">
     <g id="line2d_6">
      <defs>
       <path id="m918d934190" d="M 0 0 
L -3.5 0 
" style="stroke: #000000; stroke-width: 0.8"/>
      </defs>
      <g>
       <use xlink:href="#m918d934190" x="47.82125" y="303.64" style="stroke: #000000; stroke-width: 0.8"/>
      </g>
     </g>
     <g id="text_7">
      <!-- 0.0 -->
      <g transform="translate(24.918125 307.439219)scale(0.1 -0.1)">
       <defs>
        <path id="DejaVuSans-2e" d="M 684 794 
L 1344 794 
L 1344 0 
L 684 0 
L 684 794 
z
" transform="scale(0.015625)"/>
       </defs>
       <use xlink:href="#DejaVuSans-30"/>
       <use xlink:href="#DejaVuSans-2e" x="63.623047"/>
       <use xlink:href="#DejaVuSans-30" x="95.410156"/>
      </g>
     </g>
    </g>
    <g id="ytick_2">
     <g id="line2d_7">
      <g>
       <use xlink:href="#m918d934190" x="47.82125" y="253.490058" style="stroke: #000000; stroke-width: 0.8"/>
      </g>
     </g>
     <g id="text_8">
      <!-- 0.5 -->
      <g transform="translate(24.918125 257.289276)scale(0.1 -0.1)">
       <use xlink:href="#DejaVuSans-30"/>
       <use xlink:href="#DejaVuSans-2e" x="63.623047"/>
       <use xlink:href="#DejaVuSans-35" x="95.410156"/>
      </g>
     </g>
    </g>
    <g id="ytick_3">
     <g id="line2d_8">
      <g>
       <use xlink:href="#m918d934190" x="47.82125" y="203.340115" style="stroke: #000000; stroke-width: 0.8"/>
      </g>
     </g>
     <g id="text_9">
      <!-- 1.0 -->
      <g transform="translate(24.918125 207.139334)scale(0.1 -0.1)">
       <use xlink:href="#DejaVuSans-31"/>
       <use xlink:href="#DejaVuSans-2e" x="63.623047"/>
       <use xlink:href="#DejaVuSans-30" x="95.410156"/>
      </g>
     </g>
    </g>
    <g id="ytick_4">
     <g id="line2d_9">
      <g>
       <use xlink:href="#m918d934190" x="47.82125" y="153.190173" style="stroke: #000000; stroke-width: 0.8"/>
      </g>
     </g>
     <g id="text_10">
      <!-- 1.5 -->
      <g transform="translate(24.918125 156.989392)scale(0.1 -0.1)">
       <use xlink:href="#DejaVuSans-31"/>
       <use xlink:href="#DejaVuSans-2e" x="63.623047"/>
       <use xlink:href="#DejaVuSans-35" x="95.410156"/>
      </g>
     </g>
    </g>
    <g id="ytick_5">
     <g id="line2d_10">
      <g>
       <use xlink:href="#m918d934190" x="47.82125" y="103.040231" style="stroke: #000000; stroke-width: 0.8"/>
      </g>
     </g>
     <g id="text_11">
      <!-- 2.0 -->
      <g transform="translate(24.918125 106.83945)scale(0.1 -0.1)">
       <defs>
        <path id="DejaVuSans-32" d="M 1228 531 
L 3431 531 
L 3431 0 
L 469 0 
L 469 531 
Q 828 903 1448 1529 
Q 2069 2156 2228 2338 
Q 2531 2678 2651 2914 
Q 2772 3150 2772 3378 
Q 2772 3750 2511 3984 
Q 2250 4219 1831 4219 
Q 1534 4219 1204 4116 
Q 875 4013 500 3803 
L 500 4441 
Q 881 4594 1212 4672 
Q 1544 4750 1819 4750 
Q 2544 4750 2975 4387 
Q 3406 4025 3406 3419 
Q 3406 3131 3298 2873 
Q 3191 2616 2906 2266 
Q 2828 2175 2409 1742 
Q 1991 1309 1228 531 
z
" transform="scale(0.015625)"/>
       </defs>
       <use xlink:href="#DejaVuSans-32"/>
       <use xlink:href="#DejaVuSans-2e" x="63.623047"/>
       <use xlink:href="#DejaVuSans-30" x="95.410156"/>
      </g>
     </g>
    </g>
    <g id="ytick_6">
     <g id="line2d_11">
      <g>
       <use xlink:href="#m918d934190" x="47.82125" y="52.890288" style="stroke: #000000; stroke-width: 0.8"/>
      </g>
     </g>
     <g id="text_12">
      <!-- 2.5 -->
      <g transform="translate(24.918125 56.689507)scale(0.1 -0.1)">
       <use xlink:href="#DejaVuSans-32"/>
       <use xlink:href="#DejaVuSans-2e" x="63.623047"/>
       <use xlink:href="#DejaVuSans-35" x="95.410156"/>
      </g>
     </g>
    </g>
    <g id="text_13">
     <!-- PercentGpA_transformed -->
     <g transform="translate(18.560313 237.696138)rotate(-90)scale(0.1 -0.1)">
      <defs>
       <path id="DejaVuSans-50" d="M 1259 4147 
L 1259 2394 
L 2053 2394 
Q 2494 2394 2734 2622 
Q 2975 2850 2975 3272 
Q 2975 3691 2734 3919 
Q 2494 4147 2053 4147 
L 1259 4147 
z
M 628 4666 
L 2053 4666 
Q 2838 4666 3239 4311 
Q 3641 3956 3641 3272 
Q 3641 2581 3239 2228 
Q 2838 1875 2053 1875 
L 1259 1875 
L 1259 0 
L 628 0 
L 628 4666 
z
" transform="scale(0.015625)"/>
       <path id="DejaVuSans-65" d="M 3597 1894 
L 3597 1613 
L 953 1613 
Q 991 1019 1311 708 
Q 1631 397 2203 397 
Q 2534 397 2845 478 
Q 3156 559 3463 722 
L 3463 178 
Q 3153 47 2828 -22 
Q 2503 -91 2169 -91 
Q 1331 -91 842 396 
Q 353 884 353 1716 
Q 353 2575 817 3079 
Q 1281 3584 2069 3584 
Q 2775 3584 3186 3129 
Q 3597 2675 3597 1894 
z
M 3022 2063 
Q 3016 2534 2758 2815 
Q 2500 3097 2075 3097 
Q 1594 3097 1305 2825 
Q 1016 2553 972 2059 
L 3022 2063 
z
" transform="scale(0.015625)"/>
       <path id="DejaVuSans-72" d="M 2631 2963 
Q 2534 3019 2420 3045 
Q 2306 3072 2169 3072 
Q 1681 3072 1420 2755 
Q 1159 2438 1159 1844 
L 1159 0 
L 581 0 
L 581 3500 
L 1159 3500 
L 1159 2956 
Q 1341 3275 1631 3429 
Q 1922 3584 2338 3584 
Q 2397 3584 2469 3576 
Q 2541 3569 2628 3553 
L 2631 2963 
z
" transform="scale(0.015625)"/>
       <path id="DejaVuSans-63" d="M 3122 3366 
L 3122 2828 
Q 2878 2963 2633 3030 
Q 2388 3097 2138 3097 
Q 1578 3097 1268 2742 
Q 959 2388 959 1747 
Q 959 1106 1268 751 
Q 1578 397 2138 397 
Q 2388 397 2633 464 
Q 2878 531 3122 666 
L 3122 134 
Q 2881 22 2623 -34 
Q 2366 -91 2075 -91 
Q 1284 -91 818 406 
Q 353 903 353 1747 
Q 353 2603 823 3093 
Q 1294 3584 2113 3584 
Q 2378 3584 2631 3529 
Q 2884 3475 3122 3366 
z
" transform="scale(0.015625)"/>
       <path id="DejaVuSans-6e" d="M 3513 2113 
L 3513 0 
L 2938 0 
L 2938 2094 
Q 2938 2591 2744 2837 
Q 2550 3084 2163 3084 
Q 1697 3084 1428 2787 
Q 1159 2491 1159 1978 
L 1159 0 
L 581 0 
L 581 3500 
L 1159 3500 
L 1159 2956 
Q 1366 3272 1645 3428 
Q 1925 3584 2291 3584 
Q 2894 3584 3203 3211 
Q 3513 2838 3513 2113 
z
" transform="scale(0.015625)"/>
       <path id="DejaVuSans-74" d="M 1172 4494 
L 1172 3500 
L 2356 3500 
L 2356 3053 
L 1172 3053 
L 1172 1153 
Q 1172 725 1289 603 
Q 1406 481 1766 481 
L 2356 481 
L 2356 0 
L 1766 0 
Q 1100 0 847 248 
Q 594 497 594 1153 
L 594 3053 
L 172 3053 
L 172 3500 
L 594 3500 
L 594 4494 
L 1172 4494 
z
" transform="scale(0.015625)"/>
       <path id="DejaVuSans-47" d="M 3809 666 
L 3809 1919 
L 2778 1919 
L 2778 2438 
L 4434 2438 
L 4434 434 
Q 4069 175 3628 42 
Q 3188 -91 2688 -91 
Q 1594 -91 976 548 
Q 359 1188 359 2328 
Q 359 3472 976 4111 
Q 1594 4750 2688 4750 
Q 3144 4750 3555 4637 
Q 3966 4525 4313 4306 
L 4313 3634 
Q 3963 3931 3569 4081 
Q 3175 4231 2741 4231 
Q 1884 4231 1454 3753 
Q 1025 3275 1025 2328 
Q 1025 1384 1454 906 
Q 1884 428 2741 428 
Q 3075 428 3337 486 
Q 3600 544 3809 666 
z
" transform="scale(0.015625)"/>
       <path id="DejaVuSans-70" d="M 1159 525 
L 1159 -1331 
L 581 -1331 
L 581 3500 
L 1159 3500 
L 1159 2969 
Q 1341 3281 1617 3432 
Q 1894 3584 2278 3584 
Q 2916 3584 3314 3078 
Q 3713 2572 3713 1747 
Q 3713 922 3314 415 
Q 2916 -91 2278 -91 
Q 1894 -91 1617 61 
Q 1341 213 1159 525 
z
M 3116 1747 
Q 3116 2381 2855 2742 
Q 2594 3103 2138 3103 
Q 1681 3103 1420 2742 
Q 1159 2381 1159 1747 
Q 1159 1113 1420 752 
Q 1681 391 2138 391 
Q 2594 391 2855 752 
Q 3116 1113 3116 1747 
z
" transform="scale(0.015625)"/>
       <path id="DejaVuSans-41" d="M 2188 4044 
L 1331 1722 
L 3047 1722 
L 2188 4044 
z
M 1831 4666 
L 2547 4666 
L 4325 0 
L 3669 0 
L 3244 1197 
L 1141 1197 
L 716 0 
L 50 0 
L 1831 4666 
z
" transform="scale(0.015625)"/>
       <path id="DejaVuSans-5f" d="M 3263 -1063 
L 3263 -1509 
L -63 -1509 
L -63 -1063 
L 3263 -1063 
z
" transform="scale(0.015625)"/>
       <path id="DejaVuSans-61" d="M 2194 1759 
Q 1497 1759 1228 1600 
Q 959 1441 959 1056 
Q 959 750 1161 570 
Q 1363 391 1709 391 
Q 2188 391 2477 730 
Q 2766 1069 2766 1631 
L 2766 1759 
L 2194 1759 
z
M 3341 1997 
L 3341 0 
L 2766 0 
L 2766 531 
Q 2569 213 2275 61 
Q 1981 -91 1556 -91 
Q 1019 -91 701 211 
Q 384 513 384 1019 
Q 384 1609 779 1909 
Q 1175 2209 1959 2209 
L 2766 2209 
L 2766 2266 
Q 2766 2663 2505 2880 
Q 2244 3097 1772 3097 
Q 1472 3097 1187 3025 
Q 903 2953 641 2809 
L 641 3341 
Q 956 3463 1253 3523 
Q 1550 3584 1831 3584 
Q 2591 3584 2966 3190 
Q 3341 2797 3341 1997 
z
" transform="scale(0.015625)"/>
       <path id="DejaVuSans-73" d="M 2834 3397 
L 2834 2853 
Q 2591 2978 2328 3040 
Q 2066 3103 1784 3103 
Q 1356 3103 1142 2972 
Q 928 2841 928 2578 
Q 928 2378 1081 2264 
Q 1234 2150 1697 2047 
L 1894 2003 
Q 2506 1872 2764 1633 
Q 3022 1394 3022 966 
Q 3022 478 2636 193 
Q 2250 -91 1575 -91 
Q 1294 -91 989 -36 
Q 684 19 347 128 
L 347 722 
Q 666 556 975 473 
Q 1284 391 1588 391 
Q 1994 391 2212 530 
Q 2431 669 2431 922 
Q 2431 1156 2273 1281 
Q 2116 1406 1581 1522 
L 1381 1569 
Q 847 1681 609 1914 
Q 372 2147 372 2553 
Q 372 3047 722 3315 
Q 1072 3584 1716 3584 
Q 2034 3584 2315 3537 
Q 2597 3491 2834 3397 
z
" transform="scale(0.015625)"/>
       <path id="DejaVuSans-6f" d="M 1959 3097 
Q 1497 3097 1228 2736 
Q 959 2375 959 1747 
Q 959 1119 1226 758 
Q 1494 397 1959 397 
Q 2419 397 2687 759 
Q 2956 1122 2956 1747 
Q 2956 2369 2687 2733 
Q 2419 3097 1959 3097 
z
M 1959 3584 
Q 2709 3584 3137 3096 
Q 3566 2609 3566 1747 
Q 3566 888 3137 398 
Q 2709 -91 1959 -91 
Q 1206 -91 779 398 
Q 353 888 353 1747 
Q 353 2609 779 3096 
Q 1206 3584 1959 3584 
z
" transform="scale(0.015625)"/>
       <path id="DejaVuSans-6d" d="M 3328 2828 
Q 3544 3216 3844 3400 
Q 4144 3584 4550 3584 
Q 5097 3584 5394 3201 
Q 5691 2819 5691 2113 
L 5691 0 
L 5113 0 
L 5113 2094 
Q 5113 2597 4934 2840 
Q 4756 3084 4391 3084 
Q 3944 3084 3684 2787 
Q 3425 2491 3425 1978 
L 3425 0 
L 2847 0 
L 2847 2094 
Q 2847 2600 2669 2842 
Q 2491 3084 2119 3084 
Q 1678 3084 1418 2786 
Q 1159 2488 1159 1978 
L 1159 0 
L 581 0 
L 581 3500 
L 1159 3500 
L 1159 2956 
Q 1356 3278 1631 3431 
Q 1906 3584 2284 3584 
Q 2666 3584 2933 3390 
Q 3200 3197 3328 2828 
z
" transform="scale(0.015625)"/>
       <path id="DejaVuSans-64" d="M 2906 2969 
L 2906 4863 
L 3481 4863 
L 3481 0 
L 2906 0 
L 2906 525 
Q 2725 213 2448 61 
Q 2172 -91 1784 -91 
Q 1150 -91 751 415 
Q 353 922 353 1747 
Q 353 2572 751 3078 
Q 1150 3584 1784 3584 
Q 2172 3584 2448 3432 
Q 2725 3281 2906 2969 
z
M 947 1747 
Q 947 1113 1208 752 
Q 1469 391 1925 391 
Q 2381 391 2643 752 
Q 2906 1113 2906 1747 
Q 2906 2381 2643 2742 
Q 2381 3103 1925 3103 
Q 1469 3103 1208 2742 
Q 947 2381 947 1747 
z
" transform="scale(0.015625)"/>
      </defs>
      <use xlink:href="#DejaVuSans-50"/>
      <use xlink:href="#DejaVuSans-65" x="56.677734"/>
      <use xlink:href="#DejaVuSans-72" x="118.201172"/>
      <use xlink:href="#DejaVuSans-63" x="157.064453"/>
      <use xlink:href="#DejaVuSans-65" x="212.044922"/>
      <use xlink:href="#DejaVuSans-6e" x="273.568359"/>
      <use xlink:href="#DejaVuSans-74" x="336.947266"/>
      <use xlink:href="#DejaVuSans-47" x="376.15625"/>
      <use xlink:href="#DejaVuSans-70" x="453.646484"/>
      <use xlink:href="#DejaVuSans-41" x="517.123047"/>
      <use xlink:href="#DejaVuSans-5f" x="585.53125"/>
      <use xlink:href="#DejaVuSans-74" x="635.53125"/>
      <use xlink:href="#DejaVuSans-72" x="674.740234"/>
      <use xlink:href="#DejaVuSans-61" x="715.853516"/>
      <use xlink:href="#DejaVuSans-6e" x="777.132812"/>
      <use xlink:href="#DejaVuSans-73" x="840.511719"/>
      <use xlink:href="#DejaVuSans-66" x="892.611328"/>
      <use xlink:href="#DejaVuSans-6f" x="927.816406"/>
      <use xlink:href="#DejaVuSans-72" x="988.998047"/>
      <use xlink:href="#DejaVuSans-6d" x="1028.361328"/>
      <use xlink:href="#DejaVuSans-65" x="1125.773438"/>
      <use xlink:href="#DejaVuSans-64" x="1187.296875"/>
     </g>
    </g>
   </g>
   <g id="LineCollection_1">
    <path d="M 73.745327 234.555236 
L 73.745327 151.099415 
" clip-path="url(#p31cd239903)" style="fill: none; stroke: #d3d3d3; stroke-width: 3"/>
    <path d="M 130.092997 196.323182 
L 130.092997 189.44167 
" clip-path="url(#p31cd239903)" style="fill: none; stroke: #d3d3d3; stroke-width: 3"/>
    <path d="M 130.921109 210.109475 
L 130.921109 58.260719 
" clip-path="url(#p31cd239903)" style="fill: none; stroke: #d3d3d3; stroke-width: 3"/>
    <path d="M 141.847264 204.44717 
L 141.847264 143.060626 
" clip-path="url(#p31cd239903)" style="fill: none; stroke: #d3d3d3; stroke-width: 3"/>
    <path d="M 82.118274 222.43641 
L 82.118274 190.275246 
" clip-path="url(#p31cd239903)" style="fill: none; stroke: #d3d3d3; stroke-width: 3"/>
    <path d="M 106.853396 188.538082 
L 106.853396 142.410109 
" clip-path="url(#p31cd239903)" style="fill: none; stroke: #d3d3d3; stroke-width: 3"/>
    <path d="M 146.692947 204.193807 
L 146.692947 174.278388 
" clip-path="url(#p31cd239903)" style="fill: none; stroke: #d3d3d3; stroke-width: 3"/>
    <path d="M 116.515246 200.433695 
L 116.515246 175.853069 
" clip-path="url(#p31cd239903)" style="fill: none; stroke: #d3d3d3; stroke-width: 3"/>
    <path d="M 74.768578 230.004169 
L 74.768578 166.809122 
" clip-path="url(#p31cd239903)" style="fill: none; stroke: #d3d3d3; stroke-width: 3"/>
    <path d="M 171.857703 186.925754 
L 171.857703 166.671571 
" clip-path="url(#p31cd239903)" style="fill: none; stroke: #d3d3d3; stroke-width: 3"/>
    <path d="M 123.810827 205.552239 
L 123.810827 175.264716 
" clip-path="url(#p31cd239903)" style="fill: none; stroke: #d3d3d3; stroke-width: 3"/>
    <path d="M 80.391538 212.945466 
L 80.391538 182.822812 
" clip-path="url(#p31cd239903)" style="fill: none; stroke: #d3d3d3; stroke-width: 3"/>
    <path d="M 226.286778 201.603003 
L 226.286778 191.072986 
" clip-path="url(#p31cd239903)" style="fill: none; stroke: #d3d3d3; stroke-width: 3"/>
    <path d="M 92.580358 219.676059 
L 92.580358 196.411629 
" clip-path="url(#p31cd239903)" style="fill: none; stroke: #d3d3d3; stroke-width: 3"/>
    <path d="M 176.459052 205.040074 
L 176.459052 185.846405 
" clip-path="url(#p31cd239903)" style="fill: none; stroke: #d3d3d3; stroke-width: 3"/>
    <path d="M 188.370742 192.970079 
L 188.370742 163.095836 
" clip-path="url(#p31cd239903)" style="fill: none; stroke: #d3d3d3; stroke-width: 3"/>
    <path d="M 66.102102 204.179089 
L 66.102102 58.685027 
" clip-path="url(#p31cd239903)" style="fill: none; stroke: #d3d3d3; stroke-width: 3"/>
    <path d="M 111.69416 207.392634 
L 111.69416 197.042334 
" clip-path="url(#p31cd239903)" style="fill: none; stroke: #d3d3d3; stroke-width: 3"/>
    <path d="M 147.370195 227.070765 
L 147.370195 196.870008 
" clip-path="url(#p31cd239903)" style="fill: none; stroke: #d3d3d3; stroke-width: 3"/>
    <path d="M 193.455839 240.723232 
L 193.455839 127.890263 
" clip-path="url(#p31cd239903)" style="fill: none; stroke: #d3d3d3; stroke-width: 3"/>
    <path d="M 180.142099 223.274839 
L 180.142099 184.880892 
" clip-path="url(#p31cd239903)" style="fill: none; stroke: #d3d3d3; stroke-width: 3"/>
    <path d="M 191.550363 199.990733 
L 191.550363 179.115533 
" clip-path="url(#p31cd239903)" style="fill: none; stroke: #d3d3d3; stroke-width: 3"/>
    <path d="M 158.166803 189.84638 
L 158.166803 170.570134 
" clip-path="url(#p31cd239903)" style="fill: none; stroke: #d3d3d3; stroke-width: 3"/>
    <path d="M 93.474063 235.036186 
L 93.474063 197.163238 
" clip-path="url(#p31cd239903)" style="fill: none; stroke: #d3d3d3; stroke-width: 3"/>
    <path d="M 179.402538 202.849575 
L 179.402538 180.650793 
" clip-path="url(#p31cd239903)" style="fill: none; stroke: #d3d3d3; stroke-width: 3"/>
    <path d="M 161.38906 202.224794 
L 161.38906 181.525909 
" clip-path="url(#p31cd239903)" style="fill: none; stroke: #d3d3d3; stroke-width: 3"/>
    <path d="M 168.786311 193.66949 
L 168.786311 157.012175 
" clip-path="url(#p31cd239903)" style="fill: none; stroke: #d3d3d3; stroke-width: 3"/>
    <path d="M 236.101131 273.803938 
L 236.101131 262.268181 
" clip-path="url(#p31cd239903)" style="fill: none; stroke: #d3d3d3; stroke-width: 3"/>
    <path d="M 163.394566 218.340004 
L 163.394566 197.715055 
" clip-path="url(#p31cd239903)" style="fill: none; stroke: #d3d3d3; stroke-width: 3"/>
    <path d="M 214.197987 234.672287 
L 214.197987 184.026024 
" clip-path="url(#p31cd239903)" style="fill: none; stroke: #d3d3d3; stroke-width: 3"/>
    <path d="M 154.524752 275.899923 
L 154.524752 268.99736 
" clip-path="url(#p31cd239903)" style="fill: none; stroke: #d3d3d3; stroke-width: 3"/>
    <path d="M 178.979463 240.651843 
L 178.979463 59.421616 
" clip-path="url(#p31cd239903)" style="fill: none; stroke: #d3d3d3; stroke-width: 3"/>
    <path d="M 218.800976 186.21028 
L 218.800976 131.755431 
" clip-path="url(#p31cd239903)" style="fill: none; stroke: #d3d3d3; stroke-width: 3"/>
    <path d="M 130.81944 205.860512 
L 130.81944 171.633663 
" clip-path="url(#p31cd239903)" style="fill: none; stroke: #d3d3d3; stroke-width: 3"/>
    <path d="M 209.572041 193.566261 
L 209.572041 166.205529 
" clip-path="url(#p31cd239903)" style="fill: none; stroke: #d3d3d3; stroke-width: 3"/>
    <path d="M 216.334679 204.207821 
L 216.334679 185.441153 
" clip-path="url(#p31cd239903)" style="fill: none; stroke: #d3d3d3; stroke-width: 3"/>
    <path d="M 171.723237 195.861716 
L 171.723237 161.880336 
" clip-path="url(#p31cd239903)" style="fill: none; stroke: #d3d3d3; stroke-width: 3"/>
    <path d="M 188.165764 218.289541 
L 188.165764 176.331999 
" clip-path="url(#p31cd239903)" style="fill: none; stroke: #d3d3d3; stroke-width: 3"/>
    <path d="M 210.895379 267.591952 
L 210.895379 260.29621 
" clip-path="url(#p31cd239903)" style="fill: none; stroke: #d3d3d3; stroke-width: 3"/>
    <path d="M 164.606396 208.190648 
L 164.606396 173.020267 
" clip-path="url(#p31cd239903)" style="fill: none; stroke: #d3d3d3; stroke-width: 3"/>
    <path d="M 235.112317 204.670898 
L 235.112317 194.682671 
" clip-path="url(#p31cd239903)" style="fill: none; stroke: #d3d3d3; stroke-width: 3"/>
    <path d="M 296.782859 204.999288 
L 296.782859 194.354847 
" clip-path="url(#p31cd239903)" style="fill: none; stroke: #d3d3d3; stroke-width: 3"/>
    <path d="M 130.576746 200.479754 
L 130.576746 181.715229 
" clip-path="url(#p31cd239903)" style="fill: none; stroke: #d3d3d3; stroke-width: 3"/>
    <path d="M 192.053789 228.720887 
L 192.053789 72.810949 
" clip-path="url(#p31cd239903)" style="fill: none; stroke: #d3d3d3; stroke-width: 3"/>
    <path d="M 146.302669 211.65102 
L 146.302669 191.766788 
" clip-path="url(#p31cd239903)" style="fill: none; stroke: #d3d3d3; stroke-width: 3"/>
    <path d="M 224.876528 198.427632 
L 224.876528 166.76017 
" clip-path="url(#p31cd239903)" style="fill: none; stroke: #d3d3d3; stroke-width: 3"/>
    <path d="M 179.323827 273.010434 
L 179.323827 263.34747 
" clip-path="url(#p31cd239903)" style="fill: none; stroke: #d3d3d3; stroke-width: 3"/>
    <path d="M 241.26658 186.876534 
L 241.26658 162.285204 
" clip-path="url(#p31cd239903)" style="fill: none; stroke: #d3d3d3; stroke-width: 3"/>
    <path d="M 258.545417 258.337568 
L 258.545417 237.926216 
" clip-path="url(#p31cd239903)" style="fill: none; stroke: #d3d3d3; stroke-width: 3"/>
    <path d="M 281.591519 289.960822 
L 281.591519 282.935692 
" clip-path="url(#p31cd239903)" style="fill: none; stroke: #d3d3d3; stroke-width: 3"/>
    <path d="M 188.647872 249.025566 
L 188.647872 81.5636 
" clip-path="url(#p31cd239903)" style="fill: none; stroke: #d3d3d3; stroke-width: 3"/>
    <path d="M 150.174296 265.474293 
L 150.174296 255.771733 
" clip-path="url(#p31cd239903)" style="fill: none; stroke: #d3d3d3; stroke-width: 3"/>
    <path d="M 244.001809 235.72571 
L 244.001809 226.933976 
" clip-path="url(#p31cd239903)" style="fill: none; stroke: #d3d3d3; stroke-width: 3"/>
    <path d="M 431.719148 269.542855 
L 431.719148 253.30808 
" clip-path="url(#p31cd239903)" style="fill: none; stroke: #d3d3d3; stroke-width: 3"/>
    <path d="M 239.154486 277.039033 
L 239.154486 276.170869 
" clip-path="url(#p31cd239903)" style="fill: none; stroke: #d3d3d3; stroke-width: 3"/>
    <path d="M 200.810455 231.562871 
L 200.810455 212.025257 
" clip-path="url(#p31cd239903)" style="fill: none; stroke: #d3d3d3; stroke-width: 3"/>
    <path d="M 296.910766 287.748581 
L 296.910766 277.247881 
" clip-path="url(#p31cd239903)" style="fill: none; stroke: #d3d3d3; stroke-width: 3"/>
    <path d="M 320.722666 217.744786 
L 320.722666 208.727407 
" clip-path="url(#p31cd239903)" style="fill: none; stroke: #d3d3d3; stroke-width: 3"/>
    <path d="M 294.824908 189.305565 
L 294.824908 157.114403 
" clip-path="url(#p31cd239903)" style="fill: none; stroke: #d3d3d3; stroke-width: 3"/>
    <path d="M 102.771871 238.534575 
L 102.771871 212.563751 
" clip-path="url(#p31cd239903)" style="fill: none; stroke: #d3d3d3; stroke-width: 3"/>
    <path d="M 170.145726 259.007302 
L 170.145726 255.77402 
" clip-path="url(#p31cd239903)" style="fill: none; stroke: #d3d3d3; stroke-width: 3"/>
    <path d="M 150.815467 261.146041 
L 150.815467 250.895678 
" clip-path="url(#p31cd239903)" style="fill: none; stroke: #d3d3d3; stroke-width: 3"/>
    <path d="M 209.078453 271.325215 
L 209.078453 265.360833 
" clip-path="url(#p31cd239903)" style="fill: none; stroke: #d3d3d3; stroke-width: 3"/>
    <path d="M 149.724984 221.552804 
L 149.724984 183.347844 
" clip-path="url(#p31cd239903)" style="fill: none; stroke: #d3d3d3; stroke-width: 3"/>
    <path d="M 297.766754 244.71659 
L 297.766754 234.548578 
" clip-path="url(#p31cd239903)" style="fill: none; stroke: #d3d3d3; stroke-width: 3"/>
    <path d="M 216.590492 272.597241 
L 216.590492 269.690079 
" clip-path="url(#p31cd239903)" style="fill: none; stroke: #d3d3d3; stroke-width: 3"/>
    <path d="M 224.801096 268.672775 
L 224.801096 261.199898 
" clip-path="url(#p31cd239903)" style="fill: none; stroke: #d3d3d3; stroke-width: 3"/>
    <path d="M 235.35829 234.828705 
L 235.35829 233.876167 
" clip-path="url(#p31cd239903)" style="fill: none; stroke: #d3d3d3; stroke-width: 3"/>
    <path d="M 301.603945 273.852261 
L 301.603945 269.683295 
" clip-path="url(#p31cd239903)" style="fill: none; stroke: #d3d3d3; stroke-width: 3"/>
    <path d="M 287.317789 249.19146 
L 287.317789 227.820947 
" clip-path="url(#p31cd239903)" style="fill: none; stroke: #d3d3d3; stroke-width: 3"/>
    <path d="M 260.810016 221.687114 
L 260.810016 189.883853 
" clip-path="url(#p31cd239903)" style="fill: none; stroke: #d3d3d3; stroke-width: 3"/>
    <path d="M 224.199281 275.395557 
L 224.199281 265.034334 
" clip-path="url(#p31cd239903)" style="fill: none; stroke: #d3d3d3; stroke-width: 3"/>
    <path d="M 261.33312 257.241866 
L 261.33312 250.318443 
" clip-path="url(#p31cd239903)" style="fill: none; stroke: #d3d3d3; stroke-width: 3"/>
    <path d="M 242.075014 278.255496 
L 242.075014 251.335984 
" clip-path="url(#p31cd239903)" style="fill: none; stroke: #d3d3d3; stroke-width: 3"/>
    <path d="M 226.150672 281.860537 
L 226.150672 272.184133 
" clip-path="url(#p31cd239903)" style="fill: none; stroke: #d3d3d3; stroke-width: 3"/>
    <path d="M 211.433242 285.132533 
L 211.433242 264.707393 
" clip-path="url(#p31cd239903)" style="fill: none; stroke: #d3d3d3; stroke-width: 3"/>
    <path d="M 297.727398 275.973652 
L 297.727398 269.718357 
" clip-path="url(#p31cd239903)" style="fill: none; stroke: #d3d3d3; stroke-width: 3"/>
    <path d="M 240.98617 274.716116 
L 240.98617 249.02242 
" clip-path="url(#p31cd239903)" style="fill: none; stroke: #d3d3d3; stroke-width: 3"/>
    <path d="M 280.010728 240.853957 
L 280.010728 197.537642 
" clip-path="url(#p31cd239903)" style="fill: none; stroke: #d3d3d3; stroke-width: 3"/>
    <path d="M 255.552737 219.502073 
L 255.552737 196.133049 
" clip-path="url(#p31cd239903)" style="fill: none; stroke: #d3d3d3; stroke-width: 3"/>
   </g>
   <g id="line2d_12">
    <path d="M 73.745327 183.186595 
L 130.092997 197.728803 
L 130.921109 197.942523 
L 141.847264 200.762345 
L 82.118274 185.347485 
L 106.853396 191.731126 
L 146.692947 202.012919 
L 116.515246 194.224657 
L 74.768578 183.450675 
L 171.857703 208.50744 
L 123.810827 196.107501 
L 80.391538 184.901849 
L 226.286778 222.554498 
L 92.580358 188.04754 
L 176.459052 209.694956 
L 188.370742 212.769126 
L 66.102102 181.214031 
L 111.69416 192.980431 
L 147.370195 202.187703 
L 193.455839 214.081488 
L 180.142099 210.645477 
L 191.550363 213.589722 
L 158.166803 204.974092 
L 93.474063 188.278188 
L 179.402538 210.454611 
L 161.38906 205.805692 
L 168.786311 207.714775 
L 236.101131 225.087386 
L 163.394566 206.323273 
L 214.197987 219.434622 
L 154.524752 204.034151 
L 178.979463 210.345424 
L 218.800976 220.622562 
L 130.81944 197.916284 
L 209.572041 218.240758 
L 216.334679 219.98606 
L 171.723237 208.472737 
L 188.165764 212.716225 
L 210.895379 218.582285 
L 164.606396 206.636023 
L 235.112317 224.832193 
L 296.782859 240.748129 
L 130.576746 197.853649 
L 192.053789 213.719647 
L 146.302669 201.912196 
L 224.876528 222.19054 
L 179.323827 210.434298 
L 241.26658 226.420485 
L 258.545417 230.879808 
L 281.591519 236.827547 
L 188.647872 212.840648 
L 150.174296 202.911386 
L 244.001809 227.126393 
L 431.719148 275.57249 
L 239.154486 225.875396 
L 200.810455 215.979567 
L 296.910766 240.781139 
L 320.722666 246.926515 
L 294.824908 240.242821 
L 102.771871 190.677766 
L 170.145726 208.065613 
L 150.815467 203.076859 
L 209.078453 218.113373 
L 149.724984 202.795427 
L 297.766754 241.002052 
L 216.590492 220.05208 
L 224.801096 222.171073 
L 235.35829 224.895674 
L 301.603945 241.992355 
L 287.317789 238.305383 
L 260.810016 231.464256 
L 224.199281 222.015756 
L 261.33312 231.599259 
L 242.075014 226.629126 
L 226.150672 222.519371 
L 211.433242 218.721097 
L 297.727398 240.991895 
L 240.98617 226.348117 
L 280.010728 236.419576 
L 255.552737 230.107457 
" clip-path="url(#p31cd239903)" style="fill: none; stroke: #1f77b4; stroke-width: 1.5; stroke-linecap: square"/>
   </g>
   <g id="line2d_13">
    <defs>
     <path id="m28bc656912" d="M 0 3 
C 0.795609 3 1.55874 2.683901 2.12132 2.12132 
C 2.683901 1.55874 3 0.795609 3 0 
C 3 -0.795609 2.683901 -1.55874 2.12132 -2.12132 
C 1.55874 -2.683901 0.795609 -3 0 -3 
C -0.795609 -3 -1.55874 -2.683901 -2.12132 -2.12132 
C -2.683901 -1.55874 -3 -0.795609 -3 0 
C -3 0.795609 -2.683901 1.55874 -2.12132 2.12132 
C -1.55874 2.683901 -0.795609 3 0 3 
z
" style="stroke: #000000"/>
    </defs>
    <g clip-path="url(#p31cd239903)">
     <use xlink:href="#m28bc656912" x="73.745327" y="192.827325" style="stroke: #000000"/>
     <use xlink:href="#m28bc656912" x="130.092997" y="192.882426" style="stroke: #000000"/>
     <use xlink:href="#m28bc656912" x="130.921109" y="134.185097" style="stroke: #000000"/>
     <use xlink:href="#m28bc656912" x="141.847264" y="173.753898" style="stroke: #000000"/>
     <use xlink:href="#m28bc656912" x="82.118274" y="206.355828" style="stroke: #000000"/>
     <use xlink:href="#m28bc656912" x="106.853396" y="165.474095" style="stroke: #000000"/>
     <use xlink:href="#m28bc656912" x="146.692947" y="189.236097" style="stroke: #000000"/>
     <use xlink:href="#m28bc656912" x="116.515246" y="188.143382" style="stroke: #000000"/>
     <use xlink:href="#m28bc656912" x="74.768578" y="198.406645" style="stroke: #000000"/>
     <use xlink:href="#m28bc656912" x="171.857703" y="176.798662" style="stroke: #000000"/>
     <use xlink:href="#m28bc656912" x="123.810827" y="190.408478" style="stroke: #000000"/>
     <use xlink:href="#m28bc656912" x="80.391538" y="197.884139" style="stroke: #000000"/>
     <use xlink:href="#m28bc656912" x="226.286778" y="196.337994" style="stroke: #000000"/>
     <use xlink:href="#m28bc656912" x="92.580358" y="208.043844" style="stroke: #000000"/>
     <use xlink:href="#m28bc656912" x="176.459052" y="195.443239" style="stroke: #000000"/>
     <use xlink:href="#m28bc656912" x="188.370742" y="178.032957" style="stroke: #000000"/>
     <use xlink:href="#m28bc656912" x="66.102102" y="131.432058" style="stroke: #000000"/>
     <use xlink:href="#m28bc656912" x="111.69416" y="202.217484" style="stroke: #000000"/>
     <use xlink:href="#m28bc656912" x="147.370195" y="211.970387" style="stroke: #000000"/>
     <use xlink:href="#m28bc656912" x="193.455839" y="184.306747" style="stroke: #000000"/>
     <use xlink:href="#m28bc656912" x="180.142099" y="204.077866" style="stroke: #000000"/>
     <use xlink:href="#m28bc656912" x="191.550363" y="189.553133" style="stroke: #000000"/>
     <use xlink:href="#m28bc656912" x="158.166803" y="180.208257" style="stroke: #000000"/>
     <use xlink:href="#m28bc656912" x="93.474063" y="216.099712" style="stroke: #000000"/>
     <use xlink:href="#m28bc656912" x="179.402538" y="191.750184" style="stroke: #000000"/>
     <use xlink:href="#m28bc656912" x="161.38906" y="191.875352" style="stroke: #000000"/>
     <use xlink:href="#m28bc656912" x="168.786311" y="175.340833" style="stroke: #000000"/>
     <use xlink:href="#m28bc656912" x="236.101131" y="268.036059" style="stroke: #000000"/>
     <use xlink:href="#m28bc656912" x="163.394566" y="208.02753" style="stroke: #000000"/>
     <use xlink:href="#m28bc656912" x="214.197987" y="209.349156" style="stroke: #000000"/>
     <use xlink:href="#m28bc656912" x="154.524752" y="272.448642" style="stroke: #000000"/>
     <use xlink:href="#m28bc656912" x="178.979463" y="150.036729" style="stroke: #000000"/>
     <use xlink:href="#m28bc656912" x="218.800976" y="158.982855" style="stroke: #000000"/>
     <use xlink:href="#m28bc656912" x="130.81944" y="188.747088" style="stroke: #000000"/>
     <use xlink:href="#m28bc656912" x="209.572041" y="179.885895" style="stroke: #000000"/>
     <use xlink:href="#m28bc656912" x="216.334679" y="194.824487" style="stroke: #000000"/>
     <use xlink:href="#m28bc656912" x="171.723237" y="178.871026" style="stroke: #000000"/>
     <use xlink:href="#m28bc656912" x="188.165764" y="197.31077" style="stroke: #000000"/>
     <use xlink:href="#m28bc656912" x="210.895379" y="263.944081" style="stroke: #000000"/>
     <use xlink:href="#m28bc656912" x="164.606396" y="190.605458" style="stroke: #000000"/>
     <use xlink:href="#m28bc656912" x="235.112317" y="199.676785" style="stroke: #000000"/>
     <use xlink:href="#m28bc656912" x="296.782859" y="199.677067" style="stroke: #000000"/>
     <use xlink:href="#m28bc656912" x="130.576746" y="191.097492" style="stroke: #000000"/>
     <use xlink:href="#m28bc656912" x="192.053789" y="150.765918" style="stroke: #000000"/>
     <use xlink:href="#m28bc656912" x="146.302669" y="201.708904" style="stroke: #000000"/>
     <use xlink:href="#m28bc656912" x="224.876528" y="182.593901" style="stroke: #000000"/>
     <use xlink:href="#m28bc656912" x="179.323827" y="268.178952" style="stroke: #000000"/>
     <use xlink:href="#m28bc656912" x="241.26658" y="174.580869" style="stroke: #000000"/>
     <use xlink:href="#m28bc656912" x="258.545417" y="248.131892" style="stroke: #000000"/>
     <use xlink:href="#m28bc656912" x="281.591519" y="286.448257" style="stroke: #000000"/>
     <use xlink:href="#m28bc656912" x="188.647872" y="165.294583" style="stroke: #000000"/>
     <use xlink:href="#m28bc656912" x="150.174296" y="260.623013" style="stroke: #000000"/>
     <use xlink:href="#m28bc656912" x="244.001809" y="231.329843" style="stroke: #000000"/>
     <use xlink:href="#m28bc656912" x="431.719148" y="261.425467" style="stroke: #000000"/>
     <use xlink:href="#m28bc656912" x="239.154486" y="276.604951" style="stroke: #000000"/>
     <use xlink:href="#m28bc656912" x="200.810455" y="221.794064" style="stroke: #000000"/>
     <use xlink:href="#m28bc656912" x="296.910766" y="282.498231" style="stroke: #000000"/>
     <use xlink:href="#m28bc656912" x="320.722666" y="213.236097" style="stroke: #000000"/>
     <use xlink:href="#m28bc656912" x="294.824908" y="173.209984" style="stroke: #000000"/>
     <use xlink:href="#m28bc656912" x="102.771871" y="225.549163" style="stroke: #000000"/>
     <use xlink:href="#m28bc656912" x="170.145726" y="257.390661" style="stroke: #000000"/>
     <use xlink:href="#m28bc656912" x="150.815467" y="256.020859" style="stroke: #000000"/>
     <use xlink:href="#m28bc656912" x="209.078453" y="268.343024" style="stroke: #000000"/>
     <use xlink:href="#m28bc656912" x="149.724984" y="202.450324" style="stroke: #000000"/>
     <use xlink:href="#m28bc656912" x="297.766754" y="239.632584" style="stroke: #000000"/>
     <use xlink:href="#m28bc656912" x="216.590492" y="271.14366" style="stroke: #000000"/>
     <use xlink:href="#m28bc656912" x="224.801096" y="264.936337" style="stroke: #000000"/>
     <use xlink:href="#m28bc656912" x="235.35829" y="234.352436" style="stroke: #000000"/>
     <use xlink:href="#m28bc656912" x="301.603945" y="271.767778" style="stroke: #000000"/>
     <use xlink:href="#m28bc656912" x="287.317789" y="238.506204" style="stroke: #000000"/>
     <use xlink:href="#m28bc656912" x="260.810016" y="205.785484" style="stroke: #000000"/>
     <use xlink:href="#m28bc656912" x="224.199281" y="270.214945" style="stroke: #000000"/>
     <use xlink:href="#m28bc656912" x="261.33312" y="253.780155" style="stroke: #000000"/>
     <use xlink:href="#m28bc656912" x="242.075014" y="264.79574" style="stroke: #000000"/>
     <use xlink:href="#m28bc656912" x="226.150672" y="277.022335" style="stroke: #000000"/>
     <use xlink:href="#m28bc656912" x="211.433242" y="274.919963" style="stroke: #000000"/>
     <use xlink:href="#m28bc656912" x="297.727398" y="272.846005" style="stroke: #000000"/>
     <use xlink:href="#m28bc656912" x="240.98617" y="261.869268" style="stroke: #000000"/>
     <use xlink:href="#m28bc656912" x="280.010728" y="219.195799" style="stroke: #000000"/>
     <use xlink:href="#m28bc656912" x="255.552737" y="207.817561" style="stroke: #000000"/>
    </g>
   </g>
   <g id="patch_3">
    <path d="M 47.82125 303.64 
L 47.82125 46.675714 
" style="fill: none; stroke: #000000; stroke-width: 0.8; stroke-linejoin: miter; stroke-linecap: square"/>
   </g>
   <g id="patch_4">
    <path d="M 450 303.64 
L 450 46.675714 
" style="fill: none; stroke: #000000; stroke-width: 0.8; stroke-linejoin: miter; stroke-linecap: square"/>
   </g>
   <g id="patch_5">
    <path d="M 47.82125 303.64 
L 450 303.64 
" style="fill: none; stroke: #000000; stroke-width: 0.8; stroke-linejoin: miter; stroke-linecap: square"/>
   </g>
   <g id="patch_6">
    <path d="M 47.82125 46.675714 
L 450 46.675714 
" style="fill: none; stroke: #000000; stroke-width: 0.8; stroke-linejoin: miter; stroke-linecap: square"/>
   </g>
   <g id="text_14">
    <!-- y = -0.04x + 0.63 -->
    <g transform="translate(43.314906 18.599375)scale(0.1 -0.1)">
     <defs>
      <path id="DejaVuSans-79" d="M 2059 -325 
Q 1816 -950 1584 -1140 
Q 1353 -1331 966 -1331 
L 506 -1331 
L 506 -850 
L 844 -850 
Q 1081 -850 1212 -737 
Q 1344 -625 1503 -206 
L 1606 56 
L 191 3500 
L 800 3500 
L 1894 763 
L 2988 3500 
L 3597 3500 
L 2059 -325 
z
" transform="scale(0.015625)"/>
      <path id="DejaVuSans-20" transform="scale(0.015625)"/>
      <path id="DejaVuSans-3d" d="M 678 2906 
L 4684 2906 
L 4684 2381 
L 678 2381 
L 678 2906 
z
M 678 1631 
L 4684 1631 
L 4684 1100 
L 678 1100 
L 678 1631 
z
" transform="scale(0.015625)"/>
      <path id="DejaVuSans-2d" d="M 313 2009 
L 1997 2009 
L 1997 1497 
L 313 1497 
L 313 2009 
z
" transform="scale(0.015625)"/>
      <path id="DejaVuSans-34" d="M 2419 4116 
L 825 1625 
L 2419 1625 
L 2419 4116 
z
M 2253 4666 
L 3047 4666 
L 3047 1625 
L 3713 1625 
L 3713 1100 
L 3047 1100 
L 3047 0 
L 2419 0 
L 2419 1100 
L 313 1100 
L 313 1709 
L 2253 4666 
z
" transform="scale(0.015625)"/>
      <path id="DejaVuSans-78" d="M 3513 3500 
L 2247 1797 
L 3578 0 
L 2900 0 
L 1881 1375 
L 863 0 
L 184 0 
L 1544 1831 
L 300 3500 
L 978 3500 
L 1906 2253 
L 2834 3500 
L 3513 3500 
z
" transform="scale(0.015625)"/>
      <path id="DejaVuSans-2b" d="M 2944 4013 
L 2944 2272 
L 4684 2272 
L 4684 1741 
L 2944 1741 
L 2944 0 
L 2419 0 
L 2419 1741 
L 678 1741 
L 678 2272 
L 2419 2272 
L 2419 4013 
L 2944 4013 
z
" transform="scale(0.015625)"/>
      <path id="DejaVuSans-36" d="M 2113 2584 
Q 1688 2584 1439 2293 
Q 1191 2003 1191 1497 
Q 1191 994 1439 701 
Q 1688 409 2113 409 
Q 2538 409 2786 701 
Q 3034 994 3034 1497 
Q 3034 2003 2786 2293 
Q 2538 2584 2113 2584 
z
M 3366 4563 
L 3366 3988 
Q 3128 4100 2886 4159 
Q 2644 4219 2406 4219 
Q 1781 4219 1451 3797 
Q 1122 3375 1075 2522 
Q 1259 2794 1537 2939 
Q 1816 3084 2150 3084 
Q 2853 3084 3261 2657 
Q 3669 2231 3669 1497 
Q 3669 778 3244 343 
Q 2819 -91 2113 -91 
Q 1303 -91 875 529 
Q 447 1150 447 2328 
Q 447 3434 972 4092 
Q 1497 4750 2381 4750 
Q 2619 4750 2861 4703 
Q 3103 4656 3366 4563 
z
" transform="scale(0.015625)"/>
      <path id="DejaVuSans-33" d="M 2597 2516 
Q 3050 2419 3304 2112 
Q 3559 1806 3559 1356 
Q 3559 666 3084 287 
Q 2609 -91 1734 -91 
Q 1441 -91 1130 -33 
Q 819 25 488 141 
L 488 750 
Q 750 597 1062 519 
Q 1375 441 1716 441 
Q 2309 441 2620 675 
Q 2931 909 2931 1356 
Q 2931 1769 2642 2001 
Q 2353 2234 1838 2234 
L 1294 2234 
L 1294 2753 
L 1863 2753 
Q 2328 2753 2575 2939 
Q 2822 3125 2822 3475 
Q 2822 3834 2567 4026 
Q 2313 4219 1838 4219 
Q 1578 4219 1281 4162 
Q 984 4106 628 3988 
L 628 4550 
Q 988 4650 1302 4700 
Q 1616 4750 1894 4750 
Q 2613 4750 3031 4423 
Q 3450 4097 3450 3541 
Q 3450 3153 3228 2886 
Q 3006 2619 2597 2516 
z
" transform="scale(0.015625)"/>
     </defs>
     <use xlink:href="#DejaVuSans-79"/>
     <use xlink:href="#DejaVuSans-20" x="59.179688"/>
     <use xlink:href="#DejaVuSans-3d" x="90.966797"/>
     <use xlink:href="#DejaVuSans-20" x="174.755859"/>
     <use xlink:href="#DejaVuSans-2d" x="206.542969"/>
     <use xlink:href="#DejaVuSans-30" x="242.626953"/>
     <use xlink:href="#DejaVuSans-2e" x="306.25"/>
     <use xlink:href="#DejaVuSans-30" x="338.037109"/>
     <use xlink:href="#DejaVuSans-34" x="401.660156"/>
     <use xlink:href="#DejaVuSans-78" x="465.283203"/>
     <use xlink:href="#DejaVuSans-20" x="524.462891"/>
     <use xlink:href="#DejaVuSans-2b" x="556.25"/>
     <use xlink:href="#DejaVuSans-20" x="640.039062"/>
     <use xlink:href="#DejaVuSans-30" x="671.826172"/>
     <use xlink:href="#DejaVuSans-2e" x="735.449219"/>
     <use xlink:href="#DejaVuSans-36" x="767.236328"/>
     <use xlink:href="#DejaVuSans-33" x="830.859375"/>
    </g>
   </g>
   <g id="text_15">
    <!-- r^2 = 0.20 -->
    <g transform="translate(60.111781 26.308304)scale(0.1 -0.1)">
     <defs>
      <path id="DejaVuSans-5e" d="M 2988 4666 
L 4684 2925 
L 4056 2925 
L 2681 4159 
L 1306 2925 
L 678 2925 
L 2375 4666 
L 2988 4666 
z
" transform="scale(0.015625)"/>
     </defs>
     <use xlink:href="#DejaVuSans-72"/>
     <use xlink:href="#DejaVuSans-5e" x="41.113281"/>
     <use xlink:href="#DejaVuSans-32" x="124.902344"/>
     <use xlink:href="#DejaVuSans-20" x="188.525391"/>
     <use xlink:href="#DejaVuSans-3d" x="220.3125"/>
     <use xlink:href="#DejaVuSans-20" x="304.101562"/>
     <use xlink:href="#DejaVuSans-30" x="335.888672"/>
     <use xlink:href="#DejaVuSans-2e" x="399.511719"/>
     <use xlink:href="#DejaVuSans-32" x="431.298828"/>
     <use xlink:href="#DejaVuSans-30" x="494.921875"/>
    </g>
   </g>
   <g id="text_16">
    <!-- n = 80 -->
    <g transform="translate(71.139906 34.017232)scale(0.1 -0.1)">
     <defs>
      <path id="DejaVuSans-38" d="M 2034 2216 
Q 1584 2216 1326 1975 
Q 1069 1734 1069 1313 
Q 1069 891 1326 650 
Q 1584 409 2034 409 
Q 2484 409 2743 651 
Q 3003 894 3003 1313 
Q 3003 1734 2745 1975 
Q 2488 2216 2034 2216 
z
M 1403 2484 
Q 997 2584 770 2862 
Q 544 3141 544 3541 
Q 544 4100 942 4425 
Q 1341 4750 2034 4750 
Q 2731 4750 3128 4425 
Q 3525 4100 3525 3541 
Q 3525 3141 3298 2862 
Q 3072 2584 2669 2484 
Q 3125 2378 3379 2068 
Q 3634 1759 3634 1313 
Q 3634 634 3220 271 
Q 2806 -91 2034 -91 
Q 1263 -91 848 271 
Q 434 634 434 1313 
Q 434 1759 690 2068 
Q 947 2378 1403 2484 
z
M 1172 3481 
Q 1172 3119 1398 2916 
Q 1625 2713 2034 2713 
Q 2441 2713 2670 2916 
Q 2900 3119 2900 3481 
Q 2900 3844 2670 4047 
Q 2441 4250 2034 4250 
Q 1625 4250 1398 4047 
Q 1172 3844 1172 3481 
z
" transform="scale(0.015625)"/>
     </defs>
     <use xlink:href="#DejaVuSans-6e"/>
     <use xlink:href="#DejaVuSans-20" x="63.378906"/>
     <use xlink:href="#DejaVuSans-3d" x="95.166016"/>
     <use xlink:href="#DejaVuSans-20" x="178.955078"/>
     <use xlink:href="#DejaVuSans-38" x="210.742188"/>
     <use xlink:href="#DejaVuSans-30" x="274.365234"/>
    </g>
   </g>
   <g id="text_17">
    <!-- HBONDDiff vs PercentGpA_transformed -->
    <g transform="translate(130.507187 40.675714)scale(0.12 -0.12)">
     <defs>
      <path id="DejaVuSans-76" d="M 191 3500 
L 800 3500 
L 1894 563 
L 2988 3500 
L 3597 3500 
L 2284 0 
L 1503 0 
L 191 3500 
z
" transform="scale(0.015625)"/>
     </defs>
     <use xlink:href="#DejaVuSans-48"/>
     <use xlink:href="#DejaVuSans-42" x="75.195312"/>
     <use xlink:href="#DejaVuSans-4f" x="142.048828"/>
     <use xlink:href="#DejaVuSans-4e" x="220.759766"/>
     <use xlink:href="#DejaVuSans-44" x="295.564453"/>
     <use xlink:href="#DejaVuSans-44" x="372.566406"/>
     <use xlink:href="#DejaVuSans-69" x="449.568359"/>
     <use xlink:href="#DejaVuSans-66" x="477.351562"/>
     <use xlink:href="#DejaVuSans-66" x="512.556641"/>
     <use xlink:href="#DejaVuSans-20" x="547.761719"/>
     <use xlink:href="#DejaVuSans-76" x="579.548828"/>
     <use xlink:href="#DejaVuSans-73" x="638.728516"/>
     <use xlink:href="#DejaVuSans-20" x="690.828125"/>
     <use xlink:href="#DejaVuSans-50" x="722.615234"/>
     <use xlink:href="#DejaVuSans-65" x="779.292969"/>
     <use xlink:href="#DejaVuSans-72" x="840.816406"/>
     <use xlink:href="#DejaVuSans-63" x="879.679688"/>
     <use xlink:href="#DejaVuSans-65" x="934.660156"/>
     <use xlink:href="#DejaVuSans-6e" x="996.183594"/>
     <use xlink:href="#DejaVuSans-74" x="1059.5625"/>
     <use xlink:href="#DejaVuSans-47" x="1098.771484"/>
     <use xlink:href="#DejaVuSans-70" x="1176.261719"/>
     <use xlink:href="#DejaVuSans-41" x="1239.738281"/>
     <use xlink:href="#DejaVuSans-5f" x="1308.146484"/>
     <use xlink:href="#DejaVuSans-74" x="1358.146484"/>
     <use xlink:href="#DejaVuSans-72" x="1397.355469"/>
     <use xlink:href="#DejaVuSans-61" x="1438.46875"/>
     <use xlink:href="#DejaVuSans-6e" x="1499.748047"/>
     <use xlink:href="#DejaVuSans-73" x="1563.126953"/>
     <use xlink:href="#DejaVuSans-66" x="1615.226562"/>
     <use xlink:href="#DejaVuSans-6f" x="1650.431641"/>
     <use xlink:href="#DejaVuSans-72" x="1711.613281"/>
     <use xlink:href="#DejaVuSans-6d" x="1750.976562"/>
     <use xlink:href="#DejaVuSans-65" x="1848.388672"/>
     <use xlink:href="#DejaVuSans-64" x="1909.912109"/>
    </g>
   </g>
  </g>
 </g>
 <defs>
  <clipPath id="p31cd239903">
   <rect x="47.82125" y="46.675714" width="402.17875" height="256.964286"/>
  </clipPath>
 </defs>
</svg>
