<?xml version="1.0" encoding="utf-8" standalone="no"?>
<!DOCTYPE svg PUBLIC "-//W3C//DTD SVG 1.1//EN"
  "http://www.w3.org/Graphics/SVG/1.1/DTD/svg11.dtd">
<svg xmlns:xlink="http://www.w3.org/1999/xlink" width="460.8pt" height="345.6pt" viewBox="0 0 460.8 345.6" xmlns="http://www.w3.org/2000/svg" version="1.1">
 <metadata>
  <rdf:RDF xmlns:dc="http://purl.org/dc/elements/1.1/" xmlns:cc="http://creativecommons.org/ns#" xmlns:rdf="http://www.w3.org/1999/02/22-rdf-syntax-ns#">
   <cc:Work>
    <dc:type rdf:resource="http://purl.org/dc/dcmitype/StillImage"/>
    <dc:date>2024-02-03T13:11:21.449520</dc:date>
    <dc:format>image/svg+xml</dc:format>
    <dc:creator>
     <cc:Agent>
      <dc:title>Matplotlib v3.5.3, https://matplotlib.org/</dc:title>
     </cc:Agent>
    </dc:creator>
   </cc:Work>
  </rdf:RDF>
 </metadata>
 <defs>
  <style type="text/css">*{stroke-linejoin: round; stroke-linecap: butt}</style>
 </defs>
 <g id="figure_1">
  <g id="patch_1">
   <path d="M 0 345.6 
L 460.8 345.6 
L 460.8 0 
L 0 0 
z
" style="fill: #ffffff"/>
  </g>
  <g id="axes_1">
   <g id="patch_2">
    <path d="M 47.82125 303.64 
L 450 303.64 
L 450 46.675714 
L 47.82125 46.675714 
z
" style="fill: #ffffff"/>
   </g>
   <g id="PathCollection_1">
    <defs>
     <path id="mcfde63a31c" d="M 0 3 
C 0.795609 3 1.55874 2.683901 2.12132 2.12132 
C 2.683901 1.55874 3 0.795609 3 0 
C 3 -0.795609 2.683901 -1.55874 2.12132 -2.12132 
C 1.55874 -2.683901 0.795609 -3 0 -3 
C -0.795609 -3 -1.55874 -2.683901 -2.12132 -2.12132 
C -2.683901 -1.55874 -3 -0.795609 -3 0 
C -3 0.795609 -2.683901 1.55874 -2.12132 2.12132 
C -1.55874 2.683901 -0.795609 3 0 3 
z
" style="stroke: #1f77b4"/>
    </defs>
    <g clip-path="url(#pafdd492920)">
     <use xlink:href="#mcfde63a31c" x="249.025388" y="192.827325" style="fill: #1f77b4; stroke: #1f77b4"/>
     <use xlink:href="#mcfde63a31c" x="129.008367" y="192.882426" style="fill: #1f77b4; stroke: #1f77b4"/>
     <use xlink:href="#mcfde63a31c" x="261.550899" y="134.185097" style="fill: #1f77b4; stroke: #1f77b4"/>
     <use xlink:href="#mcfde63a31c" x="231.376549" y="173.753898" style="fill: #1f77b4; stroke: #1f77b4"/>
     <use xlink:href="#mcfde63a31c" x="66.102102" y="206.355828" style="fill: #1f77b4; stroke: #1f77b4"/>
     <use xlink:href="#mcfde63a31c" x="78.037406" y="165.474095" style="fill: #1f77b4; stroke: #1f77b4"/>
     <use xlink:href="#mcfde63a31c" x="230.835526" y="189.236097" style="fill: #1f77b4; stroke: #1f77b4"/>
     <use xlink:href="#mcfde63a31c" x="216.367249" y="188.143382" style="fill: #1f77b4; stroke: #1f77b4"/>
     <use xlink:href="#mcfde63a31c" x="157.264543" y="198.406645" style="fill: #1f77b4; stroke: #1f77b4"/>
     <use xlink:href="#mcfde63a31c" x="299.652061" y="176.798662" style="fill: #1f77b4; stroke: #1f77b4"/>
     <use xlink:href="#mcfde63a31c" x="188.070086" y="190.408478" style="fill: #1f77b4; stroke: #1f77b4"/>
     <use xlink:href="#mcfde63a31c" x="289.602141" y="197.884139" style="fill: #1f77b4; stroke: #1f77b4"/>
     <use xlink:href="#mcfde63a31c" x="191.693303" y="196.337994" style="fill: #1f77b4; stroke: #1f77b4"/>
     <use xlink:href="#mcfde63a31c" x="283.109861" y="208.043844" style="fill: #1f77b4; stroke: #1f77b4"/>
     <use xlink:href="#mcfde63a31c" x="185.569902" y="195.443239" style="fill: #1f77b4; stroke: #1f77b4"/>
     <use xlink:href="#mcfde63a31c" x="190.889966" y="178.032957" style="fill: #1f77b4; stroke: #1f77b4"/>
     <use xlink:href="#mcfde63a31c" x="187.160183" y="131.432058" style="fill: #1f77b4; stroke: #1f77b4"/>
     <use xlink:href="#mcfde63a31c" x="195.13618" y="202.217484" style="fill: #1f77b4; stroke: #1f77b4"/>
     <use xlink:href="#mcfde63a31c" x="144.296376" y="211.970387" style="fill: #1f77b4; stroke: #1f77b4"/>
     <use xlink:href="#mcfde63a31c" x="141.43551" y="184.306747" style="fill: #1f77b4; stroke: #1f77b4"/>
     <use xlink:href="#mcfde63a31c" x="268.518624" y="204.077866" style="fill: #1f77b4; stroke: #1f77b4"/>
     <use xlink:href="#mcfde63a31c" x="300.168492" y="189.553133" style="fill: #1f77b4; stroke: #1f77b4"/>
     <use xlink:href="#mcfde63a31c" x="232.335636" y="180.208257" style="fill: #1f77b4; stroke: #1f77b4"/>
     <use xlink:href="#mcfde63a31c" x="219.588797" y="216.099712" style="fill: #1f77b4; stroke: #1f77b4"/>
     <use xlink:href="#mcfde63a31c" x="218.924814" y="191.750184" style="fill: #1f77b4; stroke: #1f77b4"/>
     <use xlink:href="#mcfde63a31c" x="178.552993" y="191.875352" style="fill: #1f77b4; stroke: #1f77b4"/>
     <use xlink:href="#mcfde63a31c" x="187.684812" y="175.340833" style="fill: #1f77b4; stroke: #1f77b4"/>
     <use xlink:href="#mcfde63a31c" x="217.621439" y="268.036059" style="fill: #1f77b4; stroke: #1f77b4"/>
     <use xlink:href="#mcfde63a31c" x="273.084534" y="208.02753" style="fill: #1f77b4; stroke: #1f77b4"/>
     <use xlink:href="#mcfde63a31c" x="355.71356" y="209.349156" style="fill: #1f77b4; stroke: #1f77b4"/>
     <use xlink:href="#mcfde63a31c" x="329.375557" y="272.448642" style="fill: #1f77b4; stroke: #1f77b4"/>
     <use xlink:href="#mcfde63a31c" x="321.407759" y="150.036729" style="fill: #1f77b4; stroke: #1f77b4"/>
     <use xlink:href="#mcfde63a31c" x="189.61938" y="158.982855" style="fill: #1f77b4; stroke: #1f77b4"/>
     <use xlink:href="#mcfde63a31c" x="392.478558" y="188.747088" style="fill: #1f77b4; stroke: #1f77b4"/>
     <use xlink:href="#mcfde63a31c" x="189.824314" y="179.885895" style="fill: #1f77b4; stroke: #1f77b4"/>
     <use xlink:href="#mcfde63a31c" x="241.852729" y="194.824487" style="fill: #1f77b4; stroke: #1f77b4"/>
     <use xlink:href="#mcfde63a31c" x="121.229106" y="178.871026" style="fill: #1f77b4; stroke: #1f77b4"/>
     <use xlink:href="#mcfde63a31c" x="267.616918" y="197.31077" style="fill: #1f77b4; stroke: #1f77b4"/>
     <use xlink:href="#mcfde63a31c" x="292.82369" y="263.944081" style="fill: #1f77b4; stroke: #1f77b4"/>
     <use xlink:href="#mcfde63a31c" x="368.058729" y="190.605458" style="fill: #1f77b4; stroke: #1f77b4"/>
     <use xlink:href="#mcfde63a31c" x="259.116293" y="199.676785" style="fill: #1f77b4; stroke: #1f77b4"/>
     <use xlink:href="#mcfde63a31c" x="323.047223" y="199.677067" style="fill: #1f77b4; stroke: #1f77b4"/>
     <use xlink:href="#mcfde63a31c" x="239.95095" y="191.097492" style="fill: #1f77b4; stroke: #1f77b4"/>
     <use xlink:href="#mcfde63a31c" x="403.348209" y="150.765918" style="fill: #1f77b4; stroke: #1f77b4"/>
     <use xlink:href="#mcfde63a31c" x="315.800789" y="201.708904" style="fill: #1f77b4; stroke: #1f77b4"/>
     <use xlink:href="#mcfde63a31c" x="256.050494" y="182.593901" style="fill: #1f77b4; stroke: #1f77b4"/>
     <use xlink:href="#mcfde63a31c" x="217.678821" y="268.178952" style="fill: #1f77b4; stroke: #1f77b4"/>
     <use xlink:href="#mcfde63a31c" x="308.324829" y="174.580869" style="fill: #1f77b4; stroke: #1f77b4"/>
     <use xlink:href="#mcfde63a31c" x="323.096407" y="248.131892" style="fill: #1f77b4; stroke: #1f77b4"/>
     <use xlink:href="#mcfde63a31c" x="264.97738" y="286.448257" style="fill: #1f77b4; stroke: #1f77b4"/>
     <use xlink:href="#mcfde63a31c" x="257.689959" y="165.294583" style="fill: #1f77b4; stroke: #1f77b4"/>
     <use xlink:href="#mcfde63a31c" x="277.281563" y="260.623013" style="fill: #1f77b4; stroke: #1f77b4"/>
     <use xlink:href="#mcfde63a31c" x="367.771823" y="231.329843" style="fill: #1f77b4; stroke: #1f77b4"/>
     <use xlink:href="#mcfde63a31c" x="232.893054" y="261.425467" style="fill: #1f77b4; stroke: #1f77b4"/>
     <use xlink:href="#mcfde63a31c" x="205.874674" y="276.604951" style="fill: #1f77b4; stroke: #1f77b4"/>
     <use xlink:href="#mcfde63a31c" x="367.878388" y="221.794064" style="fill: #1f77b4; stroke: #1f77b4"/>
     <use xlink:href="#mcfde63a31c" x="376.54296" y="282.498231" style="fill: #1f77b4; stroke: #1f77b4"/>
     <use xlink:href="#mcfde63a31c" x="207.973189" y="213.236097" style="fill: #1f77b4; stroke: #1f77b4"/>
     <use xlink:href="#mcfde63a31c" x="225.146583" y="173.209984" style="fill: #1f77b4; stroke: #1f77b4"/>
     <use xlink:href="#mcfde63a31c" x="232.352031" y="225.549163" style="fill: #1f77b4; stroke: #1f77b4"/>
     <use xlink:href="#mcfde63a31c" x="299.406141" y="257.390661" style="fill: #1f77b4; stroke: #1f77b4"/>
     <use xlink:href="#mcfde63a31c" x="213.63754" y="256.020859" style="fill: #1f77b4; stroke: #1f77b4"/>
     <use xlink:href="#mcfde63a31c" x="287.12655" y="268.343024" style="fill: #1f77b4; stroke: #1f77b4"/>
     <use xlink:href="#mcfde63a31c" x="410.578249" y="202.450324" style="fill: #1f77b4; stroke: #1f77b4"/>
     <use xlink:href="#mcfde63a31c" x="101.867027" y="239.632584" style="fill: #1f77b4; stroke: #1f77b4"/>
     <use xlink:href="#mcfde63a31c" x="325.399855" y="271.14366" style="fill: #1f77b4; stroke: #1f77b4"/>
     <use xlink:href="#mcfde63a31c" x="292.110523" y="264.936337" style="fill: #1f77b4; stroke: #1f77b4"/>
     <use xlink:href="#mcfde63a31c" x="251.369822" y="234.352436" style="fill: #1f77b4; stroke: #1f77b4"/>
     <use xlink:href="#mcfde63a31c" x="214.613021" y="271.767778" style="fill: #1f77b4; stroke: #1f77b4"/>
     <use xlink:href="#mcfde63a31c" x="106.818211" y="238.506204" style="fill: #1f77b4; stroke: #1f77b4"/>
     <use xlink:href="#mcfde63a31c" x="207.219035" y="205.785484" style="fill: #1f77b4; stroke: #1f77b4"/>
     <use xlink:href="#mcfde63a31c" x="172.872247" y="270.214945" style="fill: #1f77b4; stroke: #1f77b4"/>
     <use xlink:href="#mcfde63a31c" x="284.987048" y="253.780155" style="fill: #1f77b4; stroke: #1f77b4"/>
     <use xlink:href="#mcfde63a31c" x="260.10817" y="264.79574" style="fill: #1f77b4; stroke: #1f77b4"/>
     <use xlink:href="#mcfde63a31c" x="337.818801" y="277.022335" style="fill: #1f77b4; stroke: #1f77b4"/>
     <use xlink:href="#mcfde63a31c" x="367.747231" y="274.919963" style="fill: #1f77b4; stroke: #1f77b4"/>
     <use xlink:href="#mcfde63a31c" x="343.007707" y="272.846005" style="fill: #1f77b4; stroke: #1f77b4"/>
     <use xlink:href="#mcfde63a31c" x="315.841776" y="261.869268" style="fill: #1f77b4; stroke: #1f77b4"/>
     <use xlink:href="#mcfde63a31c" x="391.175183" y="219.195799" style="fill: #1f77b4; stroke: #1f77b4"/>
     <use xlink:href="#mcfde63a31c" x="431.719148" y="207.817561" style="fill: #1f77b4; stroke: #1f77b4"/>
    </g>
   </g>
   <g id="matplotlib.axis_1">
    <g id="xtick_1">
     <g id="line2d_1">
      <defs>
       <path id="mafe1778a73" d="M 0 0 
L 0 3.5 
" style="stroke: #000000; stroke-width: 0.8"/>
      </defs>
      <g>
       <use xlink:href="#mafe1778a73" x="128.360778" y="303.64" style="stroke: #000000; stroke-width: 0.8"/>
      </g>
     </g>
     <g id="text_1">
      <!-- −1000 -->
      <g transform="translate(111.445934 318.238437)scale(0.1 -0.1)">
       <defs>
        <path id="DejaVuSans-2212" d="M 678 2272 
L 4684 2272 
L 4684 1741 
L 678 1741 
L 678 2272 
z
" transform="scale(0.015625)"/>
        <path id="DejaVuSans-31" d="M 794 531 
L 1825 531 
L 1825 4091 
L 703 3866 
L 703 4441 
L 1819 4666 
L 2450 4666 
L 2450 531 
L 3481 531 
L 3481 0 
L 794 0 
L 794 531 
z
" transform="scale(0.015625)"/>
        <path id="DejaVuSans-30" d="M 2034 4250 
Q 1547 4250 1301 3770 
Q 1056 3291 1056 2328 
Q 1056 1369 1301 889 
Q 1547 409 2034 409 
Q 2525 409 2770 889 
Q 3016 1369 3016 2328 
Q 3016 3291 2770 3770 
Q 2525 4250 2034 4250 
z
M 2034 4750 
Q 2819 4750 3233 4129 
Q 3647 3509 3647 2328 
Q 3647 1150 3233 529 
Q 2819 -91 2034 -91 
Q 1250 -91 836 529 
Q 422 1150 422 2328 
Q 422 3509 836 4129 
Q 1250 4750 2034 4750 
z
" transform="scale(0.015625)"/>
       </defs>
       <use xlink:href="#DejaVuSans-2212"/>
       <use xlink:href="#DejaVuSans-31" x="83.789062"/>
       <use xlink:href="#DejaVuSans-30" x="147.412109"/>
       <use xlink:href="#DejaVuSans-30" x="211.035156"/>
       <use xlink:href="#DejaVuSans-30" x="274.658203"/>
      </g>
     </g>
    </g>
    <g id="xtick_2">
     <g id="line2d_2">
      <g>
       <use xlink:href="#mafe1778a73" x="210.334018" y="303.64" style="stroke: #000000; stroke-width: 0.8"/>
      </g>
     </g>
     <g id="text_2">
      <!-- −900 -->
      <g transform="translate(196.600424 318.238437)scale(0.1 -0.1)">
       <defs>
        <path id="DejaVuSans-39" d="M 703 97 
L 703 672 
Q 941 559 1184 500 
Q 1428 441 1663 441 
Q 2288 441 2617 861 
Q 2947 1281 2994 2138 
Q 2813 1869 2534 1725 
Q 2256 1581 1919 1581 
Q 1219 1581 811 2004 
Q 403 2428 403 3163 
Q 403 3881 828 4315 
Q 1253 4750 1959 4750 
Q 2769 4750 3195 4129 
Q 3622 3509 3622 2328 
Q 3622 1225 3098 567 
Q 2575 -91 1691 -91 
Q 1453 -91 1209 -44 
Q 966 3 703 97 
z
M 1959 2075 
Q 2384 2075 2632 2365 
Q 2881 2656 2881 3163 
Q 2881 3666 2632 3958 
Q 2384 4250 1959 4250 
Q 1534 4250 1286 3958 
Q 1038 3666 1038 3163 
Q 1038 2656 1286 2365 
Q 1534 2075 1959 2075 
z
" transform="scale(0.015625)"/>
       </defs>
       <use xlink:href="#DejaVuSans-2212"/>
       <use xlink:href="#DejaVuSans-39" x="83.789062"/>
       <use xlink:href="#DejaVuSans-30" x="147.412109"/>
       <use xlink:href="#DejaVuSans-30" x="211.035156"/>
      </g>
     </g>
    </g>
    <g id="xtick_3">
     <g id="line2d_3">
      <g>
       <use xlink:href="#mafe1778a73" x="292.307258" y="303.64" style="stroke: #000000; stroke-width: 0.8"/>
      </g>
     </g>
     <g id="text_3">
      <!-- −800 -->
      <g transform="translate(278.573665 318.238437)scale(0.1 -0.1)">
       <defs>
        <path id="DejaVuSans-38" d="M 2034 2216 
Q 1584 2216 1326 1975 
Q 1069 1734 1069 1313 
Q 1069 891 1326 650 
Q 1584 409 2034 409 
Q 2484 409 2743 651 
Q 3003 894 3003 1313 
Q 3003 1734 2745 1975 
Q 2488 2216 2034 2216 
z
M 1403 2484 
Q 997 2584 770 2862 
Q 544 3141 544 3541 
Q 544 4100 942 4425 
Q 1341 4750 2034 4750 
Q 2731 4750 3128 4425 
Q 3525 4100 3525 3541 
Q 3525 3141 3298 2862 
Q 3072 2584 2669 2484 
Q 3125 2378 3379 2068 
Q 3634 1759 3634 1313 
Q 3634 634 3220 271 
Q 2806 -91 2034 -91 
Q 1263 -91 848 271 
Q 434 634 434 1313 
Q 434 1759 690 2068 
Q 947 2378 1403 2484 
z
M 1172 3481 
Q 1172 3119 1398 2916 
Q 1625 2713 2034 2713 
Q 2441 2713 2670 2916 
Q 2900 3119 2900 3481 
Q 2900 3844 2670 4047 
Q 2441 4250 2034 4250 
Q 1625 4250 1398 4047 
Q 1172 3844 1172 3481 
z
" transform="scale(0.015625)"/>
       </defs>
       <use xlink:href="#DejaVuSans-2212"/>
       <use xlink:href="#DejaVuSans-38" x="83.789062"/>
       <use xlink:href="#DejaVuSans-30" x="147.412109"/>
       <use xlink:href="#DejaVuSans-30" x="211.035156"/>
      </g>
     </g>
    </g>
    <g id="xtick_4">
     <g id="line2d_4">
      <g>
       <use xlink:href="#mafe1778a73" x="374.280498" y="303.64" style="stroke: #000000; stroke-width: 0.8"/>
      </g>
     </g>
     <g id="text_4">
      <!-- −700 -->
      <g transform="translate(360.546905 318.238437)scale(0.1 -0.1)">
       <defs>
        <path id="DejaVuSans-37" d="M 525 4666 
L 3525 4666 
L 3525 4397 
L 1831 0 
L 1172 0 
L 2766 4134 
L 525 4134 
L 525 4666 
z
" transform="scale(0.015625)"/>
       </defs>
       <use xlink:href="#DejaVuSans-2212"/>
       <use xlink:href="#DejaVuSans-37" x="83.789062"/>
       <use xlink:href="#DejaVuSans-30" x="147.412109"/>
       <use xlink:href="#DejaVuSans-30" x="211.035156"/>
      </g>
     </g>
    </g>
    <g id="text_5">
     <!-- SasaDiff -->
     <g transform="translate(228.244219 331.916562)scale(0.1 -0.1)">
      <defs>
       <path id="DejaVuSans-53" d="M 3425 4513 
L 3425 3897 
Q 3066 4069 2747 4153 
Q 2428 4238 2131 4238 
Q 1616 4238 1336 4038 
Q 1056 3838 1056 3469 
Q 1056 3159 1242 3001 
Q 1428 2844 1947 2747 
L 2328 2669 
Q 3034 2534 3370 2195 
Q 3706 1856 3706 1288 
Q 3706 609 3251 259 
Q 2797 -91 1919 -91 
Q 1588 -91 1214 -16 
Q 841 59 441 206 
L 441 856 
Q 825 641 1194 531 
Q 1563 422 1919 422 
Q 2459 422 2753 634 
Q 3047 847 3047 1241 
Q 3047 1584 2836 1778 
Q 2625 1972 2144 2069 
L 1759 2144 
Q 1053 2284 737 2584 
Q 422 2884 422 3419 
Q 422 4038 858 4394 
Q 1294 4750 2059 4750 
Q 2388 4750 2728 4690 
Q 3069 4631 3425 4513 
z
" transform="scale(0.015625)"/>
       <path id="DejaVuSans-61" d="M 2194 1759 
Q 1497 1759 1228 1600 
Q 959 1441 959 1056 
Q 959 750 1161 570 
Q 1363 391 1709 391 
Q 2188 391 2477 730 
Q 2766 1069 2766 1631 
L 2766 1759 
L 2194 1759 
z
M 3341 1997 
L 3341 0 
L 2766 0 
L 2766 531 
Q 2569 213 2275 61 
Q 1981 -91 1556 -91 
Q 1019 -91 701 211 
Q 384 513 384 1019 
Q 384 1609 779 1909 
Q 1175 2209 1959 2209 
L 2766 2209 
L 2766 2266 
Q 2766 2663 2505 2880 
Q 2244 3097 1772 3097 
Q 1472 3097 1187 3025 
Q 903 2953 641 2809 
L 641 3341 
Q 956 3463 1253 3523 
Q 1550 3584 1831 3584 
Q 2591 3584 2966 3190 
Q 3341 2797 3341 1997 
z
" transform="scale(0.015625)"/>
       <path id="DejaVuSans-73" d="M 2834 3397 
L 2834 2853 
Q 2591 2978 2328 3040 
Q 2066 3103 1784 3103 
Q 1356 3103 1142 2972 
Q 928 2841 928 2578 
Q 928 2378 1081 2264 
Q 1234 2150 1697 2047 
L 1894 2003 
Q 2506 1872 2764 1633 
Q 3022 1394 3022 966 
Q 3022 478 2636 193 
Q 2250 -91 1575 -91 
Q 1294 -91 989 -36 
Q 684 19 347 128 
L 347 722 
Q 666 556 975 473 
Q 1284 391 1588 391 
Q 1994 391 2212 530 
Q 2431 669 2431 922 
Q 2431 1156 2273 1281 
Q 2116 1406 1581 1522 
L 1381 1569 
Q 847 1681 609 1914 
Q 372 2147 372 2553 
Q 372 3047 722 3315 
Q 1072 3584 1716 3584 
Q 2034 3584 2315 3537 
Q 2597 3491 2834 3397 
z
" transform="scale(0.015625)"/>
       <path id="DejaVuSans-44" d="M 1259 4147 
L 1259 519 
L 2022 519 
Q 2988 519 3436 956 
Q 3884 1394 3884 2338 
Q 3884 3275 3436 3711 
Q 2988 4147 2022 4147 
L 1259 4147 
z
M 628 4666 
L 1925 4666 
Q 3281 4666 3915 4102 
Q 4550 3538 4550 2338 
Q 4550 1131 3912 565 
Q 3275 0 1925 0 
L 628 0 
L 628 4666 
z
" transform="scale(0.015625)"/>
       <path id="DejaVuSans-69" d="M 603 3500 
L 1178 3500 
L 1178 0 
L 603 0 
L 603 3500 
z
M 603 4863 
L 1178 4863 
L 1178 4134 
L 603 4134 
L 603 4863 
z
" transform="scale(0.015625)"/>
       <path id="DejaVuSans-66" d="M 2375 4863 
L 2375 4384 
L 1825 4384 
Q 1516 4384 1395 4259 
Q 1275 4134 1275 3809 
L 1275 3500 
L 2222 3500 
L 2222 3053 
L 1275 3053 
L 1275 0 
L 697 0 
L 697 3053 
L 147 3053 
L 147 3500 
L 697 3500 
L 697 3744 
Q 697 4328 969 4595 
Q 1241 4863 1831 4863 
L 2375 4863 
z
" transform="scale(0.015625)"/>
      </defs>
      <use xlink:href="#DejaVuSans-53"/>
      <use xlink:href="#DejaVuSans-61" x="63.476562"/>
      <use xlink:href="#DejaVuSans-73" x="124.755859"/>
      <use xlink:href="#DejaVuSans-61" x="176.855469"/>
      <use xlink:href="#DejaVuSans-44" x="238.134766"/>
      <use xlink:href="#DejaVuSans-69" x="315.136719"/>
      <use xlink:href="#DejaVuSans-66" x="342.919922"/>
      <use xlink:href="#DejaVuSans-66" x="378.125"/>
     </g>
    </g>
   </g>
   <g id="matplotlib.axis_2">
    <g id="ytick_1">
     <g id="line2d_5">
      <defs>
       <path id="m4c21d6faf5" d="M 0 0 
L -3.5 0 
" style="stroke: #000000; stroke-width: 0.8"/>
      </defs>
      <g>
       <use xlink:href="#m4c21d6faf5" x="47.82125" y="303.64" style="stroke: #000000; stroke-width: 0.8"/>
      </g>
     </g>
     <g id="text_6">
      <!-- 0.0 -->
      <g transform="translate(24.918125 307.439219)scale(0.1 -0.1)">
       <defs>
        <path id="DejaVuSans-2e" d="M 684 794 
L 1344 794 
L 1344 0 
L 684 0 
L 684 794 
z
" transform="scale(0.015625)"/>
       </defs>
       <use xlink:href="#DejaVuSans-30"/>
       <use xlink:href="#DejaVuSans-2e" x="63.623047"/>
       <use xlink:href="#DejaVuSans-30" x="95.410156"/>
      </g>
     </g>
    </g>
    <g id="ytick_2">
     <g id="line2d_6">
      <g>
       <use xlink:href="#m4c21d6faf5" x="47.82125" y="253.490058" style="stroke: #000000; stroke-width: 0.8"/>
      </g>
     </g>
     <g id="text_7">
      <!-- 0.5 -->
      <g transform="translate(24.918125 257.289276)scale(0.1 -0.1)">
       <defs>
        <path id="DejaVuSans-35" d="M 691 4666 
L 3169 4666 
L 3169 4134 
L 1269 4134 
L 1269 2991 
Q 1406 3038 1543 3061 
Q 1681 3084 1819 3084 
Q 2600 3084 3056 2656 
Q 3513 2228 3513 1497 
Q 3513 744 3044 326 
Q 2575 -91 1722 -91 
Q 1428 -91 1123 -41 
Q 819 9 494 109 
L 494 744 
Q 775 591 1075 516 
Q 1375 441 1709 441 
Q 2250 441 2565 725 
Q 2881 1009 2881 1497 
Q 2881 1984 2565 2268 
Q 2250 2553 1709 2553 
Q 1456 2553 1204 2497 
Q 953 2441 691 2322 
L 691 4666 
z
" transform="scale(0.015625)"/>
       </defs>
       <use xlink:href="#DejaVuSans-30"/>
       <use xlink:href="#DejaVuSans-2e" x="63.623047"/>
       <use xlink:href="#DejaVuSans-35" x="95.410156"/>
      </g>
     </g>
    </g>
    <g id="ytick_3">
     <g id="line2d_7">
      <g>
       <use xlink:href="#m4c21d6faf5" x="47.82125" y="203.340115" style="stroke: #000000; stroke-width: 0.8"/>
      </g>
     </g>
     <g id="text_8">
      <!-- 1.0 -->
      <g transform="translate(24.918125 207.139334)scale(0.1 -0.1)">
       <use xlink:href="#DejaVuSans-31"/>
       <use xlink:href="#DejaVuSans-2e" x="63.623047"/>
       <use xlink:href="#DejaVuSans-30" x="95.410156"/>
      </g>
     </g>
    </g>
    <g id="ytick_4">
     <g id="line2d_8">
      <g>
       <use xlink:href="#m4c21d6faf5" x="47.82125" y="153.190173" style="stroke: #000000; stroke-width: 0.8"/>
      </g>
     </g>
     <g id="text_9">
      <!-- 1.5 -->
      <g transform="translate(24.918125 156.989392)scale(0.1 -0.1)">
       <use xlink:href="#DejaVuSans-31"/>
       <use xlink:href="#DejaVuSans-2e" x="63.623047"/>
       <use xlink:href="#DejaVuSans-35" x="95.410156"/>
      </g>
     </g>
    </g>
    <g id="ytick_5">
     <g id="line2d_9">
      <g>
       <use xlink:href="#m4c21d6faf5" x="47.82125" y="103.040231" style="stroke: #000000; stroke-width: 0.8"/>
      </g>
     </g>
     <g id="text_10">
      <!-- 2.0 -->
      <g transform="translate(24.918125 106.83945)scale(0.1 -0.1)">
       <defs>
        <path id="DejaVuSans-32" d="M 1228 531 
L 3431 531 
L 3431 0 
L 469 0 
L 469 531 
Q 828 903 1448 1529 
Q 2069 2156 2228 2338 
Q 2531 2678 2651 2914 
Q 2772 3150 2772 3378 
Q 2772 3750 2511 3984 
Q 2250 4219 1831 4219 
Q 1534 4219 1204 4116 
Q 875 4013 500 3803 
L 500 4441 
Q 881 4594 1212 4672 
Q 1544 4750 1819 4750 
Q 2544 4750 2975 4387 
Q 3406 4025 3406 3419 
Q 3406 3131 3298 2873 
Q 3191 2616 2906 2266 
Q 2828 2175 2409 1742 
Q 1991 1309 1228 531 
z
" transform="scale(0.015625)"/>
       </defs>
       <use xlink:href="#DejaVuSans-32"/>
       <use xlink:href="#DejaVuSans-2e" x="63.623047"/>
       <use xlink:href="#DejaVuSans-30" x="95.410156"/>
      </g>
     </g>
    </g>
    <g id="ytick_6">
     <g id="line2d_10">
      <g>
       <use xlink:href="#m4c21d6faf5" x="47.82125" y="52.890288" style="stroke: #000000; stroke-width: 0.8"/>
      </g>
     </g>
     <g id="text_11">
      <!-- 2.5 -->
      <g transform="translate(24.918125 56.689507)scale(0.1 -0.1)">
       <use xlink:href="#DejaVuSans-32"/>
       <use xlink:href="#DejaVuSans-2e" x="63.623047"/>
       <use xlink:href="#DejaVuSans-35" x="95.410156"/>
      </g>
     </g>
    </g>
    <g id="text_12">
     <!-- PercentGpA_transformed -->
     <g transform="translate(18.560313 237.696138)rotate(-90)scale(0.1 -0.1)">
      <defs>
       <path id="DejaVuSans-50" d="M 1259 4147 
L 1259 2394 
L 2053 2394 
Q 2494 2394 2734 2622 
Q 2975 2850 2975 3272 
Q 2975 3691 2734 3919 
Q 2494 4147 2053 4147 
L 1259 4147 
z
M 628 4666 
L 2053 4666 
Q 2838 4666 3239 4311 
Q 3641 3956 3641 3272 
Q 3641 2581 3239 2228 
Q 2838 1875 2053 1875 
L 1259 1875 
L 1259 0 
L 628 0 
L 628 4666 
z
" transform="scale(0.015625)"/>
       <path id="DejaVuSans-65" d="M 3597 1894 
L 3597 1613 
L 953 1613 
Q 991 1019 1311 708 
Q 1631 397 2203 397 
Q 2534 397 2845 478 
Q 3156 559 3463 722 
L 3463 178 
Q 3153 47 2828 -22 
Q 2503 -91 2169 -91 
Q 1331 -91 842 396 
Q 353 884 353 1716 
Q 353 2575 817 3079 
Q 1281 3584 2069 3584 
Q 2775 3584 3186 3129 
Q 3597 2675 3597 1894 
z
M 3022 2063 
Q 3016 2534 2758 2815 
Q 2500 3097 2075 3097 
Q 1594 3097 1305 2825 
Q 1016 2553 972 2059 
L 3022 2063 
z
" transform="scale(0.015625)"/>
       <path id="DejaVuSans-72" d="M 2631 2963 
Q 2534 3019 2420 3045 
Q 2306 3072 2169 3072 
Q 1681 3072 1420 2755 
Q 1159 2438 1159 1844 
L 1159 0 
L 581 0 
L 581 3500 
L 1159 3500 
L 1159 2956 
Q 1341 3275 1631 3429 
Q 1922 3584 2338 3584 
Q 2397 3584 2469 3576 
Q 2541 3569 2628 3553 
L 2631 2963 
z
" transform="scale(0.015625)"/>
       <path id="DejaVuSans-63" d="M 3122 3366 
L 3122 2828 
Q 2878 2963 2633 3030 
Q 2388 3097 2138 3097 
Q 1578 3097 1268 2742 
Q 959 2388 959 1747 
Q 959 1106 1268 751 
Q 1578 397 2138 397 
Q 2388 397 2633 464 
Q 2878 531 3122 666 
L 3122 134 
Q 2881 22 2623 -34 
Q 2366 -91 2075 -91 
Q 1284 -91 818 406 
Q 353 903 353 1747 
Q 353 2603 823 3093 
Q 1294 3584 2113 3584 
Q 2378 3584 2631 3529 
Q 2884 3475 3122 3366 
z
" transform="scale(0.015625)"/>
       <path id="DejaVuSans-6e" d="M 3513 2113 
L 3513 0 
L 2938 0 
L 2938 2094 
Q 2938 2591 2744 2837 
Q 2550 3084 2163 3084 
Q 1697 3084 1428 2787 
Q 1159 2491 1159 1978 
L 1159 0 
L 581 0 
L 581 3500 
L 1159 3500 
L 1159 2956 
Q 1366 3272 1645 3428 
Q 1925 3584 2291 3584 
Q 2894 3584 3203 3211 
Q 3513 2838 3513 2113 
z
" transform="scale(0.015625)"/>
       <path id="DejaVuSans-74" d="M 1172 4494 
L 1172 3500 
L 2356 3500 
L 2356 3053 
L 1172 3053 
L 1172 1153 
Q 1172 725 1289 603 
Q 1406 481 1766 481 
L 2356 481 
L 2356 0 
L 1766 0 
Q 1100 0 847 248 
Q 594 497 594 1153 
L 594 3053 
L 172 3053 
L 172 3500 
L 594 3500 
L 594 4494 
L 1172 4494 
z
" transform="scale(0.015625)"/>
       <path id="DejaVuSans-47" d="M 3809 666 
L 3809 1919 
L 2778 1919 
L 2778 2438 
L 4434 2438 
L 4434 434 
Q 4069 175 3628 42 
Q 3188 -91 2688 -91 
Q 1594 -91 976 548 
Q 359 1188 359 2328 
Q 359 3472 976 4111 
Q 1594 4750 2688 4750 
Q 3144 4750 3555 4637 
Q 3966 4525 4313 4306 
L 4313 3634 
Q 3963 3931 3569 4081 
Q 3175 4231 2741 4231 
Q 1884 4231 1454 3753 
Q 1025 3275 1025 2328 
Q 1025 1384 1454 906 
Q 1884 428 2741 428 
Q 3075 428 3337 486 
Q 3600 544 3809 666 
z
" transform="scale(0.015625)"/>
       <path id="DejaVuSans-70" d="M 1159 525 
L 1159 -1331 
L 581 -1331 
L 581 3500 
L 1159 3500 
L 1159 2969 
Q 1341 3281 1617 3432 
Q 1894 3584 2278 3584 
Q 2916 3584 3314 3078 
Q 3713 2572 3713 1747 
Q 3713 922 3314 415 
Q 2916 -91 2278 -91 
Q 1894 -91 1617 61 
Q 1341 213 1159 525 
z
M 3116 1747 
Q 3116 2381 2855 2742 
Q 2594 3103 2138 3103 
Q 1681 3103 1420 2742 
Q 1159 2381 1159 1747 
Q 1159 1113 1420 752 
Q 1681 391 2138 391 
Q 2594 391 2855 752 
Q 3116 1113 3116 1747 
z
" transform="scale(0.015625)"/>
       <path id="DejaVuSans-41" d="M 2188 4044 
L 1331 1722 
L 3047 1722 
L 2188 4044 
z
M 1831 4666 
L 2547 4666 
L 4325 0 
L 3669 0 
L 3244 1197 
L 1141 1197 
L 716 0 
L 50 0 
L 1831 4666 
z
" transform="scale(0.015625)"/>
       <path id="DejaVuSans-5f" d="M 3263 -1063 
L 3263 -1509 
L -63 -1509 
L -63 -1063 
L 3263 -1063 
z
" transform="scale(0.015625)"/>
       <path id="DejaVuSans-6f" d="M 1959 3097 
Q 1497 3097 1228 2736 
Q 959 2375 959 1747 
Q 959 1119 1226 758 
Q 1494 397 1959 397 
Q 2419 397 2687 759 
Q 2956 1122 2956 1747 
Q 2956 2369 2687 2733 
Q 2419 3097 1959 3097 
z
M 1959 3584 
Q 2709 3584 3137 3096 
Q 3566 2609 3566 1747 
Q 3566 888 3137 398 
Q 2709 -91 1959 -91 
Q 1206 -91 779 398 
Q 353 888 353 1747 
Q 353 2609 779 3096 
Q 1206 3584 1959 3584 
z
" transform="scale(0.015625)"/>
       <path id="DejaVuSans-6d" d="M 3328 2828 
Q 3544 3216 3844 3400 
Q 4144 3584 4550 3584 
Q 5097 3584 5394 3201 
Q 5691 2819 5691 2113 
L 5691 0 
L 5113 0 
L 5113 2094 
Q 5113 2597 4934 2840 
Q 4756 3084 4391 3084 
Q 3944 3084 3684 2787 
Q 3425 2491 3425 1978 
L 3425 0 
L 2847 0 
L 2847 2094 
Q 2847 2600 2669 2842 
Q 2491 3084 2119 3084 
Q 1678 3084 1418 2786 
Q 1159 2488 1159 1978 
L 1159 0 
L 581 0 
L 581 3500 
L 1159 3500 
L 1159 2956 
Q 1356 3278 1631 3431 
Q 1906 3584 2284 3584 
Q 2666 3584 2933 3390 
Q 3200 3197 3328 2828 
z
" transform="scale(0.015625)"/>
       <path id="DejaVuSans-64" d="M 2906 2969 
L 2906 4863 
L 3481 4863 
L 3481 0 
L 2906 0 
L 2906 525 
Q 2725 213 2448 61 
Q 2172 -91 1784 -91 
Q 1150 -91 751 415 
Q 353 922 353 1747 
Q 353 2572 751 3078 
Q 1150 3584 1784 3584 
Q 2172 3584 2448 3432 
Q 2725 3281 2906 2969 
z
M 947 1747 
Q 947 1113 1208 752 
Q 1469 391 1925 391 
Q 2381 391 2643 752 
Q 2906 1113 2906 1747 
Q 2906 2381 2643 2742 
Q 2381 3103 1925 3103 
Q 1469 3103 1208 2742 
Q 947 2381 947 1747 
z
" transform="scale(0.015625)"/>
      </defs>
      <use xlink:href="#DejaVuSans-50"/>
      <use xlink:href="#DejaVuSans-65" x="56.677734"/>
      <use xlink:href="#DejaVuSans-72" x="118.201172"/>
      <use xlink:href="#DejaVuSans-63" x="157.064453"/>
      <use xlink:href="#DejaVuSans-65" x="212.044922"/>
      <use xlink:href="#DejaVuSans-6e" x="273.568359"/>
      <use xlink:href="#DejaVuSans-74" x="336.947266"/>
      <use xlink:href="#DejaVuSans-47" x="376.15625"/>
      <use xlink:href="#DejaVuSans-70" x="453.646484"/>
      <use xlink:href="#DejaVuSans-41" x="517.123047"/>
      <use xlink:href="#DejaVuSans-5f" x="585.53125"/>
      <use xlink:href="#DejaVuSans-74" x="635.53125"/>
      <use xlink:href="#DejaVuSans-72" x="674.740234"/>
      <use xlink:href="#DejaVuSans-61" x="715.853516"/>
      <use xlink:href="#DejaVuSans-6e" x="777.132812"/>
      <use xlink:href="#DejaVuSans-73" x="840.511719"/>
      <use xlink:href="#DejaVuSans-66" x="892.611328"/>
      <use xlink:href="#DejaVuSans-6f" x="927.816406"/>
      <use xlink:href="#DejaVuSans-72" x="988.998047"/>
      <use xlink:href="#DejaVuSans-6d" x="1028.361328"/>
      <use xlink:href="#DejaVuSans-65" x="1125.773438"/>
      <use xlink:href="#DejaVuSans-64" x="1187.296875"/>
     </g>
    </g>
   </g>
   <g id="LineCollection_1">
    <path d="M 249.025388 234.555236 
L 249.025388 151.099415 
" clip-path="url(#pafdd492920)" style="fill: none; stroke: #d3d3d3; stroke-width: 3"/>
    <path d="M 129.008367 196.323182 
L 129.008367 189.44167 
" clip-path="url(#pafdd492920)" style="fill: none; stroke: #d3d3d3; stroke-width: 3"/>
    <path d="M 261.550899 210.109475 
L 261.550899 58.260719 
" clip-path="url(#pafdd492920)" style="fill: none; stroke: #d3d3d3; stroke-width: 3"/>
    <path d="M 231.376549 204.44717 
L 231.376549 143.060626 
" clip-path="url(#pafdd492920)" style="fill: none; stroke: #d3d3d3; stroke-width: 3"/>
    <path d="M 66.102102 222.43641 
L 66.102102 190.275246 
" clip-path="url(#pafdd492920)" style="fill: none; stroke: #d3d3d3; stroke-width: 3"/>
    <path d="M 78.037406 188.538082 
L 78.037406 142.410109 
" clip-path="url(#pafdd492920)" style="fill: none; stroke: #d3d3d3; stroke-width: 3"/>
    <path d="M 230.835526 204.193807 
L 230.835526 174.278388 
" clip-path="url(#pafdd492920)" style="fill: none; stroke: #d3d3d3; stroke-width: 3"/>
    <path d="M 216.367249 200.433695 
L 216.367249 175.853069 
" clip-path="url(#pafdd492920)" style="fill: none; stroke: #d3d3d3; stroke-width: 3"/>
    <path d="M 157.264543 230.004169 
L 157.264543 166.809122 
" clip-path="url(#pafdd492920)" style="fill: none; stroke: #d3d3d3; stroke-width: 3"/>
    <path d="M 299.652061 186.925754 
L 299.652061 166.671571 
" clip-path="url(#pafdd492920)" style="fill: none; stroke: #d3d3d3; stroke-width: 3"/>
    <path d="M 188.070086 205.552239 
L 188.070086 175.264716 
" clip-path="url(#pafdd492920)" style="fill: none; stroke: #d3d3d3; stroke-width: 3"/>
    <path d="M 289.602141 212.945466 
L 289.602141 182.822812 
" clip-path="url(#pafdd492920)" style="fill: none; stroke: #d3d3d3; stroke-width: 3"/>
    <path d="M 191.693303 201.603003 
L 191.693303 191.072986 
" clip-path="url(#pafdd492920)" style="fill: none; stroke: #d3d3d3; stroke-width: 3"/>
    <path d="M 283.109861 219.676059 
L 283.109861 196.411629 
" clip-path="url(#pafdd492920)" style="fill: none; stroke: #d3d3d3; stroke-width: 3"/>
    <path d="M 185.569902 205.040074 
L 185.569902 185.846405 
" clip-path="url(#pafdd492920)" style="fill: none; stroke: #d3d3d3; stroke-width: 3"/>
    <path d="M 190.889966 192.970079 
L 190.889966 163.095836 
" clip-path="url(#pafdd492920)" style="fill: none; stroke: #d3d3d3; stroke-width: 3"/>
    <path d="M 187.160183 204.179089 
L 187.160183 58.685027 
" clip-path="url(#pafdd492920)" style="fill: none; stroke: #d3d3d3; stroke-width: 3"/>
    <path d="M 195.13618 207.392634 
L 195.13618 197.042334 
" clip-path="url(#pafdd492920)" style="fill: none; stroke: #d3d3d3; stroke-width: 3"/>
    <path d="M 144.296376 227.070765 
L 144.296376 196.870008 
" clip-path="url(#pafdd492920)" style="fill: none; stroke: #d3d3d3; stroke-width: 3"/>
    <path d="M 141.43551 240.723232 
L 141.43551 127.890263 
" clip-path="url(#pafdd492920)" style="fill: none; stroke: #d3d3d3; stroke-width: 3"/>
    <path d="M 268.518624 223.274839 
L 268.518624 184.880892 
" clip-path="url(#pafdd492920)" style="fill: none; stroke: #d3d3d3; stroke-width: 3"/>
    <path d="M 300.168492 199.990733 
L 300.168492 179.115533 
" clip-path="url(#pafdd492920)" style="fill: none; stroke: #d3d3d3; stroke-width: 3"/>
    <path d="M 232.335636 189.84638 
L 232.335636 170.570134 
" clip-path="url(#pafdd492920)" style="fill: none; stroke: #d3d3d3; stroke-width: 3"/>
    <path d="M 219.588797 235.036186 
L 219.588797 197.163238 
" clip-path="url(#pafdd492920)" style="fill: none; stroke: #d3d3d3; stroke-width: 3"/>
    <path d="M 218.924814 202.849575 
L 218.924814 180.650793 
" clip-path="url(#pafdd492920)" style="fill: none; stroke: #d3d3d3; stroke-width: 3"/>
    <path d="M 178.552993 202.224794 
L 178.552993 181.525909 
" clip-path="url(#pafdd492920)" style="fill: none; stroke: #d3d3d3; stroke-width: 3"/>
    <path d="M 187.684812 193.66949 
L 187.684812 157.012175 
" clip-path="url(#pafdd492920)" style="fill: none; stroke: #d3d3d3; stroke-width: 3"/>
    <path d="M 217.621439 273.803938 
L 217.621439 262.268181 
" clip-path="url(#pafdd492920)" style="fill: none; stroke: #d3d3d3; stroke-width: 3"/>
    <path d="M 273.084534 218.340004 
L 273.084534 197.715055 
" clip-path="url(#pafdd492920)" style="fill: none; stroke: #d3d3d3; stroke-width: 3"/>
    <path d="M 355.71356 234.672287 
L 355.71356 184.026024 
" clip-path="url(#pafdd492920)" style="fill: none; stroke: #d3d3d3; stroke-width: 3"/>
    <path d="M 329.375557 275.899923 
L 329.375557 268.99736 
" clip-path="url(#pafdd492920)" style="fill: none; stroke: #d3d3d3; stroke-width: 3"/>
    <path d="M 321.407759 240.651843 
L 321.407759 59.421616 
" clip-path="url(#pafdd492920)" style="fill: none; stroke: #d3d3d3; stroke-width: 3"/>
    <path d="M 189.61938 186.21028 
L 189.61938 131.755431 
" clip-path="url(#pafdd492920)" style="fill: none; stroke: #d3d3d3; stroke-width: 3"/>
    <path d="M 392.478558 205.860512 
L 392.478558 171.633663 
" clip-path="url(#pafdd492920)" style="fill: none; stroke: #d3d3d3; stroke-width: 3"/>
    <path d="M 189.824314 193.566261 
L 189.824314 166.205529 
" clip-path="url(#pafdd492920)" style="fill: none; stroke: #d3d3d3; stroke-width: 3"/>
    <path d="M 241.852729 204.207821 
L 241.852729 185.441153 
" clip-path="url(#pafdd492920)" style="fill: none; stroke: #d3d3d3; stroke-width: 3"/>
    <path d="M 121.229106 195.861716 
L 121.229106 161.880336 
" clip-path="url(#pafdd492920)" style="fill: none; stroke: #d3d3d3; stroke-width: 3"/>
    <path d="M 267.616918 218.289541 
L 267.616918 176.331999 
" clip-path="url(#pafdd492920)" style="fill: none; stroke: #d3d3d3; stroke-width: 3"/>
    <path d="M 292.82369 267.591952 
L 292.82369 260.29621 
" clip-path="url(#pafdd492920)" style="fill: none; stroke: #d3d3d3; stroke-width: 3"/>
    <path d="M 368.058729 208.190648 
L 368.058729 173.020267 
" clip-path="url(#pafdd492920)" style="fill: none; stroke: #d3d3d3; stroke-width: 3"/>
    <path d="M 259.116293 204.670898 
L 259.116293 194.682671 
" clip-path="url(#pafdd492920)" style="fill: none; stroke: #d3d3d3; stroke-width: 3"/>
    <path d="M 323.047223 204.999288 
L 323.047223 194.354847 
" clip-path="url(#pafdd492920)" style="fill: none; stroke: #d3d3d3; stroke-width: 3"/>
    <path d="M 239.95095 200.479754 
L 239.95095 181.715229 
" clip-path="url(#pafdd492920)" style="fill: none; stroke: #d3d3d3; stroke-width: 3"/>
    <path d="M 403.348209 228.720887 
L 403.348209 72.810949 
" clip-path="url(#pafdd492920)" style="fill: none; stroke: #d3d3d3; stroke-width: 3"/>
    <path d="M 315.800789 211.65102 
L 315.800789 191.766788 
" clip-path="url(#pafdd492920)" style="fill: none; stroke: #d3d3d3; stroke-width: 3"/>
    <path d="M 256.050494 198.427632 
L 256.050494 166.76017 
" clip-path="url(#pafdd492920)" style="fill: none; stroke: #d3d3d3; stroke-width: 3"/>
    <path d="M 217.678821 273.010434 
L 217.678821 263.34747 
" clip-path="url(#pafdd492920)" style="fill: none; stroke: #d3d3d3; stroke-width: 3"/>
    <path d="M 308.324829 186.876534 
L 308.324829 162.285204 
" clip-path="url(#pafdd492920)" style="fill: none; stroke: #d3d3d3; stroke-width: 3"/>
    <path d="M 323.096407 258.337568 
L 323.096407 237.926216 
" clip-path="url(#pafdd492920)" style="fill: none; stroke: #d3d3d3; stroke-width: 3"/>
    <path d="M 264.97738 289.960822 
L 264.97738 282.935692 
" clip-path="url(#pafdd492920)" style="fill: none; stroke: #d3d3d3; stroke-width: 3"/>
    <path d="M 257.689959 249.025566 
L 257.689959 81.5636 
" clip-path="url(#pafdd492920)" style="fill: none; stroke: #d3d3d3; stroke-width: 3"/>
    <path d="M 277.281563 265.474293 
L 277.281563 255.771733 
" clip-path="url(#pafdd492920)" style="fill: none; stroke: #d3d3d3; stroke-width: 3"/>
    <path d="M 367.771823 235.72571 
L 367.771823 226.933976 
" clip-path="url(#pafdd492920)" style="fill: none; stroke: #d3d3d3; stroke-width: 3"/>
    <path d="M 232.893054 269.542855 
L 232.893054 253.30808 
" clip-path="url(#pafdd492920)" style="fill: none; stroke: #d3d3d3; stroke-width: 3"/>
    <path d="M 205.874674 277.039033 
L 205.874674 276.170869 
" clip-path="url(#pafdd492920)" style="fill: none; stroke: #d3d3d3; stroke-width: 3"/>
    <path d="M 367.878388 231.562871 
L 367.878388 212.025257 
" clip-path="url(#pafdd492920)" style="fill: none; stroke: #d3d3d3; stroke-width: 3"/>
    <path d="M 376.54296 287.748581 
L 376.54296 277.247881 
" clip-path="url(#pafdd492920)" style="fill: none; stroke: #d3d3d3; stroke-width: 3"/>
    <path d="M 207.973189 217.744786 
L 207.973189 208.727407 
" clip-path="url(#pafdd492920)" style="fill: none; stroke: #d3d3d3; stroke-width: 3"/>
    <path d="M 225.146583 189.305565 
L 225.146583 157.114403 
" clip-path="url(#pafdd492920)" style="fill: none; stroke: #d3d3d3; stroke-width: 3"/>
    <path d="M 232.352031 238.534575 
L 232.352031 212.563751 
" clip-path="url(#pafdd492920)" style="fill: none; stroke: #d3d3d3; stroke-width: 3"/>
    <path d="M 299.406141 259.007302 
L 299.406141 255.77402 
" clip-path="url(#pafdd492920)" style="fill: none; stroke: #d3d3d3; stroke-width: 3"/>
    <path d="M 213.63754 261.146041 
L 213.63754 250.895678 
" clip-path="url(#pafdd492920)" style="fill: none; stroke: #d3d3d3; stroke-width: 3"/>
    <path d="M 287.12655 271.325215 
L 287.12655 265.360833 
" clip-path="url(#pafdd492920)" style="fill: none; stroke: #d3d3d3; stroke-width: 3"/>
    <path d="M 410.578249 221.552804 
L 410.578249 183.347844 
" clip-path="url(#pafdd492920)" style="fill: none; stroke: #d3d3d3; stroke-width: 3"/>
    <path d="M 101.867027 244.71659 
L 101.867027 234.548578 
" clip-path="url(#pafdd492920)" style="fill: none; stroke: #d3d3d3; stroke-width: 3"/>
    <path d="M 325.399855 272.597241 
L 325.399855 269.690079 
" clip-path="url(#pafdd492920)" style="fill: none; stroke: #d3d3d3; stroke-width: 3"/>
    <path d="M 292.110523 268.672775 
L 292.110523 261.199898 
" clip-path="url(#pafdd492920)" style="fill: none; stroke: #d3d3d3; stroke-width: 3"/>
    <path d="M 251.369822 234.828705 
L 251.369822 233.876167 
" clip-path="url(#pafdd492920)" style="fill: none; stroke: #d3d3d3; stroke-width: 3"/>
    <path d="M 214.613021 273.852261 
L 214.613021 269.683295 
" clip-path="url(#pafdd492920)" style="fill: none; stroke: #d3d3d3; stroke-width: 3"/>
    <path d="M 106.818211 249.19146 
L 106.818211 227.820947 
" clip-path="url(#pafdd492920)" style="fill: none; stroke: #d3d3d3; stroke-width: 3"/>
    <path d="M 207.219035 221.687114 
L 207.219035 189.883853 
" clip-path="url(#pafdd492920)" style="fill: none; stroke: #d3d3d3; stroke-width: 3"/>
    <path d="M 172.872247 275.395557 
L 172.872247 265.034334 
" clip-path="url(#pafdd492920)" style="fill: none; stroke: #d3d3d3; stroke-width: 3"/>
    <path d="M 284.987048 257.241866 
L 284.987048 250.318443 
" clip-path="url(#pafdd492920)" style="fill: none; stroke: #d3d3d3; stroke-width: 3"/>
    <path d="M 260.10817 278.255496 
L 260.10817 251.335984 
" clip-path="url(#pafdd492920)" style="fill: none; stroke: #d3d3d3; stroke-width: 3"/>
    <path d="M 337.818801 281.860537 
L 337.818801 272.184133 
" clip-path="url(#pafdd492920)" style="fill: none; stroke: #d3d3d3; stroke-width: 3"/>
    <path d="M 367.747231 285.132533 
L 367.747231 264.707393 
" clip-path="url(#pafdd492920)" style="fill: none; stroke: #d3d3d3; stroke-width: 3"/>
    <path d="M 343.007707 275.973652 
L 343.007707 269.718357 
" clip-path="url(#pafdd492920)" style="fill: none; stroke: #d3d3d3; stroke-width: 3"/>
    <path d="M 315.841776 274.716116 
L 315.841776 249.02242 
" clip-path="url(#pafdd492920)" style="fill: none; stroke: #d3d3d3; stroke-width: 3"/>
    <path d="M 391.175183 240.853957 
L 391.175183 197.537642 
" clip-path="url(#pafdd492920)" style="fill: none; stroke: #d3d3d3; stroke-width: 3"/>
    <path d="M 431.719148 219.502073 
L 431.719148 196.133049 
" clip-path="url(#pafdd492920)" style="fill: none; stroke: #d3d3d3; stroke-width: 3"/>
   </g>
   <g id="line2d_11">
    <path d="M 249.025388 213.864819 
L 129.008367 202.338494 
L 261.550899 215.067758 
L 231.376549 212.169841 
L 66.102102 196.297033 
L 78.037406 197.443289 
L 230.835526 212.117881 
L 216.367249 210.728361 
L 157.264543 205.052191 
L 299.652061 218.726958 
L 188.070086 208.010727 
L 289.602141 217.761773 
L 191.693303 208.358698 
L 283.109861 217.138261 
L 185.569902 207.770612 
L 190.889966 208.281546 
L 187.160183 207.923341 
L 195.13618 208.689348 
L 144.296376 203.80674 
L 141.43551 203.531985 
L 268.518624 215.736932 
L 300.168492 218.776556 
L 232.335636 212.26195 
L 219.588797 211.037756 
L 218.924814 210.973987 
L 178.552993 207.096714 
L 187.684812 207.973726 
L 217.621439 210.848812 
L 273.084534 216.175437 
L 355.71356 224.111054 
L 329.375557 221.581576 
L 321.407759 220.816356 
L 189.61938 208.15952 
L 392.478558 227.641931 
L 189.824314 208.179202 
L 241.852729 213.175963 
L 121.229106 201.591381 
L 267.616918 215.650333 
L 292.82369 218.071168 
L 368.058729 225.296673 
L 259.116293 214.83394 
L 323.047223 220.973809 
L 239.95095 212.993318 
L 403.348209 228.685842 
L 315.800789 220.277868 
L 256.050494 214.539504 
L 217.678821 210.854323 
L 308.324829 219.559883 
L 323.096407 220.978532 
L 264.97738 215.396834 
L 257.689959 214.696956 
L 277.281563 216.578516 
L 367.771823 225.269118 
L 232.893054 212.315484 
L 205.874674 209.720664 
L 367.878388 225.279353 
L 376.54296 226.11149 
L 207.973189 209.922203 
L 225.146583 211.57152 
L 232.352031 212.263525 
L 299.406141 218.703341 
L 213.63754 210.466202 
L 287.12655 217.52402 
L 410.578249 229.380208 
L 101.867027 199.731864 
L 325.399855 221.199753 
L 292.110523 218.002676 
L 251.369822 214.089976 
L 214.613021 210.559887 
L 106.818211 200.207371 
L 207.219035 209.849775 
L 172.872247 206.551141 
L 284.987048 217.318544 
L 260.10817 214.929199 
L 337.818801 222.392457 
L 367.747231 225.266757 
L 343.007707 222.890795 
L 315.841776 220.281804 
L 391.175183 227.516756 
L 431.719148 231.410561 
" clip-path="url(#pafdd492920)" style="fill: none; stroke: #1f77b4; stroke-width: 1.5; stroke-linecap: square"/>
   </g>
   <g id="line2d_12">
    <defs>
     <path id="m50e5b47b56" d="M 0 3 
C 0.795609 3 1.55874 2.683901 2.12132 2.12132 
C 2.683901 1.55874 3 0.795609 3 0 
C 3 -0.795609 2.683901 -1.55874 2.12132 -2.12132 
C 1.55874 -2.683901 0.795609 -3 0 -3 
C -0.795609 -3 -1.55874 -2.683901 -2.12132 -2.12132 
C -2.683901 -1.55874 -3 -0.795609 -3 0 
C -3 0.795609 -2.683901 1.55874 -2.12132 2.12132 
C -1.55874 2.683901 -0.795609 3 0 3 
z
" style="stroke: #000000"/>
    </defs>
    <g clip-path="url(#pafdd492920)">
     <use xlink:href="#m50e5b47b56" x="249.025388" y="192.827325" style="stroke: #000000"/>
     <use xlink:href="#m50e5b47b56" x="129.008367" y="192.882426" style="stroke: #000000"/>
     <use xlink:href="#m50e5b47b56" x="261.550899" y="134.185097" style="stroke: #000000"/>
     <use xlink:href="#m50e5b47b56" x="231.376549" y="173.753898" style="stroke: #000000"/>
     <use xlink:href="#m50e5b47b56" x="66.102102" y="206.355828" style="stroke: #000000"/>
     <use xlink:href="#m50e5b47b56" x="78.037406" y="165.474095" style="stroke: #000000"/>
     <use xlink:href="#m50e5b47b56" x="230.835526" y="189.236097" style="stroke: #000000"/>
     <use xlink:href="#m50e5b47b56" x="216.367249" y="188.143382" style="stroke: #000000"/>
     <use xlink:href="#m50e5b47b56" x="157.264543" y="198.406645" style="stroke: #000000"/>
     <use xlink:href="#m50e5b47b56" x="299.652061" y="176.798662" style="stroke: #000000"/>
     <use xlink:href="#m50e5b47b56" x="188.070086" y="190.408478" style="stroke: #000000"/>
     <use xlink:href="#m50e5b47b56" x="289.602141" y="197.884139" style="stroke: #000000"/>
     <use xlink:href="#m50e5b47b56" x="191.693303" y="196.337994" style="stroke: #000000"/>
     <use xlink:href="#m50e5b47b56" x="283.109861" y="208.043844" style="stroke: #000000"/>
     <use xlink:href="#m50e5b47b56" x="185.569902" y="195.443239" style="stroke: #000000"/>
     <use xlink:href="#m50e5b47b56" x="190.889966" y="178.032957" style="stroke: #000000"/>
     <use xlink:href="#m50e5b47b56" x="187.160183" y="131.432058" style="stroke: #000000"/>
     <use xlink:href="#m50e5b47b56" x="195.13618" y="202.217484" style="stroke: #000000"/>
     <use xlink:href="#m50e5b47b56" x="144.296376" y="211.970387" style="stroke: #000000"/>
     <use xlink:href="#m50e5b47b56" x="141.43551" y="184.306747" style="stroke: #000000"/>
     <use xlink:href="#m50e5b47b56" x="268.518624" y="204.077866" style="stroke: #000000"/>
     <use xlink:href="#m50e5b47b56" x="300.168492" y="189.553133" style="stroke: #000000"/>
     <use xlink:href="#m50e5b47b56" x="232.335636" y="180.208257" style="stroke: #000000"/>
     <use xlink:href="#m50e5b47b56" x="219.588797" y="216.099712" style="stroke: #000000"/>
     <use xlink:href="#m50e5b47b56" x="218.924814" y="191.750184" style="stroke: #000000"/>
     <use xlink:href="#m50e5b47b56" x="178.552993" y="191.875352" style="stroke: #000000"/>
     <use xlink:href="#m50e5b47b56" x="187.684812" y="175.340833" style="stroke: #000000"/>
     <use xlink:href="#m50e5b47b56" x="217.621439" y="268.036059" style="stroke: #000000"/>
     <use xlink:href="#m50e5b47b56" x="273.084534" y="208.02753" style="stroke: #000000"/>
     <use xlink:href="#m50e5b47b56" x="355.71356" y="209.349156" style="stroke: #000000"/>
     <use xlink:href="#m50e5b47b56" x="329.375557" y="272.448642" style="stroke: #000000"/>
     <use xlink:href="#m50e5b47b56" x="321.407759" y="150.036729" style="stroke: #000000"/>
     <use xlink:href="#m50e5b47b56" x="189.61938" y="158.982855" style="stroke: #000000"/>
     <use xlink:href="#m50e5b47b56" x="392.478558" y="188.747088" style="stroke: #000000"/>
     <use xlink:href="#m50e5b47b56" x="189.824314" y="179.885895" style="stroke: #000000"/>
     <use xlink:href="#m50e5b47b56" x="241.852729" y="194.824487" style="stroke: #000000"/>
     <use xlink:href="#m50e5b47b56" x="121.229106" y="178.871026" style="stroke: #000000"/>
     <use xlink:href="#m50e5b47b56" x="267.616918" y="197.31077" style="stroke: #000000"/>
     <use xlink:href="#m50e5b47b56" x="292.82369" y="263.944081" style="stroke: #000000"/>
     <use xlink:href="#m50e5b47b56" x="368.058729" y="190.605458" style="stroke: #000000"/>
     <use xlink:href="#m50e5b47b56" x="259.116293" y="199.676785" style="stroke: #000000"/>
     <use xlink:href="#m50e5b47b56" x="323.047223" y="199.677067" style="stroke: #000000"/>
     <use xlink:href="#m50e5b47b56" x="239.95095" y="191.097492" style="stroke: #000000"/>
     <use xlink:href="#m50e5b47b56" x="403.348209" y="150.765918" style="stroke: #000000"/>
     <use xlink:href="#m50e5b47b56" x="315.800789" y="201.708904" style="stroke: #000000"/>
     <use xlink:href="#m50e5b47b56" x="256.050494" y="182.593901" style="stroke: #000000"/>
     <use xlink:href="#m50e5b47b56" x="217.678821" y="268.178952" style="stroke: #000000"/>
     <use xlink:href="#m50e5b47b56" x="308.324829" y="174.580869" style="stroke: #000000"/>
     <use xlink:href="#m50e5b47b56" x="323.096407" y="248.131892" style="stroke: #000000"/>
     <use xlink:href="#m50e5b47b56" x="264.97738" y="286.448257" style="stroke: #000000"/>
     <use xlink:href="#m50e5b47b56" x="257.689959" y="165.294583" style="stroke: #000000"/>
     <use xlink:href="#m50e5b47b56" x="277.281563" y="260.623013" style="stroke: #000000"/>
     <use xlink:href="#m50e5b47b56" x="367.771823" y="231.329843" style="stroke: #000000"/>
     <use xlink:href="#m50e5b47b56" x="232.893054" y="261.425467" style="stroke: #000000"/>
     <use xlink:href="#m50e5b47b56" x="205.874674" y="276.604951" style="stroke: #000000"/>
     <use xlink:href="#m50e5b47b56" x="367.878388" y="221.794064" style="stroke: #000000"/>
     <use xlink:href="#m50e5b47b56" x="376.54296" y="282.498231" style="stroke: #000000"/>
     <use xlink:href="#m50e5b47b56" x="207.973189" y="213.236097" style="stroke: #000000"/>
     <use xlink:href="#m50e5b47b56" x="225.146583" y="173.209984" style="stroke: #000000"/>
     <use xlink:href="#m50e5b47b56" x="232.352031" y="225.549163" style="stroke: #000000"/>
     <use xlink:href="#m50e5b47b56" x="299.406141" y="257.390661" style="stroke: #000000"/>
     <use xlink:href="#m50e5b47b56" x="213.63754" y="256.020859" style="stroke: #000000"/>
     <use xlink:href="#m50e5b47b56" x="287.12655" y="268.343024" style="stroke: #000000"/>
     <use xlink:href="#m50e5b47b56" x="410.578249" y="202.450324" style="stroke: #000000"/>
     <use xlink:href="#m50e5b47b56" x="101.867027" y="239.632584" style="stroke: #000000"/>
     <use xlink:href="#m50e5b47b56" x="325.399855" y="271.14366" style="stroke: #000000"/>
     <use xlink:href="#m50e5b47b56" x="292.110523" y="264.936337" style="stroke: #000000"/>
     <use xlink:href="#m50e5b47b56" x="251.369822" y="234.352436" style="stroke: #000000"/>
     <use xlink:href="#m50e5b47b56" x="214.613021" y="271.767778" style="stroke: #000000"/>
     <use xlink:href="#m50e5b47b56" x="106.818211" y="238.506204" style="stroke: #000000"/>
     <use xlink:href="#m50e5b47b56" x="207.219035" y="205.785484" style="stroke: #000000"/>
     <use xlink:href="#m50e5b47b56" x="172.872247" y="270.214945" style="stroke: #000000"/>
     <use xlink:href="#m50e5b47b56" x="284.987048" y="253.780155" style="stroke: #000000"/>
     <use xlink:href="#m50e5b47b56" x="260.10817" y="264.79574" style="stroke: #000000"/>
     <use xlink:href="#m50e5b47b56" x="337.818801" y="277.022335" style="stroke: #000000"/>
     <use xlink:href="#m50e5b47b56" x="367.747231" y="274.919963" style="stroke: #000000"/>
     <use xlink:href="#m50e5b47b56" x="343.007707" y="272.846005" style="stroke: #000000"/>
     <use xlink:href="#m50e5b47b56" x="315.841776" y="261.869268" style="stroke: #000000"/>
     <use xlink:href="#m50e5b47b56" x="391.175183" y="219.195799" style="stroke: #000000"/>
     <use xlink:href="#m50e5b47b56" x="431.719148" y="207.817561" style="stroke: #000000"/>
    </g>
   </g>
   <g id="patch_3">
    <path d="M 47.82125 303.64 
L 47.82125 46.675714 
" style="fill: none; stroke: #000000; stroke-width: 0.8; stroke-linejoin: miter; stroke-linecap: square"/>
   </g>
   <g id="patch_4">
    <path d="M 450 303.64 
L 450 46.675714 
" style="fill: none; stroke: #000000; stroke-width: 0.8; stroke-linejoin: miter; stroke-linecap: square"/>
   </g>
   <g id="patch_5">
    <path d="M 47.82125 303.64 
L 450 303.64 
" style="fill: none; stroke: #000000; stroke-width: 0.8; stroke-linejoin: miter; stroke-linecap: square"/>
   </g>
   <g id="patch_6">
    <path d="M 47.82125 46.675714 
L 450 46.675714 
" style="fill: none; stroke: #000000; stroke-width: 0.8; stroke-linejoin: miter; stroke-linecap: square"/>
   </g>
   <g id="text_13">
    <!-- y = -0.00x + 0.23 -->
    <g transform="translate(43.314906 18.599375)scale(0.1 -0.1)">
     <defs>
      <path id="DejaVuSans-79" d="M 2059 -325 
Q 1816 -950 1584 -1140 
Q 1353 -1331 966 -1331 
L 506 -1331 
L 506 -850 
L 844 -850 
Q 1081 -850 1212 -737 
Q 1344 -625 1503 -206 
L 1606 56 
L 191 3500 
L 800 3500 
L 1894 763 
L 2988 3500 
L 3597 3500 
L 2059 -325 
z
" transform="scale(0.015625)"/>
      <path id="DejaVuSans-20" transform="scale(0.015625)"/>
      <path id="DejaVuSans-3d" d="M 678 2906 
L 4684 2906 
L 4684 2381 
L 678 2381 
L 678 2906 
z
M 678 1631 
L 4684 1631 
L 4684 1100 
L 678 1100 
L 678 1631 
z
" transform="scale(0.015625)"/>
      <path id="DejaVuSans-2d" d="M 313 2009 
L 1997 2009 
L 1997 1497 
L 313 1497 
L 313 2009 
z
" transform="scale(0.015625)"/>
      <path id="DejaVuSans-78" d="M 3513 3500 
L 2247 1797 
L 3578 0 
L 2900 0 
L 1881 1375 
L 863 0 
L 184 0 
L 1544 1831 
L 300 3500 
L 978 3500 
L 1906 2253 
L 2834 3500 
L 3513 3500 
z
" transform="scale(0.015625)"/>
      <path id="DejaVuSans-2b" d="M 2944 4013 
L 2944 2272 
L 4684 2272 
L 4684 1741 
L 2944 1741 
L 2944 0 
L 2419 0 
L 2419 1741 
L 678 1741 
L 678 2272 
L 2419 2272 
L 2419 4013 
L 2944 4013 
z
" transform="scale(0.015625)"/>
      <path id="DejaVuSans-33" d="M 2597 2516 
Q 3050 2419 3304 2112 
Q 3559 1806 3559 1356 
Q 3559 666 3084 287 
Q 2609 -91 1734 -91 
Q 1441 -91 1130 -33 
Q 819 25 488 141 
L 488 750 
Q 750 597 1062 519 
Q 1375 441 1716 441 
Q 2309 441 2620 675 
Q 2931 909 2931 1356 
Q 2931 1769 2642 2001 
Q 2353 2234 1838 2234 
L 1294 2234 
L 1294 2753 
L 1863 2753 
Q 2328 2753 2575 2939 
Q 2822 3125 2822 3475 
Q 2822 3834 2567 4026 
Q 2313 4219 1838 4219 
Q 1578 4219 1281 4162 
Q 984 4106 628 3988 
L 628 4550 
Q 988 4650 1302 4700 
Q 1616 4750 1894 4750 
Q 2613 4750 3031 4423 
Q 3450 4097 3450 3541 
Q 3450 3153 3228 2886 
Q 3006 2619 2597 2516 
z
" transform="scale(0.015625)"/>
     </defs>
     <use xlink:href="#DejaVuSans-79"/>
     <use xlink:href="#DejaVuSans-20" x="59.179688"/>
     <use xlink:href="#DejaVuSans-3d" x="90.966797"/>
     <use xlink:href="#DejaVuSans-20" x="174.755859"/>
     <use xlink:href="#DejaVuSans-2d" x="206.542969"/>
     <use xlink:href="#DejaVuSans-30" x="242.626953"/>
     <use xlink:href="#DejaVuSans-2e" x="306.25"/>
     <use xlink:href="#DejaVuSans-30" x="338.037109"/>
     <use xlink:href="#DejaVuSans-30" x="401.660156"/>
     <use xlink:href="#DejaVuSans-78" x="465.283203"/>
     <use xlink:href="#DejaVuSans-20" x="524.462891"/>
     <use xlink:href="#DejaVuSans-2b" x="556.25"/>
     <use xlink:href="#DejaVuSans-20" x="640.039062"/>
     <use xlink:href="#DejaVuSans-30" x="671.826172"/>
     <use xlink:href="#DejaVuSans-2e" x="735.449219"/>
     <use xlink:href="#DejaVuSans-32" x="767.236328"/>
     <use xlink:href="#DejaVuSans-33" x="830.859375"/>
    </g>
   </g>
   <g id="text_14">
    <!-- r^2 = 0.04 -->
    <g transform="translate(60.111781 26.308304)scale(0.1 -0.1)">
     <defs>
      <path id="DejaVuSans-5e" d="M 2988 4666 
L 4684 2925 
L 4056 2925 
L 2681 4159 
L 1306 2925 
L 678 2925 
L 2375 4666 
L 2988 4666 
z
" transform="scale(0.015625)"/>
      <path id="DejaVuSans-34" d="M 2419 4116 
L 825 1625 
L 2419 1625 
L 2419 4116 
z
M 2253 4666 
L 3047 4666 
L 3047 1625 
L 3713 1625 
L 3713 1100 
L 3047 1100 
L 3047 0 
L 2419 0 
L 2419 1100 
L 313 1100 
L 313 1709 
L 2253 4666 
z
" transform="scale(0.015625)"/>
     </defs>
     <use xlink:href="#DejaVuSans-72"/>
     <use xlink:href="#DejaVuSans-5e" x="41.113281"/>
     <use xlink:href="#DejaVuSans-32" x="124.902344"/>
     <use xlink:href="#DejaVuSans-20" x="188.525391"/>
     <use xlink:href="#DejaVuSans-3d" x="220.3125"/>
     <use xlink:href="#DejaVuSans-20" x="304.101562"/>
     <use xlink:href="#DejaVuSans-30" x="335.888672"/>
     <use xlink:href="#DejaVuSans-2e" x="399.511719"/>
     <use xlink:href="#DejaVuSans-30" x="431.298828"/>
     <use xlink:href="#DejaVuSans-34" x="494.921875"/>
    </g>
   </g>
   <g id="text_15">
    <!-- n = 80 -->
    <g transform="translate(71.139906 34.017232)scale(0.1 -0.1)">
     <use xlink:href="#DejaVuSans-6e"/>
     <use xlink:href="#DejaVuSans-20" x="63.378906"/>
     <use xlink:href="#DejaVuSans-3d" x="95.166016"/>
     <use xlink:href="#DejaVuSans-20" x="178.955078"/>
     <use xlink:href="#DejaVuSans-38" x="210.742188"/>
     <use xlink:href="#DejaVuSans-30" x="274.365234"/>
    </g>
   </g>
   <g id="text_16">
    <!-- SasaDiff vs PercentGpA_transformed -->
    <g transform="translate(138.574375 40.675714)scale(0.12 -0.12)">
     <defs>
      <path id="DejaVuSans-76" d="M 191 3500 
L 800 3500 
L 1894 563 
L 2988 3500 
L 3597 3500 
L 2284 0 
L 1503 0 
L 191 3500 
z
" transform="scale(0.015625)"/>
     </defs>
     <use xlink:href="#DejaVuSans-53"/>
     <use xlink:href="#DejaVuSans-61" x="63.476562"/>
     <use xlink:href="#DejaVuSans-73" x="124.755859"/>
     <use xlink:href="#DejaVuSans-61" x="176.855469"/>
     <use xlink:href="#DejaVuSans-44" x="238.134766"/>
     <use xlink:href="#DejaVuSans-69" x="315.136719"/>
     <use xlink:href="#DejaVuSans-66" x="342.919922"/>
     <use xlink:href="#DejaVuSans-66" x="378.125"/>
     <use xlink:href="#DejaVuSans-20" x="413.330078"/>
     <use xlink:href="#DejaVuSans-76" x="445.117188"/>
     <use xlink:href="#DejaVuSans-73" x="504.296875"/>
     <use xlink:href="#DejaVuSans-20" x="556.396484"/>
     <use xlink:href="#DejaVuSans-50" x="588.183594"/>
     <use xlink:href="#DejaVuSans-65" x="644.861328"/>
     <use xlink:href="#DejaVuSans-72" x="706.384766"/>
     <use xlink:href="#DejaVuSans-63" x="745.248047"/>
     <use xlink:href="#DejaVuSans-65" x="800.228516"/>
     <use xlink:href="#DejaVuSans-6e" x="861.751953"/>
     <use xlink:href="#DejaVuSans-74" x="925.130859"/>
     <use xlink:href="#DejaVuSans-47" x="964.339844"/>
     <use xlink:href="#DejaVuSans-70" x="1041.830078"/>
     <use xlink:href="#DejaVuSans-41" x="1105.306641"/>
     <use xlink:href="#DejaVuSans-5f" x="1173.714844"/>
     <use xlink:href="#DejaVuSans-74" x="1223.714844"/>
     <use xlink:href="#DejaVuSans-72" x="1262.923828"/>
     <use xlink:href="#DejaVuSans-61" x="1304.037109"/>
     <use xlink:href="#DejaVuSans-6e" x="1365.316406"/>
     <use xlink:href="#DejaVuSans-73" x="1428.695312"/>
     <use xlink:href="#DejaVuSans-66" x="1480.794922"/>
     <use xlink:href="#DejaVuSans-6f" x="1516"/>
     <use xlink:href="#DejaVuSans-72" x="1577.181641"/>
     <use xlink:href="#DejaVuSans-6d" x="1616.544922"/>
     <use xlink:href="#DejaVuSans-65" x="1713.957031"/>
     <use xlink:href="#DejaVuSans-64" x="1775.480469"/>
    </g>
   </g>
  </g>
 </g>
 <defs>
  <clipPath id="pafdd492920">
   <rect x="47.82125" y="46.675714" width="402.17875" height="256.964286"/>
  </clipPath>
 </defs>
</svg>
