<?xml version="1.0" encoding="utf-8" standalone="no"?>
<!DOCTYPE svg PUBLIC "-//W3C//DTD SVG 1.1//EN"
  "http://www.w3.org/Graphics/SVG/1.1/DTD/svg11.dtd">
<svg xmlns:xlink="http://www.w3.org/1999/xlink" width="460.8pt" height="345.6pt" viewBox="0 0 460.8 345.6" xmlns="http://www.w3.org/2000/svg" version="1.1">
 <metadata>
  <rdf:RDF xmlns:dc="http://purl.org/dc/elements/1.1/" xmlns:cc="http://creativecommons.org/ns#" xmlns:rdf="http://www.w3.org/1999/02/22-rdf-syntax-ns#">
   <cc:Work>
    <dc:type rdf:resource="http://purl.org/dc/dcmitype/StillImage"/>
    <dc:date>2024-02-20T13:16:00.824545</dc:date>
    <dc:format>image/svg+xml</dc:format>
    <dc:creator>
     <cc:Agent>
      <dc:title>Matplotlib v3.7.1, https://matplotlib.org/</dc:title>
     </cc:Agent>
    </dc:creator>
   </cc:Work>
  </rdf:RDF>
 </metadata>
 <defs>
  <style type="text/css">*{stroke-linejoin: round; stroke-linecap: butt}</style>
 </defs>
 <g id="figure_1">
  <g id="patch_1">
   <path d="M 0 345.6 
L 460.8 345.6 
L 460.8 0 
L 0 0 
z
" style="fill: #ffffff"/>
  </g>
  <g id="axes_1">
   <g id="patch_2">
    <path d="M 47.72 303.64 
L 450 303.64 
L 450 55.889649 
L 47.72 55.889649 
z
" style="fill: #ffffff"/>
   </g>
   <g id="matplotlib.axis_1">
    <g id="xtick_1">
     <g id="text_1">
      <!-- A -->
      <g style="fill: #262626" transform="translate(144.869688 318.238437) scale(0.1 -0.1)">
       <defs>
        <path id="DejaVuSans-41" d="M 2188 4044 
L 1331 1722 
L 3047 1722 
L 2188 4044 
z
M 1831 4666 
L 2547 4666 
L 4325 0 
L 3669 0 
L 3244 1197 
L 1141 1197 
L 716 0 
L 50 0 
L 1831 4666 
z
" transform="scale(0.015625)"/>
       </defs>
       <use xlink:href="#DejaVuSans-41"/>
      </g>
     </g>
    </g>
    <g id="xtick_2">
     <g id="text_2">
      <!-- G -->
      <g style="fill: #262626" transform="translate(345.555781 318.238437) scale(0.1 -0.1)">
       <defs>
        <path id="DejaVuSans-47" d="M 3809 666 
L 3809 1919 
L 2778 1919 
L 2778 2438 
L 4434 2438 
L 4434 434 
Q 4069 175 3628 42 
Q 3188 -91 2688 -91 
Q 1594 -91 976 548 
Q 359 1188 359 2328 
Q 359 3472 976 4111 
Q 1594 4750 2688 4750 
Q 3144 4750 3555 4637 
Q 3966 4525 4313 4306 
L 4313 3634 
Q 3963 3931 3569 4081 
Q 3175 4231 2741 4231 
Q 1884 4231 1454 3753 
Q 1025 3275 1025 2328 
Q 1025 1384 1454 906 
Q 1884 428 2741 428 
Q 3075 428 3337 486 
Q 3600 544 3809 666 
z
" transform="scale(0.015625)"/>
       </defs>
       <use xlink:href="#DejaVuSans-47"/>
      </g>
     </g>
    </g>
    <g id="text_3">
     <!-- WT_AA -->
     <g style="fill: #262626" transform="translate(231.384219 331.638437) scale(0.1 -0.1)">
      <defs>
       <path id="DejaVuSans-57" d="M 213 4666 
L 850 4666 
L 1831 722 
L 2809 4666 
L 3519 4666 
L 4500 722 
L 5478 4666 
L 6119 4666 
L 4947 0 
L 4153 0 
L 3169 4050 
L 2175 0 
L 1381 0 
L 213 4666 
z
" transform="scale(0.015625)"/>
       <path id="DejaVuSans-54" d="M -19 4666 
L 3928 4666 
L 3928 4134 
L 2272 4134 
L 2272 0 
L 1638 0 
L 1638 4134 
L -19 4134 
L -19 4666 
z
" transform="scale(0.015625)"/>
       <path id="DejaVuSans-5f" d="M 3263 -1063 
L 3263 -1509 
L -63 -1509 
L -63 -1063 
L 3263 -1063 
z
" transform="scale(0.015625)"/>
      </defs>
      <use xlink:href="#DejaVuSans-57"/>
      <use xlink:href="#DejaVuSans-54" x="98.876953"/>
      <use xlink:href="#DejaVuSans-5f" x="159.960938"/>
      <use xlink:href="#DejaVuSans-41" x="209.960938"/>
      <use xlink:href="#DejaVuSans-41" x="281.119141"/>
     </g>
    </g>
   </g>
   <g id="matplotlib.axis_2">
    <g id="ytick_1">
     <g id="line2d_1">
      <path d="M 47.72 303.64 
L 450 303.64 
" clip-path="url(#p3e2c8c12e0)" style="fill: none; stroke: #cccccc; stroke-width: 0.8; stroke-linecap: round"/>
     </g>
     <g id="text_4">
      <!-- 0.0 -->
      <g style="fill: #262626" transform="translate(24.816875 307.439219) scale(0.1 -0.1)">
       <defs>
        <path id="DejaVuSans-30" d="M 2034 4250 
Q 1547 4250 1301 3770 
Q 1056 3291 1056 2328 
Q 1056 1369 1301 889 
Q 1547 409 2034 409 
Q 2525 409 2770 889 
Q 3016 1369 3016 2328 
Q 3016 3291 2770 3770 
Q 2525 4250 2034 4250 
z
M 2034 4750 
Q 2819 4750 3233 4129 
Q 3647 3509 3647 2328 
Q 3647 1150 3233 529 
Q 2819 -91 2034 -91 
Q 1250 -91 836 529 
Q 422 1150 422 2328 
Q 422 3509 836 4129 
Q 1250 4750 2034 4750 
z
" transform="scale(0.015625)"/>
        <path id="DejaVuSans-2e" d="M 684 794 
L 1344 794 
L 1344 0 
L 684 0 
L 684 794 
z
" transform="scale(0.015625)"/>
       </defs>
       <use xlink:href="#DejaVuSans-30"/>
       <use xlink:href="#DejaVuSans-2e" x="63.623047"/>
       <use xlink:href="#DejaVuSans-30" x="95.410156"/>
      </g>
     </g>
    </g>
    <g id="ytick_2">
     <g id="line2d_2">
      <path d="M 47.72 269.768804 
L 450 269.768804 
" clip-path="url(#p3e2c8c12e0)" style="fill: none; stroke: #cccccc; stroke-width: 0.8; stroke-linecap: round"/>
     </g>
     <g id="text_5">
      <!-- 0.2 -->
      <g style="fill: #262626" transform="translate(24.816875 273.568023) scale(0.1 -0.1)">
       <defs>
        <path id="DejaVuSans-32" d="M 1228 531 
L 3431 531 
L 3431 0 
L 469 0 
L 469 531 
Q 828 903 1448 1529 
Q 2069 2156 2228 2338 
Q 2531 2678 2651 2914 
Q 2772 3150 2772 3378 
Q 2772 3750 2511 3984 
Q 2250 4219 1831 4219 
Q 1534 4219 1204 4116 
Q 875 4013 500 3803 
L 500 4441 
Q 881 4594 1212 4672 
Q 1544 4750 1819 4750 
Q 2544 4750 2975 4387 
Q 3406 4025 3406 3419 
Q 3406 3131 3298 2873 
Q 3191 2616 2906 2266 
Q 2828 2175 2409 1742 
Q 1991 1309 1228 531 
z
" transform="scale(0.015625)"/>
       </defs>
       <use xlink:href="#DejaVuSans-30"/>
       <use xlink:href="#DejaVuSans-2e" x="63.623047"/>
       <use xlink:href="#DejaVuSans-32" x="95.410156"/>
      </g>
     </g>
    </g>
    <g id="ytick_3">
     <g id="line2d_3">
      <path d="M 47.72 235.897609 
L 450 235.897609 
" clip-path="url(#p3e2c8c12e0)" style="fill: none; stroke: #cccccc; stroke-width: 0.8; stroke-linecap: round"/>
     </g>
     <g id="text_6">
      <!-- 0.4 -->
      <g style="fill: #262626" transform="translate(24.816875 239.696827) scale(0.1 -0.1)">
       <defs>
        <path id="DejaVuSans-34" d="M 2419 4116 
L 825 1625 
L 2419 1625 
L 2419 4116 
z
M 2253 4666 
L 3047 4666 
L 3047 1625 
L 3713 1625 
L 3713 1100 
L 3047 1100 
L 3047 0 
L 2419 0 
L 2419 1100 
L 313 1100 
L 313 1709 
L 2253 4666 
z
" transform="scale(0.015625)"/>
       </defs>
       <use xlink:href="#DejaVuSans-30"/>
       <use xlink:href="#DejaVuSans-2e" x="63.623047"/>
       <use xlink:href="#DejaVuSans-34" x="95.410156"/>
      </g>
     </g>
    </g>
    <g id="ytick_4">
     <g id="line2d_4">
      <path d="M 47.72 202.026413 
L 450 202.026413 
" clip-path="url(#p3e2c8c12e0)" style="fill: none; stroke: #cccccc; stroke-width: 0.8; stroke-linecap: round"/>
     </g>
     <g id="text_7">
      <!-- 0.6 -->
      <g style="fill: #262626" transform="translate(24.816875 205.825632) scale(0.1 -0.1)">
       <defs>
        <path id="DejaVuSans-36" d="M 2113 2584 
Q 1688 2584 1439 2293 
Q 1191 2003 1191 1497 
Q 1191 994 1439 701 
Q 1688 409 2113 409 
Q 2538 409 2786 701 
Q 3034 994 3034 1497 
Q 3034 2003 2786 2293 
Q 2538 2584 2113 2584 
z
M 3366 4563 
L 3366 3988 
Q 3128 4100 2886 4159 
Q 2644 4219 2406 4219 
Q 1781 4219 1451 3797 
Q 1122 3375 1075 2522 
Q 1259 2794 1537 2939 
Q 1816 3084 2150 3084 
Q 2853 3084 3261 2657 
Q 3669 2231 3669 1497 
Q 3669 778 3244 343 
Q 2819 -91 2113 -91 
Q 1303 -91 875 529 
Q 447 1150 447 2328 
Q 447 3434 972 4092 
Q 1497 4750 2381 4750 
Q 2619 4750 2861 4703 
Q 3103 4656 3366 4563 
z
" transform="scale(0.015625)"/>
       </defs>
       <use xlink:href="#DejaVuSans-30"/>
       <use xlink:href="#DejaVuSans-2e" x="63.623047"/>
       <use xlink:href="#DejaVuSans-36" x="95.410156"/>
      </g>
     </g>
    </g>
    <g id="ytick_5">
     <g id="line2d_5">
      <path d="M 47.72 168.155217 
L 450 168.155217 
" clip-path="url(#p3e2c8c12e0)" style="fill: none; stroke: #cccccc; stroke-width: 0.8; stroke-linecap: round"/>
     </g>
     <g id="text_8">
      <!-- 0.8 -->
      <g style="fill: #262626" transform="translate(24.816875 171.954436) scale(0.1 -0.1)">
       <defs>
        <path id="DejaVuSans-38" d="M 2034 2216 
Q 1584 2216 1326 1975 
Q 1069 1734 1069 1313 
Q 1069 891 1326 650 
Q 1584 409 2034 409 
Q 2484 409 2743 651 
Q 3003 894 3003 1313 
Q 3003 1734 2745 1975 
Q 2488 2216 2034 2216 
z
M 1403 2484 
Q 997 2584 770 2862 
Q 544 3141 544 3541 
Q 544 4100 942 4425 
Q 1341 4750 2034 4750 
Q 2731 4750 3128 4425 
Q 3525 4100 3525 3541 
Q 3525 3141 3298 2862 
Q 3072 2584 2669 2484 
Q 3125 2378 3379 2068 
Q 3634 1759 3634 1313 
Q 3634 634 3220 271 
Q 2806 -91 2034 -91 
Q 1263 -91 848 271 
Q 434 634 434 1313 
Q 434 1759 690 2068 
Q 947 2378 1403 2484 
z
M 1172 3481 
Q 1172 3119 1398 2916 
Q 1625 2713 2034 2713 
Q 2441 2713 2670 2916 
Q 2900 3119 2900 3481 
Q 2900 3844 2670 4047 
Q 2441 4250 2034 4250 
Q 1625 4250 1398 4047 
Q 1172 3844 1172 3481 
z
" transform="scale(0.015625)"/>
       </defs>
       <use xlink:href="#DejaVuSans-30"/>
       <use xlink:href="#DejaVuSans-2e" x="63.623047"/>
       <use xlink:href="#DejaVuSans-38" x="95.410156"/>
      </g>
     </g>
    </g>
    <g id="ytick_6">
     <g id="line2d_6">
      <path d="M 47.72 134.284022 
L 450 134.284022 
" clip-path="url(#p3e2c8c12e0)" style="fill: none; stroke: #cccccc; stroke-width: 0.8; stroke-linecap: round"/>
     </g>
     <g id="text_9">
      <!-- 1.0 -->
      <g style="fill: #262626" transform="translate(24.816875 138.08324) scale(0.1 -0.1)">
       <defs>
        <path id="DejaVuSans-31" d="M 794 531 
L 1825 531 
L 1825 4091 
L 703 3866 
L 703 4441 
L 1819 4666 
L 2450 4666 
L 2450 531 
L 3481 531 
L 3481 0 
L 794 0 
L 794 531 
z
" transform="scale(0.015625)"/>
       </defs>
       <use xlink:href="#DejaVuSans-31"/>
       <use xlink:href="#DejaVuSans-2e" x="63.623047"/>
       <use xlink:href="#DejaVuSans-30" x="95.410156"/>
      </g>
     </g>
    </g>
    <g id="ytick_7">
     <g id="line2d_7">
      <path d="M 47.72 100.412826 
L 450 100.412826 
" clip-path="url(#p3e2c8c12e0)" style="fill: none; stroke: #cccccc; stroke-width: 0.8; stroke-linecap: round"/>
     </g>
     <g id="text_10">
      <!-- 1.2 -->
      <g style="fill: #262626" transform="translate(24.816875 104.212045) scale(0.1 -0.1)">
       <use xlink:href="#DejaVuSans-31"/>
       <use xlink:href="#DejaVuSans-2e" x="63.623047"/>
       <use xlink:href="#DejaVuSans-32" x="95.410156"/>
      </g>
     </g>
    </g>
    <g id="ytick_8">
     <g id="line2d_8">
      <path d="M 47.72 66.54163 
L 450 66.54163 
" clip-path="url(#p3e2c8c12e0)" style="fill: none; stroke: #cccccc; stroke-width: 0.8; stroke-linecap: round"/>
     </g>
     <g id="text_11">
      <!-- 1.4 -->
      <g style="fill: #262626" transform="translate(24.816875 70.340849) scale(0.1 -0.1)">
       <use xlink:href="#DejaVuSans-31"/>
       <use xlink:href="#DejaVuSans-2e" x="63.623047"/>
       <use xlink:href="#DejaVuSans-34" x="95.410156"/>
      </g>
     </g>
    </g>
    <g id="text_12">
     <!-- PercentGpA -->
     <g style="fill: #262626" transform="translate(18.737188 209.041387) rotate(-90) scale(0.1 -0.1)">
      <defs>
       <path id="DejaVuSans-50" d="M 1259 4147 
L 1259 2394 
L 2053 2394 
Q 2494 2394 2734 2622 
Q 2975 2850 2975 3272 
Q 2975 3691 2734 3919 
Q 2494 4147 2053 4147 
L 1259 4147 
z
M 628 4666 
L 2053 4666 
Q 2838 4666 3239 4311 
Q 3641 3956 3641 3272 
Q 3641 2581 3239 2228 
Q 2838 1875 2053 1875 
L 1259 1875 
L 1259 0 
L 628 0 
L 628 4666 
z
" transform="scale(0.015625)"/>
       <path id="DejaVuSans-65" d="M 3597 1894 
L 3597 1613 
L 953 1613 
Q 991 1019 1311 708 
Q 1631 397 2203 397 
Q 2534 397 2845 478 
Q 3156 559 3463 722 
L 3463 178 
Q 3153 47 2828 -22 
Q 2503 -91 2169 -91 
Q 1331 -91 842 396 
Q 353 884 353 1716 
Q 353 2575 817 3079 
Q 1281 3584 2069 3584 
Q 2775 3584 3186 3129 
Q 3597 2675 3597 1894 
z
M 3022 2063 
Q 3016 2534 2758 2815 
Q 2500 3097 2075 3097 
Q 1594 3097 1305 2825 
Q 1016 2553 972 2059 
L 3022 2063 
z
" transform="scale(0.015625)"/>
       <path id="DejaVuSans-72" d="M 2631 2963 
Q 2534 3019 2420 3045 
Q 2306 3072 2169 3072 
Q 1681 3072 1420 2755 
Q 1159 2438 1159 1844 
L 1159 0 
L 581 0 
L 581 3500 
L 1159 3500 
L 1159 2956 
Q 1341 3275 1631 3429 
Q 1922 3584 2338 3584 
Q 2397 3584 2469 3576 
Q 2541 3569 2628 3553 
L 2631 2963 
z
" transform="scale(0.015625)"/>
       <path id="DejaVuSans-63" d="M 3122 3366 
L 3122 2828 
Q 2878 2963 2633 3030 
Q 2388 3097 2138 3097 
Q 1578 3097 1268 2742 
Q 959 2388 959 1747 
Q 959 1106 1268 751 
Q 1578 397 2138 397 
Q 2388 397 2633 464 
Q 2878 531 3122 666 
L 3122 134 
Q 2881 22 2623 -34 
Q 2366 -91 2075 -91 
Q 1284 -91 818 406 
Q 353 903 353 1747 
Q 353 2603 823 3093 
Q 1294 3584 2113 3584 
Q 2378 3584 2631 3529 
Q 2884 3475 3122 3366 
z
" transform="scale(0.015625)"/>
       <path id="DejaVuSans-6e" d="M 3513 2113 
L 3513 0 
L 2938 0 
L 2938 2094 
Q 2938 2591 2744 2837 
Q 2550 3084 2163 3084 
Q 1697 3084 1428 2787 
Q 1159 2491 1159 1978 
L 1159 0 
L 581 0 
L 581 3500 
L 1159 3500 
L 1159 2956 
Q 1366 3272 1645 3428 
Q 1925 3584 2291 3584 
Q 2894 3584 3203 3211 
Q 3513 2838 3513 2113 
z
" transform="scale(0.015625)"/>
       <path id="DejaVuSans-74" d="M 1172 4494 
L 1172 3500 
L 2356 3500 
L 2356 3053 
L 1172 3053 
L 1172 1153 
Q 1172 725 1289 603 
Q 1406 481 1766 481 
L 2356 481 
L 2356 0 
L 1766 0 
Q 1100 0 847 248 
Q 594 497 594 1153 
L 594 3053 
L 172 3053 
L 172 3500 
L 594 3500 
L 594 4494 
L 1172 4494 
z
" transform="scale(0.015625)"/>
       <path id="DejaVuSans-70" d="M 1159 525 
L 1159 -1331 
L 581 -1331 
L 581 3500 
L 1159 3500 
L 1159 2969 
Q 1341 3281 1617 3432 
Q 1894 3584 2278 3584 
Q 2916 3584 3314 3078 
Q 3713 2572 3713 1747 
Q 3713 922 3314 415 
Q 2916 -91 2278 -91 
Q 1894 -91 1617 61 
Q 1341 213 1159 525 
z
M 3116 1747 
Q 3116 2381 2855 2742 
Q 2594 3103 2138 3103 
Q 1681 3103 1420 2742 
Q 1159 2381 1159 1747 
Q 1159 1113 1420 752 
Q 1681 391 2138 391 
Q 2594 391 2855 752 
Q 3116 1113 3116 1747 
z
" transform="scale(0.015625)"/>
      </defs>
      <use xlink:href="#DejaVuSans-50"/>
      <use xlink:href="#DejaVuSans-65" x="56.677734"/>
      <use xlink:href="#DejaVuSans-72" x="118.201172"/>
      <use xlink:href="#DejaVuSans-63" x="157.064453"/>
      <use xlink:href="#DejaVuSans-65" x="212.044922"/>
      <use xlink:href="#DejaVuSans-6e" x="273.568359"/>
      <use xlink:href="#DejaVuSans-74" x="336.947266"/>
      <use xlink:href="#DejaVuSans-47" x="376.15625"/>
      <use xlink:href="#DejaVuSans-70" x="453.646484"/>
      <use xlink:href="#DejaVuSans-41" x="517.123047"/>
     </g>
    </g>
   </g>
   <g id="patch_3">
    <path d="M 68.63856 272.525754 
L 147.48544 272.525754 
L 147.48544 257.514999 
L 68.63856 257.514999 
L 68.63856 272.525754 
z
" clip-path="url(#p3e2c8c12e0)" style="fill: #ecf2ec; stroke: #262626; stroke-width: 1.5; stroke-linejoin: miter"/>
   </g>
   <g id="patch_4">
    <path d="M 149.09456 258.978474 
L 227.94144 258.978474 
L 227.94144 242.211618 
L 149.09456 242.211618 
L 149.09456 258.978474 
z
" clip-path="url(#p3e2c8c12e0)" style="fill: #107010; stroke: #262626; stroke-width: 1.5; stroke-linejoin: miter"/>
   </g>
   <g id="patch_5">
    <path d="M 269.77856 269.556972 
L 348.62544 269.556972 
L 348.62544 251.425085 
L 269.77856 251.425085 
L 269.77856 269.556972 
z
" clip-path="url(#p3e2c8c12e0)" style="fill: #ecf2ec; stroke: #262626; stroke-width: 1.5; stroke-linejoin: miter"/>
   </g>
   <g id="patch_6">
    <path d="M 350.23456 251.43479 
L 429.08144 251.43479 
L 429.08144 145.921854 
L 350.23456 145.921854 
L 350.23456 251.43479 
z
" clip-path="url(#p3e2c8c12e0)" style="fill: #107010; stroke: #262626; stroke-width: 1.5; stroke-linejoin: miter"/>
   </g>
   <g id="patch_7">
    <path d="M 148.29 303.64 
L 148.29 303.64 
L 148.29 303.64 
L 148.29 303.64 
z
" clip-path="url(#p3e2c8c12e0)" style="fill: #ecf2ec; stroke: #262626; stroke-width: 0.75; stroke-linejoin: miter"/>
   </g>
   <g id="patch_8">
    <path d="M 148.29 303.64 
L 148.29 303.64 
L 148.29 303.64 
L 148.29 303.64 
z
" clip-path="url(#p3e2c8c12e0)" style="fill: #107010; stroke: #262626; stroke-width: 0.75; stroke-linejoin: miter"/>
   </g>
   <g id="PathCollection_1"/>
   <g id="PathCollection_2"/>
   <g id="line2d_9">
    <path d="M 108.062 272.525754 
L 108.062 275.423618 
" clip-path="url(#p3e2c8c12e0)" style="fill: none; stroke: #262626; stroke-width: 1.5; stroke-linecap: round"/>
   </g>
   <g id="line2d_10">
    <path d="M 108.062 257.514999 
L 108.062 249.984382 
" clip-path="url(#p3e2c8c12e0)" style="fill: none; stroke: #262626; stroke-width: 1.5; stroke-linecap: round"/>
   </g>
   <g id="line2d_11">
    <path d="M 88.35028 275.423618 
L 127.77372 275.423618 
" clip-path="url(#p3e2c8c12e0)" style="fill: none; stroke: #262626; stroke-width: 1.5; stroke-linecap: round"/>
   </g>
   <g id="line2d_12">
    <path d="M 88.35028 249.984382 
L 127.77372 249.984382 
" clip-path="url(#p3e2c8c12e0)" style="fill: none; stroke: #262626; stroke-width: 1.5; stroke-linecap: round"/>
   </g>
   <g id="line2d_13">
    <defs>
     <path id="m9e61cd7c8b" d="M -0 1.414214 
L 0.848528 0 
L 0 -1.414214 
L -0.848528 -0 
z
" style="stroke: #262626; stroke-linejoin: miter"/>
    </defs>
    <g clip-path="url(#p3e2c8c12e0)">
     <use xlink:href="#m9e61cd7c8b" x="108.062" y="228.000945" style="fill: #262626; stroke: #262626; stroke-linejoin: miter"/>
    </g>
   </g>
   <g id="line2d_14">
    <path d="M 188.518 258.978474 
L 188.518 261.837772 
" clip-path="url(#p3e2c8c12e0)" style="fill: none; stroke: #262626; stroke-width: 1.5; stroke-linecap: round"/>
   </g>
   <g id="line2d_15">
    <path d="M 188.518 242.211618 
L 188.518 233.468112 
" clip-path="url(#p3e2c8c12e0)" style="fill: none; stroke: #262626; stroke-width: 1.5; stroke-linecap: round"/>
   </g>
   <g id="line2d_16">
    <path d="M 168.80628 261.837772 
L 208.22972 261.837772 
" clip-path="url(#p3e2c8c12e0)" style="fill: none; stroke: #262626; stroke-width: 1.5; stroke-linecap: round"/>
   </g>
   <g id="line2d_17">
    <path d="M 168.80628 233.468112 
L 208.22972 233.468112 
" clip-path="url(#p3e2c8c12e0)" style="fill: none; stroke: #262626; stroke-width: 1.5; stroke-linecap: round"/>
   </g>
   <g id="line2d_18"/>
   <g id="line2d_19">
    <path d="M 309.202 269.556972 
L 309.202 282.12706 
" clip-path="url(#p3e2c8c12e0)" style="fill: none; stroke: #262626; stroke-width: 1.5; stroke-linecap: round"/>
   </g>
   <g id="line2d_20">
    <path d="M 309.202 251.425085 
L 309.202 227.295303 
" clip-path="url(#p3e2c8c12e0)" style="fill: none; stroke: #262626; stroke-width: 1.5; stroke-linecap: round"/>
   </g>
   <g id="line2d_21">
    <path d="M 289.49028 282.12706 
L 328.91372 282.12706 
" clip-path="url(#p3e2c8c12e0)" style="fill: none; stroke: #262626; stroke-width: 1.5; stroke-linecap: round"/>
   </g>
   <g id="line2d_22">
    <path d="M 289.49028 227.295303 
L 328.91372 227.295303 
" clip-path="url(#p3e2c8c12e0)" style="fill: none; stroke: #262626; stroke-width: 1.5; stroke-linecap: round"/>
   </g>
   <g id="line2d_23"/>
   <g id="line2d_24">
    <path d="M 389.658 251.43479 
L 389.658 277.888142 
" clip-path="url(#p3e2c8c12e0)" style="fill: none; stroke: #262626; stroke-width: 1.5; stroke-linecap: round"/>
   </g>
   <g id="line2d_25">
    <path d="M 389.658 145.921854 
L 389.658 78.412408 
" clip-path="url(#p3e2c8c12e0)" style="fill: none; stroke: #262626; stroke-width: 1.5; stroke-linecap: round"/>
   </g>
   <g id="line2d_26">
    <path d="M 369.94628 277.888142 
L 409.36972 277.888142 
" clip-path="url(#p3e2c8c12e0)" style="fill: none; stroke: #262626; stroke-width: 1.5; stroke-linecap: round"/>
   </g>
   <g id="line2d_27">
    <path d="M 369.94628 78.412408 
L 409.36972 78.412408 
" clip-path="url(#p3e2c8c12e0)" style="fill: none; stroke: #262626; stroke-width: 1.5; stroke-linecap: round"/>
   </g>
   <g id="line2d_28"/>
   <g id="line2d_29">
    <path d="M 68.63856 268.355094 
L 147.48544 268.355094 
" clip-path="url(#p3e2c8c12e0)" style="fill: none; stroke: #262626; stroke-width: 1.5; stroke-linecap: round"/>
   </g>
   <g id="line2d_30">
    <path d="M 149.09456 250.451559 
L 227.94144 250.451559 
" clip-path="url(#p3e2c8c12e0)" style="fill: none; stroke: #262626; stroke-width: 1.5; stroke-linecap: round"/>
   </g>
   <g id="line2d_31">
    <path d="M 269.77856 262.139251 
L 348.62544 262.139251 
" clip-path="url(#p3e2c8c12e0)" style="fill: none; stroke: #262626; stroke-width: 1.5; stroke-linecap: round"/>
   </g>
   <g id="line2d_32">
    <path d="M 350.23456 228.438651 
L 429.08144 228.438651 
" clip-path="url(#p3e2c8c12e0)" style="fill: none; stroke: #262626; stroke-width: 1.5; stroke-linecap: round"/>
   </g>
   <g id="patch_9">
    <path d="M 47.72 303.64 
L 47.72 55.889649 
" style="fill: none; stroke: #cccccc; stroke-width: 0.8; stroke-linejoin: miter; stroke-linecap: square"/>
   </g>
   <g id="patch_10">
    <path d="M 450 303.64 
L 450 55.889649 
" style="fill: none; stroke: #cccccc; stroke-width: 0.8; stroke-linejoin: miter; stroke-linecap: square"/>
   </g>
   <g id="patch_11">
    <path d="M 47.72 303.64 
L 450 303.64 
" style="fill: none; stroke: #cccccc; stroke-width: 0.8; stroke-linejoin: miter; stroke-linecap: square"/>
   </g>
   <g id="patch_12">
    <path d="M 47.72 55.889649 
L 450 55.889649 
" style="fill: none; stroke: #cccccc; stroke-width: 0.8; stroke-linejoin: miter; stroke-linecap: square"/>
   </g>
   <g id="PathCollection_3">
    <defs>
     <path id="C0_0_965a4a5298" d="M 0 1 
C 0.265203 1 0.51958 0.894634 0.707107 0.707107 
C 0.894634 0.51958 1 0.265203 1 -0 
C 1 -0.265203 0.894634 -0.51958 0.707107 -0.707107 
C 0.51958 -0.894634 0.265203 -1 0 -1 
C -0.265203 -1 -0.51958 -0.894634 -0.707107 -0.707107 
C -0.894634 -0.51958 -1 -0.265203 -1 0 
C -1 0.265203 -0.894634 0.51958 -0.707107 0.707107 
C -0.51958 0.894634 -0.265203 1 0 1 
z
"/>
    </defs>
    <g clip-path="url(#p3e2c8c12e0)">
     <use xlink:href="#C0_0_965a4a5298" x="109.343391" y="272.906096" style="fill: #262626"/>
    </g>
    <g clip-path="url(#p3e2c8c12e0)">
     <use xlink:href="#C0_0_965a4a5298" x="103.730559" y="262.478525" style="fill: #262626"/>
    </g>
    <g clip-path="url(#p3e2c8c12e0)">
     <use xlink:href="#C0_0_965a4a5298" x="114.529851" y="268.632089" style="fill: #262626"/>
    </g>
    <g clip-path="url(#p3e2c8c12e0)">
     <use xlink:href="#C0_0_965a4a5298" x="105.678671" y="273.408526" style="fill: #262626"/>
    </g>
    <g clip-path="url(#p3e2c8c12e0)">
     <use xlink:href="#C0_0_965a4a5298" x="109.476244" y="270.440307" style="fill: #262626"/>
    </g>
    <g clip-path="url(#p3e2c8c12e0)">
     <use xlink:href="#C0_0_965a4a5298" x="116.949193" y="271.384729" style="fill: #262626"/>
    </g>
    <g clip-path="url(#p3e2c8c12e0)">
     <use xlink:href="#C0_0_965a4a5298" x="112.784487" y="275.423618" style="fill: #262626"/>
    </g>
    <g clip-path="url(#p3e2c8c12e0)">
     <use xlink:href="#C0_0_965a4a5298" x="114.710156" y="255.860491" style="fill: #262626"/>
    </g>
    <g clip-path="url(#p3e2c8c12e0)">
     <use xlink:href="#C0_0_965a4a5298" x="111.265852" y="249.984382" style="fill: #262626"/>
    </g>
    <g clip-path="url(#p3e2c8c12e0)">
     <use xlink:href="#C0_0_965a4a5298" x="111.237347" y="265.457377" style="fill: #262626"/>
    </g>
    <g clip-path="url(#p3e2c8c12e0)">
     <use xlink:href="#C0_0_965a4a5298" x="117.350054" y="273.890271" style="fill: #262626"/>
    </g>
    <g clip-path="url(#p3e2c8c12e0)">
     <use xlink:href="#C0_0_965a4a5298" x="102.56501" y="228.000945" style="fill: #262626"/>
    </g>
    <g clip-path="url(#p3e2c8c12e0)">
     <use xlink:href="#C0_0_965a4a5298" x="103.02479" y="253.962419" style="fill: #262626"/>
    </g>
    <g clip-path="url(#p3e2c8c12e0)">
     <use xlink:href="#C0_0_965a4a5298" x="99.284665" y="268.078098" style="fill: #262626"/>
    </g>
   </g>
   <g id="PathCollection_4">
    <defs>
     <path id="C1_0_9a6ae1bf8b" d="M 0 1 
C 0.265203 1 0.51958 0.894634 0.707107 0.707107 
C 0.894634 0.51958 1 0.265203 1 -0 
C 1 -0.265203 0.894634 -0.51958 0.707107 -0.707107 
C 0.51958 -0.894634 0.265203 -1 0 -1 
C -0.265203 -1 -0.51958 -0.894634 -0.707107 -0.707107 
C -0.894634 -0.51958 -1 -0.265203 -1 0 
C -1 0.265203 -0.894634 0.51958 -0.707107 0.707107 
C -0.51958 0.894634 -0.265203 1 0 1 
z
"/>
    </defs>
    <g clip-path="url(#p3e2c8c12e0)">
     <use xlink:href="#C1_0_9a6ae1bf8b" x="180.174359" y="256.351646"/>
    </g>
    <g clip-path="url(#p3e2c8c12e0)">
     <use xlink:href="#C1_0_9a6ae1bf8b" x="192.445836" y="249.074633"/>
    </g>
    <g clip-path="url(#p3e2c8c12e0)">
     <use xlink:href="#C1_0_9a6ae1bf8b" x="182.637106" y="235.348603"/>
    </g>
    <g clip-path="url(#p3e2c8c12e0)">
     <use xlink:href="#C1_0_9a6ae1bf8b" x="187.391285" y="261.605303"/>
    </g>
    <g clip-path="url(#p3e2c8c12e0)">
     <use xlink:href="#C1_0_9a6ae1bf8b" x="183.786176" y="233.468112"/>
    </g>
    <g clip-path="url(#p3e2c8c12e0)">
     <use xlink:href="#C1_0_9a6ae1bf8b" x="189.169064" y="261.837772"/>
    </g>
    <g clip-path="url(#p3e2c8c12e0)">
     <use xlink:href="#C1_0_9a6ae1bf8b" x="190.168446" y="250.451559"/>
    </g>
   </g>
   <g id="PathCollection_5">
    <defs>
     <path id="C2_0_05eb9a8448" d="M 0 1 
C 0.265203 1 0.51958 0.894634 0.707107 0.707107 
C 0.894634 0.51958 1 0.265203 1 -0 
C 1 -0.265203 0.894634 -0.51958 0.707107 -0.707107 
C 0.51958 -0.894634 0.265203 -1 0 -1 
C -0.265203 -1 -0.51958 -0.894634 -0.707107 -0.707107 
C -0.894634 -0.51958 -1 -0.265203 -1 0 
C -1 0.265203 -0.894634 0.51958 -0.707107 0.707107 
C -0.51958 0.894634 -0.265203 1 0 1 
z
"/>
    </defs>
    <g clip-path="url(#p3e2c8c12e0)">
     <use xlink:href="#C2_0_05eb9a8448" x="315.91379" y="273.835194" style="fill: #262626"/>
    </g>
    <g clip-path="url(#p3e2c8c12e0)">
     <use xlink:href="#C2_0_05eb9a8448" x="309.126041" y="262.139251" style="fill: #262626"/>
    </g>
    <g clip-path="url(#p3e2c8c12e0)">
     <use xlink:href="#C2_0_05eb9a8448" x="299.540637" y="254.996799" style="fill: #262626"/>
    </g>
    <g clip-path="url(#p3e2c8c12e0)">
     <use xlink:href="#C2_0_05eb9a8448" x="315.520969" y="227.295303" style="fill: #262626"/>
    </g>
    <g clip-path="url(#p3e2c8c12e0)">
     <use xlink:href="#C2_0_05eb9a8448" x="308.34087" y="272.271117" style="fill: #262626"/>
    </g>
    <g clip-path="url(#p3e2c8c12e0)">
     <use xlink:href="#C2_0_05eb9a8448" x="313.194216" y="264.962986" style="fill: #262626"/>
    </g>
    <g clip-path="url(#p3e2c8c12e0)">
     <use xlink:href="#C2_0_05eb9a8448" x="307.352432" y="266.701702" style="fill: #262626"/>
    </g>
    <g clip-path="url(#p3e2c8c12e0)">
     <use xlink:href="#C2_0_05eb9a8448" x="312.962531" y="282.12706" style="fill: #262626"/>
    </g>
    <g clip-path="url(#p3e2c8c12e0)">
     <use xlink:href="#C2_0_05eb9a8448" x="304.880494" y="270.31247" style="fill: #262626"/>
    </g>
    <g clip-path="url(#p3e2c8c12e0)">
     <use xlink:href="#C2_0_05eb9a8448" x="299.414941" y="272.565041" style="fill: #262626"/>
    </g>
    <g clip-path="url(#p3e2c8c12e0)">
     <use xlink:href="#C2_0_05eb9a8448" x="302.917706" y="263.343111" style="fill: #262626"/>
    </g>
    <g clip-path="url(#p3e2c8c12e0)">
     <use xlink:href="#C2_0_05eb9a8448" x="318.444139" y="263.703074" style="fill: #262626"/>
    </g>
    <g clip-path="url(#p3e2c8c12e0)">
     <use xlink:href="#C2_0_05eb9a8448" x="314.66774" y="259.652597" style="fill: #262626"/>
    </g>
    <g clip-path="url(#p3e2c8c12e0)">
     <use xlink:href="#C2_0_05eb9a8448" x="313.504337" y="244.442097" style="fill: #262626"/>
    </g>
    <g clip-path="url(#p3e2c8c12e0)">
     <use xlink:href="#C2_0_05eb9a8448" x="312.007583" y="268.570291" style="fill: #262626"/>
    </g>
    <g clip-path="url(#p3e2c8c12e0)">
     <use xlink:href="#C2_0_05eb9a8448" x="303.547426" y="265.389189" style="fill: #262626"/>
    </g>
    <g clip-path="url(#p3e2c8c12e0)">
     <use xlink:href="#C2_0_05eb9a8448" x="314.501903" y="263.009512" style="fill: #262626"/>
    </g>
    <g clip-path="url(#p3e2c8c12e0)">
     <use xlink:href="#C2_0_05eb9a8448" x="300.699262" y="264.961765" style="fill: #262626"/>
    </g>
    <g clip-path="url(#p3e2c8c12e0)">
     <use xlink:href="#C2_0_05eb9a8448" x="300.765367" y="254.72895" style="fill: #262626"/>
    </g>
    <g clip-path="url(#p3e2c8c12e0)">
     <use xlink:href="#C2_0_05eb9a8448" x="309.832505" y="279.28233" style="fill: #262626"/>
    </g>
    <g clip-path="url(#p3e2c8c12e0)">
     <use xlink:href="#C2_0_05eb9a8448" x="299.976822" y="250.354888" style="fill: #262626"/>
    </g>
    <g clip-path="url(#p3e2c8c12e0)">
     <use xlink:href="#C2_0_05eb9a8448" x="309.315941" y="278.545432" style="fill: #262626"/>
    </g>
    <g clip-path="url(#p3e2c8c12e0)">
     <use xlink:href="#C2_0_05eb9a8448" x="299.298153" y="249.802048" style="fill: #262626"/>
    </g>
    <g clip-path="url(#p3e2c8c12e0)">
     <use xlink:href="#C2_0_05eb9a8448" x="301.918435" y="252.036741" style="fill: #262626"/>
    </g>
    <g clip-path="url(#p3e2c8c12e0)">
     <use xlink:href="#C2_0_05eb9a8448" x="299.545042" y="256.044003" style="fill: #262626"/>
    </g>
    <g clip-path="url(#p3e2c8c12e0)">
     <use xlink:href="#C2_0_05eb9a8448" x="308.571501" y="256.201379" style="fill: #262626"/>
    </g>
    <g clip-path="url(#p3e2c8c12e0)">
     <use xlink:href="#C2_0_05eb9a8448" x="309.686189" y="238.481218" style="fill: #262626"/>
    </g>
    <g clip-path="url(#p3e2c8c12e0)">
     <use xlink:href="#C2_0_05eb9a8448" x="312.254028" y="265.478108" style="fill: #262626"/>
    </g>
    <g clip-path="url(#p3e2c8c12e0)">
     <use xlink:href="#C2_0_05eb9a8448" x="305.019701" y="270.513294" style="fill: #262626"/>
    </g>
    <g clip-path="url(#p3e2c8c12e0)">
     <use xlink:href="#C2_0_05eb9a8448" x="307.242199" y="268.830024" style="fill: #262626"/>
    </g>
    <g clip-path="url(#p3e2c8c12e0)">
     <use xlink:href="#C2_0_05eb9a8448" x="317.475416" y="269.54088" style="fill: #262626"/>
    </g>
    <g clip-path="url(#p3e2c8c12e0)">
     <use xlink:href="#C2_0_05eb9a8448" x="315.395308" y="261.578874" style="fill: #262626"/>
    </g>
    <g clip-path="url(#p3e2c8c12e0)">
     <use xlink:href="#C2_0_05eb9a8448" x="318.121205" y="273.559125" style="fill: #262626"/>
    </g>
    <g clip-path="url(#p3e2c8c12e0)">
     <use xlink:href="#C2_0_05eb9a8448" x="306.07628" y="277.603415" style="fill: #262626"/>
    </g>
    <g clip-path="url(#p3e2c8c12e0)">
     <use xlink:href="#C2_0_05eb9a8448" x="318.009574" y="263.380951" style="fill: #262626"/>
    </g>
    <g clip-path="url(#p3e2c8c12e0)">
     <use xlink:href="#C2_0_05eb9a8448" x="312.902094" y="249.193421" style="fill: #262626"/>
    </g>
    <g clip-path="url(#p3e2c8c12e0)">
     <use xlink:href="#C2_0_05eb9a8448" x="312.910999" y="260.183604" style="fill: #262626"/>
    </g>
    <g clip-path="url(#p3e2c8c12e0)">
     <use xlink:href="#C2_0_05eb9a8448" x="315.709015" y="250.813429" style="fill: #262626"/>
    </g>
    <g clip-path="url(#p3e2c8c12e0)">
     <use xlink:href="#C2_0_05eb9a8448" x="308.484457" y="269.573063" style="fill: #262626"/>
    </g>
    <g clip-path="url(#p3e2c8c12e0)">
     <use xlink:href="#C2_0_05eb9a8448" x="305.639971" y="277.392362" style="fill: #262626"/>
    </g>
    <g clip-path="url(#p3e2c8c12e0)">
     <use xlink:href="#C2_0_05eb9a8448" x="308.993892" y="244.673699" style="fill: #262626"/>
    </g>
    <g clip-path="url(#p3e2c8c12e0)">
     <use xlink:href="#C2_0_05eb9a8448" x="310.707737" y="270.810003" style="fill: #262626"/>
    </g>
    <g clip-path="url(#p3e2c8c12e0)">
     <use xlink:href="#C2_0_05eb9a8448" x="301.771852" y="272.461627" style="fill: #262626"/>
    </g>
    <g clip-path="url(#p3e2c8c12e0)">
     <use xlink:href="#C2_0_05eb9a8448" x="300.857175" y="238.376218" style="fill: #262626"/>
    </g>
    <g clip-path="url(#p3e2c8c12e0)">
     <use xlink:href="#C2_0_05eb9a8448" x="311.500843" y="246.760878" style="fill: #262626"/>
    </g>
    <g clip-path="url(#p3e2c8c12e0)">
     <use xlink:href="#C2_0_05eb9a8448" x="305.593017" y="264.576088" style="fill: #262626"/>
    </g>
    <g clip-path="url(#p3e2c8c12e0)">
     <use xlink:href="#C2_0_05eb9a8448" x="315.701706" y="249.42499" style="fill: #262626"/>
    </g>
    <g clip-path="url(#p3e2c8c12e0)">
     <use xlink:href="#C2_0_05eb9a8448" x="312.584813" y="244.127163" style="fill: #262626"/>
    </g>
    <g clip-path="url(#p3e2c8c12e0)">
     <use xlink:href="#C2_0_05eb9a8448" x="304.081482" y="256.699028" style="fill: #262626"/>
    </g>
    <g clip-path="url(#p3e2c8c12e0)">
     <use xlink:href="#C2_0_05eb9a8448" x="302.60025" y="281.239259" style="fill: #262626"/>
    </g>
    <g clip-path="url(#p3e2c8c12e0)">
     <use xlink:href="#C2_0_05eb9a8448" x="310.077187" y="246.978441" style="fill: #262626"/>
    </g>
    <g clip-path="url(#p3e2c8c12e0)">
     <use xlink:href="#C2_0_05eb9a8448" x="302.253581" y="260.152304" style="fill: #262626"/>
    </g>
    <g clip-path="url(#p3e2c8c12e0)">
     <use xlink:href="#C2_0_05eb9a8448" x="305.001092" y="240.844298" style="fill: #262626"/>
    </g>
    <g clip-path="url(#p3e2c8c12e0)">
     <use xlink:href="#C2_0_05eb9a8448" x="300.865319" y="263.888269" style="fill: #262626"/>
    </g>
    <g clip-path="url(#p3e2c8c12e0)">
     <use xlink:href="#C2_0_05eb9a8448" x="302.791309" y="252.757429" style="fill: #262626"/>
    </g>
    <g clip-path="url(#p3e2c8c12e0)">
     <use xlink:href="#C2_0_05eb9a8448" x="301.188577" y="261.593915" style="fill: #262626"/>
    </g>
    <g clip-path="url(#p3e2c8c12e0)">
     <use xlink:href="#C2_0_05eb9a8448" x="304.174568" y="239.445323" style="fill: #262626"/>
    </g>
    <g clip-path="url(#p3e2c8c12e0)">
     <use xlink:href="#C2_0_05eb9a8448" x="302.08937" y="258.797933" style="fill: #262626"/>
    </g>
    <g clip-path="url(#p3e2c8c12e0)">
     <use xlink:href="#C2_0_05eb9a8448" x="315.168874" y="258.572564" style="fill: #262626"/>
    </g>
   </g>
   <g id="PathCollection_6">
    <defs>
     <path id="C3_0_a73d0b00c9" d="M 0 1 
C 0.265203 1 0.51958 0.894634 0.707107 0.707107 
C 0.894634 0.51958 1 0.265203 1 -0 
C 1 -0.265203 0.894634 -0.51958 0.707107 -0.707107 
C 0.51958 -0.894634 0.265203 -1 0 -1 
C -0.265203 -1 -0.51958 -0.894634 -0.707107 -0.707107 
C -0.894634 -0.51958 -1 -0.265203 -1 0 
C -1 0.265203 -0.894634 0.51958 -0.707107 0.707107 
C -0.51958 0.894634 -0.265203 1 0 1 
z
"/>
    </defs>
    <g clip-path="url(#p3e2c8c12e0)">
     <use xlink:href="#C3_0_a73d0b00c9" x="387.522883" y="257.123972"/>
    </g>
    <g clip-path="url(#p3e2c8c12e0)">
     <use xlink:href="#C3_0_a73d0b00c9" x="380.133887" y="218.49718"/>
    </g>
    <g clip-path="url(#p3e2c8c12e0)">
     <use xlink:href="#C3_0_a73d0b00c9" x="380.855913" y="263.879144"/>
    </g>
    <g clip-path="url(#p3e2c8c12e0)">
     <use xlink:href="#C3_0_a73d0b00c9" x="394.497848" y="113.812382"/>
    </g>
    <g clip-path="url(#p3e2c8c12e0)">
     <use xlink:href="#C3_0_a73d0b00c9" x="386.09323" y="149.6853"/>
    </g>
    <g clip-path="url(#p3e2c8c12e0)">
     <use xlink:href="#C3_0_a73d0b00c9" x="392.821775" y="245.409729"/>
    </g>
    <g clip-path="url(#p3e2c8c12e0)">
     <use xlink:href="#C3_0_a73d0b00c9" x="380.878821" y="142.158407"/>
    </g>
    <g clip-path="url(#p3e2c8c12e0)">
     <use xlink:href="#C3_0_a73d0b00c9" x="381.252973" y="126.009918"/>
    </g>
    <g clip-path="url(#p3e2c8c12e0)">
     <use xlink:href="#C3_0_a73d0b00c9" x="389.758" y="78.412408"/>
    </g>
    <g clip-path="url(#p3e2c8c12e0)">
     <use xlink:href="#C3_0_a73d0b00c9" x="399.601327" y="263.838914"/>
    </g>
    <g clip-path="url(#p3e2c8c12e0)">
     <use xlink:href="#C3_0_a73d0b00c9" x="380.309464" y="162.557901"/>
    </g>
    <g clip-path="url(#p3e2c8c12e0)">
     <use xlink:href="#C3_0_a73d0b00c9" x="380.117267" y="207.994508"/>
    </g>
    <g clip-path="url(#p3e2c8c12e0)">
     <use xlink:href="#C3_0_a73d0b00c9" x="389.643391" y="132.777579"/>
    </g>
    <g clip-path="url(#p3e2c8c12e0)">
     <use xlink:href="#C3_0_a73d0b00c9" x="389.686338" y="95.136346"/>
    </g>
    <g clip-path="url(#p3e2c8c12e0)">
     <use xlink:href="#C3_0_a73d0b00c9" x="388.051597" y="251.915601"/>
    </g>
    <g clip-path="url(#p3e2c8c12e0)">
     <use xlink:href="#C3_0_a73d0b00c9" x="393.459068" y="234.993491"/>
    </g>
    <g clip-path="url(#p3e2c8c12e0)">
     <use xlink:href="#C3_0_a73d0b00c9" x="385.900665" y="237.577312"/>
    </g>
    <g clip-path="url(#p3e2c8c12e0)">
     <use xlink:href="#C3_0_a73d0b00c9" x="383.748772" y="212.766216"/>
    </g>
    <g clip-path="url(#p3e2c8c12e0)">
     <use xlink:href="#C3_0_a73d0b00c9" x="390.515925" y="257.710198"/>
    </g>
    <g clip-path="url(#p3e2c8c12e0)">
     <use xlink:href="#C3_0_a73d0b00c9" x="381.438108" y="220.107654"/>
    </g>
    <g clip-path="url(#p3e2c8c12e0)">
     <use xlink:href="#C3_0_a73d0b00c9" x="398.351543" y="119.005121"/>
    </g>
    <g clip-path="url(#p3e2c8c12e0)">
     <use xlink:href="#C3_0_a73d0b00c9" x="387.478096" y="277.888142"/>
    </g>
    <g clip-path="url(#p3e2c8c12e0)">
     <use xlink:href="#C3_0_a73d0b00c9" x="392.338972" y="237.004796"/>
    </g>
    <g clip-path="url(#p3e2c8c12e0)">
     <use xlink:href="#C3_0_a73d0b00c9" x="383.006346" y="266.268339"/>
    </g>
    <g clip-path="url(#p3e2c8c12e0)">
     <use xlink:href="#C3_0_a73d0b00c9" x="398.591611" y="250.219074"/>
    </g>
    <g clip-path="url(#p3e2c8c12e0)">
     <use xlink:href="#C3_0_a73d0b00c9" x="395.31595" y="250.953979"/>
    </g>
    <g clip-path="url(#p3e2c8c12e0)">
     <use xlink:href="#C3_0_a73d0b00c9" x="386.229944" y="172.056681"/>
    </g>
    <g clip-path="url(#p3e2c8c12e0)">
     <use xlink:href="#C3_0_a73d0b00c9" x="382.734683" y="133.854561"/>
    </g>
    <g clip-path="url(#p3e2c8c12e0)">
     <use xlink:href="#C3_0_a73d0b00c9" x="387.875761" y="253.608492"/>
    </g>
    <g clip-path="url(#p3e2c8c12e0)">
     <use xlink:href="#C3_0_a73d0b00c9" x="390.123581" y="238.426741"/>
    </g>
    <g clip-path="url(#p3e2c8c12e0)">
     <use xlink:href="#C3_0_a73d0b00c9" x="399.64266" y="238.475582"/>
    </g>
    <g clip-path="url(#p3e2c8c12e0)">
     <use xlink:href="#C3_0_a73d0b00c9" x="388.376462" y="95.143986"/>
    </g>
    <g clip-path="url(#p3e2c8c12e0)">
     <use xlink:href="#C3_0_a73d0b00c9" x="381.980085" y="272.862342"/>
    </g>
    <g clip-path="url(#p3e2c8c12e0)">
     <use xlink:href="#C3_0_a73d0b00c9" x="380.538883" y="228.438651"/>
    </g>
    <g clip-path="url(#p3e2c8c12e0)">
     <use xlink:href="#C3_0_a73d0b00c9" x="395.398317" y="160.892721"/>
    </g>
   </g>
   <g id="text_13">
    <!-- 14 -->
    <g style="fill: #262626" transform="translate(118.119 24.202636) scale(0.1 -0.1)">
     <use xlink:href="#DejaVuSans-31"/>
     <use xlink:href="#DejaVuSans-34" x="63.623047"/>
    </g>
   </g>
   <g id="text_14">
    <!-- p=0.02795862453966601 -->
    <g style="fill: #262626" transform="translate(65.1465 219.533146) scale(0.08 -0.08)">
     <defs>
      <path id="DejaVuSans-3d" d="M 678 2906 
L 4684 2906 
L 4684 2381 
L 678 2381 
L 678 2906 
z
M 678 1631 
L 4684 1631 
L 4684 1100 
L 678 1100 
L 678 1631 
z
" transform="scale(0.015625)"/>
      <path id="DejaVuSans-37" d="M 525 4666 
L 3525 4666 
L 3525 4397 
L 1831 0 
L 1172 0 
L 2766 4134 
L 525 4134 
L 525 4666 
z
" transform="scale(0.015625)"/>
      <path id="DejaVuSans-39" d="M 703 97 
L 703 672 
Q 941 559 1184 500 
Q 1428 441 1663 441 
Q 2288 441 2617 861 
Q 2947 1281 2994 2138 
Q 2813 1869 2534 1725 
Q 2256 1581 1919 1581 
Q 1219 1581 811 2004 
Q 403 2428 403 3163 
Q 403 3881 828 4315 
Q 1253 4750 1959 4750 
Q 2769 4750 3195 4129 
Q 3622 3509 3622 2328 
Q 3622 1225 3098 567 
Q 2575 -91 1691 -91 
Q 1453 -91 1209 -44 
Q 966 3 703 97 
z
M 1959 2075 
Q 2384 2075 2632 2365 
Q 2881 2656 2881 3163 
Q 2881 3666 2632 3958 
Q 2384 4250 1959 4250 
Q 1534 4250 1286 3958 
Q 1038 3666 1038 3163 
Q 1038 2656 1286 2365 
Q 1534 2075 1959 2075 
z
" transform="scale(0.015625)"/>
      <path id="DejaVuSans-35" d="M 691 4666 
L 3169 4666 
L 3169 4134 
L 1269 4134 
L 1269 2991 
Q 1406 3038 1543 3061 
Q 1681 3084 1819 3084 
Q 2600 3084 3056 2656 
Q 3513 2228 3513 1497 
Q 3513 744 3044 326 
Q 2575 -91 1722 -91 
Q 1428 -91 1123 -41 
Q 819 9 494 109 
L 494 744 
Q 775 591 1075 516 
Q 1375 441 1709 441 
Q 2250 441 2565 725 
Q 2881 1009 2881 1497 
Q 2881 1984 2565 2268 
Q 2250 2553 1709 2553 
Q 1456 2553 1204 2497 
Q 953 2441 691 2322 
L 691 4666 
z
" transform="scale(0.015625)"/>
      <path id="DejaVuSans-33" d="M 2597 2516 
Q 3050 2419 3304 2112 
Q 3559 1806 3559 1356 
Q 3559 666 3084 287 
Q 2609 -91 1734 -91 
Q 1441 -91 1130 -33 
Q 819 25 488 141 
L 488 750 
Q 750 597 1062 519 
Q 1375 441 1716 441 
Q 2309 441 2620 675 
Q 2931 909 2931 1356 
Q 2931 1769 2642 2001 
Q 2353 2234 1838 2234 
L 1294 2234 
L 1294 2753 
L 1863 2753 
Q 2328 2753 2575 2939 
Q 2822 3125 2822 3475 
Q 2822 3834 2567 4026 
Q 2313 4219 1838 4219 
Q 1578 4219 1281 4162 
Q 984 4106 628 3988 
L 628 4550 
Q 988 4650 1302 4700 
Q 1616 4750 1894 4750 
Q 2613 4750 3031 4423 
Q 3450 4097 3450 3541 
Q 3450 3153 3228 2886 
Q 3006 2619 2597 2516 
z
" transform="scale(0.015625)"/>
     </defs>
     <use xlink:href="#DejaVuSans-70"/>
     <use xlink:href="#DejaVuSans-3d" x="63.476562"/>
     <use xlink:href="#DejaVuSans-30" x="147.265625"/>
     <use xlink:href="#DejaVuSans-2e" x="210.888672"/>
     <use xlink:href="#DejaVuSans-30" x="242.675781"/>
     <use xlink:href="#DejaVuSans-32" x="306.298828"/>
     <use xlink:href="#DejaVuSans-37" x="369.921875"/>
     <use xlink:href="#DejaVuSans-39" x="433.544922"/>
     <use xlink:href="#DejaVuSans-35" x="497.167969"/>
     <use xlink:href="#DejaVuSans-38" x="560.791016"/>
     <use xlink:href="#DejaVuSans-36" x="624.414062"/>
     <use xlink:href="#DejaVuSans-32" x="688.037109"/>
     <use xlink:href="#DejaVuSans-34" x="751.660156"/>
     <use xlink:href="#DejaVuSans-35" x="815.283203"/>
     <use xlink:href="#DejaVuSans-33" x="878.90625"/>
     <use xlink:href="#DejaVuSans-39" x="942.529297"/>
     <use xlink:href="#DejaVuSans-36" x="1006.152344"/>
     <use xlink:href="#DejaVuSans-36" x="1069.775391"/>
     <use xlink:href="#DejaVuSans-36" x="1133.398438"/>
     <use xlink:href="#DejaVuSans-30" x="1197.021484"/>
     <use xlink:href="#DejaVuSans-31" x="1260.644531"/>
    </g>
   </g>
   <g id="text_15">
    <!-- 7 -->
    <g style="fill: #262626" transform="translate(178.461 24.202636) scale(0.1 -0.1)">
     <use xlink:href="#DejaVuSans-37"/>
    </g>
   </g>
   <g id="text_16">
    <!-- 59 -->
    <g style="fill: #262626" transform="translate(319.259 24.202636) scale(0.1 -0.1)">
     <use xlink:href="#DejaVuSans-35"/>
     <use xlink:href="#DejaVuSans-39" x="63.623047"/>
    </g>
   </g>
   <g id="text_17">
    <!-- p=1.9927625324797157e-10 -->
    <g style="fill: #262626" transform="translate(259.837125 218.827504) scale(0.08 -0.08)">
     <defs>
      <path id="DejaVuSans-2d" d="M 313 2009 
L 1997 2009 
L 1997 1497 
L 313 1497 
L 313 2009 
z
" transform="scale(0.015625)"/>
     </defs>
     <use xlink:href="#DejaVuSans-70"/>
     <use xlink:href="#DejaVuSans-3d" x="63.476562"/>
     <use xlink:href="#DejaVuSans-31" x="147.265625"/>
     <use xlink:href="#DejaVuSans-2e" x="210.888672"/>
     <use xlink:href="#DejaVuSans-39" x="242.675781"/>
     <use xlink:href="#DejaVuSans-39" x="306.298828"/>
     <use xlink:href="#DejaVuSans-32" x="369.921875"/>
     <use xlink:href="#DejaVuSans-37" x="433.544922"/>
     <use xlink:href="#DejaVuSans-36" x="497.167969"/>
     <use xlink:href="#DejaVuSans-32" x="560.791016"/>
     <use xlink:href="#DejaVuSans-35" x="624.414062"/>
     <use xlink:href="#DejaVuSans-33" x="688.037109"/>
     <use xlink:href="#DejaVuSans-32" x="751.660156"/>
     <use xlink:href="#DejaVuSans-34" x="815.283203"/>
     <use xlink:href="#DejaVuSans-37" x="878.90625"/>
     <use xlink:href="#DejaVuSans-39" x="942.529297"/>
     <use xlink:href="#DejaVuSans-37" x="1006.152344"/>
     <use xlink:href="#DejaVuSans-31" x="1069.775391"/>
     <use xlink:href="#DejaVuSans-35" x="1133.398438"/>
     <use xlink:href="#DejaVuSans-37" x="1197.021484"/>
     <use xlink:href="#DejaVuSans-65" x="1260.644531"/>
     <use xlink:href="#DejaVuSans-2d" x="1322.167969"/>
     <use xlink:href="#DejaVuSans-31" x="1358.251953"/>
     <use xlink:href="#DejaVuSans-30" x="1421.875"/>
    </g>
   </g>
   <g id="text_18">
    <!-- 35 -->
    <g style="fill: #262626" transform="translate(379.601 24.202636) scale(0.1 -0.1)">
     <use xlink:href="#DejaVuSans-33"/>
     <use xlink:href="#DejaVuSans-35" x="63.623047"/>
    </g>
   </g>
   <g id="legend_1">
    <g id="patch_13">
     <path d="M 56.72 72.488086 
L 76.72 72.488086 
L 76.72 65.488086 
L 56.72 65.488086 
z
" style="fill: #ecf2ec; stroke: #262626; stroke-width: 0.75; stroke-linejoin: miter"/>
    </g>
    <g id="text_19">
     <!-- Mutant -->
     <g style="fill: #262626" transform="translate(84.72 72.488086) scale(0.1 -0.1)">
      <defs>
       <path id="DejaVuSans-4d" d="M 628 4666 
L 1569 4666 
L 2759 1491 
L 3956 4666 
L 4897 4666 
L 4897 0 
L 4281 0 
L 4281 4097 
L 3078 897 
L 2444 897 
L 1241 4097 
L 1241 0 
L 628 0 
L 628 4666 
z
" transform="scale(0.015625)"/>
       <path id="DejaVuSans-75" d="M 544 1381 
L 544 3500 
L 1119 3500 
L 1119 1403 
Q 1119 906 1312 657 
Q 1506 409 1894 409 
Q 2359 409 2629 706 
Q 2900 1003 2900 1516 
L 2900 3500 
L 3475 3500 
L 3475 0 
L 2900 0 
L 2900 538 
Q 2691 219 2414 64 
Q 2138 -91 1772 -91 
Q 1169 -91 856 284 
Q 544 659 544 1381 
z
M 1991 3584 
L 1991 3584 
z
" transform="scale(0.015625)"/>
       <path id="DejaVuSans-61" d="M 2194 1759 
Q 1497 1759 1228 1600 
Q 959 1441 959 1056 
Q 959 750 1161 570 
Q 1363 391 1709 391 
Q 2188 391 2477 730 
Q 2766 1069 2766 1631 
L 2766 1759 
L 2194 1759 
z
M 3341 1997 
L 3341 0 
L 2766 0 
L 2766 531 
Q 2569 213 2275 61 
Q 1981 -91 1556 -91 
Q 1019 -91 701 211 
Q 384 513 384 1019 
Q 384 1609 779 1909 
Q 1175 2209 1959 2209 
L 2766 2209 
L 2766 2266 
Q 2766 2663 2505 2880 
Q 2244 3097 1772 3097 
Q 1472 3097 1187 3025 
Q 903 2953 641 2809 
L 641 3341 
Q 956 3463 1253 3523 
Q 1550 3584 1831 3584 
Q 2591 3584 2966 3190 
Q 3341 2797 3341 1997 
z
" transform="scale(0.015625)"/>
      </defs>
      <use xlink:href="#DejaVuSans-4d"/>
      <use xlink:href="#DejaVuSans-75" x="86.279297"/>
      <use xlink:href="#DejaVuSans-74" x="149.658203"/>
      <use xlink:href="#DejaVuSans-61" x="188.867188"/>
      <use xlink:href="#DejaVuSans-6e" x="250.146484"/>
      <use xlink:href="#DejaVuSans-74" x="313.525391"/>
     </g>
    </g>
    <g id="patch_14">
     <path d="M 56.72 87.166211 
L 76.72 87.166211 
L 76.72 80.166211 
L 56.72 80.166211 
z
" style="fill: #107010; stroke: #262626; stroke-width: 0.75; stroke-linejoin: miter"/>
    </g>
    <g id="text_20">
     <!-- WT -->
     <g style="fill: #262626" transform="translate(84.72 87.166211) scale(0.1 -0.1)">
      <use xlink:href="#DejaVuSans-57"/>
      <use xlink:href="#DejaVuSans-54" x="98.876953"/>
     </g>
    </g>
   </g>
  </g>
 </g>
 <defs>
  <clipPath id="p3e2c8c12e0">
   <rect x="47.72" y="55.889649" width="402.28" height="247.750351"/>
  </clipPath>
 </defs>
</svg>
