<?xml version="1.0" encoding="utf-8" standalone="no"?>
<!DOCTYPE svg PUBLIC "-//W3C//DTD SVG 1.1//EN"
  "http://www.w3.org/Graphics/SVG/1.1/DTD/svg11.dtd">
<svg xmlns:xlink="http://www.w3.org/1999/xlink" width="460.8pt" height="345.6pt" viewBox="0 0 460.8 345.6" xmlns="http://www.w3.org/2000/svg" version="1.1">
 <metadata>
  <rdf:RDF xmlns:dc="http://purl.org/dc/elements/1.1/" xmlns:cc="http://creativecommons.org/ns#" xmlns:rdf="http://www.w3.org/1999/02/22-rdf-syntax-ns#">
   <cc:Work>
    <dc:type rdf:resource="http://purl.org/dc/dcmitype/StillImage"/>
    <dc:date>2023-12-16T14:37:32.920736</dc:date>
    <dc:format>image/svg+xml</dc:format>
    <dc:creator>
     <cc:Agent>
      <dc:title>Matplotlib v3.5.3, https://matplotlib.org/</dc:title>
     </cc:Agent>
    </dc:creator>
   </cc:Work>
  </rdf:RDF>
 </metadata>
 <defs>
  <style type="text/css">*{stroke-linejoin: round; stroke-linecap: butt}</style>
 </defs>
 <g id="figure_1">
  <g id="patch_1">
   <path d="M 0 345.6 
L 460.8 345.6 
L 460.8 0 
L 0 0 
z
" style="fill: #ffffff"/>
  </g>
  <g id="axes_1">
   <g id="patch_2">
    <path d="M 47.81 303.64 
L 450 303.64 
L 450 27.353629 
L 47.81 27.353629 
z
" style="fill: #ffffff"/>
   </g>
   <g id="matplotlib.axis_1">
    <g id="xtick_1">
     <g id="text_1">
      <!-- I -->
      <g style="fill: #262626" transform="translate(247.43 318.238437)scale(0.1 -0.1)">
       <defs>
        <path id="DejaVuSans-49" d="M 628 4666 
L 1259 4666 
L 1259 0 
L 628 0 
L 628 4666 
z
" transform="scale(0.015625)"/>
       </defs>
       <use xlink:href="#DejaVuSans-49"/>
      </g>
     </g>
    </g>
    <g id="text_2">
     <!-- mut_AA -->
     <g style="fill: #262626" transform="translate(229.427656 331.638437)scale(0.1 -0.1)">
      <defs>
       <path id="DejaVuSans-6d" d="M 3328 2828 
Q 3544 3216 3844 3400 
Q 4144 3584 4550 3584 
Q 5097 3584 5394 3201 
Q 5691 2819 5691 2113 
L 5691 0 
L 5113 0 
L 5113 2094 
Q 5113 2597 4934 2840 
Q 4756 3084 4391 3084 
Q 3944 3084 3684 2787 
Q 3425 2491 3425 1978 
L 3425 0 
L 2847 0 
L 2847 2094 
Q 2847 2600 2669 2842 
Q 2491 3084 2119 3084 
Q 1678 3084 1418 2786 
Q 1159 2488 1159 1978 
L 1159 0 
L 581 0 
L 581 3500 
L 1159 3500 
L 1159 2956 
Q 1356 3278 1631 3431 
Q 1906 3584 2284 3584 
Q 2666 3584 2933 3390 
Q 3200 3197 3328 2828 
z
" transform="scale(0.015625)"/>
       <path id="DejaVuSans-75" d="M 544 1381 
L 544 3500 
L 1119 3500 
L 1119 1403 
Q 1119 906 1312 657 
Q 1506 409 1894 409 
Q 2359 409 2629 706 
Q 2900 1003 2900 1516 
L 2900 3500 
L 3475 3500 
L 3475 0 
L 2900 0 
L 2900 538 
Q 2691 219 2414 64 
Q 2138 -91 1772 -91 
Q 1169 -91 856 284 
Q 544 659 544 1381 
z
M 1991 3584 
L 1991 3584 
z
" transform="scale(0.015625)"/>
       <path id="DejaVuSans-74" d="M 1172 4494 
L 1172 3500 
L 2356 3500 
L 2356 3053 
L 1172 3053 
L 1172 1153 
Q 1172 725 1289 603 
Q 1406 481 1766 481 
L 2356 481 
L 2356 0 
L 1766 0 
Q 1100 0 847 248 
Q 594 497 594 1153 
L 594 3053 
L 172 3053 
L 172 3500 
L 594 3500 
L 594 4494 
L 1172 4494 
z
" transform="scale(0.015625)"/>
       <path id="DejaVuSans-5f" d="M 3263 -1063 
L 3263 -1509 
L -63 -1509 
L -63 -1063 
L 3263 -1063 
z
" transform="scale(0.015625)"/>
       <path id="DejaVuSans-41" d="M 2188 4044 
L 1331 1722 
L 3047 1722 
L 2188 4044 
z
M 1831 4666 
L 2547 4666 
L 4325 0 
L 3669 0 
L 3244 1197 
L 1141 1197 
L 716 0 
L 50 0 
L 1831 4666 
z
" transform="scale(0.015625)"/>
      </defs>
      <use xlink:href="#DejaVuSans-6d"/>
      <use xlink:href="#DejaVuSans-75" x="97.412109"/>
      <use xlink:href="#DejaVuSans-74" x="160.791016"/>
      <use xlink:href="#DejaVuSans-5f" x="200"/>
      <use xlink:href="#DejaVuSans-41" x="250"/>
      <use xlink:href="#DejaVuSans-41" x="321.158203"/>
     </g>
    </g>
   </g>
   <g id="matplotlib.axis_2">
    <g id="ytick_1">
     <g id="line2d_1">
      <path d="M 47.81 303.64 
L 450 303.64 
" clip-path="url(#p9bc78ba5c0)" style="fill: none; stroke: #cccccc; stroke-width: 0.8; stroke-linecap: round"/>
     </g>
     <g id="text_3">
      <!-- 0.0 -->
      <g style="fill: #262626" transform="translate(24.906875 307.439219)scale(0.1 -0.1)">
       <defs>
        <path id="DejaVuSans-30" d="M 2034 4250 
Q 1547 4250 1301 3770 
Q 1056 3291 1056 2328 
Q 1056 1369 1301 889 
Q 1547 409 2034 409 
Q 2525 409 2770 889 
Q 3016 1369 3016 2328 
Q 3016 3291 2770 3770 
Q 2525 4250 2034 4250 
z
M 2034 4750 
Q 2819 4750 3233 4129 
Q 3647 3509 3647 2328 
Q 3647 1150 3233 529 
Q 2819 -91 2034 -91 
Q 1250 -91 836 529 
Q 422 1150 422 2328 
Q 422 3509 836 4129 
Q 1250 4750 2034 4750 
z
" transform="scale(0.015625)"/>
        <path id="DejaVuSans-2e" d="M 684 794 
L 1344 794 
L 1344 0 
L 684 0 
L 684 794 
z
" transform="scale(0.015625)"/>
       </defs>
       <use xlink:href="#DejaVuSans-30"/>
       <use xlink:href="#DejaVuSans-2e" x="63.623047"/>
       <use xlink:href="#DejaVuSans-30" x="95.410156"/>
      </g>
     </g>
    </g>
    <g id="ytick_2">
     <g id="line2d_2">
      <path d="M 47.81 269.104204 
L 450 269.104204 
" clip-path="url(#p9bc78ba5c0)" style="fill: none; stroke: #cccccc; stroke-width: 0.8; stroke-linecap: round"/>
     </g>
     <g id="text_4">
      <!-- 0.2 -->
      <g style="fill: #262626" transform="translate(24.906875 272.903422)scale(0.1 -0.1)">
       <defs>
        <path id="DejaVuSans-32" d="M 1228 531 
L 3431 531 
L 3431 0 
L 469 0 
L 469 531 
Q 828 903 1448 1529 
Q 2069 2156 2228 2338 
Q 2531 2678 2651 2914 
Q 2772 3150 2772 3378 
Q 2772 3750 2511 3984 
Q 2250 4219 1831 4219 
Q 1534 4219 1204 4116 
Q 875 4013 500 3803 
L 500 4441 
Q 881 4594 1212 4672 
Q 1544 4750 1819 4750 
Q 2544 4750 2975 4387 
Q 3406 4025 3406 3419 
Q 3406 3131 3298 2873 
Q 3191 2616 2906 2266 
Q 2828 2175 2409 1742 
Q 1991 1309 1228 531 
z
" transform="scale(0.015625)"/>
       </defs>
       <use xlink:href="#DejaVuSans-30"/>
       <use xlink:href="#DejaVuSans-2e" x="63.623047"/>
       <use xlink:href="#DejaVuSans-32" x="95.410156"/>
      </g>
     </g>
    </g>
    <g id="ytick_3">
     <g id="line2d_3">
      <path d="M 47.81 234.568407 
L 450 234.568407 
" clip-path="url(#p9bc78ba5c0)" style="fill: none; stroke: #cccccc; stroke-width: 0.8; stroke-linecap: round"/>
     </g>
     <g id="text_5">
      <!-- 0.4 -->
      <g style="fill: #262626" transform="translate(24.906875 238.367626)scale(0.1 -0.1)">
       <defs>
        <path id="DejaVuSans-34" d="M 2419 4116 
L 825 1625 
L 2419 1625 
L 2419 4116 
z
M 2253 4666 
L 3047 4666 
L 3047 1625 
L 3713 1625 
L 3713 1100 
L 3047 1100 
L 3047 0 
L 2419 0 
L 2419 1100 
L 313 1100 
L 313 1709 
L 2253 4666 
z
" transform="scale(0.015625)"/>
       </defs>
       <use xlink:href="#DejaVuSans-30"/>
       <use xlink:href="#DejaVuSans-2e" x="63.623047"/>
       <use xlink:href="#DejaVuSans-34" x="95.410156"/>
      </g>
     </g>
    </g>
    <g id="ytick_4">
     <g id="line2d_4">
      <path d="M 47.81 200.032611 
L 450 200.032611 
" clip-path="url(#p9bc78ba5c0)" style="fill: none; stroke: #cccccc; stroke-width: 0.8; stroke-linecap: round"/>
     </g>
     <g id="text_6">
      <!-- 0.6 -->
      <g style="fill: #262626" transform="translate(24.906875 203.83183)scale(0.1 -0.1)">
       <defs>
        <path id="DejaVuSans-36" d="M 2113 2584 
Q 1688 2584 1439 2293 
Q 1191 2003 1191 1497 
Q 1191 994 1439 701 
Q 1688 409 2113 409 
Q 2538 409 2786 701 
Q 3034 994 3034 1497 
Q 3034 2003 2786 2293 
Q 2538 2584 2113 2584 
z
M 3366 4563 
L 3366 3988 
Q 3128 4100 2886 4159 
Q 2644 4219 2406 4219 
Q 1781 4219 1451 3797 
Q 1122 3375 1075 2522 
Q 1259 2794 1537 2939 
Q 1816 3084 2150 3084 
Q 2853 3084 3261 2657 
Q 3669 2231 3669 1497 
Q 3669 778 3244 343 
Q 2819 -91 2113 -91 
Q 1303 -91 875 529 
Q 447 1150 447 2328 
Q 447 3434 972 4092 
Q 1497 4750 2381 4750 
Q 2619 4750 2861 4703 
Q 3103 4656 3366 4563 
z
" transform="scale(0.015625)"/>
       </defs>
       <use xlink:href="#DejaVuSans-30"/>
       <use xlink:href="#DejaVuSans-2e" x="63.623047"/>
       <use xlink:href="#DejaVuSans-36" x="95.410156"/>
      </g>
     </g>
    </g>
    <g id="ytick_5">
     <g id="line2d_5">
      <path d="M 47.81 165.496814 
L 450 165.496814 
" clip-path="url(#p9bc78ba5c0)" style="fill: none; stroke: #cccccc; stroke-width: 0.8; stroke-linecap: round"/>
     </g>
     <g id="text_7">
      <!-- 0.8 -->
      <g style="fill: #262626" transform="translate(24.906875 169.296033)scale(0.1 -0.1)">
       <defs>
        <path id="DejaVuSans-38" d="M 2034 2216 
Q 1584 2216 1326 1975 
Q 1069 1734 1069 1313 
Q 1069 891 1326 650 
Q 1584 409 2034 409 
Q 2484 409 2743 651 
Q 3003 894 3003 1313 
Q 3003 1734 2745 1975 
Q 2488 2216 2034 2216 
z
M 1403 2484 
Q 997 2584 770 2862 
Q 544 3141 544 3541 
Q 544 4100 942 4425 
Q 1341 4750 2034 4750 
Q 2731 4750 3128 4425 
Q 3525 4100 3525 3541 
Q 3525 3141 3298 2862 
Q 3072 2584 2669 2484 
Q 3125 2378 3379 2068 
Q 3634 1759 3634 1313 
Q 3634 634 3220 271 
Q 2806 -91 2034 -91 
Q 1263 -91 848 271 
Q 434 634 434 1313 
Q 434 1759 690 2068 
Q 947 2378 1403 2484 
z
M 1172 3481 
Q 1172 3119 1398 2916 
Q 1625 2713 2034 2713 
Q 2441 2713 2670 2916 
Q 2900 3119 2900 3481 
Q 2900 3844 2670 4047 
Q 2441 4250 2034 4250 
Q 1625 4250 1398 4047 
Q 1172 3844 1172 3481 
z
" transform="scale(0.015625)"/>
       </defs>
       <use xlink:href="#DejaVuSans-30"/>
       <use xlink:href="#DejaVuSans-2e" x="63.623047"/>
       <use xlink:href="#DejaVuSans-38" x="95.410156"/>
      </g>
     </g>
    </g>
    <g id="ytick_6">
     <g id="line2d_6">
      <path d="M 47.81 130.961018 
L 450 130.961018 
" clip-path="url(#p9bc78ba5c0)" style="fill: none; stroke: #cccccc; stroke-width: 0.8; stroke-linecap: round"/>
     </g>
     <g id="text_8">
      <!-- 1.0 -->
      <g style="fill: #262626" transform="translate(24.906875 134.760237)scale(0.1 -0.1)">
       <defs>
        <path id="DejaVuSans-31" d="M 794 531 
L 1825 531 
L 1825 4091 
L 703 3866 
L 703 4441 
L 1819 4666 
L 2450 4666 
L 2450 531 
L 3481 531 
L 3481 0 
L 794 0 
L 794 531 
z
" transform="scale(0.015625)"/>
       </defs>
       <use xlink:href="#DejaVuSans-31"/>
       <use xlink:href="#DejaVuSans-2e" x="63.623047"/>
       <use xlink:href="#DejaVuSans-30" x="95.410156"/>
      </g>
     </g>
    </g>
    <g id="ytick_7">
     <g id="line2d_7">
      <path d="M 47.81 96.425222 
L 450 96.425222 
" clip-path="url(#p9bc78ba5c0)" style="fill: none; stroke: #cccccc; stroke-width: 0.8; stroke-linecap: round"/>
     </g>
     <g id="text_9">
      <!-- 1.2 -->
      <g style="fill: #262626" transform="translate(24.906875 100.22444)scale(0.1 -0.1)">
       <use xlink:href="#DejaVuSans-31"/>
       <use xlink:href="#DejaVuSans-2e" x="63.623047"/>
       <use xlink:href="#DejaVuSans-32" x="95.410156"/>
      </g>
     </g>
    </g>
    <g id="ytick_8">
     <g id="line2d_8">
      <path d="M 47.81 61.889425 
L 450 61.889425 
" clip-path="url(#p9bc78ba5c0)" style="fill: none; stroke: #cccccc; stroke-width: 0.8; stroke-linecap: round"/>
     </g>
     <g id="text_10">
      <!-- 1.4 -->
      <g style="fill: #262626" transform="translate(24.906875 65.688644)scale(0.1 -0.1)">
       <use xlink:href="#DejaVuSans-31"/>
       <use xlink:href="#DejaVuSans-2e" x="63.623047"/>
       <use xlink:href="#DejaVuSans-34" x="95.410156"/>
      </g>
     </g>
    </g>
    <g id="ytick_9">
     <g id="line2d_9">
      <path d="M 47.81 27.353629 
L 450 27.353629 
" clip-path="url(#p9bc78ba5c0)" style="fill: none; stroke: #cccccc; stroke-width: 0.8; stroke-linecap: round"/>
     </g>
     <g id="text_11">
      <!-- 1.6 -->
      <g style="fill: #262626" transform="translate(24.906875 31.152848)scale(0.1 -0.1)">
       <use xlink:href="#DejaVuSans-31"/>
       <use xlink:href="#DejaVuSans-2e" x="63.623047"/>
       <use xlink:href="#DejaVuSans-36" x="95.410156"/>
      </g>
     </g>
    </g>
    <g id="text_12">
     <!-- PercentGpA -->
     <g style="fill: #262626" transform="translate(18.827187 194.773377)rotate(-90)scale(0.1 -0.1)">
      <defs>
       <path id="DejaVuSans-50" d="M 1259 4147 
L 1259 2394 
L 2053 2394 
Q 2494 2394 2734 2622 
Q 2975 2850 2975 3272 
Q 2975 3691 2734 3919 
Q 2494 4147 2053 4147 
L 1259 4147 
z
M 628 4666 
L 2053 4666 
Q 2838 4666 3239 4311 
Q 3641 3956 3641 3272 
Q 3641 2581 3239 2228 
Q 2838 1875 2053 1875 
L 1259 1875 
L 1259 0 
L 628 0 
L 628 4666 
z
" transform="scale(0.015625)"/>
       <path id="DejaVuSans-65" d="M 3597 1894 
L 3597 1613 
L 953 1613 
Q 991 1019 1311 708 
Q 1631 397 2203 397 
Q 2534 397 2845 478 
Q 3156 559 3463 722 
L 3463 178 
Q 3153 47 2828 -22 
Q 2503 -91 2169 -91 
Q 1331 -91 842 396 
Q 353 884 353 1716 
Q 353 2575 817 3079 
Q 1281 3584 2069 3584 
Q 2775 3584 3186 3129 
Q 3597 2675 3597 1894 
z
M 3022 2063 
Q 3016 2534 2758 2815 
Q 2500 3097 2075 3097 
Q 1594 3097 1305 2825 
Q 1016 2553 972 2059 
L 3022 2063 
z
" transform="scale(0.015625)"/>
       <path id="DejaVuSans-72" d="M 2631 2963 
Q 2534 3019 2420 3045 
Q 2306 3072 2169 3072 
Q 1681 3072 1420 2755 
Q 1159 2438 1159 1844 
L 1159 0 
L 581 0 
L 581 3500 
L 1159 3500 
L 1159 2956 
Q 1341 3275 1631 3429 
Q 1922 3584 2338 3584 
Q 2397 3584 2469 3576 
Q 2541 3569 2628 3553 
L 2631 2963 
z
" transform="scale(0.015625)"/>
       <path id="DejaVuSans-63" d="M 3122 3366 
L 3122 2828 
Q 2878 2963 2633 3030 
Q 2388 3097 2138 3097 
Q 1578 3097 1268 2742 
Q 959 2388 959 1747 
Q 959 1106 1268 751 
Q 1578 397 2138 397 
Q 2388 397 2633 464 
Q 2878 531 3122 666 
L 3122 134 
Q 2881 22 2623 -34 
Q 2366 -91 2075 -91 
Q 1284 -91 818 406 
Q 353 903 353 1747 
Q 353 2603 823 3093 
Q 1294 3584 2113 3584 
Q 2378 3584 2631 3529 
Q 2884 3475 3122 3366 
z
" transform="scale(0.015625)"/>
       <path id="DejaVuSans-6e" d="M 3513 2113 
L 3513 0 
L 2938 0 
L 2938 2094 
Q 2938 2591 2744 2837 
Q 2550 3084 2163 3084 
Q 1697 3084 1428 2787 
Q 1159 2491 1159 1978 
L 1159 0 
L 581 0 
L 581 3500 
L 1159 3500 
L 1159 2956 
Q 1366 3272 1645 3428 
Q 1925 3584 2291 3584 
Q 2894 3584 3203 3211 
Q 3513 2838 3513 2113 
z
" transform="scale(0.015625)"/>
       <path id="DejaVuSans-47" d="M 3809 666 
L 3809 1919 
L 2778 1919 
L 2778 2438 
L 4434 2438 
L 4434 434 
Q 4069 175 3628 42 
Q 3188 -91 2688 -91 
Q 1594 -91 976 548 
Q 359 1188 359 2328 
Q 359 3472 976 4111 
Q 1594 4750 2688 4750 
Q 3144 4750 3555 4637 
Q 3966 4525 4313 4306 
L 4313 3634 
Q 3963 3931 3569 4081 
Q 3175 4231 2741 4231 
Q 1884 4231 1454 3753 
Q 1025 3275 1025 2328 
Q 1025 1384 1454 906 
Q 1884 428 2741 428 
Q 3075 428 3337 486 
Q 3600 544 3809 666 
z
" transform="scale(0.015625)"/>
       <path id="DejaVuSans-70" d="M 1159 525 
L 1159 -1331 
L 581 -1331 
L 581 3500 
L 1159 3500 
L 1159 2969 
Q 1341 3281 1617 3432 
Q 1894 3584 2278 3584 
Q 2916 3584 3314 3078 
Q 3713 2572 3713 1747 
Q 3713 922 3314 415 
Q 2916 -91 2278 -91 
Q 1894 -91 1617 61 
Q 1341 213 1159 525 
z
M 3116 1747 
Q 3116 2381 2855 2742 
Q 2594 3103 2138 3103 
Q 1681 3103 1420 2742 
Q 1159 2381 1159 1747 
Q 1159 1113 1420 752 
Q 1681 391 2138 391 
Q 2594 391 2855 752 
Q 3116 1113 3116 1747 
z
" transform="scale(0.015625)"/>
      </defs>
      <use xlink:href="#DejaVuSans-50"/>
      <use xlink:href="#DejaVuSans-65" x="56.677734"/>
      <use xlink:href="#DejaVuSans-72" x="118.201172"/>
      <use xlink:href="#DejaVuSans-63" x="157.064453"/>
      <use xlink:href="#DejaVuSans-65" x="212.044922"/>
      <use xlink:href="#DejaVuSans-6e" x="273.568359"/>
      <use xlink:href="#DejaVuSans-74" x="336.947266"/>
      <use xlink:href="#DejaVuSans-47" x="376.15625"/>
      <use xlink:href="#DejaVuSans-70" x="453.646484"/>
      <use xlink:href="#DejaVuSans-41" x="517.123047"/>
     </g>
    </g>
   </g>
   <g id="patch_3">
    <path d="M 89.63776 262.882806 
L 247.29624 262.882806 
L 247.29624 237.917646 
L 89.63776 237.917646 
L 89.63776 262.882806 
z
" clip-path="url(#p9bc78ba5c0)" style="fill: #ecf2ec; stroke: #262626; stroke-width: 1.5; stroke-linejoin: miter"/>
   </g>
   <g id="patch_4">
    <path d="M 250.51376 152.477083 
L 408.17224 152.477083 
L 408.17224 93.99263 
L 250.51376 93.99263 
L 250.51376 152.477083 
z
" clip-path="url(#p9bc78ba5c0)" style="fill: #107010; stroke: #262626; stroke-width: 1.5; stroke-linejoin: miter"/>
   </g>
   <g id="patch_5">
    <path d="M 248.905 303.64 
L 248.905 303.64 
L 248.905 303.64 
L 248.905 303.64 
z
" clip-path="url(#p9bc78ba5c0)" style="fill: #ecf2ec; stroke: #262626; stroke-width: 0.75; stroke-linejoin: miter"/>
   </g>
   <g id="patch_6">
    <path d="M 248.905 303.64 
L 248.905 303.64 
L 248.905 303.64 
L 248.905 303.64 
z
" clip-path="url(#p9bc78ba5c0)" style="fill: #107010; stroke: #262626; stroke-width: 0.75; stroke-linejoin: miter"/>
   </g>
   <g id="PathCollection_1"/>
   <g id="PathCollection_2"/>
   <g id="line2d_10">
    <path d="M 168.467 262.882806 
L 168.467 278.018574 
" clip-path="url(#p9bc78ba5c0)" style="fill: none; stroke: #262626; stroke-width: 1.5; stroke-linecap: round"/>
   </g>
   <g id="line2d_11">
    <path d="M 168.467 237.917646 
L 168.467 208.87747 
" clip-path="url(#p9bc78ba5c0)" style="fill: none; stroke: #262626; stroke-width: 1.5; stroke-linecap: round"/>
   </g>
   <g id="line2d_12">
    <path d="M 129.05238 278.018574 
L 207.88162 278.018574 
" clip-path="url(#p9bc78ba5c0)" style="fill: none; stroke: #262626; stroke-width: 1.5; stroke-linecap: round"/>
   </g>
   <g id="line2d_13">
    <path d="M 129.05238 208.87747 
L 207.88162 208.87747 
" clip-path="url(#p9bc78ba5c0)" style="fill: none; stroke: #262626; stroke-width: 1.5; stroke-linecap: round"/>
   </g>
   <g id="line2d_14">
    <defs>
     <path id="mdce07529d9" d="M -0 1.414214 
L 0.848528 0 
L 0 -1.414214 
L -0.848528 -0 
z
" style="stroke: #262626; stroke-linejoin: miter"/>
    </defs>
    <g clip-path="url(#p9bc78ba5c0)">
     <use xlink:href="#mdce07529d9" x="168.467" y="179.453375" style="fill: #262626; stroke: #262626; stroke-linejoin: miter"/>
     <use xlink:href="#mdce07529d9" x="168.467" y="197.037828" style="fill: #262626; stroke: #262626; stroke-linejoin: miter"/>
     <use xlink:href="#mdce07529d9" x="168.467" y="146.370676" style="fill: #262626; stroke: #262626; stroke-linejoin: miter"/>
     <use xlink:href="#mdce07529d9" x="168.467" y="197.478361" style="fill: #262626; stroke: #262626; stroke-linejoin: miter"/>
    </g>
   </g>
   <g id="line2d_15">
    <path d="M 329.343 152.477083 
L 329.343 215.837778 
" clip-path="url(#p9bc78ba5c0)" style="fill: none; stroke: #262626; stroke-width: 1.5; stroke-linecap: round"/>
   </g>
   <g id="line2d_16">
    <path d="M 329.343 93.99263 
L 329.343 33.454655 
" clip-path="url(#p9bc78ba5c0)" style="fill: none; stroke: #262626; stroke-width: 1.5; stroke-linecap: round"/>
   </g>
   <g id="line2d_17">
    <path d="M 289.92838 215.837778 
L 368.75762 215.837778 
" clip-path="url(#p9bc78ba5c0)" style="fill: none; stroke: #262626; stroke-width: 1.5; stroke-linecap: round"/>
   </g>
   <g id="line2d_18">
    <path d="M 289.92838 33.454655 
L 368.75762 33.454655 
" clip-path="url(#p9bc78ba5c0)" style="fill: none; stroke: #262626; stroke-width: 1.5; stroke-linecap: round"/>
   </g>
   <g id="line2d_19"/>
   <g id="line2d_20">
    <path d="M 89.63776 255.568468 
L 247.29624 255.568468 
" clip-path="url(#p9bc78ba5c0)" style="fill: none; stroke: #262626; stroke-width: 1.5; stroke-linecap: round"/>
   </g>
   <g id="line2d_21">
    <path d="M 250.51376 117.997448 
L 408.17224 117.997448 
" clip-path="url(#p9bc78ba5c0)" style="fill: none; stroke: #262626; stroke-width: 1.5; stroke-linecap: round"/>
   </g>
   <g id="patch_7">
    <path d="M 47.81 303.64 
L 47.81 27.353629 
" style="fill: none; stroke: #cccccc; stroke-width: 0.8; stroke-linejoin: miter; stroke-linecap: square"/>
   </g>
   <g id="patch_8">
    <path d="M 450 303.64 
L 450 27.353629 
" style="fill: none; stroke: #cccccc; stroke-width: 0.8; stroke-linejoin: miter; stroke-linecap: square"/>
   </g>
   <g id="patch_9">
    <path d="M 47.81 303.64 
L 450 303.64 
" style="fill: none; stroke: #cccccc; stroke-width: 0.8; stroke-linejoin: miter; stroke-linecap: square"/>
   </g>
   <g id="patch_10">
    <path d="M 47.81 27.353629 
L 450 27.353629 
" style="fill: none; stroke: #cccccc; stroke-width: 0.8; stroke-linejoin: miter; stroke-linecap: square"/>
   </g>
   <g id="PathCollection_3">
    <defs>
     <path id="C0_0_dd1bfb6061" d="M 0 1 
C 0.265203 1 0.51958 0.894634 0.707107 0.707107 
C 0.894634 0.51958 1 0.265203 1 -0 
C 1 -0.265203 0.894634 -0.51958 0.707107 -0.707107 
C 0.51958 -0.894634 0.265203 -1 0 -1 
C -0.265203 -1 -0.51958 -0.894634 -0.707107 -0.707107 
C -0.894634 -0.51958 -1 -0.265203 -1 0 
C -1 0.265203 -0.894634 0.51958 -0.707107 0.707107 
C -0.51958 0.894634 -0.265203 1 0 1 
z
"/>
    </defs>
    <g clip-path="url(#p9bc78ba5c0)">
     <use xlink:href="#C0_0_dd1bfb6061" x="157.108028" y="256.688068" style="fill: #262626"/>
    </g>
    <g clip-path="url(#p9bc78ba5c0)">
     <use xlink:href="#C0_0_dd1bfb6061" x="176.950248" y="235.900919" style="fill: #262626"/>
    </g>
    <g clip-path="url(#p9bc78ba5c0)">
     <use xlink:href="#C0_0_dd1bfb6061" x="171.716375" y="245.615059" style="fill: #262626"/>
    </g>
    <g clip-path="url(#p9bc78ba5c0)">
     <use xlink:href="#C0_0_dd1bfb6061" x="173.922943" y="243.053492" style="fill: #262626"/>
    </g>
    <g clip-path="url(#p9bc78ba5c0)">
     <use xlink:href="#C0_0_dd1bfb6061" x="170.135434" y="248.012658" style="fill: #262626"/>
    </g>
    <g clip-path="url(#p9bc78ba5c0)">
     <use xlink:href="#C0_0_dd1bfb6061" x="179.197307" y="262.557047" style="fill: #262626"/>
    </g>
    <g clip-path="url(#p9bc78ba5c0)">
     <use xlink:href="#C0_0_dd1bfb6061" x="185.863056" y="263.033908" style="fill: #262626"/>
    </g>
    <g clip-path="url(#p9bc78ba5c0)">
     <use xlink:href="#C0_0_dd1bfb6061" x="169.140656" y="265.031929" style="fill: #262626"/>
    </g>
    <g clip-path="url(#p9bc78ba5c0)">
     <use xlink:href="#C0_0_dd1bfb6061" x="151.522585" y="256.52522" style="fill: #262626"/>
    </g>
    <g clip-path="url(#p9bc78ba5c0)">
     <use xlink:href="#C0_0_dd1bfb6061" x="174.829704" y="208.87747" style="fill: #262626"/>
    </g>
    <g clip-path="url(#p9bc78ba5c0)">
     <use xlink:href="#C0_0_dd1bfb6061" x="183.2033" y="262.108043" style="fill: #262626"/>
    </g>
    <g clip-path="url(#p9bc78ba5c0)">
     <use xlink:href="#C0_0_dd1bfb6061" x="187.22601" y="258.44103" style="fill: #262626"/>
    </g>
    <g clip-path="url(#p9bc78ba5c0)">
     <use xlink:href="#C0_0_dd1bfb6061" x="157.38379" y="236.975643" style="fill: #262626"/>
    </g>
    <g clip-path="url(#p9bc78ba5c0)">
     <use xlink:href="#C0_0_dd1bfb6061" x="149.874733" y="179.453375" style="fill: #262626"/>
    </g>
    <g clip-path="url(#p9bc78ba5c0)">
     <use xlink:href="#C0_0_dd1bfb6061" x="181.820484" y="258.632668" style="fill: #262626"/>
    </g>
    <g clip-path="url(#p9bc78ba5c0)">
     <use xlink:href="#C0_0_dd1bfb6061" x="154.495209" y="259.790351" style="fill: #262626"/>
    </g>
    <g clip-path="url(#p9bc78ba5c0)">
     <use xlink:href="#C0_0_dd1bfb6061" x="166.056673" y="223.405541" style="fill: #262626"/>
    </g>
    <g clip-path="url(#p9bc78ba5c0)">
     <use xlink:href="#C0_0_dd1bfb6061" x="181.926015" y="253.287205" style="fill: #262626"/>
    </g>
    <g clip-path="url(#p9bc78ba5c0)">
     <use xlink:href="#C0_0_dd1bfb6061" x="175.962562" y="261.863519" style="fill: #262626"/>
    </g>
    <g clip-path="url(#p9bc78ba5c0)">
     <use xlink:href="#C0_0_dd1bfb6061" x="151.957705" y="248.444554" style="fill: #262626"/>
    </g>
    <g clip-path="url(#p9bc78ba5c0)">
     <use xlink:href="#C0_0_dd1bfb6061" x="152.976542" y="234.701069" style="fill: #262626"/>
    </g>
    <g clip-path="url(#p9bc78ba5c0)">
     <use xlink:href="#C0_0_dd1bfb6061" x="174.809344" y="214.225173" style="fill: #262626"/>
    </g>
    <g clip-path="url(#p9bc78ba5c0)">
     <use xlink:href="#C0_0_dd1bfb6061" x="162.198974" y="255.568468" style="fill: #262626"/>
    </g>
    <g clip-path="url(#p9bc78ba5c0)">
     <use xlink:href="#C0_0_dd1bfb6061" x="152.427719" y="245.210304" style="fill: #262626"/>
    </g>
    <g clip-path="url(#p9bc78ba5c0)">
     <use xlink:href="#C0_0_dd1bfb6061" x="183.983778" y="222.660182" style="fill: #262626"/>
    </g>
    <g clip-path="url(#p9bc78ba5c0)">
     <use xlink:href="#C0_0_dd1bfb6061" x="161.134247" y="249.806347" style="fill: #262626"/>
    </g>
    <g clip-path="url(#p9bc78ba5c0)">
     <use xlink:href="#C0_0_dd1bfb6061" x="159.717427" y="257.97064" style="fill: #262626"/>
    </g>
    <g clip-path="url(#p9bc78ba5c0)">
     <use xlink:href="#C0_0_dd1bfb6061" x="181.197872" y="266.982863" style="fill: #262626"/>
    </g>
    <g clip-path="url(#p9bc78ba5c0)">
     <use xlink:href="#C0_0_dd1bfb6061" x="158.683995" y="244.156361" style="fill: #262626"/>
    </g>
    <g clip-path="url(#p9bc78ba5c0)">
     <use xlink:href="#C0_0_dd1bfb6061" x="173.506284" y="255.237949" style="fill: #262626"/>
    </g>
    <g clip-path="url(#p9bc78ba5c0)">
     <use xlink:href="#C0_0_dd1bfb6061" x="156.899914" y="270.988849" style="fill: #262626"/>
    </g>
    <g clip-path="url(#p9bc78ba5c0)">
     <use xlink:href="#C0_0_dd1bfb6061" x="170.496931" y="252.79315" style="fill: #262626"/>
    </g>
    <g clip-path="url(#p9bc78ba5c0)">
     <use xlink:href="#C0_0_dd1bfb6061" x="159.211239" y="246.112562" style="fill: #262626"/>
    </g>
    <g clip-path="url(#p9bc78ba5c0)">
     <use xlink:href="#C0_0_dd1bfb6061" x="172.684017" y="235.869444" style="fill: #262626"/>
    </g>
    <g clip-path="url(#p9bc78ba5c0)">
     <use xlink:href="#C0_0_dd1bfb6061" x="180.433575" y="223.520558" style="fill: #262626"/>
    </g>
    <g clip-path="url(#p9bc78ba5c0)">
     <use xlink:href="#C0_0_dd1bfb6061" x="186.366385" y="275.910095" style="fill: #262626"/>
    </g>
    <g clip-path="url(#p9bc78ba5c0)">
     <use xlink:href="#C0_0_dd1bfb6061" x="182.548149" y="278.018574" style="fill: #262626"/>
    </g>
    <g clip-path="url(#p9bc78ba5c0)">
     <use xlink:href="#C0_0_dd1bfb6061" x="177.504365" y="268.857072" style="fill: #262626"/>
    </g>
    <g clip-path="url(#p9bc78ba5c0)">
     <use xlink:href="#C0_0_dd1bfb6061" x="163.121728" y="270.931157" style="fill: #262626"/>
    </g>
    <g clip-path="url(#p9bc78ba5c0)">
     <use xlink:href="#C0_0_dd1bfb6061" x="186.676382" y="268.605934" style="fill: #262626"/>
    </g>
    <g clip-path="url(#p9bc78ba5c0)">
     <use xlink:href="#C0_0_dd1bfb6061" x="176.380436" y="261.287743" style="fill: #262626"/>
    </g>
    <g clip-path="url(#p9bc78ba5c0)">
     <use xlink:href="#C0_0_dd1bfb6061" x="163.276769" y="244.950659" style="fill: #262626"/>
    </g>
    <g clip-path="url(#p9bc78ba5c0)">
     <use xlink:href="#C0_0_dd1bfb6061" x="169.296599" y="238.522462" style="fill: #262626"/>
    </g>
    <g clip-path="url(#p9bc78ba5c0)">
     <use xlink:href="#C0_0_dd1bfb6061" x="159.499336" y="262.882806" style="fill: #262626"/>
    </g>
    <g clip-path="url(#p9bc78ba5c0)">
     <use xlink:href="#C0_0_dd1bfb6061" x="151.927957" y="255.584998" style="fill: #262626"/>
    </g>
    <g clip-path="url(#p9bc78ba5c0)">
     <use xlink:href="#C0_0_dd1bfb6061" x="174.463605" y="259.646119" style="fill: #262626"/>
    </g>
    <g clip-path="url(#p9bc78ba5c0)">
     <use xlink:href="#C0_0_dd1bfb6061" x="155.461981" y="234.503551" style="fill: #262626"/>
    </g>
    <g clip-path="url(#p9bc78ba5c0)">
     <use xlink:href="#C0_0_dd1bfb6061" x="150.896137" y="197.037828" style="fill: #262626"/>
    </g>
    <g clip-path="url(#p9bc78ba5c0)">
     <use xlink:href="#C0_0_dd1bfb6061" x="174.873971" y="274.8907" style="fill: #262626"/>
    </g>
    <g clip-path="url(#p9bc78ba5c0)">
     <use xlink:href="#C0_0_dd1bfb6061" x="177.947885" y="237.431033" style="fill: #262626"/>
    </g>
    <g clip-path="url(#p9bc78ba5c0)">
     <use xlink:href="#C0_0_dd1bfb6061" x="166.174594" y="256.19277" style="fill: #262626"/>
    </g>
    <g clip-path="url(#p9bc78ba5c0)">
     <use xlink:href="#C0_0_dd1bfb6061" x="149.054288" y="241.860505" style="fill: #262626"/>
    </g>
    <g clip-path="url(#p9bc78ba5c0)">
     <use xlink:href="#C0_0_dd1bfb6061" x="162.420224" y="259.86984" style="fill: #262626"/>
    </g>
    <g clip-path="url(#p9bc78ba5c0)">
     <use xlink:href="#C0_0_dd1bfb6061" x="161.49511" y="215.719323" style="fill: #262626"/>
    </g>
    <g clip-path="url(#p9bc78ba5c0)">
     <use xlink:href="#C0_0_dd1bfb6061" x="162.870833" y="267.022191" style="fill: #262626"/>
    </g>
    <g clip-path="url(#p9bc78ba5c0)">
     <use xlink:href="#C0_0_dd1bfb6061" x="175.333128" y="251.636443" style="fill: #262626"/>
    </g>
    <g clip-path="url(#p9bc78ba5c0)">
     <use xlink:href="#C0_0_dd1bfb6061" x="148.660341" y="237.917646" style="fill: #262626"/>
    </g>
    <g clip-path="url(#p9bc78ba5c0)">
     <use xlink:href="#C0_0_dd1bfb6061" x="187.260375" y="260.586435" style="fill: #262626"/>
    </g>
    <g clip-path="url(#p9bc78ba5c0)">
     <use xlink:href="#C0_0_dd1bfb6061" x="165.106779" y="267.483802" style="fill: #262626"/>
    </g>
    <g clip-path="url(#p9bc78ba5c0)">
     <use xlink:href="#C0_0_dd1bfb6061" x="153.882482" y="237.892561" style="fill: #262626"/>
    </g>
    <g clip-path="url(#p9bc78ba5c0)">
     <use xlink:href="#C0_0_dd1bfb6061" x="149.118295" y="273.726744" style="fill: #262626"/>
    </g>
    <g clip-path="url(#p9bc78ba5c0)">
     <use xlink:href="#C0_0_dd1bfb6061" x="164.003266" y="146.370676" style="fill: #262626"/>
    </g>
    <g clip-path="url(#p9bc78ba5c0)">
     <use xlink:href="#C0_0_dd1bfb6061" x="151.755257" y="264.937616" style="fill: #262626"/>
    </g>
    <g clip-path="url(#p9bc78ba5c0)">
     <use xlink:href="#C0_0_dd1bfb6061" x="159.482611" y="265.631956" style="fill: #262626"/>
    </g>
    <g clip-path="url(#p9bc78ba5c0)">
     <use xlink:href="#C0_0_dd1bfb6061" x="165.90838" y="273.707853" style="fill: #262626"/>
    </g>
    <g clip-path="url(#p9bc78ba5c0)">
     <use xlink:href="#C0_0_dd1bfb6061" x="179.890941" y="197.478361" style="fill: #262626"/>
    </g>
    <g clip-path="url(#p9bc78ba5c0)">
     <use xlink:href="#C0_0_dd1bfb6061" x="181.276473" y="214.756332" style="fill: #262626"/>
    </g>
    <g clip-path="url(#p9bc78ba5c0)">
     <use xlink:href="#C0_0_dd1bfb6061" x="174.394487" y="265.74667" style="fill: #262626"/>
    </g>
    <g clip-path="url(#p9bc78ba5c0)">
     <use xlink:href="#C0_0_dd1bfb6061" x="166.290735" y="241.921653" style="fill: #262626"/>
    </g>
    <g clip-path="url(#p9bc78ba5c0)">
     <use xlink:href="#C0_0_dd1bfb6061" x="163.364999" y="267.664221" style="fill: #262626"/>
    </g>
    <g clip-path="url(#p9bc78ba5c0)">
     <use xlink:href="#C0_0_dd1bfb6061" x="186.035482" y="253.352401" style="fill: #262626"/>
    </g>
    <g clip-path="url(#p9bc78ba5c0)">
     <use xlink:href="#C0_0_dd1bfb6061" x="155.060175" y="265.371417" style="fill: #262626"/>
    </g>
    <g clip-path="url(#p9bc78ba5c0)">
     <use xlink:href="#C0_0_dd1bfb6061" x="169.513338" y="261.314854" style="fill: #262626"/>
    </g>
    <g clip-path="url(#p9bc78ba5c0)">
     <use xlink:href="#C0_0_dd1bfb6061" x="178.419245" y="224.461682" style="fill: #262626"/>
    </g>
    <g clip-path="url(#p9bc78ba5c0)">
     <use xlink:href="#C0_0_dd1bfb6061" x="181.115053" y="251.552343" style="fill: #262626"/>
    </g>
    <g clip-path="url(#p9bc78ba5c0)">
     <use xlink:href="#C0_0_dd1bfb6061" x="172.233061" y="261.67259" style="fill: #262626"/>
    </g>
    <g clip-path="url(#p9bc78ba5c0)">
     <use xlink:href="#C0_0_dd1bfb6061" x="170.680697" y="255.82603" style="fill: #262626"/>
    </g>
   </g>
   <g id="PathCollection_4">
    <defs>
     <path id="C1_0_2f6b373bc2" d="M 0 1 
C 0.265203 1 0.51958 0.894634 0.707107 0.707107 
C 0.894634 0.51958 1 0.265203 1 -0 
C 1 -0.265203 0.894634 -0.51958 0.707107 -0.707107 
C 0.51958 -0.894634 0.265203 -1 0 -1 
C -0.265203 -1 -0.51958 -0.894634 -0.707107 -0.707107 
C -0.894634 -0.51958 -1 -0.265203 -1 0 
C -1 0.265203 -0.894634 0.51958 -0.707107 0.707107 
C -0.51958 0.894634 -0.265203 1 0 1 
z
"/>
    </defs>
    <g clip-path="url(#p9bc78ba5c0)">
     <use xlink:href="#C1_0_2f6b373bc2" x="313.616452" y="93.215506"/>
    </g>
    <g clip-path="url(#p9bc78ba5c0)">
     <use xlink:href="#C1_0_2f6b373bc2" x="328.02379" y="115.06508"/>
    </g>
    <g clip-path="url(#p9bc78ba5c0)">
     <use xlink:href="#C1_0_2f6b373bc2" x="311.307696" y="124.035912"/>
    </g>
    <g clip-path="url(#p9bc78ba5c0)">
     <use xlink:href="#C1_0_2f6b373bc2" x="343.331491" y="99.038559"/>
    </g>
    <g clip-path="url(#p9bc78ba5c0)">
     <use xlink:href="#C1_0_2f6b373bc2" x="325.396797" y="91.419321"/>
    </g>
    <g clip-path="url(#p9bc78ba5c0)">
     <use xlink:href="#C1_0_2f6b373bc2" x="318.873622" y="92.478578"/>
    </g>
    <g clip-path="url(#p9bc78ba5c0)">
     <use xlink:href="#C1_0_2f6b373bc2" x="337.202348" y="100.49512"/>
    </g>
    <g clip-path="url(#p9bc78ba5c0)">
     <use xlink:href="#C1_0_2f6b373bc2" x="339.84248" y="130.901608"/>
    </g>
    <g clip-path="url(#p9bc78ba5c0)">
     <use xlink:href="#C1_0_2f6b373bc2" x="340.634818" y="94.179413"/>
    </g>
    <g clip-path="url(#p9bc78ba5c0)">
     <use xlink:href="#C1_0_2f6b373bc2" x="344.02682" y="108.62807"/>
    </g>
    <g clip-path="url(#p9bc78ba5c0)">
     <use xlink:href="#C1_0_2f6b373bc2" x="325.629795" y="104.072437"/>
    </g>
    <g clip-path="url(#p9bc78ba5c0)">
     <use xlink:href="#C1_0_2f6b373bc2" x="326.181656" y="79.688025"/>
    </g>
    <g clip-path="url(#p9bc78ba5c0)">
     <use xlink:href="#C1_0_2f6b373bc2" x="327.947952" y="113.467369"/>
    </g>
    <g clip-path="url(#p9bc78ba5c0)">
     <use xlink:href="#C1_0_2f6b373bc2" x="347.212499" y="88.139043"/>
    </g>
    <g clip-path="url(#p9bc78ba5c0)">
     <use xlink:href="#C1_0_2f6b373bc2" x="316.304497" y="33.454655"/>
    </g>
    <g clip-path="url(#p9bc78ba5c0)">
     <use xlink:href="#C1_0_2f6b373bc2" x="311.489744" y="124.669501"/>
    </g>
    <g clip-path="url(#p9bc78ba5c0)">
     <use xlink:href="#C1_0_2f6b373bc2" x="312.403759" y="123.577155"/>
    </g>
    <g clip-path="url(#p9bc78ba5c0)">
     <use xlink:href="#C1_0_2f6b373bc2" x="318.677545" y="70.918217"/>
    </g>
    <g clip-path="url(#p9bc78ba5c0)">
     <use xlink:href="#C1_0_2f6b373bc2" x="318.482346" y="67.239943"/>
    </g>
    <g clip-path="url(#p9bc78ba5c0)">
     <use xlink:href="#C1_0_2f6b373bc2" x="340.011124" y="102.086624"/>
    </g>
    <g clip-path="url(#p9bc78ba5c0)">
     <use xlink:href="#C1_0_2f6b373bc2" x="338.982947" y="70.713802"/>
    </g>
    <g clip-path="url(#p9bc78ba5c0)">
     <use xlink:href="#C1_0_2f6b373bc2" x="325.956177" y="178.384731"/>
    </g>
    <g clip-path="url(#p9bc78ba5c0)">
     <use xlink:href="#C1_0_2f6b373bc2" x="337.850456" y="120.929815"/>
    </g>
    <g clip-path="url(#p9bc78ba5c0)">
     <use xlink:href="#C1_0_2f6b373bc2" x="324.372121" y="154.404282"/>
    </g>
    <g clip-path="url(#p9bc78ba5c0)">
     <use xlink:href="#C1_0_2f6b373bc2" x="324.089117" y="145.317039"/>
    </g>
    <g clip-path="url(#p9bc78ba5c0)">
     <use xlink:href="#C1_0_2f6b373bc2" x="317.477556" y="126.771096"/>
    </g>
    <g clip-path="url(#p9bc78ba5c0)">
     <use xlink:href="#C1_0_2f6b373bc2" x="336.487999" y="124.464575"/>
    </g>
    <g clip-path="url(#p9bc78ba5c0)">
     <use xlink:href="#C1_0_2f6b373bc2" x="341.253059" y="100.195141"/>
    </g>
    <g clip-path="url(#p9bc78ba5c0)">
     <use xlink:href="#C1_0_2f6b373bc2" x="334.287155" y="113.559117"/>
    </g>
    <g clip-path="url(#p9bc78ba5c0)">
     <use xlink:href="#C1_0_2f6b373bc2" x="335.63521" y="203.927556"/>
    </g>
    <g clip-path="url(#p9bc78ba5c0)">
     <use xlink:href="#C1_0_2f6b373bc2" x="316.700304" y="197.090069"/>
    </g>
    <g clip-path="url(#p9bc78ba5c0)">
     <use xlink:href="#C1_0_2f6b373bc2" x="334.191459" y="215.837778"/>
    </g>
    <g clip-path="url(#p9bc78ba5c0)">
     <use xlink:href="#C1_0_2f6b373bc2" x="324.847332" y="192.4191"/>
    </g>
    <g clip-path="url(#p9bc78ba5c0)">
     <use xlink:href="#C1_0_2f6b373bc2" x="337.370262" y="182.294208"/>
    </g>
    <g clip-path="url(#p9bc78ba5c0)">
     <use xlink:href="#C1_0_2f6b373bc2" x="314.427388" y="172.38265"/>
    </g>
    <g clip-path="url(#p9bc78ba5c0)">
     <use xlink:href="#C1_0_2f6b373bc2" x="340.057143" y="109.747109"/>
    </g>
    <g clip-path="url(#p9bc78ba5c0)">
     <use xlink:href="#C1_0_2f6b373bc2" x="346.192643" y="97.993515"/>
    </g>
    <g clip-path="url(#p9bc78ba5c0)">
     <use xlink:href="#C1_0_2f6b373bc2" x="334.536047" y="156.866335"/>
    </g>
    <g clip-path="url(#p9bc78ba5c0)">
     <use xlink:href="#C1_0_2f6b373bc2" x="324.227211" y="151.834683"/>
    </g>
    <g clip-path="url(#p9bc78ba5c0)">
     <use xlink:href="#C1_0_2f6b373bc2" x="324.060075" y="140.017089"/>
    </g>
    <g clip-path="url(#p9bc78ba5c0)">
     <use xlink:href="#C1_0_2f6b373bc2" x="311.858" y="111.869007"/>
    </g>
    <g clip-path="url(#p9bc78ba5c0)">
     <use xlink:href="#C1_0_2f6b373bc2" x="324.386622" y="162.048003"/>
    </g>
    <g clip-path="url(#p9bc78ba5c0)">
     <use xlink:href="#C1_0_2f6b373bc2" x="316.301199" y="133.143555"/>
    </g>
    <g clip-path="url(#p9bc78ba5c0)">
     <use xlink:href="#C1_0_2f6b373bc2" x="347.261921" y="131.332089"/>
    </g>
    <g clip-path="url(#p9bc78ba5c0)">
     <use xlink:href="#C1_0_2f6b373bc2" x="331.424386" y="93.432282"/>
    </g>
    <g clip-path="url(#p9bc78ba5c0)">
     <use xlink:href="#C1_0_2f6b373bc2" x="325.200933" y="123.302355"/>
    </g>
    <g clip-path="url(#p9bc78ba5c0)">
     <use xlink:href="#C1_0_2f6b373bc2" x="340.559061" y="92.117088"/>
    </g>
    <g clip-path="url(#p9bc78ba5c0)">
     <use xlink:href="#C1_0_2f6b373bc2" x="316.099489" y="91.760108"/>
    </g>
    <g clip-path="url(#p9bc78ba5c0)">
     <use xlink:href="#C1_0_2f6b373bc2" x="320.947704" y="86.494769"/>
    </g>
    <g clip-path="url(#p9bc78ba5c0)">
     <use xlink:href="#C1_0_2f6b373bc2" x="321.610444" y="167.817521"/>
    </g>
    <g clip-path="url(#p9bc78ba5c0)">
     <use xlink:href="#C1_0_2f6b373bc2" x="313.485776" y="156.780749"/>
    </g>
    <g clip-path="url(#p9bc78ba5c0)">
     <use xlink:href="#C1_0_2f6b373bc2" x="322.492562" y="195.316276"/>
    </g>
   </g>
   <g id="text_13">
    <!-- 77 -->
    <g style="fill: #262626" transform="translate(188.5765 18.71968)scale(0.1 -0.1)">
     <defs>
      <path id="DejaVuSans-37" d="M 525 4666 
L 3525 4666 
L 3525 4397 
L 1831 0 
L 1172 0 
L 2766 4134 
L 525 4134 
L 525 4666 
z
" transform="scale(0.015625)"/>
     </defs>
     <use xlink:href="#DejaVuSans-37"/>
     <use xlink:href="#DejaVuSans-37" x="63.623047"/>
    </g>
   </g>
   <g id="text_14">
    <!-- p&lt;.005 -->
    <g style="fill: #262626" transform="translate(173.779 137.736727)scale(0.08 -0.08)">
     <defs>
      <path id="DejaVuSans-3c" d="M 4684 3150 
L 1459 2003 
L 4684 863 
L 4684 294 
L 678 1747 
L 678 2266 
L 4684 3719 
L 4684 3150 
z
" transform="scale(0.015625)"/>
      <path id="DejaVuSans-35" d="M 691 4666 
L 3169 4666 
L 3169 4134 
L 1269 4134 
L 1269 2991 
Q 1406 3038 1543 3061 
Q 1681 3084 1819 3084 
Q 2600 3084 3056 2656 
Q 3513 2228 3513 1497 
Q 3513 744 3044 326 
Q 2575 -91 1722 -91 
Q 1428 -91 1123 -41 
Q 819 9 494 109 
L 494 744 
Q 775 591 1075 516 
Q 1375 441 1709 441 
Q 2250 441 2565 725 
Q 2881 1009 2881 1497 
Q 2881 1984 2565 2268 
Q 2250 2553 1709 2553 
Q 1456 2553 1204 2497 
Q 953 2441 691 2322 
L 691 4666 
z
" transform="scale(0.015625)"/>
     </defs>
     <use xlink:href="#DejaVuSans-70"/>
     <use xlink:href="#DejaVuSans-3c" x="63.476562"/>
     <use xlink:href="#DejaVuSans-2e" x="147.265625"/>
     <use xlink:href="#DejaVuSans-30" x="179.052734"/>
     <use xlink:href="#DejaVuSans-30" x="242.675781"/>
     <use xlink:href="#DejaVuSans-35" x="306.298828"/>
    </g>
   </g>
   <g id="text_15">
    <!-- 52 -->
    <g style="fill: #262626" transform="translate(309.2335 18.71968)scale(0.1 -0.1)">
     <use xlink:href="#DejaVuSans-35"/>
     <use xlink:href="#DejaVuSans-32" x="63.623047"/>
    </g>
   </g>
   <g id="legend_1">
    <g id="patch_11">
     <path d="M 377.728125 43.952066 
L 397.728125 43.952066 
L 397.728125 36.952066 
L 377.728125 36.952066 
z
" style="fill: #ecf2ec; stroke: #262626; stroke-width: 0.75; stroke-linejoin: miter"/>
    </g>
    <g id="text_16">
     <!-- Mutant -->
     <g style="fill: #262626" transform="translate(405.728125 43.952066)scale(0.1 -0.1)">
      <defs>
       <path id="DejaVuSans-4d" d="M 628 4666 
L 1569 4666 
L 2759 1491 
L 3956 4666 
L 4897 4666 
L 4897 0 
L 4281 0 
L 4281 4097 
L 3078 897 
L 2444 897 
L 1241 4097 
L 1241 0 
L 628 0 
L 628 4666 
z
" transform="scale(0.015625)"/>
       <path id="DejaVuSans-61" d="M 2194 1759 
Q 1497 1759 1228 1600 
Q 959 1441 959 1056 
Q 959 750 1161 570 
Q 1363 391 1709 391 
Q 2188 391 2477 730 
Q 2766 1069 2766 1631 
L 2766 1759 
L 2194 1759 
z
M 3341 1997 
L 3341 0 
L 2766 0 
L 2766 531 
Q 2569 213 2275 61 
Q 1981 -91 1556 -91 
Q 1019 -91 701 211 
Q 384 513 384 1019 
Q 384 1609 779 1909 
Q 1175 2209 1959 2209 
L 2766 2209 
L 2766 2266 
Q 2766 2663 2505 2880 
Q 2244 3097 1772 3097 
Q 1472 3097 1187 3025 
Q 903 2953 641 2809 
L 641 3341 
Q 956 3463 1253 3523 
Q 1550 3584 1831 3584 
Q 2591 3584 2966 3190 
Q 3341 2797 3341 1997 
z
" transform="scale(0.015625)"/>
      </defs>
      <use xlink:href="#DejaVuSans-4d"/>
      <use xlink:href="#DejaVuSans-75" x="86.279297"/>
      <use xlink:href="#DejaVuSans-74" x="149.658203"/>
      <use xlink:href="#DejaVuSans-61" x="188.867188"/>
      <use xlink:href="#DejaVuSans-6e" x="250.146484"/>
      <use xlink:href="#DejaVuSans-74" x="313.525391"/>
     </g>
    </g>
    <g id="patch_12">
     <path d="M 377.728125 58.630191 
L 397.728125 58.630191 
L 397.728125 51.630191 
L 377.728125 51.630191 
z
" style="fill: #107010; stroke: #262626; stroke-width: 0.75; stroke-linejoin: miter"/>
    </g>
    <g id="text_17">
     <!-- WT -->
     <g style="fill: #262626" transform="translate(405.728125 58.630191)scale(0.1 -0.1)">
      <defs>
       <path id="DejaVuSans-57" d="M 213 4666 
L 850 4666 
L 1831 722 
L 2809 4666 
L 3519 4666 
L 4500 722 
L 5478 4666 
L 6119 4666 
L 4947 0 
L 4153 0 
L 3169 4050 
L 2175 0 
L 1381 0 
L 213 4666 
z
" transform="scale(0.015625)"/>
       <path id="DejaVuSans-54" d="M -19 4666 
L 3928 4666 
L 3928 4134 
L 2272 4134 
L 2272 0 
L 1638 0 
L 1638 4134 
L -19 4134 
L -19 4666 
z
" transform="scale(0.015625)"/>
      </defs>
      <use xlink:href="#DejaVuSans-57"/>
      <use xlink:href="#DejaVuSans-54" x="98.876953"/>
     </g>
    </g>
   </g>
  </g>
 </g>
 <defs>
  <clipPath id="p9bc78ba5c0">
   <rect x="47.81" y="27.353629" width="402.19" height="276.286371"/>
  </clipPath>
 </defs>
</svg>
