<?xml version="1.0" encoding="utf-8" standalone="no"?>
<!DOCTYPE svg PUBLIC "-//W3C//DTD SVG 1.1//EN"
  "http://www.w3.org/Graphics/SVG/1.1/DTD/svg11.dtd">
<svg xmlns:xlink="http://www.w3.org/1999/xlink" width="460.8pt" height="345.6pt" viewBox="0 0 460.8 345.6" xmlns="http://www.w3.org/2000/svg" version="1.1">
 <metadata>
  <rdf:RDF xmlns:dc="http://purl.org/dc/elements/1.1/" xmlns:cc="http://creativecommons.org/ns#" xmlns:rdf="http://www.w3.org/1999/02/22-rdf-syntax-ns#">
   <cc:Work>
    <dc:type rdf:resource="http://purl.org/dc/dcmitype/StillImage"/>
    <dc:date>2024-02-03T13:05:55.541688</dc:date>
    <dc:format>image/svg+xml</dc:format>
    <dc:creator>
     <cc:Agent>
      <dc:title>Matplotlib v3.5.3, https://matplotlib.org/</dc:title>
     </cc:Agent>
    </dc:creator>
   </cc:Work>
  </rdf:RDF>
 </metadata>
 <defs>
  <style type="text/css">*{stroke-linejoin: round; stroke-linecap: butt}</style>
 </defs>
 <g id="figure_1">
  <g id="patch_1">
   <path d="M 0 345.6 
L 460.8 345.6 
L 460.8 0 
L 0 0 
z
" style="fill: #ffffff"/>
  </g>
  <g id="axes_1">
   <g id="patch_2">
    <path d="M 47.82125 303.64 
L 450 303.64 
L 450 46.675714 
L 47.82125 46.675714 
z
" style="fill: #ffffff"/>
   </g>
   <g id="PathCollection_1">
    <defs>
     <path id="mc46e13ae7f" d="M 0 3 
C 0.795609 3 1.55874 2.683901 2.12132 2.12132 
C 2.683901 1.55874 3 0.795609 3 0 
C 3 -0.795609 2.683901 -1.55874 2.12132 -2.12132 
C 1.55874 -2.683901 0.795609 -3 0 -3 
C -0.795609 -3 -1.55874 -2.683901 -2.12132 -2.12132 
C -2.683901 -1.55874 -3 -0.795609 -3 0 
C -3 0.795609 -2.683901 1.55874 -2.12132 2.12132 
C -1.55874 2.683901 -0.795609 3 0 3 
z
" style="stroke: #1f77b4"/>
    </defs>
    <g clip-path="url(#pb253a7d6c1)">
     <use xlink:href="#mc46e13ae7f" x="86.045273" y="199.861846" style="fill: #1f77b4; stroke: #1f77b4"/>
     <use xlink:href="#mc46e13ae7f" x="173.039697" y="226.902492" style="fill: #1f77b4; stroke: #1f77b4"/>
     <use xlink:href="#mc46e13ae7f" x="96.842976" y="209.104284" style="fill: #1f77b4; stroke: #1f77b4"/>
     <use xlink:href="#mc46e13ae7f" x="104.00266" y="211.910456" style="fill: #1f77b4; stroke: #1f77b4"/>
     <use xlink:href="#mc46e13ae7f" x="221.613846" y="197.572336" style="fill: #1f77b4; stroke: #1f77b4"/>
     <use xlink:href="#mc46e13ae7f" x="259.878981" y="218.630575" style="fill: #1f77b4; stroke: #1f77b4"/>
     <use xlink:href="#mc46e13ae7f" x="122.099672" y="181.871913" style="fill: #1f77b4; stroke: #1f77b4"/>
     <use xlink:href="#mc46e13ae7f" x="133.168869" y="228.932968" style="fill: #1f77b4; stroke: #1f77b4"/>
     <use xlink:href="#mc46e13ae7f" x="198.598915" y="165.240059" style="fill: #1f77b4; stroke: #1f77b4"/>
     <use xlink:href="#mc46e13ae7f" x="347.137142" y="229.75216" style="fill: #1f77b4; stroke: #1f77b4"/>
     <use xlink:href="#mc46e13ae7f" x="236.538257" y="196.099221" style="fill: #1f77b4; stroke: #1f77b4"/>
     <use xlink:href="#mc46e13ae7f" x="363.419023" y="166.845979" style="fill: #1f77b4; stroke: #1f77b4"/>
     <use xlink:href="#mc46e13ae7f" x="268.628844" y="205.733495" style="fill: #1f77b4; stroke: #1f77b4"/>
     <use xlink:href="#mc46e13ae7f" x="281.551957" y="204.467128" style="fill: #1f77b4; stroke: #1f77b4"/>
     <use xlink:href="#mc46e13ae7f" x="171.922693" y="209.929962" style="fill: #1f77b4; stroke: #1f77b4"/>
     <use xlink:href="#mc46e13ae7f" x="250.958465" y="203.826461" style="fill: #1f77b4; stroke: #1f77b4"/>
     <use xlink:href="#mc46e13ae7f" x="151.250367" y="190.60891" style="fill: #1f77b4; stroke: #1f77b4"/>
     <use xlink:href="#mc46e13ae7f" x="217.145831" y="195.302492" style="fill: #1f77b4; stroke: #1f77b4"/>
     <use xlink:href="#mc46e13ae7f" x="255.224799" y="235.775152" style="fill: #1f77b4; stroke: #1f77b4"/>
     <use xlink:href="#mc46e13ae7f" x="191.191008" y="238.660227" style="fill: #1f77b4; stroke: #1f77b4"/>
     <use xlink:href="#mc46e13ae7f" x="171.938207" y="180.038461" style="fill: #1f77b4; stroke: #1f77b4"/>
     <use xlink:href="#mc46e13ae7f" x="254.743867" y="207.257642" style="fill: #1f77b4; stroke: #1f77b4"/>
     <use xlink:href="#mc46e13ae7f" x="115.622602" y="209.436133" style="fill: #1f77b4; stroke: #1f77b4"/>
     <use xlink:href="#mc46e13ae7f" x="196.915652" y="232.50945" style="fill: #1f77b4; stroke: #1f77b4"/>
     <use xlink:href="#mc46e13ae7f" x="221.063101" y="140.499864" style="fill: #1f77b4; stroke: #1f77b4"/>
     <use xlink:href="#mc46e13ae7f" x="324.339406" y="204.414326" style="fill: #1f77b4; stroke: #1f77b4"/>
     <use xlink:href="#mc46e13ae7f" x="237.158815" y="226.709385" style="fill: #1f77b4; stroke: #1f77b4"/>
     <use xlink:href="#mc46e13ae7f" x="392.879997" y="237.875909" style="fill: #1f77b4; stroke: #1f77b4"/>
     <use xlink:href="#mc46e13ae7f" x="117.80231" y="245.103768" style="fill: #1f77b4; stroke: #1f77b4"/>
     <use xlink:href="#mc46e13ae7f" x="261.275236" y="185.675332" style="fill: #1f77b4; stroke: #1f77b4"/>
     <use xlink:href="#mc46e13ae7f" x="284.266896" y="239.020198" style="fill: #1f77b4; stroke: #1f77b4"/>
     <use xlink:href="#mc46e13ae7f" x="358.376992" y="239.989089" style="fill: #1f77b4; stroke: #1f77b4"/>
     <use xlink:href="#mc46e13ae7f" x="247.995302" y="216.374944" style="fill: #1f77b4; stroke: #1f77b4"/>
     <use xlink:href="#mc46e13ae7f" x="210.180072" y="238.293451" style="fill: #1f77b4; stroke: #1f77b4"/>
     <use xlink:href="#mc46e13ae7f" x="180.695827" y="181.034565" style="fill: #1f77b4; stroke: #1f77b4"/>
     <use xlink:href="#mc46e13ae7f" x="410.84514" y="227.053355" style="fill: #1f77b4; stroke: #1f77b4"/>
     <use xlink:href="#mc46e13ae7f" x="214.648086" y="251.403619" style="fill: #1f77b4; stroke: #1f77b4"/>
     <use xlink:href="#mc46e13ae7f" x="237.251898" y="223.910019" style="fill: #1f77b4; stroke: #1f77b4"/>
     <use xlink:href="#mc46e13ae7f" x="306.343234" y="208.330747" style="fill: #1f77b4; stroke: #1f77b4"/>
     <use xlink:href="#mc46e13ae7f" x="276.62628" y="251.678294" style="fill: #1f77b4; stroke: #1f77b4"/>
     <use xlink:href="#mc46e13ae7f" x="135.565773" y="130.401612" style="fill: #1f77b4; stroke: #1f77b4"/>
     <use xlink:href="#mc46e13ae7f" x="197.799947" y="184.932683" style="fill: #1f77b4; stroke: #1f77b4"/>
     <use xlink:href="#mc46e13ae7f" x="225.321678" y="241.850952" style="fill: #1f77b4; stroke: #1f77b4"/>
     <use xlink:href="#mc46e13ae7f" x="201.872356" y="223.681182" style="fill: #1f77b4; stroke: #1f77b4"/>
     <use xlink:href="#mc46e13ae7f" x="172.985398" y="227.379467" style="fill: #1f77b4; stroke: #1f77b4"/>
     <use xlink:href="#mc46e13ae7f" x="279.535144" y="233.330148" style="fill: #1f77b4; stroke: #1f77b4"/>
     <use xlink:href="#mc46e13ae7f" x="242.976543" y="250.522967" style="fill: #1f77b4; stroke: #1f77b4"/>
     <use xlink:href="#mc46e13ae7f" x="216.602843" y="223.818774" style="fill: #1f77b4; stroke: #1f77b4"/>
     <use xlink:href="#mc46e13ae7f" x="125.12489" y="233.046415" style="fill: #1f77b4; stroke: #1f77b4"/>
     <use xlink:href="#mc46e13ae7f" x="162.350592" y="221.699772" style="fill: #1f77b4; stroke: #1f77b4"/>
     <use xlink:href="#mc46e13ae7f" x="245.908677" y="181.958005" style="fill: #1f77b4; stroke: #1f77b4"/>
     <use xlink:href="#mc46e13ae7f" x="329.98648" y="193.474555" style="fill: #1f77b4; stroke: #1f77b4"/>
     <use xlink:href="#mc46e13ae7f" x="156.470808" y="191.525486" style="fill: #1f77b4; stroke: #1f77b4"/>
     <use xlink:href="#mc46e13ae7f" x="368.554137" y="192.020299" style="fill: #1f77b4; stroke: #1f77b4"/>
     <use xlink:href="#mc46e13ae7f" x="221.621603" y="182.286537" style="fill: #1f77b4; stroke: #1f77b4"/>
     <use xlink:href="#mc46e13ae7f" x="309.47705" y="217.197696" style="fill: #1f77b4; stroke: #1f77b4"/>
     <use xlink:href="#mc46e13ae7f" x="199.273771" y="113.529282" style="fill: #1f77b4; stroke: #1f77b4"/>
     <use xlink:href="#mc46e13ae7f" x="239.881511" y="268.459783" style="fill: #1f77b4; stroke: #1f77b4"/>
     <use xlink:href="#mc46e13ae7f" x="236.778723" y="231.677423" style="fill: #1f77b4; stroke: #1f77b4"/>
     <use xlink:href="#mc46e13ae7f" x="182.495444" y="225.444959" style="fill: #1f77b4; stroke: #1f77b4"/>
     <use xlink:href="#mc46e13ae7f" x="171.154753" y="193.479218" style="fill: #1f77b4; stroke: #1f77b4"/>
     <use xlink:href="#mc46e13ae7f" x="198.063684" y="220.73215" style="fill: #1f77b4; stroke: #1f77b4"/>
     <use xlink:href="#mc46e13ae7f" x="266.56549" y="226.378359" style="fill: #1f77b4; stroke: #1f77b4"/>
     <use xlink:href="#mc46e13ae7f" x="230.728286" y="217.186348" style="fill: #1f77b4; stroke: #1f77b4"/>
     <use xlink:href="#mc46e13ae7f" x="220.357217" y="226.491114" style="fill: #1f77b4; stroke: #1f77b4"/>
     <use xlink:href="#mc46e13ae7f" x="267.94623" y="245.853505" style="fill: #1f77b4; stroke: #1f77b4"/>
     <use xlink:href="#mc46e13ae7f" x="377.916801" y="221.597316" style="fill: #1f77b4; stroke: #1f77b4"/>
     <use xlink:href="#mc46e13ae7f" x="232.015943" y="219.891547" style="fill: #1f77b4; stroke: #1f77b4"/>
     <use xlink:href="#mc46e13ae7f" x="309.430508" y="188.954144" style="fill: #1f77b4; stroke: #1f77b4"/>
     <use xlink:href="#mc46e13ae7f" x="246.257741" y="176.638148" style="fill: #1f77b4; stroke: #1f77b4"/>
     <use xlink:href="#mc46e13ae7f" x="296.104033" y="250.405884" style="fill: #1f77b4; stroke: #1f77b4"/>
     <use xlink:href="#mc46e13ae7f" x="301.409801" y="238.017459" style="fill: #1f77b4; stroke: #1f77b4"/>
     <use xlink:href="#mc46e13ae7f" x="323.501653" y="219.657598" style="fill: #1f77b4; stroke: #1f77b4"/>
     <use xlink:href="#mc46e13ae7f" x="431.719148" y="216.409176" style="fill: #1f77b4; stroke: #1f77b4"/>
     <use xlink:href="#mc46e13ae7f" x="200.35199" y="177.362582" style="fill: #1f77b4; stroke: #1f77b4"/>
     <use xlink:href="#mc46e13ae7f" x="66.102102" y="210.562372" style="fill: #1f77b4; stroke: #1f77b4"/>
     <use xlink:href="#mc46e13ae7f" x="347.34658" y="248.203009" style="fill: #1f77b4; stroke: #1f77b4"/>
     <use xlink:href="#mc46e13ae7f" x="217.642277" y="224.12934" style="fill: #1f77b4; stroke: #1f77b4"/>
     <use xlink:href="#mc46e13ae7f" x="187.568503" y="195.06103" style="fill: #1f77b4; stroke: #1f77b4"/>
     <use xlink:href="#mc46e13ae7f" x="303.17839" y="243.256899" style="fill: #1f77b4; stroke: #1f77b4"/>
     <use xlink:href="#mc46e13ae7f" x="178.252381" y="250.394857" style="fill: #1f77b4; stroke: #1f77b4"/>
     <use xlink:href="#mc46e13ae7f" x="99.581187" y="202.93842" style="fill: #1f77b4; stroke: #1f77b4"/>
     <use xlink:href="#mc46e13ae7f" x="297.740754" y="242.847555" style="fill: #1f77b4; stroke: #1f77b4"/>
     <use xlink:href="#mc46e13ae7f" x="307.956684" y="248.725277" style="fill: #1f77b4; stroke: #1f77b4"/>
     <use xlink:href="#mc46e13ae7f" x="243.744483" y="211.085581" style="fill: #1f77b4; stroke: #1f77b4"/>
     <use xlink:href="#mc46e13ae7f" x="192.090816" y="240.944272" style="fill: #1f77b4; stroke: #1f77b4"/>
     <use xlink:href="#mc46e13ae7f" x="272.809851" y="250.823303" style="fill: #1f77b4; stroke: #1f77b4"/>
     <use xlink:href="#mc46e13ae7f" x="271.188644" y="250.513098" style="fill: #1f77b4; stroke: #1f77b4"/>
     <use xlink:href="#mc46e13ae7f" x="364.334345" y="235.209875" style="fill: #1f77b4; stroke: #1f77b4"/>
     <use xlink:href="#mc46e13ae7f" x="354.203742" y="235.191416" style="fill: #1f77b4; stroke: #1f77b4"/>
     <use xlink:href="#mc46e13ae7f" x="219.589277" y="199.290661" style="fill: #1f77b4; stroke: #1f77b4"/>
     <use xlink:href="#mc46e13ae7f" x="241.98365" y="182.160197" style="fill: #1f77b4; stroke: #1f77b4"/>
     <use xlink:href="#mc46e13ae7f" x="294.389743" y="197.224742" style="fill: #1f77b4; stroke: #1f77b4"/>
     <use xlink:href="#mc46e13ae7f" x="207.387562" y="224.962928" style="fill: #1f77b4; stroke: #1f77b4"/>
     <use xlink:href="#mc46e13ae7f" x="174.242027" y="205.607363" style="fill: #1f77b4; stroke: #1f77b4"/>
     <use xlink:href="#mc46e13ae7f" x="221.280296" y="197.908928" style="fill: #1f77b4; stroke: #1f77b4"/>
     <use xlink:href="#mc46e13ae7f" x="266.774928" y="243.590029" style="fill: #1f77b4; stroke: #1f77b4"/>
     <use xlink:href="#mc46e13ae7f" x="331.281894" y="225.506687" style="fill: #1f77b4; stroke: #1f77b4"/>
     <use xlink:href="#mc46e13ae7f" x="190.516151" y="236.558323" style="fill: #1f77b4; stroke: #1f77b4"/>
     <use xlink:href="#mc46e13ae7f" x="253.913871" y="217.245256" style="fill: #1f77b4; stroke: #1f77b4"/>
     <use xlink:href="#mc46e13ae7f" x="214.888553" y="228.516103" style="fill: #1f77b4; stroke: #1f77b4"/>
     <use xlink:href="#mc46e13ae7f" x="314.100205" y="247.745192" style="fill: #1f77b4; stroke: #1f77b4"/>
     <use xlink:href="#mc46e13ae7f" x="295.460205" y="209.49106" style="fill: #1f77b4; stroke: #1f77b4"/>
     <use xlink:href="#mc46e13ae7f" x="255.628161" y="204.739687" style="fill: #1f77b4; stroke: #1f77b4"/>
     <use xlink:href="#mc46e13ae7f" x="284.685773" y="240.927613" style="fill: #1f77b4; stroke: #1f77b4"/>
     <use xlink:href="#mc46e13ae7f" x="139.110708" y="202.386389" style="fill: #1f77b4; stroke: #1f77b4"/>
     <use xlink:href="#mc46e13ae7f" x="229.906047" y="218.084704" style="fill: #1f77b4; stroke: #1f77b4"/>
     <use xlink:href="#mc46e13ae7f" x="146.73581" y="231.314058" style="fill: #1f77b4; stroke: #1f77b4"/>
     <use xlink:href="#mc46e13ae7f" x="159.620138" y="221.43695" style="fill: #1f77b4; stroke: #1f77b4"/>
     <use xlink:href="#mc46e13ae7f" x="206.743734" y="250.335062" style="fill: #1f77b4; stroke: #1f77b4"/>
     <use xlink:href="#mc46e13ae7f" x="155.982119" y="197.461422" style="fill: #1f77b4; stroke: #1f77b4"/>
     <use xlink:href="#mc46e13ae7f" x="266.131099" y="229.273781" style="fill: #1f77b4; stroke: #1f77b4"/>
     <use xlink:href="#mc46e13ae7f" x="302.224283" y="228.032443" style="fill: #1f77b4; stroke: #1f77b4"/>
    </g>
   </g>
   <g id="matplotlib.axis_1">
    <g id="xtick_1">
     <g id="line2d_1">
      <defs>
       <path id="m58baac9634" d="M 0 0 
L 0 3.5 
" style="stroke: #000000; stroke-width: 0.8"/>
      </defs>
      <g>
       <use xlink:href="#m58baac9634" x="102.2108" y="303.64" style="stroke: #000000; stroke-width: 0.8"/>
      </g>
     </g>
     <g id="text_1">
      <!-- −800 -->
      <g transform="translate(88.477206 318.238437)scale(0.1 -0.1)">
       <defs>
        <path id="DejaVuSans-2212" d="M 678 2272 
L 4684 2272 
L 4684 1741 
L 678 1741 
L 678 2272 
z
" transform="scale(0.015625)"/>
        <path id="DejaVuSans-38" d="M 2034 2216 
Q 1584 2216 1326 1975 
Q 1069 1734 1069 1313 
Q 1069 891 1326 650 
Q 1584 409 2034 409 
Q 2484 409 2743 651 
Q 3003 894 3003 1313 
Q 3003 1734 2745 1975 
Q 2488 2216 2034 2216 
z
M 1403 2484 
Q 997 2584 770 2862 
Q 544 3141 544 3541 
Q 544 4100 942 4425 
Q 1341 4750 2034 4750 
Q 2731 4750 3128 4425 
Q 3525 4100 3525 3541 
Q 3525 3141 3298 2862 
Q 3072 2584 2669 2484 
Q 3125 2378 3379 2068 
Q 3634 1759 3634 1313 
Q 3634 634 3220 271 
Q 2806 -91 2034 -91 
Q 1263 -91 848 271 
Q 434 634 434 1313 
Q 434 1759 690 2068 
Q 947 2378 1403 2484 
z
M 1172 3481 
Q 1172 3119 1398 2916 
Q 1625 2713 2034 2713 
Q 2441 2713 2670 2916 
Q 2900 3119 2900 3481 
Q 2900 3844 2670 4047 
Q 2441 4250 2034 4250 
Q 1625 4250 1398 4047 
Q 1172 3844 1172 3481 
z
" transform="scale(0.015625)"/>
        <path id="DejaVuSans-30" d="M 2034 4250 
Q 1547 4250 1301 3770 
Q 1056 3291 1056 2328 
Q 1056 1369 1301 889 
Q 1547 409 2034 409 
Q 2525 409 2770 889 
Q 3016 1369 3016 2328 
Q 3016 3291 2770 3770 
Q 2525 4250 2034 4250 
z
M 2034 4750 
Q 2819 4750 3233 4129 
Q 3647 3509 3647 2328 
Q 3647 1150 3233 529 
Q 2819 -91 2034 -91 
Q 1250 -91 836 529 
Q 422 1150 422 2328 
Q 422 3509 836 4129 
Q 1250 4750 2034 4750 
z
" transform="scale(0.015625)"/>
       </defs>
       <use xlink:href="#DejaVuSans-2212"/>
       <use xlink:href="#DejaVuSans-38" x="83.789062"/>
       <use xlink:href="#DejaVuSans-30" x="147.412109"/>
       <use xlink:href="#DejaVuSans-30" x="211.035156"/>
      </g>
     </g>
    </g>
    <g id="xtick_2">
     <g id="line2d_2">
      <g>
       <use xlink:href="#m58baac9634" x="179.780504" y="303.64" style="stroke: #000000; stroke-width: 0.8"/>
      </g>
     </g>
     <g id="text_2">
      <!-- −700 -->
      <g transform="translate(166.046911 318.238437)scale(0.1 -0.1)">
       <defs>
        <path id="DejaVuSans-37" d="M 525 4666 
L 3525 4666 
L 3525 4397 
L 1831 0 
L 1172 0 
L 2766 4134 
L 525 4134 
L 525 4666 
z
" transform="scale(0.015625)"/>
       </defs>
       <use xlink:href="#DejaVuSans-2212"/>
       <use xlink:href="#DejaVuSans-37" x="83.789062"/>
       <use xlink:href="#DejaVuSans-30" x="147.412109"/>
       <use xlink:href="#DejaVuSans-30" x="211.035156"/>
      </g>
     </g>
    </g>
    <g id="xtick_3">
     <g id="line2d_3">
      <g>
       <use xlink:href="#m58baac9634" x="257.350209" y="303.64" style="stroke: #000000; stroke-width: 0.8"/>
      </g>
     </g>
     <g id="text_3">
      <!-- −600 -->
      <g transform="translate(243.616615 318.238437)scale(0.1 -0.1)">
       <defs>
        <path id="DejaVuSans-36" d="M 2113 2584 
Q 1688 2584 1439 2293 
Q 1191 2003 1191 1497 
Q 1191 994 1439 701 
Q 1688 409 2113 409 
Q 2538 409 2786 701 
Q 3034 994 3034 1497 
Q 3034 2003 2786 2293 
Q 2538 2584 2113 2584 
z
M 3366 4563 
L 3366 3988 
Q 3128 4100 2886 4159 
Q 2644 4219 2406 4219 
Q 1781 4219 1451 3797 
Q 1122 3375 1075 2522 
Q 1259 2794 1537 2939 
Q 1816 3084 2150 3084 
Q 2853 3084 3261 2657 
Q 3669 2231 3669 1497 
Q 3669 778 3244 343 
Q 2819 -91 2113 -91 
Q 1303 -91 875 529 
Q 447 1150 447 2328 
Q 447 3434 972 4092 
Q 1497 4750 2381 4750 
Q 2619 4750 2861 4703 
Q 3103 4656 3366 4563 
z
" transform="scale(0.015625)"/>
       </defs>
       <use xlink:href="#DejaVuSans-2212"/>
       <use xlink:href="#DejaVuSans-36" x="83.789062"/>
       <use xlink:href="#DejaVuSans-30" x="147.412109"/>
       <use xlink:href="#DejaVuSans-30" x="211.035156"/>
      </g>
     </g>
    </g>
    <g id="xtick_4">
     <g id="line2d_4">
      <g>
       <use xlink:href="#m58baac9634" x="334.919913" y="303.64" style="stroke: #000000; stroke-width: 0.8"/>
      </g>
     </g>
     <g id="text_4">
      <!-- −500 -->
      <g transform="translate(321.18632 318.238437)scale(0.1 -0.1)">
       <defs>
        <path id="DejaVuSans-35" d="M 691 4666 
L 3169 4666 
L 3169 4134 
L 1269 4134 
L 1269 2991 
Q 1406 3038 1543 3061 
Q 1681 3084 1819 3084 
Q 2600 3084 3056 2656 
Q 3513 2228 3513 1497 
Q 3513 744 3044 326 
Q 2575 -91 1722 -91 
Q 1428 -91 1123 -41 
Q 819 9 494 109 
L 494 744 
Q 775 591 1075 516 
Q 1375 441 1709 441 
Q 2250 441 2565 725 
Q 2881 1009 2881 1497 
Q 2881 1984 2565 2268 
Q 2250 2553 1709 2553 
Q 1456 2553 1204 2497 
Q 953 2441 691 2322 
L 691 4666 
z
" transform="scale(0.015625)"/>
       </defs>
       <use xlink:href="#DejaVuSans-2212"/>
       <use xlink:href="#DejaVuSans-35" x="83.789062"/>
       <use xlink:href="#DejaVuSans-30" x="147.412109"/>
       <use xlink:href="#DejaVuSans-30" x="211.035156"/>
      </g>
     </g>
    </g>
    <g id="xtick_5">
     <g id="line2d_5">
      <g>
       <use xlink:href="#m58baac9634" x="412.489618" y="303.64" style="stroke: #000000; stroke-width: 0.8"/>
      </g>
     </g>
     <g id="text_5">
      <!-- −400 -->
      <g transform="translate(398.756024 318.238437)scale(0.1 -0.1)">
       <defs>
        <path id="DejaVuSans-34" d="M 2419 4116 
L 825 1625 
L 2419 1625 
L 2419 4116 
z
M 2253 4666 
L 3047 4666 
L 3047 1625 
L 3713 1625 
L 3713 1100 
L 3047 1100 
L 3047 0 
L 2419 0 
L 2419 1100 
L 313 1100 
L 313 1709 
L 2253 4666 
z
" transform="scale(0.015625)"/>
       </defs>
       <use xlink:href="#DejaVuSans-2212"/>
       <use xlink:href="#DejaVuSans-34" x="83.789062"/>
       <use xlink:href="#DejaVuSans-30" x="147.412109"/>
       <use xlink:href="#DejaVuSans-30" x="211.035156"/>
      </g>
     </g>
    </g>
    <g id="text_6">
     <!-- SasaDiff -->
     <g transform="translate(228.244219 331.916562)scale(0.1 -0.1)">
      <defs>
       <path id="DejaVuSans-53" d="M 3425 4513 
L 3425 3897 
Q 3066 4069 2747 4153 
Q 2428 4238 2131 4238 
Q 1616 4238 1336 4038 
Q 1056 3838 1056 3469 
Q 1056 3159 1242 3001 
Q 1428 2844 1947 2747 
L 2328 2669 
Q 3034 2534 3370 2195 
Q 3706 1856 3706 1288 
Q 3706 609 3251 259 
Q 2797 -91 1919 -91 
Q 1588 -91 1214 -16 
Q 841 59 441 206 
L 441 856 
Q 825 641 1194 531 
Q 1563 422 1919 422 
Q 2459 422 2753 634 
Q 3047 847 3047 1241 
Q 3047 1584 2836 1778 
Q 2625 1972 2144 2069 
L 1759 2144 
Q 1053 2284 737 2584 
Q 422 2884 422 3419 
Q 422 4038 858 4394 
Q 1294 4750 2059 4750 
Q 2388 4750 2728 4690 
Q 3069 4631 3425 4513 
z
" transform="scale(0.015625)"/>
       <path id="DejaVuSans-61" d="M 2194 1759 
Q 1497 1759 1228 1600 
Q 959 1441 959 1056 
Q 959 750 1161 570 
Q 1363 391 1709 391 
Q 2188 391 2477 730 
Q 2766 1069 2766 1631 
L 2766 1759 
L 2194 1759 
z
M 3341 1997 
L 3341 0 
L 2766 0 
L 2766 531 
Q 2569 213 2275 61 
Q 1981 -91 1556 -91 
Q 1019 -91 701 211 
Q 384 513 384 1019 
Q 384 1609 779 1909 
Q 1175 2209 1959 2209 
L 2766 2209 
L 2766 2266 
Q 2766 2663 2505 2880 
Q 2244 3097 1772 3097 
Q 1472 3097 1187 3025 
Q 903 2953 641 2809 
L 641 3341 
Q 956 3463 1253 3523 
Q 1550 3584 1831 3584 
Q 2591 3584 2966 3190 
Q 3341 2797 3341 1997 
z
" transform="scale(0.015625)"/>
       <path id="DejaVuSans-73" d="M 2834 3397 
L 2834 2853 
Q 2591 2978 2328 3040 
Q 2066 3103 1784 3103 
Q 1356 3103 1142 2972 
Q 928 2841 928 2578 
Q 928 2378 1081 2264 
Q 1234 2150 1697 2047 
L 1894 2003 
Q 2506 1872 2764 1633 
Q 3022 1394 3022 966 
Q 3022 478 2636 193 
Q 2250 -91 1575 -91 
Q 1294 -91 989 -36 
Q 684 19 347 128 
L 347 722 
Q 666 556 975 473 
Q 1284 391 1588 391 
Q 1994 391 2212 530 
Q 2431 669 2431 922 
Q 2431 1156 2273 1281 
Q 2116 1406 1581 1522 
L 1381 1569 
Q 847 1681 609 1914 
Q 372 2147 372 2553 
Q 372 3047 722 3315 
Q 1072 3584 1716 3584 
Q 2034 3584 2315 3537 
Q 2597 3491 2834 3397 
z
" transform="scale(0.015625)"/>
       <path id="DejaVuSans-44" d="M 1259 4147 
L 1259 519 
L 2022 519 
Q 2988 519 3436 956 
Q 3884 1394 3884 2338 
Q 3884 3275 3436 3711 
Q 2988 4147 2022 4147 
L 1259 4147 
z
M 628 4666 
L 1925 4666 
Q 3281 4666 3915 4102 
Q 4550 3538 4550 2338 
Q 4550 1131 3912 565 
Q 3275 0 1925 0 
L 628 0 
L 628 4666 
z
" transform="scale(0.015625)"/>
       <path id="DejaVuSans-69" d="M 603 3500 
L 1178 3500 
L 1178 0 
L 603 0 
L 603 3500 
z
M 603 4863 
L 1178 4863 
L 1178 4134 
L 603 4134 
L 603 4863 
z
" transform="scale(0.015625)"/>
       <path id="DejaVuSans-66" d="M 2375 4863 
L 2375 4384 
L 1825 4384 
Q 1516 4384 1395 4259 
Q 1275 4134 1275 3809 
L 1275 3500 
L 2222 3500 
L 2222 3053 
L 1275 3053 
L 1275 0 
L 697 0 
L 697 3053 
L 147 3053 
L 147 3500 
L 697 3500 
L 697 3744 
Q 697 4328 969 4595 
Q 1241 4863 1831 4863 
L 2375 4863 
z
" transform="scale(0.015625)"/>
      </defs>
      <use xlink:href="#DejaVuSans-53"/>
      <use xlink:href="#DejaVuSans-61" x="63.476562"/>
      <use xlink:href="#DejaVuSans-73" x="124.755859"/>
      <use xlink:href="#DejaVuSans-61" x="176.855469"/>
      <use xlink:href="#DejaVuSans-44" x="238.134766"/>
      <use xlink:href="#DejaVuSans-69" x="315.136719"/>
      <use xlink:href="#DejaVuSans-66" x="342.919922"/>
      <use xlink:href="#DejaVuSans-66" x="378.125"/>
     </g>
    </g>
   </g>
   <g id="matplotlib.axis_2">
    <g id="ytick_1">
     <g id="line2d_6">
      <defs>
       <path id="med6015cbbf" d="M 0 0 
L -3.5 0 
" style="stroke: #000000; stroke-width: 0.8"/>
      </defs>
      <g>
       <use xlink:href="#med6015cbbf" x="47.82125" y="303.64" style="stroke: #000000; stroke-width: 0.8"/>
      </g>
     </g>
     <g id="text_7">
      <!-- 0.0 -->
      <g transform="translate(24.918125 307.439219)scale(0.1 -0.1)">
       <defs>
        <path id="DejaVuSans-2e" d="M 684 794 
L 1344 794 
L 1344 0 
L 684 0 
L 684 794 
z
" transform="scale(0.015625)"/>
       </defs>
       <use xlink:href="#DejaVuSans-30"/>
       <use xlink:href="#DejaVuSans-2e" x="63.623047"/>
       <use xlink:href="#DejaVuSans-30" x="95.410156"/>
      </g>
     </g>
    </g>
    <g id="ytick_2">
     <g id="line2d_7">
      <g>
       <use xlink:href="#med6015cbbf" x="47.82125" y="260.265558" style="stroke: #000000; stroke-width: 0.8"/>
      </g>
     </g>
     <g id="text_8">
      <!-- 0.2 -->
      <g transform="translate(24.918125 264.064777)scale(0.1 -0.1)">
       <defs>
        <path id="DejaVuSans-32" d="M 1228 531 
L 3431 531 
L 3431 0 
L 469 0 
L 469 531 
Q 828 903 1448 1529 
Q 2069 2156 2228 2338 
Q 2531 2678 2651 2914 
Q 2772 3150 2772 3378 
Q 2772 3750 2511 3984 
Q 2250 4219 1831 4219 
Q 1534 4219 1204 4116 
Q 875 4013 500 3803 
L 500 4441 
Q 881 4594 1212 4672 
Q 1544 4750 1819 4750 
Q 2544 4750 2975 4387 
Q 3406 4025 3406 3419 
Q 3406 3131 3298 2873 
Q 3191 2616 2906 2266 
Q 2828 2175 2409 1742 
Q 1991 1309 1228 531 
z
" transform="scale(0.015625)"/>
       </defs>
       <use xlink:href="#DejaVuSans-30"/>
       <use xlink:href="#DejaVuSans-2e" x="63.623047"/>
       <use xlink:href="#DejaVuSans-32" x="95.410156"/>
      </g>
     </g>
    </g>
    <g id="ytick_3">
     <g id="line2d_8">
      <g>
       <use xlink:href="#med6015cbbf" x="47.82125" y="216.891117" style="stroke: #000000; stroke-width: 0.8"/>
      </g>
     </g>
     <g id="text_9">
      <!-- 0.4 -->
      <g transform="translate(24.918125 220.690336)scale(0.1 -0.1)">
       <use xlink:href="#DejaVuSans-30"/>
       <use xlink:href="#DejaVuSans-2e" x="63.623047"/>
       <use xlink:href="#DejaVuSans-34" x="95.410156"/>
      </g>
     </g>
    </g>
    <g id="ytick_4">
     <g id="line2d_9">
      <g>
       <use xlink:href="#med6015cbbf" x="47.82125" y="173.516675" style="stroke: #000000; stroke-width: 0.8"/>
      </g>
     </g>
     <g id="text_10">
      <!-- 0.6 -->
      <g transform="translate(24.918125 177.315894)scale(0.1 -0.1)">
       <use xlink:href="#DejaVuSans-30"/>
       <use xlink:href="#DejaVuSans-2e" x="63.623047"/>
       <use xlink:href="#DejaVuSans-36" x="95.410156"/>
      </g>
     </g>
    </g>
    <g id="ytick_5">
     <g id="line2d_10">
      <g>
       <use xlink:href="#med6015cbbf" x="47.82125" y="130.142234" style="stroke: #000000; stroke-width: 0.8"/>
      </g>
     </g>
     <g id="text_11">
      <!-- 0.8 -->
      <g transform="translate(24.918125 133.941452)scale(0.1 -0.1)">
       <use xlink:href="#DejaVuSans-30"/>
       <use xlink:href="#DejaVuSans-2e" x="63.623047"/>
       <use xlink:href="#DejaVuSans-38" x="95.410156"/>
      </g>
     </g>
    </g>
    <g id="ytick_6">
     <g id="line2d_11">
      <g>
       <use xlink:href="#med6015cbbf" x="47.82125" y="86.767792" style="stroke: #000000; stroke-width: 0.8"/>
      </g>
     </g>
     <g id="text_12">
      <!-- 1.0 -->
      <g transform="translate(24.918125 90.567011)scale(0.1 -0.1)">
       <defs>
        <path id="DejaVuSans-31" d="M 794 531 
L 1825 531 
L 1825 4091 
L 703 3866 
L 703 4441 
L 1819 4666 
L 2450 4666 
L 2450 531 
L 3481 531 
L 3481 0 
L 794 0 
L 794 531 
z
" transform="scale(0.015625)"/>
       </defs>
       <use xlink:href="#DejaVuSans-31"/>
       <use xlink:href="#DejaVuSans-2e" x="63.623047"/>
       <use xlink:href="#DejaVuSans-30" x="95.410156"/>
      </g>
     </g>
    </g>
    <g id="text_13">
     <!-- PercentGpA_transformed -->
     <g transform="translate(18.560313 237.696138)rotate(-90)scale(0.1 -0.1)">
      <defs>
       <path id="DejaVuSans-50" d="M 1259 4147 
L 1259 2394 
L 2053 2394 
Q 2494 2394 2734 2622 
Q 2975 2850 2975 3272 
Q 2975 3691 2734 3919 
Q 2494 4147 2053 4147 
L 1259 4147 
z
M 628 4666 
L 2053 4666 
Q 2838 4666 3239 4311 
Q 3641 3956 3641 3272 
Q 3641 2581 3239 2228 
Q 2838 1875 2053 1875 
L 1259 1875 
L 1259 0 
L 628 0 
L 628 4666 
z
" transform="scale(0.015625)"/>
       <path id="DejaVuSans-65" d="M 3597 1894 
L 3597 1613 
L 953 1613 
Q 991 1019 1311 708 
Q 1631 397 2203 397 
Q 2534 397 2845 478 
Q 3156 559 3463 722 
L 3463 178 
Q 3153 47 2828 -22 
Q 2503 -91 2169 -91 
Q 1331 -91 842 396 
Q 353 884 353 1716 
Q 353 2575 817 3079 
Q 1281 3584 2069 3584 
Q 2775 3584 3186 3129 
Q 3597 2675 3597 1894 
z
M 3022 2063 
Q 3016 2534 2758 2815 
Q 2500 3097 2075 3097 
Q 1594 3097 1305 2825 
Q 1016 2553 972 2059 
L 3022 2063 
z
" transform="scale(0.015625)"/>
       <path id="DejaVuSans-72" d="M 2631 2963 
Q 2534 3019 2420 3045 
Q 2306 3072 2169 3072 
Q 1681 3072 1420 2755 
Q 1159 2438 1159 1844 
L 1159 0 
L 581 0 
L 581 3500 
L 1159 3500 
L 1159 2956 
Q 1341 3275 1631 3429 
Q 1922 3584 2338 3584 
Q 2397 3584 2469 3576 
Q 2541 3569 2628 3553 
L 2631 2963 
z
" transform="scale(0.015625)"/>
       <path id="DejaVuSans-63" d="M 3122 3366 
L 3122 2828 
Q 2878 2963 2633 3030 
Q 2388 3097 2138 3097 
Q 1578 3097 1268 2742 
Q 959 2388 959 1747 
Q 959 1106 1268 751 
Q 1578 397 2138 397 
Q 2388 397 2633 464 
Q 2878 531 3122 666 
L 3122 134 
Q 2881 22 2623 -34 
Q 2366 -91 2075 -91 
Q 1284 -91 818 406 
Q 353 903 353 1747 
Q 353 2603 823 3093 
Q 1294 3584 2113 3584 
Q 2378 3584 2631 3529 
Q 2884 3475 3122 3366 
z
" transform="scale(0.015625)"/>
       <path id="DejaVuSans-6e" d="M 3513 2113 
L 3513 0 
L 2938 0 
L 2938 2094 
Q 2938 2591 2744 2837 
Q 2550 3084 2163 3084 
Q 1697 3084 1428 2787 
Q 1159 2491 1159 1978 
L 1159 0 
L 581 0 
L 581 3500 
L 1159 3500 
L 1159 2956 
Q 1366 3272 1645 3428 
Q 1925 3584 2291 3584 
Q 2894 3584 3203 3211 
Q 3513 2838 3513 2113 
z
" transform="scale(0.015625)"/>
       <path id="DejaVuSans-74" d="M 1172 4494 
L 1172 3500 
L 2356 3500 
L 2356 3053 
L 1172 3053 
L 1172 1153 
Q 1172 725 1289 603 
Q 1406 481 1766 481 
L 2356 481 
L 2356 0 
L 1766 0 
Q 1100 0 847 248 
Q 594 497 594 1153 
L 594 3053 
L 172 3053 
L 172 3500 
L 594 3500 
L 594 4494 
L 1172 4494 
z
" transform="scale(0.015625)"/>
       <path id="DejaVuSans-47" d="M 3809 666 
L 3809 1919 
L 2778 1919 
L 2778 2438 
L 4434 2438 
L 4434 434 
Q 4069 175 3628 42 
Q 3188 -91 2688 -91 
Q 1594 -91 976 548 
Q 359 1188 359 2328 
Q 359 3472 976 4111 
Q 1594 4750 2688 4750 
Q 3144 4750 3555 4637 
Q 3966 4525 4313 4306 
L 4313 3634 
Q 3963 3931 3569 4081 
Q 3175 4231 2741 4231 
Q 1884 4231 1454 3753 
Q 1025 3275 1025 2328 
Q 1025 1384 1454 906 
Q 1884 428 2741 428 
Q 3075 428 3337 486 
Q 3600 544 3809 666 
z
" transform="scale(0.015625)"/>
       <path id="DejaVuSans-70" d="M 1159 525 
L 1159 -1331 
L 581 -1331 
L 581 3500 
L 1159 3500 
L 1159 2969 
Q 1341 3281 1617 3432 
Q 1894 3584 2278 3584 
Q 2916 3584 3314 3078 
Q 3713 2572 3713 1747 
Q 3713 922 3314 415 
Q 2916 -91 2278 -91 
Q 1894 -91 1617 61 
Q 1341 213 1159 525 
z
M 3116 1747 
Q 3116 2381 2855 2742 
Q 2594 3103 2138 3103 
Q 1681 3103 1420 2742 
Q 1159 2381 1159 1747 
Q 1159 1113 1420 752 
Q 1681 391 2138 391 
Q 2594 391 2855 752 
Q 3116 1113 3116 1747 
z
" transform="scale(0.015625)"/>
       <path id="DejaVuSans-41" d="M 2188 4044 
L 1331 1722 
L 3047 1722 
L 2188 4044 
z
M 1831 4666 
L 2547 4666 
L 4325 0 
L 3669 0 
L 3244 1197 
L 1141 1197 
L 716 0 
L 50 0 
L 1831 4666 
z
" transform="scale(0.015625)"/>
       <path id="DejaVuSans-5f" d="M 3263 -1063 
L 3263 -1509 
L -63 -1509 
L -63 -1063 
L 3263 -1063 
z
" transform="scale(0.015625)"/>
       <path id="DejaVuSans-6f" d="M 1959 3097 
Q 1497 3097 1228 2736 
Q 959 2375 959 1747 
Q 959 1119 1226 758 
Q 1494 397 1959 397 
Q 2419 397 2687 759 
Q 2956 1122 2956 1747 
Q 2956 2369 2687 2733 
Q 2419 3097 1959 3097 
z
M 1959 3584 
Q 2709 3584 3137 3096 
Q 3566 2609 3566 1747 
Q 3566 888 3137 398 
Q 2709 -91 1959 -91 
Q 1206 -91 779 398 
Q 353 888 353 1747 
Q 353 2609 779 3096 
Q 1206 3584 1959 3584 
z
" transform="scale(0.015625)"/>
       <path id="DejaVuSans-6d" d="M 3328 2828 
Q 3544 3216 3844 3400 
Q 4144 3584 4550 3584 
Q 5097 3584 5394 3201 
Q 5691 2819 5691 2113 
L 5691 0 
L 5113 0 
L 5113 2094 
Q 5113 2597 4934 2840 
Q 4756 3084 4391 3084 
Q 3944 3084 3684 2787 
Q 3425 2491 3425 1978 
L 3425 0 
L 2847 0 
L 2847 2094 
Q 2847 2600 2669 2842 
Q 2491 3084 2119 3084 
Q 1678 3084 1418 2786 
Q 1159 2488 1159 1978 
L 1159 0 
L 581 0 
L 581 3500 
L 1159 3500 
L 1159 2956 
Q 1356 3278 1631 3431 
Q 1906 3584 2284 3584 
Q 2666 3584 2933 3390 
Q 3200 3197 3328 2828 
z
" transform="scale(0.015625)"/>
       <path id="DejaVuSans-64" d="M 2906 2969 
L 2906 4863 
L 3481 4863 
L 3481 0 
L 2906 0 
L 2906 525 
Q 2725 213 2448 61 
Q 2172 -91 1784 -91 
Q 1150 -91 751 415 
Q 353 922 353 1747 
Q 353 2572 751 3078 
Q 1150 3584 1784 3584 
Q 2172 3584 2448 3432 
Q 2725 3281 2906 2969 
z
M 947 1747 
Q 947 1113 1208 752 
Q 1469 391 1925 391 
Q 2381 391 2643 752 
Q 2906 1113 2906 1747 
Q 2906 2381 2643 2742 
Q 2381 3103 1925 3103 
Q 1469 3103 1208 2742 
Q 947 2381 947 1747 
z
" transform="scale(0.015625)"/>
      </defs>
      <use xlink:href="#DejaVuSans-50"/>
      <use xlink:href="#DejaVuSans-65" x="56.677734"/>
      <use xlink:href="#DejaVuSans-72" x="118.201172"/>
      <use xlink:href="#DejaVuSans-63" x="157.064453"/>
      <use xlink:href="#DejaVuSans-65" x="212.044922"/>
      <use xlink:href="#DejaVuSans-6e" x="273.568359"/>
      <use xlink:href="#DejaVuSans-74" x="336.947266"/>
      <use xlink:href="#DejaVuSans-47" x="376.15625"/>
      <use xlink:href="#DejaVuSans-70" x="453.646484"/>
      <use xlink:href="#DejaVuSans-41" x="517.123047"/>
      <use xlink:href="#DejaVuSans-5f" x="585.53125"/>
      <use xlink:href="#DejaVuSans-74" x="635.53125"/>
      <use xlink:href="#DejaVuSans-72" x="674.740234"/>
      <use xlink:href="#DejaVuSans-61" x="715.853516"/>
      <use xlink:href="#DejaVuSans-6e" x="777.132812"/>
      <use xlink:href="#DejaVuSans-73" x="840.511719"/>
      <use xlink:href="#DejaVuSans-66" x="892.611328"/>
      <use xlink:href="#DejaVuSans-6f" x="927.816406"/>
      <use xlink:href="#DejaVuSans-72" x="988.998047"/>
      <use xlink:href="#DejaVuSans-6d" x="1028.361328"/>
      <use xlink:href="#DejaVuSans-65" x="1125.773438"/>
      <use xlink:href="#DejaVuSans-64" x="1187.296875"/>
     </g>
    </g>
   </g>
   <g id="LineCollection_1">
    <path d="M 86.045273 200.98634 
L 86.045273 198.737351 
" clip-path="url(#pb253a7d6c1)" style="fill: none; stroke: #d3d3d3; stroke-width: 3"/>
    <path d="M 173.039697 246.502166 
L 173.039697 207.302818 
" clip-path="url(#pb253a7d6c1)" style="fill: none; stroke: #d3d3d3; stroke-width: 3"/>
    <path d="M 96.842976 224.040132 
L 96.842976 194.168435 
" clip-path="url(#pb253a7d6c1)" style="fill: none; stroke: #d3d3d3; stroke-width: 3"/>
    <path d="M 104.00266 213.411387 
L 104.00266 210.409524 
" clip-path="url(#pb253a7d6c1)" style="fill: none; stroke: #d3d3d3; stroke-width: 3"/>
    <path d="M 221.613846 221.467481 
L 221.613846 173.677192 
" clip-path="url(#pb253a7d6c1)" style="fill: none; stroke: #d3d3d3; stroke-width: 3"/>
    <path d="M 259.878981 224.931895 
L 259.878981 212.329256 
" clip-path="url(#pb253a7d6c1)" style="fill: none; stroke: #d3d3d3; stroke-width: 3"/>
    <path d="M 122.099672 196.694192 
L 122.099672 167.049634 
" clip-path="url(#pb253a7d6c1)" style="fill: none; stroke: #d3d3d3; stroke-width: 3"/>
    <path d="M 133.168869 236.058475 
L 133.168869 221.807462 
" clip-path="url(#pb253a7d6c1)" style="fill: none; stroke: #d3d3d3; stroke-width: 3"/>
    <path d="M 198.598915 169.854753 
L 198.598915 160.625364 
" clip-path="url(#pb253a7d6c1)" style="fill: none; stroke: #d3d3d3; stroke-width: 3"/>
    <path d="M 347.137142 236.811215 
L 347.137142 222.693104 
" clip-path="url(#pb253a7d6c1)" style="fill: none; stroke: #d3d3d3; stroke-width: 3"/>
    <path d="M 236.538257 201.095 
L 236.538257 191.103442 
" clip-path="url(#pb253a7d6c1)" style="fill: none; stroke: #d3d3d3; stroke-width: 3"/>
    <path d="M 363.419023 172.644961 
L 363.419023 161.046996 
" clip-path="url(#pb253a7d6c1)" style="fill: none; stroke: #d3d3d3; stroke-width: 3"/>
    <path d="M 268.628844 220.295984 
L 268.628844 191.171006 
" clip-path="url(#pb253a7d6c1)" style="fill: none; stroke: #d3d3d3; stroke-width: 3"/>
    <path d="M 281.551957 210.677086 
L 281.551957 198.257169 
" clip-path="url(#pb253a7d6c1)" style="fill: none; stroke: #d3d3d3; stroke-width: 3"/>
    <path d="M 171.922693 221.523754 
L 171.922693 198.33617 
" clip-path="url(#pb253a7d6c1)" style="fill: none; stroke: #d3d3d3; stroke-width: 3"/>
    <path d="M 250.958465 243.244771 
L 250.958465 164.408152 
" clip-path="url(#pb253a7d6c1)" style="fill: none; stroke: #d3d3d3; stroke-width: 3"/>
    <path d="M 151.250367 203.893468 
L 151.250367 177.324352 
" clip-path="url(#pb253a7d6c1)" style="fill: none; stroke: #d3d3d3; stroke-width: 3"/>
    <path d="M 217.145831 204.41069 
L 217.145831 186.194294 
" clip-path="url(#pb253a7d6c1)" style="fill: none; stroke: #d3d3d3; stroke-width: 3"/>
    <path d="M 255.224799 261.84432 
L 255.224799 209.705983 
" clip-path="url(#pb253a7d6c1)" style="fill: none; stroke: #d3d3d3; stroke-width: 3"/>
    <path d="M 191.191008 250.929749 
L 191.191008 226.390705 
" clip-path="url(#pb253a7d6c1)" style="fill: none; stroke: #d3d3d3; stroke-width: 3"/>
    <path d="M 171.938207 196.824278 
L 171.938207 163.252644 
" clip-path="url(#pb253a7d6c1)" style="fill: none; stroke: #d3d3d3; stroke-width: 3"/>
    <path d="M 254.743867 212.813887 
L 254.743867 201.701396 
" clip-path="url(#pb253a7d6c1)" style="fill: none; stroke: #d3d3d3; stroke-width: 3"/>
    <path d="M 115.622602 224.238711 
L 115.622602 194.633556 
" clip-path="url(#pb253a7d6c1)" style="fill: none; stroke: #d3d3d3; stroke-width: 3"/>
    <path d="M 196.915652 241.137428 
L 196.915652 223.881472 
" clip-path="url(#pb253a7d6c1)" style="fill: none; stroke: #d3d3d3; stroke-width: 3"/>
    <path d="M 221.063101 161.651421 
L 221.063101 119.348308 
" clip-path="url(#pb253a7d6c1)" style="fill: none; stroke: #d3d3d3; stroke-width: 3"/>
    <path d="M 324.339406 215.391756 
L 324.339406 193.436896 
" clip-path="url(#pb253a7d6c1)" style="fill: none; stroke: #d3d3d3; stroke-width: 3"/>
    <path d="M 237.158815 250.882346 
L 237.158815 202.536423 
" clip-path="url(#pb253a7d6c1)" style="fill: none; stroke: #d3d3d3; stroke-width: 3"/>
    <path d="M 392.879997 248.515118 
L 392.879997 227.236701 
" clip-path="url(#pb253a7d6c1)" style="fill: none; stroke: #d3d3d3; stroke-width: 3"/>
    <path d="M 117.80231 267.034934 
L 117.80231 223.172603 
" clip-path="url(#pb253a7d6c1)" style="fill: none; stroke: #d3d3d3; stroke-width: 3"/>
    <path d="M 261.275236 199.374028 
L 261.275236 171.976635 
" clip-path="url(#pb253a7d6c1)" style="fill: none; stroke: #d3d3d3; stroke-width: 3"/>
    <path d="M 284.266896 247.27028 
L 284.266896 230.770116 
" clip-path="url(#pb253a7d6c1)" style="fill: none; stroke: #d3d3d3; stroke-width: 3"/>
    <path d="M 358.376992 255.494737 
L 358.376992 224.483441 
" clip-path="url(#pb253a7d6c1)" style="fill: none; stroke: #d3d3d3; stroke-width: 3"/>
    <path d="M 247.995302 240.951862 
L 247.995302 191.798026 
" clip-path="url(#pb253a7d6c1)" style="fill: none; stroke: #d3d3d3; stroke-width: 3"/>
    <path d="M 210.180072 254.275672 
L 210.180072 222.311229 
" clip-path="url(#pb253a7d6c1)" style="fill: none; stroke: #d3d3d3; stroke-width: 3"/>
    <path d="M 180.695827 196.913886 
L 180.695827 165.155244 
" clip-path="url(#pb253a7d6c1)" style="fill: none; stroke: #d3d3d3; stroke-width: 3"/>
    <path d="M 410.84514 241.293435 
L 410.84514 212.813275 
" clip-path="url(#pb253a7d6c1)" style="fill: none; stroke: #d3d3d3; stroke-width: 3"/>
    <path d="M 214.648086 275.78699 
L 214.648086 227.020247 
" clip-path="url(#pb253a7d6c1)" style="fill: none; stroke: #d3d3d3; stroke-width: 3"/>
    <path d="M 237.251898 231.048067 
L 237.251898 216.771972 
" clip-path="url(#pb253a7d6c1)" style="fill: none; stroke: #d3d3d3; stroke-width: 3"/>
    <path d="M 306.343234 229.137502 
L 306.343234 187.523991 
" clip-path="url(#pb253a7d6c1)" style="fill: none; stroke: #d3d3d3; stroke-width: 3"/>
    <path d="M 276.62628 272.046671 
L 276.62628 231.309917 
" clip-path="url(#pb253a7d6c1)" style="fill: none; stroke: #d3d3d3; stroke-width: 3"/>
    <path d="M 135.565773 139.330282 
L 135.565773 121.472943 
" clip-path="url(#pb253a7d6c1)" style="fill: none; stroke: #d3d3d3; stroke-width: 3"/>
    <path d="M 197.799947 197.795321 
L 197.799947 172.070046 
" clip-path="url(#pb253a7d6c1)" style="fill: none; stroke: #d3d3d3; stroke-width: 3"/>
    <path d="M 225.321678 256.083644 
L 225.321678 227.618259 
" clip-path="url(#pb253a7d6c1)" style="fill: none; stroke: #d3d3d3; stroke-width: 3"/>
    <path d="M 201.872356 236.173328 
L 201.872356 211.189036 
" clip-path="url(#pb253a7d6c1)" style="fill: none; stroke: #d3d3d3; stroke-width: 3"/>
    <path d="M 172.985398 241.641432 
L 172.985398 213.117503 
" clip-path="url(#pb253a7d6c1)" style="fill: none; stroke: #d3d3d3; stroke-width: 3"/>
    <path d="M 279.535144 235.679626 
L 279.535144 230.98067 
" clip-path="url(#pb253a7d6c1)" style="fill: none; stroke: #d3d3d3; stroke-width: 3"/>
    <path d="M 242.976543 268.266982 
L 242.976543 232.778953 
" clip-path="url(#pb253a7d6c1)" style="fill: none; stroke: #d3d3d3; stroke-width: 3"/>
    <path d="M 216.602843 234.956251 
L 216.602843 212.681297 
" clip-path="url(#pb253a7d6c1)" style="fill: none; stroke: #d3d3d3; stroke-width: 3"/>
    <path d="M 125.12489 258.188139 
L 125.12489 207.90469 
" clip-path="url(#pb253a7d6c1)" style="fill: none; stroke: #d3d3d3; stroke-width: 3"/>
    <path d="M 162.350592 235.584756 
L 162.350592 207.814789 
" clip-path="url(#pb253a7d6c1)" style="fill: none; stroke: #d3d3d3; stroke-width: 3"/>
    <path d="M 245.908677 198.876089 
L 245.908677 165.039921 
" clip-path="url(#pb253a7d6c1)" style="fill: none; stroke: #d3d3d3; stroke-width: 3"/>
    <path d="M 329.98648 213.909875 
L 329.98648 173.039236 
" clip-path="url(#pb253a7d6c1)" style="fill: none; stroke: #d3d3d3; stroke-width: 3"/>
    <path d="M 156.470808 203.51093 
L 156.470808 179.540043 
" clip-path="url(#pb253a7d6c1)" style="fill: none; stroke: #d3d3d3; stroke-width: 3"/>
    <path d="M 368.554137 203.315922 
L 368.554137 180.724677 
" clip-path="url(#pb253a7d6c1)" style="fill: none; stroke: #d3d3d3; stroke-width: 3"/>
    <path d="M 221.621603 196.118844 
L 221.621603 168.45423 
" clip-path="url(#pb253a7d6c1)" style="fill: none; stroke: #d3d3d3; stroke-width: 3"/>
    <path d="M 309.47705 237.544858 
L 309.47705 196.850534 
" clip-path="url(#pb253a7d6c1)" style="fill: none; stroke: #d3d3d3; stroke-width: 3"/>
    <path d="M 199.273771 167.174391 
L 199.273771 59.884173 
" clip-path="url(#pb253a7d6c1)" style="fill: none; stroke: #d3d3d3; stroke-width: 3"/>
    <path d="M 239.881511 280.887622 
L 239.881511 256.031944 
" clip-path="url(#pb253a7d6c1)" style="fill: none; stroke: #d3d3d3; stroke-width: 3"/>
    <path d="M 236.778723 248.577673 
L 236.778723 214.777173 
" clip-path="url(#pb253a7d6c1)" style="fill: none; stroke: #d3d3d3; stroke-width: 3"/>
    <path d="M 182.495444 243.310315 
L 182.495444 207.579602 
" clip-path="url(#pb253a7d6c1)" style="fill: none; stroke: #d3d3d3; stroke-width: 3"/>
    <path d="M 171.154753 204.082646 
L 171.154753 182.875791 
" clip-path="url(#pb253a7d6c1)" style="fill: none; stroke: #d3d3d3; stroke-width: 3"/>
    <path d="M 198.063684 232.992347 
L 198.063684 208.471954 
" clip-path="url(#pb253a7d6c1)" style="fill: none; stroke: #d3d3d3; stroke-width: 3"/>
    <path d="M 266.56549 243.54739 
L 266.56549 209.209329 
" clip-path="url(#pb253a7d6c1)" style="fill: none; stroke: #d3d3d3; stroke-width: 3"/>
    <path d="M 230.728286 227.061871 
L 230.728286 207.310825 
" clip-path="url(#pb253a7d6c1)" style="fill: none; stroke: #d3d3d3; stroke-width: 3"/>
    <path d="M 220.357217 238.76574 
L 220.357217 214.216488 
" clip-path="url(#pb253a7d6c1)" style="fill: none; stroke: #d3d3d3; stroke-width: 3"/>
    <path d="M 267.94623 262.310071 
L 267.94623 229.396939 
" clip-path="url(#pb253a7d6c1)" style="fill: none; stroke: #d3d3d3; stroke-width: 3"/>
    <path d="M 377.916801 242.044955 
L 377.916801 201.149677 
" clip-path="url(#pb253a7d6c1)" style="fill: none; stroke: #d3d3d3; stroke-width: 3"/>
    <path d="M 232.015943 240.410816 
L 232.015943 199.372277 
" clip-path="url(#pb253a7d6c1)" style="fill: none; stroke: #d3d3d3; stroke-width: 3"/>
    <path d="M 309.430508 202.803185 
L 309.430508 175.105103 
" clip-path="url(#pb253a7d6c1)" style="fill: none; stroke: #d3d3d3; stroke-width: 3"/>
    <path d="M 246.257741 228.331096 
L 246.257741 124.9452 
" clip-path="url(#pb253a7d6c1)" style="fill: none; stroke: #d3d3d3; stroke-width: 3"/>
    <path d="M 296.104033 271.155763 
L 296.104033 229.656006 
" clip-path="url(#pb253a7d6c1)" style="fill: none; stroke: #d3d3d3; stroke-width: 3"/>
    <path d="M 301.409801 283.84326 
L 301.409801 192.191657 
" clip-path="url(#pb253a7d6c1)" style="fill: none; stroke: #d3d3d3; stroke-width: 3"/>
    <path d="M 323.501653 230.153982 
L 323.501653 209.161213 
" clip-path="url(#pb253a7d6c1)" style="fill: none; stroke: #d3d3d3; stroke-width: 3"/>
    <path d="M 431.719148 245.50156 
L 431.719148 187.316793 
" clip-path="url(#pb253a7d6c1)" style="fill: none; stroke: #d3d3d3; stroke-width: 3"/>
    <path d="M 200.35199 191.307946 
L 200.35199 163.417218 
" clip-path="url(#pb253a7d6c1)" style="fill: none; stroke: #d3d3d3; stroke-width: 3"/>
    <path d="M 66.102102 221.906942 
L 66.102102 199.217802 
" clip-path="url(#pb253a7d6c1)" style="fill: none; stroke: #d3d3d3; stroke-width: 3"/>
    <path d="M 347.34658 256.748707 
L 347.34658 239.657311 
" clip-path="url(#pb253a7d6c1)" style="fill: none; stroke: #d3d3d3; stroke-width: 3"/>
    <path d="M 217.642277 251.307249 
L 217.642277 196.951431 
" clip-path="url(#pb253a7d6c1)" style="fill: none; stroke: #d3d3d3; stroke-width: 3"/>
    <path d="M 187.568503 207.717422 
L 187.568503 182.404637 
" clip-path="url(#pb253a7d6c1)" style="fill: none; stroke: #d3d3d3; stroke-width: 3"/>
    <path d="M 303.17839 266.312174 
L 303.17839 220.201624 
" clip-path="url(#pb253a7d6c1)" style="fill: none; stroke: #d3d3d3; stroke-width: 3"/>
    <path d="M 178.252381 275.688149 
L 178.252381 225.101565 
" clip-path="url(#pb253a7d6c1)" style="fill: none; stroke: #d3d3d3; stroke-width: 3"/>
    <path d="M 99.581187 204.95398 
L 99.581187 200.922859 
" clip-path="url(#pb253a7d6c1)" style="fill: none; stroke: #d3d3d3; stroke-width: 3"/>
    <path d="M 297.740754 262.893042 
L 297.740754 222.802068 
" clip-path="url(#pb253a7d6c1)" style="fill: none; stroke: #d3d3d3; stroke-width: 3"/>
    <path d="M 307.956684 264.053833 
L 307.956684 233.396721 
" clip-path="url(#pb253a7d6c1)" style="fill: none; stroke: #d3d3d3; stroke-width: 3"/>
    <path d="M 243.744483 222.908373 
L 243.744483 199.262789 
" clip-path="url(#pb253a7d6c1)" style="fill: none; stroke: #d3d3d3; stroke-width: 3"/>
    <path d="M 192.090816 260.761088 
L 192.090816 221.127455 
" clip-path="url(#pb253a7d6c1)" style="fill: none; stroke: #d3d3d3; stroke-width: 3"/>
    <path d="M 272.809851 324.053355 
L 272.809851 177.593251 
" clip-path="url(#pb253a7d6c1)" style="fill: none; stroke: #d3d3d3; stroke-width: 3"/>
    <path d="M 271.188644 267.227943 
L 271.188644 233.798253 
" clip-path="url(#pb253a7d6c1)" style="fill: none; stroke: #d3d3d3; stroke-width: 3"/>
    <path d="M 364.334345 249.43573 
L 364.334345 220.984021 
" clip-path="url(#pb253a7d6c1)" style="fill: none; stroke: #d3d3d3; stroke-width: 3"/>
    <path d="M 354.203742 244.91594 
L 354.203742 225.466892 
" clip-path="url(#pb253a7d6c1)" style="fill: none; stroke: #d3d3d3; stroke-width: 3"/>
    <path d="M 219.589277 209.086687 
L 219.589277 189.494634 
" clip-path="url(#pb253a7d6c1)" style="fill: none; stroke: #d3d3d3; stroke-width: 3"/>
    <path d="M 241.98365 207.738791 
L 241.98365 156.581602 
" clip-path="url(#pb253a7d6c1)" style="fill: none; stroke: #d3d3d3; stroke-width: 3"/>
    <path d="M 294.389743 207.031024 
L 294.389743 187.418461 
" clip-path="url(#pb253a7d6c1)" style="fill: none; stroke: #d3d3d3; stroke-width: 3"/>
    <path d="M 207.387562 264.968933 
L 207.387562 184.956923 
" clip-path="url(#pb253a7d6c1)" style="fill: none; stroke: #d3d3d3; stroke-width: 3"/>
    <path d="M 174.242027 220.813292 
L 174.242027 190.401433 
" clip-path="url(#pb253a7d6c1)" style="fill: none; stroke: #d3d3d3; stroke-width: 3"/>
    <path d="M 221.280296 212.270716 
L 221.280296 183.54714 
" clip-path="url(#pb253a7d6c1)" style="fill: none; stroke: #d3d3d3; stroke-width: 3"/>
    <path d="M 266.774928 259.238079 
L 266.774928 227.941979 
" clip-path="url(#pb253a7d6c1)" style="fill: none; stroke: #d3d3d3; stroke-width: 3"/>
    <path d="M 331.281894 240.699336 
L 331.281894 210.314038 
" clip-path="url(#pb253a7d6c1)" style="fill: none; stroke: #d3d3d3; stroke-width: 3"/>
    <path d="M 190.516151 251.245681 
L 190.516151 221.870966 
" clip-path="url(#pb253a7d6c1)" style="fill: none; stroke: #d3d3d3; stroke-width: 3"/>
    <path d="M 253.913871 226.84356 
L 253.913871 207.646952 
" clip-path="url(#pb253a7d6c1)" style="fill: none; stroke: #d3d3d3; stroke-width: 3"/>
    <path d="M 214.888553 256.895347 
L 214.888553 200.13686 
" clip-path="url(#pb253a7d6c1)" style="fill: none; stroke: #d3d3d3; stroke-width: 3"/>
    <path d="M 314.100205 264.463236 
L 314.100205 231.027149 
" clip-path="url(#pb253a7d6c1)" style="fill: none; stroke: #d3d3d3; stroke-width: 3"/>
    <path d="M 295.460205 222.422296 
L 295.460205 196.559824 
" clip-path="url(#pb253a7d6c1)" style="fill: none; stroke: #d3d3d3; stroke-width: 3"/>
    <path d="M 255.628161 213.748391 
L 255.628161 195.730983 
" clip-path="url(#pb253a7d6c1)" style="fill: none; stroke: #d3d3d3; stroke-width: 3"/>
    <path d="M 284.685773 262.396156 
L 284.685773 219.45907 
" clip-path="url(#pb253a7d6c1)" style="fill: none; stroke: #d3d3d3; stroke-width: 3"/>
    <path d="M 139.110708 211.515549 
L 139.110708 193.25723 
" clip-path="url(#pb253a7d6c1)" style="fill: none; stroke: #d3d3d3; stroke-width: 3"/>
    <path d="M 229.906047 232.449042 
L 229.906047 203.720367 
" clip-path="url(#pb253a7d6c1)" style="fill: none; stroke: #d3d3d3; stroke-width: 3"/>
    <path d="M 146.73581 244.24982 
L 146.73581 218.378297 
" clip-path="url(#pb253a7d6c1)" style="fill: none; stroke: #d3d3d3; stroke-width: 3"/>
    <path d="M 159.620138 242.517363 
L 159.620138 200.356536 
" clip-path="url(#pb253a7d6c1)" style="fill: none; stroke: #d3d3d3; stroke-width: 3"/>
    <path d="M 206.743734 271.399554 
L 206.743734 229.27057 
" clip-path="url(#pb253a7d6c1)" style="fill: none; stroke: #d3d3d3; stroke-width: 3"/>
    <path d="M 155.982119 209.309952 
L 155.982119 185.612892 
" clip-path="url(#pb253a7d6c1)" style="fill: none; stroke: #d3d3d3; stroke-width: 3"/>
    <path d="M 266.131099 251.962683 
L 266.131099 206.584878 
" clip-path="url(#pb253a7d6c1)" style="fill: none; stroke: #d3d3d3; stroke-width: 3"/>
    <path d="M 302.224283 240.372583 
L 302.224283 215.692302 
" clip-path="url(#pb253a7d6c1)" style="fill: none; stroke: #d3d3d3; stroke-width: 3"/>
   </g>
   <g id="line2d_12">
    <path d="M 86.045273 203.963222 
L 173.039697 210.874182 
L 96.842976 204.821007 
L 104.00266 205.389782 
L 221.613846 214.732981 
L 259.878981 217.772818 
L 122.099672 206.827435 
L 133.168869 207.706787 
L 198.598915 212.904643 
L 347.137142 224.70473 
L 236.538257 215.918598 
L 363.419023 225.998185 
L 268.628844 218.467919 
L 281.551957 219.49455 
L 171.922693 210.785446 
L 250.958465 217.064159 
L 151.250367 209.143207 
L 217.145831 214.378036 
L 255.224799 217.403083 
L 191.191008 212.316148 
L 171.938207 210.786678 
L 254.743867 217.364877 
L 115.622602 206.312887 
L 196.915652 212.770922 
L 221.063101 214.689229 
L 324.339406 222.893645 
L 237.158815 215.967896 
L 392.879997 228.338607 
L 117.80231 206.486046 
L 261.275236 217.883738 
L 284.266896 219.710228 
L 358.376992 225.597639 
L 247.995302 216.828762 
L 210.180072 213.824666 
L 180.695827 211.482396 
L 410.84514 229.765783 
L 214.648086 214.179612 
L 237.251898 215.97529 
L 306.343234 221.464004 
L 276.62628 219.103247 
L 135.565773 207.897201 
L 197.799947 212.841172 
L 225.321678 215.027537 
L 201.872356 213.16469 
L 172.985398 210.869869 
L 279.535144 219.334331 
L 242.976543 216.430064 
L 216.602843 214.3349 
L 125.12489 207.067762 
L 162.350592 210.025025 
L 245.908677 216.662997 
L 329.98648 223.342257 
L 156.470808 209.557926 
L 368.554137 226.406126 
L 221.621603 214.733598 
L 309.47705 221.712959 
L 199.273771 212.958254 
L 239.881511 216.184191 
L 236.778723 215.937701 
L 182.495444 211.62536 
L 171.154753 210.72444 
L 198.063684 212.862123 
L 266.56549 218.304004 
L 230.728286 215.457045 
L 220.357217 214.633153 
L 267.94623 218.413692 
L 377.916801 227.149909 
L 232.015943 215.559339 
L 309.430508 221.709261 
L 246.257741 216.690727 
L 296.104033 220.650587 
L 301.409801 221.072085 
L 323.501653 222.827093 
L 431.719148 231.424044 
L 200.35199 213.04391 
L 66.102102 202.378909 
L 347.34658 224.721368 
L 217.642277 214.417474 
L 187.568503 212.028371 
L 303.17839 221.212584 
L 178.252381 211.288285 
L 99.581187 205.038534 
L 297.740754 220.780611 
L 307.956684 221.592179 
L 243.744483 216.49107 
L 192.090816 212.38763 
L 272.809851 218.800064 
L 271.188644 218.671273 
L 364.334345 226.0709 
L 354.203742 225.26611 
L 219.589277 214.572147 
L 241.98365 216.351187 
L 294.389743 220.514402 
L 207.387562 213.602825 
L 174.242027 210.969697 
L 221.280296 214.706484 
L 266.774928 218.320642 
L 331.281894 223.445166 
L 190.516151 212.262537 
L 253.913871 217.298941 
L 214.888553 214.198715 
L 314.100205 222.080229 
L 295.460205 220.599441 
L 255.628161 217.435127 
L 284.685773 219.743504 
L 139.110708 208.178815 
L 229.906047 215.391726 
L 146.73581 208.784564 
L 159.620138 209.808114 
L 206.743734 213.551679 
L 155.982119 209.519104 
L 266.131099 218.269495 
L 302.224283 221.136789 
" clip-path="url(#pb253a7d6c1)" style="fill: none; stroke: #1f77b4; stroke-width: 1.5; stroke-linecap: square"/>
   </g>
   <g id="line2d_13">
    <defs>
     <path id="m305e3cff59" d="M 0 3 
C 0.795609 3 1.55874 2.683901 2.12132 2.12132 
C 2.683901 1.55874 3 0.795609 3 0 
C 3 -0.795609 2.683901 -1.55874 2.12132 -2.12132 
C 1.55874 -2.683901 0.795609 -3 0 -3 
C -0.795609 -3 -1.55874 -2.683901 -2.12132 -2.12132 
C -2.683901 -1.55874 -3 -0.795609 -3 0 
C -3 0.795609 -2.683901 1.55874 -2.12132 2.12132 
C -1.55874 2.683901 -0.795609 3 0 3 
z
" style="stroke: #000000"/>
    </defs>
    <g clip-path="url(#pb253a7d6c1)">
     <use xlink:href="#m305e3cff59" x="86.045273" y="199.861846" style="stroke: #000000"/>
     <use xlink:href="#m305e3cff59" x="173.039697" y="226.902492" style="stroke: #000000"/>
     <use xlink:href="#m305e3cff59" x="96.842976" y="209.104284" style="stroke: #000000"/>
     <use xlink:href="#m305e3cff59" x="104.00266" y="211.910456" style="stroke: #000000"/>
     <use xlink:href="#m305e3cff59" x="221.613846" y="197.572336" style="stroke: #000000"/>
     <use xlink:href="#m305e3cff59" x="259.878981" y="218.630575" style="stroke: #000000"/>
     <use xlink:href="#m305e3cff59" x="122.099672" y="181.871913" style="stroke: #000000"/>
     <use xlink:href="#m305e3cff59" x="133.168869" y="228.932968" style="stroke: #000000"/>
     <use xlink:href="#m305e3cff59" x="198.598915" y="165.240059" style="stroke: #000000"/>
     <use xlink:href="#m305e3cff59" x="347.137142" y="229.75216" style="stroke: #000000"/>
     <use xlink:href="#m305e3cff59" x="236.538257" y="196.099221" style="stroke: #000000"/>
     <use xlink:href="#m305e3cff59" x="363.419023" y="166.845979" style="stroke: #000000"/>
     <use xlink:href="#m305e3cff59" x="268.628844" y="205.733495" style="stroke: #000000"/>
     <use xlink:href="#m305e3cff59" x="281.551957" y="204.467128" style="stroke: #000000"/>
     <use xlink:href="#m305e3cff59" x="171.922693" y="209.929962" style="stroke: #000000"/>
     <use xlink:href="#m305e3cff59" x="250.958465" y="203.826461" style="stroke: #000000"/>
     <use xlink:href="#m305e3cff59" x="151.250367" y="190.60891" style="stroke: #000000"/>
     <use xlink:href="#m305e3cff59" x="217.145831" y="195.302492" style="stroke: #000000"/>
     <use xlink:href="#m305e3cff59" x="255.224799" y="235.775152" style="stroke: #000000"/>
     <use xlink:href="#m305e3cff59" x="191.191008" y="238.660227" style="stroke: #000000"/>
     <use xlink:href="#m305e3cff59" x="171.938207" y="180.038461" style="stroke: #000000"/>
     <use xlink:href="#m305e3cff59" x="254.743867" y="207.257642" style="stroke: #000000"/>
     <use xlink:href="#m305e3cff59" x="115.622602" y="209.436133" style="stroke: #000000"/>
     <use xlink:href="#m305e3cff59" x="196.915652" y="232.50945" style="stroke: #000000"/>
     <use xlink:href="#m305e3cff59" x="221.063101" y="140.499864" style="stroke: #000000"/>
     <use xlink:href="#m305e3cff59" x="324.339406" y="204.414326" style="stroke: #000000"/>
     <use xlink:href="#m305e3cff59" x="237.158815" y="226.709385" style="stroke: #000000"/>
     <use xlink:href="#m305e3cff59" x="392.879997" y="237.875909" style="stroke: #000000"/>
     <use xlink:href="#m305e3cff59" x="117.80231" y="245.103768" style="stroke: #000000"/>
     <use xlink:href="#m305e3cff59" x="261.275236" y="185.675332" style="stroke: #000000"/>
     <use xlink:href="#m305e3cff59" x="284.266896" y="239.020198" style="stroke: #000000"/>
     <use xlink:href="#m305e3cff59" x="358.376992" y="239.989089" style="stroke: #000000"/>
     <use xlink:href="#m305e3cff59" x="247.995302" y="216.374944" style="stroke: #000000"/>
     <use xlink:href="#m305e3cff59" x="210.180072" y="238.293451" style="stroke: #000000"/>
     <use xlink:href="#m305e3cff59" x="180.695827" y="181.034565" style="stroke: #000000"/>
     <use xlink:href="#m305e3cff59" x="410.84514" y="227.053355" style="stroke: #000000"/>
     <use xlink:href="#m305e3cff59" x="214.648086" y="251.403619" style="stroke: #000000"/>
     <use xlink:href="#m305e3cff59" x="237.251898" y="223.910019" style="stroke: #000000"/>
     <use xlink:href="#m305e3cff59" x="306.343234" y="208.330747" style="stroke: #000000"/>
     <use xlink:href="#m305e3cff59" x="276.62628" y="251.678294" style="stroke: #000000"/>
     <use xlink:href="#m305e3cff59" x="135.565773" y="130.401612" style="stroke: #000000"/>
     <use xlink:href="#m305e3cff59" x="197.799947" y="184.932683" style="stroke: #000000"/>
     <use xlink:href="#m305e3cff59" x="225.321678" y="241.850952" style="stroke: #000000"/>
     <use xlink:href="#m305e3cff59" x="201.872356" y="223.681182" style="stroke: #000000"/>
     <use xlink:href="#m305e3cff59" x="172.985398" y="227.379467" style="stroke: #000000"/>
     <use xlink:href="#m305e3cff59" x="279.535144" y="233.330148" style="stroke: #000000"/>
     <use xlink:href="#m305e3cff59" x="242.976543" y="250.522967" style="stroke: #000000"/>
     <use xlink:href="#m305e3cff59" x="216.602843" y="223.818774" style="stroke: #000000"/>
     <use xlink:href="#m305e3cff59" x="125.12489" y="233.046415" style="stroke: #000000"/>
     <use xlink:href="#m305e3cff59" x="162.350592" y="221.699772" style="stroke: #000000"/>
     <use xlink:href="#m305e3cff59" x="245.908677" y="181.958005" style="stroke: #000000"/>
     <use xlink:href="#m305e3cff59" x="329.98648" y="193.474555" style="stroke: #000000"/>
     <use xlink:href="#m305e3cff59" x="156.470808" y="191.525486" style="stroke: #000000"/>
     <use xlink:href="#m305e3cff59" x="368.554137" y="192.020299" style="stroke: #000000"/>
     <use xlink:href="#m305e3cff59" x="221.621603" y="182.286537" style="stroke: #000000"/>
     <use xlink:href="#m305e3cff59" x="309.47705" y="217.197696" style="stroke: #000000"/>
     <use xlink:href="#m305e3cff59" x="199.273771" y="113.529282" style="stroke: #000000"/>
     <use xlink:href="#m305e3cff59" x="239.881511" y="268.459783" style="stroke: #000000"/>
     <use xlink:href="#m305e3cff59" x="236.778723" y="231.677423" style="stroke: #000000"/>
     <use xlink:href="#m305e3cff59" x="182.495444" y="225.444959" style="stroke: #000000"/>
     <use xlink:href="#m305e3cff59" x="171.154753" y="193.479218" style="stroke: #000000"/>
     <use xlink:href="#m305e3cff59" x="198.063684" y="220.73215" style="stroke: #000000"/>
     <use xlink:href="#m305e3cff59" x="266.56549" y="226.378359" style="stroke: #000000"/>
     <use xlink:href="#m305e3cff59" x="230.728286" y="217.186348" style="stroke: #000000"/>
     <use xlink:href="#m305e3cff59" x="220.357217" y="226.491114" style="stroke: #000000"/>
     <use xlink:href="#m305e3cff59" x="267.94623" y="245.853505" style="stroke: #000000"/>
     <use xlink:href="#m305e3cff59" x="377.916801" y="221.597316" style="stroke: #000000"/>
     <use xlink:href="#m305e3cff59" x="232.015943" y="219.891547" style="stroke: #000000"/>
     <use xlink:href="#m305e3cff59" x="309.430508" y="188.954144" style="stroke: #000000"/>
     <use xlink:href="#m305e3cff59" x="246.257741" y="176.638148" style="stroke: #000000"/>
     <use xlink:href="#m305e3cff59" x="296.104033" y="250.405884" style="stroke: #000000"/>
     <use xlink:href="#m305e3cff59" x="301.409801" y="238.017459" style="stroke: #000000"/>
     <use xlink:href="#m305e3cff59" x="323.501653" y="219.657598" style="stroke: #000000"/>
     <use xlink:href="#m305e3cff59" x="431.719148" y="216.409176" style="stroke: #000000"/>
     <use xlink:href="#m305e3cff59" x="200.35199" y="177.362582" style="stroke: #000000"/>
     <use xlink:href="#m305e3cff59" x="66.102102" y="210.562372" style="stroke: #000000"/>
     <use xlink:href="#m305e3cff59" x="347.34658" y="248.203009" style="stroke: #000000"/>
     <use xlink:href="#m305e3cff59" x="217.642277" y="224.12934" style="stroke: #000000"/>
     <use xlink:href="#m305e3cff59" x="187.568503" y="195.06103" style="stroke: #000000"/>
     <use xlink:href="#m305e3cff59" x="303.17839" y="243.256899" style="stroke: #000000"/>
     <use xlink:href="#m305e3cff59" x="178.252381" y="250.394857" style="stroke: #000000"/>
     <use xlink:href="#m305e3cff59" x="99.581187" y="202.93842" style="stroke: #000000"/>
     <use xlink:href="#m305e3cff59" x="297.740754" y="242.847555" style="stroke: #000000"/>
     <use xlink:href="#m305e3cff59" x="307.956684" y="248.725277" style="stroke: #000000"/>
     <use xlink:href="#m305e3cff59" x="243.744483" y="211.085581" style="stroke: #000000"/>
     <use xlink:href="#m305e3cff59" x="192.090816" y="240.944272" style="stroke: #000000"/>
     <use xlink:href="#m305e3cff59" x="272.809851" y="250.823303" style="stroke: #000000"/>
     <use xlink:href="#m305e3cff59" x="271.188644" y="250.513098" style="stroke: #000000"/>
     <use xlink:href="#m305e3cff59" x="364.334345" y="235.209875" style="stroke: #000000"/>
     <use xlink:href="#m305e3cff59" x="354.203742" y="235.191416" style="stroke: #000000"/>
     <use xlink:href="#m305e3cff59" x="219.589277" y="199.290661" style="stroke: #000000"/>
     <use xlink:href="#m305e3cff59" x="241.98365" y="182.160197" style="stroke: #000000"/>
     <use xlink:href="#m305e3cff59" x="294.389743" y="197.224742" style="stroke: #000000"/>
     <use xlink:href="#m305e3cff59" x="207.387562" y="224.962928" style="stroke: #000000"/>
     <use xlink:href="#m305e3cff59" x="174.242027" y="205.607363" style="stroke: #000000"/>
     <use xlink:href="#m305e3cff59" x="221.280296" y="197.908928" style="stroke: #000000"/>
     <use xlink:href="#m305e3cff59" x="266.774928" y="243.590029" style="stroke: #000000"/>
     <use xlink:href="#m305e3cff59" x="331.281894" y="225.506687" style="stroke: #000000"/>
     <use xlink:href="#m305e3cff59" x="190.516151" y="236.558323" style="stroke: #000000"/>
     <use xlink:href="#m305e3cff59" x="253.913871" y="217.245256" style="stroke: #000000"/>
     <use xlink:href="#m305e3cff59" x="214.888553" y="228.516103" style="stroke: #000000"/>
     <use xlink:href="#m305e3cff59" x="314.100205" y="247.745192" style="stroke: #000000"/>
     <use xlink:href="#m305e3cff59" x="295.460205" y="209.49106" style="stroke: #000000"/>
     <use xlink:href="#m305e3cff59" x="255.628161" y="204.739687" style="stroke: #000000"/>
     <use xlink:href="#m305e3cff59" x="284.685773" y="240.927613" style="stroke: #000000"/>
     <use xlink:href="#m305e3cff59" x="139.110708" y="202.386389" style="stroke: #000000"/>
     <use xlink:href="#m305e3cff59" x="229.906047" y="218.084704" style="stroke: #000000"/>
     <use xlink:href="#m305e3cff59" x="146.73581" y="231.314058" style="stroke: #000000"/>
     <use xlink:href="#m305e3cff59" x="159.620138" y="221.43695" style="stroke: #000000"/>
     <use xlink:href="#m305e3cff59" x="206.743734" y="250.335062" style="stroke: #000000"/>
     <use xlink:href="#m305e3cff59" x="155.982119" y="197.461422" style="stroke: #000000"/>
     <use xlink:href="#m305e3cff59" x="266.131099" y="229.273781" style="stroke: #000000"/>
     <use xlink:href="#m305e3cff59" x="302.224283" y="228.032443" style="stroke: #000000"/>
    </g>
   </g>
   <g id="patch_3">
    <path d="M 47.82125 303.64 
L 47.82125 46.675714 
" style="fill: none; stroke: #000000; stroke-width: 0.8; stroke-linejoin: miter; stroke-linecap: square"/>
   </g>
   <g id="patch_4">
    <path d="M 450 303.64 
L 450 46.675714 
" style="fill: none; stroke: #000000; stroke-width: 0.8; stroke-linejoin: miter; stroke-linecap: square"/>
   </g>
   <g id="patch_5">
    <path d="M 47.82125 303.64 
L 450 303.64 
" style="fill: none; stroke: #000000; stroke-width: 0.8; stroke-linejoin: miter; stroke-linecap: square"/>
   </g>
   <g id="patch_6">
    <path d="M 47.82125 46.675714 
L 450 46.675714 
" style="fill: none; stroke: #000000; stroke-width: 0.8; stroke-linejoin: miter; stroke-linecap: square"/>
   </g>
   <g id="text_14">
    <!-- y = -0.00x + 0.23 -->
    <g transform="translate(43.314906 18.599375)scale(0.1 -0.1)">
     <defs>
      <path id="DejaVuSans-79" d="M 2059 -325 
Q 1816 -950 1584 -1140 
Q 1353 -1331 966 -1331 
L 506 -1331 
L 506 -850 
L 844 -850 
Q 1081 -850 1212 -737 
Q 1344 -625 1503 -206 
L 1606 56 
L 191 3500 
L 800 3500 
L 1894 763 
L 2988 3500 
L 3597 3500 
L 2059 -325 
z
" transform="scale(0.015625)"/>
      <path id="DejaVuSans-20" transform="scale(0.015625)"/>
      <path id="DejaVuSans-3d" d="M 678 2906 
L 4684 2906 
L 4684 2381 
L 678 2381 
L 678 2906 
z
M 678 1631 
L 4684 1631 
L 4684 1100 
L 678 1100 
L 678 1631 
z
" transform="scale(0.015625)"/>
      <path id="DejaVuSans-2d" d="M 313 2009 
L 1997 2009 
L 1997 1497 
L 313 1497 
L 313 2009 
z
" transform="scale(0.015625)"/>
      <path id="DejaVuSans-78" d="M 3513 3500 
L 2247 1797 
L 3578 0 
L 2900 0 
L 1881 1375 
L 863 0 
L 184 0 
L 1544 1831 
L 300 3500 
L 978 3500 
L 1906 2253 
L 2834 3500 
L 3513 3500 
z
" transform="scale(0.015625)"/>
      <path id="DejaVuSans-2b" d="M 2944 4013 
L 2944 2272 
L 4684 2272 
L 4684 1741 
L 2944 1741 
L 2944 0 
L 2419 0 
L 2419 1741 
L 678 1741 
L 678 2272 
L 2419 2272 
L 2419 4013 
L 2944 4013 
z
" transform="scale(0.015625)"/>
      <path id="DejaVuSans-33" d="M 2597 2516 
Q 3050 2419 3304 2112 
Q 3559 1806 3559 1356 
Q 3559 666 3084 287 
Q 2609 -91 1734 -91 
Q 1441 -91 1130 -33 
Q 819 25 488 141 
L 488 750 
Q 750 597 1062 519 
Q 1375 441 1716 441 
Q 2309 441 2620 675 
Q 2931 909 2931 1356 
Q 2931 1769 2642 2001 
Q 2353 2234 1838 2234 
L 1294 2234 
L 1294 2753 
L 1863 2753 
Q 2328 2753 2575 2939 
Q 2822 3125 2822 3475 
Q 2822 3834 2567 4026 
Q 2313 4219 1838 4219 
Q 1578 4219 1281 4162 
Q 984 4106 628 3988 
L 628 4550 
Q 988 4650 1302 4700 
Q 1616 4750 1894 4750 
Q 2613 4750 3031 4423 
Q 3450 4097 3450 3541 
Q 3450 3153 3228 2886 
Q 3006 2619 2597 2516 
z
" transform="scale(0.015625)"/>
     </defs>
     <use xlink:href="#DejaVuSans-79"/>
     <use xlink:href="#DejaVuSans-20" x="59.179688"/>
     <use xlink:href="#DejaVuSans-3d" x="90.966797"/>
     <use xlink:href="#DejaVuSans-20" x="174.755859"/>
     <use xlink:href="#DejaVuSans-2d" x="206.542969"/>
     <use xlink:href="#DejaVuSans-30" x="242.626953"/>
     <use xlink:href="#DejaVuSans-2e" x="306.25"/>
     <use xlink:href="#DejaVuSans-30" x="338.037109"/>
     <use xlink:href="#DejaVuSans-30" x="401.660156"/>
     <use xlink:href="#DejaVuSans-78" x="465.283203"/>
     <use xlink:href="#DejaVuSans-20" x="524.462891"/>
     <use xlink:href="#DejaVuSans-2b" x="556.25"/>
     <use xlink:href="#DejaVuSans-20" x="640.039062"/>
     <use xlink:href="#DejaVuSans-30" x="671.826172"/>
     <use xlink:href="#DejaVuSans-2e" x="735.449219"/>
     <use xlink:href="#DejaVuSans-32" x="767.236328"/>
     <use xlink:href="#DejaVuSans-33" x="830.859375"/>
    </g>
   </g>
   <g id="text_15">
    <!-- r^2 = 0.05 -->
    <g transform="translate(60.111781 26.308304)scale(0.1 -0.1)">
     <defs>
      <path id="DejaVuSans-5e" d="M 2988 4666 
L 4684 2925 
L 4056 2925 
L 2681 4159 
L 1306 2925 
L 678 2925 
L 2375 4666 
L 2988 4666 
z
" transform="scale(0.015625)"/>
     </defs>
     <use xlink:href="#DejaVuSans-72"/>
     <use xlink:href="#DejaVuSans-5e" x="41.113281"/>
     <use xlink:href="#DejaVuSans-32" x="124.902344"/>
     <use xlink:href="#DejaVuSans-20" x="188.525391"/>
     <use xlink:href="#DejaVuSans-3d" x="220.3125"/>
     <use xlink:href="#DejaVuSans-20" x="304.101562"/>
     <use xlink:href="#DejaVuSans-30" x="335.888672"/>
     <use xlink:href="#DejaVuSans-2e" x="399.511719"/>
     <use xlink:href="#DejaVuSans-30" x="431.298828"/>
     <use xlink:href="#DejaVuSans-35" x="494.921875"/>
    </g>
   </g>
   <g id="text_16">
    <!-- n = 113 -->
    <g transform="translate(67.958656 34.017232)scale(0.1 -0.1)">
     <use xlink:href="#DejaVuSans-6e"/>
     <use xlink:href="#DejaVuSans-20" x="63.378906"/>
     <use xlink:href="#DejaVuSans-3d" x="95.166016"/>
     <use xlink:href="#DejaVuSans-20" x="178.955078"/>
     <use xlink:href="#DejaVuSans-31" x="210.742188"/>
     <use xlink:href="#DejaVuSans-31" x="274.365234"/>
     <use xlink:href="#DejaVuSans-33" x="337.988281"/>
    </g>
   </g>
   <g id="text_17">
    <!-- SasaDiff vs PercentGpA_transformed -->
    <g transform="translate(138.574375 40.675714)scale(0.12 -0.12)">
     <defs>
      <path id="DejaVuSans-76" d="M 191 3500 
L 800 3500 
L 1894 563 
L 2988 3500 
L 3597 3500 
L 2284 0 
L 1503 0 
L 191 3500 
z
" transform="scale(0.015625)"/>
     </defs>
     <use xlink:href="#DejaVuSans-53"/>
     <use xlink:href="#DejaVuSans-61" x="63.476562"/>
     <use xlink:href="#DejaVuSans-73" x="124.755859"/>
     <use xlink:href="#DejaVuSans-61" x="176.855469"/>
     <use xlink:href="#DejaVuSans-44" x="238.134766"/>
     <use xlink:href="#DejaVuSans-69" x="315.136719"/>
     <use xlink:href="#DejaVuSans-66" x="342.919922"/>
     <use xlink:href="#DejaVuSans-66" x="378.125"/>
     <use xlink:href="#DejaVuSans-20" x="413.330078"/>
     <use xlink:href="#DejaVuSans-76" x="445.117188"/>
     <use xlink:href="#DejaVuSans-73" x="504.296875"/>
     <use xlink:href="#DejaVuSans-20" x="556.396484"/>
     <use xlink:href="#DejaVuSans-50" x="588.183594"/>
     <use xlink:href="#DejaVuSans-65" x="644.861328"/>
     <use xlink:href="#DejaVuSans-72" x="706.384766"/>
     <use xlink:href="#DejaVuSans-63" x="745.248047"/>
     <use xlink:href="#DejaVuSans-65" x="800.228516"/>
     <use xlink:href="#DejaVuSans-6e" x="861.751953"/>
     <use xlink:href="#DejaVuSans-74" x="925.130859"/>
     <use xlink:href="#DejaVuSans-47" x="964.339844"/>
     <use xlink:href="#DejaVuSans-70" x="1041.830078"/>
     <use xlink:href="#DejaVuSans-41" x="1105.306641"/>
     <use xlink:href="#DejaVuSans-5f" x="1173.714844"/>
     <use xlink:href="#DejaVuSans-74" x="1223.714844"/>
     <use xlink:href="#DejaVuSans-72" x="1262.923828"/>
     <use xlink:href="#DejaVuSans-61" x="1304.037109"/>
     <use xlink:href="#DejaVuSans-6e" x="1365.316406"/>
     <use xlink:href="#DejaVuSans-73" x="1428.695312"/>
     <use xlink:href="#DejaVuSans-66" x="1480.794922"/>
     <use xlink:href="#DejaVuSans-6f" x="1516"/>
     <use xlink:href="#DejaVuSans-72" x="1577.181641"/>
     <use xlink:href="#DejaVuSans-6d" x="1616.544922"/>
     <use xlink:href="#DejaVuSans-65" x="1713.957031"/>
     <use xlink:href="#DejaVuSans-64" x="1775.480469"/>
    </g>
   </g>
  </g>
 </g>
 <defs>
  <clipPath id="pb253a7d6c1">
   <rect x="47.82125" y="46.675714" width="402.17875" height="256.964286"/>
  </clipPath>
 </defs>
</svg>
