<?xml version="1.0" encoding="utf-8" standalone="no"?>
<!DOCTYPE svg PUBLIC "-//W3C//DTD SVG 1.1//EN"
  "http://www.w3.org/Graphics/SVG/1.1/DTD/svg11.dtd">
<svg xmlns:xlink="http://www.w3.org/1999/xlink" width="460.8pt" height="345.6pt" viewBox="0 0 460.8 345.6" xmlns="http://www.w3.org/2000/svg" version="1.1">
 <metadata>
  <rdf:RDF xmlns:dc="http://purl.org/dc/elements/1.1/" xmlns:cc="http://creativecommons.org/ns#" xmlns:rdf="http://www.w3.org/1999/02/22-rdf-syntax-ns#">
   <cc:Work>
    <dc:type rdf:resource="http://purl.org/dc/dcmitype/StillImage"/>
    <dc:date>2024-02-24T17:21:01.623512</dc:date>
    <dc:format>image/svg+xml</dc:format>
    <dc:creator>
     <cc:Agent>
      <dc:title>Matplotlib v3.5.3, https://matplotlib.org/</dc:title>
     </cc:Agent>
    </dc:creator>
   </cc:Work>
  </rdf:RDF>
 </metadata>
 <defs>
  <style type="text/css">*{stroke-linejoin: round; stroke-linecap: butt}</style>
 </defs>
 <g id="figure_1">
  <g id="patch_1">
   <path d="M 0 345.6 
L 460.8 345.6 
L 460.8 0 
L 0 0 
z
" style="fill: #ffffff"/>
  </g>
  <g id="axes_1">
   <g id="patch_2">
    <path d="M 54.12125 303.64 
L 401.26 303.64 
L 401.26 47.77344 
L 54.12125 47.77344 
z
" style="fill: #ffffff"/>
   </g>
   <g id="PathCollection_1">
    <defs>
     <path id="m6855bcfcaa" d="M 0 3 
C 0.795609 3 1.55874 2.683901 2.12132 2.12132 
C 2.683901 1.55874 3 0.795609 3 0 
C 3 -0.795609 2.683901 -1.55874 2.12132 -2.12132 
C 1.55874 -2.683901 0.795609 -3 0 -3 
C -0.795609 -3 -1.55874 -2.683901 -2.12132 -2.12132 
C -2.683901 -1.55874 -3 -0.795609 -3 0 
C -3 0.795609 -2.683901 1.55874 -2.12132 2.12132 
C -1.55874 2.683901 -0.795609 3 0 3 
z
" style="stroke: #3cb371"/>
    </defs>
    <g clip-path="url(#pb6bbbe4de4)">
     <use xlink:href="#m6855bcfcaa" x="69.900284" y="175.397118" style="fill: #3cb371; stroke: #3cb371"/>
     <use xlink:href="#m6855bcfcaa" x="120.809249" y="156.336958" style="fill: #3cb371; stroke: #3cb371"/>
     <use xlink:href="#m6855bcfcaa" x="129.428465" y="178.168333" style="fill: #3cb371; stroke: #3cb371"/>
     <use xlink:href="#m6855bcfcaa" x="139.945925" y="195.303134" style="fill: #3cb371; stroke: #3cb371"/>
     <use xlink:href="#m6855bcfcaa" x="167.523905" y="205.715255" style="fill: #3cb371; stroke: #3cb371"/>
     <use xlink:href="#m6855bcfcaa" x="173.559953" y="162.681936" style="fill: #3cb371; stroke: #3cb371"/>
     <use xlink:href="#m6855bcfcaa" x="182.427331" y="271.706821" style="fill: #3cb371; stroke: #3cb371"/>
     <use xlink:href="#m6855bcfcaa" x="186.084084" y="186.917525" style="fill: #3cb371; stroke: #3cb371"/>
     <use xlink:href="#m6855bcfcaa" x="190.437216" y="164.239384" style="fill: #3cb371; stroke: #3cb371"/>
     <use xlink:href="#m6855bcfcaa" x="192.818037" y="185.315949" style="fill: #3cb371; stroke: #3cb371"/>
     <use xlink:href="#m6855bcfcaa" x="192.887523" y="159.711376" style="fill: #3cb371; stroke: #3cb371"/>
     <use xlink:href="#m6855bcfcaa" x="197.630077" y="277.07751" style="fill: #3cb371; stroke: #3cb371"/>
     <use xlink:href="#m6855bcfcaa" x="207.252629" y="157.528866" style="fill: #3cb371; stroke: #3cb371"/>
     <use xlink:href="#m6855bcfcaa" x="234.381628" y="207.718823" style="fill: #3cb371; stroke: #3cb371"/>
     <use xlink:href="#m6855bcfcaa" x="236.989994" y="195.578129" style="fill: #3cb371; stroke: #3cb371"/>
     <use xlink:href="#m6855bcfcaa" x="238.517141" y="280.673278" style="fill: #3cb371; stroke: #3cb371"/>
     <use xlink:href="#m6855bcfcaa" x="239.428848" y="184.707071" style="fill: #3cb371; stroke: #3cb371"/>
     <use xlink:href="#m6855bcfcaa" x="239.986256" y="167.333219" style="fill: #3cb371; stroke: #3cb371"/>
     <use xlink:href="#m6855bcfcaa" x="243.475787" y="279.155505" style="fill: #3cb371; stroke: #3cb371"/>
     <use xlink:href="#m6855bcfcaa" x="249.255274" y="197.112469" style="fill: #3cb371; stroke: #3cb371"/>
     <use xlink:href="#m6855bcfcaa" x="257.881362" y="177.373151" style="fill: #3cb371; stroke: #3cb371"/>
     <use xlink:href="#m6855bcfcaa" x="261.209779" y="154.464106" style="fill: #3cb371; stroke: #3cb371"/>
     <use xlink:href="#m6855bcfcaa" x="261.294535" y="178.708676" style="fill: #3cb371; stroke: #3cb371"/>
     <use xlink:href="#m6855bcfcaa" x="261.5007" y="216.473423" style="fill: #3cb371; stroke: #3cb371"/>
     <use xlink:href="#m6855bcfcaa" x="267.881119" y="228.56665" style="fill: #3cb371; stroke: #3cb371"/>
     <use xlink:href="#m6855bcfcaa" x="267.965112" y="243.566388" style="fill: #3cb371; stroke: #3cb371"/>
     <use xlink:href="#m6855bcfcaa" x="268.82795" y="233.620988" style="fill: #3cb371; stroke: #3cb371"/>
     <use xlink:href="#m6855bcfcaa" x="269.892372" y="214.638599" style="fill: #3cb371; stroke: #3cb371"/>
     <use xlink:href="#m6855bcfcaa" x="275.556559" y="144.094945" style="fill: #3cb371; stroke: #3cb371"/>
     <use xlink:href="#m6855bcfcaa" x="302.894014" y="179.779343" style="fill: #3cb371; stroke: #3cb371"/>
     <use xlink:href="#m6855bcfcaa" x="316.523799" y="157.533688" style="fill: #3cb371; stroke: #3cb371"/>
     <use xlink:href="#m6855bcfcaa" x="344.74318" y="265.796167" style="fill: #3cb371; stroke: #3cb371"/>
     <use xlink:href="#m6855bcfcaa" x="377.408697" y="157.930868" style="fill: #3cb371; stroke: #3cb371"/>
    </g>
   </g>
   <g id="PathCollection_2">
    <defs>
     <path id="ma5dddf0c14" d="M 0 3 
C 0.795609 3 1.55874 2.683901 2.12132 2.12132 
C 2.683901 1.55874 3 0.795609 3 0 
C 3 -0.795609 2.683901 -1.55874 2.12132 -2.12132 
C 1.55874 -2.683901 0.795609 -3 0 -3 
C -0.795609 -3 -1.55874 -2.683901 -2.12132 -2.12132 
C -2.683901 -1.55874 -3 -0.795609 -3 0 
C -3 0.795609 -2.683901 1.55874 -2.12132 2.12132 
C -1.55874 2.683901 -0.795609 3 0 3 
z
" style="stroke: #ffdead"/>
    </defs>
    <g clip-path="url(#pb6bbbe4de4)">
     <use xlink:href="#ma5dddf0c14" x="239.80758" y="274.35768" style="fill: #ffdead; stroke: #ffdead"/>
     <use xlink:href="#ma5dddf0c14" x="243.601776" y="278.079812" style="fill: #ffdead; stroke: #ffdead"/>
     <use xlink:href="#ma5dddf0c14" x="273.561342" y="259.833334" style="fill: #ffdead; stroke: #ffdead"/>
     <use xlink:href="#ma5dddf0c14" x="287.169747" y="223.511703" style="fill: #ffdead; stroke: #ffdead"/>
     <use xlink:href="#ma5dddf0c14" x="318.269327" y="252.842206" style="fill: #ffdead; stroke: #ffdead"/>
     <use xlink:href="#ma5dddf0c14" x="322.213184" y="251.093103" style="fill: #ffdead; stroke: #ffdead"/>
     <use xlink:href="#ma5dddf0c14" x="325.62712" y="269.767591" style="fill: #ffdead; stroke: #ffdead"/>
     <use xlink:href="#ma5dddf0c14" x="345.719791" y="248.033798" style="fill: #ffdead; stroke: #ffdead"/>
     <use xlink:href="#ma5dddf0c14" x="370.682532" y="260.341464" style="fill: #ffdead; stroke: #ffdead"/>
     <use xlink:href="#ma5dddf0c14" x="382.27999" y="273.303301" style="fill: #ffdead; stroke: #ffdead"/>
     <use xlink:href="#ma5dddf0c14" x="385.480966" y="235.268367" style="fill: #ffdead; stroke: #ffdead"/>
    </g>
   </g>
   <g id="PathCollection_3">
    <defs>
     <path id="mb7fbd8d608" d="M 0 3 
C 0.795609 3 1.55874 2.683901 2.12132 2.12132 
C 2.683901 1.55874 3 0.795609 3 0 
C 3 -0.795609 2.683901 -1.55874 2.12132 -2.12132 
C 1.55874 -2.683901 0.795609 -3 0 -3 
C -0.795609 -3 -1.55874 -2.683901 -2.12132 -2.12132 
C -2.683901 -1.55874 -3 -0.795609 -3 0 
C -3 0.795609 -2.683901 1.55874 -2.12132 2.12132 
C -1.55874 2.683901 -0.795609 3 0 3 
z
" style="stroke: #483d8b"/>
    </defs>
    <g clip-path="url(#pb6bbbe4de4)">
     <use xlink:href="#mb7fbd8d608" x="313.564952" y="254.448901" style="fill: #483d8b; stroke: #483d8b"/>
     <use xlink:href="#mb7fbd8d608" x="327.122197" y="250.702339" style="fill: #483d8b; stroke: #483d8b"/>
     <use xlink:href="#mb7fbd8d608" x="339.947176" y="223.045027" style="fill: #483d8b; stroke: #483d8b"/>
     <use xlink:href="#mb7fbd8d608" x="341.559079" y="274.721758" style="fill: #483d8b; stroke: #483d8b"/>
     <use xlink:href="#mb7fbd8d608" x="343.162583" y="238.768894" style="fill: #483d8b; stroke: #483d8b"/>
     <use xlink:href="#mb7fbd8d608" x="357.112077" y="243.5263" style="fill: #483d8b; stroke: #483d8b"/>
     <use xlink:href="#mb7fbd8d608" x="362.735031" y="243.688603" style="fill: #483d8b; stroke: #483d8b"/>
     <use xlink:href="#mb7fbd8d608" x="368.347906" y="265.526679" style="fill: #483d8b; stroke: #483d8b"/>
     <use xlink:href="#mb7fbd8d608" x="382.205465" y="252.089031" style="fill: #483d8b; stroke: #483d8b"/>
    </g>
   </g>
   <g id="matplotlib.axis_1">
    <g id="xtick_1">
     <g id="line2d_1">
      <defs>
       <path id="md2259f0909" d="M 0 0 
L 0 3.5 
" style="stroke: #000000; stroke-width: 0.8"/>
      </defs>
      <g>
       <use xlink:href="#md2259f0909" x="127.653921" y="303.64" style="stroke: #000000; stroke-width: 0.8"/>
      </g>
     </g>
     <g id="text_1">
      <!-- −40 -->
      <g transform="translate(117.101577 318.238437)scale(0.1 -0.1)">
       <defs>
        <path id="DejaVuSans-2212" d="M 678 2272 
L 4684 2272 
L 4684 1741 
L 678 1741 
L 678 2272 
z
" transform="scale(0.015625)"/>
        <path id="DejaVuSans-34" d="M 2419 4116 
L 825 1625 
L 2419 1625 
L 2419 4116 
z
M 2253 4666 
L 3047 4666 
L 3047 1625 
L 3713 1625 
L 3713 1100 
L 3047 1100 
L 3047 0 
L 2419 0 
L 2419 1100 
L 313 1100 
L 313 1709 
L 2253 4666 
z
" transform="scale(0.015625)"/>
        <path id="DejaVuSans-30" d="M 2034 4250 
Q 1547 4250 1301 3770 
Q 1056 3291 1056 2328 
Q 1056 1369 1301 889 
Q 1547 409 2034 409 
Q 2525 409 2770 889 
Q 3016 1369 3016 2328 
Q 3016 3291 2770 3770 
Q 2525 4250 2034 4250 
z
M 2034 4750 
Q 2819 4750 3233 4129 
Q 3647 3509 3647 2328 
Q 3647 1150 3233 529 
Q 2819 -91 2034 -91 
Q 1250 -91 836 529 
Q 422 1150 422 2328 
Q 422 3509 836 4129 
Q 1250 4750 2034 4750 
z
" transform="scale(0.015625)"/>
       </defs>
       <use xlink:href="#DejaVuSans-2212"/>
       <use xlink:href="#DejaVuSans-34" x="83.789062"/>
       <use xlink:href="#DejaVuSans-30" x="147.412109"/>
      </g>
     </g>
    </g>
    <g id="xtick_2">
     <g id="line2d_2">
      <g>
       <use xlink:href="#md2259f0909" x="204.01126" y="303.64" style="stroke: #000000; stroke-width: 0.8"/>
      </g>
     </g>
     <g id="text_2">
      <!-- −30 -->
      <g transform="translate(193.458916 318.238437)scale(0.1 -0.1)">
       <defs>
        <path id="DejaVuSans-33" d="M 2597 2516 
Q 3050 2419 3304 2112 
Q 3559 1806 3559 1356 
Q 3559 666 3084 287 
Q 2609 -91 1734 -91 
Q 1441 -91 1130 -33 
Q 819 25 488 141 
L 488 750 
Q 750 597 1062 519 
Q 1375 441 1716 441 
Q 2309 441 2620 675 
Q 2931 909 2931 1356 
Q 2931 1769 2642 2001 
Q 2353 2234 1838 2234 
L 1294 2234 
L 1294 2753 
L 1863 2753 
Q 2328 2753 2575 2939 
Q 2822 3125 2822 3475 
Q 2822 3834 2567 4026 
Q 2313 4219 1838 4219 
Q 1578 4219 1281 4162 
Q 984 4106 628 3988 
L 628 4550 
Q 988 4650 1302 4700 
Q 1616 4750 1894 4750 
Q 2613 4750 3031 4423 
Q 3450 4097 3450 3541 
Q 3450 3153 3228 2886 
Q 3006 2619 2597 2516 
z
" transform="scale(0.015625)"/>
       </defs>
       <use xlink:href="#DejaVuSans-2212"/>
       <use xlink:href="#DejaVuSans-33" x="83.789062"/>
       <use xlink:href="#DejaVuSans-30" x="147.412109"/>
      </g>
     </g>
    </g>
    <g id="xtick_3">
     <g id="line2d_3">
      <g>
       <use xlink:href="#md2259f0909" x="280.368599" y="303.64" style="stroke: #000000; stroke-width: 0.8"/>
      </g>
     </g>
     <g id="text_3">
      <!-- −20 -->
      <g transform="translate(269.816255 318.238437)scale(0.1 -0.1)">
       <defs>
        <path id="DejaVuSans-32" d="M 1228 531 
L 3431 531 
L 3431 0 
L 469 0 
L 469 531 
Q 828 903 1448 1529 
Q 2069 2156 2228 2338 
Q 2531 2678 2651 2914 
Q 2772 3150 2772 3378 
Q 2772 3750 2511 3984 
Q 2250 4219 1831 4219 
Q 1534 4219 1204 4116 
Q 875 4013 500 3803 
L 500 4441 
Q 881 4594 1212 4672 
Q 1544 4750 1819 4750 
Q 2544 4750 2975 4387 
Q 3406 4025 3406 3419 
Q 3406 3131 3298 2873 
Q 3191 2616 2906 2266 
Q 2828 2175 2409 1742 
Q 1991 1309 1228 531 
z
" transform="scale(0.015625)"/>
       </defs>
       <use xlink:href="#DejaVuSans-2212"/>
       <use xlink:href="#DejaVuSans-32" x="83.789062"/>
       <use xlink:href="#DejaVuSans-30" x="147.412109"/>
      </g>
     </g>
    </g>
    <g id="xtick_4">
     <g id="line2d_4">
      <g>
       <use xlink:href="#md2259f0909" x="356.725937" y="303.64" style="stroke: #000000; stroke-width: 0.8"/>
      </g>
     </g>
     <g id="text_4">
      <!-- −10 -->
      <g transform="translate(346.173594 318.238437)scale(0.1 -0.1)">
       <defs>
        <path id="DejaVuSans-31" d="M 794 531 
L 1825 531 
L 1825 4091 
L 703 3866 
L 703 4441 
L 1819 4666 
L 2450 4666 
L 2450 531 
L 3481 531 
L 3481 0 
L 794 0 
L 794 531 
z
" transform="scale(0.015625)"/>
       </defs>
       <use xlink:href="#DejaVuSans-2212"/>
       <use xlink:href="#DejaVuSans-31" x="83.789062"/>
       <use xlink:href="#DejaVuSans-30" x="147.412109"/>
      </g>
     </g>
    </g>
    <g id="text_5">
     <!-- Total -->
     <g transform="translate(216.014062 331.916562)scale(0.1 -0.1)">
      <defs>
       <path id="DejaVuSans-54" d="M -19 4666 
L 3928 4666 
L 3928 4134 
L 2272 4134 
L 2272 0 
L 1638 0 
L 1638 4134 
L -19 4134 
L -19 4666 
z
" transform="scale(0.015625)"/>
       <path id="DejaVuSans-6f" d="M 1959 3097 
Q 1497 3097 1228 2736 
Q 959 2375 959 1747 
Q 959 1119 1226 758 
Q 1494 397 1959 397 
Q 2419 397 2687 759 
Q 2956 1122 2956 1747 
Q 2956 2369 2687 2733 
Q 2419 3097 1959 3097 
z
M 1959 3584 
Q 2709 3584 3137 3096 
Q 3566 2609 3566 1747 
Q 3566 888 3137 398 
Q 2709 -91 1959 -91 
Q 1206 -91 779 398 
Q 353 888 353 1747 
Q 353 2609 779 3096 
Q 1206 3584 1959 3584 
z
" transform="scale(0.015625)"/>
       <path id="DejaVuSans-74" d="M 1172 4494 
L 1172 3500 
L 2356 3500 
L 2356 3053 
L 1172 3053 
L 1172 1153 
Q 1172 725 1289 603 
Q 1406 481 1766 481 
L 2356 481 
L 2356 0 
L 1766 0 
Q 1100 0 847 248 
Q 594 497 594 1153 
L 594 3053 
L 172 3053 
L 172 3500 
L 594 3500 
L 594 4494 
L 1172 4494 
z
" transform="scale(0.015625)"/>
       <path id="DejaVuSans-61" d="M 2194 1759 
Q 1497 1759 1228 1600 
Q 959 1441 959 1056 
Q 959 750 1161 570 
Q 1363 391 1709 391 
Q 2188 391 2477 730 
Q 2766 1069 2766 1631 
L 2766 1759 
L 2194 1759 
z
M 3341 1997 
L 3341 0 
L 2766 0 
L 2766 531 
Q 2569 213 2275 61 
Q 1981 -91 1556 -91 
Q 1019 -91 701 211 
Q 384 513 384 1019 
Q 384 1609 779 1909 
Q 1175 2209 1959 2209 
L 2766 2209 
L 2766 2266 
Q 2766 2663 2505 2880 
Q 2244 3097 1772 3097 
Q 1472 3097 1187 3025 
Q 903 2953 641 2809 
L 641 3341 
Q 956 3463 1253 3523 
Q 1550 3584 1831 3584 
Q 2591 3584 2966 3190 
Q 3341 2797 3341 1997 
z
" transform="scale(0.015625)"/>
       <path id="DejaVuSans-6c" d="M 603 4863 
L 1178 4863 
L 1178 0 
L 603 0 
L 603 4863 
z
" transform="scale(0.015625)"/>
      </defs>
      <use xlink:href="#DejaVuSans-54"/>
      <use xlink:href="#DejaVuSans-6f" x="44.083984"/>
      <use xlink:href="#DejaVuSans-74" x="105.265625"/>
      <use xlink:href="#DejaVuSans-61" x="144.474609"/>
      <use xlink:href="#DejaVuSans-6c" x="205.753906"/>
     </g>
    </g>
   </g>
   <g id="matplotlib.axis_2">
    <g id="ytick_1">
     <g id="line2d_5">
      <defs>
       <path id="mf321d1af60" d="M 0 0 
L -3.5 0 
" style="stroke: #000000; stroke-width: 0.8"/>
      </defs>
      <g>
       <use xlink:href="#mf321d1af60" x="54.12125" y="303.64" style="stroke: #000000; stroke-width: 0.8"/>
      </g>
     </g>
     <g id="text_6">
      <!-- 0.00 -->
      <g transform="translate(24.855625 307.439219)scale(0.1 -0.1)">
       <defs>
        <path id="DejaVuSans-2e" d="M 684 794 
L 1344 794 
L 1344 0 
L 684 0 
L 684 794 
z
" transform="scale(0.015625)"/>
       </defs>
       <use xlink:href="#DejaVuSans-30"/>
       <use xlink:href="#DejaVuSans-2e" x="63.623047"/>
       <use xlink:href="#DejaVuSans-30" x="95.410156"/>
       <use xlink:href="#DejaVuSans-30" x="159.033203"/>
      </g>
     </g>
    </g>
    <g id="ytick_2">
     <g id="line2d_6">
      <g>
       <use xlink:href="#mf321d1af60" x="54.12125" y="272.339444" style="stroke: #000000; stroke-width: 0.8"/>
      </g>
     </g>
     <g id="text_7">
      <!-- 0.25 -->
      <g transform="translate(24.855625 276.138663)scale(0.1 -0.1)">
       <defs>
        <path id="DejaVuSans-35" d="M 691 4666 
L 3169 4666 
L 3169 4134 
L 1269 4134 
L 1269 2991 
Q 1406 3038 1543 3061 
Q 1681 3084 1819 3084 
Q 2600 3084 3056 2656 
Q 3513 2228 3513 1497 
Q 3513 744 3044 326 
Q 2575 -91 1722 -91 
Q 1428 -91 1123 -41 
Q 819 9 494 109 
L 494 744 
Q 775 591 1075 516 
Q 1375 441 1709 441 
Q 2250 441 2565 725 
Q 2881 1009 2881 1497 
Q 2881 1984 2565 2268 
Q 2250 2553 1709 2553 
Q 1456 2553 1204 2497 
Q 953 2441 691 2322 
L 691 4666 
z
" transform="scale(0.015625)"/>
       </defs>
       <use xlink:href="#DejaVuSans-30"/>
       <use xlink:href="#DejaVuSans-2e" x="63.623047"/>
       <use xlink:href="#DejaVuSans-32" x="95.410156"/>
       <use xlink:href="#DejaVuSans-35" x="159.033203"/>
      </g>
     </g>
    </g>
    <g id="ytick_3">
     <g id="line2d_7">
      <g>
       <use xlink:href="#mf321d1af60" x="54.12125" y="241.038888" style="stroke: #000000; stroke-width: 0.8"/>
      </g>
     </g>
     <g id="text_8">
      <!-- 0.50 -->
      <g transform="translate(24.855625 244.838106)scale(0.1 -0.1)">
       <use xlink:href="#DejaVuSans-30"/>
       <use xlink:href="#DejaVuSans-2e" x="63.623047"/>
       <use xlink:href="#DejaVuSans-35" x="95.410156"/>
       <use xlink:href="#DejaVuSans-30" x="159.033203"/>
      </g>
     </g>
    </g>
    <g id="ytick_4">
     <g id="line2d_8">
      <g>
       <use xlink:href="#mf321d1af60" x="54.12125" y="209.738331" style="stroke: #000000; stroke-width: 0.8"/>
      </g>
     </g>
     <g id="text_9">
      <!-- 0.75 -->
      <g transform="translate(24.855625 213.53755)scale(0.1 -0.1)">
       <defs>
        <path id="DejaVuSans-37" d="M 525 4666 
L 3525 4666 
L 3525 4397 
L 1831 0 
L 1172 0 
L 2766 4134 
L 525 4134 
L 525 4666 
z
" transform="scale(0.015625)"/>
       </defs>
       <use xlink:href="#DejaVuSans-30"/>
       <use xlink:href="#DejaVuSans-2e" x="63.623047"/>
       <use xlink:href="#DejaVuSans-37" x="95.410156"/>
       <use xlink:href="#DejaVuSans-35" x="159.033203"/>
      </g>
     </g>
    </g>
    <g id="ytick_5">
     <g id="line2d_9">
      <g>
       <use xlink:href="#mf321d1af60" x="54.12125" y="178.437775" style="stroke: #000000; stroke-width: 0.8"/>
      </g>
     </g>
     <g id="text_10">
      <!-- 1.00 -->
      <g transform="translate(24.855625 182.236994)scale(0.1 -0.1)">
       <use xlink:href="#DejaVuSans-31"/>
       <use xlink:href="#DejaVuSans-2e" x="63.623047"/>
       <use xlink:href="#DejaVuSans-30" x="95.410156"/>
       <use xlink:href="#DejaVuSans-30" x="159.033203"/>
      </g>
     </g>
    </g>
    <g id="ytick_6">
     <g id="line2d_10">
      <g>
       <use xlink:href="#mf321d1af60" x="54.12125" y="147.137219" style="stroke: #000000; stroke-width: 0.8"/>
      </g>
     </g>
     <g id="text_11">
      <!-- 1.25 -->
      <g transform="translate(24.855625 150.936438)scale(0.1 -0.1)">
       <use xlink:href="#DejaVuSans-31"/>
       <use xlink:href="#DejaVuSans-2e" x="63.623047"/>
       <use xlink:href="#DejaVuSans-32" x="95.410156"/>
       <use xlink:href="#DejaVuSans-35" x="159.033203"/>
      </g>
     </g>
    </g>
    <g id="ytick_7">
     <g id="line2d_11">
      <g>
       <use xlink:href="#mf321d1af60" x="54.12125" y="115.836663" style="stroke: #000000; stroke-width: 0.8"/>
      </g>
     </g>
     <g id="text_12">
      <!-- 1.50 -->
      <g transform="translate(24.855625 119.635881)scale(0.1 -0.1)">
       <use xlink:href="#DejaVuSans-31"/>
       <use xlink:href="#DejaVuSans-2e" x="63.623047"/>
       <use xlink:href="#DejaVuSans-35" x="95.410156"/>
       <use xlink:href="#DejaVuSans-30" x="159.033203"/>
      </g>
     </g>
    </g>
    <g id="ytick_8">
     <g id="line2d_12">
      <g>
       <use xlink:href="#mf321d1af60" x="54.12125" y="84.536106" style="stroke: #000000; stroke-width: 0.8"/>
      </g>
     </g>
     <g id="text_13">
      <!-- 1.75 -->
      <g transform="translate(24.855625 88.335325)scale(0.1 -0.1)">
       <use xlink:href="#DejaVuSans-31"/>
       <use xlink:href="#DejaVuSans-2e" x="63.623047"/>
       <use xlink:href="#DejaVuSans-37" x="95.410156"/>
       <use xlink:href="#DejaVuSans-35" x="159.033203"/>
      </g>
     </g>
    </g>
    <g id="ytick_9">
     <g id="line2d_13">
      <g>
       <use xlink:href="#mf321d1af60" x="54.12125" y="53.23555" style="stroke: #000000; stroke-width: 0.8"/>
      </g>
     </g>
     <g id="text_14">
      <!-- 2.00 -->
      <g transform="translate(24.855625 57.034769)scale(0.1 -0.1)">
       <use xlink:href="#DejaVuSans-32"/>
       <use xlink:href="#DejaVuSans-2e" x="63.623047"/>
       <use xlink:href="#DejaVuSans-30" x="95.410156"/>
       <use xlink:href="#DejaVuSans-30" x="159.033203"/>
      </g>
     </g>
    </g>
    <g id="text_15">
     <!-- PercentGpA_transformed -->
     <g transform="translate(18.497813 238.245001)rotate(-90)scale(0.1 -0.1)">
      <defs>
       <path id="DejaVuSans-50" d="M 1259 4147 
L 1259 2394 
L 2053 2394 
Q 2494 2394 2734 2622 
Q 2975 2850 2975 3272 
Q 2975 3691 2734 3919 
Q 2494 4147 2053 4147 
L 1259 4147 
z
M 628 4666 
L 2053 4666 
Q 2838 4666 3239 4311 
Q 3641 3956 3641 3272 
Q 3641 2581 3239 2228 
Q 2838 1875 2053 1875 
L 1259 1875 
L 1259 0 
L 628 0 
L 628 4666 
z
" transform="scale(0.015625)"/>
       <path id="DejaVuSans-65" d="M 3597 1894 
L 3597 1613 
L 953 1613 
Q 991 1019 1311 708 
Q 1631 397 2203 397 
Q 2534 397 2845 478 
Q 3156 559 3463 722 
L 3463 178 
Q 3153 47 2828 -22 
Q 2503 -91 2169 -91 
Q 1331 -91 842 396 
Q 353 884 353 1716 
Q 353 2575 817 3079 
Q 1281 3584 2069 3584 
Q 2775 3584 3186 3129 
Q 3597 2675 3597 1894 
z
M 3022 2063 
Q 3016 2534 2758 2815 
Q 2500 3097 2075 3097 
Q 1594 3097 1305 2825 
Q 1016 2553 972 2059 
L 3022 2063 
z
" transform="scale(0.015625)"/>
       <path id="DejaVuSans-72" d="M 2631 2963 
Q 2534 3019 2420 3045 
Q 2306 3072 2169 3072 
Q 1681 3072 1420 2755 
Q 1159 2438 1159 1844 
L 1159 0 
L 581 0 
L 581 3500 
L 1159 3500 
L 1159 2956 
Q 1341 3275 1631 3429 
Q 1922 3584 2338 3584 
Q 2397 3584 2469 3576 
Q 2541 3569 2628 3553 
L 2631 2963 
z
" transform="scale(0.015625)"/>
       <path id="DejaVuSans-63" d="M 3122 3366 
L 3122 2828 
Q 2878 2963 2633 3030 
Q 2388 3097 2138 3097 
Q 1578 3097 1268 2742 
Q 959 2388 959 1747 
Q 959 1106 1268 751 
Q 1578 397 2138 397 
Q 2388 397 2633 464 
Q 2878 531 3122 666 
L 3122 134 
Q 2881 22 2623 -34 
Q 2366 -91 2075 -91 
Q 1284 -91 818 406 
Q 353 903 353 1747 
Q 353 2603 823 3093 
Q 1294 3584 2113 3584 
Q 2378 3584 2631 3529 
Q 2884 3475 3122 3366 
z
" transform="scale(0.015625)"/>
       <path id="DejaVuSans-6e" d="M 3513 2113 
L 3513 0 
L 2938 0 
L 2938 2094 
Q 2938 2591 2744 2837 
Q 2550 3084 2163 3084 
Q 1697 3084 1428 2787 
Q 1159 2491 1159 1978 
L 1159 0 
L 581 0 
L 581 3500 
L 1159 3500 
L 1159 2956 
Q 1366 3272 1645 3428 
Q 1925 3584 2291 3584 
Q 2894 3584 3203 3211 
Q 3513 2838 3513 2113 
z
" transform="scale(0.015625)"/>
       <path id="DejaVuSans-47" d="M 3809 666 
L 3809 1919 
L 2778 1919 
L 2778 2438 
L 4434 2438 
L 4434 434 
Q 4069 175 3628 42 
Q 3188 -91 2688 -91 
Q 1594 -91 976 548 
Q 359 1188 359 2328 
Q 359 3472 976 4111 
Q 1594 4750 2688 4750 
Q 3144 4750 3555 4637 
Q 3966 4525 4313 4306 
L 4313 3634 
Q 3963 3931 3569 4081 
Q 3175 4231 2741 4231 
Q 1884 4231 1454 3753 
Q 1025 3275 1025 2328 
Q 1025 1384 1454 906 
Q 1884 428 2741 428 
Q 3075 428 3337 486 
Q 3600 544 3809 666 
z
" transform="scale(0.015625)"/>
       <path id="DejaVuSans-70" d="M 1159 525 
L 1159 -1331 
L 581 -1331 
L 581 3500 
L 1159 3500 
L 1159 2969 
Q 1341 3281 1617 3432 
Q 1894 3584 2278 3584 
Q 2916 3584 3314 3078 
Q 3713 2572 3713 1747 
Q 3713 922 3314 415 
Q 2916 -91 2278 -91 
Q 1894 -91 1617 61 
Q 1341 213 1159 525 
z
M 3116 1747 
Q 3116 2381 2855 2742 
Q 2594 3103 2138 3103 
Q 1681 3103 1420 2742 
Q 1159 2381 1159 1747 
Q 1159 1113 1420 752 
Q 1681 391 2138 391 
Q 2594 391 2855 752 
Q 3116 1113 3116 1747 
z
" transform="scale(0.015625)"/>
       <path id="DejaVuSans-41" d="M 2188 4044 
L 1331 1722 
L 3047 1722 
L 2188 4044 
z
M 1831 4666 
L 2547 4666 
L 4325 0 
L 3669 0 
L 3244 1197 
L 1141 1197 
L 716 0 
L 50 0 
L 1831 4666 
z
" transform="scale(0.015625)"/>
       <path id="DejaVuSans-5f" d="M 3263 -1063 
L 3263 -1509 
L -63 -1509 
L -63 -1063 
L 3263 -1063 
z
" transform="scale(0.015625)"/>
       <path id="DejaVuSans-73" d="M 2834 3397 
L 2834 2853 
Q 2591 2978 2328 3040 
Q 2066 3103 1784 3103 
Q 1356 3103 1142 2972 
Q 928 2841 928 2578 
Q 928 2378 1081 2264 
Q 1234 2150 1697 2047 
L 1894 2003 
Q 2506 1872 2764 1633 
Q 3022 1394 3022 966 
Q 3022 478 2636 193 
Q 2250 -91 1575 -91 
Q 1294 -91 989 -36 
Q 684 19 347 128 
L 347 722 
Q 666 556 975 473 
Q 1284 391 1588 391 
Q 1994 391 2212 530 
Q 2431 669 2431 922 
Q 2431 1156 2273 1281 
Q 2116 1406 1581 1522 
L 1381 1569 
Q 847 1681 609 1914 
Q 372 2147 372 2553 
Q 372 3047 722 3315 
Q 1072 3584 1716 3584 
Q 2034 3584 2315 3537 
Q 2597 3491 2834 3397 
z
" transform="scale(0.015625)"/>
       <path id="DejaVuSans-66" d="M 2375 4863 
L 2375 4384 
L 1825 4384 
Q 1516 4384 1395 4259 
Q 1275 4134 1275 3809 
L 1275 3500 
L 2222 3500 
L 2222 3053 
L 1275 3053 
L 1275 0 
L 697 0 
L 697 3053 
L 147 3053 
L 147 3500 
L 697 3500 
L 697 3744 
Q 697 4328 969 4595 
Q 1241 4863 1831 4863 
L 2375 4863 
z
" transform="scale(0.015625)"/>
       <path id="DejaVuSans-6d" d="M 3328 2828 
Q 3544 3216 3844 3400 
Q 4144 3584 4550 3584 
Q 5097 3584 5394 3201 
Q 5691 2819 5691 2113 
L 5691 0 
L 5113 0 
L 5113 2094 
Q 5113 2597 4934 2840 
Q 4756 3084 4391 3084 
Q 3944 3084 3684 2787 
Q 3425 2491 3425 1978 
L 3425 0 
L 2847 0 
L 2847 2094 
Q 2847 2600 2669 2842 
Q 2491 3084 2119 3084 
Q 1678 3084 1418 2786 
Q 1159 2488 1159 1978 
L 1159 0 
L 581 0 
L 581 3500 
L 1159 3500 
L 1159 2956 
Q 1356 3278 1631 3431 
Q 1906 3584 2284 3584 
Q 2666 3584 2933 3390 
Q 3200 3197 3328 2828 
z
" transform="scale(0.015625)"/>
       <path id="DejaVuSans-64" d="M 2906 2969 
L 2906 4863 
L 3481 4863 
L 3481 0 
L 2906 0 
L 2906 525 
Q 2725 213 2448 61 
Q 2172 -91 1784 -91 
Q 1150 -91 751 415 
Q 353 922 353 1747 
Q 353 2572 751 3078 
Q 1150 3584 1784 3584 
Q 2172 3584 2448 3432 
Q 2725 3281 2906 2969 
z
M 947 1747 
Q 947 1113 1208 752 
Q 1469 391 1925 391 
Q 2381 391 2643 752 
Q 2906 1113 2906 1747 
Q 2906 2381 2643 2742 
Q 2381 3103 1925 3103 
Q 1469 3103 1208 2742 
Q 947 2381 947 1747 
z
" transform="scale(0.015625)"/>
      </defs>
      <use xlink:href="#DejaVuSans-50"/>
      <use xlink:href="#DejaVuSans-65" x="56.677734"/>
      <use xlink:href="#DejaVuSans-72" x="118.201172"/>
      <use xlink:href="#DejaVuSans-63" x="157.064453"/>
      <use xlink:href="#DejaVuSans-65" x="212.044922"/>
      <use xlink:href="#DejaVuSans-6e" x="273.568359"/>
      <use xlink:href="#DejaVuSans-74" x="336.947266"/>
      <use xlink:href="#DejaVuSans-47" x="376.15625"/>
      <use xlink:href="#DejaVuSans-70" x="453.646484"/>
      <use xlink:href="#DejaVuSans-41" x="517.123047"/>
      <use xlink:href="#DejaVuSans-5f" x="585.53125"/>
      <use xlink:href="#DejaVuSans-74" x="635.53125"/>
      <use xlink:href="#DejaVuSans-72" x="674.740234"/>
      <use xlink:href="#DejaVuSans-61" x="715.853516"/>
      <use xlink:href="#DejaVuSans-6e" x="777.132812"/>
      <use xlink:href="#DejaVuSans-73" x="840.511719"/>
      <use xlink:href="#DejaVuSans-66" x="892.611328"/>
      <use xlink:href="#DejaVuSans-6f" x="927.816406"/>
      <use xlink:href="#DejaVuSans-72" x="988.998047"/>
      <use xlink:href="#DejaVuSans-6d" x="1028.361328"/>
      <use xlink:href="#DejaVuSans-65" x="1125.773438"/>
      <use xlink:href="#DejaVuSans-64" x="1187.296875"/>
     </g>
    </g>
   </g>
   <g id="LineCollection_1">
    <path d="M 69.900284 185.157513 
L 69.900284 165.636722 
" clip-path="url(#pb6bbbe4de4)" style="fill: none; stroke: #d3d3d3; stroke-width: 3"/>
    <path d="M 120.809249 168.705286 
L 120.809249 143.96863 
" clip-path="url(#pb6bbbe4de4)" style="fill: none; stroke: #d3d3d3; stroke-width: 3"/>
    <path d="M 129.428465 187.004213 
L 129.428465 169.332453 
" clip-path="url(#pb6bbbe4de4)" style="fill: none; stroke: #d3d3d3; stroke-width: 3"/>
    <path d="M 139.945925 224.234837 
L 139.945925 166.37143 
" clip-path="url(#pb6bbbe4de4)" style="fill: none; stroke: #d3d3d3; stroke-width: 3"/>
    <path d="M 167.523905 214.230184 
L 167.523905 197.200327 
" clip-path="url(#pb6bbbe4de4)" style="fill: none; stroke: #d3d3d3; stroke-width: 3"/>
    <path d="M 173.559953 184.951302 
L 173.559953 140.412571 
" clip-path="url(#pb6bbbe4de4)" style="fill: none; stroke: #d3d3d3; stroke-width: 3"/>
    <path d="M 182.427331 281.67498 
L 182.427331 261.738663 
" clip-path="url(#pb6bbbe4de4)" style="fill: none; stroke: #d3d3d3; stroke-width: 3"/>
    <path d="M 186.084084 230.931556 
L 186.084084 142.903495 
" clip-path="url(#pb6bbbe4de4)" style="fill: none; stroke: #d3d3d3; stroke-width: 3"/>
    <path d="M 190.437216 185.563356 
L 190.437216 142.915412 
" clip-path="url(#pb6bbbe4de4)" style="fill: none; stroke: #d3d3d3; stroke-width: 3"/>
    <path d="M 192.818037 305.51494 
L 192.818037 65.116958 
" clip-path="url(#pb6bbbe4de4)" style="fill: none; stroke: #d3d3d3; stroke-width: 3"/>
    <path d="M 192.887523 182.680876 
L 192.887523 136.741876 
" clip-path="url(#pb6bbbe4de4)" style="fill: none; stroke: #d3d3d3; stroke-width: 3"/>
    <path d="M 197.630077 286.834661 
L 197.630077 267.320358 
" clip-path="url(#pb6bbbe4de4)" style="fill: none; stroke: #d3d3d3; stroke-width: 3"/>
    <path d="M 207.252629 201.625381 
L 207.252629 113.43235 
" clip-path="url(#pb6bbbe4de4)" style="fill: none; stroke: #d3d3d3; stroke-width: 3"/>
    <path d="M 234.381628 266.857188 
L 234.381628 148.580457 
" clip-path="url(#pb6bbbe4de4)" style="fill: none; stroke: #d3d3d3; stroke-width: 3"/>
    <path d="M 236.989994 203.755156 
L 236.989994 187.401101 
" clip-path="url(#pb6bbbe4de4)" style="fill: none; stroke: #d3d3d3; stroke-width: 3"/>
    <path d="M 238.517141 285.434567 
L 238.517141 275.911988 
" clip-path="url(#pb6bbbe4de4)" style="fill: none; stroke: #d3d3d3; stroke-width: 3"/>
    <path d="M 239.428848 201.114505 
L 239.428848 168.299637 
" clip-path="url(#pb6bbbe4de4)" style="fill: none; stroke: #d3d3d3; stroke-width: 3"/>
    <path d="M 239.986256 190.128166 
L 239.986256 144.538273 
" clip-path="url(#pb6bbbe4de4)" style="fill: none; stroke: #d3d3d3; stroke-width: 3"/>
    <path d="M 243.475787 288.529111 
L 243.475787 269.781899 
" clip-path="url(#pb6bbbe4de4)" style="fill: none; stroke: #d3d3d3; stroke-width: 3"/>
    <path d="M 249.255274 207.127911 
L 249.255274 187.097026 
" clip-path="url(#pb6bbbe4de4)" style="fill: none; stroke: #d3d3d3; stroke-width: 3"/>
    <path d="M 257.881362 203.148085 
L 257.881362 151.598217 
" clip-path="url(#pb6bbbe4de4)" style="fill: none; stroke: #d3d3d3; stroke-width: 3"/>
    <path d="M 261.209779 177.570524 
L 261.209779 131.357687 
" clip-path="url(#pb6bbbe4de4)" style="fill: none; stroke: #d3d3d3; stroke-width: 3"/>
    <path d="M 261.294535 187.642339 
L 261.294535 169.775013 
" clip-path="url(#pb6bbbe4de4)" style="fill: none; stroke: #d3d3d3; stroke-width: 3"/>
    <path d="M 261.5007 223.791853 
L 261.5007 209.154993 
" clip-path="url(#pb6bbbe4de4)" style="fill: none; stroke: #d3d3d3; stroke-width: 3"/>
    <path d="M 267.881119 246.171534 
L 267.881119 210.961765 
" clip-path="url(#pb6bbbe4de4)" style="fill: none; stroke: #d3d3d3; stroke-width: 3"/>
    <path d="M 267.965112 254.857054 
L 267.965112 232.275722 
" clip-path="url(#pb6bbbe4de4)" style="fill: none; stroke: #d3d3d3; stroke-width: 3"/>
    <path d="M 268.82795 235.047331 
L 268.82795 232.194646 
" clip-path="url(#pb6bbbe4de4)" style="fill: none; stroke: #d3d3d3; stroke-width: 3"/>
    <path d="M 269.892372 246.95063 
L 269.892372 182.326568 
" clip-path="url(#pb6bbbe4de4)" style="fill: none; stroke: #d3d3d3; stroke-width: 3"/>
    <path d="M 275.556559 156.631635 
L 275.556559 131.558256 
" clip-path="url(#pb6bbbe4de4)" style="fill: none; stroke: #d3d3d3; stroke-width: 3"/>
    <path d="M 302.894014 201.774332 
L 302.894014 157.784354 
" clip-path="url(#pb6bbbe4de4)" style="fill: none; stroke: #d3d3d3; stroke-width: 3"/>
    <path d="M 316.523799 208.994656 
L 316.523799 106.07272 
" clip-path="url(#pb6bbbe4de4)" style="fill: none; stroke: #d3d3d3; stroke-width: 3"/>
    <path d="M 344.74318 271.874063 
L 344.74318 259.718272 
" clip-path="url(#pb6bbbe4de4)" style="fill: none; stroke: #d3d3d3; stroke-width: 3"/>
    <path d="M 377.408697 179.080181 
L 377.408697 136.781555 
" clip-path="url(#pb6bbbe4de4)" style="fill: none; stroke: #d3d3d3; stroke-width: 3"/>
   </g>
   <g id="LineCollection_2">
    <path d="M 239.80758 295.524297 
L 239.80758 253.191064 
" clip-path="url(#pb6bbbe4de4)" style="fill: none; stroke: #d3d3d3; stroke-width: 3"/>
    <path d="M 243.601776 292.009125 
L 243.601776 264.1505 
" clip-path="url(#pb6bbbe4de4)" style="fill: none; stroke: #d3d3d3; stroke-width: 3"/>
    <path d="M 273.561342 274.59902 
L 273.561342 245.067649 
" clip-path="url(#pb6bbbe4de4)" style="fill: none; stroke: #d3d3d3; stroke-width: 3"/>
    <path d="M 287.169747 233.280139 
L 287.169747 213.743268 
" clip-path="url(#pb6bbbe4de4)" style="fill: none; stroke: #d3d3d3; stroke-width: 3"/>
    <path d="M 318.269327 260.658932 
L 318.269327 245.02548 
" clip-path="url(#pb6bbbe4de4)" style="fill: none; stroke: #d3d3d3; stroke-width: 3"/>
    <path d="M 322.213184 264.040876 
L 322.213184 238.145331 
" clip-path="url(#pb6bbbe4de4)" style="fill: none; stroke: #d3d3d3; stroke-width: 3"/>
    <path d="M 325.62712 277.870575 
L 325.62712 261.664606 
" clip-path="url(#pb6bbbe4de4)" style="fill: none; stroke: #d3d3d3; stroke-width: 3"/>
    <path d="M 345.719791 260.26427 
L 345.719791 235.803327 
" clip-path="url(#pb6bbbe4de4)" style="fill: none; stroke: #d3d3d3; stroke-width: 3"/>
    <path d="M 370.682532 346.6 
L 370.682532 108.695615 
" clip-path="url(#pb6bbbe4de4)" style="fill: none; stroke: #d3d3d3; stroke-width: 3"/>
    <path d="M 382.27999 301.833014 
L 382.27999 244.773589 
" clip-path="url(#pb6bbbe4de4)" style="fill: none; stroke: #d3d3d3; stroke-width: 3"/>
    <path d="M 385.480966 248.770769 
L 385.480966 221.765965 
" clip-path="url(#pb6bbbe4de4)" style="fill: none; stroke: #d3d3d3; stroke-width: 3"/>
   </g>
   <g id="LineCollection_3">
    <path d="M 313.564952 261.550575 
L 313.564952 247.347227 
" clip-path="url(#pb6bbbe4de4)" style="fill: none; stroke: #d3d3d3; stroke-width: 3"/>
    <path d="M 327.122197 255.24674 
L 327.122197 246.157938 
" clip-path="url(#pb6bbbe4de4)" style="fill: none; stroke: #d3d3d3; stroke-width: 3"/>
    <path d="M 339.947176 235.256006 
L 339.947176 210.834048 
" clip-path="url(#pb6bbbe4de4)" style="fill: none; stroke: #d3d3d3; stroke-width: 3"/>
    <path d="M 341.559079 287.382811 
L 341.559079 262.060704 
" clip-path="url(#pb6bbbe4de4)" style="fill: none; stroke: #d3d3d3; stroke-width: 3"/>
    <path d="M 343.162583 251.244626 
L 343.162583 226.293162 
" clip-path="url(#pb6bbbe4de4)" style="fill: none; stroke: #d3d3d3; stroke-width: 3"/>
    <path d="M 357.112077 253.293258 
L 357.112077 233.759342 
" clip-path="url(#pb6bbbe4de4)" style="fill: none; stroke: #d3d3d3; stroke-width: 3"/>
    <path d="M 362.735031 251.674115 
L 362.735031 235.703091 
" clip-path="url(#pb6bbbe4de4)" style="fill: none; stroke: #d3d3d3; stroke-width: 3"/>
    <path d="M 368.347906 272.612928 
L 368.347906 258.44043 
" clip-path="url(#pb6bbbe4de4)" style="fill: none; stroke: #d3d3d3; stroke-width: 3"/>
    <path d="M 382.205465 257.744362 
L 382.205465 246.433699 
" clip-path="url(#pb6bbbe4de4)" style="fill: none; stroke: #d3d3d3; stroke-width: 3"/>
   </g>
   <g id="line2d_14">
    <path d="M 69.900284 168.328688 
L 120.809249 181.393219 
L 129.428465 183.605129 
L 139.945925 186.304176 
L 167.523905 193.381384 
L 173.559953 194.930387 
L 182.427331 197.205981 
L 186.084084 198.144397 
L 190.437216 199.261521 
L 192.818037 199.8725 
L 192.887523 199.890331 
L 197.630077 201.107391 
L 207.252629 203.576782 
L 234.381628 210.538771 
L 236.989994 211.208144 
L 238.517141 211.600048 
L 239.428848 211.834015 
L 239.986256 211.977061 
L 243.475787 212.872562 
L 249.255274 214.355725 
L 257.881362 216.569398 
L 261.209779 217.423554 
L 261.294535 217.445305 
L 261.5007 217.498212 
L 267.881119 219.13559 
L 267.965112 219.157144 
L 268.82795 219.37857 
L 269.892372 219.651728 
L 275.556559 221.105302 
L 302.894014 228.120786 
L 316.523799 231.618534 
L 344.74318 238.860343 
L 377.408697 247.243143 
L 239.80758 211.931208 
L 243.601776 212.904895 
L 273.561342 220.593279 
L 287.169747 224.08554 
L 318.269327 232.066481 
L 322.213184 233.078575 
L 325.62712 233.954677 
L 345.719791 239.110966 
L 370.682532 245.517038 
L 382.27999 248.49324 
L 385.480966 249.314691 
L 313.564952 230.859219 
L 327.122197 234.338352 
L 339.947176 237.629567 
L 341.559079 238.043222 
L 343.162583 238.454722 
L 357.112077 242.034515 
L 362.735031 243.477508 
L 368.347906 244.917914 
L 382.205465 248.474115 
" clip-path="url(#pb6bbbe4de4)" style="fill: none; stroke: #1f77b4; stroke-width: 1.5; stroke-linecap: square"/>
   </g>
   <g id="line2d_15">
    <g clip-path="url(#pb6bbbe4de4)">
     <use xlink:href="#m6855bcfcaa" x="69.900284" y="175.397118" style="fill: #3cb371; stroke: #3cb371"/>
     <use xlink:href="#m6855bcfcaa" x="120.809249" y="156.336958" style="fill: #3cb371; stroke: #3cb371"/>
     <use xlink:href="#m6855bcfcaa" x="129.428465" y="178.168333" style="fill: #3cb371; stroke: #3cb371"/>
     <use xlink:href="#m6855bcfcaa" x="139.945925" y="195.303134" style="fill: #3cb371; stroke: #3cb371"/>
     <use xlink:href="#m6855bcfcaa" x="167.523905" y="205.715255" style="fill: #3cb371; stroke: #3cb371"/>
     <use xlink:href="#m6855bcfcaa" x="173.559953" y="162.681936" style="fill: #3cb371; stroke: #3cb371"/>
     <use xlink:href="#m6855bcfcaa" x="182.427331" y="271.706821" style="fill: #3cb371; stroke: #3cb371"/>
     <use xlink:href="#m6855bcfcaa" x="186.084084" y="186.917525" style="fill: #3cb371; stroke: #3cb371"/>
     <use xlink:href="#m6855bcfcaa" x="190.437216" y="164.239384" style="fill: #3cb371; stroke: #3cb371"/>
     <use xlink:href="#m6855bcfcaa" x="192.818037" y="185.315949" style="fill: #3cb371; stroke: #3cb371"/>
     <use xlink:href="#m6855bcfcaa" x="192.887523" y="159.711376" style="fill: #3cb371; stroke: #3cb371"/>
     <use xlink:href="#m6855bcfcaa" x="197.630077" y="277.07751" style="fill: #3cb371; stroke: #3cb371"/>
     <use xlink:href="#m6855bcfcaa" x="207.252629" y="157.528866" style="fill: #3cb371; stroke: #3cb371"/>
     <use xlink:href="#m6855bcfcaa" x="234.381628" y="207.718823" style="fill: #3cb371; stroke: #3cb371"/>
     <use xlink:href="#m6855bcfcaa" x="236.989994" y="195.578129" style="fill: #3cb371; stroke: #3cb371"/>
     <use xlink:href="#m6855bcfcaa" x="238.517141" y="280.673278" style="fill: #3cb371; stroke: #3cb371"/>
     <use xlink:href="#m6855bcfcaa" x="239.428848" y="184.707071" style="fill: #3cb371; stroke: #3cb371"/>
     <use xlink:href="#m6855bcfcaa" x="239.986256" y="167.333219" style="fill: #3cb371; stroke: #3cb371"/>
     <use xlink:href="#m6855bcfcaa" x="243.475787" y="279.155505" style="fill: #3cb371; stroke: #3cb371"/>
     <use xlink:href="#m6855bcfcaa" x="249.255274" y="197.112469" style="fill: #3cb371; stroke: #3cb371"/>
     <use xlink:href="#m6855bcfcaa" x="257.881362" y="177.373151" style="fill: #3cb371; stroke: #3cb371"/>
     <use xlink:href="#m6855bcfcaa" x="261.209779" y="154.464106" style="fill: #3cb371; stroke: #3cb371"/>
     <use xlink:href="#m6855bcfcaa" x="261.294535" y="178.708676" style="fill: #3cb371; stroke: #3cb371"/>
     <use xlink:href="#m6855bcfcaa" x="261.5007" y="216.473423" style="fill: #3cb371; stroke: #3cb371"/>
     <use xlink:href="#m6855bcfcaa" x="267.881119" y="228.56665" style="fill: #3cb371; stroke: #3cb371"/>
     <use xlink:href="#m6855bcfcaa" x="267.965112" y="243.566388" style="fill: #3cb371; stroke: #3cb371"/>
     <use xlink:href="#m6855bcfcaa" x="268.82795" y="233.620988" style="fill: #3cb371; stroke: #3cb371"/>
     <use xlink:href="#m6855bcfcaa" x="269.892372" y="214.638599" style="fill: #3cb371; stroke: #3cb371"/>
     <use xlink:href="#m6855bcfcaa" x="275.556559" y="144.094945" style="fill: #3cb371; stroke: #3cb371"/>
     <use xlink:href="#m6855bcfcaa" x="302.894014" y="179.779343" style="fill: #3cb371; stroke: #3cb371"/>
     <use xlink:href="#m6855bcfcaa" x="316.523799" y="157.533688" style="fill: #3cb371; stroke: #3cb371"/>
     <use xlink:href="#m6855bcfcaa" x="344.74318" y="265.796167" style="fill: #3cb371; stroke: #3cb371"/>
     <use xlink:href="#m6855bcfcaa" x="377.408697" y="157.930868" style="fill: #3cb371; stroke: #3cb371"/>
    </g>
   </g>
   <g id="line2d_16">
    <g clip-path="url(#pb6bbbe4de4)">
     <use xlink:href="#ma5dddf0c14" x="239.80758" y="274.35768" style="fill: #ffdead; stroke: #ffdead"/>
     <use xlink:href="#ma5dddf0c14" x="243.601776" y="278.079812" style="fill: #ffdead; stroke: #ffdead"/>
     <use xlink:href="#ma5dddf0c14" x="273.561342" y="259.833334" style="fill: #ffdead; stroke: #ffdead"/>
     <use xlink:href="#ma5dddf0c14" x="287.169747" y="223.511703" style="fill: #ffdead; stroke: #ffdead"/>
     <use xlink:href="#ma5dddf0c14" x="318.269327" y="252.842206" style="fill: #ffdead; stroke: #ffdead"/>
     <use xlink:href="#ma5dddf0c14" x="322.213184" y="251.093103" style="fill: #ffdead; stroke: #ffdead"/>
     <use xlink:href="#ma5dddf0c14" x="325.62712" y="269.767591" style="fill: #ffdead; stroke: #ffdead"/>
     <use xlink:href="#ma5dddf0c14" x="345.719791" y="248.033798" style="fill: #ffdead; stroke: #ffdead"/>
     <use xlink:href="#ma5dddf0c14" x="370.682532" y="260.341464" style="fill: #ffdead; stroke: #ffdead"/>
     <use xlink:href="#ma5dddf0c14" x="382.27999" y="273.303301" style="fill: #ffdead; stroke: #ffdead"/>
     <use xlink:href="#ma5dddf0c14" x="385.480966" y="235.268367" style="fill: #ffdead; stroke: #ffdead"/>
    </g>
   </g>
   <g id="line2d_17">
    <g clip-path="url(#pb6bbbe4de4)">
     <use xlink:href="#mb7fbd8d608" x="313.564952" y="254.448901" style="fill: #483d8b; stroke: #483d8b"/>
     <use xlink:href="#mb7fbd8d608" x="327.122197" y="250.702339" style="fill: #483d8b; stroke: #483d8b"/>
     <use xlink:href="#mb7fbd8d608" x="339.947176" y="223.045027" style="fill: #483d8b; stroke: #483d8b"/>
     <use xlink:href="#mb7fbd8d608" x="341.559079" y="274.721758" style="fill: #483d8b; stroke: #483d8b"/>
     <use xlink:href="#mb7fbd8d608" x="343.162583" y="238.768894" style="fill: #483d8b; stroke: #483d8b"/>
     <use xlink:href="#mb7fbd8d608" x="357.112077" y="243.5263" style="fill: #483d8b; stroke: #483d8b"/>
     <use xlink:href="#mb7fbd8d608" x="362.735031" y="243.688603" style="fill: #483d8b; stroke: #483d8b"/>
     <use xlink:href="#mb7fbd8d608" x="368.347906" y="265.526679" style="fill: #483d8b; stroke: #483d8b"/>
     <use xlink:href="#mb7fbd8d608" x="382.205465" y="252.089031" style="fill: #483d8b; stroke: #483d8b"/>
    </g>
   </g>
   <g id="patch_3">
    <path d="M 54.12125 303.64 
L 54.12125 47.77344 
" style="fill: none; stroke: #000000; stroke-width: 0.8; stroke-linejoin: miter; stroke-linecap: square"/>
   </g>
   <g id="patch_4">
    <path d="M 401.26 303.64 
L 401.26 47.77344 
" style="fill: none; stroke: #000000; stroke-width: 0.8; stroke-linejoin: miter; stroke-linecap: square"/>
   </g>
   <g id="patch_5">
    <path d="M 54.12125 303.64 
L 401.26 303.64 
" style="fill: none; stroke: #000000; stroke-width: 0.8; stroke-linejoin: miter; stroke-linecap: square"/>
   </g>
   <g id="patch_6">
    <path d="M 54.12125 47.77344 
L 401.26 47.77344 
" style="fill: none; stroke: #000000; stroke-width: 0.8; stroke-linejoin: miter; stroke-linecap: square"/>
   </g>
   <g id="text_16">
    <!-- y = -0.02x + 0.34 -->
    <g transform="translate(44.110906 19.828828)scale(0.1 -0.1)">
     <defs>
      <path id="DejaVuSans-79" d="M 2059 -325 
Q 1816 -950 1584 -1140 
Q 1353 -1331 966 -1331 
L 506 -1331 
L 506 -850 
L 844 -850 
Q 1081 -850 1212 -737 
Q 1344 -625 1503 -206 
L 1606 56 
L 191 3500 
L 800 3500 
L 1894 763 
L 2988 3500 
L 3597 3500 
L 2059 -325 
z
" transform="scale(0.015625)"/>
      <path id="DejaVuSans-20" transform="scale(0.015625)"/>
      <path id="DejaVuSans-3d" d="M 678 2906 
L 4684 2906 
L 4684 2381 
L 678 2381 
L 678 2906 
z
M 678 1631 
L 4684 1631 
L 4684 1100 
L 678 1100 
L 678 1631 
z
" transform="scale(0.015625)"/>
      <path id="DejaVuSans-2d" d="M 313 2009 
L 1997 2009 
L 1997 1497 
L 313 1497 
L 313 2009 
z
" transform="scale(0.015625)"/>
      <path id="DejaVuSans-78" d="M 3513 3500 
L 2247 1797 
L 3578 0 
L 2900 0 
L 1881 1375 
L 863 0 
L 184 0 
L 1544 1831 
L 300 3500 
L 978 3500 
L 1906 2253 
L 2834 3500 
L 3513 3500 
z
" transform="scale(0.015625)"/>
      <path id="DejaVuSans-2b" d="M 2944 4013 
L 2944 2272 
L 4684 2272 
L 4684 1741 
L 2944 1741 
L 2944 0 
L 2419 0 
L 2419 1741 
L 678 1741 
L 678 2272 
L 2419 2272 
L 2419 4013 
L 2944 4013 
z
" transform="scale(0.015625)"/>
     </defs>
     <use xlink:href="#DejaVuSans-79"/>
     <use xlink:href="#DejaVuSans-20" x="59.179688"/>
     <use xlink:href="#DejaVuSans-3d" x="90.966797"/>
     <use xlink:href="#DejaVuSans-20" x="174.755859"/>
     <use xlink:href="#DejaVuSans-2d" x="206.542969"/>
     <use xlink:href="#DejaVuSans-30" x="242.626953"/>
     <use xlink:href="#DejaVuSans-2e" x="306.25"/>
     <use xlink:href="#DejaVuSans-30" x="338.037109"/>
     <use xlink:href="#DejaVuSans-32" x="401.660156"/>
     <use xlink:href="#DejaVuSans-78" x="465.283203"/>
     <use xlink:href="#DejaVuSans-20" x="524.462891"/>
     <use xlink:href="#DejaVuSans-2b" x="556.25"/>
     <use xlink:href="#DejaVuSans-20" x="640.039062"/>
     <use xlink:href="#DejaVuSans-30" x="671.826172"/>
     <use xlink:href="#DejaVuSans-2e" x="735.449219"/>
     <use xlink:href="#DejaVuSans-33" x="767.236328"/>
     <use xlink:href="#DejaVuSans-34" x="830.859375"/>
    </g>
   </g>
   <g id="text_17">
    <!-- r^2 = 0.20 -->
    <g transform="translate(60.907781 27.504825)scale(0.1 -0.1)">
     <defs>
      <path id="DejaVuSans-5e" d="M 2988 4666 
L 4684 2925 
L 4056 2925 
L 2681 4159 
L 1306 2925 
L 678 2925 
L 2375 4666 
L 2988 4666 
z
" transform="scale(0.015625)"/>
     </defs>
     <use xlink:href="#DejaVuSans-72"/>
     <use xlink:href="#DejaVuSans-5e" x="41.113281"/>
     <use xlink:href="#DejaVuSans-32" x="124.902344"/>
     <use xlink:href="#DejaVuSans-20" x="188.525391"/>
     <use xlink:href="#DejaVuSans-3d" x="220.3125"/>
     <use xlink:href="#DejaVuSans-20" x="304.101562"/>
     <use xlink:href="#DejaVuSans-30" x="335.888672"/>
     <use xlink:href="#DejaVuSans-2e" x="399.511719"/>
     <use xlink:href="#DejaVuSans-32" x="431.298828"/>
     <use xlink:href="#DejaVuSans-30" x="494.921875"/>
    </g>
   </g>
   <g id="text_18">
    <!-- n = 53 -->
    <g transform="translate(71.935906 35.180821)scale(0.1 -0.1)">
     <use xlink:href="#DejaVuSans-6e"/>
     <use xlink:href="#DejaVuSans-20" x="63.378906"/>
     <use xlink:href="#DejaVuSans-3d" x="95.166016"/>
     <use xlink:href="#DejaVuSans-20" x="178.955078"/>
     <use xlink:href="#DejaVuSans-35" x="210.742188"/>
     <use xlink:href="#DejaVuSans-33" x="274.365234"/>
    </g>
   </g>
   <g id="text_19">
    <!-- Total vs PercentGpA_transformed -->
    <g transform="translate(128.142187 41.77344)scale(0.12 -0.12)">
     <defs>
      <path id="DejaVuSans-76" d="M 191 3500 
L 800 3500 
L 1894 563 
L 2988 3500 
L 3597 3500 
L 2284 0 
L 1503 0 
L 191 3500 
z
" transform="scale(0.015625)"/>
     </defs>
     <use xlink:href="#DejaVuSans-54"/>
     <use xlink:href="#DejaVuSans-6f" x="44.083984"/>
     <use xlink:href="#DejaVuSans-74" x="105.265625"/>
     <use xlink:href="#DejaVuSans-61" x="144.474609"/>
     <use xlink:href="#DejaVuSans-6c" x="205.753906"/>
     <use xlink:href="#DejaVuSans-20" x="233.537109"/>
     <use xlink:href="#DejaVuSans-76" x="265.324219"/>
     <use xlink:href="#DejaVuSans-73" x="324.503906"/>
     <use xlink:href="#DejaVuSans-20" x="376.603516"/>
     <use xlink:href="#DejaVuSans-50" x="408.390625"/>
     <use xlink:href="#DejaVuSans-65" x="465.068359"/>
     <use xlink:href="#DejaVuSans-72" x="526.591797"/>
     <use xlink:href="#DejaVuSans-63" x="565.455078"/>
     <use xlink:href="#DejaVuSans-65" x="620.435547"/>
     <use xlink:href="#DejaVuSans-6e" x="681.958984"/>
     <use xlink:href="#DejaVuSans-74" x="745.337891"/>
     <use xlink:href="#DejaVuSans-47" x="784.546875"/>
     <use xlink:href="#DejaVuSans-70" x="862.037109"/>
     <use xlink:href="#DejaVuSans-41" x="925.513672"/>
     <use xlink:href="#DejaVuSans-5f" x="993.921875"/>
     <use xlink:href="#DejaVuSans-74" x="1043.921875"/>
     <use xlink:href="#DejaVuSans-72" x="1083.130859"/>
     <use xlink:href="#DejaVuSans-61" x="1124.244141"/>
     <use xlink:href="#DejaVuSans-6e" x="1185.523438"/>
     <use xlink:href="#DejaVuSans-73" x="1248.902344"/>
     <use xlink:href="#DejaVuSans-66" x="1301.001953"/>
     <use xlink:href="#DejaVuSans-6f" x="1336.207031"/>
     <use xlink:href="#DejaVuSans-72" x="1397.388672"/>
     <use xlink:href="#DejaVuSans-6d" x="1436.751953"/>
     <use xlink:href="#DejaVuSans-65" x="1534.164062"/>
     <use xlink:href="#DejaVuSans-64" x="1595.6875"/>
    </g>
   </g>
   <g id="legend_1">
    <g id="patch_7">
     <path d="M 408.26 99.807815 
L 448.008437 99.807815 
Q 450.008437 99.807815 450.008437 97.807815 
L 450.008437 54.77344 
Q 450.008437 52.77344 448.008437 52.77344 
L 408.26 52.77344 
Q 406.26 52.77344 406.26 54.77344 
L 406.26 97.807815 
Q 406.26 99.807815 408.26 99.807815 
z
" style="fill: #ffffff; opacity: 0.8; stroke: #cccccc; stroke-linejoin: miter"/>
    </g>
    <g id="PathCollection_4">
     <g>
      <use xlink:href="#m6855bcfcaa" x="420.26" y="61.746877" style="fill: #3cb371; stroke: #3cb371"/>
     </g>
    </g>
    <g id="text_20">
     <!-- G -->
     <g transform="translate(438.26 64.371877)scale(0.1 -0.1)">
      <use xlink:href="#DejaVuSans-47"/>
     </g>
    </g>
    <g id="PathCollection_5">
     <g>
      <use xlink:href="#ma5dddf0c14" x="420.26" y="76.425003" style="fill: #ffdead; stroke: #ffdead"/>
     </g>
    </g>
    <g id="text_21">
     <!-- L -->
     <g transform="translate(438.26 79.050003)scale(0.1 -0.1)">
      <defs>
       <path id="DejaVuSans-4c" d="M 628 4666 
L 1259 4666 
L 1259 531 
L 3531 531 
L 3531 0 
L 628 0 
L 628 4666 
z
" transform="scale(0.015625)"/>
      </defs>
      <use xlink:href="#DejaVuSans-4c"/>
     </g>
    </g>
    <g id="PathCollection_6">
     <g>
      <use xlink:href="#mb7fbd8d608" x="420.26" y="91.103127" style="fill: #483d8b; stroke: #483d8b"/>
     </g>
    </g>
    <g id="text_22">
     <!-- R -->
     <g transform="translate(438.26 93.728127)scale(0.1 -0.1)">
      <defs>
       <path id="DejaVuSans-52" d="M 2841 2188 
Q 3044 2119 3236 1894 
Q 3428 1669 3622 1275 
L 4263 0 
L 3584 0 
L 2988 1197 
Q 2756 1666 2539 1819 
Q 2322 1972 1947 1972 
L 1259 1972 
L 1259 0 
L 628 0 
L 628 4666 
L 2053 4666 
Q 2853 4666 3247 4331 
Q 3641 3997 3641 3322 
Q 3641 2881 3436 2590 
Q 3231 2300 2841 2188 
z
M 1259 4147 
L 1259 2491 
L 2053 2491 
Q 2509 2491 2742 2702 
Q 2975 2913 2975 3322 
Q 2975 3731 2742 3939 
Q 2509 4147 2053 4147 
L 1259 4147 
z
" transform="scale(0.015625)"/>
      </defs>
      <use xlink:href="#DejaVuSans-52"/>
     </g>
    </g>
   </g>
  </g>
 </g>
 <defs>
  <clipPath id="pb6bbbe4de4">
   <rect x="54.12125" y="47.77344" width="347.13875" height="255.86656"/>
  </clipPath>
 </defs>
</svg>
